<?xml version="1.0" standalone="no"?><!DOCTYPE svg PUBLIC "-//W3C//DTD SVG 1.1//EN" "http://www.w3.org/Graphics/SVG/1.1/DTD/svg11.dtd"><svg xmlns="http://www.w3.org/2000/svg" version="1.1" width="750px" height="41.7px" viewBox="0 -7 750 41.7" style="top:-7px">  <desc>ANDEMBRY®: SIMPLE, CONVENIENT AND CONSISTENT DOSING1</desc>  <defs/>  <g id="Polygon203165">    <path d="M 4.8 0.1 L 8 0.1 L 12.1 20.3 L 9.3 20.3 L 8.4 15.1 L 4 15.1 L 3.1 20.3 L 0.3 20.3 L 4.8 0.1 Z M 4.5 12.8 L 8 12.8 L 6.3 3 L 6.2 3 L 4.5 12.8 Z M 13.3 0.1 L 17.2 0.1 L 20.5 16.9 L 20.6 16.9 L 20.6 0.1 L 23.2 0.1 L 23.2 20.3 L 19.2 20.3 L 15.8 3 L 15.8 3 L 15.8 20.3 L 13.3 20.3 L 13.3 0.1 Z M 27.9 17.9 C 27.9 17.9 29.26 17.92 29.3 17.9 C 31.3 17.9 31.7 16.8 31.7 13.4 C 31.7 13.4 31.7 6.4 31.7 6.4 C 31.7 3.4 31.4 2.4 29 2.4 C 29.04 2.41 27.9 2.4 27.9 2.4 L 27.9 17.9 Z M 25.1 0.1 C 25.1 0.1 29.62 0.06 29.6 0.1 C 34.2 0.1 34.5 1.6 34.5 7.4 C 34.5 7.4 34.5 13.5 34.5 13.5 C 34.5 18.6 33.6 20.3 29.2 20.3 C 29.18 20.27 25.1 20.3 25.1 20.3 L 25.1 0.1 Z M 36.4 0.1 L 44 0.1 L 44 2.4 L 39.2 2.4 L 39.2 8.7 L 43.7 8.7 L 43.7 11.1 L 39.2 11.1 L 39.2 17.9 L 44 17.9 L 44 20.3 L 36.4 20.3 L 36.4 0.1 Z M 45.1 0.1 L 49.5 0.1 L 52.1 15.5 L 52.1 15.5 L 54.7 0.1 L 59.1 0.1 L 59.1 20.3 L 56.4 20.3 L 56.4 2.1 L 56.4 2.1 L 53.5 20.3 L 50.7 20.3 L 47.6 2.1 L 47.5 2.1 L 47.5 20.3 L 45.1 20.3 L 45.1 0.1 Z M 61 0.1 C 61 0.1 65.85 0.06 65.9 0.1 C 69.3 0.1 69.9 1.3 69.9 5 C 69.9 8.9 69.2 9.6 67.3 9.8 C 67.3 9.8 67.3 9.9 67.3 9.9 C 69.6 10.3 70 11.1 70 14.5 C 70 18.9 69.5 20.3 65.4 20.3 C 65.38 20.27 61 20.3 61 20.3 L 61 0.1 Z M 63.8 18.1 C 63.8 18.1 65.52 18.09 65.5 18.1 C 67.1 18.1 67.4 17.6 67.4 14.4 C 67.4 11.4 67.1 10.9 65.6 10.9 C 65.6 10.92 63.8 10.9 63.8 10.9 L 63.8 18.1 Z M 63.8 8.7 C 63.8 8.7 65.41 8.74 65.4 8.7 C 67.1 8.7 67.3 8.4 67.3 5.1 C 67.3 2.8 66.9 2.2 65.1 2.2 C 65.1 2.24 63.8 2.2 63.8 2.2 L 63.8 8.7 Z M 71.7 0.1 C 71.7 0.1 76.07 0.06 76.1 0.1 C 80.2 0.1 80.6 1.1 80.6 5.6 C 80.6 8.3 80.2 9.5 77.9 10.2 C 77.9 10.2 77.9 10.2 77.9 10.2 C 79.8 10.4 80.5 11.4 80.5 13.3 C 80.5 13.3 80.5 17.7 80.5 17.7 C 80.5 18.4 80.5 19.4 80.6 20.3 C 80.6 20.3 78 20.3 78 20.3 C 77.7 19.8 77.7 19.3 77.7 18.5 C 77.7 18.5 77.7 13.9 77.7 13.9 C 77.7 12 77.3 11.5 75.5 11.5 C 75.49 11.48 74.5 11.5 74.5 11.5 L 74.5 20.3 L 71.7 20.3 L 71.7 0.1 Z M 74.5 9.1 C 74.5 9.1 75.26 9.13 75.3 9.1 C 77.5 9.1 77.8 8.7 77.8 5.7 C 77.8 2.7 77.6 2.4 75.9 2.4 C 75.88 2.41 74.5 2.4 74.5 2.4 L 74.5 9.1 Z M 80.6 0.1 L 83.4 0.1 L 85.9 8.6 L 85.9 8.6 L 88.7 0.1 L 91.2 0.1 L 87.3 12 L 87.3 20.3 L 84.5 20.3 L 84.5 12 L 80.6 0.1 Z M 98 -0.9 C 101.3 -0.9 104 1.7 104 5.1 C 104 8.4 101.3 11 98 11 C 94.7 11 92 8.4 92 5.1 C 92 1.7 94.7 -0.9 98 -0.9 Z M 98 9.9 C 100.6 9.9 102.7 7.7 102.7 5.1 C 102.7 2.4 100.6 0.2 98 0.2 C 95.3 0.2 93.3 2.4 93.3 5.1 C 93.3 7.7 95.3 9.9 98 9.9 Z M 97.6 5.5 L 96.6 5.5 L 96.6 8.5 L 95.4 8.5 L 95.4 1.6 C 95.4 1.6 98.09 1.63 98.1 1.6 C 99.8 1.6 100.7 2.2 100.7 3.6 C 100.7 4.8 99.9 5.3 98.9 5.4 C 98.92 5.4 100.8 8.5 100.8 8.5 L 99.4 8.5 L 97.6 5.5 Z M 97.8 4.5 C 98.6 4.5 99.4 4.5 99.4 3.5 C 99.4 2.7 98.5 2.6 97.9 2.6 C 97.89 2.61 96.6 2.6 96.6 2.6 L 96.6 4.5 C 96.6 4.5 97.79 4.53 97.8 4.5 Z M 105.4 17 L 108.7 17 L 108.7 20.3 L 105.4 20.3 L 105.4 17 Z M 105.4 6.2 L 108.7 6.2 L 108.7 9.5 L 105.4 9.5 L 105.4 6.2 Z M 113.8 14.4 L 116.6 14.4 C 116.6 14.4 116.58 16.07 116.6 16.1 C 116.6 17.4 117.1 18.3 118.2 18.3 C 119.7 18.3 120 17.2 120 15.9 C 120 14.2 120 13.7 117.1 10.8 C 115.3 9 113.8 7.4 113.8 4.6 C 113.8 1.3 115.3 -0.1 118.4 -0.1 C 119.9 -0.1 121 0.4 121.6 1 C 122.1 1.5 122.5 2.2 122.5 3.6 C 122.46 3.58 122.5 5.5 122.5 5.5 L 119.8 5.5 C 119.8 5.5 119.82 3.89 119.8 3.9 C 119.8 2.7 119.3 2.1 118.3 2.1 C 117.1 2.1 116.6 2.7 116.6 4.3 C 116.6 5.7 116.9 6.5 119.4 9.2 C 122.2 12 122.7 13 122.7 15.5 C 122.7 18.6 121.4 20.4 118.1 20.4 C 115.5 20.4 113.8 19.3 113.8 16.8 C 113.78 16.83 113.8 14.4 113.8 14.4 Z M 124.2 0.1 L 127 0.1 L 127 20.3 L 124.2 20.3 L 124.2 0.1 Z M 128.9 0.1 L 133.3 0.1 L 135.9 15.5 L 136 15.5 L 138.5 0.1 L 142.9 0.1 L 142.9 20.3 L 140.2 20.3 L 140.2 2.1 L 140.2 2.1 L 137.3 20.3 L 134.5 20.3 L 131.4 2.1 L 131.3 2.1 L 131.3 20.3 L 128.9 20.3 L 128.9 0.1 Z M 147.6 9.1 C 147.6 9.1 149.06 9.13 149.1 9.1 C 151 9.1 151.2 8.8 151.2 5.8 C 151.2 2.7 151 2.4 149.1 2.4 C 149.06 2.41 147.6 2.4 147.6 2.4 L 147.6 9.1 Z M 144.8 0.1 C 144.8 0.1 149.42 0.06 149.4 0.1 C 153.2 0.1 154 1.1 154 5.8 C 154 10.4 153.2 11.5 149.4 11.5 C 149.42 11.48 147.6 11.5 147.6 11.5 L 147.6 20.3 L 144.8 20.3 L 144.8 0.1 Z M 155.6 0.1 L 158.4 0.1 L 158.4 17.9 L 163.1 17.9 L 163.1 20.3 L 155.6 20.3 L 155.6 0.1 Z M 164.2 0.1 L 171.8 0.1 L 171.8 2.4 L 167 2.4 L 167 8.7 L 171.6 8.7 L 171.6 11.1 L 167 11.1 L 167 17.9 L 171.8 17.9 L 171.8 20.3 L 164.2 20.3 L 164.2 0.1 Z M 173.3 17 L 176.3 17 L 174.7 22 L 172.7 22 L 173.3 17 Z M 181.2 5.2 C 181.2 2.4 182.1 -0.1 185.9 -0.1 C 188.7 -0.1 190 1.3 190 3.6 C 189.99 3.56 190 5.6 190 5.6 L 187.4 5.6 C 187.4 5.6 187.36 4.17 187.4 4.2 C 187.4 2.9 186.9 2.1 185.7 2.1 C 184.3 2.1 184 3.1 184 5.5 C 184 5.5 184 15.5 184 15.5 C 184 17.8 184.8 18.3 185.6 18.3 C 186.7 18.3 187.4 17.5 187.4 15.8 C 187.36 15.85 187.4 14.4 187.4 14.4 L 190 14.4 C 190 14.4 189.99 16.69 190 16.7 C 190 18.8 189.1 20.4 185.9 20.4 C 182.3 20.4 181.2 18.6 181.2 15.4 C 181.2 15.4 181.2 5.2 181.2 5.2 Z M 193.9 15.6 C 193.9 17.3 194.7 18.3 195.9 18.3 C 197 18.3 197.8 17.3 197.8 15.6 C 197.8 15.6 197.8 5 197.8 5 C 197.8 3 197.2 2.1 195.9 2.1 C 194.6 2.1 193.9 3 193.9 5 C 193.9 5 193.9 15.6 193.9 15.6 Z M 191.1 5.2 C 191.1 2.4 192.1 -0.1 195.9 -0.1 C 199.5 -0.1 200.6 1.8 200.6 4.9 C 200.6 4.9 200.6 15.1 200.6 15.1 C 200.6 17.9 199.7 20.4 195.9 20.4 C 192.3 20.4 191.1 18.6 191.1 15.4 C 191.1 15.4 191.1 5.2 191.1 5.2 Z M 202.5 0.1 L 206.3 0.1 L 209.6 16.9 L 209.7 16.9 L 209.7 0.1 L 212.3 0.1 L 212.3 20.3 L 208.3 20.3 L 205 3 L 204.9 3 L 204.9 20.3 L 202.5 20.3 L 202.5 0.1 Z M 213.5 0.1 L 216.3 0.1 L 219.2 16.1 L 219.2 16.1 L 222.1 0.1 L 224.9 0.1 L 220.8 20.3 L 217.6 20.3 L 213.5 0.1 Z M 226.1 0.1 L 233.7 0.1 L 233.7 2.4 L 228.9 2.4 L 228.9 8.7 L 233.4 8.7 L 233.4 11.1 L 228.9 11.1 L 228.9 17.9 L 233.7 17.9 L 233.7 20.3 L 226.1 20.3 L 226.1 0.1 Z M 234.7 0.1 L 238.6 0.1 L 241.9 16.9 L 242 16.9 L 242 0.1 L 244.6 0.1 L 244.6 20.3 L 240.6 20.3 L 237.3 3 L 237.2 3 L 237.2 20.3 L 234.7 20.3 L 234.7 0.1 Z M 246.4 0.1 L 249.2 0.1 L 249.2 20.3 L 246.4 20.3 L 246.4 0.1 Z M 251.1 0.1 L 258.7 0.1 L 258.7 2.4 L 253.9 2.4 L 253.9 8.7 L 258.4 8.7 L 258.4 11.1 L 253.9 11.1 L 253.9 17.9 L 258.7 17.9 L 258.7 20.3 L 251.1 20.3 L 251.1 0.1 Z M 259.8 0.1 L 263.6 0.1 L 266.9 16.9 L 267 16.9 L 267 0.1 L 269.6 0.1 L 269.6 20.3 L 265.6 20.3 L 262.3 3 L 262.2 3 L 262.2 20.3 L 259.8 20.3 L 259.8 0.1 Z M 270.7 0.1 L 280.2 0.1 L 280.2 2.4 L 276.8 2.4 L 276.8 20.3 L 274 20.3 L 274 2.4 L 270.7 2.4 L 270.7 0.1 Z M 289 0.1 L 292.3 0.1 L 296.4 20.3 L 293.6 20.3 L 292.7 15.1 L 288.3 15.1 L 287.4 20.3 L 284.6 20.3 L 289 0.1 Z M 288.7 12.8 L 292.3 12.8 L 290.5 3 L 290.5 3 L 288.7 12.8 Z M 297.6 0.1 L 301.5 0.1 L 304.8 16.9 L 304.8 16.9 L 304.8 0.1 L 307.4 0.1 L 307.4 20.3 L 303.4 20.3 L 300.1 3 L 300.1 3 L 300.1 20.3 L 297.6 20.3 L 297.6 0.1 Z M 312.2 17.9 C 312.2 17.9 313.52 17.92 313.5 17.9 C 315.6 17.9 316 16.8 316 13.4 C 316 13.4 316 6.4 316 6.4 C 316 3.4 315.7 2.4 313.3 2.4 C 313.3 2.41 312.2 2.4 312.2 2.4 L 312.2 17.9 Z M 309.4 0.1 C 309.4 0.1 313.89 0.06 313.9 0.1 C 318.4 0.1 318.8 1.6 318.8 7.4 C 318.8 7.4 318.8 13.5 318.8 13.5 C 318.8 18.6 317.9 20.3 313.4 20.3 C 313.44 20.27 309.4 20.3 309.4 20.3 L 309.4 0.1 Z M 325.4 5.2 C 325.4 2.4 326.3 -0.1 330.1 -0.1 C 332.9 -0.1 334.2 1.3 334.2 3.6 C 334.19 3.56 334.2 5.6 334.2 5.6 L 331.6 5.6 C 331.6 5.6 331.55 4.17 331.6 4.2 C 331.6 2.9 331.1 2.1 329.9 2.1 C 328.5 2.1 328.2 3.1 328.2 5.5 C 328.2 5.5 328.2 15.5 328.2 15.5 C 328.2 17.8 329 18.3 329.8 18.3 C 330.9 18.3 331.6 17.5 331.6 15.8 C 331.55 15.85 331.6 14.4 331.6 14.4 L 334.2 14.4 C 334.2 14.4 334.19 16.69 334.2 16.7 C 334.2 18.8 333.3 20.4 330.1 20.4 C 326.5 20.4 325.4 18.6 325.4 15.4 C 325.4 15.4 325.4 5.2 325.4 5.2 Z M 338.1 15.6 C 338.1 17.3 338.9 18.3 340.1 18.3 C 341.2 18.3 342 17.3 342 15.6 C 342 15.6 342 5 342 5 C 342 3 341.4 2.1 340.1 2.1 C 338.8 2.1 338.1 3 338.1 5 C 338.1 5 338.1 15.6 338.1 15.6 Z M 335.3 5.2 C 335.3 2.4 336.3 -0.1 340.1 -0.1 C 343.7 -0.1 344.8 1.8 344.8 4.9 C 344.8 4.9 344.8 15.1 344.8 15.1 C 344.8 17.9 343.9 20.4 340.1 20.4 C 336.5 20.4 335.3 18.6 335.3 15.4 C 335.3 15.4 335.3 5.2 335.3 5.2 Z M 346.7 0.1 L 350.5 0.1 L 353.8 16.9 L 353.9 16.9 L 353.9 0.1 L 356.5 0.1 L 356.5 20.3 L 352.5 20.3 L 349.2 3 L 349.1 3 L 349.1 20.3 L 346.7 20.3 L 346.7 0.1 Z M 358.2 14.4 L 361 14.4 C 361 14.4 360.95 16.07 361 16.1 C 361 17.4 361.5 18.3 362.6 18.3 C 364.1 18.3 364.4 17.2 364.4 15.9 C 364.4 14.2 364.3 13.7 361.4 10.8 C 359.6 9 358.2 7.4 358.2 4.6 C 358.2 1.3 359.7 -0.1 362.7 -0.1 C 364.3 -0.1 365.4 0.4 366 1 C 366.5 1.5 366.8 2.2 366.8 3.6 C 366.83 3.58 366.8 5.5 366.8 5.5 L 364.2 5.5 C 364.2 5.5 364.2 3.89 364.2 3.9 C 364.2 2.7 363.7 2.1 362.6 2.1 C 361.5 2.1 361 2.7 361 4.3 C 361 5.7 361.2 6.5 363.8 9.2 C 366.6 12 367.1 13 367.1 15.5 C 367.1 18.6 365.8 20.4 362.5 20.4 C 359.9 20.4 358.2 19.3 358.2 16.8 C 358.15 16.83 358.2 14.4 358.2 14.4 Z M 368.6 0.1 L 371.4 0.1 L 371.4 20.3 L 368.6 20.3 L 368.6 0.1 Z M 372.9 14.4 L 375.7 14.4 C 375.7 14.4 375.74 16.07 375.7 16.1 C 375.7 17.4 376.2 18.3 377.4 18.3 C 378.8 18.3 379.2 17.2 379.2 15.9 C 379.2 14.2 379.1 13.7 376.2 10.8 C 374.4 9 372.9 7.4 372.9 4.6 C 372.9 1.3 374.5 -0.1 377.5 -0.1 C 379 -0.1 380.1 0.4 380.8 1 C 381.3 1.5 381.6 2.2 381.6 3.6 C 381.62 3.58 381.6 5.5 381.6 5.5 L 379 5.5 C 379 5.5 378.99 3.89 379 3.9 C 379 2.7 378.5 2.1 377.4 2.1 C 376.3 2.1 375.7 2.7 375.7 4.3 C 375.7 5.7 376 6.5 378.6 9.2 C 381.3 12 381.8 13 381.8 15.5 C 381.8 18.6 380.6 20.4 377.3 20.4 C 374.7 20.4 372.9 19.3 372.9 16.8 C 372.94 16.83 372.9 14.4 372.9 14.4 Z M 382.6 0.1 L 392.1 0.1 L 392.1 2.4 L 388.8 2.4 L 388.8 20.3 L 386 20.3 L 386 2.4 L 382.6 2.4 L 382.6 0.1 Z M 393.2 0.1 L 400.8 0.1 L 400.8 2.4 L 396 2.4 L 396 8.7 L 400.5 8.7 L 400.5 11.1 L 396 11.1 L 396 17.9 L 400.8 17.9 L 400.8 20.3 L 393.2 20.3 L 393.2 0.1 Z M 401.9 0.1 L 405.7 0.1 L 409 16.9 L 409.1 16.9 L 409.1 0.1 L 411.7 0.1 L 411.7 20.3 L 407.7 20.3 L 404.4 3 L 404.3 3 L 404.3 20.3 L 401.9 20.3 L 401.9 0.1 Z M 412.8 0.1 L 422.3 0.1 L 422.3 2.4 L 418.9 2.4 L 418.9 20.3 L 416.1 20.3 L 416.1 2.4 L 412.8 2.4 L 412.8 0.1 Z M 431.2 17.9 C 431.2 17.9 432.58 17.92 432.6 17.9 C 434.6 17.9 435 16.8 435 13.4 C 435 13.4 435 6.4 435 6.4 C 435 3.4 434.7 2.4 432.4 2.4 C 432.35 2.41 431.2 2.4 431.2 2.4 L 431.2 17.9 Z M 428.4 0.1 C 428.4 0.1 432.94 0.06 432.9 0.1 C 437.5 0.1 437.8 1.6 437.8 7.4 C 437.8 7.4 437.8 13.5 437.8 13.5 C 437.8 18.6 436.9 20.3 432.5 20.3 C 432.49 20.27 428.4 20.3 428.4 20.3 L 428.4 0.1 Z M 442.4 15.6 C 442.4 17.3 443.2 18.3 444.3 18.3 C 445.5 18.3 446.3 17.3 446.3 15.6 C 446.3 15.6 446.3 5 446.3 5 C 446.3 3 445.6 2.1 444.3 2.1 C 443.1 2.1 442.4 3 442.4 5 C 442.4 5 442.4 15.6 442.4 15.6 Z M 439.6 5.2 C 439.6 2.4 440.5 -0.1 444.3 -0.1 C 447.9 -0.1 449.1 1.8 449.1 4.9 C 449.1 4.9 449.1 15.1 449.1 15.1 C 449.1 17.9 448.2 20.4 444.3 20.4 C 440.8 20.4 439.6 18.6 439.6 15.4 C 439.6 15.4 439.6 5.2 439.6 5.2 Z M 450.6 14.4 L 453.4 14.4 C 453.4 14.4 453.44 16.07 453.4 16.1 C 453.4 17.4 453.9 18.3 455.1 18.3 C 456.5 18.3 456.9 17.2 456.9 15.9 C 456.9 14.2 456.8 13.7 453.9 10.8 C 452.1 9 450.6 7.4 450.6 4.6 C 450.6 1.3 452.2 -0.1 455.2 -0.1 C 456.7 -0.1 457.8 0.4 458.5 1 C 459 1.5 459.3 2.2 459.3 3.6 C 459.32 3.58 459.3 5.5 459.3 5.5 L 456.7 5.5 C 456.7 5.5 456.68 3.89 456.7 3.9 C 456.7 2.7 456.2 2.1 455.1 2.1 C 454 2.1 453.4 2.7 453.4 4.3 C 453.4 5.7 453.7 6.5 456.3 9.2 C 459 12 459.5 13 459.5 15.5 C 459.5 18.6 458.3 20.4 455 20.4 C 452.4 20.4 450.6 19.3 450.6 16.8 C 450.64 16.83 450.6 14.4 450.6 14.4 Z M 461.1 0.1 L 463.9 0.1 L 463.9 20.3 L 461.1 20.3 L 461.1 0.1 Z M 465.7 0.1 L 469.6 0.1 L 472.9 16.9 L 473 16.9 L 473 0.1 L 475.6 0.1 L 475.6 20.3 L 471.6 20.3 L 468.2 3 L 468.2 3 L 468.2 20.3 L 465.7 20.3 L 465.7 0.1 Z M 484 5.4 C 484 5.4 484.04 4.37 484 4.4 C 484 2.9 483.3 2.1 482.2 2.1 C 481 2.1 480.3 3.2 480.3 5.4 C 480.3 5.4 480.3 15.6 480.3 15.6 C 480.3 17.2 481.1 18.3 482.2 18.3 C 483 18.3 483.7 18.1 484 18.1 C 484.04 18.06 484 12.1 484 12.1 L 482.2 12.1 L 482.2 9.8 L 486.8 9.8 C 486.8 9.8 486.84 19.94 486.8 19.9 C 485.7 20.2 483.8 20.4 482.2 20.4 C 478.7 20.4 477.5 18.6 477.5 15.4 C 477.5 15.4 477.5 5.2 477.5 5.2 C 477.5 1.4 478.7 -0.1 482.3 -0.1 C 485.3 -0.1 486.8 1 486.8 3.6 C 486.84 3.56 486.8 5.4 486.8 5.4 L 484 5.4 Z M 490.3 1.4 C 490.3 1.4 490.32 1.38 490.3 1.4 C 490 1.8 489.7 2.1 489 2.6 C 489 2.6 489 1.1 489 1.1 C 489.4 0.8 490.3 -0.3 490.5 -0.8 C 490.51 -0.84 491.9 -0.8 491.9 -0.8 L 491.9 10.9 L 490.3 10.9 L 490.3 1.4 Z " stroke="none" fill="#003c71"/>  </g></svg>