<?xml version="1.0" standalone="no"?><!DOCTYPE svg PUBLIC "-//W3C//DTD SVG 1.1//EN" "http://www.w3.org/Graphics/SVG/1.1/DTD/svg11.dtd"><svg xmlns="http://www.w3.org/2000/svg" version="1.1" width="202.4px" height="48.6px" viewBox="0 0 202.4 48.6">  <desc>Phase 2 rollover patients (n=35)</desc>  <defs/>  <g id="Polygon198797">    <path d="M 85.4 25.4 C 84.9 27.3 84.4 29.7 84.4 32.2 C 84.4 35 85 37.2 85.4 39.2 C 85.4 39.2 84.1 39.2 84.1 39.2 C 83.4 37 82.5 34.5 82.5 32.2 C 82.5 29.8 83.5 27 84.1 25.4 C 84.1 25.4 85.4 25.4 85.4 25.4 Z M 89.4 30.1 C 89.4 30.1 89.47 30.15 89.5 30.1 C 89.7 29.8 90 29.6 90.3 29.4 C 90.6 29.3 90.9 29.2 91.4 29.2 C 92.4 29.2 93.3 29.8 93.3 30.9 C 93.33 30.92 93.3 37.3 93.3 37.3 L 91.1 37.3 C 91.1 37.3 91.11 31.82 91.1 31.8 C 91.1 31.1 91 30.6 90.3 30.6 C 89.6 30.6 89.4 31.1 89.4 31.8 C 89.44 31.82 89.4 37.3 89.4 37.3 L 87.2 37.3 L 87.2 29.3 L 89.4 29.3 L 89.4 30.1 Z M 101.7 32.7 L 94.6 32.7 L 94.6 30.9 L 101.7 30.9 L 101.7 32.7 Z M 101.7 35.7 L 94.6 35.7 L 94.6 34 L 101.7 34 L 101.7 35.7 Z M 102.4 29 C 102.4 27.9 102.7 27.2 103.2 26.7 C 103.7 26.3 104.5 26.2 105.6 26.2 C 107.6 26.2 108.6 27 108.6 29.1 C 108.6 30.1 108.3 31.4 107.1 31.5 C 107.1 31.5 107.1 31.6 107.1 31.6 C 108.5 31.8 108.7 33 108.7 34.2 C 108.7 36.5 107.5 37.4 105.3 37.4 C 103.1 37.4 102.3 36.7 102.3 34.3 C 102.3 34.3 104.5 34.3 104.5 34.3 C 104.5 35 104.5 35.8 105.4 35.8 C 106.4 35.8 106.5 34.9 106.5 34.1 C 106.5 32.5 106 32.4 104.5 32.4 C 104.5 32.4 104.5 30.7 104.5 30.7 C 105.9 30.8 106.4 30.6 106.4 29.1 C 106.4 28.5 106.3 27.8 105.5 27.8 C 104.7 27.8 104.6 28.4 104.6 29 C 104.6 29 102.4 29 102.4 29 Z M 111.8 30.7 C 111.8 30.7 111.88 30.78 111.9 30.8 C 112.2 30.3 112.8 30 113.5 30 C 115.3 30 115.8 31.3 115.8 33.7 C 115.8 36.6 114.7 37.4 112.5 37.4 C 110.6 37.4 109.5 36.7 109.6 34.7 C 109.6 34.7 111.8 34.7 111.8 34.7 C 111.8 35 111.8 35.3 111.9 35.5 C 112.1 35.7 112.3 35.8 112.6 35.8 C 113.5 35.8 113.6 35.2 113.6 33.7 C 113.6 33 113.7 31.5 112.7 31.5 C 112 31.5 111.8 32.2 111.8 32.7 C 111.82 32.68 109.7 32.7 109.7 32.7 L 109.7 26.3 L 115.4 26.3 L 115.4 28 L 111.8 28 L 111.8 30.7 Z M 117 39.2 C 117.5 37.3 118.1 34.9 118.1 32.4 C 118.1 29.6 117.4 27.4 117 25.4 C 117 25.4 118.3 25.4 118.3 25.4 C 119 27.6 119.9 30.1 119.9 32.4 C 119.9 34.8 118.9 37.6 118.3 39.2 C 118.3 39.2 117 39.2 117 39.2 Z " stroke="none" fill="#003c71"/>  </g>  <g id="Polygon198796">    <path d="M 25.4 12 C 25.4 12 26.71 12.01 26.7 12 C 27.4 12 27.9 11.2 27.9 10.5 C 27.9 9.6 27.7 8.8 26.6 8.8 C 26.59 8.76 25.4 8.8 25.4 8.8 L 25.4 12 Z M 23 7 C 23 7 27.3 7.02 27.3 7 C 29.5 7 30.3 8.3 30.3 10.4 C 30.3 11.7 29.9 13.8 27.2 13.8 C 27.15 13.76 25.4 13.8 25.4 13.8 L 25.4 18.4 L 23 18.4 L 23 7 Z M 35.5 18.4 C 35.5 18.4 35.54 12.91 35.5 12.9 C 35.5 12.2 35.4 11.6 34.7 11.6 C 34 11.6 33.9 12.2 33.9 12.9 C 33.87 12.91 33.9 18.4 33.9 18.4 L 31.6 18.4 L 31.6 7 L 33.9 7 L 33.9 11.2 C 33.9 11.2 33.9 11.24 33.9 11.2 C 34.1 10.9 34.4 10.6 34.7 10.5 C 35 10.3 35.4 10.3 35.8 10.3 C 36.8 10.3 37.8 10.9 37.8 12 C 37.76 12.01 37.8 18.4 37.8 18.4 L 35.5 18.4 Z M 41.5 15.9 C 41.5 16.5 41.6 17.2 42.3 17.2 C 43.6 17.2 43.4 15.4 43.4 14.5 C 42.3 14.6 41.5 14.5 41.5 15.9 Z M 45.6 16.9 C 45.6 17.4 45.6 17.9 45.7 18.4 C 45.67 18.39 43.6 18.4 43.6 18.4 L 43.5 17.3 C 43.5 17.3 43.48 17.34 43.5 17.3 C 43 18.2 42.4 18.5 41.4 18.5 C 39.9 18.5 39.3 17.4 39.3 16 C 39.3 13.4 41.3 13.3 43.4 13.3 C 43.4 13.3 43.4 12.7 43.4 12.7 C 43.4 12 43.3 11.5 42.5 11.5 C 41.7 11.5 41.7 12.1 41.7 12.7 C 41.7 12.7 39.5 12.7 39.5 12.7 C 39.5 11.8 39.8 11.2 40.3 10.8 C 40.8 10.4 41.5 10.3 42.4 10.3 C 45.2 10.3 45.6 11.5 45.6 12.9 C 45.6 12.9 45.6 16.9 45.6 16.9 Z M 49.2 15.8 C 49.1 16.2 49.2 16.5 49.3 16.8 C 49.4 17.1 49.6 17.2 50.1 17.2 C 50.5 17.2 50.9 16.9 50.9 16.4 C 50.9 14.7 47 15.1 47 12.5 C 47 10.8 48.7 10.3 50.1 10.3 C 51.6 10.3 53 11 52.9 12.7 C 52.9 12.7 50.7 12.7 50.7 12.7 C 50.7 12.2 50.6 11.8 50.5 11.7 C 50.3 11.6 50.1 11.5 49.9 11.5 C 49.4 11.5 49.2 11.8 49.2 12.4 C 49.2 13.6 53.1 13.6 53.1 16.1 C 53.1 17.5 51.9 18.5 50.1 18.5 C 48.1 18.5 46.9 18.1 47 15.8 C 47 15.8 49.2 15.8 49.2 15.8 Z M 58.5 13.5 C 58.5 12.8 58.5 11.6 57.5 11.6 C 56.4 11.6 56.4 12.8 56.4 13.5 C 56.4 13.5 58.5 13.5 58.5 13.5 Z M 56.4 14.8 C 56.4 15.7 56.5 17.1 57.5 17.1 C 58.2 17.1 58.4 16.4 58.4 15.7 C 58.4 15.7 60.7 15.7 60.7 15.7 C 60.6 16.6 60.3 17.3 59.8 17.8 C 59.3 18.3 58.5 18.5 57.5 18.5 C 54.6 18.5 54.2 16.8 54.2 14.3 C 54.2 12.1 54.5 10.3 57.5 10.3 C 60.4 10.3 60.8 12.2 60.7 14.8 C 60.7 14.8 56.4 14.8 56.4 14.8 Z M 65.1 18.4 C 65.1 18.4 65.08 16.46 65.1 16.5 C 68.5 11.8 69.3 11.3 69.3 9.9 C 69.3 9.4 69.1 8.9 68.4 8.9 C 67.5 8.9 67.5 9.7 67.5 10.4 C 67.5 10.4 65.3 10.4 65.3 10.4 C 65.1 8.4 66.2 7.3 68.3 7.3 C 70.2 7.3 71.5 8 71.5 10.1 C 71.5 12.6 68.6 15.4 67.4 16.7 C 67.41 16.69 71.6 16.7 71.6 16.7 L 71.6 18.4 L 65.1 18.4 Z M 78.4 10.4 L 78.4 11.5 C 78.4 11.5 78.41 11.46 78.4 11.5 C 78.8 10.5 79.6 10.3 80.5 10.3 C 80.5 10.3 80.5 12.3 80.5 12.3 C 78.5 12.1 78.5 13.3 78.5 14.1 C 78.49 14.06 78.5 18.4 78.5 18.4 L 76.3 18.4 L 76.3 10.4 L 78.4 10.4 Z M 85.6 14.2 C 85.6 12.5 85.5 11.7 84.6 11.7 C 83.6 11.7 83.5 12.5 83.5 14.2 C 83.5 16.6 83.8 17.1 84.6 17.1 C 85.4 17.1 85.6 16.6 85.6 14.2 Z M 81.3 14.3 C 81.3 12.1 81.6 10.3 84.6 10.3 C 87.5 10.3 87.8 12.1 87.8 14.3 C 87.8 16.8 87.4 18.5 84.6 18.5 C 81.7 18.5 81.3 16.8 81.3 14.3 Z M 91.8 7 L 91.8 18.4 L 89.6 18.4 L 89.6 7 L 91.8 7 Z M 96.2 7 L 96.2 18.4 L 94 18.4 L 94 7 L 96.2 7 Z M 102.2 14.2 C 102.2 12.5 102.2 11.7 101.2 11.7 C 100.3 11.7 100.2 12.5 100.2 14.2 C 100.2 16.6 100.4 17.1 101.2 17.1 C 102 17.1 102.2 16.6 102.2 14.2 Z M 98 14.3 C 98 12.1 98.3 10.3 101.2 10.3 C 104.1 10.3 104.5 12.1 104.5 14.3 C 104.5 16.8 104.1 18.5 101.2 18.5 C 98.3 18.5 98 16.8 98 14.3 Z M 105.3 10.4 L 107.5 10.4 L 108.7 16.4 L 108.7 16.4 L 109.8 10.4 L 112 10.4 L 109.8 18.4 L 107.4 18.4 L 105.3 10.4 Z M 117.1 13.5 C 117.1 12.8 117.1 11.6 116.1 11.6 C 115.1 11.6 115.1 12.8 115.1 13.5 C 115.1 13.5 117.1 13.5 117.1 13.5 Z M 115.1 14.8 C 115.1 15.7 115.1 17.1 116.1 17.1 C 116.9 17.1 117 16.4 117 15.7 C 117 15.7 119.3 15.7 119.3 15.7 C 119.3 16.6 119 17.3 118.4 17.8 C 117.9 18.3 117.1 18.5 116.1 18.5 C 113.2 18.5 112.8 16.8 112.8 14.3 C 112.8 12.1 113.2 10.3 116.1 10.3 C 119.1 10.3 119.4 12.2 119.3 14.8 C 119.3 14.8 115.1 14.8 115.1 14.8 Z M 123 10.4 L 123 11.5 C 123 11.5 123.05 11.46 123.1 11.5 C 123.5 10.5 124.2 10.3 125.1 10.3 C 125.1 10.3 125.1 12.3 125.1 12.3 C 123.2 12.1 123.1 13.3 123.1 14.1 C 123.13 14.06 123.1 18.4 123.1 18.4 L 120.9 18.4 L 120.9 10.4 L 123 10.4 Z M 133.7 14.3 C 133.7 12.8 133.7 11.6 132.8 11.6 C 131.9 11.6 131.9 12.8 131.9 14.3 C 131.9 16.3 132 17.2 132.8 17.2 C 133.6 17.2 133.7 16.3 133.7 14.3 Z M 131.8 10.4 L 131.8 11.3 C 131.8 11.3 131.8 11.32 131.8 11.3 C 132.2 10.5 132.8 10.3 133.7 10.3 C 136 10.3 135.9 12.8 135.9 14.5 C 135.9 16.1 136 18.5 133.7 18.5 C 132.9 18.5 132.4 18.3 131.9 17.6 C 131.91 17.64 131.9 17.6 131.9 17.6 L 131.9 21.8 L 129.7 21.8 L 129.7 10.4 L 131.8 10.4 Z M 139.5 15.9 C 139.5 16.5 139.6 17.2 140.3 17.2 C 141.6 17.2 141.4 15.4 141.4 14.5 C 140.3 14.6 139.5 14.5 139.5 15.9 Z M 143.6 16.9 C 143.6 17.4 143.6 17.9 143.7 18.4 C 143.68 18.39 141.6 18.4 141.6 18.4 L 141.5 17.3 C 141.5 17.3 141.49 17.34 141.5 17.3 C 141 18.2 140.4 18.5 139.4 18.5 C 137.9 18.5 137.3 17.4 137.3 16 C 137.3 13.4 139.3 13.3 141.4 13.3 C 141.4 13.3 141.4 12.7 141.4 12.7 C 141.4 12 141.3 11.5 140.5 11.5 C 139.7 11.5 139.7 12.1 139.7 12.7 C 139.7 12.7 137.5 12.7 137.5 12.7 C 137.5 11.8 137.8 11.2 138.3 10.8 C 138.8 10.4 139.5 10.3 140.4 10.3 C 143.2 10.3 143.6 11.5 143.6 12.9 C 143.6 12.9 143.6 16.9 143.6 16.9 Z M 144.5 10.4 L 145.4 10.4 L 145.4 9.2 L 147.6 8.2 L 147.6 10.4 L 148.8 10.4 L 148.8 11.8 L 147.6 11.8 C 147.6 11.8 147.63 16.06 147.6 16.1 C 147.6 16.7 147.6 17.1 148.3 17.1 C 148.5 17.1 148.6 17.1 148.7 17 C 148.7 17 148.7 18.4 148.7 18.4 C 148.4 18.4 148.1 18.5 147.6 18.5 C 145.7 18.5 145.4 17.2 145.4 16.7 C 145.41 16.71 145.4 11.8 145.4 11.8 L 144.5 11.8 L 144.5 10.4 Z M 152.2 18.4 L 150 18.4 L 150 10.4 L 152.2 10.4 L 152.2 18.4 Z M 152.2 7 L 152.2 8.8 L 150 8.8 L 150 7 L 152.2 7 Z M 158.3 13.5 C 158.3 12.8 158.3 11.6 157.2 11.6 C 156.2 11.6 156.2 12.8 156.2 13.5 C 156.2 13.5 158.3 13.5 158.3 13.5 Z M 156.2 14.8 C 156.2 15.7 156.3 17.1 157.2 17.1 C 158 17.1 158.2 16.4 158.2 15.7 C 158.2 15.7 160.4 15.7 160.4 15.7 C 160.4 16.6 160.1 17.3 159.6 17.8 C 159.1 18.3 158.3 18.5 157.2 18.5 C 154.4 18.5 154 16.8 154 14.3 C 154 12.1 154.3 10.3 157.2 10.3 C 160.2 10.3 160.6 12.2 160.5 14.8 C 160.5 14.8 156.2 14.8 156.2 14.8 Z M 164.3 11.2 C 164.3 11.2 164.31 11.24 164.3 11.2 C 164.5 10.9 164.8 10.6 165.1 10.5 C 165.4 10.3 165.8 10.3 166.2 10.3 C 167.2 10.3 168.2 10.9 168.2 12 C 168.17 12.01 168.2 18.4 168.2 18.4 L 165.9 18.4 C 165.9 18.4 165.95 12.91 165.9 12.9 C 165.9 12.2 165.8 11.6 165.1 11.6 C 164.4 11.6 164.3 12.2 164.3 12.9 C 164.27 12.91 164.3 18.4 164.3 18.4 L 162.1 18.4 L 162.1 10.4 L 164.3 10.4 L 164.3 11.2 Z M 169 10.4 L 169.9 10.4 L 169.9 9.2 L 172.2 8.2 L 172.2 10.4 L 173.3 10.4 L 173.3 11.8 L 172.2 11.8 C 172.2 11.8 172.15 16.06 172.2 16.1 C 172.2 16.7 172.1 17.1 172.9 17.1 C 173 17.1 173.1 17.1 173.3 17 C 173.3 17 173.3 18.4 173.3 18.4 C 173 18.4 172.6 18.5 172.1 18.5 C 170.2 18.5 169.9 17.2 169.9 16.7 C 169.93 16.71 169.9 11.8 169.9 11.8 L 169 11.8 L 169 10.4 Z M 176.1 15.8 C 176 16.2 176.1 16.5 176.2 16.8 C 176.3 17.1 176.5 17.2 177 17.2 C 177.4 17.2 177.8 16.9 177.8 16.4 C 177.8 14.7 173.9 15.1 173.9 12.5 C 173.9 10.8 175.6 10.3 177 10.3 C 178.5 10.3 179.9 11 179.8 12.7 C 179.8 12.7 177.6 12.7 177.6 12.7 C 177.6 12.2 177.5 11.8 177.4 11.7 C 177.2 11.6 177.1 11.5 176.8 11.5 C 176.3 11.5 176.1 11.8 176.1 12.4 C 176.1 13.6 180 13.6 180 16.1 C 180 17.5 178.8 18.5 177 18.5 C 175.1 18.5 173.8 18.1 173.9 15.8 C 173.9 15.8 176.1 15.8 176.1 15.8 Z " stroke="none" fill="#003c71"/>  </g></svg>