<?xml version="1.0" standalone="no"?><!DOCTYPE svg PUBLIC "-//W3C//DTD SVG 1.1//EN" "http://www.w3.org/Graphics/SVG/1.1/DTD/svg11.dtd"><svg xmlns="http://www.w3.org/2000/svg" version="1.1" width="899px" height="25.3px" viewBox="0 -3 899 25.3" style="top:-3px">  <desc>All patients could use OD treatment to manage HAE attacks throughout the study period</desc>  <defs/>  <g id="Polygon194429">    <path d="M 173.9 13.3 L 177 2 L 180.1 2 L 183.2 13.3 L 180.7 13.3 L 180.1 10.8 L 176.9 10.8 L 176.2 13.3 L 173.9 13.3 Z M 178.4 4.2 L 178.4 4.2 L 177.3 9.1 L 179.6 9.1 L 178.4 4.2 Z M 186.6 2 L 186.6 13.3 L 184.4 13.3 L 184.4 2 L 186.6 2 Z M 190.9 2 L 190.9 13.3 L 188.7 13.3 L 188.7 2 L 190.9 2 Z M 200.4 9.3 C 200.4 7.7 200.4 6.6 199.4 6.6 C 198.5 6.6 198.5 7.7 198.5 9.3 C 198.5 11.3 198.7 12.1 199.4 12.1 C 200.2 12.1 200.4 11.3 200.4 9.3 Z M 198.4 5.4 L 198.4 6.3 C 198.4 6.3 198.45 6.31 198.5 6.3 C 198.9 5.5 199.5 5.3 200.3 5.3 C 202.6 5.3 202.5 7.8 202.5 9.4 C 202.5 11 202.6 13.5 200.4 13.5 C 199.6 13.5 199 13.2 198.6 12.6 C 198.56 12.57 198.5 12.6 198.5 12.6 L 198.5 16.7 L 196.3 16.7 L 196.3 5.4 L 198.4 5.4 Z M 206.1 10.9 C 206.1 11.4 206.1 12.1 206.9 12.1 C 208.2 12.1 208 10.4 208 9.5 C 206.9 9.6 206.1 9.5 206.1 10.9 Z M 210.1 11.9 C 210.1 12.3 210.2 12.8 210.2 13.3 C 210.22 13.32 208.2 13.3 208.2 13.3 L 208.1 12.3 C 208.1 12.3 208.05 12.27 208.1 12.3 C 207.6 13.1 206.9 13.5 206 13.5 C 204.5 13.5 203.9 12.3 203.9 11 C 203.9 8.4 205.9 8.2 208 8.3 C 208 8.3 208 7.7 208 7.7 C 208 7 207.9 6.5 207.1 6.5 C 206.3 6.5 206.2 7.1 206.2 7.7 C 206.2 7.7 204.1 7.7 204.1 7.7 C 204.1 6.8 204.4 6.2 204.9 5.8 C 205.4 5.4 206.1 5.3 207 5.3 C 209.8 5.3 210.1 6.5 210.1 7.9 C 210.1 7.9 210.1 11.9 210.1 11.9 Z M 211 5.4 L 211.9 5.4 L 211.9 4.2 L 214.1 3.2 L 214.1 5.4 L 215.3 5.4 L 215.3 6.8 L 214.1 6.8 C 214.1 6.8 214.14 11.01 214.1 11 C 214.1 11.6 214.1 12 214.8 12 C 215 12 215.1 12 215.2 12 C 215.2 12 215.2 13.3 215.2 13.3 C 214.9 13.3 214.6 13.4 214.1 13.4 C 212.2 13.4 211.9 12.1 211.9 11.6 C 211.94 11.65 211.9 6.8 211.9 6.8 L 211 6.8 L 211 5.4 Z M 218.7 13.3 L 216.5 13.3 L 216.5 5.4 L 218.7 5.4 L 218.7 13.3 Z M 218.7 2 L 218.7 3.8 L 216.5 3.8 L 216.5 2 L 218.7 2 Z M 224.7 8.5 C 224.7 7.7 224.7 6.6 223.6 6.6 C 222.6 6.6 222.6 7.8 222.6 8.5 C 222.6 8.5 224.7 8.5 224.7 8.5 Z M 222.6 9.7 C 222.6 10.7 222.7 12.1 223.6 12.1 C 224.4 12.1 224.6 11.3 224.6 10.7 C 224.6 10.7 226.8 10.7 226.8 10.7 C 226.8 11.5 226.5 12.2 226 12.7 C 225.5 13.2 224.7 13.5 223.6 13.5 C 220.8 13.5 220.4 11.7 220.4 9.3 C 220.4 7.1 220.7 5.3 223.6 5.3 C 226.6 5.3 226.9 7.2 226.9 9.7 C 226.9 9.7 222.6 9.7 222.6 9.7 Z M 230.6 6.2 C 230.6 6.2 230.65 6.23 230.7 6.2 C 230.9 5.9 231.1 5.6 231.4 5.5 C 231.7 5.3 232.1 5.3 232.5 5.3 C 233.6 5.3 234.5 5.9 234.5 7 C 234.48 6.99 234.5 13.3 234.5 13.3 L 232.3 13.3 C 232.3 13.3 232.28 7.88 232.3 7.9 C 232.3 7.2 232.2 6.6 231.5 6.6 C 230.7 6.6 230.6 7.2 230.6 7.9 C 230.62 7.88 230.6 13.3 230.6 13.3 L 228.4 13.3 L 228.4 5.4 L 230.6 5.4 L 230.6 6.2 Z M 235.3 5.4 L 236.2 5.4 L 236.2 4.2 L 238.4 3.2 L 238.4 5.4 L 239.6 5.4 L 239.6 6.8 L 238.4 6.8 C 238.4 6.8 238.43 11.01 238.4 11 C 238.4 11.6 238.4 12 239.1 12 C 239.3 12 239.4 12 239.5 12 C 239.5 12 239.5 13.3 239.5 13.3 C 239.2 13.3 238.9 13.4 238.4 13.4 C 236.5 13.4 236.2 12.1 236.2 11.6 C 236.23 11.65 236.2 6.8 236.2 6.8 L 235.3 6.8 L 235.3 5.4 Z M 242.3 10.8 C 242.3 11.1 242.3 11.5 242.4 11.7 C 242.5 12 242.8 12.1 243.2 12.1 C 243.6 12.1 244 11.8 244 11.3 C 244 9.6 240.1 10 240.1 7.5 C 240.1 5.8 241.8 5.3 243.3 5.3 C 244.8 5.3 246.1 6 246 7.7 C 246 7.7 243.8 7.7 243.8 7.7 C 243.8 7.2 243.8 6.8 243.6 6.7 C 243.5 6.5 243.3 6.5 243 6.5 C 242.6 6.5 242.3 6.8 242.3 7.4 C 242.3 8.6 246.2 8.5 246.2 11.1 C 246.2 12.4 245 13.5 243.2 13.5 C 241.3 13.5 240 13 240.1 10.8 C 240.1 10.8 242.3 10.8 242.3 10.8 Z M 255 8.2 C 255 7.1 254.7 6.7 254 6.7 C 253.1 6.7 253 7.5 253 9.1 C 253 11.6 253.2 12.1 254 12.1 C 254.7 12.1 255 11.4 255 10.4 C 255 10.4 257.2 10.4 257.2 10.4 C 257.2 12.6 256.1 13.5 254 13.5 C 251.2 13.5 250.8 11.7 250.8 9.3 C 250.8 7.1 251.1 5.3 254 5.3 C 256 5.3 257.2 6.2 257.2 8.2 C 257.2 8.2 255 8.2 255 8.2 Z M 262.8 9.1 C 262.8 7.5 262.7 6.7 261.8 6.7 C 260.9 6.7 260.8 7.5 260.8 9.1 C 260.8 11.6 261 12.1 261.8 12.1 C 262.6 12.1 262.8 11.6 262.8 9.1 Z M 258.6 9.3 C 258.6 7.1 258.9 5.3 261.8 5.3 C 264.7 5.3 265 7.1 265 9.3 C 265 11.7 264.6 13.5 261.8 13.5 C 259 13.5 258.6 11.7 258.6 9.3 Z M 270.4 12.5 C 270.4 12.5 270.4 12.52 270.4 12.5 C 270.2 12.9 269.9 13.1 269.6 13.3 C 269.3 13.4 269 13.5 268.5 13.5 C 267.5 13.5 266.6 12.8 266.6 11.8 C 266.57 11.76 266.6 5.4 266.6 5.4 L 268.8 5.4 C 268.8 5.4 268.77 10.9 268.8 10.9 C 268.8 11.6 268.9 12.1 269.6 12.1 C 270.3 12.1 270.4 11.6 270.4 10.9 C 270.43 10.9 270.4 5.4 270.4 5.4 L 272.6 5.4 C 272.6 5.4 272.63 11.76 272.6 11.8 C 272.6 12.3 272.7 12.8 272.7 13.3 C 272.71 13.32 270.4 13.3 270.4 13.3 L 270.4 12.5 Z M 276.8 2 L 276.8 13.3 L 274.6 13.3 L 274.6 2 L 276.8 2 Z M 282.5 9.3 C 282.5 7.7 282.6 6.6 281.7 6.6 C 280.7 6.6 280.7 7.7 280.7 9.3 C 280.7 11.3 280.9 12.1 281.7 12.1 C 282.4 12.1 282.5 11.3 282.5 9.3 Z M 282.7 13.3 L 282.7 12.4 C 282.7 12.4 282.62 12.44 282.6 12.4 C 282.2 13.2 281.6 13.5 280.8 13.5 C 278.5 13.5 278.6 10.9 278.6 9.3 C 278.6 7.7 278.5 5.3 280.7 5.3 C 281.5 5.3 282.1 5.5 282.5 6.2 C 282.51 6.18 282.5 6.2 282.5 6.2 L 282.5 2 L 284.7 2 L 284.7 13.3 L 282.7 13.3 Z M 293.8 12.5 C 293.8 12.5 293.81 12.52 293.8 12.5 C 293.6 12.9 293.3 13.1 293 13.3 C 292.7 13.4 292.4 13.5 292 13.5 C 290.9 13.5 290 12.8 290 11.8 C 289.99 11.76 290 5.4 290 5.4 L 292.2 5.4 C 292.2 5.4 292.19 10.9 292.2 10.9 C 292.2 11.6 292.3 12.1 293 12.1 C 293.7 12.1 293.8 11.6 293.8 10.9 C 293.84 10.9 293.8 5.4 293.8 5.4 L 296 5.4 C 296 5.4 296.04 11.76 296 11.8 C 296 12.3 296.1 12.8 296.1 13.3 C 296.12 13.32 293.8 13.3 293.8 13.3 L 293.8 12.5 Z M 299.5 10.8 C 299.5 11.1 299.5 11.5 299.6 11.7 C 299.8 12 300 12.1 300.4 12.1 C 300.9 12.1 301.2 11.8 301.2 11.3 C 301.2 9.6 297.4 10 297.4 7.5 C 297.4 5.8 299.1 5.3 300.5 5.3 C 302 5.3 303.3 6 303.2 7.7 C 303.2 7.7 301.1 7.7 301.1 7.7 C 301.1 7.2 301 6.8 300.8 6.7 C 300.7 6.5 300.5 6.5 300.3 6.5 C 299.8 6.5 299.5 6.8 299.5 7.4 C 299.5 8.6 303.4 8.5 303.4 11.1 C 303.4 12.4 302.3 13.5 300.4 13.5 C 298.5 13.5 297.2 13 297.4 10.8 C 297.4 10.8 299.5 10.8 299.5 10.8 Z M 308.8 8.5 C 308.8 7.7 308.8 6.6 307.8 6.6 C 306.7 6.6 306.8 7.8 306.8 8.5 C 306.8 8.5 308.8 8.5 308.8 8.5 Z M 306.8 9.7 C 306.8 10.7 306.8 12.1 307.8 12.1 C 308.5 12.1 308.7 11.3 308.7 10.7 C 308.7 10.7 310.9 10.7 310.9 10.7 C 310.9 11.5 310.6 12.2 310.1 12.7 C 309.6 13.2 308.8 13.5 307.8 13.5 C 304.9 13.5 304.5 11.7 304.5 9.3 C 304.5 7.1 304.8 5.3 307.8 5.3 C 310.7 5.3 311 7.2 311 9.7 C 311 9.7 306.8 9.7 306.8 9.7 Z M 321.4 7.7 C 321.4 4.8 321.2 3.5 319.9 3.5 C 318.6 3.5 318.4 4.8 318.4 7.7 C 318.4 10.6 318.6 11.8 319.9 11.8 C 321.2 11.8 321.4 10.6 321.4 7.7 Z M 316 7.7 C 316 4.7 316 1.9 319.9 1.9 C 323.8 1.9 323.8 4.7 323.8 7.7 C 323.8 10.6 323.8 13.5 319.9 13.5 C 316 13.5 316 10.6 316 7.7 Z M 328 11.6 C 328 11.6 329.18 11.58 329.2 11.6 C 330.6 11.6 330.9 10.5 330.9 7.7 C 330.9 5.6 330.9 3.8 329.3 3.8 C 329.26 3.78 328 3.8 328 3.8 L 328 11.6 Z M 325.7 2 C 325.7 2 329.62 2.05 329.6 2 C 332.7 2 333.3 4.1 333.3 7.6 C 333.3 9.4 333.6 13.3 329.5 13.3 C 329.53 13.32 325.7 13.3 325.7 13.3 L 325.7 2 Z M 337.6 5.4 L 338.5 5.4 L 338.5 4.2 L 340.7 3.2 L 340.7 5.4 L 341.9 5.4 L 341.9 6.8 L 340.7 6.8 C 340.7 6.8 340.73 11.01 340.7 11 C 340.7 11.6 340.7 12 341.4 12 C 341.6 12 341.7 12 341.8 12 C 341.8 12 341.8 13.3 341.8 13.3 C 341.5 13.3 341.2 13.4 340.7 13.4 C 338.8 13.4 338.5 12.1 338.5 11.6 C 338.54 11.65 338.5 6.8 338.5 6.8 L 337.6 6.8 L 337.6 5.4 Z M 345 5.4 L 345 6.4 C 345 6.4 345 6.45 345 6.4 C 345.4 5.5 346.2 5.3 347 5.3 C 347 5.3 347 7.2 347 7.2 C 345.1 7.1 345.1 8.2 345.1 9 C 345.07 9.02 345.1 13.3 345.1 13.3 L 342.9 13.3 L 342.9 5.4 L 345 5.4 Z M 352.1 8.5 C 352.1 7.7 352.1 6.6 351.1 6.6 C 350.1 6.6 350.1 7.8 350.1 8.5 C 350.1 8.5 352.1 8.5 352.1 8.5 Z M 350.1 9.7 C 350.1 10.7 350.1 12.1 351.1 12.1 C 351.9 12.1 352 11.3 352 10.7 C 352 10.7 354.3 10.7 354.3 10.7 C 354.2 11.5 354 12.2 353.4 12.7 C 352.9 13.2 352.1 13.5 351.1 13.5 C 348.3 13.5 347.9 11.7 347.9 9.3 C 347.9 7.1 348.2 5.3 351.1 5.3 C 354.1 5.3 354.4 7.2 354.3 9.7 C 354.3 9.7 350.1 9.7 350.1 9.7 Z M 357.8 10.9 C 357.8 11.4 357.9 12.1 358.6 12.1 C 359.9 12.1 359.7 10.4 359.7 9.5 C 358.6 9.6 357.8 9.5 357.8 10.9 Z M 361.9 11.9 C 361.9 12.3 361.9 12.8 362 13.3 C 361.96 13.32 359.9 13.3 359.9 13.3 L 359.8 12.3 C 359.8 12.3 359.8 12.27 359.8 12.3 C 359.3 13.1 358.7 13.5 357.7 13.5 C 356.2 13.5 355.6 12.3 355.6 11 C 355.6 8.4 357.7 8.2 359.7 8.3 C 359.7 8.3 359.7 7.7 359.7 7.7 C 359.7 7 359.6 6.5 358.8 6.5 C 358 6.5 358 7.1 358 7.7 C 358 7.7 355.8 7.7 355.8 7.7 C 355.8 6.8 356.1 6.2 356.6 5.8 C 357.1 5.4 357.9 5.3 358.7 5.3 C 361.5 5.3 361.9 6.5 361.9 7.9 C 361.9 7.9 361.9 11.9 361.9 11.9 Z M 362.8 5.4 L 363.7 5.4 L 363.7 4.2 L 365.9 3.2 L 365.9 5.4 L 367 5.4 L 367 6.8 L 365.9 6.8 C 365.9 6.8 365.88 11.01 365.9 11 C 365.9 11.6 365.9 12 366.6 12 C 366.7 12 366.9 12 367 12 C 367 12 367 13.3 367 13.3 C 366.7 13.3 366.4 13.4 365.8 13.4 C 363.9 13.4 363.7 12.1 363.7 11.6 C 363.68 11.65 363.7 6.8 363.7 6.8 L 362.8 6.8 L 362.8 5.4 Z M 370 6.2 C 370 6.2 370.08 6.23 370.1 6.2 C 370.5 5.5 371.1 5.3 371.9 5.3 C 372.7 5.3 373.3 5.7 373.7 6.3 C 374.2 5.6 374.8 5.3 375.7 5.3 C 376.8 5.3 377.7 5.9 377.7 7 C 377.71 6.99 377.7 13.3 377.7 13.3 L 375.5 13.3 C 375.5 13.3 375.51 7.88 375.5 7.9 C 375.5 7.2 375.4 6.6 374.7 6.6 C 374 6.6 373.9 7.2 373.9 7.9 C 373.86 7.88 373.9 13.3 373.9 13.3 L 371.7 13.3 C 371.7 13.3 371.71 7.88 371.7 7.9 C 371.7 7.2 371.6 6.6 370.9 6.6 C 370.2 6.6 370 7.2 370 7.9 C 370.05 7.88 370 13.3 370 13.3 L 367.9 13.3 L 367.9 5.4 L 370 5.4 L 370 6.2 Z M 383.3 8.5 C 383.3 7.7 383.4 6.6 382.3 6.6 C 381.3 6.6 381.3 7.8 381.3 8.5 C 381.3 8.5 383.3 8.5 383.3 8.5 Z M 381.3 9.7 C 381.3 10.7 381.4 12.1 382.3 12.1 C 383.1 12.1 383.3 11.3 383.3 10.7 C 383.3 10.7 385.5 10.7 385.5 10.7 C 385.5 11.5 385.2 12.2 384.6 12.7 C 384.1 13.2 383.4 13.5 382.3 13.5 C 379.5 13.5 379.1 11.7 379.1 9.3 C 379.1 7.1 379.4 5.3 382.3 5.3 C 385.3 5.3 385.6 7.2 385.5 9.7 C 385.5 9.7 381.3 9.7 381.3 9.7 Z M 389.3 6.2 C 389.3 6.2 389.33 6.23 389.3 6.2 C 389.5 5.9 389.8 5.6 390.1 5.5 C 390.4 5.3 390.8 5.3 391.2 5.3 C 392.2 5.3 393.2 5.9 393.2 7 C 393.15 6.99 393.2 13.3 393.2 13.3 L 391 13.3 C 391 13.3 390.95 7.88 391 7.9 C 391 7.2 390.8 6.6 390.1 6.6 C 389.4 6.6 389.3 7.2 389.3 7.9 C 389.3 7.88 389.3 13.3 389.3 13.3 L 387.1 13.3 L 387.1 5.4 L 389.3 5.4 L 389.3 6.2 Z M 394 5.4 L 394.9 5.4 L 394.9 4.2 L 397.1 3.2 L 397.1 5.4 L 398.2 5.4 L 398.2 6.8 L 397.1 6.8 C 397.1 6.8 397.1 11.01 397.1 11 C 397.1 11.6 397.1 12 397.8 12 C 397.9 12 398.1 12 398.2 12 C 398.2 12 398.2 13.3 398.2 13.3 C 397.9 13.3 397.6 13.4 397.1 13.4 C 395.2 13.4 394.9 12.1 394.9 11.6 C 394.9 11.65 394.9 6.8 394.9 6.8 L 394 6.8 L 394 5.4 Z M 401.8 5.4 L 402.7 5.4 L 402.7 4.2 L 404.9 3.2 L 404.9 5.4 L 406 5.4 L 406 6.8 L 404.9 6.8 C 404.9 6.8 404.91 11.01 404.9 11 C 404.9 11.6 404.9 12 405.6 12 C 405.7 12 405.9 12 406 12 C 406 12 406 13.3 406 13.3 C 405.7 13.3 405.4 13.4 404.9 13.4 C 403 13.4 402.7 12.1 402.7 11.6 C 402.71 11.65 402.7 6.8 402.7 6.8 L 401.8 6.8 L 401.8 5.4 Z M 411.1 9.1 C 411.1 7.5 411 6.7 410.1 6.7 C 409.1 6.7 409.1 7.5 409.1 9.1 C 409.1 11.6 409.3 12.1 410.1 12.1 C 410.9 12.1 411.1 11.6 411.1 9.1 Z M 406.9 9.3 C 406.9 7.1 407.2 5.3 410.1 5.3 C 413 5.3 413.3 7.1 413.3 9.3 C 413.3 11.7 412.9 13.5 410.1 13.5 C 407.2 13.5 406.9 11.7 406.9 9.3 Z M 420.3 6.2 C 420.3 6.2 420.38 6.23 420.4 6.2 C 420.8 5.5 421.4 5.3 422.2 5.3 C 423 5.3 423.6 5.7 424 6.3 C 424.5 5.6 425.1 5.3 426 5.3 C 427.1 5.3 428 5.9 428 7 C 428.01 6.99 428 13.3 428 13.3 L 425.8 13.3 C 425.8 13.3 425.81 7.88 425.8 7.9 C 425.8 7.2 425.7 6.6 425 6.6 C 424.3 6.6 424.2 7.2 424.2 7.9 C 424.15 7.88 424.2 13.3 424.2 13.3 L 422 13.3 C 422 13.3 422 7.88 422 7.9 C 422 7.2 421.9 6.6 421.2 6.6 C 420.5 6.6 420.3 7.2 420.3 7.9 C 420.34 7.88 420.3 13.3 420.3 13.3 L 418.1 13.3 L 418.1 5.4 L 420.3 5.4 L 420.3 6.2 Z M 431.5 10.9 C 431.5 11.4 431.6 12.1 432.3 12.1 C 433.6 12.1 433.4 10.4 433.4 9.5 C 432.3 9.6 431.5 9.5 431.5 10.9 Z M 435.6 11.9 C 435.6 12.3 435.6 12.8 435.7 13.3 C 435.67 13.32 433.6 13.3 433.6 13.3 L 433.5 12.3 C 433.5 12.3 433.5 12.27 433.5 12.3 C 433 13.1 432.4 13.5 431.4 13.5 C 429.9 13.5 429.4 12.3 429.4 11 C 429.4 8.4 431.4 8.2 433.4 8.3 C 433.4 8.3 433.4 7.7 433.4 7.7 C 433.4 7 433.3 6.5 432.5 6.5 C 431.8 6.5 431.7 7.1 431.7 7.7 C 431.7 7.7 429.5 7.7 429.5 7.7 C 429.5 6.8 429.8 6.2 430.4 5.8 C 430.9 5.4 431.6 5.3 432.4 5.3 C 435.2 5.3 435.6 6.5 435.6 7.9 C 435.6 7.9 435.6 11.9 435.6 11.9 Z M 439.6 6.2 C 439.6 6.2 439.62 6.23 439.6 6.2 C 439.8 5.9 440.1 5.6 440.4 5.5 C 440.7 5.3 441.1 5.3 441.5 5.3 C 442.5 5.3 443.4 5.9 443.4 7 C 443.45 6.99 443.4 13.3 443.4 13.3 L 441.2 13.3 C 441.2 13.3 441.25 7.88 441.2 7.9 C 441.2 7.2 441.1 6.6 440.4 6.6 C 439.7 6.6 439.6 7.2 439.6 7.9 C 439.59 7.88 439.6 13.3 439.6 13.3 L 437.4 13.3 L 437.4 5.4 L 439.6 5.4 L 439.6 6.2 Z M 447.1 10.9 C 447.1 11.4 447.2 12.1 447.9 12.1 C 449.2 12.1 449 10.4 449 9.5 C 447.9 9.6 447.1 9.5 447.1 10.9 Z M 451.2 11.9 C 451.2 12.3 451.2 12.8 451.3 13.3 C 451.28 13.32 449.2 13.3 449.2 13.3 L 449.1 12.3 C 449.1 12.3 449.11 12.27 449.1 12.3 C 448.6 13.1 448 13.5 447.1 13.5 C 445.5 13.5 445 12.3 445 11 C 445 8.4 447 8.2 449 8.3 C 449 8.3 449 7.7 449 7.7 C 449 7 448.9 6.5 448.1 6.5 C 447.4 6.5 447.3 7.1 447.3 7.7 C 447.3 7.7 445.2 7.7 445.2 7.7 C 445.2 6.8 445.4 6.2 446 5.8 C 446.5 5.4 447.2 5.3 448 5.3 C 450.8 5.3 451.2 6.5 451.2 7.9 C 451.2 7.9 451.2 11.9 451.2 11.9 Z M 455.9 11.9 C 456.7 11.9 456.8 11 456.8 9.4 C 456.8 7.6 456.7 6.6 455.9 6.6 C 455.1 6.6 455 7.2 455 9.6 C 455 10.4 454.9 11.9 455.9 11.9 Z M 459 5.4 C 459 5.4 459.03 13.64 459 13.6 C 459 14.2 459.1 16.3 456 16.3 C 454.4 16.3 453 15.9 452.9 14 C 452.9 14 455.1 14 455.1 14 C 455.1 14.3 455.1 14.6 455.3 14.8 C 455.4 15 455.7 15.1 456 15.1 C 456.6 15.1 456.8 14.6 456.8 13.8 C 456.83 13.8 456.8 12.3 456.8 12.3 C 456.8 12.3 456.8 12.29 456.8 12.3 C 456.5 12.9 455.8 13.2 455.1 13.2 C 452.7 13.2 452.8 11 452.8 9.2 C 452.8 7.5 452.8 5.3 455.1 5.3 C 455.9 5.3 456.6 5.6 456.9 6.4 C 456.9 6.35 456.9 6.4 456.9 6.4 L 456.9 5.4 L 459 5.4 Z M 464.8 8.5 C 464.8 7.7 464.9 6.6 463.8 6.6 C 462.8 6.6 462.8 7.8 462.8 8.5 C 462.8 8.5 464.8 8.5 464.8 8.5 Z M 462.8 9.7 C 462.8 10.7 462.9 12.1 463.8 12.1 C 464.6 12.1 464.8 11.3 464.8 10.7 C 464.8 10.7 467 10.7 467 10.7 C 467 11.5 466.7 12.2 466.2 12.7 C 465.6 13.2 464.9 13.5 463.8 13.5 C 461 13.5 460.6 11.7 460.6 9.3 C 460.6 7.1 460.9 5.3 463.8 5.3 C 466.8 5.3 467.1 7.2 467 9.7 C 467 9.7 462.8 9.7 462.8 9.7 Z M 477.3 6.6 L 477.3 2 L 479.7 2 L 479.7 13.3 L 477.3 13.3 L 477.3 8.3 L 474.6 8.3 L 474.6 13.3 L 472.3 13.3 L 472.3 2 L 474.6 2 L 474.6 6.6 L 477.3 6.6 Z M 480.9 13.3 L 484 2 L 487.1 2 L 490.2 13.3 L 487.7 13.3 L 487 10.8 L 483.8 10.8 L 483.2 13.3 L 480.9 13.3 Z M 485.4 4.2 L 485.4 4.2 L 484.3 9.1 L 486.5 9.1 L 485.4 4.2 Z M 491.3 13.3 L 491.3 2 L 497.4 2 L 497.4 3.8 L 493.6 3.8 L 493.6 6.6 L 497.1 6.6 L 497.1 8.3 L 493.6 8.3 L 493.6 11.6 L 497.5 11.6 L 497.5 13.3 L 491.3 13.3 Z M 504.3 10.9 C 504.3 11.4 504.4 12.1 505.2 12.1 C 506.4 12.1 506.2 10.4 506.2 9.5 C 505.2 9.6 504.3 9.5 504.3 10.9 Z M 508.4 11.9 C 508.4 12.3 508.5 12.8 508.5 13.3 C 508.51 13.32 506.5 13.3 506.5 13.3 L 506.4 12.3 C 506.4 12.3 506.34 12.27 506.3 12.3 C 505.9 13.1 505.2 13.5 504.3 13.5 C 502.7 13.5 502.2 12.3 502.2 11 C 502.2 8.4 504.2 8.2 506.2 8.3 C 506.2 8.3 506.2 7.7 506.2 7.7 C 506.2 7 506.2 6.5 505.4 6.5 C 504.6 6.5 504.5 7.1 504.5 7.7 C 504.5 7.7 502.4 7.7 502.4 7.7 C 502.4 6.8 502.7 6.2 503.2 5.8 C 503.7 5.4 504.4 5.3 505.2 5.3 C 508 5.3 508.4 6.5 508.4 7.9 C 508.4 7.9 508.4 11.9 508.4 11.9 Z M 509.3 5.4 L 510.2 5.4 L 510.2 4.2 L 512.4 3.2 L 512.4 5.4 L 513.6 5.4 L 513.6 6.8 L 512.4 6.8 C 512.4 6.8 512.43 11.01 512.4 11 C 512.4 11.6 512.4 12 513.1 12 C 513.3 12 513.4 12 513.5 12 C 513.5 12 513.5 13.3 513.5 13.3 C 513.2 13.3 512.9 13.4 512.4 13.4 C 510.5 13.4 510.2 12.1 510.2 11.6 C 510.23 11.65 510.2 6.8 510.2 6.8 L 509.3 6.8 L 509.3 5.4 Z M 513.7 5.4 L 514.6 5.4 L 514.6 4.2 L 516.8 3.2 L 516.8 5.4 L 517.9 5.4 L 517.9 6.8 L 516.8 6.8 C 516.8 6.8 516.77 11.01 516.8 11 C 516.8 11.6 516.8 12 517.5 12 C 517.6 12 517.7 12 517.9 12 C 517.9 12 517.9 13.3 517.9 13.3 C 517.6 13.3 517.2 13.4 516.7 13.4 C 514.8 13.4 514.6 12.1 514.6 11.6 C 514.57 11.65 514.6 6.8 514.6 6.8 L 513.7 6.8 L 513.7 5.4 Z M 520.8 10.9 C 520.8 11.4 520.9 12.1 521.6 12.1 C 522.9 12.1 522.7 10.4 522.7 9.5 C 521.6 9.6 520.8 9.5 520.8 10.9 Z M 524.9 11.9 C 524.9 12.3 524.9 12.8 525 13.3 C 524.99 13.32 522.9 13.3 522.9 13.3 L 522.9 12.3 C 522.9 12.3 522.82 12.27 522.8 12.3 C 522.4 13.1 521.7 13.5 520.8 13.5 C 519.2 13.5 518.7 12.3 518.7 11 C 518.7 8.4 520.7 8.2 522.7 8.3 C 522.7 8.3 522.7 7.7 522.7 7.7 C 522.7 7 522.6 6.5 521.8 6.5 C 521.1 6.5 521 7.1 521 7.7 C 521 7.7 518.9 7.7 518.9 7.7 C 518.9 6.8 519.2 6.2 519.7 5.8 C 520.2 5.4 520.9 5.3 521.7 5.3 C 524.5 5.3 524.9 6.5 524.9 7.9 C 524.9 7.9 524.9 11.9 524.9 11.9 Z M 530.7 8.2 C 530.7 7.1 530.4 6.7 529.7 6.7 C 528.8 6.7 528.7 7.5 528.7 9.1 C 528.7 11.6 528.9 12.1 529.7 12.1 C 530.4 12.1 530.8 11.4 530.8 10.4 C 530.8 10.4 533 10.4 533 10.4 C 533 12.6 531.8 13.5 529.7 13.5 C 526.9 13.5 526.5 11.7 526.5 9.3 C 526.5 7.1 526.8 5.3 529.7 5.3 C 531.8 5.3 532.9 6.2 532.9 8.2 C 532.9 8.2 530.7 8.2 530.7 8.2 Z M 534.5 13.3 L 534.5 2 L 536.7 2 L 536.7 8.8 L 536.7 8.8 L 538.7 5.4 L 541 5.4 L 538.7 8.9 L 541.2 13.3 L 538.7 13.3 L 536.7 9 L 536.7 9 L 536.7 13.3 L 534.5 13.3 Z M 544.1 10.8 C 544 11.1 544.1 11.5 544.2 11.7 C 544.3 12 544.5 12.1 545 12.1 C 545.4 12.1 545.8 11.8 545.8 11.3 C 545.8 9.6 541.9 10 541.9 7.5 C 541.9 5.8 543.6 5.3 545 5.3 C 546.5 5.3 547.9 6 547.7 7.7 C 547.7 7.7 545.6 7.7 545.6 7.7 C 545.6 7.2 545.5 6.8 545.4 6.7 C 545.2 6.5 545 6.5 544.8 6.5 C 544.3 6.5 544.1 6.8 544.1 7.4 C 544.1 8.6 547.9 8.5 547.9 11.1 C 547.9 12.4 546.8 13.5 545 13.5 C 543.1 13.5 541.8 13 541.9 10.8 C 541.9 10.8 544.1 10.8 544.1 10.8 Z M 551.8 5.4 L 552.7 5.4 L 552.7 4.2 L 554.9 3.2 L 554.9 5.4 L 556.1 5.4 L 556.1 6.8 L 554.9 6.8 C 554.9 6.8 554.92 11.01 554.9 11 C 554.9 11.6 554.9 12 555.6 12 C 555.8 12 555.9 12 556 12 C 556 12 556 13.3 556 13.3 C 555.7 13.3 555.4 13.4 554.9 13.4 C 553 13.4 552.7 12.1 552.7 11.6 C 552.72 11.65 552.7 6.8 552.7 6.8 L 551.8 6.8 L 551.8 5.4 Z M 560.9 13.3 C 560.9 13.3 560.91 7.88 560.9 7.9 C 560.9 7.2 560.8 6.6 560.1 6.6 C 559.4 6.6 559.3 7.2 559.3 7.9 C 559.26 7.88 559.3 13.3 559.3 13.3 L 557.1 13.3 L 557.1 2 L 559.3 2 L 559.3 6.2 C 559.3 6.2 559.29 6.23 559.3 6.2 C 559.5 5.9 559.8 5.6 560.1 5.5 C 560.4 5.3 560.7 5.3 561.1 5.3 C 562.2 5.3 563.1 5.9 563.1 7 C 563.11 6.99 563.1 13.3 563.1 13.3 L 560.9 13.3 Z M 567 5.4 L 567 6.4 C 567 6.4 566.98 6.45 567 6.4 C 567.4 5.5 568.1 5.3 569 5.3 C 569 5.3 569 7.2 569 7.2 C 567.1 7.1 567.1 8.2 567.1 9 C 567.06 9.02 567.1 13.3 567.1 13.3 L 564.9 13.3 L 564.9 5.4 L 567 5.4 Z M 574.1 9.1 C 574.1 7.5 574 6.7 573.1 6.7 C 572.1 6.7 572.1 7.5 572.1 9.1 C 572.1 11.6 572.3 12.1 573.1 12.1 C 573.9 12.1 574.1 11.6 574.1 9.1 Z M 569.9 9.3 C 569.9 7.1 570.2 5.3 573.1 5.3 C 576 5.3 576.3 7.1 576.3 9.3 C 576.3 11.7 575.9 13.5 573.1 13.5 C 570.2 13.5 569.9 11.7 569.9 9.3 Z M 581.7 12.5 C 581.7 12.5 581.69 12.52 581.7 12.5 C 581.5 12.9 581.2 13.1 580.9 13.3 C 580.6 13.4 580.3 13.5 579.8 13.5 C 578.8 13.5 577.9 12.8 577.9 11.8 C 577.86 11.76 577.9 5.4 577.9 5.4 L 580.1 5.4 C 580.1 5.4 580.06 10.9 580.1 10.9 C 580.1 11.6 580.2 12.1 580.9 12.1 C 581.6 12.1 581.7 11.6 581.7 10.9 C 581.72 10.9 581.7 5.4 581.7 5.4 L 583.9 5.4 C 583.9 5.4 583.92 11.76 583.9 11.8 C 583.9 12.3 584 12.8 584 13.3 C 584 13.32 581.7 13.3 581.7 13.3 L 581.7 12.5 Z M 588.6 11.9 C 589.4 11.9 589.5 11 589.5 9.4 C 589.5 7.6 589.4 6.6 588.6 6.6 C 587.8 6.6 587.6 7.2 587.6 9.6 C 587.6 10.4 587.5 11.9 588.6 11.9 Z M 591.7 5.4 C 591.7 5.4 591.69 13.64 591.7 13.6 C 591.7 14.2 591.7 16.3 588.7 16.3 C 587.1 16.3 585.7 15.9 585.6 14 C 585.6 14 587.8 14 587.8 14 C 587.8 14.3 587.8 14.6 587.9 14.8 C 588.1 15 588.3 15.1 588.7 15.1 C 589.2 15.1 589.5 14.6 589.5 13.8 C 589.49 13.8 589.5 12.3 589.5 12.3 C 589.5 12.3 589.46 12.29 589.5 12.3 C 589.1 12.9 588.5 13.2 587.8 13.2 C 585.4 13.2 585.5 11 585.5 9.2 C 585.5 7.5 585.5 5.3 587.8 5.3 C 588.6 5.3 589.3 5.6 589.6 6.4 C 589.57 6.35 589.6 6.4 589.6 6.4 L 589.6 5.4 L 591.7 5.4 Z M 597.3 13.3 C 597.3 13.3 597.33 7.88 597.3 7.9 C 597.3 7.2 597.2 6.6 596.5 6.6 C 595.8 6.6 595.7 7.2 595.7 7.9 C 595.67 7.88 595.7 13.3 595.7 13.3 L 593.5 13.3 L 593.5 2 L 595.7 2 L 595.7 6.2 C 595.7 6.2 595.71 6.23 595.7 6.2 C 595.9 5.9 596.2 5.6 596.5 5.5 C 596.8 5.3 597.2 5.3 597.6 5.3 C 598.6 5.3 599.5 5.9 599.5 7 C 599.53 6.99 599.5 13.3 599.5 13.3 L 597.3 13.3 Z M 605.3 9.1 C 605.3 7.5 605.2 6.7 604.3 6.7 C 603.4 6.7 603.3 7.5 603.3 9.1 C 603.3 11.6 603.5 12.1 604.3 12.1 C 605.1 12.1 605.3 11.6 605.3 9.1 Z M 601.1 9.3 C 601.1 7.1 601.4 5.3 604.3 5.3 C 607.2 5.3 607.5 7.1 607.5 9.3 C 607.5 11.7 607.1 13.5 604.3 13.5 C 601.5 13.5 601.1 11.7 601.1 9.3 Z M 612.9 12.5 C 612.9 12.5 612.91 12.52 612.9 12.5 C 612.7 12.9 612.4 13.1 612.1 13.3 C 611.8 13.4 611.5 13.5 611 13.5 C 610 13.5 609.1 12.8 609.1 11.8 C 609.08 11.76 609.1 5.4 609.1 5.4 L 611.3 5.4 C 611.3 5.4 611.28 10.9 611.3 10.9 C 611.3 11.6 611.4 12.1 612.1 12.1 C 612.8 12.1 612.9 11.6 612.9 10.9 C 612.94 10.9 612.9 5.4 612.9 5.4 L 615.1 5.4 C 615.1 5.4 615.14 11.76 615.1 11.8 C 615.1 12.3 615.2 12.8 615.2 13.3 C 615.22 13.32 612.9 13.3 612.9 13.3 L 612.9 12.5 Z M 616 5.4 L 616.9 5.4 L 616.9 4.2 L 619.1 3.2 L 619.1 5.4 L 620.2 5.4 L 620.2 6.8 L 619.1 6.8 C 619.1 6.8 619.09 11.01 619.1 11 C 619.1 11.6 619.1 12 619.8 12 C 619.9 12 620.1 12 620.2 12 C 620.2 12 620.2 13.3 620.2 13.3 C 619.9 13.3 619.6 13.4 619 13.4 C 617.1 13.4 616.9 12.1 616.9 11.6 C 616.89 11.65 616.9 6.8 616.9 6.8 L 616 6.8 L 616 5.4 Z M 623.8 5.4 L 624.7 5.4 L 624.7 4.2 L 626.9 3.2 L 626.9 5.4 L 628 5.4 L 628 6.8 L 626.9 6.8 C 626.9 6.8 626.89 11.01 626.9 11 C 626.9 11.6 626.9 12 627.6 12 C 627.7 12 627.9 12 628 12 C 628 12 628 13.3 628 13.3 C 627.7 13.3 627.4 13.4 626.8 13.4 C 624.9 13.4 624.7 12.1 624.7 11.6 C 624.69 11.65 624.7 6.8 624.7 6.8 L 623.8 6.8 L 623.8 5.4 Z M 632.9 13.3 C 632.9 13.3 632.89 7.88 632.9 7.9 C 632.9 7.2 632.8 6.6 632.1 6.6 C 631.4 6.6 631.2 7.2 631.2 7.9 C 631.23 7.88 631.2 13.3 631.2 13.3 L 629 13.3 L 629 2 L 631.2 2 L 631.2 6.2 C 631.2 6.2 631.26 6.23 631.3 6.2 C 631.5 5.9 631.7 5.6 632 5.5 C 632.4 5.3 632.7 5.3 633.1 5.3 C 634.2 5.3 635.1 5.9 635.1 7 C 635.09 6.99 635.1 13.3 635.1 13.3 L 632.9 13.3 Z M 640.9 8.5 C 640.9 7.7 640.9 6.6 639.9 6.6 C 638.9 6.6 638.9 7.8 638.9 8.5 C 638.9 8.5 640.9 8.5 640.9 8.5 Z M 638.9 9.7 C 638.9 10.7 638.9 12.1 639.9 12.1 C 640.6 12.1 640.8 11.3 640.8 10.7 C 640.8 10.7 643 10.7 643 10.7 C 643 11.5 642.7 12.2 642.2 12.7 C 641.7 13.2 640.9 13.5 639.9 13.5 C 637 13.5 636.7 11.7 636.7 9.3 C 636.7 7.1 637 5.3 639.9 5.3 C 642.8 5.3 643.2 7.2 643.1 9.7 C 643.1 9.7 638.9 9.7 638.9 9.7 Z M 649.8 10.8 C 649.8 11.1 649.8 11.5 649.9 11.7 C 650.1 12 650.3 12.1 650.7 12.1 C 651.2 12.1 651.6 11.8 651.6 11.3 C 651.6 9.6 647.7 10 647.7 7.5 C 647.7 5.8 649.4 5.3 650.8 5.3 C 652.3 5.3 653.6 6 653.5 7.7 C 653.5 7.7 651.4 7.7 651.4 7.7 C 651.4 7.2 651.3 6.8 651.2 6.7 C 651 6.5 650.8 6.5 650.6 6.5 C 650.1 6.5 649.8 6.8 649.8 7.4 C 649.8 8.6 653.7 8.5 653.7 11.1 C 653.7 12.4 652.6 13.5 650.8 13.5 C 648.8 13.5 647.6 13 647.7 10.8 C 647.7 10.8 649.8 10.8 649.8 10.8 Z M 654.2 5.4 L 655 5.4 L 655 4.2 L 657.2 3.2 L 657.2 5.4 L 658.4 5.4 L 658.4 6.8 L 657.2 6.8 C 657.2 6.8 657.24 11.01 657.2 11 C 657.2 11.6 657.2 12 657.9 12 C 658.1 12 658.2 12 658.3 12 C 658.3 12 658.3 13.3 658.3 13.3 C 658 13.3 657.7 13.4 657.2 13.4 C 655.3 13.4 655 12.1 655 11.6 C 655.04 11.65 655 6.8 655 6.8 L 654.2 6.8 L 654.2 5.4 Z M 663.2 12.5 C 663.2 12.5 663.2 12.52 663.2 12.5 C 663 12.9 662.7 13.1 662.4 13.3 C 662.1 13.4 661.8 13.5 661.3 13.5 C 660.3 13.5 659.4 12.8 659.4 11.8 C 659.38 11.76 659.4 5.4 659.4 5.4 L 661.6 5.4 C 661.6 5.4 661.58 10.9 661.6 10.9 C 661.6 11.6 661.7 12.1 662.4 12.1 C 663.1 12.1 663.2 11.6 663.2 10.9 C 663.24 10.9 663.2 5.4 663.2 5.4 L 665.4 5.4 C 665.4 5.4 665.43 11.76 665.4 11.8 C 665.4 12.3 665.5 12.8 665.5 13.3 C 665.51 13.32 663.2 13.3 663.2 13.3 L 663.2 12.5 Z M 671 9.3 C 671 7.7 671 6.6 670.1 6.6 C 669.2 6.6 669.2 7.7 669.2 9.3 C 669.2 11.3 669.3 12.1 670.1 12.1 C 670.9 12.1 671 11.3 671 9.3 Z M 671.1 13.3 L 671.1 12.4 C 671.1 12.4 671.09 12.44 671.1 12.4 C 670.7 13.2 670.1 13.5 669.2 13.5 C 667 13.5 667 10.9 667 9.3 C 667 7.7 667 5.3 669.2 5.3 C 670 5.3 670.5 5.5 671 6.2 C 670.98 6.18 671 6.2 671 6.2 L 671 2 L 673.2 2 L 673.2 13.3 L 671.1 13.3 Z M 676.4 13.4 L 674.3 5.4 L 676.4 5.4 L 677.6 11 L 677.6 11 L 678.8 5.4 L 680.9 5.4 L 677.9 16.3 L 675.6 16.3 L 676.4 13.4 Z M 689.4 9.3 C 689.4 7.7 689.4 6.6 688.5 6.6 C 687.6 6.6 687.6 7.7 687.6 9.3 C 687.6 11.3 687.7 12.1 688.5 12.1 C 689.3 12.1 689.4 11.3 689.4 9.3 Z M 687.5 5.4 L 687.5 6.3 C 687.5 6.3 687.51 6.31 687.5 6.3 C 687.9 5.5 688.5 5.3 689.4 5.3 C 691.6 5.3 691.6 7.8 691.6 9.4 C 691.6 11 691.6 13.5 689.4 13.5 C 688.6 13.5 688.1 13.2 687.6 12.6 C 687.62 12.57 687.6 12.6 687.6 12.6 L 687.6 16.7 L 685.4 16.7 L 685.4 5.4 L 687.5 5.4 Z M 697.2 8.5 C 697.2 7.7 697.3 6.6 696.2 6.6 C 695.2 6.6 695.2 7.8 695.2 8.5 C 695.2 8.5 697.2 8.5 697.2 8.5 Z M 695.2 9.7 C 695.2 10.7 695.2 12.1 696.2 12.1 C 697 12.1 697.2 11.3 697.2 10.7 C 697.2 10.7 699.4 10.7 699.4 10.7 C 699.4 11.5 699.1 12.2 698.5 12.7 C 698 13.2 697.2 13.5 696.2 13.5 C 693.4 13.5 693 11.7 693 9.3 C 693 7.1 693.3 5.3 696.2 5.3 C 699.2 5.3 699.5 7.2 699.4 9.7 C 699.4 9.7 695.2 9.7 695.2 9.7 Z M 703.1 5.4 L 703.1 6.4 C 703.1 6.4 703.12 6.45 703.1 6.4 C 703.5 5.5 704.3 5.3 705.2 5.3 C 705.2 5.3 705.2 7.2 705.2 7.2 C 703.2 7.1 703.2 8.2 703.2 9 C 703.19 9.02 703.2 13.3 703.2 13.3 L 701 13.3 L 701 5.4 L 703.1 5.4 Z M 708.6 13.3 L 706.4 13.3 L 706.4 5.4 L 708.6 5.4 L 708.6 13.3 Z M 708.6 2 L 708.6 3.8 L 706.4 3.8 L 706.4 2 L 708.6 2 Z M 714.6 9.1 C 714.6 7.5 714.5 6.7 713.6 6.7 C 712.6 6.7 712.5 7.5 712.5 9.1 C 712.5 11.6 712.7 12.1 713.6 12.1 C 714.4 12.1 714.6 11.6 714.6 9.1 Z M 710.3 9.3 C 710.3 7.1 710.7 5.3 713.6 5.3 C 716.5 5.3 716.8 7.1 716.8 9.3 C 716.8 11.7 716.4 13.5 713.6 13.5 C 710.7 13.5 710.3 11.7 710.3 9.3 Z M 722.2 9.3 C 722.2 7.7 722.2 6.6 721.3 6.6 C 720.3 6.6 720.3 7.7 720.3 9.3 C 720.3 11.3 720.5 12.1 721.3 12.1 C 722 12.1 722.2 11.3 722.2 9.3 Z M 722.3 13.3 L 722.3 12.4 C 722.3 12.4 722.24 12.44 722.2 12.4 C 721.8 13.2 721.2 13.5 720.4 13.5 C 718.1 13.5 718.2 10.9 718.2 9.3 C 718.2 7.7 718.1 5.3 720.3 5.3 C 721.1 5.3 721.7 5.5 722.1 6.2 C 722.13 6.18 722.2 6.2 722.2 6.2 L 722.2 2 L 724.4 2 L 724.4 13.3 L 722.3 13.3 Z " stroke="none" fill="#003c71"/>  </g></svg>