<?xml version="1.0" standalone="no"?><!DOCTYPE svg PUBLIC "-//W3C//DTD SVG 1.1//EN" "http://www.w3.org/Graphics/SVG/1.1/DTD/svg11.dtd"><svg xmlns="http://www.w3.org/2000/svg" version="1.1" width="152px" height="39px" viewBox="0 -1 152 39" style="top:-1px">  <desc>OLE study</desc>  <defs/>  <g id="Polygon198490">    <path d="M 49.9 19.5 C 49.9 20.6 50.4 21.2 51.2 21.2 C 51.9 21.2 52.4 20.6 52.4 19.5 C 52.4 19.5 52.4 12.7 52.4 12.7 C 52.4 11.4 52 10.8 51.2 10.8 C 50.4 10.8 49.9 11.4 49.9 12.7 C 49.9 12.7 49.9 19.5 49.9 19.5 Z M 48.1 12.8 C 48.1 11 48.7 9.4 51.2 9.4 C 53.5 9.4 54.2 10.6 54.2 12.6 C 54.2 12.6 54.2 19.2 54.2 19.2 C 54.2 21 53.6 22.6 51.2 22.6 C 48.9 22.6 48.1 21.4 48.1 19.4 C 48.1 19.4 48.1 12.8 48.1 12.8 Z M 55.5 9.5 L 57.3 9.5 L 57.3 21 L 60.3 21 L 60.3 22.5 L 55.5 22.5 L 55.5 9.5 Z M 61.2 9.5 L 66.1 9.5 L 66.1 11 L 63 11 L 63 15.1 L 65.9 15.1 L 65.9 16.6 L 63 16.6 L 63 21 L 66.1 21 L 66.1 22.5 L 61.2 22.5 L 61.2 9.5 Z M 70 18.8 L 71.8 18.8 C 71.8 18.8 71.8 19.82 71.8 19.8 C 71.8 20.7 72.1 21.2 72.8 21.2 C 73.8 21.2 74 20.6 74 19.7 C 74 18.6 74 18.3 72.1 16.4 C 71 15.3 70 14.2 70 12.5 C 70 10.3 71 9.4 73 9.4 C 73.9 9.4 74.6 9.7 75.1 10.1 C 75.4 10.4 75.6 10.9 75.6 11.8 C 75.58 11.79 75.6 13 75.6 13 L 73.9 13 C 73.9 13 73.89 11.99 73.9 12 C 73.9 11.2 73.6 10.8 72.9 10.8 C 72.1 10.8 71.8 11.2 71.8 12.2 C 71.8 13.1 72 13.7 73.6 15.4 C 75.4 17.2 75.7 17.9 75.7 19.4 C 75.7 21.5 74.9 22.6 72.8 22.6 C 71.1 22.6 70 21.9 70 20.3 C 70 20.3 70 18.8 70 18.8 Z M 76.3 9.5 L 82.4 9.5 L 82.4 11 L 80.3 11 L 80.3 22.5 L 78.5 22.5 L 78.5 11 L 76.3 11 L 76.3 9.5 Z M 89.2 19.6 C 89.2 21.1 88.6 22.6 86.2 22.6 C 83.7 22.6 83.1 21.1 83.1 19.6 C 83.14 19.58 83.1 9.5 83.1 9.5 L 84.9 9.5 C 84.9 9.5 84.94 19.89 84.9 19.9 C 84.9 20.8 85.3 21.2 86.2 21.2 C 87.1 21.2 87.4 20.8 87.4 19.9 C 87.44 19.89 87.4 9.5 87.4 9.5 L 89.2 9.5 C 89.2 9.5 89.24 19.58 89.2 19.6 Z M 92.3 21 C 92.3 21 93.19 21 93.2 21 C 94.5 21 94.8 20.3 94.8 18.1 C 94.8 18.1 94.8 13.6 94.8 13.6 C 94.8 11.7 94.6 11 93 11 C 93.04 11.03 92.3 11 92.3 11 L 92.3 21 Z M 90.5 9.5 C 90.5 9.5 93.42 9.52 93.4 9.5 C 96.3 9.5 96.6 10.5 96.6 14.3 C 96.6 14.3 96.6 18.1 96.6 18.1 C 96.6 21.5 96 22.5 93.1 22.5 C 93.13 22.52 90.5 22.5 90.5 22.5 L 90.5 9.5 Z M 97 9.5 L 98.8 9.5 L 100.4 15 L 100.4 15 L 102.2 9.5 L 103.8 9.5 L 101.3 17.2 L 101.3 22.5 L 99.5 22.5 L 99.5 17.2 L 97 9.5 Z " stroke="none" fill="#ffc845"/>  </g></svg>