<?xml version="1.0" standalone="no"?><!DOCTYPE svg PUBLIC "-//W3C//DTD SVG 1.1//EN" "http://www.w3.org/Graphics/SVG/1.1/DTD/svg11.dtd"><svg xmlns="http://www.w3.org/2000/svg" version="1.1" width="14px" height="54.2px" viewBox="0 -8 14 54.2" style="top:-8px">  <desc>2</desc>  <defs/>  <g id="Polygon193073">    <path d="M 1.3 23.2 C 1.3 23.2 6.7 13.17 6.7 13.2 C 8.2 10.4 8.8 8.5 8.8 5.7 C 8.8 3.2 8.1 2.5 6.9 2.5 C 5.5 2.5 5.1 3.4 5.1 5.2 C 5.14 5.22 5.1 7 5.1 7 L 1.7 7 C 1.7 7 1.66 4.88 1.7 4.9 C 1.7 1.3 2.7 -0.1 6.8 -0.1 C 11.1 -0.1 12.2 1.4 12.2 5.8 C 12.2 8.8 12 10.4 10.5 13.2 C 10.55 13.25 5 23.7 5 23.7 L 12.5 23.7 L 12.5 26.8 L 1.3 26.8 L 1.3 23.2 Z " stroke="none" fill="#fff"/>  </g></svg>