<?xml version="1.0" standalone="no"?><!DOCTYPE svg PUBLIC "-//W3C//DTD SVG 1.1//EN" "http://www.w3.org/Graphics/SVG/1.1/DTD/svg11.dtd"><svg xmlns="http://www.w3.org/2000/svg" version="1.1" width="202.1px" height="48.5px" viewBox="0 0 202.1 48.5">  <desc>To confirm baseline attack rate ≥1 attack/month</desc>  <defs/>  <g id="Polygon194722">    <path d="M 38.8 29.3 L 38.8 30.3 C 38.8 30.3 38.87 30.33 38.9 30.3 C 39.3 29.4 40 29.1 40.9 29.1 C 40.9 29.1 40.9 31.1 40.9 31.1 C 39 31 38.9 32.1 38.9 32.9 C 38.95 32.92 38.9 37.2 38.9 37.2 L 36.7 37.2 L 36.7 29.3 L 38.8 29.3 Z M 43.9 34.8 C 43.9 35.3 44 36 44.7 36 C 46 36 45.8 34.3 45.8 33.4 C 44.7 33.5 43.9 33.4 43.9 34.8 Z M 48 35.8 C 48 36.3 48.1 36.8 48.1 37.2 C 48.1 37.25 46 37.2 46 37.2 L 46 36.2 C 46 36.2 45.92 36.2 45.9 36.2 C 45.4 37 44.8 37.4 43.8 37.4 C 42.3 37.4 41.7 36.3 41.7 34.9 C 41.7 32.2 43.8 32.1 45.8 32.2 C 45.8 32.2 45.8 31.6 45.8 31.6 C 45.8 30.9 45.7 30.4 44.9 30.4 C 44.2 30.4 44.1 31 44.1 31.6 C 44.1 31.6 41.9 31.6 41.9 31.6 C 41.9 30.6 42.2 30 42.7 29.7 C 43.2 29.3 44 29.1 44.8 29.1 C 47.6 29.1 48 30.4 48 31.8 C 48 31.8 48 35.8 48 35.8 Z M 48.9 29.3 L 49.8 29.3 L 49.8 28 L 52.1 27.1 L 52.1 29.3 L 53.2 29.3 L 53.2 30.7 L 52.1 30.7 C 52.1 30.7 52.05 34.92 52.1 34.9 C 52.1 35.5 52 35.9 52.8 35.9 C 52.9 35.9 53 35.9 53.2 35.9 C 53.2 35.9 53.2 37.2 53.2 37.2 C 52.9 37.3 52.5 37.3 52 37.3 C 50.1 37.3 49.8 36.1 49.8 35.6 C 49.84 35.57 49.8 30.7 49.8 30.7 L 48.9 30.7 L 48.9 29.3 Z M 58.3 32.4 C 58.3 31.6 58.3 30.5 57.3 30.5 C 56.2 30.5 56.3 31.7 56.3 32.4 C 56.3 32.4 58.3 32.4 58.3 32.4 Z M 56.3 33.6 C 56.3 34.6 56.3 36 57.3 36 C 58.1 36 58.2 35.2 58.2 34.6 C 58.2 34.6 60.5 34.6 60.5 34.6 C 60.4 35.4 60.1 36.1 59.6 36.6 C 59.1 37.1 58.3 37.4 57.3 37.4 C 54.4 37.4 54 35.7 54 33.2 C 54 31 54.3 29.1 57.3 29.1 C 60.3 29.1 60.6 31.1 60.5 33.6 C 60.5 33.6 56.3 33.6 56.3 33.6 Z M 71.2 31.3 L 71.2 32.5 L 65.4 35.7 L 65.4 34.4 L 70.2 31.9 L 70.2 31.9 L 65.4 29.4 L 65.4 28 L 71.2 31.3 Z M 65.4 37.4 L 65.4 36.3 L 71.3 36.3 L 71.3 37.4 L 65.4 37.4 Z M 72.7 28 C 73.4 27.5 74.2 27 74.8 26.3 C 74.78 26.27 76.9 26.3 76.9 26.3 L 76.9 37.2 L 74.5 37.2 C 74.5 37.2 74.51 28.8 74.5 28.8 C 73.9 29.3 73.3 29.7 72.7 30 C 72.7 30 72.7 28 72.7 28 Z M 85.2 34.8 C 85.2 35.3 85.3 36 86 36 C 87.3 36 87.1 34.3 87.1 33.4 C 86 33.5 85.2 33.4 85.2 34.8 Z M 89.3 35.8 C 89.3 36.3 89.3 36.8 89.4 37.2 C 89.38 37.25 87.3 37.2 87.3 37.2 L 87.2 36.2 C 87.2 36.2 87.19 36.2 87.2 36.2 C 86.7 37 86.1 37.4 85.1 37.4 C 83.6 37.4 83 36.3 83 34.9 C 83 32.2 85 32.1 87.1 32.2 C 87.1 32.2 87.1 31.6 87.1 31.6 C 87.1 30.9 87 30.4 86.2 30.4 C 85.4 30.4 85.4 31 85.4 31.6 C 85.4 31.6 83.2 31.6 83.2 31.6 C 83.2 30.6 83.5 30 84 29.7 C 84.5 29.3 85.2 29.1 86.1 29.1 C 88.9 29.1 89.3 30.4 89.3 31.8 C 89.3 31.8 89.3 35.8 89.3 35.8 Z M 90.2 29.3 L 91.1 29.3 L 91.1 28 L 93.3 27.1 L 93.3 29.3 L 94.5 29.3 L 94.5 30.7 L 93.3 30.7 C 93.3 30.7 93.33 34.92 93.3 34.9 C 93.3 35.5 93.3 35.9 94 35.9 C 94.2 35.9 94.3 35.9 94.4 35.9 C 94.4 35.9 94.4 37.2 94.4 37.2 C 94.1 37.3 93.8 37.3 93.3 37.3 C 91.4 37.3 91.1 36.1 91.1 35.6 C 91.11 35.57 91.1 30.7 91.1 30.7 L 90.2 30.7 L 90.2 29.3 Z M 94.6 29.3 L 95.5 29.3 L 95.5 28 L 97.7 27.1 L 97.7 29.3 L 98.8 29.3 L 98.8 30.7 L 97.7 30.7 C 97.7 30.7 97.7 34.92 97.7 34.9 C 97.7 35.5 97.7 35.9 98.4 35.9 C 98.5 35.9 98.7 35.9 98.8 35.9 C 98.8 35.9 98.8 37.2 98.8 37.2 C 98.5 37.3 98.2 37.3 97.7 37.3 C 95.7 37.3 95.5 36.1 95.5 35.6 C 95.48 35.57 95.5 30.7 95.5 30.7 L 94.6 30.7 L 94.6 29.3 Z M 101.8 34.8 C 101.8 35.3 101.9 36 102.6 36 C 103.9 36 103.7 34.3 103.7 33.4 C 102.6 33.5 101.8 33.4 101.8 34.8 Z M 105.9 35.8 C 105.9 36.3 105.9 36.8 106 37.2 C 105.99 37.25 103.9 37.2 103.9 37.2 L 103.8 36.2 C 103.8 36.2 103.81 36.2 103.8 36.2 C 103.3 37 102.7 37.4 101.7 37.4 C 100.2 37.4 99.6 36.3 99.6 34.9 C 99.6 32.2 101.6 32.1 103.7 32.2 C 103.7 32.2 103.7 31.6 103.7 31.6 C 103.7 30.9 103.6 30.4 102.8 30.4 C 102 30.4 102 31 102 31.6 C 102 31.6 99.8 31.6 99.8 31.6 C 99.8 30.6 100.1 30 100.6 29.7 C 101.1 29.3 101.9 29.1 102.7 29.1 C 105.5 29.1 105.9 30.4 105.9 31.8 C 105.9 31.8 105.9 35.8 105.9 35.8 Z M 111.8 32.1 C 111.8 31 111.5 30.6 110.8 30.6 C 109.8 30.6 109.8 31.4 109.8 33 C 109.8 35.5 110 36 110.8 36 C 111.5 36 111.8 35.4 111.8 34.3 C 111.8 34.3 114 34.3 114 34.3 C 114 36.5 112.9 37.4 110.8 37.4 C 107.9 37.4 107.5 35.7 107.5 33.2 C 107.5 31 107.9 29.1 110.8 29.1 C 112.8 29.1 114 30.1 114 32.1 C 114 32.1 111.8 32.1 111.8 32.1 Z M 115.5 37.2 L 115.5 25.9 L 117.8 25.9 L 117.8 32.7 L 117.8 32.7 L 119.8 29.3 L 122.1 29.3 L 119.9 32.8 L 122.4 37.2 L 119.9 37.2 L 117.8 32.9 L 117.8 32.9 L 117.8 37.2 L 115.5 37.2 Z M 122.1 38.8 L 125.8 25.9 L 127.4 25.9 L 123.7 38.8 L 122.1 38.8 Z M 129.9 30.1 C 129.9 30.1 129.91 30.1 129.9 30.1 C 130.4 29.4 130.9 29.1 131.8 29.1 C 132.6 29.1 133.2 29.5 133.6 30.2 C 134.1 29.5 134.7 29.1 135.6 29.1 C 136.7 29.1 137.6 29.8 137.6 30.9 C 137.6 30.88 137.6 37.2 137.6 37.2 L 135.4 37.2 C 135.4 37.2 135.39 31.77 135.4 31.8 C 135.4 31.1 135.3 30.5 134.6 30.5 C 133.8 30.5 133.7 31.1 133.7 31.8 C 133.72 31.77 133.7 37.2 133.7 37.2 L 131.5 37.2 C 131.5 37.2 131.55 31.77 131.5 31.8 C 131.5 31.1 131.4 30.5 130.7 30.5 C 130 30.5 129.9 31.1 129.9 31.8 C 129.88 31.77 129.9 37.2 129.9 37.2 L 127.7 37.2 L 127.7 29.3 L 129.9 29.3 L 129.9 30.1 Z M 143.3 33 C 143.3 31.4 143.2 30.6 142.2 30.6 C 141.3 30.6 141.2 31.4 141.2 33 C 141.2 35.5 141.4 36 142.2 36 C 143.1 36 143.3 35.5 143.3 33 Z M 139 33.2 C 139 31 139.3 29.1 142.2 29.1 C 145.2 29.1 145.5 31 145.5 33.2 C 145.5 35.7 145.1 37.4 142.2 37.4 C 139.4 37.4 139 35.7 139 33.2 Z M 149.3 30.1 C 149.3 30.1 149.31 30.11 149.3 30.1 C 149.5 29.7 149.8 29.5 150.1 29.4 C 150.4 29.2 150.8 29.1 151.2 29.1 C 152.2 29.1 153.2 29.8 153.2 30.9 C 153.17 30.88 153.2 37.2 153.2 37.2 L 150.9 37.2 C 150.9 37.2 150.95 31.77 150.9 31.8 C 150.9 31.1 150.8 30.5 150.1 30.5 C 149.4 30.5 149.3 31.1 149.3 31.8 C 149.28 31.77 149.3 37.2 149.3 37.2 L 147.1 37.2 L 147.1 29.3 L 149.3 29.3 L 149.3 30.1 Z M 154 29.3 L 154.9 29.3 L 154.9 28 L 157.1 27.1 L 157.1 29.3 L 158.3 29.3 L 158.3 30.7 L 157.1 30.7 C 157.1 30.7 157.15 34.92 157.1 34.9 C 157.1 35.5 157.1 35.9 157.9 35.9 C 158 35.9 158.1 35.9 158.2 35.9 C 158.2 35.9 158.2 37.2 158.2 37.2 C 157.9 37.3 157.6 37.3 157.1 37.3 C 155.2 37.3 154.9 36.1 154.9 35.6 C 154.93 35.57 154.9 30.7 154.9 30.7 L 154 30.7 L 154 29.3 Z M 163.2 37.2 C 163.2 37.2 163.19 31.77 163.2 31.8 C 163.2 31.1 163.1 30.5 162.4 30.5 C 161.6 30.5 161.5 31.1 161.5 31.8 C 161.52 31.77 161.5 37.2 161.5 37.2 L 159.3 37.2 L 159.3 25.9 L 161.5 25.9 L 161.5 30.1 C 161.5 30.1 161.55 30.11 161.6 30.1 C 161.8 29.7 162 29.5 162.3 29.4 C 162.7 29.2 163 29.1 163.4 29.1 C 164.5 29.1 165.4 29.8 165.4 30.9 C 165.41 30.88 165.4 37.2 165.4 37.2 L 163.2 37.2 Z " stroke="none" fill="#003c71"/>  </g>  <g id="Polygon194721">    <path d="M 24.6 7 L 24.6 8.9 L 22 8.9 L 22 18.4 L 19.6 18.4 L 19.6 8.9 L 17 8.9 L 17 7 L 24.6 7 Z M 28.5 14.2 C 28.5 12.5 28.4 11.7 27.5 11.7 C 26.6 11.7 26.5 12.5 26.5 14.2 C 26.5 16.6 26.7 17.1 27.5 17.1 C 28.3 17.1 28.5 16.6 28.5 14.2 Z M 24.3 14.3 C 24.3 12.1 24.6 10.3 27.5 10.3 C 30.4 10.3 30.7 12.1 30.7 14.3 C 30.7 16.8 30.4 18.5 27.5 18.5 C 24.6 18.5 24.3 16.8 24.3 14.3 Z M 39.9 13.3 C 39.9 12.1 39.6 11.7 38.9 11.7 C 37.9 11.7 37.8 12.5 37.8 14.2 C 37.8 16.6 38 17.1 38.9 17.1 C 39.6 17.1 39.9 16.5 39.9 15.4 C 39.9 15.4 42.1 15.4 42.1 15.4 C 42.1 17.6 40.9 18.5 38.9 18.5 C 36 18.5 35.6 16.8 35.6 14.3 C 35.6 12.1 35.9 10.3 38.9 10.3 C 40.9 10.3 42.1 11.2 42.1 13.3 C 42.1 13.3 39.9 13.3 39.9 13.3 Z M 47.8 14.2 C 47.8 12.5 47.7 11.7 46.7 11.7 C 45.8 11.7 45.7 12.5 45.7 14.2 C 45.7 16.6 45.9 17.1 46.7 17.1 C 47.5 17.1 47.8 16.6 47.8 14.2 Z M 43.5 14.3 C 43.5 12.1 43.8 10.3 46.7 10.3 C 49.7 10.3 50 12.1 50 14.3 C 50 16.8 49.6 18.5 46.7 18.5 C 43.9 18.5 43.5 16.8 43.5 14.3 Z M 53.8 11.2 C 53.8 11.2 53.79 11.22 53.8 11.2 C 54 10.9 54.3 10.6 54.6 10.5 C 54.9 10.3 55.3 10.3 55.7 10.3 C 56.7 10.3 57.6 10.9 57.6 12 C 57.65 11.99 57.6 18.4 57.6 18.4 L 55.4 18.4 C 55.4 18.4 55.43 12.89 55.4 12.9 C 55.4 12.2 55.3 11.6 54.6 11.6 C 53.9 11.6 53.8 12.2 53.8 12.9 C 53.76 12.89 53.8 18.4 53.8 18.4 L 51.5 18.4 L 51.5 10.4 L 53.8 10.4 L 53.8 11.2 Z M 65.5 18.4 L 63.3 18.4 L 63.3 10.4 L 65.5 10.4 L 65.5 18.4 Z M 65.5 7 L 65.5 8.8 L 63.3 8.8 L 63.3 7 L 65.5 7 Z M 62.8 8.4 C 61.9 8.3 61.7 8.7 61.7 9.5 C 61.74 9.46 61.7 10.4 61.7 10.4 L 62.8 10.4 L 62.8 11.8 L 61.7 11.8 L 61.7 18.4 L 59.5 18.4 L 59.5 11.8 L 58.5 11.8 L 58.5 10.4 C 58.5 10.4 59.54 10.42 59.5 10.4 C 59.5 8.1 59.3 6.9 62 6.9 C 62.3 6.9 62.6 6.9 62.8 7 C 62.8 7 62.8 8.4 62.8 8.4 Z M 69.4 10.4 L 69.4 11.4 C 69.4 11.4 69.42 11.44 69.4 11.4 C 69.8 10.5 70.6 10.3 71.5 10.3 C 71.5 10.3 71.5 12.2 71.5 12.2 C 69.5 12.1 69.5 13.3 69.5 14 C 69.5 14.04 69.5 18.4 69.5 18.4 L 67.3 18.4 L 67.3 10.4 L 69.4 10.4 Z M 74.6 11.2 C 74.6 11.2 74.59 11.22 74.6 11.2 C 75 10.5 75.6 10.3 76.5 10.3 C 77.3 10.3 77.9 10.6 78.2 11.3 C 78.8 10.6 79.4 10.3 80.3 10.3 C 81.4 10.3 82.3 10.9 82.3 12 C 82.29 11.99 82.3 18.4 82.3 18.4 L 80.1 18.4 C 80.1 18.4 80.07 12.89 80.1 12.9 C 80.1 12.2 79.9 11.6 79.2 11.6 C 78.5 11.6 78.4 12.2 78.4 12.9 C 78.4 12.89 78.4 18.4 78.4 18.4 L 76.2 18.4 C 76.2 18.4 76.23 12.89 76.2 12.9 C 76.2 12.2 76.1 11.6 75.4 11.6 C 74.7 11.6 74.6 12.2 74.6 12.9 C 74.56 12.89 74.6 18.4 74.6 18.4 L 72.3 18.4 L 72.3 10.4 L 74.6 10.4 L 74.6 11.2 Z M 91.4 14.3 C 91.4 12.7 91.4 11.6 90.5 11.6 C 89.6 11.6 89.6 12.7 89.6 14.3 C 89.6 16.3 89.7 17.2 90.5 17.2 C 91.3 17.2 91.4 16.3 91.4 14.3 Z M 87.4 7 L 89.6 7 L 89.6 11.2 C 89.6 11.2 89.62 11.18 89.6 11.2 C 90.1 10.5 90.6 10.3 91.4 10.3 C 93.7 10.3 93.6 12.7 93.6 14.3 C 93.6 16 93.7 18.5 91.4 18.5 C 90.5 18.5 89.9 18.3 89.5 17.5 C 89.51 17.49 89.5 17.5 89.5 17.5 L 89.5 18.4 L 87.4 18.4 L 87.4 7 Z M 97.2 15.9 C 97.2 16.5 97.3 17.2 98 17.2 C 99.3 17.2 99.1 15.4 99.1 14.5 C 98 14.6 97.2 14.5 97.2 15.9 Z M 101.3 16.9 C 101.3 17.4 101.3 17.9 101.4 18.4 C 101.37 18.37 99.3 18.4 99.3 18.4 L 99.2 17.3 C 99.2 17.3 99.19 17.31 99.2 17.3 C 98.7 18.1 98.1 18.5 97.1 18.5 C 95.6 18.5 95 17.4 95 16 C 95 13.4 97 13.3 99.1 13.3 C 99.1 13.3 99.1 12.7 99.1 12.7 C 99.1 12 99 11.5 98.2 11.5 C 97.4 11.5 97.4 12.1 97.4 12.7 C 97.4 12.7 95.2 12.7 95.2 12.7 C 95.2 11.8 95.5 11.1 96 10.8 C 96.5 10.4 97.2 10.3 98.1 10.3 C 100.9 10.3 101.3 11.5 101.3 12.9 C 101.3 12.9 101.3 16.9 101.3 16.9 Z M 104.9 15.8 C 104.8 16.2 104.9 16.5 105 16.8 C 105.1 17 105.3 17.2 105.8 17.2 C 106.2 17.2 106.6 16.9 106.6 16.3 C 106.6 14.7 102.7 15 102.7 12.5 C 102.7 10.8 104.4 10.3 105.8 10.3 C 107.3 10.3 108.7 11 108.6 12.7 C 108.6 12.7 106.4 12.7 106.4 12.7 C 106.4 12.2 106.3 11.8 106.2 11.7 C 106 11.5 105.8 11.5 105.6 11.5 C 105.1 11.5 104.9 11.8 104.9 12.4 C 104.9 13.6 108.8 13.6 108.8 16.1 C 108.8 17.5 107.6 18.5 105.8 18.5 C 103.8 18.5 102.6 18 102.7 15.8 C 102.7 15.8 104.9 15.8 104.9 15.8 Z M 114.2 13.5 C 114.2 12.7 114.2 11.6 113.1 11.6 C 112.1 11.6 112.1 12.8 112.1 13.5 C 112.1 13.5 114.2 13.5 114.2 13.5 Z M 112.1 14.7 C 112.1 15.7 112.2 17.1 113.1 17.1 C 113.9 17.1 114.1 16.4 114.1 15.7 C 114.1 15.7 116.3 15.7 116.3 15.7 C 116.3 16.6 116 17.3 115.5 17.8 C 115 18.2 114.2 18.5 113.1 18.5 C 110.3 18.5 109.9 16.8 109.9 14.3 C 109.9 12.1 110.2 10.3 113.1 10.3 C 116.1 10.3 116.5 12.2 116.4 14.7 C 116.4 14.7 112.1 14.7 112.1 14.7 Z M 120.4 7 L 120.4 18.4 L 118.1 18.4 L 118.1 7 L 120.4 7 Z M 124.7 18.4 L 122.5 18.4 L 122.5 10.4 L 124.7 10.4 L 124.7 18.4 Z M 124.7 7 L 124.7 8.8 L 122.5 8.8 L 122.5 7 L 124.7 7 Z M 128.9 11.2 C 128.9 11.2 128.96 11.22 129 11.2 C 129.2 10.9 129.4 10.6 129.7 10.5 C 130.1 10.3 130.4 10.3 130.8 10.3 C 131.9 10.3 132.8 10.9 132.8 12 C 132.81 11.99 132.8 18.4 132.8 18.4 L 130.6 18.4 C 130.6 18.4 130.6 12.89 130.6 12.9 C 130.6 12.2 130.5 11.6 129.8 11.6 C 129.1 11.6 128.9 12.2 128.9 12.9 C 128.93 12.89 128.9 18.4 128.9 18.4 L 126.7 18.4 L 126.7 10.4 L 128.9 10.4 L 128.9 11.2 Z M 138.7 13.5 C 138.7 12.7 138.7 11.6 137.6 11.6 C 136.6 11.6 136.6 12.8 136.6 13.5 C 136.6 13.5 138.7 13.5 138.7 13.5 Z M 136.6 14.7 C 136.6 15.7 136.7 17.1 137.6 17.1 C 138.4 17.1 138.6 16.4 138.6 15.7 C 138.6 15.7 140.8 15.7 140.8 15.7 C 140.8 16.6 140.5 17.3 140 17.8 C 139.5 18.2 138.7 18.5 137.6 18.5 C 134.8 18.5 134.4 16.8 134.4 14.3 C 134.4 12.1 134.7 10.3 137.6 10.3 C 140.6 10.3 140.9 12.2 140.9 14.7 C 140.9 14.7 136.6 14.7 136.6 14.7 Z M 147.9 15.9 C 147.9 16.5 148 17.2 148.7 17.2 C 150 17.2 149.8 15.4 149.8 14.5 C 148.7 14.6 147.9 14.5 147.9 15.9 Z M 152 16.9 C 152 17.4 152 17.9 152.1 18.4 C 152.07 18.37 150 18.4 150 18.4 L 149.9 17.3 C 149.9 17.3 149.89 17.31 149.9 17.3 C 149.4 18.1 148.8 18.5 147.8 18.5 C 146.3 18.5 145.7 17.4 145.7 16 C 145.7 13.4 147.7 13.3 149.8 13.3 C 149.8 13.3 149.8 12.7 149.8 12.7 C 149.8 12 149.7 11.5 148.9 11.5 C 148.1 11.5 148.1 12.1 148.1 12.7 C 148.1 12.7 145.9 12.7 145.9 12.7 C 145.9 11.8 146.2 11.1 146.7 10.8 C 147.2 10.4 147.9 10.3 148.8 10.3 C 151.6 10.3 152 11.5 152 12.9 C 152 12.9 152 16.9 152 16.9 Z M 152.9 10.4 L 153.8 10.4 L 153.8 9.2 L 156 8.2 L 156 10.4 L 157.2 10.4 L 157.2 11.8 L 156 11.8 C 156 11.8 156.02 16.04 156 16 C 156 16.6 156 17 156.7 17 C 156.9 17 157 17 157.1 17 C 157.1 17 157.1 18.4 157.1 18.4 C 156.8 18.4 156.5 18.4 156 18.4 C 154.1 18.4 153.8 17.2 153.8 16.7 C 153.81 16.68 153.8 11.8 153.8 11.8 L 152.9 11.8 L 152.9 10.4 Z M 157.3 10.4 L 158.2 10.4 L 158.2 9.2 L 160.4 8.2 L 160.4 10.4 L 161.5 10.4 L 161.5 11.8 L 160.4 11.8 C 160.4 11.8 160.4 16.04 160.4 16 C 160.4 16.6 160.4 17 161.1 17 C 161.2 17 161.4 17 161.5 17 C 161.5 17 161.5 18.4 161.5 18.4 C 161.2 18.4 160.9 18.4 160.3 18.4 C 158.4 18.4 158.2 17.2 158.2 16.7 C 158.18 16.68 158.2 11.8 158.2 11.8 L 157.3 11.8 L 157.3 10.4 Z M 164.5 15.9 C 164.5 16.5 164.6 17.2 165.3 17.2 C 166.6 17.2 166.4 15.4 166.4 14.5 C 165.3 14.6 164.5 14.5 164.5 15.9 Z M 168.6 16.9 C 168.6 17.4 168.6 17.9 168.7 18.4 C 168.69 18.37 166.6 18.4 166.6 18.4 L 166.5 17.3 C 166.5 17.3 166.5 17.31 166.5 17.3 C 166 18.1 165.4 18.5 164.4 18.5 C 162.9 18.5 162.3 17.4 162.3 16 C 162.3 13.4 164.3 13.3 166.4 13.3 C 166.4 13.3 166.4 12.7 166.4 12.7 C 166.4 12 166.3 11.5 165.5 11.5 C 164.7 11.5 164.7 12.1 164.7 12.7 C 164.7 12.7 162.5 12.7 162.5 12.7 C 162.5 11.8 162.8 11.1 163.3 10.8 C 163.8 10.4 164.6 10.3 165.4 10.3 C 168.2 10.3 168.6 11.5 168.6 12.9 C 168.6 12.9 168.6 16.9 168.6 16.9 Z M 174.5 13.3 C 174.5 12.1 174.2 11.7 173.5 11.7 C 172.5 11.7 172.4 12.5 172.4 14.2 C 172.4 16.6 172.7 17.1 173.5 17.1 C 174.2 17.1 174.5 16.5 174.5 15.4 C 174.5 15.4 176.7 15.4 176.7 15.4 C 176.7 17.6 175.5 18.5 173.5 18.5 C 170.6 18.5 170.2 16.8 170.2 14.3 C 170.2 12.1 170.5 10.3 173.5 10.3 C 175.5 10.3 176.7 11.2 176.7 13.3 C 176.7 13.3 174.5 13.3 174.5 13.3 Z M 178.2 18.4 L 178.2 7 L 180.5 7 L 180.5 13.8 L 180.5 13.8 L 182.5 10.4 L 184.8 10.4 L 182.6 14 L 185.1 18.4 L 182.6 18.4 L 180.5 14 L 180.5 14 L 180.5 18.4 L 178.2 18.4 Z " stroke="none" fill="#003c71"/>  </g></svg>