<?xml version="1.0" standalone="no"?><!DOCTYPE svg PUBLIC "-//W3C//DTD SVG 1.1//EN" "http://www.w3.org/Graphics/SVG/1.1/DTD/svg11.dtd"><svg xmlns="http://www.w3.org/2000/svg" version="1.1" width="260px" height="39.8px" viewBox="0 -4 260 39.8" style="top:-4px">  <desc>Adapted from Staubach et al. Clin. &amp; Exp. Allergy. 2024.2</desc>  <defs/>  <g id="Polygon196504">    <path d="M 2.4 0 L 3.6 0 L 6 7.2 L 4.9 7.2 L 4.4 5.5 L 1.6 5.5 L 1.1 7.2 L 0.2 7.2 L 2.4 0 Z M 3 0.9 L 3 0.9 L 1.9 4.7 L 4.2 4.7 L 3 0.9 Z M 8.5 2.8 C 7.7 2.8 7.5 3.5 7.5 4.8 C 7.5 5.6 7.5 6.7 8.6 6.7 C 9.5 6.7 9.5 5.5 9.5 4.5 C 9.5 3.8 9.5 2.8 8.5 2.8 Z M 9.5 0 L 10.3 0 L 10.3 7.2 L 9.5 7.2 L 9.5 6.6 C 9.5 6.6 9.48 6.64 9.5 6.6 C 9.2 7.1 8.9 7.3 8.3 7.3 C 7.5 7.3 6.7 7 6.7 4.8 C 6.7 3.5 6.7 2.1 8.4 2.1 C 8.8 2.1 9.2 2.3 9.5 2.7 C 9.47 2.7 9.5 2.7 9.5 2.7 L 9.5 0 Z M 12.6 5.7 C 12.6 6.2 12.8 6.7 13.4 6.7 C 13.9 6.7 14.5 6.4 14.4 4.7 C 13.6 4.7 12.6 4.7 12.6 5.7 Z M 14.4 6.5 C 14.4 6.5 14.41 6.51 14.4 6.5 C 14.2 7.1 13.8 7.3 13.1 7.3 C 12.1 7.3 11.8 6.7 11.8 5.7 C 11.8 4.2 13.3 4.1 14.4 4.1 C 14.4 3.4 14.4 2.7 13.6 2.7 C 13 2.7 12.7 3.1 12.8 3.6 C 12.8 3.6 11.9 3.6 11.9 3.6 C 11.9 2.5 12.5 2.1 13.6 2.1 C 14.9 2.1 15.2 2.8 15.2 3.6 C 15.2 3.6 15.2 6 15.2 6 C 15.2 6.4 15.3 6.8 15.3 7.2 C 15.33 7.24 14.4 7.2 14.4 7.2 L 14.4 6.5 Z M 19.7 4.6 C 19.7 3.9 19.7 2.8 18.6 2.8 C 17.6 2.8 17.7 4.2 17.7 4.9 C 17.7 5.6 17.8 6.7 18.7 6.7 C 19.6 6.7 19.7 6 19.7 4.6 Z M 17.7 2.8 C 17.7 2.8 17.74 2.79 17.7 2.8 C 18 2.3 18.4 2.1 18.9 2.1 C 19.7 2.1 20.5 2.4 20.5 4.6 C 20.5 5.9 20.5 7.3 18.9 7.3 C 18.4 7.3 18 7.1 17.7 6.7 C 17.75 6.73 17.7 6.7 17.7 6.7 L 17.7 9.1 L 16.9 9.1 L 16.9 2.2 L 17.7 2.2 L 17.7 2.8 Z M 21.9 2.2 L 21.9 1.2 L 22.7 0.9 L 22.7 2.2 L 23.8 2.2 L 23.8 2.8 L 22.7 2.8 C 22.7 2.8 22.74 5.9 22.7 5.9 C 22.7 6.2 22.7 6.6 23.5 6.6 C 23.5 6.6 23.7 6.6 23.9 6.6 C 23.9 6.6 23.9 7.2 23.9 7.2 C 23.6 7.2 23.3 7.3 23 7.3 C 22.3 7.3 21.9 7 21.9 6.4 C 21.92 6.4 21.9 2.8 21.9 2.8 L 21.1 2.8 L 21.1 2.2 L 21.9 2.2 Z M 27.4 4.4 C 27.4 2.9 27 2.7 26.4 2.7 C 25.8 2.7 25.4 3 25.4 4.4 C 25.4 4.4 27.4 4.4 27.4 4.4 Z M 25.4 5 C 25.4 6.4 25.8 6.7 26.4 6.7 C 27 6.7 27.3 6.2 27.3 5.7 C 27.3 5.7 28.2 5.7 28.2 5.7 C 28.2 6.8 27.5 7.3 26.4 7.3 C 25.4 7.3 24.5 7 24.5 4.8 C 24.5 3.3 24.7 2.1 26.4 2.1 C 27.9 2.1 28.2 2.9 28.2 4.6 C 28.25 4.55 28.2 5 28.2 5 C 28.2 5 25.41 4.98 25.4 5 Z M 31.3 2.8 C 30.4 2.8 30.3 3.5 30.3 4.8 C 30.3 5.6 30.3 6.7 31.4 6.7 C 32.3 6.7 32.3 5.5 32.3 4.5 C 32.3 3.8 32.2 2.8 31.3 2.8 Z M 32.3 0 L 33.1 0 L 33.1 7.2 L 32.3 7.2 L 32.3 6.6 C 32.3 6.6 32.26 6.64 32.3 6.6 C 32 7.1 31.6 7.3 31.1 7.3 C 30.3 7.3 29.5 7 29.5 4.8 C 29.5 3.5 29.5 2.1 31.1 2.1 C 31.6 2.1 32 2.3 32.3 2.7 C 32.25 2.7 32.3 2.7 32.3 2.7 L 32.3 0 Z M 37 2.2 C 37 2.2 36.98 1.21 37 1.2 C 37 0.2 37.7 0 38.4 0 C 38.6 0 38.7 0 38.8 0 C 38.8 0 38.8 0.6 38.8 0.6 C 37.9 0.5 37.8 0.9 37.8 1.3 C 37.8 1.33 37.8 2.2 37.8 2.2 L 38.8 2.2 L 38.8 2.8 L 37.8 2.8 L 37.8 7.2 L 37 7.2 L 37 2.8 L 36.2 2.8 L 36.2 2.2 L 37 2.2 Z M 40.5 2.9 C 40.5 2.9 40.48 2.95 40.5 2.9 C 40.8 2.2 41.2 2.1 42 2.1 C 42 2.1 42 2.9 42 2.9 C 42 2.9 41.9 2.9 41.8 2.9 C 41.7 2.9 41.7 2.9 41.6 2.9 C 40.7 2.9 40.5 3.6 40.5 4.3 C 40.46 4.26 40.5 7.2 40.5 7.2 L 39.6 7.2 L 39.6 2.2 L 40.5 2.2 L 40.5 2.9 Z M 45.8 4.4 C 45.8 3.1 45.4 2.8 44.7 2.8 C 44.1 2.8 43.7 3.1 43.7 4.4 C 43.7 6.1 43.9 6.7 44.7 6.7 C 45.6 6.7 45.8 6.1 45.8 4.4 Z M 42.8 4.8 C 42.8 3.3 43 2.1 44.7 2.1 C 46.5 2.1 46.6 3.3 46.6 4.8 C 46.6 7 45.8 7.3 44.7 7.3 C 43.6 7.3 42.8 7 42.8 4.8 Z M 50.4 7.2 C 50.4 7.2 50.42 3.74 50.4 3.7 C 50.4 3.2 50.3 2.8 49.6 2.8 C 49.4 2.8 49 2.9 48.9 3.1 C 48.8 3.3 48.7 3.6 48.7 3.8 C 48.72 3.84 48.7 7.2 48.7 7.2 L 47.9 7.2 C 47.9 7.2 47.9 3.24 47.9 3.2 C 47.9 2.9 47.9 2.5 47.9 2.2 C 47.85 2.19 48.7 2.2 48.7 2.2 L 48.7 2.8 C 48.7 2.8 48.74 2.82 48.7 2.8 C 49 2.3 49.4 2.1 50 2.1 C 50.5 2.1 51 2.3 51.2 2.7 C 51.5 2.2 51.9 2.1 52.4 2.1 C 52.9 2.1 53.8 2.2 53.8 3.4 C 53.76 3.4 53.8 7.2 53.8 7.2 L 52.9 7.2 C 52.9 7.2 52.94 3.74 52.9 3.7 C 52.9 3.2 52.8 2.8 52.1 2.8 C 51.8 2.8 51.7 2.8 51.5 2.9 C 51.3 3.1 51.2 3.6 51.2 3.8 C 51.24 3.84 51.2 7.2 51.2 7.2 L 50.4 7.2 Z M 58.2 5.1 C 58.2 5.1 58.18 5.3 58.2 5.3 C 58.2 6.3 58.8 6.6 59.4 6.6 C 60.1 6.6 60.7 6.3 60.7 5.4 C 60.7 3.8 57.4 4 57.4 1.8 C 57.4 0.5 58.3 -0.1 59.6 -0.1 C 60.9 -0.1 61.6 0.5 61.6 2 C 61.6 2 60.6 2 60.6 2 C 60.6 1.2 60.4 0.7 59.5 0.7 C 58.9 0.7 58.4 0.9 58.4 1.7 C 58.4 3.3 61.6 3.1 61.6 5.4 C 61.6 6.9 60.6 7.4 59.4 7.4 C 57.3 7.4 57.3 5.8 57.3 5.1 C 57.27 5.09 58.2 5.1 58.2 5.1 Z M 63 2.2 L 63 1.2 L 63.8 0.9 L 63.8 2.2 L 64.9 2.2 L 64.9 2.8 L 63.8 2.8 C 63.8 2.8 63.85 5.9 63.8 5.9 C 63.8 6.2 63.8 6.6 64.6 6.6 C 64.7 6.6 64.8 6.6 65 6.6 C 65 6.6 65 7.2 65 7.2 C 64.7 7.2 64.4 7.3 64.2 7.3 C 63.4 7.3 63 7 63 6.4 C 63.03 6.4 63 2.8 63 2.8 L 62.2 2.8 L 62.2 2.2 L 63 2.2 Z M 66.5 5.7 C 66.5 6.2 66.7 6.7 67.3 6.7 C 67.8 6.7 68.4 6.4 68.3 4.7 C 67.5 4.7 66.5 4.7 66.5 5.7 Z M 68.3 6.5 C 68.3 6.5 68.3 6.51 68.3 6.5 C 68 7.1 67.7 7.3 67 7.3 C 66 7.3 65.7 6.7 65.7 5.7 C 65.7 4.2 67.1 4.1 68.3 4.1 C 68.3 3.4 68.3 2.7 67.4 2.7 C 66.9 2.7 66.6 3.1 66.7 3.6 C 66.7 3.6 65.8 3.6 65.8 3.6 C 65.8 2.5 66.4 2.1 67.5 2.1 C 68.8 2.1 69.1 2.8 69.1 3.6 C 69.1 3.6 69.1 6 69.1 6 C 69.1 6.4 69.2 6.8 69.2 7.2 C 69.22 7.24 68.3 7.2 68.3 7.2 L 68.3 6.5 Z M 73.4 2.2 L 74.2 2.2 C 74.2 2.2 74.24 6.19 74.2 6.2 C 74.2 6.5 74.3 6.9 74.3 7.2 C 74.29 7.24 73.4 7.2 73.4 7.2 L 73.4 6.6 C 73.4 6.6 73.39 6.63 73.4 6.6 C 73.1 7.1 72.6 7.3 72.1 7.3 C 71.2 7.3 70.8 6.9 70.8 6 C 70.75 6.04 70.8 2.2 70.8 2.2 L 71.6 2.2 C 71.6 2.2 71.57 5.69 71.6 5.7 C 71.6 6.3 71.8 6.7 72.4 6.7 C 72.9 6.7 73.4 6.4 73.4 5.5 C 73.42 5.54 73.4 2.2 73.4 2.2 Z M 77.5 6.7 C 78.6 6.7 78.6 5.6 78.6 4.8 C 78.6 3.5 78.4 2.8 77.6 2.8 C 76.6 2.8 76.6 3.8 76.6 4.5 C 76.6 5.3 76.5 6.7 77.5 6.7 Z M 76.6 7.2 L 75.8 7.2 L 75.8 0 L 76.6 0 L 76.6 2.7 C 76.6 2.7 76.64 2.7 76.6 2.7 C 76.9 2.3 77.3 2.1 77.7 2.1 C 79.4 2.1 79.4 3.5 79.4 4.8 C 79.4 7 78.6 7.3 77.8 7.3 C 77.3 7.3 76.9 7.1 76.6 6.6 C 76.63 6.64 76.6 6.6 76.6 6.6 L 76.6 7.2 Z M 81.5 5.7 C 81.5 6.2 81.7 6.7 82.3 6.7 C 82.8 6.7 83.4 6.4 83.3 4.7 C 82.5 4.7 81.5 4.7 81.5 5.7 Z M 83.3 6.5 C 83.3 6.5 83.3 6.51 83.3 6.5 C 83 7.1 82.7 7.3 82 7.3 C 81 7.3 80.7 6.7 80.7 5.7 C 80.7 4.2 82.1 4.1 83.3 4.1 C 83.3 3.4 83.3 2.7 82.4 2.7 C 81.9 2.7 81.6 3.1 81.7 3.6 C 81.7 3.6 80.8 3.6 80.8 3.6 C 80.8 2.5 81.4 2.1 82.5 2.1 C 83.8 2.1 84.1 2.8 84.1 3.6 C 84.1 3.6 84.1 6 84.1 6 C 84.1 6.4 84.2 6.8 84.2 7.2 C 84.22 7.24 83.3 7.2 83.3 7.2 L 83.3 6.5 Z M 88.4 3.8 C 88.4 3 88 2.8 87.7 2.8 C 87 2.8 86.6 3.1 86.6 4.4 C 86.6 6.1 86.8 6.7 87.7 6.7 C 87.8 6.7 88.4 6.5 88.4 5.6 C 88.4 5.6 89.2 5.6 89.2 5.6 C 89.3 7 88.2 7.3 87.7 7.3 C 86.6 7.3 85.7 7 85.7 4.8 C 85.7 3.3 85.9 2.1 87.7 2.1 C 88.7 2.1 89.3 2.7 89.2 3.8 C 89.2 3.8 88.4 3.8 88.4 3.8 Z M 93.5 7.2 C 93.5 7.2 93.46 3.82 93.5 3.8 C 93.5 3.2 93.3 2.8 92.6 2.8 C 91.7 2.8 91.5 3.4 91.5 4.3 C 91.53 4.27 91.5 7.2 91.5 7.2 L 90.7 7.2 L 90.7 0 L 91.5 0 L 91.5 2.8 C 91.5 2.8 91.57 2.84 91.6 2.8 C 91.9 2.3 92.3 2.1 92.9 2.1 C 93.8 2.1 94.3 2.5 94.3 3.7 C 94.28 3.66 94.3 7.2 94.3 7.2 L 93.5 7.2 Z M 100.7 4.4 C 100.7 2.9 100.3 2.7 99.7 2.7 C 99.2 2.7 98.7 3 98.7 4.4 C 98.7 4.4 100.7 4.4 100.7 4.4 Z M 98.7 5 C 98.7 6.4 99.1 6.7 99.8 6.7 C 100.3 6.7 100.6 6.2 100.6 5.7 C 100.6 5.7 101.5 5.7 101.5 5.7 C 101.5 6.8 100.8 7.3 99.8 7.3 C 98.7 7.3 97.9 7 97.9 4.8 C 97.9 3.3 98 2.1 99.8 2.1 C 101.2 2.1 101.6 2.9 101.6 4.6 C 101.58 4.55 101.6 5 101.6 5 C 101.6 5 98.74 4.98 98.7 5 Z M 103 2.2 L 103 1.2 L 103.8 0.9 L 103.8 2.2 L 104.9 2.2 L 104.9 2.8 L 103.8 2.8 C 103.8 2.8 103.85 5.9 103.8 5.9 C 103.8 6.2 103.8 6.6 104.6 6.6 C 104.7 6.6 104.8 6.6 105 6.6 C 105 6.6 105 7.2 105 7.2 C 104.7 7.2 104.4 7.3 104.2 7.3 C 103.4 7.3 103 7 103 6.4 C 103.03 6.4 103 2.8 103 2.8 L 102.2 2.8 L 102.2 2.2 L 103 2.2 Z M 108.7 5.7 C 108.7 6.2 108.9 6.7 109.5 6.7 C 110 6.7 110.6 6.4 110.5 4.7 C 109.7 4.7 108.7 4.7 108.7 5.7 Z M 110.5 6.5 C 110.5 6.5 110.52 6.51 110.5 6.5 C 110.3 7.1 109.9 7.3 109.2 7.3 C 108.2 7.3 107.9 6.7 107.9 5.7 C 107.9 4.2 109.4 4.1 110.5 4.1 C 110.5 3.4 110.5 2.7 109.7 2.7 C 109.1 2.7 108.8 3.1 108.9 3.6 C 108.9 3.6 108 3.6 108 3.6 C 108 2.5 108.6 2.1 109.7 2.1 C 111 2.1 111.3 2.8 111.3 3.6 C 111.3 3.6 111.3 6 111.3 6 C 111.3 6.4 111.4 6.8 111.4 7.2 C 111.44 7.24 110.5 7.2 110.5 7.2 L 110.5 6.5 Z M 113.7 7.2 L 112.9 7.2 L 112.9 0 L 113.7 0 L 113.7 7.2 Z M 116 7.2 L 115.1 7.2 L 115.1 6.2 L 116 6.2 L 116 7.2 Z M 122.9 2 C 122.9 1.6 122.8 1.2 122.7 1 C 122.5 0.7 122 0.6 121.8 0.6 C 121.1 0.6 120.8 1.1 120.8 1.2 C 120.7 1.3 120.5 1.5 120.5 2.7 C 120.5 2.7 120.5 4.6 120.5 4.6 C 120.5 6.4 121.1 6.6 121.8 6.6 C 122.1 6.6 123 6.5 123 5.1 C 123 5.1 123.9 5.1 123.9 5.1 C 124 7.4 122.4 7.4 121.9 7.4 C 121 7.4 119.6 7.3 119.6 4.5 C 119.6 4.5 119.6 2.5 119.6 2.5 C 119.6 0.4 120.5 -0.1 121.9 -0.1 C 123.4 -0.1 123.9 0.6 123.8 2 C 123.8 2 122.9 2 122.9 2 Z M 126 7.2 L 125.1 7.2 L 125.1 0 L 126 0 L 126 7.2 Z M 128.2 7.2 L 127.4 7.2 L 127.4 2.2 L 128.2 2.2 L 128.2 7.2 Z M 127.3 0 L 128.2 0 L 128.2 0.9 L 127.3 0.9 L 127.3 0 Z M 132.3 7.2 C 132.3 7.2 132.34 3.74 132.3 3.7 C 132.3 3.2 132.1 2.8 131.4 2.8 C 130.5 2.8 130.4 3.6 130.4 4.2 C 130.42 4.25 130.4 7.2 130.4 7.2 L 129.6 7.2 C 129.6 7.2 129.6 3.24 129.6 3.2 C 129.6 2.9 129.6 2.5 129.5 2.2 C 129.55 2.19 130.4 2.2 130.4 2.2 L 130.4 2.8 C 130.4 2.8 130.46 2.84 130.5 2.8 C 130.8 2.3 131.2 2.1 131.8 2.1 C 132.9 2.1 133.2 2.7 133.2 3.7 C 133.16 3.74 133.2 7.2 133.2 7.2 L 132.3 7.2 Z M 135.5 7.2 L 134.5 7.2 L 134.5 6.2 L 135.5 6.2 L 135.5 7.2 Z M 141 3.6 C 140.3 4.1 139.8 4.5 139.8 5.3 C 139.8 6.1 140.4 6.6 141.3 6.6 C 141.9 6.6 142.4 6.4 142.7 5.9 C 142.7 5.9 141 3.6 141 3.6 Z M 142 1.4 C 142 0.9 141.7 0.6 141.2 0.6 C 140.8 0.6 140.4 0.9 140.4 1.4 C 140.4 1.9 141 2.3 141.2 2.7 C 141.6 2.4 142 1.9 142 1.4 Z M 143.2 6.5 C 142.7 7.2 142.1 7.4 141.2 7.4 C 139.9 7.4 138.9 6.7 138.9 5.3 C 138.9 4.1 139.5 3.7 140.5 3.1 C 140 2.6 139.5 2 139.5 1.3 C 139.5 0.2 140.4 -0.1 141.3 -0.1 C 142.2 -0.1 143 0.3 143 1.3 C 143 2.1 142.3 2.8 141.8 3.2 C 141.8 3.2 143.2 5 143.2 5 C 143.3 4.6 143.3 4.1 143.3 3 C 143.3 3 144.1 3 144.1 3 C 144.1 4.5 144 5.2 143.7 5.7 C 143.7 5.69 144.9 7.2 144.9 7.2 L 143.8 7.2 C 143.8 7.2 143.24 6.5 143.2 6.5 Z M 148 7.2 L 148 0 L 151.7 0 L 151.7 0.8 L 148.9 0.8 L 148.9 3.1 L 151.5 3.1 L 151.5 3.9 L 148.9 3.9 L 148.9 6.4 L 151.8 6.4 L 151.8 7.2 L 148 7.2 Z M 156.6 7.2 L 155.5 7.2 L 154.3 5.2 L 153.2 7.2 L 152.3 7.2 L 153.8 4.6 L 152.4 2.2 L 153.4 2.2 L 154.4 4 L 155.4 2.2 L 156.4 2.2 L 154.9 4.6 L 156.6 7.2 Z M 160.2 4.6 C 160.2 3.9 160.2 2.8 159.2 2.8 C 158.2 2.8 158.3 4.2 158.3 4.9 C 158.3 5.6 158.3 6.7 159.2 6.7 C 160.1 6.7 160.2 6 160.2 4.6 Z M 158.3 2.8 C 158.3 2.8 158.28 2.79 158.3 2.8 C 158.6 2.3 158.9 2.1 159.4 2.1 C 160.2 2.1 161.1 2.4 161.1 4.6 C 161.1 5.9 161 7.3 159.4 7.3 C 158.9 7.3 158.6 7.1 158.3 6.7 C 158.29 6.73 158.3 6.7 158.3 6.7 L 158.3 9.1 L 157.4 9.1 L 157.4 2.2 L 158.3 2.2 L 158.3 2.8 Z M 163.2 7.2 L 162.3 7.2 L 162.3 6.2 L 163.2 6.2 L 163.2 7.2 Z M 168.5 0 L 169.7 0 L 172 7.2 L 171 7.2 L 170.5 5.5 L 167.7 5.5 L 167.2 7.2 L 166.2 7.2 L 168.5 0 Z M 169.1 0.9 L 169.1 0.9 L 167.9 4.7 L 170.2 4.7 L 169.1 0.9 Z M 173.7 7.2 L 172.9 7.2 L 172.9 0 L 173.7 0 L 173.7 7.2 Z M 175.9 7.2 L 175.1 7.2 L 175.1 0 L 175.9 0 L 175.9 7.2 Z M 180.1 4.4 C 180.1 2.9 179.7 2.7 179.1 2.7 C 178.6 2.7 178.2 3 178.2 4.4 C 178.2 4.4 180.1 4.4 180.1 4.4 Z M 178.2 5 C 178.2 6.4 178.5 6.7 179.2 6.7 C 179.7 6.7 180 6.2 180.1 5.7 C 180.1 5.7 181 5.7 181 5.7 C 180.9 6.8 180.3 7.3 179.2 7.3 C 178.1 7.3 177.3 7 177.3 4.8 C 177.3 3.3 177.4 2.1 179.2 2.1 C 180.6 2.1 181 2.9 181 4.6 C 181 4.55 181 5 181 5 C 181 5 178.16 4.98 178.2 5 Z M 183.2 2.9 C 183.2 2.9 183.23 2.95 183.2 2.9 C 183.6 2.2 184 2.1 184.8 2.1 C 184.8 2.1 184.8 2.9 184.8 2.9 C 184.7 2.9 184.6 2.9 184.6 2.9 C 184.5 2.9 184.4 2.9 184.3 2.9 C 183.4 2.9 183.2 3.6 183.2 4.3 C 183.21 4.26 183.2 7.2 183.2 7.2 L 182.4 7.2 L 182.4 2.2 L 183.2 2.2 L 183.2 2.9 Z M 187.4 2.8 C 186.5 2.8 186.4 3.9 186.4 4.6 C 186.4 6.2 186.8 6.6 187.4 6.6 C 188.4 6.6 188.4 5.4 188.4 4.7 C 188.4 3.9 188.4 2.8 187.4 2.8 Z M 188.4 2.2 L 189.2 2.2 C 189.2 2.2 189.18 7.75 189.2 7.7 C 189.2 8.9 188.4 9.1 187.3 9.1 C 186.5 9.1 185.7 8.7 185.8 7.8 C 185.8 7.8 186.7 7.8 186.7 7.8 C 186.7 8.3 187 8.5 187.5 8.5 C 188 8.5 188.4 8.2 188.4 7.7 C 188.36 7.66 188.4 6.6 188.4 6.6 C 188.4 6.6 188.33 6.61 188.3 6.6 C 188.1 7 187.7 7.2 187.2 7.2 C 185.8 7.2 185.6 6.1 185.6 4.6 C 185.6 2.2 186.7 2.1 187.2 2.1 C 187.7 2.1 188.1 2.3 188.3 2.8 C 188.34 2.81 188.4 2.8 188.4 2.8 L 188.4 2.2 Z M 192.2 6.3 L 192.2 6.3 L 193.4 2.2 L 194.3 2.2 L 192 9.1 L 191.2 9.1 L 191.8 7.2 L 190 2.2 L 191 2.2 L 192.2 6.3 Z M 195.6 7.2 L 194.7 7.2 L 194.7 6.2 L 195.6 6.2 L 195.6 7.2 Z M 198.9 7.2 C 198.9 7.2 198.91 6.44 198.9 6.4 C 200.9 3.6 201.5 3.1 201.5 1.9 C 201.5 1.3 201.3 1 200.7 1 C 200 1 199.9 1.5 199.9 2.1 C 199.9 2.1 198.9 2.1 198.9 2.1 C 198.8 0.9 199.4 0.2 200.6 0.2 C 201.9 0.2 202.5 0.8 202.5 2 C 202.5 3.6 201.7 4.1 199.9 6.4 C 199.89 6.44 202.6 6.4 202.6 6.4 L 202.6 7.2 L 198.9 7.2 Z M 207 3.8 C 207 5.6 207 7.4 205.1 7.4 C 203.3 7.4 203.3 5.6 203.3 3.8 C 203.3 1.9 203.2 0.2 205.1 0.2 C 207 0.2 207 1.9 207 3.8 Z M 204.2 4 C 204.2 5.2 204.1 6.6 205.1 6.6 C 206.2 6.6 206.1 5.2 206.1 4 C 206.1 2.1 206.1 1 205.1 1 C 204.2 1 204.2 2.1 204.2 4 Z M 207.8 7.2 C 207.8 7.2 207.79 6.44 207.8 6.4 C 209.8 3.6 210.4 3.1 210.4 1.9 C 210.4 1.3 210.1 1 209.6 1 C 208.9 1 208.7 1.5 208.7 2.1 C 208.7 2.1 207.8 2.1 207.8 2.1 C 207.7 0.9 208.3 0.2 209.5 0.2 C 210.7 0.2 211.3 0.8 211.3 2 C 211.3 3.6 210.6 4.1 208.8 6.4 C 208.77 6.44 211.5 6.4 211.5 6.4 L 211.5 7.2 L 207.8 7.2 Z M 214.4 4.8 L 214.4 1.1 L 214.3 1.1 L 212.8 4.8 L 214.4 4.8 Z M 212 5.5 L 212 4.8 L 214 0.3 L 215.2 0.3 L 215.2 4.8 L 216 4.8 L 216 5.5 L 215.2 5.5 L 215.2 7.2 L 214.4 7.2 L 214.4 5.5 L 212 5.5 Z M 217.8 7.2 L 216.9 7.2 L 216.9 6.2 L 217.8 6.2 L 217.8 7.2 Z M 218.7 3.9 C 218.7 3.9 218.71 3.44 218.7 3.4 C 219.9 1.8 220.2 1.5 220.2 0.8 C 220.2 0.5 220.1 0.2 219.7 0.2 C 219.3 0.2 219.3 0.6 219.3 0.9 C 219.3 0.9 218.7 0.9 218.7 0.9 C 218.7 0.2 219 -0.2 219.7 -0.2 C 220.4 -0.2 220.8 0.1 220.8 0.9 C 220.8 1.8 220.3 2.1 219.3 3.4 C 219.28 3.44 220.9 3.4 220.9 3.4 L 220.9 3.9 L 218.7 3.9 Z " stroke="none" fill="#555555"/>  </g></svg>