<?xml version="1.0" standalone="no"?><!DOCTYPE svg PUBLIC "-//W3C//DTD SVG 1.1//EN" "http://www.w3.org/Graphics/SVG/1.1/DTD/svg11.dtd"><svg xmlns="http://www.w3.org/2000/svg" version="1.1" width="910px" height="140px" viewBox="0 -6 910 140" style="top:-6px">  <desc>The safety profile in the Phase 3 OLE was consistent with the Phase 3 pivotal study (median follow up 13.8 months). 1...</desc>  <defs/>  <g id="Polygon200908">    <path d="M 5.2 36 L 3.5 36 L 3.5 25.4 L 1.7 26.6 C 1.7 26.6 1.67 25.03 1.7 25 C 2.1 24.9 3.3 24 3.8 23.5 C 3.78 23.54 5.2 23.5 5.2 23.5 L 5.2 36 Z M 13.1 36 L 11.4 36 L 11.4 25.4 L 9.6 26.6 C 9.6 26.6 9.58 25.03 9.6 25 C 10 24.9 11.2 24 11.7 23.5 C 11.68 23.54 13.1 23.5 13.1 23.5 L 13.1 36 Z M 18.1 27.1 C 18.1 28.4 18.3 29.7 19.8 29.7 C 21.2 29.7 21.5 28.4 21.5 27.1 C 21.5 26 21.2 24.5 19.8 24.5 C 18.4 24.5 18.1 26 18.1 27.1 Z M 23.1 29.8 C 23.1 33.1 23.2 36.3 19.8 36.3 C 17.9 36.3 16.7 35 16.7 33 C 16.7 33 18.4 33 18.4 33 C 18.4 34 18.7 34.9 19.8 34.9 C 21.4 34.9 21.5 33.2 21.5 29.9 C 21.5 29.9 21.5 29.9 21.5 29.9 C 21.1 30.8 20.3 31.1 19.3 31.1 C 18.3 31.1 16.5 30.6 16.5 27.2 C 16.5 24.4 18.1 23.3 19.8 23.3 C 23.2 23.3 23.1 26.5 23.1 29.8 Z M 34 31.3 C 34 30 34 28 32.2 28 C 30.3 28 30.5 30.5 30.5 31.9 C 30.5 33.1 30.6 35 32.2 35 C 33.8 35 34 33.8 34 31.3 Z M 30.5 28 C 30.5 28 30.54 28.02 30.5 28 C 31 27.2 31.7 26.8 32.6 26.8 C 34.1 26.8 35.6 27.3 35.6 31.3 C 35.6 33.6 35.5 36.2 32.6 36.2 C 31.7 36.2 31.1 35.8 30.6 35.1 C 30.56 35.11 30.5 35.1 30.5 35.1 L 30.5 39.5 L 29 39.5 L 29 26.9 L 30.5 26.9 L 30.5 28 Z M 39.2 33.3 C 39.2 34.2 39.6 35 40.6 35 C 41.5 35 42.6 34.4 42.5 31.5 C 41.1 31.5 39.2 31.4 39.2 33.3 Z M 42.5 34.7 C 42.5 34.7 42.46 34.72 42.5 34.7 C 42 35.8 41.3 36.2 40.2 36.2 C 38.2 36.2 37.7 35 37.7 33.2 C 37.7 30.5 40.4 30.3 42.5 30.4 C 42.5 29.2 42.5 27.9 40.9 27.9 C 39.9 27.9 39.4 28.5 39.5 29.5 C 39.5 29.5 37.9 29.5 37.9 29.5 C 38 27.5 39.1 26.8 41 26.8 C 43.3 26.8 43.9 28 43.9 29.5 C 43.9 29.5 43.9 33.9 43.9 33.9 C 43.9 34.6 44 35.3 44.1 36 C 44.12 36.03 42.5 36 42.5 36 L 42.5 34.7 Z M 46.9 26.9 L 46.9 25.2 L 48.4 24.5 L 48.4 26.9 L 50.3 26.9 L 50.3 28.1 L 48.4 28.1 C 48.4 28.1 48.36 33.62 48.4 33.6 C 48.4 34.2 48.4 34.9 49.7 34.9 C 49.8 34.9 50.1 34.9 50.4 34.9 C 50.4 34.9 50.4 36 50.4 36 C 49.9 36 49.4 36.1 48.9 36.1 C 47.5 36.1 46.9 35.6 46.9 34.5 C 46.89 34.52 46.9 28.1 46.9 28.1 L 45.4 28.1 L 45.4 26.9 L 46.9 26.9 Z M 53.1 36 L 51.6 36 L 51.6 26.9 L 53.1 26.9 L 53.1 36 Z M 51.5 23 L 53.2 23 L 53.2 24.6 L 51.5 24.6 L 51.5 23 Z M 60.5 30.8 C 60.5 28.2 59.8 27.9 58.7 27.9 C 57.8 27.9 57 28.3 57 30.8 C 57 30.8 60.5 30.8 60.5 30.8 Z M 57 32 C 57 34.5 57.7 35 58.8 35 C 59.8 35 60.4 34.2 60.4 33.3 C 60.4 33.3 62 33.3 62 33.3 C 62 35.3 60.8 36.2 58.9 36.2 C 56.9 36.2 55.4 35.6 55.4 31.6 C 55.4 29 55.7 26.8 58.9 26.8 C 61.5 26.8 62.1 28.2 62.1 31.2 C 62.1 31.19 62.1 32 62.1 32 C 62.1 32 56.99 31.96 57 32 Z M 69.4 36 C 69.4 36 69.39 29.73 69.4 29.7 C 69.4 28.8 69 28 67.8 28 C 66.2 28 65.9 29.4 65.9 30.6 C 65.93 30.65 65.9 36 65.9 36 L 64.5 36 C 64.5 36 64.46 28.83 64.5 28.8 C 64.5 28.2 64.4 27.6 64.4 26.9 C 64.37 26.94 65.9 26.9 65.9 26.9 L 65.9 28.1 C 65.9 28.1 66 28.11 66 28.1 C 66.6 27.1 67.3 26.8 68.4 26.8 C 70.4 26.8 70.9 27.9 70.9 29.7 C 70.86 29.73 70.9 36 70.9 36 L 69.4 36 Z M 73.5 26.9 L 73.5 25.2 L 75 24.5 L 75 26.9 L 77 26.9 L 77 28.1 L 75 28.1 C 75 28.1 75 33.62 75 33.6 C 75 34.2 75 34.9 76.4 34.9 C 76.5 34.9 76.7 34.9 77 34.9 C 77 34.9 77 36 77 36 C 76.5 36 76 36.1 75.6 36.1 C 74.2 36.1 73.5 35.6 73.5 34.5 C 73.53 34.52 73.5 28.1 73.5 28.1 L 72 28.1 L 72 26.9 L 73.5 26.9 Z M 81 36.2 C 79 36.2 77.8 35.3 77.8 33.3 C 77.8 33.3 79.5 33.3 79.5 33.3 C 79.5 33.8 79.5 35 81 35 C 81.9 35 82.6 34.6 82.6 33.6 C 82.6 32 78 32 78 29.2 C 78 28.3 78.6 26.8 81.2 26.8 C 82.8 26.8 84.2 27.5 84.1 29.3 C 84.1 29.3 82.4 29.3 82.4 29.3 C 82.4 28.4 81.9 27.9 81 27.9 C 80.2 27.9 79.6 28.3 79.6 29.1 C 79.6 30.7 84.1 30.7 84.1 33.4 C 84.1 35.4 82.8 36.2 81 36.2 Z M 91.5 38.2 C 90.7 35.6 89.7 33.1 89.7 30.4 C 89.7 27.6 90.7 25 91.5 22.4 C 91.5 22.4 92.6 22.4 92.6 22.4 C 91.9 25.1 91.4 27.7 91.4 30.5 C 91.4 33.1 91.9 35.6 92.5 38.2 C 92.5 38.2 91.5 38.2 91.5 38.2 Z M 94.3 23.5 L 100.8 23.5 L 100.8 25 L 97.5 36 L 95.6 36 L 99.1 25 L 94.3 25 L 94.3 23.5 Z M 106.4 31.5 L 106.4 25.1 L 106.4 25.1 L 103.7 31.5 L 106.4 31.5 Z M 102.2 33 L 102.2 31.5 L 105.8 23.5 L 108 23.5 L 108 31.5 L 109.4 31.5 L 109.4 33 L 108 33 L 108 36 L 106.4 36 L 106.4 33 L 102.2 33 Z M 115.6 26.2 C 115.6 28 115.5 29.6 113.3 29.6 C 111.2 29.6 111 28 111 26.2 C 111 24.5 111.2 22.8 113.3 22.8 C 115.5 22.8 115.6 24.5 115.6 26.2 Z M 112.3 26.2 C 112.3 27.8 112.3 28.6 113.3 28.6 C 114.4 28.6 114.4 27.8 114.4 26.2 C 114.4 24.6 114.4 23.8 113.3 23.8 C 112.3 23.8 112.3 24.6 112.3 26.2 Z M 122.5 32.9 C 122.5 34.6 122.4 36.3 120.2 36.3 C 118 36.3 117.9 34.6 117.9 32.9 C 117.9 31.2 118 29.4 120.2 29.4 C 122.4 29.4 122.5 31.2 122.5 32.9 Z M 119.2 32.9 C 119.2 34.5 119.2 35.3 120.2 35.3 C 121.2 35.3 121.2 34.5 121.2 32.9 C 121.2 31.2 121.2 30.4 120.2 30.4 C 119.2 30.4 119.2 31.2 119.2 32.9 Z M 114.2 36.7 L 113.1 36.7 L 119.2 22.4 L 120.4 22.4 L 114.2 36.7 Z M 125.1 38.2 C 125.7 35.6 126.2 33.1 126.2 30.5 C 126.2 27.7 125.7 25.1 125 22.4 C 125 22.4 126.1 22.4 126.1 22.4 C 126.9 25 127.9 27.6 127.9 30.4 C 127.9 33.1 126.9 35.6 126.1 38.2 C 126.1 38.2 125.1 38.2 125.1 38.2 Z M 139 36 C 139 36 139.01 29.88 139 29.9 C 139 28.8 138.7 28 137.4 28 C 135.9 28 135.5 29.2 135.5 30.7 C 135.54 30.69 135.5 36 135.5 36 L 134.1 36 L 134.1 23 L 135.5 23 L 135.5 28.1 C 135.5 28.1 135.61 28.11 135.6 28.1 C 136.2 27 136.9 26.8 138.1 26.8 C 139.6 26.8 140.5 27.5 140.5 29.6 C 140.49 29.59 140.5 36 140.5 36 L 139 36 Z M 144.4 33.3 C 144.4 34.2 144.9 35 145.9 35 C 146.8 35 147.9 34.4 147.7 31.5 C 146.3 31.5 144.4 31.4 144.4 33.3 Z M 147.8 34.7 C 147.8 34.7 147.72 34.72 147.7 34.7 C 147.3 35.8 146.6 36.2 145.4 36.2 C 143.5 36.2 143 35 143 33.2 C 143 30.5 145.7 30.3 147.7 30.4 C 147.8 29.2 147.8 27.9 146.2 27.9 C 145.2 27.9 144.7 28.5 144.8 29.5 C 144.8 29.5 143.2 29.5 143.2 29.5 C 143.2 27.5 144.3 26.8 146.2 26.8 C 148.6 26.8 149.2 28 149.2 29.5 C 149.2 29.5 149.2 33.9 149.2 33.9 C 149.2 34.6 149.3 35.3 149.4 36 C 149.38 36.03 147.8 36 147.8 36 L 147.8 34.7 Z M 155.2 28 C 153.6 28 153.4 29.2 153.4 31.7 C 153.4 33 153.4 35 155.2 35 C 156.9 35 156.9 33 156.9 31.1 C 156.9 29.9 156.8 28 155.2 28 Z M 156.9 23 L 158.4 23 L 158.4 36 L 156.9 36 L 156.9 35 C 156.9 35 156.85 34.95 156.8 35 C 156.3 35.8 155.7 36.2 154.8 36.2 C 153.3 36.2 151.8 35.6 151.8 31.6 C 151.8 29.4 151.9 26.8 154.8 26.8 C 155.7 26.8 156.3 27.1 156.8 27.9 C 156.83 27.86 156.9 27.9 156.9 27.9 L 156.9 23 Z M 168.2 23 L 170.3 23 L 174.5 36 L 172.7 36 L 171.7 32.9 L 166.7 32.9 L 165.7 36 L 164 36 L 168.2 23 Z M 169.2 24.6 L 169.1 24.6 L 167.1 31.5 L 171.3 31.5 L 169.2 24.6 Z M 185.2 23 L 185.2 36 L 183 36 L 177.8 24.8 L 177.8 24.8 L 177.8 36 L 176.3 36 L 176.3 23 L 178.7 23 L 183.7 34.2 L 183.8 34.2 L 183.8 23 L 185.2 23 Z M 189.9 34.6 C 189.9 34.6 191.5 34.59 191.5 34.6 C 193.8 34.6 194.6 33.7 194.6 30.7 C 194.6 30.7 194.6 28.1 194.6 28.1 C 194.6 25.4 193.8 24.5 192.1 24.5 C 192.11 24.48 189.9 24.5 189.9 24.5 L 189.9 34.6 Z M 188.3 23 C 188.3 23 192.27 23.04 192.3 23 C 193.9 23 195.1 23.6 195.8 25 C 196.3 26.1 196.3 28.7 196.3 29.1 C 196.3 31.9 196.1 33.5 195.5 34.4 C 194.8 35.5 193.5 36 191.3 36 C 191.26 36.03 188.3 36 188.3 36 L 188.3 23 Z M 199.2 36 L 199.2 23 L 205.9 23 L 205.9 24.5 L 200.9 24.5 L 200.9 28.7 L 205.6 28.7 L 205.6 30.1 L 200.9 30.1 L 200.9 34.6 L 206 34.6 L 206 36 L 199.2 36 Z M 209.8 36 L 208.3 36 L 208.3 23 L 210.9 23 L 214.2 33.9 L 214.3 33.9 L 217.6 23 L 220.3 23 L 220.3 36 L 218.6 36 L 218.6 24.5 L 218.6 24.5 L 215 36 L 213.4 36 L 209.8 24.5 L 209.8 24.5 L 209.8 36 Z M 225.1 34.6 C 225.1 34.6 227.39 34.59 227.4 34.6 C 229.2 34.6 229.8 33.3 229.8 32.4 C 229.8 30.3 228.5 29.9 226.8 29.9 C 226.81 29.95 225.1 29.9 225.1 29.9 L 225.1 34.6 Z M 225.1 28.5 C 225.1 28.5 227.46 28.51 227.5 28.5 C 228.8 28.5 229.4 27.7 229.4 26.4 C 229.4 25.4 228.8 24.5 227.4 24.5 C 227.39 24.48 225.1 24.5 225.1 24.5 L 225.1 28.5 Z M 223.4 36 L 223.4 23 C 223.4 23 227.62 23.04 227.6 23 C 229.4 23 230 23.6 230.5 24.4 C 231 25.1 231 25.8 231 26.1 C 231 27.7 230.5 28.8 228.8 29.2 C 228.8 29.2 228.8 29.3 228.8 29.3 C 230.7 29.5 231.5 30.6 231.5 32.4 C 231.5 35.7 229 36 227.6 36 C 227.57 36.03 223.4 36 223.4 36 Z M 235.9 28.6 C 235.9 28.6 238.33 28.62 238.3 28.6 C 239.5 28.6 240.1 27.6 240.1 26.5 C 240.1 25.5 239.6 24.5 238.4 24.5 C 238.35 24.48 235.9 24.5 235.9 24.5 L 235.9 28.6 Z M 235.9 30.1 L 235.9 36 L 234.2 36 L 234.2 23 C 234.2 23 238.68 23.04 238.7 23 C 241 23 241.8 24.7 241.8 26.3 C 241.8 27.8 240.9 29 239.4 29.2 C 239.4 29.2 239.4 29.3 239.4 29.3 C 240.9 29.5 241.4 30 241.5 32.6 C 241.6 33.2 241.7 35.2 242 36 C 242 36 240.3 36 240.3 36 C 239.8 35.1 239.9 33.4 239.8 31.7 C 239.6 30.1 238.4 30.1 237.8 30.1 C 237.79 30.06 235.9 30.1 235.9 30.1 Z M 249.9 23 L 251.6 23 L 248.1 31.1 L 248.1 36 L 246.4 36 L 246.4 31.1 L 242.9 23 L 244.8 23 L 247.3 29.3 L 249.9 23 Z M 259.9 26.2 C 259.9 28.4 258.2 30.2 256 30.2 C 253.8 30.2 252 28.4 252 26.2 C 252 24.1 253.8 22.3 256 22.3 C 258.2 22.3 259.9 24.1 259.9 26.2 Z M 252.6 26.2 C 252.6 28.1 254.1 29.6 256 29.6 C 257.9 29.6 259.3 28.1 259.3 26.2 C 259.3 24.4 257.9 22.9 256 22.9 C 254.1 22.9 252.6 24.4 252.6 26.2 Z M 255.2 28.5 L 254.5 28.5 L 254.5 24 C 254.5 24 256.31 23.98 256.3 24 C 257.2 24 257.6 24.5 257.6 25.1 C 257.6 25.7 257.2 26.1 256.6 26.2 C 256.6 26.2 256.6 26.2 256.6 26.2 C 257.2 26.2 257.4 26.4 257.4 27.3 C 257.4 27.5 257.5 28.2 257.6 28.5 C 257.6 28.5 256.8 28.5 256.8 28.5 C 256.7 28.2 256.7 27.6 256.7 27 C 256.6 26.5 256.2 26.5 256 26.5 C 255.98 26.5 255.2 26.5 255.2 26.5 L 255.2 28.5 Z M 255.2 25.9 C 255.2 25.9 256.19 25.91 256.2 25.9 C 256.6 25.9 256.8 25.6 256.8 25.2 C 256.8 24.9 256.7 24.5 256.2 24.5 C 256.19 24.49 255.2 24.5 255.2 24.5 L 255.2 25.9 Z M 270.5 30.8 C 270.5 28.2 269.7 27.9 268.6 27.9 C 267.7 27.9 266.9 28.3 266.9 30.8 C 266.9 30.8 270.5 30.8 270.5 30.8 Z M 266.9 32 C 266.9 34.5 267.6 35 268.7 35 C 269.8 35 270.3 34.2 270.3 33.3 C 270.3 33.3 271.9 33.3 271.9 33.3 C 271.9 35.3 270.7 36.2 268.8 36.2 C 266.9 36.2 265.3 35.6 265.3 31.6 C 265.3 29 265.6 26.8 268.8 26.8 C 271.4 26.8 272 28.2 272 31.2 C 272.02 31.19 272 32 272 32 C 272 32 266.91 31.96 266.9 32 Z M 281 36 L 279.1 36 L 277 32.3 L 275 36 L 273.3 36 L 276.1 31.3 L 273.5 26.9 L 275.4 26.9 L 277.1 30.2 L 279 26.9 L 280.7 26.9 L 278 31.3 L 281 36 Z M 287.6 31.3 C 287.6 30 287.6 28 285.7 28 C 283.9 28 284.1 30.5 284.1 31.9 C 284.1 33.1 284.1 35 285.8 35 C 287.4 35 287.6 33.8 287.6 31.3 Z M 284.1 28 C 284.1 28 284.1 28.02 284.1 28 C 284.6 27.2 285.2 26.8 286.2 26.8 C 287.6 26.8 289.1 27.3 289.1 31.3 C 289.1 33.6 289 36.2 286.1 36.2 C 285.2 36.2 284.6 35.8 284.1 35.1 C 284.11 35.11 284.1 35.1 284.1 35.1 L 284.1 39.5 L 282.6 39.5 L 282.6 26.9 L 284.1 26.9 L 284.1 28 Z M 296.6 31 C 296.6 28.5 295.8 28 294.7 28 C 293.5 28 292.8 28.5 292.8 31 C 292.8 33.9 293.1 35 294.7 35 C 296.2 35 296.6 33.9 296.6 31 Z M 291.2 31.6 C 291.2 29 291.5 26.8 294.7 26.8 C 297.8 26.8 298.1 29 298.1 31.6 C 298.1 35.6 296.6 36.2 294.7 36.2 C 292.7 36.2 291.2 35.6 291.2 31.6 Z M 303.1 36.2 C 301.2 36.2 300 35.3 300 33.3 C 300 33.3 301.7 33.3 301.7 33.3 C 301.7 33.8 301.7 35 303.2 35 C 304.1 35 304.8 34.6 304.8 33.6 C 304.8 32 300.2 32 300.2 29.2 C 300.2 28.3 300.8 26.8 303.4 26.8 C 305 26.8 306.4 27.5 306.2 29.3 C 306.2 29.3 304.6 29.3 304.6 29.3 C 304.6 28.4 304.1 27.9 303.2 27.9 C 302.4 27.9 301.8 28.3 301.8 29.1 C 301.8 30.7 306.3 30.7 306.3 33.4 C 306.3 35.4 304.9 36.2 303.1 36.2 Z M 313.3 26.9 L 314.8 26.9 C 314.8 26.9 314.79 34.14 314.8 34.1 C 314.8 34.8 314.8 35.4 314.9 36 C 314.88 36.03 313.3 36 313.3 36 L 313.3 34.9 C 313.3 34.9 313.26 34.93 313.3 34.9 C 312.8 35.8 311.9 36.2 311 36.2 C 309.4 36.2 308.5 35.4 308.5 33.9 C 308.5 33.87 308.5 26.9 308.5 26.9 L 310 26.9 C 310 26.9 309.98 33.24 310 33.2 C 310 34.3 310.5 35.1 311.5 35.1 C 312.3 35.1 313.3 34.5 313.3 33 C 313.31 32.97 313.3 26.9 313.3 26.9 Z M 319 28.3 C 319 28.3 319.02 28.31 319 28.3 C 319.6 26.9 320.4 26.8 321.8 26.8 C 321.8 26.8 321.8 28.3 321.8 28.3 C 321.7 28.3 321.6 28.3 321.4 28.2 C 321.3 28.2 321.2 28.2 321 28.2 C 319.4 28.2 319 29.4 319 30.7 C 318.98 30.67 319 36 319 36 L 317.5 36 L 317.5 26.9 L 319 26.9 L 319 28.3 Z M 328.4 30.8 C 328.4 28.2 327.7 27.9 326.6 27.9 C 325.7 27.9 324.9 28.3 324.9 30.8 C 324.9 30.8 328.4 30.8 328.4 30.8 Z M 324.9 32 C 324.9 34.5 325.6 35 326.7 35 C 327.7 35 328.3 34.2 328.3 33.3 C 328.3 33.3 329.9 33.3 329.9 33.3 C 329.9 35.3 328.7 36.2 326.8 36.2 C 324.8 36.2 323.3 35.6 323.3 31.6 C 323.3 29 323.6 26.8 326.8 26.8 C 329.3 26.8 330 28.2 330 31.2 C 330 31.19 330 32 330 32 C 330 32 324.88 31.96 324.9 32 Z M 341.6 31 C 341.6 28.5 340.8 28 339.6 28 C 338.5 28 337.7 28.5 337.7 31 C 337.7 33.9 338.1 35 339.6 35 C 341.2 35 341.6 33.9 341.6 31 Z M 336.2 31.6 C 336.2 29 336.5 26.8 339.6 26.8 C 342.8 26.8 343.1 29 343.1 31.6 C 343.1 35.6 341.6 36.2 339.6 36.2 C 337.7 36.2 336.2 35.6 336.2 31.6 Z M 345.7 26.9 C 345.7 26.9 345.71 25.18 345.7 25.2 C 345.7 23.3 347 23 348.3 23 C 348.6 23 348.8 23 349 23 C 349 23 349 24.1 349 24.1 C 347.5 24 347.2 24.7 347.2 25.4 C 347.19 25.39 347.2 26.9 347.2 26.9 L 349 26.9 L 349 28.1 L 347.2 28.1 L 347.2 36 L 345.7 36 L 345.7 28.1 L 344.3 28.1 L 344.3 26.9 L 345.7 26.9 Z M 360.7 29.4 L 360.7 30.5 L 354 34.1 L 354 33 L 359.7 30 L 359.7 29.9 L 354 26.9 L 354 25.8 L 360.7 29.4 Z M 353.9 35.8 L 353.9 34.8 L 360.7 34.8 L 360.7 35.8 L 353.9 35.8 Z M 366.7 36 L 365 36 L 365 25.4 L 363.2 26.6 C 363.2 26.6 363.15 25.03 363.2 25 C 363.6 24.9 364.8 24 365.3 23.5 C 365.26 23.54 366.7 23.5 366.7 23.5 L 366.7 36 Z M 370.2 36 C 370.2 36 370.24 34.59 370.2 34.6 C 373.9 29.5 375 28.5 375 26.4 C 375 25.4 374.5 24.7 373.4 24.7 C 372.2 24.7 372 25.8 372 26.8 C 372 26.8 370.3 26.8 370.3 26.8 C 370.1 24.7 371.2 23.3 373.3 23.3 C 375.6 23.3 376.6 24.4 376.6 26.6 C 376.6 29.4 375.2 30.3 372 34.6 C 372.01 34.59 377 34.6 377 34.6 L 377 36 L 370.2 36 Z M 385.5 36 C 385.5 36 385.47 29.73 385.5 29.7 C 385.5 28.8 385.2 28 384 28 C 383.6 28 383 28.2 382.8 28.6 C 382.5 29 382.4 29.6 382.4 29.9 C 382.41 29.91 382.4 36 382.4 36 L 380.9 36 C 380.9 36 380.94 28.83 380.9 28.8 C 380.9 28.2 380.9 27.6 380.8 26.9 C 380.85 26.94 382.4 26.9 382.4 26.9 L 382.4 28.1 C 382.4 28.1 382.45 28.08 382.4 28.1 C 382.9 27.1 383.7 26.8 384.7 26.8 C 385.5 26.8 386.5 27.1 386.8 27.9 C 387.3 27 388.2 26.8 389 26.8 C 390 26.8 391.5 27 391.5 29.1 C 391.48 29.12 391.5 36 391.5 36 L 390 36 C 390 36 390.01 29.73 390 29.7 C 390 28.8 389.8 28 388.6 28 C 388 28 387.8 28 387.5 28.3 C 387 28.7 386.9 29.6 386.9 29.9 C 386.95 29.91 386.9 36 386.9 36 L 385.5 36 Z M 399.1 31 C 399.1 28.5 398.3 28 397.2 28 C 396.1 28 395.3 28.5 395.3 31 C 395.3 33.9 395.7 35 397.2 35 C 398.7 35 399.1 33.9 399.1 31 Z M 393.8 31.6 C 393.8 29 394.1 26.8 397.2 26.8 C 400.4 26.8 400.7 29 400.7 31.6 C 400.7 35.6 399.1 36.2 397.2 36.2 C 395.3 36.2 393.8 35.6 393.8 31.6 Z M 407.9 36 C 407.9 36 407.94 29.73 407.9 29.7 C 407.9 28.8 407.6 28 406.3 28 C 404.7 28 404.5 29.4 404.5 30.6 C 404.48 30.65 404.5 36 404.5 36 L 403 36 C 403 36 403 28.83 403 28.8 C 403 28.2 403 27.6 402.9 26.9 C 402.91 26.94 404.5 26.9 404.5 26.9 L 404.5 28.1 C 404.5 28.1 404.55 28.11 404.6 28.1 C 405.1 27.1 405.8 26.8 407 26.8 C 408.9 26.8 409.4 27.9 409.4 29.7 C 409.41 29.73 409.4 36 409.4 36 L 407.9 36 Z M 412.2 26.9 L 412.2 25.2 L 413.6 24.5 L 413.6 26.9 L 415.6 26.9 L 415.6 28.1 L 413.6 28.1 C 413.6 28.1 413.64 33.62 413.6 33.6 C 413.6 34.2 413.6 34.9 415 34.9 C 415.1 34.9 415.3 34.9 415.7 34.9 C 415.7 34.9 415.7 36 415.7 36 C 415.2 36 414.7 36.1 414.2 36.1 C 412.8 36.1 412.2 35.6 412.2 34.5 C 412.17 34.52 412.2 28.1 412.2 28.1 L 410.7 28.1 L 410.7 26.9 L 412.2 26.9 Z M 421.9 36 C 421.9 36 421.94 29.88 421.9 29.9 C 421.9 28.8 421.6 28 420.3 28 C 418.8 28 418.5 29.2 418.5 30.7 C 418.47 30.69 418.5 36 418.5 36 L 417 36 L 417 23 L 418.5 23 L 418.5 28.1 C 418.5 28.1 418.54 28.11 418.5 28.1 C 419.1 27 419.8 26.8 421 26.8 C 422.6 26.8 423.4 27.5 423.4 29.6 C 423.42 29.59 423.4 36 423.4 36 L 421.9 36 Z M 428.7 36.2 C 426.7 36.2 425.5 35.3 425.6 33.3 C 425.6 33.3 427.2 33.3 427.2 33.3 C 427.2 33.8 427.2 35 428.7 35 C 429.6 35 430.3 34.6 430.3 33.6 C 430.3 32 425.8 32 425.8 29.2 C 425.8 28.3 426.3 26.8 428.9 26.8 C 430.5 26.8 431.9 27.5 431.8 29.3 C 431.8 29.3 430.1 29.3 430.1 29.3 C 430.2 28.4 429.7 27.9 428.7 27.9 C 427.9 27.9 427.3 28.3 427.3 29.1 C 427.3 30.7 431.9 30.7 431.9 33.4 C 431.9 35.4 430.5 36.2 428.7 36.2 Z M 439.3 33.3 C 439.3 34.2 439.8 35 440.8 35 C 441.7 35 442.8 34.4 442.6 31.5 C 441.2 31.5 439.3 31.4 439.3 33.3 Z M 442.7 34.7 C 442.7 34.7 442.64 34.72 442.6 34.7 C 442.2 35.8 441.5 36.2 440.4 36.2 C 438.4 36.2 437.9 35 437.9 33.2 C 437.9 30.5 440.6 30.3 442.6 30.4 C 442.7 29.2 442.7 27.9 441.1 27.9 C 440.1 27.9 439.6 28.5 439.7 29.5 C 439.7 29.5 438.1 29.5 438.1 29.5 C 438.2 27.5 439.2 26.8 441.2 26.8 C 443.5 26.8 444.1 28 444.1 29.5 C 444.1 29.5 444.1 33.9 444.1 33.9 C 444.1 34.6 444.2 35.3 444.3 36 C 444.29 36.03 442.7 36 442.7 36 L 442.7 34.7 Z M 451.9 36 C 451.9 36 451.93 29.73 451.9 29.7 C 451.9 28.8 451.6 28 450.3 28 C 448.7 28 448.5 29.4 448.5 30.6 C 448.47 30.65 448.5 36 448.5 36 L 447 36 C 447 36 446.99 28.83 447 28.8 C 447 28.2 447 27.6 446.9 26.9 C 446.9 26.94 448.5 26.9 448.5 26.9 L 448.5 28.1 C 448.5 28.1 448.54 28.11 448.5 28.1 C 449.1 27.1 449.8 26.8 451 26.8 C 452.9 26.8 453.4 27.9 453.4 29.7 C 453.4 29.73 453.4 36 453.4 36 L 451.9 36 Z M 459.1 28 C 457.5 28 457.3 29.2 457.3 31.7 C 457.3 33 457.3 35 459.1 35 C 460.8 35 460.8 33 460.8 31.1 C 460.8 29.9 460.7 28 459.1 28 Z M 460.8 23 L 462.3 23 L 462.3 36 L 460.8 36 L 460.8 35 C 460.8 35 460.76 34.95 460.8 35 C 460.3 35.8 459.6 36.2 458.7 36.2 C 457.2 36.2 455.7 35.6 455.7 31.6 C 455.7 29.4 455.8 26.8 458.7 26.8 C 459.6 26.8 460.2 27.1 460.7 27.9 C 460.75 27.86 460.8 27.9 460.8 27.9 L 460.8 23 Z M 474.6 23.5 L 474.6 25 L 470.4 25 L 470.4 28.6 C 470.4 28.6 470.45 28.65 470.4 28.7 C 470.7 28.1 471.6 27.7 472.4 27.7 C 474.2 27.7 475 29 475 31.9 C 475 33.9 474.8 36.3 471.7 36.3 C 469.1 36.3 468.6 34.9 468.6 33.2 C 468.6 33.2 470.2 33.2 470.2 33.2 C 470.2 34.2 470.6 35.1 471.7 35.1 C 473.3 35.1 473.4 33.6 473.4 32.3 C 473.4 30.5 473.3 29.1 471.8 29.1 C 470.9 29.1 470.4 29.7 470.3 30.6 C 470.25 30.56 468.8 30.6 468.8 30.6 L 468.8 23.5 L 474.6 23.5 Z M 482.6 23.5 L 482.6 25 L 478.4 25 L 478.4 28.6 C 478.4 28.6 478.44 28.65 478.4 28.7 C 478.7 28.1 479.6 27.7 480.4 27.7 C 482.2 27.7 483 29 483 31.9 C 483 33.9 482.8 36.3 479.6 36.3 C 477.1 36.3 476.6 34.9 476.6 33.2 C 476.6 33.2 478.2 33.2 478.2 33.2 C 478.2 34.2 478.6 35.1 479.7 35.1 C 481.3 35.1 481.4 33.6 481.4 32.3 C 481.4 30.5 481.3 29.1 479.8 29.1 C 478.9 29.1 478.4 29.7 478.2 30.6 C 478.24 30.56 476.7 30.6 476.7 30.6 L 476.7 23.5 L 482.6 23.5 Z M 490.4 38.2 C 489.6 35.6 488.6 33.1 488.6 30.4 C 488.6 27.6 489.6 25 490.4 22.4 C 490.4 22.4 491.5 22.4 491.5 22.4 C 490.8 25.1 490.3 27.7 490.3 30.5 C 490.3 33.1 490.8 35.6 491.4 38.2 C 491.4 38.2 490.4 38.2 490.4 38.2 Z M 495.7 28.8 C 497.2 28.9 498.3 28.3 498.3 26.7 C 498.3 25.6 497.8 24.7 496.5 24.7 C 495.2 24.7 495 25.8 495 26.8 C 495 26.8 493.3 26.8 493.3 26.8 C 493.2 24.6 494.2 23.3 496.5 23.3 C 498.7 23.3 499.9 24.4 499.9 26.6 C 499.9 28.9 498.2 29.3 497.5 29.5 C 497.5 29.5 497.5 29.5 497.5 29.5 C 499.4 29.8 500.1 30.8 500.1 32.7 C 500.1 35.1 498.7 36.3 496.3 36.3 C 492.9 36.3 493.1 33.3 493.1 32.6 C 493.1 32.6 494.8 32.6 494.8 32.6 C 494.8 33.8 495 34.9 496.5 34.9 C 498 34.9 498.4 34 498.4 32.7 C 498.4 30.6 497.6 30.2 495.7 30.2 C 495.7 30.2 495.7 28.8 495.7 28.8 Z M 505.3 31.5 L 505.3 25.1 L 505.3 25.1 L 502.6 31.5 L 505.3 31.5 Z M 501.1 33 L 501.1 31.5 L 504.6 23.5 L 506.8 23.5 L 506.8 31.5 L 508.3 31.5 L 508.3 33 L 506.8 33 L 506.8 36 L 505.3 36 L 505.3 33 L 501.1 33 Z M 514.5 26.2 C 514.5 28 514.4 29.6 512.2 29.6 C 510 29.6 509.9 28 509.9 26.2 C 509.9 24.5 510 22.8 512.2 22.8 C 514.4 22.8 514.5 24.5 514.5 26.2 Z M 511.2 26.2 C 511.2 27.8 511.2 28.6 512.2 28.6 C 513.3 28.6 513.3 27.8 513.3 26.2 C 513.3 24.6 513.3 23.8 512.2 23.8 C 511.2 23.8 511.2 24.6 511.2 26.2 Z M 521.4 32.9 C 521.4 34.6 521.3 36.3 519.1 36.3 C 516.9 36.3 516.8 34.6 516.8 32.9 C 516.8 31.2 516.9 29.4 519.1 29.4 C 521.3 29.4 521.4 31.2 521.4 32.9 Z M 518 32.9 C 518 34.5 518 35.3 519.1 35.3 C 520.1 35.3 520.1 34.5 520.1 32.9 C 520.1 31.2 520.1 30.4 519.1 30.4 C 518 30.4 518 31.2 518 32.9 Z M 513.1 36.7 L 512 36.7 L 518.1 22.4 L 519.3 22.4 L 513.1 36.7 Z M 523.9 38.2 C 524.5 35.6 525.1 33.1 525.1 30.5 C 525.1 27.7 524.5 25.1 523.9 22.4 C 523.9 22.4 525 22.4 525 22.4 C 525.8 25 526.8 27.6 526.8 30.4 C 526.8 33.1 525.8 35.6 525 38.2 C 525 38.2 523.9 38.2 523.9 38.2 Z M 537.9 36 C 537.9 36 537.89 29.88 537.9 29.9 C 537.9 28.8 537.5 28 536.3 28 C 534.8 28 534.4 29.2 534.4 30.7 C 534.42 30.69 534.4 36 534.4 36 L 532.9 36 L 532.9 23 L 534.4 23 L 534.4 28.1 C 534.4 28.1 534.49 28.11 534.5 28.1 C 535.1 27 535.8 26.8 537 26.8 C 538.5 26.8 539.4 27.5 539.4 29.6 C 539.37 29.59 539.4 36 539.4 36 L 537.9 36 Z M 543.3 33.3 C 543.3 34.2 543.7 35 544.7 35 C 545.6 35 546.7 34.4 546.6 31.5 C 545.2 31.5 543.3 31.4 543.3 33.3 Z M 546.6 34.7 C 546.6 34.7 546.6 34.72 546.6 34.7 C 546.2 35.8 545.5 36.2 544.3 36.2 C 542.4 36.2 541.8 35 541.8 33.2 C 541.8 30.5 544.5 30.3 546.6 30.4 C 546.6 29.2 546.7 27.9 545.1 27.9 C 544.1 27.9 543.6 28.5 543.7 29.5 C 543.7 29.5 542.1 29.5 542.1 29.5 C 542.1 27.5 543.2 26.8 545.1 26.8 C 547.5 26.8 548.1 28 548.1 29.5 C 548.1 29.5 548.1 33.9 548.1 33.9 C 548.1 34.6 548.2 35.3 548.3 36 C 548.26 36.03 546.6 36 546.6 36 L 546.6 34.7 Z M 554.1 28 C 552.5 28 552.3 29.2 552.3 31.7 C 552.3 33 552.3 35 554.1 35 C 555.8 35 555.8 33 555.8 31.1 C 555.8 29.9 555.7 28 554.1 28 Z M 555.8 23 L 557.2 23 L 557.2 36 L 555.8 36 L 555.8 35 C 555.8 35 555.73 34.95 555.7 35 C 555.2 35.8 554.6 36.2 553.6 36.2 C 552.2 36.2 550.7 35.6 550.7 31.6 C 550.7 29.4 550.8 26.8 553.7 26.8 C 554.6 26.8 555.2 27.1 555.7 27.9 C 555.71 27.86 555.8 27.9 555.8 27.9 L 555.8 23 Z M 570.2 29.4 L 570.2 30.5 L 563.5 34.1 L 563.5 33 L 569.3 30 L 569.3 29.9 L 563.5 26.9 L 563.5 25.8 L 570.2 29.4 Z M 563.5 35.8 L 563.5 34.8 L 570.2 34.8 L 570.2 35.8 L 563.5 35.8 Z M 576.2 36 L 574.5 36 L 574.5 25.4 L 572.7 26.6 C 572.7 26.6 572.67 25.03 572.7 25 C 573.1 24.9 574.3 24 574.8 23.5 C 574.77 23.54 576.2 23.5 576.2 23.5 L 576.2 36 Z M 585.9 23.5 L 585.9 25 L 581.7 25 L 581.7 28.6 C 581.7 28.6 581.74 28.65 581.7 28.7 C 582 28.1 582.9 27.7 583.7 27.7 C 585.5 27.7 586.3 29 586.3 31.9 C 586.3 33.9 586.1 36.3 582.9 36.3 C 580.4 36.3 579.9 34.9 579.9 33.2 C 579.9 33.2 581.5 33.2 581.5 33.2 C 581.5 34.2 581.9 35.1 583 35.1 C 584.6 35.1 584.7 33.6 584.7 32.3 C 584.7 30.5 584.6 29.1 583.1 29.1 C 582.2 29.1 581.7 29.7 581.5 30.6 C 581.54 30.56 580 30.6 580 30.6 L 580 23.5 L 585.9 23.5 Z M 595 36 C 595 36 594.99 29.73 595 29.7 C 595 28.8 594.7 28 593.5 28 C 593.1 28 592.5 28.2 592.3 28.6 C 592 29 591.9 29.6 591.9 29.9 C 591.93 29.91 591.9 36 591.9 36 L 590.5 36 C 590.5 36 590.45 28.83 590.5 28.8 C 590.5 28.2 590.4 27.6 590.4 26.9 C 590.36 26.94 591.9 26.9 591.9 26.9 L 591.9 28.1 C 591.9 28.1 591.96 28.08 592 28.1 C 592.4 27.1 593.2 26.8 594.2 26.8 C 595.1 26.8 596 27.1 596.4 27.9 C 596.9 27 597.7 26.8 598.5 26.8 C 599.5 26.8 601 27 601 29.1 C 601 29.12 601 36 601 36 L 599.5 36 C 599.5 36 599.52 29.73 599.5 29.7 C 599.5 28.8 599.3 28 598.1 28 C 597.5 28 597.4 28 597 28.3 C 596.5 28.7 596.5 29.6 596.5 29.9 C 596.46 29.91 596.5 36 596.5 36 L 595 36 Z M 608.6 31 C 608.6 28.5 607.9 28 606.7 28 C 605.6 28 604.8 28.5 604.8 31 C 604.8 33.9 605.2 35 606.7 35 C 608.3 35 608.6 33.9 608.6 31 Z M 603.3 31.6 C 603.3 29 603.6 26.8 606.7 26.8 C 609.9 26.8 610.2 29 610.2 31.6 C 610.2 35.6 608.6 36.2 606.7 36.2 C 604.8 36.2 603.3 35.6 603.3 31.6 Z M 617.5 36 C 617.5 36 617.45 29.73 617.5 29.7 C 617.5 28.8 617.1 28 615.8 28 C 614.2 28 614 29.4 614 30.6 C 614 30.65 614 36 614 36 L 612.5 36 C 612.5 36 612.52 28.83 612.5 28.8 C 612.5 28.2 612.5 27.6 612.4 26.9 C 612.43 26.94 614 26.9 614 26.9 L 614 28.1 C 614 28.1 614.07 28.11 614.1 28.1 C 614.6 27.1 615.3 26.8 616.5 26.8 C 618.4 26.8 618.9 27.9 618.9 29.7 C 618.93 29.73 618.9 36 618.9 36 L 617.5 36 Z M 621.7 26.9 L 621.7 25.2 L 623.2 24.5 L 623.2 26.9 L 625.1 26.9 L 625.1 28.1 L 623.2 28.1 C 623.2 28.1 623.16 33.62 623.2 33.6 C 623.2 34.2 623.2 34.9 624.5 34.9 C 624.6 34.9 624.8 34.9 625.2 34.9 C 625.2 34.9 625.2 36 625.2 36 C 624.7 36 624.2 36.1 623.7 36.1 C 622.3 36.1 621.7 35.6 621.7 34.5 C 621.68 34.52 621.7 28.1 621.7 28.1 L 620.2 28.1 L 620.2 26.9 L 621.7 26.9 Z M 631.5 36 C 631.5 36 631.46 29.88 631.5 29.9 C 631.5 28.8 631.1 28 629.8 28 C 628.4 28 628 29.2 628 30.7 C 627.98 30.69 628 36 628 36 L 626.5 36 L 626.5 23 L 628 23 L 628 28.1 C 628 28.1 628.05 28.11 628.1 28.1 C 628.6 27 629.3 26.8 630.5 26.8 C 632.1 26.8 632.9 27.5 632.9 29.6 C 632.93 29.59 632.9 36 632.9 36 L 631.5 36 Z M 638.2 36.2 C 636.2 36.2 635 35.3 635.1 33.3 C 635.1 33.3 636.7 33.3 636.7 33.3 C 636.7 33.8 636.8 35 638.3 35 C 639.1 35 639.8 34.6 639.8 33.6 C 639.8 32 635.3 32 635.3 29.2 C 635.3 28.3 635.9 26.8 638.4 26.8 C 640 26.8 641.4 27.5 641.3 29.3 C 641.3 29.3 639.7 29.3 639.7 29.3 C 639.7 28.4 639.2 27.9 638.2 27.9 C 637.4 27.9 636.8 28.3 636.8 29.1 C 636.8 30.7 641.4 30.7 641.4 33.4 C 641.4 35.4 640 36.2 638.2 36.2 Z M 645.1 36 L 643.4 36 L 643.4 34.2 L 645.1 34.2 L 645.1 36 Z " stroke="none" fill="#555555"/>  </g>  <g id="Polygon200907">    <path d="M 8.7 0 L 8.7 1.5 L 5.3 1.5 L 5.3 13 L 3.7 13 L 3.7 1.5 L 0.3 1.5 L 0.3 0 L 8.7 0 Z M 15.1 13 C 15.1 13 15.14 6.88 15.1 6.9 C 15.1 5.8 14.8 5 13.5 5 C 12 5 11.7 6.2 11.7 7.7 C 11.66 7.69 11.7 13 11.7 13 L 10.2 13 L 10.2 0 L 11.7 0 L 11.7 5.1 C 11.7 5.1 11.74 5.11 11.7 5.1 C 12.3 4 13 3.8 14.2 3.8 C 15.7 3.8 16.6 4.5 16.6 6.6 C 16.61 6.59 16.6 13 16.6 13 L 15.1 13 Z M 24.1 7.8 C 24.1 5.2 23.4 4.9 22.3 4.9 C 21.3 4.9 20.6 5.3 20.6 7.8 C 20.6 7.8 24.1 7.8 24.1 7.8 Z M 20.6 9 C 20.6 11.5 21.2 12 22.4 12 C 23.4 12 23.9 11.2 24 10.3 C 24 10.3 25.6 10.3 25.6 10.3 C 25.6 12.3 24.3 13.2 22.4 13.2 C 20.5 13.2 19 12.6 19 8.6 C 19 6 19.3 3.8 22.4 3.8 C 25 3.8 25.7 5.2 25.7 8.2 C 25.67 8.19 25.7 9 25.7 9 C 25.7 9 20.56 8.96 20.6 9 Z M 34.6 13.2 C 32.7 13.2 31.4 12.3 31.5 10.3 C 31.5 10.3 33.2 10.3 33.2 10.3 C 33.2 10.8 33.2 12 34.7 12 C 35.5 12 36.2 11.6 36.2 10.6 C 36.2 9 31.7 9 31.7 6.2 C 31.7 5.3 32.3 3.8 34.8 3.8 C 36.4 3.8 37.8 4.5 37.7 6.3 C 37.7 6.3 36.1 6.3 36.1 6.3 C 36.1 5.4 35.6 4.9 34.6 4.9 C 33.9 4.9 33.2 5.3 33.2 6.1 C 33.2 7.7 37.8 7.7 37.8 10.4 C 37.8 12.4 36.4 13.2 34.6 13.2 Z M 41.2 10.3 C 41.2 11.2 41.6 12 42.6 12 C 43.5 12 44.6 11.4 44.5 8.5 C 43.1 8.5 41.2 8.4 41.2 10.3 Z M 44.5 11.7 C 44.5 11.7 44.48 11.72 44.5 11.7 C 44 12.8 43.3 13.2 42.2 13.2 C 40.3 13.2 39.7 12 39.7 10.2 C 39.7 7.5 42.4 7.3 44.5 7.4 C 44.5 6.2 44.5 4.9 42.9 4.9 C 42 4.9 41.4 5.5 41.5 6.5 C 41.5 6.5 39.9 6.5 39.9 6.5 C 40 4.5 41.1 3.8 43 3.8 C 45.3 3.8 46 5 46 6.5 C 46 6.5 46 10.9 46 10.9 C 46 11.6 46 12.3 46.1 13 C 46.13 13.03 44.5 13 44.5 13 L 44.5 11.7 Z M 49 3.9 C 49 3.9 49.01 2.18 49 2.2 C 49 0.3 50.3 0 51.6 0 C 51.9 0 52.1 0 52.3 0 C 52.3 0 52.3 1.1 52.3 1.1 C 50.8 1 50.5 1.7 50.5 2.4 C 50.49 2.39 50.5 3.9 50.5 3.9 L 52.3 3.9 L 52.3 5.1 L 50.5 5.1 L 50.5 13 L 49 13 L 49 5.1 L 47.6 5.1 L 47.6 3.9 L 49 3.9 Z M 58.6 7.8 C 58.6 5.2 57.9 4.9 56.8 4.9 C 55.9 4.9 55.1 5.3 55.1 7.8 C 55.1 7.8 58.6 7.8 58.6 7.8 Z M 55.1 9 C 55.1 11.5 55.8 12 56.9 12 C 57.9 12 58.5 11.2 58.5 10.3 C 58.5 10.3 60.1 10.3 60.1 10.3 C 60.1 12.3 58.9 13.2 57 13.2 C 55 13.2 53.5 12.6 53.5 8.6 C 53.5 6 53.8 3.8 57 3.8 C 59.6 3.8 60.2 5.2 60.2 8.2 C 60.21 8.19 60.2 9 60.2 9 C 60.2 9 55.1 8.96 55.1 9 Z M 62.7 3.9 L 62.7 2.2 L 64.2 1.5 L 64.2 3.9 L 66.2 3.9 L 66.2 5.1 L 64.2 5.1 C 64.2 5.1 64.21 10.62 64.2 10.6 C 64.2 11.2 64.2 11.9 65.6 11.9 C 65.7 11.9 65.9 11.9 66.2 11.9 C 66.2 11.9 66.2 13 66.2 13 C 65.7 13 65.2 13.1 64.8 13.1 C 63.4 13.1 62.7 12.6 62.7 11.5 C 62.73 11.52 62.7 5.1 62.7 5.1 L 61.2 5.1 L 61.2 3.9 L 62.7 3.9 Z M 70.2 11.3 L 70.3 11.3 L 72.4 3.9 L 74 3.9 L 69.9 16.5 L 68.4 16.5 L 69.4 13 L 66.3 3.9 L 68 3.9 L 70.2 11.3 Z M 84.4 8.3 C 84.4 7 84.4 5 82.5 5 C 80.7 5 80.9 7.5 80.9 8.9 C 80.9 10.1 81 12 82.6 12 C 84.2 12 84.4 10.8 84.4 8.3 Z M 80.9 5 C 80.9 5 80.93 5.02 80.9 5 C 81.4 4.2 82.1 3.8 83 3.8 C 84.5 3.8 85.9 4.3 85.9 8.3 C 85.9 10.6 85.9 13.2 82.9 13.2 C 82.1 13.2 81.4 12.8 80.9 12.1 C 80.94 12.11 80.9 12.1 80.9 12.1 L 80.9 16.5 L 79.4 16.5 L 79.4 3.9 L 80.9 3.9 L 80.9 5 Z M 89.7 5.3 C 89.7 5.3 89.76 5.31 89.8 5.3 C 90.4 3.9 91.1 3.8 92.6 3.8 C 92.6 3.8 92.6 5.3 92.6 5.3 C 92.4 5.3 92.3 5.3 92.2 5.2 C 92.1 5.2 91.9 5.2 91.8 5.2 C 90.1 5.2 89.7 6.4 89.7 7.7 C 89.73 7.67 89.7 13 89.7 13 L 88.3 13 L 88.3 3.9 L 89.7 3.9 L 89.7 5.3 Z M 99.2 8 C 99.2 5.5 98.4 5 97.3 5 C 96.2 5 95.4 5.5 95.4 8 C 95.4 10.9 95.8 12 97.3 12 C 98.8 12 99.2 10.9 99.2 8 Z M 93.9 8.6 C 93.9 6 94.2 3.8 97.3 3.8 C 100.5 3.8 100.8 6 100.8 8.6 C 100.8 12.6 99.2 13.2 97.3 13.2 C 95.4 13.2 93.9 12.6 93.9 8.6 Z M 103.3 3.9 C 103.3 3.9 103.28 2.18 103.3 2.2 C 103.3 0.3 104.6 0 105.9 0 C 106.2 0 106.4 0 106.6 0 C 106.6 0 106.6 1.1 106.6 1.1 C 105 1 104.8 1.7 104.8 2.4 C 104.76 2.39 104.8 3.9 104.8 3.9 L 106.6 3.9 L 106.6 5.1 L 104.8 5.1 L 104.8 13 L 103.3 13 L 103.3 5.1 L 101.9 5.1 L 101.9 3.9 L 103.3 3.9 Z M 109.4 13 L 107.9 13 L 107.9 3.9 L 109.4 3.9 L 109.4 13 Z M 107.8 0 L 109.5 0 L 109.5 1.6 L 107.8 1.6 L 107.8 0 Z M 113.3 13 L 111.8 13 L 111.8 0 L 113.3 0 L 113.3 13 Z M 120.7 7.8 C 120.7 5.2 120 4.9 118.9 4.9 C 118 4.9 117.2 5.3 117.2 7.8 C 117.2 7.8 120.7 7.8 120.7 7.8 Z M 117.2 9 C 117.2 11.5 117.9 12 119 12 C 120 12 120.5 11.2 120.6 10.3 C 120.6 10.3 122.2 10.3 122.2 10.3 C 122.2 12.3 121 13.2 119.1 13.2 C 117.1 13.2 115.6 12.6 115.6 8.6 C 115.6 6 115.9 3.8 119.1 3.8 C 121.6 3.8 122.3 5.2 122.3 8.2 C 122.29 8.19 122.3 9 122.3 9 C 122.3 9 117.18 8.96 117.2 9 Z M 130 13 L 128.5 13 L 128.5 3.9 L 130 3.9 L 130 13 Z M 128.4 0 L 130.1 0 L 130.1 1.6 L 128.4 1.6 L 128.4 0 Z M 137.4 13 C 137.4 13 137.39 6.73 137.4 6.7 C 137.4 5.8 137 5 135.8 5 C 134.2 5 133.9 6.4 133.9 7.6 C 133.94 7.65 133.9 13 133.9 13 L 132.5 13 C 132.5 13 132.46 5.83 132.5 5.8 C 132.5 5.2 132.4 4.6 132.4 3.9 C 132.37 3.94 133.9 3.9 133.9 3.9 L 133.9 5.1 C 133.9 5.1 134.01 5.11 134 5.1 C 134.6 4.1 135.3 3.8 136.4 3.8 C 138.4 3.8 138.9 4.9 138.9 6.7 C 138.87 6.73 138.9 13 138.9 13 L 137.4 13 Z M 145.4 3.9 L 145.4 2.2 L 146.9 1.5 L 146.9 3.9 L 148.9 3.9 L 148.9 5.1 L 146.9 5.1 C 146.9 5.1 146.91 10.62 146.9 10.6 C 146.9 11.2 146.9 11.9 148.3 11.9 C 148.4 11.9 148.6 11.9 148.9 11.9 C 148.9 11.9 148.9 13 148.9 13 C 148.4 13 148 13.1 147.5 13.1 C 146.1 13.1 145.4 12.6 145.4 11.5 C 145.44 11.52 145.4 5.1 145.4 5.1 L 143.9 5.1 L 143.9 3.9 L 145.4 3.9 Z M 155.1 13 C 155.1 13 155.12 6.88 155.1 6.9 C 155.1 5.8 154.8 5 153.5 5 C 152 5 151.6 6.2 151.6 7.7 C 151.65 7.69 151.6 13 151.6 13 L 150.2 13 L 150.2 0 L 151.6 0 L 151.6 5.1 C 151.6 5.1 151.72 5.11 151.7 5.1 C 152.3 4 153 3.8 154.2 3.8 C 155.7 3.8 156.6 4.5 156.6 6.6 C 156.6 6.59 156.6 13 156.6 13 L 155.1 13 Z M 164.1 7.8 C 164.1 5.2 163.3 4.9 162.3 4.9 C 161.3 4.9 160.6 5.3 160.5 7.8 C 160.5 7.8 164.1 7.8 164.1 7.8 Z M 160.5 9 C 160.5 11.5 161.2 12 162.4 12 C 163.4 12 163.9 11.2 164 10.3 C 164 10.3 165.6 10.3 165.6 10.3 C 165.6 12.3 164.3 13.2 162.4 13.2 C 160.5 13.2 159 12.6 159 8.6 C 159 6 159.3 3.8 162.4 3.8 C 165 3.8 165.7 5.2 165.7 8.2 C 165.65 8.19 165.7 9 165.7 9 C 165.7 9 160.54 8.96 160.5 9 Z M 173.9 5.9 C 173.9 5.9 175.77 5.87 175.8 5.9 C 176.5 5.9 178.1 5.7 178.1 3.7 C 178.1 1.7 176.6 1.5 176.2 1.5 C 176.24 1.48 173.9 1.5 173.9 1.5 L 173.9 5.9 Z M 172.3 13 L 172.3 0 C 172.3 0 176.15 0.04 176.1 0 C 177.9 0 179.8 0.7 179.8 3.7 C 179.8 6.7 177.5 7.3 176.1 7.3 C 176.13 7.31 173.9 7.3 173.9 7.3 L 173.9 13 L 172.3 13 Z M 186.8 13 C 186.8 13 186.77 6.88 186.8 6.9 C 186.8 5.8 186.4 5 185.1 5 C 183.7 5 183.3 6.2 183.3 7.7 C 183.29 7.69 183.3 13 183.3 13 L 181.8 13 L 181.8 0 L 183.3 0 L 183.3 5.1 C 183.3 5.1 183.36 5.11 183.4 5.1 C 184 4 184.6 3.8 185.8 3.8 C 187.4 3.8 188.2 4.5 188.2 6.6 C 188.24 6.59 188.2 13 188.2 13 L 186.8 13 Z M 192.1 10.3 C 192.1 11.2 192.5 12 193.5 12 C 194.4 12 195.5 11.4 195.4 8.5 C 194 8.5 192.1 8.4 192.1 10.3 Z M 195.4 11.7 C 195.4 11.7 195.39 11.72 195.4 11.7 C 194.9 12.8 194.2 13.2 193.1 13.2 C 191.2 13.2 190.6 12 190.6 10.2 C 190.6 7.5 193.3 7.3 195.4 7.4 C 195.4 6.2 195.4 4.9 193.9 4.9 C 192.9 4.9 192.3 5.5 192.4 6.5 C 192.4 6.5 190.8 6.5 190.8 6.5 C 190.9 4.5 192 3.8 193.9 3.8 C 196.3 3.8 196.9 5 196.9 6.5 C 196.9 6.5 196.9 10.9 196.9 10.9 C 196.9 11.6 196.9 12.3 197 13 C 197.04 13.03 195.4 13 195.4 13 L 195.4 11.7 Z M 202.3 13.2 C 200.4 13.2 199.1 12.3 199.2 10.3 C 199.2 10.3 200.9 10.3 200.9 10.3 C 200.9 10.8 200.9 12 202.4 12 C 203.3 12 204 11.6 204 10.6 C 204 9 199.4 9 199.4 6.2 C 199.4 5.3 200 3.8 202.6 3.8 C 204.2 3.8 205.6 4.5 205.4 6.3 C 205.4 6.3 203.8 6.3 203.8 6.3 C 203.8 5.4 203.3 4.9 202.4 4.9 C 201.6 4.9 201 5.3 201 6.1 C 201 7.7 205.5 7.7 205.5 10.4 C 205.5 12.4 204.1 13.2 202.3 13.2 Z M 212.5 7.8 C 212.5 5.2 211.8 4.9 210.7 4.9 C 209.8 4.9 209 5.3 209 7.8 C 209 7.8 212.5 7.8 212.5 7.8 Z M 209 9 C 209 11.5 209.7 12 210.8 12 C 211.8 12 212.4 11.2 212.4 10.3 C 212.4 10.3 214 10.3 214 10.3 C 214 12.3 212.8 13.2 210.9 13.2 C 208.9 13.2 207.4 12.6 207.4 8.6 C 207.4 6 207.7 3.8 210.9 3.8 C 213.5 3.8 214.1 5.2 214.1 8.2 C 214.11 8.19 214.1 9 214.1 9 C 214.1 9 208.99 8.96 209 9 Z M 222.1 5.8 C 223.6 5.9 224.7 5.3 224.7 3.7 C 224.7 2.6 224.2 1.7 222.9 1.7 C 221.6 1.7 221.4 2.8 221.4 3.8 C 221.4 3.8 219.7 3.8 219.7 3.8 C 219.6 1.6 220.6 0.3 222.9 0.3 C 225.1 0.3 226.3 1.4 226.3 3.6 C 226.3 5.9 224.6 6.3 223.9 6.5 C 223.9 6.5 223.9 6.5 223.9 6.5 C 225.8 6.8 226.5 7.8 226.5 9.7 C 226.5 12.1 225.1 13.3 222.7 13.3 C 219.3 13.3 219.5 10.3 219.5 9.6 C 219.5 9.6 221.2 9.6 221.2 9.6 C 221.2 10.8 221.4 11.9 222.9 11.9 C 224.3 11.9 224.8 11 224.8 9.7 C 224.8 7.6 224 7.2 222.1 7.2 C 222.1 7.2 222.1 5.8 222.1 5.8 Z M 232.3 8.3 C 232.3 8.3 232.3 4 232.3 4 C 232.3 1.4 233.6 -0.2 236.4 -0.2 C 239.1 -0.2 240.5 1.4 240.5 4 C 240.5 4 240.5 8.3 240.5 8.3 C 240.5 11.9 239.1 13.3 236.4 13.3 C 233.6 13.3 232.3 11.9 232.3 8.3 Z M 238.8 8.4 C 238.8 8.4 238.8 4 238.8 4 C 238.8 1.2 236.9 1.2 236.4 1.2 C 235.9 1.2 234 1.2 234 4 C 234 4 234 8.4 234 8.4 C 234 11.2 234.8 11.9 236.4 11.9 C 237.9 11.9 238.8 11.2 238.8 8.4 Z M 243.2 13 L 243.2 0 L 244.9 0 L 244.9 11.6 L 249.7 11.6 L 249.7 13 L 243.2 13 Z M 251.1 13 L 251.1 0 L 257.8 0 L 257.8 1.5 L 252.8 1.5 L 252.8 5.7 L 257.5 5.7 L 257.5 7.1 L 252.8 7.1 L 252.8 11.6 L 258 11.6 L 258 13 L 251.1 13 Z M 262.7 3.9 L 264.3 3.9 L 265.9 11.8 L 266 11.8 L 268 3.9 L 270.1 3.9 L 271.9 11.8 L 272 11.8 L 273.8 3.9 L 275.3 3.9 L 272.9 13 L 270.9 13 L 269 5.3 L 269 5.3 L 266.9 13 L 264.9 13 L 262.7 3.9 Z M 278.1 10.3 C 278.1 11.2 278.5 12 279.5 12 C 280.4 12 281.5 11.4 281.4 8.5 C 279.9 8.5 278.1 8.4 278.1 10.3 Z M 281.4 11.7 C 281.4 11.7 281.35 11.72 281.4 11.7 C 280.9 12.8 280.2 13.2 279.1 13.2 C 277.1 13.2 276.6 12 276.6 10.2 C 276.6 7.5 279.3 7.3 281.4 7.4 C 281.4 6.2 281.4 4.9 279.8 4.9 C 278.8 4.9 278.3 5.5 278.4 6.5 C 278.4 6.5 276.8 6.5 276.8 6.5 C 276.9 4.5 278 3.8 279.9 3.8 C 282.2 3.8 282.8 5 282.8 6.5 C 282.8 6.5 282.8 10.9 282.8 10.9 C 282.8 11.6 282.9 12.3 283 13 C 283.01 13.03 281.4 13 281.4 13 L 281.4 11.7 Z M 288.3 13.2 C 286.3 13.2 285.1 12.3 285.2 10.3 C 285.2 10.3 286.8 10.3 286.8 10.3 C 286.8 10.8 286.9 12 288.4 12 C 289.2 12 289.9 11.6 289.9 10.6 C 289.9 9 285.4 9 285.4 6.2 C 285.4 5.3 286 3.8 288.5 3.8 C 290.1 3.8 291.5 4.5 291.4 6.3 C 291.4 6.3 289.8 6.3 289.8 6.3 C 289.8 5.4 289.3 4.9 288.3 4.9 C 287.5 4.9 286.9 5.3 286.9 6.1 C 286.9 7.7 291.5 7.7 291.5 10.4 C 291.5 12.4 290.1 13.2 288.3 13.2 Z M 302.2 6.9 C 302.2 5.4 301.5 5 300.9 5 C 299.8 5 299 5.5 299 8 C 299 10.9 299.4 12 300.9 12 C 301.3 12 302.3 11.6 302.2 10 C 302.2 10 303.8 10 303.8 10 C 303.8 12.6 301.9 13.2 300.9 13.2 C 299 13.2 297.5 12.6 297.5 8.6 C 297.5 6 297.8 3.8 300.9 3.8 C 302.7 3.8 303.8 4.8 303.7 6.9 C 303.7 6.9 302.2 6.9 302.2 6.9 Z M 311.4 8 C 311.4 5.5 310.7 5 309.5 5 C 308.4 5 307.6 5.5 307.6 8 C 307.6 10.9 308 12 309.5 12 C 311.1 12 311.4 10.9 311.4 8 Z M 306.1 8.6 C 306.1 6 306.4 3.8 309.5 3.8 C 312.7 3.8 313 6 313 8.6 C 313 12.6 311.5 13.2 309.5 13.2 C 307.6 13.2 306.1 12.6 306.1 8.6 Z M 320.2 13 C 320.2 13 320.18 6.73 320.2 6.7 C 320.2 5.8 319.8 5 318.6 5 C 317 5 316.7 6.4 316.7 7.6 C 316.72 7.65 316.7 13 316.7 13 L 315.2 13 C 315.2 13 315.25 5.83 315.2 5.8 C 315.2 5.2 315.2 4.6 315.2 3.9 C 315.16 3.94 316.7 3.9 316.7 3.9 L 316.7 5.1 C 316.7 5.1 316.79 5.11 316.8 5.1 C 317.4 4.1 318.1 3.8 319.2 3.8 C 321.2 3.8 321.7 4.9 321.7 6.7 C 321.65 6.73 321.7 13 321.7 13 L 320.2 13 Z M 326.8 13.2 C 324.9 13.2 323.7 12.3 323.7 10.3 C 323.7 10.3 325.4 10.3 325.4 10.3 C 325.4 10.8 325.4 12 326.9 12 C 327.8 12 328.5 11.6 328.5 10.6 C 328.5 9 323.9 9 323.9 6.2 C 323.9 5.3 324.5 3.8 327.1 3.8 C 328.7 3.8 330.1 4.5 329.9 6.3 C 329.9 6.3 328.3 6.3 328.3 6.3 C 328.3 5.4 327.8 4.9 326.9 4.9 C 326.1 4.9 325.5 5.3 325.5 6.1 C 325.5 7.7 330 7.7 330 10.4 C 330 12.4 328.6 13.2 326.8 13.2 Z M 333.5 13 L 332 13 L 332 3.9 L 333.5 3.9 L 333.5 13 Z M 331.9 0 L 333.6 0 L 333.6 1.6 L 331.9 1.6 L 331.9 0 Z M 338.6 13.2 C 336.7 13.2 335.5 12.3 335.5 10.3 C 335.5 10.3 337.2 10.3 337.2 10.3 C 337.2 10.8 337.2 12 338.7 12 C 339.6 12 340.3 11.6 340.3 10.6 C 340.3 9 335.7 9 335.7 6.2 C 335.7 5.3 336.3 3.8 338.9 3.8 C 340.5 3.8 341.9 4.5 341.7 6.3 C 341.7 6.3 340.1 6.3 340.1 6.3 C 340.1 5.4 339.6 4.9 338.7 4.9 C 337.9 4.9 337.3 5.3 337.3 6.1 C 337.3 7.7 341.8 7.7 341.8 10.4 C 341.8 12.4 340.4 13.2 338.6 13.2 Z M 344 3.9 L 344 2.2 L 345.5 1.5 L 345.5 3.9 L 347.5 3.9 L 347.5 5.1 L 345.5 5.1 C 345.5 5.1 345.5 10.62 345.5 10.6 C 345.5 11.2 345.5 11.9 346.9 11.9 C 347 11.9 347.2 11.9 347.5 11.9 C 347.5 11.9 347.5 13 347.5 13 C 347 13 346.5 13.1 346.1 13.1 C 344.7 13.1 344 12.6 344 11.5 C 344.03 11.52 344 5.1 344 5.1 L 342.5 5.1 L 342.5 3.9 L 344 3.9 Z M 353.8 7.8 C 353.8 5.2 353 4.9 351.9 4.9 C 351 4.9 350.2 5.3 350.2 7.8 C 350.2 7.8 353.8 7.8 353.8 7.8 Z M 350.2 9 C 350.2 11.5 350.9 12 352.1 12 C 353.1 12 353.6 11.2 353.6 10.3 C 353.6 10.3 355.3 10.3 355.3 10.3 C 355.2 12.3 354 13.2 352.1 13.2 C 350.2 13.2 348.6 12.6 348.6 8.6 C 348.6 6 348.9 3.8 352.1 3.8 C 354.7 3.8 355.3 5.2 355.3 8.2 C 355.33 8.19 355.3 9 355.3 9 C 355.3 9 350.22 8.96 350.2 9 Z M 362.6 13 C 362.6 13 362.62 6.73 362.6 6.7 C 362.6 5.8 362.3 5 361 5 C 359.4 5 359.2 6.4 359.2 7.6 C 359.17 7.65 359.2 13 359.2 13 L 357.7 13 C 357.7 13 357.69 5.83 357.7 5.8 C 357.7 5.2 357.7 4.6 357.6 3.9 C 357.6 3.94 359.2 3.9 359.2 3.9 L 359.2 5.1 C 359.2 5.1 359.24 5.11 359.2 5.1 C 359.8 4.1 360.5 3.8 361.7 3.8 C 363.6 3.8 364.1 4.9 364.1 6.7 C 364.1 6.73 364.1 13 364.1 13 L 362.6 13 Z M 366.8 3.9 L 366.8 2.2 L 368.2 1.5 L 368.2 3.9 L 370.2 3.9 L 370.2 5.1 L 368.2 5.1 C 368.2 5.1 368.24 10.62 368.2 10.6 C 368.2 11.2 368.2 11.9 369.6 11.9 C 369.7 11.9 369.9 11.9 370.3 11.9 C 370.3 11.9 370.3 13 370.3 13 C 369.8 13 369.3 13.1 368.8 13.1 C 367.4 13.1 366.8 12.6 366.8 11.5 C 366.76 11.52 366.8 5.1 366.8 5.1 L 365.3 5.1 L 365.3 3.9 L 366.8 3.9 Z M 374.3 3.9 L 375.9 3.9 L 377.6 11.8 L 377.6 11.8 L 379.6 3.9 L 381.7 3.9 L 383.6 11.8 L 383.6 11.8 L 385.4 3.9 L 387 3.9 L 384.5 13 L 382.5 13 L 380.6 5.3 L 380.6 5.3 L 378.5 13 L 376.6 13 L 374.3 3.9 Z M 389.8 13 L 388.3 13 L 388.3 3.9 L 389.8 3.9 L 389.8 13 Z M 388.2 0 L 389.9 0 L 389.9 1.6 L 388.2 1.6 L 388.2 0 Z M 392.4 3.9 L 392.4 2.2 L 393.9 1.5 L 393.9 3.9 L 395.8 3.9 L 395.8 5.1 L 393.9 5.1 C 393.9 5.1 393.87 10.62 393.9 10.6 C 393.9 11.2 393.9 11.9 395.2 11.9 C 395.3 11.9 395.6 11.9 395.9 11.9 C 395.9 11.9 395.9 13 395.9 13 C 395.4 13 394.9 13.1 394.4 13.1 C 393 13.1 392.4 12.6 392.4 11.5 C 392.39 11.52 392.4 5.1 392.4 5.1 L 390.9 5.1 L 390.9 3.9 L 392.4 3.9 Z M 402.1 13 C 402.1 13 402.08 6.88 402.1 6.9 C 402.1 5.8 401.7 5 400.5 5 C 399 5 398.6 6.2 398.6 7.7 C 398.6 7.69 398.6 13 398.6 13 L 397.1 13 L 397.1 0 L 398.6 0 L 398.6 5.1 C 398.6 5.1 398.67 5.11 398.7 5.1 C 399.3 4 400 3.8 401.1 3.8 C 402.7 3.8 403.6 4.5 403.6 6.6 C 403.55 6.59 403.6 13 403.6 13 L 402.1 13 Z M 410.1 3.9 L 410.1 2.2 L 411.6 1.5 L 411.6 3.9 L 413.6 3.9 L 413.6 5.1 L 411.6 5.1 C 411.6 5.1 411.6 10.62 411.6 10.6 C 411.6 11.2 411.6 11.9 412.9 11.9 C 413.1 11.9 413.3 11.9 413.6 11.9 C 413.6 11.9 413.6 13 413.6 13 C 413.1 13 412.6 13.1 412.2 13.1 C 410.8 13.1 410.1 12.6 410.1 11.5 C 410.12 11.52 410.1 5.1 410.1 5.1 L 408.6 5.1 L 408.6 3.9 L 410.1 3.9 Z M 419.8 13 C 419.8 13 419.81 6.88 419.8 6.9 C 419.8 5.8 419.4 5 418.2 5 C 416.7 5 416.3 6.2 416.3 7.7 C 416.33 7.69 416.3 13 416.3 13 L 414.9 13 L 414.9 0 L 416.3 0 L 416.3 5.1 C 416.3 5.1 416.4 5.11 416.4 5.1 C 417 4 417.7 3.8 418.9 3.8 C 420.4 3.8 421.3 4.5 421.3 6.6 C 421.28 6.59 421.3 13 421.3 13 L 419.8 13 Z M 428.8 7.8 C 428.8 5.2 428 4.9 427 4.9 C 426 4.9 425.2 5.3 425.2 7.8 C 425.2 7.8 428.8 7.8 428.8 7.8 Z M 425.2 9 C 425.2 11.5 425.9 12 427.1 12 C 428.1 12 428.6 11.2 428.6 10.3 C 428.6 10.3 430.3 10.3 430.3 10.3 C 430.2 12.3 429 13.2 427.1 13.2 C 425.2 13.2 423.6 12.6 423.6 8.6 C 423.6 6 423.9 3.8 427.1 3.8 C 429.7 3.8 430.3 5.2 430.3 8.2 C 430.34 8.19 430.3 9 430.3 9 C 430.3 9 425.22 8.96 425.2 9 Z M 438.6 5.9 C 438.6 5.9 440.45 5.87 440.5 5.9 C 441.1 5.9 442.8 5.7 442.8 3.7 C 442.8 1.7 441.3 1.5 440.9 1.5 C 440.92 1.48 438.6 1.5 438.6 1.5 L 438.6 5.9 Z M 437 13 L 437 0 C 437 0 440.83 0.04 440.8 0 C 442.6 0 444.4 0.7 444.4 3.7 C 444.4 6.7 442.1 7.3 440.8 7.3 C 440.81 7.31 438.6 7.3 438.6 7.3 L 438.6 13 L 437 13 Z M 451.5 13 C 451.5 13 451.45 6.88 451.5 6.9 C 451.5 5.8 451.1 5 449.8 5 C 448.4 5 448 6.2 448 7.7 C 447.98 7.69 448 13 448 13 L 446.5 13 L 446.5 0 L 448 0 L 448 5.1 C 448 5.1 448.05 5.11 448 5.1 C 448.6 4 449.3 3.8 450.5 3.8 C 452.1 3.8 452.9 4.5 452.9 6.6 C 452.93 6.59 452.9 13 452.9 13 L 451.5 13 Z M 456.8 10.3 C 456.8 11.2 457.2 12 458.2 12 C 459.1 12 460.2 11.4 460.1 8.5 C 458.7 8.5 456.8 8.4 456.8 10.3 Z M 460.1 11.7 C 460.1 11.7 460.07 11.72 460.1 11.7 C 459.6 12.8 458.9 13.2 457.8 13.2 C 455.9 13.2 455.3 12 455.3 10.2 C 455.3 7.5 458 7.3 460.1 7.4 C 460.1 6.2 460.1 4.9 458.5 4.9 C 457.6 4.9 457 5.5 457.1 6.5 C 457.1 6.5 455.5 6.5 455.5 6.5 C 455.6 4.5 456.7 3.8 458.6 3.8 C 460.9 3.8 461.5 5 461.5 6.5 C 461.5 6.5 461.5 10.9 461.5 10.9 C 461.5 11.6 461.6 12.3 461.7 13 C 461.73 13.03 460.1 13 460.1 13 L 460.1 11.7 Z M 467 13.2 C 465.1 13.2 463.8 12.3 463.9 10.3 C 463.9 10.3 465.6 10.3 465.6 10.3 C 465.6 10.8 465.6 12 467.1 12 C 468 12 468.6 11.6 468.6 10.6 C 468.6 9 464.1 9 464.1 6.2 C 464.1 5.3 464.7 3.8 467.2 3.8 C 468.9 3.8 470.2 4.5 470.1 6.3 C 470.1 6.3 468.5 6.3 468.5 6.3 C 468.5 5.4 468 4.9 467.1 4.9 C 466.3 4.9 465.7 5.3 465.7 6.1 C 465.7 7.7 470.2 7.7 470.2 10.4 C 470.2 12.4 468.8 13.2 467 13.2 Z M 477.2 7.8 C 477.2 5.2 476.5 4.9 475.4 4.9 C 474.5 4.9 473.7 5.3 473.7 7.8 C 473.7 7.8 477.2 7.8 477.2 7.8 Z M 473.7 9 C 473.7 11.5 474.4 12 475.5 12 C 476.5 12 477 11.2 477.1 10.3 C 477.1 10.3 478.7 10.3 478.7 10.3 C 478.7 12.3 477.5 13.2 475.6 13.2 C 473.6 13.2 472.1 12.6 472.1 8.6 C 472.1 6 472.4 3.8 475.6 3.8 C 478.1 3.8 478.8 5.2 478.8 8.2 C 478.79 8.19 478.8 9 478.8 9 C 478.8 9 473.68 8.96 473.7 9 Z M 486.8 5.8 C 488.3 5.9 489.4 5.3 489.4 3.7 C 489.4 2.6 488.9 1.7 487.6 1.7 C 486.3 1.7 486 2.8 486.1 3.8 C 486.1 3.8 484.4 3.8 484.4 3.8 C 484.3 1.6 485.3 0.3 487.6 0.3 C 489.8 0.3 491 1.4 491 3.6 C 491 5.9 489.3 6.3 488.5 6.5 C 488.5 6.5 488.5 6.5 488.5 6.5 C 490.5 6.8 491.1 7.8 491.1 9.7 C 491.1 12.1 489.8 13.3 487.4 13.3 C 483.9 13.3 484.2 10.3 484.2 9.6 C 484.2 9.6 485.9 9.6 485.9 9.6 C 485.9 10.8 486.1 11.9 487.6 11.9 C 489 11.9 489.5 11 489.5 9.7 C 489.5 7.6 488.7 7.2 486.8 7.2 C 486.8 7.2 486.8 5.8 486.8 5.8 Z M 502 8.3 C 502 7 502 5 500.1 5 C 498.3 5 498.5 7.5 498.5 8.9 C 498.5 10.1 498.5 12 500.2 12 C 501.8 12 502 10.8 502 8.3 Z M 498.5 5 C 498.5 5 498.5 5.02 498.5 5 C 499 4.2 499.6 3.8 500.6 3.8 C 502 3.8 503.5 4.3 503.5 8.3 C 503.5 10.6 503.5 13.2 500.5 13.2 C 499.7 13.2 499 12.8 498.5 12.1 C 498.52 12.11 498.5 12.1 498.5 12.1 L 498.5 16.5 L 497 16.5 L 497 3.9 L 498.5 3.9 L 498.5 5 Z M 507.2 13 L 505.7 13 L 505.7 3.9 L 507.2 3.9 L 507.2 13 Z M 505.6 0 L 507.3 0 L 507.3 1.6 L 505.6 1.6 L 505.6 0 Z M 508.6 3.9 L 510.3 3.9 L 512.3 11.6 L 512.4 11.6 L 514.6 3.9 L 516.1 3.9 L 513.3 13 L 511.3 13 L 508.6 3.9 Z M 522.7 8 C 522.7 5.5 521.9 5 520.8 5 C 519.7 5 518.9 5.5 518.9 8 C 518.9 10.9 519.3 12 520.8 12 C 522.3 12 522.7 10.9 522.7 8 Z M 517.3 8.6 C 517.3 6 517.6 3.8 520.8 3.8 C 523.9 3.8 524.2 6 524.2 8.6 C 524.2 12.6 522.7 13.2 520.8 13.2 C 518.9 13.2 517.3 12.6 517.3 8.6 Z M 526.7 3.9 L 526.7 2.2 L 528.1 1.5 L 528.1 3.9 L 530.1 3.9 L 530.1 5.1 L 528.1 5.1 C 528.1 5.1 528.13 10.62 528.1 10.6 C 528.1 11.2 528.1 11.9 529.5 11.9 C 529.6 11.9 529.8 11.9 530.1 11.9 C 530.1 11.9 530.1 13 530.1 13 C 529.7 13 529.2 13.1 528.7 13.1 C 527.3 13.1 526.7 12.6 526.7 11.5 C 526.65 11.52 526.7 5.1 526.7 5.1 L 525.2 5.1 L 525.2 3.9 L 526.7 3.9 Z M 532.8 10.3 C 532.8 11.2 533.2 12 534.2 12 C 535.1 12 536.2 11.4 536 8.5 C 534.6 8.5 532.8 8.4 532.8 10.3 Z M 536.1 11.7 C 536.1 11.7 536.05 11.72 536 11.7 C 535.6 12.8 534.9 13.2 533.8 13.2 C 531.8 13.2 531.3 12 531.3 10.2 C 531.3 7.5 534 7.3 536 7.4 C 536.1 6.2 536.1 4.9 534.5 4.9 C 533.5 4.9 533 5.5 533.1 6.5 C 533.1 6.5 531.5 6.5 531.5 6.5 C 531.6 4.5 532.6 3.8 534.6 3.8 C 536.9 3.8 537.5 5 537.5 6.5 C 537.5 6.5 537.5 10.9 537.5 10.9 C 537.5 11.6 537.6 12.3 537.7 13 C 537.7 13.03 536.1 13 536.1 13 L 536.1 11.7 Z M 541.8 13 L 540.3 13 L 540.3 0 L 541.8 0 L 541.8 13 Z M 550.8 13.2 C 548.8 13.2 547.6 12.3 547.7 10.3 C 547.7 10.3 549.4 10.3 549.4 10.3 C 549.4 10.8 549.4 12 550.9 12 C 551.7 12 552.4 11.6 552.4 10.6 C 552.4 9 547.9 9 547.9 6.2 C 547.9 5.3 548.5 3.8 551 3.8 C 552.6 3.8 554 4.5 553.9 6.3 C 553.9 6.3 552.3 6.3 552.3 6.3 C 552.3 5.4 551.8 4.9 550.8 4.9 C 550.1 4.9 549.4 5.3 549.4 6.1 C 549.4 7.7 554 7.7 554 10.4 C 554 12.4 552.6 13.2 550.8 13.2 Z M 556.2 3.9 L 556.2 2.2 L 557.7 1.5 L 557.7 3.9 L 559.6 3.9 L 559.6 5.1 L 557.7 5.1 C 557.7 5.1 557.67 10.62 557.7 10.6 C 557.7 11.2 557.7 11.9 559 11.9 C 559.1 11.9 559.4 11.9 559.7 11.9 C 559.7 11.9 559.7 13 559.7 13 C 559.2 13 558.7 13.1 558.2 13.1 C 556.8 13.1 556.2 12.6 556.2 11.5 C 556.19 11.52 556.2 5.1 556.2 5.1 L 554.7 5.1 L 554.7 3.9 L 556.2 3.9 Z M 565.8 3.9 L 567.3 3.9 C 567.3 3.9 567.28 11.14 567.3 11.1 C 567.3 11.8 567.3 12.4 567.4 13 C 567.37 13.03 565.8 13 565.8 13 L 565.8 11.9 C 565.8 11.9 565.75 11.93 565.7 11.9 C 565.3 12.8 564.4 13.2 563.4 13.2 C 561.9 13.2 561 12.4 561 10.9 C 561 10.87 561 3.9 561 3.9 L 562.5 3.9 C 562.5 3.9 562.47 10.24 562.5 10.2 C 562.5 11.3 563 12.1 564 12.1 C 564.8 12.1 565.8 11.5 565.8 10 C 565.8 9.97 565.8 3.9 565.8 3.9 Z M 572.9 5 C 571.4 5 571.1 6.2 571.1 8.7 C 571.1 10 571.1 12 573 12 C 574.7 12 574.7 10 574.7 8.1 C 574.7 6.9 574.6 5 572.9 5 Z M 574.7 0 L 576.1 0 L 576.1 13 L 574.7 13 L 574.7 12 C 574.7 12 574.62 11.95 574.6 12 C 574.1 12.8 573.5 13.2 572.5 13.2 C 571.1 13.2 569.6 12.6 569.6 8.6 C 569.6 6.4 569.7 3.8 572.6 3.8 C 573.5 3.8 574.1 4.1 574.6 4.9 C 574.6 4.86 574.7 4.9 574.7 4.9 L 574.7 0 Z M 581.5 11.3 L 581.5 11.3 L 583.7 3.9 L 585.3 3.9 L 581.2 16.5 L 579.7 16.5 L 580.7 13 L 577.6 3.9 L 579.3 3.9 L 581.5 11.3 Z M 592 15.2 C 591.2 12.6 590.2 10.1 590.2 7.4 C 590.2 4.6 591.2 2 592 -0.6 C 592 -0.6 593.1 -0.6 593.1 -0.6 C 592.4 2.1 591.9 4.7 591.9 7.5 C 591.9 10.1 592.4 12.6 593 15.2 C 593 15.2 592 15.2 592 15.2 Z M 599.9 13 C 599.9 13 599.95 6.73 599.9 6.7 C 599.9 5.8 599.7 5 598.5 5 C 598.1 5 597.4 5.2 597.2 5.6 C 597 6 596.9 6.6 596.9 6.9 C 596.89 6.91 596.9 13 596.9 13 L 595.4 13 C 595.4 13 595.41 5.83 595.4 5.8 C 595.4 5.2 595.4 4.6 595.3 3.9 C 595.32 3.94 596.9 3.9 596.9 3.9 L 596.9 5.1 C 596.9 5.1 596.92 5.08 596.9 5.1 C 597.4 4.1 598.1 3.8 599.2 3.8 C 600 3.8 601 4.1 601.3 4.9 C 601.8 4 602.6 3.8 603.5 3.8 C 604.4 3.8 606 4 606 6.1 C 605.96 6.12 606 13 606 13 L 604.5 13 C 604.5 13 604.48 6.73 604.5 6.7 C 604.5 5.8 604.2 5 603 5 C 602.5 5 602.3 5 601.9 5.3 C 601.5 5.7 601.4 6.6 601.4 6.9 C 601.42 6.91 601.4 13 601.4 13 L 599.9 13 Z M 613.4 7.8 C 613.4 5.2 612.6 4.9 611.6 4.9 C 610.6 4.9 609.8 5.3 609.8 7.8 C 609.8 7.8 613.4 7.8 613.4 7.8 Z M 609.8 9 C 609.8 11.5 610.5 12 611.7 12 C 612.7 12 613.2 11.2 613.2 10.3 C 613.2 10.3 614.9 10.3 614.9 10.3 C 614.9 12.3 613.6 13.2 611.7 13.2 C 609.8 13.2 608.2 12.6 608.2 8.6 C 608.2 6 608.6 3.8 611.7 3.8 C 614.3 3.8 614.9 5.2 614.9 8.2 C 614.94 8.19 614.9 9 614.9 9 C 614.9 9 609.83 8.96 609.8 9 Z M 620.4 5 C 618.8 5 618.6 6.2 618.6 8.7 C 618.6 10 618.6 12 620.4 12 C 622.1 12 622.1 10 622.1 8.1 C 622.1 6.9 622 5 620.4 5 Z M 622.1 0 L 623.6 0 L 623.6 13 L 622.1 13 L 622.1 12 C 622.1 12 622.07 11.95 622.1 12 C 621.6 12.8 620.9 13.2 620 13.2 C 618.5 13.2 617 12.6 617 8.6 C 617 6.4 617.1 3.8 620.1 3.8 C 620.9 3.8 621.5 4.1 622.1 4.9 C 622.05 4.86 622.1 4.9 622.1 4.9 L 622.1 0 Z M 627.6 13 L 626.2 13 L 626.2 3.9 L 627.6 3.9 L 627.6 13 Z M 626.1 0 L 627.7 0 L 627.7 1.6 L 626.1 1.6 L 626.1 0 Z M 631.5 10.3 C 631.5 11.2 631.9 12 632.9 12 C 633.8 12 634.9 11.4 634.8 8.5 C 633.4 8.5 631.5 8.4 631.5 10.3 Z M 634.8 11.7 C 634.8 11.7 634.76 11.72 634.8 11.7 C 634.3 12.8 633.6 13.2 632.5 13.2 C 630.5 13.2 630 12 630 10.2 C 630 7.5 632.7 7.3 634.8 7.4 C 634.8 6.2 634.8 4.9 633.2 4.9 C 632.2 4.9 631.7 5.5 631.8 6.5 C 631.8 6.5 630.2 6.5 630.2 6.5 C 630.3 4.5 631.4 3.8 633.3 3.8 C 635.6 3.8 636.2 5 636.2 6.5 C 636.2 6.5 636.2 10.9 636.2 10.9 C 636.2 11.6 636.3 12.3 636.4 13 C 636.41 13.03 634.8 13 634.8 13 L 634.8 11.7 Z M 644 13 C 644 13 643.96 6.73 644 6.7 C 644 5.8 643.6 5 642.4 5 C 640.7 5 640.5 6.4 640.5 7.6 C 640.5 7.65 640.5 13 640.5 13 L 639 13 C 639 13 639.02 5.83 639 5.8 C 639 5.2 639 4.6 638.9 3.9 C 638.93 3.94 640.5 3.9 640.5 3.9 L 640.5 5.1 C 640.5 5.1 640.57 5.11 640.6 5.1 C 641.1 4.1 641.8 3.8 643 3.8 C 644.9 3.8 645.4 4.9 645.4 6.7 C 645.43 6.73 645.4 13 645.4 13 L 644 13 Z M 652.1 3.9 C 652.1 3.9 652.11 2.18 652.1 2.2 C 652.1 0.3 653.4 0 654.7 0 C 655 0 655.2 0 655.4 0 C 655.4 0 655.4 1.1 655.4 1.1 C 653.9 1 653.6 1.7 653.6 2.4 C 653.59 2.39 653.6 3.9 653.6 3.9 L 655.4 3.9 L 655.4 5.1 L 653.6 5.1 L 653.6 13 L 652.1 13 L 652.1 5.1 L 650.7 5.1 L 650.7 3.9 L 652.1 3.9 Z M 661.9 8 C 661.9 5.5 661.1 5 660 5 C 658.8 5 658.1 5.5 658.1 8 C 658.1 10.9 658.4 12 660 12 C 661.5 12 661.9 10.9 661.9 8 Z M 656.5 8.6 C 656.5 6 656.8 3.8 660 3.8 C 663.1 3.8 663.4 6 663.4 8.6 C 663.4 12.6 661.9 13.2 660 13.2 C 658 13.2 656.5 12.6 656.5 8.6 Z M 667.1 13 L 665.6 13 L 665.6 0 L 667.1 0 L 667.1 13 Z M 671 13 L 669.5 13 L 669.5 0 L 671 0 L 671 13 Z M 678.6 8 C 678.6 5.5 677.8 5 676.7 5 C 675.5 5 674.8 5.5 674.8 8 C 674.8 10.9 675.1 12 676.7 12 C 678.2 12 678.6 10.9 678.6 8 Z M 673.2 8.6 C 673.2 6 673.5 3.8 676.7 3.8 C 679.8 3.8 680.1 6 680.1 8.6 C 680.1 12.6 678.6 13.2 676.7 13.2 C 674.8 13.2 673.2 12.6 673.2 8.6 Z M 681.3 3.9 L 682.9 3.9 L 684.5 11.8 L 684.6 11.8 L 686.6 3.9 L 688.7 3.9 L 690.5 11.8 L 690.6 11.8 L 692.4 3.9 L 693.9 3.9 L 691.5 13 L 689.5 13 L 687.6 5.3 L 687.5 5.3 L 685.5 13 L 683.5 13 L 681.3 3.9 Z M 695 7.4 L 699 7.4 L 699 8.8 L 695 8.8 L 695 7.4 Z M 706.1 3.9 L 707.5 3.9 C 707.5 3.9 707.53 11.14 707.5 11.1 C 707.5 11.8 707.6 12.4 707.6 13 C 707.62 13.03 706.1 13 706.1 13 L 706.1 11.9 C 706.1 11.9 706 11.93 706 11.9 C 705.5 12.8 704.7 13.2 703.7 13.2 C 702.1 13.2 701.2 12.4 701.2 10.9 C 701.25 10.87 701.2 3.9 701.2 3.9 L 702.7 3.9 C 702.7 3.9 702.73 10.24 702.7 10.2 C 702.7 11.3 703.2 12.1 704.3 12.1 C 705.1 12.1 706.1 11.5 706.1 10 C 706.06 9.97 706.1 3.9 706.1 3.9 Z M 715.2 8.3 C 715.2 7 715.2 5 713.4 5 C 711.5 5 711.7 7.5 711.7 8.9 C 711.7 10.1 711.8 12 713.4 12 C 715 12 715.2 10.8 715.2 8.3 Z M 711.7 5 C 711.7 5 711.74 5.02 711.7 5 C 712.2 4.2 712.9 3.8 713.8 3.8 C 715.3 3.8 716.8 4.3 716.8 8.3 C 716.8 10.6 716.7 13.2 713.8 13.2 C 712.9 13.2 712.3 12.8 711.8 12.1 C 711.76 12.11 711.7 12.1 711.7 12.1 L 711.7 16.5 L 710.2 16.5 L 710.2 3.9 L 711.7 3.9 L 711.7 5 Z M 726.8 13 L 725.2 13 L 725.2 2.4 L 723.3 3.6 C 723.3 3.6 723.3 2.03 723.3 2 C 723.7 1.9 724.9 1 725.4 0.5 C 725.41 0.54 726.8 0.5 726.8 0.5 L 726.8 13 Z M 732.6 5.8 C 734.1 5.9 735.1 5.3 735.1 3.7 C 735.1 2.6 734.6 1.7 733.4 1.7 C 732 1.7 731.8 2.8 731.8 3.8 C 731.8 3.8 730.2 3.8 730.2 3.8 C 730 1.6 731.1 0.3 733.4 0.3 C 735.5 0.3 736.8 1.4 736.8 3.6 C 736.8 5.9 735 6.3 734.3 6.5 C 734.3 6.5 734.3 6.5 734.3 6.5 C 736.3 6.8 736.9 7.8 736.9 9.7 C 736.9 12.1 735.6 13.3 733.2 13.3 C 729.7 13.3 730 10.3 730 9.6 C 730 9.6 731.6 9.6 731.6 9.6 C 731.7 10.8 731.8 11.9 733.3 11.9 C 734.8 11.9 735.3 11 735.3 9.7 C 735.3 7.6 734.5 7.2 732.6 7.2 C 732.6 7.2 732.6 5.8 732.6 5.8 Z M 740.3 13 L 738.6 13 L 738.6 11.2 L 740.3 11.2 L 740.3 13 Z M 747 9.7 C 747 8.6 746.9 7.1 745.3 7.1 C 743.8 7.1 743.7 8.6 743.7 9.7 C 743.7 10.8 744.1 11.9 745.3 11.9 C 746.6 11.9 747 10.8 747 9.7 Z M 746.4 6.4 C 748.2 6.6 748.7 8 748.7 9.7 C 748.7 11.9 747.5 13.3 745.3 13.3 C 743.2 13.3 742 11.9 742 9.7 C 742 8 742.5 6.6 744.3 6.4 C 744.3 6.4 744.3 6.4 744.3 6.4 C 742.8 6.1 742.1 4.9 742.1 3.5 C 742.1 1.5 743.4 0.3 745.3 0.3 C 747.3 0.3 748.5 1.5 748.5 3.5 C 748.5 4.9 747.8 6.1 746.4 6.4 C 746.4 6.4 746.4 6.4 746.4 6.4 Z M 746.9 3.4 C 746.9 2.5 746.4 1.5 745.3 1.5 C 744.3 1.5 743.8 2.5 743.8 3.4 C 743.8 4.3 744.1 5.7 745.3 5.7 C 746.6 5.7 746.9 4.3 746.9 3.4 Z M 758.9 13 C 758.9 13 758.9 6.73 758.9 6.7 C 758.9 5.8 758.6 5 757.5 5 C 757 5 756.4 5.2 756.2 5.6 C 755.9 6 755.8 6.6 755.8 6.9 C 755.84 6.91 755.8 13 755.8 13 L 754.4 13 C 754.4 13 754.37 5.83 754.4 5.8 C 754.4 5.2 754.3 4.6 754.3 3.9 C 754.28 3.94 755.8 3.9 755.8 3.9 L 755.8 5.1 C 755.8 5.1 755.88 5.08 755.9 5.1 C 756.3 4.1 757.1 3.8 758.1 3.8 C 759 3.8 759.9 4.1 760.3 4.9 C 760.8 4 761.6 3.8 762.4 3.8 C 763.4 3.8 764.9 4 764.9 6.1 C 764.91 6.12 764.9 13 764.9 13 L 763.4 13 C 763.4 13 763.44 6.73 763.4 6.7 C 763.4 5.8 763.2 5 762 5 C 761.4 5 761.3 5 760.9 5.3 C 760.4 5.7 760.4 6.6 760.4 6.9 C 760.38 6.91 760.4 13 760.4 13 L 758.9 13 Z M 772.5 8 C 772.5 5.5 771.7 5 770.5 5 C 769.4 5 768.6 5.5 768.6 8 C 768.6 10.9 769 12 770.5 12 C 772.1 12 772.5 10.9 772.5 8 Z M 767.1 8.6 C 767.1 6 767.4 3.8 770.5 3.8 C 773.7 3.8 774 6 774 8.6 C 774 12.6 772.5 13.2 770.5 13.2 C 768.6 13.2 767.1 12.6 767.1 8.6 Z M 781.2 13 C 781.2 13 781.19 6.73 781.2 6.7 C 781.2 5.8 780.8 5 779.6 5 C 778 5 777.7 6.4 777.7 7.6 C 777.73 7.65 777.7 13 777.7 13 L 776.3 13 C 776.3 13 776.25 5.83 776.3 5.8 C 776.3 5.2 776.2 4.6 776.2 3.9 C 776.16 3.94 777.7 3.9 777.7 3.9 L 777.7 5.1 C 777.7 5.1 777.8 5.11 777.8 5.1 C 778.4 4.1 779.1 3.8 780.2 3.8 C 782.2 3.8 782.7 4.9 782.7 6.7 C 782.66 6.73 782.7 13 782.7 13 L 781.2 13 Z M 785.3 3.9 L 785.3 2.2 L 786.8 1.5 L 786.8 3.9 L 788.8 3.9 L 788.8 5.1 L 786.8 5.1 C 786.8 5.1 786.8 10.62 786.8 10.6 C 786.8 11.2 786.8 11.9 788.2 11.9 C 788.3 11.9 788.5 11.9 788.8 11.9 C 788.8 11.9 788.8 13 788.8 13 C 788.3 13 787.8 13.1 787.4 13.1 C 786 13.1 785.3 12.6 785.3 11.5 C 785.33 11.52 785.3 5.1 785.3 5.1 L 783.8 5.1 L 783.8 3.9 L 785.3 3.9 Z M 795 13 C 795 13 795.01 6.88 795 6.9 C 795 5.8 794.6 5 793.4 5 C 791.9 5 791.5 6.2 791.5 7.7 C 791.54 7.69 791.5 13 791.5 13 L 790.1 13 L 790.1 0 L 791.5 0 L 791.5 5.1 C 791.5 5.1 791.61 5.11 791.6 5.1 C 792.2 4 792.9 3.8 794.1 3.8 C 795.6 3.8 796.5 4.5 796.5 6.6 C 796.49 6.59 796.5 13 796.5 13 L 795 13 Z M 801.7 13.2 C 799.7 13.2 798.5 12.3 798.5 10.3 C 798.5 10.3 800.2 10.3 800.2 10.3 C 800.2 10.8 800.2 12 801.7 12 C 802.6 12 803.3 11.6 803.3 10.6 C 803.3 9 798.8 9 798.8 6.2 C 798.8 5.3 799.3 3.8 801.9 3.8 C 803.5 3.8 804.9 4.5 804.8 6.3 C 804.8 6.3 803.1 6.3 803.1 6.3 C 803.1 5.4 802.6 4.9 801.7 4.9 C 800.9 4.9 800.3 5.3 800.3 6.1 C 800.3 7.7 804.8 7.7 804.8 10.4 C 804.8 12.4 803.5 13.2 801.7 13.2 Z M 806.9 15.2 C 807.5 12.6 808 10.1 808 7.5 C 808 4.7 807.5 2.1 806.8 -0.6 C 806.8 -0.6 807.9 -0.6 807.9 -0.6 C 808.7 2 809.7 4.6 809.7 7.4 C 809.7 10.1 808.7 12.6 807.9 15.2 C 807.9 15.2 806.9 15.2 806.9 15.2 Z M 813.4 13 L 811.7 13 L 811.7 11.2 L 813.4 11.2 L 813.4 13 Z " stroke="none" fill="#555555"/>  </g></svg>