<?xml version="1.0" standalone="no"?><!DOCTYPE svg PUBLIC "-//W3C//DTD SVG 1.1//EN" "http://www.w3.org/Graphics/SVG/1.1/DTD/svg11.dtd"><svg xmlns="http://www.w3.org/2000/svg" version="1.1" width="454px" height="112px" viewBox="0 0 454 112">  <desc>Reference: 1. Craig J, et al. Efficacy and safety of garadacimab, a factor XIIa inhibitor for hereditary angioedema p...</desc>  <defs/>  <g id="Polygon195214">    <path d="M 45.7 77.1 C 45.7 76.3 45.7 75.1 44.6 75.1 C 43.4 75.1 43.5 76.6 43.5 77.5 C 43.5 78.2 43.6 79.4 44.6 79.4 C 45.6 79.4 45.7 78.6 45.7 77.1 Z M 43.5 75.1 C 43.5 75.1 43.56 75.1 43.6 75.1 C 43.9 74.6 44.3 74.3 44.8 74.3 C 45.7 74.3 46.6 74.7 46.6 77.1 C 46.6 78.5 46.6 80.1 44.8 80.1 C 44.3 80.1 43.9 79.9 43.6 79.4 C 43.57 79.43 43.5 79.4 43.5 79.4 L 43.5 82.1 L 42.6 82.1 L 42.6 74.4 L 43.5 74.4 L 43.5 75.1 Z M 48.9 80 L 48 80 L 48 72.1 L 48.9 72.1 L 48.9 80 Z M 51.3 78.3 C 51.3 78.9 51.6 79.4 52.2 79.4 C 52.7 79.4 53.4 79 53.3 77.2 C 52.5 77.2 51.3 77.2 51.3 78.3 Z M 53.4 79.2 C 53.4 79.2 53.34 79.19 53.3 79.2 C 53.1 79.8 52.6 80.1 51.9 80.1 C 50.8 80.1 50.4 79.3 50.4 78.3 C 50.4 76.6 52.1 76.5 53.3 76.6 C 53.4 75.8 53.4 75 52.4 75 C 51.8 75 51.5 75.4 51.5 76 C 51.5 76 50.6 76 50.6 76 C 50.6 74.8 51.3 74.3 52.4 74.3 C 53.9 74.3 54.2 75.1 54.2 76 C 54.2 76 54.2 78.7 54.2 78.7 C 54.2 79.1 54.3 79.6 54.4 80 C 54.35 79.99 53.4 80 53.4 80 L 53.4 79.2 Z M 58.9 76.2 C 58.9 75.3 58.5 75.1 58.1 75.1 C 57.4 75.1 57 75.4 57 76.9 C 57 78.7 57.2 79.4 58.1 79.4 C 58.3 79.4 59 79.1 58.9 78.1 C 58.9 78.1 59.9 78.1 59.9 78.1 C 59.9 79.7 58.8 80.1 58.1 80.1 C 57 80.1 56 79.8 56 77.3 C 56 75.7 56.2 74.3 58.1 74.3 C 59.2 74.3 59.9 75 59.8 76.2 C 59.8 76.2 58.9 76.2 58.9 76.2 Z M 64.5 76.8 C 64.5 75.2 64.1 75 63.4 75 C 62.9 75 62.4 75.3 62.4 76.8 C 62.4 76.8 64.5 76.8 64.5 76.8 Z M 62.4 77.5 C 62.4 79.1 62.8 79.4 63.5 79.4 C 64.1 79.4 64.4 78.9 64.5 78.3 C 64.5 78.3 65.5 78.3 65.5 78.3 C 65.4 79.5 64.7 80.1 63.5 80.1 C 62.3 80.1 61.4 79.8 61.4 77.3 C 61.4 75.7 61.6 74.3 63.5 74.3 C 65.1 74.3 65.5 75.2 65.5 77 C 65.5 77.03 65.5 77.5 65.5 77.5 C 65.5 77.5 62.38 77.51 62.4 77.5 Z M 69 79.4 C 70.1 79.4 70.1 78.2 70.1 77.3 C 70.1 75.8 70 75.1 69 75.1 C 68 75.1 68 76.3 68 77 C 68 77.8 67.9 79.4 69 79.4 Z M 68 80 L 67.1 80 L 67.1 72.1 L 68 72.1 L 68 75 C 68 75 68.01 75 68 75 C 68.3 74.6 68.7 74.3 69.2 74.3 C 71 74.3 71.1 75.9 71.1 77.3 C 71.1 79.8 70.2 80.1 69.3 80.1 C 68.7 80.1 68.3 79.8 68 79.3 C 68 79.33 68 79.3 68 79.3 L 68 80 Z M 75.6 76.9 C 75.6 75.4 75.2 75.1 74.5 75.1 C 73.8 75.1 73.3 75.4 73.3 76.9 C 73.3 78.7 73.5 79.4 74.5 79.4 C 75.4 79.4 75.6 78.7 75.6 76.9 Z M 72.3 77.3 C 72.3 75.7 72.5 74.3 74.5 74.3 C 76.4 74.3 76.6 75.7 76.6 77.3 C 76.6 79.8 75.6 80.1 74.5 80.1 C 73.3 80.1 72.3 79.8 72.3 77.3 Z M 77.8 76.6 L 80.2 76.6 L 80.2 77.4 L 77.8 77.4 L 77.8 76.6 Z M 84.6 76.2 C 84.6 75.3 84.1 75.1 83.8 75.1 C 83.1 75.1 82.6 75.4 82.6 76.9 C 82.6 78.7 82.9 79.4 83.8 79.4 C 84 79.4 84.6 79.1 84.6 78.1 C 84.6 78.1 85.5 78.1 85.5 78.1 C 85.6 79.7 84.4 80.1 83.8 80.1 C 82.6 80.1 81.7 79.8 81.7 77.3 C 81.7 75.7 81.9 74.3 83.8 74.3 C 84.9 74.3 85.6 75 85.5 76.2 C 85.5 76.2 84.6 76.2 84.6 76.2 Z M 90.3 76.9 C 90.3 75.4 89.8 75.1 89.1 75.1 C 88.4 75.1 88 75.4 88 76.9 C 88 78.7 88.2 79.4 89.1 79.4 C 90.1 79.4 90.3 78.7 90.3 76.9 Z M 87 77.3 C 87 75.7 87.2 74.3 89.1 74.3 C 91 74.3 91.2 75.7 91.2 77.3 C 91.2 79.8 90.3 80.1 89.1 80.1 C 87.9 80.1 87 79.8 87 77.3 Z M 95.7 80 C 95.7 80 95.68 76.14 95.7 76.1 C 95.7 75.5 95.5 75.1 94.7 75.1 C 93.7 75.1 93.6 75.9 93.6 76.7 C 93.57 76.7 93.6 80 93.6 80 L 92.7 80 C 92.7 80 92.66 75.59 92.7 75.6 C 92.7 75.2 92.6 74.8 92.6 74.4 C 92.61 74.44 93.6 74.4 93.6 74.4 L 93.6 75.2 C 93.6 75.2 93.61 75.15 93.6 75.2 C 94 74.5 94.4 74.3 95.1 74.3 C 96.3 74.3 96.6 75 96.6 76.1 C 96.58 76.14 96.6 80 96.6 80 L 95.7 80 Z M 98.3 74.4 L 98.3 73.4 L 99.2 73 L 99.2 74.4 L 100.4 74.4 L 100.4 75.1 L 99.2 75.1 C 99.2 75.1 99.16 78.52 99.2 78.5 C 99.2 78.9 99.2 79.3 100 79.3 C 100.1 79.3 100.2 79.3 100.4 79.3 C 100.4 79.3 100.4 80 100.4 80 C 100.1 80 99.8 80.1 99.5 80.1 C 98.6 80.1 98.3 79.7 98.3 79.1 C 98.26 79.07 98.3 75.1 98.3 75.1 L 97.4 75.1 L 97.4 74.4 L 98.3 74.4 Z M 102.2 75.3 C 102.2 75.3 102.18 75.27 102.2 75.3 C 102.6 74.4 103 74.3 103.9 74.3 C 103.9 74.3 103.9 75.3 103.9 75.3 C 103.8 75.3 103.7 75.2 103.7 75.2 C 103.6 75.2 103.5 75.2 103.4 75.2 C 102.4 75.2 102.2 76 102.2 76.7 C 102.16 76.71 102.2 80 102.2 80 L 101.3 80 L 101.3 74.4 L 102.2 74.4 L 102.2 75.3 Z M 108 76.9 C 108 75.4 107.5 75.1 106.8 75.1 C 106.1 75.1 105.7 75.4 105.7 76.9 C 105.7 78.7 105.9 79.4 106.8 79.4 C 107.8 79.4 108 78.7 108 76.9 Z M 104.7 77.3 C 104.7 75.7 104.9 74.3 106.8 74.3 C 108.8 74.3 109 75.7 109 77.3 C 109 79.8 108 80.1 106.8 80.1 C 105.7 80.1 104.7 79.8 104.7 77.3 Z M 111.3 80 L 110.4 80 L 110.4 72.1 L 111.3 72.1 L 111.3 80 Z M 113.7 80 L 112.8 80 L 112.8 72.1 L 113.7 72.1 L 113.7 80 Z M 118.3 76.8 C 118.3 75.2 117.9 75 117.2 75 C 116.6 75 116.2 75.3 116.1 76.8 C 116.1 76.8 118.3 76.8 118.3 76.8 Z M 116.1 77.5 C 116.1 79.1 116.6 79.4 117.3 79.4 C 117.9 79.4 118.2 78.9 118.2 78.3 C 118.2 78.3 119.2 78.3 119.2 78.3 C 119.2 79.5 118.5 80.1 117.3 80.1 C 116.1 80.1 115.2 79.8 115.2 77.3 C 115.2 75.7 115.4 74.3 117.3 74.3 C 118.9 74.3 119.3 75.2 119.3 77 C 119.27 77.03 119.3 77.5 119.3 77.5 C 119.3 77.5 116.15 77.51 116.1 77.5 Z M 122.7 75.1 C 121.7 75.1 121.6 75.8 121.6 77.3 C 121.6 78.2 121.6 79.4 122.7 79.4 C 123.7 79.4 123.7 78.1 123.7 77 C 123.7 76.3 123.7 75.1 122.7 75.1 Z M 123.7 72.1 L 124.6 72.1 L 124.6 80 L 123.7 80 L 123.7 79.3 C 123.7 79.3 123.68 79.33 123.7 79.3 C 123.4 79.8 123 80.1 122.4 80.1 C 121.5 80.1 120.6 79.8 120.6 77.3 C 120.6 75.9 120.7 74.3 122.5 74.3 C 123 74.3 123.4 74.6 123.7 75 C 123.67 75 123.7 75 123.7 75 L 123.7 72.1 Z M 126.4 78.8 L 127.6 78.8 L 126.6 81.4 L 125.9 81.4 L 126.4 78.8 Z M 134.3 77.1 C 134.3 76.3 134.3 75.1 133.1 75.1 C 132 75.1 132.1 76.6 132.1 77.5 C 132.1 78.2 132.2 79.4 133.2 79.4 C 134.1 79.4 134.3 78.6 134.3 77.1 Z M 132.1 75.1 C 132.1 75.1 132.15 75.1 132.2 75.1 C 132.5 74.6 132.8 74.3 133.4 74.3 C 134.3 74.3 135.2 74.7 135.2 77.1 C 135.2 78.5 135.2 80.1 133.4 80.1 C 132.9 80.1 132.5 79.9 132.2 79.4 C 132.16 79.43 132.1 79.4 132.1 79.4 L 132.1 82.1 L 131.2 82.1 L 131.2 74.4 L 132.1 74.4 L 132.1 75.1 Z M 139.7 80 C 139.7 80 139.67 76.23 139.7 76.2 C 139.7 75.5 139.4 75.1 138.7 75.1 C 137.8 75.1 137.5 75.8 137.5 76.7 C 137.54 76.73 137.5 80 137.5 80 L 136.6 80 L 136.6 72.1 L 137.5 72.1 L 137.5 75.2 C 137.5 75.2 137.59 75.15 137.6 75.2 C 138 74.5 138.4 74.3 139.1 74.3 C 140 74.3 140.6 74.8 140.6 76.1 C 140.57 76.05 140.6 80 140.6 80 L 139.7 80 Z M 143 78.3 C 143 78.9 143.2 79.4 143.8 79.4 C 144.4 79.4 145.1 79 145 77.2 C 144.1 77.2 143 77.2 143 78.3 Z M 145 79.2 C 145 79.2 144.99 79.19 145 79.2 C 144.7 79.8 144.3 80.1 143.6 80.1 C 142.4 80.1 142.1 79.3 142.1 78.3 C 142.1 76.6 143.7 76.5 145 76.6 C 145 75.8 145 75 144.1 75 C 143.5 75 143.1 75.4 143.2 76 C 143.2 76 142.2 76 142.2 76 C 142.3 74.8 142.9 74.3 144.1 74.3 C 145.5 74.3 145.9 75.1 145.9 76 C 145.9 76 145.9 78.7 145.9 78.7 C 145.9 79.1 145.9 79.6 146 80 C 146 79.99 145 80 145 80 L 145 79.2 Z M 149.3 80.1 C 148.1 80.1 147.3 79.6 147.4 78.3 C 147.4 78.3 148.4 78.3 148.4 78.3 C 148.4 78.6 148.4 79.4 149.3 79.4 C 149.9 79.4 150.3 79.1 150.3 78.5 C 150.3 77.5 147.5 77.5 147.5 75.8 C 147.5 75.3 147.9 74.3 149.4 74.3 C 150.4 74.3 151.3 74.8 151.2 75.9 C 151.2 75.9 150.2 75.9 150.2 75.9 C 150.2 75.3 149.9 75 149.3 75 C 148.8 75 148.5 75.3 148.5 75.8 C 148.5 76.7 151.2 76.7 151.2 78.4 C 151.2 79.6 150.4 80.1 149.3 80.1 Z M 155.6 76.8 C 155.6 75.2 155.1 75 154.5 75 C 153.9 75 153.4 75.3 153.4 76.8 C 153.4 76.8 155.6 76.8 155.6 76.8 Z M 153.4 77.5 C 153.4 79.1 153.8 79.4 154.5 79.4 C 155.2 79.4 155.5 78.9 155.5 78.3 C 155.5 78.3 156.5 78.3 156.5 78.3 C 156.5 79.5 155.7 80.1 154.6 80.1 C 153.4 80.1 152.4 79.8 152.4 77.3 C 152.4 75.7 152.6 74.3 154.6 74.3 C 156.1 74.3 156.5 75.2 156.5 77 C 156.54 77.03 156.5 77.5 156.5 77.5 C 156.5 77.5 153.42 77.51 153.4 77.5 Z M 161.5 75.5 C 162.5 75.6 163.1 75.3 163.1 74.3 C 163.1 73.6 162.8 73.1 162.1 73.1 C 161.2 73.1 161.1 73.7 161.1 74.3 C 161.1 74.3 160.1 74.3 160.1 74.3 C 160 73 160.6 72.2 162.1 72.2 C 163.3 72.2 164.1 72.9 164.1 74.2 C 164.1 75.7 163.1 75.9 162.6 76 C 162.6 76 162.6 76 162.6 76 C 163.8 76.2 164.2 76.8 164.2 78 C 164.2 79.4 163.4 80.2 161.9 80.2 C 159.8 80.2 160 78.3 160 77.9 C 160 77.9 161 77.9 161 77.9 C 161 78.7 161.1 79.3 162 79.3 C 162.9 79.3 163.2 78.8 163.2 77.9 C 163.2 76.7 162.7 76.4 161.5 76.4 C 161.5 76.4 161.5 75.5 161.5 75.5 Z M 167.9 74.4 L 167.9 73.4 L 168.8 73 L 168.8 74.4 L 170 74.4 L 170 75.1 L 168.8 75.1 C 168.8 75.1 168.8 78.52 168.8 78.5 C 168.8 78.9 168.8 79.3 169.6 79.3 C 169.7 79.3 169.8 79.3 170 79.3 C 170 79.3 170 80 170 80 C 169.7 80 169.4 80.1 169.1 80.1 C 168.3 80.1 167.9 79.7 167.9 79.1 C 167.9 79.07 167.9 75.1 167.9 75.1 L 167 75.1 L 167 74.4 L 167.9 74.4 Z M 171.8 75.3 C 171.8 75.3 171.82 75.27 171.8 75.3 C 172.2 74.4 172.7 74.3 173.5 74.3 C 173.5 74.3 173.5 75.3 173.5 75.3 C 173.5 75.3 173.4 75.2 173.3 75.2 C 173.2 75.2 173.1 75.2 173.1 75.2 C 172 75.2 171.8 76 171.8 76.7 C 171.8 76.71 171.8 80 171.8 80 L 170.9 80 L 170.9 74.4 L 171.8 74.4 L 171.8 75.3 Z M 175.4 80 L 174.5 80 L 174.5 74.4 L 175.4 74.4 L 175.4 80 Z M 174.4 72.1 L 175.5 72.1 L 175.5 73 L 174.4 73 L 174.4 72.1 Z M 177.8 78.3 C 177.8 78.9 178.1 79.4 178.7 79.4 C 179.2 79.4 179.9 79 179.8 77.2 C 178.9 77.2 177.8 77.2 177.8 78.3 Z M 179.8 79.2 C 179.8 79.2 179.81 79.19 179.8 79.2 C 179.5 79.8 179.1 80.1 178.4 80.1 C 177.2 80.1 176.9 79.3 176.9 78.3 C 176.9 76.6 178.5 76.5 179.8 76.6 C 179.8 75.8 179.8 75 178.9 75 C 178.3 75 177.9 75.4 178 76 C 178 76 177 76 177 76 C 177.1 74.8 177.7 74.3 178.9 74.3 C 180.3 74.3 180.7 75.1 180.7 76 C 180.7 76 180.7 78.7 180.7 78.7 C 180.7 79.1 180.7 79.6 180.8 80 C 180.82 79.99 179.8 80 179.8 80 L 179.8 79.2 Z M 183.3 80 L 182.4 80 L 182.4 72.1 L 183.3 72.1 L 183.3 80 Z M 185.9 80 L 184.8 80 L 184.8 78.8 L 185.9 78.8 L 185.9 80 Z M 189.9 80 L 189.9 72.1 L 190.9 72.1 L 190.9 79.1 L 193.8 79.1 L 193.8 80 L 189.9 80 Z M 195.5 78.3 C 195.5 78.9 195.8 79.4 196.4 79.4 C 196.9 79.4 197.6 79 197.5 77.2 C 196.7 77.2 195.5 77.2 195.5 78.3 Z M 197.5 79.2 C 197.5 79.2 197.51 79.19 197.5 79.2 C 197.2 79.8 196.8 80.1 196.1 80.1 C 194.9 80.1 194.6 79.3 194.6 78.3 C 194.6 76.6 196.2 76.5 197.5 76.6 C 197.5 75.8 197.5 75 196.6 75 C 196 75 195.7 75.4 195.7 76 C 195.7 76 194.7 76 194.7 76 C 194.8 74.8 195.4 74.3 196.6 74.3 C 198 74.3 198.4 75.1 198.4 76 C 198.4 76 198.4 78.7 198.4 78.7 C 198.4 79.1 198.5 79.6 198.5 80 C 198.53 79.99 197.5 80 197.5 80 L 197.5 79.2 Z M 203.2 80 C 203.2 80 203.19 76.14 203.2 76.1 C 203.2 75.5 203 75.1 202.2 75.1 C 201.2 75.1 201.1 75.9 201.1 76.7 C 201.08 76.7 201.1 80 201.1 80 L 200.2 80 C 200.2 80 200.18 75.59 200.2 75.6 C 200.2 75.2 200.2 74.8 200.1 74.4 C 200.12 74.44 201.1 74.4 201.1 74.4 L 201.1 75.2 C 201.1 75.2 201.12 75.15 201.1 75.2 C 201.5 74.5 201.9 74.3 202.6 74.3 C 203.8 74.3 204.1 75 204.1 76.1 C 204.09 76.14 204.1 80 204.1 80 L 203.2 80 Z M 208.6 76.2 C 208.6 75.3 208.2 75.1 207.8 75.1 C 207.1 75.1 206.6 75.4 206.6 76.9 C 206.6 78.7 206.9 79.4 207.8 79.4 C 208 79.4 208.6 79.1 208.6 78.1 C 208.6 78.1 209.6 78.1 209.6 78.1 C 209.6 79.7 208.4 80.1 207.8 80.1 C 206.6 80.1 205.7 79.8 205.7 77.3 C 205.7 75.7 205.9 74.3 207.8 74.3 C 208.9 74.3 209.6 75 209.5 76.2 C 209.5 76.2 208.6 76.2 208.6 76.2 Z M 214.2 76.8 C 214.2 75.2 213.8 75 213.1 75 C 212.5 75 212.1 75.3 212.1 76.8 C 212.1 76.8 214.2 76.8 214.2 76.8 Z M 212.1 77.5 C 212.1 79.1 212.5 79.4 213.2 79.4 C 213.8 79.4 214.1 78.9 214.1 78.3 C 214.1 78.3 215.1 78.3 215.1 78.3 C 215.1 79.5 214.4 80.1 213.2 80.1 C 212 80.1 211.1 79.8 211.1 77.3 C 211.1 75.7 211.3 74.3 213.2 74.3 C 214.8 74.3 215.2 75.2 215.2 77 C 215.18 77.03 215.2 77.5 215.2 77.5 C 215.2 77.5 212.06 77.51 212.1 77.5 Z M 216.8 74.4 L 216.8 73.4 L 217.7 73 L 217.7 74.4 L 218.9 74.4 L 218.9 75.1 L 217.7 75.1 C 217.7 75.1 217.68 78.52 217.7 78.5 C 217.7 78.9 217.7 79.3 218.5 79.3 C 218.6 79.3 218.7 79.3 218.9 79.3 C 218.9 79.3 218.9 80 218.9 80 C 218.6 80 218.3 80.1 218 80.1 C 217.2 80.1 216.8 79.7 216.8 79.1 C 216.78 79.07 216.8 75.1 216.8 75.1 L 215.9 75.1 L 215.9 74.4 L 216.8 74.4 Z M 220.7 80 L 219.6 80 L 219.6 78.8 L 220.7 78.8 L 220.7 80 Z M 224.3 80 C 224.3 80 224.3 79.11 224.3 79.1 C 226.5 76 227.2 75.4 227.2 74.1 C 227.2 73.5 226.9 73.1 226.2 73.1 C 225.5 73.1 225.3 73.7 225.4 74.3 C 225.4 74.3 224.3 74.3 224.3 74.3 C 224.2 73.1 224.9 72.2 226.2 72.2 C 227.5 72.2 228.2 72.9 228.2 74.2 C 228.2 75.9 227.3 76.5 225.4 79.1 C 225.38 79.11 228.4 79.1 228.4 79.1 L 228.4 80 L 224.3 80 Z M 233.2 76.2 C 233.2 78.2 233.2 80.2 231.2 80.2 C 229.1 80.2 229.1 78.2 229.1 76.2 C 229.1 74.2 229.1 72.2 231.2 72.2 C 233.2 72.2 233.2 74.2 233.2 76.2 Z M 230.1 76.4 C 230.1 77.7 230 79.3 231.2 79.3 C 232.3 79.3 232.2 77.7 232.2 76.4 C 232.2 74.3 232.2 73.1 231.2 73.1 C 230.1 73.1 230.1 74.3 230.1 76.4 Z M 234.1 80 C 234.1 80 234.07 79.11 234.1 79.1 C 236.3 76 237 75.4 237 74.1 C 237 73.5 236.7 73.1 236 73.1 C 235.3 73.1 235.1 73.7 235.1 74.3 C 235.1 74.3 234.1 74.3 234.1 74.3 C 234 73.1 234.6 72.2 235.9 72.2 C 237.3 72.2 238 72.9 238 74.2 C 238 75.9 237.1 76.5 235.1 79.1 C 235.14 79.11 238.2 79.1 238.2 79.1 L 238.2 80 L 234.1 80 Z M 240.3 75.5 C 241.2 75.6 241.9 75.3 241.9 74.3 C 241.9 73.6 241.6 73.1 240.8 73.1 C 240 73.1 239.9 73.7 239.9 74.3 C 239.9 74.3 238.9 74.3 238.9 74.3 C 238.8 73 239.4 72.2 240.8 72.2 C 242.1 72.2 242.9 72.9 242.9 74.2 C 242.9 75.7 241.8 75.9 241.4 76 C 241.4 76 241.4 76 241.4 76 C 242.6 76.2 243 76.8 243 78 C 243 79.4 242.2 80.2 240.7 80.2 C 238.6 80.2 238.8 78.3 238.8 77.9 C 238.8 77.9 239.8 77.9 239.8 77.9 C 239.8 78.7 239.9 79.3 240.8 79.3 C 241.7 79.3 242 78.8 242 77.9 C 242 76.7 241.5 76.4 240.3 76.4 C 240.3 76.4 240.3 75.5 240.3 75.5 Z M 248.5 72.1 L 249.8 72.1 L 252.4 80 L 251.2 80 L 250.7 78.1 L 247.6 78.1 L 247 80 L 246 80 L 248.5 72.1 Z M 249.1 73 L 249.1 73 L 247.8 77.2 L 250.4 77.2 L 249.1 73 Z M 256.4 77.1 C 256.4 76.3 256.4 75.1 255.3 75.1 C 254.2 75.1 254.3 76.6 254.3 77.5 C 254.3 78.2 254.3 79.4 255.3 79.4 C 256.3 79.4 256.4 78.6 256.4 77.1 Z M 254.3 75.1 C 254.3 75.1 254.32 75.1 254.3 75.1 C 254.6 74.6 255 74.3 255.6 74.3 C 256.5 74.3 257.4 74.7 257.4 77.1 C 257.4 78.5 257.3 80.1 255.5 80.1 C 255 80.1 254.6 79.9 254.3 79.4 C 254.33 79.43 254.3 79.4 254.3 79.4 L 254.3 82.1 L 253.4 82.1 L 253.4 74.4 L 254.3 74.4 L 254.3 75.1 Z M 259.8 75.3 C 259.8 75.3 259.77 75.27 259.8 75.3 C 260.1 74.4 260.6 74.3 261.5 74.3 C 261.5 74.3 261.5 75.3 261.5 75.3 C 261.4 75.3 261.3 75.2 261.2 75.2 C 261.2 75.2 261.1 75.2 261 75.2 C 260 75.2 259.8 76 259.8 76.7 C 259.75 76.71 259.8 80 259.8 80 L 258.8 80 L 258.8 74.4 L 259.8 74.4 L 259.8 75.3 Z M 267.3 80 L 266.3 80 L 266.3 73.5 L 265.2 74.2 C 265.2 74.2 265.15 73.27 265.2 73.3 C 265.4 73.2 266.1 72.6 266.4 72.4 C 266.44 72.36 267.3 72.4 267.3 72.4 L 267.3 80 Z M 270 78.8 L 271.1 78.8 L 270.1 81.4 L 269.4 81.4 L 270 78.8 Z M 270.7 75.6 L 269.7 75.6 L 269.7 74.4 L 270.7 74.4 L 270.7 75.6 Z M 274.3 77.3 L 274.3 73.3 L 274.3 73.3 L 272.6 77.3 L 274.3 77.3 Z M 271.7 78.1 L 271.7 77.3 L 273.9 72.4 L 275.2 72.4 L 275.2 77.3 L 276.1 77.3 L 276.1 78.1 L 275.2 78.1 L 275.2 80 L 274.3 80 L 274.3 78.1 L 271.7 78.1 Z M 280.8 76.2 C 280.8 78.2 280.8 80.2 278.8 80.2 C 276.7 80.2 276.7 78.2 276.7 76.2 C 276.7 74.2 276.7 72.2 278.8 72.2 C 280.9 72.2 280.8 74.2 280.8 76.2 Z M 277.7 76.4 C 277.7 77.7 277.7 79.3 278.8 79.3 C 279.9 79.3 279.8 77.7 279.8 76.4 C 279.8 74.3 279.8 73.1 278.8 73.1 C 277.7 73.1 277.7 74.3 277.7 76.4 Z M 284.4 80 L 283.4 80 L 283.4 73.5 L 282.2 74.2 C 282.2 74.2 282.25 73.27 282.2 73.3 C 282.5 73.2 283.2 72.6 283.5 72.4 C 283.53 72.36 284.4 72.4 284.4 72.4 L 284.4 80 Z M 287.7 81.3 C 287.3 79.7 286.7 78.2 286.7 76.5 C 286.7 74.8 287.3 73.3 287.8 71.7 C 287.8 71.7 288.4 71.7 288.4 71.7 C 288 73.3 287.7 74.9 287.7 76.6 C 287.7 78.2 288 79.8 288.4 81.3 C 288.4 81.3 287.7 81.3 287.7 81.3 Z M 292.3 80 L 291.3 80 L 291.3 73.5 L 290.2 74.2 C 290.2 74.2 290.19 73.27 290.2 73.3 C 290.4 73.2 291.2 72.6 291.5 72.4 C 291.47 72.36 292.3 72.4 292.3 72.4 L 292.3 80 Z M 298.5 76.2 C 298.5 78.2 298.6 80.2 296.5 80.2 C 294.4 80.2 294.4 78.2 294.4 76.2 C 294.4 74.2 294.4 72.2 296.5 72.2 C 298.6 72.2 298.5 74.2 298.5 76.2 Z M 295.4 76.4 C 295.4 77.7 295.4 79.3 296.5 79.3 C 297.6 79.3 297.5 77.7 297.5 76.4 C 297.5 74.3 297.5 73.1 296.5 73.1 C 295.5 73.1 295.4 74.3 295.4 76.4 Z M 300.8 75.5 C 301.7 75.6 302.4 75.3 302.4 74.3 C 302.4 73.6 302 73.1 301.3 73.1 C 300.5 73.1 300.3 73.7 300.3 74.3 C 300.3 74.3 299.3 74.3 299.3 74.3 C 299.3 73 299.9 72.2 301.3 72.2 C 302.6 72.2 303.4 72.9 303.4 74.2 C 303.4 75.7 302.3 75.9 301.9 76 C 301.9 76 301.9 76 301.9 76 C 303.1 76.2 303.4 76.8 303.4 78 C 303.4 79.4 302.6 80.2 301.2 80.2 C 299 80.2 299.2 78.3 299.2 77.9 C 299.2 77.9 300.2 77.9 300.2 77.9 C 300.2 78.7 300.3 79.3 301.3 79.3 C 302.2 79.3 302.4 78.8 302.4 77.9 C 302.4 76.7 302 76.4 300.8 76.4 C 300.8 76.4 300.8 75.5 300.8 75.5 Z M 307.3 77.9 C 307.3 77.3 307.2 76.4 306.3 76.4 C 305.3 76.4 305.2 77.3 305.2 77.9 C 305.2 78.6 305.5 79.3 306.3 79.3 C 307 79.3 307.3 78.6 307.3 77.9 Z M 306.9 76 C 308 76.1 308.3 76.9 308.3 77.9 C 308.3 79.3 307.6 80.2 306.3 80.2 C 304.9 80.2 304.2 79.3 304.2 77.9 C 304.2 76.9 304.5 76.1 305.6 76 C 305.6 76 305.6 75.9 305.6 75.9 C 304.7 75.8 304.3 75 304.3 74.2 C 304.3 73 305.1 72.2 306.3 72.2 C 307.5 72.2 308.2 73 308.2 74.2 C 308.2 75 307.8 75.8 306.9 75.9 C 306.9 75.9 306.9 76 306.9 76 Z M 307.2 74.1 C 307.2 73.5 306.9 73 306.3 73 C 305.6 73 305.3 73.5 305.3 74.1 C 305.3 74.7 305.5 75.5 306.3 75.5 C 307 75.5 307.2 74.7 307.2 74.1 Z M 309.2 80 C 309.2 80 309.17 79.11 309.2 79.1 C 311.4 76 312.1 75.4 312.1 74.1 C 312.1 73.5 311.8 73.1 311.1 73.1 C 310.4 73.1 310.2 73.7 310.2 74.3 C 310.2 74.3 309.2 74.3 309.2 74.3 C 309.1 73.1 309.7 72.2 311 72.2 C 312.4 72.2 313.1 72.9 313.1 74.2 C 313.1 75.9 312.2 76.5 310.2 79.1 C 310.25 79.11 313.3 79.1 313.3 79.1 L 313.3 80 L 309.2 80 Z M 314.4 81.3 C 314.7 79.8 315.1 78.2 315.1 76.6 C 315.1 74.9 314.7 73.3 314.3 71.7 C 314.3 71.7 315 71.7 315 71.7 C 315.5 73.3 316.1 74.8 316.1 76.5 C 316.1 78.2 315.5 79.7 315 81.3 C 315 81.3 314.4 81.3 314.4 81.3 Z M 318.4 75.6 L 317.3 75.6 L 317.3 74.4 L 318.4 74.4 L 318.4 75.6 Z M 318.4 80 L 317.3 80 L 317.3 78.8 L 318.4 78.8 L 318.4 80 Z M 322.3 80 L 321.3 80 L 321.3 73.5 L 320.1 74.2 C 320.1 74.2 320.11 73.27 320.1 73.3 C 320.4 73.2 321.1 72.6 321.4 72.4 C 321.39 72.36 322.3 72.4 322.3 72.4 L 322.3 80 Z M 328.5 76.2 C 328.5 78.2 328.5 80.2 326.4 80.2 C 324.3 80.2 324.4 78.2 324.4 76.2 C 324.4 74.2 324.3 72.2 326.4 72.2 C 328.5 72.2 328.5 74.2 328.5 76.2 Z M 325.4 76.4 C 325.4 77.7 325.3 79.3 326.4 79.3 C 327.5 79.3 327.5 77.7 327.5 76.4 C 327.5 74.3 327.4 73.1 326.4 73.1 C 325.4 73.1 325.4 74.3 325.4 76.4 Z M 329.2 72.4 L 333.1 72.4 L 333.1 73.2 L 331.1 80 L 330 80 L 332.1 73.2 L 329.2 73.2 L 329.2 72.4 Z M 335.1 74.6 C 335.1 75.3 335.3 76.1 336.2 76.1 C 337 76.1 337.2 75.3 337.2 74.6 C 337.2 73.9 337 73 336.2 73 C 335.3 73 335.1 73.9 335.1 74.6 Z M 338.2 76.2 C 338.2 78.2 338.2 80.2 336.2 80.2 C 335 80.2 334.3 79.4 334.3 78.2 C 334.3 78.2 335.3 78.2 335.3 78.2 C 335.3 78.7 335.5 79.3 336.2 79.3 C 337.1 79.3 337.2 78.2 337.2 76.3 C 337.2 76.3 337.2 76.3 337.2 76.3 C 336.9 76.8 336.5 77 335.9 77 C 335.3 77 334.1 76.7 334.1 74.6 C 334.1 72.9 335.2 72.2 336.2 72.2 C 338.3 72.2 338.2 74.2 338.2 76.2 Z M 339.2 76.6 L 341.7 76.6 L 341.7 77.4 L 339.2 77.4 L 339.2 76.6 Z M 345.5 80 L 344.4 80 L 344.4 73.5 L 343.3 74.2 C 343.3 74.2 343.3 73.27 343.3 73.3 C 343.6 73.2 344.3 72.6 344.6 72.4 C 344.59 72.36 345.5 72.4 345.5 72.4 L 345.5 80 Z M 351.7 76.2 C 351.7 78.2 351.7 80.2 349.6 80.2 C 347.5 80.2 347.6 78.2 347.6 76.2 C 347.6 74.2 347.5 72.2 349.6 72.2 C 351.7 72.2 351.7 74.2 351.7 76.2 Z M 348.6 76.4 C 348.6 77.7 348.5 79.3 349.6 79.3 C 350.7 79.3 350.7 77.7 350.7 76.4 C 350.7 74.3 350.6 73.1 349.6 73.1 C 348.6 73.1 348.6 74.3 348.6 76.4 Z M 353.5 74.6 C 353.5 75.3 353.6 76.1 354.5 76.1 C 355.4 76.1 355.5 75.3 355.5 74.6 C 355.5 73.9 355.3 73 354.5 73 C 353.6 73 353.5 73.9 353.5 74.6 Z M 356.5 76.2 C 356.5 78.2 356.5 80.2 354.5 80.2 C 353.3 80.2 352.6 79.4 352.6 78.2 C 352.6 78.2 353.6 78.2 353.6 78.2 C 353.6 78.7 353.8 79.3 354.5 79.3 C 355.5 79.3 355.5 78.2 355.5 76.3 C 355.5 76.3 355.5 76.3 355.5 76.3 C 355.3 76.8 354.8 77 354.2 77 C 353.6 77 352.4 76.7 352.4 74.6 C 352.4 72.9 353.5 72.2 354.5 72.2 C 356.6 72.2 356.5 74.2 356.5 76.2 Z M 361.4 76.2 C 361.4 78.2 361.4 80.2 359.4 80.2 C 357.3 80.2 357.3 78.2 357.3 76.2 C 357.3 74.2 357.3 72.2 359.4 72.2 C 361.5 72.2 361.4 74.2 361.4 76.2 Z M 358.3 76.4 C 358.3 77.7 358.3 79.3 359.4 79.3 C 360.5 79.3 360.4 77.7 360.4 76.4 C 360.4 74.3 360.4 73.1 359.4 73.1 C 358.3 73.1 358.3 74.3 358.3 76.4 Z M 363.6 80 L 362.5 80 L 362.5 78.8 L 363.6 78.8 L 363.6 80 Z " stroke="none" fill="#fff"/>  </g>  <g id="Polygon195213">    <path d="M 43.4 65.1 C 43.4 65.7 43.6 66.2 44.3 66.2 C 44.8 66.2 45.5 65.8 45.4 64 C 44.5 64 43.4 64 43.4 65.1 Z M 45.4 66 C 45.4 66 45.4 65.99 45.4 66 C 45.1 66.6 44.7 66.9 44 66.9 C 42.8 66.9 42.5 66.1 42.5 65.1 C 42.5 63.4 44.1 63.3 45.4 63.4 C 45.4 62.6 45.4 61.8 44.5 61.8 C 43.9 61.8 43.5 62.2 43.6 62.8 C 43.6 62.8 42.6 62.8 42.6 62.8 C 42.7 61.6 43.3 61.1 44.5 61.1 C 45.9 61.1 46.3 61.9 46.3 62.8 C 46.3 62.8 46.3 65.5 46.3 65.5 C 46.3 65.9 46.3 66.4 46.4 66.8 C 46.41 66.79 45.4 66.8 45.4 66.8 L 45.4 66 Z M 51.1 66.8 C 51.1 66.8 51.07 62.94 51.1 62.9 C 51.1 62.3 50.9 61.9 50.1 61.9 C 49.1 61.9 49 62.7 49 63.5 C 48.96 63.5 49 66.8 49 66.8 L 48.1 66.8 C 48.1 66.8 48.06 62.39 48.1 62.4 C 48.1 62 48 61.6 48 61.2 C 48.01 61.24 49 61.2 49 61.2 L 49 62 C 49 62 49 61.95 49 62 C 49.4 61.3 49.8 61.1 50.5 61.1 C 51.7 61.1 52 61.8 52 62.9 C 51.97 62.94 52 66.8 52 66.8 L 51.1 66.8 Z M 55.4 61.9 C 54.4 61.9 54.4 63.1 54.4 63.8 C 54.4 65.6 54.8 66 55.5 66 C 56.6 66 56.5 64.8 56.5 64 C 56.5 63.2 56.6 61.9 55.4 61.9 Z M 56.5 61.2 L 57.4 61.2 C 57.4 61.2 57.4 67.35 57.4 67.4 C 57.4 68.6 56.6 68.9 55.4 68.9 C 54.4 68.9 53.6 68.4 53.7 67.4 C 53.7 67.4 54.7 67.4 54.7 67.4 C 54.7 67.9 55 68.2 55.5 68.2 C 56.2 68.2 56.5 67.8 56.5 67.3 C 56.5 67.25 56.5 66.1 56.5 66.1 C 56.5 66.1 56.46 66.1 56.5 66.1 C 56.2 66.5 55.7 66.8 55.2 66.8 C 53.7 66.8 53.4 65.5 53.4 63.8 C 53.4 61.3 54.7 61.1 55.2 61.1 C 55.8 61.1 56.2 61.4 56.5 61.9 C 56.48 61.92 56.5 61.9 56.5 61.9 L 56.5 61.2 Z M 59.9 66.8 L 59 66.8 L 59 61.2 L 59.9 61.2 L 59.9 66.8 Z M 59 58.9 L 60 58.9 L 60 59.8 L 59 59.8 L 59 58.9 Z M 64.6 63.7 C 64.6 62.2 64.2 61.9 63.5 61.9 C 62.8 61.9 62.3 62.2 62.3 63.7 C 62.3 65.5 62.5 66.2 63.5 66.2 C 64.4 66.2 64.6 65.5 64.6 63.7 Z M 61.3 64.1 C 61.3 62.5 61.5 61.1 63.5 61.1 C 65.4 61.1 65.6 62.5 65.6 64.1 C 65.6 66.6 64.6 66.9 63.5 66.9 C 62.3 66.9 61.3 66.6 61.3 64.1 Z M 70 63.6 C 70 62 69.6 61.8 68.9 61.8 C 68.4 61.8 67.9 62.1 67.9 63.6 C 67.9 63.6 70 63.6 70 63.6 Z M 67.9 64.3 C 67.9 65.9 68.3 66.2 69 66.2 C 69.6 66.2 69.9 65.7 70 65.1 C 70 65.1 71 65.1 71 65.1 C 70.9 66.3 70.2 66.9 69 66.9 C 67.8 66.9 66.9 66.6 66.9 64.1 C 66.9 62.5 67.1 61.1 69 61.1 C 70.6 61.1 71 62 71 63.8 C 71 63.83 71 64.3 71 64.3 C 71 64.3 67.88 64.31 67.9 64.3 Z M 74.4 61.9 C 73.4 61.9 73.3 62.6 73.3 64.1 C 73.3 65 73.3 66.2 74.4 66.2 C 75.4 66.2 75.4 64.9 75.4 63.8 C 75.4 63.1 75.4 61.9 74.4 61.9 Z M 75.4 58.9 L 76.3 58.9 L 76.3 66.8 L 75.4 66.8 L 75.4 66.1 C 75.4 66.1 75.42 66.13 75.4 66.1 C 75.1 66.6 74.7 66.9 74.1 66.9 C 73.2 66.9 72.3 66.6 72.3 64.1 C 72.3 62.7 72.4 61.1 74.2 61.1 C 74.7 61.1 75.1 61.4 75.4 61.8 C 75.41 61.8 75.4 61.8 75.4 61.8 L 75.4 58.9 Z M 81 63.6 C 81 62 80.6 61.8 79.9 61.8 C 79.4 61.8 78.9 62.1 78.9 63.6 C 78.9 63.6 81 63.6 81 63.6 Z M 78.9 64.3 C 78.9 65.9 79.3 66.2 80 66.2 C 80.6 66.2 80.9 65.7 81 65.1 C 81 65.1 82 65.1 82 65.1 C 81.9 66.3 81.2 66.9 80 66.9 C 78.8 66.9 77.9 66.6 77.9 64.1 C 77.9 62.5 78.1 61.1 80 61.1 C 81.6 61.1 82 62 82 63.8 C 82 63.83 82 64.3 82 64.3 C 82 64.3 78.88 64.31 78.9 64.3 Z M 86.2 66.8 C 86.2 66.8 86.23 62.94 86.2 62.9 C 86.2 62.4 86.1 61.9 85.3 61.9 C 85.1 61.9 84.7 62 84.6 62.2 C 84.4 62.5 84.4 62.8 84.4 63.1 C 84.36 63.05 84.4 66.8 84.4 66.8 L 83.5 66.8 C 83.5 66.8 83.46 62.39 83.5 62.4 C 83.5 62 83.4 61.6 83.4 61.2 C 83.4 61.24 84.4 61.2 84.4 61.2 L 84.4 61.9 C 84.4 61.9 84.38 61.93 84.4 61.9 C 84.6 61.3 85.1 61.1 85.8 61.1 C 86.3 61.1 86.9 61.3 87.1 61.8 C 87.4 61.2 87.9 61.1 88.4 61.1 C 89 61.1 89.9 61.3 89.9 62.6 C 89.9 62.57 89.9 66.8 89.9 66.8 L 89 66.8 C 89 66.8 89 62.94 89 62.9 C 89 62.4 88.8 61.9 88.1 61.9 C 87.8 61.9 87.7 61.9 87.4 62.1 C 87.2 62.3 87.1 62.8 87.1 63.1 C 87.13 63.05 87.1 66.8 87.1 66.8 L 86.2 66.8 Z M 92.3 65.1 C 92.3 65.7 92.5 66.2 93.1 66.2 C 93.7 66.2 94.4 65.8 94.3 64 C 93.4 64 92.3 64 92.3 65.1 Z M 94.3 66 C 94.3 66 94.28 65.99 94.3 66 C 94 66.6 93.6 66.9 92.9 66.9 C 91.7 66.9 91.4 66.1 91.4 65.1 C 91.4 63.4 93 63.3 94.3 63.4 C 94.3 62.6 94.3 61.8 93.3 61.8 C 92.7 61.8 92.4 62.2 92.5 62.8 C 92.5 62.8 91.5 62.8 91.5 62.8 C 91.5 61.6 92.2 61.1 93.4 61.1 C 94.8 61.1 95.2 61.9 95.2 62.8 C 95.2 62.8 95.2 65.5 95.2 65.5 C 95.2 65.9 95.2 66.4 95.3 66.8 C 95.29 66.79 94.3 66.8 94.3 66.8 L 94.3 66 Z M 102.5 63.9 C 102.5 63.1 102.5 61.9 101.4 61.9 C 100.3 61.9 100.4 63.4 100.4 64.3 C 100.4 65 100.4 66.2 101.4 66.2 C 102.4 66.2 102.5 65.4 102.5 63.9 Z M 100.4 61.9 C 100.4 61.9 100.39 61.9 100.4 61.9 C 100.7 61.4 101.1 61.1 101.7 61.1 C 102.6 61.1 103.5 61.5 103.5 63.9 C 103.5 65.3 103.4 66.9 101.6 66.9 C 101.1 66.9 100.7 66.7 100.4 66.2 C 100.4 66.23 100.4 66.2 100.4 66.2 L 100.4 68.9 L 99.5 68.9 L 99.5 61.2 L 100.4 61.2 L 100.4 61.9 Z M 105.8 62.1 C 105.8 62.1 105.84 62.07 105.8 62.1 C 106.2 61.2 106.7 61.1 107.6 61.1 C 107.6 61.1 107.6 62.1 107.6 62.1 C 107.5 62.1 107.4 62 107.3 62 C 107.2 62 107.2 62 107.1 62 C 106.1 62 105.8 62.8 105.8 63.5 C 105.82 63.51 105.8 66.8 105.8 66.8 L 104.9 66.8 L 104.9 61.2 L 105.8 61.2 L 105.8 62.1 Z M 111.6 63.6 C 111.6 62 111.1 61.8 110.5 61.8 C 109.9 61.8 109.4 62.1 109.4 63.6 C 109.4 63.6 111.6 63.6 111.6 63.6 Z M 109.4 64.3 C 109.4 65.9 109.8 66.2 110.5 66.2 C 111.2 66.2 111.5 65.7 111.5 65.1 C 111.5 65.1 112.5 65.1 112.5 65.1 C 112.5 66.3 111.7 66.9 110.6 66.9 C 109.4 66.9 108.5 66.6 108.5 64.1 C 108.5 62.5 108.6 61.1 110.6 61.1 C 112.2 61.1 112.6 62 112.6 63.8 C 112.55 63.83 112.6 64.3 112.6 64.3 C 112.6 64.3 109.43 64.31 109.4 64.3 Z M 113.4 61.2 L 114.4 61.2 L 115.7 65.9 L 115.7 65.9 L 117 61.2 L 118 61.2 L 116.2 66.8 L 115.1 66.8 L 113.4 61.2 Z M 122 63.6 C 122 62 121.5 61.8 120.9 61.8 C 120.3 61.8 119.8 62.1 119.8 63.6 C 119.8 63.6 122 63.6 122 63.6 Z M 119.8 64.3 C 119.8 65.9 120.2 66.2 120.9 66.2 C 121.6 66.2 121.9 65.7 121.9 65.1 C 121.9 65.1 122.9 65.1 122.9 65.1 C 122.9 66.3 122.1 66.9 121 66.9 C 119.8 66.9 118.8 66.6 118.8 64.1 C 118.8 62.5 119 61.1 121 61.1 C 122.5 61.1 122.9 62 122.9 63.8 C 122.94 63.83 122.9 64.3 122.9 64.3 C 122.9 64.3 119.81 64.31 119.8 64.3 Z M 127.4 66.8 C 127.4 66.8 127.45 62.94 127.4 62.9 C 127.4 62.3 127.2 61.9 126.5 61.9 C 125.5 61.9 125.3 62.7 125.3 63.5 C 125.33 63.5 125.3 66.8 125.3 66.8 L 124.4 66.8 C 124.4 66.8 124.43 62.39 124.4 62.4 C 124.4 62 124.4 61.6 124.4 61.2 C 124.38 61.24 125.3 61.2 125.3 61.2 L 125.3 62 C 125.3 62 125.38 61.95 125.4 62 C 125.7 61.3 126.1 61.1 126.9 61.1 C 128.1 61.1 128.3 61.8 128.3 62.9 C 128.35 62.94 128.3 66.8 128.3 66.8 L 127.4 66.8 Z M 130 61.2 L 130 60.2 L 130.9 59.8 L 130.9 61.2 L 132.1 61.2 L 132.1 61.9 L 130.9 61.9 C 130.9 61.9 130.93 65.32 130.9 65.3 C 130.9 65.7 130.9 66.1 131.8 66.1 C 131.8 66.1 132 66.1 132.2 66.1 C 132.2 66.1 132.2 66.8 132.2 66.8 C 131.9 66.8 131.6 66.9 131.3 66.9 C 130.4 66.9 130 66.5 130 65.9 C 130.03 65.87 130 61.9 130 61.9 L 129.1 61.9 L 129.1 61.2 L 130 61.2 Z M 133.9 66.8 L 133 66.8 L 133 61.2 L 133.9 61.2 L 133.9 66.8 Z M 132.9 58.9 L 133.9 58.9 L 133.9 59.8 L 132.9 59.8 L 132.9 58.9 Z M 138.6 63.7 C 138.6 62.2 138.1 61.9 137.4 61.9 C 136.7 61.9 136.2 62.2 136.2 63.7 C 136.2 65.5 136.5 66.2 137.4 66.2 C 138.3 66.2 138.6 65.5 138.6 63.7 Z M 135.3 64.1 C 135.3 62.5 135.5 61.1 137.4 61.1 C 139.3 61.1 139.5 62.5 139.5 64.1 C 139.5 66.6 138.6 66.9 137.4 66.9 C 136.2 66.9 135.3 66.6 135.3 64.1 Z M 143.9 66.8 C 143.9 66.8 143.95 62.94 143.9 62.9 C 143.9 62.3 143.7 61.9 143 61.9 C 142 61.9 141.8 62.7 141.8 63.5 C 141.83 63.5 141.8 66.8 141.8 66.8 L 140.9 66.8 C 140.9 66.8 140.93 62.39 140.9 62.4 C 140.9 62 140.9 61.6 140.9 61.2 C 140.88 61.24 141.8 61.2 141.8 61.2 L 141.8 62 C 141.8 62 141.88 61.95 141.9 62 C 142.2 61.3 142.6 61.1 143.4 61.1 C 144.6 61.1 144.8 61.8 144.8 62.9 C 144.85 62.94 144.8 66.8 144.8 66.8 L 143.9 66.8 Z M 149.7 68.1 C 149.2 66.5 148.6 65 148.6 63.3 C 148.6 61.6 149.2 60.1 149.7 58.5 C 149.7 58.5 150.4 58.5 150.4 58.5 C 150 60.1 149.7 61.7 149.7 63.4 C 149.7 65 150 66.6 150.4 68.1 C 150.4 68.1 149.7 68.1 149.7 68.1 Z M 154.8 66.8 L 153.6 66.8 L 151.3 58.9 L 152.4 58.9 L 154.2 65.8 L 154.2 65.8 L 156.1 58.9 L 157.1 58.9 L 154.8 66.8 Z M 159.5 58.9 L 160.8 58.9 L 163.4 66.8 L 162.3 66.8 L 161.7 64.9 L 158.6 64.9 L 158 66.8 L 157 66.8 L 159.5 58.9 Z M 160.1 59.8 L 160.1 59.8 L 158.9 64 L 161.4 64 L 160.1 59.8 Z M 170 58.9 L 170 66.8 L 168.6 66.8 L 165.4 59.9 L 165.4 59.9 L 165.4 66.8 L 164.5 66.8 L 164.5 58.9 L 165.9 58.9 L 169 65.6 L 169.1 65.6 L 169.1 58.9 L 170 58.9 Z M 175.6 61 C 175.6 60 175.2 59.5 174.2 59.5 C 173.9 59.5 172.7 59.6 172.7 61.2 C 172.7 61.2 172.7 63.9 172.7 63.9 C 172.7 65.7 173.2 66.1 174.2 66.1 C 174.9 66.1 175.4 65.9 175.6 65.8 C 175.62 65.76 175.6 63.4 175.6 63.4 L 174.2 63.4 L 174.2 62.5 L 176.6 62.5 C 176.6 62.5 176.63 66.36 176.6 66.4 C 176 66.7 175.2 67 174.2 67 C 172.5 67 171.7 66.1 171.7 63.9 C 171.7 63.9 171.7 61.3 171.7 61.3 C 171.7 59.7 172.5 58.7 174.2 58.7 C 175.9 58.7 176.7 59.3 176.7 61 C 176.7 61 175.6 61 175.6 61 Z M 178.5 58.9 L 179.5 58.9 C 179.5 58.9 179.5 63.93 179.5 63.9 C 179.5 65.7 180 66.1 181 66.1 C 181.9 66.1 182.5 65.7 182.5 63.9 C 182.47 63.93 182.5 58.9 182.5 58.9 L 183.5 58.9 C 183.5 58.9 183.48 63.89 183.5 63.9 C 183.5 66.1 182.7 67 181 67 C 179.3 67 178.5 66.1 178.5 63.9 C 178.49 63.89 178.5 58.9 178.5 58.9 Z M 187 58.9 L 188.3 58.9 L 190.9 66.8 L 189.8 66.8 L 189.2 64.9 L 186.1 64.9 L 185.5 66.8 L 184.5 66.8 L 187 58.9 Z M 187.6 59.8 L 187.6 59.8 L 186.4 64 L 188.9 64 L 187.6 59.8 Z M 192.9 62.3 C 192.9 62.3 194.47 62.26 194.5 62.3 C 195.2 62.3 195.5 61.6 195.5 60.9 C 195.5 60.4 195.3 59.7 194.5 59.7 C 194.48 59.73 192.9 59.7 192.9 59.7 L 192.9 62.3 Z M 192.9 63.1 L 192.9 66.8 L 191.9 66.8 L 191.9 58.9 C 191.9 58.9 194.68 58.85 194.7 58.9 C 196.1 58.9 196.6 59.8 196.6 60.8 C 196.6 61.8 196.1 62.5 195.1 62.6 C 195.1 62.6 195.1 62.7 195.1 62.7 C 196 62.8 196.4 63.1 196.4 64.7 C 196.4 65.1 196.5 66.3 196.7 66.8 C 196.7 66.8 195.6 66.8 195.6 66.8 C 195.4 66.2 195.4 65.2 195.3 64.2 C 195.3 63.2 194.5 63.1 194.1 63.1 C 194.14 63.14 192.9 63.1 192.9 63.1 Z M 199.1 65.9 C 199.1 65.9 200.07 65.91 200.1 65.9 C 201.5 65.9 202 65.4 202 63.5 C 202 63.5 202 61.9 202 61.9 C 202 60.3 201.5 59.7 200.4 59.7 C 200.44 59.73 199.1 59.7 199.1 59.7 L 199.1 65.9 Z M 198.1 58.9 C 198.1 58.9 200.54 58.85 200.5 58.9 C 201.6 58.9 202.3 59.2 202.7 60.1 C 203 60.7 203 62.3 203 62.6 C 203 64.3 202.9 65.2 202.5 65.8 C 202.1 66.5 201.3 66.8 199.9 66.8 C 199.92 66.79 198.1 66.8 198.1 66.8 L 198.1 58.9 Z M 204.7 68.1 C 205.1 66.6 205.4 65 205.4 63.4 C 205.4 61.7 205.1 60.1 204.6 58.5 C 204.6 58.5 205.3 58.5 205.3 58.5 C 205.8 60.1 206.4 61.6 206.4 63.3 C 206.4 65 205.8 66.5 205.3 68.1 C 205.3 68.1 204.7 68.1 204.7 68.1 Z M 208.7 62.4 L 207.7 62.4 L 207.7 61.2 L 208.7 61.2 L 208.7 62.4 Z M 208.7 66.8 L 207.7 66.8 L 207.7 65.6 L 208.7 65.6 L 208.7 66.8 Z M 213.5 65.1 C 213.5 65.7 213.7 66.2 214.3 66.2 C 214.9 66.2 215.6 65.8 215.5 64 C 214.6 64 213.5 64 213.5 65.1 Z M 215.5 66 C 215.5 66 215.48 65.99 215.5 66 C 215.2 66.6 214.8 66.9 214.1 66.9 C 212.9 66.9 212.6 66.1 212.6 65.1 C 212.6 63.4 214.2 63.3 215.5 63.4 C 215.5 62.6 215.5 61.8 214.5 61.8 C 213.9 61.8 213.6 62.2 213.7 62.8 C 213.7 62.8 212.7 62.8 212.7 62.8 C 212.7 61.6 213.4 61.1 214.6 61.1 C 216 61.1 216.4 61.9 216.4 62.8 C 216.4 62.8 216.4 65.5 216.4 65.5 C 216.4 65.9 216.4 66.4 216.5 66.8 C 216.49 66.79 215.5 66.8 215.5 66.8 L 215.5 66 Z M 222.5 61.9 C 221.4 61.9 221.4 63.1 221.4 63.8 C 221.4 65.6 221.8 66 222.5 66 C 223.6 66 223.5 64.8 223.5 64 C 223.5 63.2 223.6 61.9 222.5 61.9 Z M 223.5 61.2 L 224.4 61.2 C 224.4 61.2 224.42 67.35 224.4 67.4 C 224.4 68.6 223.6 68.9 222.4 68.9 C 221.5 68.9 220.6 68.4 220.7 67.4 C 220.7 67.4 221.7 67.4 221.7 67.4 C 221.7 67.9 222.1 68.2 222.6 68.2 C 223.2 68.2 223.5 67.8 223.5 67.3 C 223.52 67.25 223.5 66.1 223.5 66.1 C 223.5 66.1 223.49 66.1 223.5 66.1 C 223.3 66.5 222.7 66.8 222.3 66.8 C 220.8 66.8 220.5 65.5 220.5 63.8 C 220.5 61.3 221.7 61.1 222.2 61.1 C 222.8 61.1 223.2 61.4 223.5 61.9 C 223.5 61.92 223.5 61.9 223.5 61.9 L 223.5 61.2 Z M 227 66.8 L 226.1 66.8 L 226.1 58.9 L 227 58.9 L 227 66.8 Z M 231.6 63.7 C 231.6 62.2 231.2 61.9 230.5 61.9 C 229.8 61.9 229.3 62.2 229.3 63.7 C 229.3 65.5 229.5 66.2 230.5 66.2 C 231.4 66.2 231.6 65.5 231.6 63.7 Z M 228.4 64.1 C 228.4 62.5 228.6 61.1 230.5 61.1 C 232.4 61.1 232.6 62.5 232.6 64.1 C 232.6 66.6 231.7 66.9 230.5 66.9 C 229.3 66.9 228.4 66.6 228.4 64.1 Z M 236 66.2 C 237.1 66.2 237.1 65 237.1 64.1 C 237.1 62.6 237 61.9 236 61.9 C 235 61.9 235 63.1 235 63.8 C 235 64.6 234.9 66.2 236 66.2 Z M 235 66.8 L 234.1 66.8 L 234.1 58.9 L 235 58.9 L 235 61.8 C 235 61.8 235.03 61.8 235 61.8 C 235.3 61.4 235.7 61.1 236.3 61.1 C 238 61.1 238.1 62.7 238.1 64.1 C 238.1 66.6 237.2 66.9 236.3 66.9 C 235.7 66.9 235.3 66.6 235 66.1 C 235.02 66.13 235 66.1 235 66.1 L 235 66.8 Z M 240.3 65.1 C 240.3 65.7 240.6 66.2 241.2 66.2 C 241.8 66.2 242.4 65.8 242.4 64 C 241.5 64 240.3 64 240.3 65.1 Z M 242.4 66 C 242.4 66 242.36 65.99 242.4 66 C 242.1 66.6 241.7 66.9 241 66.9 C 239.8 66.9 239.4 66.1 239.4 65.1 C 239.4 63.4 241.1 63.3 242.4 63.4 C 242.4 62.6 242.4 61.8 241.4 61.8 C 240.8 61.8 240.5 62.2 240.6 62.8 C 240.6 62.8 239.6 62.8 239.6 62.8 C 239.6 61.6 240.3 61.1 241.5 61.1 C 242.9 61.1 243.3 61.9 243.3 62.8 C 243.3 62.8 243.3 65.5 243.3 65.5 C 243.3 65.9 243.3 66.4 243.4 66.8 C 243.37 66.79 242.4 66.8 242.4 66.8 L 242.4 66 Z M 245.9 66.8 L 245 66.8 L 245 58.9 L 245.9 58.9 L 245.9 66.8 Z M 247.6 65.6 L 248.8 65.6 L 247.8 68.2 L 247 68.2 L 247.6 65.6 Z M 255.1 66.8 C 255.1 66.8 255.08 62.94 255.1 62.9 C 255.1 62.4 254.9 61.9 254.2 61.9 C 253.9 61.9 253.5 62 253.4 62.2 C 253.3 62.5 253.2 62.8 253.2 63.1 C 253.21 63.05 253.2 66.8 253.2 66.8 L 252.3 66.8 C 252.3 66.8 252.31 62.39 252.3 62.4 C 252.3 62 252.3 61.6 252.3 61.2 C 252.25 61.24 253.2 61.2 253.2 61.2 L 253.2 61.9 C 253.2 61.9 253.23 61.93 253.2 61.9 C 253.5 61.3 254 61.1 254.6 61.1 C 255.1 61.1 255.7 61.3 255.9 61.8 C 256.2 61.2 256.7 61.1 257.2 61.1 C 257.8 61.1 258.8 61.3 258.8 62.6 C 258.75 62.57 258.8 66.8 258.8 66.8 L 257.8 66.8 C 257.8 66.8 257.85 62.94 257.8 62.9 C 257.8 62.4 257.7 61.9 257 61.9 C 256.6 61.9 256.5 61.9 256.3 62.1 C 256 62.3 256 62.8 256 63.1 C 255.98 63.05 256 66.8 256 66.8 L 255.1 66.8 Z M 263.3 61.2 L 264.2 61.2 C 264.2 61.2 264.16 65.64 264.2 65.6 C 264.2 66 264.2 66.4 264.2 66.8 C 264.22 66.79 263.3 66.8 263.3 66.8 L 263.3 66.1 C 263.3 66.1 263.23 66.12 263.2 66.1 C 262.9 66.6 262.4 66.9 261.8 66.9 C 260.9 66.9 260.3 66.4 260.3 65.5 C 260.32 65.47 260.3 61.2 260.3 61.2 L 261.2 61.2 C 261.2 61.2 261.23 65.09 261.2 65.1 C 261.2 65.8 261.5 66.2 262.2 66.2 C 262.7 66.2 263.3 65.8 263.3 64.9 C 263.26 64.92 263.3 61.2 263.3 61.2 Z M 266.7 66.8 L 265.8 66.8 L 265.8 58.9 L 266.7 58.9 L 266.7 66.8 Z M 268.3 61.2 L 268.3 60.2 L 269.2 59.8 L 269.2 61.2 L 270.4 61.2 L 270.4 61.9 L 269.2 61.9 C 269.2 61.9 269.23 65.32 269.2 65.3 C 269.2 65.7 269.2 66.1 270.1 66.1 C 270.1 66.1 270.3 66.1 270.5 66.1 C 270.5 66.1 270.5 66.8 270.5 66.8 C 270.2 66.8 269.9 66.9 269.6 66.9 C 268.7 66.9 268.3 66.5 268.3 65.9 C 268.33 65.87 268.3 61.9 268.3 61.9 L 267.4 61.9 L 267.4 61.2 L 268.3 61.2 Z M 272.2 66.8 L 271.3 66.8 L 271.3 61.2 L 272.2 61.2 L 272.2 66.8 Z M 271.2 58.9 L 272.2 58.9 L 272.2 59.8 L 271.2 59.8 L 271.2 58.9 Z M 276.6 63 C 276.7 62.1 276.2 61.9 275.9 61.9 C 275.2 61.9 274.7 62.2 274.7 63.7 C 274.7 65.5 274.9 66.2 275.9 66.2 C 276.1 66.2 276.7 65.9 276.7 64.9 C 276.7 64.9 277.6 64.9 277.6 64.9 C 277.6 66.5 276.5 66.9 275.9 66.9 C 274.7 66.9 273.8 66.6 273.8 64.1 C 273.8 62.5 273.9 61.1 275.9 61.1 C 277 61.1 277.6 61.8 277.6 63 C 277.6 63 276.6 63 276.6 63 Z M 282.3 63.6 C 282.3 62 281.8 61.8 281.2 61.8 C 280.6 61.8 280.1 62.1 280.1 63.6 C 280.1 63.6 282.3 63.6 282.3 63.6 Z M 280.1 64.3 C 280.1 65.9 280.5 66.2 281.2 66.2 C 281.9 66.2 282.2 65.7 282.2 65.1 C 282.2 65.1 283.2 65.1 283.2 65.1 C 283.2 66.3 282.4 66.9 281.3 66.9 C 280.1 66.9 279.1 66.6 279.1 64.1 C 279.1 62.5 279.3 61.1 281.3 61.1 C 282.8 61.1 283.2 62 283.2 63.8 C 283.24 63.83 283.2 64.3 283.2 64.3 C 283.2 64.3 280.11 64.31 280.1 64.3 Z M 287.7 66.8 C 287.7 66.8 287.75 62.94 287.7 62.9 C 287.7 62.3 287.5 61.9 286.8 61.9 C 285.8 61.9 285.6 62.7 285.6 63.5 C 285.63 63.5 285.6 66.8 285.6 66.8 L 284.7 66.8 C 284.7 66.8 284.73 62.39 284.7 62.4 C 284.7 62 284.7 61.6 284.7 61.2 C 284.68 61.24 285.6 61.2 285.6 61.2 L 285.6 62 C 285.6 62 285.68 61.95 285.7 62 C 286 61.3 286.4 61.1 287.2 61.1 C 288.4 61.1 288.6 61.8 288.6 62.9 C 288.65 62.94 288.6 66.8 288.6 66.8 L 287.7 66.8 Z M 290.3 61.2 L 290.3 60.2 L 291.2 59.8 L 291.2 61.2 L 292.4 61.2 L 292.4 61.9 L 291.2 61.9 C 291.2 61.9 291.23 65.32 291.2 65.3 C 291.2 65.7 291.2 66.1 292.1 66.1 C 292.1 66.1 292.3 66.1 292.5 66.1 C 292.5 66.1 292.5 66.8 292.5 66.8 C 292.2 66.8 291.9 66.9 291.6 66.9 C 290.7 66.9 290.3 66.5 290.3 65.9 C 290.33 65.87 290.3 61.9 290.3 61.9 L 289.4 61.9 L 289.4 61.2 L 290.3 61.2 Z M 294.2 62.1 C 294.2 62.1 294.25 62.07 294.2 62.1 C 294.6 61.2 295.1 61.1 296 61.1 C 296 61.1 296 62.1 296 62.1 C 295.9 62.1 295.8 62 295.7 62 C 295.6 62 295.6 62 295.5 62 C 294.5 62 294.2 62.8 294.2 63.5 C 294.22 63.51 294.2 66.8 294.2 66.8 L 293.3 66.8 L 293.3 61.2 L 294.2 61.2 L 294.2 62.1 Z M 300 63.6 C 300 62 299.5 61.8 298.9 61.8 C 298.3 61.8 297.8 62.1 297.8 63.6 C 297.8 63.6 300 63.6 300 63.6 Z M 297.8 64.3 C 297.8 65.9 298.3 66.2 299 66.2 C 299.6 66.2 299.9 65.7 299.9 65.1 C 299.9 65.1 300.9 65.1 300.9 65.1 C 300.9 66.3 300.1 66.9 299 66.9 C 297.8 66.9 296.9 66.6 296.9 64.1 C 296.9 62.5 297.1 61.1 299 61.1 C 300.6 61.1 301 62 301 63.8 C 300.96 63.83 301 64.3 301 64.3 C 301 64.3 297.83 64.31 297.8 64.3 Z M 302.6 65.6 L 303.7 65.6 L 302.7 68.2 L 302 68.2 L 302.6 65.6 Z M 308.3 62.1 C 308.3 62.1 308.29 62.07 308.3 62.1 C 308.7 61.2 309.1 61.1 310 61.1 C 310 61.1 310 62.1 310 62.1 C 309.9 62.1 309.8 62 309.8 62 C 309.7 62 309.6 62 309.5 62 C 308.5 62 308.3 62.8 308.3 63.5 C 308.27 63.51 308.3 66.8 308.3 66.8 L 307.4 66.8 L 307.4 61.2 L 308.3 61.2 L 308.3 62.1 Z M 311.8 65.1 C 311.8 65.7 312.1 66.2 312.7 66.2 C 313.2 66.2 313.9 65.8 313.8 64 C 313 64 311.8 64 311.8 65.1 Z M 313.9 66 C 313.9 66 313.84 65.99 313.8 66 C 313.6 66.6 313.1 66.9 312.4 66.9 C 311.3 66.9 310.9 66.1 310.9 65.1 C 310.9 63.4 312.6 63.3 313.8 63.4 C 313.9 62.6 313.9 61.8 312.9 61.8 C 312.3 61.8 312 62.2 312 62.8 C 312 62.8 311.1 62.8 311.1 62.8 C 311.1 61.6 311.8 61.1 312.9 61.1 C 314.4 61.1 314.7 61.9 314.7 62.8 C 314.7 62.8 314.7 65.5 314.7 65.5 C 314.7 65.9 314.8 66.4 314.8 66.8 C 314.85 66.79 313.9 66.8 313.9 66.8 L 313.9 66 Z M 319.5 66.8 C 319.5 66.8 319.51 62.94 319.5 62.9 C 319.5 62.3 319.3 61.9 318.5 61.9 C 317.5 61.9 317.4 62.7 317.4 63.5 C 317.4 63.5 317.4 66.8 317.4 66.8 L 316.5 66.8 C 316.5 66.8 316.5 62.39 316.5 62.4 C 316.5 62 316.5 61.6 316.4 61.2 C 316.45 61.24 317.4 61.2 317.4 61.2 L 317.4 62 C 317.4 62 317.45 61.95 317.4 62 C 317.8 61.3 318.2 61.1 318.9 61.1 C 320.1 61.1 320.4 61.8 320.4 62.9 C 320.42 62.94 320.4 66.8 320.4 66.8 L 319.5 66.8 Z M 323.9 61.9 C 322.9 61.9 322.8 62.6 322.8 64.1 C 322.8 65 322.8 66.2 323.9 66.2 C 324.9 66.2 324.9 64.9 324.9 63.8 C 324.9 63.1 324.9 61.9 323.9 61.9 Z M 324.9 58.9 L 325.8 58.9 L 325.8 66.8 L 324.9 66.8 L 324.9 66.1 C 324.9 66.1 324.92 66.13 324.9 66.1 C 324.6 66.6 324.2 66.9 323.6 66.9 C 322.7 66.9 321.8 66.6 321.8 64.1 C 321.8 62.7 321.9 61.1 323.7 61.1 C 324.2 61.1 324.6 61.4 324.9 61.8 C 324.9 61.8 324.9 61.8 324.9 61.8 L 324.9 58.9 Z M 330.6 63.7 C 330.6 62.2 330.2 61.9 329.5 61.9 C 328.8 61.9 328.3 62.2 328.3 63.7 C 328.3 65.5 328.5 66.2 329.5 66.2 C 330.4 66.2 330.6 65.5 330.6 63.7 Z M 327.3 64.1 C 327.3 62.5 327.5 61.1 329.5 61.1 C 331.4 61.1 331.6 62.5 331.6 64.1 C 331.6 66.6 330.6 66.9 329.5 66.9 C 328.3 66.9 327.3 66.6 327.3 64.1 Z M 335.7 66.8 C 335.7 66.8 335.73 62.94 335.7 62.9 C 335.7 62.4 335.6 61.9 334.8 61.9 C 334.6 61.9 334.2 62 334.1 62.2 C 333.9 62.5 333.9 62.8 333.9 63.1 C 333.86 63.05 333.9 66.8 333.9 66.8 L 333 66.8 C 333 66.8 332.96 62.39 333 62.4 C 333 62 332.9 61.6 332.9 61.2 C 332.9 61.24 333.9 61.2 333.9 61.2 L 333.9 61.9 C 333.9 61.9 333.88 61.93 333.9 61.9 C 334.1 61.3 334.6 61.1 335.3 61.1 C 335.8 61.1 336.4 61.3 336.6 61.8 C 336.9 61.2 337.4 61.1 337.9 61.1 C 338.5 61.1 339.4 61.3 339.4 62.6 C 339.4 62.57 339.4 66.8 339.4 66.8 L 338.5 66.8 C 338.5 66.8 338.5 62.94 338.5 62.9 C 338.5 62.4 338.3 61.9 337.6 61.9 C 337.3 61.9 337.2 61.9 336.9 62.1 C 336.7 62.3 336.6 62.8 336.6 63.1 C 336.63 63.05 336.6 66.8 336.6 66.8 L 335.7 66.8 Z M 341.8 66.8 L 340.9 66.8 L 340.9 61.2 L 341.8 61.2 L 341.8 66.8 Z M 340.9 58.9 L 341.9 58.9 L 341.9 59.8 L 340.9 59.8 L 340.9 58.9 Z M 345 66.9 C 343.8 66.9 343.1 66.4 343.1 65.1 C 343.1 65.1 344.1 65.1 344.1 65.1 C 344.1 65.4 344.1 66.2 345.1 66.2 C 345.6 66.2 346 65.9 346 65.3 C 346 64.3 343.2 64.3 343.2 62.6 C 343.2 62.1 343.6 61.1 345.2 61.1 C 346.1 61.1 347 61.6 346.9 62.7 C 346.9 62.7 345.9 62.7 345.9 62.7 C 345.9 62.1 345.6 61.8 345 61.8 C 344.6 61.8 344.2 62.1 344.2 62.6 C 344.2 63.5 347 63.5 347 65.2 C 347 66.4 346.1 66.9 345 66.9 Z M 351.3 63.6 C 351.3 62 350.9 61.8 350.2 61.8 C 349.6 61.8 349.2 62.1 349.1 63.6 C 349.1 63.6 351.3 63.6 351.3 63.6 Z M 349.1 64.3 C 349.1 65.9 349.6 66.2 350.3 66.2 C 350.9 66.2 351.2 65.7 351.2 65.1 C 351.2 65.1 352.2 65.1 352.2 65.1 C 352.2 66.3 351.5 66.9 350.3 66.9 C 349.1 66.9 348.2 66.6 348.2 64.1 C 348.2 62.5 348.4 61.1 350.3 61.1 C 351.9 61.1 352.3 62 352.3 63.8 C 352.27 63.83 352.3 64.3 352.3 64.3 C 352.3 64.3 349.15 64.31 349.1 64.3 Z M 355.7 61.9 C 354.7 61.9 354.6 62.6 354.6 64.1 C 354.6 65 354.6 66.2 355.7 66.2 C 356.7 66.2 356.7 64.9 356.7 63.8 C 356.7 63.1 356.7 61.9 355.7 61.9 Z M 356.7 58.9 L 357.6 58.9 L 357.6 66.8 L 356.7 66.8 L 356.7 66.1 C 356.7 66.1 356.68 66.13 356.7 66.1 C 356.4 66.6 356 66.9 355.4 66.9 C 354.5 66.9 353.6 66.6 353.6 64.1 C 353.6 62.7 353.7 61.1 355.5 61.1 C 356 61.1 356.4 61.4 356.7 61.8 C 356.67 61.8 356.7 61.8 356.7 61.8 L 356.7 58.9 Z M 359.4 65.6 L 360.6 65.6 L 359.6 68.2 L 358.9 68.2 L 359.4 65.6 Z M 366 61.9 C 365.1 61.9 364.9 62.6 364.9 64.1 C 364.9 65 364.9 66.2 366.1 66.2 C 367.1 66.2 367.1 64.9 367.1 63.8 C 367.1 63.1 367 61.9 366 61.9 Z M 367.1 58.9 L 368 58.9 L 368 66.8 L 367.1 66.8 L 367.1 66.1 C 367.1 66.1 367.07 66.13 367.1 66.1 C 366.8 66.6 366.4 66.9 365.8 66.9 C 364.9 66.9 364 66.6 364 64.1 C 364 62.7 364 61.1 365.8 61.1 C 366.4 61.1 366.7 61.4 367.1 61.8 C 367.06 61.8 367.1 61.8 367.1 61.8 L 367.1 58.9 Z M 372.8 63.7 C 372.8 62.2 372.3 61.9 371.6 61.9 C 370.9 61.9 370.4 62.2 370.4 63.7 C 370.4 65.5 370.7 66.2 371.6 66.2 C 372.5 66.2 372.8 65.5 372.8 63.7 Z M 369.5 64.1 C 369.5 62.5 369.7 61.1 371.6 61.1 C 373.5 61.1 373.7 62.5 373.7 64.1 C 373.7 66.6 372.8 66.9 371.6 66.9 C 370.4 66.9 369.5 66.6 369.5 64.1 Z M 378.1 61.2 L 379 61.2 C 379 61.2 379.02 65.64 379 65.6 C 379 66 379 66.4 379.1 66.8 C 379.08 66.79 378.1 66.8 378.1 66.8 L 378.1 66.1 C 378.1 66.1 378.09 66.12 378.1 66.1 C 377.8 66.6 377.3 66.9 376.7 66.9 C 375.7 66.9 375.2 66.4 375.2 65.5 C 375.18 65.47 375.2 61.2 375.2 61.2 L 376.1 61.2 C 376.1 61.2 376.09 65.09 376.1 65.1 C 376.1 65.8 376.4 66.2 377 66.2 C 377.5 66.2 378.1 65.8 378.1 64.9 C 378.12 64.92 378.1 61.2 378.1 61.2 Z M 382.6 66.2 C 383.8 66.2 383.8 65 383.8 64.1 C 383.8 62.6 383.6 61.9 382.7 61.9 C 381.7 61.9 381.6 63.1 381.6 63.8 C 381.6 64.6 381.5 66.2 382.6 66.2 Z M 381.6 66.8 L 380.7 66.8 L 380.7 58.9 L 381.6 58.9 L 381.6 61.8 C 381.6 61.8 381.66 61.8 381.7 61.8 C 382 61.4 382.4 61.1 382.9 61.1 C 384.7 61.1 384.7 62.7 384.7 64.1 C 384.7 66.6 383.8 66.9 382.9 66.9 C 382.3 66.9 382 66.6 381.7 66.1 C 381.65 66.13 381.6 66.1 381.6 66.1 L 381.6 66.8 Z M 387 66.8 L 386.1 66.8 L 386.1 58.9 L 387 58.9 L 387 66.8 Z M 391.6 63.6 C 391.6 62 391.2 61.8 390.5 61.8 C 390 61.8 389.5 62.1 389.5 63.6 C 389.5 63.6 391.6 63.6 391.6 63.6 Z M 389.5 64.3 C 389.5 65.9 389.9 66.2 390.6 66.2 C 391.2 66.2 391.5 65.7 391.6 65.1 C 391.6 65.1 392.6 65.1 392.6 65.1 C 392.5 66.3 391.8 66.9 390.6 66.9 C 389.4 66.9 388.5 66.6 388.5 64.1 C 388.5 62.5 388.7 61.1 390.6 61.1 C 392.2 61.1 392.6 62 392.6 63.8 C 392.6 63.83 392.6 64.3 392.6 64.3 C 392.6 64.3 389.47 64.31 389.5 64.3 Z M 393.9 63.4 L 396.3 63.4 L 396.3 64.2 L 393.9 64.2 L 393.9 63.4 Z M 399.7 66.2 C 400.9 66.2 400.9 65 400.9 64.1 C 400.9 62.6 400.7 61.9 399.8 61.9 C 398.8 61.9 398.7 63.1 398.7 63.8 C 398.7 64.6 398.6 66.2 399.7 66.2 Z M 398.7 66.8 L 397.8 66.8 L 397.8 58.9 L 398.7 58.9 L 398.7 61.8 C 398.7 61.8 398.77 61.8 398.8 61.8 C 399.1 61.4 399.5 61.1 400 61.1 C 401.8 61.1 401.8 62.7 401.8 64.1 C 401.8 66.6 400.9 66.9 400 66.9 C 399.4 66.9 399.1 66.6 398.8 66.1 C 398.76 66.13 398.7 66.1 398.7 66.1 L 398.7 66.8 Z M 404.1 66.8 L 403.2 66.8 L 403.2 58.9 L 404.1 58.9 L 404.1 66.8 Z M 406.6 66.8 L 405.7 66.8 L 405.7 61.2 L 406.6 61.2 L 406.6 66.8 Z M 405.6 58.9 L 406.6 58.9 L 406.6 59.8 L 405.6 59.8 L 405.6 58.9 Z M 411.2 66.8 C 411.2 66.8 411.15 62.94 411.2 62.9 C 411.2 62.3 410.9 61.9 410.2 61.9 C 409.2 61.9 409 62.7 409 63.5 C 409.04 63.5 409 66.8 409 66.8 L 408.1 66.8 C 408.1 66.8 408.14 62.39 408.1 62.4 C 408.1 62 408.1 61.6 408.1 61.2 C 408.09 61.24 409 61.2 409 61.2 L 409 62 C 409 62 409.08 61.95 409.1 62 C 409.4 61.3 409.9 61.1 410.6 61.1 C 411.8 61.1 412.1 61.8 412.1 62.9 C 412.05 62.94 412.1 66.8 412.1 66.8 L 411.2 66.8 Z M 415.5 61.9 C 414.6 61.9 414.4 62.6 414.4 64.1 C 414.4 65 414.4 66.2 415.6 66.2 C 416.6 66.2 416.6 64.9 416.6 63.8 C 416.6 63.1 416.5 61.9 415.5 61.9 Z M 416.6 58.9 L 417.5 58.9 L 417.5 66.8 L 416.6 66.8 L 416.6 66.1 C 416.6 66.1 416.56 66.13 416.6 66.1 C 416.2 66.6 415.9 66.9 415.3 66.9 C 414.4 66.9 413.5 66.6 413.5 64.1 C 413.5 62.7 413.5 61.1 415.3 61.1 C 415.9 61.1 416.2 61.4 416.5 61.8 C 416.54 61.8 416.6 61.8 416.6 61.8 L 416.6 58.9 Z M 419.3 65.6 L 420.4 65.6 L 419.4 68.2 L 418.7 68.2 L 419.3 65.6 Z " stroke="none" fill="#fff"/>  </g>  <g id="Polygon195212">    <path d="M 35.2 53.6 L 34.2 53.6 L 34.2 47.1 L 33 47.8 C 33 47.8 33.02 46.87 33 46.9 C 33.3 46.8 34 46.2 34.3 46 C 34.31 45.96 35.2 46 35.2 46 L 35.2 53.6 Z M 38.6 53.6 L 37.6 53.6 L 37.6 52.4 L 38.6 52.4 L 38.6 53.6 Z M 46.2 47.8 C 46.2 47.4 46.1 46.9 45.9 46.7 C 45.7 46.4 45.2 46.3 45 46.3 C 44.2 46.3 43.9 46.8 43.8 47 C 43.8 47 43.6 47.2 43.6 48.6 C 43.6 48.6 43.6 50.7 43.6 50.7 C 43.6 52.7 44.2 52.9 45 52.9 C 45.3 52.9 46.3 52.8 46.3 51.3 C 46.3 51.3 47.3 51.3 47.3 51.3 C 47.4 53.8 45.6 53.8 45.1 53.8 C 44.1 53.8 42.6 53.7 42.6 50.6 C 42.6 50.6 42.6 48.4 42.6 48.4 C 42.6 46.1 43.6 45.5 45.1 45.5 C 46.7 45.5 47.3 46.3 47.2 47.8 C 47.2 47.8 46.2 47.8 46.2 47.8 Z M 49.6 48.9 C 49.6 48.9 49.63 48.87 49.6 48.9 C 50 48 50.5 47.9 51.3 47.9 C 51.3 47.9 51.3 48.9 51.3 48.9 C 51.3 48.9 51.2 48.8 51.1 48.8 C 51 48.8 51 48.8 50.9 48.8 C 49.9 48.8 49.6 49.6 49.6 50.3 C 49.61 50.31 49.6 53.6 49.6 53.6 L 48.7 53.6 L 48.7 48 L 49.6 48 L 49.6 48.9 Z M 53.2 51.9 C 53.2 52.5 53.4 53 54 53 C 54.6 53 55.3 52.6 55.2 50.8 C 54.3 50.8 53.2 50.8 53.2 51.9 Z M 55.2 52.8 C 55.2 52.8 55.18 52.79 55.2 52.8 C 54.9 53.4 54.5 53.7 53.8 53.7 C 52.6 53.7 52.3 52.9 52.3 51.9 C 52.3 50.2 53.9 50.1 55.2 50.2 C 55.2 49.4 55.2 48.6 54.2 48.6 C 53.6 48.6 53.3 49 53.4 49.6 C 53.4 49.6 52.4 49.6 52.4 49.6 C 52.4 48.4 53.1 47.9 54.3 47.9 C 55.7 47.9 56.1 48.7 56.1 49.6 C 56.1 49.6 56.1 52.3 56.1 52.3 C 56.1 52.7 56.1 53.2 56.2 53.6 C 56.19 53.59 55.2 53.6 55.2 53.6 L 55.2 52.8 Z M 58.7 53.6 L 57.8 53.6 L 57.8 48 L 58.7 48 L 58.7 53.6 Z M 57.8 45.7 L 58.8 45.7 L 58.8 46.6 L 57.8 46.6 L 57.8 45.7 Z M 62.2 48.7 C 61.1 48.7 61.1 49.9 61.1 50.6 C 61.1 52.4 61.5 52.8 62.2 52.8 C 63.3 52.8 63.2 51.6 63.2 50.8 C 63.2 50 63.3 48.7 62.2 48.7 Z M 63.2 48 L 64.1 48 C 64.1 48 64.12 54.15 64.1 54.2 C 64.1 55.4 63.3 55.7 62.1 55.7 C 61.1 55.7 60.3 55.2 60.4 54.2 C 60.4 54.2 61.4 54.2 61.4 54.2 C 61.4 54.7 61.8 55 62.2 55 C 62.9 55 63.2 54.6 63.2 54.1 C 63.22 54.05 63.2 52.9 63.2 52.9 C 63.2 52.9 63.18 52.9 63.2 52.9 C 63 53.3 62.4 53.6 62 53.6 C 60.5 53.6 60.2 52.3 60.2 50.6 C 60.2 48.1 61.4 47.9 61.9 47.9 C 62.5 47.9 62.9 48.2 63.2 48.7 C 63.2 48.72 63.2 48.7 63.2 48.7 L 63.2 48 Z M 68.8 51.1 C 68.8 51.8 68.7 52.9 69.8 52.9 C 70.9 52.9 70.9 52 70.9 51 C 70.93 51.02 70.9 45.7 70.9 45.7 L 71.9 45.7 C 71.9 45.7 71.94 51.62 71.9 51.6 C 71.9 52.1 71.9 53.8 69.8 53.8 C 69.3 53.8 68.5 53.6 68.1 53 C 67.8 52.4 67.8 51.8 67.8 51.1 C 67.8 51.1 68.8 51.1 68.8 51.1 Z M 73.9 52.4 L 75 52.4 L 74 55 L 73.3 55 L 73.9 52.4 Z M 81.7 50.4 C 81.7 48.8 81.2 48.6 80.5 48.6 C 80 48.6 79.5 48.9 79.5 50.4 C 79.5 50.4 81.7 50.4 81.7 50.4 Z M 79.5 51.1 C 79.5 52.7 79.9 53 80.6 53 C 81.2 53 81.5 52.5 81.6 51.9 C 81.6 51.9 82.6 51.9 82.6 51.9 C 82.6 53.1 81.8 53.7 80.6 53.7 C 79.5 53.7 78.5 53.4 78.5 50.9 C 78.5 49.3 78.7 47.9 80.6 47.9 C 82.2 47.9 82.6 48.8 82.6 50.6 C 82.61 50.63 82.6 51.1 82.6 51.1 C 82.6 51.1 79.49 51.11 79.5 51.1 Z M 84.2 48 L 84.2 47 L 85.1 46.6 L 85.1 48 L 86.3 48 L 86.3 48.7 L 85.1 48.7 C 85.1 48.7 85.11 52.12 85.1 52.1 C 85.1 52.5 85.1 52.9 85.9 52.9 C 86 52.9 86.1 52.9 86.3 52.9 C 86.3 52.9 86.3 53.6 86.3 53.6 C 86 53.6 85.7 53.7 85.4 53.7 C 84.6 53.7 84.2 53.3 84.2 52.7 C 84.21 52.67 84.2 48.7 84.2 48.7 L 83.3 48.7 L 83.3 48 L 84.2 48 Z M 90.4 51.9 C 90.4 52.5 90.7 53 91.3 53 C 91.8 53 92.5 52.6 92.4 50.8 C 91.6 50.8 90.4 50.8 90.4 51.9 Z M 92.5 52.8 C 92.5 52.8 92.44 52.79 92.4 52.8 C 92.2 53.4 91.7 53.7 91 53.7 C 89.9 53.7 89.5 52.9 89.5 51.9 C 89.5 50.2 91.2 50.1 92.4 50.2 C 92.5 49.4 92.5 48.6 91.5 48.6 C 90.9 48.6 90.6 49 90.6 49.6 C 90.6 49.6 89.7 49.6 89.7 49.6 C 89.7 48.4 90.4 47.9 91.5 47.9 C 93 47.9 93.3 48.7 93.3 49.6 C 93.3 49.6 93.3 52.3 93.3 52.3 C 93.3 52.7 93.4 53.2 93.5 53.6 C 93.45 53.59 92.5 53.6 92.5 53.6 L 92.5 52.8 Z M 96 53.6 L 95.1 53.6 L 95.1 45.7 L 96 45.7 L 96 53.6 Z M 98.5 53.6 L 97.5 53.6 L 97.5 52.4 L 98.5 52.4 L 98.5 53.6 Z M 102.5 53.6 L 102.5 45.7 L 106.6 45.7 L 106.6 46.5 L 103.5 46.5 L 103.5 49.1 L 106.4 49.1 L 106.4 50 L 103.5 50 L 103.5 52.7 L 106.7 52.7 L 106.7 53.6 L 102.5 53.6 Z M 108.1 48 C 108.1 48 108.1 46.96 108.1 47 C 108.1 45.8 108.9 45.6 109.7 45.6 C 109.9 45.6 110 45.6 110.1 45.7 C 110.1 45.7 110.1 46.3 110.1 46.3 C 109.2 46.2 109 46.6 109 47.1 C 109 47.09 109 48 109 48 L 110.1 48 L 110.1 48.7 L 109 48.7 L 109 53.6 L 108.1 53.6 L 108.1 48.7 L 107.2 48.7 L 107.2 48 L 108.1 48 Z M 114.8 53.6 L 113.9 53.6 L 113.9 48 L 114.8 48 L 114.8 53.6 Z M 113.9 45.7 L 114.9 45.7 L 114.9 46.6 L 113.9 46.6 L 113.9 45.7 Z M 111.2 48 C 111.2 48 111.15 46.96 111.2 47 C 111.2 45.8 111.9 45.6 112.7 45.6 C 112.9 45.6 113 45.6 113.2 45.7 C 113.2 45.7 113.2 46.3 113.2 46.3 C 112.2 46.2 112.1 46.6 112.1 47.1 C 112.06 47.09 112.1 48 112.1 48 L 113.2 48 L 113.2 48.7 L 112.1 48.7 L 112.1 53.6 L 111.2 53.6 L 111.2 48.7 L 110.3 48.7 L 110.3 48 L 111.2 48 Z M 119.4 49.8 C 119.4 48.9 119 48.7 118.6 48.7 C 117.9 48.7 117.5 49 117.5 50.5 C 117.5 52.3 117.7 53 118.6 53 C 118.8 53 119.5 52.7 119.4 51.7 C 119.4 51.7 120.4 51.7 120.4 51.7 C 120.4 53.3 119.2 53.7 118.6 53.7 C 117.4 53.7 116.5 53.4 116.5 50.9 C 116.5 49.3 116.7 47.9 118.6 47.9 C 119.7 47.9 120.4 48.6 120.3 49.8 C 120.3 49.8 119.4 49.8 119.4 49.8 Z M 122.8 51.9 C 122.8 52.5 123.1 53 123.7 53 C 124.2 53 124.9 52.6 124.8 50.8 C 124 50.8 122.8 50.8 122.8 51.9 Z M 124.8 52.8 C 124.8 52.8 124.83 52.79 124.8 52.8 C 124.6 53.4 124.1 53.7 123.4 53.7 C 122.3 53.7 121.9 52.9 121.9 51.9 C 121.9 50.2 123.6 50.1 124.8 50.2 C 124.8 49.4 124.9 48.6 123.9 48.6 C 123.3 48.6 123 49 123 49.6 C 123 49.6 122 49.6 122 49.6 C 122.1 48.4 122.7 47.9 123.9 47.9 C 125.4 47.9 125.7 48.7 125.7 49.6 C 125.7 49.6 125.7 52.3 125.7 52.3 C 125.7 52.7 125.8 53.2 125.8 53.6 C 125.84 53.59 124.8 53.6 124.8 53.6 L 124.8 52.8 Z M 130.4 49.8 C 130.4 48.9 130 48.7 129.6 48.7 C 128.9 48.7 128.5 49 128.5 50.5 C 128.5 52.3 128.7 53 129.6 53 C 129.8 53 130.5 52.7 130.4 51.7 C 130.4 51.7 131.4 51.7 131.4 51.7 C 131.4 53.3 130.2 53.7 129.6 53.7 C 128.4 53.7 127.5 53.4 127.5 50.9 C 127.5 49.3 127.7 47.9 129.6 47.9 C 130.7 47.9 131.4 48.6 131.3 49.8 C 131.3 49.8 130.4 49.8 130.4 49.8 Z M 134.7 52.6 L 134.7 52.6 L 136 48 L 137 48 L 134.5 55.7 L 133.5 55.7 L 134.2 53.6 L 132.3 48 L 133.3 48 L 134.7 52.6 Z M 141.1 51.9 C 141.1 52.5 141.4 53 142 53 C 142.6 53 143.2 52.6 143.2 50.8 C 142.3 50.8 141.1 50.8 141.1 51.9 Z M 143.2 52.8 C 143.2 52.8 143.15 52.79 143.2 52.8 C 142.9 53.4 142.4 53.7 141.8 53.7 C 140.6 53.7 140.2 52.9 140.2 51.9 C 140.2 50.2 141.9 50.1 143.2 50.2 C 143.2 49.4 143.2 48.6 142.2 48.6 C 141.6 48.6 141.3 49 141.3 49.6 C 141.3 49.6 140.4 49.6 140.4 49.6 C 140.4 48.4 141.1 47.9 142.3 47.9 C 143.7 47.9 144.1 48.7 144.1 49.6 C 144.1 49.6 144.1 52.3 144.1 52.3 C 144.1 52.7 144.1 53.2 144.2 53.6 C 144.16 53.59 143.2 53.6 143.2 53.6 L 143.2 52.8 Z M 148.8 53.6 C 148.8 53.6 148.83 49.74 148.8 49.7 C 148.8 49.1 148.6 48.7 147.8 48.7 C 146.9 48.7 146.7 49.5 146.7 50.3 C 146.72 50.3 146.7 53.6 146.7 53.6 L 145.8 53.6 C 145.8 53.6 145.82 49.19 145.8 49.2 C 145.8 48.8 145.8 48.4 145.8 48 C 145.76 48.04 146.7 48 146.7 48 L 146.7 48.8 C 146.7 48.8 146.76 48.75 146.8 48.8 C 147.1 48.1 147.5 47.9 148.2 47.9 C 149.4 47.9 149.7 48.6 149.7 49.7 C 149.73 49.74 149.7 53.6 149.7 53.6 L 148.8 53.6 Z M 153.2 48.7 C 152.2 48.7 152.1 49.4 152.1 50.9 C 152.1 51.8 152.1 53 153.2 53 C 154.3 53 154.3 51.7 154.3 50.6 C 154.3 49.9 154.2 48.7 153.2 48.7 Z M 154.3 45.7 L 155.2 45.7 L 155.2 53.6 L 154.3 53.6 L 154.3 52.9 C 154.3 52.9 154.23 52.93 154.2 52.9 C 153.9 53.4 153.5 53.7 153 53.7 C 152.1 53.7 151.2 53.4 151.2 50.9 C 151.2 49.5 151.2 47.9 153 47.9 C 153.5 47.9 153.9 48.2 154.2 48.6 C 154.22 48.6 154.3 48.6 154.3 48.6 L 154.3 45.7 Z M 160.9 53.7 C 159.7 53.7 158.9 53.2 159 51.9 C 159 51.9 160 51.9 160 51.9 C 160 52.2 160 53 160.9 53 C 161.5 53 161.9 52.7 161.9 52.1 C 161.9 51.1 159.1 51.1 159.1 49.4 C 159.1 48.9 159.5 47.9 161 47.9 C 162 47.9 162.9 48.4 162.8 49.5 C 162.8 49.5 161.8 49.5 161.8 49.5 C 161.8 48.9 161.5 48.6 160.9 48.6 C 160.4 48.6 160.1 48.9 160.1 49.4 C 160.1 50.3 162.8 50.3 162.8 52 C 162.8 53.2 162 53.7 160.9 53.7 Z M 165 51.9 C 165 52.5 165.2 53 165.8 53 C 166.4 53 167.1 52.6 167 50.8 C 166.1 50.8 165 50.8 165 51.9 Z M 167 52.8 C 167 52.8 166.98 52.79 167 52.8 C 166.7 53.4 166.3 53.7 165.6 53.7 C 164.4 53.7 164.1 52.9 164.1 51.9 C 164.1 50.2 165.7 50.1 167 50.2 C 167 49.4 167 48.6 166 48.6 C 165.4 48.6 165.1 49 165.2 49.6 C 165.2 49.6 164.2 49.6 164.2 49.6 C 164.2 48.4 164.9 47.9 166.1 47.9 C 167.5 47.9 167.9 48.7 167.9 49.6 C 167.9 49.6 167.9 52.3 167.9 52.3 C 167.9 52.7 167.9 53.2 168 53.6 C 167.99 53.59 167 53.6 167 53.6 L 167 52.8 Z M 169.8 48 C 169.8 48 169.81 46.96 169.8 47 C 169.8 45.8 170.6 45.6 171.4 45.6 C 171.6 45.6 171.7 45.6 171.8 45.7 C 171.8 45.7 171.8 46.3 171.8 46.3 C 170.9 46.2 170.7 46.6 170.7 47.1 C 170.71 47.09 170.7 48 170.7 48 L 171.8 48 L 171.8 48.7 L 170.7 48.7 L 170.7 53.6 L 169.8 53.6 L 169.8 48.7 L 168.9 48.7 L 168.9 48 L 169.8 48 Z M 175.7 50.4 C 175.7 48.8 175.3 48.6 174.6 48.6 C 174.1 48.6 173.6 48.9 173.6 50.4 C 173.6 50.4 175.7 50.4 175.7 50.4 Z M 173.6 51.1 C 173.6 52.7 174 53 174.7 53 C 175.3 53 175.6 52.5 175.7 51.9 C 175.7 51.9 176.7 51.9 176.7 51.9 C 176.6 53.1 175.9 53.7 174.7 53.7 C 173.5 53.7 172.6 53.4 172.6 50.9 C 172.6 49.3 172.8 47.9 174.7 47.9 C 176.3 47.9 176.7 48.8 176.7 50.6 C 176.7 50.63 176.7 51.1 176.7 51.1 C 176.7 51.1 173.58 51.11 173.6 51.1 Z M 178.3 48 L 178.3 47 L 179.2 46.6 L 179.2 48 L 180.4 48 L 180.4 48.7 L 179.2 48.7 C 179.2 48.7 179.2 52.12 179.2 52.1 C 179.2 52.5 179.2 52.9 180 52.9 C 180.1 52.9 180.2 52.9 180.4 52.9 C 180.4 52.9 180.4 53.6 180.4 53.6 C 180.1 53.6 179.8 53.7 179.5 53.7 C 178.7 53.7 178.3 53.3 178.3 52.7 C 178.3 52.67 178.3 48.7 178.3 48.7 L 177.4 48.7 L 177.4 48 L 178.3 48 Z M 182.9 52.6 L 183 52.6 L 184.3 48 L 185.3 48 L 182.7 55.7 L 181.8 55.7 L 182.4 53.6 L 180.6 48 L 181.6 48 L 182.9 52.6 Z M 191.7 50.5 C 191.7 49 191.2 48.7 190.5 48.7 C 189.8 48.7 189.4 49 189.4 50.5 C 189.4 52.3 189.6 53 190.5 53 C 191.5 53 191.7 52.3 191.7 50.5 Z M 188.4 50.9 C 188.4 49.3 188.6 47.9 190.5 47.9 C 192.5 47.9 192.7 49.3 192.7 50.9 C 192.7 53.4 191.7 53.7 190.5 53.7 C 189.4 53.7 188.4 53.4 188.4 50.9 Z M 194.2 48 C 194.2 48 194.25 46.96 194.2 47 C 194.2 45.8 195 45.6 195.8 45.6 C 196 45.6 196.1 45.6 196.3 45.7 C 196.3 45.7 196.3 46.3 196.3 46.3 C 195.3 46.2 195.1 46.6 195.1 47.1 C 195.15 47.09 195.1 48 195.1 48 L 196.3 48 L 196.3 48.7 L 195.1 48.7 L 195.1 53.6 L 194.2 53.6 L 194.2 48.7 L 193.4 48.7 L 193.4 48 L 194.2 48 Z M 201.5 48.7 C 200.4 48.7 200.4 49.9 200.4 50.6 C 200.4 52.4 200.8 52.8 201.5 52.8 C 202.6 52.8 202.5 51.6 202.5 50.8 C 202.5 50 202.6 48.7 201.5 48.7 Z M 202.5 48 L 203.4 48 C 203.4 48 203.42 54.15 203.4 54.2 C 203.4 55.4 202.6 55.7 201.4 55.7 C 200.5 55.7 199.6 55.2 199.7 54.2 C 199.7 54.2 200.7 54.2 200.7 54.2 C 200.7 54.7 201.1 55 201.6 55 C 202.2 55 202.5 54.6 202.5 54.1 C 202.52 54.05 202.5 52.9 202.5 52.9 C 202.5 52.9 202.49 52.9 202.5 52.9 C 202.3 53.3 201.7 53.6 201.3 53.6 C 199.8 53.6 199.5 52.3 199.5 50.6 C 199.5 48.1 200.7 47.9 201.2 47.9 C 201.8 47.9 202.2 48.2 202.5 48.7 C 202.5 48.72 202.5 48.7 202.5 48.7 L 202.5 48 Z M 205.9 51.9 C 205.9 52.5 206.2 53 206.8 53 C 207.3 53 208 52.6 207.9 50.8 C 207.1 50.8 205.9 50.8 205.9 51.9 Z M 207.9 52.8 C 207.9 52.8 207.92 52.79 207.9 52.8 C 207.6 53.4 207.2 53.7 206.5 53.7 C 205.3 53.7 205 52.9 205 51.9 C 205 50.2 206.7 50.1 207.9 50.2 C 207.9 49.4 208 48.6 207 48.6 C 206.4 48.6 206.1 49 206.1 49.6 C 206.1 49.6 205.1 49.6 205.1 49.6 C 205.2 48.4 205.8 47.9 207 47.9 C 208.4 47.9 208.8 48.7 208.8 49.6 C 208.8 49.6 208.8 52.3 208.8 52.3 C 208.8 52.7 208.9 53.2 208.9 53.6 C 208.93 53.59 207.9 53.6 207.9 53.6 L 207.9 52.8 Z M 211.5 48.9 C 211.5 48.9 211.54 48.87 211.5 48.9 C 211.9 48 212.4 47.9 213.3 47.9 C 213.3 47.9 213.3 48.9 213.3 48.9 C 213.2 48.9 213.1 48.8 213 48.8 C 212.9 48.8 212.9 48.8 212.8 48.8 C 211.8 48.8 211.5 49.6 211.5 50.3 C 211.52 50.31 211.5 53.6 211.5 53.6 L 210.6 53.6 L 210.6 48 L 211.5 48 L 211.5 48.9 Z M 215.1 51.9 C 215.1 52.5 215.3 53 215.9 53 C 216.5 53 217.2 52.6 217.1 50.8 C 216.2 50.8 215.1 50.8 215.1 51.9 Z M 217.1 52.8 C 217.1 52.8 217.08 52.79 217.1 52.8 C 216.8 53.4 216.4 53.7 215.7 53.7 C 214.5 53.7 214.2 52.9 214.2 51.9 C 214.2 50.2 215.8 50.1 217.1 50.2 C 217.1 49.4 217.1 48.6 216.1 48.6 C 215.5 48.6 215.2 49 215.3 49.6 C 215.3 49.6 214.3 49.6 214.3 49.6 C 214.3 48.4 215 47.9 216.2 47.9 C 217.6 47.9 218 48.7 218 49.6 C 218 49.6 218 52.3 218 52.3 C 218 52.7 218 53.2 218.1 53.6 C 218.09 53.59 217.1 53.6 217.1 53.6 L 217.1 52.8 Z M 221.6 48.7 C 220.7 48.7 220.5 49.4 220.5 50.9 C 220.5 51.8 220.5 53 221.7 53 C 222.7 53 222.7 51.7 222.7 50.6 C 222.7 49.9 222.6 48.7 221.6 48.7 Z M 222.7 45.7 L 223.6 45.7 L 223.6 53.6 L 222.7 53.6 L 222.7 52.9 C 222.7 52.9 222.66 52.93 222.7 52.9 C 222.4 53.4 222 53.7 221.4 53.7 C 220.5 53.7 219.6 53.4 219.6 50.9 C 219.6 49.5 219.6 47.9 221.4 47.9 C 222 47.9 222.3 48.2 222.6 48.6 C 222.65 48.6 222.7 48.6 222.7 48.6 L 222.7 45.7 Z M 226.1 51.9 C 226.1 52.5 226.3 53 226.9 53 C 227.5 53 228.2 52.6 228.1 50.8 C 227.2 50.8 226.1 50.8 226.1 51.9 Z M 228.1 52.8 C 228.1 52.8 228.08 52.79 228.1 52.8 C 227.8 53.4 227.4 53.7 226.7 53.7 C 225.5 53.7 225.2 52.9 225.2 51.9 C 225.2 50.2 226.8 50.1 228.1 50.2 C 228.1 49.4 228.1 48.6 227.1 48.6 C 226.5 48.6 226.2 49 226.3 49.6 C 226.3 49.6 225.3 49.6 225.3 49.6 C 225.3 48.4 226 47.9 227.2 47.9 C 228.6 47.9 229 48.7 229 49.6 C 229 49.6 229 52.3 229 52.3 C 229 52.7 229 53.2 229.1 53.6 C 229.09 53.59 228.1 53.6 228.1 53.6 L 228.1 52.8 Z M 233.6 49.8 C 233.7 48.9 233.2 48.7 232.9 48.7 C 232.2 48.7 231.7 49 231.7 50.5 C 231.7 52.3 231.9 53 232.9 53 C 233.1 53 233.7 52.7 233.7 51.7 C 233.7 51.7 234.6 51.7 234.6 51.7 C 234.7 53.3 233.5 53.7 232.9 53.7 C 231.7 53.7 230.8 53.4 230.8 50.9 C 230.8 49.3 231 47.9 232.9 47.9 C 234 47.9 234.6 48.6 234.6 49.8 C 234.6 49.8 233.6 49.8 233.6 49.8 Z M 237.1 53.6 L 236.2 53.6 L 236.2 48 L 237.1 48 L 237.1 53.6 Z M 236.2 45.7 L 237.2 45.7 L 237.2 46.6 L 236.2 46.6 L 236.2 45.7 Z M 241.4 53.6 C 241.4 53.6 241.42 49.74 241.4 49.7 C 241.4 49.2 241.3 48.7 240.5 48.7 C 240.3 48.7 239.9 48.8 239.8 49 C 239.6 49.3 239.5 49.6 239.5 49.9 C 239.54 49.85 239.5 53.6 239.5 53.6 L 238.6 53.6 C 238.6 53.6 238.64 49.19 238.6 49.2 C 238.6 48.8 238.6 48.4 238.6 48 C 238.59 48.04 239.5 48 239.5 48 L 239.5 48.7 C 239.5 48.7 239.57 48.73 239.6 48.7 C 239.8 48.1 240.3 47.9 241 47.9 C 241.5 47.9 242 48.1 242.3 48.6 C 242.6 48 243.1 47.9 243.6 47.9 C 244.2 47.9 245.1 48.1 245.1 49.4 C 245.09 49.37 245.1 53.6 245.1 53.6 L 244.2 53.6 C 244.2 53.6 244.19 49.74 244.2 49.7 C 244.2 49.2 244 48.7 243.3 48.7 C 243 48.7 242.9 48.7 242.6 48.9 C 242.4 49.1 242.3 49.6 242.3 49.9 C 242.32 49.85 242.3 53.6 242.3 53.6 L 241.4 53.6 Z M 247.5 51.9 C 247.5 52.5 247.7 53 248.3 53 C 248.9 53 249.6 52.6 249.5 50.8 C 248.6 50.8 247.5 50.8 247.5 51.9 Z M 249.5 52.8 C 249.5 52.8 249.47 52.79 249.5 52.8 C 249.2 53.4 248.8 53.7 248.1 53.7 C 246.9 53.7 246.6 52.9 246.6 51.9 C 246.6 50.2 248.2 50.1 249.5 50.2 C 249.5 49.4 249.5 48.6 248.5 48.6 C 247.9 48.6 247.6 49 247.7 49.6 C 247.7 49.6 246.7 49.6 246.7 49.6 C 246.7 48.4 247.4 47.9 248.6 47.9 C 250 47.9 250.4 48.7 250.4 49.6 C 250.4 49.6 250.4 52.3 250.4 52.3 C 250.4 52.7 250.4 53.2 250.5 53.6 C 250.48 53.59 249.5 53.6 249.5 53.6 L 249.5 52.8 Z M 254.1 53 C 255.3 53 255.3 51.8 255.3 50.9 C 255.3 49.4 255.1 48.7 254.2 48.7 C 253.2 48.7 253.1 49.9 253.1 50.6 C 253.1 51.4 253 53 254.1 53 Z M 253.1 53.6 L 252.2 53.6 L 252.2 45.7 L 253.1 45.7 L 253.1 48.6 C 253.1 48.6 253.14 48.6 253.1 48.6 C 253.4 48.2 253.8 47.9 254.4 47.9 C 256.2 47.9 256.2 49.5 256.2 50.9 C 256.2 53.4 255.3 53.7 254.4 53.7 C 253.8 53.7 253.4 53.4 253.1 52.9 C 253.13 52.93 253.1 52.9 253.1 52.9 L 253.1 53.6 Z M 257.8 52.4 L 258.9 52.4 L 257.9 55 L 257.2 55 L 257.8 52.4 Z M 263.3 51.9 C 263.3 52.5 263.6 53 264.2 53 C 264.8 53 265.4 52.6 265.4 50.8 C 264.5 50.8 263.3 50.8 263.3 51.9 Z M 265.4 52.8 C 265.4 52.8 265.35 52.79 265.4 52.8 C 265.1 53.4 264.6 53.7 264 53.7 C 262.8 53.7 262.4 52.9 262.4 51.9 C 262.4 50.2 264.1 50.1 265.4 50.2 C 265.4 49.4 265.4 48.6 264.4 48.6 C 263.8 48.6 263.5 49 263.5 49.6 C 263.5 49.6 262.6 49.6 262.6 49.6 C 262.6 48.4 263.3 47.9 264.4 47.9 C 265.9 47.9 266.3 48.7 266.3 49.6 C 266.3 49.6 266.3 52.3 266.3 52.3 C 266.3 52.7 266.3 53.2 266.4 53.6 C 266.36 53.59 265.4 53.6 265.4 53.6 L 265.4 52.8 Z M 270.6 48 C 270.6 48 270.62 46.96 270.6 47 C 270.6 45.8 271.4 45.6 272.2 45.6 C 272.4 45.6 272.5 45.6 272.6 45.7 C 272.6 45.7 272.6 46.3 272.6 46.3 C 271.7 46.2 271.5 46.6 271.5 47.1 C 271.52 47.09 271.5 48 271.5 48 L 272.6 48 L 272.6 48.7 L 271.5 48.7 L 271.5 53.6 L 270.6 53.6 L 270.6 48.7 L 269.8 48.7 L 269.8 48 L 270.6 48 Z M 274.3 51.9 C 274.3 52.5 274.6 53 275.2 53 C 275.8 53 276.4 52.6 276.4 50.8 C 275.5 50.8 274.3 50.8 274.3 51.9 Z M 276.4 52.8 C 276.4 52.8 276.35 52.79 276.4 52.8 C 276.1 53.4 275.6 53.7 275 53.7 C 273.8 53.7 273.4 52.9 273.4 51.9 C 273.4 50.2 275.1 50.1 276.4 50.2 C 276.4 49.4 276.4 48.6 275.4 48.6 C 274.8 48.6 274.5 49 274.5 49.6 C 274.5 49.6 273.6 49.6 273.6 49.6 C 273.6 48.4 274.3 47.9 275.4 47.9 C 276.9 47.9 277.3 48.7 277.3 49.6 C 277.3 49.6 277.3 52.3 277.3 52.3 C 277.3 52.7 277.3 53.2 277.4 53.6 C 277.36 53.59 276.4 53.6 276.4 53.6 L 276.4 52.8 Z M 281.9 49.8 C 281.9 48.9 281.5 48.7 281.1 48.7 C 280.5 48.7 280 49 280 50.5 C 280 52.3 280.2 53 281.1 53 C 281.4 53 282 52.7 281.9 51.7 C 281.9 51.7 282.9 51.7 282.9 51.7 C 282.9 53.3 281.8 53.7 281.1 53.7 C 280 53.7 279 53.4 279 50.9 C 279 49.3 279.2 47.9 281.1 47.9 C 282.3 47.9 282.9 48.6 282.9 49.8 C 282.9 49.8 281.9 49.8 281.9 49.8 Z M 284.6 48 L 284.6 47 L 285.5 46.6 L 285.5 48 L 286.7 48 L 286.7 48.7 L 285.5 48.7 C 285.5 48.7 285.51 52.12 285.5 52.1 C 285.5 52.5 285.5 52.9 286.3 52.9 C 286.4 52.9 286.5 52.9 286.7 52.9 C 286.7 52.9 286.7 53.6 286.7 53.6 C 286.4 53.6 286.2 53.7 285.9 53.7 C 285 53.7 284.6 53.3 284.6 52.7 C 284.61 52.67 284.6 48.7 284.6 48.7 L 283.7 48.7 L 283.7 48 L 284.6 48 Z M 290.7 50.5 C 290.7 49 290.2 48.7 289.5 48.7 C 288.8 48.7 288.4 49 288.4 50.5 C 288.4 52.3 288.6 53 289.5 53 C 290.5 53 290.7 52.3 290.7 50.5 Z M 287.4 50.9 C 287.4 49.3 287.6 47.9 289.5 47.9 C 291.5 47.9 291.6 49.3 291.6 50.9 C 291.6 53.4 290.7 53.7 289.5 53.7 C 288.4 53.7 287.4 53.4 287.4 50.9 Z M 294 48.9 C 294 48.9 294.03 48.87 294 48.9 C 294.4 48 294.9 47.9 295.7 47.9 C 295.7 47.9 295.7 48.9 295.7 48.9 C 295.7 48.9 295.6 48.8 295.5 48.8 C 295.4 48.8 295.3 48.8 295.3 48.8 C 294.3 48.8 294 49.6 294 50.3 C 294 50.31 294 53.6 294 53.6 L 293.1 53.6 L 293.1 48 L 294 48 L 294 48.9 Z M 304.4 53.6 L 303.1 53.6 L 301.3 50.2 L 299.5 53.6 L 298.4 53.6 L 300.7 49.5 L 298.6 45.7 L 299.7 45.7 L 301.4 48.7 L 303 45.7 L 304.1 45.7 L 302 49.5 L 304.4 53.6 Z M 306.5 53.6 L 305.5 53.6 L 305.5 45.7 L 306.5 45.7 L 306.5 53.6 Z M 309.6 53.6 L 308.6 53.6 L 308.6 45.7 L 309.6 45.7 L 309.6 53.6 Z M 312.2 51.9 C 312.2 52.5 312.5 53 313.1 53 C 313.7 53 314.3 52.6 314.2 50.8 C 313.4 50.8 312.2 50.8 312.2 51.9 Z M 314.3 52.8 C 314.3 52.8 314.25 52.79 314.2 52.8 C 314 53.4 313.5 53.7 312.8 53.7 C 311.7 53.7 311.3 52.9 311.3 51.9 C 311.3 50.2 313 50.1 314.2 50.2 C 314.3 49.4 314.3 48.6 313.3 48.6 C 312.7 48.6 312.4 49 312.4 49.6 C 312.4 49.6 311.5 49.6 311.5 49.6 C 311.5 48.4 312.2 47.9 313.3 47.9 C 314.8 47.9 315.1 48.7 315.1 49.6 C 315.1 49.6 315.1 52.3 315.1 52.3 C 315.1 52.7 315.2 53.2 315.3 53.6 C 315.26 53.59 314.3 53.6 314.3 53.6 L 314.3 52.8 Z M 320.2 53.6 L 319.3 53.6 L 319.3 48 L 320.2 48 L 320.2 53.6 Z M 319.3 45.7 L 320.3 45.7 L 320.3 46.6 L 319.3 46.6 L 319.3 45.7 Z M 324.8 53.6 C 324.8 53.6 324.81 49.74 324.8 49.7 C 324.8 49.1 324.6 48.7 323.8 48.7 C 322.8 48.7 322.7 49.5 322.7 50.3 C 322.69 50.3 322.7 53.6 322.7 53.6 L 321.8 53.6 C 321.8 53.6 321.79 49.19 321.8 49.2 C 321.8 48.8 321.8 48.4 321.7 48 C 321.74 48.04 322.7 48 322.7 48 L 322.7 48.8 C 322.7 48.8 322.74 48.75 322.7 48.8 C 323.1 48.1 323.5 47.9 324.2 47.9 C 325.4 47.9 325.7 48.6 325.7 49.7 C 325.71 49.74 325.7 53.6 325.7 53.6 L 324.8 53.6 Z M 330.3 53.6 C 330.3 53.6 330.31 49.83 330.3 49.8 C 330.3 49.1 330.1 48.7 329.3 48.7 C 328.4 48.7 328.2 49.4 328.2 50.3 C 328.18 50.33 328.2 53.6 328.2 53.6 L 327.3 53.6 L 327.3 45.7 L 328.2 45.7 L 328.2 48.8 C 328.2 48.8 328.22 48.75 328.2 48.8 C 328.6 48.1 329 47.9 329.7 47.9 C 330.7 47.9 331.2 48.4 331.2 49.7 C 331.21 49.65 331.2 53.6 331.2 53.6 L 330.3 53.6 Z M 333.7 53.6 L 332.8 53.6 L 332.8 48 L 333.7 48 L 333.7 53.6 Z M 332.7 45.7 L 333.7 45.7 L 333.7 46.6 L 332.7 46.6 L 332.7 45.7 Z M 337.2 53 C 338.4 53 338.4 51.8 338.4 50.9 C 338.4 49.4 338.2 48.7 337.3 48.7 C 336.3 48.7 336.2 49.9 336.2 50.6 C 336.2 51.4 336.1 53 337.2 53 Z M 336.2 53.6 L 335.3 53.6 L 335.3 45.7 L 336.2 45.7 L 336.2 48.6 C 336.2 48.6 336.24 48.6 336.2 48.6 C 336.6 48.2 336.9 47.9 337.5 47.9 C 339.3 47.9 339.3 49.5 339.3 50.9 C 339.3 53.4 338.4 53.7 337.5 53.7 C 336.9 53.7 336.5 53.4 336.2 52.9 C 336.23 52.93 336.2 52.9 336.2 52.9 L 336.2 53.6 Z M 341.6 53.6 L 340.7 53.6 L 340.7 48 L 341.6 48 L 341.6 53.6 Z M 340.7 45.7 L 341.7 45.7 L 341.7 46.6 L 340.7 46.6 L 340.7 45.7 Z M 343.3 48 L 343.3 47 L 344.2 46.6 L 344.2 48 L 345.4 48 L 345.4 48.7 L 344.2 48.7 C 344.2 48.7 344.17 52.12 344.2 52.1 C 344.2 52.5 344.2 52.9 345 52.9 C 345.1 52.9 345.2 52.9 345.4 52.9 C 345.4 52.9 345.4 53.6 345.4 53.6 C 345.1 53.6 344.8 53.7 344.5 53.7 C 343.7 53.7 343.3 53.3 343.3 52.7 C 343.27 52.67 343.3 48.7 343.3 48.7 L 342.4 48.7 L 342.4 48 L 343.3 48 Z M 349.4 50.5 C 349.4 49 348.9 48.7 348.2 48.7 C 347.5 48.7 347 49 347 50.5 C 347 52.3 347.3 53 348.2 53 C 349.1 53 349.4 52.3 349.4 50.5 Z M 346.1 50.9 C 346.1 49.3 346.3 47.9 348.2 47.9 C 350.1 47.9 350.3 49.3 350.3 50.9 C 350.3 53.4 349.4 53.7 348.2 53.7 C 347 53.7 346.1 53.4 346.1 50.9 Z M 352.7 48.9 C 352.7 48.9 352.69 48.87 352.7 48.9 C 353.1 48 353.5 47.9 354.4 47.9 C 354.4 47.9 354.4 48.9 354.4 48.9 C 354.3 48.9 354.2 48.8 354.2 48.8 C 354.1 48.8 354 48.8 353.9 48.8 C 352.9 48.8 352.7 49.6 352.7 50.3 C 352.67 50.31 352.7 53.6 352.7 53.6 L 351.8 53.6 L 351.8 48 L 352.7 48 L 352.7 48.9 Z M 358 48 C 358 48 358 46.96 358 47 C 358 45.8 358.8 45.6 359.6 45.6 C 359.8 45.6 359.9 45.6 360 45.7 C 360 45.7 360 46.3 360 46.3 C 359.1 46.2 358.9 46.6 358.9 47.1 C 358.9 47.09 358.9 48 358.9 48 L 360 48 L 360 48.7 L 358.9 48.7 L 358.9 53.6 L 358 53.6 L 358 48.7 L 357.1 48.7 L 357.1 48 L 358 48 Z M 364 50.5 C 364 49 363.5 48.7 362.9 48.7 C 362.2 48.7 361.7 49 361.7 50.5 C 361.7 52.3 361.9 53 362.9 53 C 363.8 53 364 52.3 364 50.5 Z M 360.7 50.9 C 360.7 49.3 360.9 47.9 362.9 47.9 C 364.8 47.9 365 49.3 365 50.9 C 365 53.4 364 53.7 362.9 53.7 C 361.7 53.7 360.7 53.4 360.7 50.9 Z M 367.3 48.9 C 367.3 48.9 367.35 48.87 367.4 48.9 C 367.7 48 368.2 47.9 369.1 47.9 C 369.1 47.9 369.1 48.9 369.1 48.9 C 369 48.9 368.9 48.8 368.8 48.8 C 368.7 48.8 368.7 48.8 368.6 48.8 C 367.6 48.8 367.3 49.6 367.3 50.3 C 367.33 50.31 367.3 53.6 367.3 53.6 L 366.4 53.6 L 366.4 48 L 367.3 48 L 367.3 48.9 Z M 375.5 53.6 C 375.5 53.6 375.51 49.83 375.5 49.8 C 375.5 49.1 375.3 48.7 374.5 48.7 C 373.6 48.7 373.4 49.4 373.4 50.3 C 373.39 50.33 373.4 53.6 373.4 53.6 L 372.5 53.6 L 372.5 45.7 L 373.4 45.7 L 373.4 48.8 C 373.4 48.8 373.43 48.75 373.4 48.8 C 373.8 48.1 374.2 47.9 374.9 47.9 C 375.9 47.9 376.4 48.4 376.4 49.7 C 376.41 49.65 376.4 53.6 376.4 53.6 L 375.5 53.6 Z M 381 50.4 C 381 48.8 380.6 48.6 379.9 48.6 C 379.4 48.6 378.9 48.9 378.9 50.4 C 378.9 50.4 381 50.4 381 50.4 Z M 378.9 51.1 C 378.9 52.7 379.3 53 380 53 C 380.6 53 380.9 52.5 381 51.9 C 381 51.9 382 51.9 382 51.9 C 381.9 53.1 381.2 53.7 380 53.7 C 378.8 53.7 377.9 53.4 377.9 50.9 C 377.9 49.3 378.1 47.9 380 47.9 C 381.6 47.9 382 48.8 382 50.6 C 382 50.63 382 51.1 382 51.1 C 382 51.1 378.88 51.11 378.9 51.1 Z M 384.4 48.9 C 384.4 48.9 384.46 48.87 384.5 48.9 C 384.8 48 385.3 47.9 386.2 47.9 C 386.2 47.9 386.2 48.9 386.2 48.9 C 386.1 48.9 386 48.8 385.9 48.8 C 385.9 48.8 385.8 48.8 385.7 48.8 C 384.7 48.8 384.4 49.6 384.4 50.3 C 384.43 50.31 384.4 53.6 384.4 53.6 L 383.5 53.6 L 383.5 48 L 384.4 48 L 384.4 48.9 Z M 390.2 50.4 C 390.2 48.8 389.8 48.6 389.1 48.6 C 388.5 48.6 388.1 48.9 388 50.4 C 388 50.4 390.2 50.4 390.2 50.4 Z M 388 51.1 C 388 52.7 388.5 53 389.2 53 C 389.8 53 390.1 52.5 390.1 51.9 C 390.1 51.9 391.1 51.9 391.1 51.9 C 391.1 53.1 390.4 53.7 389.2 53.7 C 388 53.7 387.1 53.4 387.1 50.9 C 387.1 49.3 387.3 47.9 389.2 47.9 C 390.8 47.9 391.2 48.8 391.2 50.6 C 391.17 50.63 391.2 51.1 391.2 51.1 C 391.2 51.1 388.04 51.11 388 51.1 Z M 394.6 48.7 C 393.6 48.7 393.5 49.4 393.5 50.9 C 393.5 51.8 393.5 53 394.6 53 C 395.6 53 395.6 51.7 395.6 50.6 C 395.6 49.9 395.6 48.7 394.6 48.7 Z M 395.6 45.7 L 396.5 45.7 L 396.5 53.6 L 395.6 53.6 L 395.6 52.9 C 395.6 52.9 395.58 52.93 395.6 52.9 C 395.3 53.4 394.9 53.7 394.3 53.7 C 393.4 53.7 392.5 53.4 392.5 50.9 C 392.5 49.5 392.6 47.9 394.3 47.9 C 394.9 47.9 395.3 48.2 395.6 48.6 C 395.57 48.6 395.6 48.6 395.6 48.6 L 395.6 45.7 Z M 399 53.6 L 398.1 53.6 L 398.1 48 L 399 48 L 399 53.6 Z M 398.1 45.7 L 399.1 45.7 L 399.1 46.6 L 398.1 46.6 L 398.1 45.7 Z M 400.7 48 L 400.7 47 L 401.6 46.6 L 401.6 48 L 402.8 48 L 402.8 48.7 L 401.6 48.7 C 401.6 48.7 401.6 52.12 401.6 52.1 C 401.6 52.5 401.6 52.9 402.4 52.9 C 402.5 52.9 402.6 52.9 402.8 52.9 C 402.8 52.9 402.8 53.6 402.8 53.6 C 402.5 53.6 402.2 53.7 401.9 53.7 C 401.1 53.7 400.7 53.3 400.7 52.7 C 400.7 52.67 400.7 48.7 400.7 48.7 L 399.8 48.7 L 399.8 48 L 400.7 48 Z M 404.5 51.9 C 404.5 52.5 404.8 53 405.4 53 C 405.9 53 406.6 52.6 406.5 50.8 C 405.6 50.8 404.5 50.8 404.5 51.9 Z M 406.5 52.8 C 406.5 52.8 406.5 52.79 406.5 52.8 C 406.2 53.4 405.8 53.7 405.1 53.7 C 403.9 53.7 403.6 52.9 403.6 51.9 C 403.6 50.2 405.2 50.1 406.5 50.2 C 406.5 49.4 406.5 48.6 405.6 48.6 C 405 48.6 404.6 49 404.7 49.6 C 404.7 49.6 403.7 49.6 403.7 49.6 C 403.8 48.4 404.4 47.9 405.6 47.9 C 407 47.9 407.4 48.7 407.4 49.6 C 407.4 49.6 407.4 52.3 407.4 52.3 C 407.4 52.7 407.4 53.2 407.5 53.6 C 407.51 53.59 406.5 53.6 406.5 53.6 L 406.5 52.8 Z M 410.1 48.9 C 410.1 48.9 410.12 48.87 410.1 48.9 C 410.5 48 411 47.9 411.8 47.9 C 411.8 47.9 411.8 48.9 411.8 48.9 C 411.8 48.9 411.7 48.8 411.6 48.8 C 411.5 48.8 411.4 48.8 411.4 48.8 C 410.3 48.8 410.1 49.6 410.1 50.3 C 410.1 50.31 410.1 53.6 410.1 53.6 L 409.2 53.6 L 409.2 48 L 410.1 48 L 410.1 48.9 Z M 414.5 52.6 L 414.5 52.6 L 415.8 48 L 416.8 48 L 414.3 55.7 L 413.4 55.7 L 414 53.6 L 412.1 48 L 413.2 48 L 414.5 52.6 Z " stroke="none" fill="#fff"/>  </g>  <g id="Polygon195211">    <path d="M 34.3 31.5 C 34.3 31.5 35.06 31.45 35.1 31.5 C 35.7 31.5 35.9 30.8 35.9 30.3 C 35.9 29.5 35.6 29.2 35.1 29.2 C 35.06 29.24 34.3 29.2 34.3 29.2 L 34.3 31.5 Z M 34.3 36 L 32.7 36 L 32.7 28 C 32.7 28 35.73 28.02 35.7 28 C 36.9 28 37.6 28.7 37.6 30.1 C 37.6 31.1 37.2 31.9 36.1 32 C 36.1 32 36.1 32.1 36.1 32.1 C 36.5 32.1 37.6 32.2 37.6 33.6 C 37.6 34.1 37.6 35.6 37.7 36 C 37.7 36 36.1 36 36.1 36 C 35.9 35.5 35.9 34.9 35.9 34.4 C 35.9 33.5 36 32.7 34.7 32.7 C 34.75 32.67 34.3 32.7 34.3 32.7 L 34.3 36 Z M 41.6 32.6 C 41.6 32 41.6 31.3 40.9 31.3 C 40.2 31.3 40.2 32.1 40.2 32.6 C 40.2 32.6 41.6 32.6 41.6 32.6 Z M 40.2 33.4 C 40.2 34.1 40.2 35.1 40.9 35.1 C 41.4 35.1 41.5 34.6 41.5 34.1 C 41.5 34.1 43.1 34.1 43.1 34.1 C 43.1 34.7 42.9 35.2 42.5 35.5 C 42.1 35.9 41.6 36.1 40.9 36.1 C 38.9 36.1 38.6 34.9 38.6 33.1 C 38.6 31.6 38.8 30.3 40.9 30.3 C 43 30.3 43.2 31.7 43.1 33.4 C 43.1 33.4 40.2 33.4 40.2 33.4 Z M 46.6 29 C 46 28.9 45.9 29.2 45.9 29.7 C 45.86 29.74 45.9 30.4 45.9 30.4 L 46.6 30.4 L 46.6 31.4 L 45.9 31.4 L 45.9 36 L 44.3 36 L 44.3 31.4 L 43.6 31.4 L 43.6 30.4 C 43.6 30.4 44.32 30.41 44.3 30.4 C 44.3 28.8 44.2 28 46.1 28 C 46.3 28 46.4 28 46.6 28 C 46.6 28 46.6 29 46.6 29 Z M 50.1 32.6 C 50.1 32 50.2 31.3 49.4 31.3 C 48.7 31.3 48.7 32.1 48.7 32.6 C 48.7 32.6 50.1 32.6 50.1 32.6 Z M 48.7 33.4 C 48.7 34.1 48.7 35.1 49.4 35.1 C 50 35.1 50.1 34.6 50.1 34.1 C 50.1 34.1 51.7 34.1 51.7 34.1 C 51.6 34.7 51.4 35.2 51.1 35.5 C 50.7 35.9 50.2 36.1 49.4 36.1 C 47.4 36.1 47.2 34.9 47.2 33.1 C 47.2 31.6 47.4 30.3 49.4 30.3 C 51.5 30.3 51.7 31.7 51.7 33.4 C 51.7 33.4 48.7 33.4 48.7 33.4 Z M 54.3 30.4 L 54.3 31.1 C 54.3 31.1 54.29 31.12 54.3 31.1 C 54.6 30.5 55.1 30.3 55.7 30.3 C 55.7 30.3 55.7 31.7 55.7 31.7 C 54.4 31.6 54.3 32.4 54.3 32.9 C 54.34 32.94 54.3 36 54.3 36 L 52.8 36 L 52.8 30.4 L 54.3 30.4 Z M 59.3 32.6 C 59.3 32 59.3 31.3 58.6 31.3 C 57.9 31.3 57.9 32.1 57.9 32.6 C 57.9 32.6 59.3 32.6 59.3 32.6 Z M 57.9 33.4 C 57.9 34.1 57.9 35.1 58.6 35.1 C 59.1 35.1 59.2 34.6 59.2 34.1 C 59.2 34.1 60.8 34.1 60.8 34.1 C 60.8 34.7 60.6 35.2 60.2 35.5 C 59.9 35.9 59.3 36.1 58.6 36.1 C 56.6 36.1 56.3 34.9 56.3 33.1 C 56.3 31.6 56.5 30.3 58.6 30.3 C 60.7 30.3 60.9 31.7 60.9 33.4 C 60.9 33.4 57.9 33.4 57.9 33.4 Z M 63.5 31 C 63.5 31 63.53 30.97 63.5 31 C 63.7 30.7 63.9 30.6 64.1 30.5 C 64.3 30.3 64.5 30.3 64.8 30.3 C 65.6 30.3 66.2 30.7 66.2 31.5 C 66.22 31.51 66.2 36 66.2 36 L 64.7 36 C 64.7 36 64.67 32.14 64.7 32.1 C 64.7 31.6 64.6 31.3 64.1 31.3 C 63.6 31.3 63.5 31.6 63.5 32.1 C 63.5 32.14 63.5 36 63.5 36 L 62 36 L 62 30.4 L 63.5 30.4 L 63.5 31 Z M 70.3 32.4 C 70.3 31.6 70.1 31.3 69.6 31.3 C 68.9 31.3 68.9 31.9 68.9 33 C 68.9 34.7 69 35.1 69.6 35.1 C 70.1 35.1 70.3 34.6 70.3 33.9 C 70.3 33.9 71.9 33.9 71.9 33.9 C 71.9 35.4 71 36.1 69.6 36.1 C 67.6 36.1 67.3 34.9 67.3 33.1 C 67.3 31.6 67.5 30.3 69.6 30.3 C 71 30.3 71.8 30.9 71.8 32.4 C 71.8 32.4 70.3 32.4 70.3 32.4 Z M 75.8 32.6 C 75.8 32 75.8 31.3 75.1 31.3 C 74.4 31.3 74.4 32.1 74.4 32.6 C 74.4 32.6 75.8 32.6 75.8 32.6 Z M 74.4 33.4 C 74.4 34.1 74.4 35.1 75.1 35.1 C 75.6 35.1 75.7 34.6 75.7 34.1 C 75.7 34.1 77.3 34.1 77.3 34.1 C 77.3 34.7 77.1 35.2 76.7 35.5 C 76.4 35.9 75.8 36.1 75.1 36.1 C 73.1 36.1 72.8 34.9 72.8 33.1 C 72.8 31.6 73 30.3 75.1 30.3 C 77.2 30.3 77.4 31.7 77.4 33.4 C 77.4 33.4 74.4 33.4 74.4 33.4 Z M 79.7 30.4 L 79.7 31.9 L 78.4 31.9 L 78.4 30.4 L 79.7 30.4 Z M 79.7 36 L 78.4 36 L 78.4 34.5 L 79.7 34.5 L 79.7 36 Z " stroke="none" fill="#fff"/>  </g></svg>