<?xml version="1.0" standalone="no"?><!DOCTYPE svg PUBLIC "-//W3C//DTD SVG 1.1//EN" "http://www.w3.org/Graphics/SVG/1.1/DTD/svg11.dtd"><svg xmlns="http://www.w3.org/2000/svg" version="1.1" width="152px" height="39px" viewBox="0 -1 152 39" style="top:-1px">  <desc>Safety</desc>  <defs/>  <g id="Polygon191250">    <path d="M 56.4 18.8 L 58.2 18.8 C 58.2 18.8 58.24 19.82 58.2 19.8 C 58.2 20.7 58.6 21.2 59.3 21.2 C 60.2 21.2 60.5 20.6 60.5 19.7 C 60.5 18.6 60.4 18.3 58.5 16.4 C 57.4 15.3 56.4 14.2 56.4 12.5 C 56.4 10.3 57.4 9.4 59.4 9.4 C 60.4 9.4 61.1 9.7 61.5 10.1 C 61.8 10.4 62 10.9 62 11.8 C 62.02 11.79 62 13 62 13 L 60.3 13 C 60.3 13 60.33 11.99 60.3 12 C 60.3 11.2 60 10.8 59.3 10.8 C 58.6 10.8 58.2 11.2 58.2 12.2 C 58.2 13.1 58.4 13.7 60.1 15.4 C 61.8 17.2 62.2 17.9 62.2 19.4 C 62.2 21.5 61.4 22.6 59.2 22.6 C 57.6 22.6 56.4 21.9 56.4 20.3 C 56.44 20.3 56.4 18.8 56.4 18.8 Z M 65.7 9.5 L 67.8 9.5 L 70.4 22.5 L 68.6 22.5 L 68 19.2 L 65.2 19.2 L 64.6 22.5 L 62.8 22.5 L 65.7 9.5 Z M 65.5 17.7 L 67.8 17.7 L 66.7 11.4 L 66.6 11.4 L 65.5 17.7 Z M 71.3 9.5 L 76.2 9.5 L 76.2 11 L 73.1 11 L 73.1 15.1 L 76 15.1 L 76 16.6 L 73.1 16.6 L 73.1 22.5 L 71.3 22.5 L 71.3 9.5 Z M 77 9.5 L 81.9 9.5 L 81.9 11 L 78.8 11 L 78.8 15.1 L 81.7 15.1 L 81.7 16.6 L 78.8 16.6 L 78.8 21 L 81.9 21 L 81.9 22.5 L 77 22.5 L 77 9.5 Z M 82.1 9.5 L 88.2 9.5 L 88.2 11 L 86 11 L 86 22.5 L 84.2 22.5 L 84.2 11 L 82.1 11 L 82.1 9.5 Z M 88.6 9.5 L 90.4 9.5 L 91.9 15 L 92 15 L 93.8 9.5 L 95.4 9.5 L 92.9 17.2 L 92.9 22.5 L 91.1 22.5 L 91.1 17.2 L 88.6 9.5 Z " stroke="none" fill="#fff"/>  </g></svg>