<?xml version="1.0" standalone="no"?><!DOCTYPE svg PUBLIC "-//W3C//DTD SVG 1.1//EN" "http://www.w3.org/Graphics/SVG/1.1/DTD/svg11.dtd"><svg xmlns="http://www.w3.org/2000/svg" version="1.1" width="165px" height="31.8px" viewBox="0 -5 165 31.8" style="top:-5px">  <desc>of patients...</desc>  <defs/>  <g id="Polygon200333">    <path d="M 42.4 11.7 C 42.4 13.1 43 13.8 43.8 13.8 C 44.7 13.8 45.3 13.1 45.3 11.7 C 45.3 11.7 45.3 3.8 45.3 3.8 C 45.3 2.3 44.8 1.6 43.8 1.6 C 42.9 1.6 42.4 2.3 42.4 3.8 C 42.4 3.8 42.4 11.7 42.4 11.7 Z M 40.3 3.9 C 40.3 1.8 41 -0.1 43.8 -0.1 C 46.5 -0.1 47.4 1.3 47.4 3.7 C 47.4 3.7 47.4 11.4 47.4 11.4 C 47.4 13.5 46.7 15.4 43.8 15.4 C 41.1 15.4 40.3 14 40.3 11.6 C 40.3 11.6 40.3 3.9 40.3 3.9 Z M 48.9 0 L 54.6 0 L 54.6 1.8 L 51 1.8 L 51 6.6 L 54.4 6.6 L 54.4 8.4 L 51 8.4 L 51 15.3 L 48.9 15.3 L 48.9 0 Z M 61.6 6.9 C 61.6 6.9 62.68 6.88 62.7 6.9 C 64.1 6.9 64.3 6.6 64.3 4.3 C 64.3 2 64.1 1.8 62.7 1.8 C 62.68 1.81 61.6 1.8 61.6 1.8 L 61.6 6.9 Z M 59.5 0 C 59.5 0 62.96 0.04 63 0 C 65.8 0 66.4 0.8 66.4 4.3 C 66.4 7.9 65.8 8.6 63 8.6 C 62.96 8.65 61.6 8.6 61.6 8.6 L 61.6 15.3 L 59.5 15.3 L 59.5 0 Z M 68.9 0 L 71.4 0 L 74.5 15.3 L 72.4 15.3 L 71.7 11.4 L 68.4 11.4 L 67.7 15.3 L 65.6 15.3 L 68.9 0 Z M 68.7 9.6 L 71.4 9.6 L 70.1 2.3 L 70 2.3 L 68.7 9.6 Z M 73.1 0 L 80.3 0 L 80.3 1.8 L 77.8 1.8 L 77.8 15.3 L 75.7 15.3 L 75.7 1.8 L 73.1 1.8 L 73.1 0 Z M 81.2 0 L 83.3 0 L 83.3 15.3 L 81.2 15.3 L 81.2 0 Z M 84.8 0 L 90.5 0 L 90.5 1.8 L 86.9 1.8 L 86.9 6.6 L 90.3 6.6 L 90.3 8.4 L 86.9 8.4 L 86.9 13.5 L 90.5 13.5 L 90.5 15.3 L 84.8 15.3 L 84.8 0 Z M 91.4 0 L 94.3 0 L 96.8 12.7 L 96.8 12.7 L 96.8 0 L 98.8 0 L 98.8 15.3 L 95.8 15.3 L 93.3 2.3 L 93.3 2.3 L 93.3 15.3 L 91.4 15.3 L 91.4 0 Z M 99.7 0 L 106.9 0 L 106.9 1.8 L 104.4 1.8 L 104.4 15.3 L 102.3 15.3 L 102.3 1.8 L 99.7 1.8 L 99.7 0 Z M 107.6 10.9 L 109.7 10.9 C 109.7 10.9 109.69 12.11 109.7 12.1 C 109.7 13.1 110.1 13.8 110.9 13.8 C 112 13.8 112.3 13 112.3 12 C 112.3 10.7 112.2 10.3 110 8.1 C 108.7 6.8 107.6 5.5 107.6 3.5 C 107.6 1 108.7 -0.1 111 -0.1 C 112.2 -0.1 113 0.3 113.5 0.8 C 113.9 1.1 114.1 1.6 114.1 2.7 C 114.12 2.7 114.1 4.1 114.1 4.1 L 112.1 4.1 C 112.1 4.1 112.14 2.93 112.1 2.9 C 112.1 2.1 111.8 1.6 111 1.6 C 110.1 1.6 109.7 2 109.7 3.2 C 109.7 4.3 109.9 4.9 111.8 6.9 C 113.9 9.1 114.3 9.8 114.3 11.6 C 114.3 14 113.4 15.4 110.9 15.4 C 108.9 15.4 107.6 14.6 107.6 12.7 C 107.58 12.68 107.6 10.9 107.6 10.9 Z M 115.6 12.8 L 118 12.8 L 118 15.3 L 115.6 15.3 L 115.6 12.8 Z M 119.5 12.8 L 122 12.8 L 122 15.3 L 119.5 15.3 L 119.5 12.8 Z M 123.4 12.8 L 125.9 12.8 L 125.9 15.3 L 123.4 15.3 L 123.4 12.8 Z " stroke="none" fill="#003c71"/>  </g></svg>