<?xml version="1.0" standalone="no"?><!DOCTYPE svg PUBLIC "-//W3C//DTD SVG 1.1//EN" "http://www.w3.org/Graphics/SVG/1.1/DTD/svg11.dtd"><svg xmlns="http://www.w3.org/2000/svg" version="1.1" width="677px" height="48.3px" viewBox="0 -1 677 48.3" style="top:-1px">  <desc>Abbreviations: EOS, end of study; HAE, hereditary angioedema; OD, on demand; OLE, open label extension; s.c., subcuta...</desc>  <defs/>  <g id="Polygon194231">    <path d="M 2.9 31.3 L 4.3 31.3 L 7.2 39.9 L 5.9 39.9 L 5.3 37.9 L 1.9 37.9 L 1.3 39.9 L 0.2 39.9 L 2.9 31.3 Z M 3.6 32.3 L 3.6 32.3 L 2.2 36.9 L 5 36.9 L 3.6 32.3 Z M 10.4 39.2 C 11.6 39.2 11.6 37.9 11.6 37 C 11.6 35.4 11.5 34.5 10.4 34.5 C 9.3 34.5 9.3 35.8 9.3 36.6 C 9.3 37.6 9.2 39.2 10.4 39.2 Z M 9.3 39.9 L 8.3 39.9 L 8.3 31.3 L 9.3 31.3 L 9.3 34.5 C 9.3 34.5 9.3 34.47 9.3 34.5 C 9.6 34 10.1 33.7 10.6 33.7 C 12.6 33.7 12.6 35.5 12.6 37 C 12.6 39.7 11.7 40 10.7 40 C 10 40 9.6 39.8 9.3 39.2 C 9.29 39.2 9.3 39.2 9.3 39.2 L 9.3 39.9 Z M 16.4 39.2 C 17.6 39.2 17.6 37.9 17.6 37 C 17.6 35.4 17.5 34.5 16.4 34.5 C 15.3 34.5 15.3 35.8 15.3 36.6 C 15.3 37.6 15.2 39.2 16.4 39.2 Z M 15.3 39.9 L 14.3 39.9 L 14.3 31.3 L 15.3 31.3 L 15.3 34.5 C 15.3 34.5 15.3 34.47 15.3 34.5 C 15.6 34 16.1 33.7 16.6 33.7 C 18.6 33.7 18.6 35.5 18.6 37 C 18.6 39.7 17.7 40 16.7 40 C 16 40 15.6 39.8 15.3 39.2 C 15.29 39.2 15.3 39.2 15.3 39.2 L 15.3 39.9 Z M 21.2 34.8 C 21.2 34.8 21.24 34.77 21.2 34.8 C 21.6 33.8 22.2 33.7 23.1 33.7 C 23.1 33.7 23.1 34.8 23.1 34.8 C 23 34.7 22.9 34.7 22.8 34.7 C 22.8 34.7 22.7 34.7 22.6 34.7 C 21.5 34.7 21.2 35.5 21.2 36.3 C 21.22 36.34 21.2 39.9 21.2 39.9 L 20.2 39.9 L 20.2 33.9 L 21.2 33.9 L 21.2 34.8 Z M 27.5 36.5 C 27.5 34.7 27 34.5 26.3 34.5 C 25.7 34.5 25.2 34.8 25.2 36.5 C 25.2 36.5 27.5 36.5 27.5 36.5 Z M 25.2 37.2 C 25.2 38.9 25.6 39.2 26.4 39.2 C 27 39.2 27.4 38.7 27.4 38.1 C 27.4 38.1 28.5 38.1 28.5 38.1 C 28.5 39.4 27.7 40 26.4 40 C 25.1 40 24.1 39.7 24.1 37 C 24.1 35.2 24.3 33.7 26.4 33.7 C 28.1 33.7 28.6 34.7 28.6 36.7 C 28.56 36.69 28.6 37.2 28.6 37.2 C 28.6 37.2 25.15 37.21 25.2 37.2 Z M 29.5 33.9 L 30.6 33.9 L 32 39 L 32 39 L 33.4 33.9 L 34.5 33.9 L 32.6 39.9 L 31.3 39.9 L 29.5 33.9 Z M 36.5 39.9 L 35.5 39.9 L 35.5 33.9 L 36.5 33.9 L 36.5 39.9 Z M 35.4 31.3 L 36.5 31.3 L 36.5 32.3 L 35.4 32.3 L 35.4 31.3 Z M 39.1 38.1 C 39.1 38.7 39.4 39.2 40 39.2 C 40.6 39.2 41.4 38.9 41.3 36.9 C 40.3 36.9 39.1 36.8 39.1 38.1 Z M 41.3 39 C 41.3 39 41.28 39.05 41.3 39 C 41 39.7 40.5 40 39.8 40 C 38.5 40 38.1 39.2 38.1 38 C 38.1 36.2 39.9 36.1 41.3 36.2 C 41.3 35.4 41.3 34.5 40.3 34.5 C 39.6 34.5 39.3 34.9 39.3 35.6 C 39.3 35.6 38.2 35.6 38.2 35.6 C 38.3 34.2 39 33.7 40.3 33.7 C 41.9 33.7 42.3 34.5 42.3 35.6 C 42.3 35.6 42.3 38.5 42.3 38.5 C 42.3 39 42.3 39.5 42.4 39.9 C 42.38 39.92 41.3 39.9 41.3 39.9 L 41.3 39 Z M 44.3 33.9 L 44.3 32.7 L 45.3 32.3 L 45.3 33.9 L 46.6 33.9 L 46.6 34.6 L 45.3 34.6 C 45.3 34.6 45.27 38.31 45.3 38.3 C 45.3 38.7 45.3 39.2 46.2 39.2 C 46.2 39.2 46.4 39.2 46.6 39.1 C 46.6 39.1 46.6 39.9 46.6 39.9 C 46.3 39.9 46 40 45.6 40 C 44.7 40 44.3 39.6 44.3 38.9 C 44.29 38.91 44.3 34.6 44.3 34.6 L 43.3 34.6 L 43.3 33.9 L 44.3 33.9 Z M 48.5 39.9 L 47.5 39.9 L 47.5 33.9 L 48.5 33.9 L 48.5 39.9 Z M 47.4 31.3 L 48.5 31.3 L 48.5 32.3 L 47.4 32.3 L 47.4 31.3 Z M 53.6 36.6 C 53.6 34.9 53.1 34.5 52.3 34.5 C 51.6 34.5 51 34.9 51 36.6 C 51 38.5 51.3 39.2 52.3 39.2 C 53.3 39.2 53.6 38.5 53.6 36.6 Z M 50 37 C 50 35.2 50.2 33.7 52.3 33.7 C 54.4 33.7 54.6 35.2 54.6 37 C 54.6 39.7 53.6 40 52.3 40 C 51 40 50 39.7 50 37 Z M 59.5 39.9 C 59.5 39.9 59.47 35.72 59.5 35.7 C 59.5 35.1 59.2 34.5 58.4 34.5 C 57.3 34.5 57.2 35.5 57.2 36.3 C 57.17 36.33 57.2 39.9 57.2 39.9 L 56.2 39.9 C 56.2 39.9 56.18 35.12 56.2 35.1 C 56.2 34.7 56.2 34.3 56.1 33.9 C 56.12 33.86 57.2 33.9 57.2 33.9 L 57.2 34.6 C 57.2 34.6 57.21 34.64 57.2 34.6 C 57.6 34 58.1 33.7 58.8 33.7 C 60.1 33.7 60.5 34.5 60.5 35.7 C 60.45 35.72 60.5 39.9 60.5 39.9 L 59.5 39.9 Z M 64 40 C 62.7 40 61.8 39.5 61.9 38.1 C 61.9 38.1 63 38.1 63 38.1 C 63 38.4 63 39.2 64 39.2 C 64.6 39.2 65.1 38.9 65.1 38.3 C 65.1 37.2 62 37.2 62 35.4 C 62 34.8 62.4 33.7 64.1 33.7 C 65.2 33.7 66.1 34.3 66 35.5 C 66 35.5 64.9 35.5 64.9 35.5 C 65 34.8 64.6 34.5 64 34.5 C 63.5 34.5 63.1 34.8 63.1 35.3 C 63.1 36.4 66.1 36.3 66.1 38.2 C 66.1 39.5 65.2 40 64 40 Z M 68.5 35.1 L 67.4 35.1 L 67.4 33.9 L 68.5 33.9 L 68.5 35.1 Z M 68.5 39.9 L 67.4 39.9 L 67.4 38.7 L 68.5 38.7 L 68.5 39.9 Z M 72.9 39.9 L 72.9 31.3 L 77.4 31.3 L 77.4 32.2 L 74 32.2 L 74 35 L 77.2 35 L 77.2 36 L 74 36 L 74 39 L 77.5 39 L 77.5 39.9 L 72.9 39.9 Z M 78.9 36.8 C 78.9 36.8 78.9 33.9 78.9 33.9 C 78.9 32.2 79.8 31.1 81.6 31.1 C 83.5 31.1 84.4 32.2 84.4 33.9 C 84.4 33.9 84.4 36.8 84.4 36.8 C 84.4 39.2 83.5 40.1 81.6 40.1 C 79.8 40.1 78.9 39.2 78.9 36.8 Z M 83.2 36.8 C 83.2 36.8 83.2 33.9 83.2 33.9 C 83.2 32.1 82 32 81.6 32 C 81.3 32 80 32.1 80 33.9 C 80 33.9 80 36.8 80 36.8 C 80 38.7 80.6 39.2 81.6 39.2 C 82.7 39.2 83.2 38.7 83.2 36.8 Z M 87.1 37.3 C 87.1 37.3 87.13 37.59 87.1 37.6 C 87.1 38.8 87.9 39.1 88.6 39.1 C 89.5 39.1 90.1 38.8 90.1 37.7 C 90.1 35.8 86.2 36 86.2 33.4 C 86.2 31.9 87.3 31.1 88.8 31.1 C 90.4 31.1 91.3 31.8 91.2 33.6 C 91.2 33.6 90 33.6 90 33.6 C 90 32.7 89.7 32 88.7 32 C 88 32 87.4 32.4 87.4 33.3 C 87.4 35.2 91.3 34.9 91.3 37.7 C 91.3 39.5 90 40.1 88.6 40.1 C 86 40.1 86 38.2 86 37.3 C 86.04 37.34 87.1 37.3 87.1 37.3 Z M 93 38.7 L 94.2 38.7 L 93.2 41.4 L 92.4 41.4 L 93 38.7 Z M 101.5 36.5 C 101.5 34.7 101 34.5 100.3 34.5 C 99.7 34.5 99.1 34.8 99.1 36.5 C 99.1 36.5 101.5 36.5 101.5 36.5 Z M 99.1 37.2 C 99.1 38.9 99.6 39.2 100.4 39.2 C 101 39.2 101.4 38.7 101.4 38.1 C 101.4 38.1 102.5 38.1 102.5 38.1 C 102.5 39.4 101.7 40 100.4 40 C 99.1 40 98.1 39.7 98.1 37 C 98.1 35.2 98.3 33.7 100.4 33.7 C 102.1 33.7 102.5 34.7 102.5 36.7 C 102.54 36.69 102.5 37.2 102.5 37.2 C 102.5 37.2 99.13 37.21 99.1 37.2 Z M 107.5 39.9 C 107.5 39.9 107.46 35.72 107.5 35.7 C 107.5 35.1 107.2 34.5 106.4 34.5 C 105.3 34.5 105.2 35.5 105.2 36.3 C 105.15 36.33 105.2 39.9 105.2 39.9 L 104.2 39.9 C 104.2 39.9 104.17 35.12 104.2 35.1 C 104.2 34.7 104.1 34.3 104.1 33.9 C 104.11 33.86 105.2 33.9 105.2 33.9 L 105.2 34.6 C 105.2 34.6 105.2 34.64 105.2 34.6 C 105.6 34 106 33.7 106.8 33.7 C 108.1 33.7 108.4 34.5 108.4 35.7 C 108.44 35.72 108.4 39.9 108.4 39.9 L 107.5 39.9 Z M 112.2 34.5 C 111.2 34.5 111 35.4 111 37 C 111 37.9 111 39.2 112.3 39.2 C 113.4 39.2 113.4 37.9 113.4 36.6 C 113.4 35.8 113.3 34.5 112.2 34.5 Z M 113.4 31.3 L 114.4 31.3 L 114.4 39.9 L 113.4 39.9 L 113.4 39.2 C 113.4 39.2 113.35 39.2 113.4 39.2 C 113 39.8 112.6 40 112 40 C 111 40 110 39.7 110 37 C 110 35.5 110.1 33.7 112 33.7 C 112.6 33.7 113 34 113.3 34.5 C 113.34 34.47 113.4 34.5 113.4 34.5 L 113.4 31.3 Z M 122.2 36.6 C 122.2 34.9 121.7 34.5 121 34.5 C 120.2 34.5 119.7 34.9 119.7 36.6 C 119.7 38.5 119.9 39.2 121 39.2 C 122 39.2 122.2 38.5 122.2 36.6 Z M 118.7 37 C 118.7 35.2 118.9 33.7 121 33.7 C 123.1 33.7 123.3 35.2 123.3 37 C 123.3 39.7 122.3 40 121 40 C 119.7 40 118.7 39.7 118.7 37 Z M 125 33.9 C 125 33.9 125.01 32.69 125 32.7 C 125 31.5 125.9 31.2 126.8 31.2 C 127 31.2 127.1 31.2 127.2 31.3 C 127.2 31.3 127.2 32 127.2 32 C 126.2 31.9 126 32.3 126 32.8 C 126 32.83 126 33.9 126 33.9 L 127.2 33.9 L 127.2 34.6 L 126 34.6 L 126 39.9 L 125 39.9 L 125 34.6 L 124.1 34.6 L 124.1 33.9 L 125 33.9 Z M 132.6 40 C 131.3 40 130.5 39.5 130.5 38.1 C 130.5 38.1 131.6 38.1 131.6 38.1 C 131.6 38.4 131.7 39.2 132.7 39.2 C 133.2 39.2 133.7 38.9 133.7 38.3 C 133.7 37.2 130.7 37.2 130.7 35.4 C 130.7 34.8 131.1 33.7 132.8 33.7 C 133.8 33.7 134.8 34.3 134.7 35.5 C 134.7 35.5 133.6 35.5 133.6 35.5 C 133.6 34.8 133.3 34.5 132.6 34.5 C 132.1 34.5 131.7 34.8 131.7 35.3 C 131.7 36.4 134.7 36.3 134.7 38.2 C 134.7 39.5 133.8 40 132.6 40 Z M 136.3 33.9 L 136.3 32.7 L 137.3 32.3 L 137.3 33.9 L 138.6 33.9 L 138.6 34.6 L 137.3 34.6 C 137.3 34.6 137.25 38.31 137.3 38.3 C 137.3 38.7 137.3 39.2 138.2 39.2 C 138.2 39.2 138.4 39.2 138.6 39.1 C 138.6 39.1 138.6 39.9 138.6 39.9 C 138.3 39.9 137.9 40 137.6 40 C 136.7 40 136.3 39.6 136.3 38.9 C 136.27 38.91 136.3 34.6 136.3 34.6 L 135.3 34.6 L 135.3 33.9 L 136.3 33.9 Z M 142.7 33.9 L 143.7 33.9 C 143.7 33.9 143.72 38.66 143.7 38.7 C 143.7 39.1 143.7 39.5 143.8 39.9 C 143.78 39.92 142.7 39.9 142.7 39.9 L 142.7 39.2 C 142.7 39.2 142.7 39.19 142.7 39.2 C 142.4 39.7 141.8 40 141.2 40 C 140.1 40 139.5 39.5 139.5 38.5 C 139.53 38.48 139.5 33.9 139.5 33.9 L 140.5 33.9 C 140.5 33.9 140.52 38.06 140.5 38.1 C 140.5 38.8 140.9 39.3 141.5 39.3 C 142.1 39.3 142.7 38.9 142.7 37.9 C 142.74 37.88 142.7 33.9 142.7 33.9 Z M 147.6 34.5 C 146.5 34.5 146.4 35.4 146.4 37 C 146.4 37.9 146.4 39.2 147.6 39.2 C 148.7 39.2 148.7 37.9 148.7 36.6 C 148.7 35.8 148.7 34.5 147.6 34.5 Z M 148.7 31.3 L 149.7 31.3 L 149.7 39.9 L 148.7 39.9 L 148.7 39.2 C 148.7 39.2 148.68 39.2 148.7 39.2 C 148.3 39.8 147.9 40 147.3 40 C 146.3 40 145.3 39.7 145.3 37 C 145.3 35.5 145.4 33.7 147.3 33.7 C 147.9 33.7 148.3 34 148.7 34.5 C 148.67 34.47 148.7 34.5 148.7 34.5 L 148.7 31.3 Z M 153.3 38.8 L 153.3 38.8 L 154.8 33.9 L 155.9 33.9 L 153.1 42.2 L 152.1 42.2 L 152.8 39.9 L 150.7 33.9 L 151.9 33.9 L 153.3 38.8 Z M 157 38.7 L 158.2 38.7 L 157.1 41.4 L 156.4 41.4 L 157 38.7 Z M 157.9 35.1 L 156.7 35.1 L 156.7 33.9 L 157.9 33.9 L 157.9 35.1 Z M 162.3 39.9 L 162.3 31.3 L 163.4 31.3 L 163.4 35 L 166.5 35 L 166.5 31.3 L 167.6 31.3 L 167.6 39.9 L 166.5 39.9 L 166.5 36 L 163.4 36 L 163.4 39.9 L 162.3 39.9 Z M 171.5 31.3 L 173 31.3 L 175.8 39.9 L 174.5 39.9 L 173.9 37.9 L 170.6 37.9 L 169.9 39.9 L 168.8 39.9 L 171.5 31.3 Z M 172.2 32.3 L 172.2 32.3 L 170.8 36.9 L 173.6 36.9 L 172.2 32.3 Z M 176.9 39.9 L 176.9 31.3 L 181.4 31.3 L 181.4 32.2 L 178 32.2 L 178 35 L 181.1 35 L 181.1 36 L 178 36 L 178 39 L 181.5 39 L 181.5 39.9 L 176.9 39.9 Z M 183 38.7 L 184.2 38.7 L 183.1 41.4 L 182.4 41.4 L 183 38.7 Z M 191.4 39.9 C 191.4 39.9 191.43 35.82 191.4 35.8 C 191.4 35.1 191.2 34.5 190.4 34.5 C 189.4 34.5 189.1 35.3 189.1 36.4 C 189.12 36.36 189.1 39.9 189.1 39.9 L 188.1 39.9 L 188.1 31.3 L 189.1 31.3 L 189.1 34.6 C 189.1 34.6 189.16 34.64 189.2 34.6 C 189.6 33.9 190 33.7 190.8 33.7 C 191.8 33.7 192.4 34.3 192.4 35.6 C 192.42 35.62 192.4 39.9 192.4 39.9 L 191.4 39.9 Z M 197.5 36.5 C 197.5 34.7 197 34.5 196.3 34.5 C 195.6 34.5 195.1 34.8 195.1 36.5 C 195.1 36.5 197.5 36.5 197.5 36.5 Z M 195.1 37.2 C 195.1 38.9 195.6 39.2 196.3 39.2 C 197 39.2 197.3 38.7 197.4 38.1 C 197.4 38.1 198.5 38.1 198.5 38.1 C 198.5 39.4 197.6 40 196.4 40 C 195.1 40 194 39.7 194 37 C 194 35.2 194.3 33.7 196.4 33.7 C 198.1 33.7 198.5 34.7 198.5 36.7 C 198.51 36.69 198.5 37.2 198.5 37.2 C 198.5 37.2 195.1 37.21 195.1 37.2 Z M 201.2 34.8 C 201.2 34.8 201.19 34.77 201.2 34.8 C 201.6 33.8 202.1 33.7 203.1 33.7 C 203.1 33.7 203.1 34.8 203.1 34.8 C 203 34.7 202.9 34.7 202.8 34.7 C 202.7 34.7 202.6 34.7 202.5 34.7 C 201.4 34.7 201.2 35.5 201.2 36.3 C 201.16 36.34 201.2 39.9 201.2 39.9 L 200.2 39.9 L 200.2 33.9 L 201.2 33.9 L 201.2 34.8 Z M 207.5 36.5 C 207.5 34.7 207 34.5 206.3 34.5 C 205.6 34.5 205.1 34.8 205.1 36.5 C 205.1 36.5 207.5 36.5 207.5 36.5 Z M 205.1 37.2 C 205.1 38.9 205.6 39.2 206.3 39.2 C 207 39.2 207.3 38.7 207.4 38.1 C 207.4 38.1 208.5 38.1 208.5 38.1 C 208.4 39.4 207.6 40 206.3 40 C 205.1 40 204 39.7 204 37 C 204 35.2 204.2 33.7 206.3 33.7 C 208.1 33.7 208.5 34.7 208.5 36.7 C 208.51 36.69 208.5 37.2 208.5 37.2 C 208.5 37.2 205.1 37.21 205.1 37.2 Z M 212.2 34.5 C 211.1 34.5 211 35.4 211 37 C 211 37.9 211 39.2 212.2 39.2 C 213.3 39.2 213.3 37.9 213.3 36.6 C 213.3 35.8 213.3 34.5 212.2 34.5 Z M 213.3 31.3 L 214.3 31.3 L 214.3 39.9 L 213.3 39.9 L 213.3 39.2 C 213.3 39.2 213.32 39.2 213.3 39.2 C 213 39.8 212.6 40 211.9 40 C 211 40 210 39.7 210 37 C 210 35.5 210 33.7 212 33.7 C 212.6 33.7 213 34 213.3 34.5 C 213.31 34.47 213.3 34.5 213.3 34.5 L 213.3 31.3 Z M 217.1 39.9 L 216.1 39.9 L 216.1 33.9 L 217.1 33.9 L 217.1 39.9 Z M 216.1 31.3 L 217.2 31.3 L 217.2 32.3 L 216.1 32.3 L 216.1 31.3 Z M 218.9 33.9 L 218.9 32.7 L 219.9 32.3 L 219.9 33.9 L 221.2 33.9 L 221.2 34.6 L 219.9 34.6 C 219.9 34.6 219.9 38.31 219.9 38.3 C 219.9 38.7 219.9 39.2 220.8 39.2 C 220.9 39.2 221 39.2 221.2 39.1 C 221.2 39.1 221.2 39.9 221.2 39.9 C 220.9 39.9 220.6 40 220.3 40 C 219.3 40 218.9 39.6 218.9 38.9 C 218.91 38.91 218.9 34.6 218.9 34.6 L 217.9 34.6 L 217.9 33.9 L 218.9 33.9 Z M 223 38.1 C 223 38.7 223.3 39.2 224 39.2 C 224.6 39.2 225.3 38.9 225.2 36.9 C 224.3 36.9 223 36.8 223 38.1 Z M 225.3 39 C 225.3 39 225.24 39.05 225.2 39 C 224.9 39.7 224.5 40 223.7 40 C 222.4 40 222.1 39.2 222.1 38 C 222.1 36.2 223.9 36.1 225.2 36.2 C 225.3 35.4 225.3 34.5 224.2 34.5 C 223.6 34.5 223.2 34.9 223.3 35.6 C 223.3 35.6 222.2 35.6 222.2 35.6 C 222.2 34.2 223 33.7 224.3 33.7 C 225.8 33.7 226.2 34.5 226.2 35.6 C 226.2 35.6 226.2 38.5 226.2 38.5 C 226.2 39 226.3 39.5 226.3 39.9 C 226.34 39.92 225.3 39.9 225.3 39.9 L 225.3 39 Z M 229.2 34.8 C 229.2 34.8 229.18 34.77 229.2 34.8 C 229.6 33.8 230.1 33.7 231.1 33.7 C 231.1 33.7 231.1 34.8 231.1 34.8 C 231 34.7 230.9 34.7 230.8 34.7 C 230.7 34.7 230.6 34.7 230.5 34.7 C 229.4 34.7 229.2 35.5 229.2 36.3 C 229.16 36.34 229.2 39.9 229.2 39.9 L 228.2 39.9 L 228.2 33.9 L 229.2 33.9 L 229.2 34.8 Z M 234 38.8 L 234 38.8 L 235.4 33.9 L 236.5 33.9 L 233.8 42.2 L 232.7 42.2 L 233.4 39.9 L 231.4 33.9 L 232.5 33.9 L 234 38.8 Z M 241 38.1 C 241 38.7 241.3 39.2 242 39.2 C 242.6 39.2 243.3 38.9 243.2 36.9 C 242.3 36.9 241 36.8 241 38.1 Z M 243.2 39 C 243.2 39 243.22 39.05 243.2 39 C 242.9 39.7 242.5 40 241.7 40 C 240.4 40 240 39.2 240 38 C 240 36.2 241.8 36.1 243.2 36.2 C 243.2 35.4 243.3 34.5 242.2 34.5 C 241.5 34.5 241.2 34.9 241.3 35.6 C 241.3 35.6 240.2 35.6 240.2 35.6 C 240.2 34.2 241 33.7 242.2 33.7 C 243.8 33.7 244.2 34.5 244.2 35.6 C 244.2 35.6 244.2 38.5 244.2 38.5 C 244.2 39 244.3 39.5 244.3 39.9 C 244.33 39.92 243.2 39.9 243.2 39.9 L 243.2 39 Z M 249.4 39.9 C 249.4 39.9 249.42 35.72 249.4 35.7 C 249.4 35.1 249.2 34.5 248.3 34.5 C 247.3 34.5 247.1 35.5 247.1 36.3 C 247.11 36.33 247.1 39.9 247.1 39.9 L 246.1 39.9 C 246.1 39.9 246.13 35.12 246.1 35.1 C 246.1 34.7 246.1 34.3 246.1 33.9 C 246.07 33.86 247.1 33.9 247.1 33.9 L 247.1 34.6 C 247.1 34.6 247.16 34.64 247.2 34.6 C 247.5 34 248 33.7 248.8 33.7 C 250.1 33.7 250.4 34.5 250.4 35.7 C 250.4 35.72 250.4 39.9 250.4 39.9 L 249.4 39.9 Z M 254.2 34.6 C 253.1 34.6 253 35.9 253 36.7 C 253 38.6 253.5 39.1 254.2 39.1 C 255.4 39.1 255.4 37.7 255.4 36.9 C 255.4 36 255.4 34.6 254.2 34.6 Z M 255.3 33.9 L 256.3 33.9 C 256.3 33.9 256.32 40.53 256.3 40.5 C 256.3 41.9 255.4 42.2 254.1 42.2 C 253.1 42.2 252.2 41.7 252.2 40.6 C 252.2 40.6 253.4 40.6 253.4 40.6 C 253.4 41.2 253.7 41.5 254.3 41.5 C 255 41.5 255.3 41 255.3 40.4 C 255.33 40.43 255.3 39.2 255.3 39.2 C 255.3 39.2 255.3 39.17 255.3 39.2 C 255 39.6 254.5 39.9 254 39.9 C 252.3 39.9 252 38.5 252 36.7 C 252 33.9 253.4 33.7 253.9 33.7 C 254.5 33.7 255 34 255.3 34.6 C 255.31 34.6 255.3 34.6 255.3 34.6 L 255.3 33.9 Z M 259.1 39.9 L 258.1 39.9 L 258.1 33.9 L 259.1 33.9 L 259.1 39.9 Z M 258 31.3 L 259.1 31.3 L 259.1 32.3 L 258 32.3 L 258 31.3 Z M 264.2 36.6 C 264.2 34.9 263.7 34.5 262.9 34.5 C 262.2 34.5 261.7 34.9 261.7 36.6 C 261.7 38.5 261.9 39.2 262.9 39.2 C 263.9 39.2 264.2 38.5 264.2 36.6 Z M 260.6 37 C 260.6 35.2 260.8 33.7 262.9 33.7 C 265 33.7 265.2 35.2 265.2 37 C 265.2 39.7 264.2 40 262.9 40 C 261.6 40 260.6 39.7 260.6 37 Z M 270.1 36.5 C 270.1 34.7 269.6 34.5 268.9 34.5 C 268.3 34.5 267.8 34.8 267.8 36.5 C 267.8 36.5 270.1 36.5 270.1 36.5 Z M 267.8 37.2 C 267.8 38.9 268.2 39.2 269 39.2 C 269.6 39.2 270 38.7 270 38.1 C 270 38.1 271.1 38.1 271.1 38.1 C 271.1 39.4 270.3 40 269 40 C 267.7 40 266.7 39.7 266.7 37 C 266.7 35.2 266.9 33.7 269 33.7 C 270.7 33.7 271.2 34.7 271.2 36.7 C 271.16 36.69 271.2 37.2 271.2 37.2 C 271.2 37.2 267.75 37.21 267.8 37.2 Z M 274.9 34.5 C 273.8 34.5 273.7 35.4 273.7 37 C 273.7 37.9 273.7 39.2 274.9 39.2 C 276 39.2 276 37.9 276 36.6 C 276 35.8 275.9 34.5 274.9 34.5 Z M 276 31.3 L 277 31.3 L 277 39.9 L 276 39.9 L 276 39.2 C 276 39.2 275.97 39.2 276 39.2 C 275.6 39.8 275.2 40 274.6 40 C 273.6 40 272.6 39.7 272.6 37 C 272.6 35.5 272.7 33.7 274.6 33.7 C 275.2 33.7 275.6 34 276 34.5 C 275.96 34.47 276 34.5 276 34.5 L 276 31.3 Z M 282.1 36.5 C 282.1 34.7 281.6 34.5 280.9 34.5 C 280.3 34.5 279.8 34.8 279.8 36.5 C 279.8 36.5 282.1 36.5 282.1 36.5 Z M 279.8 37.2 C 279.8 38.9 280.2 39.2 281 39.2 C 281.6 39.2 282 38.7 282 38.1 C 282 38.1 283.1 38.1 283.1 38.1 C 283.1 39.4 282.3 40 281 40 C 279.7 40 278.7 39.7 278.7 37 C 278.7 35.2 278.9 33.7 281 33.7 C 282.7 33.7 283.2 34.7 283.2 36.7 C 283.16 36.69 283.2 37.2 283.2 37.2 C 283.2 37.2 279.75 37.21 279.8 37.2 Z M 287.8 39.9 C 287.8 39.9 287.77 35.72 287.8 35.7 C 287.8 35.1 287.6 34.5 286.8 34.5 C 286.5 34.5 286.1 34.7 286 35 C 285.8 35.3 285.7 35.6 285.7 35.8 C 285.73 35.84 285.7 39.9 285.7 39.9 L 284.7 39.9 C 284.7 39.9 284.74 35.12 284.7 35.1 C 284.7 34.7 284.7 34.3 284.7 33.9 C 284.68 33.86 285.7 33.9 285.7 33.9 L 285.7 34.6 C 285.7 34.6 285.75 34.62 285.8 34.6 C 286 34 286.6 33.7 287.3 33.7 C 287.8 33.7 288.5 34 288.7 34.5 C 289 33.9 289.6 33.7 290.1 33.7 C 290.8 33.7 291.8 33.9 291.8 35.3 C 291.77 35.31 291.8 39.9 291.8 39.9 L 290.8 39.9 C 290.8 39.9 290.79 35.72 290.8 35.7 C 290.8 35.1 290.6 34.5 289.8 34.5 C 289.5 34.5 289.4 34.6 289.1 34.8 C 288.8 35 288.8 35.6 288.8 35.8 C 288.75 35.84 288.8 39.9 288.8 39.9 L 287.8 39.9 Z M 294.4 38.1 C 294.4 38.7 294.6 39.2 295.3 39.2 C 295.9 39.2 296.6 38.9 296.6 36.9 C 295.6 36.9 294.4 36.8 294.4 38.1 Z M 296.6 39 C 296.6 39 296.55 39.05 296.6 39 C 296.3 39.7 295.8 40 295 40 C 293.7 40 293.4 39.2 293.4 38 C 293.4 36.2 295.2 36.1 296.6 36.2 C 296.6 35.4 296.6 34.5 295.5 34.5 C 294.9 34.5 294.5 34.9 294.6 35.6 C 294.6 35.6 293.5 35.6 293.5 35.6 C 293.6 34.2 294.3 33.7 295.6 33.7 C 297.1 33.7 297.5 34.5 297.5 35.6 C 297.5 35.6 297.5 38.5 297.5 38.5 C 297.5 39 297.6 39.5 297.7 39.9 C 297.65 39.92 296.6 39.9 296.6 39.9 L 296.6 39 Z M 299.6 38.7 L 300.9 38.7 L 299.8 41.4 L 299 41.4 L 299.6 38.7 Z M 300.5 35.1 L 299.4 35.1 L 299.4 33.9 L 300.5 33.9 L 300.5 35.1 Z M 304.9 36.8 C 304.9 36.8 304.9 33.9 304.9 33.9 C 304.9 32.2 305.7 31.1 307.6 31.1 C 309.4 31.1 310.3 32.2 310.3 33.9 C 310.3 33.9 310.3 36.8 310.3 36.8 C 310.3 39.2 309.4 40.1 307.6 40.1 C 305.7 40.1 304.9 39.2 304.9 36.8 Z M 309.2 36.8 C 309.2 36.8 309.2 33.9 309.2 33.9 C 309.2 32.1 307.9 32 307.6 32 C 307.2 32 306 32.1 306 33.9 C 306 33.9 306 36.8 306 36.8 C 306 38.7 306.5 39.2 307.6 39.2 C 308.6 39.2 309.2 38.7 309.2 36.8 Z M 313.4 39 C 313.4 39 314.39 38.96 314.4 39 C 315.9 39 316.5 38.4 316.5 36.4 C 316.5 36.4 316.5 34.6 316.5 34.6 C 316.5 32.9 316 32.2 314.8 32.2 C 314.8 32.22 313.4 32.2 313.4 32.2 L 313.4 39 Z M 312.2 31.3 C 312.2 31.3 314.91 31.26 314.9 31.3 C 316 31.3 316.8 31.7 317.2 32.6 C 317.6 33.3 317.6 35 317.6 35.3 C 317.6 37.2 317.5 38.2 317.1 38.8 C 316.6 39.5 315.8 39.9 314.2 39.9 C 314.24 39.92 312.2 39.9 312.2 39.9 L 312.2 31.3 Z M 319.6 38.7 L 320.9 38.7 L 319.8 41.4 L 319 41.4 L 319.6 38.7 Z M 328.2 36.6 C 328.2 34.9 327.7 34.5 326.9 34.5 C 326.2 34.5 325.6 34.9 325.6 36.6 C 325.6 38.5 325.9 39.2 326.9 39.2 C 327.9 39.2 328.2 38.5 328.2 36.6 Z M 324.6 37 C 324.6 35.2 324.8 33.7 326.9 33.7 C 329 33.7 329.2 35.2 329.2 37 C 329.2 39.7 328.2 40 326.9 40 C 325.6 40 324.6 39.7 324.6 37 Z M 334.1 39.9 C 334.1 39.9 334.06 35.72 334.1 35.7 C 334.1 35.1 333.8 34.5 333 34.5 C 331.9 34.5 331.8 35.5 331.8 36.3 C 331.76 36.33 331.8 39.9 331.8 39.9 L 330.8 39.9 C 330.8 39.9 330.78 35.12 330.8 35.1 C 330.8 34.7 330.8 34.3 330.7 33.9 C 330.72 33.86 331.8 33.9 331.8 33.9 L 331.8 34.6 C 331.8 34.6 331.81 34.64 331.8 34.6 C 332.2 34 332.6 33.7 333.4 33.7 C 334.7 33.7 335 34.5 335 35.7 C 335.05 35.72 335 39.9 335 39.9 L 334.1 39.9 Z M 336.6 36.2 L 339.2 36.2 L 339.2 37.1 L 336.6 37.1 L 336.6 36.2 Z M 342.8 34.5 C 341.8 34.5 341.6 35.4 341.6 37 C 341.6 37.9 341.6 39.2 342.9 39.2 C 344 39.2 344 37.9 344 36.6 C 344 35.8 343.9 34.5 342.8 34.5 Z M 344 31.3 L 345 31.3 L 345 39.9 L 344 39.9 L 344 39.2 C 344 39.2 343.95 39.2 344 39.2 C 343.6 39.8 343.2 40 342.6 40 C 341.6 40 340.6 39.7 340.6 37 C 340.6 35.5 340.7 33.7 342.6 33.7 C 343.2 33.7 343.6 34 343.9 34.5 C 343.94 34.47 344 34.5 344 34.5 L 344 31.3 Z M 350.1 36.5 C 350.1 34.7 349.6 34.5 348.9 34.5 C 348.3 34.5 347.7 34.8 347.7 36.5 C 347.7 36.5 350.1 36.5 350.1 36.5 Z M 347.7 37.2 C 347.7 38.9 348.2 39.2 349 39.2 C 349.6 39.2 350 38.7 350 38.1 C 350 38.1 351.1 38.1 351.1 38.1 C 351.1 39.4 350.3 40 349 40 C 347.7 40 346.7 39.7 346.7 37 C 346.7 35.2 346.9 33.7 349 33.7 C 350.7 33.7 351.1 34.7 351.1 36.7 C 351.14 36.69 351.1 37.2 351.1 37.2 C 351.1 37.2 347.73 37.21 347.7 37.2 Z M 355.7 39.9 C 355.7 39.9 355.75 35.72 355.7 35.7 C 355.7 35.1 355.6 34.5 354.8 34.5 C 354.5 34.5 354.1 34.7 353.9 35 C 353.8 35.3 353.7 35.6 353.7 35.8 C 353.71 35.84 353.7 39.9 353.7 39.9 L 352.7 39.9 C 352.7 39.9 352.72 35.12 352.7 35.1 C 352.7 34.7 352.7 34.3 352.7 33.9 C 352.66 33.86 353.7 33.9 353.7 33.9 L 353.7 34.6 C 353.7 34.6 353.73 34.62 353.7 34.6 C 354 34 354.5 33.7 355.2 33.7 C 355.8 33.7 356.4 34 356.7 34.5 C 357 33.9 357.5 33.7 358.1 33.7 C 358.7 33.7 359.8 33.9 359.8 35.3 C 359.75 35.31 359.8 39.9 359.8 39.9 L 358.8 39.9 C 358.8 39.9 358.77 35.72 358.8 35.7 C 358.8 35.1 358.6 34.5 357.8 34.5 C 357.4 34.5 357.3 34.6 357.1 34.8 C 356.8 35 356.7 35.6 356.7 35.8 C 356.73 35.84 356.7 39.9 356.7 39.9 L 355.7 39.9 Z M 362.3 38.1 C 362.3 38.7 362.6 39.2 363.3 39.2 C 363.9 39.2 364.6 38.9 364.5 36.9 C 363.6 36.9 362.3 36.8 362.3 38.1 Z M 364.6 39 C 364.6 39 364.53 39.05 364.5 39 C 364.2 39.7 363.8 40 363 40 C 361.7 40 361.4 39.2 361.4 38 C 361.4 36.2 363.2 36.1 364.5 36.2 C 364.6 35.4 364.6 34.5 363.5 34.5 C 362.8 34.5 362.5 34.9 362.6 35.6 C 362.6 35.6 361.5 35.6 361.5 35.6 C 361.5 34.2 362.3 33.7 363.5 33.7 C 365.1 33.7 365.5 34.5 365.5 35.6 C 365.5 35.6 365.5 38.5 365.5 38.5 C 365.5 39 365.6 39.5 365.6 39.9 C 365.63 39.92 364.6 39.9 364.6 39.9 L 364.6 39 Z M 370.7 39.9 C 370.7 39.9 370.72 35.72 370.7 35.7 C 370.7 35.1 370.5 34.5 369.7 34.5 C 368.6 34.5 368.4 35.5 368.4 36.3 C 368.42 36.33 368.4 39.9 368.4 39.9 L 367.4 39.9 C 367.4 39.9 367.44 35.12 367.4 35.1 C 367.4 34.7 367.4 34.3 367.4 33.9 C 367.38 33.86 368.4 33.9 368.4 33.9 L 368.4 34.6 C 368.4 34.6 368.47 34.64 368.5 34.6 C 368.8 34 369.3 33.7 370.1 33.7 C 371.4 33.7 371.7 34.5 371.7 35.7 C 371.71 35.72 371.7 39.9 371.7 39.9 L 370.7 39.9 Z M 375.5 34.5 C 374.4 34.5 374.3 35.4 374.3 37 C 374.3 37.9 374.3 39.2 375.5 39.2 C 376.6 39.2 376.6 37.9 376.6 36.6 C 376.6 35.8 376.6 34.5 375.5 34.5 Z M 376.6 31.3 L 377.6 31.3 L 377.6 39.9 L 376.6 39.9 L 376.6 39.2 C 376.6 39.2 376.62 39.2 376.6 39.2 C 376.3 39.8 375.9 40 375.2 40 C 374.2 40 373.3 39.7 373.3 37 C 373.3 35.5 373.3 33.7 375.3 33.7 C 375.8 33.7 376.3 34 376.6 34.5 C 376.6 34.47 376.6 34.5 376.6 34.5 L 376.6 31.3 Z M 379.6 38.7 L 380.8 38.7 L 379.7 41.4 L 379 41.4 L 379.6 38.7 Z M 380.5 35.1 L 379.3 35.1 L 379.3 33.9 L 380.5 33.9 L 380.5 35.1 Z M 384.8 36.8 C 384.8 36.8 384.8 33.9 384.8 33.9 C 384.8 32.2 385.7 31.1 387.6 31.1 C 389.4 31.1 390.3 32.2 390.3 33.9 C 390.3 33.9 390.3 36.8 390.3 36.8 C 390.3 39.2 389.4 40.1 387.6 40.1 C 385.7 40.1 384.8 39.2 384.8 36.8 Z M 389.2 36.8 C 389.2 36.8 389.2 33.9 389.2 33.9 C 389.2 32.1 387.9 32 387.6 32 C 387.2 32 386 32.1 386 33.9 C 386 33.9 386 36.8 386 36.8 C 386 38.7 386.5 39.2 387.6 39.2 C 388.6 39.2 389.2 38.7 389.2 36.8 Z M 392.2 39.9 L 392.2 31.3 L 393.3 31.3 L 393.3 39 L 396.5 39 L 396.5 39.9 L 392.2 39.9 Z M 397.5 39.9 L 397.5 31.3 L 402 31.3 L 402 32.2 L 398.6 32.2 L 398.6 35 L 401.8 35 L 401.8 36 L 398.6 36 L 398.6 39 L 402.1 39 L 402.1 39.9 L 397.5 39.9 Z M 403.6 38.7 L 404.8 38.7 L 403.7 41.4 L 403 41.4 L 403.6 38.7 Z M 412.2 36.6 C 412.2 34.9 411.6 34.5 410.9 34.5 C 410.1 34.5 409.6 34.9 409.6 36.6 C 409.6 38.5 409.9 39.2 410.9 39.2 C 411.9 39.2 412.2 38.5 412.2 36.6 Z M 408.6 37 C 408.6 35.2 408.8 33.7 410.9 33.7 C 413 33.7 413.2 35.2 413.2 37 C 413.2 39.7 412.2 40 410.9 40 C 409.6 40 408.6 39.7 408.6 37 Z M 418.2 36.8 C 418.2 35.9 418.2 34.5 416.9 34.5 C 415.7 34.5 415.8 36.2 415.8 37.1 C 415.8 38 415.9 39.2 417 39.2 C 418 39.2 418.2 38.4 418.2 36.8 Z M 415.8 34.6 C 415.8 34.6 415.84 34.58 415.8 34.6 C 416.2 34 416.6 33.7 417.2 33.7 C 418.2 33.7 419.2 34.1 419.2 36.8 C 419.2 38.3 419.1 40 417.2 40 C 416.6 40 416.2 39.8 415.9 39.3 C 415.85 39.31 415.8 39.3 415.8 39.3 L 415.8 42.2 L 414.8 42.2 L 414.8 33.9 L 415.8 33.9 L 415.8 34.6 Z M 424.1 36.5 C 424.1 34.7 423.6 34.5 422.9 34.5 C 422.2 34.5 421.7 34.8 421.7 36.5 C 421.7 36.5 424.1 36.5 424.1 36.5 Z M 421.7 37.2 C 421.7 38.9 422.2 39.2 422.9 39.2 C 423.6 39.2 424 38.7 424 38.1 C 424 38.1 425.1 38.1 425.1 38.1 C 425.1 39.4 424.2 40 423 40 C 421.7 40 420.7 39.7 420.7 37 C 420.7 35.2 420.9 33.7 423 33.7 C 424.7 33.7 425.1 34.7 425.1 36.7 C 425.12 36.69 425.1 37.2 425.1 37.2 C 425.1 37.2 421.71 37.21 421.7 37.2 Z M 430 39.9 C 430 39.9 430.04 35.72 430 35.7 C 430 35.1 429.8 34.5 429 34.5 C 427.9 34.5 427.7 35.5 427.7 36.3 C 427.73 36.33 427.7 39.9 427.7 39.9 L 426.8 39.9 C 426.8 39.9 426.75 35.12 426.8 35.1 C 426.8 34.7 426.7 34.3 426.7 33.9 C 426.69 33.86 427.7 33.9 427.7 33.9 L 427.7 34.6 C 427.7 34.6 427.78 34.64 427.8 34.6 C 428.2 34 428.6 33.7 429.4 33.7 C 430.7 33.7 431 34.5 431 35.7 C 431.02 35.72 431 39.9 431 39.9 L 430 39.9 Z M 436.4 39.9 L 435.4 39.9 L 435.4 31.3 L 436.4 31.3 L 436.4 39.9 Z M 439 38.1 C 439 38.7 439.3 39.2 439.9 39.2 C 440.5 39.2 441.3 38.9 441.2 36.9 C 440.2 36.9 439 36.8 439 38.1 Z M 441.2 39 C 441.2 39 441.17 39.05 441.2 39 C 440.9 39.7 440.4 40 439.6 40 C 438.4 40 438 39.2 438 38 C 438 36.2 439.8 36.1 441.2 36.2 C 441.2 35.4 441.2 34.5 440.2 34.5 C 439.5 34.5 439.1 34.9 439.2 35.6 C 439.2 35.6 438.1 35.6 438.1 35.6 C 438.2 34.2 438.9 33.7 440.2 33.7 C 441.7 33.7 442.2 34.5 442.2 35.6 C 442.2 35.6 442.2 38.5 442.2 38.5 C 442.2 39 442.2 39.5 442.3 39.9 C 442.28 39.92 441.2 39.9 441.2 39.9 L 441.2 39 Z M 446.2 39.2 C 447.5 39.2 447.5 37.9 447.5 37 C 447.5 35.4 447.3 34.5 446.3 34.5 C 445.2 34.5 445.1 35.8 445.1 36.6 C 445.1 37.6 445 39.2 446.2 39.2 Z M 445.1 39.9 L 444.2 39.9 L 444.2 31.3 L 445.1 31.3 L 445.1 34.5 C 445.1 34.5 445.18 34.47 445.2 34.5 C 445.5 34 445.9 33.7 446.5 33.7 C 448.5 33.7 448.5 35.5 448.5 37 C 448.5 39.7 447.5 40 446.6 40 C 445.9 40 445.5 39.8 445.2 39.2 C 445.17 39.2 445.1 39.2 445.1 39.2 L 445.1 39.9 Z M 453.4 36.5 C 453.4 34.7 452.9 34.5 452.2 34.5 C 451.6 34.5 451 34.8 451 36.5 C 451 36.5 453.4 36.5 453.4 36.5 Z M 451 37.2 C 451 38.9 451.5 39.2 452.3 39.2 C 452.9 39.2 453.3 38.7 453.3 38.1 C 453.3 38.1 454.4 38.1 454.4 38.1 C 454.4 39.4 453.6 40 452.3 40 C 451 40 450 39.7 450 37 C 450 35.2 450.2 33.7 452.3 33.7 C 454 33.7 454.4 34.7 454.4 36.7 C 454.44 36.69 454.4 37.2 454.4 37.2 C 454.4 37.2 451.04 37.21 451 37.2 Z M 457 39.9 L 456.1 39.9 L 456.1 31.3 L 457 31.3 L 457 39.9 Z M 464.7 36.5 C 464.7 34.7 464.2 34.5 463.5 34.5 C 462.9 34.5 462.4 34.8 462.4 36.5 C 462.4 36.5 464.7 36.5 464.7 36.5 Z M 462.4 37.2 C 462.4 38.9 462.8 39.2 463.6 39.2 C 464.3 39.2 464.6 38.7 464.6 38.1 C 464.6 38.1 465.7 38.1 465.7 38.1 C 465.7 39.4 464.9 40 463.6 40 C 462.3 40 461.3 39.7 461.3 37 C 461.3 35.2 461.5 33.7 463.6 33.7 C 465.3 33.7 465.8 34.7 465.8 36.7 C 465.77 36.69 465.8 37.2 465.8 37.2 C 465.8 37.2 462.36 37.21 462.4 37.2 Z M 471.8 39.9 L 470.5 39.9 L 469.1 37.4 L 467.8 39.9 L 466.6 39.9 L 468.5 36.8 L 466.8 33.9 L 468 33.9 L 469.2 36 L 470.4 33.9 L 471.6 33.9 L 469.8 36.8 L 471.8 39.9 Z M 472.8 33.9 L 472.8 32.7 L 473.8 32.3 L 473.8 33.9 L 475.1 33.9 L 475.1 34.6 L 473.8 34.6 C 473.8 34.6 473.82 38.31 473.8 38.3 C 473.8 38.7 473.8 39.2 474.7 39.2 C 474.8 39.2 475 39.2 475.2 39.1 C 475.2 39.1 475.2 39.9 475.2 39.9 C 474.8 39.9 474.5 40 474.2 40 C 473.3 40 472.8 39.6 472.8 38.9 C 472.84 38.91 472.8 34.6 472.8 34.6 L 471.8 34.6 L 471.8 33.9 L 472.8 33.9 Z M 479.4 36.5 C 479.4 34.7 478.9 34.5 478.2 34.5 C 477.6 34.5 477 34.8 477 36.5 C 477 36.5 479.4 36.5 479.4 36.5 Z M 477 37.2 C 477 38.9 477.5 39.2 478.3 39.2 C 478.9 39.2 479.3 38.7 479.3 38.1 C 479.3 38.1 480.4 38.1 480.4 38.1 C 480.4 39.4 479.5 40 478.3 40 C 477 40 476 39.7 476 37 C 476 35.2 476.2 33.7 478.3 33.7 C 480 33.7 480.4 34.7 480.4 36.7 C 480.44 36.69 480.4 37.2 480.4 37.2 C 480.4 37.2 477.03 37.21 477 37.2 Z M 485.4 39.9 C 485.4 39.9 485.36 35.72 485.4 35.7 C 485.4 35.1 485.1 34.5 484.3 34.5 C 483.2 34.5 483.1 35.5 483.1 36.3 C 483.05 36.33 483.1 39.9 483.1 39.9 L 482.1 39.9 C 482.1 39.9 482.07 35.12 482.1 35.1 C 482.1 34.7 482 34.3 482 33.9 C 482.01 33.86 483.1 33.9 483.1 33.9 L 483.1 34.6 C 483.1 34.6 483.1 34.64 483.1 34.6 C 483.5 34 483.9 33.7 484.7 33.7 C 486 33.7 486.3 34.5 486.3 35.7 C 486.34 35.72 486.3 39.9 486.3 39.9 L 485.4 39.9 Z M 489.9 40 C 488.5 40 487.7 39.5 487.8 38.1 C 487.8 38.1 488.9 38.1 488.9 38.1 C 488.9 38.4 488.9 39.2 489.9 39.2 C 490.5 39.2 490.9 38.9 490.9 38.3 C 490.9 37.2 487.9 37.2 487.9 35.4 C 487.9 34.8 488.3 33.7 490 33.7 C 491.1 33.7 492 34.3 491.9 35.5 C 491.9 35.5 490.8 35.5 490.8 35.5 C 490.8 34.8 490.5 34.5 489.9 34.5 C 489.4 34.5 488.9 34.8 488.9 35.3 C 488.9 36.4 492 36.3 492 38.2 C 492 39.5 491.1 40 489.9 40 Z M 494.4 39.9 L 493.4 39.9 L 493.4 33.9 L 494.4 33.9 L 494.4 39.9 Z M 493.3 31.3 L 494.4 31.3 L 494.4 32.3 L 493.3 32.3 L 493.3 31.3 Z M 499.5 36.6 C 499.5 34.9 499 34.5 498.2 34.5 C 497.4 34.5 496.9 34.9 496.9 36.6 C 496.9 38.5 497.2 39.2 498.2 39.2 C 499.2 39.2 499.5 38.5 499.5 36.6 Z M 495.9 37 C 495.9 35.2 496.1 33.7 498.2 33.7 C 500.3 33.7 500.5 35.2 500.5 37 C 500.5 39.7 499.5 40 498.2 40 C 496.9 40 495.9 39.7 495.9 37 Z M 505.3 39.9 C 505.3 39.9 505.35 35.72 505.3 35.7 C 505.3 35.1 505.1 34.5 504.3 34.5 C 503.2 34.5 503 35.5 503 36.3 C 503.04 36.33 503 39.9 503 39.9 L 502.1 39.9 C 502.1 39.9 502.06 35.12 502.1 35.1 C 502.1 34.7 502 34.3 502 33.9 C 502 33.86 503 33.9 503 33.9 L 503 34.6 C 503 34.6 503.09 34.64 503.1 34.6 C 503.5 34 503.9 33.7 504.7 33.7 C 506 33.7 506.3 34.5 506.3 35.7 C 506.33 35.72 506.3 39.9 506.3 39.9 L 505.3 39.9 Z M 508.2 38.7 L 509.5 38.7 L 508.4 41.4 L 507.6 41.4 L 508.2 38.7 Z M 509.1 35.1 L 508 35.1 L 508 33.9 L 509.1 33.9 L 509.1 35.1 Z M 515.2 40 C 513.9 40 513.1 39.5 513.1 38.1 C 513.1 38.1 514.2 38.1 514.2 38.1 C 514.2 38.4 514.2 39.2 515.2 39.2 C 515.8 39.2 516.3 38.9 516.3 38.3 C 516.3 37.2 513.2 37.2 513.2 35.4 C 513.2 34.8 513.6 33.7 515.3 33.7 C 516.4 33.7 517.3 34.3 517.2 35.5 C 517.2 35.5 516.1 35.5 516.1 35.5 C 516.2 34.8 515.8 34.5 515.2 34.5 C 514.7 34.5 514.3 34.8 514.3 35.3 C 514.3 36.4 517.3 36.3 517.3 38.2 C 517.3 39.5 516.4 40 515.2 40 Z M 519.7 39.9 L 518.6 39.9 L 518.6 38.7 L 519.7 38.7 L 519.7 39.9 Z M 524.5 35.8 C 524.6 34.8 524.1 34.5 523.7 34.5 C 523 34.5 522.4 34.9 522.4 36.6 C 522.4 38.5 522.7 39.2 523.7 39.2 C 523.9 39.2 524.6 39 524.6 37.9 C 524.6 37.9 525.6 37.9 525.6 37.9 C 525.7 39.6 524.4 40 523.7 40 C 522.4 40 521.4 39.7 521.4 37 C 521.4 35.2 521.6 33.7 523.7 33.7 C 524.9 33.7 525.6 34.4 525.6 35.8 C 525.6 35.8 524.5 35.8 524.5 35.8 Z M 528.4 39.9 L 527.3 39.9 L 527.3 38.7 L 528.4 38.7 L 528.4 39.9 Z M 530.2 38.7 L 531.4 38.7 L 530.4 41.4 L 529.6 41.4 L 530.2 38.7 Z M 537.2 40 C 535.9 40 535 39.5 535.1 38.1 C 535.1 38.1 536.2 38.1 536.2 38.1 C 536.2 38.4 536.2 39.2 537.2 39.2 C 537.8 39.2 538.2 38.9 538.2 38.3 C 538.2 37.2 535.2 37.2 535.2 35.4 C 535.2 34.8 535.6 33.7 537.3 33.7 C 538.4 33.7 539.3 34.3 539.2 35.5 C 539.2 35.5 538.1 35.5 538.1 35.5 C 538.1 34.8 537.8 34.5 537.2 34.5 C 536.7 34.5 536.2 34.8 536.2 35.3 C 536.2 36.4 539.3 36.3 539.3 38.2 C 539.3 39.5 538.4 40 537.2 40 Z M 543.9 33.9 L 544.9 33.9 C 544.9 33.9 544.92 38.66 544.9 38.7 C 544.9 39.1 544.9 39.5 545 39.9 C 544.98 39.92 543.9 39.9 543.9 39.9 L 543.9 39.2 C 543.9 39.2 543.9 39.19 543.9 39.2 C 543.6 39.7 543 40 542.4 40 C 541.3 40 540.7 39.5 540.7 38.5 C 540.74 38.48 540.7 33.9 540.7 33.9 L 541.7 33.9 C 541.7 33.9 541.72 38.06 541.7 38.1 C 541.7 38.8 542.1 39.3 542.8 39.3 C 543.3 39.3 543.9 38.9 543.9 37.9 C 543.94 37.88 543.9 33.9 543.9 33.9 Z M 548.9 39.2 C 550.1 39.2 550.1 37.9 550.1 37 C 550.1 35.4 550 34.5 548.9 34.5 C 547.8 34.5 547.8 35.8 547.8 36.6 C 547.8 37.6 547.7 39.2 548.9 39.2 Z M 547.8 39.9 L 546.8 39.9 L 546.8 31.3 L 547.8 31.3 L 547.8 34.5 C 547.8 34.5 547.8 34.47 547.8 34.5 C 548.1 34 548.6 33.7 549.1 33.7 C 551.1 33.7 551.1 35.5 551.1 37 C 551.1 39.7 550.2 40 549.2 40 C 548.5 40 548.1 39.8 547.8 39.2 C 547.79 39.2 547.8 39.2 547.8 39.2 L 547.8 39.9 Z M 555.9 35.8 C 555.9 34.8 555.4 34.5 555 34.5 C 554.3 34.5 553.8 34.9 553.8 36.6 C 553.8 38.5 554 39.2 555 39.2 C 555.3 39.2 555.9 39 555.9 37.9 C 555.9 37.9 556.9 37.9 556.9 37.9 C 557 39.6 555.7 40 555 40 C 553.7 40 552.7 39.7 552.7 37 C 552.7 35.2 552.9 33.7 555 33.7 C 556.2 33.7 556.9 34.4 556.9 35.8 C 556.9 35.8 555.9 35.8 555.9 35.8 Z M 561.9 33.9 L 562.9 33.9 C 562.9 33.9 562.92 38.66 562.9 38.7 C 562.9 39.1 562.9 39.5 563 39.9 C 562.98 39.92 561.9 39.9 561.9 39.9 L 561.9 39.2 C 561.9 39.2 561.9 39.19 561.9 39.2 C 561.6 39.7 561 40 560.4 40 C 559.3 40 558.7 39.5 558.7 38.5 C 558.74 38.48 558.7 33.9 558.7 33.9 L 559.7 33.9 C 559.7 33.9 559.72 38.06 559.7 38.1 C 559.7 38.8 560.1 39.3 560.8 39.3 C 561.3 39.3 561.9 38.9 561.9 37.9 C 561.94 37.88 561.9 33.9 561.9 33.9 Z M 564.8 33.9 L 564.8 32.7 L 565.8 32.3 L 565.8 33.9 L 567.1 33.9 L 567.1 34.6 L 565.8 34.6 C 565.8 34.6 565.79 38.31 565.8 38.3 C 565.8 38.7 565.8 39.2 566.7 39.2 C 566.8 39.2 566.9 39.2 567.1 39.1 C 567.1 39.1 567.1 39.9 567.1 39.9 C 566.8 39.9 566.5 40 566.2 40 C 565.2 40 564.8 39.6 564.8 38.9 C 564.81 38.91 564.8 34.6 564.8 34.6 L 563.8 34.6 L 563.8 33.9 L 564.8 33.9 Z M 568.9 38.1 C 568.9 38.7 569.2 39.2 569.9 39.2 C 570.5 39.2 571.2 38.9 571.1 36.9 C 570.2 36.9 568.9 36.8 568.9 38.1 Z M 571.2 39 C 571.2 39 571.13 39.05 571.1 39 C 570.8 39.7 570.4 40 569.6 40 C 568.3 40 568 39.2 568 38 C 568 36.2 569.8 36.1 571.1 36.2 C 571.2 35.4 571.2 34.5 570.1 34.5 C 569.5 34.5 569.1 34.9 569.2 35.6 C 569.2 35.6 568.1 35.6 568.1 35.6 C 568.1 34.2 568.9 33.7 570.1 33.7 C 571.7 33.7 572.1 34.5 572.1 35.6 C 572.1 35.6 572.1 38.5 572.1 38.5 C 572.1 39 572.2 39.5 572.2 39.9 C 572.23 39.92 571.2 39.9 571.2 39.9 L 571.2 39 Z M 577.3 39.9 C 577.3 39.9 577.32 35.72 577.3 35.7 C 577.3 35.1 577.1 34.5 576.3 34.5 C 575.2 34.5 575 35.5 575 36.3 C 575.02 36.33 575 39.9 575 39.9 L 574 39.9 C 574 39.9 574.04 35.12 574 35.1 C 574 34.7 574 34.3 574 33.9 C 573.98 33.86 575 33.9 575 33.9 L 575 34.6 C 575 34.6 575.07 34.64 575.1 34.6 C 575.5 34 575.9 33.7 576.7 33.7 C 578 33.7 578.3 34.5 578.3 35.7 C 578.31 35.72 578.3 39.9 578.3 39.9 L 577.3 39.9 Z M 583.4 36.5 C 583.4 34.7 582.9 34.5 582.1 34.5 C 581.5 34.5 581 34.8 581 36.5 C 581 36.5 583.4 36.5 583.4 36.5 Z M 581 37.2 C 581 38.9 581.5 39.2 582.2 39.2 C 582.9 39.2 583.2 38.7 583.3 38.1 C 583.3 38.1 584.4 38.1 584.4 38.1 C 584.3 39.4 583.5 40 582.2 40 C 581 40 579.9 39.7 579.9 37 C 579.9 35.2 580.1 33.7 582.2 33.7 C 584 33.7 584.4 34.7 584.4 36.7 C 584.4 36.69 584.4 37.2 584.4 37.2 C 584.4 37.2 580.99 37.21 581 37.2 Z M 589.4 36.6 C 589.4 34.9 588.9 34.5 588.2 34.5 C 587.4 34.5 586.9 34.9 586.9 36.6 C 586.9 38.5 587.2 39.2 588.2 39.2 C 589.2 39.2 589.4 38.5 589.4 36.6 Z M 585.9 37 C 585.9 35.2 586.1 33.7 588.2 33.7 C 590.3 33.7 590.5 35.2 590.5 37 C 590.5 39.7 589.5 40 588.2 40 C 586.9 40 585.9 39.7 585.9 37 Z M 595.3 33.9 L 596.3 33.9 C 596.3 33.9 596.26 38.66 596.3 38.7 C 596.3 39.1 596.3 39.5 596.3 39.9 C 596.32 39.92 595.3 39.9 595.3 39.9 L 595.3 39.2 C 595.3 39.2 595.24 39.19 595.2 39.2 C 594.9 39.7 594.3 40 593.7 40 C 592.6 40 592.1 39.5 592.1 38.5 C 592.07 38.48 592.1 33.9 592.1 33.9 L 593.1 33.9 C 593.1 33.9 593.05 38.06 593.1 38.1 C 593.1 38.8 593.4 39.3 594.1 39.3 C 594.6 39.3 595.3 38.9 595.3 37.9 C 595.28 37.88 595.3 33.9 595.3 33.9 Z M 599.8 40 C 598.5 40 597.7 39.5 597.7 38.1 C 597.7 38.1 598.8 38.1 598.8 38.1 C 598.8 38.4 598.9 39.2 599.9 39.2 C 600.4 39.2 600.9 38.9 600.9 38.3 C 600.9 37.2 597.9 37.2 597.9 35.4 C 597.9 34.8 598.3 33.7 600 33.7 C 601 33.7 602 34.3 601.9 35.5 C 601.9 35.5 600.8 35.5 600.8 35.5 C 600.8 34.8 600.5 34.5 599.8 34.5 C 599.3 34.5 598.9 34.8 598.9 35.3 C 598.9 36.4 601.9 36.3 601.9 38.2 C 601.9 39.5 601 40 599.8 40 Z M 604.4 39.9 L 603.3 39.9 L 603.3 38.7 L 604.4 38.7 L 604.4 39.9 Z " stroke="none" fill="#555555"/>  </g></svg>