<?xml version="1.0" standalone="no"?><!DOCTYPE svg PUBLIC "-//W3C//DTD SVG 1.1//EN" "http://www.w3.org/Graphics/SVG/1.1/DTD/svg11.dtd"><svg xmlns="http://www.w3.org/2000/svg" version="1.1" width="155.3px" height="48.5px" viewBox="0 0 155.3 48.5">  <desc>≥12 years of age Type 1 or Type 2 HAE</desc>  <defs/>  <g id="Polygon194771">    <path d="M 20.4 25.9 L 20.4 27.8 L 17.8 27.8 L 17.8 37.2 L 15.4 37.2 L 15.4 27.8 L 12.8 27.8 L 12.8 25.9 L 20.4 25.9 Z M 21.4 37.3 L 19.2 29.3 L 21.5 29.3 L 22.6 34.9 L 22.6 34.9 L 23.8 29.3 L 26 29.3 L 22.9 40.3 L 20.6 40.3 L 21.4 37.3 Z M 31 33.2 C 31 31.6 31 30.5 30.1 30.5 C 29.2 30.5 29.2 31.6 29.2 33.2 C 29.2 35.2 29.3 36 30.1 36 C 30.9 36 31 35.2 31 33.2 Z M 29.1 29.3 L 29.1 30.2 C 29.1 30.2 29.11 30.18 29.1 30.2 C 29.5 29.4 30.1 29.1 31 29.1 C 33.3 29.1 33.2 31.7 33.2 33.3 C 33.2 34.9 33.3 37.4 31 37.4 C 30.2 37.4 29.7 37.2 29.2 36.5 C 29.22 36.49 29.2 36.5 29.2 36.5 L 29.2 40.7 L 27 40.7 L 27 29.3 L 29.1 29.3 Z M 38.9 32.4 C 38.9 31.6 38.9 30.5 37.9 30.5 C 36.9 30.5 36.9 31.7 36.9 32.4 C 36.9 32.4 38.9 32.4 38.9 32.4 Z M 36.9 33.6 C 36.9 34.6 36.9 36 37.9 36 C 38.7 36 38.8 35.2 38.8 34.6 C 38.8 34.6 41.1 34.6 41.1 34.6 C 41.1 35.4 40.8 36.1 40.2 36.6 C 39.7 37.1 38.9 37.4 37.9 37.4 C 35 37.4 34.7 35.7 34.7 33.2 C 34.7 31 35 29.1 37.9 29.1 C 40.9 29.1 41.2 31.1 41.1 33.6 C 41.1 33.6 36.9 33.6 36.9 33.6 Z M 46.1 28 C 46.9 27.5 47.7 27 48.2 26.3 C 48.22 26.27 50.3 26.3 50.3 26.3 L 50.3 37.2 L 47.9 37.2 C 47.9 37.2 47.95 28.8 47.9 28.8 C 47.4 29.3 46.7 29.7 46.1 30 C 46.1 30 46.1 28 46.1 28 Z M 60.8 33 C 60.8 31.4 60.7 30.6 59.7 30.6 C 58.8 30.6 58.7 31.4 58.7 33 C 58.7 35.5 58.9 36 59.7 36 C 60.6 36 60.8 35.5 60.8 33 Z M 56.5 33.2 C 56.5 31 56.8 29.1 59.7 29.1 C 62.7 29.1 63 31 63 33.2 C 63 35.7 62.6 37.4 59.7 37.4 C 56.9 37.4 56.5 35.7 56.5 33.2 Z M 66.7 29.3 L 66.7 30.3 C 66.7 30.3 66.69 30.33 66.7 30.3 C 67.1 29.4 67.9 29.1 68.7 29.1 C 68.7 29.1 68.7 31.1 68.7 31.1 C 66.8 31 66.8 32.1 66.8 32.9 C 66.77 32.92 66.8 37.2 66.8 37.2 L 64.5 37.2 L 64.5 29.3 L 66.7 29.3 Z M 80.2 25.9 L 80.2 27.8 L 77.5 27.8 L 77.5 37.2 L 75.1 37.2 L 75.1 27.8 L 72.5 27.8 L 72.5 25.9 L 80.2 25.9 Z M 81.1 37.3 L 79 29.3 L 81.2 29.3 L 82.3 34.9 L 82.4 34.9 L 83.6 29.3 L 85.7 29.3 L 82.6 40.3 L 80.3 40.3 L 81.1 37.3 Z M 90.8 33.2 C 90.8 31.6 90.8 30.5 89.8 30.5 C 88.9 30.5 88.9 31.6 88.9 33.2 C 88.9 35.2 89.1 36 89.8 36 C 90.6 36 90.8 35.2 90.8 33.2 Z M 88.8 29.3 L 88.8 30.2 C 88.8 30.2 88.86 30.18 88.9 30.2 C 89.3 29.4 89.9 29.1 90.7 29.1 C 93 29.1 92.9 31.7 92.9 33.3 C 92.9 34.9 93 37.4 90.8 37.4 C 90 37.4 89.4 37.2 89 36.5 C 88.97 36.49 88.9 36.5 88.9 36.5 L 88.9 40.7 L 86.7 40.7 L 86.7 29.3 L 88.8 29.3 Z M 98.7 32.4 C 98.7 31.6 98.7 30.5 97.6 30.5 C 96.6 30.5 96.6 31.7 96.6 32.4 C 96.6 32.4 98.7 32.4 98.7 32.4 Z M 96.6 33.6 C 96.6 34.6 96.7 36 97.6 36 C 98.4 36 98.6 35.2 98.6 34.6 C 98.6 34.6 100.8 34.6 100.8 34.6 C 100.8 35.4 100.5 36.1 100 36.6 C 99.5 37.1 98.7 37.4 97.6 37.4 C 94.8 37.4 94.4 35.7 94.4 33.2 C 94.4 31 94.7 29.1 97.6 29.1 C 100.6 29.1 101 31.1 100.9 33.6 C 100.9 33.6 96.6 33.6 96.6 33.6 Z M 105.3 37.2 C 105.3 37.2 105.25 35.31 105.3 35.3 C 108.7 30.7 109.4 30.2 109.4 28.8 C 109.4 28.2 109.2 27.7 108.6 27.7 C 107.7 27.7 107.6 28.6 107.6 29.3 C 107.6 29.3 105.4 29.3 105.4 29.3 C 105.3 27.3 106.4 26.1 108.4 26.1 C 110.4 26.1 111.7 26.9 111.7 29 C 111.7 31.4 108.8 34.2 107.6 35.6 C 107.58 35.55 111.8 35.6 111.8 35.6 L 111.8 37.2 L 105.3 37.2 Z M 121.7 30.4 L 121.7 25.9 L 124.1 25.9 L 124.1 37.2 L 121.7 37.2 L 121.7 32.2 L 119 32.2 L 119 37.2 L 116.6 37.2 L 116.6 25.9 L 119 25.9 L 119 30.4 L 121.7 30.4 Z M 125.3 37.2 L 128.4 25.9 L 131.6 25.9 L 134.6 37.2 L 132.1 37.2 L 131.5 34.7 L 128.3 34.7 L 127.6 37.2 L 125.3 37.2 Z M 129.9 28.1 L 129.8 28.1 L 128.7 33 L 131 33 L 129.9 28.1 Z M 135.8 37.2 L 135.8 25.9 L 142 25.9 L 142 27.6 L 138.1 27.6 L 138.1 30.4 L 141.7 30.4 L 141.7 32.2 L 138.1 32.2 L 138.1 35.5 L 142.1 35.5 L 142.1 37.2 L 135.8 37.2 Z " stroke="none" fill="#003c71"/>  </g>  <g id="Polygon194770">    <path d="M 33 12.4 L 33 13.6 L 27.2 16.8 L 27.2 15.5 L 31.9 13 L 31.9 13 L 27.2 10.5 L 27.2 9.1 L 33 12.4 Z M 27.1 18.5 L 27.1 17.4 L 33 17.4 L 33 18.5 L 27.1 18.5 Z M 34.4 9.1 C 35.2 8.6 36 8.1 36.5 7.4 C 36.52 7.38 38.6 7.4 38.6 7.4 L 38.6 18.4 L 36.3 18.4 C 36.3 18.4 36.25 9.92 36.3 9.9 C 35.7 10.4 35 10.8 34.4 11.1 C 34.4 11.1 34.4 9.1 34.4 9.1 Z M 40.8 18.4 C 40.8 18.4 40.8 16.43 40.8 16.4 C 44.3 11.8 45 11.3 45 9.9 C 45 9.4 44.8 8.8 44.1 8.8 C 43.2 8.8 43.2 9.7 43.2 10.4 C 43.2 10.4 41 10.4 41 10.4 C 40.8 8.4 42 7.2 44 7.2 C 45.9 7.2 47.2 8 47.2 10.1 C 47.2 12.5 44.3 15.3 43.1 16.7 C 43.12 16.67 47.3 16.7 47.3 16.7 L 47.3 18.4 L 40.8 18.4 Z M 53.4 18.4 L 51.2 10.4 L 53.4 10.4 L 54.6 16 L 54.6 16 L 55.8 10.4 L 57.9 10.4 L 54.9 21.4 L 52.5 21.4 L 53.4 18.4 Z M 63 13.5 C 63 12.7 63.1 11.6 62 11.6 C 61 11.6 61 12.8 61 13.5 C 61 13.5 63 13.5 63 13.5 Z M 61 14.7 C 61 15.7 61 17.1 62 17.1 C 62.8 17.1 63 16.4 63 15.7 C 63 15.7 65.2 15.7 65.2 15.7 C 65.2 16.6 64.9 17.3 64.4 17.8 C 63.8 18.2 63 18.5 62 18.5 C 59.1 18.5 58.8 16.8 58.8 14.3 C 58.8 12.1 59.1 10.3 62 10.3 C 65 10.3 65.3 12.2 65.2 14.7 C 65.2 14.7 61 14.7 61 14.7 Z M 68.8 15.9 C 68.8 16.5 68.9 17.2 69.6 17.2 C 70.9 17.2 70.7 15.4 70.7 14.5 C 69.6 14.6 68.8 14.5 68.8 15.9 Z M 72.8 16.9 C 72.8 17.4 72.9 17.9 73 18.4 C 72.96 18.37 70.9 18.4 70.9 18.4 L 70.8 17.3 C 70.8 17.3 70.77 17.31 70.8 17.3 C 70.3 18.1 69.7 18.5 68.7 18.5 C 67.2 18.5 66.6 17.4 66.6 16 C 66.6 13.4 68.6 13.3 70.7 13.3 C 70.7 13.3 70.7 12.7 70.7 12.7 C 70.7 12 70.6 11.5 69.8 11.5 C 69 11.5 68.9 12.1 68.9 12.7 C 68.9 12.7 66.8 12.7 66.8 12.7 C 66.8 11.8 67.1 11.1 67.6 10.8 C 68.1 10.4 68.8 10.3 69.7 10.3 C 72.5 10.3 72.8 11.5 72.8 12.9 C 72.8 12.9 72.8 16.9 72.8 16.9 Z M 76.8 10.4 L 76.8 11.4 C 76.8 11.4 76.83 11.44 76.8 11.4 C 77.2 10.5 78 10.3 78.9 10.3 C 78.9 10.3 78.9 12.2 78.9 12.2 C 76.9 12.1 76.9 13.3 76.9 14 C 76.91 14.04 76.9 18.4 76.9 18.4 L 74.7 18.4 L 74.7 10.4 L 76.8 10.4 Z M 81.7 15.8 C 81.7 16.2 81.7 16.5 81.8 16.8 C 81.9 17 82.1 17.2 82.6 17.2 C 83 17.2 83.4 16.9 83.4 16.3 C 83.4 14.7 79.5 15 79.5 12.5 C 79.5 10.8 81.2 10.3 82.6 10.3 C 84.1 10.3 85.5 11 85.4 12.7 C 85.4 12.7 83.2 12.7 83.2 12.7 C 83.2 12.2 83.2 11.8 83 11.7 C 82.9 11.5 82.7 11.5 82.4 11.5 C 81.9 11.5 81.7 11.8 81.7 12.4 C 81.7 13.6 85.6 13.6 85.6 16.1 C 85.6 17.5 84.4 18.5 82.6 18.5 C 80.7 18.5 79.4 18 79.5 15.8 C 79.5 15.8 81.7 15.8 81.7 15.8 Z M 94.5 14.2 C 94.5 12.5 94.4 11.7 93.5 11.7 C 92.5 11.7 92.4 12.5 92.4 14.2 C 92.4 16.6 92.6 17.1 93.5 17.1 C 94.3 17.1 94.5 16.6 94.5 14.2 Z M 90.2 14.3 C 90.2 12.1 90.5 10.3 93.5 10.3 C 96.4 10.3 96.7 12.1 96.7 14.3 C 96.7 16.8 96.3 18.5 93.5 18.5 C 90.6 18.5 90.2 16.8 90.2 14.3 Z M 101.7 8.4 C 100.8 8.3 100.6 8.7 100.6 9.5 C 100.6 9.46 100.6 10.4 100.6 10.4 L 101.6 10.4 L 101.6 11.8 L 100.6 11.8 L 100.6 18.4 L 98.4 18.4 L 98.4 11.8 L 97.4 11.8 L 97.4 10.4 C 97.4 10.4 98.4 10.42 98.4 10.4 C 98.4 8.1 98.2 6.9 100.9 6.9 C 101.2 6.9 101.4 6.9 101.7 7 C 101.7 7 101.7 8.4 101.7 8.4 Z M 108.1 15.9 C 108.1 16.5 108.2 17.2 108.9 17.2 C 110.2 17.2 110 15.4 110 14.5 C 108.9 14.6 108.1 14.5 108.1 15.9 Z M 112.2 16.9 C 112.2 17.4 112.2 17.9 112.3 18.4 C 112.28 18.37 110.2 18.4 110.2 18.4 L 110.1 17.3 C 110.1 17.3 110.09 17.31 110.1 17.3 C 109.6 18.1 109 18.5 108 18.5 C 106.5 18.5 105.9 17.4 105.9 16 C 105.9 13.4 107.9 13.3 110 13.3 C 110 13.3 110 12.7 110 12.7 C 110 12 109.9 11.5 109.1 11.5 C 108.3 11.5 108.3 12.1 108.3 12.7 C 108.3 12.7 106.1 12.7 106.1 12.7 C 106.1 11.8 106.4 11.1 106.9 10.8 C 107.4 10.4 108.1 10.3 109 10.3 C 111.8 10.3 112.2 11.5 112.2 12.9 C 112.2 12.9 112.2 16.9 112.2 16.9 Z M 117 16.9 C 117.8 16.9 117.9 16.1 117.9 14.4 C 117.9 12.6 117.8 11.6 117 11.6 C 116.1 11.6 116 12.2 116 14.6 C 116 15.4 115.9 16.9 117 16.9 Z M 120.1 10.4 C 120.1 10.4 120.08 18.7 120.1 18.7 C 120.1 19.2 120.1 21.4 117.1 21.4 C 115.4 21.4 114 21 113.9 19.1 C 113.9 19.1 116.1 19.1 116.1 19.1 C 116.1 19.4 116.2 19.7 116.3 19.9 C 116.4 20.1 116.7 20.2 117 20.2 C 117.6 20.2 117.9 19.7 117.9 18.9 C 117.87 18.85 117.9 17.3 117.9 17.3 C 117.9 17.3 117.83 17.33 117.8 17.3 C 117.5 17.9 116.9 18.3 116.1 18.3 C 113.7 18.3 113.8 16 113.8 14.2 C 113.8 12.5 113.9 10.3 116.2 10.3 C 117 10.3 117.6 10.6 117.9 11.3 C 117.94 11.35 118 11.3 118 11.3 L 118 10.4 L 120.1 10.4 Z M 126 13.5 C 126 12.7 126 11.6 124.9 11.6 C 123.9 11.6 123.9 12.8 123.9 13.5 C 123.9 13.5 126 13.5 126 13.5 Z M 123.9 14.7 C 123.9 15.7 124 17.1 124.9 17.1 C 125.7 17.1 125.9 16.4 125.9 15.7 C 125.9 15.7 128.1 15.7 128.1 15.7 C 128.1 16.6 127.8 17.3 127.3 17.8 C 126.8 18.2 126 18.5 124.9 18.5 C 122.1 18.5 121.7 16.8 121.7 14.3 C 121.7 12.1 122 10.3 124.9 10.3 C 127.9 10.3 128.2 12.2 128.2 14.7 C 128.2 14.7 123.9 14.7 123.9 14.7 Z " stroke="none" fill="#003c71"/>  </g></svg>