<?xml version="1.0" standalone="no"?><!DOCTYPE svg PUBLIC "-//W3C//DTD SVG 1.1//EN" "http://www.w3.org/Graphics/SVG/1.1/DTD/svg11.dtd"><svg xmlns="http://www.w3.org/2000/svg" version="1.1" width="97.1px" height="25.3px" viewBox="0 -5 97.1 25.3" style="top:-5px">  <desc>Randomized 3:2</desc>  <defs/>  <g id="Polygon194868">    <path d="M 2.7 4.9 C 2.7 4.9 4.82 4.87 4.8 4.9 C 5.9 4.9 6.4 4 6.4 3 C 6.4 2.2 5.9 1.3 4.8 1.3 C 4.84 1.28 2.7 1.3 2.7 1.3 L 2.7 4.9 Z M 2.7 6.1 L 2.7 11.3 L 1.2 11.3 L 1.2 0 C 1.2 0 5.12 0.03 5.1 0 C 7.1 0 7.8 1.4 7.8 2.8 C 7.8 4.2 7.1 5.2 5.8 5.4 C 5.8 5.4 5.8 5.4 5.8 5.4 C 7.1 5.7 7.5 6.1 7.6 8.4 C 7.6 8.8 7.8 10.6 8 11.3 C 8 11.3 6.5 11.3 6.5 11.3 C 6.1 10.5 6.2 9.1 6.1 7.6 C 5.9 6.2 4.8 6.1 4.4 6.1 C 4.36 6.12 2.7 6.1 2.7 6.1 Z M 11 9 C 11 9.7 11.3 10.4 12.2 10.4 C 13 10.4 14 9.9 13.8 7.4 C 12.6 7.4 11 7.3 11 9 Z M 13.9 10.2 C 13.9 10.2 13.83 10.16 13.8 10.2 C 13.4 11.1 12.8 11.5 11.8 11.5 C 10.2 11.5 9.7 10.4 9.7 8.9 C 9.7 6.5 12 6.4 13.8 6.4 C 13.9 5.4 13.9 4.2 12.5 4.2 C 11.6 4.2 11.2 4.8 11.3 5.6 C 11.3 5.6 9.9 5.6 9.9 5.6 C 9.9 3.9 10.9 3.3 12.6 3.3 C 14.6 3.3 15.1 4.3 15.1 5.6 C 15.1 5.6 15.1 9.4 15.1 9.4 C 15.1 10.1 15.2 10.7 15.3 11.3 C 15.27 11.3 13.9 11.3 13.9 11.3 L 13.9 10.2 Z M 21.9 11.3 C 21.9 11.3 21.89 5.84 21.9 5.8 C 21.9 5 21.6 4.3 20.5 4.3 C 19.1 4.3 18.9 5.6 18.9 6.6 C 18.89 6.63 18.9 11.3 18.9 11.3 L 17.6 11.3 C 17.6 11.3 17.61 5.06 17.6 5.1 C 17.6 4.5 17.6 4 17.5 3.4 C 17.53 3.42 18.9 3.4 18.9 3.4 L 18.9 4.4 C 18.9 4.4 18.95 4.43 18.9 4.4 C 19.4 3.5 20 3.3 21.1 3.3 C 22.7 3.3 23.2 4.3 23.2 5.8 C 23.16 5.84 23.2 11.3 23.2 11.3 L 21.9 11.3 Z M 28.1 4.3 C 26.7 4.3 26.5 5.4 26.5 7.5 C 26.5 8.7 26.5 10.4 28.1 10.4 C 29.6 10.4 29.6 8.6 29.6 7 C 29.6 6 29.5 4.3 28.1 4.3 Z M 29.6 0 L 30.9 0 L 30.9 11.3 L 29.6 11.3 L 29.6 10.4 C 29.6 10.4 29.55 10.37 29.6 10.4 C 29.1 11.1 28.6 11.5 27.7 11.5 C 26.5 11.5 25.2 11 25.2 7.5 C 25.2 5.5 25.3 3.3 27.8 3.3 C 28.6 3.3 29.1 3.6 29.5 4.2 C 29.54 4.21 29.6 4.2 29.6 4.2 L 29.6 0 Z M 37.7 6.9 C 37.7 4.8 37 4.3 36 4.3 C 35 4.3 34.3 4.8 34.3 6.9 C 34.3 9.5 34.7 10.4 36 10.4 C 37.3 10.4 37.7 9.5 37.7 6.9 Z M 33 7.5 C 33 5.2 33.3 3.3 36 3.3 C 38.7 3.3 39 5.2 39 7.5 C 39 11 37.7 11.5 36 11.5 C 34.3 11.5 33 11 33 7.5 Z M 44.9 11.3 C 44.9 11.3 44.9 5.84 44.9 5.8 C 44.9 5 44.7 4.3 43.6 4.3 C 43.3 4.3 42.7 4.5 42.5 4.8 C 42.3 5.2 42.2 5.7 42.2 6 C 42.24 5.99 42.2 11.3 42.2 11.3 L 41 11.3 C 41 11.3 40.96 5.06 41 5.1 C 41 4.5 40.9 4 40.9 3.4 C 40.88 3.42 42.2 3.4 42.2 3.4 L 42.2 4.4 C 42.2 4.4 42.27 4.4 42.3 4.4 C 42.6 3.6 43.3 3.3 44.2 3.3 C 45 3.3 45.8 3.6 46.1 4.3 C 46.5 3.4 47.2 3.3 48 3.3 C 48.8 3.3 50.1 3.5 50.1 5.3 C 50.11 5.31 50.1 11.3 50.1 11.3 L 48.8 11.3 C 48.8 11.3 48.83 5.84 48.8 5.8 C 48.8 5 48.6 4.3 47.6 4.3 C 47.1 4.3 47 4.3 46.6 4.6 C 46.2 4.9 46.2 5.7 46.2 6 C 46.17 5.99 46.2 11.3 46.2 11.3 L 44.9 11.3 Z M 53.5 11.3 L 52.3 11.3 L 52.3 3.4 L 53.5 3.4 L 53.5 11.3 Z M 52.2 0 L 53.6 0 L 53.6 1.4 L 52.2 1.4 L 52.2 0 Z M 60.1 4.6 L 56.6 10.3 L 60.2 10.3 L 60.2 11.3 L 55.2 11.3 L 55.2 10.1 L 58.6 4.5 L 58.6 4.5 L 55.4 4.5 L 55.4 3.4 L 60.1 3.4 L 60.1 4.6 Z M 66.2 6.8 C 66.2 4.5 65.5 4.2 64.6 4.2 C 63.8 4.2 63.1 4.6 63.1 6.8 C 63.1 6.8 66.2 6.8 66.2 6.8 Z M 63.1 7.8 C 63.1 10 63.7 10.4 64.7 10.4 C 65.5 10.4 66 9.7 66 8.9 C 66 8.9 67.4 8.9 67.4 8.9 C 67.4 10.7 66.4 11.5 64.7 11.5 C 63 11.5 61.7 11 61.7 7.5 C 61.7 5.2 62 3.3 64.7 3.3 C 67 3.3 67.5 4.5 67.5 7.1 C 67.51 7.1 67.5 7.8 67.5 7.8 C 67.5 7.8 63.08 7.77 63.1 7.8 Z M 72.3 4.3 C 70.9 4.3 70.8 5.4 70.8 7.5 C 70.8 8.7 70.8 10.4 72.4 10.4 C 73.8 10.4 73.8 8.6 73.8 7 C 73.8 6 73.7 4.3 72.3 4.3 Z M 73.8 0 L 75.1 0 L 75.1 11.3 L 73.8 11.3 L 73.8 10.4 C 73.8 10.4 73.77 10.37 73.8 10.4 C 73.3 11.1 72.8 11.5 72 11.5 C 70.7 11.5 69.4 11 69.4 7.5 C 69.4 5.5 69.5 3.3 72 3.3 C 72.8 3.3 73.3 3.6 73.8 4.2 C 73.76 4.21 73.8 4.2 73.8 4.2 L 73.8 0 Z M 82.4 5 C 83.7 5.1 84.6 4.6 84.6 3.2 C 84.6 2.2 84.2 1.5 83.1 1.5 C 82 1.5 81.8 2.4 81.8 3.3 C 81.8 3.3 80.3 3.3 80.3 3.3 C 80.2 1.4 81.1 0.3 83.1 0.3 C 85 0.3 86.1 1.2 86.1 3.1 C 86.1 5.2 84.6 5.5 83.9 5.6 C 83.9 5.6 83.9 5.7 83.9 5.7 C 85.6 5.9 86.2 6.8 86.2 8.4 C 86.2 10.5 85 11.5 83 11.5 C 79.9 11.5 80.2 8.9 80.2 8.3 C 80.2 8.3 81.6 8.3 81.6 8.3 C 81.6 9.4 81.8 10.3 83.1 10.3 C 84.4 10.3 84.7 9.5 84.7 8.4 C 84.7 6.6 84.1 6.3 82.4 6.3 C 82.4 6.3 82.4 5 82.4 5 Z M 89.2 5 L 87.7 5 L 87.7 3.4 L 89.2 3.4 L 89.2 5 Z M 89.2 11.3 L 87.7 11.3 L 87.7 9.7 L 89.2 9.7 L 89.2 11.3 Z M 90.8 11.3 C 90.8 11.3 90.85 10.05 90.8 10.1 C 94 5.6 95 4.8 95 2.9 C 95 2.1 94.5 1.5 93.6 1.5 C 92.5 1.5 92.3 2.4 92.3 3.3 C 92.3 3.3 90.9 3.3 90.9 3.3 C 90.8 1.5 91.7 0.3 93.5 0.3 C 95.5 0.3 96.4 1.2 96.4 3.1 C 96.4 5.6 95.2 6.4 92.4 10.1 C 92.38 10.05 96.7 10.1 96.7 10.1 L 96.7 11.3 L 90.8 11.3 Z " stroke="none" fill="#555555"/>  </g></svg>