<?xml version="1.0" standalone="no"?><!DOCTYPE svg PUBLIC "-//W3C//DTD SVG 1.1//EN" "http://www.w3.org/Graphics/SVG/1.1/DTD/svg11.dtd"><svg xmlns="http://www.w3.org/2000/svg" version="1.1" width="70px" height="21.6px" viewBox="0 -4 70 21.6" style="top:-4px">  <desc>(n=24/39)</desc>  <defs/>  <g id="Polygon195725">    <path d="M 2.8 -0.4 C 2.5 1.2 2 3.1 2 5.2 C 2 7.5 2.5 9.3 2.8 11 C 2.8 11 1.8 11 1.8 11 C 1.2 9.2 0.4 7.1 0.4 5.2 C 0.4 3.3 1.3 0.9 1.8 -0.4 C 1.8 -0.4 2.8 -0.4 2.8 -0.4 Z M 6.2 3.5 C 6.2 3.5 6.2 3.51 6.2 3.5 C 6.4 3.2 6.6 3 6.9 2.9 C 7.1 2.8 7.4 2.7 7.7 2.7 C 8.6 2.7 9.4 3.2 9.4 4.1 C 9.39 4.15 9.4 9.4 9.4 9.4 L 7.6 9.4 C 7.6 9.4 7.55 4.89 7.6 4.9 C 7.6 4.3 7.4 3.8 6.9 3.8 C 6.3 3.8 6.2 4.3 6.2 4.9 C 6.17 4.89 6.2 9.4 6.2 9.4 L 4.3 9.4 L 4.3 2.8 L 6.2 2.8 L 6.2 3.5 Z M 16.3 5.6 L 10.4 5.6 L 10.4 4.1 L 16.3 4.1 L 16.3 5.6 Z M 16.3 8.1 L 10.4 8.1 L 10.4 6.7 L 16.3 6.7 L 16.3 8.1 Z M 16.8 9.4 C 16.8 9.4 16.77 7.81 16.8 7.8 C 19.6 4 20.2 3.6 20.2 2.4 C 20.2 2 20.1 1.5 19.5 1.5 C 18.8 1.5 18.7 2.3 18.7 2.8 C 18.7 2.8 16.9 2.8 16.9 2.8 C 16.8 1.2 17.7 0.2 19.4 0.2 C 21 0.2 22.1 0.9 22.1 2.6 C 22.1 4.6 19.7 6.9 18.7 8 C 18.69 8.01 22.2 8 22.2 8 L 22.2 9.4 L 16.8 9.4 Z M 22.7 5.5 C 24.9 0.4 24.9 0.4 24.9 0.3 C 24.87 0.34 27.3 0.3 27.3 0.3 L 27.3 5.9 L 28 5.9 L 28 7.3 L 27.3 7.3 L 27.3 9.4 L 25.5 9.4 L 25.5 7.3 L 22.7 7.3 C 22.7 7.3 22.67 5.51 22.7 5.5 Z M 25.6 5.9 L 25.8 1.6 L 25.7 1.6 L 24.1 5.9 L 25.6 5.9 Z M 27.7 10.7 L 30.8 0 L 32.2 0 L 29.1 10.7 L 27.7 10.7 Z M 32 2.6 C 32 1.7 32.2 1.1 32.7 0.7 C 33.1 0.4 33.7 0.2 34.6 0.2 C 36.3 0.2 37.1 0.9 37.1 2.6 C 37.1 3.5 36.9 4.5 35.9 4.7 C 35.9 4.7 35.9 4.7 35.9 4.7 C 37.1 4.9 37.3 5.8 37.3 6.9 C 37.3 8.8 36.3 9.5 34.4 9.5 C 32.6 9.5 31.9 8.9 31.9 7 C 31.9 7 33.8 7 33.8 7 C 33.8 7.6 33.7 8.2 34.5 8.2 C 35.4 8.2 35.4 7.4 35.4 6.8 C 35.4 5.5 35 5.4 33.7 5.4 C 33.7 5.4 33.7 4 33.7 4 C 34.9 4 35.3 3.9 35.3 2.6 C 35.3 2.1 35.2 1.5 34.6 1.5 C 33.9 1.5 33.9 2.1 33.9 2.6 C 33.9 2.6 32 2.6 32 2.6 Z M 40.4 4.7 C 41.2 4.7 41.2 3.6 41.2 3 C 41.2 2.5 41.2 1.5 40.4 1.5 C 39.6 1.5 39.6 2.5 39.6 3.1 C 39.6 3.6 39.6 4.7 40.4 4.7 Z M 39.7 7.3 C 39.7 7.5 39.8 7.7 39.9 7.9 C 40 8.1 40.1 8.2 40.4 8.2 C 41.3 8.2 41.2 7.5 41.2 5.3 C 40.8 5.7 40.3 5.9 39.7 5.9 C 38.3 5.9 37.8 4.7 37.8 3.4 C 37.8 1.7 38.3 0.2 40.4 0.2 C 43.1 0.2 43.1 2.4 43.1 4.9 C 43.1 7.2 43 9.5 40.4 9.5 C 38.8 9.5 37.9 9 37.9 7.3 C 37.9 7.3 39.7 7.3 39.7 7.3 Z M 44.1 11 C 44.5 9.4 44.9 7.4 44.9 5.4 C 44.9 3.1 44.4 1.2 44.1 -0.4 C 44.1 -0.4 45.1 -0.4 45.1 -0.4 C 45.7 1.4 46.5 3.5 46.5 5.4 C 46.5 7.3 45.6 9.7 45.1 11 C 45.1 11 44.1 11 44.1 11 Z " stroke="none" fill="#003c71"/>  </g></svg>