<?xml version="1.0" standalone="no"?><!DOCTYPE svg PUBLIC "-//W3C//DTD SVG 1.1//EN" "http://www.w3.org/Graphics/SVG/1.1/DTD/svg11.dtd"><svg xmlns="http://www.w3.org/2000/svg" version="1.1" width="29.5px" height="25.3px" viewBox="0 -5 29.5 25.3" style="top:-5px">  <desc>n=39</desc>  <defs/>  <g id="Polygon194917">    <path d="M 5.4 11.3 C 5.4 11.3 5.4 5.84 5.4 5.8 C 5.4 5 5.1 4.3 4 4.3 C 2.6 4.3 2.4 5.6 2.4 6.6 C 2.4 6.63 2.4 11.3 2.4 11.3 L 1.1 11.3 C 1.1 11.3 1.12 5.06 1.1 5.1 C 1.1 4.5 1.1 4 1 3.4 C 1.05 3.42 2.4 3.4 2.4 3.4 L 2.4 4.4 C 2.4 4.4 2.47 4.43 2.5 4.4 C 3 3.5 3.6 3.3 4.6 3.3 C 6.3 3.3 6.7 4.3 6.7 5.8 C 6.68 5.84 6.7 11.3 6.7 11.3 L 5.4 11.3 Z M 14.9 6.3 L 8.5 6.3 L 8.5 5.3 L 14.9 5.3 L 14.9 6.3 Z M 14.9 9.3 L 8.5 9.3 L 8.5 8.4 L 14.9 8.4 L 14.9 9.3 Z M 18.2 5 C 19.5 5.1 20.5 4.6 20.5 3.2 C 20.5 2.2 20 1.5 19 1.5 C 17.8 1.5 17.6 2.4 17.6 3.3 C 17.6 3.3 16.2 3.3 16.2 3.3 C 16.1 1.4 17 0.3 19 0.3 C 20.8 0.3 21.9 1.2 21.9 3.1 C 21.9 5.2 20.4 5.5 19.8 5.6 C 19.8 5.6 19.8 5.7 19.8 5.7 C 21.5 5.9 22 6.8 22 8.4 C 22 10.5 20.9 11.5 18.8 11.5 C 15.8 11.5 16 8.9 16 8.3 C 16 8.3 17.4 8.3 17.4 8.3 C 17.5 9.4 17.6 10.3 18.9 10.3 C 20.2 10.3 20.6 9.5 20.6 8.4 C 20.6 6.6 19.9 6.3 18.2 6.3 C 18.2 6.3 18.2 5 18.2 5 Z M 24.5 3.6 C 24.5 4.7 24.7 5.8 26 5.8 C 27.2 5.8 27.4 4.7 27.4 3.6 C 27.4 2.6 27.2 1.3 26 1.3 C 24.8 1.3 24.5 2.6 24.5 3.6 Z M 28.9 5.9 C 28.9 8.8 28.9 11.5 26 11.5 C 24.4 11.5 23.3 10.4 23.3 8.7 C 23.3 8.7 24.8 8.7 24.8 8.7 C 24.8 9.5 25.1 10.3 26 10.3 C 27.4 10.3 27.5 8.8 27.5 6 C 27.5 6 27.4 6 27.4 6 C 27.1 6.8 26.4 7 25.6 7 C 24.7 7 23.1 6.6 23.1 3.6 C 23.1 1.2 24.6 0.3 26 0.3 C 29 0.3 28.9 3 28.9 5.9 Z " stroke="none" fill="#555555"/>  </g></svg>