<?xml version="1.0" standalone="no"?><!DOCTYPE svg PUBLIC "-//W3C//DTD SVG 1.1//EN" "http://www.w3.org/Graphics/SVG/1.1/DTD/svg11.dtd"><svg xmlns="http://www.w3.org/2000/svg" version="1.1" width="189.2px" height="28.7px" viewBox="0 -4 189.2 28.7" style="top:-4px">  <desc>CHANGE IN AE QoL SCORE BY DOMAIN</desc>  <defs/>  <g id="Polygon197629">    <path d="M 0.4 3.2 C 0.4 1.4 1 -0.1 3.3 -0.1 C 5 -0.1 5.8 0.8 5.8 2.2 C 5.78 2.16 5.8 3.4 5.8 3.4 L 4.2 3.4 C 4.2 3.4 4.18 2.53 4.2 2.5 C 4.2 1.8 3.9 1.3 3.2 1.3 C 2.3 1.3 2.1 1.9 2.1 3.4 C 2.1 3.4 2.1 9.4 2.1 9.4 C 2.1 10.8 2.6 11.1 3.1 11.1 C 3.8 11.1 4.2 10.6 4.2 9.6 C 4.18 9.62 4.2 8.8 4.2 8.8 L 5.8 8.8 C 5.8 8.8 5.78 10.13 5.8 10.1 C 5.8 11.4 5.3 12.4 3.3 12.4 C 1.1 12.4 0.4 11.3 0.4 9.4 C 0.4 9.4 0.4 3.2 0.4 3.2 Z M 6.6 0 L 8.3 0 L 8.3 5.3 L 10.6 5.3 L 10.6 0 L 12.3 0 L 12.3 12.3 L 10.6 12.3 L 10.6 6.7 L 8.3 6.7 L 8.3 12.3 L 6.6 12.3 L 6.6 0 Z M 15.8 0 L 17.8 0 L 20.3 12.3 L 18.6 12.3 L 18 9.2 L 15.4 9.2 L 14.8 12.3 L 13.1 12.3 L 15.8 0 Z M 15.6 7.8 L 17.8 7.8 L 16.7 1.8 L 16.7 1.8 L 15.6 7.8 Z M 21.1 0 L 23.4 0 L 25.4 10.2 L 25.5 10.2 L 25.5 0 L 27.1 0 L 27.1 12.3 L 24.6 12.3 L 22.6 1.8 L 22.6 1.8 L 22.6 12.3 L 21.1 12.3 L 21.1 0 Z M 32.3 3.3 C 32.3 3.3 32.28 2.65 32.3 2.7 C 32.3 1.8 31.9 1.3 31.2 1.3 C 30.4 1.3 30 2 30 3.3 C 30 3.3 30 9.5 30 9.5 C 30 10.5 30.5 11.1 31.2 11.1 C 31.7 11.1 32.1 11 32.3 11 C 32.28 10.96 32.3 7.4 32.3 7.4 L 31.2 7.4 L 31.2 5.9 L 34 5.9 C 34 5.9 33.98 12.1 34 12.1 C 33.3 12.3 32.1 12.4 31.2 12.4 C 29 12.4 28.3 11.3 28.3 9.4 C 28.3 9.4 28.3 3.2 28.3 3.2 C 28.3 0.9 29 -0.1 31.2 -0.1 C 33 -0.1 34 0.6 34 2.2 C 33.98 2.16 34 3.3 34 3.3 L 32.3 3.3 Z M 35.2 0 L 39.9 0 L 39.9 1.5 L 36.9 1.5 L 36.9 5.3 L 39.7 5.3 L 39.7 6.7 L 36.9 6.7 L 36.9 10.9 L 39.9 10.9 L 39.9 12.3 L 35.2 12.3 L 35.2 0 Z M 43.7 0 L 45.4 0 L 45.4 12.3 L 43.7 12.3 L 43.7 0 Z M 46.6 0 L 49 0 L 51 10.2 L 51 10.2 L 51 0 L 52.6 0 L 52.6 12.3 L 50.1 12.3 L 48.1 1.8 L 48.1 1.8 L 48.1 12.3 L 46.6 12.3 L 46.6 0 Z M 58.6 0 L 60.6 0 L 63.1 12.3 L 61.4 12.3 L 60.9 9.2 L 58.2 9.2 L 57.6 12.3 L 55.9 12.3 L 58.6 0 Z M 58.5 7.8 L 60.6 7.8 L 59.6 1.8 L 59.5 1.8 L 58.5 7.8 Z M 63.9 0 L 68.6 0 L 68.6 1.5 L 65.6 1.5 L 65.6 5.3 L 68.4 5.3 L 68.4 6.7 L 65.6 6.7 L 65.6 10.9 L 68.6 10.9 L 68.6 12.3 L 63.9 12.3 L 63.9 0 Z M 69.1 7.3 L 73.2 7.3 L 73.2 8.7 L 69.1 8.7 L 69.1 7.3 Z M 76 9.5 C 76 10.5 76.4 11.1 77.1 11.1 C 77.9 11.1 78.3 10.5 78.3 9.5 C 78.3 9.5 78.3 3 78.3 3 C 78.3 1.8 77.9 1.3 77.1 1.3 C 76.4 1.3 76 1.8 76 3 C 76 3 76 9.5 76 9.5 Z M 74.3 3.2 C 74.3 1.4 74.8 -0.1 77.1 -0.1 C 79.3 -0.1 80 1.1 80 3 C 80 3 80 8.8 80 8.8 C 80 9.8 79.7 10.8 79.3 11.3 C 79.3 11.3 79.4 11.3 79.4 11.3 C 79.7 11.1 80.2 11.1 81 11.1 C 81 11.1 81 12.3 81 12.3 C 79.7 12.3 77.9 12.4 77.1 12.4 C 75 12.4 74.3 11.3 74.3 9.4 C 74.3 9.4 74.3 3.2 74.3 3.2 Z M 81.5 6 C 81.5 4.5 82.3 3.7 83.8 3.7 C 85 3.7 86 4.2 86 5.8 C 86 5.8 86 10.1 86 10.1 C 86 11.6 85.2 12.4 83.8 12.4 C 82.6 12.4 81.5 11.9 81.5 10.3 C 81.5 10.3 81.5 6 81.5 6 Z M 83.1 10.2 C 83.1 10.9 83.3 11.3 83.8 11.3 C 84.3 11.3 84.4 10.9 84.4 10.2 C 84.4 10.2 84.4 5.9 84.4 5.9 C 84.4 5.2 84.3 4.8 83.8 4.8 C 83.3 4.8 83.1 5.2 83.1 5.9 C 83.1 5.9 83.1 10.2 83.1 10.2 Z M 87.2 0 L 88.9 0 L 88.9 10.9 L 91.8 10.9 L 91.8 12.3 L 87.2 12.3 L 87.2 0 Z M 95.6 8.8 L 97.3 8.8 C 97.3 8.8 97.25 9.76 97.3 9.8 C 97.3 10.6 97.6 11.1 98.2 11.1 C 99.1 11.1 99.4 10.5 99.4 9.7 C 99.4 8.6 99.3 8.3 97.5 6.5 C 96.5 5.5 95.6 4.5 95.6 2.8 C 95.6 0.8 96.5 -0.1 98.3 -0.1 C 99.3 -0.1 99.9 0.2 100.3 0.6 C 100.6 0.9 100.8 1.3 100.8 2.2 C 100.82 2.18 100.8 3.3 100.8 3.3 L 99.2 3.3 C 99.2 3.3 99.23 2.36 99.2 2.4 C 99.2 1.7 98.9 1.3 98.3 1.3 C 97.6 1.3 97.3 1.6 97.3 2.6 C 97.3 3.4 97.4 3.9 99 5.6 C 100.7 7.3 101 7.9 101 9.4 C 101 11.3 100.2 12.4 98.2 12.4 C 96.6 12.4 95.6 11.7 95.6 10.2 C 95.55 10.22 95.6 8.8 95.6 8.8 Z M 101.8 3.2 C 101.8 1.4 102.4 -0.1 104.7 -0.1 C 106.4 -0.1 107.2 0.8 107.2 2.2 C 107.18 2.16 107.2 3.4 107.2 3.4 L 105.6 3.4 C 105.6 3.4 105.58 2.53 105.6 2.5 C 105.6 1.8 105.3 1.3 104.6 1.3 C 103.7 1.3 103.5 1.9 103.5 3.4 C 103.5 3.4 103.5 9.4 103.5 9.4 C 103.5 10.8 104 11.1 104.5 11.1 C 105.2 11.1 105.6 10.6 105.6 9.6 C 105.58 9.62 105.6 8.8 105.6 8.8 L 107.2 8.8 C 107.2 8.8 107.18 10.13 107.2 10.1 C 107.2 11.4 106.7 12.4 104.7 12.4 C 102.5 12.4 101.8 11.3 101.8 9.4 C 101.8 9.4 101.8 3.2 101.8 3.2 Z M 109.7 9.5 C 109.7 10.5 110.1 11.1 110.8 11.1 C 111.6 11.1 112 10.5 112 9.5 C 112 9.5 112 3 112 3 C 112 1.8 111.6 1.3 110.8 1.3 C 110.1 1.3 109.7 1.8 109.7 3 C 109.7 3 109.7 9.5 109.7 9.5 Z M 108 3.2 C 108 1.4 108.5 -0.1 110.8 -0.1 C 113 -0.1 113.7 1.1 113.7 3 C 113.7 3 113.7 9.2 113.7 9.2 C 113.7 10.9 113.2 12.4 110.8 12.4 C 108.7 12.4 108 11.3 108 9.4 C 108 9.4 108 3.2 108 3.2 Z M 114.9 0 C 114.9 0 117.57 0.03 117.6 0 C 120.1 0 120.3 0.7 120.3 3.4 C 120.3 5 120.1 5.7 118.7 6.2 C 118.7 6.2 118.7 6.2 118.7 6.2 C 119.8 6.3 120.2 6.9 120.2 8.1 C 120.2 8.1 120.2 10.7 120.2 10.7 C 120.2 11.2 120.2 11.8 120.3 12.3 C 120.3 12.3 118.7 12.3 118.7 12.3 C 118.6 12 118.5 11.7 118.5 11.2 C 118.5 11.2 118.5 8.4 118.5 8.4 C 118.5 7.3 118.3 7 117.2 7 C 117.21 6.97 116.6 7 116.6 7 L 116.6 12.3 L 114.9 12.3 L 114.9 0 Z M 116.6 5.5 C 116.6 5.5 117.08 5.54 117.1 5.5 C 118.4 5.5 118.6 5.3 118.6 3.5 C 118.6 1.6 118.5 1.5 117.5 1.5 C 117.45 1.46 116.6 1.5 116.6 1.5 L 116.6 5.5 Z M 121.5 0 L 126.2 0 L 126.2 1.5 L 123.2 1.5 L 123.2 5.3 L 126 5.3 L 126 6.7 L 123.2 6.7 L 123.2 10.9 L 126.2 10.9 L 126.2 12.3 L 121.5 12.3 L 121.5 0 Z M 130.1 0 C 130.1 0 133.02 0.03 133 0 C 135.1 0 135.5 0.8 135.5 3 C 135.5 5.4 135.1 5.8 133.9 6 C 133.9 6 133.9 6 133.9 6 C 135.3 6.3 135.6 6.7 135.6 8.8 C 135.6 11.5 135.2 12.3 132.7 12.3 C 132.73 12.31 130.1 12.3 130.1 12.3 L 130.1 0 Z M 131.8 11 C 131.8 11 132.82 10.98 132.8 11 C 133.8 11 134 10.7 134 8.8 C 134 6.9 133.8 6.6 132.9 6.6 C 132.87 6.63 131.8 6.6 131.8 6.6 L 131.8 11 Z M 131.8 5.3 C 131.8 5.3 132.75 5.3 132.7 5.3 C 133.8 5.3 133.9 5.1 133.9 3.1 C 133.9 1.7 133.7 1.4 132.6 1.4 C 132.56 1.36 131.8 1.4 131.8 1.4 L 131.8 5.3 Z M 136.3 0 L 138 0 L 139.5 5.2 L 139.5 5.2 L 141.2 0 L 142.7 0 L 140.3 7.3 L 140.3 12.3 L 138.6 12.3 L 138.6 7.3 L 136.3 0 Z M 148.5 10.9 C 148.5 10.9 149.27 10.88 149.3 10.9 C 150.5 10.9 150.8 10.2 150.8 8.1 C 150.8 8.1 150.8 3.9 150.8 3.9 C 150.8 2.1 150.6 1.5 149.1 1.5 C 149.14 1.46 148.5 1.5 148.5 1.5 L 148.5 10.9 Z M 146.8 0 C 146.8 0 149.49 0.03 149.5 0 C 152.2 0 152.5 1 152.5 4.5 C 152.5 4.5 152.5 8.2 152.5 8.2 C 152.5 11.3 151.9 12.3 149.2 12.3 C 149.22 12.31 146.8 12.3 146.8 12.3 L 146.8 0 Z M 155.3 9.5 C 155.3 10.5 155.8 11.1 156.5 11.1 C 157.2 11.1 157.7 10.5 157.7 9.5 C 157.7 9.5 157.7 3 157.7 3 C 157.7 1.8 157.3 1.3 156.5 1.3 C 155.7 1.3 155.3 1.8 155.3 3 C 155.3 3 155.3 9.5 155.3 9.5 Z M 153.6 3.2 C 153.6 1.4 154.2 -0.1 156.5 -0.1 C 158.7 -0.1 159.4 1.1 159.4 3 C 159.4 3 159.4 9.2 159.4 9.2 C 159.4 10.9 158.8 12.4 156.5 12.4 C 154.3 12.4 153.6 11.3 153.6 9.4 C 153.6 9.4 153.6 3.2 153.6 3.2 Z M 160.6 0 L 163.3 0 L 164.9 9.4 L 164.9 9.4 L 166.5 0 L 169.1 0 L 169.1 12.3 L 167.5 12.3 L 167.5 1.3 L 167.5 1.3 L 165.7 12.3 L 164 12.3 L 162.1 1.3 L 162.1 1.3 L 162.1 12.3 L 160.6 12.3 L 160.6 0 Z M 172.6 0 L 174.6 0 L 177.1 12.3 L 175.4 12.3 L 174.8 9.2 L 172.2 9.2 L 171.6 12.3 L 169.9 12.3 L 172.6 0 Z M 172.4 7.8 L 174.6 7.8 L 173.5 1.8 L 173.5 1.8 L 172.4 7.8 Z M 177.9 0 L 179.6 0 L 179.6 12.3 L 177.9 12.3 L 177.9 0 Z M 180.8 0 L 183.1 0 L 185.1 10.2 L 185.1 10.2 L 185.1 0 L 186.7 0 L 186.7 12.3 L 184.3 12.3 L 182.3 1.8 L 182.3 1.8 L 182.3 12.3 L 180.8 12.3 L 180.8 0 Z " stroke="none" fill="#fff"/>  </g></svg>