<?xml version="1.0" standalone="no"?><!DOCTYPE svg PUBLIC "-//W3C//DTD SVG 1.1//EN" "http://www.w3.org/Graphics/SVG/1.1/DTD/svg11.dtd"><svg xmlns="http://www.w3.org/2000/svg" version="1.1" width="134px" height="59.3px" viewBox="0 -1 134 59.3" style="top:-1px">  <desc>Abbreviation: HAE, hereditary angioedema.</desc>  <defs/>  <g id="Polygon196040">    <path d="M 1.8 49.2 C 1.8 49.8 2.1 50.4 2.7 50.4 C 3.3 50.4 4.1 50 4 48 C 3 48 1.8 48 1.8 49.2 Z M 4 50.2 C 4 50.2 3.96 50.17 4 50.2 C 3.7 50.9 3.2 51.2 2.4 51.2 C 1.2 51.2 0.8 50.3 0.8 49.2 C 0.8 47.3 2.6 47.3 4 47.3 C 4 46.5 4 45.6 2.9 45.6 C 2.3 45.6 1.9 46.1 2 46.7 C 2 46.7 0.9 46.7 0.9 46.7 C 1 45.3 1.7 44.9 3 44.9 C 4.5 44.9 4.9 45.7 4.9 46.7 C 4.9 46.7 4.9 49.6 4.9 49.6 C 4.9 50.1 5 50.6 5.1 51 C 5.06 51.05 4 51 4 51 L 4 50.2 Z M 10.2 51 C 10.2 51 10.15 46.85 10.2 46.8 C 10.2 46.2 9.9 45.7 9.1 45.7 C 8 45.7 7.8 46.6 7.8 47.5 C 7.85 47.46 7.8 51 7.8 51 L 6.9 51 C 6.9 51 6.86 46.25 6.9 46.2 C 6.9 45.8 6.8 45.4 6.8 45 C 6.8 44.99 7.8 45 7.8 45 L 7.8 45.8 C 7.8 45.8 7.9 45.77 7.9 45.8 C 8.3 45.1 8.7 44.9 9.5 44.9 C 10.8 44.9 11.1 45.6 11.1 46.8 C 11.14 46.85 11.1 51 11.1 51 L 10.2 51 Z M 14.9 45.7 C 13.8 45.7 13.8 47 13.8 47.8 C 13.8 49.8 14.2 50.2 14.9 50.2 C 16.1 50.2 16.1 48.8 16.1 48 C 16.1 47.1 16.2 45.7 14.9 45.7 Z M 16.1 45 L 17.1 45 C 17.1 45 17.05 51.66 17.1 51.7 C 17.1 53 16.2 53.3 14.8 53.3 C 13.8 53.3 12.9 52.8 13 51.7 C 13 51.7 14.1 51.7 14.1 51.7 C 14.1 52.3 14.5 52.6 15 52.6 C 15.7 52.6 16.1 52.2 16.1 51.6 C 16.07 51.55 16.1 50.3 16.1 50.3 C 16.1 50.3 16.03 50.29 16 50.3 C 15.8 50.8 15.2 51 14.7 51 C 13.1 51 12.7 49.6 12.7 47.8 C 12.7 45 14.1 44.9 14.6 44.9 C 15.3 44.9 15.8 45.1 16 45.7 C 16.04 45.73 16.1 45.7 16.1 45.7 L 16.1 45 Z M 19.8 51 L 18.8 51 L 18.8 45 L 19.8 45 L 19.8 51 Z M 18.8 42.4 L 19.9 42.4 L 19.9 43.4 L 18.8 43.4 L 18.8 42.4 Z M 24.9 47.7 C 24.9 46 24.4 45.7 23.7 45.7 C 22.9 45.7 22.4 46 22.4 47.7 C 22.4 49.7 22.6 50.4 23.7 50.4 C 24.7 50.4 24.9 49.7 24.9 47.7 Z M 21.4 48.1 C 21.4 46.3 21.6 44.9 23.7 44.9 C 25.8 44.9 26 46.3 26 48.1 C 26 50.8 24.9 51.2 23.7 51.2 C 22.4 51.2 21.4 50.8 21.4 48.1 Z M 30.9 47.6 C 30.9 45.8 30.4 45.6 29.6 45.6 C 29 45.6 28.5 45.9 28.5 47.6 C 28.5 47.6 30.9 47.6 30.9 47.6 Z M 28.5 48.3 C 28.5 50 28.9 50.4 29.7 50.4 C 30.4 50.4 30.7 49.8 30.8 49.2 C 30.8 49.2 31.8 49.2 31.8 49.2 C 31.8 50.6 31 51.2 29.7 51.2 C 28.5 51.2 27.4 50.8 27.4 48.1 C 27.4 46.3 27.6 44.9 29.7 44.9 C 31.5 44.9 31.9 45.8 31.9 47.8 C 31.9 47.82 31.9 48.3 31.9 48.3 C 31.9 48.3 28.49 48.34 28.5 48.3 Z M 35.6 45.7 C 34.5 45.7 34.4 46.5 34.4 48.1 C 34.4 49 34.4 50.4 35.6 50.4 C 36.7 50.4 36.7 49 36.7 47.8 C 36.7 47 36.7 45.7 35.6 45.7 Z M 36.7 42.4 L 37.7 42.4 L 37.7 51 L 36.7 51 L 36.7 50.3 C 36.7 50.3 36.71 50.33 36.7 50.3 C 36.4 50.9 36 51.2 35.3 51.2 C 34.3 51.2 33.4 50.8 33.4 48.1 C 33.4 46.6 33.4 44.9 35.4 44.9 C 35.9 44.9 36.4 45.1 36.7 45.6 C 36.7 45.6 36.7 45.6 36.7 45.6 L 36.7 42.4 Z M 42.9 47.6 C 42.9 45.8 42.4 45.6 41.6 45.6 C 41 45.6 40.5 45.9 40.5 47.6 C 40.5 47.6 42.9 47.6 42.9 47.6 Z M 40.5 48.3 C 40.5 50 40.9 50.4 41.7 50.4 C 42.4 50.4 42.7 49.8 42.8 49.2 C 42.8 49.2 43.8 49.2 43.8 49.2 C 43.8 50.6 43 51.2 41.7 51.2 C 40.5 51.2 39.4 50.8 39.4 48.1 C 39.4 46.3 39.6 44.9 41.7 44.9 C 43.5 44.9 43.9 45.8 43.9 47.8 C 43.9 47.82 43.9 48.3 43.9 48.3 C 43.9 48.3 40.49 48.34 40.5 48.3 Z M 48.5 51 C 48.5 51 48.5 46.85 48.5 46.8 C 48.5 46.2 48.3 45.7 47.5 45.7 C 47.2 45.7 46.8 45.9 46.7 46.1 C 46.5 46.4 46.5 46.7 46.5 47 C 46.46 46.97 46.5 51 46.5 51 L 45.5 51 C 45.5 51 45.48 46.25 45.5 46.2 C 45.5 45.8 45.5 45.4 45.4 45 C 45.42 44.99 46.5 45 46.5 45 L 46.5 45.7 C 46.5 45.7 46.49 45.74 46.5 45.7 C 46.8 45.1 47.3 44.9 48 44.9 C 48.6 44.9 49.2 45.1 49.4 45.6 C 49.8 45 50.3 44.9 50.9 44.9 C 51.5 44.9 52.5 45 52.5 46.4 C 52.51 46.44 52.5 51 52.5 51 L 51.5 51 C 51.5 51 51.53 46.85 51.5 46.8 C 51.5 46.2 51.4 45.7 50.6 45.7 C 50.2 45.7 50.1 45.7 49.8 45.9 C 49.5 46.1 49.5 46.7 49.5 47 C 49.49 46.97 49.5 51 49.5 51 L 48.5 51 Z M 55.1 49.2 C 55.1 49.8 55.4 50.4 56 50.4 C 56.6 50.4 57.4 50 57.3 48 C 56.4 48 55.1 48 55.1 49.2 Z M 57.3 50.2 C 57.3 50.2 57.29 50.17 57.3 50.2 C 57 50.9 56.5 51.2 55.8 51.2 C 54.5 51.2 54.1 50.3 54.1 49.2 C 54.1 47.3 55.9 47.3 57.3 47.3 C 57.3 46.5 57.3 45.6 56.3 45.6 C 55.6 45.6 55.3 46.1 55.3 46.7 C 55.3 46.7 54.3 46.7 54.3 46.7 C 54.3 45.3 55 44.9 56.3 44.9 C 57.9 44.9 58.3 45.7 58.3 46.7 C 58.3 46.7 58.3 49.6 58.3 49.6 C 58.3 50.1 58.3 50.6 58.4 51 C 58.39 51.05 57.3 51 57.3 51 L 57.3 50.2 Z M 61.2 51 L 60.1 51 L 60.1 49.8 L 61.2 49.8 L 61.2 51 Z " stroke="none" fill="#555555"/>  </g>  <g id="Polygon196039">    <path d="M 1 36.6 L 1 28 L 2.1 28 L 2.1 31.7 L 5.2 31.7 L 5.2 28 L 6.3 28 L 6.3 36.6 L 5.2 36.6 L 5.2 32.7 L 2.1 32.7 L 2.1 36.6 L 1 36.6 Z M 10.3 28 L 11.7 28 L 14.5 36.6 L 13.2 36.6 L 12.6 34.6 L 9.3 34.6 L 8.6 36.6 L 7.5 36.6 L 10.3 28 Z M 10.9 29 L 10.9 29 L 9.6 33.6 L 12.3 33.6 L 10.9 29 Z M 15.6 36.6 L 15.6 28 L 20.1 28 L 20.1 28.9 L 16.7 28.9 L 16.7 31.7 L 19.9 31.7 L 19.9 32.7 L 16.7 32.7 L 16.7 35.7 L 20.2 35.7 L 20.2 36.6 L 15.6 36.6 Z M 21.7 35.4 L 22.9 35.4 L 21.8 38.2 L 21.1 38.2 L 21.7 35.4 Z M 30.1 36.6 C 30.1 36.6 30.14 32.54 30.1 32.5 C 30.1 31.8 29.9 31.3 29.1 31.3 C 28.1 31.3 27.8 32.1 27.8 33.1 C 27.83 33.08 27.8 36.6 27.8 36.6 L 26.8 36.6 L 26.8 28 L 27.8 28 L 27.8 31.4 C 27.8 31.4 27.87 31.37 27.9 31.4 C 28.3 30.7 28.7 30.5 29.5 30.5 C 30.6 30.5 31.1 31 31.1 32.4 C 31.13 32.35 31.1 36.6 31.1 36.6 L 30.1 36.6 Z M 36.2 33.2 C 36.2 31.4 35.7 31.2 35 31.2 C 34.3 31.2 33.8 31.5 33.8 33.2 C 33.8 33.2 36.2 33.2 36.2 33.2 Z M 33.8 33.9 C 33.8 35.6 34.3 36 35 36 C 35.7 36 36.1 35.4 36.1 34.8 C 36.1 34.8 37.2 34.8 37.2 34.8 C 37.2 36.2 36.3 36.8 35.1 36.8 C 33.8 36.8 32.8 36.4 32.8 33.7 C 32.8 31.9 33 30.5 35.1 30.5 C 36.8 30.5 37.2 31.4 37.2 33.4 C 37.22 33.42 37.2 33.9 37.2 33.9 C 37.2 33.9 33.81 33.94 33.8 33.9 Z M 39.9 31.5 C 39.9 31.5 39.9 31.5 39.9 31.5 C 40.3 30.6 40.8 30.5 41.8 30.5 C 41.8 30.5 41.8 31.5 41.8 31.5 C 41.7 31.5 41.6 31.5 41.5 31.5 C 41.4 31.4 41.3 31.4 41.2 31.4 C 40.2 31.4 39.9 32.3 39.9 33.1 C 39.87 33.07 39.9 36.6 39.9 36.6 L 38.9 36.6 L 38.9 30.6 L 39.9 30.6 L 39.9 31.5 Z M 46.2 33.2 C 46.2 31.4 45.7 31.2 45 31.2 C 44.3 31.2 43.8 31.5 43.8 33.2 C 43.8 33.2 46.2 33.2 46.2 33.2 Z M 43.8 33.9 C 43.8 35.6 44.3 36 45 36 C 45.7 36 46.1 35.4 46.1 34.8 C 46.1 34.8 47.2 34.8 47.2 34.8 C 47.2 36.2 46.3 36.8 45.1 36.8 C 43.8 36.8 42.8 36.4 42.8 33.7 C 42.8 31.9 43 30.5 45.1 30.5 C 46.8 30.5 47.2 31.4 47.2 33.4 C 47.22 33.42 47.2 33.9 47.2 33.9 C 47.2 33.9 43.81 33.94 43.8 33.9 Z M 50.9 31.3 C 49.9 31.3 49.7 32.1 49.7 33.7 C 49.7 34.6 49.7 36 51 36 C 52.1 36 52.1 34.6 52.1 33.4 C 52.1 32.6 52 31.3 50.9 31.3 Z M 52.1 28 L 53 28 L 53 36.6 L 52.1 36.6 L 52.1 35.9 C 52.1 35.9 52.03 35.93 52 35.9 C 51.7 36.5 51.3 36.8 50.6 36.8 C 49.7 36.8 48.7 36.4 48.7 33.7 C 48.7 32.2 48.7 30.5 50.7 30.5 C 51.3 30.5 51.7 30.7 52 31.2 C 52.02 31.2 52.1 31.2 52.1 31.2 L 52.1 28 Z M 55.8 36.6 L 54.8 36.6 L 54.8 30.6 L 55.8 30.6 L 55.8 36.6 Z M 54.8 28 L 55.9 28 L 55.9 29 L 54.8 29 L 54.8 28 Z M 57.6 30.6 L 57.6 29.4 L 58.6 29 L 58.6 30.6 L 59.9 30.6 L 59.9 31.3 L 58.6 31.3 C 58.6 31.3 58.61 35.04 58.6 35 C 58.6 35.4 58.6 35.9 59.5 35.9 C 59.6 35.9 59.7 35.9 60 35.9 C 60 35.9 60 36.6 60 36.6 C 59.6 36.6 59.3 36.7 59 36.7 C 58 36.7 57.6 36.3 57.6 35.6 C 57.62 35.64 57.6 31.3 57.6 31.3 L 56.6 31.3 L 56.6 30.6 L 57.6 30.6 Z M 61.8 34.8 C 61.8 35.4 62 36 62.7 36 C 63.3 36 64 35.6 63.9 33.6 C 63 33.6 61.8 33.6 61.8 34.8 Z M 64 35.8 C 64 35.8 63.95 35.77 63.9 35.8 C 63.6 36.5 63.2 36.8 62.4 36.8 C 61.1 36.8 60.8 35.9 60.8 34.8 C 60.8 32.9 62.6 32.9 63.9 32.9 C 64 32.1 64 31.2 62.9 31.2 C 62.3 31.2 61.9 31.7 62 32.3 C 62 32.3 60.9 32.3 60.9 32.3 C 61 30.9 61.7 30.5 63 30.5 C 64.5 30.5 64.9 31.3 64.9 32.3 C 64.9 32.3 64.9 35.2 64.9 35.2 C 64.9 35.7 65 36.2 65.1 36.6 C 65.05 36.65 64 36.6 64 36.6 L 64 35.8 Z M 67.9 31.5 C 67.9 31.5 67.89 31.5 67.9 31.5 C 68.3 30.6 68.8 30.5 69.8 30.5 C 69.8 30.5 69.8 31.5 69.8 31.5 C 69.7 31.5 69.6 31.5 69.5 31.5 C 69.4 31.4 69.3 31.4 69.2 31.4 C 68.1 31.4 67.9 32.3 67.9 33.1 C 67.87 33.07 67.9 36.6 67.9 36.6 L 66.9 36.6 L 66.9 30.6 L 67.9 30.6 L 67.9 31.5 Z M 72.7 35.5 L 72.7 35.5 L 74.1 30.6 L 75.2 30.6 L 72.5 38.9 L 71.4 38.9 L 72.1 36.6 L 70.1 30.6 L 71.2 30.6 L 72.7 35.5 Z " stroke="none" fill="#555555"/>  </g>  <g id="Polygon196038">    <path d="M 0.1 22.2 L 2.5 13.6 L 4.9 13.6 L 7.2 22.2 L 5.3 22.2 L 4.8 20.3 L 2.4 20.3 L 1.9 22.2 L 0.1 22.2 Z M 3.6 15.3 L 3.6 15.3 L 2.7 19 L 4.5 19 L 3.6 15.3 Z M 11.1 19.2 C 11.1 18 11.1 17.1 10.4 17.1 C 9.7 17.1 9.7 18 9.7 19.2 C 9.7 20.7 9.8 21.3 10.4 21.3 C 11 21.3 11.1 20.7 11.1 19.2 Z M 8 13.6 L 9.7 13.6 L 9.7 16.8 C 9.7 16.8 9.72 16.76 9.7 16.8 C 10.1 16.2 10.5 16.1 11.1 16.1 C 12.8 16.1 12.8 18 12.8 19.2 C 12.8 20.4 12.8 22.4 11.1 22.4 C 10.4 22.4 9.9 22.2 9.6 21.6 C 9.64 21.58 9.6 21.6 9.6 21.6 L 9.6 22.2 L 8 22.2 L 8 13.6 Z M 17.1 19.2 C 17.1 18 17.1 17.1 16.4 17.1 C 15.7 17.1 15.7 18 15.7 19.2 C 15.7 20.7 15.8 21.3 16.4 21.3 C 17 21.3 17.1 20.7 17.1 19.2 Z M 14 13.6 L 15.7 13.6 L 15.7 16.8 C 15.7 16.8 15.72 16.76 15.7 16.8 C 16.1 16.2 16.5 16.1 17.1 16.1 C 18.8 16.1 18.8 18 18.8 19.2 C 18.8 20.4 18.8 22.4 17.1 22.4 C 16.4 22.4 15.9 22.2 15.6 21.6 C 15.64 21.58 15.6 21.6 15.6 21.6 L 15.6 22.2 L 14 22.2 L 14 13.6 Z M 21.6 16.2 L 21.6 17 C 21.6 17 21.64 16.97 21.6 17 C 21.9 16.3 22.5 16.1 23.2 16.1 C 23.2 16.1 23.2 17.6 23.2 17.6 C 21.7 17.5 21.7 18.3 21.7 18.9 C 21.7 18.95 21.7 22.2 21.7 22.2 L 20 22.2 L 20 16.2 L 21.6 16.2 Z M 27.1 18.5 C 27.1 18 27.1 17.1 26.3 17.1 C 25.5 17.1 25.6 18 25.6 18.5 C 25.6 18.5 27.1 18.5 27.1 18.5 Z M 25.6 19.5 C 25.6 20.2 25.6 21.3 26.3 21.3 C 26.9 21.3 27 20.7 27 20.2 C 27 20.2 28.8 20.2 28.8 20.2 C 28.7 20.9 28.5 21.4 28.1 21.8 C 27.7 22.2 27.1 22.4 26.3 22.4 C 24.1 22.4 23.9 21 23.9 19.1 C 23.9 17.5 24.1 16.1 26.3 16.1 C 28.6 16.1 28.9 17.5 28.8 19.5 C 28.8 19.5 25.6 19.5 25.6 19.5 Z M 29.4 16.2 L 31.1 16.2 L 32 20.7 L 32 20.7 L 32.9 16.2 L 34.6 16.2 L 32.9 22.2 L 31 22.2 L 29.4 16.2 Z M 37.2 22.2 L 35.5 22.2 L 35.5 16.2 L 37.2 16.2 L 37.2 22.2 Z M 37.2 13.6 L 37.2 14.9 L 35.5 14.9 L 35.5 13.6 L 37.2 13.6 Z M 40.1 20.4 C 40.1 20.8 40.2 21.3 40.8 21.3 C 41.8 21.3 41.6 20 41.6 19.3 C 40.8 19.4 40.1 19.3 40.1 20.4 Z M 43.3 21.1 C 43.3 21.5 43.3 21.9 43.3 22.2 C 43.34 22.25 41.8 22.2 41.8 22.2 L 41.7 21.4 C 41.7 21.4 41.68 21.45 41.7 21.4 C 41.3 22.1 40.8 22.4 40.1 22.4 C 38.9 22.4 38.5 21.5 38.5 20.4 C 38.5 18.4 40 18.3 41.6 18.4 C 41.6 18.4 41.6 17.9 41.6 17.9 C 41.6 17.4 41.5 17 40.9 17 C 40.3 17 40.3 17.5 40.3 17.9 C 40.3 17.9 38.6 17.9 38.6 17.9 C 38.6 17.2 38.9 16.7 39.3 16.5 C 39.6 16.2 40.2 16.1 40.8 16.1 C 43 16.1 43.3 17 43.3 18.1 C 43.3 18.1 43.3 21.1 43.3 21.1 Z M 44 16.2 L 44.7 16.2 L 44.7 15.2 L 46.4 14.5 L 46.4 16.2 L 47.2 16.2 L 47.2 17.2 L 46.4 17.2 C 46.4 17.2 46.35 20.47 46.4 20.5 C 46.4 20.9 46.3 21.2 46.9 21.2 C 47 21.2 47.1 21.2 47.2 21.2 C 47.2 21.2 47.2 22.2 47.2 22.2 C 47 22.3 46.7 22.3 46.3 22.3 C 44.9 22.3 44.7 21.3 44.7 21 C 44.66 20.97 44.7 17.2 44.7 17.2 L 44 17.2 L 44 16.2 Z M 49.8 22.2 L 48.1 22.2 L 48.1 16.2 L 49.8 16.2 L 49.8 22.2 Z M 49.8 13.6 L 49.8 14.9 L 48.1 14.9 L 48.1 13.6 L 49.8 13.6 Z M 54.4 19 C 54.4 17.8 54.4 17.1 53.7 17.1 C 52.9 17.1 52.9 17.8 52.9 19 C 52.9 20.9 53 21.3 53.7 21.3 C 54.3 21.3 54.4 20.9 54.4 19 Z M 51.2 19.1 C 51.2 17.5 51.4 16.1 53.7 16.1 C 55.9 16.1 56.1 17.5 56.1 19.1 C 56.1 21 55.8 22.4 53.7 22.4 C 51.5 22.4 51.2 21 51.2 19.1 Z M 59 16.8 C 59 16.8 59.05 16.8 59.1 16.8 C 59.2 16.5 59.4 16.3 59.7 16.2 C 59.9 16.1 60.2 16.1 60.5 16.1 C 61.3 16.1 62 16.5 62 17.4 C 61.99 17.39 62 22.2 62 22.2 L 60.3 22.2 C 60.3 22.2 60.3 18.07 60.3 18.1 C 60.3 17.5 60.2 17.1 59.7 17.1 C 59.1 17.1 59 17.5 59 18.1 C 59.03 18.07 59 22.2 59 22.2 L 57.3 22.2 L 57.3 16.2 L 59 16.2 L 59 16.8 Z M 64.7 16.2 L 64.7 17.8 L 63.3 17.8 L 63.3 16.2 L 64.7 16.2 Z M 64.7 22.2 L 63.3 22.2 L 63.3 20.7 L 64.7 20.7 L 64.7 22.2 Z " stroke="none" fill="#555555"/>  </g></svg>