<?xml version="1.0" standalone="no"?><!DOCTYPE svg PUBLIC "-//W3C//DTD SVG 1.1//EN" "http://www.w3.org/Graphics/SVG/1.1/DTD/svg11.dtd"><svg xmlns="http://www.w3.org/2000/svg" version="1.1" width="148px" height="183px" viewBox="0 -5 148 183" style="top:-5px">  <desc>HAE attacks DURING study run in AND 6 MONTH STUDY PERIOD1</desc>  <defs/>  <g id="Polygon195626">    <path d="M 3.9 92.1 C 3.9 92.1 5.38 92.14 5.4 92.1 C 6.2 92.1 6.7 91.3 6.7 90.4 C 6.7 89.3 6.5 88.4 5.2 88.4 C 5.24 88.43 3.9 88.4 3.9 88.4 L 3.9 92.1 Z M 1.2 86.4 C 1.2 86.4 6.05 86.44 6 86.4 C 8.5 86.4 9.5 87.9 9.5 90.3 C 9.5 91.8 9.1 94.1 5.9 94.1 C 5.89 94.14 3.9 94.1 3.9 94.1 L 3.9 99.4 L 1.2 99.4 L 1.2 86.4 Z M 11 99.4 L 11 86.4 L 18.1 86.4 L 18.1 88.4 L 13.7 88.4 L 13.7 91.6 L 17.7 91.6 L 17.7 93.6 L 13.7 93.6 L 13.7 97.4 L 18.2 97.4 L 18.2 99.4 L 11 99.4 Z M 22.4 92.1 C 22.4 92.1 23.65 92.05 23.7 92.1 C 24.7 92.1 25 91 25 90.1 C 25 88.9 24.5 88.4 23.7 88.4 C 23.65 88.43 22.4 88.4 22.4 88.4 L 22.4 92.1 Z M 22.4 99.4 L 19.7 99.4 L 19.7 86.4 C 19.7 86.4 24.75 86.44 24.7 86.4 C 26.6 86.4 27.8 87.6 27.8 89.8 C 27.8 91.5 27.1 92.7 25.4 93 C 25.4 93 25.4 93.1 25.4 93.1 C 26 93.1 27.7 93.3 27.7 95.6 C 27.7 96.4 27.8 98.9 28 99.4 C 28 99.4 25.4 99.4 25.4 99.4 C 25 98.6 25.1 97.8 25.1 96.9 C 25.1 95.4 25.2 94 23.1 94 C 23.15 94.05 22.4 94 22.4 94 L 22.4 99.4 Z M 29.6 99.4 L 29.6 86.4 L 32.3 86.4 L 32.3 99.4 L 29.6 99.4 Z M 40.5 92.9 C 40.5 89.6 40.3 88.2 38.8 88.2 C 37.3 88.2 37.1 89.6 37.1 92.9 C 37.1 96.3 37.3 97.7 38.8 97.7 C 40.3 97.7 40.5 96.3 40.5 92.9 Z M 34.3 92.9 C 34.3 89.5 34.3 86.2 38.8 86.2 C 43.3 86.2 43.3 89.5 43.3 92.9 C 43.3 96.3 43.3 99.6 38.8 99.6 C 34.3 99.6 34.3 96.3 34.3 92.9 Z M 48 97.4 C 48 97.4 49.34 97.43 49.3 97.4 C 51 97.4 51.3 96.2 51.3 92.9 C 51.3 90.5 51.3 88.4 49.4 88.4 C 49.43 88.43 48 88.4 48 88.4 L 48 97.4 Z M 45.3 86.4 C 45.3 86.4 49.84 86.44 49.8 86.4 C 53.4 86.4 54.1 88.8 54.1 92.9 C 54.1 94.9 54.4 99.4 49.7 99.4 C 49.73 99.43 45.3 99.4 45.3 99.4 L 45.3 86.4 Z M 55.5 87.2 C 56 87 56.5 86.6 56.9 86.1 C 56.87 86.11 58.3 86.1 58.3 86.1 L 58.3 93.4 L 56.7 93.4 C 56.7 93.4 56.69 87.8 56.7 87.8 C 56.3 88.1 55.9 88.4 55.5 88.6 C 55.5 88.6 55.5 87.2 55.5 87.2 Z " stroke="none" fill="#00b398"/>  </g>  <g id="Polygon195625">    <path d="M 5.1 73.7 C 5.1 72.1 4.9 71.4 3.9 71.4 C 3 71.4 2.9 72.4 2.9 73.9 C 2.9 74.7 2.9 76.2 3.9 76.2 C 4.8 76.2 5.1 75.7 5.1 73.7 Z M 4.9 68 C 4.9 67.7 4.8 67.4 4.7 67.2 C 4.6 67 4.3 66.8 4 66.8 C 2.9 66.8 2.8 67.4 2.8 70.6 C 3.5 70 3.9 69.7 4.8 69.7 C 7.2 69.7 7.6 71.8 7.6 73.7 C 7.6 76.3 6.7 78 3.9 78 C 0.6 78 0.3 75.2 0.3 72.6 C 0.3 67.6 0.6 65.1 4.2 65.1 C 6.1 65.1 7.5 65.9 7.5 68 C 7.5 68 4.9 68 4.9 68 Z M 12.7 77.8 L 12.7 64.8 L 17.1 64.8 L 19.1 73.7 L 19.2 73.7 L 21.3 64.8 L 25.5 64.8 L 25.5 77.8 L 22.9 77.8 L 22.9 67.8 L 22.9 67.8 L 20.4 77.8 L 17.8 77.8 L 15.4 67.8 L 15.4 67.8 L 15.4 77.8 L 12.7 77.8 Z M 33.7 71.3 C 33.7 68 33.5 66.6 31.9 66.6 C 30.4 66.6 30.2 68 30.2 71.3 C 30.2 74.7 30.4 76.1 31.9 76.1 C 33.5 76.1 33.7 74.7 33.7 71.3 Z M 27.4 71.3 C 27.4 67.9 27.4 64.6 31.9 64.6 C 36.4 64.6 36.4 67.9 36.4 71.3 C 36.4 74.7 36.4 78 31.9 78 C 27.4 78 27.4 74.7 27.4 71.3 Z M 38.4 77.8 L 38.4 64.8 L 42.1 64.8 L 45.5 73.8 L 45.6 73.8 L 45.6 64.8 L 48.1 64.8 L 48.1 77.8 L 44.5 77.8 L 41 68.3 L 40.9 68.3 L 40.9 77.8 L 38.4 77.8 Z M 58 64.8 L 58 67 L 54.9 67 L 54.9 77.8 L 52.2 77.8 L 52.2 67 L 49.2 67 L 49.2 64.8 L 58 64.8 Z M 65 70 L 65 64.8 L 67.7 64.8 L 67.7 77.8 L 65 77.8 L 65 72 L 61.8 72 L 61.8 77.8 L 59.1 77.8 L 59.1 64.8 L 61.8 64.8 L 61.8 70 L 65 70 Z M 77.2 78 C 73.8 78 73.2 76.1 73.3 73.8 C 73.3 73.8 76.1 73.8 76.1 73.8 C 76.1 75.1 76.1 76.1 77.6 76.1 C 78.5 76.1 79 75.5 79 74.6 C 79 72.3 73.5 72.1 73.5 68.3 C 73.5 66.2 74.5 64.6 77.8 64.6 C 80.4 64.6 81.8 65.8 81.6 68.5 C 81.6 68.5 78.9 68.5 78.9 68.5 C 78.9 67.6 78.8 66.6 77.7 66.6 C 76.8 66.6 76.3 67 76.3 67.9 C 76.3 70.4 81.7 70.2 81.7 74.3 C 81.7 77.7 79.3 78 77.2 78 Z M 91.2 64.8 L 91.2 67 L 88.2 67 L 88.2 77.8 L 85.5 77.8 L 85.5 67 L 82.5 67 L 82.5 64.8 L 91.2 64.8 Z M 101.1 64.8 C 101.1 64.8 101.1 74.05 101.1 74.1 C 101.1 76 100 78 96.7 78 C 93.7 78 92.3 76.5 92.3 74.1 C 92.27 74.05 92.3 64.8 92.3 64.8 L 95 64.8 C 95 64.8 94.98 73.87 95 73.9 C 95 75.5 95.7 76.1 96.7 76.1 C 97.8 76.1 98.4 75.3 98.4 73.9 C 98.39 73.87 98.4 64.8 98.4 64.8 L 101.1 64.8 Z M 105.9 75.8 C 105.9 75.8 107.22 75.83 107.2 75.8 C 108.9 75.8 109.2 74.6 109.2 71.3 C 109.2 68.9 109.2 66.8 107.3 66.8 C 107.31 66.83 105.9 66.8 105.9 66.8 L 105.9 75.8 Z M 103.2 64.8 C 103.2 64.8 107.73 64.84 107.7 64.8 C 111.3 64.8 112 67.2 112 71.3 C 112 73.3 112.3 77.8 107.6 77.8 C 107.62 77.83 103.2 77.8 103.2 77.8 L 103.2 64.8 Z M 116.4 73.3 L 112.9 64.8 L 115.9 64.8 L 117.9 70.3 L 119.9 64.8 L 122.7 64.8 L 119.1 73.3 L 119.1 77.8 L 116.4 77.8 L 116.4 73.3 Z " stroke="none" fill="#00b398"/>  </g>  <g id="Polygon195624">    <path d="M 3.8 48.9 C 3.8 48.9 5 48.85 5 48.9 C 6.1 48.9 6.4 47.8 6.4 46.9 C 6.4 45.7 5.9 45.2 5 45.2 C 5 45.23 3.8 45.2 3.8 45.2 L 3.8 48.9 Z M 3.8 56.2 L 1.1 56.2 L 1.1 43.2 C 1.1 43.2 6.1 43.24 6.1 43.2 C 8 43.2 9.1 44.4 9.1 46.6 C 9.1 48.3 8.5 49.5 6.7 49.8 C 6.7 49.8 6.7 49.9 6.7 49.9 C 7.3 49.9 9.1 50.1 9.1 52.4 C 9.1 53.2 9.1 55.7 9.4 56.2 C 9.4 56.2 6.7 56.2 6.7 56.2 C 6.4 55.4 6.4 54.6 6.4 53.7 C 6.4 52.2 6.6 50.8 4.5 50.8 C 4.5 50.85 3.8 50.8 3.8 50.8 L 3.8 56.2 Z M 19.7 43.2 C 19.7 43.2 19.75 52.45 19.7 52.5 C 19.7 54.4 18.6 56.4 15.3 56.4 C 12.3 56.4 10.9 54.9 10.9 52.5 C 10.91 52.45 10.9 43.2 10.9 43.2 L 13.6 43.2 C 13.6 43.2 13.63 52.27 13.6 52.3 C 13.6 53.9 14.3 54.5 15.3 54.5 C 16.5 54.5 17 53.7 17 52.3 C 17.03 52.27 17 43.2 17 43.2 L 19.7 43.2 Z M 21.8 56.2 L 21.8 43.2 L 25.5 43.2 L 28.9 52.2 L 29 52.2 L 29 43.2 L 31.5 43.2 L 31.5 56.2 L 27.9 56.2 L 24.4 46.7 L 24.3 46.7 L 24.3 56.2 L 21.8 56.2 Z M 37.7 50.5 L 37.7 52.3 L 33.3 52.3 L 33.3 50.5 L 37.7 50.5 Z M 39.4 56.2 L 39.4 43.2 L 42.1 43.2 L 42.1 56.2 L 39.4 56.2 Z M 44.3 56.2 L 44.3 43.2 L 47.9 43.2 L 51.4 52.2 L 51.4 52.2 L 51.4 43.2 L 54 43.2 L 54 56.2 L 50.4 56.2 L 46.8 46.7 L 46.8 46.7 L 46.8 56.2 L 44.3 56.2 Z M 58.9 56.2 L 62.5 43.2 L 66.1 43.2 L 69.6 56.2 L 66.7 56.2 L 66 53.4 L 62.3 53.4 L 61.6 56.2 L 58.9 56.2 Z M 64.1 45.7 L 64.1 45.7 L 62.9 51.4 L 65.4 51.4 L 64.1 45.7 Z M 70.7 56.2 L 70.7 43.2 L 74.4 43.2 L 77.8 52.2 L 77.9 52.2 L 77.9 43.2 L 80.4 43.2 L 80.4 56.2 L 76.8 56.2 L 73.3 46.7 L 73.3 46.7 L 73.3 56.2 L 70.7 56.2 Z M 85.3 54.2 C 85.3 54.2 86.61 54.23 86.6 54.2 C 88.3 54.2 88.6 53 88.6 49.7 C 88.6 47.3 88.6 45.2 86.7 45.2 C 86.7 45.23 85.3 45.2 85.3 45.2 L 85.3 54.2 Z M 82.6 43.2 C 82.6 43.2 87.12 43.24 87.1 43.2 C 90.7 43.2 91.3 45.6 91.3 49.7 C 91.3 51.7 91.7 56.2 87 56.2 C 87.01 56.23 82.6 56.2 82.6 56.2 L 82.6 43.2 Z " stroke="none" fill="#00b398"/>  </g>  <g id="Polygon195623">    <path d="M 3.9 32.6 C 3.9 32.6 5.22 32.63 5.2 32.6 C 6.9 32.6 7.2 31.4 7.2 28.1 C 7.2 25.7 7.2 23.6 5.3 23.6 C 5.31 23.63 3.9 23.6 3.9 23.6 L 3.9 32.6 Z M 1.2 21.6 C 1.2 21.6 5.72 21.64 5.7 21.6 C 9.3 21.6 10 24 10 28.1 C 10 30.1 10.3 34.6 5.6 34.6 C 5.62 34.63 1.2 34.6 1.2 34.6 L 1.2 21.6 Z M 20.7 21.6 C 20.7 21.6 20.74 30.85 20.7 30.9 C 20.7 32.8 19.6 34.8 16.3 34.8 C 13.3 34.8 11.9 33.3 11.9 30.9 C 11.9 30.85 11.9 21.6 11.9 21.6 L 14.6 21.6 C 14.6 21.6 14.62 30.67 14.6 30.7 C 14.6 32.3 15.3 32.9 16.3 32.9 C 17.5 32.9 18 32.1 18 30.7 C 18.02 30.67 18 21.6 18 21.6 L 20.7 21.6 Z M 25.4 27.3 C 25.4 27.3 26.64 27.25 26.6 27.3 C 27.7 27.3 28 26.2 28 25.3 C 28 24.1 27.5 23.6 26.6 23.6 C 26.64 23.63 25.4 23.6 25.4 23.6 L 25.4 27.3 Z M 25.4 34.6 L 22.7 34.6 L 22.7 21.6 C 22.7 21.6 27.74 21.64 27.7 21.6 C 29.6 21.6 30.8 22.8 30.8 25 C 30.8 26.7 30.1 27.9 28.4 28.2 C 28.4 28.2 28.4 28.3 28.4 28.3 C 29 28.3 30.7 28.5 30.7 30.8 C 30.7 31.6 30.8 34.1 31 34.6 C 31 34.6 28.4 34.6 28.4 34.6 C 28 33.8 28.1 33 28.1 32.1 C 28.1 30.6 28.2 29.2 26.1 29.2 C 26.14 29.25 25.4 29.2 25.4 29.2 L 25.4 34.6 Z M 32.6 34.6 L 32.6 21.6 L 35.3 21.6 L 35.3 34.6 L 32.6 34.6 Z M 37.4 34.6 L 37.4 21.6 L 41.1 21.6 L 44.6 30.6 L 44.6 30.6 L 44.6 21.6 L 47.1 21.6 L 47.1 34.6 L 43.6 34.6 L 40 25.1 L 40 25.1 L 40 34.6 L 37.4 34.6 Z M 55.2 25.6 C 55.2 24.4 55 23.4 53.6 23.4 C 51.9 23.4 51.9 25.6 51.9 28.2 C 51.9 32.2 52.3 33 53.8 33 C 54.3 33 54.8 32.8 55.2 32.7 C 55.17 32.71 55.2 29.8 55.2 29.8 L 53.7 29.8 L 53.7 27.8 L 57.9 27.8 C 57.9 27.8 57.89 34.42 57.9 34.4 C 57.1 34.6 55.3 34.8 54.2 34.8 C 49.6 34.8 49.1 33 49.1 28 C 49.1 24.7 49.3 21.4 53.7 21.4 C 56.4 21.4 58 22.9 57.9 25.6 C 57.9 25.6 55.2 25.6 55.2 25.6 Z M 67.4 34.8 C 64 34.8 63.4 32.9 63.6 30.6 C 63.6 30.6 66.3 30.6 66.3 30.6 C 66.3 31.9 66.3 32.9 67.8 32.9 C 68.7 32.9 69.2 32.3 69.2 31.4 C 69.2 29.1 63.7 28.9 63.7 25.1 C 63.7 23 64.7 21.4 68 21.4 C 70.6 21.4 72 22.6 71.8 25.3 C 71.8 25.3 69.1 25.3 69.1 25.3 C 69.1 24.4 69 23.4 67.9 23.4 C 67 23.4 66.5 23.8 66.5 24.7 C 66.5 27.2 71.9 27 71.9 31.1 C 71.9 34.5 69.5 34.8 67.4 34.8 Z M 81.4 21.6 L 81.4 23.8 L 78.4 23.8 L 78.4 34.6 L 75.7 34.6 L 75.7 23.8 L 72.7 23.8 L 72.7 21.6 L 81.4 21.6 Z M 91.3 21.6 C 91.3 21.6 91.31 30.85 91.3 30.9 C 91.3 32.8 90.2 34.8 86.9 34.8 C 83.9 34.8 82.5 33.3 82.5 30.9 C 82.48 30.85 82.5 21.6 82.5 21.6 L 85.2 21.6 C 85.2 21.6 85.19 30.67 85.2 30.7 C 85.2 32.3 85.9 32.9 86.9 32.9 C 88.1 32.9 88.6 32.1 88.6 30.7 C 88.6 30.67 88.6 21.6 88.6 21.6 L 91.3 21.6 Z M 96.1 32.6 C 96.1 32.6 97.43 32.63 97.4 32.6 C 99.1 32.6 99.4 31.4 99.4 28.1 C 99.4 25.7 99.4 23.6 97.5 23.6 C 97.52 23.63 96.1 23.6 96.1 23.6 L 96.1 32.6 Z M 93.4 21.6 C 93.4 21.6 97.94 21.64 97.9 21.6 C 101.5 21.6 102.2 24 102.2 28.1 C 102.2 30.1 102.5 34.6 97.8 34.6 C 97.83 34.63 93.4 34.6 93.4 34.6 L 93.4 21.6 Z M 106.6 30.1 L 103.2 21.6 L 106.1 21.6 L 108.1 27.1 L 110.1 21.6 L 112.9 21.6 L 109.3 30.1 L 109.3 34.6 L 106.6 34.6 L 106.6 30.1 Z " stroke="none" fill="#00b398"/>  </g>  <g id="Polygon195622">    <path d="M 7.1 5.2 L 7.1 0 L 9.8 0 L 9.8 13 L 7.1 13 L 7.1 7.2 L 3.9 7.2 L 3.9 13 L 1.2 13 L 1.2 0 L 3.9 0 L 3.9 5.2 L 7.1 5.2 Z M 11 13 L 14.6 0 L 18.1 0 L 21.7 13 L 18.8 13 L 18.1 10.2 L 14.4 10.2 L 13.6 13 L 11 13 Z M 16.2 2.5 L 16.2 2.5 L 14.9 8.2 L 17.5 8.2 L 16.2 2.5 Z M 22.8 13 L 22.8 0 L 29.9 0 L 29.9 2 L 25.5 2 L 25.5 5.2 L 29.5 5.2 L 29.5 7.2 L 25.5 7.2 L 25.5 11 L 30 11 L 30 13 L 22.8 13 Z M 34.4 13 L 38 0 L 41.6 0 L 45.1 13 L 42.3 13 L 41.5 10.2 L 37.8 10.2 L 37.1 13 L 34.4 13 Z M 39.7 2.5 L 39.6 2.5 L 38.4 8.2 L 41 8.2 L 39.7 2.5 Z M 52.9 0 L 52.9 2.2 L 49.9 2.2 L 49.9 13 L 47.1 13 L 47.1 2.2 L 44.1 2.2 L 44.1 0 L 52.9 0 Z M 61.7 0 L 61.7 2.2 L 58.7 2.2 L 58.7 13 L 56 13 L 56 2.2 L 52.9 2.2 L 52.9 0 L 61.7 0 Z M 60.7 13 L 64.3 0 L 67.9 0 L 71.4 13 L 68.6 13 L 67.8 10.2 L 64.1 10.2 L 63.4 13 L 60.7 13 Z M 66 2.5 L 65.9 2.5 L 64.7 8.2 L 67.3 8.2 L 66 2.5 Z M 72.4 6.5 C 72.4 3.1 72.4 -0.2 76.9 -0.2 C 79.6 -0.2 80.8 1.3 80.7 4.1 C 80.7 4.1 78 4.1 78 4.1 C 78 2.4 77.7 1.8 76.9 1.8 C 75.3 1.8 75.1 3.2 75.1 6.5 C 75.1 9.9 75.3 11.3 76.9 11.3 C 78.1 11.3 78.1 9.7 78.1 8.7 C 78.1 8.7 80.8 8.7 80.8 8.7 C 80.8 12.1 79.4 13.2 76.9 13.2 C 72.4 13.2 72.4 9.9 72.4 6.5 Z M 88.1 0 L 91.1 0 L 87.5 5.9 L 91.1 13 L 88.1 13 L 84.9 6.4 L 84.9 6.4 L 84.9 13 L 82.2 13 L 82.2 0 L 84.9 0 L 84.9 5.6 L 84.9 5.6 L 88.1 0 Z M 95.7 13.2 C 92.3 13.2 91.7 11.3 91.9 9 C 91.9 9 94.6 9 94.6 9 C 94.6 10.3 94.6 11.3 96.1 11.3 C 97 11.3 97.5 10.7 97.5 9.8 C 97.5 7.5 92 7.3 92 3.5 C 92 1.4 93 -0.2 96.3 -0.2 C 98.9 -0.2 100.3 1 100.1 3.7 C 100.1 3.7 97.4 3.7 97.4 3.7 C 97.4 2.8 97.3 1.8 96.2 1.8 C 95.3 1.8 94.8 2.2 94.8 3.1 C 94.8 5.6 100.2 5.4 100.2 9.5 C 100.2 12.9 97.8 13.2 95.7 13.2 Z " stroke="none" fill="#00b398"/>  </g></svg>