<?xml version="1.0" standalone="no"?><!DOCTYPE svg PUBLIC "-//W3C//DTD SVG 1.1//EN" "http://www.w3.org/Graphics/SVG/1.1/DTD/svg11.dtd"><svg xmlns="http://www.w3.org/2000/svg" version="1.1" width="466.5px" height="41.4px" viewBox="0 -5 466.5 41.4" style="top:-5px">  <desc>PHASE 3 OLE OUTCOME:3</desc>  <defs/>  <g id="Polygon201468">    <path d="M 3.4 5.1 C 3.4 5.1 4.78 5.1 4.8 5.1 C 5.5 5.1 6 4.3 6 3.6 C 6 2.6 5.7 1.8 4.7 1.8 C 4.66 1.81 3.4 1.8 3.4 1.8 L 3.4 5.1 Z M 1 0 C 1 0 5.38 0.03 5.4 0 C 7.6 0 8.4 1.4 8.4 3.5 C 8.4 4.8 8.1 6.9 5.2 6.9 C 5.23 6.88 3.4 6.9 3.4 6.9 L 3.4 11.6 L 1 11.6 L 1 0 Z M 15.2 4.7 L 15.2 0 L 17.6 0 L 17.6 11.6 L 15.2 11.6 L 15.2 6.4 L 12.4 6.4 L 12.4 11.6 L 10 11.6 L 10 0 L 12.4 0 L 12.4 4.7 L 15.2 4.7 Z M 18.8 11.6 L 22 0 L 25.2 0 L 28.3 11.6 L 25.8 11.6 L 25.1 9 L 21.8 9 L 21.2 11.6 L 18.8 11.6 Z M 23.5 2.3 L 23.4 2.3 L 22.3 7.2 L 24.6 7.2 L 23.5 2.3 Z M 32.6 11.8 C 29.6 11.8 29 10 29.2 8 C 29.2 8 31.6 8 31.6 8 C 31.6 9.1 31.6 10 33 10 C 33.8 10 34.2 9.5 34.2 8.7 C 34.2 6.7 29.3 6.5 29.3 3.1 C 29.3 1.3 30.2 -0.2 33.1 -0.2 C 35.5 -0.2 36.6 0.9 36.5 3.3 C 36.5 3.3 34.1 3.3 34.1 3.3 C 34.1 2.4 34 1.6 33 1.6 C 32.2 1.6 31.8 2 31.8 2.8 C 31.8 5 36.6 4.8 36.6 8.4 C 36.6 11.4 34.4 11.8 32.6 11.8 Z M 38.4 11.6 L 38.4 0 L 44.7 0 L 44.7 1.8 L 40.8 1.8 L 40.8 4.7 L 44.4 4.7 L 44.4 6.4 L 40.8 6.4 L 40.8 9.8 L 44.8 9.8 L 44.8 11.6 L 38.4 11.6 Z M 49.2 3.2 C 49.2 2 49.5 1.3 50 0.9 C 50.5 0.4 51.3 0.3 52.4 0.3 C 54.5 0.3 55.5 1.1 55.5 3.2 C 55.5 4.3 55.2 5.6 54 5.7 C 54 5.7 54 5.8 54 5.8 C 55.4 6 55.6 7.2 55.6 8.5 C 55.6 10.8 54.4 11.7 52.2 11.7 C 50 11.7 49.1 10.9 49.1 8.6 C 49.1 8.6 51.3 8.6 51.3 8.6 C 51.3 9.3 51.3 10.1 52.3 10.1 C 53.3 10.1 53.4 9.2 53.4 8.4 C 53.4 6.8 52.9 6.7 51.3 6.7 C 51.3 6.7 51.3 4.9 51.3 4.9 C 52.8 4.9 53.2 4.8 53.2 3.2 C 53.2 2.6 53.1 1.9 52.4 1.9 C 51.5 1.9 51.5 2.6 51.5 3.2 C 51.5 3.2 49.2 3.2 49.2 3.2 Z M 66 5.8 C 66 2.8 65.8 1.6 64.4 1.6 C 63.1 1.6 62.9 2.8 62.9 5.8 C 62.9 8.8 63.1 10 64.4 10 C 65.8 10 66 8.8 66 5.8 Z M 60.4 5.8 C 60.4 2.8 60.4 -0.2 64.4 -0.2 C 68.4 -0.2 68.4 2.8 68.4 5.8 C 68.4 8.8 68.4 11.8 64.4 11.8 C 60.4 11.8 60.4 8.8 60.4 5.8 Z M 70.4 11.6 L 70.4 0 L 72.8 0 L 72.8 9.7 L 76.4 9.7 L 76.4 11.6 L 70.4 11.6 Z M 77.4 11.6 L 77.4 0 L 83.7 0 L 83.7 1.8 L 79.9 1.8 L 79.9 4.7 L 83.4 4.7 L 83.4 6.4 L 79.9 6.4 L 79.9 9.8 L 83.9 9.8 L 83.9 11.6 L 77.4 11.6 Z M 94.4 5.8 C 94.4 2.8 94.2 1.6 92.9 1.6 C 91.5 1.6 91.3 2.8 91.3 5.8 C 91.3 8.8 91.5 10 92.9 10 C 94.2 10 94.4 8.8 94.4 5.8 Z M 88.9 5.8 C 88.9 2.8 88.9 -0.2 92.9 -0.2 C 96.8 -0.2 96.8 2.8 96.8 5.8 C 96.8 8.8 96.8 11.8 92.9 11.8 C 88.9 11.8 88.9 8.8 88.9 5.8 Z M 106.6 0 C 106.6 0 106.57 8.22 106.6 8.2 C 106.6 10 105.6 11.8 102.7 11.8 C 100 11.8 98.7 10.4 98.7 8.2 C 98.72 8.22 98.7 0 98.7 0 L 101.1 0 C 101.1 0 101.13 8.06 101.1 8.1 C 101.1 9.5 101.7 10 102.6 10 C 103.7 10 104.2 9.3 104.2 8.1 C 104.16 8.06 104.2 0 104.2 0 L 106.6 0 Z M 115.4 0 L 115.4 2 L 112.7 2 L 112.7 11.6 L 110.3 11.6 L 110.3 2 L 107.6 2 L 107.6 0 L 115.4 0 Z M 116.4 5.8 C 116.4 2.8 116.4 -0.2 120.4 -0.2 C 122.9 -0.2 123.9 1.2 123.8 3.7 C 123.8 3.7 121.4 3.7 121.4 3.7 C 121.4 2.1 121.1 1.6 120.4 1.6 C 119.1 1.6 118.9 2.8 118.9 5.8 C 118.9 8.8 119.1 10 120.4 10 C 121.5 10 121.5 8.6 121.5 7.7 C 121.5 7.7 123.9 7.7 123.9 7.7 C 123.9 10.8 122.7 11.8 120.4 11.8 C 116.4 11.8 116.4 8.8 116.4 5.8 Z M 130.8 5.8 C 130.8 2.8 130.7 1.6 129.3 1.6 C 128 1.6 127.8 2.8 127.8 5.8 C 127.8 8.8 128 10 129.3 10 C 130.7 10 130.8 8.8 130.8 5.8 Z M 125.3 5.8 C 125.3 2.8 125.3 -0.2 129.3 -0.2 C 133.3 -0.2 133.3 2.8 133.3 5.8 C 133.3 8.8 133.3 11.8 129.3 11.8 C 125.3 11.8 125.3 8.8 125.3 5.8 Z M 135.2 11.6 L 135.2 0 L 139.1 0 L 140.9 7.9 L 140.9 7.9 L 142.8 0 L 146.6 0 L 146.6 11.6 L 144.2 11.6 L 144.2 2.7 L 144.2 2.7 L 142 11.6 L 139.7 11.6 L 137.6 2.7 L 137.5 2.7 L 137.5 11.6 L 135.2 11.6 Z M 148.5 11.6 L 148.5 0 L 154.8 0 L 154.8 1.8 L 151 1.8 L 151 4.7 L 154.5 4.7 L 154.5 6.4 L 151 6.4 L 151 9.8 L 155 9.8 L 155 11.6 L 148.5 11.6 Z M 159.2 3.5 L 159.2 5.6 L 157.3 5.6 L 157.3 3.5 L 159.2 3.5 Z M 159.2 11.6 L 157.3 11.6 L 157.3 9.5 L 159.2 9.5 L 159.2 11.6 Z M 160.2 1.4 C 160.2 0.7 160.4 0.3 160.7 0 C 161 -0.2 161.4 -0.3 162.1 -0.3 C 163.3 -0.3 163.9 0.2 163.9 1.4 C 163.9 2 163.7 2.7 163 2.8 C 163 2.8 163 2.9 163 2.9 C 163.8 3 164 3.7 164 4.4 C 164 5.8 163.3 6.3 161.9 6.3 C 160.7 6.3 160.2 5.9 160.2 4.5 C 160.2 4.5 161.5 4.5 161.5 4.5 C 161.5 4.9 161.5 5.4 162 5.4 C 162.6 5.4 162.7 4.8 162.7 4.4 C 162.7 3.4 162.4 3.4 161.4 3.4 C 161.4 3.4 161.4 2.3 161.4 2.3 C 162.3 2.4 162.6 2.3 162.6 1.4 C 162.6 1 162.5 0.6 162.1 0.6 C 161.6 0.6 161.5 1 161.5 1.4 C 161.5 1.4 160.2 1.4 160.2 1.4 Z " stroke="none" fill="#00b398"/>  </g></svg>