<?xml version="1.0" standalone="no"?><!DOCTYPE svg PUBLIC "-//W3C//DTD SVG 1.1//EN" "http://www.w3.org/Graphics/SVG/1.1/DTD/svg11.dtd"><svg xmlns="http://www.w3.org/2000/svg" version="1.1" width="243px" height="34.1px" viewBox="0 -5 243 34.1" style="top:-5px">  <desc>PHASE 3 AE PROFILE</desc>  <defs/>  <g id="Polygon201391">    <path d="M 3 7.2 C 3 7.2 4.16 7.17 4.2 7.2 C 5.7 7.2 5.8 6.9 5.8 4.5 C 5.8 2.1 5.7 1.9 4.2 1.9 C 4.16 1.89 3 1.9 3 1.9 L 3 7.2 Z M 0.8 0 C 0.8 0 4.44 0.04 4.4 0 C 7.4 0 8 0.9 8 4.5 C 8 8.2 7.4 9 4.4 9 C 4.44 9.02 3 9 3 9 L 3 15.9 L 0.8 15.9 L 0.8 0 Z M 9.4 0 L 11.6 0 L 11.6 6.9 L 14.5 6.9 L 14.5 0 L 16.7 0 L 16.7 15.9 L 14.5 15.9 L 14.5 8.7 L 11.6 8.7 L 11.6 15.9 L 9.4 15.9 L 9.4 0 Z M 21.3 0 L 23.8 0 L 27 15.9 L 24.8 15.9 L 24.1 11.9 L 20.7 11.9 L 20 15.9 L 17.8 15.9 L 21.3 0 Z M 21 10 L 23.8 10 L 22.4 2.4 L 22.4 2.4 L 21 10 Z M 27.9 11.3 L 30.1 11.3 C 30.1 11.3 30.05 12.63 30.1 12.6 C 30.1 13.7 30.4 14.3 31.3 14.3 C 32.5 14.3 32.8 13.6 32.8 12.5 C 32.8 11.2 32.7 10.7 30.4 8.5 C 29 7.1 27.9 5.8 27.9 3.6 C 27.9 1 29.1 -0.1 31.5 -0.1 C 32.6 -0.1 33.5 0.3 34 0.8 C 34.4 1.1 34.7 1.7 34.7 2.8 C 34.67 2.82 34.7 4.3 34.7 4.3 L 32.6 4.3 C 32.6 4.3 32.6 3.06 32.6 3.1 C 32.6 2.2 32.2 1.6 31.4 1.6 C 30.5 1.6 30.1 2.1 30.1 3.4 C 30.1 4.4 30.3 5.1 32.3 7.2 C 34.5 9.5 34.8 10.2 34.8 12.1 C 34.8 14.6 33.9 16.1 31.3 16.1 C 29.2 16.1 27.9 15.2 27.9 13.2 C 27.85 13.22 27.9 11.3 27.9 11.3 Z M 36.2 0 L 42.2 0 L 42.2 1.9 L 38.4 1.9 L 38.4 6.9 L 42 6.9 L 42 8.7 L 38.4 8.7 L 38.4 14.1 L 42.2 14.1 L 42.2 15.9 L 36.2 15.9 L 36.2 0 Z M 47.3 11.6 L 49.3 11.6 C 49.3 11.6 49.32 12.5 49.3 12.5 C 49.3 13.7 49.6 14.5 50.5 14.5 C 51.4 14.5 51.7 13.7 51.7 12.5 C 51.7 12.5 51.7 10.6 51.7 10.6 C 51.7 9.2 51.4 8.7 49.9 8.7 C 49.87 8.71 49.3 8.7 49.3 8.7 L 49.3 6.9 C 49.3 6.9 50.03 6.86 50 6.9 C 51.3 6.9 51.7 6.5 51.7 4.9 C 51.7 4.9 51.7 3.2 51.7 3.2 C 51.7 1.8 51.3 1.5 50.6 1.5 C 49.7 1.5 49.4 2.2 49.4 3.5 C 49.43 3.48 49.4 4 49.4 4 C 49.4 4 47.36 4 47.4 4 C 47.4 1 48 -0.1 50.6 -0.1 C 53.2 -0.1 53.7 1.1 53.7 4.1 C 53.7 6.9 53.4 7.4 51.8 7.7 C 51.8 7.7 51.8 7.8 51.8 7.8 C 53.2 8 53.8 8.3 53.8 12.1 C 53.8 15 53.2 16.1 50.5 16.1 C 47.9 16.1 47.3 15 47.3 12.1 C 47.25 12.14 47.3 11.6 47.3 11.6 Z M 61.6 0 L 64.2 0 L 67.4 15.9 L 65.2 15.9 L 64.5 11.9 L 61.1 11.9 L 60.3 15.9 L 58.1 15.9 L 61.6 0 Z M 61.4 10 L 64.2 10 L 62.8 2.4 L 62.8 2.4 L 61.4 10 Z M 68.5 0 L 74.5 0 L 74.5 1.9 L 70.7 1.9 L 70.7 6.9 L 74.2 6.9 L 74.2 8.7 L 70.7 8.7 L 70.7 14.1 L 74.5 14.1 L 74.5 15.9 L 68.5 15.9 L 68.5 0 Z M 81.7 7.2 C 81.7 7.2 82.85 7.17 82.8 7.2 C 84.3 7.2 84.5 6.9 84.5 4.5 C 84.5 2.1 84.3 1.9 82.8 1.9 C 82.85 1.89 81.7 1.9 81.7 1.9 L 81.7 7.2 Z M 79.5 0 C 79.5 0 83.14 0.04 83.1 0 C 86.1 0 86.7 0.9 86.7 4.5 C 86.7 8.2 86.1 9 83.1 9 C 83.14 9.02 81.7 9 81.7 9 L 81.7 15.9 L 79.5 15.9 L 79.5 0 Z M 88.1 0 C 88.1 0 91.47 0.04 91.5 0 C 94.7 0 95 0.9 95 4.4 C 95 6.5 94.7 7.4 92.9 8 C 92.9 8 92.9 8 92.9 8 C 94.4 8.2 94.9 9 94.9 10.4 C 94.9 10.4 94.9 13.9 94.9 13.9 C 94.9 14.5 94.9 15.3 95.1 15.9 C 95.1 15.9 93 15.9 93 15.9 C 92.8 15.5 92.7 15.1 92.7 14.5 C 92.7 14.5 92.7 10.9 92.7 10.9 C 92.7 9.4 92.5 9 91 9 C 91.01 9.02 90.3 9 90.3 9 L 90.3 15.9 L 88.1 15.9 L 88.1 0 Z M 90.3 7.2 C 90.3 7.2 90.84 7.17 90.8 7.2 C 92.6 7.2 92.8 6.8 92.8 4.5 C 92.8 2.1 92.7 1.9 91.3 1.9 C 91.32 1.89 90.3 1.9 90.3 1.9 L 90.3 7.2 Z M 98.8 12.3 C 98.8 13.6 99.4 14.3 100.3 14.3 C 101.2 14.3 101.8 13.6 101.8 12.3 C 101.8 12.3 101.8 3.9 101.8 3.9 C 101.8 2.4 101.3 1.6 100.3 1.6 C 99.3 1.6 98.8 2.4 98.8 3.9 C 98.8 3.9 98.8 12.3 98.8 12.3 Z M 96.6 4.1 C 96.6 1.9 97.3 -0.1 100.3 -0.1 C 103.1 -0.1 104 1.4 104 3.8 C 104 3.8 104 11.9 104 11.9 C 104 14.1 103.3 16.1 100.3 16.1 C 97.5 16.1 96.6 14.6 96.6 12.1 C 96.6 12.1 96.6 4.1 96.6 4.1 Z M 105.6 0 L 111.6 0 L 111.6 1.9 L 107.8 1.9 L 107.8 6.9 L 111.3 6.9 L 111.3 8.7 L 107.8 8.7 L 107.8 15.9 L 105.6 15.9 L 105.6 0 Z M 112.4 0 L 114.6 0 L 114.6 15.9 L 112.4 15.9 L 112.4 0 Z M 116.2 0 L 118.4 0 L 118.4 14.1 L 122.1 14.1 L 122.1 15.9 L 116.2 15.9 L 116.2 0 Z M 123.1 0 L 129.1 0 L 129.1 1.9 L 125.3 1.9 L 125.3 6.9 L 128.9 6.9 L 128.9 8.7 L 125.3 8.7 L 125.3 14.1 L 129.1 14.1 L 129.1 15.9 L 123.1 15.9 L 123.1 0 Z " stroke="none" fill="#fff"/>  </g></svg>