<?xml version="1.0" standalone="no"?><!DOCTYPE svg PUBLIC "-//W3C//DTD SVG 1.1//EN" "http://www.w3.org/Graphics/SVG/1.1/DTD/svg11.dtd"><svg xmlns="http://www.w3.org/2000/svg" version="1.1" width="353.1px" height="301.8px" viewBox="0 -16 353.1 301.8" style="top:-16px">  <desc>THE GOAL? A LIFE WITHOUT HAE ATTACKS!1</desc>  <defs/>  <g id="Polygon190202">    <path d="M 2.4 163.1 L 8.8 163.1 L 8.8 183.1 L 17.4 183.1 L 17.4 163.1 L 23.9 163.1 L 23.9 209.7 L 17.4 209.7 L 17.4 188.5 L 8.8 188.5 L 8.8 209.7 L 2.4 209.7 L 2.4 163.1 Z M 40.2 163.1 L 47.6 163.1 L 57.1 209.7 L 50.7 209.7 L 48.6 197.8 L 38.5 197.8 L 36.3 209.7 L 29.9 209.7 L 40.2 163.1 Z M 39.4 192.4 L 47.6 192.4 L 43.6 169.9 L 43.5 169.9 L 39.4 192.4 Z M 63.1 163.1 L 80.7 163.1 L 80.7 168.5 L 69.6 168.5 L 69.6 183.1 L 80.1 183.1 L 80.1 188.5 L 69.6 188.5 L 69.6 204.3 L 80.7 204.3 L 80.7 209.7 L 63.1 209.7 L 63.1 163.1 Z M 107.5 163.1 L 115 163.1 L 124.5 209.7 L 118 209.7 L 115.9 197.8 L 105.8 197.8 L 103.7 209.7 L 97.2 209.7 L 107.5 163.1 Z M 106.8 192.4 L 115 192.4 L 111 169.9 L 110.9 169.9 L 106.8 192.4 Z M 123.3 163.1 L 145.3 163.1 L 145.3 168.5 L 137.5 168.5 L 137.5 209.7 L 131.1 209.7 L 131.1 168.5 L 123.3 168.5 L 123.3 163.1 Z M 148.9 163.1 L 170.9 163.1 L 170.9 168.5 L 163.1 168.5 L 163.1 209.7 L 156.7 209.7 L 156.7 168.5 L 148.9 168.5 L 148.9 163.1 Z M 180 163.1 L 187.5 163.1 L 197 209.7 L 190.5 209.7 L 188.4 197.8 L 178.3 197.8 L 176.2 209.7 L 169.7 209.7 L 180 163.1 Z M 179.3 192.4 L 187.5 192.4 L 183.5 169.9 L 183.4 169.9 L 179.3 192.4 Z M 202 175 C 202 168.4 204.1 162.7 212.9 162.7 C 219.3 162.7 222.2 165.9 222.2 171.1 C 222.22 171.14 222.2 175.8 222.2 175.8 L 216.2 175.8 C 216.2 175.8 216.16 172.57 216.2 172.6 C 216.2 169.6 215.1 167.7 212.4 167.7 C 209.1 167.7 208.4 170.1 208.4 175.7 C 208.4 175.7 208.4 198.6 208.4 198.6 C 208.4 204.1 210.2 205 212.2 205 C 214.6 205 216.2 203.4 216.2 199.5 C 216.16 199.49 216.2 196.3 216.2 196.3 L 222.2 196.3 C 222.2 196.3 222.22 201.43 222.2 201.4 C 222.2 206.3 220.2 210.1 212.7 210.1 C 204.6 210.1 202 205.8 202 198.5 C 202 198.5 202 175 202 175 Z M 228.3 163.1 L 234.7 163.1 L 234.7 184.3 L 234.9 184.3 L 245.1 163.1 L 251.5 163.1 L 240.7 185 L 252.3 209.7 L 245.1 209.7 L 234.9 186.4 L 234.7 186.4 L 234.7 209.7 L 228.3 209.7 L 228.3 163.1 Z M 256.8 196.2 L 263.2 196.2 C 263.2 196.2 263.22 200 263.2 200 C 263.2 203.1 264.4 205 267 205 C 270.4 205 271.2 202.7 271.2 199.7 C 271.2 195.7 271 194.5 264.3 187.8 C 260.2 183.7 256.8 179.9 256.8 173.6 C 256.8 166 260.3 162.7 267.4 162.7 C 270.8 162.7 273.4 163.8 274.9 165.3 C 276 166.3 276.8 167.9 276.8 171.2 C 276.78 171.21 276.8 175.6 276.8 175.6 L 270.7 175.6 C 270.7 175.6 270.71 171.92 270.7 171.9 C 270.7 169.3 269.6 167.7 267.1 167.7 C 264.4 167.7 263.2 169.2 263.2 172.8 C 263.2 176 263.9 177.9 269.8 184.1 C 276.1 190.7 277.3 193 277.3 198.6 C 277.3 205.9 274.5 210.1 266.8 210.1 C 260.8 210.1 256.8 207.6 256.8 201.7 C 256.76 201.75 256.8 196.2 256.8 196.2 Z M 285.6 163.1 L 292.5 163.1 L 291.6 199 L 286.5 199 L 285.6 163.1 Z M 285.6 203.2 L 292.5 203.2 L 292.5 209.7 L 285.6 209.7 L 285.6 203.2 Z M 303.5 167.7 C 303.5 167.7 303.44 167.74 303.4 167.7 C 302.9 168.5 302.3 169 301.3 169.8 C 301.3 169.8 301.3 167.2 301.3 167.2 C 301.9 166.8 303.4 164.9 303.8 164 C 303.77 164.02 306.1 164 306.1 164 L 306.1 183.8 L 303.5 183.8 L 303.5 167.7 Z " style="stroke-width:0.54316527179958pt; stroke:#003c71;" fill="#003c71"/>  </g>  <g id="Polygon190201">    <path d="M 11 81.6 L 18.5 81.6 L 28 128.2 L 21.5 128.2 L 19.4 116.3 L 9.3 116.3 L 7.2 128.2 L 0.7 128.2 L 11 81.6 Z M 10.3 110.9 L 18.5 110.9 L 14.5 88.4 L 14.3 88.4 L 10.3 110.9 Z M 48.9 81.6 L 55.3 81.6 L 55.3 122.8 L 66.2 122.8 L 66.2 128.2 L 48.9 128.2 L 48.9 81.6 Z M 71.9 81.6 L 78.4 81.6 L 78.4 128.2 L 71.9 128.2 L 71.9 81.6 Z M 85.9 81.6 L 103.4 81.6 L 103.4 87 L 92.3 87 L 92.3 101.6 L 102.8 101.6 L 102.8 107 L 92.3 107 L 92.3 128.2 L 85.9 128.2 L 85.9 81.6 Z M 109.1 81.6 L 126.7 81.6 L 126.7 87 L 115.6 87 L 115.6 101.6 L 126 101.6 L 126 107 L 115.6 107 L 115.6 122.8 L 126.7 122.8 L 126.7 128.2 L 109.1 128.2 L 109.1 81.6 Z M 143.3 81.6 L 150 81.6 L 154.6 120 L 154.8 120 L 159.9 81.6 L 168.7 81.6 L 173 120 L 173.1 120 L 178.6 81.6 L 184.7 81.6 L 176.3 128.2 L 168.4 128.2 L 164.1 89.2 L 164 89.2 L 158.5 128.2 L 150.7 128.2 L 143.3 81.6 Z M 190.7 81.6 L 197.1 81.6 L 197.1 128.2 L 190.7 128.2 L 190.7 81.6 Z M 202.6 81.6 L 224.5 81.6 L 224.5 87 L 216.8 87 L 216.8 128.2 L 210.3 128.2 L 210.3 87 L 202.6 87 L 202.6 81.6 Z M 230.2 81.6 L 236.7 81.6 L 236.7 101.6 L 245.3 101.6 L 245.3 81.6 L 251.7 81.6 L 251.7 128.2 L 245.3 128.2 L 245.3 107 L 236.7 107 L 236.7 128.2 L 230.2 128.2 L 230.2 81.6 Z M 265.7 117.4 C 265.7 121.4 267.5 123.6 270.1 123.6 C 272.8 123.6 274.6 121.4 274.6 117.4 C 274.6 117.4 274.6 93 274.6 93 C 274.6 88.4 273.1 86.3 270.1 86.3 C 267.2 86.3 265.7 88.4 265.7 93 C 265.7 93 265.7 117.4 265.7 117.4 Z M 259.2 93.5 C 259.2 87 261.3 81.2 270.1 81.2 C 278.5 81.2 281.1 85.5 281.1 92.8 C 281.1 92.8 281.1 116.3 281.1 116.3 C 281.1 122.9 279 128.6 270.1 128.6 C 261.9 128.6 259.2 124.3 259.2 117 C 259.2 117 259.2 93.5 259.2 93.5 Z M 310.3 117.7 C 310.3 123.1 308.2 128.6 299.4 128.6 C 290.5 128.6 288.4 123.1 288.4 117.7 C 288.4 117.69 288.4 81.6 288.4 81.6 L 294.9 81.6 C 294.9 81.6 294.85 118.79 294.9 118.8 C 294.9 122 296 123.6 299.4 123.6 C 302.7 123.6 303.8 122 303.8 118.8 C 303.83 118.79 303.8 81.6 303.8 81.6 L 310.3 81.6 C 310.3 81.6 310.29 117.69 310.3 117.7 Z M 315.8 81.6 L 337.7 81.6 L 337.7 87 L 330 87 L 330 128.2 L 323.5 128.2 L 323.5 87 L 315.8 87 L 315.8 81.6 Z " style="stroke-width:0.54316527179958pt; stroke:#003c71;" fill="#003c71"/>  </g>  <g id="Polygon190200">    <path d="M 0.4 0.1 L 22.3 0.1 L 22.3 5.6 L 14.6 5.6 L 14.6 46.7 L 8.1 46.7 L 8.1 5.6 L 0.4 5.6 L 0.4 0.1 Z M 28 0.1 L 34.5 0.1 L 34.5 20.1 L 43.1 20.1 L 43.1 0.1 L 49.5 0.1 L 49.5 46.7 L 43.1 46.7 L 43.1 25.6 L 34.5 25.6 L 34.5 46.7 L 28 46.7 L 28 0.1 Z M 57.2 0.1 L 74.8 0.1 L 74.8 5.6 L 63.7 5.6 L 63.7 20.1 L 74.1 20.1 L 74.1 25.6 L 63.7 25.6 L 63.7 41.3 L 74.8 41.3 L 74.8 46.7 L 57.2 46.7 L 57.2 0.1 Z M 110.4 12.5 C 110.4 12.5 110.4 10.07 110.4 10.1 C 110.4 6.8 108.8 4.8 106.3 4.8 C 103.3 4.8 101.8 7.5 101.8 12.5 C 101.8 12.5 101.8 36 101.8 36 C 101.8 39.7 103.6 42.1 106.3 42.1 C 108.1 42.1 109.6 41.8 110.4 41.6 C 110.4 41.64 110.4 28 110.4 28 L 106.1 28 L 106.1 22.5 L 116.9 22.5 C 116.9 22.5 116.86 45.97 116.9 46 C 114.3 46.6 109.9 47.1 106.2 47.1 C 98 47.1 95.4 42.8 95.4 35.6 C 95.4 35.6 95.4 12 95.4 12 C 95.4 3.3 98 -0.3 106.3 -0.3 C 113.2 -0.3 116.9 2.3 116.9 8.2 C 116.86 8.2 116.9 12.5 116.9 12.5 L 110.4 12.5 Z M 130.8 36 C 130.8 40 132.6 42.1 135.3 42.1 C 138 42.1 139.8 40 139.8 36 C 139.8 36 139.8 11.5 139.8 11.5 C 139.8 6.9 138.2 4.8 135.3 4.8 C 132.4 4.8 130.8 6.9 130.8 11.5 C 130.8 11.5 130.8 36 130.8 36 Z M 124.3 12 C 124.3 5.5 126.5 -0.3 135.3 -0.3 C 143.6 -0.3 146.2 4.1 146.2 11.3 C 146.2 11.3 146.2 34.9 146.2 34.9 C 146.2 41.4 144.1 47.1 135.3 47.1 C 127 47.1 124.3 42.8 124.3 35.6 C 124.3 35.6 124.3 12 124.3 12 Z M 161.1 0.1 L 168.6 0.1 L 178.1 46.7 L 171.7 46.7 L 169.5 34.9 L 159.5 34.9 L 157.3 46.7 L 150.9 46.7 L 161.1 0.1 Z M 160.4 29.4 L 168.6 29.4 L 164.6 7 L 164.5 7 L 160.4 29.4 Z M 184.1 0.1 L 190.6 0.1 L 190.6 41.3 L 201.4 41.3 L 201.4 46.7 L 184.1 46.7 L 184.1 0.1 Z M 212.4 28.5 C 212.4 24.2 213 22 214.8 17.6 C 214.8 17.6 216.2 14.5 216.2 14.5 C 217.4 11.4 217.5 10.8 217.5 7.6 C 217.5 5 217.1 4 215.3 4 C 213.6 4 213.1 5.4 213.1 7.2 C 213.12 7.17 213.1 11.3 213.1 11.3 L 207.1 11.3 C 207.1 11.3 207.05 7.17 207.1 7.2 C 207.1 1.5 210 -0.3 215.3 -0.3 C 221.6 -0.3 223.6 2.4 223.6 8.5 C 223.6 13.3 222.9 14.8 222 16.9 C 222 16.9 220 20.9 220 20.9 C 218.2 24.5 217.4 26.7 217.4 30.9 C 217.45 30.93 217.4 36.2 217.4 36.2 L 212.4 36.2 C 212.4 36.2 212.41 28.47 212.4 28.5 Z M 211.5 40.3 L 218.3 40.3 L 218.3 46.7 L 211.5 46.7 L 211.5 40.3 Z " style="stroke-width:0.54316527179958pt; stroke:#003c71;" fill="#003c71"/>  </g></svg>