<?xml version="1.0" standalone="no"?><!DOCTYPE svg PUBLIC "-//W3C//DTD SVG 1.1//EN" "http://www.w3.org/Graphics/SVG/1.1/DTD/svg11.dtd"><svg xmlns="http://www.w3.org/2000/svg" version="1.1" width="392px" height="143px" viewBox="0 0 392 143">  <desc>References: 1. Craig J, et al. Efficacy and safety of garadacimab, a factor XIIa inhibitor for hereditary angioedema ...</desc>  <defs/>  <g id="Polygon195494">    <path d="M 32.5 110.8 C 32.5 110.8 32.47 109.94 32.5 109.9 C 34.7 106.8 35.4 106.2 35.4 104.9 C 35.4 104.3 35.1 103.9 34.4 103.9 C 33.7 103.9 33.5 104.5 33.5 105.2 C 33.5 105.2 32.5 105.2 32.5 105.2 C 32.4 103.9 33 103.1 34.3 103.1 C 35.7 103.1 36.4 103.7 36.4 105.1 C 36.4 106.8 35.5 107.3 33.6 109.9 C 33.55 109.94 36.6 109.9 36.6 109.9 L 36.6 110.8 L 32.5 110.8 Z M 38.6 110.8 L 37.6 110.8 L 37.6 109.7 L 38.6 109.7 L 38.6 110.8 Z M 44.5 102.9 L 45.7 102.9 L 48.3 110.8 L 47.2 110.8 L 46.6 108.9 L 43.5 108.9 L 43 110.8 L 41.9 110.8 L 44.5 102.9 Z M 45.1 103.8 L 45 103.8 L 43.8 108.1 L 46.3 108.1 L 45.1 103.8 Z M 54.9 102.9 L 54.9 110.8 L 53.5 110.8 L 50.4 103.9 L 50.3 103.9 L 50.3 110.8 L 49.4 110.8 L 49.4 102.9 L 50.9 102.9 L 54 109.7 L 54 109.7 L 54 102.9 L 54.9 102.9 Z M 57.7 109.9 C 57.7 109.9 58.71 109.94 58.7 109.9 C 60.1 109.9 60.6 109.4 60.6 107.6 C 60.6 107.6 60.6 106 60.6 106 C 60.6 104.4 60.1 103.8 59.1 103.8 C 59.08 103.76 57.7 103.8 57.7 103.8 L 57.7 109.9 Z M 56.7 102.9 C 56.7 102.9 59.18 102.88 59.2 102.9 C 60.2 102.9 60.9 103.2 61.3 104.1 C 61.6 104.8 61.7 106.3 61.7 106.6 C 61.7 108.3 61.5 109.3 61.2 109.8 C 60.8 110.5 60 110.8 58.6 110.8 C 58.56 110.82 56.7 110.8 56.7 110.8 L 56.7 102.9 Z M 63.4 110.8 L 63.4 102.9 L 67.5 102.9 L 67.5 103.8 L 64.4 103.8 L 64.4 106.3 L 67.3 106.3 L 67.3 107.2 L 64.4 107.2 L 64.4 109.9 L 67.6 109.9 L 67.6 110.8 L 63.4 110.8 Z M 69.9 110.8 L 68.9 110.8 L 68.9 102.9 L 70.6 102.9 L 72.6 109.5 L 72.6 109.5 L 74.6 102.9 L 76.3 102.9 L 76.3 110.8 L 75.3 110.8 L 75.3 103.8 L 75.3 103.8 L 73.1 110.8 L 72.1 110.8 L 69.9 103.8 L 69.9 103.8 L 69.9 110.8 Z M 79.2 109.9 C 79.2 109.9 80.64 109.94 80.6 109.9 C 81.7 109.9 82.1 109.2 82.1 108.6 C 82.1 107.3 81.3 107.1 80.3 107.1 C 80.29 107.1 79.2 107.1 79.2 107.1 L 79.2 109.9 Z M 79.2 106.2 C 79.2 106.2 80.69 106.22 80.7 106.2 C 81.5 106.2 81.9 105.7 81.9 105 C 81.9 104.3 81.5 103.8 80.6 103.8 C 80.64 103.76 79.2 103.8 79.2 103.8 L 79.2 106.2 Z M 78.2 110.8 L 78.2 102.9 C 78.2 102.9 80.78 102.88 80.8 102.9 C 81.9 102.9 82.3 103.3 82.6 103.7 C 82.8 104.1 82.9 104.6 82.9 104.7 C 82.9 105.7 82.5 106.4 81.5 106.6 C 81.5 106.6 81.5 106.7 81.5 106.7 C 82.6 106.8 83.1 107.5 83.1 108.6 C 83.1 110.6 81.7 110.8 80.8 110.8 C 80.75 110.82 78.2 110.8 78.2 110.8 Z M 85.8 106.3 C 85.8 106.3 87.33 106.29 87.3 106.3 C 88.1 106.3 88.4 105.7 88.4 105 C 88.4 104.4 88.1 103.8 87.3 103.8 C 87.34 103.76 85.8 103.8 85.8 103.8 L 85.8 106.3 Z M 85.8 107.2 L 85.8 110.8 L 84.8 110.8 L 84.8 102.9 C 84.8 102.9 87.54 102.88 87.5 102.9 C 88.9 102.9 89.4 103.9 89.4 104.9 C 89.4 105.8 88.9 106.5 88 106.7 C 88 106.7 88 106.7 88 106.7 C 88.9 106.8 89.2 107.1 89.3 108.7 C 89.3 109.1 89.4 110.3 89.6 110.8 C 89.6 110.8 88.5 110.8 88.5 110.8 C 88.2 110.3 88.3 109.2 88.2 108.2 C 88.1 107.2 87.3 107.2 87 107.2 C 87 107.17 85.8 107.2 85.8 107.2 Z M 94.4 102.9 L 95.4 102.9 L 93.3 107.8 L 93.3 110.8 L 92.3 110.8 L 92.3 107.8 L 90.1 102.9 L 91.3 102.9 L 92.8 106.7 L 94.4 102.9 Z M 100.5 104.8 C 100.5 106.2 99.4 107.3 98.1 107.3 C 96.8 107.3 95.7 106.2 95.7 104.8 C 95.7 103.5 96.8 102.4 98.1 102.4 C 99.4 102.4 100.5 103.5 100.5 104.8 Z M 96.1 104.8 C 96.1 106 97 106.9 98.1 106.9 C 99.3 106.9 100.2 106 100.2 104.8 C 100.2 103.7 99.3 102.8 98.1 102.8 C 97 102.8 96.1 103.7 96.1 104.8 Z M 97.7 106.2 L 97.2 106.2 L 97.2 103.5 C 97.2 103.5 98.32 103.46 98.3 103.5 C 98.8 103.5 99.1 103.8 99.1 104.2 C 99.1 104.5 98.8 104.7 98.5 104.8 C 98.5 104.8 98.5 104.8 98.5 104.8 C 98.8 104.8 99 105 99 105.5 C 99 105.6 99 106.1 99.1 106.2 C 99.1 106.2 98.6 106.2 98.6 106.2 C 98.5 106 98.6 105.7 98.5 105.3 C 98.5 105 98.2 105 98.1 105 C 98.11 105 97.7 105 97.7 105 L 97.7 106.2 Z M 97.7 104.6 C 97.7 104.6 98.24 104.64 98.2 104.6 C 98.5 104.6 98.6 104.4 98.6 104.2 C 98.6 104 98.5 103.8 98.2 103.8 C 98.24 103.77 97.7 103.8 97.7 103.8 L 97.7 104.6 Z M 104.8 108.5 C 104.8 108.5 104.79 108.69 104.8 108.7 C 104.8 109.8 105.5 110.1 106.1 110.1 C 106.9 110.1 107.5 109.8 107.5 108.8 C 107.5 107.1 104 107.3 104 104.9 C 104 103.5 105 102.7 106.3 102.7 C 107.8 102.7 108.6 103.4 108.5 105 C 108.5 105 107.5 105 107.5 105 C 107.5 104.2 107.2 103.6 106.2 103.6 C 105.6 103.6 105 103.9 105 104.8 C 105 106.5 108.6 106.3 108.6 108.8 C 108.6 110.4 107.4 111 106.1 111 C 103.8 111 103.8 109.2 103.8 108.5 C 103.79 108.46 104.8 108.5 104.8 108.5 Z M 112.8 110.8 C 112.8 110.8 112.75 106.97 112.8 107 C 112.8 106.4 112.6 105.9 111.9 105.9 C 111.6 105.9 111.2 106.1 111.1 106.3 C 110.9 106.5 110.9 106.9 110.9 107.1 C 110.88 107.08 110.9 110.8 110.9 110.8 L 110 110.8 C 110 110.8 109.98 106.42 110 106.4 C 110 106 110 105.7 109.9 105.3 C 109.93 105.27 110.9 105.3 110.9 105.3 L 110.9 106 C 110.9 106 110.91 105.96 110.9 106 C 111.2 105.4 111.6 105.2 112.3 105.2 C 112.8 105.2 113.4 105.4 113.6 105.9 C 113.9 105.3 114.4 105.2 114.9 105.2 C 115.5 105.2 116.4 105.3 116.4 106.6 C 116.43 106.6 116.4 110.8 116.4 110.8 L 115.5 110.8 C 115.5 110.8 115.53 106.97 115.5 107 C 115.5 106.4 115.4 105.9 114.6 105.9 C 114.3 105.9 114.2 105.9 114 106.1 C 113.7 106.3 113.7 106.9 113.7 107.1 C 113.66 107.08 113.7 110.8 113.7 110.8 L 112.8 110.8 Z M 119.2 106.4 C 119.2 106.4 120.32 106.44 120.3 106.4 C 120.7 106.4 121.7 106.3 121.7 105.1 C 121.7 103.9 120.8 103.8 120.6 103.8 C 120.61 103.76 119.2 103.8 119.2 103.8 L 119.2 106.4 Z M 118.2 110.8 L 118.2 102.9 C 118.2 102.9 120.55 102.88 120.6 102.9 C 121.6 102.9 122.8 103.3 122.8 105.1 C 122.8 106.9 121.4 107.3 120.5 107.3 C 120.54 107.32 119.2 107.3 119.2 107.3 L 119.2 110.8 L 118.2 110.8 Z M 127.7 105.1 C 127.7 104.6 127.7 104.2 127.5 103.9 C 127.2 103.7 126.8 103.6 126.6 103.6 C 125.7 103.6 125.4 104.1 125.4 104.2 C 125.3 104.3 125.1 104.5 125.1 105.8 C 125.1 105.8 125.1 108 125.1 108 C 125.1 109.9 125.8 110.1 126.5 110.1 C 126.9 110.1 127.8 110 127.8 108.5 C 127.8 108.5 128.8 108.5 128.8 108.5 C 128.9 111 127.1 111 126.6 111 C 125.6 111 124.1 110.9 124.1 107.8 C 124.1 107.8 124.1 105.6 124.1 105.6 C 124.1 103.4 125.1 102.7 126.6 102.7 C 128.2 102.7 128.8 103.5 128.7 105.1 C 128.7 105.1 127.7 105.1 127.7 105.1 Z M 133.9 109.9 C 133.9 109.9 135.28 109.94 135.3 109.9 C 136.4 109.9 136.7 109.2 136.7 108.6 C 136.7 107.3 136 107.1 134.9 107.1 C 134.93 107.1 133.9 107.1 133.9 107.1 L 133.9 109.9 Z M 133.9 106.2 C 133.9 106.2 135.33 106.22 135.3 106.2 C 136.1 106.2 136.5 105.7 136.5 105 C 136.5 104.3 136.1 103.8 135.3 103.8 C 135.28 103.76 133.9 103.8 133.9 103.8 L 133.9 106.2 Z M 132.8 110.8 L 132.8 102.9 C 132.8 102.9 135.43 102.88 135.4 102.9 C 136.5 102.9 136.9 103.3 137.2 103.7 C 137.5 104.1 137.5 104.6 137.5 104.7 C 137.5 105.7 137.2 106.4 136.2 106.6 C 136.2 106.6 136.2 106.7 136.2 106.7 C 137.3 106.8 137.8 107.5 137.8 108.6 C 137.8 110.6 136.3 110.8 135.4 110.8 C 135.39 110.82 132.8 110.8 132.8 110.8 Z M 139.5 110.8 L 139.5 102.9 L 143.6 102.9 L 143.6 103.8 L 140.5 103.8 L 140.5 106.3 L 143.3 106.3 L 143.3 107.2 L 140.5 107.2 L 140.5 109.9 L 143.6 109.9 L 143.6 110.8 L 139.5 110.8 Z M 145 110.8 L 145 102.9 L 146 102.9 L 146 109.9 L 148.9 109.9 L 148.9 110.8 L 145 110.8 Z M 149.8 102.9 L 150.8 102.9 C 150.8 102.9 150.82 107.96 150.8 108 C 150.8 109.7 151.4 110.1 152.3 110.1 C 153.3 110.1 153.8 109.7 153.8 108 C 153.8 107.96 153.8 102.9 153.8 102.9 L 154.8 102.9 C 154.8 102.9 154.81 107.92 154.8 107.9 C 154.8 110.1 154 111 152.3 111 C 150.6 111 149.8 110.1 149.8 107.9 C 149.81 107.92 149.8 102.9 149.8 102.9 Z M 161.7 110.8 L 160.4 110.8 L 158.6 107.4 L 156.8 110.8 L 155.7 110.8 L 158 106.7 L 155.9 102.9 L 157 102.9 L 158.7 106 L 160.3 102.9 L 161.4 102.9 L 159.3 106.7 L 161.7 110.8 Z M 162.7 109.7 L 163.9 109.7 L 162.9 112.2 L 162.2 112.2 L 162.7 109.7 Z M 163.5 106.4 L 162.5 106.4 L 162.5 105.3 L 163.5 105.3 L 163.5 106.4 Z M 171.2 107 C 171.2 109 171.2 111 169.1 111 C 167 111 167.1 109 167.1 107 C 167.1 105 167 103.1 169.1 103.1 C 171.2 103.1 171.2 105 171.2 107 Z M 168.1 107.2 C 168.1 108.5 168 110.1 169.1 110.1 C 170.2 110.1 170.2 108.5 170.2 107.2 C 170.2 105.2 170.2 103.9 169.1 103.9 C 168.1 103.9 168.1 105.2 168.1 107.2 Z M 172 110.8 C 172 110.8 172.03 109.94 172 109.9 C 174.3 106.8 174.9 106.2 174.9 104.9 C 174.9 104.3 174.6 103.9 174 103.9 C 173.2 103.9 173.1 104.5 173.1 105.2 C 173.1 105.2 172.1 105.2 172.1 105.2 C 172 103.9 172.6 103.1 173.9 103.1 C 175.3 103.1 175.9 103.7 175.9 105.1 C 175.9 106.8 175.1 107.3 173.1 109.9 C 173.11 109.94 176.1 109.9 176.1 109.9 L 176.1 110.8 L 172 110.8 Z M 176.9 111.9 L 176.2 111.9 L 178.8 102.9 L 179.5 102.9 L 176.9 111.9 Z M 180 110.8 C 180 110.8 179.97 109.94 180 109.9 C 182.2 106.8 182.9 106.2 182.9 104.9 C 182.9 104.3 182.6 103.9 181.9 103.9 C 181.2 103.9 181 104.5 181 105.2 C 181 105.2 180 105.2 180 105.2 C 179.9 103.9 180.5 103.1 181.8 103.1 C 183.2 103.1 183.9 103.7 183.9 105.1 C 183.9 106.8 183 107.3 181.1 109.9 C 181.05 109.94 184.1 109.9 184.1 109.9 L 184.1 110.8 L 180 110.8 Z M 188.9 107 C 188.9 109 188.9 111 186.8 111 C 184.8 111 184.8 109 184.8 107 C 184.8 105 184.7 103.1 186.8 103.1 C 188.9 103.1 188.9 105 188.9 107 Z M 185.8 107.2 C 185.8 108.5 185.7 110.1 186.8 110.1 C 187.9 110.1 187.9 108.5 187.9 107.2 C 187.9 105.2 187.9 103.9 186.8 103.9 C 185.8 103.9 185.8 105.2 185.8 107.2 Z M 189.7 110.8 C 189.7 110.8 189.74 109.94 189.7 109.9 C 192 106.8 192.6 106.2 192.6 104.9 C 192.6 104.3 192.3 103.9 191.7 103.9 C 190.9 103.9 190.8 104.5 190.8 105.2 C 190.8 105.2 189.8 105.2 189.8 105.2 C 189.7 103.9 190.3 103.1 191.6 103.1 C 193 103.1 193.6 103.7 193.6 105.1 C 193.6 106.8 192.8 107.3 190.8 109.9 C 190.82 109.94 193.8 109.9 193.8 109.9 L 193.8 110.8 L 189.7 110.8 Z M 198.4 103.2 L 198.4 104.1 L 195.8 104.1 L 195.8 106.3 C 195.8 106.3 195.83 106.31 195.8 106.3 C 196 106 196.5 105.7 197 105.7 C 198.1 105.7 198.6 106.6 198.6 108.3 C 198.6 109.5 198.5 111 196.6 111 C 195 111 194.7 110.1 194.7 109.1 C 194.7 109.1 195.7 109.1 195.7 109.1 C 195.7 109.7 195.9 110.3 196.6 110.3 C 197.6 110.3 197.6 109.3 197.6 108.6 C 197.6 107.5 197.6 106.6 196.6 106.6 C 196.1 106.6 195.8 107 195.7 107.5 C 195.71 107.48 194.8 107.5 194.8 107.5 L 194.8 103.2 L 198.4 103.2 Z M 200.8 110.8 L 199.7 110.8 L 199.7 109.7 L 200.8 109.7 L 200.8 110.8 Z " stroke="none" fill="#fff"/>  </g>  <g id="Polygon195493">    <path d="M 42.7 93.2 L 42.7 85.3 L 43.7 85.3 L 43.7 92.3 L 46.6 92.3 L 46.6 93.2 L 42.7 93.2 Z M 48.3 91.5 C 48.3 92.1 48.5 92.6 49.1 92.6 C 49.7 92.6 50.4 92.2 50.3 90.4 C 49.4 90.4 48.3 90.4 48.3 91.5 Z M 50.3 92.4 C 50.3 92.4 50.28 92.39 50.3 92.4 C 50 93 49.6 93.3 48.9 93.3 C 47.7 93.3 47.4 92.5 47.4 91.5 C 47.4 89.8 49 89.7 50.3 89.8 C 50.3 89 50.3 88.2 49.3 88.2 C 48.7 88.2 48.4 88.6 48.5 89.2 C 48.5 89.2 47.5 89.2 47.5 89.2 C 47.5 88 48.2 87.5 49.4 87.5 C 50.8 87.5 51.2 88.3 51.2 89.2 C 51.2 89.2 51.2 91.9 51.2 91.9 C 51.2 92.3 51.2 92.8 51.3 93.2 C 51.29 93.19 50.3 93.2 50.3 93.2 L 50.3 92.4 Z M 56 93.2 C 56 93.2 55.96 89.34 56 89.3 C 56 88.7 55.7 88.3 55 88.3 C 54 88.3 53.8 89.1 53.8 89.9 C 53.84 89.9 53.8 93.2 53.8 93.2 L 52.9 93.2 C 52.9 93.2 52.94 88.79 52.9 88.8 C 52.9 88.4 52.9 88 52.9 87.6 C 52.89 87.64 53.8 87.6 53.8 87.6 L 53.8 88.4 C 53.8 88.4 53.89 88.35 53.9 88.4 C 54.2 87.7 54.7 87.5 55.4 87.5 C 56.6 87.5 56.9 88.2 56.9 89.3 C 56.86 89.34 56.9 93.2 56.9 93.2 L 56 93.2 Z M 61.3 89.4 C 61.4 88.5 60.9 88.3 60.6 88.3 C 59.9 88.3 59.4 88.6 59.4 90.1 C 59.4 91.9 59.6 92.6 60.6 92.6 C 60.8 92.6 61.4 92.3 61.4 91.3 C 61.4 91.3 62.3 91.3 62.3 91.3 C 62.4 92.9 61.2 93.3 60.6 93.3 C 59.4 93.3 58.5 93 58.5 90.5 C 58.5 88.9 58.7 87.5 60.6 87.5 C 61.7 87.5 62.3 88.2 62.3 89.4 C 62.3 89.4 61.3 89.4 61.3 89.4 Z M 67 90 C 67 88.4 66.5 88.2 65.9 88.2 C 65.3 88.2 64.8 88.5 64.8 90 C 64.8 90 67 90 67 90 Z M 64.8 90.7 C 64.8 92.3 65.2 92.6 65.9 92.6 C 66.6 92.6 66.9 92.1 66.9 91.5 C 66.9 91.5 67.9 91.5 67.9 91.5 C 67.9 92.7 67.1 93.3 66 93.3 C 64.8 93.3 63.9 93 63.9 90.5 C 63.9 88.9 64 87.5 66 87.5 C 67.6 87.5 67.9 88.4 67.9 90.2 C 67.95 90.23 67.9 90.7 67.9 90.7 C 67.9 90.7 64.82 90.71 64.8 90.7 Z M 69.5 87.6 L 69.5 86.6 L 70.4 86.2 L 70.4 87.6 L 71.7 87.6 L 71.7 88.3 L 70.4 88.3 C 70.4 88.3 70.44 91.72 70.4 91.7 C 70.4 92.1 70.4 92.5 71.3 92.5 C 71.3 92.5 71.5 92.5 71.7 92.5 C 71.7 92.5 71.7 93.2 71.7 93.2 C 71.4 93.2 71.1 93.3 70.8 93.3 C 69.9 93.3 69.5 92.9 69.5 92.3 C 69.54 92.27 69.5 88.3 69.5 88.3 L 68.6 88.3 L 68.6 87.6 L 69.5 87.6 Z M 73.4 93.2 L 72.4 93.2 L 72.4 92 L 73.4 92 L 73.4 93.2 Z M 77.1 93.2 C 77.1 93.2 77.07 92.31 77.1 92.3 C 79.3 89.2 80 88.6 80 87.3 C 80 86.7 79.7 86.3 79 86.3 C 78.3 86.3 78.1 86.9 78.1 87.5 C 78.1 87.5 77.1 87.5 77.1 87.5 C 77 86.3 77.6 85.4 78.9 85.4 C 80.3 85.4 81 86.1 81 87.4 C 81 89.1 80.1 89.7 78.1 92.3 C 78.14 92.31 81.2 92.3 81.2 92.3 L 81.2 93.2 L 77.1 93.2 Z M 86 89.4 C 86 91.4 86 93.4 83.9 93.4 C 81.9 93.4 81.9 91.4 81.9 89.4 C 81.9 87.4 81.8 85.4 83.9 85.4 C 86 85.4 86 87.4 86 89.4 Z M 82.9 89.6 C 82.9 90.9 82.8 92.5 83.9 92.5 C 85 92.5 85 90.9 85 89.6 C 85 87.5 85 86.3 83.9 86.3 C 82.9 86.3 82.9 87.5 82.9 89.6 Z M 86.8 93.2 C 86.8 93.2 86.83 92.31 86.8 92.3 C 89.1 89.2 89.7 88.6 89.7 87.3 C 89.7 86.7 89.4 86.3 88.8 86.3 C 88 86.3 87.9 86.9 87.9 87.5 C 87.9 87.5 86.9 87.5 86.9 87.5 C 86.8 86.3 87.4 85.4 88.7 85.4 C 90.1 85.4 90.7 86.1 90.7 87.4 C 90.7 89.1 89.9 89.7 87.9 92.3 C 87.91 92.31 90.9 92.3 90.9 92.3 L 90.9 93.2 L 86.8 93.2 Z M 93.1 88.7 C 94 88.8 94.7 88.5 94.7 87.5 C 94.7 86.8 94.4 86.3 93.6 86.3 C 92.8 86.3 92.6 86.9 92.7 87.5 C 92.7 87.5 91.6 87.5 91.6 87.5 C 91.6 86.2 92.2 85.4 93.6 85.4 C 94.9 85.4 95.7 86.1 95.7 87.4 C 95.7 88.9 94.6 89.1 94.2 89.2 C 94.2 89.2 94.2 89.2 94.2 89.2 C 95.4 89.4 95.8 90 95.8 91.2 C 95.8 92.6 95 93.4 93.5 93.4 C 91.4 93.4 91.5 91.5 91.5 91.1 C 91.5 91.1 92.5 91.1 92.5 91.1 C 92.5 91.9 92.7 92.5 93.6 92.5 C 94.5 92.5 94.7 92 94.7 91.1 C 94.7 89.9 94.3 89.6 93.1 89.6 C 93.1 89.6 93.1 88.7 93.1 88.7 Z M 101.3 85.3 L 102.5 85.3 L 105.1 93.2 L 104 93.2 L 103.4 91.3 L 100.4 91.3 L 99.8 93.2 L 98.7 93.2 L 101.3 85.3 Z M 101.9 86.2 L 101.8 86.2 L 100.6 90.4 L 103.1 90.4 L 101.9 86.2 Z M 109.2 90.3 C 109.2 89.5 109.2 88.3 108.1 88.3 C 107 88.3 107.1 89.8 107.1 90.7 C 107.1 91.4 107.1 92.6 108.1 92.6 C 109.1 92.6 109.2 91.8 109.2 90.3 Z M 107.1 88.3 C 107.1 88.3 107.08 88.3 107.1 88.3 C 107.4 87.8 107.8 87.5 108.4 87.5 C 109.3 87.5 110.2 87.9 110.2 90.3 C 110.2 91.7 110.1 93.3 108.3 93.3 C 107.8 93.3 107.4 93.1 107.1 92.6 C 107.09 92.63 107.1 92.6 107.1 92.6 L 107.1 95.3 L 106.2 95.3 L 106.2 87.6 L 107.1 87.6 L 107.1 88.3 Z M 112.5 88.5 C 112.5 88.5 112.54 88.47 112.5 88.5 C 112.9 87.6 113.4 87.5 114.3 87.5 C 114.3 87.5 114.3 88.5 114.3 88.5 C 114.2 88.5 114.1 88.4 114 88.4 C 113.9 88.4 113.9 88.4 113.8 88.4 C 112.8 88.4 112.5 89.2 112.5 89.9 C 112.52 89.91 112.5 93.2 112.5 93.2 L 111.6 93.2 L 111.6 87.6 L 112.5 87.6 L 112.5 88.5 Z M 120.1 93.2 L 119.1 93.2 L 119.1 86.7 L 117.9 87.4 C 117.9 87.4 117.92 86.47 117.9 86.5 C 118.2 86.4 118.9 85.8 119.2 85.6 C 119.21 85.56 120.1 85.6 120.1 85.6 L 120.1 93.2 Z M 122.7 92 L 123.9 92 L 122.9 94.6 L 122.2 94.6 L 122.7 92 Z M 123.5 88.8 L 122.5 88.8 L 122.5 87.6 L 123.5 87.6 L 123.5 88.8 Z M 127 90.5 L 127 86.5 L 127 86.5 L 125.4 90.5 L 127 90.5 Z M 124.5 91.3 L 124.5 90.5 L 126.7 85.6 L 128 85.6 L 128 90.5 L 128.9 90.5 L 128.9 91.3 L 128 91.3 L 128 93.2 L 127 93.2 L 127 91.3 L 124.5 91.3 Z M 133.6 89.4 C 133.6 91.4 133.6 93.4 131.5 93.4 C 129.5 93.4 129.5 91.4 129.5 89.4 C 129.5 87.4 129.5 85.4 131.5 85.4 C 133.6 85.4 133.6 87.4 133.6 89.4 Z M 130.5 89.6 C 130.5 90.9 130.4 92.5 131.5 92.5 C 132.7 92.5 132.6 90.9 132.6 89.6 C 132.6 87.5 132.6 86.3 131.5 86.3 C 130.5 86.3 130.5 87.5 130.5 89.6 Z M 137.2 93.2 L 136.2 93.2 L 136.2 86.7 L 135 87.4 C 135 87.4 135.01 86.47 135 86.5 C 135.3 86.4 136 85.8 136.3 85.6 C 136.3 85.56 137.2 85.6 137.2 85.6 L 137.2 93.2 Z M 140.5 94.5 C 140 92.9 139.4 91.4 139.4 89.7 C 139.4 88 140 86.5 140.5 84.9 C 140.5 84.9 141.2 84.9 141.2 84.9 C 140.8 86.5 140.5 88.1 140.5 89.8 C 140.5 91.4 140.8 93 141.1 94.5 C 141.1 94.5 140.5 94.5 140.5 94.5 Z M 145.1 93.2 L 144.1 93.2 L 144.1 86.7 L 143 87.4 C 143 87.4 142.95 86.47 143 86.5 C 143.2 86.4 143.9 85.8 144.2 85.6 C 144.24 85.56 145.1 85.6 145.1 85.6 L 145.1 93.2 Z M 151.3 89.4 C 151.3 91.4 151.3 93.4 149.3 93.4 C 147.2 93.4 147.2 91.4 147.2 89.4 C 147.2 87.4 147.2 85.4 149.3 85.4 C 151.3 85.4 151.3 87.4 151.3 89.4 Z M 148.2 89.6 C 148.2 90.9 148.1 92.5 149.3 92.5 C 150.4 92.5 150.3 90.9 150.3 89.6 C 150.3 87.5 150.3 86.3 149.3 86.3 C 148.2 86.3 148.2 87.5 148.2 89.6 Z M 153.6 88.7 C 154.5 88.8 155.1 88.5 155.1 87.5 C 155.1 86.8 154.8 86.3 154.1 86.3 C 153.2 86.3 153.1 86.9 153.1 87.5 C 153.1 87.5 152.1 87.5 152.1 87.5 C 152 86.2 152.6 85.4 154.1 85.4 C 155.4 85.4 156.1 86.1 156.1 87.4 C 156.1 88.9 155.1 89.1 154.6 89.2 C 154.6 89.2 154.6 89.2 154.6 89.2 C 155.8 89.4 156.2 90 156.2 91.2 C 156.2 92.6 155.4 93.4 153.9 93.4 C 151.8 93.4 152 91.5 152 91.1 C 152 91.1 153 91.1 153 91.1 C 153 91.9 153.1 92.5 154 92.5 C 154.9 92.5 155.2 92 155.2 91.1 C 155.2 89.9 154.7 89.6 153.6 89.6 C 153.6 89.6 153.6 88.7 153.6 88.7 Z M 160 91.1 C 160 90.5 160 89.6 159 89.6 C 158.1 89.6 158 90.5 158 91.1 C 158 91.8 158.3 92.5 159 92.5 C 159.8 92.5 160 91.8 160 91.1 Z M 159.7 89.2 C 160.8 89.3 161.1 90.1 161.1 91.1 C 161.1 92.5 160.4 93.4 159 93.4 C 157.7 93.4 157 92.5 157 91.1 C 157 90.1 157.3 89.3 158.4 89.2 C 158.4 89.2 158.4 89.1 158.4 89.1 C 157.5 89 157.1 88.2 157.1 87.4 C 157.1 86.2 157.8 85.4 159 85.4 C 160.2 85.4 161 86.2 161 87.4 C 161 88.2 160.6 89 159.7 89.1 C 159.7 89.1 159.7 89.2 159.7 89.2 Z M 160 87.3 C 160 86.7 159.7 86.2 159 86.2 C 158.4 86.2 158.1 86.7 158.1 87.3 C 158.1 87.9 158.3 88.7 159 88.7 C 159.8 88.7 160 87.9 160 87.3 Z M 161.9 93.2 C 161.9 93.2 161.94 92.31 161.9 92.3 C 164.2 89.2 164.8 88.6 164.8 87.3 C 164.8 86.7 164.5 86.3 163.9 86.3 C 163.1 86.3 163 86.9 163 87.5 C 163 87.5 162 87.5 162 87.5 C 161.9 86.3 162.5 85.4 163.8 85.4 C 165.2 85.4 165.8 86.1 165.8 87.4 C 165.8 89.1 165 89.7 163 92.3 C 163.02 92.31 166 92.3 166 92.3 L 166 93.2 L 161.9 93.2 Z M 167.1 94.5 C 167.5 93 167.8 91.4 167.8 89.8 C 167.8 88.1 167.5 86.5 167.1 84.9 C 167.1 84.9 167.8 84.9 167.8 84.9 C 168.3 86.5 168.9 88 168.9 89.7 C 168.9 91.4 168.3 92.9 167.8 94.5 C 167.8 94.5 167.1 94.5 167.1 94.5 Z M 171.1 88.8 L 170.1 88.8 L 170.1 87.6 L 171.1 87.6 L 171.1 88.8 Z M 171.1 93.2 L 170.1 93.2 L 170.1 92 L 171.1 92 L 171.1 93.2 Z M 175 93.2 L 174 93.2 L 174 86.7 L 172.9 87.4 C 172.9 87.4 172.87 86.47 172.9 86.5 C 173.1 86.4 173.9 85.8 174.2 85.6 C 174.16 85.56 175 85.6 175 85.6 L 175 93.2 Z M 181.2 89.4 C 181.2 91.4 181.2 93.4 179.2 93.4 C 177.1 93.4 177.1 91.4 177.1 89.4 C 177.1 87.4 177.1 85.4 179.2 85.4 C 181.3 85.4 181.2 87.4 181.2 89.4 Z M 178.1 89.6 C 178.1 90.9 178.1 92.5 179.2 92.5 C 180.3 92.5 180.2 90.9 180.2 89.6 C 180.2 87.5 180.2 86.3 179.2 86.3 C 178.1 86.3 178.1 87.5 178.1 89.6 Z M 181.9 85.6 L 185.9 85.6 L 185.9 86.4 L 183.9 93.2 L 182.7 93.2 L 184.9 86.4 L 181.9 86.4 L 181.9 85.6 Z M 187.9 87.8 C 187.9 88.5 188.1 89.3 188.9 89.3 C 189.8 89.3 190 88.5 190 87.8 C 190 87.1 189.8 86.2 188.9 86.2 C 188.1 86.2 187.9 87.1 187.9 87.8 Z M 191 89.4 C 191 91.4 191 93.4 188.9 93.4 C 187.8 93.4 187 92.6 187.1 91.4 C 187.1 91.4 188.1 91.4 188.1 91.4 C 188.1 91.9 188.3 92.5 188.9 92.5 C 189.9 92.5 190 91.4 190 89.5 C 190 89.5 190 89.5 190 89.5 C 189.7 90 189.2 90.2 188.6 90.2 C 188 90.2 186.9 89.9 186.9 87.8 C 186.9 86.1 187.9 85.4 188.9 85.4 C 191 85.4 191 87.4 191 89.4 Z M 192 89.8 L 194.4 89.8 L 194.4 90.6 L 192 90.6 L 192 89.8 Z M 198.2 93.2 L 197.2 93.2 L 197.2 86.7 L 196.1 87.4 C 196.1 87.4 196.07 86.47 196.1 86.5 C 196.3 86.4 197.1 85.8 197.4 85.6 C 197.36 85.56 198.2 85.6 198.2 85.6 L 198.2 93.2 Z M 204.4 89.4 C 204.4 91.4 204.4 93.4 202.4 93.4 C 200.3 93.4 200.3 91.4 200.3 89.4 C 200.3 87.4 200.3 85.4 202.4 85.4 C 204.5 85.4 204.4 87.4 204.4 89.4 Z M 201.3 89.6 C 201.3 90.9 201.3 92.5 202.4 92.5 C 203.5 92.5 203.4 90.9 203.4 89.6 C 203.4 87.5 203.4 86.3 202.4 86.3 C 201.3 86.3 201.3 87.5 201.3 89.6 Z M 206.2 87.8 C 206.2 88.5 206.4 89.3 207.2 89.3 C 208.1 89.3 208.3 88.5 208.3 87.8 C 208.3 87.1 208.1 86.2 207.2 86.2 C 206.4 86.2 206.2 87.1 206.2 87.8 Z M 209.3 89.4 C 209.3 91.4 209.3 93.4 207.2 93.4 C 206.1 93.4 205.3 92.6 205.4 91.4 C 205.4 91.4 206.4 91.4 206.4 91.4 C 206.4 91.9 206.6 92.5 207.2 92.5 C 208.2 92.5 208.3 91.4 208.3 89.5 C 208.3 89.5 208.3 89.5 208.3 89.5 C 208 90 207.5 90.2 207 90.2 C 206.4 90.2 205.2 89.9 205.2 87.8 C 205.2 86.1 206.2 85.4 207.2 85.4 C 209.3 85.4 209.3 87.4 209.3 89.4 Z M 214.2 89.4 C 214.2 91.4 214.2 93.4 212.1 93.4 C 210.1 93.4 210.1 91.4 210.1 89.4 C 210.1 87.4 210.1 85.4 212.1 85.4 C 214.2 85.4 214.2 87.4 214.2 89.4 Z M 211.1 89.6 C 211.1 90.9 211 92.5 212.1 92.5 C 213.3 92.5 213.2 90.9 213.2 89.6 C 213.2 87.5 213.2 86.3 212.1 86.3 C 211.1 86.3 211.1 87.5 211.1 89.6 Z M 216.3 93.2 L 215.3 93.2 L 215.3 92 L 216.3 92 L 216.3 93.2 Z " stroke="none" fill="#fff"/>  </g>  <g id="Polygon195492">    <path d="M 45.3 80 C 45.3 80 45.29 76.14 45.3 76.1 C 45.3 75.6 45.1 75.1 44.4 75.1 C 44.1 75.1 43.8 75.2 43.6 75.4 C 43.5 75.7 43.4 76 43.4 76.3 C 43.42 76.25 43.4 80 43.4 80 L 42.5 80 C 42.5 80 42.52 75.59 42.5 75.6 C 42.5 75.2 42.5 74.8 42.5 74.4 C 42.46 74.44 43.4 74.4 43.4 74.4 L 43.4 75.1 C 43.4 75.1 43.44 75.13 43.4 75.1 C 43.7 74.5 44.2 74.3 44.8 74.3 C 45.3 74.3 45.9 74.5 46.1 75 C 46.4 74.4 46.9 74.3 47.4 74.3 C 48 74.3 49 74.5 49 75.8 C 48.96 75.77 49 80 49 80 L 48.1 80 C 48.1 80 48.06 76.14 48.1 76.1 C 48.1 75.6 47.9 75.1 47.2 75.1 C 46.8 75.1 46.7 75.1 46.5 75.3 C 46.2 75.5 46.2 76 46.2 76.3 C 46.19 76.25 46.2 80 46.2 80 L 45.3 80 Z M 53.5 74.4 L 54.4 74.4 C 54.4 74.4 54.37 78.84 54.4 78.8 C 54.4 79.2 54.4 79.6 54.4 80 C 54.43 79.99 53.5 80 53.5 80 L 53.5 79.3 C 53.5 79.3 53.44 79.32 53.4 79.3 C 53.1 79.8 52.6 80.1 52 80.1 C 51.1 80.1 50.5 79.6 50.5 78.7 C 50.54 78.67 50.5 74.4 50.5 74.4 L 51.4 74.4 C 51.4 74.4 51.44 78.29 51.4 78.3 C 51.4 79 51.7 79.4 52.4 79.4 C 52.9 79.4 53.5 79 53.5 78.1 C 53.47 78.12 53.5 74.4 53.5 74.4 Z M 56.9 80 L 56 80 L 56 72.1 L 56.9 72.1 L 56.9 80 Z M 58.5 74.4 L 58.5 73.4 L 59.4 73 L 59.4 74.4 L 60.7 74.4 L 60.7 75.1 L 59.4 75.1 C 59.4 75.1 59.44 78.52 59.4 78.5 C 59.4 78.9 59.4 79.3 60.3 79.3 C 60.3 79.3 60.5 79.3 60.7 79.3 C 60.7 79.3 60.7 80 60.7 80 C 60.4 80 60.1 80.1 59.8 80.1 C 58.9 80.1 58.5 79.7 58.5 79.1 C 58.54 79.07 58.5 75.1 58.5 75.1 L 57.6 75.1 L 57.6 74.4 L 58.5 74.4 Z M 62.4 80 L 61.5 80 L 61.5 74.4 L 62.4 74.4 L 62.4 80 Z M 61.4 72.1 L 62.4 72.1 L 62.4 73 L 61.4 73 L 61.4 72.1 Z M 66.8 76.2 C 66.9 75.3 66.4 75.1 66.1 75.1 C 65.4 75.1 64.9 75.4 64.9 76.9 C 64.9 78.7 65.1 79.4 66.1 79.4 C 66.3 79.4 66.9 79.1 66.9 78.1 C 66.9 78.1 67.8 78.1 67.8 78.1 C 67.9 79.7 66.7 80.1 66.1 80.1 C 64.9 80.1 64 79.8 64 77.3 C 64 75.7 64.2 74.3 66.1 74.3 C 67.2 74.3 67.8 75 67.8 76.2 C 67.8 76.2 66.8 76.2 66.8 76.2 Z M 72.5 76.8 C 72.5 75.2 72 75 71.4 75 C 70.8 75 70.3 75.3 70.3 76.8 C 70.3 76.8 72.5 76.8 72.5 76.8 Z M 70.3 77.5 C 70.3 79.1 70.7 79.4 71.4 79.4 C 72.1 79.4 72.4 78.9 72.4 78.3 C 72.4 78.3 73.4 78.3 73.4 78.3 C 73.4 79.5 72.6 80.1 71.5 80.1 C 70.3 80.1 69.4 79.8 69.4 77.3 C 69.4 75.7 69.5 74.3 71.5 74.3 C 73.1 74.3 73.4 75.2 73.4 77 C 73.45 77.03 73.4 77.5 73.4 77.5 C 73.4 77.5 70.32 77.51 70.3 77.5 Z M 78 80 C 78 80 77.96 76.14 78 76.1 C 78 75.5 77.7 75.1 77 75.1 C 76 75.1 75.8 75.9 75.8 76.7 C 75.84 76.7 75.8 80 75.8 80 L 74.9 80 C 74.9 80 74.94 75.59 74.9 75.6 C 74.9 75.2 74.9 74.8 74.9 74.4 C 74.89 74.44 75.8 74.4 75.8 74.4 L 75.8 75.2 C 75.8 75.2 75.89 75.15 75.9 75.2 C 76.2 74.5 76.7 74.3 77.4 74.3 C 78.6 74.3 78.9 75 78.9 76.1 C 78.86 76.14 78.9 80 78.9 80 L 78 80 Z M 80.5 74.4 L 80.5 73.4 L 81.4 73 L 81.4 74.4 L 82.7 74.4 L 82.7 75.1 L 81.4 75.1 C 81.4 75.1 81.44 78.52 81.4 78.5 C 81.4 78.9 81.4 79.3 82.3 79.3 C 82.3 79.3 82.5 79.3 82.7 79.3 C 82.7 79.3 82.7 80 82.7 80 C 82.4 80 82.1 80.1 81.8 80.1 C 80.9 80.1 80.5 79.7 80.5 79.1 C 80.54 79.07 80.5 75.1 80.5 75.1 L 79.6 75.1 L 79.6 74.4 L 80.5 74.4 Z M 84.4 75.3 C 84.4 75.3 84.46 75.27 84.5 75.3 C 84.8 74.4 85.3 74.3 86.2 74.3 C 86.2 74.3 86.2 75.3 86.2 75.3 C 86.1 75.3 86 75.2 85.9 75.2 C 85.9 75.2 85.8 75.2 85.7 75.2 C 84.7 75.2 84.4 76 84.4 76.7 C 84.44 76.71 84.4 80 84.4 80 L 83.5 80 L 83.5 74.4 L 84.4 74.4 L 84.4 75.3 Z M 90.2 76.8 C 90.2 75.2 89.8 75 89.1 75 C 88.5 75 88.1 75.3 88 76.8 C 88 76.8 90.2 76.8 90.2 76.8 Z M 88 77.5 C 88 79.1 88.5 79.4 89.2 79.4 C 89.8 79.4 90.1 78.9 90.1 78.3 C 90.1 78.3 91.1 78.3 91.1 78.3 C 91.1 79.5 90.4 80.1 89.2 80.1 C 88 80.1 87.1 79.8 87.1 77.3 C 87.1 75.7 87.3 74.3 89.2 74.3 C 90.8 74.3 91.2 75.2 91.2 77 C 91.17 77.03 91.2 77.5 91.2 77.5 C 91.2 77.5 88.04 77.51 88 77.5 Z M 92.8 78.8 L 94 78.8 L 93 81.4 L 92.2 81.4 L 92.8 78.8 Z M 98.5 75.3 C 98.5 75.3 98.5 75.27 98.5 75.3 C 98.9 74.4 99.3 74.3 100.2 74.3 C 100.2 74.3 100.2 75.3 100.2 75.3 C 100.1 75.3 100.1 75.2 100 75.2 C 99.9 75.2 99.8 75.2 99.7 75.2 C 98.7 75.2 98.5 76 98.5 76.7 C 98.48 76.71 98.5 80 98.5 80 L 97.6 80 L 97.6 74.4 L 98.5 74.4 L 98.5 75.3 Z M 102 78.3 C 102 78.9 102.3 79.4 102.9 79.4 C 103.5 79.4 104.1 79 104 77.2 C 103.2 77.2 102 77.2 102 78.3 Z M 104.1 79.2 C 104.1 79.2 104.05 79.19 104 79.2 C 103.8 79.8 103.3 80.1 102.7 80.1 C 101.5 80.1 101.1 79.3 101.1 78.3 C 101.1 76.6 102.8 76.5 104 76.6 C 104.1 75.8 104.1 75 103.1 75 C 102.5 75 102.2 75.4 102.2 76 C 102.2 76 101.3 76 101.3 76 C 101.3 74.8 102 74.3 103.1 74.3 C 104.6 74.3 104.9 75.1 104.9 76 C 104.9 76 104.9 78.7 104.9 78.7 C 104.9 79.1 105 79.6 105.1 80 C 105.06 79.99 104.1 80 104.1 80 L 104.1 79.2 Z M 109.7 80 C 109.7 80 109.73 76.14 109.7 76.1 C 109.7 75.5 109.5 75.1 108.7 75.1 C 107.8 75.1 107.6 75.9 107.6 76.7 C 107.61 76.7 107.6 80 107.6 80 L 106.7 80 C 106.7 80 106.71 75.59 106.7 75.6 C 106.7 75.2 106.7 74.8 106.7 74.4 C 106.66 74.44 107.6 74.4 107.6 74.4 L 107.6 75.2 C 107.6 75.2 107.66 75.15 107.7 75.2 C 108 74.5 108.4 74.3 109.1 74.3 C 110.3 74.3 110.6 75 110.6 76.1 C 110.63 76.14 110.6 80 110.6 80 L 109.7 80 Z M 114.1 75.1 C 113.1 75.1 113 75.8 113 77.3 C 113 78.2 113 79.4 114.1 79.4 C 115.1 79.4 115.1 78.1 115.1 77 C 115.1 76.3 115.1 75.1 114.1 75.1 Z M 115.1 72.1 L 116 72.1 L 116 80 L 115.1 80 L 115.1 79.3 C 115.1 79.3 115.13 79.33 115.1 79.3 C 114.8 79.8 114.4 80.1 113.8 80.1 C 113 80.1 112.1 79.8 112.1 77.3 C 112.1 75.9 112.1 74.3 113.9 74.3 C 114.4 74.3 114.8 74.6 115.1 75 C 115.12 75 115.1 75 115.1 75 L 115.1 72.1 Z M 120.8 76.9 C 120.8 75.4 120.4 75.1 119.7 75.1 C 119 75.1 118.5 75.4 118.5 76.9 C 118.5 78.7 118.7 79.4 119.7 79.4 C 120.6 79.4 120.8 78.7 120.8 76.9 Z M 117.6 77.3 C 117.6 75.7 117.7 74.3 119.7 74.3 C 121.6 74.3 121.8 75.7 121.8 77.3 C 121.8 79.8 120.8 80.1 119.7 80.1 C 118.5 80.1 117.6 79.8 117.6 77.3 Z M 125.9 80 C 125.9 80 125.94 76.14 125.9 76.1 C 125.9 75.6 125.8 75.1 125.1 75.1 C 124.8 75.1 124.4 75.2 124.3 75.4 C 124.1 75.7 124.1 76 124.1 76.3 C 124.07 76.25 124.1 80 124.1 80 L 123.2 80 C 123.2 80 123.17 75.59 123.2 75.6 C 123.2 75.2 123.1 74.8 123.1 74.4 C 123.11 74.44 124.1 74.4 124.1 74.4 L 124.1 75.1 C 124.1 75.1 124.09 75.13 124.1 75.1 C 124.4 74.5 124.8 74.3 125.5 74.3 C 126 74.3 126.6 74.5 126.8 75 C 127.1 74.4 127.6 74.3 128.1 74.3 C 128.7 74.3 129.6 74.5 129.6 75.8 C 129.61 75.77 129.6 80 129.6 80 L 128.7 80 C 128.7 80 128.71 76.14 128.7 76.1 C 128.7 75.6 128.6 75.1 127.8 75.1 C 127.5 75.1 127.4 75.1 127.1 75.3 C 126.9 75.5 126.8 76 126.8 76.3 C 126.84 76.25 126.8 80 126.8 80 L 125.9 80 Z M 132 80 L 131.1 80 L 131.1 74.4 L 132 74.4 L 132 80 Z M 131.1 72.1 L 132.1 72.1 L 132.1 73 L 131.1 73 L 131.1 72.1 Z M 135.2 80.1 C 134 80.1 133.3 79.6 133.3 78.3 C 133.3 78.3 134.3 78.3 134.3 78.3 C 134.3 78.6 134.4 79.4 135.3 79.4 C 135.8 79.4 136.2 79.1 136.2 78.5 C 136.2 77.5 133.5 77.5 133.5 75.8 C 133.5 75.3 133.8 74.3 135.4 74.3 C 136.4 74.3 137.2 74.8 137.1 75.9 C 137.1 75.9 136.1 75.9 136.1 75.9 C 136.1 75.3 135.8 75 135.3 75 C 134.8 75 134.4 75.3 134.4 75.8 C 134.4 76.7 137.2 76.7 137.2 78.4 C 137.2 79.6 136.3 80.1 135.2 80.1 Z M 141.5 76.8 C 141.5 75.2 141.1 75 140.4 75 C 139.8 75 139.4 75.3 139.4 76.8 C 139.4 76.8 141.5 76.8 141.5 76.8 Z M 139.4 77.5 C 139.4 79.1 139.8 79.4 140.5 79.4 C 141.1 79.4 141.4 78.9 141.4 78.3 C 141.4 78.3 142.4 78.3 142.4 78.3 C 142.4 79.5 141.7 80.1 140.5 80.1 C 139.3 80.1 138.4 79.8 138.4 77.3 C 138.4 75.7 138.6 74.3 140.5 74.3 C 142.1 74.3 142.5 75.2 142.5 77 C 142.48 77.03 142.5 77.5 142.5 77.5 C 142.5 77.5 139.36 77.51 139.4 77.5 Z M 145.9 75.1 C 144.9 75.1 144.8 75.8 144.8 77.3 C 144.8 78.2 144.8 79.4 145.9 79.4 C 146.9 79.4 146.9 78.1 146.9 77 C 146.9 76.3 146.9 75.1 145.9 75.1 Z M 146.9 72.1 L 147.8 72.1 L 147.8 80 L 146.9 80 L 146.9 79.3 C 146.9 79.3 146.89 79.33 146.9 79.3 C 146.6 79.8 146.2 80.1 145.6 80.1 C 144.7 80.1 143.8 79.8 143.8 77.3 C 143.8 75.9 143.9 74.3 145.7 74.3 C 146.2 74.3 146.6 74.6 146.9 75 C 146.88 75 146.9 75 146.9 75 L 146.9 72.1 Z M 149.6 78.8 L 150.8 78.8 L 149.8 81.4 L 149.1 81.4 L 149.6 78.8 Z M 156.3 75.1 C 155.3 75.1 155.2 75.8 155.2 77.3 C 155.2 78.2 155.2 79.4 156.3 79.4 C 157.3 79.4 157.3 78.1 157.3 77 C 157.3 76.3 157.3 75.1 156.3 75.1 Z M 157.3 72.1 L 158.2 72.1 L 158.2 80 L 157.3 80 L 157.3 79.3 C 157.3 79.3 157.28 79.33 157.3 79.3 C 157 79.8 156.6 80.1 156 80.1 C 155.1 80.1 154.2 79.8 154.2 77.3 C 154.2 75.9 154.3 74.3 156 74.3 C 156.6 74.3 157 74.6 157.3 75 C 157.27 75 157.3 75 157.3 75 L 157.3 72.1 Z M 163 76.9 C 163 75.4 162.5 75.1 161.8 75.1 C 161.1 75.1 160.7 75.4 160.7 76.9 C 160.7 78.7 160.9 79.4 161.8 79.4 C 162.8 79.4 163 78.7 163 76.9 Z M 159.7 77.3 C 159.7 75.7 159.9 74.3 161.8 74.3 C 163.7 74.3 163.9 75.7 163.9 77.3 C 163.9 79.8 163 80.1 161.8 80.1 C 160.6 80.1 159.7 79.8 159.7 77.3 Z M 168.3 74.4 L 169.2 74.4 C 169.2 74.4 169.23 78.84 169.2 78.8 C 169.2 79.2 169.3 79.6 169.3 80 C 169.29 79.99 168.3 80 168.3 80 L 168.3 79.3 C 168.3 79.3 168.3 79.32 168.3 79.3 C 168 79.8 167.5 80.1 166.9 80.1 C 165.9 80.1 165.4 79.6 165.4 78.7 C 165.4 78.67 165.4 74.4 165.4 74.4 L 166.3 74.4 C 166.3 74.4 166.3 78.29 166.3 78.3 C 166.3 79 166.6 79.4 167.2 79.4 C 167.7 79.4 168.3 79 168.3 78.1 C 168.33 78.12 168.3 74.4 168.3 74.4 Z M 172.9 79.4 C 174 79.4 174 78.2 174 77.3 C 174 75.8 173.9 75.1 172.9 75.1 C 171.9 75.1 171.8 76.3 171.8 77 C 171.8 77.8 171.7 79.4 172.9 79.4 Z M 171.8 80 L 170.9 80 L 170.9 72.1 L 171.8 72.1 L 171.8 75 C 171.8 75 171.87 75 171.9 75 C 172.2 74.6 172.6 74.3 173.1 74.3 C 174.9 74.3 174.9 75.9 174.9 77.3 C 174.9 79.8 174 80.1 173.1 80.1 C 172.6 80.1 172.2 79.8 171.9 79.3 C 171.86 79.33 171.8 79.3 171.8 79.3 L 171.8 80 Z M 177.2 80 L 176.3 80 L 176.3 72.1 L 177.2 72.1 L 177.2 80 Z M 181.9 76.8 C 181.9 75.2 181.4 75 180.7 75 C 180.2 75 179.7 75.3 179.7 76.8 C 179.7 76.8 181.9 76.8 181.9 76.8 Z M 179.7 77.5 C 179.7 79.1 180.1 79.4 180.8 79.4 C 181.4 79.4 181.7 78.9 181.8 78.3 C 181.8 78.3 182.8 78.3 182.8 78.3 C 182.8 79.5 182 80.1 180.8 80.1 C 179.6 80.1 178.7 79.8 178.7 77.3 C 178.7 75.7 178.9 74.3 180.8 74.3 C 182.4 74.3 182.8 75.2 182.8 77 C 182.81 77.03 182.8 77.5 182.8 77.5 C 182.8 77.5 179.68 77.51 179.7 77.5 Z M 184.1 76.6 L 186.5 76.6 L 186.5 77.4 L 184.1 77.4 L 184.1 76.6 Z M 190 79.4 C 191.1 79.4 191.1 78.2 191.1 77.3 C 191.1 75.8 191 75.1 190 75.1 C 189 75.1 188.9 76.3 188.9 77 C 188.9 77.8 188.8 79.4 190 79.4 Z M 188.9 80 L 188 80 L 188 72.1 L 188.9 72.1 L 188.9 75 C 188.9 75 188.98 75 189 75 C 189.3 74.6 189.7 74.3 190.2 74.3 C 192 74.3 192 75.9 192 77.3 C 192 79.8 191.1 80.1 190.2 80.1 C 189.7 80.1 189.3 79.8 189 79.3 C 188.97 79.33 188.9 79.3 188.9 79.3 L 188.9 80 Z M 194.3 80 L 193.4 80 L 193.4 72.1 L 194.3 72.1 L 194.3 80 Z M 196.8 80 L 195.9 80 L 195.9 74.4 L 196.8 74.4 L 196.8 80 Z M 195.8 72.1 L 196.8 72.1 L 196.8 73 L 195.8 73 L 195.8 72.1 Z M 201.4 80 C 201.4 80 201.36 76.14 201.4 76.1 C 201.4 75.5 201.2 75.1 200.4 75.1 C 199.4 75.1 199.3 75.9 199.3 76.7 C 199.25 76.7 199.3 80 199.3 80 L 198.4 80 C 198.4 80 198.35 75.59 198.4 75.6 C 198.4 75.2 198.3 74.8 198.3 74.4 C 198.3 74.44 199.3 74.4 199.3 74.4 L 199.3 75.2 C 199.3 75.2 199.3 75.15 199.3 75.2 C 199.6 74.5 200.1 74.3 200.8 74.3 C 202 74.3 202.3 75 202.3 76.1 C 202.27 76.14 202.3 80 202.3 80 L 201.4 80 Z M 205.7 75.1 C 204.8 75.1 204.6 75.8 204.6 77.3 C 204.6 78.2 204.6 79.4 205.8 79.4 C 206.8 79.4 206.8 78.1 206.8 77 C 206.8 76.3 206.7 75.1 205.7 75.1 Z M 206.8 72.1 L 207.7 72.1 L 207.7 80 L 206.8 80 L 206.8 79.3 C 206.8 79.3 206.77 79.33 206.8 79.3 C 206.5 79.8 206.1 80.1 205.5 80.1 C 204.6 80.1 203.7 79.8 203.7 77.3 C 203.7 75.9 203.7 74.3 205.5 74.3 C 206.1 74.3 206.4 74.6 206.8 75 C 206.75 75 206.8 75 206.8 75 L 206.8 72.1 Z M 209.5 78.8 L 210.6 78.8 L 209.6 81.4 L 208.9 81.4 L 209.5 78.8 Z M 217.4 77.1 C 217.4 76.3 217.4 75.1 216.2 75.1 C 215.1 75.1 215.2 76.6 215.2 77.5 C 215.2 78.2 215.3 79.4 216.3 79.4 C 217.2 79.4 217.4 78.6 217.4 77.1 Z M 215.2 75.1 C 215.2 75.1 215.23 75.1 215.2 75.1 C 215.5 74.6 215.9 74.3 216.5 74.3 C 217.4 74.3 218.3 74.7 218.3 77.1 C 218.3 78.5 218.3 80.1 216.5 80.1 C 215.9 80.1 215.6 79.9 215.2 79.4 C 215.25 79.43 215.2 79.4 215.2 79.4 L 215.2 82.1 L 214.3 82.1 L 214.3 74.4 L 215.2 74.4 L 215.2 75.1 Z M 220.6 80 L 219.7 80 L 219.7 72.1 L 220.6 72.1 L 220.6 80 Z M 223 78.3 C 223 78.9 223.3 79.4 223.9 79.4 C 224.4 79.4 225.1 79 225 77.2 C 224.2 77.2 223 77.2 223 78.3 Z M 225 79.2 C 225 79.2 225.01 79.19 225 79.2 C 224.7 79.8 224.3 80.1 223.6 80.1 C 222.4 80.1 222.1 79.3 222.1 78.3 C 222.1 76.6 223.7 76.5 225 76.6 C 225 75.8 225 75 224.1 75 C 223.5 75 223.2 75.4 223.2 76 C 223.2 76 222.2 76 222.2 76 C 222.3 74.8 222.9 74.3 224.1 74.3 C 225.5 74.3 225.9 75.1 225.9 76 C 225.9 76 225.9 78.7 225.9 78.7 C 225.9 79.1 226 79.6 226 80 C 226.02 79.99 225 80 225 80 L 225 79.2 Z M 230.6 76.2 C 230.6 75.3 230.2 75.1 229.8 75.1 C 229.1 75.1 228.6 75.4 228.6 76.9 C 228.6 78.7 228.9 79.4 229.8 79.4 C 230 79.4 230.6 79.1 230.6 78.1 C 230.6 78.1 231.6 78.1 231.6 78.1 C 231.6 79.7 230.4 80.1 229.8 80.1 C 228.6 80.1 227.7 79.8 227.7 77.3 C 227.7 75.7 227.9 74.3 229.8 74.3 C 230.9 74.3 231.6 75 231.5 76.2 C 231.5 76.2 230.6 76.2 230.6 76.2 Z M 236.2 76.8 C 236.2 75.2 235.8 75 235.1 75 C 234.5 75 234.1 75.3 234.1 76.8 C 234.1 76.8 236.2 76.8 236.2 76.8 Z M 234.1 77.5 C 234.1 79.1 234.5 79.4 235.2 79.4 C 235.8 79.4 236.1 78.9 236.1 78.3 C 236.1 78.3 237.1 78.3 237.1 78.3 C 237.1 79.5 236.4 80.1 235.2 80.1 C 234 80.1 233.1 79.8 233.1 77.3 C 233.1 75.7 233.3 74.3 235.2 74.3 C 236.8 74.3 237.2 75.2 237.2 77 C 237.18 77.03 237.2 77.5 237.2 77.5 C 237.2 77.5 234.05 77.51 234.1 77.5 Z M 240.7 79.4 C 241.8 79.4 241.8 78.2 241.8 77.3 C 241.8 75.8 241.7 75.1 240.7 75.1 C 239.7 75.1 239.7 76.3 239.7 77 C 239.7 77.8 239.6 79.4 240.7 79.4 Z M 239.7 80 L 238.8 80 L 238.8 72.1 L 239.7 72.1 L 239.7 75 C 239.7 75 239.69 75 239.7 75 C 240 74.6 240.4 74.3 240.9 74.3 C 242.7 74.3 242.7 75.9 242.7 77.3 C 242.7 79.8 241.8 80.1 241 80.1 C 240.4 80.1 240 79.8 239.7 79.3 C 239.68 79.33 239.7 79.3 239.7 79.3 L 239.7 80 Z M 247.3 76.9 C 247.3 75.4 246.8 75.1 246.1 75.1 C 245.4 75.1 245 75.4 245 76.9 C 245 78.7 245.2 79.4 246.1 79.4 C 247.1 79.4 247.3 78.7 247.3 76.9 Z M 244 77.3 C 244 75.7 244.2 74.3 246.1 74.3 C 248.1 74.3 248.2 75.7 248.2 77.3 C 248.2 79.8 247.3 80.1 246.1 80.1 C 245 80.1 244 79.8 244 77.3 Z M 249.5 76.6 L 251.9 76.6 L 251.9 77.4 L 249.5 77.4 L 249.5 76.6 Z M 256.2 76.2 C 256.3 75.3 255.8 75.1 255.5 75.1 C 254.8 75.1 254.3 75.4 254.3 76.9 C 254.3 78.7 254.5 79.4 255.5 79.4 C 255.7 79.4 256.3 79.1 256.3 78.1 C 256.3 78.1 257.2 78.1 257.2 78.1 C 257.3 79.7 256.1 80.1 255.5 80.1 C 254.3 80.1 253.4 79.8 253.4 77.3 C 253.4 75.7 253.5 74.3 255.5 74.3 C 256.6 74.3 257.2 75 257.2 76.2 C 257.2 76.2 256.2 76.2 256.2 76.2 Z M 262 76.9 C 262 75.4 261.5 75.1 260.8 75.1 C 260.1 75.1 259.6 75.4 259.6 76.9 C 259.6 78.7 259.9 79.4 260.8 79.4 C 261.7 79.4 262 78.7 262 76.9 Z M 258.7 77.3 C 258.7 75.7 258.9 74.3 260.8 74.3 C 262.7 74.3 262.9 75.7 262.9 77.3 C 262.9 79.8 262 80.1 260.8 80.1 C 259.6 80.1 258.7 79.8 258.7 77.3 Z M 267.4 80 C 267.4 80 267.35 76.14 267.4 76.1 C 267.4 75.5 267.1 75.1 266.4 75.1 C 265.4 75.1 265.2 75.9 265.2 76.7 C 265.24 76.7 265.2 80 265.2 80 L 264.3 80 C 264.3 80 264.34 75.59 264.3 75.6 C 264.3 75.2 264.3 74.8 264.3 74.4 C 264.28 74.44 265.2 74.4 265.2 74.4 L 265.2 75.2 C 265.2 75.2 265.28 75.15 265.3 75.2 C 265.6 74.5 266.1 74.3 266.8 74.3 C 268 74.3 268.3 75 268.3 76.1 C 268.25 76.14 268.3 80 268.3 80 L 267.4 80 Z M 269.9 74.4 L 269.9 73.4 L 270.8 73 L 270.8 74.4 L 272 74.4 L 272 75.1 L 270.8 75.1 C 270.8 75.1 270.84 78.52 270.8 78.5 C 270.8 78.9 270.8 79.3 271.7 79.3 C 271.7 79.3 271.9 79.3 272.1 79.3 C 272.1 79.3 272.1 80 272.1 80 C 271.8 80 271.5 80.1 271.2 80.1 C 270.3 80.1 269.9 79.7 269.9 79.1 C 269.94 79.07 269.9 75.1 269.9 75.1 L 269 75.1 L 269 74.4 L 269.9 74.4 Z M 273.8 75.3 C 273.8 75.3 273.85 75.27 273.9 75.3 C 274.2 74.4 274.7 74.3 275.6 74.3 C 275.6 74.3 275.6 75.3 275.6 75.3 C 275.5 75.3 275.4 75.2 275.3 75.2 C 275.2 75.2 275.2 75.2 275.1 75.2 C 274.1 75.2 273.8 76 273.8 76.7 C 273.83 76.71 273.8 80 273.8 80 L 272.9 80 L 272.9 74.4 L 273.8 74.4 L 273.8 75.3 Z M 279.7 76.9 C 279.7 75.4 279.2 75.1 278.5 75.1 C 277.8 75.1 277.4 75.4 277.4 76.9 C 277.4 78.7 277.6 79.4 278.5 79.4 C 279.5 79.4 279.7 78.7 279.7 76.9 Z M 276.4 77.3 C 276.4 75.7 276.6 74.3 278.5 74.3 C 280.4 74.3 280.6 75.7 280.6 77.3 C 280.6 79.8 279.7 80.1 278.5 80.1 C 277.3 80.1 276.4 79.8 276.4 77.3 Z M 282.9 80 L 282 80 L 282 72.1 L 282.9 72.1 L 282.9 80 Z M 285.4 80 L 284.5 80 L 284.5 72.1 L 285.4 72.1 L 285.4 80 Z M 290 76.8 C 290 75.2 289.5 75 288.9 75 C 288.3 75 287.8 75.3 287.8 76.8 C 287.8 76.8 290 76.8 290 76.8 Z M 287.8 77.5 C 287.8 79.1 288.2 79.4 288.9 79.4 C 289.6 79.4 289.9 78.9 289.9 78.3 C 289.9 78.3 290.9 78.3 290.9 78.3 C 290.9 79.5 290.1 80.1 289 80.1 C 287.8 80.1 286.9 79.8 286.9 77.3 C 286.9 75.7 287 74.3 289 74.3 C 290.6 74.3 290.9 75.2 290.9 77 C 290.95 77.03 290.9 77.5 290.9 77.5 C 290.9 77.5 287.82 77.51 287.8 77.5 Z M 294.3 75.1 C 293.4 75.1 293.2 75.8 293.2 77.3 C 293.2 78.2 293.2 79.4 294.4 79.4 C 295.4 79.4 295.4 78.1 295.4 77 C 295.4 76.3 295.3 75.1 294.3 75.1 Z M 295.4 72.1 L 296.3 72.1 L 296.3 80 L 295.4 80 L 295.4 79.3 C 295.4 79.3 295.36 79.33 295.4 79.3 C 295.1 79.8 294.7 80.1 294.1 80.1 C 293.2 80.1 292.3 79.8 292.3 77.3 C 292.3 75.9 292.3 74.3 294.1 74.3 C 294.7 74.3 295 74.6 295.3 75 C 295.35 75 295.4 75 295.4 75 L 295.4 72.1 Z M 298.1 78.8 L 299.2 78.8 L 298.2 81.4 L 297.5 81.4 L 298.1 78.8 Z M 306 77.1 C 306 76.3 306 75.1 304.8 75.1 C 303.7 75.1 303.8 76.6 303.8 77.5 C 303.8 78.2 303.8 79.4 304.9 79.4 C 305.8 79.4 306 78.6 306 77.1 Z M 303.8 75.1 C 303.8 75.1 303.83 75.1 303.8 75.1 C 304.1 74.6 304.5 74.3 305.1 74.3 C 306 74.3 306.9 74.7 306.9 77.1 C 306.9 78.5 306.9 80.1 305.1 80.1 C 304.5 80.1 304.1 79.9 303.8 79.4 C 303.84 79.43 303.8 79.4 303.8 79.4 L 303.8 82.1 L 302.9 82.1 L 302.9 74.4 L 303.8 74.4 L 303.8 75.1 Z M 311.3 80 C 311.3 80 311.34 76.23 311.3 76.2 C 311.3 75.5 311.1 75.1 310.4 75.1 C 309.4 75.1 309.2 75.8 309.2 76.7 C 309.22 76.73 309.2 80 309.2 80 L 308.3 80 L 308.3 72.1 L 309.2 72.1 L 309.2 75.2 C 309.2 75.2 309.26 75.15 309.3 75.2 C 309.6 74.5 310 74.3 310.8 74.3 C 311.7 74.3 312.2 74.8 312.2 76.1 C 312.24 76.05 312.2 80 312.2 80 L 311.3 80 Z M 314.7 78.3 C 314.7 78.9 314.9 79.4 315.5 79.4 C 316.1 79.4 316.8 79 316.7 77.2 C 315.8 77.2 314.7 77.2 314.7 78.3 Z M 316.7 79.2 C 316.7 79.2 316.67 79.19 316.7 79.2 C 316.4 79.8 316 80.1 315.3 80.1 C 314.1 80.1 313.8 79.3 313.8 78.3 C 313.8 76.6 315.4 76.5 316.7 76.6 C 316.7 75.8 316.7 75 315.7 75 C 315.1 75 314.8 75.4 314.9 76 C 314.9 76 313.9 76 313.9 76 C 313.9 74.8 314.6 74.3 315.8 74.3 C 317.2 74.3 317.6 75.1 317.6 76 C 317.6 76 317.6 78.7 317.6 78.7 C 317.6 79.1 317.6 79.6 317.7 80 C 317.68 79.99 316.7 80 316.7 80 L 316.7 79.2 Z M 321 80.1 C 319.8 80.1 319 79.6 319.1 78.3 C 319.1 78.3 320.1 78.3 320.1 78.3 C 320.1 78.6 320.1 79.4 321 79.4 C 321.5 79.4 322 79.1 322 78.5 C 322 77.5 319.2 77.5 319.2 75.8 C 319.2 75.3 319.5 74.3 321.1 74.3 C 322.1 74.3 322.9 74.8 322.9 75.9 C 322.9 75.9 321.9 75.9 321.9 75.9 C 321.9 75.3 321.6 75 321 75 C 320.5 75 320.1 75.3 320.1 75.8 C 320.1 76.7 322.9 76.7 322.9 78.4 C 322.9 79.6 322.1 80.1 321 80.1 Z M 327.3 76.8 C 327.3 75.2 326.8 75 326.1 75 C 325.6 75 325.1 75.3 325.1 76.8 C 325.1 76.8 327.3 76.8 327.3 76.8 Z M 325.1 77.5 C 325.1 79.1 325.5 79.4 326.2 79.4 C 326.8 79.4 327.1 78.9 327.2 78.3 C 327.2 78.3 328.2 78.3 328.2 78.3 C 328.2 79.5 327.4 80.1 326.2 80.1 C 325.1 80.1 324.1 79.8 324.1 77.3 C 324.1 75.7 324.3 74.3 326.2 74.3 C 327.8 74.3 328.2 75.2 328.2 77 C 328.21 77.03 328.2 77.5 328.2 77.5 C 328.2 77.5 325.09 77.51 325.1 77.5 Z M 333.2 75.5 C 334.1 75.6 334.8 75.3 334.8 74.3 C 334.8 73.6 334.5 73.1 333.7 73.1 C 332.9 73.1 332.8 73.7 332.8 74.3 C 332.8 74.3 331.8 74.3 331.8 74.3 C 331.7 73 332.3 72.2 333.7 72.2 C 335 72.2 335.8 72.9 335.8 74.2 C 335.8 75.7 334.7 75.9 334.3 76 C 334.3 76 334.3 76 334.3 76 C 335.5 76.2 335.9 76.8 335.9 78 C 335.9 79.4 335.1 80.2 333.6 80.2 C 331.5 80.2 331.6 78.3 331.6 77.9 C 331.6 77.9 332.6 77.9 332.6 77.9 C 332.7 78.7 332.8 79.3 333.7 79.3 C 334.6 79.3 334.9 78.8 334.9 77.9 C 334.9 76.7 334.4 76.4 333.2 76.4 C 333.2 76.4 333.2 75.5 333.2 75.5 Z M 339.6 74.4 L 339.6 73.4 L 340.5 73 L 340.5 74.4 L 341.7 74.4 L 341.7 75.1 L 340.5 75.1 C 340.5 75.1 340.48 78.52 340.5 78.5 C 340.5 78.9 340.5 79.3 341.3 79.3 C 341.4 79.3 341.5 79.3 341.7 79.3 C 341.7 79.3 341.7 80 341.7 80 C 341.4 80 341.1 80.1 340.8 80.1 C 340 80.1 339.6 79.7 339.6 79.1 C 339.58 79.07 339.6 75.1 339.6 75.1 L 338.7 75.1 L 338.7 74.4 L 339.6 74.4 Z M 343.5 75.3 C 343.5 75.3 343.49 75.27 343.5 75.3 C 343.9 74.4 344.3 74.3 345.2 74.3 C 345.2 74.3 345.2 75.3 345.2 75.3 C 345.1 75.3 345 75.2 345 75.2 C 344.9 75.2 344.8 75.2 344.7 75.2 C 343.7 75.2 343.5 76 343.5 76.7 C 343.47 76.71 343.5 80 343.5 80 L 342.6 80 L 342.6 74.4 L 343.5 74.4 L 343.5 75.3 Z M 347.1 80 L 346.2 80 L 346.2 74.4 L 347.1 74.4 L 347.1 80 Z M 346.1 72.1 L 347.1 72.1 L 347.1 73 L 346.1 73 L 346.1 72.1 Z M 349.5 78.3 C 349.5 78.9 349.7 79.4 350.3 79.4 C 350.9 79.4 351.6 79 351.5 77.2 C 350.6 77.2 349.5 77.2 349.5 78.3 Z M 351.5 79.2 C 351.5 79.2 351.48 79.19 351.5 79.2 C 351.2 79.8 350.8 80.1 350.1 80.1 C 348.9 80.1 348.6 79.3 348.6 78.3 C 348.6 76.6 350.2 76.5 351.5 76.6 C 351.5 75.8 351.5 75 350.5 75 C 349.9 75 349.6 75.4 349.7 76 C 349.7 76 348.7 76 348.7 76 C 348.7 74.8 349.4 74.3 350.6 74.3 C 352 74.3 352.4 75.1 352.4 76 C 352.4 76 352.4 78.7 352.4 78.7 C 352.4 79.1 352.4 79.6 352.5 80 C 352.49 79.99 351.5 80 351.5 80 L 351.5 79.2 Z M 355 80 L 354.1 80 L 354.1 72.1 L 355 72.1 L 355 80 Z M 357.5 80 L 356.5 80 L 356.5 78.8 L 357.5 78.8 L 357.5 80 Z " stroke="none" fill="#fff"/>  </g>  <g id="Polygon195491">    <path d="M 43.4 66.8 L 42.5 66.8 L 42.5 61.2 L 43.4 61.2 L 43.4 66.8 Z M 42.5 58.9 L 43.5 58.9 L 43.5 59.8 L 42.5 59.8 L 42.5 58.9 Z M 48 66.8 C 48 66.8 48.02 62.94 48 62.9 C 48 62.3 47.8 61.9 47 61.9 C 46 61.9 45.9 62.7 45.9 63.5 C 45.9 63.5 45.9 66.8 45.9 66.8 L 45 66.8 C 45 66.8 45 62.39 45 62.4 C 45 62 45 61.6 44.9 61.2 C 44.95 61.24 45.9 61.2 45.9 61.2 L 45.9 62 C 45.9 62 45.95 61.95 45.9 62 C 46.3 61.3 46.7 61.1 47.4 61.1 C 48.6 61.1 48.9 61.8 48.9 62.9 C 48.92 62.94 48.9 66.8 48.9 66.8 L 48 66.8 Z M 53.5 66.8 C 53.5 66.8 53.52 63.03 53.5 63 C 53.5 62.3 53.3 61.9 52.5 61.9 C 51.6 61.9 51.4 62.6 51.4 63.5 C 51.39 63.53 51.4 66.8 51.4 66.8 L 50.5 66.8 L 50.5 58.9 L 51.4 58.9 L 51.4 62 C 51.4 62 51.44 61.95 51.4 62 C 51.8 61.3 52.2 61.1 52.9 61.1 C 53.9 61.1 54.4 61.6 54.4 62.9 C 54.42 62.85 54.4 66.8 54.4 66.8 L 53.5 66.8 Z M 56.9 66.8 L 56 66.8 L 56 61.2 L 56.9 61.2 L 56.9 66.8 Z M 55.9 58.9 L 56.9 58.9 L 56.9 59.8 L 55.9 59.8 L 55.9 58.9 Z M 60.4 66.2 C 61.6 66.2 61.6 65 61.6 64.1 C 61.6 62.6 61.4 61.9 60.5 61.9 C 59.5 61.9 59.4 63.1 59.4 63.8 C 59.4 64.6 59.3 66.2 60.4 66.2 Z M 59.4 66.8 L 58.5 66.8 L 58.5 58.9 L 59.4 58.9 L 59.4 61.8 C 59.4 61.8 59.45 61.8 59.5 61.8 C 59.8 61.4 60.1 61.1 60.7 61.1 C 62.5 61.1 62.5 62.7 62.5 64.1 C 62.5 66.6 61.6 66.9 60.7 66.9 C 60.1 66.9 59.8 66.6 59.4 66.1 C 59.44 66.13 59.4 66.1 59.4 66.1 L 59.4 66.8 Z M 64.8 66.8 L 63.9 66.8 L 63.9 61.2 L 64.8 61.2 L 64.8 66.8 Z M 63.9 58.9 L 64.9 58.9 L 64.9 59.8 L 63.9 59.8 L 63.9 58.9 Z M 66.5 61.2 L 66.5 60.2 L 67.4 59.8 L 67.4 61.2 L 68.6 61.2 L 68.6 61.9 L 67.4 61.9 C 67.4 61.9 67.39 65.32 67.4 65.3 C 67.4 65.7 67.4 66.1 68.2 66.1 C 68.3 66.1 68.4 66.1 68.6 66.1 C 68.6 66.1 68.6 66.8 68.6 66.8 C 68.3 66.8 68 66.9 67.7 66.9 C 66.9 66.9 66.5 66.5 66.5 65.9 C 66.48 65.87 66.5 61.9 66.5 61.9 L 65.6 61.9 L 65.6 61.2 L 66.5 61.2 Z M 72.6 63.7 C 72.6 62.2 72.1 61.9 71.4 61.9 C 70.7 61.9 70.2 62.2 70.2 63.7 C 70.2 65.5 70.5 66.2 71.4 66.2 C 72.3 66.2 72.6 65.5 72.6 63.7 Z M 69.3 64.1 C 69.3 62.5 69.5 61.1 71.4 61.1 C 73.3 61.1 73.5 62.5 73.5 64.1 C 73.5 66.6 72.6 66.9 71.4 66.9 C 70.2 66.9 69.3 66.6 69.3 64.1 Z M 75.9 62.1 C 75.9 62.1 75.9 62.07 75.9 62.1 C 76.3 61.2 76.7 61.1 77.6 61.1 C 77.6 61.1 77.6 62.1 77.6 62.1 C 77.5 62.1 77.5 62 77.4 62 C 77.3 62 77.2 62 77.1 62 C 76.1 62 75.9 62.8 75.9 63.5 C 75.88 63.51 75.9 66.8 75.9 66.8 L 75 66.8 L 75 61.2 L 75.9 61.2 L 75.9 62.1 Z M 81.2 61.2 C 81.2 61.2 81.21 60.16 81.2 60.2 C 81.2 59 82 58.8 82.8 58.8 C 83 58.8 83.1 58.8 83.2 58.9 C 83.2 58.9 83.2 59.5 83.2 59.5 C 82.3 59.4 82.1 59.8 82.1 60.3 C 82.11 60.29 82.1 61.2 82.1 61.2 L 83.2 61.2 L 83.2 61.9 L 82.1 61.9 L 82.1 66.8 L 81.2 66.8 L 81.2 61.9 L 80.4 61.9 L 80.4 61.2 L 81.2 61.2 Z M 87.2 63.7 C 87.2 62.2 86.8 61.9 86.1 61.9 C 85.4 61.9 84.9 62.2 84.9 63.7 C 84.9 65.5 85.1 66.2 86.1 66.2 C 87 66.2 87.2 65.5 87.2 63.7 Z M 84 64.1 C 84 62.5 84.1 61.1 86.1 61.1 C 88 61.1 88.2 62.5 88.2 64.1 C 88.2 66.6 87.2 66.9 86.1 66.9 C 84.9 66.9 84 66.6 84 64.1 Z M 90.5 62.1 C 90.5 62.1 90.56 62.07 90.6 62.1 C 90.9 61.2 91.4 61.1 92.3 61.1 C 92.3 61.1 92.3 62.1 92.3 62.1 C 92.2 62.1 92.1 62 92 62 C 92 62 91.9 62 91.8 62 C 90.8 62 90.5 62.8 90.5 63.5 C 90.54 63.51 90.5 66.8 90.5 66.8 L 89.6 66.8 L 89.6 61.2 L 90.5 61.2 L 90.5 62.1 Z M 98.7 66.8 C 98.7 66.8 98.73 63.03 98.7 63 C 98.7 62.3 98.5 61.9 97.7 61.9 C 96.8 61.9 96.6 62.6 96.6 63.5 C 96.6 63.53 96.6 66.8 96.6 66.8 L 95.7 66.8 L 95.7 58.9 L 96.6 58.9 L 96.6 62 C 96.6 62 96.64 61.95 96.6 62 C 97 61.3 97.4 61.1 98.2 61.1 C 99.1 61.1 99.6 61.6 99.6 62.9 C 99.63 62.85 99.6 66.8 99.6 66.8 L 98.7 66.8 Z M 104.3 63.6 C 104.3 62 103.8 61.8 103.1 61.8 C 102.6 61.8 102.1 62.1 102.1 63.6 C 102.1 63.6 104.3 63.6 104.3 63.6 Z M 102.1 64.3 C 102.1 65.9 102.5 66.2 103.2 66.2 C 103.8 66.2 104.1 65.7 104.2 65.1 C 104.2 65.1 105.2 65.1 105.2 65.1 C 105.2 66.3 104.4 66.9 103.2 66.9 C 102.1 66.9 101.1 66.6 101.1 64.1 C 101.1 62.5 101.3 61.1 103.2 61.1 C 104.8 61.1 105.2 62 105.2 63.8 C 105.21 63.83 105.2 64.3 105.2 64.3 C 105.2 64.3 102.09 64.31 102.1 64.3 Z M 107.6 62.1 C 107.6 62.1 107.67 62.07 107.7 62.1 C 108 61.2 108.5 61.1 109.4 61.1 C 109.4 61.1 109.4 62.1 109.4 62.1 C 109.3 62.1 109.2 62 109.1 62 C 109.1 62 109 62 108.9 62 C 107.9 62 107.6 62.8 107.6 63.5 C 107.64 63.51 107.6 66.8 107.6 66.8 L 106.7 66.8 L 106.7 61.2 L 107.6 61.2 L 107.6 62.1 Z M 113.4 63.6 C 113.4 62 113 61.8 112.3 61.8 C 111.7 61.8 111.3 62.1 111.3 63.6 C 111.3 63.6 113.4 63.6 113.4 63.6 Z M 111.3 64.3 C 111.3 65.9 111.7 66.2 112.4 66.2 C 113 66.2 113.3 65.7 113.3 65.1 C 113.3 65.1 114.3 65.1 114.3 65.1 C 114.3 66.3 113.6 66.9 112.4 66.9 C 111.2 66.9 110.3 66.6 110.3 64.1 C 110.3 62.5 110.5 61.1 112.4 61.1 C 114 61.1 114.4 62 114.4 63.8 C 114.38 63.83 114.4 64.3 114.4 64.3 C 114.4 64.3 111.25 64.31 111.3 64.3 Z M 117.8 61.9 C 116.8 61.9 116.7 62.6 116.7 64.1 C 116.7 65 116.7 66.2 117.8 66.2 C 118.8 66.2 118.8 64.9 118.8 63.8 C 118.8 63.1 118.8 61.9 117.8 61.9 Z M 118.8 58.9 L 119.7 58.9 L 119.7 66.8 L 118.8 66.8 L 118.8 66.1 C 118.8 66.1 118.79 66.13 118.8 66.1 C 118.5 66.6 118.1 66.9 117.5 66.9 C 116.6 66.9 115.7 66.6 115.7 64.1 C 115.7 62.7 115.8 61.1 117.6 61.1 C 118.1 61.1 118.5 61.4 118.8 61.8 C 118.78 61.8 118.8 61.8 118.8 61.8 L 118.8 58.9 Z M 122.3 66.8 L 121.4 66.8 L 121.4 61.2 L 122.3 61.2 L 122.3 66.8 Z M 121.3 58.9 L 122.3 58.9 L 122.3 59.8 L 121.3 59.8 L 121.3 58.9 Z M 123.9 61.2 L 123.9 60.2 L 124.8 59.8 L 124.8 61.2 L 126 61.2 L 126 61.9 L 124.8 61.9 C 124.8 61.9 124.82 65.32 124.8 65.3 C 124.8 65.7 124.8 66.1 125.6 66.1 C 125.7 66.1 125.8 66.1 126 66.1 C 126 66.1 126 66.8 126 66.8 C 125.8 66.8 125.5 66.9 125.2 66.9 C 124.3 66.9 123.9 66.5 123.9 65.9 C 123.91 65.87 123.9 61.9 123.9 61.9 L 123 61.9 L 123 61.2 L 123.9 61.2 Z M 127.7 65.1 C 127.7 65.7 128 66.2 128.6 66.2 C 129.1 66.2 129.8 65.8 129.7 64 C 128.9 64 127.7 64 127.7 65.1 Z M 129.7 66 C 129.7 66 129.71 65.99 129.7 66 C 129.4 66.6 129 66.9 128.3 66.9 C 127.1 66.9 126.8 66.1 126.8 65.1 C 126.8 63.4 128.4 63.3 129.7 63.4 C 129.7 62.6 129.7 61.8 128.8 61.8 C 128.2 61.8 127.9 62.2 127.9 62.8 C 127.9 62.8 126.9 62.8 126.9 62.8 C 127 61.6 127.6 61.1 128.8 61.1 C 130.2 61.1 130.6 61.9 130.6 62.8 C 130.6 62.8 130.6 65.5 130.6 65.5 C 130.6 65.9 130.7 66.4 130.7 66.8 C 130.72 66.79 129.7 66.8 129.7 66.8 L 129.7 66 Z M 133.3 62.1 C 133.3 62.1 133.33 62.07 133.3 62.1 C 133.7 61.2 134.2 61.1 135 61.1 C 135 61.1 135 62.1 135 62.1 C 135 62.1 134.9 62 134.8 62 C 134.7 62 134.6 62 134.6 62 C 133.6 62 133.3 62.8 133.3 63.5 C 133.31 63.51 133.3 66.8 133.3 66.8 L 132.4 66.8 L 132.4 61.2 L 133.3 61.2 L 133.3 62.1 Z M 137.7 65.8 L 137.7 65.8 L 139.1 61.2 L 140 61.2 L 137.5 68.9 L 136.6 68.9 L 137.2 66.8 L 135.3 61.2 L 136.4 61.2 L 137.7 65.8 Z M 144.2 65.1 C 144.2 65.7 144.5 66.2 145.1 66.2 C 145.6 66.2 146.3 65.8 146.2 64 C 145.3 64 144.2 64 144.2 65.1 Z M 146.2 66 C 146.2 66 146.2 65.99 146.2 66 C 145.9 66.6 145.5 66.9 144.8 66.9 C 143.6 66.9 143.3 66.1 143.3 65.1 C 143.3 63.4 144.9 63.3 146.2 63.4 C 146.2 62.6 146.2 61.8 145.3 61.8 C 144.7 61.8 144.3 62.2 144.4 62.8 C 144.4 62.8 143.4 62.8 143.4 62.8 C 143.5 61.6 144.1 61.1 145.3 61.1 C 146.7 61.1 147.1 61.9 147.1 62.8 C 147.1 62.8 147.1 65.5 147.1 65.5 C 147.1 65.9 147.1 66.4 147.2 66.8 C 147.21 66.79 146.2 66.8 146.2 66.8 L 146.2 66 Z M 151.9 66.8 C 151.9 66.8 151.88 62.94 151.9 62.9 C 151.9 62.3 151.7 61.9 150.9 61.9 C 149.9 61.9 149.8 62.7 149.8 63.5 C 149.76 63.5 149.8 66.8 149.8 66.8 L 148.9 66.8 C 148.9 66.8 148.86 62.39 148.9 62.4 C 148.9 62 148.8 61.6 148.8 61.2 C 148.81 61.24 149.8 61.2 149.8 61.2 L 149.8 62 C 149.8 62 149.81 61.95 149.8 62 C 150.2 61.3 150.6 61.1 151.3 61.1 C 152.5 61.1 152.8 61.8 152.8 62.9 C 152.78 62.94 152.8 66.8 152.8 66.8 L 151.9 66.8 Z M 156.2 61.9 C 155.2 61.9 155.2 63.1 155.2 63.8 C 155.2 65.6 155.6 66 156.3 66 C 157.4 66 157.3 64.8 157.3 64 C 157.3 63.2 157.4 61.9 156.2 61.9 Z M 157.3 61.2 L 158.2 61.2 C 158.2 61.2 158.2 67.35 158.2 67.4 C 158.2 68.6 157.4 68.9 156.2 68.9 C 155.2 68.9 154.4 68.4 154.5 67.4 C 154.5 67.4 155.5 67.4 155.5 67.4 C 155.5 67.9 155.8 68.2 156.3 68.2 C 157 68.2 157.3 67.8 157.3 67.3 C 157.3 67.25 157.3 66.1 157.3 66.1 C 157.3 66.1 157.27 66.1 157.3 66.1 C 157 66.5 156.5 66.8 156 66.8 C 154.5 66.8 154.2 65.5 154.2 63.8 C 154.2 61.3 155.5 61.1 156 61.1 C 156.6 61.1 157 61.4 157.3 61.9 C 157.28 61.92 157.3 61.9 157.3 61.9 L 157.3 61.2 Z M 160.7 66.8 L 159.8 66.8 L 159.8 61.2 L 160.7 61.2 L 160.7 66.8 Z M 159.8 58.9 L 160.8 58.9 L 160.8 59.8 L 159.8 59.8 L 159.8 58.9 Z M 165.4 63.7 C 165.4 62.2 165 61.9 164.3 61.9 C 163.6 61.9 163.1 62.2 163.1 63.7 C 163.1 65.5 163.3 66.2 164.3 66.2 C 165.2 66.2 165.4 65.5 165.4 63.7 Z M 162.2 64.1 C 162.2 62.5 162.3 61.1 164.3 61.1 C 166.2 61.1 166.4 62.5 166.4 64.1 C 166.4 66.6 165.4 66.9 164.3 66.9 C 163.1 66.9 162.2 66.6 162.2 64.1 Z M 170.9 63.6 C 170.9 62 170.4 61.8 169.7 61.8 C 169.2 61.8 168.7 62.1 168.7 63.6 C 168.7 63.6 170.9 63.6 170.9 63.6 Z M 168.7 64.3 C 168.7 65.9 169.1 66.2 169.8 66.2 C 170.4 66.2 170.7 65.7 170.8 65.1 C 170.8 65.1 171.8 65.1 171.8 65.1 C 171.8 66.3 171 66.9 169.8 66.9 C 168.7 66.9 167.7 66.6 167.7 64.1 C 167.7 62.5 167.9 61.1 169.8 61.1 C 171.4 61.1 171.8 62 171.8 63.8 C 171.81 63.83 171.8 64.3 171.8 64.3 C 171.8 64.3 168.68 64.31 168.7 64.3 Z M 175.2 61.9 C 174.2 61.9 174.1 62.6 174.1 64.1 C 174.1 65 174.1 66.2 175.2 66.2 C 176.2 66.2 176.2 64.9 176.2 63.8 C 176.2 63.1 176.2 61.9 175.2 61.9 Z M 176.2 58.9 L 177.1 58.9 L 177.1 66.8 L 176.2 66.8 L 176.2 66.1 C 176.2 66.1 176.22 66.13 176.2 66.1 C 175.9 66.6 175.5 66.9 174.9 66.9 C 174.1 66.9 173.2 66.6 173.2 64.1 C 173.2 62.7 173.2 61.1 175 61.1 C 175.5 61.1 175.9 61.4 176.2 61.8 C 176.21 61.8 176.2 61.8 176.2 61.8 L 176.2 58.9 Z M 181.9 63.6 C 181.9 62 181.4 61.8 180.7 61.8 C 180.2 61.8 179.7 62.1 179.7 63.6 C 179.7 63.6 181.9 63.6 181.9 63.6 Z M 179.7 64.3 C 179.7 65.9 180.1 66.2 180.8 66.2 C 181.4 66.2 181.7 65.7 181.8 65.1 C 181.8 65.1 182.8 65.1 182.8 65.1 C 182.8 66.3 182 66.9 180.8 66.9 C 179.7 66.9 178.7 66.6 178.7 64.1 C 178.7 62.5 178.9 61.1 180.8 61.1 C 182.4 61.1 182.8 62 182.8 63.8 C 182.81 63.83 182.8 64.3 182.8 64.3 C 182.8 64.3 179.68 64.31 179.7 64.3 Z M 187 66.8 C 187 66.8 187.03 62.94 187 62.9 C 187 62.4 186.9 61.9 186.2 61.9 C 185.9 61.9 185.5 62 185.4 62.2 C 185.2 62.5 185.2 62.8 185.2 63.1 C 185.16 63.05 185.2 66.8 185.2 66.8 L 184.3 66.8 C 184.3 66.8 184.26 62.39 184.3 62.4 C 184.3 62 184.2 61.6 184.2 61.2 C 184.21 61.24 185.2 61.2 185.2 61.2 L 185.2 61.9 C 185.2 61.9 185.18 61.93 185.2 61.9 C 185.4 61.3 185.9 61.1 186.6 61.1 C 187.1 61.1 187.7 61.3 187.9 61.8 C 188.2 61.2 188.7 61.1 189.2 61.1 C 189.8 61.1 190.7 61.3 190.7 62.6 C 190.7 62.57 190.7 66.8 190.7 66.8 L 189.8 66.8 C 189.8 66.8 189.8 62.94 189.8 62.9 C 189.8 62.4 189.7 61.9 188.9 61.9 C 188.6 61.9 188.5 61.9 188.2 62.1 C 188 62.3 187.9 62.8 187.9 63.1 C 187.93 63.05 187.9 66.8 187.9 66.8 L 187 66.8 Z M 193.1 65.1 C 193.1 65.7 193.3 66.2 193.9 66.2 C 194.5 66.2 195.2 65.8 195.1 64 C 194.2 64 193.1 64 193.1 65.1 Z M 195.1 66 C 195.1 66 195.08 65.99 195.1 66 C 194.8 66.6 194.4 66.9 193.7 66.9 C 192.5 66.9 192.2 66.1 192.2 65.1 C 192.2 63.4 193.8 63.3 195.1 63.4 C 195.1 62.6 195.1 61.8 194.1 61.8 C 193.5 61.8 193.2 62.2 193.3 62.8 C 193.3 62.8 192.3 62.8 192.3 62.8 C 192.3 61.6 193 61.1 194.2 61.1 C 195.6 61.1 196 61.9 196 62.8 C 196 62.8 196 65.5 196 65.5 C 196 65.9 196 66.4 196.1 66.8 C 196.09 66.79 195.1 66.8 195.1 66.8 L 195.1 66 Z M 203.3 63.9 C 203.3 63.1 203.3 61.9 202.2 61.9 C 201.1 61.9 201.2 63.4 201.2 64.3 C 201.2 65 201.2 66.2 202.2 66.2 C 203.2 66.2 203.3 65.4 203.3 63.9 Z M 201.2 61.9 C 201.2 61.9 201.19 61.9 201.2 61.9 C 201.5 61.4 201.9 61.1 202.5 61.1 C 203.4 61.1 204.3 61.5 204.3 63.9 C 204.3 65.3 204.2 66.9 202.4 66.9 C 201.9 66.9 201.5 66.7 201.2 66.2 C 201.2 66.23 201.2 66.2 201.2 66.2 L 201.2 68.9 L 200.3 68.9 L 200.3 61.2 L 201.2 61.2 L 201.2 61.9 Z M 206.6 62.1 C 206.6 62.1 206.64 62.07 206.6 62.1 C 207 61.2 207.5 61.1 208.4 61.1 C 208.4 61.1 208.4 62.1 208.4 62.1 C 208.3 62.1 208.2 62 208.1 62 C 208 62 208 62 207.9 62 C 206.9 62 206.6 62.8 206.6 63.5 C 206.62 63.51 206.6 66.8 206.6 66.8 L 205.7 66.8 L 205.7 61.2 L 206.6 61.2 L 206.6 62.1 Z M 212.4 63.6 C 212.4 62 211.9 61.8 211.3 61.8 C 210.7 61.8 210.2 62.1 210.2 63.6 C 210.2 63.6 212.4 63.6 212.4 63.6 Z M 210.2 64.3 C 210.2 65.9 210.6 66.2 211.4 66.2 C 212 66.2 212.3 65.7 212.3 65.1 C 212.3 65.1 213.3 65.1 213.3 65.1 C 213.3 66.3 212.5 66.9 211.4 66.9 C 210.2 66.9 209.3 66.6 209.3 64.1 C 209.3 62.5 209.4 61.1 211.4 61.1 C 213 61.1 213.4 62 213.4 63.8 C 213.35 63.83 213.4 64.3 213.4 64.3 C 213.4 64.3 210.23 64.31 210.2 64.3 Z M 214.2 61.2 L 215.2 61.2 L 216.5 65.9 L 216.5 65.9 L 217.8 61.2 L 218.8 61.2 L 217 66.8 L 215.9 66.8 L 214.2 61.2 Z M 222.8 63.6 C 222.8 62 222.3 61.8 221.7 61.8 C 221.1 61.8 220.6 62.1 220.6 63.6 C 220.6 63.6 222.8 63.6 222.8 63.6 Z M 220.6 64.3 C 220.6 65.9 221 66.2 221.7 66.2 C 222.4 66.2 222.7 65.7 222.7 65.1 C 222.7 65.1 223.7 65.1 223.7 65.1 C 223.7 66.3 222.9 66.9 221.8 66.9 C 220.6 66.9 219.6 66.6 219.6 64.1 C 219.6 62.5 219.8 61.1 221.8 61.1 C 223.3 61.1 223.7 62 223.7 63.8 C 223.74 63.83 223.7 64.3 223.7 64.3 C 223.7 64.3 220.61 64.31 220.6 64.3 Z M 228.2 66.8 C 228.2 66.8 228.25 62.94 228.2 62.9 C 228.2 62.3 228 61.9 227.3 61.9 C 226.3 61.9 226.1 62.7 226.1 63.5 C 226.14 63.5 226.1 66.8 226.1 66.8 L 225.2 66.8 C 225.2 66.8 225.23 62.39 225.2 62.4 C 225.2 62 225.2 61.6 225.2 61.2 C 225.18 61.24 226.1 61.2 226.1 61.2 L 226.1 62 C 226.1 62 226.18 61.95 226.2 62 C 226.5 61.3 226.9 61.1 227.7 61.1 C 228.9 61.1 229.1 61.8 229.1 62.9 C 229.15 62.94 229.1 66.8 229.1 66.8 L 228.2 66.8 Z M 230.8 61.2 L 230.8 60.2 L 231.7 59.8 L 231.7 61.2 L 232.9 61.2 L 232.9 61.9 L 231.7 61.9 C 231.7 61.9 231.73 65.32 231.7 65.3 C 231.7 65.7 231.7 66.1 232.6 66.1 C 232.6 66.1 232.8 66.1 233 66.1 C 233 66.1 233 66.8 233 66.8 C 232.7 66.8 232.4 66.9 232.1 66.9 C 231.2 66.9 230.8 66.5 230.8 65.9 C 230.83 65.87 230.8 61.9 230.8 61.9 L 229.9 61.9 L 229.9 61.2 L 230.8 61.2 Z M 234.7 66.8 L 233.8 66.8 L 233.8 61.2 L 234.7 61.2 L 234.7 66.8 Z M 233.7 58.9 L 234.7 58.9 L 234.7 59.8 L 233.7 59.8 L 233.7 58.9 Z M 239.4 63.7 C 239.4 62.2 238.9 61.9 238.2 61.9 C 237.5 61.9 237 62.2 237 63.7 C 237 65.5 237.3 66.2 238.2 66.2 C 239.1 66.2 239.4 65.5 239.4 63.7 Z M 236.1 64.1 C 236.1 62.5 236.3 61.1 238.2 61.1 C 240.1 61.1 240.3 62.5 240.3 64.1 C 240.3 66.6 239.4 66.9 238.2 66.9 C 237 66.9 236.1 66.6 236.1 64.1 Z M 244.7 66.8 C 244.7 66.8 244.75 62.94 244.7 62.9 C 244.7 62.3 244.5 61.9 243.8 61.9 C 242.8 61.9 242.6 62.7 242.6 63.5 C 242.64 63.5 242.6 66.8 242.6 66.8 L 241.7 66.8 C 241.7 66.8 241.73 62.39 241.7 62.4 C 241.7 62 241.7 61.6 241.7 61.2 C 241.68 61.24 242.6 61.2 242.6 61.2 L 242.6 62 C 242.6 62 242.68 61.95 242.7 62 C 243 61.3 243.4 61.1 244.2 61.1 C 245.4 61.1 245.6 61.8 245.6 62.9 C 245.65 62.94 245.6 66.8 245.6 66.8 L 244.7 66.8 Z M 250.5 68.1 C 250 66.5 249.4 65 249.4 63.3 C 249.4 61.6 250 60.1 250.5 58.5 C 250.5 58.5 251.2 58.5 251.2 58.5 C 250.8 60.1 250.5 61.7 250.5 63.4 C 250.5 65 250.8 66.6 251.2 68.1 C 251.2 68.1 250.5 68.1 250.5 68.1 Z M 255.6 66.8 L 254.4 66.8 L 252.1 58.9 L 253.2 58.9 L 255 65.8 L 255 65.8 L 256.9 58.9 L 257.9 58.9 L 255.6 66.8 Z M 260.3 58.9 L 261.6 58.9 L 264.2 66.8 L 263.1 66.8 L 262.5 64.9 L 259.4 64.9 L 258.8 66.8 L 257.8 66.8 L 260.3 58.9 Z M 261 59.8 L 260.9 59.8 L 259.7 64 L 262.2 64 L 261 59.8 Z M 270.8 58.9 L 270.8 66.8 L 269.4 66.8 L 266.2 59.9 L 266.2 59.9 L 266.2 66.8 L 265.3 66.8 L 265.3 58.9 L 266.7 58.9 L 269.8 65.6 L 269.9 65.6 L 269.9 58.9 L 270.8 58.9 Z M 276.4 61 C 276.4 60 276 59.5 275 59.5 C 274.7 59.5 273.5 59.6 273.5 61.2 C 273.5 61.2 273.5 63.9 273.5 63.9 C 273.5 65.7 274 66.1 275 66.1 C 275.7 66.1 276.2 65.9 276.4 65.8 C 276.42 65.76 276.4 63.4 276.4 63.4 L 275 63.4 L 275 62.5 L 277.4 62.5 C 277.4 62.5 277.43 66.36 277.4 66.4 C 276.8 66.7 276 67 275 67 C 273.3 67 272.5 66.1 272.5 63.9 C 272.5 63.9 272.5 61.3 272.5 61.3 C 272.5 59.7 273.3 58.7 275 58.7 C 276.7 58.7 277.5 59.3 277.5 61 C 277.5 61 276.4 61 276.4 61 Z M 279.3 58.9 L 280.3 58.9 C 280.3 58.9 280.3 63.93 280.3 63.9 C 280.3 65.7 280.8 66.1 281.8 66.1 C 282.7 66.1 283.3 65.7 283.3 63.9 C 283.27 63.93 283.3 58.9 283.3 58.9 L 284.3 58.9 C 284.3 58.9 284.28 63.89 284.3 63.9 C 284.3 66.1 283.5 67 281.8 67 C 280.1 67 279.3 66.1 279.3 63.9 C 279.29 63.89 279.3 58.9 279.3 58.9 Z M 287.8 58.9 L 289.1 58.9 L 291.7 66.8 L 290.6 66.8 L 290 64.9 L 286.9 64.9 L 286.3 66.8 L 285.3 66.8 L 287.8 58.9 Z M 288.5 59.8 L 288.4 59.8 L 287.2 64 L 289.7 64 L 288.5 59.8 Z M 293.8 62.3 C 293.8 62.3 295.27 62.26 295.3 62.3 C 296 62.3 296.3 61.6 296.3 60.9 C 296.3 60.4 296.1 59.7 295.3 59.7 C 295.28 59.73 293.8 59.7 293.8 59.7 L 293.8 62.3 Z M 293.8 63.1 L 293.8 66.8 L 292.7 66.8 L 292.7 58.9 C 292.7 58.9 295.48 58.85 295.5 58.9 C 296.9 58.9 297.4 59.8 297.4 60.8 C 297.4 61.8 296.9 62.5 295.9 62.6 C 295.9 62.6 295.9 62.7 295.9 62.7 C 296.8 62.8 297.2 63.1 297.2 64.7 C 297.2 65.1 297.3 66.3 297.5 66.8 C 297.5 66.8 296.4 66.8 296.4 66.8 C 296.2 66.2 296.2 65.2 296.1 64.2 C 296.1 63.2 295.3 63.1 294.9 63.1 C 294.94 63.14 293.8 63.1 293.8 63.1 Z M 299.9 65.9 C 299.9 65.9 300.87 65.91 300.9 65.9 C 302.3 65.9 302.8 65.4 302.8 63.5 C 302.8 63.5 302.8 61.9 302.8 61.9 C 302.8 60.3 302.3 59.7 301.2 59.7 C 301.24 59.73 299.9 59.7 299.9 59.7 L 299.9 65.9 Z M 298.9 58.9 C 298.9 58.9 301.34 58.85 301.3 58.9 C 302.4 58.9 303.1 59.2 303.5 60.1 C 303.8 60.7 303.8 62.3 303.8 62.6 C 303.8 64.3 303.7 65.2 303.3 65.8 C 302.9 66.5 302.1 66.8 300.7 66.8 C 300.73 66.79 298.9 66.8 298.9 66.8 L 298.9 58.9 Z M 305.5 68.1 C 305.9 66.6 306.2 65 306.2 63.4 C 306.2 61.7 305.9 60.1 305.4 58.5 C 305.4 58.5 306.1 58.5 306.1 58.5 C 306.6 60.1 307.2 61.6 307.2 63.3 C 307.2 65 306.6 66.5 306.1 68.1 C 306.1 68.1 305.5 68.1 305.5 68.1 Z M 309.5 62.4 L 308.5 62.4 L 308.5 61.2 L 309.5 61.2 L 309.5 62.4 Z M 309.5 66.8 L 308.5 66.8 L 308.5 65.6 L 309.5 65.6 L 309.5 66.8 Z M 314.3 65.1 C 314.3 65.7 314.5 66.2 315.1 66.2 C 315.7 66.2 316.4 65.8 316.3 64 C 315.4 64 314.3 64 314.3 65.1 Z M 316.3 66 C 316.3 66 316.28 65.99 316.3 66 C 316 66.6 315.6 66.9 314.9 66.9 C 313.7 66.9 313.4 66.1 313.4 65.1 C 313.4 63.4 315 63.3 316.3 63.4 C 316.3 62.6 316.3 61.8 315.3 61.8 C 314.7 61.8 314.4 62.2 314.5 62.8 C 314.5 62.8 313.5 62.8 313.5 62.8 C 313.5 61.6 314.2 61.1 315.4 61.1 C 316.8 61.1 317.2 61.9 317.2 62.8 C 317.2 62.8 317.2 65.5 317.2 65.5 C 317.2 65.9 317.2 66.4 317.3 66.8 C 317.29 66.79 316.3 66.8 316.3 66.8 L 316.3 66 Z M 323.3 61.9 C 322.2 61.9 322.2 63.1 322.2 63.8 C 322.2 65.6 322.6 66 323.3 66 C 324.4 66 324.3 64.8 324.3 64 C 324.3 63.2 324.4 61.9 323.3 61.9 Z M 324.3 61.2 L 325.2 61.2 C 325.2 61.2 325.22 67.35 325.2 67.4 C 325.2 68.6 324.4 68.9 323.2 68.9 C 322.3 68.9 321.4 68.4 321.5 67.4 C 321.5 67.4 322.5 67.4 322.5 67.4 C 322.5 67.9 322.9 68.2 323.4 68.2 C 324 68.2 324.3 67.8 324.3 67.3 C 324.32 67.25 324.3 66.1 324.3 66.1 C 324.3 66.1 324.29 66.1 324.3 66.1 C 324.1 66.5 323.6 66.8 323.1 66.8 C 321.6 66.8 321.3 65.5 321.3 63.8 C 321.3 61.3 322.5 61.1 323 61.1 C 323.6 61.1 324 61.4 324.3 61.9 C 324.3 61.92 324.3 61.9 324.3 61.9 L 324.3 61.2 Z M 327.8 66.8 L 326.9 66.8 L 326.9 58.9 L 327.8 58.9 L 327.8 66.8 Z M 332.5 63.7 C 332.5 62.2 332 61.9 331.3 61.9 C 330.6 61.9 330.1 62.2 330.1 63.7 C 330.1 65.5 330.3 66.2 331.3 66.2 C 332.2 66.2 332.5 65.5 332.5 63.7 Z M 329.2 64.1 C 329.2 62.5 329.4 61.1 331.3 61.1 C 333.2 61.1 333.4 62.5 333.4 64.1 C 333.4 66.6 332.5 66.9 331.3 66.9 C 330.1 66.9 329.2 66.6 329.2 64.1 Z M 336.8 66.2 C 338 66.2 338 65 338 64.1 C 338 62.6 337.8 61.9 336.8 61.9 C 335.8 61.9 335.8 63.1 335.8 63.8 C 335.8 64.6 335.7 66.2 336.8 66.2 Z M 335.8 66.8 L 334.9 66.8 L 334.9 58.9 L 335.8 58.9 L 335.8 61.8 C 335.8 61.8 335.84 61.8 335.8 61.8 C 336.1 61.4 336.5 61.1 337.1 61.1 C 338.9 61.1 338.9 62.7 338.9 64.1 C 338.9 66.6 338 66.9 337.1 66.9 C 336.5 66.9 336.1 66.6 335.8 66.1 C 335.83 66.13 335.8 66.1 335.8 66.1 L 335.8 66.8 Z M 341.2 65.1 C 341.2 65.7 341.4 66.2 342 66.2 C 342.6 66.2 343.3 65.8 343.2 64 C 342.3 64 341.2 64 341.2 65.1 Z M 343.2 66 C 343.2 66 343.16 65.99 343.2 66 C 342.9 66.6 342.5 66.9 341.8 66.9 C 340.6 66.9 340.2 66.1 340.2 65.1 C 340.2 63.4 341.9 63.3 343.2 63.4 C 343.2 62.6 343.2 61.8 342.2 61.8 C 341.6 61.8 341.3 62.2 341.4 62.8 C 341.4 62.8 340.4 62.8 340.4 62.8 C 340.4 61.6 341.1 61.1 342.3 61.1 C 343.7 61.1 344.1 61.9 344.1 62.8 C 344.1 62.8 344.1 65.5 344.1 65.5 C 344.1 65.9 344.1 66.4 344.2 66.8 C 344.18 66.79 343.2 66.8 343.2 66.8 L 343.2 66 Z M 346.7 66.8 L 345.8 66.8 L 345.8 58.9 L 346.7 58.9 L 346.7 66.8 Z M 348.4 65.6 L 349.6 65.6 L 348.6 68.2 L 347.9 68.2 L 348.4 65.6 Z " stroke="none" fill="#fff"/>  </g>  <g id="Polygon195490">    <path d="M 35.2 53.6 L 34.2 53.6 L 34.2 47.1 L 33 47.8 C 33 47.8 33.02 46.87 33 46.9 C 33.3 46.8 34 46.2 34.3 46 C 34.31 45.96 35.2 46 35.2 46 L 35.2 53.6 Z M 38.6 53.6 L 37.6 53.6 L 37.6 52.4 L 38.6 52.4 L 38.6 53.6 Z M 46.2 47.8 C 46.2 47.4 46.1 46.9 45.9 46.7 C 45.7 46.4 45.2 46.3 45 46.3 C 44.2 46.3 43.9 46.8 43.8 47 C 43.8 47 43.6 47.2 43.6 48.6 C 43.6 48.6 43.6 50.7 43.6 50.7 C 43.6 52.7 44.2 52.9 45 52.9 C 45.3 52.9 46.3 52.8 46.3 51.3 C 46.3 51.3 47.3 51.3 47.3 51.3 C 47.4 53.8 45.6 53.8 45.1 53.8 C 44.1 53.8 42.6 53.7 42.6 50.6 C 42.6 50.6 42.6 48.4 42.6 48.4 C 42.6 46.1 43.6 45.5 45.1 45.5 C 46.7 45.5 47.3 46.3 47.2 47.8 C 47.2 47.8 46.2 47.8 46.2 47.8 Z M 49.6 48.9 C 49.6 48.9 49.63 48.87 49.6 48.9 C 50 48 50.5 47.9 51.3 47.9 C 51.3 47.9 51.3 48.9 51.3 48.9 C 51.3 48.9 51.2 48.8 51.1 48.8 C 51 48.8 51 48.8 50.9 48.8 C 49.9 48.8 49.6 49.6 49.6 50.3 C 49.61 50.31 49.6 53.6 49.6 53.6 L 48.7 53.6 L 48.7 48 L 49.6 48 L 49.6 48.9 Z M 53.2 51.9 C 53.2 52.5 53.4 53 54 53 C 54.6 53 55.3 52.6 55.2 50.8 C 54.3 50.8 53.2 50.8 53.2 51.9 Z M 55.2 52.8 C 55.2 52.8 55.18 52.79 55.2 52.8 C 54.9 53.4 54.5 53.7 53.8 53.7 C 52.6 53.7 52.3 52.9 52.3 51.9 C 52.3 50.2 53.9 50.1 55.2 50.2 C 55.2 49.4 55.2 48.6 54.2 48.6 C 53.6 48.6 53.3 49 53.4 49.6 C 53.4 49.6 52.4 49.6 52.4 49.6 C 52.4 48.4 53.1 47.9 54.3 47.9 C 55.7 47.9 56.1 48.7 56.1 49.6 C 56.1 49.6 56.1 52.3 56.1 52.3 C 56.1 52.7 56.1 53.2 56.2 53.6 C 56.19 53.59 55.2 53.6 55.2 53.6 L 55.2 52.8 Z M 58.7 53.6 L 57.8 53.6 L 57.8 48 L 58.7 48 L 58.7 53.6 Z M 57.8 45.7 L 58.8 45.7 L 58.8 46.6 L 57.8 46.6 L 57.8 45.7 Z M 62.2 48.7 C 61.1 48.7 61.1 49.9 61.1 50.6 C 61.1 52.4 61.5 52.8 62.2 52.8 C 63.3 52.8 63.2 51.6 63.2 50.8 C 63.2 50 63.3 48.7 62.2 48.7 Z M 63.2 48 L 64.1 48 C 64.1 48 64.12 54.15 64.1 54.2 C 64.1 55.4 63.3 55.7 62.1 55.7 C 61.1 55.7 60.3 55.2 60.4 54.2 C 60.4 54.2 61.4 54.2 61.4 54.2 C 61.4 54.7 61.8 55 62.2 55 C 62.9 55 63.2 54.6 63.2 54.1 C 63.22 54.05 63.2 52.9 63.2 52.9 C 63.2 52.9 63.18 52.9 63.2 52.9 C 63 53.3 62.4 53.6 62 53.6 C 60.5 53.6 60.2 52.3 60.2 50.6 C 60.2 48.1 61.4 47.9 61.9 47.9 C 62.5 47.9 62.9 48.2 63.2 48.7 C 63.2 48.72 63.2 48.7 63.2 48.7 L 63.2 48 Z M 68.8 51.1 C 68.8 51.8 68.7 52.9 69.8 52.9 C 70.9 52.9 70.9 52 70.9 51 C 70.93 51.02 70.9 45.7 70.9 45.7 L 71.9 45.7 C 71.9 45.7 71.94 51.62 71.9 51.6 C 71.9 52.1 71.9 53.8 69.8 53.8 C 69.3 53.8 68.5 53.6 68.1 53 C 67.8 52.4 67.8 51.8 67.8 51.1 C 67.8 51.1 68.8 51.1 68.8 51.1 Z M 73.9 52.4 L 75 52.4 L 74 55 L 73.3 55 L 73.9 52.4 Z M 81.7 50.4 C 81.7 48.8 81.2 48.6 80.5 48.6 C 80 48.6 79.5 48.9 79.5 50.4 C 79.5 50.4 81.7 50.4 81.7 50.4 Z M 79.5 51.1 C 79.5 52.7 79.9 53 80.6 53 C 81.2 53 81.5 52.5 81.6 51.9 C 81.6 51.9 82.6 51.9 82.6 51.9 C 82.6 53.1 81.8 53.7 80.6 53.7 C 79.5 53.7 78.5 53.4 78.5 50.9 C 78.5 49.3 78.7 47.9 80.6 47.9 C 82.2 47.9 82.6 48.8 82.6 50.6 C 82.61 50.63 82.6 51.1 82.6 51.1 C 82.6 51.1 79.49 51.11 79.5 51.1 Z M 84.2 48 L 84.2 47 L 85.1 46.6 L 85.1 48 L 86.3 48 L 86.3 48.7 L 85.1 48.7 C 85.1 48.7 85.11 52.12 85.1 52.1 C 85.1 52.5 85.1 52.9 85.9 52.9 C 86 52.9 86.1 52.9 86.3 52.9 C 86.3 52.9 86.3 53.6 86.3 53.6 C 86 53.6 85.7 53.7 85.4 53.7 C 84.6 53.7 84.2 53.3 84.2 52.7 C 84.21 52.67 84.2 48.7 84.2 48.7 L 83.3 48.7 L 83.3 48 L 84.2 48 Z M 90.4 51.9 C 90.4 52.5 90.7 53 91.3 53 C 91.8 53 92.5 52.6 92.4 50.8 C 91.6 50.8 90.4 50.8 90.4 51.9 Z M 92.5 52.8 C 92.5 52.8 92.44 52.79 92.4 52.8 C 92.2 53.4 91.7 53.7 91 53.7 C 89.9 53.7 89.5 52.9 89.5 51.9 C 89.5 50.2 91.2 50.1 92.4 50.2 C 92.5 49.4 92.5 48.6 91.5 48.6 C 90.9 48.6 90.6 49 90.6 49.6 C 90.6 49.6 89.7 49.6 89.7 49.6 C 89.7 48.4 90.4 47.9 91.5 47.9 C 93 47.9 93.3 48.7 93.3 49.6 C 93.3 49.6 93.3 52.3 93.3 52.3 C 93.3 52.7 93.4 53.2 93.5 53.6 C 93.45 53.59 92.5 53.6 92.5 53.6 L 92.5 52.8 Z M 96 53.6 L 95.1 53.6 L 95.1 45.7 L 96 45.7 L 96 53.6 Z M 98.5 53.6 L 97.5 53.6 L 97.5 52.4 L 98.5 52.4 L 98.5 53.6 Z M 102.5 53.6 L 102.5 45.7 L 106.6 45.7 L 106.6 46.5 L 103.5 46.5 L 103.5 49.1 L 106.4 49.1 L 106.4 50 L 103.5 50 L 103.5 52.7 L 106.7 52.7 L 106.7 53.6 L 102.5 53.6 Z M 108.1 48 C 108.1 48 108.1 46.96 108.1 47 C 108.1 45.8 108.9 45.6 109.7 45.6 C 109.9 45.6 110 45.6 110.1 45.7 C 110.1 45.7 110.1 46.3 110.1 46.3 C 109.2 46.2 109 46.6 109 47.1 C 109 47.09 109 48 109 48 L 110.1 48 L 110.1 48.7 L 109 48.7 L 109 53.6 L 108.1 53.6 L 108.1 48.7 L 107.2 48.7 L 107.2 48 L 108.1 48 Z M 114.8 53.6 L 113.9 53.6 L 113.9 48 L 114.8 48 L 114.8 53.6 Z M 113.9 45.7 L 114.9 45.7 L 114.9 46.6 L 113.9 46.6 L 113.9 45.7 Z M 111.2 48 C 111.2 48 111.15 46.96 111.2 47 C 111.2 45.8 111.9 45.6 112.7 45.6 C 112.9 45.6 113 45.6 113.2 45.7 C 113.2 45.7 113.2 46.3 113.2 46.3 C 112.2 46.2 112.1 46.6 112.1 47.1 C 112.06 47.09 112.1 48 112.1 48 L 113.2 48 L 113.2 48.7 L 112.1 48.7 L 112.1 53.6 L 111.2 53.6 L 111.2 48.7 L 110.3 48.7 L 110.3 48 L 111.2 48 Z M 119.4 49.8 C 119.4 48.9 119 48.7 118.6 48.7 C 117.9 48.7 117.5 49 117.5 50.5 C 117.5 52.3 117.7 53 118.6 53 C 118.8 53 119.5 52.7 119.4 51.7 C 119.4 51.7 120.4 51.7 120.4 51.7 C 120.4 53.3 119.2 53.7 118.6 53.7 C 117.4 53.7 116.5 53.4 116.5 50.9 C 116.5 49.3 116.7 47.9 118.6 47.9 C 119.7 47.9 120.4 48.6 120.3 49.8 C 120.3 49.8 119.4 49.8 119.4 49.8 Z M 122.8 51.9 C 122.8 52.5 123.1 53 123.7 53 C 124.2 53 124.9 52.6 124.8 50.8 C 124 50.8 122.8 50.8 122.8 51.9 Z M 124.8 52.8 C 124.8 52.8 124.83 52.79 124.8 52.8 C 124.6 53.4 124.1 53.7 123.4 53.7 C 122.3 53.7 121.9 52.9 121.9 51.9 C 121.9 50.2 123.6 50.1 124.8 50.2 C 124.8 49.4 124.9 48.6 123.9 48.6 C 123.3 48.6 123 49 123 49.6 C 123 49.6 122 49.6 122 49.6 C 122.1 48.4 122.7 47.9 123.9 47.9 C 125.4 47.9 125.7 48.7 125.7 49.6 C 125.7 49.6 125.7 52.3 125.7 52.3 C 125.7 52.7 125.8 53.2 125.8 53.6 C 125.84 53.59 124.8 53.6 124.8 53.6 L 124.8 52.8 Z M 130.4 49.8 C 130.4 48.9 130 48.7 129.6 48.7 C 128.9 48.7 128.5 49 128.5 50.5 C 128.5 52.3 128.7 53 129.6 53 C 129.8 53 130.5 52.7 130.4 51.7 C 130.4 51.7 131.4 51.7 131.4 51.7 C 131.4 53.3 130.2 53.7 129.6 53.7 C 128.4 53.7 127.5 53.4 127.5 50.9 C 127.5 49.3 127.7 47.9 129.6 47.9 C 130.7 47.9 131.4 48.6 131.3 49.8 C 131.3 49.8 130.4 49.8 130.4 49.8 Z M 134.7 52.6 L 134.7 52.6 L 136 48 L 137 48 L 134.5 55.7 L 133.5 55.7 L 134.2 53.6 L 132.3 48 L 133.3 48 L 134.7 52.6 Z M 141.1 51.9 C 141.1 52.5 141.4 53 142 53 C 142.6 53 143.2 52.6 143.2 50.8 C 142.3 50.8 141.1 50.8 141.1 51.9 Z M 143.2 52.8 C 143.2 52.8 143.15 52.79 143.2 52.8 C 142.9 53.4 142.4 53.7 141.8 53.7 C 140.6 53.7 140.2 52.9 140.2 51.9 C 140.2 50.2 141.9 50.1 143.2 50.2 C 143.2 49.4 143.2 48.6 142.2 48.6 C 141.6 48.6 141.3 49 141.3 49.6 C 141.3 49.6 140.4 49.6 140.4 49.6 C 140.4 48.4 141.1 47.9 142.3 47.9 C 143.7 47.9 144.1 48.7 144.1 49.6 C 144.1 49.6 144.1 52.3 144.1 52.3 C 144.1 52.7 144.1 53.2 144.2 53.6 C 144.16 53.59 143.2 53.6 143.2 53.6 L 143.2 52.8 Z M 148.8 53.6 C 148.8 53.6 148.83 49.74 148.8 49.7 C 148.8 49.1 148.6 48.7 147.8 48.7 C 146.9 48.7 146.7 49.5 146.7 50.3 C 146.72 50.3 146.7 53.6 146.7 53.6 L 145.8 53.6 C 145.8 53.6 145.82 49.19 145.8 49.2 C 145.8 48.8 145.8 48.4 145.8 48 C 145.76 48.04 146.7 48 146.7 48 L 146.7 48.8 C 146.7 48.8 146.76 48.75 146.8 48.8 C 147.1 48.1 147.5 47.9 148.2 47.9 C 149.4 47.9 149.7 48.6 149.7 49.7 C 149.73 49.74 149.7 53.6 149.7 53.6 L 148.8 53.6 Z M 153.2 48.7 C 152.2 48.7 152.1 49.4 152.1 50.9 C 152.1 51.8 152.1 53 153.2 53 C 154.3 53 154.3 51.7 154.3 50.6 C 154.3 49.9 154.2 48.7 153.2 48.7 Z M 154.3 45.7 L 155.2 45.7 L 155.2 53.6 L 154.3 53.6 L 154.3 52.9 C 154.3 52.9 154.23 52.93 154.2 52.9 C 153.9 53.4 153.5 53.7 153 53.7 C 152.1 53.7 151.2 53.4 151.2 50.9 C 151.2 49.5 151.2 47.9 153 47.9 C 153.5 47.9 153.9 48.2 154.2 48.6 C 154.22 48.6 154.3 48.6 154.3 48.6 L 154.3 45.7 Z M 160.9 53.7 C 159.7 53.7 158.9 53.2 159 51.9 C 159 51.9 160 51.9 160 51.9 C 160 52.2 160 53 160.9 53 C 161.5 53 161.9 52.7 161.9 52.1 C 161.9 51.1 159.1 51.1 159.1 49.4 C 159.1 48.9 159.5 47.9 161 47.9 C 162 47.9 162.9 48.4 162.8 49.5 C 162.8 49.5 161.8 49.5 161.8 49.5 C 161.8 48.9 161.5 48.6 160.9 48.6 C 160.4 48.6 160.1 48.9 160.1 49.4 C 160.1 50.3 162.8 50.3 162.8 52 C 162.8 53.2 162 53.7 160.9 53.7 Z M 165 51.9 C 165 52.5 165.2 53 165.8 53 C 166.4 53 167.1 52.6 167 50.8 C 166.1 50.8 165 50.8 165 51.9 Z M 167 52.8 C 167 52.8 166.98 52.79 167 52.8 C 166.7 53.4 166.3 53.7 165.6 53.7 C 164.4 53.7 164.1 52.9 164.1 51.9 C 164.1 50.2 165.7 50.1 167 50.2 C 167 49.4 167 48.6 166 48.6 C 165.4 48.6 165.1 49 165.2 49.6 C 165.2 49.6 164.2 49.6 164.2 49.6 C 164.2 48.4 164.9 47.9 166.1 47.9 C 167.5 47.9 167.9 48.7 167.9 49.6 C 167.9 49.6 167.9 52.3 167.9 52.3 C 167.9 52.7 167.9 53.2 168 53.6 C 167.99 53.59 167 53.6 167 53.6 L 167 52.8 Z M 169.8 48 C 169.8 48 169.81 46.96 169.8 47 C 169.8 45.8 170.6 45.6 171.4 45.6 C 171.6 45.6 171.7 45.6 171.8 45.7 C 171.8 45.7 171.8 46.3 171.8 46.3 C 170.9 46.2 170.7 46.6 170.7 47.1 C 170.71 47.09 170.7 48 170.7 48 L 171.8 48 L 171.8 48.7 L 170.7 48.7 L 170.7 53.6 L 169.8 53.6 L 169.8 48.7 L 168.9 48.7 L 168.9 48 L 169.8 48 Z M 175.7 50.4 C 175.7 48.8 175.3 48.6 174.6 48.6 C 174.1 48.6 173.6 48.9 173.6 50.4 C 173.6 50.4 175.7 50.4 175.7 50.4 Z M 173.6 51.1 C 173.6 52.7 174 53 174.7 53 C 175.3 53 175.6 52.5 175.7 51.9 C 175.7 51.9 176.7 51.9 176.7 51.9 C 176.6 53.1 175.9 53.7 174.7 53.7 C 173.5 53.7 172.6 53.4 172.6 50.9 C 172.6 49.3 172.8 47.9 174.7 47.9 C 176.3 47.9 176.7 48.8 176.7 50.6 C 176.7 50.63 176.7 51.1 176.7 51.1 C 176.7 51.1 173.58 51.11 173.6 51.1 Z M 178.3 48 L 178.3 47 L 179.2 46.6 L 179.2 48 L 180.4 48 L 180.4 48.7 L 179.2 48.7 C 179.2 48.7 179.2 52.12 179.2 52.1 C 179.2 52.5 179.2 52.9 180 52.9 C 180.1 52.9 180.2 52.9 180.4 52.9 C 180.4 52.9 180.4 53.6 180.4 53.6 C 180.1 53.6 179.8 53.7 179.5 53.7 C 178.7 53.7 178.3 53.3 178.3 52.7 C 178.3 52.67 178.3 48.7 178.3 48.7 L 177.4 48.7 L 177.4 48 L 178.3 48 Z M 182.9 52.6 L 183 52.6 L 184.3 48 L 185.3 48 L 182.7 55.7 L 181.8 55.7 L 182.4 53.6 L 180.6 48 L 181.6 48 L 182.9 52.6 Z M 191.7 50.5 C 191.7 49 191.2 48.7 190.5 48.7 C 189.8 48.7 189.4 49 189.4 50.5 C 189.4 52.3 189.6 53 190.5 53 C 191.5 53 191.7 52.3 191.7 50.5 Z M 188.4 50.9 C 188.4 49.3 188.6 47.9 190.5 47.9 C 192.5 47.9 192.7 49.3 192.7 50.9 C 192.7 53.4 191.7 53.7 190.5 53.7 C 189.4 53.7 188.4 53.4 188.4 50.9 Z M 194.2 48 C 194.2 48 194.25 46.96 194.2 47 C 194.2 45.8 195 45.6 195.8 45.6 C 196 45.6 196.1 45.6 196.3 45.7 C 196.3 45.7 196.3 46.3 196.3 46.3 C 195.3 46.2 195.1 46.6 195.1 47.1 C 195.15 47.09 195.1 48 195.1 48 L 196.3 48 L 196.3 48.7 L 195.1 48.7 L 195.1 53.6 L 194.2 53.6 L 194.2 48.7 L 193.4 48.7 L 193.4 48 L 194.2 48 Z M 201.5 48.7 C 200.4 48.7 200.4 49.9 200.4 50.6 C 200.4 52.4 200.8 52.8 201.5 52.8 C 202.6 52.8 202.5 51.6 202.5 50.8 C 202.5 50 202.6 48.7 201.5 48.7 Z M 202.5 48 L 203.4 48 C 203.4 48 203.42 54.15 203.4 54.2 C 203.4 55.4 202.6 55.7 201.4 55.7 C 200.5 55.7 199.6 55.2 199.7 54.2 C 199.7 54.2 200.7 54.2 200.7 54.2 C 200.7 54.7 201.1 55 201.6 55 C 202.2 55 202.5 54.6 202.5 54.1 C 202.52 54.05 202.5 52.9 202.5 52.9 C 202.5 52.9 202.49 52.9 202.5 52.9 C 202.3 53.3 201.7 53.6 201.3 53.6 C 199.8 53.6 199.5 52.3 199.5 50.6 C 199.5 48.1 200.7 47.9 201.2 47.9 C 201.8 47.9 202.2 48.2 202.5 48.7 C 202.5 48.72 202.5 48.7 202.5 48.7 L 202.5 48 Z M 205.9 51.9 C 205.9 52.5 206.2 53 206.8 53 C 207.3 53 208 52.6 207.9 50.8 C 207.1 50.8 205.9 50.8 205.9 51.9 Z M 207.9 52.8 C 207.9 52.8 207.92 52.79 207.9 52.8 C 207.6 53.4 207.2 53.7 206.5 53.7 C 205.3 53.7 205 52.9 205 51.9 C 205 50.2 206.7 50.1 207.9 50.2 C 207.9 49.4 208 48.6 207 48.6 C 206.4 48.6 206.1 49 206.1 49.6 C 206.1 49.6 205.1 49.6 205.1 49.6 C 205.2 48.4 205.8 47.9 207 47.9 C 208.4 47.9 208.8 48.7 208.8 49.6 C 208.8 49.6 208.8 52.3 208.8 52.3 C 208.8 52.7 208.9 53.2 208.9 53.6 C 208.93 53.59 207.9 53.6 207.9 53.6 L 207.9 52.8 Z M 211.5 48.9 C 211.5 48.9 211.54 48.87 211.5 48.9 C 211.9 48 212.4 47.9 213.3 47.9 C 213.3 47.9 213.3 48.9 213.3 48.9 C 213.2 48.9 213.1 48.8 213 48.8 C 212.9 48.8 212.9 48.8 212.8 48.8 C 211.8 48.8 211.5 49.6 211.5 50.3 C 211.52 50.31 211.5 53.6 211.5 53.6 L 210.6 53.6 L 210.6 48 L 211.5 48 L 211.5 48.9 Z M 215.1 51.9 C 215.1 52.5 215.3 53 215.9 53 C 216.5 53 217.2 52.6 217.1 50.8 C 216.2 50.8 215.1 50.8 215.1 51.9 Z M 217.1 52.8 C 217.1 52.8 217.08 52.79 217.1 52.8 C 216.8 53.4 216.4 53.7 215.7 53.7 C 214.5 53.7 214.2 52.9 214.2 51.9 C 214.2 50.2 215.8 50.1 217.1 50.2 C 217.1 49.4 217.1 48.6 216.1 48.6 C 215.5 48.6 215.2 49 215.3 49.6 C 215.3 49.6 214.3 49.6 214.3 49.6 C 214.3 48.4 215 47.9 216.2 47.9 C 217.6 47.9 218 48.7 218 49.6 C 218 49.6 218 52.3 218 52.3 C 218 52.7 218 53.2 218.1 53.6 C 218.09 53.59 217.1 53.6 217.1 53.6 L 217.1 52.8 Z M 221.6 48.7 C 220.7 48.7 220.5 49.4 220.5 50.9 C 220.5 51.8 220.5 53 221.7 53 C 222.7 53 222.7 51.7 222.7 50.6 C 222.7 49.9 222.6 48.7 221.6 48.7 Z M 222.7 45.7 L 223.6 45.7 L 223.6 53.6 L 222.7 53.6 L 222.7 52.9 C 222.7 52.9 222.66 52.93 222.7 52.9 C 222.4 53.4 222 53.7 221.4 53.7 C 220.5 53.7 219.6 53.4 219.6 50.9 C 219.6 49.5 219.6 47.9 221.4 47.9 C 222 47.9 222.3 48.2 222.6 48.6 C 222.65 48.6 222.7 48.6 222.7 48.6 L 222.7 45.7 Z M 226.1 51.9 C 226.1 52.5 226.3 53 226.9 53 C 227.5 53 228.2 52.6 228.1 50.8 C 227.2 50.8 226.1 50.8 226.1 51.9 Z M 228.1 52.8 C 228.1 52.8 228.08 52.79 228.1 52.8 C 227.8 53.4 227.4 53.7 226.7 53.7 C 225.5 53.7 225.2 52.9 225.2 51.9 C 225.2 50.2 226.8 50.1 228.1 50.2 C 228.1 49.4 228.1 48.6 227.1 48.6 C 226.5 48.6 226.2 49 226.3 49.6 C 226.3 49.6 225.3 49.6 225.3 49.6 C 225.3 48.4 226 47.9 227.2 47.9 C 228.6 47.9 229 48.7 229 49.6 C 229 49.6 229 52.3 229 52.3 C 229 52.7 229 53.2 229.1 53.6 C 229.09 53.59 228.1 53.6 228.1 53.6 L 228.1 52.8 Z M 233.6 49.8 C 233.7 48.9 233.2 48.7 232.9 48.7 C 232.2 48.7 231.7 49 231.7 50.5 C 231.7 52.3 231.9 53 232.9 53 C 233.1 53 233.7 52.7 233.7 51.7 C 233.7 51.7 234.6 51.7 234.6 51.7 C 234.7 53.3 233.5 53.7 232.9 53.7 C 231.7 53.7 230.8 53.4 230.8 50.9 C 230.8 49.3 231 47.9 232.9 47.9 C 234 47.9 234.6 48.6 234.6 49.8 C 234.6 49.8 233.6 49.8 233.6 49.8 Z M 237.1 53.6 L 236.2 53.6 L 236.2 48 L 237.1 48 L 237.1 53.6 Z M 236.2 45.7 L 237.2 45.7 L 237.2 46.6 L 236.2 46.6 L 236.2 45.7 Z M 241.4 53.6 C 241.4 53.6 241.42 49.74 241.4 49.7 C 241.4 49.2 241.3 48.7 240.5 48.7 C 240.3 48.7 239.9 48.8 239.8 49 C 239.6 49.3 239.5 49.6 239.5 49.9 C 239.54 49.85 239.5 53.6 239.5 53.6 L 238.6 53.6 C 238.6 53.6 238.64 49.19 238.6 49.2 C 238.6 48.8 238.6 48.4 238.6 48 C 238.59 48.04 239.5 48 239.5 48 L 239.5 48.7 C 239.5 48.7 239.57 48.73 239.6 48.7 C 239.8 48.1 240.3 47.9 241 47.9 C 241.5 47.9 242 48.1 242.3 48.6 C 242.6 48 243.1 47.9 243.6 47.9 C 244.2 47.9 245.1 48.1 245.1 49.4 C 245.09 49.37 245.1 53.6 245.1 53.6 L 244.2 53.6 C 244.2 53.6 244.19 49.74 244.2 49.7 C 244.2 49.2 244 48.7 243.3 48.7 C 243 48.7 242.9 48.7 242.6 48.9 C 242.4 49.1 242.3 49.6 242.3 49.9 C 242.32 49.85 242.3 53.6 242.3 53.6 L 241.4 53.6 Z M 247.5 51.9 C 247.5 52.5 247.7 53 248.3 53 C 248.9 53 249.6 52.6 249.5 50.8 C 248.6 50.8 247.5 50.8 247.5 51.9 Z M 249.5 52.8 C 249.5 52.8 249.47 52.79 249.5 52.8 C 249.2 53.4 248.8 53.7 248.1 53.7 C 246.9 53.7 246.6 52.9 246.6 51.9 C 246.6 50.2 248.2 50.1 249.5 50.2 C 249.5 49.4 249.5 48.6 248.5 48.6 C 247.9 48.6 247.6 49 247.7 49.6 C 247.7 49.6 246.7 49.6 246.7 49.6 C 246.7 48.4 247.4 47.9 248.6 47.9 C 250 47.9 250.4 48.7 250.4 49.6 C 250.4 49.6 250.4 52.3 250.4 52.3 C 250.4 52.7 250.4 53.2 250.5 53.6 C 250.48 53.59 249.5 53.6 249.5 53.6 L 249.5 52.8 Z M 254.1 53 C 255.3 53 255.3 51.8 255.3 50.9 C 255.3 49.4 255.1 48.7 254.2 48.7 C 253.2 48.7 253.1 49.9 253.1 50.6 C 253.1 51.4 253 53 254.1 53 Z M 253.1 53.6 L 252.2 53.6 L 252.2 45.7 L 253.1 45.7 L 253.1 48.6 C 253.1 48.6 253.14 48.6 253.1 48.6 C 253.4 48.2 253.8 47.9 254.4 47.9 C 256.2 47.9 256.2 49.5 256.2 50.9 C 256.2 53.4 255.3 53.7 254.4 53.7 C 253.8 53.7 253.4 53.4 253.1 52.9 C 253.13 52.93 253.1 52.9 253.1 52.9 L 253.1 53.6 Z M 257.8 52.4 L 258.9 52.4 L 257.9 55 L 257.2 55 L 257.8 52.4 Z M 263.3 51.9 C 263.3 52.5 263.6 53 264.2 53 C 264.8 53 265.4 52.6 265.4 50.8 C 264.5 50.8 263.3 50.8 263.3 51.9 Z M 265.4 52.8 C 265.4 52.8 265.35 52.79 265.4 52.8 C 265.1 53.4 264.6 53.7 264 53.7 C 262.8 53.7 262.4 52.9 262.4 51.9 C 262.4 50.2 264.1 50.1 265.4 50.2 C 265.4 49.4 265.4 48.6 264.4 48.6 C 263.8 48.6 263.5 49 263.5 49.6 C 263.5 49.6 262.6 49.6 262.6 49.6 C 262.6 48.4 263.3 47.9 264.4 47.9 C 265.9 47.9 266.3 48.7 266.3 49.6 C 266.3 49.6 266.3 52.3 266.3 52.3 C 266.3 52.7 266.3 53.2 266.4 53.6 C 266.36 53.59 265.4 53.6 265.4 53.6 L 265.4 52.8 Z M 270.6 48 C 270.6 48 270.62 46.96 270.6 47 C 270.6 45.8 271.4 45.6 272.2 45.6 C 272.4 45.6 272.5 45.6 272.6 45.7 C 272.6 45.7 272.6 46.3 272.6 46.3 C 271.7 46.2 271.5 46.6 271.5 47.1 C 271.52 47.09 271.5 48 271.5 48 L 272.6 48 L 272.6 48.7 L 271.5 48.7 L 271.5 53.6 L 270.6 53.6 L 270.6 48.7 L 269.8 48.7 L 269.8 48 L 270.6 48 Z M 274.3 51.9 C 274.3 52.5 274.6 53 275.2 53 C 275.8 53 276.4 52.6 276.4 50.8 C 275.5 50.8 274.3 50.8 274.3 51.9 Z M 276.4 52.8 C 276.4 52.8 276.35 52.79 276.4 52.8 C 276.1 53.4 275.6 53.7 275 53.7 C 273.8 53.7 273.4 52.9 273.4 51.9 C 273.4 50.2 275.1 50.1 276.4 50.2 C 276.4 49.4 276.4 48.6 275.4 48.6 C 274.8 48.6 274.5 49 274.5 49.6 C 274.5 49.6 273.6 49.6 273.6 49.6 C 273.6 48.4 274.3 47.9 275.4 47.9 C 276.9 47.9 277.3 48.7 277.3 49.6 C 277.3 49.6 277.3 52.3 277.3 52.3 C 277.3 52.7 277.3 53.2 277.4 53.6 C 277.36 53.59 276.4 53.6 276.4 53.6 L 276.4 52.8 Z M 281.9 49.8 C 281.9 48.9 281.5 48.7 281.1 48.7 C 280.5 48.7 280 49 280 50.5 C 280 52.3 280.2 53 281.1 53 C 281.4 53 282 52.7 281.9 51.7 C 281.9 51.7 282.9 51.7 282.9 51.7 C 282.9 53.3 281.8 53.7 281.1 53.7 C 280 53.7 279 53.4 279 50.9 C 279 49.3 279.2 47.9 281.1 47.9 C 282.3 47.9 282.9 48.6 282.9 49.8 C 282.9 49.8 281.9 49.8 281.9 49.8 Z M 284.6 48 L 284.6 47 L 285.5 46.6 L 285.5 48 L 286.7 48 L 286.7 48.7 L 285.5 48.7 C 285.5 48.7 285.51 52.12 285.5 52.1 C 285.5 52.5 285.5 52.9 286.3 52.9 C 286.4 52.9 286.5 52.9 286.7 52.9 C 286.7 52.9 286.7 53.6 286.7 53.6 C 286.4 53.6 286.2 53.7 285.9 53.7 C 285 53.7 284.6 53.3 284.6 52.7 C 284.61 52.67 284.6 48.7 284.6 48.7 L 283.7 48.7 L 283.7 48 L 284.6 48 Z M 290.7 50.5 C 290.7 49 290.2 48.7 289.5 48.7 C 288.8 48.7 288.4 49 288.4 50.5 C 288.4 52.3 288.6 53 289.5 53 C 290.5 53 290.7 52.3 290.7 50.5 Z M 287.4 50.9 C 287.4 49.3 287.6 47.9 289.5 47.9 C 291.5 47.9 291.6 49.3 291.6 50.9 C 291.6 53.4 290.7 53.7 289.5 53.7 C 288.4 53.7 287.4 53.4 287.4 50.9 Z M 294 48.9 C 294 48.9 294.03 48.87 294 48.9 C 294.4 48 294.9 47.9 295.7 47.9 C 295.7 47.9 295.7 48.9 295.7 48.9 C 295.7 48.9 295.6 48.8 295.5 48.8 C 295.4 48.8 295.3 48.8 295.3 48.8 C 294.3 48.8 294 49.6 294 50.3 C 294 50.31 294 53.6 294 53.6 L 293.1 53.6 L 293.1 48 L 294 48 L 294 48.9 Z M 304.4 53.6 L 303.1 53.6 L 301.3 50.2 L 299.5 53.6 L 298.4 53.6 L 300.7 49.5 L 298.6 45.7 L 299.7 45.7 L 301.4 48.7 L 303 45.7 L 304.1 45.7 L 302 49.5 L 304.4 53.6 Z M 306.5 53.6 L 305.5 53.6 L 305.5 45.7 L 306.5 45.7 L 306.5 53.6 Z M 309.6 53.6 L 308.6 53.6 L 308.6 45.7 L 309.6 45.7 L 309.6 53.6 Z M 312.2 51.9 C 312.2 52.5 312.5 53 313.1 53 C 313.7 53 314.3 52.6 314.2 50.8 C 313.4 50.8 312.2 50.8 312.2 51.9 Z M 314.3 52.8 C 314.3 52.8 314.25 52.79 314.2 52.8 C 314 53.4 313.5 53.7 312.8 53.7 C 311.7 53.7 311.3 52.9 311.3 51.9 C 311.3 50.2 313 50.1 314.2 50.2 C 314.3 49.4 314.3 48.6 313.3 48.6 C 312.7 48.6 312.4 49 312.4 49.6 C 312.4 49.6 311.5 49.6 311.5 49.6 C 311.5 48.4 312.2 47.9 313.3 47.9 C 314.8 47.9 315.1 48.7 315.1 49.6 C 315.1 49.6 315.1 52.3 315.1 52.3 C 315.1 52.7 315.2 53.2 315.3 53.6 C 315.26 53.59 314.3 53.6 314.3 53.6 L 314.3 52.8 Z " stroke="none" fill="#fff"/>  </g>  <g id="Polygon195489">    <path d="M 34.3 31.5 C 34.3 31.5 35.06 31.45 35.1 31.5 C 35.7 31.5 35.9 30.8 35.9 30.3 C 35.9 29.5 35.6 29.2 35.1 29.2 C 35.06 29.24 34.3 29.2 34.3 29.2 L 34.3 31.5 Z M 34.3 36 L 32.7 36 L 32.7 28 C 32.7 28 35.73 28.02 35.7 28 C 36.9 28 37.6 28.7 37.6 30.1 C 37.6 31.1 37.2 31.9 36.1 32 C 36.1 32 36.1 32.1 36.1 32.1 C 36.5 32.1 37.6 32.2 37.6 33.6 C 37.6 34.1 37.6 35.6 37.7 36 C 37.7 36 36.1 36 36.1 36 C 35.9 35.5 35.9 34.9 35.9 34.4 C 35.9 33.5 36 32.7 34.7 32.7 C 34.75 32.67 34.3 32.7 34.3 32.7 L 34.3 36 Z M 41.6 32.6 C 41.6 32 41.6 31.3 40.9 31.3 C 40.2 31.3 40.2 32.1 40.2 32.6 C 40.2 32.6 41.6 32.6 41.6 32.6 Z M 40.2 33.4 C 40.2 34.1 40.2 35.1 40.9 35.1 C 41.4 35.1 41.5 34.6 41.5 34.1 C 41.5 34.1 43.1 34.1 43.1 34.1 C 43.1 34.7 42.9 35.2 42.5 35.5 C 42.1 35.9 41.6 36.1 40.9 36.1 C 38.9 36.1 38.6 34.9 38.6 33.1 C 38.6 31.6 38.8 30.3 40.9 30.3 C 43 30.3 43.2 31.7 43.1 33.4 C 43.1 33.4 40.2 33.4 40.2 33.4 Z M 46.6 29 C 46 28.9 45.9 29.2 45.9 29.7 C 45.86 29.74 45.9 30.4 45.9 30.4 L 46.6 30.4 L 46.6 31.4 L 45.9 31.4 L 45.9 36 L 44.3 36 L 44.3 31.4 L 43.6 31.4 L 43.6 30.4 C 43.6 30.4 44.32 30.41 44.3 30.4 C 44.3 28.8 44.2 28 46.1 28 C 46.3 28 46.4 28 46.6 28 C 46.6 28 46.6 29 46.6 29 Z M 50.1 32.6 C 50.1 32 50.2 31.3 49.4 31.3 C 48.7 31.3 48.7 32.1 48.7 32.6 C 48.7 32.6 50.1 32.6 50.1 32.6 Z M 48.7 33.4 C 48.7 34.1 48.7 35.1 49.4 35.1 C 50 35.1 50.1 34.6 50.1 34.1 C 50.1 34.1 51.7 34.1 51.7 34.1 C 51.6 34.7 51.4 35.2 51.1 35.5 C 50.7 35.9 50.2 36.1 49.4 36.1 C 47.4 36.1 47.2 34.9 47.2 33.1 C 47.2 31.6 47.4 30.3 49.4 30.3 C 51.5 30.3 51.7 31.7 51.7 33.4 C 51.7 33.4 48.7 33.4 48.7 33.4 Z M 54.3 30.4 L 54.3 31.1 C 54.3 31.1 54.29 31.12 54.3 31.1 C 54.6 30.5 55.1 30.3 55.7 30.3 C 55.7 30.3 55.7 31.7 55.7 31.7 C 54.4 31.6 54.3 32.4 54.3 32.9 C 54.34 32.94 54.3 36 54.3 36 L 52.8 36 L 52.8 30.4 L 54.3 30.4 Z M 59.3 32.6 C 59.3 32 59.3 31.3 58.6 31.3 C 57.9 31.3 57.9 32.1 57.9 32.6 C 57.9 32.6 59.3 32.6 59.3 32.6 Z M 57.9 33.4 C 57.9 34.1 57.9 35.1 58.6 35.1 C 59.1 35.1 59.2 34.6 59.2 34.1 C 59.2 34.1 60.8 34.1 60.8 34.1 C 60.8 34.7 60.6 35.2 60.2 35.5 C 59.9 35.9 59.3 36.1 58.6 36.1 C 56.6 36.1 56.3 34.9 56.3 33.1 C 56.3 31.6 56.5 30.3 58.6 30.3 C 60.7 30.3 60.9 31.7 60.9 33.4 C 60.9 33.4 57.9 33.4 57.9 33.4 Z M 63.5 31 C 63.5 31 63.53 30.97 63.5 31 C 63.7 30.7 63.9 30.6 64.1 30.5 C 64.3 30.3 64.5 30.3 64.8 30.3 C 65.6 30.3 66.2 30.7 66.2 31.5 C 66.22 31.51 66.2 36 66.2 36 L 64.7 36 C 64.7 36 64.67 32.14 64.7 32.1 C 64.7 31.6 64.6 31.3 64.1 31.3 C 63.6 31.3 63.5 31.6 63.5 32.1 C 63.5 32.14 63.5 36 63.5 36 L 62 36 L 62 30.4 L 63.5 30.4 L 63.5 31 Z M 70.3 32.4 C 70.3 31.6 70.1 31.3 69.6 31.3 C 68.9 31.3 68.9 31.9 68.9 33 C 68.9 34.7 69 35.1 69.6 35.1 C 70.1 35.1 70.3 34.6 70.3 33.9 C 70.3 33.9 71.9 33.9 71.9 33.9 C 71.9 35.4 71 36.1 69.6 36.1 C 67.6 36.1 67.3 34.9 67.3 33.1 C 67.3 31.6 67.5 30.3 69.6 30.3 C 71 30.3 71.8 30.9 71.8 32.4 C 71.8 32.4 70.3 32.4 70.3 32.4 Z M 75.8 32.6 C 75.8 32 75.8 31.3 75.1 31.3 C 74.4 31.3 74.4 32.1 74.4 32.6 C 74.4 32.6 75.8 32.6 75.8 32.6 Z M 74.4 33.4 C 74.4 34.1 74.4 35.1 75.1 35.1 C 75.6 35.1 75.7 34.6 75.7 34.1 C 75.7 34.1 77.3 34.1 77.3 34.1 C 77.3 34.7 77.1 35.2 76.7 35.5 C 76.4 35.9 75.8 36.1 75.1 36.1 C 73.1 36.1 72.8 34.9 72.8 33.1 C 72.8 31.6 73 30.3 75.1 30.3 C 77.2 30.3 77.4 31.7 77.4 33.4 C 77.4 33.4 74.4 33.4 74.4 33.4 Z M 79.7 34.2 C 79.7 34.4 79.7 34.7 79.8 34.9 C 79.8 35 80 35.1 80.3 35.1 C 80.6 35.1 80.9 34.9 80.9 34.5 C 80.9 33.4 78.2 33.6 78.2 31.9 C 78.2 30.7 79.3 30.3 80.3 30.3 C 81.4 30.3 82.4 30.8 82.3 32 C 82.3 32 80.8 32 80.8 32 C 80.8 31.6 80.7 31.4 80.6 31.3 C 80.5 31.2 80.4 31.2 80.2 31.2 C 79.9 31.2 79.7 31.4 79.7 31.8 C 79.7 32.6 82.4 32.6 82.4 34.4 C 82.4 35.3 81.6 36.1 80.3 36.1 C 79 36.1 78.1 35.7 78.2 34.2 C 78.2 34.2 79.7 34.2 79.7 34.2 Z M 84.6 30.4 L 84.6 31.9 L 83.3 31.9 L 83.3 30.4 L 84.6 30.4 Z M 84.6 36 L 83.3 36 L 83.3 34.5 L 84.6 34.5 L 84.6 36 Z " stroke="none" fill="#fff"/>  </g></svg>