<?xml version="1.0" standalone="no"?><!DOCTYPE svg PUBLIC "-//W3C//DTD SVG 1.1//EN" "http://www.w3.org/Graphics/SVG/1.1/DTD/svg11.dtd"><svg xmlns="http://www.w3.org/2000/svg" version="1.1" width="190px" height="85.6px" viewBox="0 -1 190 85.6" style="top:-1px">  <desc>C1 INH inhibits FXIIa and plasma kallikrein. This activity is lacking in HAE (due to C1 INH deficiency)</desc>  <defs/>  <g id="Polygon193398">    <path d="M 1.1 59.6 L 1.1 50.2 L 2.3 50.2 L 2.3 54.3 L 5.6 54.3 L 5.6 50.2 L 6.8 50.2 L 6.8 59.6 L 5.6 59.6 L 5.6 55.3 L 2.3 55.3 L 2.3 59.6 L 1.1 59.6 Z M 11.1 50.2 L 12.6 50.2 L 15.7 59.6 L 14.4 59.6 L 13.7 57.4 L 10 57.4 L 9.3 59.6 L 8.1 59.6 L 11.1 50.2 Z M 11.8 51.3 L 11.8 51.3 L 10.3 56.3 L 13.4 56.3 L 11.8 51.3 Z M 16.9 59.6 L 16.9 50.2 L 21.8 50.2 L 21.8 51.3 L 18.1 51.3 L 18.1 54.3 L 21.5 54.3 L 21.5 55.3 L 18.1 55.3 L 18.1 58.6 L 21.9 58.6 L 21.9 59.6 L 16.9 59.6 Z M 27.2 61.1 C 26.6 59.3 25.9 57.5 25.9 55.5 C 25.9 53.5 26.6 51.7 27.2 49.8 C 27.2 49.8 28 49.8 28 49.8 C 27.5 51.7 27.1 53.6 27.1 55.6 C 27.1 57.5 27.5 59.3 28 61.1 C 28 61.1 27.2 61.1 27.2 61.1 Z M 32.1 53.8 C 30.9 53.8 30.8 54.7 30.8 56.4 C 30.8 57.4 30.8 58.9 32.1 58.9 C 33.3 58.9 33.3 57.4 33.3 56.1 C 33.3 55.2 33.2 53.8 32.1 53.8 Z M 33.3 50.2 L 34.4 50.2 L 34.4 59.6 L 33.3 59.6 L 33.3 58.8 C 33.3 58.8 33.27 58.83 33.3 58.8 C 32.9 59.4 32.4 59.7 31.8 59.7 C 30.7 59.7 29.6 59.3 29.6 56.4 C 29.6 54.8 29.7 52.9 31.8 52.9 C 32.4 52.9 32.9 53.2 33.3 53.7 C 33.25 53.7 33.3 53.7 33.3 53.7 L 33.3 50.2 Z M 39.8 53 L 40.9 53 C 40.9 53 40.9 58.24 40.9 58.2 C 40.9 58.7 40.9 59.2 41 59.6 C 40.96 59.61 39.8 59.6 39.8 59.6 L 39.8 58.8 C 39.8 58.8 39.79 58.81 39.8 58.8 C 39.4 59.4 38.8 59.7 38.1 59.7 C 37 59.7 36.4 59.2 36.4 58 C 36.36 58.05 36.4 53 36.4 53 L 37.4 53 C 37.4 53 37.43 57.59 37.4 57.6 C 37.4 58.4 37.8 58.9 38.5 58.9 C 39.1 58.9 39.8 58.5 39.8 57.4 C 39.83 57.4 39.8 53 39.8 53 Z M 46.4 55.9 C 46.4 54 45.9 53.7 45.1 53.7 C 44.4 53.7 43.9 54 43.9 55.9 C 43.9 55.9 46.4 55.9 46.4 55.9 Z M 43.9 56.7 C 43.9 58.5 44.4 58.9 45.2 58.9 C 45.9 58.9 46.3 58.3 46.3 57.6 C 46.3 57.6 47.5 57.6 47.5 57.6 C 47.5 59.1 46.6 59.7 45.2 59.7 C 43.8 59.7 42.7 59.3 42.7 56.4 C 42.7 54.5 42.9 52.9 45.2 52.9 C 47.1 52.9 47.6 53.9 47.6 56.1 C 47.55 56.11 47.6 56.7 47.6 56.7 C 47.6 56.7 43.86 56.67 43.9 56.7 Z M 52.3 53 L 52.3 51.8 L 53.4 51.3 L 53.4 53 L 54.8 53 L 54.8 53.8 L 53.4 53.8 C 53.4 53.8 53.39 57.87 53.4 57.9 C 53.4 58.3 53.4 58.8 54.4 58.8 C 54.4 58.8 54.6 58.8 54.8 58.8 C 54.8 58.8 54.8 59.6 54.8 59.6 C 54.5 59.6 54.1 59.7 53.8 59.7 C 52.8 59.7 52.3 59.3 52.3 58.5 C 52.33 58.52 52.3 53.8 52.3 53.8 L 51.2 53.8 L 51.2 53 L 52.3 53 Z M 59.5 56 C 59.5 54.2 59 53.8 58.1 53.8 C 57.3 53.8 56.8 54.2 56.8 56 C 56.8 58.1 57 58.9 58.1 58.9 C 59.2 58.9 59.5 58.1 59.5 56 Z M 55.6 56.4 C 55.6 54.5 55.9 52.9 58.1 52.9 C 60.4 52.9 60.6 54.5 60.6 56.4 C 60.6 59.3 59.5 59.7 58.1 59.7 C 56.7 59.7 55.6 59.3 55.6 56.4 Z M 69.5 52.8 C 69.5 52.3 69.4 51.7 69.2 51.4 C 68.9 51.1 68.4 51 68.1 51 C 67.1 51 66.8 51.6 66.7 51.8 C 66.7 51.9 66.4 52.1 66.4 53.7 C 66.4 53.7 66.4 56.2 66.4 56.2 C 66.4 58.5 67.2 58.8 68.1 58.8 C 68.5 58.8 69.6 58.7 69.6 56.8 C 69.6 56.8 70.8 56.8 70.8 56.8 C 70.9 59.8 68.8 59.8 68.2 59.8 C 67 59.8 65.2 59.7 65.2 56.1 C 65.2 56.1 65.2 53.4 65.2 53.4 C 65.2 50.8 66.4 50 68.2 50 C 70.1 50 70.8 51 70.7 52.8 C 70.7 52.8 69.5 52.8 69.5 52.8 Z M 75.3 59.6 L 74.1 59.6 L 74.1 51.9 L 72.7 52.8 C 72.7 52.8 72.71 51.66 72.7 51.7 C 73 51.5 73.9 50.9 74.2 50.6 C 74.23 50.59 75.3 50.6 75.3 50.6 L 75.3 59.6 Z M 78 55.6 L 80.9 55.6 L 80.9 56.6 L 78 56.6 L 78 55.6 Z M 84 59.6 L 82.8 59.6 L 82.8 50.2 L 84 50.2 L 84 59.6 Z M 92.8 50.2 L 92.8 59.6 L 91.1 59.6 L 87.4 51.5 L 87.4 51.5 L 87.4 59.6 L 86.3 59.6 L 86.3 50.2 L 88 50.2 L 91.7 58.3 L 91.7 58.3 L 91.7 50.2 L 92.8 50.2 Z M 95 59.6 L 95 50.2 L 96.2 50.2 L 96.2 54.3 L 99.5 54.3 L 99.5 50.2 L 100.7 50.2 L 100.7 59.6 L 99.5 59.6 L 99.5 55.3 L 96.2 55.3 L 96.2 59.6 L 95 59.6 Z M 107.9 53.8 C 106.7 53.8 106.6 54.7 106.6 56.4 C 106.6 57.4 106.6 58.9 107.9 58.9 C 109.1 58.9 109.1 57.4 109.1 56.1 C 109.1 55.2 109.1 53.8 107.9 53.8 Z M 109.1 50.2 L 110.2 50.2 L 110.2 59.6 L 109.1 59.6 L 109.1 58.8 C 109.1 58.8 109.1 58.83 109.1 58.8 C 108.7 59.4 108.3 59.7 107.6 59.7 C 106.5 59.7 105.5 59.3 105.5 56.4 C 105.5 54.8 105.5 52.9 107.6 52.9 C 108.3 52.9 108.7 53.2 109.1 53.7 C 109.08 53.7 109.1 53.7 109.1 53.7 L 109.1 50.2 Z M 115.8 55.9 C 115.8 54 115.2 53.7 114.4 53.7 C 113.8 53.7 113.2 54 113.2 55.9 C 113.2 55.9 115.8 55.9 115.8 55.9 Z M 113.2 56.7 C 113.2 58.5 113.7 58.9 114.5 58.9 C 115.2 58.9 115.6 58.3 115.7 57.6 C 115.7 57.6 116.8 57.6 116.8 57.6 C 116.8 59.1 115.9 59.7 114.5 59.7 C 113.1 59.7 112 59.3 112 56.4 C 112 54.5 112.3 52.9 114.5 52.9 C 116.4 52.9 116.9 53.9 116.9 56.1 C 116.88 56.11 116.9 56.7 116.9 56.7 C 116.9 56.7 113.19 56.67 113.2 56.7 Z M 123.2 59.6 L 122.1 59.6 L 122.1 53 L 123.2 53 L 123.2 59.6 Z M 122.1 50.2 L 123.3 50.2 L 123.3 51.4 L 122.1 51.4 L 122.1 50.2 Z M 118.8 53 C 118.8 53 118.85 51.77 118.8 51.8 C 118.8 50.4 119.8 50.2 120.7 50.2 C 121 50.2 121.1 50.2 121.2 50.2 C 121.2 50.2 121.2 51 121.2 51 C 120.1 50.9 119.9 51.4 119.9 51.9 C 119.91 51.92 119.9 53 119.9 53 L 121.2 53 L 121.2 53.8 L 119.9 53.8 L 119.9 59.6 L 118.8 59.6 L 118.8 53.8 L 117.8 53.8 L 117.8 53 L 118.8 53 Z M 128.6 55.1 C 128.6 54.1 128.1 53.8 127.7 53.8 C 126.9 53.8 126.3 54.2 126.3 56 C 126.3 58.1 126.6 58.9 127.7 58.9 C 127.9 58.9 128.7 58.6 128.6 57.4 C 128.6 57.4 129.7 57.4 129.7 57.4 C 129.8 59.3 128.4 59.7 127.7 59.7 C 126.3 59.7 125.2 59.3 125.2 56.4 C 125.2 54.5 125.4 52.9 127.7 52.9 C 129 52.9 129.8 53.7 129.7 55.1 C 129.7 55.1 128.6 55.1 128.6 55.1 Z M 132.7 59.6 L 131.6 59.6 L 131.6 53 L 132.7 53 L 132.7 59.6 Z M 131.6 50.2 L 132.8 50.2 L 132.8 51.4 L 131.6 51.4 L 131.6 50.2 Z M 138.1 55.9 C 138.1 54 137.6 53.7 136.8 53.7 C 136.1 53.7 135.6 54 135.6 55.9 C 135.6 55.9 138.1 55.9 138.1 55.9 Z M 135.6 56.7 C 135.6 58.5 136.1 58.9 136.9 58.9 C 137.6 58.9 138 58.3 138 57.6 C 138 57.6 139.2 57.6 139.2 57.6 C 139.2 59.1 138.3 59.7 136.9 59.7 C 135.5 59.7 134.4 59.3 134.4 56.4 C 134.4 54.5 134.7 52.9 136.9 52.9 C 138.8 52.9 139.3 53.9 139.3 56.1 C 139.27 56.11 139.3 56.7 139.3 56.7 C 139.3 56.7 135.57 56.67 135.6 56.7 Z M 144.6 59.6 C 144.6 59.6 144.6 55.06 144.6 55.1 C 144.6 54.4 144.4 53.8 143.4 53.8 C 142.3 53.8 142.1 54.8 142.1 55.7 C 142.1 55.72 142.1 59.6 142.1 59.6 L 141 59.6 C 141 59.6 141.04 54.41 141 54.4 C 141 54 141 53.5 141 53 C 140.97 53.04 142.1 53 142.1 53 L 142.1 53.9 C 142.1 53.9 142.15 53.89 142.2 53.9 C 142.6 53.1 143.1 52.9 143.9 52.9 C 145.3 52.9 145.7 53.8 145.7 55.1 C 145.66 55.06 145.7 59.6 145.7 59.6 L 144.6 59.6 Z M 151 55.1 C 151 54.1 150.5 53.8 150.1 53.8 C 149.2 53.8 148.7 54.2 148.7 56 C 148.7 58.1 149 58.9 150.1 58.9 C 150.3 58.9 151 58.6 151 57.4 C 151 57.4 152.1 57.4 152.1 57.4 C 152.2 59.3 150.8 59.7 150.1 59.7 C 148.7 59.7 147.6 59.3 147.6 56.4 C 147.6 54.5 147.8 52.9 150.1 52.9 C 151.4 52.9 152.1 53.7 152.1 55.1 C 152.1 55.1 151 55.1 151 55.1 Z M 156 58.4 L 156 58.4 L 157.6 53 L 158.8 53 L 155.8 62.1 L 154.7 62.1 L 155.4 59.6 L 153.2 53 L 154.4 53 L 156 58.4 Z M 159.8 61.1 C 160.2 59.3 160.6 57.5 160.6 55.6 C 160.6 53.6 160.2 51.7 159.7 49.8 C 159.7 49.8 160.5 49.8 160.5 49.8 C 161.1 51.7 161.8 53.5 161.8 55.5 C 161.8 57.5 161.1 59.3 160.5 61.1 C 160.5 61.1 159.8 61.1 159.8 61.1 Z " stroke="none" fill="#003c71"/>  </g>  <g id="Polygon193397">    <path d="M 2 44.6 L 0.9 44.6 L 0.9 35.2 L 2 35.2 L 2 40.9 L 2 40.9 L 4 38 L 5.3 38 L 3.1 40.9 L 5.7 44.6 L 4.4 44.6 L 2 40.9 L 2 40.9 L 2 44.6 Z M 7.7 42.7 C 7.7 43.3 8 43.9 8.7 43.9 C 9.4 43.9 10.2 43.5 10.1 41.3 C 9 41.4 7.7 41.3 7.7 42.7 Z M 10.1 43.7 C 10.1 43.7 10.06 43.66 10.1 43.7 C 9.7 44.4 9.2 44.7 8.4 44.7 C 7 44.7 6.6 43.8 6.6 42.6 C 6.6 40.6 8.6 40.5 10.1 40.5 C 10.1 39.7 10.1 38.7 9 38.7 C 8.2 38.7 7.9 39.2 7.9 39.9 C 7.9 39.9 6.8 39.9 6.8 39.9 C 6.8 38.4 7.6 37.9 9 37.9 C 10.7 37.9 11.1 38.8 11.1 39.9 C 11.1 39.9 11.1 43 11.1 43 C 11.1 43.6 11.2 44.1 11.3 44.6 C 11.26 44.61 10.1 44.6 10.1 44.6 L 10.1 43.7 Z M 14.2 44.6 L 13.2 44.6 L 13.2 35.2 L 14.2 35.2 L 14.2 44.6 Z M 17.1 44.6 L 16.1 44.6 L 16.1 35.2 L 17.1 35.2 L 17.1 44.6 Z M 20 44.6 L 19 44.6 L 19 38 L 20 38 L 20 44.6 Z M 18.9 35.2 L 20.1 35.2 L 20.1 36.4 L 18.9 36.4 L 18.9 35.2 Z M 22.9 44.6 L 21.9 44.6 L 21.9 35.2 L 22.9 35.2 L 22.9 40.9 L 23 40.9 L 25 38 L 26.3 38 L 24.1 40.9 L 26.6 44.6 L 25.3 44.6 L 23 40.9 L 22.9 40.9 L 22.9 44.6 Z M 28.7 39 C 28.7 39 28.77 39.03 28.8 39 C 29.2 38 29.8 37.9 30.8 37.9 C 30.8 37.9 30.8 39 30.8 39 C 30.7 39 30.6 39 30.5 39 C 30.4 39 30.3 39 30.2 39 C 29 39 28.7 39.8 28.7 40.7 C 28.74 40.73 28.7 44.6 28.7 44.6 L 27.7 44.6 L 27.7 38 L 28.7 38 L 28.7 39 Z M 35.6 40.9 C 35.6 39 35 38.7 34.3 38.7 C 33.6 38.7 33 39 33 40.9 C 33 40.9 35.6 40.9 35.6 40.9 Z M 33 41.7 C 33 43.5 33.5 43.9 34.3 43.9 C 35.1 43.9 35.4 43.3 35.5 42.6 C 35.5 42.6 36.6 42.6 36.6 42.6 C 36.6 44.1 35.7 44.7 34.4 44.7 C 33 44.7 31.9 44.3 31.9 41.4 C 31.9 39.5 32.1 37.9 34.4 37.9 C 36.2 37.9 36.7 38.9 36.7 41.1 C 36.7 41.11 36.7 41.7 36.7 41.7 C 36.7 41.7 33.01 41.67 33 41.7 Z M 39.5 44.6 L 38.4 44.6 L 38.4 38 L 39.5 38 L 39.5 44.6 Z M 38.4 35.2 L 39.6 35.2 L 39.6 36.4 L 38.4 36.4 L 38.4 35.2 Z M 44.9 44.6 C 44.9 44.6 44.91 40.06 44.9 40.1 C 44.9 39.4 44.7 38.8 43.8 38.8 C 42.6 38.8 42.4 39.8 42.4 40.7 C 42.42 40.72 42.4 44.6 42.4 44.6 L 41.4 44.6 C 41.4 44.6 41.35 39.41 41.4 39.4 C 41.4 39 41.3 38.5 41.3 38 C 41.29 38.04 42.4 38 42.4 38 L 42.4 38.9 C 42.4 38.9 42.47 38.89 42.5 38.9 C 42.9 38.1 43.4 37.9 44.2 37.9 C 45.6 37.9 46 38.8 46 40.1 C 45.98 40.06 46 44.6 46 44.6 L 44.9 44.6 Z M 49 44.6 L 47.7 44.6 L 47.7 43.3 L 49 43.3 L 49 44.6 Z M 59 35.2 L 59 36.3 L 56.5 36.3 L 56.5 44.6 L 55.3 44.6 L 55.3 36.3 L 52.9 36.3 L 52.9 35.2 L 59 35.2 Z M 63.7 44.6 C 63.7 44.6 63.69 40.16 63.7 40.2 C 63.7 39.4 63.4 38.8 62.5 38.8 C 61.4 38.8 61.2 39.6 61.2 40.7 C 61.18 40.74 61.2 44.6 61.2 44.6 L 60.1 44.6 L 60.1 35.2 L 61.2 35.2 L 61.2 38.9 C 61.2 38.9 61.23 38.89 61.2 38.9 C 61.7 38.1 62.2 37.9 63 37.9 C 64.1 37.9 64.8 38.5 64.8 40 C 64.75 39.95 64.8 44.6 64.8 44.6 L 63.7 44.6 Z M 67.7 44.6 L 66.6 44.6 L 66.6 38 L 67.7 38 L 67.7 44.6 Z M 66.5 35.2 L 67.7 35.2 L 67.7 36.4 L 66.5 36.4 L 66.5 35.2 Z M 71.4 44.7 C 70 44.7 69.1 44.1 69.2 42.6 C 69.2 42.6 70.4 42.6 70.4 42.6 C 70.4 43 70.4 43.9 71.5 43.9 C 72.1 43.9 72.6 43.5 72.6 42.9 C 72.6 41.7 69.3 41.7 69.3 39.7 C 69.3 39 69.8 37.9 71.6 37.9 C 72.8 37.9 73.8 38.5 73.7 39.8 C 73.7 39.8 72.5 39.8 72.5 39.8 C 72.5 39.1 72.1 38.7 71.5 38.7 C 70.9 38.7 70.5 39 70.5 39.6 C 70.5 40.8 73.7 40.7 73.7 42.7 C 73.7 44.2 72.7 44.7 71.4 44.7 Z M 79.1 42.7 C 79.1 43.3 79.5 43.9 80.2 43.9 C 80.8 43.9 81.6 43.5 81.5 41.3 C 80.5 41.4 79.1 41.3 79.1 42.7 Z M 81.5 43.7 C 81.5 43.7 81.52 43.66 81.5 43.7 C 81.2 44.4 80.7 44.7 79.9 44.7 C 78.5 44.7 78.1 43.8 78.1 42.6 C 78.1 40.6 80 40.5 81.5 40.5 C 81.5 39.7 81.6 38.7 80.4 38.7 C 79.7 38.7 79.3 39.2 79.4 39.9 C 79.4 39.9 78.2 39.9 78.2 39.9 C 78.3 38.4 79.1 37.9 80.5 37.9 C 82.1 37.9 82.6 38.8 82.6 39.9 C 82.6 39.9 82.6 43 82.6 43 C 82.6 43.6 82.6 44.1 82.7 44.6 C 82.72 44.61 81.5 44.6 81.5 44.6 L 81.5 43.7 Z M 88.1 40.1 C 88.1 39.1 87.6 38.8 87.2 38.8 C 86.4 38.8 85.8 39.2 85.8 41 C 85.8 43.1 86.1 43.9 87.2 43.9 C 87.4 43.9 88.2 43.6 88.1 42.4 C 88.1 42.4 89.3 42.4 89.3 42.4 C 89.3 44.3 87.9 44.7 87.2 44.7 C 85.8 44.7 84.7 44.3 84.7 41.4 C 84.7 39.5 84.9 37.9 87.2 37.9 C 88.5 37.9 89.3 38.7 89.2 40.1 C 89.2 40.1 88.1 40.1 88.1 40.1 Z M 91.3 38 L 91.3 36.8 L 92.3 36.3 L 92.3 38 L 93.8 38 L 93.8 38.8 L 92.3 38.8 C 92.3 38.8 92.35 42.87 92.3 42.9 C 92.3 43.3 92.3 43.8 93.3 43.8 C 93.4 43.8 93.6 43.8 93.8 43.8 C 93.8 43.8 93.8 44.6 93.8 44.6 C 93.5 44.6 93.1 44.7 92.8 44.7 C 91.7 44.7 91.3 44.3 91.3 43.5 C 91.28 43.52 91.3 38.8 91.3 38.8 L 90.2 38.8 L 90.2 38 L 91.3 38 Z M 95.8 44.6 L 94.8 44.6 L 94.8 38 L 95.8 38 L 95.8 44.6 Z M 94.7 35.2 L 95.9 35.2 L 95.9 36.4 L 94.7 36.4 L 94.7 35.2 Z M 96.9 38 L 98.1 38 L 99.6 43.6 L 99.6 43.6 L 101.2 38 L 102.3 38 L 100.3 44.6 L 98.9 44.6 L 96.9 38 Z M 104.5 44.6 L 103.4 44.6 L 103.4 38 L 104.5 38 L 104.5 44.6 Z M 103.3 35.2 L 104.5 35.2 L 104.5 36.4 L 103.3 36.4 L 103.3 35.2 Z M 106.4 38 L 106.4 36.8 L 107.5 36.3 L 107.5 38 L 108.9 38 L 108.9 38.8 L 107.5 38.8 C 107.5 38.8 107.51 42.87 107.5 42.9 C 107.5 43.3 107.5 43.8 108.5 43.8 C 108.6 43.8 108.7 43.8 109 43.8 C 109 43.8 109 44.6 109 44.6 C 108.6 44.6 108.3 44.7 107.9 44.7 C 106.9 44.7 106.4 44.3 106.4 43.5 C 106.44 43.52 106.4 38.8 106.4 38.8 L 105.4 38.8 L 105.4 38 L 106.4 38 Z M 111.9 43.4 L 111.9 43.4 L 113.5 38 L 114.7 38 L 111.7 47.1 L 110.6 47.1 L 111.3 44.6 L 109.1 38 L 110.3 38 L 111.9 43.4 Z M 119.6 44.6 L 118.6 44.6 L 118.6 38 L 119.6 38 L 119.6 44.6 Z M 118.5 35.2 L 119.7 35.2 L 119.7 36.4 L 118.5 36.4 L 118.5 35.2 Z M 123.4 44.7 C 122 44.7 121.1 44.1 121.2 42.6 C 121.2 42.6 122.4 42.6 122.4 42.6 C 122.4 43 122.4 43.9 123.5 43.9 C 124.1 43.9 124.6 43.5 124.6 42.9 C 124.6 41.7 121.3 41.7 121.3 39.7 C 121.3 39 121.7 37.9 123.6 37.9 C 124.7 37.9 125.7 38.5 125.7 39.8 C 125.7 39.8 124.5 39.8 124.5 39.8 C 124.5 39.1 124.1 38.7 123.4 38.7 C 122.9 38.7 122.4 39 122.4 39.6 C 122.4 40.8 125.7 40.7 125.7 42.7 C 125.7 44.2 124.7 44.7 123.4 44.7 Z M 131.2 44.6 L 130.1 44.6 L 130.1 35.2 L 131.2 35.2 L 131.2 44.6 Z M 134 42.7 C 134 43.3 134.3 43.9 135 43.9 C 135.7 43.9 136.5 43.5 136.4 41.3 C 135.4 41.4 134 41.3 134 42.7 Z M 136.4 43.7 C 136.4 43.7 136.38 43.66 136.4 43.7 C 136.1 44.4 135.5 44.7 134.7 44.7 C 133.3 44.7 132.9 43.8 132.9 42.6 C 132.9 40.6 134.9 40.5 136.4 40.5 C 136.4 39.7 136.4 38.7 135.3 38.7 C 134.6 38.7 134.2 39.2 134.2 39.9 C 134.2 39.9 133.1 39.9 133.1 39.9 C 133.1 38.4 133.9 37.9 135.3 37.9 C 137 37.9 137.4 38.8 137.4 39.9 C 137.4 39.9 137.4 43 137.4 43 C 137.4 43.6 137.5 44.1 137.6 44.6 C 137.57 44.61 136.4 44.6 136.4 44.6 L 136.4 43.7 Z M 143 40.1 C 143 39.1 142.5 38.8 142 38.8 C 141.2 38.8 140.7 39.2 140.7 41 C 140.7 43.1 140.9 43.9 142 43.9 C 142.3 43.9 143 43.6 143 42.4 C 143 42.4 144.1 42.4 144.1 42.4 C 144.2 44.3 142.8 44.7 142 44.7 C 140.7 44.7 139.6 44.3 139.6 41.4 C 139.6 39.5 139.8 37.9 142 37.9 C 143.4 37.9 144.1 38.7 144.1 40.1 C 144.1 40.1 143 40.1 143 40.1 Z M 147.1 44.6 L 146 44.6 L 146 35.2 L 147.1 35.2 L 147.1 40.9 L 147.1 40.9 L 149.1 38 L 150.4 38 L 148.2 40.9 L 150.8 44.6 L 149.5 44.6 L 147.1 40.9 L 147.1 40.9 L 147.1 44.6 Z M 152.8 44.6 L 151.8 44.6 L 151.8 38 L 152.8 38 L 152.8 44.6 Z M 151.7 35.2 L 152.9 35.2 L 152.9 36.4 L 151.7 36.4 L 151.7 35.2 Z M 158.2 44.6 C 158.2 44.6 158.25 40.06 158.2 40.1 C 158.2 39.4 158 38.8 157.1 38.8 C 155.9 38.8 155.7 39.8 155.7 40.7 C 155.75 40.72 155.7 44.6 155.7 44.6 L 154.7 44.6 C 154.7 44.6 154.68 39.41 154.7 39.4 C 154.7 39 154.7 38.5 154.6 38 C 154.62 38.04 155.7 38 155.7 38 L 155.7 38.9 C 155.7 38.9 155.8 38.89 155.8 38.9 C 156.2 38.1 156.7 37.9 157.6 37.9 C 159 37.9 159.3 38.8 159.3 40.1 C 159.31 40.06 159.3 44.6 159.3 44.6 L 158.2 44.6 Z M 163.4 38.8 C 162.2 38.8 162.2 40.3 162.2 41.1 C 162.2 43.2 162.6 43.7 163.4 43.7 C 164.7 43.7 164.7 42.2 164.7 41.3 C 164.7 40.3 164.7 38.8 163.4 38.8 Z M 164.7 38 L 165.7 38 C 165.7 38 165.72 45.27 165.7 45.3 C 165.7 46.7 164.7 47.1 163.3 47.1 C 162.2 47.1 161.2 46.5 161.3 45.3 C 161.3 45.3 162.5 45.3 162.5 45.3 C 162.5 45.9 162.9 46.3 163.5 46.3 C 164.3 46.3 164.7 45.8 164.7 45.2 C 164.65 45.15 164.7 43.8 164.7 43.8 C 164.7 43.8 164.62 43.79 164.6 43.8 C 164.3 44.3 163.7 44.6 163.2 44.6 C 161.4 44.6 161 43.1 161 41.1 C 161 38.1 162.6 37.9 163.1 37.9 C 163.8 37.9 164.3 38.2 164.6 38.8 C 164.63 38.85 164.7 38.8 164.7 38.8 L 164.7 38 Z M 171.6 44.6 L 170.5 44.6 L 170.5 38 L 171.6 38 L 171.6 44.6 Z M 170.5 35.2 L 171.7 35.2 L 171.7 36.4 L 170.5 36.4 L 170.5 35.2 Z M 177 44.6 C 177 44.6 177.02 40.06 177 40.1 C 177 39.4 176.8 38.8 175.9 38.8 C 174.7 38.8 174.5 39.8 174.5 40.7 C 174.52 40.72 174.5 44.6 174.5 44.6 L 173.5 44.6 C 173.5 44.6 173.46 39.41 173.5 39.4 C 173.5 39 173.4 38.5 173.4 38 C 173.39 38.04 174.5 38 174.5 38 L 174.5 38.9 C 174.5 38.9 174.57 38.89 174.6 38.9 C 175 38.1 175.5 37.9 176.3 37.9 C 177.7 37.9 178.1 38.8 178.1 40.1 C 178.08 40.06 178.1 44.6 178.1 44.6 L 177 44.6 Z " stroke="none" fill="#003c71"/>  </g>  <g id="Polygon193396">    <path d="M 5.2 22.8 C 5.2 22.3 5.2 21.7 4.9 21.4 C 4.7 21.1 4.1 21 3.9 21 C 2.9 21 2.5 21.6 2.4 21.8 C 2.4 21.9 2.2 22.1 2.2 23.7 C 2.2 23.7 2.2 26.2 2.2 26.2 C 2.2 28.5 2.9 28.8 3.8 28.8 C 4.2 28.8 5.3 28.7 5.3 26.8 C 5.3 26.8 6.6 26.8 6.6 26.8 C 6.6 29.8 4.5 29.8 3.9 29.8 C 2.7 29.8 0.9 29.7 0.9 26.1 C 0.9 26.1 0.9 23.4 0.9 23.4 C 0.9 20.8 2.1 20 4 20 C 5.8 20 6.5 21 6.4 22.8 C 6.4 22.8 5.2 22.8 5.2 22.8 Z M 11 29.6 L 9.8 29.6 L 9.8 21.9 L 8.4 22.8 C 8.4 22.8 8.44 21.66 8.4 21.7 C 8.7 21.5 9.6 20.9 10 20.6 C 9.96 20.59 11 20.6 11 20.6 L 11 29.6 Z M 13.7 25.6 L 16.6 25.6 L 16.6 26.6 L 13.7 26.6 L 13.7 25.6 Z M 19.7 29.6 L 18.5 29.6 L 18.5 20.2 L 19.7 20.2 L 19.7 29.6 Z M 28.5 20.2 L 28.5 29.6 L 26.9 29.6 L 23.2 21.5 L 23.1 21.5 L 23.1 29.6 L 22.1 29.6 L 22.1 20.2 L 23.8 20.2 L 27.4 28.3 L 27.4 28.3 L 27.4 20.2 L 28.5 20.2 Z M 30.7 29.6 L 30.7 20.2 L 31.9 20.2 L 31.9 24.3 L 35.2 24.3 L 35.2 20.2 L 36.4 20.2 L 36.4 29.6 L 35.2 29.6 L 35.2 25.3 L 31.9 25.3 L 31.9 29.6 L 30.7 29.6 Z M 42.4 29.6 L 41.4 29.6 L 41.4 23 L 42.4 23 L 42.4 29.6 Z M 41.3 20.2 L 42.5 20.2 L 42.5 21.4 L 41.3 21.4 L 41.3 20.2 Z M 47.8 29.6 C 47.8 29.6 47.83 25.06 47.8 25.1 C 47.8 24.4 47.6 23.8 46.7 23.8 C 45.5 23.8 45.3 24.8 45.3 25.7 C 45.33 25.72 45.3 29.6 45.3 29.6 L 44.3 29.6 C 44.3 29.6 44.26 24.41 44.3 24.4 C 44.3 24 44.2 23.5 44.2 23 C 44.2 23.04 45.3 23 45.3 23 L 45.3 23.9 C 45.3 23.9 45.38 23.89 45.4 23.9 C 45.8 23.1 46.3 22.9 47.1 22.9 C 48.5 22.9 48.9 23.8 48.9 25.1 C 48.89 25.06 48.9 29.6 48.9 29.6 L 47.8 29.6 Z M 54.3 29.6 C 54.3 29.6 54.33 25.16 54.3 25.2 C 54.3 24.4 54.1 23.8 53.2 23.8 C 52.1 23.8 51.8 24.6 51.8 25.7 C 51.82 25.74 51.8 29.6 51.8 29.6 L 50.8 29.6 L 50.8 20.2 L 51.8 20.2 L 51.8 23.9 C 51.8 23.9 51.87 23.89 51.9 23.9 C 52.3 23.1 52.8 22.9 53.7 22.9 C 54.8 22.9 55.4 23.5 55.4 25 C 55.39 24.95 55.4 29.6 55.4 29.6 L 54.3 29.6 Z M 58.3 29.6 L 57.2 29.6 L 57.2 23 L 58.3 23 L 58.3 29.6 Z M 57.2 20.2 L 58.4 20.2 L 58.4 21.4 L 57.2 21.4 L 57.2 20.2 Z M 62.5 28.9 C 63.8 28.9 63.8 27.4 63.8 26.4 C 63.8 24.7 63.7 23.8 62.5 23.8 C 61.4 23.8 61.3 25.2 61.3 26.1 C 61.3 27.1 61.2 28.9 62.5 28.9 Z M 61.3 29.6 L 60.2 29.6 L 60.2 20.2 L 61.3 20.2 L 61.3 23.7 C 61.3 23.7 61.35 23.7 61.3 23.7 C 61.7 23.2 62.2 22.9 62.8 22.9 C 64.9 22.9 65 24.8 65 26.4 C 65 29.3 63.9 29.7 62.8 29.7 C 62.2 29.7 61.7 29.4 61.3 28.8 C 61.33 28.83 61.3 28.8 61.3 28.8 L 61.3 29.6 Z M 67.7 29.6 L 66.6 29.6 L 66.6 23 L 67.7 23 L 67.7 29.6 Z M 66.6 20.2 L 67.8 20.2 L 67.8 21.4 L 66.6 21.4 L 66.6 20.2 Z M 69.7 23 L 69.7 21.8 L 70.7 21.3 L 70.7 23 L 72.1 23 L 72.1 23.8 L 70.7 23.8 C 70.7 23.8 70.72 27.87 70.7 27.9 C 70.7 28.3 70.7 28.8 71.7 28.8 C 71.8 28.8 71.9 28.8 72.2 28.8 C 72.2 28.8 72.2 29.6 72.2 29.6 C 71.8 29.6 71.5 29.7 71.1 29.7 C 70.1 29.7 69.7 29.3 69.7 28.5 C 69.65 28.52 69.7 23.8 69.7 23.8 L 68.6 23.8 L 68.6 23 L 69.7 23 Z M 75.1 29.7 C 73.7 29.7 72.8 29.1 72.8 27.6 C 72.8 27.6 74 27.6 74 27.6 C 74 28 74 28.9 75.1 28.9 C 75.8 28.9 76.3 28.5 76.3 27.9 C 76.3 26.7 73 26.7 73 24.7 C 73 24 73.4 22.9 75.2 22.9 C 76.4 22.9 77.4 23.5 77.3 24.8 C 77.3 24.8 76.1 24.8 76.1 24.8 C 76.2 24.1 75.8 23.7 75.1 23.7 C 74.5 23.7 74.1 24 74.1 24.6 C 74.1 25.8 77.4 25.7 77.4 27.7 C 77.4 29.2 76.4 29.7 75.1 29.7 Z M 81.8 29.6 L 81.8 20.2 L 86.5 20.2 L 86.5 21.3 L 83 21.3 L 83 24.3 L 86.3 24.3 L 86.3 25.3 L 83 25.3 L 83 29.6 L 81.8 29.6 Z M 93.7 29.6 L 92.3 29.6 L 90.1 25.6 L 88 29.6 L 86.7 29.6 L 89.4 24.7 L 86.9 20.2 L 88.2 20.2 L 90.2 23.9 L 92.1 20.2 L 93.4 20.2 L 90.9 24.7 L 93.7 29.6 Z M 96.3 29.6 L 95.1 29.6 L 95.1 20.2 L 96.3 20.2 L 96.3 29.6 Z M 99.9 29.6 L 98.7 29.6 L 98.7 20.2 L 99.9 20.2 L 99.9 29.6 Z M 103 27.7 C 103 28.3 103.3 28.9 104 28.9 C 104.7 28.9 105.5 28.5 105.4 26.3 C 104.4 26.4 103 26.3 103 27.7 Z M 105.4 28.7 C 105.4 28.7 105.39 28.66 105.4 28.7 C 105.1 29.4 104.6 29.7 103.7 29.7 C 102.3 29.7 101.9 28.8 101.9 27.6 C 101.9 25.6 103.9 25.5 105.4 25.5 C 105.4 24.7 105.4 23.7 104.3 23.7 C 103.6 23.7 103.2 24.2 103.3 24.9 C 103.3 24.9 102.1 24.9 102.1 24.9 C 102.2 23.4 102.9 22.9 104.3 22.9 C 106 22.9 106.5 23.8 106.5 24.9 C 106.5 24.9 106.5 28 106.5 28 C 106.5 28.6 106.5 29.1 106.6 29.6 C 106.58 29.61 105.4 29.6 105.4 29.6 L 105.4 28.7 Z M 112.4 27.7 C 112.4 28.3 112.7 28.9 113.4 28.9 C 114.1 28.9 114.9 28.5 114.8 26.3 C 113.8 26.4 112.4 26.3 112.4 27.7 Z M 114.8 28.7 C 114.8 28.7 114.78 28.66 114.8 28.7 C 114.5 29.4 113.9 29.7 113.1 29.7 C 111.7 29.7 111.3 28.8 111.3 27.6 C 111.3 25.6 113.3 25.5 114.8 25.5 C 114.8 24.7 114.8 23.7 113.7 23.7 C 113 23.7 112.6 24.2 112.6 24.9 C 112.6 24.9 111.5 24.9 111.5 24.9 C 111.5 23.4 112.3 22.9 113.7 22.9 C 115.4 22.9 115.8 23.8 115.8 24.9 C 115.8 24.9 115.8 28 115.8 28 C 115.8 28.6 115.9 29.1 116 29.6 C 115.97 29.61 114.8 29.6 114.8 29.6 L 114.8 28.7 Z M 121.5 29.6 C 121.5 29.6 121.48 25.06 121.5 25.1 C 121.5 24.4 121.2 23.8 120.3 23.8 C 119.2 23.8 119 24.8 119 25.7 C 118.99 25.72 119 29.6 119 29.6 L 117.9 29.6 C 117.9 29.6 117.92 24.41 117.9 24.4 C 117.9 24 117.9 23.5 117.9 23 C 117.86 23.04 119 23 119 23 L 119 23.9 C 119 23.9 119.04 23.89 119 23.9 C 119.5 23.1 119.9 22.9 120.8 22.9 C 122.2 22.9 122.5 23.8 122.5 25.1 C 122.55 25.06 122.5 29.6 122.5 29.6 L 121.5 29.6 Z M 126.7 23.8 C 125.5 23.8 125.4 24.7 125.4 26.4 C 125.4 27.4 125.4 28.9 126.7 28.9 C 127.9 28.9 127.9 27.4 127.9 26.1 C 127.9 25.2 127.8 23.8 126.7 23.8 Z M 127.9 20.2 L 129 20.2 L 129 29.6 L 127.9 29.6 L 127.9 28.8 C 127.9 28.8 127.87 28.83 127.9 28.8 C 127.5 29.4 127 29.7 126.4 29.7 C 125.3 29.7 124.2 29.3 124.2 26.4 C 124.2 24.8 124.3 22.9 126.4 22.9 C 127 22.9 127.5 23.2 127.9 23.7 C 127.85 23.7 127.9 23.7 127.9 23.7 L 127.9 20.2 Z M 137.5 26.2 C 137.5 25.2 137.5 23.8 136.2 23.8 C 134.8 23.8 135 25.6 135 26.6 C 135 27.5 135 28.9 136.2 28.9 C 137.3 28.9 137.5 28 137.5 26.2 Z M 135 23.8 C 135 23.8 134.99 23.82 135 23.8 C 135.4 23.2 135.8 22.9 136.5 22.9 C 137.6 22.9 138.6 23.3 138.6 26.2 C 138.6 27.9 138.6 29.7 136.4 29.7 C 135.8 29.7 135.4 29.5 135 28.9 C 135 28.94 135 28.9 135 28.9 L 135 32.1 L 133.9 32.1 L 133.9 23 L 135 23 L 135 23.8 Z M 141.3 29.6 L 140.3 29.6 L 140.3 20.2 L 141.3 20.2 L 141.3 29.6 Z M 144.2 27.7 C 144.2 28.3 144.5 28.9 145.2 28.9 C 145.8 28.9 146.7 28.5 146.5 26.3 C 145.5 26.4 144.2 26.3 144.2 27.7 Z M 146.6 28.7 C 146.6 28.7 146.55 28.66 146.5 28.7 C 146.2 29.4 145.7 29.7 144.9 29.7 C 143.5 29.7 143.1 28.8 143.1 27.6 C 143.1 25.6 145.1 25.5 146.5 25.5 C 146.6 24.7 146.6 23.7 145.4 23.7 C 144.7 23.7 144.3 24.2 144.4 24.9 C 144.4 24.9 143.3 24.9 143.3 24.9 C 143.3 23.4 144.1 22.9 145.5 22.9 C 147.2 22.9 147.6 23.8 147.6 24.9 C 147.6 24.9 147.6 28 147.6 28 C 147.6 28.6 147.7 29.1 147.7 29.6 C 147.74 29.61 146.6 29.6 146.6 29.6 L 146.6 28.7 Z M 151.6 29.7 C 150.2 29.7 149.3 29.1 149.4 27.6 C 149.4 27.6 150.6 27.6 150.6 27.6 C 150.6 28 150.6 28.9 151.7 28.9 C 152.3 28.9 152.8 28.5 152.8 27.9 C 152.8 26.7 149.5 26.7 149.5 24.7 C 149.5 24 149.9 22.9 151.8 22.9 C 153 22.9 154 23.5 153.9 24.8 C 153.9 24.8 152.7 24.8 152.7 24.8 C 152.7 24.1 152.3 23.7 151.7 23.7 C 151.1 23.7 150.6 24 150.6 24.6 C 150.6 25.8 153.9 25.7 153.9 27.7 C 153.9 29.2 152.9 29.7 151.6 29.7 Z M 158.7 29.6 C 158.7 29.6 158.69 25.06 158.7 25.1 C 158.7 24.4 158.5 23.8 157.6 23.8 C 157.3 23.8 156.9 24 156.7 24.2 C 156.5 24.5 156.5 24.9 156.5 25.2 C 156.48 25.19 156.5 29.6 156.5 29.6 L 155.4 29.6 C 155.4 29.6 155.41 24.41 155.4 24.4 C 155.4 24 155.4 23.5 155.3 23 C 155.35 23.04 156.5 23 156.5 23 L 156.5 23.9 C 156.5 23.9 156.5 23.86 156.5 23.9 C 156.8 23.2 157.4 22.9 158.1 22.9 C 158.7 22.9 159.4 23.2 159.7 23.8 C 160 23.1 160.6 22.9 161.2 22.9 C 161.9 22.9 163 23.1 163 24.6 C 163.03 24.61 163 29.6 163 29.6 L 162 29.6 C 162 29.6 161.97 25.06 162 25.1 C 162 24.4 161.8 23.8 160.9 23.8 C 160.5 23.8 160.4 23.8 160.1 24 C 159.8 24.3 159.8 24.9 159.8 25.2 C 159.75 25.19 159.8 29.6 159.8 29.6 L 158.7 29.6 Z M 165.8 27.7 C 165.8 28.3 166.1 28.9 166.9 28.9 C 167.5 28.9 168.3 28.5 168.2 26.3 C 167.2 26.4 165.8 26.3 165.8 27.7 Z M 168.2 28.7 C 168.2 28.7 168.2 28.66 168.2 28.7 C 167.9 29.4 167.4 29.7 166.6 29.7 C 165.2 29.7 164.8 28.8 164.8 27.6 C 164.8 25.6 166.7 25.5 168.2 25.5 C 168.2 24.7 168.2 23.7 167.1 23.7 C 166.4 23.7 166 24.2 166.1 24.9 C 166.1 24.9 164.9 24.9 164.9 24.9 C 165 23.4 165.7 22.9 167.1 22.9 C 168.8 22.9 169.3 23.8 169.3 24.9 C 169.3 24.9 169.3 28 169.3 28 C 169.3 28.6 169.3 29.1 169.4 29.6 C 169.4 29.61 168.2 29.6 168.2 29.6 L 168.2 28.7 Z " stroke="none" fill="#003c71"/>  </g></svg>