<?xml version="1.0" standalone="no"?><!DOCTYPE svg PUBLIC "-//W3C//DTD SVG 1.1//EN" "http://www.w3.org/Graphics/SVG/1.1/DTD/svg11.dtd"><svg xmlns="http://www.w3.org/2000/svg" version="1.1" width="103px" height="45.3px" viewBox="0 -5 103 45.3" style="top:-5px">  <desc>Run in period 1 2 months</desc>  <defs/>  <g id="Polygon194379">    <path d="M 17.9 22.2 C 18.7 21.7 19.4 21.2 20 20.5 C 20.01 20.48 22.1 20.5 22.1 20.5 L 22.1 31.4 L 19.7 31.4 C 19.7 31.4 19.74 22.99 19.7 23 C 19.2 23.5 18.5 23.9 17.9 24.2 C 17.9 24.2 17.9 22.2 17.9 22.2 Z M 28.6 26.4 L 28.6 28 L 24.8 28 L 24.8 26.4 L 28.6 26.4 Z M 29.5 31.4 C 29.5 31.4 29.45 29.45 29.5 29.5 C 32.9 24.9 33.6 24.3 33.6 23 C 33.6 22.4 33.4 21.9 32.8 21.9 C 31.9 21.9 31.8 22.8 31.8 23.5 C 31.8 23.5 29.6 23.5 29.6 23.5 C 29.5 21.5 30.6 20.3 32.6 20.3 C 34.5 20.3 35.8 21.1 35.8 23.1 C 35.8 25.6 32.9 28.4 31.8 29.7 C 31.76 29.69 35.9 29.7 35.9 29.7 L 35.9 31.4 L 29.5 31.4 Z M 42.6 24.3 C 42.6 24.3 42.59 24.28 42.6 24.3 C 43 23.6 43.6 23.3 44.5 23.3 C 45.2 23.3 45.9 23.7 46.2 24.3 C 46.7 23.6 47.4 23.3 48.3 23.3 C 49.3 23.3 50.2 24 50.2 25 C 50.23 25.05 50.2 31.4 50.2 31.4 L 48 31.4 C 48 31.4 48.03 25.94 48 25.9 C 48 25.2 47.9 24.7 47.2 24.7 C 46.5 24.7 46.4 25.2 46.4 25.9 C 46.37 25.94 46.4 31.4 46.4 31.4 L 44.2 31.4 C 44.2 31.4 44.22 25.94 44.2 25.9 C 44.2 25.2 44.1 24.7 43.4 24.7 C 42.7 24.7 42.6 25.2 42.6 25.9 C 42.56 25.94 42.6 31.4 42.6 31.4 L 40.4 31.4 L 40.4 23.5 L 42.6 23.5 L 42.6 24.3 Z M 55.8 27.2 C 55.8 25.6 55.8 24.7 54.8 24.7 C 53.9 24.7 53.8 25.6 53.8 27.2 C 53.8 29.6 54 30.1 54.8 30.1 C 55.6 30.1 55.8 29.6 55.8 27.2 Z M 51.6 27.3 C 51.6 25.2 51.9 23.3 54.8 23.3 C 57.7 23.3 58 25.2 58 27.3 C 58 29.8 57.7 31.5 54.8 31.5 C 52 31.5 51.6 29.8 51.6 27.3 Z M 61.8 24.3 C 61.8 24.3 61.84 24.29 61.8 24.3 C 62.1 23.9 62.3 23.7 62.6 23.6 C 62.9 23.4 63.3 23.3 63.7 23.3 C 64.7 23.3 65.7 24 65.7 25 C 65.67 25.05 65.7 31.4 65.7 31.4 L 63.5 31.4 C 63.5 31.4 63.47 25.94 63.5 25.9 C 63.5 25.2 63.3 24.7 62.6 24.7 C 61.9 24.7 61.8 25.2 61.8 25.9 C 61.81 25.94 61.8 31.4 61.8 31.4 L 59.6 31.4 L 59.6 23.5 L 61.8 23.5 L 61.8 24.3 Z M 66.5 23.5 L 67.4 23.5 L 67.4 22.2 L 69.6 21.3 L 69.6 23.5 L 70.8 23.5 L 70.8 24.8 L 69.6 24.8 C 69.6 24.8 69.62 29.06 69.6 29.1 C 69.6 29.7 69.6 30 70.3 30 C 70.5 30 70.6 30 70.7 30 C 70.7 30 70.7 31.4 70.7 31.4 C 70.4 31.4 70.1 31.4 69.6 31.4 C 67.7 31.4 67.4 30.2 67.4 29.7 C 67.42 29.7 67.4 24.8 67.4 24.8 L 66.5 24.8 L 66.5 23.5 Z M 75.6 31.4 C 75.6 31.4 75.61 25.94 75.6 25.9 C 75.6 25.2 75.5 24.7 74.8 24.7 C 74.1 24.7 74 25.2 74 25.9 C 73.95 25.94 74 31.4 74 31.4 L 71.8 31.4 L 71.8 20.1 L 74 20.1 L 74 24.3 C 74 24.3 73.99 24.29 74 24.3 C 74.2 23.9 74.5 23.7 74.8 23.6 C 75.1 23.4 75.4 23.3 75.8 23.3 C 76.9 23.3 77.8 24 77.8 25 C 77.81 25.05 77.8 31.4 77.8 31.4 L 75.6 31.4 Z M 81.3 28.8 C 81.3 29.2 81.3 29.5 81.4 29.8 C 81.5 30 81.8 30.2 82.2 30.2 C 82.6 30.2 83 29.9 83 29.4 C 83 27.7 79.1 28.1 79.1 25.5 C 79.1 23.8 80.8 23.3 82.2 23.3 C 83.7 23.3 85.1 24.1 85 25.8 C 85 25.8 82.8 25.8 82.8 25.8 C 82.8 25.2 82.8 24.9 82.6 24.7 C 82.5 24.6 82.3 24.6 82 24.6 C 81.6 24.6 81.3 24.9 81.3 25.4 C 81.3 26.7 85.2 26.6 85.2 29.1 C 85.2 30.5 84 31.5 82.2 31.5 C 80.3 31.5 79 31 79.1 28.8 C 79.1 28.8 81.3 28.8 81.3 28.8 Z " stroke="none" fill="#003c71"/>  </g>  <g id="Polygon194378">    <path d="M 11.7 4.9 C 11.7 4.9 12.79 4.9 12.8 4.9 C 13.7 4.9 14 4 14 3.2 C 14 2.2 13.5 1.8 12.8 1.8 C 12.79 1.76 11.7 1.8 11.7 1.8 L 11.7 4.9 Z M 11.7 11.3 L 9.4 11.3 L 9.4 0 C 9.4 0 13.74 0.03 13.7 0 C 15.3 0 16.4 1.1 16.4 3 C 16.4 4.4 15.8 5.5 14.3 5.7 C 14.3 5.7 14.3 5.8 14.3 5.8 C 14.8 5.8 16.3 6 16.3 8 C 16.3 8.7 16.4 10.8 16.6 11.3 C 16.6 11.3 14.3 11.3 14.3 11.3 C 14 10.6 14 9.8 14 9.1 C 14 7.8 14.2 6.6 12.4 6.6 C 12.35 6.63 11.7 6.6 11.7 6.6 L 11.7 11.3 Z M 21.9 10.5 C 21.9 10.5 21.83 10.5 21.8 10.5 C 21.6 10.8 21.4 11.1 21 11.2 C 20.7 11.4 20.4 11.5 20 11.5 C 18.9 11.5 18 10.8 18 9.7 C 18 9.74 18 3.4 18 3.4 L 20.2 3.4 C 20.2 3.4 20.2 8.88 20.2 8.9 C 20.2 9.6 20.3 10.1 21 10.1 C 21.7 10.1 21.9 9.6 21.9 8.9 C 21.86 8.88 21.9 3.4 21.9 3.4 L 24.1 3.4 C 24.1 3.4 24.06 9.74 24.1 9.7 C 24.1 10.3 24.1 10.8 24.1 11.3 C 24.14 11.3 21.9 11.3 21.9 11.3 L 21.9 10.5 Z M 28 4.2 C 28 4.2 28.04 4.22 28 4.2 C 28.3 3.9 28.5 3.6 28.8 3.5 C 29.1 3.3 29.5 3.3 29.9 3.3 C 30.9 3.3 31.9 3.9 31.9 5 C 31.86 4.98 31.9 11.3 31.9 11.3 L 29.7 11.3 C 29.7 11.3 29.66 5.87 29.7 5.9 C 29.7 5.2 29.5 4.6 28.8 4.6 C 28.1 4.6 28 5.2 28 5.9 C 28.01 5.87 28 11.3 28 11.3 L 25.8 11.3 L 25.8 3.4 L 28 3.4 L 28 4.2 Z M 37.2 6.3 L 37.2 7.9 L 33.4 7.9 L 33.4 6.3 L 37.2 6.3 Z M 41.2 11.3 L 39 11.3 L 39 3.4 L 41.2 3.4 L 41.2 11.3 Z M 41.2 0 L 41.2 1.8 L 39 1.8 L 39 0 L 41.2 0 Z M 45.4 4.2 C 45.4 4.2 45.38 4.22 45.4 4.2 C 45.6 3.9 45.9 3.6 46.2 3.5 C 46.5 3.3 46.8 3.3 47.2 3.3 C 48.3 3.3 49.2 3.9 49.2 5 C 49.21 4.98 49.2 11.3 49.2 11.3 L 47 11.3 C 47 11.3 47.01 5.87 47 5.9 C 47 5.2 46.9 4.6 46.2 4.6 C 45.5 4.6 45.4 5.2 45.4 5.9 C 45.35 5.87 45.4 11.3 45.4 11.3 L 43.2 11.3 L 43.2 3.4 L 45.4 3.4 L 45.4 4.2 Z M 58.4 7.3 C 58.4 5.7 58.5 4.6 57.5 4.6 C 56.6 4.6 56.6 5.7 56.6 7.3 C 56.6 9.3 56.8 10.1 57.5 10.1 C 58.3 10.1 58.4 9.3 58.4 7.3 Z M 56.5 3.4 L 56.5 4.3 C 56.5 4.3 56.54 4.29 56.5 4.3 C 56.9 3.5 57.6 3.3 58.4 3.3 C 60.7 3.3 60.6 5.8 60.6 7.4 C 60.6 9 60.7 11.5 58.4 11.5 C 57.7 11.5 57.1 11.2 56.7 10.6 C 56.65 10.55 56.6 10.6 56.6 10.6 L 56.6 14.7 L 54.4 14.7 L 54.4 3.4 L 56.5 3.4 Z M 66.3 6.5 C 66.3 5.7 66.3 4.6 65.3 4.6 C 64.2 4.6 64.3 5.8 64.3 6.5 C 64.3 6.5 66.3 6.5 66.3 6.5 Z M 64.3 7.7 C 64.3 8.6 64.3 10.1 65.3 10.1 C 66 10.1 66.2 9.3 66.2 8.6 C 66.2 8.6 68.4 8.6 68.4 8.6 C 68.4 9.5 68.1 10.2 67.6 10.7 C 67.1 11.2 66.3 11.5 65.3 11.5 C 62.4 11.5 62 9.7 62 7.3 C 62 5.1 62.4 3.3 65.3 3.3 C 68.2 3.3 68.5 5.2 68.5 7.7 C 68.5 7.7 64.3 7.7 64.3 7.7 Z M 72.1 3.4 L 72.1 4.4 C 72.1 4.4 72.15 4.43 72.2 4.4 C 72.6 3.5 73.3 3.3 74.2 3.3 C 74.2 3.3 74.2 5.2 74.2 5.2 C 72.3 5.1 72.2 6.2 72.2 7 C 72.23 7.01 72.2 11.3 72.2 11.3 L 70 11.3 L 70 3.4 L 72.1 3.4 Z M 77.6 11.3 L 75.4 11.3 L 75.4 3.4 L 77.6 3.4 L 77.6 11.3 Z M 77.6 0 L 77.6 1.8 L 75.4 1.8 L 75.4 0 L 77.6 0 Z M 83.6 7.1 C 83.6 5.5 83.5 4.7 82.6 4.7 C 81.7 4.7 81.6 5.5 81.6 7.1 C 81.6 9.5 81.8 10.1 82.6 10.1 C 83.4 10.1 83.6 9.5 83.6 7.1 Z M 79.4 7.3 C 79.4 5.1 79.7 3.3 82.6 3.3 C 85.5 3.3 85.8 5.1 85.8 7.3 C 85.8 9.7 85.4 11.5 82.6 11.5 C 79.8 11.5 79.4 9.7 79.4 7.3 Z M 91.2 7.3 C 91.2 5.7 91.2 4.6 90.3 4.6 C 89.4 4.6 89.4 5.7 89.4 7.3 C 89.4 9.3 89.5 10.1 90.3 10.1 C 91.1 10.1 91.2 9.3 91.2 7.3 Z M 91.3 11.3 L 91.3 10.4 C 91.3 10.4 91.28 10.43 91.3 10.4 C 90.9 11.2 90.3 11.5 89.4 11.5 C 87.1 11.5 87.2 8.9 87.2 7.3 C 87.2 5.7 87.2 3.3 89.4 3.3 C 90.2 3.3 90.7 3.5 91.2 4.2 C 91.17 4.17 91.2 4.2 91.2 4.2 L 91.2 0 L 93.4 0 L 93.4 11.3 L 91.3 11.3 Z " stroke="none" fill="#003c71"/>  </g></svg>