<?xml version="1.0" standalone="no"?><!DOCTYPE svg PUBLIC "-//W3C//DTD SVG 1.1//EN" "http://www.w3.org/Graphics/SVG/1.1/DTD/svg11.dtd"><svg xmlns="http://www.w3.org/2000/svg" version="1.1" width="319px" height="289px" viewBox="0 -6 319 289" style="top:-6px">  <desc>The Phase 3 OLE AE profile was consistent with the Phase 3. No TEAEs leading to death. One TEAE led to study disconti...</desc>  <defs/>  <g id="Polygon202367">    <path d="M 1.4 97.3 C 1.4 97.3 1.4 93 1.4 93 C 1.4 90.4 2.7 88.8 5.5 88.8 C 8.2 88.8 9.6 90.4 9.6 93 C 9.6 93 9.6 97.3 9.6 97.3 C 9.6 100.9 8.2 102.3 5.5 102.3 C 2.7 102.3 1.4 100.9 1.4 97.3 Z M 7.9 97.4 C 7.9 97.4 7.9 93 7.9 93 C 7.9 90.2 6 90.2 5.5 90.2 C 5 90.2 3.1 90.2 3.1 93 C 3.1 93 3.1 97.4 3.1 97.4 C 3.1 100.2 3.9 100.9 5.5 100.9 C 7.1 100.9 7.9 100.2 7.9 97.4 Z M 17.2 102 C 17.2 102 17.23 95.73 17.2 95.7 C 17.2 94.8 16.9 94 15.6 94 C 14 94 13.8 95.4 13.8 96.6 C 13.77 96.65 13.8 102 13.8 102 L 12.3 102 C 12.3 102 12.29 94.83 12.3 94.8 C 12.3 94.2 12.3 93.6 12.2 92.9 C 12.2 92.94 13.8 92.9 13.8 92.9 L 13.8 94.1 C 13.8 94.1 13.84 94.11 13.8 94.1 C 14.4 93.1 15.1 92.8 16.3 92.8 C 18.2 92.8 18.7 93.9 18.7 95.7 C 18.7 95.73 18.7 102 18.7 102 L 17.2 102 Z M 26.3 96.8 C 26.3 94.2 25.5 93.9 24.5 93.9 C 23.5 93.9 22.8 94.3 22.7 96.8 C 22.7 96.8 26.3 96.8 26.3 96.8 Z M 22.7 98 C 22.7 100.5 23.4 101 24.6 101 C 25.6 101 26.1 100.2 26.2 99.3 C 26.2 99.3 27.8 99.3 27.8 99.3 C 27.8 101.3 26.5 102.2 24.6 102.2 C 22.7 102.2 21.1 101.6 21.1 97.6 C 21.1 95 21.5 92.8 24.6 92.8 C 27.2 92.8 27.8 94.2 27.8 97.2 C 27.85 97.19 27.8 98 27.8 98 C 27.8 98 22.73 97.96 22.7 98 Z M 41.7 89 L 41.7 90.5 L 38.3 90.5 L 38.3 102 L 36.7 102 L 36.7 90.5 L 33.2 90.5 L 33.2 89 L 41.7 89 Z M 43.5 102 L 43.5 89 L 50.1 89 L 50.1 90.5 L 45.1 90.5 L 45.1 94.7 L 49.8 94.7 L 49.8 96.1 L 45.1 96.1 L 45.1 100.6 L 50.3 100.6 L 50.3 102 L 43.5 102 Z M 55.4 89 L 57.5 89 L 61.7 102 L 59.9 102 L 58.9 98.9 L 53.9 98.9 L 52.9 102 L 51.3 102 L 55.4 89 Z M 56.4 90.6 L 56.4 90.6 L 54.3 97.5 L 58.5 97.5 L 56.4 90.6 Z M 63.4 102 L 63.4 89 L 70.1 89 L 70.1 90.5 L 65.1 90.5 L 65.1 94.7 L 69.8 94.7 L 69.8 96.1 L 65.1 96.1 L 65.1 100.6 L 70.3 100.6 L 70.3 102 L 63.4 102 Z M 77.7 102 L 76.2 102 L 76.2 89 L 77.7 89 L 77.7 102 Z M 85.3 96.8 C 85.3 94.2 84.5 93.9 83.4 93.9 C 82.5 93.9 81.7 94.3 81.7 96.8 C 81.7 96.8 85.3 96.8 85.3 96.8 Z M 81.7 98 C 81.7 100.5 82.4 101 83.6 101 C 84.6 101 85.1 100.2 85.1 99.3 C 85.1 99.3 86.8 99.3 86.8 99.3 C 86.7 101.3 85.5 102.2 83.6 102.2 C 81.7 102.2 80.1 101.6 80.1 97.6 C 80.1 95 80.4 92.8 83.6 92.8 C 86.2 92.8 86.8 94.2 86.8 97.2 C 86.83 97.19 86.8 98 86.8 98 C 86.8 98 81.72 97.96 81.7 98 Z M 92.4 94 C 90.8 94 90.6 95.2 90.6 97.7 C 90.6 99 90.6 101 92.4 101 C 94.1 101 94.1 99 94.1 97.1 C 94.1 95.9 94 94 92.4 94 Z M 94.1 89 L 95.6 89 L 95.6 102 L 94.1 102 L 94.1 101 C 94.1 101 94.05 100.95 94 101 C 93.5 101.8 92.9 102.2 92 102.2 C 90.5 102.2 89 101.6 89 97.6 C 89 95.4 89.1 92.8 92 92.8 C 92.9 92.8 93.5 93.1 94 93.9 C 94.03 93.86 94.1 93.9 94.1 93.9 L 94.1 89 Z M 102.4 92.9 L 102.4 91.2 L 103.9 90.5 L 103.9 92.9 L 105.9 92.9 L 105.9 94.1 L 103.9 94.1 C 103.9 94.1 103.91 99.62 103.9 99.6 C 103.9 100.2 103.9 100.9 105.3 100.9 C 105.4 100.9 105.6 100.9 105.9 100.9 C 105.9 100.9 105.9 102 105.9 102 C 105.4 102 105 102.1 104.5 102.1 C 103.1 102.1 102.4 101.6 102.4 100.5 C 102.44 100.52 102.4 94.1 102.4 94.1 L 100.9 94.1 L 100.9 92.9 L 102.4 92.9 Z M 112.4 97 C 112.4 94.5 111.6 94 110.5 94 C 109.3 94 108.6 94.5 108.6 97 C 108.6 99.9 109 101 110.5 101 C 112 101 112.4 99.9 112.4 97 Z M 107 97.6 C 107 95 107.3 92.8 110.5 92.8 C 113.6 92.8 113.9 95 113.9 97.6 C 113.9 101.6 112.4 102.2 110.5 102.2 C 108.6 102.2 107 101.6 107 97.6 Z M 123 102.2 C 121 102.2 119.8 101.3 119.8 99.3 C 119.8 99.3 121.5 99.3 121.5 99.3 C 121.5 99.8 121.5 101 123 101 C 123.9 101 124.6 100.6 124.6 99.6 C 124.6 98 120 98 120 95.2 C 120 94.3 120.6 92.8 123.2 92.8 C 124.8 92.8 126.2 93.5 126.1 95.3 C 126.1 95.3 124.4 95.3 124.4 95.3 C 124.4 94.4 123.9 93.9 123 93.9 C 122.2 93.9 121.6 94.3 121.6 95.1 C 121.6 96.7 126.1 96.7 126.1 99.4 C 126.1 101.4 124.8 102.2 123 102.2 Z M 128.4 92.9 L 128.4 91.2 L 129.9 90.5 L 129.9 92.9 L 131.9 92.9 L 131.9 94.1 L 129.9 94.1 C 129.9 94.1 129.9 99.62 129.9 99.6 C 129.9 100.2 129.9 100.9 131.3 100.9 C 131.4 100.9 131.6 100.9 131.9 100.9 C 131.9 100.9 131.9 102 131.9 102 C 131.4 102 130.9 102.1 130.5 102.1 C 129.1 102.1 128.4 101.6 128.4 100.5 C 128.43 100.52 128.4 94.1 128.4 94.1 L 126.9 94.1 L 126.9 92.9 L 128.4 92.9 Z M 138.1 92.9 L 139.6 92.9 C 139.6 92.9 139.61 100.14 139.6 100.1 C 139.6 100.8 139.6 101.4 139.7 102 C 139.7 102.03 138.1 102 138.1 102 L 138.1 100.9 C 138.1 100.9 138.08 100.93 138.1 100.9 C 137.6 101.8 136.7 102.2 135.8 102.2 C 134.2 102.2 133.3 101.4 133.3 99.9 C 133.32 99.87 133.3 92.9 133.3 92.9 L 134.8 92.9 C 134.8 92.9 134.8 99.24 134.8 99.2 C 134.8 100.3 135.3 101.1 136.3 101.1 C 137.1 101.1 138.1 100.5 138.1 99 C 138.13 98.97 138.1 92.9 138.1 92.9 Z M 145.4 94 C 143.8 94 143.6 95.2 143.6 97.7 C 143.6 99 143.6 101 145.4 101 C 147.1 101 147.1 99 147.1 97.1 C 147.1 95.9 147 94 145.4 94 Z M 147.1 89 L 148.6 89 L 148.6 102 L 147.1 102 L 147.1 101 C 147.1 101 147.04 100.95 147 101 C 146.5 101.8 145.9 102.2 145 102.2 C 143.5 102.2 142 101.6 142 97.6 C 142 95.4 142.1 92.8 145 92.8 C 145.9 92.8 146.5 93.1 147 93.9 C 147.02 93.86 147.1 93.9 147.1 93.9 L 147.1 89 Z M 154 100.3 L 154 100.3 L 156.2 92.9 L 157.8 92.9 L 153.7 105.5 L 152.2 105.5 L 153.2 102 L 150.1 92.9 L 151.8 92.9 L 154 100.3 Z M 166.4 94 C 164.8 94 164.6 95.2 164.6 97.7 C 164.6 99 164.6 101 166.4 101 C 168.1 101 168.1 99 168.1 97.1 C 168.1 95.9 168 94 166.4 94 Z M 168.1 89 L 169.5 89 L 169.5 102 L 168.1 102 L 168.1 101 C 168.1 101 168.03 100.95 168 101 C 167.5 101.8 166.9 102.2 165.9 102.2 C 164.5 102.2 163 101.6 163 97.6 C 163 95.4 163.1 92.8 166 92.8 C 166.9 92.8 167.5 93.1 168 93.9 C 168.01 93.86 168.1 93.9 168.1 93.9 L 168.1 89 Z M 173.7 102 L 172.2 102 L 172.2 92.9 L 173.7 92.9 L 173.7 102 Z M 172.1 89 L 173.8 89 L 173.8 90.6 L 172.1 90.6 L 172.1 89 Z M 178.9 102.2 C 177 102.2 175.7 101.3 175.8 99.3 C 175.8 99.3 177.5 99.3 177.5 99.3 C 177.5 99.8 177.5 101 179 101 C 179.9 101 180.6 100.6 180.6 99.6 C 180.6 98 176 98 176 95.2 C 176 94.3 176.6 92.8 179.2 92.8 C 180.8 92.8 182.2 93.5 182 95.3 C 182 95.3 180.4 95.3 180.4 95.3 C 180.4 94.4 179.9 93.9 179 93.9 C 178.2 93.9 177.6 94.3 177.6 95.1 C 177.6 96.7 182.1 96.7 182.1 99.4 C 182.1 101.4 180.7 102.2 178.9 102.2 Z M 189 95.9 C 189 94.4 188.3 94 187.7 94 C 186.6 94 185.8 94.5 185.8 97 C 185.8 99.9 186.2 101 187.7 101 C 188.1 101 189.1 100.6 189.1 99 C 189.1 99 190.6 99 190.6 99 C 190.7 101.6 188.7 102.2 187.7 102.2 C 185.8 102.2 184.3 101.6 184.3 97.6 C 184.3 95 184.6 92.8 187.7 92.8 C 189.6 92.8 190.6 93.8 190.5 95.9 C 190.5 95.9 189 95.9 189 95.9 Z M 198.4 97 C 198.4 94.5 197.6 94 196.4 94 C 195.3 94 194.5 94.5 194.5 97 C 194.5 99.9 194.9 101 196.4 101 C 198 101 198.4 99.9 198.4 97 Z M 193 97.6 C 193 95 193.3 92.8 196.4 92.8 C 199.6 92.8 199.9 95 199.9 97.6 C 199.9 101.6 198.4 102.2 196.4 102.2 C 194.5 102.2 193 101.6 193 97.6 Z M 207.2 102 C 207.2 102 207.18 95.73 207.2 95.7 C 207.2 94.8 206.8 94 205.6 94 C 204 94 203.7 95.4 203.7 96.6 C 203.72 96.65 203.7 102 203.7 102 L 202.2 102 C 202.2 102 202.25 94.83 202.2 94.8 C 202.2 94.2 202.2 93.6 202.2 92.9 C 202.15 92.94 203.7 92.9 203.7 92.9 L 203.7 94.1 C 203.7 94.1 203.79 94.11 203.8 94.1 C 204.4 93.1 205.1 92.8 206.2 92.8 C 208.2 92.8 208.7 93.9 208.7 95.7 C 208.65 95.73 208.7 102 208.7 102 L 207.2 102 Z M 211.4 92.9 L 211.4 91.2 L 212.9 90.5 L 212.9 92.9 L 214.9 92.9 L 214.9 94.1 L 212.9 94.1 C 212.9 94.1 212.88 99.62 212.9 99.6 C 212.9 100.2 212.9 100.9 214.2 100.9 C 214.3 100.9 214.6 100.9 214.9 100.9 C 214.9 100.9 214.9 102 214.9 102 C 214.4 102 213.9 102.1 213.4 102.1 C 212 102.1 211.4 101.6 211.4 100.5 C 211.41 100.52 211.4 94.1 211.4 94.1 L 209.9 94.1 L 209.9 92.9 L 211.4 92.9 Z M 217.7 102 L 216.2 102 L 216.2 92.9 L 217.7 92.9 L 217.7 102 Z M 216.1 89 L 217.8 89 L 217.8 90.6 L 216.1 90.6 L 216.1 89 Z M 225.2 102 C 225.2 102 225.18 95.73 225.2 95.7 C 225.2 94.8 224.8 94 223.6 94 C 222 94 221.7 95.4 221.7 96.6 C 221.72 96.65 221.7 102 221.7 102 L 220.2 102 C 220.2 102 220.24 94.83 220.2 94.8 C 220.2 94.2 220.2 93.6 220.2 92.9 C 220.15 92.94 221.7 92.9 221.7 92.9 L 221.7 94.1 C 221.7 94.1 221.79 94.11 221.8 94.1 C 222.4 93.1 223.1 92.8 224.2 92.8 C 226.2 92.8 226.7 93.9 226.7 95.7 C 226.65 95.73 226.7 102 226.7 102 L 225.2 102 Z M 234.1 92.9 L 235.6 92.9 C 235.6 92.9 235.58 100.14 235.6 100.1 C 235.6 100.8 235.6 101.4 235.7 102 C 235.67 102.03 234.1 102 234.1 102 L 234.1 100.9 C 234.1 100.9 234.05 100.93 234.1 100.9 C 233.6 101.8 232.7 102.2 231.7 102.2 C 230.2 102.2 229.3 101.4 229.3 99.9 C 229.3 99.87 229.3 92.9 229.3 92.9 L 230.8 92.9 C 230.8 92.9 230.77 99.24 230.8 99.2 C 230.8 100.3 231.3 101.1 232.3 101.1 C 233.1 101.1 234.1 100.5 234.1 99 C 234.1 98.97 234.1 92.9 234.1 92.9 Z M 239.6 99.3 C 239.6 100.2 240 101 241 101 C 241.9 101 243 100.4 242.9 97.5 C 241.5 97.5 239.6 97.4 239.6 99.3 Z M 242.9 100.7 C 242.9 100.7 242.89 100.72 242.9 100.7 C 242.4 101.8 241.7 102.2 240.6 102.2 C 238.7 102.2 238.1 101 238.1 99.2 C 238.1 96.5 240.8 96.3 242.9 96.4 C 242.9 95.2 242.9 93.9 241.4 93.9 C 240.4 93.9 239.8 94.5 239.9 95.5 C 239.9 95.5 238.3 95.5 238.3 95.5 C 238.4 93.5 239.5 92.8 241.4 92.8 C 243.8 92.8 244.4 94 244.4 95.5 C 244.4 95.5 244.4 99.9 244.4 99.9 C 244.4 100.6 244.4 101.3 244.5 102 C 244.54 102.03 242.9 102 242.9 102 L 242.9 100.7 Z M 247.4 92.9 L 247.4 91.2 L 248.9 90.5 L 248.9 92.9 L 250.9 92.9 L 250.9 94.1 L 248.9 94.1 C 248.9 94.1 248.88 99.62 248.9 99.6 C 248.9 100.2 248.9 100.9 250.2 100.9 C 250.3 100.9 250.6 100.9 250.9 100.9 C 250.9 100.9 250.9 102 250.9 102 C 250.4 102 249.9 102.1 249.4 102.1 C 248 102.1 247.4 101.6 247.4 100.5 C 247.41 100.52 247.4 94.1 247.4 94.1 L 245.9 94.1 L 245.9 92.9 L 247.4 92.9 Z M 253.7 102 L 252.2 102 L 252.2 92.9 L 253.7 92.9 L 253.7 102 Z M 252.1 89 L 253.8 89 L 253.8 90.6 L 252.1 90.6 L 252.1 89 Z M 261.4 97 C 261.4 94.5 260.6 94 259.4 94 C 258.3 94 257.5 94.5 257.5 97 C 257.5 99.9 257.9 101 259.4 101 C 261 101 261.4 99.9 261.4 97 Z M 256 97.6 C 256 95 256.3 92.8 259.4 92.8 C 262.6 92.8 262.9 95 262.9 97.6 C 262.9 101.6 261.4 102.2 259.4 102.2 C 257.5 102.2 256 101.6 256 97.6 Z M 270.2 102 C 270.2 102 270.18 95.73 270.2 95.7 C 270.2 94.8 269.8 94 268.6 94 C 267 94 266.7 95.4 266.7 96.6 C 266.72 96.65 266.7 102 266.7 102 L 265.2 102 C 265.2 102 265.24 94.83 265.2 94.8 C 265.2 94.2 265.2 93.6 265.2 92.9 C 265.15 92.94 266.7 92.9 266.7 92.9 L 266.7 94.1 C 266.7 94.1 266.79 94.11 266.8 94.1 C 267.4 93.1 268.1 92.8 269.2 92.8 C 271.2 92.8 271.7 93.9 271.7 95.7 C 271.65 95.73 271.7 102 271.7 102 L 270.2 102 Z M 275.8 102 L 274.1 102 L 274.1 100.2 L 275.8 100.2 L 275.8 102 Z M 278.8 90.7 L 277.4 90.7 L 277.4 90 L 278.8 90 L 278.8 88.5 L 279.7 88.5 L 279.7 90 L 281.2 90 L 281.2 90.7 L 279.7 90.7 L 279.7 96 L 278.8 96 L 278.8 90.7 Z " stroke="none" fill="#555555"/>  </g>  <g id="Polygon202366">    <path d="M 10.5 56 L 10.5 69 L 8.2 69 L 3.1 57.8 L 3 57.8 L 3 69 L 1.5 69 L 1.5 56 L 3.9 56 L 8.9 67.2 L 9 67.2 L 9 56 L 10.5 56 Z M 18.4 64 C 18.4 61.5 17.6 61 16.5 61 C 15.4 61 14.6 61.5 14.6 64 C 14.6 66.9 15 68 16.5 68 C 18 68 18.4 66.9 18.4 64 Z M 13 64.6 C 13 62 13.4 59.8 16.5 59.8 C 19.7 59.8 20 62 20 64.6 C 20 68.6 18.4 69.2 16.5 69.2 C 14.6 69.2 13 68.6 13 64.6 Z M 33.7 56 L 33.7 57.5 L 30.3 57.5 L 30.3 69 L 28.7 69 L 28.7 57.5 L 25.3 57.5 L 25.3 56 L 33.7 56 Z M 35.5 69 L 35.5 56 L 42.2 56 L 42.2 57.5 L 37.1 57.5 L 37.1 61.7 L 41.8 61.7 L 41.8 63.1 L 37.1 63.1 L 37.1 67.6 L 42.3 67.6 L 42.3 69 L 35.5 69 Z M 47.4 56 L 49.5 56 L 53.7 69 L 51.9 69 L 50.9 65.9 L 45.9 65.9 L 44.9 69 L 43.3 69 L 47.4 56 Z M 48.4 57.6 L 48.4 57.6 L 46.3 64.5 L 50.5 64.5 L 48.4 57.6 Z M 55.5 69 L 55.5 56 L 62.2 56 L 62.2 57.5 L 57.1 57.5 L 57.1 61.7 L 61.8 61.7 L 61.8 63.1 L 57.1 63.1 L 57.1 67.6 L 62.3 67.6 L 62.3 69 L 55.5 69 Z M 67 69.2 C 65 69.2 63.8 68.3 63.8 66.3 C 63.8 66.3 65.5 66.3 65.5 66.3 C 65.5 66.8 65.5 68 67 68 C 67.9 68 68.6 67.6 68.6 66.6 C 68.6 65 64.1 65 64.1 62.2 C 64.1 61.3 64.6 59.8 67.2 59.8 C 68.8 59.8 70.2 60.5 70.1 62.3 C 70.1 62.3 68.4 62.3 68.4 62.3 C 68.5 61.4 67.9 60.9 67 60.9 C 66.2 60.9 65.6 61.3 65.6 62.1 C 65.6 63.7 70.1 63.7 70.1 66.4 C 70.1 68.4 68.8 69.2 67 69.2 Z M 77.7 69 L 76.2 69 L 76.2 56 L 77.7 56 L 77.7 69 Z M 85.3 63.8 C 85.3 61.2 84.5 60.9 83.4 60.9 C 82.5 60.9 81.7 61.3 81.7 63.8 C 81.7 63.8 85.3 63.8 85.3 63.8 Z M 81.7 65 C 81.7 67.5 82.4 68 83.6 68 C 84.6 68 85.1 67.2 85.1 66.3 C 85.1 66.3 86.8 66.3 86.8 66.3 C 86.7 68.3 85.5 69.2 83.6 69.2 C 81.7 69.2 80.1 68.6 80.1 64.6 C 80.1 62 80.4 59.8 83.6 59.8 C 86.2 59.8 86.8 61.2 86.8 64.2 C 86.83 64.19 86.8 65 86.8 65 C 86.8 65 81.72 64.96 81.7 65 Z M 90.6 66.3 C 90.6 67.2 91.1 68 92.1 68 C 93 68 94.1 67.4 93.9 64.5 C 92.5 64.5 90.6 64.4 90.6 66.3 Z M 94 67.7 C 94 67.7 93.92 67.72 93.9 67.7 C 93.5 68.8 92.8 69.2 91.6 69.2 C 89.7 69.2 89.2 68 89.2 66.2 C 89.2 63.5 91.9 63.3 93.9 63.4 C 94 62.2 94 60.9 92.4 60.9 C 91.4 60.9 90.9 61.5 91 62.5 C 91 62.5 89.4 62.5 89.4 62.5 C 89.4 60.5 90.5 59.8 92.4 59.8 C 94.8 59.8 95.4 61 95.4 62.5 C 95.4 62.5 95.4 66.9 95.4 66.9 C 95.4 67.6 95.5 68.3 95.6 69 C 95.58 69.03 94 69 94 69 L 94 67.7 Z M 101.4 61 C 99.8 61 99.6 62.2 99.6 64.7 C 99.6 66 99.6 68 101.4 68 C 103.1 68 103.1 66 103.1 64.1 C 103.1 62.9 103 61 101.4 61 Z M 103.1 56 L 104.6 56 L 104.6 69 L 103.1 69 L 103.1 68 C 103.1 68 103.05 67.95 103 68 C 102.5 68.8 101.9 69.2 101 69.2 C 99.5 69.2 98 68.6 98 64.6 C 98 62.4 98.1 59.8 101 59.8 C 101.9 59.8 102.5 60.1 103 60.9 C 103.03 60.86 103.1 60.9 103.1 60.9 L 103.1 56 Z M 108.7 69 L 107.2 69 L 107.2 59.9 L 108.7 59.9 L 108.7 69 Z M 107.2 56 L 108.8 56 L 108.8 57.6 L 107.2 57.6 L 107.2 56 Z M 116.2 69 C 116.2 69 116.21 62.73 116.2 62.7 C 116.2 61.8 115.9 61 114.6 61 C 113 61 112.8 62.4 112.8 63.6 C 112.75 63.65 112.8 69 112.8 69 L 111.3 69 C 111.3 69 111.27 61.83 111.3 61.8 C 111.3 61.2 111.2 60.6 111.2 59.9 C 111.18 59.94 112.8 59.9 112.8 59.9 L 112.8 61.1 C 112.8 61.1 112.82 61.11 112.8 61.1 C 113.4 60.1 114.1 59.8 115.3 59.8 C 117.2 59.8 117.7 60.9 117.7 62.7 C 117.68 62.73 117.7 69 117.7 69 L 116.2 69 Z M 123.4 61 C 121.7 61 121.6 63 121.6 64.2 C 121.6 67.1 122.3 67.8 123.4 67.8 C 125.2 67.8 125.1 65.7 125.1 64.4 C 125.1 63.1 125.2 61 123.4 61 Z M 125.1 59.9 L 126.6 59.9 C 126.6 59.9 126.56 69.95 126.6 69.9 C 126.6 72 125.2 72.5 123.2 72.5 C 121.7 72.5 120.3 71.7 120.5 70 C 120.5 70 122.1 70 122.1 70 C 122.1 70.9 122.7 71.4 123.5 71.4 C 124.5 71.4 125.1 70.7 125.1 69.8 C 125.08 69.79 125.1 67.9 125.1 67.9 C 125.1 67.9 125.03 67.9 125 67.9 C 124.6 68.6 123.8 69 123 69 C 120.6 69 120.1 66.9 120.1 64.2 C 120.1 60 122.2 59.8 122.9 59.8 C 123.9 59.8 124.6 60.2 125 61.1 C 125.04 61.06 125.1 61.1 125.1 61.1 L 125.1 59.9 Z M 133.4 59.9 L 133.4 58.2 L 134.9 57.5 L 134.9 59.9 L 136.9 59.9 L 136.9 61.1 L 134.9 61.1 C 134.9 61.1 134.91 66.62 134.9 66.6 C 134.9 67.2 134.9 67.9 136.3 67.9 C 136.4 67.9 136.6 67.9 136.9 67.9 C 136.9 67.9 136.9 69 136.9 69 C 136.4 69 136 69.1 135.5 69.1 C 134.1 69.1 133.4 68.6 133.4 67.5 C 133.43 67.52 133.4 61.1 133.4 61.1 L 131.9 61.1 L 131.9 59.9 L 133.4 59.9 Z M 143.4 64 C 143.4 61.5 142.6 61 141.5 61 C 140.3 61 139.6 61.5 139.6 64 C 139.6 66.9 139.9 68 141.5 68 C 143 68 143.4 66.9 143.4 64 Z M 138 64.6 C 138 62 138.3 59.8 141.5 59.8 C 144.6 59.8 144.9 62 144.9 64.6 C 144.9 68.6 143.4 69.2 141.5 69.2 C 139.6 69.2 138 68.6 138 64.6 Z M 154.4 61 C 152.8 61 152.6 62.2 152.6 64.7 C 152.6 66 152.6 68 154.4 68 C 156.1 68 156.1 66 156.1 64.1 C 156.1 62.9 156 61 154.4 61 Z M 156.1 56 L 157.6 56 L 157.6 69 L 156.1 69 L 156.1 68 C 156.1 68 156.04 67.95 156 68 C 155.5 68.8 154.9 69.2 154 69.2 C 152.5 69.2 151 68.6 151 64.6 C 151 62.4 151.1 59.8 154 59.8 C 154.9 59.8 155.5 60.1 156 60.9 C 156.02 60.86 156.1 60.9 156.1 60.9 L 156.1 56 Z M 165.3 63.8 C 165.3 61.2 164.5 60.9 163.4 60.9 C 162.5 60.9 161.7 61.3 161.7 63.8 C 161.7 63.8 165.3 63.8 165.3 63.8 Z M 161.7 65 C 161.7 67.5 162.4 68 163.5 68 C 164.6 68 165.1 67.2 165.1 66.3 C 165.1 66.3 166.7 66.3 166.7 66.3 C 166.7 68.3 165.5 69.2 163.6 69.2 C 161.7 69.2 160.1 68.6 160.1 64.6 C 160.1 62 160.4 59.8 163.6 59.8 C 166.2 59.8 166.8 61.2 166.8 64.2 C 166.82 64.19 166.8 65 166.8 65 C 166.8 65 161.71 64.96 161.7 65 Z M 170.6 66.3 C 170.6 67.2 171.1 68 172 68 C 172.9 68 174.1 67.4 173.9 64.5 C 172.5 64.5 170.6 64.4 170.6 66.3 Z M 173.9 67.7 C 173.9 67.7 173.91 67.72 173.9 67.7 C 173.5 68.8 172.8 69.2 171.6 69.2 C 169.7 69.2 169.1 68 169.1 66.2 C 169.1 63.5 171.8 63.3 173.9 63.4 C 173.9 62.2 174 60.9 172.4 60.9 C 171.4 60.9 170.9 61.5 171 62.5 C 171 62.5 169.4 62.5 169.4 62.5 C 169.4 60.5 170.5 59.8 172.4 59.8 C 174.8 59.8 175.4 61 175.4 62.5 C 175.4 62.5 175.4 66.9 175.4 66.9 C 175.4 67.6 175.5 68.3 175.6 69 C 175.57 69.03 173.9 69 173.9 69 L 173.9 67.7 Z M 178.4 59.9 L 178.4 58.2 L 179.9 57.5 L 179.9 59.9 L 181.9 59.9 L 181.9 61.1 L 179.9 61.1 C 179.9 61.1 179.91 66.62 179.9 66.6 C 179.9 67.2 179.9 67.9 181.3 67.9 C 181.4 67.9 181.6 67.9 181.9 67.9 C 181.9 67.9 181.9 69 181.9 69 C 181.4 69 181 69.1 180.5 69.1 C 179.1 69.1 178.4 68.6 178.4 67.5 C 178.43 67.52 178.4 61.1 178.4 61.1 L 176.9 61.1 L 176.9 59.9 L 178.4 59.9 Z M 188.2 69 C 188.2 69 188.21 62.88 188.2 62.9 C 188.2 61.8 187.8 61 186.6 61 C 185.1 61 184.7 62.2 184.7 63.7 C 184.73 63.69 184.7 69 184.7 69 L 183.3 69 L 183.3 56 L 184.7 56 L 184.7 61.1 C 184.7 61.1 184.8 61.11 184.8 61.1 C 185.4 60 186.1 59.8 187.3 59.8 C 188.8 59.8 189.7 60.5 189.7 62.6 C 189.68 62.59 189.7 69 189.7 69 L 188.2 69 Z M 193.8 69 L 192.1 69 L 192.1 67.2 L 193.8 67.2 L 193.8 69 Z " stroke="none" fill="#555555"/>  </g>  <g id="Polygon202365">    <path d="M 6 29.9 C 6.1 28.4 5.3 28 4.8 28 C 3.7 28 2.9 28.5 2.9 31 C 2.9 33.9 3.3 35 4.8 35 C 5.1 35 6.2 34.6 6.1 33 C 6.1 33 7.6 33 7.6 33 C 7.7 35.6 5.8 36.2 4.8 36.2 C 2.9 36.2 1.3 35.6 1.3 31.6 C 1.3 29 1.6 26.8 4.8 26.8 C 6.6 26.8 7.7 27.8 7.6 29.9 C 7.6 29.9 6 29.9 6 29.9 Z M 15.4 31 C 15.4 28.5 14.6 28 13.5 28 C 12.4 28 11.6 28.5 11.6 31 C 11.6 33.9 12 35 13.5 35 C 15 35 15.4 33.9 15.4 31 Z M 10 31.6 C 10 29 10.4 26.8 13.5 26.8 C 16.6 26.8 17 29 17 31.6 C 17 35.6 15.4 36.2 13.5 36.2 C 11.6 36.2 10 35.6 10 31.6 Z M 24.2 36 C 24.2 36 24.23 29.73 24.2 29.7 C 24.2 28.8 23.9 28 22.6 28 C 21 28 20.8 29.4 20.8 30.6 C 20.77 30.65 20.8 36 20.8 36 L 19.3 36 C 19.3 36 19.3 28.83 19.3 28.8 C 19.3 28.2 19.3 27.6 19.2 26.9 C 19.21 26.94 20.8 26.9 20.8 26.9 L 20.8 28.1 C 20.8 28.1 20.84 28.11 20.8 28.1 C 21.4 27.1 22.1 26.8 23.3 26.8 C 25.2 26.8 25.7 27.9 25.7 29.7 C 25.7 29.73 25.7 36 25.7 36 L 24.2 36 Z M 31 36.2 C 29 36.2 27.8 35.3 27.8 33.3 C 27.8 33.3 29.5 33.3 29.5 33.3 C 29.5 33.8 29.5 35 31 35 C 31.9 35 32.6 34.6 32.6 33.6 C 32.6 32 28.1 32 28.1 29.2 C 28.1 28.3 28.6 26.8 31.2 26.8 C 32.8 26.8 34.2 27.5 34.1 29.3 C 34.1 29.3 32.4 29.3 32.4 29.3 C 32.5 28.4 32 27.9 31 27.9 C 30.2 27.9 29.6 28.3 29.6 29.1 C 29.6 30.7 34.1 30.7 34.1 33.4 C 34.1 35.4 32.8 36.2 31 36.2 Z M 37.7 36 L 36.3 36 L 36.3 26.9 L 37.7 26.9 L 37.7 36 Z M 36.2 23 L 37.8 23 L 37.8 24.6 L 36.2 24.6 L 36.2 23 Z M 43 36.2 C 41 36.2 39.8 35.3 39.8 33.3 C 39.8 33.3 41.5 33.3 41.5 33.3 C 41.5 33.8 41.5 35 43 35 C 43.9 35 44.6 34.6 44.6 33.6 C 44.6 32 40 32 40 29.2 C 40 28.3 40.6 26.8 43.2 26.8 C 44.8 26.8 46.2 27.5 46.1 29.3 C 46.1 29.3 44.4 29.3 44.4 29.3 C 44.4 28.4 43.9 27.9 43 27.9 C 42.2 27.9 41.6 28.3 41.6 29.1 C 41.6 30.7 46.1 30.7 46.1 33.4 C 46.1 35.4 44.8 36.2 43 36.2 Z M 48.4 26.9 L 48.4 25.2 L 49.9 24.5 L 49.9 26.9 L 51.9 26.9 L 51.9 28.1 L 49.9 28.1 C 49.9 28.1 49.91 33.62 49.9 33.6 C 49.9 34.2 49.9 34.9 51.3 34.9 C 51.4 34.9 51.6 34.9 51.9 34.9 C 51.9 34.9 51.9 36 51.9 36 C 51.4 36 51 36.1 50.5 36.1 C 49.1 36.1 48.4 35.6 48.4 34.5 C 48.44 34.52 48.4 28.1 48.4 28.1 L 46.9 28.1 L 46.9 26.9 L 48.4 26.9 Z M 58.3 30.8 C 58.3 28.2 57.5 27.9 56.4 27.9 C 55.5 27.9 54.7 28.3 54.7 30.8 C 54.7 30.8 58.3 30.8 58.3 30.8 Z M 54.7 32 C 54.7 34.5 55.4 35 56.6 35 C 57.6 35 58.1 34.2 58.1 33.3 C 58.1 33.3 59.8 33.3 59.8 33.3 C 59.7 35.3 58.5 36.2 56.6 36.2 C 54.7 36.2 53.1 35.6 53.1 31.6 C 53.1 29 53.4 26.8 56.6 26.8 C 59.2 26.8 59.8 28.2 59.8 31.2 C 59.83 31.19 59.8 32 59.8 32 C 59.8 32 54.72 31.96 54.7 32 Z M 67.2 36 C 67.2 36 67.21 29.73 67.2 29.7 C 67.2 28.8 66.9 28 65.6 28 C 64 28 63.8 29.4 63.8 30.6 C 63.76 30.65 63.8 36 63.8 36 L 62.3 36 C 62.3 36 62.28 28.83 62.3 28.8 C 62.3 28.2 62.2 27.6 62.2 26.9 C 62.19 26.94 63.8 26.9 63.8 26.9 L 63.8 28.1 C 63.8 28.1 63.83 28.11 63.8 28.1 C 64.4 27.1 65.1 26.8 66.3 26.8 C 68.2 26.8 68.7 27.9 68.7 29.7 C 68.69 29.73 68.7 36 68.7 36 L 67.2 36 Z M 71.4 26.9 L 71.4 25.2 L 72.9 24.5 L 72.9 26.9 L 74.9 26.9 L 74.9 28.1 L 72.9 28.1 C 72.9 28.1 72.92 33.62 72.9 33.6 C 72.9 34.2 72.9 34.9 74.3 34.9 C 74.4 34.9 74.6 34.9 74.9 34.9 C 74.9 34.9 74.9 36 74.9 36 C 74.4 36 74 36.1 73.5 36.1 C 72.1 36.1 71.4 35.6 71.4 34.5 C 71.44 34.52 71.4 28.1 71.4 28.1 L 69.9 28.1 L 69.9 26.9 L 71.4 26.9 Z M 79.1 26.9 L 80.8 26.9 L 82.4 34.8 L 82.5 34.8 L 84.5 26.9 L 86.6 26.9 L 88.4 34.8 L 88.5 34.8 L 90.3 26.9 L 91.8 26.9 L 89.4 36 L 87.4 36 L 85.5 28.3 L 85.4 28.3 L 83.4 36 L 81.4 36 L 79.1 26.9 Z M 94.7 36 L 93.2 36 L 93.2 26.9 L 94.7 26.9 L 94.7 36 Z M 93.1 23 L 94.8 23 L 94.8 24.6 L 93.1 24.6 L 93.1 23 Z M 97.4 26.9 L 97.4 25.2 L 98.9 24.5 L 98.9 26.9 L 100.9 26.9 L 100.9 28.1 L 98.9 28.1 C 98.9 28.1 98.91 33.62 98.9 33.6 C 98.9 34.2 98.9 34.9 100.3 34.9 C 100.4 34.9 100.6 34.9 100.9 34.9 C 100.9 34.9 100.9 36 100.9 36 C 100.4 36 100 36.1 99.5 36.1 C 98.1 36.1 97.4 35.6 97.4 34.5 C 97.43 34.52 97.4 28.1 97.4 28.1 L 95.9 28.1 L 95.9 26.9 L 97.4 26.9 Z M 107.2 36 C 107.2 36 107.21 29.88 107.2 29.9 C 107.2 28.8 106.8 28 105.6 28 C 104.1 28 103.7 29.2 103.7 30.7 C 103.73 30.69 103.7 36 103.7 36 L 102.3 36 L 102.3 23 L 103.7 23 L 103.7 28.1 C 103.7 28.1 103.8 28.11 103.8 28.1 C 104.4 27 105.1 26.8 106.3 26.8 C 107.8 26.8 108.7 27.5 108.7 29.6 C 108.68 29.59 108.7 36 108.7 36 L 107.2 36 Z M 115.4 26.9 L 115.4 25.2 L 116.9 24.5 L 116.9 26.9 L 118.9 26.9 L 118.9 28.1 L 116.9 28.1 C 116.9 28.1 116.91 33.62 116.9 33.6 C 116.9 34.2 116.9 34.9 118.3 34.9 C 118.4 34.9 118.6 34.9 118.9 34.9 C 118.9 34.9 118.9 36 118.9 36 C 118.4 36 118 36.1 117.5 36.1 C 116.1 36.1 115.4 35.6 115.4 34.5 C 115.43 34.52 115.4 28.1 115.4 28.1 L 113.9 28.1 L 113.9 26.9 L 115.4 26.9 Z M 125.2 36 C 125.2 36 125.21 29.88 125.2 29.9 C 125.2 28.8 124.8 28 123.6 28 C 122.1 28 121.7 29.2 121.7 30.7 C 121.73 30.69 121.7 36 121.7 36 L 120.3 36 L 120.3 23 L 121.7 23 L 121.7 28.1 C 121.7 28.1 121.8 28.11 121.8 28.1 C 122.4 27 123.1 26.8 124.3 26.8 C 125.8 26.8 126.7 27.5 126.7 29.6 C 126.68 29.59 126.7 36 126.7 36 L 125.2 36 Z M 134.3 30.8 C 134.3 28.2 133.5 27.9 132.4 27.9 C 131.5 27.9 130.7 28.3 130.7 30.8 C 130.7 30.8 134.3 30.8 134.3 30.8 Z M 130.7 32 C 130.7 34.5 131.4 35 132.6 35 C 133.6 35 134.1 34.2 134.1 33.3 C 134.1 33.3 135.8 33.3 135.8 33.3 C 135.7 35.3 134.5 36.2 132.6 36.2 C 130.7 36.2 129.1 35.6 129.1 31.6 C 129.1 29 129.4 26.8 132.6 26.8 C 135.2 26.8 135.8 28.2 135.8 31.2 C 135.83 31.19 135.8 32 135.8 32 C 135.8 32 130.71 31.96 130.7 32 Z M 144.3 28.9 C 144.3 28.9 146.12 28.87 146.1 28.9 C 146.8 28.9 148.4 28.7 148.4 26.7 C 148.4 24.7 146.9 24.5 146.6 24.5 C 146.59 24.48 144.3 24.5 144.3 24.5 L 144.3 28.9 Z M 142.6 36 L 142.6 23 C 142.6 23 146.5 23.04 146.5 23 C 148.2 23 150.1 23.7 150.1 26.7 C 150.1 29.7 147.8 30.3 146.5 30.3 C 146.48 30.31 144.3 30.3 144.3 30.3 L 144.3 36 L 142.6 36 Z M 157.2 36 C 157.2 36 157.21 29.88 157.2 29.9 C 157.2 28.8 156.8 28 155.6 28 C 154.1 28 153.7 29.2 153.7 30.7 C 153.74 30.69 153.7 36 153.7 36 L 152.3 36 L 152.3 23 L 153.7 23 L 153.7 28.1 C 153.7 28.1 153.81 28.11 153.8 28.1 C 154.4 27 155.1 26.8 156.3 26.8 C 157.8 26.8 158.7 27.5 158.7 29.6 C 158.69 29.59 158.7 36 158.7 36 L 157.2 36 Z M 162.6 33.3 C 162.6 34.2 163.1 35 164 35 C 164.9 35 166.1 34.4 165.9 31.5 C 164.5 31.5 162.6 31.4 162.6 33.3 Z M 166 34.7 C 166 34.7 165.92 34.72 165.9 34.7 C 165.5 35.8 164.8 36.2 163.6 36.2 C 161.7 36.2 161.2 35 161.2 33.2 C 161.2 30.5 163.9 30.3 165.9 30.4 C 166 29.2 166 27.9 164.4 27.9 C 163.4 27.9 162.9 28.5 163 29.5 C 163 29.5 161.4 29.5 161.4 29.5 C 161.4 27.5 162.5 26.8 164.4 26.8 C 166.8 26.8 167.4 28 167.4 29.5 C 167.4 29.5 167.4 33.9 167.4 33.9 C 167.4 34.6 167.5 35.3 167.6 36 C 167.58 36.03 166 36 166 36 L 166 34.7 Z M 173 36.2 C 171 36.2 169.8 35.3 169.8 33.3 C 169.8 33.3 171.5 33.3 171.5 33.3 C 171.5 33.8 171.5 35 173 35 C 173.9 35 174.6 34.6 174.6 33.6 C 174.6 32 170 32 170 29.2 C 170 28.3 170.6 26.8 173.2 26.8 C 174.8 26.8 176.2 27.5 176.1 29.3 C 176.1 29.3 174.4 29.3 174.4 29.3 C 174.4 28.4 173.9 27.9 173 27.9 C 172.2 27.9 171.6 28.3 171.6 29.1 C 171.6 30.7 176.1 30.7 176.1 33.4 C 176.1 35.4 174.8 36.2 173 36.2 Z M 183.3 30.8 C 183.3 28.2 182.5 27.9 181.4 27.9 C 180.5 27.9 179.7 28.3 179.7 30.8 C 179.7 30.8 183.3 30.8 183.3 30.8 Z M 179.7 32 C 179.7 34.5 180.4 35 181.5 35 C 182.6 35 183.1 34.2 183.1 33.3 C 183.1 33.3 184.7 33.3 184.7 33.3 C 184.7 35.3 183.5 36.2 181.6 36.2 C 179.7 36.2 178.1 35.6 178.1 31.6 C 178.1 29 178.4 26.8 181.6 26.8 C 184.2 26.8 184.8 28.2 184.8 31.2 C 184.82 31.19 184.8 32 184.8 32 C 184.8 32 179.71 31.96 179.7 32 Z M 193 28.8 C 194.5 28.9 195.6 28.3 195.6 26.7 C 195.6 25.6 195.1 24.7 193.8 24.7 C 192.5 24.7 192.3 25.8 192.3 26.8 C 192.3 26.8 190.6 26.8 190.6 26.8 C 190.5 24.6 191.5 23.3 193.8 23.3 C 196 23.3 197.2 24.4 197.2 26.6 C 197.2 28.9 195.5 29.3 194.8 29.5 C 194.8 29.5 194.8 29.5 194.8 29.5 C 196.7 29.8 197.3 30.8 197.3 32.7 C 197.3 35.1 196 36.3 193.6 36.3 C 190.1 36.3 190.4 33.3 190.4 32.6 C 190.4 32.6 192.1 32.6 192.1 32.6 C 192.1 33.8 192.3 34.9 193.8 34.9 C 195.2 34.9 195.7 34 195.7 32.7 C 195.7 30.6 194.9 30.2 193 30.2 C 193 30.2 193 28.8 193 28.8 Z M 200.8 36 L 199.1 36 L 199.1 34.2 L 200.8 34.2 L 200.8 36 Z " stroke="none" fill="#555555"/>  </g>  <g id="Polygon202364">    <path d="M 8.7 0 L 8.7 1.5 L 5.3 1.5 L 5.3 13 L 3.7 13 L 3.7 1.5 L 0.3 1.5 L 0.3 0 L 8.7 0 Z M 15.2 13 C 15.2 13 15.23 6.88 15.2 6.9 C 15.2 5.8 14.9 5 13.6 5 C 12.1 5 11.8 6.2 11.8 7.7 C 11.75 7.69 11.8 13 11.8 13 L 10.3 13 L 10.3 0 L 11.8 0 L 11.8 5.1 C 11.8 5.1 11.83 5.11 11.8 5.1 C 12.4 4 13.1 3.8 14.3 3.8 C 15.8 3.8 16.7 4.5 16.7 6.6 C 16.7 6.59 16.7 13 16.7 13 L 15.2 13 Z M 24.3 7.8 C 24.3 5.2 23.5 4.9 22.5 4.9 C 21.5 4.9 20.8 5.3 20.7 7.8 C 20.7 7.8 24.3 7.8 24.3 7.8 Z M 20.7 9 C 20.7 11.5 21.4 12 22.6 12 C 23.6 12 24.1 11.2 24.2 10.3 C 24.2 10.3 25.8 10.3 25.8 10.3 C 25.8 12.3 24.5 13.2 22.6 13.2 C 20.7 13.2 19.2 12.6 19.2 8.6 C 19.2 6 19.5 3.8 22.6 3.8 C 25.2 3.8 25.8 5.2 25.8 8.2 C 25.85 8.19 25.8 9 25.8 9 C 25.8 9 20.74 8.96 20.7 9 Z M 34.3 5.9 C 34.3 5.9 36.14 5.87 36.1 5.9 C 36.8 5.9 38.4 5.7 38.4 3.7 C 38.4 1.7 37 1.5 36.6 1.5 C 36.61 1.48 34.3 1.5 34.3 1.5 L 34.3 5.9 Z M 32.7 13 L 32.7 0 C 32.7 0 36.52 0.04 36.5 0 C 38.3 0 40.1 0.7 40.1 3.7 C 40.1 6.7 37.8 7.3 36.5 7.3 C 36.5 7.31 34.3 7.3 34.3 7.3 L 34.3 13 L 32.7 13 Z M 47.2 13 C 47.2 13 47.23 6.88 47.2 6.9 C 47.2 5.8 46.9 5 45.6 5 C 44.1 5 43.8 6.2 43.8 7.7 C 43.76 7.69 43.8 13 43.8 13 L 42.3 13 L 42.3 0 L 43.8 0 L 43.8 5.1 C 43.8 5.1 43.83 5.11 43.8 5.1 C 44.4 4 45.1 3.8 46.3 3.8 C 47.8 3.8 48.7 4.5 48.7 6.6 C 48.71 6.59 48.7 13 48.7 13 L 47.2 13 Z M 52.6 10.3 C 52.6 11.2 53.1 12 54.1 12 C 55 12 56.1 11.4 55.9 8.5 C 54.5 8.5 52.6 8.4 52.6 10.3 Z M 56 11.7 C 56 11.7 55.94 11.72 55.9 11.7 C 55.5 12.8 54.8 13.2 53.7 13.2 C 51.7 13.2 51.2 12 51.2 10.2 C 51.2 7.5 53.9 7.3 55.9 7.4 C 56 6.2 56 4.9 54.4 4.9 C 53.4 4.9 52.9 5.5 53 6.5 C 53 6.5 51.4 6.5 51.4 6.5 C 51.5 4.5 52.5 3.8 54.5 3.8 C 56.8 3.8 57.4 5 57.4 6.5 C 57.4 6.5 57.4 10.9 57.4 10.9 C 57.4 11.6 57.5 12.3 57.6 13 C 57.6 13.03 56 13 56 13 L 56 11.7 Z M 63 13.2 C 61 13.2 59.8 12.3 59.8 10.3 C 59.8 10.3 61.5 10.3 61.5 10.3 C 61.5 10.8 61.5 12 63 12 C 63.9 12 64.6 11.6 64.6 10.6 C 64.6 9 60.1 9 60.1 6.2 C 60.1 5.3 60.6 3.8 63.2 3.8 C 64.8 3.8 66.2 4.5 66.1 6.3 C 66.1 6.3 64.4 6.3 64.4 6.3 C 64.5 5.4 64 4.9 63 4.9 C 62.2 4.9 61.6 5.3 61.6 6.1 C 61.6 7.7 66.1 7.7 66.1 10.4 C 66.1 12.4 64.8 13.2 63 13.2 Z M 73.3 7.8 C 73.3 5.2 72.5 4.9 71.5 4.9 C 70.5 4.9 69.7 5.3 69.7 7.8 C 69.7 7.8 73.3 7.8 73.3 7.8 Z M 69.7 9 C 69.7 11.5 70.4 12 71.6 12 C 72.6 12 73.1 11.2 73.2 10.3 C 73.2 10.3 74.8 10.3 74.8 10.3 C 74.8 12.3 73.5 13.2 71.6 13.2 C 69.7 13.2 68.1 12.6 68.1 8.6 C 68.1 6 68.5 3.8 71.6 3.8 C 74.2 3.8 74.8 5.2 74.8 8.2 C 74.84 8.19 74.8 9 74.8 9 C 74.8 9 69.73 8.96 69.7 9 Z M 83 5.8 C 84.5 5.9 85.6 5.3 85.6 3.7 C 85.6 2.6 85.1 1.7 83.9 1.7 C 82.5 1.7 82.3 2.8 82.3 3.8 C 82.3 3.8 80.6 3.8 80.6 3.8 C 80.5 1.6 81.5 0.3 83.9 0.3 C 86 0.3 87.2 1.4 87.2 3.6 C 87.2 5.9 85.5 6.3 84.8 6.5 C 84.8 6.5 84.8 6.5 84.8 6.5 C 86.7 6.8 87.4 7.8 87.4 9.7 C 87.4 12.1 86.1 13.3 83.7 13.3 C 80.2 13.3 80.4 10.3 80.4 9.6 C 80.4 9.6 82.1 9.6 82.1 9.6 C 82.1 10.8 82.3 11.9 83.8 11.9 C 85.3 11.9 85.7 11 85.7 9.7 C 85.7 7.6 85 7.2 83 7.2 C 83 7.2 83 5.8 83 5.8 Z M 93.4 8.3 C 93.4 8.3 93.4 4 93.4 4 C 93.4 1.4 94.7 -0.2 97.5 -0.2 C 100.2 -0.2 101.6 1.4 101.6 4 C 101.6 4 101.6 8.3 101.6 8.3 C 101.6 11.9 100.2 13.3 97.5 13.3 C 94.7 13.3 93.4 11.9 93.4 8.3 Z M 99.9 8.4 C 99.9 8.4 99.9 4 99.9 4 C 99.9 1.2 98 1.2 97.5 1.2 C 96.9 1.2 95.1 1.2 95.1 4 C 95.1 4 95.1 8.4 95.1 8.4 C 95.1 11.2 95.9 11.9 97.5 11.9 C 99 11.9 99.9 11.2 99.9 8.4 Z M 104.4 13 L 104.4 0 L 106.1 0 L 106.1 11.6 L 110.9 11.6 L 110.9 13 L 104.4 13 Z M 112.4 13 L 112.4 0 L 119.1 0 L 119.1 1.5 L 114.1 1.5 L 114.1 5.7 L 118.8 5.7 L 118.8 7.1 L 114.1 7.1 L 114.1 11.6 L 119.2 11.6 L 119.2 13 L 112.4 13 Z M 128.4 0 L 130.5 0 L 134.7 13 L 132.8 13 L 131.9 9.9 L 126.9 9.9 L 125.9 13 L 124.2 13 L 128.4 0 Z M 129.4 1.6 L 129.3 1.6 L 127.3 8.5 L 131.5 8.5 L 129.4 1.6 Z M 136.4 13 L 136.4 0 L 143.1 0 L 143.1 1.5 L 138.1 1.5 L 138.1 5.7 L 142.8 5.7 L 142.8 7.1 L 138.1 7.1 L 138.1 11.6 L 143.2 11.6 L 143.2 13 L 136.4 13 Z M 154.4 8.3 C 154.4 7 154.4 5 152.5 5 C 150.7 5 150.9 7.5 150.9 8.9 C 150.9 10.1 150.9 12 152.6 12 C 154.1 12 154.4 10.8 154.4 8.3 Z M 150.9 5 C 150.9 5 150.89 5.02 150.9 5 C 151.4 4.2 152 3.8 153 3.8 C 154.4 3.8 155.9 4.3 155.9 8.3 C 155.9 10.6 155.8 13.2 152.9 13.2 C 152 13.2 151.4 12.8 150.9 12.1 C 150.91 12.11 150.9 12.1 150.9 12.1 L 150.9 16.5 L 149.4 16.5 L 149.4 3.9 L 150.9 3.9 L 150.9 5 Z M 159.8 5.3 C 159.8 5.3 159.82 5.31 159.8 5.3 C 160.4 3.9 161.2 3.8 162.6 3.8 C 162.6 3.8 162.6 5.3 162.6 5.3 C 162.5 5.3 162.4 5.3 162.2 5.2 C 162.1 5.2 162 5.2 161.8 5.2 C 160.2 5.2 159.8 6.4 159.8 7.7 C 159.78 7.67 159.8 13 159.8 13 L 158.3 13 L 158.3 3.9 L 159.8 3.9 L 159.8 5.3 Z M 169.4 8 C 169.4 5.5 168.6 5 167.5 5 C 166.3 5 165.5 5.5 165.5 8 C 165.5 10.9 165.9 12 167.5 12 C 169 12 169.4 10.9 169.4 8 Z M 164 8.6 C 164 6 164.3 3.8 167.5 3.8 C 170.6 3.8 170.9 6 170.9 8.6 C 170.9 12.6 169.4 13.2 167.5 13.2 C 165.5 13.2 164 12.6 164 8.6 Z M 179.6 13 L 178.1 13 L 178.1 3.9 L 179.6 3.9 L 179.6 13 Z M 178 0 L 179.7 0 L 179.7 1.6 L 178 1.6 L 178 0 Z M 173.5 3.9 C 173.5 3.9 173.52 2.18 173.5 2.2 C 173.5 0.3 174.8 0 176.1 0 C 176.4 0 176.6 0 176.8 0 C 176.8 0 176.8 1.1 176.8 1.1 C 175.3 1 175 1.7 175 2.4 C 174.99 2.39 175 3.9 175 3.9 L 176.8 3.9 L 176.8 5.1 L 175 5.1 L 175 13 L 173.5 13 L 173.5 5.1 L 172.1 5.1 L 172.1 3.9 L 173.5 3.9 Z M 183.7 13 L 182.2 13 L 182.2 0 L 183.7 0 L 183.7 13 Z M 191.2 7.8 C 191.2 5.2 190.5 4.9 189.4 4.9 C 188.5 4.9 187.7 5.3 187.7 7.8 C 187.7 7.8 191.2 7.8 191.2 7.8 Z M 187.7 9 C 187.7 11.5 188.4 12 189.5 12 C 190.5 12 191 11.2 191.1 10.3 C 191.1 10.3 192.7 10.3 192.7 10.3 C 192.7 12.3 191.5 13.2 189.6 13.2 C 187.6 13.2 186.1 12.6 186.1 8.6 C 186.1 6 186.4 3.8 189.6 3.8 C 192.1 3.8 192.8 5.2 192.8 8.2 C 192.8 8.19 192.8 9 192.8 9 C 192.8 9 187.68 8.96 187.7 9 Z M 198.1 3.9 L 199.7 3.9 L 201.4 11.8 L 201.4 11.8 L 203.4 3.9 L 205.5 3.9 L 207.4 11.8 L 207.4 11.8 L 209.2 3.9 L 210.8 3.9 L 208.3 13 L 206.4 13 L 204.4 5.3 L 204.4 5.3 L 202.4 13 L 200.4 13 L 198.1 3.9 Z M 213.6 10.3 C 213.6 11.2 214 12 215 12 C 215.9 12 217 11.4 216.9 8.5 C 215.5 8.5 213.6 8.4 213.6 10.3 Z M 216.9 11.7 C 216.9 11.7 216.88 11.72 216.9 11.7 C 216.4 12.8 215.7 13.2 214.6 13.2 C 212.7 13.2 212.1 12 212.1 10.2 C 212.1 7.5 214.8 7.3 216.9 7.4 C 216.9 6.2 216.9 4.9 215.3 4.9 C 214.4 4.9 213.8 5.5 213.9 6.5 C 213.9 6.5 212.3 6.5 212.3 6.5 C 212.4 4.5 213.5 3.8 215.4 3.8 C 217.7 3.8 218.4 5 218.4 6.5 C 218.4 6.5 218.4 10.9 218.4 10.9 C 218.4 11.6 218.4 12.3 218.5 13 C 218.53 13.03 216.9 13 216.9 13 L 216.9 11.7 Z M 223.9 13.2 C 222 13.2 220.7 12.3 220.8 10.3 C 220.8 10.3 222.5 10.3 222.5 10.3 C 222.5 10.8 222.5 12 224 12 C 224.9 12 225.5 11.6 225.5 10.6 C 225.5 9 221 9 221 6.2 C 221 5.3 221.6 3.8 224.1 3.8 C 225.8 3.8 227.1 4.5 227 6.3 C 227 6.3 225.4 6.3 225.4 6.3 C 225.4 5.4 224.9 4.9 224 4.9 C 223.2 4.9 222.5 5.3 222.5 6.1 C 222.5 7.7 227.1 7.7 227.1 10.4 C 227.1 12.4 225.7 13.2 223.9 13.2 Z " stroke="none" fill="#555555"/>  </g></svg>