<?xml version="1.0" standalone="no"?><!DOCTYPE svg PUBLIC "-//W3C//DTD SVG 1.1//EN" "http://www.w3.org/Graphics/SVG/1.1/DTD/svg11.dtd"><svg xmlns="http://www.w3.org/2000/svg" version="1.1" width="213.2px" height="74.6px" viewBox="0 -4 213.2 74.6" style="top:-4px">  <desc>of patients rated their response to treatment as ‘good’ or ‘excellent’ at month 12</desc>  <defs/>  <g id="Polygon199739">    <path d="M 4.2 39.4 C 4.2 39.4 4.16 34.86 4.2 34.9 C 4.2 34.2 4 33.6 3.1 33.6 C 2.8 33.6 2.4 33.8 2.2 34 C 2 34.4 1.9 34.7 1.9 35 C 1.95 34.99 1.9 39.4 1.9 39.4 L 0.9 39.4 C 0.9 39.4 0.88 34.21 0.9 34.2 C 0.9 33.8 0.9 33.3 0.8 32.8 C 0.82 32.85 1.9 32.8 1.9 32.8 L 1.9 33.7 C 1.9 33.7 1.98 33.67 2 33.7 C 2.3 33 2.8 32.7 3.6 32.7 C 4.2 32.7 4.9 33 5.1 33.6 C 5.5 32.9 6.1 32.7 6.7 32.7 C 7.4 32.7 8.5 32.9 8.5 34.4 C 8.5 34.42 8.5 39.4 8.5 39.4 L 7.4 39.4 C 7.4 39.4 7.44 34.86 7.4 34.9 C 7.4 34.2 7.3 33.6 6.4 33.6 C 6 33.6 5.9 33.6 5.6 33.8 C 5.3 34.1 5.2 34.7 5.2 35 C 5.23 34.99 5.2 39.4 5.2 39.4 L 4.2 39.4 Z M 14 35.8 C 14 34 13.5 33.6 12.6 33.6 C 11.8 33.6 11.3 34 11.3 35.8 C 11.3 37.9 11.5 38.7 12.6 38.7 C 13.7 38.7 14 37.9 14 35.8 Z M 10.1 36.2 C 10.1 34.3 10.4 32.7 12.6 32.7 C 14.9 32.7 15.1 34.3 15.1 36.2 C 15.1 39.1 14 39.5 12.6 39.5 C 11.2 39.5 10.1 39.1 10.1 36.2 Z M 20.4 39.4 C 20.4 39.4 20.38 34.86 20.4 34.9 C 20.4 34.2 20.1 33.6 19.2 33.6 C 18.1 33.6 17.9 34.6 17.9 35.5 C 17.89 35.52 17.9 39.4 17.9 39.4 L 16.8 39.4 C 16.8 39.4 16.82 34.21 16.8 34.2 C 16.8 33.8 16.8 33.3 16.8 32.8 C 16.76 32.85 17.9 32.8 17.9 32.8 L 17.9 33.7 C 17.9 33.7 17.94 33.69 17.9 33.7 C 18.4 33 18.8 32.7 19.7 32.7 C 21.1 32.7 21.4 33.6 21.4 34.9 C 21.45 34.86 21.4 39.4 21.4 39.4 L 20.4 39.4 Z M 23.4 32.8 L 23.4 31.6 L 24.5 31.1 L 24.5 32.8 L 25.9 32.8 L 25.9 33.7 L 24.5 33.7 C 24.5 33.7 24.5 37.67 24.5 37.7 C 24.5 38.1 24.5 38.6 25.5 38.6 C 25.6 38.6 25.7 38.6 26 38.6 C 26 38.6 26 39.4 26 39.4 C 25.6 39.4 25.3 39.5 24.9 39.5 C 23.9 39.5 23.4 39.1 23.4 38.3 C 23.44 38.32 23.4 33.7 23.4 33.7 L 22.4 33.7 L 22.4 32.8 L 23.4 32.8 Z M 30.5 39.4 C 30.5 39.4 30.5 34.97 30.5 35 C 30.5 34.2 30.2 33.6 29.3 33.6 C 28.3 33.6 28 34.4 28 35.6 C 27.99 35.55 28 39.4 28 39.4 L 26.9 39.4 L 26.9 30 L 28 30 L 28 33.7 C 28 33.7 28.04 33.69 28 33.7 C 28.5 32.9 29 32.7 29.8 32.7 C 30.9 32.7 31.6 33.3 31.6 34.8 C 31.56 34.76 31.6 39.4 31.6 39.4 L 30.5 39.4 Z M 39.1 39.4 L 37.9 39.4 L 37.9 31.7 L 36.6 32.6 C 36.6 32.6 36.6 31.47 36.6 31.5 C 36.9 31.3 37.8 30.7 38.1 30.4 C 38.12 30.39 39.1 30.4 39.1 30.4 L 39.1 39.4 Z M 41.7 39.4 C 41.7 39.4 41.72 38.37 41.7 38.4 C 44.4 34.7 45.1 34 45.1 32.4 C 45.1 31.7 44.8 31.2 44 31.2 C 43.1 31.2 43 32 43 32.7 C 43 32.7 41.7 32.7 41.7 32.7 C 41.6 31.2 42.4 30.2 43.9 30.2 C 45.6 30.2 46.3 31 46.3 32.6 C 46.3 34.6 45.3 35.3 43 38.4 C 42.99 38.37 46.6 38.4 46.6 38.4 L 46.6 39.4 L 41.7 39.4 Z " stroke="none" fill="#555555"/>  </g>  <g id="Polygon199738">    <path d="M 1.1 17.8 L 1.1 16.6 L 2.1 16.1 L 2.1 17.8 L 3.5 17.8 L 3.5 18.7 L 2.1 18.7 C 2.1 18.7 2.12 22.67 2.1 22.7 C 2.1 23.1 2.1 23.6 3.1 23.6 C 3.2 23.6 3.3 23.6 3.6 23.6 C 3.6 23.6 3.6 24.4 3.6 24.4 C 3.2 24.4 2.9 24.5 2.5 24.5 C 1.5 24.5 1.1 24.1 1.1 23.3 C 1.05 23.32 1.1 18.7 1.1 18.7 L 0 18.7 L 0 17.8 L 1.1 17.8 Z M 5.7 18.8 C 5.7 18.8 5.68 18.83 5.7 18.8 C 6.1 17.8 6.7 17.7 7.7 17.7 C 7.7 17.7 7.7 18.8 7.7 18.8 C 7.6 18.8 7.5 18.8 7.4 18.8 C 7.3 18.8 7.2 18.8 7.1 18.8 C 6 18.8 5.7 19.7 5.7 20.5 C 5.65 20.54 5.7 24.4 5.7 24.4 L 4.6 24.4 L 4.6 17.8 L 5.7 17.8 L 5.7 18.8 Z M 12.5 20.7 C 12.5 18.8 11.9 18.5 11.2 18.5 C 10.5 18.5 9.9 18.8 9.9 20.7 C 9.9 20.7 12.5 20.7 12.5 20.7 Z M 9.9 21.5 C 9.9 23.3 10.4 23.7 11.2 23.7 C 12 23.7 12.4 23.1 12.4 22.4 C 12.4 22.4 13.6 22.4 13.6 22.4 C 13.5 23.9 12.6 24.5 11.3 24.5 C 9.9 24.5 8.8 24.1 8.8 21.2 C 8.8 19.3 9 17.7 11.3 17.7 C 13.1 17.7 13.6 18.7 13.6 20.9 C 13.61 20.92 13.6 21.5 13.6 21.5 C 13.6 21.5 9.92 21.47 9.9 21.5 Z M 16.4 22.5 C 16.4 23.1 16.7 23.7 17.4 23.7 C 18 23.7 18.8 23.3 18.7 21.1 C 17.7 21.2 16.4 21.1 16.4 22.5 Z M 18.8 23.5 C 18.8 23.5 18.73 23.46 18.7 23.5 C 18.4 24.2 17.9 24.5 17.1 24.5 C 15.7 24.5 15.3 23.6 15.3 22.4 C 15.3 20.4 17.2 20.3 18.7 20.3 C 18.8 19.5 18.8 18.5 17.6 18.5 C 16.9 18.5 16.5 19 16.6 19.7 C 16.6 19.7 15.4 19.7 15.4 19.7 C 15.5 18.2 16.3 17.7 17.7 17.7 C 19.4 17.7 19.8 18.6 19.8 19.7 C 19.8 19.7 19.8 22.9 19.8 22.9 C 19.8 23.4 19.9 23.9 19.9 24.4 C 19.93 24.41 18.8 24.4 18.8 24.4 L 18.8 23.5 Z M 22 17.8 L 22 16.6 L 23.1 16.1 L 23.1 17.8 L 24.5 17.8 L 24.5 18.7 L 23.1 18.7 C 23.1 18.7 23.06 22.67 23.1 22.7 C 23.1 23.1 23.1 23.6 24 23.6 C 24.1 23.6 24.3 23.6 24.5 23.6 C 24.5 23.6 24.5 24.4 24.5 24.4 C 24.2 24.4 23.8 24.5 23.5 24.5 C 22.5 24.5 22 24.1 22 23.3 C 22 23.32 22 18.7 22 18.7 L 20.9 18.7 L 20.9 17.8 L 22 17.8 Z M 28.7 24.4 C 28.7 24.4 28.72 19.86 28.7 19.9 C 28.7 19.2 28.5 18.6 27.7 18.6 C 27.4 18.6 26.9 18.8 26.8 19 C 26.6 19.4 26.5 19.7 26.5 20 C 26.51 19.99 26.5 24.4 26.5 24.4 L 25.4 24.4 C 25.4 24.4 25.44 19.21 25.4 19.2 C 25.4 18.8 25.4 18.3 25.4 17.8 C 25.38 17.85 26.5 17.8 26.5 17.8 L 26.5 18.7 C 26.5 18.7 26.53 18.67 26.5 18.7 C 26.8 18 27.4 17.7 28.2 17.7 C 28.8 17.7 29.5 18 29.7 18.6 C 30.1 17.9 30.7 17.7 31.3 17.7 C 32 17.7 33.1 17.9 33.1 19.4 C 33.06 19.42 33.1 24.4 33.1 24.4 L 32 24.4 C 32 24.4 31.99 19.86 32 19.9 C 32 19.2 31.8 18.6 31 18.6 C 30.5 18.6 30.4 18.6 30.1 18.8 C 29.8 19.1 29.8 19.7 29.8 20 C 29.78 19.99 29.8 24.4 29.8 24.4 L 28.7 24.4 Z M 38.5 20.7 C 38.5 18.8 37.9 18.5 37.2 18.5 C 36.5 18.5 35.9 18.8 35.9 20.7 C 35.9 20.7 38.5 20.7 38.5 20.7 Z M 35.9 21.5 C 35.9 23.3 36.4 23.7 37.2 23.7 C 38 23.7 38.4 23.1 38.4 22.4 C 38.4 22.4 39.6 22.4 39.6 22.4 C 39.5 23.9 38.6 24.5 37.3 24.5 C 35.9 24.5 34.8 24.1 34.8 21.2 C 34.8 19.3 35 17.7 37.3 17.7 C 39.1 17.7 39.6 18.7 39.6 20.9 C 39.61 20.92 39.6 21.5 39.6 21.5 C 39.6 21.5 35.92 21.47 35.9 21.5 Z M 44.9 24.4 C 44.9 24.4 44.94 19.86 44.9 19.9 C 44.9 19.2 44.7 18.6 43.8 18.6 C 42.6 18.6 42.4 19.6 42.4 20.5 C 42.44 20.52 42.4 24.4 42.4 24.4 L 41.4 24.4 C 41.4 24.4 41.38 19.21 41.4 19.2 C 41.4 18.8 41.4 18.3 41.3 17.8 C 41.31 17.85 42.4 17.8 42.4 17.8 L 42.4 18.7 C 42.4 18.7 42.5 18.69 42.5 18.7 C 42.9 18 43.4 17.7 44.3 17.7 C 45.7 17.7 46 18.6 46 19.9 C 46.01 19.86 46 24.4 46 24.4 L 44.9 24.4 Z M 48 17.8 L 48 16.6 L 49.1 16.1 L 49.1 17.8 L 50.5 17.8 L 50.5 18.7 L 49.1 18.7 C 49.1 18.7 49.06 22.67 49.1 22.7 C 49.1 23.1 49.1 23.6 50 23.6 C 50.1 23.6 50.3 23.6 50.5 23.6 C 50.5 23.6 50.5 24.4 50.5 24.4 C 50.2 24.4 49.8 24.5 49.5 24.5 C 48.5 24.5 48 24.1 48 23.3 C 48 23.32 48 18.7 48 18.7 L 46.9 18.7 L 46.9 17.8 L 48 17.8 Z M 55.4 22.5 C 55.4 23.1 55.7 23.7 56.4 23.7 C 57 23.7 57.8 23.3 57.7 21.1 C 56.7 21.2 55.4 21.1 55.4 22.5 Z M 57.8 23.5 C 57.8 23.5 57.73 23.46 57.7 23.5 C 57.4 24.2 56.9 24.5 56.1 24.5 C 54.7 24.5 54.3 23.6 54.3 22.4 C 54.3 20.4 56.2 20.3 57.7 20.3 C 57.8 19.5 57.8 18.5 56.6 18.5 C 55.9 18.5 55.5 19 55.6 19.7 C 55.6 19.7 54.4 19.7 54.4 19.7 C 54.5 18.2 55.3 17.7 56.7 17.7 C 58.4 17.7 58.8 18.6 58.8 19.7 C 58.8 19.7 58.8 22.9 58.8 22.9 C 58.8 23.4 58.8 23.9 58.9 24.4 C 58.93 24.41 57.8 24.4 57.8 24.4 L 57.8 23.5 Z M 62.8 24.5 C 61.4 24.5 60.5 23.9 60.6 22.4 C 60.6 22.4 61.8 22.4 61.8 22.4 C 61.8 22.8 61.8 23.7 62.9 23.7 C 63.5 23.7 64 23.3 64 22.7 C 64 21.5 60.7 21.5 60.7 19.5 C 60.7 18.8 61.1 17.7 63 17.7 C 64.1 17.7 65.1 18.3 65.1 19.6 C 65.1 19.6 63.9 19.6 63.9 19.6 C 63.9 18.9 63.5 18.5 62.8 18.5 C 62.3 18.5 61.8 18.8 61.8 19.4 C 61.8 20.6 65.1 20.5 65.1 22.5 C 65.1 24 64.1 24.5 62.8 24.5 Z M 70.5 17.6 L 69.1 17.6 L 70.1 15 L 71 15 L 70.5 17.6 Z M 74.6 18.6 C 73.4 18.6 73.4 20.1 73.4 20.9 C 73.4 23 73.9 23.5 74.7 23.5 C 76 23.5 75.9 22 75.9 21.1 C 75.9 20.1 76 18.6 74.6 18.6 Z M 75.9 17.8 L 77 17.8 C 77 17.8 76.96 25.07 77 25.1 C 77 26.5 76 26.9 74.5 26.9 C 73.4 26.9 72.5 26.3 72.6 25.1 C 72.6 25.1 73.7 25.1 73.7 25.1 C 73.8 25.8 74.2 26.1 74.7 26.1 C 75.5 26.1 75.9 25.6 75.9 25 C 75.89 24.96 75.9 23.6 75.9 23.6 C 75.9 23.6 75.85 23.59 75.9 23.6 C 75.6 24.1 75 24.4 74.4 24.4 C 72.6 24.4 72.3 22.9 72.3 20.9 C 72.3 17.9 73.8 17.7 74.3 17.7 C 75 17.7 75.6 18 75.9 18.7 C 75.87 18.65 75.9 18.7 75.9 18.7 L 75.9 17.8 Z M 82.6 20.8 C 82.6 19 82.1 18.6 81.2 18.6 C 80.4 18.6 79.9 19 79.9 20.8 C 79.9 22.9 80.1 23.7 81.2 23.7 C 82.3 23.7 82.6 22.9 82.6 20.8 Z M 78.7 21.2 C 78.7 19.3 79 17.7 81.2 17.7 C 83.5 17.7 83.7 19.3 83.7 21.2 C 83.7 24.1 82.6 24.5 81.2 24.5 C 79.8 24.5 78.7 24.1 78.7 21.2 Z M 89.1 20.8 C 89.1 19 88.6 18.6 87.7 18.6 C 86.9 18.6 86.4 19 86.4 20.8 C 86.4 22.9 86.6 23.7 87.7 23.7 C 88.8 23.7 89.1 22.9 89.1 20.8 Z M 85.2 21.2 C 85.2 19.3 85.5 17.7 87.7 17.7 C 90 17.7 90.2 19.3 90.2 21.2 C 90.2 24.1 89.1 24.5 87.7 24.5 C 86.3 24.5 85.2 24.1 85.2 21.2 Z M 94.2 18.6 C 93 18.6 92.9 19.5 92.9 21.3 C 92.9 22.2 92.9 23.7 94.2 23.7 C 95.4 23.7 95.4 22.2 95.4 20.9 C 95.4 20 95.3 18.6 94.2 18.6 Z M 95.4 15 L 96.5 15 L 96.5 24.4 L 95.4 24.4 L 95.4 23.6 C 95.4 23.6 95.37 23.63 95.4 23.6 C 95 24.2 94.5 24.5 93.9 24.5 C 92.8 24.5 91.7 24.1 91.7 21.2 C 91.7 19.6 91.8 17.7 93.9 17.7 C 94.5 17.7 95 18 95.4 18.5 C 95.35 18.51 95.4 18.5 95.4 18.5 L 95.4 15 Z M 98.5 15 L 99.9 15 L 98.8 17.6 L 97.9 17.6 L 98.5 15 Z M 107.9 20.8 C 107.9 19 107.3 18.6 106.5 18.6 C 105.7 18.6 105.1 19 105.1 20.8 C 105.1 22.9 105.4 23.7 106.5 23.7 C 107.6 23.7 107.9 22.9 107.9 20.8 Z M 104 21.2 C 104 19.3 104.2 17.7 106.5 17.7 C 108.8 17.7 109 19.3 109 21.2 C 109 24.1 107.9 24.5 106.5 24.5 C 105.1 24.5 104 24.1 104 21.2 Z M 111.8 18.8 C 111.8 18.8 111.82 18.83 111.8 18.8 C 112.3 17.8 112.8 17.7 113.9 17.7 C 113.9 17.7 113.9 18.8 113.9 18.8 C 113.8 18.8 113.7 18.8 113.6 18.8 C 113.5 18.8 113.4 18.8 113.3 18.8 C 112.1 18.8 111.8 19.7 111.8 20.5 C 111.8 20.54 111.8 24.4 111.8 24.4 L 110.7 24.4 L 110.7 17.8 L 111.8 17.8 L 111.8 18.8 Z M 118.8 17.6 L 117.4 17.6 L 118.5 15 L 119.4 15 L 118.8 17.6 Z M 124.4 20.7 C 124.4 18.8 123.9 18.5 123.1 18.5 C 122.4 18.5 121.8 18.8 121.8 20.7 C 121.8 20.7 124.4 20.7 124.4 20.7 Z M 121.8 21.5 C 121.8 23.3 122.3 23.7 123.2 23.7 C 123.9 23.7 124.3 23.1 124.3 22.4 C 124.3 22.4 125.5 22.4 125.5 22.4 C 125.5 23.9 124.6 24.5 123.2 24.5 C 121.8 24.5 120.7 24.1 120.7 21.2 C 120.7 19.3 120.9 17.7 123.2 17.7 C 125.1 17.7 125.5 18.7 125.5 20.9 C 125.53 20.92 125.5 21.5 125.5 21.5 C 125.5 21.5 121.83 21.47 121.8 21.5 Z M 132 24.4 L 130.6 24.4 L 129.1 21.7 L 127.7 24.4 L 126.4 24.4 L 128.5 21 L 126.6 17.8 L 128 17.8 L 129.2 20.2 L 130.5 17.8 L 131.8 17.8 L 129.9 21 L 132 24.4 Z M 136.5 20 C 136.5 18.9 136 18.6 135.6 18.6 C 134.8 18.6 134.2 19 134.2 20.8 C 134.2 22.9 134.5 23.7 135.6 23.7 C 135.8 23.7 136.6 23.4 136.5 22.2 C 136.5 22.2 137.7 22.2 137.7 22.2 C 137.7 24.1 136.3 24.5 135.6 24.5 C 134.2 24.5 133.1 24.1 133.1 21.2 C 133.1 19.3 133.3 17.7 135.6 17.7 C 136.9 17.7 137.7 18.5 137.6 20 C 137.6 20 136.5 20 136.5 20 Z M 143.2 20.7 C 143.2 18.8 142.6 18.5 141.9 18.5 C 141.2 18.5 140.6 18.8 140.6 20.7 C 140.6 20.7 143.2 20.7 143.2 20.7 Z M 140.6 21.5 C 140.6 23.3 141.1 23.7 141.9 23.7 C 142.7 23.7 143 23.1 143.1 22.4 C 143.1 22.4 144.2 22.4 144.2 22.4 C 144.2 23.9 143.3 24.5 142 24.5 C 140.6 24.5 139.5 24.1 139.5 21.2 C 139.5 19.3 139.7 17.7 142 17.7 C 143.8 17.7 144.3 18.7 144.3 20.9 C 144.3 20.92 144.3 21.5 144.3 21.5 C 144.3 21.5 140.61 21.47 140.6 21.5 Z M 147.1 24.4 L 146 24.4 L 146 15 L 147.1 15 L 147.1 24.4 Z M 150 24.4 L 148.9 24.4 L 148.9 15 L 150 15 L 150 24.4 Z M 155.4 20.7 C 155.4 18.8 154.9 18.5 154.1 18.5 C 153.4 18.5 152.9 18.8 152.9 20.7 C 152.9 20.7 155.4 20.7 155.4 20.7 Z M 152.9 21.5 C 152.9 23.3 153.4 23.7 154.2 23.7 C 154.9 23.7 155.3 23.1 155.3 22.4 C 155.3 22.4 156.5 22.4 156.5 22.4 C 156.5 23.9 155.6 24.5 154.2 24.5 C 152.8 24.5 151.7 24.1 151.7 21.2 C 151.7 19.3 152 17.7 154.2 17.7 C 156.1 17.7 156.6 18.7 156.6 20.9 C 156.57 20.92 156.6 21.5 156.6 21.5 C 156.6 21.5 152.88 21.47 152.9 21.5 Z M 161.9 24.4 C 161.9 24.4 161.9 19.86 161.9 19.9 C 161.9 19.2 161.7 18.6 160.7 18.6 C 159.6 18.6 159.4 19.6 159.4 20.5 C 159.4 20.52 159.4 24.4 159.4 24.4 L 158.3 24.4 C 158.3 24.4 158.34 19.21 158.3 19.2 C 158.3 18.8 158.3 18.3 158.3 17.8 C 158.27 17.85 159.4 17.8 159.4 17.8 L 159.4 18.7 C 159.4 18.7 159.45 18.69 159.5 18.7 C 159.9 18 160.4 17.7 161.2 17.7 C 162.6 17.7 163 18.6 163 19.9 C 162.96 19.86 163 24.4 163 24.4 L 161.9 24.4 Z M 165 17.8 L 165 16.6 L 166 16.1 L 166 17.8 L 167.4 17.8 L 167.4 18.7 L 166 18.7 C 166 18.7 166.02 22.67 166 22.7 C 166 23.1 166 23.6 167 23.6 C 167.1 23.6 167.2 23.6 167.5 23.6 C 167.5 23.6 167.5 24.4 167.5 24.4 C 167.1 24.4 166.8 24.5 166.4 24.5 C 165.4 24.5 165 24.1 165 23.3 C 164.96 23.32 165 18.7 165 18.7 L 163.9 18.7 L 163.9 17.8 L 165 17.8 Z M 168.5 15 L 169.9 15 L 168.9 17.6 L 168 17.6 L 168.5 15 Z M 175.2 22.5 C 175.2 23.1 175.5 23.7 176.2 23.7 C 176.9 23.7 177.7 23.3 177.6 21.1 C 176.6 21.2 175.2 21.1 175.2 22.5 Z M 177.6 23.5 C 177.6 23.5 177.58 23.46 177.6 23.5 C 177.3 24.2 176.7 24.5 175.9 24.5 C 174.5 24.5 174.1 23.6 174.1 22.4 C 174.1 20.4 176.1 20.3 177.6 20.3 C 177.6 19.5 177.6 18.5 176.5 18.5 C 175.8 18.5 175.4 19 175.4 19.7 C 175.4 19.7 174.3 19.7 174.3 19.7 C 174.3 18.2 175.1 17.7 176.5 17.7 C 178.2 17.7 178.6 18.6 178.6 19.7 C 178.6 19.7 178.6 22.9 178.6 22.9 C 178.6 23.4 178.7 23.9 178.8 24.4 C 178.77 24.41 177.6 24.4 177.6 24.4 L 177.6 23.5 Z M 180.8 17.8 L 180.8 16.6 L 181.9 16.1 L 181.9 17.8 L 183.3 17.8 L 183.3 18.7 L 181.9 18.7 C 181.9 18.7 181.91 22.67 181.9 22.7 C 181.9 23.1 181.9 23.6 182.9 23.6 C 183 23.6 183.1 23.6 183.4 23.6 C 183.4 23.6 183.4 24.4 183.4 24.4 C 183 24.4 182.7 24.5 182.3 24.5 C 181.3 24.5 180.8 24.1 180.8 23.3 C 180.84 23.32 180.8 18.7 180.8 18.7 L 179.8 18.7 L 179.8 17.8 L 180.8 17.8 Z " stroke="none" fill="#555555"/>  </g>  <g id="Polygon199737">    <path d="M 4.6 5.8 C 4.6 4 4.1 3.6 3.3 3.6 C 2.4 3.6 1.9 4 1.9 5.8 C 1.9 7.9 2.1 8.7 3.3 8.7 C 4.4 8.7 4.6 7.9 4.6 5.8 Z M 0.8 6.2 C 0.8 4.3 1 2.7 3.3 2.7 C 5.5 2.7 5.7 4.3 5.7 6.2 C 5.7 9.1 4.6 9.5 3.3 9.5 C 1.9 9.5 0.8 9.1 0.8 6.2 Z M 7.6 2.8 C 7.6 2.8 7.63 1.57 7.6 1.6 C 7.6 0.2 8.6 0 9.5 0 C 9.7 0 9.9 0 10 0 C 10 0 10 0.8 10 0.8 C 8.9 0.7 8.7 1.2 8.7 1.7 C 8.7 1.73 8.7 2.8 8.7 2.8 L 10 2.8 L 10 3.7 L 8.7 3.7 L 8.7 9.4 L 7.6 9.4 L 7.6 3.7 L 6.6 3.7 L 6.6 2.8 L 7.6 2.8 Z M 17.6 6 C 17.6 5 17.6 3.6 16.3 3.6 C 15 3.6 15.1 5.4 15.1 6.4 C 15.1 7.3 15.1 8.7 16.3 8.7 C 17.5 8.7 17.6 7.8 17.6 6 Z M 15.1 3.6 C 15.1 3.6 15.12 3.63 15.1 3.6 C 15.5 3 15.9 2.7 16.6 2.7 C 17.7 2.7 18.7 3.1 18.7 6 C 18.7 7.7 18.7 9.5 16.6 9.5 C 16 9.5 15.5 9.3 15.1 8.7 C 15.13 8.75 15.1 8.7 15.1 8.7 L 15.1 11.9 L 14 11.9 L 14 2.8 L 15.1 2.8 L 15.1 3.6 Z M 21.4 7.5 C 21.4 8.1 21.7 8.7 22.4 8.7 C 23.1 8.7 23.9 8.3 23.8 6.1 C 22.8 6.2 21.4 6.1 21.4 7.5 Z M 23.8 8.5 C 23.8 8.5 23.79 8.46 23.8 8.5 C 23.5 9.2 23 9.5 22.1 9.5 C 20.7 9.5 20.3 8.6 20.3 7.4 C 20.3 5.4 22.3 5.3 23.8 5.3 C 23.8 4.5 23.8 3.5 22.7 3.5 C 22 3.5 21.6 4 21.7 4.7 C 21.7 4.7 20.5 4.7 20.5 4.7 C 20.6 3.2 21.3 2.7 22.7 2.7 C 24.4 2.7 24.9 3.6 24.9 4.7 C 24.9 4.7 24.9 7.9 24.9 7.9 C 24.9 8.4 24.9 8.9 25 9.4 C 24.98 9.41 23.8 9.4 23.8 9.4 L 23.8 8.5 Z M 27.1 2.8 L 27.1 1.6 L 28.1 1.1 L 28.1 2.8 L 29.5 2.8 L 29.5 3.7 L 28.1 3.7 C 28.1 3.7 28.12 7.67 28.1 7.7 C 28.1 8.1 28.1 8.6 29.1 8.6 C 29.2 8.6 29.3 8.6 29.6 8.6 C 29.6 8.6 29.6 9.4 29.6 9.4 C 29.2 9.4 28.9 9.5 28.5 9.5 C 27.5 9.5 27.1 9.1 27.1 8.3 C 27.05 8.32 27.1 3.7 27.1 3.7 L 26 3.7 L 26 2.8 L 27.1 2.8 Z M 31.6 9.4 L 30.5 9.4 L 30.5 2.8 L 31.6 2.8 L 31.6 9.4 Z M 30.5 0 L 31.7 0 L 31.7 1.2 L 30.5 1.2 L 30.5 0 Z M 37 5.7 C 37 3.8 36.5 3.5 35.7 3.5 C 35 3.5 34.5 3.8 34.5 5.7 C 34.5 5.7 37 5.7 37 5.7 Z M 34.5 6.5 C 34.5 8.3 35 8.7 35.8 8.7 C 36.5 8.7 36.9 8.1 36.9 7.4 C 36.9 7.4 38.1 7.4 38.1 7.4 C 38.1 8.9 37.2 9.5 35.8 9.5 C 34.4 9.5 33.3 9.1 33.3 6.2 C 33.3 4.3 33.6 2.7 35.8 2.7 C 37.7 2.7 38.2 3.7 38.2 5.9 C 38.17 5.92 38.2 6.5 38.2 6.5 C 38.2 6.5 34.47 6.47 34.5 6.5 Z M 43.5 9.4 C 43.5 9.4 43.5 4.86 43.5 4.9 C 43.5 4.2 43.3 3.6 42.3 3.6 C 41.2 3.6 41 4.6 41 5.5 C 41 5.52 41 9.4 41 9.4 L 39.9 9.4 C 39.9 9.4 39.94 4.21 39.9 4.2 C 39.9 3.8 39.9 3.3 39.9 2.8 C 39.87 2.85 41 2.8 41 2.8 L 41 3.7 C 41 3.7 41.05 3.69 41.1 3.7 C 41.5 3 42 2.7 42.8 2.7 C 44.2 2.7 44.6 3.6 44.6 4.9 C 44.56 4.86 44.6 9.4 44.6 9.4 L 43.5 9.4 Z M 46.6 2.8 L 46.6 1.6 L 47.6 1.1 L 47.6 2.8 L 49 2.8 L 49 3.7 L 47.6 3.7 C 47.6 3.7 47.62 7.67 47.6 7.7 C 47.6 8.1 47.6 8.6 48.6 8.6 C 48.7 8.6 48.8 8.6 49.1 8.6 C 49.1 8.6 49.1 9.4 49.1 9.4 C 48.7 9.4 48.4 9.5 48 9.5 C 47 9.5 46.6 9.1 46.6 8.3 C 46.55 8.32 46.6 3.7 46.6 3.7 L 45.5 3.7 L 45.5 2.8 L 46.6 2.8 Z M 52 9.5 C 50.6 9.5 49.7 8.9 49.7 7.4 C 49.7 7.4 50.9 7.4 50.9 7.4 C 50.9 7.8 50.9 8.7 52 8.7 C 52.7 8.7 53.2 8.3 53.2 7.7 C 53.2 6.5 49.9 6.5 49.9 4.5 C 49.9 3.8 50.3 2.7 52.1 2.7 C 53.3 2.7 54.3 3.3 54.2 4.6 C 54.2 4.6 53 4.6 53 4.6 C 53.1 3.9 52.7 3.5 52 3.5 C 51.4 3.5 51 3.8 51 4.4 C 51 5.6 54.3 5.5 54.3 7.5 C 54.3 9 53.3 9.5 52 9.5 Z M 59.8 3.8 C 59.8 3.8 59.84 3.83 59.8 3.8 C 60.3 2.8 60.8 2.7 61.9 2.7 C 61.9 2.7 61.9 3.8 61.9 3.8 C 61.8 3.8 61.7 3.8 61.6 3.8 C 61.5 3.8 61.4 3.8 61.3 3.8 C 60.1 3.8 59.8 4.7 59.8 5.5 C 59.81 5.54 59.8 9.4 59.8 9.4 L 58.7 9.4 L 58.7 2.8 L 59.8 2.8 L 59.8 3.8 Z M 64 7.5 C 64 8.1 64.3 8.7 65 8.7 C 65.7 8.7 66.5 8.3 66.4 6.1 C 65.4 6.2 64 6.1 64 7.5 Z M 66.4 8.5 C 66.4 8.5 66.39 8.46 66.4 8.5 C 66.1 9.2 65.6 9.5 64.7 9.5 C 63.3 9.5 62.9 8.6 62.9 7.4 C 62.9 5.4 64.9 5.3 66.4 5.3 C 66.4 4.5 66.4 3.5 65.3 3.5 C 64.6 3.5 64.2 4 64.3 4.7 C 64.3 4.7 63.1 4.7 63.1 4.7 C 63.2 3.2 63.9 2.7 65.3 2.7 C 67 2.7 67.5 3.6 67.5 4.7 C 67.5 4.7 67.5 7.9 67.5 7.9 C 67.5 8.4 67.5 8.9 67.6 9.4 C 67.59 9.41 66.4 9.4 66.4 9.4 L 66.4 8.5 Z M 69.7 2.8 L 69.7 1.6 L 70.7 1.1 L 70.7 2.8 L 72.1 2.8 L 72.1 3.7 L 70.7 3.7 C 70.7 3.7 70.72 7.67 70.7 7.7 C 70.7 8.1 70.7 8.6 71.7 8.6 C 71.8 8.6 71.9 8.6 72.2 8.6 C 72.2 8.6 72.2 9.4 72.2 9.4 C 71.8 9.4 71.5 9.5 71.1 9.5 C 70.1 9.5 69.7 9.1 69.7 8.3 C 69.65 8.32 69.7 3.7 69.7 3.7 L 68.6 3.7 L 68.6 2.8 L 69.7 2.8 Z M 76.8 5.7 C 76.8 3.8 76.2 3.5 75.4 3.5 C 74.8 3.5 74.2 3.8 74.2 5.7 C 74.2 5.7 76.8 5.7 76.8 5.7 Z M 74.2 6.5 C 74.2 8.3 74.7 8.7 75.5 8.7 C 76.2 8.7 76.6 8.1 76.7 7.4 C 76.7 7.4 77.8 7.4 77.8 7.4 C 77.8 8.9 76.9 9.5 75.5 9.5 C 74.2 9.5 73 9.1 73 6.2 C 73 4.3 73.3 2.7 75.5 2.7 C 77.4 2.7 77.9 3.7 77.9 5.9 C 77.88 5.92 77.9 6.5 77.9 6.5 C 77.9 6.5 74.19 6.47 74.2 6.5 Z M 81.9 3.6 C 80.7 3.6 80.6 4.5 80.6 6.3 C 80.6 7.2 80.6 8.7 81.9 8.7 C 83.1 8.7 83.1 7.2 83.1 5.9 C 83.1 5 83.1 3.6 81.9 3.6 Z M 83.1 0 L 84.2 0 L 84.2 9.4 L 83.1 9.4 L 83.1 8.6 C 83.1 8.6 83.1 8.63 83.1 8.6 C 82.7 9.2 82.3 9.5 81.6 9.5 C 80.5 9.5 79.5 9.1 79.5 6.2 C 79.5 4.6 79.5 2.7 81.6 2.7 C 82.3 2.7 82.7 3 83.1 3.5 C 83.08 3.51 83.1 3.5 83.1 3.5 L 83.1 0 Z M 89.2 2.8 L 89.2 1.6 L 90.2 1.1 L 90.2 2.8 L 91.6 2.8 L 91.6 3.7 L 90.2 3.7 C 90.2 3.7 90.22 7.67 90.2 7.7 C 90.2 8.1 90.2 8.6 91.2 8.6 C 91.3 8.6 91.4 8.6 91.7 8.6 C 91.7 8.6 91.7 9.4 91.7 9.4 C 91.3 9.4 91 9.5 90.6 9.5 C 89.6 9.5 89.2 9.1 89.2 8.3 C 89.15 8.32 89.2 3.7 89.2 3.7 L 88.1 3.7 L 88.1 2.8 L 89.2 2.8 Z M 96.2 9.4 C 96.2 9.4 96.21 4.97 96.2 5 C 96.2 4.2 96 3.6 95 3.6 C 94 3.6 93.7 4.4 93.7 5.6 C 93.7 5.55 93.7 9.4 93.7 9.4 L 92.6 9.4 L 92.6 0 L 93.7 0 L 93.7 3.7 C 93.7 3.7 93.75 3.69 93.8 3.7 C 94.2 2.9 94.7 2.7 95.5 2.7 C 96.7 2.7 97.3 3.3 97.3 4.8 C 97.28 4.76 97.3 9.4 97.3 9.4 L 96.2 9.4 Z M 102.8 5.7 C 102.8 3.8 102.2 3.5 101.4 3.5 C 100.8 3.5 100.2 3.8 100.2 5.7 C 100.2 5.7 102.8 5.7 102.8 5.7 Z M 100.2 6.5 C 100.2 8.3 100.7 8.7 101.5 8.7 C 102.2 8.7 102.6 8.1 102.7 7.4 C 102.7 7.4 103.8 7.4 103.8 7.4 C 103.8 8.9 102.9 9.5 101.5 9.5 C 100.2 9.5 99 9.1 99 6.2 C 99 4.3 99.3 2.7 101.5 2.7 C 103.4 2.7 103.9 3.7 103.9 5.9 C 103.88 5.92 103.9 6.5 103.9 6.5 C 103.9 6.5 100.19 6.47 100.2 6.5 Z M 106.7 9.4 L 105.6 9.4 L 105.6 2.8 L 106.7 2.8 L 106.7 9.4 Z M 105.6 0 L 106.8 0 L 106.8 1.2 L 105.6 1.2 L 105.6 0 Z M 109.6 3.8 C 109.6 3.8 109.67 3.83 109.7 3.8 C 110.1 2.8 110.7 2.7 111.7 2.7 C 111.7 2.7 111.7 3.8 111.7 3.8 C 111.6 3.8 111.5 3.8 111.4 3.8 C 111.3 3.8 111.2 3.8 111.1 3.8 C 109.9 3.8 109.6 4.7 109.6 5.5 C 109.64 5.54 109.6 9.4 109.6 9.4 L 108.6 9.4 L 108.6 2.8 L 109.6 2.8 L 109.6 3.8 Z M 116.9 3.8 C 116.9 3.8 116.88 3.83 116.9 3.8 C 117.3 2.8 117.9 2.7 118.9 2.7 C 118.9 2.7 118.9 3.8 118.9 3.8 C 118.8 3.8 118.7 3.8 118.6 3.8 C 118.5 3.8 118.4 3.8 118.3 3.8 C 117.2 3.8 116.9 4.7 116.9 5.5 C 116.85 5.54 116.9 9.4 116.9 9.4 L 115.8 9.4 L 115.8 2.8 L 116.9 2.8 L 116.9 3.8 Z M 123.7 5.7 C 123.7 3.8 123.1 3.5 122.4 3.5 C 121.7 3.5 121.1 3.8 121.1 5.7 C 121.1 5.7 123.7 5.7 123.7 5.7 Z M 121.1 6.5 C 121.1 8.3 121.6 8.7 122.4 8.7 C 123.2 8.7 123.6 8.1 123.6 7.4 C 123.6 7.4 124.8 7.4 124.8 7.4 C 124.7 8.9 123.8 9.5 122.5 9.5 C 121.1 9.5 120 9.1 120 6.2 C 120 4.3 120.2 2.7 122.5 2.7 C 124.3 2.7 124.8 3.7 124.8 5.9 C 124.81 5.92 124.8 6.5 124.8 6.5 C 124.8 6.5 121.12 6.47 121.1 6.5 Z M 128.5 9.5 C 127.1 9.5 126.2 8.9 126.3 7.4 C 126.3 7.4 127.5 7.4 127.5 7.4 C 127.5 7.8 127.5 8.7 128.6 8.7 C 129.2 8.7 129.7 8.3 129.7 7.7 C 129.7 6.5 126.4 6.5 126.4 4.5 C 126.4 3.8 126.8 2.7 128.7 2.7 C 129.8 2.7 130.8 3.3 130.8 4.6 C 130.8 4.6 129.6 4.6 129.6 4.6 C 129.6 3.9 129.2 3.5 128.5 3.5 C 128 3.5 127.5 3.8 127.5 4.4 C 127.5 5.6 130.8 5.5 130.8 7.5 C 130.8 9 129.8 9.5 128.5 9.5 Z M 136 6 C 136 5 136 3.6 134.7 3.6 C 133.4 3.6 133.5 5.4 133.5 6.4 C 133.5 7.3 133.6 8.7 134.7 8.7 C 135.9 8.7 136 7.8 136 6 Z M 133.5 3.6 C 133.5 3.6 133.53 3.63 133.5 3.6 C 133.9 3 134.4 2.7 135 2.7 C 136.1 2.7 137.2 3.1 137.2 6 C 137.2 7.7 137.1 9.5 135 9.5 C 134.4 9.5 133.9 9.3 133.5 8.7 C 133.55 8.75 133.5 8.7 133.5 8.7 L 133.5 11.9 L 132.4 11.9 L 132.4 2.8 L 133.5 2.8 L 133.5 3.6 Z M 142.5 5.8 C 142.5 4 142 3.6 141.2 3.6 C 140.3 3.6 139.8 4 139.8 5.8 C 139.8 7.9 140.1 8.7 141.2 8.7 C 142.3 8.7 142.5 7.9 142.5 5.8 Z M 138.7 6.2 C 138.7 4.3 138.9 2.7 141.2 2.7 C 143.4 2.7 143.7 4.3 143.7 6.2 C 143.7 9.1 142.6 9.5 141.2 9.5 C 139.8 9.5 138.7 9.1 138.7 6.2 Z M 148.9 9.4 C 148.9 9.4 148.91 4.86 148.9 4.9 C 148.9 4.2 148.7 3.6 147.8 3.6 C 146.6 3.6 146.4 4.6 146.4 5.5 C 146.42 5.52 146.4 9.4 146.4 9.4 L 145.4 9.4 C 145.4 9.4 145.35 4.21 145.4 4.2 C 145.4 3.8 145.3 3.3 145.3 2.8 C 145.29 2.85 146.4 2.8 146.4 2.8 L 146.4 3.7 C 146.4 3.7 146.47 3.69 146.5 3.7 C 146.9 3 147.4 2.7 148.2 2.7 C 149.6 2.7 150 3.6 150 4.9 C 149.98 4.86 150 9.4 150 9.4 L 148.9 9.4 Z M 153.8 9.5 C 152.4 9.5 151.5 8.9 151.5 7.4 C 151.5 7.4 152.7 7.4 152.7 7.4 C 152.7 7.8 152.7 8.7 153.8 8.7 C 154.5 8.7 155 8.3 155 7.7 C 155 6.5 151.7 6.5 151.7 4.5 C 151.7 3.8 152.1 2.7 153.9 2.7 C 155.1 2.7 156.1 3.3 156 4.6 C 156 4.6 154.8 4.6 154.8 4.6 C 154.9 3.9 154.5 3.5 153.8 3.5 C 153.2 3.5 152.8 3.8 152.8 4.4 C 152.8 5.6 156.1 5.5 156.1 7.5 C 156.1 9 155.1 9.5 153.8 9.5 Z M 161.2 5.7 C 161.2 3.8 160.7 3.5 159.9 3.5 C 159.2 3.5 158.7 3.8 158.7 5.7 C 158.7 5.7 161.2 5.7 161.2 5.7 Z M 158.7 6.5 C 158.7 8.3 159.2 8.7 160 8.7 C 160.7 8.7 161.1 8.1 161.1 7.4 C 161.1 7.4 162.3 7.4 162.3 7.4 C 162.3 8.9 161.4 9.5 160 9.5 C 158.6 9.5 157.5 9.1 157.5 6.2 C 157.5 4.3 157.7 2.7 160 2.7 C 161.9 2.7 162.4 3.7 162.4 5.9 C 162.35 5.92 162.4 6.5 162.4 6.5 C 162.4 6.5 158.66 6.47 158.7 6.5 Z M 167.1 2.8 L 167.1 1.6 L 168.2 1.1 L 168.2 2.8 L 169.6 2.8 L 169.6 3.7 L 168.2 3.7 C 168.2 3.7 168.19 7.67 168.2 7.7 C 168.2 8.1 168.2 8.6 169.2 8.6 C 169.2 8.6 169.4 8.6 169.6 8.6 C 169.6 8.6 169.6 9.4 169.6 9.4 C 169.3 9.4 168.9 9.5 168.6 9.5 C 167.6 9.5 167.1 9.1 167.1 8.3 C 167.13 8.32 167.1 3.7 167.1 3.7 L 166 3.7 L 166 2.8 L 167.1 2.8 Z M 174.3 5.8 C 174.3 4 173.8 3.6 172.9 3.6 C 172.1 3.6 171.6 4 171.6 5.8 C 171.6 7.9 171.8 8.7 172.9 8.7 C 174 8.7 174.3 7.9 174.3 5.8 Z M 170.4 6.2 C 170.4 4.3 170.7 2.7 172.9 2.7 C 175.2 2.7 175.4 4.3 175.4 6.2 C 175.4 9.1 174.3 9.5 172.9 9.5 C 171.5 9.5 170.4 9.1 170.4 6.2 Z " stroke="none" fill="#555555"/>  </g></svg>