<?xml version="1.0" standalone="no"?><!DOCTYPE svg PUBLIC "-//W3C//DTD SVG 1.1//EN" "http://www.w3.org/Graphics/SVG/1.1/DTD/svg11.dtd"><svg xmlns="http://www.w3.org/2000/svg" version="1.1" width="243px" height="48.6px" viewBox="0 0 243 48.6">  <desc>ANDEMBRY® 200 mg (s.c.) once monthly (min. 12 months)† (n=161)</desc>  <defs/>  <g id="Polygon199166">    <path d="M 19 30.1 C 19 30.1 19.03 30.15 19 30.1 C 19.5 29.4 20.1 29.2 20.9 29.2 C 21.7 29.2 22.3 29.6 22.7 30.2 C 23.2 29.5 23.8 29.2 24.7 29.2 C 25.8 29.2 26.7 29.8 26.7 30.9 C 26.73 30.92 26.7 37.3 26.7 37.3 L 24.5 37.3 C 24.5 37.3 24.51 31.82 24.5 31.8 C 24.5 31.1 24.4 30.6 23.7 30.6 C 23 30.6 22.8 31.1 22.8 31.8 C 22.84 31.82 22.8 37.3 22.8 37.3 L 20.7 37.3 C 20.7 37.3 20.67 31.82 20.7 31.8 C 20.7 31.1 20.5 30.6 19.8 30.6 C 19.1 30.6 19 31.1 19 31.8 C 19 31.82 19 37.3 19 37.3 L 16.8 37.3 L 16.8 29.3 L 19 29.3 L 19 30.1 Z M 32.4 33.1 C 32.4 31.4 32.3 30.6 31.4 30.6 C 30.4 30.6 30.4 31.4 30.4 33.1 C 30.4 35.5 30.6 36 31.4 36 C 32.2 36 32.4 35.5 32.4 33.1 Z M 28.1 33.2 C 28.1 31 28.5 29.2 31.4 29.2 C 34.3 29.2 34.6 31 34.6 33.2 C 34.6 35.7 34.2 37.5 31.4 37.5 C 28.5 37.5 28.1 35.7 28.1 33.2 Z M 38.4 30.1 C 38.4 30.1 38.46 30.15 38.5 30.1 C 38.7 29.8 38.9 29.6 39.2 29.4 C 39.6 29.3 39.9 29.2 40.3 29.2 C 41.4 29.2 42.3 29.8 42.3 30.9 C 42.32 30.92 42.3 37.3 42.3 37.3 L 40.1 37.3 C 40.1 37.3 40.1 31.82 40.1 31.8 C 40.1 31.1 40 30.6 39.3 30.6 C 38.6 30.6 38.4 31.1 38.4 31.8 C 38.42 31.82 38.4 37.3 38.4 37.3 L 36.2 37.3 L 36.2 29.3 L 38.4 29.3 L 38.4 30.1 Z M 43.2 29.3 L 44.1 29.3 L 44.1 28.1 L 46.3 27.1 L 46.3 29.3 L 47.5 29.3 L 47.5 30.7 L 46.3 30.7 C 46.3 30.7 46.3 34.97 46.3 35 C 46.3 35.6 46.3 36 47 36 C 47.2 36 47.3 36 47.4 35.9 C 47.4 35.9 47.4 37.3 47.4 37.3 C 47.1 37.3 46.8 37.4 46.3 37.4 C 44.3 37.4 44.1 36.1 44.1 35.6 C 44.08 35.62 44.1 30.7 44.1 30.7 L 43.2 30.7 L 43.2 29.3 Z M 52.4 37.3 C 52.4 37.3 52.36 31.82 52.4 31.8 C 52.4 31.1 52.2 30.6 51.5 30.6 C 50.8 30.6 50.7 31.1 50.7 31.8 C 50.68 31.82 50.7 37.3 50.7 37.3 L 48.5 37.3 L 48.5 25.9 L 50.7 25.9 L 50.7 30.1 C 50.7 30.1 50.72 30.15 50.7 30.1 C 50.9 29.8 51.2 29.6 51.5 29.4 C 51.8 29.3 52.2 29.2 52.6 29.2 C 53.6 29.2 54.6 29.8 54.6 30.9 C 54.58 30.92 54.6 37.3 54.6 37.3 L 52.4 37.3 Z M 58.8 25.9 L 58.8 37.3 L 56.5 37.3 L 56.5 25.9 L 58.8 25.9 Z M 62.1 37.4 L 60 29.3 L 62.2 29.3 L 63.3 34.9 L 63.4 34.9 L 64.6 29.3 L 66.7 29.3 L 63.6 40.3 L 61.3 40.3 L 62.1 37.4 Z M 73.8 25.4 C 73.3 27.3 72.7 29.7 72.7 32.2 C 72.7 35 73.4 37.2 73.8 39.2 C 73.8 39.2 72.5 39.2 72.5 39.2 C 71.8 37 70.9 34.5 70.9 32.2 C 70.9 29.8 71.9 27 72.5 25.4 C 72.5 25.4 73.8 25.4 73.8 25.4 Z M 77.6 30.1 C 77.6 30.1 77.68 30.15 77.7 30.1 C 78.1 29.4 78.7 29.2 79.6 29.2 C 80.3 29.2 81 29.6 81.3 30.2 C 81.9 29.5 82.5 29.2 83.4 29.2 C 84.5 29.2 85.4 29.8 85.4 30.9 C 85.38 30.92 85.4 37.3 85.4 37.3 L 83.2 37.3 C 83.2 37.3 83.16 31.82 83.2 31.8 C 83.2 31.1 83 30.6 82.3 30.6 C 81.6 30.6 81.5 31.1 81.5 31.8 C 81.49 31.82 81.5 37.3 81.5 37.3 L 79.3 37.3 C 79.3 37.3 79.32 31.82 79.3 31.8 C 79.3 31.1 79.2 30.6 78.5 30.6 C 77.8 30.6 77.6 31.1 77.6 31.8 C 77.64 31.82 77.6 37.3 77.6 37.3 L 75.4 37.3 L 75.4 29.3 L 77.6 29.3 L 77.6 30.1 Z M 89.4 37.3 L 87.2 37.3 L 87.2 29.3 L 89.4 29.3 L 89.4 37.3 Z M 89.4 25.9 L 89.4 27.7 L 87.2 27.7 L 87.2 25.9 L 89.4 25.9 Z M 93.6 30.1 C 93.6 30.1 93.61 30.15 93.6 30.1 C 93.8 29.8 94.1 29.6 94.4 29.4 C 94.7 29.3 95.1 29.2 95.5 29.2 C 96.5 29.2 97.5 29.8 97.5 30.9 C 97.47 30.92 97.5 37.3 97.5 37.3 L 95.2 37.3 C 95.2 37.3 95.25 31.82 95.2 31.8 C 95.2 31.1 95.1 30.6 94.4 30.6 C 93.7 30.6 93.6 31.1 93.6 31.8 C 93.58 31.82 93.6 37.3 93.6 37.3 L 91.4 37.3 L 91.4 29.3 L 93.6 29.3 L 93.6 30.1 Z M 101 35.2 L 101 37.3 L 99.2 37.3 L 99.2 35.2 L 101 35.2 Z M 106.1 28 C 106.9 27.6 107.7 27 108.2 26.3 C 108.25 26.3 110.4 26.3 110.4 26.3 L 110.4 37.3 L 108 37.3 C 108 37.3 107.98 28.84 108 28.8 C 107.4 29.3 106.8 29.7 106.1 30.1 C 106.1 30.1 106.1 28 106.1 28 Z M 112.5 37.3 C 112.5 37.3 112.53 35.36 112.5 35.4 C 116 30.7 116.7 30.2 116.7 28.8 C 116.7 28.3 116.5 27.8 115.9 27.8 C 115 27.8 114.9 28.6 114.9 29.3 C 114.9 29.3 112.7 29.3 112.7 29.3 C 112.5 27.3 113.7 26.2 115.7 26.2 C 117.6 26.2 118.9 26.9 118.9 29 C 118.9 31.5 116.1 34.3 114.9 35.6 C 114.86 35.6 119.1 35.6 119.1 35.6 L 119.1 37.3 L 112.5 37.3 Z M 125.8 30.1 C 125.8 30.1 125.8 30.15 125.8 30.1 C 126.2 29.4 126.8 29.2 127.7 29.2 C 128.5 29.2 129.1 29.6 129.5 30.2 C 130 29.5 130.6 29.2 131.5 29.2 C 132.6 29.2 133.5 29.8 133.5 30.9 C 133.5 30.92 133.5 37.3 133.5 37.3 L 131.3 37.3 C 131.3 37.3 131.28 31.82 131.3 31.8 C 131.3 31.1 131.2 30.6 130.4 30.6 C 129.7 30.6 129.6 31.1 129.6 31.8 C 129.61 31.82 129.6 37.3 129.6 37.3 L 127.4 37.3 C 127.4 37.3 127.44 31.82 127.4 31.8 C 127.4 31.1 127.3 30.6 126.6 30.6 C 125.9 30.6 125.8 31.1 125.8 31.8 C 125.77 31.82 125.8 37.3 125.8 37.3 L 123.5 37.3 L 123.5 29.3 L 125.8 29.3 L 125.8 30.1 Z M 139.2 33.1 C 139.2 31.4 139.1 30.6 138.2 30.6 C 137.2 30.6 137.1 31.4 137.1 33.1 C 137.1 35.5 137.3 36 138.2 36 C 139 36 139.2 35.5 139.2 33.1 Z M 134.9 33.2 C 134.9 31 135.2 29.2 138.2 29.2 C 141.1 29.2 141.4 31 141.4 33.2 C 141.4 35.7 141 37.5 138.2 37.5 C 135.3 37.5 134.9 35.7 134.9 33.2 Z M 145.2 30.1 C 145.2 30.1 145.23 30.15 145.2 30.1 C 145.4 29.8 145.7 29.6 146 29.4 C 146.3 29.3 146.7 29.2 147.1 29.2 C 148.2 29.2 149.1 29.8 149.1 30.9 C 149.09 30.92 149.1 37.3 149.1 37.3 L 146.9 37.3 C 146.9 37.3 146.87 31.82 146.9 31.8 C 146.9 31.1 146.7 30.6 146 30.6 C 145.3 30.6 145.2 31.1 145.2 31.8 C 145.2 31.82 145.2 37.3 145.2 37.3 L 143 37.3 L 143 29.3 L 145.2 29.3 L 145.2 30.1 Z M 150 29.3 L 150.9 29.3 L 150.9 28.1 L 153.1 27.1 L 153.1 29.3 L 154.2 29.3 L 154.2 30.7 L 153.1 30.7 C 153.1 30.7 153.07 34.97 153.1 35 C 153.1 35.6 153.1 36 153.8 36 C 153.9 36 154.1 36 154.2 35.9 C 154.2 35.9 154.2 37.3 154.2 37.3 C 153.9 37.3 153.6 37.4 153 37.4 C 151.1 37.4 150.9 36.1 150.9 35.6 C 150.85 35.62 150.9 30.7 150.9 30.7 L 150 30.7 L 150 29.3 Z M 159.1 37.3 C 159.1 37.3 159.13 31.82 159.1 31.8 C 159.1 31.1 159 30.6 158.3 30.6 C 157.6 30.6 157.5 31.1 157.5 31.8 C 157.45 31.82 157.5 37.3 157.5 37.3 L 155.2 37.3 L 155.2 25.9 L 157.5 25.9 L 157.5 30.1 C 157.5 30.1 157.49 30.15 157.5 30.1 C 157.7 29.8 158 29.6 158.3 29.4 C 158.6 29.3 159 29.2 159.4 29.2 C 160.4 29.2 161.3 29.8 161.3 30.9 C 161.35 30.92 161.3 37.3 161.3 37.3 L 159.1 37.3 Z M 164.9 34.8 C 164.8 35.1 164.9 35.5 165 35.7 C 165.1 36 165.3 36.1 165.8 36.1 C 166.2 36.1 166.6 35.8 166.6 35.3 C 166.6 33.6 162.7 34 162.7 31.4 C 162.7 29.7 164.4 29.2 165.8 29.2 C 167.3 29.2 168.7 29.9 168.6 31.6 C 168.6 31.6 166.4 31.6 166.4 31.6 C 166.4 31.1 166.3 30.7 166.2 30.6 C 166 30.5 165.9 30.4 165.6 30.4 C 165.1 30.4 164.9 30.7 164.9 31.3 C 164.9 32.5 168.8 32.5 168.8 35 C 168.8 36.4 167.6 37.5 165.8 37.5 C 163.9 37.5 162.6 37 162.7 34.8 C 162.7 34.8 164.9 34.8 164.9 34.8 Z M 170.2 39.2 C 170.6 37.3 171.2 34.9 171.2 32.4 C 171.2 29.6 170.6 27.4 170.2 25.4 C 170.2 25.4 171.4 25.4 171.4 25.4 C 172.2 27.6 173.1 30.1 173.1 32.4 C 173.1 34.8 172 37.6 171.4 39.2 C 171.4 39.2 170.2 39.2 170.2 39.2 Z M 175.1 26.8 L 175.1 25.4 L 176.2 25.4 L 176.2 26.8 L 177.6 26.8 L 177.6 27.7 L 176.2 27.7 L 176.2 32.1 L 175.1 32.1 L 175.1 27.7 L 173.7 27.7 L 173.7 26.8 L 175.1 26.8 Z M 184.6 25.4 C 184.2 27.3 183.6 29.7 183.6 32.2 C 183.6 35 184.2 37.2 184.6 39.2 C 184.6 39.2 183.4 39.2 183.4 39.2 C 182.6 37 181.7 34.5 181.7 32.2 C 181.7 29.8 182.7 27 183.4 25.4 C 183.4 25.4 184.6 25.4 184.6 25.4 Z M 188.7 30.1 C 188.7 30.1 188.7 30.15 188.7 30.1 C 188.9 29.8 189.2 29.6 189.5 29.4 C 189.8 29.3 190.2 29.2 190.6 29.2 C 191.6 29.2 192.6 29.8 192.6 30.9 C 192.56 30.92 192.6 37.3 192.6 37.3 L 190.3 37.3 C 190.3 37.3 190.34 31.82 190.3 31.8 C 190.3 31.1 190.2 30.6 189.5 30.6 C 188.8 30.6 188.7 31.1 188.7 31.8 C 188.67 31.82 188.7 37.3 188.7 37.3 L 186.4 37.3 L 186.4 29.3 L 188.7 29.3 L 188.7 30.1 Z M 200.9 32.7 L 193.8 32.7 L 193.8 30.9 L 200.9 30.9 L 200.9 32.7 Z M 200.9 35.7 L 193.8 35.7 L 193.8 34 L 200.9 34 L 200.9 35.7 Z M 202.1 28 C 202.9 27.6 203.7 27 204.2 26.3 C 204.22 26.3 206.3 26.3 206.3 26.3 L 206.3 37.3 L 204 37.3 C 204 37.3 203.95 28.84 204 28.8 C 203.4 29.3 202.7 29.7 202.1 30.1 C 202.1 30.1 202.1 28 202.1 28 Z M 212.8 33.7 C 212.8 32.3 212.6 31.7 211.8 31.7 C 210.9 31.7 210.8 32.5 210.8 33.9 C 210.8 34.5 210.8 35.8 211.8 35.8 C 212.5 35.8 212.8 35.4 212.8 33.7 Z M 212.6 28.7 C 212.6 28.4 212.5 28.1 212.4 28 C 212.3 27.8 212.1 27.7 211.8 27.7 C 210.8 27.7 210.8 28.2 210.8 31 C 211.4 30.4 211.7 30.2 212.6 30.2 C 214.6 30.2 215 32 215 33.7 C 215 36 214.2 37.4 211.7 37.4 C 208.8 37.4 208.6 35 208.6 32.7 C 208.6 28.4 208.9 26.2 212 26.2 C 213.7 26.2 214.9 26.9 214.9 28.7 C 214.9 28.7 212.6 28.7 212.6 28.7 Z M 216.1 28 C 216.9 27.6 217.6 27 218.2 26.3 C 218.21 26.3 220.3 26.3 220.3 26.3 L 220.3 37.3 L 217.9 37.3 C 217.9 37.3 217.95 28.84 217.9 28.8 C 217.4 29.3 216.7 29.7 216.1 30.1 C 216.1 30.1 216.1 28 216.1 28 Z M 223.3 39.2 C 223.7 37.3 224.3 34.9 224.3 32.4 C 224.3 29.6 223.6 27.4 223.3 25.4 C 223.3 25.4 224.5 25.4 224.5 25.4 C 225.2 27.6 226.2 30.1 226.2 32.4 C 226.2 34.8 225.1 37.6 224.5 39.2 C 224.5 39.2 223.3 39.2 223.3 39.2 Z " stroke="none" fill="#fff"/>  </g>  <g id="Polygon199165">    <path d="M 20.7 18.4 L 23.8 7 L 26.9 7 L 30 18.4 L 27.5 18.4 L 26.9 15.9 L 23.7 15.9 L 23 18.4 L 20.7 18.4 Z M 25.2 9.2 L 25.2 9.2 L 24.1 14.1 L 26.4 14.1 L 25.2 9.2 Z M 31.2 18.4 L 31.2 7 L 34.4 7 L 37.4 14.9 L 37.4 14.9 L 37.4 7 L 39.7 7 L 39.7 18.4 L 36.5 18.4 L 33.4 10.1 L 33.4 10.1 L 33.4 18.4 L 31.2 18.4 Z M 44.1 16.6 C 44.1 16.6 45.24 16.65 45.2 16.6 C 46.7 16.6 47 15.6 47 12.7 C 47 10.6 47 8.8 45.3 8.8 C 45.32 8.76 44.1 8.8 44.1 8.8 L 44.1 16.6 Z M 41.7 7 C 41.7 7 45.68 7.02 45.7 7 C 48.8 7 49.4 9.1 49.4 12.6 C 49.4 14.4 49.7 18.4 45.6 18.4 C 45.59 18.39 41.7 18.4 41.7 18.4 L 41.7 7 Z M 51.3 18.4 L 51.3 7 L 57.5 7 L 57.5 8.8 L 53.7 8.8 L 53.7 11.6 L 57.2 11.6 L 57.2 13.3 L 53.7 13.3 L 53.7 16.6 L 57.6 16.6 L 57.6 18.4 L 51.3 18.4 Z M 59.1 18.4 L 59.1 7 L 63 7 L 64.7 14.8 L 64.8 14.8 L 66.7 7 L 70.4 7 L 70.4 18.4 L 68 18.4 L 68 9.6 L 68 9.6 L 65.8 18.4 L 63.5 18.4 L 61.5 9.6 L 61.4 9.6 L 61.4 18.4 L 59.1 18.4 Z M 74.7 16.6 C 74.7 16.6 76.03 16.65 76 16.6 C 76.5 16.6 77.7 16.6 77.7 15 C 77.7 14 77.3 13.4 76.1 13.4 C 76.09 13.41 74.7 13.4 74.7 13.4 L 74.7 16.6 Z M 74.7 11.7 C 74.7 11.7 76.3 11.67 76.3 11.7 C 76.8 11.7 77.5 11.3 77.5 10.2 C 77.5 9.4 77 8.8 76.2 8.8 C 76.17 8.76 74.7 8.8 74.7 8.8 L 74.7 11.7 Z M 72.3 18.4 L 72.3 7 C 72.3 7 76.55 7.02 76.6 7 C 78.4 7 79.9 7.5 79.9 10 C 79.9 11.3 79.2 12.2 77.9 12.5 C 77.9 12.5 77.9 12.5 77.9 12.5 C 79.6 12.7 80 13.8 80 15.4 C 80 18.3 77.5 18.4 76.5 18.4 C 76.53 18.39 72.3 18.4 72.3 18.4 Z M 84.3 11.9 C 84.3 11.9 85.31 11.93 85.3 11.9 C 86.3 11.9 86.5 11 86.5 10.3 C 86.5 9.2 86.1 8.8 85.3 8.8 C 85.31 8.76 84.3 8.8 84.3 8.8 L 84.3 11.9 Z M 84.3 18.4 L 81.9 18.4 L 81.9 7 C 81.9 7 86.27 7.02 86.3 7 C 87.9 7 88.9 8.1 88.9 10 C 88.9 11.4 88.4 12.5 86.8 12.8 C 86.8 12.8 86.8 12.8 86.8 12.8 C 87.3 12.9 88.9 13 88.9 15.1 C 88.9 15.8 88.9 17.9 89.2 18.4 C 89.2 18.4 86.8 18.4 86.8 18.4 C 86.5 17.7 86.6 16.9 86.6 16.2 C 86.6 14.8 86.7 13.7 84.9 13.7 C 84.87 13.68 84.3 13.7 84.3 13.7 L 84.3 18.4 Z M 92.5 14.5 L 89.6 7 L 92.2 7 L 93.9 11.8 L 95.7 7 L 98.1 7 L 94.9 14.5 L 94.9 18.4 L 92.5 18.4 L 92.5 14.5 Z M 105.4 9.8 C 105.4 11.7 103.9 13.3 102 13.3 C 100.1 13.3 98.6 11.7 98.6 9.8 C 98.6 7.9 100.1 6.4 102 6.4 C 103.9 6.4 105.4 7.9 105.4 9.8 Z M 104.8 9.8 C 104.8 8.3 103.6 7 102 7 C 100.5 7 99.3 8.3 99.3 9.8 C 99.3 11.4 100.5 12.6 102 12.6 C 103.6 12.6 104.8 11.4 104.8 9.8 Z M 101.6 11.8 L 100.7 11.8 L 100.7 7.8 C 100.7 7.8 102.37 7.82 102.4 7.8 C 103 7.8 103.4 8.2 103.4 8.9 C 103.4 9.4 103.2 9.7 102.6 9.8 C 102.6 9.8 102.6 9.9 102.6 9.9 C 102.8 9.9 103.4 9.9 103.4 10.6 C 103.4 10.9 103.4 11.6 103.5 11.8 C 103.5 11.8 102.6 11.8 102.6 11.8 C 102.5 11.6 102.5 11.3 102.5 11 C 102.5 10.6 102.5 10.2 101.8 10.2 C 101.84 10.15 101.6 10.2 101.6 10.2 L 101.6 11.8 Z M 101.6 9.6 C 101.6 9.6 102.01 9.59 102 9.6 C 102.4 9.6 102.5 9.3 102.5 9 C 102.5 8.6 102.3 8.5 102 8.5 C 102.01 8.48 101.6 8.5 101.6 8.5 L 101.6 9.6 Z M 109.5 18.4 C 109.5 18.4 109.53 16.46 109.5 16.5 C 113 11.8 113.7 11.3 113.7 9.9 C 113.7 9.4 113.5 8.9 112.9 8.9 C 112 8.9 111.9 9.7 111.9 10.4 C 111.9 10.4 109.7 10.4 109.7 10.4 C 109.5 8.4 110.7 7.3 112.7 7.3 C 114.6 7.3 115.9 8 115.9 10.1 C 115.9 12.6 113.1 15.4 111.9 16.7 C 111.86 16.69 116.1 16.7 116.1 16.7 L 116.1 18.4 L 109.5 18.4 Z M 123 12.9 C 123 16.3 122.8 18.5 119.8 18.5 C 116.9 18.5 116.7 16.3 116.7 12.9 C 116.7 8.7 117.1 7.3 119.8 7.3 C 122.5 7.3 123 8.7 123 12.9 Z M 118.9 12.9 C 118.9 16.2 119 16.9 119.8 16.9 C 120.7 16.9 120.8 16.2 120.8 12.9 C 120.8 9.5 120.8 8.9 119.8 8.9 C 118.9 8.9 118.9 9.5 118.9 12.9 Z M 130 12.9 C 130 16.3 129.8 18.5 126.8 18.5 C 123.9 18.5 123.6 16.3 123.6 12.9 C 123.6 8.7 124.1 7.3 126.8 7.3 C 129.5 7.3 130 8.7 130 12.9 Z M 125.9 12.9 C 125.9 16.2 125.9 16.9 126.8 16.9 C 127.7 16.9 127.8 16.2 127.8 12.9 C 127.8 9.5 127.8 8.9 126.8 8.9 C 125.9 8.9 125.9 9.5 125.9 12.9 Z M 136.8 11.2 C 136.8 11.2 136.79 11.24 136.8 11.2 C 137.2 10.5 137.8 10.3 138.7 10.3 C 139.5 10.3 140.1 10.7 140.4 11.3 C 141 10.6 141.6 10.3 142.5 10.3 C 143.6 10.3 144.5 10.9 144.5 12 C 144.49 12.01 144.5 18.4 144.5 18.4 L 142.3 18.4 C 142.3 18.4 142.27 12.91 142.3 12.9 C 142.3 12.2 142.1 11.6 141.4 11.6 C 140.7 11.6 140.6 12.2 140.6 12.9 C 140.6 12.91 140.6 18.4 140.6 18.4 L 138.4 18.4 C 138.4 18.4 138.43 12.91 138.4 12.9 C 138.4 12.2 138.3 11.6 137.6 11.6 C 136.9 11.6 136.8 12.2 136.8 12.9 C 136.76 12.91 136.8 18.4 136.8 18.4 L 134.5 18.4 L 134.5 10.4 L 136.8 10.4 L 136.8 11.2 Z M 149 16.9 C 149.8 16.9 149.9 16.1 149.9 14.4 C 149.9 12.6 149.9 11.6 149 11.6 C 148.2 11.6 148.1 12.2 148.1 14.7 C 148.1 15.4 148 16.9 149 16.9 Z M 152.2 10.4 C 152.2 10.4 152.17 18.72 152.2 18.7 C 152.2 19.3 152.2 21.4 149.1 21.4 C 147.5 21.4 146.1 21 146 19.1 C 146 19.1 148.2 19.1 148.2 19.1 C 148.2 19.4 148.2 19.7 148.4 19.9 C 148.5 20.1 148.8 20.2 149.1 20.2 C 149.7 20.2 149.9 19.7 149.9 18.9 C 149.95 18.88 149.9 17.4 149.9 17.4 C 149.9 17.4 149.91 17.35 149.9 17.4 C 149.6 18 149 18.3 148.2 18.3 C 145.8 18.3 145.9 16 145.9 14.2 C 145.9 12.5 145.9 10.3 148.2 10.3 C 149 10.3 149.7 10.6 150 11.4 C 150.03 11.36 150.1 11.4 150.1 11.4 L 150.1 10.4 L 152.2 10.4 Z M 160 6.5 C 159.6 8.4 159 10.8 159 13.3 C 159 16.1 159.6 18.3 160 20.3 C 160 20.3 158.8 20.3 158.8 20.3 C 158 18.1 157.1 15.6 157.1 13.3 C 157.1 10.9 158.1 8.1 158.8 6.5 C 158.8 6.5 160 6.5 160 6.5 Z M 163.6 15.8 C 163.6 16.2 163.6 16.5 163.7 16.8 C 163.8 17.1 164.1 17.2 164.5 17.2 C 164.9 17.2 165.3 16.9 165.3 16.4 C 165.3 14.7 161.4 15.1 161.4 12.5 C 161.4 10.8 163.1 10.3 164.6 10.3 C 166.1 10.3 167.4 11 167.3 12.7 C 167.3 12.7 165.1 12.7 165.1 12.7 C 165.1 12.2 165.1 11.8 164.9 11.7 C 164.8 11.6 164.6 11.5 164.3 11.5 C 163.9 11.5 163.6 11.8 163.6 12.4 C 163.6 13.6 167.5 13.6 167.5 16.1 C 167.5 17.5 166.4 18.5 164.5 18.5 C 162.6 18.5 161.3 18.1 161.4 15.8 C 161.4 15.8 163.6 15.8 163.6 15.8 Z M 170.6 16.3 L 170.6 18.4 L 168.8 18.4 L 168.8 16.3 L 170.6 16.3 Z M 176.4 13.3 C 176.4 12.1 176.1 11.7 175.4 11.7 C 174.4 11.7 174.4 12.5 174.4 14.2 C 174.4 16.6 174.6 17.1 175.4 17.1 C 176.1 17.1 176.4 16.5 176.4 15.5 C 176.4 15.5 178.6 15.5 178.6 15.5 C 178.6 17.6 177.5 18.5 175.4 18.5 C 172.5 18.5 172.1 16.8 172.1 14.3 C 172.1 12.1 172.5 10.3 175.4 10.3 C 177.4 10.3 178.6 11.2 178.6 13.3 C 178.6 13.3 176.4 13.3 176.4 13.3 Z M 182 16.3 L 182 18.4 L 180.1 18.4 L 180.1 16.3 L 182 16.3 Z M 183.8 20.3 C 184.2 18.4 184.8 16 184.8 13.5 C 184.8 10.7 184.2 8.5 183.8 6.5 C 183.8 6.5 185 6.5 185 6.5 C 185.8 8.7 186.7 11.2 186.7 13.5 C 186.7 15.9 185.7 18.7 185 20.3 C 185 20.3 183.8 20.3 183.8 20.3 Z M 195.7 14.2 C 195.7 12.5 195.6 11.7 194.6 11.7 C 193.7 11.7 193.6 12.5 193.6 14.2 C 193.6 16.6 193.8 17.1 194.6 17.1 C 195.5 17.1 195.7 16.6 195.7 14.2 Z M 191.4 14.3 C 191.4 12.1 191.7 10.3 194.6 10.3 C 197.6 10.3 197.9 12.1 197.9 14.3 C 197.9 16.8 197.5 18.5 194.6 18.5 C 191.8 18.5 191.4 16.8 191.4 14.3 Z M 201.7 11.2 C 201.7 11.2 201.72 11.24 201.7 11.2 C 201.9 10.9 202.2 10.6 202.5 10.5 C 202.8 10.3 203.2 10.3 203.6 10.3 C 204.7 10.3 205.6 10.9 205.6 12 C 205.58 12.01 205.6 18.4 205.6 18.4 L 203.4 18.4 C 203.4 18.4 203.36 12.91 203.4 12.9 C 203.4 12.2 203.2 11.6 202.5 11.6 C 201.8 11.6 201.7 12.2 201.7 12.9 C 201.69 12.91 201.7 18.4 201.7 18.4 L 199.5 18.4 L 199.5 10.4 L 201.7 10.4 L 201.7 11.2 Z M 211.4 13.3 C 211.4 12.1 211.1 11.7 210.4 11.7 C 209.5 11.7 209.4 12.5 209.4 14.2 C 209.4 16.6 209.6 17.1 210.4 17.1 C 211.1 17.1 211.4 16.5 211.4 15.5 C 211.4 15.5 213.7 15.5 213.7 15.5 C 213.7 17.6 212.5 18.5 210.4 18.5 C 207.5 18.5 207.2 16.8 207.2 14.3 C 207.2 12.1 207.5 10.3 210.4 10.3 C 212.5 10.3 213.6 11.2 213.6 13.3 C 213.6 13.3 211.4 13.3 211.4 13.3 Z M 219.3 13.5 C 219.3 12.8 219.3 11.6 218.3 11.6 C 217.3 11.6 217.3 12.8 217.3 13.5 C 217.3 13.5 219.3 13.5 219.3 13.5 Z M 217.3 14.8 C 217.3 15.7 217.3 17.1 218.3 17.1 C 219.1 17.1 219.2 16.4 219.2 15.7 C 219.2 15.7 221.5 15.7 221.5 15.7 C 221.5 16.6 221.2 17.3 220.6 17.8 C 220.1 18.3 219.3 18.5 218.3 18.5 C 215.4 18.5 215 16.8 215 14.3 C 215 12.1 215.4 10.3 218.3 10.3 C 221.3 10.3 221.6 12.2 221.5 14.8 C 221.5 14.8 217.3 14.8 217.3 14.8 Z " stroke="none" fill="#fff"/>  </g></svg>