<?xml version="1.0" standalone="no"?><!DOCTYPE svg PUBLIC "-//W3C//DTD SVG 1.1//EN" "http://www.w3.org/Graphics/SVG/1.1/DTD/svg11.dtd"><svg xmlns="http://www.w3.org/2000/svg" version="1.1" width="155.3px" height="48.3px" viewBox="0 0 155.3 48.3">  <desc>OLE entry‡</desc>  <defs/>  <g id="Polygon194578">    <path d="M 51.8 21.8 C 51.8 18.9 51.6 17.7 50.3 17.7 C 48.9 17.7 48.8 18.9 48.8 21.8 C 48.8 24.8 48.9 26 50.3 26 C 51.6 26 51.8 24.8 51.8 21.8 Z M 46.3 21.8 C 46.3 18.8 46.3 16 50.3 16 C 54.2 16 54.2 18.8 54.2 21.8 C 54.2 24.8 54.2 27.7 50.3 27.7 C 46.3 27.7 46.3 24.8 46.3 21.8 Z M 56.1 27.5 L 56.1 16.2 L 58.5 16.2 L 58.5 25.6 L 62 25.6 L 62 27.5 L 56.1 27.5 Z M 63.1 27.5 L 63.1 16.2 L 69.3 16.2 L 69.3 17.9 L 65.4 17.9 L 65.4 20.7 L 69 20.7 L 69 22.5 L 65.4 22.5 L 65.4 25.8 L 69.4 25.8 L 69.4 27.5 L 63.1 27.5 Z M 78.4 22.7 C 78.4 21.9 78.4 20.8 77.4 20.8 C 76.3 20.8 76.3 22 76.3 22.7 C 76.3 22.7 78.4 22.7 78.4 22.7 Z M 76.3 23.9 C 76.3 24.9 76.4 26.3 77.4 26.3 C 78.1 26.3 78.3 25.5 78.3 24.9 C 78.3 24.9 80.6 24.9 80.6 24.9 C 80.5 25.7 80.2 26.4 79.7 26.9 C 79.2 27.4 78.4 27.7 77.4 27.7 C 74.5 27.7 74.1 25.9 74.1 23.5 C 74.1 21.3 74.4 19.4 77.4 19.4 C 80.3 19.4 80.7 21.4 80.6 23.9 C 80.6 23.9 76.3 23.9 76.3 23.9 Z M 84.4 20.4 C 84.4 20.4 84.42 20.39 84.4 20.4 C 84.6 20 84.9 19.8 85.2 19.6 C 85.5 19.5 85.9 19.4 86.3 19.4 C 87.3 19.4 88.3 20.1 88.3 21.2 C 88.28 21.16 88.3 27.5 88.3 27.5 L 86.1 27.5 C 86.1 27.5 86.06 22.05 86.1 22.1 C 86.1 21.3 85.9 20.8 85.2 20.8 C 84.5 20.8 84.4 21.3 84.4 22.1 C 84.39 22.05 84.4 27.5 84.4 27.5 L 82.2 27.5 L 82.2 19.6 L 84.4 19.6 L 84.4 20.4 Z M 89.1 19.6 L 90 19.6 L 90 18.3 L 92.3 17.3 L 92.3 19.6 L 93.4 19.6 L 93.4 21 L 92.3 21 C 92.3 21 92.26 25.2 92.3 25.2 C 92.3 25.8 92.2 26.2 93 26.2 C 93.1 26.2 93.2 26.2 93.4 26.2 C 93.4 26.2 93.4 27.5 93.4 27.5 C 93.1 27.6 92.7 27.6 92.2 27.6 C 90.3 27.6 90 26.3 90 25.8 C 90.04 25.85 90 21 90 21 L 89.1 21 L 89.1 19.6 Z M 96.5 19.6 L 96.5 20.6 C 96.5 20.6 96.55 20.61 96.6 20.6 C 97 19.7 97.7 19.4 98.6 19.4 C 98.6 19.4 98.6 21.4 98.6 21.4 C 96.7 21.3 96.6 22.4 96.6 23.2 C 96.63 23.2 96.6 27.5 96.6 27.5 L 94.4 27.5 L 94.4 19.6 L 96.5 19.6 Z M 101.1 27.6 L 98.9 19.6 L 101.1 19.6 L 102.2 25.2 L 102.3 25.2 L 103.5 19.6 L 105.6 19.6 L 102.5 30.5 L 100.2 30.5 L 101.1 27.6 Z M 107.2 20.9 L 105.8 20.9 L 105.8 20 L 107.2 20 L 107.2 17.9 L 105.8 17.9 L 105.8 17 L 107.2 17 L 107.2 15.7 L 108.3 15.7 L 108.3 17 L 109.8 17 L 109.8 17.9 L 108.3 17.9 L 108.3 20 L 109.8 20 L 109.8 20.9 L 108.3 20.9 L 108.3 22.3 L 107.2 22.3 L 107.2 20.9 Z " stroke="none" fill="#003c71"/>  </g></svg>