<?xml version="1.0" standalone="no"?><!DOCTYPE svg PUBLIC "-//W3C//DTD SVG 1.1//EN" "http://www.w3.org/Graphics/SVG/1.1/DTD/svg11.dtd"><svg xmlns="http://www.w3.org/2000/svg" version="1.1" width="130px" height="107.8px" viewBox="0 -16 130 107.8" style="top:-16px">  <desc>95%</desc>  <defs/>  <g id="Polygon200064">    <path d="M 26.6 40.5 L 33.6 40.5 C 33.6 40.5 33.65 43.17 33.6 43.2 C 33.6 47.5 34.7 49 37.7 49 C 40.9 49 41.9 46.6 41.9 42.3 C 41.92 42.27 41.9 32.3 41.9 32.3 C 41.9 32.3 41.77 32.27 41.8 32.3 C 40 34.6 37.9 35.4 34.7 35.4 C 27.7 35.4 26.1 30.1 26.1 22.3 C 26.1 22.3 26.1 13.1 26.1 13.1 C 26.1 3.3 28.4 -0.3 38.2 -0.3 C 46.1 -0.3 49 2.6 49 12.2 C 49 12.2 49 41.5 49 41.5 C 49 51.3 45.8 54.9 37.7 54.9 C 29.7 54.9 26.6 51.3 26.6 45.4 C 26.58 45.35 26.6 40.5 26.6 40.5 Z M 33.6 24.5 C 33.6 27.4 34.4 29.6 37.7 29.6 C 40.6 29.6 41.9 27.5 41.9 22.7 C 41.9 22.7 41.9 11.9 41.9 11.9 C 41.9 8.3 41.9 5.1 37.7 5.1 C 33.6 5.1 33.6 7.7 33.6 11.9 C 33.6 11.9 33.6 24.5 33.6 24.5 Z M 54.1 39.8 L 61.2 39.8 C 61.2 39.8 61.18 44.6 61.2 44.6 C 61.2 47.7 62.5 49.5 65.5 49.5 C 69.9 49.5 69.9 45 69.9 41.8 C 69.9 41.8 69.9 30.2 69.9 30.2 C 69.9 26.4 68.2 25 65.8 25 C 63.4 25 61.7 27 61.7 30.7 C 61.7 30.69 61.7 32.9 61.7 32.9 L 54.6 32.9 L 54.6 0.2 L 75.7 0.2 L 75.7 6 L 61.7 6 L 61.7 22.6 C 61.7 22.6 61.85 22.64 61.9 22.6 C 63.8 19.9 65.9 19.2 68.6 19.2 C 72.6 19.2 77 21.6 77 28.5 C 77 28.5 77 44 77 44 C 77 50.7 73.8 54.9 65.2 54.9 C 57.8 54.9 54.1 51.3 54.1 45.7 C 54.11 45.65 54.1 39.8 54.1 39.8 Z M 84 13.6 C 84 14.8 84.4 15.3 85.3 15.3 C 86.1 15.3 86.5 14.8 86.5 13.6 C 86.5 13.6 86.5 1.6 86.5 1.6 C 86.5 0.4 86.1 -0.1 85.3 -0.1 C 84.4 -0.1 84 0.4 84 1.6 C 84 1.6 84 13.6 84 13.6 Z M 96.5 -2.5 L 99.2 -2.5 L 89.2 29.7 L 86.6 29.7 L 96.5 -2.5 Z M 99.3 25.5 C 99.3 26.8 99.7 27.3 100.6 27.3 C 101.5 27.3 101.8 26.8 101.8 25.5 C 101.8 25.5 101.8 13.6 101.8 13.6 C 101.8 12.4 101.5 11.8 100.6 11.8 C 99.7 11.8 99.3 12.4 99.3 13.6 C 99.3 13.6 99.3 25.5 99.3 25.5 Z M 81.1 1 C 81.1 -1.5 82.9 -2.5 85.3 -2.5 C 87.6 -2.5 89.4 -1.5 89.4 1 C 89.4 1 89.4 14.2 89.4 14.2 C 89.4 16.7 87.6 17.7 85.3 17.7 C 82.9 17.7 81.1 16.7 81.1 14.2 C 81.1 14.2 81.1 1 81.1 1 Z M 96.4 12.9 C 96.4 10.5 98.2 9.5 100.6 9.5 C 102.9 9.5 104.7 10.5 104.7 12.9 C 104.7 12.9 104.7 26.2 104.7 26.2 C 104.7 28.7 102.9 29.7 100.6 29.7 C 98.2 29.7 96.4 28.7 96.4 26.2 C 96.4 26.2 96.4 12.9 96.4 12.9 Z " stroke="none" fill="#003c71"/>  </g></svg>