<?xml version="1.0" standalone="no"?><!DOCTYPE svg PUBLIC "-//W3C//DTD SVG 1.1//EN" "http://www.w3.org/Graphics/SVG/1.1/DTD/svg11.dtd"><svg xmlns="http://www.w3.org/2000/svg" version="1.1" width="202.4px" height="51.3px" viewBox="0 0 202.4 51.3">  <desc>Newly enrolled patients† (n=69)</desc>  <defs/>  <g id="Polygon198850">    <path d="M 85.4 26.7 C 84.9 28.6 84.4 31 84.4 33.5 C 84.4 36.3 85 38.5 85.4 40.5 C 85.4 40.5 84.1 40.5 84.1 40.5 C 83.4 38.3 82.5 35.8 82.5 33.5 C 82.5 31.1 83.5 28.3 84.1 26.7 C 84.1 26.7 85.4 26.7 85.4 26.7 Z M 89.4 31.4 C 89.4 31.4 89.47 31.45 89.5 31.4 C 89.7 31.1 90 30.8 90.3 30.7 C 90.6 30.6 90.9 30.5 91.4 30.5 C 92.4 30.5 93.3 31.1 93.3 32.2 C 93.33 32.22 93.3 38.6 93.3 38.6 L 91.1 38.6 C 91.1 38.6 91.11 33.12 91.1 33.1 C 91.1 32.4 91 31.9 90.3 31.9 C 89.6 31.9 89.4 32.4 89.4 33.1 C 89.44 33.12 89.4 38.6 89.4 38.6 L 87.2 38.6 L 87.2 30.6 L 89.4 30.6 L 89.4 31.4 Z M 101.7 34 L 94.6 34 L 94.6 32.2 L 101.7 32.2 L 101.7 34 Z M 101.7 37 L 94.6 37 L 94.6 35.3 L 101.7 35.3 L 101.7 37 Z M 106.6 35 C 106.6 33.6 106.4 33 105.5 33 C 104.7 33 104.6 33.8 104.6 35.2 C 104.6 35.8 104.6 37.1 105.5 37.1 C 106.3 37.1 106.6 36.7 106.6 35 Z M 106.4 30 C 106.4 29.7 106.3 29.4 106.2 29.3 C 106.1 29.1 105.9 29 105.6 29 C 104.6 29 104.6 29.5 104.6 32.3 C 105.2 31.7 105.5 31.5 106.3 31.5 C 108.4 31.5 108.8 33.3 108.8 35 C 108.8 37.3 107.9 38.7 105.5 38.7 C 102.6 38.7 102.4 36.3 102.4 34 C 102.4 29.7 102.6 27.5 105.8 27.5 C 107.4 27.5 108.7 28.2 108.7 30 C 108.7 30 106.4 30 106.4 30 Z M 112.6 32.8 C 113.5 32.8 113.6 31.6 113.6 30.9 C 113.6 30.2 113.5 29 112.6 29 C 111.6 29 111.6 30.2 111.6 30.9 C 111.6 31.6 111.6 32.8 112.6 32.8 Z M 111.8 36 C 111.8 36.3 111.8 36.6 111.9 36.8 C 112 37 112.2 37.1 112.6 37.1 C 113.7 37.1 113.6 36.2 113.6 33.6 C 113 34.1 112.4 34.3 111.7 34.3 C 110 34.3 109.4 32.8 109.4 31.4 C 109.4 29.2 110.1 27.5 112.5 27.5 C 115.8 27.5 115.8 30.1 115.8 33.2 C 115.8 35.9 115.7 38.7 112.5 38.7 C 110.6 38.7 109.5 38.1 109.6 36 C 109.6 36 111.8 36 111.8 36 Z M 117 40.5 C 117.5 38.6 118.1 36.2 118.1 33.7 C 118.1 30.9 117.4 28.7 117 26.7 C 117 26.7 118.3 26.7 118.3 26.7 C 119 28.9 119.9 31.4 119.9 33.7 C 119.9 36.1 118.9 38.9 118.3 40.5 C 118.3 40.5 117 40.5 117 40.5 Z " stroke="none" fill="#fff"/>  </g>  <g id="Polygon198849">    <path d="M 23.1 19.7 L 23.1 8.3 L 26.4 8.3 L 29.4 16.2 L 29.4 16.2 L 29.4 8.3 L 31.6 8.3 L 31.6 19.7 L 28.5 19.7 L 25.4 11.4 L 25.4 11.4 L 25.4 19.7 L 23.1 19.7 Z M 37.6 14.8 C 37.6 14.1 37.6 12.9 36.6 12.9 C 35.6 12.9 35.6 14.1 35.6 14.8 C 35.6 14.8 37.6 14.8 37.6 14.8 Z M 35.6 16.1 C 35.6 17 35.6 18.4 36.6 18.4 C 37.4 18.4 37.5 17.7 37.5 17 C 37.5 17 39.8 17 39.8 17 C 39.8 17.9 39.5 18.6 38.9 19.1 C 38.4 19.6 37.6 19.8 36.6 19.8 C 33.7 19.8 33.3 18.1 33.3 15.6 C 33.3 13.4 33.7 11.6 36.6 11.6 C 39.6 11.6 39.9 13.5 39.8 16.1 C 39.8 16.1 35.6 16.1 35.6 16.1 Z M 40.7 11.7 L 42.9 11.7 L 44 17.7 L 44 17.7 L 45.6 11.7 L 47.9 11.7 L 49.3 17.7 L 49.3 17.7 L 50.5 11.7 L 52.6 11.7 L 50.5 19.7 L 48.1 19.7 L 46.7 14.3 L 46.7 14.3 L 45 19.7 L 42.7 19.7 L 40.7 11.7 Z M 56.1 8.3 L 56.1 19.7 L 53.9 19.7 L 53.9 8.3 L 56.1 8.3 Z M 59.5 19.8 L 57.3 11.7 L 59.5 11.7 L 60.6 17.3 L 60.7 17.3 L 61.9 11.7 L 64 11.7 L 60.9 22.7 L 58.6 22.7 L 59.5 19.8 Z M 72.6 14.8 C 72.6 14.1 72.7 12.9 71.6 12.9 C 70.6 12.9 70.6 14.1 70.6 14.8 C 70.6 14.8 72.6 14.8 72.6 14.8 Z M 70.6 16.1 C 70.6 17 70.6 18.4 71.6 18.4 C 72.4 18.4 72.5 17.7 72.5 17 C 72.5 17 74.8 17 74.8 17 C 74.8 17.9 74.5 18.6 73.9 19.1 C 73.4 19.6 72.6 19.8 71.6 19.8 C 68.7 19.8 68.4 18.1 68.4 15.6 C 68.4 13.4 68.7 11.6 71.6 11.6 C 74.6 11.6 74.9 13.5 74.8 16.1 C 74.8 16.1 70.6 16.1 70.6 16.1 Z M 78.6 12.5 C 78.6 12.5 78.67 12.54 78.7 12.5 C 78.9 12.2 79.2 11.9 79.5 11.8 C 79.8 11.6 80.1 11.6 80.5 11.6 C 81.6 11.6 82.5 12.2 82.5 13.3 C 82.53 13.31 82.5 19.7 82.5 19.7 L 80.3 19.7 C 80.3 19.7 80.31 14.21 80.3 14.2 C 80.3 13.5 80.2 12.9 79.5 12.9 C 78.8 12.9 78.6 13.5 78.6 14.2 C 78.64 14.21 78.6 19.7 78.6 19.7 L 76.4 19.7 L 76.4 11.7 L 78.6 11.7 L 78.6 12.5 Z M 86.4 11.7 L 86.4 12.8 C 86.4 12.8 86.44 12.76 86.4 12.8 C 86.9 11.8 87.6 11.6 88.5 11.6 C 88.5 11.6 88.5 13.6 88.5 13.6 C 86.6 13.4 86.5 14.6 86.5 15.4 C 86.52 15.36 86.5 19.7 86.5 19.7 L 84.3 19.7 L 84.3 11.7 L 86.4 11.7 Z M 93.6 15.5 C 93.6 13.8 93.5 13 92.6 13 C 91.7 13 91.6 13.8 91.6 15.5 C 91.6 17.9 91.8 18.4 92.6 18.4 C 93.4 18.4 93.6 17.9 93.6 15.5 Z M 89.4 15.6 C 89.4 13.4 89.7 11.6 92.6 11.6 C 95.5 11.6 95.8 13.4 95.8 15.6 C 95.8 18.1 95.5 19.8 92.6 19.8 C 89.7 19.8 89.4 18.1 89.4 15.6 Z M 99.8 8.3 L 99.8 19.7 L 97.6 19.7 L 97.6 8.3 L 99.8 8.3 Z M 104.2 8.3 L 104.2 19.7 L 102 19.7 L 102 8.3 L 104.2 8.3 Z M 110.3 14.8 C 110.3 14.1 110.3 12.9 109.2 12.9 C 108.2 12.9 108.2 14.1 108.2 14.8 C 108.2 14.8 110.3 14.8 110.3 14.8 Z M 108.2 16.1 C 108.2 17 108.3 18.4 109.2 18.4 C 110 18.4 110.2 17.7 110.2 17 C 110.2 17 112.4 17 112.4 17 C 112.4 17.9 112.1 18.6 111.6 19.1 C 111.1 19.6 110.3 19.8 109.2 19.8 C 106.4 19.8 106 18.1 106 15.6 C 106 13.4 106.3 11.6 109.2 11.6 C 112.2 11.6 112.6 13.5 112.5 16.1 C 112.5 16.1 108.2 16.1 108.2 16.1 Z M 117.9 15.6 C 117.9 14.1 117.9 12.9 117 12.9 C 116.1 12.9 116.1 14.1 116.1 15.6 C 116.1 17.6 116.2 18.5 117 18.5 C 117.8 18.5 117.9 17.6 117.9 15.6 Z M 118 19.7 L 118 18.8 C 118 18.8 118.01 18.81 118 18.8 C 117.6 19.6 117 19.8 116.1 19.8 C 113.8 19.8 113.9 17.3 113.9 15.7 C 113.9 14.1 113.8 11.6 116.1 11.6 C 116.9 11.6 117.4 11.8 117.9 12.5 C 117.9 12.49 117.9 12.5 117.9 12.5 L 117.9 8.3 L 120.1 8.3 L 120.1 19.7 L 118 19.7 Z M 129.5 15.6 C 129.5 14.1 129.5 12.9 128.6 12.9 C 127.6 12.9 127.7 14.1 127.7 15.6 C 127.7 17.6 127.8 18.5 128.6 18.5 C 129.4 18.5 129.5 17.6 129.5 15.6 Z M 127.6 11.7 L 127.6 12.6 C 127.6 12.6 127.58 12.62 127.6 12.6 C 128 11.8 128.6 11.6 129.5 11.6 C 131.8 11.6 131.7 14.1 131.7 15.8 C 131.7 17.4 131.7 19.8 129.5 19.8 C 128.7 19.8 128.2 19.6 127.7 18.9 C 127.69 18.94 127.7 18.9 127.7 18.9 L 127.7 23.1 L 125.4 23.1 L 125.4 11.7 L 127.6 11.7 Z M 135.3 17.2 C 135.3 17.8 135.4 18.5 136.1 18.5 C 137.4 18.5 137.2 16.7 137.2 15.8 C 136.1 15.9 135.3 15.8 135.3 17.2 Z M 139.4 18.2 C 139.4 18.7 139.4 19.2 139.5 19.7 C 139.47 19.69 137.4 19.7 137.4 19.7 L 137.3 18.6 C 137.3 18.6 137.28 18.64 137.3 18.6 C 136.8 19.5 136.2 19.8 135.2 19.8 C 133.7 19.8 133.1 18.7 133.1 17.3 C 133.1 14.7 135.1 14.6 137.2 14.6 C 137.2 14.6 137.2 14 137.2 14 C 137.2 13.3 137.1 12.8 136.3 12.8 C 135.5 12.8 135.4 13.4 135.4 14 C 135.4 14 133.3 14 133.3 14 C 133.3 13.1 133.6 12.5 134.1 12.1 C 134.6 11.7 135.3 11.6 136.2 11.6 C 139 11.6 139.4 12.8 139.4 14.2 C 139.4 14.2 139.4 18.2 139.4 18.2 Z M 140.3 11.7 L 141.2 11.7 L 141.2 10.5 L 143.4 9.5 L 143.4 11.7 L 144.6 11.7 L 144.6 13.1 L 143.4 13.1 C 143.4 13.1 143.42 17.36 143.4 17.4 C 143.4 18 143.4 18.4 144.1 18.4 C 144.3 18.4 144.4 18.4 144.5 18.3 C 144.5 18.3 144.5 19.7 144.5 19.7 C 144.2 19.7 143.9 19.8 143.4 19.8 C 141.5 19.8 141.2 18.5 141.2 18 C 141.2 18.01 141.2 13.1 141.2 13.1 L 140.3 13.1 L 140.3 11.7 Z M 148 19.7 L 145.8 19.7 L 145.8 11.7 L 148 11.7 L 148 19.7 Z M 148 8.3 L 148 10.1 L 145.8 10.1 L 145.8 8.3 L 148 8.3 Z M 154 14.8 C 154 14.1 154.1 12.9 153 12.9 C 152 12.9 152 14.1 152 14.8 C 152 14.8 154 14.8 154 14.8 Z M 152 16.1 C 152 17 152 18.4 153 18.4 C 153.8 18.4 154 17.7 154 17 C 154 17 156.2 17 156.2 17 C 156.2 17.9 155.9 18.6 155.4 19.1 C 154.8 19.6 154.1 19.8 153 19.8 C 150.2 19.8 149.8 18.1 149.8 15.6 C 149.8 13.4 150.1 11.6 153 11.6 C 156 11.6 156.3 13.5 156.3 16.1 C 156.3 16.1 152 16.1 152 16.1 Z M 160.1 12.5 C 160.1 12.5 160.09 12.54 160.1 12.5 C 160.3 12.2 160.6 11.9 160.9 11.8 C 161.2 11.6 161.6 11.6 162 11.6 C 163 11.6 164 12.2 164 13.3 C 163.95 13.31 164 19.7 164 19.7 L 161.7 19.7 C 161.7 19.7 161.73 14.21 161.7 14.2 C 161.7 13.5 161.6 12.9 160.9 12.9 C 160.2 12.9 160.1 13.5 160.1 14.2 C 160.06 14.21 160.1 19.7 160.1 19.7 L 157.8 19.7 L 157.8 11.7 L 160.1 11.7 L 160.1 12.5 Z M 164.8 11.7 L 165.7 11.7 L 165.7 10.5 L 167.9 9.5 L 167.9 11.7 L 169.1 11.7 L 169.1 13.1 L 167.9 13.1 C 167.9 13.1 167.94 17.36 167.9 17.4 C 167.9 18 167.9 18.4 168.6 18.4 C 168.8 18.4 168.9 18.4 169 18.3 C 169 18.3 169 19.7 169 19.7 C 168.7 19.7 168.4 19.8 167.9 19.8 C 166 19.8 165.7 18.5 165.7 18 C 165.72 18.01 165.7 13.1 165.7 13.1 L 164.8 13.1 L 164.8 11.7 Z M 171.8 17.1 C 171.8 17.5 171.8 17.8 172 18.1 C 172.1 18.4 172.3 18.5 172.8 18.5 C 173.2 18.5 173.6 18.2 173.6 17.7 C 173.6 16 169.7 16.4 169.7 13.8 C 169.7 12.1 171.4 11.6 172.8 11.6 C 174.3 11.6 175.7 12.3 175.6 14 C 175.6 14 173.4 14 173.4 14 C 173.4 13.5 173.3 13.1 173.2 13 C 173 12.9 172.8 12.8 172.6 12.8 C 172.1 12.8 171.8 13.1 171.8 13.7 C 171.8 14.9 175.8 14.9 175.8 17.4 C 175.8 18.8 174.6 19.8 172.8 19.8 C 170.8 19.8 169.5 19.4 169.7 17.1 C 169.7 17.1 171.8 17.1 171.8 17.1 Z M 177.7 9.2 L 177.7 7.8 L 178.8 7.8 L 178.8 9.2 L 180.2 9.2 L 180.2 10.1 L 178.8 10.1 L 178.8 14.4 L 177.7 14.4 L 177.7 10.1 L 176.3 10.1 L 176.3 9.2 L 177.7 9.2 Z " stroke="none" fill="#fff"/>  </g></svg>