<?xml version="1.0" standalone="no"?><!DOCTYPE svg PUBLIC "-//W3C//DTD SVG 1.1//EN" "http://www.w3.org/Graphics/SVG/1.1/DTD/svg11.dtd"><svg xmlns="http://www.w3.org/2000/svg" version="1.1" width="750px" height="41.7px" viewBox="0 -7 750 41.7" style="top:-7px">  <desc>62% of ANDEMBRY® patients were attack free for the full 6 month study period1</desc>  <defs/>  <g id="Polygon195573">    <path d="M 9.3 5.2 L 6.7 5.2 C 6.7 5.2 6.66 4.26 6.7 4.3 C 6.7 2.7 6.3 2.1 5.2 2.1 C 4 2.1 3.6 3 3.6 4.6 C 3.58 4.59 3.6 8.3 3.6 8.3 C 3.6 8.3 3.64 8.32 3.6 8.3 C 4.3 7.4 5.1 7.1 6.3 7.1 C 8.9 7.1 9.5 9.1 9.5 12 C 9.5 12 9.5 15.5 9.5 15.5 C 9.5 19.1 8.6 20.4 5 20.4 C 2 20.4 1 19.3 1 15.8 C 1 15.8 1 4.9 1 4.9 C 1 1.2 2.1 -0.1 5.2 -0.1 C 8.1 -0.1 9.3 1.2 9.3 3.4 C 9.3 3.44 9.3 5.2 9.3 5.2 Z M 6.7 11.2 C 6.7 10.1 6.4 9.3 5.2 9.3 C 4.1 9.3 3.6 10.1 3.6 11.9 C 3.6 11.9 3.6 15.9 3.6 15.9 C 3.6 17.2 3.6 18.4 5.2 18.4 C 6.7 18.4 6.7 17.5 6.7 15.9 C 6.7 15.9 6.7 11.2 6.7 11.2 Z M 11.4 17.6 C 11.4 17.6 15.48 9.97 15.5 10 C 16.6 7.9 17.1 6.5 17.1 4.3 C 17.1 2.4 16.5 1.9 15.7 1.9 C 14.6 1.9 14.3 2.5 14.3 3.9 C 14.31 3.95 14.3 5.3 14.3 5.3 L 11.7 5.3 C 11.7 5.3 11.68 3.7 11.7 3.7 C 11.7 1 12.5 -0.1 15.6 -0.1 C 18.8 -0.1 19.7 1.1 19.7 4.4 C 19.7 6.7 19.5 7.9 18.4 10 C 18.4 10.02 14.2 17.9 14.2 17.9 L 19.9 17.9 L 19.9 20.3 L 11.4 20.3 L 11.4 17.6 Z M 23.7 10.2 C 23.7 10.9 23.9 11.3 24.5 11.3 C 25.1 11.3 25.3 10.9 25.3 10.2 C 25.3 10.2 25.3 2.5 25.3 2.5 C 25.3 1.7 25.1 1.4 24.5 1.4 C 23.9 1.4 23.7 1.7 23.7 2.5 C 23.7 2.5 23.7 10.2 23.7 10.2 Z M 31.7 -0.1 L 33.4 -0.1 L 27 20.4 L 25.3 20.4 L 31.7 -0.1 Z M 33.5 17.8 C 33.5 18.6 33.7 18.9 34.3 18.9 C 34.8 18.9 35.1 18.6 35.1 17.8 C 35.1 17.8 35.1 10.2 35.1 10.2 C 35.1 9.4 34.8 9 34.3 9 C 33.7 9 33.5 9.4 33.5 10.2 C 33.5 10.2 33.5 17.8 33.5 17.8 Z M 21.8 2.1 C 21.8 0.5 23 -0.1 24.5 -0.1 C 26 -0.1 27.2 0.5 27.2 2.1 C 27.2 2.1 27.2 10.6 27.2 10.6 C 27.2 12.2 26 12.8 24.5 12.8 C 23 12.8 21.8 12.2 21.8 10.6 C 21.8 10.6 21.8 2.1 21.8 2.1 Z M 31.6 9.7 C 31.6 8.2 32.8 7.5 34.3 7.5 C 35.8 7.5 36.9 8.2 36.9 9.7 C 36.9 9.7 36.9 18.2 36.9 18.2 C 36.9 19.8 35.8 20.4 34.3 20.4 C 32.8 20.4 31.6 19.8 31.6 18.2 C 31.6 18.2 31.6 9.7 31.6 9.7 Z M 46.9 15.6 C 46.9 17.3 47.7 18.3 48.8 18.3 C 50 18.3 50.8 17.3 50.8 15.6 C 50.8 15.6 50.8 5 50.8 5 C 50.8 3 50.1 2.1 48.8 2.1 C 47.6 2.1 46.9 3 46.9 5 C 46.9 5 46.9 15.6 46.9 15.6 Z M 44.1 5.2 C 44.1 2.4 45 -0.1 48.8 -0.1 C 52.4 -0.1 53.6 1.8 53.6 4.9 C 53.6 4.9 53.6 15.1 53.6 15.1 C 53.6 17.9 52.7 20.4 48.8 20.4 C 45.2 20.4 44.1 18.6 44.1 15.4 C 44.1 15.4 44.1 5.2 44.1 5.2 Z M 55.6 0.1 L 63.2 0.1 L 63.2 2.4 L 58.4 2.4 L 58.4 8.7 L 62.9 8.7 L 62.9 11.1 L 58.4 11.1 L 58.4 20.3 L 55.6 20.3 L 55.6 0.1 Z M 72.3 0.1 L 75.5 0.1 L 79.7 20.3 L 76.9 20.3 L 75.9 15.1 L 71.6 15.1 L 70.6 20.3 L 67.8 20.3 L 72.3 0.1 Z M 72 12.8 L 75.5 12.8 L 73.8 3 L 73.8 3 L 72 12.8 Z M 81 0.1 L 84.9 0.1 L 88.2 16.9 L 88.2 16.9 L 88.2 0.1 L 90.9 0.1 L 90.9 20.3 L 86.8 20.3 L 83.5 3 L 83.5 3 L 83.5 20.3 L 81 20.3 L 81 0.1 Z M 95.7 17.9 C 95.7 17.9 97.07 17.92 97.1 17.9 C 99.1 17.9 99.5 16.8 99.5 13.4 C 99.5 13.4 99.5 6.4 99.5 6.4 C 99.5 3.4 99.2 2.4 96.9 2.4 C 96.85 2.41 95.7 2.4 95.7 2.4 L 95.7 17.9 Z M 92.9 0.1 C 92.9 0.1 97.44 0.06 97.4 0.1 C 102 0.1 102.3 1.6 102.3 7.4 C 102.3 7.4 102.3 13.5 102.3 13.5 C 102.3 18.6 101.4 20.3 97 20.3 C 96.99 20.27 92.9 20.3 92.9 20.3 L 92.9 0.1 Z M 104.3 0.1 L 111.9 0.1 L 111.9 2.4 L 107.1 2.4 L 107.1 8.7 L 111.7 8.7 L 111.7 11.1 L 107.1 11.1 L 107.1 17.9 L 111.9 17.9 L 111.9 20.3 L 104.3 20.3 L 104.3 0.1 Z M 113.1 0.1 L 117.6 0.1 L 120.2 15.5 L 120.2 15.5 L 122.8 0.1 L 127.1 0.1 L 127.1 20.3 L 124.5 20.3 L 124.5 2.1 L 124.5 2.1 L 121.6 20.3 L 118.8 20.3 L 115.7 2.1 L 115.6 2.1 L 115.6 20.3 L 113.1 20.3 L 113.1 0.1 Z M 129.2 0.1 C 129.2 0.1 134.09 0.06 134.1 0.1 C 137.5 0.1 138.1 1.3 138.1 5 C 138.1 8.9 137.5 9.6 135.6 9.8 C 135.6 9.8 135.6 9.9 135.6 9.9 C 137.8 10.3 138.3 11.1 138.3 14.5 C 138.3 18.9 137.7 20.3 133.6 20.3 C 133.61 20.27 129.2 20.3 129.2 20.3 L 129.2 0.1 Z M 132 18.1 C 132 18.1 133.75 18.09 133.8 18.1 C 135.3 18.1 135.6 17.6 135.6 14.4 C 135.6 11.4 135.4 10.9 133.8 10.9 C 133.84 10.92 132 10.9 132 10.9 L 132 18.1 Z M 132 8.7 C 132 8.7 133.64 8.74 133.6 8.7 C 135.3 8.7 135.5 8.4 135.5 5.1 C 135.5 2.8 135.1 2.2 133.3 2.2 C 133.33 2.24 132 2.2 132 2.2 L 132 8.7 Z M 140.1 0.1 C 140.1 0.1 144.45 0.06 144.4 0.1 C 148.5 0.1 149 1.1 149 5.6 C 149 8.3 148.6 9.5 146.3 10.2 C 146.3 10.2 146.3 10.2 146.3 10.2 C 148.2 10.4 148.8 11.4 148.8 13.3 C 148.8 13.3 148.8 17.7 148.8 17.7 C 148.8 18.4 148.8 19.4 149 20.3 C 149 20.3 146.4 20.3 146.4 20.3 C 146.1 19.8 146 19.3 146 18.5 C 146 18.5 146 13.9 146 13.9 C 146 12 145.7 11.5 143.9 11.5 C 143.86 11.48 142.9 11.5 142.9 11.5 L 142.9 20.3 L 140.1 20.3 L 140.1 0.1 Z M 142.9 9.1 C 142.9 9.1 143.64 9.13 143.6 9.1 C 145.8 9.1 146.2 8.7 146.2 5.7 C 146.2 2.7 146 2.4 144.3 2.4 C 144.25 2.41 142.9 2.4 142.9 2.4 L 142.9 9.1 Z M 149.2 0.1 L 152 0.1 L 154.4 8.6 L 154.4 8.6 L 157.2 0.1 L 159.7 0.1 L 155.8 12 L 155.8 20.3 L 153 20.3 L 153 12 L 149.2 0.1 Z M 166.7 -0.9 C 170 -0.9 172.6 1.7 172.6 5.1 C 172.6 8.4 170 11 166.7 11 C 163.4 11 160.7 8.4 160.7 5.1 C 160.7 1.7 163.4 -0.9 166.7 -0.9 Z M 166.7 9.9 C 169.3 9.9 171.4 7.7 171.4 5.1 C 171.4 2.4 169.3 0.2 166.7 0.2 C 164 0.2 161.9 2.4 161.9 5.1 C 161.9 7.7 164 9.9 166.7 9.9 Z M 166.3 5.5 L 165.2 5.5 L 165.2 8.5 L 164 8.5 L 164 1.6 C 164 1.6 166.74 1.63 166.7 1.6 C 168.4 1.6 169.3 2.2 169.3 3.6 C 169.3 4.8 168.5 5.3 167.6 5.4 C 167.57 5.4 169.4 8.5 169.4 8.5 L 168.1 8.5 L 166.3 5.5 Z M 166.4 4.5 C 167.3 4.5 168 4.5 168 3.5 C 168 2.7 167.2 2.6 166.5 2.6 C 166.54 2.61 165.2 2.6 165.2 2.6 L 165.2 4.5 C 165.2 4.5 166.45 4.53 166.4 4.5 Z M 182.2 9.1 C 182.2 9.1 183.69 9.13 183.7 9.1 C 185.6 9.1 185.8 8.8 185.8 5.8 C 185.8 2.7 185.6 2.4 183.7 2.4 C 183.69 2.41 182.2 2.4 182.2 2.4 L 182.2 9.1 Z M 179.4 0.1 C 179.4 0.1 184.05 0.06 184.1 0.1 C 187.9 0.1 188.6 1.1 188.6 5.8 C 188.6 10.4 187.9 11.5 184.1 11.5 C 184.05 11.48 182.2 11.5 182.2 11.5 L 182.2 20.3 L 179.4 20.3 L 179.4 0.1 Z M 192 0.1 L 195.2 0.1 L 199.3 20.3 L 196.5 20.3 L 195.6 15.1 L 191.2 15.1 L 190.3 20.3 L 187.5 20.3 L 192 0.1 Z M 191.7 12.8 L 195.2 12.8 L 193.5 3 L 193.4 3 L 191.7 12.8 Z M 197.6 0.1 L 207.1 0.1 L 207.1 2.4 L 203.7 2.4 L 203.7 20.3 L 200.9 20.3 L 200.9 2.4 L 197.6 2.4 L 197.6 0.1 Z M 208.2 0.1 L 211 0.1 L 211 20.3 L 208.2 20.3 L 208.2 0.1 Z M 213 0.1 L 220.6 0.1 L 220.6 2.4 L 215.8 2.4 L 215.8 8.7 L 220.3 8.7 L 220.3 11.1 L 215.8 11.1 L 215.8 17.9 L 220.6 17.9 L 220.6 20.3 L 213 20.3 L 213 0.1 Z M 221.8 0.1 L 225.7 0.1 L 229 16.9 L 229 16.9 L 229 0.1 L 231.7 0.1 L 231.7 20.3 L 227.6 20.3 L 224.3 3 L 224.3 3 L 224.3 20.3 L 221.8 20.3 L 221.8 0.1 Z M 232.9 0.1 L 242.4 0.1 L 242.4 2.4 L 239 2.4 L 239 20.3 L 236.2 20.3 L 236.2 2.4 L 232.9 2.4 L 232.9 0.1 Z M 243.3 14.4 L 246.1 14.4 C 246.1 14.4 246.1 16.07 246.1 16.1 C 246.1 17.4 246.6 18.3 247.7 18.3 C 249.2 18.3 249.6 17.2 249.6 15.9 C 249.6 14.2 249.5 13.7 246.6 10.8 C 244.8 9 243.3 7.4 243.3 4.6 C 243.3 1.3 244.8 -0.1 247.9 -0.1 C 249.4 -0.1 250.5 0.4 251.2 1 C 251.6 1.5 252 2.2 252 3.6 C 251.98 3.58 252 5.5 252 5.5 L 249.3 5.5 C 249.3 5.5 249.35 3.89 249.3 3.9 C 249.3 2.7 248.9 2.1 247.8 2.1 C 246.6 2.1 246.1 2.7 246.1 4.3 C 246.1 5.7 246.4 6.5 249 9.2 C 251.7 12 252.2 13 252.2 15.5 C 252.2 18.6 251 20.4 247.6 20.4 C 245.1 20.4 243.3 19.3 243.3 16.8 C 243.3 16.83 243.3 14.4 243.3 14.4 Z M 257.5 0.1 L 260.4 0.1 L 262.4 16.7 L 262.4 16.7 L 264.7 0.1 L 268.5 0.1 L 270.3 16.7 L 270.4 16.7 L 272.8 0.1 L 275.4 0.1 L 271.8 20.3 L 268.4 20.3 L 266.5 3.4 L 266.4 3.4 L 264 20.3 L 260.7 20.3 L 257.5 0.1 Z M 276.8 0.1 L 284.4 0.1 L 284.4 2.4 L 279.6 2.4 L 279.6 8.7 L 284.2 8.7 L 284.2 11.1 L 279.6 11.1 L 279.6 17.9 L 284.4 17.9 L 284.4 20.3 L 276.8 20.3 L 276.8 0.1 Z M 285.6 0.1 C 285.6 0.1 289.97 0.06 290 0.1 C 294.1 0.1 294.5 1.1 294.5 5.6 C 294.5 8.3 294.1 9.5 291.8 10.2 C 291.8 10.2 291.8 10.2 291.8 10.2 C 293.7 10.4 294.4 11.4 294.4 13.3 C 294.4 13.3 294.4 17.7 294.4 17.7 C 294.4 18.4 294.4 19.4 294.5 20.3 C 294.5 20.3 291.9 20.3 291.9 20.3 C 291.6 19.8 291.6 19.3 291.6 18.5 C 291.6 18.5 291.6 13.9 291.6 13.9 C 291.6 12 291.2 11.5 289.4 11.5 C 289.39 11.48 288.4 11.5 288.4 11.5 L 288.4 20.3 L 285.6 20.3 L 285.6 0.1 Z M 288.4 9.1 C 288.4 9.1 289.16 9.13 289.2 9.1 C 291.4 9.1 291.7 8.7 291.7 5.7 C 291.7 2.7 291.5 2.4 289.8 2.4 C 289.78 2.41 288.4 2.4 288.4 2.4 L 288.4 9.1 Z M 296.5 0.1 L 304.1 0.1 L 304.1 2.4 L 299.3 2.4 L 299.3 8.7 L 303.9 8.7 L 303.9 11.1 L 299.3 11.1 L 299.3 17.9 L 304.1 17.9 L 304.1 20.3 L 296.5 20.3 L 296.5 0.1 Z M 313.2 0.1 L 316.5 0.1 L 320.6 20.3 L 317.8 20.3 L 316.9 15.1 L 312.5 15.1 L 311.6 20.3 L 308.8 20.3 L 313.2 0.1 Z M 312.9 12.8 L 316.5 12.8 L 314.8 3 L 314.7 3 L 312.9 12.8 Z M 318.8 0.1 L 328.4 0.1 L 328.4 2.4 L 325 2.4 L 325 20.3 L 322.2 20.3 L 322.2 2.4 L 318.8 2.4 L 318.8 0.1 Z M 328.7 0.1 L 338.2 0.1 L 338.2 2.4 L 334.9 2.4 L 334.9 20.3 L 332.1 20.3 L 332.1 2.4 L 328.7 2.4 L 328.7 0.1 Z M 340.9 0.1 L 344.2 0.1 L 348.3 20.3 L 345.5 20.3 L 344.5 15.1 L 340.2 15.1 L 339.3 20.3 L 336.5 20.3 L 340.9 0.1 Z M 340.6 12.8 L 344.2 12.8 L 342.4 3 L 342.4 3 L 340.6 12.8 Z M 349.2 5.2 C 349.2 2.4 350.1 -0.1 353.9 -0.1 C 356.7 -0.1 358 1.3 358 3.6 C 357.96 3.56 358 5.6 358 5.6 L 355.3 5.6 C 355.3 5.6 355.33 4.17 355.3 4.2 C 355.3 2.9 354.9 2.1 353.7 2.1 C 352.2 2.1 352 3.1 352 5.5 C 352 5.5 352 15.5 352 15.5 C 352 17.8 352.7 18.3 353.6 18.3 C 354.7 18.3 355.3 17.5 355.3 15.8 C 355.33 15.85 355.3 14.4 355.3 14.4 L 358 14.4 C 358 14.4 357.96 16.69 358 16.7 C 358 18.8 357.1 20.4 353.8 20.4 C 350.3 20.4 349.2 18.6 349.2 15.4 C 349.2 15.4 349.2 5.2 349.2 5.2 Z M 359.3 0.1 L 362.1 0.1 L 362.1 9.3 L 362.2 9.3 L 366.6 0.1 L 369.4 0.1 L 364.7 9.5 L 369.7 20.3 L 366.6 20.3 L 362.2 10.2 L 362.1 10.2 L 362.1 20.3 L 359.3 20.3 L 359.3 0.1 Z M 370.4 12.1 L 377.2 12.1 L 377.2 14.3 L 370.4 14.3 L 370.4 12.1 Z M 379 0.1 L 386.6 0.1 L 386.6 2.4 L 381.8 2.4 L 381.8 8.7 L 386.3 8.7 L 386.3 11.1 L 381.8 11.1 L 381.8 20.3 L 379 20.3 L 379 0.1 Z M 387.8 0.1 C 387.8 0.1 392.17 0.06 392.2 0.1 C 396.3 0.1 396.7 1.1 396.7 5.6 C 396.7 8.3 396.3 9.5 394 10.2 C 394 10.2 394 10.2 394 10.2 C 395.9 10.4 396.6 11.4 396.6 13.3 C 396.6 13.3 396.6 17.7 396.6 17.7 C 396.6 18.4 396.6 19.4 396.7 20.3 C 396.7 20.3 394.1 20.3 394.1 20.3 C 393.8 19.8 393.8 19.3 393.8 18.5 C 393.8 18.5 393.8 13.9 393.8 13.9 C 393.8 12 393.4 11.5 391.6 11.5 C 391.58 11.48 390.6 11.5 390.6 11.5 L 390.6 20.3 L 387.8 20.3 L 387.8 0.1 Z M 390.6 9.1 C 390.6 9.1 391.36 9.13 391.4 9.1 C 393.6 9.1 393.9 8.7 393.9 5.7 C 393.9 2.7 393.7 2.4 392 2.4 C 391.98 2.41 390.6 2.4 390.6 2.4 L 390.6 9.1 Z M 398.7 0.1 L 406.3 0.1 L 406.3 2.4 L 401.5 2.4 L 401.5 8.7 L 406.1 8.7 L 406.1 11.1 L 401.5 11.1 L 401.5 17.9 L 406.3 17.9 L 406.3 20.3 L 398.7 20.3 L 398.7 0.1 Z M 407.5 0.1 L 415.2 0.1 L 415.2 2.4 L 410.3 2.4 L 410.3 8.7 L 414.9 8.7 L 414.9 11.1 L 410.3 11.1 L 410.3 17.9 L 415.2 17.9 L 415.2 20.3 L 407.5 20.3 L 407.5 0.1 Z M 421.6 0.1 L 429.2 0.1 L 429.2 2.4 L 424.4 2.4 L 424.4 8.7 L 428.9 8.7 L 428.9 11.1 L 424.4 11.1 L 424.4 20.3 L 421.6 20.3 L 421.6 0.1 Z M 433.1 15.6 C 433.1 17.3 433.9 18.3 435 18.3 C 436.2 18.3 437 17.3 437 15.6 C 437 15.6 437 5 437 5 C 437 3 436.3 2.1 435 2.1 C 433.8 2.1 433.1 3 433.1 5 C 433.1 5 433.1 15.6 433.1 15.6 Z M 430.3 5.2 C 430.3 2.4 431.2 -0.1 435 -0.1 C 438.7 -0.1 439.8 1.8 439.8 4.9 C 439.8 4.9 439.8 15.1 439.8 15.1 C 439.8 17.9 438.9 20.4 435 20.4 C 431.5 20.4 430.3 18.6 430.3 15.4 C 430.3 15.4 430.3 5.2 430.3 5.2 Z M 441.8 0.1 C 441.8 0.1 446.13 0.06 446.1 0.1 C 450.2 0.1 450.6 1.1 450.6 5.6 C 450.6 8.3 450.3 9.5 448 10.2 C 448 10.2 448 10.2 448 10.2 C 449.9 10.4 450.5 11.4 450.5 13.3 C 450.5 13.3 450.5 17.7 450.5 17.7 C 450.5 18.4 450.5 19.4 450.7 20.3 C 450.7 20.3 448.1 20.3 448.1 20.3 C 447.8 19.8 447.7 19.3 447.7 18.5 C 447.7 18.5 447.7 13.9 447.7 13.9 C 447.7 12 447.4 11.5 445.5 11.5 C 445.54 11.48 444.6 11.5 444.6 11.5 L 444.6 20.3 L 441.8 20.3 L 441.8 0.1 Z M 444.6 9.1 C 444.6 9.1 445.31 9.13 445.3 9.1 C 447.5 9.1 447.8 8.7 447.8 5.7 C 447.8 2.7 447.7 2.4 445.9 2.4 C 445.93 2.41 444.6 2.4 444.6 2.4 L 444.6 9.1 Z M 456 0.1 L 465.5 0.1 L 465.5 2.4 L 462.1 2.4 L 462.1 20.3 L 459.3 20.3 L 459.3 2.4 L 456 2.4 L 456 0.1 Z M 466.7 0.1 L 469.5 0.1 L 469.5 8.7 L 473.2 8.7 L 473.2 0.1 L 476 0.1 L 476 20.3 L 473.2 20.3 L 473.2 11.1 L 469.5 11.1 L 469.5 20.3 L 466.7 20.3 L 466.7 0.1 Z M 478.1 0.1 L 485.7 0.1 L 485.7 2.4 L 480.9 2.4 L 480.9 8.7 L 485.4 8.7 L 485.4 11.1 L 480.9 11.1 L 480.9 17.9 L 485.7 17.9 L 485.7 20.3 L 478.1 20.3 L 478.1 0.1 Z M 492.1 0.1 L 499.7 0.1 L 499.7 2.4 L 494.9 2.4 L 494.9 8.7 L 499.5 8.7 L 499.5 11.1 L 494.9 11.1 L 494.9 20.3 L 492.1 20.3 L 492.1 0.1 Z M 510.4 15.7 C 510.4 18.1 509.4 20.4 505.6 20.4 C 501.8 20.4 500.9 18.1 500.9 15.7 C 500.87 15.71 500.9 0.1 500.9 0.1 L 503.7 0.1 C 503.7 0.1 503.67 16.18 503.7 16.2 C 503.7 17.6 504.2 18.3 505.6 18.3 C 507.1 18.3 507.6 17.6 507.6 16.2 C 507.56 16.18 507.6 0.1 507.6 0.1 L 510.4 0.1 C 510.4 0.1 510.36 15.71 510.4 15.7 Z M 512.3 0.1 L 515.1 0.1 L 515.1 17.9 L 519.8 17.9 L 519.8 20.3 L 512.3 20.3 L 512.3 0.1 Z M 521.2 0.1 L 524 0.1 L 524 17.9 L 528.7 17.9 L 528.7 20.3 L 521.2 20.3 L 521.2 0.1 Z M 543.5 5.2 L 540.8 5.2 C 540.8 5.2 540.82 4.26 540.8 4.3 C 540.8 2.7 540.4 2.1 539.3 2.1 C 538.1 2.1 537.7 3 537.7 4.6 C 537.74 4.59 537.7 8.3 537.7 8.3 C 537.7 8.3 537.8 8.32 537.8 8.3 C 538.4 7.4 539.2 7.1 540.4 7.1 C 543 7.1 543.6 9.1 543.6 12 C 543.6 12 543.6 15.5 543.6 15.5 C 543.6 19.1 542.8 20.4 539.1 20.4 C 536.2 20.4 535.1 19.3 535.1 15.8 C 535.1 15.8 535.1 4.9 535.1 4.9 C 535.1 1.2 536.3 -0.1 539.3 -0.1 C 542.3 -0.1 543.5 1.2 543.5 3.4 C 543.45 3.44 543.5 5.2 543.5 5.2 Z M 540.8 11.2 C 540.8 10.1 540.5 9.3 539.3 9.3 C 538.2 9.3 537.7 10.1 537.7 11.9 C 537.7 11.9 537.7 15.9 537.7 15.9 C 537.7 17.2 537.7 18.4 539.3 18.4 C 540.8 18.4 540.8 17.5 540.8 15.9 C 540.8 15.9 540.8 11.2 540.8 11.2 Z M 550.8 0.1 L 555.3 0.1 L 557.8 15.5 L 557.9 15.5 L 560.5 0.1 L 564.8 0.1 L 564.8 20.3 L 562.2 20.3 L 562.2 2.1 L 562.1 2.1 L 559.3 20.3 L 556.5 20.3 L 553.3 2.1 L 553.3 2.1 L 553.3 20.3 L 550.8 20.3 L 550.8 0.1 Z M 569.6 15.6 C 569.6 17.3 570.4 18.3 571.5 18.3 C 572.7 18.3 573.5 17.3 573.5 15.6 C 573.5 15.6 573.5 5 573.5 5 C 573.5 3 572.8 2.1 571.5 2.1 C 570.3 2.1 569.6 3 569.6 5 C 569.6 5 569.6 15.6 569.6 15.6 Z M 566.8 5.2 C 566.8 2.4 567.7 -0.1 571.5 -0.1 C 575.1 -0.1 576.3 1.8 576.3 4.9 C 576.3 4.9 576.3 15.1 576.3 15.1 C 576.3 17.9 575.4 20.4 571.5 20.4 C 568 20.4 566.8 18.6 566.8 15.4 C 566.8 15.4 566.8 5.2 566.8 5.2 Z M 578.3 0.1 L 582.1 0.1 L 585.5 16.9 L 585.5 16.9 L 585.5 0.1 L 588.1 0.1 L 588.1 20.3 L 584.1 20.3 L 580.8 3 L 580.7 3 L 580.7 20.3 L 578.3 20.3 L 578.3 0.1 Z M 589.3 0.1 L 598.9 0.1 L 598.9 2.4 L 595.5 2.4 L 595.5 20.3 L 592.7 20.3 L 592.7 2.4 L 589.3 2.4 L 589.3 0.1 Z M 600.1 0.1 L 602.9 0.1 L 602.9 8.7 L 606.6 8.7 L 606.6 0.1 L 609.4 0.1 L 609.4 20.3 L 606.6 20.3 L 606.6 11.1 L 602.9 11.1 L 602.9 20.3 L 600.1 20.3 L 600.1 0.1 Z M 616.4 14.4 L 619.2 14.4 C 619.2 14.4 619.16 16.07 619.2 16.1 C 619.2 17.4 619.7 18.3 620.8 18.3 C 622.3 18.3 622.6 17.2 622.6 15.9 C 622.6 14.2 622.6 13.7 619.6 10.8 C 617.8 9 616.4 7.4 616.4 4.6 C 616.4 1.3 617.9 -0.1 621 -0.1 C 622.5 -0.1 623.6 0.4 624.2 1 C 624.7 1.5 625 2.2 625 3.6 C 625.04 3.58 625 5.5 625 5.5 L 622.4 5.5 C 622.4 5.5 622.41 3.89 622.4 3.9 C 622.4 2.7 621.9 2.1 620.8 2.1 C 619.7 2.1 619.2 2.7 619.2 4.3 C 619.2 5.7 619.4 6.5 622 9.2 C 624.8 12 625.3 13 625.3 15.5 C 625.3 18.6 624 20.4 620.7 20.4 C 618.1 20.4 616.4 19.3 616.4 16.8 C 616.36 16.83 616.4 14.4 616.4 14.4 Z M 626.2 0.1 L 635.7 0.1 L 635.7 2.4 L 632.3 2.4 L 632.3 20.3 L 629.5 20.3 L 629.5 2.4 L 626.2 2.4 L 626.2 0.1 Z M 646.3 15.7 C 646.3 18.1 645.4 20.4 641.6 20.4 C 637.7 20.4 636.8 18.1 636.8 15.7 C 636.8 15.71 636.8 0.1 636.8 0.1 L 639.6 0.1 C 639.6 0.1 639.6 16.18 639.6 16.2 C 639.6 17.6 640.1 18.3 641.6 18.3 C 643 18.3 643.5 17.6 643.5 16.2 C 643.49 16.18 643.5 0.1 643.5 0.1 L 646.3 0.1 C 646.3 0.1 646.29 15.71 646.3 15.7 Z M 651.1 17.9 C 651.1 17.9 652.43 17.92 652.4 17.9 C 654.5 17.9 654.9 16.8 654.9 13.4 C 654.9 13.4 654.9 6.4 654.9 6.4 C 654.9 3.4 654.6 2.4 652.2 2.4 C 652.2 2.41 651.1 2.4 651.1 2.4 L 651.1 17.9 Z M 648.3 0.1 C 648.3 0.1 652.79 0.06 652.8 0.1 C 657.3 0.1 657.7 1.6 657.7 7.4 C 657.7 7.4 657.7 13.5 657.7 13.5 C 657.7 18.6 656.8 20.3 652.3 20.3 C 652.34 20.27 648.3 20.3 648.3 20.3 L 648.3 0.1 Z M 658.4 0.1 L 661.2 0.1 L 663.6 8.6 L 663.7 8.6 L 666.5 0.1 L 668.9 0.1 L 665.1 12 L 665.1 20.3 L 662.3 20.3 L 662.3 12 L 658.4 0.1 Z M 678.4 9.1 C 678.4 9.1 679.87 9.13 679.9 9.1 C 681.8 9.1 682 8.8 682 5.8 C 682 2.7 681.8 2.4 679.9 2.4 C 679.87 2.41 678.4 2.4 678.4 2.4 L 678.4 9.1 Z M 675.6 0.1 C 675.6 0.1 680.23 0.06 680.2 0.1 C 684 0.1 684.8 1.1 684.8 5.8 C 684.8 10.4 684 11.5 680.2 11.5 C 680.23 11.48 678.4 11.5 678.4 11.5 L 678.4 20.3 L 675.6 20.3 L 675.6 0.1 Z M 686.5 0.1 L 694.1 0.1 L 694.1 2.4 L 689.3 2.4 L 689.3 8.7 L 693.8 8.7 L 693.8 11.1 L 689.3 11.1 L 689.3 17.9 L 694.1 17.9 L 694.1 20.3 L 686.5 20.3 L 686.5 0.1 Z M 695.3 0.1 C 695.3 0.1 699.66 0.06 699.7 0.1 C 703.7 0.1 704.2 1.1 704.2 5.6 C 704.2 8.3 703.8 9.5 701.5 10.2 C 701.5 10.2 701.5 10.2 701.5 10.2 C 703.4 10.4 704.1 11.4 704.1 13.3 C 704.1 13.3 704.1 17.7 704.1 17.7 C 704.1 18.4 704.1 19.4 704.2 20.3 C 704.2 20.3 701.6 20.3 701.6 20.3 C 701.3 19.8 701.3 19.3 701.3 18.5 C 701.3 18.5 701.3 13.9 701.3 13.9 C 701.3 12 700.9 11.5 699.1 11.5 C 699.07 11.48 698.1 11.5 698.1 11.5 L 698.1 20.3 L 695.3 20.3 L 695.3 0.1 Z M 698.1 9.1 C 698.1 9.1 698.85 9.13 698.8 9.1 C 701.1 9.1 701.4 8.7 701.4 5.7 C 701.4 2.7 701.2 2.4 699.5 2.4 C 699.47 2.41 698.1 2.4 698.1 2.4 L 698.1 9.1 Z M 706.1 0.1 L 708.9 0.1 L 708.9 20.3 L 706.1 20.3 L 706.1 0.1 Z M 713.6 15.6 C 713.6 17.3 714.4 18.3 715.6 18.3 C 716.7 18.3 717.5 17.3 717.5 15.6 C 717.5 15.6 717.5 5 717.5 5 C 717.5 3 716.9 2.1 715.6 2.1 C 714.3 2.1 713.6 3 713.6 5 C 713.6 5 713.6 15.6 713.6 15.6 Z M 710.8 5.2 C 710.8 2.4 711.8 -0.1 715.6 -0.1 C 719.2 -0.1 720.3 1.8 720.3 4.9 C 720.3 4.9 720.3 15.1 720.3 15.1 C 720.3 17.9 719.4 20.4 715.6 20.4 C 712 20.4 710.8 18.6 710.8 15.4 C 710.8 15.4 710.8 5.2 710.8 5.2 Z M 725.1 17.9 C 725.1 17.9 726.46 17.92 726.5 17.9 C 728.5 17.9 728.9 16.8 728.9 13.4 C 728.9 13.4 728.9 6.4 728.9 6.4 C 728.9 3.4 728.6 2.4 726.2 2.4 C 726.23 2.41 725.1 2.4 725.1 2.4 L 725.1 17.9 Z M 722.3 0.1 C 722.3 0.1 726.82 0.06 726.8 0.1 C 731.4 0.1 731.7 1.6 731.7 7.4 C 731.7 7.4 731.7 13.5 731.7 13.5 C 731.7 18.6 730.8 20.3 726.4 20.3 C 726.37 20.27 722.3 20.3 722.3 20.3 L 722.3 0.1 Z M 735.3 1.4 C 735.3 1.4 735.25 1.38 735.3 1.4 C 734.9 1.8 734.6 2.1 734 2.6 C 734 2.6 734 1.1 734 1.1 C 734.4 0.8 735.2 -0.3 735.4 -0.8 C 735.45 -0.84 736.8 -0.8 736.8 -0.8 L 736.8 10.9 L 735.3 10.9 L 735.3 1.4 Z " stroke="none" fill="#003c71"/>  </g></svg>