<?xml version="1.0" standalone="no"?><!DOCTYPE svg PUBLIC "-//W3C//DTD SVG 1.1//EN" "http://www.w3.org/Graphics/SVG/1.1/DTD/svg11.dtd"><svg xmlns="http://www.w3.org/2000/svg" version="1.1" width="242.4px" height="48.3px" viewBox="0 0 242.4 48.3">  <desc>200 mg ANDEMBRY® once monthly (s.c.)*</desc>  <defs/>  <g id="Polygon194673">    <path d="M 62.8 32.8 C 62.8 31.1 62.7 30.3 61.8 30.3 C 60.8 30.3 60.8 31.1 60.8 32.8 C 60.8 35.2 61 35.7 61.8 35.7 C 62.6 35.7 62.8 35.2 62.8 32.8 Z M 58.5 32.9 C 58.5 30.7 58.8 28.9 61.8 28.9 C 64.7 28.9 65 30.7 65 32.9 C 65 35.4 64.6 37.1 61.8 37.1 C 58.9 37.1 58.5 35.4 58.5 32.9 Z M 68.8 29.8 C 68.8 29.8 68.84 29.83 68.8 29.8 C 69.1 29.5 69.3 29.2 69.6 29.1 C 69.9 28.9 70.3 28.9 70.7 28.9 C 71.8 28.9 72.7 29.5 72.7 30.6 C 72.69 30.6 72.7 37 72.7 37 L 70.5 37 C 70.5 37 70.48 31.49 70.5 31.5 C 70.5 30.8 70.4 30.2 69.6 30.2 C 68.9 30.2 68.8 30.8 68.8 31.5 C 68.81 31.49 68.8 37 68.8 37 L 66.6 37 L 66.6 29 L 68.8 29 L 68.8 29.8 Z M 78.5 31.9 C 78.5 30.7 78.2 30.3 77.5 30.3 C 76.6 30.3 76.5 31.1 76.5 32.8 C 76.5 35.2 76.7 35.7 77.5 35.7 C 78.2 35.7 78.5 35.1 78.5 34 C 78.5 34 80.7 34 80.7 34 C 80.7 36.2 79.6 37.1 77.5 37.1 C 74.6 37.1 74.3 35.4 74.3 32.9 C 74.3 30.7 74.6 28.9 77.5 28.9 C 79.6 28.9 80.7 29.8 80.7 31.9 C 80.7 31.9 78.5 31.9 78.5 31.9 Z M 86.4 32.1 C 86.4 31.3 86.4 30.2 85.4 30.2 C 84.4 30.2 84.4 31.4 84.4 32.1 C 84.4 32.1 86.4 32.1 86.4 32.1 Z M 84.4 33.3 C 84.4 34.3 84.4 35.7 85.4 35.7 C 86.2 35.7 86.3 35 86.3 34.3 C 86.3 34.3 88.6 34.3 88.6 34.3 C 88.5 35.2 88.3 35.9 87.7 36.4 C 87.2 36.8 86.4 37.1 85.4 37.1 C 82.5 37.1 82.1 35.4 82.1 32.9 C 82.1 30.7 82.5 28.9 85.4 28.9 C 88.4 28.9 88.7 30.8 88.6 33.3 C 88.6 33.3 84.4 33.3 84.4 33.3 Z M 95.7 29.8 C 95.7 29.8 95.76 29.83 95.8 29.8 C 96.2 29.1 96.8 28.9 97.6 28.9 C 98.4 28.9 99 29.2 99.4 29.9 C 99.9 29.2 100.6 28.9 101.5 28.9 C 102.5 28.9 103.5 29.5 103.5 30.6 C 103.46 30.6 103.5 37 103.5 37 L 101.2 37 C 101.2 37 101.24 31.49 101.2 31.5 C 101.2 30.8 101.1 30.2 100.4 30.2 C 99.7 30.2 99.6 30.8 99.6 31.5 C 99.57 31.49 99.6 37 99.6 37 L 97.4 37 C 97.4 37 97.4 31.49 97.4 31.5 C 97.4 30.8 97.3 30.2 96.6 30.2 C 95.9 30.2 95.7 30.8 95.7 31.5 C 95.73 31.49 95.7 37 95.7 37 L 93.5 37 L 93.5 29 L 95.7 29 L 95.7 29.8 Z M 109.1 32.8 C 109.1 31.1 109 30.3 108.1 30.3 C 107.2 30.3 107.1 31.1 107.1 32.8 C 107.1 35.2 107.3 35.7 108.1 35.7 C 108.9 35.7 109.1 35.2 109.1 32.8 Z M 104.9 32.9 C 104.9 30.7 105.2 28.9 108.1 28.9 C 111 28.9 111.3 30.7 111.3 32.9 C 111.3 35.4 111 37.1 108.1 37.1 C 105.2 37.1 104.9 35.4 104.9 32.9 Z M 115.1 29.8 C 115.1 29.8 115.16 29.83 115.2 29.8 C 115.4 29.5 115.7 29.2 115.9 29.1 C 116.3 28.9 116.6 28.9 117 28.9 C 118.1 28.9 119 29.5 119 30.6 C 119.02 30.6 119 37 119 37 L 116.8 37 C 116.8 37 116.8 31.49 116.8 31.5 C 116.8 30.8 116.7 30.2 116 30.2 C 115.3 30.2 115.1 30.8 115.1 31.5 C 115.13 31.49 115.1 37 115.1 37 L 112.9 37 L 112.9 29 L 115.1 29 L 115.1 29.8 Z M 119.9 29 L 120.8 29 L 120.8 27.8 L 123 26.8 L 123 29 L 124.1 29 L 124.1 30.4 L 123 30.4 C 123 30.4 123 34.64 123 34.6 C 123 35.2 123 35.6 123.7 35.6 C 123.8 35.6 124 35.6 124.1 35.6 C 124.1 35.6 124.1 37 124.1 37 C 123.8 37 123.5 37 123 37 C 121 37 120.8 35.8 120.8 35.3 C 120.78 35.29 120.8 30.4 120.8 30.4 L 119.9 30.4 L 119.9 29 Z M 129 37 C 129 37 129.04 31.49 129 31.5 C 129 30.8 128.9 30.2 128.2 30.2 C 127.5 30.2 127.4 30.8 127.4 31.5 C 127.37 31.49 127.4 37 127.4 37 L 125.2 37 L 125.2 25.6 L 127.4 25.6 L 127.4 29.8 C 127.4 29.8 127.4 29.83 127.4 29.8 C 127.6 29.5 127.9 29.2 128.2 29.1 C 128.5 28.9 128.9 28.9 129.3 28.9 C 130.3 28.9 131.3 29.5 131.3 30.6 C 131.26 30.6 131.3 37 131.3 37 L 129 37 Z M 135.4 25.6 L 135.4 37 L 133.2 37 L 133.2 25.6 L 135.4 25.6 Z M 138.8 37 L 136.7 29 L 138.9 29 L 140 34.6 L 140 34.6 L 141.2 29 L 143.4 29 L 140.3 40 L 138 40 L 138.8 37 Z M 150.4 25.1 C 150 27 149.4 29.4 149.4 31.9 C 149.4 34.7 150 36.9 150.4 38.9 C 150.4 38.9 149.2 38.9 149.2 38.9 C 148.4 36.7 147.5 34.2 147.5 31.9 C 147.5 29.5 148.6 26.7 149.2 25.1 C 149.2 25.1 150.4 25.1 150.4 25.1 Z M 154 34.4 C 154 34.8 154 35.1 154.1 35.4 C 154.2 35.6 154.5 35.8 154.9 35.8 C 155.3 35.8 155.7 35.5 155.7 34.9 C 155.7 33.3 151.8 33.6 151.8 31.1 C 151.8 29.4 153.5 28.9 155 28.9 C 156.5 28.9 157.8 29.6 157.7 31.3 C 157.7 31.3 155.5 31.3 155.5 31.3 C 155.5 30.8 155.5 30.4 155.3 30.3 C 155.2 30.1 155 30.1 154.8 30.1 C 154.3 30.1 154 30.4 154 31 C 154 32.2 157.9 32.2 157.9 34.7 C 157.9 36.1 156.8 37.1 154.9 37.1 C 153 37.1 151.7 36.6 151.8 34.4 C 151.8 34.4 154 34.4 154 34.4 Z M 161 34.9 L 161 37 L 159.2 37 L 159.2 34.9 L 161 34.9 Z M 166.8 31.9 C 166.8 30.7 166.5 30.3 165.8 30.3 C 164.8 30.3 164.8 31.1 164.8 32.8 C 164.8 35.2 165 35.7 165.8 35.7 C 166.5 35.7 166.8 35.1 166.8 34 C 166.8 34 169 34 169 34 C 169 36.2 167.9 37.1 165.8 37.1 C 162.9 37.1 162.5 35.4 162.5 32.9 C 162.5 30.7 162.9 28.9 165.8 28.9 C 167.8 28.9 169 29.8 169 31.9 C 169 31.9 166.8 31.9 166.8 31.9 Z M 172.4 34.9 L 172.4 37 L 170.5 37 L 170.5 34.9 L 172.4 34.9 Z M 174.2 38.9 C 174.6 37 175.2 34.6 175.2 32.1 C 175.2 29.3 174.5 27.1 174.2 25.1 C 174.2 25.1 175.4 25.1 175.4 25.1 C 176.1 27.3 177.1 29.8 177.1 32.1 C 177.1 34.5 176 37.3 175.4 38.9 C 175.4 38.9 174.2 38.9 174.2 38.9 Z M 180.2 31.4 L 178.8 30.6 L 180.2 28.8 L 178.1 29.1 L 178.1 27.6 L 180.2 27.8 L 179 26.1 L 180.3 25.4 L 181.1 27.4 L 181.9 25.4 L 183.2 26.1 L 181.9 27.8 L 184.1 27.6 L 184.1 29.1 L 181.9 28.8 L 183.3 30.6 L 182 31.4 L 181.1 29.3 L 180.2 31.4 Z " stroke="none" fill="#fff"/>  </g>  <g id="Polygon194672">    <path d="M 55.2 18.1 C 55.2 18.1 55.21 16.15 55.2 16.2 C 58.7 11.5 59.4 11 59.4 9.6 C 59.4 9.1 59.2 8.6 58.6 8.6 C 57.7 8.6 57.6 9.4 57.6 10.1 C 57.6 10.1 55.4 10.1 55.4 10.1 C 55.2 8.1 56.4 7 58.4 7 C 60.3 7 61.6 7.7 61.6 9.8 C 61.6 12.3 58.7 15.1 57.5 16.4 C 57.54 16.39 61.7 16.4 61.7 16.4 L 61.7 18.1 L 55.2 18.1 Z M 68.7 12.6 C 68.7 16 68.5 18.2 65.5 18.2 C 62.5 18.2 62.3 16 62.3 12.6 C 62.3 8.4 62.8 7 65.5 7 C 68.2 7 68.7 8.4 68.7 12.6 Z M 64.5 12.6 C 64.5 15.9 64.6 16.6 65.5 16.6 C 66.4 16.6 66.5 15.9 66.5 12.6 C 66.5 9.2 66.4 8.6 65.5 8.6 C 64.6 8.6 64.5 9.2 64.5 12.6 Z M 75.7 12.6 C 75.7 16 75.4 18.2 72.5 18.2 C 69.5 18.2 69.3 16 69.3 12.6 C 69.3 8.4 69.8 7 72.5 7 C 75.2 7 75.7 8.4 75.7 12.6 Z M 71.5 12.6 C 71.5 15.9 71.6 16.6 72.5 16.6 C 73.4 16.6 73.5 15.9 73.5 12.6 C 73.5 9.2 73.4 8.6 72.5 8.6 C 71.5 8.6 71.5 9.2 71.5 12.6 Z M 82.4 10.9 C 82.4 10.9 82.43 10.94 82.4 10.9 C 82.9 10.2 83.5 10 84.3 10 C 85.1 10 85.7 10.4 86.1 11 C 86.6 10.3 87.2 10 88.1 10 C 89.2 10 90.1 10.6 90.1 11.7 C 90.13 11.71 90.1 18.1 90.1 18.1 L 87.9 18.1 C 87.9 18.1 87.91 12.61 87.9 12.6 C 87.9 11.9 87.8 11.4 87.1 11.4 C 86.4 11.4 86.2 11.9 86.2 12.6 C 86.24 12.61 86.2 18.1 86.2 18.1 L 84.1 18.1 C 84.1 18.1 84.07 12.61 84.1 12.6 C 84.1 11.9 83.9 11.4 83.2 11.4 C 82.5 11.4 82.4 11.9 82.4 12.6 C 82.4 12.61 82.4 18.1 82.4 18.1 L 80.2 18.1 L 80.2 10.1 L 82.4 10.1 L 82.4 10.9 Z M 94.7 16.6 C 95.5 16.6 95.6 15.8 95.6 14.1 C 95.6 12.3 95.5 11.4 94.7 11.4 C 93.8 11.4 93.7 11.9 93.7 14.4 C 93.7 15.1 93.6 16.6 94.7 16.6 Z M 97.8 10.1 C 97.8 10.1 97.79 18.42 97.8 18.4 C 97.8 19 97.8 21.1 94.8 21.1 C 93.1 21.1 91.7 20.7 91.7 18.8 C 91.7 18.8 93.8 18.8 93.8 18.8 C 93.8 19.1 93.9 19.4 94 19.6 C 94.2 19.8 94.4 19.9 94.8 19.9 C 95.3 19.9 95.6 19.4 95.6 18.6 C 95.57 18.58 95.6 17 95.6 17 C 95.6 17 95.54 17.05 95.5 17 C 95.2 17.7 94.6 18 93.9 18 C 91.4 18 91.5 15.7 91.5 13.9 C 91.5 12.2 91.6 10 93.9 10 C 94.7 10 95.3 10.3 95.7 11.1 C 95.65 11.07 95.7 11.1 95.7 11.1 L 95.7 10.1 L 97.8 10.1 Z M 102.3 18.1 L 105.5 6.7 L 108.6 6.7 L 111.7 18.1 L 109.2 18.1 L 108.6 15.6 L 105.3 15.6 L 104.7 18.1 L 102.3 18.1 Z M 106.9 8.9 L 106.9 8.9 L 105.8 13.8 L 108.1 13.8 L 106.9 8.9 Z M 112.8 18.1 L 112.8 6.7 L 116 6.7 L 119.1 14.6 L 119.1 14.6 L 119.1 6.7 L 121.3 6.7 L 121.3 18.1 L 118.2 18.1 L 115.1 9.8 L 115 9.8 L 115 18.1 L 112.8 18.1 Z M 125.7 16.3 C 125.7 16.3 126.87 16.34 126.9 16.3 C 128.3 16.3 128.6 15.3 128.6 12.4 C 128.6 10.3 128.6 8.5 126.9 8.5 C 126.95 8.47 125.7 8.5 125.7 8.5 L 125.7 16.3 Z M 123.3 6.7 C 123.3 6.7 127.31 6.73 127.3 6.7 C 130.4 6.7 131 8.8 131 12.3 C 131 14.1 131.3 18.1 127.2 18.1 C 127.22 18.09 123.3 18.1 123.3 18.1 L 123.3 6.7 Z M 132.9 18.1 L 132.9 6.7 L 139.1 6.7 L 139.1 8.5 L 135.3 8.5 L 135.3 11.3 L 138.8 11.3 L 138.8 13 L 135.3 13 L 135.3 16.3 L 139.2 16.3 L 139.2 18.1 L 132.9 18.1 Z M 140.7 18.1 L 140.7 6.7 L 144.6 6.7 L 146.3 14.5 L 146.4 14.5 L 148.3 6.7 L 151.9 6.7 L 151.9 18.1 L 149.6 18.1 L 149.6 9.3 L 149.6 9.3 L 147.4 18.1 L 145.2 18.1 L 143.1 9.3 L 143 9.3 L 143 18.1 L 140.7 18.1 Z M 156.3 16.3 C 156.3 16.3 157.62 16.34 157.6 16.3 C 158.1 16.3 159.3 16.3 159.3 14.7 C 159.3 13.7 158.9 13.1 157.7 13.1 C 157.68 13.11 156.3 13.1 156.3 13.1 L 156.3 16.3 Z M 156.3 11.4 C 156.3 11.4 157.88 11.37 157.9 11.4 C 158.4 11.4 159.1 11 159.1 9.9 C 159.1 9.1 158.6 8.5 157.8 8.5 C 157.76 8.47 156.3 8.5 156.3 8.5 L 156.3 11.4 Z M 153.9 18.1 L 153.9 6.7 C 153.9 6.7 158.13 6.73 158.1 6.7 C 159.9 6.7 161.4 7.2 161.4 9.7 C 161.4 11 160.8 11.9 159.5 12.2 C 159.5 12.2 159.5 12.2 159.5 12.2 C 161.2 12.4 161.6 13.5 161.6 15.1 C 161.6 18 159.1 18.1 158.1 18.1 C 158.12 18.09 153.9 18.1 153.9 18.1 Z M 165.8 11.6 C 165.8 11.6 166.88 11.64 166.9 11.6 C 167.8 11.6 168.1 10.7 168.1 10 C 168.1 8.9 167.6 8.5 166.9 8.5 C 166.88 8.47 165.8 8.5 165.8 8.5 L 165.8 11.6 Z M 165.8 18.1 L 163.5 18.1 L 163.5 6.7 C 163.5 6.7 167.84 6.73 167.8 6.7 C 169.5 6.7 170.5 7.8 170.5 9.7 C 170.5 11.1 169.9 12.2 168.4 12.5 C 168.4 12.5 168.4 12.5 168.4 12.5 C 168.9 12.6 170.5 12.7 170.5 14.8 C 170.5 15.5 170.5 17.6 170.7 18.1 C 170.7 18.1 168.4 18.1 168.4 18.1 C 168.1 17.4 168.1 16.6 168.1 15.9 C 168.1 14.5 168.3 13.4 166.4 13.4 C 166.44 13.38 165.8 13.4 165.8 13.4 L 165.8 18.1 Z M 174.1 14.2 L 171.1 6.7 L 173.7 6.7 L 175.4 11.5 L 177.2 6.7 L 179.7 6.7 L 176.5 14.2 L 176.5 18.1 L 174.1 18.1 L 174.1 14.2 Z M 187 9.5 C 187 11.4 185.5 13 183.6 13 C 181.7 13 180.2 11.4 180.2 9.5 C 180.2 7.6 181.7 6.1 183.6 6.1 C 185.5 6.1 187 7.6 187 9.5 Z M 186.3 9.5 C 186.3 8 185.1 6.8 183.6 6.8 C 182 6.8 180.8 8 180.8 9.5 C 180.8 11.1 182 12.3 183.6 12.3 C 185.1 12.3 186.3 11.1 186.3 9.5 Z M 183.2 11.5 L 182.3 11.5 L 182.3 7.5 C 182.3 7.5 183.92 7.53 183.9 7.5 C 184.5 7.5 184.9 7.9 184.9 8.6 C 184.9 9.1 184.7 9.5 184.1 9.5 C 184.1 9.5 184.1 9.6 184.1 9.6 C 184.3 9.6 184.9 9.6 184.9 10.3 C 184.9 10.6 184.9 11.3 185 11.5 C 185 11.5 184.1 11.5 184.1 11.5 C 184 11.3 184 11 184 10.7 C 184 10.3 184.1 9.9 183.4 9.9 C 183.38 9.86 183.2 9.9 183.2 9.9 L 183.2 11.5 Z M 183.2 9.3 C 183.2 9.3 183.56 9.3 183.6 9.3 C 183.9 9.3 184 9 184 8.7 C 184 8.3 183.8 8.2 183.6 8.2 C 183.56 8.19 183.2 8.2 183.2 8.2 L 183.2 9.3 Z " stroke="none" fill="#fff"/>  </g></svg>