<?xml version="1.0" standalone="no"?><!DOCTYPE svg PUBLIC "-//W3C//DTD SVG 1.1//EN" "http://www.w3.org/Graphics/SVG/1.1/DTD/svg11.dtd"><svg xmlns="http://www.w3.org/2000/svg" version="1.1" width="334.5px" height="75px" viewBox="0 -1 334.5 75" style="top:-1px">  <desc>Abbreviations: HAE, hereditary angioedema. † Patients received a 400 mg loading dose of subcutaneous garadacimab as t...</desc>  <defs/>  <g id="Polygon196188">    <path d="M 8.2 61.9 L 8.2 60.8 L 9.1 60.4 L 9.1 61.9 L 10.3 61.9 L 10.3 62.6 L 9.1 62.6 C 9.1 62.6 9.12 65.99 9.1 66 C 9.1 66.3 9.1 66.8 9.9 66.8 C 10 66.8 10.2 66.8 10.3 66.7 C 10.3 66.7 10.3 67.4 10.3 67.4 C 10.1 67.5 9.8 67.5 9.5 67.5 C 8.6 67.5 8.2 67.2 8.2 66.5 C 8.22 66.54 8.2 62.6 8.2 62.6 L 7.3 62.6 L 7.3 61.9 L 8.2 61.9 Z M 12.1 62.7 C 12.1 62.7 12.13 62.74 12.1 62.7 C 12.5 61.9 13 61.8 13.8 61.8 C 13.8 61.8 13.8 62.7 13.8 62.7 C 13.8 62.7 13.7 62.7 13.6 62.7 C 13.5 62.7 13.5 62.7 13.4 62.7 C 12.4 62.7 12.1 63.4 12.1 64.2 C 12.11 64.18 12.1 67.5 12.1 67.5 L 11.2 67.5 L 11.2 61.9 L 12.1 61.9 L 12.1 62.7 Z M 17.9 64.3 C 17.9 62.7 17.4 62.5 16.8 62.5 C 16.2 62.5 15.7 62.8 15.7 64.3 C 15.7 64.3 17.9 64.3 17.9 64.3 Z M 15.7 65 C 15.7 66.5 16.1 66.8 16.8 66.8 C 17.5 66.8 17.8 66.3 17.8 65.8 C 17.8 65.8 18.8 65.8 18.8 65.8 C 18.8 67 18 67.6 16.9 67.6 C 15.7 67.6 14.8 67.2 14.8 64.8 C 14.8 63.1 14.9 61.8 16.9 61.8 C 18.4 61.8 18.8 62.7 18.8 64.5 C 18.84 64.5 18.8 65 18.8 65 C 18.8 65 15.72 64.97 15.7 65 Z M 21.2 65.8 C 21.2 66.4 21.4 66.8 22 66.8 C 22.6 66.8 23.3 66.5 23.2 64.7 C 22.3 64.7 21.2 64.6 21.2 65.8 Z M 23.2 66.7 C 23.2 66.7 23.18 66.66 23.2 66.7 C 22.9 67.3 22.5 67.6 21.8 67.6 C 20.6 67.6 20.3 66.8 20.3 65.7 C 20.3 64.1 21.9 64 23.2 64 C 23.2 63.3 23.2 62.5 22.2 62.5 C 21.6 62.5 21.3 62.9 21.4 63.5 C 21.4 63.5 20.4 63.5 20.4 63.5 C 20.4 62.2 21.1 61.8 22.3 61.8 C 23.7 61.8 24.1 62.5 24.1 63.5 C 24.1 63.5 24.1 66.1 24.1 66.1 C 24.1 66.6 24.1 67 24.2 67.5 C 24.19 67.46 23.2 67.5 23.2 67.5 L 23.2 66.7 Z M 25.9 61.9 L 25.9 60.8 L 26.8 60.4 L 26.8 61.9 L 28 61.9 L 28 62.6 L 26.8 62.6 C 26.8 62.6 26.84 65.99 26.8 66 C 26.8 66.3 26.8 66.8 27.7 66.8 C 27.7 66.8 27.9 66.8 28.1 66.7 C 28.1 66.7 28.1 67.4 28.1 67.4 C 27.8 67.5 27.5 67.5 27.2 67.5 C 26.3 67.5 25.9 67.2 25.9 66.5 C 25.94 66.54 25.9 62.6 25.9 62.6 L 25 62.6 L 25 61.9 L 25.9 61.9 Z M 31.6 67.5 C 31.6 67.5 31.63 63.61 31.6 63.6 C 31.6 63 31.5 62.5 30.7 62.5 C 30.5 62.5 30.1 62.7 30 62.9 C 29.8 63.2 29.8 63.5 29.8 63.7 C 29.75 63.72 29.8 67.5 29.8 67.5 L 28.9 67.5 C 28.9 67.5 28.85 63.06 28.9 63.1 C 28.9 62.7 28.8 62.3 28.8 61.9 C 28.8 61.91 29.8 61.9 29.8 61.9 L 29.8 62.6 C 29.8 62.6 29.78 62.6 29.8 62.6 C 30 62 30.5 61.8 31.2 61.8 C 31.7 61.8 32.3 62 32.5 62.5 C 32.8 61.9 33.3 61.8 33.8 61.8 C 34.4 61.8 35.3 61.9 35.3 63.2 C 35.3 63.24 35.3 67.5 35.3 67.5 L 34.4 67.5 C 34.4 67.5 34.4 63.61 34.4 63.6 C 34.4 63 34.2 62.5 33.5 62.5 C 33.2 62.5 33.1 62.5 32.8 62.7 C 32.6 63 32.5 63.5 32.5 63.7 C 32.53 63.72 32.5 67.5 32.5 67.5 L 31.6 67.5 Z M 39.9 64.3 C 39.9 62.7 39.4 62.5 38.8 62.5 C 38.2 62.5 37.7 62.8 37.7 64.3 C 37.7 64.3 39.9 64.3 39.9 64.3 Z M 37.7 65 C 37.7 66.5 38.1 66.8 38.8 66.8 C 39.5 66.8 39.8 66.3 39.8 65.8 C 39.8 65.8 40.8 65.8 40.8 65.8 C 40.8 67 40 67.6 38.9 67.6 C 37.7 67.6 36.8 67.2 36.8 64.8 C 36.8 63.1 36.9 61.8 38.9 61.8 C 40.4 61.8 40.8 62.7 40.8 64.5 C 40.84 64.5 40.8 65 40.8 65 C 40.8 65 37.72 64.97 37.7 65 Z M 45.4 67.5 C 45.4 67.5 45.35 63.61 45.4 63.6 C 45.4 63 45.1 62.5 44.4 62.5 C 43.4 62.5 43.2 63.4 43.2 64.2 C 43.24 64.17 43.2 67.5 43.2 67.5 L 42.3 67.5 C 42.3 67.5 42.34 63.06 42.3 63.1 C 42.3 62.7 42.3 62.3 42.3 61.9 C 42.28 61.91 43.2 61.9 43.2 61.9 L 43.2 62.6 C 43.2 62.6 43.28 62.62 43.3 62.6 C 43.6 62 44.1 61.8 44.8 61.8 C 46 61.8 46.3 62.5 46.3 63.6 C 46.25 63.61 46.3 67.5 46.3 67.5 L 45.4 67.5 Z M 47.9 61.9 L 47.9 60.8 L 48.8 60.4 L 48.8 61.9 L 50 61.9 L 50 62.6 L 48.8 62.6 C 48.8 62.6 48.84 65.99 48.8 66 C 48.8 66.3 48.8 66.8 49.7 66.8 C 49.7 66.8 49.9 66.8 50.1 66.7 C 50.1 66.7 50.1 67.4 50.1 67.4 C 49.8 67.5 49.5 67.5 49.2 67.5 C 48.3 67.5 47.9 67.2 47.9 66.5 C 47.94 66.54 47.9 62.6 47.9 62.6 L 47 62.6 L 47 61.9 L 47.9 61.9 Z M 56.5 64.6 C 56.5 63.8 56.5 62.5 55.3 62.5 C 54.2 62.5 54.3 64.1 54.3 64.9 C 54.3 65.7 54.4 66.8 55.4 66.8 C 56.3 66.8 56.5 66.1 56.5 64.6 Z M 54.3 62.6 C 54.3 62.6 54.34 62.57 54.3 62.6 C 54.6 62 55 61.8 55.6 61.8 C 56.5 61.8 57.4 62.1 57.4 64.6 C 57.4 66 57.4 67.6 55.6 67.6 C 55 67.6 54.7 67.3 54.3 66.9 C 54.35 66.9 54.3 66.9 54.3 66.9 L 54.3 69.6 L 53.4 69.6 L 53.4 61.9 L 54.3 61.9 L 54.3 62.6 Z M 61.9 64.3 C 61.9 62.7 61.4 62.5 60.8 62.5 C 60.2 62.5 59.7 62.8 59.7 64.3 C 59.7 64.3 61.9 64.3 61.9 64.3 Z M 59.7 65 C 59.7 66.5 60.1 66.8 60.8 66.8 C 61.5 66.8 61.8 66.3 61.8 65.8 C 61.8 65.8 62.8 65.8 62.8 65.8 C 62.8 67 62 67.6 60.9 67.6 C 59.7 67.6 58.8 67.2 58.8 64.8 C 58.8 63.1 58.9 61.8 60.9 61.8 C 62.4 61.8 62.8 62.7 62.8 64.5 C 62.84 64.5 62.8 65 62.8 65 C 62.8 65 59.72 64.97 59.7 65 Z M 65.3 62.7 C 65.3 62.7 65.29 62.74 65.3 62.7 C 65.7 61.9 66.1 61.8 67 61.8 C 67 61.8 67 62.7 67 62.7 C 66.9 62.7 66.8 62.7 66.8 62.7 C 66.7 62.7 66.6 62.7 66.5 62.7 C 65.5 62.7 65.3 63.4 65.3 64.2 C 65.27 64.18 65.3 67.5 65.3 67.5 L 64.4 67.5 L 64.4 61.9 L 65.3 61.9 L 65.3 62.7 Z M 68.9 67.5 L 68 67.5 L 68 61.9 L 68.9 61.9 L 68.9 67.5 Z M 67.9 59.5 L 68.9 59.5 L 68.9 60.5 L 67.9 60.5 L 67.9 59.5 Z M 73.6 64.4 C 73.6 62.9 73.1 62.5 72.4 62.5 C 71.7 62.5 71.2 62.9 71.2 64.4 C 71.2 66.2 71.5 66.8 72.4 66.8 C 73.3 66.8 73.6 66.2 73.6 64.4 Z M 70.3 64.8 C 70.3 63.1 70.5 61.8 72.4 61.8 C 74.3 61.8 74.5 63.1 74.5 64.8 C 74.5 67.2 73.6 67.6 72.4 67.6 C 71.2 67.6 70.3 67.2 70.3 64.8 Z M 77.8 62.5 C 76.9 62.5 76.7 63.3 76.7 64.8 C 76.7 65.6 76.7 66.8 77.9 66.8 C 78.9 66.8 78.9 65.6 78.9 64.5 C 78.9 63.7 78.8 62.5 77.8 62.5 Z M 78.9 59.5 L 79.8 59.5 L 79.8 67.5 L 78.9 67.5 L 78.9 66.8 C 78.9 66.8 78.86 66.8 78.9 66.8 C 78.6 67.3 78.2 67.6 77.6 67.6 C 76.7 67.6 75.8 67.2 75.8 64.8 C 75.8 63.4 75.8 61.8 77.6 61.8 C 78.2 61.8 78.5 62 78.8 62.5 C 78.85 62.47 78.9 62.5 78.9 62.5 L 78.9 59.5 Z M 82.4 67.5 L 81.4 67.5 L 81.4 66.3 L 82.4 66.3 L 82.4 67.5 Z " stroke="none" fill="#828281"/>  </g>  <g id="Polygon196187">    <path d="M 8.9 52.6 C 8.9 53.2 9.2 53.6 9.8 53.6 C 10.4 53.6 11 53.3 11 51.5 C 10.1 51.5 8.9 51.4 8.9 52.6 Z M 11 53.5 C 11 53.5 10.96 53.46 11 53.5 C 10.7 54.1 10.3 54.4 9.6 54.4 C 8.4 54.4 8 53.6 8 52.5 C 8 50.9 9.7 50.8 11 50.8 C 11 50.1 11 49.3 10 49.3 C 9.4 49.3 9.1 49.7 9.2 50.3 C 9.2 50.3 8.2 50.3 8.2 50.3 C 8.2 49 8.9 48.6 10.1 48.6 C 11.5 48.6 11.9 49.3 11.9 50.3 C 11.9 50.3 11.9 52.9 11.9 52.9 C 11.9 53.4 11.9 53.8 12 54.3 C 11.97 54.26 11 54.3 11 54.3 L 11 53.5 Z M 15.3 54.4 C 14.1 54.4 13.3 53.8 13.3 52.6 C 13.3 52.6 14.4 52.6 14.4 52.6 C 14.4 52.9 14.4 53.6 15.3 53.6 C 15.8 53.6 16.2 53.4 16.2 52.8 C 16.2 51.8 13.5 51.8 13.5 50.1 C 13.5 49.5 13.8 48.6 15.4 48.6 C 16.4 48.6 17.2 49.1 17.1 50.2 C 17.1 50.2 16.1 50.2 16.1 50.2 C 16.2 49.6 15.9 49.3 15.3 49.3 C 14.8 49.3 14.4 49.5 14.4 50 C 14.4 51 17.2 51 17.2 52.7 C 17.2 53.9 16.4 54.4 15.3 54.4 Z M 21 48.7 L 21 47.6 L 21.9 47.2 L 21.9 48.7 L 23.2 48.7 L 23.2 49.4 L 21.9 49.4 C 21.9 49.4 21.94 52.79 21.9 52.8 C 21.9 53.1 21.9 53.6 22.8 53.6 C 22.8 53.6 23 53.6 23.2 53.5 C 23.2 53.5 23.2 54.2 23.2 54.2 C 22.9 54.3 22.6 54.3 22.3 54.3 C 21.4 54.3 21 54 21 53.3 C 21.04 53.34 21 49.4 21 49.4 L 20.1 49.4 L 20.1 48.7 L 21 48.7 Z M 23.3 48.7 L 24.3 48.7 L 25.3 53.5 L 25.3 53.5 L 26.6 48.7 L 27.8 48.7 L 29 53.5 L 29 53.5 L 30.1 48.7 L 31.1 48.7 L 29.6 54.3 L 28.4 54.3 L 27.2 49.5 L 27.1 49.5 L 25.9 54.3 L 24.7 54.3 L 23.3 48.7 Z M 35.1 51.2 C 35.1 49.7 34.6 49.3 33.9 49.3 C 33.2 49.3 32.7 49.7 32.7 51.2 C 32.7 53 33 53.6 33.9 53.6 C 34.8 53.6 35.1 53 35.1 51.2 Z M 31.8 51.6 C 31.8 49.9 32 48.6 33.9 48.6 C 35.8 48.6 36 49.9 36 51.6 C 36 54 35.1 54.4 33.9 54.4 C 32.7 54.4 31.8 54 31.8 51.6 Z M 39.6 54.3 C 39.6 54.3 39.57 53.38 39.6 53.4 C 41.8 50.3 42.5 49.7 42.5 48.4 C 42.5 47.8 42.2 47.4 41.5 47.4 C 40.8 47.4 40.6 48 40.6 48.6 C 40.6 48.6 39.6 48.6 39.6 48.6 C 39.5 47.3 40.1 46.5 41.4 46.5 C 42.8 46.5 43.5 47.1 43.5 48.5 C 43.5 50.2 42.6 50.8 40.6 53.4 C 40.64 53.38 43.7 53.4 43.7 53.4 L 43.7 54.3 L 39.6 54.3 Z M 48.5 50.5 C 48.5 52.5 48.5 54.4 46.4 54.4 C 44.4 54.4 44.4 52.5 44.4 50.5 C 44.4 48.4 44.3 46.5 46.4 46.5 C 48.5 46.5 48.5 48.4 48.5 50.5 Z M 45.4 50.7 C 45.4 52 45.3 53.6 46.4 53.6 C 47.5 53.6 47.5 52 47.5 50.7 C 47.5 48.6 47.5 47.4 46.4 47.4 C 45.4 47.4 45.4 48.6 45.4 50.7 Z M 53.4 50.5 C 53.4 52.5 53.4 54.4 51.3 54.4 C 49.2 54.4 49.2 52.5 49.2 50.5 C 49.2 48.4 49.2 46.5 51.3 46.5 C 53.4 46.5 53.4 48.4 53.4 50.5 Z M 50.3 50.7 C 50.3 52 50.2 53.6 51.3 53.6 C 52.4 53.6 52.3 52 52.3 50.7 C 52.3 48.6 52.3 47.4 51.3 47.4 C 50.3 47.4 50.3 48.6 50.3 50.7 Z M 54.4 50.8 L 56.8 50.8 L 56.8 51.7 L 54.4 51.7 L 54.4 50.8 Z M 60.9 54.3 C 60.9 54.3 60.93 50.41 60.9 50.4 C 60.9 49.8 60.8 49.3 60 49.3 C 59.8 49.3 59.4 49.5 59.3 49.7 C 59.1 50 59.1 50.3 59.1 50.5 C 59.06 50.52 59.1 54.3 59.1 54.3 L 58.2 54.3 C 58.2 54.3 58.16 49.86 58.2 49.9 C 58.2 49.5 58.1 49.1 58.1 48.7 C 58.1 48.71 59.1 48.7 59.1 48.7 L 59.1 49.4 C 59.1 49.4 59.08 49.4 59.1 49.4 C 59.3 48.8 59.8 48.6 60.5 48.6 C 61 48.6 61.6 48.8 61.8 49.3 C 62.1 48.7 62.6 48.6 63.1 48.6 C 63.7 48.6 64.6 48.7 64.6 50 C 64.6 50.04 64.6 54.3 64.6 54.3 L 63.7 54.3 C 63.7 54.3 63.7 50.41 63.7 50.4 C 63.7 49.8 63.5 49.3 62.8 49.3 C 62.5 49.3 62.4 49.3 62.1 49.5 C 61.9 49.8 61.8 50.3 61.8 50.5 C 61.83 50.52 61.8 54.3 61.8 54.3 L 60.9 54.3 Z M 68 49.3 C 67 49.3 67 50.6 67 51.3 C 67 53.1 67.4 53.5 68 53.5 C 69.1 53.5 69.1 52.2 69.1 51.5 C 69.1 50.6 69.2 49.3 68 49.3 Z M 69.1 48.7 L 70 48.7 C 70 48.7 69.98 54.82 70 54.8 C 70 56.1 69.2 56.4 67.9 56.4 C 67 56.4 66.2 55.9 66.3 54.9 C 66.3 54.9 67.3 54.9 67.3 54.9 C 67.3 55.4 67.6 55.7 68.1 55.7 C 68.7 55.7 69.1 55.3 69.1 54.7 C 69.08 54.72 69.1 53.6 69.1 53.6 C 69.1 53.6 69.05 53.57 69 53.6 C 68.8 54 68.3 54.3 67.8 54.3 C 66.3 54.3 66 53 66 51.3 C 66 48.8 67.3 48.6 67.8 48.6 C 68.3 48.6 68.8 48.8 69.1 49.4 C 69.06 49.39 69.1 49.4 69.1 49.4 L 69.1 48.7 Z M 75 54.3 L 74.1 54.3 L 74.1 48.7 L 75 48.7 L 75 54.3 Z M 74 46.3 L 75 46.3 L 75 47.3 L 74 47.3 L 74 46.3 Z M 79.5 54.3 C 79.5 54.3 79.54 50.41 79.5 50.4 C 79.5 49.8 79.3 49.3 78.6 49.3 C 77.6 49.3 77.4 50.2 77.4 51 C 77.43 50.97 77.4 54.3 77.4 54.3 L 76.5 54.3 C 76.5 54.3 76.53 49.86 76.5 49.9 C 76.5 49.5 76.5 49.1 76.5 48.7 C 76.47 48.71 77.4 48.7 77.4 48.7 L 77.4 49.4 C 77.4 49.4 77.47 49.42 77.5 49.4 C 77.8 48.8 78.2 48.6 79 48.6 C 80.1 48.6 80.4 49.3 80.4 50.4 C 80.44 50.41 80.4 54.3 80.4 54.3 L 79.5 54.3 Z M 82 48.7 L 82.9 48.7 C 82.9 48.7 82.9 55.03 82.9 55 C 82.9 55.9 82.7 56.4 81.3 56.4 C 81.3 56.4 81.3 55.6 81.3 55.6 C 81.7 55.6 82 55.5 82 55.1 C 82 55.08 82 48.7 82 48.7 Z M 81.9 46.3 L 83 46.3 L 83 47.3 L 81.9 47.3 L 81.9 46.3 Z M 87.5 51.1 C 87.5 49.5 87.1 49.3 86.4 49.3 C 85.8 49.3 85.4 49.6 85.3 51.1 C 85.3 51.1 87.5 51.1 87.5 51.1 Z M 85.3 51.8 C 85.3 53.3 85.8 53.6 86.5 53.6 C 87.1 53.6 87.4 53.1 87.4 52.6 C 87.4 52.6 88.4 52.6 88.4 52.6 C 88.4 53.8 87.7 54.4 86.5 54.4 C 85.3 54.4 84.4 54 84.4 51.6 C 84.4 49.9 84.6 48.6 86.5 48.6 C 88.1 48.6 88.5 49.5 88.5 51.3 C 88.47 51.3 88.5 51.8 88.5 51.8 C 88.5 51.8 85.35 51.77 85.3 51.8 Z M 92.9 50.5 C 92.9 49.6 92.4 49.3 92.1 49.3 C 91.4 49.3 90.9 49.7 90.9 51.2 C 90.9 53 91.2 53.6 92.1 53.6 C 92.3 53.6 92.9 53.4 92.9 52.4 C 92.9 52.4 93.8 52.4 93.8 52.4 C 93.9 54 92.7 54.4 92.1 54.4 C 90.9 54.4 90 54 90 51.6 C 90 49.9 90.2 48.6 92.1 48.6 C 93.2 48.6 93.9 49.2 93.8 50.5 C 93.8 50.5 92.9 50.5 92.9 50.5 Z M 95.6 48.7 L 95.6 47.6 L 96.5 47.2 L 96.5 48.7 L 97.7 48.7 L 97.7 49.4 L 96.5 49.4 C 96.5 49.4 96.47 52.79 96.5 52.8 C 96.5 53.1 96.5 53.6 97.3 53.6 C 97.4 53.6 97.5 53.6 97.7 53.5 C 97.7 53.5 97.7 54.2 97.7 54.2 C 97.4 54.3 97.1 54.3 96.8 54.3 C 96 54.3 95.6 54 95.6 53.3 C 95.57 53.34 95.6 49.4 95.6 49.4 L 94.7 49.4 L 94.7 48.7 L 95.6 48.7 Z M 99.4 54.3 L 98.5 54.3 L 98.5 48.7 L 99.4 48.7 L 99.4 54.3 Z M 98.4 46.3 L 99.5 46.3 L 99.5 47.3 L 98.4 47.3 L 98.4 46.3 Z M 104.1 51.2 C 104.1 49.7 103.6 49.3 102.9 49.3 C 102.2 49.3 101.8 49.7 101.8 51.2 C 101.8 53 102 53.6 102.9 53.6 C 103.9 53.6 104.1 53 104.1 51.2 Z M 100.8 51.6 C 100.8 49.9 101 48.6 102.9 48.6 C 104.8 48.6 105 49.9 105 51.6 C 105 54 104.1 54.4 102.9 54.4 C 101.7 54.4 100.8 54 100.8 51.6 Z M 109.5 54.3 C 109.5 54.3 109.48 50.41 109.5 50.4 C 109.5 49.8 109.3 49.3 108.5 49.3 C 107.5 49.3 107.4 50.2 107.4 51 C 107.37 50.97 107.4 54.3 107.4 54.3 L 106.5 54.3 C 106.5 54.3 106.47 49.86 106.5 49.9 C 106.5 49.5 106.4 49.1 106.4 48.7 C 106.41 48.71 107.4 48.7 107.4 48.7 L 107.4 49.4 C 107.4 49.4 107.41 49.42 107.4 49.4 C 107.8 48.8 108.2 48.6 108.9 48.6 C 110.1 48.6 110.4 49.3 110.4 50.4 C 110.38 50.41 110.4 54.3 110.4 54.3 L 109.5 54.3 Z M 113.6 54.4 C 112.4 54.4 111.7 53.8 111.7 52.6 C 111.7 52.6 112.7 52.6 112.7 52.6 C 112.7 52.9 112.7 53.6 113.6 53.6 C 114.2 53.6 114.6 53.4 114.6 52.8 C 114.6 51.8 111.8 51.8 111.8 50.1 C 111.8 49.5 112.2 48.6 113.7 48.6 C 114.7 48.6 115.6 49.1 115.5 50.2 C 115.5 50.2 114.5 50.2 114.5 50.2 C 114.5 49.6 114.2 49.3 113.6 49.3 C 113.1 49.3 112.8 49.5 112.8 50 C 112.8 51 115.5 51 115.5 52.7 C 115.5 53.9 114.7 54.4 113.6 54.4 Z M 122.4 51.2 C 122.4 49.7 121.9 49.3 121.3 49.3 C 120.6 49.3 120.1 49.7 120.1 51.2 C 120.1 53 120.3 53.6 121.3 53.6 C 122.2 53.6 122.4 53 122.4 51.2 Z M 119.1 51.6 C 119.1 49.9 119.3 48.6 121.3 48.6 C 123.2 48.6 123.4 49.9 123.4 51.6 C 123.4 54 122.4 54.4 121.3 54.4 C 120.1 54.4 119.1 54 119.1 51.6 Z M 125.7 49.5 C 125.7 49.5 125.75 49.54 125.7 49.5 C 126.1 48.7 126.6 48.6 127.5 48.6 C 127.5 48.6 127.5 49.5 127.5 49.5 C 127.4 49.5 127.3 49.5 127.2 49.5 C 127.1 49.5 127.1 49.5 127 49.5 C 126 49.5 125.7 50.2 125.7 51 C 125.73 50.98 125.7 54.3 125.7 54.3 L 124.8 54.3 L 124.8 48.7 L 125.7 48.7 L 125.7 49.5 Z M 130.3 48.7 L 131.3 48.7 L 132.5 53.4 L 132.5 53.4 L 133.9 48.7 L 134.8 48.7 L 133.1 54.3 L 131.9 54.3 L 130.3 48.7 Z M 138.9 51.2 C 138.9 49.7 138.4 49.3 137.7 49.3 C 137 49.3 136.6 49.7 136.6 51.2 C 136.6 53 136.8 53.6 137.7 53.6 C 138.7 53.6 138.9 53 138.9 51.2 Z M 135.6 51.6 C 135.6 49.9 135.8 48.6 137.7 48.6 C 139.7 48.6 139.9 49.9 139.9 51.6 C 139.9 54 138.9 54.4 137.7 54.4 C 136.6 54.4 135.6 54 135.6 51.6 Z M 142.2 54.3 L 141.3 54.3 L 141.3 46.3 L 142.2 46.3 L 142.2 54.3 Z M 146.7 48.7 L 147.6 48.7 C 147.6 48.7 147.59 53.11 147.6 53.1 C 147.6 53.5 147.6 53.9 147.6 54.3 C 147.65 54.26 146.7 54.3 146.7 54.3 L 146.7 53.6 C 146.7 53.6 146.66 53.59 146.7 53.6 C 146.4 54.1 145.8 54.4 145.3 54.4 C 144.3 54.4 143.8 53.9 143.8 52.9 C 143.76 52.94 143.8 48.7 143.8 48.7 L 144.7 48.7 C 144.7 48.7 144.66 52.56 144.7 52.6 C 144.7 53.2 145 53.7 145.6 53.7 C 146.1 53.7 146.7 53.3 146.7 52.4 C 146.69 52.39 146.7 48.7 146.7 48.7 Z M 152 54.3 C 152 54.3 151.95 50.41 152 50.4 C 152 49.8 151.8 49.3 151.1 49.3 C 150.8 49.3 150.4 49.5 150.3 49.7 C 150.1 50 150.1 50.3 150.1 50.5 C 150.08 50.52 150.1 54.3 150.1 54.3 L 149.2 54.3 C 149.2 54.3 149.18 49.86 149.2 49.9 C 149.2 49.5 149.2 49.1 149.1 48.7 C 149.12 48.71 150.1 48.7 150.1 48.7 L 150.1 49.4 C 150.1 49.4 150.1 49.4 150.1 49.4 C 150.4 48.8 150.8 48.6 151.5 48.6 C 152 48.6 152.6 48.8 152.8 49.3 C 153.1 48.7 153.6 48.6 154.1 48.6 C 154.7 48.6 155.6 48.7 155.6 50 C 155.62 50.04 155.6 54.3 155.6 54.3 L 154.7 54.3 C 154.7 54.3 154.72 50.41 154.7 50.4 C 154.7 49.8 154.6 49.3 153.8 49.3 C 153.5 49.3 153.4 49.3 153.2 49.5 C 152.9 49.8 152.9 50.3 152.9 50.5 C 152.85 50.52 152.9 54.3 152.9 54.3 L 152 54.3 Z M 160.2 51.1 C 160.2 49.5 159.8 49.3 159.1 49.3 C 158.5 49.3 158.1 49.6 158 51.1 C 158 51.1 160.2 51.1 160.2 51.1 Z M 158 51.8 C 158 53.3 158.5 53.6 159.2 53.6 C 159.8 53.6 160.1 53.1 160.1 52.6 C 160.1 52.6 161.1 52.6 161.1 52.6 C 161.1 53.8 160.4 54.4 159.2 54.4 C 158 54.4 157.1 54 157.1 51.6 C 157.1 49.9 157.3 48.6 159.2 48.6 C 160.8 48.6 161.2 49.5 161.2 51.3 C 161.17 51.3 161.2 51.8 161.2 51.8 C 161.2 51.8 158.04 51.77 158 51.8 Z M 162.5 50.8 L 164.9 50.8 L 164.9 51.7 L 162.5 51.7 L 162.5 50.8 Z M 169.1 54.3 C 169.1 54.3 169.06 50.41 169.1 50.4 C 169.1 49.8 168.9 49.3 168.2 49.3 C 167.9 49.3 167.5 49.5 167.4 49.7 C 167.2 50 167.2 50.3 167.2 50.5 C 167.18 50.52 167.2 54.3 167.2 54.3 L 166.3 54.3 C 166.3 54.3 166.28 49.86 166.3 49.9 C 166.3 49.5 166.3 49.1 166.2 48.7 C 166.23 48.71 167.2 48.7 167.2 48.7 L 167.2 49.4 C 167.2 49.4 167.21 49.4 167.2 49.4 C 167.5 48.8 167.9 48.6 168.6 48.6 C 169.1 48.6 169.7 48.8 169.9 49.3 C 170.2 48.7 170.7 48.6 171.2 48.6 C 171.8 48.6 172.7 48.7 172.7 50 C 172.73 50.04 172.7 54.3 172.7 54.3 L 171.8 54.3 C 171.8 54.3 171.83 50.41 171.8 50.4 C 171.8 49.8 171.7 49.3 170.9 49.3 C 170.6 49.3 170.5 49.3 170.3 49.5 C 170 49.8 170 50.3 170 50.5 C 169.96 50.52 170 54.3 170 54.3 L 169.1 54.3 Z M 175.1 52.6 C 175.1 53.2 175.4 53.6 176 53.6 C 176.5 53.6 177.2 53.3 177.1 51.5 C 176.2 51.5 175.1 51.4 175.1 52.6 Z M 177.1 53.5 C 177.1 53.5 177.11 53.46 177.1 53.5 C 176.8 54.1 176.4 54.4 175.7 54.4 C 174.5 54.4 174.2 53.6 174.2 52.5 C 174.2 50.9 175.8 50.8 177.1 50.8 C 177.1 50.1 177.1 49.3 176.2 49.3 C 175.6 49.3 175.2 49.7 175.3 50.3 C 175.3 50.3 174.3 50.3 174.3 50.3 C 174.4 49 175 48.6 176.2 48.6 C 177.6 48.6 178 49.3 178 50.3 C 178 50.3 178 52.9 178 52.9 C 178 53.4 178.1 53.8 178.1 54.3 C 178.12 54.26 177.1 54.3 177.1 54.3 L 177.1 53.5 Z M 179.9 48.7 L 179.9 47.6 L 180.8 47.2 L 180.8 48.7 L 182 48.7 L 182 49.4 L 180.8 49.4 C 180.8 49.4 180.77 52.79 180.8 52.8 C 180.8 53.1 180.8 53.6 181.6 53.6 C 181.7 53.6 181.8 53.6 182 53.5 C 182 53.5 182 54.2 182 54.2 C 181.7 54.3 181.4 54.3 181.1 54.3 C 180.3 54.3 179.9 54 179.9 53.3 C 179.87 53.34 179.9 49.4 179.9 49.4 L 179 49.4 L 179 48.7 L 179.9 48.7 Z M 185.7 50.5 C 185.8 49.6 185.3 49.3 185 49.3 C 184.3 49.3 183.8 49.7 183.8 51.2 C 183.8 53 184 53.6 185 53.6 C 185.2 53.6 185.8 53.4 185.8 52.4 C 185.8 52.4 186.7 52.4 186.7 52.4 C 186.7 54 185.6 54.4 185 54.4 C 183.8 54.4 182.8 54 182.8 51.6 C 182.8 49.9 183 48.6 185 48.6 C 186.1 48.6 186.7 49.2 186.7 50.5 C 186.7 50.5 185.7 50.5 185.7 50.5 Z M 191.3 54.3 C 191.3 54.3 191.34 50.5 191.3 50.5 C 191.3 49.8 191.1 49.3 190.4 49.3 C 189.4 49.3 189.2 50.1 189.2 51 C 189.22 50.99 189.2 54.3 189.2 54.3 L 188.3 54.3 L 188.3 46.3 L 189.2 46.3 L 189.2 49.4 C 189.2 49.4 189.26 49.42 189.3 49.4 C 189.6 48.8 190 48.6 190.8 48.6 C 191.7 48.6 192.2 49.1 192.2 50.3 C 192.24 50.32 192.2 54.3 192.2 54.3 L 191.3 54.3 Z M 196.9 51.1 C 196.9 49.5 196.4 49.3 195.8 49.3 C 195.2 49.3 194.7 49.6 194.7 51.1 C 194.7 51.1 196.9 51.1 196.9 51.1 Z M 194.7 51.8 C 194.7 53.3 195.1 53.6 195.8 53.6 C 196.4 53.6 196.8 53.1 196.8 52.6 C 196.8 52.6 197.8 52.6 197.8 52.6 C 197.8 53.8 197 54.4 195.9 54.4 C 194.7 54.4 193.7 54 193.7 51.6 C 193.7 49.9 193.9 48.6 195.9 48.6 C 197.4 48.6 197.8 49.5 197.8 51.3 C 197.83 51.3 197.8 51.8 197.8 51.8 C 197.8 51.8 194.71 51.77 194.7 51.8 Z M 201.2 49.3 C 200.3 49.3 200.1 50.1 200.1 51.6 C 200.1 52.4 200.1 53.6 201.3 53.6 C 202.3 53.6 202.3 52.4 202.3 51.3 C 202.3 50.5 202.2 49.3 201.2 49.3 Z M 202.3 46.3 L 203.2 46.3 L 203.2 54.3 L 202.3 54.3 L 202.3 53.6 C 202.3 53.6 202.24 53.6 202.2 53.6 C 201.9 54.1 201.5 54.4 201 54.4 C 200.1 54.4 199.2 54 199.2 51.6 C 199.2 50.2 199.2 48.6 201 48.6 C 201.5 48.6 201.9 48.8 202.2 49.3 C 202.23 49.27 202.3 49.3 202.3 49.3 L 202.3 46.3 Z M 210.4 51.4 C 210.4 50.6 210.4 49.3 209.3 49.3 C 208.1 49.3 208.2 50.9 208.2 51.7 C 208.2 52.5 208.3 53.6 209.3 53.6 C 210.3 53.6 210.4 52.9 210.4 51.4 Z M 208.2 49.4 C 208.2 49.4 208.27 49.37 208.3 49.4 C 208.6 48.8 209 48.6 209.5 48.6 C 210.4 48.6 211.3 48.9 211.3 51.4 C 211.3 52.8 211.3 54.4 209.5 54.4 C 209 54.4 208.6 54.1 208.3 53.7 C 208.28 53.7 208.2 53.7 208.2 53.7 L 208.2 56.4 L 207.3 56.4 L 207.3 48.7 L 208.2 48.7 L 208.2 49.4 Z M 213.6 54.3 L 212.7 54.3 L 212.7 46.3 L 213.6 46.3 L 213.6 54.3 Z M 216 52.6 C 216 53.2 216.3 53.6 216.9 53.6 C 217.5 53.6 218.1 53.3 218 51.5 C 217.2 51.5 216 51.4 216 52.6 Z M 218.1 53.5 C 218.1 53.5 218.05 53.46 218 53.5 C 217.8 54.1 217.3 54.4 216.7 54.4 C 215.5 54.4 215.1 53.6 215.1 52.5 C 215.1 50.9 216.8 50.8 218 50.8 C 218.1 50.1 218.1 49.3 217.1 49.3 C 216.5 49.3 216.2 49.7 216.2 50.3 C 216.2 50.3 215.3 50.3 215.3 50.3 C 215.3 49 216 48.6 217.1 48.6 C 218.6 48.6 219 49.3 219 50.3 C 219 50.3 219 52.9 219 52.9 C 219 53.4 219 53.8 219.1 54.3 C 219.06 54.26 218.1 54.3 218.1 54.3 L 218.1 53.5 Z M 223.6 50.5 C 223.6 49.6 223.2 49.3 222.8 49.3 C 222.2 49.3 221.7 49.7 221.7 51.2 C 221.7 53 221.9 53.6 222.8 53.6 C 223.1 53.6 223.7 53.4 223.6 52.4 C 223.6 52.4 224.6 52.4 224.6 52.4 C 224.6 54 223.5 54.4 222.8 54.4 C 221.7 54.4 220.7 54 220.7 51.6 C 220.7 49.9 220.9 48.6 222.8 48.6 C 224 48.6 224.6 49.2 224.5 50.5 C 224.5 50.5 223.6 50.5 223.6 50.5 Z M 229.3 51.1 C 229.3 49.5 228.8 49.3 228.1 49.3 C 227.6 49.3 227.1 49.6 227.1 51.1 C 227.1 51.1 229.3 51.1 229.3 51.1 Z M 227.1 51.8 C 227.1 53.3 227.5 53.6 228.2 53.6 C 228.8 53.6 229.1 53.1 229.2 52.6 C 229.2 52.6 230.2 52.6 230.2 52.6 C 230.2 53.8 229.4 54.4 228.2 54.4 C 227.1 54.4 226.1 54 226.1 51.6 C 226.1 49.9 226.3 48.6 228.2 48.6 C 229.8 48.6 230.2 49.5 230.2 51.3 C 230.21 51.3 230.2 51.8 230.2 51.8 C 230.2 51.8 227.09 51.77 227.1 51.8 Z M 233.7 53.6 C 234.8 53.6 234.8 52.4 234.8 51.6 C 234.8 50.1 234.7 49.3 233.7 49.3 C 232.7 49.3 232.7 50.5 232.7 51.3 C 232.7 52.1 232.6 53.6 233.7 53.6 Z M 232.7 54.3 L 231.8 54.3 L 231.8 46.3 L 232.7 46.3 L 232.7 49.3 C 232.7 49.3 232.72 49.27 232.7 49.3 C 233 48.8 233.4 48.6 233.9 48.6 C 235.7 48.6 235.8 50.2 235.8 51.6 C 235.8 54 234.9 54.4 234 54.4 C 233.4 54.4 233 54.1 232.7 53.6 C 232.71 53.6 232.7 53.6 232.7 53.6 L 232.7 54.3 Z M 240.3 51.2 C 240.3 49.7 239.9 49.3 239.2 49.3 C 238.5 49.3 238 49.7 238 51.2 C 238 53 238.2 53.6 239.2 53.6 C 240.1 53.6 240.3 53 240.3 51.2 Z M 237.1 51.6 C 237.1 49.9 237.2 48.6 239.2 48.6 C 241.1 48.6 241.3 49.9 241.3 51.6 C 241.3 54 240.3 54.4 239.2 54.4 C 238 54.4 237.1 54 237.1 51.6 Z M 248.3 51.2 C 248.3 49.7 247.8 49.3 247.1 49.3 C 246.4 49.3 245.9 49.7 245.9 51.2 C 245.9 53 246.2 53.6 247.1 53.6 C 248 53.6 248.3 53 248.3 51.2 Z M 245 51.6 C 245 49.9 245.2 48.6 247.1 48.6 C 249 48.6 249.2 49.9 249.2 51.6 C 249.2 54 248.3 54.4 247.1 54.4 C 245.9 54.4 245 54 245 51.6 Z M 253.7 54.3 C 253.7 54.3 253.67 50.41 253.7 50.4 C 253.7 49.8 253.5 49.3 252.7 49.3 C 251.7 49.3 251.6 50.2 251.6 51 C 251.55 50.97 251.6 54.3 251.6 54.3 L 250.7 54.3 C 250.7 54.3 250.65 49.86 250.7 49.9 C 250.7 49.5 250.6 49.1 250.6 48.7 C 250.6 48.71 251.6 48.7 251.6 48.7 L 251.6 49.4 C 251.6 49.4 251.6 49.42 251.6 49.4 C 252 48.8 252.4 48.6 253.1 48.6 C 254.3 48.6 254.6 49.3 254.6 50.4 C 254.57 50.41 254.6 54.3 254.6 54.3 L 253.7 54.3 Z M 260.5 49.3 C 259.5 49.3 259.4 50.1 259.4 51.6 C 259.4 52.4 259.4 53.6 260.5 53.6 C 261.5 53.6 261.5 52.4 261.5 51.3 C 261.5 50.5 261.5 49.3 260.5 49.3 Z M 261.5 46.3 L 262.4 46.3 L 262.4 54.3 L 261.5 54.3 L 261.5 53.6 C 261.5 53.6 261.51 53.6 261.5 53.6 C 261.2 54.1 260.8 54.4 260.2 54.4 C 259.3 54.4 258.4 54 258.4 51.6 C 258.4 50.2 258.5 48.6 260.3 48.6 C 260.8 48.6 261.2 48.8 261.5 49.3 C 261.5 49.27 261.5 49.3 261.5 49.3 L 261.5 46.3 Z M 264.9 52.6 C 264.9 53.2 265.2 53.6 265.8 53.6 C 266.3 53.6 267 53.3 266.9 51.5 C 266.1 51.5 264.9 51.4 264.9 52.6 Z M 267 53.5 C 267 53.5 266.93 53.46 266.9 53.5 C 266.7 54.1 266.2 54.4 265.5 54.4 C 264.4 54.4 264 53.6 264 52.5 C 264 50.9 265.7 50.8 266.9 50.8 C 267 50.1 267 49.3 266 49.3 C 265.4 49.3 265.1 49.7 265.1 50.3 C 265.1 50.3 264.2 50.3 264.2 50.3 C 264.2 49 264.9 48.6 266 48.6 C 267.5 48.6 267.8 49.3 267.8 50.3 C 267.8 50.3 267.8 52.9 267.8 52.9 C 267.8 53.4 267.9 53.8 267.9 54.3 C 267.94 54.26 267 54.3 267 54.3 L 267 53.5 Z M 271.3 53.2 L 271.3 53.2 L 272.6 48.7 L 273.6 48.7 L 271.1 56.4 L 270.1 56.4 L 270.8 54.3 L 268.9 48.7 L 269.9 48.7 L 271.3 53.2 Z M 279.3 54.3 L 278.3 54.3 L 278.3 47.7 L 277.2 48.5 C 277.2 48.5 277.15 47.54 277.2 47.5 C 277.4 47.4 278.1 46.9 278.4 46.6 C 278.44 46.63 279.3 46.6 279.3 46.6 L 279.3 54.3 Z M 287.4 51.2 C 287.4 49.7 286.9 49.3 286.2 49.3 C 285.5 49.3 285 49.7 285 51.2 C 285 53 285.3 53.6 286.2 53.6 C 287.1 53.6 287.4 53 287.4 51.2 Z M 284.1 51.6 C 284.1 49.9 284.3 48.6 286.2 48.6 C 288.1 48.6 288.3 49.9 288.3 51.6 C 288.3 54 287.4 54.4 286.2 54.4 C 285 54.4 284.1 54 284.1 51.6 Z M 289.9 48.7 C 289.9 48.7 289.91 47.63 289.9 47.6 C 289.9 46.5 290.7 46.3 291.5 46.3 C 291.7 46.3 291.8 46.3 291.9 46.3 C 291.9 46.3 291.9 47 291.9 47 C 291 46.9 290.8 47.3 290.8 47.8 C 290.81 47.76 290.8 48.7 290.8 48.7 L 291.9 48.7 L 291.9 49.4 L 290.8 49.4 L 290.8 54.3 L 289.9 54.3 L 289.9 49.4 L 289.1 49.4 L 289.1 48.7 L 289.9 48.7 Z M 295.3 48.7 L 295.3 47.6 L 296.2 47.2 L 296.2 48.7 L 297.5 48.7 L 297.5 49.4 L 296.2 49.4 C 296.2 49.4 296.25 52.79 296.2 52.8 C 296.2 53.1 296.2 53.6 297.1 53.6 C 297.1 53.6 297.3 53.6 297.5 53.5 C 297.5 53.5 297.5 54.2 297.5 54.2 C 297.2 54.3 296.9 54.3 296.6 54.3 C 295.7 54.3 295.3 54 295.3 53.3 C 295.35 53.34 295.3 49.4 295.3 49.4 L 294.4 49.4 L 294.4 48.7 L 295.3 48.7 Z M 301.3 54.3 C 301.3 54.3 301.32 50.5 301.3 50.5 C 301.3 49.8 301.1 49.3 300.3 49.3 C 299.4 49.3 299.2 50.1 299.2 51 C 299.19 50.99 299.2 54.3 299.2 54.3 L 298.3 54.3 L 298.3 46.3 L 299.2 46.3 L 299.2 49.4 C 299.2 49.4 299.24 49.42 299.2 49.4 C 299.6 48.8 300 48.6 300.7 48.6 C 301.7 48.6 302.2 49.1 302.2 50.3 C 302.22 50.32 302.2 54.3 302.2 54.3 L 301.3 54.3 Z M 306.9 51.1 C 306.9 49.5 306.4 49.3 305.7 49.3 C 305.2 49.3 304.7 49.6 304.7 51.1 C 304.7 51.1 306.9 51.1 306.9 51.1 Z M 304.7 51.8 C 304.7 53.3 305.1 53.6 305.8 53.6 C 306.4 53.6 306.7 53.1 306.8 52.6 C 306.8 52.6 307.8 52.6 307.8 52.6 C 307.8 53.8 307 54.4 305.8 54.4 C 304.7 54.4 303.7 54 303.7 51.6 C 303.7 49.9 303.9 48.6 305.8 48.6 C 307.4 48.6 307.8 49.5 307.8 51.3 C 307.81 51.3 307.8 51.8 307.8 51.8 C 307.8 51.8 304.68 51.77 304.7 51.8 Z " stroke="none" fill="#828281"/>  </g>  <g id="Polygon196186">    <path d="M 2 35.5 L 0.4 35.5 L 0.4 34.8 L 2 34.8 L 2 33.1 L 2.9 33.1 L 2.9 34.8 L 4.5 34.8 L 4.5 35.5 L 2.9 35.5 L 2.9 41.1 L 2 41.1 L 2 35.5 Z M 9.4 36.7 C 9.4 36.7 10.47 36.68 10.5 36.7 C 10.9 36.7 11.9 36.6 11.9 35.3 C 11.9 34.1 11 34 10.8 34 C 10.76 34 9.4 34 9.4 34 L 9.4 36.7 Z M 8.3 41.1 L 8.3 33.1 C 8.3 33.1 10.7 33.12 10.7 33.1 C 11.8 33.1 12.9 33.5 12.9 35.4 C 12.9 37.2 11.5 37.6 10.7 37.6 C 10.69 37.56 9.4 37.6 9.4 37.6 L 9.4 41.1 L 8.3 41.1 Z M 15.1 39.4 C 15.1 40 15.3 40.4 15.9 40.4 C 16.5 40.4 17.2 40.1 17.1 38.3 C 16.2 38.3 15.1 38.2 15.1 39.4 Z M 17.1 40.3 C 17.1 40.3 17.07 40.26 17.1 40.3 C 16.8 40.9 16.4 41.2 15.7 41.2 C 14.5 41.2 14.2 40.4 14.2 39.3 C 14.2 37.7 15.8 37.6 17.1 37.6 C 17.1 36.9 17.1 36.1 16.1 36.1 C 15.5 36.1 15.2 36.5 15.3 37.1 C 15.3 37.1 14.3 37.1 14.3 37.1 C 14.3 35.8 15 35.4 16.2 35.4 C 17.6 35.4 18 36.1 18 37.1 C 18 37.1 18 39.7 18 39.7 C 18 40.2 18 40.6 18.1 41.1 C 18.08 41.06 17.1 41.1 17.1 41.1 L 17.1 40.3 Z M 19.8 35.5 L 19.8 34.4 L 20.7 34 L 20.7 35.5 L 21.9 35.5 L 21.9 36.2 L 20.7 36.2 C 20.7 36.2 20.73 39.59 20.7 39.6 C 20.7 39.9 20.7 40.4 21.6 40.4 C 21.6 40.4 21.8 40.4 22 40.3 C 22 40.3 22 41 22 41 C 21.7 41.1 21.4 41.1 21.1 41.1 C 20.2 41.1 19.8 40.8 19.8 40.1 C 19.83 40.14 19.8 36.2 19.8 36.2 L 18.9 36.2 L 18.9 35.5 L 19.8 35.5 Z M 23.7 41.1 L 22.8 41.1 L 22.8 35.5 L 23.7 35.5 L 23.7 41.1 Z M 22.7 33.1 L 23.7 33.1 L 23.7 34.1 L 22.7 34.1 L 22.7 33.1 Z M 28.3 37.9 C 28.3 36.3 27.8 36.1 27.2 36.1 C 26.6 36.1 26.1 36.4 26.1 37.9 C 26.1 37.9 28.3 37.9 28.3 37.9 Z M 26.1 38.6 C 26.1 40.1 26.5 40.4 27.2 40.4 C 27.9 40.4 28.2 39.9 28.2 39.4 C 28.2 39.4 29.2 39.4 29.2 39.4 C 29.2 40.6 28.4 41.2 27.3 41.2 C 26.1 41.2 25.1 40.8 25.1 38.4 C 25.1 36.7 25.3 35.4 27.3 35.4 C 28.8 35.4 29.2 36.3 29.2 38.1 C 29.24 38.1 29.2 38.6 29.2 38.6 C 29.2 38.6 26.11 38.57 26.1 38.6 Z M 33.7 41.1 C 33.7 41.1 33.75 37.21 33.7 37.2 C 33.7 36.6 33.5 36.1 32.8 36.1 C 31.8 36.1 31.6 37 31.6 37.8 C 31.63 37.77 31.6 41.1 31.6 41.1 L 30.7 41.1 C 30.7 41.1 30.73 36.66 30.7 36.7 C 30.7 36.3 30.7 35.9 30.7 35.5 C 30.68 35.51 31.6 35.5 31.6 35.5 L 31.6 36.2 C 31.6 36.2 31.68 36.22 31.7 36.2 C 32 35.6 32.4 35.4 33.2 35.4 C 34.4 35.4 34.6 36.1 34.6 37.2 C 34.65 37.21 34.6 41.1 34.6 41.1 L 33.7 41.1 Z M 36.3 35.5 L 36.3 34.4 L 37.2 34 L 37.2 35.5 L 38.4 35.5 L 38.4 36.2 L 37.2 36.2 C 37.2 36.2 37.23 39.59 37.2 39.6 C 37.2 39.9 37.2 40.4 38.1 40.4 C 38.1 40.4 38.3 40.4 38.5 40.3 C 38.5 40.3 38.5 41 38.5 41 C 38.2 41.1 37.9 41.1 37.6 41.1 C 36.7 41.1 36.3 40.8 36.3 40.1 C 36.33 40.14 36.3 36.2 36.3 36.2 L 35.4 36.2 L 35.4 35.5 L 36.3 35.5 Z M 40.9 41.2 C 39.7 41.2 39 40.6 39 39.4 C 39 39.4 40 39.4 40 39.4 C 40 39.7 40 40.4 41 40.4 C 41.5 40.4 41.9 40.2 41.9 39.6 C 41.9 38.6 39.1 38.6 39.1 36.9 C 39.1 36.3 39.5 35.4 41.1 35.4 C 42.1 35.4 42.9 35.9 42.8 37 C 42.8 37 41.8 37 41.8 37 C 41.8 36.4 41.5 36.1 41 36.1 C 40.5 36.1 40.1 36.3 40.1 36.8 C 40.1 37.8 42.9 37.8 42.9 39.5 C 42.9 40.7 42 41.2 40.9 41.2 Z M 47.6 36.3 C 47.6 36.3 47.57 36.34 47.6 36.3 C 47.9 35.5 48.4 35.4 49.3 35.4 C 49.3 35.4 49.3 36.3 49.3 36.3 C 49.2 36.3 49.1 36.3 49 36.3 C 49 36.3 48.9 36.3 48.8 36.3 C 47.8 36.3 47.6 37 47.6 37.8 C 47.55 37.78 47.6 41.1 47.6 41.1 L 46.7 41.1 L 46.7 35.5 L 47.6 35.5 L 47.6 36.3 Z M 53.3 37.9 C 53.3 36.3 52.9 36.1 52.2 36.1 C 51.6 36.1 51.2 36.4 51.2 37.9 C 51.2 37.9 53.3 37.9 53.3 37.9 Z M 51.2 38.6 C 51.2 40.1 51.6 40.4 52.3 40.4 C 52.9 40.4 53.2 39.9 53.3 39.4 C 53.3 39.4 54.2 39.4 54.2 39.4 C 54.2 40.6 53.5 41.2 52.3 41.2 C 51.1 41.2 50.2 40.8 50.2 38.4 C 50.2 36.7 50.4 35.4 52.3 35.4 C 53.9 35.4 54.3 36.3 54.3 38.1 C 54.28 38.1 54.3 38.6 54.3 38.6 C 54.3 38.6 51.16 38.57 51.2 38.6 Z M 58.7 37.3 C 58.7 36.4 58.3 36.1 57.9 36.1 C 57.2 36.1 56.7 36.5 56.7 38 C 56.7 39.8 57 40.4 57.9 40.4 C 58.1 40.4 58.8 40.2 58.7 39.2 C 58.7 39.2 59.7 39.2 59.7 39.2 C 59.7 40.8 58.5 41.2 57.9 41.2 C 56.7 41.2 55.8 40.8 55.8 38.4 C 55.8 36.7 56 35.4 57.9 35.4 C 59 35.4 59.7 36 59.6 37.3 C 59.6 37.3 58.7 37.3 58.7 37.3 Z M 64.3 37.9 C 64.3 36.3 63.9 36.1 63.2 36.1 C 62.6 36.1 62.2 36.4 62.2 37.9 C 62.2 37.9 64.3 37.9 64.3 37.9 Z M 62.2 38.6 C 62.2 40.1 62.6 40.4 63.3 40.4 C 63.9 40.4 64.2 39.9 64.3 39.4 C 64.3 39.4 65.2 39.4 65.2 39.4 C 65.2 40.6 64.5 41.2 63.3 41.2 C 62.1 41.2 61.2 40.8 61.2 38.4 C 61.2 36.7 61.4 35.4 63.3 35.4 C 64.9 35.4 65.3 36.3 65.3 38.1 C 65.28 38.1 65.3 38.6 65.3 38.6 C 65.3 38.6 62.16 38.57 62.2 38.6 Z M 67.7 41.1 L 66.8 41.1 L 66.8 35.5 L 67.7 35.5 L 67.7 41.1 Z M 66.7 33.1 L 67.7 33.1 L 67.7 34.1 L 66.7 34.1 L 66.7 33.1 Z M 68.6 35.5 L 69.6 35.5 L 70.8 40.2 L 70.9 40.2 L 72.2 35.5 L 73.1 35.5 L 71.4 41.1 L 70.2 41.1 L 68.6 35.5 Z M 77.2 37.9 C 77.2 36.3 76.7 36.1 76 36.1 C 75.5 36.1 75 36.4 75 37.9 C 75 37.9 77.2 37.9 77.2 37.9 Z M 75 38.6 C 75 40.1 75.4 40.4 76.1 40.4 C 76.7 40.4 77 39.9 77.1 39.4 C 77.1 39.4 78.1 39.4 78.1 39.4 C 78.1 40.6 77.3 41.2 76.1 41.2 C 75 41.2 74 40.8 74 38.4 C 74 36.7 74.2 35.4 76.1 35.4 C 77.7 35.4 78.1 36.3 78.1 38.1 C 78.11 38.1 78.1 38.6 78.1 38.6 C 78.1 38.6 74.99 38.57 75 38.6 Z M 81.5 36.1 C 80.5 36.1 80.4 36.9 80.4 38.4 C 80.4 39.2 80.4 40.4 81.5 40.4 C 82.5 40.4 82.5 39.2 82.5 38.1 C 82.5 37.3 82.5 36.1 81.5 36.1 Z M 82.5 33.1 L 83.4 33.1 L 83.4 41.1 L 82.5 41.1 L 82.5 40.4 C 82.5 40.4 82.52 40.4 82.5 40.4 C 82.2 40.9 81.8 41.2 81.2 41.2 C 80.4 41.2 79.5 40.8 79.5 38.4 C 79.5 37 79.5 35.4 81.3 35.4 C 81.8 35.4 82.2 35.6 82.5 36.1 C 82.51 36.07 82.5 36.1 82.5 36.1 L 82.5 33.1 Z M 88.4 39.4 C 88.4 40 88.6 40.4 89.2 40.4 C 89.8 40.4 90.5 40.1 90.4 38.3 C 89.5 38.3 88.4 38.2 88.4 39.4 Z M 90.4 40.3 C 90.4 40.3 90.39 40.26 90.4 40.3 C 90.1 40.9 89.7 41.2 89 41.2 C 87.8 41.2 87.5 40.4 87.5 39.3 C 87.5 37.7 89.1 37.6 90.4 37.6 C 90.4 36.9 90.4 36.1 89.5 36.1 C 88.8 36.1 88.5 36.5 88.6 37.1 C 88.6 37.1 87.6 37.1 87.6 37.1 C 87.6 35.8 88.3 35.4 89.5 35.4 C 90.9 35.4 91.3 36.1 91.3 37.1 C 91.3 37.1 91.3 39.7 91.3 39.7 C 91.3 40.2 91.3 40.6 91.4 41.1 C 91.4 41.06 90.4 41.1 90.4 41.1 L 90.4 40.3 Z M 97.5 38.3 L 97.5 34.4 L 97.5 34.4 L 95.9 38.3 L 97.5 38.3 Z M 95 39.2 L 95 38.3 L 97.1 33.4 L 98.5 33.4 L 98.5 38.3 L 99.4 38.3 L 99.4 39.2 L 98.5 39.2 L 98.5 41.1 L 97.5 41.1 L 97.5 39.2 L 95 39.2 Z M 104.1 37.3 C 104.1 39.3 104.1 41.2 102 41.2 C 100 41.2 100 39.3 100 37.3 C 100 35.2 99.9 33.3 102 33.3 C 104.1 33.3 104.1 35.2 104.1 37.3 Z M 101 37.5 C 101 38.8 100.9 40.4 102 40.4 C 103.1 40.4 103.1 38.8 103.1 37.5 C 103.1 35.4 103.1 34.2 102 34.2 C 101 34.2 101 35.4 101 37.5 Z M 109 37.3 C 109 39.3 109 41.2 106.9 41.2 C 104.8 41.2 104.9 39.3 104.9 37.3 C 104.9 35.2 104.8 33.3 106.9 33.3 C 109 33.3 109 35.2 109 37.3 Z M 105.9 37.5 C 105.9 38.8 105.8 40.4 106.9 40.4 C 108 40.4 108 38.8 108 37.5 C 108 35.4 107.9 34.2 106.9 34.2 C 105.9 34.2 105.9 35.4 105.9 37.5 Z M 110 37.6 L 112.4 37.6 L 112.4 38.5 L 110 38.5 L 110 37.6 Z M 116.5 41.1 C 116.5 41.1 116.53 37.21 116.5 37.2 C 116.5 36.6 116.4 36.1 115.7 36.1 C 115.4 36.1 115 36.3 114.9 36.5 C 114.7 36.8 114.7 37.1 114.7 37.3 C 114.66 37.32 114.7 41.1 114.7 41.1 L 113.8 41.1 C 113.8 41.1 113.76 36.66 113.8 36.7 C 113.8 36.3 113.7 35.9 113.7 35.5 C 113.71 35.51 114.7 35.5 114.7 35.5 L 114.7 36.2 C 114.7 36.2 114.68 36.2 114.7 36.2 C 114.9 35.6 115.4 35.4 116.1 35.4 C 116.6 35.4 117.2 35.6 117.4 36.1 C 117.7 35.5 118.2 35.4 118.7 35.4 C 119.3 35.4 120.2 35.5 120.2 36.8 C 120.21 36.84 120.2 41.1 120.2 41.1 L 119.3 41.1 C 119.3 41.1 119.3 37.21 119.3 37.2 C 119.3 36.6 119.2 36.1 118.4 36.1 C 118.1 36.1 118 36.1 117.7 36.3 C 117.5 36.6 117.4 37.1 117.4 37.3 C 117.43 37.32 117.4 41.1 117.4 41.1 L 116.5 41.1 Z M 123.6 36.1 C 122.6 36.1 122.6 37.4 122.6 38.1 C 122.6 39.9 123 40.3 123.6 40.3 C 124.7 40.3 124.7 39 124.7 38.3 C 124.7 37.4 124.8 36.1 123.6 36.1 Z M 124.7 35.5 L 125.6 35.5 C 125.6 35.5 125.58 41.62 125.6 41.6 C 125.6 42.9 124.8 43.2 123.5 43.2 C 122.6 43.2 121.8 42.7 121.9 41.7 C 121.9 41.7 122.9 41.7 122.9 41.7 C 122.9 42.2 123.2 42.5 123.7 42.5 C 124.3 42.5 124.7 42.1 124.7 41.5 C 124.68 41.52 124.7 40.4 124.7 40.4 C 124.7 40.4 124.65 40.37 124.7 40.4 C 124.4 40.8 123.9 41.1 123.4 41.1 C 121.9 41.1 121.6 39.8 121.6 38.1 C 121.6 35.6 122.9 35.4 123.4 35.4 C 123.9 35.4 124.4 35.6 124.7 36.2 C 124.66 36.19 124.7 36.2 124.7 36.2 L 124.7 35.5 Z M 130.6 41.1 L 129.7 41.1 L 129.7 33.1 L 130.6 33.1 L 130.6 41.1 Z M 135.3 38 C 135.3 36.5 134.8 36.1 134.1 36.1 C 133.4 36.1 132.9 36.5 132.9 38 C 132.9 39.8 133.2 40.4 134.1 40.4 C 135 40.4 135.3 39.8 135.3 38 Z M 132 38.4 C 132 36.7 132.2 35.4 134.1 35.4 C 136 35.4 136.2 36.7 136.2 38.4 C 136.2 40.8 135.3 41.2 134.1 41.2 C 132.9 41.2 132 40.8 132 38.4 Z M 138.5 39.4 C 138.5 40 138.7 40.4 139.3 40.4 C 139.9 40.4 140.6 40.1 140.5 38.3 C 139.6 38.3 138.5 38.2 138.5 39.4 Z M 140.5 40.3 C 140.5 40.3 140.47 40.26 140.5 40.3 C 140.2 40.9 139.8 41.2 139.1 41.2 C 137.9 41.2 137.6 40.4 137.6 39.3 C 137.6 37.7 139.2 37.6 140.5 37.6 C 140.5 36.9 140.5 36.1 139.5 36.1 C 138.9 36.1 138.6 36.5 138.7 37.1 C 138.7 37.1 137.7 37.1 137.7 37.1 C 137.7 35.8 138.4 35.4 139.6 35.4 C 141 35.4 141.4 36.1 141.4 37.1 C 141.4 37.1 141.4 39.7 141.4 39.7 C 141.4 40.2 141.4 40.6 141.5 41.1 C 141.48 41.06 140.5 41.1 140.5 41.1 L 140.5 40.3 Z M 145 36.1 C 144.1 36.1 143.9 36.9 143.9 38.4 C 143.9 39.2 143.9 40.4 145.1 40.4 C 146.1 40.4 146.1 39.2 146.1 38.1 C 146.1 37.3 146 36.1 145 36.1 Z M 146.1 33.1 L 147 33.1 L 147 41.1 L 146.1 41.1 L 146.1 40.4 C 146.1 40.4 146.05 40.4 146 40.4 C 145.7 40.9 145.4 41.2 144.8 41.2 C 143.9 41.2 143 40.8 143 38.4 C 143 37 143 35.4 144.8 35.4 C 145.3 35.4 145.7 35.6 146 36.1 C 146.03 36.07 146.1 36.1 146.1 36.1 L 146.1 33.1 Z M 149.5 41.1 L 148.6 41.1 L 148.6 35.5 L 149.5 35.5 L 149.5 41.1 Z M 148.6 33.1 L 149.6 33.1 L 149.6 34.1 L 148.6 34.1 L 148.6 33.1 Z M 154.1 41.1 C 154.1 41.1 154.09 37.21 154.1 37.2 C 154.1 36.6 153.9 36.1 153.1 36.1 C 152.1 36.1 152 37 152 37.8 C 151.97 37.77 152 41.1 152 41.1 L 151.1 41.1 C 151.1 41.1 151.07 36.66 151.1 36.7 C 151.1 36.3 151 35.9 151 35.5 C 151.02 35.51 152 35.5 152 35.5 L 152 36.2 C 152 36.2 152.02 36.22 152 36.2 C 152.4 35.6 152.8 35.4 153.5 35.4 C 154.7 35.4 155 36.1 155 37.2 C 154.99 37.21 155 41.1 155 41.1 L 154.1 41.1 Z M 158.5 36.1 C 157.4 36.1 157.4 37.4 157.4 38.1 C 157.4 39.9 157.8 40.3 158.5 40.3 C 159.6 40.3 159.5 39 159.5 38.3 C 159.5 37.4 159.6 36.1 158.5 36.1 Z M 159.5 35.5 L 160.4 35.5 C 160.4 35.5 160.41 41.62 160.4 41.6 C 160.4 42.9 159.6 43.2 158.4 43.2 C 157.4 43.2 156.6 42.7 156.7 41.7 C 156.7 41.7 157.7 41.7 157.7 41.7 C 157.7 42.2 158 42.5 158.5 42.5 C 159.2 42.5 159.5 42.1 159.5 41.5 C 159.51 41.52 159.5 40.4 159.5 40.4 C 159.5 40.4 159.48 40.37 159.5 40.4 C 159.2 40.8 158.7 41.1 158.3 41.1 C 156.7 41.1 156.5 39.8 156.5 38.1 C 156.5 35.6 157.7 35.4 158.2 35.4 C 158.8 35.4 159.2 35.6 159.5 36.2 C 159.49 36.19 159.5 36.2 159.5 36.2 L 159.5 35.5 Z M 166.4 36.1 C 165.4 36.1 165.3 36.9 165.3 38.4 C 165.3 39.2 165.3 40.4 166.4 40.4 C 167.5 40.4 167.5 39.2 167.5 38.1 C 167.5 37.3 167.4 36.1 166.4 36.1 Z M 167.5 33.1 L 168.4 33.1 L 168.4 41.1 L 167.5 41.1 L 167.5 40.4 C 167.5 40.4 167.43 40.4 167.4 40.4 C 167.1 40.9 166.7 41.2 166.2 41.2 C 165.3 41.2 164.4 40.8 164.4 38.4 C 164.4 37 164.4 35.4 166.2 35.4 C 166.7 35.4 167.1 35.6 167.4 36.1 C 167.42 36.07 167.5 36.1 167.5 36.1 L 167.5 33.1 Z M 173.1 38 C 173.1 36.5 172.7 36.1 172 36.1 C 171.3 36.1 170.8 36.5 170.8 38 C 170.8 39.8 171 40.4 172 40.4 C 172.9 40.4 173.1 39.8 173.1 38 Z M 169.9 38.4 C 169.9 36.7 170 35.4 172 35.4 C 173.9 35.4 174.1 36.7 174.1 38.4 C 174.1 40.8 173.1 41.2 172 41.2 C 170.8 41.2 169.9 40.8 169.9 38.4 Z M 177.2 41.2 C 176 41.2 175.2 40.6 175.2 39.4 C 175.2 39.4 176.3 39.4 176.3 39.4 C 176.3 39.7 176.3 40.4 177.2 40.4 C 177.7 40.4 178.1 40.2 178.1 39.6 C 178.1 38.6 175.4 38.6 175.4 36.9 C 175.4 36.3 175.7 35.4 177.3 35.4 C 178.3 35.4 179.1 35.9 179 37 C 179 37 178 37 178 37 C 178.1 36.4 177.7 36.1 177.2 36.1 C 176.7 36.1 176.3 36.3 176.3 36.8 C 176.3 37.8 179.1 37.8 179.1 39.5 C 179.1 40.7 178.3 41.2 177.2 41.2 Z M 183.4 37.9 C 183.4 36.3 183 36.1 182.3 36.1 C 181.8 36.1 181.3 36.4 181.3 37.9 C 181.3 37.9 183.4 37.9 183.4 37.9 Z M 181.3 38.6 C 181.3 40.1 181.7 40.4 182.4 40.4 C 183 40.4 183.3 39.9 183.4 39.4 C 183.4 39.4 184.4 39.4 184.4 39.4 C 184.3 40.6 183.6 41.2 182.4 41.2 C 181.2 41.2 180.3 40.8 180.3 38.4 C 180.3 36.7 180.5 35.4 182.4 35.4 C 184 35.4 184.4 36.3 184.4 38.1 C 184.4 38.1 184.4 38.6 184.4 38.6 C 184.4 38.6 181.28 38.57 181.3 38.6 Z M 191.5 38 C 191.5 36.5 191 36.1 190.3 36.1 C 189.6 36.1 189.1 36.5 189.1 38 C 189.1 39.8 189.4 40.4 190.3 40.4 C 191.2 40.4 191.5 39.8 191.5 38 Z M 188.2 38.4 C 188.2 36.7 188.4 35.4 190.3 35.4 C 192.2 35.4 192.4 36.7 192.4 38.4 C 192.4 40.8 191.5 41.2 190.3 41.2 C 189.1 41.2 188.2 40.8 188.2 38.4 Z M 194 35.5 C 194 35.5 194 34.43 194 34.4 C 194 33.3 194.8 33.1 195.6 33.1 C 195.8 33.1 195.9 33.1 196 33.1 C 196 33.1 196 33.8 196 33.8 C 195.1 33.7 194.9 34.1 194.9 34.6 C 194.9 34.56 194.9 35.5 194.9 35.5 L 196 35.5 L 196 36.2 L 194.9 36.2 L 194.9 41.1 L 194 41.1 L 194 36.2 L 193.1 36.2 L 193.1 35.5 L 194 35.5 Z M 201 41.2 C 199.8 41.2 199 40.6 199.1 39.4 C 199.1 39.4 200.1 39.4 200.1 39.4 C 200.1 39.7 200.1 40.4 201 40.4 C 201.5 40.4 202 40.2 202 39.6 C 202 38.6 199.2 38.6 199.2 36.9 C 199.2 36.3 199.5 35.4 201.1 35.4 C 202.1 35.4 202.9 35.9 202.9 37 C 202.9 37 201.9 37 201.9 37 C 201.9 36.4 201.6 36.1 201 36.1 C 200.5 36.1 200.1 36.3 200.1 36.8 C 200.1 37.8 202.9 37.8 202.9 39.5 C 202.9 40.7 202.1 41.2 201 41.2 Z M 207.2 35.5 L 208.1 35.5 C 208.1 35.5 208.09 39.91 208.1 39.9 C 208.1 40.3 208.1 40.7 208.1 41.1 C 208.15 41.06 207.2 41.1 207.2 41.1 L 207.2 40.4 C 207.2 40.4 207.16 40.39 207.2 40.4 C 206.9 40.9 206.3 41.2 205.8 41.2 C 204.8 41.2 204.3 40.7 204.3 39.7 C 204.26 39.74 204.3 35.5 204.3 35.5 L 205.2 35.5 C 205.2 35.5 205.16 39.36 205.2 39.4 C 205.2 40 205.5 40.5 206.1 40.5 C 206.6 40.5 207.2 40.1 207.2 39.2 C 207.19 39.19 207.2 35.5 207.2 35.5 Z M 211.7 40.4 C 212.8 40.4 212.8 39.2 212.8 38.4 C 212.8 36.9 212.7 36.1 211.7 36.1 C 210.7 36.1 210.7 37.3 210.7 38.1 C 210.7 38.9 210.6 40.4 211.7 40.4 Z M 210.7 41.1 L 209.8 41.1 L 209.8 33.1 L 210.7 33.1 L 210.7 36.1 C 210.7 36.1 210.73 36.07 210.7 36.1 C 211 35.6 211.4 35.4 212 35.4 C 213.7 35.4 213.8 37 213.8 38.4 C 213.8 40.8 212.9 41.2 212 41.2 C 211.4 41.2 211 40.9 210.7 40.4 C 210.72 40.4 210.7 40.4 210.7 40.4 L 210.7 41.1 Z M 218.1 37.3 C 218.1 36.4 217.7 36.1 217.4 36.1 C 216.7 36.1 216.2 36.5 216.2 38 C 216.2 39.8 216.4 40.4 217.4 40.4 C 217.6 40.4 218.2 40.2 218.2 39.2 C 218.2 39.2 219.1 39.2 219.1 39.2 C 219.1 40.8 218 41.2 217.4 41.2 C 216.2 41.2 215.2 40.8 215.2 38.4 C 215.2 36.7 215.4 35.4 217.4 35.4 C 218.5 35.4 219.1 36 219.1 37.3 C 219.1 37.3 218.1 37.3 218.1 37.3 Z M 223.7 35.5 L 224.6 35.5 C 224.6 35.5 224.59 39.91 224.6 39.9 C 224.6 40.3 224.6 40.7 224.6 41.1 C 224.65 41.06 223.7 41.1 223.7 41.1 L 223.7 40.4 C 223.7 40.4 223.66 40.39 223.7 40.4 C 223.4 40.9 222.8 41.2 222.3 41.2 C 221.3 41.2 220.8 40.7 220.8 39.7 C 220.76 39.74 220.8 35.5 220.8 35.5 L 221.7 35.5 C 221.7 35.5 221.66 39.36 221.7 39.4 C 221.7 40 222 40.5 222.6 40.5 C 223.1 40.5 223.7 40.1 223.7 39.2 C 223.69 39.19 223.7 35.5 223.7 35.5 Z M 226.3 35.5 L 226.3 34.4 L 227.2 34 L 227.2 35.5 L 228.4 35.5 L 228.4 36.2 L 227.2 36.2 C 227.2 36.2 227.22 39.59 227.2 39.6 C 227.2 39.9 227.2 40.4 228 40.4 C 228.1 40.4 228.3 40.4 228.5 40.3 C 228.5 40.3 228.5 41 228.5 41 C 228.2 41.1 227.9 41.1 227.6 41.1 C 226.7 41.1 226.3 40.8 226.3 40.1 C 226.32 40.14 226.3 36.2 226.3 36.2 L 225.4 36.2 L 225.4 35.5 L 226.3 35.5 Z M 230.1 39.4 C 230.1 40 230.4 40.4 231 40.4 C 231.5 40.4 232.2 40.1 232.1 38.3 C 231.3 38.3 230.1 38.2 230.1 39.4 Z M 232.1 40.3 C 232.1 40.3 232.12 40.26 232.1 40.3 C 231.8 40.9 231.4 41.2 230.7 41.2 C 229.5 41.2 229.2 40.4 229.2 39.3 C 229.2 37.7 230.9 37.6 232.1 37.6 C 232.1 36.9 232.2 36.1 231.2 36.1 C 230.6 36.1 230.3 36.5 230.3 37.1 C 230.3 37.1 229.3 37.1 229.3 37.1 C 229.4 35.8 230 35.4 231.2 35.4 C 232.6 35.4 233 36.1 233 37.1 C 233 37.1 233 39.7 233 39.7 C 233 40.2 233.1 40.6 233.1 41.1 C 233.13 41.06 232.1 41.1 232.1 41.1 L 232.1 40.3 Z M 237.8 41.1 C 237.8 41.1 237.8 37.21 237.8 37.2 C 237.8 36.6 237.6 36.1 236.8 36.1 C 235.8 36.1 235.7 37 235.7 37.8 C 235.68 37.77 235.7 41.1 235.7 41.1 L 234.8 41.1 C 234.8 41.1 234.78 36.66 234.8 36.7 C 234.8 36.3 234.8 35.9 234.7 35.5 C 234.73 35.51 235.7 35.5 235.7 35.5 L 235.7 36.2 C 235.7 36.2 235.73 36.22 235.7 36.2 C 236.1 35.6 236.5 35.4 237.2 35.4 C 238.4 35.4 238.7 36.1 238.7 37.2 C 238.7 37.21 238.7 41.1 238.7 41.1 L 237.8 41.1 Z M 243.3 37.9 C 243.3 36.3 242.9 36.1 242.2 36.1 C 241.6 36.1 241.2 36.4 241.2 37.9 C 241.2 37.9 243.3 37.9 243.3 37.9 Z M 241.2 38.6 C 241.2 40.1 241.6 40.4 242.3 40.4 C 242.9 40.4 243.2 39.9 243.3 39.4 C 243.3 39.4 244.2 39.4 244.2 39.4 C 244.2 40.6 243.5 41.2 242.3 41.2 C 241.1 41.2 240.2 40.8 240.2 38.4 C 240.2 36.7 240.4 35.4 242.3 35.4 C 243.9 35.4 244.3 36.3 244.3 38.1 C 244.28 38.1 244.3 38.6 244.3 38.6 C 244.3 38.6 241.16 38.57 241.2 38.6 Z M 248.9 38 C 248.9 36.5 248.4 36.1 247.7 36.1 C 247 36.1 246.6 36.5 246.6 38 C 246.6 39.8 246.8 40.4 247.7 40.4 C 248.7 40.4 248.9 39.8 248.9 38 Z M 245.6 38.4 C 245.6 36.7 245.8 35.4 247.7 35.4 C 249.7 35.4 249.8 36.7 249.8 38.4 C 249.8 40.8 248.9 41.2 247.7 41.2 C 246.6 41.2 245.6 40.8 245.6 38.4 Z M 254.3 35.5 L 255.2 35.5 C 255.2 35.5 255.15 39.91 255.2 39.9 C 255.2 40.3 255.2 40.7 255.2 41.1 C 255.21 41.06 254.3 41.1 254.3 41.1 L 254.3 40.4 C 254.3 40.4 254.22 40.39 254.2 40.4 C 253.9 40.9 253.4 41.2 252.8 41.2 C 251.8 41.2 251.3 40.7 251.3 39.7 C 251.31 39.74 251.3 35.5 251.3 35.5 L 252.2 35.5 C 252.2 35.5 252.21 39.36 252.2 39.4 C 252.2 40 252.5 40.5 253.2 40.5 C 253.6 40.5 254.3 40.1 254.3 39.2 C 254.25 39.19 254.3 35.5 254.3 35.5 Z M 258.4 41.2 C 257.2 41.2 256.5 40.6 256.5 39.4 C 256.5 39.4 257.5 39.4 257.5 39.4 C 257.5 39.7 257.5 40.4 258.5 40.4 C 259 40.4 259.4 40.2 259.4 39.6 C 259.4 38.6 256.6 38.6 256.6 36.9 C 256.6 36.3 257 35.4 258.6 35.4 C 259.5 35.4 260.4 35.9 260.3 37 C 260.3 37 259.3 37 259.3 37 C 259.3 36.4 259 36.1 258.4 36.1 C 258 36.1 257.6 36.3 257.6 36.8 C 257.6 37.8 260.4 37.8 260.4 39.5 C 260.4 40.7 259.5 41.2 258.4 41.2 Z M 266 36.1 C 265 36.1 264.9 37.4 264.9 38.1 C 264.9 39.9 265.3 40.3 266 40.3 C 267.1 40.3 267.1 39 267.1 38.3 C 267.1 37.4 267.1 36.1 266 36.1 Z M 267 35.5 L 267.9 35.5 C 267.9 35.5 267.94 41.62 267.9 41.6 C 267.9 42.9 267.1 43.2 265.9 43.2 C 265 43.2 264.1 42.7 264.2 41.7 C 264.2 41.7 265.2 41.7 265.2 41.7 C 265.2 42.2 265.6 42.5 266.1 42.5 C 266.7 42.5 267 42.1 267 41.5 C 267.04 41.52 267 40.4 267 40.4 C 267 40.4 267.01 40.37 267 40.4 C 266.8 40.8 266.3 41.1 265.8 41.1 C 264.3 41.1 264 39.8 264 38.1 C 264 35.6 265.3 35.4 265.7 35.4 C 266.3 35.4 266.8 35.6 267 36.2 C 267.02 36.19 267 36.2 267 36.2 L 267 35.5 Z M 270.4 39.4 C 270.4 40 270.7 40.4 271.3 40.4 C 271.9 40.4 272.5 40.1 272.4 38.3 C 271.6 38.3 270.4 38.2 270.4 39.4 Z M 272.5 40.3 C 272.5 40.3 272.44 40.26 272.4 40.3 C 272.2 40.9 271.7 41.2 271 41.2 C 269.9 41.2 269.5 40.4 269.5 39.3 C 269.5 37.7 271.2 37.6 272.4 37.6 C 272.5 36.9 272.5 36.1 271.5 36.1 C 270.9 36.1 270.6 36.5 270.6 37.1 C 270.6 37.1 269.7 37.1 269.7 37.1 C 269.7 35.8 270.4 35.4 271.5 35.4 C 273 35.4 273.3 36.1 273.3 37.1 C 273.3 37.1 273.3 39.7 273.3 39.7 C 273.3 40.2 273.4 40.6 273.5 41.1 C 273.46 41.06 272.5 41.1 272.5 41.1 L 272.5 40.3 Z M 276 36.3 C 276 36.3 276.06 36.34 276.1 36.3 C 276.4 35.5 276.9 35.4 277.8 35.4 C 277.8 35.4 277.8 36.3 277.8 36.3 C 277.7 36.3 277.6 36.3 277.5 36.3 C 277.5 36.3 277.4 36.3 277.3 36.3 C 276.3 36.3 276 37 276 37.8 C 276.04 37.78 276 41.1 276 41.1 L 275.1 41.1 L 275.1 35.5 L 276 35.5 L 276 36.3 Z M 279.6 39.4 C 279.6 40 279.9 40.4 280.5 40.4 C 281 40.4 281.7 40.1 281.6 38.3 C 280.7 38.3 279.6 38.2 279.6 39.4 Z M 281.6 40.3 C 281.6 40.3 281.61 40.26 281.6 40.3 C 281.3 40.9 280.9 41.2 280.2 41.2 C 279 41.2 278.7 40.4 278.7 39.3 C 278.7 37.7 280.3 37.6 281.6 37.6 C 281.6 36.9 281.6 36.1 280.7 36.1 C 280.1 36.1 279.7 36.5 279.8 37.1 C 279.8 37.1 278.8 37.1 278.8 37.1 C 278.9 35.8 279.5 35.4 280.7 35.4 C 282.1 35.4 282.5 36.1 282.5 37.1 C 282.5 37.1 282.5 39.7 282.5 39.7 C 282.5 40.2 282.6 40.6 282.6 41.1 C 282.62 41.06 281.6 41.1 281.6 41.1 L 281.6 40.3 Z M 286.2 36.1 C 285.2 36.1 285.1 36.9 285.1 38.4 C 285.1 39.2 285.1 40.4 286.2 40.4 C 287.2 40.4 287.2 39.2 287.2 38.1 C 287.2 37.3 287.2 36.1 286.2 36.1 Z M 287.2 33.1 L 288.1 33.1 L 288.1 41.1 L 287.2 41.1 L 287.2 40.4 C 287.2 40.4 287.18 40.4 287.2 40.4 C 286.9 40.9 286.5 41.2 285.9 41.2 C 285 41.2 284.1 40.8 284.1 38.4 C 284.1 37 284.2 35.4 286 35.4 C 286.5 35.4 286.9 35.6 287.2 36.1 C 287.17 36.07 287.2 36.1 287.2 36.1 L 287.2 33.1 Z M 290.6 39.4 C 290.6 40 290.9 40.4 291.5 40.4 C 292 40.4 292.7 40.1 292.6 38.3 C 291.7 38.3 290.6 38.2 290.6 39.4 Z M 292.6 40.3 C 292.6 40.3 292.61 40.26 292.6 40.3 C 292.3 40.9 291.9 41.2 291.2 41.2 C 290 41.2 289.7 40.4 289.7 39.3 C 289.7 37.7 291.3 37.6 292.6 37.6 C 292.6 36.9 292.6 36.1 291.7 36.1 C 291.1 36.1 290.7 36.5 290.8 37.1 C 290.8 37.1 289.8 37.1 289.8 37.1 C 289.9 35.8 290.5 35.4 291.7 35.4 C 293.1 35.4 293.5 36.1 293.5 37.1 C 293.5 37.1 293.5 39.7 293.5 39.7 C 293.5 40.2 293.6 40.6 293.6 41.1 C 293.62 41.06 292.6 41.1 292.6 41.1 L 292.6 40.3 Z M 298.2 37.3 C 298.2 36.4 297.7 36.1 297.4 36.1 C 296.7 36.1 296.2 36.5 296.2 38 C 296.2 39.8 296.5 40.4 297.4 40.4 C 297.6 40.4 298.2 40.2 298.2 39.2 C 298.2 39.2 299.2 39.2 299.2 39.2 C 299.2 40.8 298 41.2 297.4 41.2 C 296.2 41.2 295.3 40.8 295.3 38.4 C 295.3 36.7 295.5 35.4 297.4 35.4 C 298.5 35.4 299.2 36 299.1 37.3 C 299.1 37.3 298.2 37.3 298.2 37.3 Z M 301.6 41.1 L 300.7 41.1 L 300.7 35.5 L 301.6 35.5 L 301.6 41.1 Z M 300.7 33.1 L 301.7 33.1 L 301.7 34.1 L 300.7 34.1 L 300.7 33.1 Z M 305.9 41.1 C 305.9 41.1 305.94 37.21 305.9 37.2 C 305.9 36.6 305.8 36.1 305.1 36.1 C 304.8 36.1 304.4 36.3 304.3 36.5 C 304.1 36.8 304.1 37.1 304.1 37.3 C 304.07 37.32 304.1 41.1 304.1 41.1 L 303.2 41.1 C 303.2 41.1 303.17 36.66 303.2 36.7 C 303.2 36.3 303.1 35.9 303.1 35.5 C 303.11 35.51 304.1 35.5 304.1 35.5 L 304.1 36.2 C 304.1 36.2 304.09 36.2 304.1 36.2 C 304.4 35.6 304.8 35.4 305.5 35.4 C 306 35.4 306.6 35.6 306.8 36.1 C 307.1 35.5 307.6 35.4 308.1 35.4 C 308.7 35.4 309.6 35.5 309.6 36.8 C 309.61 36.84 309.6 41.1 309.6 41.1 L 308.7 41.1 C 308.7 41.1 308.71 37.21 308.7 37.2 C 308.7 36.6 308.6 36.1 307.8 36.1 C 307.5 36.1 307.4 36.1 307.1 36.3 C 306.9 36.6 306.8 37.1 306.8 37.3 C 306.84 37.32 306.8 41.1 306.8 41.1 L 305.9 41.1 Z M 312 39.4 C 312 40 312.2 40.4 312.8 40.4 C 313.4 40.4 314.1 40.1 314 38.3 C 313.1 38.3 312 38.2 312 39.4 Z M 314 40.3 C 314 40.3 313.99 40.26 314 40.3 C 313.7 40.9 313.3 41.2 312.6 41.2 C 311.4 41.2 311.1 40.4 311.1 39.3 C 311.1 37.7 312.7 37.6 314 37.6 C 314 36.9 314 36.1 313.1 36.1 C 312.5 36.1 312.1 36.5 312.2 37.1 C 312.2 37.1 311.2 37.1 311.2 37.1 C 311.3 35.8 311.9 35.4 313.1 35.4 C 314.5 35.4 314.9 36.1 314.9 37.1 C 314.9 37.1 314.9 39.7 314.9 39.7 C 314.9 40.2 314.9 40.6 315 41.1 C 315 41.06 314 41.1 314 41.1 L 314 40.3 Z M 318.6 40.4 C 319.8 40.4 319.8 39.2 319.8 38.4 C 319.8 36.9 319.6 36.1 318.7 36.1 C 317.7 36.1 317.6 37.3 317.6 38.1 C 317.6 38.9 317.5 40.4 318.6 40.4 Z M 317.6 41.1 L 316.7 41.1 L 316.7 33.1 L 317.6 33.1 L 317.6 36.1 C 317.6 36.1 317.66 36.07 317.7 36.1 C 318 35.6 318.4 35.4 318.9 35.4 C 320.7 35.4 320.7 37 320.7 38.4 C 320.7 40.8 319.8 41.2 318.9 41.2 C 318.3 41.2 318 40.9 317.7 40.4 C 317.65 40.4 317.6 40.4 317.6 40.4 L 317.6 41.1 Z " stroke="none" fill="#828281"/>  </g>  <g id="Polygon196185">    <path d="M 0.1 23.4 L 2.1 16.2 L 4.1 16.2 L 6 23.4 L 4.4 23.4 L 4 21.8 L 2 21.8 L 1.6 23.4 L 0.1 23.4 Z M 3 17.6 L 3 17.6 L 2.3 20.7 L 3.7 20.7 L 3 17.6 Z M 9.3 20.9 C 9.3 19.9 9.3 19.2 8.6 19.2 C 8.1 19.2 8.1 19.9 8.1 20.9 C 8.1 22.1 8.2 22.7 8.6 22.7 C 9.2 22.7 9.3 22.1 9.3 20.9 Z M 6.7 16.2 L 8.1 16.2 L 8.1 18.9 C 8.1 18.9 8.1 18.86 8.1 18.9 C 8.4 18.4 8.7 18.3 9.3 18.3 C 10.7 18.3 10.6 19.9 10.6 20.9 C 10.6 21.9 10.7 23.5 9.2 23.5 C 8.7 23.5 8.3 23.4 8 22.9 C 8.03 22.87 8 22.9 8 22.9 L 8 23.4 L 6.7 23.4 L 6.7 16.2 Z M 14.3 20.9 C 14.3 19.9 14.3 19.2 13.6 19.2 C 13.1 19.2 13.1 19.9 13.1 20.9 C 13.1 22.1 13.2 22.7 13.6 22.7 C 14.2 22.7 14.3 22.1 14.3 20.9 Z M 11.7 16.2 L 13.1 16.2 L 13.1 18.9 C 13.1 18.9 13.1 18.86 13.1 18.9 C 13.4 18.4 13.7 18.3 14.3 18.3 C 15.7 18.3 15.6 19.9 15.6 20.9 C 15.6 21.9 15.7 23.5 14.2 23.5 C 13.7 23.5 13.3 23.4 13 22.9 C 13.03 22.87 13 22.9 13 22.9 L 13 23.4 L 11.7 23.4 L 11.7 16.2 Z M 18 18.4 L 18 19 C 18 19 18.03 19.03 18 19 C 18.3 18.5 18.8 18.3 19.3 18.3 C 19.3 18.3 19.3 19.5 19.3 19.5 C 18.1 19.5 18.1 20.2 18.1 20.7 C 18.08 20.68 18.1 23.4 18.1 23.4 L 16.7 23.4 L 16.7 18.4 L 18 18.4 Z M 22.6 20.3 C 22.6 19.9 22.6 19.2 21.9 19.2 C 21.3 19.2 21.3 19.9 21.3 20.3 C 21.3 20.3 22.6 20.3 22.6 20.3 Z M 21.3 21.1 C 21.3 21.7 21.3 22.6 21.9 22.6 C 22.4 22.6 22.5 22.2 22.5 21.7 C 22.5 21.7 24 21.7 24 21.7 C 23.9 22.3 23.8 22.7 23.4 23 C 23.1 23.4 22.6 23.5 21.9 23.5 C 20.1 23.5 19.9 22.4 19.9 20.8 C 19.9 19.5 20.1 18.3 21.9 18.3 C 23.8 18.3 24 19.5 24 21.1 C 24 21.1 21.3 21.1 21.3 21.1 Z M 24.5 18.4 L 26 18.4 L 26.7 22.2 L 26.7 22.2 L 27.4 18.4 L 28.8 18.4 L 27.4 23.4 L 25.9 23.4 L 24.5 18.4 Z M 31 23.4 L 29.6 23.4 L 29.6 18.4 L 31 18.4 L 31 23.4 Z M 31 16.2 L 31 17.3 L 29.6 17.3 L 29.6 16.2 L 31 16.2 Z M 33.4 21.9 C 33.4 22.2 33.5 22.7 34 22.7 C 34.8 22.7 34.7 21.5 34.7 21 C 34 21 33.4 21 33.4 21.9 Z M 36 22.5 C 36 22.8 36.1 23.1 36.1 23.4 C 36.12 23.43 34.8 23.4 34.8 23.4 L 34.8 22.8 C 34.8 22.8 34.73 22.76 34.7 22.8 C 34.4 23.3 34 23.5 33.4 23.5 C 32.4 23.5 32.1 22.8 32.1 21.9 C 32.1 20.3 33.4 20.2 34.7 20.2 C 34.7 20.2 34.7 19.8 34.7 19.8 C 34.7 19.4 34.6 19.1 34.1 19.1 C 33.6 19.1 33.6 19.4 33.6 19.8 C 33.6 19.8 32.2 19.8 32.2 19.8 C 32.2 19.2 32.4 18.8 32.7 18.6 C 33 18.4 33.5 18.3 34 18.3 C 35.8 18.3 36 19.1 36 20 C 36 20 36 22.5 36 22.5 Z M 36.7 18.4 L 37.2 18.4 L 37.2 17.6 L 38.6 17 L 38.6 18.4 L 39.4 18.4 L 39.4 19.3 L 38.6 19.3 C 38.6 19.3 38.63 21.95 38.6 22 C 38.6 22.3 38.6 22.6 39.1 22.6 C 39.2 22.6 39.3 22.6 39.3 22.6 C 39.3 22.6 39.3 23.4 39.3 23.4 C 39.1 23.5 38.9 23.5 38.6 23.5 C 37.4 23.5 37.2 22.7 37.2 22.4 C 37.22 22.36 37.2 19.3 37.2 19.3 L 36.7 19.3 L 36.7 18.4 Z M 41.5 23.4 L 40.1 23.4 L 40.1 18.4 L 41.5 18.4 L 41.5 23.4 Z M 41.5 16.2 L 41.5 17.3 L 40.1 17.3 L 40.1 16.2 L 41.5 16.2 Z M 45.4 20.8 C 45.4 19.7 45.3 19.2 44.7 19.2 C 44.1 19.2 44.1 19.7 44.1 20.8 C 44.1 22.3 44.2 22.6 44.7 22.6 C 45.2 22.6 45.4 22.3 45.4 20.8 Z M 42.7 20.8 C 42.7 19.5 42.9 18.3 44.7 18.3 C 46.6 18.3 46.8 19.5 46.8 20.8 C 46.8 22.4 46.5 23.5 44.7 23.5 C 42.9 23.5 42.7 22.4 42.7 20.8 Z M 49.2 18.9 C 49.2 18.9 49.21 18.89 49.2 18.9 C 49.3 18.7 49.5 18.5 49.7 18.4 C 49.9 18.3 50.1 18.3 50.4 18.3 C 51.1 18.3 51.7 18.7 51.7 19.4 C 51.66 19.38 51.7 23.4 51.7 23.4 L 50.3 23.4 C 50.3 23.4 50.25 19.95 50.3 20 C 50.3 19.5 50.2 19.2 49.7 19.2 C 49.3 19.2 49.2 19.5 49.2 20 C 49.19 19.95 49.2 23.4 49.2 23.4 L 47.8 23.4 L 47.8 18.4 L 49.2 18.4 L 49.2 18.9 Z M 53.9 21.8 C 53.9 22 53.9 22.3 54 22.4 C 54 22.6 54.2 22.7 54.5 22.7 C 54.8 22.7 55 22.5 55 22.1 C 55 21.1 52.5 21.3 52.5 19.7 C 52.5 18.6 53.6 18.3 54.5 18.3 C 55.5 18.3 56.3 18.7 56.2 19.8 C 56.2 19.8 54.9 19.8 54.9 19.8 C 54.9 19.5 54.8 19.3 54.7 19.2 C 54.6 19.1 54.5 19.1 54.4 19.1 C 54.1 19.1 53.9 19.3 53.9 19.6 C 53.9 20.4 56.4 20.4 56.4 22 C 56.4 22.9 55.6 23.5 54.5 23.5 C 53.2 23.5 52.4 23.2 52.5 21.8 C 52.5 21.8 53.9 21.8 53.9 21.8 Z M 58.4 18.4 L 58.4 19.7 L 57.2 19.7 L 57.2 18.4 L 58.4 18.4 Z M 58.4 23.4 L 57.2 23.4 L 57.2 22.1 L 58.4 22.1 L 58.4 23.4 Z M 62 23.4 L 62 16.2 L 62.9 16.2 L 62.9 19.3 L 65.4 19.3 L 65.4 16.2 L 66.3 16.2 L 66.3 23.4 L 65.4 23.4 L 65.4 20.1 L 62.9 20.1 L 62.9 23.4 L 62 23.4 Z M 69.6 16.2 L 70.8 16.2 L 73.2 23.4 L 72.1 23.4 L 71.6 21.7 L 68.8 21.7 L 68.3 23.4 L 67.4 23.4 L 69.6 16.2 Z M 70.2 17.1 L 70.2 17.1 L 69.1 20.9 L 71.4 20.9 L 70.2 17.1 Z M 74.1 23.4 L 74.1 16.2 L 77.8 16.2 L 77.8 17 L 75 17 L 75 19.3 L 77.6 19.3 L 77.6 20.1 L 75 20.1 L 75 22.6 L 77.9 22.6 L 77.9 23.4 L 74.1 23.4 Z M 79.2 22.4 L 80.2 22.4 L 79.3 24.7 L 78.7 24.7 L 79.2 22.4 Z M 86.2 23.4 C 86.2 23.4 86.22 20.01 86.2 20 C 86.2 19.4 86 19 85.3 19 C 84.5 19 84.3 19.6 84.3 20.5 C 84.29 20.46 84.3 23.4 84.3 23.4 L 83.5 23.4 L 83.5 16.2 L 84.3 16.2 L 84.3 19 C 84.3 19 84.33 19.03 84.3 19 C 84.7 18.4 85 18.3 85.7 18.3 C 86.6 18.3 87 18.7 87 19.9 C 87.04 19.85 87 23.4 87 23.4 L 86.2 23.4 Z M 91.2 20.6 C 91.2 19.1 90.8 18.9 90.2 18.9 C 89.7 18.9 89.3 19.2 89.3 20.6 C 89.3 20.6 91.2 20.6 91.2 20.6 Z M 89.3 21.2 C 89.3 22.6 89.7 22.9 90.3 22.9 C 90.9 22.9 91.1 22.4 91.2 21.9 C 91.2 21.9 92.1 21.9 92.1 21.9 C 92.1 23 91.4 23.5 90.3 23.5 C 89.2 23.5 88.4 23.2 88.4 21 C 88.4 19.5 88.6 18.3 90.3 18.3 C 91.8 18.3 92.1 19.1 92.1 20.7 C 92.12 20.74 92.1 21.2 92.1 21.2 C 92.1 21.2 89.28 21.17 89.3 21.2 Z M 94.3 19.1 C 94.3 19.1 94.35 19.14 94.3 19.1 C 94.7 18.4 95.1 18.3 95.9 18.3 C 95.9 18.3 95.9 19.1 95.9 19.1 C 95.8 19.1 95.8 19.1 95.7 19.1 C 95.6 19.1 95.5 19.1 95.5 19.1 C 94.6 19.1 94.3 19.8 94.3 20.5 C 94.33 20.45 94.3 23.4 94.3 23.4 L 93.5 23.4 L 93.5 18.4 L 94.3 18.4 L 94.3 19.1 Z M 99.6 20.6 C 99.6 19.1 99.2 18.9 98.6 18.9 C 98 18.9 97.6 19.2 97.6 20.6 C 97.6 20.6 99.6 20.6 99.6 20.6 Z M 97.6 21.2 C 97.6 22.6 98 22.9 98.6 22.9 C 99.2 22.9 99.5 22.4 99.5 21.9 C 99.5 21.9 100.4 21.9 100.4 21.9 C 100.4 23 99.7 23.5 98.6 23.5 C 97.6 23.5 96.7 23.2 96.7 21 C 96.7 19.5 96.9 18.3 98.6 18.3 C 100.1 18.3 100.4 19.1 100.4 20.7 C 100.45 20.74 100.4 21.2 100.4 21.2 C 100.4 21.2 97.61 21.17 97.6 21.2 Z M 103.5 19 C 102.6 19 102.5 19.7 102.5 21 C 102.5 21.8 102.5 22.9 103.6 22.9 C 104.5 22.9 104.5 21.7 104.5 20.7 C 104.5 20 104.4 19 103.5 19 Z M 104.5 16.2 L 105.3 16.2 L 105.3 23.4 L 104.5 23.4 L 104.5 22.8 C 104.5 22.8 104.46 22.83 104.5 22.8 C 104.2 23.3 103.8 23.5 103.3 23.5 C 102.5 23.5 101.7 23.2 101.7 21 C 101.7 19.7 101.7 18.3 103.3 18.3 C 103.8 18.3 104.2 18.5 104.4 18.9 C 104.45 18.89 104.5 18.9 104.5 18.9 L 104.5 16.2 Z M 107.6 23.4 L 106.8 23.4 L 106.8 18.4 L 107.6 18.4 L 107.6 23.4 Z M 106.7 16.2 L 107.7 16.2 L 107.7 17.1 L 106.7 17.1 L 106.7 16.2 Z M 109.1 18.4 L 109.1 17.4 L 109.9 17 L 109.9 18.4 L 111 18.4 L 111 19 L 109.9 19 C 109.9 19 109.94 22.09 109.9 22.1 C 109.9 22.4 109.9 22.8 110.7 22.8 C 110.7 22.8 110.9 22.8 111.1 22.8 C 111.1 22.8 111.1 23.4 111.1 23.4 C 110.8 23.4 110.5 23.5 110.2 23.5 C 109.5 23.5 109.1 23.2 109.1 22.6 C 109.12 22.59 109.1 19 109.1 19 L 108.3 19 L 108.3 18.4 L 109.1 18.4 Z M 112.6 21.9 C 112.6 22.4 112.8 22.9 113.3 22.9 C 113.8 22.9 114.5 22.6 114.4 20.9 C 113.6 20.9 112.6 20.9 112.6 21.9 Z M 114.4 22.7 C 114.4 22.7 114.39 22.7 114.4 22.7 C 114.1 23.3 113.7 23.5 113.1 23.5 C 112 23.5 111.7 22.8 111.7 21.9 C 111.7 20.3 113.2 20.3 114.4 20.3 C 114.4 19.6 114.4 18.9 113.5 18.9 C 113 18.9 112.7 19.3 112.7 19.8 C 112.7 19.8 111.9 19.8 111.9 19.8 C 111.9 18.7 112.5 18.3 113.6 18.3 C 114.9 18.3 115.2 19 115.2 19.8 C 115.2 19.8 115.2 22.2 115.2 22.2 C 115.2 22.6 115.2 23 115.3 23.4 C 115.31 23.43 114.4 23.4 114.4 23.4 L 114.4 22.7 Z M 117.7 19.1 C 117.7 19.1 117.68 19.14 117.7 19.1 C 118 18.4 118.4 18.3 119.2 18.3 C 119.2 18.3 119.2 19.1 119.2 19.1 C 119.2 19.1 119.1 19.1 119 19.1 C 118.9 19.1 118.9 19.1 118.8 19.1 C 117.9 19.1 117.7 19.8 117.7 20.5 C 117.66 20.45 117.7 23.4 117.7 23.4 L 116.8 23.4 L 116.8 18.4 L 117.7 18.4 L 117.7 19.1 Z M 121.7 22.5 L 121.7 22.5 L 122.9 18.4 L 123.8 18.4 L 121.5 25.3 L 120.6 25.3 L 121.2 23.4 L 119.5 18.4 L 120.4 18.4 L 121.7 22.5 Z M 127.5 21.9 C 127.5 22.4 127.8 22.9 128.3 22.9 C 128.8 22.9 129.5 22.6 129.4 20.9 C 128.6 20.9 127.5 20.9 127.5 21.9 Z M 129.4 22.7 C 129.4 22.7 129.38 22.7 129.4 22.7 C 129.1 23.3 128.7 23.5 128.1 23.5 C 127 23.5 126.7 22.8 126.7 21.9 C 126.7 20.3 128.2 20.3 129.4 20.3 C 129.4 19.6 129.4 18.9 128.5 18.9 C 128 18.9 127.7 19.3 127.7 19.8 C 127.7 19.8 126.8 19.8 126.8 19.8 C 126.9 18.7 127.5 18.3 128.6 18.3 C 129.9 18.3 130.2 19 130.2 19.8 C 130.2 19.8 130.2 22.2 130.2 22.2 C 130.2 22.6 130.2 23 130.3 23.4 C 130.3 23.43 129.4 23.4 129.4 23.4 L 129.4 22.7 Z M 134.5 23.4 C 134.5 23.4 134.54 19.93 134.5 19.9 C 134.5 19.4 134.3 19 133.6 19 C 132.7 19 132.6 19.8 132.6 20.4 C 132.62 20.44 132.6 23.4 132.6 23.4 L 131.8 23.4 C 131.8 23.4 131.8 19.43 131.8 19.4 C 131.8 19.1 131.8 18.7 131.7 18.4 C 131.75 18.38 132.6 18.4 132.6 18.4 L 132.6 19 C 132.6 19 132.66 19.03 132.7 19 C 133 18.5 133.4 18.3 134 18.3 C 135.1 18.3 135.4 18.9 135.4 19.9 C 135.36 19.93 135.4 23.4 135.4 23.4 L 134.5 23.4 Z M 138.5 19 C 137.6 19 137.5 20.1 137.5 20.8 C 137.5 22.4 137.9 22.8 138.5 22.8 C 139.5 22.8 139.5 21.6 139.5 20.9 C 139.5 20.1 139.5 19 138.5 19 Z M 139.5 18.4 L 140.3 18.4 C 140.3 18.4 140.29 23.94 140.3 23.9 C 140.3 25.1 139.5 25.3 138.4 25.3 C 137.6 25.3 136.8 24.9 136.9 24 C 136.9 24 137.8 24 137.8 24 C 137.8 24.5 138.1 24.7 138.6 24.7 C 139.2 24.7 139.5 24.4 139.5 23.9 C 139.47 23.85 139.5 22.8 139.5 22.8 C 139.5 22.8 139.44 22.8 139.4 22.8 C 139.2 23.2 138.8 23.4 138.3 23.4 C 137 23.4 136.7 22.3 136.7 20.8 C 136.7 18.4 137.9 18.3 138.3 18.3 C 138.8 18.3 139.2 18.5 139.4 19 C 139.45 19 139.5 19 139.5 19 L 139.5 18.4 Z M 142.6 23.4 L 141.8 23.4 L 141.8 18.4 L 142.6 18.4 L 142.6 23.4 Z M 141.7 16.2 L 142.6 16.2 L 142.6 17.1 L 141.7 17.1 L 141.7 16.2 Z M 146.9 20.6 C 146.9 19.3 146.4 19 145.8 19 C 145.2 19 144.7 19.3 144.7 20.6 C 144.7 22.3 144.9 22.9 145.8 22.9 C 146.6 22.9 146.9 22.3 146.9 20.6 Z M 143.9 21 C 143.9 19.5 144 18.3 145.8 18.3 C 147.5 18.3 147.7 19.5 147.7 21 C 147.7 23.2 146.9 23.5 145.8 23.5 C 144.7 23.5 143.9 23.2 143.9 21 Z M 151.8 20.6 C 151.8 19.1 151.4 18.9 150.8 18.9 C 150.3 18.9 149.8 19.2 149.8 20.6 C 149.8 20.6 151.8 20.6 151.8 20.6 Z M 149.8 21.2 C 149.8 22.6 150.2 22.9 150.8 22.9 C 151.4 22.9 151.7 22.4 151.7 21.9 C 151.7 21.9 152.6 21.9 152.6 21.9 C 152.6 23 151.9 23.5 150.9 23.5 C 149.8 23.5 148.9 23.2 148.9 21 C 148.9 19.5 149.1 18.3 150.9 18.3 C 152.3 18.3 152.7 19.1 152.7 20.7 C 152.66 20.74 152.7 21.2 152.7 21.2 C 152.7 21.2 149.82 21.17 149.8 21.2 Z M 155.7 19 C 154.9 19 154.7 19.7 154.7 21 C 154.7 21.8 154.7 22.9 155.8 22.9 C 156.7 22.9 156.7 21.7 156.7 20.7 C 156.7 20 156.6 19 155.7 19 Z M 156.7 16.2 L 157.5 16.2 L 157.5 23.4 L 156.7 23.4 L 156.7 22.8 C 156.7 22.8 156.67 22.83 156.7 22.8 C 156.4 23.3 156 23.5 155.5 23.5 C 154.7 23.5 153.9 23.2 153.9 21 C 153.9 19.7 153.9 18.3 155.5 18.3 C 156 18.3 156.4 18.5 156.7 18.9 C 156.66 18.89 156.7 18.9 156.7 18.9 L 156.7 16.2 Z M 161.8 20.6 C 161.8 19.1 161.4 18.9 160.8 18.9 C 160.3 18.9 159.8 19.2 159.8 20.6 C 159.8 20.6 161.8 20.6 161.8 20.6 Z M 159.8 21.2 C 159.8 22.6 160.2 22.9 160.8 22.9 C 161.4 22.9 161.7 22.4 161.7 21.9 C 161.7 21.9 162.6 21.9 162.6 21.9 C 162.6 23 161.9 23.5 160.9 23.5 C 159.8 23.5 158.9 23.2 158.9 21 C 158.9 19.5 159.1 18.3 160.9 18.3 C 162.3 18.3 162.7 19.1 162.7 20.7 C 162.66 20.74 162.7 21.2 162.7 21.2 C 162.7 21.2 159.82 21.17 159.8 21.2 Z M 166.5 23.4 C 166.5 23.4 166.5 19.93 166.5 19.9 C 166.5 19.4 166.4 19 165.7 19 C 165.4 19 165.1 19.1 165 19.3 C 164.8 19.5 164.8 19.8 164.8 20 C 164.8 20.03 164.8 23.4 164.8 23.4 L 164 23.4 C 164 23.4 163.98 19.43 164 19.4 C 164 19.1 164 18.7 163.9 18.4 C 163.93 18.38 164.8 18.4 164.8 18.4 L 164.8 19 C 164.8 19 164.82 19.01 164.8 19 C 165.1 18.5 165.5 18.3 166.1 18.3 C 166.5 18.3 167.1 18.5 167.3 18.9 C 167.5 18.4 168 18.3 168.5 18.3 C 169 18.3 169.8 18.4 169.8 19.6 C 169.84 19.59 169.8 23.4 169.8 23.4 L 169 23.4 C 169 23.4 169.02 19.93 169 19.9 C 169 19.4 168.9 19 168.2 19 C 167.9 19 167.8 19 167.6 19.1 C 167.4 19.3 167.3 19.8 167.3 20 C 167.32 20.03 167.3 23.4 167.3 23.4 L 166.5 23.4 Z M 172 21.9 C 172 22.4 172.2 22.9 172.8 22.9 C 173.3 22.9 173.9 22.6 173.8 20.9 C 173 20.9 172 20.9 172 21.9 Z M 173.8 22.7 C 173.8 22.7 173.82 22.7 173.8 22.7 C 173.6 23.3 173.2 23.5 172.5 23.5 C 171.5 23.5 171.2 22.8 171.2 21.9 C 171.2 20.3 172.7 20.3 173.8 20.3 C 173.8 19.6 173.8 18.9 173 18.9 C 172.4 18.9 172.1 19.3 172.2 19.8 C 172.2 19.8 171.3 19.8 171.3 19.8 C 171.3 18.7 171.9 18.3 173 18.3 C 174.3 18.3 174.6 19 174.6 19.8 C 174.6 19.8 174.6 22.2 174.6 22.2 C 174.6 22.6 174.7 23 174.7 23.4 C 174.74 23.43 173.8 23.4 173.8 23.4 L 173.8 22.7 Z M 177.1 23.4 L 176.2 23.4 L 176.2 22.4 L 177.1 22.4 L 177.1 23.4 Z " stroke="none" fill="#828281"/>  </g></svg>