<?xml version="1.0" standalone="no"?><!DOCTYPE svg PUBLIC "-//W3C//DTD SVG 1.1//EN" "http://www.w3.org/Graphics/SVG/1.1/DTD/svg11.dtd"><svg xmlns="http://www.w3.org/2000/svg" version="1.1" width="242.4px" height="48.3px" viewBox="0 0 242.4 48.3">  <desc>Placebo once monthly (s.c.)*</desc>  <defs/>  <g id="Polygon194625">    <path d="M 33.2 21.2 C 33.2 21.2 34.57 21.16 34.6 21.2 C 35.3 21.2 35.8 20.4 35.8 19.6 C 35.8 18.7 35.5 17.9 34.4 17.9 C 34.44 17.91 33.2 17.9 33.2 17.9 L 33.2 21.2 Z M 30.9 16.2 C 30.9 16.2 35.15 16.17 35.2 16.2 C 37.3 16.2 38.2 17.5 38.2 19.6 C 38.2 20.9 37.8 22.9 35 22.9 C 35.01 22.9 33.2 22.9 33.2 22.9 L 33.2 27.5 L 30.9 27.5 L 30.9 16.2 Z M 41.9 16.2 L 41.9 27.5 L 39.7 27.5 L 39.7 16.2 L 41.9 16.2 Z M 45.8 25.1 C 45.8 25.6 45.9 26.3 46.6 26.3 C 47.9 26.3 47.7 24.6 47.7 23.7 C 46.6 23.7 45.8 23.6 45.8 25.1 Z M 49.9 26.1 C 49.9 26.5 50 27 50 27.5 C 50 27.53 47.9 27.5 47.9 27.5 L 47.8 26.5 C 47.8 26.5 47.82 26.48 47.8 26.5 C 47.3 27.3 46.7 27.7 45.7 27.7 C 44.2 27.7 43.6 26.5 43.6 25.2 C 43.6 22.5 45.7 22.4 47.7 22.4 C 47.7 22.4 47.7 21.8 47.7 21.8 C 47.7 21.2 47.6 20.7 46.8 20.7 C 46.1 20.7 46 21.3 46 21.9 C 46 21.9 43.8 21.9 43.8 21.9 C 43.8 20.9 44.1 20.3 44.6 19.9 C 45.1 19.6 45.9 19.4 46.7 19.4 C 49.5 19.4 49.9 20.6 49.9 22.1 C 49.9 22.1 49.9 26.1 49.9 26.1 Z M 55.8 22.4 C 55.8 21.2 55.5 20.8 54.8 20.8 C 53.8 20.8 53.8 21.7 53.8 23.3 C 53.8 25.8 54 26.3 54.8 26.3 C 55.5 26.3 55.8 25.6 55.8 24.6 C 55.8 24.6 58 24.6 58 24.6 C 58 26.8 56.9 27.7 54.8 27.7 C 51.9 27.7 51.5 25.9 51.5 23.5 C 51.5 21.3 51.9 19.4 54.8 19.4 C 56.8 19.4 58 20.3 58 22.4 C 58 22.4 55.8 22.4 55.8 22.4 Z M 63.7 22.7 C 63.7 21.9 63.7 20.8 62.7 20.8 C 61.6 20.8 61.6 22 61.6 22.7 C 61.6 22.7 63.7 22.7 63.7 22.7 Z M 61.6 23.9 C 61.6 24.9 61.7 26.3 62.7 26.3 C 63.4 26.3 63.6 25.5 63.6 24.9 C 63.6 24.9 65.8 24.9 65.8 24.9 C 65.8 25.7 65.5 26.4 65 26.9 C 64.5 27.4 63.7 27.7 62.7 27.7 C 59.8 27.7 59.4 25.9 59.4 23.5 C 59.4 21.3 59.7 19.4 62.7 19.4 C 65.6 19.4 66 21.4 65.9 23.9 C 65.9 23.9 61.6 23.9 61.6 23.9 Z M 71.5 23.5 C 71.5 21.9 71.5 20.8 70.6 20.8 C 69.7 20.8 69.7 21.9 69.7 23.5 C 69.7 25.5 69.8 26.3 70.6 26.3 C 71.4 26.3 71.5 25.5 71.5 23.5 Z M 67.5 16.2 L 69.7 16.2 L 69.7 20.3 C 69.7 20.3 69.72 20.34 69.7 20.3 C 70.2 19.7 70.7 19.4 71.5 19.4 C 73.8 19.4 73.7 21.9 73.7 23.5 C 73.7 25.1 73.8 27.7 71.5 27.7 C 70.6 27.7 70 27.4 69.6 26.6 C 69.61 26.65 69.6 26.6 69.6 26.6 L 69.6 27.5 L 67.5 27.5 L 67.5 16.2 Z M 79.4 23.3 C 79.4 21.7 79.3 20.8 78.4 20.8 C 77.4 20.8 77.4 21.7 77.4 23.3 C 77.4 25.8 77.6 26.3 78.4 26.3 C 79.2 26.3 79.4 25.8 79.4 23.3 Z M 75.2 23.5 C 75.2 21.3 75.5 19.4 78.4 19.4 C 81.3 19.4 81.6 21.3 81.6 23.5 C 81.6 25.9 81.3 27.7 78.4 27.7 C 75.5 27.7 75.2 25.9 75.2 23.5 Z M 90.8 23.3 C 90.8 21.7 90.7 20.8 89.8 20.8 C 88.8 20.8 88.7 21.7 88.7 23.3 C 88.7 25.8 88.9 26.3 89.8 26.3 C 90.6 26.3 90.8 25.8 90.8 23.3 Z M 86.5 23.5 C 86.5 21.3 86.8 19.4 89.8 19.4 C 92.7 19.4 93 21.3 93 23.5 C 93 25.9 92.6 27.7 89.8 27.7 C 86.9 27.7 86.5 25.9 86.5 23.5 Z M 96.8 20.4 C 96.8 20.4 96.82 20.39 96.8 20.4 C 97 20 97.3 19.8 97.6 19.6 C 97.9 19.5 98.3 19.4 98.7 19.4 C 99.7 19.4 100.7 20.1 100.7 21.2 C 100.67 21.16 100.7 27.5 100.7 27.5 L 98.5 27.5 C 98.5 27.5 98.45 22.05 98.5 22.1 C 98.5 21.3 98.3 20.8 97.6 20.8 C 96.9 20.8 96.8 21.3 96.8 22.1 C 96.78 22.05 96.8 27.5 96.8 27.5 L 94.6 27.5 L 94.6 19.6 L 96.8 19.6 L 96.8 20.4 Z M 106.5 22.4 C 106.5 21.2 106.2 20.8 105.5 20.8 C 104.5 20.8 104.5 21.7 104.5 23.3 C 104.5 25.8 104.7 26.3 105.5 26.3 C 106.2 26.3 106.5 25.6 106.5 24.6 C 106.5 24.6 108.7 24.6 108.7 24.6 C 108.7 26.8 107.6 27.7 105.5 27.7 C 102.6 27.7 102.2 25.9 102.2 23.5 C 102.2 21.3 102.6 19.4 105.5 19.4 C 107.5 19.4 108.7 20.3 108.7 22.4 C 108.7 22.4 106.5 22.4 106.5 22.4 Z M 114.4 22.7 C 114.4 21.9 114.4 20.8 113.4 20.8 C 112.3 20.8 112.3 22 112.3 22.7 C 112.3 22.7 114.4 22.7 114.4 22.7 Z M 112.3 23.9 C 112.3 24.9 112.4 26.3 113.4 26.3 C 114.1 26.3 114.3 25.5 114.3 24.9 C 114.3 24.9 116.5 24.9 116.5 24.9 C 116.5 25.7 116.2 26.4 115.7 26.9 C 115.2 27.4 114.4 27.7 113.4 27.7 C 110.5 27.7 110.1 25.9 110.1 23.5 C 110.1 21.3 110.4 19.4 113.4 19.4 C 116.3 19.4 116.7 21.4 116.6 23.9 C 116.6 23.9 112.3 23.9 112.3 23.9 Z M 123.7 20.4 C 123.7 20.4 123.74 20.38 123.7 20.4 C 124.2 19.7 124.8 19.4 125.6 19.4 C 126.4 19.4 127 19.8 127.4 20.4 C 127.9 19.7 128.5 19.4 129.5 19.4 C 130.5 19.4 131.4 20.1 131.4 21.2 C 131.43 21.16 131.4 27.5 131.4 27.5 L 129.2 27.5 C 129.2 27.5 129.22 22.05 129.2 22.1 C 129.2 21.3 129.1 20.8 128.4 20.8 C 127.7 20.8 127.5 21.3 127.5 22.1 C 127.55 22.05 127.5 27.5 127.5 27.5 L 125.4 27.5 C 125.4 27.5 125.38 22.05 125.4 22.1 C 125.4 21.3 125.2 20.8 124.5 20.8 C 123.8 20.8 123.7 21.3 123.7 22.1 C 123.71 22.05 123.7 27.5 123.7 27.5 L 121.5 27.5 L 121.5 19.6 L 123.7 19.6 L 123.7 20.4 Z M 137.1 23.3 C 137.1 21.7 137 20.8 136.1 20.8 C 135.1 20.8 135.1 21.7 135.1 23.3 C 135.1 25.8 135.3 26.3 136.1 26.3 C 136.9 26.3 137.1 25.8 137.1 23.3 Z M 132.8 23.5 C 132.8 21.3 133.1 19.4 136.1 19.4 C 139 19.4 139.3 21.3 139.3 23.5 C 139.3 25.9 138.9 27.7 136.1 27.7 C 133.2 27.7 132.8 25.9 132.8 23.5 Z M 143.1 20.4 C 143.1 20.4 143.14 20.39 143.1 20.4 C 143.4 20 143.6 19.8 143.9 19.6 C 144.2 19.5 144.6 19.4 145 19.4 C 146.1 19.4 147 20.1 147 21.2 C 146.99 21.16 147 27.5 147 27.5 L 144.8 27.5 C 144.8 27.5 144.78 22.05 144.8 22.1 C 144.8 21.3 144.7 20.8 143.9 20.8 C 143.2 20.8 143.1 21.3 143.1 22.1 C 143.11 22.05 143.1 27.5 143.1 27.5 L 140.9 27.5 L 140.9 19.6 L 143.1 19.6 L 143.1 20.4 Z M 147.9 19.6 L 148.8 19.6 L 148.8 18.3 L 151 17.3 L 151 19.6 L 152.1 19.6 L 152.1 21 L 151 21 C 151 21 150.97 25.2 151 25.2 C 151 25.8 151 26.2 151.7 26.2 C 151.8 26.2 152 26.2 152.1 26.2 C 152.1 26.2 152.1 27.5 152.1 27.5 C 151.8 27.6 151.5 27.6 150.9 27.6 C 149 27.6 148.8 26.3 148.8 25.8 C 148.76 25.85 148.8 21 148.8 21 L 147.9 21 L 147.9 19.6 Z M 157 27.5 C 157 27.5 157.02 22.05 157 22.1 C 157 21.3 156.9 20.8 156.2 20.8 C 155.5 20.8 155.3 21.3 155.3 22.1 C 155.35 22.05 155.3 27.5 155.3 27.5 L 153.1 27.5 L 153.1 16.2 L 155.3 16.2 L 155.3 20.4 C 155.3 20.4 155.38 20.39 155.4 20.4 C 155.6 20 155.9 19.8 156.2 19.6 C 156.5 19.5 156.8 19.4 157.3 19.4 C 158.3 19.4 159.2 20.1 159.2 21.2 C 159.24 21.16 159.2 27.5 159.2 27.5 L 157 27.5 Z M 163.4 16.2 L 163.4 27.5 L 161.2 27.5 L 161.2 16.2 L 163.4 16.2 Z M 166.8 27.6 L 164.6 19.6 L 166.8 19.6 L 168 25.2 L 168 25.2 L 169.2 19.6 L 171.3 19.6 L 168.3 30.5 L 165.9 30.5 L 166.8 27.6 Z M 178.4 15.6 C 177.9 17.6 177.4 19.9 177.4 22.4 C 177.4 25.2 178 27.4 178.4 29.4 C 178.4 29.4 177.2 29.4 177.2 29.4 C 176.4 27.2 175.5 24.7 175.5 22.4 C 175.5 20.1 176.5 17.3 177.2 15.6 C 177.2 15.6 178.4 15.6 178.4 15.6 Z M 182 25 C 182 25.3 182 25.7 182.1 25.9 C 182.2 26.2 182.4 26.3 182.9 26.3 C 183.3 26.3 183.7 26 183.7 25.5 C 183.7 23.8 179.8 24.2 179.8 21.7 C 179.8 19.9 181.5 19.4 182.9 19.4 C 184.4 19.4 185.8 20.1 185.7 21.9 C 185.7 21.9 183.5 21.9 183.5 21.9 C 183.5 21.3 183.5 21 183.3 20.8 C 183.2 20.7 183 20.7 182.7 20.7 C 182.2 20.7 182 21 182 21.5 C 182 22.8 185.9 22.7 185.9 25.3 C 185.9 26.6 184.7 27.7 182.9 27.7 C 181 27.7 179.7 27.2 179.8 25 C 179.8 25 182 25 182 25 Z M 189 25.5 L 189 27.5 L 187.1 27.5 L 187.1 25.5 L 189 25.5 Z M 194.8 22.4 C 194.8 21.2 194.5 20.8 193.8 20.8 C 192.8 20.8 192.7 21.7 192.7 23.3 C 192.7 25.8 192.9 26.3 193.8 26.3 C 194.5 26.3 194.8 25.6 194.8 24.6 C 194.8 24.6 197 24.6 197 24.6 C 197 26.8 195.8 27.7 193.8 27.7 C 190.9 27.7 190.5 25.9 190.5 23.5 C 190.5 21.3 190.8 19.4 193.8 19.4 C 195.8 19.4 197 20.3 197 22.4 C 197 22.4 194.8 22.4 194.8 22.4 Z M 200.4 25.5 L 200.4 27.5 L 198.5 27.5 L 198.5 25.5 L 200.4 25.5 Z M 202.1 29.4 C 202.6 27.5 203.2 25.1 203.2 22.7 C 203.2 19.9 202.5 17.6 202.1 15.6 C 202.1 15.6 203.4 15.6 203.4 15.6 C 204.1 17.9 205 20.4 205 22.7 C 205 25 204 27.8 203.4 29.4 C 203.4 29.4 202.1 29.4 202.1 29.4 Z M 208.2 22 L 206.8 21.2 L 208.2 19.4 L 206.1 19.7 L 206.1 18.1 L 208.2 18.4 L 206.9 16.7 L 208.3 16 L 209.1 17.9 L 209.8 16 L 211.2 16.7 L 209.9 18.4 L 212 18.1 L 212 19.7 L 209.9 19.4 L 211.3 21.2 L 209.9 22 L 209.1 19.8 L 208.2 22 Z " stroke="none" fill="#fff"/>  </g></svg>