<?xml version="1.0" standalone="no"?><!DOCTYPE svg PUBLIC "-//W3C//DTD SVG 1.1//EN" "http://www.w3.org/Graphics/SVG/1.1/DTD/svg11.dtd"><svg xmlns="http://www.w3.org/2000/svg" version="1.1" width="327.3px" height="63.7px" viewBox="0 -1 327.3 63.7" style="top:-1px">  <desc>Store refrigerated (2 8°C) in it’s carton, protected from light</desc>  <defs/>  <g id="Polygon203512">    <path d="M 5.3 40.5 C 5.3 38.8 5.4 37.6 4.3 37.6 C 3.3 37.6 3.3 38.8 3.3 40.5 C 3.3 42.6 3.5 43.5 4.3 43.5 C 5.2 43.5 5.3 42.6 5.3 40.5 Z M 3.2 36.3 L 3.2 37.2 C 3.2 37.2 3.26 37.22 3.3 37.2 C 3.7 36.4 4.4 36.1 5.3 36.1 C 7.8 36.1 7.7 38.9 7.7 40.6 C 7.7 42.4 7.8 45 5.3 45 C 4.5 45 3.9 44.8 3.4 44 C 3.38 44.04 3.3 44 3.3 44 L 3.3 48.5 L 1 48.5 L 1 36.3 L 3.2 36.3 Z M 11.7 36.3 L 11.7 37.4 C 11.7 37.4 11.76 37.37 11.8 37.4 C 12.2 36.4 13 36.1 14 36.1 C 14 36.1 14 38.2 14 38.2 C 11.9 38.1 11.8 39.3 11.8 40.2 C 11.85 40.18 11.8 44.9 11.8 44.9 L 9.5 44.9 L 9.5 36.3 L 11.7 36.3 Z M 19.5 40.3 C 19.5 38.5 19.4 37.6 18.4 37.6 C 17.4 37.6 17.3 38.5 17.3 40.3 C 17.3 42.9 17.5 43.5 18.4 43.5 C 19.3 43.5 19.5 42.9 19.5 40.3 Z M 14.9 40.5 C 14.9 38.1 15.2 36.1 18.4 36.1 C 21.6 36.1 21.9 38.1 21.9 40.5 C 21.9 43.1 21.5 45 18.4 45 C 15.3 45 14.9 43.1 14.9 40.5 Z M 22.6 36.3 L 23.6 36.3 L 23.6 34.9 L 26 33.8 L 26 36.3 L 27.3 36.3 L 27.3 37.7 L 26 37.7 C 26 37.7 26.01 42.34 26 42.3 C 26 43 26 43.4 26.8 43.4 C 26.9 43.4 27.1 43.4 27.2 43.4 C 27.2 43.4 27.2 44.9 27.2 44.9 C 26.9 44.9 26.5 44.9 26 44.9 C 23.9 44.9 23.6 43.6 23.6 43 C 23.61 43.03 23.6 37.7 23.6 37.7 L 22.6 37.7 L 22.6 36.3 Z M 32.7 39.6 C 32.7 38.8 32.8 37.6 31.6 37.6 C 30.5 37.6 30.5 38.9 30.5 39.6 C 30.5 39.6 32.7 39.6 32.7 39.6 Z M 30.5 40.9 C 30.5 42 30.6 43.5 31.6 43.5 C 32.5 43.5 32.7 42.7 32.7 42 C 32.7 42 35.1 42 35.1 42 C 35.1 42.9 34.7 43.7 34.2 44.2 C 33.6 44.7 32.8 45 31.6 45 C 28.5 45 28.1 43.1 28.1 40.5 C 28.1 38.1 28.5 36.1 31.6 36.1 C 34.9 36.1 35.2 38.2 35.1 40.9 C 35.1 40.9 30.5 40.9 30.5 40.9 Z M 41.2 39.3 C 41.2 38.1 40.9 37.6 40.1 37.6 C 39.1 37.6 39 38.5 39 40.3 C 39 42.9 39.3 43.5 40.1 43.5 C 40.9 43.5 41.2 42.8 41.2 41.7 C 41.2 41.7 43.6 41.7 43.6 41.7 C 43.6 44 42.4 45 40.1 45 C 37 45 36.6 43.1 36.6 40.5 C 36.6 38.1 37 36.1 40.1 36.1 C 42.3 36.1 43.6 37.1 43.6 39.3 C 43.6 39.3 41.2 39.3 41.2 39.3 Z M 44.4 36.3 L 45.3 36.3 L 45.3 34.9 L 47.7 33.8 L 47.7 36.3 L 49 36.3 L 49 37.7 L 47.7 37.7 C 47.7 37.7 47.74 42.34 47.7 42.3 C 47.7 43 47.7 43.4 48.5 43.4 C 48.7 43.4 48.8 43.4 48.9 43.4 C 48.9 43.4 48.9 44.9 48.9 44.9 C 48.6 44.9 48.3 44.9 47.7 44.9 C 45.6 44.9 45.3 43.6 45.3 43 C 45.34 43.03 45.3 37.7 45.3 37.7 L 44.4 37.7 L 44.4 36.3 Z M 54.5 39.6 C 54.5 38.8 54.5 37.6 53.4 37.6 C 52.3 37.6 52.3 38.9 52.3 39.6 C 52.3 39.6 54.5 39.6 54.5 39.6 Z M 52.3 40.9 C 52.3 42 52.3 43.5 53.4 43.5 C 54.2 43.5 54.4 42.7 54.4 42 C 54.4 42 56.8 42 56.8 42 C 56.8 42.9 56.5 43.7 55.9 44.2 C 55.3 44.7 54.5 45 53.4 45 C 50.3 45 49.9 43.1 49.9 40.5 C 49.9 38.1 50.2 36.1 53.4 36.1 C 56.6 36.1 56.9 38.2 56.9 40.9 C 56.9 40.9 52.3 40.9 52.3 40.9 Z M 62.7 40.5 C 62.7 38.8 62.7 37.6 61.8 37.6 C 60.7 37.6 60.7 38.8 60.7 40.5 C 60.7 42.6 60.9 43.5 61.8 43.5 C 62.6 43.5 62.7 42.6 62.7 40.5 Z M 62.8 44.9 L 62.8 43.9 C 62.8 43.9 62.81 43.9 62.8 43.9 C 62.4 44.7 61.7 45 60.8 45 C 58.3 45 58.4 42.3 58.4 40.5 C 58.4 38.8 58.3 36.1 60.7 36.1 C 61.6 36.1 62.2 36.4 62.7 37.1 C 62.7 37.08 62.7 37.1 62.7 37.1 L 62.7 32.6 L 65.1 32.6 L 65.1 44.9 L 62.8 44.9 Z M 74.5 34.1 C 73.6 34 73.4 34.4 73.4 35.2 C 73.35 35.23 73.4 36.3 73.4 36.3 L 74.5 36.3 L 74.5 37.7 L 73.4 37.7 L 73.4 44.9 L 71 44.9 L 71 37.7 L 69.9 37.7 L 69.9 36.3 C 69.9 36.3 70.97 36.27 71 36.3 C 71 33.8 70.8 32.5 73.7 32.5 C 74 32.5 74.2 32.5 74.5 32.5 C 74.5 32.5 74.5 34.1 74.5 34.1 Z M 77.8 36.3 L 77.8 37.4 C 77.8 37.4 77.88 37.37 77.9 37.4 C 78.3 36.4 79.1 36.1 80.1 36.1 C 80.1 36.1 80.1 38.2 80.1 38.2 C 78 38.1 78 39.3 78 40.2 C 77.96 40.18 78 44.9 78 44.9 L 75.6 44.9 L 75.6 36.3 L 77.8 36.3 Z M 85.6 40.3 C 85.6 38.5 85.5 37.6 84.5 37.6 C 83.5 37.6 83.4 38.5 83.4 40.3 C 83.4 42.9 83.6 43.5 84.5 43.5 C 85.4 43.5 85.6 42.9 85.6 40.3 Z M 81 40.5 C 81 38.1 81.4 36.1 84.5 36.1 C 87.7 36.1 88 38.1 88 40.5 C 88 43.1 87.6 45 84.5 45 C 81.4 45 81 43.1 81 40.5 Z M 91.9 37.1 C 91.9 37.1 91.97 37.14 92 37.1 C 92.4 36.4 93.1 36.1 94 36.1 C 94.8 36.1 95.5 36.5 95.9 37.2 C 96.5 36.4 97.2 36.1 98.1 36.1 C 99.3 36.1 100.3 36.8 100.3 38 C 100.28 37.97 100.3 44.9 100.3 44.9 L 97.9 44.9 C 97.9 44.9 97.89 38.94 97.9 38.9 C 97.9 38.2 97.7 37.6 97 37.6 C 96.2 37.6 96.1 38.2 96.1 38.9 C 96.08 38.94 96.1 44.9 96.1 44.9 L 93.7 44.9 C 93.7 44.9 93.74 38.94 93.7 38.9 C 93.7 38.2 93.6 37.6 92.8 37.6 C 92.1 37.6 91.9 38.2 91.9 38.9 C 91.94 38.94 91.9 44.9 91.9 44.9 L 89.5 44.9 L 89.5 36.3 L 91.9 36.3 L 91.9 37.1 Z M 108.4 32.6 L 108.4 44.9 L 106 44.9 L 106 32.6 L 108.4 32.6 Z M 113.1 44.9 L 110.7 44.9 L 110.7 36.3 L 113.1 36.3 L 113.1 44.9 Z M 113.1 32.6 L 113.1 34.5 L 110.7 34.5 L 110.7 32.6 L 113.1 32.6 Z M 118.4 43.3 C 119.3 43.3 119.4 42.4 119.4 40.5 C 119.4 38.6 119.3 37.6 118.4 37.6 C 117.5 37.6 117.4 38.2 117.4 40.8 C 117.4 41.6 117.2 43.3 118.4 43.3 Z M 121.8 36.3 C 121.8 36.3 121.79 45.21 121.8 45.2 C 121.8 45.8 121.8 48.2 118.5 48.2 C 116.7 48.2 115.2 47.7 115.2 45.6 C 115.2 45.6 117.5 45.6 117.5 45.6 C 117.5 46 117.6 46.3 117.7 46.5 C 117.9 46.7 118.1 46.8 118.5 46.8 C 119.1 46.8 119.4 46.2 119.4 45.4 C 119.39 45.38 119.4 43.7 119.4 43.7 C 119.4 43.7 119.36 43.73 119.4 43.7 C 119 44.4 118.3 44.7 117.5 44.7 C 114.9 44.7 115 42.3 115 40.4 C 115 38.5 115.1 36.1 117.6 36.1 C 118.4 36.1 119.1 36.5 119.5 37.3 C 119.47 37.27 119.5 37.3 119.5 37.3 L 119.5 36.3 L 121.8 36.3 Z M 127.9 44.9 C 127.9 44.9 127.92 38.94 127.9 38.9 C 127.9 38.2 127.8 37.6 127 37.6 C 126.3 37.6 126.1 38.2 126.1 38.9 C 126.12 38.94 126.1 44.9 126.1 44.9 L 123.7 44.9 L 123.7 32.6 L 126.1 32.6 L 126.1 37.1 C 126.1 37.1 126.16 37.14 126.2 37.1 C 126.4 36.7 126.7 36.5 127 36.3 C 127.3 36.2 127.7 36.1 128.2 36.1 C 129.3 36.1 130.3 36.8 130.3 38 C 130.32 37.97 130.3 44.9 130.3 44.9 L 127.9 44.9 Z M 131.3 36.3 L 132.2 36.3 L 132.2 34.9 L 134.6 33.8 L 134.6 36.3 L 135.9 36.3 L 135.9 37.7 L 134.6 37.7 C 134.6 37.7 134.62 42.34 134.6 42.3 C 134.6 43 134.6 43.4 135.4 43.4 C 135.5 43.4 135.7 43.4 135.8 43.4 C 135.8 43.4 135.8 44.9 135.8 44.9 C 135.5 44.9 135.1 44.9 134.6 44.9 C 132.5 44.9 132.2 43.6 132.2 43 C 132.22 43.03 132.2 37.7 132.2 37.7 L 131.3 37.7 L 131.3 36.3 Z " stroke="none" fill="#003c71"/>  </g>  <g id="Polygon203511">    <path d="M 4.4 24.7 C 1.2 24.7 0.6 22.8 0.8 20.7 C 0.8 20.7 3.3 20.7 3.3 20.7 C 3.3 21.8 3.4 22.8 4.8 22.8 C 5.7 22.8 6.1 22.3 6.1 21.4 C 6.1 19.2 0.9 19.1 0.9 15.4 C 0.9 13.5 1.8 12 5 12 C 7.5 12 8.7 13.1 8.5 15.7 C 8.5 15.7 6 15.7 6 15.7 C 6 14.7 5.9 13.8 4.8 13.8 C 4 13.8 3.5 14.3 3.5 15.1 C 3.5 17.4 8.7 17.2 8.7 21.1 C 8.7 24.3 6.4 24.7 4.4 24.7 Z M 9.4 15.9 L 10.4 15.9 L 10.4 14.5 L 12.8 13.4 L 12.8 15.9 L 14 15.9 L 14 17.3 L 12.8 17.3 C 12.8 17.3 12.8 21.94 12.8 21.9 C 12.8 22.6 12.8 23 13.6 23 C 13.7 23 13.9 23 14 23 C 14 23 14 24.5 14 24.5 C 13.7 24.5 13.3 24.5 12.7 24.5 C 10.7 24.5 10.4 23.2 10.4 22.6 C 10.4 22.63 10.4 17.3 10.4 17.3 L 9.4 17.3 L 9.4 15.9 Z M 19.5 19.9 C 19.5 18.1 19.4 17.2 18.4 17.2 C 17.4 17.2 17.3 18.1 17.3 19.9 C 17.3 22.5 17.5 23.1 18.4 23.1 C 19.3 23.1 19.5 22.5 19.5 19.9 Z M 14.9 20.1 C 14.9 17.7 15.3 15.7 18.4 15.7 C 21.6 15.7 21.9 17.7 21.9 20.1 C 21.9 22.7 21.5 24.6 18.4 24.6 C 15.3 24.6 14.9 22.7 14.9 20.1 Z M 25.9 15.9 L 25.9 17 C 25.9 17 25.94 16.97 25.9 17 C 26.4 16 27.2 15.7 28.2 15.7 C 28.2 15.7 28.2 17.8 28.2 17.8 C 26.1 17.7 26 18.9 26 19.8 C 26.03 19.78 26 24.5 26 24.5 L 23.6 24.5 L 23.6 15.9 L 25.9 15.9 Z M 33.7 19.2 C 33.7 18.4 33.7 17.2 32.6 17.2 C 31.5 17.2 31.5 18.5 31.5 19.2 C 31.5 19.2 33.7 19.2 33.7 19.2 Z M 31.5 20.5 C 31.5 21.6 31.5 23.1 32.6 23.1 C 33.4 23.1 33.6 22.3 33.6 21.6 C 33.6 21.6 36 21.6 36 21.6 C 36 22.5 35.7 23.3 35.1 23.8 C 34.6 24.3 33.7 24.6 32.6 24.6 C 29.5 24.6 29.1 22.7 29.1 20.1 C 29.1 17.7 29.4 15.7 32.6 15.7 C 35.8 15.7 36.2 17.8 36.1 20.5 C 36.1 20.5 31.5 20.5 31.5 20.5 Z M 43.8 15.9 L 43.8 17 C 43.8 17 43.88 16.97 43.9 17 C 44.3 16 45.1 15.7 46.1 15.7 C 46.1 15.7 46.1 17.8 46.1 17.8 C 44 17.7 44 18.9 44 19.8 C 43.96 19.78 44 24.5 44 24.5 L 41.6 24.5 L 41.6 15.9 L 43.8 15.9 Z M 51.6 19.2 C 51.6 18.4 51.7 17.2 50.5 17.2 C 49.4 17.2 49.4 18.5 49.4 19.2 C 49.4 19.2 51.6 19.2 51.6 19.2 Z M 49.4 20.5 C 49.4 21.6 49.5 23.1 50.5 23.1 C 51.4 23.1 51.5 22.3 51.5 21.6 C 51.5 21.6 54 21.6 54 21.6 C 53.9 22.5 53.6 23.3 53.1 23.8 C 52.5 24.3 51.6 24.6 50.5 24.6 C 47.4 24.6 47 22.7 47 20.1 C 47 17.7 47.4 15.7 50.5 15.7 C 53.8 15.7 54.1 17.8 54 20.5 C 54 20.5 49.4 20.5 49.4 20.5 Z M 59.4 13.7 C 58.4 13.6 58.2 14 58.2 14.8 C 58.24 14.83 58.2 15.9 58.2 15.9 L 59.4 15.9 L 59.4 17.3 L 58.2 17.3 L 58.2 24.5 L 55.8 24.5 L 55.8 17.3 L 54.8 17.3 L 54.8 15.9 C 54.8 15.9 55.86 15.87 55.9 15.9 C 55.8 13.4 55.6 12.1 58.6 12.1 C 58.9 12.1 59.1 12.1 59.4 12.1 C 59.4 12.1 59.4 13.7 59.4 13.7 Z M 62.7 15.9 L 62.7 17 C 62.7 17 62.76 16.97 62.8 17 C 63.2 16 64 15.7 65 15.7 C 65 15.7 65 17.8 65 17.8 C 62.9 17.7 62.8 18.9 62.8 19.8 C 62.85 19.78 62.8 24.5 62.8 24.5 L 60.5 24.5 L 60.5 15.9 L 62.7 15.9 Z M 68.7 24.5 L 66.3 24.5 L 66.3 15.9 L 68.7 15.9 L 68.7 24.5 Z M 68.7 12.2 L 68.7 14.1 L 66.3 14.1 L 66.3 12.2 L 68.7 12.2 Z M 74 22.9 C 74.9 22.9 75 22 75 20.1 C 75 18.2 74.9 17.2 74 17.2 C 73.1 17.2 73 17.8 73 20.4 C 73 21.2 72.9 22.9 74 22.9 Z M 77.4 15.9 C 77.4 15.9 77.4 24.81 77.4 24.8 C 77.4 25.4 77.4 27.8 74.1 27.8 C 72.4 27.8 70.8 27.3 70.8 25.2 C 70.8 25.2 73.1 25.2 73.1 25.2 C 73.1 25.6 73.2 25.9 73.3 26.1 C 73.5 26.3 73.7 26.4 74.1 26.4 C 74.7 26.4 75 25.8 75 25 C 75 24.98 75 23.3 75 23.3 C 75 23.3 74.97 23.33 75 23.3 C 74.6 24 73.9 24.3 73.2 24.3 C 70.5 24.3 70.6 21.9 70.6 20 C 70.6 18.1 70.7 15.7 73.2 15.7 C 74 15.7 74.7 16.1 75.1 16.9 C 75.09 16.87 75.1 16.9 75.1 16.9 L 75.1 15.9 L 77.4 15.9 Z M 83.7 19.2 C 83.7 18.4 83.8 17.2 82.6 17.2 C 81.5 17.2 81.5 18.5 81.5 19.2 C 81.5 19.2 83.7 19.2 83.7 19.2 Z M 81.5 20.5 C 81.5 21.6 81.6 23.1 82.6 23.1 C 83.5 23.1 83.7 22.3 83.7 21.6 C 83.7 21.6 86.1 21.6 86.1 21.6 C 86.1 22.5 85.7 23.3 85.2 23.8 C 84.6 24.3 83.8 24.6 82.6 24.6 C 79.5 24.6 79.1 22.7 79.1 20.1 C 79.1 17.7 79.5 15.7 82.6 15.7 C 85.9 15.7 86.2 17.8 86.1 20.5 C 86.1 20.5 81.5 20.5 81.5 20.5 Z M 90.1 15.9 L 90.1 17 C 90.1 17 90.15 16.97 90.2 17 C 90.6 16 91.4 15.7 92.4 15.7 C 92.4 15.7 92.4 17.8 92.4 17.8 C 90.3 17.7 90.2 18.9 90.2 19.8 C 90.24 19.78 90.2 24.5 90.2 24.5 L 87.8 24.5 L 87.8 15.9 L 90.1 15.9 Z M 95.6 21.8 C 95.6 22.4 95.7 23.1 96.5 23.1 C 97.9 23.1 97.7 21.2 97.7 20.3 C 96.5 20.4 95.6 20.3 95.6 21.8 Z M 100 22.9 C 100 23.4 100.1 23.9 100.1 24.5 C 100.13 24.45 97.9 24.5 97.9 24.5 L 97.8 23.3 C 97.8 23.3 97.77 23.31 97.8 23.3 C 97.3 24.2 96.6 24.6 95.5 24.6 C 93.9 24.6 93.2 23.4 93.2 21.9 C 93.2 19 95.4 18.9 97.7 19 C 97.7 19 97.7 18.3 97.7 18.3 C 97.7 17.6 97.6 17 96.7 17 C 95.9 17 95.8 17.7 95.8 18.4 C 95.8 18.4 93.4 18.4 93.4 18.4 C 93.4 17.3 93.8 16.7 94.3 16.3 C 94.9 15.9 95.7 15.7 96.6 15.7 C 99.6 15.7 100 17 100 18.6 C 100 18.6 100 22.9 100 22.9 Z M 101 15.9 L 102 15.9 L 102 14.5 L 104.4 13.4 L 104.4 15.9 L 105.6 15.9 L 105.6 17.3 L 104.4 17.3 C 104.4 17.3 104.4 21.94 104.4 21.9 C 104.4 22.6 104.4 23 105.2 23 C 105.3 23 105.5 23 105.6 23 C 105.6 23 105.6 24.5 105.6 24.5 C 105.3 24.5 104.9 24.5 104.3 24.5 C 102.3 24.5 102 23.2 102 22.6 C 102 22.63 102 17.3 102 17.3 L 101 17.3 L 101 15.9 Z M 111.1 19.2 C 111.1 18.4 111.2 17.2 110 17.2 C 108.9 17.2 108.9 18.5 108.9 19.2 C 108.9 19.2 111.1 19.2 111.1 19.2 Z M 108.9 20.5 C 108.9 21.6 109 23.1 110 23.1 C 110.9 23.1 111 22.3 111 21.6 C 111 21.6 113.5 21.6 113.5 21.6 C 113.4 22.5 113.1 23.3 112.6 23.8 C 112 24.3 111.1 24.6 110 24.6 C 106.9 24.6 106.5 22.7 106.5 20.1 C 106.5 17.7 106.9 15.7 110 15.7 C 113.3 15.7 113.6 17.8 113.5 20.5 C 113.5 20.5 108.9 20.5 108.9 20.5 Z M 119.4 20.1 C 119.4 18.4 119.4 17.2 118.4 17.2 C 117.4 17.2 117.4 18.4 117.4 20.1 C 117.4 22.2 117.6 23.1 118.4 23.1 C 119.2 23.1 119.4 22.2 119.4 20.1 Z M 119.5 24.5 L 119.5 23.5 C 119.5 23.5 119.48 23.5 119.5 23.5 C 119 24.3 118.4 24.6 117.5 24.6 C 115 24.6 115.1 21.9 115.1 20.1 C 115.1 18.4 115 15.7 117.4 15.7 C 118.3 15.7 118.9 16 119.4 16.7 C 119.36 16.68 119.4 16.7 119.4 16.7 L 119.4 12.2 L 121.8 12.2 L 121.8 24.5 L 119.5 24.5 Z M 130.3 11.6 C 129.8 13.7 129.1 16.3 129.1 18.9 C 129.1 22 129.8 24.4 130.3 26.5 C 130.3 26.5 128.9 26.5 128.9 26.5 C 128.1 24.1 127.1 21.4 127.1 18.9 C 127.1 16.4 128.2 13.4 128.9 11.6 C 128.9 11.6 130.3 11.6 130.3 11.6 Z M 131.5 24.5 C 131.5 24.5 131.48 22.36 131.5 22.4 C 135.2 17.4 136 16.8 136 15.3 C 136 14.7 135.8 14.2 135.1 14.2 C 134.1 14.2 134.1 15.1 134.1 15.9 C 134.1 15.9 131.7 15.9 131.7 15.9 C 131.5 13.7 132.7 12.4 134.9 12.4 C 137 12.4 138.4 13.3 138.4 15.5 C 138.4 18.2 135.3 21.2 134 22.6 C 133.99 22.62 138.5 22.6 138.5 22.6 L 138.5 24.5 L 131.5 24.5 Z M 143.7 19 L 143.7 20.7 L 139.6 20.7 L 139.6 19 L 143.7 19 Z M 147.2 21.3 C 147.2 21.9 147.3 22.9 148.3 22.9 C 149.2 22.9 149.3 21.9 149.3 21.3 C 149.3 20.5 149.3 19.1 148.3 19.1 C 147.2 19.1 147.2 20.5 147.2 21.3 Z M 147.3 15.7 C 147.3 16.3 147.4 17.3 148.3 17.3 C 149.1 17.3 149.2 16.3 149.2 15.7 C 149.2 15.1 149.1 14.2 148.3 14.2 C 147.4 14.2 147.3 15.1 147.3 15.7 Z M 144.8 21.4 C 144.8 19.9 145 18.7 146.6 18.2 C 146.6 18.2 146.6 18.2 146.6 18.2 C 145.2 17.8 144.9 16.8 144.9 15.6 C 144.9 13.4 146.1 12.4 148.3 12.4 C 150.4 12.4 151.6 13.4 151.6 15.6 C 151.6 16.8 151.3 17.8 149.9 18.2 C 149.9 18.2 149.9 18.2 149.9 18.2 C 151.5 18.7 151.7 19.9 151.7 21.4 C 151.7 23.6 150.5 24.6 148.3 24.6 C 146 24.6 144.8 23.6 144.8 21.4 Z M 155.4 17.5 C 154 17.5 152.9 16.4 152.9 15 C 152.9 13.6 154 12.4 155.4 12.4 C 156.8 12.4 158 13.6 158 15 C 158 16.4 156.8 17.5 155.4 17.5 Z M 155.4 16.2 C 156.1 16.2 156.6 15.7 156.6 15 C 156.6 14.3 156.1 13.8 155.4 13.8 C 154.8 13.8 154.2 14.3 154.2 15 C 154.2 15.7 154.8 16.2 155.4 16.2 Z M 159.8 18.3 C 159.8 15.1 159.8 12 164 12 C 166.6 12 167.7 13.4 167.6 16.1 C 167.6 16.1 165.1 16.1 165.1 16.1 C 165.1 14.4 164.8 13.8 164 13.8 C 162.6 13.8 162.4 15.2 162.4 18.3 C 162.4 21.5 162.6 22.8 164 22.8 C 165.2 22.8 165.2 21.3 165.2 20.3 C 165.2 20.3 167.7 20.3 167.7 20.3 C 167.7 23.6 166.4 24.7 164 24.7 C 159.8 24.7 159.8 21.5 159.8 18.3 Z M 169.3 26.5 C 169.8 24.4 170.4 21.9 170.4 19.2 C 170.4 16.2 169.7 13.8 169.3 11.6 C 169.3 11.6 170.6 11.6 170.6 11.6 C 171.4 14 172.4 16.7 172.4 19.2 C 172.4 21.7 171.3 24.8 170.6 26.5 C 170.6 26.5 169.3 26.5 169.3 26.5 Z M 180.3 24.5 L 177.9 24.5 L 177.9 15.9 L 180.3 15.9 L 180.3 24.5 Z M 180.3 12.2 L 180.3 14.1 L 177.9 14.1 L 177.9 12.2 L 180.3 12.2 Z M 184.9 16.7 C 184.9 16.7 184.89 16.74 184.9 16.7 C 185.1 16.3 185.4 16.1 185.7 15.9 C 186.1 15.8 186.5 15.7 186.9 15.7 C 188.1 15.7 189.1 16.4 189.1 17.6 C 189.05 17.57 189.1 24.5 189.1 24.5 L 186.7 24.5 C 186.7 24.5 186.66 18.54 186.7 18.5 C 186.7 17.8 186.5 17.2 185.8 17.2 C 185 17.2 184.9 17.8 184.9 18.5 C 184.86 18.54 184.9 24.5 184.9 24.5 L 182.5 24.5 L 182.5 15.9 L 184.9 15.9 L 184.9 16.7 Z M 197.3 24.5 L 194.9 24.5 L 194.9 15.9 L 197.3 15.9 L 197.3 24.5 Z M 197.3 12.2 L 197.3 14.1 L 194.9 14.1 L 194.9 12.2 L 197.3 12.2 Z M 198.5 15.9 L 199.5 15.9 L 199.5 14.5 L 201.9 13.4 L 201.9 15.9 L 203.1 15.9 L 203.1 17.3 L 201.9 17.3 C 201.9 17.3 201.86 21.94 201.9 21.9 C 201.9 22.6 201.8 23 202.6 23 C 202.8 23 202.9 23 203 23 C 203 23 203 24.5 203 24.5 C 202.7 24.5 202.4 24.5 201.8 24.5 C 199.7 24.5 199.5 23.2 199.5 22.6 C 199.46 22.63 199.5 17.3 199.5 17.3 L 198.5 17.3 L 198.5 15.9 Z M 204.3 12.2 L 206.5 12.2 L 205.3 15.5 L 203.7 15.5 L 204.3 12.2 Z M 208.6 21.7 C 208.6 22.1 208.6 22.5 208.7 22.7 C 208.8 23 209.1 23.1 209.6 23.1 C 210 23.1 210.5 22.8 210.5 22.3 C 210.5 20.4 206.2 20.8 206.2 18.1 C 206.2 16.3 208.1 15.7 209.6 15.7 C 211.3 15.7 212.7 16.5 212.6 18.3 C 212.6 18.3 210.3 18.3 210.3 18.3 C 210.3 17.7 210.2 17.4 210 17.2 C 209.9 17.1 209.7 17 209.4 17 C 208.9 17 208.6 17.4 208.6 18 C 208.6 19.3 212.8 19.3 212.8 22 C 212.8 23.5 211.6 24.6 209.6 24.6 C 207.5 24.6 206.1 24.1 206.2 21.7 C 206.2 21.7 208.6 21.7 208.6 21.7 Z M 222.4 18.9 C 222.4 17.7 222.1 17.2 221.3 17.2 C 220.3 17.2 220.2 18.1 220.2 19.9 C 220.2 22.5 220.4 23.1 221.3 23.1 C 222.1 23.1 222.4 22.4 222.4 21.3 C 222.4 21.3 224.8 21.3 224.8 21.3 C 224.8 23.6 223.6 24.6 221.3 24.6 C 218.2 24.6 217.8 22.7 217.8 20.1 C 217.8 17.7 218.2 15.7 221.3 15.7 C 223.5 15.7 224.8 16.7 224.8 18.9 C 224.8 18.9 222.4 18.9 222.4 18.9 Z M 228.6 21.8 C 228.6 22.4 228.7 23.1 229.5 23.1 C 230.9 23.1 230.7 21.2 230.7 20.3 C 229.5 20.4 228.6 20.3 228.6 21.8 Z M 233 22.9 C 233 23.4 233.1 23.9 233.2 24.5 C 233.15 24.45 230.9 24.5 230.9 24.5 L 230.8 23.3 C 230.8 23.3 230.79 23.31 230.8 23.3 C 230.3 24.2 229.6 24.6 228.5 24.6 C 226.9 24.6 226.3 23.4 226.3 21.9 C 226.3 19 228.5 18.9 230.7 19 C 230.7 19 230.7 18.3 230.7 18.3 C 230.7 17.6 230.6 17 229.7 17 C 228.9 17 228.8 17.7 228.8 18.4 C 228.8 18.4 226.5 18.4 226.5 18.4 C 226.5 17.3 226.8 16.7 227.4 16.3 C 227.9 15.9 228.7 15.7 229.6 15.7 C 232.6 15.7 233 17 233 18.6 C 233 18.6 233 22.9 233 22.9 Z M 237.3 15.9 L 237.3 17 C 237.3 17 237.33 16.97 237.3 17 C 237.8 16 238.6 15.7 239.6 15.7 C 239.6 15.7 239.6 17.8 239.6 17.8 C 237.5 17.7 237.4 18.9 237.4 19.8 C 237.42 19.78 237.4 24.5 237.4 24.5 L 235 24.5 L 235 15.9 L 237.3 15.9 Z M 239.7 15.9 L 240.7 15.9 L 240.7 14.5 L 243.1 13.4 L 243.1 15.9 L 244.3 15.9 L 244.3 17.3 L 243.1 17.3 C 243.1 17.3 243.08 21.94 243.1 21.9 C 243.1 22.6 243.1 23 243.8 23 C 244 23 244.2 23 244.3 23 C 244.3 23 244.3 24.5 244.3 24.5 C 243.9 24.5 243.6 24.5 243 24.5 C 241 24.5 240.7 23.2 240.7 22.6 C 240.68 22.63 240.7 17.3 240.7 17.3 L 239.7 17.3 L 239.7 15.9 Z M 249.8 19.9 C 249.8 18.1 249.7 17.2 248.7 17.2 C 247.7 17.2 247.6 18.1 247.6 19.9 C 247.6 22.5 247.8 23.1 248.7 23.1 C 249.6 23.1 249.8 22.5 249.8 19.9 Z M 245.2 20.1 C 245.2 17.7 245.5 15.7 248.7 15.7 C 251.9 15.7 252.2 17.7 252.2 20.1 C 252.2 22.7 251.8 24.6 248.7 24.6 C 245.6 24.6 245.2 22.7 245.2 20.1 Z M 256.3 16.7 C 256.3 16.7 256.34 16.74 256.3 16.7 C 256.6 16.3 256.9 16.1 257.2 15.9 C 257.5 15.8 257.9 15.7 258.4 15.7 C 259.5 15.7 260.5 16.4 260.5 17.6 C 260.5 17.57 260.5 24.5 260.5 24.5 L 258.1 24.5 C 258.1 24.5 258.11 18.54 258.1 18.5 C 258.1 17.8 258 17.2 257.2 17.2 C 256.4 17.2 256.3 17.8 256.3 18.5 C 256.31 18.54 256.3 24.5 256.3 24.5 L 253.9 24.5 L 253.9 15.9 L 256.3 15.9 L 256.3 16.7 Z M 262.6 22.2 L 264.8 22.2 L 263.5 26.1 L 261.9 26.1 L 262.6 22.2 Z " stroke="none" fill="#003c71"/>  </g></svg>