<?xml version="1.0" standalone="no"?><!DOCTYPE svg PUBLIC "-//W3C//DTD SVG 1.1//EN" "http://www.w3.org/Graphics/SVG/1.1/DTD/svg11.dtd"><svg xmlns="http://www.w3.org/2000/svg" version="1.1" width="683px" height="57.3px" viewBox="0 -1 683 57.3" style="top:-1px">  <desc>* Patients received a 400 mg loading dose of subcutaneous garadacimab as two 200 mg injections or volume matched plac...</desc>  <defs/>  <g id="Polygon194132">    <path d="M 4.1 42.9 L 4.1 41.8 L 5.1 41.3 L 5.1 42.9 L 6.4 42.9 L 6.4 43.7 L 5.1 43.7 C 5.1 43.7 5.06 47.39 5.1 47.4 C 5.1 47.8 5.1 48.3 6 48.3 C 6 48.3 6.2 48.2 6.4 48.2 C 6.4 48.2 6.4 49 6.4 49 C 6.1 49 5.8 49.1 5.4 49.1 C 4.5 49.1 4.1 48.7 4.1 48 C 4.08 47.99 4.1 43.7 4.1 43.7 L 3.1 43.7 L 3.1 42.9 L 4.1 42.9 Z M 8.3 43.9 C 8.3 43.9 8.35 43.85 8.3 43.9 C 8.8 42.9 9.3 42.8 10.2 42.8 C 10.2 42.8 10.2 43.8 10.2 43.8 C 10.1 43.8 10 43.8 10 43.8 C 9.9 43.8 9.8 43.8 9.7 43.8 C 8.6 43.8 8.3 44.6 8.3 45.4 C 8.33 45.42 8.3 49 8.3 49 L 7.3 49 L 7.3 42.9 L 8.3 42.9 L 8.3 43.9 Z M 14.6 45.5 C 14.6 43.8 14.1 43.6 13.4 43.6 C 12.8 43.6 12.3 43.9 12.3 45.5 C 12.3 45.5 14.6 45.5 14.6 45.5 Z M 12.3 46.3 C 12.3 48 12.7 48.3 13.5 48.3 C 14.2 48.3 14.5 47.8 14.5 47.2 C 14.5 47.2 15.6 47.2 15.6 47.2 C 15.6 48.5 14.8 49.1 13.5 49.1 C 12.2 49.1 11.2 48.7 11.2 46.1 C 11.2 44.3 11.4 42.8 13.5 42.8 C 15.2 42.8 15.7 43.8 15.7 45.8 C 15.67 45.77 15.7 46.3 15.7 46.3 C 15.7 46.3 12.26 46.29 12.3 46.3 Z M 18.2 47.2 C 18.2 47.8 18.5 48.3 19.1 48.3 C 19.8 48.3 20.5 47.9 20.4 46 C 19.5 46 18.2 45.9 18.2 47.2 Z M 20.4 48.1 C 20.4 48.1 20.4 48.12 20.4 48.1 C 20.1 48.8 19.6 49.1 18.9 49.1 C 17.6 49.1 17.2 48.3 17.2 47.1 C 17.2 45.3 19 45.2 20.4 45.2 C 20.4 44.4 20.4 43.6 19.4 43.6 C 18.7 43.6 18.4 44 18.4 44.6 C 18.4 44.6 17.4 44.6 17.4 44.6 C 17.4 43.3 18.1 42.8 19.4 42.8 C 21 42.8 21.4 43.6 21.4 44.6 C 21.4 44.6 21.4 47.6 21.4 47.6 C 21.4 48 21.4 48.5 21.5 49 C 21.5 49 20.4 49 20.4 49 L 20.4 48.1 Z M 23.4 42.9 L 23.4 41.8 L 24.4 41.3 L 24.4 42.9 L 25.7 42.9 L 25.7 43.7 L 24.4 43.7 C 24.4 43.7 24.39 47.39 24.4 47.4 C 24.4 47.8 24.4 48.3 25.3 48.3 C 25.4 48.3 25.5 48.2 25.7 48.2 C 25.7 48.2 25.7 49 25.7 49 C 25.4 49 25.1 49.1 24.8 49.1 C 23.8 49.1 23.4 48.7 23.4 48 C 23.41 47.99 23.4 43.7 23.4 43.7 L 22.4 43.7 L 22.4 42.9 L 23.4 42.9 Z M 29.6 49 C 29.6 49 29.61 44.8 29.6 44.8 C 29.6 44.2 29.4 43.6 28.7 43.6 C 28.4 43.6 27.9 43.8 27.8 44 C 27.6 44.3 27.6 44.7 27.6 44.9 C 27.57 44.92 27.6 49 27.6 49 L 26.6 49 C 26.6 49 26.59 44.2 26.6 44.2 C 26.6 43.8 26.6 43.4 26.5 42.9 C 26.53 42.94 27.6 42.9 27.6 42.9 L 27.6 43.7 C 27.6 43.7 27.6 43.7 27.6 43.7 C 27.9 43 28.4 42.8 29.1 42.8 C 29.7 42.8 30.3 43 30.5 43.6 C 30.9 43 31.4 42.8 32 42.8 C 32.6 42.8 33.6 43 33.6 44.4 C 33.62 44.39 33.6 49 33.6 49 L 32.6 49 C 32.6 49 32.64 44.8 32.6 44.8 C 32.6 44.2 32.5 43.6 31.7 43.6 C 31.3 43.6 31.2 43.6 30.9 43.9 C 30.6 44.1 30.6 44.7 30.6 44.9 C 30.6 44.92 30.6 49 30.6 49 L 29.6 49 Z M 38.6 45.5 C 38.6 43.8 38.1 43.6 37.4 43.6 C 36.8 43.6 36.3 43.9 36.3 45.5 C 36.3 45.5 38.6 45.5 38.6 45.5 Z M 36.3 46.3 C 36.3 48 36.7 48.3 37.5 48.3 C 38.2 48.3 38.5 47.8 38.5 47.2 C 38.5 47.2 39.6 47.2 39.6 47.2 C 39.6 48.5 38.8 49.1 37.5 49.1 C 36.2 49.1 35.2 48.7 35.2 46.1 C 35.2 44.3 35.4 42.8 37.5 42.8 C 39.2 42.8 39.7 43.8 39.7 45.8 C 39.67 45.77 39.7 46.3 39.7 46.3 C 39.7 46.3 36.26 46.29 36.3 46.3 Z M 44.6 49 C 44.6 49 44.59 44.8 44.6 44.8 C 44.6 44.2 44.4 43.6 43.5 43.6 C 42.4 43.6 42.3 44.6 42.3 45.4 C 42.29 45.41 42.3 49 42.3 49 L 41.3 49 C 41.3 49 41.3 44.2 41.3 44.2 C 41.3 43.8 41.3 43.4 41.2 42.9 C 41.24 42.94 42.3 42.9 42.3 42.9 L 42.3 43.7 C 42.3 43.7 42.33 43.72 42.3 43.7 C 42.7 43 43.2 42.8 44 42.8 C 45.2 42.8 45.6 43.6 45.6 44.8 C 45.57 44.8 45.6 49 45.6 49 L 44.6 49 Z M 47.4 42.9 L 47.4 41.8 L 48.4 41.3 L 48.4 42.9 L 49.7 42.9 L 49.7 43.7 L 48.4 43.7 C 48.4 43.7 48.39 47.39 48.4 47.4 C 48.4 47.8 48.4 48.3 49.3 48.3 C 49.4 48.3 49.5 48.2 49.7 48.2 C 49.7 48.2 49.7 49 49.7 49 C 49.4 49 49.1 49.1 48.8 49.1 C 47.8 49.1 47.4 48.7 47.4 48 C 47.41 47.99 47.4 43.7 47.4 43.7 L 46.4 43.7 L 46.4 42.9 L 47.4 42.9 Z M 56.7 45.9 C 56.7 45 56.7 43.6 55.5 43.6 C 54.3 43.6 54.4 45.3 54.4 46.2 C 54.4 47 54.4 48.3 55.5 48.3 C 56.6 48.3 56.7 47.5 56.7 45.9 Z M 54.4 43.7 C 54.4 43.7 54.39 43.66 54.4 43.7 C 54.7 43.1 55.1 42.8 55.8 42.8 C 56.8 42.8 57.7 43.2 57.7 45.9 C 57.7 47.4 57.7 49.1 55.7 49.1 C 55.2 49.1 54.7 48.9 54.4 48.4 C 54.4 48.39 54.4 48.4 54.4 48.4 L 54.4 51.3 L 53.4 51.3 L 53.4 42.9 L 54.4 42.9 L 54.4 43.7 Z M 62.6 45.5 C 62.6 43.8 62.1 43.6 61.4 43.6 C 60.8 43.6 60.3 43.9 60.3 45.5 C 60.3 45.5 62.6 45.5 62.6 45.5 Z M 60.3 46.3 C 60.3 48 60.7 48.3 61.5 48.3 C 62.2 48.3 62.5 47.8 62.5 47.2 C 62.5 47.2 63.6 47.2 63.6 47.2 C 63.6 48.5 62.8 49.1 61.5 49.1 C 60.2 49.1 59.2 48.7 59.2 46.1 C 59.2 44.3 59.4 42.8 61.5 42.8 C 63.2 42.8 63.7 43.8 63.7 45.8 C 63.67 45.77 63.7 46.3 63.7 46.3 C 63.7 46.3 60.26 46.29 60.3 46.3 Z M 66.3 43.9 C 66.3 43.9 66.34 43.85 66.3 43.9 C 66.8 42.9 67.3 42.8 68.2 42.8 C 68.2 42.8 68.2 43.8 68.2 43.8 C 68.1 43.8 68 43.8 68 43.8 C 67.9 43.8 67.8 43.8 67.7 43.8 C 66.6 43.8 66.3 44.6 66.3 45.4 C 66.32 45.42 66.3 49 66.3 49 L 65.3 49 L 65.3 42.9 L 66.3 42.9 L 66.3 43.9 Z M 70.3 49 L 69.3 49 L 69.3 42.9 L 70.3 42.9 L 70.3 49 Z M 69.2 40.3 L 70.3 40.3 L 70.3 41.4 L 69.2 41.4 L 69.2 40.3 Z M 75.4 45.6 C 75.4 44 74.9 43.6 74.1 43.6 C 73.3 43.6 72.8 44 72.8 45.6 C 72.8 47.6 73.1 48.3 74.1 48.3 C 75.1 48.3 75.4 47.6 75.4 45.6 Z M 71.8 46.1 C 71.8 44.3 72 42.8 74.1 42.8 C 76.2 42.8 76.4 44.3 76.4 46.1 C 76.4 48.7 75.4 49.1 74.1 49.1 C 72.8 49.1 71.8 48.7 71.8 46.1 Z M 80 43.6 C 79 43.6 78.8 44.5 78.8 46.1 C 78.8 47 78.8 48.3 80.1 48.3 C 81.2 48.3 81.2 46.9 81.2 45.7 C 81.2 44.9 81.1 43.6 80 43.6 Z M 81.2 40.3 L 82.1 40.3 L 82.1 49 L 81.2 49 L 81.2 48.3 C 81.2 48.3 81.14 48.28 81.1 48.3 C 80.8 48.8 80.4 49.1 79.7 49.1 C 78.8 49.1 77.8 48.7 77.8 46.1 C 77.8 44.6 77.8 42.8 79.8 42.8 C 80.4 42.8 80.8 43.1 81.1 43.6 C 81.13 43.55 81.2 43.6 81.2 43.6 L 81.2 40.3 Z M 85 49 L 83.9 49 L 83.9 47.8 L 85 47.8 L 85 49 Z M 89.7 41.5 L 88.7 41.5 L 88.7 41 L 89.7 41 L 89.7 40 L 90.3 40 L 90.3 41 L 91.3 41 L 91.3 41.5 L 90.3 41.5 L 90.3 45 L 89.7 45 L 89.7 41.5 Z M 93.6 44.2 C 94.6 44.2 95.3 43.8 95.3 42.8 C 95.3 42 94.9 41.5 94.1 41.5 C 93.2 41.5 93.1 42.1 93.1 42.8 C 93.1 42.8 92 42.8 92 42.8 C 91.9 41.4 92.6 40.5 94.1 40.5 C 95.5 40.5 96.4 41.2 96.4 42.7 C 96.4 44.3 95.2 44.5 94.7 44.6 C 94.7 44.6 94.7 44.7 94.7 44.7 C 96 44.8 96.5 45.5 96.5 46.8 C 96.5 48.4 95.6 49.2 94 49.2 C 91.7 49.2 91.8 47.2 91.8 46.7 C 91.8 46.7 92.9 46.7 92.9 46.7 C 92.9 47.5 93.1 48.3 94.1 48.3 C 95 48.3 95.3 47.6 95.3 46.8 C 95.3 45.4 94.8 45.1 93.6 45.1 C 93.6 45.1 93.6 44.2 93.6 44.2 Z M 103.8 45.9 C 103.8 45 103.8 43.6 102.6 43.6 C 101.3 43.6 101.5 45.3 101.5 46.2 C 101.5 47 101.5 48.3 102.6 48.3 C 103.7 48.3 103.8 47.5 103.8 45.9 Z M 101.5 43.7 C 101.5 43.7 101.48 43.66 101.5 43.7 C 101.8 43.1 102.2 42.8 102.9 42.8 C 103.8 42.8 104.8 43.2 104.8 45.9 C 104.8 47.4 104.8 49.1 102.8 49.1 C 102.2 49.1 101.8 48.9 101.5 48.4 C 101.49 48.39 101.5 48.4 101.5 48.4 L 101.5 51.3 L 100.5 51.3 L 100.5 42.9 L 101.5 42.9 L 101.5 43.7 Z M 107.3 47.2 C 107.3 47.8 107.6 48.3 108.2 48.3 C 108.8 48.3 109.6 47.9 109.5 46 C 108.5 46 107.3 45.9 107.3 47.2 Z M 109.5 48.1 C 109.5 48.1 109.48 48.12 109.5 48.1 C 109.2 48.8 108.7 49.1 108 49.1 C 106.7 49.1 106.3 48.3 106.3 47.1 C 106.3 45.3 108.1 45.2 109.5 45.2 C 109.5 44.4 109.5 43.6 108.5 43.6 C 107.8 43.6 107.5 44 107.5 44.6 C 107.5 44.6 106.4 44.6 106.4 44.6 C 106.5 43.3 107.2 42.8 108.5 42.8 C 110.1 42.8 110.5 43.6 110.5 44.6 C 110.5 44.6 110.5 47.6 110.5 47.6 C 110.5 48 110.5 48.5 110.6 49 C 110.59 49 109.5 49 109.5 49 L 109.5 48.1 Z M 112.5 42.9 L 112.5 41.8 L 113.5 41.3 L 113.5 42.9 L 114.8 42.9 L 114.8 43.7 L 113.5 43.7 C 113.5 43.7 113.48 47.39 113.5 47.4 C 113.5 47.8 113.5 48.3 114.4 48.3 C 114.5 48.3 114.6 48.2 114.8 48.2 C 114.8 48.2 114.8 49 114.8 49 C 114.5 49 114.2 49.1 113.9 49.1 C 112.9 49.1 112.5 48.7 112.5 48 C 112.5 47.99 112.5 43.7 112.5 43.7 L 111.5 43.7 L 111.5 42.9 L 112.5 42.9 Z M 116.7 49 L 115.7 49 L 115.7 42.9 L 116.7 42.9 L 116.7 49 Z M 115.6 40.3 L 116.7 40.3 L 116.7 41.4 L 115.6 41.4 L 115.6 40.3 Z M 121.7 45.5 C 121.7 43.8 121.2 43.6 120.5 43.6 C 119.9 43.6 119.4 43.9 119.3 45.5 C 119.3 45.5 121.7 45.5 121.7 45.5 Z M 119.3 46.3 C 119.3 48 119.8 48.3 120.6 48.3 C 121.2 48.3 121.6 47.8 121.6 47.2 C 121.6 47.2 122.7 47.2 122.7 47.2 C 122.7 48.5 121.9 49.1 120.6 49.1 C 119.3 49.1 118.3 48.7 118.3 46.1 C 118.3 44.3 118.5 42.8 120.6 42.8 C 122.3 42.8 122.8 43.8 122.8 45.8 C 122.75 45.77 122.8 46.3 122.8 46.3 C 122.8 46.3 119.35 46.29 119.3 46.3 Z M 127.7 49 C 127.7 49 127.68 44.8 127.7 44.8 C 127.7 44.2 127.4 43.6 126.6 43.6 C 125.5 43.6 125.4 44.6 125.4 45.4 C 125.37 45.41 125.4 49 125.4 49 L 124.4 49 C 124.4 49 124.39 44.2 124.4 44.2 C 124.4 43.8 124.4 43.4 124.3 42.9 C 124.33 42.94 125.4 42.9 125.4 42.9 L 125.4 43.7 C 125.4 43.7 125.42 43.72 125.4 43.7 C 125.8 43 126.3 42.8 127 42.8 C 128.3 42.8 128.7 43.6 128.7 44.8 C 128.66 44.8 128.7 49 128.7 49 L 127.7 49 Z M 130.5 42.9 L 130.5 41.8 L 131.5 41.3 L 131.5 42.9 L 132.8 42.9 L 132.8 43.7 L 131.5 43.7 C 131.5 43.7 131.48 47.39 131.5 47.4 C 131.5 47.8 131.5 48.3 132.4 48.3 C 132.4 48.3 132.6 48.2 132.8 48.2 C 132.8 48.2 132.8 49 132.8 49 C 132.5 49 132.2 49.1 131.8 49.1 C 130.9 49.1 130.5 48.7 130.5 48 C 130.5 47.99 130.5 43.7 130.5 43.7 L 129.5 43.7 L 129.5 42.9 L 130.5 42.9 Z M 135.5 49.1 C 134.2 49.1 133.4 48.5 133.4 47.2 C 133.4 47.2 134.5 47.2 134.5 47.2 C 134.5 47.5 134.5 48.3 135.5 48.3 C 136.1 48.3 136.6 48 136.6 47.4 C 136.6 46.3 133.6 46.3 133.6 44.5 C 133.6 43.8 134 42.8 135.7 42.8 C 136.7 42.8 137.7 43.3 137.6 44.5 C 137.6 44.5 136.5 44.5 136.5 44.5 C 136.5 43.9 136.2 43.6 135.5 43.6 C 135 43.6 134.6 43.9 134.6 44.4 C 134.6 45.4 137.6 45.4 137.6 47.3 C 137.6 48.6 136.7 49.1 135.5 49.1 Z M 142.7 49 L 141.7 49 L 141.7 42.9 L 142.7 42.9 L 142.7 49 Z M 141.6 40.3 L 142.7 40.3 L 142.7 41.4 L 141.6 41.4 L 141.6 40.3 Z M 147.7 49 C 147.7 49 147.67 44.8 147.7 44.8 C 147.7 44.2 147.4 43.6 146.6 43.6 C 145.5 43.6 145.4 44.6 145.4 45.4 C 145.36 45.41 145.4 49 145.4 49 L 144.4 49 C 144.4 49 144.38 44.2 144.4 44.2 C 144.4 43.8 144.4 43.4 144.3 42.9 C 144.32 42.94 145.4 42.9 145.4 42.9 L 145.4 43.7 C 145.4 43.7 145.41 43.72 145.4 43.7 C 145.8 43 146.2 42.8 147 42.8 C 148.3 42.8 148.6 43.6 148.6 44.8 C 148.65 44.8 148.6 49 148.6 49 L 147.7 49 Z M 156.5 45.9 C 156.5 45 156.5 43.6 155.2 43.6 C 154 43.6 154.1 45.3 154.1 46.2 C 154.1 47 154.2 48.3 155.2 48.3 C 156.3 48.3 156.5 47.5 156.5 45.9 Z M 154.1 43.7 C 154.1 43.7 154.13 43.66 154.1 43.7 C 154.5 43.1 154.9 42.8 155.5 42.8 C 156.5 42.8 157.5 43.2 157.5 45.9 C 157.5 47.4 157.4 49.1 155.5 49.1 C 154.9 49.1 154.5 48.9 154.1 48.4 C 154.15 48.39 154.1 48.4 154.1 48.4 L 154.1 51.3 L 153.1 51.3 L 153.1 42.9 L 154.1 42.9 L 154.1 43.7 Z M 160 49 L 159 49 L 159 40.3 L 160 40.3 L 160 49 Z M 162.6 47.2 C 162.6 47.8 162.9 48.3 163.6 48.3 C 164.2 48.3 164.9 47.9 164.8 46 C 163.9 46 162.6 45.9 162.6 47.2 Z M 164.8 48.1 C 164.8 48.1 164.8 48.12 164.8 48.1 C 164.5 48.8 164 49.1 163.3 49.1 C 162 49.1 161.6 48.3 161.6 47.1 C 161.6 45.3 163.4 45.2 164.8 45.2 C 164.8 44.4 164.8 43.6 163.8 43.6 C 163.1 43.6 162.8 44 162.8 44.6 C 162.8 44.6 161.8 44.6 161.8 44.6 C 161.8 43.3 162.5 42.8 163.8 42.8 C 165.4 42.8 165.8 43.6 165.8 44.6 C 165.8 44.6 165.8 47.6 165.8 47.6 C 165.8 48 165.8 48.5 165.9 49 C 165.9 49 164.8 49 164.8 49 L 164.8 48.1 Z M 170.9 44.9 C 170.9 43.9 170.4 43.6 170 43.6 C 169.3 43.6 168.8 44 168.8 45.6 C 168.8 47.6 169 48.3 170 48.3 C 170.3 48.3 170.9 48.1 170.9 47 C 170.9 47 171.9 47 171.9 47 C 172 48.7 170.7 49.1 170 49.1 C 168.7 49.1 167.7 48.7 167.7 46.1 C 167.7 44.3 167.9 42.8 170 42.8 C 171.2 42.8 172 43.5 171.9 44.9 C 171.9 44.9 170.9 44.9 170.9 44.9 Z M 177 45.5 C 177 43.8 176.5 43.6 175.8 43.6 C 175.2 43.6 174.7 43.9 174.7 45.5 C 174.7 45.5 177 45.5 177 45.5 Z M 174.7 46.3 C 174.7 48 175.1 48.3 175.9 48.3 C 176.6 48.3 176.9 47.8 176.9 47.2 C 176.9 47.2 178 47.2 178 47.2 C 178 48.5 177.2 49.1 175.9 49.1 C 174.6 49.1 173.6 48.7 173.6 46.1 C 173.6 44.3 173.8 42.8 175.9 42.8 C 177.6 42.8 178.1 43.8 178.1 45.8 C 178.07 45.77 178.1 46.3 178.1 46.3 C 178.1 46.3 174.66 46.29 174.7 46.3 Z M 181.9 48.3 C 183.1 48.3 183.1 47 183.1 46.1 C 183.1 44.5 183 43.6 181.9 43.6 C 180.8 43.6 180.8 44.9 180.8 45.7 C 180.8 46.6 180.7 48.3 181.9 48.3 Z M 180.8 49 L 179.8 49 L 179.8 40.3 L 180.8 40.3 L 180.8 43.6 C 180.8 43.6 180.81 43.55 180.8 43.6 C 181.1 43.1 181.6 42.8 182.1 42.8 C 184.1 42.8 184.1 44.6 184.1 46.1 C 184.1 48.7 183.2 49.1 182.2 49.1 C 181.6 49.1 181.1 48.8 180.8 48.3 C 180.8 48.28 180.8 48.3 180.8 48.3 L 180.8 49 Z M 189.1 45.6 C 189.1 44 188.6 43.6 187.8 43.6 C 187.1 43.6 186.6 44 186.6 45.6 C 186.6 47.6 186.8 48.3 187.8 48.3 C 188.9 48.3 189.1 47.6 189.1 45.6 Z M 185.5 46.1 C 185.5 44.3 185.7 42.8 187.8 42.8 C 189.9 42.8 190.1 44.3 190.1 46.1 C 190.1 48.7 189.1 49.1 187.8 49.1 C 186.6 49.1 185.5 48.7 185.5 46.1 Z M 195.3 47.2 C 195.3 47.8 195.6 48.3 196.2 48.3 C 196.8 48.3 197.6 47.9 197.5 46 C 196.5 46 195.3 45.9 195.3 47.2 Z M 197.5 48.1 C 197.5 48.1 197.47 48.12 197.5 48.1 C 197.2 48.8 196.7 49.1 195.9 49.1 C 194.7 49.1 194.3 48.3 194.3 47.1 C 194.3 45.3 196.1 45.2 197.5 45.2 C 197.5 44.4 197.5 43.6 196.4 43.6 C 195.8 43.6 195.4 44 195.5 44.6 C 195.5 44.6 194.4 44.6 194.4 44.6 C 194.5 43.3 195.2 42.8 196.5 42.8 C 198 42.8 198.4 43.6 198.4 44.6 C 198.4 44.6 198.4 47.6 198.4 47.6 C 198.4 48 198.5 48.5 198.6 49 C 198.57 49 197.5 49 197.5 49 L 197.5 48.1 Z M 201.4 43.9 C 201.4 43.9 201.41 43.85 201.4 43.9 C 201.8 42.9 202.3 42.8 203.3 42.8 C 203.3 42.8 203.3 43.8 203.3 43.8 C 203.2 43.8 203.1 43.8 203 43.8 C 202.9 43.8 202.9 43.8 202.8 43.8 C 201.7 43.8 201.4 44.6 201.4 45.4 C 201.39 45.42 201.4 49 201.4 49 L 200.4 49 L 200.4 42.9 L 201.4 42.9 L 201.4 43.9 Z M 207.3 49 C 207.3 49 207.34 44.8 207.3 44.8 C 207.3 44.2 207.2 43.6 206.4 43.6 C 206.1 43.6 205.7 43.8 205.5 44 C 205.3 44.3 205.3 44.7 205.3 44.9 C 205.3 44.92 205.3 49 205.3 49 L 204.3 49 C 204.3 49 204.32 44.2 204.3 44.2 C 204.3 43.8 204.3 43.4 204.3 42.9 C 204.26 42.94 205.3 42.9 205.3 42.9 L 205.3 43.7 C 205.3 43.7 205.32 43.7 205.3 43.7 C 205.6 43 206.1 42.8 206.8 42.8 C 207.4 42.8 208 43 208.3 43.6 C 208.6 43 209.1 42.8 209.7 42.8 C 210.3 42.8 211.3 43 211.3 44.4 C 211.35 44.39 211.3 49 211.3 49 L 210.4 49 C 210.4 49 210.37 44.8 210.4 44.8 C 210.4 44.2 210.2 43.6 209.4 43.6 C 209 43.6 208.9 43.6 208.7 43.9 C 208.4 44.1 208.3 44.7 208.3 44.9 C 208.32 44.92 208.3 49 208.3 49 L 207.3 49 Z M 217.8 43.6 C 216.7 43.6 216.6 44.5 216.6 46.1 C 216.6 47 216.6 48.3 217.8 48.3 C 218.9 48.3 218.9 46.9 218.9 45.7 C 218.9 44.9 218.8 43.6 217.8 43.6 Z M 218.9 40.3 L 219.9 40.3 L 219.9 49 L 218.9 49 L 218.9 48.3 C 218.9 48.3 218.87 48.28 218.9 48.3 C 218.5 48.8 218.1 49.1 217.5 49.1 C 216.5 49.1 215.5 48.7 215.5 46.1 C 215.5 44.6 215.6 42.8 217.5 42.8 C 218.1 42.8 218.5 43.1 218.9 43.6 C 218.86 43.55 218.9 43.6 218.9 43.6 L 218.9 40.3 Z M 222.7 49 L 221.7 49 L 221.7 42.9 L 222.7 42.9 L 222.7 49 Z M 221.6 40.3 L 222.7 40.3 L 222.7 41.4 L 221.6 41.4 L 221.6 40.3 Z M 226.1 49.1 C 224.8 49.1 224 48.5 224.1 47.2 C 224.1 47.2 225.2 47.2 225.2 47.2 C 225.2 47.5 225.2 48.3 226.2 48.3 C 226.8 48.3 227.2 48 227.2 47.4 C 227.2 46.3 224.2 46.3 224.2 44.5 C 224.2 43.8 224.6 42.8 226.3 42.8 C 227.4 42.8 228.3 43.3 228.2 44.5 C 228.2 44.5 227.1 44.5 227.1 44.5 C 227.1 43.9 226.8 43.6 226.2 43.6 C 225.6 43.6 225.2 43.9 225.2 44.4 C 225.2 45.4 228.3 45.4 228.3 47.3 C 228.3 48.6 227.3 49.1 226.1 49.1 Z M 232.9 44.9 C 232.9 43.9 232.4 43.6 232 43.6 C 231.3 43.6 230.7 44 230.7 45.6 C 230.7 47.6 231 48.3 232 48.3 C 232.2 48.3 232.9 48.1 232.9 47 C 232.9 47 233.9 47 233.9 47 C 234 48.7 232.7 49.1 232 49.1 C 230.7 49.1 229.7 48.7 229.7 46.1 C 229.7 44.3 229.9 42.8 232 42.8 C 233.2 42.8 233.9 43.5 233.9 44.9 C 233.9 44.9 232.9 44.9 232.9 44.9 Z M 239.1 45.6 C 239.1 44 238.6 43.6 237.8 43.6 C 237.1 43.6 236.5 44 236.5 45.6 C 236.5 47.6 236.8 48.3 237.8 48.3 C 238.8 48.3 239.1 47.6 239.1 45.6 Z M 235.5 46.1 C 235.5 44.3 235.7 42.8 237.8 42.8 C 239.9 42.8 240.1 44.3 240.1 46.1 C 240.1 48.7 239.1 49.1 237.8 49.1 C 236.5 49.1 235.5 48.7 235.5 46.1 Z M 245 49 C 245 49 244.97 44.8 245 44.8 C 245 44.2 244.7 43.6 243.9 43.6 C 242.8 43.6 242.7 44.6 242.7 45.4 C 242.67 45.41 242.7 49 242.7 49 L 241.7 49 C 241.7 49 241.69 44.2 241.7 44.2 C 241.7 43.8 241.7 43.4 241.6 42.9 C 241.63 42.94 242.7 42.9 242.7 42.9 L 242.7 43.7 C 242.7 43.7 242.72 43.72 242.7 43.7 C 243.1 43 243.6 42.8 244.3 42.8 C 245.6 42.8 246 43.6 246 44.8 C 245.96 44.8 246 49 246 49 L 245 49 Z M 247.8 42.9 L 247.8 41.8 L 248.8 41.3 L 248.8 42.9 L 250.1 42.9 L 250.1 43.7 L 248.8 43.7 C 248.8 43.7 248.78 47.39 248.8 47.4 C 248.8 47.8 248.8 48.3 249.7 48.3 C 249.7 48.3 249.9 48.2 250.1 48.2 C 250.1 48.2 250.1 49 250.1 49 C 249.8 49 249.5 49.1 249.1 49.1 C 248.2 49.1 247.8 48.7 247.8 48 C 247.79 47.99 247.8 43.7 247.8 43.7 L 246.8 43.7 L 246.8 42.9 L 247.8 42.9 Z M 252 49 L 251 49 L 251 42.9 L 252 42.9 L 252 49 Z M 250.9 40.3 L 252 40.3 L 252 41.4 L 250.9 41.4 L 250.9 40.3 Z M 257 49 C 257 49 256.97 44.8 257 44.8 C 257 44.2 256.7 43.6 255.9 43.6 C 254.8 43.6 254.7 44.6 254.7 45.4 C 254.67 45.41 254.7 49 254.7 49 L 253.7 49 C 253.7 49 253.69 44.2 253.7 44.2 C 253.7 43.8 253.7 43.4 253.6 42.9 C 253.63 42.94 254.7 42.9 254.7 42.9 L 254.7 43.7 C 254.7 43.7 254.72 43.72 254.7 43.7 C 255.1 43 255.6 42.8 256.3 42.8 C 257.6 42.8 258 43.6 258 44.8 C 257.96 44.8 258 49 258 49 L 257 49 Z M 262.9 42.9 L 263.9 42.9 C 263.9 42.9 263.91 47.74 263.9 47.7 C 263.9 48.2 263.9 48.6 264 49 C 263.97 49 262.9 49 262.9 49 L 262.9 48.3 C 262.9 48.3 262.89 48.27 262.9 48.3 C 262.6 48.8 262 49.1 261.4 49.1 C 260.3 49.1 259.7 48.6 259.7 47.6 C 259.72 47.56 259.7 42.9 259.7 42.9 L 260.7 42.9 C 260.7 42.9 260.7 47.14 260.7 47.1 C 260.7 47.9 261 48.4 261.7 48.4 C 262.3 48.4 262.9 48 262.9 47 C 262.93 46.96 262.9 42.9 262.9 42.9 Z M 269 45.5 C 269 43.8 268.5 43.6 267.8 43.6 C 267.2 43.6 266.7 43.9 266.6 45.5 C 266.6 45.5 269 45.5 269 45.5 Z M 266.6 46.3 C 266.6 48 267.1 48.3 267.9 48.3 C 268.5 48.3 268.9 47.8 268.9 47.2 C 268.9 47.2 270 47.2 270 47.2 C 270 48.5 269.2 49.1 267.9 49.1 C 266.6 49.1 265.6 48.7 265.6 46.1 C 265.6 44.3 265.8 42.8 267.9 42.8 C 269.6 42.8 270.1 43.8 270.1 45.8 C 270.05 45.77 270.1 46.3 270.1 46.3 C 270.1 46.3 266.64 46.29 266.6 46.3 Z M 273.7 43.6 C 272.7 43.6 272.5 44.5 272.5 46.1 C 272.5 47 272.5 48.3 273.8 48.3 C 274.9 48.3 274.9 46.9 274.9 45.7 C 274.9 44.9 274.8 43.6 273.7 43.6 Z M 274.9 40.3 L 275.9 40.3 L 275.9 49 L 274.9 49 L 274.9 48.3 C 274.9 48.3 274.87 48.28 274.9 48.3 C 274.5 48.8 274.1 49.1 273.5 49.1 C 272.5 49.1 271.5 48.7 271.5 46.1 C 271.5 44.6 271.6 42.8 273.5 42.8 C 274.1 42.8 274.5 43.1 274.9 43.6 C 274.85 43.55 274.9 43.6 274.9 43.6 L 274.9 40.3 Z M 280.5 42.9 L 280.5 41.8 L 281.4 41.3 L 281.4 42.9 L 282.8 42.9 L 282.8 43.7 L 281.4 43.7 C 281.4 43.7 281.44 47.39 281.4 47.4 C 281.4 47.8 281.4 48.3 282.3 48.3 C 282.4 48.3 282.6 48.2 282.8 48.2 C 282.8 48.2 282.8 49 282.8 49 C 282.5 49 282.1 49.1 281.8 49.1 C 280.9 49.1 280.5 48.7 280.5 48 C 280.46 47.99 280.5 43.7 280.5 43.7 L 279.5 43.7 L 279.5 42.9 L 280.5 42.9 Z M 287 49 C 287 49 286.97 44.9 287 44.9 C 287 44.2 286.7 43.6 285.9 43.6 C 284.9 43.6 284.7 44.4 284.7 45.4 C 284.66 45.44 284.7 49 284.7 49 L 283.7 49 L 283.7 40.3 L 284.7 40.3 L 284.7 43.7 C 284.7 43.7 284.7 43.72 284.7 43.7 C 285.1 43 285.6 42.8 286.3 42.8 C 287.4 42.8 288 43.3 288 44.7 C 287.96 44.7 288 49 288 49 L 287 49 Z M 293 45.5 C 293 43.8 292.5 43.6 291.8 43.6 C 291.2 43.6 290.7 43.9 290.6 45.5 C 290.6 45.5 293 45.5 293 45.5 Z M 290.6 46.3 C 290.6 48 291.1 48.3 291.9 48.3 C 292.5 48.3 292.9 47.8 292.9 47.2 C 292.9 47.2 294 47.2 294 47.2 C 294 48.5 293.2 49.1 291.9 49.1 C 290.6 49.1 289.6 48.7 289.6 46.1 C 289.6 44.3 289.8 42.8 291.9 42.8 C 293.6 42.8 294.1 43.8 294.1 45.8 C 294.05 45.77 294.1 46.3 294.1 46.3 C 294.1 46.3 290.64 46.29 290.6 46.3 Z M 300.1 49.1 C 298.8 49.1 298 48.5 298 47.2 C 298 47.2 299.2 47.2 299.2 47.2 C 299.2 47.5 299.2 48.3 300.2 48.3 C 300.8 48.3 301.2 48 301.2 47.4 C 301.2 46.3 298.2 46.3 298.2 44.5 C 298.2 43.8 298.6 42.8 300.3 42.8 C 301.4 42.8 302.3 43.3 302.2 44.5 C 302.2 44.5 301.1 44.5 301.1 44.5 C 301.1 43.9 300.8 43.6 300.2 43.6 C 299.6 43.6 299.2 43.9 299.2 44.4 C 299.2 45.4 302.2 45.4 302.2 47.3 C 302.2 48.6 301.3 49.1 300.1 49.1 Z M 303.8 42.9 L 303.8 41.8 L 304.8 41.3 L 304.8 42.9 L 306.1 42.9 L 306.1 43.7 L 304.8 43.7 C 304.8 43.7 304.77 47.39 304.8 47.4 C 304.8 47.8 304.8 48.3 305.7 48.3 C 305.7 48.3 305.9 48.2 306.1 48.2 C 306.1 48.2 306.1 49 306.1 49 C 305.8 49 305.5 49.1 305.1 49.1 C 304.2 49.1 303.8 48.7 303.8 48 C 303.78 47.99 303.8 43.7 303.8 43.7 L 302.8 43.7 L 302.8 42.9 L 303.8 42.9 Z M 310.3 42.9 L 311.2 42.9 C 311.2 42.9 311.24 47.74 311.2 47.7 C 311.2 48.2 311.3 48.6 311.3 49 C 311.3 49 310.3 49 310.3 49 L 310.3 48.3 C 310.3 48.3 310.22 48.27 310.2 48.3 C 309.9 48.8 309.3 49.1 308.7 49.1 C 307.6 49.1 307 48.6 307 47.6 C 307.05 47.56 307 42.9 307 42.9 L 308 42.9 C 308 42.9 308.03 47.14 308 47.1 C 308 47.9 308.4 48.4 309.1 48.4 C 309.6 48.4 310.3 48 310.3 47 C 310.25 46.96 310.3 42.9 310.3 42.9 Z M 315.1 43.6 C 314 43.6 313.9 44.5 313.9 46.1 C 313.9 47 313.9 48.3 315.1 48.3 C 316.2 48.3 316.2 46.9 316.2 45.7 C 316.2 44.9 316.2 43.6 315.1 43.6 Z M 316.2 40.3 L 317.2 40.3 L 317.2 49 L 316.2 49 L 316.2 48.3 C 316.2 48.3 316.19 48.28 316.2 48.3 C 315.9 48.8 315.4 49.1 314.8 49.1 C 313.8 49.1 312.8 48.7 312.8 46.1 C 312.8 44.6 312.9 42.8 314.8 42.8 C 315.4 42.8 315.8 43.1 316.2 43.6 C 316.18 43.55 316.2 43.6 316.2 43.6 L 316.2 40.3 Z M 320.8 47.9 L 320.9 47.9 L 322.3 42.9 L 323.4 42.9 L 320.6 51.3 L 319.6 51.3 L 320.3 49 L 318.2 42.9 L 319.4 42.9 L 320.8 47.9 Z M 329.1 43.6 C 328 43.6 327.9 44.5 327.9 46.1 C 327.9 47 327.9 48.3 329.1 48.3 C 330.2 48.3 330.2 46.9 330.2 45.7 C 330.2 44.9 330.2 43.6 329.1 43.6 Z M 330.2 40.3 L 331.2 40.3 L 331.2 49 L 330.2 49 L 330.2 48.3 C 330.2 48.3 330.18 48.28 330.2 48.3 C 329.8 48.8 329.4 49.1 328.8 49.1 C 327.8 49.1 326.8 48.7 326.8 46.1 C 326.8 44.6 326.9 42.8 328.8 42.8 C 329.4 42.8 329.8 43.1 330.2 43.6 C 330.17 43.55 330.2 43.6 330.2 43.6 L 330.2 40.3 Z M 336.2 42.9 L 337.2 42.9 C 337.2 42.9 337.23 47.74 337.2 47.7 C 337.2 48.2 337.3 48.6 337.3 49 C 337.29 49 336.2 49 336.2 49 L 336.2 48.3 C 336.2 48.3 336.21 48.27 336.2 48.3 C 335.9 48.8 335.3 49.1 334.7 49.1 C 333.6 49.1 333 48.6 333 47.6 C 333.04 47.56 333 42.9 333 42.9 L 334 42.9 C 334 42.9 334.02 47.14 334 47.1 C 334 47.9 334.4 48.4 335.1 48.4 C 335.6 48.4 336.2 48 336.2 47 C 336.24 46.96 336.2 42.9 336.2 42.9 Z M 342.3 45.5 C 342.3 43.8 341.8 43.6 341.1 43.6 C 340.5 43.6 340 43.9 340 45.5 C 340 45.5 342.3 45.5 342.3 45.5 Z M 340 46.3 C 340 48 340.4 48.3 341.2 48.3 C 341.9 48.3 342.2 47.8 342.2 47.2 C 342.2 47.2 343.3 47.2 343.3 47.2 C 343.3 48.5 342.5 49.1 341.2 49.1 C 339.9 49.1 338.9 48.7 338.9 46.1 C 338.9 44.3 339.1 42.8 341.2 42.8 C 342.9 42.8 343.4 43.8 343.4 45.8 C 343.37 45.77 343.4 46.3 343.4 46.3 C 343.4 46.3 339.96 46.29 340 46.3 Z M 347.8 42.9 L 347.8 41.8 L 348.8 41.3 L 348.8 42.9 L 350.1 42.9 L 350.1 43.7 L 348.8 43.7 C 348.8 43.7 348.76 47.39 348.8 47.4 C 348.8 47.8 348.8 48.3 349.7 48.3 C 349.7 48.3 349.9 48.2 350.1 48.2 C 350.1 48.2 350.1 49 350.1 49 C 349.8 49 349.5 49.1 349.1 49.1 C 348.2 49.1 347.8 48.7 347.8 48 C 347.78 47.99 347.8 43.7 347.8 43.7 L 346.8 43.7 L 346.8 42.9 L 347.8 42.9 Z M 354.4 45.6 C 354.4 44 353.9 43.6 353.1 43.6 C 352.4 43.6 351.9 44 351.9 45.6 C 351.9 47.6 352.1 48.3 353.1 48.3 C 354.2 48.3 354.4 47.6 354.4 45.6 Z M 350.8 46.1 C 350.8 44.3 351 42.8 353.1 42.8 C 355.2 42.8 355.4 44.3 355.4 46.1 C 355.4 48.7 354.4 49.1 353.1 49.1 C 351.9 49.1 350.8 48.7 350.8 46.1 Z M 360.6 49 L 359.6 49 L 359.6 40.3 L 360.6 40.3 L 360.6 49 Z M 363.2 47.2 C 363.2 47.8 363.5 48.3 364.2 48.3 C 364.8 48.3 365.5 47.9 365.4 46 C 364.5 46 363.2 45.9 363.2 47.2 Z M 365.5 48.1 C 365.5 48.1 365.43 48.12 365.4 48.1 C 365.1 48.8 364.7 49.1 363.9 49.1 C 362.6 49.1 362.2 48.3 362.2 47.1 C 362.2 45.3 364 45.2 365.4 45.2 C 365.5 44.4 365.5 43.6 364.4 43.6 C 363.7 43.6 363.4 44 363.5 44.6 C 363.5 44.6 362.4 44.6 362.4 44.6 C 362.4 43.3 363.2 42.8 364.4 42.8 C 366 42.8 366.4 43.6 366.4 44.6 C 366.4 44.6 366.4 47.6 366.4 47.6 C 366.4 48 366.5 48.5 366.5 49 C 366.53 49 365.5 49 365.5 49 L 365.5 48.1 Z M 371.5 44.9 C 371.5 43.9 371 43.6 370.7 43.6 C 369.9 43.6 369.4 44 369.4 45.6 C 369.4 47.6 369.6 48.3 370.7 48.3 C 370.9 48.3 371.6 48.1 371.5 47 C 371.5 47 372.6 47 372.6 47 C 372.6 48.7 371.3 49.1 370.7 49.1 C 369.4 49.1 368.4 48.7 368.4 46.1 C 368.4 44.3 368.6 42.8 370.7 42.8 C 371.9 42.8 372.6 43.5 372.5 44.9 C 372.5 44.9 371.5 44.9 371.5 44.9 Z M 375.3 49 L 374.3 49 L 374.3 40.3 L 375.3 40.3 L 375.3 45.6 L 375.3 45.6 L 377.2 42.9 L 378.4 42.9 L 376.4 45.5 L 378.7 49 L 377.5 49 L 375.3 45.6 L 375.3 45.6 L 375.3 49 Z M 385.7 45.6 C 385.7 44 385.2 43.6 384.5 43.6 C 383.7 43.6 383.2 44 383.2 45.6 C 383.2 47.6 383.4 48.3 384.5 48.3 C 385.5 48.3 385.7 47.6 385.7 45.6 Z M 382.2 46.1 C 382.2 44.3 382.4 42.8 384.5 42.8 C 386.6 42.8 386.8 44.3 386.8 46.1 C 386.8 48.7 385.7 49.1 384.5 49.1 C 383.2 49.1 382.2 48.7 382.2 46.1 Z M 388.5 42.9 C 388.5 42.9 388.5 41.76 388.5 41.8 C 388.5 40.5 389.4 40.3 390.2 40.3 C 390.4 40.3 390.6 40.3 390.7 40.3 C 390.7 40.3 390.7 41 390.7 41 C 389.7 41 389.5 41.4 389.5 41.9 C 389.49 41.91 389.5 42.9 389.5 42.9 L 390.7 42.9 L 390.7 43.7 L 389.5 43.7 L 389.5 49 L 388.5 49 L 388.5 43.7 L 387.6 43.7 L 387.6 42.9 L 388.5 42.9 Z M 397.6 45.5 C 397.6 43.8 397.2 43.6 396.4 43.6 C 395.8 43.6 395.3 43.9 395.3 45.5 C 395.3 45.5 397.6 45.5 397.6 45.5 Z M 395.3 46.3 C 395.3 48 395.7 48.3 396.5 48.3 C 397.2 48.3 397.5 47.8 397.6 47.2 C 397.6 47.2 398.6 47.2 398.6 47.2 C 398.6 48.5 397.8 49.1 396.5 49.1 C 395.2 49.1 394.2 48.7 394.2 46.1 C 394.2 44.3 394.4 42.8 396.5 42.8 C 398.3 42.8 398.7 43.8 398.7 45.8 C 398.69 45.77 398.7 46.3 398.7 46.3 C 398.7 46.3 395.28 46.29 395.3 46.3 Z M 400.5 42.9 C 400.5 42.9 400.5 41.76 400.5 41.8 C 400.5 40.5 401.4 40.3 402.2 40.3 C 402.4 40.3 402.6 40.3 402.7 40.3 C 402.7 40.3 402.7 41 402.7 41 C 401.7 41 401.5 41.4 401.5 41.9 C 401.49 41.91 401.5 42.9 401.5 42.9 L 402.7 42.9 L 402.7 43.7 L 401.5 43.7 L 401.5 49 L 400.5 49 L 400.5 43.7 L 399.6 43.7 L 399.6 42.9 L 400.5 42.9 Z M 403.8 42.9 C 403.8 42.9 403.84 41.76 403.8 41.8 C 403.8 40.5 404.7 40.3 405.6 40.3 C 405.8 40.3 405.9 40.3 406 40.3 C 406 40.3 406 41 406 41 C 405 41 404.8 41.4 404.8 41.9 C 404.82 41.91 404.8 42.9 404.8 42.9 L 406 42.9 L 406 43.7 L 404.8 43.7 L 404.8 49 L 403.8 49 L 403.8 43.7 L 402.9 43.7 L 402.9 42.9 L 403.8 42.9 Z M 408 49 L 407 49 L 407 42.9 L 408 42.9 L 408 49 Z M 406.9 40.3 L 408 40.3 L 408 41.4 L 406.9 41.4 L 406.9 40.3 Z M 412.8 44.9 C 412.9 43.9 412.4 43.6 412 43.6 C 411.2 43.6 410.7 44 410.7 45.6 C 410.7 47.6 411 48.3 412 48.3 C 412.2 48.3 412.9 48.1 412.9 47 C 412.9 47 413.9 47 413.9 47 C 413.9 48.7 412.7 49.1 412 49.1 C 410.7 49.1 409.7 48.7 409.7 46.1 C 409.7 44.3 409.9 42.8 412 42.8 C 413.2 42.8 413.9 43.5 413.8 44.9 C 413.8 44.9 412.8 44.9 412.8 44.9 Z M 416.6 47.2 C 416.6 47.8 416.8 48.3 417.5 48.3 C 418.1 48.3 418.9 47.9 418.8 46 C 417.8 46 416.6 45.9 416.6 47.2 Z M 418.8 48.1 C 418.8 48.1 418.76 48.12 418.8 48.1 C 418.5 48.8 418 49.1 417.2 49.1 C 415.9 49.1 415.6 48.3 415.6 47.1 C 415.6 45.3 417.4 45.2 418.8 45.2 C 418.8 44.4 418.8 43.6 417.7 43.6 C 417.1 43.6 416.7 44 416.8 44.6 C 416.8 44.6 415.7 44.6 415.7 44.6 C 415.8 43.3 416.5 42.8 417.8 42.8 C 419.3 42.8 419.7 43.6 419.7 44.6 C 419.7 44.6 419.7 47.6 419.7 47.6 C 419.7 48 419.8 48.5 419.9 49 C 419.86 49 418.8 49 418.8 49 L 418.8 48.1 Z M 424.8 44.9 C 424.9 43.9 424.4 43.6 424 43.6 C 423.2 43.6 422.7 44 422.7 45.6 C 422.7 47.6 423 48.3 424 48.3 C 424.2 48.3 424.9 48.1 424.9 47 C 424.9 47 425.9 47 425.9 47 C 425.9 48.7 424.7 49.1 424 49.1 C 422.7 49.1 421.7 48.7 421.7 46.1 C 421.7 44.3 421.9 42.8 424 42.8 C 425.2 42.8 425.9 43.5 425.8 44.9 C 425.8 44.9 424.8 44.9 424.8 44.9 Z M 429.5 47.9 L 429.5 47.9 L 431 42.9 L 432 42.9 L 429.3 51.3 L 428.3 51.3 L 428.9 49 L 426.9 42.9 L 428 42.9 L 429.5 47.9 Z M 432.6 50.2 L 431.8 50.2 L 434.7 40.3 L 435.5 40.3 L 432.6 50.2 Z M 437.2 47.2 C 437.2 47.8 437.5 48.3 438.2 48.3 C 438.8 48.3 439.5 47.9 439.4 46 C 438.5 46 437.2 45.9 437.2 47.2 Z M 439.4 48.1 C 439.4 48.1 439.42 48.12 439.4 48.1 C 439.1 48.8 438.7 49.1 437.9 49.1 C 436.6 49.1 436.2 48.3 436.2 47.1 C 436.2 45.3 438 45.2 439.4 45.2 C 439.4 44.4 439.5 43.6 438.4 43.6 C 437.7 43.6 437.4 44 437.4 44.6 C 437.4 44.6 436.4 44.6 436.4 44.6 C 436.4 43.3 437.1 42.8 438.4 42.8 C 440 42.8 440.4 43.6 440.4 44.6 C 440.4 44.6 440.4 47.6 440.4 47.6 C 440.4 48 440.4 48.5 440.5 49 C 440.52 49 439.4 49 439.4 49 L 439.4 48.1 Z M 442.4 42.9 L 442.4 41.8 L 443.4 41.3 L 443.4 42.9 L 444.7 42.9 L 444.7 43.7 L 443.4 43.7 C 443.4 43.7 443.41 47.39 443.4 47.4 C 443.4 47.8 443.4 48.3 444.3 48.3 C 444.4 48.3 444.5 48.2 444.8 48.2 C 444.8 48.2 444.8 49 444.8 49 C 444.4 49 444.1 49.1 443.8 49.1 C 442.9 49.1 442.4 48.7 442.4 48 C 442.43 47.99 442.4 43.7 442.4 43.7 L 441.4 43.7 L 441.4 42.9 L 442.4 42.9 Z M 445.8 42.9 L 445.8 41.8 L 446.7 41.3 L 446.7 42.9 L 448.1 42.9 L 448.1 43.7 L 446.7 43.7 C 446.7 43.7 446.75 47.39 446.7 47.4 C 446.7 47.8 446.7 48.3 447.6 48.3 C 447.7 48.3 447.9 48.2 448.1 48.2 C 448.1 48.2 448.1 49 448.1 49 C 447.8 49 447.4 49.1 447.1 49.1 C 446.2 49.1 445.8 48.7 445.8 48 C 445.77 47.99 445.8 43.7 445.8 43.7 L 444.8 43.7 L 444.8 42.9 L 445.8 42.9 Z M 449.9 47.2 C 449.9 47.8 450.2 48.3 450.8 48.3 C 451.4 48.3 452.2 47.9 452.1 46 C 451.2 46 449.9 45.9 449.9 47.2 Z M 452.1 48.1 C 452.1 48.1 452.09 48.12 452.1 48.1 C 451.8 48.8 451.3 49.1 450.6 49.1 C 449.3 49.1 448.9 48.3 448.9 47.1 C 448.9 45.3 450.7 45.2 452.1 45.2 C 452.1 44.4 452.1 43.6 451.1 43.6 C 450.4 43.6 450.1 44 450.1 44.6 C 450.1 44.6 449.1 44.6 449.1 44.6 C 449.1 43.3 449.8 42.8 451.1 42.8 C 452.7 42.8 453.1 43.6 453.1 44.6 C 453.1 44.6 453.1 47.6 453.1 47.6 C 453.1 48 453.1 48.5 453.2 49 C 453.19 49 452.1 49 452.1 49 L 452.1 48.1 Z M 458.2 44.9 C 458.2 43.9 457.7 43.6 457.3 43.6 C 456.6 43.6 456 44 456 45.6 C 456 47.6 456.3 48.3 457.3 48.3 C 457.6 48.3 458.2 48.1 458.2 47 C 458.2 47 459.2 47 459.2 47 C 459.3 48.7 458 49.1 457.3 49.1 C 456 49.1 455 48.7 455 46.1 C 455 44.3 455.2 42.8 457.3 42.8 C 458.5 42.8 459.2 43.5 459.2 44.9 C 459.2 44.9 458.2 44.9 458.2 44.9 Z M 462 49 L 461 49 L 461 40.3 L 462 40.3 L 462 45.6 L 462 45.6 L 463.8 42.9 L 465 42.9 L 463 45.5 L 465.4 49 L 464.2 49 L 462 45.6 L 462 45.6 L 462 49 Z M 468.1 49.1 C 466.8 49.1 466 48.5 466 47.2 C 466 47.2 467.1 47.2 467.1 47.2 C 467.1 47.5 467.1 48.3 468.1 48.3 C 468.7 48.3 469.2 48 469.2 47.4 C 469.2 46.3 466.2 46.3 466.2 44.5 C 466.2 43.8 466.6 42.8 468.3 42.8 C 469.3 42.8 470.3 43.3 470.2 44.5 C 470.2 44.5 469.1 44.5 469.1 44.5 C 469.1 43.9 468.8 43.6 468.1 43.6 C 467.6 43.6 467.2 43.9 467.2 44.4 C 467.2 45.4 470.2 45.4 470.2 47.3 C 470.2 48.6 469.3 49.1 468.1 49.1 Z M 472.7 49 L 471.6 49 L 471.6 47.8 L 472.7 47.8 L 472.7 49 Z M 476.4 41.5 L 476.4 41 L 477.4 41 L 477.4 40 L 477.9 40 L 477.9 41 L 478.9 41 L 478.9 41.5 L 477.9 41.5 L 477.9 43.5 L 478.9 43.5 L 478.9 44 L 477.9 44 L 477.9 45 L 477.4 45 L 477.4 44 L 476.4 44 L 476.4 43.5 L 477.4 43.5 L 477.4 41.5 L 476.4 41.5 Z M 480.2 45.8 C 480.2 45.8 480.2 43 480.2 43 C 480.2 41.3 481 40.2 482.9 40.2 C 484.7 40.2 485.6 41.3 485.6 43 C 485.6 43 485.6 45.8 485.6 45.8 C 485.6 48.2 484.7 49.2 482.9 49.2 C 481 49.2 480.2 48.2 480.2 45.8 Z M 484.5 45.9 C 484.5 45.9 484.5 43 484.5 43 C 484.5 41.1 483.2 41.1 482.9 41.1 C 482.5 41.1 481.3 41.1 481.3 43 C 481.3 43 481.3 45.9 481.3 45.9 C 481.3 47.8 481.8 48.3 482.9 48.3 C 483.9 48.3 484.5 47.8 484.5 45.9 Z M 487.5 49 L 487.5 40.3 L 488.6 40.3 L 488.6 48 L 491.8 48 L 491.8 49 L 487.5 49 Z M 492.9 49 L 492.9 40.3 L 497.3 40.3 L 497.3 41.3 L 494 41.3 L 494 44.1 L 497.1 44.1 L 497.1 45 L 494 45 L 494 48 L 497.4 48 L 497.4 49 L 492.9 49 Z M 503.2 49.1 C 501.9 49.1 501.1 48.5 501.1 47.2 C 501.1 47.2 502.2 47.2 502.2 47.2 C 502.2 47.5 502.2 48.3 503.2 48.3 C 503.8 48.3 504.3 48 504.3 47.4 C 504.3 46.3 501.3 46.3 501.3 44.5 C 501.3 43.8 501.6 42.8 503.3 42.8 C 504.4 42.8 505.3 43.3 505.3 44.5 C 505.3 44.5 504.2 44.5 504.2 44.5 C 504.2 43.9 503.8 43.6 503.2 43.6 C 502.7 43.6 502.3 43.9 502.3 44.4 C 502.3 45.4 505.3 45.4 505.3 47.3 C 505.3 48.6 504.4 49.1 503.2 49.1 Z M 506.8 42.9 L 506.8 41.8 L 507.8 41.3 L 507.8 42.9 L 509.1 42.9 L 509.1 43.7 L 507.8 43.7 C 507.8 43.7 507.83 47.39 507.8 47.4 C 507.8 47.8 507.8 48.3 508.7 48.3 C 508.8 48.3 509 48.2 509.2 48.2 C 509.2 48.2 509.2 49 509.2 49 C 508.8 49 508.5 49.1 508.2 49.1 C 507.3 49.1 506.8 48.7 506.8 48 C 506.84 47.99 506.8 43.7 506.8 43.7 L 505.8 43.7 L 505.8 42.9 L 506.8 42.9 Z M 513.3 42.9 L 514.3 42.9 C 514.3 42.9 514.29 47.74 514.3 47.7 C 514.3 48.2 514.3 48.6 514.4 49 C 514.35 49 513.3 49 513.3 49 L 513.3 48.3 C 513.3 48.3 513.28 48.27 513.3 48.3 C 513 48.8 512.4 49.1 511.7 49.1 C 510.7 49.1 510.1 48.6 510.1 47.6 C 510.11 47.56 510.1 42.9 510.1 42.9 L 511.1 42.9 C 511.1 42.9 511.09 47.14 511.1 47.1 C 511.1 47.9 511.4 48.4 512.1 48.4 C 512.7 48.4 513.3 48 513.3 47 C 513.31 46.96 513.3 42.9 513.3 42.9 Z M 518.1 43.6 C 517.1 43.6 516.9 44.5 516.9 46.1 C 516.9 47 516.9 48.3 518.2 48.3 C 519.3 48.3 519.3 46.9 519.3 45.7 C 519.3 44.9 519.2 43.6 518.1 43.6 Z M 519.3 40.3 L 520.3 40.3 L 520.3 49 L 519.3 49 L 519.3 48.3 C 519.3 48.3 519.25 48.28 519.3 48.3 C 518.9 48.8 518.5 49.1 517.9 49.1 C 516.9 49.1 515.9 48.7 515.9 46.1 C 515.9 44.6 516 42.8 517.9 42.8 C 518.5 42.8 518.9 43.1 519.2 43.6 C 519.24 43.55 519.3 43.6 519.3 43.6 L 519.3 40.3 Z M 523.9 47.9 L 523.9 47.9 L 525.4 42.9 L 526.4 42.9 L 523.7 51.3 L 522.7 51.3 L 523.4 49 L 521.3 42.9 L 522.4 42.9 L 523.9 47.9 Z M 531 49 L 530 49 L 530 42.9 L 531 42.9 L 531 49 Z M 530 40.3 L 531.1 40.3 L 531.1 41.4 L 530 41.4 L 530 40.3 Z M 534.5 49.1 C 533.2 49.1 532.4 48.5 532.4 47.2 C 532.4 47.2 533.5 47.2 533.5 47.2 C 533.5 47.5 533.6 48.3 534.6 48.3 C 535.1 48.3 535.6 48 535.6 47.4 C 535.6 46.3 532.6 46.3 532.6 44.5 C 532.6 43.8 533 42.8 534.7 42.8 C 535.7 42.8 536.7 43.3 536.6 44.5 C 536.6 44.5 535.5 44.5 535.5 44.5 C 535.5 43.9 535.2 43.6 534.5 43.6 C 534 43.6 533.6 43.9 533.6 44.4 C 533.6 45.4 536.6 45.4 536.6 47.3 C 536.6 48.6 535.7 49.1 534.5 49.1 Z M 544.1 45.6 C 544.1 44 543.6 43.6 542.9 43.6 C 542.1 43.6 541.6 44 541.6 45.6 C 541.6 47.6 541.8 48.3 542.9 48.3 C 543.9 48.3 544.1 47.6 544.1 45.6 Z M 540.6 46.1 C 540.6 44.3 540.8 42.8 542.9 42.8 C 545 42.8 545.2 44.3 545.2 46.1 C 545.2 48.7 544.1 49.1 542.9 49.1 C 541.6 49.1 540.6 48.7 540.6 46.1 Z M 550 49 C 550 49 550.01 44.8 550 44.8 C 550 44.2 549.8 43.6 548.9 43.6 C 547.9 43.6 547.7 44.6 547.7 45.4 C 547.7 45.41 547.7 49 547.7 49 L 546.7 49 C 546.7 49 546.72 44.2 546.7 44.2 C 546.7 43.8 546.7 43.4 546.7 42.9 C 546.66 42.94 547.7 42.9 547.7 42.9 L 547.7 43.7 C 547.7 43.7 547.75 43.72 547.7 43.7 C 548.1 43 548.6 42.8 549.4 42.8 C 550.7 42.8 551 43.6 551 44.8 C 550.99 44.8 551 49 551 49 L 550 49 Z M 554.8 43.6 C 553.7 43.6 553.6 45 553.6 45.8 C 553.6 47.7 554.1 48.2 554.8 48.2 C 556 48.2 555.9 46.8 555.9 45.9 C 555.9 45 556 43.6 554.8 43.6 Z M 555.9 42.9 L 556.9 42.9 C 556.9 42.9 556.91 49.61 556.9 49.6 C 556.9 51 556 51.3 554.7 51.3 C 553.7 51.3 552.8 50.8 552.8 49.7 C 552.8 49.7 553.9 49.7 553.9 49.7 C 554 50.2 554.3 50.5 554.9 50.5 C 555.6 50.5 555.9 50.1 555.9 49.5 C 555.92 49.5 555.9 48.2 555.9 48.2 C 555.9 48.2 555.89 48.24 555.9 48.2 C 555.6 48.7 555.1 49 554.6 49 C 552.9 49 552.6 47.6 552.6 45.8 C 552.6 43 554 42.8 554.5 42.8 C 555.1 42.8 555.6 43.1 555.9 43.7 C 555.9 43.68 555.9 43.7 555.9 43.7 L 555.9 42.9 Z M 562.1 45.6 C 562.1 44 561.6 43.6 560.9 43.6 C 560.1 43.6 559.6 44 559.6 45.6 C 559.6 47.6 559.8 48.3 560.9 48.3 C 561.9 48.3 562.1 47.6 562.1 45.6 Z M 558.6 46.1 C 558.6 44.3 558.8 42.8 560.9 42.8 C 563 42.8 563.2 44.3 563.2 46.1 C 563.2 48.7 562.1 49.1 560.9 49.1 C 559.6 49.1 558.6 48.7 558.6 46.1 Z M 565.7 49 L 564.7 49 L 564.7 42.9 L 565.7 42.9 L 565.7 49 Z M 564.6 40.3 L 565.7 40.3 L 565.7 41.4 L 564.6 41.4 L 564.6 40.3 Z M 570.7 49 C 570.7 49 570.67 44.8 570.7 44.8 C 570.7 44.2 570.4 43.6 569.6 43.6 C 568.5 43.6 568.4 44.6 568.4 45.4 C 568.37 45.41 568.4 49 568.4 49 L 567.4 49 C 567.4 49 567.38 44.2 567.4 44.2 C 567.4 43.8 567.4 43.4 567.3 42.9 C 567.32 42.94 568.4 42.9 568.4 42.9 L 568.4 43.7 C 568.4 43.7 568.41 43.72 568.4 43.7 C 568.8 43 569.3 42.8 570 42.8 C 571.3 42.8 571.7 43.6 571.7 44.8 C 571.65 44.8 571.7 49 571.7 49 L 570.7 49 Z M 575.4 43.6 C 574.3 43.6 574.3 45 574.3 45.8 C 574.3 47.7 574.7 48.2 575.5 48.2 C 576.6 48.2 576.6 46.8 576.6 45.9 C 576.6 45 576.7 43.6 575.4 43.6 Z M 576.6 42.9 L 577.6 42.9 C 577.6 42.9 577.57 49.61 577.6 49.6 C 577.6 51 576.7 51.3 575.3 51.3 C 574.3 51.3 573.4 50.8 573.5 49.7 C 573.5 49.7 574.6 49.7 574.6 49.7 C 574.6 50.2 575 50.5 575.5 50.5 C 576.2 50.5 576.6 50.1 576.6 49.5 C 576.59 49.5 576.6 48.2 576.6 48.2 C 576.6 48.2 576.55 48.24 576.6 48.2 C 576.3 48.7 575.7 49 575.2 49 C 573.6 49 573.3 47.6 573.3 45.8 C 573.3 43 574.7 42.8 575.1 42.8 C 575.8 42.8 576.3 43.1 576.6 43.7 C 576.56 43.68 576.6 43.7 576.6 43.7 L 576.6 42.9 Z M 580.4 49 L 579.3 49 L 579.3 47.8 L 580.4 47.8 L 580.4 49 Z " stroke="none" fill="#555555"/>  </g>  <g id="Polygon194131">    <path d="M 1.8 26.8 L 2.4 27.8 L 2 28 L 1.6 27 L 1.1 28 L 0.7 27.8 L 1.3 26.8 L 0.2 27 L 0.2 26.5 L 1.3 26.6 L 0.7 25.7 L 1.1 25.4 L 1.6 26.4 L 2 25.4 L 2.4 25.7 L 1.8 26.6 L 2.9 26.5 L 2.9 27 L 1.8 26.8 Z M 5.3 29.8 C 5.3 29.8 6.54 29.82 6.5 29.8 C 7 29.8 8.1 29.7 8.1 28.3 C 8.1 27 7.1 26.9 6.9 26.9 C 6.85 26.9 5.3 26.9 5.3 26.9 L 5.3 29.8 Z M 4.2 34.6 L 4.2 25.9 C 4.2 25.9 6.79 25.94 6.8 25.9 C 8 25.9 9.2 26.4 9.2 28.4 C 9.2 30.4 7.7 30.8 6.8 30.8 C 6.78 30.78 5.3 30.8 5.3 30.8 L 5.3 34.6 L 4.2 34.6 Z M 11.5 32.8 C 11.5 33.4 11.8 33.9 12.5 33.9 C 13.1 33.9 13.8 33.5 13.7 31.6 C 12.8 31.6 11.5 31.5 11.5 32.8 Z M 13.8 33.7 C 13.8 33.7 13.74 33.72 13.7 33.7 C 13.4 34.4 13 34.7 12.2 34.7 C 10.9 34.7 10.6 33.9 10.6 32.7 C 10.6 30.9 12.4 30.8 13.7 30.8 C 13.8 30 13.8 29.2 12.7 29.2 C 12.1 29.2 11.7 29.6 11.8 30.2 C 11.8 30.2 10.7 30.2 10.7 30.2 C 10.8 28.9 11.5 28.4 12.8 28.4 C 14.3 28.4 14.7 29.2 14.7 30.2 C 14.7 30.2 14.7 33.2 14.7 33.2 C 14.7 33.6 14.8 34.1 14.8 34.6 C 14.84 34.6 13.8 34.6 13.8 34.6 L 13.8 33.7 Z M 16.8 28.5 L 16.8 27.4 L 17.7 26.9 L 17.7 28.5 L 19.1 28.5 L 19.1 29.3 L 17.7 29.3 C 17.7 29.3 17.73 32.99 17.7 33 C 17.7 33.4 17.7 33.9 18.6 33.9 C 18.7 33.9 18.9 33.8 19.1 33.8 C 19.1 33.8 19.1 34.6 19.1 34.6 C 18.8 34.6 18.4 34.7 18.1 34.7 C 17.2 34.7 16.8 34.3 16.8 33.6 C 16.75 33.59 16.8 29.3 16.8 29.3 L 15.8 29.3 L 15.8 28.5 L 16.8 28.5 Z M 20.9 34.6 L 20 34.6 L 20 28.5 L 20.9 28.5 L 20.9 34.6 Z M 19.9 25.9 L 21 25.9 L 21 27 L 19.9 27 L 19.9 25.9 Z M 26 31.1 C 26 29.4 25.5 29.2 24.8 29.2 C 24.1 29.2 23.6 29.5 23.6 31.1 C 23.6 31.1 26 31.1 26 31.1 Z M 23.6 31.9 C 23.6 33.6 24.1 33.9 24.8 33.9 C 25.5 33.9 25.8 33.4 25.9 32.8 C 25.9 32.8 27 32.8 27 32.8 C 26.9 34.1 26.1 34.7 24.8 34.7 C 23.6 34.7 22.5 34.3 22.5 31.7 C 22.5 29.9 22.8 28.4 24.8 28.4 C 26.6 28.4 27 29.4 27 31.4 C 27.01 31.37 27 31.9 27 31.9 C 27 31.9 23.6 31.89 23.6 31.9 Z M 31.9 34.6 C 31.9 34.6 31.93 30.4 31.9 30.4 C 31.9 29.8 31.7 29.2 30.9 29.2 C 29.8 29.2 29.6 30.2 29.6 31 C 29.63 31.01 29.6 34.6 29.6 34.6 L 28.6 34.6 C 28.6 34.6 28.64 29.8 28.6 29.8 C 28.6 29.4 28.6 29 28.6 28.5 C 28.58 28.54 29.6 28.5 29.6 28.5 L 29.6 29.3 C 29.6 29.3 29.67 29.32 29.7 29.3 C 30.1 28.6 30.5 28.4 31.3 28.4 C 32.6 28.4 32.9 29.2 32.9 30.4 C 32.91 30.4 32.9 34.6 32.9 34.6 L 31.9 34.6 Z M 34.8 28.5 L 34.8 27.4 L 35.7 26.9 L 35.7 28.5 L 37.1 28.5 L 37.1 29.3 L 35.7 29.3 C 35.7 29.3 35.73 32.99 35.7 33 C 35.7 33.4 35.7 33.9 36.6 33.9 C 36.7 33.9 36.9 33.8 37.1 33.8 C 37.1 33.8 37.1 34.6 37.1 34.6 C 36.8 34.6 36.4 34.7 36.1 34.7 C 35.2 34.7 34.8 34.3 34.8 33.6 C 34.75 33.59 34.8 29.3 34.8 29.3 L 33.8 29.3 L 33.8 28.5 L 34.8 28.5 Z M 39.8 34.7 C 38.5 34.7 37.6 34.1 37.7 32.8 C 37.7 32.8 38.8 32.8 38.8 32.8 C 38.8 33.1 38.8 33.9 39.8 33.9 C 40.4 33.9 40.8 33.6 40.8 33 C 40.8 31.9 37.8 31.9 37.8 30.1 C 37.8 29.4 38.2 28.4 39.9 28.4 C 41 28.4 41.9 28.9 41.8 30.1 C 41.8 30.1 40.7 30.1 40.7 30.1 C 40.8 29.5 40.4 29.2 39.8 29.2 C 39.3 29.2 38.9 29.5 38.9 30 C 38.9 31 41.9 31 41.9 32.9 C 41.9 34.2 41 34.7 39.8 34.7 Z M 47 29.5 C 47 29.5 47.01 29.45 47 29.5 C 47.4 28.5 47.9 28.4 48.9 28.4 C 48.9 28.4 48.9 29.4 48.9 29.4 C 48.8 29.4 48.7 29.4 48.6 29.4 C 48.5 29.4 48.5 29.4 48.4 29.4 C 47.3 29.4 47 30.2 47 31 C 46.99 31.02 47 34.6 47 34.6 L 46 34.6 L 46 28.5 L 47 28.5 L 47 29.5 Z M 53.3 31.1 C 53.3 29.4 52.8 29.2 52.1 29.2 C 51.5 29.2 50.9 29.5 50.9 31.1 C 50.9 31.1 53.3 31.1 53.3 31.1 Z M 50.9 31.9 C 50.9 33.6 51.4 33.9 52.1 33.9 C 52.8 33.9 53.2 33.4 53.2 32.8 C 53.2 32.8 54.3 32.8 54.3 32.8 C 54.3 34.1 53.4 34.7 52.2 34.7 C 50.9 34.7 49.9 34.3 49.9 31.7 C 49.9 29.9 50.1 28.4 52.2 28.4 C 53.9 28.4 54.3 29.4 54.3 31.4 C 54.33 31.37 54.3 31.9 54.3 31.9 C 54.3 31.9 50.92 31.89 50.9 31.9 Z M 59.1 30.5 C 59.2 29.5 58.7 29.2 58.3 29.2 C 57.5 29.2 57 29.6 57 31.2 C 57 33.2 57.3 33.9 58.3 33.9 C 58.5 33.9 59.2 33.7 59.2 32.6 C 59.2 32.6 60.2 32.6 60.2 32.6 C 60.2 34.3 59 34.7 58.3 34.7 C 57 34.7 56 34.3 56 31.7 C 56 29.9 56.2 28.4 58.3 28.4 C 59.5 28.4 60.2 29.1 60.2 30.5 C 60.2 30.5 59.1 30.5 59.1 30.5 Z M 65.3 31.1 C 65.3 29.4 64.8 29.2 64.1 29.2 C 63.5 29.2 62.9 29.5 62.9 31.1 C 62.9 31.1 65.3 31.1 65.3 31.1 Z M 62.9 31.9 C 62.9 33.6 63.4 33.9 64.1 33.9 C 64.8 33.9 65.2 33.4 65.2 32.8 C 65.2 32.8 66.3 32.8 66.3 32.8 C 66.3 34.1 65.4 34.7 64.2 34.7 C 62.9 34.7 61.9 34.3 61.9 31.7 C 61.9 29.9 62.1 28.4 64.2 28.4 C 65.9 28.4 66.3 29.4 66.3 31.4 C 66.33 31.37 66.3 31.9 66.3 31.9 C 66.3 31.9 62.92 31.89 62.9 31.9 Z M 68.9 34.6 L 67.9 34.6 L 67.9 28.5 L 68.9 28.5 L 68.9 34.6 Z M 67.9 25.9 L 69 25.9 L 69 27 L 67.9 27 L 67.9 25.9 Z M 69.9 28.5 L 71 28.5 L 72.4 33.7 L 72.4 33.7 L 73.9 28.5 L 74.9 28.5 L 73 34.6 L 71.7 34.6 L 69.9 28.5 Z M 79.3 31.1 C 79.3 29.4 78.8 29.2 78.1 29.2 C 77.4 29.2 76.9 29.5 76.9 31.1 C 76.9 31.1 79.3 31.1 79.3 31.1 Z M 76.9 31.9 C 76.9 33.6 77.4 33.9 78.1 33.9 C 78.8 33.9 79.2 33.4 79.2 32.8 C 79.2 32.8 80.3 32.8 80.3 32.8 C 80.3 34.1 79.4 34.7 78.2 34.7 C 76.9 34.7 75.9 34.3 75.9 31.7 C 75.9 29.9 76.1 28.4 78.2 28.4 C 79.9 28.4 80.3 29.4 80.3 31.4 C 80.32 31.37 80.3 31.9 80.3 31.9 C 80.3 31.9 76.92 31.89 76.9 31.9 Z M 84 29.2 C 83 29.2 82.8 30.1 82.8 31.7 C 82.8 32.6 82.8 33.9 84.1 33.9 C 85.2 33.9 85.2 32.5 85.2 31.3 C 85.2 30.5 85.1 29.2 84 29.2 Z M 85.2 25.9 L 86.1 25.9 L 86.1 34.6 L 85.2 34.6 L 85.2 33.9 C 85.2 33.9 85.14 33.88 85.1 33.9 C 84.8 34.4 84.4 34.7 83.7 34.7 C 82.8 34.7 81.8 34.3 81.8 31.7 C 81.8 30.2 81.8 28.4 83.8 28.4 C 84.4 28.4 84.8 28.7 85.1 29.2 C 85.13 29.15 85.2 29.2 85.2 29.2 L 85.2 25.9 Z M 91.5 32.8 C 91.5 33.4 91.8 33.9 92.5 33.9 C 93.1 33.9 93.8 33.5 93.7 31.6 C 92.8 31.6 91.5 31.5 91.5 32.8 Z M 93.7 33.7 C 93.7 33.7 93.72 33.72 93.7 33.7 C 93.4 34.4 92.9 34.7 92.2 34.7 C 90.9 34.7 90.5 33.9 90.5 32.7 C 90.5 30.9 92.3 30.8 93.7 30.8 C 93.7 30 93.8 29.2 92.7 29.2 C 92 29.2 91.7 29.6 91.7 30.2 C 91.7 30.2 90.7 30.2 90.7 30.2 C 90.7 28.9 91.4 28.4 92.7 28.4 C 94.3 28.4 94.7 29.2 94.7 30.2 C 94.7 30.2 94.7 33.2 94.7 33.2 C 94.7 33.6 94.7 34.1 94.8 34.6 C 94.82 34.6 93.7 34.6 93.7 34.6 L 93.7 33.7 Z M 101.5 31.6 L 101.5 27.3 L 101.5 27.3 L 99.7 31.6 L 101.5 31.6 Z M 98.7 32.6 L 98.7 31.6 L 101.1 26.3 L 102.5 26.3 L 102.5 31.6 L 103.5 31.6 L 103.5 32.6 L 102.5 32.6 L 102.5 34.6 L 101.5 34.6 L 101.5 32.6 L 98.7 32.6 Z M 108.7 30.5 C 108.7 32.6 108.7 34.8 106.4 34.8 C 104.2 34.8 104.2 32.6 104.2 30.5 C 104.2 28.2 104.1 26.1 106.4 26.1 C 108.7 26.1 108.7 28.2 108.7 30.5 Z M 105.3 30.7 C 105.3 32.1 105.2 33.9 106.4 33.9 C 107.6 33.9 107.6 32.1 107.6 30.7 C 107.6 28.4 107.5 27.1 106.4 27.1 C 105.3 27.1 105.3 28.4 105.3 30.7 Z M 114 30.5 C 114 32.6 114 34.8 111.7 34.8 C 109.5 34.8 109.5 32.6 109.5 30.5 C 109.5 28.2 109.5 26.1 111.7 26.1 C 114 26.1 114 28.2 114 30.5 Z M 110.6 30.7 C 110.6 32.1 110.5 33.9 111.7 33.9 C 113 33.9 112.9 32.1 112.9 30.7 C 112.9 28.4 112.9 27.1 111.7 27.1 C 110.6 27.1 110.6 28.4 110.6 30.7 Z M 115.1 30.9 L 117.7 30.9 L 117.7 31.8 L 115.1 31.8 L 115.1 30.9 Z M 122.2 34.6 C 122.2 34.6 122.24 30.4 122.2 30.4 C 122.2 29.8 122.1 29.2 121.3 29.2 C 121 29.2 120.6 29.4 120.4 29.6 C 120.2 29.9 120.2 30.3 120.2 30.5 C 120.2 30.52 120.2 34.6 120.2 34.6 L 119.2 34.6 C 119.2 34.6 119.22 29.8 119.2 29.8 C 119.2 29.4 119.2 29 119.2 28.5 C 119.16 28.54 120.2 28.5 120.2 28.5 L 120.2 29.3 C 120.2 29.3 120.22 29.3 120.2 29.3 C 120.5 28.6 121 28.4 121.7 28.4 C 122.3 28.4 122.9 28.6 123.2 29.2 C 123.5 28.6 124 28.4 124.6 28.4 C 125.2 28.4 126.2 28.6 126.2 30 C 126.25 29.99 126.2 34.6 126.2 34.6 L 125.3 34.6 C 125.3 34.6 125.26 30.4 125.3 30.4 C 125.3 29.8 125.1 29.2 124.3 29.2 C 123.9 29.2 123.8 29.2 123.6 29.5 C 123.3 29.7 123.2 30.3 123.2 30.5 C 123.22 30.52 123.2 34.6 123.2 34.6 L 122.2 34.6 Z M 130 29.2 C 128.9 29.2 128.8 30.6 128.8 31.4 C 128.8 33.3 129.3 33.8 130 33.8 C 131.2 33.8 131.2 32.4 131.2 31.5 C 131.2 30.6 131.2 29.2 130 29.2 Z M 131.1 28.5 L 132.1 28.5 C 132.1 28.5 132.12 35.21 132.1 35.2 C 132.1 36.6 131.2 36.9 129.9 36.9 C 128.9 36.9 128 36.4 128 35.3 C 128 35.3 129.2 35.3 129.2 35.3 C 129.2 35.8 129.5 36.1 130.1 36.1 C 130.8 36.1 131.1 35.7 131.1 35.1 C 131.13 35.1 131.1 33.8 131.1 33.8 C 131.1 33.8 131.1 33.84 131.1 33.8 C 130.8 34.3 130.3 34.6 129.8 34.6 C 128.1 34.6 127.8 33.2 127.8 31.4 C 127.8 28.6 129.2 28.4 129.7 28.4 C 130.3 28.4 130.8 28.7 131.1 29.3 C 131.11 29.28 131.1 29.3 131.1 29.3 L 131.1 28.5 Z M 137.6 34.6 L 136.6 34.6 L 136.6 25.9 L 137.6 25.9 L 137.6 34.6 Z M 142.7 31.2 C 142.7 29.6 142.1 29.2 141.4 29.2 C 140.6 29.2 140.1 29.6 140.1 31.2 C 140.1 33.2 140.4 33.9 141.4 33.9 C 142.4 33.9 142.7 33.2 142.7 31.2 Z M 139.1 31.7 C 139.1 29.9 139.3 28.4 141.4 28.4 C 143.5 28.4 143.7 29.9 143.7 31.7 C 143.7 34.3 142.7 34.7 141.4 34.7 C 140.1 34.7 139.1 34.3 139.1 31.7 Z M 146.2 32.8 C 146.2 33.4 146.4 33.9 147.1 33.9 C 147.7 33.9 148.4 33.5 148.4 31.6 C 147.4 31.6 146.2 31.5 146.2 32.8 Z M 148.4 33.7 C 148.4 33.7 148.35 33.72 148.4 33.7 C 148.1 34.4 147.6 34.7 146.8 34.7 C 145.5 34.7 145.2 33.9 145.2 32.7 C 145.2 30.9 147 30.8 148.4 30.8 C 148.4 30 148.4 29.2 147.3 29.2 C 146.7 29.2 146.3 29.6 146.4 30.2 C 146.4 30.2 145.3 30.2 145.3 30.2 C 145.4 28.9 146.1 28.4 147.4 28.4 C 148.9 28.4 149.3 29.2 149.3 30.2 C 149.3 30.2 149.3 33.2 149.3 33.2 C 149.3 33.6 149.4 34.1 149.5 34.6 C 149.45 34.6 148.4 34.6 148.4 34.6 L 148.4 33.7 Z M 153.3 29.2 C 152.3 29.2 152.1 30.1 152.1 31.7 C 152.1 32.6 152.1 33.9 153.4 33.9 C 154.5 33.9 154.5 32.5 154.5 31.3 C 154.5 30.5 154.4 29.2 153.3 29.2 Z M 154.5 25.9 L 155.4 25.9 L 155.4 34.6 L 154.5 34.6 L 154.5 33.9 C 154.5 33.9 154.44 33.88 154.4 33.9 C 154.1 34.4 153.7 34.7 153 34.7 C 152.1 34.7 151.1 34.3 151.1 31.7 C 151.1 30.2 151.1 28.4 153.1 28.4 C 153.7 28.4 154.1 28.7 154.4 29.2 C 154.42 29.15 154.5 29.2 154.5 29.2 L 154.5 25.9 Z M 158.2 34.6 L 157.2 34.6 L 157.2 28.5 L 158.2 28.5 L 158.2 34.6 Z M 157.2 25.9 L 158.3 25.9 L 158.3 27 L 157.2 27 L 157.2 25.9 Z M 163.2 34.6 C 163.2 34.6 163.21 30.4 163.2 30.4 C 163.2 29.8 163 29.2 162.1 29.2 C 161.1 29.2 160.9 30.2 160.9 31 C 160.9 31.01 160.9 34.6 160.9 34.6 L 159.9 34.6 C 159.9 34.6 159.92 29.8 159.9 29.8 C 159.9 29.4 159.9 29 159.9 28.5 C 159.86 28.54 160.9 28.5 160.9 28.5 L 160.9 29.3 C 160.9 29.3 160.95 29.32 161 29.3 C 161.3 28.6 161.8 28.4 162.6 28.4 C 163.9 28.4 164.2 29.2 164.2 30.4 C 164.19 30.4 164.2 34.6 164.2 34.6 L 163.2 34.6 Z M 168 29.2 C 166.9 29.2 166.8 30.6 166.8 31.4 C 166.8 33.3 167.3 33.8 168 33.8 C 169.2 33.8 169.1 32.4 169.1 31.5 C 169.1 30.6 169.2 29.2 168 29.2 Z M 169.1 28.5 L 170.1 28.5 C 170.1 28.5 170.11 35.21 170.1 35.2 C 170.1 36.6 169.2 36.9 167.9 36.9 C 166.9 36.9 166 36.4 166 35.3 C 166 35.3 167.1 35.3 167.1 35.3 C 167.2 35.8 167.5 36.1 168.1 36.1 C 168.8 36.1 169.1 35.7 169.1 35.1 C 169.12 35.1 169.1 33.8 169.1 33.8 C 169.1 33.8 169.09 33.84 169.1 33.8 C 168.8 34.3 168.3 34.6 167.8 34.6 C 166.1 34.6 165.8 33.2 165.8 31.4 C 165.8 28.6 167.2 28.4 167.7 28.4 C 168.3 28.4 168.8 28.7 169.1 29.3 C 169.1 29.28 169.1 29.3 169.1 29.3 L 169.1 28.5 Z M 176.6 29.2 C 175.6 29.2 175.4 30.1 175.4 31.7 C 175.4 32.6 175.4 33.9 176.7 33.9 C 177.8 33.9 177.8 32.5 177.8 31.3 C 177.8 30.5 177.7 29.2 176.6 29.2 Z M 177.8 25.9 L 178.8 25.9 L 178.8 34.6 L 177.8 34.6 L 177.8 33.9 C 177.8 33.9 177.76 33.88 177.8 33.9 C 177.4 34.4 177 34.7 176.4 34.7 C 175.4 34.7 174.4 34.3 174.4 31.7 C 174.4 30.2 174.5 28.4 176.4 28.4 C 177 28.4 177.4 28.7 177.8 29.2 C 177.75 29.15 177.8 29.2 177.8 29.2 L 177.8 25.9 Z M 184 31.2 C 184 29.6 183.5 29.2 182.7 29.2 C 182 29.2 181.4 29.6 181.4 31.2 C 181.4 33.2 181.7 33.9 182.7 33.9 C 183.7 33.9 184 33.2 184 31.2 Z M 180.4 31.7 C 180.4 29.9 180.6 28.4 182.7 28.4 C 184.8 28.4 185 29.9 185 31.7 C 185 34.3 184 34.7 182.7 34.7 C 181.4 34.7 180.4 34.3 180.4 31.7 Z M 188.4 34.7 C 187.1 34.7 186.2 34.1 186.3 32.8 C 186.3 32.8 187.4 32.8 187.4 32.8 C 187.4 33.1 187.4 33.9 188.4 33.9 C 189 33.9 189.5 33.6 189.5 33 C 189.5 31.9 186.4 31.9 186.4 30.1 C 186.4 29.4 186.8 28.4 188.5 28.4 C 189.6 28.4 190.5 28.9 190.4 30.1 C 190.4 30.1 189.3 30.1 189.3 30.1 C 189.4 29.5 189 29.2 188.4 29.2 C 187.9 29.2 187.5 29.5 187.5 30 C 187.5 31 190.5 31 190.5 32.9 C 190.5 34.2 189.6 34.7 188.4 34.7 Z M 195.2 31.1 C 195.2 29.4 194.7 29.2 194 29.2 C 193.4 29.2 192.9 29.5 192.9 31.1 C 192.9 31.1 195.2 31.1 195.2 31.1 Z M 192.9 31.9 C 192.9 33.6 193.3 33.9 194.1 33.9 C 194.8 33.9 195.1 33.4 195.2 32.8 C 195.2 32.8 196.2 32.8 196.2 32.8 C 196.2 34.1 195.4 34.7 194.1 34.7 C 192.8 34.7 191.8 34.3 191.8 31.7 C 191.8 29.9 192 28.4 194.1 28.4 C 195.8 28.4 196.3 29.4 196.3 31.4 C 196.28 31.37 196.3 31.9 196.3 31.9 C 196.3 31.9 192.87 31.89 192.9 31.9 Z M 204 31.2 C 204 29.6 203.5 29.2 202.7 29.2 C 202 29.2 201.4 29.6 201.4 31.2 C 201.4 33.2 201.7 33.9 202.7 33.9 C 203.7 33.9 204 33.2 204 31.2 Z M 200.4 31.7 C 200.4 29.9 200.6 28.4 202.7 28.4 C 204.8 28.4 205 29.9 205 31.7 C 205 34.3 204 34.7 202.7 34.7 C 201.4 34.7 200.4 34.3 200.4 31.7 Z M 206.8 28.5 C 206.8 28.5 206.76 27.36 206.8 27.4 C 206.8 26.1 207.6 25.9 208.5 25.9 C 208.7 25.9 208.8 25.9 209 25.9 C 209 25.9 209 26.6 209 26.6 C 207.9 26.6 207.7 27 207.7 27.5 C 207.74 27.51 207.7 28.5 207.7 28.5 L 209 28.5 L 209 29.3 L 207.7 29.3 L 207.7 34.6 L 206.8 34.6 L 206.8 29.3 L 205.8 29.3 L 205.8 28.5 L 206.8 28.5 Z M 214.4 34.7 C 213.1 34.7 212.2 34.1 212.3 32.8 C 212.3 32.8 213.4 32.8 213.4 32.8 C 213.4 33.1 213.4 33.9 214.4 33.9 C 215 33.9 215.4 33.6 215.4 33 C 215.4 31.9 212.4 31.9 212.4 30.1 C 212.4 29.4 212.8 28.4 214.5 28.4 C 215.6 28.4 216.5 28.9 216.4 30.1 C 216.4 30.1 215.3 30.1 215.3 30.1 C 215.3 29.5 215 29.2 214.4 29.2 C 213.9 29.2 213.4 29.5 213.4 30 C 213.4 31 216.5 31 216.5 32.9 C 216.5 34.2 215.6 34.7 214.4 34.7 Z M 221.1 28.5 L 222.1 28.5 C 222.1 28.5 222.13 33.34 222.1 33.3 C 222.1 33.8 222.1 34.2 222.2 34.6 C 222.19 34.6 221.1 34.6 221.1 34.6 L 221.1 33.9 C 221.1 33.9 221.11 33.87 221.1 33.9 C 220.8 34.4 220.2 34.7 219.6 34.7 C 218.5 34.7 217.9 34.2 217.9 33.2 C 217.94 33.16 217.9 28.5 217.9 28.5 L 218.9 28.5 C 218.9 28.5 218.92 32.74 218.9 32.7 C 218.9 33.5 219.3 34 220 34 C 220.5 34 221.1 33.6 221.1 32.6 C 221.14 32.56 221.1 28.5 221.1 28.5 Z M 226.1 33.9 C 227.3 33.9 227.3 32.6 227.3 31.7 C 227.3 30.1 227.2 29.2 226.1 29.2 C 225 29.2 225 30.5 225 31.3 C 225 32.2 224.9 33.9 226.1 33.9 Z M 225 34.6 L 224 34.6 L 224 25.9 L 225 25.9 L 225 29.2 C 225 29.2 225.01 29.15 225 29.2 C 225.3 28.7 225.8 28.4 226.3 28.4 C 228.3 28.4 228.3 30.2 228.3 31.7 C 228.3 34.3 227.4 34.7 226.4 34.7 C 225.8 34.7 225.3 34.4 225 33.9 C 224.99 33.88 225 33.9 225 33.9 L 225 34.6 Z M 233.1 30.5 C 233.1 29.5 232.6 29.2 232.2 29.2 C 231.5 29.2 231 29.6 231 31.2 C 231 33.2 231.2 33.9 232.2 33.9 C 232.5 33.9 233.1 33.7 233.1 32.6 C 233.1 32.6 234.1 32.6 234.1 32.6 C 234.2 34.3 232.9 34.7 232.2 34.7 C 230.9 34.7 229.9 34.3 229.9 31.7 C 229.9 29.9 230.1 28.4 232.2 28.4 C 233.4 28.4 234.1 29.1 234.1 30.5 C 234.1 30.5 233.1 30.5 233.1 30.5 Z M 239.1 28.5 L 240.1 28.5 C 240.1 28.5 240.13 33.34 240.1 33.3 C 240.1 33.8 240.1 34.2 240.2 34.6 C 240.19 34.6 239.1 34.6 239.1 34.6 L 239.1 33.9 C 239.1 33.9 239.11 33.87 239.1 33.9 C 238.8 34.4 238.2 34.7 237.6 34.7 C 236.5 34.7 235.9 34.2 235.9 33.2 C 235.94 33.16 235.9 28.5 235.9 28.5 L 236.9 28.5 C 236.9 28.5 236.92 32.74 236.9 32.7 C 236.9 33.5 237.3 34 238 34 C 238.5 34 239.1 33.6 239.1 32.6 C 239.14 32.56 239.1 28.5 239.1 28.5 Z M 242 28.5 L 242 27.4 L 243 26.9 L 243 28.5 L 244.3 28.5 L 244.3 29.3 L 243 29.3 C 243 29.3 242.99 32.99 243 33 C 243 33.4 243 33.9 243.9 33.9 C 244 33.9 244.1 33.8 244.3 33.8 C 244.3 33.8 244.3 34.6 244.3 34.6 C 244 34.6 243.7 34.7 243.4 34.7 C 242.4 34.7 242 34.3 242 33.6 C 242.01 33.59 242 29.3 242 29.3 L 241 29.3 L 241 28.5 L 242 28.5 Z M 246.1 32.8 C 246.1 33.4 246.4 33.9 247.1 33.9 C 247.7 33.9 248.4 33.5 248.3 31.6 C 247.4 31.6 246.1 31.5 246.1 32.8 Z M 248.4 33.7 C 248.4 33.7 248.34 33.72 248.3 33.7 C 248 34.4 247.6 34.7 246.8 34.7 C 245.5 34.7 245.2 33.9 245.2 32.7 C 245.2 30.9 247 30.8 248.3 30.8 C 248.4 30 248.4 29.2 247.3 29.2 C 246.7 29.2 246.3 29.6 246.4 30.2 C 246.4 30.2 245.3 30.2 245.3 30.2 C 245.3 28.9 246.1 28.4 247.4 28.4 C 248.9 28.4 249.3 29.2 249.3 30.2 C 249.3 30.2 249.3 33.2 249.3 33.2 C 249.3 33.6 249.4 34.1 249.4 34.6 C 249.44 34.6 248.4 34.6 248.4 34.6 L 248.4 33.7 Z M 254.5 34.6 C 254.5 34.6 254.53 30.4 254.5 30.4 C 254.5 29.8 254.3 29.2 253.5 29.2 C 252.4 29.2 252.2 30.2 252.2 31 C 252.22 31.01 252.2 34.6 252.2 34.6 L 251.2 34.6 C 251.2 34.6 251.24 29.8 251.2 29.8 C 251.2 29.4 251.2 29 251.2 28.5 C 251.18 28.54 252.2 28.5 252.2 28.5 L 252.2 29.3 C 252.2 29.3 252.27 29.32 252.3 29.3 C 252.7 28.6 253.1 28.4 253.9 28.4 C 255.2 28.4 255.5 29.2 255.5 30.4 C 255.51 30.4 255.5 34.6 255.5 34.6 L 254.5 34.6 Z M 260.6 31.1 C 260.6 29.4 260.1 29.2 259.4 29.2 C 258.7 29.2 258.2 29.5 258.2 31.1 C 258.2 31.1 260.6 31.1 260.6 31.1 Z M 258.2 31.9 C 258.2 33.6 258.7 33.9 259.4 33.9 C 260.1 33.9 260.4 33.4 260.5 32.8 C 260.5 32.8 261.6 32.8 261.6 32.8 C 261.5 34.1 260.7 34.7 259.4 34.7 C 258.2 34.7 257.1 34.3 257.1 31.7 C 257.1 29.9 257.3 28.4 259.4 28.4 C 261.2 28.4 261.6 29.4 261.6 31.4 C 261.61 31.37 261.6 31.9 261.6 31.9 C 261.6 31.9 258.2 31.89 258.2 31.9 Z M 266.6 31.2 C 266.6 29.6 266.1 29.2 265.4 29.2 C 264.6 29.2 264.1 29.6 264.1 31.2 C 264.1 33.2 264.4 33.9 265.4 33.9 C 266.4 33.9 266.6 33.2 266.6 31.2 Z M 263.1 31.7 C 263.1 29.9 263.3 28.4 265.4 28.4 C 267.5 28.4 267.7 29.9 267.7 31.7 C 267.7 34.3 266.7 34.7 265.4 34.7 C 264.1 34.7 263.1 34.3 263.1 31.7 Z M 272.5 28.5 L 273.5 28.5 C 273.5 28.5 273.46 33.34 273.5 33.3 C 273.5 33.8 273.5 34.2 273.5 34.6 C 273.52 34.6 272.5 34.6 272.5 34.6 L 272.5 33.9 C 272.5 33.9 272.44 33.87 272.4 33.9 C 272.1 34.4 271.5 34.7 270.9 34.7 C 269.9 34.7 269.3 34.2 269.3 33.2 C 269.28 33.16 269.3 28.5 269.3 28.5 L 270.3 28.5 C 270.3 28.5 270.26 32.74 270.3 32.7 C 270.3 33.5 270.6 34 271.3 34 C 271.8 34 272.5 33.6 272.5 32.6 C 272.48 32.56 272.5 28.5 272.5 28.5 Z M 277 34.7 C 275.7 34.7 274.9 34.1 274.9 32.8 C 274.9 32.8 276.1 32.8 276.1 32.8 C 276.1 33.1 276.1 33.9 277.1 33.9 C 277.7 33.9 278.1 33.6 278.1 33 C 278.1 31.9 275.1 31.9 275.1 30.1 C 275.1 29.4 275.5 28.4 277.2 28.4 C 278.3 28.4 279.2 28.9 279.1 30.1 C 279.1 30.1 278 30.1 278 30.1 C 278 29.5 277.7 29.2 277.1 29.2 C 276.5 29.2 276.1 29.5 276.1 30 C 276.1 31 279.1 31 279.1 32.9 C 279.1 34.2 278.2 34.7 277 34.7 Z M 285.3 29.2 C 284.2 29.2 284.1 30.6 284.1 31.4 C 284.1 33.3 284.6 33.8 285.3 33.8 C 286.5 33.8 286.5 32.4 286.5 31.5 C 286.5 30.6 286.5 29.2 285.3 29.2 Z M 286.4 28.5 L 287.4 28.5 C 287.4 28.5 287.42 35.21 287.4 35.2 C 287.4 36.6 286.5 36.9 285.2 36.9 C 284.2 36.9 283.3 36.4 283.4 35.3 C 283.4 35.3 284.5 35.3 284.5 35.3 C 284.5 35.8 284.8 36.1 285.4 36.1 C 286.1 36.1 286.4 35.7 286.4 35.1 C 286.43 35.1 286.4 33.8 286.4 33.8 C 286.4 33.8 286.4 33.84 286.4 33.8 C 286.1 34.3 285.6 34.6 285.1 34.6 C 283.4 34.6 283.1 33.2 283.1 31.4 C 283.1 28.6 284.5 28.4 285 28.4 C 285.6 28.4 286.1 28.7 286.4 29.3 C 286.41 29.28 286.4 29.3 286.4 29.3 L 286.4 28.5 Z M 290.1 32.8 C 290.1 33.4 290.4 33.9 291.1 33.9 C 291.7 33.9 292.4 33.5 292.3 31.6 C 291.4 31.6 290.1 31.5 290.1 32.8 Z M 292.4 33.7 C 292.4 33.7 292.33 33.72 292.3 33.7 C 292 34.4 291.6 34.7 290.8 34.7 C 289.5 34.7 289.1 33.9 289.1 32.7 C 289.1 30.9 290.9 30.8 292.3 30.8 C 292.4 30 292.4 29.2 291.3 29.2 C 290.6 29.2 290.3 29.6 290.4 30.2 C 290.4 30.2 289.3 30.2 289.3 30.2 C 289.3 28.9 290.1 28.4 291.3 28.4 C 292.9 28.4 293.3 29.2 293.3 30.2 C 293.3 30.2 293.3 33.2 293.3 33.2 C 293.3 33.6 293.4 34.1 293.4 34.6 C 293.43 34.6 292.4 34.6 292.4 34.6 L 292.4 33.7 Z M 296.2 29.5 C 296.2 29.5 296.27 29.45 296.3 29.5 C 296.7 28.5 297.2 28.4 298.1 28.4 C 298.1 28.4 298.1 29.4 298.1 29.4 C 298.1 29.4 298 29.4 297.9 29.4 C 297.8 29.4 297.7 29.4 297.6 29.4 C 296.5 29.4 296.2 30.2 296.2 31 C 296.25 31.02 296.2 34.6 296.2 34.6 L 295.3 34.6 L 295.3 28.5 L 296.2 28.5 L 296.2 29.5 Z M 300.1 32.8 C 300.1 33.4 300.4 33.9 301.1 33.9 C 301.7 33.9 302.4 33.5 302.3 31.6 C 301.4 31.6 300.1 31.5 300.1 32.8 Z M 302.3 33.7 C 302.3 33.7 302.32 33.72 302.3 33.7 C 302 34.4 301.6 34.7 300.8 34.7 C 299.5 34.7 299.1 33.9 299.1 32.7 C 299.1 30.9 300.9 30.8 302.3 30.8 C 302.3 30 302.4 29.2 301.3 29.2 C 300.6 29.2 300.3 29.6 300.4 30.2 C 300.4 30.2 299.3 30.2 299.3 30.2 C 299.3 28.9 300.1 28.4 301.3 28.4 C 302.9 28.4 303.3 29.2 303.3 30.2 C 303.3 30.2 303.3 33.2 303.3 33.2 C 303.3 33.6 303.4 34.1 303.4 34.6 C 303.43 34.6 302.3 34.6 302.3 34.6 L 302.3 33.7 Z M 307.3 29.2 C 306.2 29.2 306.1 30.1 306.1 31.7 C 306.1 32.6 306.1 33.9 307.3 33.9 C 308.4 33.9 308.4 32.5 308.4 31.3 C 308.4 30.5 308.4 29.2 307.3 29.2 Z M 308.4 25.9 L 309.4 25.9 L 309.4 34.6 L 308.4 34.6 L 308.4 33.9 C 308.4 33.9 308.41 33.88 308.4 33.9 C 308.1 34.4 307.7 34.7 307 34.7 C 306 34.7 305.1 34.3 305.1 31.7 C 305.1 30.2 305.1 28.4 307.1 28.4 C 307.6 28.4 308.1 28.7 308.4 29.2 C 308.39 29.15 308.4 29.2 308.4 29.2 L 308.4 25.9 Z M 312.1 32.8 C 312.1 33.4 312.4 33.9 313.1 33.9 C 313.7 33.9 314.4 33.5 314.3 31.6 C 313.4 31.6 312.1 31.5 312.1 32.8 Z M 314.3 33.7 C 314.3 33.7 314.32 33.72 314.3 33.7 C 314 34.4 313.6 34.7 312.8 34.7 C 311.5 34.7 311.1 33.9 311.1 32.7 C 311.1 30.9 312.9 30.8 314.3 30.8 C 314.3 30 314.4 29.2 313.3 29.2 C 312.6 29.2 312.3 29.6 312.4 30.2 C 312.4 30.2 311.3 30.2 311.3 30.2 C 311.3 28.9 312.1 28.4 313.3 28.4 C 314.9 28.4 315.3 29.2 315.3 30.2 C 315.3 30.2 315.3 33.2 315.3 33.2 C 315.3 33.6 315.4 34.1 315.4 34.6 C 315.43 34.6 314.3 34.6 314.3 34.6 L 314.3 33.7 Z M 320.4 30.5 C 320.4 29.5 319.9 29.2 319.6 29.2 C 318.8 29.2 318.3 29.6 318.3 31.2 C 318.3 33.2 318.5 33.9 319.6 33.9 C 319.8 33.9 320.5 33.7 320.4 32.6 C 320.4 32.6 321.5 32.6 321.5 32.6 C 321.5 34.3 320.2 34.7 319.6 34.7 C 318.3 34.7 317.3 34.3 317.3 31.7 C 317.3 29.9 317.5 28.4 319.6 28.4 C 320.8 28.4 321.5 29.1 321.4 30.5 C 321.4 30.5 320.4 30.5 320.4 30.5 Z M 324.2 34.6 L 323.2 34.6 L 323.2 28.5 L 324.2 28.5 L 324.2 34.6 Z M 323.1 25.9 L 324.2 25.9 L 324.2 27 L 323.1 27 L 323.1 25.9 Z M 328.9 34.6 C 328.9 34.6 328.87 30.4 328.9 30.4 C 328.9 29.8 328.7 29.2 327.9 29.2 C 327.6 29.2 327.2 29.4 327.1 29.6 C 326.9 29.9 326.8 30.3 326.8 30.5 C 326.83 30.52 326.8 34.6 326.8 34.6 L 325.8 34.6 C 325.8 34.6 325.84 29.8 325.8 29.8 C 325.8 29.4 325.8 29 325.8 28.5 C 325.78 28.54 326.8 28.5 326.8 28.5 L 326.8 29.3 C 326.8 29.3 326.85 29.3 326.8 29.3 C 327.1 28.6 327.7 28.4 328.4 28.4 C 328.9 28.4 329.5 28.6 329.8 29.2 C 330.1 28.6 330.7 28.4 331.2 28.4 C 331.9 28.4 332.9 28.6 332.9 30 C 332.87 29.99 332.9 34.6 332.9 34.6 L 331.9 34.6 C 331.9 34.6 331.89 30.4 331.9 30.4 C 331.9 29.8 331.7 29.2 330.9 29.2 C 330.6 29.2 330.4 29.2 330.2 29.5 C 329.9 29.7 329.8 30.3 329.8 30.5 C 329.85 30.52 329.8 34.6 329.8 34.6 L 328.9 34.6 Z M 335.5 32.8 C 335.5 33.4 335.7 33.9 336.4 33.9 C 337 33.9 337.7 33.5 337.7 31.6 C 336.7 31.6 335.5 31.5 335.5 32.8 Z M 337.7 33.7 C 337.7 33.7 337.65 33.72 337.7 33.7 C 337.4 34.4 336.9 34.7 336.1 34.7 C 334.8 34.7 334.5 33.9 334.5 32.7 C 334.5 30.9 336.3 30.8 337.7 30.8 C 337.7 30 337.7 29.2 336.6 29.2 C 336 29.2 335.6 29.6 335.7 30.2 C 335.7 30.2 334.6 30.2 334.6 30.2 C 334.7 28.9 335.4 28.4 336.7 28.4 C 338.2 28.4 338.6 29.2 338.6 30.2 C 338.6 30.2 338.6 33.2 338.6 33.2 C 338.6 33.6 338.7 34.1 338.8 34.6 C 338.75 34.6 337.7 34.6 337.7 34.6 L 337.7 33.7 Z M 342.7 33.9 C 344 33.9 344 32.6 344 31.7 C 344 30.1 343.8 29.2 342.8 29.2 C 341.7 29.2 341.6 30.5 341.6 31.3 C 341.6 32.2 341.5 33.9 342.7 33.9 Z M 341.6 34.6 L 340.6 34.6 L 340.6 25.9 L 341.6 25.9 L 341.6 29.2 C 341.6 29.2 341.66 29.15 341.7 29.2 C 342 28.7 342.4 28.4 343 28.4 C 344.9 28.4 345 30.2 345 31.7 C 345 34.3 344 34.7 343 34.7 C 342.4 34.7 342 34.4 341.6 33.9 C 341.64 33.88 341.6 33.9 341.6 33.9 L 341.6 34.6 Z M 350.1 32.8 C 350.1 33.4 350.4 33.9 351.1 33.9 C 351.7 33.9 352.4 33.5 352.3 31.6 C 351.4 31.6 350.1 31.5 350.1 32.8 Z M 352.3 33.7 C 352.3 33.7 352.31 33.72 352.3 33.7 C 352 34.4 351.5 34.7 350.8 34.7 C 349.5 34.7 349.1 33.9 349.1 32.7 C 349.1 30.9 350.9 30.8 352.3 30.8 C 352.3 30 352.4 29.2 351.3 29.2 C 350.6 29.2 350.3 29.6 350.3 30.2 C 350.3 30.2 349.3 30.2 349.3 30.2 C 349.3 28.9 350 28.4 351.3 28.4 C 352.9 28.4 353.3 29.2 353.3 30.2 C 353.3 30.2 353.3 33.2 353.3 33.2 C 353.3 33.6 353.3 34.1 353.4 34.6 C 353.42 34.6 352.3 34.6 352.3 34.6 L 352.3 33.7 Z M 357 34.7 C 355.7 34.7 354.9 34.1 354.9 32.8 C 354.9 32.8 356 32.8 356 32.8 C 356 33.1 356 33.9 357 33.9 C 357.6 33.9 358.1 33.6 358.1 33 C 358.1 31.9 355.1 31.9 355.1 30.1 C 355.1 29.4 355.4 28.4 357.1 28.4 C 358.2 28.4 359.2 28.9 359.1 30.1 C 359.1 30.1 358 30.1 358 30.1 C 358 29.5 357.7 29.2 357 29.2 C 356.5 29.2 356.1 29.5 356.1 30 C 356.1 31 359.1 31 359.1 32.9 C 359.1 34.2 358.2 34.7 357 34.7 Z M 363.3 28.5 L 363.3 27.4 L 364.3 26.9 L 364.3 28.5 L 365.6 28.5 L 365.6 29.3 L 364.3 29.3 C 364.3 29.3 364.3 32.99 364.3 33 C 364.3 33.4 364.3 33.9 365.2 33.9 C 365.3 33.9 365.4 33.8 365.6 33.8 C 365.6 33.8 365.6 34.6 365.6 34.6 C 365.3 34.6 365 34.7 364.7 34.7 C 363.7 34.7 363.3 34.3 363.3 33.6 C 363.32 33.59 363.3 29.3 363.3 29.3 L 362.3 29.3 L 362.3 28.5 L 363.3 28.5 Z M 365.8 28.5 L 366.9 28.5 L 368 33.8 L 368 33.8 L 369.3 28.5 L 370.7 28.5 L 372 33.8 L 372 33.8 L 373.2 28.5 L 374.2 28.5 L 372.6 34.6 L 371.3 34.6 L 370 29.4 L 370 29.4 L 368.6 34.6 L 367.3 34.6 L 365.8 28.5 Z M 378.6 31.2 C 378.6 29.6 378.1 29.2 377.3 29.2 C 376.6 29.2 376.1 29.6 376.1 31.2 C 376.1 33.2 376.3 33.9 377.3 33.9 C 378.4 33.9 378.6 33.2 378.6 31.2 Z M 375 31.7 C 375 29.9 375.2 28.4 377.3 28.4 C 379.4 28.4 379.6 29.9 379.6 31.7 C 379.6 34.3 378.6 34.7 377.3 34.7 C 376.1 34.7 375 34.3 375 31.7 Z M 383.5 34.6 C 383.5 34.6 383.53 33.64 383.5 33.6 C 386 30.2 386.7 29.6 386.7 28.2 C 386.7 27.5 386.4 27.1 385.6 27.1 C 384.8 27.1 384.7 27.7 384.7 28.4 C 384.7 28.4 383.5 28.4 383.5 28.4 C 383.5 27 384.1 26.1 385.6 26.1 C 387.1 26.1 387.8 26.8 387.8 28.3 C 387.8 30.2 386.8 30.8 384.7 33.6 C 384.7 33.64 388 33.6 388 33.6 L 388 34.6 L 383.5 34.6 Z M 393.2 30.5 C 393.2 32.6 393.3 34.8 391 34.8 C 388.7 34.8 388.8 32.6 388.8 30.5 C 388.8 28.2 388.7 26.1 391 26.1 C 393.3 26.1 393.2 28.2 393.2 30.5 Z M 389.9 30.7 C 389.9 32.1 389.8 33.9 391 33.9 C 392.2 33.9 392.1 32.1 392.1 30.7 C 392.1 28.4 392.1 27.1 391 27.1 C 389.9 27.1 389.9 28.4 389.9 30.7 Z M 398.6 30.5 C 398.6 32.6 398.6 34.8 396.3 34.8 C 394.1 34.8 394.1 32.6 394.1 30.5 C 394.1 28.2 394 26.1 396.3 26.1 C 398.6 26.1 398.6 28.2 398.6 30.5 Z M 395.2 30.7 C 395.2 32.1 395.1 33.9 396.3 33.9 C 397.6 33.9 397.5 32.1 397.5 30.7 C 397.5 28.4 397.5 27.1 396.3 27.1 C 395.2 27.1 395.2 28.4 395.2 30.7 Z M 399.7 30.9 L 402.3 30.9 L 402.3 31.8 L 399.7 31.8 L 399.7 30.9 Z M 406.8 34.6 C 406.8 34.6 406.83 30.4 406.8 30.4 C 406.8 29.8 406.7 29.2 405.9 29.2 C 405.6 29.2 405.2 29.4 405 29.6 C 404.8 29.9 404.8 30.3 404.8 30.5 C 404.79 30.52 404.8 34.6 404.8 34.6 L 403.8 34.6 C 403.8 34.6 403.8 29.8 403.8 29.8 C 403.8 29.4 403.8 29 403.7 28.5 C 403.74 28.54 404.8 28.5 404.8 28.5 L 404.8 29.3 C 404.8 29.3 404.81 29.3 404.8 29.3 C 405.1 28.6 405.6 28.4 406.3 28.4 C 406.9 28.4 407.5 28.6 407.7 29.2 C 408.1 28.6 408.6 28.4 409.2 28.4 C 409.8 28.4 410.8 28.6 410.8 30 C 410.84 29.99 410.8 34.6 410.8 34.6 L 409.9 34.6 C 409.9 34.6 409.85 30.4 409.9 30.4 C 409.9 29.8 409.7 29.2 408.9 29.2 C 408.5 29.2 408.4 29.2 408.1 29.5 C 407.9 29.7 407.8 30.3 407.8 30.5 C 407.81 30.52 407.8 34.6 407.8 34.6 L 406.8 34.6 Z M 414.6 29.2 C 413.5 29.2 413.4 30.6 413.4 31.4 C 413.4 33.3 413.9 33.8 414.6 33.8 C 415.8 33.8 415.7 32.4 415.7 31.5 C 415.7 30.6 415.8 29.2 414.6 29.2 Z M 415.7 28.5 L 416.7 28.5 C 416.7 28.5 416.7 35.21 416.7 35.2 C 416.7 36.6 415.8 36.9 414.5 36.9 C 413.5 36.9 412.6 36.4 412.6 35.3 C 412.6 35.3 413.7 35.3 413.7 35.3 C 413.8 35.8 414.1 36.1 414.7 36.1 C 415.3 36.1 415.7 35.7 415.7 35.1 C 415.72 35.1 415.7 33.8 415.7 33.8 C 415.7 33.8 415.68 33.84 415.7 33.8 C 415.4 34.3 414.9 34.6 414.4 34.6 C 412.7 34.6 412.4 33.2 412.4 31.4 C 412.4 28.6 413.8 28.4 414.3 28.4 C 414.9 28.4 415.4 28.7 415.7 29.3 C 415.7 29.28 415.7 29.3 415.7 29.3 L 415.7 28.5 Z M 422.1 34.6 L 421.2 34.6 L 421.2 28.5 L 422.1 28.5 L 422.1 34.6 Z M 421.1 25.9 L 422.2 25.9 L 422.2 27 L 421.1 27 L 421.1 25.9 Z M 427.1 34.6 C 427.1 34.6 427.13 30.4 427.1 30.4 C 427.1 29.8 426.9 29.2 426.1 29.2 C 425 29.2 424.8 30.2 424.8 31 C 424.83 31.01 424.8 34.6 424.8 34.6 L 423.8 34.6 C 423.8 34.6 423.84 29.8 423.8 29.8 C 423.8 29.4 423.8 29 423.8 28.5 C 423.78 28.54 424.8 28.5 424.8 28.5 L 424.8 29.3 C 424.8 29.3 424.87 29.32 424.9 29.3 C 425.3 28.6 425.7 28.4 426.5 28.4 C 427.8 28.4 428.1 29.2 428.1 30.4 C 428.11 30.4 428.1 34.6 428.1 34.6 L 427.1 34.6 Z M 429.8 28.5 L 430.8 28.5 C 430.8 28.5 430.8 35.44 430.8 35.4 C 430.8 36.4 430.5 36.9 429.1 36.9 C 429.1 36.9 429.1 36.1 429.1 36.1 C 429.5 36.1 429.8 36 429.8 35.5 C 429.82 35.49 429.8 28.5 429.8 28.5 Z M 429.8 25.9 L 430.9 25.9 L 430.9 27 L 429.8 27 L 429.8 25.9 Z M 435.8 31.1 C 435.8 29.4 435.3 29.2 434.6 29.2 C 434 29.2 433.5 29.5 433.5 31.1 C 433.5 31.1 435.8 31.1 435.8 31.1 Z M 433.5 31.9 C 433.5 33.6 433.9 33.9 434.7 33.9 C 435.4 33.9 435.7 33.4 435.7 32.8 C 435.7 32.8 436.8 32.8 436.8 32.8 C 436.8 34.1 436 34.7 434.7 34.7 C 433.4 34.7 432.4 34.3 432.4 31.7 C 432.4 29.9 432.6 28.4 434.7 28.4 C 436.4 28.4 436.9 29.4 436.9 31.4 C 436.87 31.37 436.9 31.9 436.9 31.9 C 436.9 31.9 433.47 31.89 433.5 31.9 Z M 441.7 30.5 C 441.7 29.5 441.2 29.2 440.8 29.2 C 440.1 29.2 439.6 29.6 439.6 31.2 C 439.6 33.2 439.8 33.9 440.8 33.9 C 441.1 33.9 441.7 33.7 441.7 32.6 C 441.7 32.6 442.7 32.6 442.7 32.6 C 442.8 34.3 441.5 34.7 440.8 34.7 C 439.6 34.7 438.5 34.3 438.5 31.7 C 438.5 29.9 438.7 28.4 440.8 28.4 C 442 28.4 442.8 29.1 442.7 30.5 C 442.7 30.5 441.7 30.5 441.7 30.5 Z M 444.6 28.5 L 444.6 27.4 L 445.6 26.9 L 445.6 28.5 L 446.9 28.5 L 446.9 29.3 L 445.6 29.3 C 445.6 29.3 445.6 32.99 445.6 33 C 445.6 33.4 445.6 33.9 446.5 33.9 C 446.6 33.9 446.7 33.8 446.9 33.8 C 446.9 33.8 446.9 34.6 446.9 34.6 C 446.6 34.6 446.3 34.7 446 34.7 C 445 34.7 444.6 34.3 444.6 33.6 C 444.62 33.59 444.6 29.3 444.6 29.3 L 443.6 29.3 L 443.6 28.5 L 444.6 28.5 Z M 448.8 34.6 L 447.8 34.6 L 447.8 28.5 L 448.8 28.5 L 448.8 34.6 Z M 447.8 25.9 L 448.9 25.9 L 448.9 27 L 447.8 27 L 447.8 25.9 Z M 453.9 31.2 C 453.9 29.6 453.4 29.2 452.6 29.2 C 451.9 29.2 451.4 29.6 451.4 31.2 C 451.4 33.2 451.6 33.9 452.6 33.9 C 453.7 33.9 453.9 33.2 453.9 31.2 Z M 450.3 31.7 C 450.3 29.9 450.5 28.4 452.6 28.4 C 454.7 28.4 454.9 29.9 454.9 31.7 C 454.9 34.3 453.9 34.7 452.6 34.7 C 451.4 34.7 450.3 34.3 450.3 31.7 Z M 459.8 34.6 C 459.8 34.6 459.8 30.4 459.8 30.4 C 459.8 29.8 459.6 29.2 458.7 29.2 C 457.6 29.2 457.5 30.2 457.5 31 C 457.49 31.01 457.5 34.6 457.5 34.6 L 456.5 34.6 C 456.5 34.6 456.51 29.8 456.5 29.8 C 456.5 29.4 456.5 29 456.4 28.5 C 456.45 28.54 457.5 28.5 457.5 28.5 L 457.5 29.3 C 457.5 29.3 457.54 29.32 457.5 29.3 C 457.9 28.6 458.4 28.4 459.2 28.4 C 460.5 28.4 460.8 29.2 460.8 30.4 C 460.78 30.4 460.8 34.6 460.8 34.6 L 459.8 34.6 Z M 464.3 34.7 C 463 34.7 462.2 34.1 462.2 32.8 C 462.2 32.8 463.3 32.8 463.3 32.8 C 463.3 33.1 463.3 33.9 464.3 33.9 C 464.9 33.9 465.4 33.6 465.4 33 C 465.4 31.9 462.4 31.9 462.4 30.1 C 462.4 29.4 462.7 28.4 464.4 28.4 C 465.5 28.4 466.4 28.9 466.4 30.1 C 466.4 30.1 465.3 30.1 465.3 30.1 C 465.3 29.5 464.9 29.2 464.3 29.2 C 463.8 29.2 463.4 29.5 463.4 30 C 463.4 31 466.4 31 466.4 32.9 C 466.4 34.2 465.5 34.7 464.3 34.7 Z M 473.9 31.2 C 473.9 29.6 473.4 29.2 472.6 29.2 C 471.9 29.2 471.4 29.6 471.4 31.2 C 471.4 33.2 471.6 33.9 472.6 33.9 C 473.7 33.9 473.9 33.2 473.9 31.2 Z M 470.3 31.7 C 470.3 29.9 470.5 28.4 472.6 28.4 C 474.7 28.4 474.9 29.9 474.9 31.7 C 474.9 34.3 473.9 34.7 472.6 34.7 C 471.4 34.7 470.3 34.3 470.3 31.7 Z M 477.5 29.5 C 477.5 29.5 477.54 29.45 477.5 29.5 C 478 28.5 478.5 28.4 479.4 28.4 C 479.4 28.4 479.4 29.4 479.4 29.4 C 479.3 29.4 479.2 29.4 479.2 29.4 C 479.1 29.4 479 29.4 478.9 29.4 C 477.8 29.4 477.5 30.2 477.5 31 C 477.52 31.02 477.5 34.6 477.5 34.6 L 476.5 34.6 L 476.5 28.5 L 477.5 28.5 L 477.5 29.5 Z M 482.5 28.5 L 483.6 28.5 L 484.9 33.7 L 484.9 33.7 L 486.4 28.5 L 487.4 28.5 L 485.5 34.6 L 484.3 34.6 L 482.5 28.5 Z M 491.9 31.2 C 491.9 29.6 491.4 29.2 490.6 29.2 C 489.9 29.2 489.3 29.6 489.3 31.2 C 489.3 33.2 489.6 33.9 490.6 33.9 C 491.6 33.9 491.9 33.2 491.9 31.2 Z M 488.3 31.7 C 488.3 29.9 488.5 28.4 490.6 28.4 C 492.7 28.4 492.9 29.9 492.9 31.7 C 492.9 34.3 491.9 34.7 490.6 34.7 C 489.3 34.7 488.3 34.3 488.3 31.7 Z M 495.4 34.6 L 494.5 34.6 L 494.5 25.9 L 495.4 25.9 L 495.4 34.6 Z M 500.4 28.5 L 501.4 28.5 C 501.4 28.5 501.37 33.34 501.4 33.3 C 501.4 33.8 501.4 34.2 501.4 34.6 C 501.43 34.6 500.4 34.6 500.4 34.6 L 500.4 33.9 C 500.4 33.9 500.35 33.87 500.4 33.9 C 500 34.4 499.5 34.7 498.8 34.7 C 497.8 34.7 497.2 34.2 497.2 33.2 C 497.19 33.16 497.2 28.5 497.2 28.5 L 498.2 28.5 C 498.2 28.5 498.17 32.74 498.2 32.7 C 498.2 33.5 498.5 34 499.2 34 C 499.7 34 500.4 33.6 500.4 32.6 C 500.39 32.56 500.4 28.5 500.4 28.5 Z M 506.1 34.6 C 506.1 34.6 506.13 30.4 506.1 30.4 C 506.1 29.8 506 29.2 505.2 29.2 C 504.9 29.2 504.5 29.4 504.3 29.6 C 504.1 29.9 504.1 30.3 504.1 30.5 C 504.09 30.52 504.1 34.6 504.1 34.6 L 503.1 34.6 C 503.1 34.6 503.1 29.8 503.1 29.8 C 503.1 29.4 503.1 29 503 28.5 C 503.04 28.54 504.1 28.5 504.1 28.5 L 504.1 29.3 C 504.1 29.3 504.11 29.3 504.1 29.3 C 504.4 28.6 504.9 28.4 505.6 28.4 C 506.2 28.4 506.8 28.6 507 29.2 C 507.4 28.6 507.9 28.4 508.5 28.4 C 509.1 28.4 510.1 28.6 510.1 30 C 510.13 29.99 510.1 34.6 510.1 34.6 L 509.2 34.6 C 509.2 34.6 509.15 30.4 509.2 30.4 C 509.2 29.8 509 29.2 508.2 29.2 C 507.8 29.2 507.7 29.2 507.4 29.5 C 507.2 29.7 507.1 30.3 507.1 30.5 C 507.11 30.52 507.1 34.6 507.1 34.6 L 506.1 34.6 Z M 515.1 31.1 C 515.1 29.4 514.6 29.2 513.9 29.2 C 513.3 29.2 512.8 29.5 512.8 31.1 C 512.8 31.1 515.1 31.1 515.1 31.1 Z M 512.8 31.9 C 512.8 33.6 513.2 33.9 514 33.9 C 514.7 33.9 515 33.4 515.1 32.8 C 515.1 32.8 516.1 32.8 516.1 32.8 C 516.1 34.1 515.3 34.7 514 34.7 C 512.7 34.7 511.7 34.3 511.7 31.7 C 511.7 29.9 511.9 28.4 514 28.4 C 515.7 28.4 516.2 29.4 516.2 31.4 C 516.18 31.37 516.2 31.9 516.2 31.9 C 516.2 31.9 512.77 31.89 512.8 31.9 Z M 517.6 30.9 L 520.3 30.9 L 520.3 31.8 L 517.6 31.8 L 517.6 30.9 Z M 524.8 34.6 C 524.8 34.6 524.79 30.4 524.8 30.4 C 524.8 29.8 524.6 29.2 523.8 29.2 C 523.5 29.2 523.1 29.4 523 29.6 C 522.8 29.9 522.7 30.3 522.7 30.5 C 522.75 30.52 522.7 34.6 522.7 34.6 L 521.8 34.6 C 521.8 34.6 521.76 29.8 521.8 29.8 C 521.8 29.4 521.7 29 521.7 28.5 C 521.7 28.54 522.7 28.5 522.7 28.5 L 522.7 29.3 C 522.7 29.3 522.77 29.3 522.8 29.3 C 523.1 28.6 523.6 28.4 524.3 28.4 C 524.8 28.4 525.5 28.6 525.7 29.2 C 526 28.6 526.6 28.4 527.1 28.4 C 527.8 28.4 528.8 28.6 528.8 30 C 528.79 29.99 528.8 34.6 528.8 34.6 L 527.8 34.6 C 527.8 34.6 527.81 30.4 527.8 30.4 C 527.8 29.8 527.6 29.2 526.8 29.2 C 526.5 29.2 526.4 29.2 526.1 29.5 C 525.8 29.7 525.8 30.3 525.8 30.5 C 525.77 30.52 525.8 34.6 525.8 34.6 L 524.8 34.6 Z M 531.4 32.8 C 531.4 33.4 531.7 33.9 532.3 33.9 C 532.9 33.9 533.7 33.5 533.6 31.6 C 532.6 31.6 531.4 31.5 531.4 32.8 Z M 533.6 33.7 C 533.6 33.7 533.57 33.72 533.6 33.7 C 533.3 34.4 532.8 34.7 532 34.7 C 530.8 34.7 530.4 33.9 530.4 32.7 C 530.4 30.9 532.2 30.8 533.6 30.8 C 533.6 30 533.6 29.2 532.5 29.2 C 531.9 29.2 531.5 29.6 531.6 30.2 C 531.6 30.2 530.5 30.2 530.5 30.2 C 530.6 28.9 531.3 28.4 532.6 28.4 C 534.1 28.4 534.6 29.2 534.6 30.2 C 534.6 30.2 534.6 33.2 534.6 33.2 C 534.6 33.6 534.6 34.1 534.7 34.6 C 534.67 34.6 533.6 34.6 533.6 34.6 L 533.6 33.7 Z M 536.6 28.5 L 536.6 27.4 L 537.6 26.9 L 537.6 28.5 L 538.9 28.5 L 538.9 29.3 L 537.6 29.3 C 537.6 29.3 537.56 32.99 537.6 33 C 537.6 33.4 537.6 33.9 538.5 33.9 C 538.5 33.9 538.7 33.8 538.9 33.8 C 538.9 33.8 538.9 34.6 538.9 34.6 C 538.6 34.6 538.3 34.7 537.9 34.7 C 537 34.7 536.6 34.3 536.6 33.6 C 536.58 33.59 536.6 29.3 536.6 29.3 L 535.6 29.3 L 535.6 28.5 L 536.6 28.5 Z M 543 30.5 C 543 29.5 542.5 29.2 542.1 29.2 C 541.4 29.2 540.9 29.6 540.9 31.2 C 540.9 33.2 541.1 33.9 542.1 33.9 C 542.4 33.9 543.1 33.7 543 32.6 C 543 32.6 544 32.6 544 32.6 C 544.1 34.3 542.8 34.7 542.1 34.7 C 540.9 34.7 539.8 34.3 539.8 31.7 C 539.8 29.9 540 28.4 542.1 28.4 C 543.4 28.4 544.1 29.1 544 30.5 C 544 30.5 543 30.5 543 30.5 Z M 549.1 34.6 C 549.1 34.6 549.1 30.5 549.1 30.5 C 549.1 29.8 548.9 29.2 548 29.2 C 547 29.2 546.8 30 546.8 31 C 546.78 31.04 546.8 34.6 546.8 34.6 L 545.8 34.6 L 545.8 25.9 L 546.8 25.9 L 546.8 29.3 C 546.8 29.3 546.83 29.32 546.8 29.3 C 547.2 28.6 547.7 28.4 548.5 28.4 C 549.5 28.4 550.1 28.9 550.1 30.3 C 550.08 30.3 550.1 34.6 550.1 34.6 L 549.1 34.6 Z M 555.1 31.1 C 555.1 29.4 554.6 29.2 553.9 29.2 C 553.3 29.2 552.8 29.5 552.8 31.1 C 552.8 31.1 555.1 31.1 555.1 31.1 Z M 552.8 31.9 C 552.8 33.6 553.2 33.9 554 33.9 C 554.7 33.9 555 33.4 555.1 32.8 C 555.1 32.8 556.1 32.8 556.1 32.8 C 556.1 34.1 555.3 34.7 554 34.7 C 552.7 34.7 551.7 34.3 551.7 31.7 C 551.7 29.9 551.9 28.4 554 28.4 C 555.7 28.4 556.2 29.4 556.2 31.4 C 556.18 31.37 556.2 31.9 556.2 31.9 C 556.2 31.9 552.77 31.89 552.8 31.9 Z M 559.9 29.2 C 558.8 29.2 558.7 30.1 558.7 31.7 C 558.7 32.6 558.7 33.9 559.9 33.9 C 561 33.9 561 32.5 561 31.3 C 561 30.5 561 29.2 559.9 29.2 Z M 561 25.9 L 562 25.9 L 562 34.6 L 561 34.6 L 561 33.9 C 561 33.9 560.99 33.88 561 33.9 C 560.7 34.4 560.2 34.7 559.6 34.7 C 558.6 34.7 557.6 34.3 557.6 31.7 C 557.6 30.2 557.7 28.4 559.6 28.4 C 560.2 28.4 560.6 28.7 561 29.2 C 560.98 29.15 561 29.2 561 29.2 L 561 25.9 Z M 569.9 31.5 C 569.9 30.6 569.9 29.2 568.6 29.2 C 567.4 29.2 567.5 30.9 567.5 31.8 C 567.5 32.6 567.6 33.9 568.7 33.9 C 569.7 33.9 569.9 33.1 569.9 31.5 Z M 567.5 29.3 C 567.5 29.3 567.56 29.26 567.6 29.3 C 567.9 28.7 568.3 28.4 569 28.4 C 569.9 28.4 570.9 28.8 570.9 31.5 C 570.9 33 570.9 34.7 568.9 34.7 C 568.3 34.7 567.9 34.5 567.6 34 C 567.58 33.99 567.5 34 567.5 34 L 567.5 36.9 L 566.6 36.9 L 566.6 28.5 L 567.5 28.5 L 567.5 29.3 Z M 573.4 34.6 L 572.5 34.6 L 572.5 25.9 L 573.4 25.9 L 573.4 34.6 Z M 576 32.8 C 576 33.4 576.3 33.9 577 33.9 C 577.6 33.9 578.3 33.5 578.2 31.6 C 577.3 31.6 576 31.5 576 32.8 Z M 578.3 33.7 C 578.3 33.7 578.23 33.72 578.2 33.7 C 577.9 34.4 577.5 34.7 576.7 34.7 C 575.4 34.7 575.1 33.9 575.1 32.7 C 575.1 30.9 576.9 30.8 578.2 30.8 C 578.3 30 578.3 29.2 577.2 29.2 C 576.6 29.2 576.2 29.6 576.3 30.2 C 576.3 30.2 575.2 30.2 575.2 30.2 C 575.2 28.9 576 28.4 577.2 28.4 C 578.8 28.4 579.2 29.2 579.2 30.2 C 579.2 30.2 579.2 33.2 579.2 33.2 C 579.2 33.6 579.3 34.1 579.3 34.6 C 579.34 34.6 578.3 34.6 578.3 34.6 L 578.3 33.7 Z M 584.3 30.5 C 584.3 29.5 583.8 29.2 583.5 29.2 C 582.7 29.2 582.2 29.6 582.2 31.2 C 582.2 33.2 582.4 33.9 583.5 33.9 C 583.7 33.9 584.4 33.7 584.3 32.6 C 584.3 32.6 585.4 32.6 585.4 32.6 C 585.4 34.3 584.1 34.7 583.5 34.7 C 582.2 34.7 581.2 34.3 581.2 31.7 C 581.2 29.9 581.4 28.4 583.5 28.4 C 584.7 28.4 585.4 29.1 585.3 30.5 C 585.3 30.5 584.3 30.5 584.3 30.5 Z M 590.5 31.1 C 590.5 29.4 590 29.2 589.2 29.2 C 588.6 29.2 588.1 29.5 588.1 31.1 C 588.1 31.1 590.5 31.1 590.5 31.1 Z M 588.1 31.9 C 588.1 33.6 588.6 33.9 589.3 33.9 C 590 33.9 590.3 33.4 590.4 32.8 C 590.4 32.8 591.5 32.8 591.5 32.8 C 591.4 34.1 590.6 34.7 589.3 34.7 C 588.1 34.7 587 34.3 587 31.7 C 587 29.9 587.2 28.4 589.3 28.4 C 591.1 28.4 591.5 29.4 591.5 31.4 C 591.5 31.37 591.5 31.9 591.5 31.9 C 591.5 31.9 588.1 31.89 588.1 31.9 Z M 595.3 33.9 C 596.5 33.9 596.5 32.6 596.5 31.7 C 596.5 30.1 596.4 29.2 595.3 29.2 C 594.3 29.2 594.2 30.5 594.2 31.3 C 594.2 32.2 594.1 33.9 595.3 33.9 Z M 594.2 34.6 L 593.2 34.6 L 593.2 25.9 L 594.2 25.9 L 594.2 29.2 C 594.2 29.2 594.24 29.15 594.2 29.2 C 594.6 28.7 595 28.4 595.6 28.4 C 597.5 28.4 597.6 30.2 597.6 31.7 C 597.6 34.3 596.6 34.7 595.6 34.7 C 595 34.7 594.6 34.4 594.2 33.9 C 594.23 33.88 594.2 33.9 594.2 33.9 L 594.2 34.6 Z M 602.5 31.2 C 602.5 29.6 602 29.2 601.3 29.2 C 600.5 29.2 600 29.6 600 31.2 C 600 33.2 600.3 33.9 601.3 33.9 C 602.3 33.9 602.5 33.2 602.5 31.2 Z M 599 31.7 C 599 29.9 599.2 28.4 601.3 28.4 C 603.4 28.4 603.6 29.9 603.6 31.7 C 603.6 34.3 602.6 34.7 601.3 34.7 C 600 34.7 599 34.3 599 31.7 Z M 611.2 31.2 C 611.2 29.6 610.7 29.2 609.9 29.2 C 609.2 29.2 608.7 29.6 608.7 31.2 C 608.7 33.2 608.9 33.9 609.9 33.9 C 611 33.9 611.2 33.2 611.2 31.2 Z M 607.6 31.7 C 607.6 29.9 607.8 28.4 609.9 28.4 C 612 28.4 612.2 29.9 612.2 31.7 C 612.2 34.3 611.2 34.7 609.9 34.7 C 608.7 34.7 607.6 34.3 607.6 31.7 Z M 617.1 34.6 C 617.1 34.6 617.09 30.4 617.1 30.4 C 617.1 29.8 616.9 29.2 616 29.2 C 614.9 29.2 614.8 30.2 614.8 31 C 614.78 31.01 614.8 34.6 614.8 34.6 L 613.8 34.6 C 613.8 34.6 613.8 29.8 613.8 29.8 C 613.8 29.4 613.8 29 613.7 28.5 C 613.74 28.54 614.8 28.5 614.8 28.5 L 614.8 29.3 C 614.8 29.3 614.83 29.32 614.8 29.3 C 615.2 28.6 615.7 28.4 616.5 28.4 C 617.7 28.4 618.1 29.2 618.1 30.4 C 618.07 30.4 618.1 34.6 618.1 34.6 L 617.1 34.6 Z M 624.5 29.2 C 623.5 29.2 623.3 30.1 623.3 31.7 C 623.3 32.6 623.3 33.9 624.6 33.9 C 625.7 33.9 625.7 32.5 625.7 31.3 C 625.7 30.5 625.6 29.2 624.5 29.2 Z M 625.7 25.9 L 626.7 25.9 L 626.7 34.6 L 625.7 34.6 L 625.7 33.9 C 625.7 33.9 625.65 33.88 625.6 33.9 C 625.3 34.4 624.9 34.7 624.3 34.7 C 623.3 34.7 622.3 34.3 622.3 31.7 C 622.3 30.2 622.3 28.4 624.3 28.4 C 624.9 28.4 625.3 28.7 625.6 29.2 C 625.63 29.15 625.7 29.2 625.7 29.2 L 625.7 25.9 Z M 629.4 32.8 C 629.4 33.4 629.7 33.9 630.3 33.9 C 630.9 33.9 631.7 33.5 631.6 31.6 C 630.6 31.6 629.4 31.5 629.4 32.8 Z M 631.6 33.7 C 631.6 33.7 631.56 33.72 631.6 33.7 C 631.3 34.4 630.8 34.7 630 34.7 C 628.8 34.7 628.4 33.9 628.4 32.7 C 628.4 30.9 630.2 30.8 631.6 30.8 C 631.6 30 631.6 29.2 630.5 29.2 C 629.9 29.2 629.5 29.6 629.6 30.2 C 629.6 30.2 628.5 30.2 628.5 30.2 C 628.6 28.9 629.3 28.4 630.6 28.4 C 632.1 28.4 632.5 29.2 632.5 30.2 C 632.5 30.2 632.5 33.2 632.5 33.2 C 632.5 33.6 632.6 34.1 632.7 34.6 C 632.66 34.6 631.6 34.6 631.6 34.6 L 631.6 33.7 Z M 636.3 33.5 L 636.3 33.5 L 637.8 28.5 L 638.8 28.5 L 636.1 36.9 L 635.1 36.9 L 635.7 34.6 L 633.7 28.5 L 634.8 28.5 L 636.3 33.5 Z M 645.1 34.6 L 644 34.6 L 644 27.5 L 642.7 28.3 C 642.7 28.3 642.71 27.27 642.7 27.3 C 643 27.1 643.8 26.5 644.1 26.3 C 644.11 26.27 645.1 26.3 645.1 26.3 L 645.1 34.6 Z M 653.9 31.2 C 653.9 29.6 653.3 29.2 652.6 29.2 C 651.8 29.2 651.3 29.6 651.3 31.2 C 651.3 33.2 651.6 33.9 652.6 33.9 C 653.6 33.9 653.9 33.2 653.9 31.2 Z M 650.3 31.7 C 650.3 29.9 650.5 28.4 652.6 28.4 C 654.7 28.4 654.9 29.9 654.9 31.7 C 654.9 34.3 653.9 34.7 652.6 34.7 C 651.3 34.7 650.3 34.3 650.3 31.7 Z M 656.6 28.5 C 656.6 28.5 656.63 27.36 656.6 27.4 C 656.6 26.1 657.5 25.9 658.4 25.9 C 658.6 25.9 658.7 25.9 658.8 25.9 C 658.8 25.9 658.8 26.6 658.8 26.6 C 657.8 26.6 657.6 27 657.6 27.5 C 657.61 27.51 657.6 28.5 657.6 28.5 L 658.8 28.5 L 658.8 29.3 L 657.6 29.3 L 657.6 34.6 L 656.6 34.6 L 656.6 29.3 L 655.7 29.3 L 655.7 28.5 L 656.6 28.5 Z M 662.6 28.5 L 662.6 27.4 L 663.5 26.9 L 663.5 28.5 L 664.9 28.5 L 664.9 29.3 L 663.5 29.3 C 663.5 29.3 663.54 32.99 663.5 33 C 663.5 33.4 663.5 33.9 664.4 33.9 C 664.5 33.9 664.7 33.8 664.9 33.8 C 664.9 33.8 664.9 34.6 664.9 34.6 C 664.6 34.6 664.2 34.7 663.9 34.7 C 663 34.7 662.6 34.3 662.6 33.6 C 662.56 33.59 662.6 29.3 662.6 29.3 L 661.6 29.3 L 661.6 28.5 L 662.6 28.5 Z M 669.1 34.6 C 669.1 34.6 669.07 30.5 669.1 30.5 C 669.1 29.8 668.8 29.2 668 29.2 C 667 29.2 666.8 30 666.8 31 C 666.76 31.04 666.8 34.6 666.8 34.6 L 665.8 34.6 L 665.8 25.9 L 666.8 25.9 L 666.8 29.3 C 666.8 29.3 666.8 29.32 666.8 29.3 C 667.2 28.6 667.7 28.4 668.4 28.4 C 669.5 28.4 670.1 28.9 670.1 30.3 C 670.06 30.3 670.1 34.6 670.1 34.6 L 669.1 34.6 Z M 675.1 31.1 C 675.1 29.4 674.6 29.2 673.9 29.2 C 673.3 29.2 672.8 29.5 672.7 31.1 C 672.7 31.1 675.1 31.1 675.1 31.1 Z M 672.7 31.9 C 672.7 33.6 673.2 33.9 674 33.9 C 674.6 33.9 675 33.4 675 32.8 C 675 32.8 676.1 32.8 676.1 32.8 C 676.1 34.1 675.3 34.7 674 34.7 C 672.7 34.7 671.7 34.3 671.7 31.7 C 671.7 29.9 671.9 28.4 674 28.4 C 675.7 28.4 676.2 29.4 676.2 31.4 C 676.15 31.37 676.2 31.9 676.2 31.9 C 676.2 31.9 672.74 31.89 672.7 31.9 Z " stroke="none" fill="#555555"/>  </g></svg>