<?xml version="1.0" standalone="no"?><!DOCTYPE svg PUBLIC "-//W3C//DTD SVG 1.1//EN" "http://www.w3.org/Graphics/SVG/1.1/DTD/svg11.dtd"><svg xmlns="http://www.w3.org/2000/svg" version="1.1" width="130px" height="107.8px" viewBox="0 -16 130 107.8" style="top:-16px">  <desc>60%</desc>  <defs/>  <g id="Polygon200280">    <path d="M 48.5 14.1 L 41.5 14.1 C 41.5 14.1 41.47 11.43 41.5 11.4 C 41.5 7.1 40.4 5.6 37.4 5.6 C 34.3 5.6 33.2 8 33.2 12.3 C 33.2 12.33 33.2 22.3 33.2 22.3 C 33.2 22.3 33.35 22.34 33.3 22.3 C 35.1 20 37.2 19.2 40.4 19.2 C 47.4 19.2 49 24.5 49 32.3 C 49 32.3 49 41.5 49 41.5 C 49 51.3 46.7 54.9 37 54.9 C 29.1 54.9 26.1 52 26.1 42.4 C 26.1 42.4 26.1 13.1 26.1 13.1 C 26.1 3.3 29.3 -0.3 37.4 -0.3 C 45.4 -0.3 48.5 3.3 48.5 9.3 C 48.54 9.25 48.5 14.1 48.5 14.1 Z M 41.5 30.1 C 41.5 27.2 40.7 25 37.4 25 C 34.5 25 33.2 27.1 33.2 31.9 C 33.2 31.9 33.2 42.7 33.2 42.7 C 33.2 46.3 33.2 49.5 37.4 49.5 C 41.5 49.5 41.5 46.9 41.5 42.7 C 41.5 42.7 41.5 30.1 41.5 30.1 Z M 61.4 42.7 C 61.4 46.1 61.4 49.5 65.5 49.5 C 69.7 49.5 69.7 46.1 69.7 42.7 C 69.7 42.7 69.7 11.9 69.7 11.9 C 69.7 8.5 69.7 5.1 65.5 5.1 C 61.4 5.1 61.4 8.5 61.4 11.9 C 61.4 11.9 61.4 42.7 61.4 42.7 Z M 54.3 13.1 C 54.3 3.3 56.6 -0.3 65.5 -0.3 C 74.5 -0.3 76.7 3.3 76.7 13.1 C 76.7 13.1 76.7 41.5 76.7 41.5 C 76.7 51.3 74.5 54.9 65.5 54.9 C 56.6 54.9 54.3 51.3 54.3 41.5 C 54.3 41.5 54.3 13.1 54.3 13.1 Z M 84 13.6 C 84 14.8 84.4 15.3 85.3 15.3 C 86.1 15.3 86.5 14.8 86.5 13.6 C 86.5 13.6 86.5 1.6 86.5 1.6 C 86.5 0.4 86.1 -0.1 85.3 -0.1 C 84.4 -0.1 84 0.4 84 1.6 C 84 1.6 84 13.6 84 13.6 Z M 96.5 -2.5 L 99.2 -2.5 L 89.2 29.7 L 86.6 29.7 L 96.5 -2.5 Z M 99.3 25.5 C 99.3 26.8 99.7 27.3 100.6 27.3 C 101.5 27.3 101.8 26.8 101.8 25.5 C 101.8 25.5 101.8 13.6 101.8 13.6 C 101.8 12.4 101.5 11.8 100.6 11.8 C 99.7 11.8 99.3 12.4 99.3 13.6 C 99.3 13.6 99.3 25.5 99.3 25.5 Z M 81.1 1 C 81.1 -1.5 82.9 -2.5 85.3 -2.5 C 87.6 -2.5 89.4 -1.5 89.4 1 C 89.4 1 89.4 14.2 89.4 14.2 C 89.4 16.7 87.6 17.7 85.3 17.7 C 82.9 17.7 81.1 16.7 81.1 14.2 C 81.1 14.2 81.1 1 81.1 1 Z M 96.4 12.9 C 96.4 10.5 98.2 9.5 100.6 9.5 C 102.9 9.5 104.7 10.5 104.7 12.9 C 104.7 12.9 104.7 26.2 104.7 26.2 C 104.7 28.7 102.9 29.7 100.6 29.7 C 98.2 29.7 96.4 28.7 96.4 26.2 C 96.4 26.2 96.4 12.9 96.4 12.9 Z " stroke="none" fill="#003c71"/>  </g></svg>