<?xml version="1.0" standalone="no"?><!DOCTYPE svg PUBLIC "-//W3C//DTD SVG 1.1//EN" "http://www.w3.org/Graphics/SVG/1.1/DTD/svg11.dtd"><svg xmlns="http://www.w3.org/2000/svg" version="1.1" width="420px" height="59.7px" viewBox="0 -1 420 59.7" style="top:-1px">  <desc>A favorable safety profile, comparable with placebo2,3</desc>  <defs/>  <g id="Polygon191821">    <path d="M 0.1 32.9 L 3.5 20.6 L 6.9 20.6 L 10.3 32.9 L 7.5 32.9 L 6.9 30.1 L 3.4 30.1 L 2.7 32.9 L 0.1 32.9 Z M 5.1 22.9 L 5 22.9 L 3.9 28.3 L 6.3 28.3 L 5.1 22.9 Z M 18.8 22.1 C 17.8 22 17.6 22.4 17.6 23.2 C 17.63 23.24 17.6 24.3 17.6 24.3 L 18.8 24.3 L 18.8 25.8 L 17.6 25.8 L 17.6 32.9 L 15.2 32.9 L 15.2 25.8 L 14.2 25.8 L 14.2 24.3 C 14.2 24.3 15.25 24.27 15.2 24.3 C 15.2 21.8 15 20.5 18 20.5 C 18.2 20.5 18.5 20.5 18.8 20.5 C 18.8 20.5 18.8 22.1 18.8 22.1 Z M 21.9 30.2 C 21.9 30.8 22 31.6 22.8 31.6 C 24.2 31.6 24 29.6 24 28.7 C 22.8 28.8 21.9 28.7 21.9 30.2 Z M 26.3 31.3 C 26.3 31.8 26.4 32.3 26.5 32.9 C 26.47 32.86 24.2 32.9 24.2 32.9 L 24.1 31.7 C 24.1 31.7 24.11 31.72 24.1 31.7 C 23.6 32.6 22.9 33 21.9 33 C 20.2 33 19.6 31.8 19.6 30.3 C 19.6 27.5 21.8 27.3 24 27.4 C 24 27.4 24 26.7 24 26.7 C 24 26 23.9 25.4 23 25.4 C 22.2 25.4 22.1 26.1 22.1 26.8 C 22.1 26.8 19.8 26.8 19.8 26.8 C 19.8 25.7 20.1 25.1 20.7 24.7 C 21.2 24.3 22 24.1 22.9 24.1 C 26 24.1 26.3 25.4 26.3 27 C 26.3 27 26.3 31.3 26.3 31.3 Z M 27.5 24.3 L 30 24.3 L 31.2 30.7 L 31.2 30.7 L 32.5 24.3 L 34.8 24.3 L 32.4 32.9 L 29.8 32.9 L 27.5 24.3 Z M 40.3 28.3 C 40.3 26.5 40.2 25.6 39.2 25.6 C 38.2 25.6 38.1 26.5 38.1 28.3 C 38.1 30.9 38.3 31.5 39.2 31.5 C 40.1 31.5 40.3 30.9 40.3 28.3 Z M 35.7 28.5 C 35.7 26.1 36 24.1 39.2 24.1 C 42.3 24.1 42.7 26.1 42.7 28.5 C 42.7 31.1 42.3 33 39.2 33 C 36.1 33 35.7 31.1 35.7 28.5 Z M 46.7 24.3 L 46.7 25.4 C 46.7 25.4 46.7 25.38 46.7 25.4 C 47.1 24.4 48 24.1 48.9 24.1 C 48.9 24.1 48.9 26.2 48.9 26.2 C 46.8 26.1 46.8 27.3 46.8 28.2 C 46.78 28.18 46.8 32.9 46.8 32.9 L 44.4 32.9 L 44.4 24.3 L 46.7 24.3 Z M 52.1 30.2 C 52.1 30.8 52.2 31.6 53 31.6 C 54.4 31.6 54.2 29.6 54.2 28.7 C 53 28.8 52.1 28.7 52.1 30.2 Z M 56.6 31.3 C 56.6 31.8 56.6 32.3 56.7 32.9 C 56.68 32.86 54.5 32.9 54.5 32.9 L 54.3 31.7 C 54.3 31.7 54.31 31.72 54.3 31.7 C 53.8 32.6 53.1 33 52.1 33 C 50.4 33 49.8 31.8 49.8 30.3 C 49.8 27.5 52 27.3 54.2 27.4 C 54.2 27.4 54.2 26.7 54.2 26.7 C 54.2 26 54.1 25.4 53.2 25.4 C 52.4 25.4 52.3 26.1 52.3 26.8 C 52.3 26.8 50 26.8 50 26.8 C 50 25.7 50.3 25.1 50.9 24.7 C 51.4 24.3 52.2 24.1 53.1 24.1 C 56.2 24.1 56.6 25.4 56.6 27 C 56.6 27 56.6 31.3 56.6 31.3 Z M 62.9 28.5 C 62.9 26.8 63 25.6 61.9 25.6 C 60.9 25.6 60.9 26.8 60.9 28.5 C 60.9 30.6 61.1 31.6 61.9 31.6 C 62.8 31.6 62.9 30.6 62.9 28.5 Z M 58.5 20.6 L 60.9 20.6 L 60.9 25.1 C 60.9 25.1 60.98 25.09 61 25.1 C 61.5 24.4 62.1 24.1 62.9 24.1 C 65.3 24.1 65.3 26.8 65.3 28.5 C 65.3 30.3 65.4 33 62.9 33 C 62 33 61.3 32.7 60.9 31.9 C 60.86 31.91 60.8 31.9 60.8 31.9 L 60.8 32.9 L 58.5 32.9 L 58.5 20.6 Z M 69.6 20.6 L 69.6 32.9 L 67.3 32.9 L 67.3 20.6 L 69.6 20.6 Z M 76.2 27.6 C 76.2 26.8 76.2 25.6 75.1 25.6 C 74 25.6 74 26.9 74 27.6 C 74 27.6 76.2 27.6 76.2 27.6 Z M 74 28.9 C 74 30 74 31.5 75.1 31.5 C 75.9 31.5 76.1 30.7 76.1 30 C 76.1 30 78.5 30 78.5 30 C 78.5 30.9 78.2 31.7 77.6 32.2 C 77 32.7 76.2 33 75.1 33 C 72 33 71.6 31.1 71.6 28.5 C 71.6 26.1 71.9 24.1 75.1 24.1 C 78.3 24.1 78.7 26.2 78.6 28.9 C 78.6 28.9 74 28.9 74 28.9 Z M 85.9 30.1 C 85.9 30.5 85.9 30.9 86.1 31.1 C 86.2 31.4 86.4 31.6 86.9 31.6 C 87.4 31.6 87.8 31.2 87.8 30.7 C 87.8 28.8 83.6 29.3 83.6 26.5 C 83.6 24.7 85.4 24.1 87 24.1 C 88.6 24.1 90.1 24.9 89.9 26.7 C 89.9 26.7 87.6 26.7 87.6 26.7 C 87.6 26.1 87.5 25.8 87.4 25.6 C 87.2 25.5 87 25.4 86.7 25.4 C 86.2 25.4 85.9 25.8 85.9 26.4 C 85.9 27.7 90.1 27.7 90.1 30.4 C 90.1 31.9 88.9 33 86.9 33 C 84.8 33 83.5 32.5 83.6 30.1 C 83.6 30.1 85.9 30.1 85.9 30.1 Z M 93.7 30.2 C 93.7 30.8 93.8 31.6 94.6 31.6 C 96 31.6 95.8 29.6 95.8 28.7 C 94.6 28.8 93.7 28.7 93.7 30.2 Z M 98.1 31.3 C 98.1 31.8 98.2 32.3 98.2 32.9 C 98.22 32.86 96 32.9 96 32.9 L 95.9 31.7 C 95.9 31.7 95.86 31.72 95.9 31.7 C 95.4 32.6 94.7 33 93.6 33 C 92 33 91.3 31.8 91.3 30.3 C 91.3 27.5 93.5 27.3 95.8 27.4 C 95.8 27.4 95.8 26.7 95.8 26.7 C 95.8 26 95.7 25.4 94.8 25.4 C 94 25.4 93.9 26.1 93.9 26.8 C 93.9 26.8 91.5 26.8 91.5 26.8 C 91.5 25.7 91.9 25.1 92.4 24.7 C 93 24.3 93.8 24.1 94.7 24.1 C 97.7 24.1 98.1 25.4 98.1 27 C 98.1 27 98.1 31.3 98.1 31.3 Z M 103.8 22.1 C 102.8 22 102.6 22.4 102.6 23.2 C 102.61 23.24 102.6 24.3 102.6 24.3 L 103.7 24.3 L 103.7 25.8 L 102.6 25.8 L 102.6 32.9 L 100.2 32.9 L 100.2 25.8 L 99.1 25.8 L 99.1 24.3 C 99.1 24.3 100.23 24.27 100.2 24.3 C 100.2 21.8 100 20.5 102.9 20.5 C 103.2 20.5 103.5 20.5 103.8 20.5 C 103.8 20.5 103.8 22.1 103.8 22.1 Z M 109.2 27.6 C 109.2 26.8 109.3 25.6 108.1 25.6 C 107 25.6 107 26.9 107 27.6 C 107 27.6 109.2 27.6 109.2 27.6 Z M 107 28.9 C 107 30 107.1 31.5 108.1 31.5 C 109 31.5 109.1 30.7 109.1 30 C 109.1 30 111.6 30 111.6 30 C 111.5 30.9 111.2 31.7 110.7 32.2 C 110.1 32.7 109.2 33 108.1 33 C 105 33 104.6 31.1 104.6 28.5 C 104.6 26.1 105 24.1 108.1 24.1 C 111.3 24.1 111.7 26.2 111.6 28.9 C 111.6 28.9 107 28.9 107 28.9 Z M 112.4 24.3 L 113.3 24.3 L 113.3 22.9 L 115.7 21.8 L 115.7 24.3 L 117 24.3 L 117 25.8 L 115.7 25.8 C 115.7 25.8 115.72 30.34 115.7 30.3 C 115.7 31 115.7 31.4 116.5 31.4 C 116.6 31.4 116.8 31.4 116.9 31.4 C 116.9 31.4 116.9 32.9 116.9 32.9 C 116.6 32.9 116.2 32.9 115.7 32.9 C 113.6 32.9 113.3 31.6 113.3 31 C 113.32 31.04 113.3 25.8 113.3 25.8 L 112.4 25.8 L 112.4 24.3 Z M 119.6 32.9 L 117.2 24.3 L 119.6 24.3 L 120.9 30.3 L 120.9 30.3 L 122.2 24.3 L 124.5 24.3 L 121.2 36.1 L 118.7 36.1 L 119.6 32.9 Z M 133.8 28.5 C 133.8 26.8 133.8 25.6 132.7 25.6 C 131.7 25.6 131.8 26.8 131.8 28.5 C 131.8 30.6 131.9 31.6 132.7 31.6 C 133.6 31.6 133.8 30.6 133.8 28.5 Z M 131.6 24.3 L 131.6 25.2 C 131.6 25.2 131.68 25.23 131.7 25.2 C 132.1 24.4 132.8 24.1 133.7 24.1 C 136.2 24.1 136.1 26.9 136.1 28.6 C 136.1 30.4 136.2 33 133.8 33 C 132.9 33 132.3 32.8 131.8 32 C 131.8 32.04 131.8 32 131.8 32 L 131.8 36.5 L 129.4 36.5 L 129.4 24.3 L 131.6 24.3 Z M 140.1 24.3 L 140.1 25.4 C 140.1 25.4 140.18 25.38 140.2 25.4 C 140.6 24.4 141.4 24.1 142.4 24.1 C 142.4 24.1 142.4 26.2 142.4 26.2 C 140.3 26.1 140.3 27.3 140.3 28.2 C 140.27 28.18 140.3 32.9 140.3 32.9 L 137.9 32.9 L 137.9 24.3 L 140.1 24.3 Z M 147.9 28.3 C 147.9 26.5 147.8 25.6 146.8 25.6 C 145.8 25.6 145.7 26.5 145.7 28.3 C 145.7 30.9 145.9 31.5 146.8 31.5 C 147.7 31.5 147.9 30.9 147.9 28.3 Z M 143.3 28.5 C 143.3 26.1 143.7 24.1 146.8 24.1 C 150 24.1 150.3 26.1 150.3 28.5 C 150.3 31.1 149.9 33 146.8 33 C 143.7 33 143.3 31.1 143.3 28.5 Z M 155.7 22.1 C 154.7 22 154.5 22.4 154.5 23.2 C 154.55 23.24 154.5 24.3 154.5 24.3 L 155.7 24.3 L 155.7 25.8 L 154.5 25.8 L 154.5 32.9 L 152.1 32.9 L 152.1 25.8 L 151.1 25.8 L 151.1 24.3 C 151.1 24.3 152.17 24.27 152.2 24.3 C 152.1 21.8 151.9 20.5 154.9 20.5 C 155.2 20.5 155.4 20.5 155.7 20.5 C 155.7 20.5 155.7 22.1 155.7 22.1 Z M 159.4 32.9 L 157 32.9 L 157 24.3 L 159.4 24.3 L 159.4 32.9 Z M 159.4 20.6 L 159.4 22.5 L 157 22.5 L 157 20.6 L 159.4 20.6 Z M 164.1 20.6 L 164.1 32.9 L 161.7 32.9 L 161.7 20.6 L 164.1 20.6 Z M 170.6 27.6 C 170.6 26.8 170.6 25.6 169.5 25.6 C 168.4 25.6 168.4 26.9 168.4 27.6 C 168.4 27.6 170.6 27.6 170.6 27.6 Z M 168.4 28.9 C 168.4 30 168.5 31.5 169.5 31.5 C 170.4 31.5 170.5 30.7 170.5 30 C 170.5 30 173 30 173 30 C 172.9 30.9 172.6 31.7 172 32.2 C 171.5 32.7 170.6 33 169.5 33 C 166.4 33 166 31.1 166 28.5 C 166 26.1 166.3 24.1 169.5 24.1 C 172.7 24.1 173.1 26.2 173 28.9 C 173 28.9 168.4 28.9 168.4 28.9 Z M 174.9 30.6 L 177.1 30.6 L 175.8 34.5 L 174.2 34.5 L 174.9 30.6 Z M 186.6 27.3 C 186.6 26.1 186.3 25.6 185.6 25.6 C 184.5 25.6 184.4 26.5 184.4 28.3 C 184.4 30.9 184.7 31.5 185.6 31.5 C 186.3 31.5 186.7 30.8 186.7 29.7 C 186.7 29.7 189.1 29.7 189.1 29.7 C 189.1 32 187.8 33 185.6 33 C 182.5 33 182.1 31.1 182.1 28.5 C 182.1 26.1 182.4 24.1 185.6 24.1 C 187.8 24.1 189 25.1 189 27.3 C 189 27.3 186.6 27.3 186.6 27.3 Z M 195.2 28.3 C 195.2 26.5 195.1 25.6 194.1 25.6 C 193 25.6 192.9 26.5 192.9 28.3 C 192.9 30.9 193.2 31.5 194.1 31.5 C 194.9 31.5 195.2 30.9 195.2 28.3 Z M 190.6 28.5 C 190.6 26.1 190.9 24.1 194.1 24.1 C 197.2 24.1 197.6 26.1 197.6 28.5 C 197.6 31.1 197.1 33 194.1 33 C 191 33 190.6 31.1 190.6 28.5 Z M 201.5 25.1 C 201.5 25.1 201.5 25.14 201.5 25.1 C 202 24.4 202.6 24.1 203.5 24.1 C 204.4 24.1 205.1 24.5 205.4 25.2 C 206 24.4 206.7 24.1 207.7 24.1 C 208.8 24.1 209.8 24.8 209.8 26 C 209.81 25.97 209.8 32.9 209.8 32.9 L 207.4 32.9 C 207.4 32.9 207.41 26.94 207.4 26.9 C 207.4 26.2 207.3 25.6 206.5 25.6 C 205.7 25.6 205.6 26.2 205.6 26.9 C 205.61 26.94 205.6 32.9 205.6 32.9 L 203.3 32.9 C 203.3 32.9 203.27 26.94 203.3 26.9 C 203.3 26.2 203.1 25.6 202.4 25.6 C 201.6 25.6 201.5 26.2 201.5 26.9 C 201.46 26.94 201.5 32.9 201.5 32.9 L 199.1 32.9 L 199.1 24.3 L 201.5 24.3 L 201.5 25.1 Z M 215.9 28.5 C 215.9 26.8 215.9 25.6 214.9 25.6 C 213.9 25.6 213.9 26.8 213.9 28.5 C 213.9 30.6 214.1 31.6 214.9 31.6 C 215.8 31.6 215.9 30.6 215.9 28.5 Z M 213.8 24.3 L 213.8 25.2 C 213.8 25.2 213.84 25.23 213.8 25.2 C 214.3 24.4 214.9 24.1 215.9 24.1 C 218.3 24.1 218.3 26.9 218.3 28.6 C 218.3 30.4 218.3 33 215.9 33 C 215 33 214.5 32.8 214 32 C 213.96 32.04 213.9 32 213.9 32 L 213.9 36.5 L 211.5 36.5 L 211.5 24.3 L 213.8 24.3 Z M 222.1 30.2 C 222.1 30.8 222.2 31.6 223 31.6 C 224.4 31.6 224.2 29.6 224.2 28.7 C 223 28.8 222.1 28.7 222.1 30.2 Z M 226.5 31.3 C 226.5 31.8 226.6 32.3 226.7 32.9 C 226.66 32.86 224.4 32.9 224.4 32.9 L 224.3 31.7 C 224.3 31.7 224.3 31.72 224.3 31.7 C 223.8 32.6 223.1 33 222.1 33 C 220.4 33 219.8 31.8 219.8 30.3 C 219.8 27.5 222 27.3 224.2 27.4 C 224.2 27.4 224.2 26.7 224.2 26.7 C 224.2 26 224.1 25.4 223.2 25.4 C 222.4 25.4 222.3 26.1 222.3 26.8 C 222.3 26.8 220 26.8 220 26.8 C 220 25.7 220.3 25.1 220.9 24.7 C 221.4 24.3 222.2 24.1 223.1 24.1 C 226.1 24.1 226.5 25.4 226.5 27 C 226.5 27 226.5 31.3 226.5 31.3 Z M 230.8 24.3 L 230.8 25.4 C 230.8 25.4 230.84 25.38 230.8 25.4 C 231.3 24.4 232.1 24.1 233.1 24.1 C 233.1 24.1 233.1 26.2 233.1 26.2 C 231 26.1 230.9 27.3 230.9 28.2 C 230.93 28.18 230.9 32.9 230.9 32.9 L 228.5 32.9 L 228.5 24.3 L 230.8 24.3 Z M 236.3 30.2 C 236.3 30.8 236.4 31.6 237.2 31.6 C 238.6 31.6 238.4 29.6 238.4 28.7 C 237.2 28.8 236.3 28.7 236.3 30.2 Z M 240.7 31.3 C 240.7 31.8 240.8 32.3 240.8 32.9 C 240.82 32.86 238.6 32.9 238.6 32.9 L 238.5 31.7 C 238.5 31.7 238.46 31.72 238.5 31.7 C 237.9 32.6 237.2 33 236.2 33 C 234.5 33 233.9 31.8 233.9 30.3 C 233.9 27.5 236.1 27.3 238.4 27.4 C 238.4 27.4 238.4 26.7 238.4 26.7 C 238.4 26 238.3 25.4 237.4 25.4 C 236.6 25.4 236.5 26.1 236.5 26.8 C 236.5 26.8 234.1 26.8 234.1 26.8 C 234.1 25.7 234.5 25.1 235 24.7 C 235.6 24.3 236.3 24.1 237.3 24.1 C 240.3 24.1 240.7 25.4 240.7 27 C 240.7 27 240.7 31.3 240.7 31.3 Z M 247.1 28.5 C 247.1 26.8 247.1 25.6 246.1 25.6 C 245.1 25.6 245.1 26.8 245.1 28.5 C 245.1 30.6 245.2 31.6 246.1 31.6 C 246.9 31.6 247.1 30.6 247.1 28.5 Z M 242.7 20.6 L 245.1 20.6 L 245.1 25.1 C 245.1 25.1 245.12 25.09 245.1 25.1 C 245.6 24.4 246.2 24.1 247.1 24.1 C 249.5 24.1 249.4 26.8 249.4 28.5 C 249.4 30.3 249.5 33 247 33 C 246.1 33 245.4 32.7 245 31.9 C 245 31.91 245 31.9 245 31.9 L 245 32.9 L 242.7 32.9 L 242.7 20.6 Z M 253.8 20.6 L 253.8 32.9 L 251.4 32.9 L 251.4 20.6 L 253.8 20.6 Z M 260.3 27.6 C 260.3 26.8 260.4 25.6 259.2 25.6 C 258.1 25.6 258.1 26.9 258.1 27.6 C 258.1 27.6 260.3 27.6 260.3 27.6 Z M 258.1 28.9 C 258.1 30 258.2 31.5 259.2 31.5 C 260.1 31.5 260.2 30.7 260.2 30 C 260.2 30 262.7 30 262.7 30 C 262.6 30.9 262.3 31.7 261.7 32.2 C 261.2 32.7 260.3 33 259.2 33 C 256.1 33 255.7 31.1 255.7 28.5 C 255.7 26.1 256.1 24.1 259.2 24.1 C 262.4 24.1 262.8 26.2 262.7 28.9 C 262.7 28.9 258.1 28.9 258.1 28.9 Z M 267.4 24.3 L 269.8 24.3 L 271 30.7 L 271 30.7 L 272.7 24.3 L 275.1 24.3 L 276.7 30.7 L 276.7 30.7 L 278 24.3 L 280.3 24.3 L 277.9 32.9 L 275.4 32.9 L 273.9 27 L 273.8 27 L 272.1 32.9 L 269.6 32.9 L 267.4 24.3 Z M 284 32.9 L 281.6 32.9 L 281.6 24.3 L 284 24.3 L 284 32.9 Z M 284 20.6 L 284 22.5 L 281.6 22.5 L 281.6 20.6 L 284 20.6 Z M 285.2 24.3 L 286.1 24.3 L 286.1 22.9 L 288.5 21.8 L 288.5 24.3 L 289.8 24.3 L 289.8 25.8 L 288.5 25.8 C 288.5 25.8 288.54 30.34 288.5 30.3 C 288.5 31 288.5 31.4 289.3 31.4 C 289.5 31.4 289.6 31.4 289.7 31.4 C 289.7 31.4 289.7 32.9 289.7 32.9 C 289.4 32.9 289.1 32.9 288.5 32.9 C 286.4 32.9 286.1 31.6 286.1 31 C 286.14 31.04 286.1 25.8 286.1 25.8 L 285.2 25.8 L 285.2 24.3 Z M 295.1 32.9 C 295.1 32.9 295.07 26.94 295.1 26.9 C 295.1 26.2 294.9 25.6 294.2 25.6 C 293.4 25.6 293.3 26.2 293.3 26.9 C 293.26 26.94 293.3 32.9 293.3 32.9 L 290.9 32.9 L 290.9 20.6 L 293.3 20.6 L 293.3 25.1 C 293.3 25.1 293.3 25.14 293.3 25.1 C 293.5 24.8 293.8 24.5 294.1 24.3 C 294.5 24.2 294.9 24.1 295.3 24.1 C 296.5 24.1 297.5 24.8 297.5 26 C 297.46 25.97 297.5 32.9 297.5 32.9 L 295.1 32.9 Z M 307.5 28.5 C 307.5 26.8 307.5 25.6 306.5 25.6 C 305.5 25.6 305.5 26.8 305.5 28.5 C 305.5 30.6 305.7 31.6 306.5 31.6 C 307.4 31.6 307.5 30.6 307.5 28.5 Z M 305.4 24.3 L 305.4 25.2 C 305.4 25.2 305.45 25.23 305.5 25.2 C 305.9 24.4 306.6 24.1 307.5 24.1 C 310 24.1 309.9 26.9 309.9 28.6 C 309.9 30.4 309.9 33 307.5 33 C 306.7 33 306.1 32.8 305.6 32 C 305.57 32.04 305.5 32 305.5 32 L 305.5 36.5 L 303.1 36.5 L 303.1 24.3 L 305.4 24.3 Z M 314.2 20.6 L 314.2 32.9 L 311.8 32.9 L 311.8 20.6 L 314.2 20.6 Z M 318.5 30.2 C 318.5 30.8 318.6 31.6 319.3 31.6 C 320.8 31.6 320.5 29.6 320.5 28.7 C 319.3 28.8 318.5 28.7 318.5 30.2 Z M 322.9 31.3 C 322.9 31.8 322.9 32.3 323 32.9 C 323 32.86 320.8 32.9 320.8 32.9 L 320.7 31.7 C 320.7 31.7 320.63 31.72 320.6 31.7 C 320.1 32.6 319.4 33 318.4 33 C 316.7 33 316.1 31.8 316.1 30.3 C 316.1 27.5 318.3 27.3 320.5 27.4 C 320.5 27.4 320.5 26.7 320.5 26.7 C 320.5 26 320.4 25.4 319.6 25.4 C 318.7 25.4 318.7 26.1 318.7 26.8 C 318.7 26.8 316.3 26.8 316.3 26.8 C 316.3 25.7 316.6 25.1 317.2 24.7 C 317.7 24.3 318.5 24.1 319.4 24.1 C 322.5 24.1 322.9 25.4 322.9 27 C 322.9 27 322.9 31.3 322.9 31.3 Z M 329.2 27.3 C 329.2 26.1 328.9 25.6 328.2 25.6 C 327.1 25.6 327.1 26.5 327.1 28.3 C 327.1 30.9 327.3 31.5 328.2 31.5 C 328.9 31.5 329.3 30.8 329.3 29.7 C 329.3 29.7 331.7 29.7 331.7 29.7 C 331.7 32 330.4 33 328.2 33 C 325.1 33 324.7 31.1 324.7 28.5 C 324.7 26.1 325 24.1 328.2 24.1 C 330.4 24.1 331.6 25.1 331.6 27.3 C 331.6 27.3 329.2 27.3 329.2 27.3 Z M 337.8 27.6 C 337.8 26.8 337.8 25.6 336.7 25.6 C 335.6 25.6 335.6 26.9 335.6 27.6 C 335.6 27.6 337.8 27.6 337.8 27.6 Z M 335.6 28.9 C 335.6 30 335.6 31.5 336.7 31.5 C 337.5 31.5 337.7 30.7 337.7 30 C 337.7 30 340.1 30 340.1 30 C 340.1 30.9 339.8 31.7 339.2 32.2 C 338.6 32.7 337.8 33 336.7 33 C 333.6 33 333.2 31.1 333.2 28.5 C 333.2 26.1 333.5 24.1 336.7 24.1 C 339.9 24.1 340.3 26.2 340.2 28.9 C 340.2 28.9 335.6 28.9 335.6 28.9 Z M 346.3 28.5 C 346.3 26.8 346.3 25.6 345.2 25.6 C 344.2 25.6 344.3 26.8 344.3 28.5 C 344.3 30.6 344.4 31.6 345.2 31.6 C 346.1 31.6 346.3 30.6 346.3 28.5 Z M 341.9 20.6 L 344.3 20.6 L 344.3 25.1 C 344.3 25.1 344.3 25.09 344.3 25.1 C 344.8 24.4 345.4 24.1 346.3 24.1 C 348.7 24.1 348.6 26.8 348.6 28.5 C 348.6 30.3 348.7 33 346.2 33 C 345.3 33 344.6 32.7 344.2 31.9 C 344.18 31.91 344.1 31.9 344.1 31.9 L 344.1 32.9 L 341.9 32.9 L 341.9 20.6 Z M 354.8 28.3 C 354.8 26.5 354.7 25.6 353.7 25.6 C 352.6 25.6 352.6 26.5 352.6 28.3 C 352.6 30.9 352.8 31.5 353.7 31.5 C 354.5 31.5 354.8 30.9 354.8 28.3 Z M 350.2 28.5 C 350.2 26.1 350.5 24.1 353.7 24.1 C 356.8 24.1 357.2 26.1 357.2 28.5 C 357.2 31.1 356.8 33 353.7 33 C 350.6 33 350.2 31.1 350.2 28.5 Z M 358 27.2 C 358 27.2 358.03 25.98 358 26 C 360.2 23.1 360.7 22.7 360.7 21.9 C 360.7 21.5 360.5 21.2 360.1 21.2 C 359.6 21.2 359.5 21.7 359.5 22.2 C 359.5 22.2 358.1 22.2 358.1 22.2 C 358 20.9 358.8 20.2 360 20.2 C 361.2 20.2 362.1 20.7 362.1 22 C 362.1 23.5 360.3 25.3 359.5 26.1 C 359.5 26.13 362.1 26.1 362.1 26.1 L 362.1 27.2 L 358 27.2 Z M 363 25.9 L 364.3 25.9 L 363.5 28.2 L 362.6 28.2 L 363 25.9 Z M 364.7 22 C 364.7 21.3 364.9 20.8 365.2 20.6 C 365.5 20.3 366 20.2 366.7 20.2 C 368 20.2 368.6 20.7 368.6 22 C 368.6 22.7 368.4 23.5 367.6 23.6 C 367.6 23.6 367.6 23.6 367.6 23.6 C 368.5 23.8 368.7 24.5 368.7 25.3 C 368.7 26.7 367.9 27.3 366.5 27.3 C 365.2 27.3 364.6 26.8 364.6 25.3 C 364.6 25.3 366 25.3 366 25.3 C 366 25.8 366 26.3 366.6 26.3 C 367.3 26.3 367.3 25.7 367.3 25.2 C 367.3 24.2 367 24.1 366 24.1 C 366 24.1 366 23 366 23 C 366.9 23.1 367.2 23 367.2 22 C 367.2 21.6 367.1 21.2 366.7 21.2 C 366.1 21.2 366.1 21.6 366.1 22 C 366.1 22 364.7 22 364.7 22 Z " stroke="none" fill="#003c71"/>  </g></svg>