<?xml version="1.0" standalone="no"?><!DOCTYPE svg PUBLIC "-//W3C//DTD SVG 1.1//EN" "http://www.w3.org/Graphics/SVG/1.1/DTD/svg11.dtd"><svg xmlns="http://www.w3.org/2000/svg" version="1.1" width="750px" height="51.7px" viewBox="0 -1 750 51.7" style="top:-1px">  <desc>ANDEMBRY®: SUSTAINED ATTACK REDUCTION AND QOL IMPROVEMENTS OVER ≥1 YEAR1*</desc>  <defs/>  <g id="Polygon199416">    <path d="M 4.8 15.8 L 8 15.8 L 12.1 36 L 9.3 36 L 8.4 30.8 L 4 30.8 L 3.1 36 L 0.3 36 L 4.8 15.8 Z M 4.5 28.5 L 8 28.5 L 6.3 18.8 L 6.2 18.8 L 4.5 28.5 Z M 12.9 15.8 L 16.8 15.8 L 20.1 32.6 L 20.1 32.6 L 20.1 15.8 L 22.8 15.8 L 22.8 36 L 18.7 36 L 15.4 18.8 L 15.4 18.8 L 15.4 36 L 12.9 36 L 12.9 15.8 Z M 27.1 33.6 C 27.1 33.6 28.42 33.65 28.4 33.6 C 30.5 33.6 30.9 32.6 30.9 29.1 C 30.9 29.1 30.9 22.1 30.9 22.1 C 30.9 19.1 30.6 18.1 28.2 18.1 C 28.2 18.14 27.1 18.1 27.1 18.1 L 27.1 33.6 Z M 24.3 15.8 C 24.3 15.8 28.78 15.78 28.8 15.8 C 33.3 15.8 33.7 17.3 33.7 23.2 C 33.7 23.2 33.7 29.2 33.7 29.2 C 33.7 34.4 32.8 36 28.3 36 C 28.34 36 24.3 36 24.3 36 L 24.3 15.8 Z M 35.1 15.8 L 42.7 15.8 L 42.7 18.1 L 37.9 18.1 L 37.9 24.5 L 42.4 24.5 L 42.4 26.8 L 37.9 26.8 L 37.9 33.6 L 42.7 33.6 L 42.7 36 L 35.1 36 L 35.1 15.8 Z M 43.4 15.8 L 47.8 15.8 L 50.4 31.2 L 50.5 31.2 L 53 15.8 L 57.4 15.8 L 57.4 36 L 54.7 36 L 54.7 17.8 L 54.7 17.8 L 51.8 36 L 49 36 L 45.9 17.8 L 45.8 17.8 L 45.8 36 L 43.4 36 L 43.4 15.8 Z M 58.9 15.8 C 58.9 15.8 63.75 15.78 63.8 15.8 C 67.2 15.8 67.8 17 67.8 20.7 C 67.8 24.7 67.1 25.3 65.2 25.6 C 65.2 25.6 65.2 25.6 65.2 25.6 C 67.5 26 67.9 26.8 67.9 30.2 C 67.9 34.6 67.4 36 63.3 36 C 63.28 36 58.9 36 58.9 36 L 58.9 15.8 Z M 61.7 33.8 C 61.7 33.8 63.42 33.82 63.4 33.8 C 65 33.8 65.3 33.3 65.3 30.1 C 65.3 27.1 65 26.6 63.5 26.6 C 63.5 26.65 61.7 26.6 61.7 26.6 L 61.7 33.8 Z M 61.7 24.5 C 61.7 24.5 63.31 24.46 63.3 24.5 C 65 24.5 65.2 24.1 65.2 20.8 C 65.2 18.5 64.8 18 63 18 C 63 17.97 61.7 18 61.7 18 L 61.7 24.5 Z M 69.2 15.8 C 69.2 15.8 73.55 15.78 73.6 15.8 C 77.6 15.8 78.1 16.9 78.1 21.3 C 78.1 24 77.7 25.2 75.4 25.9 C 75.4 25.9 75.4 25.9 75.4 25.9 C 77.3 26.1 78 27.1 78 29 C 78 29 78 33.4 78 33.4 C 78 34.2 78 35.2 78.1 36 C 78.1 36 75.5 36 75.5 36 C 75.2 35.5 75.2 35 75.2 34.2 C 75.2 34.2 75.2 29.6 75.2 29.6 C 75.2 27.7 74.8 27.2 73 27.2 C 72.97 27.21 72 27.2 72 27.2 L 72 36 L 69.2 36 L 69.2 15.8 Z M 72 24.9 C 72 24.9 72.74 24.86 72.7 24.9 C 75 24.9 75.3 24.4 75.3 21.4 C 75.3 18.4 75.1 18.1 73.4 18.1 C 73.36 18.14 72 18.1 72 18.1 L 72 24.9 Z M 77.7 15.8 L 80.5 15.8 L 82.9 24.3 L 83 24.3 L 85.8 15.8 L 88.3 15.8 L 84.4 27.7 L 84.4 36 L 81.6 36 L 81.6 27.7 L 77.7 15.8 Z M 94.6 14.8 C 98 14.8 100.6 17.5 100.6 20.8 C 100.6 24.1 98 26.8 94.6 26.8 C 91.3 26.8 88.7 24.1 88.7 20.8 C 88.7 17.5 91.3 14.8 94.6 14.8 Z M 94.6 25.6 C 97.3 25.6 99.4 23.5 99.4 20.8 C 99.4 18.1 97.3 16 94.6 16 C 92 16 89.9 18.1 89.9 20.8 C 89.9 23.5 92 25.6 94.6 25.6 Z M 94.3 21.2 L 93.2 21.2 L 93.2 24.2 L 92 24.2 L 92 17.4 C 92 17.4 94.73 17.35 94.7 17.4 C 96.4 17.4 97.3 17.9 97.3 19.3 C 97.3 20.6 96.5 21.1 95.6 21.1 C 95.56 21.13 97.4 24.2 97.4 24.2 L 96.1 24.2 L 94.3 21.2 Z M 94.4 20.3 C 95.3 20.3 96 20.2 96 19.2 C 96 18.4 95.2 18.3 94.5 18.3 C 94.53 18.33 93.2 18.3 93.2 18.3 L 93.2 20.3 C 93.2 20.3 94.43 20.26 94.4 20.3 Z M 101.8 32.7 L 105.1 32.7 L 105.1 36 L 101.8 36 L 101.8 32.7 Z M 101.8 21.9 L 105.1 21.9 L 105.1 25.2 L 101.8 25.2 L 101.8 21.9 Z M 109.3 30.1 L 112.1 30.1 C 112.1 30.1 112.13 31.8 112.1 31.8 C 112.1 33.1 112.6 34 113.8 34 C 115.2 34 115.6 33 115.6 31.7 C 115.6 30 115.5 29.4 112.6 26.5 C 110.8 24.7 109.3 23.1 109.3 20.3 C 109.3 17 110.9 15.6 113.9 15.6 C 115.4 15.6 116.5 16.1 117.2 16.7 C 117.7 17.2 118 17.9 118 19.3 C 118.01 19.31 118 21.2 118 21.2 L 115.4 21.2 C 115.4 21.2 115.38 19.62 115.4 19.6 C 115.4 18.5 114.9 17.8 113.8 17.8 C 112.7 17.8 112.1 18.4 112.1 20 C 112.1 21.4 112.4 22.2 115 24.9 C 117.7 27.8 118.2 28.7 118.2 31.2 C 118.2 34.3 117 36.2 113.7 36.2 C 111.1 36.2 109.3 35.1 109.3 32.6 C 109.33 32.56 109.3 30.1 109.3 30.1 Z M 128.8 31.4 C 128.8 33.8 127.9 36.2 124.1 36.2 C 120.3 36.2 119.4 33.8 119.4 31.4 C 119.35 31.44 119.4 15.8 119.4 15.8 L 122.2 15.8 C 122.2 15.8 122.15 31.91 122.2 31.9 C 122.2 33.3 122.7 34 124.1 34 C 125.5 34 126 33.3 126 31.9 C 126.05 31.91 126 15.8 126 15.8 L 128.8 15.8 C 128.8 15.8 128.85 31.44 128.8 31.4 Z M 130 30.1 L 132.8 30.1 C 132.8 30.1 132.77 31.8 132.8 31.8 C 132.8 33.1 133.3 34 134.4 34 C 135.9 34 136.2 33 136.2 31.7 C 136.2 30 136.2 29.4 133.2 26.5 C 131.5 24.7 130 23.1 130 20.3 C 130 17 131.5 15.6 134.6 15.6 C 136.1 15.6 137.2 16.1 137.8 16.7 C 138.3 17.2 138.6 17.9 138.6 19.3 C 138.65 19.31 138.6 21.2 138.6 21.2 L 136 21.2 C 136 21.2 136.01 19.62 136 19.6 C 136 18.5 135.5 17.8 134.4 17.8 C 133.3 17.8 132.8 18.4 132.8 20 C 132.8 21.4 133 22.2 135.6 24.9 C 138.4 27.8 138.9 28.7 138.9 31.2 C 138.9 34.3 137.6 36.2 134.3 36.2 C 131.7 36.2 130 35.1 130 32.6 C 129.97 32.56 130 30.1 130 30.1 Z M 139.2 15.8 L 148.7 15.8 L 148.7 18.1 L 145.4 18.1 L 145.4 36 L 142.6 36 L 142.6 18.1 L 139.2 18.1 L 139.2 15.8 Z M 150.9 15.8 L 154.1 15.8 L 158.2 36 L 155.4 36 L 154.5 30.8 L 150.1 30.8 L 149.2 36 L 146.4 36 L 150.9 15.8 Z M 150.5 28.5 L 154.1 28.5 L 152.4 18.8 L 152.3 18.8 L 150.5 28.5 Z M 158.9 15.8 L 161.7 15.8 L 161.7 36 L 158.9 36 L 158.9 15.8 Z M 163.1 15.8 L 167 15.8 L 170.3 32.6 L 170.4 32.6 L 170.4 15.8 L 173 15.8 L 173 36 L 169 36 L 165.7 18.8 L 165.6 18.8 L 165.6 36 L 163.1 36 L 163.1 15.8 Z M 174.5 15.8 L 182.1 15.8 L 182.1 18.1 L 177.3 18.1 L 177.3 24.5 L 181.8 24.5 L 181.8 26.8 L 177.3 26.8 L 177.3 33.6 L 182.1 33.6 L 182.1 36 L 174.5 36 L 174.5 15.8 Z M 185.6 33.6 C 185.6 33.6 186.92 33.65 186.9 33.6 C 189 33.6 189.4 32.6 189.4 29.1 C 189.4 29.1 189.4 22.1 189.4 22.1 C 189.4 19.1 189.1 18.1 186.7 18.1 C 186.69 18.14 185.6 18.1 185.6 18.1 L 185.6 33.6 Z M 182.8 15.8 C 182.8 15.8 187.28 15.78 187.3 15.8 C 191.8 15.8 192.2 17.3 192.2 23.2 C 192.2 23.2 192.2 29.2 192.2 29.2 C 192.2 34.4 191.3 36 186.8 36 C 186.83 36 182.8 36 182.8 36 L 182.8 15.8 Z M 200.9 15.8 L 204.2 15.8 L 208.3 36 L 205.5 36 L 204.6 30.8 L 200.2 30.8 L 199.3 36 L 196.5 36 L 200.9 15.8 Z M 200.6 28.5 L 204.2 28.5 L 202.5 18.8 L 202.4 18.8 L 200.6 28.5 Z M 206 15.8 L 215.5 15.8 L 215.5 18.1 L 212.1 18.1 L 212.1 36 L 209.3 36 L 209.3 18.1 L 206 18.1 L 206 15.8 Z M 215.3 15.8 L 224.8 15.8 L 224.8 18.1 L 221.4 18.1 L 221.4 36 L 218.6 36 L 218.6 18.1 L 215.3 18.1 L 215.3 15.8 Z M 226.9 15.8 L 230.2 15.8 L 234.3 36 L 231.5 36 L 230.6 30.8 L 226.2 30.8 L 225.3 36 L 222.5 36 L 226.9 15.8 Z M 226.6 28.5 L 230.2 28.5 L 228.4 18.8 L 228.4 18.8 L 226.6 28.5 Z M 234.6 20.9 C 234.6 18.1 235.6 15.6 239.4 15.6 C 242.1 15.6 243.4 17 243.4 19.3 C 243.42 19.28 243.4 21.3 243.4 21.3 L 240.8 21.3 C 240.8 21.3 240.79 19.9 240.8 19.9 C 240.8 18.6 240.3 17.8 239.2 17.8 C 237.7 17.8 237.4 18.8 237.4 21.3 C 237.4 21.3 237.4 31.2 237.4 31.2 C 237.4 33.6 238.2 34 239.1 34 C 240.1 34 240.8 33.3 240.8 31.6 C 240.79 31.58 240.8 30.2 240.8 30.2 L 243.4 30.2 C 243.4 30.2 243.42 32.42 243.4 32.4 C 243.4 34.5 242.6 36.2 239.3 36.2 C 235.8 36.2 234.6 34.3 234.6 31.2 C 234.6 31.2 234.6 20.9 234.6 20.9 Z M 244.2 15.8 L 247 15.8 L 247 25 L 247.1 25 L 251.5 15.8 L 254.3 15.8 L 249.6 25.3 L 254.6 36 L 251.5 36 L 247.1 25.9 L 247 25.9 L 247 36 L 244.2 36 L 244.2 15.8 Z M 259.7 15.8 C 259.7 15.8 264.06 15.78 264.1 15.8 C 268.1 15.8 268.6 16.9 268.6 21.3 C 268.6 24 268.2 25.2 265.9 25.9 C 265.9 25.9 265.9 25.9 265.9 25.9 C 267.8 26.1 268.5 27.1 268.5 29 C 268.5 29 268.5 33.4 268.5 33.4 C 268.5 34.2 268.5 35.2 268.6 36 C 268.6 36 266 36 266 36 C 265.7 35.5 265.7 35 265.7 34.2 C 265.7 34.2 265.7 29.6 265.7 29.6 C 265.7 27.7 265.3 27.2 263.5 27.2 C 263.47 27.21 262.5 27.2 262.5 27.2 L 262.5 36 L 259.7 36 L 259.7 15.8 Z M 262.5 24.9 C 262.5 24.9 263.24 24.86 263.2 24.9 C 265.5 24.9 265.8 24.4 265.8 21.4 C 265.8 18.4 265.6 18.1 263.9 18.1 C 263.86 18.14 262.5 18.1 262.5 18.1 L 262.5 24.9 Z M 270 15.8 L 277.7 15.8 L 277.7 18.1 L 272.8 18.1 L 272.8 24.5 L 277.4 24.5 L 277.4 26.8 L 272.8 26.8 L 272.8 33.6 L 277.7 33.6 L 277.7 36 L 270 36 L 270 15.8 Z M 281.1 33.6 C 281.1 33.6 282.45 33.65 282.5 33.6 C 284.5 33.6 284.9 32.6 284.9 29.1 C 284.9 29.1 284.9 22.1 284.9 22.1 C 284.9 19.1 284.6 18.1 282.2 18.1 C 282.23 18.14 281.1 18.1 281.1 18.1 L 281.1 33.6 Z M 278.3 15.8 C 278.3 15.8 282.82 15.78 282.8 15.8 C 287.4 15.8 287.7 17.3 287.7 23.2 C 287.7 23.2 287.7 29.2 287.7 29.2 C 287.7 34.4 286.8 36 282.4 36 C 282.37 36 278.3 36 278.3 36 L 278.3 15.8 Z M 298.6 31.4 C 298.6 33.8 297.6 36.2 293.8 36.2 C 290 36.2 289.1 33.8 289.1 31.4 C 289.06 31.44 289.1 15.8 289.1 15.8 L 291.9 15.8 C 291.9 15.8 291.86 31.91 291.9 31.9 C 291.9 33.3 292.4 34 293.8 34 C 295.2 34 295.8 33.3 295.8 31.9 C 295.75 31.91 295.8 15.8 295.8 15.8 L 298.6 15.8 C 298.6 15.8 298.55 31.44 298.6 31.4 Z M 299.7 20.9 C 299.7 18.1 300.6 15.6 304.4 15.6 C 307.2 15.6 308.5 17 308.5 19.3 C 308.46 19.28 308.5 21.3 308.5 21.3 L 305.8 21.3 C 305.8 21.3 305.83 19.9 305.8 19.9 C 305.8 18.6 305.4 17.8 304.2 17.8 C 302.8 17.8 302.5 18.8 302.5 21.3 C 302.5 21.3 302.5 31.2 302.5 31.2 C 302.5 33.6 303.2 34 304.1 34 C 305.2 34 305.8 33.3 305.8 31.6 C 305.83 31.58 305.8 30.2 305.8 30.2 L 308.5 30.2 C 308.5 30.2 308.46 32.42 308.5 32.4 C 308.5 34.5 307.6 36.2 304.3 36.2 C 300.8 36.2 299.7 34.3 299.7 31.2 C 299.7 31.2 299.7 20.9 299.7 20.9 Z M 308.4 15.8 L 317.9 15.8 L 317.9 18.1 L 314.6 18.1 L 314.6 36 L 311.8 36 L 311.8 18.1 L 308.4 18.1 L 308.4 15.8 Z M 318.5 15.8 L 321.3 15.8 L 321.3 36 L 318.5 36 L 318.5 15.8 Z M 325.4 31.3 C 325.4 33.1 326.2 34 327.4 34 C 328.5 34 329.3 33.1 329.3 31.3 C 329.3 31.3 329.3 20.7 329.3 20.7 C 329.3 18.7 328.7 17.8 327.4 17.8 C 326.1 17.8 325.4 18.7 325.4 20.7 C 325.4 20.7 325.4 31.3 325.4 31.3 Z M 322.6 20.9 C 322.6 18.1 323.6 15.6 327.4 15.6 C 331 15.6 332.1 17.5 332.1 20.6 C 332.1 20.6 332.1 30.8 332.1 30.8 C 332.1 33.7 331.2 36.2 327.4 36.2 C 323.8 36.2 322.6 34.3 322.6 31.2 C 322.6 31.2 322.6 20.9 322.6 20.9 Z M 333.6 15.8 L 337.4 15.8 L 340.7 32.6 L 340.8 32.6 L 340.8 15.8 L 343.4 15.8 L 343.4 36 L 339.4 36 L 336.1 18.8 L 336 18.8 L 336 36 L 333.6 36 L 333.6 15.8 Z M 352.3 15.8 L 355.5 15.8 L 359.6 36 L 356.8 36 L 355.9 30.8 L 351.5 30.8 L 350.6 36 L 347.8 36 L 352.3 15.8 Z M 351.9 28.5 L 355.5 28.5 L 353.8 18.8 L 353.7 18.8 L 351.9 28.5 Z M 360.4 15.8 L 364.3 15.8 L 367.6 32.6 L 367.6 32.6 L 367.6 15.8 L 370.3 15.8 L 370.3 36 L 366.2 36 L 362.9 18.8 L 362.9 18.8 L 362.9 36 L 360.4 36 L 360.4 15.8 Z M 374.6 33.6 C 374.6 33.6 375.91 33.65 375.9 33.6 C 378 33.6 378.4 32.6 378.4 29.1 C 378.4 29.1 378.4 22.1 378.4 22.1 C 378.4 19.1 378.1 18.1 375.7 18.1 C 375.69 18.14 374.6 18.1 374.6 18.1 L 374.6 33.6 Z M 371.8 15.8 C 371.8 15.8 376.28 15.78 376.3 15.8 C 380.8 15.8 381.2 17.3 381.2 23.2 C 381.2 23.2 381.2 29.2 381.2 29.2 C 381.2 34.4 380.3 36 375.8 36 C 375.83 36 371.8 36 371.8 36 L 371.8 15.8 Z M 390 31.3 C 390 33.1 390.8 34 391.9 34 C 393.1 34 393.9 33.1 393.9 31.3 C 393.9 31.3 393.9 20.7 393.9 20.7 C 393.9 18.7 393.2 17.8 391.9 17.8 C 390.6 17.8 390 18.7 390 20.7 C 390 20.7 390 31.3 390 31.3 Z M 387.2 20.9 C 387.2 18.1 388.1 15.6 391.9 15.6 C 395.5 15.6 396.7 17.5 396.7 20.6 C 396.7 20.6 396.7 30.2 396.7 30.2 C 396.7 31.9 396.2 33.5 395.5 34.3 C 395.5 34.3 395.5 34.3 395.5 34.3 C 396 34.1 397 34 398.2 34 C 398.2 34 398.2 36 398.2 36 C 396.1 36 393.1 36.2 391.9 36.2 C 388.3 36.2 387.2 34.3 387.2 31.2 C 387.2 31.2 387.2 20.9 387.2 20.9 Z M 401.3 31.3 C 401.3 33.1 402.1 34 403.3 34 C 404.4 34 405.2 33.1 405.2 31.3 C 405.2 31.3 405.2 20.7 405.2 20.7 C 405.2 18.7 404.6 17.8 403.3 17.8 C 402 17.8 401.3 18.7 401.3 20.7 C 401.3 20.7 401.3 31.3 401.3 31.3 Z M 398.5 20.9 C 398.5 18.1 399.5 15.6 403.3 15.6 C 406.9 15.6 408 17.5 408 20.6 C 408 20.6 408 30.8 408 30.8 C 408 33.7 407.1 36.2 403.3 36.2 C 399.7 36.2 398.5 34.3 398.5 31.2 C 398.5 31.2 398.5 20.9 398.5 20.9 Z M 409.5 15.8 L 412.3 15.8 L 412.3 33.6 L 417 33.6 L 417 36 L 409.5 36 L 409.5 15.8 Z M 422.3 15.8 L 425.1 15.8 L 425.1 36 L 422.3 36 L 422.3 15.8 Z M 426.5 15.8 L 431 15.8 L 433.5 31.2 L 433.6 31.2 L 436.2 15.8 L 440.5 15.8 L 440.5 36 L 437.9 36 L 437.9 17.8 L 437.8 17.8 L 435 36 L 432.2 36 L 429 17.8 L 429 17.8 L 429 36 L 426.5 36 L 426.5 15.8 Z M 444.8 24.9 C 444.8 24.9 446.28 24.86 446.3 24.9 C 448.2 24.9 448.4 24.5 448.4 21.5 C 448.4 18.4 448.2 18.1 446.3 18.1 C 446.28 18.14 444.8 18.1 444.8 18.1 L 444.8 24.9 Z M 442 15.8 C 442 15.8 446.64 15.78 446.6 15.8 C 450.4 15.8 451.2 16.8 451.2 21.5 C 451.2 26.2 450.4 27.2 446.6 27.2 C 446.64 27.21 444.8 27.2 444.8 27.2 L 444.8 36 L 442 36 L 442 15.8 Z M 452.4 15.8 C 452.4 15.8 456.69 15.78 456.7 15.8 C 460.8 15.8 461.2 16.9 461.2 21.3 C 461.2 24 460.8 25.2 458.5 25.9 C 458.5 25.9 458.5 25.9 458.5 25.9 C 460.4 26.1 461.1 27.1 461.1 29 C 461.1 29 461.1 33.4 461.1 33.4 C 461.1 34.2 461.1 35.2 461.3 36 C 461.3 36 458.6 36 458.6 36 C 458.3 35.5 458.3 35 458.3 34.2 C 458.3 34.2 458.3 29.6 458.3 29.6 C 458.3 27.7 458 27.2 456.1 27.2 C 456.1 27.21 455.2 27.2 455.2 27.2 L 455.2 36 L 452.4 36 L 452.4 15.8 Z M 455.2 24.9 C 455.2 24.9 455.88 24.86 455.9 24.9 C 458.1 24.9 458.4 24.4 458.4 21.4 C 458.4 18.4 458.2 18.1 456.5 18.1 C 456.5 18.14 455.2 18.1 455.2 18.1 L 455.2 24.9 Z M 465.4 31.3 C 465.4 33.1 466.2 34 467.3 34 C 468.5 34 469.3 33.1 469.3 31.3 C 469.3 31.3 469.3 20.7 469.3 20.7 C 469.3 18.7 468.6 17.8 467.3 17.8 C 466.1 17.8 465.4 18.7 465.4 20.7 C 465.4 20.7 465.4 31.3 465.4 31.3 Z M 462.6 20.9 C 462.6 18.1 463.5 15.6 467.3 15.6 C 470.9 15.6 472.1 17.5 472.1 20.6 C 472.1 20.6 472.1 30.8 472.1 30.8 C 472.1 33.7 471.2 36.2 467.3 36.2 C 463.7 36.2 462.6 34.3 462.6 31.2 C 462.6 31.2 462.6 20.9 462.6 20.9 Z M 472 15.8 L 474.8 15.8 L 477.7 31.9 L 477.8 31.9 L 480.7 15.8 L 483.5 15.8 L 479.4 36 L 476.2 36 L 472 15.8 Z M 484.2 15.8 L 491.8 15.8 L 491.8 18.1 L 487 18.1 L 487 24.5 L 491.6 24.5 L 491.6 26.8 L 487 26.8 L 487 33.6 L 491.8 33.6 L 491.8 36 L 484.2 36 L 484.2 15.8 Z M 492.5 15.8 L 496.9 15.8 L 499.5 31.2 L 499.6 31.2 L 502.1 15.8 L 506.5 15.8 L 506.5 36 L 503.8 36 L 503.8 17.8 L 503.8 17.8 L 500.9 36 L 498.1 36 L 495 17.8 L 494.9 17.8 L 494.9 36 L 492.5 36 L 492.5 15.8 Z M 508 15.8 L 515.6 15.8 L 515.6 18.1 L 510.8 18.1 L 510.8 24.5 L 515.3 24.5 L 515.3 26.8 L 510.8 26.8 L 510.8 33.6 L 515.6 33.6 L 515.6 36 L 508 36 L 508 15.8 Z M 516.2 15.8 L 520.1 15.8 L 523.4 32.6 L 523.5 32.6 L 523.5 15.8 L 526.1 15.8 L 526.1 36 L 522.1 36 L 518.8 18.8 L 518.7 18.8 L 518.7 36 L 516.2 36 L 516.2 15.8 Z M 526.7 15.8 L 536.3 15.8 L 536.3 18.1 L 532.9 18.1 L 532.9 36 L 530.1 36 L 530.1 18.1 L 526.7 18.1 L 526.7 15.8 Z M 536.6 30.1 L 539.4 30.1 C 539.4 30.1 539.4 31.8 539.4 31.8 C 539.4 33.1 539.9 34 541 34 C 542.5 34 542.9 33 542.9 31.7 C 542.9 30 542.8 29.4 539.9 26.5 C 538.1 24.7 536.6 23.1 536.6 20.3 C 536.6 17 538.1 15.6 541.2 15.6 C 542.7 15.6 543.8 16.1 544.5 16.7 C 544.9 17.2 545.3 17.9 545.3 19.3 C 545.28 19.31 545.3 21.2 545.3 21.2 L 542.7 21.2 C 542.7 21.2 542.65 19.62 542.7 19.6 C 542.7 18.5 542.2 17.8 541.1 17.8 C 539.9 17.8 539.4 18.4 539.4 20 C 539.4 21.4 539.7 22.2 542.3 24.9 C 545 27.8 545.5 28.7 545.5 31.2 C 545.5 34.3 544.3 36.2 540.9 36.2 C 538.4 36.2 536.6 35.1 536.6 32.6 C 536.6 32.56 536.6 30.1 536.6 30.1 Z M 554.1 31.3 C 554.1 33.1 554.9 34 556 34 C 557.2 34 558 33.1 558 31.3 C 558 31.3 558 20.7 558 20.7 C 558 18.7 557.3 17.8 556 17.8 C 554.7 17.8 554.1 18.7 554.1 20.7 C 554.1 20.7 554.1 31.3 554.1 31.3 Z M 551.3 20.9 C 551.3 18.1 552.2 15.6 556 15.6 C 559.6 15.6 560.8 17.5 560.8 20.6 C 560.8 20.6 560.8 30.8 560.8 30.8 C 560.8 33.7 559.8 36.2 556 36.2 C 552.4 36.2 551.3 34.3 551.3 31.2 C 551.3 31.2 551.3 20.9 551.3 20.9 Z M 560.7 15.8 L 563.5 15.8 L 566.4 31.9 L 566.5 31.9 L 569.4 15.8 L 572.2 15.8 L 568.1 36 L 564.8 36 L 560.7 15.8 Z M 572.9 15.8 L 580.5 15.8 L 580.5 18.1 L 575.7 18.1 L 575.7 24.5 L 580.2 24.5 L 580.2 26.8 L 575.7 26.8 L 575.7 33.6 L 580.5 33.6 L 580.5 36 L 572.9 36 L 572.9 15.8 Z M 581.2 15.8 C 581.2 15.8 585.49 15.78 585.5 15.8 C 589.6 15.8 590 16.9 590 21.3 C 590 24 589.6 25.2 587.3 25.9 C 587.3 25.9 587.3 25.9 587.3 25.9 C 589.2 26.1 589.9 27.1 589.9 29 C 589.9 29 589.9 33.4 589.9 33.4 C 589.9 34.2 589.9 35.2 590.1 36 C 590.1 36 587.4 36 587.4 36 C 587.1 35.5 587.1 35 587.1 34.2 C 587.1 34.2 587.1 29.6 587.1 29.6 C 587.1 27.7 586.8 27.2 584.9 27.2 C 584.9 27.21 584 27.2 584 27.2 L 584 36 L 581.2 36 L 581.2 15.8 Z M 584 24.9 C 584 24.9 584.68 24.86 584.7 24.9 C 586.9 24.9 587.2 24.4 587.2 21.4 C 587.2 18.4 587 18.1 585.3 18.1 C 585.29 18.14 584 18.1 584 18.1 L 584 24.9 Z M 605.3 25.8 L 605.3 27.3 L 596.3 32.7 L 596.3 30.9 L 603.9 26.6 L 603.9 26.5 L 596.3 22.2 L 596.3 20.3 L 605.3 25.8 Z M 596.2 35.3 L 596.2 33.7 L 605.4 33.7 L 605.4 35.3 L 596.2 35.3 Z M 610.3 19.6 C 610.3 19.6 610.27 19.59 610.3 19.6 C 609.7 20.4 609.1 20.9 608.1 21.7 C 608.1 21.7 608.1 19.1 608.1 19.1 C 608.7 18.6 610.2 16.7 610.6 15.8 C 610.61 15.78 613 15.8 613 15.8 L 613 36 L 610.3 36 L 610.3 19.6 Z M 619.7 15.8 L 622.5 15.8 L 625 24.3 L 625 24.3 L 627.8 15.8 L 630.3 15.8 L 626.4 27.7 L 626.4 36 L 623.6 36 L 623.6 27.7 L 619.7 15.8 Z M 631.2 15.8 L 638.8 15.8 L 638.8 18.1 L 634 18.1 L 634 24.5 L 638.5 24.5 L 638.5 26.8 L 634 26.8 L 634 33.6 L 638.8 33.6 L 638.8 36 L 631.2 36 L 631.2 15.8 Z M 643.2 15.8 L 646.4 15.8 L 650.5 36 L 647.7 36 L 646.8 30.8 L 642.4 30.8 L 641.5 36 L 638.7 36 L 643.2 15.8 Z M 642.9 28.5 L 646.4 28.5 L 644.7 18.8 L 644.6 18.8 L 642.9 28.5 Z M 651.3 15.8 C 651.3 15.8 655.66 15.78 655.7 15.8 C 659.7 15.8 660.2 16.9 660.2 21.3 C 660.2 24 659.8 25.2 657.5 25.9 C 657.5 25.9 657.5 25.9 657.5 25.9 C 659.4 26.1 660.1 27.1 660.1 29 C 660.1 29 660.1 33.4 660.1 33.4 C 660.1 34.2 660.1 35.2 660.2 36 C 660.2 36 657.6 36 657.6 36 C 657.3 35.5 657.3 35 657.3 34.2 C 657.3 34.2 657.3 29.6 657.3 29.6 C 657.3 27.7 656.9 27.2 655.1 27.2 C 655.07 27.21 654.1 27.2 654.1 27.2 L 654.1 36 L 651.3 36 L 651.3 15.8 Z M 654.1 24.9 C 654.1 24.9 654.84 24.86 654.8 24.9 C 657.1 24.9 657.4 24.4 657.4 21.4 C 657.4 18.4 657.2 18.1 655.5 18.1 C 655.46 18.14 654.1 18.1 654.1 18.1 L 654.1 24.9 Z M 663.2 17.1 C 663.2 17.1 663.19 17.11 663.2 17.1 C 662.8 17.6 662.5 17.9 661.9 18.3 C 661.9 18.3 661.9 16.8 661.9 16.8 C 662.3 16.5 663.2 15.4 663.4 14.9 C 663.39 14.89 664.8 14.9 664.8 14.9 L 664.8 26.7 L 663.2 26.7 L 663.2 17.1 Z M 666.7 18.5 L 667.5 17.1 L 669.9 18.7 L 669.8 15.8 L 671.2 15.8 L 671.1 18.7 L 673.5 17.1 L 674.3 18.5 L 671.5 19.7 L 674.3 21 L 673.5 22.4 L 671.1 20.7 L 671.2 23.7 L 669.8 23.7 L 669.9 20.7 L 667.5 22.4 L 666.7 21 L 669.5 19.7 L 666.7 18.5 Z " stroke="none" fill="#003c71"/>  </g></svg>