<?xml version="1.0" standalone="no"?><!DOCTYPE svg PUBLIC "-//W3C//DTD SVG 1.1//EN" "http://www.w3.org/Graphics/SVG/1.1/DTD/svg11.dtd"><svg xmlns="http://www.w3.org/2000/svg" version="1.1" width="326px" height="51.8px" viewBox="0 -4 326 51.8" style="top:-4px">  <desc>Abbreviations: AE QoL, Angioedema Quality of Life Questionnaire; MCID, minimum clinically important difference; QoL, ...</desc>  <defs/>  <g id="Polygon198119">    <path d="M 3.2 19.2 C 3.2 19.2 3.2 15.74 3.2 15.7 C 3.2 15.2 3.1 14.8 2.4 14.8 C 2.1 14.8 1.8 14.9 1.7 15.1 C 1.5 15.3 1.5 15.6 1.5 15.8 C 1.5 15.84 1.5 19.2 1.5 19.2 L 0.7 19.2 C 0.7 19.2 0.68 15.24 0.7 15.2 C 0.7 14.9 0.7 14.5 0.6 14.2 C 0.63 14.19 1.5 14.2 1.5 14.2 L 1.5 14.8 C 1.5 14.8 1.52 14.82 1.5 14.8 C 1.8 14.3 2.2 14.1 2.8 14.1 C 3.2 14.1 3.8 14.3 4 14.7 C 4.2 14.2 4.7 14.1 5.2 14.1 C 5.7 14.1 6.5 14.2 6.5 15.4 C 6.54 15.4 6.5 19.2 6.5 19.2 L 5.7 19.2 C 5.7 19.2 5.72 15.74 5.7 15.7 C 5.7 15.2 5.6 14.8 4.9 14.8 C 4.6 14.8 4.5 14.8 4.3 14.9 C 4.1 15.1 4 15.6 4 15.8 C 4.02 15.84 4 19.2 4 19.2 L 3.2 19.2 Z M 10.6 14.2 L 11.5 14.2 C 11.5 14.2 11.46 18.19 11.5 18.2 C 11.5 18.5 11.5 18.9 11.5 19.2 C 11.51 19.24 10.6 19.2 10.6 19.2 L 10.6 18.6 C 10.6 18.6 10.61 18.63 10.6 18.6 C 10.3 19.1 9.9 19.3 9.3 19.3 C 8.4 19.3 8 18.9 8 18 C 7.97 18.04 8 14.2 8 14.2 L 8.8 14.2 C 8.8 14.2 8.79 17.69 8.8 17.7 C 8.8 18.3 9.1 18.7 9.6 18.7 C 10.1 18.7 10.6 18.4 10.6 17.5 C 10.64 17.54 10.6 14.2 10.6 14.2 Z M 15.4 19.2 C 15.4 19.2 15.42 15.74 15.4 15.7 C 15.4 15.2 15.3 14.8 14.6 14.8 C 14.4 14.8 14 14.9 13.9 15.1 C 13.8 15.3 13.7 15.6 13.7 15.8 C 13.72 15.84 13.7 19.2 13.7 19.2 L 12.9 19.2 C 12.9 19.2 12.9 15.24 12.9 15.2 C 12.9 14.9 12.9 14.5 12.9 14.2 C 12.85 14.19 13.7 14.2 13.7 14.2 L 13.7 14.8 C 13.7 14.8 13.74 14.82 13.7 14.8 C 14 14.3 14.4 14.1 15 14.1 C 15.5 14.1 16 14.3 16.2 14.7 C 16.5 14.2 16.9 14.1 17.4 14.1 C 17.9 14.1 18.8 14.2 18.8 15.4 C 18.76 15.4 18.8 19.2 18.8 19.2 L 17.9 19.2 C 17.9 19.2 17.94 15.74 17.9 15.7 C 17.9 15.2 17.8 14.8 17.1 14.8 C 16.8 14.8 16.7 14.8 16.5 14.9 C 16.3 15.1 16.2 15.6 16.2 15.8 C 16.24 15.84 16.2 19.2 16.2 19.2 L 15.4 19.2 Z M 25 15.8 C 25 15 24.6 14.8 24.3 14.8 C 23.7 14.8 23.3 15.1 23.3 16.4 C 23.3 18.1 23.5 18.7 24.3 18.7 C 24.5 18.7 25.1 18.5 25.1 17.6 C 25.1 17.6 25.9 17.6 25.9 17.6 C 25.9 19 24.9 19.3 24.3 19.3 C 23.2 19.3 22.4 19 22.4 16.8 C 22.4 15.3 22.6 14.1 24.3 14.1 C 25.3 14.1 25.9 14.7 25.9 15.8 C 25.9 15.8 25 15.8 25 15.8 Z M 28.2 19.2 L 27.4 19.2 L 27.4 12 L 28.2 12 L 28.2 19.2 Z M 30.4 19.2 L 29.6 19.2 L 29.6 14.2 L 30.4 14.2 L 30.4 19.2 Z M 29.5 12 L 30.4 12 L 30.4 12.9 L 29.5 12.9 L 29.5 12 Z M 34.6 19.2 C 34.6 19.2 34.56 15.74 34.6 15.7 C 34.6 15.2 34.4 14.8 33.7 14.8 C 32.8 14.8 32.6 15.6 32.6 16.2 C 32.64 16.25 32.6 19.2 32.6 19.2 L 31.8 19.2 C 31.8 19.2 31.82 15.24 31.8 15.2 C 31.8 14.9 31.8 14.5 31.8 14.2 C 31.77 14.19 32.6 14.2 32.6 14.2 L 32.6 14.8 C 32.6 14.8 32.68 14.84 32.7 14.8 C 33 14.3 33.4 14.1 34 14.1 C 35.1 14.1 35.4 14.7 35.4 15.7 C 35.38 15.74 35.4 19.2 35.4 19.2 L 34.6 19.2 Z M 37.6 19.2 L 36.8 19.2 L 36.8 14.2 L 37.6 14.2 L 37.6 19.2 Z M 36.7 12 L 37.7 12 L 37.7 12.9 L 36.7 12.9 L 36.7 12 Z M 41.7 15.8 C 41.7 15 41.3 14.8 41 14.8 C 40.3 14.8 39.9 15.1 39.9 16.4 C 39.9 18.1 40.1 18.7 41 18.7 C 41.2 18.7 41.7 18.5 41.7 17.6 C 41.7 17.6 42.6 17.6 42.6 17.6 C 42.6 19 41.5 19.3 41 19.3 C 39.9 19.3 39.1 19 39.1 16.8 C 39.1 15.3 39.2 14.1 41 14.1 C 42 14.1 42.6 14.7 42.5 15.8 C 42.5 15.8 41.7 15.8 41.7 15.8 Z M 44.8 17.7 C 44.8 18.2 45 18.7 45.6 18.7 C 46.1 18.7 46.7 18.4 46.6 16.7 C 45.8 16.7 44.8 16.7 44.8 17.7 Z M 46.6 18.5 C 46.6 18.5 46.62 18.51 46.6 18.5 C 46.4 19.1 46 19.3 45.3 19.3 C 44.3 19.3 44 18.7 44 17.7 C 44 16.2 45.5 16.1 46.6 16.1 C 46.6 15.4 46.6 14.7 45.8 14.7 C 45.2 14.7 44.9 15.1 45 15.6 C 45 15.6 44.1 15.6 44.1 15.6 C 44.1 14.5 44.7 14.1 45.8 14.1 C 47.1 14.1 47.4 14.8 47.4 15.6 C 47.4 15.6 47.4 18 47.4 18 C 47.4 18.4 47.5 18.8 47.5 19.2 C 47.54 19.24 46.6 19.2 46.6 19.2 L 46.6 18.5 Z M 49.8 19.2 L 49 19.2 L 49 12 L 49.8 12 L 49.8 19.2 Z M 52.1 19.2 L 51.2 19.2 L 51.2 12 L 52.1 12 L 52.1 19.2 Z M 55 18.3 L 55 18.3 L 56.2 14.2 L 57.1 14.2 L 54.8 21.1 L 54 21.1 L 54.5 19.2 L 52.8 14.2 L 53.8 14.2 L 55 18.3 Z M 60.9 19.2 L 60.1 19.2 L 60.1 14.2 L 60.9 14.2 L 60.9 19.2 Z M 60.1 12 L 61 12 L 61 12.9 L 60.1 12.9 L 60.1 12 Z M 64.8 19.2 C 64.8 19.2 64.84 15.74 64.8 15.7 C 64.8 15.2 64.7 14.8 64 14.8 C 63.8 14.8 63.4 14.9 63.3 15.1 C 63.2 15.3 63.1 15.6 63.1 15.8 C 63.14 15.84 63.1 19.2 63.1 19.2 L 62.3 19.2 C 62.3 19.2 62.32 15.24 62.3 15.2 C 62.3 14.9 62.3 14.5 62.3 14.2 C 62.27 14.19 63.1 14.2 63.1 14.2 L 63.1 14.8 C 63.1 14.8 63.16 14.82 63.2 14.8 C 63.4 14.3 63.8 14.1 64.4 14.1 C 64.9 14.1 65.4 14.3 65.6 14.7 C 65.9 14.2 66.3 14.1 66.8 14.1 C 67.3 14.1 68.2 14.2 68.2 15.4 C 68.18 15.4 68.2 19.2 68.2 19.2 L 67.4 19.2 C 67.4 19.2 67.36 15.74 67.4 15.7 C 67.4 15.2 67.2 14.8 66.6 14.8 C 66.2 14.8 66.2 14.8 65.9 14.9 C 65.7 15.1 65.7 15.6 65.7 15.8 C 65.66 15.84 65.7 19.2 65.7 19.2 L 64.8 19.2 Z M 72.4 16.6 C 72.4 15.9 72.4 14.8 71.4 14.8 C 70.4 14.8 70.5 16.2 70.5 16.9 C 70.5 17.6 70.5 18.7 71.4 18.7 C 72.3 18.7 72.4 18 72.4 16.6 Z M 70.5 14.8 C 70.5 14.8 70.49 14.79 70.5 14.8 C 70.8 14.3 71.1 14.1 71.6 14.1 C 72.5 14.1 73.3 14.4 73.3 16.6 C 73.3 17.9 73.2 19.3 71.6 19.3 C 71.1 19.3 70.8 19.1 70.5 18.7 C 70.5 18.73 70.5 18.7 70.5 18.7 L 70.5 21.1 L 69.6 21.1 L 69.6 14.2 L 70.5 14.2 L 70.5 14.8 Z M 77.4 16.4 C 77.4 15.1 77 14.8 76.4 14.8 C 75.7 14.8 75.3 15.1 75.3 16.4 C 75.3 18.1 75.5 18.7 76.4 18.7 C 77.2 18.7 77.4 18.1 77.4 16.4 Z M 74.4 16.8 C 74.4 15.3 74.6 14.1 76.4 14.1 C 78.1 14.1 78.3 15.3 78.3 16.8 C 78.3 19 77.4 19.3 76.4 19.3 C 75.3 19.3 74.4 19 74.4 16.8 Z M 80.4 14.9 C 80.4 14.9 80.45 14.95 80.4 14.9 C 80.8 14.2 81.2 14.1 82 14.1 C 82 14.1 82 14.9 82 14.9 C 81.9 14.9 81.9 14.9 81.8 14.9 C 81.7 14.9 81.6 14.9 81.6 14.9 C 80.7 14.9 80.4 15.6 80.4 16.3 C 80.43 16.26 80.4 19.2 80.4 19.2 L 79.6 19.2 L 79.6 14.2 L 80.4 14.2 L 80.4 14.9 Z M 83 14.2 L 83 13.2 L 83.8 12.9 L 83.8 14.2 L 84.9 14.2 L 84.9 14.8 L 83.8 14.8 C 83.8 14.8 83.82 17.9 83.8 17.9 C 83.8 18.2 83.8 18.6 84.6 18.6 C 84.6 18.6 84.8 18.6 84.9 18.6 C 84.9 18.6 84.9 19.2 84.9 19.2 C 84.7 19.2 84.4 19.3 84.1 19.3 C 83.3 19.3 83 19 83 18.4 C 83 18.4 83 14.8 83 14.8 L 82.2 14.8 L 82.2 14.2 L 83 14.2 Z M 86.4 17.7 C 86.4 18.2 86.7 18.7 87.2 18.7 C 87.7 18.7 88.3 18.4 88.3 16.7 C 87.5 16.7 86.4 16.7 86.4 17.7 Z M 88.3 18.5 C 88.3 18.5 88.27 18.51 88.3 18.5 C 88 19.1 87.6 19.3 87 19.3 C 85.9 19.3 85.6 18.7 85.6 17.7 C 85.6 16.2 87.1 16.1 88.3 16.1 C 88.3 15.4 88.3 14.7 87.4 14.7 C 86.9 14.7 86.6 15.1 86.6 15.6 C 86.6 15.6 85.7 15.6 85.7 15.6 C 85.8 14.5 86.4 14.1 87.4 14.1 C 88.7 14.1 89.1 14.8 89.1 15.6 C 89.1 15.6 89.1 18 89.1 18 C 89.1 18.4 89.1 18.8 89.2 19.2 C 89.19 19.24 88.3 19.2 88.3 19.2 L 88.3 18.5 Z M 93.4 19.2 C 93.4 19.2 93.43 15.74 93.4 15.7 C 93.4 15.2 93.2 14.8 92.5 14.8 C 91.6 14.8 91.5 15.6 91.5 16.2 C 91.51 16.25 91.5 19.2 91.5 19.2 L 90.7 19.2 C 90.7 19.2 90.69 15.24 90.7 15.2 C 90.7 14.9 90.7 14.5 90.6 14.2 C 90.64 14.19 91.5 14.2 91.5 14.2 L 91.5 14.8 C 91.5 14.8 91.55 14.84 91.5 14.8 C 91.9 14.3 92.2 14.1 92.9 14.1 C 94 14.1 94.2 14.7 94.2 15.7 C 94.25 15.74 94.2 19.2 94.2 19.2 L 93.4 19.2 Z M 95.8 14.2 L 95.8 13.2 L 96.6 12.9 L 96.6 14.2 L 97.7 14.2 L 97.7 14.8 L 96.6 14.8 C 96.6 14.8 96.6 17.9 96.6 17.9 C 96.6 18.2 96.6 18.6 97.3 18.6 C 97.4 18.6 97.5 18.6 97.7 18.6 C 97.7 18.6 97.7 19.2 97.7 19.2 C 97.4 19.2 97.2 19.3 96.9 19.3 C 96.1 19.3 95.8 19 95.8 18.4 C 95.78 18.4 95.8 14.8 95.8 14.8 L 94.9 14.8 L 94.9 14.2 L 95.8 14.2 Z M 102.4 14.8 C 101.5 14.8 101.4 15.5 101.4 16.8 C 101.4 17.6 101.4 18.7 102.4 18.7 C 103.4 18.7 103.4 17.5 103.4 16.5 C 103.4 15.8 103.3 14.8 102.4 14.8 Z M 103.4 12 L 104.2 12 L 104.2 19.2 L 103.4 19.2 L 103.4 18.6 C 103.4 18.6 103.34 18.64 103.3 18.6 C 103.1 19.1 102.7 19.3 102.2 19.3 C 101.4 19.3 100.5 19 100.5 16.8 C 100.5 15.5 100.6 14.1 102.2 14.1 C 102.7 14.1 103 14.3 103.3 14.7 C 103.33 14.7 103.4 14.7 103.4 14.7 L 103.4 12 Z M 106.5 19.2 L 105.7 19.2 L 105.7 14.2 L 106.5 14.2 L 106.5 19.2 Z M 105.6 12 L 106.5 12 L 106.5 12.9 L 105.6 12.9 L 105.6 12 Z M 108.1 14.2 C 108.1 14.2 108.06 13.21 108.1 13.2 C 108.1 12.2 108.8 12 109.5 12 C 109.7 12 109.8 12 109.9 12 C 109.9 12 109.9 12.6 109.9 12.6 C 109 12.5 108.9 12.9 108.9 13.3 C 108.88 13.33 108.9 14.2 108.9 14.2 L 109.9 14.2 L 109.9 14.8 L 108.9 14.8 L 108.9 19.2 L 108.1 19.2 L 108.1 14.8 L 107.3 14.8 L 107.3 14.2 L 108.1 14.2 Z M 110.8 14.2 C 110.8 14.2 110.84 13.21 110.8 13.2 C 110.8 12.2 111.6 12 112.3 12 C 112.5 12 112.6 12 112.7 12 C 112.7 12 112.7 12.6 112.7 12.6 C 111.8 12.5 111.7 12.9 111.7 13.3 C 111.66 13.33 111.7 14.2 111.7 14.2 L 112.7 14.2 L 112.7 14.8 L 111.7 14.8 L 111.7 19.2 L 110.8 19.2 L 110.8 14.8 L 110.1 14.8 L 110.1 14.2 L 110.8 14.2 Z M 116.2 16.4 C 116.2 14.9 115.8 14.7 115.2 14.7 C 114.7 14.7 114.3 15 114.3 16.4 C 114.3 16.4 116.2 16.4 116.2 16.4 Z M 114.3 17 C 114.3 18.4 114.6 18.7 115.3 18.7 C 115.8 18.7 116.1 18.2 116.2 17.7 C 116.2 17.7 117.1 17.7 117.1 17.7 C 117.1 18.8 116.4 19.3 115.3 19.3 C 114.2 19.3 113.4 19 113.4 16.8 C 113.4 15.3 113.6 14.1 115.3 14.1 C 116.7 14.1 117.1 14.9 117.1 16.6 C 117.11 16.55 117.1 17 117.1 17 C 117.1 17 114.27 16.98 114.3 17 Z M 119.3 14.9 C 119.3 14.9 119.34 14.95 119.3 14.9 C 119.7 14.2 120.1 14.1 120.9 14.1 C 120.9 14.1 120.9 14.9 120.9 14.9 C 120.8 14.9 120.7 14.9 120.7 14.9 C 120.6 14.9 120.5 14.9 120.5 14.9 C 119.5 14.9 119.3 15.6 119.3 16.3 C 119.32 16.26 119.3 19.2 119.3 19.2 L 118.5 19.2 L 118.5 14.2 L 119.3 14.2 L 119.3 14.9 Z M 124.6 16.4 C 124.6 14.9 124.2 14.7 123.6 14.7 C 123 14.7 122.6 15 122.6 16.4 C 122.6 16.4 124.6 16.4 124.6 16.4 Z M 122.6 17 C 122.6 18.4 123 18.7 123.6 18.7 C 124.2 18.7 124.5 18.2 124.5 17.7 C 124.5 17.7 125.4 17.7 125.4 17.7 C 125.4 18.8 124.7 19.3 123.6 19.3 C 122.6 19.3 121.7 19 121.7 16.8 C 121.7 15.3 121.9 14.1 123.6 14.1 C 125.1 14.1 125.4 14.9 125.4 16.6 C 125.44 16.55 125.4 17 125.4 17 C 125.4 17 122.6 16.98 122.6 17 Z M 129.5 19.2 C 129.5 19.2 129.54 15.74 129.5 15.7 C 129.5 15.2 129.3 14.8 128.6 14.8 C 127.7 14.8 127.6 15.6 127.6 16.2 C 127.62 16.25 127.6 19.2 127.6 19.2 L 126.8 19.2 C 126.8 19.2 126.8 15.24 126.8 15.2 C 126.8 14.9 126.8 14.5 126.7 14.2 C 126.75 14.19 127.6 14.2 127.6 14.2 L 127.6 14.8 C 127.6 14.8 127.66 14.84 127.7 14.8 C 128 14.3 128.4 14.1 129 14.1 C 130.1 14.1 130.4 14.7 130.4 15.7 C 130.36 15.74 130.4 19.2 130.4 19.2 L 129.5 19.2 Z M 134.4 15.8 C 134.5 15 134 14.8 133.7 14.8 C 133.1 14.8 132.7 15.1 132.7 16.4 C 132.7 18.1 132.9 18.7 133.7 18.7 C 133.9 18.7 134.5 18.5 134.5 17.6 C 134.5 17.6 135.3 17.6 135.3 17.6 C 135.4 19 134.3 19.3 133.7 19.3 C 132.7 19.3 131.8 19 131.8 16.8 C 131.8 15.3 132 14.1 133.7 14.1 C 134.7 14.1 135.3 14.7 135.3 15.8 C 135.3 15.8 134.4 15.8 134.4 15.8 Z M 139.6 16.4 C 139.6 14.9 139.2 14.7 138.6 14.7 C 138 14.7 137.6 15 137.6 16.4 C 137.6 16.4 139.6 16.4 139.6 16.4 Z M 137.6 17 C 137.6 18.4 138 18.7 138.6 18.7 C 139.2 18.7 139.5 18.2 139.5 17.7 C 139.5 17.7 140.4 17.7 140.4 17.7 C 140.4 18.8 139.7 19.3 138.6 19.3 C 137.6 19.3 136.7 19 136.7 16.8 C 136.7 15.3 136.9 14.1 138.6 14.1 C 140.1 14.1 140.4 14.9 140.4 16.6 C 140.44 16.55 140.4 17 140.4 17 C 140.4 17 137.6 16.98 137.6 17 Z M 141.9 18.2 L 143 18.2 L 142.1 20.5 L 141.4 20.5 L 141.9 18.2 Z M 142.7 15.2 L 141.7 15.2 L 141.7 14.2 L 142.7 14.2 L 142.7 15.2 Z M 149.8 16.6 C 149.8 16.6 149.8 14.2 149.8 14.2 C 149.8 12.7 148.8 12.6 148.5 12.6 C 148.2 12.6 147.2 12.7 147.2 14.2 C 147.2 14.2 147.2 16.6 147.2 16.6 C 147.2 17.8 147.4 18.5 148.5 18.5 C 149.6 18.5 149.8 17.8 149.8 16.6 Z M 146.2 14.2 C 146.2 12.8 147 11.9 148.5 11.9 C 150 11.9 150.8 12.8 150.8 14.2 C 150.8 14.2 150.8 16.6 150.8 16.6 C 150.8 17.1 150.6 18.4 150.1 18.6 C 150.1 18.6 150.2 18.6 150.2 18.6 C 150.3 18.6 150.6 18.4 150.8 18.4 C 150.8 18.44 151.5 18.4 151.5 18.4 L 151.5 19.2 C 151.5 19.2 148.52 19.24 148.5 19.2 C 147.5 19.2 146.2 19.2 146.2 16.6 C 146.2 16.6 146.2 14.2 146.2 14.2 Z M 155.2 16.4 C 155.2 15.1 154.8 14.8 154.1 14.8 C 153.5 14.8 153.1 15.1 153.1 16.4 C 153.1 18.1 153.3 18.7 154.1 18.7 C 155 18.7 155.2 18.1 155.2 16.4 Z M 152.2 16.8 C 152.2 15.3 152.4 14.1 154.1 14.1 C 155.9 14.1 156 15.3 156 16.8 C 156 19 155.2 19.3 154.1 19.3 C 153.1 19.3 152.2 19 152.2 16.8 Z M 157.4 19.2 L 157.4 12 L 158.4 12 L 158.4 18.4 L 161 18.4 L 161 19.2 L 157.4 19.2 Z M 161.9 18.2 L 163 18.2 L 162 20.5 L 161.4 20.5 L 161.9 18.2 Z M 168.9 16.9 C 168.9 16.2 169 14.8 168 14.8 C 166.9 14.8 166.9 15.9 166.9 16.6 C 166.9 18 167.1 18.7 167.9 18.7 C 168.9 18.7 168.9 17.6 168.9 16.9 Z M 168.9 14.2 L 169.7 14.2 L 169.7 21.1 L 168.9 21.1 L 168.9 18.7 C 168.9 18.7 168.87 18.73 168.9 18.7 C 168.6 19.1 168.2 19.3 167.8 19.3 C 166.1 19.3 166.1 17.9 166.1 16.6 C 166.1 14.4 166.9 14.1 167.7 14.1 C 168.2 14.1 168.6 14.3 168.9 14.8 C 168.88 14.79 168.9 14.8 168.9 14.8 L 168.9 14.2 Z M 173.9 14.2 L 174.7 14.2 C 174.7 14.2 174.75 18.19 174.7 18.2 C 174.7 18.5 174.8 18.9 174.8 19.2 C 174.8 19.24 173.9 19.2 173.9 19.2 L 173.9 18.6 C 173.9 18.6 173.9 18.63 173.9 18.6 C 173.6 19.1 173.1 19.3 172.6 19.3 C 171.7 19.3 171.3 18.9 171.3 18 C 171.26 18.04 171.3 14.2 171.3 14.2 L 172.1 14.2 C 172.1 14.2 172.08 17.69 172.1 17.7 C 172.1 18.3 172.4 18.7 172.9 18.7 C 173.4 18.7 173.9 18.4 173.9 17.5 C 173.93 17.54 173.9 14.2 173.9 14.2 Z M 177 17.7 C 177 18.2 177.2 18.7 177.8 18.7 C 178.3 18.7 178.9 18.4 178.8 16.7 C 178 16.7 177 16.7 177 17.7 Z M 178.8 18.5 C 178.8 18.5 178.81 18.51 178.8 18.5 C 178.6 19.1 178.2 19.3 177.5 19.3 C 176.5 19.3 176.2 18.7 176.2 17.7 C 176.2 16.2 177.7 16.1 178.8 16.1 C 178.8 15.4 178.8 14.7 178 14.7 C 177.4 14.7 177.1 15.1 177.2 15.6 C 177.2 15.6 176.3 15.6 176.3 15.6 C 176.3 14.5 176.9 14.1 178 14.1 C 179.3 14.1 179.6 14.8 179.6 15.6 C 179.6 15.6 179.6 18 179.6 18 C 179.6 18.4 179.7 18.8 179.7 19.2 C 179.73 19.24 178.8 19.2 178.8 19.2 L 178.8 18.5 Z M 182 19.2 L 181.2 19.2 L 181.2 12 L 182 12 L 182 19.2 Z M 184.2 19.2 L 183.4 19.2 L 183.4 14.2 L 184.2 14.2 L 184.2 19.2 Z M 183.4 12 L 184.3 12 L 184.3 12.9 L 183.4 12.9 L 183.4 12 Z M 185.8 14.2 L 185.8 13.2 L 186.6 12.9 L 186.6 14.2 L 187.7 14.2 L 187.7 14.8 L 186.6 14.8 C 186.6 14.8 186.58 17.9 186.6 17.9 C 186.6 18.2 186.6 18.6 187.3 18.6 C 187.4 18.6 187.5 18.6 187.7 18.6 C 187.7 18.6 187.7 19.2 187.7 19.2 C 187.4 19.2 187.2 19.3 186.9 19.3 C 186.1 19.3 185.8 19 185.8 18.4 C 185.76 18.4 185.8 14.8 185.8 14.8 L 184.9 14.8 L 184.9 14.2 L 185.8 14.2 Z M 190 18.3 L 190 18.3 L 191.2 14.2 L 192.1 14.2 L 189.8 21.1 L 188.9 21.1 L 189.5 19.2 L 187.8 14.2 L 188.8 14.2 L 190 18.3 Z M 197.9 16.4 C 197.9 15.1 197.5 14.8 196.9 14.8 C 196.3 14.8 195.8 15.1 195.8 16.4 C 195.8 18.1 196 18.7 196.9 18.7 C 197.7 18.7 197.9 18.1 197.9 16.4 Z M 195 16.8 C 195 15.3 195.1 14.1 196.9 14.1 C 198.6 14.1 198.8 15.3 198.8 16.8 C 198.8 19 198 19.3 196.9 19.3 C 195.8 19.3 195 19 195 16.8 Z M 200.3 14.2 C 200.3 14.2 200.26 13.21 200.3 13.2 C 200.3 12.2 201 12 201.7 12 C 201.9 12 202 12 202.1 12 C 202.1 12 202.1 12.6 202.1 12.6 C 201.2 12.5 201.1 12.9 201.1 13.3 C 201.08 13.33 201.1 14.2 201.1 14.2 L 202.1 14.2 L 202.1 14.8 L 201.1 14.8 L 201.1 19.2 L 200.3 19.2 L 200.3 14.8 L 199.5 14.8 L 199.5 14.2 L 200.3 14.2 Z M 205.9 19.2 L 205.1 19.2 L 205.1 12 L 205.9 12 L 205.9 19.2 Z M 208.1 19.2 L 207.3 19.2 L 207.3 14.2 L 208.1 14.2 L 208.1 19.2 Z M 207.3 12 L 208.2 12 L 208.2 12.9 L 207.3 12.9 L 207.3 12 Z M 209.7 14.2 C 209.7 14.2 209.7 13.21 209.7 13.2 C 209.7 12.2 210.4 12 211.1 12 C 211.3 12 211.4 12 211.5 12 C 211.5 12 211.5 12.6 211.5 12.6 C 210.7 12.5 210.5 12.9 210.5 13.3 C 210.52 13.33 210.5 14.2 210.5 14.2 L 211.5 14.2 L 211.5 14.8 L 210.5 14.8 L 210.5 19.2 L 209.7 19.2 L 209.7 14.8 L 208.9 14.8 L 208.9 14.2 L 209.7 14.2 Z M 215.1 16.4 C 215.1 14.9 214.7 14.7 214.1 14.7 C 213.6 14.7 213.1 15 213.1 16.4 C 213.1 16.4 215.1 16.4 215.1 16.4 Z M 213.1 17 C 213.1 18.4 213.5 18.7 214.1 18.7 C 214.7 18.7 215 18.2 215 17.7 C 215 17.7 215.9 17.7 215.9 17.7 C 215.9 18.8 215.2 19.3 214.2 19.3 C 213.1 19.3 212.2 19 212.2 16.8 C 212.2 15.3 212.4 14.1 214.2 14.1 C 215.6 14.1 216 14.9 216 16.6 C 215.97 16.55 216 17 216 17 C 216 17 213.13 16.98 213.1 17 Z M 217.5 18.2 L 218.5 18.2 L 217.6 20.5 L 216.9 20.5 L 217.5 18.2 Z M 218.2 15.2 L 217.2 15.2 L 217.2 14.2 L 218.2 14.2 L 218.2 15.2 Z M 222.6 17.1 C 222.6 17.1 222.56 17.3 222.6 17.3 C 222.6 18.3 223.2 18.6 223.8 18.6 C 224.5 18.6 225.1 18.3 225.1 17.4 C 225.1 15.8 221.8 16 221.8 13.8 C 221.8 12.5 222.7 11.9 223.9 11.9 C 225.3 11.9 226 12.5 225.9 14 C 225.9 14 225 14 225 14 C 225 13.2 224.7 12.7 223.9 12.7 C 223.3 12.7 222.8 12.9 222.8 13.7 C 222.8 15.3 226 15.1 226 17.4 C 226 18.9 225 19.4 223.8 19.4 C 221.6 19.4 221.6 17.8 221.7 17.1 C 221.66 17.09 222.6 17.1 222.6 17.1 Z M 228.4 18.4 C 228.4 18.4 229.23 18.44 229.2 18.4 C 230.5 18.4 231 18 231 16.3 C 231 16.3 231 14.8 231 14.8 C 231 13.4 230.5 12.8 229.6 12.8 C 229.57 12.82 228.4 12.8 228.4 12.8 L 228.4 18.4 Z M 227.4 12 C 227.4 12 229.66 12.02 229.7 12 C 230.6 12 231.2 12.4 231.6 13.1 C 231.9 13.7 231.9 15.2 231.9 15.4 C 231.9 16.9 231.8 17.8 231.5 18.3 C 231.1 18.9 230.4 19.2 229.1 19.2 C 229.1 19.24 227.4 19.2 227.4 19.2 L 227.4 12 Z M 233.6 18.2 L 234.6 18.2 L 233.7 20.5 L 233.1 20.5 L 233.6 18.2 Z M 239.4 19.3 C 238.3 19.3 237.6 18.9 237.6 17.7 C 237.6 17.7 238.6 17.7 238.6 17.7 C 238.6 18 238.6 18.7 239.4 18.7 C 239.9 18.7 240.3 18.4 240.3 17.9 C 240.3 17 237.7 17 237.7 15.5 C 237.7 14.9 238.1 14.1 239.5 14.1 C 240.4 14.1 241.2 14.5 241.1 15.5 C 241.1 15.5 240.2 15.5 240.2 15.5 C 240.2 15 239.9 14.7 239.4 14.7 C 238.9 14.7 238.6 14.9 238.6 15.4 C 238.6 16.3 241.1 16.3 241.1 17.8 C 241.1 18.9 240.4 19.3 239.4 19.3 Z M 242.4 14.2 L 242.4 13.2 L 243.2 12.9 L 243.2 14.2 L 244.3 14.2 L 244.3 14.8 L 243.2 14.8 C 243.2 14.8 243.22 17.9 243.2 17.9 C 243.2 18.2 243.2 18.6 244 18.6 C 244 18.6 244.2 18.6 244.3 18.6 C 244.3 18.6 244.3 19.2 244.3 19.2 C 244.1 19.2 243.8 19.3 243.5 19.3 C 242.8 19.3 242.4 19 242.4 18.4 C 242.41 18.4 242.4 14.8 242.4 14.8 L 241.6 14.8 L 241.6 14.2 L 242.4 14.2 Z M 245.8 17.7 C 245.8 18.2 246.1 18.7 246.6 18.7 C 247.1 18.7 247.8 18.4 247.7 16.7 C 246.9 16.7 245.8 16.7 245.8 17.7 Z M 247.7 18.5 C 247.7 18.5 247.68 18.51 247.7 18.5 C 247.4 19.1 247 19.3 246.4 19.3 C 245.3 19.3 245 18.7 245 17.7 C 245 16.2 246.5 16.1 247.7 16.1 C 247.7 15.4 247.7 14.7 246.8 14.7 C 246.3 14.7 246 15.1 246 15.6 C 246 15.6 245.1 15.6 245.1 15.6 C 245.2 14.5 245.8 14.1 246.9 14.1 C 248.2 14.1 248.5 14.8 248.5 15.6 C 248.5 15.6 248.5 18 248.5 18 C 248.5 18.4 248.5 18.8 248.6 19.2 C 248.59 19.24 247.7 19.2 247.7 19.2 L 247.7 18.5 Z M 252.8 19.2 C 252.8 19.2 252.84 15.74 252.8 15.7 C 252.8 15.2 252.6 14.8 251.9 14.8 C 251 14.8 250.9 15.6 250.9 16.2 C 250.91 16.25 250.9 19.2 250.9 19.2 L 250.1 19.2 C 250.1 19.2 250.1 15.24 250.1 15.2 C 250.1 14.9 250.1 14.5 250 14.2 C 250.05 14.19 250.9 14.2 250.9 14.2 L 250.9 14.8 C 250.9 14.8 250.95 14.84 251 14.8 C 251.3 14.3 251.7 14.1 252.3 14.1 C 253.4 14.1 253.7 14.7 253.7 15.7 C 253.65 15.74 253.7 19.2 253.7 19.2 L 252.8 19.2 Z M 256.8 14.8 C 255.9 14.8 255.8 15.5 255.8 16.8 C 255.8 17.6 255.8 18.7 256.8 18.7 C 257.8 18.7 257.8 17.5 257.8 16.5 C 257.8 15.8 257.7 14.8 256.8 14.8 Z M 257.8 12 L 258.6 12 L 258.6 19.2 L 257.8 19.2 L 257.8 18.6 C 257.8 18.6 257.75 18.64 257.7 18.6 C 257.5 19.1 257.1 19.3 256.6 19.3 C 255.8 19.3 255 19 255 16.8 C 255 15.5 255 14.1 256.6 14.1 C 257.1 14.1 257.5 14.3 257.7 14.7 C 257.74 14.7 257.8 14.7 257.8 14.7 L 257.8 12 Z M 260.8 17.7 C 260.8 18.2 261.1 18.7 261.6 18.7 C 262.1 18.7 262.8 18.4 262.7 16.7 C 261.9 16.7 260.8 16.7 260.8 17.7 Z M 262.7 18.5 C 262.7 18.5 262.68 18.51 262.7 18.5 C 262.4 19.1 262 19.3 261.4 19.3 C 260.3 19.3 260 18.7 260 17.7 C 260 16.2 261.5 16.1 262.7 16.1 C 262.7 15.4 262.7 14.7 261.8 14.7 C 261.3 14.7 261 15.1 261 15.6 C 261 15.6 260.1 15.6 260.1 15.6 C 260.2 14.5 260.8 14.1 261.9 14.1 C 263.2 14.1 263.5 14.8 263.5 15.6 C 263.5 15.6 263.5 18 263.5 18 C 263.5 18.4 263.5 18.8 263.6 19.2 C 263.59 19.24 262.7 19.2 262.7 19.2 L 262.7 18.5 Z M 265.9 14.9 C 265.9 14.9 265.96 14.95 266 14.9 C 266.3 14.2 266.7 14.1 267.5 14.1 C 267.5 14.1 267.5 14.9 267.5 14.9 C 267.5 14.9 267.4 14.9 267.3 14.9 C 267.2 14.9 267.2 14.9 267.1 14.9 C 266.2 14.9 265.9 15.6 265.9 16.3 C 265.94 16.26 265.9 19.2 265.9 19.2 L 265.1 19.2 L 265.1 14.2 L 265.9 14.2 L 265.9 14.9 Z M 270.1 14.8 C 269.3 14.8 269.1 15.5 269.1 16.8 C 269.1 17.6 269.1 18.7 270.2 18.7 C 271.1 18.7 271.1 17.5 271.1 16.5 C 271.1 15.8 271.1 14.8 270.1 14.8 Z M 271.1 12 L 271.9 12 L 271.9 19.2 L 271.1 19.2 L 271.1 18.6 C 271.1 18.6 271.08 18.64 271.1 18.6 C 270.8 19.1 270.4 19.3 269.9 19.3 C 269.1 19.3 268.3 19 268.3 16.8 C 268.3 15.5 268.3 14.1 270 14.1 C 270.4 14.1 270.8 14.3 271.1 14.7 C 271.07 14.7 271.1 14.7 271.1 14.7 L 271.1 12 Z M 277.4 14.8 C 276.5 14.8 276.4 15.5 276.4 16.8 C 276.4 17.6 276.4 18.7 277.4 18.7 C 278.3 18.7 278.3 17.5 278.3 16.5 C 278.3 15.8 278.3 14.8 277.4 14.8 Z M 278.3 12 L 279.1 12 L 279.1 19.2 L 278.3 19.2 L 278.3 18.6 C 278.3 18.6 278.3 18.64 278.3 18.6 C 278 19.1 277.7 19.3 277.1 19.3 C 276.3 19.3 275.5 19 275.5 16.8 C 275.5 15.5 275.5 14.1 277.2 14.1 C 277.7 14.1 278 14.3 278.3 14.7 C 278.29 14.7 278.3 14.7 278.3 14.7 L 278.3 12 Z M 283.4 16.4 C 283.4 14.9 283 14.7 282.4 14.7 C 281.9 14.7 281.5 15 281.4 16.4 C 281.4 16.4 283.4 16.4 283.4 16.4 Z M 281.4 17 C 281.4 18.4 281.8 18.7 282.5 18.7 C 283 18.7 283.3 18.2 283.3 17.7 C 283.3 17.7 284.2 17.7 284.2 17.7 C 284.2 18.8 283.5 19.3 282.5 19.3 C 281.4 19.3 280.6 19 280.6 16.8 C 280.6 15.3 280.7 14.1 282.5 14.1 C 283.9 14.1 284.3 14.9 284.3 16.6 C 284.28 16.55 284.3 17 284.3 17 C 284.3 17 281.44 16.98 281.4 17 Z M 285.1 14.2 L 286 14.2 L 287.1 18.5 L 287.1 18.5 L 288.4 14.2 L 289.2 14.2 L 287.6 19.2 L 286.6 19.2 L 285.1 14.2 Z M 290.9 19.2 L 290.1 19.2 L 290.1 14.2 L 290.9 14.2 L 290.9 19.2 Z M 290 12 L 290.9 12 L 290.9 12.9 L 290 12.9 L 290 12 Z M 293.1 17.7 C 293.1 18.2 293.3 18.7 293.8 18.7 C 294.3 18.7 295 18.4 294.9 16.7 C 294.1 16.7 293.1 16.7 293.1 17.7 Z M 294.9 18.5 C 294.9 18.5 294.89 18.51 294.9 18.5 C 294.6 19.1 294.2 19.3 293.6 19.3 C 292.5 19.3 292.2 18.7 292.2 17.7 C 292.2 16.2 293.7 16.1 294.9 16.1 C 294.9 15.4 294.9 14.7 294 14.7 C 293.5 14.7 293.2 15.1 293.2 15.6 C 293.2 15.6 292.4 15.6 292.4 15.6 C 292.4 14.5 293 14.1 294.1 14.1 C 295.4 14.1 295.7 14.8 295.7 15.6 C 295.7 15.6 295.7 18 295.7 18 C 295.7 18.4 295.7 18.8 295.8 19.2 C 295.8 19.24 294.9 19.2 294.9 19.2 L 294.9 18.5 Z M 297.4 14.2 L 297.4 13.2 L 298.2 12.9 L 298.2 14.2 L 299.3 14.2 L 299.3 14.8 L 298.2 14.8 C 298.2 14.8 298.21 17.9 298.2 17.9 C 298.2 18.2 298.2 18.6 299 18.6 C 299 18.6 299.2 18.6 299.3 18.6 C 299.3 18.6 299.3 19.2 299.3 19.2 C 299.1 19.2 298.8 19.3 298.5 19.3 C 297.7 19.3 297.4 19 297.4 18.4 C 297.4 18.4 297.4 14.8 297.4 14.8 L 296.6 14.8 L 296.6 14.2 L 297.4 14.2 Z M 300.9 19.2 L 300.1 19.2 L 300.1 14.2 L 300.9 14.2 L 300.9 19.2 Z M 300 12 L 300.9 12 L 300.9 12.9 L 300 12.9 L 300 12 Z M 305.1 16.4 C 305.1 15.1 304.7 14.8 304.1 14.8 C 303.5 14.8 303 15.1 303 16.4 C 303 18.1 303.2 18.7 304.1 18.7 C 304.9 18.7 305.1 18.1 305.1 16.4 Z M 302.2 16.8 C 302.2 15.3 302.3 14.1 304.1 14.1 C 305.8 14.1 306 15.3 306 16.8 C 306 19 305.2 19.3 304.1 19.3 C 303 19.3 302.2 19 302.2 16.8 Z M 310 19.2 C 310 19.2 310.04 15.74 310 15.7 C 310 15.2 309.9 14.8 309.2 14.8 C 308.3 14.8 308.1 15.6 308.1 16.2 C 308.12 16.25 308.1 19.2 308.1 19.2 L 307.3 19.2 C 307.3 19.2 307.3 15.24 307.3 15.2 C 307.3 14.9 307.3 14.5 307.3 14.2 C 307.25 14.19 308.1 14.2 308.1 14.2 L 308.1 14.8 C 308.1 14.8 308.16 14.84 308.2 14.8 C 308.5 14.3 308.9 14.1 309.5 14.1 C 310.6 14.1 310.9 14.7 310.9 15.7 C 310.86 15.74 310.9 19.2 310.9 19.2 L 310 19.2 Z M 313.2 19.2 L 312.2 19.2 L 312.2 18.2 L 313.2 18.2 L 313.2 19.2 Z " stroke="none" fill="#555555"/>  </g>  <g id="Polygon198118">    <path d="M 0.1 7.2 L 2.1 0 L 4.1 0 L 6 7.2 L 4.4 7.2 L 4 5.6 L 2 5.6 L 1.6 7.2 L 0.1 7.2 Z M 3 1.4 L 3 1.4 L 2.3 4.5 L 3.7 4.5 L 3 1.4 Z M 9.3 4.7 C 9.3 3.7 9.3 3 8.6 3 C 8.1 3 8.1 3.7 8.1 4.7 C 8.1 5.9 8.2 6.5 8.6 6.5 C 9.2 6.5 9.3 5.9 9.3 4.7 Z M 6.7 0 L 8.1 0 L 8.1 2.7 C 8.1 2.7 8.1 2.67 8.1 2.7 C 8.4 2.2 8.7 2.1 9.3 2.1 C 10.7 2.1 10.6 3.7 10.6 4.7 C 10.6 5.7 10.7 7.3 9.2 7.3 C 8.7 7.3 8.3 7.2 8 6.7 C 8.03 6.68 8 6.7 8 6.7 L 8 7.2 L 6.7 7.2 L 6.7 0 Z M 14.3 4.7 C 14.3 3.7 14.3 3 13.6 3 C 13.1 3 13.1 3.7 13.1 4.7 C 13.1 5.9 13.2 6.5 13.6 6.5 C 14.2 6.5 14.3 5.9 14.3 4.7 Z M 11.7 0 L 13.1 0 L 13.1 2.7 C 13.1 2.7 13.1 2.67 13.1 2.7 C 13.4 2.2 13.7 2.1 14.3 2.1 C 15.7 2.1 15.6 3.7 15.6 4.7 C 15.6 5.7 15.7 7.3 14.2 7.3 C 13.7 7.3 13.3 7.2 13 6.7 C 13.03 6.68 13 6.7 13 6.7 L 13 7.2 L 11.7 7.2 L 11.7 0 Z M 18 2.2 L 18 2.8 C 18 2.8 18.03 2.84 18 2.8 C 18.3 2.3 18.8 2.1 19.3 2.1 C 19.3 2.1 19.3 3.3 19.3 3.3 C 18.1 3.3 18.1 4 18.1 4.5 C 18.08 4.49 18.1 7.2 18.1 7.2 L 16.7 7.2 L 16.7 2.2 L 18 2.2 Z M 22.6 4.2 C 22.6 3.7 22.6 3 21.9 3 C 21.3 3 21.3 3.7 21.3 4.2 C 21.3 4.2 22.6 4.2 22.6 4.2 Z M 21.3 4.9 C 21.3 5.5 21.3 6.4 21.9 6.4 C 22.4 6.4 22.5 6 22.5 5.5 C 22.5 5.5 24 5.5 24 5.5 C 23.9 6.1 23.8 6.5 23.4 6.9 C 23.1 7.2 22.6 7.3 21.9 7.3 C 20.1 7.3 19.9 6.2 19.9 4.6 C 19.9 3.3 20.1 2.1 21.9 2.1 C 23.8 2.1 24 3.3 24 4.9 C 24 4.9 21.3 4.9 21.3 4.9 Z M 24.5 2.2 L 26 2.2 L 26.7 6 L 26.7 6 L 27.4 2.2 L 28.8 2.2 L 27.4 7.2 L 25.9 7.2 L 24.5 2.2 Z M 31 7.2 L 29.6 7.2 L 29.6 2.2 L 31 2.2 L 31 7.2 Z M 31 0 L 31 1.1 L 29.6 1.1 L 29.6 0 L 31 0 Z M 33.4 5.7 C 33.4 6 33.5 6.5 34 6.5 C 34.8 6.5 34.7 5.3 34.7 4.8 C 34 4.8 33.4 4.8 33.4 5.7 Z M 36 6.3 C 36 6.6 36.1 6.9 36.1 7.2 C 36.12 7.24 34.8 7.2 34.8 7.2 L 34.8 6.6 C 34.8 6.6 34.73 6.57 34.7 6.6 C 34.4 7.1 34 7.3 33.4 7.3 C 32.4 7.3 32.1 6.6 32.1 5.7 C 32.1 4.1 33.4 4 34.7 4 C 34.7 4 34.7 3.6 34.7 3.6 C 34.7 3.2 34.6 2.9 34.1 2.9 C 33.6 2.9 33.6 3.2 33.6 3.7 C 33.6 3.7 32.2 3.7 32.2 3.7 C 32.2 3 32.4 2.6 32.7 2.4 C 33 2.2 33.5 2.1 34 2.1 C 35.8 2.1 36 2.9 36 3.8 C 36 3.8 36 6.3 36 6.3 Z M 36.7 2.2 L 37.2 2.2 L 37.2 1.4 L 38.6 0.8 L 38.6 2.2 L 39.4 2.2 L 39.4 3.1 L 38.6 3.1 C 38.6 3.1 38.63 5.76 38.6 5.8 C 38.6 6.1 38.6 6.4 39.1 6.4 C 39.2 6.4 39.3 6.4 39.3 6.4 C 39.3 6.4 39.3 7.2 39.3 7.2 C 39.1 7.3 38.9 7.3 38.6 7.3 C 37.4 7.3 37.2 6.5 37.2 6.2 C 37.22 6.17 37.2 3.1 37.2 3.1 L 36.7 3.1 L 36.7 2.2 Z M 41.5 7.2 L 40.1 7.2 L 40.1 2.2 L 41.5 2.2 L 41.5 7.2 Z M 41.5 0 L 41.5 1.1 L 40.1 1.1 L 40.1 0 L 41.5 0 Z M 45.4 4.6 C 45.4 3.5 45.3 3 44.7 3 C 44.1 3 44.1 3.5 44.1 4.6 C 44.1 6.1 44.2 6.4 44.7 6.4 C 45.2 6.4 45.4 6.1 45.4 4.6 Z M 42.7 4.6 C 42.7 3.3 42.9 2.1 44.7 2.1 C 46.6 2.1 46.8 3.3 46.8 4.6 C 46.8 6.2 46.5 7.3 44.7 7.3 C 42.9 7.3 42.7 6.2 42.7 4.6 Z M 49.2 2.7 C 49.2 2.7 49.21 2.7 49.2 2.7 C 49.3 2.5 49.5 2.3 49.7 2.2 C 49.9 2.1 50.1 2.1 50.4 2.1 C 51.1 2.1 51.7 2.5 51.7 3.2 C 51.66 3.19 51.7 7.2 51.7 7.2 L 50.3 7.2 C 50.3 7.2 50.25 3.76 50.3 3.8 C 50.3 3.3 50.2 3 49.7 3 C 49.3 3 49.2 3.3 49.2 3.8 C 49.19 3.76 49.2 7.2 49.2 7.2 L 47.8 7.2 L 47.8 2.2 L 49.2 2.2 L 49.2 2.7 Z M 53.9 5.6 C 53.9 5.9 53.9 6.1 54 6.2 C 54 6.4 54.2 6.5 54.5 6.5 C 54.8 6.5 55 6.3 55 6 C 55 4.9 52.5 5.1 52.5 3.5 C 52.5 2.4 53.6 2.1 54.5 2.1 C 55.5 2.1 56.3 2.5 56.2 3.6 C 56.2 3.6 54.9 3.6 54.9 3.6 C 54.9 3.3 54.8 3.1 54.7 3 C 54.6 2.9 54.5 2.9 54.4 2.9 C 54.1 2.9 53.9 3.1 53.9 3.4 C 53.9 4.2 56.4 4.2 56.4 5.8 C 56.4 6.7 55.6 7.3 54.5 7.3 C 53.2 7.3 52.4 7 52.5 5.6 C 52.5 5.6 53.9 5.6 53.9 5.6 Z M 58.4 2.2 L 58.4 3.5 L 57.2 3.5 L 57.2 2.2 L 58.4 2.2 Z M 58.4 7.2 L 57.2 7.2 L 57.2 5.9 L 58.4 5.9 L 58.4 7.2 Z M 63.5 0 L 64.7 0 L 67.1 7.2 L 66 7.2 L 65.5 5.5 L 62.7 5.5 L 62.2 7.2 L 61.2 7.2 L 63.5 0 Z M 64.1 0.9 L 64.1 0.9 L 62.9 4.7 L 65.3 4.7 L 64.1 0.9 Z M 68 7.2 L 68 0 L 71.7 0 L 71.7 0.8 L 68.9 0.8 L 68.9 3.1 L 71.5 3.1 L 71.5 3.9 L 68.9 3.9 L 68.9 6.4 L 71.8 6.4 L 71.8 7.2 L 68 7.2 Z M 72.8 4.1 L 75 4.1 L 75 4.9 L 72.8 4.9 L 72.8 4.1 Z M 79.9 4.6 C 79.9 4.6 79.9 2.2 79.9 2.2 C 79.9 0.7 78.8 0.6 78.5 0.6 C 78.2 0.6 77.2 0.7 77.2 2.2 C 77.2 2.2 77.2 4.6 77.2 4.6 C 77.2 5.8 77.5 6.5 78.5 6.5 C 79.6 6.5 79.9 5.8 79.9 4.6 Z M 76.3 2.2 C 76.3 0.8 77 -0.1 78.5 -0.1 C 80.1 -0.1 80.8 0.8 80.8 2.2 C 80.8 2.2 80.8 4.6 80.8 4.6 C 80.8 5.1 80.6 6.4 80.2 6.6 C 80.2 6.6 80.2 6.6 80.2 6.6 C 80.3 6.6 80.7 6.4 80.8 6.4 C 80.82 6.44 81.5 6.4 81.5 6.4 L 81.5 7.2 C 81.5 7.2 78.54 7.24 78.5 7.2 C 77.6 7.2 76.3 7.2 76.3 4.6 C 76.3 4.6 76.3 2.2 76.3 2.2 Z M 85.2 4.4 C 85.2 3.1 84.8 2.8 84.1 2.8 C 83.5 2.8 83.1 3.1 83.1 4.4 C 83.1 6.1 83.3 6.7 84.1 6.7 C 85 6.7 85.2 6.1 85.2 4.4 Z M 82.2 4.8 C 82.2 3.3 82.4 2.1 84.1 2.1 C 85.9 2.1 86.1 3.3 86.1 4.8 C 86.1 7 85.2 7.3 84.1 7.3 C 83.1 7.3 82.2 7 82.2 4.8 Z M 87.5 7.2 L 87.5 0 L 88.4 0 L 88.4 6.4 L 91 6.4 L 91 7.2 L 87.5 7.2 Z M 91.9 6.2 L 93 6.2 L 92.1 8.5 L 91.4 8.5 L 91.9 6.2 Z M 98 0 L 99.1 0 L 101.5 7.2 L 100.5 7.2 L 99.9 5.5 L 97.1 5.5 L 96.6 7.2 L 95.7 7.2 L 98 0 Z M 98.5 0.9 L 98.5 0.9 L 97.4 4.7 L 99.7 4.7 L 98.5 0.9 Z M 105.1 7.2 C 105.1 7.2 105.1 3.74 105.1 3.7 C 105.1 3.2 104.9 2.8 104.2 2.8 C 103.3 2.8 103.2 3.6 103.2 4.2 C 103.18 4.25 103.2 7.2 103.2 7.2 L 102.4 7.2 C 102.4 7.2 102.36 3.24 102.4 3.2 C 102.4 2.9 102.3 2.5 102.3 2.2 C 102.31 2.19 103.2 2.2 103.2 2.2 L 103.2 2.8 C 103.2 2.8 103.22 2.84 103.2 2.8 C 103.5 2.3 103.9 2.1 104.6 2.1 C 105.6 2.1 105.9 2.7 105.9 3.7 C 105.92 3.74 105.9 7.2 105.9 7.2 L 105.1 7.2 Z M 109.1 2.8 C 108.1 2.8 108.1 3.9 108.1 4.6 C 108.1 6.2 108.5 6.6 109.1 6.6 C 110.1 6.6 110 5.4 110 4.7 C 110 3.9 110.1 2.8 109.1 2.8 Z M 110 2.2 L 110.8 2.2 C 110.8 2.2 110.85 7.75 110.8 7.7 C 110.8 8.9 110.1 9.1 109 9.1 C 108.1 9.1 107.4 8.7 107.5 7.8 C 107.5 7.8 108.4 7.8 108.4 7.8 C 108.4 8.3 108.7 8.5 109.1 8.5 C 109.7 8.5 110 8.2 110 7.7 C 110.03 7.66 110 6.6 110 6.6 C 110 6.6 110 6.61 110 6.6 C 109.8 7 109.3 7.2 108.9 7.2 C 107.5 7.2 107.2 6.1 107.2 4.6 C 107.2 2.2 108.4 2.1 108.8 2.1 C 109.4 2.1 109.8 2.3 110 2.8 C 110.01 2.81 110 2.8 110 2.8 L 110 2.2 Z M 113.2 7.2 L 112.3 7.2 L 112.3 2.2 L 113.2 2.2 L 113.2 7.2 Z M 112.3 0 L 113.2 0 L 113.2 0.9 L 112.3 0.9 L 112.3 0 Z M 117.4 4.4 C 117.4 3.1 117 2.8 116.4 2.8 C 115.7 2.8 115.3 3.1 115.3 4.4 C 115.3 6.1 115.5 6.7 116.4 6.7 C 117.2 6.7 117.4 6.1 117.4 4.4 Z M 114.4 4.8 C 114.4 3.3 114.6 2.1 116.4 2.1 C 118.1 2.1 118.3 3.3 118.3 4.8 C 118.3 7 117.4 7.3 116.4 7.3 C 115.3 7.3 114.4 7 114.4 4.8 Z M 122.3 4.4 C 122.3 2.9 121.9 2.7 121.3 2.7 C 120.8 2.7 120.4 3 120.4 4.4 C 120.4 4.4 122.3 4.4 122.3 4.4 Z M 120.4 5 C 120.4 6.4 120.8 6.7 121.4 6.7 C 122 6.7 122.2 6.2 122.3 5.7 C 122.3 5.7 123.2 5.7 123.2 5.7 C 123.2 6.8 122.5 7.3 121.4 7.3 C 120.3 7.3 119.5 7 119.5 4.8 C 119.5 3.3 119.7 2.1 121.4 2.1 C 122.9 2.1 123.2 2.9 123.2 4.6 C 123.22 4.55 123.2 5 123.2 5 C 123.2 5 120.38 4.98 120.4 5 Z M 126.3 2.8 C 125.4 2.8 125.3 3.5 125.3 4.8 C 125.3 5.6 125.3 6.7 126.3 6.7 C 127.2 6.7 127.2 5.5 127.2 4.5 C 127.2 3.8 127.2 2.8 126.3 2.8 Z M 127.2 0 L 128.1 0 L 128.1 7.2 L 127.2 7.2 L 127.2 6.6 C 127.2 6.6 127.23 6.64 127.2 6.6 C 126.9 7.1 126.6 7.3 126.1 7.3 C 125.3 7.3 124.4 7 124.4 4.8 C 124.4 3.5 124.5 2.1 126.1 2.1 C 126.6 2.1 126.9 2.3 127.2 2.7 C 127.22 2.7 127.2 2.7 127.2 2.7 L 127.2 0 Z M 132.3 4.4 C 132.3 2.9 131.9 2.7 131.3 2.7 C 130.8 2.7 130.4 3 130.4 4.4 C 130.4 4.4 132.3 4.4 132.3 4.4 Z M 130.4 5 C 130.4 6.4 130.8 6.7 131.4 6.7 C 132 6.7 132.2 6.2 132.3 5.7 C 132.3 5.7 133.2 5.7 133.2 5.7 C 133.2 6.8 132.5 7.3 131.4 7.3 C 130.3 7.3 129.5 7 129.5 4.8 C 129.5 3.3 129.7 2.1 131.4 2.1 C 132.9 2.1 133.2 2.9 133.2 4.6 C 133.22 4.55 133.2 5 133.2 5 C 133.2 5 130.38 4.98 130.4 5 Z M 137.1 7.2 C 137.1 7.2 137.06 3.74 137.1 3.7 C 137.1 3.2 136.9 2.8 136.3 2.8 C 136 2.8 135.7 2.9 135.5 3.1 C 135.4 3.3 135.4 3.6 135.4 3.8 C 135.36 3.84 135.4 7.2 135.4 7.2 L 134.5 7.2 C 134.5 7.2 134.54 3.24 134.5 3.2 C 134.5 2.9 134.5 2.5 134.5 2.2 C 134.49 2.19 135.4 2.2 135.4 2.2 L 135.4 2.8 C 135.4 2.8 135.38 2.82 135.4 2.8 C 135.6 2.3 136 2.1 136.6 2.1 C 137.1 2.1 137.6 2.3 137.8 2.7 C 138.1 2.2 138.6 2.1 139 2.1 C 139.5 2.1 140.4 2.2 140.4 3.4 C 140.4 3.4 140.4 7.2 140.4 7.2 L 139.6 7.2 C 139.6 7.2 139.58 3.74 139.6 3.7 C 139.6 3.2 139.4 2.8 138.8 2.8 C 138.5 2.8 138.4 2.8 138.2 2.9 C 137.9 3.1 137.9 3.6 137.9 3.8 C 137.88 3.84 137.9 7.2 137.9 7.2 L 137.1 7.2 Z M 142.5 5.7 C 142.5 6.2 142.8 6.7 143.3 6.7 C 143.8 6.7 144.5 6.4 144.4 4.7 C 143.6 4.7 142.5 4.7 142.5 5.7 Z M 144.4 6.5 C 144.4 6.5 144.38 6.51 144.4 6.5 C 144.1 7.1 143.7 7.3 143.1 7.3 C 142 7.3 141.7 6.7 141.7 5.7 C 141.7 4.2 143.2 4.1 144.4 4.1 C 144.4 3.4 144.4 2.7 143.5 2.7 C 143 2.7 142.7 3.1 142.7 3.6 C 142.7 3.6 141.8 3.6 141.8 3.6 C 141.9 2.5 142.5 2.1 143.6 2.1 C 144.9 2.1 145.2 2.8 145.2 3.6 C 145.2 3.6 145.2 6 145.2 6 C 145.2 6.4 145.2 6.8 145.3 7.2 C 145.3 7.24 144.4 7.2 144.4 7.2 L 144.4 6.5 Z M 152.6 4.6 C 152.6 4.6 152.6 2.2 152.6 2.2 C 152.6 0.7 151.6 0.6 151.3 0.6 C 151 0.6 150 0.7 150 2.2 C 150 2.2 150 4.6 150 4.6 C 150 5.8 150.2 6.5 151.3 6.5 C 152.4 6.5 152.6 5.8 152.6 4.6 Z M 149 2.2 C 149 0.8 149.8 -0.1 151.3 -0.1 C 152.8 -0.1 153.6 0.8 153.6 2.2 C 153.6 2.2 153.6 4.6 153.6 4.6 C 153.6 5.1 153.3 6.4 152.9 6.6 C 152.9 6.6 152.9 6.6 152.9 6.6 C 153.1 6.6 153.4 6.4 153.6 6.4 C 153.58 6.44 154.3 6.4 154.3 6.4 L 154.3 7.2 C 154.3 7.2 151.3 7.24 151.3 7.2 C 150.3 7.2 149 7.2 149 4.6 C 149 4.6 149 2.2 149 2.2 Z M 157.8 2.2 L 158.6 2.2 C 158.6 2.2 158.65 6.19 158.6 6.2 C 158.6 6.5 158.7 6.9 158.7 7.2 C 158.7 7.24 157.8 7.2 157.8 7.2 L 157.8 6.6 C 157.8 6.6 157.8 6.63 157.8 6.6 C 157.5 7.1 157 7.3 156.5 7.3 C 155.6 7.3 155.2 6.9 155.2 6 C 155.16 6.04 155.2 2.2 155.2 2.2 L 156 2.2 C 156 2.2 155.98 5.69 156 5.7 C 156 6.3 156.3 6.7 156.8 6.7 C 157.3 6.7 157.8 6.4 157.8 5.5 C 157.83 5.54 157.8 2.2 157.8 2.2 Z M 160.9 5.7 C 160.9 6.2 161.1 6.7 161.7 6.7 C 162.2 6.7 162.8 6.4 162.7 4.7 C 161.9 4.7 160.9 4.7 160.9 5.7 Z M 162.7 6.5 C 162.7 6.5 162.71 6.51 162.7 6.5 C 162.5 7.1 162.1 7.3 161.4 7.3 C 160.4 7.3 160.1 6.7 160.1 5.7 C 160.1 4.2 161.6 4.1 162.7 4.1 C 162.7 3.4 162.7 2.7 161.9 2.7 C 161.3 2.7 161 3.1 161.1 3.6 C 161.1 3.6 160.2 3.6 160.2 3.6 C 160.2 2.5 160.8 2.1 161.9 2.1 C 163.2 2.1 163.5 2.8 163.5 3.6 C 163.5 3.6 163.5 6 163.5 6 C 163.5 6.4 163.6 6.8 163.6 7.2 C 163.63 7.24 162.7 7.2 162.7 7.2 L 162.7 6.5 Z M 165.9 7.2 L 165.1 7.2 L 165.1 0 L 165.9 0 L 165.9 7.2 Z M 168.1 7.2 L 167.3 7.2 L 167.3 2.2 L 168.1 2.2 L 168.1 7.2 Z M 167.3 0 L 168.2 0 L 168.2 0.9 L 167.3 0.9 L 167.3 0 Z M 169.7 2.2 L 169.7 1.2 L 170.5 0.9 L 170.5 2.2 L 171.6 2.2 L 171.6 2.8 L 170.5 2.8 C 170.5 2.8 170.48 5.9 170.5 5.9 C 170.5 6.2 170.5 6.6 171.2 6.6 C 171.3 6.6 171.4 6.6 171.6 6.6 C 171.6 6.6 171.6 7.2 171.6 7.2 C 171.3 7.2 171.1 7.3 170.8 7.3 C 170 7.3 169.7 7 169.7 6.4 C 169.66 6.4 169.7 2.8 169.7 2.8 L 168.8 2.8 L 168.8 2.2 L 169.7 2.2 Z M 173.9 6.3 L 173.9 6.3 L 175.1 2.2 L 176 2.2 L 173.7 9.1 L 172.8 9.1 L 173.4 7.2 L 171.7 2.2 L 172.7 2.2 L 173.9 6.3 Z M 181.8 4.4 C 181.8 3.1 181.4 2.8 180.8 2.8 C 180.2 2.8 179.7 3.1 179.7 4.4 C 179.7 6.1 179.9 6.7 180.8 6.7 C 181.6 6.7 181.8 6.1 181.8 4.4 Z M 178.9 4.8 C 178.9 3.3 179 2.1 180.8 2.1 C 182.5 2.1 182.7 3.3 182.7 4.8 C 182.7 7 181.9 7.3 180.8 7.3 C 179.7 7.3 178.9 7 178.9 4.8 Z M 184.2 2.2 C 184.2 2.2 184.16 1.21 184.2 1.2 C 184.2 0.2 184.9 0 185.6 0 C 185.8 0 185.9 0 186 0 C 186 0 186 0.6 186 0.6 C 185.1 0.5 185 0.9 185 1.3 C 184.98 1.33 185 2.2 185 2.2 L 186 2.2 L 186 2.8 L 185 2.8 L 185 7.2 L 184.2 7.2 L 184.2 2.8 L 183.4 2.8 L 183.4 2.2 L 184.2 2.2 Z M 189.1 7.2 L 189.1 0 L 190 0 L 190 6.4 L 192.7 6.4 L 192.7 7.2 L 189.1 7.2 Z M 194.2 7.2 L 193.4 7.2 L 193.4 2.2 L 194.2 2.2 L 194.2 7.2 Z M 193.4 0 L 194.3 0 L 194.3 0.9 L 193.4 0.9 L 193.4 0 Z M 195.8 2.2 C 195.8 2.2 195.82 1.21 195.8 1.2 C 195.8 0.2 196.5 0 197.3 0 C 197.4 0 197.5 0 197.7 0 C 197.7 0 197.7 0.6 197.7 0.6 C 196.8 0.5 196.6 0.9 196.6 1.3 C 196.64 1.33 196.6 2.2 196.6 2.2 L 197.7 2.2 L 197.7 2.8 L 196.6 2.8 L 196.6 7.2 L 195.8 7.2 L 195.8 2.8 L 195 2.8 L 195 2.2 L 195.8 2.2 Z M 201.2 4.4 C 201.2 2.9 200.8 2.7 200.2 2.7 C 199.7 2.7 199.3 3 199.2 4.4 C 199.2 4.4 201.2 4.4 201.2 4.4 Z M 199.2 5 C 199.2 6.4 199.6 6.7 200.3 6.7 C 200.8 6.7 201.1 6.2 201.1 5.7 C 201.1 5.7 202 5.7 202 5.7 C 202 6.8 201.3 7.3 200.3 7.3 C 199.2 7.3 198.4 7 198.4 4.8 C 198.4 3.3 198.5 2.1 200.3 2.1 C 201.7 2.1 202.1 2.9 202.1 4.6 C 202.09 4.55 202.1 5 202.1 5 C 202.1 5 199.25 4.98 199.2 5 Z M 209.3 4.6 C 209.3 4.6 209.3 2.2 209.3 2.2 C 209.3 0.7 208.2 0.6 207.9 0.6 C 207.6 0.6 206.6 0.7 206.6 2.2 C 206.6 2.2 206.6 4.6 206.6 4.6 C 206.6 5.8 206.9 6.5 207.9 6.5 C 209 6.5 209.3 5.8 209.3 4.6 Z M 205.7 2.2 C 205.7 0.8 206.4 -0.1 207.9 -0.1 C 209.5 -0.1 210.2 0.8 210.2 2.2 C 210.2 2.2 210.2 4.6 210.2 4.6 C 210.2 5.1 210 6.4 209.6 6.6 C 209.6 6.6 209.6 6.6 209.6 6.6 C 209.7 6.6 210.1 6.4 210.2 6.4 C 210.23 6.44 210.9 6.4 210.9 6.4 L 210.9 7.2 C 210.9 7.2 207.95 7.24 207.9 7.2 C 207 7.2 205.7 7.2 205.7 4.6 C 205.7 4.6 205.7 2.2 205.7 2.2 Z M 214.5 2.2 L 215.3 2.2 C 215.3 2.2 215.3 6.19 215.3 6.2 C 215.3 6.5 215.3 6.9 215.3 7.2 C 215.35 7.24 214.5 7.2 214.5 7.2 L 214.5 6.6 C 214.5 6.6 214.45 6.63 214.4 6.6 C 214.2 7.1 213.7 7.3 213.2 7.3 C 212.3 7.3 211.8 6.9 211.8 6 C 211.81 6.04 211.8 2.2 211.8 2.2 L 212.6 2.2 C 212.6 2.2 212.63 5.69 212.6 5.7 C 212.6 6.3 212.9 6.7 213.5 6.7 C 213.9 6.7 214.5 6.4 214.5 5.5 C 214.48 5.54 214.5 2.2 214.5 2.2 Z M 219.5 4.4 C 219.5 2.9 219.1 2.7 218.5 2.7 C 218 2.7 217.6 3 217.6 4.4 C 217.6 4.4 219.5 4.4 219.5 4.4 Z M 217.6 5 C 217.6 6.4 218 6.7 218.6 6.7 C 219.2 6.7 219.4 6.2 219.5 5.7 C 219.5 5.7 220.4 5.7 220.4 5.7 C 220.4 6.8 219.7 7.3 218.6 7.3 C 217.5 7.3 216.7 7 216.7 4.8 C 216.7 3.3 216.9 2.1 218.6 2.1 C 220.1 2.1 220.4 2.9 220.4 4.6 C 220.42 4.55 220.4 5 220.4 5 C 220.4 5 217.58 4.98 217.6 5 Z M 223.3 7.3 C 222.2 7.3 221.5 6.9 221.5 5.7 C 221.5 5.7 222.5 5.7 222.5 5.7 C 222.5 6 222.5 6.7 223.3 6.7 C 223.8 6.7 224.2 6.4 224.2 5.9 C 224.2 5 221.6 5 221.6 3.5 C 221.6 2.9 222 2.1 223.4 2.1 C 224.3 2.1 225.1 2.5 225 3.5 C 225 3.5 224.1 3.5 224.1 3.5 C 224.1 3 223.8 2.7 223.3 2.7 C 222.8 2.7 222.5 2.9 222.5 3.4 C 222.5 4.3 225 4.3 225 5.8 C 225 6.9 224.3 7.3 223.3 7.3 Z M 226.3 2.2 L 226.3 1.2 L 227.1 0.9 L 227.1 2.2 L 228.2 2.2 L 228.2 2.8 L 227.1 2.8 C 227.1 2.8 227.13 5.9 227.1 5.9 C 227.1 6.2 227.1 6.6 227.9 6.6 C 227.9 6.6 228.1 6.6 228.2 6.6 C 228.2 6.6 228.2 7.2 228.2 7.2 C 228 7.2 227.7 7.3 227.4 7.3 C 226.7 7.3 226.3 7 226.3 6.4 C 226.31 6.4 226.3 2.8 226.3 2.8 L 225.5 2.8 L 225.5 2.2 L 226.3 2.2 Z M 229.8 7.2 L 229 7.2 L 229 2.2 L 229.8 2.2 L 229.8 7.2 Z M 228.9 0 L 229.8 0 L 229.8 0.9 L 228.9 0.9 L 228.9 0 Z M 234.1 4.4 C 234.1 3.1 233.6 2.8 233 2.8 C 232.4 2.8 231.9 3.1 231.9 4.4 C 231.9 6.1 232.1 6.7 233 6.7 C 233.8 6.7 234.1 6.1 234.1 4.4 Z M 231.1 4.8 C 231.1 3.3 231.2 2.1 233 2.1 C 234.7 2.1 234.9 3.3 234.9 4.8 C 234.9 7 234.1 7.3 233 7.3 C 231.9 7.3 231.1 7 231.1 4.8 Z M 239 7.2 C 239 7.2 238.96 3.74 239 3.7 C 239 3.2 238.8 2.8 238.1 2.8 C 237.2 2.8 237 3.6 237 4.2 C 237.04 4.25 237 7.2 237 7.2 L 236.2 7.2 C 236.2 7.2 236.22 3.24 236.2 3.2 C 236.2 2.9 236.2 2.5 236.2 2.2 C 236.17 2.19 237 2.2 237 2.2 L 237 2.8 C 237 2.8 237.08 2.84 237.1 2.8 C 237.4 2.3 237.8 2.1 238.4 2.1 C 239.5 2.1 239.8 2.7 239.8 3.7 C 239.78 3.74 239.8 7.2 239.8 7.2 L 239 7.2 Z M 244 7.2 C 244 7.2 243.96 3.74 244 3.7 C 244 3.2 243.8 2.8 243.1 2.8 C 242.2 2.8 242 3.6 242 4.2 C 242.04 4.25 242 7.2 242 7.2 L 241.2 7.2 C 241.2 7.2 241.22 3.24 241.2 3.2 C 241.2 2.9 241.2 2.5 241.2 2.2 C 241.17 2.19 242 2.2 242 2.2 L 242 2.8 C 242 2.8 242.08 2.84 242.1 2.8 C 242.4 2.3 242.8 2.1 243.4 2.1 C 244.5 2.1 244.8 2.7 244.8 3.7 C 244.78 3.74 244.8 7.2 244.8 7.2 L 244 7.2 Z M 247 5.7 C 247 6.2 247.2 6.7 247.8 6.7 C 248.3 6.7 248.9 6.4 248.8 4.7 C 248 4.7 247 4.7 247 5.7 Z M 248.8 6.5 C 248.8 6.5 248.8 6.51 248.8 6.5 C 248.5 7.1 248.2 7.3 247.5 7.3 C 246.5 7.3 246.1 6.7 246.1 5.7 C 246.1 4.2 247.6 4.1 248.8 4.1 C 248.8 3.4 248.8 2.7 247.9 2.7 C 247.4 2.7 247.1 3.1 247.2 3.6 C 247.2 3.6 246.3 3.6 246.3 3.6 C 246.3 2.5 246.9 2.1 248 2.1 C 249.3 2.1 249.6 2.8 249.6 3.6 C 249.6 3.6 249.6 6 249.6 6 C 249.6 6.4 249.7 6.8 249.7 7.2 C 249.72 7.24 248.8 7.2 248.8 7.2 L 248.8 6.5 Z M 252 7.2 L 251.2 7.2 L 251.2 2.2 L 252 2.2 L 252 7.2 Z M 251.1 0 L 252.1 0 L 252.1 0.9 L 251.1 0.9 L 251.1 0 Z M 254.3 2.9 C 254.3 2.9 254.31 2.95 254.3 2.9 C 254.6 2.2 255.1 2.1 255.9 2.1 C 255.9 2.1 255.9 2.9 255.9 2.9 C 255.8 2.9 255.7 2.9 255.6 2.9 C 255.6 2.9 255.5 2.9 255.4 2.9 C 254.5 2.9 254.3 3.6 254.3 4.3 C 254.29 4.26 254.3 7.2 254.3 7.2 L 253.5 7.2 L 253.5 2.2 L 254.3 2.2 L 254.3 2.9 Z M 259.5 4.4 C 259.5 2.9 259.1 2.7 258.5 2.7 C 258 2.7 257.6 3 257.6 4.4 C 257.6 4.4 259.5 4.4 259.5 4.4 Z M 257.6 5 C 257.6 6.4 257.9 6.7 258.6 6.7 C 259.1 6.7 259.4 6.2 259.5 5.7 C 259.5 5.7 260.4 5.7 260.4 5.7 C 260.4 6.8 259.7 7.3 258.6 7.3 C 257.5 7.3 256.7 7 256.7 4.8 C 256.7 3.3 256.9 2.1 258.6 2.1 C 260 2.1 260.4 2.9 260.4 4.6 C 260.41 4.55 260.4 5 260.4 5 C 260.4 5 257.57 4.98 257.6 5 Z M 261.9 6.2 L 262.9 6.2 L 262 8.5 L 261.4 8.5 L 261.9 6.2 Z M 262.6 3.2 L 261.7 3.2 L 261.7 2.2 L 262.6 2.2 L 262.6 3.2 Z M 267.2 7.2 L 266.3 7.2 L 266.3 0 L 267.8 0 L 269.6 6.1 L 269.6 6.1 L 271.5 0 L 273 0 L 273 7.2 L 272.1 7.2 L 272.1 0.8 L 272.1 0.8 L 270 7.2 L 269.2 7.2 L 267.2 0.8 L 267.2 0.8 L 267.2 7.2 Z M 277.8 2 C 277.8 1.6 277.8 1.2 277.6 1 C 277.4 0.7 277 0.6 276.8 0.6 C 276 0.6 275.7 1.1 275.7 1.2 C 275.7 1.3 275.5 1.5 275.5 2.7 C 275.5 2.7 275.5 4.6 275.5 4.6 C 275.5 6.4 276.1 6.6 276.8 6.6 C 277.1 6.6 277.9 6.5 277.9 5.1 C 277.9 5.1 278.9 5.1 278.9 5.1 C 278.9 7.4 277.3 7.4 276.8 7.4 C 275.9 7.4 274.5 7.3 274.5 4.5 C 274.5 4.5 274.5 2.5 274.5 2.5 C 274.5 0.4 275.4 -0.1 276.9 -0.1 C 278.3 -0.1 278.8 0.6 278.8 2 C 278.8 2 277.8 2 277.8 2 Z M 281.2 7.2 L 280.3 7.2 L 280.3 0 L 281.2 0 L 281.2 7.2 Z M 283.9 6.4 C 283.9 6.4 284.78 6.44 284.8 6.4 C 286.1 6.4 286.5 6 286.5 4.3 C 286.5 4.3 286.5 2.8 286.5 2.8 C 286.5 1.4 286.1 0.8 285.1 0.8 C 285.12 0.82 283.9 0.8 283.9 0.8 L 283.9 6.4 Z M 283 0 C 283 0 285.21 0.02 285.2 0 C 286.1 0 286.8 0.4 287.1 1.1 C 287.4 1.7 287.5 3.2 287.5 3.4 C 287.5 4.9 287.3 5.8 287 6.3 C 286.6 6.9 285.9 7.2 284.6 7.2 C 284.65 7.24 283 7.2 283 7.2 L 283 0 Z M 289.1 6.2 L 290.2 6.2 L 289.2 8.5 L 288.6 8.5 L 289.1 6.2 Z M 295.9 7.2 C 295.9 7.2 295.91 3.74 295.9 3.7 C 295.9 3.2 295.8 2.8 295.1 2.8 C 294.9 2.8 294.5 2.9 294.4 3.1 C 294.2 3.3 294.2 3.6 294.2 3.8 C 294.2 3.84 294.2 7.2 294.2 7.2 L 293.4 7.2 C 293.4 7.2 293.39 3.24 293.4 3.2 C 293.4 2.9 293.4 2.5 293.3 2.2 C 293.34 2.19 294.2 2.2 294.2 2.2 L 294.2 2.8 C 294.2 2.8 294.22 2.82 294.2 2.8 C 294.5 2.3 294.9 2.1 295.5 2.1 C 295.9 2.1 296.5 2.3 296.7 2.7 C 296.9 2.2 297.4 2.1 297.9 2.1 C 298.4 2.1 299.2 2.2 299.2 3.4 C 299.24 3.4 299.2 7.2 299.2 7.2 L 298.4 7.2 C 298.4 7.2 298.43 3.74 298.4 3.7 C 298.4 3.2 298.3 2.8 297.6 2.8 C 297.3 2.8 297.2 2.8 297 2.9 C 296.8 3.1 296.7 3.6 296.7 3.8 C 296.72 3.84 296.7 7.2 296.7 7.2 L 295.9 7.2 Z M 301.4 7.2 L 300.6 7.2 L 300.6 2.2 L 301.4 2.2 L 301.4 7.2 Z M 300.6 0 L 301.5 0 L 301.5 0.9 L 300.6 0.9 L 300.6 0 Z M 305.6 7.2 C 305.6 7.2 305.61 3.74 305.6 3.7 C 305.6 3.2 305.4 2.8 304.7 2.8 C 303.8 2.8 303.7 3.6 303.7 4.2 C 303.68 4.25 303.7 7.2 303.7 7.2 L 302.9 7.2 C 302.9 7.2 302.87 3.24 302.9 3.2 C 302.9 2.9 302.8 2.5 302.8 2.2 C 302.82 2.19 303.7 2.2 303.7 2.2 L 303.7 2.8 C 303.7 2.8 303.72 2.84 303.7 2.8 C 304 2.3 304.4 2.1 305.1 2.1 C 306.2 2.1 306.4 2.7 306.4 3.7 C 306.42 3.74 306.4 7.2 306.4 7.2 L 305.6 7.2 Z M 308.7 7.2 L 307.8 7.2 L 307.8 2.2 L 308.7 2.2 L 308.7 7.2 Z M 307.8 0 L 308.7 0 L 308.7 0.9 L 307.8 0.9 L 307.8 0 Z M 309.9 4.1 L 312.1 4.1 L 312.1 4.9 L 309.9 4.9 L 309.9 4.1 Z " stroke="none" fill="#555555"/>  </g></svg>