<?xml version="1.0" standalone="no"?><!DOCTYPE svg PUBLIC "-//W3C//DTD SVG 1.1//EN" "http://www.w3.org/Graphics/SVG/1.1/DTD/svg11.dtd"><svg xmlns="http://www.w3.org/2000/svg" version="1.1" width="152px" height="39px" viewBox="0 -1 152 39" style="top:-1px">  <desc>Convenience</desc>  <defs/>  <g id="Polygon191303">    <path d="M 40.9 12.8 C 40.9 11 41.5 9.4 44 9.4 C 45.7 9.4 46.6 10.3 46.6 11.8 C 46.57 11.77 46.6 13.1 46.6 13.1 L 44.9 13.1 C 44.9 13.1 44.88 12.17 44.9 12.2 C 44.9 11.3 44.6 10.8 43.8 10.8 C 42.9 10.8 42.7 11.5 42.7 13 C 42.7 13 42.7 19.4 42.7 19.4 C 42.7 21 43.2 21.2 43.8 21.2 C 44.4 21.2 44.9 20.8 44.9 19.7 C 44.88 19.67 44.9 18.8 44.9 18.8 L 46.6 18.8 C 46.6 18.8 46.57 20.21 46.6 20.2 C 46.6 21.6 46 22.6 43.9 22.6 C 41.7 22.6 40.9 21.4 40.9 19.4 C 40.9 19.4 40.9 12.8 40.9 12.8 Z M 49.2 19.5 C 49.2 20.6 49.7 21.2 50.4 21.2 C 51.2 21.2 51.7 20.6 51.7 19.5 C 51.7 19.5 51.7 12.7 51.7 12.7 C 51.7 11.4 51.3 10.8 50.4 10.8 C 49.6 10.8 49.2 11.4 49.2 12.7 C 49.2 12.7 49.2 19.5 49.2 19.5 Z M 47.4 12.8 C 47.4 11 48 9.4 50.4 9.4 C 52.8 9.4 53.5 10.6 53.5 12.6 C 53.5 12.6 53.5 19.2 53.5 19.2 C 53.5 21 52.9 22.6 50.4 22.6 C 48.1 22.6 47.4 21.4 47.4 19.4 C 47.4 19.4 47.4 12.8 47.4 12.8 Z M 54.8 9.5 L 57.3 9.5 L 59.4 20.3 L 59.4 20.3 L 59.4 9.5 L 61.1 9.5 L 61.1 22.5 L 58.5 22.5 L 56.4 11.4 L 56.4 11.4 L 56.4 22.5 L 54.8 22.5 L 54.8 9.5 Z M 61.9 9.5 L 63.7 9.5 L 65.6 19.9 L 65.6 19.9 L 67.5 9.5 L 69.3 9.5 L 66.7 22.5 L 64.6 22.5 L 61.9 9.5 Z M 70.1 9.5 L 75 9.5 L 75 11 L 71.9 11 L 71.9 15.1 L 74.8 15.1 L 74.8 16.6 L 71.9 16.6 L 71.9 21 L 75 21 L 75 22.5 L 70.1 22.5 L 70.1 9.5 Z M 75.8 9.5 L 78.3 9.5 L 80.4 20.3 L 80.4 20.3 L 80.4 9.5 L 82.1 9.5 L 82.1 22.5 L 79.5 22.5 L 77.4 11.4 L 77.4 11.4 L 77.4 22.5 L 75.8 22.5 L 75.8 9.5 Z M 83.4 9.5 L 85.2 9.5 L 85.2 22.5 L 83.4 22.5 L 83.4 9.5 Z M 86.5 9.5 L 91.4 9.5 L 91.4 11 L 88.3 11 L 88.3 15.1 L 91.2 15.1 L 91.2 16.6 L 88.3 16.6 L 88.3 21 L 91.4 21 L 91.4 22.5 L 86.5 22.5 L 86.5 9.5 Z M 92.1 9.5 L 94.6 9.5 L 96.8 20.3 L 96.8 20.3 L 96.8 9.5 L 98.5 9.5 L 98.5 22.5 L 95.9 22.5 L 93.8 11.4 L 93.7 11.4 L 93.7 22.5 L 92.1 22.5 L 92.1 9.5 Z M 99.6 12.8 C 99.6 11 100.2 9.4 102.7 9.4 C 104.4 9.4 105.3 10.3 105.3 11.8 C 105.26 11.77 105.3 13.1 105.3 13.1 L 103.6 13.1 C 103.6 13.1 103.57 12.17 103.6 12.2 C 103.6 11.3 103.3 10.8 102.5 10.8 C 101.6 10.8 101.4 11.5 101.4 13 C 101.4 13 101.4 19.4 101.4 19.4 C 101.4 21 101.9 21.2 102.5 21.2 C 103.1 21.2 103.6 20.8 103.6 19.7 C 103.57 19.67 103.6 18.8 103.6 18.8 L 105.3 18.8 C 105.3 18.8 105.26 20.21 105.3 20.2 C 105.3 21.6 104.7 22.6 102.6 22.6 C 100.4 22.6 99.6 21.4 99.6 19.4 C 99.6 19.4 99.6 12.8 99.6 12.8 Z M 106.1 9.5 L 111 9.5 L 111 11 L 107.9 11 L 107.9 15.1 L 110.9 15.1 L 110.9 16.6 L 107.9 16.6 L 107.9 21 L 111 21 L 111 22.5 L 106.1 22.5 L 106.1 9.5 Z " stroke="none" fill="#fff"/>  </g></svg>