<?xml version="1.0" standalone="no"?><!DOCTYPE svg PUBLIC "-//W3C//DTD SVG 1.1//EN" "http://www.w3.org/Graphics/SVG/1.1/DTD/svg11.dtd"><svg xmlns="http://www.w3.org/2000/svg" version="1.1" width="424px" height="94.7px" viewBox="0 -1 424 94.7" style="top:-1px">  <desc>89% mean monthly attack reduction vs placebo2 †</desc>  <defs/>  <g id="Polygon191768">    <path d="M 2.7 47 C 2.7 47.7 2.9 48.6 3.8 48.6 C 4.7 48.6 4.8 47.7 4.8 47 C 4.8 46.3 4.8 44.9 3.8 44.9 C 2.7 44.9 2.7 46.3 2.7 47 Z M 2.8 41.5 C 2.8 42.1 2.9 43.1 3.8 43.1 C 4.6 43.1 4.7 42.1 4.7 41.5 C 4.7 40.9 4.6 39.9 3.8 39.9 C 2.9 39.9 2.8 40.9 2.8 41.5 Z M 0.3 47.2 C 0.3 45.7 0.6 44.5 2.1 44 C 2.1 44 2.1 43.9 2.1 43.9 C 0.7 43.6 0.4 42.6 0.4 41.4 C 0.4 39.2 1.6 38.2 3.8 38.2 C 6 38.2 7.1 39.2 7.1 41.4 C 7.1 42.6 6.8 43.6 5.5 43.9 C 5.5 43.9 5.5 44 5.5 44 C 7 44.5 7.2 45.7 7.2 47.2 C 7.2 49.4 6 50.4 3.8 50.4 C 1.5 50.4 0.3 49.4 0.3 47.2 Z M 11.3 44 C 12.3 44 12.4 42.6 12.4 41.9 C 12.4 41.2 12.3 39.8 11.3 39.8 C 10.3 39.8 10.3 41.2 10.3 42 C 10.3 42.7 10.3 44 11.3 44 Z M 10.4 47.4 C 10.4 47.7 10.5 48.1 10.6 48.3 C 10.7 48.5 10.9 48.6 11.3 48.6 C 12.5 48.6 12.4 47.7 12.4 44.9 C 11.8 45.4 11.2 45.6 10.4 45.6 C 8.6 45.6 7.9 44 7.9 42.4 C 7.9 40.1 8.6 38.2 11.3 38.2 C 14.8 38.2 14.8 41 14.8 44.3 C 14.8 47.3 14.7 50.4 11.2 50.4 C 9.2 50.4 8 49.7 8 47.4 C 8 47.4 10.4 47.4 10.4 47.4 Z M 22.9 47.2 C 22.9 45.4 23.3 44 25.3 44 C 27.4 44 27.8 45.4 27.8 47.2 C 27.8 49.2 27.2 50.2 25.3 50.2 C 23.4 50.2 22.9 49.2 22.9 47.2 Z M 26.2 47 C 26.2 46.4 26.2 45.3 25.3 45.3 C 24.5 45.3 24.5 46.4 24.5 47 C 24.5 48.4 24.6 48.9 25.3 48.9 C 26.1 48.9 26.2 48.4 26.2 47 Z M 15.6 41.6 C 15.6 39.8 16 38.4 18.1 38.4 C 20.1 38.4 20.5 39.8 20.5 41.6 C 20.5 43.6 20 44.6 18.1 44.6 C 16.2 44.6 15.6 43.6 15.6 41.6 Z M 18.9 41.4 C 18.9 40.8 19 39.7 18.1 39.7 C 17.2 39.7 17.3 40.8 17.3 41.4 C 17.3 42.8 17.3 43.3 18.1 43.3 C 18.8 43.3 18.9 42.8 18.9 41.4 Z M 19.8 50.6 L 18.5 50.6 L 23.5 38.1 L 24.8 38.1 L 19.8 50.6 Z M 35.3 42.5 C 35.3 42.5 35.29 42.51 35.3 42.5 C 35.8 41.7 36.4 41.5 37.3 41.5 C 38.2 41.5 38.8 41.9 39.2 42.6 C 39.8 41.8 40.5 41.5 41.5 41.5 C 42.6 41.5 43.6 42.2 43.6 43.3 C 43.6 43.35 43.6 50.2 43.6 50.2 L 41.2 50.2 C 41.2 50.2 41.21 44.31 41.2 44.3 C 41.2 43.5 41.1 43 40.3 43 C 39.5 43 39.4 43.5 39.4 44.3 C 39.41 44.31 39.4 50.2 39.4 50.2 L 37.1 50.2 C 37.1 50.2 37.06 44.31 37.1 44.3 C 37.1 43.5 36.9 43 36.2 43 C 35.4 43 35.3 43.5 35.3 44.3 C 35.26 44.31 35.3 50.2 35.3 50.2 L 32.9 50.2 L 32.9 41.6 L 35.3 41.6 L 35.3 42.5 Z M 49.7 45 C 49.7 44.1 49.8 43 48.6 43 C 47.5 43 47.5 44.2 47.5 45 C 47.5 45 49.7 45 49.7 45 Z M 47.5 46.3 C 47.5 47.3 47.6 48.9 48.6 48.9 C 49.5 48.9 49.6 48.1 49.6 47.3 C 49.6 47.3 52.1 47.3 52.1 47.3 C 52 48.3 51.7 49 51.2 49.6 C 50.6 50.1 49.7 50.4 48.6 50.4 C 45.5 50.4 45.1 48.5 45.1 45.8 C 45.1 43.5 45.5 41.5 48.6 41.5 C 51.8 41.5 52.2 43.6 52.1 46.3 C 52.1 46.3 47.5 46.3 47.5 46.3 Z M 55.9 47.6 C 55.9 48.2 56 48.9 56.8 48.9 C 58.2 48.9 58 47 58 46.1 C 56.8 46.1 55.9 46 55.9 47.6 Z M 60.3 48.6 C 60.3 49.2 60.4 49.7 60.5 50.2 C 60.45 50.23 58.2 50.2 58.2 50.2 L 58.1 49.1 C 58.1 49.1 58.09 49.09 58.1 49.1 C 57.6 50 56.9 50.4 55.8 50.4 C 54.2 50.4 53.6 49.2 53.6 47.7 C 53.6 44.8 55.8 44.7 58 44.7 C 58 44.7 58 44.1 58 44.1 C 58 43.3 57.9 42.8 57 42.8 C 56.2 42.8 56.1 43.4 56.1 44.1 C 56.1 44.1 53.8 44.1 53.8 44.1 C 53.8 43.1 54.1 42.4 54.7 42 C 55.2 41.6 56 41.5 56.9 41.5 C 59.9 41.5 60.3 42.8 60.3 44.3 C 60.3 44.3 60.3 48.6 60.3 48.6 Z M 64.7 42.5 C 64.7 42.5 64.75 42.51 64.8 42.5 C 65 42.1 65.3 41.9 65.6 41.7 C 65.9 41.5 66.3 41.5 66.8 41.5 C 67.9 41.5 68.9 42.2 68.9 43.3 C 68.92 43.35 68.9 50.2 68.9 50.2 L 66.5 50.2 C 66.5 50.2 66.52 44.31 66.5 44.3 C 66.5 43.5 66.4 43 65.6 43 C 64.9 43 64.7 43.5 64.7 44.3 C 64.72 44.31 64.7 50.2 64.7 50.2 L 62.3 50.2 L 62.3 41.6 L 64.7 41.6 L 64.7 42.5 Z M 76.8 42.5 C 76.8 42.5 76.84 42.51 76.8 42.5 C 77.3 41.7 78 41.5 78.9 41.5 C 79.7 41.5 80.4 41.9 80.8 42.6 C 81.3 41.8 82 41.5 83 41.5 C 84.1 41.5 85.2 42.2 85.2 43.3 C 85.15 43.35 85.2 50.2 85.2 50.2 L 82.8 50.2 C 82.8 50.2 82.75 44.31 82.8 44.3 C 82.8 43.5 82.6 43 81.9 43 C 81.1 43 81 43.5 81 44.3 C 80.95 44.31 81 50.2 81 50.2 L 78.6 50.2 C 78.6 50.2 78.61 44.31 78.6 44.3 C 78.6 43.5 78.5 43 77.7 43 C 76.9 43 76.8 43.5 76.8 44.3 C 76.8 44.31 76.8 50.2 76.8 50.2 L 74.4 50.2 L 74.4 41.6 L 76.8 41.6 L 76.8 42.5 Z M 91.3 45.7 C 91.3 43.9 91.2 43 90.2 43 C 89.1 43 89.1 43.9 89.1 45.7 C 89.1 48.3 89.3 48.9 90.2 48.9 C 91.1 48.9 91.3 48.3 91.3 45.7 Z M 86.7 45.8 C 86.7 43.5 87 41.5 90.2 41.5 C 93.3 41.5 93.7 43.5 93.7 45.8 C 93.7 48.5 93.3 50.4 90.2 50.4 C 87.1 50.4 86.7 48.5 86.7 45.8 Z M 97.8 42.5 C 97.8 42.5 97.8 42.51 97.8 42.5 C 98 42.1 98.3 41.9 98.6 41.7 C 99 41.5 99.4 41.5 99.8 41.5 C 101 41.5 102 42.2 102 43.3 C 101.96 43.35 102 50.2 102 50.2 L 99.6 50.2 C 99.6 50.2 99.57 44.31 99.6 44.3 C 99.6 43.5 99.4 43 98.7 43 C 97.9 43 97.8 43.5 97.8 44.3 C 97.77 44.31 97.8 50.2 97.8 50.2 L 95.4 50.2 L 95.4 41.6 L 97.8 41.6 L 97.8 42.5 Z M 102.9 41.6 L 103.9 41.6 L 103.9 40.3 L 106.3 39.2 L 106.3 41.6 L 107.5 41.6 L 107.5 43.1 L 106.3 43.1 C 106.3 43.1 106.27 47.71 106.3 47.7 C 106.3 48.4 106.2 48.8 107 48.8 C 107.2 48.8 107.3 48.8 107.5 48.8 C 107.5 48.8 107.5 50.2 107.5 50.2 C 107.1 50.3 106.8 50.3 106.2 50.3 C 104.1 50.3 103.9 48.9 103.9 48.4 C 103.87 48.41 103.9 43.1 103.9 43.1 L 102.9 43.1 L 102.9 41.6 Z M 112.8 50.2 C 112.8 50.2 112.79 44.31 112.8 44.3 C 112.8 43.5 112.7 43 111.9 43 C 111.1 43 111 43.5 111 44.3 C 110.99 44.31 111 50.2 111 50.2 L 108.6 50.2 L 108.6 38 L 111 38 L 111 42.5 C 111 42.5 111.03 42.51 111 42.5 C 111.3 42.1 111.6 41.9 111.9 41.7 C 112.2 41.5 112.6 41.5 113 41.5 C 114.2 41.5 115.2 42.2 115.2 43.3 C 115.19 43.35 115.2 50.2 115.2 50.2 L 112.8 50.2 Z M 119.7 38 L 119.7 50.2 L 117.3 50.2 L 117.3 38 L 119.7 38 Z M 123.4 50.3 L 121 41.6 L 123.4 41.6 L 124.6 47.7 L 124.7 47.7 L 126 41.6 L 128.3 41.6 L 124.9 53.5 L 122.4 53.5 L 123.4 50.3 Z M 135.2 47.6 C 135.2 48.2 135.3 48.9 136.1 48.9 C 137.5 48.9 137.3 47 137.3 46.1 C 136.1 46.1 135.2 46 135.2 47.6 Z M 139.7 48.6 C 139.7 49.2 139.7 49.7 139.8 50.2 C 139.77 50.23 137.5 50.2 137.5 50.2 L 137.4 49.1 C 137.4 49.1 137.41 49.09 137.4 49.1 C 136.9 50 136.2 50.4 135.2 50.4 C 133.5 50.4 132.9 49.2 132.9 47.7 C 132.9 44.8 135.1 44.7 137.3 44.7 C 137.3 44.7 137.3 44.1 137.3 44.1 C 137.3 43.3 137.2 42.8 136.3 42.8 C 135.5 42.8 135.4 43.4 135.4 44.1 C 135.4 44.1 133.1 44.1 133.1 44.1 C 133.1 43.1 133.4 42.4 134 42 C 134.5 41.6 135.3 41.5 136.2 41.5 C 139.3 41.5 139.7 42.8 139.7 44.3 C 139.7 44.3 139.7 48.6 139.7 48.6 Z M 140.7 41.6 L 141.6 41.6 L 141.6 40.3 L 144 39.2 L 144 41.6 L 145.3 41.6 L 145.3 43.1 L 144 43.1 C 144 43.1 144.04 47.71 144 47.7 C 144 48.4 144 48.8 144.8 48.8 C 145 48.8 145.1 48.8 145.2 48.8 C 145.2 48.8 145.2 50.2 145.2 50.2 C 144.9 50.3 144.6 50.3 144 50.3 C 141.9 50.3 141.6 48.9 141.6 48.4 C 141.64 48.41 141.6 43.1 141.6 43.1 L 140.7 43.1 L 140.7 41.6 Z M 145.4 41.6 L 146.4 41.6 L 146.4 40.3 L 148.8 39.2 L 148.8 41.6 L 150 41.6 L 150 43.1 L 148.8 43.1 C 148.8 43.1 148.76 47.71 148.8 47.7 C 148.8 48.4 148.7 48.8 149.5 48.8 C 149.7 48.8 149.8 48.8 150 48.8 C 150 48.8 150 50.2 150 50.2 C 149.6 50.3 149.3 50.3 148.7 50.3 C 146.6 50.3 146.4 48.9 146.4 48.4 C 146.37 48.41 146.4 43.1 146.4 43.1 L 145.4 43.1 L 145.4 41.6 Z M 153.2 47.6 C 153.2 48.2 153.3 48.9 154.1 48.9 C 155.5 48.9 155.3 47 155.3 46.1 C 154.1 46.1 153.2 46 153.2 47.6 Z M 157.6 48.6 C 157.6 49.2 157.7 49.7 157.7 50.2 C 157.72 50.23 155.5 50.2 155.5 50.2 L 155.4 49.1 C 155.4 49.1 155.36 49.09 155.4 49.1 C 154.9 50 154.2 50.4 153.1 50.4 C 151.5 50.4 150.8 49.2 150.8 47.7 C 150.8 44.8 153 44.7 155.3 44.7 C 155.3 44.7 155.3 44.1 155.3 44.1 C 155.3 43.3 155.2 42.8 154.3 42.8 C 153.5 42.8 153.4 43.4 153.4 44.1 C 153.4 44.1 151 44.1 151 44.1 C 151 43.1 151.4 42.4 151.9 42 C 152.5 41.6 153.3 41.5 154.2 41.5 C 157.2 41.5 157.6 42.8 157.6 44.3 C 157.6 44.3 157.6 48.6 157.6 48.6 Z M 164 44.7 C 164 43.4 163.6 43 162.9 43 C 161.9 43 161.8 43.9 161.8 45.7 C 161.8 48.3 162 48.9 162.9 48.9 C 163.6 48.9 164 48.2 164 47.1 C 164 47.1 166.4 47.1 166.4 47.1 C 166.4 49.4 165.1 50.4 162.9 50.4 C 159.8 50.4 159.4 48.5 159.4 45.8 C 159.4 43.5 159.7 41.5 162.9 41.5 C 165.1 41.5 166.4 42.5 166.4 44.7 C 166.4 44.7 164 44.7 164 44.7 Z M 168 50.2 L 168 38 L 170.4 38 L 170.4 45.3 L 170.5 45.3 L 172.6 41.6 L 175.1 41.6 L 172.7 45.5 L 175.4 50.2 L 172.7 50.2 L 170.5 45.6 L 170.4 45.6 L 170.4 50.2 L 168 50.2 Z M 182.6 41.6 L 182.6 42.8 C 182.6 42.8 182.68 42.75 182.7 42.8 C 183.1 41.8 183.9 41.5 184.9 41.5 C 184.9 41.5 184.9 43.6 184.9 43.6 C 182.8 43.5 182.8 44.7 182.8 45.6 C 182.76 45.56 182.8 50.2 182.8 50.2 L 180.4 50.2 L 180.4 41.6 L 182.6 41.6 Z M 190.4 45 C 190.4 44.1 190.5 43 189.3 43 C 188.2 43 188.2 44.2 188.2 45 C 188.2 45 190.4 45 190.4 45 Z M 188.2 46.3 C 188.2 47.3 188.3 48.9 189.3 48.9 C 190.2 48.9 190.3 48.1 190.3 47.3 C 190.3 47.3 192.8 47.3 192.8 47.3 C 192.7 48.3 192.4 49 191.9 49.6 C 191.3 50.1 190.4 50.4 189.3 50.4 C 186.2 50.4 185.8 48.5 185.8 45.8 C 185.8 43.5 186.2 41.5 189.3 41.5 C 192.6 41.5 192.9 43.6 192.8 46.3 C 192.8 46.3 188.2 46.3 188.2 46.3 Z M 198.7 45.9 C 198.7 44.1 198.7 43 197.7 43 C 196.7 43 196.7 44.1 196.7 45.9 C 196.7 48 196.9 48.9 197.7 48.9 C 198.5 48.9 198.7 48 198.7 45.9 Z M 198.8 50.2 L 198.8 49.3 C 198.8 49.3 198.78 49.28 198.8 49.3 C 198.3 50.1 197.7 50.4 196.8 50.4 C 194.3 50.4 194.4 47.6 194.4 45.9 C 194.4 44.1 194.3 41.5 196.7 41.5 C 197.6 41.5 198.2 41.7 198.7 42.5 C 198.66 42.46 198.7 42.5 198.7 42.5 L 198.7 38 L 201.1 38 L 201.1 50.2 L 198.8 50.2 Z M 207.2 49.4 C 207.2 49.4 207.19 49.36 207.2 49.4 C 207 49.7 206.7 50 206.3 50.2 C 206 50.3 205.6 50.4 205.2 50.4 C 204 50.4 203 49.7 203 48.5 C 203.03 48.53 203 41.6 203 41.6 L 205.4 41.6 C 205.4 41.6 205.43 47.6 205.4 47.6 C 205.4 48.4 205.6 48.9 206.3 48.9 C 207.1 48.9 207.2 48.4 207.2 47.6 C 207.23 47.6 207.2 41.6 207.2 41.6 L 209.6 41.6 C 209.6 41.6 209.62 48.53 209.6 48.5 C 209.6 49.1 209.7 49.7 209.7 50.2 C 209.71 50.23 207.2 50.2 207.2 50.2 L 207.2 49.4 Z M 215.9 44.7 C 215.9 43.4 215.6 43 214.8 43 C 213.8 43 213.7 43.9 213.7 45.7 C 213.7 48.3 213.9 48.9 214.8 48.9 C 215.6 48.9 215.9 48.2 215.9 47.1 C 215.9 47.1 218.3 47.1 218.3 47.1 C 218.3 49.4 217.1 50.4 214.8 50.4 C 211.7 50.4 211.3 48.5 211.3 45.8 C 211.3 43.5 211.7 41.5 214.8 41.5 C 217 41.5 218.3 42.5 218.3 44.7 C 218.3 44.7 215.9 44.7 215.9 44.7 Z M 219.1 41.6 L 220 41.6 L 220 40.3 L 222.4 39.2 L 222.4 41.6 L 223.7 41.6 L 223.7 43.1 L 222.4 43.1 C 222.4 43.1 222.43 47.71 222.4 47.7 C 222.4 48.4 222.4 48.8 223.2 48.8 C 223.3 48.8 223.5 48.8 223.6 48.8 C 223.6 48.8 223.6 50.2 223.6 50.2 C 223.3 50.3 223 50.3 222.4 50.3 C 220.3 50.3 220 48.9 220 48.4 C 220.03 48.41 220 43.1 220 43.1 L 219.1 43.1 L 219.1 41.6 Z M 227.4 50.2 L 225 50.2 L 225 41.6 L 227.4 41.6 L 227.4 50.2 Z M 227.4 38 L 227.4 39.8 L 225 39.8 L 225 38 L 227.4 38 Z M 233.9 45.7 C 233.9 43.9 233.8 43 232.8 43 C 231.8 43 231.7 43.9 231.7 45.7 C 231.7 48.3 231.9 48.9 232.8 48.9 C 233.7 48.9 233.9 48.3 233.9 45.7 Z M 229.3 45.8 C 229.3 43.5 229.6 41.5 232.8 41.5 C 235.9 41.5 236.3 43.5 236.3 45.8 C 236.3 48.5 235.9 50.4 232.8 50.4 C 229.7 50.4 229.3 48.5 229.3 45.8 Z M 240.4 42.5 C 240.4 42.5 240.41 42.51 240.4 42.5 C 240.6 42.1 240.9 41.9 241.3 41.7 C 241.6 41.5 242 41.5 242.4 41.5 C 243.6 41.5 244.6 42.2 244.6 43.3 C 244.58 43.35 244.6 50.2 244.6 50.2 L 242.2 50.2 C 242.2 50.2 242.18 44.31 242.2 44.3 C 242.2 43.5 242 43 241.3 43 C 240.5 43 240.4 43.5 240.4 44.3 C 240.38 44.31 240.4 50.2 240.4 50.2 L 238 50.2 L 238 41.6 L 240.4 41.6 L 240.4 42.5 Z M 249.4 41.6 L 251.9 41.6 L 253.1 48.1 L 253.1 48.1 L 254.4 41.6 L 256.7 41.6 L 254.4 50.2 L 251.7 50.2 L 249.4 41.6 Z M 259.7 47.5 C 259.7 47.9 259.7 48.2 259.8 48.5 C 259.9 48.8 260.2 48.9 260.7 48.9 C 261.2 48.9 261.6 48.6 261.6 48 C 261.6 46.2 257.3 46.6 257.3 43.9 C 257.3 42 259.2 41.5 260.7 41.5 C 262.4 41.5 263.8 42.3 263.7 44.1 C 263.7 44.1 261.4 44.1 261.4 44.1 C 261.4 43.5 261.3 43.2 261.1 43 C 261 42.9 260.8 42.8 260.5 42.8 C 260 42.8 259.7 43.2 259.7 43.7 C 259.7 45.1 263.9 45 263.9 47.8 C 263.9 49.3 262.7 50.4 260.7 50.4 C 258.6 50.4 257.2 49.9 257.3 47.5 C 257.3 47.5 259.7 47.5 259.7 47.5 Z M 273.5 45.9 C 273.5 44.1 273.5 43 272.5 43 C 271.5 43 271.5 44.1 271.5 45.9 C 271.5 48 271.7 48.9 272.5 48.9 C 273.4 48.9 273.5 48 273.5 45.9 Z M 271.4 41.6 L 271.4 42.6 C 271.4 42.6 271.44 42.6 271.4 42.6 C 271.9 41.8 272.5 41.5 273.5 41.5 C 275.9 41.5 275.9 44.2 275.9 46 C 275.9 47.7 275.9 50.4 273.5 50.4 C 272.6 50.4 272 50.1 271.6 49.4 C 271.55 49.41 271.5 49.4 271.5 49.4 L 271.5 53.9 L 269.1 53.9 L 269.1 41.6 L 271.4 41.6 Z M 280.2 38 L 280.2 50.2 L 277.8 50.2 L 277.8 38 L 280.2 38 Z M 284.4 47.6 C 284.4 48.2 284.5 48.9 285.3 48.9 C 286.7 48.9 286.5 47 286.5 46.1 C 285.3 46.1 284.4 46 284.4 47.6 Z M 288.9 48.6 C 288.9 49.2 288.9 49.7 289 50.2 C 288.98 50.23 286.8 50.2 286.8 50.2 L 286.7 49.1 C 286.7 49.1 286.62 49.09 286.6 49.1 C 286.1 50 285.4 50.4 284.4 50.4 C 282.7 50.4 282.1 49.2 282.1 47.7 C 282.1 44.8 284.3 44.7 286.5 44.7 C 286.5 44.7 286.5 44.1 286.5 44.1 C 286.5 43.3 286.4 42.8 285.5 42.8 C 284.7 42.8 284.6 43.4 284.6 44.1 C 284.6 44.1 282.3 44.1 282.3 44.1 C 282.3 43.1 282.6 42.4 283.2 42 C 283.7 41.6 284.5 41.5 285.4 41.5 C 288.5 41.5 288.9 42.8 288.9 44.3 C 288.9 44.3 288.9 48.6 288.9 48.6 Z M 295.2 44.7 C 295.2 43.4 294.9 43 294.1 43 C 293.1 43 293 43.9 293 45.7 C 293 48.3 293.3 48.9 294.1 48.9 C 294.9 48.9 295.3 48.2 295.3 47.1 C 295.3 47.1 297.6 47.1 297.6 47.1 C 297.6 49.4 296.4 50.4 294.1 50.4 C 291.1 50.4 290.6 48.5 290.6 45.8 C 290.6 43.5 291 41.5 294.1 41.5 C 296.4 41.5 297.6 42.5 297.6 44.7 C 297.6 44.7 295.2 44.7 295.2 44.7 Z M 303.8 45 C 303.8 44.1 303.8 43 302.6 43 C 301.5 43 301.6 44.2 301.6 45 C 301.6 45 303.8 45 303.8 45 Z M 301.6 46.3 C 301.6 47.3 301.6 48.9 302.6 48.9 C 303.5 48.9 303.7 48.1 303.7 47.3 C 303.7 47.3 306.1 47.3 306.1 47.3 C 306.1 48.3 305.8 49 305.2 49.6 C 304.6 50.1 303.8 50.4 302.6 50.4 C 299.6 50.4 299.1 48.5 299.1 45.8 C 299.1 43.5 299.5 41.5 302.6 41.5 C 305.9 41.5 306.2 43.6 306.1 46.3 C 306.1 46.3 301.6 46.3 301.6 46.3 Z M 312.2 45.9 C 312.2 44.1 312.3 43 311.2 43 C 310.2 43 310.2 44.1 310.2 45.9 C 310.2 48 310.4 48.9 311.2 48.9 C 312.1 48.9 312.2 48 312.2 45.9 Z M 307.8 38 L 310.2 38 L 310.2 42.5 C 310.2 42.5 310.28 42.46 310.3 42.5 C 310.8 41.7 311.4 41.5 312.2 41.5 C 314.6 41.5 314.6 44.1 314.6 45.9 C 314.6 47.6 314.7 50.4 312.2 50.4 C 311.3 50.4 310.6 50.1 310.2 49.3 C 310.16 49.28 310.1 49.3 310.1 49.3 L 310.1 50.2 L 307.8 50.2 L 307.8 38 Z M 320.8 45.7 C 320.8 43.9 320.7 43 319.6 43 C 318.6 43 318.5 43.9 318.5 45.7 C 318.5 48.3 318.8 48.9 319.6 48.9 C 320.5 48.9 320.8 48.3 320.8 45.7 Z M 316.1 45.8 C 316.1 43.5 316.5 41.5 319.6 41.5 C 322.8 41.5 323.1 43.5 323.1 45.8 C 323.1 48.5 322.7 50.4 319.6 50.4 C 316.6 50.4 316.1 48.5 316.1 45.8 Z M 324 44.6 C 324 44.6 324.02 43.35 324 43.4 C 326.2 40.4 326.7 40.1 326.7 39.2 C 326.7 38.9 326.5 38.6 326.1 38.6 C 325.6 38.6 325.5 39.1 325.5 39.6 C 325.5 39.6 324.1 39.6 324.1 39.6 C 324 38.3 324.7 37.6 326 37.6 C 327.2 37.6 328 38 328 39.3 C 328 40.9 326.2 42.7 325.5 43.5 C 325.48 43.5 328.1 43.5 328.1 43.5 L 328.1 44.6 L 324 44.6 Z M 332.1 38.9 L 332.1 37.4 L 333.3 37.4 L 333.3 38.9 L 334.8 38.9 L 334.8 39.9 L 333.3 39.9 L 333.3 44.6 L 332.1 44.6 L 332.1 39.9 L 330.5 39.9 L 330.5 38.9 L 332.1 38.9 Z " stroke="none" fill="#003c71"/>  </g></svg>