<?xml version="1.0" standalone="no"?><!DOCTYPE svg PUBLIC "-//W3C//DTD SVG 1.1//EN" "http://www.w3.org/Graphics/SVG/1.1/DTD/svg11.dtd"><svg xmlns="http://www.w3.org/2000/svg" version="1.1" width="520px" height="41.7px" viewBox="0 -7 520 41.7" style="top:-7px">  <desc>ANDEMBRY®: THE FXIIA INHIBITOR FOR HAE1</desc>  <defs/>  <g id="Polygon192360">    <path d="M 4.8 0.1 L 8 0.1 L 12.1 20.3 L 9.3 20.3 L 8.4 15.1 L 4 15.1 L 3.1 20.3 L 0.3 20.3 L 4.8 0.1 Z M 4.5 12.8 L 8 12.8 L 6.3 3 L 6.2 3 L 4.5 12.8 Z M 13.5 0.1 L 17.3 0.1 L 20.6 16.9 L 20.7 16.9 L 20.7 0.1 L 23.3 0.1 L 23.3 20.3 L 19.3 20.3 L 16 3 L 15.9 3 L 15.9 20.3 L 13.5 20.3 L 13.5 0.1 Z M 28.2 17.9 C 28.2 17.9 29.54 17.92 29.5 17.9 C 31.6 17.9 32 16.8 32 13.4 C 32 13.4 32 6.4 32 6.4 C 32 3.4 31.7 2.4 29.3 2.4 C 29.32 2.41 28.2 2.4 28.2 2.4 L 28.2 17.9 Z M 25.4 0.1 C 25.4 0.1 29.9 0.06 29.9 0.1 C 34.4 0.1 34.8 1.6 34.8 7.4 C 34.8 7.4 34.8 13.5 34.8 13.5 C 34.8 18.6 33.9 20.3 29.5 20.3 C 29.46 20.27 25.4 20.3 25.4 20.3 L 25.4 0.1 Z M 36.8 0.1 L 44.4 0.1 L 44.4 2.4 L 39.6 2.4 L 39.6 8.7 L 44.1 8.7 L 44.1 11.1 L 39.6 11.1 L 39.6 17.9 L 44.4 17.9 L 44.4 20.3 L 36.8 20.3 L 36.8 0.1 Z M 45.6 0.1 L 50.1 0.1 L 52.6 15.5 L 52.7 15.5 L 55.3 0.1 L 59.6 0.1 L 59.6 20.3 L 57 20.3 L 57 2.1 L 56.9 2.1 L 54.1 20.3 L 51.3 20.3 L 48.1 2.1 L 48.1 2.1 L 48.1 20.3 L 45.6 20.3 L 45.6 0.1 Z M 61.7 0.1 C 61.7 0.1 66.55 0.06 66.6 0.1 C 70 0.1 70.6 1.3 70.6 5 C 70.6 8.9 69.9 9.6 68 9.8 C 68 9.8 68 9.9 68 9.9 C 70.3 10.3 70.7 11.1 70.7 14.5 C 70.7 18.9 70.2 20.3 66.1 20.3 C 66.08 20.27 61.7 20.3 61.7 20.3 L 61.7 0.1 Z M 64.5 18.1 C 64.5 18.1 66.22 18.09 66.2 18.1 C 67.8 18.1 68.1 17.6 68.1 14.4 C 68.1 11.4 67.8 10.9 66.3 10.9 C 66.3 10.92 64.5 10.9 64.5 10.9 L 64.5 18.1 Z M 64.5 8.7 C 64.5 8.7 66.11 8.74 66.1 8.7 C 67.8 8.7 68 8.4 68 5.1 C 68 2.8 67.6 2.2 65.8 2.2 C 65.8 2.24 64.5 2.2 64.5 2.2 L 64.5 8.7 Z M 72.6 0.1 C 72.6 0.1 76.91 0.06 76.9 0.1 C 81 0.1 81.4 1.1 81.4 5.6 C 81.4 8.3 81.1 9.5 78.8 10.2 C 78.8 10.2 78.8 10.2 78.8 10.2 C 80.7 10.4 81.3 11.4 81.3 13.3 C 81.3 13.3 81.3 17.7 81.3 17.7 C 81.3 18.4 81.3 19.4 81.5 20.3 C 81.5 20.3 78.8 20.3 78.8 20.3 C 78.6 19.8 78.5 19.3 78.5 18.5 C 78.5 18.5 78.5 13.9 78.5 13.9 C 78.5 12 78.2 11.5 76.3 11.5 C 76.33 11.48 75.4 11.5 75.4 11.5 L 75.4 20.3 L 72.6 20.3 L 72.6 0.1 Z M 75.4 9.1 C 75.4 9.1 76.1 9.13 76.1 9.1 C 78.3 9.1 78.6 8.7 78.6 5.7 C 78.6 2.7 78.5 2.4 76.7 2.4 C 76.72 2.41 75.4 2.4 75.4 2.4 L 75.4 9.1 Z M 81.6 0.1 L 84.4 0.1 L 86.9 8.6 L 86.9 8.6 L 89.7 0.1 L 92.2 0.1 L 88.3 12 L 88.3 20.3 L 85.5 20.3 L 85.5 12 L 81.6 0.1 Z M 99.1 -0.9 C 102.4 -0.9 105.1 1.7 105.1 5.1 C 105.1 8.4 102.4 11 99.1 11 C 95.8 11 93.1 8.4 93.1 5.1 C 93.1 1.7 95.8 -0.9 99.1 -0.9 Z M 99.1 9.9 C 101.8 9.9 103.8 7.7 103.8 5.1 C 103.8 2.4 101.8 0.2 99.1 0.2 C 96.4 0.2 94.4 2.4 94.4 5.1 C 94.4 7.7 96.4 9.9 99.1 9.9 Z M 98.8 5.5 L 97.7 5.5 L 97.7 8.5 L 96.5 8.5 L 96.5 1.6 C 96.5 1.6 99.21 1.63 99.2 1.6 C 100.9 1.6 101.8 2.2 101.8 3.6 C 101.8 4.8 101 5.3 100 5.4 C 100.04 5.4 101.9 8.5 101.9 8.5 L 100.6 8.5 L 98.8 5.5 Z M 98.9 4.5 C 99.8 4.5 100.5 4.5 100.5 3.5 C 100.5 2.7 99.7 2.6 99 2.6 C 99.01 2.61 97.7 2.6 97.7 2.6 L 97.7 4.5 C 97.7 4.5 98.91 4.53 98.9 4.5 Z M 106.6 17 L 109.9 17 L 109.9 20.3 L 106.6 20.3 L 106.6 17 Z M 106.6 6.2 L 109.9 6.2 L 109.9 9.5 L 106.6 9.5 L 106.6 6.2 Z M 113.7 0.1 L 123.2 0.1 L 123.2 2.4 L 119.8 2.4 L 119.8 20.3 L 117 20.3 L 117 2.4 L 113.7 2.4 L 113.7 0.1 Z M 124.4 0.1 L 127.2 0.1 L 127.2 8.7 L 130.9 8.7 L 130.9 0.1 L 133.7 0.1 L 133.7 20.3 L 130.9 20.3 L 130.9 11.1 L 127.2 11.1 L 127.2 20.3 L 124.4 20.3 L 124.4 0.1 Z M 135.8 0.1 L 143.4 0.1 L 143.4 2.4 L 138.6 2.4 L 138.6 8.7 L 143.1 8.7 L 143.1 11.1 L 138.6 11.1 L 138.6 17.9 L 143.4 17.9 L 143.4 20.3 L 135.8 20.3 L 135.8 0.1 Z M 149.8 0.1 L 157.4 0.1 L 157.4 2.4 L 152.6 2.4 L 152.6 8.7 L 157.1 8.7 L 157.1 11.1 L 152.6 11.1 L 152.6 20.3 L 149.8 20.3 L 149.8 0.1 Z M 162.2 9.8 L 158.1 0.1 L 161.1 0.1 L 163.7 7.2 L 166.4 0.1 L 169.2 0.1 L 165.1 10.1 L 169.3 20.3 L 166.3 20.3 L 163.6 12.9 L 160.6 20.3 L 157.8 20.3 L 162.2 9.8 Z M 170.5 0.1 L 173.3 0.1 L 173.3 20.3 L 170.5 20.3 L 170.5 0.1 Z M 175.2 0.1 L 178 0.1 L 178 20.3 L 175.2 20.3 L 175.2 0.1 Z M 183.7 0.1 L 186.9 0.1 L 191.1 20.3 L 188.3 20.3 L 187.3 15.1 L 183 15.1 L 182 20.3 L 179.2 20.3 L 183.7 0.1 Z M 183.4 12.8 L 186.9 12.8 L 185.2 3 L 185.1 3 L 183.4 12.8 Z M 197.5 0.1 L 200.3 0.1 L 200.3 20.3 L 197.5 20.3 L 197.5 0.1 Z M 202.3 0.1 L 206.2 0.1 L 209.5 16.9 L 209.5 16.9 L 209.5 0.1 L 212.2 0.1 L 212.2 20.3 L 208.1 20.3 L 204.8 3 L 204.8 3 L 204.8 20.3 L 202.3 20.3 L 202.3 0.1 Z M 214.2 0.1 L 217 0.1 L 217 8.7 L 220.8 8.7 L 220.8 0.1 L 223.6 0.1 L 223.6 20.3 L 220.8 20.3 L 220.8 11.1 L 217 11.1 L 217 20.3 L 214.2 20.3 L 214.2 0.1 Z M 225.5 0.1 L 228.3 0.1 L 228.3 20.3 L 225.5 20.3 L 225.5 0.1 Z M 230.3 0.1 C 230.3 0.1 235.21 0.06 235.2 0.1 C 238.7 0.1 239.2 1.3 239.2 5 C 239.2 8.9 238.6 9.6 236.7 9.8 C 236.7 9.8 236.7 9.9 236.7 9.9 C 238.9 10.3 239.4 11.1 239.4 14.5 C 239.4 18.9 238.8 20.3 234.7 20.3 C 234.73 20.27 230.3 20.3 230.3 20.3 L 230.3 0.1 Z M 233.1 18.1 C 233.1 18.1 234.87 18.09 234.9 18.1 C 236.5 18.1 236.7 17.6 236.7 14.4 C 236.7 11.4 236.5 10.9 235 10.9 C 234.95 10.92 233.1 10.9 233.1 10.9 L 233.1 18.1 Z M 233.1 8.7 C 233.1 8.7 234.76 8.74 234.8 8.7 C 236.4 8.7 236.6 8.4 236.6 5.1 C 236.6 2.8 236.2 2.2 234.5 2.2 C 234.45 2.24 233.1 2.2 233.1 2.2 L 233.1 8.7 Z M 241.1 0.1 L 243.9 0.1 L 243.9 20.3 L 241.1 20.3 L 241.1 0.1 Z M 245.1 0.1 L 254.6 0.1 L 254.6 2.4 L 251.2 2.4 L 251.2 20.3 L 248.4 20.3 L 248.4 2.4 L 245.1 2.4 L 245.1 0.1 Z M 258.2 15.6 C 258.2 17.3 259 18.3 260.1 18.3 C 261.3 18.3 262.1 17.3 262.1 15.6 C 262.1 15.6 262.1 5 262.1 5 C 262.1 3 261.4 2.1 260.1 2.1 C 258.8 2.1 258.2 3 258.2 5 C 258.2 5 258.2 15.6 258.2 15.6 Z M 255.4 5.2 C 255.4 2.4 256.3 -0.1 260.1 -0.1 C 263.7 -0.1 264.9 1.8 264.9 4.9 C 264.9 4.9 264.9 15.1 264.9 15.1 C 264.9 17.9 263.9 20.4 260.1 20.4 C 256.5 20.4 255.4 18.6 255.4 15.4 C 255.4 15.4 255.4 5.2 255.4 5.2 Z M 266.8 0.1 C 266.8 0.1 271.19 0.06 271.2 0.1 C 275.3 0.1 275.7 1.1 275.7 5.6 C 275.7 8.3 275.3 9.5 273 10.2 C 273 10.2 273 10.2 273 10.2 C 274.9 10.4 275.6 11.4 275.6 13.3 C 275.6 13.3 275.6 17.7 275.6 17.7 C 275.6 18.4 275.6 19.4 275.8 20.3 C 275.8 20.3 273.1 20.3 273.1 20.3 C 272.8 19.8 272.8 19.3 272.8 18.5 C 272.8 18.5 272.8 13.9 272.8 13.9 C 272.8 12 272.4 11.5 270.6 11.5 C 270.6 11.48 269.6 11.5 269.6 11.5 L 269.6 20.3 L 266.8 20.3 L 266.8 0.1 Z M 269.6 9.1 C 269.6 9.1 270.37 9.13 270.4 9.1 C 272.6 9.1 272.9 8.7 272.9 5.7 C 272.9 2.7 272.7 2.4 271 2.4 C 270.99 2.41 269.6 2.4 269.6 2.4 L 269.6 9.1 Z M 282.9 0.1 L 290.6 0.1 L 290.6 2.4 L 285.7 2.4 L 285.7 8.7 L 290.3 8.7 L 290.3 11.1 L 285.7 11.1 L 285.7 20.3 L 282.9 20.3 L 282.9 0.1 Z M 294.5 15.6 C 294.5 17.3 295.3 18.3 296.4 18.3 C 297.6 18.3 298.4 17.3 298.4 15.6 C 298.4 15.6 298.4 5 298.4 5 C 298.4 3 297.7 2.1 296.4 2.1 C 295.2 2.1 294.5 3 294.5 5 C 294.5 5 294.5 15.6 294.5 15.6 Z M 291.7 5.2 C 291.7 2.4 292.6 -0.1 296.4 -0.1 C 300 -0.1 301.2 1.8 301.2 4.9 C 301.2 4.9 301.2 15.1 301.2 15.1 C 301.2 17.9 300.2 20.4 296.4 20.4 C 292.8 20.4 291.7 18.6 291.7 15.4 C 291.7 15.4 291.7 5.2 291.7 5.2 Z M 303.2 0.1 C 303.2 0.1 307.5 0.06 307.5 0.1 C 311.6 0.1 312 1.1 312 5.6 C 312 8.3 311.6 9.5 309.3 10.2 C 309.3 10.2 309.3 10.2 309.3 10.2 C 311.3 10.4 311.9 11.4 311.9 13.3 C 311.9 13.3 311.9 17.7 311.9 17.7 C 311.9 18.4 311.9 19.4 312.1 20.3 C 312.1 20.3 309.4 20.3 309.4 20.3 C 309.2 19.8 309.1 19.3 309.1 18.5 C 309.1 18.5 309.1 13.9 309.1 13.9 C 309.1 12 308.8 11.5 306.9 11.5 C 306.91 11.48 306 11.5 306 11.5 L 306 20.3 L 303.2 20.3 L 303.2 0.1 Z M 306 9.1 C 306 9.1 306.69 9.13 306.7 9.1 C 308.9 9.1 309.2 8.7 309.2 5.7 C 309.2 2.7 309 2.4 307.3 2.4 C 307.31 2.41 306 2.4 306 2.4 L 306 9.1 Z M 319.3 0.1 L 322.1 0.1 L 322.1 8.7 L 325.8 8.7 L 325.8 0.1 L 328.6 0.1 L 328.6 20.3 L 325.8 20.3 L 325.8 11.1 L 322.1 11.1 L 322.1 20.3 L 319.3 20.3 L 319.3 0.1 Z M 334.4 0.1 L 337.6 0.1 L 341.7 20.3 L 338.9 20.3 L 338 15.1 L 333.7 15.1 L 332.7 20.3 L 329.9 20.3 L 334.4 0.1 Z M 334.1 12.8 L 337.6 12.8 L 335.9 3 L 335.8 3 L 334.1 12.8 Z M 343.1 0.1 L 350.7 0.1 L 350.7 2.4 L 345.9 2.4 L 345.9 8.7 L 350.4 8.7 L 350.4 11.1 L 345.9 11.1 L 345.9 17.9 L 350.7 17.9 L 350.7 20.3 L 343.1 20.3 L 343.1 0.1 Z M 353.5 1.4 C 353.5 1.4 353.45 1.38 353.5 1.4 C 353.1 1.8 352.8 2.1 352.2 2.6 C 352.2 2.6 352.2 1.1 352.2 1.1 C 352.6 0.8 353.4 -0.3 353.6 -0.8 C 353.65 -0.84 355 -0.8 355 -0.8 L 355 10.9 L 353.5 10.9 L 353.5 1.4 Z " stroke="none" fill="#003c71"/>  </g></svg>