<?xml version="1.0" standalone="no"?><!DOCTYPE svg PUBLIC "-//W3C//DTD SVG 1.1//EN" "http://www.w3.org/Graphics/SVG/1.1/DTD/svg11.dtd"><svg xmlns="http://www.w3.org/2000/svg" version="1.1" width="327px" height="45.7px" viewBox="0 -1 327 45.7" style="top:-1px">  <desc>Self inject ≤ 15 seconds†</desc>  <defs/>  <g id="Polygon203462">    <path d="M 4.4 25.9 C 1.2 25.9 0.6 24 0.8 21.9 C 0.8 21.9 3.3 21.9 3.3 21.9 C 3.3 23 3.4 24 4.8 24 C 5.7 24 6.1 23.5 6.1 22.6 C 6.1 20.4 0.9 20.3 0.9 16.6 C 0.9 14.7 1.8 13.2 5 13.2 C 7.5 13.2 8.7 14.3 8.5 16.9 C 8.5 16.9 6 16.9 6 16.9 C 6 15.9 5.9 15 4.8 15 C 4 15 3.5 15.5 3.5 16.3 C 3.5 18.6 8.7 18.4 8.7 22.3 C 8.7 25.5 6.4 25.9 4.4 25.9 Z M 14.8 20.4 C 14.8 19.6 14.8 18.4 13.7 18.4 C 12.6 18.4 12.6 19.7 12.6 20.4 C 12.6 20.4 14.8 20.4 14.8 20.4 Z M 12.6 21.7 C 12.6 22.8 12.6 24.3 13.7 24.3 C 14.6 24.3 14.7 23.5 14.7 22.8 C 14.7 22.8 17.2 22.8 17.2 22.8 C 17.1 23.7 16.8 24.5 16.2 25 C 15.7 25.5 14.8 25.8 13.7 25.8 C 10.6 25.8 10.2 23.9 10.2 21.3 C 10.2 18.9 10.5 16.9 13.7 16.9 C 16.9 16.9 17.3 19 17.2 21.7 C 17.2 21.7 12.6 21.7 12.6 21.7 Z M 21.5 13.4 L 21.5 25.7 L 19.1 25.7 L 19.1 13.4 L 21.5 13.4 Z M 27.3 14.9 C 26.3 14.8 26.1 15.2 26.1 16 C 26.15 16.03 26.1 17.1 26.1 17.1 L 27.3 17.1 L 27.3 18.5 L 26.1 18.5 L 26.1 25.7 L 23.7 25.7 L 23.7 18.5 L 22.7 18.5 L 22.7 17.1 C 22.7 17.1 23.77 17.07 23.8 17.1 C 23.7 14.6 23.5 13.3 26.5 13.3 C 26.8 13.3 27 13.3 27.3 13.3 C 27.3 13.3 27.3 14.9 27.3 14.9 Z M 32.3 20.2 L 32.3 21.9 L 28.2 21.9 L 28.2 20.2 L 32.3 20.2 Z M 36.6 25.7 L 34.2 25.7 L 34.2 17.1 L 36.6 17.1 L 36.6 25.7 Z M 36.6 13.4 L 36.6 15.3 L 34.2 15.3 L 34.2 13.4 L 36.6 13.4 Z M 41.1 17.9 C 41.1 17.9 41.17 17.94 41.2 17.9 C 41.4 17.5 41.7 17.3 42 17.1 C 42.4 17 42.8 16.9 43.2 16.9 C 44.3 16.9 45.3 17.6 45.3 18.8 C 45.34 18.77 45.3 25.7 45.3 25.7 L 42.9 25.7 C 42.9 25.7 42.94 19.74 42.9 19.7 C 42.9 19 42.8 18.4 42 18.4 C 41.3 18.4 41.1 19 41.1 19.7 C 41.14 19.74 41.1 25.7 41.1 25.7 L 38.7 25.7 L 38.7 17.1 L 41.1 17.1 L 41.1 17.9 Z M 49.8 17.1 C 49.8 17.1 49.84 26.44 49.8 26.4 C 49.8 28.2 49.1 28.9 47.6 28.9 C 47.3 28.9 47.1 28.9 46.8 28.8 C 46.8 28.8 46.8 27.3 46.8 27.3 C 47.1 27.3 47.4 27.3 47.4 26.7 C 47.45 26.67 47.4 17.1 47.4 17.1 L 49.8 17.1 Z M 49.8 13.4 L 49.8 15.3 L 47.4 15.3 L 47.4 13.4 L 49.8 13.4 Z M 56.4 20.4 C 56.4 19.6 56.4 18.4 55.3 18.4 C 54.2 18.4 54.2 19.7 54.2 20.4 C 54.2 20.4 56.4 20.4 56.4 20.4 Z M 54.2 21.7 C 54.2 22.8 54.2 24.3 55.3 24.3 C 56.1 24.3 56.3 23.5 56.3 22.8 C 56.3 22.8 58.7 22.8 58.7 22.8 C 58.7 23.7 58.4 24.5 57.8 25 C 57.2 25.5 56.4 25.8 55.3 25.8 C 52.2 25.8 51.8 23.9 51.8 21.3 C 51.8 18.9 52.1 16.9 55.3 16.9 C 58.5 16.9 58.9 19 58.8 21.7 C 58.8 21.7 54.2 21.7 54.2 21.7 Z M 64.8 20.1 C 64.8 18.9 64.5 18.4 63.8 18.4 C 62.7 18.4 62.7 19.3 62.7 21.1 C 62.7 23.7 62.9 24.3 63.8 24.3 C 64.5 24.3 64.9 23.6 64.9 22.5 C 64.9 22.5 67.3 22.5 67.3 22.5 C 67.3 24.8 66 25.8 63.8 25.8 C 60.7 25.8 60.3 23.9 60.3 21.3 C 60.3 18.9 60.6 16.9 63.8 16.9 C 66 16.9 67.2 17.9 67.2 20.1 C 67.2 20.1 64.8 20.1 64.8 20.1 Z M 68 17.1 L 69 17.1 L 69 15.7 L 71.4 14.6 L 71.4 17.1 L 72.6 17.1 L 72.6 18.5 L 71.4 18.5 C 71.4 18.5 71.37 23.14 71.4 23.1 C 71.4 23.8 71.3 24.2 72.1 24.2 C 72.3 24.2 72.4 24.2 72.6 24.2 C 72.6 24.2 72.6 25.7 72.6 25.7 C 72.2 25.7 71.9 25.7 71.3 25.7 C 69.2 25.7 69 24.4 69 23.8 C 68.97 23.83 69 18.5 69 18.5 L 68 18.5 L 68 17.1 Z M 77.3 20.5 L 77.3 19.2 L 83.5 15.7 L 83.5 17.1 L 78.4 19.8 L 78.4 19.9 L 83.5 22.5 L 83.5 24 L 77.3 20.5 Z M 77.2 25.8 L 77.2 24.6 L 83.6 24.6 L 83.6 25.8 L 77.2 25.8 Z M 88.9 15.6 C 89.7 15.1 90.6 14.6 91.2 13.8 C 91.19 13.79 93.5 13.8 93.5 13.8 L 93.5 25.7 L 90.9 25.7 C 90.9 25.7 90.9 16.52 90.9 16.5 C 90.3 17 89.6 17.5 88.9 17.9 C 88.9 17.9 88.9 15.6 88.9 15.6 Z M 98.6 18.6 C 98.6 18.6 98.62 18.62 98.6 18.6 C 99 18.1 99.6 17.8 100.3 17.8 C 102.3 17.8 102.9 19.2 102.9 21.7 C 102.9 24.9 101.7 25.8 99.2 25.8 C 97.3 25.8 96 25 96.1 22.9 C 96.1 22.9 98.5 22.9 98.5 22.9 C 98.5 23.2 98.5 23.5 98.7 23.7 C 98.8 23.9 99 24.1 99.4 24.1 C 100.3 24.1 100.5 23.3 100.5 21.7 C 100.5 21 100.5 19.3 99.4 19.3 C 98.8 19.3 98.5 20.1 98.5 20.7 C 98.55 20.67 96.2 20.7 96.2 20.7 L 96.2 13.8 L 102.4 13.8 L 102.4 15.6 L 98.6 15.6 L 98.6 18.6 Z M 109.8 22.9 C 109.8 23.3 109.8 23.7 109.9 23.9 C 110 24.2 110.3 24.3 110.8 24.3 C 111.2 24.3 111.6 24 111.6 23.5 C 111.6 21.6 107.4 22 107.4 19.3 C 107.4 17.5 109.3 16.9 110.8 16.9 C 112.4 16.9 113.9 17.7 113.8 19.5 C 113.8 19.5 111.4 19.5 111.4 19.5 C 111.4 18.9 111.4 18.6 111.2 18.4 C 111 18.3 110.8 18.2 110.6 18.2 C 110.1 18.2 109.8 18.6 109.8 19.2 C 109.8 20.5 114 20.5 114 23.2 C 114 24.7 112.8 25.8 110.8 25.8 C 108.7 25.8 107.3 25.3 107.4 22.9 C 107.4 22.9 109.8 22.9 109.8 22.9 Z M 119.8 20.4 C 119.8 19.6 119.9 18.4 118.7 18.4 C 117.6 18.4 117.6 19.7 117.6 20.4 C 117.6 20.4 119.8 20.4 119.8 20.4 Z M 117.6 21.7 C 117.6 22.8 117.7 24.3 118.7 24.3 C 119.6 24.3 119.7 23.5 119.7 22.8 C 119.7 22.8 122.2 22.8 122.2 22.8 C 122.1 23.7 121.8 24.5 121.3 25 C 120.7 25.5 119.8 25.8 118.7 25.8 C 115.6 25.8 115.2 23.9 115.2 21.3 C 115.2 18.9 115.6 16.9 118.7 16.9 C 122 16.9 122.3 19 122.2 21.7 C 122.2 21.7 117.6 21.7 117.6 21.7 Z M 128.3 20.1 C 128.3 18.9 128 18.4 127.2 18.4 C 126.2 18.4 126.1 19.3 126.1 21.1 C 126.1 23.7 126.3 24.3 127.2 24.3 C 128 24.3 128.3 23.6 128.3 22.5 C 128.3 22.5 130.7 22.5 130.7 22.5 C 130.7 24.8 129.5 25.8 127.2 25.8 C 124.1 25.8 123.7 23.9 123.7 21.3 C 123.7 18.9 124.1 16.9 127.2 16.9 C 129.4 16.9 130.7 17.9 130.7 20.1 C 130.7 20.1 128.3 20.1 128.3 20.1 Z M 136.8 21.1 C 136.8 19.3 136.7 18.4 135.7 18.4 C 134.7 18.4 134.6 19.3 134.6 21.1 C 134.6 23.7 134.8 24.3 135.7 24.3 C 136.6 24.3 136.8 23.7 136.8 21.1 Z M 132.2 21.3 C 132.2 18.9 132.6 16.9 135.7 16.9 C 138.9 16.9 139.2 18.9 139.2 21.3 C 139.2 23.9 138.8 25.8 135.7 25.8 C 132.6 25.8 132.2 23.9 132.2 21.3 Z M 143.3 17.9 C 143.3 17.9 143.36 17.94 143.4 17.9 C 143.6 17.5 143.9 17.3 144.2 17.1 C 144.5 17 144.9 16.9 145.4 16.9 C 146.5 16.9 147.5 17.6 147.5 18.8 C 147.52 18.77 147.5 25.7 147.5 25.7 L 145.1 25.7 C 145.1 25.7 145.13 19.74 145.1 19.7 C 145.1 19 145 18.4 144.2 18.4 C 143.5 18.4 143.3 19 143.3 19.7 C 143.33 19.74 143.3 25.7 143.3 25.7 L 140.9 25.7 L 140.9 17.1 L 143.3 17.1 L 143.3 17.9 Z M 153.6 21.3 C 153.6 19.6 153.6 18.4 152.6 18.4 C 151.6 18.4 151.6 19.6 151.6 21.3 C 151.6 23.4 151.8 24.3 152.6 24.3 C 153.4 24.3 153.6 23.4 153.6 21.3 Z M 153.7 25.7 L 153.7 24.7 C 153.7 24.7 153.68 24.7 153.7 24.7 C 153.2 25.5 152.6 25.8 151.7 25.8 C 149.2 25.8 149.3 23.1 149.3 21.3 C 149.3 19.6 149.2 16.9 151.6 16.9 C 152.5 16.9 153.1 17.2 153.6 17.9 C 153.56 17.88 153.6 17.9 153.6 17.9 L 153.6 13.4 L 156 13.4 L 156 25.7 L 153.7 25.7 Z M 159.8 22.9 C 159.8 23.3 159.8 23.7 159.9 23.9 C 160.1 24.2 160.3 24.3 160.8 24.3 C 161.3 24.3 161.7 24 161.7 23.5 C 161.7 21.6 157.5 22 157.5 19.3 C 157.5 17.5 159.3 16.9 160.9 16.9 C 162.5 16.9 164 17.7 163.8 19.5 C 163.8 19.5 161.5 19.5 161.5 19.5 C 161.5 18.9 161.4 18.6 161.2 18.4 C 161.1 18.3 160.9 18.2 160.6 18.2 C 160.1 18.2 159.8 18.6 159.8 19.2 C 159.8 20.5 164 20.5 164 23.2 C 164 24.7 162.8 25.8 160.8 25.8 C 158.7 25.8 157.3 25.3 157.5 22.9 C 157.5 22.9 159.8 22.9 159.8 22.9 Z M 166.1 14.4 L 166.1 12.8 L 167.3 12.8 L 167.3 14.4 L 168.9 14.4 L 168.9 15.3 L 167.3 15.3 L 167.3 20 L 166.1 20 L 166.1 15.3 L 164.6 15.3 L 164.6 14.4 L 166.1 14.4 Z " stroke="none" fill="#003c71"/>  </g></svg>