<?xml version="1.0" standalone="no"?><!DOCTYPE svg PUBLIC "-//W3C//DTD SVG 1.1//EN" "http://www.w3.org/Graphics/SVG/1.1/DTD/svg11.dtd"><svg xmlns="http://www.w3.org/2000/svg" version="1.1" width="333px" height="78.8px" viewBox="0 -1 333 78.8" style="top:-1px">  <desc>Abbreviations: AE, adverse event; OLE, open label extension; TEAE, treatment emergent adverse event; SAE, serious adv...</desc>  <defs/>  <g id="Polygon202218">    <path d="M 2.4 64 L 3.6 64 L 6 71.2 L 4.9 71.2 L 4.4 69.5 L 1.6 69.5 L 1.1 71.2 L 0.2 71.2 L 2.4 64 Z M 3 64.9 L 3 64.9 L 1.9 68.7 L 4.2 68.7 L 3 64.9 Z M 7.6 71.2 L 6.8 71.2 L 6.8 64 L 7.6 64 L 7.6 71.2 Z M 9.8 71.2 L 9 71.2 L 9 64 L 9.8 64 L 9.8 71.2 Z M 14 68.4 C 14 66.9 13.6 66.7 13 66.7 C 12.5 66.7 12.1 67 12.1 68.4 C 12.1 68.4 14 68.4 14 68.4 Z M 12.1 69 C 12.1 70.4 12.4 70.7 13.1 70.7 C 13.7 70.7 13.9 70.2 14 69.7 C 14 69.7 14.9 69.7 14.9 69.7 C 14.9 70.8 14.2 71.3 13.1 71.3 C 12 71.3 11.2 71 11.2 68.8 C 11.2 67.3 11.4 66.1 13.1 66.1 C 14.5 66.1 14.9 66.9 14.9 68.6 C 14.91 68.56 14.9 69 14.9 69 C 14.9 69 12.07 68.98 12.1 69 Z M 17.1 67 C 17.1 67 17.14 66.95 17.1 67 C 17.5 66.2 17.9 66.1 18.7 66.1 C 18.7 66.1 18.7 66.9 18.7 66.9 C 18.6 66.9 18.5 66.9 18.5 66.9 C 18.4 66.9 18.3 66.9 18.3 66.9 C 17.3 66.9 17.1 67.6 17.1 68.3 C 17.12 68.26 17.1 71.2 17.1 71.2 L 16.3 71.2 L 16.3 66.2 L 17.1 66.2 L 17.1 67 Z M 21.3 66.8 C 20.4 66.8 20.3 67.9 20.3 68.6 C 20.3 70.2 20.7 70.6 21.3 70.6 C 22.3 70.6 22.3 69.4 22.3 68.7 C 22.3 67.9 22.3 66.8 21.3 66.8 Z M 22.3 66.2 L 23.1 66.2 C 23.1 66.2 23.09 71.76 23.1 71.8 C 23.1 72.9 22.3 73.2 21.2 73.2 C 20.4 73.2 19.6 72.7 19.7 71.8 C 19.7 71.8 20.6 71.8 20.6 71.8 C 20.6 72.3 20.9 72.5 21.4 72.5 C 22 72.5 22.3 72.2 22.3 71.7 C 22.27 71.67 22.3 70.6 22.3 70.6 C 22.3 70.6 22.24 70.62 22.2 70.6 C 22 71 21.6 71.2 21.1 71.2 C 19.8 71.2 19.5 70.1 19.5 68.6 C 19.5 66.2 20.7 66.1 21.1 66.1 C 21.6 66.1 22 66.3 22.3 66.8 C 22.25 66.81 22.3 66.8 22.3 66.8 L 22.3 66.2 Z M 26.1 70.3 L 26.1 70.3 L 27.3 66.2 L 28.2 66.2 L 25.9 73.2 L 25.1 73.2 L 25.7 71.2 L 24 66.2 L 24.9 66.2 L 26.1 70.3 Z M 29.5 71.2 L 28.6 71.2 L 28.6 70.2 L 29.5 70.2 L 29.5 71.2 Z M 32.8 71.2 C 32.8 71.2 32.82 70.45 32.8 70.4 C 34.8 67.6 35.4 67.1 35.4 65.9 C 35.4 65.3 35.2 65 34.6 65 C 33.9 65 33.8 65.5 33.8 66.1 C 33.8 66.1 32.8 66.1 32.8 66.1 C 32.8 64.9 33.3 64.2 34.5 64.2 C 35.8 64.2 36.4 64.8 36.4 66 C 36.4 67.6 35.6 68.1 33.8 70.4 C 33.8 70.45 36.5 70.4 36.5 70.4 L 36.5 71.2 L 32.8 71.2 Z M 40.9 67.8 C 40.9 69.6 40.9 71.4 39 71.4 C 37.2 71.4 37.2 69.6 37.2 67.8 C 37.2 65.9 37.1 64.2 39 64.2 C 40.9 64.2 40.9 65.9 40.9 67.8 Z M 38.1 68 C 38.1 69.2 38 70.6 39 70.6 C 40.1 70.6 40 69.2 40 68 C 40 66.1 40 65 39 65 C 38.1 65 38.1 66.1 38.1 68 Z M 41.7 71.2 C 41.7 71.2 41.7 70.45 41.7 70.4 C 43.7 67.6 44.3 67.1 44.3 65.9 C 44.3 65.3 44.1 65 43.5 65 C 42.8 65 42.6 65.5 42.7 66.1 C 42.7 66.1 41.7 66.1 41.7 66.1 C 41.6 64.9 42.2 64.2 43.4 64.2 C 44.6 64.2 45.2 64.8 45.2 66 C 45.2 67.6 44.5 68.1 42.7 70.4 C 42.68 70.45 45.4 70.4 45.4 70.4 L 45.4 71.2 L 41.7 71.2 Z M 49.5 64.3 L 49.5 65.1 L 47.2 65.1 L 47.2 67.1 C 47.2 67.1 47.24 67.15 47.2 67.1 C 47.4 66.8 47.9 66.6 48.3 66.6 C 49.3 66.6 49.8 67.4 49.8 69 C 49.8 70.1 49.6 71.4 47.9 71.4 C 46.5 71.4 46.2 70.6 46.2 69.7 C 46.2 69.7 47.1 69.7 47.1 69.7 C 47.1 70.2 47.3 70.7 47.9 70.7 C 48.8 70.7 48.9 69.9 48.9 69.2 C 48.9 68.2 48.8 67.4 48 67.4 C 47.5 67.4 47.2 67.7 47.1 68.2 C 47.13 68.2 46.3 68.2 46.3 68.2 L 46.3 64.3 L 49.5 64.3 Z M 53.1 71.2 L 53.1 64 L 56.7 64 L 56.7 64.8 L 54 64.8 L 54 67.1 L 56.5 67.1 L 56.5 67.9 L 54 67.9 L 54 71.2 L 53.1 71.2 Z M 60.3 68.4 C 60.3 66.9 59.9 66.7 59.3 66.7 C 58.8 66.7 58.3 67 58.3 68.4 C 58.3 68.4 60.3 68.4 60.3 68.4 Z M 58.3 69 C 58.3 70.4 58.7 70.7 59.3 70.7 C 59.9 70.7 60.2 70.2 60.2 69.7 C 60.2 69.7 61.1 69.7 61.1 69.7 C 61.1 70.8 60.4 71.3 59.4 71.3 C 58.3 71.3 57.4 71 57.4 68.8 C 57.4 67.3 57.6 66.1 59.4 66.1 C 60.8 66.1 61.2 66.9 61.2 68.6 C 61.17 68.56 61.2 69 61.2 69 C 61.2 69 58.33 68.98 58.3 69 Z M 64.3 70.7 C 65.4 70.7 65.4 69.6 65.4 68.8 C 65.4 67.5 65.2 66.8 64.4 66.8 C 63.5 66.8 63.4 67.8 63.4 68.5 C 63.4 69.3 63.3 70.7 64.3 70.7 Z M 63.4 71.2 L 62.6 71.2 L 62.6 64 L 63.4 64 L 63.4 66.7 C 63.4 66.7 63.45 66.7 63.4 66.7 C 63.7 66.3 64.1 66.1 64.6 66.1 C 66.2 66.1 66.2 67.5 66.2 68.8 C 66.2 71 65.4 71.3 64.6 71.3 C 64.1 71.3 63.7 71.1 63.4 70.6 C 63.44 70.65 63.4 70.6 63.4 70.6 L 63.4 71.2 Z M 67.7 70.2 L 68.7 70.2 L 67.8 72.5 L 67.1 72.5 L 67.7 70.2 Z M 68.4 67.2 L 67.4 67.2 L 67.4 66.2 L 68.4 66.2 L 68.4 67.2 Z M 72.2 69.4 C 72.2 68.8 72.1 68 71.2 68 C 70.4 68 70.3 68.8 70.3 69.4 C 70.3 70 70.6 70.6 71.2 70.6 C 71.9 70.6 72.2 70 72.2 69.4 Z M 71.8 67.6 C 72.8 67.7 73.1 68.5 73.1 69.4 C 73.1 70.6 72.5 71.4 71.2 71.4 C 70 71.4 69.4 70.6 69.4 69.4 C 69.4 68.5 69.7 67.7 70.7 67.6 C 70.7 67.6 70.7 67.6 70.7 67.6 C 69.9 67.4 69.5 66.7 69.5 65.9 C 69.5 64.8 70.2 64.2 71.2 64.2 C 72.3 64.2 73 64.8 73 65.9 C 73 66.7 72.6 67.4 71.8 67.6 C 71.8 67.6 71.8 67.6 71.8 67.6 Z M 72.1 65.9 C 72.1 65.4 71.8 64.9 71.2 64.9 C 70.7 64.9 70.4 65.4 70.4 65.9 C 70.4 66.4 70.6 67.2 71.2 67.2 C 71.9 67.2 72.1 66.4 72.1 65.9 Z M 77.6 67.8 C 77.6 69.6 77.6 71.4 75.7 71.4 C 73.8 71.4 73.8 69.6 73.8 67.8 C 73.8 65.9 73.8 64.2 75.7 64.2 C 77.6 64.2 77.6 65.9 77.6 67.8 Z M 74.7 68 C 74.7 69.2 74.7 70.6 75.7 70.6 C 76.7 70.6 76.6 69.2 76.6 68 C 76.6 66.1 76.6 65 75.7 65 C 74.7 65 74.7 66.1 74.7 68 Z M 79.4 72.4 C 79 71 78.4 69.6 78.4 68.1 C 78.4 66.6 79 65.1 79.4 63.7 C 79.4 63.7 80 63.7 80 63.7 C 79.6 65.1 79.3 66.6 79.3 68.1 C 79.3 69.6 79.6 71 80 72.4 C 80 72.4 79.4 72.4 79.4 72.4 Z M 81.1 71.2 C 81.1 71.2 81.12 70.45 81.1 70.4 C 83.1 67.6 83.7 67.1 83.7 65.9 C 83.7 65.3 83.5 65 82.9 65 C 82.2 65 82.1 65.5 82.1 66.1 C 82.1 66.1 81.1 66.1 81.1 66.1 C 81.1 64.9 81.6 64.2 82.8 64.2 C 84.1 64.2 84.7 64.8 84.7 66 C 84.7 67.6 83.9 68.1 82.1 70.4 C 82.1 70.45 84.8 70.4 84.8 70.4 L 84.8 71.2 L 81.1 71.2 Z M 85.8 72.4 C 86.2 71 86.5 69.6 86.5 68.1 C 86.5 66.6 86.2 65.1 85.8 63.7 C 85.8 63.7 86.4 63.7 86.4 63.7 C 86.9 65.1 87.4 66.6 87.4 68.1 C 87.4 69.6 86.9 71 86.4 72.4 C 86.4 72.4 85.8 72.4 85.8 72.4 Z M 89.5 67.2 L 88.5 67.2 L 88.5 66.2 L 89.5 66.2 L 89.5 67.2 Z M 89.5 71.2 L 88.5 71.2 L 88.5 70.2 L 89.5 70.2 L 89.5 71.2 Z M 94 64.3 L 94 65.1 L 91.6 65.1 L 91.6 67.1 C 91.6 67.1 91.66 67.15 91.7 67.1 C 91.8 66.8 92.3 66.6 92.8 66.6 C 93.7 66.6 94.2 67.4 94.2 69 C 94.2 70.1 94.1 71.4 92.3 71.4 C 90.9 71.4 90.6 70.6 90.6 69.7 C 90.6 69.7 91.5 69.7 91.5 69.7 C 91.5 70.2 91.7 70.7 92.4 70.7 C 93.2 70.7 93.3 69.9 93.3 69.2 C 93.3 68.2 93.3 67.4 92.4 67.4 C 91.9 67.4 91.6 67.7 91.5 68.2 C 91.55 68.2 90.7 68.2 90.7 68.2 L 90.7 64.3 L 94 64.3 Z M 97.1 68.8 L 97.1 65.1 L 97.1 65.1 L 95.6 68.8 L 97.1 68.8 Z M 94.8 69.6 L 94.8 68.8 L 96.8 64.3 L 98 64.3 L 98 68.8 L 98.8 68.8 L 98.8 69.6 L 98 69.6 L 98 71.2 L 97.1 71.2 L 97.1 69.6 L 94.8 69.6 Z M 102.8 64.3 L 102.8 65.1 L 100.5 65.1 L 100.5 67.1 C 100.5 67.1 100.54 67.15 100.5 67.1 C 100.7 66.8 101.2 66.6 101.6 66.6 C 102.6 66.6 103.1 67.4 103.1 69 C 103.1 70.1 102.9 71.4 101.2 71.4 C 99.8 71.4 99.5 70.6 99.5 69.7 C 99.5 69.7 100.4 69.7 100.4 69.7 C 100.4 70.2 100.6 70.7 101.2 70.7 C 102.1 70.7 102.2 69.9 102.2 69.2 C 102.2 68.2 102.1 67.4 101.3 67.4 C 100.8 67.4 100.5 67.7 100.4 68.2 C 100.43 68.2 99.6 68.2 99.6 68.2 L 99.6 64.3 L 102.8 64.3 Z M 104 68.1 L 106.2 68.1 L 106.2 68.9 L 104 68.9 L 104 68.1 Z M 110.6 64.3 L 110.6 65.1 L 108.3 65.1 L 108.3 67.1 C 108.3 67.1 108.31 67.15 108.3 67.1 C 108.5 66.8 108.9 66.6 109.4 66.6 C 110.4 66.6 110.9 67.4 110.9 69 C 110.9 70.1 110.7 71.4 109 71.4 C 107.5 71.4 107.3 70.6 107.3 69.7 C 107.3 69.7 108.2 69.7 108.2 69.7 C 108.2 70.2 108.4 70.7 109 70.7 C 109.9 70.7 109.9 69.9 109.9 69.2 C 109.9 68.2 109.9 67.4 109 67.4 C 108.5 67.4 108.3 67.7 108.2 68.2 C 108.2 68.2 107.4 68.2 107.4 68.2 L 107.4 64.3 L 110.6 64.3 Z M 115 64.3 L 115 65.1 L 112.7 65.1 L 112.7 67.1 C 112.7 67.1 112.75 67.15 112.7 67.1 C 112.9 66.8 113.4 66.6 113.8 66.6 C 114.8 66.6 115.3 67.4 115.3 69 C 115.3 70.1 115.2 71.4 113.4 71.4 C 112 71.4 111.7 70.6 111.7 69.7 C 111.7 69.7 112.6 69.7 112.6 69.7 C 112.6 70.2 112.8 70.7 113.4 70.7 C 114.3 70.7 114.4 69.9 114.4 69.2 C 114.4 68.2 114.3 67.4 113.5 67.4 C 113 67.4 112.7 67.7 112.6 68.2 C 112.64 68.2 111.8 68.2 111.8 68.2 L 111.8 64.3 L 115 64.3 Z M 117.9 70.6 C 118.7 70.6 118.8 69.8 118.8 68.9 C 118.8 68.3 118.7 67.5 117.9 67.5 C 117.1 67.5 117 68.4 117 69 C 117 69.7 117 70.6 117.9 70.6 Z M 116 67.8 C 116 65.9 116 64.2 117.9 64.2 C 118.9 64.2 119.6 64.8 119.6 65.9 C 119.6 65.9 118.7 65.9 118.7 65.9 C 118.7 65.4 118.4 64.9 117.9 64.9 C 117.1 64.9 116.9 65.5 116.9 67.4 C 116.9 67.4 117 67.4 117 67.4 C 117.2 67 117.6 66.7 118.1 66.7 C 119 66.7 119.7 67.2 119.7 69.1 C 119.7 70.3 119.2 71.4 117.9 71.4 C 116 71.4 116 69.6 116 67.8 Z M 121.7 71.2 L 120.7 71.2 L 120.7 70.2 L 121.7 70.2 L 121.7 71.2 Z " stroke="none" fill="#555555"/>  </g>  <g id="Polygon202217">    <path d="M 3.6 56.6 C 3.6 55.9 3.6 54.8 2.5 54.8 C 1.5 54.8 1.6 56.2 1.6 56.9 C 1.6 57.6 1.6 58.7 2.6 58.7 C 3.4 58.7 3.6 58 3.6 56.6 Z M 1.6 54.8 C 1.6 54.8 1.63 54.79 1.6 54.8 C 1.9 54.3 2.3 54.1 2.8 54.1 C 3.6 54.1 4.4 54.4 4.4 56.6 C 4.4 57.9 4.4 59.3 2.8 59.3 C 2.3 59.3 1.9 59.1 1.6 58.7 C 1.64 58.74 1.6 58.7 1.6 58.7 L 1.6 61.2 L 0.8 61.2 L 0.8 54.2 L 1.6 54.2 L 1.6 54.8 Z M 6.6 55 C 6.6 55 6.59 54.95 6.6 55 C 6.9 54.2 7.3 54.1 8.1 54.1 C 8.1 54.1 8.1 54.9 8.1 54.9 C 8.1 54.9 8 54.9 7.9 54.9 C 7.9 54.9 7.8 54.9 7.7 54.9 C 6.8 54.9 6.6 55.6 6.6 56.3 C 6.57 56.26 6.6 59.2 6.6 59.2 L 5.8 59.2 L 5.8 54.2 L 6.6 54.2 L 6.6 55 Z M 11.8 56.4 C 11.8 54.9 11.4 54.7 10.8 54.7 C 10.3 54.7 9.9 55 9.8 56.4 C 9.8 56.4 11.8 56.4 11.8 56.4 Z M 9.8 57 C 9.8 58.4 10.2 58.7 10.9 58.7 C 11.4 58.7 11.7 58.2 11.8 57.7 C 11.8 57.7 12.6 57.7 12.6 57.7 C 12.6 58.8 12 59.3 10.9 59.3 C 9.8 59.3 9 59 9 56.8 C 9 55.3 9.1 54.1 10.9 54.1 C 12.3 54.1 12.7 54.9 12.7 56.6 C 12.69 56.56 12.7 57 12.7 57 C 12.7 57 9.85 56.98 9.8 57 Z M 13.5 54.2 L 14.4 54.2 L 15.5 58.5 L 15.5 58.5 L 16.8 54.2 L 17.6 54.2 L 16 59.2 L 15 59.2 L 13.5 54.2 Z M 21.3 56.4 C 21.3 54.9 20.9 54.7 20.2 54.7 C 19.7 54.7 19.3 55 19.3 56.4 C 19.3 56.4 21.3 56.4 21.3 56.4 Z M 19.3 57 C 19.3 58.4 19.7 58.7 20.3 58.7 C 20.9 58.7 21.2 58.2 21.2 57.7 C 21.2 57.7 22.1 57.7 22.1 57.7 C 22.1 58.8 21.4 59.3 20.3 59.3 C 19.3 59.3 18.4 59 18.4 56.8 C 18.4 55.3 18.6 54.1 20.3 54.1 C 21.8 54.1 22.1 54.9 22.1 56.6 C 22.13 56.56 22.1 57 22.1 57 C 22.1 57 19.29 56.98 19.3 57 Z M 26.2 59.2 C 26.2 59.2 26.23 55.74 26.2 55.7 C 26.2 55.2 26 54.8 25.3 54.8 C 24.4 54.8 24.3 55.6 24.3 56.3 C 24.31 56.25 24.3 59.2 24.3 59.2 L 23.5 59.2 C 23.5 59.2 23.49 55.24 23.5 55.2 C 23.5 54.9 23.5 54.5 23.4 54.2 C 23.44 54.2 24.3 54.2 24.3 54.2 L 24.3 54.8 C 24.3 54.8 24.35 54.84 24.3 54.8 C 24.7 54.3 25 54.1 25.7 54.1 C 26.8 54.1 27 54.7 27 55.7 C 27.05 55.74 27 59.2 27 59.2 L 26.2 59.2 Z M 28.6 54.2 L 28.6 53.2 L 29.4 52.9 L 29.4 54.2 L 30.5 54.2 L 30.5 54.8 L 29.4 54.8 C 29.4 54.8 29.4 57.91 29.4 57.9 C 29.4 58.2 29.4 58.6 30.1 58.6 C 30.2 58.6 30.3 58.6 30.5 58.6 C 30.5 58.6 30.5 59.2 30.5 59.2 C 30.2 59.2 30 59.3 29.7 59.3 C 28.9 59.3 28.6 59 28.6 58.4 C 28.58 58.41 28.6 54.8 28.6 54.8 L 27.8 54.8 L 27.8 54.2 L 28.6 54.2 Z M 32.1 59.2 L 31.3 59.2 L 31.3 54.2 L 32.1 54.2 L 32.1 59.2 Z M 31.2 52 L 32.1 52 L 32.1 52.9 L 31.2 52.9 L 31.2 52 Z M 36.2 59.2 C 36.2 59.2 36.23 55.74 36.2 55.7 C 36.2 55.2 36 54.8 35.3 54.8 C 34.4 54.8 34.3 55.6 34.3 56.3 C 34.31 56.25 34.3 59.2 34.3 59.2 L 33.5 59.2 C 33.5 59.2 33.49 55.24 33.5 55.2 C 33.5 54.9 33.5 54.5 33.4 54.2 C 33.44 54.2 34.3 54.2 34.3 54.2 L 34.3 54.8 C 34.3 54.8 34.35 54.84 34.3 54.8 C 34.7 54.3 35 54.1 35.7 54.1 C 36.8 54.1 37 54.7 37 55.7 C 37.05 55.74 37 59.2 37 59.2 L 36.2 59.2 Z M 40.2 54.8 C 39.3 54.8 39.2 55.9 39.2 56.6 C 39.2 58.2 39.6 58.6 40.2 58.6 C 41.2 58.6 41.2 57.4 41.2 56.7 C 41.2 55.9 41.2 54.8 40.2 54.8 Z M 41.2 54.2 L 42 54.2 C 42 54.2 41.98 59.76 42 59.8 C 42 60.9 41.2 61.2 40.1 61.2 C 39.3 61.2 38.5 60.7 38.6 59.8 C 38.6 59.8 39.5 59.8 39.5 59.8 C 39.5 60.3 39.8 60.5 40.3 60.5 C 40.9 60.5 41.2 60.2 41.2 59.7 C 41.16 59.67 41.2 58.6 41.2 58.6 C 41.2 58.6 41.13 58.62 41.1 58.6 C 40.9 59 40.5 59.2 40 59.2 C 38.6 59.2 38.4 58.1 38.4 56.6 C 38.4 54.2 39.5 54.1 40 54.1 C 40.5 54.1 40.9 54.3 41.1 54.8 C 41.14 54.81 41.2 54.8 41.2 54.8 L 41.2 54.2 Z M 48.5 59.2 C 48.5 59.2 48.45 55.82 48.5 55.8 C 48.5 55.2 48.2 54.8 47.5 54.8 C 46.7 54.8 46.5 55.4 46.5 56.3 C 46.52 56.27 46.5 59.2 46.5 59.2 L 45.7 59.2 L 45.7 52 L 46.5 52 L 46.5 54.8 C 46.5 54.8 46.56 54.84 46.6 54.8 C 46.9 54.3 47.3 54.1 47.9 54.1 C 48.8 54.1 49.3 54.5 49.3 55.7 C 49.27 55.66 49.3 59.2 49.3 59.2 L 48.5 59.2 Z M 53.5 56.4 C 53.5 54.9 53.1 54.7 52.5 54.7 C 51.9 54.7 51.5 55 51.5 56.4 C 51.5 56.4 53.5 56.4 53.5 56.4 Z M 51.5 57 C 51.5 58.4 51.9 58.7 52.5 58.7 C 53.1 58.7 53.4 58.2 53.4 57.7 C 53.4 57.7 54.3 57.7 54.3 57.7 C 54.3 58.8 53.6 59.3 52.5 59.3 C 51.5 59.3 50.6 59 50.6 56.8 C 50.6 55.3 50.8 54.1 52.5 54.1 C 54 54.1 54.3 54.9 54.3 56.6 C 54.35 56.56 54.3 57 54.3 57 C 54.3 57 51.51 56.98 51.5 57 Z M 56.6 55 C 56.6 55 56.58 54.95 56.6 55 C 56.9 54.2 57.3 54.1 58.1 54.1 C 58.1 54.1 58.1 54.9 58.1 54.9 C 58.1 54.9 58 54.9 57.9 54.9 C 57.8 54.9 57.8 54.9 57.7 54.9 C 56.8 54.9 56.6 55.6 56.6 56.3 C 56.56 56.26 56.6 59.2 56.6 59.2 L 55.7 59.2 L 55.7 54.2 L 56.6 54.2 L 56.6 55 Z M 61.8 56.4 C 61.8 54.9 61.4 54.7 60.8 54.7 C 60.3 54.7 59.8 55 59.8 56.4 C 59.8 56.4 61.8 56.4 61.8 56.4 Z M 59.8 57 C 59.8 58.4 60.2 58.7 60.9 58.7 C 61.4 58.7 61.7 58.2 61.7 57.7 C 61.7 57.7 62.6 57.7 62.6 57.7 C 62.6 58.8 61.9 59.3 60.9 59.3 C 59.8 59.3 59 59 59 56.8 C 59 55.3 59.1 54.1 60.9 54.1 C 62.3 54.1 62.7 54.9 62.7 56.6 C 62.68 56.56 62.7 57 62.7 57 C 62.7 57 59.84 56.98 59.8 57 Z M 65.8 54.8 C 64.9 54.8 64.8 55.5 64.8 56.8 C 64.8 57.6 64.8 58.7 65.8 58.7 C 66.7 58.7 66.7 57.5 66.7 56.5 C 66.7 55.8 66.7 54.8 65.8 54.8 Z M 66.7 52 L 67.5 52 L 67.5 59.2 L 66.7 59.2 L 66.7 58.6 C 66.7 58.6 66.69 58.65 66.7 58.6 C 66.4 59.1 66.1 59.3 65.5 59.3 C 64.7 59.3 63.9 59 63.9 56.8 C 63.9 55.5 63.9 54.1 65.6 54.1 C 66 54.1 66.4 54.3 66.7 54.7 C 66.68 54.7 66.7 54.7 66.7 54.7 L 66.7 52 Z M 69.8 59.2 L 69 59.2 L 69 54.2 L 69.8 54.2 L 69.8 59.2 Z M 69 52 L 69.9 52 L 69.9 52.9 L 69 52.9 L 69 52 Z M 71.3 54.2 L 71.3 53.2 L 72.2 52.9 L 72.2 54.2 L 73.3 54.2 L 73.3 54.8 L 72.2 54.8 C 72.2 54.8 72.17 57.91 72.2 57.9 C 72.2 58.2 72.2 58.6 72.9 58.6 C 73 58.6 73.1 58.6 73.3 58.6 C 73.3 58.6 73.3 59.2 73.3 59.2 C 73 59.2 72.7 59.3 72.5 59.3 C 71.7 59.3 71.3 59 71.3 58.4 C 71.35 58.41 71.3 54.8 71.3 54.8 L 70.5 54.8 L 70.5 54.2 L 71.3 54.2 Z M 74.8 57.7 C 74.8 58.2 75 58.7 75.6 58.7 C 76.1 58.7 76.7 58.4 76.6 56.7 C 75.8 56.7 74.8 56.7 74.8 57.7 Z M 76.6 58.5 C 76.6 58.5 76.62 58.52 76.6 58.5 C 76.4 59.1 76 59.3 75.3 59.3 C 74.3 59.3 74 58.7 74 57.7 C 74 56.2 75.5 56.1 76.6 56.1 C 76.6 55.4 76.6 54.7 75.8 54.7 C 75.2 54.7 74.9 55.1 75 55.6 C 75 55.6 74.1 55.6 74.1 55.6 C 74.1 54.5 74.7 54.1 75.8 54.1 C 77.1 54.1 77.4 54.8 77.4 55.6 C 77.4 55.6 77.4 58 77.4 58 C 77.4 58.4 77.5 58.9 77.5 59.2 C 77.54 59.24 76.6 59.2 76.6 59.2 L 76.6 58.5 Z M 79.9 55 C 79.9 55 79.91 54.95 79.9 55 C 80.2 54.2 80.7 54.1 81.5 54.1 C 81.5 54.1 81.5 54.9 81.5 54.9 C 81.4 54.9 81.3 54.9 81.2 54.9 C 81.2 54.9 81.1 54.9 81 54.9 C 80.1 54.9 79.9 55.6 79.9 56.3 C 79.89 56.26 79.9 59.2 79.9 59.2 L 79.1 59.2 L 79.1 54.2 L 79.9 54.2 L 79.9 55 Z M 83.9 58.3 L 83.9 58.3 L 85.1 54.2 L 86 54.2 L 83.7 61.2 L 82.9 61.2 L 83.4 59.2 L 81.7 54.2 L 82.7 54.2 L 83.9 58.3 Z M 89.8 57.7 C 89.8 58.2 90 58.7 90.6 58.7 C 91.1 58.7 91.7 58.4 91.6 56.7 C 90.8 56.7 89.8 56.7 89.8 57.7 Z M 91.6 58.5 C 91.6 58.5 91.61 58.52 91.6 58.5 C 91.4 59.1 91 59.3 90.3 59.3 C 89.3 59.3 89 58.7 89 57.7 C 89 56.2 90.5 56.1 91.6 56.1 C 91.6 55.4 91.6 54.7 90.8 54.7 C 90.2 54.7 89.9 55.1 90 55.6 C 90 55.6 89.1 55.6 89.1 55.6 C 89.1 54.5 89.7 54.1 90.8 54.1 C 92.1 54.1 92.4 54.8 92.4 55.6 C 92.4 55.6 92.4 58 92.4 58 C 92.4 58.4 92.5 58.9 92.5 59.2 C 92.53 59.24 91.6 59.2 91.6 59.2 L 91.6 58.5 Z M 96.8 59.2 C 96.8 59.2 96.77 55.74 96.8 55.7 C 96.8 55.2 96.6 54.8 95.9 54.8 C 95 54.8 94.8 55.6 94.8 56.3 C 94.85 56.25 94.8 59.2 94.8 59.2 L 94 59.2 C 94 59.2 94.03 55.24 94 55.2 C 94 54.9 94 54.5 94 54.2 C 93.98 54.2 94.8 54.2 94.8 54.2 L 94.8 54.8 C 94.8 54.8 94.89 54.84 94.9 54.8 C 95.2 54.3 95.6 54.1 96.2 54.1 C 97.3 54.1 97.6 54.7 97.6 55.7 C 97.59 55.74 97.6 59.2 97.6 59.2 L 96.8 59.2 Z M 100.7 54.8 C 99.8 54.8 99.8 55.9 99.8 56.6 C 99.8 58.2 100.1 58.6 100.8 58.6 C 101.7 58.6 101.7 57.4 101.7 56.7 C 101.7 55.9 101.8 54.8 100.7 54.8 Z M 101.7 54.2 L 102.5 54.2 C 102.5 54.2 102.52 59.76 102.5 59.8 C 102.5 60.9 101.8 61.2 100.7 61.2 C 99.8 61.2 99.1 60.7 99.1 59.8 C 99.1 59.8 100 59.8 100 59.8 C 100.1 60.3 100.4 60.5 100.8 60.5 C 101.4 60.5 101.7 60.2 101.7 59.7 C 101.7 59.67 101.7 58.6 101.7 58.6 C 101.7 58.6 101.67 58.62 101.7 58.6 C 101.5 59 101 59.2 100.6 59.2 C 99.2 59.2 98.9 58.1 98.9 56.6 C 98.9 54.2 100.1 54.1 100.5 54.1 C 101 54.1 101.4 54.3 101.7 54.8 C 101.68 54.81 101.7 54.8 101.7 54.8 L 101.7 54.2 Z M 104.8 59.2 L 104 59.2 L 104 54.2 L 104.8 54.2 L 104.8 59.2 Z M 104 52 L 104.9 52 L 104.9 52.9 L 104 52.9 L 104 52 Z M 109.1 56.4 C 109.1 55.1 108.7 54.8 108 54.8 C 107.4 54.8 107 55.1 107 56.4 C 107 58.1 107.2 58.7 108 58.7 C 108.9 58.7 109.1 58.1 109.1 56.4 Z M 106.1 56.8 C 106.1 55.3 106.3 54.1 108 54.1 C 109.8 54.1 109.9 55.3 109.9 56.8 C 109.9 59 109.1 59.3 108 59.3 C 107 59.3 106.1 59 106.1 56.8 Z M 114 56.4 C 114 54.9 113.6 54.7 113 54.7 C 112.5 54.7 112.1 55 112 56.4 C 112 56.4 114 56.4 114 56.4 Z M 112 57 C 112 58.4 112.4 58.7 113.1 58.7 C 113.6 58.7 113.9 58.2 113.9 57.7 C 113.9 57.7 114.8 57.7 114.8 57.7 C 114.8 58.8 114.1 59.3 113.1 59.3 C 112 59.3 111.2 59 111.2 56.8 C 111.2 55.3 111.3 54.1 113.1 54.1 C 114.5 54.1 114.9 54.9 114.9 56.6 C 114.89 56.56 114.9 57 114.9 57 C 114.9 57 112.05 56.98 112 57 Z M 118 54.8 C 117.1 54.8 117 55.5 117 56.8 C 117 57.6 117 58.7 118 58.7 C 118.9 58.7 118.9 57.5 118.9 56.5 C 118.9 55.8 118.9 54.8 118 54.8 Z M 118.9 52 L 119.7 52 L 119.7 59.2 L 118.9 59.2 L 118.9 58.6 C 118.9 58.6 118.9 58.65 118.9 58.6 C 118.6 59.1 118.3 59.3 117.7 59.3 C 116.9 59.3 116.1 59 116.1 56.8 C 116.1 55.5 116.1 54.1 117.8 54.1 C 118.3 54.1 118.6 54.3 118.9 54.7 C 118.89 54.7 118.9 54.7 118.9 54.7 L 118.9 52 Z M 124 56.4 C 124 54.9 123.6 54.7 123 54.7 C 122.5 54.7 122.1 55 122 56.4 C 122 56.4 124 56.4 124 56.4 Z M 122 57 C 122 58.4 122.4 58.7 123.1 58.7 C 123.6 58.7 123.9 58.2 123.9 57.7 C 123.9 57.7 124.8 57.7 124.8 57.7 C 124.8 58.8 124.1 59.3 123.1 59.3 C 122 59.3 121.2 59 121.2 56.8 C 121.2 55.3 121.3 54.1 123.1 54.1 C 124.5 54.1 124.9 54.9 124.9 56.6 C 124.89 56.56 124.9 57 124.9 57 C 124.9 57 122.05 56.98 122 57 Z M 128.7 59.2 C 128.7 59.2 128.73 55.74 128.7 55.7 C 128.7 55.2 128.6 54.8 127.9 54.8 C 127.7 54.8 127.3 54.9 127.2 55.1 C 127.1 55.4 127 55.7 127 55.8 C 127.03 55.85 127 59.2 127 59.2 L 126.2 59.2 C 126.2 59.2 126.21 55.25 126.2 55.2 C 126.2 54.9 126.2 54.5 126.2 54.2 C 126.16 54.2 127 54.2 127 54.2 L 127 54.8 C 127 54.8 127.05 54.82 127 54.8 C 127.3 54.3 127.7 54.1 128.3 54.1 C 128.8 54.1 129.3 54.3 129.5 54.7 C 129.8 54.2 130.2 54.1 130.7 54.1 C 131.2 54.1 132.1 54.2 132.1 55.4 C 132.07 55.4 132.1 59.2 132.1 59.2 L 131.2 59.2 C 131.2 59.2 131.25 55.74 131.2 55.7 C 131.2 55.2 131.1 54.8 130.4 54.8 C 130.1 54.8 130 54.8 129.8 55 C 129.6 55.2 129.5 55.7 129.5 55.8 C 129.55 55.84 129.5 59.2 129.5 59.2 L 128.7 59.2 Z M 134.2 57.7 C 134.2 58.2 134.5 58.7 135 58.7 C 135.5 58.7 136.1 58.4 136 56.7 C 135.3 56.7 134.2 56.7 134.2 57.7 Z M 136.1 58.5 C 136.1 58.5 136.05 58.52 136 58.5 C 135.8 59.1 135.4 59.3 134.8 59.3 C 133.7 59.3 133.4 58.7 133.4 57.7 C 133.4 56.2 134.9 56.1 136 56.1 C 136.1 55.4 136.1 54.7 135.2 54.7 C 134.6 54.7 134.4 55.1 134.4 55.6 C 134.4 55.6 133.5 55.6 133.5 55.6 C 133.6 54.5 134.2 54.1 135.2 54.1 C 136.5 54.1 136.9 54.8 136.9 55.6 C 136.9 55.6 136.9 58 136.9 58 C 136.9 58.4 136.9 58.9 137 59.2 C 136.97 59.24 136.1 59.2 136.1 59.2 L 136.1 58.5 Z M 141.4 57.7 C 141.4 58.2 141.7 58.7 142.2 58.7 C 142.7 58.7 143.3 58.4 143.3 56.7 C 142.5 56.7 141.4 56.7 141.4 57.7 Z M 143.3 58.5 C 143.3 58.5 143.27 58.52 143.3 58.5 C 143 59.1 142.6 59.3 142 59.3 C 140.9 59.3 140.6 58.7 140.6 57.7 C 140.6 56.2 142.1 56.1 143.3 56.1 C 143.3 55.4 143.3 54.7 142.4 54.7 C 141.9 54.7 141.6 55.1 141.6 55.6 C 141.6 55.6 140.7 55.6 140.7 55.6 C 140.8 54.5 141.4 54.1 142.4 54.1 C 143.7 54.1 144.1 54.8 144.1 55.6 C 144.1 55.6 144.1 58 144.1 58 C 144.1 58.4 144.1 58.9 144.2 59.2 C 144.19 59.24 143.3 59.2 143.3 59.2 L 143.3 58.5 Z M 145.8 54.2 L 145.8 53.2 L 146.6 52.9 L 146.6 54.2 L 147.7 54.2 L 147.7 54.8 L 146.6 54.8 C 146.6 54.8 146.6 57.91 146.6 57.9 C 146.6 58.2 146.6 58.6 147.3 58.6 C 147.4 58.6 147.5 58.6 147.7 58.6 C 147.7 58.6 147.7 59.2 147.7 59.2 C 147.4 59.2 147.2 59.3 146.9 59.3 C 146.1 59.3 145.8 59 145.8 58.4 C 145.78 58.41 145.8 54.8 145.8 54.8 L 144.9 54.8 L 144.9 54.2 L 145.8 54.2 Z M 148.6 54.2 L 148.6 53.2 L 149.4 52.9 L 149.4 54.2 L 150.5 54.2 L 150.5 54.8 L 149.4 54.8 C 149.4 54.8 149.38 57.91 149.4 57.9 C 149.4 58.2 149.4 58.6 150.1 58.6 C 150.2 58.6 150.3 58.6 150.5 58.6 C 150.5 58.6 150.5 59.2 150.5 59.2 C 150.2 59.2 150 59.3 149.7 59.3 C 148.9 59.3 148.6 59 148.6 58.4 C 148.56 58.41 148.6 54.8 148.6 54.8 L 147.7 54.8 L 147.7 54.2 L 148.6 54.2 Z M 152 57.7 C 152 58.2 152.2 58.7 152.8 58.7 C 153.3 58.7 153.9 58.4 153.8 56.7 C 153 56.7 152 56.7 152 57.7 Z M 153.8 58.5 C 153.8 58.5 153.83 58.52 153.8 58.5 C 153.6 59.1 153.2 59.3 152.6 59.3 C 151.5 59.3 151.2 58.7 151.2 57.7 C 151.2 56.2 152.7 56.1 153.8 56.1 C 153.8 55.4 153.9 54.7 153 54.7 C 152.4 54.7 152.1 55.1 152.2 55.6 C 152.2 55.6 151.3 55.6 151.3 55.6 C 151.3 54.5 151.9 54.1 153 54.1 C 154.3 54.1 154.6 54.8 154.6 55.6 C 154.6 55.6 154.6 58 154.6 58 C 154.6 58.4 154.7 58.9 154.7 59.2 C 154.75 59.24 153.8 59.2 153.8 59.2 L 153.8 58.5 Z M 158.9 55.8 C 158.9 55 158.5 54.8 158.2 54.8 C 157.6 54.8 157.1 55.1 157.1 56.4 C 157.1 58.1 157.3 58.7 158.2 58.7 C 158.4 58.7 158.9 58.5 158.9 57.6 C 158.9 57.6 159.8 57.6 159.8 57.6 C 159.8 59 158.7 59.3 158.2 59.3 C 157.1 59.3 156.3 59 156.3 56.8 C 156.3 55.3 156.4 54.1 158.2 54.1 C 159.2 54.1 159.8 54.7 159.7 55.8 C 159.7 55.8 158.9 55.8 158.9 55.8 Z M 162.1 59.2 L 161.2 59.2 L 161.2 52 L 162.1 52 L 162.1 56.4 L 162.1 56.4 L 163.6 54.2 L 164.6 54.2 L 162.9 56.4 L 164.9 59.2 L 163.9 59.2 L 162.1 56.4 L 162.1 56.4 L 162.1 59.2 Z M 167.2 59.3 C 166.1 59.3 165.4 58.9 165.4 57.7 C 165.4 57.7 166.4 57.7 166.4 57.7 C 166.4 58 166.4 58.7 167.2 58.7 C 167.7 58.7 168.1 58.4 168.1 57.9 C 168.1 57 165.6 57 165.6 55.5 C 165.6 54.9 165.9 54.1 167.3 54.1 C 168.2 54.1 169 54.5 168.9 55.5 C 168.9 55.5 168 55.5 168 55.5 C 168 55 167.7 54.7 167.2 54.7 C 166.8 54.7 166.4 55 166.4 55.4 C 166.4 56.3 168.9 56.3 168.9 57.8 C 168.9 58.9 168.2 59.3 167.2 59.3 Z M 171 55.2 L 170 55.2 L 170 54.2 L 171 54.2 L 171 55.2 Z M 171 59.2 L 170 59.2 L 170 58.2 L 171 58.2 L 171 59.2 Z M 175.7 55.3 C 175.7 55.3 176.71 55.27 176.7 55.3 C 177.1 55.3 178 55.2 178 54 C 178 52.9 177.2 52.8 177 52.8 C 176.97 52.82 175.7 52.8 175.7 52.8 L 175.7 55.3 Z M 174.8 59.2 L 174.8 52 C 174.8 52 176.92 52.03 176.9 52 C 177.9 52 178.9 52.4 178.9 54.1 C 178.9 55.7 177.6 56.1 176.9 56.1 C 176.91 56.06 175.7 56.1 175.7 56.1 L 175.7 59.2 L 174.8 59.2 Z M 182.9 59.2 C 182.9 59.2 182.87 55.82 182.9 55.8 C 182.9 55.2 182.7 54.8 182 54.8 C 181.1 54.8 180.9 55.4 180.9 56.3 C 180.94 56.27 180.9 59.2 180.9 59.2 L 180.1 59.2 L 180.1 52 L 180.9 52 L 180.9 54.8 C 180.9 54.8 180.98 54.84 181 54.8 C 181.3 54.3 181.7 54.1 182.3 54.1 C 183.2 54.1 183.7 54.5 183.7 55.7 C 183.69 55.66 183.7 59.2 183.7 59.2 L 182.9 59.2 Z M 185.9 57.7 C 185.9 58.2 186.1 58.7 186.7 58.7 C 187.2 58.7 187.8 58.4 187.7 56.7 C 186.9 56.7 185.9 56.7 185.9 57.7 Z M 187.7 58.5 C 187.7 58.5 187.71 58.52 187.7 58.5 C 187.5 59.1 187.1 59.3 186.4 59.3 C 185.4 59.3 185.1 58.7 185.1 57.7 C 185.1 56.2 186.6 56.1 187.7 56.1 C 187.7 55.4 187.7 54.7 186.9 54.7 C 186.3 54.7 186 55.1 186.1 55.6 C 186.1 55.6 185.2 55.6 185.2 55.6 C 185.2 54.5 185.8 54.1 186.9 54.1 C 188.2 54.1 188.5 54.8 188.5 55.6 C 188.5 55.6 188.5 58 188.5 58 C 188.5 58.4 188.6 58.9 188.6 59.2 C 188.63 59.24 187.7 59.2 187.7 59.2 L 187.7 58.5 Z M 191.6 59.3 C 190.5 59.3 189.8 58.9 189.9 57.7 C 189.9 57.7 190.8 57.7 190.8 57.7 C 190.8 58 190.8 58.7 191.6 58.7 C 192.1 58.7 192.5 58.4 192.5 57.9 C 192.5 57 190 57 190 55.5 C 190 54.9 190.3 54.1 191.7 54.1 C 192.6 54.1 193.4 54.5 193.3 55.5 C 193.3 55.5 192.4 55.5 192.4 55.5 C 192.4 55 192.2 54.7 191.6 54.7 C 191.2 54.7 190.9 55 190.9 55.4 C 190.9 56.3 193.4 56.3 193.4 57.8 C 193.4 58.9 192.6 59.3 191.6 59.3 Z M 197.3 56.4 C 197.3 54.9 196.9 54.7 196.3 54.7 C 195.8 54.7 195.4 55 195.4 56.4 C 195.4 56.4 197.3 56.4 197.3 56.4 Z M 195.4 57 C 195.4 58.4 195.7 58.7 196.4 58.7 C 196.9 58.7 197.2 58.2 197.3 57.7 C 197.3 57.7 198.2 57.7 198.2 57.7 C 198.2 58.8 197.5 59.3 196.4 59.3 C 195.3 59.3 194.5 59 194.5 56.8 C 194.5 55.3 194.7 54.1 196.4 54.1 C 197.8 54.1 198.2 54.9 198.2 56.6 C 198.21 56.56 198.2 57 198.2 57 C 198.2 57 195.37 56.98 195.4 57 Z M 202.8 55.2 C 203.6 55.3 204.2 54.9 204.2 54.1 C 204.2 53.4 203.9 53 203.2 53 C 202.5 53 202.3 53.5 202.3 54.1 C 202.3 54.1 201.4 54.1 201.4 54.1 C 201.4 52.9 201.9 52.2 203.2 52.2 C 204.4 52.2 205.1 52.8 205.1 54 C 205.1 55.3 204.1 55.5 203.7 55.6 C 203.7 55.6 203.7 55.6 203.7 55.6 C 204.8 55.8 205.2 56.4 205.2 57.4 C 205.2 58.7 204.4 59.4 203.1 59.4 C 201.2 59.4 201.3 57.7 201.3 57.3 C 201.3 57.3 202.2 57.3 202.2 57.3 C 202.2 58 202.4 58.6 203.2 58.6 C 204 58.6 204.2 58.1 204.2 57.4 C 204.2 56.3 203.8 56 202.8 56 C 202.8 56 202.8 55.2 202.8 55.2 Z M 211.3 56.4 C 211.3 55.1 210.9 54.8 210.2 54.8 C 209.6 54.8 209.2 55.1 209.2 56.4 C 209.2 58.1 209.4 58.7 210.2 58.7 C 211.1 58.7 211.3 58.1 211.3 56.4 Z M 208.3 56.8 C 208.3 55.3 208.5 54.1 210.2 54.1 C 212 54.1 212.1 55.3 212.1 56.8 C 212.1 59 211.3 59.3 210.2 59.3 C 209.2 59.3 208.3 59 208.3 56.8 Z M 216.3 56.6 C 216.3 55.9 216.3 54.8 215.3 54.8 C 214.2 54.8 214.3 56.2 214.3 56.9 C 214.3 57.6 214.4 58.7 215.3 58.7 C 216.2 58.7 216.3 58 216.3 56.6 Z M 214.3 54.8 C 214.3 54.8 214.36 54.79 214.4 54.8 C 214.6 54.3 215 54.1 215.5 54.1 C 216.3 54.1 217.1 54.4 217.1 56.6 C 217.1 57.9 217.1 59.3 215.5 59.3 C 215 59.3 214.6 59.1 214.4 58.7 C 214.37 58.74 214.3 58.7 214.3 58.7 L 214.3 61.2 L 213.5 61.2 L 213.5 54.2 L 214.3 54.2 L 214.3 54.8 Z M 221.2 56.4 C 221.2 54.9 220.8 54.7 220.2 54.7 C 219.7 54.7 219.3 55 219.2 56.4 C 219.2 56.4 221.2 56.4 221.2 56.4 Z M 219.2 57 C 219.2 58.4 219.6 58.7 220.3 58.7 C 220.8 58.7 221.1 58.2 221.1 57.7 C 221.1 57.7 222 57.7 222 57.7 C 222 58.8 221.3 59.3 220.3 59.3 C 219.2 59.3 218.4 59 218.4 56.8 C 218.4 55.3 218.5 54.1 220.3 54.1 C 221.7 54.1 222.1 54.9 222.1 56.6 C 222.09 56.56 222.1 57 222.1 57 C 222.1 57 219.25 56.98 219.2 57 Z M 226.2 59.2 C 226.2 59.2 226.19 55.74 226.2 55.7 C 226.2 55.2 226 54.8 225.3 54.8 C 224.4 54.8 224.3 55.6 224.3 56.3 C 224.27 56.25 224.3 59.2 224.3 59.2 L 223.4 59.2 C 223.4 59.2 223.45 55.24 223.4 55.2 C 223.4 54.9 223.4 54.5 223.4 54.2 C 223.4 54.2 224.3 54.2 224.3 54.2 L 224.3 54.8 C 224.3 54.8 224.31 54.84 224.3 54.8 C 224.6 54.3 225 54.1 225.7 54.1 C 226.7 54.1 227 54.7 227 55.7 C 227.01 55.74 227 59.2 227 59.2 L 226.2 59.2 Z M 228.3 56.1 L 230.5 56.1 L 230.5 56.9 L 228.3 56.9 L 228.3 56.1 Z M 232.6 59.2 L 231.8 59.2 L 231.8 52 L 232.6 52 L 232.6 59.2 Z M 234.7 57.7 C 234.7 58.2 235 58.7 235.5 58.7 C 236 58.7 236.7 58.4 236.6 56.7 C 235.8 56.7 234.7 56.7 234.7 57.7 Z M 236.6 58.5 C 236.6 58.5 236.58 58.52 236.6 58.5 C 236.3 59.1 235.9 59.3 235.3 59.3 C 234.2 59.3 233.9 58.7 233.9 57.7 C 233.9 56.2 235.4 56.1 236.6 56.1 C 236.6 55.4 236.6 54.7 235.7 54.7 C 235.2 54.7 234.9 55.1 234.9 55.6 C 234.9 55.6 234 55.6 234 55.6 C 234.1 54.5 234.7 54.1 235.8 54.1 C 237.1 54.1 237.4 54.8 237.4 55.6 C 237.4 55.6 237.4 58 237.4 58 C 237.4 58.4 237.4 58.9 237.5 59.2 C 237.5 59.24 236.6 59.2 236.6 59.2 L 236.6 58.5 Z M 240.8 58.7 C 241.8 58.7 241.8 57.6 241.8 56.8 C 241.8 55.5 241.7 54.8 240.8 54.8 C 239.9 54.8 239.9 55.8 239.9 56.5 C 239.9 57.3 239.8 58.7 240.8 58.7 Z M 239.9 59.2 L 239.1 59.2 L 239.1 52 L 239.9 52 L 239.9 54.7 C 239.9 54.7 239.92 54.7 239.9 54.7 C 240.2 54.3 240.5 54.1 241 54.1 C 242.7 54.1 242.7 55.5 242.7 56.8 C 242.7 59 241.9 59.3 241.1 59.3 C 240.5 59.3 240.2 59.1 239.9 58.6 C 239.91 58.65 239.9 58.6 239.9 58.6 L 239.9 59.2 Z M 246.8 56.4 C 246.8 54.9 246.4 54.7 245.8 54.7 C 245.2 54.7 244.8 55 244.8 56.4 C 244.8 56.4 246.8 56.4 246.8 56.4 Z M 244.8 57 C 244.8 58.4 245.2 58.7 245.8 58.7 C 246.4 58.7 246.7 58.2 246.7 57.7 C 246.7 57.7 247.6 57.7 247.6 57.7 C 247.6 58.8 246.9 59.3 245.8 59.3 C 244.8 59.3 243.9 59 243.9 56.8 C 243.9 55.3 244.1 54.1 245.8 54.1 C 247.3 54.1 247.6 54.9 247.6 56.6 C 247.64 56.56 247.6 57 247.6 57 C 247.6 57 244.8 56.98 244.8 57 Z M 249.8 59.2 L 249 59.2 L 249 52 L 249.8 52 L 249.8 59.2 Z M 256.2 56.4 C 256.2 54.9 255.8 54.7 255.2 54.7 C 254.7 54.7 254.2 55 254.2 56.4 C 254.2 56.4 256.2 56.4 256.2 56.4 Z M 254.2 57 C 254.2 58.4 254.6 58.7 255.3 58.7 C 255.8 58.7 256.1 58.2 256.1 57.7 C 256.1 57.7 257 57.7 257 57.7 C 257 58.8 256.3 59.3 255.3 59.3 C 254.2 59.3 253.4 59 253.4 56.8 C 253.4 55.3 253.5 54.1 255.3 54.1 C 256.7 54.1 257.1 54.9 257.1 56.6 C 257.08 56.56 257.1 57 257.1 57 C 257.1 57 254.24 56.98 254.2 57 Z M 262.1 59.2 L 261 59.2 L 259.8 57.2 L 258.7 59.2 L 257.8 59.2 L 259.3 56.6 L 257.9 54.2 L 259 54.2 L 259.9 56 L 260.9 54.2 L 261.9 54.2 L 260.4 56.6 L 262.1 59.2 Z M 263 54.2 L 263 53.2 L 263.8 52.9 L 263.8 54.2 L 264.9 54.2 L 264.9 54.8 L 263.8 54.8 C 263.8 54.8 263.79 57.91 263.8 57.9 C 263.8 58.2 263.8 58.6 264.5 58.6 C 264.6 58.6 264.7 58.6 264.9 58.6 C 264.9 58.6 264.9 59.2 264.9 59.2 C 264.6 59.2 264.4 59.3 264.1 59.3 C 263.3 59.3 263 59 263 58.4 C 262.97 58.41 263 54.8 263 54.8 L 262.1 54.8 L 262.1 54.2 L 263 54.2 Z M 268.4 56.4 C 268.4 54.9 268 54.7 267.4 54.7 C 266.9 54.7 266.5 55 266.5 56.4 C 266.5 56.4 268.4 56.4 268.4 56.4 Z M 266.5 57 C 266.5 58.4 266.8 58.7 267.5 58.7 C 268 58.7 268.3 58.2 268.4 57.7 C 268.4 57.7 269.3 57.7 269.3 57.7 C 269.2 58.8 268.6 59.3 267.5 59.3 C 266.4 59.3 265.6 59 265.6 56.8 C 265.6 55.3 265.7 54.1 267.5 54.1 C 268.9 54.1 269.3 54.9 269.3 56.6 C 269.3 56.56 269.3 57 269.3 57 C 269.3 57 266.46 56.98 266.5 57 Z M 273.4 59.2 C 273.4 59.2 273.4 55.74 273.4 55.7 C 273.4 55.2 273.2 54.8 272.5 54.8 C 271.6 54.8 271.5 55.6 271.5 56.3 C 271.48 56.25 271.5 59.2 271.5 59.2 L 270.7 59.2 C 270.7 59.2 270.66 55.24 270.7 55.2 C 270.7 54.9 270.6 54.5 270.6 54.2 C 270.61 54.2 271.5 54.2 271.5 54.2 L 271.5 54.8 C 271.5 54.8 271.52 54.84 271.5 54.8 C 271.8 54.3 272.2 54.1 272.9 54.1 C 273.9 54.1 274.2 54.7 274.2 55.7 C 274.22 55.74 274.2 59.2 274.2 59.2 L 273.4 59.2 Z M 277.1 59.3 C 276.1 59.3 275.4 58.9 275.4 57.7 C 275.4 57.7 276.3 57.7 276.3 57.7 C 276.3 58 276.3 58.7 277.2 58.7 C 277.7 58.7 278 58.4 278 57.9 C 278 57 275.5 57 275.5 55.5 C 275.5 54.9 275.8 54.1 277.3 54.1 C 278.2 54.1 278.9 54.5 278.9 55.5 C 278.9 55.5 278 55.5 278 55.5 C 278 55 277.7 54.7 277.2 54.7 C 276.7 54.7 276.4 55 276.4 55.4 C 276.4 56.3 278.9 56.3 278.9 57.8 C 278.9 58.9 278.1 59.3 277.1 59.3 Z M 280.9 59.2 L 280.1 59.2 L 280.1 54.2 L 280.9 54.2 L 280.9 59.2 Z M 280 52 L 280.9 52 L 280.9 52.9 L 280 52.9 L 280 52 Z M 285.2 56.4 C 285.2 55.1 284.7 54.8 284.1 54.8 C 283.5 54.8 283 55.1 283 56.4 C 283 58.1 283.2 58.7 284.1 58.7 C 284.9 58.7 285.2 58.1 285.2 56.4 Z M 282.2 56.8 C 282.2 55.3 282.3 54.1 284.1 54.1 C 285.8 54.1 286 55.3 286 56.8 C 286 59 285.2 59.3 284.1 59.3 C 283 59.3 282.2 59 282.2 56.8 Z M 290.1 59.2 C 290.1 59.2 290.06 55.74 290.1 55.7 C 290.1 55.2 289.9 54.8 289.2 54.8 C 288.3 54.8 288.1 55.6 288.1 56.3 C 288.14 56.25 288.1 59.2 288.1 59.2 L 287.3 59.2 C 287.3 59.2 287.32 55.24 287.3 55.2 C 287.3 54.9 287.3 54.5 287.3 54.2 C 287.27 54.2 288.1 54.2 288.1 54.2 L 288.1 54.8 C 288.1 54.8 288.18 54.84 288.2 54.8 C 288.5 54.3 288.9 54.1 289.5 54.1 C 290.6 54.1 290.9 54.7 290.9 55.7 C 290.88 55.74 290.9 59.2 290.9 59.2 L 290.1 59.2 Z M 296 59.3 C 294.9 59.3 294.3 58.9 294.3 57.7 C 294.3 57.7 295.2 57.7 295.2 57.7 C 295.2 58 295.2 58.7 296.1 58.7 C 296.5 58.7 296.9 58.4 296.9 57.9 C 296.9 57 294.4 57 294.4 55.5 C 294.4 54.9 294.7 54.1 296.1 54.1 C 297 54.1 297.8 54.5 297.7 55.5 C 297.7 55.5 296.8 55.5 296.8 55.5 C 296.8 55 296.6 54.7 296 54.7 C 295.6 54.7 295.3 55 295.3 55.4 C 295.3 56.3 297.8 56.3 297.8 57.8 C 297.8 58.9 297 59.3 296 59.3 Z M 299.1 54.2 L 299.1 53.2 L 299.9 52.9 L 299.9 54.2 L 301 54.2 L 301 54.8 L 299.9 54.8 C 299.9 54.8 299.89 57.91 299.9 57.9 C 299.9 58.2 299.9 58.6 300.6 58.6 C 300.7 58.6 300.8 58.6 301 58.6 C 301 58.6 301 59.2 301 59.2 C 300.7 59.2 300.5 59.3 300.2 59.3 C 299.4 59.3 299.1 59 299.1 58.4 C 299.07 58.41 299.1 54.8 299.1 54.8 L 298.2 54.8 L 298.2 54.2 L 299.1 54.2 Z M 304.5 54.2 L 305.3 54.2 C 305.3 54.2 305.28 58.2 305.3 58.2 C 305.3 58.5 305.3 58.9 305.3 59.2 C 305.33 59.24 304.5 59.2 304.5 59.2 L 304.5 58.6 C 304.5 58.6 304.43 58.64 304.4 58.6 C 304.2 59.1 303.7 59.3 303.1 59.3 C 302.3 59.3 301.8 58.9 301.8 58 C 301.79 58.05 301.8 54.2 301.8 54.2 L 302.6 54.2 C 302.6 54.2 302.61 57.7 302.6 57.7 C 302.6 58.3 302.9 58.7 303.5 58.7 C 303.9 58.7 304.5 58.4 304.5 57.5 C 304.46 57.55 304.5 54.2 304.5 54.2 Z M 308.5 54.8 C 307.6 54.8 307.5 55.5 307.5 56.8 C 307.5 57.6 307.5 58.7 308.5 58.7 C 309.4 58.7 309.4 57.5 309.4 56.5 C 309.4 55.8 309.4 54.8 308.5 54.8 Z M 309.4 52 L 310.2 52 L 310.2 59.2 L 309.4 59.2 L 309.4 58.6 C 309.4 58.6 309.41 58.65 309.4 58.6 C 309.1 59.1 308.8 59.3 308.2 59.3 C 307.4 59.3 306.6 59 306.6 56.8 C 306.6 55.5 306.7 54.1 308.3 54.1 C 308.8 54.1 309.1 54.3 309.4 54.7 C 309.4 54.7 309.4 54.7 309.4 54.7 L 309.4 52 Z M 313.3 58.3 L 313.3 58.3 L 314.5 54.2 L 315.4 54.2 L 313.1 61.2 L 312.3 61.2 L 312.8 59.2 L 311.1 54.2 L 312.1 54.2 L 313.3 58.3 Z M 316.7 59.2 L 315.7 59.2 L 315.7 58.2 L 316.7 58.2 L 316.7 59.2 Z " stroke="none" fill="#555555"/>  </g>  <g id="Polygon202216">    <path d="M 2.1 43.1 C 2.1 43.1 2.78 43.15 2.8 43.1 C 3.4 43.1 3.6 42.5 3.6 42.1 C 3.6 41.4 3.3 41.1 2.8 41.1 C 2.78 41.13 2.1 41.1 2.1 41.1 L 2.1 43.1 Z M 2.1 47.2 L 0.6 47.2 L 0.6 40 C 0.6 40 3.39 40.03 3.4 40 C 4.4 40 5.1 40.7 5.1 41.9 C 5.1 42.8 4.7 43.5 3.7 43.7 C 3.7 43.7 3.7 43.7 3.7 43.7 C 4.1 43.7 5 43.8 5 45.1 C 5 45.6 5.1 46.9 5.2 47.2 C 5.2 47.2 3.7 47.2 3.7 47.2 C 3.5 46.8 3.6 46.3 3.6 45.8 C 3.6 45 3.7 44.3 2.5 44.3 C 2.5 44.25 2.1 44.3 2.1 44.3 L 2.1 47.2 Z M 8.7 44.2 C 8.7 43.7 8.7 43 8.1 43 C 7.4 43 7.4 43.7 7.4 44.2 C 7.4 44.2 8.7 44.2 8.7 44.2 Z M 7.4 44.9 C 7.4 45.5 7.4 46.4 8.1 46.4 C 8.6 46.4 8.7 46 8.7 45.5 C 8.7 45.5 10.1 45.5 10.1 45.5 C 10.1 46.1 9.9 46.5 9.5 46.9 C 9.2 47.2 8.7 47.3 8.1 47.3 C 6.2 47.3 6 46.2 6 44.7 C 6 43.3 6.2 42.1 8.1 42.1 C 10 42.1 10.2 43.3 10.1 44.9 C 10.1 44.9 7.4 44.9 7.4 44.9 Z M 13.3 40.9 C 12.7 40.9 12.6 41.1 12.6 41.6 C 12.6 41.59 12.6 42.2 12.6 42.2 L 13.3 42.2 L 13.3 43.1 L 12.6 43.1 L 12.6 47.2 L 11.2 47.2 L 11.2 43.1 L 10.6 43.1 L 10.6 42.2 C 10.6 42.2 11.2 42.2 11.2 42.2 C 11.2 40.7 11.1 40 12.8 40 C 13 40 13.1 40 13.3 40 C 13.3 40 13.3 40.9 13.3 40.9 Z M 16.5 44.2 C 16.5 43.7 16.5 43 15.8 43 C 15.2 43 15.2 43.7 15.2 44.2 C 15.2 44.2 16.5 44.2 16.5 44.2 Z M 15.2 44.9 C 15.2 45.5 15.2 46.4 15.8 46.4 C 16.3 46.4 16.4 46 16.4 45.5 C 16.4 45.5 17.9 45.5 17.9 45.5 C 17.8 46.1 17.7 46.5 17.3 46.9 C 17 47.2 16.5 47.3 15.8 47.3 C 14 47.3 13.8 46.2 13.8 44.7 C 13.8 43.3 14 42.1 15.8 42.1 C 17.7 42.1 17.9 43.3 17.9 44.9 C 17.9 44.9 15.2 44.9 15.2 44.9 Z M 20.2 42.2 L 20.2 42.8 C 20.2 42.8 20.26 42.85 20.3 42.8 C 20.5 42.3 21 42.1 21.6 42.1 C 21.6 42.1 21.6 43.4 21.6 43.4 C 20.3 43.3 20.3 44 20.3 44.5 C 20.31 44.5 20.3 47.2 20.3 47.2 L 18.9 47.2 L 18.9 42.2 L 20.2 42.2 Z M 24.8 44.2 C 24.8 43.7 24.8 43 24.2 43 C 23.5 43 23.5 43.7 23.5 44.2 C 23.5 44.2 24.8 44.2 24.8 44.2 Z M 23.5 44.9 C 23.5 45.5 23.5 46.4 24.2 46.4 C 24.7 46.4 24.8 46 24.8 45.5 C 24.8 45.5 26.2 45.5 26.2 45.5 C 26.2 46.1 26 46.5 25.7 46.9 C 25.3 47.2 24.8 47.3 24.2 47.3 C 22.4 47.3 22.1 46.2 22.1 44.7 C 22.1 43.3 22.3 42.1 24.2 42.1 C 26.1 42.1 26.3 43.3 26.2 44.9 C 26.2 44.9 23.5 44.9 23.5 44.9 Z M 28.6 42.7 C 28.6 42.7 28.66 42.71 28.7 42.7 C 28.8 42.5 29 42.3 29.2 42.2 C 29.4 42.1 29.6 42.1 29.9 42.1 C 30.5 42.1 31.1 42.5 31.1 43.2 C 31.11 43.19 31.1 47.2 31.1 47.2 L 29.7 47.2 C 29.7 47.2 29.7 43.76 29.7 43.8 C 29.7 43.3 29.6 43 29.2 43 C 28.7 43 28.6 43.3 28.6 43.8 C 28.64 43.76 28.6 47.2 28.6 47.2 L 27.2 47.2 L 27.2 42.2 L 28.6 42.2 L 28.6 42.7 Z M 34.8 44 C 34.8 43.2 34.6 43 34.2 43 C 33.6 43 33.5 43.5 33.5 44.6 C 33.5 46.1 33.6 46.4 34.2 46.4 C 34.6 46.4 34.8 46 34.8 45.4 C 34.8 45.4 36.2 45.4 36.2 45.4 C 36.2 46.8 35.5 47.3 34.2 47.3 C 32.4 47.3 32.1 46.2 32.1 44.7 C 32.1 43.3 32.3 42.1 34.2 42.1 C 35.5 42.1 36.2 42.7 36.2 44 C 36.2 44 34.8 44 34.8 44 Z M 39.8 44.2 C 39.8 43.7 39.8 43 39.2 43 C 38.5 43 38.5 43.7 38.5 44.2 C 38.5 44.2 39.8 44.2 39.8 44.2 Z M 38.5 44.9 C 38.5 45.5 38.5 46.4 39.2 46.4 C 39.7 46.4 39.8 46 39.8 45.5 C 39.8 45.5 41.2 45.5 41.2 45.5 C 41.2 46.1 41 46.5 40.7 46.9 C 40.3 47.2 39.8 47.3 39.2 47.3 C 37.4 47.3 37.1 46.2 37.1 44.7 C 37.1 43.3 37.3 42.1 39.2 42.1 C 41.1 42.1 41.3 43.3 41.2 44.9 C 41.2 44.9 38.5 44.9 38.5 44.9 Z M 43.3 45.6 C 43.3 45.9 43.3 46.1 43.4 46.2 C 43.5 46.4 43.6 46.5 43.9 46.5 C 44.2 46.5 44.4 46.3 44.4 46 C 44.4 44.9 42 45.1 42 43.5 C 42 42.4 43 42.1 44 42.1 C 44.9 42.1 45.8 42.6 45.7 43.6 C 45.7 43.6 44.3 43.6 44.3 43.6 C 44.3 43.3 44.3 43.1 44.2 43 C 44.1 42.9 44 42.9 43.8 42.9 C 43.5 42.9 43.3 43.1 43.3 43.4 C 43.3 44.2 45.8 44.2 45.8 45.8 C 45.8 46.7 45.1 47.3 43.9 47.3 C 42.7 47.3 41.9 47 42 45.6 C 42 45.6 43.3 45.6 43.3 45.6 Z M 47.8 42.2 L 47.8 43.5 L 46.6 43.5 L 46.6 42.2 L 47.8 42.2 Z M 47.8 47.2 L 46.6 47.2 L 46.6 45.9 L 47.8 45.9 L 47.8 47.2 Z M 52.2 43.2 C 53.1 43.3 53.7 42.9 53.7 42.1 C 53.7 41.4 53.4 41 52.7 41 C 51.9 41 51.8 41.5 51.8 42.1 C 51.8 42.1 50.9 42.1 50.9 42.1 C 50.8 40.9 51.4 40.2 52.7 40.2 C 53.9 40.2 54.6 40.8 54.6 42 C 54.6 43.3 53.6 43.5 53.2 43.6 C 53.2 43.6 53.2 43.6 53.2 43.6 C 54.3 43.8 54.6 44.4 54.6 45.4 C 54.6 46.7 53.9 47.4 52.6 47.4 C 50.7 47.4 50.8 45.7 50.8 45.3 C 50.8 45.3 51.7 45.3 51.7 45.3 C 51.7 46 51.8 46.6 52.7 46.6 C 53.5 46.6 53.7 46.1 53.7 45.4 C 53.7 44.3 53.3 44 52.2 44 C 52.2 44 52.2 43.2 52.2 43.2 Z M 56.6 47.2 L 55.6 47.2 L 55.6 46.2 L 56.6 46.2 L 56.6 47.2 Z M 61.1 43.1 C 61.1 43.1 62.52 43.13 62.5 43.1 C 63.2 43.1 63.5 42.6 63.5 41.9 C 63.5 41.4 63.2 40.8 62.5 40.8 C 62.53 40.82 61.1 40.8 61.1 40.8 L 61.1 43.1 Z M 61.1 43.9 L 61.1 47.2 L 60.2 47.2 L 60.2 40 C 60.2 40 62.71 40.03 62.7 40 C 64 40 64.4 40.9 64.4 41.8 C 64.4 42.7 64 43.3 63.1 43.5 C 63.1 43.5 63.1 43.5 63.1 43.5 C 63.9 43.6 64.2 43.9 64.3 45.4 C 64.3 45.7 64.4 46.8 64.5 47.2 C 64.5 47.2 63.6 47.2 63.6 47.2 C 63.3 46.7 63.4 45.8 63.3 44.8 C 63.2 44 62.5 43.9 62.2 43.9 C 62.22 43.92 61.1 43.9 61.1 43.9 Z M 68.5 44.4 C 68.5 42.9 68.1 42.7 67.5 42.7 C 66.9 42.7 66.5 43 66.5 44.4 C 66.5 44.4 68.5 44.4 68.5 44.4 Z M 66.5 45 C 66.5 46.4 66.9 46.7 67.5 46.7 C 68.1 46.7 68.4 46.2 68.4 45.7 C 68.4 45.7 69.3 45.7 69.3 45.7 C 69.3 46.8 68.6 47.3 67.5 47.3 C 66.5 47.3 65.6 47 65.6 44.8 C 65.6 43.3 65.8 42.1 67.5 42.1 C 69 42.1 69.3 42.9 69.3 44.6 C 69.35 44.56 69.3 45 69.3 45 C 69.3 45 66.51 44.98 66.5 45 Z M 72.2 47.3 C 71.1 47.3 70.4 46.9 70.5 45.7 C 70.5 45.7 71.4 45.7 71.4 45.7 C 71.4 46 71.4 46.7 72.2 46.7 C 72.7 46.7 73.1 46.4 73.1 45.9 C 73.1 45 70.6 45 70.6 43.5 C 70.6 42.9 70.9 42.1 72.3 42.1 C 73.2 42.1 74 42.5 73.9 43.5 C 73.9 43.5 73 43.5 73 43.5 C 73 43 72.7 42.7 72.2 42.7 C 71.8 42.7 71.4 43 71.4 43.4 C 71.4 44.3 74 44.3 74 45.8 C 74 46.9 73.2 47.3 72.2 47.3 Z M 77.9 47.2 C 77.9 47.2 77.89 43.82 77.9 43.8 C 77.9 43.2 77.7 42.8 77 42.8 C 76.2 42.8 76 43.4 76 44.3 C 75.96 44.27 76 47.2 76 47.2 L 75.1 47.2 L 75.1 40 L 76 40 L 76 42.8 C 76 42.8 76 42.84 76 42.8 C 76.3 42.3 76.7 42.1 77.4 42.1 C 78.2 42.1 78.7 42.5 78.7 43.7 C 78.71 43.66 78.7 47.2 78.7 47.2 L 77.9 47.2 Z M 82.9 44.4 C 82.9 42.9 82.5 42.7 81.9 42.7 C 81.4 42.7 81 43 80.9 44.4 C 80.9 44.4 82.9 44.4 82.9 44.4 Z M 80.9 45 C 80.9 46.4 81.3 46.7 82 46.7 C 82.5 46.7 82.8 46.2 82.8 45.7 C 82.8 45.7 83.7 45.7 83.7 45.7 C 83.7 46.8 83 47.3 82 47.3 C 80.9 47.3 80.1 47 80.1 44.8 C 80.1 43.3 80.2 42.1 82 42.1 C 83.4 42.1 83.8 42.9 83.8 44.6 C 83.79 44.56 83.8 45 83.8 45 C 83.8 45 80.95 44.98 80.9 45 Z M 85.3 42.2 C 85.3 42.2 85.3 41.22 85.3 41.2 C 85.3 40.2 86 40 86.7 40 C 86.9 40 87 40 87.1 40 C 87.1 40 87.1 40.6 87.1 40.6 C 86.3 40.6 86.1 40.9 86.1 41.3 C 86.12 41.34 86.1 42.2 86.1 42.2 L 87.1 42.2 L 87.1 42.8 L 86.1 42.8 L 86.1 47.2 L 85.3 47.2 L 85.3 42.8 L 84.5 42.8 L 84.5 42.2 L 85.3 42.2 Z M 91.9 40 L 93 40 L 95.4 47.2 L 94.4 47.2 L 93.8 45.5 L 91 45.5 L 90.5 47.2 L 89.6 47.2 L 91.9 40 Z M 92.4 40.9 L 92.4 40.9 L 91.3 44.7 L 93.6 44.7 L 92.4 40.9 Z M 96.4 46.2 L 97.4 46.2 L 96.5 48.5 L 95.9 48.5 L 96.4 46.2 Z M 103.5 44.4 C 103.5 42.9 103.1 42.7 102.5 42.7 C 101.9 42.7 101.5 43 101.5 44.4 C 101.5 44.4 103.5 44.4 103.5 44.4 Z M 101.5 45 C 101.5 46.4 101.9 46.7 102.5 46.7 C 103.1 46.7 103.4 46.2 103.4 45.7 C 103.4 45.7 104.3 45.7 104.3 45.7 C 104.3 46.8 103.6 47.3 102.5 47.3 C 101.5 47.3 100.6 47 100.6 44.8 C 100.6 43.3 100.8 42.1 102.5 42.1 C 104 42.1 104.3 42.9 104.3 44.6 C 104.34 44.56 104.3 45 104.3 45 C 104.3 45 101.5 44.98 101.5 45 Z M 105.8 42.2 L 105.8 41.2 L 106.6 40.9 L 106.6 42.2 L 107.7 42.2 L 107.7 42.8 L 106.6 42.8 C 106.6 42.8 106.61 45.91 106.6 45.9 C 106.6 46.2 106.6 46.6 107.4 46.6 C 107.4 46.6 107.5 46.6 107.7 46.6 C 107.7 46.6 107.7 47.2 107.7 47.2 C 107.5 47.2 107.2 47.3 106.9 47.3 C 106.1 47.3 105.8 47 105.8 46.4 C 105.79 46.41 105.8 42.8 105.8 42.8 L 105 42.8 L 105 42.2 L 105.8 42.2 Z M 111.4 45.7 C 111.4 46.2 111.7 46.7 112.2 46.7 C 112.7 46.7 113.4 46.4 113.3 44.7 C 112.5 44.7 111.4 44.7 111.4 45.7 Z M 113.3 46.5 C 113.3 46.5 113.28 46.52 113.3 46.5 C 113 47.1 112.6 47.3 112 47.3 C 110.9 47.3 110.6 46.7 110.6 45.7 C 110.6 44.2 112.1 44.1 113.3 44.1 C 113.3 43.4 113.3 42.7 112.4 42.7 C 111.9 42.7 111.6 43.1 111.6 43.6 C 111.6 43.6 110.7 43.6 110.7 43.6 C 110.8 42.5 111.4 42.1 112.5 42.1 C 113.8 42.1 114.1 42.8 114.1 43.6 C 114.1 43.6 114.1 46 114.1 46 C 114.1 46.4 114.1 46.9 114.2 47.2 C 114.2 47.24 113.3 47.2 113.3 47.2 L 113.3 46.5 Z M 116.5 47.2 L 115.7 47.2 L 115.7 40 L 116.5 40 L 116.5 47.2 Z M 118.8 47.2 L 117.8 47.2 L 117.8 46.2 L 118.8 46.2 L 118.8 47.2 Z M 122.4 47.2 L 122.4 40 L 123.4 40 L 123.4 46.4 L 126 46.4 L 126 47.2 L 122.4 47.2 Z M 129.6 44.4 C 129.6 43.1 129.2 42.8 128.6 42.8 C 127.9 42.8 127.5 43.1 127.5 44.4 C 127.5 46.1 127.7 46.7 128.6 46.7 C 129.4 46.7 129.6 46.1 129.6 44.4 Z M 126.7 44.8 C 126.7 43.3 126.8 42.1 128.6 42.1 C 130.3 42.1 130.5 43.3 130.5 44.8 C 130.5 47 129.6 47.3 128.6 47.3 C 127.5 47.3 126.7 47 126.7 44.8 Z M 134.5 47.2 C 134.5 47.2 134.54 43.74 134.5 43.7 C 134.5 43.2 134.3 42.8 133.6 42.8 C 132.7 42.8 132.6 43.6 132.6 44.3 C 132.62 44.25 132.6 47.2 132.6 47.2 L 131.8 47.2 C 131.8 47.2 131.8 43.24 131.8 43.2 C 131.8 42.9 131.8 42.5 131.7 42.2 C 131.75 42.2 132.6 42.2 132.6 42.2 L 132.6 42.8 C 132.6 42.8 132.66 42.84 132.7 42.8 C 133 42.3 133.4 42.1 134 42.1 C 135.1 42.1 135.4 42.7 135.4 43.7 C 135.36 43.74 135.4 47.2 135.4 47.2 L 134.5 47.2 Z M 138.5 42.8 C 137.6 42.8 137.5 43.9 137.5 44.6 C 137.5 46.2 137.9 46.6 138.5 46.6 C 139.5 46.6 139.5 45.4 139.5 44.7 C 139.5 43.9 139.5 42.8 138.5 42.8 Z M 139.5 42.2 L 140.3 42.2 C 140.3 42.2 140.29 47.76 140.3 47.8 C 140.3 48.9 139.5 49.2 138.4 49.2 C 137.6 49.2 136.8 48.7 136.9 47.8 C 136.9 47.8 137.8 47.8 137.8 47.8 C 137.8 48.3 138.1 48.5 138.6 48.5 C 139.2 48.5 139.5 48.2 139.5 47.7 C 139.47 47.67 139.5 46.6 139.5 46.6 C 139.5 46.6 139.44 46.62 139.4 46.6 C 139.2 47 138.8 47.2 138.3 47.2 C 137 47.2 136.7 46.1 136.7 44.6 C 136.7 42.2 137.9 42.1 138.3 42.1 C 138.8 42.1 139.2 42.3 139.4 42.8 C 139.45 42.81 139.5 42.8 139.5 42.8 L 139.5 42.2 Z M 141.6 44.1 L 143.8 44.1 L 143.8 44.9 L 141.6 44.9 L 141.6 44.1 Z M 145.2 42.2 L 145.2 41.2 L 146 40.9 L 146 42.2 L 147.1 42.2 L 147.1 42.8 L 146 42.8 C 146 42.8 146.04 45.91 146 45.9 C 146 46.2 146 46.6 146.8 46.6 C 146.8 46.6 147 46.6 147.2 46.6 C 147.2 46.6 147.2 47.2 147.2 47.2 C 146.9 47.2 146.6 47.3 146.3 47.3 C 145.6 47.3 145.2 47 145.2 46.4 C 145.22 46.41 145.2 42.8 145.2 42.8 L 144.4 42.8 L 144.4 42.2 L 145.2 42.2 Z M 150.7 44.4 C 150.7 42.9 150.3 42.7 149.7 42.7 C 149.1 42.7 148.7 43 148.7 44.4 C 148.7 44.4 150.7 44.4 150.7 44.4 Z M 148.7 45 C 148.7 46.4 149.1 46.7 149.7 46.7 C 150.3 46.7 150.6 46.2 150.6 45.7 C 150.6 45.7 151.5 45.7 151.5 45.7 C 151.5 46.8 150.8 47.3 149.7 47.3 C 148.7 47.3 147.8 47 147.8 44.8 C 147.8 43.3 148 42.1 149.7 42.1 C 151.2 42.1 151.5 42.9 151.5 44.6 C 151.55 44.56 151.5 45 151.5 45 C 151.5 45 148.71 44.98 148.7 45 Z M 153.8 43 C 153.8 43 153.78 42.95 153.8 43 C 154.1 42.2 154.5 42.1 155.3 42.1 C 155.3 42.1 155.3 42.9 155.3 42.9 C 155.3 42.9 155.2 42.9 155.1 42.9 C 155 42.9 155 42.9 154.9 42.9 C 154 42.9 153.8 43.6 153.8 44.3 C 153.76 44.26 153.8 47.2 153.8 47.2 L 152.9 47.2 L 152.9 42.2 L 153.8 42.2 L 153.8 43 Z M 158.7 47.2 C 158.7 47.2 158.72 43.74 158.7 43.7 C 158.7 43.2 158.6 42.8 157.9 42.8 C 157.7 42.8 157.3 42.9 157.2 43.1 C 157.1 43.4 157 43.7 157 43.8 C 157.02 43.85 157 47.2 157 47.2 L 156.2 47.2 C 156.2 47.2 156.2 43.25 156.2 43.2 C 156.2 42.9 156.2 42.5 156.1 42.2 C 156.15 42.2 157 42.2 157 42.2 L 157 42.8 C 157 42.8 157.04 42.82 157 42.8 C 157.3 42.3 157.7 42.1 158.3 42.1 C 158.8 42.1 159.3 42.3 159.5 42.7 C 159.8 42.2 160.2 42.1 160.7 42.1 C 161.2 42.1 162.1 42.2 162.1 43.4 C 162.06 43.4 162.1 47.2 162.1 47.2 L 161.2 47.2 C 161.2 47.2 161.24 43.74 161.2 43.7 C 161.2 43.2 161.1 42.8 160.4 42.8 C 160.1 42.8 160 42.8 159.8 43 C 159.6 43.2 159.5 43.7 159.5 43.8 C 159.54 43.84 159.5 47.2 159.5 47.2 L 158.7 47.2 Z M 167.2 47.3 C 166.1 47.3 165.4 46.9 165.4 45.7 C 165.4 45.7 166.4 45.7 166.4 45.7 C 166.4 46 166.4 46.7 167.2 46.7 C 167.7 46.7 168.1 46.4 168.1 45.9 C 168.1 45 165.5 45 165.5 43.5 C 165.5 42.9 165.9 42.1 167.3 42.1 C 168.2 42.1 169 42.5 168.9 43.5 C 168.9 43.5 168 43.5 168 43.5 C 168 43 167.7 42.7 167.2 42.7 C 166.7 42.7 166.4 43 166.4 43.4 C 166.4 44.3 168.9 44.3 168.9 45.8 C 168.9 46.9 168.2 47.3 167.2 47.3 Z M 170.9 45.7 C 170.9 46.2 171.1 46.7 171.7 46.7 C 172.2 46.7 172.8 46.4 172.7 44.7 C 171.9 44.7 170.9 44.7 170.9 45.7 Z M 172.7 46.5 C 172.7 46.5 172.7 46.52 172.7 46.5 C 172.4 47.1 172.1 47.3 171.4 47.3 C 170.4 47.3 170 46.7 170 45.7 C 170 44.2 171.5 44.1 172.7 44.1 C 172.7 43.4 172.7 42.7 171.8 42.7 C 171.3 42.7 171 43.1 171.1 43.6 C 171.1 43.6 170.2 43.6 170.2 43.6 C 170.2 42.5 170.8 42.1 171.9 42.1 C 173.2 42.1 173.5 42.8 173.5 43.6 C 173.5 43.6 173.5 46 173.5 46 C 173.5 46.4 173.6 46.9 173.6 47.2 C 173.62 47.24 172.7 47.2 172.7 47.2 L 172.7 46.5 Z M 175.3 42.2 C 175.3 42.2 175.27 41.22 175.3 41.2 C 175.3 40.2 176 40 176.7 40 C 176.9 40 177 40 177.1 40 C 177.1 40 177.1 40.6 177.1 40.6 C 176.2 40.6 176.1 40.9 176.1 41.3 C 176.09 41.34 176.1 42.2 176.1 42.2 L 177.1 42.2 L 177.1 42.8 L 176.1 42.8 L 176.1 47.2 L 175.3 47.2 L 175.3 42.8 L 174.5 42.8 L 174.5 42.2 L 175.3 42.2 Z M 180.7 44.4 C 180.7 42.9 180.3 42.7 179.7 42.7 C 179.1 42.7 178.7 43 178.7 44.4 C 178.7 44.4 180.7 44.4 180.7 44.4 Z M 178.7 45 C 178.7 46.4 179.1 46.7 179.7 46.7 C 180.3 46.7 180.6 46.2 180.6 45.7 C 180.6 45.7 181.5 45.7 181.5 45.7 C 181.5 46.8 180.8 47.3 179.7 47.3 C 178.7 47.3 177.8 47 177.8 44.8 C 177.8 43.3 178 42.1 179.7 42.1 C 181.2 42.1 181.5 42.9 181.5 44.6 C 181.54 44.56 181.5 45 181.5 45 C 181.5 45 178.7 44.98 178.7 45 Z M 183 42.2 L 183 41.2 L 183.8 40.9 L 183.8 42.2 L 184.9 42.2 L 184.9 42.8 L 183.8 42.8 C 183.8 42.8 183.81 45.91 183.8 45.9 C 183.8 46.2 183.8 46.6 184.6 46.6 C 184.6 46.6 184.7 46.6 184.9 46.6 C 184.9 46.6 184.9 47.2 184.9 47.2 C 184.7 47.2 184.4 47.3 184.1 47.3 C 183.3 47.3 183 47 183 46.4 C 182.99 46.41 183 42.8 183 42.8 L 182.2 42.8 L 182.2 42.2 L 183 42.2 Z M 187.2 46.3 L 187.2 46.3 L 188.4 42.2 L 189.3 42.2 L 187 49.2 L 186.2 49.2 L 186.7 47.2 L 185 42.2 L 186 42.2 L 187.2 46.3 Z M 193.1 45.7 C 193.1 46.2 193.3 46.7 193.9 46.7 C 194.4 46.7 195 46.4 194.9 44.7 C 194.1 44.7 193.1 44.7 193.1 45.7 Z M 194.9 46.5 C 194.9 46.5 194.92 46.52 194.9 46.5 C 194.7 47.1 194.3 47.3 193.6 47.3 C 192.6 47.3 192.3 46.7 192.3 45.7 C 192.3 44.2 193.8 44.1 194.9 44.1 C 194.9 43.4 194.9 42.7 194.1 42.7 C 193.5 42.7 193.2 43.1 193.3 43.6 C 193.3 43.6 192.4 43.6 192.4 43.6 C 192.4 42.5 193 42.1 194.1 42.1 C 195.4 42.1 195.7 42.8 195.7 43.6 C 195.7 43.6 195.7 46 195.7 46 C 195.7 46.4 195.8 46.9 195.8 47.2 C 195.84 47.24 194.9 47.2 194.9 47.2 L 194.9 46.5 Z M 200.1 47.2 C 200.1 47.2 200.08 43.74 200.1 43.7 C 200.1 43.2 199.9 42.8 199.2 42.8 C 198.3 42.8 198.2 43.6 198.2 44.3 C 198.16 44.25 198.2 47.2 198.2 47.2 L 197.3 47.2 C 197.3 47.2 197.34 43.24 197.3 43.2 C 197.3 42.9 197.3 42.5 197.3 42.2 C 197.29 42.2 198.2 42.2 198.2 42.2 L 198.2 42.8 C 198.2 42.8 198.2 42.84 198.2 42.8 C 198.5 42.3 198.9 42.1 199.5 42.1 C 200.6 42.1 200.9 42.7 200.9 43.7 C 200.9 43.74 200.9 47.2 200.9 47.2 L 200.1 47.2 Z M 204.1 42.8 C 203.2 42.8 203.1 43.5 203.1 44.8 C 203.1 45.6 203.1 46.7 204.1 46.7 C 205 46.7 205 45.5 205 44.5 C 205 43.8 205 42.8 204.1 42.8 Z M 205 40 L 205.8 40 L 205.8 47.2 L 205 47.2 L 205 46.6 C 205 46.6 204.99 46.65 205 46.6 C 204.7 47.1 204.4 47.3 203.8 47.3 C 203 47.3 202.2 47 202.2 44.8 C 202.2 43.5 202.2 42.1 203.9 42.1 C 204.3 42.1 204.7 42.3 205 42.7 C 204.98 42.7 205 42.7 205 42.7 L 205 40 Z M 212.3 44.4 C 212.3 42.9 211.9 42.7 211.3 42.7 C 210.8 42.7 210.4 43 210.4 44.4 C 210.4 44.4 212.3 44.4 212.3 44.4 Z M 210.4 45 C 210.4 46.4 210.7 46.7 211.4 46.7 C 211.9 46.7 212.2 46.2 212.3 45.7 C 212.3 45.7 213.2 45.7 213.2 45.7 C 213.1 46.8 212.5 47.3 211.4 47.3 C 210.3 47.3 209.5 47 209.5 44.8 C 209.5 43.3 209.6 42.1 211.4 42.1 C 212.8 42.1 213.2 42.9 213.2 44.6 C 213.2 44.56 213.2 45 213.2 45 C 213.2 45 210.36 44.98 210.4 45 Z M 214.7 42.2 C 214.7 42.2 214.71 41.22 214.7 41.2 C 214.7 40.2 215.4 40 216.2 40 C 216.3 40 216.4 40 216.5 40 C 216.5 40 216.5 40.6 216.5 40.6 C 215.7 40.6 215.5 40.9 215.5 41.3 C 215.53 41.34 215.5 42.2 215.5 42.2 L 216.5 42.2 L 216.5 42.8 L 215.5 42.8 L 215.5 47.2 L 214.7 47.2 L 214.7 42.8 L 213.9 42.8 L 213.9 42.2 L 214.7 42.2 Z M 220.8 47.2 L 220 47.2 L 220 42.2 L 220.8 42.2 L 220.8 47.2 Z M 220 40 L 220.9 40 L 220.9 40.9 L 220 40.9 L 220 40 Z M 217.5 42.2 C 217.5 42.2 217.49 41.22 217.5 41.2 C 217.5 40.2 218.2 40 218.9 40 C 219.1 40 219.2 40 219.3 40 C 219.3 40 219.3 40.6 219.3 40.6 C 218.5 40.6 218.3 40.9 218.3 41.3 C 218.31 41.34 218.3 42.2 218.3 42.2 L 219.3 42.2 L 219.3 42.8 L 218.3 42.8 L 218.3 47.2 L 217.5 47.2 L 217.5 42.8 L 216.7 42.8 L 216.7 42.2 L 217.5 42.2 Z M 225 43.8 C 225 43 224.6 42.8 224.3 42.8 C 223.6 42.8 223.2 43.1 223.2 44.4 C 223.2 46.1 223.4 46.7 224.3 46.7 C 224.5 46.7 225 46.5 225 45.6 C 225 45.6 225.9 45.6 225.9 45.6 C 225.9 47 224.8 47.3 224.3 47.3 C 223.2 47.3 222.4 47 222.4 44.8 C 222.4 43.3 222.5 42.1 224.3 42.1 C 225.3 42.1 225.9 42.7 225.8 43.8 C 225.8 43.8 225 43.8 225 43.8 Z M 228.1 45.7 C 228.1 46.2 228.3 46.7 228.9 46.7 C 229.4 46.7 230 46.4 229.9 44.7 C 229.1 44.7 228.1 44.7 228.1 45.7 Z M 229.9 46.5 C 229.9 46.5 229.92 46.52 229.9 46.5 C 229.7 47.1 229.3 47.3 228.6 47.3 C 227.6 47.3 227.3 46.7 227.3 45.7 C 227.3 44.2 228.8 44.1 229.9 44.1 C 229.9 43.4 229.9 42.7 229.1 42.7 C 228.5 42.7 228.2 43.1 228.3 43.6 C 228.3 43.6 227.4 43.6 227.4 43.6 C 227.4 42.5 228 42.1 229.1 42.1 C 230.4 42.1 230.7 42.8 230.7 43.6 C 230.7 43.6 230.7 46 230.7 46 C 230.7 46.4 230.8 46.9 230.8 47.2 C 230.84 47.24 229.9 47.2 229.9 47.2 L 229.9 46.5 Z M 235 43.8 C 235 43 234.6 42.8 234.3 42.8 C 233.6 42.8 233.2 43.1 233.2 44.4 C 233.2 46.1 233.4 46.7 234.3 46.7 C 234.5 46.7 235 46.5 235 45.6 C 235 45.6 235.9 45.6 235.9 45.6 C 235.9 47 234.8 47.3 234.3 47.3 C 233.2 47.3 232.4 47 232.4 44.8 C 232.4 43.3 232.5 42.1 234.3 42.1 C 235.3 42.1 235.9 42.7 235.8 43.8 C 235.8 43.8 235 43.8 235 43.8 Z M 238.9 46.3 L 238.9 46.3 L 240.1 42.2 L 241 42.2 L 238.7 49.2 L 237.8 49.2 L 238.4 47.2 L 236.7 42.2 L 237.6 42.2 L 238.9 46.3 Z M 246.8 44.4 C 246.8 43.1 246.4 42.8 245.8 42.8 C 245.1 42.8 244.7 43.1 244.7 44.4 C 244.7 46.1 244.9 46.7 245.8 46.7 C 246.6 46.7 246.8 46.1 246.8 44.4 Z M 243.9 44.8 C 243.9 43.3 244 42.1 245.8 42.1 C 247.5 42.1 247.7 43.3 247.7 44.8 C 247.7 47 246.8 47.3 245.8 47.3 C 244.7 47.3 243.9 47 243.9 44.8 Z M 249.1 42.2 C 249.1 42.2 249.15 41.22 249.1 41.2 C 249.1 40.2 249.9 40 250.6 40 C 250.8 40 250.9 40 251 40 C 251 40 251 40.6 251 40.6 C 250.1 40.6 250 40.9 250 41.3 C 249.97 41.34 250 42.2 250 42.2 L 251 42.2 L 251 42.8 L 250 42.8 L 250 47.2 L 249.1 47.2 L 249.1 42.8 L 248.4 42.8 L 248.4 42.2 L 249.1 42.2 Z M 255.7 42.8 C 254.8 42.8 254.7 43.9 254.7 44.6 C 254.7 46.2 255.1 46.6 255.7 46.6 C 256.7 46.6 256.7 45.4 256.7 44.7 C 256.7 43.9 256.7 42.8 255.7 42.8 Z M 256.7 42.2 L 257.5 42.2 C 257.5 42.2 257.49 47.76 257.5 47.8 C 257.5 48.9 256.7 49.2 255.6 49.2 C 254.8 49.2 254 48.7 254.1 47.8 C 254.1 47.8 255 47.8 255 47.8 C 255 48.3 255.3 48.5 255.8 48.5 C 256.4 48.5 256.7 48.2 256.7 47.7 C 256.67 47.67 256.7 46.6 256.7 46.6 C 256.7 46.6 256.64 46.62 256.6 46.6 C 256.4 47 256 47.2 255.5 47.2 C 254.2 47.2 253.9 46.1 253.9 44.6 C 253.9 42.2 255.1 42.1 255.5 42.1 C 256 42.1 256.4 42.3 256.6 42.8 C 256.65 42.81 256.7 42.8 256.7 42.8 L 256.7 42.2 Z M 259.7 45.7 C 259.7 46.2 260 46.7 260.5 46.7 C 261 46.7 261.7 46.4 261.6 44.7 C 260.8 44.7 259.7 44.7 259.7 45.7 Z M 261.6 46.5 C 261.6 46.5 261.58 46.52 261.6 46.5 C 261.3 47.1 260.9 47.3 260.3 47.3 C 259.2 47.3 258.9 46.7 258.9 45.7 C 258.9 44.2 260.4 44.1 261.6 44.1 C 261.6 43.4 261.6 42.7 260.7 42.7 C 260.2 42.7 259.9 43.1 259.9 43.6 C 259.9 43.6 259 43.6 259 43.6 C 259.1 42.5 259.7 42.1 260.8 42.1 C 262.1 42.1 262.4 42.8 262.4 43.6 C 262.4 43.6 262.4 46 262.4 46 C 262.4 46.4 262.4 46.9 262.5 47.2 C 262.5 47.24 261.6 47.2 261.6 47.2 L 261.6 46.5 Z M 264.8 43 C 264.8 43 264.87 42.95 264.9 43 C 265.2 42.2 265.6 42.1 266.4 42.1 C 266.4 42.1 266.4 42.9 266.4 42.9 C 266.4 42.9 266.3 42.9 266.2 42.9 C 266.1 42.9 266.1 42.9 266 42.9 C 265.1 42.9 264.8 43.6 264.8 44.3 C 264.85 44.26 264.8 47.2 264.8 47.2 L 264 47.2 L 264 42.2 L 264.8 42.2 L 264.8 43 Z M 268.1 45.7 C 268.1 46.2 268.3 46.7 268.9 46.7 C 269.4 46.7 270 46.4 269.9 44.7 C 269.1 44.7 268.1 44.7 268.1 45.7 Z M 269.9 46.5 C 269.9 46.5 269.91 46.52 269.9 46.5 C 269.7 47.1 269.3 47.3 268.6 47.3 C 267.6 47.3 267.3 46.7 267.3 45.7 C 267.3 44.2 268.8 44.1 269.9 44.1 C 269.9 43.4 269.9 42.7 269.1 42.7 C 268.5 42.7 268.2 43.1 268.3 43.6 C 268.3 43.6 267.4 43.6 267.4 43.6 C 267.4 42.5 268 42.1 269.1 42.1 C 270.4 42.1 270.7 42.8 270.7 43.6 C 270.7 43.6 270.7 46 270.7 46 C 270.7 46.4 270.8 46.9 270.8 47.2 C 270.83 47.24 269.9 47.2 269.9 47.2 L 269.9 46.5 Z M 274 42.8 C 273.2 42.8 273 43.5 273 44.8 C 273 45.6 273 46.7 274.1 46.7 C 275 46.7 275 45.5 275 44.5 C 275 43.8 275 42.8 274 42.8 Z M 275 40 L 275.8 40 L 275.8 47.2 L 275 47.2 L 275 46.6 C 275 46.6 274.98 46.65 275 46.6 C 274.7 47.1 274.3 47.3 273.8 47.3 C 273 47.3 272.2 47 272.2 44.8 C 272.2 43.5 272.2 42.1 273.9 42.1 C 274.3 42.1 274.7 42.3 275 42.7 C 274.97 42.7 275 42.7 275 42.7 L 275 40 Z M 278.1 45.7 C 278.1 46.2 278.3 46.7 278.9 46.7 C 279.4 46.7 280 46.4 279.9 44.7 C 279.1 44.7 278.1 44.7 278.1 45.7 Z M 279.9 46.5 C 279.9 46.5 279.91 46.52 279.9 46.5 C 279.7 47.1 279.3 47.3 278.6 47.3 C 277.6 47.3 277.3 46.7 277.3 45.7 C 277.3 44.2 278.8 44.1 279.9 44.1 C 279.9 43.4 279.9 42.7 279.1 42.7 C 278.5 42.7 278.2 43.1 278.3 43.6 C 278.3 43.6 277.4 43.6 277.4 43.6 C 277.4 42.5 278 42.1 279.1 42.1 C 280.4 42.1 280.7 42.8 280.7 43.6 C 280.7 43.6 280.7 46 280.7 46 C 280.7 46.4 280.8 46.9 280.8 47.2 C 280.83 47.24 279.9 47.2 279.9 47.2 L 279.9 46.5 Z M 285 43.8 C 285 43 284.6 42.8 284.3 42.8 C 283.6 42.8 283.2 43.1 283.2 44.4 C 283.2 46.1 283.4 46.7 284.3 46.7 C 284.5 46.7 285 46.5 285 45.6 C 285 45.6 285.9 45.6 285.9 45.6 C 285.9 47 284.8 47.3 284.3 47.3 C 283.2 47.3 282.3 47 282.3 44.8 C 282.3 43.3 282.5 42.1 284.3 42.1 C 285.3 42.1 285.9 42.7 285.8 43.8 C 285.8 43.8 285 43.8 285 43.8 Z M 288.1 47.2 L 287.3 47.2 L 287.3 42.2 L 288.1 42.2 L 288.1 47.2 Z M 287.3 40 L 288.2 40 L 288.2 40.9 L 287.3 40.9 L 287.3 40 Z M 292 47.2 C 292 47.2 292.03 43.74 292 43.7 C 292 43.2 291.9 42.8 291.2 42.8 C 291 42.8 290.6 42.9 290.5 43.1 C 290.4 43.4 290.3 43.7 290.3 43.8 C 290.33 43.85 290.3 47.2 290.3 47.2 L 289.5 47.2 C 289.5 47.2 289.51 43.25 289.5 43.2 C 289.5 42.9 289.5 42.5 289.5 42.2 C 289.46 42.2 290.3 42.2 290.3 42.2 L 290.3 42.8 C 290.3 42.8 290.35 42.82 290.3 42.8 C 290.6 42.3 291 42.1 291.6 42.1 C 292.1 42.1 292.6 42.3 292.8 42.7 C 293.1 42.2 293.5 42.1 294 42.1 C 294.5 42.1 295.4 42.2 295.4 43.4 C 295.37 43.4 295.4 47.2 295.4 47.2 L 294.5 47.2 C 294.5 47.2 294.55 43.74 294.5 43.7 C 294.5 43.2 294.4 42.8 293.7 42.8 C 293.4 42.8 293.3 42.8 293.1 43 C 292.9 43.2 292.8 43.7 292.8 43.8 C 292.85 43.84 292.8 47.2 292.8 47.2 L 292 47.2 Z M 297.5 45.7 C 297.5 46.2 297.8 46.7 298.3 46.7 C 298.8 46.7 299.4 46.4 299.3 44.7 C 298.6 44.7 297.5 44.7 297.5 45.7 Z M 299.4 46.5 C 299.4 46.5 299.35 46.52 299.3 46.5 C 299.1 47.1 298.7 47.3 298.1 47.3 C 297 47.3 296.7 46.7 296.7 45.7 C 296.7 44.2 298.2 44.1 299.3 44.1 C 299.4 43.4 299.4 42.7 298.5 42.7 C 297.9 42.7 297.7 43.1 297.7 43.6 C 297.7 43.6 296.8 43.6 296.8 43.6 C 296.9 42.5 297.5 42.1 298.5 42.1 C 299.8 42.1 300.2 42.8 300.2 43.6 C 300.2 43.6 300.2 46 300.2 46 C 300.2 46.4 300.2 46.9 300.3 47.2 C 300.27 47.24 299.4 47.2 299.4 47.2 L 299.4 46.5 Z M 303.6 46.7 C 304.6 46.7 304.6 45.6 304.6 44.8 C 304.6 43.5 304.5 42.8 303.6 42.8 C 302.7 42.8 302.7 43.8 302.7 44.5 C 302.7 45.3 302.6 46.7 303.6 46.7 Z M 302.7 47.2 L 301.8 47.2 L 301.8 40 L 302.7 40 L 302.7 42.7 C 302.7 42.7 302.69 42.7 302.7 42.7 C 303 42.3 303.3 42.1 303.8 42.1 C 305.4 42.1 305.5 43.5 305.5 44.8 C 305.5 47 304.6 47.3 303.8 47.3 C 303.3 47.3 303 47.1 302.7 46.6 C 302.68 46.65 302.7 46.6 302.7 46.6 L 302.7 47.2 Z M 309.1 42.2 C 309.1 42.2 309.14 41.22 309.1 41.2 C 309.1 40.2 309.9 40 310.6 40 C 310.8 40 310.9 40 311 40 C 311 40 311 40.6 311 40.6 C 310.1 40.6 310 40.9 310 41.3 C 309.95 41.34 310 42.2 310 42.2 L 311 42.2 L 311 42.8 L 310 42.8 L 310 47.2 L 309.1 47.2 L 309.1 42.8 L 308.4 42.8 L 308.4 42.2 L 309.1 42.2 Z M 314.6 44.4 C 314.6 43.1 314.2 42.8 313.5 42.8 C 312.9 42.8 312.5 43.1 312.5 44.4 C 312.5 46.1 312.7 46.7 313.5 46.7 C 314.4 46.7 314.6 46.1 314.6 44.4 Z M 311.6 44.8 C 311.6 43.3 311.8 42.1 313.5 42.1 C 315.3 42.1 315.5 43.3 315.5 44.8 C 315.5 47 314.6 47.3 313.5 47.3 C 312.5 47.3 311.6 47 311.6 44.8 Z M 317.6 43 C 317.6 43 317.63 42.95 317.6 43 C 318 42.2 318.4 42.1 319.2 42.1 C 319.2 42.1 319.2 42.9 319.2 42.9 C 319.1 42.9 319 42.9 319 42.9 C 318.9 42.9 318.8 42.9 318.8 42.9 C 317.8 42.9 317.6 43.6 317.6 44.3 C 317.61 44.26 317.6 47.2 317.6 47.2 L 316.8 47.2 L 316.8 42.2 L 317.6 42.2 L 317.6 43 Z " stroke="none" fill="#555555"/>  </g>  <g id="Polygon202215">    <path d="M 4.9 23.6 L 4.9 24.4 L 3 24.4 L 3 30.8 L 2 30.8 L 2 24.4 L 0.1 24.4 L 0.1 23.6 L 4.9 23.6 Z M 5.8 30.8 L 5.8 23.6 L 9.5 23.6 L 9.5 24.4 L 6.7 24.4 L 6.7 26.7 L 9.3 26.7 L 9.3 27.5 L 6.7 27.5 L 6.7 30 L 9.6 30 L 9.6 30.8 L 5.8 30.8 Z M 12.4 23.6 L 13.6 23.6 L 16 30.8 L 14.9 30.8 L 14.4 29.1 L 11.6 29.1 L 11.1 30.8 L 10.2 30.8 L 12.4 23.6 Z M 13 24.4 L 13 24.4 L 11.9 28.3 L 14.2 28.3 L 13 24.4 Z M 16.9 30.8 L 16.9 23.6 L 20.6 23.6 L 20.6 24.4 L 17.8 24.4 L 17.8 26.7 L 20.4 26.7 L 20.4 27.5 L 17.8 27.5 L 17.8 30 L 20.7 30 L 20.7 30.8 L 16.9 30.8 Z M 22 29.8 L 23 29.8 L 22.1 32.1 L 21.5 32.1 L 22 29.8 Z M 26.4 25.8 L 26.4 24.8 L 27.2 24.4 L 27.2 25.8 L 28.3 25.8 L 28.3 26.4 L 27.2 26.4 C 27.2 26.4 27.18 29.48 27.2 29.5 C 27.2 29.8 27.2 30.2 27.9 30.2 C 28 30.2 28.1 30.2 28.3 30.2 C 28.3 30.2 28.3 30.8 28.3 30.8 C 28 30.8 27.8 30.9 27.5 30.9 C 26.7 30.9 26.4 30.6 26.4 30 C 26.36 29.98 26.4 26.4 26.4 26.4 L 25.5 26.4 L 25.5 25.8 L 26.4 25.8 Z M 29.9 26.5 C 29.9 26.5 29.92 26.53 29.9 26.5 C 30.3 25.8 30.7 25.7 31.5 25.7 C 31.5 25.7 31.5 26.5 31.5 26.5 C 31.4 26.5 31.3 26.5 31.3 26.5 C 31.2 26.5 31.1 26.5 31 26.5 C 30.1 26.5 29.9 27.2 29.9 27.8 C 29.9 27.84 29.9 30.8 29.9 30.8 L 29.1 30.8 L 29.1 25.8 L 29.9 25.8 L 29.9 26.5 Z M 35.2 27.9 C 35.2 26.5 34.7 26.3 34.1 26.3 C 33.6 26.3 33.2 26.5 33.2 27.9 C 33.2 27.9 35.2 27.9 35.2 27.9 Z M 33.2 28.6 C 33.2 30 33.6 30.2 34.2 30.2 C 34.8 30.2 35.1 29.8 35.1 29.3 C 35.1 29.3 36 29.3 36 29.3 C 36 30.4 35.3 30.9 34.2 30.9 C 33.1 30.9 32.3 30.6 32.3 28.4 C 32.3 26.9 32.5 25.7 34.2 25.7 C 35.7 25.7 36 26.5 36 28.1 C 36.02 28.13 36 28.6 36 28.6 C 36 28.6 33.18 28.56 33.2 28.6 Z M 38.1 29.3 C 38.1 29.8 38.4 30.2 38.9 30.2 C 39.4 30.2 40 29.9 40 28.3 C 39.2 28.3 38.1 28.2 38.1 29.3 Z M 40 30.1 C 40 30.1 39.96 30.09 40 30.1 C 39.7 30.7 39.3 30.9 38.7 30.9 C 37.6 30.9 37.3 30.2 37.3 29.3 C 37.3 27.7 38.8 27.7 40 27.7 C 40 27 40 26.3 39.1 26.3 C 38.6 26.3 38.3 26.7 38.3 27.2 C 38.3 27.2 37.4 27.2 37.4 27.2 C 37.5 26.1 38.1 25.7 39.1 25.7 C 40.4 25.7 40.8 26.3 40.8 27.2 C 40.8 27.2 40.8 29.6 40.8 29.6 C 40.8 30 40.8 30.4 40.9 30.8 C 40.88 30.82 40 30.8 40 30.8 L 40 30.1 Z M 42.5 25.8 L 42.5 24.8 L 43.3 24.4 L 43.3 25.8 L 44.4 25.8 L 44.4 26.4 L 43.3 26.4 C 43.3 26.4 43.29 29.48 43.3 29.5 C 43.3 29.8 43.3 30.2 44 30.2 C 44.1 30.2 44.2 30.2 44.4 30.2 C 44.4 30.2 44.4 30.8 44.4 30.8 C 44.1 30.8 43.9 30.9 43.6 30.9 C 42.8 30.9 42.5 30.6 42.5 30 C 42.47 29.98 42.5 26.4 42.5 26.4 L 41.6 26.4 L 41.6 25.8 L 42.5 25.8 Z M 47.6 30.8 C 47.6 30.8 47.64 27.32 47.6 27.3 C 47.6 26.8 47.5 26.3 46.8 26.3 C 46.6 26.3 46.2 26.5 46.1 26.7 C 46 26.9 45.9 27.2 45.9 27.4 C 45.94 27.42 45.9 30.8 45.9 30.8 L 45.1 30.8 C 45.1 30.8 45.12 26.82 45.1 26.8 C 45.1 26.5 45.1 26.1 45.1 25.8 C 45.07 25.77 45.9 25.8 45.9 25.8 L 45.9 26.4 C 45.9 26.4 45.96 26.4 46 26.4 C 46.2 25.9 46.6 25.7 47.2 25.7 C 47.7 25.7 48.2 25.9 48.4 26.3 C 48.7 25.8 49.1 25.7 49.6 25.7 C 50.1 25.7 51 25.8 51 27 C 50.98 26.98 51 30.8 51 30.8 L 50.2 30.8 C 50.2 30.8 50.16 27.32 50.2 27.3 C 50.2 26.8 50 26.3 49.4 26.3 C 49 26.3 49 26.3 48.7 26.5 C 48.5 26.7 48.5 27.2 48.5 27.4 C 48.46 27.42 48.5 30.8 48.5 30.8 L 47.6 30.8 Z M 55.2 27.9 C 55.2 26.5 54.7 26.3 54.1 26.3 C 53.6 26.3 53.2 26.5 53.2 27.9 C 53.2 27.9 55.2 27.9 55.2 27.9 Z M 53.2 28.6 C 53.2 30 53.6 30.2 54.2 30.2 C 54.8 30.2 55 29.8 55.1 29.3 C 55.1 29.3 56 29.3 56 29.3 C 56 30.4 55.3 30.9 54.2 30.9 C 53.1 30.9 52.3 30.6 52.3 28.4 C 52.3 26.9 52.5 25.7 54.2 25.7 C 55.7 25.7 56 26.5 56 28.1 C 56.02 28.13 56 28.6 56 28.6 C 56 28.6 53.18 28.56 53.2 28.6 Z M 60.1 30.8 C 60.1 30.8 60.12 27.32 60.1 27.3 C 60.1 26.8 59.9 26.3 59.2 26.3 C 58.3 26.3 58.2 27.1 58.2 27.8 C 58.2 27.83 58.2 30.8 58.2 30.8 L 57.4 30.8 C 57.4 30.8 57.38 26.82 57.4 26.8 C 57.4 26.5 57.4 26.1 57.3 25.8 C 57.33 25.77 58.2 25.8 58.2 25.8 L 58.2 26.4 C 58.2 26.4 58.24 26.42 58.2 26.4 C 58.6 25.8 58.9 25.7 59.6 25.7 C 60.7 25.7 60.9 26.3 60.9 27.3 C 60.94 27.32 60.9 30.8 60.9 30.8 L 60.1 30.8 Z M 62.5 25.8 L 62.5 24.8 L 63.3 24.4 L 63.3 25.8 L 64.4 25.8 L 64.4 26.4 L 63.3 26.4 C 63.3 26.4 63.29 29.48 63.3 29.5 C 63.3 29.8 63.3 30.2 64 30.2 C 64.1 30.2 64.2 30.2 64.4 30.2 C 64.4 30.2 64.4 30.8 64.4 30.8 C 64.1 30.8 63.9 30.9 63.6 30.9 C 62.8 30.9 62.5 30.6 62.5 30 C 62.47 29.98 62.5 26.4 62.5 26.4 L 61.6 26.4 L 61.6 25.8 L 62.5 25.8 Z M 65 27.7 L 67.2 27.7 L 67.2 28.5 L 65 28.5 L 65 27.7 Z M 71.3 27.9 C 71.3 26.5 70.8 26.3 70.2 26.3 C 69.7 26.3 69.3 26.5 69.3 27.9 C 69.3 27.9 71.3 27.9 71.3 27.9 Z M 69.3 28.6 C 69.3 30 69.7 30.2 70.3 30.2 C 70.9 30.2 71.2 29.8 71.2 29.3 C 71.2 29.3 72.1 29.3 72.1 29.3 C 72.1 30.4 71.4 30.9 70.3 30.9 C 69.3 30.9 68.4 30.6 68.4 28.4 C 68.4 26.9 68.6 25.7 70.3 25.7 C 71.8 25.7 72.1 26.5 72.1 28.1 C 72.13 28.13 72.1 28.6 72.1 28.6 C 72.1 28.6 69.29 28.56 69.3 28.6 Z M 76 30.8 C 76 30.8 75.97 27.32 76 27.3 C 76 26.8 75.8 26.3 75.2 26.3 C 74.9 26.3 74.6 26.5 74.5 26.7 C 74.3 26.9 74.3 27.2 74.3 27.4 C 74.27 27.42 74.3 30.8 74.3 30.8 L 73.4 30.8 C 73.4 30.8 73.45 26.82 73.4 26.8 C 73.4 26.5 73.4 26.1 73.4 25.8 C 73.4 25.77 74.3 25.8 74.3 25.8 L 74.3 26.4 C 74.3 26.4 74.29 26.4 74.3 26.4 C 74.5 25.9 75 25.7 75.5 25.7 C 76 25.7 76.5 25.9 76.7 26.3 C 77 25.8 77.5 25.7 77.9 25.7 C 78.5 25.7 79.3 25.8 79.3 27 C 79.31 26.98 79.3 30.8 79.3 30.8 L 78.5 30.8 C 78.5 30.8 78.49 27.32 78.5 27.3 C 78.5 26.8 78.3 26.3 77.7 26.3 C 77.4 26.3 77.3 26.3 77.1 26.5 C 76.8 26.7 76.8 27.2 76.8 27.4 C 76.79 27.42 76.8 30.8 76.8 30.8 L 76 30.8 Z M 83.5 27.9 C 83.5 26.5 83.1 26.3 82.5 26.3 C 81.9 26.3 81.5 26.5 81.5 27.9 C 81.5 27.9 83.5 27.9 83.5 27.9 Z M 81.5 28.6 C 81.5 30 81.9 30.2 82.5 30.2 C 83.1 30.2 83.4 29.8 83.4 29.3 C 83.4 29.3 84.3 29.3 84.3 29.3 C 84.3 30.4 83.6 30.9 82.5 30.9 C 81.5 30.9 80.6 30.6 80.6 28.4 C 80.6 26.9 80.8 25.7 82.5 25.7 C 84 25.7 84.3 26.5 84.3 28.1 C 84.35 28.13 84.3 28.6 84.3 28.6 C 84.3 28.6 81.51 28.56 81.5 28.6 Z M 86.6 26.5 C 86.6 26.5 86.58 26.53 86.6 26.5 C 86.9 25.8 87.3 25.7 88.1 25.7 C 88.1 25.7 88.1 26.5 88.1 26.5 C 88.1 26.5 88 26.5 87.9 26.5 C 87.8 26.5 87.8 26.5 87.7 26.5 C 86.8 26.5 86.6 27.2 86.6 27.8 C 86.56 27.84 86.6 30.8 86.6 30.8 L 85.7 30.8 L 85.7 25.8 L 86.6 25.8 L 86.6 26.5 Z M 90.7 26.3 C 89.8 26.3 89.8 27.5 89.8 28.1 C 89.8 29.8 90.2 30.1 90.8 30.1 C 91.8 30.1 91.7 29 91.7 28.3 C 91.7 27.5 91.8 26.3 90.7 26.3 Z M 91.7 25.8 L 92.5 25.8 C 92.5 25.8 92.53 31.33 92.5 31.3 C 92.5 32.5 91.8 32.7 90.7 32.7 C 89.8 32.7 89.1 32.3 89.1 31.4 C 89.1 31.4 90.1 31.4 90.1 31.4 C 90.1 31.8 90.4 32.1 90.8 32.1 C 91.4 32.1 91.7 31.8 91.7 31.2 C 91.71 31.24 91.7 30.2 91.7 30.2 C 91.7 30.2 91.68 30.19 91.7 30.2 C 91.5 30.6 91 30.8 90.6 30.8 C 89.2 30.8 88.9 29.6 88.9 28.1 C 88.9 25.8 90.1 25.7 90.5 25.7 C 91 25.7 91.5 25.9 91.7 26.4 C 91.69 26.39 91.7 26.4 91.7 26.4 L 91.7 25.8 Z M 96.8 27.9 C 96.8 26.5 96.4 26.3 95.8 26.3 C 95.3 26.3 94.8 26.5 94.8 27.9 C 94.8 27.9 96.8 27.9 96.8 27.9 Z M 94.8 28.6 C 94.8 30 95.2 30.2 95.9 30.2 C 96.4 30.2 96.7 29.8 96.7 29.3 C 96.7 29.3 97.6 29.3 97.6 29.3 C 97.6 30.4 96.9 30.9 95.9 30.9 C 94.8 30.9 94 30.6 94 28.4 C 94 26.9 94.1 25.7 95.9 25.7 C 97.3 25.7 97.7 26.5 97.7 28.1 C 97.68 28.13 97.7 28.6 97.7 28.6 C 97.7 28.6 94.84 28.56 94.8 28.6 Z M 101.8 30.8 C 101.8 30.8 101.78 27.32 101.8 27.3 C 101.8 26.8 101.6 26.3 100.9 26.3 C 100 26.3 99.9 27.1 99.9 27.8 C 99.86 27.83 99.9 30.8 99.9 30.8 L 99 30.8 C 99 30.8 99.04 26.82 99 26.8 C 99 26.5 99 26.1 99 25.8 C 98.99 25.77 99.9 25.8 99.9 25.8 L 99.9 26.4 C 99.9 26.4 99.9 26.42 99.9 26.4 C 100.2 25.8 100.6 25.7 101.2 25.7 C 102.3 25.7 102.6 26.3 102.6 27.3 C 102.6 27.32 102.6 30.8 102.6 30.8 L 101.8 30.8 Z M 104.1 25.8 L 104.1 24.8 L 104.9 24.4 L 104.9 25.8 L 106 25.8 L 106 26.4 L 104.9 26.4 C 104.9 26.4 104.95 29.48 104.9 29.5 C 104.9 29.8 104.9 30.2 105.7 30.2 C 105.8 30.2 105.9 30.2 106.1 30.2 C 106.1 30.2 106.1 30.8 106.1 30.8 C 105.8 30.8 105.5 30.9 105.3 30.9 C 104.5 30.9 104.1 30.6 104.1 30 C 104.13 29.98 104.1 26.4 104.1 26.4 L 103.3 26.4 L 103.3 25.8 L 104.1 25.8 Z M 109.8 29.3 C 109.8 29.8 110 30.2 110.6 30.2 C 111.1 30.2 111.7 29.9 111.6 28.3 C 110.8 28.3 109.8 28.2 109.8 29.3 Z M 111.6 30.1 C 111.6 30.1 111.62 30.09 111.6 30.1 C 111.4 30.7 111 30.9 110.3 30.9 C 109.3 30.9 109 30.2 109 29.3 C 109 27.7 110.5 27.7 111.6 27.7 C 111.6 27 111.6 26.3 110.8 26.3 C 110.2 26.3 109.9 26.7 110 27.2 C 110 27.2 109.1 27.2 109.1 27.2 C 109.1 26.1 109.7 25.7 110.8 25.7 C 112.1 25.7 112.4 26.3 112.4 27.2 C 112.4 27.2 112.4 29.6 112.4 29.6 C 112.4 30 112.5 30.4 112.5 30.8 C 112.54 30.82 111.6 30.8 111.6 30.8 L 111.6 30.1 Z M 115.8 26.3 C 114.9 26.3 114.8 27 114.8 28.4 C 114.8 29.1 114.8 30.2 115.8 30.2 C 116.7 30.2 116.7 29.1 116.7 28.1 C 116.7 27.4 116.7 26.3 115.8 26.3 Z M 116.7 23.6 L 117.5 23.6 L 117.5 30.8 L 116.7 30.8 L 116.7 30.2 C 116.7 30.2 116.69 30.22 116.7 30.2 C 116.4 30.7 116.1 30.9 115.5 30.9 C 114.7 30.9 113.9 30.6 113.9 28.4 C 113.9 27.1 113.9 25.7 115.6 25.7 C 116 25.7 116.4 25.9 116.7 26.3 C 116.68 26.28 116.7 26.3 116.7 26.3 L 116.7 23.6 Z M 118.5 25.8 L 119.4 25.8 L 120.5 30 L 120.5 30 L 121.7 25.8 L 122.6 25.8 L 121 30.8 L 120 30.8 L 118.5 25.8 Z M 126.2 27.9 C 126.2 26.5 125.8 26.3 125.2 26.3 C 124.7 26.3 124.3 26.5 124.3 27.9 C 124.3 27.9 126.2 27.9 126.2 27.9 Z M 124.3 28.6 C 124.3 30 124.7 30.2 125.3 30.2 C 125.9 30.2 126.1 29.8 126.2 29.3 C 126.2 29.3 127.1 29.3 127.1 29.3 C 127.1 30.4 126.4 30.9 125.3 30.9 C 124.2 30.9 123.4 30.6 123.4 28.4 C 123.4 26.9 123.6 25.7 125.3 25.7 C 126.8 25.7 127.1 26.5 127.1 28.1 C 127.12 28.13 127.1 28.6 127.1 28.6 C 127.1 28.6 124.28 28.56 124.3 28.6 Z M 129.3 26.5 C 129.3 26.5 129.35 26.53 129.3 26.5 C 129.7 25.8 130.1 25.7 130.9 25.7 C 130.9 25.7 130.9 26.5 130.9 26.5 C 130.8 26.5 130.8 26.5 130.7 26.5 C 130.6 26.5 130.5 26.5 130.5 26.5 C 129.6 26.5 129.3 27.2 129.3 27.8 C 129.33 27.84 129.3 30.8 129.3 30.8 L 128.5 30.8 L 128.5 25.8 L 129.3 25.8 L 129.3 26.5 Z M 133.3 30.9 C 132.2 30.9 131.5 30.4 131.6 29.3 C 131.6 29.3 132.5 29.3 132.5 29.3 C 132.5 29.6 132.5 30.2 133.3 30.2 C 133.8 30.2 134.2 30 134.2 29.5 C 134.2 28.6 131.7 28.6 131.7 27 C 131.7 26.5 132 25.7 133.4 25.7 C 134.3 25.7 135.1 26.1 135 27.1 C 135 27.1 134.1 27.1 134.1 27.1 C 134.1 26.6 133.8 26.3 133.3 26.3 C 132.9 26.3 132.5 26.5 132.5 27 C 132.5 27.9 135.1 27.8 135.1 29.4 C 135.1 30.5 134.3 30.9 133.3 30.9 Z M 139 27.9 C 139 26.5 138.6 26.3 138 26.3 C 137.5 26.3 137.1 26.5 137 27.9 C 137 27.9 139 27.9 139 27.9 Z M 137 28.6 C 137 30 137.4 30.2 138.1 30.2 C 138.6 30.2 138.9 29.8 138.9 29.3 C 138.9 29.3 139.8 29.3 139.8 29.3 C 139.8 30.4 139.1 30.9 138.1 30.9 C 137 30.9 136.2 30.6 136.2 28.4 C 136.2 26.9 136.3 25.7 138.1 25.7 C 139.5 25.7 139.9 26.5 139.9 28.1 C 139.89 28.13 139.9 28.6 139.9 28.6 C 139.9 28.6 137.05 28.56 137 28.6 Z M 146.2 27.9 C 146.2 26.5 145.8 26.3 145.2 26.3 C 144.7 26.3 144.3 26.5 144.3 27.9 C 144.3 27.9 146.2 27.9 146.2 27.9 Z M 144.3 28.6 C 144.3 30 144.6 30.2 145.3 30.2 C 145.8 30.2 146.1 29.8 146.2 29.3 C 146.2 29.3 147.1 29.3 147.1 29.3 C 147.1 30.4 146.4 30.9 145.3 30.9 C 144.2 30.9 143.4 30.6 143.4 28.4 C 143.4 26.9 143.6 25.7 145.3 25.7 C 146.7 25.7 147.1 26.5 147.1 28.1 C 147.11 28.13 147.1 28.6 147.1 28.6 C 147.1 28.6 144.27 28.56 144.3 28.6 Z M 147.9 25.8 L 148.8 25.8 L 149.9 30 L 150 30 L 151.2 25.8 L 152 25.8 L 150.5 30.8 L 149.4 30.8 L 147.9 25.8 Z M 155.7 27.9 C 155.7 26.5 155.3 26.3 154.7 26.3 C 154.1 26.3 153.7 26.5 153.7 27.9 C 153.7 27.9 155.7 27.9 155.7 27.9 Z M 153.7 28.6 C 153.7 30 154.1 30.2 154.7 30.2 C 155.3 30.2 155.6 29.8 155.6 29.3 C 155.6 29.3 156.5 29.3 156.5 29.3 C 156.5 30.4 155.8 30.9 154.7 30.9 C 153.7 30.9 152.8 30.6 152.8 28.4 C 152.8 26.9 153 25.7 154.7 25.7 C 156.2 25.7 156.5 26.5 156.5 28.1 C 156.55 28.13 156.5 28.6 156.5 28.6 C 156.5 28.6 153.71 28.56 153.7 28.6 Z M 160.6 30.8 C 160.6 30.8 160.65 27.32 160.6 27.3 C 160.6 26.8 160.5 26.3 159.8 26.3 C 158.9 26.3 158.7 27.1 158.7 27.8 C 158.73 27.83 158.7 30.8 158.7 30.8 L 157.9 30.8 C 157.9 30.8 157.91 26.82 157.9 26.8 C 157.9 26.5 157.9 26.1 157.9 25.8 C 157.86 25.77 158.7 25.8 158.7 25.8 L 158.7 26.4 C 158.7 26.4 158.77 26.42 158.8 26.4 C 159.1 25.8 159.5 25.7 160.1 25.7 C 161.2 25.7 161.5 26.3 161.5 27.3 C 161.47 27.32 161.5 30.8 161.5 30.8 L 160.6 30.8 Z M 163 25.8 L 163 24.8 L 163.8 24.4 L 163.8 25.8 L 164.9 25.8 L 164.9 26.4 L 163.8 26.4 C 163.8 26.4 163.82 29.48 163.8 29.5 C 163.8 29.8 163.8 30.2 164.6 30.2 C 164.6 30.2 164.8 30.2 164.9 30.2 C 164.9 30.2 164.9 30.8 164.9 30.8 C 164.7 30.8 164.4 30.9 164.1 30.9 C 163.3 30.9 163 30.6 163 30 C 163 29.98 163 26.4 163 26.4 L 162.2 26.4 L 162.2 25.8 L 163 25.8 Z M 165.8 29.8 L 166.9 29.8 L 165.9 32.1 L 165.3 32.1 L 165.8 29.8 Z M 166.5 26.8 L 165.6 26.8 L 165.6 25.8 L 166.5 25.8 L 166.5 26.8 Z M 170.9 28.7 C 170.9 28.7 170.93 28.88 170.9 28.9 C 170.9 29.9 171.5 30.2 172.1 30.2 C 172.9 30.2 173.4 29.9 173.4 29 C 173.4 27.4 170.2 27.6 170.2 25.4 C 170.2 24.1 171.1 23.4 172.3 23.4 C 173.6 23.4 174.4 24.1 174.3 25.6 C 174.3 25.6 173.3 25.6 173.3 25.6 C 173.4 24.8 173.1 24.2 172.2 24.2 C 171.7 24.2 171.1 24.5 171.1 25.3 C 171.1 26.9 174.4 26.7 174.4 29 C 174.4 30.5 173.3 31 172.1 31 C 170 31 170 29.4 170 28.7 C 170.02 28.67 170.9 28.7 170.9 28.7 Z M 177.4 23.6 L 178.6 23.6 L 180.9 30.8 L 179.9 30.8 L 179.4 29.1 L 176.6 29.1 L 176 30.8 L 175.1 30.8 L 177.4 23.6 Z M 178 24.4 L 177.9 24.4 L 176.8 28.3 L 179.1 28.3 L 178 24.4 Z M 181.9 30.8 L 181.9 23.6 L 185.6 23.6 L 185.6 24.4 L 182.8 24.4 L 182.8 26.7 L 185.4 26.7 L 185.4 27.5 L 182.8 27.5 L 182.8 30 L 185.7 30 L 185.7 30.8 L 181.9 30.8 Z M 186.9 29.8 L 188 29.8 L 187.1 32.1 L 186.4 32.1 L 186.9 29.8 Z M 192.7 30.9 C 191.6 30.9 191 30.4 191 29.3 C 191 29.3 191.9 29.3 191.9 29.3 C 191.9 29.6 191.9 30.2 192.8 30.2 C 193.2 30.2 193.6 30 193.6 29.5 C 193.6 28.6 191.1 28.6 191.1 27 C 191.1 26.5 191.4 25.7 192.8 25.7 C 193.7 25.7 194.5 26.1 194.4 27.1 C 194.4 27.1 193.5 27.1 193.5 27.1 C 193.5 26.6 193.3 26.3 192.7 26.3 C 192.3 26.3 192 26.5 192 27 C 192 27.9 194.5 27.8 194.5 29.4 C 194.5 30.5 193.7 30.9 192.7 30.9 Z M 198.4 27.9 C 198.4 26.5 198 26.3 197.4 26.3 C 196.9 26.3 196.5 26.5 196.5 27.9 C 196.5 27.9 198.4 27.9 198.4 27.9 Z M 196.5 28.6 C 196.5 30 196.9 30.2 197.5 30.2 C 198.1 30.2 198.3 29.8 198.4 29.3 C 198.4 29.3 199.3 29.3 199.3 29.3 C 199.3 30.4 198.6 30.9 197.5 30.9 C 196.4 30.9 195.6 30.6 195.6 28.4 C 195.6 26.9 195.8 25.7 197.5 25.7 C 199 25.7 199.3 26.5 199.3 28.1 C 199.32 28.13 199.3 28.6 199.3 28.6 C 199.3 28.6 196.48 28.56 196.5 28.6 Z M 201.5 26.5 C 201.5 26.5 201.55 26.53 201.5 26.5 C 201.9 25.8 202.3 25.7 203.1 25.7 C 203.1 25.7 203.1 26.5 203.1 26.5 C 203 26.5 203 26.5 202.9 26.5 C 202.8 26.5 202.7 26.5 202.7 26.5 C 201.8 26.5 201.5 27.2 201.5 27.8 C 201.53 27.84 201.5 30.8 201.5 30.8 L 200.7 30.8 L 200.7 25.8 L 201.5 25.8 L 201.5 26.5 Z M 204.8 30.8 L 204 30.8 L 204 25.8 L 204.8 25.8 L 204.8 30.8 Z M 203.9 23.6 L 204.9 23.6 L 204.9 24.5 L 203.9 24.5 L 203.9 23.6 Z M 209.1 28 C 209.1 26.6 208.6 26.3 208 26.3 C 207.4 26.3 206.9 26.6 206.9 28 C 206.9 29.7 207.2 30.2 208 30.2 C 208.9 30.2 209.1 29.7 209.1 28 Z M 206.1 28.4 C 206.1 26.9 206.3 25.7 208 25.7 C 209.8 25.7 209.9 26.9 209.9 28.4 C 209.9 30.6 209.1 30.9 208 30.9 C 206.9 30.9 206.1 30.6 206.1 28.4 Z M 213.9 25.8 L 214.7 25.8 C 214.7 25.8 214.75 29.77 214.7 29.8 C 214.7 30.1 214.8 30.5 214.8 30.8 C 214.8 30.82 213.9 30.8 213.9 30.8 L 213.9 30.2 C 213.9 30.2 213.9 30.21 213.9 30.2 C 213.6 30.7 213.1 30.9 212.6 30.9 C 211.7 30.9 211.3 30.5 211.3 29.6 C 211.26 29.62 211.3 25.8 211.3 25.8 L 212.1 25.8 C 212.1 25.8 212.08 29.27 212.1 29.3 C 212.1 29.9 212.4 30.3 212.9 30.3 C 213.4 30.3 213.9 30 213.9 29.1 C 213.93 29.12 213.9 25.8 213.9 25.8 Z M 217.7 30.9 C 216.6 30.9 215.9 30.4 216 29.3 C 216 29.3 216.9 29.3 216.9 29.3 C 216.9 29.6 216.9 30.2 217.7 30.2 C 218.2 30.2 218.6 30 218.6 29.5 C 218.6 28.6 216.1 28.6 216.1 27 C 216.1 26.5 216.4 25.7 217.8 25.7 C 218.7 25.7 219.5 26.1 219.4 27.1 C 219.4 27.1 218.5 27.1 218.5 27.1 C 218.5 26.6 218.3 26.3 217.7 26.3 C 217.3 26.3 217 26.5 217 27 C 217 27.9 219.5 27.8 219.5 29.4 C 219.5 30.5 218.7 30.9 217.7 30.9 Z M 223.6 29.3 C 223.6 29.8 223.9 30.2 224.4 30.2 C 224.9 30.2 225.5 29.9 225.5 28.3 C 224.7 28.3 223.6 28.2 223.6 29.3 Z M 225.5 30.1 C 225.5 30.1 225.47 30.09 225.5 30.1 C 225.2 30.7 224.8 30.9 224.2 30.9 C 223.1 30.9 222.8 30.2 222.8 29.3 C 222.8 27.7 224.3 27.7 225.5 27.7 C 225.5 27 225.5 26.3 224.6 26.3 C 224.1 26.3 223.8 26.7 223.8 27.2 C 223.8 27.2 222.9 27.2 222.9 27.2 C 223 26.1 223.6 25.7 224.6 25.7 C 225.9 25.7 226.3 26.3 226.3 27.2 C 226.3 27.2 226.3 29.6 226.3 29.6 C 226.3 30 226.3 30.4 226.4 30.8 C 226.39 30.82 225.5 30.8 225.5 30.8 L 225.5 30.1 Z M 229.6 26.3 C 228.7 26.3 228.6 27 228.6 28.4 C 228.6 29.1 228.6 30.2 229.6 30.2 C 230.6 30.2 230.6 29.1 230.6 28.1 C 230.6 27.4 230.5 26.3 229.6 26.3 Z M 230.6 23.6 L 231.4 23.6 L 231.4 30.8 L 230.6 30.8 L 230.6 30.2 C 230.6 30.2 230.54 30.22 230.5 30.2 C 230.3 30.7 229.9 30.9 229.4 30.9 C 228.6 30.9 227.7 30.6 227.7 28.4 C 227.7 27.1 227.8 25.7 229.4 25.7 C 229.9 25.7 230.2 25.9 230.5 26.3 C 230.53 26.28 230.6 26.3 230.6 26.3 L 230.6 23.6 Z M 232.3 25.8 L 233.2 25.8 L 234.4 30 L 234.4 30 L 235.6 25.8 L 236.5 25.8 L 234.9 30.8 L 233.8 30.8 L 232.3 25.8 Z M 240.1 27.9 C 240.1 26.5 239.7 26.3 239.1 26.3 C 238.6 26.3 238.1 26.5 238.1 27.9 C 238.1 27.9 240.1 27.9 240.1 27.9 Z M 238.1 28.6 C 238.1 30 238.5 30.2 239.1 30.2 C 239.7 30.2 240 29.8 240 29.3 C 240 29.3 240.9 29.3 240.9 29.3 C 240.9 30.4 240.2 30.9 239.2 30.9 C 238.1 30.9 237.2 30.6 237.2 28.4 C 237.2 26.9 237.4 25.7 239.2 25.7 C 240.6 25.7 241 26.5 241 28.1 C 240.97 28.13 241 28.6 241 28.6 C 241 28.6 238.13 28.56 238.1 28.6 Z M 243.2 26.5 C 243.2 26.5 243.2 26.53 243.2 26.5 C 243.5 25.8 244 25.7 244.8 25.7 C 244.8 25.7 244.8 26.5 244.8 26.5 C 244.7 26.5 244.6 26.5 244.5 26.5 C 244.5 26.5 244.4 26.5 244.3 26.5 C 243.4 26.5 243.2 27.2 243.2 27.8 C 243.18 27.84 243.2 30.8 243.2 30.8 L 242.4 30.8 L 242.4 25.8 L 243.2 25.8 L 243.2 26.5 Z M 247.1 30.9 C 246.1 30.9 245.4 30.4 245.4 29.3 C 245.4 29.3 246.3 29.3 246.3 29.3 C 246.3 29.6 246.3 30.2 247.2 30.2 C 247.7 30.2 248 30 248 29.5 C 248 28.6 245.5 28.6 245.5 27 C 245.5 26.5 245.8 25.7 247.3 25.7 C 248.2 25.7 248.9 26.1 248.9 27.1 C 248.9 27.1 248 27.1 248 27.1 C 248 26.6 247.7 26.3 247.2 26.3 C 246.7 26.3 246.4 26.5 246.4 27 C 246.4 27.9 248.9 27.8 248.9 29.4 C 248.9 30.5 248.1 30.9 247.1 30.9 Z M 252.9 27.9 C 252.9 26.5 252.5 26.3 251.9 26.3 C 251.3 26.3 250.9 26.5 250.9 27.9 C 250.9 27.9 252.9 27.9 252.9 27.9 Z M 250.9 28.6 C 250.9 30 251.3 30.2 251.9 30.2 C 252.5 30.2 252.8 29.8 252.8 29.3 C 252.8 29.3 253.7 29.3 253.7 29.3 C 253.7 30.4 253 30.9 251.9 30.9 C 250.9 30.9 250 30.6 250 28.4 C 250 26.9 250.2 25.7 251.9 25.7 C 253.4 25.7 253.7 26.5 253.7 28.1 C 253.74 28.13 253.7 28.6 253.7 28.6 C 253.7 28.6 250.9 28.56 250.9 28.6 Z M 260.1 27.9 C 260.1 26.5 259.7 26.3 259.1 26.3 C 258.6 26.3 258.1 26.5 258.1 27.9 C 258.1 27.9 260.1 27.9 260.1 27.9 Z M 258.1 28.6 C 258.1 30 258.5 30.2 259.1 30.2 C 259.7 30.2 260 29.8 260 29.3 C 260 29.3 260.9 29.3 260.9 29.3 C 260.9 30.4 260.2 30.9 259.2 30.9 C 258.1 30.9 257.2 30.6 257.2 28.4 C 257.2 26.9 257.4 25.7 259.2 25.7 C 260.6 25.7 261 26.5 261 28.1 C 260.96 28.13 261 28.6 261 28.6 C 261 28.6 258.12 28.56 258.1 28.6 Z M 261.7 25.8 L 262.7 25.8 L 263.8 30 L 263.8 30 L 265 25.8 L 265.9 25.8 L 264.3 30.8 L 263.2 30.8 L 261.7 25.8 Z M 269.5 27.9 C 269.5 26.5 269.1 26.3 268.5 26.3 C 268 26.3 267.6 26.5 267.6 27.9 C 267.6 27.9 269.5 27.9 269.5 27.9 Z M 267.6 28.6 C 267.6 30 267.9 30.2 268.6 30.2 C 269.1 30.2 269.4 29.8 269.5 29.3 C 269.5 29.3 270.4 29.3 270.4 29.3 C 270.3 30.4 269.7 30.9 268.6 30.9 C 267.5 30.9 266.7 30.6 266.7 28.4 C 266.7 26.9 266.8 25.7 268.6 25.7 C 270 25.7 270.4 26.5 270.4 28.1 C 270.4 28.13 270.4 28.6 270.4 28.6 C 270.4 28.6 267.56 28.56 267.6 28.6 Z M 274.5 30.8 C 274.5 30.8 274.5 27.32 274.5 27.3 C 274.5 26.8 274.3 26.3 273.6 26.3 C 272.7 26.3 272.6 27.1 272.6 27.8 C 272.58 27.83 272.6 30.8 272.6 30.8 L 271.8 30.8 C 271.8 30.8 271.76 26.82 271.8 26.8 C 271.8 26.5 271.7 26.1 271.7 25.8 C 271.71 25.77 272.6 25.8 272.6 25.8 L 272.6 26.4 C 272.6 26.4 272.62 26.42 272.6 26.4 C 272.9 25.8 273.3 25.7 274 25.7 C 275 25.7 275.3 26.3 275.3 27.3 C 275.32 27.32 275.3 30.8 275.3 30.8 L 274.5 30.8 Z M 276.8 25.8 L 276.8 24.8 L 277.7 24.4 L 277.7 25.8 L 278.8 25.8 L 278.8 26.4 L 277.7 26.4 C 277.7 26.4 277.67 29.48 277.7 29.5 C 277.7 29.8 277.7 30.2 278.4 30.2 C 278.5 30.2 278.6 30.2 278.8 30.2 C 278.8 30.2 278.8 30.8 278.8 30.8 C 278.5 30.8 278.2 30.9 278 30.9 C 277.2 30.9 276.8 30.6 276.8 30 C 276.85 29.98 276.8 26.4 276.8 26.4 L 276 26.4 L 276 25.8 L 276.8 25.8 Z M 280.4 30.8 L 279.5 30.8 L 279.5 29.8 L 280.4 29.8 L 280.4 30.8 Z " stroke="none" fill="#555555"/>  </g>  <g id="Polygon202214">    <path d="M 0.1 18.8 L 2.1 11.6 L 4.1 11.6 L 6 18.8 L 4.4 18.8 L 4 17.2 L 2 17.2 L 1.6 18.8 L 0.1 18.8 Z M 3 13 L 3 13 L 2.3 16.1 L 3.7 16.1 L 3 13 Z M 9.3 16.2 C 9.3 15.2 9.3 14.5 8.6 14.5 C 8.1 14.5 8.1 15.2 8.1 16.2 C 8.1 17.5 8.2 18 8.6 18 C 9.2 18 9.3 17.5 9.3 16.2 Z M 6.7 11.6 L 8.1 11.6 L 8.1 14.2 C 8.1 14.2 8.1 14.25 8.1 14.2 C 8.4 13.8 8.7 13.7 9.3 13.7 C 10.7 13.7 10.6 15.2 10.6 16.3 C 10.6 17.3 10.7 18.9 9.2 18.9 C 8.7 18.9 8.3 18.7 8 18.3 C 8.03 18.26 8 18.3 8 18.3 L 8 18.8 L 6.7 18.8 L 6.7 11.6 Z M 14.3 16.2 C 14.3 15.2 14.3 14.5 13.6 14.5 C 13.1 14.5 13.1 15.2 13.1 16.2 C 13.1 17.5 13.2 18 13.6 18 C 14.2 18 14.3 17.5 14.3 16.2 Z M 11.7 11.6 L 13.1 11.6 L 13.1 14.2 C 13.1 14.2 13.1 14.25 13.1 14.2 C 13.4 13.8 13.7 13.7 14.3 13.7 C 15.7 13.7 15.6 15.2 15.6 16.3 C 15.6 17.3 15.7 18.9 14.2 18.9 C 13.7 18.9 13.3 18.7 13 18.3 C 13.03 18.26 13 18.3 13 18.3 L 13 18.8 L 11.7 18.8 L 11.7 11.6 Z M 18 13.8 L 18 14.4 C 18 14.4 18.03 14.42 18 14.4 C 18.3 13.8 18.8 13.7 19.3 13.7 C 19.3 13.7 19.3 14.9 19.3 14.9 C 18.1 14.8 18.1 15.6 18.1 16.1 C 18.08 16.07 18.1 18.8 18.1 18.8 L 16.7 18.8 L 16.7 13.8 L 18 13.8 Z M 22.6 15.7 C 22.6 15.2 22.6 14.5 21.9 14.5 C 21.3 14.5 21.3 15.3 21.3 15.7 C 21.3 15.7 22.6 15.7 22.6 15.7 Z M 21.3 16.5 C 21.3 17.1 21.3 18 21.9 18 C 22.4 18 22.5 17.5 22.5 17.1 C 22.5 17.1 24 17.1 24 17.1 C 23.9 17.7 23.8 18.1 23.4 18.4 C 23.1 18.7 22.6 18.9 21.9 18.9 C 20.1 18.9 19.9 17.8 19.9 16.2 C 19.9 14.8 20.1 13.7 21.9 13.7 C 23.8 13.7 24 14.9 24 16.5 C 24 16.5 21.3 16.5 21.3 16.5 Z M 24.5 13.8 L 26 13.8 L 26.7 17.6 L 26.7 17.6 L 27.4 13.8 L 28.8 13.8 L 27.4 18.8 L 25.9 18.8 L 24.5 13.8 Z M 31 18.8 L 29.6 18.8 L 29.6 13.8 L 31 13.8 L 31 18.8 Z M 31 11.6 L 31 12.7 L 29.6 12.7 L 29.6 11.6 L 31 11.6 Z M 33.4 17.2 C 33.4 17.6 33.5 18 34 18 C 34.8 18 34.7 16.9 34.7 16.4 C 34 16.4 33.4 16.3 33.4 17.2 Z M 36 17.9 C 36 18.2 36.1 18.5 36.1 18.8 C 36.12 18.82 34.8 18.8 34.8 18.8 L 34.8 18.1 C 34.8 18.1 34.73 18.15 34.7 18.1 C 34.4 18.7 34 18.9 33.4 18.9 C 32.4 18.9 32.1 18.2 32.1 17.3 C 32.1 15.6 33.4 15.6 34.7 15.6 C 34.7 15.6 34.7 15.2 34.7 15.2 C 34.7 14.8 34.6 14.5 34.1 14.5 C 33.6 14.5 33.6 14.8 33.6 15.2 C 33.6 15.2 32.2 15.2 32.2 15.2 C 32.2 14.6 32.4 14.2 32.7 14 C 33 13.8 33.5 13.7 34 13.7 C 35.8 13.7 36 14.4 36 15.4 C 36 15.4 36 17.9 36 17.9 Z M 36.7 13.8 L 37.2 13.8 L 37.2 13 L 38.6 12.3 L 38.6 13.8 L 39.4 13.8 L 39.4 14.6 L 38.6 14.6 C 38.6 14.6 38.63 17.34 38.6 17.3 C 38.6 17.7 38.6 18 39.1 18 C 39.2 18 39.3 18 39.3 17.9 C 39.3 17.9 39.3 18.8 39.3 18.8 C 39.1 18.8 38.9 18.9 38.6 18.9 C 37.4 18.9 37.2 18.1 37.2 17.7 C 37.22 17.75 37.2 14.6 37.2 14.6 L 36.7 14.6 L 36.7 13.8 Z M 41.5 18.8 L 40.1 18.8 L 40.1 13.8 L 41.5 13.8 L 41.5 18.8 Z M 41.5 11.6 L 41.5 12.7 L 40.1 12.7 L 40.1 11.6 L 41.5 11.6 Z M 45.4 16.1 C 45.4 15.1 45.3 14.6 44.7 14.6 C 44.1 14.6 44.1 15.1 44.1 16.1 C 44.1 17.7 44.2 18 44.7 18 C 45.2 18 45.4 17.7 45.4 16.1 Z M 42.7 16.2 C 42.7 14.8 42.9 13.7 44.7 13.7 C 46.6 13.7 46.8 14.8 46.8 16.2 C 46.8 17.8 46.5 18.9 44.7 18.9 C 42.9 18.9 42.7 17.8 42.7 16.2 Z M 49.2 14.3 C 49.2 14.3 49.21 14.28 49.2 14.3 C 49.3 14 49.5 13.9 49.7 13.8 C 49.9 13.7 50.1 13.7 50.4 13.7 C 51.1 13.7 51.7 14.1 51.7 14.8 C 51.66 14.77 51.7 18.8 51.7 18.8 L 50.3 18.8 C 50.3 18.8 50.25 15.34 50.3 15.3 C 50.3 14.9 50.2 14.5 49.7 14.5 C 49.3 14.5 49.2 14.9 49.2 15.3 C 49.19 15.34 49.2 18.8 49.2 18.8 L 47.8 18.8 L 47.8 13.8 L 49.2 13.8 L 49.2 14.3 Z M 53.9 17.2 C 53.9 17.4 53.9 17.6 54 17.8 C 54 18 54.2 18 54.5 18 C 54.8 18 55 17.9 55 17.5 C 55 16.5 52.5 16.7 52.5 15.1 C 52.5 14 53.6 13.7 54.5 13.7 C 55.5 13.7 56.3 14.1 56.2 15.2 C 56.2 15.2 54.9 15.2 54.9 15.2 C 54.9 14.9 54.8 14.7 54.7 14.6 C 54.6 14.5 54.5 14.5 54.4 14.5 C 54.1 14.5 53.9 14.7 53.9 15 C 53.9 15.8 56.4 15.8 56.4 17.4 C 56.4 18.3 55.6 18.9 54.5 18.9 C 53.2 18.9 52.4 18.6 52.5 17.2 C 52.5 17.2 53.9 17.2 53.9 17.2 Z M 58.4 13.8 L 58.4 15.1 L 57.2 15.1 L 57.2 13.8 L 58.4 13.8 Z M 58.4 18.8 L 57.2 18.8 L 57.2 17.5 L 58.4 17.5 L 58.4 18.8 Z M 63.5 11.6 L 64.7 11.6 L 67.1 18.8 L 66 18.8 L 65.5 17.1 L 62.7 17.1 L 62.2 18.8 L 61.2 18.8 L 63.5 11.6 Z M 64.1 12.4 L 64.1 12.4 L 62.9 16.3 L 65.3 16.3 L 64.1 12.4 Z M 68 18.8 L 68 11.6 L 71.7 11.6 L 71.7 12.4 L 68.9 12.4 L 68.9 14.7 L 71.5 14.7 L 71.5 15.5 L 68.9 15.5 L 68.9 18 L 71.8 18 L 71.8 18.8 L 68 18.8 Z M 73.1 17.8 L 74.1 17.8 L 73.2 20.1 L 72.5 20.1 L 73.1 17.8 Z M 78.1 17.3 C 78.1 17.8 78.4 18.2 78.9 18.2 C 79.4 18.2 80 17.9 79.9 16.3 C 79.2 16.3 78.1 16.2 78.1 17.3 Z M 80 18.1 C 80 18.1 79.95 18.09 79.9 18.1 C 79.7 18.7 79.3 18.9 78.7 18.9 C 77.6 18.9 77.3 18.2 77.3 17.3 C 77.3 15.7 78.8 15.7 79.9 15.7 C 80 15 80 14.3 79.1 14.3 C 78.5 14.3 78.3 14.7 78.3 15.2 C 78.3 15.2 77.4 15.2 77.4 15.2 C 77.5 14.1 78.1 13.7 79.1 13.7 C 80.4 13.7 80.8 14.3 80.8 15.2 C 80.8 15.2 80.8 17.6 80.8 17.6 C 80.8 18 80.8 18.4 80.9 18.8 C 80.87 18.82 80 18.8 80 18.8 L 80 18.1 Z M 84.1 14.3 C 83.2 14.3 83.1 15 83.1 16.4 C 83.1 17.1 83.1 18.2 84.1 18.2 C 85 18.2 85 17.1 85 16.1 C 85 15.4 85 14.3 84.1 14.3 Z M 85 11.6 L 85.9 11.6 L 85.9 18.8 L 85 18.8 L 85 18.2 C 85 18.2 85.02 18.22 85 18.2 C 84.7 18.7 84.4 18.9 83.9 18.9 C 83 18.9 82.2 18.6 82.2 16.4 C 82.2 15.1 82.3 13.7 83.9 13.7 C 84.4 13.7 84.7 13.9 85 14.3 C 85.01 14.28 85 14.3 85 14.3 L 85 11.6 Z M 86.8 13.8 L 87.7 13.8 L 88.8 18 L 88.9 18 L 90.1 13.8 L 90.9 13.8 L 89.4 18.8 L 88.3 18.8 L 86.8 13.8 Z M 94.6 15.9 C 94.6 14.5 94.2 14.3 93.6 14.3 C 93 14.3 92.6 14.5 92.6 15.9 C 92.6 15.9 94.6 15.9 94.6 15.9 Z M 92.6 16.6 C 92.6 18 93 18.2 93.6 18.2 C 94.2 18.2 94.5 17.8 94.5 17.3 C 94.5 17.3 95.4 17.3 95.4 17.3 C 95.4 18.4 94.7 18.9 93.6 18.9 C 92.6 18.9 91.7 18.6 91.7 16.4 C 91.7 14.9 91.9 13.7 93.6 13.7 C 95.1 13.7 95.4 14.5 95.4 16.1 C 95.45 16.13 95.4 16.6 95.4 16.6 C 95.4 16.6 92.61 16.56 92.6 16.6 Z M 97.7 14.5 C 97.7 14.5 97.68 14.53 97.7 14.5 C 98 13.8 98.4 13.7 99.2 13.7 C 99.2 13.7 99.2 14.5 99.2 14.5 C 99.2 14.5 99.1 14.5 99 14.5 C 98.9 14.5 98.9 14.5 98.8 14.5 C 97.9 14.5 97.7 15.2 97.7 15.8 C 97.66 15.84 97.7 18.8 97.7 18.8 L 96.8 18.8 L 96.8 13.8 L 97.7 13.8 L 97.7 14.5 Z M 101.6 18.9 C 100.5 18.9 99.9 18.4 99.9 17.3 C 99.9 17.3 100.8 17.3 100.8 17.3 C 100.8 17.6 100.8 18.2 101.7 18.2 C 102.1 18.2 102.5 18 102.5 17.5 C 102.5 16.6 100 16.6 100 15 C 100 14.5 100.3 13.7 101.7 13.7 C 102.6 13.7 103.4 14.1 103.3 15.1 C 103.3 15.1 102.4 15.1 102.4 15.1 C 102.4 14.6 102.2 14.3 101.6 14.3 C 101.2 14.3 100.9 14.5 100.9 15 C 100.9 15.9 103.4 15.8 103.4 17.4 C 103.4 18.5 102.6 18.9 101.6 18.9 Z M 107.3 15.9 C 107.3 14.5 106.9 14.3 106.3 14.3 C 105.8 14.3 105.4 14.5 105.4 15.9 C 105.4 15.9 107.3 15.9 107.3 15.9 Z M 105.4 16.6 C 105.4 18 105.8 18.2 106.4 18.2 C 107 18.2 107.2 17.8 107.3 17.3 C 107.3 17.3 108.2 17.3 108.2 17.3 C 108.2 18.4 107.5 18.9 106.4 18.9 C 105.3 18.9 104.5 18.6 104.5 16.4 C 104.5 14.9 104.7 13.7 106.4 13.7 C 107.9 13.7 108.2 14.5 108.2 16.1 C 108.22 16.13 108.2 16.6 108.2 16.6 C 108.2 16.6 105.38 16.56 105.4 16.6 Z M 114.6 15.9 C 114.6 14.5 114.2 14.3 113.6 14.3 C 113 14.3 112.6 14.5 112.6 15.9 C 112.6 15.9 114.6 15.9 114.6 15.9 Z M 112.6 16.6 C 112.6 18 113 18.2 113.6 18.2 C 114.2 18.2 114.5 17.8 114.5 17.3 C 114.5 17.3 115.4 17.3 115.4 17.3 C 115.4 18.4 114.7 18.9 113.6 18.9 C 112.6 18.9 111.7 18.6 111.7 16.4 C 111.7 14.9 111.9 13.7 113.6 13.7 C 115.1 13.7 115.4 14.5 115.4 16.1 C 115.44 16.13 115.4 16.6 115.4 16.6 C 115.4 16.6 112.6 16.56 112.6 16.6 Z M 116.2 13.8 L 117.1 13.8 L 118.3 18 L 118.3 18 L 119.5 13.8 L 120.4 13.8 L 118.8 18.8 L 117.7 18.8 L 116.2 13.8 Z M 124 15.9 C 124 14.5 123.6 14.3 123 14.3 C 122.5 14.3 122 14.5 122 15.9 C 122 15.9 124 15.9 124 15.9 Z M 122 16.6 C 122 18 122.4 18.2 123.1 18.2 C 123.6 18.2 123.9 17.8 123.9 17.3 C 123.9 17.3 124.8 17.3 124.8 17.3 C 124.8 18.4 124.1 18.9 123.1 18.9 C 122 18.9 121.2 18.6 121.2 16.4 C 121.2 14.9 121.3 13.7 123.1 13.7 C 124.5 13.7 124.9 14.5 124.9 16.1 C 124.88 16.13 124.9 16.6 124.9 16.6 C 124.9 16.6 122.04 16.56 122 16.6 Z M 129 18.8 C 129 18.8 128.98 15.32 129 15.3 C 129 14.8 128.8 14.3 128.1 14.3 C 127.2 14.3 127.1 15.1 127.1 15.8 C 127.06 15.83 127.1 18.8 127.1 18.8 L 126.2 18.8 C 126.2 18.8 126.24 14.82 126.2 14.8 C 126.2 14.5 126.2 14.1 126.2 13.8 C 126.19 13.77 127.1 13.8 127.1 13.8 L 127.1 14.4 C 127.1 14.4 127.1 14.42 127.1 14.4 C 127.4 13.8 127.8 13.7 128.4 13.7 C 129.5 13.7 129.8 14.3 129.8 15.3 C 129.8 15.32 129.8 18.8 129.8 18.8 L 129 18.8 Z M 131.3 13.8 L 131.3 12.8 L 132.1 12.4 L 132.1 13.8 L 133.2 13.8 L 133.2 14.4 L 132.1 14.4 C 132.1 14.4 132.15 17.48 132.1 17.5 C 132.1 17.8 132.1 18.2 132.9 18.2 C 133 18.2 133.1 18.2 133.3 18.2 C 133.3 18.2 133.3 18.8 133.3 18.8 C 133 18.8 132.7 18.9 132.5 18.9 C 131.7 18.9 131.3 18.6 131.3 18 C 131.33 17.98 131.3 14.4 131.3 14.4 L 130.5 14.4 L 130.5 13.8 L 131.3 13.8 Z M 134.2 17.8 L 135.2 17.8 L 134.3 20.1 L 133.6 20.1 L 134.2 17.8 Z M 134.9 14.8 L 133.9 14.8 L 133.9 13.8 L 134.9 13.8 L 134.9 14.8 Z M 138.5 16.2 C 138.5 16.2 138.5 13.8 138.5 13.8 C 138.5 12.4 139.3 11.4 140.8 11.4 C 142.3 11.4 143.1 12.4 143.1 13.8 C 143.1 13.8 143.1 16.2 143.1 16.2 C 143.1 18.2 142.3 19 140.8 19 C 139.3 19 138.5 18.2 138.5 16.2 Z M 142.1 16.2 C 142.1 16.2 142.1 13.8 142.1 13.8 C 142.1 12.3 141.1 12.2 140.8 12.2 C 140.5 12.2 139.5 12.3 139.5 13.8 C 139.5 13.8 139.5 16.2 139.5 16.2 C 139.5 17.8 139.9 18.2 140.8 18.2 C 141.7 18.2 142.1 17.8 142.1 16.2 Z M 144.7 18.8 L 144.7 11.6 L 145.6 11.6 L 145.6 18 L 148.2 18 L 148.2 18.8 L 144.7 18.8 Z M 149.1 18.8 L 149.1 11.6 L 152.8 11.6 L 152.8 12.4 L 150 12.4 L 150 14.7 L 152.6 14.7 L 152.6 15.5 L 150 15.5 L 150 18 L 152.9 18 L 152.9 18.8 L 149.1 18.8 Z M 154.1 17.8 L 155.2 17.8 L 154.3 20.1 L 153.6 20.1 L 154.1 17.8 Z M 161.3 16 C 161.3 14.6 160.9 14.3 160.2 14.3 C 159.6 14.3 159.2 14.6 159.2 16 C 159.2 17.7 159.4 18.2 160.2 18.2 C 161.1 18.2 161.3 17.7 161.3 16 Z M 158.3 16.4 C 158.3 14.9 158.5 13.7 160.2 13.7 C 162 13.7 162.1 14.9 162.1 16.4 C 162.1 18.6 161.3 18.9 160.2 18.9 C 159.2 18.9 158.3 18.6 158.3 16.4 Z M 166.3 16.2 C 166.3 15.4 166.3 14.3 165.3 14.3 C 164.2 14.3 164.3 15.7 164.3 16.5 C 164.3 17.2 164.4 18.2 165.3 18.2 C 166.2 18.2 166.3 17.6 166.3 16.2 Z M 164.3 14.4 C 164.3 14.4 164.36 14.37 164.4 14.4 C 164.6 13.9 165 13.7 165.5 13.7 C 166.3 13.7 167.1 14 167.1 16.2 C 167.1 17.5 167.1 18.9 165.5 18.9 C 165 18.9 164.6 18.7 164.4 18.3 C 164.37 18.31 164.3 18.3 164.3 18.3 L 164.3 20.7 L 163.5 20.7 L 163.5 13.8 L 164.3 13.8 L 164.3 14.4 Z M 171.2 15.9 C 171.2 14.5 170.8 14.3 170.2 14.3 C 169.7 14.3 169.3 14.5 169.2 15.9 C 169.2 15.9 171.2 15.9 171.2 15.9 Z M 169.2 16.6 C 169.2 18 169.6 18.2 170.3 18.2 C 170.8 18.2 171.1 17.8 171.1 17.3 C 171.1 17.3 172 17.3 172 17.3 C 172 18.4 171.3 18.9 170.3 18.9 C 169.2 18.9 168.4 18.6 168.4 16.4 C 168.4 14.9 168.5 13.7 170.3 13.7 C 171.7 13.7 172.1 14.5 172.1 16.1 C 172.09 16.13 172.1 16.6 172.1 16.6 C 172.1 16.6 169.25 16.56 169.2 16.6 Z M 176.2 18.8 C 176.2 18.8 176.19 15.32 176.2 15.3 C 176.2 14.8 176 14.3 175.3 14.3 C 174.4 14.3 174.3 15.1 174.3 15.8 C 174.27 15.83 174.3 18.8 174.3 18.8 L 173.4 18.8 C 173.4 18.8 173.45 14.82 173.4 14.8 C 173.4 14.5 173.4 14.1 173.4 13.8 C 173.4 13.77 174.3 13.8 174.3 13.8 L 174.3 14.4 C 174.3 14.4 174.31 14.42 174.3 14.4 C 174.6 13.8 175 13.7 175.7 13.7 C 176.7 13.7 177 14.3 177 15.3 C 177.01 15.32 177 18.8 177 18.8 L 176.2 18.8 Z M 181.5 18.8 L 180.6 18.8 L 180.6 11.6 L 181.5 11.6 L 181.5 18.8 Z M 183.6 17.3 C 183.6 17.8 183.9 18.2 184.4 18.2 C 184.9 18.2 185.5 17.9 185.5 16.3 C 184.7 16.3 183.6 16.2 183.6 17.3 Z M 185.5 18.1 C 185.5 18.1 185.47 18.09 185.5 18.1 C 185.2 18.7 184.8 18.9 184.2 18.9 C 183.1 18.9 182.8 18.2 182.8 17.3 C 182.8 15.7 184.3 15.7 185.5 15.7 C 185.5 15 185.5 14.3 184.6 14.3 C 184.1 14.3 183.8 14.7 183.8 15.2 C 183.8 15.2 182.9 15.2 182.9 15.2 C 183 14.1 183.6 13.7 184.6 13.7 C 185.9 13.7 186.3 14.3 186.3 15.2 C 186.3 15.2 186.3 17.6 186.3 17.6 C 186.3 18 186.3 18.4 186.4 18.8 C 186.39 18.82 185.5 18.8 185.5 18.8 L 185.5 18.1 Z M 189.7 18.2 C 190.7 18.2 190.7 17.1 190.7 16.4 C 190.7 15 190.6 14.3 189.7 14.3 C 188.8 14.3 188.8 15.4 188.8 16.1 C 188.8 16.9 188.7 18.2 189.7 18.2 Z M 188.8 18.8 L 188 18.8 L 188 11.6 L 188.8 11.6 L 188.8 14.3 C 188.8 14.3 188.81 14.28 188.8 14.3 C 189.1 13.9 189.4 13.7 189.9 13.7 C 191.5 13.7 191.6 15.1 191.6 16.4 C 191.6 18.6 190.8 18.9 190 18.9 C 189.4 18.9 189.1 18.7 188.8 18.2 C 188.8 18.22 188.8 18.2 188.8 18.2 L 188.8 18.8 Z M 195.7 15.9 C 195.7 14.5 195.2 14.3 194.6 14.3 C 194.1 14.3 193.7 14.5 193.7 15.9 C 193.7 15.9 195.7 15.9 195.7 15.9 Z M 193.7 16.6 C 193.7 18 194.1 18.2 194.7 18.2 C 195.3 18.2 195.6 17.8 195.6 17.3 C 195.6 17.3 196.5 17.3 196.5 17.3 C 196.5 18.4 195.8 18.9 194.7 18.9 C 193.7 18.9 192.8 18.6 192.8 16.4 C 192.8 14.9 193 13.7 194.7 13.7 C 196.2 13.7 196.5 14.5 196.5 16.1 C 196.53 16.13 196.5 16.6 196.5 16.6 C 196.5 16.6 193.69 16.56 193.7 16.6 Z M 198.7 18.8 L 197.9 18.8 L 197.9 11.6 L 198.7 11.6 L 198.7 18.8 Z M 205.1 15.9 C 205.1 14.5 204.7 14.3 204.1 14.3 C 203.6 14.3 203.1 14.5 203.1 15.9 C 203.1 15.9 205.1 15.9 205.1 15.9 Z M 203.1 16.6 C 203.1 18 203.5 18.2 204.1 18.2 C 204.7 18.2 205 17.8 205 17.3 C 205 17.3 205.9 17.3 205.9 17.3 C 205.9 18.4 205.2 18.9 204.2 18.9 C 203.1 18.9 202.2 18.6 202.2 16.4 C 202.2 14.9 202.4 13.7 204.2 13.7 C 205.6 13.7 206 14.5 206 16.1 C 205.97 16.13 206 16.6 206 16.6 C 206 16.6 203.13 16.56 203.1 16.6 Z M 211 18.8 L 209.9 18.8 L 208.7 16.7 L 207.6 18.8 L 206.7 18.8 L 208.2 16.2 L 206.8 13.8 L 207.8 13.8 L 208.8 15.6 L 209.8 13.8 L 210.8 13.8 L 209.3 16.2 L 211 18.8 Z M 211.9 13.8 L 211.9 12.8 L 212.7 12.4 L 212.7 13.8 L 213.8 13.8 L 213.8 14.4 L 212.7 14.4 C 212.7 14.4 212.68 17.48 212.7 17.5 C 212.7 17.8 212.7 18.2 213.4 18.2 C 213.5 18.2 213.6 18.2 213.8 18.2 C 213.8 18.2 213.8 18.8 213.8 18.8 C 213.5 18.8 213.3 18.9 213 18.9 C 212.2 18.9 211.9 18.6 211.9 18 C 211.86 17.98 211.9 14.4 211.9 14.4 L 211 14.4 L 211 13.8 L 211.9 13.8 Z M 217.3 15.9 C 217.3 14.5 216.9 14.3 216.3 14.3 C 215.8 14.3 215.4 14.5 215.3 15.9 C 215.3 15.9 217.3 15.9 217.3 15.9 Z M 215.3 16.6 C 215.3 18 215.7 18.2 216.4 18.2 C 216.9 18.2 217.2 17.8 217.2 17.3 C 217.2 17.3 218.1 17.3 218.1 17.3 C 218.1 18.4 217.4 18.9 216.4 18.9 C 215.3 18.9 214.5 18.6 214.5 16.4 C 214.5 14.9 214.6 13.7 216.4 13.7 C 217.8 13.7 218.2 14.5 218.2 16.1 C 218.19 16.13 218.2 16.6 218.2 16.6 C 218.2 16.6 215.35 16.56 215.3 16.6 Z M 222.3 18.8 C 222.3 18.8 222.29 15.32 222.3 15.3 C 222.3 14.8 222.1 14.3 221.4 14.3 C 220.5 14.3 220.4 15.1 220.4 15.8 C 220.37 15.83 220.4 18.8 220.4 18.8 L 219.5 18.8 C 219.5 18.8 219.55 14.82 219.5 14.8 C 219.5 14.5 219.5 14.1 219.5 13.8 C 219.5 13.77 220.4 13.8 220.4 13.8 L 220.4 14.4 C 220.4 14.4 220.41 14.42 220.4 14.4 C 220.7 13.8 221.1 13.7 221.8 13.7 C 222.8 13.7 223.1 14.3 223.1 15.3 C 223.11 15.32 223.1 18.8 223.1 18.8 L 222.3 18.8 Z M 226 18.9 C 224.9 18.9 224.3 18.4 224.3 17.3 C 224.3 17.3 225.2 17.3 225.2 17.3 C 225.2 17.6 225.2 18.2 226.1 18.2 C 226.6 18.2 226.9 18 226.9 17.5 C 226.9 16.6 224.4 16.6 224.4 15 C 224.4 14.5 224.7 13.7 226.2 13.7 C 227.1 13.7 227.8 14.1 227.8 15.1 C 227.8 15.1 226.8 15.1 226.8 15.1 C 226.9 14.6 226.6 14.3 226.1 14.3 C 225.6 14.3 225.3 14.5 225.3 15 C 225.3 15.9 227.8 15.8 227.8 17.4 C 227.8 18.5 227 18.9 226 18.9 Z M 229.8 18.8 L 229 18.8 L 229 13.8 L 229.8 13.8 L 229.8 18.8 Z M 228.9 11.6 L 229.8 11.6 L 229.8 12.5 L 228.9 12.5 L 228.9 11.6 Z M 234 16 C 234 14.6 233.6 14.3 233 14.3 C 232.4 14.3 231.9 14.6 231.9 16 C 231.9 17.7 232.1 18.2 233 18.2 C 233.8 18.2 234 17.7 234 16 Z M 231.1 16.4 C 231.1 14.9 231.2 13.7 233 13.7 C 234.7 13.7 234.9 14.9 234.9 16.4 C 234.9 18.6 234.1 18.9 233 18.9 C 231.9 18.9 231.1 18.6 231.1 16.4 Z M 238.9 18.8 C 238.9 18.8 238.95 15.32 238.9 15.3 C 238.9 14.8 238.8 14.3 238.1 14.3 C 237.2 14.3 237 15.1 237 15.8 C 237.03 15.83 237 18.8 237 18.8 L 236.2 18.8 C 236.2 18.8 236.21 14.82 236.2 14.8 C 236.2 14.5 236.2 14.1 236.2 13.8 C 236.16 13.77 237 13.8 237 13.8 L 237 14.4 C 237 14.4 237.07 14.42 237.1 14.4 C 237.4 13.8 237.8 13.7 238.4 13.7 C 239.5 13.7 239.8 14.3 239.8 15.3 C 239.77 15.32 239.8 18.8 239.8 18.8 L 238.9 18.8 Z M 241.3 17.8 L 242.4 17.8 L 241.5 20.1 L 240.8 20.1 L 241.3 17.8 Z M 242.1 14.8 L 241.1 14.8 L 241.1 13.8 L 242.1 13.8 L 242.1 14.8 Z " stroke="none" fill="#555555"/>  </g></svg>