<?xml version="1.0" standalone="no"?><!DOCTYPE svg PUBLIC "-//W3C//DTD SVG 1.1//EN" "http://www.w3.org/Graphics/SVG/1.1/DTD/svg11.dtd"><svg xmlns="http://www.w3.org/2000/svg" version="1.1" width="719px" height="89.8px" viewBox="0 -1 719 89.8" style="top:-1px">  <desc>*This data is based on interim analysis with data cut off of February 2023, n=161, with median ANDEMBRY® exposure of ...</desc>  <defs/>  <g id="Polygon199471">    <path d="M 1.5 79.9 C 1.5 79.9 1.52 80.06 1.5 80.1 C 1.5 81 2.1 81.4 2.7 81.4 C 3.5 81.4 4 81 4 80.2 C 4 78.6 0.8 78.8 0.8 76.6 C 0.8 75.3 1.7 74.6 2.9 74.6 C 4.2 74.6 5 75.3 4.9 76.7 C 4.9 76.7 3.9 76.7 3.9 76.7 C 4 75.9 3.7 75.4 2.8 75.4 C 2.3 75.4 1.7 75.7 1.7 76.5 C 1.7 78.1 5 77.8 5 80.1 C 5 81.7 3.9 82.1 2.7 82.1 C 0.6 82.2 0.6 80.5 0.6 79.9 C 0.61 79.85 1.5 79.9 1.5 79.9 Z M 9.7 76.7 C 9.7 75.9 9.4 75.4 8.5 75.4 C 8.2 75.4 7.1 75.4 7.1 77 C 7.1 77 7.1 79.4 7.1 79.4 C 7.1 81 7.6 81.4 8.5 81.4 C 9.1 81.4 9.6 81.2 9.7 81.1 C 9.74 81.06 9.7 78.9 9.7 78.9 L 8.4 78.9 L 8.4 78.1 L 10.7 78.1 C 10.7 78.1 10.66 81.61 10.7 81.6 C 10.1 81.9 9.4 82.1 8.5 82.1 C 6.9 82.1 6.2 81.4 6.2 79.4 C 6.2 79.4 6.2 77 6.2 77 C 6.2 75.5 6.9 74.6 8.5 74.6 C 10 74.6 10.7 75.2 10.7 76.7 C 10.7 76.7 9.7 76.7 9.7 76.7 Z M 13.9 74.8 L 15.1 74.8 L 17.4 82 L 16.4 82 L 15.9 80.3 L 13.1 80.3 L 12.6 82 L 11.6 82 L 13.9 74.8 Z M 14.5 75.6 L 14.4 75.6 L 13.3 79.5 L 15.6 79.5 L 14.5 75.6 Z M 19.2 77.9 C 19.2 77.9 20.57 77.88 20.6 77.9 C 21.2 77.9 21.6 77.3 21.6 76.7 C 21.6 76.2 21.3 75.6 20.6 75.6 C 20.58 75.58 19.2 75.6 19.2 75.6 L 19.2 77.9 Z M 19.2 78.7 L 19.2 82 L 18.3 82 L 18.3 74.8 C 18.3 74.8 20.76 74.78 20.8 74.8 C 22 74.8 22.5 75.7 22.5 76.6 C 22.5 77.4 22 78.1 21.2 78.2 C 21.2 78.2 21.2 78.3 21.2 78.3 C 22 78.4 22.3 78.7 22.3 80.1 C 22.4 80.4 22.5 81.5 22.6 82 C 22.6 82 21.6 82 21.6 82 C 21.4 81.5 21.4 80.6 21.4 79.6 C 21.3 78.7 20.6 78.7 20.3 78.7 C 20.27 78.68 19.2 78.7 19.2 78.7 Z M 27.8 74.8 L 27.8 75.6 L 25.9 75.6 L 25.9 82 L 25 82 L 25 75.6 L 23.1 75.6 L 23.1 74.8 L 27.8 74.8 Z M 28.5 78 L 27.6 78 L 27.6 77 L 28.5 77 L 28.5 78 Z M 28.5 82 L 27.6 82 L 27.6 81 L 28.5 81 L 28.5 82 Z M 32.7 79.9 C 32.7 79.9 32.7 80.06 32.7 80.1 C 32.7 81 33.3 81.4 33.9 81.4 C 34.6 81.4 35.2 81 35.2 80.2 C 35.2 78.6 32 78.8 32 76.6 C 32 75.3 32.9 74.6 34.1 74.6 C 35.4 74.6 36.1 75.3 36.1 76.7 C 36.1 76.7 35.1 76.7 35.1 76.7 C 35.1 75.9 34.9 75.4 34 75.4 C 33.5 75.4 32.9 75.7 32.9 76.5 C 32.9 78.1 36.1 77.8 36.1 80.1 C 36.1 81.7 35.1 82.1 33.9 82.1 C 31.8 82.2 31.8 80.5 31.8 79.9 C 31.79 79.85 32.7 79.9 32.7 79.9 Z M 40.1 77 L 40.9 77 C 40.9 77 40.88 80.95 40.9 81 C 40.9 81.3 40.9 81.7 40.9 82 C 40.93 82 40.1 82 40.1 82 L 40.1 81.4 C 40.1 81.4 40.03 81.39 40 81.4 C 39.8 81.8 39.3 82.1 38.7 82.1 C 37.9 82.1 37.4 81.7 37.4 80.8 C 37.39 80.8 37.4 77 37.4 77 L 38.2 77 C 38.2 77 38.21 80.45 38.2 80.5 C 38.2 81.1 38.5 81.5 39.1 81.5 C 39.5 81.5 40.1 81.1 40.1 80.3 C 40.06 80.3 40.1 77 40.1 77 Z M 44.1 81.4 C 45.1 81.4 45.1 80.3 45.1 79.6 C 45.1 78.2 45 77.5 44.1 77.5 C 43.2 77.5 43.1 78.6 43.1 79.3 C 43.1 80 43.1 81.4 44.1 81.4 Z M 43.1 82 L 42.3 82 L 42.3 74.8 L 43.1 74.8 L 43.1 77.5 C 43.1 77.5 43.18 77.46 43.2 77.5 C 43.5 77.1 43.8 76.9 44.3 76.9 C 45.9 76.9 46 78.3 46 79.6 C 46 81.8 45.1 82.1 44.3 82.1 C 43.8 82.1 43.4 81.9 43.2 81.4 C 43.17 81.4 43.1 81.4 43.1 81.4 L 43.1 82 Z M 47.1 77 L 48 77 C 48 77 47.96 82.7 48 82.7 C 48 83.5 47.7 83.9 46.5 83.9 C 46.5 83.9 46.5 83.2 46.5 83.2 C 46.9 83.2 47.1 83.2 47.1 82.7 C 47.14 82.74 47.1 77 47.1 77 Z M 47.1 74.8 L 48 74.8 L 48 75.7 L 47.1 75.7 L 47.1 74.8 Z M 52.1 79.1 C 52.1 77.6 51.6 77.5 51 77.5 C 50.5 77.5 50.1 77.7 50.1 79.1 C 50.1 79.1 52.1 79.1 52.1 79.1 Z M 50.1 79.7 C 50.1 81.2 50.5 81.4 51.1 81.4 C 51.7 81.4 52 81 52 80.5 C 52 80.5 52.9 80.5 52.9 80.5 C 52.9 81.6 52.2 82.1 51.1 82.1 C 50 82.1 49.2 81.8 49.2 79.5 C 49.2 78.1 49.4 76.9 51.1 76.9 C 52.6 76.9 52.9 77.6 52.9 79.3 C 52.92 79.31 52.9 79.7 52.9 79.7 C 52.9 79.7 50.08 79.74 50.1 79.7 Z M 56.8 78.6 C 56.8 77.7 56.4 77.5 56.1 77.5 C 55.5 77.5 55.1 77.8 55.1 79.2 C 55.1 80.8 55.3 81.4 56.1 81.4 C 56.3 81.4 56.9 81.2 56.9 80.3 C 56.9 80.3 57.7 80.3 57.7 80.3 C 57.7 81.7 56.7 82.1 56.1 82.1 C 55 82.1 54.2 81.8 54.2 79.6 C 54.2 78.1 54.4 76.9 56.1 76.9 C 57.1 76.9 57.7 77.4 57.7 78.6 C 57.7 78.6 56.8 78.6 56.8 78.6 Z M 59.2 77 L 59.2 76 L 60 75.6 L 60 77 L 61.1 77 L 61.1 77.6 L 60 77.6 C 60 77.6 59.99 80.66 60 80.7 C 60 81 60 81.4 60.7 81.4 C 60.8 81.4 60.9 81.4 61.1 81.4 C 61.1 81.4 61.1 82 61.1 82 C 60.8 82 60.6 82.1 60.3 82.1 C 59.5 82.1 59.2 81.7 59.2 81.2 C 59.17 81.16 59.2 77.6 59.2 77.6 L 58.3 77.6 L 58.3 77 L 59.2 77 Z M 61.8 74.8 L 62.9 74.8 L 62.1 76.8 L 61.4 76.8 L 61.8 74.8 Z M 64.6 82.1 C 63.5 82.1 62.9 81.6 62.9 80.5 C 62.9 80.5 63.8 80.5 63.8 80.5 C 63.8 80.8 63.8 81.4 64.7 81.4 C 65.1 81.4 65.5 81.2 65.5 80.7 C 65.5 79.8 63 79.7 63 78.2 C 63 77.7 63.3 76.9 64.7 76.9 C 65.6 76.9 66.4 77.3 66.3 78.3 C 66.3 78.3 65.4 78.3 65.4 78.3 C 65.4 77.7 65.2 77.5 64.6 77.5 C 64.2 77.5 63.9 77.7 63.9 78.1 C 63.9 79 66.4 79 66.4 80.6 C 66.4 81.7 65.6 82.1 64.6 82.1 Z M 73.1 76.7 C 73.1 75.9 72.8 75.4 71.9 75.4 C 71.6 75.4 70.5 75.4 70.5 77 C 70.5 77 70.5 79.4 70.5 79.4 C 70.5 81 71 81.4 71.9 81.4 C 72.5 81.4 73 81.2 73.2 81.1 C 73.16 81.06 73.2 78.9 73.2 78.9 L 71.8 78.9 L 71.8 78.1 L 74.1 78.1 C 74.1 78.1 74.08 81.61 74.1 81.6 C 73.5 81.9 72.8 82.1 71.9 82.1 C 70.3 82.1 69.6 81.4 69.6 79.4 C 69.6 79.4 69.6 77 69.6 77 C 69.6 75.5 70.3 74.6 71.9 74.6 C 73.4 74.6 74.2 75.2 74.1 76.7 C 74.1 76.7 73.1 76.7 73.1 76.7 Z M 76.4 82 L 75.6 82 L 75.6 74.8 L 76.4 74.8 L 76.4 82 Z M 80.6 79.2 C 80.6 77.8 80.1 77.5 79.5 77.5 C 78.9 77.5 78.4 77.8 78.4 79.2 C 78.4 80.8 78.7 81.4 79.5 81.4 C 80.4 81.4 80.6 80.8 80.6 79.2 Z M 77.6 79.6 C 77.6 78.1 77.8 76.9 79.5 76.9 C 81.3 76.9 81.4 78.1 81.4 79.6 C 81.4 81.8 80.6 82.1 79.5 82.1 C 78.4 82.1 77.6 81.8 77.6 79.6 Z M 84.4 81.4 C 85.5 81.4 85.5 80.3 85.5 79.6 C 85.5 78.2 85.3 77.5 84.5 77.5 C 83.6 77.5 83.5 78.6 83.5 79.3 C 83.5 80 83.4 81.4 84.4 81.4 Z M 83.5 82 L 82.7 82 L 82.7 74.8 L 83.5 74.8 L 83.5 77.5 C 83.5 77.5 83.55 77.46 83.5 77.5 C 83.8 77.1 84.2 76.9 84.7 76.9 C 86.3 76.9 86.3 78.3 86.3 79.6 C 86.3 81.8 85.5 82.1 84.7 82.1 C 84.2 82.1 83.8 81.9 83.5 81.4 C 83.54 81.4 83.5 81.4 83.5 81.4 L 83.5 82 Z M 88.3 80.5 C 88.3 81 88.5 81.4 89.1 81.4 C 89.6 81.4 90.2 81.1 90.1 79.5 C 89.3 79.5 88.3 79.4 88.3 80.5 Z M 90.1 81.3 C 90.1 81.3 90.11 81.27 90.1 81.3 C 89.9 81.8 89.5 82.1 88.8 82.1 C 87.8 82.1 87.5 81.4 87.5 80.4 C 87.5 78.9 89 78.8 90.1 78.9 C 90.1 78.2 90.1 77.5 89.3 77.5 C 88.7 77.5 88.4 77.8 88.5 78.4 C 88.5 78.4 87.6 78.4 87.6 78.4 C 87.6 77.2 88.2 76.9 89.3 76.9 C 90.6 76.9 90.9 77.5 90.9 78.4 C 90.9 78.4 90.9 80.8 90.9 80.8 C 90.9 81.2 91 81.6 91 82 C 91.03 82 90.1 82 90.1 82 L 90.1 81.3 Z M 93.2 82 L 92.4 82 L 92.4 74.8 L 93.2 74.8 L 93.2 82 Z M 98.4 74.8 L 99.6 74.8 L 101.9 82 L 100.9 82 L 100.4 80.3 L 97.6 80.3 L 97 82 L 96.1 82 L 98.4 74.8 Z M 98.9 75.6 L 98.9 75.6 L 97.8 79.5 L 100.1 79.5 L 98.9 75.6 Z M 104.2 82.1 C 103.1 82.1 102.4 81.6 102.4 80.5 C 102.4 80.5 103.4 80.5 103.4 80.5 C 103.4 80.8 103.4 81.4 104.2 81.4 C 104.7 81.4 105.1 81.2 105.1 80.7 C 105.1 79.8 102.5 79.7 102.5 78.2 C 102.5 77.7 102.9 76.9 104.3 76.9 C 105.2 76.9 106 77.3 105.9 78.3 C 105.9 78.3 105 78.3 105 78.3 C 105 77.7 104.7 77.5 104.2 77.5 C 103.7 77.5 103.4 77.7 103.4 78.1 C 103.4 79 105.9 79 105.9 80.6 C 105.9 81.7 105.2 82.1 104.2 82.1 Z M 108.5 82.1 C 107.4 82.1 106.7 81.6 106.8 80.5 C 106.8 80.5 107.7 80.5 107.7 80.5 C 107.7 80.8 107.7 81.4 108.5 81.4 C 109 81.4 109.4 81.2 109.4 80.7 C 109.4 79.8 106.9 79.7 106.9 78.2 C 106.9 77.7 107.2 76.9 108.6 76.9 C 109.5 76.9 110.3 77.3 110.2 78.3 C 110.2 78.3 109.3 78.3 109.3 78.3 C 109.3 77.7 109 77.5 108.5 77.5 C 108.1 77.5 107.7 77.7 107.7 78.1 C 107.7 79 110.3 79 110.3 80.6 C 110.3 81.7 109.5 82.1 108.5 82.1 Z M 114.1 79.1 C 114.1 77.6 113.7 77.5 113.1 77.5 C 112.6 77.5 112.2 77.7 112.2 79.1 C 112.2 79.1 114.1 79.1 114.1 79.1 Z M 112.2 79.7 C 112.2 81.2 112.5 81.4 113.2 81.4 C 113.7 81.4 114 81 114.1 80.5 C 114.1 80.5 115 80.5 115 80.5 C 114.9 81.6 114.3 82.1 113.2 82.1 C 112.1 82.1 111.3 81.8 111.3 79.5 C 111.3 78.1 111.4 76.9 113.2 76.9 C 114.6 76.9 115 77.6 115 79.3 C 115 79.31 115 79.7 115 79.7 C 115 79.7 112.16 79.74 112.2 79.7 Z M 117.7 82.1 C 116.7 82.1 116 81.6 116 80.5 C 116 80.5 116.9 80.5 116.9 80.5 C 116.9 80.8 116.9 81.4 117.8 81.4 C 118.3 81.4 118.6 81.2 118.6 80.7 C 118.6 79.8 116.1 79.7 116.1 78.2 C 116.1 77.7 116.4 76.9 117.9 76.9 C 118.8 76.9 119.5 77.3 119.5 78.3 C 119.5 78.3 118.6 78.3 118.6 78.3 C 118.6 77.7 118.3 77.5 117.8 77.5 C 117.3 77.5 117 77.7 117 78.1 C 117 79 119.5 79 119.5 80.6 C 119.5 81.7 118.7 82.1 117.7 82.1 Z M 122.1 82.1 C 121 82.1 120.3 81.6 120.3 80.5 C 120.3 80.5 121.3 80.5 121.3 80.5 C 121.3 80.8 121.3 81.4 122.1 81.4 C 122.6 81.4 123 81.2 123 80.7 C 123 79.8 120.5 79.7 120.5 78.2 C 120.5 77.7 120.8 76.9 122.2 76.9 C 123.1 76.9 123.9 77.3 123.8 78.3 C 123.8 78.3 122.9 78.3 122.9 78.3 C 122.9 77.7 122.6 77.5 122.1 77.5 C 121.7 77.5 121.3 77.7 121.3 78.1 C 121.3 79 123.8 79 123.8 80.6 C 123.8 81.7 123.1 82.1 122.1 82.1 Z M 127.4 82 C 127.4 82 127.42 78.5 127.4 78.5 C 127.4 78 127.3 77.5 126.6 77.5 C 126.4 77.5 126 77.7 125.9 77.9 C 125.8 78.1 125.7 78.4 125.7 78.6 C 125.72 78.6 125.7 82 125.7 82 L 124.9 82 C 124.9 82 124.9 78 124.9 78 C 124.9 77.7 124.9 77.3 124.8 77 C 124.85 76.95 125.7 77 125.7 77 L 125.7 77.6 C 125.7 77.6 125.74 77.58 125.7 77.6 C 126 77 126.4 76.9 127 76.9 C 127.5 76.9 128 77 128.2 77.5 C 128.5 77 128.9 76.9 129.4 76.9 C 129.9 76.9 130.8 77 130.8 78.2 C 130.76 78.16 130.8 82 130.8 82 L 129.9 82 C 129.9 82 129.94 78.5 129.9 78.5 C 129.9 78 129.8 77.5 129.1 77.5 C 128.8 77.5 128.7 77.5 128.5 77.7 C 128.3 77.9 128.2 78.4 128.2 78.6 C 128.24 78.6 128.2 82 128.2 82 L 127.4 82 Z M 134.8 79.1 C 134.8 77.6 134.4 77.5 133.8 77.5 C 133.3 77.5 132.9 77.7 132.9 79.1 C 132.9 79.1 134.8 79.1 134.8 79.1 Z M 132.9 79.7 C 132.9 81.2 133.2 81.4 133.9 81.4 C 134.4 81.4 134.7 81 134.8 80.5 C 134.8 80.5 135.7 80.5 135.7 80.5 C 135.6 81.6 135 82.1 133.9 82.1 C 132.8 82.1 132 81.8 132 79.5 C 132 78.1 132.1 76.9 133.9 76.9 C 135.3 76.9 135.7 77.6 135.7 79.3 C 135.7 79.31 135.7 79.7 135.7 79.7 C 135.7 79.7 132.86 79.74 132.9 79.7 Z M 139.7 82 C 139.7 82 139.7 78.5 139.7 78.5 C 139.7 78 139.5 77.5 138.8 77.5 C 137.9 77.5 137.8 78.3 137.8 79 C 137.78 79.01 137.8 82 137.8 82 L 137 82 C 137 82 136.96 78 137 78 C 137 77.6 136.9 77.3 136.9 77 C 136.91 76.95 137.8 77 137.8 77 L 137.8 77.6 C 137.8 77.6 137.82 77.6 137.8 77.6 C 138.1 77 138.5 76.9 139.2 76.9 C 140.2 76.9 140.5 77.5 140.5 78.5 C 140.52 78.5 140.5 82 140.5 82 L 139.7 82 Z M 141.9 77 L 141.9 76 L 142.8 75.6 L 142.8 77 L 143.9 77 L 143.9 77.6 L 142.8 77.6 C 142.8 77.6 142.77 80.66 142.8 80.7 C 142.8 81 142.8 81.4 143.5 81.4 C 143.6 81.4 143.7 81.4 143.9 81.4 C 143.9 81.4 143.9 82 143.9 82 C 143.6 82 143.3 82.1 143.1 82.1 C 142.3 82.1 141.9 81.7 141.9 81.2 C 141.95 81.16 141.9 77.6 141.9 77.6 L 141.1 77.6 L 141.1 77 L 141.9 77 Z M 149.5 79.2 C 149.5 77.8 149.1 77.5 148.4 77.5 C 147.8 77.5 147.4 77.8 147.4 79.2 C 147.4 80.8 147.6 81.4 148.4 81.4 C 149.3 81.4 149.5 80.8 149.5 79.2 Z M 146.5 79.6 C 146.5 78.1 146.7 76.9 148.4 76.9 C 150.2 76.9 150.4 78.1 150.4 79.6 C 150.4 81.8 149.5 82.1 148.4 82.1 C 147.4 82.1 146.5 81.8 146.5 79.6 Z M 151.7 77 C 151.7 77 151.71 75.97 151.7 76 C 151.7 75 152.4 74.8 153.2 74.8 C 153.3 74.8 153.4 74.8 153.5 74.8 C 153.5 74.8 153.5 75.4 153.5 75.4 C 152.7 75.3 152.5 75.7 152.5 76.1 C 152.53 76.09 152.5 77 152.5 77 L 153.5 77 L 153.5 77.6 L 152.5 77.6 L 152.5 82 L 151.7 82 L 151.7 77.6 L 150.9 77.6 L 150.9 77 L 151.7 77 Z M 157.3 77.9 C 157.3 77.9 158.73 77.88 158.7 77.9 C 159.4 77.9 159.7 77.3 159.7 76.7 C 159.7 76.2 159.4 75.6 158.7 75.6 C 158.74 75.58 157.3 75.6 157.3 75.6 L 157.3 77.9 Z M 157.3 78.7 L 157.3 82 L 156.4 82 L 156.4 74.8 C 156.4 74.8 158.92 74.78 158.9 74.8 C 160.2 74.8 160.6 75.7 160.6 76.6 C 160.6 77.4 160.2 78.1 159.3 78.2 C 159.3 78.2 159.3 78.3 159.3 78.3 C 160.2 78.4 160.5 78.7 160.5 80.1 C 160.5 80.4 160.6 81.5 160.8 82 C 160.8 82 159.8 82 159.8 82 C 159.5 81.5 159.6 80.6 159.5 79.6 C 159.4 78.7 158.7 78.7 158.4 78.7 C 158.43 78.68 157.3 78.7 157.3 78.7 Z M 164.6 79.1 C 164.6 77.6 164.2 77.5 163.6 77.5 C 163.1 77.5 162.6 77.7 162.6 79.1 C 162.6 79.1 164.6 79.1 164.6 79.1 Z M 162.6 79.7 C 162.6 81.2 163 81.4 163.6 81.4 C 164.2 81.4 164.5 81 164.5 80.5 C 164.5 80.5 165.4 80.5 165.4 80.5 C 165.4 81.6 164.7 82.1 163.7 82.1 C 162.6 82.1 161.7 81.8 161.7 79.5 C 161.7 78.1 161.9 76.9 163.7 76.9 C 165.1 76.9 165.5 77.6 165.5 79.3 C 165.46 79.31 165.5 79.7 165.5 79.7 C 165.5 79.7 162.62 79.74 162.6 79.7 Z M 168.2 82.1 C 167.1 82.1 166.4 81.6 166.5 80.5 C 166.5 80.5 167.4 80.5 167.4 80.5 C 167.4 80.8 167.4 81.4 168.2 81.4 C 168.7 81.4 169.1 81.2 169.1 80.7 C 169.1 79.8 166.6 79.7 166.6 78.2 C 166.6 77.7 166.9 76.9 168.3 76.9 C 169.2 76.9 170 77.3 169.9 78.3 C 169.9 78.3 169 78.3 169 78.3 C 169 77.7 168.7 77.5 168.2 77.5 C 167.8 77.5 167.4 77.7 167.4 78.1 C 167.4 79 170 79 170 80.6 C 170 81.7 169.2 82.1 168.2 82.1 Z M 173.9 79.4 C 173.9 78.6 173.9 77.5 172.9 77.5 C 171.9 77.5 171.9 78.9 171.9 79.7 C 171.9 80.4 172 81.4 172.9 81.4 C 173.8 81.4 173.9 80.7 173.9 79.4 Z M 171.9 77.5 C 171.9 77.5 171.97 77.55 172 77.5 C 172.2 77.1 172.6 76.9 173.1 76.9 C 173.9 76.9 174.8 77.2 174.8 79.4 C 174.8 80.7 174.7 82.1 173.1 82.1 C 172.6 82.1 172.3 81.9 172 81.5 C 171.98 81.49 171.9 81.5 171.9 81.5 L 171.9 83.9 L 171.1 83.9 L 171.1 77 L 171.9 77 L 171.9 77.5 Z M 178.8 79.2 C 178.8 77.8 178.4 77.5 177.7 77.5 C 177.1 77.5 176.7 77.8 176.7 79.2 C 176.7 80.8 176.9 81.4 177.7 81.4 C 178.6 81.4 178.8 80.8 178.8 79.2 Z M 175.8 79.6 C 175.8 78.1 176 76.9 177.7 76.9 C 179.5 76.9 179.7 78.1 179.7 79.6 C 179.7 81.8 178.8 82.1 177.7 82.1 C 176.7 82.1 175.8 81.8 175.8 79.6 Z M 183.6 82 C 183.6 82 183.6 78.5 183.6 78.5 C 183.6 78 183.4 77.5 182.7 77.5 C 181.8 77.5 181.7 78.3 181.7 79 C 181.68 79.01 181.7 82 181.7 82 L 180.9 82 C 180.9 82 180.86 78 180.9 78 C 180.9 77.6 180.8 77.3 180.8 77 C 180.81 76.95 181.7 77 181.7 77 L 181.7 77.6 C 181.7 77.6 181.72 77.6 181.7 77.6 C 182 77 182.4 76.9 183.1 76.9 C 184.1 76.9 184.4 77.5 184.4 78.5 C 184.42 78.5 184.4 82 184.4 82 L 183.6 82 Z M 187.2 82.1 C 186.2 82.1 185.5 81.6 185.5 80.5 C 185.5 80.5 186.4 80.5 186.4 80.5 C 186.4 80.8 186.4 81.4 187.3 81.4 C 187.8 81.4 188.1 81.2 188.1 80.7 C 188.1 79.8 185.6 79.7 185.6 78.2 C 185.6 77.7 185.9 76.9 187.4 76.9 C 188.3 76.9 189 77.3 189 78.3 C 189 78.3 188.1 78.3 188.1 78.3 C 188.1 77.7 187.8 77.5 187.3 77.5 C 186.8 77.5 186.5 77.7 186.5 78.1 C 186.5 79 189 79 189 80.6 C 189 81.7 188.2 82.1 187.2 82.1 Z M 192.9 79.1 C 192.9 77.6 192.5 77.5 191.9 77.5 C 191.3 77.5 190.9 77.7 190.9 79.1 C 190.9 79.1 192.9 79.1 192.9 79.1 Z M 190.9 79.7 C 190.9 81.2 191.3 81.4 191.9 81.4 C 192.5 81.4 192.8 81 192.8 80.5 C 192.8 80.5 193.7 80.5 193.7 80.5 C 193.7 81.6 193 82.1 191.9 82.1 C 190.9 82.1 190 81.8 190 79.5 C 190 78.1 190.2 76.9 191.9 76.9 C 193.4 76.9 193.7 77.6 193.7 79.3 C 193.74 79.31 193.7 79.7 193.7 79.7 C 193.7 79.7 190.9 79.74 190.9 79.7 Z M 197.2 77 L 197.2 76 L 198 75.6 L 198 77 L 199.1 77 L 199.1 77.6 L 198 77.6 C 198 77.6 198.03 80.66 198 80.7 C 198 81 198 81.4 198.8 81.4 C 198.8 81.4 199 81.4 199.1 81.4 C 199.1 81.4 199.1 82 199.1 82 C 198.9 82 198.6 82.1 198.3 82.1 C 197.6 82.1 197.2 81.7 197.2 81.2 C 197.21 81.16 197.2 77.6 197.2 77.6 L 196.4 77.6 L 196.4 77 L 197.2 77 Z M 202.6 79.2 C 202.6 77.8 202.2 77.5 201.6 77.5 C 200.9 77.5 200.5 77.8 200.5 79.2 C 200.5 80.8 200.7 81.4 201.6 81.4 C 202.4 81.4 202.6 80.8 202.6 79.2 Z M 199.7 79.6 C 199.7 78.1 199.8 76.9 201.6 76.9 C 203.3 76.9 203.5 78.1 203.5 79.6 C 203.5 81.8 202.6 82.1 201.6 82.1 C 200.5 82.1 199.7 81.8 199.7 79.6 Z M 211 74.8 L 211 75.6 L 209.1 75.6 L 209.1 82 L 208.1 82 L 208.1 75.6 L 206.2 75.6 L 206.2 74.8 L 211 74.8 Z M 214.5 82 C 214.5 82 214.46 78.58 214.5 78.6 C 214.5 78 214.3 77.5 213.6 77.5 C 212.7 77.5 212.5 78.2 212.5 79 C 212.53 79.03 212.5 82 212.5 82 L 211.7 82 L 211.7 74.8 L 212.5 74.8 L 212.5 77.6 C 212.5 77.6 212.57 77.6 212.6 77.6 C 212.9 77 213.3 76.9 213.9 76.9 C 214.8 76.9 215.3 77.3 215.3 78.4 C 215.28 78.42 215.3 82 215.3 82 L 214.5 82 Z M 219.4 79.1 C 219.4 77.6 219 77.5 218.4 77.5 C 217.9 77.5 217.4 77.7 217.4 79.1 C 217.4 79.1 219.4 79.1 219.4 79.1 Z M 217.4 79.7 C 217.4 81.2 217.8 81.4 218.4 81.4 C 219 81.4 219.3 81 219.3 80.5 C 219.3 80.5 220.2 80.5 220.2 80.5 C 220.2 81.6 219.5 82.1 218.5 82.1 C 217.4 82.1 216.5 81.8 216.5 79.5 C 216.5 78.1 216.7 76.9 218.5 76.9 C 219.9 76.9 220.3 77.6 220.3 79.3 C 220.26 79.31 220.3 79.7 220.3 79.7 C 220.3 79.7 217.42 79.74 217.4 79.7 Z M 222.4 77.7 C 222.4 77.7 222.39 77.71 222.4 77.7 C 222.7 76.9 223.1 76.9 223.9 76.9 C 223.9 76.9 223.9 77.7 223.9 77.7 C 223.9 77.7 223.8 77.7 223.7 77.7 C 223.7 77.7 223.6 77.6 223.5 77.6 C 222.6 77.6 222.4 78.3 222.4 79 C 222.37 79.02 222.4 82 222.4 82 L 221.5 82 L 221.5 77 L 222.4 77 L 222.4 77.7 Z M 225.5 80.5 C 225.5 81 225.7 81.4 226.3 81.4 C 226.8 81.4 227.4 81.1 227.3 79.5 C 226.5 79.5 225.5 79.4 225.5 80.5 Z M 227.3 81.3 C 227.3 81.3 227.33 81.27 227.3 81.3 C 227.1 81.8 226.7 82.1 226.1 82.1 C 225 82.1 224.7 81.4 224.7 80.4 C 224.7 78.9 226.2 78.8 227.3 78.9 C 227.3 78.2 227.4 77.5 226.5 77.5 C 225.9 77.5 225.6 77.8 225.7 78.4 C 225.7 78.4 224.8 78.4 224.8 78.4 C 224.8 77.2 225.4 76.9 226.5 76.9 C 227.8 76.9 228.1 77.5 228.1 78.4 C 228.1 78.4 228.1 80.8 228.1 80.8 C 228.1 81.2 228.2 81.6 228.2 82 C 228.25 82 227.3 82 227.3 82 L 227.3 81.3 Z M 232.5 79.4 C 232.5 78.6 232.5 77.5 231.5 77.5 C 230.4 77.5 230.5 78.9 230.5 79.7 C 230.5 80.4 230.6 81.4 231.5 81.4 C 232.4 81.4 232.5 80.7 232.5 79.4 Z M 230.5 77.5 C 230.5 77.5 230.56 77.55 230.6 77.5 C 230.8 77.1 231.2 76.9 231.7 76.9 C 232.5 76.9 233.3 77.2 233.3 79.4 C 233.3 80.7 233.3 82.1 231.7 82.1 C 231.2 82.1 230.8 81.9 230.6 81.5 C 230.57 81.49 230.5 81.5 230.5 81.5 L 230.5 83.9 L 229.7 83.9 L 229.7 77 L 230.5 77 L 230.5 77.5 Z M 236.1 81.1 L 236.1 81.1 L 237.3 77 L 238.2 77 L 235.9 83.9 L 235 83.9 L 235.6 82 L 233.9 77 L 234.9 77 L 236.1 81.1 Z M 239.4 82 L 238.4 82 L 238.4 81 L 239.4 81 L 239.4 82 Z M 243.9 82 L 243 82 L 243 74.8 L 243.9 74.8 L 243.9 82 Z M 249 76.7 C 249 75.9 248.6 75.4 247.7 75.4 C 247.4 75.4 246.4 75.4 246.4 77 C 246.4 77 246.4 79.4 246.4 79.4 C 246.4 81 246.8 81.4 247.7 81.4 C 248.4 81.4 248.8 81.2 249 81.1 C 249 81.06 249 78.9 249 78.9 L 247.7 78.9 L 247.7 78.1 L 249.9 78.1 C 249.9 78.1 249.92 81.61 249.9 81.6 C 249.3 81.9 248.6 82.1 247.7 82.1 C 246.2 82.1 245.4 81.4 245.4 79.4 C 245.4 79.4 245.4 77 245.4 77 C 245.4 75.5 246.2 74.6 247.7 74.6 C 249.3 74.6 250 75.2 249.9 76.7 C 249.9 76.7 249 76.7 249 76.7 Z M 253.2 74.8 L 254.3 74.8 L 256.7 82 L 255.7 82 L 255.1 80.3 L 252.3 80.3 L 251.8 82 L 250.9 82 L 253.2 74.8 Z M 253.7 75.6 L 253.7 75.6 L 252.6 79.5 L 254.9 79.5 L 253.7 75.6 Z M 258.4 77.9 C 258.4 77.9 259.83 77.88 259.8 77.9 C 260.5 77.9 260.8 77.3 260.8 76.7 C 260.8 76.2 260.5 75.6 259.8 75.6 C 259.84 75.58 258.4 75.6 258.4 75.6 L 258.4 77.9 Z M 258.4 78.7 L 258.4 82 L 257.5 82 L 257.5 74.8 C 257.5 74.8 260.02 74.78 260 74.8 C 261.3 74.8 261.7 75.7 261.7 76.6 C 261.7 77.4 261.3 78.1 260.4 78.2 C 260.4 78.2 260.4 78.3 260.4 78.3 C 261.3 78.4 261.6 78.7 261.6 80.1 C 261.6 80.4 261.7 81.5 261.9 82 C 261.9 82 260.9 82 260.9 82 C 260.6 81.5 260.7 80.6 260.6 79.6 C 260.5 78.7 259.8 78.7 259.5 78.7 C 259.53 78.68 258.4 78.7 258.4 78.7 Z M 267.1 74.8 L 267.1 75.6 L 265.2 75.6 L 265.2 82 L 264.2 82 L 264.2 75.6 L 262.3 75.6 L 262.3 74.8 L 267.1 74.8 Z M 267.8 78 L 266.8 78 L 266.8 77 L 267.8 77 L 267.8 78 Z M 267.8 82 L 266.8 82 L 266.8 81 L 267.8 81 L 267.8 82 Z M 272.3 82 L 271.4 82 L 271.4 74.8 L 272.3 74.8 L 272.3 82 Z M 276.6 82 C 276.6 82 276.58 78.5 276.6 78.5 C 276.6 78 276.4 77.5 275.7 77.5 C 274.8 77.5 274.7 78.3 274.7 79 C 274.66 79.01 274.7 82 274.7 82 L 273.8 82 C 273.8 82 273.84 78 273.8 78 C 273.8 77.6 273.8 77.3 273.8 77 C 273.79 76.95 274.7 77 274.7 77 L 274.7 77.6 C 274.7 77.6 274.7 77.6 274.7 77.6 C 275 77 275.4 76.9 276 76.9 C 277.1 76.9 277.4 77.5 277.4 78.5 C 277.4 78.5 277.4 82 277.4 82 L 276.6 82 Z M 278.2 77 L 279.1 77 L 280.2 81.2 L 280.2 81.2 L 281.4 77 L 282.3 77 L 280.7 82 L 279.7 82 L 278.2 77 Z M 285.8 79.1 C 285.8 77.6 285.4 77.5 284.8 77.5 C 284.3 77.5 283.9 77.7 283.9 79.1 C 283.9 79.1 285.8 79.1 285.8 79.1 Z M 283.9 79.7 C 283.9 81.2 284.3 81.4 284.9 81.4 C 285.5 81.4 285.7 81 285.8 80.5 C 285.8 80.5 286.7 80.5 286.7 80.5 C 286.7 81.6 286 82.1 284.9 82.1 C 283.8 82.1 283 81.8 283 79.5 C 283 78.1 283.2 76.9 284.9 76.9 C 286.4 76.9 286.7 77.6 286.7 79.3 C 286.72 79.31 286.7 79.7 286.7 79.7 C 286.7 79.7 283.88 79.74 283.9 79.7 Z M 289.5 82.1 C 288.4 82.1 287.7 81.6 287.7 80.5 C 287.7 80.5 288.7 80.5 288.7 80.5 C 288.7 80.8 288.7 81.4 289.5 81.4 C 290 81.4 290.4 81.2 290.4 80.7 C 290.4 79.8 287.8 79.7 287.8 78.2 C 287.8 77.7 288.2 76.9 289.6 76.9 C 290.5 76.9 291.3 77.3 291.2 78.3 C 291.2 78.3 290.3 78.3 290.3 78.3 C 290.3 77.7 290 77.5 289.5 77.5 C 289 77.5 288.7 77.7 288.7 78.1 C 288.7 79 291.2 79 291.2 80.6 C 291.2 81.7 290.5 82.1 289.5 82.1 Z M 292.4 77 L 292.4 76 L 293.2 75.6 L 293.2 77 L 294.3 77 L 294.3 77.6 L 293.2 77.6 C 293.2 77.6 293.23 80.66 293.2 80.7 C 293.2 81 293.2 81.4 294 81.4 C 294 81.4 294.2 81.4 294.3 81.4 C 294.3 81.4 294.3 82 294.3 82 C 294.1 82 293.8 82.1 293.5 82.1 C 292.8 82.1 292.4 81.7 292.4 81.2 C 292.41 81.16 292.4 77.6 292.4 77.6 L 291.6 77.6 L 291.6 77 L 292.4 77 Z M 295.8 82 L 295 82 L 295 77 L 295.8 77 L 295.8 82 Z M 294.9 74.8 L 295.8 74.8 L 295.8 75.7 L 294.9 75.7 L 294.9 74.8 Z M 298.8 77.5 C 297.9 77.5 297.9 78.6 297.9 79.3 C 297.9 80.9 298.2 81.3 298.8 81.3 C 299.8 81.3 299.8 80.2 299.8 79.4 C 299.8 78.7 299.9 77.5 298.8 77.5 Z M 299.8 77 L 300.6 77 C 300.6 77 300.6 82.51 300.6 82.5 C 300.6 83.6 299.9 83.9 298.7 83.9 C 297.9 83.9 297.1 83.5 297.2 82.6 C 297.2 82.6 298.1 82.6 298.1 82.6 C 298.1 83 298.5 83.3 298.9 83.3 C 299.5 83.3 299.8 82.9 299.8 82.4 C 299.79 82.42 299.8 81.4 299.8 81.4 C 299.8 81.4 299.76 81.37 299.8 81.4 C 299.5 81.8 299.1 82 298.6 82 C 297.3 82 297 80.8 297 79.3 C 297 77 298.2 76.9 298.6 76.9 C 299.1 76.9 299.5 77.1 299.8 77.6 C 299.77 77.57 299.8 77.6 299.8 77.6 L 299.8 77 Z M 302.8 80.5 C 302.8 81 303 81.4 303.6 81.4 C 304.1 81.4 304.7 81.1 304.6 79.5 C 303.8 79.5 302.8 79.4 302.8 80.5 Z M 304.6 81.3 C 304.6 81.3 304.6 81.27 304.6 81.3 C 304.3 81.8 304 82.1 303.3 82.1 C 302.3 82.1 301.9 81.4 301.9 80.4 C 301.9 78.9 303.4 78.8 304.6 78.9 C 304.6 78.2 304.6 77.5 303.7 77.5 C 303.2 77.5 302.9 77.8 303 78.4 C 303 78.4 302.1 78.4 302.1 78.4 C 302.1 77.2 302.7 76.9 303.8 76.9 C 305.1 76.9 305.4 77.5 305.4 78.4 C 305.4 78.4 305.4 80.8 305.4 80.8 C 305.4 81.2 305.5 81.6 305.5 82 C 305.51 82 304.6 82 304.6 82 L 304.6 81.3 Z M 307 77 L 307 76 L 307.8 75.6 L 307.8 77 L 308.9 77 L 308.9 77.6 L 307.8 77.6 C 307.8 77.6 307.82 80.66 307.8 80.7 C 307.8 81 307.8 81.4 308.6 81.4 C 308.6 81.4 308.8 81.4 308.9 81.4 C 308.9 81.4 308.9 82 308.9 82 C 308.7 82 308.4 82.1 308.1 82.1 C 307.4 82.1 307 81.7 307 81.2 C 307.01 81.16 307 77.6 307 77.6 L 306.2 77.6 L 306.2 77 L 307 77 Z M 312.4 79.2 C 312.4 77.8 312 77.5 311.4 77.5 C 310.7 77.5 310.3 77.8 310.3 79.2 C 310.3 80.8 310.5 81.4 311.4 81.4 C 312.2 81.4 312.4 80.8 312.4 79.2 Z M 309.5 79.6 C 309.5 78.1 309.6 76.9 311.4 76.9 C 313.1 76.9 313.3 78.1 313.3 79.6 C 313.3 81.8 312.4 82.1 311.4 82.1 C 310.3 82.1 309.5 81.8 309.5 79.6 Z M 315.3 77.7 C 315.3 77.7 315.36 77.71 315.4 77.7 C 315.7 76.9 316.1 76.9 316.9 76.9 C 316.9 76.9 316.9 77.7 316.9 77.7 C 316.9 77.7 316.8 77.7 316.7 77.7 C 316.6 77.7 316.6 77.6 316.5 77.6 C 315.6 77.6 315.3 78.3 315.3 79 C 315.34 79.02 315.3 82 315.3 82 L 314.5 82 L 314.5 77 L 315.3 77 L 315.3 77.7 Z M 317.8 74.8 L 318.9 74.8 L 318 76.8 L 317.4 76.8 L 317.8 74.8 Z M 320.6 82.1 C 319.5 82.1 318.8 81.6 318.9 80.5 C 318.9 80.5 319.8 80.5 319.8 80.5 C 319.8 80.8 319.8 81.4 320.6 81.4 C 321.1 81.4 321.5 81.2 321.5 80.7 C 321.5 79.8 319 79.7 319 78.2 C 319 77.7 319.3 76.9 320.7 76.9 C 321.6 76.9 322.4 77.3 322.3 78.3 C 322.3 78.3 321.4 78.3 321.4 78.3 C 321.4 77.7 321.1 77.5 320.6 77.5 C 320.2 77.5 319.8 77.7 319.8 78.1 C 319.8 79 322.4 79 322.4 80.6 C 322.4 81.7 321.6 82.1 320.6 82.1 Z M 329.1 76.7 C 329.1 75.9 328.8 75.4 327.8 75.4 C 327.5 75.4 326.5 75.4 326.5 77 C 326.5 77 326.5 79.4 326.5 79.4 C 326.5 81 327 81.4 327.8 81.4 C 328.5 81.4 328.9 81.2 329.1 81.1 C 329.13 81.06 329.1 78.9 329.1 78.9 L 327.8 78.9 L 327.8 78.1 L 330 78.1 C 330 78.1 330.04 81.61 330 81.6 C 329.5 81.9 328.8 82.1 327.8 82.1 C 326.3 82.1 325.6 81.4 325.6 79.4 C 325.6 79.4 325.6 77 325.6 77 C 325.6 75.5 326.3 74.6 327.8 74.6 C 329.4 74.6 330.1 75.2 330.1 76.7 C 330.1 76.7 329.1 76.7 329.1 76.7 Z M 332.4 82 L 331.6 82 L 331.6 74.8 L 332.4 74.8 L 332.4 82 Z M 336.5 79.2 C 336.5 77.8 336.1 77.5 335.5 77.5 C 334.8 77.5 334.4 77.8 334.4 79.2 C 334.4 80.8 334.6 81.4 335.5 81.4 C 336.3 81.4 336.5 80.8 336.5 79.2 Z M 333.6 79.6 C 333.6 78.1 333.7 76.9 335.5 76.9 C 337.2 76.9 337.4 78.1 337.4 79.6 C 337.4 81.8 336.5 82.1 335.5 82.1 C 334.4 82.1 333.6 81.8 333.6 79.6 Z M 340.4 81.4 C 341.4 81.4 341.4 80.3 341.4 79.6 C 341.4 78.2 341.3 77.5 340.4 77.5 C 339.5 77.5 339.5 78.6 339.5 79.3 C 339.5 80 339.4 81.4 340.4 81.4 Z M 339.5 82 L 338.7 82 L 338.7 74.8 L 339.5 74.8 L 339.5 77.5 C 339.5 77.5 339.51 77.46 339.5 77.5 C 339.8 77.1 340.1 76.9 340.6 76.9 C 342.3 76.9 342.3 78.3 342.3 79.6 C 342.3 81.8 341.5 82.1 340.7 82.1 C 340.1 82.1 339.8 81.9 339.5 81.4 C 339.5 81.4 339.5 81.4 339.5 81.4 L 339.5 82 Z M 344.2 80.5 C 344.2 81 344.5 81.4 345 81.4 C 345.5 81.4 346.2 81.1 346.1 79.5 C 345.3 79.5 344.2 79.4 344.2 80.5 Z M 346.1 81.3 C 346.1 81.3 346.08 81.27 346.1 81.3 C 345.8 81.8 345.4 82.1 344.8 82.1 C 343.7 82.1 343.4 81.4 343.4 80.4 C 343.4 78.9 344.9 78.8 346.1 78.9 C 346.1 78.2 346.1 77.5 345.2 77.5 C 344.7 77.5 344.4 77.8 344.4 78.4 C 344.4 78.4 343.5 78.4 343.5 78.4 C 343.6 77.2 344.2 76.9 345.3 76.9 C 346.6 76.9 346.9 77.5 346.9 78.4 C 346.9 78.4 346.9 80.8 346.9 80.8 C 346.9 81.2 346.9 81.6 347 82 C 346.99 82 346.1 82 346.1 82 L 346.1 81.3 Z M 349.2 82 L 348.4 82 L 348.4 74.8 L 349.2 74.8 L 349.2 82 Z M 354.4 74.8 L 355.5 74.8 L 357.9 82 L 356.8 82 L 356.3 80.3 L 353.5 80.3 L 353 82 L 352.1 82 L 354.4 74.8 Z M 354.9 75.6 L 354.9 75.6 L 353.8 79.5 L 356.1 79.5 L 354.9 75.6 Z M 360.1 82.1 C 359 82.1 358.4 81.6 358.4 80.5 C 358.4 80.5 359.3 80.5 359.3 80.5 C 359.3 80.8 359.3 81.4 360.2 81.4 C 360.7 81.4 361 81.2 361 80.7 C 361 79.8 358.5 79.7 358.5 78.2 C 358.5 77.7 358.8 76.9 360.3 76.9 C 361.2 76.9 361.9 77.3 361.9 78.3 C 361.9 78.3 360.9 78.3 360.9 78.3 C 361 77.7 360.7 77.5 360.2 77.5 C 359.7 77.5 359.4 77.7 359.4 78.1 C 359.4 79 361.9 79 361.9 80.6 C 361.9 81.7 361.1 82.1 360.1 82.1 Z M 364.5 82.1 C 363.4 82.1 362.7 81.6 362.7 80.5 C 362.7 80.5 363.7 80.5 363.7 80.5 C 363.7 80.8 363.7 81.4 364.5 81.4 C 365 81.4 365.4 81.2 365.4 80.7 C 365.4 79.8 362.9 79.7 362.9 78.2 C 362.9 77.7 363.2 76.9 364.6 76.9 C 365.5 76.9 366.3 77.3 366.2 78.3 C 366.2 78.3 365.3 78.3 365.3 78.3 C 365.3 77.7 365 77.5 364.5 77.5 C 364.1 77.5 363.7 77.7 363.7 78.1 C 363.7 79 366.2 79 366.2 80.6 C 366.2 81.7 365.5 82.1 364.5 82.1 Z M 370.1 79.1 C 370.1 77.6 369.7 77.5 369.1 77.5 C 368.6 77.5 368.1 77.7 368.1 79.1 C 368.1 79.1 370.1 79.1 370.1 79.1 Z M 368.1 79.7 C 368.1 81.2 368.5 81.4 369.1 81.4 C 369.7 81.4 370 81 370 80.5 C 370 80.5 370.9 80.5 370.9 80.5 C 370.9 81.6 370.2 82.1 369.2 82.1 C 368.1 82.1 367.2 81.8 367.2 79.5 C 367.2 78.1 367.4 76.9 369.2 76.9 C 370.6 76.9 371 77.6 371 79.3 C 370.96 79.31 371 79.7 371 79.7 C 371 79.7 368.12 79.74 368.1 79.7 Z M 373.7 82.1 C 372.6 82.1 371.9 81.6 372 80.5 C 372 80.5 372.9 80.5 372.9 80.5 C 372.9 80.8 372.9 81.4 373.7 81.4 C 374.2 81.4 374.6 81.2 374.6 80.7 C 374.6 79.8 372.1 79.7 372.1 78.2 C 372.1 77.7 372.4 76.9 373.8 76.9 C 374.7 76.9 375.5 77.3 375.4 78.3 C 375.4 78.3 374.5 78.3 374.5 78.3 C 374.5 77.7 374.3 77.5 373.7 77.5 C 373.3 77.5 373 77.7 373 78.1 C 373 79 375.5 79 375.5 80.6 C 375.5 81.7 374.7 82.1 373.7 82.1 Z M 378.1 82.1 C 377 82.1 376.3 81.6 376.3 80.5 C 376.3 80.5 377.2 80.5 377.2 80.5 C 377.2 80.8 377.3 81.4 378.1 81.4 C 378.6 81.4 379 81.2 379 80.7 C 379 79.8 376.4 79.7 376.4 78.2 C 376.4 77.7 376.8 76.9 378.2 76.9 C 379.1 76.9 379.8 77.3 379.8 78.3 C 379.8 78.3 378.9 78.3 378.9 78.3 C 378.9 77.7 378.6 77.5 378.1 77.5 C 377.6 77.5 377.3 77.7 377.3 78.1 C 377.3 79 379.8 79 379.8 80.6 C 379.8 81.7 379.1 82.1 378.1 82.1 Z M 383.4 82 C 383.4 82 383.38 78.5 383.4 78.5 C 383.4 78 383.2 77.5 382.6 77.5 C 382.3 77.5 382 77.7 381.9 77.9 C 381.7 78.1 381.7 78.4 381.7 78.6 C 381.68 78.6 381.7 82 381.7 82 L 380.9 82 C 380.9 82 380.86 78 380.9 78 C 380.9 77.7 380.8 77.3 380.8 77 C 380.81 76.95 381.7 77 381.7 77 L 381.7 77.6 C 381.7 77.6 381.7 77.58 381.7 77.6 C 381.9 77 382.4 76.9 383 76.9 C 383.4 76.9 384 77 384.1 77.5 C 384.4 77 384.9 76.9 385.3 76.9 C 385.9 76.9 386.7 77 386.7 78.2 C 386.72 78.16 386.7 82 386.7 82 L 385.9 82 C 385.9 82 385.9 78.5 385.9 78.5 C 385.9 78 385.8 77.5 385.1 77.5 C 384.8 77.5 384.7 77.5 384.5 77.7 C 384.2 77.9 384.2 78.4 384.2 78.6 C 384.2 78.6 384.2 82 384.2 82 L 383.4 82 Z M 390.8 79.1 C 390.8 77.6 390.4 77.5 389.8 77.5 C 389.3 77.5 388.8 77.7 388.8 79.1 C 388.8 79.1 390.8 79.1 390.8 79.1 Z M 388.8 79.7 C 388.8 81.2 389.2 81.4 389.8 81.4 C 390.4 81.4 390.7 81 390.7 80.5 C 390.7 80.5 391.6 80.5 391.6 80.5 C 391.6 81.6 390.9 82.1 389.9 82.1 C 388.8 82.1 387.9 81.8 387.9 79.5 C 387.9 78.1 388.1 76.9 389.9 76.9 C 391.3 76.9 391.7 77.6 391.7 79.3 C 391.66 79.31 391.7 79.7 391.7 79.7 C 391.7 79.7 388.82 79.74 388.8 79.7 Z M 395.7 82 C 395.7 82 395.66 78.5 395.7 78.5 C 395.7 78 395.5 77.5 394.8 77.5 C 393.9 77.5 393.7 78.3 393.7 79 C 393.74 79.01 393.7 82 393.7 82 L 392.9 82 C 392.9 82 392.92 78 392.9 78 C 392.9 77.6 392.9 77.3 392.9 77 C 392.87 76.95 393.7 77 393.7 77 L 393.7 77.6 C 393.7 77.6 393.78 77.6 393.8 77.6 C 394.1 77 394.5 76.9 395.1 76.9 C 396.2 76.9 396.5 77.5 396.5 78.5 C 396.48 78.5 396.5 82 396.5 82 L 395.7 82 Z M 397.9 77 L 397.9 76 L 398.7 75.6 L 398.7 77 L 399.8 77 L 399.8 77.6 L 398.7 77.6 C 398.7 77.6 398.73 80.66 398.7 80.7 C 398.7 81 398.7 81.4 399.5 81.4 C 399.5 81.4 399.7 81.4 399.9 81.4 C 399.9 81.4 399.9 82 399.9 82 C 399.6 82 399.3 82.1 399 82.1 C 398.3 82.1 397.9 81.7 397.9 81.2 C 397.91 81.16 397.9 77.6 397.9 77.6 L 397.1 77.6 L 397.1 77 L 397.9 77 Z M 405.5 79.2 C 405.5 77.8 405 77.5 404.4 77.5 C 403.8 77.5 403.3 77.8 403.3 79.2 C 403.3 80.8 403.6 81.4 404.4 81.4 C 405.3 81.4 405.5 80.8 405.5 79.2 Z M 402.5 79.6 C 402.5 78.1 402.7 76.9 404.4 76.9 C 406.2 76.9 406.3 78.1 406.3 79.6 C 406.3 81.8 405.5 82.1 404.4 82.1 C 403.3 82.1 402.5 81.8 402.5 79.6 Z M 407.7 77 C 407.7 77 407.67 75.97 407.7 76 C 407.7 75 408.4 74.8 409.1 74.8 C 409.3 74.8 409.4 74.8 409.5 74.8 C 409.5 74.8 409.5 75.4 409.5 75.4 C 408.6 75.3 408.5 75.7 408.5 76.1 C 408.49 76.09 408.5 77 408.5 77 L 409.5 77 L 409.5 77.6 L 408.5 77.6 L 408.5 82 L 407.7 82 L 407.7 77.6 L 406.9 77.6 L 406.9 77 L 407.7 77 Z M 413.3 77.9 C 413.3 77.9 414.69 77.88 414.7 77.9 C 415.4 77.9 415.7 77.3 415.7 76.7 C 415.7 76.2 415.4 75.6 414.7 75.6 C 414.7 75.58 413.3 75.6 413.3 75.6 L 413.3 77.9 Z M 413.3 78.7 L 413.3 82 L 412.4 82 L 412.4 74.8 C 412.4 74.8 414.88 74.78 414.9 74.8 C 416.2 74.8 416.6 75.7 416.6 76.6 C 416.6 77.4 416.1 78.1 415.3 78.2 C 415.3 78.2 415.3 78.3 415.3 78.3 C 416.1 78.4 416.4 78.7 416.5 80.1 C 416.5 80.4 416.6 81.5 416.7 82 C 416.7 82 415.8 82 415.8 82 C 415.5 81.5 415.6 80.6 415.5 79.6 C 415.4 78.7 414.7 78.7 414.4 78.7 C 414.39 78.68 413.3 78.7 413.3 78.7 Z M 420.6 79.1 C 420.6 77.6 420.1 77.5 419.5 77.5 C 419 77.5 418.6 77.7 418.6 79.1 C 418.6 79.1 420.6 79.1 420.6 79.1 Z M 418.6 79.7 C 418.6 81.2 419 81.4 419.6 81.4 C 420.2 81.4 420.5 81 420.5 80.5 C 420.5 80.5 421.4 80.5 421.4 80.5 C 421.4 81.6 420.7 82.1 419.6 82.1 C 418.6 82.1 417.7 81.8 417.7 79.5 C 417.7 78.1 417.9 76.9 419.6 76.9 C 421.1 76.9 421.4 77.6 421.4 79.3 C 421.42 79.31 421.4 79.7 421.4 79.7 C 421.4 79.7 418.58 79.74 418.6 79.7 Z M 424.2 82.1 C 423.1 82.1 422.4 81.6 422.4 80.5 C 422.4 80.5 423.4 80.5 423.4 80.5 C 423.4 80.8 423.4 81.4 424.2 81.4 C 424.7 81.4 425.1 81.2 425.1 80.7 C 425.1 79.8 422.6 79.7 422.6 78.2 C 422.6 77.7 422.9 76.9 424.3 76.9 C 425.2 76.9 426 77.3 425.9 78.3 C 425.9 78.3 425 78.3 425 78.3 C 425 77.7 424.7 77.5 424.2 77.5 C 423.8 77.5 423.4 77.7 423.4 78.1 C 423.4 79 425.9 79 425.9 80.6 C 425.9 81.7 425.2 82.1 424.2 82.1 Z M 429.9 79.4 C 429.9 78.6 429.9 77.5 428.8 77.5 C 427.8 77.5 427.9 78.9 427.9 79.7 C 427.9 80.4 428 81.4 428.9 81.4 C 429.7 81.4 429.9 80.7 429.9 79.4 Z M 427.9 77.5 C 427.9 77.5 427.93 77.55 427.9 77.5 C 428.2 77.1 428.6 76.9 429.1 76.9 C 429.9 76.9 430.7 77.2 430.7 79.4 C 430.7 80.7 430.7 82.1 429.1 82.1 C 428.6 82.1 428.2 81.9 427.9 81.5 C 427.94 81.49 427.9 81.5 427.9 81.5 L 427.9 83.9 L 427.1 83.9 L 427.1 77 L 427.9 77 L 427.9 77.5 Z M 434.8 79.2 C 434.8 77.8 434.3 77.5 433.7 77.5 C 433.1 77.5 432.6 77.8 432.6 79.2 C 432.6 80.8 432.9 81.4 433.7 81.4 C 434.6 81.4 434.8 80.8 434.8 79.2 Z M 431.8 79.6 C 431.8 78.1 432 76.9 433.7 76.9 C 435.5 76.9 435.6 78.1 435.6 79.6 C 435.6 81.8 434.8 82.1 433.7 82.1 C 432.6 82.1 431.8 81.8 431.8 79.6 Z M 439.6 82 C 439.6 82 439.56 78.5 439.6 78.5 C 439.6 78 439.4 77.5 438.7 77.5 C 437.8 77.5 437.6 78.3 437.6 79 C 437.64 79.01 437.6 82 437.6 82 L 436.8 82 C 436.8 82 436.82 78 436.8 78 C 436.8 77.6 436.8 77.3 436.8 77 C 436.77 76.95 437.6 77 437.6 77 L 437.6 77.6 C 437.6 77.6 437.68 77.6 437.7 77.6 C 438 77 438.4 76.9 439 76.9 C 440.1 76.9 440.4 77.5 440.4 78.5 C 440.38 78.5 440.4 82 440.4 82 L 439.6 82 Z M 443.2 82.1 C 442.1 82.1 441.4 81.6 441.5 80.5 C 441.5 80.5 442.4 80.5 442.4 80.5 C 442.4 80.8 442.4 81.4 443.2 81.4 C 443.7 81.4 444.1 81.2 444.1 80.7 C 444.1 79.8 441.6 79.7 441.6 78.2 C 441.6 77.7 441.9 76.9 443.3 76.9 C 444.2 76.9 445 77.3 444.9 78.3 C 444.9 78.3 444 78.3 444 78.3 C 444 77.7 443.8 77.5 443.2 77.5 C 442.8 77.5 442.5 77.7 442.5 78.1 C 442.5 79 445 79 445 80.6 C 445 81.7 444.2 82.1 443.2 82.1 Z M 448.8 79.1 C 448.8 77.6 448.4 77.5 447.8 77.5 C 447.3 77.5 446.9 77.7 446.9 79.1 C 446.9 79.1 448.8 79.1 448.8 79.1 Z M 446.9 79.7 C 446.9 81.2 447.2 81.4 447.9 81.4 C 448.4 81.4 448.7 81 448.8 80.5 C 448.8 80.5 449.7 80.5 449.7 80.5 C 449.7 81.6 449 82.1 447.9 82.1 C 446.8 82.1 446 81.8 446 79.5 C 446 78.1 446.2 76.9 447.9 76.9 C 449.3 76.9 449.7 77.6 449.7 79.3 C 449.7 79.31 449.7 79.7 449.7 79.7 C 449.7 79.7 446.86 79.74 446.9 79.7 Z M 453.2 77 L 453.2 76 L 454 75.6 L 454 77 L 455.1 77 L 455.1 77.6 L 454 77.6 C 454 77.6 453.99 80.66 454 80.7 C 454 81 454 81.4 454.7 81.4 C 454.8 81.4 454.9 81.4 455.1 81.4 C 455.1 81.4 455.1 82 455.1 82 C 454.8 82 454.6 82.1 454.3 82.1 C 453.5 82.1 453.2 81.7 453.2 81.2 C 453.17 81.16 453.2 77.6 453.2 77.6 L 452.3 77.6 L 452.3 77 L 453.2 77 Z M 458.6 79.2 C 458.6 77.8 458.2 77.5 457.5 77.5 C 456.9 77.5 456.5 77.8 456.5 79.2 C 456.5 80.8 456.7 81.4 457.5 81.4 C 458.4 81.4 458.6 80.8 458.6 79.2 Z M 455.6 79.6 C 455.6 78.1 455.8 76.9 457.5 76.9 C 459.3 76.9 459.5 78.1 459.5 79.6 C 459.5 81.8 458.6 82.1 457.5 82.1 C 456.5 82.1 455.6 81.8 455.6 79.6 Z M 466.9 74.8 L 466.9 75.6 L 465 75.6 L 465 82 L 464.1 82 L 464.1 75.6 L 462.2 75.6 L 462.2 74.8 L 466.9 74.8 Z M 470.4 82 C 470.4 82 470.42 78.58 470.4 78.6 C 470.4 78 470.2 77.5 469.5 77.5 C 468.7 77.5 468.5 78.2 468.5 79 C 468.49 79.03 468.5 82 468.5 82 L 467.7 82 L 467.7 74.8 L 468.5 74.8 L 468.5 77.6 C 468.5 77.6 468.53 77.6 468.5 77.6 C 468.9 77 469.2 76.9 469.9 76.9 C 470.8 76.9 471.2 77.3 471.2 78.4 C 471.24 78.42 471.2 82 471.2 82 L 470.4 82 Z M 475.4 79.1 C 475.4 77.6 474.9 77.5 474.3 77.5 C 473.8 77.5 473.4 77.7 473.4 79.1 C 473.4 79.1 475.4 79.1 475.4 79.1 Z M 473.4 79.7 C 473.4 81.2 473.8 81.4 474.4 81.4 C 475 81.4 475.3 81 475.3 80.5 C 475.3 80.5 476.2 80.5 476.2 80.5 C 476.2 81.6 475.5 82.1 474.4 82.1 C 473.4 82.1 472.5 81.8 472.5 79.5 C 472.5 78.1 472.7 76.9 474.4 76.9 C 475.9 76.9 476.2 77.6 476.2 79.3 C 476.22 79.31 476.2 79.7 476.2 79.7 C 476.2 79.7 473.38 79.74 473.4 79.7 Z M 478.3 77.7 C 478.3 77.7 478.35 77.71 478.4 77.7 C 478.7 76.9 479.1 76.9 479.9 76.9 C 479.9 76.9 479.9 77.7 479.9 77.7 C 479.8 77.7 479.8 77.7 479.7 77.7 C 479.6 77.7 479.6 77.6 479.5 77.6 C 478.6 77.6 478.3 78.3 478.3 79 C 478.33 79.02 478.3 82 478.3 82 L 477.5 82 L 477.5 77 L 478.3 77 L 478.3 77.7 Z M 481.5 80.5 C 481.5 81 481.7 81.4 482.3 81.4 C 482.8 81.4 483.4 81.1 483.3 79.5 C 482.5 79.5 481.5 79.4 481.5 80.5 Z M 483.3 81.3 C 483.3 81.3 483.29 81.27 483.3 81.3 C 483 81.8 482.7 82.1 482 82.1 C 481 82.1 480.6 81.4 480.6 80.4 C 480.6 78.9 482.1 78.8 483.3 78.9 C 483.3 78.2 483.3 77.5 482.4 77.5 C 481.9 77.5 481.6 77.8 481.7 78.4 C 481.7 78.4 480.8 78.4 480.8 78.4 C 480.8 77.2 481.4 76.9 482.5 76.9 C 483.8 76.9 484.1 77.5 484.1 78.4 C 484.1 78.4 484.1 80.8 484.1 80.8 C 484.1 81.2 484.2 81.6 484.2 82 C 484.21 82 483.3 82 483.3 82 L 483.3 81.3 Z M 488.5 79.4 C 488.5 78.6 488.5 77.5 487.4 77.5 C 486.4 77.5 486.5 78.9 486.5 79.7 C 486.5 80.4 486.5 81.4 487.5 81.4 C 488.3 81.4 488.5 80.7 488.5 79.4 Z M 486.5 77.5 C 486.5 77.5 486.52 77.55 486.5 77.5 C 486.8 77.1 487.2 76.9 487.7 76.9 C 488.5 76.9 489.3 77.2 489.3 79.4 C 489.3 80.7 489.3 82.1 487.6 82.1 C 487.2 82.1 486.8 81.9 486.5 81.5 C 486.53 81.49 486.5 81.5 486.5 81.5 L 486.5 83.9 L 485.7 83.9 L 485.7 77 L 486.5 77 L 486.5 77.5 Z M 492 81.1 L 492.1 81.1 L 493.3 77 L 494.2 77 L 491.9 83.9 L 491 83.9 L 491.6 82 L 489.9 77 L 490.8 77 L 492 81.1 Z M 495.3 82 L 494.4 82 L 494.4 81 L 495.3 81 L 495.3 82 Z M 502.3 79.4 C 502.3 79.4 502.3 77 502.3 77 C 502.3 75.4 501.3 75.4 501 75.4 C 500.7 75.4 499.7 75.4 499.7 77 C 499.7 77 499.7 79.4 499.7 79.4 C 499.7 80.6 499.9 81.3 501 81.3 C 502.1 81.3 502.3 80.6 502.3 79.4 Z M 498.7 77 C 498.7 75.5 499.5 74.6 501 74.6 C 502.5 74.6 503.3 75.5 503.3 77 C 503.3 77 503.3 79.4 503.3 79.4 C 503.3 79.9 503 81.2 502.6 81.3 C 502.6 81.3 502.7 81.4 502.7 81.4 C 502.8 81.3 503.1 81.2 503.3 81.2 C 503.28 81.2 504 81.2 504 81.2 L 504 82 C 504 82 501 82 501 82 C 500 82 498.7 81.9 498.7 79.4 C 498.7 79.4 498.7 77 498.7 77 Z M 507.6 79.2 C 507.6 77.8 507.1 77.5 506.5 77.5 C 505.9 77.5 505.5 77.8 505.5 79.2 C 505.5 80.8 505.7 81.4 506.5 81.4 C 507.4 81.4 507.6 80.8 507.6 79.2 Z M 504.6 79.6 C 504.6 78.1 504.8 76.9 506.5 76.9 C 508.3 76.9 508.4 78.1 508.4 79.6 C 508.4 81.8 507.6 82.1 506.5 82.1 C 505.4 82.1 504.6 81.8 504.6 79.6 Z M 509.7 82 L 509.7 74.8 L 510.6 74.8 L 510.6 81.2 L 513.3 81.2 L 513.3 82 L 509.7 82 Z M 514.1 81 L 515.1 81 L 514.2 83.3 L 513.6 83.3 L 514.1 81 Z M 520.9 79.7 C 520.9 78.9 521 77.5 520 77.5 C 518.9 77.5 518.9 78.6 518.9 79.4 C 518.9 80.7 519.1 81.4 519.9 81.4 C 520.8 81.4 520.9 80.4 520.9 79.7 Z M 520.9 77 L 521.7 77 L 521.7 83.9 L 520.9 83.9 L 520.9 81.5 C 520.9 81.5 520.85 81.49 520.9 81.5 C 520.6 81.9 520.2 82.1 519.7 82.1 C 518.1 82.1 518.1 80.7 518.1 79.4 C 518.1 77.2 518.9 76.9 519.7 76.9 C 520.2 76.9 520.6 77.1 520.9 77.5 C 520.86 77.55 520.9 77.5 520.9 77.5 L 520.9 77 Z M 525.8 77 L 526.6 77 C 526.6 77 526.63 80.95 526.6 81 C 526.6 81.3 526.7 81.7 526.7 82 C 526.68 82 525.8 82 525.8 82 L 525.8 81.4 C 525.8 81.4 525.78 81.39 525.8 81.4 C 525.5 81.8 525 82.1 524.5 82.1 C 523.6 82.1 523.1 81.7 523.1 80.8 C 523.14 80.8 523.1 77 523.1 77 L 524 77 C 524 77 523.96 80.45 524 80.5 C 524 81.1 524.2 81.5 524.8 81.5 C 525.3 81.5 525.8 81.1 525.8 80.3 C 525.81 80.3 525.8 77 525.8 77 Z M 528.8 80.5 C 528.8 81 529 81.4 529.6 81.4 C 530.1 81.4 530.7 81.1 530.6 79.5 C 529.8 79.5 528.8 79.4 528.8 80.5 Z M 530.6 81.3 C 530.6 81.3 530.59 81.27 530.6 81.3 C 530.3 81.8 530 82.1 529.3 82.1 C 528.3 82.1 527.9 81.4 527.9 80.4 C 527.9 78.9 529.4 78.8 530.6 78.9 C 530.6 78.2 530.6 77.5 529.7 77.5 C 529.2 77.5 528.9 77.8 529 78.4 C 529 78.4 528.1 78.4 528.1 78.4 C 528.1 77.2 528.7 76.9 529.8 76.9 C 531.1 76.9 531.4 77.5 531.4 78.4 C 531.4 78.4 531.4 80.8 531.4 80.8 C 531.4 81.2 531.5 81.6 531.5 82 C 531.51 82 530.6 82 530.6 82 L 530.6 81.3 Z M 533.7 82 L 532.9 82 L 532.9 74.8 L 533.7 74.8 L 533.7 82 Z M 535.8 82 L 535 82 L 535 77 L 535.8 77 L 535.8 82 Z M 535 74.8 L 535.9 74.8 L 535.9 75.7 L 535 75.7 L 535 74.8 Z M 537.2 77 L 537.2 76 L 538.1 75.6 L 538.1 77 L 539.2 77 L 539.2 77.6 L 538.1 77.6 C 538.1 77.6 538.06 80.66 538.1 80.7 C 538.1 81 538.1 81.4 538.8 81.4 C 538.9 81.4 539 81.4 539.2 81.4 C 539.2 81.4 539.2 82 539.2 82 C 538.9 82 538.6 82.1 538.4 82.1 C 537.6 82.1 537.2 81.7 537.2 81.2 C 537.24 81.16 537.2 77.6 537.2 77.6 L 536.4 77.6 L 536.4 77 L 537.2 77 Z M 541.4 81.1 L 541.4 81.1 L 542.6 77 L 543.5 77 L 541.2 83.9 L 540.3 83.9 L 540.9 82 L 539.2 77 L 540.1 77 L 541.4 81.1 Z M 549.1 79.2 C 549.1 77.8 548.7 77.5 548.1 77.5 C 547.4 77.5 547 77.8 547 79.2 C 547 80.8 547.2 81.4 548.1 81.4 C 548.9 81.4 549.1 80.8 549.1 79.2 Z M 546.2 79.6 C 546.2 78.1 546.3 76.9 548.1 76.9 C 549.8 76.9 550 78.1 550 79.6 C 550 81.8 549.1 82.1 548.1 82.1 C 547 82.1 546.2 81.8 546.2 79.6 Z M 551.3 77 C 551.3 77 551.34 75.97 551.3 76 C 551.3 75 552.1 74.8 552.8 74.8 C 553 74.8 553.1 74.8 553.2 74.8 C 553.2 74.8 553.2 75.4 553.2 75.4 C 552.3 75.3 552.2 75.7 552.2 76.1 C 552.16 76.09 552.2 77 552.2 77 L 553.2 77 L 553.2 77.6 L 552.2 77.6 L 552.2 82 L 551.3 82 L 551.3 77.6 L 550.6 77.6 L 550.6 77 L 551.3 77 Z M 556.8 82 L 556 82 L 556 74.8 L 556.8 74.8 L 556.8 82 Z M 558.9 82 L 558.1 82 L 558.1 77 L 558.9 77 L 558.9 82 Z M 558 74.8 L 559 74.8 L 559 75.7 L 558 75.7 L 558 74.8 Z M 560.4 77 C 560.4 77 560.38 75.97 560.4 76 C 560.4 75 561.1 74.8 561.8 74.8 C 562 74.8 562.1 74.8 562.2 74.8 C 562.2 74.8 562.2 75.4 562.2 75.4 C 561.4 75.3 561.2 75.7 561.2 76.1 C 561.2 76.09 561.2 77 561.2 77 L 562.2 77 L 562.2 77.6 L 561.2 77.6 L 561.2 82 L 560.4 82 L 560.4 77.6 L 559.6 77.6 L 559.6 77 L 560.4 77 Z M 565.7 79.1 C 565.7 77.6 565.3 77.5 564.7 77.5 C 564.2 77.5 563.7 77.7 563.7 79.1 C 563.7 79.1 565.7 79.1 565.7 79.1 Z M 563.7 79.7 C 563.7 81.2 564.1 81.4 564.7 81.4 C 565.3 81.4 565.6 81 565.6 80.5 C 565.6 80.5 566.5 80.5 566.5 80.5 C 566.5 81.6 565.8 82.1 564.8 82.1 C 563.7 82.1 562.8 81.8 562.8 79.5 C 562.8 78.1 563 76.9 564.8 76.9 C 566.2 76.9 566.6 77.6 566.6 79.3 C 566.55 79.31 566.6 79.7 566.6 79.7 C 566.6 79.7 563.71 79.74 563.7 79.7 Z " stroke="none" fill="#555555"/>  </g>  <g id="Polygon199470">    <path d="M 0.1 70 L 2.1 62.8 L 4.1 62.8 L 6 70 L 4.4 70 L 4 68.4 L 2 68.4 L 1.6 70 L 0.1 70 Z M 3 64.2 L 3 64.2 L 2.3 67.3 L 3.7 67.3 L 3 64.2 Z M 9.2 67.4 C 9.2 66.4 9.2 65.7 8.5 65.7 C 8 65.7 8 66.4 8 67.4 C 8 68.7 8.1 69.2 8.5 69.2 C 9.1 69.2 9.2 68.7 9.2 67.4 Z M 6.6 62.8 L 8 62.8 L 8 65.4 C 8 65.4 8 65.43 8 65.4 C 8.3 65 8.6 64.9 9.2 64.9 C 10.6 64.9 10.5 66.4 10.5 67.4 C 10.5 68.5 10.6 70.1 9.1 70.1 C 8.6 70.1 8.2 69.9 7.9 69.4 C 7.93 69.44 7.9 69.4 7.9 69.4 L 7.9 70 L 6.6 70 L 6.6 62.8 Z M 14.1 67.4 C 14.1 66.4 14.1 65.7 13.4 65.7 C 12.9 65.7 12.9 66.4 12.9 67.4 C 12.9 68.7 13 69.2 13.4 69.2 C 14 69.2 14.1 68.7 14.1 67.4 Z M 11.5 62.8 L 12.9 62.8 L 12.9 65.4 C 12.9 65.4 12.9 65.43 12.9 65.4 C 13.2 65 13.5 64.9 14.1 64.9 C 15.5 64.9 15.4 66.4 15.4 67.4 C 15.4 68.5 15.5 70.1 14 70.1 C 13.5 70.1 13.1 69.9 12.8 69.4 C 12.83 69.44 12.8 69.4 12.8 69.4 L 12.8 70 L 11.5 70 L 11.5 62.8 Z M 17.7 65 L 17.7 65.6 C 17.7 65.6 17.73 65.6 17.7 65.6 C 18 65 18.5 64.9 19 64.9 C 19 64.9 19 66.1 19 66.1 C 17.8 66 17.8 66.7 17.8 67.3 C 17.78 67.25 17.8 70 17.8 70 L 16.4 70 L 16.4 65 L 17.7 65 Z M 22.2 66.9 C 22.2 66.4 22.2 65.7 21.5 65.7 C 20.9 65.7 20.9 66.5 20.9 66.9 C 20.9 66.9 22.2 66.9 22.2 66.9 Z M 20.9 67.7 C 20.9 68.3 20.9 69.2 21.5 69.2 C 22 69.2 22.1 68.7 22.1 68.3 C 22.1 68.3 23.6 68.3 23.6 68.3 C 23.5 68.9 23.4 69.3 23 69.6 C 22.7 69.9 22.2 70.1 21.5 70.1 C 19.7 70.1 19.5 69 19.5 67.4 C 19.5 66 19.7 64.9 21.5 64.9 C 23.4 64.9 23.6 66.1 23.6 67.7 C 23.6 67.7 20.9 67.7 20.9 67.7 Z M 24 65 L 25.5 65 L 26.2 68.7 L 26.2 68.7 L 26.9 65 L 28.3 65 L 26.9 70 L 25.4 70 L 24 65 Z M 30.4 70 L 29 70 L 29 65 L 30.4 65 L 30.4 70 Z M 30.4 62.8 L 30.4 63.9 L 29 63.9 L 29 62.8 L 30.4 62.8 Z M 32.7 68.4 C 32.7 68.8 32.8 69.2 33.3 69.2 C 34.1 69.2 34 68.1 34 67.6 C 33.3 67.6 32.7 67.5 32.7 68.4 Z M 35.3 69.1 C 35.3 69.4 35.4 69.7 35.4 70 C 35.42 70 34.1 70 34.1 70 L 34.1 69.3 C 34.1 69.3 34.03 69.33 34 69.3 C 33.7 69.8 33.3 70.1 32.7 70.1 C 31.7 70.1 31.4 69.4 31.4 68.5 C 31.4 66.8 32.7 66.8 34 66.8 C 34 66.8 34 66.4 34 66.4 C 34 65.9 33.9 65.6 33.4 65.6 C 32.9 65.6 32.9 66 32.9 66.4 C 32.9 66.4 31.5 66.4 31.5 66.4 C 31.5 65.8 31.7 65.4 32 65.2 C 32.3 64.9 32.8 64.9 33.3 64.9 C 35.1 64.9 35.3 65.6 35.3 66.5 C 35.3 66.5 35.3 69.1 35.3 69.1 Z M 35.9 65 L 36.4 65 L 36.4 64.2 L 37.8 63.5 L 37.8 65 L 38.6 65 L 38.6 65.8 L 37.8 65.8 C 37.8 65.8 37.83 68.52 37.8 68.5 C 37.8 68.9 37.8 69.2 38.3 69.2 C 38.4 69.2 38.5 69.2 38.5 69.1 C 38.5 69.1 38.5 70 38.5 70 C 38.3 70 38.1 70 37.8 70 C 36.6 70 36.4 69.2 36.4 68.9 C 36.42 68.93 36.4 65.8 36.4 65.8 L 35.9 65.8 L 35.9 65 Z M 40.6 70 L 39.2 70 L 39.2 65 L 40.6 65 L 40.6 70 Z M 40.6 62.8 L 40.6 63.9 L 39.2 63.9 L 39.2 62.8 L 40.6 62.8 Z M 44.4 67.3 C 44.4 66.3 44.3 65.7 43.7 65.7 C 43.1 65.7 43.1 66.3 43.1 67.3 C 43.1 68.9 43.2 69.2 43.7 69.2 C 44.2 69.2 44.4 68.9 44.4 67.3 Z M 41.7 67.4 C 41.7 66 41.9 64.9 43.7 64.9 C 45.6 64.9 45.8 66 45.8 67.4 C 45.8 69 45.5 70.1 43.7 70.1 C 41.9 70.1 41.7 69 41.7 67.4 Z M 48.1 65.5 C 48.1 65.5 48.11 65.46 48.1 65.5 C 48.2 65.2 48.4 65.1 48.6 65 C 48.8 64.9 49 64.9 49.3 64.9 C 50 64.9 50.6 65.3 50.6 65.9 C 50.56 65.95 50.6 70 50.6 70 L 49.2 70 C 49.2 70 49.15 66.52 49.2 66.5 C 49.2 66.1 49.1 65.7 48.6 65.7 C 48.2 65.7 48.1 66.1 48.1 66.5 C 48.09 66.52 48.1 70 48.1 70 L 46.7 70 L 46.7 65 L 48.1 65 L 48.1 65.5 Z M 52.7 68.4 C 52.7 68.6 52.7 68.8 52.8 69 C 52.8 69.2 53 69.2 53.3 69.2 C 53.6 69.2 53.8 69.1 53.8 68.7 C 53.8 67.6 51.3 67.9 51.3 66.3 C 51.3 65.2 52.4 64.9 53.3 64.9 C 54.3 64.9 55.1 65.3 55 66.4 C 55 66.4 53.7 66.4 53.7 66.4 C 53.7 66 53.6 65.8 53.5 65.7 C 53.4 65.7 53.3 65.6 53.2 65.6 C 52.9 65.6 52.7 65.8 52.7 66.2 C 52.7 67 55.2 66.9 55.2 68.6 C 55.2 69.4 54.4 70.1 53.3 70.1 C 52 70.1 51.2 69.8 51.3 68.4 C 51.3 68.4 52.7 68.4 52.7 68.4 Z M 57.1 65 L 57.1 66.3 L 55.9 66.3 L 55.9 65 L 57.1 65 Z M 57.1 70 L 55.9 70 L 55.9 68.7 L 57.1 68.7 L 57.1 70 Z " stroke="none" fill="#555555"/>  </g>  <g id="Polygon199469">    <path d="M 2.6 40.6 L 3.5 41.9 L 2.9 42.3 L 2.2 40.8 L 1.6 42.3 L 1 41.9 L 1.9 40.6 L 0.3 40.8 L 0.3 40.1 L 1.9 40.2 L 1 39 L 1.6 38.6 L 2.2 40.1 L 2.9 38.6 L 3.5 39 L 2.6 40.2 L 4.1 40.1 L 4.1 40.8 L 2.6 40.6 Z M 9.3 38.8 L 9.3 39.6 L 7.4 39.6 L 7.4 46 L 6.5 46 L 6.5 39.6 L 4.6 39.6 L 4.6 38.8 L 9.3 38.8 Z M 12.9 46 C 12.9 46 12.9 42.58 12.9 42.6 C 12.9 42 12.7 41.5 12 41.5 C 11.2 41.5 11 42.2 11 43 C 10.97 43.03 11 46 11 46 L 10.2 46 L 10.2 38.8 L 11 38.8 L 11 41.6 C 11 41.6 11.01 41.6 11 41.6 C 11.3 41 11.7 40.9 12.4 40.9 C 13.2 40.9 13.7 41.3 13.7 42.4 C 13.72 42.42 13.7 46 13.7 46 L 12.9 46 Z M 16 46 L 15.1 46 L 15.1 41 L 16 41 L 16 46 Z M 15.1 38.8 L 16 38.8 L 16 39.7 L 15.1 39.7 L 15.1 38.8 Z M 18.9 46.1 C 17.8 46.1 17.1 45.6 17.1 44.5 C 17.1 44.5 18.1 44.5 18.1 44.5 C 18.1 44.8 18.1 45.4 18.9 45.4 C 19.4 45.4 19.8 45.2 19.8 44.7 C 19.8 43.8 17.3 43.7 17.3 42.2 C 17.3 41.7 17.6 40.9 19 40.9 C 19.9 40.9 20.7 41.3 20.6 42.3 C 20.6 42.3 19.7 42.3 19.7 42.3 C 19.7 41.7 19.4 41.5 18.9 41.5 C 18.4 41.5 18.1 41.7 18.1 42.1 C 18.1 43 20.6 43 20.6 44.6 C 20.6 45.7 19.9 46.1 18.9 46.1 Z M 25.8 41.5 C 24.9 41.5 24.8 42.2 24.8 43.6 C 24.8 44.3 24.8 45.4 25.8 45.4 C 26.7 45.4 26.7 44.3 26.7 43.3 C 26.7 42.6 26.7 41.5 25.8 41.5 Z M 26.7 38.8 L 27.5 38.8 L 27.5 46 L 26.7 46 L 26.7 45.4 C 26.7 45.4 26.69 45.4 26.7 45.4 C 26.4 45.9 26.1 46.1 25.5 46.1 C 24.7 46.1 23.9 45.8 23.9 43.6 C 23.9 42.3 23.9 40.9 25.6 40.9 C 26 40.9 26.4 41.1 26.7 41.5 C 26.68 41.46 26.7 41.5 26.7 41.5 L 26.7 38.8 Z M 29.8 44.5 C 29.8 45 30 45.4 30.6 45.4 C 31.1 45.4 31.7 45.1 31.6 43.5 C 30.8 43.5 29.8 43.4 29.8 44.5 Z M 31.6 45.3 C 31.6 45.3 31.62 45.27 31.6 45.3 C 31.4 45.8 31 46.1 30.3 46.1 C 29.3 46.1 29 45.4 29 44.4 C 29 42.9 30.5 42.8 31.6 42.9 C 31.6 42.2 31.6 41.5 30.8 41.5 C 30.2 41.5 29.9 41.8 30 42.4 C 30 42.4 29.1 42.4 29.1 42.4 C 29.1 41.2 29.7 40.9 30.8 40.9 C 32.1 40.9 32.4 41.5 32.4 42.4 C 32.4 42.4 32.4 44.8 32.4 44.8 C 32.4 45.2 32.5 45.6 32.5 46 C 32.54 46 31.6 46 31.6 46 L 31.6 45.3 Z M 34.1 41 L 34.1 40 L 34.9 39.6 L 34.9 41 L 36 41 L 36 41.6 L 34.9 41.6 C 34.9 41.6 34.95 44.66 34.9 44.7 C 34.9 45 34.9 45.4 35.7 45.4 C 35.8 45.4 35.9 45.4 36.1 45.4 C 36.1 45.4 36.1 46 36.1 46 C 35.8 46 35.5 46.1 35.3 46.1 C 34.5 46.1 34.1 45.7 34.1 45.2 C 34.13 45.16 34.1 41.6 34.1 41.6 L 33.3 41.6 L 33.3 41 L 34.1 41 Z M 37.6 44.5 C 37.6 45 37.8 45.4 38.4 45.4 C 38.9 45.4 39.5 45.1 39.4 43.5 C 38.6 43.5 37.6 43.4 37.6 44.5 Z M 39.4 45.3 C 39.4 45.3 39.4 45.27 39.4 45.3 C 39.1 45.8 38.8 46.1 38.1 46.1 C 37.1 46.1 36.8 45.4 36.8 44.4 C 36.8 42.9 38.2 42.8 39.4 42.9 C 39.4 42.2 39.4 41.5 38.5 41.5 C 38 41.5 37.7 41.8 37.8 42.4 C 37.8 42.4 36.9 42.4 36.9 42.4 C 36.9 41.2 37.5 40.9 38.6 40.9 C 39.9 40.9 40.2 41.5 40.2 42.4 C 40.2 42.4 40.2 44.8 40.2 44.8 C 40.2 45.2 40.3 45.6 40.3 46 C 40.32 46 39.4 46 39.4 46 L 39.4 45.3 Z M 44.8 46 L 44 46 L 44 41 L 44.8 41 L 44.8 46 Z M 44 38.8 L 44.9 38.8 L 44.9 39.7 L 44 39.7 L 44 38.8 Z M 47.7 46.1 C 46.7 46.1 46 45.6 46 44.5 C 46 44.5 46.9 44.5 46.9 44.5 C 46.9 44.8 46.9 45.4 47.8 45.4 C 48.3 45.4 48.6 45.2 48.6 44.7 C 48.6 43.8 46.1 43.7 46.1 42.2 C 46.1 41.7 46.4 40.9 47.9 40.9 C 48.8 40.9 49.5 41.3 49.5 42.3 C 49.5 42.3 48.6 42.3 48.6 42.3 C 48.6 41.7 48.3 41.5 47.8 41.5 C 47.3 41.5 47 41.7 47 42.1 C 47 43 49.5 43 49.5 44.6 C 49.5 45.7 48.7 46.1 47.7 46.1 Z M 54.7 45.4 C 55.8 45.4 55.8 44.3 55.8 43.6 C 55.8 42.2 55.6 41.5 54.8 41.5 C 53.8 41.5 53.8 42.6 53.8 43.3 C 53.8 44 53.7 45.4 54.7 45.4 Z M 53.8 46 L 53 46 L 53 38.8 L 53.8 38.8 L 53.8 41.5 C 53.8 41.5 53.84 41.46 53.8 41.5 C 54.1 41.1 54.5 40.9 54.9 40.9 C 56.6 40.9 56.6 42.3 56.6 43.6 C 56.6 45.8 55.8 46.1 55 46.1 C 54.5 46.1 54.1 45.9 53.8 45.4 C 53.83 45.4 53.8 45.4 53.8 45.4 L 53.8 46 Z M 58.7 44.5 C 58.7 45 58.9 45.4 59.5 45.4 C 60 45.4 60.6 45.1 60.5 43.5 C 59.7 43.5 58.7 43.4 58.7 44.5 Z M 60.5 45.3 C 60.5 45.3 60.5 45.27 60.5 45.3 C 60.2 45.8 59.9 46.1 59.2 46.1 C 58.2 46.1 57.8 45.4 57.8 44.4 C 57.8 42.9 59.3 42.8 60.5 42.9 C 60.5 42.2 60.5 41.5 59.6 41.5 C 59.1 41.5 58.8 41.8 58.9 42.4 C 58.9 42.4 58 42.4 58 42.4 C 58 41.2 58.6 40.9 59.7 40.9 C 61 40.9 61.3 41.5 61.3 42.4 C 61.3 42.4 61.3 44.8 61.3 44.8 C 61.3 45.2 61.4 45.6 61.4 46 C 61.42 46 60.5 46 60.5 46 L 60.5 45.3 Z M 64.4 46.1 C 63.3 46.1 62.6 45.6 62.7 44.5 C 62.7 44.5 63.6 44.5 63.6 44.5 C 63.6 44.8 63.6 45.4 64.4 45.4 C 64.9 45.4 65.3 45.2 65.3 44.7 C 65.3 43.8 62.8 43.7 62.8 42.2 C 62.8 41.7 63.1 40.9 64.5 40.9 C 65.4 40.9 66.2 41.3 66.1 42.3 C 66.1 42.3 65.2 42.3 65.2 42.3 C 65.2 41.7 64.9 41.5 64.4 41.5 C 64 41.5 63.6 41.7 63.6 42.1 C 63.6 43 66.2 43 66.2 44.6 C 66.2 45.7 65.4 46.1 64.4 46.1 Z M 70.1 43.1 C 70.1 41.6 69.7 41.5 69.1 41.5 C 68.6 41.5 68.2 41.7 68.2 43.1 C 68.2 43.1 70.1 43.1 70.1 43.1 Z M 68.2 43.7 C 68.2 45.2 68.5 45.4 69.2 45.4 C 69.7 45.4 70 45 70.1 44.5 C 70.1 44.5 71 44.5 71 44.5 C 70.9 45.6 70.3 46.1 69.2 46.1 C 68.1 46.1 67.3 45.8 67.3 43.5 C 67.3 42.1 67.4 40.9 69.2 40.9 C 70.6 40.9 71 41.6 71 43.3 C 71 43.31 71 43.7 71 43.7 C 71 43.7 68.16 43.74 68.2 43.7 Z M 74.1 41.5 C 73.2 41.5 73.1 42.2 73.1 43.6 C 73.1 44.3 73.1 45.4 74.1 45.4 C 75 45.4 75 44.3 75 43.3 C 75 42.6 75 41.5 74.1 41.5 Z M 75 38.8 L 75.8 38.8 L 75.8 46 L 75 46 L 75 45.4 C 75 45.4 75.01 45.4 75 45.4 C 74.7 45.9 74.4 46.1 73.8 46.1 C 73 46.1 72.2 45.8 72.2 43.6 C 72.2 42.3 72.3 40.9 73.9 40.9 C 74.4 40.9 74.7 41.1 75 41.5 C 75 41.46 75 41.5 75 41.5 L 75 38.8 Z M 82.4 43.2 C 82.4 41.8 82 41.5 81.4 41.5 C 80.7 41.5 80.3 41.8 80.3 43.2 C 80.3 44.8 80.5 45.4 81.4 45.4 C 82.2 45.4 82.4 44.8 82.4 43.2 Z M 79.4 43.6 C 79.4 42.1 79.6 40.9 81.4 40.9 C 83.1 40.9 83.3 42.1 83.3 43.6 C 83.3 45.8 82.4 46.1 81.4 46.1 C 80.3 46.1 79.4 45.8 79.4 43.6 Z M 87.3 46 C 87.3 46 87.32 42.5 87.3 42.5 C 87.3 42 87.1 41.5 86.4 41.5 C 85.5 41.5 85.4 42.3 85.4 43 C 85.4 43.01 85.4 46 85.4 46 L 84.6 46 C 84.6 46 84.58 42 84.6 42 C 84.6 41.6 84.6 41.3 84.5 41 C 84.53 40.95 85.4 41 85.4 41 L 85.4 41.6 C 85.4 41.6 85.44 41.6 85.4 41.6 C 85.8 41 86.1 40.9 86.8 40.9 C 87.9 40.9 88.1 41.5 88.1 42.5 C 88.14 42.5 88.1 46 88.1 46 L 87.3 46 Z M 92.6 46 L 91.8 46 L 91.8 41 L 92.6 41 L 92.6 46 Z M 91.7 38.8 L 92.6 38.8 L 92.6 39.7 L 91.7 39.7 L 91.7 38.8 Z M 96.8 46 C 96.8 46 96.76 42.5 96.8 42.5 C 96.8 42 96.6 41.5 95.9 41.5 C 95 41.5 94.8 42.3 94.8 43 C 94.84 43.01 94.8 46 94.8 46 L 94 46 C 94 46 94.02 42 94 42 C 94 41.6 94 41.3 94 41 C 93.97 40.95 94.8 41 94.8 41 L 94.8 41.6 C 94.8 41.6 94.88 41.6 94.9 41.6 C 95.2 41 95.6 40.9 96.2 40.9 C 97.3 40.9 97.6 41.5 97.6 42.5 C 97.58 42.5 97.6 46 97.6 46 L 96.8 46 Z M 99.1 41 L 99.1 40 L 99.9 39.6 L 99.9 41 L 101 41 L 101 41.6 L 99.9 41.6 C 99.9 41.6 99.93 44.66 99.9 44.7 C 99.9 45 99.9 45.4 100.7 45.4 C 100.7 45.4 100.9 45.4 101 45.4 C 101 45.4 101 46 101 46 C 100.8 46 100.5 46.1 100.2 46.1 C 99.5 46.1 99.1 45.7 99.1 45.2 C 99.11 45.16 99.1 41.6 99.1 41.6 L 98.3 41.6 L 98.3 41 L 99.1 41 Z M 104.6 43.1 C 104.6 41.6 104.2 41.5 103.6 41.5 C 103 41.5 102.6 41.7 102.6 43.1 C 102.6 43.1 104.6 43.1 104.6 43.1 Z M 102.6 43.7 C 102.6 45.2 103 45.4 103.6 45.4 C 104.2 45.4 104.5 45 104.5 44.5 C 104.5 44.5 105.4 44.5 105.4 44.5 C 105.4 45.6 104.7 46.1 103.6 46.1 C 102.6 46.1 101.7 45.8 101.7 43.5 C 101.7 42.1 101.9 40.9 103.6 40.9 C 105.1 40.9 105.4 41.6 105.4 43.3 C 105.44 43.31 105.4 43.7 105.4 43.7 C 105.4 43.7 102.6 43.74 102.6 43.7 Z M 107.6 41.7 C 107.6 41.7 107.67 41.71 107.7 41.7 C 108 40.9 108.4 40.9 109.2 40.9 C 109.2 40.9 109.2 41.7 109.2 41.7 C 109.2 41.7 109.1 41.7 109 41.7 C 108.9 41.7 108.9 41.6 108.8 41.6 C 107.9 41.6 107.6 42.3 107.6 43 C 107.65 43.02 107.6 46 107.6 46 L 106.8 46 L 106.8 41 L 107.6 41 L 107.6 41.7 Z M 110.9 46 L 110.1 46 L 110.1 41 L 110.9 41 L 110.9 46 Z M 110.1 38.8 L 111 38.8 L 111 39.7 L 110.1 39.7 L 110.1 38.8 Z M 114.8 46 C 114.8 46 114.83 42.5 114.8 42.5 C 114.8 42 114.7 41.5 114 41.5 C 113.8 41.5 113.4 41.7 113.3 41.9 C 113.2 42.1 113.1 42.4 113.1 42.6 C 113.13 42.6 113.1 46 113.1 46 L 112.3 46 C 112.3 46 112.31 42 112.3 42 C 112.3 41.7 112.3 41.3 112.3 41 C 112.26 40.95 113.1 41 113.1 41 L 113.1 41.6 C 113.1 41.6 113.15 41.58 113.1 41.6 C 113.4 41 113.8 40.9 114.4 40.9 C 114.9 40.9 115.4 41 115.6 41.5 C 115.9 41 116.3 40.9 116.8 40.9 C 117.3 40.9 118.2 41 118.2 42.2 C 118.17 42.16 118.2 46 118.2 46 L 117.3 46 C 117.3 46 117.35 42.5 117.3 42.5 C 117.3 42 117.2 41.5 116.5 41.5 C 116.2 41.5 116.1 41.5 115.9 41.7 C 115.7 41.9 115.6 42.4 115.6 42.6 C 115.65 42.6 115.6 46 115.6 46 L 114.8 46 Z M 122.5 44.5 C 122.5 45 122.8 45.4 123.3 45.4 C 123.8 45.4 124.4 45.1 124.4 43.5 C 123.6 43.5 122.5 43.4 122.5 44.5 Z M 124.4 45.3 C 124.4 45.3 124.37 45.27 124.4 45.3 C 124.1 45.8 123.7 46.1 123.1 46.1 C 122 46.1 121.7 45.4 121.7 44.4 C 121.7 42.9 123.2 42.8 124.4 42.9 C 124.4 42.2 124.4 41.5 123.5 41.5 C 123 41.5 122.7 41.8 122.7 42.4 C 122.7 42.4 121.8 42.4 121.8 42.4 C 121.9 41.2 122.5 40.9 123.5 40.9 C 124.8 40.9 125.2 41.5 125.2 42.4 C 125.2 42.4 125.2 44.8 125.2 44.8 C 125.2 45.2 125.2 45.6 125.3 46 C 125.29 46 124.4 46 124.4 46 L 124.4 45.3 Z M 129.5 46 C 129.5 46 129.53 42.5 129.5 42.5 C 129.5 42 129.3 41.5 128.6 41.5 C 127.7 41.5 127.6 42.3 127.6 43 C 127.61 43.01 127.6 46 127.6 46 L 126.8 46 C 126.8 46 126.79 42 126.8 42 C 126.8 41.6 126.8 41.3 126.7 41 C 126.74 40.95 127.6 41 127.6 41 L 127.6 41.6 C 127.6 41.6 127.65 41.6 127.6 41.6 C 128 41 128.3 40.9 129 40.9 C 130.1 40.9 130.3 41.5 130.3 42.5 C 130.35 42.5 130.3 46 130.3 46 L 129.5 46 Z M 132.5 44.5 C 132.5 45 132.8 45.4 133.3 45.4 C 133.8 45.4 134.4 45.1 134.4 43.5 C 133.6 43.5 132.5 43.4 132.5 44.5 Z M 134.4 45.3 C 134.4 45.3 134.37 45.27 134.4 45.3 C 134.1 45.8 133.7 46.1 133.1 46.1 C 132 46.1 131.7 45.4 131.7 44.4 C 131.7 42.9 133.2 42.8 134.4 42.9 C 134.4 42.2 134.4 41.5 133.5 41.5 C 133 41.5 132.7 41.8 132.7 42.4 C 132.7 42.4 131.8 42.4 131.8 42.4 C 131.9 41.2 132.5 40.9 133.5 40.9 C 134.8 40.9 135.2 41.5 135.2 42.4 C 135.2 42.4 135.2 44.8 135.2 44.8 C 135.2 45.2 135.2 45.6 135.3 46 C 135.29 46 134.4 46 134.4 46 L 134.4 45.3 Z M 137.6 46 L 136.8 46 L 136.8 38.8 L 137.6 38.8 L 137.6 46 Z M 140.5 45.1 L 140.5 45.1 L 141.8 41 L 142.6 41 L 140.4 47.9 L 139.5 47.9 L 140.1 46 L 138.4 41 L 139.3 41 L 140.5 45.1 Z M 144.9 46.1 C 143.8 46.1 143.2 45.6 143.2 44.5 C 143.2 44.5 144.1 44.5 144.1 44.5 C 144.1 44.8 144.1 45.4 145 45.4 C 145.5 45.4 145.8 45.2 145.8 44.7 C 145.8 43.8 143.3 43.7 143.3 42.2 C 143.3 41.7 143.6 40.9 145.1 40.9 C 146 40.9 146.7 41.3 146.7 42.3 C 146.7 42.3 145.7 42.3 145.7 42.3 C 145.8 41.7 145.5 41.5 145 41.5 C 144.5 41.5 144.2 41.7 144.2 42.1 C 144.2 43 146.7 43 146.7 44.6 C 146.7 45.7 145.9 46.1 144.9 46.1 Z M 148.7 46 L 147.9 46 L 147.9 41 L 148.7 41 L 148.7 46 Z M 147.8 38.8 L 148.7 38.8 L 148.7 39.7 L 147.8 39.7 L 147.8 38.8 Z M 151.6 46.1 C 150.5 46.1 149.8 45.6 149.9 44.5 C 149.9 44.5 150.8 44.5 150.8 44.5 C 150.8 44.8 150.8 45.4 151.6 45.4 C 152.1 45.4 152.5 45.2 152.5 44.7 C 152.5 43.8 150 43.7 150 42.2 C 150 41.7 150.3 40.9 151.7 40.9 C 152.6 40.9 153.4 41.3 153.3 42.3 C 153.3 42.3 152.4 42.3 152.4 42.3 C 152.4 41.7 152.1 41.5 151.6 41.5 C 151.2 41.5 150.8 41.7 150.8 42.1 C 150.8 43 153.4 43 153.4 44.6 C 153.4 45.7 152.6 46.1 151.6 46.1 Z M 156.1 41 L 157 41 L 158 45.3 L 158 45.3 L 159.1 41 L 160.3 41 L 161.3 45.3 L 161.3 45.3 L 162.3 41 L 163.2 41 L 161.8 46 L 160.7 46 L 159.6 41.7 L 159.6 41.7 L 158.5 46 L 157.4 46 L 156.1 41 Z M 164.8 46 L 164 46 L 164 41 L 164.8 41 L 164.8 46 Z M 163.9 38.8 L 164.8 38.8 L 164.8 39.7 L 163.9 39.7 L 163.9 38.8 Z M 166.3 41 L 166.3 40 L 167.1 39.6 L 167.1 41 L 168.2 41 L 168.2 41.6 L 167.1 41.6 C 167.1 41.6 167.12 44.66 167.1 44.7 C 167.1 45 167.1 45.4 167.9 45.4 C 167.9 45.4 168.1 45.4 168.2 45.4 C 168.2 45.4 168.2 46 168.2 46 C 168 46 167.7 46.1 167.4 46.1 C 166.6 46.1 166.3 45.7 166.3 45.2 C 166.3 45.16 166.3 41.6 166.3 41.6 L 165.5 41.6 L 165.5 41 L 166.3 41 Z M 171.7 46 C 171.7 46 171.73 42.58 171.7 42.6 C 171.7 42 171.5 41.5 170.8 41.5 C 170 41.5 169.8 42.2 169.8 43 C 169.8 43.03 169.8 46 169.8 46 L 169 46 L 169 38.8 L 169.8 38.8 L 169.8 41.6 C 169.8 41.6 169.84 41.6 169.8 41.6 C 170.2 41 170.5 40.9 171.2 40.9 C 172.1 40.9 172.5 41.3 172.5 42.4 C 172.55 42.42 172.5 46 172.5 46 L 171.7 46 Z M 177.9 41.5 C 177 41.5 176.9 42.2 176.9 43.6 C 176.9 44.3 176.9 45.4 178 45.4 C 178.9 45.4 178.9 44.3 178.9 43.3 C 178.9 42.6 178.8 41.5 177.9 41.5 Z M 178.9 38.8 L 179.7 38.8 L 179.7 46 L 178.9 46 L 178.9 45.4 C 178.9 45.4 178.86 45.4 178.9 45.4 C 178.6 45.9 178.2 46.1 177.7 46.1 C 176.9 46.1 176.1 45.8 176.1 43.6 C 176.1 42.3 176.1 40.9 177.7 40.9 C 178.2 40.9 178.6 41.1 178.8 41.5 C 178.85 41.46 178.9 41.5 178.9 41.5 L 178.9 38.8 Z M 182 44.5 C 182 45 182.2 45.4 182.7 45.4 C 183.2 45.4 183.9 45.1 183.8 43.5 C 183 43.5 182 43.4 182 44.5 Z M 183.8 45.3 C 183.8 45.3 183.79 45.27 183.8 45.3 C 183.5 45.8 183.1 46.1 182.5 46.1 C 181.4 46.1 181.1 45.4 181.1 44.4 C 181.1 42.9 182.6 42.8 183.8 42.9 C 183.8 42.2 183.8 41.5 182.9 41.5 C 182.4 41.5 182.1 41.8 182.1 42.4 C 182.1 42.4 181.3 42.4 181.3 42.4 C 181.3 41.2 181.9 40.9 183 40.9 C 184.3 40.9 184.6 41.5 184.6 42.4 C 184.6 42.4 184.6 44.8 184.6 44.8 C 184.6 45.2 184.6 45.6 184.7 46 C 184.71 46 183.8 46 183.8 46 L 183.8 45.3 Z M 186.3 41 L 186.3 40 L 187.1 39.6 L 187.1 41 L 188.2 41 L 188.2 41.6 L 187.1 41.6 C 187.1 41.6 187.12 44.66 187.1 44.7 C 187.1 45 187.1 45.4 187.9 45.4 C 187.9 45.4 188.1 45.4 188.2 45.4 C 188.2 45.4 188.2 46 188.2 46 C 188 46 187.7 46.1 187.4 46.1 C 186.6 46.1 186.3 45.7 186.3 45.2 C 186.3 45.16 186.3 41.6 186.3 41.6 L 185.5 41.6 L 185.5 41 L 186.3 41 Z M 189.7 44.5 C 189.7 45 190 45.4 190.5 45.4 C 191 45.4 191.6 45.1 191.6 43.5 C 190.8 43.5 189.7 43.4 189.7 44.5 Z M 191.6 45.3 C 191.6 45.3 191.57 45.27 191.6 45.3 C 191.3 45.8 190.9 46.1 190.3 46.1 C 189.2 46.1 188.9 45.4 188.9 44.4 C 188.9 42.9 190.4 42.8 191.6 42.9 C 191.6 42.2 191.6 41.5 190.7 41.5 C 190.2 41.5 189.9 41.8 189.9 42.4 C 189.9 42.4 189 42.4 189 42.4 C 189.1 41.2 189.7 40.9 190.7 40.9 C 192 40.9 192.4 41.5 192.4 42.4 C 192.4 42.4 192.4 44.8 192.4 44.8 C 192.4 45.2 192.4 45.6 192.5 46 C 192.49 46 191.6 46 191.6 46 L 191.6 45.3 Z M 198.8 42.6 C 198.9 41.7 198.5 41.5 198.1 41.5 C 197.5 41.5 197.1 41.8 197.1 43.2 C 197.1 44.8 197.3 45.4 198.1 45.4 C 198.3 45.4 198.9 45.2 198.9 44.3 C 198.9 44.3 199.7 44.3 199.7 44.3 C 199.8 45.7 198.7 46.1 198.1 46.1 C 197.1 46.1 196.2 45.8 196.2 43.6 C 196.2 42.1 196.4 40.9 198.1 40.9 C 199.2 40.9 199.7 41.4 199.7 42.6 C 199.7 42.6 198.8 42.6 198.8 42.6 Z M 203.9 41 L 204.7 41 C 204.7 41 204.73 44.95 204.7 45 C 204.7 45.3 204.7 45.7 204.8 46 C 204.78 46 203.9 46 203.9 46 L 203.9 45.4 C 203.9 45.4 203.88 45.39 203.9 45.4 C 203.6 45.8 203.1 46.1 202.6 46.1 C 201.7 46.1 201.2 45.7 201.2 44.8 C 201.24 44.8 201.2 41 201.2 41 L 202.1 41 C 202.1 41 202.06 44.45 202.1 44.5 C 202.1 45.1 202.3 45.5 202.9 45.5 C 203.4 45.5 203.9 45.1 203.9 44.3 C 203.91 44.3 203.9 41 203.9 41 Z M 206.3 41 L 206.3 40 L 207.1 39.6 L 207.1 41 L 208.2 41 L 208.2 41.6 L 207.1 41.6 C 207.1 41.6 207.12 44.66 207.1 44.7 C 207.1 45 207.1 45.4 207.9 45.4 C 207.9 45.4 208.1 45.4 208.2 45.4 C 208.2 45.4 208.2 46 208.2 46 C 208 46 207.7 46.1 207.4 46.1 C 206.6 46.1 206.3 45.7 206.3 45.2 C 206.3 45.16 206.3 41.6 206.3 41.6 L 205.5 41.6 L 205.5 41 L 206.3 41 Z M 208.8 42.9 L 211 42.9 L 211 43.7 L 208.8 43.7 L 208.8 42.9 Z M 215.2 43.2 C 215.2 41.8 214.7 41.5 214.1 41.5 C 213.5 41.5 213 41.8 213 43.2 C 213 44.8 213.2 45.4 214.1 45.4 C 214.9 45.4 215.2 44.8 215.2 43.2 Z M 212.2 43.6 C 212.2 42.1 212.3 40.9 214.1 40.9 C 215.8 40.9 216 42.1 216 43.6 C 216 45.8 215.2 46.1 214.1 46.1 C 213 46.1 212.2 45.8 212.2 43.6 Z M 217.5 41 C 217.5 41 217.47 39.97 217.5 40 C 217.5 39 218.2 38.8 218.9 38.8 C 219.1 38.8 219.2 38.8 219.3 38.8 C 219.3 38.8 219.3 39.4 219.3 39.4 C 218.4 39.3 218.3 39.7 218.3 40.1 C 218.29 40.09 218.3 41 218.3 41 L 219.3 41 L 219.3 41.6 L 218.3 41.6 L 218.3 46 L 217.5 46 L 217.5 41.6 L 216.7 41.6 L 216.7 41 L 217.5 41 Z M 220.2 41 C 220.2 41 220.25 39.97 220.2 40 C 220.2 39 221 38.8 221.7 38.8 C 221.9 38.8 222 38.8 222.1 38.8 C 222.1 38.8 222.1 39.4 222.1 39.4 C 221.2 39.3 221.1 39.7 221.1 40.1 C 221.07 40.09 221.1 41 221.1 41 L 222.1 41 L 222.1 41.6 L 221.1 41.6 L 221.1 46 L 220.2 46 L 220.2 41.6 L 219.5 41.6 L 219.5 41 L 220.2 41 Z M 227.9 43.2 C 227.9 41.8 227.5 41.5 226.9 41.5 C 226.2 41.5 225.8 41.8 225.8 43.2 C 225.8 44.8 226 45.4 226.9 45.4 C 227.7 45.4 227.9 44.8 227.9 43.2 Z M 225 43.6 C 225 42.1 225.1 40.9 226.9 40.9 C 228.6 40.9 228.8 42.1 228.8 43.6 C 228.8 45.8 227.9 46.1 226.9 46.1 C 225.8 46.1 225 45.8 225 43.6 Z M 230.2 41 C 230.2 41 230.25 39.97 230.2 40 C 230.2 39 231 38.8 231.7 38.8 C 231.9 38.8 232 38.8 232.1 38.8 C 232.1 38.8 232.1 39.4 232.1 39.4 C 231.2 39.3 231.1 39.7 231.1 40.1 C 231.07 40.09 231.1 41 231.1 41 L 232.1 41 L 232.1 41.6 L 231.1 41.6 L 231.1 46 L 230.2 46 L 230.2 41.6 L 229.5 41.6 L 229.5 41 L 230.2 41 Z M 235.1 46 L 235.1 38.8 L 238.7 38.8 L 238.7 39.6 L 236 39.6 L 236 41.9 L 238.6 41.9 L 238.6 42.7 L 236 42.7 L 236 46 L 235.1 46 Z M 242.3 43.1 C 242.3 41.6 241.9 41.5 241.3 41.5 C 240.8 41.5 240.3 41.7 240.3 43.1 C 240.3 43.1 242.3 43.1 242.3 43.1 Z M 240.3 43.7 C 240.3 45.2 240.7 45.4 241.4 45.4 C 241.9 45.4 242.2 45 242.2 44.5 C 242.2 44.5 243.1 44.5 243.1 44.5 C 243.1 45.6 242.4 46.1 241.4 46.1 C 240.3 46.1 239.5 45.8 239.5 43.5 C 239.5 42.1 239.6 40.9 241.4 40.9 C 242.8 40.9 243.2 41.6 243.2 43.3 C 243.17 43.31 243.2 43.7 243.2 43.7 C 243.2 43.7 240.33 43.74 240.3 43.7 Z M 246.3 45.4 C 247.4 45.4 247.4 44.3 247.4 43.6 C 247.4 42.2 247.3 41.5 246.4 41.5 C 245.5 41.5 245.4 42.6 245.4 43.3 C 245.4 44 245.3 45.4 246.3 45.4 Z M 245.4 46 L 244.6 46 L 244.6 38.8 L 245.4 38.8 L 245.4 41.5 C 245.4 41.5 245.46 41.46 245.5 41.5 C 245.7 41.1 246.1 40.9 246.6 40.9 C 248.2 40.9 248.2 42.3 248.2 43.6 C 248.2 45.8 247.4 46.1 246.6 46.1 C 246.1 46.1 245.7 45.9 245.4 45.4 C 245.45 45.4 245.4 45.4 245.4 45.4 L 245.4 46 Z M 250.4 41.7 C 250.4 41.7 250.4 41.71 250.4 41.7 C 250.7 40.9 251.2 40.9 252 40.9 C 252 40.9 252 41.7 252 41.7 C 251.9 41.7 251.8 41.7 251.7 41.7 C 251.7 41.7 251.6 41.6 251.5 41.6 C 250.6 41.6 250.4 42.3 250.4 43 C 250.38 43.02 250.4 46 250.4 46 L 249.6 46 L 249.6 41 L 250.4 41 L 250.4 41.7 Z M 255.6 41 L 256.4 41 C 256.4 41 256.38 44.95 256.4 45 C 256.4 45.3 256.4 45.7 256.4 46 C 256.43 46 255.6 46 255.6 46 L 255.6 45.4 C 255.6 45.4 255.54 45.39 255.5 45.4 C 255.3 45.8 254.8 46.1 254.3 46.1 C 253.4 46.1 252.9 45.7 252.9 44.8 C 252.9 44.8 252.9 41 252.9 41 L 253.7 41 C 253.7 41 253.71 44.45 253.7 44.5 C 253.7 45.1 254 45.5 254.6 45.5 C 255 45.5 255.6 45.1 255.6 44.3 C 255.57 44.3 255.6 41 255.6 41 Z M 258.6 44.5 C 258.6 45 258.9 45.4 259.4 45.4 C 259.9 45.4 260.5 45.1 260.4 43.5 C 259.7 43.5 258.6 43.4 258.6 44.5 Z M 260.5 45.3 C 260.5 45.3 260.45 45.27 260.4 45.3 C 260.2 45.8 259.8 46.1 259.2 46.1 C 258.1 46.1 257.8 45.4 257.8 44.4 C 257.8 42.9 259.3 42.8 260.4 42.9 C 260.5 42.2 260.5 41.5 259.6 41.5 C 259 41.5 258.8 41.8 258.8 42.4 C 258.8 42.4 257.9 42.4 257.9 42.4 C 258 41.2 258.6 40.9 259.6 40.9 C 260.9 40.9 261.3 41.5 261.3 42.4 C 261.3 42.4 261.3 44.8 261.3 44.8 C 261.3 45.2 261.3 45.6 261.4 46 C 261.36 46 260.5 46 260.5 46 L 260.5 45.3 Z M 263.7 41.7 C 263.7 41.7 263.73 41.71 263.7 41.7 C 264.1 40.9 264.5 40.9 265.3 40.9 C 265.3 40.9 265.3 41.7 265.3 41.7 C 265.2 41.7 265.1 41.7 265.1 41.7 C 265 41.7 264.9 41.6 264.9 41.6 C 263.9 41.6 263.7 42.3 263.7 43 C 263.71 43.02 263.7 46 263.7 46 L 262.9 46 L 262.9 41 L 263.7 41 L 263.7 41.7 Z M 267.7 45.1 L 267.7 45.1 L 268.9 41 L 269.8 41 L 267.5 47.9 L 266.7 47.9 L 267.3 46 L 265.6 41 L 266.5 41 L 267.7 45.1 Z M 272.6 46 C 272.6 46 272.57 45.2 272.6 45.2 C 274.6 42.4 275.2 41.8 275.2 40.6 C 275.2 40.1 274.9 39.7 274.3 39.7 C 273.6 39.7 273.5 40.3 273.5 40.8 C 273.5 40.8 272.6 40.8 272.6 40.8 C 272.5 39.7 273.1 39 274.3 39 C 275.5 39 276.1 39.5 276.1 40.8 C 276.1 42.3 275.3 42.8 273.5 45.2 C 273.54 45.2 276.3 45.2 276.3 45.2 L 276.3 46 L 272.6 46 Z M 280.7 42.6 C 280.7 44.4 280.7 46.1 278.8 46.1 C 276.9 46.1 276.9 44.4 276.9 42.6 C 276.9 40.7 276.9 39 278.8 39 C 280.7 39 280.7 40.7 280.7 42.6 Z M 277.8 42.7 C 277.8 43.9 277.8 45.4 278.8 45.4 C 279.8 45.4 279.7 43.9 279.7 42.7 C 279.7 40.9 279.7 39.7 278.8 39.7 C 277.9 39.7 277.8 40.9 277.8 42.7 Z M 281.4 46 C 281.4 46 281.45 45.2 281.4 45.2 C 283.5 42.4 284.1 41.8 284.1 40.6 C 284.1 40.1 283.8 39.7 283.2 39.7 C 282.5 39.7 282.4 40.3 282.4 40.8 C 282.4 40.8 281.5 40.8 281.5 40.8 C 281.4 39.7 282 39 283.1 39 C 284.4 39 285 39.5 285 40.8 C 285 42.3 284.2 42.8 282.4 45.2 C 282.42 45.2 285.2 45.2 285.2 45.2 L 285.2 46 L 281.4 46 Z M 287.1 42 C 288 42 288.6 41.7 288.6 40.8 C 288.6 40.2 288.3 39.7 287.6 39.7 C 286.8 39.7 286.7 40.3 286.7 40.8 C 286.7 40.8 285.8 40.8 285.8 40.8 C 285.7 39.7 286.3 39 287.6 39 C 288.8 39 289.5 39.5 289.5 40.7 C 289.5 42.1 288.5 42.3 288.1 42.4 C 288.1 42.4 288.1 42.4 288.1 42.4 C 289.2 42.5 289.6 43.1 289.6 44.2 C 289.6 45.5 288.8 46.1 287.5 46.1 C 285.6 46.1 285.7 44.5 285.7 44.1 C 285.7 44.1 286.6 44.1 286.6 44.1 C 286.6 44.8 286.7 45.4 287.6 45.4 C 288.4 45.4 288.6 44.9 288.6 44.1 C 288.6 43 288.2 42.8 287.1 42.8 C 287.1 42.8 287.1 42 287.1 42 Z M 290.8 45 L 291.8 45 L 290.9 47.3 L 290.2 47.3 L 290.8 45 Z M 297.8 46 C 297.8 46 297.79 42.5 297.8 42.5 C 297.8 42 297.6 41.5 296.9 41.5 C 296 41.5 295.9 42.3 295.9 43 C 295.87 43.01 295.9 46 295.9 46 L 295.1 46 C 295.1 46 295.05 42 295.1 42 C 295.1 41.6 295 41.3 295 41 C 295 40.95 295.9 41 295.9 41 L 295.9 41.6 C 295.9 41.6 295.91 41.6 295.9 41.6 C 296.2 41 296.6 40.9 297.3 40.9 C 298.3 40.9 298.6 41.5 298.6 42.5 C 298.61 42.5 298.6 46 298.6 46 L 297.8 46 Z M 303.9 42.8 L 299.8 42.8 L 299.8 42.2 L 303.9 42.2 L 303.9 42.8 Z M 303.9 44.7 L 299.8 44.7 L 299.8 44.1 L 303.9 44.1 L 303.9 44.7 Z M 307.2 46 L 306.3 46 L 306.3 40.1 L 305.3 40.8 C 305.3 40.8 305.26 39.89 305.3 39.9 C 305.5 39.8 306.2 39.3 306.4 39.1 C 306.43 39.06 307.2 39.1 307.2 39.1 L 307.2 46 Z M 311.1 45.4 C 311.8 45.4 311.9 44.6 311.9 43.6 C 311.9 43 311.8 42.2 311 42.2 C 310.2 42.2 310.1 43.1 310.1 43.7 C 310.1 44.4 310.2 45.4 311.1 45.4 Z M 309.1 42.6 C 309.1 40.7 309.1 39 311 39 C 312 39 312.8 39.6 312.7 40.6 C 312.7 40.6 311.8 40.6 311.8 40.6 C 311.8 40.2 311.5 39.6 311 39.6 C 310.2 39.6 310.1 40.3 310.1 42.1 C 310.1 42.1 310.1 42.1 310.1 42.1 C 310.3 41.7 310.7 41.5 311.2 41.5 C 312.1 41.5 312.9 42 312.9 43.8 C 312.9 45.1 312.4 46.1 311 46.1 C 309.1 46.1 309.1 44.4 309.1 42.6 Z M 316.1 46 L 315.2 46 L 315.2 40.1 L 314.1 40.8 C 314.1 40.8 314.14 39.89 314.1 39.9 C 314.4 39.8 315 39.3 315.3 39.1 C 315.31 39.06 316.1 39.1 316.1 39.1 L 316.1 46 Z M 318.5 45 L 319.5 45 L 318.6 47.3 L 318 47.3 L 318.5 45 Z M 322.2 41 L 323.1 41 L 324 45.3 L 324 45.3 L 325.1 41 L 326.3 41 L 327.3 45.3 L 327.4 45.3 L 328.4 41 L 329.2 41 L 327.9 46 L 326.8 46 L 325.7 41.7 L 325.7 41.7 L 324.5 46 L 323.4 46 L 322.2 41 Z M 330.8 46 L 330 46 L 330 41 L 330.8 41 L 330.8 46 Z M 330 38.8 L 330.9 38.8 L 330.9 39.7 L 330 39.7 L 330 38.8 Z M 332.3 41 L 332.3 40 L 333.2 39.6 L 333.2 41 L 334.3 41 L 334.3 41.6 L 333.2 41.6 C 333.2 41.6 333.16 44.66 333.2 44.7 C 333.2 45 333.2 45.4 333.9 45.4 C 334 45.4 334.1 45.4 334.3 45.4 C 334.3 45.4 334.3 46 334.3 46 C 334 46 333.7 46.1 333.5 46.1 C 332.7 46.1 332.3 45.7 332.3 45.2 C 332.34 45.16 332.3 41.6 332.3 41.6 L 331.5 41.6 L 331.5 41 L 332.3 41 Z M 337.8 46 C 337.8 46 337.77 42.58 337.8 42.6 C 337.8 42 337.6 41.5 336.9 41.5 C 336.1 41.5 335.8 42.2 335.8 43 C 335.84 43.03 335.8 46 335.8 46 L 335 46 L 335 38.8 L 335.8 38.8 L 335.8 41.6 C 335.8 41.6 335.88 41.6 335.9 41.6 C 336.2 41 336.6 40.9 337.3 40.9 C 338.1 40.9 338.6 41.3 338.6 42.4 C 338.59 42.42 338.6 46 338.6 46 L 337.8 46 Z M 344.7 46 C 344.7 46 344.73 42.5 344.7 42.5 C 344.7 42 344.6 41.5 343.9 41.5 C 343.7 41.5 343.3 41.7 343.2 41.9 C 343.1 42.1 343 42.4 343 42.6 C 343.03 42.6 343 46 343 46 L 342.2 46 C 342.2 46 342.21 42 342.2 42 C 342.2 41.7 342.2 41.3 342.2 41 C 342.16 40.95 343 41 343 41 L 343 41.6 C 343 41.6 343.05 41.58 343.1 41.6 C 343.3 41 343.7 40.9 344.3 40.9 C 344.8 40.9 345.3 41 345.5 41.5 C 345.8 41 346.2 40.9 346.7 40.9 C 347.2 40.9 348.1 41 348.1 42.2 C 348.07 42.16 348.1 46 348.1 46 L 347.3 46 C 347.3 46 347.25 42.5 347.3 42.5 C 347.3 42 347.1 41.5 346.5 41.5 C 346.1 41.5 346.1 41.5 345.8 41.7 C 345.6 41.9 345.6 42.4 345.6 42.6 C 345.55 42.6 345.6 46 345.6 46 L 344.7 46 Z M 352.2 43.1 C 352.2 41.6 351.8 41.5 351.2 41.5 C 350.7 41.5 350.3 41.7 350.3 43.1 C 350.3 43.1 352.2 43.1 352.2 43.1 Z M 350.3 43.7 C 350.3 45.2 350.7 45.4 351.3 45.4 C 351.9 45.4 352.1 45 352.2 44.5 C 352.2 44.5 353.1 44.5 353.1 44.5 C 353.1 45.6 352.4 46.1 351.3 46.1 C 350.2 46.1 349.4 45.8 349.4 43.5 C 349.4 42.1 349.6 40.9 351.3 40.9 C 352.8 40.9 353.1 41.6 353.1 43.3 C 353.11 43.31 353.1 43.7 353.1 43.7 C 353.1 43.7 350.27 43.74 350.3 43.7 Z M 356.2 41.5 C 355.3 41.5 355.2 42.2 355.2 43.6 C 355.2 44.3 355.2 45.4 356.2 45.4 C 357.1 45.4 357.1 44.3 357.1 43.3 C 357.1 42.6 357.1 41.5 356.2 41.5 Z M 357.1 38.8 L 358 38.8 L 358 46 L 357.1 46 L 357.1 45.4 C 357.1 45.4 357.12 45.4 357.1 45.4 C 356.8 45.9 356.5 46.1 356 46.1 C 355.2 46.1 354.3 45.8 354.3 43.6 C 354.3 42.3 354.4 40.9 356 40.9 C 356.5 40.9 356.8 41.1 357.1 41.5 C 357.11 41.46 357.1 41.5 357.1 41.5 L 357.1 38.8 Z M 360.3 46 L 359.5 46 L 359.5 41 L 360.3 41 L 360.3 46 Z M 359.4 38.8 L 360.3 38.8 L 360.3 39.7 L 359.4 39.7 L 359.4 38.8 Z M 362.4 44.5 C 362.4 45 362.7 45.4 363.2 45.4 C 363.7 45.4 364.4 45.1 364.3 43.5 C 363.5 43.5 362.4 43.4 362.4 44.5 Z M 364.3 45.3 C 364.3 45.3 364.27 45.27 364.3 45.3 C 364 45.8 363.6 46.1 363 46.1 C 361.9 46.1 361.6 45.4 361.6 44.4 C 361.6 42.9 363.1 42.8 364.3 42.9 C 364.3 42.2 364.3 41.5 363.4 41.5 C 362.9 41.5 362.6 41.8 362.6 42.4 C 362.6 42.4 361.7 42.4 361.7 42.4 C 361.8 41.2 362.4 40.9 363.5 40.9 C 364.8 40.9 365.1 41.5 365.1 42.4 C 365.1 42.4 365.1 44.8 365.1 44.8 C 365.1 45.2 365.1 45.6 365.2 46 C 365.19 46 364.3 46 364.3 46 L 364.3 45.3 Z M 369.4 46 C 369.4 46 369.43 42.5 369.4 42.5 C 369.4 42 369.2 41.5 368.5 41.5 C 367.6 41.5 367.5 42.3 367.5 43 C 367.51 43.01 367.5 46 367.5 46 L 366.7 46 C 366.7 46 366.69 42 366.7 42 C 366.7 41.6 366.7 41.3 366.6 41 C 366.64 40.95 367.5 41 367.5 41 L 367.5 41.6 C 367.5 41.6 367.55 41.6 367.6 41.6 C 367.9 41 368.3 40.9 368.9 40.9 C 370 40.9 370.3 41.5 370.3 42.5 C 370.25 42.5 370.3 46 370.3 46 L 369.4 46 Z M 375.6 38.8 L 376.8 38.8 L 379.2 46 L 378.1 46 L 377.6 44.3 L 374.8 44.3 L 374.3 46 L 373.3 46 L 375.6 38.8 Z M 376.2 39.6 L 376.2 39.6 L 375 43.5 L 377.4 43.5 L 376.2 39.6 Z M 385.1 38.8 L 385.1 46 L 383.9 46 L 381 39.7 L 381 39.7 L 381 46 L 380.2 46 L 380.2 38.8 L 381.5 38.8 L 384.3 45 L 384.3 45 L 384.3 38.8 L 385.1 38.8 Z M 387.7 45.2 C 387.7 45.2 388.59 45.2 388.6 45.2 C 389.9 45.2 390.3 44.7 390.3 43 C 390.3 43 390.3 41.6 390.3 41.6 C 390.3 40.1 389.9 39.6 388.9 39.6 C 388.93 39.58 387.7 39.6 387.7 39.6 L 387.7 45.2 Z M 386.8 38.8 C 386.8 38.8 389.02 38.78 389 38.8 C 389.9 38.8 390.6 39.1 391 39.9 C 391.3 40.5 391.3 41.9 391.3 42.2 C 391.3 43.7 391.1 44.6 390.8 45.1 C 390.5 45.7 389.7 46 388.5 46 C 388.46 46 386.8 46 386.8 46 L 386.8 38.8 Z M 392.9 46 L 392.9 38.8 L 396.6 38.8 L 396.6 39.6 L 393.8 39.6 L 393.8 41.9 L 396.4 41.9 L 396.4 42.7 L 393.8 42.7 L 393.8 45.2 L 396.7 45.2 L 396.7 46 L 392.9 46 Z M 398.8 46 L 397.9 46 L 397.9 38.8 L 399.4 38.8 L 401.2 44.8 L 401.2 44.8 L 403.1 38.8 L 404.6 38.8 L 404.6 46 L 403.7 46 L 403.7 39.6 L 403.7 39.6 L 401.6 46 L 400.8 46 L 398.8 39.6 L 398.8 39.6 L 398.8 46 Z M 407.2 45.2 C 407.2 45.2 408.53 45.2 408.5 45.2 C 409.5 45.2 409.9 44.5 409.9 44 C 409.9 42.8 409.2 42.6 408.2 42.6 C 408.21 42.62 407.2 42.6 407.2 42.6 L 407.2 45.2 Z M 407.2 41.8 C 407.2 41.8 408.57 41.82 408.6 41.8 C 409.3 41.8 409.6 41.4 409.6 40.7 C 409.6 40.1 409.3 39.6 408.5 39.6 C 408.53 39.58 407.2 39.6 407.2 39.6 L 407.2 41.8 Z M 406.3 46 L 406.3 38.8 C 406.3 38.8 408.66 38.78 408.7 38.8 C 409.7 38.8 410 39.1 410.3 39.5 C 410.5 39.9 410.6 40.3 410.6 40.5 C 410.6 41.4 410.3 42 409.3 42.2 C 409.3 42.2 409.3 42.2 409.3 42.2 C 410.4 42.4 410.8 43 410.8 44 C 410.8 45.8 409.5 46 408.6 46 C 408.63 46 406.3 46 406.3 46 Z M 413.2 41.9 C 413.2 41.9 414.61 41.88 414.6 41.9 C 415.3 41.9 415.6 41.3 415.6 40.7 C 415.6 40.2 415.3 39.6 414.6 39.6 C 414.62 39.58 413.2 39.6 413.2 39.6 L 413.2 41.9 Z M 413.2 42.7 L 413.2 46 L 412.3 46 L 412.3 38.8 C 412.3 38.8 414.8 38.78 414.8 38.8 C 416.1 38.8 416.5 39.7 416.5 40.6 C 416.5 41.4 416.1 42.1 415.2 42.2 C 415.2 42.2 415.2 42.3 415.2 42.3 C 416 42.4 416.3 42.7 416.4 44.1 C 416.4 44.4 416.5 45.5 416.6 46 C 416.6 46 415.7 46 415.7 46 C 415.4 45.5 415.5 44.6 415.4 43.6 C 415.3 42.7 414.6 42.7 414.3 42.7 C 414.31 42.68 413.2 42.7 413.2 42.7 Z M 421.1 38.8 L 422 38.8 L 420 43.2 L 420 46 L 419.1 46 L 419.1 43.2 L 417.2 38.8 L 418.2 38.8 L 419.6 42.3 L 421.1 38.8 Z M 426.6 40.6 C 426.6 41.8 425.6 42.8 424.4 42.8 C 423.2 42.8 422.2 41.8 422.2 40.6 C 422.2 39.3 423.2 38.4 424.4 38.4 C 425.6 38.4 426.6 39.3 426.6 40.6 Z M 422.5 40.6 C 422.5 41.6 423.4 42.4 424.4 42.4 C 425.5 42.4 426.3 41.6 426.3 40.6 C 426.3 39.5 425.5 38.7 424.4 38.7 C 423.4 38.7 422.5 39.5 422.5 40.6 Z M 424 41.8 L 423.6 41.8 L 423.6 39.3 C 423.6 39.3 424.6 39.31 424.6 39.3 C 425.1 39.3 425.3 39.6 425.3 39.9 C 425.3 40.2 425.1 40.5 424.8 40.5 C 424.8 40.5 424.8 40.5 424.8 40.5 C 425.1 40.6 425.2 40.7 425.2 41.2 C 425.2 41.3 425.2 41.7 425.3 41.8 C 425.3 41.8 424.9 41.8 424.9 41.8 C 424.8 41.7 424.8 41.3 424.8 41 C 424.8 40.7 424.5 40.7 424.4 40.7 C 424.41 40.7 424 40.7 424 40.7 L 424 41.8 Z M 424 40.4 C 424 40.4 424.53 40.38 424.5 40.4 C 424.8 40.4 424.9 40.2 424.9 40 C 424.9 39.8 424.8 39.6 424.5 39.6 C 424.53 39.59 424 39.6 424 39.6 L 424 40.4 Z M 432.5 43.1 C 432.5 41.6 432 41.5 431.4 41.5 C 430.9 41.5 430.5 41.7 430.5 43.1 C 430.5 43.1 432.5 43.1 432.5 43.1 Z M 430.5 43.7 C 430.5 45.2 430.9 45.4 431.5 45.4 C 432.1 45.4 432.4 45 432.4 44.5 C 432.4 44.5 433.3 44.5 433.3 44.5 C 433.3 45.6 432.6 46.1 431.5 46.1 C 430.5 46.1 429.6 45.8 429.6 43.5 C 429.6 42.1 429.8 40.9 431.5 40.9 C 433 40.9 433.3 41.6 433.3 43.3 C 433.33 43.31 433.3 43.7 433.3 43.7 C 433.3 43.7 430.49 43.74 430.5 43.7 Z M 438.3 46 L 437.3 46 L 436.1 43.9 L 435 46 L 434 46 L 435.6 43.4 L 434.2 41 L 435.2 41 L 436.2 42.8 L 437.2 41 L 438.2 41 L 436.7 43.4 L 438.3 46 Z M 442 43.4 C 442 42.6 442 41.5 440.9 41.5 C 439.9 41.5 440 42.9 440 43.7 C 440 44.4 440.1 45.4 441 45.4 C 441.8 45.4 442 44.7 442 43.4 Z M 440 41.5 C 440 41.5 440.04 41.55 440 41.5 C 440.3 41.1 440.7 40.9 441.2 40.9 C 442 40.9 442.8 41.2 442.8 43.4 C 442.8 44.7 442.8 46.1 441.2 46.1 C 440.7 46.1 440.3 45.9 440 45.5 C 440.05 45.49 440 45.5 440 45.5 L 440 47.9 L 439.2 47.9 L 439.2 41 L 440 41 L 440 41.5 Z M 447 43.2 C 447 41.8 446.5 41.5 445.9 41.5 C 445.3 41.5 444.8 41.8 444.8 43.2 C 444.8 44.8 445.1 45.4 445.9 45.4 C 446.8 45.4 447 44.8 447 43.2 Z M 444 43.6 C 444 42.1 444.2 40.9 445.9 40.9 C 447.7 40.9 447.8 42.1 447.8 43.6 C 447.8 45.8 447 46.1 445.9 46.1 C 444.8 46.1 444 45.8 444 43.6 Z M 450.6 46.1 C 449.5 46.1 448.8 45.6 448.9 44.5 C 448.9 44.5 449.8 44.5 449.8 44.5 C 449.8 44.8 449.8 45.4 450.6 45.4 C 451.1 45.4 451.5 45.2 451.5 44.7 C 451.5 43.8 449 43.7 449 42.2 C 449 41.7 449.3 40.9 450.7 40.9 C 451.6 40.9 452.4 41.3 452.3 42.3 C 452.3 42.3 451.4 42.3 451.4 42.3 C 451.4 41.7 451.2 41.5 450.6 41.5 C 450.2 41.5 449.9 41.7 449.9 42.1 C 449.9 43 452.4 43 452.4 44.6 C 452.4 45.7 451.6 46.1 450.6 46.1 Z M 456.3 41 L 457.1 41 C 457.1 41 457.09 44.95 457.1 45 C 457.1 45.3 457.1 45.7 457.1 46 C 457.14 46 456.3 46 456.3 46 L 456.3 45.4 C 456.3 45.4 456.24 45.39 456.2 45.4 C 456 45.8 455.5 46.1 455 46.1 C 454.1 46.1 453.6 45.7 453.6 44.8 C 453.6 44.8 453.6 41 453.6 41 L 454.4 41 C 454.4 41 454.42 44.45 454.4 44.5 C 454.4 45.1 454.7 45.5 455.3 45.5 C 455.7 45.5 456.3 45.1 456.3 44.3 C 456.27 44.3 456.3 41 456.3 41 Z M 459.4 41.7 C 459.4 41.7 459.44 41.71 459.4 41.7 C 459.8 40.9 460.2 40.9 461 40.9 C 461 40.9 461 41.7 461 41.7 C 460.9 41.7 460.8 41.7 460.8 41.7 C 460.7 41.7 460.6 41.6 460.6 41.6 C 459.6 41.6 459.4 42.3 459.4 43 C 459.42 43.02 459.4 46 459.4 46 L 458.6 46 L 458.6 41 L 459.4 41 L 459.4 41.7 Z M 464.7 43.1 C 464.7 41.6 464.3 41.5 463.7 41.5 C 463.1 41.5 462.7 41.7 462.7 43.1 C 462.7 43.1 464.7 43.1 464.7 43.1 Z M 462.7 43.7 C 462.7 45.2 463.1 45.4 463.7 45.4 C 464.3 45.4 464.6 45 464.6 44.5 C 464.6 44.5 465.5 44.5 465.5 44.5 C 465.5 45.6 464.8 46.1 463.7 46.1 C 462.7 46.1 461.8 45.8 461.8 43.5 C 461.8 42.1 462 40.9 463.7 40.9 C 465.2 40.9 465.5 41.6 465.5 43.3 C 465.53 43.31 465.5 43.7 465.5 43.7 C 465.5 43.7 462.69 43.74 462.7 43.7 Z M 472 43.2 C 472 41.8 471.5 41.5 470.9 41.5 C 470.3 41.5 469.8 41.8 469.8 43.2 C 469.8 44.8 470 45.4 470.9 45.4 C 471.7 45.4 472 44.8 472 43.2 Z M 469 43.6 C 469 42.1 469.1 40.9 470.9 40.9 C 472.6 40.9 472.8 42.1 472.8 43.6 C 472.8 45.8 472 46.1 470.9 46.1 C 469.8 46.1 469 45.8 469 43.6 Z M 474.3 41 C 474.3 41 474.27 39.97 474.3 40 C 474.3 39 475 38.8 475.7 38.8 C 475.9 38.8 476 38.8 476.1 38.8 C 476.1 38.8 476.1 39.4 476.1 39.4 C 475.2 39.3 475.1 39.7 475.1 40.1 C 475.08 40.09 475.1 41 475.1 41 L 476.1 41 L 476.1 41.6 L 475.1 41.6 L 475.1 46 L 474.3 46 L 474.3 41.6 L 473.5 41.6 L 473.5 41 L 474.3 41 Z M 481.3 46 L 480.4 46 L 480.4 40.1 L 479.3 40.8 C 479.3 40.8 479.33 39.89 479.3 39.9 C 479.6 39.8 480.2 39.3 480.5 39.1 C 480.5 39.06 481.3 39.1 481.3 39.1 L 481.3 46 Z M 484.5 42 C 485.4 42 485.9 41.7 485.9 40.8 C 485.9 40.2 485.7 39.7 485 39.7 C 484.2 39.7 484.1 40.3 484.1 40.8 C 484.1 40.8 483.2 40.8 483.2 40.8 C 483.1 39.7 483.7 39 485 39 C 486.2 39 486.9 39.5 486.9 40.7 C 486.9 42.1 485.9 42.3 485.5 42.4 C 485.5 42.4 485.5 42.4 485.5 42.4 C 486.6 42.5 486.9 43.1 486.9 44.2 C 486.9 45.5 486.2 46.1 484.9 46.1 C 482.9 46.1 483.1 44.5 483.1 44.1 C 483.1 44.1 484 44.1 484 44.1 C 484 44.8 484.1 45.4 485 45.4 C 485.8 45.4 486 44.9 486 44.1 C 486 43 485.6 42.8 484.5 42.8 C 484.5 42.8 484.5 42 484.5 42 Z M 488.9 46 L 487.9 46 L 487.9 45 L 488.9 45 L 488.9 46 Z M 492.6 44.1 C 492.6 43.5 492.6 42.7 491.7 42.7 C 490.9 42.7 490.8 43.5 490.8 44.1 C 490.8 44.7 491 45.4 491.7 45.4 C 492.4 45.4 492.6 44.7 492.6 44.1 Z M 492.3 42.3 C 493.3 42.4 493.6 43.2 493.6 44.1 C 493.6 45.4 492.9 46.1 491.7 46.1 C 490.5 46.1 489.9 45.4 489.9 44.1 C 489.9 43.2 490.1 42.4 491.1 42.3 C 491.1 42.3 491.1 42.3 491.1 42.3 C 490.3 42.2 489.9 41.5 489.9 40.7 C 489.9 39.6 490.6 39 491.7 39 C 492.8 39 493.5 39.6 493.5 40.7 C 493.5 41.5 493.1 42.2 492.3 42.3 C 492.3 42.3 492.3 42.3 492.3 42.3 Z M 492.6 40.7 C 492.6 40.1 492.3 39.6 491.7 39.6 C 491.1 39.6 490.9 40.1 490.9 40.7 C 490.9 41.2 491 41.9 491.7 41.9 C 492.4 41.9 492.6 41.2 492.6 40.7 Z M 499.4 46 C 499.4 46 499.36 42.5 499.4 42.5 C 499.4 42 499.2 41.5 498.6 41.5 C 498.3 41.5 498 41.7 497.8 41.9 C 497.7 42.1 497.7 42.4 497.7 42.6 C 497.65 42.6 497.7 46 497.7 46 L 496.8 46 C 496.8 46 496.84 42 496.8 42 C 496.8 41.7 496.8 41.3 496.8 41 C 496.79 40.95 497.7 41 497.7 41 L 497.7 41.6 C 497.7 41.6 497.67 41.58 497.7 41.6 C 497.9 41 498.3 40.9 498.9 40.9 C 499.4 40.9 499.9 41 500.1 41.5 C 500.4 41 500.9 40.9 501.3 40.9 C 501.8 40.9 502.7 41 502.7 42.2 C 502.69 42.16 502.7 46 502.7 46 L 501.9 46 C 501.9 46 501.88 42.5 501.9 42.5 C 501.9 42 501.7 41.5 501.1 41.5 C 500.8 41.5 500.7 41.5 500.5 41.7 C 500.2 41.9 500.2 42.4 500.2 42.6 C 500.17 42.6 500.2 46 500.2 46 L 499.4 46 Z M 506.9 43.2 C 506.9 41.8 506.5 41.5 505.9 41.5 C 505.2 41.5 504.8 41.8 504.8 43.2 C 504.8 44.8 505 45.4 505.9 45.4 C 506.7 45.4 506.9 44.8 506.9 43.2 Z M 504 43.6 C 504 42.1 504.1 40.9 505.9 40.9 C 507.6 40.9 507.8 42.1 507.8 43.6 C 507.8 45.8 506.9 46.1 505.9 46.1 C 504.8 46.1 504 45.8 504 43.6 Z M 511.8 46 C 511.8 46 511.84 42.5 511.8 42.5 C 511.8 42 511.6 41.5 510.9 41.5 C 510 41.5 509.9 42.3 509.9 43 C 509.91 43.01 509.9 46 509.9 46 L 509.1 46 C 509.1 46 509.1 42 509.1 42 C 509.1 41.6 509.1 41.3 509 41 C 509.05 40.95 509.9 41 509.9 41 L 509.9 41.6 C 509.9 41.6 509.95 41.6 510 41.6 C 510.3 41 510.7 40.9 511.3 40.9 C 512.4 40.9 512.7 41.5 512.7 42.5 C 512.65 42.5 512.7 46 512.7 46 L 511.8 46 Z M 514.2 41 L 514.2 40 L 515 39.6 L 515 41 L 516.1 41 L 516.1 41.6 L 515 41.6 C 515 41.6 515 44.66 515 44.7 C 515 45 515 45.4 515.8 45.4 C 515.8 45.4 515.9 45.4 516.1 45.4 C 516.1 45.4 516.1 46 516.1 46 C 515.9 46 515.6 46.1 515.3 46.1 C 514.5 46.1 514.2 45.7 514.2 45.2 C 514.19 45.16 514.2 41.6 514.2 41.6 L 513.4 41.6 L 513.4 41 L 514.2 41 Z M 519.6 46 C 519.6 46 519.62 42.58 519.6 42.6 C 519.6 42 519.4 41.5 518.7 41.5 C 517.9 41.5 517.7 42.2 517.7 43 C 517.68 43.03 517.7 46 517.7 46 L 516.9 46 L 516.9 38.8 L 517.7 38.8 L 517.7 41.6 C 517.7 41.6 517.72 41.6 517.7 41.6 C 518.1 41 518.4 40.9 519.1 40.9 C 520 40.9 520.4 41.3 520.4 42.4 C 520.43 42.42 520.4 46 520.4 46 L 519.6 46 Z M 523.4 46.1 C 522.3 46.1 521.6 45.6 521.6 44.5 C 521.6 44.5 522.6 44.5 522.6 44.5 C 522.6 44.8 522.6 45.4 523.4 45.4 C 523.9 45.4 524.3 45.2 524.3 44.7 C 524.3 43.8 521.7 43.7 521.7 42.2 C 521.7 41.7 522.1 40.9 523.5 40.9 C 524.4 40.9 525.2 41.3 525.1 42.3 C 525.1 42.3 524.2 42.3 524.2 42.3 C 524.2 41.7 523.9 41.5 523.4 41.5 C 522.9 41.5 522.6 41.7 522.6 42.1 C 522.6 43 525.1 43 525.1 44.6 C 525.1 45.7 524.4 46.1 523.4 46.1 Z M 529.3 47.2 C 528.9 45.8 528.3 44.3 528.3 42.9 C 528.3 41.3 528.9 39.9 529.3 38.4 C 529.3 38.4 529.9 38.4 529.9 38.4 C 529.6 39.9 529.3 41.4 529.3 42.9 C 529.3 44.3 529.6 45.8 529.9 47.2 C 529.9 47.2 529.3 47.2 529.3 47.2 Z M 532.4 46 L 531.5 46 L 531.5 38.8 L 532.4 38.8 L 532.4 46 Z M 537.7 43.4 C 537.7 43.4 537.7 41 537.7 41 C 537.7 39.4 536.7 39.4 536.4 39.4 C 536.1 39.4 535 39.4 535 41 C 535 41 535 43.4 535 43.4 C 535 44.6 535.3 45.3 536.4 45.3 C 537.5 45.3 537.7 44.6 537.7 43.4 Z M 534.1 41 C 534.1 39.5 534.8 38.6 536.4 38.6 C 537.9 38.6 538.6 39.5 538.6 41 C 538.6 41 538.6 43.4 538.6 43.4 C 538.6 43.9 538.4 45.2 538 45.3 C 538 45.3 538 45.4 538 45.4 C 538.2 45.3 538.5 45.2 538.7 45.2 C 538.65 45.2 539.4 45.2 539.4 45.2 L 539.4 46 C 539.4 46 536.37 46 536.4 46 C 535.4 46 534.1 45.9 534.1 43.4 C 534.1 43.4 534.1 41 534.1 41 Z M 541.2 41.9 C 541.2 41.9 542.57 41.88 542.6 41.9 C 543.2 41.9 543.6 41.3 543.6 40.7 C 543.6 40.2 543.3 39.6 542.6 39.6 C 542.58 39.58 541.2 39.6 541.2 39.6 L 541.2 41.9 Z M 541.2 42.7 L 541.2 46 L 540.3 46 L 540.3 38.8 C 540.3 38.8 542.76 38.78 542.8 38.8 C 544 38.8 544.5 39.7 544.5 40.6 C 544.5 41.4 544 42.1 543.2 42.2 C 543.2 42.2 543.2 42.3 543.2 42.3 C 544 42.4 544.3 42.7 544.4 44.1 C 544.4 44.4 544.5 45.5 544.6 46 C 544.6 46 543.6 46 543.6 46 C 543.4 45.5 543.4 44.6 543.4 43.6 C 543.3 42.7 542.6 42.7 542.3 42.7 C 542.27 42.68 541.2 42.7 541.2 42.7 Z M 550.2 46 L 549.2 46 L 549.2 40.1 L 548.2 40.8 C 548.2 40.8 548.19 39.89 548.2 39.9 C 548.4 39.8 549.1 39.3 549.4 39.1 C 549.36 39.06 550.2 39.1 550.2 39.1 L 550.2 46 Z M 554.6 46 L 553.7 46 L 553.7 40.1 L 552.6 40.8 C 552.6 40.8 552.63 39.89 552.6 39.9 C 552.9 39.8 553.5 39.3 553.8 39.1 C 553.8 39.06 554.6 39.1 554.6 39.1 L 554.6 46 Z M 557.7 46 L 556.8 46 L 556.8 45 L 557.7 45 L 557.7 46 Z M 559.6 41.1 C 559.6 41.8 559.8 42.5 560.6 42.5 C 561.4 42.5 561.5 41.8 561.5 41.1 C 561.5 40.4 561.4 39.6 560.6 39.6 C 559.8 39.6 559.6 40.4 559.6 41.1 Z M 562.4 42.6 C 562.4 44.4 562.5 46.1 560.6 46.1 C 559.5 46.1 558.8 45.4 558.9 44.3 C 558.9 44.3 559.8 44.3 559.8 44.3 C 559.8 44.9 560 45.4 560.6 45.4 C 561.5 45.4 561.5 44.4 561.5 42.6 C 561.5 42.6 561.5 42.6 561.5 42.6 C 561.3 43.1 560.8 43.3 560.3 43.3 C 559.8 43.3 558.7 43 558.7 41.1 C 558.7 39.5 559.7 39 560.6 39 C 562.5 39 562.4 40.7 562.4 42.6 Z M 563.4 42.9 L 565.6 42.9 L 565.6 43.7 L 563.4 43.7 L 563.4 42.9 Z M 569 46 L 568.1 46 L 568.1 40.1 L 567.1 40.8 C 567.1 40.8 567.06 39.89 567.1 39.9 C 567.3 39.8 568 39.3 568.2 39.1 C 568.23 39.06 569 39.1 569 39.1 L 569 46 Z M 572.9 45.4 C 573.6 45.4 573.7 44.6 573.7 43.6 C 573.7 43 573.6 42.2 572.8 42.2 C 572 42.2 571.9 43.1 571.9 43.7 C 571.9 44.4 572 45.4 572.9 45.4 Z M 570.9 42.6 C 570.9 40.7 570.9 39 572.8 39 C 573.8 39 574.6 39.6 574.5 40.6 C 574.5 40.6 573.6 40.6 573.6 40.6 C 573.6 40.2 573.3 39.6 572.8 39.6 C 572 39.6 571.9 40.3 571.9 42.1 C 571.9 42.1 571.9 42.1 571.9 42.1 C 572.1 41.7 572.5 41.5 573 41.5 C 573.9 41.5 574.7 42 574.7 43.8 C 574.7 45.1 574.2 46.1 572.8 46.1 C 570.9 46.1 570.9 44.4 570.9 42.6 Z M 576.6 46 L 575.7 46 L 575.7 45 L 576.6 45 L 576.6 46 Z M 578.9 42 C 579.8 42 580.3 41.7 580.3 40.8 C 580.3 40.2 580.1 39.7 579.4 39.7 C 578.6 39.7 578.5 40.3 578.5 40.8 C 578.5 40.8 577.6 40.8 577.6 40.8 C 577.5 39.7 578.1 39 579.4 39 C 580.6 39 581.3 39.5 581.3 40.7 C 581.3 42.1 580.3 42.3 579.9 42.4 C 579.9 42.4 579.9 42.4 579.9 42.4 C 581 42.5 581.3 43.1 581.3 44.2 C 581.3 45.5 580.6 46.1 579.3 46.1 C 577.3 46.1 577.5 44.5 577.5 44.1 C 577.5 44.1 578.4 44.1 578.4 44.1 C 578.4 44.8 578.5 45.4 579.4 45.4 C 580.2 45.4 580.4 44.9 580.4 44.1 C 580.4 43 580 42.8 578.9 42.8 C 578.9 42.8 578.9 42 578.9 42 Z M 582.4 47.2 C 582.7 45.8 583 44.3 583 42.9 C 583 41.4 582.7 39.9 582.3 38.4 C 582.3 38.4 583 38.4 583 38.4 C 583.4 39.9 584 41.3 584 42.9 C 584 44.3 583.4 45.8 583 47.2 C 583 47.2 582.4 47.2 582.4 47.2 Z M 586 46 L 585.1 46 L 585.1 45 L 586 45 L 586 46 Z M 589.9 39.7 L 589.1 39.7 L 589.1 39.3 L 589.9 39.3 L 589.9 38.5 L 590.4 38.5 L 590.4 39.3 L 591.3 39.3 L 591.3 39.7 L 590.4 39.7 L 590.4 42.7 L 589.9 42.7 L 589.9 39.7 Z M 594.2 42 C 594.2 42 595.19 42.02 595.2 42 C 595.6 42 596.5 41.9 596.7 40.8 C 597 39.7 596.2 39.6 596 39.6 C 595.96 39.58 594.7 39.6 594.7 39.6 L 594.2 42 Z M 592.4 46 L 593.9 38.8 C 593.9 38.8 596.08 38.78 596.1 38.8 C 597.1 38.8 598 39.1 597.7 40.8 C 597.3 42.5 596 42.8 595.2 42.8 C 595.22 42.82 594 42.8 594 42.8 L 593.3 46 L 592.4 46 Z M 601.2 43.2 C 601.5 41.8 601.1 41.5 600.5 41.5 C 599.9 41.5 599.4 41.8 599.1 43.2 C 598.7 44.8 598.8 45.4 599.7 45.4 C 600.5 45.4 600.9 44.8 601.2 43.2 Z M 598.1 43.6 C 598.5 42.1 598.9 40.9 600.6 40.9 C 602.4 40.9 602.3 42.1 602 43.6 C 601.5 45.8 600.6 46.1 599.5 46.1 C 598.5 46.1 597.7 45.8 598.1 43.6 Z M 604.2 46.1 C 603.1 46.1 602.6 45.6 602.8 44.5 C 602.8 44.5 603.8 44.5 603.8 44.5 C 603.7 44.8 603.6 45.4 604.4 45.4 C 604.9 45.4 605.3 45.2 605.4 44.7 C 605.6 43.8 603.1 43.7 603.4 42.2 C 603.5 41.7 604 40.9 605.5 40.9 C 606.4 40.9 607 41.3 606.8 42.3 C 606.8 42.3 605.9 42.3 605.9 42.3 C 606 41.7 605.8 41.5 605.2 41.5 C 604.8 41.5 604.4 41.7 604.3 42.1 C 604.1 43 606.6 43 606.3 44.6 C 606.1 45.7 605.2 46.1 604.2 46.1 Z M 608.4 41 L 608.6 40 L 609.5 39.6 L 609.2 41 L 610.3 41 L 610.1 41.6 L 609 41.6 C 609 41.6 608.39 44.66 608.4 44.7 C 608.3 45 608.2 45.4 609 45.4 C 609 45.4 609.2 45.4 609.4 45.4 C 609.4 45.4 609.2 46 609.2 46 C 609 46 608.7 46.1 608.4 46.1 C 607.6 46.1 607.4 45.7 607.5 45.2 C 607.47 45.16 608.2 41.6 608.2 41.6 L 607.4 41.6 L 607.5 41 L 608.4 41 Z M 610.5 42.9 L 612.7 42.9 L 612.5 43.7 L 610.3 43.7 L 610.5 42.9 Z M 616.1 46 C 616.1 46 616.78 42.58 616.8 42.6 C 616.9 42 616.8 41.5 616.1 41.5 C 615.3 41.5 614.9 42.2 614.8 43 C 614.75 43.03 614.1 46 614.1 46 L 613.3 46 L 614.8 38.8 L 615.7 38.8 L 615.1 41.6 C 615.1 41.6 615.1 41.6 615.1 41.6 C 615.6 41 616 40.9 616.6 40.9 C 617.5 40.9 617.9 41.3 617.6 42.4 C 617.63 42.42 616.9 46 616.9 46 L 616.1 46 Z M 621.8 43.2 C 622 41.8 621.7 41.5 621 41.5 C 620.4 41.5 619.9 41.8 619.6 43.2 C 619.3 44.8 619.4 45.4 620.2 45.4 C 621.1 45.4 621.4 44.8 621.8 43.2 Z M 618.7 43.6 C 619 42.1 619.4 40.9 621.2 40.9 C 622.9 40.9 622.8 42.1 622.5 43.6 C 622.1 45.8 621.1 46.1 620.1 46.1 C 619 46.1 618.2 45.8 618.7 43.6 Z M 626.7 42.6 C 626.9 41.7 626.5 41.5 626.2 41.5 C 625.6 41.5 625.1 41.8 624.8 43.2 C 624.4 44.8 624.5 45.4 625.4 45.4 C 625.6 45.4 626.2 45.2 626.3 44.3 C 626.3 44.3 627.2 44.3 627.2 44.3 C 626.9 45.7 625.8 46.1 625.2 46.1 C 624.2 46.1 623.4 45.8 623.9 43.6 C 624.2 42.1 624.6 40.9 626.3 40.9 C 627.4 40.9 627.8 41.4 627.5 42.6 C 627.5 42.6 626.7 42.6 626.7 42.6 Z M 631.3 44.5 C 631.3 45 631.5 45.4 632.1 45.4 C 632.6 45.4 633.2 45.1 633.1 43.5 C 632.3 43.5 631.3 43.4 631.3 44.5 Z M 633.1 45.3 C 633.1 45.3 633.11 45.27 633.1 45.3 C 632.9 45.8 632.5 46.1 631.8 46.1 C 630.8 46.1 630.5 45.4 630.5 44.4 C 630.5 42.9 632 42.8 633.1 42.9 C 633.1 42.2 633.1 41.5 632.3 41.5 C 631.7 41.5 631.4 41.8 631.5 42.4 C 631.5 42.4 630.6 42.4 630.6 42.4 C 630.6 41.2 631.2 40.9 632.3 40.9 C 633.6 40.9 633.9 41.5 633.9 42.4 C 633.9 42.4 633.9 44.8 633.9 44.8 C 633.9 45.2 634 45.6 634 46 C 634.03 46 633.1 46 633.1 46 L 633.1 45.3 Z M 638.3 46 C 638.3 46 638.27 42.5 638.3 42.5 C 638.3 42 638.1 41.5 637.4 41.5 C 636.5 41.5 636.3 42.3 636.3 43 C 636.35 43.01 636.3 46 636.3 46 L 635.5 46 C 635.5 46 635.53 42 635.5 42 C 635.5 41.6 635.5 41.3 635.5 41 C 635.48 40.95 636.3 41 636.3 41 L 636.3 41.6 C 636.3 41.6 636.39 41.6 636.4 41.6 C 636.7 41 637.1 40.9 637.7 40.9 C 638.8 40.9 639.1 41.5 639.1 42.5 C 639.09 42.5 639.1 46 639.1 46 L 638.3 46 Z M 641.3 44.5 C 641.3 45 641.5 45.4 642.1 45.4 C 642.6 45.4 643.2 45.1 643.1 43.5 C 642.3 43.5 641.3 43.4 641.3 44.5 Z M 643.1 45.3 C 643.1 45.3 643.11 45.27 643.1 45.3 C 642.9 45.8 642.5 46.1 641.8 46.1 C 640.8 46.1 640.5 45.4 640.5 44.4 C 640.5 42.9 642 42.8 643.1 42.9 C 643.1 42.2 643.1 41.5 642.3 41.5 C 641.7 41.5 641.4 41.8 641.5 42.4 C 641.5 42.4 640.6 42.4 640.6 42.4 C 640.6 41.2 641.2 40.9 642.3 40.9 C 643.6 40.9 643.9 41.5 643.9 42.4 C 643.9 42.4 643.9 44.8 643.9 44.8 C 643.9 45.2 644 45.6 644 46 C 644.03 46 643.1 46 643.1 46 L 643.1 45.3 Z M 646.3 46 L 645.5 46 L 645.5 38.8 L 646.3 38.8 L 646.3 46 Z M 649.3 45.1 L 649.3 45.1 L 650.5 41 L 651.4 41 L 649.1 47.9 L 648.3 47.9 L 648.8 46 L 647.1 41 L 648.1 41 L 649.3 45.1 Z M 653.7 46.1 C 652.6 46.1 651.9 45.6 651.9 44.5 C 651.9 44.5 652.9 44.5 652.9 44.5 C 652.9 44.8 652.9 45.4 653.7 45.4 C 654.2 45.4 654.6 45.2 654.6 44.7 C 654.6 43.8 652.1 43.7 652.1 42.2 C 652.1 41.7 652.4 40.9 653.8 40.9 C 654.7 40.9 655.5 41.3 655.4 42.3 C 655.4 42.3 654.5 42.3 654.5 42.3 C 654.5 41.7 654.2 41.5 653.7 41.5 C 653.3 41.5 652.9 41.7 652.9 42.1 C 652.9 43 655.4 43 655.4 44.6 C 655.4 45.7 654.7 46.1 653.7 46.1 Z M 657.4 46 L 656.6 46 L 656.6 41 L 657.4 41 L 657.4 46 Z M 656.6 38.8 L 657.5 38.8 L 657.5 39.7 L 656.6 39.7 L 656.6 38.8 Z M 660.3 46.1 C 659.2 46.1 658.6 45.6 658.6 44.5 C 658.6 44.5 659.5 44.5 659.5 44.5 C 659.5 44.8 659.5 45.4 660.4 45.4 C 660.9 45.4 661.2 45.2 661.2 44.7 C 661.2 43.8 658.7 43.7 658.7 42.2 C 658.7 41.7 659 40.9 660.5 40.9 C 661.4 40.9 662.1 41.3 662.1 42.3 C 662.1 42.3 661.2 42.3 661.2 42.3 C 661.2 41.7 660.9 41.5 660.4 41.5 C 659.9 41.5 659.6 41.7 659.6 42.1 C 659.6 43 662.1 43 662.1 44.6 C 662.1 45.7 661.3 46.1 660.3 46.1 Z M 664.1 46 L 663.2 46 L 663.2 45 L 664.1 45 L 664.1 46 Z " stroke="none" fill="#555555"/>  </g></svg>