<?xml version="1.0" standalone="no"?><!DOCTYPE svg PUBLIC "-//W3C//DTD SVG 1.1//EN" "http://www.w3.org/Graphics/SVG/1.1/DTD/svg11.dtd"><svg xmlns="http://www.w3.org/2000/svg" version="1.1" width="228px" height="51.8px" viewBox="0 -4 228 51.8" style="top:-4px">  <desc>Adapted from Craig et al. Lancet. 2023.2</desc>  <defs/>  <g id="Polygon198196">    <path d="M 2.4 0 L 3.6 0 L 6 7.2 L 4.9 7.2 L 4.4 5.5 L 1.6 5.5 L 1.1 7.2 L 0.2 7.2 L 2.4 0 Z M 3 0.9 L 3 0.9 L 1.9 4.7 L 4.2 4.7 L 3 0.9 Z M 8.5 2.8 C 7.7 2.8 7.5 3.5 7.5 4.8 C 7.5 5.6 7.5 6.7 8.6 6.7 C 9.5 6.7 9.5 5.5 9.5 4.5 C 9.5 3.8 9.5 2.8 8.5 2.8 Z M 9.5 0 L 10.3 0 L 10.3 7.2 L 9.5 7.2 L 9.5 6.6 C 9.5 6.6 9.48 6.64 9.5 6.6 C 9.2 7.1 8.9 7.3 8.3 7.3 C 7.5 7.3 6.7 7 6.7 4.8 C 6.7 3.5 6.7 2.1 8.4 2.1 C 8.8 2.1 9.2 2.3 9.5 2.7 C 9.47 2.7 9.5 2.7 9.5 2.7 L 9.5 0 Z M 12.6 5.7 C 12.6 6.2 12.8 6.7 13.4 6.7 C 13.9 6.7 14.5 6.4 14.4 4.7 C 13.6 4.7 12.6 4.7 12.6 5.7 Z M 14.4 6.5 C 14.4 6.5 14.41 6.51 14.4 6.5 C 14.2 7.1 13.8 7.3 13.1 7.3 C 12.1 7.3 11.8 6.7 11.8 5.7 C 11.8 4.2 13.3 4.1 14.4 4.1 C 14.4 3.4 14.4 2.7 13.6 2.7 C 13 2.7 12.7 3.1 12.8 3.6 C 12.8 3.6 11.9 3.6 11.9 3.6 C 11.9 2.5 12.5 2.1 13.6 2.1 C 14.9 2.1 15.2 2.8 15.2 3.6 C 15.2 3.6 15.2 6 15.2 6 C 15.2 6.4 15.3 6.8 15.3 7.2 C 15.33 7.24 14.4 7.2 14.4 7.2 L 14.4 6.5 Z M 19.7 4.6 C 19.7 3.9 19.7 2.8 18.6 2.8 C 17.6 2.8 17.7 4.2 17.7 4.9 C 17.7 5.6 17.8 6.7 18.7 6.7 C 19.6 6.7 19.7 6 19.7 4.6 Z M 17.7 2.8 C 17.7 2.8 17.74 2.79 17.7 2.8 C 18 2.3 18.4 2.1 18.9 2.1 C 19.7 2.1 20.5 2.4 20.5 4.6 C 20.5 5.9 20.5 7.3 18.9 7.3 C 18.4 7.3 18 7.1 17.7 6.7 C 17.75 6.73 17.7 6.7 17.7 6.7 L 17.7 9.1 L 16.9 9.1 L 16.9 2.2 L 17.7 2.2 L 17.7 2.8 Z M 21.9 2.2 L 21.9 1.2 L 22.7 0.9 L 22.7 2.2 L 23.8 2.2 L 23.8 2.8 L 22.7 2.8 C 22.7 2.8 22.74 5.9 22.7 5.9 C 22.7 6.2 22.7 6.6 23.5 6.6 C 23.5 6.6 23.7 6.6 23.9 6.6 C 23.9 6.6 23.9 7.2 23.9 7.2 C 23.6 7.2 23.3 7.3 23 7.3 C 22.3 7.3 21.9 7 21.9 6.4 C 21.92 6.4 21.9 2.8 21.9 2.8 L 21.1 2.8 L 21.1 2.2 L 21.9 2.2 Z M 27.4 4.4 C 27.4 2.9 27 2.7 26.4 2.7 C 25.8 2.7 25.4 3 25.4 4.4 C 25.4 4.4 27.4 4.4 27.4 4.4 Z M 25.4 5 C 25.4 6.4 25.8 6.7 26.4 6.7 C 27 6.7 27.3 6.2 27.3 5.7 C 27.3 5.7 28.2 5.7 28.2 5.7 C 28.2 6.8 27.5 7.3 26.4 7.3 C 25.4 7.3 24.5 7 24.5 4.8 C 24.5 3.3 24.7 2.1 26.4 2.1 C 27.9 2.1 28.2 2.9 28.2 4.6 C 28.25 4.55 28.2 5 28.2 5 C 28.2 5 25.41 4.98 25.4 5 Z M 31.3 2.8 C 30.4 2.8 30.3 3.5 30.3 4.8 C 30.3 5.6 30.3 6.7 31.4 6.7 C 32.3 6.7 32.3 5.5 32.3 4.5 C 32.3 3.8 32.2 2.8 31.3 2.8 Z M 32.3 0 L 33.1 0 L 33.1 7.2 L 32.3 7.2 L 32.3 6.6 C 32.3 6.6 32.26 6.64 32.3 6.6 C 32 7.1 31.6 7.3 31.1 7.3 C 30.3 7.3 29.5 7 29.5 4.8 C 29.5 3.5 29.5 2.1 31.1 2.1 C 31.6 2.1 32 2.3 32.3 2.7 C 32.25 2.7 32.3 2.7 32.3 2.7 L 32.3 0 Z M 37 2.2 C 37 2.2 36.98 1.21 37 1.2 C 37 0.2 37.7 0 38.4 0 C 38.6 0 38.7 0 38.8 0 C 38.8 0 38.8 0.6 38.8 0.6 C 37.9 0.5 37.8 0.9 37.8 1.3 C 37.8 1.33 37.8 2.2 37.8 2.2 L 38.8 2.2 L 38.8 2.8 L 37.8 2.8 L 37.8 7.2 L 37 7.2 L 37 2.8 L 36.2 2.8 L 36.2 2.2 L 37 2.2 Z M 40.5 2.9 C 40.5 2.9 40.48 2.95 40.5 2.9 C 40.8 2.2 41.2 2.1 42 2.1 C 42 2.1 42 2.9 42 2.9 C 42 2.9 41.9 2.9 41.8 2.9 C 41.7 2.9 41.7 2.9 41.6 2.9 C 40.7 2.9 40.5 3.6 40.5 4.3 C 40.46 4.26 40.5 7.2 40.5 7.2 L 39.6 7.2 L 39.6 2.2 L 40.5 2.2 L 40.5 2.9 Z M 45.8 4.4 C 45.8 3.1 45.4 2.8 44.7 2.8 C 44.1 2.8 43.7 3.1 43.7 4.4 C 43.7 6.1 43.9 6.7 44.7 6.7 C 45.6 6.7 45.8 6.1 45.8 4.4 Z M 42.8 4.8 C 42.8 3.3 43 2.1 44.7 2.1 C 46.5 2.1 46.6 3.3 46.6 4.8 C 46.6 7 45.8 7.3 44.7 7.3 C 43.6 7.3 42.8 7 42.8 4.8 Z M 50.4 7.2 C 50.4 7.2 50.42 3.74 50.4 3.7 C 50.4 3.2 50.3 2.8 49.6 2.8 C 49.4 2.8 49 2.9 48.9 3.1 C 48.8 3.3 48.7 3.6 48.7 3.8 C 48.72 3.84 48.7 7.2 48.7 7.2 L 47.9 7.2 C 47.9 7.2 47.9 3.24 47.9 3.2 C 47.9 2.9 47.9 2.5 47.9 2.2 C 47.85 2.19 48.7 2.2 48.7 2.2 L 48.7 2.8 C 48.7 2.8 48.74 2.82 48.7 2.8 C 49 2.3 49.4 2.1 50 2.1 C 50.5 2.1 51 2.3 51.2 2.7 C 51.5 2.2 51.9 2.1 52.4 2.1 C 52.9 2.1 53.8 2.2 53.8 3.4 C 53.76 3.4 53.8 7.2 53.8 7.2 L 52.9 7.2 C 52.9 7.2 52.94 3.74 52.9 3.7 C 52.9 3.2 52.8 2.8 52.1 2.8 C 51.8 2.8 51.7 2.8 51.5 2.9 C 51.3 3.1 51.2 3.6 51.2 3.8 C 51.24 3.84 51.2 7.2 51.2 7.2 L 50.4 7.2 Z M 60.7 2 C 60.7 1.6 60.6 1.2 60.4 1 C 60.2 0.7 59.8 0.6 59.6 0.6 C 58.9 0.6 58.6 1.1 58.5 1.2 C 58.5 1.3 58.3 1.5 58.3 2.7 C 58.3 2.7 58.3 4.6 58.3 4.6 C 58.3 6.4 58.9 6.6 59.6 6.6 C 59.9 6.6 60.8 6.5 60.8 5.1 C 60.8 5.1 61.7 5.1 61.7 5.1 C 61.7 7.4 60.1 7.4 59.7 7.4 C 58.8 7.4 57.4 7.3 57.4 4.5 C 57.4 4.5 57.4 2.5 57.4 2.5 C 57.4 0.4 58.3 -0.1 59.7 -0.1 C 61.1 -0.1 61.7 0.6 61.6 2 C 61.6 2 60.7 2 60.7 2 Z M 63.8 2.9 C 63.8 2.9 63.81 2.95 63.8 2.9 C 64.1 2.2 64.6 2.1 65.4 2.1 C 65.4 2.1 65.4 2.9 65.4 2.9 C 65.3 2.9 65.2 2.9 65.1 2.9 C 65.1 2.9 65 2.9 64.9 2.9 C 64 2.9 63.8 3.6 63.8 4.3 C 63.79 4.26 63.8 7.2 63.8 7.2 L 63 7.2 L 63 2.2 L 63.8 2.2 L 63.8 2.9 Z M 67 5.7 C 67 6.2 67.3 6.7 67.8 6.7 C 68.3 6.7 68.9 6.4 68.8 4.7 C 68.1 4.7 67 4.7 67 5.7 Z M 68.9 6.5 C 68.9 6.5 68.85 6.51 68.8 6.5 C 68.6 7.1 68.2 7.3 67.6 7.3 C 66.5 7.3 66.2 6.7 66.2 5.7 C 66.2 4.2 67.7 4.1 68.8 4.1 C 68.9 3.4 68.9 2.7 68 2.7 C 67.4 2.7 67.2 3.1 67.2 3.6 C 67.2 3.6 66.3 3.6 66.3 3.6 C 66.4 2.5 67 2.1 68 2.1 C 69.3 2.1 69.7 2.8 69.7 3.6 C 69.7 3.6 69.7 6 69.7 6 C 69.7 6.4 69.7 6.8 69.8 7.2 C 69.77 7.24 68.9 7.2 68.9 7.2 L 68.9 6.5 Z M 72.1 7.2 L 71.2 7.2 L 71.2 2.2 L 72.1 2.2 L 72.1 7.2 Z M 71.2 0 L 72.1 0 L 72.1 0.9 L 71.2 0.9 L 71.2 0 Z M 75.2 2.8 C 74.3 2.8 74.2 3.9 74.2 4.6 C 74.2 6.2 74.6 6.6 75.2 6.6 C 76.2 6.6 76.2 5.4 76.2 4.7 C 76.2 3.9 76.2 2.8 75.2 2.8 Z M 76.2 2.2 L 77 2.2 C 77 2.2 76.98 7.75 77 7.7 C 77 8.9 76.2 9.1 75.1 9.1 C 74.3 9.1 73.5 8.7 73.6 7.8 C 73.6 7.8 74.5 7.8 74.5 7.8 C 74.5 8.3 74.8 8.5 75.3 8.5 C 75.8 8.5 76.2 8.2 76.2 7.7 C 76.16 7.66 76.2 6.6 76.2 6.6 C 76.2 6.6 76.13 6.61 76.1 6.6 C 75.9 7 75.5 7.2 75 7.2 C 73.6 7.2 73.4 6.1 73.4 4.6 C 73.4 2.2 74.5 2.1 75 2.1 C 75.5 2.1 75.9 2.3 76.1 2.8 C 76.14 2.81 76.2 2.8 76.2 2.8 L 76.2 2.2 Z M 83.5 4.4 C 83.5 2.9 83.1 2.7 82.5 2.7 C 81.9 2.7 81.5 3 81.5 4.4 C 81.5 4.4 83.5 4.4 83.5 4.4 Z M 81.5 5 C 81.5 6.4 81.9 6.7 82.5 6.7 C 83.1 6.7 83.4 6.2 83.4 5.7 C 83.4 5.7 84.3 5.7 84.3 5.7 C 84.3 6.8 83.6 7.3 82.5 7.3 C 81.5 7.3 80.6 7 80.6 4.8 C 80.6 3.3 80.8 2.1 82.5 2.1 C 84 2.1 84.3 2.9 84.3 4.6 C 84.35 4.55 84.3 5 84.3 5 C 84.3 5 81.51 4.98 81.5 5 Z M 85.8 2.2 L 85.8 1.2 L 86.6 0.9 L 86.6 2.2 L 87.7 2.2 L 87.7 2.8 L 86.6 2.8 C 86.6 2.8 86.62 5.9 86.6 5.9 C 86.6 6.2 86.6 6.6 87.4 6.6 C 87.4 6.6 87.6 6.6 87.7 6.6 C 87.7 6.6 87.7 7.2 87.7 7.2 C 87.5 7.2 87.2 7.3 86.9 7.3 C 86.1 7.3 85.8 7 85.8 6.4 C 85.8 6.4 85.8 2.8 85.8 2.8 L 85 2.8 L 85 2.2 L 85.8 2.2 Z M 91.5 5.7 C 91.5 6.2 91.7 6.7 92.2 6.7 C 92.7 6.7 93.4 6.4 93.3 4.7 C 92.5 4.7 91.5 4.7 91.5 5.7 Z M 93.3 6.5 C 93.3 6.5 93.29 6.51 93.3 6.5 C 93 7.1 92.6 7.3 92 7.3 C 90.9 7.3 90.6 6.7 90.6 5.7 C 90.6 4.2 92.1 4.1 93.3 4.1 C 93.3 3.4 93.3 2.7 92.4 2.7 C 91.9 2.7 91.6 3.1 91.6 3.6 C 91.6 3.6 90.8 3.6 90.8 3.6 C 90.8 2.5 91.4 2.1 92.5 2.1 C 93.8 2.1 94.1 2.8 94.1 3.6 C 94.1 3.6 94.1 6 94.1 6 C 94.1 6.4 94.1 6.8 94.2 7.2 C 94.21 7.24 93.3 7.2 93.3 7.2 L 93.3 6.5 Z M 96.5 7.2 L 95.7 7.2 L 95.7 0 L 96.5 0 L 96.5 7.2 Z M 98.8 7.2 L 97.8 7.2 L 97.8 6.2 L 98.8 6.2 L 98.8 7.2 Z M 102.5 7.2 L 102.5 0 L 103.4 0 L 103.4 6.4 L 106 6.4 L 106 7.2 L 102.5 7.2 Z M 107.6 5.7 C 107.6 6.2 107.8 6.7 108.3 6.7 C 108.8 6.7 109.5 6.4 109.4 4.7 C 108.6 4.7 107.6 4.7 107.6 5.7 Z M 109.4 6.5 C 109.4 6.5 109.39 6.51 109.4 6.5 C 109.1 7.1 108.7 7.3 108.1 7.3 C 107 7.3 106.7 6.7 106.7 5.7 C 106.7 4.2 108.2 4.1 109.4 4.1 C 109.4 3.4 109.4 2.7 108.5 2.7 C 108 2.7 107.7 3.1 107.7 3.6 C 107.7 3.6 106.9 3.6 106.9 3.6 C 106.9 2.5 107.5 2.1 108.6 2.1 C 109.9 2.1 110.2 2.8 110.2 3.6 C 110.2 3.6 110.2 6 110.2 6 C 110.2 6.4 110.2 6.8 110.3 7.2 C 110.31 7.24 109.4 7.2 109.4 7.2 L 109.4 6.5 Z M 114.5 7.2 C 114.5 7.2 114.55 3.74 114.5 3.7 C 114.5 3.2 114.4 2.8 113.7 2.8 C 112.8 2.8 112.6 3.6 112.6 4.2 C 112.63 4.25 112.6 7.2 112.6 7.2 L 111.8 7.2 C 111.8 7.2 111.81 3.24 111.8 3.2 C 111.8 2.9 111.8 2.5 111.8 2.2 C 111.76 2.19 112.6 2.2 112.6 2.2 L 112.6 2.8 C 112.6 2.8 112.67 2.84 112.7 2.8 C 113 2.3 113.4 2.1 114 2.1 C 115.1 2.1 115.4 2.7 115.4 3.7 C 115.37 3.74 115.4 7.2 115.4 7.2 L 114.5 7.2 Z M 119.4 3.8 C 119.5 3 119.1 2.8 118.7 2.8 C 118.1 2.8 117.7 3.1 117.7 4.4 C 117.7 6.1 117.9 6.7 118.7 6.7 C 118.9 6.7 119.5 6.5 119.5 5.6 C 119.5 5.6 120.3 5.6 120.3 5.6 C 120.4 7 119.3 7.3 118.7 7.3 C 117.7 7.3 116.8 7 116.8 4.8 C 116.8 3.3 117 2.1 118.7 2.1 C 119.8 2.1 120.3 2.7 120.3 3.8 C 120.3 3.8 119.4 3.8 119.4 3.8 Z M 124.6 4.4 C 124.6 2.9 124.2 2.7 123.6 2.7 C 123 2.7 122.6 3 122.6 4.4 C 122.6 4.4 124.6 4.4 124.6 4.4 Z M 122.6 5 C 122.6 6.4 123 6.7 123.6 6.7 C 124.2 6.7 124.5 6.2 124.5 5.7 C 124.5 5.7 125.4 5.7 125.4 5.7 C 125.4 6.8 124.7 7.3 123.6 7.3 C 122.6 7.3 121.7 7 121.7 4.8 C 121.7 3.3 121.9 2.1 123.6 2.1 C 125.1 2.1 125.4 2.9 125.4 4.6 C 125.45 4.55 125.4 5 125.4 5 C 125.4 5 122.61 4.98 122.6 5 Z M 126.9 2.2 L 126.9 1.2 L 127.7 0.9 L 127.7 2.2 L 128.8 2.2 L 128.8 2.8 L 127.7 2.8 C 127.7 2.8 127.72 5.9 127.7 5.9 C 127.7 6.2 127.7 6.6 128.5 6.6 C 128.5 6.6 128.7 6.6 128.8 6.6 C 128.8 6.6 128.8 7.2 128.8 7.2 C 128.6 7.2 128.3 7.3 128 7.3 C 127.2 7.3 126.9 7 126.9 6.4 C 126.9 6.4 126.9 2.8 126.9 2.8 L 126.1 2.8 L 126.1 2.2 L 126.9 2.2 Z M 130.4 7.2 L 129.5 7.2 L 129.5 6.2 L 130.4 6.2 L 130.4 7.2 Z M 133.7 7.2 C 133.7 7.2 133.74 6.44 133.7 6.4 C 135.8 3.6 136.4 3.1 136.4 1.9 C 136.4 1.3 136.1 1 135.5 1 C 134.8 1 134.7 1.5 134.7 2.1 C 134.7 2.1 133.8 2.1 133.8 2.1 C 133.7 0.9 134.3 0.2 135.4 0.2 C 136.7 0.2 137.3 0.8 137.3 2 C 137.3 3.6 136.5 4.1 134.7 6.4 C 134.72 6.44 137.5 6.4 137.5 6.4 L 137.5 7.2 L 133.7 7.2 Z M 141.8 3.8 C 141.8 5.6 141.8 7.4 140 7.4 C 138.1 7.4 138.1 5.6 138.1 3.8 C 138.1 1.9 138.1 0.2 140 0.2 C 141.9 0.2 141.8 1.9 141.8 3.8 Z M 139 4 C 139 5.2 138.9 6.6 140 6.6 C 141 6.6 140.9 5.2 140.9 4 C 140.9 2.1 140.9 1 140 1 C 139 1 139 2.1 139 4 Z M 142.6 7.2 C 142.6 7.2 142.62 6.44 142.6 6.4 C 144.6 3.6 145.2 3.1 145.2 1.9 C 145.2 1.3 145 1 144.4 1 C 143.7 1 143.6 1.5 143.6 2.1 C 143.6 2.1 142.6 2.1 142.6 2.1 C 142.6 0.9 143.1 0.2 144.3 0.2 C 145.6 0.2 146.2 0.8 146.2 2 C 146.2 3.6 145.4 4.1 143.6 6.4 C 143.6 6.44 146.3 6.4 146.3 6.4 L 146.3 7.2 L 142.6 7.2 Z M 148.3 3.2 C 149.1 3.3 149.7 2.9 149.7 2 C 149.7 1.4 149.5 1 148.8 1 C 148 1 147.9 1.5 147.9 2.1 C 147.9 2.1 147 2.1 147 2.1 C 146.9 0.9 147.5 0.2 148.8 0.2 C 150 0.2 150.7 0.8 150.7 2 C 150.7 3.3 149.7 3.5 149.3 3.6 C 149.3 3.6 149.3 3.6 149.3 3.6 C 150.4 3.8 150.7 4.3 150.7 5.4 C 150.7 6.7 150 7.4 148.7 7.4 C 146.7 7.4 146.9 5.7 146.9 5.3 C 146.9 5.3 147.8 5.3 147.8 5.3 C 147.8 6 147.9 6.6 148.7 6.6 C 149.6 6.6 149.8 6.1 149.8 5.4 C 149.8 4.2 149.4 4 148.3 4 C 148.3 4 148.3 3.2 148.3 3.2 Z M 152.6 7.2 L 151.7 7.2 L 151.7 6.2 L 152.6 6.2 L 152.6 7.2 Z M 153.5 3.9 C 153.5 3.9 153.54 3.44 153.5 3.4 C 154.7 1.8 155.1 1.5 155.1 0.8 C 155.1 0.5 154.9 0.2 154.6 0.2 C 154.2 0.2 154.1 0.6 154.1 0.9 C 154.1 0.9 153.5 0.9 153.5 0.9 C 153.5 0.2 153.8 -0.2 154.5 -0.2 C 155.3 -0.2 155.6 0.1 155.6 0.9 C 155.6 1.8 155.2 2.1 154.1 3.4 C 154.11 3.44 155.7 3.4 155.7 3.4 L 155.7 3.9 L 153.5 3.9 Z " stroke="none" fill="#555555"/>  </g></svg>