<?xml version="1.0" standalone="no"?><!DOCTYPE svg PUBLIC "-//W3C//DTD SVG 1.1//EN" "http://www.w3.org/Graphics/SVG/1.1/DTD/svg11.dtd"><svg xmlns="http://www.w3.org/2000/svg" version="1.1" width="466.5px" height="41.4px" viewBox="0 -5 466.5 41.4" style="top:-5px">  <desc>Self inject once per month in ≤15 seconds1*</desc>  <defs/>  <g id="Polygon203266">    <path d="M 4.1 11.8 C 1.2 11.8 0.6 10 0.7 8 C 0.7 8 3.1 8 3.1 8 C 3.1 9.1 3.2 10 4.5 10 C 5.3 10 5.7 9.5 5.7 8.7 C 5.7 6.7 0.9 6.5 0.9 3.1 C 0.9 1.3 1.7 -0.2 4.7 -0.2 C 7 -0.2 8.2 0.9 8 3.3 C 8 3.3 5.7 3.3 5.7 3.3 C 5.7 2.4 5.5 1.6 4.6 1.6 C 3.8 1.6 3.3 2 3.3 2.8 C 3.3 5 8.2 4.8 8.2 8.4 C 8.2 11.4 6 11.8 4.1 11.8 Z M 9.9 11.6 L 9.9 0 L 16.2 0 L 16.2 1.8 L 12.3 1.8 L 12.3 4.7 L 15.9 4.7 L 15.9 6.4 L 12.3 6.4 L 12.3 9.8 L 16.3 9.8 L 16.3 11.6 L 9.9 11.6 Z M 17.9 11.6 L 17.9 0 L 20.3 0 L 20.3 9.7 L 24 9.7 L 24 11.6 L 17.9 11.6 Z M 25 11.6 L 25 0 L 31 0 L 31 1.8 L 27.4 1.8 L 27.4 4.8 L 30.8 4.8 L 30.8 6.5 L 27.4 6.5 L 27.4 11.6 L 25 11.6 Z M 35.7 6.4 L 35.7 8.1 L 31.8 8.1 L 31.8 6.4 L 35.7 6.4 Z M 37.4 11.6 L 37.4 0 L 39.9 0 L 39.9 11.6 L 37.4 11.6 Z M 41.9 11.6 L 41.9 0 L 45.2 0 L 48.2 8 L 48.3 8 L 48.3 0 L 50.5 0 L 50.5 11.6 L 47.3 11.6 L 44.2 3.1 L 44.2 3.1 L 44.2 11.6 L 41.9 11.6 Z M 58.7 0 C 58.7 0 58.66 8.9 58.7 8.9 C 58.7 10.9 57 11.8 55.3 11.8 C 51.9 11.8 51.8 10.4 51.8 7.7 C 51.8 7.7 54.3 7.7 54.3 7.7 C 54.3 8.7 54 10 55.3 10 C 55.9 10 56.2 9.6 56.2 9.1 C 56.24 9.06 56.2 0 56.2 0 L 58.7 0 Z M 60.6 11.6 L 60.6 0 L 66.9 0 L 66.9 1.8 L 63 1.8 L 63 4.7 L 66.6 4.7 L 66.6 6.4 L 63 6.4 L 63 9.8 L 67 9.8 L 67 11.6 L 60.6 11.6 Z M 68.4 5.8 C 68.4 2.8 68.4 -0.2 72.4 -0.2 C 74.9 -0.2 75.9 1.2 75.8 3.7 C 75.8 3.7 73.4 3.7 73.4 3.7 C 73.4 2.1 73.2 1.6 72.4 1.6 C 71.1 1.6 70.9 2.8 70.9 5.8 C 70.9 8.8 71.1 10 72.4 10 C 73.6 10 73.5 8.6 73.5 7.7 C 73.5 7.7 75.9 7.7 75.9 7.7 C 75.9 10.8 74.7 11.8 72.4 11.8 C 68.4 11.8 68.4 8.8 68.4 5.8 Z M 84.3 0 L 84.3 2 L 81.6 2 L 81.6 11.6 L 79.2 11.6 L 79.2 2 L 76.5 2 L 76.5 0 L 84.3 0 Z M 94.4 5.8 C 94.4 2.8 94.2 1.6 92.9 1.6 C 91.5 1.6 91.3 2.8 91.3 5.8 C 91.3 8.8 91.5 10 92.9 10 C 94.2 10 94.4 8.8 94.4 5.8 Z M 88.9 5.8 C 88.9 2.8 88.9 -0.2 92.9 -0.2 C 96.9 -0.2 96.9 2.8 96.9 5.8 C 96.9 8.8 96.9 11.8 92.9 11.8 C 88.9 11.8 88.9 8.8 88.9 5.8 Z M 98.8 11.6 L 98.8 0 L 102.1 0 L 105.1 8 L 105.2 8 L 105.2 0 L 107.4 0 L 107.4 11.6 L 104.2 11.6 L 101.1 3.1 L 101.1 3.1 L 101.1 11.6 L 98.8 11.6 Z M 109.3 5.8 C 109.3 2.8 109.3 -0.2 113.3 -0.2 C 115.8 -0.2 116.8 1.2 116.7 3.7 C 116.7 3.7 114.3 3.7 114.3 3.7 C 114.3 2.1 114 1.6 113.3 1.6 C 112 1.6 111.8 2.8 111.8 5.8 C 111.8 8.8 112 10 113.3 10 C 114.4 10 114.4 8.6 114.4 7.7 C 114.4 7.7 116.8 7.7 116.8 7.7 C 116.8 10.8 115.6 11.8 113.3 11.8 C 109.3 11.8 109.3 8.8 109.3 5.8 Z M 118.4 11.6 L 118.4 0 L 124.7 0 L 124.7 1.8 L 120.8 1.8 L 120.8 4.7 L 124.4 4.7 L 124.4 6.4 L 120.8 6.4 L 120.8 9.8 L 124.8 9.8 L 124.8 11.6 L 118.4 11.6 Z M 132.3 5.1 C 132.3 5.1 133.68 5.1 133.7 5.1 C 134.4 5.1 134.9 4.3 134.9 3.6 C 134.9 2.6 134.6 1.8 133.6 1.8 C 133.55 1.81 132.3 1.8 132.3 1.8 L 132.3 5.1 Z M 129.9 0 C 129.9 0 134.27 0.03 134.3 0 C 136.5 0 137.3 1.4 137.3 3.5 C 137.3 4.8 137 6.9 134.1 6.9 C 134.13 6.88 132.3 6.9 132.3 6.9 L 132.3 11.6 L 129.9 11.6 L 129.9 0 Z M 138.8 11.6 L 138.8 0 L 145.1 0 L 145.1 1.8 L 141.2 1.8 L 141.2 4.7 L 144.8 4.7 L 144.8 6.4 L 141.2 6.4 L 141.2 9.8 L 145.2 9.8 L 145.2 11.6 L 138.8 11.6 Z M 149.2 5 C 149.2 5 150.24 5.02 150.2 5 C 151.2 5 151.5 4.1 151.5 3.3 C 151.5 2.2 151 1.8 150.2 1.8 C 150.24 1.81 149.2 1.8 149.2 1.8 L 149.2 5 Z M 149.2 11.6 L 146.8 11.6 L 146.8 0 C 146.8 0 151.21 0.03 151.2 0 C 152.9 0 153.9 1.1 153.9 3.1 C 153.9 4.5 153.3 5.6 151.8 5.9 C 151.8 5.9 151.8 5.9 151.8 5.9 C 152.3 6 153.9 6.1 153.9 8.2 C 153.9 8.9 153.9 11.1 154.1 11.6 C 154.1 11.6 151.8 11.6 151.8 11.6 C 151.5 10.9 151.5 10.1 151.5 9.3 C 151.5 8 151.6 6.8 149.8 6.8 C 149.79 6.8 149.2 6.8 149.2 6.8 L 149.2 11.6 Z M 159.2 11.6 L 159.2 0 L 163.1 0 L 164.9 7.9 L 164.9 7.9 L 166.8 0 L 170.6 0 L 170.6 11.6 L 168.3 11.6 L 168.3 2.7 L 168.2 2.7 L 166 11.6 L 163.7 11.6 L 161.6 2.7 L 161.6 2.7 L 161.6 11.6 L 159.2 11.6 Z M 178 5.8 C 178 2.8 177.8 1.6 176.4 1.6 C 175.1 1.6 174.9 2.8 174.9 5.8 C 174.9 8.8 175.1 10 176.4 10 C 177.8 10 178 8.8 178 5.8 Z M 172.5 5.8 C 172.5 2.8 172.5 -0.2 176.4 -0.2 C 180.4 -0.2 180.4 2.8 180.4 5.8 C 180.4 8.8 180.4 11.8 176.4 11.8 C 172.5 11.8 172.5 8.8 172.5 5.8 Z M 182.4 11.6 L 182.4 0 L 185.6 0 L 188.7 8 L 188.7 8 L 188.7 0 L 191 0 L 191 11.6 L 187.8 11.6 L 184.7 3.1 L 184.6 3.1 L 184.6 11.6 L 182.4 11.6 Z M 199.9 0 L 199.9 2 L 197.2 2 L 197.2 11.6 L 194.8 11.6 L 194.8 2 L 192.1 2 L 192.1 0 L 199.9 0 Z M 206.3 4.7 L 206.3 0 L 208.7 0 L 208.7 11.6 L 206.3 11.6 L 206.3 6.4 L 203.5 6.4 L 203.5 11.6 L 201.1 11.6 L 201.1 0 L 203.5 0 L 203.5 4.7 L 206.3 4.7 Z M 214.3 11.6 L 214.3 0 L 216.8 0 L 216.8 11.6 L 214.3 11.6 Z M 218.8 11.6 L 218.8 0 L 222.1 0 L 225.1 8 L 225.2 8 L 225.2 0 L 227.4 0 L 227.4 11.6 L 224.3 11.6 L 221.1 3.1 L 221.1 3.1 L 221.1 11.6 L 218.8 11.6 Z M 232.7 6.7 L 232.7 5.5 L 238.6 2.2 L 238.6 3.6 L 233.8 6.1 L 233.8 6.1 L 238.6 8.7 L 238.6 10 L 232.7 6.7 Z M 232.7 11.7 L 232.7 10.6 L 238.7 10.6 L 238.7 11.7 L 232.7 11.7 Z M 240.1 2.1 C 240.9 1.7 241.7 1.2 242.3 0.4 C 242.27 0.42 244.4 0.4 244.4 0.4 L 244.4 11.6 L 242 11.6 C 242 11.6 242 2.99 242 3 C 241.4 3.5 240.8 3.9 240.1 4.2 C 240.1 4.2 240.1 2.1 240.1 2.1 Z M 249.2 4.9 C 249.2 4.9 249.26 4.96 249.3 5 C 249.6 4.4 250.2 4.2 250.9 4.2 C 252.7 4.2 253.3 5.5 253.3 7.9 C 253.3 10.9 252.1 11.7 249.9 11.7 C 248 11.7 246.8 11 246.9 9 C 246.9 9 249.1 9 249.1 9 C 249.1 9.3 249.2 9.6 249.3 9.8 C 249.4 10 249.6 10.1 250 10.1 C 250.9 10.1 251 9.4 251 7.9 C 251 7.2 251.1 5.6 250 5.6 C 249.4 5.6 249.2 6.4 249.2 6.9 C 249.2 6.9 247 6.9 247 6.9 L 247 0.4 L 252.9 0.4 L 252.9 2.1 L 249.2 2.1 L 249.2 4.9 Z M 261.2 11.8 C 258.2 11.8 257.7 10 257.8 8 C 257.8 8 260.2 8 260.2 8 C 260.2 9.1 260.3 10 261.6 10 C 262.4 10 262.8 9.5 262.8 8.7 C 262.8 6.7 257.9 6.5 257.9 3.1 C 257.9 1.3 258.8 -0.2 261.8 -0.2 C 264.1 -0.2 265.3 0.9 265.1 3.3 C 265.1 3.3 262.8 3.3 262.8 3.3 C 262.8 2.4 262.6 1.6 261.6 1.6 C 260.9 1.6 260.4 2 260.4 2.8 C 260.4 5 265.3 4.8 265.3 8.4 C 265.3 11.4 263.1 11.8 261.2 11.8 Z M 267 11.6 L 267 0 L 273.3 0 L 273.3 1.8 L 269.4 1.8 L 269.4 4.7 L 273 4.7 L 273 6.4 L 269.4 6.4 L 269.4 9.8 L 273.4 9.8 L 273.4 11.6 L 267 11.6 Z M 274.9 5.8 C 274.9 2.8 274.9 -0.2 278.9 -0.2 C 281.3 -0.2 282.3 1.2 282.2 3.7 C 282.2 3.7 279.9 3.7 279.9 3.7 C 279.9 2.1 279.6 1.6 278.9 1.6 C 277.5 1.6 277.3 2.8 277.3 5.8 C 277.3 8.8 277.5 10 278.9 10 C 280 10 279.9 8.6 280 7.7 C 280 7.7 282.3 7.7 282.3 7.7 C 282.3 10.8 281.1 11.8 278.9 11.8 C 274.9 11.8 274.9 8.8 274.9 5.8 Z M 289.3 5.8 C 289.3 2.8 289.1 1.6 287.8 1.6 C 286.4 1.6 286.2 2.8 286.2 5.8 C 286.2 8.8 286.4 10 287.8 10 C 289.1 10 289.3 8.8 289.3 5.8 Z M 283.8 5.8 C 283.8 2.8 283.8 -0.2 287.8 -0.2 C 291.7 -0.2 291.7 2.8 291.7 5.8 C 291.7 8.8 291.7 11.8 287.8 11.8 C 283.8 11.8 283.8 8.8 283.8 5.8 Z M 293.7 11.6 L 293.7 0 L 296.9 0 L 300 8 L 300 8 L 300 0 L 302.3 0 L 302.3 11.6 L 299.1 11.6 L 296 3.1 L 295.9 3.1 L 295.9 11.6 L 293.7 11.6 Z M 306.8 9.8 C 306.8 9.8 307.96 9.81 308 9.8 C 309.4 9.8 309.7 8.7 309.7 5.8 C 309.7 3.7 309.7 1.8 308 1.8 C 308.04 1.81 306.8 1.8 306.8 1.8 L 306.8 9.8 Z M 304.4 0 C 304.4 0 308.41 0.03 308.4 0 C 311.6 0 312.2 2.1 312.2 5.7 C 312.2 7.5 312.4 11.6 308.3 11.6 C 308.32 11.58 304.4 11.6 304.4 11.6 L 304.4 0 Z M 317.2 11.8 C 314.3 11.8 313.7 10 313.8 8 C 313.8 8 316.2 8 316.2 8 C 316.2 9.1 316.3 10 317.6 10 C 318.4 10 318.8 9.5 318.8 8.7 C 318.8 6.7 314 6.5 314 3.1 C 314 1.3 314.8 -0.2 317.8 -0.2 C 320.1 -0.2 321.3 0.9 321.1 3.3 C 321.1 3.3 318.8 3.3 318.8 3.3 C 318.8 2.4 318.6 1.6 317.7 1.6 C 316.9 1.6 316.4 2 316.4 2.8 C 316.4 5 321.3 4.8 321.3 8.4 C 321.3 11.4 319.1 11.8 317.2 11.8 Z M 322.5 0.8 C 322.9 0.5 323.4 0.2 323.7 -0.3 C 323.71 -0.25 325 -0.3 325 -0.3 L 325 6.3 L 323.6 6.3 C 323.6 6.3 323.55 1.25 323.6 1.2 C 323.2 1.5 322.8 1.8 322.5 2 C 322.5 2 322.5 0.8 322.5 0.8 Z M 328.8 5.9 L 327.4 5.1 L 328.8 3.3 L 326.6 3.6 L 326.6 2 L 328.8 2.3 L 327.5 0.6 L 328.9 -0.2 L 329.7 1.8 L 330.5 -0.2 L 331.8 0.6 L 330.5 2.3 L 332.7 2 L 332.7 3.6 L 330.5 3.3 L 332 5.1 L 330.6 5.9 L 329.7 3.7 L 328.8 5.9 Z " stroke="none" fill="#00b398"/>  </g></svg>