<?xml version="1.0" standalone="no"?><!DOCTYPE svg PUBLIC "-//W3C//DTD SVG 1.1//EN" "http://www.w3.org/Graphics/SVG/1.1/DTD/svg11.dtd"><svg xmlns="http://www.w3.org/2000/svg" version="1.1" width="327.3px" height="45.7px" viewBox="0 -1 327.3 45.7" style="top:-1px">  <desc>3 year shelf life</desc>  <defs/>  <g id="Polygon203413">    <path d="M 0.3 16.7 C 0.3 15.5 0.6 14.7 1.2 14.3 C 1.7 13.8 2.6 13.6 3.7 13.6 C 6 13.6 7 14.5 7 16.8 C 7 17.9 6.7 19.2 5.4 19.4 C 5.4 19.4 5.4 19.5 5.4 19.5 C 6.9 19.8 7.2 21 7.2 22.4 C 7.2 24.8 5.9 25.8 3.5 25.8 C 1.1 25.8 0.2 25 0.2 22.4 C 0.2 22.4 2.6 22.4 2.6 22.4 C 2.6 23.2 2.6 24.1 3.6 24.1 C 4.7 24.1 4.8 23.1 4.8 22.2 C 4.8 20.5 4.2 20.4 2.6 20.4 C 2.6 20.4 2.6 18.5 2.6 18.5 C 4.1 18.6 4.6 18.4 4.6 16.8 C 4.6 16.1 4.5 15.4 3.7 15.4 C 2.8 15.4 2.7 16.1 2.7 16.7 C 2.7 16.7 0.3 16.7 0.3 16.7 Z M 12.5 20.2 L 12.5 21.9 L 8.3 21.9 L 8.3 20.2 L 12.5 20.2 Z M 15.7 25.7 L 13.4 17.1 L 15.7 17.1 L 17 23.1 L 17 23.1 L 18.3 17.1 L 20.6 17.1 L 17.3 28.9 L 14.8 28.9 L 15.7 25.7 Z M 26.1 20.4 C 26.1 19.6 26.1 18.4 25 18.4 C 23.9 18.4 23.9 19.7 23.9 20.4 C 23.9 20.4 26.1 20.4 26.1 20.4 Z M 23.9 21.7 C 23.9 22.8 24 24.3 25 24.3 C 25.9 24.3 26 23.5 26 22.8 C 26 22.8 28.5 22.8 28.5 22.8 C 28.4 23.7 28.1 24.5 27.5 25 C 27 25.5 26.1 25.8 25 25.8 C 21.9 25.8 21.5 23.9 21.5 21.3 C 21.5 18.9 21.8 16.9 25 16.9 C 28.2 16.9 28.6 19 28.5 21.7 C 28.5 21.7 23.9 21.7 23.9 21.7 Z M 32.3 23 C 32.3 23.6 32.4 24.3 33.2 24.3 C 34.6 24.3 34.4 22.4 34.4 21.5 C 33.2 21.6 32.3 21.5 32.3 23 Z M 36.7 24.1 C 36.7 24.6 36.8 25.1 36.8 25.7 C 36.84 25.65 34.6 25.7 34.6 25.7 L 34.5 24.5 C 34.5 24.5 34.48 24.51 34.5 24.5 C 34 25.4 33.3 25.8 32.2 25.8 C 30.6 25.8 30 24.6 30 23.1 C 30 20.2 32.1 20.1 34.4 20.2 C 34.4 20.2 34.4 19.5 34.4 19.5 C 34.4 18.8 34.3 18.2 33.4 18.2 C 32.6 18.2 32.5 18.9 32.5 19.6 C 32.5 19.6 30.2 19.6 30.2 19.6 C 30.2 18.5 30.5 17.9 31 17.5 C 31.6 17.1 32.4 16.9 33.3 16.9 C 36.3 16.9 36.7 18.2 36.7 19.8 C 36.7 19.8 36.7 24.1 36.7 24.1 Z M 41 17.1 L 41 18.2 C 41 18.2 41.02 18.17 41 18.2 C 41.5 17.2 42.3 16.9 43.2 16.9 C 43.2 16.9 43.2 19 43.2 19 C 41.1 18.9 41.1 20.1 41.1 21 C 41.11 20.98 41.1 25.7 41.1 25.7 L 38.7 25.7 L 38.7 17.1 L 41 17.1 Z M 50 22.9 C 50 23.3 50 23.7 50.1 23.9 C 50.3 24.2 50.5 24.3 51 24.3 C 51.5 24.3 51.9 24 51.9 23.5 C 51.9 21.6 47.7 22 47.7 19.3 C 47.7 17.5 49.5 16.9 51.1 16.9 C 52.7 16.9 54.2 17.7 54 19.5 C 54 19.5 51.7 19.5 51.7 19.5 C 51.7 18.9 51.6 18.6 51.5 18.4 C 51.3 18.3 51.1 18.2 50.8 18.2 C 50.3 18.2 50 18.6 50 19.2 C 50 20.5 54.2 20.5 54.2 23.2 C 54.2 24.7 53 25.8 51 25.8 C 48.9 25.8 47.5 25.3 47.7 22.9 C 47.7 22.9 50 22.9 50 22.9 Z M 59.9 25.7 C 59.9 25.7 59.89 19.74 59.9 19.7 C 59.9 19 59.8 18.4 59 18.4 C 58.2 18.4 58.1 19 58.1 19.7 C 58.09 19.74 58.1 25.7 58.1 25.7 L 55.7 25.7 L 55.7 13.4 L 58.1 13.4 L 58.1 17.9 C 58.1 17.9 58.12 17.94 58.1 17.9 C 58.4 17.5 58.6 17.3 59 17.1 C 59.3 17 59.7 16.9 60.1 16.9 C 61.3 16.9 62.3 17.6 62.3 18.8 C 62.29 18.77 62.3 25.7 62.3 25.7 L 59.9 25.7 Z M 68.6 20.4 C 68.6 19.6 68.6 18.4 67.5 18.4 C 66.4 18.4 66.4 19.7 66.4 20.4 C 66.4 20.4 68.6 20.4 68.6 20.4 Z M 66.4 21.7 C 66.4 22.8 66.4 24.3 67.5 24.3 C 68.3 24.3 68.5 23.5 68.5 22.8 C 68.5 22.8 70.9 22.8 70.9 22.8 C 70.9 23.7 70.6 24.5 70 25 C 69.5 25.5 68.6 25.8 67.5 25.8 C 64.4 25.8 64 23.9 64 21.3 C 64 18.9 64.3 16.9 67.5 16.9 C 70.7 16.9 71.1 19 71 21.7 C 71 21.7 66.4 21.7 66.4 21.7 Z M 75.3 13.4 L 75.3 25.7 L 72.9 25.7 L 72.9 13.4 L 75.3 13.4 Z M 81.1 14.9 C 80.1 14.8 79.9 15.2 79.9 16 C 79.93 16.03 79.9 17.1 79.9 17.1 L 81.1 17.1 L 81.1 18.5 L 79.9 18.5 L 79.9 25.7 L 77.5 25.7 L 77.5 18.5 L 76.5 18.5 L 76.5 17.1 C 76.5 17.1 77.55 17.07 77.6 17.1 C 77.5 14.6 77.3 13.3 80.3 13.3 C 80.5 13.3 80.8 13.3 81.1 13.3 C 81.1 13.3 81.1 14.9 81.1 14.9 Z M 88.5 13.4 L 88.5 25.7 L 86.1 25.7 L 86.1 13.4 L 88.5 13.4 Z M 93.2 25.7 L 90.8 25.7 L 90.8 17.1 L 93.2 17.1 L 93.2 25.7 Z M 93.2 13.4 L 93.2 15.3 L 90.8 15.3 L 90.8 13.4 L 93.2 13.4 Z M 99.1 14.9 C 98.1 14.8 97.9 15.2 97.9 16 C 97.88 16.03 97.9 17.1 97.9 17.1 L 99 17.1 L 99 18.5 L 97.9 18.5 L 97.9 25.7 L 95.5 25.7 L 95.5 18.5 L 94.4 18.5 L 94.4 17.1 C 94.4 17.1 95.5 17.07 95.5 17.1 C 95.5 14.6 95.3 13.3 98.2 13.3 C 98.5 13.3 98.8 13.3 99.1 13.3 C 99.1 13.3 99.1 14.9 99.1 14.9 Z M 104.5 20.4 C 104.5 19.6 104.5 18.4 103.4 18.4 C 102.3 18.4 102.3 19.7 102.3 20.4 C 102.3 20.4 104.5 20.4 104.5 20.4 Z M 102.3 21.7 C 102.3 22.8 102.3 24.3 103.4 24.3 C 104.2 24.3 104.4 23.5 104.4 22.8 C 104.4 22.8 106.8 22.8 106.8 22.8 C 106.8 23.7 106.5 24.5 105.9 25 C 105.4 25.5 104.5 25.8 103.4 25.8 C 100.3 25.8 99.9 23.9 99.9 21.3 C 99.9 18.9 100.2 16.9 103.4 16.9 C 106.6 16.9 107 19 106.9 21.7 C 106.9 21.7 102.3 21.7 102.3 21.7 Z " stroke="none" fill="#003c71"/>  </g></svg>