<?xml version="1.0" standalone="no"?><!DOCTYPE svg PUBLIC "-//W3C//DTD SVG 1.1//EN" "http://www.w3.org/Graphics/SVG/1.1/DTD/svg11.dtd"><svg xmlns="http://www.w3.org/2000/svg" version="1.1" width="197px" height="25.3px" viewBox="0 -5 197 25.3" style="top:-5px">  <desc>Screening period up to 1 month</desc>  <defs/>  <g id="Polygon194329">    <path d="M 4 11.5 C 1.1 11.5 0.6 9.8 0.7 7.8 C 0.7 7.8 3.1 7.8 3.1 7.8 C 3.1 8.9 3.1 9.8 4.4 9.8 C 5.2 9.8 5.6 9.3 5.6 8.5 C 5.6 6.5 0.8 6.4 0.8 3 C 0.8 1.2 1.7 -0.2 4.6 -0.2 C 6.9 -0.2 8 0.9 7.8 3.2 C 7.8 3.2 5.5 3.2 5.5 3.2 C 5.5 2.4 5.4 1.5 4.4 1.5 C 3.7 1.5 3.2 2 3.2 2.7 C 3.2 4.9 8 4.7 8 8.2 C 8 11.1 5.8 11.5 4 11.5 Z M 13.6 6.2 C 13.6 5.1 13.3 4.7 12.6 4.7 C 11.6 4.7 11.6 5.5 11.6 7.1 C 11.6 9.5 11.8 10.1 12.6 10.1 C 13.3 10.1 13.6 9.4 13.6 8.4 C 13.6 8.4 15.8 8.4 15.8 8.4 C 15.8 10.5 14.6 11.5 12.6 11.5 C 9.7 11.5 9.4 9.7 9.4 7.3 C 9.4 5.1 9.7 3.3 12.6 3.3 C 14.6 3.3 15.8 4.2 15.8 6.2 C 15.8 6.2 13.6 6.2 13.6 6.2 Z M 19.4 3.4 L 19.4 4.4 C 19.4 4.4 19.48 4.43 19.5 4.4 C 19.9 3.5 20.6 3.3 21.5 3.3 C 21.5 3.3 21.5 5.2 21.5 5.2 C 19.6 5.1 19.6 6.2 19.6 7 C 19.56 7.01 19.6 11.3 19.6 11.3 L 17.4 11.3 L 17.4 3.4 L 19.4 3.4 Z M 26.6 6.5 C 26.6 5.7 26.6 4.6 25.6 4.6 C 24.6 4.6 24.6 5.8 24.6 6.5 C 24.6 6.5 26.6 6.5 26.6 6.5 Z M 24.6 7.7 C 24.6 8.6 24.6 10.1 25.6 10.1 C 26.4 10.1 26.5 9.3 26.5 8.6 C 26.5 8.6 28.8 8.6 28.8 8.6 C 28.7 9.5 28.4 10.2 27.9 10.7 C 27.4 11.2 26.6 11.5 25.6 11.5 C 22.7 11.5 22.4 9.7 22.4 7.3 C 22.4 5.1 22.7 3.3 25.6 3.3 C 28.5 3.3 28.9 5.2 28.8 7.7 C 28.8 7.7 24.6 7.7 24.6 7.7 Z M 34.4 6.5 C 34.4 5.7 34.4 4.6 33.4 4.6 C 32.4 4.6 32.4 5.8 32.4 6.5 C 32.4 6.5 34.4 6.5 34.4 6.5 Z M 32.4 7.7 C 32.4 8.6 32.4 10.1 33.4 10.1 C 34.2 10.1 34.3 9.3 34.3 8.6 C 34.3 8.6 36.6 8.6 36.6 8.6 C 36.5 9.5 36.2 10.2 35.7 10.7 C 35.2 11.2 34.4 11.5 33.4 11.5 C 30.5 11.5 30.2 9.7 30.2 7.3 C 30.2 5.1 30.5 3.3 33.4 3.3 C 36.4 3.3 36.7 5.2 36.6 7.7 C 36.6 7.7 32.4 7.7 32.4 7.7 Z M 40.4 4.2 C 40.4 4.2 40.4 4.22 40.4 4.2 C 40.6 3.9 40.9 3.6 41.2 3.5 C 41.5 3.3 41.9 3.3 42.3 3.3 C 43.3 3.3 44.2 3.9 44.2 5 C 44.22 4.98 44.2 11.3 44.2 11.3 L 42 11.3 C 42 11.3 42.02 5.87 42 5.9 C 42 5.2 41.9 4.6 41.2 4.6 C 40.5 4.6 40.4 5.2 40.4 5.9 C 40.37 5.87 40.4 11.3 40.4 11.3 L 38.2 11.3 L 38.2 3.4 L 40.4 3.4 L 40.4 4.2 Z M 48.4 11.3 L 46.2 11.3 L 46.2 3.4 L 48.4 3.4 L 48.4 11.3 Z M 48.4 0 L 48.4 1.8 L 46.2 1.8 L 46.2 0 L 48.4 0 Z M 52.5 4.2 C 52.5 4.2 52.54 4.22 52.5 4.2 C 52.8 3.9 53 3.6 53.3 3.5 C 53.6 3.3 54 3.3 54.4 3.3 C 55.4 3.3 56.4 3.9 56.4 5 C 56.37 4.98 56.4 11.3 56.4 11.3 L 54.2 11.3 C 54.2 11.3 54.17 5.87 54.2 5.9 C 54.2 5.2 54 4.6 53.3 4.6 C 52.6 4.6 52.5 5.2 52.5 5.9 C 52.51 5.87 52.5 11.3 52.5 11.3 L 50.3 11.3 L 50.3 3.4 L 52.5 3.4 L 52.5 4.2 Z M 61 9.8 C 61.8 9.8 61.9 9 61.9 7.3 C 61.9 5.6 61.9 4.6 61.1 4.6 C 60.2 4.6 60.1 5.2 60.1 7.6 C 60.1 8.3 60 9.8 61 9.8 Z M 64.1 3.4 C 64.1 3.4 64.14 11.63 64.1 11.6 C 64.1 12.2 64.2 14.3 61.1 14.3 C 59.5 14.3 58.1 13.9 58.1 12 C 58.1 12 60.2 12 60.2 12 C 60.2 12.3 60.3 12.6 60.4 12.8 C 60.5 13 60.8 13.1 61.1 13.1 C 61.7 13.1 61.9 12.6 61.9 11.8 C 61.94 11.79 61.9 10.3 61.9 10.3 C 61.9 10.3 61.91 10.27 61.9 10.3 C 61.6 10.9 61 11.2 60.2 11.2 C 57.8 11.2 57.9 9 57.9 7.2 C 57.9 5.5 58 3.3 60.3 3.3 C 61 3.3 61.7 3.6 62 4.3 C 62.02 4.34 62.1 4.3 62.1 4.3 L 62.1 3.4 L 64.1 3.4 Z M 73.4 7.3 C 73.4 5.7 73.4 4.6 72.5 4.6 C 71.6 4.6 71.6 5.7 71.6 7.3 C 71.6 9.3 71.7 10.1 72.5 10.1 C 73.3 10.1 73.4 9.3 73.4 7.3 Z M 71.5 3.4 L 71.5 4.3 C 71.5 4.3 71.51 4.29 71.5 4.3 C 71.9 3.5 72.5 3.3 73.4 3.3 C 75.6 3.3 75.6 5.8 75.6 7.4 C 75.6 9 75.6 11.5 73.4 11.5 C 72.6 11.5 72.1 11.2 71.6 10.6 C 71.62 10.55 71.6 10.6 71.6 10.6 L 71.6 14.7 L 69.4 14.7 L 69.4 3.4 L 71.5 3.4 Z M 81.2 6.5 C 81.2 5.7 81.3 4.6 80.2 4.6 C 79.2 4.6 79.2 5.8 79.2 6.5 C 79.2 6.5 81.2 6.5 81.2 6.5 Z M 79.2 7.7 C 79.2 8.6 79.3 10.1 80.2 10.1 C 81 10.1 81.2 9.3 81.2 8.6 C 81.2 8.6 83.4 8.6 83.4 8.6 C 83.4 9.5 83.1 10.2 82.5 10.7 C 82 11.2 81.3 11.5 80.2 11.5 C 77.4 11.5 77 9.7 77 7.3 C 77 5.1 77.3 3.3 80.2 3.3 C 83.2 3.3 83.5 5.2 83.4 7.7 C 83.4 7.7 79.2 7.7 79.2 7.7 Z M 87.1 3.4 L 87.1 4.4 C 87.1 4.4 87.12 4.43 87.1 4.4 C 87.5 3.5 88.3 3.3 89.2 3.3 C 89.2 3.3 89.2 5.2 89.2 5.2 C 87.2 5.1 87.2 6.2 87.2 7 C 87.2 7.01 87.2 11.3 87.2 11.3 L 85 11.3 L 85 3.4 L 87.1 3.4 Z M 92.6 11.3 L 90.4 11.3 L 90.4 3.4 L 92.6 3.4 L 92.6 11.3 Z M 92.6 0 L 92.6 1.8 L 90.4 1.8 L 90.4 0 L 92.6 0 Z M 98.6 7.1 C 98.6 5.5 98.5 4.7 97.6 4.7 C 96.6 4.7 96.5 5.5 96.5 7.1 C 96.5 9.5 96.7 10.1 97.6 10.1 C 98.4 10.1 98.6 9.5 98.6 7.1 Z M 94.3 7.3 C 94.3 5.1 94.7 3.3 97.6 3.3 C 100.5 3.3 100.8 5.1 100.8 7.3 C 100.8 9.7 100.4 11.5 97.6 11.5 C 94.7 11.5 94.3 9.7 94.3 7.3 Z M 106.2 7.3 C 106.2 5.7 106.2 4.6 105.3 4.6 C 104.3 4.6 104.3 5.7 104.3 7.3 C 104.3 9.3 104.5 10.1 105.3 10.1 C 106 10.1 106.2 9.3 106.2 7.3 Z M 106.3 11.3 L 106.3 10.4 C 106.3 10.4 106.24 10.43 106.2 10.4 C 105.8 11.2 105.2 11.5 104.4 11.5 C 102.1 11.5 102.2 8.9 102.2 7.3 C 102.2 5.7 102.1 3.3 104.3 3.3 C 105.1 3.3 105.7 3.5 106.1 4.2 C 106.13 4.17 106.2 4.2 106.2 4.2 L 106.2 0 L 108.4 0 L 108.4 11.3 L 106.3 11.3 Z M 117.5 10.5 C 117.5 10.5 117.43 10.5 117.4 10.5 C 117.2 10.8 117 11.1 116.7 11.2 C 116.3 11.4 116 11.5 115.6 11.5 C 114.5 11.5 113.6 10.8 113.6 9.7 C 113.61 9.74 113.6 3.4 113.6 3.4 L 115.8 3.4 C 115.8 3.4 115.81 8.88 115.8 8.9 C 115.8 9.6 115.9 10.1 116.6 10.1 C 117.3 10.1 117.5 9.6 117.5 8.9 C 117.47 8.88 117.5 3.4 117.5 3.4 L 119.7 3.4 C 119.7 3.4 119.66 9.74 119.7 9.7 C 119.7 10.3 119.7 10.8 119.7 11.3 C 119.74 11.3 117.5 11.3 117.5 11.3 L 117.5 10.5 Z M 125.4 7.3 C 125.4 5.7 125.5 4.6 124.5 4.6 C 123.6 4.6 123.6 5.7 123.6 7.3 C 123.6 9.3 123.8 10.1 124.5 10.1 C 125.3 10.1 125.4 9.3 125.4 7.3 Z M 123.5 3.4 L 123.5 4.3 C 123.5 4.3 123.54 4.29 123.5 4.3 C 123.9 3.5 124.6 3.3 125.4 3.3 C 127.7 3.3 127.6 5.8 127.6 7.4 C 127.6 9 127.7 11.5 125.4 11.5 C 124.6 11.5 124.1 11.2 123.6 10.6 C 123.65 10.55 123.6 10.6 123.6 10.6 L 123.6 14.7 L 121.4 14.7 L 121.4 3.4 L 123.5 3.4 Z M 131.8 3.4 L 132.7 3.4 L 132.7 2.2 L 134.9 1.2 L 134.9 3.4 L 136 3.4 L 136 4.8 L 134.9 4.8 C 134.9 4.8 134.88 8.99 134.9 9 C 134.9 9.6 134.9 10 135.6 10 C 135.7 10 135.9 10 136 9.9 C 136 9.9 136 11.3 136 11.3 C 135.7 11.3 135.4 11.4 134.8 11.4 C 132.9 11.4 132.7 10.1 132.7 9.6 C 132.68 9.63 132.7 4.8 132.7 4.8 L 131.8 4.8 L 131.8 3.4 Z M 141.1 7.1 C 141.1 5.5 141 4.7 140.1 4.7 C 139.1 4.7 139 5.5 139 7.1 C 139 9.5 139.2 10.1 140.1 10.1 C 140.9 10.1 141.1 9.5 141.1 7.1 Z M 136.8 7.3 C 136.8 5.1 137.1 3.3 140.1 3.3 C 143 3.3 143.3 5.1 143.3 7.3 C 143.3 9.7 142.9 11.5 140.1 11.5 C 137.2 11.5 136.8 9.7 136.8 7.3 Z M 148.2 2.1 C 149 1.7 149.7 1.1 150.3 0.4 C 150.29 0.41 152.4 0.4 152.4 0.4 L 152.4 11.3 L 150 11.3 C 150 11.3 150.03 2.92 150 2.9 C 149.5 3.4 148.8 3.8 148.2 4.1 C 148.2 4.1 148.2 2.1 148.2 2.1 Z M 160.7 4.2 C 160.7 4.2 160.75 4.21 160.7 4.2 C 161.2 3.5 161.8 3.3 162.6 3.3 C 163.4 3.3 164 3.6 164.4 4.3 C 164.9 3.6 165.5 3.3 166.4 3.3 C 167.5 3.3 168.4 3.9 168.4 5 C 168.38 4.98 168.4 11.3 168.4 11.3 L 166.2 11.3 C 166.2 11.3 166.18 5.87 166.2 5.9 C 166.2 5.2 166.1 4.6 165.4 4.6 C 164.7 4.6 164.5 5.2 164.5 5.9 C 164.53 5.87 164.5 11.3 164.5 11.3 L 162.4 11.3 C 162.4 11.3 162.37 5.87 162.4 5.9 C 162.4 5.2 162.2 4.6 161.5 4.6 C 160.8 4.6 160.7 5.2 160.7 5.9 C 160.72 5.87 160.7 11.3 160.7 11.3 L 158.5 11.3 L 158.5 3.4 L 160.7 3.4 L 160.7 4.2 Z M 174 7.1 C 174 5.5 173.9 4.7 173 4.7 C 172.1 4.7 172 5.5 172 7.1 C 172 9.5 172.2 10.1 173 10.1 C 173.8 10.1 174 9.5 174 7.1 Z M 169.8 7.3 C 169.8 5.1 170.1 3.3 173 3.3 C 175.9 3.3 176.2 5.1 176.2 7.3 C 176.2 9.7 175.8 11.5 173 11.5 C 170.1 11.5 169.8 9.7 169.8 7.3 Z M 180 4.2 C 180 4.2 180 4.22 180 4.2 C 180.2 3.9 180.5 3.6 180.8 3.5 C 181.1 3.3 181.4 3.3 181.9 3.3 C 182.9 3.3 183.8 3.9 183.8 5 C 183.82 4.98 183.8 11.3 183.8 11.3 L 181.6 11.3 C 181.6 11.3 181.62 5.87 181.6 5.9 C 181.6 5.2 181.5 4.6 180.8 4.6 C 180.1 4.6 180 5.2 180 5.9 C 179.96 5.87 180 11.3 180 11.3 L 177.8 11.3 L 177.8 3.4 L 180 3.4 L 180 4.2 Z M 184.7 3.4 L 185.6 3.4 L 185.6 2.2 L 187.8 1.2 L 187.8 3.4 L 188.9 3.4 L 188.9 4.8 L 187.8 4.8 C 187.8 4.8 187.77 8.99 187.8 9 C 187.8 9.6 187.8 10 188.5 10 C 188.6 10 188.8 10 188.9 9.9 C 188.9 9.9 188.9 11.3 188.9 11.3 C 188.6 11.3 188.3 11.4 187.7 11.4 C 185.8 11.4 185.6 10.1 185.6 9.6 C 185.57 9.63 185.6 4.8 185.6 4.8 L 184.7 4.8 L 184.7 3.4 Z M 193.8 11.3 C 193.8 11.3 193.77 5.87 193.8 5.9 C 193.8 5.2 193.6 4.6 192.9 4.6 C 192.2 4.6 192.1 5.2 192.1 5.9 C 192.11 5.87 192.1 11.3 192.1 11.3 L 189.9 11.3 L 189.9 0 L 192.1 0 L 192.1 4.2 C 192.1 4.2 192.14 4.22 192.1 4.2 C 192.4 3.9 192.6 3.6 192.9 3.5 C 193.2 3.3 193.6 3.3 194 3.3 C 195 3.3 196 3.9 196 5 C 195.96 4.98 196 11.3 196 11.3 L 193.8 11.3 Z " stroke="none" fill="#003c71"/>  </g></svg>