<?xml version="1.0" standalone="no"?><!DOCTYPE svg PUBLIC "-//W3C//DTD SVG 1.1//EN" "http://www.w3.org/Graphics/SVG/1.1/DTD/svg11.dtd"><svg xmlns="http://www.w3.org/2000/svg" version="1.1" width="152px" height="39px" viewBox="0 -1 152 39" style="top:-1px">  <desc>HAE AND ANDEMBRY®</desc>  <defs/>  <g id="Polygon196744">    <path d="M 17.8 9.5 L 19.6 9.5 L 19.6 15.1 L 22 15.1 L 22 9.5 L 23.8 9.5 L 23.8 22.5 L 22 22.5 L 22 16.6 L 19.6 16.6 L 19.6 22.5 L 17.8 22.5 L 17.8 9.5 Z M 27.6 9.5 L 29.6 9.5 L 32.3 22.5 L 30.5 22.5 L 29.9 19.2 L 27.1 19.2 L 26.5 22.5 L 24.7 22.5 L 27.6 9.5 Z M 27.4 17.7 L 29.6 17.7 L 28.5 11.4 L 28.5 11.4 L 27.4 17.7 Z M 33.2 9.5 L 38 9.5 L 38 11 L 35 11 L 35 15.1 L 37.9 15.1 L 37.9 16.6 L 35 16.6 L 35 21 L 38 21 L 38 22.5 L 33.2 22.5 L 33.2 9.5 Z M 43.9 9.5 L 46 9.5 L 48.6 22.5 L 46.8 22.5 L 46.2 19.2 L 43.4 19.2 L 42.8 22.5 L 41 22.5 L 43.9 9.5 Z M 43.7 17.7 L 46 17.7 L 44.9 11.4 L 44.8 11.4 L 43.7 17.7 Z M 49.5 9.5 L 52 9.5 L 54.1 20.3 L 54.1 20.3 L 54.1 9.5 L 55.8 9.5 L 55.8 22.5 L 53.2 22.5 L 51.1 11.4 L 51.1 11.4 L 51.1 22.5 L 49.5 22.5 L 49.5 9.5 Z M 59 21 C 59 21 59.83 21 59.8 21 C 61.2 21 61.4 20.3 61.4 18.1 C 61.4 18.1 61.4 13.6 61.4 13.6 C 61.4 11.7 61.2 11 59.7 11 C 59.68 11.03 59 11 59 11 L 59 21 Z M 57.2 9.5 C 57.2 9.5 60.06 9.52 60.1 9.5 C 63 9.5 63.2 10.5 63.2 14.3 C 63.2 14.3 63.2 18.1 63.2 18.1 C 63.2 21.5 62.6 22.5 59.8 22.5 C 59.77 22.52 57.2 22.5 57.2 22.5 L 57.2 9.5 Z M 69.6 9.5 L 71.7 9.5 L 74.3 22.5 L 72.5 22.5 L 71.9 19.2 L 69.1 19.2 L 68.5 22.5 L 66.7 22.5 L 69.6 9.5 Z M 69.4 17.7 L 71.7 17.7 L 70.5 11.4 L 70.5 11.4 L 69.4 17.7 Z M 75.2 9.5 L 77.6 9.5 L 79.8 20.3 L 79.8 20.3 L 79.8 9.5 L 81.5 9.5 L 81.5 22.5 L 78.9 22.5 L 76.8 11.4 L 76.7 11.4 L 76.7 22.5 L 75.2 22.5 L 75.2 9.5 Z M 84.6 21 C 84.6 21 85.5 21 85.5 21 C 86.8 21 87.1 20.3 87.1 18.1 C 87.1 18.1 87.1 13.6 87.1 13.6 C 87.1 11.7 86.9 11 85.4 11 C 85.35 11.03 84.6 11 84.6 11 L 84.6 21 Z M 82.8 9.5 C 82.8 9.5 85.73 9.52 85.7 9.5 C 88.6 9.5 88.9 10.5 88.9 14.3 C 88.9 14.3 88.9 18.1 88.9 18.1 C 88.9 21.5 88.3 22.5 85.4 22.5 C 85.44 22.52 82.8 22.5 82.8 22.5 L 82.8 9.5 Z M 90.2 9.5 L 95.1 9.5 L 95.1 11 L 92 11 L 92 15.1 L 94.9 15.1 L 94.9 16.6 L 92 16.6 L 92 21 L 95.1 21 L 95.1 22.5 L 90.2 22.5 L 90.2 9.5 Z M 95.8 9.5 L 98.7 9.5 L 100.3 19.4 L 100.4 19.4 L 102 9.5 L 104.8 9.5 L 104.8 22.5 L 103.1 22.5 L 103.1 10.8 L 103.1 10.8 L 101.3 22.5 L 99.5 22.5 L 97.4 10.8 L 97.4 10.8 L 97.4 22.5 L 95.8 22.5 L 95.8 9.5 Z M 106.2 9.5 C 106.2 9.5 109.29 9.52 109.3 9.5 C 111.5 9.5 111.9 10.3 111.9 12.7 C 111.9 15.2 111.5 15.6 110.2 15.8 C 110.2 15.8 110.2 15.8 110.2 15.8 C 111.7 16.1 112 16.6 112 18.8 C 112 21.6 111.6 22.5 109 22.5 C 108.99 22.52 106.2 22.5 106.2 22.5 L 106.2 9.5 Z M 108 21.1 C 108 21.1 109.08 21.11 109.1 21.1 C 110.1 21.1 110.3 20.8 110.3 18.8 C 110.3 16.8 110.1 16.5 109.1 16.5 C 109.13 16.5 108 16.5 108 16.5 L 108 21.1 Z M 108 15.1 C 108 15.1 109 15.1 109 15.1 C 110.1 15.1 110.2 14.9 110.2 12.8 C 110.2 11.3 110 10.9 108.8 10.9 C 108.81 10.92 108 10.9 108 10.9 L 108 15.1 Z M 113.2 9.5 C 113.2 9.5 115.95 9.52 116 9.5 C 118.6 9.5 118.8 10.2 118.8 13.1 C 118.8 14.8 118.6 15.6 117.1 16 C 117.1 16 117.1 16.1 117.1 16.1 C 118.4 16.2 118.8 16.8 118.8 18 C 118.8 18 118.8 20.9 118.8 20.9 C 118.8 21.3 118.8 22 118.9 22.5 C 118.9 22.5 117.2 22.5 117.2 22.5 C 117 22.2 117 21.9 117 21.3 C 117 21.3 117 18.4 117 18.4 C 117 17.2 116.8 16.9 115.6 16.9 C 115.57 16.86 115 16.9 115 16.9 L 115 22.5 L 113.2 22.5 L 113.2 9.5 Z M 115 15.4 C 115 15.4 115.43 15.35 115.4 15.4 C 116.9 15.4 117 15.1 117 13.1 C 117 11.2 116.9 11 115.8 11 C 115.83 11.03 115 11 115 11 L 115 15.4 Z M 119 9.5 L 120.8 9.5 L 122.3 15 L 122.4 15 L 124.2 9.5 L 125.8 9.5 L 123.3 17.2 L 123.3 22.5 L 121.5 22.5 L 121.5 17.2 L 119 9.5 Z M 130.2 8.9 C 132.4 8.9 134.1 10.6 134.1 12.7 C 134.1 14.9 132.4 16.6 130.2 16.6 C 128.1 16.6 126.4 14.9 126.4 12.7 C 126.4 10.6 128.1 8.9 130.2 8.9 Z M 130.2 15.8 C 131.9 15.8 133.3 14.5 133.3 12.7 C 133.3 11 131.9 9.6 130.2 9.6 C 128.5 9.6 127.2 11 127.2 12.7 C 127.2 14.5 128.5 15.8 130.2 15.8 Z M 130 13 L 129.3 13 L 129.3 14.9 L 128.6 14.9 L 128.6 10.5 C 128.6 10.5 130.28 10.53 130.3 10.5 C 131.4 10.5 131.9 10.9 131.9 11.8 C 131.9 12.6 131.4 12.9 130.8 13 C 130.82 12.95 132 14.9 132 14.9 L 131.2 14.9 L 130 13 Z M 130.1 12.4 C 130.6 12.4 131.1 12.3 131.1 11.7 C 131.1 11.2 130.6 11.2 130.2 11.2 C 130.16 11.16 129.3 11.2 129.3 11.2 L 129.3 12.4 C 129.3 12.4 130.09 12.4 130.1 12.4 Z " stroke="none" fill="#fff"/>  </g></svg>