<?xml version="1.0" standalone="no"?><!DOCTYPE svg PUBLIC "-//W3C//DTD SVG 1.1//EN" "http://www.w3.org/Graphics/SVG/1.1/DTD/svg11.dtd"><svg xmlns="http://www.w3.org/2000/svg" version="1.1" width="305.4px" height="122.3px" viewBox="0 -4 305.4 122.3" style="top:-4px">  <desc>* Injection site reactions include erythema, bruising, and pruritus. There were no reports of injection site pain dur...</desc>  <defs/>  <g id="Polygon201662">    <path d="M 8.9 101.3 C 8.9 99.7 8.4 99.3 7.7 99.3 C 6.9 99.3 6.4 99.7 6.4 101.3 C 6.4 103.3 6.6 104 7.7 104 C 8.7 104 8.9 103.3 8.9 101.3 Z M 5.4 101.7 C 5.4 100 5.6 98.5 7.7 98.5 C 9.8 98.5 10 100 10 101.7 C 10 104.4 8.9 104.8 7.7 104.8 C 6.4 104.8 5.4 104.4 5.4 101.7 Z M 10.8 98.6 L 11.9 98.6 L 13.3 103.8 L 13.3 103.8 L 14.8 98.6 L 15.8 98.6 L 13.9 104.7 L 12.6 104.7 L 10.8 98.6 Z M 20.2 101.2 C 20.2 99.5 19.7 99.3 19 99.3 C 18.3 99.3 17.8 99.6 17.8 101.2 C 17.8 101.2 20.2 101.2 20.2 101.2 Z M 17.8 102 C 17.8 103.7 18.3 104 19 104 C 19.7 104 20.1 103.5 20.1 102.9 C 20.1 102.9 21.2 102.9 21.2 102.9 C 21.2 104.2 20.3 104.8 19.1 104.8 C 17.8 104.8 16.8 104.4 16.8 101.7 C 16.8 100 17 98.5 19.1 98.5 C 20.8 98.5 21.2 99.5 21.2 101.5 C 21.22 101.46 21.2 102 21.2 102 C 21.2 102 17.81 101.98 17.8 102 Z M 23.9 99.5 C 23.9 99.5 23.89 99.54 23.9 99.5 C 24.3 98.6 24.8 98.5 25.8 98.5 C 25.8 98.5 25.8 99.5 25.8 99.5 C 25.7 99.5 25.6 99.5 25.5 99.5 C 25.4 99.5 25.3 99.5 25.2 99.5 C 24.1 99.5 23.9 100.3 23.9 101.1 C 23.87 101.11 23.9 104.7 23.9 104.7 L 22.9 104.7 L 22.9 98.6 L 23.9 98.6 L 23.9 99.5 Z M 30.1 104.7 C 30.1 104.7 30.14 100.49 30.1 100.5 C 30.1 99.8 29.9 99.3 29.1 99.3 C 28 99.3 27.8 100.3 27.8 101.1 C 27.83 101.1 27.8 104.7 27.8 104.7 L 26.8 104.7 C 26.8 104.7 26.85 99.89 26.8 99.9 C 26.8 99.5 26.8 99 26.8 98.6 C 26.79 98.63 27.8 98.6 27.8 98.6 L 27.8 99.4 C 27.8 99.4 27.88 99.41 27.9 99.4 C 28.3 98.7 28.7 98.5 29.5 98.5 C 30.8 98.5 31.1 99.3 31.1 100.5 C 31.12 100.49 31.1 104.7 31.1 104.7 L 30.1 104.7 Z M 33.8 104.7 L 32.8 104.7 L 32.8 98.6 L 33.8 98.6 L 33.8 104.7 Z M 32.8 96 L 33.9 96 L 33.9 97.1 L 32.8 97.1 L 32.8 96 Z M 37.6 99.3 C 36.4 99.3 36.4 100.7 36.4 101.5 C 36.4 103.4 36.9 103.9 37.6 103.9 C 38.8 103.9 38.7 102.5 38.7 101.6 C 38.7 100.7 38.8 99.3 37.6 99.3 Z M 38.7 98.6 L 39.7 98.6 C 39.7 98.6 39.7 105.3 39.7 105.3 C 39.7 106.7 38.8 107 37.5 107 C 36.5 107 35.5 106.5 35.6 105.4 C 35.6 105.4 36.7 105.4 36.7 105.4 C 36.7 105.9 37.1 106.2 37.7 106.2 C 38.3 106.2 38.7 105.8 38.7 105.2 C 38.72 105.19 38.7 103.9 38.7 103.9 C 38.7 103.9 38.68 103.93 38.7 103.9 C 38.4 104.4 37.9 104.7 37.3 104.7 C 35.7 104.7 35.4 103.3 35.4 101.5 C 35.4 98.7 36.8 98.5 37.3 98.5 C 37.9 98.5 38.4 98.8 38.7 99.4 C 38.69 99.37 38.7 99.4 38.7 99.4 L 38.7 98.6 Z M 44.8 104.7 C 44.8 104.7 44.8 100.58 44.8 100.6 C 44.8 99.8 44.6 99.3 43.7 99.3 C 42.7 99.3 42.5 100.1 42.5 101.1 C 42.48 101.12 42.5 104.7 42.5 104.7 L 41.5 104.7 L 41.5 96 L 42.5 96 L 42.5 99.4 C 42.5 99.4 42.53 99.41 42.5 99.4 C 42.9 98.7 43.4 98.5 44.2 98.5 C 45.2 98.5 45.8 99 45.8 100.4 C 45.78 100.39 45.8 104.7 45.8 104.7 L 44.8 104.7 Z M 47.6 98.6 L 47.6 97.5 L 48.6 97 L 48.6 98.6 L 49.9 98.6 L 49.9 99.4 L 48.6 99.4 C 48.6 99.4 48.6 103.08 48.6 103.1 C 48.6 103.5 48.6 104 49.5 104 C 49.6 104 49.7 103.9 49.9 103.9 C 49.9 103.9 49.9 104.7 49.9 104.7 C 49.6 104.7 49.3 104.8 49 104.8 C 48 104.8 47.6 104.4 47.6 103.7 C 47.62 103.68 47.6 99.4 47.6 99.4 L 46.6 99.4 L 46.6 98.6 L 47.6 98.6 Z M 51.9 104.7 L 50.8 104.7 L 50.8 103.4 L 51.9 103.4 L 51.9 104.7 Z M 54.7 100.7 L 54 100.7 L 54 96.5 L 53.3 97 C 53.3 97 53.3 96.42 53.3 96.4 C 53.5 96.3 53.9 96 54.1 95.8 C 54.12 95.84 54.7 95.8 54.7 95.8 L 54.7 100.7 Z " stroke="none" fill="#555555"/>  </g>  <g id="Polygon201661">    <path d="M 6.4 86.9 C 6.4 87.5 6.7 88 7.4 88 C 8 88 8.7 87.6 8.6 85.7 C 7.7 85.7 6.4 85.6 6.4 86.9 Z M 8.6 87.8 C 8.6 87.8 8.62 87.81 8.6 87.8 C 8.3 88.5 7.9 88.8 7.1 88.8 C 5.8 88.8 5.4 88 5.4 86.8 C 5.4 85 7.2 84.9 8.6 84.9 C 8.6 84.1 8.7 83.3 7.6 83.3 C 6.9 83.3 6.6 83.7 6.7 84.3 C 6.7 84.3 5.6 84.3 5.6 84.3 C 5.6 83 6.4 82.5 7.6 82.5 C 9.2 82.5 9.6 83.3 9.6 84.3 C 9.6 84.3 9.6 87.2 9.6 87.2 C 9.6 87.7 9.7 88.2 9.7 88.7 C 9.72 88.69 8.6 88.7 8.6 88.7 L 8.6 87.8 Z M 14.4 82.6 C 14.4 82.6 14.37 81.45 14.4 81.5 C 14.4 80.2 15.2 80 16.1 80 C 16.3 80 16.4 80 16.6 80 C 16.6 80 16.6 80.7 16.6 80.7 C 15.5 80.7 15.4 81.1 15.4 81.6 C 15.35 81.6 15.4 82.6 15.4 82.6 L 16.6 82.6 L 16.6 83.4 L 15.4 83.4 L 15.4 88.7 L 14.4 88.7 L 14.4 83.4 L 13.4 83.4 L 13.4 82.6 L 14.4 82.6 Z M 20.8 82.6 L 21.7 82.6 C 21.7 82.6 21.75 87.43 21.7 87.4 C 21.7 87.8 21.8 88.3 21.8 88.7 C 21.81 88.69 20.8 88.7 20.8 88.7 L 20.8 88 C 20.8 88 20.73 87.96 20.7 88 C 20.4 88.5 19.8 88.8 19.2 88.8 C 18.1 88.8 17.6 88.3 17.6 87.2 C 17.56 87.25 17.6 82.6 17.6 82.6 L 18.5 82.6 C 18.5 82.6 18.54 86.83 18.5 86.8 C 18.5 87.6 18.9 88.1 19.6 88.1 C 20.1 88.1 20.8 87.7 20.8 86.6 C 20.76 86.65 20.8 82.6 20.8 82.6 Z M 24.5 88.7 L 23.5 88.7 L 23.5 80 L 24.5 80 L 24.5 88.7 Z M 27.1 88.7 L 26.2 88.7 L 26.2 80 L 27.1 80 L 27.1 88.7 Z M 32.5 83.5 C 32.5 83.5 32.56 83.54 32.6 83.5 C 33 82.6 33.5 82.5 34.4 82.5 C 34.4 82.5 34.4 83.5 34.4 83.5 C 34.3 83.5 34.2 83.5 34.2 83.5 C 34.1 83.5 34 83.5 33.9 83.5 C 32.8 83.5 32.5 84.3 32.5 85.1 C 32.53 85.11 32.5 88.7 32.5 88.7 L 31.6 88.7 L 31.6 82.6 L 32.5 82.6 L 32.5 83.5 Z M 38.8 85.2 C 38.8 83.5 38.3 83.3 37.6 83.3 C 37 83.3 36.5 83.6 36.5 85.2 C 36.5 85.2 38.8 85.2 38.8 85.2 Z M 36.5 86 C 36.5 87.7 36.9 88 37.7 88 C 38.4 88 38.7 87.5 38.8 86.9 C 38.8 86.9 39.8 86.9 39.8 86.9 C 39.8 88.2 39 88.8 37.7 88.8 C 36.4 88.8 35.4 88.4 35.4 85.7 C 35.4 84 35.6 82.5 37.7 82.5 C 39.4 82.5 39.9 83.5 39.9 85.5 C 39.88 85.46 39.9 86 39.9 86 C 39.9 86 36.47 85.98 36.5 86 Z M 44.7 84.6 C 44.7 83.6 44.2 83.3 43.8 83.3 C 43.1 83.3 42.6 83.7 42.6 85.3 C 42.6 87.3 42.8 88 43.8 88 C 44.1 88 44.8 87.8 44.7 86.7 C 44.7 86.7 45.7 86.7 45.7 86.7 C 45.8 88.4 44.5 88.8 43.8 88.8 C 42.6 88.8 41.5 88.4 41.5 85.7 C 41.5 84 41.7 82.5 43.8 82.5 C 45.1 82.5 45.8 83.2 45.7 84.6 C 45.7 84.6 44.7 84.6 44.7 84.6 Z M 50.9 85.3 C 50.9 83.7 50.4 83.3 49.6 83.3 C 48.9 83.3 48.4 83.7 48.4 85.3 C 48.4 87.3 48.6 88 49.6 88 C 50.7 88 50.9 87.3 50.9 85.3 Z M 47.3 85.7 C 47.3 84 47.5 82.5 49.6 82.5 C 51.7 82.5 51.9 84 51.9 85.7 C 51.9 88.4 50.9 88.8 49.6 88.8 C 48.4 88.8 47.3 88.4 47.3 85.7 Z M 52.8 82.6 L 53.9 82.6 L 55.3 87.8 L 55.3 87.8 L 56.8 82.6 L 57.8 82.6 L 55.9 88.7 L 54.6 88.7 L 52.8 82.6 Z M 62.2 85.2 C 62.2 83.5 61.7 83.3 61 83.3 C 60.3 83.3 59.8 83.6 59.8 85.2 C 59.8 85.2 62.2 85.2 62.2 85.2 Z M 59.8 86 C 59.8 87.7 60.3 88 61 88 C 61.7 88 62 87.5 62.1 86.9 C 62.1 86.9 63.2 86.9 63.2 86.9 C 63.1 88.2 62.3 88.8 61 88.8 C 59.8 88.8 58.7 88.4 58.7 85.7 C 58.7 84 58.9 82.5 61 82.5 C 62.8 82.5 63.2 83.5 63.2 85.5 C 63.21 85.46 63.2 86 63.2 86 C 63.2 86 59.8 85.98 59.8 86 Z M 65.9 83.5 C 65.9 83.5 65.88 83.54 65.9 83.5 C 66.3 82.6 66.8 82.5 67.8 82.5 C 67.8 82.5 67.8 83.5 67.8 83.5 C 67.7 83.5 67.6 83.5 67.5 83.5 C 67.4 83.5 67.3 83.5 67.2 83.5 C 66.1 83.5 65.9 84.3 65.9 85.1 C 65.86 85.11 65.9 88.7 65.9 88.7 L 64.9 88.7 L 64.9 82.6 L 65.9 82.6 L 65.9 83.5 Z M 70.7 87.6 L 70.7 87.6 L 72.1 82.6 L 73.2 82.6 L 70.5 91 L 69.4 91 L 70.1 88.7 L 68.1 82.6 L 69.2 82.6 L 70.7 87.6 Z M 77.7 86.9 C 77.7 87.5 78 88 78.7 88 C 79.3 88 80 87.6 79.9 85.7 C 79 85.7 77.7 85.6 77.7 86.9 Z M 79.9 87.8 C 79.9 87.8 79.92 87.81 79.9 87.8 C 79.6 88.5 79.2 88.8 78.4 88.8 C 77.1 88.8 76.7 88 76.7 86.8 C 76.7 85 78.5 84.9 79.9 84.9 C 79.9 84.1 80 83.3 78.9 83.3 C 78.2 83.3 77.9 83.7 78 84.3 C 78 84.3 76.9 84.3 76.9 84.3 C 76.9 83 77.7 82.5 78.9 82.5 C 80.5 82.5 80.9 83.3 80.9 84.3 C 80.9 84.3 80.9 87.2 80.9 87.2 C 80.9 87.7 81 88.2 81 88.7 C 81.02 88.69 79.9 88.7 79.9 88.7 L 79.9 87.8 Z M 86.1 88.7 C 86.1 88.7 86.11 84.49 86.1 84.5 C 86.1 83.8 85.9 83.3 85 83.3 C 84 83.3 83.8 84.3 83.8 85.1 C 83.81 85.1 83.8 88.7 83.8 88.7 L 82.8 88.7 C 82.8 88.7 82.83 83.89 82.8 83.9 C 82.8 83.5 82.8 83 82.8 82.6 C 82.77 82.63 83.8 82.6 83.8 82.6 L 83.8 83.4 C 83.8 83.4 83.86 83.41 83.9 83.4 C 84.2 82.7 84.7 82.5 85.5 82.5 C 86.8 82.5 87.1 83.3 87.1 84.5 C 87.1 84.49 87.1 88.7 87.1 88.7 L 86.1 88.7 Z M 90.9 83.3 C 89.8 83.3 89.7 84.2 89.7 85.8 C 89.7 86.7 89.7 88 90.9 88 C 92 88 92 86.6 92 85.4 C 92 84.6 92 83.3 90.9 83.3 Z M 92 80 L 93 80 L 93 88.7 L 92 88.7 L 92 88 C 92 88 92.01 87.97 92 88 C 91.7 88.5 91.2 88.8 90.6 88.8 C 89.6 88.8 88.7 88.4 88.7 85.8 C 88.7 84.2 88.7 82.5 90.7 82.5 C 91.2 82.5 91.7 82.8 92 83.2 C 91.99 83.24 92 83.2 92 83.2 L 92 80 Z M 96.7 82.6 L 97.8 82.6 L 98.9 87.8 L 98.9 87.8 L 100.3 82.6 L 101.7 82.6 L 102.9 87.8 L 102.9 87.8 L 104.1 82.6 L 105.2 82.6 L 103.6 88.7 L 102.2 88.7 L 100.9 83.5 L 100.9 83.5 L 99.6 88.7 L 98.2 88.7 L 96.7 82.6 Z M 107.1 86.9 C 107.1 87.5 107.3 88 108 88 C 108.6 88 109.3 87.6 109.3 85.7 C 108.3 85.7 107.1 85.6 107.1 86.9 Z M 109.3 87.8 C 109.3 87.8 109.25 87.81 109.3 87.8 C 108.9 88.5 108.5 88.8 107.7 88.8 C 106.4 88.8 106.1 88 106.1 86.8 C 106.1 85 107.9 84.9 109.3 84.9 C 109.3 84.1 109.3 83.3 108.2 83.3 C 107.6 83.3 107.2 83.7 107.3 84.3 C 107.3 84.3 106.2 84.3 106.2 84.3 C 106.3 83 107 82.5 108.3 82.5 C 109.8 82.5 110.2 83.3 110.2 84.3 C 110.2 84.3 110.2 87.2 110.2 87.2 C 110.2 87.7 110.3 88.2 110.4 88.7 C 110.35 88.69 109.3 88.7 109.3 88.7 L 109.3 87.8 Z M 113.9 88.8 C 112.6 88.8 111.8 88.2 111.9 86.8 C 111.9 86.8 113 86.8 113 86.8 C 113 87.2 113 88 114 88 C 114.6 88 115 87.7 115 87.1 C 115 86 112 86 112 84.2 C 112 83.5 112.4 82.5 114.1 82.5 C 115.2 82.5 116.1 83 116 84.2 C 116 84.2 114.9 84.2 114.9 84.2 C 114.9 83.6 114.6 83.3 114 83.3 C 113.4 83.3 113 83.5 113 84.1 C 113 85.1 116.1 85.1 116.1 87 C 116.1 88.3 115.1 88.8 113.9 88.8 Z M 121.1 88.7 L 120.1 88.7 L 120.1 80 L 121.1 80 L 121.1 85.2 L 121.2 85.2 L 123 82.6 L 124.2 82.6 L 122.2 85.2 L 124.6 88.7 L 123.3 88.7 L 121.2 85.3 L 121.1 85.3 L 121.1 88.7 Z M 128.8 85.2 C 128.8 83.5 128.3 83.3 127.6 83.3 C 127 83.3 126.4 83.6 126.4 85.2 C 126.4 85.2 128.8 85.2 128.8 85.2 Z M 126.4 86 C 126.4 87.7 126.9 88 127.7 88 C 128.3 88 128.7 87.5 128.7 86.9 C 128.7 86.9 129.8 86.9 129.8 86.9 C 129.8 88.2 129 88.8 127.7 88.8 C 126.4 88.8 125.4 88.4 125.4 85.7 C 125.4 84 125.6 82.5 127.7 82.5 C 129.4 82.5 129.8 83.5 129.8 85.5 C 129.84 85.46 129.8 86 129.8 86 C 129.8 86 126.43 85.98 126.4 86 Z M 134.9 85.6 C 134.9 84.6 134.9 83.3 133.6 83.3 C 132.4 83.3 132.5 85 132.5 85.9 C 132.5 86.7 132.6 88 133.7 88 C 134.7 88 134.9 87.2 134.9 85.6 Z M 132.5 83.3 C 132.5 83.3 132.56 83.35 132.6 83.3 C 132.9 82.8 133.3 82.5 134 82.5 C 134.9 82.5 135.9 82.9 135.9 85.6 C 135.9 87.1 135.9 88.8 133.9 88.8 C 133.3 88.8 132.9 88.6 132.6 88.1 C 132.58 88.08 132.5 88.1 132.5 88.1 L 132.5 91 L 131.6 91 L 131.6 82.6 L 132.5 82.6 L 132.5 83.3 Z M 137.6 82.6 L 137.6 81.5 L 138.6 81 L 138.6 82.6 L 139.9 82.6 L 139.9 83.4 L 138.6 83.4 C 138.6 83.4 138.56 87.08 138.6 87.1 C 138.6 87.5 138.6 88 139.5 88 C 139.5 88 139.7 87.9 139.9 87.9 C 139.9 87.9 139.9 88.7 139.9 88.7 C 139.6 88.7 139.3 88.8 138.9 88.8 C 138 88.8 137.6 88.4 137.6 87.7 C 137.58 87.68 137.6 83.4 137.6 83.4 L 136.6 83.4 L 136.6 82.6 L 137.6 82.6 Z M 146.7 82.6 L 147.7 82.6 C 147.7 82.6 147.7 87.43 147.7 87.4 C 147.7 87.8 147.7 88.3 147.8 88.7 C 147.76 88.69 146.7 88.7 146.7 88.7 L 146.7 88 C 146.7 88 146.68 87.96 146.7 88 C 146.4 88.5 145.8 88.8 145.1 88.8 C 144.1 88.8 143.5 88.3 143.5 87.2 C 143.51 87.25 143.5 82.6 143.5 82.6 L 144.5 82.6 C 144.5 82.6 144.49 86.83 144.5 86.8 C 144.5 87.6 144.8 88.1 145.5 88.1 C 146.1 88.1 146.7 87.7 146.7 86.6 C 146.71 86.65 146.7 82.6 146.7 82.6 Z M 152.8 88.7 C 152.8 88.7 152.76 84.49 152.8 84.5 C 152.8 83.8 152.5 83.3 151.7 83.3 C 150.6 83.3 150.5 84.3 150.5 85.1 C 150.46 85.1 150.5 88.7 150.5 88.7 L 149.5 88.7 C 149.5 88.7 149.47 83.89 149.5 83.9 C 149.5 83.5 149.4 83 149.4 82.6 C 149.41 82.63 150.5 82.6 150.5 82.6 L 150.5 83.4 C 150.5 83.4 150.5 83.41 150.5 83.4 C 150.9 82.7 151.3 82.5 152.1 82.5 C 153.4 82.5 153.7 83.3 153.7 84.5 C 153.74 84.49 153.7 88.7 153.7 88.7 L 152.8 88.7 Z M 157.5 83.3 C 156.5 83.3 156.3 84.2 156.3 85.8 C 156.3 86.7 156.3 88 157.6 88 C 158.7 88 158.7 86.6 158.7 85.4 C 158.7 84.6 158.6 83.3 157.5 83.3 Z M 158.7 80 L 159.7 80 L 159.7 88.7 L 158.7 88.7 L 158.7 88 C 158.7 88 158.65 87.97 158.7 88 C 158.3 88.5 157.9 88.8 157.3 88.8 C 156.3 88.8 155.3 88.4 155.3 85.8 C 155.3 84.2 155.4 82.5 157.3 82.5 C 157.9 82.5 158.3 82.8 158.6 83.2 C 158.64 83.24 158.7 83.2 158.7 83.2 L 158.7 80 Z M 164.8 85.2 C 164.8 83.5 164.3 83.3 163.6 83.3 C 163 83.3 162.4 83.6 162.4 85.2 C 162.4 85.2 164.8 85.2 164.8 85.2 Z M 162.4 86 C 162.4 87.7 162.9 88 163.7 88 C 164.3 88 164.7 87.5 164.7 86.9 C 164.7 86.9 165.8 86.9 165.8 86.9 C 165.8 88.2 165 88.8 163.7 88.8 C 162.4 88.8 161.4 88.4 161.4 85.7 C 161.4 84 161.6 82.5 163.7 82.5 C 165.4 82.5 165.8 83.5 165.8 85.5 C 165.84 85.46 165.8 86 165.8 86 C 165.8 86 162.43 85.98 162.4 86 Z M 168.5 83.5 C 168.5 83.5 168.52 83.54 168.5 83.5 C 168.9 82.6 169.4 82.5 170.4 82.5 C 170.4 82.5 170.4 83.5 170.4 83.5 C 170.3 83.5 170.2 83.5 170.1 83.5 C 170 83.5 170 83.5 169.9 83.5 C 168.8 83.5 168.5 84.3 168.5 85.1 C 168.49 85.11 168.5 88.7 168.5 88.7 L 167.5 88.7 L 167.5 82.6 L 168.5 82.6 L 168.5 83.5 Z M 177.4 88.7 C 177.4 88.7 177.42 84.58 177.4 84.6 C 177.4 83.8 177.2 83.3 176.3 83.3 C 175.4 83.3 175.1 84.1 175.1 85.1 C 175.1 85.12 175.1 88.7 175.1 88.7 L 174.1 88.7 L 174.1 80 L 175.1 80 L 175.1 83.4 C 175.1 83.4 175.15 83.41 175.2 83.4 C 175.5 82.7 176 82.5 176.8 82.5 C 177.8 82.5 178.4 83 178.4 84.4 C 178.4 84.39 178.4 88.7 178.4 88.7 L 177.4 88.7 Z M 183.5 85.3 C 183.5 83.7 183 83.3 182.3 83.3 C 181.5 83.3 181 83.7 181 85.3 C 181 87.3 181.2 88 182.3 88 C 183.3 88 183.5 87.3 183.5 85.3 Z M 180 85.7 C 180 84 180.2 82.5 182.3 82.5 C 184.4 82.5 184.6 84 184.6 85.7 C 184.6 88.4 183.6 88.8 182.3 88.8 C 181 88.8 180 88.4 180 85.7 Z M 187.9 88.8 C 186.6 88.8 185.8 88.2 185.8 86.8 C 185.8 86.8 186.9 86.8 186.9 86.8 C 186.9 87.2 187 88 188 88 C 188.5 88 189 87.7 189 87.1 C 189 86 186 86 186 84.2 C 186 83.5 186.4 82.5 188.1 82.5 C 189.1 82.5 190.1 83 190 84.2 C 190 84.2 188.9 84.2 188.9 84.2 C 188.9 83.6 188.6 83.3 187.9 83.3 C 187.4 83.3 187 83.5 187 84.1 C 187 85.1 190 85.1 190 87 C 190 88.3 189.1 88.8 187.9 88.8 Z M 194.9 85.6 C 194.9 84.6 194.9 83.3 193.6 83.3 C 192.4 83.3 192.5 85 192.5 85.9 C 192.5 86.7 192.6 88 193.7 88 C 194.7 88 194.9 87.2 194.9 85.6 Z M 192.5 83.3 C 192.5 83.3 192.55 83.35 192.6 83.3 C 192.9 82.8 193.3 82.5 193.9 82.5 C 194.9 82.5 195.9 82.9 195.9 85.6 C 195.9 87.1 195.9 88.8 193.9 88.8 C 193.3 88.8 192.9 88.6 192.6 88.1 C 192.56 88.08 192.5 88.1 192.5 88.1 L 192.5 91 L 191.5 91 L 191.5 82.6 L 192.5 82.6 L 192.5 83.3 Z M 198.4 88.7 L 197.4 88.7 L 197.4 82.6 L 198.4 82.6 L 198.4 88.7 Z M 197.4 80 L 198.5 80 L 198.5 81.1 L 197.4 81.1 L 197.4 80 Z M 200.2 82.6 L 200.2 81.5 L 201.2 81 L 201.2 82.6 L 202.5 82.6 L 202.5 83.4 L 201.2 83.4 C 201.2 83.4 201.22 87.08 201.2 87.1 C 201.2 87.5 201.2 88 202.1 88 C 202.2 88 202.3 87.9 202.6 87.9 C 202.6 87.9 202.6 88.7 202.6 88.7 C 202.2 88.7 201.9 88.8 201.6 88.8 C 200.7 88.8 200.2 88.4 200.2 87.7 C 200.23 87.68 200.2 83.4 200.2 83.4 L 199.2 83.4 L 199.2 82.6 L 200.2 82.6 Z M 204.4 86.9 C 204.4 87.5 204.6 88 205.3 88 C 205.9 88 206.7 87.6 206.6 85.7 C 205.6 85.7 204.4 85.6 204.4 86.9 Z M 206.6 87.8 C 206.6 87.8 206.56 87.81 206.6 87.8 C 206.3 88.5 205.8 88.8 205 88.8 C 203.7 88.8 203.4 88 203.4 86.8 C 203.4 85 205.2 84.9 206.6 84.9 C 206.6 84.1 206.6 83.3 205.5 83.3 C 204.9 83.3 204.5 83.7 204.6 84.3 C 204.6 84.3 203.5 84.3 203.5 84.3 C 203.6 83 204.3 82.5 205.6 82.5 C 207.1 82.5 207.5 83.3 207.5 84.3 C 207.5 84.3 207.5 87.2 207.5 87.2 C 207.5 87.7 207.6 88.2 207.7 88.7 C 207.66 88.69 206.6 88.7 206.6 88.7 L 206.6 87.8 Z M 210.4 88.7 L 209.4 88.7 L 209.4 80 L 210.4 80 L 210.4 88.7 Z M 218.2 85.3 C 218.2 83.7 217.7 83.3 216.9 83.3 C 216.2 83.3 215.7 83.7 215.7 85.3 C 215.7 87.3 215.9 88 216.9 88 C 217.9 88 218.2 87.3 218.2 85.3 Z M 214.6 85.7 C 214.6 84 214.8 82.5 216.9 82.5 C 219 82.5 219.2 84 219.2 85.7 C 219.2 88.4 218.2 88.8 216.9 88.8 C 215.6 88.8 214.6 88.4 214.6 85.7 Z M 223 88 C 224.2 88 224.2 86.7 224.2 85.8 C 224.2 84.2 224.1 83.3 223 83.3 C 221.9 83.3 221.9 84.6 221.9 85.4 C 221.9 86.3 221.7 88 223 88 Z M 221.9 88.7 L 220.9 88.7 L 220.9 80 L 221.9 80 L 221.9 83.2 C 221.9 83.2 221.89 83.24 221.9 83.2 C 222.2 82.8 222.6 82.5 223.2 82.5 C 225.2 82.5 225.2 84.2 225.2 85.8 C 225.2 88.4 224.2 88.8 223.3 88.8 C 222.6 88.8 222.2 88.5 221.9 88 C 221.88 87.97 221.9 88 221.9 88 L 221.9 88.7 Z M 228.6 88.8 C 227.3 88.8 226.5 88.2 226.5 86.8 C 226.5 86.8 227.6 86.8 227.6 86.8 C 227.6 87.2 227.6 88 228.6 88 C 229.2 88 229.7 87.7 229.7 87.1 C 229.7 86 226.6 86 226.6 84.2 C 226.6 83.5 227 82.5 228.7 82.5 C 229.8 82.5 230.7 83 230.6 84.2 C 230.6 84.2 229.5 84.2 229.5 84.2 C 229.6 83.6 229.2 83.3 228.6 83.3 C 228.1 83.3 227.7 83.5 227.7 84.1 C 227.7 85.1 230.7 85.1 230.7 87 C 230.7 88.3 229.8 88.8 228.6 88.8 Z M 235.4 85.2 C 235.4 83.5 234.9 83.3 234.2 83.3 C 233.6 83.3 233.1 83.6 233.1 85.2 C 233.1 85.2 235.4 85.2 235.4 85.2 Z M 233.1 86 C 233.1 87.7 233.5 88 234.3 88 C 235 88 235.3 87.5 235.4 86.9 C 235.4 86.9 236.4 86.9 236.4 86.9 C 236.4 88.2 235.6 88.8 234.3 88.8 C 233 88.8 232 88.4 232 85.7 C 232 84 232.2 82.5 234.3 82.5 C 236.1 82.5 236.5 83.5 236.5 85.5 C 236.48 85.46 236.5 86 236.5 86 C 236.5 86 233.07 85.98 233.1 86 Z M 239.1 83.5 C 239.1 83.5 239.16 83.54 239.2 83.5 C 239.6 82.6 240.1 82.5 241 82.5 C 241 82.5 241 83.5 241 83.5 C 240.9 83.5 240.9 83.5 240.8 83.5 C 240.7 83.5 240.6 83.5 240.5 83.5 C 239.4 83.5 239.1 84.3 239.1 85.1 C 239.13 85.11 239.1 88.7 239.1 88.7 L 238.2 88.7 L 238.2 82.6 L 239.1 82.6 L 239.1 83.5 Z M 241.4 82.6 L 242.5 82.6 L 243.9 87.8 L 243.9 87.8 L 245.4 82.6 L 246.4 82.6 L 244.5 88.7 L 243.2 88.7 L 241.4 82.6 Z M 248.3 86.9 C 248.3 87.5 248.6 88 249.3 88 C 249.9 88 250.6 87.6 250.5 85.7 C 249.6 85.7 248.3 85.6 248.3 86.9 Z M 250.6 87.8 C 250.6 87.8 250.54 87.81 250.5 87.8 C 250.2 88.5 249.8 88.8 249 88.8 C 247.7 88.8 247.4 88 247.4 86.8 C 247.4 85 249.2 84.9 250.5 84.9 C 250.6 84.1 250.6 83.3 249.5 83.3 C 248.9 83.3 248.5 83.7 248.6 84.3 C 248.6 84.3 247.5 84.3 247.5 84.3 C 247.5 83 248.3 82.5 249.6 82.5 C 251.1 82.5 251.5 83.3 251.5 84.3 C 251.5 84.3 251.5 87.2 251.5 87.2 C 251.5 87.7 251.6 88.2 251.6 88.7 C 251.64 88.69 250.6 88.7 250.6 88.7 L 250.6 87.8 Z M 253.5 82.6 L 253.5 81.5 L 254.5 81 L 254.5 82.6 L 255.9 82.6 L 255.9 83.4 L 254.5 83.4 C 254.5 83.4 254.53 87.08 254.5 87.1 C 254.5 87.5 254.5 88 255.4 88 C 255.5 88 255.7 87.9 255.9 87.9 C 255.9 87.9 255.9 88.7 255.9 88.7 C 255.6 88.7 255.2 88.8 254.9 88.8 C 254 88.8 253.5 88.4 253.5 87.7 C 253.55 87.68 253.5 83.4 253.5 83.4 L 252.6 83.4 L 252.6 82.6 L 253.5 82.6 Z M 257.7 88.7 L 256.8 88.7 L 256.8 82.6 L 257.7 82.6 L 257.7 88.7 Z M 256.7 80 L 257.8 80 L 257.8 81.1 L 256.7 81.1 L 256.7 80 Z M 262.8 85.3 C 262.8 83.7 262.3 83.3 261.6 83.3 C 260.8 83.3 260.3 83.7 260.3 85.3 C 260.3 87.3 260.6 88 261.6 88 C 262.6 88 262.8 87.3 262.8 85.3 Z M 259.3 85.7 C 259.3 84 259.5 82.5 261.6 82.5 C 263.7 82.5 263.9 84 263.9 85.7 C 263.9 88.4 262.9 88.8 261.6 88.8 C 260.3 88.8 259.3 88.4 259.3 85.7 Z M 268.7 88.7 C 268.7 88.7 268.73 84.49 268.7 84.5 C 268.7 83.8 268.5 83.3 267.7 83.3 C 266.6 83.3 266.4 84.3 266.4 85.1 C 266.42 85.1 266.4 88.7 266.4 88.7 L 265.4 88.7 C 265.4 88.7 265.44 83.89 265.4 83.9 C 265.4 83.5 265.4 83 265.4 82.6 C 265.38 82.63 266.4 82.6 266.4 82.6 L 266.4 83.4 C 266.4 83.4 266.47 83.41 266.5 83.4 C 266.9 82.7 267.3 82.5 268.1 82.5 C 269.4 82.5 269.7 83.3 269.7 84.5 C 269.71 84.49 269.7 88.7 269.7 88.7 L 268.7 88.7 Z " stroke="none" fill="#555555"/>  </g>  <g id="Polygon201660">    <path d="M 6.4 70.9 C 6.4 71.5 6.7 72 7.4 72 C 8 72 8.7 71.6 8.6 69.7 C 7.7 69.7 6.4 69.6 6.4 70.9 Z M 8.6 71.8 C 8.6 71.8 8.62 71.81 8.6 71.8 C 8.3 72.5 7.9 72.8 7.1 72.8 C 5.8 72.8 5.4 72 5.4 70.8 C 5.4 69 7.2 68.9 8.6 68.9 C 8.6 68.1 8.7 67.3 7.6 67.3 C 6.9 67.3 6.6 67.7 6.7 68.3 C 6.7 68.3 5.6 68.3 5.6 68.3 C 5.6 67 6.4 66.5 7.6 66.5 C 9.2 66.5 9.6 67.3 9.6 68.3 C 9.6 68.3 9.6 71.2 9.6 71.2 C 9.6 71.7 9.7 72.2 9.7 72.7 C 9.72 72.69 8.6 72.7 8.6 72.7 L 8.6 71.8 Z M 13.3 72.8 C 12 72.8 11.2 72.2 11.2 70.8 C 11.2 70.8 12.3 70.8 12.3 70.8 C 12.3 71.2 12.4 72 13.3 72 C 13.9 72 14.4 71.7 14.4 71.1 C 14.4 70 11.4 70 11.4 68.2 C 11.4 67.5 11.8 66.5 13.5 66.5 C 14.5 66.5 15.5 67 15.4 68.2 C 15.4 68.2 14.3 68.2 14.3 68.2 C 14.3 67.6 14 67.3 13.3 67.3 C 12.8 67.3 12.4 67.5 12.4 68.1 C 12.4 69.1 15.4 69.1 15.4 71 C 15.4 72.3 14.5 72.8 13.3 72.8 Z M 18.6 72.8 C 17.3 72.8 16.5 72.2 16.6 70.8 C 16.6 70.8 17.7 70.8 17.7 70.8 C 17.7 71.2 17.7 72 18.7 72 C 19.3 72 19.7 71.7 19.7 71.1 C 19.7 70 16.7 70 16.7 68.2 C 16.7 67.5 17.1 66.5 18.8 66.5 C 19.9 66.5 20.8 67 20.7 68.2 C 20.7 68.2 19.6 68.2 19.6 68.2 C 19.6 67.6 19.3 67.3 18.7 67.3 C 18.1 67.3 17.7 67.5 17.7 68.1 C 17.7 69.1 20.8 69.1 20.8 71 C 20.8 72.3 19.8 72.8 18.6 72.8 Z M 25.5 69.2 C 25.5 67.5 25 67.3 24.3 67.3 C 23.7 67.3 23.2 67.6 23.1 69.2 C 23.1 69.2 25.5 69.2 25.5 69.2 Z M 23.1 70 C 23.1 71.7 23.6 72 24.4 72 C 25 72 25.4 71.5 25.4 70.9 C 25.4 70.9 26.5 70.9 26.5 70.9 C 26.5 72.2 25.7 72.8 24.4 72.8 C 23.1 72.8 22.1 72.4 22.1 69.7 C 22.1 68 22.3 66.5 24.4 66.5 C 26.1 66.5 26.5 67.5 26.5 69.5 C 26.55 69.46 26.5 70 26.5 70 C 26.5 70 23.14 69.98 23.1 70 Z M 30 72.8 C 28.7 72.8 27.8 72.2 27.9 70.8 C 27.9 70.8 29 70.8 29 70.8 C 29 71.2 29 72 30 72 C 30.6 72 31 71.7 31 71.1 C 31 70 28 70 28 68.2 C 28 67.5 28.4 66.5 30.1 66.5 C 31.2 66.5 32.1 67 32 68.2 C 32 68.2 30.9 68.2 30.9 68.2 C 31 67.6 30.6 67.3 30 67.3 C 29.5 67.3 29.1 67.5 29.1 68.1 C 29.1 69.1 32.1 69.1 32.1 71 C 32.1 72.3 31.2 72.8 30 72.8 Z M 35.3 72.8 C 34 72.8 33.2 72.2 33.2 70.8 C 33.2 70.8 34.3 70.8 34.3 70.8 C 34.3 71.2 34.3 72 35.3 72 C 35.9 72 36.4 71.7 36.4 71.1 C 36.4 70 33.4 70 33.4 68.2 C 33.4 67.5 33.7 66.5 35.4 66.5 C 36.5 66.5 37.4 67 37.4 68.2 C 37.4 68.2 36.3 68.2 36.3 68.2 C 36.3 67.6 35.9 67.3 35.3 67.3 C 34.8 67.3 34.4 67.5 34.4 68.1 C 34.4 69.1 37.4 69.1 37.4 71 C 37.4 72.3 36.5 72.8 35.3 72.8 Z M 42.2 69.2 C 42.2 67.5 41.7 67.3 40.9 67.3 C 40.3 67.3 39.8 67.6 39.8 69.2 C 39.8 69.2 42.2 69.2 42.2 69.2 Z M 39.8 70 C 39.8 71.7 40.2 72 41 72 C 41.7 72 42 71.5 42.1 70.9 C 42.1 70.9 43.2 70.9 43.2 70.9 C 43.1 72.2 42.3 72.8 41 72.8 C 39.8 72.8 38.7 72.4 38.7 69.7 C 38.7 68 38.9 66.5 41 66.5 C 42.8 66.5 43.2 67.5 43.2 69.5 C 43.2 69.46 43.2 70 43.2 70 C 43.2 70 39.79 69.98 39.8 70 Z M 46.9 67.3 C 45.8 67.3 45.7 68.2 45.7 69.8 C 45.7 70.7 45.7 72 46.9 72 C 48 72 48 70.6 48 69.4 C 48 68.6 48 67.3 46.9 67.3 Z M 48 64 L 49 64 L 49 72.7 L 48 72.7 L 48 72 C 48 72 48.02 71.97 48 72 C 47.7 72.5 47.3 72.8 46.6 72.8 C 45.6 72.8 44.7 72.4 44.7 69.8 C 44.7 68.2 44.7 66.5 46.7 66.5 C 47.2 66.5 47.7 66.8 48 67.2 C 48 67.24 48 67.2 48 67.2 L 48 64 Z M 54.4 70.9 C 54.4 71.5 54.7 72 55.3 72 C 55.9 72 56.7 71.6 56.6 69.7 C 55.7 69.7 54.4 69.6 54.4 70.9 Z M 56.6 71.8 C 56.6 71.8 56.59 71.81 56.6 71.8 C 56.3 72.5 55.8 72.8 55.1 72.8 C 53.8 72.8 53.4 72 53.4 70.8 C 53.4 69 55.2 68.9 56.6 68.9 C 56.6 68.1 56.6 67.3 55.6 67.3 C 54.9 67.3 54.6 67.7 54.6 68.3 C 54.6 68.3 53.6 68.3 53.6 68.3 C 53.6 67 54.3 66.5 55.6 66.5 C 57.2 66.5 57.6 67.3 57.6 68.3 C 57.6 68.3 57.6 71.2 57.6 71.2 C 57.6 71.7 57.6 72.2 57.7 72.7 C 57.7 72.69 56.6 72.7 56.6 72.7 L 56.6 71.8 Z M 61.3 72.8 C 60 72.8 59.2 72.2 59.2 70.8 C 59.2 70.8 60.3 70.8 60.3 70.8 C 60.3 71.2 60.3 72 61.3 72 C 61.9 72 62.4 71.7 62.4 71.1 C 62.4 70 59.3 70 59.3 68.2 C 59.3 67.5 59.7 66.5 61.4 66.5 C 62.5 66.5 63.4 67 63.3 68.2 C 63.3 68.2 62.3 68.2 62.3 68.2 C 62.3 67.6 61.9 67.3 61.3 67.3 C 60.8 67.3 60.4 67.5 60.4 68.1 C 60.4 69.1 63.4 69.1 63.4 71 C 63.4 72.3 62.5 72.8 61.3 72.8 Z M 70.8 72.7 C 70.8 72.7 70.78 68.49 70.8 68.5 C 70.8 67.8 70.6 67.3 69.7 67.3 C 68.6 67.3 68.5 68.3 68.5 69.1 C 68.47 69.1 68.5 72.7 68.5 72.7 L 67.5 72.7 C 67.5 72.7 67.49 67.89 67.5 67.9 C 67.5 67.5 67.5 67 67.4 66.6 C 67.43 66.63 68.5 66.6 68.5 66.6 L 68.5 67.4 C 68.5 67.4 68.52 67.41 68.5 67.4 C 68.9 66.7 69.4 66.5 70.1 66.5 C 71.4 66.5 71.8 67.3 71.8 68.5 C 71.76 68.49 71.8 72.7 71.8 72.7 L 70.8 72.7 Z M 76.9 69.3 C 76.9 67.7 76.4 67.3 75.6 67.3 C 74.9 67.3 74.4 67.7 74.4 69.3 C 74.4 71.3 74.6 72 75.6 72 C 76.6 72 76.9 71.3 76.9 69.3 Z M 73.3 69.7 C 73.3 68 73.5 66.5 75.6 66.5 C 77.7 66.5 77.9 68 77.9 69.7 C 77.9 72.4 76.9 72.8 75.6 72.8 C 74.3 72.8 73.3 72.4 73.3 69.7 Z M 79.6 66.6 L 79.6 65.5 L 80.6 65 L 80.6 66.6 L 81.9 66.6 L 81.9 67.4 L 80.6 67.4 C 80.6 67.4 80.58 71.08 80.6 71.1 C 80.6 71.5 80.6 72 81.5 72 C 81.6 72 81.7 71.9 81.9 71.9 C 81.9 71.9 81.9 72.7 81.9 72.7 C 81.6 72.7 81.3 72.8 81 72.8 C 80 72.8 79.6 72.4 79.6 71.7 C 79.6 71.68 79.6 67.4 79.6 67.4 L 78.6 67.4 L 78.6 66.6 L 79.6 66.6 Z M 86.5 67.5 C 86.5 67.5 86.53 67.54 86.5 67.5 C 86.9 66.6 87.4 66.5 88.4 66.5 C 88.4 66.5 88.4 67.5 88.4 67.5 C 88.3 67.5 88.2 67.5 88.1 67.5 C 88.1 67.5 88 67.5 87.9 67.5 C 86.8 67.5 86.5 68.3 86.5 69.1 C 86.51 69.11 86.5 72.7 86.5 72.7 L 85.5 72.7 L 85.5 66.6 L 86.5 66.6 L 86.5 67.5 Z M 92.8 69.2 C 92.8 67.5 92.3 67.3 91.6 67.3 C 91 67.3 90.5 67.6 90.4 69.2 C 90.4 69.2 92.8 69.2 92.8 69.2 Z M 90.4 70 C 90.4 71.7 90.9 72 91.7 72 C 92.3 72 92.7 71.5 92.7 70.9 C 92.7 70.9 93.8 70.9 93.8 70.9 C 93.8 72.2 93 72.8 91.7 72.8 C 90.4 72.8 89.4 72.4 89.4 69.7 C 89.4 68 89.6 66.5 91.7 66.5 C 93.4 66.5 93.9 67.5 93.9 69.5 C 93.85 69.46 93.9 70 93.9 70 C 93.9 70 90.44 69.98 90.4 70 Z M 96.4 72.7 L 95.5 72.7 L 95.5 64 L 96.4 64 L 96.4 72.7 Z M 99 70.9 C 99 71.5 99.3 72 100 72 C 100.6 72 101.3 71.6 101.2 69.7 C 100.3 69.7 99 69.6 99 70.9 Z M 101.3 71.8 C 101.3 71.8 101.25 71.81 101.2 71.8 C 100.9 72.5 100.5 72.8 99.7 72.8 C 98.4 72.8 98.1 72 98.1 70.8 C 98.1 69 99.9 68.9 101.2 68.9 C 101.3 68.1 101.3 67.3 100.2 67.3 C 99.6 67.3 99.2 67.7 99.3 68.3 C 99.3 68.3 98.2 68.3 98.2 68.3 C 98.3 67 99 66.5 100.3 66.5 C 101.8 66.5 102.2 67.3 102.2 68.3 C 102.2 68.3 102.2 71.2 102.2 71.2 C 102.2 71.7 102.3 72.2 102.3 72.7 C 102.35 72.69 101.3 72.7 101.3 72.7 L 101.3 71.8 Z M 104.3 66.6 L 104.3 65.5 L 105.2 65 L 105.2 66.6 L 106.6 66.6 L 106.6 67.4 L 105.2 67.4 C 105.2 67.4 105.24 71.08 105.2 71.1 C 105.2 71.5 105.2 72 106.1 72 C 106.2 72 106.4 71.9 106.6 71.9 C 106.6 71.9 106.6 72.7 106.6 72.7 C 106.3 72.7 105.9 72.8 105.6 72.8 C 104.7 72.8 104.3 72.4 104.3 71.7 C 104.26 71.68 104.3 67.4 104.3 67.4 L 103.3 67.4 L 103.3 66.6 L 104.3 66.6 Z M 110.8 69.2 C 110.8 67.5 110.3 67.3 109.6 67.3 C 109 67.3 108.5 67.6 108.4 69.2 C 108.4 69.2 110.8 69.2 110.8 69.2 Z M 108.4 70 C 108.4 71.7 108.9 72 109.7 72 C 110.3 72 110.7 71.5 110.7 70.9 C 110.7 70.9 111.8 70.9 111.8 70.9 C 111.8 72.2 111 72.8 109.7 72.8 C 108.4 72.8 107.4 72.4 107.4 69.7 C 107.4 68 107.6 66.5 109.7 66.5 C 111.4 66.5 111.9 67.5 111.9 69.5 C 111.85 69.46 111.9 70 111.9 70 C 111.9 70 108.44 69.98 108.4 70 Z M 115.5 67.3 C 114.5 67.3 114.3 68.2 114.3 69.8 C 114.3 70.7 114.3 72 115.6 72 C 116.7 72 116.7 70.6 116.7 69.4 C 116.7 68.6 116.6 67.3 115.5 67.3 Z M 116.7 64 L 117.7 64 L 117.7 72.7 L 116.7 72.7 L 116.7 72 C 116.7 72 116.67 71.97 116.7 72 C 116.3 72.5 115.9 72.8 115.3 72.8 C 114.3 72.8 113.3 72.4 113.3 69.8 C 113.3 68.2 113.4 66.5 115.3 66.5 C 115.9 66.5 116.3 66.8 116.7 67.2 C 116.65 67.24 116.7 67.2 116.7 67.2 L 116.7 64 Z M 122.3 66.6 L 122.3 65.5 L 123.2 65 L 123.2 66.6 L 124.6 66.6 L 124.6 67.4 L 123.2 67.4 C 123.2 67.4 123.24 71.08 123.2 71.1 C 123.2 71.5 123.2 72 124.1 72 C 124.2 72 124.4 71.9 124.6 71.9 C 124.6 71.9 124.6 72.7 124.6 72.7 C 124.3 72.7 123.9 72.8 123.6 72.8 C 122.7 72.8 122.3 72.4 122.3 71.7 C 122.26 71.68 122.3 67.4 122.3 67.4 L 121.3 67.4 L 121.3 66.6 L 122.3 66.6 Z M 128.9 69.3 C 128.9 67.7 128.4 67.3 127.6 67.3 C 126.9 67.3 126.3 67.7 126.3 69.3 C 126.3 71.3 126.6 72 127.6 72 C 128.6 72 128.9 71.3 128.9 69.3 Z M 125.3 69.7 C 125.3 68 125.5 66.5 127.6 66.5 C 129.7 66.5 129.9 68 129.9 69.7 C 129.9 72.4 128.9 72.8 127.6 72.8 C 126.3 72.8 125.3 72.4 125.3 69.7 Z M 134.3 66.6 L 134.3 65.5 L 135.2 65 L 135.2 66.6 L 136.6 66.6 L 136.6 67.4 L 135.2 67.4 C 135.2 67.4 135.24 71.08 135.2 71.1 C 135.2 71.5 135.2 72 136.1 72 C 136.2 72 136.4 71.9 136.6 71.9 C 136.6 71.9 136.6 72.7 136.6 72.7 C 136.3 72.7 135.9 72.8 135.6 72.8 C 134.7 72.8 134.3 72.4 134.3 71.7 C 134.26 71.68 134.3 67.4 134.3 67.4 L 133.3 67.4 L 133.3 66.6 L 134.3 66.6 Z M 138.5 67.5 C 138.5 67.5 138.53 67.54 138.5 67.5 C 138.9 66.6 139.4 66.5 140.4 66.5 C 140.4 66.5 140.4 67.5 140.4 67.5 C 140.3 67.5 140.2 67.5 140.1 67.5 C 140.1 67.5 140 67.5 139.9 67.5 C 138.8 67.5 138.5 68.3 138.5 69.1 C 138.5 69.11 138.5 72.7 138.5 72.7 L 137.5 72.7 L 137.5 66.6 L 138.5 66.6 L 138.5 67.5 Z M 142.4 72.7 L 141.5 72.7 L 141.5 66.6 L 142.4 66.6 L 142.4 72.7 Z M 141.4 64 L 142.5 64 L 142.5 65.1 L 141.4 65.1 L 141.4 64 Z M 145 70.9 C 145 71.5 145.3 72 146 72 C 146.6 72 147.3 71.6 147.2 69.7 C 146.3 69.7 145 69.6 145 70.9 Z M 147.3 71.8 C 147.3 71.8 147.24 71.81 147.2 71.8 C 146.9 72.5 146.5 72.8 145.7 72.8 C 144.4 72.8 144.1 72 144.1 70.8 C 144.1 69 145.9 68.9 147.2 68.9 C 147.3 68.1 147.3 67.3 146.2 67.3 C 145.6 67.3 145.2 67.7 145.3 68.3 C 145.3 68.3 144.2 68.3 144.2 68.3 C 144.3 67 145 66.5 146.3 66.5 C 147.8 66.5 148.2 67.3 148.2 68.3 C 148.2 68.3 148.2 71.2 148.2 71.2 C 148.2 71.7 148.3 72.2 148.3 72.7 C 148.34 72.69 147.3 72.7 147.3 72.7 L 147.3 71.8 Z M 151.1 72.7 L 150.1 72.7 L 150.1 64 L 151.1 64 L 151.1 72.7 Z M 155.6 66.6 L 155.6 65.5 L 156.6 65 L 156.6 66.6 L 157.9 66.6 L 157.9 67.4 L 156.6 67.4 C 156.6 67.4 156.56 71.08 156.6 71.1 C 156.6 71.5 156.6 72 157.5 72 C 157.5 72 157.7 71.9 157.9 71.9 C 157.9 71.9 157.9 72.7 157.9 72.7 C 157.6 72.7 157.3 72.8 156.9 72.8 C 156 72.8 155.6 72.4 155.6 71.7 C 155.58 71.68 155.6 67.4 155.6 67.4 L 154.6 67.4 L 154.6 66.6 L 155.6 66.6 Z M 159.8 67.5 C 159.8 67.5 159.85 67.54 159.9 67.5 C 160.3 66.6 160.8 66.5 161.7 66.5 C 161.7 66.5 161.7 67.5 161.7 67.5 C 161.6 67.5 161.5 67.5 161.5 67.5 C 161.4 67.5 161.3 67.5 161.2 67.5 C 160.1 67.5 159.8 68.3 159.8 69.1 C 159.83 69.11 159.8 72.7 159.8 72.7 L 158.8 72.7 L 158.8 66.6 L 159.8 66.6 L 159.8 67.5 Z M 166.1 69.2 C 166.1 67.5 165.6 67.3 164.9 67.3 C 164.3 67.3 163.8 67.6 163.8 69.2 C 163.8 69.2 166.1 69.2 166.1 69.2 Z M 163.8 70 C 163.8 71.7 164.2 72 165 72 C 165.7 72 166 71.5 166 70.9 C 166 70.9 167.1 70.9 167.1 70.9 C 167.1 72.2 166.3 72.8 165 72.8 C 163.7 72.8 162.7 72.4 162.7 69.7 C 162.7 68 162.9 66.5 165 66.5 C 166.7 66.5 167.2 67.5 167.2 69.5 C 167.17 69.46 167.2 70 167.2 70 C 167.2 70 163.76 69.98 163.8 70 Z M 169.7 70.9 C 169.7 71.5 170 72 170.7 72 C 171.3 72 172 71.6 171.9 69.7 C 171 69.7 169.7 69.6 169.7 70.9 Z M 171.9 71.8 C 171.9 71.8 171.9 71.81 171.9 71.8 C 171.6 72.5 171.1 72.8 170.4 72.8 C 169.1 72.8 168.7 72 168.7 70.8 C 168.7 69 170.5 68.9 171.9 68.9 C 171.9 68.1 171.9 67.3 170.9 67.3 C 170.2 67.3 169.9 67.7 169.9 68.3 C 169.9 68.3 168.9 68.3 168.9 68.3 C 168.9 67 169.6 66.5 170.9 66.5 C 172.5 66.5 172.9 67.3 172.9 68.3 C 172.9 68.3 172.9 71.2 172.9 71.2 C 172.9 71.7 172.9 72.2 173 72.7 C 173 72.69 171.9 72.7 171.9 72.7 L 171.9 71.8 Z M 174.9 66.6 L 174.9 65.5 L 175.9 65 L 175.9 66.6 L 177.2 66.6 L 177.2 67.4 L 175.9 67.4 C 175.9 67.4 175.9 71.08 175.9 71.1 C 175.9 71.5 175.9 72 176.8 72 C 176.9 72 177 71.9 177.2 71.9 C 177.2 71.9 177.2 72.7 177.2 72.7 C 176.9 72.7 176.6 72.8 176.3 72.8 C 175.3 72.8 174.9 72.4 174.9 71.7 C 174.91 71.68 174.9 67.4 174.9 67.4 L 173.9 67.4 L 173.9 66.6 L 174.9 66.6 Z M 181.1 72.7 C 181.1 72.7 181.12 68.49 181.1 68.5 C 181.1 67.9 180.9 67.3 180.2 67.3 C 179.9 67.3 179.4 67.5 179.3 67.7 C 179.1 68 179.1 68.4 179.1 68.6 C 179.08 68.61 179.1 72.7 179.1 72.7 L 178.1 72.7 C 178.1 72.7 178.09 67.89 178.1 67.9 C 178.1 67.5 178.1 67 178 66.6 C 178.03 66.63 179.1 66.6 179.1 66.6 L 179.1 67.4 C 179.1 67.4 179.1 67.38 179.1 67.4 C 179.4 66.7 179.9 66.5 180.6 66.5 C 181.2 66.5 181.8 66.7 182 67.3 C 182.4 66.6 182.9 66.5 183.5 66.5 C 184.1 66.5 185.1 66.7 185.1 68.1 C 185.12 68.08 185.1 72.7 185.1 72.7 L 184.1 72.7 C 184.1 72.7 184.14 68.49 184.1 68.5 C 184.1 67.9 184 67.3 183.2 67.3 C 182.8 67.3 182.7 67.3 182.4 67.5 C 182.1 67.8 182.1 68.4 182.1 68.6 C 182.1 68.61 182.1 72.7 182.1 72.7 L 181.1 72.7 Z M 190.1 69.2 C 190.1 67.5 189.6 67.3 188.9 67.3 C 188.3 67.3 187.8 67.6 187.8 69.2 C 187.8 69.2 190.1 69.2 190.1 69.2 Z M 187.8 70 C 187.8 71.7 188.2 72 189 72 C 189.7 72 190 71.5 190 70.9 C 190 70.9 191.1 70.9 191.1 70.9 C 191.1 72.2 190.3 72.8 189 72.8 C 187.7 72.8 186.7 72.4 186.7 69.7 C 186.7 68 186.9 66.5 189 66.5 C 190.7 66.5 191.2 67.5 191.2 69.5 C 191.17 69.46 191.2 70 191.2 70 C 191.2 70 187.76 69.98 187.8 70 Z M 196.1 72.7 C 196.1 72.7 196.09 68.49 196.1 68.5 C 196.1 67.8 195.9 67.3 195 67.3 C 193.9 67.3 193.8 68.3 193.8 69.1 C 193.79 69.1 193.8 72.7 193.8 72.7 L 192.8 72.7 C 192.8 72.7 192.8 67.89 192.8 67.9 C 192.8 67.5 192.8 67 192.7 66.6 C 192.74 66.63 193.8 66.6 193.8 66.6 L 193.8 67.4 C 193.8 67.4 193.84 67.41 193.8 67.4 C 194.2 66.7 194.7 66.5 195.5 66.5 C 196.8 66.5 197.1 67.3 197.1 68.5 C 197.08 68.49 197.1 72.7 197.1 72.7 L 196.1 72.7 Z M 198.9 66.6 L 198.9 65.5 L 199.9 65 L 199.9 66.6 L 201.2 66.6 L 201.2 67.4 L 199.9 67.4 C 199.9 67.4 199.9 71.08 199.9 71.1 C 199.9 71.5 199.9 72 200.8 72 C 200.9 72 201 71.9 201.2 71.9 C 201.2 71.9 201.2 72.7 201.2 72.7 C 200.9 72.7 200.6 72.8 200.3 72.8 C 199.3 72.8 198.9 72.4 198.9 71.7 C 198.91 71.68 198.9 67.4 198.9 67.4 L 197.9 67.4 L 197.9 66.6 L 198.9 66.6 Z M 203.2 67.9 L 202 67.9 L 202 66.6 L 203.2 66.6 L 203.2 67.9 Z M 203.2 72.7 L 202 72.7 L 202 71.4 L 203.2 71.4 L 203.2 72.7 Z M 207.6 66.6 L 207.6 65.5 L 208.6 65 L 208.6 66.6 L 209.9 66.6 L 209.9 67.4 L 208.6 67.4 C 208.6 67.4 208.56 71.08 208.6 71.1 C 208.6 71.5 208.6 72 209.5 72 C 209.5 72 209.7 71.9 209.9 71.9 C 209.9 71.9 209.9 72.7 209.9 72.7 C 209.6 72.7 209.3 72.8 208.9 72.8 C 208 72.8 207.6 72.4 207.6 71.7 C 207.58 71.68 207.6 67.4 207.6 67.4 L 206.6 67.4 L 206.6 66.6 L 207.6 66.6 Z M 214.1 72.7 C 214.1 72.7 214.09 68.58 214.1 68.6 C 214.1 67.8 213.9 67.3 213 67.3 C 212 67.3 211.8 68.1 211.8 69.1 C 211.77 69.12 211.8 72.7 211.8 72.7 L 210.8 72.7 L 210.8 64 L 211.8 64 L 211.8 67.4 C 211.8 67.4 211.82 67.41 211.8 67.4 C 212.2 66.7 212.7 66.5 213.5 66.5 C 214.5 66.5 215.1 67 215.1 68.4 C 215.07 68.39 215.1 72.7 215.1 72.7 L 214.1 72.7 Z M 220.1 69.2 C 220.1 67.5 219.6 67.3 218.9 67.3 C 218.3 67.3 217.8 67.6 217.8 69.2 C 217.8 69.2 220.1 69.2 220.1 69.2 Z M 217.8 70 C 217.8 71.7 218.2 72 219 72 C 219.7 72 220 71.5 220 70.9 C 220 70.9 221.1 70.9 221.1 70.9 C 221.1 72.2 220.3 72.8 219 72.8 C 217.7 72.8 216.7 72.4 216.7 69.7 C 216.7 68 216.9 66.5 219 66.5 C 220.7 66.5 221.2 67.5 221.2 69.5 C 221.17 69.46 221.2 70 221.2 70 C 221.2 70 217.76 69.98 217.8 70 Z M 228.9 69.6 C 228.9 68.6 228.9 67.3 227.6 67.3 C 226.4 67.3 226.5 69 226.5 69.9 C 226.5 70.7 226.6 72 227.7 72 C 228.7 72 228.9 71.2 228.9 69.6 Z M 226.5 67.3 C 226.5 67.3 226.56 67.35 226.6 67.3 C 226.9 66.8 227.3 66.5 228 66.5 C 228.9 66.5 229.9 66.9 229.9 69.6 C 229.9 71.1 229.9 72.8 227.9 72.8 C 227.3 72.8 226.9 72.6 226.6 72.1 C 226.57 72.08 226.5 72.1 226.5 72.1 L 226.5 75 L 225.6 75 L 225.6 66.6 L 226.5 66.6 L 226.5 67.3 Z M 232.4 70.9 C 232.4 71.5 232.7 72 233.3 72 C 233.9 72 234.7 71.6 234.6 69.7 C 233.6 69.7 232.4 69.6 232.4 70.9 Z M 234.6 71.8 C 234.6 71.8 234.56 71.81 234.6 71.8 C 234.3 72.5 233.8 72.8 233 72.8 C 231.8 72.8 231.4 72 231.4 70.8 C 231.4 69 233.2 68.9 234.6 68.9 C 234.6 68.1 234.6 67.3 233.5 67.3 C 232.9 67.3 232.5 67.7 232.6 68.3 C 232.6 68.3 231.5 68.3 231.5 68.3 C 231.6 67 232.3 66.5 233.6 66.5 C 235.1 66.5 235.5 67.3 235.5 68.3 C 235.5 68.3 235.5 71.2 235.5 71.2 C 235.5 71.7 235.6 72.2 235.7 72.7 C 235.67 72.69 234.6 72.7 234.6 72.7 L 234.6 71.8 Z M 237.6 66.6 L 237.6 65.5 L 238.6 65 L 238.6 66.6 L 239.9 66.6 L 239.9 67.4 L 238.6 67.4 C 238.6 67.4 238.56 71.08 238.6 71.1 C 238.6 71.5 238.6 72 239.5 72 C 239.5 72 239.7 71.9 239.9 71.9 C 239.9 71.9 239.9 72.7 239.9 72.7 C 239.6 72.7 239.3 72.8 238.9 72.8 C 238 72.8 237.6 72.4 237.6 71.7 C 237.58 71.68 237.6 67.4 237.6 67.4 L 236.6 67.4 L 236.6 66.6 L 237.6 66.6 Z M 241.8 72.7 L 240.8 72.7 L 240.8 66.6 L 241.8 66.6 L 241.8 72.7 Z M 240.7 64 L 241.8 64 L 241.8 65.1 L 240.7 65.1 L 240.7 64 Z M 246.8 69.2 C 246.8 67.5 246.3 67.3 245.6 67.3 C 245 67.3 244.4 67.6 244.4 69.2 C 244.4 69.2 246.8 69.2 246.8 69.2 Z M 244.4 70 C 244.4 71.7 244.9 72 245.7 72 C 246.3 72 246.7 71.5 246.7 70.9 C 246.7 70.9 247.8 70.9 247.8 70.9 C 247.8 72.2 246.9 72.8 245.7 72.8 C 244.4 72.8 243.4 72.4 243.4 69.7 C 243.4 68 243.6 66.5 245.7 66.5 C 247.4 66.5 247.8 67.5 247.8 69.5 C 247.83 69.46 247.8 70 247.8 70 C 247.8 70 244.43 69.98 244.4 70 Z M 252.8 72.7 C 252.8 72.7 252.76 68.49 252.8 68.5 C 252.8 67.8 252.5 67.3 251.7 67.3 C 250.6 67.3 250.5 68.3 250.5 69.1 C 250.45 69.1 250.5 72.7 250.5 72.7 L 249.5 72.7 C 249.5 72.7 249.47 67.89 249.5 67.9 C 249.5 67.5 249.4 67 249.4 66.6 C 249.41 66.63 250.5 66.6 250.5 66.6 L 250.5 67.4 C 250.5 67.4 250.5 67.41 250.5 67.4 C 250.9 66.7 251.3 66.5 252.1 66.5 C 253.4 66.5 253.7 67.3 253.7 68.5 C 253.74 68.49 253.7 72.7 253.7 72.7 L 252.8 72.7 Z M 255.6 66.6 L 255.6 65.5 L 256.6 65 L 256.6 66.6 L 257.9 66.6 L 257.9 67.4 L 256.6 67.4 C 256.6 67.4 256.56 71.08 256.6 71.1 C 256.6 71.5 256.6 72 257.5 72 C 257.5 72 257.7 71.9 257.9 71.9 C 257.9 71.9 257.9 72.7 257.9 72.7 C 257.6 72.7 257.3 72.8 256.9 72.8 C 256 72.8 255.6 72.4 255.6 71.7 C 255.58 71.68 255.6 67.4 255.6 67.4 L 254.6 67.4 L 254.6 66.6 L 255.6 66.6 Z M 264.4 72.7 C 264.4 72.7 264.44 68.49 264.4 68.5 C 264.4 67.9 264.3 67.3 263.5 67.3 C 263.2 67.3 262.8 67.5 262.6 67.7 C 262.5 68 262.4 68.4 262.4 68.6 C 262.4 68.61 262.4 72.7 262.4 72.7 L 261.4 72.7 C 261.4 72.7 261.42 67.89 261.4 67.9 C 261.4 67.5 261.4 67 261.4 66.6 C 261.36 66.63 262.4 66.6 262.4 66.6 L 262.4 67.4 C 262.4 67.4 262.43 67.38 262.4 67.4 C 262.7 66.7 263.2 66.5 263.9 66.5 C 264.5 66.5 265.1 66.7 265.4 67.3 C 265.7 66.6 266.2 66.5 266.8 66.5 C 267.4 66.5 268.5 66.7 268.5 68.1 C 268.45 68.08 268.5 72.7 268.5 72.7 L 267.5 72.7 C 267.5 72.7 267.47 68.49 267.5 68.5 C 267.5 67.9 267.3 67.3 266.5 67.3 C 266.1 67.3 266 67.3 265.8 67.5 C 265.5 67.8 265.4 68.4 265.4 68.6 C 265.43 68.61 265.4 72.7 265.4 72.7 L 264.4 72.7 Z M 271 70.9 C 271 71.5 271.3 72 272 72 C 272.6 72 273.3 71.6 273.2 69.7 C 272.3 69.7 271 69.6 271 70.9 Z M 273.3 71.8 C 273.3 71.8 273.23 71.81 273.2 71.8 C 272.9 72.5 272.5 72.8 271.7 72.8 C 270.4 72.8 270 72 270 70.8 C 270 69 271.8 68.9 273.2 68.9 C 273.3 68.1 273.3 67.3 272.2 67.3 C 271.5 67.3 271.2 67.7 271.3 68.3 C 271.3 68.3 270.2 68.3 270.2 68.3 C 270.2 67 271 66.5 272.2 66.5 C 273.8 66.5 274.2 67.3 274.2 68.3 C 274.2 68.3 274.2 71.2 274.2 71.2 C 274.2 71.7 274.3 72.2 274.3 72.7 C 274.33 72.69 273.3 72.7 273.3 72.7 L 273.3 71.8 Z M 278.2 67.3 C 277.1 67.3 277 68.2 277 69.8 C 277 70.7 277 72 278.2 72 C 279.3 72 279.3 70.6 279.3 69.4 C 279.3 68.6 279.3 67.3 278.2 67.3 Z M 279.3 64 L 280.3 64 L 280.3 72.7 L 279.3 72.7 L 279.3 72 C 279.3 72 279.31 71.97 279.3 72 C 279 72.5 278.6 72.8 277.9 72.8 C 276.9 72.8 276 72.4 276 69.8 C 276 68.2 276 66.5 278 66.5 C 278.5 66.5 279 66.8 279.3 67.2 C 279.3 67.24 279.3 67.2 279.3 67.2 L 279.3 64 Z M 285.5 69.2 C 285.5 67.5 285 67.3 284.2 67.3 C 283.6 67.3 283.1 67.6 283.1 69.2 C 283.1 69.2 285.5 69.2 285.5 69.2 Z M 283.1 70 C 283.1 71.7 283.5 72 284.3 72 C 285 72 285.3 71.5 285.4 70.9 C 285.4 70.9 286.5 70.9 286.5 70.9 C 286.4 72.2 285.6 72.8 284.3 72.8 C 283.1 72.8 282 72.4 282 69.7 C 282 68 282.2 66.5 284.3 66.5 C 286.1 66.5 286.5 67.5 286.5 69.5 C 286.5 69.46 286.5 70 286.5 70 C 286.5 70 283.09 69.98 283.1 70 Z " stroke="none" fill="#555555"/>  </g>  <g id="Polygon201659">    <path d="M 1.3 49.2 L 0.3 49.2 L 0.3 48.7 L 1.3 48.7 L 1.3 47.6 L 1.8 47.6 L 1.8 48.7 L 2.8 48.7 L 2.8 49.2 L 1.8 49.2 L 1.8 52.7 L 1.3 52.7 L 1.3 49.2 Z M 5.6 53.5 C 5.6 53.5 5.6 50.7 5.6 50.7 C 5.6 48.9 6.5 47.8 8.3 47.8 C 10.2 47.8 11 48.9 11 50.7 C 11 50.7 11 53.5 11 53.5 C 11 55.9 10.2 56.9 8.3 56.9 C 6.5 56.9 5.6 55.9 5.6 53.5 Z M 9.9 53.6 C 9.9 53.6 9.9 50.6 9.9 50.6 C 9.9 48.8 8.7 48.8 8.3 48.8 C 8 48.8 6.7 48.8 6.7 50.6 C 6.7 50.6 6.7 53.6 6.7 53.6 C 6.7 55.5 7.3 55.9 8.3 55.9 C 9.4 55.9 9.9 55.5 9.9 53.6 Z M 16.1 56.7 C 16.1 56.7 16.14 52.49 16.1 52.5 C 16.1 51.8 15.9 51.3 15.1 51.3 C 14 51.3 13.8 52.3 13.8 53.1 C 13.84 53.1 13.8 56.7 13.8 56.7 L 12.9 56.7 C 12.9 56.7 12.86 51.89 12.9 51.9 C 12.9 51.5 12.8 51 12.8 50.6 C 12.8 50.63 13.8 50.6 13.8 50.6 L 13.8 51.4 C 13.8 51.4 13.89 51.41 13.9 51.4 C 14.3 50.7 14.7 50.5 15.5 50.5 C 16.8 50.5 17.1 51.3 17.1 52.5 C 17.13 52.49 17.1 56.7 17.1 56.7 L 16.1 56.7 Z M 22.2 53.2 C 22.2 51.5 21.7 51.3 21 51.3 C 20.3 51.3 19.8 51.6 19.8 53.2 C 19.8 53.2 22.2 53.2 22.2 53.2 Z M 19.8 54 C 19.8 55.7 20.3 56 21 56 C 21.7 56 22.1 55.5 22.1 54.9 C 22.1 54.9 23.2 54.9 23.2 54.9 C 23.2 56.2 22.3 56.8 21.1 56.8 C 19.8 56.8 18.8 56.4 18.8 53.7 C 18.8 52 19 50.5 21.1 50.5 C 22.8 50.5 23.2 51.5 23.2 53.5 C 23.22 53.46 23.2 54 23.2 54 C 23.2 54 19.81 53.98 19.8 54 Z M 29.3 56.8 C 28 56.8 27.2 56.2 27.2 54.8 C 27.2 54.8 28.3 54.8 28.3 54.8 C 28.3 55.2 28.3 56 29.3 56 C 29.9 56 30.4 55.7 30.4 55.1 C 30.4 54 27.4 54 27.4 52.2 C 27.4 51.5 27.7 50.5 29.5 50.5 C 30.5 50.5 31.5 51 31.4 52.2 C 31.4 52.2 30.3 52.2 30.3 52.2 C 30.3 51.6 30 51.3 29.3 51.3 C 28.8 51.3 28.4 51.5 28.4 52.1 C 28.4 53.1 31.4 53.1 31.4 55 C 31.4 56.3 30.5 56.8 29.3 56.8 Z M 36.2 53.2 C 36.2 51.5 35.7 51.3 35 51.3 C 34.3 51.3 33.8 51.6 33.8 53.2 C 33.8 53.2 36.2 53.2 36.2 53.2 Z M 33.8 54 C 33.8 55.7 34.3 56 35 56 C 35.7 56 36.1 55.5 36.1 54.9 C 36.1 54.9 37.2 54.9 37.2 54.9 C 37.2 56.2 36.3 56.8 35.1 56.8 C 33.8 56.8 32.8 56.4 32.8 53.7 C 32.8 52 33 50.5 35.1 50.5 C 36.8 50.5 37.2 51.5 37.2 53.5 C 37.21 53.46 37.2 54 37.2 54 C 37.2 54 33.81 53.98 33.8 54 Z M 38.2 50.6 L 39.3 50.6 L 40.6 55.8 L 40.6 55.8 L 42.1 50.6 L 43.1 50.6 L 41.2 56.7 L 40 56.7 L 38.2 50.6 Z M 47.5 53.2 C 47.5 51.5 47 51.3 46.3 51.3 C 45.7 51.3 45.1 51.6 45.1 53.2 C 45.1 53.2 47.5 53.2 47.5 53.2 Z M 45.1 54 C 45.1 55.7 45.6 56 46.4 56 C 47 56 47.4 55.5 47.4 54.9 C 47.4 54.9 48.5 54.9 48.5 54.9 C 48.5 56.2 47.7 56.8 46.4 56.8 C 45.1 56.8 44.1 56.4 44.1 53.7 C 44.1 52 44.3 50.5 46.4 50.5 C 48.1 50.5 48.5 51.5 48.5 53.5 C 48.54 53.46 48.5 54 48.5 54 C 48.5 54 45.13 53.98 45.1 54 Z M 51.2 51.5 C 51.2 51.5 51.22 51.54 51.2 51.5 C 51.6 50.6 52.1 50.5 53.1 50.5 C 53.1 50.5 53.1 51.5 53.1 51.5 C 53 51.5 52.9 51.5 52.8 51.5 C 52.7 51.5 52.7 51.5 52.6 51.5 C 51.5 51.5 51.2 52.3 51.2 53.1 C 51.19 53.11 51.2 56.7 51.2 56.7 L 50.2 56.7 L 50.2 50.6 L 51.2 50.6 L 51.2 51.5 Z M 57.5 53.2 C 57.5 51.5 57 51.3 56.3 51.3 C 55.7 51.3 55.1 51.6 55.1 53.2 C 55.1 53.2 57.5 53.2 57.5 53.2 Z M 55.1 54 C 55.1 55.7 55.6 56 56.4 56 C 57 56 57.4 55.5 57.4 54.9 C 57.4 54.9 58.5 54.9 58.5 54.9 C 58.5 56.2 57.7 56.8 56.4 56.8 C 55.1 56.8 54.1 56.4 54.1 53.7 C 54.1 52 54.3 50.5 56.4 50.5 C 58.1 50.5 58.5 51.5 58.5 53.5 C 58.54 53.46 58.5 54 58.5 54 C 58.5 54 55.13 53.98 55.1 54 Z M 60.3 55.4 L 61.6 55.4 L 60.5 58.2 L 59.7 58.2 L 60.3 55.4 Z M 67.3 56.8 C 66 56.8 65.2 56.2 65.2 54.8 C 65.2 54.8 66.3 54.8 66.3 54.8 C 66.3 55.2 66.3 56 67.3 56 C 67.9 56 68.4 55.7 68.4 55.1 C 68.4 54 65.3 54 65.3 52.2 C 65.3 51.5 65.7 50.5 67.4 50.5 C 68.5 50.5 69.4 51 69.3 52.2 C 69.3 52.2 68.3 52.2 68.3 52.2 C 68.3 51.6 67.9 51.3 67.3 51.3 C 66.8 51.3 66.4 51.5 66.4 52.1 C 66.4 53.1 69.4 53.1 69.4 55 C 69.4 56.3 68.5 56.8 67.3 56.8 Z M 74.2 53.2 C 74.2 51.5 73.7 51.3 72.9 51.3 C 72.3 51.3 71.8 51.6 71.8 53.2 C 71.8 53.2 74.2 53.2 74.2 53.2 Z M 71.8 54 C 71.8 55.7 72.2 56 73 56 C 73.7 56 74 55.5 74.1 54.9 C 74.1 54.9 75.1 54.9 75.1 54.9 C 75.1 56.2 74.3 56.8 73 56.8 C 71.7 56.8 70.7 56.4 70.7 53.7 C 70.7 52 70.9 50.5 73 50.5 C 74.8 50.5 75.2 51.5 75.2 53.5 C 75.19 53.46 75.2 54 75.2 54 C 75.2 54 71.79 53.98 71.8 54 Z M 77.8 51.5 C 77.8 51.5 77.87 51.54 77.9 51.5 C 78.3 50.6 78.8 50.5 79.7 50.5 C 79.7 50.5 79.7 51.5 79.7 51.5 C 79.7 51.5 79.6 51.5 79.5 51.5 C 79.4 51.5 79.3 51.5 79.2 51.5 C 78.1 51.5 77.8 52.3 77.8 53.1 C 77.85 53.11 77.8 56.7 77.8 56.7 L 76.9 56.7 L 76.9 50.6 L 77.8 50.6 L 77.8 51.5 Z M 81.8 56.7 L 80.8 56.7 L 80.8 50.6 L 81.8 50.6 L 81.8 56.7 Z M 80.7 48 L 81.8 48 L 81.8 49.1 L 80.7 49.1 L 80.7 48 Z M 86.9 53.3 C 86.9 51.7 86.4 51.3 85.6 51.3 C 84.9 51.3 84.3 51.7 84.3 53.3 C 84.3 55.3 84.6 56 85.6 56 C 86.6 56 86.9 55.3 86.9 53.3 Z M 83.3 53.7 C 83.3 52 83.5 50.5 85.6 50.5 C 87.7 50.5 87.9 52 87.9 53.7 C 87.9 56.4 86.9 56.8 85.6 56.8 C 84.3 56.8 83.3 56.4 83.3 53.7 Z M 92.7 50.6 L 93.7 50.6 C 93.7 50.6 93.71 55.43 93.7 55.4 C 93.7 55.8 93.7 56.3 93.8 56.7 C 93.77 56.69 92.7 56.7 92.7 56.7 L 92.7 56 C 92.7 56 92.69 55.96 92.7 56 C 92.4 56.5 91.8 56.8 91.2 56.8 C 90.1 56.8 89.5 56.3 89.5 55.2 C 89.52 55.25 89.5 50.6 89.5 50.6 L 90.5 50.6 C 90.5 50.6 90.5 54.83 90.5 54.8 C 90.5 55.6 90.8 56.1 91.5 56.1 C 92.1 56.1 92.7 55.7 92.7 54.6 C 92.73 54.65 92.7 50.6 92.7 50.6 Z M 97.3 56.8 C 96 56.8 95.2 56.2 95.2 54.8 C 95.2 54.8 96.3 54.8 96.3 54.8 C 96.3 55.2 96.3 56 97.3 56 C 97.9 56 98.4 55.7 98.4 55.1 C 98.4 54 95.3 54 95.3 52.2 C 95.3 51.5 95.7 50.5 97.4 50.5 C 98.5 50.5 99.4 51 99.3 52.2 C 99.3 52.2 98.2 52.2 98.2 52.2 C 98.3 51.6 97.9 51.3 97.3 51.3 C 96.8 51.3 96.4 51.5 96.4 52.1 C 96.4 53.1 99.4 53.1 99.4 55 C 99.4 56.3 98.5 56.8 97.3 56.8 Z M 104.4 54.9 C 104.4 55.5 104.7 56 105.3 56 C 105.9 56 106.7 55.6 106.6 53.7 C 105.6 53.7 104.4 53.6 104.4 54.9 Z M 106.6 55.8 C 106.6 55.8 106.57 55.81 106.6 55.8 C 106.3 56.5 105.8 56.8 105 56.8 C 103.8 56.8 103.4 56 103.4 54.8 C 103.4 53 105.2 52.9 106.6 52.9 C 106.6 52.1 106.6 51.3 105.6 51.3 C 104.9 51.3 104.5 51.7 104.6 52.3 C 104.6 52.3 103.5 52.3 103.5 52.3 C 103.6 51 104.3 50.5 105.6 50.5 C 107.1 50.5 107.6 51.3 107.6 52.3 C 107.6 52.3 107.6 55.2 107.6 55.2 C 107.6 55.7 107.6 56.2 107.7 56.7 C 107.68 56.69 106.6 56.7 106.6 56.7 L 106.6 55.8 Z M 111.5 51.3 C 110.5 51.3 110.3 52.2 110.3 53.8 C 110.3 54.7 110.3 56 111.6 56 C 112.7 56 112.7 54.6 112.7 53.4 C 112.7 52.6 112.6 51.3 111.5 51.3 Z M 112.7 48 L 113.7 48 L 113.7 56.7 L 112.7 56.7 L 112.7 56 C 112.7 56 112.66 55.97 112.7 56 C 112.3 56.5 111.9 56.8 111.3 56.8 C 110.3 56.8 109.3 56.4 109.3 53.8 C 109.3 52.2 109.4 50.5 111.3 50.5 C 111.9 50.5 112.3 50.8 112.6 51.2 C 112.65 51.24 112.7 51.2 112.7 51.2 L 112.7 48 Z M 114.8 50.6 L 115.9 50.6 L 117.2 55.8 L 117.3 55.8 L 118.7 50.6 L 119.8 50.6 L 117.9 56.7 L 116.6 56.7 L 114.8 50.6 Z M 124.1 53.2 C 124.1 51.5 123.6 51.3 122.9 51.3 C 122.3 51.3 121.8 51.6 121.8 53.2 C 121.8 53.2 124.1 53.2 124.1 53.2 Z M 121.8 54 C 121.8 55.7 122.2 56 123 56 C 123.7 56 124 55.5 124 54.9 C 124 54.9 125.1 54.9 125.1 54.9 C 125.1 56.2 124.3 56.8 123 56.8 C 121.7 56.8 120.7 56.4 120.7 53.7 C 120.7 52 120.9 50.5 123 50.5 C 124.7 50.5 125.2 51.5 125.2 53.5 C 125.17 53.46 125.2 54 125.2 54 C 125.2 54 121.76 53.98 121.8 54 Z M 127.8 51.5 C 127.8 51.5 127.85 51.54 127.8 51.5 C 128.3 50.6 128.8 50.5 129.7 50.5 C 129.7 50.5 129.7 51.5 129.7 51.5 C 129.6 51.5 129.5 51.5 129.5 51.5 C 129.4 51.5 129.3 51.5 129.2 51.5 C 128.1 51.5 127.8 52.3 127.8 53.1 C 127.82 53.11 127.8 56.7 127.8 56.7 L 126.8 56.7 L 126.8 50.6 L 127.8 50.6 L 127.8 51.5 Z M 132.6 56.8 C 131.3 56.8 130.5 56.2 130.5 54.8 C 130.5 54.8 131.6 54.8 131.6 54.8 C 131.6 55.2 131.6 56 132.6 56 C 133.2 56 133.7 55.7 133.7 55.1 C 133.7 54 130.6 54 130.6 52.2 C 130.6 51.5 131 50.5 132.7 50.5 C 133.8 50.5 134.7 51 134.7 52.2 C 134.7 52.2 133.6 52.2 133.6 52.2 C 133.6 51.6 133.2 51.3 132.6 51.3 C 132.1 51.3 131.7 51.5 131.7 52.1 C 131.7 53.1 134.7 53.1 134.7 55 C 134.7 56.3 133.8 56.8 132.6 56.8 Z M 139.5 53.2 C 139.5 51.5 139 51.3 138.2 51.3 C 137.6 51.3 137.1 51.6 137.1 53.2 C 137.1 53.2 139.5 53.2 139.5 53.2 Z M 137.1 54 C 137.1 55.7 137.5 56 138.3 56 C 139 56 139.3 55.5 139.4 54.9 C 139.4 54.9 140.4 54.9 140.4 54.9 C 140.4 56.2 139.6 56.8 138.3 56.8 C 137.1 56.8 136 56.4 136 53.7 C 136 52 136.2 50.5 138.3 50.5 C 140.1 50.5 140.5 51.5 140.5 53.5 C 140.5 53.46 140.5 54 140.5 54 C 140.5 54 137.09 53.98 137.1 54 Z M 148.1 53.2 C 148.1 51.5 147.6 51.3 146.9 51.3 C 146.3 51.3 145.8 51.6 145.8 53.2 C 145.8 53.2 148.1 53.2 148.1 53.2 Z M 145.8 54 C 145.8 55.7 146.2 56 147 56 C 147.6 56 148 55.5 148 54.9 C 148 54.9 149.1 54.9 149.1 54.9 C 149.1 56.2 148.3 56.8 147 56.8 C 145.7 56.8 144.7 56.4 144.7 53.7 C 144.7 52 144.9 50.5 147 50.5 C 148.7 50.5 149.2 51.5 149.2 53.5 C 149.16 53.46 149.2 54 149.2 54 C 149.2 54 145.75 53.98 145.8 54 Z M 150.1 50.6 L 151.2 50.6 L 152.6 55.8 L 152.6 55.8 L 154 50.6 L 155.1 50.6 L 153.2 56.7 L 151.9 56.7 L 150.1 50.6 Z M 159.4 53.2 C 159.4 51.5 159 51.3 158.2 51.3 C 157.6 51.3 157.1 51.6 157.1 53.2 C 157.1 53.2 159.4 53.2 159.4 53.2 Z M 157.1 54 C 157.1 55.7 157.5 56 158.3 56 C 159 56 159.3 55.5 159.4 54.9 C 159.4 54.9 160.4 54.9 160.4 54.9 C 160.4 56.2 159.6 56.8 158.3 56.8 C 157 56.8 156 56.4 156 53.7 C 156 52 156.2 50.5 158.3 50.5 C 160.1 50.5 160.5 51.5 160.5 53.5 C 160.49 53.46 160.5 54 160.5 54 C 160.5 54 157.08 53.98 157.1 54 Z M 165.4 56.7 C 165.4 56.7 165.41 52.49 165.4 52.5 C 165.4 51.8 165.2 51.3 164.3 51.3 C 163.3 51.3 163.1 52.3 163.1 53.1 C 163.1 53.1 163.1 56.7 163.1 56.7 L 162.1 56.7 C 162.1 56.7 162.12 51.89 162.1 51.9 C 162.1 51.5 162.1 51 162.1 50.6 C 162.06 50.63 163.1 50.6 163.1 50.6 L 163.1 51.4 C 163.1 51.4 163.15 51.41 163.2 51.4 C 163.5 50.7 164 50.5 164.8 50.5 C 166.1 50.5 166.4 51.3 166.4 52.5 C 166.39 52.49 166.4 56.7 166.4 56.7 L 165.4 56.7 Z M 168.2 50.6 L 168.2 49.5 L 169.2 49 L 169.2 50.6 L 170.5 50.6 L 170.5 51.4 L 169.2 51.4 C 169.2 51.4 169.21 55.08 169.2 55.1 C 169.2 55.5 169.2 56 170.1 56 C 170.2 56 170.3 55.9 170.6 55.9 C 170.6 55.9 170.6 56.7 170.6 56.7 C 170.2 56.7 169.9 56.8 169.6 56.8 C 168.6 56.8 168.2 56.4 168.2 55.7 C 168.23 55.68 168.2 51.4 168.2 51.4 L 167.2 51.4 L 167.2 50.6 L 168.2 50.6 Z M 175 58.1 C 174.5 56.4 173.9 54.7 173.9 52.9 C 173.9 51.1 174.5 49.4 175.1 47.6 C 175.1 47.6 175.8 47.6 175.8 47.6 C 175.3 49.4 175 51.2 175 53 C 175 54.7 175.3 56.4 175.7 58.1 C 175.7 58.1 175 58.1 175 58.1 Z M 178.4 56.7 L 177.4 56.7 L 177.4 48 L 178.4 48 L 178.4 56.7 Z M 181 54.9 C 181 55.5 181.3 56 182 56 C 182.6 56 183.3 55.6 183.2 53.7 C 182.3 53.7 181 53.6 181 54.9 Z M 183.2 55.8 C 183.2 55.8 183.22 55.81 183.2 55.8 C 182.9 56.5 182.4 56.8 181.7 56.8 C 180.4 56.8 180 56 180 54.8 C 180 53 181.8 52.9 183.2 52.9 C 183.2 52.1 183.3 51.3 182.2 51.3 C 181.5 51.3 181.2 51.7 181.2 52.3 C 181.2 52.3 180.2 52.3 180.2 52.3 C 180.2 51 180.9 50.5 182.2 50.5 C 183.8 50.5 184.2 51.3 184.2 52.3 C 184.2 52.3 184.2 55.2 184.2 55.2 C 184.2 55.7 184.2 56.2 184.3 56.7 C 184.32 56.69 183.2 56.7 183.2 56.7 L 183.2 55.8 Z M 187.1 51.5 C 187.1 51.5 187.16 51.54 187.2 51.5 C 187.6 50.6 188.1 50.5 189 50.5 C 189 50.5 189 51.5 189 51.5 C 189 51.5 188.9 51.5 188.8 51.5 C 188.7 51.5 188.6 51.5 188.5 51.5 C 187.4 51.5 187.1 52.3 187.1 53.1 C 187.14 53.11 187.1 56.7 187.1 56.7 L 186.2 56.7 L 186.2 50.6 L 187.1 50.6 L 187.1 51.5 Z M 191.9 55.6 L 192 55.6 L 193.4 50.6 L 194.5 50.6 L 191.7 59 L 190.7 59 L 191.4 56.7 L 189.3 50.6 L 190.5 50.6 L 191.9 55.6 Z M 198.7 56.7 C 198.7 56.7 198.73 52.49 198.7 52.5 C 198.7 51.8 198.5 51.3 197.7 51.3 C 196.6 51.3 196.4 52.3 196.4 53.1 C 196.43 53.1 196.4 56.7 196.4 56.7 L 195.4 56.7 C 195.4 56.7 195.44 51.89 195.4 51.9 C 195.4 51.5 195.4 51 195.4 50.6 C 195.38 50.63 196.4 50.6 196.4 50.6 L 196.4 51.4 C 196.4 51.4 196.48 51.41 196.5 51.4 C 196.9 50.7 197.3 50.5 198.1 50.5 C 199.4 50.5 199.7 51.3 199.7 52.5 C 199.72 52.49 199.7 56.7 199.7 56.7 L 198.7 56.7 Z M 203.5 51.3 C 202.4 51.3 202.3 52.7 202.3 53.5 C 202.3 55.4 202.8 55.9 203.5 55.9 C 204.7 55.9 204.7 54.5 204.7 53.6 C 204.7 52.7 204.7 51.3 203.5 51.3 Z M 204.6 50.6 L 205.6 50.6 C 205.6 50.6 205.63 57.3 205.6 57.3 C 205.6 58.7 204.7 59 203.4 59 C 202.4 59 201.5 58.5 201.6 57.4 C 201.6 57.4 202.7 57.4 202.7 57.4 C 202.7 57.9 203.1 58.2 203.6 58.2 C 204.3 58.2 204.6 57.8 204.6 57.2 C 204.65 57.19 204.6 55.9 204.6 55.9 C 204.6 55.9 204.61 55.93 204.6 55.9 C 204.4 56.4 203.8 56.7 203.3 56.7 C 201.6 56.7 201.3 55.3 201.3 53.5 C 201.3 50.7 202.7 50.5 203.2 50.5 C 203.8 50.5 204.3 50.8 204.6 51.4 C 204.62 51.37 204.6 51.4 204.6 51.4 L 204.6 50.6 Z M 210.8 53.2 C 210.8 51.5 210.3 51.3 209.6 51.3 C 208.9 51.3 208.4 51.6 208.4 53.2 C 208.4 53.2 210.8 53.2 210.8 53.2 Z M 208.4 54 C 208.4 55.7 208.9 56 209.6 56 C 210.3 56 210.6 55.5 210.7 54.9 C 210.7 54.9 211.8 54.9 211.8 54.9 C 211.8 56.2 210.9 56.8 209.7 56.8 C 208.4 56.8 207.3 56.4 207.3 53.7 C 207.3 52 207.6 50.5 209.7 50.5 C 211.4 50.5 211.8 51.5 211.8 53.5 C 211.81 53.46 211.8 54 211.8 54 C 211.8 54 208.4 53.98 208.4 54 Z M 214.3 54.9 C 214.3 55.5 214.6 56 215.3 56 C 215.9 56 216.6 55.6 216.5 53.7 C 215.6 53.7 214.3 53.6 214.3 54.9 Z M 216.6 55.8 C 216.6 55.8 216.54 55.81 216.5 55.8 C 216.2 56.5 215.8 56.8 215 56.8 C 213.7 56.8 213.4 56 213.4 54.8 C 213.4 53 215.2 52.9 216.5 52.9 C 216.6 52.1 216.6 51.3 215.5 51.3 C 214.9 51.3 214.5 51.7 214.6 52.3 C 214.6 52.3 213.5 52.3 213.5 52.3 C 213.6 51 214.3 50.5 215.6 50.5 C 217.1 50.5 217.5 51.3 217.5 52.3 C 217.5 52.3 217.5 55.2 217.5 55.2 C 217.5 55.7 217.6 56.2 217.6 56.7 C 217.64 56.69 216.6 56.7 216.6 56.7 L 216.6 55.8 Z M 220.4 56.7 L 219.4 56.7 L 219.4 48 L 220.4 48 L 220.4 56.7 Z M 225.7 54.9 C 225.7 55.5 226 56 226.6 56 C 227.2 56 228 55.6 227.9 53.7 C 226.9 53.7 225.7 53.6 225.7 54.9 Z M 227.9 55.8 C 227.9 55.8 227.87 55.81 227.9 55.8 C 227.6 56.5 227.1 56.8 226.3 56.8 C 225.1 56.8 224.7 56 224.7 54.8 C 224.7 53 226.5 52.9 227.9 52.9 C 227.9 52.1 227.9 51.3 226.8 51.3 C 226.2 51.3 225.8 51.7 225.9 52.3 C 225.9 52.3 224.8 52.3 224.8 52.3 C 224.9 51 225.6 50.5 226.9 50.5 C 228.4 50.5 228.9 51.3 228.9 52.3 C 228.9 52.3 228.9 55.2 228.9 55.2 C 228.9 55.7 228.9 56.2 229 56.7 C 228.97 56.69 227.9 56.7 227.9 56.7 L 227.9 55.8 Z M 230.9 50.6 L 230.9 49.5 L 231.9 49 L 231.9 50.6 L 233.2 50.6 L 233.2 51.4 L 231.9 51.4 C 231.9 51.4 231.86 55.08 231.9 55.1 C 231.9 55.5 231.9 56 232.8 56 C 232.8 56 233 55.9 233.2 55.9 C 233.2 55.9 233.2 56.7 233.2 56.7 C 232.9 56.7 232.6 56.8 232.2 56.8 C 231.3 56.8 230.9 56.4 230.9 55.7 C 230.88 55.68 230.9 51.4 230.9 51.4 L 229.9 51.4 L 229.9 50.6 L 230.9 50.6 Z M 234.2 50.6 L 234.2 49.5 L 235.2 49 L 235.2 50.6 L 236.5 50.6 L 236.5 51.4 L 235.2 51.4 C 235.2 51.4 235.2 55.08 235.2 55.1 C 235.2 55.5 235.2 56 236.1 56 C 236.2 56 236.3 55.9 236.5 55.9 C 236.5 55.9 236.5 56.7 236.5 56.7 C 236.2 56.7 235.9 56.8 235.6 56.8 C 234.6 56.8 234.2 56.4 234.2 55.7 C 234.22 55.68 234.2 51.4 234.2 51.4 L 233.2 51.4 L 233.2 50.6 L 234.2 50.6 Z M 238.3 54.9 C 238.3 55.5 238.6 56 239.3 56 C 239.9 56 240.6 55.6 240.5 53.7 C 239.6 53.7 238.3 53.6 238.3 54.9 Z M 240.6 55.8 C 240.6 55.8 240.54 55.81 240.5 55.8 C 240.2 56.5 239.8 56.8 239 56.8 C 237.7 56.8 237.4 56 237.4 54.8 C 237.4 53 239.2 52.9 240.5 52.9 C 240.6 52.1 240.6 51.3 239.5 51.3 C 238.9 51.3 238.5 51.7 238.6 52.3 C 238.6 52.3 237.5 52.3 237.5 52.3 C 237.6 51 238.3 50.5 239.6 50.5 C 241.1 50.5 241.5 51.3 241.5 52.3 C 241.5 52.3 241.5 55.2 241.5 55.2 C 241.5 55.7 241.6 56.2 241.6 56.7 C 241.64 56.69 240.6 56.7 240.6 56.7 L 240.6 55.8 Z M 246.6 52.6 C 246.6 51.6 246.1 51.3 245.8 51.3 C 245 51.3 244.5 51.7 244.5 53.3 C 244.5 55.3 244.8 56 245.8 56 C 246 56 246.7 55.8 246.6 54.7 C 246.6 54.7 247.7 54.7 247.7 54.7 C 247.7 56.4 246.4 56.8 245.8 56.8 C 244.5 56.8 243.5 56.4 243.5 53.7 C 243.5 52 243.7 50.5 245.8 50.5 C 247 50.5 247.7 51.2 247.6 52.6 C 247.6 52.6 246.6 52.6 246.6 52.6 Z M 250.4 56.7 L 249.4 56.7 L 249.4 48 L 250.4 48 L 250.4 53.2 L 250.5 53.2 L 252.3 50.6 L 253.5 50.6 L 251.5 53.2 L 253.9 56.7 L 252.6 56.7 L 250.5 53.3 L 250.4 53.3 L 250.4 56.7 Z M 254.8 58.1 C 255.2 56.4 255.5 54.7 255.5 53 C 255.5 51.2 255.2 49.4 254.7 47.6 C 254.7 47.6 255.4 47.6 255.4 47.6 C 256 49.4 256.6 51.1 256.6 52.9 C 256.6 54.7 256 56.4 255.5 58.1 C 255.5 58.1 254.8 58.1 254.8 58.1 Z M 260 50.6 L 261.1 50.6 L 262.2 55.8 L 262.2 55.8 L 263.6 50.6 L 265 50.6 L 266.2 55.8 L 266.2 55.8 L 267.4 50.6 L 268.5 50.6 L 266.8 56.7 L 265.5 56.7 L 264.2 51.5 L 264.2 51.5 L 262.8 56.7 L 261.5 56.7 L 260 50.6 Z M 270.3 54.9 C 270.3 55.5 270.6 56 271.3 56 C 271.9 56 272.6 55.6 272.5 53.7 C 271.6 53.7 270.3 53.6 270.3 54.9 Z M 272.6 55.8 C 272.6 55.8 272.53 55.81 272.5 55.8 C 272.2 56.5 271.8 56.8 271 56.8 C 269.7 56.8 269.4 56 269.4 54.8 C 269.4 53 271.2 52.9 272.5 52.9 C 272.6 52.1 272.6 51.3 271.5 51.3 C 270.9 51.3 270.5 51.7 270.6 52.3 C 270.6 52.3 269.5 52.3 269.5 52.3 C 269.5 51 270.3 50.5 271.5 50.5 C 273.1 50.5 273.5 51.3 273.5 52.3 C 273.5 52.3 273.5 55.2 273.5 55.2 C 273.5 55.7 273.6 56.2 273.6 56.7 C 273.63 56.69 272.6 56.7 272.6 56.7 L 272.6 55.8 Z M 277.2 56.8 C 275.9 56.8 275.1 56.2 275.1 54.8 C 275.1 54.8 276.3 54.8 276.3 54.8 C 276.3 55.2 276.3 56 277.3 56 C 277.8 56 278.3 55.7 278.3 55.1 C 278.3 54 275.3 54 275.3 52.2 C 275.3 51.5 275.7 50.5 277.4 50.5 C 278.4 50.5 279.4 51 279.3 52.2 C 279.3 52.2 278.2 52.2 278.2 52.2 C 278.2 51.6 277.9 51.3 277.2 51.3 C 276.7 51.3 276.3 51.5 276.3 52.1 C 276.3 53.1 279.3 53.1 279.3 55 C 279.3 56.3 278.4 56.8 277.2 56.8 Z " stroke="none" fill="#555555"/>  </g>  <g id="Polygon201658">    <path d="M 5.6 34.6 L 5.6 33.5 L 6.6 33 L 6.6 34.6 L 7.9 34.6 L 7.9 35.4 L 6.6 35.4 C 6.6 35.4 6.61 39.08 6.6 39.1 C 6.6 39.5 6.6 40 7.5 40 C 7.6 40 7.7 39.9 8 39.9 C 8 39.9 8 40.7 8 40.7 C 7.6 40.7 7.3 40.8 7 40.8 C 6.1 40.8 5.6 40.4 5.6 39.7 C 5.63 39.68 5.6 35.4 5.6 35.4 L 4.6 35.4 L 4.6 34.6 L 5.6 34.6 Z M 12.1 40.7 C 12.1 40.7 12.15 36.58 12.1 36.6 C 12.1 35.8 11.9 35.3 11.1 35.3 C 10.1 35.3 9.8 36.1 9.8 37.1 C 9.83 37.12 9.8 40.7 9.8 40.7 L 8.8 40.7 L 8.8 32 L 9.8 32 L 9.8 35.4 C 9.8 35.4 9.88 35.41 9.9 35.4 C 10.3 34.7 10.7 34.5 11.5 34.5 C 12.6 34.5 13.1 35 13.1 36.4 C 13.13 36.39 13.1 40.7 13.1 40.7 L 12.1 40.7 Z M 18.2 37.2 C 18.2 35.5 17.7 35.3 17 35.3 C 16.3 35.3 15.8 35.6 15.8 37.2 C 15.8 37.2 18.2 37.2 18.2 37.2 Z M 15.8 38 C 15.8 39.7 16.3 40 17 40 C 17.7 40 18.1 39.5 18.1 38.9 C 18.1 38.9 19.2 38.9 19.2 38.9 C 19.2 40.2 18.3 40.8 17.1 40.8 C 15.8 40.8 14.8 40.4 14.8 37.7 C 14.8 36 15 34.5 17.1 34.5 C 18.8 34.5 19.2 35.5 19.2 37.5 C 19.23 37.46 19.2 38 19.2 38 C 19.2 38 15.82 37.98 15.8 38 Z M 24.9 35.9 C 24.9 35.9 26.09 35.91 26.1 35.9 C 26.5 35.9 27.6 35.8 27.6 34.4 C 27.6 33.1 26.6 33 26.4 33 C 26.4 32.98 24.9 33 24.9 33 L 24.9 35.9 Z M 23.8 40.7 L 23.8 32 C 23.8 32 26.34 32.02 26.3 32 C 27.5 32 28.8 32.5 28.8 34.5 C 28.8 36.5 27.2 36.9 26.3 36.9 C 26.33 36.87 24.9 36.9 24.9 36.9 L 24.9 40.7 L 23.8 40.7 Z M 33.5 40.7 C 33.5 40.7 33.48 36.58 33.5 36.6 C 33.5 35.8 33.2 35.3 32.4 35.3 C 31.4 35.3 31.2 36.1 31.2 37.1 C 31.17 37.12 31.2 40.7 31.2 40.7 L 30.2 40.7 L 30.2 32 L 31.2 32 L 31.2 35.4 C 31.2 35.4 31.21 35.41 31.2 35.4 C 31.6 34.7 32.1 34.5 32.9 34.5 C 33.9 34.5 34.5 35 34.5 36.4 C 34.47 36.39 34.5 40.7 34.5 40.7 L 33.5 40.7 Z M 37.1 38.9 C 37.1 39.5 37.4 40 38 40 C 38.6 40 39.4 39.6 39.3 37.7 C 38.4 37.7 37.1 37.6 37.1 38.9 Z M 39.3 39.8 C 39.3 39.8 39.29 39.81 39.3 39.8 C 39 40.5 38.5 40.8 37.8 40.8 C 36.5 40.8 36.1 40 36.1 38.8 C 36.1 37 37.9 36.9 39.3 36.9 C 39.3 36.1 39.3 35.3 38.3 35.3 C 37.6 35.3 37.3 35.7 37.3 36.3 C 37.3 36.3 36.3 36.3 36.3 36.3 C 36.3 35 37 34.5 38.3 34.5 C 39.9 34.5 40.3 35.3 40.3 36.3 C 40.3 36.3 40.3 39.2 40.3 39.2 C 40.3 39.7 40.3 40.2 40.4 40.7 C 40.39 40.69 39.3 40.7 39.3 40.7 L 39.3 39.8 Z M 44 40.8 C 42.7 40.8 41.9 40.2 41.9 38.8 C 41.9 38.8 43 38.8 43 38.8 C 43 39.2 43 40 44 40 C 44.6 40 45.1 39.7 45.1 39.1 C 45.1 38 42 38 42 36.2 C 42 35.5 42.4 34.5 44.1 34.5 C 45.2 34.5 46.1 35 46 36.2 C 46 36.2 45 36.2 45 36.2 C 45 35.6 44.6 35.3 44 35.3 C 43.5 35.3 43.1 35.5 43.1 36.1 C 43.1 37.1 46.1 37.1 46.1 39 C 46.1 40.3 45.2 40.8 44 40.8 Z M 50.8 37.2 C 50.8 35.5 50.4 35.3 49.6 35.3 C 49 35.3 48.5 35.6 48.5 37.2 C 48.5 37.2 50.8 37.2 50.8 37.2 Z M 48.5 38 C 48.5 39.7 48.9 40 49.7 40 C 50.4 40 50.7 39.5 50.8 38.9 C 50.8 38.9 51.8 38.9 51.8 38.9 C 51.8 40.2 51 40.8 49.7 40.8 C 48.4 40.8 47.4 40.4 47.4 37.7 C 47.4 36 47.6 34.5 49.7 34.5 C 51.5 34.5 51.9 35.5 51.9 37.5 C 51.89 37.46 51.9 38 51.9 38 C 51.9 38 48.48 37.98 48.5 38 Z M 57.4 35.8 C 58.3 35.9 59.1 35.5 59.1 34.5 C 59.1 33.7 58.7 33.2 57.9 33.2 C 57 33.2 56.8 33.8 56.9 34.5 C 56.9 34.5 55.8 34.5 55.8 34.5 C 55.7 33.1 56.4 32.2 57.9 32.2 C 59.3 32.2 60.2 32.9 60.2 34.4 C 60.2 36 59 36.2 58.5 36.3 C 58.5 36.3 58.5 36.3 58.5 36.3 C 59.8 36.5 60.2 37.2 60.2 38.5 C 60.2 40.1 59.4 40.9 57.8 40.9 C 55.4 40.9 55.6 38.9 55.6 38.4 C 55.6 38.4 56.7 38.4 56.7 38.4 C 56.7 39.2 56.9 39.9 57.9 39.9 C 58.8 39.9 59.1 39.3 59.1 38.4 C 59.1 37.1 58.6 36.8 57.4 36.8 C 57.4 36.8 57.4 35.8 57.4 35.8 Z M 67.6 37.6 C 67.6 36.6 67.6 35.3 66.4 35.3 C 65.1 35.3 65.2 37 65.2 37.9 C 65.2 38.7 65.3 40 66.4 40 C 67.4 40 67.6 39.2 67.6 37.6 Z M 65.2 35.3 C 65.2 35.3 65.27 35.35 65.3 35.3 C 65.6 34.8 66 34.5 66.7 34.5 C 67.6 34.5 68.6 34.9 68.6 37.6 C 68.6 39.1 68.6 40.8 66.6 40.8 C 66 40.8 65.6 40.6 65.3 40.1 C 65.28 40.08 65.2 40.1 65.2 40.1 L 65.2 43 L 64.3 43 L 64.3 34.6 L 65.2 34.6 L 65.2 35.3 Z M 71.1 40.7 L 70.2 40.7 L 70.2 34.6 L 71.1 34.6 L 71.1 40.7 Z M 70.1 32 L 71.2 32 L 71.2 33.1 L 70.1 33.1 L 70.1 32 Z M 72.1 34.6 L 73.3 34.6 L 74.6 39.8 L 74.6 39.8 L 76.1 34.6 L 77.1 34.6 L 75.2 40.7 L 73.9 40.7 L 72.1 34.6 Z M 81.6 37.3 C 81.6 35.7 81.1 35.3 80.3 35.3 C 79.5 35.3 79 35.7 79 37.3 C 79 39.3 79.3 40 80.3 40 C 81.3 40 81.6 39.3 81.6 37.3 Z M 78 37.7 C 78 36 78.2 34.5 80.3 34.5 C 82.4 34.5 82.6 36 82.6 37.7 C 82.6 40.4 81.6 40.8 80.3 40.8 C 79 40.8 78 40.4 78 37.7 Z M 84.3 34.6 L 84.3 33.5 L 85.3 33 L 85.3 34.6 L 86.6 34.6 L 86.6 35.4 L 85.3 35.4 C 85.3 35.4 85.26 39.08 85.3 39.1 C 85.3 39.5 85.3 40 86.2 40 C 86.2 40 86.4 39.9 86.6 39.9 C 86.6 39.9 86.6 40.7 86.6 40.7 C 86.3 40.7 86 40.8 85.6 40.8 C 84.7 40.8 84.3 40.4 84.3 39.7 C 84.28 39.68 84.3 35.4 84.3 35.4 L 83.3 35.4 L 83.3 34.6 L 84.3 34.6 Z M 88.4 38.9 C 88.4 39.5 88.7 40 89.4 40 C 90 40 90.7 39.6 90.6 37.7 C 89.7 37.7 88.4 37.6 88.4 38.9 Z M 90.6 39.8 C 90.6 39.8 90.6 39.81 90.6 39.8 C 90.3 40.5 89.8 40.8 89.1 40.8 C 87.8 40.8 87.4 40 87.4 38.8 C 87.4 37 89.2 36.9 90.6 36.9 C 90.6 36.1 90.6 35.3 89.6 35.3 C 88.9 35.3 88.6 35.7 88.6 36.3 C 88.6 36.3 87.6 36.3 87.6 36.3 C 87.6 35 88.3 34.5 89.6 34.5 C 91.2 34.5 91.6 35.3 91.6 36.3 C 91.6 36.3 91.6 39.2 91.6 39.2 C 91.6 39.7 91.6 40.2 91.7 40.7 C 91.71 40.69 90.6 40.7 90.6 40.7 L 90.6 39.8 Z M 94.5 40.7 L 93.5 40.7 L 93.5 32 L 94.5 32 L 94.5 40.7 Z M 100.6 40.8 C 99.3 40.8 98.5 40.2 98.5 38.8 C 98.5 38.8 99.6 38.8 99.6 38.8 C 99.6 39.2 99.7 40 100.7 40 C 101.2 40 101.7 39.7 101.7 39.1 C 101.7 38 98.7 38 98.7 36.2 C 98.7 35.5 99.1 34.5 100.8 34.5 C 101.8 34.5 102.8 35 102.7 36.2 C 102.7 36.2 101.6 36.2 101.6 36.2 C 101.6 35.6 101.3 35.3 100.6 35.3 C 100.1 35.3 99.7 35.5 99.7 36.1 C 99.7 37.1 102.7 37.1 102.7 39 C 102.7 40.3 101.8 40.8 100.6 40.8 Z M 104.3 34.6 L 104.3 33.5 L 105.3 33 L 105.3 34.6 L 106.6 34.6 L 106.6 35.4 L 105.3 35.4 C 105.3 35.4 105.25 39.08 105.3 39.1 C 105.3 39.5 105.3 40 106.2 40 C 106.2 40 106.4 39.9 106.6 39.9 C 106.6 39.9 106.6 40.7 106.6 40.7 C 106.3 40.7 105.9 40.8 105.6 40.8 C 104.7 40.8 104.3 40.4 104.3 39.7 C 104.27 39.68 104.3 35.4 104.3 35.4 L 103.3 35.4 L 103.3 34.6 L 104.3 34.6 Z M 110.7 34.6 L 111.7 34.6 C 111.7 34.6 111.72 39.43 111.7 39.4 C 111.7 39.8 111.7 40.3 111.8 40.7 C 111.78 40.69 110.7 40.7 110.7 40.7 L 110.7 40 C 110.7 40 110.7 39.96 110.7 40 C 110.4 40.5 109.8 40.8 109.2 40.8 C 108.1 40.8 107.5 40.3 107.5 39.2 C 107.53 39.25 107.5 34.6 107.5 34.6 L 108.5 34.6 C 108.5 34.6 108.52 38.83 108.5 38.8 C 108.5 39.6 108.9 40.1 109.5 40.1 C 110.1 40.1 110.7 39.7 110.7 38.6 C 110.74 38.65 110.7 34.6 110.7 34.6 Z M 115.6 35.3 C 114.5 35.3 114.4 36.2 114.4 37.8 C 114.4 38.7 114.4 40 115.6 40 C 116.7 40 116.7 38.6 116.7 37.4 C 116.7 36.6 116.7 35.3 115.6 35.3 Z M 116.7 32 L 117.7 32 L 117.7 40.7 L 116.7 40.7 L 116.7 40 C 116.7 40 116.68 39.97 116.7 40 C 116.3 40.5 115.9 40.8 115.3 40.8 C 114.3 40.8 113.3 40.4 113.3 37.8 C 113.3 36.2 113.4 34.5 115.3 34.5 C 115.9 34.5 116.3 34.8 116.7 35.2 C 116.67 35.24 116.7 35.2 116.7 35.2 L 116.7 32 Z M 121.3 39.6 L 121.3 39.6 L 122.8 34.6 L 123.9 34.6 L 121.1 43 L 120.1 43 L 120.8 40.7 L 118.7 34.6 L 119.9 34.6 L 121.3 39.6 Z M 125.4 40.7 L 124.3 40.7 L 124.3 39.4 L 125.4 39.4 L 125.4 40.7 Z M 128.2 36.7 L 127.6 36.7 L 127.6 32.5 L 126.8 33 C 126.8 33 126.83 32.42 126.8 32.4 C 127 32.3 127.5 32 127.7 31.8 C 127.65 31.84 128.2 31.8 128.2 31.8 L 128.2 36.7 Z " stroke="none" fill="#555555"/>  </g>  <g id="Polygon201657">    <path d="M 8.9 21.6 C 8.9 20.6 8.9 19.3 7.7 19.3 C 6.5 19.3 6.6 21 6.6 21.9 C 6.6 22.7 6.6 24 7.7 24 C 8.8 24 8.9 23.2 8.9 21.6 Z M 6.6 19.3 C 6.6 19.3 6.61 19.35 6.6 19.3 C 7 18.8 7.4 18.5 8 18.5 C 9 18.5 10 18.9 10 21.6 C 10 23.1 9.9 24.8 8 24.8 C 7.4 24.8 7 24.6 6.6 24.1 C 6.63 24.08 6.6 24.1 6.6 24.1 L 6.6 27 L 5.6 27 L 5.6 18.6 L 6.6 18.6 L 6.6 19.3 Z M 12.5 19.5 C 12.5 19.5 12.57 19.54 12.6 19.5 C 13 18.6 13.5 18.5 14.4 18.5 C 14.4 18.5 14.4 19.5 14.4 19.5 C 14.4 19.5 14.3 19.5 14.2 19.5 C 14.1 19.5 14 19.5 13.9 19.5 C 12.8 19.5 12.5 20.3 12.5 21.1 C 12.54 21.11 12.5 24.7 12.5 24.7 L 11.6 24.7 L 11.6 18.6 L 12.5 18.6 L 12.5 19.5 Z M 18.8 18.6 L 19.7 18.6 C 19.7 18.6 19.74 23.43 19.7 23.4 C 19.7 23.8 19.8 24.3 19.8 24.7 C 19.8 24.69 18.8 24.7 18.8 24.7 L 18.8 24 C 18.8 24 18.72 23.96 18.7 24 C 18.4 24.5 17.8 24.8 17.2 24.8 C 16.1 24.8 15.6 24.3 15.6 23.2 C 15.56 23.25 15.6 18.6 15.6 18.6 L 16.5 18.6 C 16.5 18.6 16.54 22.83 16.5 22.8 C 16.5 23.6 16.9 24.1 17.6 24.1 C 18.1 24.1 18.8 23.7 18.8 22.6 C 18.76 22.65 18.8 18.6 18.8 18.6 Z M 22.5 19.5 C 22.5 19.5 22.56 19.54 22.6 19.5 C 23 18.6 23.5 18.5 24.4 18.5 C 24.4 18.5 24.4 19.5 24.4 19.5 C 24.4 19.5 24.3 19.5 24.2 19.5 C 24.1 19.5 24 19.5 23.9 19.5 C 22.8 19.5 22.5 20.3 22.5 21.1 C 22.54 21.11 22.5 24.7 22.5 24.7 L 21.6 24.7 L 21.6 18.6 L 22.5 18.6 L 22.5 19.5 Z M 26.5 24.7 L 25.5 24.7 L 25.5 18.6 L 26.5 18.6 L 26.5 24.7 Z M 25.4 16 L 26.5 16 L 26.5 17.1 L 25.4 17.1 L 25.4 16 Z M 28.3 18.6 L 28.3 17.5 L 29.3 17 L 29.3 18.6 L 30.6 18.6 L 30.6 19.4 L 29.3 19.4 C 29.3 19.4 29.27 23.08 29.3 23.1 C 29.3 23.5 29.3 24 30.2 24 C 30.2 24 30.4 23.9 30.6 23.9 C 30.6 23.9 30.6 24.7 30.6 24.7 C 30.3 24.7 30 24.8 29.6 24.8 C 28.7 24.8 28.3 24.4 28.3 23.7 C 28.29 23.68 28.3 19.4 28.3 19.4 L 27.3 19.4 L 27.3 18.6 L 28.3 18.6 Z M 34.8 18.6 L 35.7 18.6 C 35.7 18.6 35.74 23.43 35.7 23.4 C 35.7 23.8 35.8 24.3 35.8 24.7 C 35.8 24.69 34.8 24.7 34.8 24.7 L 34.8 24 C 34.8 24 34.72 23.96 34.7 24 C 34.4 24.5 33.8 24.8 33.2 24.8 C 32.1 24.8 31.6 24.3 31.6 23.2 C 31.55 23.25 31.6 18.6 31.6 18.6 L 32.5 18.6 C 32.5 18.6 32.53 22.83 32.5 22.8 C 32.5 23.6 32.9 24.1 33.6 24.1 C 34.1 24.1 34.8 23.7 34.8 22.6 C 34.76 22.65 34.8 18.6 34.8 18.6 Z M 39.3 24.8 C 38 24.8 37.2 24.2 37.2 22.8 C 37.2 22.8 38.3 22.8 38.3 22.8 C 38.3 23.2 38.3 24 39.3 24 C 39.9 24 40.4 23.7 40.4 23.1 C 40.4 22 37.4 22 37.4 20.2 C 37.4 19.5 37.7 18.5 39.4 18.5 C 40.5 18.5 41.4 19 41.4 20.2 C 41.4 20.2 40.3 20.2 40.3 20.2 C 40.3 19.6 40 19.3 39.3 19.3 C 38.8 19.3 38.4 19.5 38.4 20.1 C 38.4 21.1 41.4 21.1 41.4 23 C 41.4 24.3 40.5 24.8 39.3 24.8 Z M 43.9 24.7 L 42.7 24.7 L 42.7 23.4 L 43.9 23.4 L 43.9 24.7 Z M 53.1 16 L 53.1 17 L 50.9 17 L 50.9 24.7 L 49.8 24.7 L 49.8 17 L 47.5 17 L 47.5 16 L 53.1 16 Z M 57.5 24.7 C 57.5 24.7 57.46 20.58 57.5 20.6 C 57.5 19.8 57.2 19.3 56.4 19.3 C 55.4 19.3 55.1 20.1 55.1 21.1 C 55.14 21.12 55.1 24.7 55.1 24.7 L 54.2 24.7 L 54.2 16 L 55.1 16 L 55.1 19.4 C 55.1 19.4 55.19 19.41 55.2 19.4 C 55.6 18.7 56 18.5 56.8 18.5 C 57.9 18.5 58.4 19 58.4 20.4 C 58.44 20.39 58.4 24.7 58.4 24.7 L 57.5 24.7 Z M 63.5 21.2 C 63.5 19.5 63 19.3 62.3 19.3 C 61.7 19.3 61.1 19.6 61.1 21.2 C 61.1 21.2 63.5 21.2 63.5 21.2 Z M 61.1 22 C 61.1 23.7 61.6 24 62.4 24 C 63 24 63.4 23.5 63.4 22.9 C 63.4 22.9 64.5 22.9 64.5 22.9 C 64.5 24.2 63.7 24.8 62.4 24.8 C 61.1 24.8 60.1 24.4 60.1 21.7 C 60.1 20 60.3 18.5 62.4 18.5 C 64.1 18.5 64.5 19.5 64.5 21.5 C 64.54 21.46 64.5 22 64.5 22 C 64.5 22 61.13 21.98 61.1 22 Z M 67.2 19.5 C 67.2 19.5 67.21 19.54 67.2 19.5 C 67.6 18.6 68.1 18.5 69.1 18.5 C 69.1 18.5 69.1 19.5 69.1 19.5 C 69 19.5 68.9 19.5 68.8 19.5 C 68.7 19.5 68.7 19.5 68.6 19.5 C 67.5 19.5 67.2 20.3 67.2 21.1 C 67.19 21.11 67.2 24.7 67.2 24.7 L 66.2 24.7 L 66.2 18.6 L 67.2 18.6 L 67.2 19.5 Z M 73.5 21.2 C 73.5 19.5 73 19.3 72.3 19.3 C 71.7 19.3 71.1 19.6 71.1 21.2 C 71.1 21.2 73.5 21.2 73.5 21.2 Z M 71.1 22 C 71.1 23.7 71.6 24 72.4 24 C 73 24 73.4 23.5 73.4 22.9 C 73.4 22.9 74.5 22.9 74.5 22.9 C 74.5 24.2 73.6 24.8 72.4 24.8 C 71.1 24.8 70.1 24.4 70.1 21.7 C 70.1 20 70.3 18.5 72.4 18.5 C 74.1 18.5 74.5 19.5 74.5 21.5 C 74.53 21.46 74.5 22 74.5 22 C 74.5 22 71.13 21.98 71.1 22 Z M 78.1 18.6 L 79.2 18.6 L 80.3 23.8 L 80.3 23.8 L 81.6 18.6 L 83 18.6 L 84.3 23.8 L 84.3 23.8 L 85.5 18.6 L 86.5 18.6 L 84.9 24.7 L 83.6 24.7 L 82.3 19.5 L 82.3 19.5 L 80.9 24.7 L 79.6 24.7 L 78.1 18.6 Z M 90.8 21.2 C 90.8 19.5 90.3 19.3 89.6 19.3 C 89 19.3 88.5 19.6 88.5 21.2 C 88.5 21.2 90.8 21.2 90.8 21.2 Z M 88.5 22 C 88.5 23.7 88.9 24 89.7 24 C 90.4 24 90.7 23.5 90.7 22.9 C 90.7 22.9 91.8 22.9 91.8 22.9 C 91.8 24.2 91 24.8 89.7 24.8 C 88.4 24.8 87.4 24.4 87.4 21.7 C 87.4 20 87.6 18.5 89.7 18.5 C 91.4 18.5 91.9 19.5 91.9 21.5 C 91.86 21.46 91.9 22 91.9 22 C 91.9 22 88.45 21.98 88.5 22 Z M 94.5 19.5 C 94.5 19.5 94.54 19.54 94.5 19.5 C 94.9 18.6 95.4 18.5 96.4 18.5 C 96.4 18.5 96.4 19.5 96.4 19.5 C 96.3 19.5 96.2 19.5 96.1 19.5 C 96.1 19.5 96 19.5 95.9 19.5 C 94.8 19.5 94.5 20.3 94.5 21.1 C 94.51 21.11 94.5 24.7 94.5 24.7 L 93.5 24.7 L 93.5 18.6 L 94.5 18.6 L 94.5 19.5 Z M 100.8 21.2 C 100.8 19.5 100.3 19.3 99.6 19.3 C 99 19.3 98.5 19.6 98.4 21.2 C 98.4 21.2 100.8 21.2 100.8 21.2 Z M 98.4 22 C 98.4 23.7 98.9 24 99.7 24 C 100.3 24 100.7 23.5 100.7 22.9 C 100.7 22.9 101.8 22.9 101.8 22.9 C 101.8 24.2 101 24.8 99.7 24.8 C 98.4 24.8 97.4 24.4 97.4 21.7 C 97.4 20 97.6 18.5 99.7 18.5 C 101.4 18.5 101.9 19.5 101.9 21.5 C 101.86 21.46 101.9 22 101.9 22 C 101.9 22 98.45 21.98 98.4 22 Z M 109.4 24.7 C 109.4 24.7 109.44 20.49 109.4 20.5 C 109.4 19.8 109.2 19.3 108.4 19.3 C 107.3 19.3 107.1 20.3 107.1 21.1 C 107.14 21.1 107.1 24.7 107.1 24.7 L 106.2 24.7 C 106.2 24.7 106.15 19.89 106.2 19.9 C 106.2 19.5 106.1 19 106.1 18.6 C 106.09 18.63 107.1 18.6 107.1 18.6 L 107.1 19.4 C 107.1 19.4 107.18 19.41 107.2 19.4 C 107.6 18.7 108 18.5 108.8 18.5 C 110.1 18.5 110.4 19.3 110.4 20.5 C 110.42 20.49 110.4 24.7 110.4 24.7 L 109.4 24.7 Z M 115.6 21.3 C 115.6 19.7 115 19.3 114.3 19.3 C 113.5 19.3 113 19.7 113 21.3 C 113 23.3 113.3 24 114.3 24 C 115.3 24 115.6 23.3 115.6 21.3 Z M 112 21.7 C 112 20 112.2 18.5 114.3 18.5 C 116.4 18.5 116.6 20 116.6 21.7 C 116.6 24.4 115.6 24.8 114.3 24.8 C 113 24.8 112 24.4 112 21.7 Z M 121.8 19.5 C 121.8 19.5 121.86 19.54 121.9 19.5 C 122.3 18.6 122.8 18.5 123.7 18.5 C 123.7 18.5 123.7 19.5 123.7 19.5 C 123.6 19.5 123.6 19.5 123.5 19.5 C 123.4 19.5 123.3 19.5 123.2 19.5 C 122.1 19.5 121.8 20.3 121.8 21.1 C 121.84 21.11 121.8 24.7 121.8 24.7 L 120.9 24.7 L 120.9 18.6 L 121.8 18.6 L 121.8 19.5 Z M 128.1 21.2 C 128.1 19.5 127.6 19.3 126.9 19.3 C 126.3 19.3 125.8 19.6 125.8 21.2 C 125.8 21.2 128.1 21.2 128.1 21.2 Z M 125.8 22 C 125.8 23.7 126.2 24 127 24 C 127.7 24 128 23.5 128.1 22.9 C 128.1 22.9 129.1 22.9 129.1 22.9 C 129.1 24.2 128.3 24.8 127 24.8 C 125.7 24.8 124.7 24.4 124.7 21.7 C 124.7 20 124.9 18.5 127 18.5 C 128.7 18.5 129.2 19.5 129.2 21.5 C 129.18 21.46 129.2 22 129.2 22 C 129.2 22 125.77 21.98 125.8 22 Z M 134.2 21.6 C 134.2 20.6 134.2 19.3 133 19.3 C 131.8 19.3 131.9 21 131.9 21.9 C 131.9 22.7 131.9 24 133 24 C 134.1 24 134.2 23.2 134.2 21.6 Z M 131.9 19.3 C 131.9 19.3 131.9 19.35 131.9 19.3 C 132.2 18.8 132.7 18.5 133.3 18.5 C 134.3 18.5 135.3 18.9 135.3 21.6 C 135.3 23.1 135.2 24.8 133.2 24.8 C 132.7 24.8 132.3 24.6 131.9 24.1 C 131.92 24.08 131.9 24.1 131.9 24.1 L 131.9 27 L 130.9 27 L 130.9 18.6 L 131.9 18.6 L 131.9 19.3 Z M 140.2 21.3 C 140.2 19.7 139.7 19.3 138.9 19.3 C 138.2 19.3 137.7 19.7 137.7 21.3 C 137.7 23.3 137.9 24 138.9 24 C 140 24 140.2 23.3 140.2 21.3 Z M 136.6 21.7 C 136.6 20 136.8 18.5 138.9 18.5 C 141 18.5 141.3 20 141.3 21.7 C 141.3 24.4 140.2 24.8 138.9 24.8 C 137.7 24.8 136.6 24.4 136.6 21.7 Z M 143.8 19.5 C 143.8 19.5 143.86 19.54 143.9 19.5 C 144.3 18.6 144.8 18.5 145.7 18.5 C 145.7 18.5 145.7 19.5 145.7 19.5 C 145.6 19.5 145.5 19.5 145.5 19.5 C 145.4 19.5 145.3 19.5 145.2 19.5 C 144.1 19.5 143.8 20.3 143.8 21.1 C 143.83 21.11 143.8 24.7 143.8 24.7 L 142.8 24.7 L 142.8 18.6 L 143.8 18.6 L 143.8 19.5 Z M 146.9 18.6 L 146.9 17.5 L 147.9 17 L 147.9 18.6 L 149.2 18.6 L 149.2 19.4 L 147.9 19.4 C 147.9 19.4 147.9 23.08 147.9 23.1 C 147.9 23.5 147.9 24 148.8 24 C 148.9 24 149 23.9 149.2 23.9 C 149.2 23.9 149.2 24.7 149.2 24.7 C 148.9 24.7 148.6 24.8 148.3 24.8 C 147.3 24.8 146.9 24.4 146.9 23.7 C 146.92 23.68 146.9 19.4 146.9 19.4 L 145.9 19.4 L 145.9 18.6 L 146.9 18.6 Z M 151.9 24.8 C 150.6 24.8 149.8 24.2 149.8 22.8 C 149.8 22.8 151 22.8 151 22.8 C 151 23.2 151 24 152 24 C 152.6 24 153 23.7 153 23.1 C 153 22 150 22 150 20.2 C 150 19.5 150.4 18.5 152.1 18.5 C 153.2 18.5 154.1 19 154 20.2 C 154 20.2 152.9 20.2 152.9 20.2 C 152.9 19.6 152.6 19.3 152 19.3 C 151.4 19.3 151 19.5 151 20.1 C 151 21.1 154 21.1 154 23 C 154 24.3 153.1 24.8 151.9 24.8 Z M 161.5 21.3 C 161.5 19.7 161 19.3 160.3 19.3 C 159.5 19.3 159 19.7 159 21.3 C 159 23.3 159.3 24 160.3 24 C 161.3 24 161.5 23.3 161.5 21.3 Z M 158 21.7 C 158 20 158.2 18.5 160.3 18.5 C 162.4 18.5 162.6 20 162.6 21.7 C 162.6 24.4 161.6 24.8 160.3 24.8 C 159 24.8 158 24.4 158 21.7 Z M 164.3 18.6 C 164.3 18.6 164.32 17.45 164.3 17.5 C 164.3 16.2 165.2 16 166.1 16 C 166.3 16 166.4 16 166.5 16 C 166.5 16 166.5 16.7 166.5 16.7 C 165.5 16.7 165.3 17.1 165.3 17.6 C 165.3 17.6 165.3 18.6 165.3 18.6 L 166.5 18.6 L 166.5 19.4 L 165.3 19.4 L 165.3 24.7 L 164.3 24.7 L 164.3 19.4 L 163.4 19.4 L 163.4 18.6 L 164.3 18.6 Z M 171.1 24.7 L 170.1 24.7 L 170.1 18.6 L 171.1 18.6 L 171.1 24.7 Z M 170.1 16 L 171.2 16 L 171.2 17.1 L 170.1 17.1 L 170.1 16 Z M 176.1 24.7 C 176.1 24.7 176.09 20.49 176.1 20.5 C 176.1 19.8 175.9 19.3 175 19.3 C 173.9 19.3 173.8 20.3 173.8 21.1 C 173.78 21.1 173.8 24.7 173.8 24.7 L 172.8 24.7 C 172.8 24.7 172.8 19.89 172.8 19.9 C 172.8 19.5 172.8 19 172.7 18.6 C 172.74 18.63 173.8 18.6 173.8 18.6 L 173.8 19.4 C 173.8 19.4 173.83 19.41 173.8 19.4 C 174.2 18.7 174.7 18.5 175.5 18.5 C 176.7 18.5 177.1 19.3 177.1 20.5 C 177.07 20.49 177.1 24.7 177.1 24.7 L 176.1 24.7 Z M 178.8 18.6 L 179.8 18.6 C 179.8 18.6 179.76 25.53 179.8 25.5 C 179.8 26.5 179.5 27 178 27 C 178 27 178 26.1 178 26.1 C 178.5 26.1 178.8 26.1 178.8 25.6 C 178.78 25.58 178.8 18.6 178.8 18.6 Z M 178.7 16 L 179.8 16 L 179.8 17.1 L 178.7 17.1 L 178.7 16 Z M 184.8 21.2 C 184.8 19.5 184.3 19.3 183.6 19.3 C 183 19.3 182.4 19.6 182.4 21.2 C 182.4 21.2 184.8 21.2 184.8 21.2 Z M 182.4 22 C 182.4 23.7 182.9 24 183.6 24 C 184.3 24 184.7 23.5 184.7 22.9 C 184.7 22.9 185.8 22.9 185.8 22.9 C 185.8 24.2 184.9 24.8 183.7 24.8 C 182.4 24.8 181.4 24.4 181.4 21.7 C 181.4 20 181.6 18.5 183.7 18.5 C 185.4 18.5 185.8 19.5 185.8 21.5 C 185.83 21.46 185.8 22 185.8 22 C 185.8 22 182.42 21.98 182.4 22 Z M 190.6 20.6 C 190.7 19.6 190.2 19.3 189.8 19.3 C 189 19.3 188.5 19.7 188.5 21.3 C 188.5 23.3 188.8 24 189.8 24 C 190 24 190.7 23.8 190.7 22.7 C 190.7 22.7 191.7 22.7 191.7 22.7 C 191.7 24.4 190.5 24.8 189.8 24.8 C 188.5 24.8 187.5 24.4 187.5 21.7 C 187.5 20 187.7 18.5 189.8 18.5 C 191 18.5 191.7 19.2 191.7 20.6 C 191.7 20.6 190.6 20.6 190.6 20.6 Z M 193.6 18.6 L 193.6 17.5 L 194.6 17 L 194.6 18.6 L 195.9 18.6 L 195.9 19.4 L 194.6 19.4 C 194.6 19.4 194.56 23.08 194.6 23.1 C 194.6 23.5 194.6 24 195.5 24 C 195.5 24 195.7 23.9 195.9 23.9 C 195.9 23.9 195.9 24.7 195.9 24.7 C 195.6 24.7 195.3 24.8 194.9 24.8 C 194 24.8 193.6 24.4 193.6 23.7 C 193.57 23.68 193.6 19.4 193.6 19.4 L 192.6 19.4 L 192.6 18.6 L 193.6 18.6 Z M 197.8 24.7 L 196.8 24.7 L 196.8 18.6 L 197.8 18.6 L 197.8 24.7 Z M 196.7 16 L 197.8 16 L 197.8 17.1 L 196.7 17.1 L 196.7 16 Z M 202.9 21.3 C 202.9 19.7 202.4 19.3 201.6 19.3 C 200.8 19.3 200.3 19.7 200.3 21.3 C 200.3 23.3 200.6 24 201.6 24 C 202.6 24 202.9 23.3 202.9 21.3 Z M 199.3 21.7 C 199.3 20 199.5 18.5 201.6 18.5 C 203.7 18.5 203.9 20 203.9 21.7 C 203.9 24.4 202.9 24.8 201.6 24.8 C 200.3 24.8 199.3 24.4 199.3 21.7 Z M 208.8 24.7 C 208.8 24.7 208.75 20.49 208.8 20.5 C 208.8 19.8 208.5 19.3 207.7 19.3 C 206.6 19.3 206.4 20.3 206.4 21.1 C 206.45 21.1 206.4 24.7 206.4 24.7 L 205.5 24.7 C 205.5 24.7 205.46 19.89 205.5 19.9 C 205.5 19.5 205.4 19 205.4 18.6 C 205.4 18.63 206.4 18.6 206.4 18.6 L 206.4 19.4 C 206.4 19.4 206.5 19.41 206.5 19.4 C 206.9 18.7 207.3 18.5 208.1 18.5 C 209.4 18.5 209.7 19.3 209.7 20.5 C 209.74 20.49 209.7 24.7 209.7 24.7 L 208.8 24.7 Z M 211.3 21 L 213.9 21 L 213.9 21.9 L 211.3 21.9 L 211.3 21 Z M 217.2 24.8 C 215.9 24.8 215.1 24.2 215.2 22.8 C 215.2 22.8 216.3 22.8 216.3 22.8 C 216.3 23.2 216.3 24 217.3 24 C 217.9 24 218.3 23.7 218.3 23.1 C 218.3 22 215.3 22 215.3 20.2 C 215.3 19.5 215.7 18.5 217.4 18.5 C 218.5 18.5 219.4 19 219.3 20.2 C 219.3 20.2 218.2 20.2 218.2 20.2 C 218.2 19.6 217.9 19.3 217.3 19.3 C 216.7 19.3 216.3 19.5 216.3 20.1 C 216.3 21.1 219.4 21.1 219.4 23 C 219.4 24.3 218.4 24.8 217.2 24.8 Z M 221.7 24.7 L 220.8 24.7 L 220.8 18.6 L 221.7 18.6 L 221.7 24.7 Z M 220.7 16 L 221.8 16 L 221.8 17.1 L 220.7 17.1 L 220.7 16 Z M 223.6 18.6 L 223.6 17.5 L 224.5 17 L 224.5 18.6 L 225.9 18.6 L 225.9 19.4 L 224.5 19.4 C 224.5 19.4 224.54 23.08 224.5 23.1 C 224.5 23.5 224.5 24 225.4 24 C 225.5 24 225.7 23.9 225.9 23.9 C 225.9 23.9 225.9 24.7 225.9 24.7 C 225.6 24.7 225.2 24.8 224.9 24.8 C 224 24.8 223.6 24.4 223.6 23.7 C 223.56 23.68 223.6 19.4 223.6 19.4 L 222.6 19.4 L 222.6 18.6 L 223.6 18.6 Z M 230.1 21.2 C 230.1 19.5 229.6 19.3 228.9 19.3 C 228.3 19.3 227.8 19.6 227.7 21.2 C 227.7 21.2 230.1 21.2 230.1 21.2 Z M 227.7 22 C 227.7 23.7 228.2 24 229 24 C 229.6 24 230 23.5 230 22.9 C 230 22.9 231.1 22.9 231.1 22.9 C 231.1 24.2 230.3 24.8 229 24.8 C 227.7 24.8 226.7 24.4 226.7 21.7 C 226.7 20 226.9 18.5 229 18.5 C 230.7 18.5 231.2 19.5 231.2 21.5 C 231.15 21.46 231.2 22 231.2 22 C 231.2 22 227.75 21.98 227.7 22 Z M 238.9 21.6 C 238.9 20.6 238.9 19.3 237.6 19.3 C 236.4 19.3 236.5 21 236.5 21.9 C 236.5 22.7 236.6 24 237.7 24 C 238.7 24 238.9 23.2 238.9 21.6 Z M 236.5 19.3 C 236.5 19.3 236.54 19.35 236.5 19.3 C 236.9 18.8 237.3 18.5 237.9 18.5 C 238.9 18.5 239.9 18.9 239.9 21.6 C 239.9 23.1 239.8 24.8 237.9 24.8 C 237.3 24.8 236.9 24.6 236.6 24.1 C 236.55 24.08 236.5 24.1 236.5 24.1 L 236.5 27 L 235.5 27 L 235.5 18.6 L 236.5 18.6 L 236.5 19.3 Z M 242.4 22.9 C 242.4 23.5 242.6 24 243.3 24 C 243.9 24 244.6 23.6 244.5 21.7 C 243.6 21.7 242.4 21.6 242.4 22.9 Z M 244.6 23.8 C 244.6 23.8 244.55 23.81 244.5 23.8 C 244.2 24.5 243.8 24.8 243 24.8 C 241.7 24.8 241.4 24 241.4 22.8 C 241.4 21 243.2 20.9 244.5 20.9 C 244.6 20.1 244.6 19.3 243.5 19.3 C 242.9 19.3 242.5 19.7 242.6 20.3 C 242.6 20.3 241.5 20.3 241.5 20.3 C 241.6 19 242.3 18.5 243.6 18.5 C 245.1 18.5 245.5 19.3 245.5 20.3 C 245.5 20.3 245.5 23.2 245.5 23.2 C 245.5 23.7 245.6 24.2 245.7 24.7 C 245.65 24.69 244.6 24.7 244.6 24.7 L 244.6 23.8 Z M 248.4 24.7 L 247.4 24.7 L 247.4 18.6 L 248.4 18.6 L 248.4 24.7 Z M 247.4 16 L 248.5 16 L 248.5 17.1 L 247.4 17.1 L 247.4 16 Z M 253.4 24.7 C 253.4 24.7 253.4 20.49 253.4 20.5 C 253.4 19.8 253.2 19.3 252.3 19.3 C 251.3 19.3 251.1 20.3 251.1 21.1 C 251.1 21.1 251.1 24.7 251.1 24.7 L 250.1 24.7 C 250.1 24.7 250.12 19.89 250.1 19.9 C 250.1 19.5 250.1 19 250.1 18.6 C 250.06 18.63 251.1 18.6 251.1 18.6 L 251.1 19.4 C 251.1 19.4 251.15 19.41 251.1 19.4 C 251.5 18.7 252 18.5 252.8 18.5 C 254.1 18.5 254.4 19.3 254.4 20.5 C 254.39 20.49 254.4 24.7 254.4 24.7 L 253.4 24.7 Z M 260.8 19.3 C 259.8 19.3 259.6 20.2 259.6 21.8 C 259.6 22.7 259.6 24 260.9 24 C 262 24 262 22.6 262 21.4 C 262 20.6 261.9 19.3 260.8 19.3 Z M 262 16 L 263 16 L 263 24.7 L 262 24.7 L 262 24 C 262 24 261.96 23.97 262 24 C 261.6 24.5 261.2 24.8 260.6 24.8 C 259.6 24.8 258.6 24.4 258.6 21.8 C 258.6 20.2 258.7 18.5 260.6 18.5 C 261.2 18.5 261.6 18.8 261.9 19.2 C 261.95 19.24 262 19.2 262 19.2 L 262 16 Z M 268 18.6 L 269 18.6 C 269 18.6 269 23.43 269 23.4 C 269 23.8 269 24.3 269.1 24.7 C 269.06 24.69 268 24.7 268 24.7 L 268 24 C 268 24 267.98 23.96 268 24 C 267.7 24.5 267.1 24.8 266.4 24.8 C 265.4 24.8 264.8 24.3 264.8 23.2 C 264.82 23.25 264.8 18.6 264.8 18.6 L 265.8 18.6 C 265.8 18.6 265.8 22.83 265.8 22.8 C 265.8 23.6 266.1 24.1 266.8 24.1 C 267.4 24.1 268 23.7 268 22.6 C 268.02 22.65 268 18.6 268 18.6 Z M 271.8 19.5 C 271.8 19.5 271.82 19.54 271.8 19.5 C 272.2 18.6 272.7 18.5 273.7 18.5 C 273.7 18.5 273.7 19.5 273.7 19.5 C 273.6 19.5 273.5 19.5 273.4 19.5 C 273.3 19.5 273.3 19.5 273.2 19.5 C 272.1 19.5 271.8 20.3 271.8 21.1 C 271.8 21.11 271.8 24.7 271.8 24.7 L 270.8 24.7 L 270.8 18.6 L 271.8 18.6 L 271.8 19.5 Z M 275.7 24.7 L 274.8 24.7 L 274.8 18.6 L 275.7 18.6 L 275.7 24.7 Z M 274.7 16 L 275.8 16 L 275.8 17.1 L 274.7 17.1 L 274.7 16 Z M 280.7 24.7 C 280.7 24.7 280.73 20.49 280.7 20.5 C 280.7 19.8 280.5 19.3 279.7 19.3 C 278.6 19.3 278.4 20.3 278.4 21.1 C 278.42 21.1 278.4 24.7 278.4 24.7 L 277.4 24.7 C 277.4 24.7 277.44 19.89 277.4 19.9 C 277.4 19.5 277.4 19 277.4 18.6 C 277.38 18.63 278.4 18.6 278.4 18.6 L 278.4 19.4 C 278.4 19.4 278.47 19.41 278.5 19.4 C 278.9 18.7 279.3 18.5 280.1 18.5 C 281.4 18.5 281.7 19.3 281.7 20.5 C 281.71 20.49 281.7 24.7 281.7 24.7 L 280.7 24.7 Z M 285.5 19.3 C 284.4 19.3 284.3 20.7 284.3 21.5 C 284.3 23.4 284.8 23.9 285.5 23.9 C 286.7 23.9 286.7 22.5 286.7 21.6 C 286.7 20.7 286.7 19.3 285.5 19.3 Z M 286.6 18.6 L 287.6 18.6 C 287.6 18.6 287.63 25.3 287.6 25.3 C 287.6 26.7 286.7 27 285.4 27 C 284.4 27 283.5 26.5 283.6 25.4 C 283.6 25.4 284.7 25.4 284.7 25.4 C 284.7 25.9 285 26.2 285.6 26.2 C 286.3 26.2 286.6 25.8 286.6 25.2 C 286.64 25.19 286.6 23.9 286.6 23.9 C 286.6 23.9 286.61 23.93 286.6 23.9 C 286.4 24.4 285.8 24.7 285.3 24.7 C 283.6 24.7 283.3 23.3 283.3 21.5 C 283.3 18.7 284.7 18.5 285.2 18.5 C 285.8 18.5 286.3 18.8 286.6 19.4 C 286.62 19.37 286.6 19.4 286.6 19.4 L 286.6 18.6 Z " stroke="none" fill="#555555"/>  </g>  <g id="Polygon201656">    <path d="M 1.8 0.9 L 2.4 1.8 L 2 2.1 L 1.6 1.1 L 1.1 2.1 L 0.7 1.8 L 1.3 0.9 L 0.2 1 L 0.2 0.6 L 1.3 0.7 L 0.7 -0.2 L 1.1 -0.5 L 1.6 0.5 L 2 -0.5 L 2.4 -0.2 L 1.8 0.7 L 2.9 0.6 L 2.9 1 L 1.8 0.9 Z M 6.9 8.7 L 5.8 8.7 L 5.8 0 L 6.9 0 L 6.9 8.7 Z M 12.1 8.7 C 12.1 8.7 12.15 4.49 12.1 4.5 C 12.1 3.8 11.9 3.3 11.1 3.3 C 10 3.3 9.8 4.3 9.8 5.1 C 9.84 5.1 9.8 8.7 9.8 8.7 L 8.9 8.7 C 8.9 8.7 8.86 3.89 8.9 3.9 C 8.9 3.5 8.8 3 8.8 2.6 C 8.8 2.63 9.8 2.6 9.8 2.6 L 9.8 3.4 C 9.8 3.4 9.89 3.41 9.9 3.4 C 10.3 2.7 10.7 2.5 11.5 2.5 C 12.8 2.5 13.1 3.3 13.1 4.5 C 13.13 4.49 13.1 8.7 13.1 8.7 L 12.1 8.7 Z M 14.8 2.6 L 15.8 2.6 C 15.8 2.6 15.82 9.53 15.8 9.5 C 15.8 10.5 15.5 11 14.1 11 C 14.1 11 14.1 10.1 14.1 10.1 C 14.5 10.1 14.8 10.1 14.8 9.6 C 14.84 9.58 14.8 2.6 14.8 2.6 Z M 14.8 0 L 15.9 0 L 15.9 1.1 L 14.8 1.1 L 14.8 0 Z M 20.8 5.2 C 20.8 3.5 20.4 3.3 19.6 3.3 C 19 3.3 18.5 3.6 18.5 5.2 C 18.5 5.2 20.8 5.2 20.8 5.2 Z M 18.5 6 C 18.5 7.7 18.9 8 19.7 8 C 20.4 8 20.7 7.5 20.8 6.9 C 20.8 6.9 21.8 6.9 21.8 6.9 C 21.8 8.2 21 8.8 19.7 8.8 C 18.4 8.8 17.4 8.4 17.4 5.7 C 17.4 4 17.6 2.5 19.7 2.5 C 21.5 2.5 21.9 3.5 21.9 5.5 C 21.89 5.46 21.9 6 21.9 6 C 21.9 6 18.48 5.98 18.5 6 Z M 26.7 4.6 C 26.7 3.6 26.2 3.3 25.9 3.3 C 25.1 3.3 24.6 3.7 24.6 5.3 C 24.6 7.3 24.8 8 25.9 8 C 26.1 8 26.8 7.8 26.7 6.7 C 26.7 6.7 27.8 6.7 27.8 6.7 C 27.8 8.4 26.5 8.8 25.9 8.8 C 24.6 8.8 23.5 8.4 23.5 5.7 C 23.5 4 23.8 2.5 25.9 2.5 C 27.1 2.5 27.8 3.2 27.7 4.6 C 27.7 4.6 26.7 4.6 26.7 4.6 Z M 29.6 2.6 L 29.6 1.5 L 30.6 1 L 30.6 2.6 L 31.9 2.6 L 31.9 3.4 L 30.6 3.4 C 30.6 3.4 30.61 7.08 30.6 7.1 C 30.6 7.5 30.6 8 31.5 8 C 31.6 8 31.7 7.9 32 7.9 C 32 7.9 32 8.7 32 8.7 C 31.6 8.7 31.3 8.8 31 8.8 C 30.1 8.8 29.6 8.4 29.6 7.7 C 29.63 7.68 29.6 3.4 29.6 3.4 L 28.6 3.4 L 28.6 2.6 L 29.6 2.6 Z M 33.8 8.7 L 32.8 8.7 L 32.8 2.6 L 33.8 2.6 L 33.8 8.7 Z M 32.8 0 L 33.9 0 L 33.9 1.1 L 32.8 1.1 L 32.8 0 Z M 38.9 5.3 C 38.9 3.7 38.4 3.3 37.7 3.3 C 36.9 3.3 36.4 3.7 36.4 5.3 C 36.4 7.3 36.6 8 37.7 8 C 38.7 8 38.9 7.3 38.9 5.3 Z M 35.4 5.7 C 35.4 4 35.6 2.5 37.7 2.5 C 39.8 2.5 40 4 40 5.7 C 40 8.4 38.9 8.8 37.7 8.8 C 36.4 8.8 35.4 8.4 35.4 5.7 Z M 44.8 8.7 C 44.8 8.7 44.81 4.49 44.8 4.5 C 44.8 3.8 44.6 3.3 43.7 3.3 C 42.7 3.3 42.5 4.3 42.5 5.1 C 42.51 5.1 42.5 8.7 42.5 8.7 L 41.5 8.7 C 41.5 8.7 41.52 3.89 41.5 3.9 C 41.5 3.5 41.5 3 41.5 2.6 C 41.46 2.63 42.5 2.6 42.5 2.6 L 42.5 3.4 C 42.5 3.4 42.55 3.41 42.6 3.4 C 42.9 2.7 43.4 2.5 44.2 2.5 C 45.5 2.5 45.8 3.3 45.8 4.5 C 45.79 4.49 45.8 8.7 45.8 8.7 L 44.8 8.7 Z M 47.3 5 L 50 5 L 50 5.9 L 47.3 5.9 L 47.3 5 Z M 53.3 8.8 C 52 8.8 51.2 8.2 51.2 6.8 C 51.2 6.8 52.3 6.8 52.3 6.8 C 52.3 7.2 52.3 8 53.3 8 C 53.9 8 54.4 7.7 54.4 7.1 C 54.4 6 51.4 6 51.4 4.2 C 51.4 3.5 51.7 2.5 53.5 2.5 C 54.5 2.5 55.5 3 55.4 4.2 C 55.4 4.2 54.3 4.2 54.3 4.2 C 54.3 3.6 54 3.3 53.3 3.3 C 52.8 3.3 52.4 3.5 52.4 4.1 C 52.4 5.1 55.4 5.1 55.4 7 C 55.4 8.3 54.5 8.8 53.3 8.8 Z M 57.8 8.7 L 56.8 8.7 L 56.8 2.6 L 57.8 2.6 L 57.8 8.7 Z M 56.8 0 L 57.9 0 L 57.9 1.1 L 56.8 1.1 L 56.8 0 Z M 59.6 2.6 L 59.6 1.5 L 60.6 1 L 60.6 2.6 L 61.9 2.6 L 61.9 3.4 L 60.6 3.4 C 60.6 3.4 60.6 7.08 60.6 7.1 C 60.6 7.5 60.6 8 61.5 8 C 61.6 8 61.7 7.9 61.9 7.9 C 61.9 7.9 61.9 8.7 61.9 8.7 C 61.6 8.7 61.3 8.8 61 8.8 C 60 8.8 59.6 8.4 59.6 7.7 C 59.62 7.68 59.6 3.4 59.6 3.4 L 58.6 3.4 L 58.6 2.6 L 59.6 2.6 Z M 66.2 5.2 C 66.2 3.5 65.7 3.3 65 3.3 C 64.3 3.3 63.8 3.6 63.8 5.2 C 63.8 5.2 66.2 5.2 66.2 5.2 Z M 63.8 6 C 63.8 7.7 64.3 8 65 8 C 65.7 8 66.1 7.5 66.1 6.9 C 66.1 6.9 67.2 6.9 67.2 6.9 C 67.2 8.2 66.3 8.8 65.1 8.8 C 63.8 8.8 62.8 8.4 62.8 5.7 C 62.8 4 63 2.5 65.1 2.5 C 66.8 2.5 67.2 3.5 67.2 5.5 C 67.21 5.46 67.2 6 67.2 6 C 67.2 6 63.81 5.98 63.8 6 Z M 72.5 3.5 C 72.5 3.5 72.55 3.54 72.6 3.5 C 73 2.6 73.5 2.5 74.4 2.5 C 74.4 2.5 74.4 3.5 74.4 3.5 C 74.3 3.5 74.2 3.5 74.2 3.5 C 74.1 3.5 74 3.5 73.9 3.5 C 72.8 3.5 72.5 4.3 72.5 5.1 C 72.53 5.11 72.5 8.7 72.5 8.7 L 71.5 8.7 L 71.5 2.6 L 72.5 2.6 L 72.5 3.5 Z M 78.8 5.2 C 78.8 3.5 78.3 3.3 77.6 3.3 C 77 3.3 76.5 3.6 76.5 5.2 C 76.5 5.2 78.8 5.2 78.8 5.2 Z M 76.5 6 C 76.5 7.7 76.9 8 77.7 8 C 78.4 8 78.7 7.5 78.7 6.9 C 78.7 6.9 79.8 6.9 79.8 6.9 C 79.8 8.2 79 8.8 77.7 8.8 C 76.4 8.8 75.4 8.4 75.4 5.7 C 75.4 4 75.6 2.5 77.7 2.5 C 79.4 2.5 79.9 3.5 79.9 5.5 C 79.87 5.46 79.9 6 79.9 6 C 79.9 6 76.47 5.98 76.5 6 Z M 82.4 6.9 C 82.4 7.5 82.7 8 83.4 8 C 84 8 84.7 7.6 84.6 5.7 C 83.7 5.7 82.4 5.6 82.4 6.9 Z M 84.6 7.8 C 84.6 7.8 84.6 7.81 84.6 7.8 C 84.3 8.5 83.8 8.8 83.1 8.8 C 81.8 8.8 81.4 8 81.4 6.8 C 81.4 5 83.2 4.9 84.6 4.9 C 84.6 4.1 84.6 3.3 83.6 3.3 C 82.9 3.3 82.6 3.7 82.6 4.3 C 82.6 4.3 81.6 4.3 81.6 4.3 C 81.6 3 82.3 2.5 83.6 2.5 C 85.2 2.5 85.6 3.3 85.6 4.3 C 85.6 4.3 85.6 7.2 85.6 7.2 C 85.6 7.7 85.6 8.2 85.7 8.7 C 85.71 8.69 84.6 8.7 84.6 8.7 L 84.6 7.8 Z M 90.7 4.6 C 90.7 3.6 90.2 3.3 89.8 3.3 C 89.1 3.3 88.6 3.7 88.6 5.3 C 88.6 7.3 88.8 8 89.8 8 C 90.1 8 90.7 7.8 90.7 6.7 C 90.7 6.7 91.7 6.7 91.7 6.7 C 91.8 8.4 90.5 8.8 89.8 8.8 C 88.5 8.8 87.5 8.4 87.5 5.7 C 87.5 4 87.7 2.5 89.8 2.5 C 91 2.5 91.8 3.2 91.7 4.6 C 91.7 4.6 90.7 4.6 90.7 4.6 Z M 93.6 2.6 L 93.6 1.5 L 94.6 1 L 94.6 2.6 L 95.9 2.6 L 95.9 3.4 L 94.6 3.4 C 94.6 3.4 94.6 7.08 94.6 7.1 C 94.6 7.5 94.6 8 95.5 8 C 95.6 8 95.7 7.9 95.9 7.9 C 95.9 7.9 95.9 8.7 95.9 8.7 C 95.6 8.7 95.3 8.8 95 8.8 C 94 8.8 93.6 8.4 93.6 7.7 C 93.61 7.68 93.6 3.4 93.6 3.4 L 92.6 3.4 L 92.6 2.6 L 93.6 2.6 Z M 97.8 8.7 L 96.8 8.7 L 96.8 2.6 L 97.8 2.6 L 97.8 8.7 Z M 96.8 0 L 97.9 0 L 97.9 1.1 L 96.8 1.1 L 96.8 0 Z M 102.9 5.3 C 102.9 3.7 102.4 3.3 101.6 3.3 C 100.9 3.3 100.4 3.7 100.4 5.3 C 100.4 7.3 100.6 8 101.6 8 C 102.7 8 102.9 7.3 102.9 5.3 Z M 99.3 5.7 C 99.3 4 99.5 2.5 101.6 2.5 C 103.7 2.5 103.9 4 103.9 5.7 C 103.9 8.4 102.9 8.8 101.6 8.8 C 100.4 8.8 99.3 8.4 99.3 5.7 Z M 108.8 8.7 C 108.8 8.7 108.79 4.49 108.8 4.5 C 108.8 3.8 108.6 3.3 107.7 3.3 C 106.6 3.3 106.5 4.3 106.5 5.1 C 106.49 5.1 106.5 8.7 106.5 8.7 L 105.5 8.7 C 105.5 8.7 105.51 3.89 105.5 3.9 C 105.5 3.5 105.5 3 105.4 2.6 C 105.45 2.63 106.5 2.6 106.5 2.6 L 106.5 3.4 C 106.5 3.4 106.54 3.41 106.5 3.4 C 106.9 2.7 107.4 2.5 108.2 2.5 C 109.5 2.5 109.8 3.3 109.8 4.5 C 109.78 4.49 109.8 8.7 109.8 8.7 L 108.8 8.7 Z M 113.3 8.8 C 112 8.8 111.2 8.2 111.2 6.8 C 111.2 6.8 112.3 6.8 112.3 6.8 C 112.3 7.2 112.3 8 113.3 8 C 113.9 8 114.4 7.7 114.4 7.1 C 114.4 6 111.4 6 111.4 4.2 C 111.4 3.5 111.7 2.5 113.4 2.5 C 114.5 2.5 115.4 3 115.4 4.2 C 115.4 4.2 114.3 4.2 114.3 4.2 C 114.3 3.6 113.9 3.3 113.3 3.3 C 112.8 3.3 112.4 3.5 112.4 4.1 C 112.4 5.1 115.4 5.1 115.4 7 C 115.4 8.3 114.5 8.8 113.3 8.8 Z M 120.5 8.7 L 119.5 8.7 L 119.5 2.6 L 120.5 2.6 L 120.5 8.7 Z M 119.4 0 L 120.5 0 L 120.5 1.1 L 119.4 1.1 L 119.4 0 Z M 125.5 8.7 C 125.5 8.7 125.45 4.49 125.5 4.5 C 125.5 3.8 125.2 3.3 124.4 3.3 C 123.3 3.3 123.1 4.3 123.1 5.1 C 123.14 5.1 123.1 8.7 123.1 8.7 L 122.2 8.7 C 122.2 8.7 122.16 3.89 122.2 3.9 C 122.2 3.5 122.1 3 122.1 2.6 C 122.1 2.63 123.1 2.6 123.1 2.6 L 123.1 3.4 C 123.1 3.4 123.19 3.41 123.2 3.4 C 123.6 2.7 124 2.5 124.8 2.5 C 126.1 2.5 126.4 3.3 126.4 4.5 C 126.43 4.49 126.4 8.7 126.4 8.7 L 125.5 8.7 Z M 131.3 4.6 C 131.4 3.6 130.9 3.3 130.5 3.3 C 129.7 3.3 129.2 3.7 129.2 5.3 C 129.2 7.3 129.5 8 130.5 8 C 130.7 8 131.4 7.8 131.4 6.7 C 131.4 6.7 132.4 6.7 132.4 6.7 C 132.4 8.4 131.2 8.8 130.5 8.8 C 129.2 8.8 128.2 8.4 128.2 5.7 C 128.2 4 128.4 2.5 130.5 2.5 C 131.7 2.5 132.4 3.2 132.3 4.6 C 132.3 4.6 131.3 4.6 131.3 4.6 Z M 135.1 8.7 L 134.1 8.7 L 134.1 0 L 135.1 0 L 135.1 8.7 Z M 140.1 2.6 L 141 2.6 C 141 2.6 141.05 7.43 141 7.4 C 141 7.8 141.1 8.3 141.1 8.7 C 141.11 8.69 140.1 8.7 140.1 8.7 L 140.1 8 C 140.1 8 140.03 7.96 140 8 C 139.7 8.5 139.1 8.8 138.5 8.8 C 137.4 8.8 136.9 8.3 136.9 7.2 C 136.86 7.25 136.9 2.6 136.9 2.6 L 137.8 2.6 C 137.8 2.6 137.84 6.83 137.8 6.8 C 137.8 7.6 138.2 8.1 138.9 8.1 C 139.4 8.1 140.1 7.7 140.1 6.6 C 140.07 6.65 140.1 2.6 140.1 2.6 Z M 144.9 3.3 C 143.8 3.3 143.7 4.2 143.7 5.8 C 143.7 6.7 143.7 8 144.9 8 C 146 8 146 6.6 146 5.4 C 146 4.6 146 3.3 144.9 3.3 Z M 146 0 L 147 0 L 147 8.7 L 146 8.7 L 146 8 C 146 8 146.01 7.97 146 8 C 145.7 8.5 145.2 8.8 144.6 8.8 C 143.6 8.8 142.7 8.4 142.7 5.8 C 142.7 4.2 142.7 2.5 144.7 2.5 C 145.2 2.5 145.7 2.8 146 3.2 C 145.99 3.24 146 3.2 146 3.2 L 146 0 Z M 152.1 5.2 C 152.1 3.5 151.7 3.3 150.9 3.3 C 150.3 3.3 149.8 3.6 149.8 5.2 C 149.8 5.2 152.1 5.2 152.1 5.2 Z M 149.8 6 C 149.8 7.7 150.2 8 151 8 C 151.7 8 152 7.5 152.1 6.9 C 152.1 6.9 153.1 6.9 153.1 6.9 C 153.1 8.2 152.3 8.8 151 8.8 C 149.7 8.8 148.7 8.4 148.7 5.7 C 148.7 4 148.9 2.5 151 2.5 C 152.8 2.5 153.2 3.5 153.2 5.5 C 153.19 5.46 153.2 6 153.2 6 C 153.2 6 149.78 5.98 149.8 6 Z M 160.8 5.2 C 160.8 3.5 160.3 3.3 159.6 3.3 C 159 3.3 158.5 3.6 158.4 5.2 C 158.4 5.2 160.8 5.2 160.8 5.2 Z M 158.4 6 C 158.4 7.7 158.9 8 159.7 8 C 160.3 8 160.7 7.5 160.7 6.9 C 160.7 6.9 161.8 6.9 161.8 6.9 C 161.8 8.2 161 8.8 159.7 8.8 C 158.4 8.8 157.4 8.4 157.4 5.7 C 157.4 4 157.6 2.5 159.7 2.5 C 161.4 2.5 161.9 3.5 161.9 5.5 C 161.86 5.46 161.9 6 161.9 6 C 161.9 6 158.45 5.98 158.4 6 Z M 164.5 3.5 C 164.5 3.5 164.53 3.54 164.5 3.5 C 164.9 2.6 165.4 2.5 166.4 2.5 C 166.4 2.5 166.4 3.5 166.4 3.5 C 166.3 3.5 166.2 3.5 166.1 3.5 C 166.1 3.5 166 3.5 165.9 3.5 C 164.8 3.5 164.5 4.3 164.5 5.1 C 164.51 5.11 164.5 8.7 164.5 8.7 L 163.5 8.7 L 163.5 2.6 L 164.5 2.6 L 164.5 3.5 Z M 169.3 7.6 L 169.3 7.6 L 170.8 2.6 L 171.9 2.6 L 169.1 11 L 168.1 11 L 168.8 8.7 L 166.7 2.6 L 167.9 2.6 L 169.3 7.6 Z M 172.9 2.6 L 172.9 1.5 L 173.9 1 L 173.9 2.6 L 175.2 2.6 L 175.2 3.4 L 173.9 3.4 C 173.9 3.4 173.9 7.08 173.9 7.1 C 173.9 7.5 173.9 8 174.8 8 C 174.9 8 175 7.9 175.2 7.9 C 175.2 7.9 175.2 8.7 175.2 8.7 C 174.9 8.7 174.6 8.8 174.3 8.8 C 173.3 8.8 172.9 8.4 172.9 7.7 C 172.92 7.68 172.9 3.4 172.9 3.4 L 171.9 3.4 L 171.9 2.6 L 172.9 2.6 Z M 179.4 8.7 C 179.4 8.7 179.44 4.58 179.4 4.6 C 179.4 3.8 179.2 3.3 178.4 3.3 C 177.4 3.3 177.1 4.1 177.1 5.1 C 177.12 5.12 177.1 8.7 177.1 8.7 L 176.1 8.7 L 176.1 0 L 177.1 0 L 177.1 3.4 C 177.1 3.4 177.17 3.41 177.2 3.4 C 177.6 2.7 178 2.5 178.8 2.5 C 179.8 2.5 180.4 3 180.4 4.4 C 180.42 4.39 180.4 8.7 180.4 8.7 L 179.4 8.7 Z M 185.5 5.2 C 185.5 3.5 185 3.3 184.3 3.3 C 183.6 3.3 183.1 3.6 183.1 5.2 C 183.1 5.2 185.5 5.2 185.5 5.2 Z M 183.1 6 C 183.1 7.7 183.6 8 184.3 8 C 185 8 185.4 7.5 185.4 6.9 C 185.4 6.9 186.5 6.9 186.5 6.9 C 186.5 8.2 185.6 8.8 184.4 8.8 C 183.1 8.8 182.1 8.4 182.1 5.7 C 182.1 4 182.3 2.5 184.4 2.5 C 186.1 2.5 186.5 3.5 186.5 5.5 C 186.52 5.46 186.5 6 186.5 6 C 186.5 6 183.11 5.98 183.1 6 Z M 191.1 8.7 C 191.1 8.7 191.13 4.49 191.1 4.5 C 191.1 3.9 191 3.3 190.2 3.3 C 189.9 3.3 189.5 3.5 189.3 3.7 C 189.1 4 189.1 4.4 189.1 4.6 C 189.08 4.61 189.1 8.7 189.1 8.7 L 188.1 8.7 C 188.1 8.7 188.1 3.89 188.1 3.9 C 188.1 3.5 188.1 3 188 2.6 C 188.04 2.63 189.1 2.6 189.1 2.6 L 189.1 3.4 C 189.1 3.4 189.11 3.38 189.1 3.4 C 189.4 2.7 189.9 2.5 190.6 2.5 C 191.2 2.5 191.8 2.7 192 3.3 C 192.4 2.6 192.9 2.5 193.5 2.5 C 194.1 2.5 195.1 2.7 195.1 4.1 C 195.13 4.08 195.1 8.7 195.1 8.7 L 194.1 8.7 C 194.1 8.7 194.15 4.49 194.1 4.5 C 194.1 3.9 194 3.3 193.2 3.3 C 192.8 3.3 192.7 3.3 192.4 3.5 C 192.2 3.8 192.1 4.4 192.1 4.6 C 192.11 4.61 192.1 8.7 192.1 8.7 L 191.1 8.7 Z M 197.7 6.9 C 197.7 7.5 198 8 198.7 8 C 199.3 8 200 7.6 199.9 5.7 C 199 5.7 197.7 5.6 197.7 6.9 Z M 199.9 7.8 C 199.9 7.8 199.91 7.81 199.9 7.8 C 199.6 8.5 199.1 8.8 198.4 8.8 C 197.1 8.8 196.7 8 196.7 6.8 C 196.7 5 198.5 4.9 199.9 4.9 C 199.9 4.1 199.9 3.3 198.9 3.3 C 198.2 3.3 197.9 3.7 197.9 4.3 C 197.9 4.3 196.9 4.3 196.9 4.3 C 196.9 3 197.6 2.5 198.9 2.5 C 200.5 2.5 200.9 3.3 200.9 4.3 C 200.9 4.3 200.9 7.2 200.9 7.2 C 200.9 7.7 200.9 8.2 201 8.7 C 201.01 8.69 199.9 8.7 199.9 8.7 L 199.9 7.8 Z M 203 7.4 L 204.2 7.4 L 203.1 10.2 L 202.4 10.2 L 203 7.4 Z M 210.3 8 C 211.5 8 211.5 6.7 211.5 5.8 C 211.5 4.2 211.4 3.3 210.3 3.3 C 209.3 3.3 209.2 4.6 209.2 5.4 C 209.2 6.3 209.1 8 210.3 8 Z M 209.2 8.7 L 208.2 8.7 L 208.2 0 L 209.2 0 L 209.2 3.2 C 209.2 3.2 209.24 3.24 209.2 3.2 C 209.6 2.8 210 2.5 210.6 2.5 C 212.5 2.5 212.6 4.2 212.6 5.8 C 212.6 8.4 211.6 8.8 210.6 8.8 C 210 8.8 209.6 8.5 209.2 8 C 209.23 7.97 209.2 8 209.2 8 L 209.2 8.7 Z M 215.2 3.5 C 215.2 3.5 215.18 3.54 215.2 3.5 C 215.6 2.6 216.1 2.5 217.1 2.5 C 217.1 2.5 217.1 3.5 217.1 3.5 C 217 3.5 216.9 3.5 216.8 3.5 C 216.7 3.5 216.6 3.5 216.5 3.5 C 215.4 3.5 215.2 4.3 215.2 5.1 C 215.16 5.11 215.2 8.7 215.2 8.7 L 214.2 8.7 L 214.2 2.6 L 215.2 2.6 L 215.2 3.5 Z M 221.4 2.6 L 222.4 2.6 C 222.4 2.6 222.36 7.43 222.4 7.4 C 222.4 7.8 222.4 8.3 222.4 8.7 C 222.42 8.69 221.4 8.7 221.4 8.7 L 221.4 8 C 221.4 8 221.34 7.96 221.3 8 C 221 8.5 220.4 8.8 219.8 8.8 C 218.7 8.8 218.2 8.3 218.2 7.2 C 218.17 7.25 218.2 2.6 218.2 2.6 L 219.2 2.6 C 219.2 2.6 219.16 6.83 219.2 6.8 C 219.2 7.6 219.5 8.1 220.2 8.1 C 220.7 8.1 221.4 7.7 221.4 6.6 C 221.38 6.65 221.4 2.6 221.4 2.6 Z M 225.1 8.7 L 224.1 8.7 L 224.1 2.6 L 225.1 2.6 L 225.1 8.7 Z M 224.1 0 L 225.2 0 L 225.2 1.1 L 224.1 1.1 L 224.1 0 Z M 228.6 8.8 C 227.3 8.8 226.5 8.2 226.5 6.8 C 226.5 6.8 227.6 6.8 227.6 6.8 C 227.6 7.2 227.6 8 228.6 8 C 229.2 8 229.7 7.7 229.7 7.1 C 229.7 6 226.6 6 226.6 4.2 C 226.6 3.5 227 2.5 228.7 2.5 C 229.8 2.5 230.7 3 230.7 4.2 C 230.7 4.2 229.6 4.2 229.6 4.2 C 229.6 3.6 229.2 3.3 228.6 3.3 C 228.1 3.3 227.7 3.5 227.7 4.1 C 227.7 5.1 230.7 5.1 230.7 7 C 230.7 8.3 229.8 8.8 228.6 8.8 Z M 233.1 8.7 L 232.1 8.7 L 232.1 2.6 L 233.1 2.6 L 233.1 8.7 Z M 232 0 L 233.1 0 L 233.1 1.1 L 232 1.1 L 232 0 Z M 238.1 8.7 C 238.1 8.7 238.08 4.49 238.1 4.5 C 238.1 3.8 237.9 3.3 237 3.3 C 235.9 3.3 235.8 4.3 235.8 5.1 C 235.77 5.1 235.8 8.7 235.8 8.7 L 234.8 8.7 C 234.8 8.7 234.79 3.89 234.8 3.9 C 234.8 3.5 234.8 3 234.7 2.6 C 234.73 2.63 235.8 2.6 235.8 2.6 L 235.8 3.4 C 235.8 3.4 235.82 3.41 235.8 3.4 C 236.2 2.7 236.7 2.5 237.4 2.5 C 238.7 2.5 239.1 3.3 239.1 4.5 C 239.06 4.49 239.1 8.7 239.1 8.7 L 238.1 8.7 Z M 242.8 3.3 C 241.7 3.3 241.7 4.7 241.7 5.5 C 241.7 7.4 242.1 7.9 242.9 7.9 C 244.1 7.9 244 6.5 244 5.6 C 244 4.7 244.1 3.3 242.8 3.3 Z M 244 2.6 L 245 2.6 C 245 2.6 244.98 9.3 245 9.3 C 245 10.7 244.1 11 242.7 11 C 241.7 11 240.8 10.5 240.9 9.4 C 240.9 9.4 242 9.4 242 9.4 C 242 9.9 242.4 10.2 242.9 10.2 C 243.6 10.2 244 9.8 244 9.2 C 244 9.19 244 7.9 244 7.9 C 244 7.9 243.96 7.93 244 7.9 C 243.7 8.4 243.2 8.7 242.6 8.7 C 241 8.7 240.7 7.3 240.7 5.5 C 240.7 2.7 242.1 2.5 242.6 2.5 C 243.2 2.5 243.7 2.8 244 3.4 C 243.97 3.37 244 3.4 244 3.4 L 244 2.6 Z M 247 7.4 L 248.2 7.4 L 247.1 10.2 L 246.3 10.2 L 247 7.4 Z M 253 6.9 C 253 7.5 253.3 8 254 8 C 254.6 8 255.3 7.6 255.2 5.7 C 254.3 5.7 253 5.6 253 6.9 Z M 255.2 7.8 C 255.2 7.8 255.22 7.81 255.2 7.8 C 254.9 8.5 254.4 8.8 253.7 8.8 C 252.4 8.8 252 8 252 6.8 C 252 5 253.8 4.9 255.2 4.9 C 255.2 4.1 255.3 3.3 254.2 3.3 C 253.5 3.3 253.2 3.7 253.2 4.3 C 253.2 4.3 252.2 4.3 252.2 4.3 C 252.2 3 252.9 2.5 254.2 2.5 C 255.8 2.5 256.2 3.3 256.2 4.3 C 256.2 4.3 256.2 7.2 256.2 7.2 C 256.2 7.7 256.2 8.2 256.3 8.7 C 256.32 8.69 255.2 8.7 255.2 8.7 L 255.2 7.8 Z M 261.4 8.7 C 261.4 8.7 261.41 4.49 261.4 4.5 C 261.4 3.8 261.2 3.3 260.3 3.3 C 259.3 3.3 259.1 4.3 259.1 5.1 C 259.1 5.1 259.1 8.7 259.1 8.7 L 258.1 8.7 C 258.1 8.7 258.12 3.89 258.1 3.9 C 258.1 3.5 258.1 3 258.1 2.6 C 258.06 2.63 259.1 2.6 259.1 2.6 L 259.1 3.4 C 259.1 3.4 259.15 3.41 259.2 3.4 C 259.5 2.7 260 2.5 260.8 2.5 C 262.1 2.5 262.4 3.3 262.4 4.5 C 262.39 4.49 262.4 8.7 262.4 8.7 L 261.4 8.7 Z M 266.2 3.3 C 265.1 3.3 265 4.2 265 5.8 C 265 6.7 265 8 266.2 8 C 267.3 8 267.3 6.6 267.3 5.4 C 267.3 4.6 267.3 3.3 266.2 3.3 Z M 267.3 0 L 268.3 0 L 268.3 8.7 L 267.3 8.7 L 267.3 8 C 267.3 8 267.3 7.97 267.3 8 C 267 8.5 266.5 8.8 265.9 8.8 C 264.9 8.8 264 8.4 264 5.8 C 264 4.2 264 2.5 266 2.5 C 266.5 2.5 267 2.8 267.3 3.2 C 267.29 3.24 267.3 3.2 267.3 3.2 L 267.3 0 Z " stroke="none" fill="#555555"/>  </g></svg>