<?xml version="1.0" standalone="no"?><!DOCTYPE svg PUBLIC "-//W3C//DTD SVG 1.1//EN" "http://www.w3.org/Graphics/SVG/1.1/DTD/svg11.dtd"><svg xmlns="http://www.w3.org/2000/svg" version="1.1" width="126px" height="83.6px" viewBox="0 -1 126 83.6" style="top:-1px">  <desc>Bradykinin is produced when kallikrein cleaves high molecular weight kininogen (HMWK)</desc>  <defs/>  <g id="Polygon193482">    <path d="M 2 66.2 L 0.9 66.2 L 0.9 56.9 L 2 56.9 L 2 62.5 L 2 62.5 L 4 59.7 L 5.3 59.7 L 3.1 62.5 L 5.7 66.2 L 4.4 66.2 L 2 62.6 L 2 62.6 L 2 66.2 Z M 7.7 66.2 L 6.7 66.2 L 6.7 59.7 L 7.7 59.7 L 7.7 66.2 Z M 6.6 56.9 L 7.8 56.9 L 7.8 58 L 6.6 58 L 6.6 56.9 Z M 13.2 66.2 C 13.2 66.2 13.16 61.69 13.2 61.7 C 13.2 61 12.9 60.4 12 60.4 C 10.8 60.4 10.7 61.5 10.7 62.4 C 10.66 62.35 10.7 66.2 10.7 66.2 L 9.6 66.2 C 9.6 66.2 9.59 61.04 9.6 61 C 9.6 60.6 9.6 60.1 9.5 59.7 C 9.53 59.68 10.7 59.7 10.7 59.7 L 10.7 60.5 C 10.7 60.5 10.71 60.52 10.7 60.5 C 11.1 59.8 11.6 59.5 12.5 59.5 C 13.9 59.5 14.2 60.4 14.2 61.7 C 14.22 61.69 14.2 66.2 14.2 66.2 L 13.2 66.2 Z M 17.1 66.2 L 16.1 66.2 L 16.1 59.7 L 17.1 59.7 L 17.1 66.2 Z M 16 56.9 L 17.2 56.9 L 17.2 58 L 16 58 L 16 56.9 Z M 22.5 66.2 C 22.5 66.2 22.54 61.69 22.5 61.7 C 22.5 61 22.3 60.4 21.4 60.4 C 20.2 60.4 20 61.5 20 62.4 C 20.04 62.35 20 66.2 20 66.2 L 19 66.2 C 19 66.2 18.98 61.04 19 61 C 19 60.6 19 60.1 18.9 59.7 C 18.92 59.68 20 59.7 20 59.7 L 20 60.5 C 20 60.5 20.1 60.52 20.1 60.5 C 20.5 59.8 21 59.5 21.9 59.5 C 23.3 59.5 23.6 60.4 23.6 61.7 C 23.61 61.69 23.6 66.2 23.6 66.2 L 22.5 66.2 Z M 29.2 62.6 C 29.2 60.8 28.6 60.4 27.8 60.4 C 27 60.4 26.4 60.8 26.4 62.6 C 26.4 64.7 26.7 65.5 27.8 65.5 C 28.9 65.5 29.2 64.7 29.2 62.6 Z M 25.3 63.1 C 25.3 61.1 25.5 59.5 27.8 59.5 C 30.1 59.5 30.3 61.1 30.3 63.1 C 30.3 66 29.2 66.4 27.8 66.4 C 26.4 66.4 25.3 66 25.3 63.1 Z M 34.2 60.4 C 33 60.4 33 61.9 33 62.8 C 33 64.9 33.4 65.4 34.2 65.4 C 35.5 65.4 35.5 63.8 35.5 62.9 C 35.5 62 35.5 60.4 34.2 60.4 Z M 35.5 59.7 L 36.5 59.7 C 36.5 59.7 36.52 66.9 36.5 66.9 C 36.5 68.4 35.5 68.7 34.1 68.7 C 33 68.7 32 68.2 32.1 67 C 32.1 67 33.3 67 33.3 67 C 33.3 67.6 33.7 67.9 34.3 67.9 C 35 67.9 35.5 67.5 35.5 66.8 C 35.45 66.79 35.5 65.4 35.5 65.4 C 35.5 65.4 35.41 65.42 35.4 65.4 C 35.1 65.9 34.5 66.2 34 66.2 C 32.2 66.2 31.8 64.7 31.8 62.8 C 31.8 59.7 33.4 59.5 33.9 59.5 C 34.6 59.5 35.1 59.8 35.4 60.5 C 35.43 60.48 35.5 60.5 35.5 60.5 L 35.5 59.7 Z M 42.1 62.5 C 42.1 60.6 41.5 60.4 40.8 60.4 C 40.1 60.4 39.5 60.7 39.5 62.5 C 39.5 62.5 42.1 62.5 42.1 62.5 Z M 39.5 63.3 C 39.5 65.1 40 65.5 40.8 65.5 C 41.6 65.5 42 64.9 42 64.3 C 42 64.3 43.2 64.3 43.2 64.3 C 43.1 65.7 42.2 66.4 40.9 66.4 C 39.5 66.4 38.4 66 38.4 63.1 C 38.4 61.1 38.6 59.5 40.9 59.5 C 42.7 59.5 43.2 60.6 43.2 62.7 C 43.21 62.74 43.2 63.3 43.2 63.3 C 43.2 63.3 39.52 63.3 39.5 63.3 Z M 48.5 66.2 C 48.5 66.2 48.54 61.69 48.5 61.7 C 48.5 61 48.3 60.4 47.4 60.4 C 46.2 60.4 46 61.5 46 62.4 C 46.04 62.35 46 66.2 46 66.2 L 45 66.2 C 45 66.2 44.98 61.04 45 61 C 45 60.6 45 60.1 44.9 59.7 C 44.92 59.68 46 59.7 46 59.7 L 46 60.5 C 46 60.5 46.1 60.52 46.1 60.5 C 46.5 59.8 47 59.5 47.9 59.5 C 49.3 59.5 49.6 60.4 49.6 61.7 C 49.61 61.69 49.6 66.2 49.6 66.2 L 48.5 66.2 Z M 55.4 67.8 C 54.8 65.9 54.1 64.1 54.1 62.2 C 54.1 60.2 54.8 58.3 55.4 56.4 C 55.4 56.4 56.2 56.4 56.2 56.4 C 55.7 58.3 55.3 60.2 55.3 62.2 C 55.3 64.1 55.7 66 56.1 67.8 C 56.1 67.8 55.4 67.8 55.4 67.8 Z M 58.2 66.2 L 58.2 56.9 L 59.4 56.9 L 59.4 60.9 L 62.7 60.9 L 62.7 56.9 L 63.9 56.9 L 63.9 66.2 L 62.7 66.2 L 62.7 61.9 L 59.4 61.9 L 59.4 66.2 L 58.2 66.2 Z M 67.2 66.2 L 66.1 66.2 L 66.1 56.9 L 68 56.9 L 70.4 64.7 L 70.4 64.7 L 72.8 56.9 L 74.7 56.9 L 74.7 66.2 L 73.6 66.2 L 73.6 57.9 L 73.5 57.9 L 70.9 66.2 L 69.8 66.2 L 67.2 57.9 L 67.2 57.9 L 67.2 66.2 Z M 75.9 56.9 L 77.2 56.9 L 78.9 65 L 79 65 L 80.8 56.9 L 82.4 56.9 L 84.1 65 L 84.1 65 L 86 56.9 L 87.3 56.9 L 84.8 66.2 L 83.3 66.2 L 81.6 58.1 L 81.5 58.1 L 79.6 66.2 L 78.2 66.2 L 75.9 56.9 Z M 88.4 66.2 L 88.4 56.9 L 89.6 56.9 L 89.6 61 L 89.7 61 L 92.9 56.9 L 94.3 56.9 L 90.9 61.1 L 94.5 66.2 L 92.9 66.2 L 89.7 61.3 L 89.6 61.3 L 89.6 66.2 L 88.4 66.2 Z M 95.5 67.8 C 96 66 96.3 64.1 96.3 62.2 C 96.3 60.2 96 58.3 95.5 56.4 C 95.5 56.4 96.3 56.4 96.3 56.4 C 96.8 58.3 97.6 60.2 97.6 62.2 C 97.6 64.1 96.8 65.9 96.3 67.8 C 96.3 67.8 95.5 67.8 95.5 67.8 Z " stroke="none" fill="#003c71"/>  </g>  <g id="Polygon193481">    <path d="M 4.5 51.2 C 4.5 51.2 4.5 46.79 4.5 46.8 C 4.5 46 4.2 45.4 3.3 45.4 C 2.3 45.4 2 46.3 2 47.4 C 1.99 47.38 2 51.2 2 51.2 L 0.9 51.2 L 0.9 41.9 L 2 41.9 L 2 45.5 C 2 45.5 2.04 45.52 2 45.5 C 2.5 44.8 3 44.5 3.8 44.5 C 4.9 44.5 5.6 45.1 5.6 46.6 C 5.56 46.59 5.6 51.2 5.6 51.2 L 4.5 51.2 Z M 8.5 51.2 L 7.4 51.2 L 7.4 44.7 L 8.5 44.7 L 8.5 51.2 Z M 7.3 41.9 L 8.5 41.9 L 8.5 43 L 7.3 43 L 7.3 41.9 Z M 12.5 45.4 C 11.3 45.4 11.3 46.9 11.3 47.8 C 11.3 49.9 11.8 50.4 12.6 50.4 C 13.9 50.4 13.8 48.8 13.8 47.9 C 13.8 47 13.9 45.4 12.5 45.4 Z M 13.8 44.7 L 14.9 44.7 C 14.9 44.7 14.86 51.9 14.9 51.9 C 14.9 53.4 13.9 53.7 12.4 53.7 C 11.3 53.7 10.4 53.2 10.5 52 C 10.5 52 11.6 52 11.6 52 C 11.7 52.6 12.1 52.9 12.6 52.9 C 13.4 52.9 13.8 52.5 13.8 51.8 C 13.79 51.79 13.8 50.4 13.8 50.4 C 13.8 50.4 13.75 50.42 13.8 50.4 C 13.5 50.9 12.9 51.2 12.3 51.2 C 10.5 51.2 10.2 49.7 10.2 47.8 C 10.2 44.7 11.7 44.5 12.2 44.5 C 12.9 44.5 13.5 44.8 13.8 45.5 C 13.77 45.48 13.8 45.5 13.8 45.5 L 13.8 44.7 Z M 20.4 51.2 C 20.4 51.2 20.38 46.79 20.4 46.8 C 20.4 46 20.1 45.4 19.2 45.4 C 18.1 45.4 17.9 46.3 17.9 47.4 C 17.87 47.38 17.9 51.2 17.9 51.2 L 16.8 51.2 L 16.8 41.9 L 17.9 41.9 L 17.9 45.5 C 17.9 45.5 17.93 45.52 17.9 45.5 C 18.4 44.8 18.8 44.5 19.7 44.5 C 20.8 44.5 21.4 45.1 21.4 46.6 C 21.45 46.59 21.4 51.2 21.4 51.2 L 20.4 51.2 Z M 23.1 47.2 L 26 47.2 L 26 48.2 L 23.1 48.2 L 23.1 47.2 Z M 30.9 51.2 C 30.9 51.2 30.88 46.69 30.9 46.7 C 30.9 46 30.7 45.4 29.8 45.4 C 29.5 45.4 29.1 45.6 28.9 45.9 C 28.7 46.2 28.7 46.6 28.7 46.8 C 28.66 46.82 28.7 51.2 28.7 51.2 L 27.6 51.2 C 27.6 51.2 27.6 46.04 27.6 46 C 27.6 45.6 27.6 45.1 27.5 44.7 C 27.53 44.68 28.7 44.7 28.7 44.7 L 28.7 45.5 C 28.7 45.5 28.69 45.49 28.7 45.5 C 29 44.8 29.6 44.5 30.3 44.5 C 30.9 44.5 31.6 44.8 31.9 45.4 C 32.2 44.7 32.8 44.5 33.4 44.5 C 34.1 44.5 35.2 44.7 35.2 46.2 C 35.22 46.25 35.2 51.2 35.2 51.2 L 34.2 51.2 C 34.2 51.2 34.15 46.69 34.2 46.7 C 34.2 46 34 45.4 33.1 45.4 C 32.7 45.4 32.6 45.4 32.3 45.7 C 32 45.9 31.9 46.6 31.9 46.8 C 31.94 46.82 31.9 51.2 31.9 51.2 L 30.9 51.2 Z M 40.7 47.6 C 40.7 45.8 40.2 45.4 39.4 45.4 C 38.5 45.4 38 45.8 38 47.6 C 38 49.7 38.2 50.5 39.4 50.5 C 40.5 50.5 40.7 49.7 40.7 47.6 Z M 36.9 48.1 C 36.9 46.1 37.1 44.5 39.4 44.5 C 41.6 44.5 41.8 46.1 41.8 48.1 C 41.8 51 40.7 51.4 39.4 51.4 C 38 51.4 36.9 51 36.9 48.1 Z M 44.6 51.2 L 43.5 51.2 L 43.5 41.9 L 44.6 41.9 L 44.6 51.2 Z M 50 47.5 C 50 45.6 49.5 45.4 48.7 45.4 C 48 45.4 47.5 45.7 47.5 47.5 C 47.5 47.5 50 47.5 50 47.5 Z M 47.5 48.3 C 47.5 50.1 48 50.5 48.8 50.5 C 49.5 50.5 49.9 49.9 49.9 49.3 C 49.9 49.3 51.1 49.3 51.1 49.3 C 51.1 50.7 50.2 51.4 48.8 51.4 C 47.4 51.4 46.3 51 46.3 48.1 C 46.3 46.1 46.5 44.5 48.8 44.5 C 50.7 44.5 51.2 45.6 51.2 47.7 C 51.15 47.74 51.2 48.3 51.2 48.3 C 51.2 48.3 47.46 48.3 47.5 48.3 Z M 56.4 46.8 C 56.4 45.7 55.8 45.4 55.4 45.4 C 54.6 45.4 54.1 45.8 54.1 47.6 C 54.1 49.7 54.3 50.5 55.4 50.5 C 55.7 50.5 56.4 50.2 56.4 49.1 C 56.4 49.1 57.5 49.1 57.5 49.1 C 57.5 50.9 56.2 51.4 55.4 51.4 C 54.1 51.4 52.9 51 52.9 48.1 C 52.9 46.1 53.2 44.5 55.4 44.5 C 56.8 44.5 57.5 45.3 57.5 46.8 C 57.5 46.8 56.4 46.8 56.4 46.8 Z M 62.9 44.7 L 64 44.7 C 64 44.7 64 49.88 64 49.9 C 64 50.3 64 50.8 64.1 51.2 C 64.06 51.24 62.9 51.2 62.9 51.2 L 62.9 50.4 C 62.9 50.4 62.89 50.45 62.9 50.4 C 62.5 51 61.9 51.4 61.2 51.4 C 60.1 51.4 59.5 50.8 59.5 49.7 C 59.46 49.68 59.5 44.7 59.5 44.7 L 60.5 44.7 C 60.5 44.7 60.53 49.23 60.5 49.2 C 60.5 50 60.9 50.6 61.6 50.6 C 62.2 50.6 62.9 50.1 62.9 49 C 62.93 49.03 62.9 44.7 62.9 44.7 Z M 67 51.2 L 65.9 51.2 L 65.9 41.9 L 67 41.9 L 67 51.2 Z M 69.8 49.3 C 69.8 49.9 70.1 50.5 70.8 50.5 C 71.5 50.5 72.3 50.1 72.2 48 C 71.1 48 69.8 47.9 69.8 49.3 Z M 72.2 50.3 C 72.2 50.3 72.16 50.29 72.2 50.3 C 71.8 51 71.3 51.4 70.5 51.4 C 69.1 51.4 68.7 50.5 68.7 49.2 C 68.7 47.2 70.7 47.1 72.2 47.2 C 72.2 46.3 72.2 45.4 71.1 45.4 C 70.3 45.4 70 45.8 70 46.5 C 70 46.5 68.9 46.5 68.9 46.5 C 68.9 45.1 69.7 44.5 71.1 44.5 C 72.8 44.5 73.2 45.4 73.2 46.5 C 73.2 46.5 73.2 49.7 73.2 49.7 C 73.2 50.2 73.3 50.7 73.4 51.2 C 73.36 51.24 72.2 51.2 72.2 51.2 L 72.2 50.3 Z M 76.4 45.7 C 76.4 45.7 76.44 45.66 76.4 45.7 C 76.9 44.7 77.4 44.5 78.5 44.5 C 78.5 44.5 78.5 45.6 78.5 45.6 C 78.4 45.6 78.3 45.6 78.2 45.6 C 78.1 45.6 78 45.6 77.9 45.6 C 76.7 45.6 76.4 46.5 76.4 47.4 C 76.41 47.37 76.4 51.2 76.4 51.2 L 75.3 51.2 L 75.3 44.7 L 76.4 44.7 L 76.4 45.7 Z M 81.7 44.7 L 82.9 44.7 L 84.1 50.3 L 84.1 50.3 L 85.6 44.7 L 87.1 44.7 L 88.4 50.3 L 88.4 50.3 L 89.7 44.7 L 90.9 44.7 L 89.1 51.2 L 87.7 51.2 L 86.3 45.6 L 86.2 45.6 L 84.8 51.2 L 83.3 51.2 L 81.7 44.7 Z M 95.5 47.5 C 95.5 45.6 95 45.4 94.2 45.4 C 93.5 45.4 93 45.7 92.9 47.5 C 92.9 47.5 95.5 47.5 95.5 47.5 Z M 92.9 48.3 C 92.9 50.1 93.4 50.5 94.3 50.5 C 95 50.5 95.4 49.9 95.4 49.3 C 95.4 49.3 96.6 49.3 96.6 49.3 C 96.6 50.7 95.7 51.4 94.3 51.4 C 92.9 51.4 91.8 51 91.8 48.1 C 91.8 46.1 92 44.5 94.3 44.5 C 96.2 44.5 96.6 45.6 96.6 47.7 C 96.64 47.74 96.6 48.3 96.6 48.3 C 96.6 48.3 92.95 48.3 92.9 48.3 Z M 99.4 51.2 L 98.4 51.2 L 98.4 44.7 L 99.4 44.7 L 99.4 51.2 Z M 98.3 41.9 L 99.5 41.9 L 99.5 43 L 98.3 43 L 98.3 41.9 Z M 103.5 45.4 C 102.3 45.4 102.3 46.9 102.3 47.8 C 102.3 49.9 102.7 50.4 103.5 50.4 C 104.8 50.4 104.8 48.8 104.8 47.9 C 104.8 47 104.9 45.4 103.5 45.4 Z M 104.8 44.7 L 105.8 44.7 C 105.8 44.7 105.83 51.9 105.8 51.9 C 105.8 53.4 104.9 53.7 103.4 53.7 C 102.3 53.7 101.3 53.2 101.4 52 C 101.4 52 102.6 52 102.6 52 C 102.6 52.6 103 52.9 103.6 52.9 C 104.4 52.9 104.8 52.5 104.8 51.8 C 104.77 51.79 104.8 50.4 104.8 50.4 C 104.8 50.4 104.73 50.42 104.7 50.4 C 104.5 50.9 103.9 51.2 103.3 51.2 C 101.5 51.2 101.2 49.7 101.2 47.8 C 101.2 44.7 102.7 44.5 103.2 44.5 C 103.9 44.5 104.4 44.8 104.7 45.5 C 104.74 45.48 104.8 45.5 104.8 45.5 L 104.8 44.7 Z M 111.4 51.2 C 111.4 51.2 111.36 46.79 111.4 46.8 C 111.4 46 111.1 45.4 110.2 45.4 C 109.1 45.4 108.8 46.3 108.8 47.4 C 108.85 47.38 108.8 51.2 108.8 51.2 L 107.8 51.2 L 107.8 41.9 L 108.8 41.9 L 108.8 45.5 C 108.8 45.5 108.9 45.52 108.9 45.5 C 109.3 44.8 109.8 44.5 110.7 44.5 C 111.8 44.5 112.4 45.1 112.4 46.6 C 112.42 46.59 112.4 51.2 112.4 51.2 L 111.4 51.2 Z M 114.4 44.7 L 114.4 43.4 L 115.5 42.9 L 115.5 44.7 L 116.9 44.7 L 116.9 45.5 L 115.5 45.5 C 115.5 45.5 115.48 49.5 115.5 49.5 C 115.5 49.9 115.5 50.4 116.5 50.4 C 116.5 50.4 116.7 50.4 116.9 50.4 C 116.9 50.4 116.9 51.2 116.9 51.2 C 116.6 51.2 116.2 51.3 115.9 51.3 C 114.9 51.3 114.4 50.9 114.4 50.1 C 114.41 50.15 114.4 45.5 114.4 45.5 L 113.3 45.5 L 113.3 44.7 L 114.4 44.7 Z " stroke="none" fill="#003c71"/>  </g>  <g id="Polygon193480">    <path d="M 0.1 29.7 L 1.3 29.7 L 2.5 35.3 L 2.5 35.3 L 4 29.7 L 5.5 29.7 L 6.8 35.3 L 6.8 35.3 L 8.1 29.7 L 9.3 29.7 L 7.5 36.2 L 6.1 36.2 L 4.7 30.6 L 4.7 30.6 L 3.2 36.2 L 1.8 36.2 L 0.1 29.7 Z M 13.9 36.2 C 13.9 36.2 13.88 31.79 13.9 31.8 C 13.9 31 13.6 30.4 12.7 30.4 C 11.6 30.4 11.4 31.3 11.4 32.4 C 11.37 32.38 11.4 36.2 11.4 36.2 L 10.3 36.2 L 10.3 26.9 L 11.4 26.9 L 11.4 30.5 C 11.4 30.5 11.43 30.52 11.4 30.5 C 11.9 29.8 12.3 29.5 13.2 29.5 C 14.3 29.5 14.9 30.1 14.9 31.6 C 14.95 31.59 14.9 36.2 14.9 36.2 L 13.9 36.2 Z M 20.4 32.5 C 20.4 30.6 19.9 30.4 19.1 30.4 C 18.4 30.4 17.9 30.7 17.9 32.5 C 17.9 32.5 20.4 32.5 20.4 32.5 Z M 17.9 33.3 C 17.9 35.1 18.4 35.5 19.2 35.5 C 19.9 35.5 20.3 34.9 20.3 34.3 C 20.3 34.3 21.5 34.3 21.5 34.3 C 21.5 35.7 20.6 36.4 19.2 36.4 C 17.8 36.4 16.7 36 16.7 33.1 C 16.7 31.1 16.9 29.5 19.2 29.5 C 21.1 29.5 21.6 30.6 21.6 32.7 C 21.55 32.74 21.6 33.3 21.6 33.3 C 21.6 33.3 17.86 33.3 17.9 33.3 Z M 26.9 36.2 C 26.9 36.2 26.88 31.69 26.9 31.7 C 26.9 31 26.6 30.4 25.7 30.4 C 24.6 30.4 24.4 31.5 24.4 32.4 C 24.39 32.35 24.4 36.2 24.4 36.2 L 23.3 36.2 C 23.3 36.2 23.32 31.04 23.3 31 C 23.3 30.6 23.3 30.1 23.3 29.7 C 23.26 29.68 24.4 29.7 24.4 29.7 L 24.4 30.5 C 24.4 30.5 24.44 30.52 24.4 30.5 C 24.9 29.8 25.3 29.5 26.2 29.5 C 27.6 29.5 27.9 30.4 27.9 31.7 C 27.95 31.69 27.9 36.2 27.9 36.2 L 26.9 36.2 Z M 33.8 36.2 L 32.7 36.2 L 32.7 26.9 L 33.8 26.9 L 33.8 32.5 L 33.8 32.5 L 35.8 29.7 L 37.1 29.7 L 34.9 32.5 L 37.5 36.2 L 36.1 36.2 L 33.8 32.6 L 33.8 32.6 L 33.8 36.2 Z M 39.5 34.3 C 39.5 34.9 39.8 35.5 40.5 35.5 C 41.1 35.5 41.9 35.1 41.8 33 C 40.8 33 39.5 32.9 39.5 34.3 Z M 41.9 35.3 C 41.9 35.3 41.83 35.29 41.8 35.3 C 41.5 36 41 36.4 40.2 36.4 C 38.8 36.4 38.4 35.5 38.4 34.2 C 38.4 32.2 40.3 32.1 41.8 32.2 C 41.9 31.3 41.9 30.4 40.7 30.4 C 40 30.4 39.6 30.8 39.7 31.5 C 39.7 31.5 38.5 31.5 38.5 31.5 C 38.6 30.1 39.4 29.5 40.8 29.5 C 42.5 29.5 42.9 30.4 42.9 31.5 C 42.9 31.5 42.9 34.7 42.9 34.7 C 42.9 35.2 43 35.7 43 36.2 C 43.03 36.24 41.9 36.2 41.9 36.2 L 41.9 35.3 Z M 46 36.2 L 45 36.2 L 45 26.9 L 46 26.9 L 46 36.2 Z M 48.9 36.2 L 47.8 36.2 L 47.8 26.9 L 48.9 26.9 L 48.9 36.2 Z M 51.8 36.2 L 50.7 36.2 L 50.7 29.7 L 51.8 29.7 L 51.8 36.2 Z M 50.7 26.9 L 51.9 26.9 L 51.9 28 L 50.7 28 L 50.7 26.9 Z M 54.7 36.2 L 53.6 36.2 L 53.6 26.9 L 54.7 26.9 L 54.7 32.5 L 54.7 32.5 L 56.7 29.7 L 58 29.7 L 55.8 32.5 L 58.4 36.2 L 57.1 36.2 L 54.7 32.6 L 54.7 32.6 L 54.7 36.2 Z M 60.5 30.7 C 60.5 30.7 60.54 30.66 60.5 30.7 C 61 29.7 61.5 29.5 62.6 29.5 C 62.6 29.5 62.6 30.6 62.6 30.6 C 62.5 30.6 62.4 30.6 62.3 30.6 C 62.2 30.6 62.1 30.6 62 30.6 C 60.8 30.6 60.5 31.5 60.5 32.4 C 60.51 32.37 60.5 36.2 60.5 36.2 L 59.4 36.2 L 59.4 29.7 L 60.5 29.7 L 60.5 30.7 Z M 67.3 32.5 C 67.3 30.6 66.8 30.4 66 30.4 C 65.3 30.4 64.8 30.7 64.8 32.5 C 64.8 32.5 67.3 32.5 67.3 32.5 Z M 64.8 33.3 C 64.8 35.1 65.3 35.5 66.1 35.5 C 66.8 35.5 67.2 34.9 67.2 34.3 C 67.2 34.3 68.4 34.3 68.4 34.3 C 68.4 35.7 67.5 36.4 66.1 36.4 C 64.7 36.4 63.6 36 63.6 33.1 C 63.6 31.1 63.9 29.5 66.1 29.5 C 68 29.5 68.5 30.6 68.5 32.7 C 68.47 32.74 68.5 33.3 68.5 33.3 C 68.5 33.3 64.78 33.3 64.8 33.3 Z M 71.3 36.2 L 70.2 36.2 L 70.2 29.7 L 71.3 29.7 L 71.3 36.2 Z M 70.1 26.9 L 71.3 26.9 L 71.3 28 L 70.1 28 L 70.1 26.9 Z M 76.7 36.2 C 76.7 36.2 76.69 31.69 76.7 31.7 C 76.7 31 76.4 30.4 75.5 30.4 C 74.4 30.4 74.2 31.5 74.2 32.4 C 74.19 32.35 74.2 36.2 74.2 36.2 L 73.1 36.2 C 73.1 36.2 73.12 31.04 73.1 31 C 73.1 30.6 73.1 30.1 73.1 29.7 C 73.06 29.68 74.2 29.7 74.2 29.7 L 74.2 30.5 C 74.2 30.5 74.24 30.52 74.2 30.5 C 74.7 29.8 75.2 29.5 76 29.5 C 77.4 29.5 77.8 30.4 77.8 31.7 C 77.75 31.69 77.8 36.2 77.8 36.2 L 76.7 36.2 Z M 85.9 31.8 C 86 30.7 85.4 30.4 85 30.4 C 84.2 30.4 83.7 30.8 83.7 32.6 C 83.7 34.7 83.9 35.5 85 35.5 C 85.3 35.5 86 35.2 86 34.1 C 86 34.1 87.1 34.1 87.1 34.1 C 87.1 35.9 85.8 36.4 85 36.4 C 83.6 36.4 82.5 36 82.5 33.1 C 82.5 31.1 82.8 29.5 85 29.5 C 86.3 29.5 87.1 30.3 87 31.8 C 87 31.8 85.9 31.8 85.9 31.8 Z M 90 36.2 L 89 36.2 L 89 26.9 L 90 26.9 L 90 36.2 Z M 95.5 32.5 C 95.5 30.6 95 30.4 94.2 30.4 C 93.5 30.4 92.9 30.7 92.9 32.5 C 92.9 32.5 95.5 32.5 95.5 32.5 Z M 92.9 33.3 C 92.9 35.1 93.4 35.5 94.3 35.5 C 95 35.5 95.4 34.9 95.4 34.3 C 95.4 34.3 96.6 34.3 96.6 34.3 C 96.6 35.7 95.7 36.4 94.3 36.4 C 92.9 36.4 91.8 36 91.8 33.1 C 91.8 31.1 92 29.5 94.3 29.5 C 96.2 29.5 96.6 30.6 96.6 32.7 C 96.63 32.74 96.6 33.3 96.6 33.3 C 96.6 33.3 92.93 33.3 92.9 33.3 Z M 99.4 34.3 C 99.4 34.9 99.7 35.5 100.4 35.5 C 101 35.5 101.9 35.1 101.7 33 C 100.7 33 99.4 32.9 99.4 34.3 Z M 101.8 35.3 C 101.8 35.3 101.75 35.29 101.7 35.3 C 101.4 36 100.9 36.4 100.1 36.4 C 98.7 36.4 98.3 35.5 98.3 34.2 C 98.3 32.2 100.3 32.1 101.7 32.2 C 101.8 31.3 101.8 30.4 100.6 30.4 C 99.9 30.4 99.6 30.8 99.6 31.5 C 99.6 31.5 98.5 31.5 98.5 31.5 C 98.5 30.1 99.3 29.5 100.7 29.5 C 102.4 29.5 102.8 30.4 102.8 31.5 C 102.8 31.5 102.8 34.7 102.8 34.7 C 102.8 35.2 102.9 35.7 102.9 36.2 C 102.94 36.24 101.8 36.2 101.8 36.2 L 101.8 35.3 Z M 104.1 29.7 L 105.3 29.7 L 106.8 35.2 L 106.8 35.2 L 108.4 29.7 L 109.5 29.7 L 107.5 36.2 L 106.1 36.2 L 104.1 29.7 Z M 114.3 32.5 C 114.3 30.6 113.7 30.4 113 30.4 C 112.3 30.4 111.7 30.7 111.7 32.5 C 111.7 32.5 114.3 32.5 114.3 32.5 Z M 111.7 33.3 C 111.7 35.1 112.2 35.5 113 35.5 C 113.8 35.5 114.1 34.9 114.2 34.3 C 114.2 34.3 115.3 34.3 115.3 34.3 C 115.3 35.7 114.4 36.4 113.1 36.4 C 111.7 36.4 110.6 36 110.6 33.1 C 110.6 31.1 110.8 29.5 113.1 29.5 C 114.9 29.5 115.4 30.6 115.4 32.7 C 115.4 32.74 115.4 33.3 115.4 33.3 C 115.4 33.3 111.71 33.3 111.7 33.3 Z M 119.1 36.4 C 117.7 36.4 116.8 35.7 116.8 34.2 C 116.8 34.2 118 34.2 118 34.2 C 118 34.6 118.1 35.5 119.1 35.5 C 119.8 35.5 120.3 35.2 120.3 34.5 C 120.3 33.3 117 33.3 117 31.3 C 117 30.6 117.4 29.5 119.3 29.5 C 120.4 29.5 121.4 30.1 121.3 31.4 C 121.3 31.4 120.2 31.4 120.2 31.4 C 120.2 30.7 119.8 30.4 119.1 30.4 C 118.6 30.4 118.1 30.7 118.1 31.2 C 118.1 32.4 121.4 32.4 121.4 34.4 C 121.4 35.8 120.4 36.4 119.1 36.4 Z " stroke="none" fill="#003c71"/>  </g>  <g id="Polygon193479">    <path d="M 2.4 20.2 C 2.4 20.2 4.06 20.2 4.1 20.2 C 5.3 20.2 5.8 19.3 5.8 18.6 C 5.8 17.1 4.9 16.8 3.6 16.8 C 3.64 16.85 2.4 16.8 2.4 16.8 L 2.4 20.2 Z M 2.4 15.8 C 2.4 15.8 4.11 15.81 4.1 15.8 C 5 15.8 5.5 15.2 5.5 14.3 C 5.5 13.5 5.1 12.9 4.1 12.9 C 4.06 12.89 2.4 12.9 2.4 12.9 L 2.4 15.8 Z M 1.2 21.2 L 1.2 11.9 C 1.2 11.9 4.23 11.86 4.2 11.9 C 5.5 11.9 6 12.3 6.3 12.8 C 6.6 13.3 6.7 13.9 6.7 14.1 C 6.7 15.2 6.3 16 5.1 16.3 C 5.1 16.3 5.1 16.4 5.1 16.4 C 6.4 16.5 7 17.3 7 18.6 C 7 21 5.3 21.2 4.2 21.2 C 4.19 21.24 1.2 21.2 1.2 21.2 Z M 10 15.7 C 10 15.7 10.01 15.66 10 15.7 C 10.5 14.7 11 14.5 12 14.5 C 12 14.5 12 15.6 12 15.6 C 11.9 15.6 11.8 15.6 11.8 15.6 C 11.7 15.6 11.6 15.6 11.5 15.6 C 10.3 15.6 10 16.5 10 17.4 C 9.98 17.37 10 21.2 10 21.2 L 8.9 21.2 L 8.9 14.7 L 10 14.7 L 10 15.7 Z M 14.2 19.3 C 14.2 19.9 14.5 20.5 15.2 20.5 C 15.9 20.5 16.7 20.1 16.6 18 C 15.5 18 14.2 17.9 14.2 19.3 Z M 16.6 20.3 C 16.6 20.3 16.56 20.29 16.6 20.3 C 16.2 21 15.7 21.4 14.9 21.4 C 13.5 21.4 13.1 20.5 13.1 19.2 C 13.1 17.2 15.1 17.1 16.6 17.2 C 16.6 16.3 16.6 15.4 15.5 15.4 C 14.7 15.4 14.4 15.8 14.4 16.5 C 14.4 16.5 13.3 16.5 13.3 16.5 C 13.3 15.1 14.1 14.5 15.5 14.5 C 17.2 14.5 17.6 15.4 17.6 16.5 C 17.6 16.5 17.6 19.7 17.6 19.7 C 17.6 20.2 17.7 20.7 17.8 21.2 C 17.76 21.24 16.6 21.2 16.6 21.2 L 16.6 20.3 Z M 21.9 15.4 C 20.8 15.4 20.6 16.3 20.6 18.1 C 20.6 19.1 20.6 20.5 22 20.5 C 23.2 20.5 23.2 19 23.2 17.7 C 23.2 16.8 23.1 15.4 21.9 15.4 Z M 23.2 11.9 L 24.2 11.9 L 24.2 21.2 L 23.2 21.2 L 23.2 20.5 C 23.2 20.5 23.15 20.46 23.2 20.5 C 22.8 21.1 22.3 21.4 21.6 21.4 C 20.6 21.4 19.5 21 19.5 18.1 C 19.5 16.4 19.6 14.5 21.7 14.5 C 22.3 14.5 22.8 14.8 23.1 15.3 C 23.14 15.34 23.2 15.3 23.2 15.3 L 23.2 11.9 Z M 28.2 20 L 28.2 20 L 29.8 14.7 L 30.9 14.7 L 28 23.7 L 26.9 23.7 L 27.6 21.2 L 25.4 14.7 L 26.6 14.7 L 28.2 20 Z M 33 21.2 L 32 21.2 L 32 11.9 L 33 11.9 L 33 17.5 L 33.1 17.5 L 35.1 14.7 L 36.4 14.7 L 34.2 17.5 L 36.8 21.2 L 35.4 21.2 L 33.1 17.6 L 33 17.6 L 33 21.2 Z M 38.8 21.2 L 37.7 21.2 L 37.7 14.7 L 38.8 14.7 L 38.8 21.2 Z M 37.7 11.9 L 38.9 11.9 L 38.9 13 L 37.7 13 L 37.7 11.9 Z M 44.2 21.2 C 44.2 21.2 44.2 16.69 44.2 16.7 C 44.2 16 44 15.4 43 15.4 C 41.9 15.4 41.7 16.5 41.7 17.4 C 41.7 17.35 41.7 21.2 41.7 21.2 L 40.6 21.2 C 40.6 21.2 40.64 16.04 40.6 16 C 40.6 15.6 40.6 15.1 40.6 14.7 C 40.57 14.68 41.7 14.7 41.7 14.7 L 41.7 15.5 C 41.7 15.5 41.75 15.52 41.8 15.5 C 42.2 14.8 42.7 14.5 43.5 14.5 C 44.9 14.5 45.3 15.4 45.3 16.7 C 45.26 16.69 45.3 21.2 45.3 21.2 L 44.2 21.2 Z M 48.2 21.2 L 47.1 21.2 L 47.1 14.7 L 48.2 14.7 L 48.2 21.2 Z M 47 11.9 L 48.2 11.9 L 48.2 13 L 47 13 L 47 11.9 Z M 53.6 21.2 C 53.6 21.2 53.59 16.69 53.6 16.7 C 53.6 16 53.3 15.4 52.4 15.4 C 51.3 15.4 51.1 16.5 51.1 17.4 C 51.09 17.35 51.1 21.2 51.1 21.2 L 50 21.2 C 50 21.2 50.02 16.04 50 16 C 50 15.6 50 15.1 50 14.7 C 49.96 14.68 51.1 14.7 51.1 14.7 L 51.1 15.5 C 51.1 15.5 51.14 15.52 51.1 15.5 C 51.6 14.8 52.1 14.5 52.9 14.5 C 54.3 14.5 54.7 15.4 54.7 16.7 C 54.65 16.69 54.7 21.2 54.7 21.2 L 53.6 21.2 Z M 60.4 21.2 L 59.4 21.2 L 59.4 14.7 L 60.4 14.7 L 60.4 21.2 Z M 59.3 11.9 L 60.5 11.9 L 60.5 13 L 59.3 13 L 59.3 11.9 Z M 64.2 21.4 C 62.8 21.4 61.9 20.7 62 19.2 C 62 19.2 63.2 19.2 63.2 19.2 C 63.2 19.6 63.2 20.5 64.3 20.5 C 64.9 20.5 65.4 20.2 65.4 19.5 C 65.4 18.3 62.1 18.3 62.1 16.3 C 62.1 15.6 62.5 14.5 64.4 14.5 C 65.6 14.5 66.6 15.1 66.5 16.4 C 66.5 16.4 65.3 16.4 65.3 16.4 C 65.3 15.7 64.9 15.4 64.3 15.4 C 63.7 15.4 63.2 15.7 63.2 16.2 C 63.2 17.4 66.5 17.4 66.5 19.4 C 66.5 20.8 65.5 21.4 64.2 21.4 Z M 74.6 17.8 C 74.6 16.9 74.6 15.4 73.3 15.4 C 72 15.4 72.1 17.2 72.1 18.2 C 72.1 19.1 72.2 20.5 73.3 20.5 C 74.5 20.5 74.6 19.6 74.6 17.8 Z M 72.1 15.5 C 72.1 15.5 72.13 15.45 72.1 15.5 C 72.5 14.8 73 14.5 73.6 14.5 C 74.7 14.5 75.8 15 75.8 17.8 C 75.8 19.5 75.7 21.4 73.6 21.4 C 73 21.4 72.5 21.1 72.1 20.6 C 72.15 20.58 72.1 20.6 72.1 20.6 L 72.1 23.7 L 71 23.7 L 71 14.7 L 72.1 14.7 L 72.1 15.5 Z M 78.6 15.7 C 78.6 15.7 78.58 15.66 78.6 15.7 C 79 14.7 79.6 14.5 80.6 14.5 C 80.6 14.5 80.6 15.6 80.6 15.6 C 80.5 15.6 80.4 15.6 80.3 15.6 C 80.2 15.6 80.1 15.6 80 15.6 C 78.9 15.6 78.6 16.5 78.6 17.4 C 78.56 17.37 78.6 21.2 78.6 21.2 L 77.5 21.2 L 77.5 14.7 L 78.6 14.7 L 78.6 15.7 Z M 85.5 17.6 C 85.5 15.8 84.9 15.4 84.1 15.4 C 83.3 15.4 82.7 15.8 82.7 17.6 C 82.7 19.7 83 20.5 84.1 20.5 C 85.2 20.5 85.5 19.7 85.5 17.6 Z M 81.6 18.1 C 81.6 16.1 81.8 14.5 84.1 14.5 C 86.4 14.5 86.6 16.1 86.6 18.1 C 86.6 21 85.5 21.4 84.1 21.4 C 82.7 21.4 81.6 21 81.6 18.1 Z M 90.5 15.4 C 89.4 15.4 89.2 16.3 89.2 18.1 C 89.2 19.1 89.2 20.5 90.6 20.5 C 91.8 20.5 91.8 19 91.8 17.7 C 91.8 16.8 91.7 15.4 90.5 15.4 Z M 91.8 11.9 L 92.8 11.9 L 92.8 21.2 L 91.8 21.2 L 91.8 20.5 C 91.8 20.5 91.73 20.46 91.7 20.5 C 91.4 21.1 90.9 21.4 90.2 21.4 C 89.2 21.4 88.1 21 88.1 18.1 C 88.1 16.4 88.2 14.5 90.3 14.5 C 90.9 14.5 91.3 14.8 91.7 15.3 C 91.71 15.34 91.8 15.3 91.8 15.3 L 91.8 11.9 Z M 98.3 14.7 L 99.4 14.7 C 99.4 14.7 99.36 19.88 99.4 19.9 C 99.4 20.3 99.4 20.8 99.4 21.2 C 99.42 21.24 98.3 21.2 98.3 21.2 L 98.3 20.4 C 98.3 20.4 98.25 20.45 98.3 20.4 C 97.9 21 97.3 21.4 96.6 21.4 C 95.4 21.4 94.8 20.8 94.8 19.7 C 94.82 19.68 94.8 14.7 94.8 14.7 L 95.9 14.7 C 95.9 14.7 95.89 19.23 95.9 19.2 C 95.9 20 96.2 20.6 97 20.6 C 97.6 20.6 98.3 20.1 98.3 19 C 98.29 19.03 98.3 14.7 98.3 14.7 Z M 104.7 16.8 C 104.7 15.7 104.2 15.4 103.8 15.4 C 103 15.4 102.4 15.8 102.4 17.6 C 102.4 19.7 102.7 20.5 103.8 20.5 C 104.1 20.5 104.8 20.2 104.8 19.1 C 104.8 19.1 105.9 19.1 105.9 19.1 C 105.9 20.9 104.5 21.4 103.8 21.4 C 102.4 21.4 101.3 21 101.3 18.1 C 101.3 16.1 101.5 14.5 103.8 14.5 C 105.1 14.5 105.9 15.3 105.8 16.8 C 105.8 16.8 104.7 16.8 104.7 16.8 Z M 111.4 17.5 C 111.4 15.6 110.8 15.4 110.1 15.4 C 109.4 15.4 108.8 15.7 108.8 17.5 C 108.8 17.5 111.4 17.5 111.4 17.5 Z M 108.8 18.3 C 108.8 20.1 109.3 20.5 110.1 20.5 C 110.9 20.5 111.3 19.9 111.3 19.3 C 111.3 19.3 112.5 19.3 112.5 19.3 C 112.4 20.7 111.6 21.4 110.2 21.4 C 108.8 21.4 107.7 21 107.7 18.1 C 107.7 16.1 107.9 14.5 110.2 14.5 C 112 14.5 112.5 15.6 112.5 17.7 C 112.51 17.74 112.5 18.3 112.5 18.3 C 112.5 18.3 108.82 18.3 108.8 18.3 Z M 116.5 15.4 C 115.4 15.4 115.2 16.3 115.2 18.1 C 115.2 19.1 115.2 20.5 116.6 20.5 C 117.8 20.5 117.8 19 117.8 17.7 C 117.8 16.8 117.7 15.4 116.5 15.4 Z M 117.8 11.9 L 118.8 11.9 L 118.8 21.2 L 117.8 21.2 L 117.8 20.5 C 117.8 20.5 117.73 20.46 117.7 20.5 C 117.4 21.1 116.9 21.4 116.2 21.4 C 115.2 21.4 114.1 21 114.1 18.1 C 114.1 16.4 114.2 14.5 116.3 14.5 C 116.9 14.5 117.3 14.8 117.7 15.3 C 117.71 15.34 117.8 15.3 117.8 15.3 L 117.8 11.9 Z " stroke="none" fill="#003c71"/>  </g></svg>