<?xml version="1.0" standalone="no"?><!DOCTYPE svg PUBLIC "-//W3C//DTD SVG 1.1//EN" "http://www.w3.org/Graphics/SVG/1.1/DTD/svg11.dtd"><svg xmlns="http://www.w3.org/2000/svg" version="1.1" width="155.3px" height="48.3px" viewBox="0 0 155.3 48.3">  <desc>EOS visit</desc>  <defs/>  <g id="Polygon194819">    <path d="M 50.2 27.5 L 50.2 16.2 L 56.4 16.2 L 56.4 17.9 L 52.6 17.9 L 52.6 20.7 L 56.1 20.7 L 56.1 22.5 L 52.6 22.5 L 52.6 25.8 L 56.6 25.8 L 56.6 27.5 L 50.2 27.5 Z M 63.4 21.8 C 63.4 18.9 63.2 17.7 61.9 17.7 C 60.6 17.7 60.4 18.9 60.4 21.8 C 60.4 24.8 60.6 26 61.9 26 C 63.2 26 63.4 24.8 63.4 21.8 Z M 58 21.8 C 58 18.8 58 16 61.9 16 C 65.8 16 65.8 18.8 65.8 21.8 C 65.8 24.8 65.8 27.7 61.9 27.7 C 58 27.7 58 24.8 58 21.8 Z M 70.8 27.7 C 67.9 27.7 67.3 26 67.4 24 C 67.4 24 69.8 24 69.8 24 C 69.8 25.1 69.8 26 71.2 26 C 72 26 72.4 25.5 72.4 24.7 C 72.4 22.7 67.6 22.6 67.6 19.2 C 67.6 17.4 68.4 16 71.3 16 C 73.6 16 74.8 17 74.6 19.4 C 74.6 19.4 72.3 19.4 72.3 19.4 C 72.3 18.5 72.2 17.7 71.2 17.7 C 70.4 17.7 70 18.1 70 18.9 C 70 21 74.8 20.9 74.8 24.4 C 74.8 27.4 72.6 27.7 70.8 27.7 Z M 79.1 19.6 L 81.3 19.6 L 82.5 25.5 L 82.5 25.5 L 83.6 19.6 L 85.8 19.6 L 83.6 27.5 L 81.2 27.5 L 79.1 19.6 Z M 89.2 27.5 L 87 27.5 L 87 19.6 L 89.2 19.6 L 89.2 27.5 Z M 89.2 16.2 L 89.2 17.9 L 87 17.9 L 87 16.2 L 89.2 16.2 Z M 92.9 25 C 92.9 25.3 92.9 25.7 93.1 25.9 C 93.2 26.2 93.4 26.3 93.9 26.3 C 94.3 26.3 94.7 26 94.7 25.5 C 94.7 23.8 90.8 24.2 90.8 21.7 C 90.8 19.9 92.5 19.4 93.9 19.4 C 95.4 19.4 96.8 20.1 96.7 21.9 C 96.7 21.9 94.5 21.9 94.5 21.9 C 94.5 21.3 94.4 21 94.3 20.8 C 94.1 20.7 93.9 20.7 93.7 20.7 C 93.2 20.7 92.9 21 92.9 21.5 C 92.9 22.8 96.9 22.7 96.9 25.3 C 96.9 26.6 95.7 27.7 93.9 27.7 C 91.9 27.7 90.7 27.2 90.8 25 C 90.8 25 92.9 25 92.9 25 Z M 100.6 27.5 L 98.4 27.5 L 98.4 19.6 L 100.6 19.6 L 100.6 27.5 Z M 100.6 16.2 L 100.6 17.9 L 98.4 17.9 L 98.4 16.2 L 100.6 16.2 Z M 101.7 19.6 L 102.6 19.6 L 102.6 18.3 L 104.8 17.3 L 104.8 19.6 L 105.9 19.6 L 105.9 21 L 104.8 21 C 104.8 21 104.78 25.2 104.8 25.2 C 104.8 25.8 104.8 26.2 105.5 26.2 C 105.6 26.2 105.8 26.2 105.9 26.2 C 105.9 26.2 105.9 27.5 105.9 27.5 C 105.6 27.6 105.3 27.6 104.7 27.6 C 102.8 27.6 102.6 26.3 102.6 25.8 C 102.56 25.85 102.6 21 102.6 21 L 101.7 21 L 101.7 19.6 Z " stroke="none" fill="#003c71"/>  </g></svg>