<?xml version="1.0" standalone="no"?><!DOCTYPE svg PUBLIC "-//W3C//DTD SVG 1.1//EN" "http://www.w3.org/Graphics/SVG/1.1/DTD/svg11.dtd"><svg xmlns="http://www.w3.org/2000/svg" version="1.1" width="677px" height="48.3px" viewBox="0 -1 677 48.3" style="top:-1px">  <desc>Abbreviations: CI, confidence interval; HAE, hereditary angioedema; LS, least squares.</desc>  <defs/>  <g id="Polygon195440">    <path d="M 0.1 39.9 L 2.5 31.3 L 4.9 31.3 L 7.2 39.9 L 5.3 39.9 L 4.8 38 L 2.4 38 L 1.9 39.9 L 0.1 39.9 Z M 3.6 32.9 L 3.6 32.9 L 2.7 36.7 L 4.5 36.7 L 3.6 32.9 Z M 11.1 36.8 C 11.1 35.6 11.1 34.8 10.4 34.8 C 9.7 34.8 9.7 35.6 9.7 36.8 C 9.7 38.4 9.8 39 10.4 39 C 11 39 11.1 38.4 11.1 36.8 Z M 8 31.3 L 9.7 31.3 L 9.7 34.4 C 9.7 34.4 9.72 34.44 9.7 34.4 C 10.1 33.9 10.5 33.7 11.1 33.7 C 12.8 33.7 12.8 35.6 12.8 36.8 C 12.8 38.1 12.8 40 11.1 40 C 10.4 40 9.9 39.8 9.6 39.2 C 9.64 39.25 9.6 39.2 9.6 39.2 L 9.6 39.9 L 8 39.9 L 8 31.3 Z M 17.1 36.8 C 17.1 35.6 17.1 34.8 16.4 34.8 C 15.7 34.8 15.7 35.6 15.7 36.8 C 15.7 38.4 15.8 39 16.4 39 C 17 39 17.1 38.4 17.1 36.8 Z M 14 31.3 L 15.7 31.3 L 15.7 34.4 C 15.7 34.4 15.72 34.44 15.7 34.4 C 16.1 33.9 16.5 33.7 17.1 33.7 C 18.8 33.7 18.8 35.6 18.8 36.8 C 18.8 38.1 18.8 40 17.1 40 C 16.4 40 15.9 39.8 15.6 39.2 C 15.64 39.25 15.6 39.2 15.6 39.2 L 15.6 39.9 L 14 39.9 L 14 31.3 Z M 21.6 33.9 L 21.6 34.6 C 21.6 34.6 21.64 34.64 21.6 34.6 C 21.9 33.9 22.5 33.7 23.2 33.7 C 23.2 33.7 23.2 35.3 23.2 35.3 C 21.7 35.2 21.7 36 21.7 36.6 C 21.7 36.62 21.7 39.9 21.7 39.9 L 20 39.9 L 20 33.9 L 21.6 33.9 Z M 27.1 36.2 C 27.1 35.6 27.1 34.8 26.3 34.8 C 25.5 34.8 25.6 35.7 25.6 36.2 C 25.6 36.2 27.1 36.2 27.1 36.2 Z M 25.6 37.2 C 25.6 37.9 25.6 39 26.3 39 C 26.9 39 27 38.4 27 37.9 C 27 37.9 28.8 37.9 28.8 37.9 C 28.7 38.5 28.5 39.1 28.1 39.5 C 27.7 39.8 27.1 40 26.3 40 C 24.1 40 23.9 38.7 23.9 36.8 C 23.9 35.2 24.1 33.7 26.3 33.7 C 28.6 33.7 28.9 35.2 28.8 37.2 C 28.8 37.2 25.6 37.2 25.6 37.2 Z M 29.4 33.9 L 31.1 33.9 L 32 38.4 L 32 38.4 L 32.9 33.9 L 34.6 33.9 L 32.9 39.9 L 31 39.9 L 29.4 33.9 Z M 37.2 39.9 L 35.5 39.9 L 35.5 33.9 L 37.2 33.9 L 37.2 39.9 Z M 37.2 31.3 L 37.2 32.6 L 35.5 32.6 L 35.5 31.3 L 37.2 31.3 Z M 40.1 38 C 40.1 38.5 40.2 39 40.8 39 C 41.8 39 41.6 37.7 41.6 37 C 40.8 37 40.1 37 40.1 38 Z M 43.3 38.8 C 43.3 39.2 43.3 39.5 43.3 39.9 C 43.34 39.92 41.8 39.9 41.8 39.9 L 41.7 39.1 C 41.7 39.1 41.68 39.12 41.7 39.1 C 41.3 39.7 40.8 40 40.1 40 C 38.9 40 38.5 39.2 38.5 38.1 C 38.5 36.1 40 36 41.6 36 C 41.6 36 41.6 35.6 41.6 35.6 C 41.6 35.1 41.5 34.7 40.9 34.7 C 40.3 34.7 40.3 35.1 40.3 35.6 C 40.3 35.6 38.6 35.6 38.6 35.6 C 38.6 34.9 38.9 34.4 39.3 34.1 C 39.6 33.8 40.2 33.7 40.8 33.7 C 43 33.7 43.3 34.7 43.3 35.8 C 43.3 35.8 43.3 38.8 43.3 38.8 Z M 44 33.9 L 44.7 33.9 L 44.7 32.9 L 46.4 32.1 L 46.4 33.9 L 47.2 33.9 L 47.2 34.9 L 46.4 34.9 C 46.4 34.9 46.35 38.15 46.4 38.1 C 46.4 38.6 46.3 38.9 46.9 38.9 C 47 38.9 47.1 38.9 47.2 38.9 C 47.2 38.9 47.2 39.9 47.2 39.9 C 47 39.9 46.7 40 46.3 40 C 44.9 40 44.7 39 44.7 38.6 C 44.66 38.64 44.7 34.9 44.7 34.9 L 44 34.9 L 44 33.9 Z M 49.8 39.9 L 48.1 39.9 L 48.1 33.9 L 49.8 33.9 L 49.8 39.9 Z M 49.8 31.3 L 49.8 32.6 L 48.1 32.6 L 48.1 31.3 L 49.8 31.3 Z M 54.4 36.7 C 54.4 35.5 54.4 34.8 53.7 34.8 C 52.9 34.8 52.9 35.5 52.9 36.7 C 52.9 38.6 53 39 53.7 39 C 54.3 39 54.4 38.6 54.4 36.7 Z M 51.2 36.8 C 51.2 35.2 51.4 33.7 53.7 33.7 C 55.9 33.7 56.1 35.2 56.1 36.8 C 56.1 38.7 55.8 40 53.7 40 C 51.5 40 51.2 38.7 51.2 36.8 Z M 59 34.5 C 59 34.5 59.05 34.47 59.1 34.5 C 59.2 34.2 59.4 34 59.7 33.9 C 59.9 33.8 60.2 33.7 60.5 33.7 C 61.3 33.7 62 34.2 62 35.1 C 61.99 35.06 62 39.9 62 39.9 L 60.3 39.9 C 60.3 39.9 60.3 35.74 60.3 35.7 C 60.3 35.2 60.2 34.8 59.7 34.8 C 59.1 34.8 59 35.2 59 35.7 C 59.03 35.74 59 39.9 59 39.9 L 57.3 39.9 L 57.3 33.9 L 59 33.9 L 59 34.5 Z M 64.7 38 C 64.7 38.3 64.7 38.5 64.8 38.7 C 64.8 38.9 65 39 65.4 39 C 65.7 39 66 38.8 66 38.4 C 66 37.1 63 37.4 63 35.4 C 63 34.1 64.3 33.7 65.4 33.7 C 66.6 33.7 67.6 34.3 67.5 35.6 C 67.5 35.6 65.8 35.6 65.8 35.6 C 65.8 35.2 65.8 34.9 65.7 34.8 C 65.6 34.7 65.4 34.7 65.2 34.7 C 64.9 34.7 64.7 34.9 64.7 35.3 C 64.7 36.3 67.6 36.2 67.6 38.2 C 67.6 39.2 66.8 40 65.4 40 C 63.9 40 62.9 39.7 63 38 C 63 38 64.7 38 64.7 38 Z M 70 33.9 L 70 35.4 L 68.6 35.4 L 68.6 33.9 L 70 33.9 Z M 70 39.9 L 68.6 39.9 L 68.6 38.3 L 70 38.3 L 70 39.9 Z M 78.1 33.6 C 78.1 33.2 78.1 32.7 77.9 32.4 C 77.6 32.1 77.1 32 76.9 32 C 76 32 75.6 32.6 75.6 32.7 C 75.5 32.8 75.3 33 75.3 34.5 C 75.3 34.5 75.3 36.8 75.3 36.8 C 75.3 38.9 76 39.2 76.9 39.2 C 77.2 39.2 78.2 39.1 78.2 37.4 C 78.2 37.4 79.4 37.4 79.4 37.4 C 79.4 40.1 77.5 40.1 76.9 40.1 C 75.9 40.1 74.2 40 74.2 36.7 C 74.2 36.7 74.2 34.2 74.2 34.2 C 74.2 31.8 75.3 31.1 77 31.1 C 78.7 31.1 79.4 32 79.2 33.6 C 79.2 33.6 78.1 33.6 78.1 33.6 Z M 82.2 39.9 L 81.1 39.9 L 81.1 31.3 L 82.2 31.3 L 82.2 39.9 Z M 84.4 38.7 L 85.6 38.7 L 84.5 41.4 L 83.7 41.4 L 84.4 38.7 Z M 92.7 35.8 C 92.7 34.8 92.2 34.5 91.8 34.5 C 91.1 34.5 90.6 34.9 90.6 36.6 C 90.6 38.5 90.8 39.2 91.8 39.2 C 92.1 39.2 92.8 39 92.7 37.9 C 92.7 37.9 93.8 37.9 93.8 37.9 C 93.8 39.6 92.5 40 91.8 40 C 90.6 40 89.5 39.7 89.5 37 C 89.5 35.2 89.7 33.7 91.8 33.7 C 93.1 33.7 93.8 34.4 93.7 35.8 C 93.7 35.8 92.7 35.8 92.7 35.8 Z M 98.9 36.6 C 98.9 34.9 98.4 34.5 97.7 34.5 C 96.9 34.5 96.4 34.9 96.4 36.6 C 96.4 38.5 96.6 39.2 97.7 39.2 C 98.7 39.2 98.9 38.5 98.9 36.6 Z M 95.4 37 C 95.4 35.2 95.6 33.7 97.7 33.7 C 99.8 33.7 100 35.2 100 37 C 100 39.7 98.9 40 97.7 40 C 96.4 40 95.4 39.7 95.4 37 Z M 104.8 39.9 C 104.8 39.9 104.81 35.72 104.8 35.7 C 104.8 35.1 104.6 34.5 103.7 34.5 C 102.7 34.5 102.5 35.5 102.5 36.3 C 102.5 36.33 102.5 39.9 102.5 39.9 L 101.5 39.9 C 101.5 39.9 101.52 35.12 101.5 35.1 C 101.5 34.7 101.5 34.3 101.5 33.9 C 101.46 33.86 102.5 33.9 102.5 33.9 L 102.5 34.6 C 102.5 34.6 102.55 34.64 102.6 34.6 C 102.9 34 103.4 33.7 104.2 33.7 C 105.5 33.7 105.8 34.5 105.8 35.7 C 105.79 35.72 105.8 39.9 105.8 39.9 L 104.8 39.9 Z M 107.7 33.9 C 107.7 33.9 107.7 32.69 107.7 32.7 C 107.7 31.5 108.6 31.2 109.4 31.2 C 109.6 31.2 109.8 31.2 109.9 31.3 C 109.9 31.3 109.9 32 109.9 32 C 108.9 31.9 108.7 32.3 108.7 32.8 C 108.68 32.83 108.7 33.9 108.7 33.9 L 109.9 33.9 L 109.9 34.6 L 108.7 34.6 L 108.7 39.9 L 107.7 39.9 L 107.7 34.6 L 106.8 34.6 L 106.8 33.9 L 107.7 33.9 Z M 111.8 39.9 L 110.8 39.9 L 110.8 33.9 L 111.8 33.9 L 111.8 39.9 Z M 110.8 31.3 L 111.9 31.3 L 111.9 32.3 L 110.8 32.3 L 110.8 31.3 Z M 115.6 34.5 C 114.5 34.5 114.4 35.4 114.4 37 C 114.4 37.9 114.4 39.2 115.6 39.2 C 116.7 39.2 116.7 37.9 116.7 36.6 C 116.7 35.8 116.7 34.5 115.6 34.5 Z M 116.7 31.3 L 117.7 31.3 L 117.7 39.9 L 116.7 39.9 L 116.7 39.2 C 116.7 39.2 116.7 39.2 116.7 39.2 C 116.4 39.8 115.9 40 115.3 40 C 114.3 40 113.4 39.7 113.4 37 C 113.4 35.5 113.4 33.7 115.4 33.7 C 115.9 33.7 116.4 34 116.7 34.5 C 116.69 34.47 116.7 34.5 116.7 34.5 L 116.7 31.3 Z M 122.8 36.5 C 122.8 34.7 122.4 34.5 121.6 34.5 C 121 34.5 120.5 34.8 120.5 36.5 C 120.5 36.5 122.8 36.5 122.8 36.5 Z M 120.5 37.2 C 120.5 38.9 120.9 39.2 121.7 39.2 C 122.4 39.2 122.7 38.7 122.8 38.1 C 122.8 38.1 123.8 38.1 123.8 38.1 C 123.8 39.4 123 40 121.7 40 C 120.4 40 119.4 39.7 119.4 37 C 119.4 35.2 119.6 33.7 121.7 33.7 C 123.5 33.7 123.9 34.7 123.9 36.7 C 123.89 36.69 123.9 37.2 123.9 37.2 C 123.9 37.2 120.48 37.21 120.5 37.2 Z M 128.8 39.9 C 128.8 39.9 128.81 35.72 128.8 35.7 C 128.8 35.1 128.6 34.5 127.7 34.5 C 126.7 34.5 126.5 35.5 126.5 36.3 C 126.5 36.33 126.5 39.9 126.5 39.9 L 125.5 39.9 C 125.5 39.9 125.52 35.12 125.5 35.1 C 125.5 34.7 125.5 34.3 125.5 33.9 C 125.46 33.86 126.5 33.9 126.5 33.9 L 126.5 34.6 C 126.5 34.6 126.55 34.64 126.5 34.6 C 126.9 34 127.4 33.7 128.2 33.7 C 129.5 33.7 129.8 34.5 129.8 35.7 C 129.79 35.72 129.8 39.9 129.8 39.9 L 128.8 39.9 Z M 134.7 35.8 C 134.7 34.8 134.2 34.5 133.8 34.5 C 133.1 34.5 132.6 34.9 132.6 36.6 C 132.6 38.5 132.8 39.2 133.8 39.2 C 134.1 39.2 134.8 39 134.7 37.9 C 134.7 37.9 135.8 37.9 135.8 37.9 C 135.8 39.6 134.5 40 133.8 40 C 132.6 40 131.5 39.7 131.5 37 C 131.5 35.2 131.7 33.7 133.8 33.7 C 135.1 33.7 135.8 34.4 135.7 35.8 C 135.7 35.8 134.7 35.8 134.7 35.8 Z M 140.8 36.5 C 140.8 34.7 140.4 34.5 139.6 34.5 C 139 34.5 138.5 34.8 138.5 36.5 C 138.5 36.5 140.8 36.5 140.8 36.5 Z M 138.5 37.2 C 138.5 38.9 138.9 39.2 139.7 39.2 C 140.4 39.2 140.7 38.7 140.8 38.1 C 140.8 38.1 141.8 38.1 141.8 38.1 C 141.8 39.4 141 40 139.7 40 C 138.4 40 137.4 39.7 137.4 37 C 137.4 35.2 137.6 33.7 139.7 33.7 C 141.5 33.7 141.9 34.7 141.9 36.7 C 141.89 36.69 141.9 37.2 141.9 37.2 C 141.9 37.2 138.48 37.21 138.5 37.2 Z M 147.1 39.9 L 146.2 39.9 L 146.2 33.9 L 147.1 33.9 L 147.1 39.9 Z M 146.1 31.3 L 147.2 31.3 L 147.2 32.3 L 146.1 32.3 L 146.1 31.3 Z M 152.1 39.9 C 152.1 39.9 152.13 35.72 152.1 35.7 C 152.1 35.1 151.9 34.5 151.1 34.5 C 150 34.5 149.8 35.5 149.8 36.3 C 149.83 36.33 149.8 39.9 149.8 39.9 L 148.8 39.9 C 148.8 39.9 148.85 35.12 148.8 35.1 C 148.8 34.7 148.8 34.3 148.8 33.9 C 148.79 33.86 149.8 33.9 149.8 33.9 L 149.8 34.6 C 149.8 34.6 149.88 34.64 149.9 34.6 C 150.3 34 150.7 33.7 151.5 33.7 C 152.8 33.7 153.1 34.5 153.1 35.7 C 153.12 35.72 153.1 39.9 153.1 39.9 L 152.1 39.9 Z M 155 33.9 L 155 32.7 L 155.9 32.3 L 155.9 33.9 L 157.3 33.9 L 157.3 34.6 L 155.9 34.6 C 155.9 34.6 155.94 38.31 155.9 38.3 C 155.9 38.7 155.9 39.2 156.8 39.2 C 156.9 39.2 157.1 39.2 157.3 39.1 C 157.3 39.1 157.3 39.9 157.3 39.9 C 157 39.9 156.6 40 156.3 40 C 155.4 40 155 39.6 155 38.9 C 154.95 38.91 155 34.6 155 34.6 L 154 34.6 L 154 33.9 L 155 33.9 Z M 161.5 36.5 C 161.5 34.7 161 34.5 160.3 34.5 C 159.7 34.5 159.2 34.8 159.1 36.5 C 159.1 36.5 161.5 36.5 161.5 36.5 Z M 159.1 37.2 C 159.1 38.9 159.6 39.2 160.4 39.2 C 161 39.2 161.4 38.7 161.4 38.1 C 161.4 38.1 162.5 38.1 162.5 38.1 C 162.5 39.4 161.7 40 160.4 40 C 159.1 40 158.1 39.7 158.1 37 C 158.1 35.2 158.3 33.7 160.4 33.7 C 162.1 33.7 162.5 34.7 162.5 36.7 C 162.55 36.69 162.5 37.2 162.5 37.2 C 162.5 37.2 159.14 37.21 159.1 37.2 Z M 165.2 34.8 C 165.2 34.8 165.23 34.77 165.2 34.8 C 165.6 33.8 166.1 33.7 167.1 33.7 C 167.1 33.7 167.1 34.8 167.1 34.8 C 167 34.7 166.9 34.7 166.8 34.7 C 166.7 34.7 166.7 34.7 166.6 34.7 C 165.5 34.7 165.2 35.5 165.2 36.3 C 165.2 36.34 165.2 39.9 165.2 39.9 L 164.2 39.9 L 164.2 33.9 L 165.2 33.9 L 165.2 34.8 Z M 167.5 33.9 L 168.6 33.9 L 169.9 39 L 170 39 L 171.4 33.9 L 172.5 33.9 L 170.6 39.9 L 169.3 39.9 L 167.5 33.9 Z M 174.4 38.1 C 174.4 38.7 174.7 39.2 175.4 39.2 C 176 39.2 176.7 38.9 176.6 36.9 C 175.7 36.9 174.4 36.8 174.4 38.1 Z M 176.6 39 C 176.6 39 176.6 39.05 176.6 39 C 176.3 39.7 175.8 40 175.1 40 C 173.8 40 173.4 39.2 173.4 38 C 173.4 36.2 175.2 36.1 176.6 36.2 C 176.6 35.4 176.6 34.5 175.6 34.5 C 174.9 34.5 174.6 34.9 174.6 35.6 C 174.6 35.6 173.6 35.6 173.6 35.6 C 173.6 34.2 174.3 33.7 175.6 33.7 C 177.2 33.7 177.6 34.5 177.6 35.6 C 177.6 35.6 177.6 38.5 177.6 38.5 C 177.6 39 177.6 39.5 177.7 39.9 C 177.71 39.92 176.6 39.9 176.6 39.9 L 176.6 39 Z M 180.5 39.9 L 179.5 39.9 L 179.5 31.3 L 180.5 31.3 L 180.5 39.9 Z M 182.3 38.7 L 183.6 38.7 L 182.5 41.4 L 181.7 41.4 L 182.3 38.7 Z M 183.2 35.1 L 182.1 35.1 L 182.1 33.9 L 183.2 33.9 L 183.2 35.1 Z M 187.7 39.9 L 187.7 31.3 L 188.8 31.3 L 188.8 35 L 191.8 35 L 191.8 31.3 L 192.9 31.3 L 192.9 39.9 L 191.8 39.9 L 191.8 36 L 188.8 36 L 188.8 39.9 L 187.7 39.9 Z M 196.9 31.3 L 198.3 31.3 L 201.1 39.9 L 199.9 39.9 L 199.3 37.9 L 195.9 37.9 L 195.3 39.9 L 194.1 39.9 L 196.9 31.3 Z M 197.6 32.3 L 197.5 32.3 L 196.2 36.9 L 199 36.9 L 197.6 32.3 Z M 202.3 39.9 L 202.3 31.3 L 206.7 31.3 L 206.7 32.2 L 203.4 32.2 L 203.4 35 L 206.5 35 L 206.5 36 L 203.4 36 L 203.4 39 L 206.8 39 L 206.8 39.9 L 202.3 39.9 Z M 208.3 38.7 L 209.6 38.7 L 208.5 41.4 L 207.7 41.4 L 208.3 38.7 Z M 216.8 39.9 C 216.8 39.9 216.78 35.82 216.8 35.8 C 216.8 35.1 216.5 34.5 215.7 34.5 C 214.7 34.5 214.5 35.3 214.5 36.4 C 214.46 36.36 214.5 39.9 214.5 39.9 L 213.5 39.9 L 213.5 31.3 L 214.5 31.3 L 214.5 34.6 C 214.5 34.6 214.51 34.64 214.5 34.6 C 214.9 33.9 215.4 33.7 216.2 33.7 C 217.2 33.7 217.8 34.3 217.8 35.6 C 217.76 35.62 217.8 39.9 217.8 39.9 L 216.8 39.9 Z M 222.8 36.5 C 222.8 34.7 222.3 34.5 221.6 34.5 C 221 34.5 220.5 34.8 220.4 36.5 C 220.4 36.5 222.8 36.5 222.8 36.5 Z M 220.4 37.2 C 220.4 38.9 220.9 39.2 221.7 39.2 C 222.3 39.2 222.7 38.7 222.7 38.1 C 222.7 38.1 223.8 38.1 223.8 38.1 C 223.8 39.4 223 40 221.7 40 C 220.4 40 219.4 39.7 219.4 37 C 219.4 35.2 219.6 33.7 221.7 33.7 C 223.4 33.7 223.9 34.7 223.9 36.7 C 223.86 36.69 223.9 37.2 223.9 37.2 C 223.9 37.2 220.45 37.21 220.4 37.2 Z M 226.5 34.8 C 226.5 34.8 226.53 34.77 226.5 34.8 C 226.9 33.8 227.4 33.7 228.4 33.7 C 228.4 33.7 228.4 34.8 228.4 34.8 C 228.3 34.7 228.2 34.7 228.1 34.7 C 228.1 34.7 228 34.7 227.9 34.7 C 226.8 34.7 226.5 35.5 226.5 36.3 C 226.51 36.34 226.5 39.9 226.5 39.9 L 225.5 39.9 L 225.5 33.9 L 226.5 33.9 L 226.5 34.8 Z M 232.8 36.5 C 232.8 34.7 232.3 34.5 231.6 34.5 C 231 34.5 230.5 34.8 230.4 36.5 C 230.4 36.5 232.8 36.5 232.8 36.5 Z M 230.4 37.2 C 230.4 38.9 230.9 39.2 231.7 39.2 C 232.3 39.2 232.7 38.7 232.7 38.1 C 232.7 38.1 233.8 38.1 233.8 38.1 C 233.8 39.4 233 40 231.7 40 C 230.4 40 229.4 39.7 229.4 37 C 229.4 35.2 229.6 33.7 231.7 33.7 C 233.4 33.7 233.9 34.7 233.9 36.7 C 233.85 36.69 233.9 37.2 233.9 37.2 C 233.9 37.2 230.44 37.21 230.4 37.2 Z M 237.5 34.5 C 236.5 34.5 236.3 35.4 236.3 37 C 236.3 37.9 236.3 39.2 237.6 39.2 C 238.7 39.2 238.7 37.9 238.7 36.6 C 238.7 35.8 238.6 34.5 237.5 34.5 Z M 238.7 31.3 L 239.7 31.3 L 239.7 39.9 L 238.7 39.9 L 238.7 39.2 C 238.7 39.2 238.67 39.2 238.7 39.2 C 238.3 39.8 237.9 40 237.3 40 C 236.3 40 235.3 39.7 235.3 37 C 235.3 35.5 235.4 33.7 237.3 33.7 C 237.9 33.7 238.3 34 238.7 34.5 C 238.65 34.47 238.7 34.5 238.7 34.5 L 238.7 31.3 Z M 242.4 39.9 L 241.5 39.9 L 241.5 33.9 L 242.4 33.9 L 242.4 39.9 Z M 241.4 31.3 L 242.5 31.3 L 242.5 32.3 L 241.4 32.3 L 241.4 31.3 Z M 244.3 33.9 L 244.3 32.7 L 245.2 32.3 L 245.2 33.9 L 246.6 33.9 L 246.6 34.6 L 245.2 34.6 C 245.2 34.6 245.24 38.31 245.2 38.3 C 245.2 38.7 245.2 39.2 246.1 39.2 C 246.2 39.2 246.4 39.2 246.6 39.1 C 246.6 39.1 246.6 39.9 246.6 39.9 C 246.3 39.9 245.9 40 245.6 40 C 244.7 40 244.3 39.6 244.3 38.9 C 244.26 38.91 244.3 34.6 244.3 34.6 L 243.3 34.6 L 243.3 33.9 L 244.3 33.9 Z M 248.4 38.1 C 248.4 38.7 248.7 39.2 249.3 39.2 C 249.9 39.2 250.7 38.9 250.6 36.9 C 249.6 36.9 248.4 36.8 248.4 38.1 Z M 250.6 39 C 250.6 39 250.58 39.05 250.6 39 C 250.3 39.7 249.8 40 249.1 40 C 247.8 40 247.4 39.2 247.4 38 C 247.4 36.2 249.2 36.1 250.6 36.2 C 250.6 35.4 250.6 34.5 249.6 34.5 C 248.9 34.5 248.6 34.9 248.6 35.6 C 248.6 35.6 247.5 35.6 247.5 35.6 C 247.6 34.2 248.3 33.7 249.6 33.7 C 251.2 33.7 251.6 34.5 251.6 35.6 C 251.6 35.6 251.6 38.5 251.6 38.5 C 251.6 39 251.6 39.5 251.7 39.9 C 251.68 39.92 250.6 39.9 250.6 39.9 L 250.6 39 Z M 254.5 34.8 C 254.5 34.8 254.53 34.77 254.5 34.8 C 254.9 33.8 255.4 33.7 256.4 33.7 C 256.4 33.7 256.4 34.8 256.4 34.8 C 256.3 34.7 256.2 34.7 256.1 34.7 C 256.1 34.7 256 34.7 255.9 34.7 C 254.8 34.7 254.5 35.5 254.5 36.3 C 254.5 36.34 254.5 39.9 254.5 39.9 L 253.5 39.9 L 253.5 33.9 L 254.5 33.9 L 254.5 34.8 Z M 259.3 38.8 L 259.3 38.8 L 260.8 33.9 L 261.8 33.9 L 259.1 42.2 L 258.1 42.2 L 258.8 39.9 L 256.7 33.9 L 257.9 33.9 L 259.3 38.8 Z M 266.4 38.1 C 266.4 38.7 266.7 39.2 267.3 39.2 C 267.9 39.2 268.7 38.9 268.6 36.9 C 267.6 36.9 266.4 36.8 266.4 38.1 Z M 268.6 39 C 268.6 39 268.57 39.05 268.6 39 C 268.3 39.7 267.8 40 267 40 C 265.8 40 265.4 39.2 265.4 38 C 265.4 36.2 267.2 36.1 268.6 36.2 C 268.6 35.4 268.6 34.5 267.5 34.5 C 266.9 34.5 266.5 34.9 266.6 35.6 C 266.6 35.6 265.5 35.6 265.5 35.6 C 265.6 34.2 266.3 33.7 267.6 33.7 C 269.1 33.7 269.6 34.5 269.6 35.6 C 269.6 35.6 269.6 38.5 269.6 38.5 C 269.6 39 269.6 39.5 269.7 39.9 C 269.67 39.92 268.6 39.9 268.6 39.9 L 268.6 39 Z M 274.8 39.9 C 274.8 39.9 274.76 35.72 274.8 35.7 C 274.8 35.1 274.5 34.5 273.7 34.5 C 272.6 34.5 272.5 35.5 272.5 36.3 C 272.46 36.33 272.5 39.9 272.5 39.9 L 271.5 39.9 C 271.5 39.9 271.47 35.12 271.5 35.1 C 271.5 34.7 271.4 34.3 271.4 33.9 C 271.41 33.86 272.5 33.9 272.5 33.9 L 272.5 34.6 C 272.5 34.6 272.5 34.64 272.5 34.6 C 272.9 34 273.3 33.7 274.1 33.7 C 275.4 33.7 275.7 34.5 275.7 35.7 C 275.74 35.72 275.7 39.9 275.7 39.9 L 274.8 39.9 Z M 279.5 34.6 C 278.4 34.6 278.4 35.9 278.4 36.7 C 278.4 38.6 278.8 39.1 279.5 39.1 C 280.7 39.1 280.7 37.7 280.7 36.9 C 280.7 36 280.8 34.6 279.5 34.6 Z M 280.7 33.9 L 281.7 33.9 C 281.7 33.9 281.66 40.53 281.7 40.5 C 281.7 41.9 280.8 42.2 279.4 42.2 C 278.4 42.2 277.5 41.7 277.6 40.6 C 277.6 40.6 278.7 40.6 278.7 40.6 C 278.7 41.2 279.1 41.5 279.6 41.5 C 280.3 41.5 280.7 41 280.7 40.4 C 280.68 40.43 280.7 39.2 280.7 39.2 C 280.7 39.2 280.64 39.17 280.6 39.2 C 280.4 39.6 279.8 39.9 279.3 39.9 C 277.7 39.9 277.3 38.5 277.3 36.7 C 277.3 33.9 278.7 33.7 279.2 33.7 C 279.9 33.7 280.4 34 280.7 34.6 C 280.65 34.6 280.7 34.6 280.7 34.6 L 280.7 33.9 Z M 284.4 39.9 L 283.4 39.9 L 283.4 33.9 L 284.4 33.9 L 284.4 39.9 Z M 283.4 31.3 L 284.5 31.3 L 284.5 32.3 L 283.4 32.3 L 283.4 31.3 Z M 289.5 36.6 C 289.5 34.9 289 34.5 288.3 34.5 C 287.5 34.5 287 34.9 287 36.6 C 287 38.5 287.3 39.2 288.3 39.2 C 289.3 39.2 289.5 38.5 289.5 36.6 Z M 286 37 C 286 35.2 286.2 33.7 288.3 33.7 C 290.4 33.7 290.6 35.2 290.6 37 C 290.6 39.7 289.6 40 288.3 40 C 287 40 286 39.7 286 37 Z M 295.5 36.5 C 295.5 34.7 295 34.5 294.2 34.5 C 293.6 34.5 293.1 34.8 293.1 36.5 C 293.1 36.5 295.5 36.5 295.5 36.5 Z M 293.1 37.2 C 293.1 38.9 293.6 39.2 294.3 39.2 C 295 39.2 295.3 38.7 295.4 38.1 C 295.4 38.1 296.5 38.1 296.5 38.1 C 296.4 39.4 295.6 40 294.3 40 C 293.1 40 292 39.7 292 37 C 292 35.2 292.2 33.7 294.3 33.7 C 296.1 33.7 296.5 34.7 296.5 36.7 C 296.5 36.69 296.5 37.2 296.5 37.2 C 296.5 37.2 293.1 37.21 293.1 37.2 Z M 300.2 34.5 C 299.1 34.5 299 35.4 299 37 C 299 37.9 299 39.2 300.2 39.2 C 301.3 39.2 301.3 37.9 301.3 36.6 C 301.3 35.8 301.3 34.5 300.2 34.5 Z M 301.3 31.3 L 302.3 31.3 L 302.3 39.9 L 301.3 39.9 L 301.3 39.2 C 301.3 39.2 301.32 39.2 301.3 39.2 C 301 39.8 300.6 40 299.9 40 C 299 40 298 39.7 298 37 C 298 35.5 298 33.7 300 33.7 C 300.5 33.7 301 34 301.3 34.5 C 301.3 34.47 301.3 34.5 301.3 34.5 L 301.3 31.3 Z M 307.5 36.5 C 307.5 34.7 307 34.5 306.2 34.5 C 305.6 34.5 305.1 34.8 305.1 36.5 C 305.1 36.5 307.5 36.5 307.5 36.5 Z M 305.1 37.2 C 305.1 38.9 305.6 39.2 306.3 39.2 C 307 39.2 307.3 38.7 307.4 38.1 C 307.4 38.1 308.5 38.1 308.5 38.1 C 308.4 39.4 307.6 40 306.3 40 C 305.1 40 304 39.7 304 37 C 304 35.2 304.2 33.7 306.3 33.7 C 308.1 33.7 308.5 34.7 308.5 36.7 C 308.5 36.69 308.5 37.2 308.5 37.2 C 308.5 37.2 305.1 37.21 305.1 37.2 Z M 313.1 39.9 C 313.1 39.9 313.11 35.72 313.1 35.7 C 313.1 35.1 312.9 34.5 312.2 34.5 C 311.9 34.5 311.4 34.7 311.3 35 C 311.1 35.3 311.1 35.6 311.1 35.8 C 311.07 35.84 311.1 39.9 311.1 39.9 L 310.1 39.9 C 310.1 39.9 310.09 35.12 310.1 35.1 C 310.1 34.7 310.1 34.3 310 33.9 C 310.03 33.86 311.1 33.9 311.1 33.9 L 311.1 34.6 C 311.1 34.6 311.1 34.62 311.1 34.6 C 311.4 34 311.9 33.7 312.6 33.7 C 313.2 33.7 313.8 34 314 34.5 C 314.4 33.9 314.9 33.7 315.5 33.7 C 316.1 33.7 317.1 33.9 317.1 35.3 C 317.12 35.31 317.1 39.9 317.1 39.9 L 316.1 39.9 C 316.1 39.9 316.14 35.72 316.1 35.7 C 316.1 35.1 316 34.5 315.2 34.5 C 314.8 34.5 314.7 34.6 314.4 34.8 C 314.1 35 314.1 35.6 314.1 35.8 C 314.1 35.84 314.1 39.9 314.1 39.9 L 313.1 39.9 Z M 319.7 38.1 C 319.7 38.7 320 39.2 320.6 39.2 C 321.2 39.2 322 38.9 321.9 36.9 C 321 36.9 319.7 36.8 319.7 38.1 Z M 321.9 39 C 321.9 39 321.9 39.05 321.9 39 C 321.6 39.7 321.1 40 320.4 40 C 319.1 40 318.7 39.2 318.7 38 C 318.7 36.2 320.5 36.1 321.9 36.2 C 321.9 35.4 321.9 34.5 320.9 34.5 C 320.2 34.5 319.9 34.9 319.9 35.6 C 319.9 35.6 318.9 35.6 318.9 35.6 C 318.9 34.2 319.6 33.7 320.9 33.7 C 322.5 33.7 322.9 34.5 322.9 35.6 C 322.9 35.6 322.9 38.5 322.9 38.5 C 322.9 39 322.9 39.5 323 39.9 C 323 39.92 321.9 39.9 321.9 39.9 L 321.9 39 Z M 325 38.7 L 326.2 38.7 L 325.1 41.4 L 324.3 41.4 L 325 38.7 Z M 325.8 35.1 L 324.7 35.1 L 324.7 33.9 L 325.8 33.9 L 325.8 35.1 Z M 330.2 39.9 L 330.2 31.3 L 331.3 31.3 L 331.3 39 L 334.5 39 L 334.5 39.9 L 330.2 39.9 Z M 336.4 37.3 C 336.4 37.3 336.41 37.59 336.4 37.6 C 336.4 38.8 337.2 39.1 337.9 39.1 C 338.7 39.1 339.4 38.8 339.4 37.7 C 339.4 35.8 335.5 36 335.5 33.4 C 335.5 31.9 336.6 31.1 338.1 31.1 C 339.7 31.1 340.5 31.8 340.5 33.6 C 340.5 33.6 339.3 33.6 339.3 33.6 C 339.3 32.7 339 32 338 32 C 337.3 32 336.7 32.4 336.7 33.3 C 336.7 35.2 340.5 34.9 340.5 37.7 C 340.5 39.5 339.3 40.1 337.9 40.1 C 335.3 40.1 335.3 38.2 335.3 37.3 C 335.32 37.34 336.4 37.3 336.4 37.3 Z M 342.3 38.7 L 343.5 38.7 L 342.4 41.4 L 341.7 41.4 L 342.3 38.7 Z M 348.4 39.9 L 347.4 39.9 L 347.4 31.3 L 348.4 31.3 L 348.4 39.9 Z M 353.4 36.5 C 353.4 34.7 353 34.5 352.2 34.5 C 351.6 34.5 351.1 34.8 351.1 36.5 C 351.1 36.5 353.4 36.5 353.4 36.5 Z M 351.1 37.2 C 351.1 38.9 351.5 39.2 352.3 39.2 C 353 39.2 353.3 38.7 353.4 38.1 C 353.4 38.1 354.4 38.1 354.4 38.1 C 354.4 39.4 353.6 40 352.3 40 C 351 40 350 39.7 350 37 C 350 35.2 350.2 33.7 352.3 33.7 C 354.1 33.7 354.5 34.7 354.5 36.7 C 354.49 36.69 354.5 37.2 354.5 37.2 C 354.5 37.2 351.08 37.21 351.1 37.2 Z M 357 38.1 C 357 38.7 357.3 39.2 358 39.2 C 358.6 39.2 359.3 38.9 359.2 36.9 C 358.3 36.9 357 36.8 357 38.1 Z M 359.2 39 C 359.2 39 359.22 39.05 359.2 39 C 358.9 39.7 358.4 40 357.7 40 C 356.4 40 356 39.2 356 38 C 356 36.2 357.8 36.1 359.2 36.2 C 359.2 35.4 359.3 34.5 358.2 34.5 C 357.5 34.5 357.2 34.9 357.2 35.6 C 357.2 35.6 356.2 35.6 356.2 35.6 C 356.2 34.2 356.9 33.7 358.2 33.7 C 359.8 33.7 360.2 34.5 360.2 35.6 C 360.2 35.6 360.2 38.5 360.2 38.5 C 360.2 39 360.2 39.5 360.3 39.9 C 360.32 39.92 359.2 39.9 359.2 39.9 L 359.2 39 Z M 363.9 40 C 362.6 40 361.8 39.5 361.8 38.1 C 361.8 38.1 362.9 38.1 362.9 38.1 C 362.9 38.4 362.9 39.2 363.9 39.2 C 364.5 39.2 365 38.9 365 38.3 C 365 37.2 362 37.2 362 35.4 C 362 34.8 362.3 33.7 364.1 33.7 C 365.1 33.7 366.1 34.3 366 35.5 C 366 35.5 364.9 35.5 364.9 35.5 C 364.9 34.8 364.6 34.5 363.9 34.5 C 363.4 34.5 363 34.8 363 35.3 C 363 36.4 366 36.3 366 38.2 C 366 39.5 365.1 40 363.9 40 Z M 367.6 33.9 L 367.6 32.7 L 368.5 32.3 L 368.5 33.9 L 369.9 33.9 L 369.9 34.6 L 368.5 34.6 C 368.5 34.6 368.54 38.31 368.5 38.3 C 368.5 38.7 368.5 39.2 369.4 39.2 C 369.5 39.2 369.7 39.2 369.9 39.1 C 369.9 39.1 369.9 39.9 369.9 39.9 C 369.6 39.9 369.2 40 368.9 40 C 368 40 367.6 39.6 367.6 38.9 C 367.56 38.91 367.6 34.6 367.6 34.6 L 366.6 34.6 L 366.6 33.9 L 367.6 33.9 Z M 375.2 40 C 373.9 40 373.1 39.5 373.1 38.1 C 373.1 38.1 374.3 38.1 374.3 38.1 C 374.3 38.4 374.3 39.2 375.3 39.2 C 375.9 39.2 376.3 38.9 376.3 38.3 C 376.3 37.2 373.3 37.2 373.3 35.4 C 373.3 34.8 373.7 33.7 375.4 33.7 C 376.5 33.7 377.4 34.3 377.3 35.5 C 377.3 35.5 376.2 35.5 376.2 35.5 C 376.2 34.8 375.9 34.5 375.3 34.5 C 374.7 34.5 374.3 34.8 374.3 35.3 C 374.3 36.4 377.3 36.3 377.3 38.2 C 377.3 39.5 376.4 40 375.2 40 Z M 382 37.1 C 382 36.2 382.1 34.6 380.9 34.6 C 379.6 34.6 379.6 35.9 379.6 36.8 C 379.6 38.4 379.8 39.2 380.8 39.2 C 381.9 39.2 382 38 382 37.1 Z M 382 33.9 L 383 33.9 L 383 42.2 L 382 42.2 L 382 39.3 C 382 39.3 381.94 39.31 381.9 39.3 C 381.6 39.8 381.2 40 380.6 40 C 378.7 40 378.6 38.3 378.6 36.8 C 378.6 34.1 379.6 33.7 380.6 33.7 C 381.2 33.7 381.6 34 382 34.6 C 381.95 34.58 382 34.6 382 34.6 L 382 33.9 Z M 388 33.9 L 389 33.9 C 389 33.9 389 38.66 389 38.7 C 389 39.1 389 39.5 389.1 39.9 C 389.06 39.92 388 39.9 388 39.9 L 388 39.2 C 388 39.2 387.98 39.19 388 39.2 C 387.7 39.7 387.1 40 386.4 40 C 385.4 40 384.8 39.5 384.8 38.5 C 384.81 38.48 384.8 33.9 384.8 33.9 L 385.8 33.9 C 385.8 33.9 385.79 38.06 385.8 38.1 C 385.8 38.8 386.1 39.3 386.8 39.3 C 387.4 39.3 388 38.9 388 37.9 C 388.01 37.88 388 33.9 388 33.9 Z M 391.7 38.1 C 391.7 38.7 392 39.2 392.6 39.2 C 393.2 39.2 394 38.9 393.9 36.9 C 392.9 36.9 391.7 36.8 391.7 38.1 Z M 393.9 39 C 393.9 39 393.87 39.05 393.9 39 C 393.6 39.7 393.1 40 392.3 40 C 391.1 40 390.7 39.2 390.7 38 C 390.7 36.2 392.5 36.1 393.9 36.2 C 393.9 35.4 393.9 34.5 392.9 34.5 C 392.2 34.5 391.8 34.9 391.9 35.6 C 391.9 35.6 390.8 35.6 390.8 35.6 C 390.9 34.2 391.6 33.7 392.9 33.7 C 394.4 33.7 394.9 34.5 394.9 35.6 C 394.9 35.6 394.9 38.5 394.9 38.5 C 394.9 39 394.9 39.5 395 39.9 C 394.97 39.92 393.9 39.9 393.9 39.9 L 393.9 39 Z M 397.8 34.8 C 397.8 34.8 397.82 34.77 397.8 34.8 C 398.2 33.8 398.7 33.7 399.7 33.7 C 399.7 33.7 399.7 34.8 399.7 34.8 C 399.6 34.7 399.5 34.7 399.4 34.7 C 399.3 34.7 399.3 34.7 399.2 34.7 C 398.1 34.7 397.8 35.5 397.8 36.3 C 397.79 36.34 397.8 39.9 397.8 39.9 L 396.8 39.9 L 396.8 33.9 L 397.8 33.9 L 397.8 34.8 Z M 404.1 36.5 C 404.1 34.7 403.6 34.5 402.9 34.5 C 402.3 34.5 401.7 34.8 401.7 36.5 C 401.7 36.5 404.1 36.5 404.1 36.5 Z M 401.7 37.2 C 401.7 38.9 402.2 39.2 403 39.2 C 403.6 39.2 404 38.7 404 38.1 C 404 38.1 405.1 38.1 405.1 38.1 C 405.1 39.4 404.3 40 403 40 C 401.7 40 400.7 39.7 400.7 37 C 400.7 35.2 400.9 33.7 403 33.7 C 404.7 33.7 405.1 34.7 405.1 36.7 C 405.14 36.69 405.1 37.2 405.1 37.2 C 405.1 37.2 401.73 37.21 401.7 37.2 Z M 408.6 40 C 407.2 40 406.4 39.5 406.5 38.1 C 406.5 38.1 407.6 38.1 407.6 38.1 C 407.6 38.4 407.6 39.2 408.6 39.2 C 409.2 39.2 409.6 38.9 409.6 38.3 C 409.6 37.2 406.6 37.2 406.6 35.4 C 406.6 34.8 407 33.7 408.7 33.7 C 409.8 33.7 410.7 34.3 410.6 35.5 C 410.6 35.5 409.5 35.5 409.5 35.5 C 409.5 34.8 409.2 34.5 408.6 34.5 C 408.1 34.5 407.6 34.8 407.6 35.3 C 407.6 36.4 410.7 36.3 410.7 38.2 C 410.7 39.5 409.8 40 408.6 40 Z M 413.1 39.9 L 412 39.9 L 412 38.7 L 413.1 38.7 L 413.1 39.9 Z " stroke="none" fill="#555555"/>  </g></svg>