<?xml version="1.0" standalone="no"?><!DOCTYPE svg PUBLIC "-//W3C//DTD SVG 1.1//EN" "http://www.w3.org/Graphics/SVG/1.1/DTD/svg11.dtd"><svg xmlns="http://www.w3.org/2000/svg" version="1.1" width="383px" height="51.7px" viewBox="0 -1 383 51.7" style="top:-1px">  <desc>No severe hypersensitivity or anaphylactic reactions</desc>  <defs/>  <g id="Polygon201112">    <path d="M 1.1 28.9 L 1.1 16.6 L 4.6 16.6 L 7.8 25.1 L 7.9 25.1 L 7.9 16.6 L 10.3 16.6 L 10.3 28.9 L 6.9 28.9 L 3.5 19.9 L 3.5 19.9 L 3.5 28.9 L 1.1 28.9 Z M 16.7 24.3 C 16.7 22.5 16.6 21.6 15.6 21.6 C 14.6 21.6 14.5 22.5 14.5 24.3 C 14.5 26.9 14.7 27.5 15.6 27.5 C 16.5 27.5 16.7 26.9 16.7 24.3 Z M 12.1 24.5 C 12.1 22.1 12.4 20.1 15.6 20.1 C 18.8 20.1 19.1 22.1 19.1 24.5 C 19.1 27.1 18.7 29 15.6 29 C 12.5 29 12.1 27.1 12.1 24.5 Z M 26.5 26.1 C 26.4 26.5 26.5 26.9 26.6 27.1 C 26.7 27.4 27 27.6 27.4 27.6 C 27.9 27.6 28.3 27.2 28.3 26.7 C 28.3 24.9 24.1 25.3 24.1 22.5 C 24.1 20.7 25.9 20.1 27.5 20.1 C 29.1 20.1 30.6 20.9 30.5 22.7 C 30.5 22.7 28.1 22.7 28.1 22.7 C 28.1 22.1 28 21.8 27.9 21.6 C 27.7 21.5 27.5 21.5 27.3 21.5 C 26.7 21.5 26.5 21.8 26.5 22.4 C 26.5 23.7 30.7 23.7 30.7 26.4 C 30.7 27.9 29.4 29 27.5 29 C 25.4 29 24 28.5 24.1 26.1 C 24.1 26.1 26.5 26.1 26.5 26.1 Z M 36.5 23.6 C 36.5 22.8 36.5 21.6 35.4 21.6 C 34.3 21.6 34.3 22.9 34.3 23.6 C 34.3 23.6 36.5 23.6 36.5 23.6 Z M 34.3 25 C 34.3 26 34.4 27.5 35.4 27.5 C 36.3 27.5 36.4 26.7 36.4 26 C 36.4 26 38.9 26 38.9 26 C 38.8 26.9 38.5 27.7 37.9 28.2 C 37.4 28.7 36.5 29 35.4 29 C 32.3 29 31.9 27.1 31.9 24.5 C 31.9 22.1 32.2 20.1 35.4 20.1 C 38.6 20.1 39 22.2 38.9 25 C 38.9 25 34.3 25 34.3 25 Z M 39.8 20.3 L 42.2 20.3 L 43.4 26.7 L 43.5 26.7 L 44.7 20.3 L 47.1 20.3 L 44.7 28.9 L 42.1 28.9 L 39.8 20.3 Z M 52.6 23.6 C 52.6 22.8 52.6 21.6 51.5 21.6 C 50.4 21.6 50.4 22.9 50.4 23.6 C 50.4 23.6 52.6 23.6 52.6 23.6 Z M 50.4 25 C 50.4 26 50.4 27.5 51.5 27.5 C 52.3 27.5 52.5 26.7 52.5 26 C 52.5 26 54.9 26 54.9 26 C 54.9 26.9 54.6 27.7 54 28.2 C 53.4 28.7 52.6 29 51.5 29 C 48.4 29 48 27.1 48 24.5 C 48 22.1 48.3 20.1 51.5 20.1 C 54.7 20.1 55 22.2 55 25 C 55 25 50.4 25 50.4 25 Z M 58.9 20.3 L 58.9 21.4 C 58.9 21.4 58.97 21.38 59 21.4 C 59.4 20.4 60.2 20.1 61.2 20.1 C 61.2 20.1 61.2 22.3 61.2 22.3 C 59.1 22.1 59.1 23.3 59.1 24.2 C 59.06 24.19 59.1 28.9 59.1 28.9 L 56.7 28.9 L 56.7 20.3 L 58.9 20.3 Z M 66.7 23.6 C 66.7 22.8 66.8 21.6 65.6 21.6 C 64.5 21.6 64.5 22.9 64.5 23.6 C 64.5 23.6 66.7 23.6 66.7 23.6 Z M 64.5 25 C 64.5 26 64.6 27.5 65.6 27.5 C 66.5 27.5 66.6 26.7 66.6 26 C 66.6 26 69.1 26 69.1 26 C 69 26.9 68.7 27.7 68.2 28.2 C 67.6 28.7 66.7 29 65.6 29 C 62.5 29 62.1 27.1 62.1 24.5 C 62.1 22.1 62.5 20.1 65.6 20.1 C 68.8 20.1 69.2 22.2 69.1 25 C 69.1 25 64.5 25 64.5 25 Z M 78.8 28.9 C 78.8 28.9 78.79 22.95 78.8 22.9 C 78.8 22.2 78.7 21.6 77.9 21.6 C 77.1 21.6 77 22.2 77 22.9 C 76.99 22.95 77 28.9 77 28.9 L 74.6 28.9 L 74.6 16.6 L 77 16.6 L 77 21.1 C 77 21.1 77.03 21.15 77 21.1 C 77.3 20.8 77.6 20.5 77.9 20.3 C 78.2 20.2 78.6 20.1 79 20.1 C 80.2 20.1 81.2 20.8 81.2 22 C 81.19 21.98 81.2 28.9 81.2 28.9 L 78.8 28.9 Z M 84.6 28.9 L 82.3 20.3 L 84.7 20.3 L 85.9 26.3 L 85.9 26.3 L 87.2 20.3 L 89.5 20.3 L 86.2 32.1 L 83.7 32.1 L 84.6 28.9 Z M 95 24.5 C 95 22.8 95 21.6 94 21.6 C 93 21.6 93 22.8 93 24.5 C 93 26.7 93.2 27.6 94 27.6 C 94.9 27.6 95 26.7 95 24.5 Z M 92.9 20.3 L 92.9 21.2 C 92.9 21.2 92.95 21.23 93 21.2 C 93.4 20.4 94.1 20.1 95 20.1 C 97.5 20.1 97.4 22.9 97.4 24.6 C 97.4 26.4 97.4 29 95 29 C 94.2 29 93.6 28.8 93.1 28 C 93.07 28.05 93 28 93 28 L 93 32.6 L 90.6 32.6 L 90.6 20.3 L 92.9 20.3 Z M 103.5 23.6 C 103.5 22.8 103.6 21.6 102.4 21.6 C 101.3 21.6 101.4 22.9 101.4 23.6 C 101.4 23.6 103.5 23.6 103.5 23.6 Z M 101.4 25 C 101.4 26 101.4 27.5 102.4 27.5 C 103.3 27.5 103.5 26.7 103.5 26 C 103.5 26 105.9 26 105.9 26 C 105.9 26.9 105.6 27.7 105 28.2 C 104.4 28.7 103.6 29 102.4 29 C 99.3 29 98.9 27.1 98.9 24.5 C 98.9 22.1 99.3 20.1 102.4 20.1 C 105.7 20.1 106 22.2 105.9 25 C 105.9 25 101.4 25 101.4 25 Z M 109.9 20.3 L 109.9 21.4 C 109.9 21.4 109.95 21.38 110 21.4 C 110.4 20.4 111.2 20.1 112.2 20.1 C 112.2 20.1 112.2 22.3 112.2 22.3 C 110.1 22.1 110 23.3 110 24.2 C 110.04 24.19 110 28.9 110 28.9 L 107.6 28.9 L 107.6 20.3 L 109.9 20.3 Z M 115.2 26.1 C 115.2 26.5 115.2 26.9 115.3 27.1 C 115.4 27.4 115.7 27.6 116.2 27.6 C 116.7 27.6 117.1 27.2 117.1 26.7 C 117.1 24.9 112.8 25.3 112.8 22.5 C 112.8 20.7 114.7 20.1 116.2 20.1 C 117.9 20.1 119.3 20.9 119.2 22.7 C 119.2 22.7 116.9 22.7 116.9 22.7 C 116.9 22.1 116.8 21.8 116.6 21.6 C 116.5 21.5 116.3 21.5 116 21.5 C 115.5 21.5 115.2 21.8 115.2 22.4 C 115.2 23.7 119.4 23.7 119.4 26.4 C 119.4 27.9 118.2 29 116.2 29 C 114.1 29 112.7 28.5 112.8 26.1 C 112.8 26.1 115.2 26.1 115.2 26.1 Z M 125.3 23.6 C 125.3 22.8 125.3 21.6 124.1 21.6 C 123 21.6 123.1 22.9 123.1 23.6 C 123.1 23.6 125.3 23.6 125.3 23.6 Z M 123.1 25 C 123.1 26 123.1 27.5 124.1 27.5 C 125 27.5 125.2 26.7 125.2 26 C 125.2 26 127.6 26 127.6 26 C 127.6 26.9 127.3 27.7 126.7 28.2 C 126.1 28.7 125.3 29 124.1 29 C 121.1 29 120.6 27.1 120.6 24.5 C 120.6 22.1 121 20.1 124.1 20.1 C 127.4 20.1 127.7 22.2 127.7 25 C 127.7 25 123.1 25 123.1 25 Z M 131.7 21.1 C 131.7 21.1 131.78 21.15 131.8 21.1 C 132 20.8 132.3 20.5 132.6 20.3 C 133 20.2 133.4 20.1 133.8 20.1 C 134.9 20.1 135.9 20.8 135.9 22 C 135.95 21.98 135.9 28.9 135.9 28.9 L 133.6 28.9 C 133.6 28.9 133.55 22.95 133.6 22.9 C 133.6 22.2 133.4 21.6 132.6 21.6 C 131.9 21.6 131.7 22.2 131.7 22.9 C 131.75 22.95 131.7 28.9 131.7 28.9 L 129.4 28.9 L 129.4 20.3 L 131.7 20.3 L 131.7 21.1 Z M 139.7 26.1 C 139.7 26.5 139.7 26.9 139.9 27.1 C 140 27.4 140.2 27.6 140.7 27.6 C 141.2 27.6 141.6 27.2 141.6 26.7 C 141.6 24.9 137.4 25.3 137.4 22.5 C 137.4 20.7 139.2 20.1 140.8 20.1 C 142.4 20.1 143.9 20.9 143.8 22.7 C 143.8 22.7 141.4 22.7 141.4 22.7 C 141.4 22.1 141.3 21.8 141.2 21.6 C 141 21.5 140.8 21.5 140.6 21.5 C 140 21.5 139.7 21.8 139.7 22.4 C 139.7 23.7 144 23.7 144 26.4 C 144 27.9 142.7 29 140.7 29 C 138.7 29 137.3 28.5 137.4 26.1 C 137.4 26.1 139.7 26.1 139.7 26.1 Z M 148 28.9 L 145.6 28.9 L 145.6 20.3 L 148 20.3 L 148 28.9 Z M 148 16.6 L 148 18.5 L 145.6 18.5 L 145.6 16.6 L 148 16.6 Z M 149.2 20.3 L 150.1 20.3 L 150.1 18.9 L 152.5 17.8 L 152.5 20.3 L 153.8 20.3 L 153.8 21.8 L 152.5 21.8 C 152.5 21.8 152.52 26.35 152.5 26.3 C 152.5 27 152.5 27.4 153.3 27.4 C 153.4 27.4 153.6 27.4 153.7 27.4 C 153.7 27.4 153.7 28.9 153.7 28.9 C 153.4 28.9 153 28.9 152.5 28.9 C 150.4 28.9 150.1 27.6 150.1 27 C 150.12 27.05 150.1 21.8 150.1 21.8 L 149.2 21.8 L 149.2 20.3 Z M 157.5 28.9 L 155.1 28.9 L 155.1 20.3 L 157.5 20.3 L 157.5 28.9 Z M 157.5 16.6 L 157.5 18.5 L 155.1 18.5 L 155.1 16.6 L 157.5 16.6 Z M 158.8 20.3 L 161.2 20.3 L 162.4 26.7 L 162.4 26.7 L 163.7 20.3 L 166 20.3 L 163.7 28.9 L 161 28.9 L 158.8 20.3 Z M 169.7 28.9 L 167.3 28.9 L 167.3 20.3 L 169.7 20.3 L 169.7 28.9 Z M 169.7 16.6 L 169.7 18.5 L 167.3 18.5 L 167.3 16.6 L 169.7 16.6 Z M 170.9 20.3 L 171.9 20.3 L 171.9 18.9 L 174.2 17.8 L 174.2 20.3 L 175.5 20.3 L 175.5 21.8 L 174.2 21.8 C 174.2 21.8 174.25 26.35 174.2 26.3 C 174.2 27 174.2 27.4 175 27.4 C 175.2 27.4 175.3 27.4 175.4 27.4 C 175.4 27.4 175.4 28.9 175.4 28.9 C 175.1 28.9 174.8 28.9 174.2 28.9 C 172.1 28.9 171.9 27.6 171.9 27 C 171.85 27.05 171.9 21.8 171.9 21.8 L 170.9 21.8 L 170.9 20.3 Z M 178.1 28.9 L 175.8 20.3 L 178.2 20.3 L 179.4 26.3 L 179.4 26.3 L 180.7 20.3 L 183 20.3 L 179.7 32.1 L 177.2 32.1 L 178.1 28.9 Z M 192.3 24.3 C 192.3 22.5 192.2 21.6 191.2 21.6 C 190.2 21.6 190.1 22.5 190.1 24.3 C 190.1 26.9 190.3 27.5 191.2 27.5 C 192.1 27.5 192.3 26.9 192.3 24.3 Z M 187.7 24.5 C 187.7 22.1 188 20.1 191.2 20.1 C 194.4 20.1 194.7 22.1 194.7 24.5 C 194.7 27.1 194.3 29 191.2 29 C 188.1 29 187.7 27.1 187.7 24.5 Z M 198.7 20.3 L 198.7 21.4 C 198.7 21.4 198.71 21.38 198.7 21.4 C 199.2 20.4 200 20.1 200.9 20.1 C 200.9 20.1 200.9 22.3 200.9 22.3 C 198.8 22.1 198.8 23.3 198.8 24.2 C 198.8 24.19 198.8 28.9 198.8 28.9 L 196.4 28.9 L 196.4 20.3 L 198.7 20.3 Z M 207.9 26.2 C 207.9 26.8 208 27.6 208.8 27.6 C 210.2 27.6 210 25.7 210 24.7 C 208.8 24.8 207.9 24.7 207.9 26.2 Z M 212.3 27.3 C 212.3 27.8 212.4 28.3 212.5 28.9 C 212.46 28.86 210.2 28.9 210.2 28.9 L 210.1 27.7 C 210.1 27.7 210.1 27.73 210.1 27.7 C 209.6 28.6 208.9 29 207.9 29 C 206.2 29 205.6 27.8 205.6 26.3 C 205.6 23.5 207.8 23.3 210 23.4 C 210 23.4 210 22.7 210 22.7 C 210 22 209.9 21.5 209 21.5 C 208.2 21.5 208.1 22.1 208.1 22.8 C 208.1 22.8 205.8 22.8 205.8 22.8 C 205.8 21.7 206.1 21.1 206.7 20.7 C 207.2 20.3 208 20.1 208.9 20.1 C 212 20.1 212.3 21.4 212.3 23 C 212.3 23 212.3 27.3 212.3 27.3 Z M 216.7 21.1 C 216.7 21.1 216.76 21.15 216.8 21.1 C 217 20.8 217.3 20.5 217.6 20.3 C 218 20.2 218.3 20.1 218.8 20.1 C 219.9 20.1 220.9 20.8 220.9 22 C 220.93 21.98 220.9 28.9 220.9 28.9 L 218.5 28.9 C 218.5 28.9 218.53 22.95 218.5 22.9 C 218.5 22.2 218.4 21.6 217.6 21.6 C 216.9 21.6 216.7 22.2 216.7 22.9 C 216.73 22.95 216.7 28.9 216.7 28.9 L 214.3 28.9 L 214.3 20.3 L 216.7 20.3 L 216.7 21.1 Z M 224.9 26.2 C 224.9 26.8 225 27.6 225.8 27.6 C 227.2 27.6 227 25.7 227 24.7 C 225.8 24.8 224.9 24.7 224.9 26.2 Z M 229.3 27.3 C 229.3 27.8 229.4 28.3 229.5 28.9 C 229.46 28.86 227.2 28.9 227.2 28.9 L 227.1 27.7 C 227.1 27.7 227.1 27.73 227.1 27.7 C 226.6 28.6 225.9 29 224.9 29 C 223.2 29 222.6 27.8 222.6 26.3 C 222.6 23.5 224.8 23.3 227 23.4 C 227 23.4 227 22.7 227 22.7 C 227 22 226.9 21.5 226 21.5 C 225.2 21.5 225.1 22.1 225.1 22.8 C 225.1 22.8 222.8 22.8 222.8 22.8 C 222.8 21.7 223.1 21.1 223.7 20.7 C 224.2 20.3 225 20.1 225.9 20.1 C 229 20.1 229.3 21.4 229.3 23 C 229.3 23 229.3 27.3 229.3 27.3 Z M 235.7 24.5 C 235.7 22.8 235.7 21.6 234.7 21.6 C 233.7 21.6 233.7 22.8 233.7 24.5 C 233.7 26.7 233.9 27.6 234.7 27.6 C 235.6 27.6 235.7 26.7 235.7 24.5 Z M 233.6 20.3 L 233.6 21.2 C 233.6 21.2 233.64 21.23 233.6 21.2 C 234.1 20.4 234.7 20.1 235.7 20.1 C 238.1 20.1 238.1 22.9 238.1 24.6 C 238.1 26.4 238.1 29 235.7 29 C 234.9 29 234.3 28.8 233.8 28 C 233.76 28.05 233.7 28 233.7 28 L 233.7 32.6 L 231.3 32.6 L 231.3 20.3 L 233.6 20.3 Z M 244 28.9 C 244 28.9 244.03 22.95 244 22.9 C 244 22.2 243.9 21.6 243.1 21.6 C 242.4 21.6 242.2 22.2 242.2 22.9 C 242.23 22.95 242.2 28.9 242.2 28.9 L 239.8 28.9 L 239.8 16.6 L 242.2 16.6 L 242.2 21.1 C 242.2 21.1 242.26 21.15 242.3 21.1 C 242.5 20.8 242.8 20.5 243.1 20.3 C 243.5 20.2 243.8 20.1 244.3 20.1 C 245.4 20.1 246.4 20.8 246.4 22 C 246.43 21.98 246.4 28.9 246.4 28.9 L 244 28.9 Z M 249.9 28.9 L 247.5 20.3 L 249.9 20.3 L 251.1 26.3 L 251.2 26.3 L 252.5 20.3 L 254.8 20.3 L 251.5 32.1 L 248.9 32.1 L 249.9 28.9 Z M 258.5 16.6 L 258.5 28.9 L 256.1 28.9 L 256.1 16.6 L 258.5 16.6 Z M 262.7 26.2 C 262.7 26.8 262.8 27.6 263.6 27.6 C 265 27.6 264.8 25.7 264.8 24.7 C 263.6 24.8 262.7 24.7 262.7 26.2 Z M 267.1 27.3 C 267.1 27.8 267.2 28.3 267.2 28.9 C 267.24 28.86 265 28.9 265 28.9 L 264.9 27.7 C 264.9 27.7 264.87 27.73 264.9 27.7 C 264.4 28.6 263.7 29 262.6 29 C 261 29 260.4 27.8 260.4 26.3 C 260.4 23.5 262.5 23.3 264.8 23.4 C 264.8 23.4 264.8 22.7 264.8 22.7 C 264.8 22 264.7 21.5 263.8 21.5 C 263 21.5 262.9 22.1 262.9 22.8 C 262.9 22.8 260.6 22.8 260.6 22.8 C 260.6 21.7 260.9 21.1 261.4 20.7 C 262 20.3 262.8 20.1 263.7 20.1 C 266.7 20.1 267.1 21.4 267.1 23 C 267.1 23 267.1 27.3 267.1 27.3 Z M 273.5 23.3 C 273.5 22.1 273.2 21.6 272.4 21.6 C 271.4 21.6 271.3 22.5 271.3 24.3 C 271.3 26.9 271.5 27.5 272.4 27.5 C 273.2 27.5 273.5 26.8 273.5 25.7 C 273.5 25.7 275.9 25.7 275.9 25.7 C 275.9 28 274.6 29 272.4 29 C 269.3 29 268.9 27.1 268.9 24.5 C 268.9 22.1 269.2 20.1 272.4 20.1 C 274.6 20.1 275.9 21.1 275.9 23.3 C 275.9 23.3 273.5 23.3 273.5 23.3 Z M 276.6 20.3 L 277.6 20.3 L 277.6 18.9 L 280 17.8 L 280 20.3 L 281.2 20.3 L 281.2 21.8 L 280 21.8 C 280 21.8 280 26.35 280 26.3 C 280 27 280 27.4 280.8 27.4 C 280.9 27.4 281.1 27.4 281.2 27.4 C 281.2 27.4 281.2 28.9 281.2 28.9 C 280.9 28.9 280.5 28.9 280 28.9 C 277.9 28.9 277.6 27.6 277.6 27 C 277.61 27.05 277.6 21.8 277.6 21.8 L 276.6 21.8 L 276.6 20.3 Z M 284.9 28.9 L 282.5 28.9 L 282.5 20.3 L 284.9 20.3 L 284.9 28.9 Z M 284.9 16.6 L 284.9 18.5 L 282.5 18.5 L 282.5 16.6 L 284.9 16.6 Z M 291.4 23.3 C 291.4 22.1 291.1 21.6 290.4 21.6 C 289.3 21.6 289.3 22.5 289.3 24.3 C 289.3 26.9 289.5 27.5 290.4 27.5 C 291.1 27.5 291.5 26.8 291.5 25.7 C 291.5 25.7 293.9 25.7 293.9 25.7 C 293.9 28 292.6 29 290.4 29 C 287.3 29 286.9 27.1 286.9 24.5 C 286.9 22.1 287.2 20.1 290.4 20.1 C 292.6 20.1 293.8 21.1 293.8 23.3 C 293.8 23.3 291.4 23.3 291.4 23.3 Z M 301.6 20.3 L 301.6 21.4 C 301.6 21.4 301.64 21.38 301.6 21.4 C 302.1 20.4 302.9 20.1 303.9 20.1 C 303.9 20.1 303.9 22.3 303.9 22.3 C 301.8 22.1 301.7 23.3 301.7 24.2 C 301.73 24.19 301.7 28.9 301.7 28.9 L 299.3 28.9 L 299.3 20.3 L 301.6 20.3 Z M 309.4 23.6 C 309.4 22.8 309.4 21.6 308.3 21.6 C 307.2 21.6 307.2 22.9 307.2 23.6 C 307.2 23.6 309.4 23.6 309.4 23.6 Z M 307.2 25 C 307.2 26 307.2 27.5 308.3 27.5 C 309.1 27.5 309.3 26.7 309.3 26 C 309.3 26 311.7 26 311.7 26 C 311.7 26.9 311.4 27.7 310.8 28.2 C 310.3 28.7 309.4 29 308.3 29 C 305.2 29 304.8 27.1 304.8 24.5 C 304.8 22.1 305.1 20.1 308.3 20.1 C 311.5 20.1 311.9 22.2 311.8 25 C 311.8 25 307.2 25 307.2 25 Z M 315.6 26.2 C 315.6 26.8 315.7 27.6 316.5 27.6 C 317.9 27.6 317.7 25.7 317.7 24.7 C 316.5 24.8 315.6 24.7 315.6 26.2 Z M 320 27.3 C 320 27.8 320.1 28.3 320.1 28.9 C 320.12 28.86 317.9 28.9 317.9 28.9 L 317.8 27.7 C 317.8 27.7 317.76 27.73 317.8 27.7 C 317.3 28.6 316.6 29 315.5 29 C 313.9 29 313.2 27.8 313.2 26.3 C 313.2 23.5 315.4 23.3 317.7 23.4 C 317.7 23.4 317.7 22.7 317.7 22.7 C 317.7 22 317.6 21.5 316.7 21.5 C 315.9 21.5 315.8 22.1 315.8 22.8 C 315.8 22.8 313.4 22.8 313.4 22.8 C 313.4 21.7 313.8 21.1 314.3 20.7 C 314.9 20.3 315.7 20.1 316.6 20.1 C 319.6 20.1 320 21.4 320 23 C 320 23 320 27.3 320 27.3 Z M 326.4 23.3 C 326.4 22.1 326 21.6 325.3 21.6 C 324.3 21.6 324.2 22.5 324.2 24.3 C 324.2 26.9 324.4 27.5 325.3 27.5 C 326 27.5 326.4 26.8 326.4 25.7 C 326.4 25.7 328.8 25.7 328.8 25.7 C 328.8 28 327.5 29 325.3 29 C 322.2 29 321.8 27.1 321.8 24.5 C 321.8 22.1 322.1 20.1 325.3 20.1 C 327.5 20.1 328.8 21.1 328.8 23.3 C 328.8 23.3 326.4 23.3 326.4 23.3 Z M 329.5 20.3 L 330.5 20.3 L 330.5 18.9 L 332.9 17.8 L 332.9 20.3 L 334.1 20.3 L 334.1 21.8 L 332.9 21.8 C 332.9 21.8 332.89 26.35 332.9 26.3 C 332.9 27 332.9 27.4 333.7 27.4 C 333.8 27.4 334 27.4 334.1 27.4 C 334.1 27.4 334.1 28.9 334.1 28.9 C 333.8 28.9 333.4 28.9 332.8 28.9 C 330.8 28.9 330.5 27.6 330.5 27 C 330.49 27.05 330.5 21.8 330.5 21.8 L 329.5 21.8 L 329.5 20.3 Z M 337.8 28.9 L 335.4 28.9 L 335.4 20.3 L 337.8 20.3 L 337.8 28.9 Z M 337.8 16.6 L 337.8 18.5 L 335.4 18.5 L 335.4 16.6 L 337.8 16.6 Z M 344.3 24.3 C 344.3 22.5 344.3 21.6 343.2 21.6 C 342.2 21.6 342.1 22.5 342.1 24.3 C 342.1 26.9 342.4 27.5 343.2 27.5 C 344.1 27.5 344.3 26.9 344.3 24.3 Z M 339.7 24.5 C 339.7 22.1 340.1 20.1 343.2 20.1 C 346.4 20.1 346.7 22.1 346.7 24.5 C 346.7 27.1 346.3 29 343.2 29 C 340.1 29 339.7 27.1 339.7 24.5 Z M 350.8 21.1 C 350.8 21.1 350.88 21.15 350.9 21.1 C 351.1 20.8 351.4 20.5 351.7 20.3 C 352.1 20.2 352.5 20.1 352.9 20.1 C 354 20.1 355 20.8 355 22 C 355.04 21.98 355 28.9 355 28.9 L 352.6 28.9 C 352.6 28.9 352.64 22.95 352.6 22.9 C 352.6 22.2 352.5 21.6 351.7 21.6 C 351 21.6 350.8 22.2 350.8 22.9 C 350.84 22.95 350.8 28.9 350.8 28.9 L 348.4 28.9 L 348.4 20.3 L 350.8 20.3 L 350.8 21.1 Z M 358.8 26.1 C 358.8 26.5 358.8 26.9 359 27.1 C 359.1 27.4 359.3 27.6 359.8 27.6 C 360.3 27.6 360.7 27.2 360.7 26.7 C 360.7 24.9 356.5 25.3 356.5 22.5 C 356.5 20.7 358.3 20.1 359.9 20.1 C 361.5 20.1 363 20.9 362.8 22.7 C 362.8 22.7 360.5 22.7 360.5 22.7 C 360.5 22.1 360.4 21.8 360.3 21.6 C 360.1 21.5 359.9 21.5 359.6 21.5 C 359.1 21.5 358.8 21.8 358.8 22.4 C 358.8 23.7 363 23.7 363 26.4 C 363 27.9 361.8 29 359.8 29 C 357.7 29 356.4 28.5 356.5 26.1 C 356.5 26.1 358.8 26.1 358.8 26.1 Z " stroke="none" fill="#003c71"/>  </g></svg>