<?xml version="1.0" standalone="no"?><!DOCTYPE svg PUBLIC "-//W3C//DTD SVG 1.1//EN" "http://www.w3.org/Graphics/SVG/1.1/DTD/svg11.dtd"><svg xmlns="http://www.w3.org/2000/svg" version="1.1" width="313.1px" height="97.8px" viewBox="0 -1 313.1 97.8" style="top:-1px">  <desc>References: 1. ANDEMBRY® SmPC BELUX; 02/2025. 2. Craig J, et al. Efficacy and safety of garadacimab, a factor XIIa in...</desc>  <defs/>  <g id="Polygon198036">    <path d="M 11.3 83.6 L 12.5 83.6 L 14.8 90.8 L 13.8 90.8 L 13.3 89.1 L 10.5 89.1 L 10 90.8 L 9 90.8 L 11.3 83.6 Z M 11.9 84.4 L 11.9 84.4 L 10.7 88.3 L 13 88.3 L 11.9 84.4 Z M 18.6 88.2 C 18.6 87.4 18.6 86.3 17.5 86.3 C 16.5 86.3 16.6 87.7 16.6 88.5 C 16.6 89.2 16.6 90.2 17.5 90.2 C 18.4 90.2 18.6 89.5 18.6 88.2 Z M 16.6 86.4 C 16.6 86.4 16.62 86.35 16.6 86.4 C 16.9 85.9 17.2 85.7 17.8 85.7 C 18.6 85.7 19.4 86 19.4 88.2 C 19.4 89.5 19.4 90.9 17.7 90.9 C 17.3 90.9 16.9 90.7 16.6 90.3 C 16.63 90.29 16.6 90.3 16.6 90.3 L 16.6 92.7 L 15.8 92.7 L 15.8 85.8 L 16.6 85.8 L 16.6 86.4 Z M 21.6 86.5 C 21.6 86.5 21.58 86.51 21.6 86.5 C 21.9 85.7 22.3 85.7 23.1 85.7 C 23.1 85.7 23.1 86.5 23.1 86.5 C 23.1 86.5 23 86.5 22.9 86.5 C 22.8 86.5 22.8 86.5 22.7 86.5 C 21.8 86.5 21.6 87.1 21.6 87.8 C 21.56 87.82 21.6 90.8 21.6 90.8 L 20.7 90.8 L 20.7 85.8 L 21.6 85.8 L 21.6 86.5 Z M 28.4 90.8 L 27.5 90.8 L 27.5 84.9 L 26.5 85.6 C 26.5 85.6 26.47 84.69 26.5 84.7 C 26.7 84.6 27.4 84.1 27.6 83.9 C 27.64 83.86 28.4 83.9 28.4 83.9 L 28.4 90.8 Z M 30.8 89.8 L 31.9 89.8 L 31 92.1 L 30.3 92.1 L 30.8 89.8 Z M 31.6 86.8 L 30.6 86.8 L 30.6 85.8 L 31.6 85.8 L 31.6 86.8 Z M 34.8 88.3 L 34.8 84.7 L 34.7 84.7 L 33.2 88.3 L 34.8 88.3 Z M 32.4 89.1 L 32.4 88.3 L 34.4 83.9 L 35.6 83.9 L 35.6 88.3 L 36.4 88.3 L 36.4 89.1 L 35.6 89.1 L 35.6 90.8 L 34.8 90.8 L 34.8 89.1 L 32.4 89.1 Z M 40.7 87.4 C 40.7 89.2 40.7 91 38.9 91 C 37 91 37 89.2 37 87.4 C 37 85.5 37 83.8 38.9 83.8 C 40.8 83.8 40.7 85.5 40.7 87.4 Z M 37.9 87.5 C 37.9 88.7 37.8 90.2 38.9 90.2 C 39.9 90.2 39.8 88.7 39.8 87.5 C 39.8 85.7 39.8 84.5 38.9 84.5 C 37.9 84.5 37.9 85.7 37.9 87.5 Z M 44 90.8 L 43 90.8 L 43 84.9 L 42 85.6 C 42 85.6 42.01 84.69 42 84.7 C 42.2 84.6 42.9 84.1 43.2 83.9 C 43.18 83.86 44 83.9 44 83.9 L 44 90.8 Z M 47 92 C 46.6 90.6 46 89.2 46 87.7 C 46 86.1 46.6 84.7 47 83.2 C 47 83.2 47.6 83.2 47.6 83.2 C 47.3 84.7 47 86.2 47 87.7 C 47 89.2 47.3 90.6 47.6 92 C 47.6 92 47 92 47 92 Z M 51.2 90.8 L 50.3 90.8 L 50.3 84.9 L 49.2 85.6 C 49.2 85.6 49.23 84.69 49.2 84.7 C 49.5 84.6 50.1 84.1 50.4 83.9 C 50.4 83.86 51.2 83.9 51.2 83.9 L 51.2 90.8 Z M 56.8 87.4 C 56.8 89.2 56.8 91 55 91 C 53.1 91 53.1 89.2 53.1 87.4 C 53.1 85.5 53.1 83.8 55 83.8 C 56.9 83.8 56.8 85.5 56.8 87.4 Z M 54 87.5 C 54 88.7 53.9 90.2 55 90.2 C 56 90.2 55.9 88.7 55.9 87.5 C 55.9 85.7 55.9 84.5 55 84.5 C 54 84.5 54 85.7 54 87.5 Z M 58.9 86.8 C 59.7 86.8 60.3 86.5 60.3 85.6 C 60.3 85 60 84.5 59.3 84.5 C 58.6 84.5 58.4 85.1 58.5 85.7 C 58.5 85.7 57.5 85.7 57.5 85.7 C 57.5 84.5 58 83.8 59.3 83.8 C 60.5 83.8 61.2 84.3 61.2 85.6 C 61.2 86.9 60.2 87.1 59.8 87.2 C 59.8 87.2 59.8 87.2 59.8 87.2 C 60.9 87.3 61.3 87.9 61.3 89 C 61.3 90.3 60.5 91 59.2 91 C 57.3 91 57.4 89.3 57.4 88.9 C 57.4 88.9 58.3 88.9 58.3 88.9 C 58.4 89.6 58.5 90.2 59.3 90.2 C 60.1 90.2 60.4 89.7 60.4 88.9 C 60.4 87.8 59.9 87.6 58.9 87.6 C 58.9 87.6 58.9 86.8 58.9 86.8 Z M 64.8 88.9 C 64.8 88.3 64.7 87.5 63.8 87.5 C 63 87.5 62.9 88.3 62.9 88.9 C 62.9 89.5 63.1 90.2 63.8 90.2 C 64.5 90.2 64.8 89.5 64.8 88.9 Z M 64.4 87.1 C 65.4 87.2 65.7 88 65.7 88.9 C 65.7 90.2 65 91 63.8 91 C 62.6 91 62 90.2 62 88.9 C 62 88 62.2 87.2 63.3 87.1 C 63.3 87.1 63.3 87.1 63.3 87.1 C 62.4 87 62.1 86.3 62.1 85.5 C 62.1 84.4 62.7 83.8 63.8 83.8 C 64.9 83.8 65.6 84.4 65.6 85.5 C 65.6 86.3 65.2 87 64.4 87.1 C 64.4 87.1 64.4 87.1 64.4 87.1 Z M 64.7 85.5 C 64.7 84.9 64.4 84.4 63.8 84.4 C 63.2 84.4 63 84.9 63 85.5 C 63 86 63.1 86.7 63.8 86.7 C 64.5 86.7 64.7 86 64.7 85.5 Z M 66.5 90.8 C 66.5 90.8 66.49 90 66.5 90 C 68.5 87.2 69.1 86.6 69.1 85.4 C 69.1 84.9 68.8 84.5 68.3 84.5 C 67.6 84.5 67.4 85.1 67.4 85.7 C 67.4 85.7 66.5 85.7 66.5 85.7 C 66.4 84.5 67 83.8 68.2 83.8 C 69.4 83.8 70 84.3 70 85.6 C 70 87.1 69.3 87.6 67.5 90 C 67.47 90 70.2 90 70.2 90 L 70.2 90.8 L 66.5 90.8 Z M 71.2 92 C 71.5 90.6 71.8 89.2 71.8 87.7 C 71.8 86.2 71.5 84.7 71.2 83.2 C 71.2 83.2 71.8 83.2 71.8 83.2 C 72.2 84.7 72.8 86.1 72.8 87.7 C 72.8 89.2 72.2 90.6 71.8 92 C 71.8 92 71.2 92 71.2 92 Z M 74.9 86.8 L 73.9 86.8 L 73.9 85.8 L 74.9 85.8 L 74.9 86.8 Z M 74.9 90.8 L 73.9 90.8 L 73.9 89.8 L 74.9 89.8 L 74.9 90.8 Z M 78.4 90.8 L 77.5 90.8 L 77.5 84.9 L 76.4 85.6 C 76.4 85.6 76.43 84.69 76.4 84.7 C 76.7 84.6 77.3 84.1 77.6 83.9 C 77.6 83.86 78.4 83.9 78.4 83.9 L 78.4 90.8 Z M 84 87.4 C 84 89.2 84 91 82.2 91 C 80.3 91 80.3 89.2 80.3 87.4 C 80.3 85.5 80.3 83.8 82.2 83.8 C 84.1 83.8 84 85.5 84 87.4 Z M 81.2 87.5 C 81.2 88.7 81.1 90.2 82.2 90.2 C 83.2 90.2 83.1 88.7 83.1 87.5 C 83.1 85.7 83.1 84.5 82.2 84.5 C 81.2 84.5 81.2 85.7 81.2 87.5 Z M 84.7 83.9 L 88.3 83.9 L 88.3 84.7 L 86.4 90.8 L 85.4 90.8 L 87.3 84.7 L 84.7 84.7 L 84.7 83.9 Z M 90.1 85.9 C 90.1 86.6 90.2 87.3 91 87.3 C 91.8 87.3 92 86.6 92 85.9 C 92 85.2 91.8 84.4 91 84.4 C 90.2 84.4 90.1 85.2 90.1 85.9 Z M 92.9 87.4 C 92.9 89.2 92.9 91 91 91 C 90 91 89.3 90.2 89.3 89.1 C 89.3 89.1 90.2 89.1 90.2 89.1 C 90.2 89.7 90.4 90.2 91 90.2 C 91.9 90.2 92 89.2 92 87.4 C 92 87.4 92 87.4 92 87.4 C 91.7 87.9 91.3 88.1 90.8 88.1 C 90.2 88.1 89.2 87.8 89.2 85.9 C 89.2 84.3 90.1 83.8 91 83.8 C 92.9 83.8 92.9 85.5 92.9 87.4 Z M 93.8 87.7 L 96 87.7 L 96 88.5 L 93.8 88.5 L 93.8 87.7 Z M 99.5 90.8 L 98.6 90.8 L 98.6 84.9 L 97.5 85.6 C 97.5 85.6 97.52 84.69 97.5 84.7 C 97.7 84.6 98.4 84.1 98.7 83.9 C 98.69 83.86 99.5 83.9 99.5 83.9 L 99.5 90.8 Z M 105.1 87.4 C 105.1 89.2 105.1 91 103.2 91 C 101.4 91 101.4 89.2 101.4 87.4 C 101.4 85.5 101.3 83.8 103.2 83.8 C 105.1 83.8 105.1 85.5 105.1 87.4 Z M 102.3 87.5 C 102.3 88.7 102.2 90.2 103.2 90.2 C 104.3 90.2 104.2 88.7 104.2 87.5 C 104.2 85.7 104.2 84.5 103.2 84.5 C 102.3 84.5 102.3 85.7 102.3 87.5 Z M 106.7 85.9 C 106.7 86.6 106.9 87.3 107.7 87.3 C 108.5 87.3 108.6 86.6 108.6 85.9 C 108.6 85.2 108.5 84.4 107.7 84.4 C 106.9 84.4 106.7 85.2 106.7 85.9 Z M 109.5 87.4 C 109.5 89.2 109.6 91 107.7 91 C 106.6 91 105.9 90.2 106 89.1 C 106 89.1 106.9 89.1 106.9 89.1 C 106.9 89.7 107.1 90.2 107.7 90.2 C 108.6 90.2 108.6 89.2 108.6 87.4 C 108.6 87.4 108.6 87.4 108.6 87.4 C 108.4 87.9 107.9 88.1 107.4 88.1 C 106.9 88.1 105.8 87.8 105.8 85.9 C 105.8 84.3 106.8 83.8 107.7 83.8 C 109.6 83.8 109.5 85.5 109.5 87.4 Z M 114 87.4 C 114 89.2 114 91 112.1 91 C 110.2 91 110.3 89.2 110.3 87.4 C 110.3 85.5 110.2 83.8 112.1 83.8 C 114 83.8 114 85.5 114 87.4 Z M 111.2 87.5 C 111.2 88.7 111.1 90.2 112.1 90.2 C 113.1 90.2 113.1 88.7 113.1 87.5 C 113.1 85.7 113.1 84.5 112.1 84.5 C 111.2 84.5 111.2 85.7 111.2 87.5 Z M 115.9 90.8 L 115 90.8 L 115 89.8 L 115.9 89.8 L 115.9 90.8 Z " stroke="none" fill="#555555"/>  </g>  <g id="Polygon198035">    <path d="M 10.4 74.5 C 10.4 74.5 10.47 74.51 10.5 74.5 C 10.8 73.7 11.2 73.7 12 73.7 C 12 73.7 12 74.5 12 74.5 C 12 74.5 11.9 74.5 11.8 74.5 C 11.7 74.5 11.7 74.5 11.6 74.5 C 10.7 74.5 10.4 75.1 10.4 75.8 C 10.45 75.82 10.4 78.8 10.4 78.8 L 9.6 78.8 L 9.6 73.8 L 10.4 73.8 L 10.4 74.5 Z M 13.7 77.3 C 13.7 77.8 13.9 78.2 14.5 78.2 C 15 78.2 15.6 77.9 15.5 76.3 C 14.7 76.3 13.7 76.2 13.7 77.3 Z M 15.5 78.1 C 15.5 78.1 15.51 78.07 15.5 78.1 C 15.3 78.7 14.9 78.9 14.2 78.9 C 13.2 78.9 12.9 78.2 12.9 77.2 C 12.9 75.7 14.4 75.6 15.5 75.7 C 15.5 75 15.5 74.3 14.7 74.3 C 14.1 74.3 13.8 74.6 13.9 75.2 C 13.9 75.2 13 75.2 13 75.2 C 13 74 13.6 73.7 14.7 73.7 C 16 73.7 16.3 74.3 16.3 75.2 C 16.3 75.2 16.3 77.6 16.3 77.6 C 16.3 78 16.4 78.4 16.4 78.8 C 16.43 78.8 15.5 78.8 15.5 78.8 L 15.5 78.1 Z M 20.7 78.8 C 20.7 78.8 20.67 75.3 20.7 75.3 C 20.7 74.8 20.5 74.3 19.8 74.3 C 18.9 74.3 18.7 75.1 18.7 75.8 C 18.75 75.81 18.7 78.8 18.7 78.8 L 17.9 78.8 C 17.9 78.8 17.93 74.8 17.9 74.8 C 17.9 74.5 17.9 74.1 17.9 73.8 C 17.88 73.75 18.7 73.8 18.7 73.8 L 18.7 74.4 C 18.7 74.4 18.79 74.4 18.8 74.4 C 19.1 73.8 19.5 73.7 20.1 73.7 C 21.2 73.7 21.5 74.3 21.5 75.3 C 21.49 75.3 21.5 78.8 21.5 78.8 L 20.7 78.8 Z M 24.6 74.3 C 23.8 74.3 23.6 75 23.6 76.4 C 23.6 77.1 23.6 78.2 24.7 78.2 C 25.6 78.2 25.6 77.1 25.6 76.1 C 25.6 75.4 25.6 74.3 24.6 74.3 Z M 25.6 71.6 L 26.4 71.6 L 26.4 78.8 L 25.6 78.8 L 25.6 78.2 C 25.6 78.2 25.58 78.2 25.6 78.2 C 25.3 78.7 24.9 78.9 24.4 78.9 C 23.6 78.9 22.8 78.6 22.8 76.4 C 22.8 75.1 22.8 73.7 24.5 73.7 C 24.9 73.7 25.3 73.9 25.6 74.3 C 25.57 74.26 25.6 74.3 25.6 74.3 L 25.6 71.6 Z M 30.8 76 C 30.8 74.6 30.3 74.3 29.7 74.3 C 29.1 74.3 28.6 74.6 28.6 76 C 28.6 77.6 28.9 78.2 29.7 78.2 C 30.6 78.2 30.8 77.6 30.8 76 Z M 27.8 76.4 C 27.8 74.9 28 73.7 29.7 73.7 C 31.5 73.7 31.6 74.9 31.6 76.4 C 31.6 78.6 30.8 78.9 29.7 78.9 C 28.6 78.9 27.8 78.6 27.8 76.4 Z M 35.4 78.8 C 35.4 78.8 35.41 75.3 35.4 75.3 C 35.4 74.8 35.3 74.3 34.6 74.3 C 34.4 74.3 34 74.5 33.9 74.7 C 33.7 74.9 33.7 75.2 33.7 75.4 C 33.71 75.4 33.7 78.8 33.7 78.8 L 32.9 78.8 C 32.9 78.8 32.89 74.8 32.9 74.8 C 32.9 74.5 32.9 74.1 32.8 73.8 C 32.84 73.75 33.7 73.8 33.7 73.8 L 33.7 74.4 C 33.7 74.4 33.73 74.38 33.7 74.4 C 34 73.8 34.4 73.7 35 73.7 C 35.5 73.7 36 73.8 36.2 74.3 C 36.4 73.8 36.9 73.7 37.4 73.7 C 37.9 73.7 38.7 73.8 38.7 75 C 38.75 74.96 38.7 78.8 38.7 78.8 L 37.9 78.8 C 37.9 78.8 37.93 75.3 37.9 75.3 C 37.9 74.8 37.8 74.3 37.1 74.3 C 36.8 74.3 36.7 74.3 36.5 74.5 C 36.3 74.7 36.2 75.2 36.2 75.4 C 36.23 75.4 36.2 78.8 36.2 78.8 L 35.4 78.8 Z M 40.9 78.8 L 40.1 78.8 L 40.1 73.8 L 40.9 73.8 L 40.9 78.8 Z M 40.1 71.6 L 41 71.6 L 41 72.5 L 40.1 72.5 L 40.1 71.6 Z M 43.9 78.9 C 42.8 78.9 42.1 78.4 42.1 77.3 C 42.1 77.3 43 77.3 43 77.3 C 43 77.6 43.1 78.2 43.9 78.2 C 44.4 78.2 44.8 78 44.8 77.5 C 44.8 76.6 42.2 76.5 42.2 75 C 42.2 74.5 42.6 73.7 44 73.7 C 44.9 73.7 45.6 74.1 45.6 75.1 C 45.6 75.1 44.7 75.1 44.7 75.1 C 44.7 74.6 44.4 74.3 43.9 74.3 C 43.4 74.3 43.1 74.5 43.1 75 C 43.1 75.8 45.6 75.8 45.6 77.4 C 45.6 78.5 44.9 78.9 43.9 78.9 Z M 49.6 75.9 C 49.6 74.5 49.2 74.3 48.6 74.3 C 48 74.3 47.6 74.5 47.6 75.9 C 47.6 75.9 49.6 75.9 49.6 75.9 Z M 47.6 76.5 C 47.6 78 48 78.2 48.6 78.2 C 49.2 78.2 49.5 77.8 49.5 77.3 C 49.5 77.3 50.4 77.3 50.4 77.3 C 50.4 78.4 49.7 78.9 48.6 78.9 C 47.6 78.9 46.7 78.6 46.7 76.4 C 46.7 74.9 46.9 73.7 48.6 73.7 C 50.1 73.7 50.4 74.4 50.4 76.1 C 50.45 76.11 50.4 76.5 50.4 76.5 C 50.4 76.5 47.61 76.54 47.6 76.5 Z M 53.5 74.3 C 52.6 74.3 52.5 75 52.5 76.4 C 52.5 77.1 52.5 78.2 53.6 78.2 C 54.5 78.2 54.5 77.1 54.5 76.1 C 54.5 75.4 54.4 74.3 53.5 74.3 Z M 54.5 71.6 L 55.3 71.6 L 55.3 78.8 L 54.5 78.8 L 54.5 78.2 C 54.5 78.2 54.46 78.2 54.5 78.2 C 54.2 78.7 53.8 78.9 53.3 78.9 C 52.5 78.9 51.7 78.6 51.7 76.4 C 51.7 75.1 51.7 73.7 53.3 73.7 C 53.8 73.7 54.2 73.9 54.4 74.3 C 54.45 74.26 54.5 74.3 54.5 74.3 L 54.5 71.6 Z M 56.9 77.8 L 58 77.8 L 57.1 80.1 L 56.4 80.1 L 56.9 77.8 Z M 63 74.3 C 62.1 74.3 62 75 62 76.4 C 62 77.1 62 78.2 63 78.2 C 63.9 78.2 63.9 77.1 63.9 76.1 C 63.9 75.4 63.9 74.3 63 74.3 Z M 63.9 71.6 L 64.7 71.6 L 64.7 78.8 L 63.9 78.8 L 63.9 78.2 C 63.9 78.2 63.9 78.2 63.9 78.2 C 63.6 78.7 63.3 78.9 62.7 78.9 C 61.9 78.9 61.1 78.6 61.1 76.4 C 61.1 75.1 61.1 73.7 62.8 73.7 C 63.3 73.7 63.6 73.9 63.9 74.3 C 63.89 74.26 63.9 74.3 63.9 74.3 L 63.9 71.6 Z M 69.1 76 C 69.1 74.6 68.7 74.3 68 74.3 C 67.4 74.3 67 74.6 67 76 C 67 77.6 67.2 78.2 68 78.2 C 68.9 78.2 69.1 77.6 69.1 76 Z M 66.1 76.4 C 66.1 74.9 66.3 73.7 68 73.7 C 69.8 73.7 69.9 74.9 69.9 76.4 C 69.9 78.6 69.1 78.9 68 78.9 C 67 78.9 66.1 78.6 66.1 76.4 Z M 73.9 73.8 L 74.8 73.8 C 74.8 73.8 74.77 77.75 74.8 77.8 C 74.8 78.1 74.8 78.5 74.8 78.8 C 74.82 78.8 73.9 78.8 73.9 78.8 L 73.9 78.2 C 73.9 78.2 73.92 78.19 73.9 78.2 C 73.6 78.7 73.2 78.9 72.6 78.9 C 71.8 78.9 71.3 78.5 71.3 77.6 C 71.28 77.6 71.3 73.8 71.3 73.8 L 72.1 73.8 C 72.1 73.8 72.1 77.25 72.1 77.3 C 72.1 77.9 72.4 78.3 73 78.3 C 73.4 78.3 73.9 77.9 73.9 77.1 C 73.95 77.1 73.9 73.8 73.9 73.8 Z M 78.1 78.2 C 79.1 78.2 79.1 77.1 79.1 76.4 C 79.1 75 79 74.3 78.1 74.3 C 77.2 74.3 77.1 75.4 77.1 76.1 C 77.1 76.8 77 78.2 78.1 78.2 Z M 77.1 78.8 L 76.3 78.8 L 76.3 71.6 L 77.1 71.6 L 77.1 74.3 C 77.1 74.3 77.17 74.26 77.2 74.3 C 77.4 73.9 77.8 73.7 78.3 73.7 C 79.9 73.7 79.9 75.1 79.9 76.4 C 79.9 78.6 79.1 78.9 78.3 78.9 C 77.8 78.9 77.4 78.7 77.2 78.2 C 77.16 78.2 77.1 78.2 77.1 78.2 L 77.1 78.8 Z M 82 78.8 L 81.2 78.8 L 81.2 71.6 L 82 71.6 L 82 78.8 Z M 86.2 75.9 C 86.2 74.5 85.8 74.3 85.2 74.3 C 84.7 74.3 84.3 74.5 84.3 75.9 C 84.3 75.9 86.2 75.9 86.2 75.9 Z M 84.3 76.5 C 84.3 78 84.6 78.2 85.3 78.2 C 85.8 78.2 86.1 77.8 86.2 77.3 C 86.2 77.3 87.1 77.3 87.1 77.3 C 87.1 78.4 86.4 78.9 85.3 78.9 C 84.2 78.9 83.4 78.6 83.4 76.4 C 83.4 74.9 83.6 73.7 85.3 73.7 C 86.7 73.7 87.1 74.4 87.1 76.1 C 87.11 76.11 87.1 76.5 87.1 76.5 C 87.1 76.5 84.27 76.54 84.3 76.5 Z M 88.3 75.7 L 90.5 75.7 L 90.5 76.5 L 88.3 76.5 L 88.3 75.7 Z M 93.6 78.2 C 94.6 78.2 94.6 77.1 94.6 76.4 C 94.6 75 94.5 74.3 93.6 74.3 C 92.7 74.3 92.7 75.4 92.7 76.1 C 92.7 76.8 92.6 78.2 93.6 78.2 Z M 92.7 78.8 L 91.9 78.8 L 91.9 71.6 L 92.7 71.6 L 92.7 74.3 C 92.7 74.3 92.72 74.26 92.7 74.3 C 93 73.9 93.3 73.7 93.8 73.7 C 95.5 73.7 95.5 75.1 95.5 76.4 C 95.5 78.6 94.7 78.9 93.9 78.9 C 93.3 78.9 93 78.7 92.7 78.2 C 92.71 78.2 92.7 78.2 92.7 78.2 L 92.7 78.8 Z M 97.6 78.8 L 96.8 78.8 L 96.8 71.6 L 97.6 71.6 L 97.6 78.8 Z M 99.8 78.8 L 99 78.8 L 99 73.8 L 99.8 73.8 L 99.8 78.8 Z M 98.9 71.6 L 99.9 71.6 L 99.9 72.5 L 98.9 72.5 L 98.9 71.6 Z M 104 78.8 C 104 78.8 103.98 75.3 104 75.3 C 104 74.8 103.8 74.3 103.1 74.3 C 102.2 74.3 102.1 75.1 102.1 75.8 C 102.06 75.81 102.1 78.8 102.1 78.8 L 101.2 78.8 C 101.2 78.8 101.24 74.8 101.2 74.8 C 101.2 74.5 101.2 74.1 101.2 73.8 C 101.19 73.75 102.1 73.8 102.1 73.8 L 102.1 74.4 C 102.1 74.4 102.1 74.4 102.1 74.4 C 102.4 73.8 102.8 73.7 103.4 73.7 C 104.5 73.7 104.8 74.3 104.8 75.3 C 104.8 75.3 104.8 78.8 104.8 78.8 L 104 78.8 Z M 108 74.3 C 107.1 74.3 107 75 107 76.4 C 107 77.1 107 78.2 108 78.2 C 108.9 78.2 108.9 77.1 108.9 76.1 C 108.9 75.4 108.9 74.3 108 74.3 Z M 108.9 71.6 L 109.7 71.6 L 109.7 78.8 L 108.9 78.8 L 108.9 78.2 C 108.9 78.2 108.89 78.2 108.9 78.2 C 108.6 78.7 108.3 78.9 107.7 78.9 C 106.9 78.9 106.1 78.6 106.1 76.4 C 106.1 75.1 106.1 73.7 107.8 73.7 C 108.2 73.7 108.6 73.9 108.9 74.3 C 108.88 74.26 108.9 74.3 108.9 74.3 L 108.9 71.6 Z M 111.4 77.8 L 112.4 77.8 L 111.5 80.1 L 110.9 80.1 L 111.4 77.8 Z M 118.5 76.2 C 118.5 75.4 118.5 74.3 117.5 74.3 C 116.5 74.3 116.6 75.7 116.6 76.5 C 116.6 77.2 116.6 78.2 117.5 78.2 C 118.4 78.2 118.5 77.5 118.5 76.2 Z M 116.6 74.4 C 116.6 74.4 116.59 74.35 116.6 74.4 C 116.9 73.9 117.2 73.7 117.7 73.7 C 118.6 73.7 119.4 74 119.4 76.2 C 119.4 77.5 119.3 78.9 117.7 78.9 C 117.2 78.9 116.9 78.7 116.6 78.3 C 116.6 78.29 116.6 78.3 116.6 78.3 L 116.6 80.7 L 115.7 80.7 L 115.7 73.8 L 116.6 73.8 L 116.6 74.4 Z M 121.5 78.8 L 120.7 78.8 L 120.7 71.6 L 121.5 71.6 L 121.5 78.8 Z M 123.6 77.3 C 123.6 77.8 123.9 78.2 124.4 78.2 C 124.9 78.2 125.6 77.9 125.5 76.3 C 124.7 76.3 123.6 76.2 123.6 77.3 Z M 125.5 78.1 C 125.5 78.1 125.48 78.07 125.5 78.1 C 125.2 78.7 124.8 78.9 124.2 78.9 C 123.1 78.9 122.8 78.2 122.8 77.2 C 122.8 75.7 124.3 75.6 125.5 75.7 C 125.5 75 125.5 74.3 124.6 74.3 C 124.1 74.3 123.8 74.6 123.8 75.2 C 123.8 75.2 122.9 75.2 122.9 75.2 C 123 74 123.6 73.7 124.7 73.7 C 126 73.7 126.3 74.3 126.3 75.2 C 126.3 75.2 126.3 77.6 126.3 77.6 C 126.3 78 126.3 78.4 126.4 78.8 C 126.4 78.8 125.5 78.8 125.5 78.8 L 125.5 78.1 Z M 130.5 75.4 C 130.6 74.5 130.1 74.3 129.8 74.3 C 129.2 74.3 128.8 74.6 128.8 76 C 128.8 77.6 129 78.2 129.8 78.2 C 130 78.2 130.6 78 130.6 77.1 C 130.6 77.1 131.4 77.1 131.4 77.1 C 131.5 78.5 130.4 78.9 129.8 78.9 C 128.8 78.9 127.9 78.6 127.9 76.4 C 127.9 74.9 128.1 73.7 129.8 73.7 C 130.8 73.7 131.4 74.2 131.4 75.4 C 131.4 75.4 130.5 75.4 130.5 75.4 Z M 135.7 75.9 C 135.7 74.5 135.3 74.3 134.7 74.3 C 134.1 74.3 133.7 74.5 133.7 75.9 C 133.7 75.9 135.7 75.9 135.7 75.9 Z M 133.7 76.5 C 133.7 78 134.1 78.2 134.7 78.2 C 135.3 78.2 135.6 77.8 135.6 77.3 C 135.6 77.3 136.5 77.3 136.5 77.3 C 136.5 78.4 135.8 78.9 134.7 78.9 C 133.7 78.9 132.8 78.6 132.8 76.4 C 132.8 74.9 133 73.7 134.7 73.7 C 136.2 73.7 136.5 74.4 136.5 76.1 C 136.54 76.11 136.5 76.5 136.5 76.5 C 136.5 76.5 133.7 76.54 133.7 76.5 Z M 139.7 78.2 C 140.7 78.2 140.7 77.1 140.7 76.4 C 140.7 75 140.6 74.3 139.7 74.3 C 138.8 74.3 138.8 75.4 138.8 76.1 C 138.8 76.8 138.7 78.2 139.7 78.2 Z M 138.8 78.8 L 138 78.8 L 138 71.6 L 138.8 71.6 L 138.8 74.3 C 138.8 74.3 138.82 74.26 138.8 74.3 C 139.1 73.9 139.4 73.7 139.9 73.7 C 141.6 73.7 141.6 75.1 141.6 76.4 C 141.6 78.6 140.8 78.9 140 78.9 C 139.4 78.9 139.1 78.7 138.8 78.2 C 138.81 78.2 138.8 78.2 138.8 78.2 L 138.8 78.8 Z M 145.7 76 C 145.7 74.6 145.3 74.3 144.7 74.3 C 144 74.3 143.6 74.6 143.6 76 C 143.6 77.6 143.8 78.2 144.7 78.2 C 145.5 78.2 145.7 77.6 145.7 76 Z M 142.8 76.4 C 142.8 74.9 142.9 73.7 144.7 73.7 C 146.4 73.7 146.6 74.9 146.6 76.4 C 146.6 78.6 145.7 78.9 144.7 78.9 C 143.6 78.9 142.8 78.6 142.8 76.4 Z M 147.7 75.7 L 149.9 75.7 L 149.9 76.5 L 147.7 76.5 L 147.7 75.7 Z M 153.9 75.4 C 153.9 74.5 153.5 74.3 153.2 74.3 C 152.5 74.3 152.1 74.6 152.1 76 C 152.1 77.6 152.3 78.2 153.2 78.2 C 153.4 78.2 153.9 78 153.9 77.1 C 153.9 77.1 154.8 77.1 154.8 77.1 C 154.8 78.5 153.7 78.9 153.2 78.9 C 152.1 78.9 151.2 78.6 151.2 76.4 C 151.2 74.9 151.4 73.7 153.2 73.7 C 154.2 73.7 154.8 74.2 154.7 75.4 C 154.7 75.4 153.9 75.4 153.9 75.4 Z M 159.1 76 C 159.1 74.6 158.6 74.3 158 74.3 C 157.4 74.3 156.9 74.6 156.9 76 C 156.9 77.6 157.2 78.2 158 78.2 C 158.9 78.2 159.1 77.6 159.1 76 Z M 156.1 76.4 C 156.1 74.9 156.3 73.7 158 73.7 C 159.8 73.7 159.9 74.9 159.9 76.4 C 159.9 78.6 159.1 78.9 158 78.9 C 156.9 78.9 156.1 78.6 156.1 76.4 Z M 164 78.8 C 164 78.8 163.97 75.3 164 75.3 C 164 74.8 163.8 74.3 163.1 74.3 C 162.2 74.3 162 75.1 162 75.8 C 162.05 75.81 162 78.8 162 78.8 L 161.2 78.8 C 161.2 78.8 161.23 74.8 161.2 74.8 C 161.2 74.5 161.2 74.1 161.2 73.8 C 161.18 73.75 162 73.8 162 73.8 L 162 74.4 C 162 74.4 162.09 74.4 162.1 74.4 C 162.4 73.8 162.8 73.7 163.4 73.7 C 164.5 73.7 164.8 74.3 164.8 75.3 C 164.79 75.3 164.8 78.8 164.8 78.8 L 164 78.8 Z M 166.3 73.8 L 166.3 72.8 L 167.1 72.4 L 167.1 73.8 L 168.2 73.8 L 168.2 74.4 L 167.1 74.4 C 167.1 74.4 167.14 77.46 167.1 77.5 C 167.1 77.8 167.1 78.2 167.9 78.2 C 167.9 78.2 168.1 78.2 168.3 78.2 C 168.3 78.2 168.3 78.8 168.3 78.8 C 168 78.8 167.7 78.9 167.4 78.9 C 166.7 78.9 166.3 78.5 166.3 78 C 166.32 77.96 166.3 74.4 166.3 74.4 L 165.5 74.4 L 165.5 73.8 L 166.3 73.8 Z M 169.9 74.5 C 169.9 74.5 169.88 74.51 169.9 74.5 C 170.2 73.7 170.6 73.7 171.4 73.7 C 171.4 73.7 171.4 74.5 171.4 74.5 C 171.4 74.5 171.3 74.5 171.2 74.5 C 171.1 74.5 171.1 74.5 171 74.5 C 170.1 74.5 169.9 75.1 169.9 75.8 C 169.86 75.82 169.9 78.8 169.9 78.8 L 169 78.8 L 169 73.8 L 169.9 73.8 L 169.9 74.5 Z M 175.2 76 C 175.2 74.6 174.7 74.3 174.1 74.3 C 173.5 74.3 173.1 74.6 173.1 76 C 173.1 77.6 173.3 78.2 174.1 78.2 C 175 78.2 175.2 77.6 175.2 76 Z M 172.2 76.4 C 172.2 74.9 172.4 73.7 174.1 73.7 C 175.9 73.7 176 74.9 176 76.4 C 176 78.6 175.2 78.9 174.1 78.9 C 173 78.9 172.2 78.6 172.2 76.4 Z M 178.1 78.8 L 177.3 78.8 L 177.3 71.6 L 178.1 71.6 L 178.1 78.8 Z M 180.4 78.8 L 179.5 78.8 L 179.5 71.6 L 180.4 71.6 L 180.4 78.8 Z M 184.5 75.9 C 184.5 74.5 184.1 74.3 183.5 74.3 C 183 74.3 182.6 74.5 182.6 75.9 C 182.6 75.9 184.5 75.9 184.5 75.9 Z M 182.6 76.5 C 182.6 78 183 78.2 183.6 78.2 C 184.2 78.2 184.4 77.8 184.5 77.3 C 184.5 77.3 185.4 77.3 185.4 77.3 C 185.4 78.4 184.7 78.9 183.6 78.9 C 182.5 78.9 181.7 78.6 181.7 76.4 C 181.7 74.9 181.9 73.7 183.6 73.7 C 185.1 73.7 185.4 74.4 185.4 76.1 C 185.42 76.11 185.4 76.5 185.4 76.5 C 185.4 76.5 182.58 76.54 182.6 76.5 Z M 188.5 74.3 C 187.6 74.3 187.5 75 187.5 76.4 C 187.5 77.1 187.5 78.2 188.5 78.2 C 189.4 78.2 189.4 77.1 189.4 76.1 C 189.4 75.4 189.4 74.3 188.5 74.3 Z M 189.4 71.6 L 190.3 71.6 L 190.3 78.8 L 189.4 78.8 L 189.4 78.2 C 189.4 78.2 189.43 78.2 189.4 78.2 C 189.1 78.7 188.8 78.9 188.3 78.9 C 187.5 78.9 186.6 78.6 186.6 76.4 C 186.6 75.1 186.7 73.7 188.3 73.7 C 188.8 73.7 189.1 73.9 189.4 74.3 C 189.42 74.26 189.4 74.3 189.4 74.3 L 189.4 71.6 Z M 191.9 77.8 L 192.9 77.8 L 192 80.1 L 191.4 80.1 L 191.9 77.8 Z M 199.1 76.2 C 199.1 75.4 199.1 74.3 198 74.3 C 197 74.3 197.1 75.7 197.1 76.5 C 197.1 77.2 197.1 78.2 198.1 78.2 C 198.9 78.2 199.1 77.5 199.1 76.2 Z M 197.1 74.4 C 197.1 74.4 197.13 74.35 197.1 74.4 C 197.4 73.9 197.8 73.7 198.3 73.7 C 199.1 73.7 199.9 74 199.9 76.2 C 199.9 77.5 199.9 78.9 198.2 78.9 C 197.8 78.9 197.4 78.7 197.1 78.3 C 197.14 78.29 197.1 78.3 197.1 78.3 L 197.1 80.7 L 196.3 80.7 L 196.3 73.8 L 197.1 73.8 L 197.1 74.4 Z M 204 78.8 C 204 78.8 203.96 75.38 204 75.4 C 204 74.8 203.8 74.3 203.1 74.3 C 202.2 74.3 202 75 202 75.8 C 202.03 75.83 202 78.8 202 78.8 L 201.2 78.8 L 201.2 71.6 L 202 71.6 L 202 74.4 C 202 74.4 202.07 74.4 202.1 74.4 C 202.4 73.8 202.8 73.7 203.4 73.7 C 204.3 73.7 204.8 74.1 204.8 75.2 C 204.78 75.22 204.8 78.8 204.8 78.8 L 204 78.8 Z M 207 77.3 C 207 77.8 207.2 78.2 207.8 78.2 C 208.3 78.2 208.9 77.9 208.8 76.3 C 208 76.3 207 76.2 207 77.3 Z M 208.8 78.1 C 208.8 78.1 208.8 78.07 208.8 78.1 C 208.5 78.7 208.2 78.9 207.5 78.9 C 206.5 78.9 206.1 78.2 206.1 77.2 C 206.1 75.7 207.6 75.6 208.8 75.7 C 208.8 75 208.8 74.3 207.9 74.3 C 207.4 74.3 207.1 74.6 207.2 75.2 C 207.2 75.2 206.3 75.2 206.3 75.2 C 206.3 74 206.9 73.7 208 73.7 C 209.3 73.7 209.6 74.3 209.6 75.2 C 209.6 75.2 209.6 77.6 209.6 77.6 C 209.6 78 209.7 78.4 209.7 78.8 C 209.72 78.8 208.8 78.8 208.8 78.8 L 208.8 78.1 Z M 212.7 78.9 C 211.6 78.9 210.9 78.4 211 77.3 C 211 77.3 211.9 77.3 211.9 77.3 C 211.9 77.6 211.9 78.2 212.7 78.2 C 213.2 78.2 213.6 78 213.6 77.5 C 213.6 76.6 211.1 76.5 211.1 75 C 211.1 74.5 211.4 73.7 212.8 73.7 C 213.7 73.7 214.5 74.1 214.4 75.1 C 214.4 75.1 213.5 75.1 213.5 75.1 C 213.5 74.6 213.2 74.3 212.7 74.3 C 212.3 74.3 211.9 74.5 211.9 75 C 211.9 75.8 214.5 75.8 214.5 77.4 C 214.5 78.5 213.7 78.9 212.7 78.9 Z M 218.4 75.9 C 218.4 74.5 218 74.3 217.4 74.3 C 216.9 74.3 216.5 74.5 216.5 75.9 C 216.5 75.9 218.4 75.9 218.4 75.9 Z M 216.5 76.5 C 216.5 78 216.8 78.2 217.5 78.2 C 218 78.2 218.3 77.8 218.4 77.3 C 218.4 77.3 219.3 77.3 219.3 77.3 C 219.2 78.4 218.6 78.9 217.5 78.9 C 216.4 78.9 215.6 78.6 215.6 76.4 C 215.6 74.9 215.7 73.7 217.5 73.7 C 218.9 73.7 219.3 74.4 219.3 76.1 C 219.3 76.11 219.3 76.5 219.3 76.5 C 219.3 76.5 216.46 76.54 216.5 76.5 Z M 223.8 74.8 C 224.7 74.8 225.3 74.5 225.3 73.6 C 225.3 73 225 72.5 224.3 72.5 C 223.5 72.5 223.4 73.1 223.4 73.7 C 223.4 73.7 222.5 73.7 222.5 73.7 C 222.4 72.5 223 71.8 224.3 71.8 C 225.5 71.8 226.2 72.3 226.2 73.6 C 226.2 74.9 225.2 75.1 224.8 75.2 C 224.8 75.2 224.8 75.2 224.8 75.2 C 225.9 75.3 226.3 75.9 226.3 77 C 226.3 78.3 225.5 79 224.2 79 C 222.3 79 222.4 77.3 222.4 76.9 C 222.4 76.9 223.3 76.9 223.3 76.9 C 223.3 77.6 223.4 78.2 224.3 78.2 C 225.1 78.2 225.3 77.7 225.3 76.9 C 225.3 75.8 224.9 75.6 223.8 75.6 C 223.8 75.6 223.8 74.8 223.8 74.8 Z M 229.6 73.8 L 229.6 72.8 L 230.4 72.4 L 230.4 73.8 L 231.5 73.8 L 231.5 74.4 L 230.4 74.4 C 230.4 74.4 230.45 77.46 230.4 77.5 C 230.4 77.8 230.4 78.2 231.2 78.2 C 231.3 78.2 231.4 78.2 231.6 78.2 C 231.6 78.2 231.6 78.8 231.6 78.8 C 231.3 78.8 231 78.9 230.8 78.9 C 230 78.9 229.6 78.5 229.6 78 C 229.63 77.96 229.6 74.4 229.6 74.4 L 228.8 74.4 L 228.8 73.8 L 229.6 73.8 Z M 233.2 74.5 C 233.2 74.5 233.19 74.51 233.2 74.5 C 233.5 73.7 233.9 73.7 234.7 73.7 C 234.7 73.7 234.7 74.5 234.7 74.5 C 234.7 74.5 234.6 74.5 234.5 74.5 C 234.5 74.5 234.4 74.5 234.3 74.5 C 233.4 74.5 233.2 75.1 233.2 75.8 C 233.17 75.82 233.2 78.8 233.2 78.8 L 232.3 78.8 L 232.3 73.8 L 233.2 73.8 L 233.2 74.5 Z M 236.4 78.8 L 235.6 78.8 L 235.6 73.8 L 236.4 73.8 L 236.4 78.8 Z M 235.6 71.6 L 236.5 71.6 L 236.5 72.5 L 235.6 72.5 L 235.6 71.6 Z M 238.6 77.3 C 238.6 77.8 238.9 78.2 239.4 78.2 C 239.9 78.2 240.5 77.9 240.4 76.3 C 239.7 76.3 238.6 76.2 238.6 77.3 Z M 240.5 78.1 C 240.5 78.1 240.45 78.07 240.4 78.1 C 240.2 78.7 239.8 78.9 239.2 78.9 C 238.1 78.9 237.8 78.2 237.8 77.2 C 237.8 75.7 239.3 75.6 240.4 75.7 C 240.5 75 240.5 74.3 239.6 74.3 C 239 74.3 238.8 74.6 238.8 75.2 C 238.8 75.2 237.9 75.2 237.9 75.2 C 238 74 238.6 73.7 239.6 73.7 C 240.9 73.7 241.3 74.3 241.3 75.2 C 241.3 75.2 241.3 77.6 241.3 77.6 C 241.3 78 241.3 78.4 241.4 78.8 C 241.37 78.8 240.5 78.8 240.5 78.8 L 240.5 78.1 Z M 243.7 78.8 L 242.8 78.8 L 242.8 71.6 L 243.7 71.6 L 243.7 78.8 Z M 245.9 78.8 L 245 78.8 L 245 77.8 L 245.9 77.8 L 245.9 78.8 Z M 249.6 78.8 L 249.6 71.6 L 250.5 71.6 L 250.5 78 L 253.2 78 L 253.2 78.8 L 249.6 78.8 Z M 254.7 77.3 C 254.7 77.8 255 78.2 255.5 78.2 C 256 78.2 256.6 77.9 256.5 76.3 C 255.8 76.3 254.7 76.2 254.7 77.3 Z M 256.6 78.1 C 256.6 78.1 256.55 78.07 256.5 78.1 C 256.3 78.7 255.9 78.9 255.3 78.9 C 254.2 78.9 253.9 78.2 253.9 77.2 C 253.9 75.7 255.4 75.6 256.5 75.7 C 256.6 75 256.6 74.3 255.7 74.3 C 255.1 74.3 254.9 74.6 254.9 75.2 C 254.9 75.2 254 75.2 254 75.2 C 254.1 74 254.7 73.7 255.7 73.7 C 257 73.7 257.4 74.3 257.4 75.2 C 257.4 75.2 257.4 77.6 257.4 77.6 C 257.4 78 257.4 78.4 257.5 78.8 C 257.46 78.8 256.6 78.8 256.6 78.8 L 256.6 78.1 Z M 261.7 78.8 C 261.7 78.8 261.71 75.3 261.7 75.3 C 261.7 74.8 261.5 74.3 260.8 74.3 C 259.9 74.3 259.8 75.1 259.8 75.8 C 259.78 75.81 259.8 78.8 259.8 78.8 L 259 78.8 C 259 78.8 258.97 74.8 259 74.8 C 259 74.5 258.9 74.1 258.9 73.8 C 258.92 73.75 259.8 73.8 259.8 73.8 L 259.8 74.4 C 259.8 74.4 259.82 74.4 259.8 74.4 C 260.1 73.8 260.5 73.7 261.2 73.7 C 262.3 73.7 262.5 74.3 262.5 75.3 C 262.52 75.3 262.5 78.8 262.5 78.8 L 261.7 78.8 Z M 266.6 75.4 C 266.6 74.5 266.2 74.3 265.9 74.3 C 265.3 74.3 264.8 74.6 264.8 76 C 264.8 77.6 265.1 78.2 265.9 78.2 C 266.1 78.2 266.7 78 266.6 77.1 C 266.6 77.1 267.5 77.1 267.5 77.1 C 267.5 78.5 266.5 78.9 265.9 78.9 C 264.8 78.9 264 78.6 264 76.4 C 264 74.9 264.2 73.7 265.9 73.7 C 266.9 73.7 267.5 74.2 267.5 75.4 C 267.5 75.4 266.6 75.4 266.6 75.4 Z M 271.7 75.9 C 271.7 74.5 271.3 74.3 270.7 74.3 C 270.2 74.3 269.8 74.5 269.8 75.9 C 269.8 75.9 271.7 75.9 271.7 75.9 Z M 269.8 76.5 C 269.8 78 270.1 78.2 270.8 78.2 C 271.3 78.2 271.6 77.8 271.7 77.3 C 271.7 77.3 272.6 77.3 272.6 77.3 C 272.6 78.4 271.9 78.9 270.8 78.9 C 269.7 78.9 268.9 78.6 268.9 76.4 C 268.9 74.9 269.1 73.7 270.8 73.7 C 272.2 73.7 272.6 74.4 272.6 76.1 C 272.6 76.11 272.6 76.5 272.6 76.5 C 272.6 76.5 269.76 76.54 269.8 76.5 Z M 274.1 73.8 L 274.1 72.8 L 274.9 72.4 L 274.9 73.8 L 276 73.8 L 276 74.4 L 274.9 74.4 C 274.9 74.4 274.87 77.46 274.9 77.5 C 274.9 77.8 274.9 78.2 275.6 78.2 C 275.7 78.2 275.8 78.2 276 78.2 C 276 78.2 276 78.8 276 78.8 C 275.7 78.8 275.5 78.9 275.2 78.9 C 274.4 78.9 274.1 78.5 274.1 78 C 274.06 77.96 274.1 74.4 274.1 74.4 L 273.2 74.4 L 273.2 73.8 L 274.1 73.8 Z M 277.6 78.8 L 276.7 78.8 L 276.7 77.8 L 277.6 77.8 L 277.6 78.8 Z M 280.9 78.8 C 280.9 78.8 280.9 78 280.9 78 C 282.9 75.2 283.5 74.6 283.5 73.4 C 283.5 72.9 283.3 72.5 282.7 72.5 C 282 72.5 281.8 73.1 281.9 73.7 C 281.9 73.7 280.9 73.7 280.9 73.7 C 280.8 72.5 281.4 71.8 282.6 71.8 C 283.8 71.8 284.4 72.3 284.4 73.6 C 284.4 75.1 283.7 75.6 281.9 78 C 281.87 78 284.6 78 284.6 78 L 284.6 78.8 L 280.9 78.8 Z M 289 75.4 C 289 77.2 289 79 287.1 79 C 285.2 79 285.3 77.2 285.3 75.4 C 285.3 73.5 285.2 71.8 287.1 71.8 C 289 71.8 289 73.5 289 75.4 Z M 286.2 75.5 C 286.2 76.7 286.1 78.2 287.1 78.2 C 288.1 78.2 288.1 76.7 288.1 75.5 C 288.1 73.7 288.1 72.5 287.1 72.5 C 286.2 72.5 286.2 73.7 286.2 75.5 Z M 289.8 78.8 C 289.8 78.8 289.78 78 289.8 78 C 291.8 75.2 292.4 74.6 292.4 73.4 C 292.4 72.9 292.1 72.5 291.5 72.5 C 290.9 72.5 290.7 73.1 290.7 73.7 C 290.7 73.7 289.8 73.7 289.8 73.7 C 289.7 72.5 290.3 71.8 291.5 71.8 C 292.7 71.8 293.3 72.3 293.3 73.6 C 293.3 75.1 292.5 75.6 290.8 78 C 290.75 78 293.5 78 293.5 78 L 293.5 78.8 L 289.8 78.8 Z M 295.5 74.8 C 296.3 74.8 296.9 74.5 296.9 73.6 C 296.9 73 296.6 72.5 295.9 72.5 C 295.2 72.5 295.1 73.1 295.1 73.7 C 295.1 73.7 294.1 73.7 294.1 73.7 C 294.1 72.5 294.6 71.8 295.9 71.8 C 297.1 71.8 297.8 72.3 297.8 73.6 C 297.8 74.9 296.8 75.1 296.4 75.2 C 296.4 75.2 296.4 75.2 296.4 75.2 C 297.5 75.3 297.9 75.9 297.9 77 C 297.9 78.3 297.2 79 295.8 79 C 293.9 79 294 77.3 294 76.9 C 294 76.9 295 76.9 295 76.9 C 295 77.6 295.1 78.2 295.9 78.2 C 296.7 78.2 297 77.7 297 76.9 C 297 75.8 296.5 75.6 295.5 75.6 C 295.5 75.6 295.5 74.8 295.5 74.8 Z " stroke="none" fill="#555555"/>  </g>  <g id="Polygon198034">    <path d="M 9.8 61.8 C 9.8 61.8 9.75 60.77 9.8 60.8 C 9.8 59.8 10.5 59.6 11.2 59.6 C 11.4 59.6 11.5 59.6 11.6 59.6 C 11.6 59.6 11.6 60.2 11.6 60.2 C 10.7 60.1 10.6 60.5 10.6 60.9 C 10.57 60.89 10.6 61.8 10.6 61.8 L 11.6 61.8 L 11.6 62.4 L 10.6 62.4 L 10.6 66.8 L 9.8 66.8 L 9.8 62.4 L 9 62.4 L 9 61.8 L 9.8 61.8 Z M 15.2 64 C 15.2 62.6 14.8 62.3 14.2 62.3 C 13.5 62.3 13.1 62.6 13.1 64 C 13.1 65.6 13.3 66.2 14.2 66.2 C 15 66.2 15.2 65.6 15.2 64 Z M 12.2 64.4 C 12.2 62.9 12.4 61.7 14.2 61.7 C 15.9 61.7 16.1 62.9 16.1 64.4 C 16.1 66.6 15.2 66.9 14.2 66.9 C 13.1 66.9 12.2 66.6 12.2 64.4 Z M 18.2 62.5 C 18.2 62.5 18.25 62.51 18.2 62.5 C 18.6 61.7 19 61.7 19.8 61.7 C 19.8 61.7 19.8 62.5 19.8 62.5 C 19.7 62.5 19.7 62.5 19.6 62.5 C 19.5 62.5 19.4 62.5 19.4 62.5 C 18.5 62.5 18.2 63.1 18.2 63.8 C 18.23 63.82 18.2 66.8 18.2 66.8 L 17.4 66.8 L 17.4 61.8 L 18.2 61.8 L 18.2 62.5 Z M 25.7 66.8 C 25.7 66.8 25.67 63.38 25.7 63.4 C 25.7 62.8 25.5 62.3 24.8 62.3 C 23.9 62.3 23.7 63 23.7 63.8 C 23.74 63.83 23.7 66.8 23.7 66.8 L 22.9 66.8 L 22.9 59.6 L 23.7 59.6 L 23.7 62.4 C 23.7 62.4 23.78 62.4 23.8 62.4 C 24.1 61.8 24.5 61.7 25.1 61.7 C 26 61.7 26.5 62.1 26.5 63.2 C 26.49 63.22 26.5 66.8 26.5 66.8 L 25.7 66.8 Z M 30.7 63.9 C 30.7 62.5 30.3 62.3 29.7 62.3 C 29.2 62.3 28.7 62.5 28.7 63.9 C 28.7 63.9 30.7 63.9 30.7 63.9 Z M 28.7 64.5 C 28.7 66 29.1 66.2 29.7 66.2 C 30.3 66.2 30.6 65.8 30.6 65.3 C 30.6 65.3 31.5 65.3 31.5 65.3 C 31.5 66.4 30.8 66.9 29.8 66.9 C 28.7 66.9 27.8 66.6 27.8 64.4 C 27.8 62.9 28 61.7 29.8 61.7 C 31.2 61.7 31.6 62.4 31.6 64.1 C 31.57 64.11 31.6 64.5 31.6 64.5 C 31.6 64.5 28.73 64.54 28.7 64.5 Z M 33.8 62.5 C 33.8 62.5 33.8 62.51 33.8 62.5 C 34.1 61.7 34.6 61.7 35.4 61.7 C 35.4 61.7 35.4 62.5 35.4 62.5 C 35.3 62.5 35.2 62.5 35.1 62.5 C 35.1 62.5 35 62.5 34.9 62.5 C 34 62.5 33.8 63.1 33.8 63.8 C 33.78 63.82 33.8 66.8 33.8 66.8 L 33 66.8 L 33 61.8 L 33.8 61.8 L 33.8 62.5 Z M 39 63.9 C 39 62.5 38.6 62.3 38 62.3 C 37.5 62.3 37.1 62.5 37.1 63.9 C 37.1 63.9 39 63.9 39 63.9 Z M 37.1 64.5 C 37.1 66 37.4 66.2 38.1 66.2 C 38.6 66.2 38.9 65.8 39 65.3 C 39 65.3 39.9 65.3 39.9 65.3 C 39.8 66.4 39.2 66.9 38.1 66.9 C 37 66.9 36.2 66.6 36.2 64.4 C 36.2 62.9 36.3 61.7 38.1 61.7 C 39.5 61.7 39.9 62.4 39.9 64.1 C 39.9 64.11 39.9 64.5 39.9 64.5 C 39.9 64.5 37.06 64.54 37.1 64.5 Z M 43 62.3 C 42.1 62.3 42 63 42 64.4 C 42 65.1 42 66.2 43 66.2 C 43.9 66.2 43.9 65.1 43.9 64.1 C 43.9 63.4 43.9 62.3 43 62.3 Z M 43.9 59.6 L 44.7 59.6 L 44.7 66.8 L 43.9 66.8 L 43.9 66.2 C 43.9 66.2 43.91 66.2 43.9 66.2 C 43.6 66.7 43.3 66.9 42.7 66.9 C 41.9 66.9 41.1 66.6 41.1 64.4 C 41.1 63.1 41.2 61.7 42.8 61.7 C 43.3 61.7 43.6 61.9 43.9 62.3 C 43.9 62.26 43.9 62.3 43.9 62.3 L 43.9 59.6 Z M 47.1 66.8 L 46.2 66.8 L 46.2 61.8 L 47.1 61.8 L 47.1 66.8 Z M 46.2 59.6 L 47.1 59.6 L 47.1 60.5 L 46.2 60.5 L 46.2 59.6 Z M 48.6 61.8 L 48.6 60.8 L 49.4 60.4 L 49.4 61.8 L 50.5 61.8 L 50.5 62.4 L 49.4 62.4 C 49.4 62.4 49.39 65.46 49.4 65.5 C 49.4 65.8 49.4 66.2 50.1 66.2 C 50.2 66.2 50.3 66.2 50.5 66.2 C 50.5 66.2 50.5 66.8 50.5 66.8 C 50.2 66.8 50 66.9 49.7 66.9 C 48.9 66.9 48.6 66.5 48.6 66 C 48.57 65.96 48.6 62.4 48.6 62.4 L 47.7 62.4 L 47.7 61.8 L 48.6 61.8 Z M 52 65.3 C 52 65.8 52.2 66.2 52.8 66.2 C 53.3 66.2 53.9 65.9 53.8 64.3 C 53.1 64.3 52 64.2 52 65.3 Z M 53.9 66.1 C 53.9 66.1 53.84 66.07 53.8 66.1 C 53.6 66.7 53.2 66.9 52.6 66.9 C 51.5 66.9 51.2 66.2 51.2 65.2 C 51.2 63.7 52.7 63.6 53.8 63.7 C 53.9 63 53.9 62.3 53 62.3 C 52.4 62.3 52.1 62.6 52.2 63.2 C 52.2 63.2 51.3 63.2 51.3 63.2 C 51.3 62 51.9 61.7 53 61.7 C 54.3 61.7 54.7 62.3 54.7 63.2 C 54.7 63.2 54.7 65.6 54.7 65.6 C 54.7 66 54.7 66.4 54.8 66.8 C 54.76 66.8 53.9 66.8 53.9 66.8 L 53.9 66.1 Z M 57.1 62.5 C 57.1 62.5 57.13 62.51 57.1 62.5 C 57.5 61.7 57.9 61.7 58.7 61.7 C 58.7 61.7 58.7 62.5 58.7 62.5 C 58.6 62.5 58.5 62.5 58.5 62.5 C 58.4 62.5 58.3 62.5 58.2 62.5 C 57.3 62.5 57.1 63.1 57.1 63.8 C 57.11 63.82 57.1 66.8 57.1 66.8 L 56.3 66.8 L 56.3 61.8 L 57.1 61.8 L 57.1 62.5 Z M 61.1 65.9 L 61.1 65.9 L 62.3 61.8 L 63.2 61.8 L 60.9 68.7 L 60.1 68.7 L 60.7 66.8 L 58.9 61.8 L 59.9 61.8 L 61.1 65.9 Z M 67 65.3 C 67 65.8 67.2 66.2 67.8 66.2 C 68.3 66.2 68.9 65.9 68.8 64.3 C 68 64.3 67 64.2 67 65.3 Z M 68.8 66.1 C 68.8 66.1 68.83 66.07 68.8 66.1 C 68.6 66.7 68.2 66.9 67.6 66.9 C 66.5 66.9 66.2 66.2 66.2 65.2 C 66.2 63.7 67.7 63.6 68.8 63.7 C 68.8 63 68.9 62.3 68 62.3 C 67.4 62.3 67.1 62.6 67.2 63.2 C 67.2 63.2 66.3 63.2 66.3 63.2 C 66.3 62 66.9 61.7 68 61.7 C 69.3 61.7 69.6 62.3 69.6 63.2 C 69.6 63.2 69.6 65.6 69.6 65.6 C 69.6 66 69.7 66.4 69.7 66.8 C 69.75 66.8 68.8 66.8 68.8 66.8 L 68.8 66.1 Z M 74 66.8 C 74 66.8 73.99 63.3 74 63.3 C 74 62.8 73.8 62.3 73.1 62.3 C 72.2 62.3 72.1 63.1 72.1 63.8 C 72.07 63.81 72.1 66.8 72.1 66.8 L 71.2 66.8 C 71.2 66.8 71.25 62.8 71.2 62.8 C 71.2 62.5 71.2 62.1 71.2 61.8 C 71.2 61.75 72.1 61.8 72.1 61.8 L 72.1 62.4 C 72.1 62.4 72.11 62.4 72.1 62.4 C 72.4 61.8 72.8 61.7 73.5 61.7 C 74.5 61.7 74.8 62.3 74.8 63.3 C 74.81 63.3 74.8 66.8 74.8 66.8 L 74 66.8 Z M 78 62.3 C 77 62.3 77 63.5 77 64.1 C 77 65.7 77.4 66.1 78 66.1 C 79 66.1 78.9 65 78.9 64.3 C 78.9 63.5 79 62.3 78 62.3 Z M 78.9 61.8 L 79.7 61.8 C 79.7 61.8 79.74 67.31 79.7 67.3 C 79.7 68.4 79 68.7 77.9 68.7 C 77 68.7 76.3 68.3 76.3 67.4 C 76.3 67.4 77.3 67.4 77.3 67.4 C 77.3 67.8 77.6 68.1 78 68.1 C 78.6 68.1 78.9 67.7 78.9 67.2 C 78.92 67.22 78.9 66.2 78.9 66.2 C 78.9 66.2 78.89 66.17 78.9 66.2 C 78.7 66.6 78.2 66.8 77.8 66.8 C 76.4 66.8 76.1 65.6 76.1 64.1 C 76.1 61.8 77.3 61.7 77.7 61.7 C 78.2 61.7 78.7 61.9 78.9 62.4 C 78.9 62.37 78.9 62.4 78.9 62.4 L 78.9 61.8 Z M 82 66.8 L 81.2 66.8 L 81.2 61.8 L 82 61.8 L 82 66.8 Z M 81.2 59.6 L 82.1 59.6 L 82.1 60.5 L 81.2 60.5 L 81.2 59.6 Z M 86.3 64 C 86.3 62.6 85.9 62.3 85.2 62.3 C 84.6 62.3 84.2 62.6 84.2 64 C 84.2 65.6 84.4 66.2 85.2 66.2 C 86.1 66.2 86.3 65.6 86.3 64 Z M 83.3 64.4 C 83.3 62.9 83.5 61.7 85.2 61.7 C 87 61.7 87.2 62.9 87.2 64.4 C 87.2 66.6 86.3 66.9 85.2 66.9 C 84.2 66.9 83.3 66.6 83.3 64.4 Z M 91.2 63.9 C 91.2 62.5 90.8 62.3 90.2 62.3 C 89.7 62.3 89.3 62.5 89.3 63.9 C 89.3 63.9 91.2 63.9 91.2 63.9 Z M 89.3 64.5 C 89.3 66 89.6 66.2 90.3 66.2 C 90.8 66.2 91.1 65.8 91.2 65.3 C 91.2 65.3 92.1 65.3 92.1 65.3 C 92.1 66.4 91.4 66.9 90.3 66.9 C 89.2 66.9 88.4 66.6 88.4 64.4 C 88.4 62.9 88.6 61.7 90.3 61.7 C 91.7 61.7 92.1 62.4 92.1 64.1 C 92.11 64.11 92.1 64.5 92.1 64.5 C 92.1 64.5 89.27 64.54 89.3 64.5 Z M 95.2 62.3 C 94.3 62.3 94.2 63 94.2 64.4 C 94.2 65.1 94.2 66.2 95.2 66.2 C 96.1 66.2 96.1 65.1 96.1 64.1 C 96.1 63.4 96.1 62.3 95.2 62.3 Z M 96.1 59.6 L 97 59.6 L 97 66.8 L 96.1 66.8 L 96.1 66.2 C 96.1 66.2 96.12 66.2 96.1 66.2 C 95.8 66.7 95.5 66.9 95 66.9 C 94.1 66.9 93.3 66.6 93.3 64.4 C 93.3 63.1 93.4 61.7 95 61.7 C 95.5 61.7 95.8 61.9 96.1 62.3 C 96.11 62.26 96.1 62.3 96.1 62.3 L 96.1 59.6 Z M 101.2 63.9 C 101.2 62.5 100.8 62.3 100.2 62.3 C 99.7 62.3 99.3 62.5 99.3 63.9 C 99.3 63.9 101.2 63.9 101.2 63.9 Z M 99.3 64.5 C 99.3 66 99.6 66.2 100.3 66.2 C 100.8 66.2 101.1 65.8 101.2 65.3 C 101.2 65.3 102.1 65.3 102.1 65.3 C 102.1 66.4 101.4 66.9 100.3 66.9 C 99.2 66.9 98.4 66.6 98.4 64.4 C 98.4 62.9 98.6 61.7 100.3 61.7 C 101.7 61.7 102.1 62.4 102.1 64.1 C 102.11 64.11 102.1 64.5 102.1 64.5 C 102.1 64.5 99.27 64.54 99.3 64.5 Z M 105.9 66.8 C 105.9 66.8 105.95 63.3 105.9 63.3 C 105.9 62.8 105.8 62.3 105.1 62.3 C 104.9 62.3 104.6 62.5 104.4 62.7 C 104.3 62.9 104.2 63.2 104.2 63.4 C 104.25 63.4 104.2 66.8 104.2 66.8 L 103.4 66.8 C 103.4 66.8 103.43 62.8 103.4 62.8 C 103.4 62.5 103.4 62.1 103.4 61.8 C 103.38 61.75 104.2 61.8 104.2 61.8 L 104.2 62.4 C 104.2 62.4 104.27 62.38 104.3 62.4 C 104.5 61.8 104.9 61.7 105.5 61.7 C 106 61.7 106.5 61.8 106.7 62.3 C 107 61.8 107.4 61.7 107.9 61.7 C 108.4 61.7 109.3 61.8 109.3 63 C 109.29 62.96 109.3 66.8 109.3 66.8 L 108.5 66.8 C 108.5 66.8 108.47 63.3 108.5 63.3 C 108.5 62.8 108.3 62.3 107.7 62.3 C 107.4 62.3 107.3 62.3 107 62.5 C 106.8 62.7 106.8 63.2 106.8 63.4 C 106.77 63.4 106.8 66.8 106.8 66.8 L 105.9 66.8 Z M 111.4 65.3 C 111.4 65.8 111.7 66.2 112.2 66.2 C 112.7 66.2 113.3 65.9 113.3 64.3 C 112.5 64.3 111.4 64.2 111.4 65.3 Z M 113.3 66.1 C 113.3 66.1 113.27 66.07 113.3 66.1 C 113 66.7 112.6 66.9 112 66.9 C 110.9 66.9 110.6 66.2 110.6 65.2 C 110.6 63.7 112.1 63.6 113.3 63.7 C 113.3 63 113.3 62.3 112.4 62.3 C 111.9 62.3 111.6 62.6 111.6 63.2 C 111.6 63.2 110.7 63.2 110.7 63.2 C 110.8 62 111.4 61.7 112.4 61.7 C 113.7 61.7 114.1 62.3 114.1 63.2 C 114.1 63.2 114.1 65.6 114.1 65.6 C 114.1 66 114.1 66.4 114.2 66.8 C 114.19 66.8 113.3 66.8 113.3 66.8 L 113.3 66.1 Z M 120.7 64.2 C 120.7 63.4 120.7 62.3 119.7 62.3 C 118.7 62.3 118.8 63.7 118.8 64.5 C 118.8 65.2 118.8 66.2 119.7 66.2 C 120.6 66.2 120.7 65.5 120.7 64.2 Z M 118.8 62.4 C 118.8 62.4 118.82 62.35 118.8 62.4 C 119.1 61.9 119.4 61.7 120 61.7 C 120.8 61.7 121.6 62 121.6 64.2 C 121.6 65.5 121.6 66.9 119.9 66.9 C 119.5 66.9 119.1 66.7 118.8 66.3 C 118.83 66.29 118.8 66.3 118.8 66.3 L 118.8 68.7 L 118 68.7 L 118 61.8 L 118.8 61.8 L 118.8 62.4 Z M 123.8 62.5 C 123.8 62.5 123.78 62.51 123.8 62.5 C 124.1 61.7 124.5 61.7 125.3 61.7 C 125.3 61.7 125.3 62.5 125.3 62.5 C 125.3 62.5 125.2 62.5 125.1 62.5 C 125 62.5 125 62.5 124.9 62.5 C 124 62.5 123.8 63.1 123.8 63.8 C 123.76 63.82 123.8 66.8 123.8 66.8 L 122.9 66.8 L 122.9 61.8 L 123.8 61.8 L 123.8 62.5 Z M 129 63.9 C 129 62.5 128.6 62.3 128 62.3 C 127.5 62.3 127 62.5 127 63.9 C 127 63.9 129 63.9 129 63.9 Z M 127 64.5 C 127 66 127.4 66.2 128.1 66.2 C 128.6 66.2 128.9 65.8 128.9 65.3 C 128.9 65.3 129.8 65.3 129.8 65.3 C 129.8 66.4 129.1 66.9 128.1 66.9 C 127 66.9 126.2 66.6 126.2 64.4 C 126.2 62.9 126.3 61.7 128.1 61.7 C 129.5 61.7 129.9 62.4 129.9 64.1 C 129.88 64.11 129.9 64.5 129.9 64.5 C 129.9 64.5 127.04 64.54 127 64.5 Z M 130.7 61.8 L 131.6 61.8 L 132.7 66 L 132.7 66 L 133.9 61.8 L 134.8 61.8 L 133.2 66.8 L 132.2 66.8 L 130.7 61.8 Z M 138.4 63.9 C 138.4 62.5 138 62.3 137.4 62.3 C 136.9 62.3 136.5 62.5 136.5 63.9 C 136.5 63.9 138.4 63.9 138.4 63.9 Z M 136.5 64.5 C 136.5 66 136.9 66.2 137.5 66.2 C 138.1 66.2 138.3 65.8 138.4 65.3 C 138.4 65.3 139.3 65.3 139.3 65.3 C 139.3 66.4 138.6 66.9 137.5 66.9 C 136.4 66.9 135.6 66.6 135.6 64.4 C 135.6 62.9 135.8 61.7 137.5 61.7 C 139 61.7 139.3 62.4 139.3 64.1 C 139.32 64.11 139.3 64.5 139.3 64.5 C 139.3 64.5 136.48 64.54 136.5 64.5 Z M 143.4 66.8 C 143.4 66.8 143.42 63.3 143.4 63.3 C 143.4 62.8 143.2 62.3 142.5 62.3 C 141.6 62.3 141.5 63.1 141.5 63.8 C 141.5 63.81 141.5 66.8 141.5 66.8 L 140.7 66.8 C 140.7 66.8 140.68 62.8 140.7 62.8 C 140.7 62.5 140.7 62.1 140.6 61.8 C 140.63 61.75 141.5 61.8 141.5 61.8 L 141.5 62.4 C 141.5 62.4 141.54 62.4 141.5 62.4 C 141.9 61.8 142.2 61.7 142.9 61.7 C 144 61.7 144.2 62.3 144.2 63.3 C 144.24 63.3 144.2 66.8 144.2 66.8 L 143.4 66.8 Z M 145.8 61.8 L 145.8 60.8 L 146.6 60.4 L 146.6 61.8 L 147.7 61.8 L 147.7 62.4 L 146.6 62.4 C 146.6 62.4 146.59 65.46 146.6 65.5 C 146.6 65.8 146.6 66.2 147.3 66.2 C 147.4 66.2 147.5 66.2 147.7 66.2 C 147.7 66.2 147.7 66.8 147.7 66.8 C 147.4 66.8 147.2 66.9 146.9 66.9 C 146.1 66.9 145.8 66.5 145.8 66 C 145.77 65.96 145.8 62.4 145.8 62.4 L 144.9 62.4 L 144.9 61.8 L 145.8 61.8 Z M 149.3 66.8 L 148.4 66.8 L 148.4 61.8 L 149.3 61.8 L 149.3 66.8 Z M 148.4 59.6 L 149.3 59.6 L 149.3 60.5 L 148.4 60.5 L 148.4 59.6 Z M 153.5 64 C 153.5 62.6 153.1 62.3 152.5 62.3 C 151.8 62.3 151.4 62.6 151.4 64 C 151.4 65.6 151.6 66.2 152.5 66.2 C 153.3 66.2 153.5 65.6 153.5 64 Z M 150.5 64.4 C 150.5 62.9 150.7 61.7 152.5 61.7 C 154.2 61.7 154.4 62.9 154.4 64.4 C 154.4 66.6 153.5 66.9 152.5 66.9 C 151.4 66.9 150.5 66.6 150.5 64.4 Z M 158.4 66.8 C 158.4 66.8 158.42 63.3 158.4 63.3 C 158.4 62.8 158.2 62.3 157.5 62.3 C 156.6 62.3 156.5 63.1 156.5 63.8 C 156.5 63.81 156.5 66.8 156.5 66.8 L 155.7 66.8 C 155.7 66.8 155.68 62.8 155.7 62.8 C 155.7 62.5 155.7 62.1 155.6 61.8 C 155.63 61.75 156.5 61.8 156.5 61.8 L 156.5 62.4 C 156.5 62.4 156.54 62.4 156.5 62.4 C 156.9 61.8 157.2 61.7 157.9 61.7 C 159 61.7 159.2 62.3 159.2 63.3 C 159.24 63.3 159.2 66.8 159.2 66.8 L 158.4 66.8 Z M 163.7 68 C 163.2 66.6 162.7 65.2 162.7 63.7 C 162.7 62.1 163.2 60.7 163.7 59.2 C 163.7 59.2 164.3 59.2 164.3 59.2 C 163.9 60.7 163.6 62.2 163.6 63.7 C 163.6 65.2 163.9 66.6 164.2 68 C 164.2 68 163.7 68 163.7 68 Z M 168.3 66.8 L 167.2 66.8 L 165.1 59.6 L 166.1 59.6 L 167.7 65.9 L 167.8 65.9 L 169.4 59.6 L 170.4 59.6 L 168.3 66.8 Z M 172.6 59.6 L 173.8 59.6 L 176.1 66.8 L 175.1 66.8 L 174.6 65.1 L 171.8 65.1 L 171.2 66.8 L 170.3 66.8 L 172.6 59.6 Z M 173.1 60.4 L 173.1 60.4 L 172 64.3 L 174.3 64.3 L 173.1 60.4 Z M 182.1 59.6 L 182.1 66.8 L 180.8 66.8 L 178 60.5 L 177.9 60.5 L 177.9 66.8 L 177.1 66.8 L 177.1 59.6 L 178.4 59.6 L 181.2 65.8 L 181.2 65.8 L 181.2 59.6 L 182.1 59.6 Z M 187.2 61.5 C 187.2 60.7 186.8 60.2 185.9 60.2 C 185.6 60.2 184.6 60.3 184.6 61.8 C 184.6 61.8 184.6 64.2 184.6 64.2 C 184.6 65.8 185 66.2 185.9 66.2 C 186.6 66.2 187 66 187.2 65.9 C 187.21 65.86 187.2 63.7 187.2 63.7 L 185.9 63.7 L 185.9 62.9 L 188.1 62.9 C 188.1 62.9 188.13 66.41 188.1 66.4 C 187.5 66.7 186.8 67 185.9 67 C 184.4 67 183.6 66.2 183.6 64.2 C 183.6 64.2 183.6 61.8 183.6 61.8 C 183.6 60.4 184.4 59.4 185.9 59.4 C 187.5 59.4 188.2 60 188.2 61.5 C 188.2 61.5 187.2 61.5 187.2 61.5 Z M 189.8 59.6 L 190.7 59.6 C 190.7 59.6 190.74 64.2 190.7 64.2 C 190.7 65.8 191.2 66.2 192.1 66.2 C 193 66.2 193.4 65.8 193.4 64.2 C 193.44 64.2 193.4 59.6 193.4 59.6 L 194.4 59.6 C 194.4 59.6 194.36 64.16 194.4 64.2 C 194.4 66.2 193.6 67 192.1 67 C 190.6 67 189.8 66.2 189.8 64.2 C 189.82 64.16 189.8 59.6 189.8 59.6 Z M 197.6 59.6 L 198.8 59.6 L 201.1 66.8 L 200.1 66.8 L 199.6 65.1 L 196.8 65.1 L 196.2 66.8 L 195.3 66.8 L 197.6 59.6 Z M 198.1 60.4 L 198.1 60.4 L 197 64.3 L 199.3 64.3 L 198.1 60.4 Z M 203 62.7 C 203 62.7 204.35 62.68 204.3 62.7 C 205 62.7 205.3 62.1 205.3 61.5 C 205.3 61 205.1 60.4 204.4 60.4 C 204.36 60.38 203 60.4 203 60.4 L 203 62.7 Z M 203 63.5 L 203 66.8 L 202 66.8 L 202 59.6 C 202 59.6 204.54 59.58 204.5 59.6 C 205.8 59.6 206.3 60.5 206.3 61.4 C 206.3 62.2 205.8 62.9 204.9 63 C 204.9 63 204.9 63.1 204.9 63.1 C 205.8 63.2 206.1 63.5 206.1 64.9 C 206.1 65.2 206.2 66.4 206.4 66.8 C 206.4 66.8 205.4 66.8 205.4 66.8 C 205.2 66.3 205.2 65.4 205.1 64.4 C 205.1 63.5 204.4 63.5 204 63.5 C 204.05 63.48 203 63.5 203 63.5 Z M 208.6 66 C 208.6 66 209.44 66 209.4 66 C 210.7 66 211.2 65.5 211.2 63.8 C 211.2 63.8 211.2 62.4 211.2 62.4 C 211.2 60.9 210.7 60.4 209.8 60.4 C 209.78 60.38 208.6 60.4 208.6 60.4 L 208.6 66 Z M 207.6 59.6 C 207.6 59.6 209.87 59.58 209.9 59.6 C 210.8 59.6 211.4 59.9 211.8 60.7 C 212.1 61.3 212.1 62.7 212.1 63 C 212.1 64.5 212 65.4 211.7 65.9 C 211.3 66.5 210.6 66.8 209.3 66.8 C 209.31 66.8 207.6 66.8 207.6 66.8 L 207.6 59.6 Z M 213.6 68 C 214 66.6 214.3 65.2 214.3 63.7 C 214.3 62.2 214 60.7 213.6 59.2 C 213.6 59.2 214.2 59.2 214.2 59.2 C 214.7 60.7 215.2 62.1 215.2 63.7 C 215.2 65.2 214.7 66.6 214.2 68 C 214.2 68 213.6 68 213.6 68 Z M 217.3 62.8 L 216.3 62.8 L 216.3 61.8 L 217.3 61.8 L 217.3 62.8 Z M 217.3 66.8 L 216.3 66.8 L 216.3 65.8 L 217.3 65.8 L 217.3 66.8 Z M 221.6 65.3 C 221.6 65.8 221.9 66.2 222.4 66.2 C 222.9 66.2 223.5 65.9 223.4 64.3 C 222.7 64.3 221.6 64.2 221.6 65.3 Z M 223.5 66.1 C 223.5 66.1 223.45 66.07 223.4 66.1 C 223.2 66.7 222.8 66.9 222.2 66.9 C 221.1 66.9 220.8 66.2 220.8 65.2 C 220.8 63.7 222.3 63.6 223.4 63.7 C 223.5 63 223.5 62.3 222.6 62.3 C 222 62.3 221.8 62.6 221.8 63.2 C 221.8 63.2 220.9 63.2 220.9 63.2 C 221 62 221.6 61.7 222.6 61.7 C 223.9 61.7 224.3 62.3 224.3 63.2 C 224.3 63.2 224.3 65.6 224.3 65.6 C 224.3 66 224.3 66.4 224.4 66.8 C 224.37 66.8 223.5 66.8 223.5 66.8 L 223.5 66.1 Z M 229.8 62.3 C 228.9 62.3 228.8 63.5 228.8 64.1 C 228.8 65.7 229.2 66.1 229.8 66.1 C 230.8 66.1 230.8 65 230.8 64.3 C 230.8 63.5 230.8 62.3 229.8 62.3 Z M 230.8 61.8 L 231.6 61.8 C 231.6 61.8 231.58 67.31 231.6 67.3 C 231.6 68.4 230.8 68.7 229.7 68.7 C 228.9 68.7 228.1 68.3 228.2 67.4 C 228.2 67.4 229.1 67.4 229.1 67.4 C 229.1 67.8 229.4 68.1 229.9 68.1 C 230.4 68.1 230.8 67.7 230.8 67.2 C 230.76 67.22 230.8 66.2 230.8 66.2 C 230.8 66.2 230.73 66.17 230.7 66.2 C 230.5 66.6 230.1 66.8 229.6 66.8 C 228.2 66.8 228 65.6 228 64.1 C 228 61.8 229.1 61.7 229.6 61.7 C 230.1 61.7 230.5 61.9 230.7 62.4 C 230.74 62.37 230.8 62.4 230.8 62.4 L 230.8 61.8 Z M 233.9 66.8 L 233.1 66.8 L 233.1 59.6 L 233.9 59.6 L 233.9 66.8 Z M 238.1 64 C 238.1 62.6 237.7 62.3 237.1 62.3 C 236.5 62.3 236 62.6 236 64 C 236 65.6 236.2 66.2 237.1 66.2 C 237.9 66.2 238.1 65.6 238.1 64 Z M 235.2 64.4 C 235.2 62.9 235.3 61.7 237.1 61.7 C 238.8 61.7 239 62.9 239 64.4 C 239 66.6 238.2 66.9 237.1 66.9 C 236 66.9 235.2 66.6 235.2 64.4 Z M 242.1 66.2 C 243.1 66.2 243.1 65.1 243.1 64.4 C 243.1 63 243 62.3 242.1 62.3 C 241.2 62.3 241.2 63.4 241.2 64.1 C 241.2 64.8 241.1 66.2 242.1 66.2 Z M 241.2 66.8 L 240.4 66.8 L 240.4 59.6 L 241.2 59.6 L 241.2 62.3 C 241.2 62.3 241.23 62.26 241.2 62.3 C 241.5 61.9 241.9 61.7 242.3 61.7 C 244 61.7 244 63.1 244 64.4 C 244 66.6 243.2 66.9 242.4 66.9 C 241.8 66.9 241.5 66.7 241.2 66.2 C 241.22 66.2 241.2 66.2 241.2 66.2 L 241.2 66.8 Z M 246.1 65.3 C 246.1 65.8 246.3 66.2 246.8 66.2 C 247.3 66.2 248 65.9 247.9 64.3 C 247.1 64.3 246.1 64.2 246.1 65.3 Z M 247.9 66.1 C 247.9 66.1 247.89 66.07 247.9 66.1 C 247.6 66.7 247.2 66.9 246.6 66.9 C 245.5 66.9 245.2 66.2 245.2 65.2 C 245.2 63.7 246.7 63.6 247.9 63.7 C 247.9 63 247.9 62.3 247 62.3 C 246.5 62.3 246.2 62.6 246.2 63.2 C 246.2 63.2 245.4 63.2 245.4 63.2 C 245.4 62 246 61.7 247.1 61.7 C 248.4 61.7 248.7 62.3 248.7 63.2 C 248.7 63.2 248.7 65.6 248.7 65.6 C 248.7 66 248.7 66.4 248.8 66.8 C 248.81 66.8 247.9 66.8 247.9 66.8 L 247.9 66.1 Z M 251.1 66.8 L 250.3 66.8 L 250.3 59.6 L 251.1 59.6 L 251.1 66.8 Z M 252.7 65.8 L 253.7 65.8 L 252.8 68.1 L 252.1 68.1 L 252.7 65.8 Z M 259.4 66.8 C 259.4 66.8 259.45 63.3 259.4 63.3 C 259.4 62.8 259.3 62.3 258.6 62.3 C 258.4 62.3 258.1 62.5 257.9 62.7 C 257.8 62.9 257.7 63.2 257.7 63.4 C 257.75 63.4 257.7 66.8 257.7 66.8 L 256.9 66.8 C 256.9 66.8 256.93 62.8 256.9 62.8 C 256.9 62.5 256.9 62.1 256.9 61.8 C 256.88 61.75 257.7 61.8 257.7 61.8 L 257.7 62.4 C 257.7 62.4 257.77 62.38 257.8 62.4 C 258 61.8 258.4 61.7 259 61.7 C 259.5 61.7 260 61.8 260.2 62.3 C 260.5 61.8 260.9 61.7 261.4 61.7 C 261.9 61.7 262.8 61.8 262.8 63 C 262.79 62.96 262.8 66.8 262.8 66.8 L 262 66.8 C 262 66.8 261.97 63.3 262 63.3 C 262 62.8 261.8 62.3 261.2 62.3 C 260.9 62.3 260.8 62.3 260.5 62.5 C 260.3 62.7 260.3 63.2 260.3 63.4 C 260.27 63.4 260.3 66.8 260.3 66.8 L 259.4 66.8 Z M 266.9 61.8 L 267.7 61.8 C 267.7 61.8 267.71 65.75 267.7 65.8 C 267.7 66.1 267.7 66.5 267.8 66.8 C 267.76 66.8 266.9 66.8 266.9 66.8 L 266.9 66.2 C 266.9 66.2 266.86 66.19 266.9 66.2 C 266.6 66.7 266.1 66.9 265.6 66.9 C 264.7 66.9 264.2 66.5 264.2 65.6 C 264.22 65.6 264.2 61.8 264.2 61.8 L 265 61.8 C 265 61.8 265.04 65.25 265 65.3 C 265 65.9 265.3 66.3 265.9 66.3 C 266.3 66.3 266.9 65.9 266.9 65.1 C 266.89 65.1 266.9 61.8 266.9 61.8 Z M 270 66.8 L 269.2 66.8 L 269.2 59.6 L 270 59.6 L 270 66.8 Z M 271.5 61.8 L 271.5 60.8 L 272.3 60.4 L 272.3 61.8 L 273.4 61.8 L 273.4 62.4 L 272.3 62.4 C 272.3 62.4 272.32 65.46 272.3 65.5 C 272.3 65.8 272.3 66.2 273.1 66.2 C 273.1 66.2 273.3 66.2 273.4 66.2 C 273.4 66.2 273.4 66.8 273.4 66.8 C 273.2 66.8 272.9 66.9 272.6 66.9 C 271.8 66.9 271.5 66.5 271.5 66 C 271.5 65.96 271.5 62.4 271.5 62.4 L 270.7 62.4 L 270.7 61.8 L 271.5 61.8 Z M 275 66.8 L 274.2 66.8 L 274.2 61.8 L 275 61.8 L 275 66.8 Z M 274.1 59.6 L 275 59.6 L 275 60.5 L 274.1 60.5 L 274.1 59.6 Z M 279 63.4 C 279.1 62.5 278.7 62.3 278.3 62.3 C 277.7 62.3 277.3 62.6 277.3 64 C 277.3 65.6 277.5 66.2 278.3 66.2 C 278.5 66.2 279.1 66 279.1 65.1 C 279.1 65.1 279.9 65.1 279.9 65.1 C 280 66.5 278.9 66.9 278.3 66.9 C 277.3 66.9 276.4 66.6 276.4 64.4 C 276.4 62.9 276.6 61.7 278.3 61.7 C 279.4 61.7 279.9 62.2 279.9 63.4 C 279.9 63.4 279 63.4 279 63.4 Z M 284.2 63.9 C 284.2 62.5 283.8 62.3 283.2 62.3 C 282.6 62.3 282.2 62.5 282.2 63.9 C 282.2 63.9 284.2 63.9 284.2 63.9 Z M 282.2 64.5 C 282.2 66 282.6 66.2 283.2 66.2 C 283.8 66.2 284.1 65.8 284.1 65.3 C 284.1 65.3 285 65.3 285 65.3 C 285 66.4 284.3 66.9 283.2 66.9 C 282.2 66.9 281.3 66.6 281.3 64.4 C 281.3 62.9 281.5 61.7 283.2 61.7 C 284.7 61.7 285 62.4 285 64.1 C 285.05 64.11 285 64.5 285 64.5 C 285 64.5 282.21 64.54 282.2 64.5 Z M 289.1 66.8 C 289.1 66.8 289.15 63.3 289.1 63.3 C 289.1 62.8 289 62.3 288.3 62.3 C 287.4 62.3 287.2 63.1 287.2 63.8 C 287.23 63.81 287.2 66.8 287.2 66.8 L 286.4 66.8 C 286.4 66.8 286.41 62.8 286.4 62.8 C 286.4 62.5 286.4 62.1 286.4 61.8 C 286.36 61.75 287.2 61.8 287.2 61.8 L 287.2 62.4 C 287.2 62.4 287.27 62.4 287.3 62.4 C 287.6 61.8 288 61.7 288.6 61.7 C 289.7 61.7 290 62.3 290 63.3 C 289.97 63.3 290 66.8 290 66.8 L 289.1 66.8 Z M 291.5 61.8 L 291.5 60.8 L 292.3 60.4 L 292.3 61.8 L 293.4 61.8 L 293.4 62.4 L 292.3 62.4 C 292.3 62.4 292.32 65.46 292.3 65.5 C 292.3 65.8 292.3 66.2 293.1 66.2 C 293.1 66.2 293.3 66.2 293.4 66.2 C 293.4 66.2 293.4 66.8 293.4 66.8 C 293.2 66.8 292.9 66.9 292.6 66.9 C 291.8 66.9 291.5 66.5 291.5 66 C 291.5 65.96 291.5 62.4 291.5 62.4 L 290.7 62.4 L 290.7 61.8 L 291.5 61.8 Z M 295 62.5 C 295 62.5 295.06 62.51 295.1 62.5 C 295.4 61.7 295.8 61.7 296.6 61.7 C 296.6 61.7 296.6 62.5 296.6 62.5 C 296.5 62.5 296.5 62.5 296.4 62.5 C 296.3 62.5 296.3 62.5 296.2 62.5 C 295.3 62.5 295 63.1 295 63.8 C 295.04 63.82 295 66.8 295 66.8 L 294.2 66.8 L 294.2 61.8 L 295 61.8 L 295 62.5 Z M 300.3 63.9 C 300.3 62.5 299.9 62.3 299.3 62.3 C 298.8 62.3 298.3 62.5 298.3 63.9 C 298.3 63.9 300.3 63.9 300.3 63.9 Z M 298.3 64.5 C 298.3 66 298.7 66.2 299.3 66.2 C 299.9 66.2 300.2 65.8 300.2 65.3 C 300.2 65.3 301.1 65.3 301.1 65.3 C 301.1 66.4 300.4 66.9 299.4 66.9 C 298.3 66.9 297.4 66.6 297.4 64.4 C 297.4 62.9 297.6 61.7 299.4 61.7 C 300.8 61.7 301.2 62.4 301.2 64.1 C 301.16 64.11 301.2 64.5 301.2 64.5 C 301.2 64.5 298.32 64.54 298.3 64.5 Z M 302.7 65.8 L 303.7 65.8 L 302.8 68.1 L 302.1 68.1 L 302.7 65.8 Z " stroke="none" fill="#555555"/>  </g>  <g id="Polygon198033">    <path d="M 0.4 54.8 C 0.4 54.8 0.43 54 0.4 54 C 2.5 51.2 3.1 50.6 3.1 49.4 C 3.1 48.9 2.8 48.5 2.2 48.5 C 1.5 48.5 1.4 49.1 1.4 49.7 C 1.4 49.7 0.5 49.7 0.5 49.7 C 0.4 48.5 0.9 47.8 2.1 47.8 C 3.4 47.8 4 48.3 4 49.6 C 4 51.1 3.2 51.6 1.4 54 C 1.41 54 4.2 54 4.2 54 L 4.2 54.8 L 0.4 54.8 Z M 6 54.8 L 5.1 54.8 L 5.1 53.8 L 6 53.8 L 6 54.8 Z M 12.9 49.6 C 12.9 49.2 12.9 48.8 12.7 48.5 C 12.5 48.3 12 48.2 11.8 48.2 C 11.1 48.2 10.8 48.7 10.8 48.8 C 10.7 48.9 10.5 49 10.5 50.3 C 10.5 50.3 10.5 52.2 10.5 52.2 C 10.5 54 11.1 54.2 11.8 54.2 C 12.1 54.2 13 54.1 13 52.7 C 13 52.7 13.9 52.7 13.9 52.7 C 14 55 12.4 55 11.9 55 C 11 55 9.6 54.9 9.6 52.1 C 9.6 52.1 9.6 50.1 9.6 50.1 C 9.6 48 10.5 47.4 11.9 47.4 C 13.4 47.4 13.9 48.2 13.8 49.6 C 13.8 49.6 12.9 49.6 12.9 49.6 Z M 16 50.5 C 16 50.5 16.03 50.51 16 50.5 C 16.4 49.7 16.8 49.7 17.6 49.7 C 17.6 49.7 17.6 50.5 17.6 50.5 C 17.5 50.5 17.4 50.5 17.4 50.5 C 17.3 50.5 17.2 50.5 17.1 50.5 C 16.2 50.5 16 51.1 16 51.8 C 16.01 51.82 16 54.8 16 54.8 L 15.2 54.8 L 15.2 49.8 L 16 49.8 L 16 50.5 Z M 19.2 53.3 C 19.2 53.8 19.5 54.2 20 54.2 C 20.5 54.2 21.1 53.9 21.1 52.3 C 20.3 52.3 19.2 52.2 19.2 53.3 Z M 21.1 54.1 C 21.1 54.1 21.07 54.07 21.1 54.1 C 20.8 54.7 20.4 54.9 19.8 54.9 C 18.7 54.9 18.4 54.2 18.4 53.2 C 18.4 51.7 19.9 51.6 21.1 51.7 C 21.1 51 21.1 50.3 20.2 50.3 C 19.7 50.3 19.4 50.6 19.4 51.2 C 19.4 51.2 18.5 51.2 18.5 51.2 C 18.6 50 19.2 49.7 20.2 49.7 C 21.5 49.7 21.9 50.3 21.9 51.2 C 21.9 51.2 21.9 53.6 21.9 53.6 C 21.9 54 21.9 54.4 22 54.8 C 21.99 54.8 21.1 54.8 21.1 54.8 L 21.1 54.1 Z M 24.3 54.8 L 23.5 54.8 L 23.5 49.8 L 24.3 49.8 L 24.3 54.8 Z M 23.4 47.6 L 24.3 47.6 L 24.3 48.5 L 23.4 48.5 L 23.4 47.6 Z M 27.4 50.3 C 26.5 50.3 26.5 51.5 26.5 52.1 C 26.5 53.7 26.8 54.1 27.4 54.1 C 28.4 54.1 28.4 53 28.4 52.3 C 28.4 51.5 28.4 50.3 27.4 50.3 Z M 28.4 49.8 L 29.2 49.8 C 29.2 49.8 29.2 55.31 29.2 55.3 C 29.2 56.4 28.4 56.7 27.3 56.7 C 26.5 56.7 25.7 56.3 25.8 55.4 C 25.8 55.4 26.7 55.4 26.7 55.4 C 26.7 55.8 27 56.1 27.5 56.1 C 28.1 56.1 28.4 55.7 28.4 55.2 C 28.38 55.22 28.4 54.2 28.4 54.2 C 28.4 54.2 28.35 54.17 28.3 54.2 C 28.1 54.6 27.7 54.8 27.2 54.8 C 25.9 54.8 25.6 53.6 25.6 52.1 C 25.6 49.8 26.8 49.7 27.2 49.7 C 27.7 49.7 28.1 49.9 28.4 50.4 C 28.36 50.37 28.4 50.4 28.4 50.4 L 28.4 49.8 Z M 33.5 52.6 C 33.5 53.2 33.4 54.2 34.3 54.2 C 35.3 54.2 35.4 53.3 35.4 52.5 C 35.39 52.46 35.4 47.6 35.4 47.6 L 36.3 47.6 C 36.3 47.6 36.31 53.01 36.3 53 C 36.3 53.4 36.3 55 34.3 55 C 33.9 55 33.1 54.8 32.8 54.2 C 32.5 53.8 32.5 53.1 32.5 52.6 C 32.5 52.6 33.5 52.6 33.5 52.6 Z M 38.1 53.8 L 39.1 53.8 L 38.2 56.1 L 37.5 56.1 L 38.1 53.8 Z M 45.1 51.9 C 45.1 50.5 44.7 50.3 44.1 50.3 C 43.6 50.3 43.2 50.5 43.2 51.9 C 43.2 51.9 45.1 51.9 45.1 51.9 Z M 43.2 52.5 C 43.2 54 43.5 54.2 44.2 54.2 C 44.7 54.2 45 53.8 45.1 53.3 C 45.1 53.3 46 53.3 46 53.3 C 46 54.4 45.3 54.9 44.2 54.9 C 43.1 54.9 42.3 54.6 42.3 52.4 C 42.3 50.9 42.5 49.7 44.2 49.7 C 45.6 49.7 46 50.4 46 52.1 C 46.01 52.11 46 52.5 46 52.5 C 46 52.5 43.17 52.54 43.2 52.5 Z M 47.5 49.8 L 47.5 48.8 L 48.3 48.4 L 48.3 49.8 L 49.4 49.8 L 49.4 50.4 L 48.3 50.4 C 48.3 50.4 48.28 53.46 48.3 53.5 C 48.3 53.8 48.3 54.2 49 54.2 C 49.1 54.2 49.2 54.2 49.4 54.2 C 49.4 54.2 49.4 54.8 49.4 54.8 C 49.1 54.8 48.9 54.9 48.6 54.9 C 47.8 54.9 47.5 54.5 47.5 54 C 47.46 53.96 47.5 50.4 47.5 50.4 L 46.6 50.4 L 46.6 49.8 L 47.5 49.8 Z M 53.1 53.3 C 53.1 53.8 53.4 54.2 53.9 54.2 C 54.4 54.2 55 53.9 54.9 52.3 C 54.2 52.3 53.1 52.2 53.1 53.3 Z M 55 54.1 C 55 54.1 54.95 54.07 54.9 54.1 C 54.7 54.7 54.3 54.9 53.7 54.9 C 52.6 54.9 52.3 54.2 52.3 53.2 C 52.3 51.7 53.8 51.6 54.9 51.7 C 55 51 55 50.3 54.1 50.3 C 53.5 50.3 53.3 50.6 53.3 51.2 C 53.3 51.2 52.4 51.2 52.4 51.2 C 52.5 50 53.1 49.7 54.1 49.7 C 55.4 49.7 55.8 50.3 55.8 51.2 C 55.8 51.2 55.8 53.6 55.8 53.6 C 55.8 54 55.8 54.4 55.9 54.8 C 55.87 54.8 55 54.8 55 54.8 L 55 54.1 Z M 58.2 54.8 L 57.3 54.8 L 57.3 47.6 L 58.2 47.6 L 58.2 54.8 Z M 60.4 54.8 L 59.5 54.8 L 59.5 53.8 L 60.4 53.8 L 60.4 54.8 Z M 64.1 54.8 L 64.1 47.6 L 67.8 47.6 L 67.8 48.4 L 65 48.4 L 65 50.7 L 67.6 50.7 L 67.6 51.5 L 65 51.5 L 65 54 L 67.9 54 L 67.9 54.8 L 64.1 54.8 Z M 69.2 49.8 C 69.2 49.8 69.18 48.77 69.2 48.8 C 69.2 47.8 69.9 47.6 70.6 47.6 C 70.8 47.6 70.9 47.6 71 47.6 C 71 47.6 71 48.2 71 48.2 C 70.1 48.1 70 48.5 70 48.9 C 70 48.89 70 49.8 70 49.8 L 71 49.8 L 71 50.4 L 70 50.4 L 70 54.8 L 69.2 54.8 L 69.2 50.4 L 68.4 50.4 L 68.4 49.8 L 69.2 49.8 Z M 75.3 54.8 L 74.5 54.8 L 74.5 49.8 L 75.3 49.8 L 75.3 54.8 Z M 74.4 47.6 L 75.4 47.6 L 75.4 48.5 L 74.4 48.5 L 74.4 47.6 Z M 72 49.8 C 72 49.8 71.96 48.77 72 48.8 C 72 47.8 72.7 47.6 73.4 47.6 C 73.6 47.6 73.7 47.6 73.8 47.6 C 73.8 47.6 73.8 48.2 73.8 48.2 C 72.9 48.1 72.8 48.5 72.8 48.9 C 72.78 48.89 72.8 49.8 72.8 49.8 L 73.8 49.8 L 73.8 50.4 L 72.8 50.4 L 72.8 54.8 L 72 54.8 L 72 50.4 L 71.2 50.4 L 71.2 49.8 L 72 49.8 Z M 79.4 51.4 C 79.5 50.5 79.1 50.3 78.7 50.3 C 78.1 50.3 77.7 50.6 77.7 52 C 77.7 53.6 77.9 54.2 78.7 54.2 C 78.9 54.2 79.5 54 79.5 53.1 C 79.5 53.1 80.3 53.1 80.3 53.1 C 80.4 54.5 79.3 54.9 78.7 54.9 C 77.7 54.9 76.8 54.6 76.8 52.4 C 76.8 50.9 77 49.7 78.7 49.7 C 79.8 49.7 80.3 50.2 80.3 51.4 C 80.3 51.4 79.4 51.4 79.4 51.4 Z M 82.6 53.3 C 82.6 53.8 82.8 54.2 83.3 54.2 C 83.8 54.2 84.5 53.9 84.4 52.3 C 83.6 52.3 82.6 52.2 82.6 53.3 Z M 84.4 54.1 C 84.4 54.1 84.39 54.07 84.4 54.1 C 84.1 54.7 83.7 54.9 83.1 54.9 C 82 54.9 81.7 54.2 81.7 53.2 C 81.7 51.7 83.2 51.6 84.4 51.7 C 84.4 51 84.4 50.3 83.5 50.3 C 83 50.3 82.7 50.6 82.7 51.2 C 82.7 51.2 81.9 51.2 81.9 51.2 C 81.9 50 82.5 49.7 83.6 49.7 C 84.9 49.7 85.2 50.3 85.2 51.2 C 85.2 51.2 85.2 53.6 85.2 53.6 C 85.2 54 85.2 54.4 85.3 54.8 C 85.31 54.8 84.4 54.8 84.4 54.8 L 84.4 54.1 Z M 89.4 51.4 C 89.5 50.5 89.1 50.3 88.7 50.3 C 88.1 50.3 87.7 50.6 87.7 52 C 87.7 53.6 87.9 54.2 88.7 54.2 C 88.9 54.2 89.5 54 89.5 53.1 C 89.5 53.1 90.3 53.1 90.3 53.1 C 90.4 54.5 89.3 54.9 88.7 54.9 C 87.7 54.9 86.8 54.6 86.8 52.4 C 86.8 50.9 87 49.7 88.7 49.7 C 89.8 49.7 90.3 50.2 90.3 51.4 C 90.3 51.4 89.4 51.4 89.4 51.4 Z M 93.3 53.9 L 93.3 53.9 L 94.6 49.8 L 95.4 49.8 L 93.2 56.7 L 92.3 56.7 L 92.9 54.8 L 91.2 49.8 L 92.1 49.8 L 93.3 53.9 Z M 99.2 53.3 C 99.2 53.8 99.5 54.2 100 54.2 C 100.5 54.2 101.1 53.9 101 52.3 C 100.3 52.3 99.2 52.2 99.2 53.3 Z M 101.1 54.1 C 101.1 54.1 101.05 54.07 101 54.1 C 100.8 54.7 100.4 54.9 99.8 54.9 C 98.7 54.9 98.4 54.2 98.4 53.2 C 98.4 51.7 99.9 51.6 101 51.7 C 101.1 51 101.1 50.3 100.2 50.3 C 99.6 50.3 99.4 50.6 99.4 51.2 C 99.4 51.2 98.5 51.2 98.5 51.2 C 98.6 50 99.2 49.7 100.2 49.7 C 101.5 49.7 101.9 50.3 101.9 51.2 C 101.9 51.2 101.9 53.6 101.9 53.6 C 101.9 54 101.9 54.4 102 54.8 C 101.97 54.8 101.1 54.8 101.1 54.8 L 101.1 54.1 Z M 106.2 54.8 C 106.2 54.8 106.21 51.3 106.2 51.3 C 106.2 50.8 106 50.3 105.3 50.3 C 104.4 50.3 104.3 51.1 104.3 51.8 C 104.29 51.81 104.3 54.8 104.3 54.8 L 103.5 54.8 C 103.5 54.8 103.47 50.8 103.5 50.8 C 103.5 50.5 103.4 50.1 103.4 49.8 C 103.42 49.75 104.3 49.8 104.3 49.8 L 104.3 50.4 C 104.3 50.4 104.33 50.4 104.3 50.4 C 104.6 49.8 105 49.7 105.7 49.7 C 106.8 49.7 107 50.3 107 51.3 C 107.03 51.3 107 54.8 107 54.8 L 106.2 54.8 Z M 110.2 50.3 C 109.3 50.3 109.2 51 109.2 52.4 C 109.2 53.1 109.2 54.2 110.2 54.2 C 111.1 54.2 111.1 53.1 111.1 52.1 C 111.1 51.4 111.1 50.3 110.2 50.3 Z M 111.1 47.6 L 112 47.6 L 112 54.8 L 111.1 54.8 L 111.1 54.2 C 111.1 54.2 111.12 54.2 111.1 54.2 C 110.8 54.7 110.5 54.9 110 54.9 C 109.1 54.9 108.3 54.6 108.3 52.4 C 108.3 51.1 108.4 49.7 110 49.7 C 110.5 49.7 110.8 49.9 111.1 50.3 C 111.11 50.26 111.1 50.3 111.1 50.3 L 111.1 47.6 Z M 117.2 54.9 C 116.1 54.9 115.4 54.4 115.4 53.3 C 115.4 53.3 116.4 53.3 116.4 53.3 C 116.4 53.6 116.4 54.2 117.2 54.2 C 117.7 54.2 118.1 54 118.1 53.5 C 118.1 52.6 115.6 52.5 115.6 51 C 115.6 50.5 115.9 49.7 117.3 49.7 C 118.2 49.7 119 50.1 118.9 51.1 C 118.9 51.1 118 51.1 118 51.1 C 118 50.6 117.7 50.3 117.2 50.3 C 116.8 50.3 116.4 50.5 116.4 51 C 116.4 51.8 118.9 51.8 118.9 53.4 C 118.9 54.5 118.2 54.9 117.2 54.9 Z M 120.9 53.3 C 120.9 53.8 121.1 54.2 121.7 54.2 C 122.2 54.2 122.8 53.9 122.7 52.3 C 121.9 52.3 120.9 52.2 120.9 53.3 Z M 122.7 54.1 C 122.7 54.1 122.71 54.07 122.7 54.1 C 122.5 54.7 122.1 54.9 121.4 54.9 C 120.4 54.9 120.1 54.2 120.1 53.2 C 120.1 51.7 121.6 51.6 122.7 51.7 C 122.7 51 122.7 50.3 121.9 50.3 C 121.3 50.3 121 50.6 121.1 51.2 C 121.1 51.2 120.2 51.2 120.2 51.2 C 120.2 50 120.8 49.7 121.9 49.7 C 123.2 49.7 123.5 50.3 123.5 51.2 C 123.5 51.2 123.5 53.6 123.5 53.6 C 123.5 54 123.6 54.4 123.6 54.8 C 123.63 54.8 122.7 54.8 122.7 54.8 L 122.7 54.1 Z M 125.3 49.8 C 125.3 49.8 125.28 48.77 125.3 48.8 C 125.3 47.8 126 47.6 126.7 47.6 C 126.9 47.6 127 47.6 127.1 47.6 C 127.1 47.6 127.1 48.2 127.1 48.2 C 126.2 48.1 126.1 48.5 126.1 48.9 C 126.1 48.89 126.1 49.8 126.1 49.8 L 127.1 49.8 L 127.1 50.4 L 126.1 50.4 L 126.1 54.8 L 125.3 54.8 L 125.3 50.4 L 124.5 50.4 L 124.5 49.8 L 125.3 49.8 Z M 130.7 51.9 C 130.7 50.5 130.3 50.3 129.7 50.3 C 129.1 50.3 128.7 50.5 128.7 51.9 C 128.7 51.9 130.7 51.9 130.7 51.9 Z M 128.7 52.5 C 128.7 54 129.1 54.2 129.7 54.2 C 130.3 54.2 130.6 53.8 130.6 53.3 C 130.6 53.3 131.5 53.3 131.5 53.3 C 131.5 54.4 130.8 54.9 129.7 54.9 C 128.7 54.9 127.8 54.6 127.8 52.4 C 127.8 50.9 128 49.7 129.7 49.7 C 131.2 49.7 131.5 50.4 131.5 52.1 C 131.55 52.11 131.5 52.5 131.5 52.5 C 131.5 52.5 128.71 52.54 128.7 52.5 Z M 133 49.8 L 133 48.8 L 133.8 48.4 L 133.8 49.8 L 134.9 49.8 L 134.9 50.4 L 133.8 50.4 C 133.8 50.4 133.82 53.46 133.8 53.5 C 133.8 53.8 133.8 54.2 134.6 54.2 C 134.6 54.2 134.8 54.2 134.9 54.2 C 134.9 54.2 134.9 54.8 134.9 54.8 C 134.7 54.8 134.4 54.9 134.1 54.9 C 133.3 54.9 133 54.5 133 54 C 133 53.96 133 50.4 133 50.4 L 132.2 50.4 L 132.2 49.8 L 133 49.8 Z M 137.2 53.9 L 137.2 53.9 L 138.4 49.8 L 139.3 49.8 L 137 56.7 L 136.2 56.7 L 136.8 54.8 L 135 49.8 L 136 49.8 L 137.2 53.9 Z M 145.2 52 C 145.2 50.6 144.8 50.3 144.1 50.3 C 143.5 50.3 143.1 50.6 143.1 52 C 143.1 53.6 143.3 54.2 144.1 54.2 C 145 54.2 145.2 53.6 145.2 52 Z M 142.2 52.4 C 142.2 50.9 142.4 49.7 144.1 49.7 C 145.9 49.7 146 50.9 146 52.4 C 146 54.6 145.2 54.9 144.1 54.9 C 143.1 54.9 142.2 54.6 142.2 52.4 Z M 147.5 49.8 C 147.5 49.8 147.5 48.77 147.5 48.8 C 147.5 47.8 148.2 47.6 148.9 47.6 C 149.1 47.6 149.2 47.6 149.3 47.6 C 149.3 47.6 149.3 48.2 149.3 48.2 C 148.5 48.1 148.3 48.5 148.3 48.9 C 148.32 48.89 148.3 49.8 148.3 49.8 L 149.3 49.8 L 149.3 50.4 L 148.3 50.4 L 148.3 54.8 L 147.5 54.8 L 147.5 50.4 L 146.7 50.4 L 146.7 49.8 L 147.5 49.8 Z M 154.1 50.3 C 153.1 50.3 153.1 51.5 153.1 52.1 C 153.1 53.7 153.5 54.1 154.1 54.1 C 155.1 54.1 155 53 155 52.3 C 155 51.5 155.1 50.3 154.1 50.3 Z M 155 49.8 L 155.8 49.8 C 155.8 49.8 155.84 55.31 155.8 55.3 C 155.8 56.4 155.1 56.7 154 56.7 C 153.1 56.7 152.4 56.3 152.4 55.4 C 152.4 55.4 153.4 55.4 153.4 55.4 C 153.4 55.8 153.7 56.1 154.1 56.1 C 154.7 56.1 155 55.7 155 55.2 C 155.02 55.22 155 54.2 155 54.2 C 155 54.2 154.99 54.17 155 54.2 C 154.8 54.6 154.3 54.8 153.9 54.8 C 152.5 54.8 152.2 53.6 152.2 52.1 C 152.2 49.8 153.4 49.7 153.8 49.7 C 154.3 49.7 154.8 49.9 155 50.4 C 155 50.37 155 50.4 155 50.4 L 155 49.8 Z M 158.1 53.3 C 158.1 53.8 158.3 54.2 158.9 54.2 C 159.4 54.2 160 53.9 159.9 52.3 C 159.1 52.3 158.1 52.2 158.1 53.3 Z M 159.9 54.1 C 159.9 54.1 159.93 54.07 159.9 54.1 C 159.7 54.7 159.3 54.9 158.7 54.9 C 157.6 54.9 157.3 54.2 157.3 53.2 C 157.3 51.7 158.8 51.6 159.9 51.7 C 159.9 51 160 50.3 159.1 50.3 C 158.5 50.3 158.2 50.6 158.3 51.2 C 158.3 51.2 157.4 51.2 157.4 51.2 C 157.4 50 158 49.7 159.1 49.7 C 160.4 49.7 160.7 50.3 160.7 51.2 C 160.7 51.2 160.7 53.6 160.7 53.6 C 160.7 54 160.8 54.4 160.8 54.8 C 160.85 54.8 159.9 54.8 159.9 54.8 L 159.9 54.1 Z M 163.2 50.5 C 163.2 50.5 163.22 50.51 163.2 50.5 C 163.6 49.7 164 49.7 164.8 49.7 C 164.8 49.7 164.8 50.5 164.8 50.5 C 164.7 50.5 164.6 50.5 164.6 50.5 C 164.5 50.5 164.4 50.5 164.3 50.5 C 163.4 50.5 163.2 51.1 163.2 51.8 C 163.2 51.82 163.2 54.8 163.2 54.8 L 162.4 54.8 L 162.4 49.8 L 163.2 49.8 L 163.2 50.5 Z M 166.4 53.3 C 166.4 53.8 166.7 54.2 167.2 54.2 C 167.7 54.2 168.3 53.9 168.3 52.3 C 167.5 52.3 166.4 52.2 166.4 53.3 Z M 168.3 54.1 C 168.3 54.1 168.26 54.07 168.3 54.1 C 168 54.7 167.6 54.9 167 54.9 C 165.9 54.9 165.6 54.2 165.6 53.2 C 165.6 51.7 167.1 51.6 168.3 51.7 C 168.3 51 168.3 50.3 167.4 50.3 C 166.9 50.3 166.6 50.6 166.6 51.2 C 166.6 51.2 165.7 51.2 165.7 51.2 C 165.8 50 166.4 49.7 167.4 49.7 C 168.7 49.7 169.1 50.3 169.1 51.2 C 169.1 51.2 169.1 53.6 169.1 53.6 C 169.1 54 169.1 54.4 169.2 54.8 C 169.18 54.8 168.3 54.8 168.3 54.8 L 168.3 54.1 Z M 172.4 50.3 C 171.5 50.3 171.4 51 171.4 52.4 C 171.4 53.1 171.4 54.2 172.4 54.2 C 173.3 54.2 173.3 53.1 173.3 52.1 C 173.3 51.4 173.3 50.3 172.4 50.3 Z M 173.3 47.6 L 174.2 47.6 L 174.2 54.8 L 173.3 54.8 L 173.3 54.2 C 173.3 54.2 173.33 54.2 173.3 54.2 C 173 54.7 172.7 54.9 172.2 54.9 C 171.4 54.9 170.5 54.6 170.5 52.4 C 170.5 51.1 170.6 49.7 172.2 49.7 C 172.7 49.7 173 49.9 173.3 50.3 C 173.32 50.26 173.3 50.3 173.3 50.3 L 173.3 47.6 Z M 176.4 53.3 C 176.4 53.8 176.7 54.2 177.2 54.2 C 177.7 54.2 178.3 53.9 178.3 52.3 C 177.5 52.3 176.4 52.2 176.4 53.3 Z M 178.3 54.1 C 178.3 54.1 178.26 54.07 178.3 54.1 C 178 54.7 177.6 54.9 177 54.9 C 175.9 54.9 175.6 54.2 175.6 53.2 C 175.6 51.7 177.1 51.6 178.3 51.7 C 178.3 51 178.3 50.3 177.4 50.3 C 176.9 50.3 176.6 50.6 176.6 51.2 C 176.6 51.2 175.7 51.2 175.7 51.2 C 175.8 50 176.4 49.7 177.4 49.7 C 178.7 49.7 179.1 50.3 179.1 51.2 C 179.1 51.2 179.1 53.6 179.1 53.6 C 179.1 54 179.1 54.4 179.2 54.8 C 179.18 54.8 178.3 54.8 178.3 54.8 L 178.3 54.1 Z M 183.3 51.4 C 183.3 50.5 182.9 50.3 182.6 50.3 C 182 50.3 181.6 50.6 181.6 52 C 181.6 53.6 181.8 54.2 182.6 54.2 C 182.8 54.2 183.4 54 183.3 53.1 C 183.3 53.1 184.2 53.1 184.2 53.1 C 184.2 54.5 183.2 54.9 182.6 54.9 C 181.5 54.9 180.7 54.6 180.7 52.4 C 180.7 50.9 180.9 49.7 182.6 49.7 C 183.6 49.7 184.2 50.2 184.2 51.4 C 184.2 51.4 183.3 51.4 183.3 51.4 Z M 186.5 54.8 L 185.7 54.8 L 185.7 49.8 L 186.5 49.8 L 186.5 54.8 Z M 185.6 47.6 L 186.5 47.6 L 186.5 48.5 L 185.6 48.5 L 185.6 47.6 Z M 190.4 54.8 C 190.4 54.8 190.38 51.3 190.4 51.3 C 190.4 50.8 190.2 50.3 189.6 50.3 C 189.3 50.3 189 50.5 188.9 50.7 C 188.7 50.9 188.7 51.2 188.7 51.4 C 188.68 51.4 188.7 54.8 188.7 54.8 L 187.9 54.8 C 187.9 54.8 187.86 50.8 187.9 50.8 C 187.9 50.5 187.8 50.1 187.8 49.8 C 187.81 49.75 188.7 49.8 188.7 49.8 L 188.7 50.4 C 188.7 50.4 188.7 50.38 188.7 50.4 C 188.9 49.8 189.4 49.7 190 49.7 C 190.4 49.7 190.9 49.8 191.1 50.3 C 191.4 49.8 191.9 49.7 192.3 49.7 C 192.9 49.7 193.7 49.8 193.7 51 C 193.72 50.96 193.7 54.8 193.7 54.8 L 192.9 54.8 C 192.9 54.8 192.9 51.3 192.9 51.3 C 192.9 50.8 192.8 50.3 192.1 50.3 C 191.8 50.3 191.7 50.3 191.5 50.5 C 191.2 50.7 191.2 51.2 191.2 51.4 C 191.2 51.4 191.2 54.8 191.2 54.8 L 190.4 54.8 Z M 195.9 53.3 C 195.9 53.8 196.1 54.2 196.7 54.2 C 197.2 54.2 197.8 53.9 197.7 52.3 C 196.9 52.3 195.9 52.2 195.9 53.3 Z M 197.7 54.1 C 197.7 54.1 197.7 54.07 197.7 54.1 C 197.4 54.7 197.1 54.9 196.4 54.9 C 195.4 54.9 195 54.2 195 53.2 C 195 51.7 196.5 51.6 197.7 51.7 C 197.7 51 197.7 50.3 196.8 50.3 C 196.3 50.3 196 50.6 196.1 51.2 C 196.1 51.2 195.2 51.2 195.2 51.2 C 195.2 50 195.8 49.7 196.9 49.7 C 198.2 49.7 198.5 50.3 198.5 51.2 C 198.5 51.2 198.5 53.6 198.5 53.6 C 198.5 54 198.6 54.4 198.6 54.8 C 198.62 54.8 197.7 54.8 197.7 54.8 L 197.7 54.1 Z M 201.9 54.2 C 203 54.2 203 53.1 203 52.4 C 203 51 202.8 50.3 202 50.3 C 201 50.3 201 51.4 201 52.1 C 201 52.8 200.9 54.2 201.9 54.2 Z M 201 54.8 L 200.2 54.8 L 200.2 47.6 L 201 47.6 L 201 50.3 C 201 50.3 201.04 50.26 201 50.3 C 201.3 49.9 201.7 49.7 202.1 49.7 C 203.8 49.7 203.8 51.1 203.8 52.4 C 203.8 54.6 203 54.9 202.2 54.9 C 201.7 54.9 201.3 54.7 201 54.2 C 201.03 54.2 201 54.2 201 54.2 L 201 54.8 Z M 205.3 53.8 L 206.3 53.8 L 205.4 56.1 L 204.7 56.1 L 205.3 53.8 Z M 210.3 53.3 C 210.3 53.8 210.5 54.2 211.1 54.2 C 211.6 54.2 212.2 53.9 212.1 52.3 C 211.4 52.3 210.3 52.2 210.3 53.3 Z M 212.2 54.1 C 212.2 54.1 212.14 54.07 212.1 54.1 C 211.9 54.7 211.5 54.9 210.9 54.9 C 209.8 54.9 209.5 54.2 209.5 53.2 C 209.5 51.7 211 51.6 212.1 51.7 C 212.2 51 212.2 50.3 211.3 50.3 C 210.7 50.3 210.4 50.6 210.5 51.2 C 210.5 51.2 209.6 51.2 209.6 51.2 C 209.6 50 210.2 49.7 211.3 49.7 C 212.6 49.7 213 50.3 213 51.2 C 213 51.2 213 53.6 213 53.6 C 213 54 213 54.4 213.1 54.8 C 213.06 54.8 212.2 54.8 212.2 54.8 L 212.2 54.1 Z M 216.9 49.8 C 216.9 49.8 216.93 48.77 216.9 48.8 C 216.9 47.8 217.6 47.6 218.4 47.6 C 218.5 47.6 218.6 47.6 218.8 47.6 C 218.8 47.6 218.8 48.2 218.8 48.2 C 217.9 48.1 217.7 48.5 217.7 48.9 C 217.75 48.89 217.7 49.8 217.7 49.8 L 218.8 49.8 L 218.8 50.4 L 217.7 50.4 L 217.7 54.8 L 216.9 54.8 L 216.9 50.4 L 216.1 50.4 L 216.1 49.8 L 216.9 49.8 Z M 220.3 53.3 C 220.3 53.8 220.5 54.2 221.1 54.2 C 221.6 54.2 222.2 53.9 222.1 52.3 C 221.4 52.3 220.3 52.2 220.3 53.3 Z M 222.2 54.1 C 222.2 54.1 222.14 54.07 222.1 54.1 C 221.9 54.7 221.5 54.9 220.9 54.9 C 219.8 54.9 219.5 54.2 219.5 53.2 C 219.5 51.7 221 51.6 222.1 51.7 C 222.2 51 222.2 50.3 221.3 50.3 C 220.7 50.3 220.4 50.6 220.5 51.2 C 220.5 51.2 219.6 51.2 219.6 51.2 C 219.6 50 220.2 49.7 221.3 49.7 C 222.6 49.7 223 50.3 223 51.2 C 223 51.2 223 53.6 223 53.6 C 223 54 223 54.4 223.1 54.8 C 223.06 54.8 222.2 54.8 222.2 54.8 L 222.2 54.1 Z M 227.2 51.4 C 227.2 50.5 226.8 50.3 226.5 50.3 C 225.9 50.3 225.4 50.6 225.4 52 C 225.4 53.6 225.6 54.2 226.5 54.2 C 226.7 54.2 227.3 54 227.2 53.1 C 227.2 53.1 228.1 53.1 228.1 53.1 C 228.1 54.5 227.1 54.9 226.5 54.9 C 225.4 54.9 224.6 54.6 224.6 52.4 C 224.6 50.9 224.7 49.7 226.5 49.7 C 227.5 49.7 228.1 50.2 228 51.4 C 228 51.4 227.2 51.4 227.2 51.4 Z M 229.6 49.8 L 229.6 48.8 L 230.5 48.4 L 230.5 49.8 L 231.6 49.8 L 231.6 50.4 L 230.5 50.4 C 230.5 50.4 230.47 53.46 230.5 53.5 C 230.5 53.8 230.5 54.2 231.2 54.2 C 231.3 54.2 231.4 54.2 231.6 54.2 C 231.6 54.2 231.6 54.8 231.6 54.8 C 231.3 54.8 231 54.9 230.8 54.9 C 230 54.9 229.6 54.5 229.6 54 C 229.65 53.96 229.6 50.4 229.6 50.4 L 228.8 50.4 L 228.8 49.8 L 229.6 49.8 Z M 235.2 52 C 235.2 50.6 234.7 50.3 234.1 50.3 C 233.5 50.3 233.1 50.6 233.1 52 C 233.1 53.6 233.3 54.2 234.1 54.2 C 235 54.2 235.2 53.6 235.2 52 Z M 232.2 52.4 C 232.2 50.9 232.4 49.7 234.1 49.7 C 235.9 49.7 236 50.9 236 52.4 C 236 54.6 235.2 54.9 234.1 54.9 C 233 54.9 232.2 54.6 232.2 52.4 Z M 238.2 50.5 C 238.2 50.5 238.21 50.51 238.2 50.5 C 238.5 49.7 239 49.7 239.8 49.7 C 239.8 49.7 239.8 50.5 239.8 50.5 C 239.7 50.5 239.6 50.5 239.5 50.5 C 239.5 50.5 239.4 50.5 239.3 50.5 C 238.4 50.5 238.2 51.1 238.2 51.8 C 238.19 51.82 238.2 54.8 238.2 54.8 L 237.4 54.8 L 237.4 49.8 L 238.2 49.8 L 238.2 50.5 Z M 247.6 54.8 L 246.5 54.8 L 244.8 51.7 L 243.2 54.8 L 242.2 54.8 L 244.3 51.1 L 242.3 47.6 L 243.4 47.6 L 244.9 50.4 L 246.4 47.6 L 247.4 47.6 L 245.4 51.1 L 247.6 54.8 Z M 249.6 54.8 L 248.7 54.8 L 248.7 47.6 L 249.6 47.6 L 249.6 54.8 Z M 252.4 54.8 L 251.4 54.8 L 251.4 47.6 L 252.4 47.6 L 252.4 54.8 Z M 254.8 53.3 C 254.8 53.8 255 54.2 255.5 54.2 C 256 54.2 256.7 53.9 256.6 52.3 C 255.8 52.3 254.8 52.2 254.8 53.3 Z M 256.6 54.1 C 256.6 54.1 256.59 54.07 256.6 54.1 C 256.3 54.7 255.9 54.9 255.3 54.9 C 254.2 54.9 253.9 54.2 253.9 53.2 C 253.9 51.7 255.4 51.6 256.6 51.7 C 256.6 51 256.6 50.3 255.7 50.3 C 255.2 50.3 254.9 50.6 254.9 51.2 C 254.9 51.2 254.1 51.2 254.1 51.2 C 254.1 50 254.7 49.7 255.8 49.7 C 257.1 49.7 257.4 50.3 257.4 51.2 C 257.4 51.2 257.4 53.6 257.4 53.6 C 257.4 54 257.4 54.4 257.5 54.8 C 257.51 54.8 256.6 54.8 256.6 54.8 L 256.6 54.1 Z M 262 54.8 L 261.2 54.8 L 261.2 49.8 L 262 49.8 L 262 54.8 Z M 261.2 47.6 L 262.1 47.6 L 262.1 48.5 L 261.2 48.5 L 261.2 47.6 Z M 266.2 54.8 C 266.2 54.8 266.19 51.3 266.2 51.3 C 266.2 50.8 266 50.3 265.3 50.3 C 264.4 50.3 264.3 51.1 264.3 51.8 C 264.27 51.81 264.3 54.8 264.3 54.8 L 263.4 54.8 C 263.4 54.8 263.45 50.8 263.4 50.8 C 263.4 50.5 263.4 50.1 263.4 49.8 C 263.4 49.75 264.3 49.8 264.3 49.8 L 264.3 50.4 C 264.3 50.4 264.31 50.4 264.3 50.4 C 264.6 49.8 265 49.7 265.7 49.7 C 266.7 49.7 267 50.3 267 51.3 C 267.01 51.3 267 54.8 267 54.8 L 266.2 54.8 Z M 271.2 54.8 C 271.2 54.8 271.19 51.38 271.2 51.4 C 271.2 50.8 271 50.3 270.3 50.3 C 269.5 50.3 269.3 51 269.3 51.8 C 269.26 51.83 269.3 54.8 269.3 54.8 L 268.4 54.8 L 268.4 47.6 L 269.3 47.6 L 269.3 50.4 C 269.3 50.4 269.3 50.4 269.3 50.4 C 269.6 49.8 270 49.7 270.7 49.7 C 271.5 49.7 272 50.1 272 51.2 C 272.01 51.22 272 54.8 272 54.8 L 271.2 54.8 Z M 274.2 54.8 L 273.4 54.8 L 273.4 49.8 L 274.2 49.8 L 274.2 54.8 Z M 273.4 47.6 L 274.3 47.6 L 274.3 48.5 L 273.4 48.5 L 273.4 47.6 Z M 277.5 54.2 C 278.5 54.2 278.5 53.1 278.5 52.4 C 278.5 51 278.4 50.3 277.5 50.3 C 276.6 50.3 276.6 51.4 276.6 52.1 C 276.6 52.8 276.5 54.2 277.5 54.2 Z M 276.6 54.8 L 275.7 54.8 L 275.7 47.6 L 276.6 47.6 L 276.6 50.3 C 276.6 50.3 276.59 50.26 276.6 50.3 C 276.9 49.9 277.2 49.7 277.7 49.7 C 279.3 49.7 279.4 51.1 279.4 52.4 C 279.4 54.6 278.5 54.9 277.7 54.9 C 277.2 54.9 276.9 54.7 276.6 54.2 C 276.58 54.2 276.6 54.2 276.6 54.2 L 276.6 54.8 Z M 281.5 54.8 L 280.6 54.8 L 280.6 49.8 L 281.5 49.8 L 281.5 54.8 Z M 280.6 47.6 L 281.5 47.6 L 281.5 48.5 L 280.6 48.5 L 280.6 47.6 Z M 283 49.8 L 283 48.8 L 283.8 48.4 L 283.8 49.8 L 284.9 49.8 L 284.9 50.4 L 283.8 50.4 C 283.8 50.4 283.79 53.46 283.8 53.5 C 283.8 53.8 283.8 54.2 284.5 54.2 C 284.6 54.2 284.7 54.2 284.9 54.2 C 284.9 54.2 284.9 54.8 284.9 54.8 C 284.6 54.8 284.4 54.9 284.1 54.9 C 283.3 54.9 283 54.5 283 54 C 282.98 53.96 283 50.4 283 50.4 L 282.1 50.4 L 282.1 49.8 L 283 49.8 Z M 288.5 52 C 288.5 50.6 288.1 50.3 287.4 50.3 C 286.8 50.3 286.4 50.6 286.4 52 C 286.4 53.6 286.6 54.2 287.4 54.2 C 288.3 54.2 288.5 53.6 288.5 52 Z M 285.5 52.4 C 285.5 50.9 285.7 49.7 287.4 49.7 C 289.2 49.7 289.4 50.9 289.4 52.4 C 289.4 54.6 288.5 54.9 287.4 54.9 C 286.4 54.9 285.5 54.6 285.5 52.4 Z M 291.5 50.5 C 291.5 50.5 291.53 50.51 291.5 50.5 C 291.9 49.7 292.3 49.7 293.1 49.7 C 293.1 49.7 293.1 50.5 293.1 50.5 C 293 50.5 292.9 50.5 292.9 50.5 C 292.8 50.5 292.7 50.5 292.7 50.5 C 291.7 50.5 291.5 51.1 291.5 51.8 C 291.51 51.82 291.5 54.8 291.5 54.8 L 290.7 54.8 L 290.7 49.8 L 291.5 49.8 L 291.5 50.5 Z " stroke="none" fill="#555555"/>  </g>  <g id="Polygon198032">    <path d="M 2.9 38.4 L 2 38.4 L 2 32.4 L 0.9 33.1 C 0.9 33.1 0.93 32.26 0.9 32.3 C 1.2 32.2 1.8 31.7 2.1 31.4 C 2.1 31.43 2.9 31.4 2.9 31.4 L 2.9 38.4 Z M 6 38.4 L 5.1 38.4 L 5.1 37.3 L 6 37.3 L 6 38.4 Z M 11.3 31.2 L 12.5 31.2 L 14.8 38.4 L 13.8 38.4 L 13.3 36.7 L 10.5 36.7 L 10 38.4 L 9 38.4 L 11.3 31.2 Z M 11.9 32 L 11.9 32 L 10.7 35.9 L 13 35.9 L 11.9 32 Z M 20.8 31.2 L 20.8 38.4 L 19.5 38.4 L 16.7 32.1 L 16.7 32.1 L 16.7 38.4 L 15.9 38.4 L 15.9 31.2 L 17.1 31.2 L 20 37.3 L 20 37.3 L 20 31.2 L 20.8 31.2 Z M 23.4 37.6 C 23.4 37.6 24.28 37.57 24.3 37.6 C 25.6 37.6 26 37.1 26 35.4 C 26 35.4 26 34 26 34 C 26 32.5 25.6 32 24.6 32 C 24.62 31.95 23.4 32 23.4 32 L 23.4 37.6 Z M 22.5 31.2 C 22.5 31.2 24.71 31.15 24.7 31.2 C 25.6 31.2 26.3 31.5 26.6 32.3 C 26.9 32.9 27 34.3 27 34.5 C 27 36.1 26.8 37 26.5 37.4 C 26.1 38.1 25.4 38.4 24.1 38.4 C 24.15 38.37 22.5 38.4 22.5 38.4 L 22.5 31.2 Z M 28.6 38.4 L 28.6 31.2 L 32.3 31.2 L 32.3 32 L 29.5 32 L 29.5 34.3 L 32.1 34.3 L 32.1 35.1 L 29.5 35.1 L 29.5 37.6 L 32.4 37.6 L 32.4 38.4 L 28.6 38.4 Z M 34.4 38.4 L 33.6 38.4 L 33.6 31.2 L 35.1 31.2 L 36.9 37.2 L 36.9 37.2 L 38.8 31.2 L 40.3 31.2 L 40.3 38.4 L 39.4 38.4 L 39.4 32 L 39.3 32 L 37.3 38.4 L 36.4 38.4 L 34.5 32 L 34.4 32 L 34.4 38.4 Z M 42.9 37.6 C 42.9 37.6 44.22 37.57 44.2 37.6 C 45.2 37.6 45.5 36.9 45.5 36.3 C 45.5 35.2 44.8 35 43.9 35 C 43.9 34.99 42.9 35 42.9 35 L 42.9 37.6 Z M 42.9 34.2 C 42.9 34.2 44.26 34.19 44.3 34.2 C 45 34.2 45.3 33.7 45.3 33 C 45.3 32.4 45 32 44.2 32 C 44.22 31.95 42.9 32 42.9 32 L 42.9 34.2 Z M 42 38.4 L 42 31.2 C 42 31.2 44.35 31.15 44.3 31.2 C 45.3 31.2 45.7 31.5 46 31.9 C 46.2 32.3 46.2 32.7 46.2 32.9 C 46.2 33.8 45.9 34.4 45 34.6 C 45 34.6 45 34.6 45 34.6 C 46 34.7 46.5 35.4 46.5 36.3 C 46.5 38.2 45.1 38.4 44.3 38.4 C 44.32 38.37 42 38.4 42 38.4 Z M 48.9 34.3 C 48.9 34.3 50.3 34.25 50.3 34.3 C 51 34.3 51.3 33.7 51.3 33.1 C 51.3 32.5 51 32 50.3 32 C 50.31 31.95 48.9 32 48.9 32 L 48.9 34.3 Z M 48.9 35.1 L 48.9 38.4 L 48 38.4 L 48 31.2 C 48 31.2 50.49 31.15 50.5 31.2 C 51.8 31.2 52.2 32.1 52.2 33 C 52.2 33.8 51.7 34.5 50.9 34.6 C 50.9 34.6 50.9 34.6 50.9 34.6 C 51.7 34.8 52 35 52.1 36.5 C 52.1 36.8 52.2 37.9 52.3 38.4 C 52.3 38.4 51.4 38.4 51.4 38.4 C 51.1 37.9 51.2 36.9 51.1 36 C 51 35.1 50.3 35.1 50 35.1 C 50 35.05 48.9 35.1 48.9 35.1 Z M 56.7 31.2 L 57.7 31.2 L 55.7 35.6 L 55.7 38.4 L 54.8 38.4 L 54.8 35.6 L 52.8 31.2 L 53.9 31.2 L 55.3 34.6 L 56.7 31.2 Z M 62.3 32.9 C 62.3 34.2 61.3 35.1 60.1 35.1 C 58.9 35.1 57.9 34.2 57.9 32.9 C 57.9 31.7 58.9 30.7 60.1 30.7 C 61.3 30.7 62.3 31.7 62.3 32.9 Z M 58.2 32.9 C 58.2 34 59.1 34.8 60.1 34.8 C 61.1 34.8 62 34 62 32.9 C 62 31.9 61.1 31.1 60.1 31.1 C 59.1 31.1 58.2 31.9 58.2 32.9 Z M 59.7 34.2 L 59.3 34.2 L 59.3 31.7 C 59.3 31.7 60.29 31.68 60.3 31.7 C 60.8 31.7 61 32 61 32.3 C 61 32.6 60.8 32.8 60.4 32.9 C 60.4 32.9 60.4 32.9 60.4 32.9 C 60.8 32.9 60.9 33 60.9 33.5 C 60.9 33.7 60.9 34 61 34.2 C 61 34.2 60.6 34.2 60.6 34.2 C 60.5 34 60.5 33.7 60.5 33.4 C 60.5 33.1 60.2 33.1 60.1 33.1 C 60.1 33.08 59.7 33.1 59.7 33.1 L 59.7 34.2 Z M 59.7 32.8 C 59.7 32.8 60.22 32.75 60.2 32.8 C 60.5 32.8 60.6 32.6 60.6 32.3 C 60.6 32.2 60.5 32 60.2 32 C 60.22 31.96 59.7 32 59.7 32 L 59.7 32.8 Z M 66.2 36.2 C 66.2 36.2 66.17 36.43 66.2 36.4 C 66.2 37.4 66.8 37.7 67.4 37.7 C 68.1 37.7 68.7 37.4 68.7 36.6 C 68.7 35 65.4 35.1 65.4 33 C 65.4 31.7 66.3 31 67.6 31 C 68.9 31 69.6 31.6 69.6 33.1 C 69.6 33.1 68.6 33.1 68.6 33.1 C 68.6 32.3 68.4 31.8 67.5 31.8 C 66.9 31.8 66.4 32.1 66.4 32.9 C 66.4 34.5 69.6 34.2 69.6 36.5 C 69.6 38 68.6 38.5 67.4 38.5 C 65.2 38.5 65.2 36.9 65.3 36.2 C 65.26 36.22 66.2 36.2 66.2 36.2 Z M 73.4 38.4 C 73.4 38.4 73.41 34.87 73.4 34.9 C 73.4 34.4 73.3 33.9 72.6 33.9 C 72.4 33.9 72 34 71.9 34.2 C 71.8 34.5 71.7 34.8 71.7 35 C 71.71 34.97 71.7 38.4 71.7 38.4 L 70.9 38.4 C 70.9 38.4 70.89 34.37 70.9 34.4 C 70.9 34 70.9 33.7 70.8 33.3 C 70.84 33.32 71.7 33.3 71.7 33.3 L 71.7 34 C 71.7 34 71.73 33.95 71.7 34 C 72 33.4 72.4 33.2 73 33.2 C 73.5 33.2 74 33.4 74.2 33.9 C 74.5 33.3 74.9 33.2 75.4 33.2 C 75.9 33.2 76.8 33.3 76.8 34.5 C 76.75 34.53 76.8 38.4 76.8 38.4 L 75.9 38.4 C 75.9 38.4 75.93 34.87 75.9 34.9 C 75.9 34.4 75.8 33.9 75.1 33.9 C 74.8 33.9 74.7 33.9 74.5 34.1 C 74.3 34.3 74.2 34.8 74.2 35 C 74.23 34.97 74.2 38.4 74.2 38.4 L 73.4 38.4 Z M 79.3 34.4 C 79.3 34.4 80.29 34.39 80.3 34.4 C 80.7 34.4 81.6 34.3 81.6 33.2 C 81.6 32.1 80.8 32 80.6 32 C 80.55 31.95 79.3 32 79.3 32 L 79.3 34.4 Z M 78.4 38.4 L 78.4 31.2 C 78.4 31.2 80.5 31.15 80.5 31.2 C 81.5 31.2 82.5 31.5 82.5 33.2 C 82.5 34.9 81.2 35.2 80.5 35.2 C 80.49 35.19 79.3 35.2 79.3 35.2 L 79.3 38.4 L 78.4 38.4 Z M 87 33.1 C 87 32.7 87 32.3 86.8 32.1 C 86.6 31.9 86.2 31.8 86 31.8 C 85.2 31.8 84.9 32.2 84.9 32.3 C 84.8 32.4 84.7 32.6 84.7 33.8 C 84.7 33.8 84.7 35.8 84.7 35.8 C 84.7 37.5 85.2 37.8 86 37.8 C 86.2 37.8 87.1 37.7 87.1 36.2 C 87.1 36.2 88 36.2 88 36.2 C 88.1 38.5 86.5 38.5 86 38.5 C 85.1 38.5 83.7 38.5 83.7 35.7 C 83.7 35.7 83.7 33.6 83.7 33.6 C 83.7 31.6 84.6 31 86 31 C 87.5 31 88 31.7 87.9 33.1 C 87.9 33.1 87 33.1 87 33.1 Z M 92.6 37.6 C 92.6 37.6 93.89 37.57 93.9 37.6 C 94.9 37.6 95.2 36.9 95.2 36.3 C 95.2 35.2 94.5 35 93.6 35 C 93.57 34.99 92.6 35 92.6 35 L 92.6 37.6 Z M 92.6 34.2 C 92.6 34.2 93.93 34.19 93.9 34.2 C 94.7 34.2 95 33.7 95 33 C 95 32.4 94.7 32 93.9 32 C 93.89 31.95 92.6 32 92.6 32 L 92.6 34.2 Z M 91.7 38.4 L 91.7 31.2 C 91.7 31.2 94.02 31.15 94 31.2 C 95 31.2 95.4 31.5 95.6 31.9 C 95.9 32.3 95.9 32.7 95.9 32.9 C 95.9 33.8 95.6 34.4 94.7 34.6 C 94.7 34.6 94.7 34.6 94.7 34.6 C 95.7 34.7 96.2 35.4 96.2 36.3 C 96.2 38.2 94.8 38.4 94 38.4 C 93.99 38.37 91.7 38.4 91.7 38.4 Z M 97.7 38.4 L 97.7 31.2 L 101.4 31.2 L 101.4 32 L 98.6 32 L 98.6 34.3 L 101.2 34.3 L 101.2 35.1 L 98.6 35.1 L 98.6 37.6 L 101.5 37.6 L 101.5 38.4 L 97.7 38.4 Z M 102.7 38.4 L 102.7 31.2 L 103.6 31.2 L 103.6 37.6 L 106.3 37.6 L 106.3 38.4 L 102.7 38.4 Z M 107.1 31.2 L 108 31.2 C 108 31.2 108.02 35.77 108 35.8 C 108 37.4 108.5 37.8 109.4 37.8 C 110.2 37.8 110.7 37.4 110.7 35.8 C 110.72 35.77 110.7 31.2 110.7 31.2 L 111.6 31.2 C 111.6 31.2 111.64 35.73 111.6 35.7 C 111.6 37.7 110.9 38.5 109.4 38.5 C 107.8 38.5 107.1 37.7 107.1 35.7 C 107.1 35.73 107.1 31.2 107.1 31.2 Z M 117.9 38.4 L 116.8 38.4 L 115.1 35.3 L 113.5 38.4 L 112.5 38.4 L 114.6 34.6 L 112.6 31.2 L 113.7 31.2 L 115.1 34 L 116.6 31.2 L 117.7 31.2 L 115.7 34.6 L 117.9 38.4 Z M 118.9 37.3 L 119.9 37.3 L 119 39.6 L 118.3 39.6 L 118.9 37.3 Z M 119.6 34.4 L 118.6 34.4 L 118.6 33.3 L 119.6 33.3 L 119.6 34.4 Z M 126.5 34.9 C 126.5 36.7 126.5 38.5 124.7 38.5 C 122.8 38.5 122.8 36.7 122.8 34.9 C 122.8 33.1 122.8 31.3 124.7 31.3 C 126.6 31.3 126.5 33.1 126.5 34.9 Z M 123.7 35.1 C 123.7 36.3 123.6 37.8 124.7 37.8 C 125.7 37.8 125.6 36.3 125.6 35.1 C 125.6 33.2 125.6 32.1 124.7 32.1 C 123.7 32.1 123.7 33.2 123.7 35.1 Z M 127.3 38.4 C 127.3 38.4 127.3 37.57 127.3 37.6 C 129.3 34.7 129.9 34.2 129.9 33 C 129.9 32.5 129.7 32.1 129.1 32.1 C 128.4 32.1 128.3 32.7 128.3 33.2 C 128.3 33.2 127.3 33.2 127.3 33.2 C 127.2 32.1 127.8 31.3 129 31.3 C 130.3 31.3 130.9 31.9 130.9 33.1 C 130.9 34.7 130.1 35.2 128.3 37.6 C 128.28 37.57 131 37.6 131 37.6 L 131 38.4 L 127.3 38.4 Z M 131.7 39.3 L 131.1 39.3 L 133.4 31.2 L 134.1 31.2 L 131.7 39.3 Z M 134.5 38.4 C 134.5 38.4 134.52 37.57 134.5 37.6 C 136.6 34.7 137.2 34.2 137.2 33 C 137.2 32.5 136.9 32.1 136.3 32.1 C 135.6 32.1 135.5 32.7 135.5 33.2 C 135.5 33.2 134.5 33.2 134.5 33.2 C 134.5 32.1 135 31.3 136.2 31.3 C 137.5 31.3 138.1 31.9 138.1 33.1 C 138.1 34.7 137.3 35.2 135.5 37.6 C 135.5 37.57 138.3 37.6 138.3 37.6 L 138.3 38.4 L 134.5 38.4 Z M 142.6 34.9 C 142.6 36.7 142.6 38.5 140.8 38.5 C 138.9 38.5 138.9 36.7 138.9 34.9 C 138.9 33.1 138.9 31.3 140.8 31.3 C 142.7 31.3 142.6 33.1 142.6 34.9 Z M 139.8 35.1 C 139.8 36.3 139.7 37.8 140.8 37.8 C 141.8 37.8 141.7 36.3 141.7 35.1 C 141.7 33.2 141.7 32.1 140.8 32.1 C 139.8 32.1 139.8 33.2 139.8 35.1 Z M 143.4 38.4 C 143.4 38.4 143.4 37.57 143.4 37.6 C 145.4 34.7 146 34.2 146 33 C 146 32.5 145.8 32.1 145.2 32.1 C 144.5 32.1 144.4 32.7 144.4 33.2 C 144.4 33.2 143.4 33.2 143.4 33.2 C 143.3 32.1 143.9 31.3 145.1 31.3 C 146.4 31.3 147 31.9 147 33.1 C 147 34.7 146.2 35.2 144.4 37.6 C 144.38 37.57 147.1 37.6 147.1 37.6 L 147.1 38.4 L 143.4 38.4 Z M 151.2 31.4 L 151.2 32.2 L 148.9 32.2 L 148.9 34.3 C 148.9 34.3 148.94 34.27 148.9 34.3 C 149.1 34 149.6 33.8 150 33.8 C 151 33.8 151.5 34.5 151.5 36.1 C 151.5 37.2 151.4 38.5 149.6 38.5 C 148.2 38.5 147.9 37.7 147.9 36.8 C 147.9 36.8 148.8 36.8 148.8 36.8 C 148.8 37.3 149 37.9 149.6 37.9 C 150.5 37.9 150.6 37 150.6 36.3 C 150.6 35.3 150.5 34.5 149.7 34.5 C 149.2 34.5 148.9 34.9 148.8 35.3 C 148.83 35.33 148 35.3 148 35.3 L 148 31.4 L 151.2 31.4 Z M 153.4 38.4 L 152.5 38.4 L 152.5 37.3 L 153.4 37.3 L 153.4 38.4 Z " stroke="none" fill="#555555"/>  </g>  <g id="Polygon198031">    <path d="M 2.1 17.8 C 2.1 17.8 2.78 17.84 2.8 17.8 C 3.4 17.8 3.6 17.2 3.6 16.8 C 3.6 16.1 3.3 15.8 2.8 15.8 C 2.78 15.83 2.1 15.8 2.1 15.8 L 2.1 17.8 Z M 2.1 21.9 L 0.6 21.9 L 0.6 14.7 C 0.6 14.7 3.39 14.72 3.4 14.7 C 4.4 14.7 5.1 15.4 5.1 16.6 C 5.1 17.5 4.7 18.2 3.7 18.4 C 3.7 18.4 3.7 18.4 3.7 18.4 C 4.1 18.4 5 18.5 5 19.8 C 5 20.3 5.1 21.6 5.2 21.9 C 5.2 21.9 3.7 21.9 3.7 21.9 C 3.5 21.5 3.6 21 3.6 20.5 C 3.6 19.7 3.7 19 2.5 19 C 2.5 18.95 2.1 19 2.1 19 L 2.1 21.9 Z M 8.7 18.9 C 8.7 18.4 8.7 17.7 8.1 17.7 C 7.4 17.7 7.4 18.4 7.4 18.9 C 7.4 18.9 8.7 18.9 8.7 18.9 Z M 7.4 19.6 C 7.4 20.2 7.4 21.1 8.1 21.1 C 8.6 21.1 8.7 20.7 8.7 20.2 C 8.7 20.2 10.1 20.2 10.1 20.2 C 10.1 20.8 9.9 21.2 9.5 21.6 C 9.2 21.9 8.7 22 8.1 22 C 6.2 22 6 20.9 6 19.4 C 6 18 6.2 16.8 8.1 16.8 C 10 16.8 10.2 18 10.1 19.6 C 10.1 19.6 7.4 19.6 7.4 19.6 Z M 13.3 15.6 C 12.7 15.6 12.6 15.8 12.6 16.3 C 12.6 16.28 12.6 16.9 12.6 16.9 L 13.3 16.9 L 13.3 17.8 L 12.6 17.8 L 12.6 21.9 L 11.2 21.9 L 11.2 17.8 L 10.6 17.8 L 10.6 16.9 C 10.6 16.9 11.2 16.89 11.2 16.9 C 11.2 15.4 11.1 14.7 12.8 14.7 C 13 14.7 13.1 14.7 13.3 14.7 C 13.3 14.7 13.3 15.6 13.3 15.6 Z M 16.5 18.9 C 16.5 18.4 16.5 17.7 15.8 17.7 C 15.2 17.7 15.2 18.4 15.2 18.9 C 15.2 18.9 16.5 18.9 16.5 18.9 Z M 15.2 19.6 C 15.2 20.2 15.2 21.1 15.8 21.1 C 16.3 21.1 16.4 20.7 16.4 20.2 C 16.4 20.2 17.9 20.2 17.9 20.2 C 17.8 20.8 17.7 21.2 17.3 21.6 C 17 21.9 16.5 22 15.8 22 C 14 22 13.8 20.9 13.8 19.4 C 13.8 18 14 16.8 15.8 16.8 C 17.7 16.8 17.9 18 17.9 19.6 C 17.9 19.6 15.2 19.6 15.2 19.6 Z M 20.2 16.9 L 20.2 17.5 C 20.2 17.5 20.26 17.54 20.3 17.5 C 20.5 17 21 16.8 21.6 16.8 C 21.6 16.8 21.6 18.1 21.6 18.1 C 20.3 18 20.3 18.7 20.3 19.2 C 20.31 19.19 20.3 21.9 20.3 21.9 L 18.9 21.9 L 18.9 16.9 L 20.2 16.9 Z M 24.8 18.9 C 24.8 18.4 24.8 17.7 24.2 17.7 C 23.5 17.7 23.5 18.4 23.5 18.9 C 23.5 18.9 24.8 18.9 24.8 18.9 Z M 23.5 19.6 C 23.5 20.2 23.5 21.1 24.2 21.1 C 24.7 21.1 24.8 20.7 24.8 20.2 C 24.8 20.2 26.2 20.2 26.2 20.2 C 26.2 20.8 26 21.2 25.7 21.6 C 25.3 21.9 24.8 22 24.2 22 C 22.4 22 22.1 20.9 22.1 19.4 C 22.1 18 22.3 16.8 24.2 16.8 C 26.1 16.8 26.3 18 26.2 19.6 C 26.2 19.6 23.5 19.6 23.5 19.6 Z M 28.6 17.4 C 28.6 17.4 28.66 17.4 28.7 17.4 C 28.8 17.2 29 17 29.2 16.9 C 29.4 16.8 29.6 16.8 29.9 16.8 C 30.5 16.8 31.1 17.2 31.1 17.9 C 31.11 17.89 31.1 21.9 31.1 21.9 L 29.7 21.9 C 29.7 21.9 29.7 18.46 29.7 18.5 C 29.7 18 29.6 17.7 29.2 17.7 C 28.7 17.7 28.6 18 28.6 18.5 C 28.64 18.46 28.6 21.9 28.6 21.9 L 27.2 21.9 L 27.2 16.9 L 28.6 16.9 L 28.6 17.4 Z M 34.8 18.7 C 34.8 17.9 34.6 17.7 34.2 17.7 C 33.6 17.7 33.5 18.2 33.5 19.3 C 33.5 20.8 33.6 21.1 34.2 21.1 C 34.6 21.1 34.8 20.7 34.8 20.1 C 34.8 20.1 36.2 20.1 36.2 20.1 C 36.2 21.5 35.5 22 34.2 22 C 32.4 22 32.1 20.9 32.1 19.4 C 32.1 18 32.3 16.8 34.2 16.8 C 35.5 16.8 36.2 17.4 36.2 18.7 C 36.2 18.7 34.8 18.7 34.8 18.7 Z M 39.8 18.9 C 39.8 18.4 39.8 17.7 39.2 17.7 C 38.5 17.7 38.5 18.4 38.5 18.9 C 38.5 18.9 39.8 18.9 39.8 18.9 Z M 38.5 19.6 C 38.5 20.2 38.5 21.1 39.2 21.1 C 39.7 21.1 39.8 20.7 39.8 20.2 C 39.8 20.2 41.2 20.2 41.2 20.2 C 41.2 20.8 41 21.2 40.7 21.6 C 40.3 21.9 39.8 22 39.2 22 C 37.4 22 37.1 20.9 37.1 19.4 C 37.1 18 37.3 16.8 39.2 16.8 C 41.1 16.8 41.3 18 41.2 19.6 C 41.2 19.6 38.5 19.6 38.5 19.6 Z M 43.3 20.3 C 43.3 20.6 43.3 20.8 43.4 20.9 C 43.5 21.1 43.6 21.2 43.9 21.2 C 44.2 21.2 44.4 21 44.4 20.7 C 44.4 19.6 42 19.8 42 18.2 C 42 17.1 43 16.8 44 16.8 C 44.9 16.8 45.8 17.3 45.7 18.3 C 45.7 18.3 44.3 18.3 44.3 18.3 C 44.3 18 44.3 17.8 44.2 17.7 C 44.1 17.6 44 17.6 43.8 17.6 C 43.5 17.6 43.3 17.8 43.3 18.1 C 43.3 18.9 45.8 18.9 45.8 20.5 C 45.8 21.4 45.1 22 43.9 22 C 42.7 22 41.9 21.7 42 20.3 C 42 20.3 43.3 20.3 43.3 20.3 Z M 47.8 16.9 L 47.8 18.2 L 46.6 18.2 L 46.6 16.9 L 47.8 16.9 Z M 47.8 21.9 L 46.6 21.9 L 46.6 20.6 L 47.8 20.6 L 47.8 21.9 Z " stroke="none" fill="#555555"/>  </g></svg>