<?xml version="1.0" standalone="no"?><!DOCTYPE svg PUBLIC "-//W3C//DTD SVG 1.1//EN" "http://www.w3.org/Graphics/SVG/1.1/DTD/svg11.dtd"><svg xmlns="http://www.w3.org/2000/svg" version="1.1" width="195px" height="35.9px" viewBox="0 -5 195 35.9" style="top:-5px">  <desc>01/2021 06/2022</desc>  <defs/>  <g id="Polygon195113">    <path d="M 7.6 6.7 C 7.6 10.6 7.3 13.1 4 13.1 C 0.6 13.1 0.4 10.6 0.4 6.7 C 0.4 1.9 0.9 0.3 4 0.3 C 7 0.3 7.6 1.9 7.6 6.7 Z M 2.9 6.7 C 2.9 10.5 3 11.3 4 11.3 C 5 11.3 5 10.5 5 6.7 C 5 2.9 5 2.1 4 2.1 C 2.9 2.1 2.9 2.9 2.9 6.7 Z M 8.8 2.4 C 9.7 1.9 10.6 1.3 11.2 0.5 C 11.2 0.46 13.6 0.5 13.6 0.5 L 13.6 12.9 L 10.9 12.9 C 10.9 12.9 10.9 3.34 10.9 3.3 C 10.3 3.9 9.5 4.3 8.8 4.7 C 8.8 4.7 8.8 2.4 8.8 2.4 Z M 15.3 14.6 L 19.5 0 L 21.4 0 L 17.1 14.6 L 15.3 14.6 Z M 21 12.9 C 21 12.9 21.01 10.72 21 10.7 C 24.9 5.5 25.8 4.9 25.8 3.3 C 25.8 2.7 25.5 2.1 24.8 2.1 C 23.8 2.1 23.7 3.1 23.7 3.9 C 23.7 3.9 21.2 3.9 21.2 3.9 C 21 1.6 22.3 0.3 24.6 0.3 C 26.8 0.3 28.3 1.2 28.3 3.5 C 28.3 6.3 25 9.5 23.7 11 C 23.66 10.99 28.4 11 28.4 11 L 28.4 12.9 L 21 12.9 Z M 36.3 6.7 C 36.3 10.6 36 13.1 32.7 13.1 C 29.3 13.1 29.1 10.6 29.1 6.7 C 29.1 1.9 29.6 0.3 32.7 0.3 C 35.8 0.3 36.3 1.9 36.3 6.7 Z M 31.6 6.7 C 31.6 10.5 31.7 11.3 32.7 11.3 C 33.7 11.3 33.8 10.5 33.8 6.7 C 33.8 2.9 33.8 2.1 32.7 2.1 C 31.6 2.1 31.6 2.9 31.6 6.7 Z M 36.9 12.9 C 36.9 12.9 36.86 10.72 36.9 10.7 C 40.8 5.5 41.6 4.9 41.6 3.3 C 41.6 2.7 41.4 2.1 40.7 2.1 C 39.6 2.1 39.6 3.1 39.6 3.9 C 39.6 3.9 37.1 3.9 37.1 3.9 C 36.9 1.6 38.2 0.3 40.5 0.3 C 42.6 0.3 44.1 1.2 44.1 3.5 C 44.1 6.3 40.9 9.5 39.5 11 C 39.5 10.99 44.2 11 44.2 11 L 44.2 12.9 L 36.9 12.9 Z M 45.4 2.4 C 46.3 1.9 47.2 1.3 47.8 0.5 C 47.85 0.46 50.2 0.5 50.2 0.5 L 50.2 12.9 L 47.5 12.9 C 47.5 12.9 47.54 3.34 47.5 3.3 C 46.9 3.9 46.2 4.3 45.4 4.7 C 45.4 4.7 45.4 2.4 45.4 2.4 Z M 61.6 7.2 L 61.6 9 L 57.2 9 L 57.2 7.2 L 61.6 7.2 Z M 73.9 6.7 C 73.9 10.6 73.7 13.1 70.3 13.1 C 67 13.1 66.7 10.6 66.7 6.7 C 66.7 1.9 67.2 0.3 70.3 0.3 C 73.4 0.3 73.9 1.9 73.9 6.7 Z M 69.2 6.7 C 69.2 10.5 69.3 11.3 70.3 11.3 C 71.3 11.3 71.4 10.5 71.4 6.7 C 71.4 2.9 71.4 2.1 70.3 2.1 C 69.2 2.1 69.2 2.9 69.2 6.7 Z M 79.3 8.8 C 79.3 7.3 79.1 6.6 78.2 6.6 C 77.2 6.6 77.1 7.5 77.1 9.1 C 77.1 9.8 77.1 11.3 78.2 11.3 C 79 11.3 79.3 10.8 79.3 8.8 Z M 79.1 3.2 C 79.1 2.8 79 2.6 78.9 2.4 C 78.8 2.1 78.6 2 78.2 2 C 77.1 2 77.1 2.6 77.1 5.7 C 77.8 5.1 78.1 4.9 79.1 4.9 C 81.4 4.9 81.8 6.9 81.8 8.8 C 81.8 11.4 80.9 13.1 78.1 13.1 C 74.8 13.1 74.6 10.3 74.6 7.7 C 74.6 2.8 74.9 0.3 78.4 0.3 C 80.3 0.3 81.7 1.1 81.7 3.2 C 81.7 3.2 79.1 3.2 79.1 3.2 Z M 81.6 14.6 L 85.9 0 L 87.7 0 L 83.5 14.6 L 81.6 14.6 Z M 87.4 12.9 C 87.4 12.9 87.36 10.72 87.4 10.7 C 91.3 5.5 92.1 4.9 92.1 3.3 C 92.1 2.7 91.9 2.1 91.2 2.1 C 90.1 2.1 90.1 3.1 90.1 3.9 C 90.1 3.9 87.6 3.9 87.6 3.9 C 87.4 1.6 88.7 0.3 91 0.3 C 93.1 0.3 94.6 1.2 94.6 3.5 C 94.6 6.3 91.4 9.5 90 11 C 90 10.99 94.7 11 94.7 11 L 94.7 12.9 L 87.4 12.9 Z M 102.6 6.7 C 102.6 10.6 102.4 13.1 99 13.1 C 95.7 13.1 95.4 10.6 95.4 6.7 C 95.4 1.9 96 0.3 99 0.3 C 102.1 0.3 102.6 1.9 102.6 6.7 Z M 97.9 6.7 C 97.9 10.5 98 11.3 99 11.3 C 100 11.3 100.1 10.5 100.1 6.7 C 100.1 2.9 100.1 2.1 99 2.1 C 98 2.1 97.9 2.9 97.9 6.7 Z M 103.2 12.9 C 103.2 12.9 103.2 10.72 103.2 10.7 C 107.1 5.5 107.9 4.9 107.9 3.3 C 107.9 2.7 107.7 2.1 107 2.1 C 106 2.1 105.9 3.1 105.9 3.9 C 105.9 3.9 103.4 3.9 103.4 3.9 C 103.2 1.6 104.5 0.3 106.8 0.3 C 109 0.3 110.5 1.2 110.5 3.5 C 110.5 6.3 107.2 9.5 105.8 11 C 105.84 10.99 110.6 11 110.6 11 L 110.6 12.9 L 103.2 12.9 Z M 111.1 12.9 C 111.1 12.9 111.12 10.72 111.1 10.7 C 115 5.5 115.9 4.9 115.9 3.3 C 115.9 2.7 115.6 2.1 114.9 2.1 C 113.9 2.1 113.8 3.1 113.8 3.9 C 113.8 3.9 111.3 3.9 111.3 3.9 C 111.1 1.6 112.4 0.3 114.7 0.3 C 116.9 0.3 118.4 1.2 118.4 3.5 C 118.4 6.3 115.1 9.5 113.8 11 C 113.76 10.99 118.5 11 118.5 11 L 118.5 12.9 L 111.1 12.9 Z " stroke="none" fill="#00b398"/>  </g></svg>