<?xml version="1.0" standalone="no"?><!DOCTYPE svg PUBLIC "-//W3C//DTD SVG 1.1//EN" "http://www.w3.org/Graphics/SVG/1.1/DTD/svg11.dtd"><svg xmlns="http://www.w3.org/2000/svg" version="1.1" width="14px" height="54.2px" viewBox="0 -8 14 54.2" style="top:-8px">  <desc>3</desc>  <defs/>  <g id="Polygon193000">    <path d="M 1.4 19.6 L 4.8 19.6 C 4.8 19.6 4.85 21.02 4.8 21 C 4.8 23.1 5.4 24.3 6.9 24.3 C 8.4 24.3 8.9 23.1 8.9 21 C 8.9 21 8.9 17.9 8.9 17.9 C 8.9 15.4 8.3 14.7 5.8 14.7 C 5.77 14.65 4.8 14.7 4.8 14.7 L 4.8 11.5 C 4.8 11.5 6.03 11.54 6 11.5 C 8.3 11.5 8.8 11 8.8 8.3 C 8.8 8.3 8.8 5.4 8.8 5.4 C 8.8 3.1 8.1 2.5 7.1 2.5 C 5.6 2.5 5 3.7 5 5.8 C 5.03 5.85 5 6.7 5 6.7 C 5 6.7 1.55 6.73 1.6 6.7 C 1.6 1.6 2.7 -0.1 7.1 -0.1 C 11.4 -0.1 12.3 1.9 12.3 7 C 12.3 11.6 11.7 12.5 9 13 C 9 13 9 13.1 9 13.1 C 11.3 13.4 12.4 14 12.4 20.4 C 12.4 25.2 11.3 27 6.9 27 C 2.5 27 1.4 25.2 1.4 20.4 C 1.37 20.42 1.4 19.6 1.4 19.6 Z " stroke="none" fill="#fff"/>  </g></svg>