<?xml version="1.0" standalone="no"?><!DOCTYPE svg PUBLIC "-//W3C//DTD SVG 1.1//EN" "http://www.w3.org/Graphics/SVG/1.1/DTD/svg11.dtd"><svg xmlns="http://www.w3.org/2000/svg" version="1.1" width="260px" height="147.8px" viewBox="0 -4 260 147.8" style="top:-4px">  <desc>ANDEMBRY® group: 3.07 (2.41 3.73) attacks during run in vs 0.11 ( 0.11 0.34) at week 12‡ (95% CI) Placebo group: 2.52...</desc>  <defs/>  <g id="Polygon196558">    <path d="M 2.9 79.2 L 2 79.2 L 2 73.3 L 0.9 74 C 0.9 74 0.93 73.13 0.9 73.1 C 1.2 73 1.8 72.5 2.1 72.3 C 2.1 72.3 2.9 72.3 2.9 72.3 L 2.9 79.2 Z M 6 79.2 L 5.1 79.2 L 5.1 78.2 L 6 78.2 L 6 79.2 Z M 9.8 77.4 C 9.8 76.8 9.7 76 8.9 76 C 8 76 7.9 76.8 7.9 77.4 C 7.9 78 8.2 78.6 8.9 78.6 C 9.6 78.6 9.8 78 9.8 77.4 Z M 9.5 75.6 C 10.5 75.7 10.7 76.5 10.7 77.4 C 10.7 78.6 10.1 79.4 8.9 79.4 C 7.7 79.4 7 78.6 7 77.4 C 7 76.5 7.3 75.7 8.3 75.6 C 8.3 75.6 8.3 75.6 8.3 75.6 C 7.5 75.4 7.1 74.7 7.1 73.9 C 7.1 72.8 7.8 72.2 8.9 72.2 C 10 72.2 10.7 72.8 10.7 73.9 C 10.7 74.7 10.3 75.4 9.5 75.6 C 9.5 75.6 9.5 75.6 9.5 75.6 Z M 9.7 73.9 C 9.7 73.4 9.5 72.9 8.9 72.9 C 8.3 72.9 8 73.4 8 73.9 C 8 74.4 8.2 75.2 8.9 75.2 C 9.6 75.2 9.7 74.4 9.7 73.9 Z M 14 79.2 L 13.1 79.2 L 13.1 73.3 L 12 74 C 12 74 12.03 73.13 12 73.1 C 12.3 73 12.9 72.5 13.2 72.3 C 13.2 72.3 14 72.3 14 72.3 L 14 79.2 Z M 19.2 80.4 C 18.8 79 18.3 77.6 18.3 76.1 C 18.3 74.6 18.8 73.1 19.3 71.7 C 19.3 71.7 19.9 71.7 19.9 71.7 C 19.5 73.1 19.2 74.6 19.2 76.1 C 19.2 77.6 19.5 79 19.8 80.4 C 19.8 80.4 19.2 80.4 19.2 80.4 Z M 24.6 75.8 C 24.6 77.6 24.6 79.4 22.8 79.4 C 20.9 79.4 20.9 77.6 20.9 75.8 C 20.9 73.9 20.9 72.2 22.8 72.2 C 24.7 72.2 24.6 73.9 24.6 75.8 Z M 21.8 76 C 21.8 77.2 21.7 78.6 22.8 78.6 C 23.8 78.6 23.7 77.2 23.7 76 C 23.7 74.1 23.7 73 22.8 73 C 21.8 73 21.8 74.1 21.8 76 Z M 26.6 79.2 L 25.6 79.2 L 25.6 78.2 L 26.6 78.2 L 26.6 79.2 Z M 27.5 72.3 L 31.1 72.3 L 31.1 73.1 L 29.2 79.2 L 28.2 79.2 L 30.1 73.1 L 27.5 73.1 L 27.5 72.3 Z M 34.2 76.8 L 34.2 73.1 L 34.2 73.1 L 32.7 76.8 L 34.2 76.8 Z M 31.9 77.5 L 31.9 76.8 L 33.8 72.3 L 35.1 72.3 L 35.1 76.8 L 35.9 76.8 L 35.9 77.5 L 35.1 77.5 L 35.1 79.2 L 34.2 79.2 L 34.2 77.5 L 31.9 77.5 Z M 38.9 76.1 L 41.1 76.1 L 41.1 76.9 L 38.9 76.9 L 38.9 76.1 Z M 44.3 79.2 C 44.3 79.2 44.28 78.44 44.3 78.4 C 46.3 75.6 46.9 75.1 46.9 73.9 C 46.9 73.3 46.6 73 46 73 C 45.4 73 45.2 73.5 45.2 74.1 C 45.2 74.1 44.3 74.1 44.3 74.1 C 44.2 72.9 44.8 72.2 46 72.2 C 47.2 72.2 47.8 72.8 47.8 74 C 47.8 75.6 47 76.1 45.3 78.4 C 45.26 78.44 48 78.4 48 78.4 L 48 79.2 L 44.3 79.2 Z M 49.9 79.2 L 48.9 79.2 L 48.9 78.2 L 49.9 78.2 L 49.9 79.2 Z M 53.7 77.4 C 53.7 76.8 53.6 76 52.7 76 C 51.9 76 51.8 76.8 51.8 77.4 C 51.8 78 52 78.6 52.7 78.6 C 53.4 78.6 53.7 78 53.7 77.4 Z M 53.3 75.6 C 54.3 75.7 54.6 76.5 54.6 77.4 C 54.6 78.6 53.9 79.4 52.7 79.4 C 51.5 79.4 50.9 78.6 50.9 77.4 C 50.9 76.5 51.1 75.7 52.2 75.6 C 52.2 75.6 52.2 75.6 52.2 75.6 C 51.3 75.4 50.9 74.7 50.9 73.9 C 50.9 72.8 51.6 72.2 52.7 72.2 C 53.8 72.2 54.5 72.8 54.5 73.9 C 54.5 74.7 54.1 75.4 53.3 75.6 C 53.3 75.6 53.3 75.6 53.3 75.6 Z M 53.6 73.9 C 53.6 73.4 53.3 72.9 52.7 72.9 C 52.1 72.9 51.9 73.4 51.9 73.9 C 51.9 74.4 52 75.2 52.7 75.2 C 53.4 75.2 53.6 74.4 53.6 73.9 Z M 58.1 77.4 C 58.1 76.8 58 76 57.2 76 C 56.3 76 56.2 76.8 56.2 77.4 C 56.2 78 56.5 78.6 57.2 78.6 C 57.9 78.6 58.1 78 58.1 77.4 Z M 57.7 75.6 C 58.8 75.7 59 76.5 59 77.4 C 59 78.6 58.4 79.4 57.2 79.4 C 56 79.4 55.3 78.6 55.3 77.4 C 55.3 76.5 55.6 75.7 56.6 75.6 C 56.6 75.6 56.6 75.6 56.6 75.6 C 55.8 75.4 55.4 74.7 55.4 73.9 C 55.4 72.8 56.1 72.2 57.2 72.2 C 58.3 72.2 58.9 72.8 58.9 73.9 C 58.9 74.7 58.6 75.4 57.7 75.6 C 57.7 75.6 57.7 75.6 57.7 75.6 Z M 58 73.9 C 58 73.4 57.8 72.9 57.2 72.9 C 56.6 72.9 56.3 73.4 56.3 73.9 C 56.3 74.4 56.5 75.2 57.2 75.2 C 57.9 75.2 58 74.4 58 73.9 Z M 60.1 80.4 C 60.4 79 60.7 77.6 60.7 76.1 C 60.7 74.6 60.4 73.1 60.1 71.7 C 60.1 71.7 60.7 71.7 60.7 71.7 C 61.1 73.1 61.7 74.6 61.7 76.1 C 61.7 77.6 61.1 79 60.7 80.4 C 60.7 80.4 60.1 80.4 60.1 80.4 Z M 65.9 77.7 C 65.9 78.2 66.1 78.7 66.6 78.7 C 67.1 78.7 67.8 78.4 67.7 76.7 C 66.9 76.7 65.9 76.7 65.9 77.7 Z M 67.7 78.5 C 67.7 78.5 67.69 78.51 67.7 78.5 C 67.4 79.1 67 79.3 66.4 79.3 C 65.3 79.3 65 78.7 65 77.7 C 65 76.2 66.5 76.1 67.7 76.1 C 67.7 75.4 67.7 74.7 66.8 74.7 C 66.3 74.7 66 75.1 66 75.6 C 66 75.6 65.2 75.6 65.2 75.6 C 65.2 74.5 65.8 74.1 66.9 74.1 C 68.2 74.1 68.5 74.8 68.5 75.6 C 68.5 75.6 68.5 78 68.5 78 C 68.5 78.4 68.5 78.8 68.6 79.2 C 68.61 79.24 67.7 79.2 67.7 79.2 L 67.7 78.5 Z M 70.2 74.2 L 70.2 73.2 L 71 72.9 L 71 74.2 L 72.1 74.2 L 72.1 74.8 L 71 74.8 C 71 74.8 71.02 77.9 71 77.9 C 71 78.2 71 78.6 71.8 78.6 C 71.8 78.6 72 78.6 72.1 78.6 C 72.1 78.6 72.1 79.2 72.1 79.2 C 71.9 79.2 71.6 79.3 71.3 79.3 C 70.5 79.3 70.2 79 70.2 78.4 C 70.2 78.4 70.2 74.8 70.2 74.8 L 69.4 74.8 L 69.4 74.2 L 70.2 74.2 Z M 74.5 74.2 L 75.4 74.2 L 76.3 78.5 L 76.3 78.5 L 77.4 74.2 L 78.6 74.2 L 79.6 78.5 L 79.6 78.5 L 80.6 74.2 L 81.5 74.2 L 80.2 79.2 L 79.1 79.2 L 78 74.9 L 78 74.9 L 76.8 79.2 L 75.7 79.2 L 74.5 74.2 Z M 85.1 76.4 C 85.1 74.9 84.7 74.7 84.1 74.7 C 83.6 74.7 83.1 75 83.1 76.4 C 83.1 76.4 85.1 76.4 85.1 76.4 Z M 83.1 77 C 83.1 78.4 83.5 78.7 84.1 78.7 C 84.7 78.7 85 78.2 85 77.7 C 85 77.7 85.9 77.7 85.9 77.7 C 85.9 78.8 85.2 79.3 84.2 79.3 C 83.1 79.3 82.2 79 82.2 76.8 C 82.2 75.3 82.4 74.1 84.2 74.1 C 85.6 74.1 86 74.9 86 76.6 C 85.97 76.55 86 77 86 77 C 86 77 83.13 76.98 83.1 77 Z M 90.1 76.4 C 90.1 74.9 89.7 74.7 89.1 74.7 C 88.6 74.7 88.1 75 88.1 76.4 C 88.1 76.4 90.1 76.4 90.1 76.4 Z M 88.1 77 C 88.1 78.4 88.5 78.7 89.1 78.7 C 89.7 78.7 90 78.2 90 77.7 C 90 77.7 90.9 77.7 90.9 77.7 C 90.9 78.8 90.2 79.3 89.2 79.3 C 88.1 79.3 87.2 79 87.2 76.8 C 87.2 75.3 87.4 74.1 89.2 74.1 C 90.6 74.1 91 74.9 91 76.6 C 90.97 76.55 91 77 91 77 C 91 77 88.13 76.98 88.1 77 Z M 93.1 79.2 L 92.3 79.2 L 92.3 72 L 93.1 72 L 93.1 76.4 L 93.2 76.4 L 94.7 74.2 L 95.7 74.2 L 94 76.4 L 96 79.2 L 95 79.2 L 93.2 76.4 L 93.1 76.4 L 93.1 79.2 Z M 101.2 79.2 L 100.2 79.2 L 100.2 73.3 L 99.2 74 C 99.2 74 99.2 73.13 99.2 73.1 C 99.4 73 100.1 72.5 100.4 72.3 C 100.37 72.3 101.2 72.3 101.2 72.3 L 101.2 79.2 Z M 103.1 79.2 C 103.1 79.2 103.14 78.44 103.1 78.4 C 105.2 75.6 105.8 75.1 105.8 73.9 C 105.8 73.3 105.5 73 104.9 73 C 104.2 73 104.1 73.5 104.1 74.1 C 104.1 74.1 103.2 74.1 103.2 74.1 C 103.1 72.9 103.7 72.2 104.8 72.2 C 106.1 72.2 106.7 72.8 106.7 74 C 106.7 75.6 105.9 76.1 104.1 78.4 C 104.12 78.44 106.9 78.4 106.9 78.4 L 106.9 79.2 L 103.1 79.2 Z M 107.4 73 L 107.4 72.6 L 108.2 72.6 L 108.2 71.7 L 108.7 71.7 L 108.7 72.6 L 109.5 72.6 L 109.5 73 L 108.7 73 L 108.7 74.6 L 109.5 74.6 L 109.5 75 L 108.7 75 L 108.7 75.9 L 108.2 75.9 L 108.2 75 L 107.4 75 L 107.4 74.6 L 108.2 74.6 L 108.2 73 L 107.4 73 Z M 113.4 80.4 C 113 79 112.5 77.6 112.5 76.1 C 112.5 74.6 113 73.1 113.5 71.7 C 113.5 71.7 114.1 71.7 114.1 71.7 C 113.7 73.1 113.4 74.6 113.4 76.1 C 113.4 77.6 113.7 79 114 80.4 C 114 80.4 113.4 80.4 113.4 80.4 Z M 116 74.3 C 116 75 116.1 75.7 116.9 75.7 C 117.7 75.7 117.9 75 117.9 74.3 C 117.9 73.7 117.7 72.9 116.9 72.9 C 116.2 72.9 116 73.7 116 74.3 Z M 118.8 75.8 C 118.8 77.6 118.8 79.4 116.9 79.4 C 115.9 79.4 115.2 78.7 115.2 77.6 C 115.2 77.6 116.2 77.6 116.2 77.6 C 116.2 78.1 116.4 78.6 116.9 78.6 C 117.8 78.6 117.9 77.6 117.9 75.9 C 117.9 75.9 117.9 75.9 117.9 75.9 C 117.7 76.3 117.2 76.5 116.7 76.5 C 116.1 76.5 115.1 76.2 115.1 74.3 C 115.1 72.8 116 72.2 116.9 72.2 C 118.8 72.2 118.8 73.9 118.8 75.8 Z M 123 72.3 L 123 73.1 L 120.7 73.1 L 120.7 75.1 C 120.7 75.1 120.7 75.14 120.7 75.1 C 120.9 74.8 121.3 74.6 121.8 74.6 C 122.8 74.6 123.3 75.4 123.3 77 C 123.3 78.1 123.1 79.4 121.4 79.4 C 119.9 79.4 119.7 78.6 119.7 77.7 C 119.7 77.7 120.6 77.7 120.6 77.7 C 120.6 78.2 120.8 78.7 121.4 78.7 C 122.3 78.7 122.3 77.9 122.3 77.2 C 122.3 76.2 122.3 75.4 121.4 75.4 C 120.9 75.4 120.7 75.7 120.6 76.2 C 120.59 76.2 119.8 76.2 119.8 76.2 L 119.8 72.3 L 123 72.3 Z M 126.9 73.8 C 126.9 74.8 126.8 75.7 125.6 75.7 C 124.4 75.7 124.3 74.8 124.3 73.8 C 124.3 72.9 124.4 71.9 125.6 71.9 C 126.8 71.9 126.9 72.9 126.9 73.8 Z M 125 73.8 C 125 74.7 125 75.1 125.6 75.1 C 126.2 75.1 126.2 74.7 126.2 73.8 C 126.2 72.9 126.2 72.4 125.6 72.4 C 125 72.4 125 72.9 125 73.8 Z M 130.7 77.5 C 130.7 78.5 130.6 79.4 129.4 79.4 C 128.2 79.4 128.1 78.5 128.1 77.5 C 128.1 76.6 128.2 75.6 129.4 75.6 C 130.6 75.6 130.7 76.6 130.7 77.5 Z M 128.8 77.5 C 128.8 78.4 128.8 78.8 129.4 78.8 C 130 78.8 130 78.4 130 77.5 C 130 76.6 130 76.1 129.4 76.1 C 128.8 76.1 128.8 76.6 128.8 77.5 Z M 126.1 79.6 L 125.5 79.6 L 128.9 71.7 L 129.5 71.7 L 126.1 79.6 Z M 137.6 74 C 137.6 73.6 137.6 73.2 137.4 73 C 137.2 72.7 136.8 72.6 136.6 72.6 C 135.8 72.6 135.5 73.1 135.5 73.2 C 135.5 73.3 135.3 73.5 135.3 74.7 C 135.3 74.7 135.3 76.6 135.3 76.6 C 135.3 78.4 135.9 78.6 136.6 78.6 C 136.9 78.6 137.7 78.5 137.7 77.1 C 137.7 77.1 138.7 77.1 138.7 77.1 C 138.7 79.4 137.1 79.4 136.6 79.4 C 135.7 79.4 134.3 79.3 134.3 76.5 C 134.3 76.5 134.3 74.5 134.3 74.5 C 134.3 72.4 135.2 71.9 136.7 71.9 C 138.1 71.9 138.6 72.6 138.6 74 C 138.6 74 137.6 74 137.6 74 Z M 141 79.2 L 140.1 79.2 L 140.1 72 L 141 72 L 141 79.2 Z M 142.7 80.4 C 143 79 143.3 77.6 143.3 76.1 C 143.3 74.6 143 73.1 142.6 71.7 C 142.6 71.7 143.2 71.7 143.2 71.7 C 143.7 73.1 144.2 74.6 144.2 76.1 C 144.2 77.6 143.7 79 143.2 80.4 C 143.2 80.4 142.7 80.4 142.7 80.4 Z " stroke="none" fill="#555555"/>  </g>  <g id="Polygon196557">    <path d="M 0.4 67.2 C 0.4 67.2 0.43 66.44 0.4 66.4 C 2.5 63.6 3.1 63.1 3.1 61.9 C 3.1 61.3 2.8 61 2.2 61 C 1.5 61 1.4 61.5 1.4 62.1 C 1.4 62.1 0.5 62.1 0.5 62.1 C 0.4 60.9 0.9 60.2 2.1 60.2 C 3.4 60.2 4 60.8 4 62 C 4 63.6 3.2 64.1 1.4 66.4 C 1.41 66.44 4.2 66.4 4.2 66.4 L 4.2 67.2 L 0.4 67.2 Z M 6 67.2 L 5.1 67.2 L 5.1 66.2 L 6 66.2 L 6 67.2 Z M 10.5 60.3 L 10.5 61.1 L 8.2 61.1 L 8.2 63.1 C 8.2 63.1 8.19 63.14 8.2 63.1 C 8.3 62.8 8.8 62.6 9.3 62.6 C 10.3 62.6 10.7 63.4 10.7 65 C 10.7 66.1 10.6 67.4 8.9 67.4 C 7.4 67.4 7.2 66.6 7.2 65.7 C 7.2 65.7 8.1 65.7 8.1 65.7 C 8.1 66.2 8.3 66.7 8.9 66.7 C 9.8 66.7 9.8 65.9 9.8 65.2 C 9.8 64.2 9.8 63.4 8.9 63.4 C 8.4 63.4 8.2 63.7 8.1 64.2 C 8.08 64.2 7.3 64.2 7.3 64.2 L 7.3 60.3 L 10.5 60.3 Z M 11.5 67.2 C 11.5 67.2 11.53 66.44 11.5 66.4 C 13.6 63.6 14.2 63.1 14.2 61.9 C 14.2 61.3 13.9 61 13.3 61 C 12.6 61 12.5 61.5 12.5 62.1 C 12.5 62.1 11.6 62.1 11.6 62.1 C 11.5 60.9 12 60.2 13.2 60.2 C 14.5 60.2 15.1 60.8 15.1 62 C 15.1 63.6 14.3 64.1 12.5 66.4 C 12.51 66.44 15.3 66.4 15.3 66.4 L 15.3 67.2 L 11.5 67.2 Z M 19.2 68.4 C 18.8 67 18.3 65.6 18.3 64.1 C 18.3 62.6 18.8 61.1 19.3 59.7 C 19.3 59.7 19.9 59.7 19.9 59.7 C 19.5 61.1 19.2 62.6 19.2 64.1 C 19.2 65.6 19.5 67 19.8 68.4 C 19.8 68.4 19.2 68.4 19.2 68.4 Z M 21 67.2 C 21 67.2 20.97 66.44 21 66.4 C 23 63.6 23.6 63.1 23.6 61.9 C 23.6 61.3 23.3 61 22.7 61 C 22 61 21.9 61.5 21.9 62.1 C 21.9 62.1 21 62.1 21 62.1 C 20.9 60.9 21.5 60.2 22.7 60.2 C 23.9 60.2 24.5 60.8 24.5 62 C 24.5 63.6 23.7 64.1 21.9 66.4 C 21.95 66.44 24.7 66.4 24.7 66.4 L 24.7 67.2 L 21 67.2 Z M 26.6 67.2 L 25.6 67.2 L 25.6 66.2 L 26.6 66.2 L 26.6 67.2 Z M 30.1 67.2 L 29.2 67.2 L 29.2 61.3 L 28.1 62 C 28.1 62 28.13 61.13 28.1 61.1 C 28.4 61 29 60.5 29.3 60.3 C 29.3 60.3 30.1 60.3 30.1 60.3 L 30.1 67.2 Z M 33.3 63.2 C 34.2 63.3 34.7 62.9 34.7 62 C 34.7 61.4 34.5 61 33.8 61 C 33 61 32.9 61.5 32.9 62.1 C 32.9 62.1 32 62.1 32 62.1 C 31.9 60.9 32.5 60.2 33.8 60.2 C 35 60.2 35.7 60.8 35.7 62 C 35.7 63.3 34.7 63.5 34.3 63.6 C 34.3 63.6 34.3 63.6 34.3 63.6 C 35.4 63.8 35.7 64.3 35.7 65.4 C 35.7 66.7 35 67.4 33.7 67.4 C 31.7 67.4 31.9 65.7 31.9 65.3 C 31.9 65.3 32.8 65.3 32.8 65.3 C 32.8 66 32.9 66.6 33.8 66.6 C 34.6 66.6 34.8 66.1 34.8 65.4 C 34.8 64.2 34.4 64 33.3 64 C 33.3 64 33.3 63.2 33.3 63.2 Z M 38.9 64.1 L 41.1 64.1 L 41.1 64.9 L 38.9 64.9 L 38.9 64.1 Z M 44.3 67.2 C 44.3 67.2 44.28 66.44 44.3 66.4 C 46.3 63.6 46.9 63.1 46.9 61.9 C 46.9 61.3 46.6 61 46 61 C 45.4 61 45.2 61.5 45.2 62.1 C 45.2 62.1 44.3 62.1 44.3 62.1 C 44.2 60.9 44.8 60.2 46 60.2 C 47.2 60.2 47.8 60.8 47.8 62 C 47.8 63.6 47 64.1 45.3 66.4 C 45.26 66.44 48 66.4 48 66.4 L 48 67.2 L 44.3 67.2 Z M 49.9 67.2 L 48.9 67.2 L 48.9 66.2 L 49.9 66.2 L 49.9 67.2 Z M 51.8 62.3 C 51.8 63 51.9 63.7 52.7 63.7 C 53.5 63.7 53.6 63 53.6 62.3 C 53.6 61.7 53.5 60.9 52.7 60.9 C 51.9 60.9 51.8 61.7 51.8 62.3 Z M 54.6 63.8 C 54.6 65.6 54.6 67.4 52.7 67.4 C 51.7 67.4 51 66.7 51 65.6 C 51 65.6 51.9 65.6 51.9 65.6 C 51.9 66.1 52.1 66.6 52.7 66.6 C 53.6 66.6 53.7 65.6 53.7 63.9 C 53.7 63.9 53.6 63.9 53.6 63.9 C 53.4 64.3 53 64.5 52.5 64.5 C 51.9 64.5 50.9 64.2 50.9 62.3 C 50.9 60.8 51.8 60.2 52.7 60.2 C 54.6 60.2 54.6 61.9 54.6 63.8 Z M 57.8 67.2 L 56.9 67.2 L 56.9 61.3 L 55.9 62 C 55.9 62 55.88 61.13 55.9 61.1 C 56.1 61 56.8 60.5 57 60.3 C 57.05 60.3 57.8 60.3 57.8 60.3 L 57.8 67.2 Z M 60.1 68.4 C 60.4 67 60.7 65.6 60.7 64.1 C 60.7 62.6 60.4 61.1 60.1 59.7 C 60.1 59.7 60.7 59.7 60.7 59.7 C 61.1 61.1 61.7 62.6 61.7 64.1 C 61.7 65.6 61.1 67 60.7 68.4 C 60.7 68.4 60.1 68.4 60.1 68.4 Z M 65.9 65.7 C 65.9 66.2 66.1 66.7 66.6 66.7 C 67.1 66.7 67.8 66.4 67.7 64.7 C 66.9 64.7 65.9 64.7 65.9 65.7 Z M 67.7 66.5 C 67.7 66.5 67.69 66.51 67.7 66.5 C 67.4 67.1 67 67.3 66.4 67.3 C 65.3 67.3 65 66.7 65 65.7 C 65 64.2 66.5 64.1 67.7 64.1 C 67.7 63.4 67.7 62.7 66.8 62.7 C 66.3 62.7 66 63.1 66 63.6 C 66 63.6 65.2 63.6 65.2 63.6 C 65.2 62.5 65.8 62.1 66.9 62.1 C 68.2 62.1 68.5 62.8 68.5 63.6 C 68.5 63.6 68.5 66 68.5 66 C 68.5 66.4 68.5 66.8 68.6 67.2 C 68.61 67.24 67.7 67.2 67.7 67.2 L 67.7 66.5 Z M 70.2 62.2 L 70.2 61.2 L 71 60.9 L 71 62.2 L 72.1 62.2 L 72.1 62.8 L 71 62.8 C 71 62.8 71.02 65.9 71 65.9 C 71 66.2 71 66.6 71.8 66.6 C 71.8 66.6 72 66.6 72.1 66.6 C 72.1 66.6 72.1 67.2 72.1 67.2 C 71.9 67.2 71.6 67.3 71.3 67.3 C 70.5 67.3 70.2 67 70.2 66.4 C 70.2 66.4 70.2 62.8 70.2 62.8 L 69.4 62.8 L 69.4 62.2 L 70.2 62.2 Z M 73 62.2 L 73 61.2 L 73.8 60.9 L 73.8 62.2 L 74.9 62.2 L 74.9 62.8 L 73.8 62.8 C 73.8 62.8 73.8 65.9 73.8 65.9 C 73.8 66.2 73.8 66.6 74.5 66.6 C 74.6 66.6 74.7 66.6 74.9 66.6 C 74.9 66.6 74.9 67.2 74.9 67.2 C 74.6 67.2 74.4 67.3 74.1 67.3 C 73.3 67.3 73 67 73 66.4 C 72.98 66.4 73 62.8 73 62.8 L 72.1 62.8 L 72.1 62.2 L 73 62.2 Z M 76.4 65.7 C 76.4 66.2 76.7 66.7 77.2 66.7 C 77.7 66.7 78.3 66.4 78.2 64.7 C 77.5 64.7 76.4 64.7 76.4 65.7 Z M 78.3 66.5 C 78.3 66.5 78.25 66.51 78.2 66.5 C 78 67.1 77.6 67.3 77 67.3 C 75.9 67.3 75.6 66.7 75.6 65.7 C 75.6 64.2 77.1 64.1 78.2 64.1 C 78.3 63.4 78.3 62.7 77.4 62.7 C 76.8 62.7 76.6 63.1 76.6 63.6 C 76.6 63.6 75.7 63.6 75.7 63.6 C 75.8 62.5 76.4 62.1 77.4 62.1 C 78.7 62.1 79.1 62.8 79.1 63.6 C 79.1 63.6 79.1 66 79.1 66 C 79.1 66.4 79.1 66.8 79.2 67.2 C 79.17 67.24 78.3 67.2 78.3 67.2 L 78.3 66.5 Z M 83.3 63.8 C 83.3 63 82.9 62.8 82.6 62.8 C 82 62.8 81.5 63.1 81.5 64.4 C 81.5 66.1 81.8 66.7 82.6 66.7 C 82.8 66.7 83.4 66.5 83.3 65.6 C 83.3 65.6 84.2 65.6 84.2 65.6 C 84.2 67 83.2 67.3 82.6 67.3 C 81.5 67.3 80.7 67 80.7 64.8 C 80.7 63.3 80.9 62.1 82.6 62.1 C 83.6 62.1 84.2 62.7 84.2 63.8 C 84.2 63.8 83.3 63.8 83.3 63.8 Z M 86.5 67.2 L 85.7 67.2 L 85.7 60 L 86.5 60 L 86.5 64.4 L 86.5 64.4 L 88 62.2 L 89 62.2 L 87.4 64.4 L 89.3 67.2 L 88.3 67.2 L 86.5 64.4 L 86.5 64.4 L 86.5 67.2 Z M 91.6 67.3 C 90.5 67.3 89.8 66.9 89.9 65.7 C 89.9 65.7 90.8 65.7 90.8 65.7 C 90.8 66 90.8 66.7 91.6 66.7 C 92.1 66.7 92.5 66.4 92.5 65.9 C 92.5 65 90 65 90 63.5 C 90 62.9 90.3 62.1 91.7 62.1 C 92.6 62.1 93.4 62.5 93.3 63.5 C 93.3 63.5 92.4 63.5 92.4 63.5 C 92.4 63 92.1 62.7 91.6 62.7 C 91.2 62.7 90.8 62.9 90.8 63.4 C 90.8 64.3 93.4 64.3 93.4 65.8 C 93.4 66.9 92.6 67.3 91.6 67.3 Z M 98.5 62.8 C 97.6 62.8 97.5 63.5 97.5 64.8 C 97.5 65.6 97.5 66.7 98.5 66.7 C 99.4 66.7 99.4 65.5 99.4 64.5 C 99.4 63.8 99.4 62.8 98.5 62.8 Z M 99.4 60 L 100.3 60 L 100.3 67.2 L 99.4 67.2 L 99.4 66.6 C 99.4 66.6 99.42 66.64 99.4 66.6 C 99.1 67.1 98.8 67.3 98.3 67.3 C 97.4 67.3 96.6 67 96.6 64.8 C 96.6 63.5 96.7 62.1 98.3 62.1 C 98.8 62.1 99.1 62.3 99.4 62.7 C 99.41 62.7 99.4 62.7 99.4 62.7 L 99.4 60 Z M 104.5 62.2 L 105.3 62.2 C 105.3 62.2 105.29 66.19 105.3 66.2 C 105.3 66.5 105.3 66.9 105.3 67.2 C 105.34 67.24 104.5 67.2 104.5 67.2 L 104.5 66.6 C 104.5 66.6 104.44 66.63 104.4 66.6 C 104.2 67.1 103.7 67.3 103.2 67.3 C 102.3 67.3 101.8 66.9 101.8 66 C 101.8 66.04 101.8 62.2 101.8 62.2 L 102.6 62.2 C 102.6 62.2 102.62 65.69 102.6 65.7 C 102.6 66.3 102.9 66.7 103.5 66.7 C 103.9 66.7 104.5 66.4 104.5 65.5 C 104.47 65.54 104.5 62.2 104.5 62.2 Z M 107.6 62.9 C 107.6 62.9 107.64 62.95 107.6 62.9 C 108 62.2 108.4 62.1 109.2 62.1 C 109.2 62.1 109.2 62.9 109.2 62.9 C 109.1 62.9 109 62.9 109 62.9 C 108.9 62.9 108.8 62.9 108.8 62.9 C 107.8 62.9 107.6 63.6 107.6 64.3 C 107.62 64.26 107.6 67.2 107.6 67.2 L 106.8 67.2 L 106.8 62.2 L 107.6 62.2 L 107.6 62.9 Z M 110.9 67.2 L 110.1 67.2 L 110.1 62.2 L 110.9 62.2 L 110.9 67.2 Z M 110 60 L 110.9 60 L 110.9 60.9 L 110 60.9 L 110 60 Z M 115.1 67.2 C 115.1 67.2 115.06 63.74 115.1 63.7 C 115.1 63.2 114.9 62.8 114.2 62.8 C 113.3 62.8 113.1 63.6 113.1 64.2 C 113.14 64.25 113.1 67.2 113.1 67.2 L 112.3 67.2 C 112.3 67.2 112.32 63.24 112.3 63.2 C 112.3 62.9 112.3 62.5 112.3 62.2 C 112.27 62.19 113.1 62.2 113.1 62.2 L 113.1 62.8 C 113.1 62.8 113.18 62.84 113.2 62.8 C 113.5 62.3 113.9 62.1 114.5 62.1 C 115.6 62.1 115.9 62.7 115.9 63.7 C 115.88 63.74 115.9 67.2 115.9 67.2 L 115.1 67.2 Z M 119 62.8 C 118.1 62.8 118.1 63.9 118.1 64.6 C 118.1 66.2 118.4 66.6 119 66.6 C 120 66.6 120 65.4 120 64.7 C 120 63.9 120.1 62.8 119 62.8 Z M 120 62.2 L 120.8 62.2 C 120.8 62.2 120.81 67.75 120.8 67.7 C 120.8 68.9 120.1 69.1 118.9 69.1 C 118.1 69.1 117.3 68.7 117.4 67.8 C 117.4 67.8 118.3 67.8 118.3 67.8 C 118.3 68.3 118.7 68.5 119.1 68.5 C 119.7 68.5 120 68.2 120 67.7 C 119.99 67.66 120 66.6 120 66.6 C 120 66.6 119.96 66.61 120 66.6 C 119.7 67 119.3 67.2 118.8 67.2 C 117.5 67.2 117.2 66.1 117.2 64.6 C 117.2 62.2 118.4 62.1 118.8 62.1 C 119.3 62.1 119.7 62.3 120 62.8 C 119.97 62.81 120 62.8 120 62.8 L 120 62.2 Z M 125.4 62.9 C 125.4 62.9 125.41 62.95 125.4 62.9 C 125.7 62.2 126.2 62.1 127 62.1 C 127 62.1 127 62.9 127 62.9 C 126.9 62.9 126.8 62.9 126.7 62.9 C 126.7 62.9 126.6 62.9 126.5 62.9 C 125.6 62.9 125.4 63.6 125.4 64.3 C 125.39 64.26 125.4 67.2 125.4 67.2 L 124.6 67.2 L 124.6 62.2 L 125.4 62.2 L 125.4 62.9 Z M 130.6 62.2 L 131.4 62.2 C 131.4 62.2 131.39 66.19 131.4 66.2 C 131.4 66.5 131.4 66.9 131.4 67.2 C 131.44 67.24 130.6 67.2 130.6 67.2 L 130.6 66.6 C 130.6 66.6 130.54 66.63 130.5 66.6 C 130.3 67.1 129.8 67.3 129.3 67.3 C 128.4 67.3 127.9 66.9 127.9 66 C 127.9 66.04 127.9 62.2 127.9 62.2 L 128.7 62.2 C 128.7 62.2 128.72 65.69 128.7 65.7 C 128.7 66.3 129 66.7 129.6 66.7 C 130 66.7 130.6 66.4 130.6 65.5 C 130.57 65.54 130.6 62.2 130.6 62.2 Z M 135.6 67.2 C 135.6 67.2 135.61 63.74 135.6 63.7 C 135.6 63.2 135.4 62.8 134.7 62.8 C 133.8 62.8 133.7 63.6 133.7 64.2 C 133.69 64.25 133.7 67.2 133.7 67.2 L 132.9 67.2 C 132.9 67.2 132.87 63.24 132.9 63.2 C 132.9 62.9 132.8 62.5 132.8 62.2 C 132.82 62.19 133.7 62.2 133.7 62.2 L 133.7 62.8 C 133.7 62.8 133.73 62.84 133.7 62.8 C 134 62.3 134.4 62.1 135.1 62.1 C 136.2 62.1 136.4 62.7 136.4 63.7 C 136.43 63.74 136.4 67.2 136.4 67.2 L 135.6 67.2 Z M 137.7 64.1 L 139.9 64.1 L 139.9 64.9 L 137.7 64.9 L 137.7 64.1 Z M 142 67.2 L 141.2 67.2 L 141.2 62.2 L 142 62.2 L 142 67.2 Z M 141.1 60 L 142 60 L 142 60.9 L 141.1 60.9 L 141.1 60 Z M 146.2 67.2 C 146.2 67.2 146.16 63.74 146.2 63.7 C 146.2 63.2 146 62.8 145.3 62.8 C 144.4 62.8 144.2 63.6 144.2 64.2 C 144.24 64.25 144.2 67.2 144.2 67.2 L 143.4 67.2 C 143.4 67.2 143.42 63.24 143.4 63.2 C 143.4 62.9 143.4 62.5 143.4 62.2 C 143.37 62.19 144.2 62.2 144.2 62.2 L 144.2 62.8 C 144.2 62.8 144.28 62.84 144.3 62.8 C 144.6 62.3 145 62.1 145.6 62.1 C 146.7 62.1 147 62.7 147 63.7 C 146.98 63.74 147 67.2 147 67.2 L 146.2 67.2 Z M 150.1 62.2 L 151 62.2 L 152.1 66.5 L 152.1 66.5 L 153.3 62.2 L 154.2 62.2 L 152.6 67.2 L 151.6 67.2 L 150.1 62.2 Z M 156.6 67.3 C 155.5 67.3 154.8 66.9 154.8 65.7 C 154.8 65.7 155.8 65.7 155.8 65.7 C 155.8 66 155.8 66.7 156.6 66.7 C 157.1 66.7 157.5 66.4 157.5 65.9 C 157.5 65 154.9 65 154.9 63.5 C 154.9 62.9 155.3 62.1 156.7 62.1 C 157.6 62.1 158.4 62.5 158.3 63.5 C 158.3 63.5 157.4 63.5 157.4 63.5 C 157.4 63 157.1 62.7 156.6 62.7 C 156.1 62.7 155.8 62.9 155.8 63.4 C 155.8 64.3 158.3 64.3 158.3 65.8 C 158.3 66.9 157.6 67.3 156.6 67.3 Z " stroke="none" fill="#555555"/>  </g>  <g id="Polygon196556">    <path d="M 1.8 51.3 C 1.8 51.3 2.86 51.26 2.9 51.3 C 3.2 51.3 4.1 51.2 4.1 50 C 4.1 48.9 3.3 48.8 3.1 48.8 C 3.12 48.82 1.8 48.8 1.8 48.8 L 1.8 51.3 Z M 0.9 55.2 L 0.9 48 C 0.9 48 3.07 48.02 3.1 48 C 4 48 5.1 48.4 5.1 50.1 C 5.1 51.7 3.8 52.1 3.1 52.1 C 3.06 52.06 1.8 52.1 1.8 52.1 L 1.8 55.2 L 0.9 55.2 Z M 7.1 55.2 L 6.3 55.2 L 6.3 48 L 7.1 48 L 7.1 55.2 Z M 9.2 53.7 C 9.2 54.2 9.5 54.7 10 54.7 C 10.5 54.7 11.2 54.4 11.1 52.7 C 10.3 52.7 9.2 52.7 9.2 53.7 Z M 11.1 54.5 C 11.1 54.5 11.08 54.51 11.1 54.5 C 10.8 55.1 10.4 55.3 9.8 55.3 C 8.7 55.3 8.4 54.7 8.4 53.7 C 8.4 52.2 9.9 52.1 11.1 52.1 C 11.1 51.4 11.1 50.7 10.2 50.7 C 9.7 50.7 9.4 51.1 9.4 51.6 C 9.4 51.6 8.6 51.6 8.6 51.6 C 8.6 50.5 9.2 50.1 10.3 50.1 C 11.6 50.1 11.9 50.8 11.9 51.6 C 11.9 51.6 11.9 54 11.9 54 C 11.9 54.4 11.9 54.8 12 55.2 C 12 55.24 11.1 55.2 11.1 55.2 L 11.1 54.5 Z M 16.1 51.8 C 16.2 51 15.8 50.8 15.4 50.8 C 14.8 50.8 14.4 51.1 14.4 52.4 C 14.4 54.1 14.6 54.7 15.4 54.7 C 15.6 54.7 16.2 54.5 16.2 53.6 C 16.2 53.6 17 53.6 17 53.6 C 17.1 55 16 55.3 15.4 55.3 C 14.4 55.3 13.5 55 13.5 52.8 C 13.5 51.3 13.7 50.1 15.4 50.1 C 16.5 50.1 17 50.7 17 51.8 C 17 51.8 16.1 51.8 16.1 51.8 Z M 21.3 52.4 C 21.3 50.9 20.9 50.7 20.3 50.7 C 19.7 50.7 19.3 51 19.3 52.4 C 19.3 52.4 21.3 52.4 21.3 52.4 Z M 19.3 53 C 19.3 54.4 19.7 54.7 20.3 54.7 C 20.9 54.7 21.2 54.2 21.2 53.7 C 21.2 53.7 22.1 53.7 22.1 53.7 C 22.1 54.8 21.4 55.3 20.3 55.3 C 19.3 55.3 18.4 55 18.4 52.8 C 18.4 51.3 18.6 50.1 20.3 50.1 C 21.8 50.1 22.1 50.9 22.1 52.6 C 22.14 52.55 22.1 53 22.1 53 C 22.1 53 19.3 52.98 19.3 53 Z M 25.3 54.7 C 26.3 54.7 26.3 53.6 26.3 52.8 C 26.3 51.5 26.2 50.8 25.3 50.8 C 24.4 50.8 24.4 51.8 24.4 52.5 C 24.4 53.3 24.3 54.7 25.3 54.7 Z M 24.4 55.2 L 23.6 55.2 L 23.6 48 L 24.4 48 L 24.4 50.7 C 24.4 50.7 24.42 50.7 24.4 50.7 C 24.7 50.3 25 50.1 25.5 50.1 C 27.2 50.1 27.2 51.5 27.2 52.8 C 27.2 55 26.4 55.3 25.6 55.3 C 25 55.3 24.7 55.1 24.4 54.6 C 24.41 54.64 24.4 54.6 24.4 54.6 L 24.4 55.2 Z M 31.3 52.4 C 31.3 51.1 30.9 50.8 30.3 50.8 C 29.6 50.8 29.2 51.1 29.2 52.4 C 29.2 54.1 29.4 54.7 30.3 54.7 C 31.1 54.7 31.3 54.1 31.3 52.4 Z M 28.4 52.8 C 28.4 51.3 28.5 50.1 30.3 50.1 C 32 50.1 32.2 51.3 32.2 52.8 C 32.2 55 31.4 55.3 30.3 55.3 C 29.2 55.3 28.4 55 28.4 52.8 Z M 37.4 50.8 C 36.5 50.8 36.5 51.9 36.5 52.6 C 36.5 54.2 36.8 54.6 37.4 54.6 C 38.4 54.6 38.4 53.4 38.4 52.7 C 38.4 51.9 38.5 50.8 37.4 50.8 Z M 38.4 50.2 L 39.2 50.2 C 39.2 50.2 39.21 55.75 39.2 55.7 C 39.2 56.9 38.5 57.1 37.3 57.1 C 36.5 57.1 35.8 56.7 35.8 55.8 C 35.8 55.8 36.7 55.8 36.7 55.8 C 36.7 56.3 37.1 56.5 37.5 56.5 C 38.1 56.5 38.4 56.2 38.4 55.7 C 38.39 55.66 38.4 54.6 38.4 54.6 C 38.4 54.6 38.36 54.61 38.4 54.6 C 38.2 55 37.7 55.2 37.2 55.2 C 35.9 55.2 35.6 54.1 35.6 52.6 C 35.6 50.2 36.8 50.1 37.2 50.1 C 37.7 50.1 38.1 50.3 38.4 50.8 C 38.37 50.81 38.4 50.8 38.4 50.8 L 38.4 50.2 Z M 41.6 50.9 C 41.6 50.9 41.59 50.95 41.6 50.9 C 41.9 50.2 42.3 50.1 43.1 50.1 C 43.1 50.1 43.1 50.9 43.1 50.9 C 43.1 50.9 43 50.9 42.9 50.9 C 42.9 50.9 42.8 50.9 42.7 50.9 C 41.8 50.9 41.6 51.6 41.6 52.3 C 41.57 52.26 41.6 55.2 41.6 55.2 L 40.8 55.2 L 40.8 50.2 L 41.6 50.2 L 41.6 50.9 Z M 46.9 52.4 C 46.9 51.1 46.5 50.8 45.8 50.8 C 45.2 50.8 44.8 51.1 44.8 52.4 C 44.8 54.1 45 54.7 45.8 54.7 C 46.7 54.7 46.9 54.1 46.9 52.4 Z M 43.9 52.8 C 43.9 51.3 44.1 50.1 45.8 50.1 C 47.6 50.1 47.7 51.3 47.7 52.8 C 47.7 55 46.9 55.3 45.8 55.3 C 44.8 55.3 43.9 55 43.9 52.8 Z M 51.8 50.2 L 52.6 50.2 C 52.6 50.2 52.57 54.19 52.6 54.2 C 52.6 54.5 52.6 54.9 52.6 55.2 C 52.62 55.24 51.8 55.2 51.8 55.2 L 51.8 54.6 C 51.8 54.6 51.72 54.63 51.7 54.6 C 51.5 55.1 51 55.3 50.4 55.3 C 49.6 55.3 49.1 54.9 49.1 54 C 49.08 54.04 49.1 50.2 49.1 50.2 L 49.9 50.2 C 49.9 50.2 49.9 53.69 49.9 53.7 C 49.9 54.3 50.2 54.7 50.8 54.7 C 51.2 54.7 51.8 54.4 51.8 53.5 C 51.75 53.54 51.8 50.2 51.8 50.2 Z M 56.9 52.6 C 56.9 51.9 56.9 50.8 55.9 50.8 C 54.8 50.8 54.9 52.2 54.9 52.9 C 54.9 53.6 55 54.7 55.9 54.7 C 56.8 54.7 56.9 54 56.9 52.6 Z M 54.9 50.8 C 54.9 50.8 54.96 50.79 55 50.8 C 55.2 50.3 55.6 50.1 56.1 50.1 C 56.9 50.1 57.7 50.4 57.7 52.6 C 57.7 53.9 57.7 55.3 56.1 55.3 C 55.6 55.3 55.2 55.1 55 54.7 C 54.97 54.73 54.9 54.7 54.9 54.7 L 54.9 57.1 L 54.1 57.1 L 54.1 50.2 L 54.9 50.2 L 54.9 50.8 Z M 59.9 51.2 L 59 51.2 L 59 50.2 L 59.9 50.2 L 59.9 51.2 Z M 59.9 55.2 L 59 55.2 L 59 54.2 L 59.9 54.2 L 59.9 55.2 Z " stroke="none" fill="#555555"/>  </g>  <g id="Polygon196555">    <path d="M 4.1 27.8 C 4.1 29.6 4.1 31.4 2.2 31.4 C 0.3 31.4 0.4 29.6 0.4 27.8 C 0.4 25.9 0.3 24.2 2.2 24.2 C 4.1 24.2 4.1 25.9 4.1 27.8 Z M 1.3 28 C 1.3 29.2 1.2 30.6 2.2 30.6 C 3.2 30.6 3.2 29.2 3.2 28 C 3.2 26.1 3.2 25 2.2 25 C 1.3 25 1.3 26.1 1.3 28 Z M 6 31.2 L 5.1 31.2 L 5.1 30.2 L 6 30.2 L 6 31.2 Z M 9.5 31.2 L 8.6 31.2 L 8.6 25.3 L 7.6 26 C 7.6 26 7.59 25.13 7.6 25.1 C 7.8 25 8.5 24.5 8.8 24.3 C 8.76 24.3 9.5 24.3 9.5 24.3 L 9.5 31.2 Z M 14 31.2 L 13.1 31.2 L 13.1 25.3 L 12 26 C 12 26 12.03 25.13 12 25.1 C 12.3 25 12.9 24.5 13.2 24.3 C 13.2 24.3 14 24.3 14 24.3 L 14 31.2 Z M 19.2 32.4 C 18.8 31 18.3 29.6 18.3 28.1 C 18.3 26.6 18.8 25.1 19.3 23.7 C 19.3 23.7 19.9 23.7 19.9 23.7 C 19.5 25.1 19.2 26.6 19.2 28.1 C 19.2 29.6 19.5 31 19.8 32.4 C 19.8 32.4 19.2 32.4 19.2 32.4 Z M 21.1 28.1 L 23.3 28.1 L 23.3 28.9 L 21.1 28.9 L 21.1 28.1 Z M 28 27.8 C 28 29.6 28 31.4 26.1 31.4 C 24.2 31.4 24.2 29.6 24.2 27.8 C 24.2 25.9 24.2 24.2 26.1 24.2 C 28 24.2 28 25.9 28 27.8 Z M 25.1 28 C 25.1 29.2 25.1 30.6 26.1 30.6 C 27.1 30.6 27 29.2 27 28 C 27 26.1 27 25 26.1 25 C 25.1 25 25.1 26.1 25.1 28 Z M 29.9 31.2 L 28.9 31.2 L 28.9 30.2 L 29.9 30.2 L 29.9 31.2 Z M 33.4 31.2 L 32.5 31.2 L 32.5 25.3 L 31.5 26 C 31.5 26 31.46 25.13 31.5 25.1 C 31.7 25 32.3 24.5 32.6 24.3 C 32.63 24.3 33.4 24.3 33.4 24.3 L 33.4 31.2 Z M 37.9 31.2 L 36.9 31.2 L 36.9 25.3 L 35.9 26 C 35.9 26 35.9 25.13 35.9 25.1 C 36.1 25 36.8 24.5 37.1 24.3 C 37.07 24.3 37.9 24.3 37.9 24.3 L 37.9 31.2 Z M 42.2 28.1 L 44.4 28.1 L 44.4 28.9 L 42.2 28.9 L 42.2 28.1 Z M 51.3 27.8 C 51.3 29.6 51.3 31.4 49.4 31.4 C 47.5 31.4 47.5 29.6 47.5 27.8 C 47.5 25.9 47.5 24.2 49.4 24.2 C 51.3 24.2 51.3 25.9 51.3 27.8 Z M 48.4 28 C 48.4 29.2 48.4 30.6 49.4 30.6 C 50.4 30.6 50.3 29.2 50.3 28 C 50.3 26.1 50.3 25 49.4 25 C 48.5 25 48.4 26.1 48.4 28 Z M 53.2 31.2 L 52.3 31.2 L 52.3 30.2 L 53.2 30.2 L 53.2 31.2 Z M 55.5 27.2 C 56.4 27.3 56.9 26.9 56.9 26 C 56.9 25.4 56.7 25 56 25 C 55.2 25 55.1 25.5 55.1 26.1 C 55.1 26.1 54.2 26.1 54.2 26.1 C 54.1 24.9 54.7 24.2 56 24.2 C 57.2 24.2 57.9 24.8 57.9 26 C 57.9 27.3 56.9 27.5 56.5 27.6 C 56.5 27.6 56.5 27.6 56.5 27.6 C 57.6 27.8 57.9 28.3 57.9 29.4 C 57.9 30.7 57.2 31.4 55.9 31.4 C 53.9 31.4 54.1 29.7 54.1 29.3 C 54.1 29.3 55 29.3 55 29.3 C 55 30 55.1 30.6 56 30.6 C 56.8 30.6 57 30.1 57 29.4 C 57 28.2 56.6 28 55.5 28 C 55.5 28 55.5 27.2 55.5 27.2 Z M 60.8 28.8 L 60.8 25.1 L 60.8 25.1 L 59.3 28.8 L 60.8 28.8 Z M 58.5 29.5 L 58.5 28.8 L 60.5 24.3 L 61.7 24.3 L 61.7 28.8 L 62.5 28.8 L 62.5 29.5 L 61.7 29.5 L 61.7 31.2 L 60.8 31.2 L 60.8 29.5 L 58.5 29.5 Z M 63.4 32.4 C 63.8 31 64.1 29.6 64.1 28.1 C 64.1 26.6 63.8 25.1 63.4 23.7 C 63.4 23.7 64 23.7 64 23.7 C 64.4 25.1 65 26.6 65 28.1 C 65 29.6 64.4 31 64 32.4 C 64 32.4 63.4 32.4 63.4 32.4 Z M 69.2 29.7 C 69.2 30.2 69.4 30.7 70 30.7 C 70.5 30.7 71.1 30.4 71 28.7 C 70.2 28.7 69.2 28.7 69.2 29.7 Z M 71 30.5 C 71 30.5 71.02 30.51 71 30.5 C 70.8 31.1 70.4 31.3 69.7 31.3 C 68.7 31.3 68.4 30.7 68.4 29.7 C 68.4 28.2 69.9 28.1 71 28.1 C 71 27.4 71 26.7 70.2 26.7 C 69.6 26.7 69.3 27.1 69.4 27.6 C 69.4 27.6 68.5 27.6 68.5 27.6 C 68.5 26.5 69.1 26.1 70.2 26.1 C 71.5 26.1 71.8 26.8 71.8 27.6 C 71.8 27.6 71.8 30 71.8 30 C 71.8 30.4 71.9 30.8 71.9 31.2 C 71.94 31.24 71 31.2 71 31.2 L 71 30.5 Z M 73.5 26.2 L 73.5 25.2 L 74.3 24.9 L 74.3 26.2 L 75.4 26.2 L 75.4 26.8 L 74.3 26.8 C 74.3 26.8 74.35 29.9 74.3 29.9 C 74.3 30.2 74.3 30.6 75.1 30.6 C 75.2 30.6 75.3 30.6 75.5 30.6 C 75.5 30.6 75.5 31.2 75.5 31.2 C 75.2 31.2 74.9 31.3 74.7 31.3 C 73.9 31.3 73.5 31 73.5 30.4 C 73.53 30.4 73.5 26.8 73.5 26.8 L 72.7 26.8 L 72.7 26.2 L 73.5 26.2 Z M 77.8 26.2 L 78.7 26.2 L 79.6 30.5 L 79.6 30.5 L 80.8 26.2 L 81.9 26.2 L 83 30.5 L 83 30.5 L 84 26.2 L 84.8 26.2 L 83.5 31.2 L 82.4 31.2 L 81.3 26.9 L 81.3 26.9 L 80.2 31.2 L 79.1 31.2 L 77.8 26.2 Z M 88.4 28.4 C 88.4 26.9 88 26.7 87.4 26.7 C 86.9 26.7 86.5 27 86.5 28.4 C 86.5 28.4 88.4 28.4 88.4 28.4 Z M 86.5 29 C 86.5 30.4 86.8 30.7 87.5 30.7 C 88 30.7 88.3 30.2 88.4 29.7 C 88.4 29.7 89.3 29.7 89.3 29.7 C 89.2 30.8 88.6 31.3 87.5 31.3 C 86.4 31.3 85.6 31 85.6 28.8 C 85.6 27.3 85.7 26.1 87.5 26.1 C 88.9 26.1 89.3 26.9 89.3 28.6 C 89.3 28.55 89.3 29 89.3 29 C 89.3 29 86.46 28.98 86.5 29 Z M 93.4 28.4 C 93.4 26.9 93 26.7 92.4 26.7 C 91.9 26.7 91.5 27 91.5 28.4 C 91.5 28.4 93.4 28.4 93.4 28.4 Z M 91.5 29 C 91.5 30.4 91.8 30.7 92.5 30.7 C 93 30.7 93.3 30.2 93.4 29.7 C 93.4 29.7 94.3 29.7 94.3 29.7 C 94.2 30.8 93.6 31.3 92.5 31.3 C 91.4 31.3 90.6 31 90.6 28.8 C 90.6 27.3 90.7 26.1 92.5 26.1 C 93.9 26.1 94.3 26.9 94.3 28.6 C 94.3 28.55 94.3 29 94.3 29 C 94.3 29 91.46 28.98 91.5 29 Z M 96.5 31.2 L 95.7 31.2 L 95.7 24 L 96.5 24 L 96.5 28.4 L 96.5 28.4 L 98 26.2 L 99 26.2 L 97.4 28.4 L 99.3 31.2 L 98.3 31.2 L 96.5 28.4 L 96.5 28.4 L 96.5 31.2 Z M 104.5 31.2 L 103.6 31.2 L 103.6 25.3 L 102.5 26 C 102.5 26 102.53 25.13 102.5 25.1 C 102.8 25 103.4 24.5 103.7 24.3 C 103.7 24.3 104.5 24.3 104.5 24.3 L 104.5 31.2 Z M 106.5 31.2 C 106.5 31.2 106.47 30.44 106.5 30.4 C 108.5 27.6 109.1 27.1 109.1 25.9 C 109.1 25.3 108.8 25 108.2 25 C 107.5 25 107.4 25.5 107.4 26.1 C 107.4 26.1 106.5 26.1 106.5 26.1 C 106.4 24.9 107 24.2 108.2 24.2 C 109.4 24.2 110 24.8 110 26 C 110 27.6 109.2 28.1 107.4 30.4 C 107.45 30.44 110.2 30.4 110.2 30.4 L 110.2 31.2 L 106.5 31.2 Z M 110.7 25 L 110.7 24.6 L 111.5 24.6 L 111.5 23.7 L 112 23.7 L 112 24.6 L 112.8 24.6 L 112.8 25 L 112 25 L 112 26.6 L 112.8 26.6 L 112.8 27 L 112 27 L 112 27.9 L 111.5 27.9 L 111.5 27 L 110.7 27 L 110.7 26.6 L 111.5 26.6 L 111.5 25 L 110.7 25 Z M 116.8 32.4 C 116.3 31 115.8 29.6 115.8 28.1 C 115.8 26.6 116.3 25.1 116.8 23.7 C 116.8 23.7 117.4 23.7 117.4 23.7 C 117 25.1 116.7 26.6 116.7 28.1 C 116.7 29.6 117 31 117.4 32.4 C 117.4 32.4 116.8 32.4 116.8 32.4 Z M 119.3 26.3 C 119.3 27 119.5 27.7 120.3 27.7 C 121.1 27.7 121.2 27 121.2 26.3 C 121.2 25.7 121.1 24.9 120.3 24.9 C 119.5 24.9 119.3 25.7 119.3 26.3 Z M 122.1 27.8 C 122.1 29.6 122.2 31.4 120.3 31.4 C 119.2 31.4 118.5 30.7 118.6 29.6 C 118.6 29.6 119.5 29.6 119.5 29.6 C 119.5 30.1 119.7 30.6 120.3 30.6 C 121.2 30.6 121.2 29.6 121.2 27.9 C 121.2 27.9 121.2 27.9 121.2 27.9 C 121 28.3 120.5 28.5 120 28.5 C 119.5 28.5 118.4 28.2 118.4 26.3 C 118.4 24.8 119.4 24.2 120.3 24.2 C 122.2 24.2 122.1 25.9 122.1 27.8 Z M 126.3 24.3 L 126.3 25.1 L 124 25.1 L 124 27.1 C 124 27.1 124.03 27.14 124 27.1 C 124.2 26.8 124.7 26.6 125.1 26.6 C 126.1 26.6 126.6 27.4 126.6 29 C 126.6 30.1 126.4 31.4 124.7 31.4 C 123.3 31.4 123 30.6 123 29.7 C 123 29.7 123.9 29.7 123.9 29.7 C 123.9 30.2 124.1 30.7 124.7 30.7 C 125.6 30.7 125.7 29.9 125.7 29.2 C 125.7 28.2 125.6 27.4 124.8 27.4 C 124.3 27.4 124 27.7 123.9 28.2 C 123.92 28.2 123.1 28.2 123.1 28.2 L 123.1 24.3 L 126.3 24.3 Z M 130.2 25.8 C 130.2 26.8 130.1 27.7 128.9 27.7 C 127.7 27.7 127.6 26.8 127.6 25.8 C 127.6 24.9 127.7 23.9 128.9 23.9 C 130.1 23.9 130.2 24.9 130.2 25.8 Z M 128.3 25.8 C 128.3 26.7 128.3 27.1 128.9 27.1 C 129.5 27.1 129.5 26.7 129.5 25.8 C 129.5 24.9 129.5 24.4 128.9 24.4 C 128.3 24.4 128.3 24.9 128.3 25.8 Z M 134 29.5 C 134 30.5 133.9 31.4 132.7 31.4 C 131.5 31.4 131.5 30.5 131.5 29.5 C 131.5 28.6 131.5 27.6 132.7 27.6 C 133.9 27.6 134 28.6 134 29.5 Z M 132.2 29.5 C 132.2 30.4 132.2 30.8 132.7 30.8 C 133.3 30.8 133.3 30.4 133.3 29.5 C 133.3 28.6 133.3 28.1 132.7 28.1 C 132.2 28.1 132.2 28.6 132.2 29.5 Z M 129.4 31.6 L 128.8 31.6 L 132.2 23.7 L 132.9 23.7 L 129.4 31.6 Z M 140.9 26 C 140.9 25.6 140.9 25.2 140.7 25 C 140.5 24.7 140.1 24.6 139.9 24.6 C 139.2 24.6 138.9 25.1 138.8 25.2 C 138.8 25.3 138.6 25.5 138.6 26.7 C 138.6 26.7 138.6 28.6 138.6 28.6 C 138.6 30.4 139.2 30.6 139.9 30.6 C 140.2 30.6 141 30.5 141 29.1 C 141 29.1 142 29.1 142 29.1 C 142 31.4 140.4 31.4 140 31.4 C 139.1 31.4 137.7 31.3 137.7 28.5 C 137.7 28.5 137.7 26.5 137.7 26.5 C 137.7 24.4 138.6 23.9 140 23.9 C 141.4 23.9 142 24.6 141.9 26 C 141.9 26 140.9 26 140.9 26 Z M 144.4 31.2 L 143.4 31.2 L 143.4 24 L 144.4 24 L 144.4 31.2 Z M 146 32.4 C 146.3 31 146.6 29.6 146.6 28.1 C 146.6 26.6 146.3 25.1 146 23.7 C 146 23.7 146.6 23.7 146.6 23.7 C 147 25.1 147.6 26.6 147.6 28.1 C 147.6 29.6 147 31 146.6 32.4 C 146.6 32.4 146 32.4 146 32.4 Z " stroke="none" fill="#555555"/>  </g>  <g id="Polygon196554">    <path d="M 1.7 15.2 C 2.5 15.3 3.1 14.9 3.1 14 C 3.1 13.4 2.8 13 2.2 13 C 1.4 13 1.3 13.5 1.3 14.1 C 1.3 14.1 0.4 14.1 0.4 14.1 C 0.3 12.9 0.9 12.2 2.2 12.2 C 3.3 12.2 4 12.8 4 14 C 4 15.3 3.1 15.5 2.7 15.6 C 2.7 15.6 2.7 15.6 2.7 15.6 C 3.7 15.8 4.1 16.3 4.1 17.4 C 4.1 18.7 3.4 19.4 2 19.4 C 0.1 19.4 0.3 17.7 0.3 17.3 C 0.3 17.3 1.2 17.3 1.2 17.3 C 1.2 18 1.3 18.6 2.1 18.6 C 2.9 18.6 3.2 18.1 3.2 17.4 C 3.2 16.2 2.8 16 1.7 16 C 1.7 16 1.7 15.2 1.7 15.2 Z M 6 19.2 L 5.1 19.2 L 5.1 18.2 L 6 18.2 L 6 19.2 Z M 10.7 15.8 C 10.7 17.6 10.8 19.4 8.9 19.4 C 7 19.4 7 17.6 7 15.8 C 7 13.9 7 12.2 8.9 12.2 C 10.8 12.2 10.7 13.9 10.7 15.8 Z M 7.9 16 C 7.9 17.2 7.9 18.6 8.9 18.6 C 9.9 18.6 9.8 17.2 9.8 16 C 9.8 14.1 9.8 13 8.9 13 C 7.9 13 7.9 14.1 7.9 16 Z M 11.4 12.3 L 15 12.3 L 15 13.1 L 13.1 19.2 L 12.1 19.2 L 14 13.1 L 11.4 13.1 L 11.4 12.3 Z M 19.2 20.4 C 18.8 19 18.3 17.6 18.3 16.1 C 18.3 14.6 18.8 13.1 19.3 11.7 C 19.3 11.7 19.9 11.7 19.9 11.7 C 19.5 13.1 19.2 14.6 19.2 16.1 C 19.2 17.6 19.5 19 19.8 20.4 C 19.8 20.4 19.2 20.4 19.2 20.4 Z M 21 19.2 C 21 19.2 20.97 18.44 21 18.4 C 23 15.6 23.6 15.1 23.6 13.9 C 23.6 13.3 23.3 13 22.7 13 C 22 13 21.9 13.5 21.9 14.1 C 21.9 14.1 21 14.1 21 14.1 C 20.9 12.9 21.5 12.2 22.7 12.2 C 23.9 12.2 24.5 12.8 24.5 14 C 24.5 15.6 23.7 16.1 21.9 18.4 C 21.95 18.44 24.7 18.4 24.7 18.4 L 24.7 19.2 L 21 19.2 Z M 26.6 19.2 L 25.6 19.2 L 25.6 18.2 L 26.6 18.2 L 26.6 19.2 Z M 29.8 16.8 L 29.8 13.1 L 29.7 13.1 L 28.2 16.8 L 29.8 16.8 Z M 27.4 17.5 L 27.4 16.8 L 29.4 12.3 L 30.6 12.3 L 30.6 16.8 L 31.4 16.8 L 31.4 17.5 L 30.6 17.5 L 30.6 19.2 L 29.8 19.2 L 29.8 17.5 L 27.4 17.5 Z M 34.5 19.2 L 33.6 19.2 L 33.6 13.3 L 32.6 14 C 32.6 14 32.57 13.13 32.6 13.1 C 32.8 13 33.5 12.5 33.7 12.3 C 33.74 12.3 34.5 12.3 34.5 12.3 L 34.5 19.2 Z M 38.9 16.1 L 41.1 16.1 L 41.1 16.9 L 38.9 16.9 L 38.9 16.1 Z M 45.5 15.2 C 46.4 15.3 47 14.9 47 14 C 47 13.4 46.7 13 46 13 C 45.2 13 45.1 13.5 45.1 14.1 C 45.1 14.1 44.2 14.1 44.2 14.1 C 44.1 12.9 44.7 12.2 46 12.2 C 47.2 12.2 47.9 12.8 47.9 14 C 47.9 15.3 46.9 15.5 46.5 15.6 C 46.5 15.6 46.5 15.6 46.5 15.6 C 47.6 15.8 47.9 16.3 47.9 17.4 C 47.9 18.7 47.2 19.4 45.9 19.4 C 43.9 19.4 44.1 17.7 44.1 17.3 C 44.1 17.3 45 17.3 45 17.3 C 45 18 45.1 18.6 46 18.6 C 46.8 18.6 47 18.1 47 17.4 C 47 16.2 46.6 16 45.5 16 C 45.5 16 45.5 15.2 45.5 15.2 Z M 49.9 19.2 L 48.9 19.2 L 48.9 18.2 L 49.9 18.2 L 49.9 19.2 Z M 50.8 12.3 L 54.4 12.3 L 54.4 13.1 L 52.5 19.2 L 51.5 19.2 L 53.4 13.1 L 50.8 13.1 L 50.8 12.3 Z M 56.6 15.2 C 57.5 15.3 58.1 14.9 58.1 14 C 58.1 13.4 57.8 13 57.1 13 C 56.3 13 56.2 13.5 56.2 14.1 C 56.2 14.1 55.3 14.1 55.3 14.1 C 55.2 12.9 55.8 12.2 57.1 12.2 C 58.3 12.2 59 12.8 59 14 C 59 15.3 58 15.5 57.6 15.6 C 57.6 15.6 57.6 15.6 57.6 15.6 C 58.7 15.8 59 16.3 59 17.4 C 59 18.7 58.3 19.4 57 19.4 C 55 19.4 55.2 17.7 55.2 17.3 C 55.2 17.3 56.1 17.3 56.1 17.3 C 56.1 18 56.2 18.6 57.1 18.6 C 57.9 18.6 58.1 18.1 58.1 17.4 C 58.1 16.2 57.7 16 56.6 16 C 56.6 16 56.6 15.2 56.6 15.2 Z M 60.1 20.4 C 60.4 19 60.7 17.6 60.7 16.1 C 60.7 14.6 60.4 13.1 60.1 11.7 C 60.1 11.7 60.7 11.7 60.7 11.7 C 61.1 13.1 61.7 14.6 61.7 16.1 C 61.7 17.6 61.1 19 60.7 20.4 C 60.7 20.4 60.1 20.4 60.1 20.4 Z M 65.9 17.7 C 65.9 18.2 66.1 18.7 66.6 18.7 C 67.1 18.7 67.8 18.4 67.7 16.7 C 66.9 16.7 65.9 16.7 65.9 17.7 Z M 67.7 18.5 C 67.7 18.5 67.69 18.51 67.7 18.5 C 67.4 19.1 67 19.3 66.4 19.3 C 65.3 19.3 65 18.7 65 17.7 C 65 16.2 66.5 16.1 67.7 16.1 C 67.7 15.4 67.7 14.7 66.8 14.7 C 66.3 14.7 66 15.1 66 15.6 C 66 15.6 65.2 15.6 65.2 15.6 C 65.2 14.5 65.8 14.1 66.9 14.1 C 68.2 14.1 68.5 14.8 68.5 15.6 C 68.5 15.6 68.5 18 68.5 18 C 68.5 18.4 68.5 18.8 68.6 19.2 C 68.61 19.24 67.7 19.2 67.7 19.2 L 67.7 18.5 Z M 70.2 14.2 L 70.2 13.2 L 71 12.9 L 71 14.2 L 72.1 14.2 L 72.1 14.8 L 71 14.8 C 71 14.8 71.02 17.9 71 17.9 C 71 18.2 71 18.6 71.8 18.6 C 71.8 18.6 72 18.6 72.1 18.6 C 72.1 18.6 72.1 19.2 72.1 19.2 C 71.9 19.2 71.6 19.3 71.3 19.3 C 70.5 19.3 70.2 19 70.2 18.4 C 70.2 18.4 70.2 14.8 70.2 14.8 L 69.4 14.8 L 69.4 14.2 L 70.2 14.2 Z M 73 14.2 L 73 13.2 L 73.8 12.9 L 73.8 14.2 L 74.9 14.2 L 74.9 14.8 L 73.8 14.8 C 73.8 14.8 73.8 17.9 73.8 17.9 C 73.8 18.2 73.8 18.6 74.5 18.6 C 74.6 18.6 74.7 18.6 74.9 18.6 C 74.9 18.6 74.9 19.2 74.9 19.2 C 74.6 19.2 74.4 19.3 74.1 19.3 C 73.3 19.3 73 19 73 18.4 C 72.98 18.4 73 14.8 73 14.8 L 72.1 14.8 L 72.1 14.2 L 73 14.2 Z M 76.4 17.7 C 76.4 18.2 76.7 18.7 77.2 18.7 C 77.7 18.7 78.3 18.4 78.2 16.7 C 77.5 16.7 76.4 16.7 76.4 17.7 Z M 78.3 18.5 C 78.3 18.5 78.25 18.51 78.2 18.5 C 78 19.1 77.6 19.3 77 19.3 C 75.9 19.3 75.6 18.7 75.6 17.7 C 75.6 16.2 77.1 16.1 78.2 16.1 C 78.3 15.4 78.3 14.7 77.4 14.7 C 76.8 14.7 76.6 15.1 76.6 15.6 C 76.6 15.6 75.7 15.6 75.7 15.6 C 75.8 14.5 76.4 14.1 77.4 14.1 C 78.7 14.1 79.1 14.8 79.1 15.6 C 79.1 15.6 79.1 18 79.1 18 C 79.1 18.4 79.1 18.8 79.2 19.2 C 79.17 19.24 78.3 19.2 78.3 19.2 L 78.3 18.5 Z M 83.3 15.8 C 83.3 15 82.9 14.8 82.6 14.8 C 82 14.8 81.5 15.1 81.5 16.4 C 81.5 18.1 81.8 18.7 82.6 18.7 C 82.8 18.7 83.4 18.5 83.3 17.6 C 83.3 17.6 84.2 17.6 84.2 17.6 C 84.2 19 83.2 19.3 82.6 19.3 C 81.5 19.3 80.7 19 80.7 16.8 C 80.7 15.3 80.9 14.1 82.6 14.1 C 83.6 14.1 84.2 14.7 84.2 15.8 C 84.2 15.8 83.3 15.8 83.3 15.8 Z M 86.5 19.2 L 85.7 19.2 L 85.7 12 L 86.5 12 L 86.5 16.4 L 86.5 16.4 L 88 14.2 L 89 14.2 L 87.4 16.4 L 89.3 19.2 L 88.3 19.2 L 86.5 16.4 L 86.5 16.4 L 86.5 19.2 Z M 91.6 19.3 C 90.5 19.3 89.8 18.9 89.9 17.7 C 89.9 17.7 90.8 17.7 90.8 17.7 C 90.8 18 90.8 18.7 91.6 18.7 C 92.1 18.7 92.5 18.4 92.5 17.9 C 92.5 17 90 17 90 15.5 C 90 14.9 90.3 14.1 91.7 14.1 C 92.6 14.1 93.4 14.5 93.3 15.5 C 93.3 15.5 92.4 15.5 92.4 15.5 C 92.4 15 92.1 14.7 91.6 14.7 C 91.2 14.7 90.8 14.9 90.8 15.4 C 90.8 16.3 93.4 16.3 93.4 17.8 C 93.4 18.9 92.6 19.3 91.6 19.3 Z M 98.5 14.8 C 97.6 14.8 97.5 15.5 97.5 16.8 C 97.5 17.6 97.5 18.7 98.5 18.7 C 99.4 18.7 99.4 17.5 99.4 16.5 C 99.4 15.8 99.4 14.8 98.5 14.8 Z M 99.4 12 L 100.3 12 L 100.3 19.2 L 99.4 19.2 L 99.4 18.6 C 99.4 18.6 99.42 18.64 99.4 18.6 C 99.1 19.1 98.8 19.3 98.3 19.3 C 97.4 19.3 96.6 19 96.6 16.8 C 96.6 15.5 96.7 14.1 98.3 14.1 C 98.8 14.1 99.1 14.3 99.4 14.7 C 99.41 14.7 99.4 14.7 99.4 14.7 L 99.4 12 Z M 104.5 14.2 L 105.3 14.2 C 105.3 14.2 105.29 18.19 105.3 18.2 C 105.3 18.5 105.3 18.9 105.3 19.2 C 105.34 19.24 104.5 19.2 104.5 19.2 L 104.5 18.6 C 104.5 18.6 104.44 18.63 104.4 18.6 C 104.2 19.1 103.7 19.3 103.2 19.3 C 102.3 19.3 101.8 18.9 101.8 18 C 101.8 18.04 101.8 14.2 101.8 14.2 L 102.6 14.2 C 102.6 14.2 102.62 17.69 102.6 17.7 C 102.6 18.3 102.9 18.7 103.5 18.7 C 103.9 18.7 104.5 18.4 104.5 17.5 C 104.47 17.54 104.5 14.2 104.5 14.2 Z M 107.6 14.9 C 107.6 14.9 107.64 14.95 107.6 14.9 C 108 14.2 108.4 14.1 109.2 14.1 C 109.2 14.1 109.2 14.9 109.2 14.9 C 109.1 14.9 109 14.9 109 14.9 C 108.9 14.9 108.8 14.9 108.8 14.9 C 107.8 14.9 107.6 15.6 107.6 16.3 C 107.62 16.26 107.6 19.2 107.6 19.2 L 106.8 19.2 L 106.8 14.2 L 107.6 14.2 L 107.6 14.9 Z M 110.9 19.2 L 110.1 19.2 L 110.1 14.2 L 110.9 14.2 L 110.9 19.2 Z M 110 12 L 110.9 12 L 110.9 12.9 L 110 12.9 L 110 12 Z M 115.1 19.2 C 115.1 19.2 115.06 15.74 115.1 15.7 C 115.1 15.2 114.9 14.8 114.2 14.8 C 113.3 14.8 113.1 15.6 113.1 16.2 C 113.14 16.25 113.1 19.2 113.1 19.2 L 112.3 19.2 C 112.3 19.2 112.32 15.24 112.3 15.2 C 112.3 14.9 112.3 14.5 112.3 14.2 C 112.27 14.19 113.1 14.2 113.1 14.2 L 113.1 14.8 C 113.1 14.8 113.18 14.84 113.2 14.8 C 113.5 14.3 113.9 14.1 114.5 14.1 C 115.6 14.1 115.9 14.7 115.9 15.7 C 115.88 15.74 115.9 19.2 115.9 19.2 L 115.1 19.2 Z M 119 14.8 C 118.1 14.8 118.1 15.9 118.1 16.6 C 118.1 18.2 118.4 18.6 119 18.6 C 120 18.6 120 17.4 120 16.7 C 120 15.9 120.1 14.8 119 14.8 Z M 120 14.2 L 120.8 14.2 C 120.8 14.2 120.81 19.75 120.8 19.7 C 120.8 20.9 120.1 21.1 118.9 21.1 C 118.1 21.1 117.3 20.7 117.4 19.8 C 117.4 19.8 118.3 19.8 118.3 19.8 C 118.3 20.3 118.7 20.5 119.1 20.5 C 119.7 20.5 120 20.2 120 19.7 C 119.99 19.66 120 18.6 120 18.6 C 120 18.6 119.96 18.61 120 18.6 C 119.7 19 119.3 19.2 118.8 19.2 C 117.5 19.2 117.2 18.1 117.2 16.6 C 117.2 14.2 118.4 14.1 118.8 14.1 C 119.3 14.1 119.7 14.3 120 14.8 C 119.97 14.81 120 14.8 120 14.8 L 120 14.2 Z M 125.4 14.9 C 125.4 14.9 125.41 14.95 125.4 14.9 C 125.7 14.2 126.2 14.1 127 14.1 C 127 14.1 127 14.9 127 14.9 C 126.9 14.9 126.8 14.9 126.7 14.9 C 126.7 14.9 126.6 14.9 126.5 14.9 C 125.6 14.9 125.4 15.6 125.4 16.3 C 125.39 16.26 125.4 19.2 125.4 19.2 L 124.6 19.2 L 124.6 14.2 L 125.4 14.2 L 125.4 14.9 Z M 130.6 14.2 L 131.4 14.2 C 131.4 14.2 131.39 18.19 131.4 18.2 C 131.4 18.5 131.4 18.9 131.4 19.2 C 131.44 19.24 130.6 19.2 130.6 19.2 L 130.6 18.6 C 130.6 18.6 130.54 18.63 130.5 18.6 C 130.3 19.1 129.8 19.3 129.3 19.3 C 128.4 19.3 127.9 18.9 127.9 18 C 127.9 18.04 127.9 14.2 127.9 14.2 L 128.7 14.2 C 128.7 14.2 128.72 17.69 128.7 17.7 C 128.7 18.3 129 18.7 129.6 18.7 C 130 18.7 130.6 18.4 130.6 17.5 C 130.57 17.54 130.6 14.2 130.6 14.2 Z M 135.6 19.2 C 135.6 19.2 135.61 15.74 135.6 15.7 C 135.6 15.2 135.4 14.8 134.7 14.8 C 133.8 14.8 133.7 15.6 133.7 16.2 C 133.69 16.25 133.7 19.2 133.7 19.2 L 132.9 19.2 C 132.9 19.2 132.87 15.24 132.9 15.2 C 132.9 14.9 132.8 14.5 132.8 14.2 C 132.82 14.19 133.7 14.2 133.7 14.2 L 133.7 14.8 C 133.7 14.8 133.73 14.84 133.7 14.8 C 134 14.3 134.4 14.1 135.1 14.1 C 136.2 14.1 136.4 14.7 136.4 15.7 C 136.43 15.74 136.4 19.2 136.4 19.2 L 135.6 19.2 Z M 137.7 16.1 L 139.9 16.1 L 139.9 16.9 L 137.7 16.9 L 137.7 16.1 Z M 142 19.2 L 141.2 19.2 L 141.2 14.2 L 142 14.2 L 142 19.2 Z M 141.1 12 L 142 12 L 142 12.9 L 141.1 12.9 L 141.1 12 Z M 146.2 19.2 C 146.2 19.2 146.16 15.74 146.2 15.7 C 146.2 15.2 146 14.8 145.3 14.8 C 144.4 14.8 144.2 15.6 144.2 16.2 C 144.24 16.25 144.2 19.2 144.2 19.2 L 143.4 19.2 C 143.4 19.2 143.42 15.24 143.4 15.2 C 143.4 14.9 143.4 14.5 143.4 14.2 C 143.37 14.19 144.2 14.2 144.2 14.2 L 144.2 14.8 C 144.2 14.8 144.28 14.84 144.3 14.8 C 144.6 14.3 145 14.1 145.6 14.1 C 146.7 14.1 147 14.7 147 15.7 C 146.98 15.74 147 19.2 147 19.2 L 146.2 19.2 Z M 150.1 14.2 L 151 14.2 L 152.1 18.5 L 152.1 18.5 L 153.3 14.2 L 154.2 14.2 L 152.6 19.2 L 151.6 19.2 L 150.1 14.2 Z M 156.6 19.3 C 155.5 19.3 154.8 18.9 154.8 17.7 C 154.8 17.7 155.8 17.7 155.8 17.7 C 155.8 18 155.8 18.7 156.6 18.7 C 157.1 18.7 157.5 18.4 157.5 17.9 C 157.5 17 154.9 17 154.9 15.5 C 154.9 14.9 155.3 14.1 156.7 14.1 C 157.6 14.1 158.4 14.5 158.3 15.5 C 158.3 15.5 157.4 15.5 157.4 15.5 C 157.4 15 157.1 14.7 156.6 14.7 C 156.1 14.7 155.8 14.9 155.8 15.4 C 155.8 16.3 158.3 16.3 158.3 17.8 C 158.3 18.9 157.6 19.3 156.6 19.3 Z " stroke="none" fill="#555555"/>  </g>  <g id="Polygon196553">    <path d="M 2.4 0 L 3.6 0 L 6 7.2 L 4.9 7.2 L 4.4 5.5 L 1.6 5.5 L 1.1 7.2 L 0.2 7.2 L 2.4 0 Z M 3 0.9 L 3 0.9 L 1.9 4.7 L 4.2 4.7 L 3 0.9 Z M 11.9 0 L 11.9 7.2 L 10.7 7.2 L 7.8 1 L 7.8 1 L 7.8 7.2 L 7 7.2 L 7 0 L 8.3 0 L 11.1 6.2 L 11.1 6.2 L 11.1 0 L 11.9 0 Z M 14.5 6.4 C 14.5 6.4 15.4 6.44 15.4 6.4 C 16.7 6.4 17.2 6 17.2 4.3 C 17.2 4.3 17.2 2.8 17.2 2.8 C 17.2 1.4 16.7 0.8 15.7 0.8 C 15.74 0.82 14.5 0.8 14.5 0.8 L 14.5 6.4 Z M 13.6 0 C 13.6 0 15.83 0.02 15.8 0 C 16.8 0 17.4 0.4 17.8 1.1 C 18.1 1.7 18.1 3.2 18.1 3.4 C 18.1 4.9 17.9 5.8 17.6 6.3 C 17.3 6.9 16.5 7.2 15.3 7.2 C 15.27 7.24 13.6 7.2 13.6 7.2 L 13.6 0 Z M 19.7 7.2 L 19.7 0 L 23.4 0 L 23.4 0.8 L 20.6 0.8 L 20.6 3.1 L 23.2 3.1 L 23.2 3.9 L 20.6 3.9 L 20.6 6.4 L 23.5 6.4 L 23.5 7.2 L 19.7 7.2 Z M 25.6 7.2 L 24.7 7.2 L 24.7 0 L 26.2 0 L 28 6.1 L 28 6.1 L 29.9 0 L 31.4 0 L 31.4 7.2 L 30.5 7.2 L 30.5 0.8 L 30.5 0.8 L 28.4 7.2 L 27.6 7.2 L 25.6 0.8 L 25.6 0.8 L 25.6 7.2 Z M 34 6.4 C 34 6.4 35.34 6.44 35.3 6.4 C 36.3 6.4 36.7 5.7 36.7 5.2 C 36.7 4.1 36 3.9 35 3.9 C 35.02 3.86 34 3.9 34 3.9 L 34 6.4 Z M 34 3.1 C 34 3.1 35.38 3.06 35.4 3.1 C 36.1 3.1 36.5 2.6 36.5 1.9 C 36.5 1.3 36.1 0.8 35.3 0.8 C 35.34 0.82 34 0.8 34 0.8 L 34 3.1 Z M 33.1 7.2 L 33.1 0 C 33.1 0 35.47 0.02 35.5 0 C 36.5 0 36.8 0.4 37.1 0.8 C 37.3 1.1 37.4 1.6 37.4 1.7 C 37.4 2.6 37.1 3.2 36.1 3.4 C 36.1 3.4 36.1 3.5 36.1 3.5 C 37.2 3.6 37.6 4.2 37.6 5.2 C 37.6 7.1 36.3 7.2 35.4 7.2 C 35.44 7.24 33.1 7.2 33.1 7.2 Z M 40 3.1 C 40 3.1 41.42 3.12 41.4 3.1 C 42.1 3.1 42.4 2.6 42.4 1.9 C 42.4 1.4 42.1 0.8 41.4 0.8 C 41.43 0.82 40 0.8 40 0.8 L 40 3.1 Z M 40 3.9 L 40 7.2 L 39.1 7.2 L 39.1 0 C 39.1 0 41.61 0.02 41.6 0 C 42.9 0 43.3 0.9 43.3 1.8 C 43.3 2.7 42.9 3.3 42 3.5 C 42 3.5 42 3.5 42 3.5 C 42.8 3.6 43.1 3.9 43.2 5.3 C 43.2 5.7 43.3 6.8 43.4 7.2 C 43.4 7.2 42.5 7.2 42.5 7.2 C 42.2 6.7 42.3 5.8 42.2 4.8 C 42.1 4 41.4 3.9 41.1 3.9 C 41.12 3.92 40 3.9 40 3.9 Z M 47.9 0 L 48.8 0 L 46.8 4.5 L 46.8 7.2 L 45.9 7.2 L 45.9 4.5 L 44 0 L 45 0 L 46.4 3.5 L 47.9 0 Z M 53.4 1.8 C 53.4 3 52.4 4 51.2 4 C 50 4 49 3 49 1.8 C 49 0.6 50 -0.4 51.2 -0.4 C 52.4 -0.4 53.4 0.6 53.4 1.8 Z M 49.4 1.8 C 49.4 2.8 50.2 3.7 51.2 3.7 C 52.3 3.7 53.1 2.8 53.1 1.8 C 53.1 0.8 52.3 -0.1 51.2 -0.1 C 50.2 -0.1 49.4 0.8 49.4 1.8 Z M 50.8 3.1 L 50.4 3.1 L 50.4 0.5 C 50.4 0.5 51.41 0.55 51.4 0.5 C 51.9 0.5 52.1 0.9 52.1 1.2 C 52.1 1.5 51.9 1.7 51.6 1.8 C 51.6 1.8 51.6 1.8 51.6 1.8 C 51.9 1.8 52 1.9 52 2.4 C 52 2.5 52 2.9 52.1 3.1 C 52.1 3.1 51.7 3.1 51.7 3.1 C 51.6 2.9 51.6 2.6 51.6 2.2 C 51.6 2 51.3 1.9 51.2 1.9 C 51.22 1.94 50.8 1.9 50.8 1.9 L 50.8 3.1 Z M 50.8 1.6 C 50.8 1.6 51.34 1.62 51.3 1.6 C 51.6 1.6 51.7 1.4 51.7 1.2 C 51.7 1 51.6 0.8 51.3 0.8 C 51.34 0.83 50.8 0.8 50.8 0.8 L 50.8 1.6 Z M 58.2 2.8 C 57.3 2.8 57.2 3.9 57.2 4.6 C 57.2 6.2 57.6 6.6 58.2 6.6 C 59.2 6.6 59.2 5.4 59.2 4.7 C 59.2 3.9 59.2 2.8 58.2 2.8 Z M 59.2 2.2 L 60 2.2 C 60 2.2 59.98 7.75 60 7.7 C 60 8.9 59.2 9.1 58.1 9.1 C 57.3 9.1 56.5 8.7 56.6 7.8 C 56.6 7.8 57.5 7.8 57.5 7.8 C 57.5 8.3 57.8 8.5 58.3 8.5 C 58.9 8.5 59.2 8.2 59.2 7.7 C 59.16 7.66 59.2 6.6 59.2 6.6 C 59.2 6.6 59.13 6.61 59.1 6.6 C 58.9 7 58.5 7.2 58 7.2 C 56.7 7.2 56.4 6.1 56.4 4.6 C 56.4 2.2 57.6 2.1 58 2.1 C 58.5 2.1 58.9 2.3 59.1 2.8 C 59.14 2.81 59.2 2.8 59.2 2.8 L 59.2 2.2 Z M 62.3 2.9 C 62.3 2.9 62.36 2.95 62.4 2.9 C 62.7 2.2 63.1 2.1 63.9 2.1 C 63.9 2.1 63.9 2.9 63.9 2.9 C 63.9 2.9 63.8 2.9 63.7 2.9 C 63.6 2.9 63.6 2.9 63.5 2.9 C 62.6 2.9 62.3 3.6 62.3 4.3 C 62.34 4.26 62.3 7.2 62.3 7.2 L 61.5 7.2 L 61.5 2.2 L 62.3 2.2 L 62.3 2.9 Z M 67.7 4.4 C 67.7 3.1 67.2 2.8 66.6 2.8 C 66 2.8 65.5 3.1 65.5 4.4 C 65.5 6.1 65.8 6.7 66.6 6.7 C 67.5 6.7 67.7 6.1 67.7 4.4 Z M 64.7 4.8 C 64.7 3.3 64.9 2.1 66.6 2.1 C 68.4 2.1 68.5 3.3 68.5 4.8 C 68.5 7 67.7 7.3 66.6 7.3 C 65.5 7.3 64.7 7 64.7 4.8 Z M 72.5 2.2 L 73.3 2.2 C 73.3 2.2 73.34 6.19 73.3 6.2 C 73.3 6.5 73.4 6.9 73.4 7.2 C 73.39 7.24 72.5 7.2 72.5 7.2 L 72.5 6.6 C 72.5 6.6 72.49 6.63 72.5 6.6 C 72.2 7.1 71.7 7.3 71.2 7.3 C 70.3 7.3 69.9 6.9 69.9 6 C 69.85 6.04 69.9 2.2 69.9 2.2 L 70.7 2.2 C 70.7 2.2 70.67 5.69 70.7 5.7 C 70.7 6.3 71 6.7 71.5 6.7 C 72 6.7 72.5 6.4 72.5 5.5 C 72.52 5.54 72.5 2.2 72.5 2.2 Z M 77.7 4.6 C 77.7 3.9 77.7 2.8 76.6 2.8 C 75.6 2.8 75.7 4.2 75.7 4.9 C 75.7 5.6 75.8 6.7 76.7 6.7 C 77.5 6.7 77.7 6 77.7 4.6 Z M 75.7 2.8 C 75.7 2.8 75.73 2.79 75.7 2.8 C 76 2.3 76.4 2.1 76.9 2.1 C 77.7 2.1 78.5 2.4 78.5 4.6 C 78.5 5.9 78.5 7.3 76.9 7.3 C 76.4 7.3 76 7.1 75.7 6.7 C 75.74 6.73 75.7 6.7 75.7 6.7 L 75.7 9.1 L 74.9 9.1 L 74.9 2.2 L 75.7 2.2 L 75.7 2.8 Z M 80.7 3.2 L 79.7 3.2 L 79.7 2.2 L 80.7 2.2 L 80.7 3.2 Z M 80.7 7.2 L 79.7 7.2 L 79.7 6.2 L 80.7 6.2 L 80.7 7.2 Z " stroke="none" fill="#555555"/>  </g></svg>