<?xml version="1.0" standalone="no"?><!DOCTYPE svg PUBLIC "-//W3C//DTD SVG 1.1//EN" "http://www.w3.org/Graphics/SVG/1.1/DTD/svg11.dtd"><svg xmlns="http://www.w3.org/2000/svg" version="1.1" width="156px" height="48.6px" viewBox="0 0 156 48.6">  <desc>From pivotal Phase 3 study</desc>  <defs/>  <g id="Polygon198954">    <path d="M 63.3 34.8 C 63.3 35.1 63.3 35.5 63.4 35.7 C 63.6 36 63.8 36.1 64.2 36.1 C 64.7 36.1 65.1 35.8 65.1 35.3 C 65.1 33.6 61.2 34 61.2 31.4 C 61.2 29.7 62.9 29.2 64.3 29.2 C 65.8 29.2 67.2 29.9 67 31.6 C 67 31.6 64.9 31.6 64.9 31.6 C 64.9 31.1 64.8 30.7 64.6 30.6 C 64.5 30.5 64.3 30.4 64.1 30.4 C 63.6 30.4 63.3 30.7 63.3 31.3 C 63.3 32.5 67.2 32.5 67.2 35 C 67.2 36.4 66.1 37.5 64.3 37.5 C 62.3 37.5 61 37 61.2 34.8 C 61.2 34.8 63.3 34.8 63.3 34.8 Z M 67.7 29.3 L 68.6 29.3 L 68.6 28.1 L 70.8 27.1 L 70.8 29.3 L 71.9 29.3 L 71.9 30.7 L 70.8 30.7 C 70.8 30.7 70.79 34.97 70.8 35 C 70.8 35.6 70.8 36 71.5 36 C 71.6 36 71.8 36 71.9 35.9 C 71.9 35.9 71.9 37.3 71.9 37.3 C 71.6 37.3 71.3 37.4 70.7 37.4 C 68.8 37.4 68.6 36.1 68.6 35.6 C 68.57 35.62 68.6 30.7 68.6 30.7 L 67.7 30.7 L 67.7 29.3 Z M 76.8 36.5 C 76.8 36.5 76.81 36.5 76.8 36.5 C 76.6 36.8 76.3 37.1 76 37.2 C 75.7 37.4 75.4 37.5 74.9 37.5 C 73.9 37.5 73 36.8 73 35.7 C 72.95 35.73 73 29.3 73 29.3 L 75.2 29.3 C 75.2 29.3 75.17 34.86 75.2 34.9 C 75.2 35.6 75.3 36.1 76 36.1 C 76.7 36.1 76.8 35.6 76.8 34.9 C 76.85 34.86 76.8 29.3 76.8 29.3 L 79.1 29.3 C 79.1 29.3 79.07 35.73 79.1 35.7 C 79.1 36.2 79.1 36.8 79.1 37.3 C 79.14 37.3 76.8 37.3 76.8 37.3 L 76.8 36.5 Z M 84.7 33.3 C 84.7 31.7 84.7 30.6 83.8 30.6 C 82.8 30.6 82.8 31.7 82.8 33.3 C 82.8 35.3 83 36.1 83.8 36.1 C 84.6 36.1 84.7 35.3 84.7 33.3 Z M 84.8 37.3 L 84.8 36.4 C 84.8 36.4 84.77 36.42 84.8 36.4 C 84.4 37.2 83.7 37.5 82.9 37.5 C 80.6 37.5 80.7 34.9 80.7 33.3 C 80.7 31.7 80.6 29.2 82.8 29.2 C 83.7 29.2 84.2 29.4 84.7 30.1 C 84.66 30.1 84.7 30.1 84.7 30.1 L 84.7 25.9 L 86.9 25.9 L 86.9 37.3 L 84.8 37.3 Z M 90.1 37.4 L 88 29.3 L 90.2 29.3 L 91.3 34.9 L 91.3 34.9 L 92.5 29.3 L 94.7 29.3 L 91.6 40.3 L 89.3 40.3 L 90.1 37.4 Z " stroke="none" fill="#003c71"/>  </g>  <g id="Polygon198953">    <path d="M 12.6 18.4 L 12.6 7 L 18.5 7 L 18.5 8.8 L 15 8.8 L 15 11.7 L 18.4 11.7 L 18.4 13.4 L 15 13.4 L 15 18.4 L 12.6 18.4 Z M 21.7 10.4 L 21.7 11.5 C 21.7 11.5 21.7 11.46 21.7 11.5 C 22.1 10.5 22.9 10.3 23.8 10.3 C 23.8 10.3 23.8 12.3 23.8 12.3 C 21.8 12.1 21.8 13.3 21.8 14.1 C 21.78 14.06 21.8 18.4 21.8 18.4 L 19.6 18.4 L 19.6 10.4 L 21.7 10.4 Z M 28.9 14.2 C 28.9 12.5 28.8 11.7 27.9 11.7 C 26.9 11.7 26.8 12.5 26.8 14.2 C 26.8 16.6 27 17.1 27.9 17.1 C 28.7 17.1 28.9 16.6 28.9 14.2 Z M 24.6 14.3 C 24.6 12.1 24.9 10.3 27.9 10.3 C 30.8 10.3 31.1 12.1 31.1 14.3 C 31.1 16.8 30.7 18.5 27.9 18.5 C 25 18.5 24.6 16.8 24.6 14.3 Z M 34.7 11.2 C 34.7 11.2 34.76 11.24 34.8 11.2 C 35.2 10.5 35.8 10.3 36.6 10.3 C 37.4 10.3 38.1 10.7 38.4 11.3 C 38.9 10.6 39.6 10.3 40.5 10.3 C 41.5 10.3 42.5 10.9 42.5 12 C 42.47 12.01 42.5 18.4 42.5 18.4 L 40.2 18.4 C 40.2 18.4 40.25 12.91 40.2 12.9 C 40.2 12.2 40.1 11.6 39.4 11.6 C 38.7 11.6 38.6 12.2 38.6 12.9 C 38.58 12.91 38.6 18.4 38.6 18.4 L 36.4 18.4 C 36.4 18.4 36.4 12.91 36.4 12.9 C 36.4 12.2 36.3 11.6 35.6 11.6 C 34.9 11.6 34.7 12.2 34.7 12.9 C 34.73 12.91 34.7 18.4 34.7 18.4 L 32.5 18.4 L 32.5 10.4 L 34.7 10.4 L 34.7 11.2 Z M 51.6 14.3 C 51.6 12.8 51.6 11.6 50.7 11.6 C 49.8 11.6 49.8 12.8 49.8 14.3 C 49.8 16.3 49.9 17.2 50.7 17.2 C 51.5 17.2 51.6 16.3 51.6 14.3 Z M 49.7 10.4 L 49.7 11.3 C 49.7 11.3 49.7 11.32 49.7 11.3 C 50.1 10.5 50.7 10.3 51.6 10.3 C 53.9 10.3 53.8 12.8 53.8 14.5 C 53.8 16.1 53.9 18.5 51.6 18.5 C 50.8 18.5 50.3 18.3 49.8 17.6 C 49.81 17.64 49.8 17.6 49.8 17.6 L 49.8 21.8 L 47.6 21.8 L 47.6 10.4 L 49.7 10.4 Z M 57.8 18.4 L 55.6 18.4 L 55.6 10.4 L 57.8 10.4 L 57.8 18.4 Z M 57.8 7 L 57.8 8.8 L 55.6 8.8 L 55.6 7 L 57.8 7 Z M 59.1 10.4 L 61.3 10.4 L 62.4 16.4 L 62.5 16.4 L 63.6 10.4 L 65.8 10.4 L 63.6 18.4 L 61.2 18.4 L 59.1 10.4 Z M 70.9 14.2 C 70.9 12.5 70.8 11.7 69.9 11.7 C 68.9 11.7 68.8 12.5 68.8 14.2 C 68.8 16.6 69.1 17.1 69.9 17.1 C 70.7 17.1 70.9 16.6 70.9 14.2 Z M 66.6 14.3 C 66.6 12.1 66.9 10.3 69.9 10.3 C 72.8 10.3 73.1 12.1 73.1 14.3 C 73.1 16.8 72.7 18.5 69.9 18.5 C 67 18.5 66.6 16.8 66.6 14.3 Z M 73.8 10.4 L 74.7 10.4 L 74.7 9.2 L 76.9 8.2 L 76.9 10.4 L 78.1 10.4 L 78.1 11.8 L 76.9 11.8 C 76.9 11.8 76.91 16.06 76.9 16.1 C 76.9 16.7 76.9 17.1 77.6 17.1 C 77.8 17.1 77.9 17.1 78 17 C 78 17 78 18.4 78 18.4 C 77.7 18.4 77.4 18.5 76.9 18.5 C 74.9 18.5 74.7 17.2 74.7 16.7 C 74.69 16.71 74.7 11.8 74.7 11.8 L 73.8 11.8 L 73.8 10.4 Z M 81 15.9 C 81 16.5 81.1 17.2 81.8 17.2 C 83.1 17.2 82.9 15.4 82.9 14.5 C 81.8 14.6 81 14.5 81 15.9 Z M 85.1 16.9 C 85.1 17.4 85.2 17.9 85.2 18.4 C 85.22 18.39 83.2 18.4 83.2 18.4 L 83.1 17.3 C 83.1 17.3 83.03 17.34 83 17.3 C 82.6 18.2 81.9 18.5 80.9 18.5 C 79.4 18.5 78.8 17.4 78.8 16 C 78.8 13.4 80.9 13.3 82.9 13.3 C 82.9 13.3 82.9 12.7 82.9 12.7 C 82.9 12 82.8 11.5 82 11.5 C 81.3 11.5 81.2 12.1 81.2 12.7 C 81.2 12.7 79 12.7 79 12.7 C 79 11.8 79.3 11.2 79.8 10.8 C 80.4 10.4 81.1 10.3 81.9 10.3 C 84.7 10.3 85.1 11.5 85.1 12.9 C 85.1 12.9 85.1 16.9 85.1 16.9 Z M 89.4 7 L 89.4 18.4 L 87.1 18.4 L 87.1 7 L 89.4 7 Z M 97.3 12 C 97.3 12 98.66 12.01 98.7 12 C 99.4 12 99.9 11.2 99.9 10.5 C 99.9 9.6 99.6 8.8 98.5 8.8 C 98.53 8.76 97.3 8.8 97.3 8.8 L 97.3 12 Z M 95 7 C 95 7 99.24 7.02 99.2 7 C 101.4 7 102.3 8.3 102.3 10.4 C 102.3 11.7 101.9 13.8 99.1 13.8 C 99.1 13.76 97.3 13.8 97.3 13.8 L 97.3 18.4 L 95 18.4 L 95 7 Z M 107.5 18.4 C 107.5 18.4 107.49 12.91 107.5 12.9 C 107.5 12.2 107.4 11.6 106.6 11.6 C 105.9 11.6 105.8 12.2 105.8 12.9 C 105.81 12.91 105.8 18.4 105.8 18.4 L 103.6 18.4 L 103.6 7 L 105.8 7 L 105.8 11.2 C 105.8 11.2 105.85 11.24 105.8 11.2 C 106.1 10.9 106.3 10.6 106.6 10.5 C 106.9 10.3 107.3 10.3 107.7 10.3 C 108.8 10.3 109.7 10.9 109.7 12 C 109.71 12.01 109.7 18.4 109.7 18.4 L 107.5 18.4 Z M 113.4 15.9 C 113.4 16.5 113.5 17.2 114.2 17.2 C 115.5 17.2 115.3 15.4 115.3 14.5 C 114.2 14.6 113.4 14.5 113.4 15.9 Z M 117.5 16.9 C 117.5 17.4 117.6 17.9 117.6 18.4 C 117.62 18.39 115.6 18.4 115.6 18.4 L 115.5 17.3 C 115.5 17.3 115.43 17.34 115.4 17.3 C 115 18.2 114.3 18.5 113.3 18.5 C 111.8 18.5 111.2 17.4 111.2 16 C 111.2 13.4 113.3 13.3 115.3 13.3 C 115.3 13.3 115.3 12.7 115.3 12.7 C 115.3 12 115.2 11.5 114.4 11.5 C 113.7 11.5 113.6 12.1 113.6 12.7 C 113.6 12.7 111.4 12.7 111.4 12.7 C 111.4 11.8 111.7 11.2 112.2 10.8 C 112.7 10.4 113.5 10.3 114.3 10.3 C 117.1 10.3 117.5 11.5 117.5 12.9 C 117.5 12.9 117.5 16.9 117.5 16.9 Z M 121.1 15.8 C 121.1 16.2 121.1 16.5 121.2 16.8 C 121.3 17.1 121.6 17.2 122 17.2 C 122.5 17.2 122.8 16.9 122.8 16.4 C 122.8 14.7 118.9 15.1 118.9 12.5 C 118.9 10.8 120.6 10.3 122.1 10.3 C 123.6 10.3 124.9 11 124.8 12.7 C 124.8 12.7 122.6 12.7 122.6 12.7 C 122.6 12.2 122.6 11.8 122.4 11.7 C 122.3 11.6 122.1 11.5 121.9 11.5 C 121.4 11.5 121.1 11.8 121.1 12.4 C 121.1 13.6 125 13.6 125 16.1 C 125 17.5 123.9 18.5 122 18.5 C 120.1 18.5 118.8 18.1 118.9 15.8 C 118.9 15.8 121.1 15.8 121.1 15.8 Z M 130.4 13.5 C 130.4 12.8 130.5 11.6 129.4 11.6 C 128.4 11.6 128.4 12.8 128.4 13.5 C 128.4 13.5 130.4 13.5 130.4 13.5 Z M 128.4 14.8 C 128.4 15.7 128.4 17.1 129.4 17.1 C 130.2 17.1 130.3 16.4 130.3 15.7 C 130.3 15.7 132.6 15.7 132.6 15.7 C 132.6 16.6 132.3 17.3 131.8 17.8 C 131.2 18.3 130.4 18.5 129.4 18.5 C 126.5 18.5 126.2 16.8 126.2 14.3 C 126.2 12.1 126.5 10.3 129.4 10.3 C 132.4 10.3 132.7 12.2 132.6 14.8 C 132.6 14.8 128.4 14.8 128.4 14.8 Z M 137.2 10.1 C 137.2 9 137.4 8.3 137.9 7.8 C 138.4 7.4 139.2 7.3 140.3 7.3 C 142.4 7.3 143.3 8.1 143.3 10.2 C 143.3 11.2 143 12.5 141.8 12.6 C 141.8 12.6 141.8 12.7 141.8 12.7 C 143.3 12.9 143.5 14.1 143.5 15.3 C 143.5 17.6 142.3 18.5 140.1 18.5 C 137.9 18.5 137 17.8 137 15.4 C 137 15.4 139.3 15.4 139.3 15.4 C 139.3 16.1 139.2 16.9 140.2 16.9 C 141.2 16.9 141.3 16 141.3 15.2 C 141.3 13.6 140.7 13.5 139.2 13.5 C 139.2 13.5 139.2 11.8 139.2 11.8 C 140.7 11.9 141.1 11.7 141.1 10.2 C 141.1 9.6 141 8.9 140.2 8.9 C 139.4 8.9 139.4 9.5 139.4 10.1 C 139.4 10.1 137.2 10.1 137.2 10.1 Z " stroke="none" fill="#003c71"/>  </g></svg>