<?xml version="1.0" standalone="no"?><!DOCTYPE svg PUBLIC "-//W3C//DTD SVG 1.1//EN" "http://www.w3.org/Graphics/SVG/1.1/DTD/svg11.dtd"><svg xmlns="http://www.w3.org/2000/svg" version="1.1" width="466.5px" height="26.4px" viewBox="0 -5 466.5 26.4" style="top:-5px">  <desc>Monthly HAE attacks over 6 mONTH study period1,2</desc>  <defs/>  <g id="Polygon195342">    <path d="M 1 11.6 L 1 0 L 4.8 0 L 6.7 7.9 L 6.7 7.9 L 8.6 0 L 12.4 0 L 12.4 11.6 L 10 11.6 L 10 2.7 L 10 2.7 L 7.8 11.6 L 5.5 11.6 L 3.3 2.7 L 3.3 2.7 L 3.3 11.6 L 1 11.6 Z M 19.7 5.8 C 19.7 2.8 19.6 1.6 18.2 1.6 C 16.8 1.6 16.7 2.8 16.7 5.8 C 16.7 8.8 16.8 10 18.2 10 C 19.6 10 19.7 8.8 19.7 5.8 Z M 14.2 5.8 C 14.2 2.8 14.2 -0.2 18.2 -0.2 C 22.2 -0.2 22.2 2.8 22.2 5.8 C 22.2 8.8 22.2 11.8 18.2 11.8 C 14.2 11.8 14.2 8.8 14.2 5.8 Z M 24.1 11.6 L 24.1 0 L 27.4 0 L 30.5 8 L 30.5 8 L 30.5 0 L 32.8 0 L 32.8 11.6 L 29.6 11.6 L 26.4 3.1 L 26.4 3.1 L 26.4 11.6 L 24.1 11.6 Z M 41.7 0 L 41.7 2 L 39 2 L 39 11.6 L 36.6 11.6 L 36.6 2 L 33.9 2 L 33.9 0 L 41.7 0 Z M 48 4.7 L 48 0 L 50.5 0 L 50.5 11.6 L 48 11.6 L 48 6.4 L 45.3 6.4 L 45.3 11.6 L 42.9 11.6 L 42.9 0 L 45.3 0 L 45.3 4.7 L 48 4.7 Z M 52.6 11.6 L 52.6 0 L 55 0 L 55 9.7 L 58.6 9.7 L 58.6 11.6 L 52.6 11.6 Z M 60.6 7.6 L 57.6 0 L 60.2 0 L 62 4.9 L 63.8 0 L 66.3 0 L 63 7.6 L 63 11.6 L 60.6 11.6 L 60.6 7.6 Z M 76.2 4.7 L 76.2 0 L 78.6 0 L 78.6 11.6 L 76.2 11.6 L 76.2 6.4 L 73.4 6.4 L 73.4 11.6 L 71 11.6 L 71 0 L 73.4 0 L 73.4 4.7 L 76.2 4.7 Z M 79.8 11.6 L 83 0 L 86.2 0 L 89.3 11.6 L 86.8 11.6 L 86.2 9 L 82.9 9 L 82.2 11.6 L 79.8 11.6 Z M 84.5 2.3 L 84.4 2.3 L 83.3 7.2 L 85.6 7.2 L 84.5 2.3 Z M 90.5 11.6 L 90.5 0 L 96.8 0 L 96.8 1.8 L 92.9 1.8 L 92.9 4.7 L 96.5 4.7 L 96.5 6.4 L 92.9 6.4 L 92.9 9.8 L 96.9 9.8 L 96.9 11.6 L 90.5 11.6 Z M 101.2 11.6 L 104.4 0 L 107.5 0 L 110.7 11.6 L 108.1 11.6 L 107.5 9 L 104.2 9 L 103.5 11.6 L 101.2 11.6 Z M 105.8 2.3 L 105.8 2.3 L 104.7 7.2 L 107 7.2 L 105.8 2.3 Z M 117.7 0 L 117.7 2 L 115 2 L 115 11.6 L 112.6 11.6 L 112.6 2 L 109.9 2 L 109.9 0 L 117.7 0 Z M 125.7 0 L 125.7 2 L 123 2 L 123 11.6 L 120.6 11.6 L 120.6 2 L 117.9 2 L 117.9 0 L 125.7 0 Z M 125 11.6 L 128.2 0 L 131.4 0 L 134.5 11.6 L 132 11.6 L 131.3 9 L 128 9 L 127.4 11.6 L 125 11.6 Z M 129.7 2.3 L 129.6 2.3 L 128.5 7.2 L 130.8 7.2 L 129.7 2.3 Z M 135.6 5.8 C 135.6 2.8 135.6 -0.2 139.5 -0.2 C 142 -0.2 143 1.2 142.9 3.7 C 142.9 3.7 140.5 3.7 140.5 3.7 C 140.5 2.1 140.3 1.6 139.5 1.6 C 138.2 1.6 138 2.8 138 5.8 C 138 8.8 138.2 10 139.5 10 C 140.7 10 140.6 8.6 140.6 7.7 C 140.6 7.7 143 7.7 143 7.7 C 143 10.8 141.8 11.8 139.5 11.8 C 135.6 11.8 135.6 8.8 135.6 5.8 Z M 149.7 0 L 152.4 0 L 149.1 5.2 L 152.4 11.6 L 149.6 11.6 L 146.9 5.7 L 146.8 5.7 L 146.8 11.6 L 144.4 11.6 L 144.4 0 L 146.8 0 L 146.8 5 L 146.9 5 L 149.7 0 Z M 156.6 11.8 C 153.6 11.8 153 10 153.2 8 C 153.2 8 155.6 8 155.6 8 C 155.6 9.1 155.6 10 157 10 C 157.8 10 158.2 9.5 158.2 8.7 C 158.2 6.7 153.3 6.5 153.3 3.1 C 153.3 1.3 154.2 -0.2 157.1 -0.2 C 159.5 -0.2 160.6 0.9 160.5 3.3 C 160.5 3.3 158.1 3.3 158.1 3.3 C 158.1 2.4 158 1.6 157 1.6 C 156.2 1.6 155.8 2 155.8 2.8 C 155.8 5 160.6 4.8 160.6 8.4 C 160.6 11.4 158.4 11.8 156.6 11.8 Z M 171.3 5.8 C 171.3 2.8 171.1 1.6 169.8 1.6 C 168.4 1.6 168.2 2.8 168.2 5.8 C 168.2 8.8 168.4 10 169.8 10 C 171.1 10 171.3 8.8 171.3 5.8 Z M 165.8 5.8 C 165.8 2.8 165.8 -0.2 169.8 -0.2 C 173.8 -0.2 173.8 2.8 173.8 5.8 C 173.8 8.8 173.8 11.8 169.8 11.8 C 165.8 11.8 165.8 8.8 165.8 5.8 Z M 174.8 0 L 177.3 0 L 179.1 8.4 L 179.1 8.4 L 181.1 0 L 183.5 0 L 180.4 11.6 L 177.6 11.6 L 174.8 0 Z M 184.6 11.6 L 184.6 0 L 190.9 0 L 190.9 1.8 L 187 1.8 L 187 4.7 L 190.6 4.7 L 190.6 6.4 L 187 6.4 L 187 9.8 L 191 9.8 L 191 11.6 L 184.6 11.6 Z M 194.9 5 C 194.9 5 196.01 5.02 196 5 C 197 5 197.2 4.1 197.2 3.3 C 197.2 2.2 196.8 1.8 196 1.8 C 196.01 1.81 194.9 1.8 194.9 1.8 L 194.9 5 Z M 194.9 11.6 L 192.5 11.6 L 192.5 0 C 192.5 0 196.99 0.03 197 0 C 198.6 0 199.7 1.1 199.7 3.1 C 199.7 4.5 199.1 5.6 197.6 5.9 C 197.6 5.9 197.6 5.9 197.6 5.9 C 198.1 6 199.6 6.1 199.6 8.2 C 199.6 8.9 199.7 11.1 199.9 11.6 C 199.9 11.6 197.6 11.6 197.6 11.6 C 197.2 10.9 197.3 10.1 197.3 9.3 C 197.3 8 197.4 6.8 195.6 6.8 C 195.57 6.8 194.9 6.8 194.9 6.8 L 194.9 11.6 Z M 208.5 7.9 C 208.5 6.5 208.4 5.9 207.5 5.9 C 206.6 5.9 206.6 6.7 206.6 8.1 C 206.6 8.8 206.6 10.1 207.5 10.1 C 208.3 10.1 208.5 9.7 208.5 7.9 Z M 208.3 2.8 C 208.3 2.5 208.3 2.3 208.2 2.1 C 208.1 1.9 207.9 1.8 207.5 1.8 C 206.6 1.8 206.5 2.3 206.5 5.1 C 207.1 4.6 207.5 4.4 208.3 4.4 C 210.4 4.4 210.8 6.2 210.8 7.9 C 210.8 10.2 209.9 11.7 207.4 11.7 C 204.5 11.7 204.3 9.2 204.3 6.9 C 204.3 2.5 204.6 0.3 207.7 0.3 C 209.4 0.3 210.7 1 210.7 2.8 C 210.7 2.8 208.3 2.8 208.3 2.8 Z M 215.6 11.6 L 215.6 0 L 219.5 0 L 221.3 7.9 L 221.4 7.9 L 223.3 0 L 227 0 L 227 11.6 L 224.7 11.6 L 224.7 2.7 L 224.7 2.7 L 222.4 11.6 L 220.1 11.6 L 218 2.7 L 218 2.7 L 218 11.6 L 215.6 11.6 Z M 234.4 5.8 C 234.4 2.8 234.2 1.6 232.9 1.6 C 231.5 1.6 231.3 2.8 231.3 5.8 C 231.3 8.8 231.5 10 232.9 10 C 234.2 10 234.4 8.8 234.4 5.8 Z M 228.9 5.8 C 228.9 2.8 228.9 -0.2 232.9 -0.2 C 236.9 -0.2 236.9 2.8 236.9 5.8 C 236.9 8.8 236.9 11.8 232.9 11.8 C 228.9 11.8 228.9 8.8 228.9 5.8 Z M 238.8 11.6 L 238.8 0 L 242.1 0 L 245.1 8 L 245.2 8 L 245.2 0 L 247.4 0 L 247.4 11.6 L 244.2 11.6 L 241.1 3.1 L 241.1 3.1 L 241.1 11.6 L 238.8 11.6 Z M 256.3 0 L 256.3 2 L 253.6 2 L 253.6 11.6 L 251.2 11.6 L 251.2 2 L 248.5 2 L 248.5 0 L 256.3 0 Z M 262.7 4.7 L 262.7 0 L 265.1 0 L 265.1 11.6 L 262.7 11.6 L 262.7 6.4 L 259.9 6.4 L 259.9 11.6 L 257.5 11.6 L 257.5 0 L 259.9 0 L 259.9 4.7 L 262.7 4.7 Z M 273.9 11.8 C 270.9 11.8 270.4 10 270.5 8 C 270.5 8 272.9 8 272.9 8 C 272.9 9.1 273 10 274.3 10 C 275.1 10 275.5 9.5 275.5 8.7 C 275.5 6.7 270.6 6.5 270.6 3.1 C 270.6 1.3 271.5 -0.2 274.4 -0.2 C 276.8 -0.2 278 0.9 277.8 3.3 C 277.8 3.3 275.5 3.3 275.5 3.3 C 275.5 2.4 275.3 1.6 274.3 1.6 C 273.5 1.6 273.1 2 273.1 2.8 C 273.1 5 277.9 4.8 277.9 8.4 C 277.9 11.4 275.8 11.8 273.9 11.8 Z M 286.6 0 L 286.6 2 L 283.9 2 L 283.9 11.6 L 281.5 11.6 L 281.5 2 L 278.8 2 L 278.8 0 L 286.6 0 Z M 295.5 0 C 295.5 0 295.48 8.22 295.5 8.2 C 295.5 10 294.5 11.8 291.6 11.8 C 288.9 11.8 287.6 10.4 287.6 8.2 C 287.63 8.22 287.6 0 287.6 0 L 290 0 C 290 0 290.04 8.06 290 8.1 C 290 9.5 290.7 10 291.5 10 C 292.6 10 293.1 9.3 293.1 8.1 C 293.07 8.06 293.1 0 293.1 0 L 295.5 0 Z M 299.9 9.8 C 299.9 9.8 301.08 9.81 301.1 9.8 C 302.6 9.8 302.8 8.7 302.8 5.8 C 302.8 3.7 302.8 1.8 301.2 1.8 C 301.16 1.81 299.9 1.8 299.9 1.8 L 299.9 9.8 Z M 297.5 0 C 297.5 0 301.53 0.03 301.5 0 C 304.7 0 305.3 2.1 305.3 5.7 C 305.3 7.5 305.6 11.6 301.4 11.6 C 301.44 11.58 297.5 11.6 297.5 11.6 L 297.5 0 Z M 309.4 7.6 L 306.3 0 L 309 0 L 310.7 4.9 L 312.5 0 L 315 0 L 311.8 7.6 L 311.8 11.6 L 309.4 11.6 L 309.4 7.6 Z M 322.1 5.1 C 322.1 5.1 323.45 5.1 323.5 5.1 C 324.2 5.1 324.7 4.3 324.7 3.6 C 324.7 2.6 324.4 1.8 323.3 1.8 C 323.32 1.81 322.1 1.8 322.1 1.8 L 322.1 5.1 Z M 319.7 0 C 319.7 0 324.04 0.03 324 0 C 326.3 0 327.1 1.4 327.1 3.5 C 327.1 4.8 326.7 6.9 323.9 6.9 C 323.9 6.88 322.1 6.9 322.1 6.9 L 322.1 11.6 L 319.7 11.6 L 319.7 0 Z M 328.6 11.6 L 328.6 0 L 334.9 0 L 334.9 1.8 L 331 1.8 L 331 4.7 L 334.6 4.7 L 334.6 6.4 L 331 6.4 L 331 9.8 L 335 9.8 L 335 11.6 L 328.6 11.6 Z M 338.9 5 C 338.9 5 340.01 5.02 340 5 C 341 5 341.2 4.1 341.2 3.3 C 341.2 2.2 340.8 1.8 340 1.8 C 340.01 1.81 338.9 1.8 338.9 1.8 L 338.9 5 Z M 338.9 11.6 L 336.5 11.6 L 336.5 0 C 336.5 0 340.99 0.03 341 0 C 342.6 0 343.7 1.1 343.7 3.1 C 343.7 4.5 343.1 5.6 341.5 5.9 C 341.5 5.9 341.5 5.9 341.5 5.9 C 342.1 6 343.6 6.1 343.6 8.2 C 343.6 8.9 343.7 11.1 343.9 11.6 C 343.9 11.6 341.5 11.6 341.5 11.6 C 341.2 10.9 341.3 10.1 341.3 9.3 C 341.3 8 341.4 6.8 339.6 6.8 C 339.56 6.8 338.9 6.8 338.9 6.8 L 338.9 11.6 Z M 345.5 11.6 L 345.5 0 L 347.9 0 L 347.9 11.6 L 345.5 11.6 Z M 355.3 5.8 C 355.3 2.8 355.1 1.6 353.8 1.6 C 352.4 1.6 352.3 2.8 352.3 5.8 C 352.3 8.8 352.4 10 353.8 10 C 355.1 10 355.3 8.8 355.3 5.8 Z M 349.8 5.8 C 349.8 2.8 349.8 -0.2 353.8 -0.2 C 357.8 -0.2 357.8 2.8 357.8 5.8 C 357.8 8.8 357.8 11.8 353.8 11.8 C 349.8 11.8 349.8 8.8 349.8 5.8 Z M 362.2 9.8 C 362.2 9.8 363.32 9.81 363.3 9.8 C 364.8 9.8 365.1 8.7 365.1 5.8 C 365.1 3.7 365.1 1.8 363.4 1.8 C 363.4 1.81 362.2 1.8 362.2 1.8 L 362.2 9.8 Z M 359.7 0 C 359.7 0 363.77 0.03 363.8 0 C 366.9 0 367.5 2.1 367.5 5.7 C 367.5 7.5 367.8 11.6 363.7 11.6 C 363.68 11.58 359.7 11.6 359.7 11.6 L 359.7 0 Z M 368.9 0.8 C 369.4 0.5 369.8 0.2 370.2 -0.3 C 370.18 -0.25 371.4 -0.3 371.4 -0.3 L 371.4 6.3 L 370 6.3 C 370 6.3 370.02 1.25 370 1.2 C 369.7 1.5 369.3 1.8 368.9 2 C 368.9 2 368.9 0.8 368.9 0.8 Z M 373.2 5 L 374.4 5 L 373.7 7.2 L 372.8 7.2 L 373.2 5 Z M 374.8 6.3 C 374.8 6.3 374.78 5.11 374.8 5.1 C 376.8 2.4 377.3 2.1 377.3 1.2 C 377.3 0.9 377.1 0.6 376.8 0.6 C 376.2 0.6 376.2 1.1 376.2 1.5 C 376.2 1.5 374.9 1.5 374.9 1.5 C 374.8 0.3 375.5 -0.3 376.7 -0.3 C 377.8 -0.3 378.6 0.1 378.6 1.3 C 378.6 2.8 376.9 4.5 376.2 5.2 C 376.16 5.25 378.6 5.2 378.6 5.2 L 378.6 6.3 L 374.8 6.3 Z " stroke="none" fill="#00b398"/>  </g></svg>