<?xml version="1.0" standalone="no"?><!DOCTYPE svg PUBLIC "-//W3C//DTD SVG 1.1//EN" "http://www.w3.org/Graphics/SVG/1.1/DTD/svg11.dtd"><svg xmlns="http://www.w3.org/2000/svg" version="1.1" width="152px" height="39px" viewBox="0 -1 152 39" style="top:-1px">  <desc>EFFICACY</desc>  <defs/>  <g id="Polygon202828">    <path d="M 52.6 9.5 L 57.5 9.5 L 57.5 11 L 54.4 11 L 54.4 15.1 L 57.3 15.1 L 57.3 16.6 L 54.4 16.6 L 54.4 21 L 57.5 21 L 57.5 22.5 L 52.6 22.5 L 52.6 9.5 Z M 58.3 9.5 L 63.2 9.5 L 63.2 11 L 60.1 11 L 60.1 15.1 L 63 15.1 L 63 16.6 L 60.1 16.6 L 60.1 22.5 L 58.3 22.5 L 58.3 9.5 Z M 63.9 9.5 L 68.8 9.5 L 68.8 11 L 65.7 11 L 65.7 15.1 L 68.7 15.1 L 68.7 16.6 L 65.7 16.6 L 65.7 22.5 L 63.9 22.5 L 63.9 9.5 Z M 69.6 9.5 L 71.4 9.5 L 71.4 22.5 L 69.6 22.5 L 69.6 9.5 Z M 72.4 12.8 C 72.4 11 73 9.4 75.5 9.4 C 77.3 9.4 78.1 10.3 78.1 11.8 C 78.09 11.77 78.1 13.1 78.1 13.1 L 76.4 13.1 C 76.4 13.1 76.4 12.17 76.4 12.2 C 76.4 11.3 76.1 10.8 75.4 10.8 C 74.4 10.8 74.2 11.5 74.2 13 C 74.2 13 74.2 19.4 74.2 19.4 C 74.2 21 74.7 21.2 75.3 21.2 C 76 21.2 76.4 20.8 76.4 19.7 C 76.4 19.67 76.4 18.8 76.4 18.8 L 78.1 18.8 C 78.1 18.8 78.09 20.21 78.1 20.2 C 78.1 21.6 77.5 22.6 75.4 22.6 C 73.2 22.6 72.4 21.4 72.4 19.4 C 72.4 19.4 72.4 12.8 72.4 12.8 Z M 81.2 9.5 L 83.2 9.5 L 85.9 22.5 L 84.1 22.5 L 83.5 19.2 L 80.7 19.2 L 80.1 22.5 L 78.3 22.5 L 81.2 9.5 Z M 81 17.7 L 83.2 17.7 L 82.1 11.4 L 82.1 11.4 L 81 17.7 Z M 86.5 12.8 C 86.5 11 87.1 9.4 89.5 9.4 C 91.3 9.4 92.1 10.3 92.1 11.8 C 92.12 11.77 92.1 13.1 92.1 13.1 L 90.4 13.1 C 90.4 13.1 90.42 12.17 90.4 12.2 C 90.4 11.3 90.1 10.8 89.4 10.8 C 88.4 10.8 88.3 11.5 88.3 13 C 88.3 13 88.3 19.4 88.3 19.4 C 88.3 21 88.7 21.2 89.3 21.2 C 90 21.2 90.4 20.8 90.4 19.7 C 90.42 19.67 90.4 18.8 90.4 18.8 L 92.1 18.8 C 92.1 18.8 92.12 20.21 92.1 20.2 C 92.1 21.6 91.6 22.6 89.5 22.6 C 87.2 22.6 86.5 21.4 86.5 19.4 C 86.5 19.4 86.5 12.8 86.5 12.8 Z M 92.6 9.5 L 94.4 9.5 L 96 15 L 96 15 L 97.8 9.5 L 99.4 9.5 L 96.9 17.2 L 96.9 22.5 L 95.1 22.5 L 95.1 17.2 L 92.6 9.5 Z " stroke="none" fill="#fff"/>  </g></svg>