<?xml version="1.0" standalone="no"?><!DOCTYPE svg PUBLIC "-//W3C//DTD SVG 1.1//EN" "http://www.w3.org/Graphics/SVG/1.1/DTD/svg11.dtd"><svg xmlns="http://www.w3.org/2000/svg" version="1.1" width="660px" height="41.7px" viewBox="0 -7 660 41.7" style="top:-7px">  <desc>PHASE 3 AE PROFILE1,2</desc>  <defs/>  <g id="Polygon201810">    <path d="M 3.8 9.1 C 3.8 9.1 5.29 9.13 5.3 9.1 C 7.2 9.1 7.4 8.8 7.4 5.8 C 7.4 2.7 7.2 2.4 5.3 2.4 C 5.29 2.41 3.8 2.4 3.8 2.4 L 3.8 9.1 Z M 1 0.1 C 1 0.1 5.66 0.06 5.7 0.1 C 9.5 0.1 10.2 1.1 10.2 5.8 C 10.2 10.4 9.5 11.5 5.7 11.5 C 5.66 11.48 3.8 11.5 3.8 11.5 L 3.8 20.3 L 1 20.3 L 1 0.1 Z M 11.9 0.1 L 14.7 0.1 L 14.7 8.7 L 18.5 8.7 L 18.5 0.1 L 21.3 0.1 L 21.3 20.3 L 18.5 20.3 L 18.5 11.1 L 14.7 11.1 L 14.7 20.3 L 11.9 20.3 L 11.9 0.1 Z M 27 0.1 L 30.3 0.1 L 34.4 20.3 L 31.6 20.3 L 30.7 15.1 L 26.3 15.1 L 25.4 20.3 L 22.6 20.3 L 27 0.1 Z M 26.7 12.8 L 30.3 12.8 L 28.6 3 L 28.5 3 L 26.7 12.8 Z M 35.4 14.4 L 38.2 14.4 C 38.2 14.4 38.25 16.07 38.2 16.1 C 38.2 17.4 38.8 18.3 39.9 18.3 C 41.4 18.3 41.7 17.2 41.7 15.9 C 41.7 14.2 41.6 13.7 38.7 10.8 C 36.9 9 35.4 7.4 35.4 4.6 C 35.4 1.3 37 -0.1 40 -0.1 C 41.6 -0.1 42.6 0.4 43.3 1 C 43.8 1.5 44.1 2.2 44.1 3.6 C 44.13 3.58 44.1 5.5 44.1 5.5 L 41.5 5.5 C 41.5 5.5 41.5 3.89 41.5 3.9 C 41.5 2.7 41 2.1 39.9 2.1 C 38.8 2.1 38.2 2.7 38.2 4.3 C 38.2 5.7 38.5 6.5 41.1 9.2 C 43.8 12 44.4 13 44.4 15.5 C 44.4 18.6 43.1 20.4 39.8 20.4 C 37.2 20.4 35.4 19.3 35.4 16.8 C 35.45 16.83 35.4 14.4 35.4 14.4 Z M 46.1 0.1 L 53.7 0.1 L 53.7 2.4 L 48.9 2.4 L 48.9 8.7 L 53.5 8.7 L 53.5 11.1 L 48.9 11.1 L 48.9 17.9 L 53.7 17.9 L 53.7 20.3 L 46.1 20.3 L 46.1 0.1 Z M 60.1 14.8 L 62.8 14.8 C 62.8 14.8 62.77 15.9 62.8 15.9 C 62.8 17.5 63.2 18.4 64.3 18.4 C 65.5 18.4 65.9 17.5 65.9 15.9 C 65.9 15.9 65.9 13.5 65.9 13.5 C 65.9 11.7 65.4 11.1 63.5 11.1 C 63.47 11.09 62.8 11.1 62.8 11.1 L 62.8 8.7 C 62.8 8.7 63.67 8.74 63.7 8.7 C 65.4 8.7 65.8 8.3 65.8 6.3 C 65.8 6.3 65.8 4.1 65.8 4.1 C 65.8 2.3 65.2 1.9 64.5 1.9 C 63.3 1.9 62.9 2.8 62.9 4.4 C 62.91 4.42 62.9 5.1 62.9 5.1 C 62.9 5.1 60.28 5.1 60.3 5.1 C 60.3 1.2 61.1 -0.1 64.5 -0.1 C 67.7 -0.1 68.4 1.4 68.4 5.3 C 68.4 8.8 68 9.5 65.9 9.8 C 65.9 9.8 65.9 9.9 65.9 9.9 C 67.7 10.2 68.5 10.6 68.5 15.5 C 68.5 19.1 67.6 20.4 64.3 20.4 C 61 20.4 60.1 19.1 60.1 15.5 C 60.14 15.46 60.1 14.8 60.1 14.8 Z M 78.5 0.1 L 81.7 0.1 L 85.8 20.3 L 83 20.3 L 82.1 15.1 L 77.7 15.1 L 76.8 20.3 L 74 20.3 L 78.5 0.1 Z M 78.1 12.8 L 81.7 12.8 L 80 3 L 79.9 3 L 78.1 12.8 Z M 87.2 0.1 L 94.8 0.1 L 94.8 2.4 L 90 2.4 L 90 8.7 L 94.5 8.7 L 94.5 11.1 L 90 11.1 L 90 17.9 L 94.8 17.9 L 94.8 20.3 L 87.2 20.3 L 87.2 0.1 Z M 104 9.1 C 104 9.1 105.45 9.13 105.4 9.1 C 107.3 9.1 107.5 8.8 107.5 5.8 C 107.5 2.7 107.3 2.4 105.4 2.4 C 105.45 2.41 104 2.4 104 2.4 L 104 9.1 Z M 101.2 0.1 C 101.2 0.1 105.81 0.06 105.8 0.1 C 109.6 0.1 110.3 1.1 110.3 5.8 C 110.3 10.4 109.6 11.5 105.8 11.5 C 105.81 11.48 104 11.5 104 11.5 L 104 20.3 L 101.2 20.3 L 101.2 0.1 Z M 112.1 0.1 C 112.1 0.1 116.42 0.06 116.4 0.1 C 120.5 0.1 120.9 1.1 120.9 5.6 C 120.9 8.3 120.6 9.5 118.3 10.2 C 118.3 10.2 118.3 10.2 118.3 10.2 C 120.2 10.4 120.8 11.4 120.8 13.3 C 120.8 13.3 120.8 17.7 120.8 17.7 C 120.8 18.4 120.8 19.4 121 20.3 C 121 20.3 118.4 20.3 118.4 20.3 C 118.1 19.8 118 19.3 118 18.5 C 118 18.5 118 13.9 118 13.9 C 118 12 117.7 11.5 115.8 11.5 C 115.83 11.48 114.9 11.5 114.9 11.5 L 114.9 20.3 L 112.1 20.3 L 112.1 0.1 Z M 114.9 9.1 C 114.9 9.1 115.61 9.13 115.6 9.1 C 117.8 9.1 118.1 8.7 118.1 5.7 C 118.1 2.7 118 2.4 116.2 2.4 C 116.23 2.41 114.9 2.4 114.9 2.4 L 114.9 9.1 Z M 125.7 15.6 C 125.7 17.3 126.5 18.3 127.6 18.3 C 128.8 18.3 129.6 17.3 129.6 15.6 C 129.6 15.6 129.6 5 129.6 5 C 129.6 3 128.9 2.1 127.6 2.1 C 126.4 2.1 125.7 3 125.7 5 C 125.7 5 125.7 15.6 125.7 15.6 Z M 122.9 5.2 C 122.9 2.4 123.8 -0.1 127.6 -0.1 C 131.2 -0.1 132.4 1.8 132.4 4.9 C 132.4 4.9 132.4 15.1 132.4 15.1 C 132.4 17.9 131.5 20.4 127.6 20.4 C 124 20.4 122.9 18.6 122.9 15.4 C 122.9 15.4 122.9 5.2 122.9 5.2 Z M 134.4 0.1 L 142 0.1 L 142 2.4 L 137.2 2.4 L 137.2 8.7 L 141.7 8.7 L 141.7 11.1 L 137.2 11.1 L 137.2 20.3 L 134.4 20.3 L 134.4 0.1 Z M 143.1 0.1 L 145.9 0.1 L 145.9 20.3 L 143.1 20.3 L 143.1 0.1 Z M 147.9 0.1 L 150.7 0.1 L 150.7 17.9 L 155.4 17.9 L 155.4 20.3 L 147.9 20.3 L 147.9 0.1 Z M 156.7 0.1 L 164.3 0.1 L 164.3 2.4 L 159.5 2.4 L 159.5 8.7 L 164 8.7 L 164 11.1 L 159.5 11.1 L 159.5 17.9 L 164.3 17.9 L 164.3 20.3 L 156.7 20.3 L 156.7 0.1 Z M 167.1 1.4 C 167.1 1.4 167.07 1.38 167.1 1.4 C 166.7 1.8 166.4 2.1 165.8 2.6 C 165.8 2.6 165.8 1.1 165.8 1.1 C 166.2 0.8 167.1 -0.3 167.3 -0.8 C 167.27 -0.84 168.6 -0.8 168.6 -0.8 L 168.6 10.9 L 167.1 10.9 L 167.1 1.4 Z M 171.4 9 L 173.1 9 L 172.2 11.9 L 171 11.9 L 171.4 9 Z M 174.2 9.4 C 174.2 9.4 176.56 4.94 176.6 4.9 C 177.2 3.7 177.5 2.9 177.5 1.6 C 177.5 0.5 177.2 0.2 176.7 0.2 C 176 0.2 175.9 0.6 175.9 1.4 C 175.87 1.43 175.9 2.2 175.9 2.2 L 174.3 2.2 C 174.3 2.2 174.34 1.28 174.3 1.3 C 174.3 -0.3 174.8 -0.9 176.6 -0.9 C 178.5 -0.9 179 -0.3 179 1.7 C 179 3 178.9 3.7 178.3 5 C 178.26 4.97 175.8 9.6 175.8 9.6 L 179.1 9.6 L 179.1 10.9 L 174.2 10.9 L 174.2 9.4 Z " stroke="none" fill="#003c71"/>  </g></svg>