<?xml version="1.0" standalone="no"?><!DOCTYPE svg PUBLIC "-//W3C//DTD SVG 1.1//EN" "http://www.w3.org/Graphics/SVG/1.1/DTD/svg11.dtd"><svg xmlns="http://www.w3.org/2000/svg" version="1.1" width="383px" height="59.7px" viewBox="0 -1 383 59.7" style="top:-1px">  <desc>A low number of injection site reactions* (5%) vs. placebo (12%) with no reports of injection site pain</desc>  <defs/>  <g id="Polygon201211">    <path d="M 0.1 34.3 L 2.6 34.3 L 3.8 40.8 L 3.8 40.8 L 5.1 34.3 L 7.4 34.3 L 5 42.9 L 2.4 42.9 L 0.1 34.3 Z M 10.4 40.2 C 10.4 40.5 10.4 40.9 10.5 41.2 C 10.6 41.5 10.9 41.6 11.4 41.6 C 11.8 41.6 12.3 41.3 12.3 40.7 C 12.3 38.9 8 39.3 8 36.6 C 8 34.7 9.9 34.2 11.4 34.2 C 13.1 34.2 14.5 34.9 14.4 36.8 C 14.4 36.8 12.1 36.8 12.1 36.8 C 12.1 36.2 12 35.8 11.8 35.7 C 11.7 35.5 11.5 35.5 11.2 35.5 C 10.7 35.5 10.4 35.8 10.4 36.4 C 10.4 37.8 14.6 37.7 14.6 40.5 C 14.6 42 13.4 43.1 11.4 43.1 C 9.3 43.1 7.9 42.6 8 40.2 C 8 40.2 10.4 40.2 10.4 40.2 Z M 18 40.7 L 18 42.9 L 16 42.9 L 16 40.7 L 18 40.7 Z M 28 38.5 C 28 36.8 28 35.6 27 35.6 C 26 35.6 26 36.8 26 38.5 C 26 40.7 26.1 41.6 27 41.6 C 27.8 41.6 28 40.7 28 38.5 Z M 25.9 34.3 L 25.9 35.3 C 25.9 35.3 25.91 35.27 25.9 35.3 C 26.3 34.4 27 34.2 27.9 34.2 C 30.4 34.2 30.3 36.9 30.3 38.7 C 30.3 40.4 30.4 43.1 28 43.1 C 27.1 43.1 26.5 42.8 26 42.1 C 26.03 42.09 26 42.1 26 42.1 L 26 46.6 L 23.6 46.6 L 23.6 34.3 L 25.9 34.3 Z M 34.7 30.6 L 34.7 42.9 L 32.3 42.9 L 32.3 30.6 L 34.7 30.6 Z M 38.9 40.2 C 38.9 40.9 39 41.6 39.8 41.6 C 41.2 41.6 41 39.7 41 38.8 C 39.8 38.8 38.9 38.7 38.9 40.2 Z M 43.3 41.3 C 43.3 41.8 43.4 42.4 43.5 42.9 C 43.45 42.91 41.2 42.9 41.2 42.9 L 41.1 41.8 C 41.1 41.8 41.09 41.77 41.1 41.8 C 40.6 42.7 39.9 43.1 38.8 43.1 C 37.2 43.1 36.6 41.8 36.6 40.3 C 36.6 37.5 38.8 37.4 41 37.4 C 41 37.4 41 36.8 41 36.8 C 41 36 40.9 35.5 40 35.5 C 39.2 35.5 39.1 36.1 39.1 36.8 C 39.1 36.8 36.8 36.8 36.8 36.8 C 36.8 35.8 37.1 35.1 37.7 34.7 C 38.2 34.3 39 34.2 39.9 34.2 C 42.9 34.2 43.3 35.5 43.3 37 C 43.3 37 43.3 41.3 43.3 41.3 Z M 49.7 37.4 C 49.7 36.1 49.4 35.7 48.6 35.7 C 47.6 35.7 47.5 36.6 47.5 38.4 C 47.5 41 47.7 41.5 48.6 41.5 C 49.4 41.5 49.7 40.9 49.7 39.7 C 49.7 39.7 52.1 39.7 52.1 39.7 C 52.1 42.1 50.9 43.1 48.6 43.1 C 45.5 43.1 45.1 41.2 45.1 38.5 C 45.1 36.2 45.5 34.2 48.6 34.2 C 50.8 34.2 52.1 35.1 52.1 37.4 C 52.1 37.4 49.7 37.4 49.7 37.4 Z M 58.2 37.7 C 58.2 36.8 58.3 35.6 57.1 35.6 C 56 35.6 56 36.9 56 37.7 C 56 37.7 58.2 37.7 58.2 37.7 Z M 56 39 C 56 40 56.1 41.5 57.1 41.5 C 58 41.5 58.1 40.7 58.1 40 C 58.1 40 60.6 40 60.6 40 C 60.5 41 60.2 41.7 59.7 42.2 C 59.1 42.8 58.2 43.1 57.1 43.1 C 54 43.1 53.6 41.2 53.6 38.5 C 53.6 36.2 54 34.2 57.1 34.2 C 60.3 34.2 60.7 36.2 60.6 39 C 60.6 39 56 39 56 39 Z M 66.7 38.5 C 66.7 36.8 66.7 35.6 65.7 35.6 C 64.7 35.6 64.7 36.8 64.7 38.5 C 64.7 40.7 64.9 41.6 65.7 41.6 C 66.6 41.6 66.7 40.7 66.7 38.5 Z M 62.3 30.6 L 64.7 30.6 L 64.7 35.1 C 64.7 35.1 64.75 35.14 64.8 35.1 C 65.2 34.4 65.8 34.2 66.7 34.2 C 69.1 34.2 69.1 36.8 69.1 38.6 C 69.1 40.3 69.1 43.1 66.7 43.1 C 65.7 43.1 65.1 42.8 64.6 42 C 64.63 41.96 64.6 42 64.6 42 L 64.6 42.9 L 62.3 42.9 L 62.3 30.6 Z M 75.2 38.4 C 75.2 36.6 75.1 35.7 74.1 35.7 C 73.1 35.7 73 36.6 73 38.4 C 73 41 73.2 41.5 74.1 41.5 C 75 41.5 75.2 41 75.2 38.4 Z M 70.6 38.5 C 70.6 36.2 71 34.2 74.1 34.2 C 77.3 34.2 77.6 36.2 77.6 38.5 C 77.6 41.2 77.2 43.1 74.1 43.1 C 71 43.1 70.6 41.2 70.6 38.5 Z M 85.8 30.1 C 85.4 32.1 84.7 34.7 84.7 37.4 C 84.7 40.4 85.4 42.8 85.8 45 C 85.8 45 84.5 45 84.5 45 C 83.7 42.6 82.7 39.9 82.7 37.4 C 82.7 34.8 83.8 31.8 84.5 30.1 C 84.5 30.1 85.8 30.1 85.8 30.1 Z M 87.7 32.9 C 88.6 32.4 89.4 31.8 90 31 C 90 31.04 92.3 31 92.3 31 L 92.3 42.9 L 89.7 42.9 C 89.7 42.9 89.71 33.78 89.7 33.8 C 89.1 34.3 88.4 34.7 87.7 35.1 C 87.7 35.1 87.7 32.9 87.7 32.9 Z M 94.6 42.9 C 94.6 42.9 94.62 40.82 94.6 40.8 C 98.4 35.8 99.1 35.3 99.1 33.8 C 99.1 33.2 98.9 32.6 98.2 32.6 C 97.3 32.6 97.2 33.6 97.2 34.3 C 97.2 34.3 94.8 34.3 94.8 34.3 C 94.6 32.1 95.9 30.9 98.1 30.9 C 100.1 30.9 101.5 31.7 101.5 33.9 C 101.5 36.6 98.4 39.6 97.1 41.1 C 97.14 41.07 101.7 41.1 101.7 41.1 L 101.7 42.9 L 94.6 42.9 Z M 109.8 39.8 C 109.8 38.1 110.1 36.6 112.2 36.6 C 114.3 36.6 114.6 38.1 114.6 39.8 C 114.6 41.9 114.1 42.9 112.2 42.9 C 110.3 42.9 109.8 41.9 109.8 39.8 Z M 113 39.7 C 113 39.1 113.1 38 112.2 38 C 111.3 38 111.4 39.1 111.4 39.7 C 111.4 41.1 111.5 41.6 112.2 41.6 C 112.9 41.6 113 41.1 113 39.7 Z M 102.5 34.3 C 102.5 32.5 102.9 31 105 31 C 107 31 107.4 32.5 107.4 34.3 C 107.4 36.3 106.9 37.3 105 37.3 C 103.1 37.3 102.5 36.3 102.5 34.3 Z M 105.8 34.1 C 105.8 33.5 105.8 32.4 105 32.4 C 104.1 32.4 104.1 33.5 104.1 34.1 C 104.1 35.5 104.2 36 105 36 C 105.7 36 105.8 35.5 105.8 34.1 Z M 106.7 43.3 L 105.4 43.3 L 110.4 30.8 L 111.6 30.8 L 106.7 43.3 Z M 116.2 45 C 116.7 42.9 117.3 40.3 117.3 37.6 C 117.3 34.6 116.6 32.2 116.2 30.1 C 116.2 30.1 117.6 30.1 117.6 30.1 C 118.4 32.5 119.4 35.2 119.4 37.7 C 119.4 40.2 118.2 43.2 117.6 45 C 117.6 45 116.2 45 116.2 45 Z M 123.9 34.3 L 126.3 34.3 L 127.4 40.8 L 127.5 40.8 L 129.1 34.3 L 131.6 34.3 L 133.1 40.8 L 133.1 40.8 L 134.4 34.3 L 136.7 34.3 L 134.4 42.9 L 131.9 42.9 L 130.3 37 L 130.3 37 L 128.6 42.9 L 126 42.9 L 123.9 34.3 Z M 140.5 42.9 L 138.1 42.9 L 138.1 34.3 L 140.5 34.3 L 140.5 42.9 Z M 140.5 30.6 L 140.5 32.5 L 138.1 32.5 L 138.1 30.6 L 140.5 30.6 Z M 141.6 34.3 L 142.6 34.3 L 142.6 33 L 145 31.9 L 145 34.3 L 146.2 34.3 L 146.2 35.8 L 145 35.8 C 145 35.8 144.99 40.39 145 40.4 C 145 41 145 41.5 145.8 41.5 C 145.9 41.5 146.1 41.5 146.2 41.4 C 146.2 41.4 146.2 42.9 146.2 42.9 C 145.9 42.9 145.5 43 144.9 43 C 142.9 43 142.6 41.6 142.6 41.1 C 142.59 41.09 142.6 35.8 142.6 35.8 L 141.6 35.8 L 141.6 34.3 Z M 151.5 42.9 C 151.5 42.9 151.52 36.99 151.5 37 C 151.5 36.2 151.4 35.6 150.6 35.6 C 149.9 35.6 149.7 36.2 149.7 37 C 149.72 36.99 149.7 42.9 149.7 42.9 L 147.3 42.9 L 147.3 30.6 L 149.7 30.6 L 149.7 35.2 C 149.7 35.2 149.75 35.19 149.8 35.2 C 150 34.8 150.3 34.5 150.6 34.4 C 150.9 34.2 151.3 34.2 151.8 34.2 C 152.9 34.2 153.9 34.8 153.9 36 C 153.92 36.02 153.9 42.9 153.9 42.9 L 151.5 42.9 Z M 162 35.2 C 162 35.2 162.02 35.19 162 35.2 C 162.3 34.8 162.6 34.5 162.9 34.4 C 163.2 34.2 163.6 34.2 164 34.2 C 165.2 34.2 166.2 34.8 166.2 36 C 166.19 36.02 166.2 42.9 166.2 42.9 L 163.8 42.9 C 163.8 42.9 163.79 36.99 163.8 37 C 163.8 36.2 163.7 35.6 162.9 35.6 C 162.1 35.6 162 36.2 162 37 C 161.99 36.99 162 42.9 162 42.9 L 159.6 42.9 L 159.6 34.3 L 162 34.3 L 162 35.2 Z M 172.5 38.4 C 172.5 36.6 172.4 35.7 171.4 35.7 C 170.4 35.7 170.3 36.6 170.3 38.4 C 170.3 41 170.5 41.5 171.4 41.5 C 172.3 41.5 172.5 41 172.5 38.4 Z M 167.9 38.5 C 167.9 36.2 168.2 34.2 171.4 34.2 C 174.6 34.2 174.9 36.2 174.9 38.5 C 174.9 41.2 174.5 43.1 171.4 43.1 C 168.3 43.1 167.9 41.2 167.9 38.5 Z M 182.6 34.3 L 182.6 35.4 C 182.6 35.4 182.68 35.43 182.7 35.4 C 183.1 34.4 183.9 34.2 184.9 34.2 C 184.9 34.2 184.9 36.3 184.9 36.3 C 182.8 36.2 182.8 37.4 182.8 38.2 C 182.76 38.23 182.8 42.9 182.8 42.9 L 180.4 42.9 L 180.4 34.3 L 182.6 34.3 Z M 190.4 37.7 C 190.4 36.8 190.5 35.6 189.3 35.6 C 188.2 35.6 188.2 36.9 188.2 37.7 C 188.2 37.7 190.4 37.7 190.4 37.7 Z M 188.2 39 C 188.2 40 188.3 41.5 189.3 41.5 C 190.2 41.5 190.3 40.7 190.3 40 C 190.3 40 192.8 40 192.8 40 C 192.7 41 192.4 41.7 191.9 42.2 C 191.3 42.8 190.4 43.1 189.3 43.1 C 186.2 43.1 185.8 41.2 185.8 38.5 C 185.8 36.2 186.2 34.2 189.3 34.2 C 192.6 34.2 192.9 36.2 192.8 39 C 192.8 39 188.2 39 188.2 39 Z M 198.9 38.5 C 198.9 36.8 198.9 35.6 197.9 35.6 C 196.9 35.6 196.9 36.8 196.9 38.5 C 196.9 40.7 197.1 41.6 197.9 41.6 C 198.8 41.6 198.9 40.7 198.9 38.5 Z M 196.8 34.3 L 196.8 35.3 C 196.8 35.3 196.84 35.27 196.8 35.3 C 197.3 34.4 197.9 34.2 198.9 34.2 C 201.3 34.2 201.3 36.9 201.3 38.7 C 201.3 40.4 201.3 43.1 198.9 43.1 C 198 43.1 197.5 42.8 197 42.1 C 196.96 42.09 196.9 42.1 196.9 42.1 L 196.9 46.6 L 194.5 46.6 L 194.5 34.3 L 196.8 34.3 Z M 207.4 38.4 C 207.4 36.6 207.3 35.7 206.3 35.7 C 205.3 35.7 205.2 36.6 205.2 38.4 C 205.2 41 205.4 41.5 206.3 41.5 C 207.2 41.5 207.4 41 207.4 38.4 Z M 202.8 38.5 C 202.8 36.2 203.2 34.2 206.3 34.2 C 209.5 34.2 209.8 36.2 209.8 38.5 C 209.8 41.2 209.4 43.1 206.3 43.1 C 203.2 43.1 202.8 41.2 202.8 38.5 Z M 213.8 34.3 L 213.8 35.4 C 213.8 35.4 213.84 35.43 213.8 35.4 C 214.3 34.4 215.1 34.2 216.1 34.2 C 216.1 34.2 216.1 36.3 216.1 36.3 C 214 36.2 213.9 37.4 213.9 38.2 C 213.93 38.23 213.9 42.9 213.9 42.9 L 211.5 42.9 L 211.5 34.3 L 213.8 34.3 Z M 216.2 34.3 L 217.2 34.3 L 217.2 33 L 219.6 31.9 L 219.6 34.3 L 220.8 34.3 L 220.8 35.8 L 219.6 35.8 C 219.6 35.8 219.59 40.39 219.6 40.4 C 219.6 41 219.6 41.5 220.4 41.5 C 220.5 41.5 220.7 41.5 220.8 41.4 C 220.8 41.4 220.8 42.9 220.8 42.9 C 220.5 42.9 220.1 43 219.5 43 C 217.5 43 217.2 41.6 217.2 41.1 C 217.19 41.09 217.2 35.8 217.2 35.8 L 216.2 35.8 L 216.2 34.3 Z M 223.8 40.2 C 223.8 40.5 223.8 40.9 223.9 41.2 C 224.1 41.5 224.3 41.6 224.8 41.6 C 225.3 41.6 225.7 41.3 225.7 40.7 C 225.7 38.9 221.5 39.3 221.5 36.6 C 221.5 34.7 223.3 34.2 224.8 34.2 C 226.5 34.2 228 34.9 227.8 36.8 C 227.8 36.8 225.5 36.8 225.5 36.8 C 225.5 36.2 225.4 35.8 225.2 35.7 C 225.1 35.5 224.9 35.5 224.6 35.5 C 224.1 35.5 223.8 35.8 223.8 36.4 C 223.8 37.8 228 37.7 228 40.5 C 228 42 226.8 43.1 224.8 43.1 C 222.7 43.1 221.3 42.6 221.5 40.2 C 221.5 40.2 223.8 40.2 223.8 40.2 Z M 237.6 38.4 C 237.6 36.6 237.6 35.7 236.5 35.7 C 235.5 35.7 235.4 36.6 235.4 38.4 C 235.4 41 235.7 41.5 236.5 41.5 C 237.4 41.5 237.6 41 237.6 38.4 Z M 233 38.5 C 233 36.2 233.4 34.2 236.5 34.2 C 239.7 34.2 240 36.2 240 38.5 C 240 41.2 239.6 43.1 236.5 43.1 C 233.4 43.1 233 41.2 233 38.5 Z M 245.4 32.1 C 244.5 32 244.3 32.4 244.3 33.3 C 244.25 33.29 244.3 34.3 244.3 34.3 L 245.4 34.3 L 245.4 35.8 L 244.3 35.8 L 244.3 42.9 L 241.9 42.9 L 241.9 35.8 L 240.8 35.8 L 240.8 34.3 C 240.8 34.3 241.87 34.32 241.9 34.3 C 241.9 31.9 241.7 30.5 244.6 30.5 C 244.9 30.5 245.1 30.6 245.4 30.6 C 245.4 30.6 245.4 32.1 245.4 32.1 Z M 252.8 42.9 L 250.4 42.9 L 250.4 34.3 L 252.8 34.3 L 252.8 42.9 Z M 252.8 30.6 L 252.8 32.5 L 250.4 32.5 L 250.4 30.6 L 252.8 30.6 Z M 257.4 35.2 C 257.4 35.2 257.39 35.19 257.4 35.2 C 257.6 34.8 257.9 34.5 258.2 34.4 C 258.6 34.2 259 34.2 259.4 34.2 C 260.6 34.2 261.6 34.8 261.6 36 C 261.56 36.02 261.6 42.9 261.6 42.9 L 259.2 42.9 C 259.2 42.9 259.16 36.99 259.2 37 C 259.2 36.2 259 35.6 258.3 35.6 C 257.5 35.6 257.4 36.2 257.4 37 C 257.36 36.99 257.4 42.9 257.4 42.9 L 255 42.9 L 255 34.3 L 257.4 34.3 L 257.4 35.2 Z M 266.1 34.3 C 266.1 34.3 266.06 43.69 266.1 43.7 C 266.1 45.5 265.3 46.2 263.8 46.2 C 263.6 46.2 263.3 46.1 263 46.1 C 263 46.1 263 44.6 263 44.6 C 263.3 44.6 263.7 44.5 263.7 43.9 C 263.67 43.93 263.7 34.3 263.7 34.3 L 266.1 34.3 Z M 266.1 30.6 L 266.1 32.5 L 263.7 32.5 L 263.7 30.6 L 266.1 30.6 Z M 272.6 37.7 C 272.6 36.8 272.6 35.6 271.5 35.6 C 270.4 35.6 270.4 36.9 270.4 37.7 C 270.4 37.7 272.6 37.7 272.6 37.7 Z M 270.4 39 C 270.4 40 270.4 41.5 271.5 41.5 C 272.3 41.5 272.5 40.7 272.5 40 C 272.5 40 274.9 40 274.9 40 C 274.9 41 274.6 41.7 274 42.2 C 273.5 42.8 272.6 43.1 271.5 43.1 C 268.4 43.1 268 41.2 268 38.5 C 268 36.2 268.3 34.2 271.5 34.2 C 274.7 34.2 275.1 36.2 275 39 C 275 39 270.4 39 270.4 39 Z M 281.1 37.4 C 281.1 36.1 280.7 35.7 280 35.7 C 279 35.7 278.9 36.6 278.9 38.4 C 278.9 41 279.1 41.5 280 41.5 C 280.7 41.5 281.1 40.9 281.1 39.7 C 281.1 39.7 283.5 39.7 283.5 39.7 C 283.5 42.1 282.2 43.1 280 43.1 C 276.9 43.1 276.5 41.2 276.5 38.5 C 276.5 36.2 276.8 34.2 280 34.2 C 282.2 34.2 283.5 35.1 283.5 37.4 C 283.5 37.4 281.1 37.4 281.1 37.4 Z M 284.2 34.3 L 285.2 34.3 L 285.2 33 L 287.6 31.9 L 287.6 34.3 L 288.8 34.3 L 288.8 35.8 L 287.6 35.8 C 287.6 35.8 287.59 40.39 287.6 40.4 C 287.6 41 287.6 41.5 288.4 41.5 C 288.5 41.5 288.7 41.5 288.8 41.4 C 288.8 41.4 288.8 42.9 288.8 42.9 C 288.5 42.9 288.1 43 287.5 43 C 285.5 43 285.2 41.6 285.2 41.1 C 285.19 41.09 285.2 35.8 285.2 35.8 L 284.2 35.8 L 284.2 34.3 Z M 292.5 42.9 L 290.1 42.9 L 290.1 34.3 L 292.5 34.3 L 292.5 42.9 Z M 292.5 30.6 L 292.5 32.5 L 290.1 32.5 L 290.1 30.6 L 292.5 30.6 Z M 299 38.4 C 299 36.6 299 35.7 297.9 35.7 C 296.9 35.7 296.8 36.6 296.8 38.4 C 296.8 41 297.1 41.5 297.9 41.5 C 298.8 41.5 299 41 299 38.4 Z M 294.4 38.5 C 294.4 36.2 294.8 34.2 297.9 34.2 C 301.1 34.2 301.4 36.2 301.4 38.5 C 301.4 41.2 301 43.1 297.9 43.1 C 294.8 43.1 294.4 41.2 294.4 38.5 Z M 305.5 35.2 C 305.5 35.2 305.57 35.19 305.6 35.2 C 305.8 34.8 306.1 34.5 306.4 34.4 C 306.8 34.2 307.2 34.2 307.6 34.2 C 308.7 34.2 309.7 34.8 309.7 36 C 309.74 36.02 309.7 42.9 309.7 42.9 L 307.3 42.9 C 307.3 42.9 307.34 36.99 307.3 37 C 307.3 36.2 307.2 35.6 306.4 35.6 C 305.7 35.6 305.5 36.2 305.5 37 C 305.54 36.99 305.5 42.9 305.5 42.9 L 303.1 42.9 L 303.1 34.3 L 305.5 34.3 L 305.5 35.2 Z M 315.6 37.5 L 315.6 39.2 L 311.4 39.2 L 311.4 37.5 L 315.6 37.5 Z M 319.2 40.2 C 319.2 40.5 319.2 40.9 319.3 41.2 C 319.4 41.5 319.7 41.6 320.2 41.6 C 320.7 41.6 321.1 41.3 321.1 40.7 C 321.1 38.9 316.8 39.3 316.8 36.6 C 316.8 34.7 318.7 34.2 320.2 34.2 C 321.9 34.2 323.3 34.9 323.2 36.8 C 323.2 36.8 320.9 36.8 320.9 36.8 C 320.9 36.2 320.8 35.8 320.6 35.7 C 320.5 35.5 320.3 35.5 320 35.5 C 319.5 35.5 319.2 35.8 319.2 36.4 C 319.2 37.8 323.4 37.7 323.4 40.5 C 323.4 42 322.2 43.1 320.2 43.1 C 318.1 43.1 316.7 42.6 316.8 40.2 C 316.8 40.2 319.2 40.2 319.2 40.2 Z M 327.5 42.9 L 325.1 42.9 L 325.1 34.3 L 327.5 34.3 L 327.5 42.9 Z M 327.5 30.6 L 327.5 32.5 L 325.1 32.5 L 325.1 30.6 L 327.5 30.6 Z M 328.6 34.3 L 329.6 34.3 L 329.6 33 L 332 31.9 L 332 34.3 L 333.2 34.3 L 333.2 35.8 L 332 35.8 C 332 35.8 331.97 40.39 332 40.4 C 332 41 332 41.5 332.7 41.5 C 332.9 41.5 333 41.5 333.2 41.4 C 333.2 41.4 333.2 42.9 333.2 42.9 C 332.8 42.9 332.5 43 331.9 43 C 329.8 43 329.6 41.6 329.6 41.1 C 329.57 41.09 329.6 35.8 329.6 35.8 L 328.6 35.8 L 328.6 34.3 Z M 338.7 37.7 C 338.7 36.8 338.7 35.6 337.6 35.6 C 336.5 35.6 336.5 36.9 336.5 37.7 C 336.5 37.7 338.7 37.7 338.7 37.7 Z M 336.5 39 C 336.5 40 336.5 41.5 337.6 41.5 C 338.4 41.5 338.6 40.7 338.6 40 C 338.6 40 341 40 341 40 C 341 41 340.7 41.7 340.1 42.2 C 339.6 42.8 338.7 43.1 337.6 43.1 C 334.5 43.1 334.1 41.2 334.1 38.5 C 334.1 36.2 334.4 34.2 337.6 34.2 C 340.8 34.2 341.2 36.2 341.1 39 C 341.1 39 336.5 39 336.5 39 Z M 351 38.5 C 351 36.8 351 35.6 349.9 35.6 C 349 35.6 349 36.8 349 38.5 C 349 40.7 349.1 41.6 349.9 41.6 C 350.8 41.6 351 40.7 351 38.5 Z M 348.9 34.3 L 348.9 35.3 C 348.9 35.3 348.89 35.27 348.9 35.3 C 349.3 34.4 350 34.2 350.9 34.2 C 353.4 34.2 353.3 36.9 353.3 38.7 C 353.3 40.4 353.4 43.1 351 43.1 C 350.1 43.1 349.5 42.8 349 42.1 C 349.01 42.09 349 42.1 349 42.1 L 349 46.6 L 346.6 46.6 L 346.6 34.3 L 348.9 34.3 Z M 357.2 40.2 C 357.2 40.9 357.3 41.6 358 41.6 C 359.5 41.6 359.2 39.7 359.2 38.8 C 358 38.8 357.2 38.7 357.2 40.2 Z M 361.6 41.3 C 361.6 41.8 361.7 42.4 361.7 42.9 C 361.7 42.91 359.5 42.9 359.5 42.9 L 359.4 41.8 C 359.4 41.8 359.34 41.77 359.3 41.8 C 358.8 42.7 358.1 43.1 357.1 43.1 C 355.4 43.1 354.8 41.8 354.8 40.3 C 354.8 37.5 357 37.4 359.2 37.4 C 359.2 37.4 359.2 36.8 359.2 36.8 C 359.2 36 359.1 35.5 358.3 35.5 C 357.4 35.5 357.4 36.1 357.4 36.8 C 357.4 36.8 355 36.8 355 36.8 C 355 35.8 355.3 35.1 355.9 34.7 C 356.5 34.3 357.2 34.2 358.2 34.2 C 361.2 34.2 361.6 35.5 361.6 37 C 361.6 37 361.6 41.3 361.6 41.3 Z M 366.2 42.9 L 363.8 42.9 L 363.8 34.3 L 366.2 34.3 L 366.2 42.9 Z M 366.2 30.6 L 366.2 32.5 L 363.8 32.5 L 363.8 30.6 L 366.2 30.6 Z M 370.7 35.2 C 370.7 35.2 370.73 35.19 370.7 35.2 C 371 34.8 371.3 34.5 371.6 34.4 C 371.9 34.2 372.3 34.2 372.8 34.2 C 373.9 34.2 374.9 34.8 374.9 36 C 374.9 36.02 374.9 42.9 374.9 42.9 L 372.5 42.9 C 372.5 42.9 372.5 36.99 372.5 37 C 372.5 36.2 372.4 35.6 371.6 35.6 C 370.8 35.6 370.7 36.2 370.7 37 C 370.7 36.99 370.7 42.9 370.7 42.9 L 368.3 42.9 L 368.3 34.3 L 370.7 34.3 L 370.7 35.2 Z " stroke="none" fill="#003c71"/>  </g>  <g id="Polygon201210">    <path d="M 0.1 22.5 L 3.5 10.2 L 6.9 10.2 L 10.3 22.5 L 7.5 22.5 L 6.9 19.8 L 3.4 19.8 L 2.7 22.5 L 0.1 22.5 Z M 5.1 12.6 L 5 12.6 L 3.9 17.9 L 6.3 17.9 L 5.1 12.6 Z M 17.7 10.2 L 17.7 22.5 L 15.3 22.5 L 15.3 10.2 L 17.7 10.2 Z M 24.2 18 C 24.2 16.2 24.2 15.3 23.1 15.3 C 22.1 15.3 22 16.2 22 18 C 22 20.6 22.3 21.1 23.1 21.1 C 24 21.1 24.2 20.6 24.2 18 Z M 19.6 18.1 C 19.6 15.8 20 13.8 23.1 13.8 C 26.3 13.8 26.6 15.8 26.6 18.1 C 26.6 20.8 26.2 22.7 23.1 22.7 C 20 22.7 19.6 20.8 19.6 18.1 Z M 27.6 13.9 L 30 13.9 L 31.1 20.4 L 31.2 20.4 L 32.8 13.9 L 35.3 13.9 L 36.8 20.4 L 36.8 20.4 L 38.1 13.9 L 40.4 13.9 L 38.1 22.5 L 35.6 22.5 L 34 16.6 L 34 16.6 L 32.3 22.5 L 29.7 22.5 L 27.6 13.9 Z M 47.7 14.8 C 47.7 14.8 47.77 14.79 47.8 14.8 C 48 14.4 48.3 14.1 48.6 14 C 49 13.8 49.4 13.8 49.8 13.8 C 50.9 13.8 51.9 14.4 51.9 15.6 C 51.93 15.62 51.9 22.5 51.9 22.5 L 49.5 22.5 C 49.5 22.5 49.54 16.59 49.5 16.6 C 49.5 15.8 49.4 15.2 48.6 15.2 C 47.9 15.2 47.7 15.8 47.7 16.6 C 47.74 16.59 47.7 22.5 47.7 22.5 L 45.3 22.5 L 45.3 13.9 L 47.7 13.9 L 47.7 14.8 Z M 58 21.6 C 58 21.6 58 21.64 58 21.6 C 57.8 22 57.5 22.3 57.2 22.4 C 56.8 22.6 56.4 22.7 56 22.7 C 54.8 22.7 53.8 22 53.8 20.8 C 53.84 20.81 53.8 13.9 53.8 13.9 L 56.2 13.9 C 56.2 13.9 56.24 19.87 56.2 19.9 C 56.2 20.6 56.4 21.2 57.1 21.2 C 57.9 21.2 58 20.6 58 19.9 C 58.04 19.87 58 13.9 58 13.9 L 60.4 13.9 C 60.4 13.9 60.43 20.81 60.4 20.8 C 60.4 21.4 60.5 21.9 60.5 22.5 C 60.52 22.51 58 22.5 58 22.5 L 58 21.6 Z M 64.5 14.8 C 64.5 14.8 64.58 14.79 64.6 14.8 C 65.1 14 65.7 13.8 66.6 13.8 C 67.5 13.8 68.1 14.2 68.5 14.8 C 69.1 14.1 69.8 13.8 70.8 13.8 C 71.9 13.8 72.9 14.4 72.9 15.6 C 72.9 15.62 72.9 22.5 72.9 22.5 L 70.5 22.5 C 70.5 22.5 70.5 16.59 70.5 16.6 C 70.5 15.8 70.4 15.2 69.6 15.2 C 68.8 15.2 68.7 15.8 68.7 16.6 C 68.7 16.59 68.7 22.5 68.7 22.5 L 66.4 22.5 C 66.4 22.5 66.35 16.59 66.4 16.6 C 66.4 15.8 66.2 15.2 65.4 15.2 C 64.7 15.2 64.5 15.8 64.5 16.6 C 64.55 16.59 64.5 22.5 64.5 22.5 L 62.2 22.5 L 62.2 13.9 L 64.5 13.9 L 64.5 14.8 Z M 79 18.1 C 79 16.4 79 15.2 78 15.2 C 77 15.2 77 16.4 77 18.1 C 77 20.3 77.2 21.2 78 21.2 C 78.8 21.2 79 20.3 79 18.1 Z M 74.6 10.2 L 77 10.2 L 77 14.7 C 77 14.7 77.04 14.74 77 14.7 C 77.5 14 78.1 13.8 79 13.8 C 81.4 13.8 81.3 16.4 81.3 18.2 C 81.3 19.9 81.4 22.7 78.9 22.7 C 78 22.7 77.4 22.4 76.9 21.6 C 76.92 21.56 76.9 21.6 76.9 21.6 L 76.9 22.5 L 74.6 22.5 L 74.6 10.2 Z M 87.5 17.3 C 87.5 16.4 87.5 15.2 86.4 15.2 C 85.3 15.2 85.3 16.5 85.3 17.3 C 85.3 17.3 87.5 17.3 87.5 17.3 Z M 85.3 18.6 C 85.3 19.6 85.4 21.1 86.4 21.1 C 87.3 21.1 87.4 20.3 87.4 19.6 C 87.4 19.6 89.9 19.6 89.9 19.6 C 89.8 20.6 89.5 21.3 88.9 21.8 C 88.4 22.4 87.5 22.7 86.4 22.7 C 83.3 22.7 82.9 20.8 82.9 18.1 C 82.9 15.8 83.2 13.8 86.4 13.8 C 89.6 13.8 90 15.8 89.9 18.6 C 89.9 18.6 85.3 18.6 85.3 18.6 Z M 93.9 13.9 L 93.9 15 C 93.9 15 93.92 15.03 93.9 15 C 94.4 14 95.2 13.8 96.2 13.8 C 96.2 13.8 96.2 15.9 96.2 15.9 C 94 15.8 94 17 94 17.8 C 94.01 17.83 94 22.5 94 22.5 L 91.6 22.5 L 91.6 13.9 L 93.9 13.9 Z M 105.4 18 C 105.4 16.2 105.4 15.3 104.3 15.3 C 103.3 15.3 103.2 16.2 103.2 18 C 103.2 20.6 103.5 21.1 104.3 21.1 C 105.2 21.1 105.4 20.6 105.4 18 Z M 100.8 18.1 C 100.8 15.8 101.2 13.8 104.3 13.8 C 107.5 13.8 107.8 15.8 107.8 18.1 C 107.8 20.8 107.4 22.7 104.3 22.7 C 101.3 22.7 100.8 20.8 100.8 18.1 Z M 113.2 11.7 C 112.3 11.6 112.1 12 112.1 12.9 C 112.06 12.89 112.1 13.9 112.1 13.9 L 113.2 13.9 L 113.2 15.4 L 112.1 15.4 L 112.1 22.5 L 109.7 22.5 L 109.7 15.4 L 108.6 15.4 L 108.6 13.9 C 108.6 13.9 109.68 13.92 109.7 13.9 C 109.7 11.5 109.5 10.1 112.4 10.1 C 112.7 10.1 112.9 10.2 113.2 10.2 C 113.2 10.2 113.2 11.7 113.2 11.7 Z M 120.6 22.5 L 118.3 22.5 L 118.3 13.9 L 120.6 13.9 L 120.6 22.5 Z M 120.6 10.2 L 120.6 12.1 L 118.3 12.1 L 118.3 10.2 L 120.6 10.2 Z M 125.2 14.8 C 125.2 14.8 125.2 14.79 125.2 14.8 C 125.4 14.4 125.7 14.1 126.1 14 C 126.4 13.8 126.8 13.8 127.2 13.8 C 128.4 13.8 129.4 14.4 129.4 15.6 C 129.37 15.62 129.4 22.5 129.4 22.5 L 127 22.5 C 127 22.5 126.97 16.59 127 16.6 C 127 15.8 126.8 15.2 126.1 15.2 C 125.3 15.2 125.2 15.8 125.2 16.6 C 125.17 16.59 125.2 22.5 125.2 22.5 L 122.8 22.5 L 122.8 13.9 L 125.2 13.9 L 125.2 14.8 Z M 133.9 13.9 C 133.9 13.9 133.87 23.29 133.9 23.3 C 133.9 25.1 133.1 25.8 131.6 25.8 C 131.4 25.8 131.1 25.7 130.8 25.7 C 130.8 25.7 130.8 24.2 130.8 24.2 C 131.1 24.2 131.5 24.1 131.5 23.5 C 131.48 23.53 131.5 13.9 131.5 13.9 L 133.9 13.9 Z M 133.9 10.2 L 133.9 12.1 L 131.5 12.1 L 131.5 10.2 L 133.9 10.2 Z M 140.4 17.3 C 140.4 16.4 140.4 15.2 139.3 15.2 C 138.2 15.2 138.2 16.5 138.2 17.3 C 138.2 17.3 140.4 17.3 140.4 17.3 Z M 138.2 18.6 C 138.2 19.6 138.2 21.1 139.3 21.1 C 140.1 21.1 140.3 20.3 140.3 19.6 C 140.3 19.6 142.7 19.6 142.7 19.6 C 142.7 20.6 142.4 21.3 141.8 21.8 C 141.3 22.4 140.4 22.7 139.3 22.7 C 136.2 22.7 135.8 20.8 135.8 18.1 C 135.8 15.8 136.1 13.8 139.3 13.8 C 142.5 13.8 142.9 15.8 142.8 18.6 C 142.8 18.6 138.2 18.6 138.2 18.6 Z M 148.9 17 C 148.9 15.7 148.5 15.3 147.8 15.3 C 146.8 15.3 146.7 16.2 146.7 18 C 146.7 20.6 146.9 21.1 147.8 21.1 C 148.5 21.1 148.9 20.5 148.9 19.3 C 148.9 19.3 151.3 19.3 151.3 19.3 C 151.3 21.7 150 22.7 147.8 22.7 C 144.7 22.7 144.3 20.8 144.3 18.1 C 144.3 15.8 144.6 13.8 147.8 13.8 C 150 13.8 151.3 14.7 151.3 17 C 151.3 17 148.9 17 148.9 17 Z M 152 13.9 L 153 13.9 L 153 12.6 L 155.4 11.5 L 155.4 13.9 L 156.6 13.9 L 156.6 15.4 L 155.4 15.4 C 155.4 15.4 155.4 19.99 155.4 20 C 155.4 20.6 155.4 21.1 156.2 21.1 C 156.3 21.1 156.5 21.1 156.6 21 C 156.6 21 156.6 22.5 156.6 22.5 C 156.3 22.5 155.9 22.6 155.3 22.6 C 153.3 22.6 153 21.2 153 20.7 C 153 20.69 153 15.4 153 15.4 L 152 15.4 L 152 13.9 Z M 160.3 22.5 L 157.9 22.5 L 157.9 13.9 L 160.3 13.9 L 160.3 22.5 Z M 160.3 10.2 L 160.3 12.1 L 157.9 12.1 L 157.9 10.2 L 160.3 10.2 Z M 166.9 18 C 166.9 16.2 166.8 15.3 165.7 15.3 C 164.7 15.3 164.6 16.2 164.6 18 C 164.6 20.6 164.9 21.1 165.7 21.1 C 166.6 21.1 166.9 20.6 166.9 18 Z M 162.2 18.1 C 162.2 15.8 162.6 13.8 165.7 13.8 C 168.9 13.8 169.3 15.8 169.3 18.1 C 169.3 20.8 168.8 22.7 165.7 22.7 C 162.7 22.7 162.2 20.8 162.2 18.1 Z M 173.3 14.8 C 173.3 14.8 173.38 14.79 173.4 14.8 C 173.6 14.4 173.9 14.1 174.2 14 C 174.6 13.8 175 13.8 175.4 13.8 C 176.5 13.8 177.5 14.4 177.5 15.6 C 177.55 15.62 177.5 22.5 177.5 22.5 L 175.1 22.5 C 175.1 22.5 175.15 16.59 175.1 16.6 C 175.1 15.8 175 15.2 174.2 15.2 C 173.5 15.2 173.3 15.8 173.3 16.6 C 173.35 16.59 173.3 22.5 173.3 22.5 L 171 22.5 L 171 13.9 L 173.3 13.9 L 173.3 14.8 Z M 183.4 17.1 L 183.4 18.8 L 179.2 18.8 L 179.2 17.1 L 183.4 17.1 Z M 187 19.8 C 187 20.1 187 20.5 187.1 20.8 C 187.3 21.1 187.5 21.2 188 21.2 C 188.5 21.2 188.9 20.9 188.9 20.3 C 188.9 18.5 184.7 18.9 184.7 16.2 C 184.7 14.3 186.5 13.8 188 13.8 C 189.7 13.8 191.1 14.5 191 16.4 C 191 16.4 188.7 16.4 188.7 16.4 C 188.7 15.8 188.6 15.4 188.4 15.3 C 188.3 15.1 188.1 15.1 187.8 15.1 C 187.3 15.1 187 15.4 187 16 C 187 17.4 191.2 17.3 191.2 20.1 C 191.2 21.6 190 22.7 188 22.7 C 185.9 22.7 184.5 22.2 184.7 19.8 C 184.7 19.8 187 19.8 187 19.8 Z M 195.3 22.5 L 192.9 22.5 L 192.9 13.9 L 195.3 13.9 L 195.3 22.5 Z M 195.3 10.2 L 195.3 12.1 L 192.9 12.1 L 192.9 10.2 L 195.3 10.2 Z M 196.4 13.9 L 197.4 13.9 L 197.4 12.6 L 199.8 11.5 L 199.8 13.9 L 201 13.9 L 201 15.4 L 199.8 15.4 C 199.8 15.4 199.78 19.99 199.8 20 C 199.8 20.6 199.8 21.1 200.5 21.1 C 200.7 21.1 200.9 21.1 201 21 C 201 21 201 22.5 201 22.5 C 200.6 22.5 200.3 22.6 199.7 22.6 C 197.7 22.6 197.4 21.2 197.4 20.7 C 197.39 20.69 197.4 15.4 197.4 15.4 L 196.4 15.4 L 196.4 13.9 Z M 206.5 17.3 C 206.5 16.4 206.5 15.2 205.4 15.2 C 204.3 15.2 204.3 16.5 204.3 17.3 C 204.3 17.3 206.5 17.3 206.5 17.3 Z M 204.3 18.6 C 204.3 19.6 204.4 21.1 205.4 21.1 C 206.3 21.1 206.4 20.3 206.4 19.6 C 206.4 19.6 208.9 19.6 208.9 19.6 C 208.8 20.6 208.5 21.3 207.9 21.8 C 207.4 22.4 206.5 22.7 205.4 22.7 C 202.3 22.7 201.9 20.8 201.9 18.1 C 201.9 15.8 202.2 13.8 205.4 13.8 C 208.6 13.8 209 15.8 208.9 18.6 C 208.9 18.6 204.3 18.6 204.3 18.6 Z M 216.7 13.9 L 216.7 15 C 216.7 15 216.7 15.03 216.7 15 C 217.1 14 218 13.8 218.9 13.8 C 218.9 13.8 218.9 15.9 218.9 15.9 C 216.8 15.8 216.8 17 216.8 17.8 C 216.78 17.83 216.8 22.5 216.8 22.5 L 214.4 22.5 L 214.4 13.9 L 216.7 13.9 Z M 224.4 17.3 C 224.4 16.4 224.5 15.2 223.3 15.2 C 222.2 15.2 222.3 16.5 222.3 17.3 C 222.3 17.3 224.4 17.3 224.4 17.3 Z M 222.3 18.6 C 222.3 19.6 222.3 21.1 223.3 21.1 C 224.2 21.1 224.4 20.3 224.4 19.6 C 224.4 19.6 226.8 19.6 226.8 19.6 C 226.8 20.6 226.5 21.3 225.9 21.8 C 225.3 22.4 224.5 22.7 223.3 22.7 C 220.2 22.7 219.8 20.8 219.8 18.1 C 219.8 15.8 220.2 13.8 223.3 13.8 C 226.6 13.8 226.9 15.8 226.8 18.6 C 226.8 18.6 222.3 18.6 222.3 18.6 Z M 230.6 19.8 C 230.6 20.5 230.7 21.2 231.5 21.2 C 232.9 21.2 232.7 19.3 232.7 18.4 C 231.5 18.4 230.6 18.3 230.6 19.8 Z M 235.1 20.9 C 235.1 21.4 235.1 22 235.2 22.5 C 235.18 22.51 232.9 22.5 232.9 22.5 L 232.8 21.4 C 232.8 21.4 232.81 21.37 232.8 21.4 C 232.3 22.3 231.6 22.7 230.6 22.7 C 228.9 22.7 228.3 21.4 228.3 19.9 C 228.3 17.1 230.5 17 232.7 17 C 232.7 17 232.7 16.4 232.7 16.4 C 232.7 15.6 232.6 15.1 231.7 15.1 C 230.9 15.1 230.8 15.7 230.8 16.4 C 230.8 16.4 228.5 16.4 228.5 16.4 C 228.5 15.4 228.8 14.7 229.4 14.3 C 229.9 13.9 230.7 13.8 231.6 13.8 C 234.7 13.8 235.1 15.1 235.1 16.6 C 235.1 16.6 235.1 20.9 235.1 20.9 Z M 241.4 17 C 241.4 15.7 241.1 15.3 240.3 15.3 C 239.3 15.3 239.2 16.2 239.2 18 C 239.2 20.6 239.5 21.1 240.3 21.1 C 241.1 21.1 241.4 20.5 241.4 19.3 C 241.4 19.3 243.8 19.3 243.8 19.3 C 243.8 21.7 242.6 22.7 240.3 22.7 C 237.2 22.7 236.8 20.8 236.8 18.1 C 236.8 15.8 237.2 13.8 240.3 13.8 C 242.6 13.8 243.8 14.7 243.8 17 C 243.8 17 241.4 17 241.4 17 Z M 244.6 13.9 L 245.5 13.9 L 245.5 12.6 L 247.9 11.5 L 247.9 13.9 L 249.2 13.9 L 249.2 15.4 L 247.9 15.4 C 247.9 15.4 247.94 19.99 247.9 20 C 247.9 20.6 247.9 21.1 248.7 21.1 C 248.9 21.1 249 21.1 249.1 21 C 249.1 21 249.1 22.5 249.1 22.5 C 248.8 22.5 248.5 22.6 247.9 22.6 C 245.8 22.6 245.5 21.2 245.5 20.7 C 245.55 20.69 245.5 15.4 245.5 15.4 L 244.6 15.4 L 244.6 13.9 Z M 252.9 22.5 L 250.5 22.5 L 250.5 13.9 L 252.9 13.9 L 252.9 22.5 Z M 252.9 10.2 L 252.9 12.1 L 250.5 12.1 L 250.5 10.2 L 252.9 10.2 Z M 259.4 18 C 259.4 16.2 259.3 15.3 258.3 15.3 C 257.3 15.3 257.2 16.2 257.2 18 C 257.2 20.6 257.4 21.1 258.3 21.1 C 259.2 21.1 259.4 20.6 259.4 18 Z M 254.8 18.1 C 254.8 15.8 255.1 13.8 258.3 13.8 C 261.5 13.8 261.8 15.8 261.8 18.1 C 261.8 20.8 261.4 22.7 258.3 22.7 C 255.2 22.7 254.8 20.8 254.8 18.1 Z M 265.9 14.8 C 265.9 14.8 265.93 14.79 265.9 14.8 C 266.2 14.4 266.5 14.1 266.8 14 C 267.1 13.8 267.5 13.8 268 13.8 C 269.1 13.8 270.1 14.4 270.1 15.6 C 270.09 15.62 270.1 22.5 270.1 22.5 L 267.7 22.5 C 267.7 22.5 267.7 16.59 267.7 16.6 C 267.7 15.8 267.6 15.2 266.8 15.2 C 266 15.2 265.9 15.8 265.9 16.6 C 265.89 16.59 265.9 22.5 265.9 22.5 L 263.5 22.5 L 263.5 13.9 L 265.9 13.9 L 265.9 14.8 Z M 273.9 19.8 C 273.9 20.1 273.9 20.5 274 20.8 C 274.1 21.1 274.4 21.2 274.9 21.2 C 275.3 21.2 275.8 20.9 275.8 20.3 C 275.8 18.5 271.5 18.9 271.5 16.2 C 271.5 14.3 273.4 13.8 274.9 13.8 C 276.6 13.8 278 14.5 277.9 16.4 C 277.9 16.4 275.6 16.4 275.6 16.4 C 275.6 15.8 275.5 15.4 275.3 15.3 C 275.2 15.1 275 15.1 274.7 15.1 C 274.2 15.1 273.9 15.4 273.9 16 C 273.9 17.4 278.1 17.3 278.1 20.1 C 278.1 21.6 276.9 22.7 274.9 22.7 C 272.8 22.7 271.4 22.2 271.5 19.8 C 271.5 19.8 273.9 19.8 273.9 19.8 Z M 281.4 16.5 L 280 15.6 L 281.5 13.7 L 279.1 14 L 279.1 12.4 L 281.5 12.6 L 280.1 10.8 L 281.5 10 L 282.4 12.1 L 283.2 10 L 284.6 10.8 L 283.3 12.6 L 285.6 12.4 L 285.6 14 L 283.3 13.7 L 284.8 15.6 L 283.3 16.5 L 282.4 14.2 L 281.4 16.5 Z M 293.6 9.7 C 293.1 11.7 292.5 14.3 292.5 17 C 292.5 20 293.2 22.4 293.6 24.6 C 293.6 24.6 292.3 24.6 292.3 24.6 C 291.5 22.2 290.5 19.5 290.5 17 C 290.5 14.4 291.6 11.4 292.3 9.7 C 292.3 9.7 293.6 9.7 293.6 9.7 Z M 297.6 15.4 C 297.6 15.4 297.65 15.47 297.6 15.5 C 298 14.9 298.7 14.7 299.4 14.7 C 301.3 14.7 301.9 16 301.9 18.6 C 301.9 21.8 300.7 22.7 298.3 22.7 C 296.3 22.7 295.1 21.8 295.1 19.7 C 295.1 19.7 297.5 19.7 297.5 19.7 C 297.5 20 297.6 20.3 297.7 20.6 C 297.8 20.8 298.1 20.9 298.4 20.9 C 299.4 20.9 299.5 20.2 299.5 18.6 C 299.5 17.8 299.6 16.2 298.5 16.2 C 297.8 16.2 297.6 17 297.6 17.5 C 297.58 17.53 295.3 17.5 295.3 17.5 L 295.3 10.6 L 301.5 10.6 L 301.5 12.5 L 297.6 12.5 L 297.6 15.4 Z M 310 19.4 C 310 17.7 310.4 16.2 312.4 16.2 C 314.5 16.2 314.9 17.7 314.9 19.4 C 314.9 21.5 314.3 22.5 312.4 22.5 C 310.5 22.5 310 21.5 310 19.4 Z M 313.3 19.3 C 313.3 18.7 313.3 17.6 312.4 17.6 C 311.6 17.6 311.6 18.7 311.6 19.3 C 311.6 20.7 311.7 21.2 312.4 21.2 C 313.2 21.2 313.3 20.7 313.3 19.3 Z M 302.7 13.9 C 302.7 12.1 303.1 10.6 305.2 10.6 C 307.2 10.6 307.6 12.1 307.6 13.9 C 307.6 15.9 307.1 16.9 305.2 16.9 C 303.3 16.9 302.7 15.9 302.7 13.9 Z M 306 13.7 C 306 13.1 306 12 305.2 12 C 304.3 12 304.3 13.1 304.3 13.7 C 304.3 15.1 304.4 15.6 305.2 15.6 C 305.9 15.6 306 15.1 306 13.7 Z M 306.9 22.9 L 305.6 22.9 L 310.6 10.4 L 311.9 10.4 L 306.9 22.9 Z M 316.4 24.6 C 316.9 22.5 317.5 19.9 317.5 17.2 C 317.5 14.2 316.8 11.8 316.4 9.7 C 316.4 9.7 317.8 9.7 317.8 9.7 C 318.6 12.1 319.6 14.8 319.6 17.3 C 319.6 19.8 318.5 22.8 317.8 24.6 C 317.8 24.6 316.4 24.6 316.4 24.6 Z " stroke="none" fill="#003c71"/>  </g></svg>