<?xml version="1.0" standalone="no"?><!DOCTYPE svg PUBLIC "-//W3C//DTD SVG 1.1//EN" "http://www.w3.org/Graphics/SVG/1.1/DTD/svg11.dtd"><svg xmlns="http://www.w3.org/2000/svg" version="1.1" width="202.4px" height="48.6px" viewBox="0 0 202.4 48.6">  <desc>Phase 3 placebo rollover patients (n=21)</desc>  <defs/>  <g id="Polygon199113">    <path d="M 30.7 29.3 L 30.7 30.4 C 30.7 30.4 30.71 30.37 30.7 30.4 C 31.1 29.5 31.9 29.2 32.8 29.2 C 32.8 29.2 32.8 31.2 32.8 31.2 C 30.8 31 30.8 32.2 30.8 33 C 30.79 32.97 30.8 37.3 30.8 37.3 L 28.6 37.3 L 28.6 29.3 L 30.7 29.3 Z M 37.9 33.1 C 37.9 31.4 37.8 30.6 36.9 30.6 C 35.9 30.6 35.9 31.4 35.9 33.1 C 35.9 35.5 36.1 36 36.9 36 C 37.7 36 37.9 35.5 37.9 33.1 Z M 33.6 33.2 C 33.6 31 33.9 29.2 36.9 29.2 C 39.8 29.2 40.1 31 40.1 33.2 C 40.1 35.7 39.7 37.5 36.9 37.5 C 34 37.5 33.6 35.7 33.6 33.2 Z M 44.1 25.9 L 44.1 37.3 L 41.9 37.3 L 41.9 25.9 L 44.1 25.9 Z M 48.5 25.9 L 48.5 37.3 L 46.3 37.3 L 46.3 25.9 L 48.5 25.9 Z M 54.5 33.1 C 54.5 31.4 54.5 30.6 53.5 30.6 C 52.6 30.6 52.5 31.4 52.5 33.1 C 52.5 35.5 52.7 36 53.5 36 C 54.3 36 54.5 35.5 54.5 33.1 Z M 50.3 33.2 C 50.3 31 50.6 29.2 53.5 29.2 C 56.4 29.2 56.8 31 56.8 33.2 C 56.8 35.7 56.4 37.5 53.5 37.5 C 50.6 37.5 50.3 35.7 50.3 33.2 Z M 57.6 29.3 L 59.8 29.3 L 61 35.3 L 61 35.3 L 62.2 29.3 L 64.3 29.3 L 62.1 37.3 L 59.7 37.3 L 57.6 29.3 Z M 69.4 32.4 C 69.4 31.7 69.4 30.6 68.4 30.6 C 67.4 30.6 67.4 31.8 67.4 32.4 C 67.4 32.4 69.4 32.4 69.4 32.4 Z M 67.4 33.7 C 67.4 34.6 67.4 36 68.4 36 C 69.2 36 69.3 35.3 69.3 34.6 C 69.3 34.6 71.6 34.6 71.6 34.6 C 71.6 35.5 71.3 36.2 70.7 36.7 C 70.2 37.2 69.4 37.5 68.4 37.5 C 65.5 37.5 65.1 35.7 65.1 33.2 C 65.1 31 65.5 29.2 68.4 29.2 C 71.4 29.2 71.7 31.1 71.6 33.7 C 71.6 33.7 67.4 33.7 67.4 33.7 Z M 75.3 29.3 L 75.3 30.4 C 75.3 30.4 75.36 30.37 75.4 30.4 C 75.8 29.5 76.5 29.2 77.4 29.2 C 77.4 29.2 77.4 31.2 77.4 31.2 C 75.5 31 75.4 32.2 75.4 33 C 75.43 32.97 75.4 37.3 75.4 37.3 L 73.2 37.3 L 73.2 29.3 L 75.3 29.3 Z M 86 33.3 C 86 31.7 86 30.6 85.1 30.6 C 84.2 30.6 84.2 31.7 84.2 33.3 C 84.2 35.3 84.3 36.1 85.1 36.1 C 85.9 36.1 86 35.3 86 33.3 Z M 84.1 29.3 L 84.1 30.2 C 84.1 30.2 84.1 30.23 84.1 30.2 C 84.5 29.5 85.1 29.2 86 29.2 C 88.3 29.2 88.2 31.7 88.2 33.4 C 88.2 35 88.3 37.5 86 37.5 C 85.2 37.5 84.7 37.2 84.2 36.5 C 84.21 36.55 84.2 36.5 84.2 36.5 L 84.2 40.7 L 82 40.7 L 82 29.3 L 84.1 29.3 Z M 91.8 34.8 C 91.8 35.4 91.9 36.1 92.6 36.1 C 93.9 36.1 93.7 34.3 93.7 33.5 C 92.6 33.5 91.8 33.4 91.8 34.8 Z M 95.9 35.8 C 95.9 36.3 95.9 36.8 96 37.3 C 95.98 37.3 93.9 37.3 93.9 37.3 L 93.8 36.2 C 93.8 36.2 93.79 36.25 93.8 36.2 C 93.3 37.1 92.7 37.5 91.7 37.5 C 90.2 37.5 89.6 36.3 89.6 34.9 C 89.6 32.3 91.6 32.2 93.7 32.2 C 93.7 32.2 93.7 31.6 93.7 31.6 C 93.7 30.9 93.6 30.4 92.8 30.4 C 92 30.4 92 31 92 31.6 C 92 31.6 89.8 31.6 89.8 31.6 C 89.8 30.7 90.1 30.1 90.6 29.7 C 91.1 29.3 91.8 29.2 92.7 29.2 C 95.5 29.2 95.9 30.4 95.9 31.9 C 95.9 31.9 95.9 35.8 95.9 35.8 Z M 96.8 29.3 L 97.7 29.3 L 97.7 28.1 L 99.9 27.1 L 99.9 29.3 L 101.1 29.3 L 101.1 30.7 L 99.9 30.7 C 99.9 30.7 99.94 34.97 99.9 35 C 99.9 35.6 99.9 36 100.6 36 C 100.8 36 100.9 36 101 35.9 C 101 35.9 101 37.3 101 37.3 C 100.7 37.3 100.4 37.4 99.9 37.4 C 98 37.4 97.7 36.1 97.7 35.6 C 97.72 35.62 97.7 30.7 97.7 30.7 L 96.8 30.7 L 96.8 29.3 Z M 104.5 37.3 L 102.3 37.3 L 102.3 29.3 L 104.5 29.3 L 104.5 37.3 Z M 104.5 25.9 L 104.5 27.7 L 102.3 27.7 L 102.3 25.9 L 104.5 25.9 Z M 110.6 32.4 C 110.6 31.7 110.6 30.6 109.5 30.6 C 108.5 30.6 108.5 31.8 108.5 32.4 C 108.5 32.4 110.6 32.4 110.6 32.4 Z M 108.5 33.7 C 108.5 34.6 108.6 36 109.5 36 C 110.3 36 110.5 35.3 110.5 34.6 C 110.5 34.6 112.7 34.6 112.7 34.6 C 112.7 35.5 112.4 36.2 111.9 36.7 C 111.4 37.2 110.6 37.5 109.5 37.5 C 106.7 37.5 106.3 35.7 106.3 33.2 C 106.3 31 106.6 29.2 109.5 29.2 C 112.5 29.2 112.9 31.1 112.8 33.7 C 112.8 33.7 108.5 33.7 108.5 33.7 Z M 116.6 30.1 C 116.6 30.1 116.61 30.15 116.6 30.1 C 116.8 29.8 117.1 29.6 117.4 29.4 C 117.7 29.3 118.1 29.2 118.5 29.2 C 119.5 29.2 120.5 29.8 120.5 30.9 C 120.47 30.92 120.5 37.3 120.5 37.3 L 118.2 37.3 C 118.2 37.3 118.25 31.82 118.2 31.8 C 118.2 31.1 118.1 30.6 117.4 30.6 C 116.7 30.6 116.6 31.1 116.6 31.8 C 116.58 31.82 116.6 37.3 116.6 37.3 L 114.4 37.3 L 114.4 29.3 L 116.6 29.3 L 116.6 30.1 Z M 121.3 29.3 L 122.2 29.3 L 122.2 28.1 L 124.5 27.1 L 124.5 29.3 L 125.6 29.3 L 125.6 30.7 L 124.5 30.7 C 124.5 30.7 124.46 34.97 124.5 35 C 124.5 35.6 124.4 36 125.2 36 C 125.3 36 125.4 36 125.6 35.9 C 125.6 35.9 125.6 37.3 125.6 37.3 C 125.3 37.3 124.9 37.4 124.4 37.4 C 122.5 37.4 122.2 36.1 122.2 35.6 C 122.24 35.62 122.2 30.7 122.2 30.7 L 121.3 30.7 L 121.3 29.3 Z M 128.4 34.8 C 128.3 35.1 128.4 35.5 128.5 35.7 C 128.6 36 128.8 36.1 129.3 36.1 C 129.7 36.1 130.1 35.8 130.1 35.3 C 130.1 33.6 126.2 34 126.2 31.4 C 126.2 29.7 127.9 29.2 129.3 29.2 C 130.8 29.2 132.2 29.9 132.1 31.6 C 132.1 31.6 129.9 31.6 129.9 31.6 C 129.9 31.1 129.8 30.7 129.7 30.6 C 129.5 30.5 129.4 30.4 129.1 30.4 C 128.6 30.4 128.4 30.7 128.4 31.3 C 128.4 32.5 132.3 32.5 132.3 35 C 132.3 36.4 131.1 37.5 129.3 37.5 C 127.4 37.5 126.1 37 126.2 34.8 C 126.2 34.8 128.4 34.8 128.4 34.8 Z M 139.7 25.4 C 139.2 27.3 138.6 29.7 138.6 32.2 C 138.6 35 139.3 37.2 139.7 39.2 C 139.7 39.2 138.4 39.2 138.4 39.2 C 137.7 37 136.7 34.5 136.7 32.2 C 136.7 29.8 137.8 27 138.4 25.4 C 138.4 25.4 139.7 25.4 139.7 25.4 Z M 143.7 30.1 C 143.7 30.1 143.74 30.15 143.7 30.1 C 144 29.8 144.2 29.6 144.5 29.4 C 144.8 29.3 145.2 29.2 145.6 29.2 C 146.7 29.2 147.6 29.8 147.6 30.9 C 147.6 30.92 147.6 37.3 147.6 37.3 L 145.4 37.3 C 145.4 37.3 145.38 31.82 145.4 31.8 C 145.4 31.1 145.3 30.6 144.5 30.6 C 143.8 30.6 143.7 31.1 143.7 31.8 C 143.71 31.82 143.7 37.3 143.7 37.3 L 141.5 37.3 L 141.5 29.3 L 143.7 29.3 L 143.7 30.1 Z M 156 32.7 L 148.9 32.7 L 148.9 30.9 L 156 30.9 L 156 32.7 Z M 156 35.7 L 148.9 35.7 L 148.9 34 L 156 34 L 156 35.7 Z M 156.6 37.3 C 156.6 37.3 156.56 35.36 156.6 35.4 C 160 30.7 160.7 30.2 160.7 28.8 C 160.7 28.3 160.5 27.8 159.9 27.8 C 159 27.8 158.9 28.6 158.9 29.3 C 158.9 29.3 156.7 29.3 156.7 29.3 C 156.6 27.3 157.7 26.2 159.8 26.2 C 161.7 26.2 163 26.9 163 29 C 163 31.5 160.1 34.3 158.9 35.6 C 158.89 35.6 163.1 35.6 163.1 35.6 L 163.1 37.3 L 156.6 37.3 Z M 164.1 28 C 164.9 27.6 165.7 27 166.3 26.3 C 166.26 26.3 168.4 26.3 168.4 26.3 L 168.4 37.3 L 166 37.3 C 166 37.3 165.99 28.84 166 28.8 C 165.4 29.3 164.8 29.7 164.1 30.1 C 164.1 30.1 164.1 28 164.1 28 Z M 171.3 39.2 C 171.8 37.3 172.3 34.9 172.3 32.4 C 172.3 29.6 171.7 27.4 171.3 25.4 C 171.3 25.4 172.5 25.4 172.5 25.4 C 173.3 27.6 174.2 30.1 174.2 32.4 C 174.2 34.8 173.2 37.6 172.5 39.2 C 172.5 39.2 171.3 39.2 171.3 39.2 Z " stroke="none" fill="#fff"/>  </g>  <g id="Polygon199112">    <path d="M 52.1 12 C 52.1 12 53.41 12.01 53.4 12 C 54.1 12 54.6 11.2 54.6 10.5 C 54.6 9.6 54.4 8.8 53.3 8.8 C 53.28 8.76 52.1 8.8 52.1 8.8 L 52.1 12 Z M 49.7 7 C 49.7 7 53.99 7.02 54 7 C 56.2 7 57 8.3 57 10.4 C 57 11.7 56.6 13.8 53.8 13.8 C 53.85 13.76 52.1 13.8 52.1 13.8 L 52.1 18.4 L 49.7 18.4 L 49.7 7 Z M 62.2 18.4 C 62.2 18.4 62.23 12.91 62.2 12.9 C 62.2 12.2 62.1 11.6 61.4 11.6 C 60.7 11.6 60.6 12.2 60.6 12.9 C 60.56 12.91 60.6 18.4 60.6 18.4 L 58.3 18.4 L 58.3 7 L 60.6 7 L 60.6 11.2 C 60.6 11.2 60.59 11.24 60.6 11.2 C 60.8 10.9 61.1 10.6 61.4 10.5 C 61.7 10.3 62.1 10.3 62.5 10.3 C 63.5 10.3 64.5 10.9 64.5 12 C 64.45 12.01 64.5 18.4 64.5 18.4 L 62.2 18.4 Z M 68.2 15.9 C 68.2 16.5 68.2 17.2 69 17.2 C 70.3 17.2 70.1 15.4 70.1 14.5 C 69 14.6 68.2 14.5 68.2 15.9 Z M 72.3 16.9 C 72.3 17.4 72.3 17.9 72.4 18.4 C 72.36 18.39 70.3 18.4 70.3 18.4 L 70.2 17.3 C 70.2 17.3 70.17 17.34 70.2 17.3 C 69.7 18.2 69.1 18.5 68.1 18.5 C 66.5 18.5 66 17.4 66 16 C 66 13.4 68 13.3 70.1 13.3 C 70.1 13.3 70.1 12.7 70.1 12.7 C 70.1 12 70 11.5 69.2 11.5 C 68.4 11.5 68.3 12.1 68.3 12.7 C 68.3 12.7 66.2 12.7 66.2 12.7 C 66.2 11.8 66.5 11.2 67 10.8 C 67.5 10.4 68.2 10.3 69.1 10.3 C 71.9 10.3 72.3 11.5 72.3 12.9 C 72.3 12.9 72.3 16.9 72.3 16.9 Z M 75.8 15.8 C 75.8 16.2 75.8 16.5 76 16.8 C 76.1 17.1 76.3 17.2 76.8 17.2 C 77.2 17.2 77.6 16.9 77.6 16.4 C 77.6 14.7 73.7 15.1 73.7 12.5 C 73.7 10.8 75.4 10.3 76.8 10.3 C 78.3 10.3 79.7 11 79.6 12.7 C 79.6 12.7 77.4 12.7 77.4 12.7 C 77.4 12.2 77.3 11.8 77.2 11.7 C 77 11.6 76.8 11.5 76.6 11.5 C 76.1 11.5 75.8 11.8 75.8 12.4 C 75.8 13.6 79.8 13.6 79.8 16.1 C 79.8 17.5 78.6 18.5 76.8 18.5 C 74.8 18.5 73.5 18.1 73.7 15.8 C 73.7 15.8 75.8 15.8 75.8 15.8 Z M 85.2 13.5 C 85.2 12.8 85.2 11.6 84.1 11.6 C 83.1 11.6 83.1 12.8 83.1 13.5 C 83.1 13.5 85.2 13.5 85.2 13.5 Z M 83.1 14.8 C 83.1 15.7 83.2 17.1 84.1 17.1 C 84.9 17.1 85.1 16.4 85.1 15.7 C 85.1 15.7 87.3 15.7 87.3 15.7 C 87.3 16.6 87 17.3 86.5 17.8 C 86 18.3 85.2 18.5 84.1 18.5 C 81.3 18.5 80.9 16.8 80.9 14.3 C 80.9 12.1 81.2 10.3 84.1 10.3 C 87.1 10.3 87.5 12.2 87.4 14.8 C 87.4 14.8 83.1 14.8 83.1 14.8 Z M 91.9 10.1 C 91.9 9 92.2 8.3 92.7 7.8 C 93.2 7.4 93.9 7.3 95.1 7.3 C 97.1 7.3 98.1 8.1 98.1 10.2 C 98.1 11.2 97.8 12.5 96.6 12.6 C 96.6 12.6 96.6 12.7 96.6 12.7 C 98 12.9 98.2 14.1 98.2 15.3 C 98.2 17.6 97 18.5 94.8 18.5 C 92.6 18.5 91.8 17.8 91.8 15.4 C 91.8 15.4 94 15.4 94 15.4 C 94 16.1 94 16.9 94.9 16.9 C 95.9 16.9 96 16 96 15.2 C 96 13.6 95.5 13.5 94 13.5 C 94 13.5 93.9 11.8 93.9 11.8 C 95.4 11.9 95.8 11.7 95.8 10.2 C 95.8 9.6 95.7 8.9 95 8.9 C 94.2 8.9 94.1 9.5 94.1 10.1 C 94.1 10.1 91.9 10.1 91.9 10.1 Z M 107 14.3 C 107 12.8 107 11.6 106.1 11.6 C 105.2 11.6 105.2 12.8 105.2 14.3 C 105.2 16.3 105.3 17.2 106.1 17.2 C 106.9 17.2 107 16.3 107 14.3 Z M 105.1 10.4 L 105.1 11.3 C 105.1 11.3 105.1 11.32 105.1 11.3 C 105.5 10.5 106.1 10.3 107 10.3 C 109.3 10.3 109.2 12.8 109.2 14.5 C 109.2 16.1 109.3 18.5 107 18.5 C 106.2 18.5 105.7 18.3 105.2 17.6 C 105.21 17.64 105.2 17.6 105.2 17.6 L 105.2 21.8 L 103 21.8 L 103 10.4 L 105.1 10.4 Z M 113.3 7 L 113.3 18.4 L 111 18.4 L 111 7 L 113.3 7 Z M 117.2 15.9 C 117.2 16.5 117.3 17.2 118 17.2 C 119.3 17.2 119.1 15.4 119.1 14.5 C 118 14.6 117.2 14.5 117.2 15.9 Z M 121.3 16.9 C 121.3 17.4 121.3 17.9 121.4 18.4 C 121.37 18.39 119.3 18.4 119.3 18.4 L 119.2 17.3 C 119.2 17.3 119.18 17.34 119.2 17.3 C 118.7 18.2 118.1 18.5 117.1 18.5 C 115.6 18.5 115 17.4 115 16 C 115 13.4 117 13.3 119.1 13.3 C 119.1 13.3 119.1 12.7 119.1 12.7 C 119.1 12 119 11.5 118.2 11.5 C 117.4 11.5 117.3 12.1 117.3 12.7 C 117.3 12.7 115.2 12.7 115.2 12.7 C 115.2 11.8 115.5 11.2 116 10.8 C 116.5 10.4 117.2 10.3 118.1 10.3 C 120.9 10.3 121.3 11.5 121.3 12.9 C 121.3 12.9 121.3 16.9 121.3 16.9 Z M 127.2 13.3 C 127.2 12.1 126.9 11.7 126.2 11.7 C 125.2 11.7 125.1 12.5 125.1 14.2 C 125.1 16.6 125.3 17.1 126.2 17.1 C 126.9 17.1 127.2 16.5 127.2 15.5 C 127.2 15.5 129.4 15.5 129.4 15.5 C 129.4 17.6 128.2 18.5 126.2 18.5 C 123.3 18.5 122.9 16.8 122.9 14.3 C 122.9 12.1 123.2 10.3 126.2 10.3 C 128.2 10.3 129.4 11.2 129.4 13.3 C 129.4 13.3 127.2 13.3 127.2 13.3 Z M 135.1 13.5 C 135.1 12.8 135.1 11.6 134 11.6 C 133 11.6 133 12.8 133 13.5 C 133 13.5 135.1 13.5 135.1 13.5 Z M 133 14.8 C 133 15.7 133.1 17.1 134 17.1 C 134.8 17.1 135 16.4 135 15.7 C 135 15.7 137.2 15.7 137.2 15.7 C 137.2 16.6 136.9 17.3 136.4 17.8 C 135.9 18.3 135.1 18.5 134 18.5 C 131.2 18.5 130.8 16.8 130.8 14.3 C 130.8 12.1 131.1 10.3 134 10.3 C 137 10.3 137.4 12.2 137.3 14.8 C 137.3 14.8 133 14.8 133 14.8 Z M 142.9 14.3 C 142.9 12.8 142.9 11.6 142 11.6 C 141.1 11.6 141.1 12.8 141.1 14.3 C 141.1 16.3 141.2 17.2 142 17.2 C 142.8 17.2 142.9 16.3 142.9 14.3 Z M 138.9 7 L 141.1 7 L 141.1 11.2 C 141.1 11.2 141.11 11.19 141.1 11.2 C 141.6 10.5 142.1 10.3 142.9 10.3 C 145.2 10.3 145.1 12.8 145.1 14.4 C 145.1 16 145.2 18.5 142.9 18.5 C 142 18.5 141.4 18.3 141 17.5 C 141 17.51 141 17.5 141 17.5 L 141 18.4 L 138.9 18.4 L 138.9 7 Z M 150.8 14.2 C 150.8 12.5 150.7 11.7 149.8 11.7 C 148.8 11.7 148.8 12.5 148.8 14.2 C 148.8 16.6 149 17.1 149.8 17.1 C 150.6 17.1 150.8 16.6 150.8 14.2 Z M 146.5 14.3 C 146.5 12.1 146.9 10.3 149.8 10.3 C 152.7 10.3 153 12.1 153 14.3 C 153 16.8 152.7 18.5 149.8 18.5 C 146.9 18.5 146.5 16.8 146.5 14.3 Z " stroke="none" fill="#fff"/>  </g></svg>