<?xml version="1.0" standalone="no"?><!DOCTYPE svg PUBLIC "-//W3C//DTD SVG 1.1//EN" "http://www.w3.org/Graphics/SVG/1.1/DTD/svg11.dtd"><svg xmlns="http://www.w3.org/2000/svg" version="1.1" width="240px" height="15.6px" viewBox="0 -3 240 15.6" style="top:-3px">  <desc>BEL AND 0008 | May 2025</desc>  <defs/>  <g id="Polygon203772">    <path d="M 2 5.7 C 2 5.7 2.79 5.7 2.8 5.7 C 3.1 5.7 3.8 5.7 3.8 4.8 C 3.8 4.2 3.5 3.8 2.8 3.8 C 2.83 3.79 2 3.8 2 3.8 L 2 5.7 Z M 2 2.8 C 2 2.8 2.95 2.76 2.9 2.8 C 3.3 2.8 3.7 2.6 3.7 1.9 C 3.7 1.4 3.3 1.1 2.9 1.1 C 2.87 1.05 2 1.1 2 1.1 L 2 2.8 Z M 0.6 6.7 L 0.6 0 C 0.6 0 3.1 0.02 3.1 0 C 4.2 0 5 0.3 5 1.8 C 5 2.5 4.7 3.1 3.9 3.2 C 3.9 3.2 3.9 3.3 3.9 3.3 C 4.9 3.4 5.2 4 5.2 5 C 5.2 6.7 3.7 6.7 3.1 6.7 C 3.09 6.73 0.6 6.7 0.6 6.7 Z M 6.3 6.7 L 6.3 0 L 9.9 0 L 9.9 1.1 L 7.7 1.1 L 7.7 2.7 L 9.8 2.7 L 9.8 3.7 L 7.7 3.7 L 7.7 5.7 L 10 5.7 L 10 6.7 L 6.3 6.7 Z M 10.9 6.7 L 10.9 0 L 12.3 0 L 12.3 5.6 L 14.4 5.6 L 14.4 6.7 L 10.9 6.7 Z M 17.1 3.7 L 17.1 4.7 L 14.9 4.7 L 14.9 3.7 L 17.1 3.7 Z M 17.6 6.7 L 19.5 0 L 21.3 0 L 23.2 6.7 L 21.7 6.7 L 21.3 5.2 L 19.4 5.2 L 19 6.7 L 17.6 6.7 Z M 20.3 1.3 L 20.3 1.3 L 19.7 4.2 L 21 4.2 L 20.3 1.3 Z M 23.8 6.7 L 23.8 0 L 25.7 0 L 27.5 4.7 L 27.5 4.7 L 27.5 0 L 28.9 0 L 28.9 6.7 L 27 6.7 L 25.2 1.8 L 25.1 1.8 L 25.1 6.7 L 23.8 6.7 Z M 31.5 5.7 C 31.5 5.7 32.14 5.7 32.1 5.7 C 33 5.7 33.2 5.1 33.2 3.4 C 33.2 2.1 33.2 1.1 32.2 1.1 C 32.19 1.05 31.5 1.1 31.5 1.1 L 31.5 5.7 Z M 30.1 0 C 30.1 0 32.4 0.02 32.4 0 C 34.2 0 34.6 1.2 34.6 3.3 C 34.6 4.4 34.7 6.7 32.3 6.7 C 32.35 6.73 30.1 6.7 30.1 6.7 L 30.1 0 Z M 37.8 3.7 L 37.8 4.7 L 35.5 4.7 L 35.5 3.7 L 37.8 3.7 Z M 42.2 3.5 C 42.2 5.5 42 6.8 40.3 6.8 C 38.5 6.8 38.4 5.5 38.4 3.5 C 38.4 1 38.7 0.2 40.3 0.2 C 41.9 0.2 42.2 1 42.2 3.5 Z M 39.7 3.5 C 39.7 5.5 39.8 5.9 40.3 5.9 C 40.8 5.9 40.9 5.5 40.9 3.5 C 40.9 1.5 40.8 1.1 40.3 1.1 C 39.7 1.1 39.7 1.5 39.7 3.5 Z M 46.3 3.5 C 46.3 5.5 46.2 6.8 44.4 6.8 C 42.7 6.8 42.5 5.5 42.5 3.5 C 42.5 1 42.8 0.2 44.4 0.2 C 46 0.2 46.3 1 46.3 3.5 Z M 43.9 3.5 C 43.9 5.5 43.9 5.9 44.4 5.9 C 44.9 5.9 45 5.5 45 3.5 C 45 1.5 45 1.1 44.4 1.1 C 43.9 1.1 43.9 1.5 43.9 3.5 Z M 50.4 3.5 C 50.4 5.5 50.3 6.8 48.5 6.8 C 46.8 6.8 46.7 5.5 46.7 3.5 C 46.7 1 46.9 0.2 48.5 0.2 C 50.1 0.2 50.4 1 50.4 3.5 Z M 48 3.5 C 48 5.5 48 5.9 48.5 5.9 C 49.1 5.9 49.1 5.5 49.1 3.5 C 49.1 1.5 49.1 1.1 48.5 1.1 C 48 1.1 48 1.5 48 3.5 Z M 52.1 5 C 52.1 5.4 52.2 5.9 52.7 5.9 C 53.2 5.9 53.2 5.4 53.2 5 C 53.2 4.6 53.3 3.8 52.7 3.8 C 52.1 3.8 52.1 4.6 52.1 5 Z M 52.2 2 C 52.2 2.3 52.2 2.8 52.7 2.8 C 53.1 2.8 53.2 2.3 53.2 2 C 53.2 1.6 53.1 1.1 52.7 1.1 C 52.2 1.1 52.2 1.6 52.2 2 Z M 50.8 5.1 C 50.8 4.3 50.9 3.6 51.8 3.3 C 51.8 3.3 51.8 3.3 51.8 3.3 C 51 3.1 50.9 2.6 50.9 1.9 C 50.9 0.7 51.5 0.2 52.7 0.2 C 53.9 0.2 54.5 0.7 54.5 1.9 C 54.5 2.6 54.3 3.1 53.6 3.3 C 53.6 3.3 53.6 3.3 53.6 3.3 C 54.4 3.6 54.6 4.3 54.6 5.1 C 54.6 6.3 53.9 6.8 52.7 6.8 C 51.5 6.8 50.8 6.3 50.8 5.1 Z M 57.5 -0.2 L 58.5 -0.2 L 58.5 9.1 L 57.5 9.1 L 57.5 -0.2 Z M 61.8 6.7 L 61.8 0 L 64 0 L 65.1 4.6 L 65.1 4.6 L 66.2 0 L 68.4 0 L 68.4 6.7 L 67 6.7 L 67 1.6 L 67 1.6 L 65.7 6.7 L 64.4 6.7 L 63.1 1.6 L 63.1 1.6 L 63.1 6.7 L 61.8 6.7 Z M 70.6 5.3 C 70.6 5.6 70.7 6 71.1 6 C 71.9 6 71.7 5 71.7 4.5 C 71.1 4.5 70.6 4.4 70.6 5.3 Z M 73 5.9 C 73 6.1 73.1 6.4 73.1 6.7 C 73.09 6.73 71.9 6.7 71.9 6.7 L 71.8 6.1 C 71.8 6.1 71.8 6.11 71.8 6.1 C 71.5 6.6 71.1 6.8 70.6 6.8 C 69.7 6.8 69.3 6.1 69.3 5.3 C 69.3 3.8 70.5 3.7 71.7 3.7 C 71.7 3.7 71.7 3.4 71.7 3.4 C 71.7 3 71.7 2.7 71.2 2.7 C 70.8 2.7 70.7 3 70.7 3.4 C 70.7 3.4 69.4 3.4 69.4 3.4 C 69.4 2.8 69.6 2.5 69.9 2.3 C 70.2 2 70.6 1.9 71.1 1.9 C 72.8 1.9 73 2.7 73 3.5 C 73 3.5 73 5.9 73 5.9 Z M 75 6.8 L 73.7 2 L 75 2 L 75.7 5.3 L 75.7 5.3 L 76.4 2 L 77.6 2 L 75.8 8.5 L 74.5 8.5 L 75 6.8 Z M 79.9 6.7 C 79.9 6.7 79.9 5.59 79.9 5.6 C 81.9 2.9 82.4 2.5 82.4 1.7 C 82.4 1.4 82.3 1.1 81.9 1.1 C 81.3 1.1 81.3 1.6 81.3 2 C 81.3 2 80 2 80 2 C 79.9 0.8 80.6 0.2 81.8 0.2 C 82.9 0.2 83.7 0.6 83.7 1.8 C 83.7 3.3 82 4.9 81.3 5.7 C 81.28 5.73 83.8 5.7 83.8 5.7 L 83.8 6.7 L 79.9 6.7 Z M 87.9 3.5 C 87.9 5.5 87.7 6.8 86 6.8 C 84.2 6.8 84.1 5.5 84.1 3.5 C 84.1 1 84.4 0.2 86 0.2 C 87.6 0.2 87.9 1 87.9 3.5 Z M 85.4 3.5 C 85.4 5.5 85.5 5.9 86 5.9 C 86.5 5.9 86.6 5.5 86.6 3.5 C 86.6 1.5 86.5 1.1 86 1.1 C 85.4 1.1 85.4 1.5 85.4 3.5 Z M 88.2 6.7 C 88.2 6.7 88.16 5.59 88.2 5.6 C 90.2 2.9 90.6 2.5 90.6 1.7 C 90.6 1.4 90.5 1.1 90.1 1.1 C 89.6 1.1 89.6 1.6 89.6 2 C 89.6 2 88.3 2 88.3 2 C 88.2 0.8 88.8 0.2 90 0.2 C 91.2 0.2 91.9 0.6 91.9 1.8 C 91.9 3.3 90.2 4.9 89.5 5.7 C 89.54 5.73 92 5.7 92 5.7 L 92 6.7 L 88.2 6.7 Z M 93.8 2.9 C 93.8 2.9 93.82 2.88 93.8 2.9 C 94 2.6 94.4 2.4 94.8 2.4 C 95.8 2.4 96.1 3.2 96.1 4.6 C 96.1 6.3 95.5 6.8 94.2 6.8 C 93.1 6.8 92.4 6.4 92.4 5.2 C 92.4 5.2 93.8 5.2 93.8 5.2 C 93.8 5.4 93.8 5.6 93.9 5.7 C 93.9 5.8 94 5.9 94.3 5.9 C 94.8 5.9 94.8 5.5 94.8 4.6 C 94.8 4.2 94.9 3.3 94.3 3.3 C 93.9 3.3 93.8 3.7 93.8 4 C 93.79 4.01 92.5 4 92.5 4 L 92.5 0.2 L 95.9 0.2 L 95.9 1.2 L 93.8 1.2 L 93.8 2.9 Z " stroke="none" fill="#888888"/>  </g></svg>