<?xml version="1.0" standalone="no"?><!DOCTYPE svg PUBLIC "-//W3C//DTD SVG 1.1//EN" "http://www.w3.org/Graphics/SVG/1.1/DTD/svg11.dtd"><svg xmlns="http://www.w3.org/2000/svg" version="1.1" width="641px" height="41.7px" viewBox="0 -7 641 41.7" style="top:-7px">  <desc>ANDEMBRY® significantly reduceD MONTHLY HAE attacks vs. placebo1,2</desc>  <defs/>  <g id="Polygon195293">    <path d="M 4.8 0.1 L 8 0.1 L 12.1 20.3 L 9.3 20.3 L 8.4 15.1 L 4 15.1 L 3.1 20.3 L 0.3 20.3 L 4.8 0.1 Z M 4.5 12.8 L 8 12.8 L 6.3 3 L 6.2 3 L 4.5 12.8 Z M 13.5 0.1 L 17.3 0.1 L 20.6 16.9 L 20.7 16.9 L 20.7 0.1 L 23.3 0.1 L 23.3 20.3 L 19.3 20.3 L 16 3 L 15.9 3 L 15.9 20.3 L 13.5 20.3 L 13.5 0.1 Z M 28.2 17.9 C 28.2 17.9 29.54 17.92 29.5 17.9 C 31.6 17.9 32 16.8 32 13.4 C 32 13.4 32 6.4 32 6.4 C 32 3.4 31.7 2.4 29.3 2.4 C 29.32 2.41 28.2 2.4 28.2 2.4 L 28.2 17.9 Z M 25.4 0.1 C 25.4 0.1 29.9 0.06 29.9 0.1 C 34.4 0.1 34.8 1.6 34.8 7.4 C 34.8 7.4 34.8 13.5 34.8 13.5 C 34.8 18.6 33.9 20.3 29.5 20.3 C 29.46 20.27 25.4 20.3 25.4 20.3 L 25.4 0.1 Z M 36.8 0.1 L 44.4 0.1 L 44.4 2.4 L 39.6 2.4 L 39.6 8.7 L 44.1 8.7 L 44.1 11.1 L 39.6 11.1 L 39.6 17.9 L 44.4 17.9 L 44.4 20.3 L 36.8 20.3 L 36.8 0.1 Z M 45.6 0.1 L 50.1 0.1 L 52.6 15.5 L 52.7 15.5 L 55.3 0.1 L 59.6 0.1 L 59.6 20.3 L 57 20.3 L 57 2.1 L 56.9 2.1 L 54.1 20.3 L 51.3 20.3 L 48.1 2.1 L 48.1 2.1 L 48.1 20.3 L 45.6 20.3 L 45.6 0.1 Z M 61.7 0.1 C 61.7 0.1 66.55 0.06 66.6 0.1 C 70 0.1 70.6 1.3 70.6 5 C 70.6 8.9 69.9 9.6 68 9.8 C 68 9.8 68 9.9 68 9.9 C 70.3 10.3 70.7 11.1 70.7 14.5 C 70.7 18.9 70.2 20.3 66.1 20.3 C 66.08 20.27 61.7 20.3 61.7 20.3 L 61.7 0.1 Z M 64.5 18.1 C 64.5 18.1 66.22 18.09 66.2 18.1 C 67.8 18.1 68.1 17.6 68.1 14.4 C 68.1 11.4 67.8 10.9 66.3 10.9 C 66.3 10.92 64.5 10.9 64.5 10.9 L 64.5 18.1 Z M 64.5 8.7 C 64.5 8.7 66.11 8.74 66.1 8.7 C 67.8 8.7 68 8.4 68 5.1 C 68 2.8 67.6 2.2 65.8 2.2 C 65.8 2.24 64.5 2.2 64.5 2.2 L 64.5 8.7 Z M 72.6 0.1 C 72.6 0.1 76.91 0.06 76.9 0.1 C 81 0.1 81.4 1.1 81.4 5.6 C 81.4 8.3 81.1 9.5 78.8 10.2 C 78.8 10.2 78.8 10.2 78.8 10.2 C 80.7 10.4 81.3 11.4 81.3 13.3 C 81.3 13.3 81.3 17.7 81.3 17.7 C 81.3 18.4 81.3 19.4 81.5 20.3 C 81.5 20.3 78.8 20.3 78.8 20.3 C 78.6 19.8 78.5 19.3 78.5 18.5 C 78.5 18.5 78.5 13.9 78.5 13.9 C 78.5 12 78.2 11.5 76.3 11.5 C 76.33 11.48 75.4 11.5 75.4 11.5 L 75.4 20.3 L 72.6 20.3 L 72.6 0.1 Z M 75.4 9.1 C 75.4 9.1 76.1 9.13 76.1 9.1 C 78.3 9.1 78.6 8.7 78.6 5.7 C 78.6 2.7 78.5 2.4 76.7 2.4 C 76.72 2.41 75.4 2.4 75.4 2.4 L 75.4 9.1 Z M 81.6 0.1 L 84.4 0.1 L 86.9 8.6 L 86.9 8.6 L 89.7 0.1 L 92.2 0.1 L 88.3 12 L 88.3 20.3 L 85.5 20.3 L 85.5 12 L 81.6 0.1 Z M 99.1 -0.9 C 102.4 -0.9 105.1 1.7 105.1 5.1 C 105.1 8.4 102.4 11 99.1 11 C 95.8 11 93.1 8.4 93.1 5.1 C 93.1 1.7 95.8 -0.9 99.1 -0.9 Z M 99.1 9.9 C 101.8 9.9 103.8 7.7 103.8 5.1 C 103.8 2.4 101.8 0.2 99.1 0.2 C 96.4 0.2 94.4 2.4 94.4 5.1 C 94.4 7.7 96.4 9.9 99.1 9.9 Z M 98.8 5.5 L 97.7 5.5 L 97.7 8.5 L 96.5 8.5 L 96.5 1.6 C 96.5 1.6 99.21 1.63 99.2 1.6 C 100.9 1.6 101.8 2.2 101.8 3.6 C 101.8 4.8 101 5.3 100 5.4 C 100.04 5.4 101.9 8.5 101.9 8.5 L 100.6 8.5 L 98.8 5.5 Z M 98.9 4.5 C 99.8 4.5 100.5 4.5 100.5 3.5 C 100.5 2.7 99.7 2.6 99 2.6 C 99.01 2.61 97.7 2.6 97.7 2.6 L 97.7 4.5 C 97.7 4.5 98.91 4.53 98.9 4.5 Z M 111.6 14.4 L 114.4 14.4 C 114.4 14.4 114.39 16.07 114.4 16.1 C 114.4 17.4 114.9 18.3 116 18.3 C 117.5 18.3 117.9 17.2 117.9 15.9 C 117.9 14.2 117.8 13.7 114.9 10.8 C 113.1 9 111.6 7.4 111.6 4.6 C 111.6 1.3 113.1 -0.1 116.2 -0.1 C 117.7 -0.1 118.8 0.4 119.5 1 C 119.9 1.5 120.3 2.2 120.3 3.6 C 120.27 3.58 120.3 5.5 120.3 5.5 L 117.6 5.5 C 117.6 5.5 117.64 3.89 117.6 3.9 C 117.6 2.7 117.2 2.1 116.1 2.1 C 114.9 2.1 114.4 2.7 114.4 4.3 C 114.4 5.7 114.7 6.5 117.2 9.2 C 120 12 120.5 13 120.5 15.5 C 120.5 18.6 119.3 20.4 115.9 20.4 C 113.4 20.4 111.6 19.3 111.6 16.8 C 111.59 16.83 111.6 14.4 111.6 14.4 Z M 122.2 0.1 L 125 0.1 L 125 20.3 L 122.2 20.3 L 122.2 0.1 Z M 133.5 5.4 C 133.5 5.4 133.49 4.37 133.5 4.4 C 133.5 2.9 132.8 2.1 131.7 2.1 C 130.4 2.1 129.8 3.2 129.8 5.4 C 129.8 5.4 129.8 15.6 129.8 15.6 C 129.8 17.2 130.5 18.3 131.7 18.3 C 132.5 18.3 133.1 18.1 133.5 18.1 C 133.49 18.06 133.5 12.1 133.5 12.1 L 131.6 12.1 L 131.6 9.8 L 136.3 9.8 C 136.3 9.8 136.29 19.94 136.3 19.9 C 135.2 20.2 133.3 20.4 131.7 20.4 C 128.1 20.4 127 18.6 127 15.4 C 127 15.4 127 5.2 127 5.2 C 127 1.4 128.1 -0.1 131.7 -0.1 C 134.7 -0.1 136.3 1 136.3 3.6 C 136.29 3.56 136.3 5.4 136.3 5.4 L 133.5 5.4 Z M 138.4 0.1 L 142.2 0.1 L 145.5 16.9 L 145.6 16.9 L 145.6 0.1 L 148.2 0.1 L 148.2 20.3 L 144.2 20.3 L 140.9 3 L 140.8 3 L 140.8 20.3 L 138.4 20.3 L 138.4 0.1 Z M 150.2 0.1 L 153 0.1 L 153 20.3 L 150.2 20.3 L 150.2 0.1 Z M 155 0.1 L 162.6 0.1 L 162.6 2.4 L 157.8 2.4 L 157.8 8.7 L 162.3 8.7 L 162.3 11.1 L 157.8 11.1 L 157.8 20.3 L 155 20.3 L 155 0.1 Z M 163.7 0.1 L 166.5 0.1 L 166.5 20.3 L 163.7 20.3 L 163.7 0.1 Z M 168.2 5.2 C 168.2 2.4 169.1 -0.1 172.9 -0.1 C 175.7 -0.1 177 1.3 177 3.6 C 177 3.56 177 5.6 177 5.6 L 174.4 5.6 C 174.4 5.6 174.36 4.17 174.4 4.2 C 174.4 2.9 173.9 2.1 172.7 2.1 C 171.3 2.1 171 3.1 171 5.5 C 171 5.5 171 15.5 171 15.5 C 171 17.8 171.8 18.3 172.7 18.3 C 173.7 18.3 174.4 17.5 174.4 15.8 C 174.36 15.85 174.4 14.4 174.4 14.4 L 177 14.4 C 177 14.4 177 16.69 177 16.7 C 177 18.8 176.1 20.4 172.9 20.4 C 169.4 20.4 168.2 18.6 168.2 15.4 C 168.2 15.4 168.2 5.2 168.2 5.2 Z M 181.8 0.1 L 185 0.1 L 189.1 20.3 L 186.3 20.3 L 185.4 15.1 L 181 15.1 L 180.1 20.3 L 177.3 20.3 L 181.8 0.1 Z M 181.4 12.8 L 185 12.8 L 183.3 3 L 183.2 3 L 181.4 12.8 Z M 190.5 0.1 L 194.3 0.1 L 197.6 16.9 L 197.7 16.9 L 197.7 0.1 L 200.3 0.1 L 200.3 20.3 L 196.3 20.3 L 193 3 L 192.9 3 L 192.9 20.3 L 190.5 20.3 L 190.5 0.1 Z M 201.5 0.1 L 211 0.1 L 211 2.4 L 207.7 2.4 L 207.7 20.3 L 204.9 20.3 L 204.9 2.4 L 201.5 2.4 L 201.5 0.1 Z M 212.2 0.1 L 215 0.1 L 215 17.9 L 219.8 17.9 L 219.8 20.3 L 212.2 20.3 L 212.2 0.1 Z M 217.3 0.1 L 220.1 0.1 L 222.6 8.6 L 222.6 8.6 L 225.4 0.1 L 227.9 0.1 L 224 12 L 224 20.3 L 221.2 20.3 L 221.2 12 L 217.3 0.1 Z M 234.6 0.1 C 234.6 0.1 238.9 0.06 238.9 0.1 C 243 0.1 243.4 1.1 243.4 5.6 C 243.4 8.3 243 9.5 240.8 10.2 C 240.8 10.2 240.8 10.2 240.8 10.2 C 242.7 10.4 243.3 11.4 243.3 13.3 C 243.3 13.3 243.3 17.7 243.3 17.7 C 243.3 18.4 243.3 19.4 243.5 20.3 C 243.5 20.3 240.8 20.3 240.8 20.3 C 240.6 19.8 240.5 19.3 240.5 18.5 C 240.5 18.5 240.5 13.9 240.5 13.9 C 240.5 12 240.2 11.5 238.3 11.5 C 238.31 11.48 237.4 11.5 237.4 11.5 L 237.4 20.3 L 234.6 20.3 L 234.6 0.1 Z M 237.4 9.1 C 237.4 9.1 238.09 9.13 238.1 9.1 C 240.3 9.1 240.6 8.7 240.6 5.7 C 240.6 2.7 240.4 2.4 238.7 2.4 C 238.71 2.41 237.4 2.4 237.4 2.4 L 237.4 9.1 Z M 245.5 0.1 L 253.1 0.1 L 253.1 2.4 L 248.3 2.4 L 248.3 8.7 L 252.8 8.7 L 252.8 11.1 L 248.3 11.1 L 248.3 17.9 L 253.1 17.9 L 253.1 20.3 L 245.5 20.3 L 245.5 0.1 Z M 257.1 17.9 C 257.1 17.9 258.42 17.92 258.4 17.9 C 260.5 17.9 260.9 16.8 260.9 13.4 C 260.9 13.4 260.9 6.4 260.9 6.4 C 260.9 3.4 260.6 2.4 258.2 2.4 C 258.19 2.41 257.1 2.4 257.1 2.4 L 257.1 17.9 Z M 254.3 0.1 C 254.3 0.1 258.78 0.06 258.8 0.1 C 263.3 0.1 263.7 1.6 263.7 7.4 C 263.7 7.4 263.7 13.5 263.7 13.5 C 263.7 18.6 262.8 20.3 258.3 20.3 C 258.33 20.27 254.3 20.3 254.3 20.3 L 254.3 0.1 Z M 275.1 15.7 C 275.1 18.1 274.2 20.4 270.3 20.4 C 266.5 20.4 265.6 18.1 265.6 15.7 C 265.59 15.71 265.6 0.1 265.6 0.1 L 268.4 0.1 C 268.4 0.1 268.39 16.18 268.4 16.2 C 268.4 17.6 268.9 18.3 270.3 18.3 C 271.8 18.3 272.3 17.6 272.3 16.2 C 272.28 16.18 272.3 0.1 272.3 0.1 L 275.1 0.1 C 275.1 0.1 275.08 15.71 275.1 15.7 Z M 276.8 5.2 C 276.8 2.4 277.7 -0.1 281.5 -0.1 C 284.3 -0.1 285.6 1.3 285.6 3.6 C 285.55 3.56 285.6 5.6 285.6 5.6 L 282.9 5.6 C 282.9 5.6 282.92 4.17 282.9 4.2 C 282.9 2.9 282.5 2.1 281.3 2.1 C 279.8 2.1 279.6 3.1 279.6 5.5 C 279.6 5.5 279.6 15.5 279.6 15.5 C 279.6 17.8 280.3 18.3 281.2 18.3 C 282.2 18.3 282.9 17.5 282.9 15.8 C 282.92 15.85 282.9 14.4 282.9 14.4 L 285.6 14.4 C 285.6 14.4 285.55 16.69 285.6 16.7 C 285.6 18.8 284.7 20.4 281.4 20.4 C 277.9 20.4 276.8 18.6 276.8 15.4 C 276.8 15.4 276.8 5.2 276.8 5.2 Z M 286.9 0.1 L 294.5 0.1 L 294.5 2.4 L 289.7 2.4 L 289.7 8.7 L 294.3 8.7 L 294.3 11.1 L 289.7 11.1 L 289.7 17.9 L 294.5 17.9 L 294.5 20.3 L 286.9 20.3 L 286.9 0.1 Z M 298.5 17.9 C 298.5 17.9 299.89 17.92 299.9 17.9 C 302 17.9 302.3 16.8 302.3 13.4 C 302.3 13.4 302.3 6.4 302.3 6.4 C 302.3 3.4 302 2.4 299.7 2.4 C 299.66 2.41 298.5 2.4 298.5 2.4 L 298.5 17.9 Z M 295.7 0.1 C 295.7 0.1 300.25 0.06 300.2 0.1 C 304.8 0.1 305.1 1.6 305.1 7.4 C 305.1 7.4 305.1 13.5 305.1 13.5 C 305.1 18.6 304.2 20.3 299.8 20.3 C 299.8 20.27 295.7 20.3 295.7 20.3 L 295.7 0.1 Z M 312.3 0.1 L 316.8 0.1 L 319.4 15.5 L 319.4 15.5 L 322 0.1 L 326.3 0.1 L 326.3 20.3 L 323.7 20.3 L 323.7 2.1 L 323.7 2.1 L 320.8 20.3 L 318 20.3 L 314.9 2.1 L 314.8 2.1 L 314.8 20.3 L 312.3 20.3 L 312.3 0.1 Z M 331.1 15.6 C 331.1 17.3 331.9 18.3 333.1 18.3 C 334.2 18.3 335 17.3 335 15.6 C 335 15.6 335 5 335 5 C 335 3 334.4 2.1 333.1 2.1 C 331.8 2.1 331.1 3 331.1 5 C 331.1 5 331.1 15.6 331.1 15.6 Z M 328.3 5.2 C 328.3 2.4 329.3 -0.1 333.1 -0.1 C 336.7 -0.1 337.8 1.8 337.8 4.9 C 337.8 4.9 337.8 15.1 337.8 15.1 C 337.8 17.9 336.9 20.4 333.1 20.4 C 329.5 20.4 328.3 18.6 328.3 15.4 C 328.3 15.4 328.3 5.2 328.3 5.2 Z M 339.8 0.1 L 343.7 0.1 L 347 16.9 L 347 16.9 L 347 0.1 L 349.7 0.1 L 349.7 20.3 L 345.6 20.3 L 342.3 3 L 342.3 3 L 342.3 20.3 L 339.8 20.3 L 339.8 0.1 Z M 350.9 0.1 L 360.4 0.1 L 360.4 2.4 L 357 2.4 L 357 20.3 L 354.2 20.3 L 354.2 2.4 L 350.9 2.4 L 350.9 0.1 Z M 361.6 0.1 L 364.4 0.1 L 364.4 8.7 L 368.1 8.7 L 368.1 0.1 L 370.9 0.1 L 370.9 20.3 L 368.1 20.3 L 368.1 11.1 L 364.4 11.1 L 364.4 20.3 L 361.6 20.3 L 361.6 0.1 Z M 373 0.1 L 375.8 0.1 L 375.8 17.9 L 380.5 17.9 L 380.5 20.3 L 373 20.3 L 373 0.1 Z M 378.1 0.1 L 380.9 0.1 L 383.3 8.6 L 383.4 8.6 L 386.2 0.1 L 388.6 0.1 L 384.8 12 L 384.8 20.3 L 382 20.3 L 382 12 L 378.1 0.1 Z M 395.3 0.1 L 398.1 0.1 L 398.1 8.7 L 401.8 8.7 L 401.8 0.1 L 404.6 0.1 L 404.6 20.3 L 401.8 20.3 L 401.8 11.1 L 398.1 11.1 L 398.1 20.3 L 395.3 20.3 L 395.3 0.1 Z M 410.4 0.1 L 413.7 0.1 L 417.8 20.3 L 415 20.3 L 414.1 15.1 L 409.7 15.1 L 408.8 20.3 L 406 20.3 L 410.4 0.1 Z M 410.1 12.8 L 413.7 12.8 L 411.9 3 L 411.9 3 L 410.1 12.8 Z M 419.1 0.1 L 426.8 0.1 L 426.8 2.4 L 421.9 2.4 L 421.9 8.7 L 426.5 8.7 L 426.5 11.1 L 421.9 11.1 L 421.9 17.9 L 426.8 17.9 L 426.8 20.3 L 419.1 20.3 L 419.1 0.1 Z M 435.9 0.1 L 439.1 0.1 L 443.2 20.3 L 440.4 20.3 L 439.5 15.1 L 435.1 15.1 L 434.2 20.3 L 431.4 20.3 L 435.9 0.1 Z M 435.5 12.8 L 439.1 12.8 L 437.4 3 L 437.3 3 L 435.5 12.8 Z M 441.5 0.1 L 451 0.1 L 451 2.4 L 447.6 2.4 L 447.6 20.3 L 444.8 20.3 L 444.8 2.4 L 441.5 2.4 L 441.5 0.1 Z M 451.3 0.1 L 460.8 0.1 L 460.8 2.4 L 457.5 2.4 L 457.5 20.3 L 454.7 20.3 L 454.7 2.4 L 451.3 2.4 L 451.3 0.1 Z M 463.5 0.1 L 466.8 0.1 L 470.9 20.3 L 468.1 20.3 L 467.2 15.1 L 462.8 15.1 L 461.9 20.3 L 459.1 20.3 L 463.5 0.1 Z M 463.2 12.8 L 466.8 12.8 L 465 3 L 465 3 L 463.2 12.8 Z M 471.8 5.2 C 471.8 2.4 472.7 -0.1 476.5 -0.1 C 479.3 -0.1 480.6 1.3 480.6 3.6 C 480.57 3.56 480.6 5.6 480.6 5.6 L 477.9 5.6 C 477.9 5.6 477.93 4.17 477.9 4.2 C 477.9 2.9 477.5 2.1 476.3 2.1 C 474.9 2.1 474.6 3.1 474.6 5.5 C 474.6 5.5 474.6 15.5 474.6 15.5 C 474.6 17.8 475.3 18.3 476.2 18.3 C 477.3 18.3 477.9 17.5 477.9 15.8 C 477.93 15.85 477.9 14.4 477.9 14.4 L 480.6 14.4 C 480.6 14.4 480.57 16.69 480.6 16.7 C 480.6 18.8 479.7 20.4 476.5 20.4 C 472.9 20.4 471.8 18.6 471.8 15.4 C 471.8 15.4 471.8 5.2 471.8 5.2 Z M 481.9 0.1 L 484.7 0.1 L 484.7 9.3 L 484.8 9.3 L 489.2 0.1 L 492 0.1 L 487.3 9.5 L 492.4 20.3 L 489.2 20.3 L 484.8 10.2 L 484.7 10.2 L 484.7 20.3 L 481.9 20.3 L 481.9 0.1 Z M 493 14.4 L 495.8 14.4 C 495.8 14.4 495.83 16.07 495.8 16.1 C 495.8 17.4 496.3 18.3 497.5 18.3 C 498.9 18.3 499.3 17.2 499.3 15.9 C 499.3 14.2 499.2 13.7 496.3 10.8 C 494.5 9 493 7.4 493 4.6 C 493 1.3 494.6 -0.1 497.6 -0.1 C 499.1 -0.1 500.2 0.4 500.9 1 C 501.4 1.5 501.7 2.2 501.7 3.6 C 501.71 3.58 501.7 5.5 501.7 5.5 L 499.1 5.5 C 499.1 5.5 499.07 3.89 499.1 3.9 C 499.1 2.7 498.6 2.1 497.5 2.1 C 496.4 2.1 495.8 2.7 495.8 4.3 C 495.8 5.7 496.1 6.5 498.7 9.2 C 501.4 12 501.9 13 501.9 15.5 C 501.9 18.6 500.7 20.4 497.4 20.4 C 494.8 20.4 493 19.3 493 16.8 C 493.03 16.83 493 14.4 493 14.4 Z M 507.1 0.1 L 509.9 0.1 L 512.8 16.1 L 512.8 16.1 L 515.7 0.1 L 518.5 0.1 L 514.4 20.3 L 511.2 20.3 L 507.1 0.1 Z M 519.5 14.4 L 522.3 14.4 C 522.3 14.4 522.29 16.07 522.3 16.1 C 522.3 17.4 522.8 18.3 523.9 18.3 C 525.4 18.3 525.8 17.2 525.8 15.9 C 525.8 14.2 525.7 13.7 522.8 10.8 C 521 9 519.5 7.4 519.5 4.6 C 519.5 1.3 521 -0.1 524.1 -0.1 C 525.6 -0.1 526.7 0.4 527.4 1 C 527.8 1.5 528.2 2.2 528.2 3.6 C 528.17 3.58 528.2 5.5 528.2 5.5 L 525.5 5.5 C 525.5 5.5 525.53 3.89 525.5 3.9 C 525.5 2.7 525.1 2.1 524 2.1 C 522.8 2.1 522.3 2.7 522.3 4.3 C 522.3 5.7 522.6 6.5 525.1 9.2 C 527.9 12 528.4 13 528.4 15.5 C 528.4 18.6 527.2 20.4 523.8 20.4 C 521.3 20.4 519.5 19.3 519.5 16.8 C 519.49 16.83 519.5 14.4 519.5 14.4 Z M 530.1 17 L 533.4 17 L 533.4 20.3 L 530.1 20.3 L 530.1 17 Z M 541.8 9.1 C 541.8 9.1 543.29 9.13 543.3 9.1 C 545.2 9.1 545.4 8.8 545.4 5.8 C 545.4 2.7 545.2 2.4 543.3 2.4 C 543.29 2.41 541.8 2.4 541.8 2.4 L 541.8 9.1 Z M 539 0.1 C 539 0.1 543.65 0.06 543.6 0.1 C 547.5 0.1 548.2 1.1 548.2 5.8 C 548.2 10.4 547.5 11.5 543.6 11.5 C 543.65 11.48 541.8 11.5 541.8 11.5 L 541.8 20.3 L 539 20.3 L 539 0.1 Z M 549.9 0.1 L 552.7 0.1 L 552.7 17.9 L 557.4 17.9 L 557.4 20.3 L 549.9 20.3 L 549.9 0.1 Z M 562.5 0.1 L 565.7 0.1 L 569.8 20.3 L 567 20.3 L 566.1 15.1 L 561.7 15.1 L 560.8 20.3 L 558 20.3 L 562.5 0.1 Z M 562.2 12.8 L 565.7 12.8 L 564 3 L 563.9 3 L 562.2 12.8 Z M 570.7 5.2 C 570.7 2.4 571.6 -0.1 575.5 -0.1 C 578.2 -0.1 579.5 1.3 579.5 3.6 C 579.52 3.56 579.5 5.6 579.5 5.6 L 576.9 5.6 C 576.9 5.6 576.88 4.17 576.9 4.2 C 576.9 2.9 576.4 2.1 575.3 2.1 C 573.8 2.1 573.5 3.1 573.5 5.5 C 573.5 5.5 573.5 15.5 573.5 15.5 C 573.5 17.8 574.3 18.3 575.2 18.3 C 576.2 18.3 576.9 17.5 576.9 15.8 C 576.88 15.85 576.9 14.4 576.9 14.4 L 579.5 14.4 C 579.5 14.4 579.52 16.69 579.5 16.7 C 579.5 18.8 578.6 20.4 575.4 20.4 C 571.9 20.4 570.7 18.6 570.7 15.4 C 570.7 15.4 570.7 5.2 570.7 5.2 Z M 580.9 0.1 L 588.5 0.1 L 588.5 2.4 L 583.7 2.4 L 583.7 8.7 L 588.2 8.7 L 588.2 11.1 L 583.7 11.1 L 583.7 17.9 L 588.5 17.9 L 588.5 20.3 L 580.9 20.3 L 580.9 0.1 Z M 589.7 0.1 C 589.7 0.1 594.58 0.06 594.6 0.1 C 598 0.1 598.6 1.3 598.6 5 C 598.6 8.9 598 9.6 596.1 9.8 C 596.1 9.8 596.1 9.9 596.1 9.9 C 598.3 10.3 598.8 11.1 598.8 14.5 C 598.8 18.9 598.2 20.3 594.1 20.3 C 594.1 20.27 589.7 20.3 589.7 20.3 L 589.7 0.1 Z M 592.5 18.1 C 592.5 18.1 594.24 18.09 594.2 18.1 C 595.8 18.1 596.1 17.6 596.1 14.4 C 596.1 11.4 595.9 10.9 594.3 10.9 C 594.33 10.92 592.5 10.9 592.5 10.9 L 592.5 18.1 Z M 592.5 8.7 C 592.5 8.7 594.13 8.74 594.1 8.7 C 595.8 8.7 596 8.4 596 5.1 C 596 2.8 595.6 2.2 593.8 2.2 C 593.82 2.24 592.5 2.2 592.5 2.2 L 592.5 8.7 Z M 603.3 15.6 C 603.3 17.3 604.1 18.3 605.2 18.3 C 606.4 18.3 607.2 17.3 607.2 15.6 C 607.2 15.6 607.2 5 607.2 5 C 607.2 3 606.5 2.1 605.2 2.1 C 604 2.1 603.3 3 603.3 5 C 603.3 5 603.3 15.6 603.3 15.6 Z M 600.5 5.2 C 600.5 2.4 601.4 -0.1 605.2 -0.1 C 608.9 -0.1 610 1.8 610 4.9 C 610 4.9 610 15.1 610 15.1 C 610 17.9 609.1 20.4 605.2 20.4 C 601.7 20.4 600.5 18.6 600.5 15.4 C 600.5 15.4 600.5 5.2 600.5 5.2 Z M 613.6 1.4 C 613.6 1.4 613.54 1.38 613.5 1.4 C 613.2 1.8 612.9 2.1 612.3 2.6 C 612.3 2.6 612.3 1.1 612.3 1.1 C 612.6 0.8 613.5 -0.3 613.7 -0.8 C 613.74 -0.84 615.1 -0.8 615.1 -0.8 L 615.1 10.9 L 613.6 10.9 L 613.6 1.4 Z M 617.9 9 L 619.6 9 L 618.7 11.9 L 617.5 11.9 L 617.9 9 Z M 620.6 9.4 C 620.6 9.4 623.02 4.94 623 4.9 C 623.7 3.7 623.9 2.9 623.9 1.6 C 623.9 0.5 623.6 0.2 623.1 0.2 C 622.5 0.2 622.3 0.6 622.3 1.4 C 622.34 1.43 622.3 2.2 622.3 2.2 L 620.8 2.2 C 620.8 2.2 620.8 1.28 620.8 1.3 C 620.8 -0.3 621.3 -0.9 623.1 -0.9 C 625 -0.9 625.5 -0.3 625.5 1.7 C 625.5 3 625.4 3.7 624.7 5 C 624.72 4.97 622.3 9.6 622.3 9.6 L 625.6 9.6 L 625.6 10.9 L 620.6 10.9 L 620.6 9.4 Z " stroke="none" fill="#003c71"/>  </g></svg>