<?xml version="1.0" standalone="no"?><!DOCTYPE svg PUBLIC "-//W3C//DTD SVG 1.1//EN" "http://www.w3.org/Graphics/SVG/1.1/DTD/svg11.dtd"><svg xmlns="http://www.w3.org/2000/svg" version="1.1" width="152px" height="39px" viewBox="0 -1 152 39" style="top:-1px">  <desc>Qol</desc>  <defs/>  <g id="Polygon191144">    <path d="M 67.9 19.5 C 67.9 20.6 68.4 21.2 69.1 21.2 C 69.9 21.2 70.4 20.6 70.4 19.5 C 70.4 19.5 70.4 12.7 70.4 12.7 C 70.4 11.4 69.9 10.8 69.1 10.8 C 68.3 10.8 67.9 11.4 67.9 12.7 C 67.9 12.7 67.9 19.5 67.9 19.5 Z M 66.1 12.8 C 66.1 11 66.7 9.4 69.1 9.4 C 71.4 9.4 72.2 10.6 72.2 12.6 C 72.2 12.6 72.2 18.8 72.2 18.8 C 72.2 19.9 71.9 20.9 71.4 21.4 C 71.4 21.4 71.5 21.4 71.5 21.4 C 71.8 21.3 72.4 21.2 73.2 21.2 C 73.2 21.2 73.2 22.5 73.2 22.5 C 71.8 22.5 69.9 22.6 69.1 22.6 C 66.8 22.6 66.1 21.4 66.1 19.4 C 66.1 19.4 66.1 12.8 66.1 12.8 Z M 75.5 19.5 C 75.5 20.6 76.1 21.2 76.8 21.2 C 77.5 21.2 78 20.6 78 19.5 C 78 19.5 78 12.7 78 12.7 C 78 11.4 77.6 10.8 76.8 10.8 C 76 10.8 75.5 11.4 75.5 12.7 C 75.5 12.7 75.5 19.5 75.5 19.5 Z M 73.7 12.8 C 73.7 11 74.3 9.4 76.8 9.4 C 79.1 9.4 79.8 10.6 79.8 12.6 C 79.8 12.6 79.8 19.2 79.8 19.2 C 79.8 21 79.3 22.6 76.8 22.6 C 74.5 22.6 73.7 21.4 73.7 19.4 C 73.7 19.4 73.7 12.8 73.7 12.8 Z M 81.1 9.5 L 82.9 9.5 L 82.9 21 L 86 21 L 86 22.5 L 81.1 22.5 L 81.1 9.5 Z " stroke="none" fill="#fff"/>  </g></svg>