<?xml version="1.0" standalone="no"?><!DOCTYPE svg PUBLIC "-//W3C//DTD SVG 1.1//EN" "http://www.w3.org/Graphics/SVG/1.1/DTD/svg11.dtd"><svg xmlns="http://www.w3.org/2000/svg" version="1.1" width="195px" height="35.9px" viewBox="0 -5 195 35.9" style="top:-5px">  <desc>03/2021 02/2023*</desc>  <defs/>  <g id="Polygon199220">    <path d="M 7.6 6.7 C 7.6 10.6 7.3 13.1 4 13.1 C 0.6 13.1 0.4 10.6 0.4 6.7 C 0.4 1.9 0.9 0.3 4 0.3 C 7 0.3 7.6 1.9 7.6 6.7 Z M 2.9 6.7 C 2.9 10.5 3 11.3 4 11.3 C 5 11.3 5.1 10.5 5.1 6.7 C 5.1 2.9 5 2.1 4 2.1 C 2.9 2.1 2.9 2.9 2.9 6.7 Z M 8.3 3.6 C 8.3 2.3 8.6 1.5 9.1 1 C 9.7 0.5 10.6 0.3 11.9 0.3 C 14.2 0.3 15.3 1.3 15.3 3.6 C 15.3 4.8 14.9 6.2 13.6 6.4 C 13.6 6.4 13.6 6.4 13.6 6.4 C 15.2 6.7 15.5 8 15.5 9.5 C 15.5 12 14.1 13.1 11.6 13.1 C 9.1 13.1 8.1 12.2 8.1 9.6 C 8.1 9.6 10.7 9.6 10.7 9.6 C 10.7 10.4 10.6 11.3 11.7 11.3 C 12.9 11.3 13 10.2 13 9.3 C 13 7.5 12.4 7.4 10.6 7.4 C 10.6 7.4 10.6 5.4 10.6 5.4 C 12.3 5.5 12.8 5.3 12.8 3.6 C 12.8 2.9 12.6 2.1 11.8 2.1 C 10.9 2.1 10.8 2.9 10.8 3.6 C 10.8 3.6 8.3 3.6 8.3 3.6 Z M 15.3 14.6 L 19.6 0 L 21.4 0 L 17.1 14.6 L 15.3 14.6 Z M 21 12.9 C 21 12.9 21.05 10.74 21 10.7 C 25 5.5 25.8 4.9 25.8 3.3 C 25.8 2.7 25.6 2.1 24.9 2.1 C 23.8 2.1 23.8 3.1 23.8 3.9 C 23.8 3.9 21.2 3.9 21.2 3.9 C 21.1 1.6 22.4 0.3 24.7 0.3 C 26.8 0.3 28.3 1.2 28.3 3.5 C 28.3 6.3 25 9.5 23.7 11 C 23.69 11.01 28.4 11 28.4 11 L 28.4 12.9 L 21 12.9 Z M 36.3 6.7 C 36.3 10.6 36.1 13.1 32.7 13.1 C 29.4 13.1 29.1 10.6 29.1 6.7 C 29.1 1.9 29.7 0.3 32.7 0.3 C 35.8 0.3 36.3 1.9 36.3 6.7 Z M 31.6 6.7 C 31.6 10.5 31.7 11.3 32.7 11.3 C 33.7 11.3 33.8 10.5 33.8 6.7 C 33.8 2.9 33.8 2.1 32.7 2.1 C 31.7 2.1 31.6 2.9 31.6 6.7 Z M 36.9 12.9 C 36.9 12.9 36.91 10.74 36.9 10.7 C 40.8 5.5 41.7 4.9 41.7 3.3 C 41.7 2.7 41.4 2.1 40.7 2.1 C 39.7 2.1 39.6 3.1 39.6 3.9 C 39.6 3.9 37.1 3.9 37.1 3.9 C 36.9 1.6 38.2 0.3 40.5 0.3 C 42.7 0.3 44.2 1.2 44.2 3.5 C 44.2 6.3 40.9 9.5 39.6 11 C 39.55 11.01 44.3 11 44.3 11 L 44.3 12.9 L 36.9 12.9 Z M 45.5 2.4 C 46.4 1.9 47.3 1.3 47.9 0.5 C 47.91 0.46 50.3 0.5 50.3 0.5 L 50.3 12.9 L 47.6 12.9 C 47.6 12.9 47.61 3.34 47.6 3.3 C 47 3.9 46.2 4.3 45.5 4.7 C 45.5 4.7 45.5 2.4 45.5 2.4 Z M 61.7 7.2 L 61.7 9 L 57.3 9 L 57.3 7.2 L 61.7 7.2 Z M 74 6.7 C 74 10.6 73.8 13.1 70.4 13.1 C 67 13.1 66.8 10.6 66.8 6.7 C 66.8 1.9 67.3 0.3 70.4 0.3 C 73.5 0.3 74 1.9 74 6.7 Z M 69.3 6.7 C 69.3 10.5 69.4 11.3 70.4 11.3 C 71.4 11.3 71.5 10.5 71.5 6.7 C 71.5 2.9 71.5 2.1 70.4 2.1 C 69.3 2.1 69.3 2.9 69.3 6.7 Z M 74.6 12.9 C 74.6 12.9 74.59 10.74 74.6 10.7 C 78.5 5.5 79.3 4.9 79.3 3.3 C 79.3 2.7 79.1 2.1 78.4 2.1 C 77.4 2.1 77.3 3.1 77.3 3.9 C 77.3 3.9 74.8 3.9 74.8 3.9 C 74.6 1.6 75.9 0.3 78.2 0.3 C 80.4 0.3 81.9 1.2 81.9 3.5 C 81.9 6.3 78.6 9.5 77.2 11 C 77.23 11.01 82 11 82 11 L 82 12.9 L 74.6 12.9 Z M 81.7 14.6 L 86 0 L 87.8 0 L 83.6 14.6 L 81.7 14.6 Z M 87.5 12.9 C 87.5 12.9 87.48 10.74 87.5 10.7 C 91.4 5.5 92.2 4.9 92.2 3.3 C 92.2 2.7 92 2.1 91.3 2.1 C 90.3 2.1 90.2 3.1 90.2 3.9 C 90.2 3.9 87.7 3.9 87.7 3.9 C 87.5 1.6 88.8 0.3 91.1 0.3 C 93.3 0.3 94.8 1.2 94.8 3.5 C 94.8 6.3 91.5 9.5 90.1 11 C 90.13 11.01 94.9 11 94.9 11 L 94.9 12.9 L 87.5 12.9 Z M 102.8 6.7 C 102.8 10.6 102.5 13.1 99.2 13.1 C 95.8 13.1 95.6 10.6 95.6 6.7 C 95.6 1.9 96.1 0.3 99.2 0.3 C 102.2 0.3 102.8 1.9 102.8 6.7 Z M 98.1 6.7 C 98.1 10.5 98.2 11.3 99.2 11.3 C 100.2 11.3 100.3 10.5 100.3 6.7 C 100.3 2.9 100.2 2.1 99.2 2.1 C 98.1 2.1 98.1 2.9 98.1 6.7 Z M 103.3 12.9 C 103.3 12.9 103.35 10.74 103.3 10.7 C 107.3 5.5 108.1 4.9 108.1 3.3 C 108.1 2.7 107.9 2.1 107.2 2.1 C 106.1 2.1 106.1 3.1 106.1 3.9 C 106.1 3.9 103.5 3.9 103.5 3.9 C 103.4 1.6 104.7 0.3 107 0.3 C 109.1 0.3 110.6 1.2 110.6 3.5 C 110.6 6.3 107.4 9.5 106 11 C 105.99 11.01 110.7 11 110.7 11 L 110.7 12.9 L 103.3 12.9 Z M 111.4 3.6 C 111.4 2.3 111.7 1.5 112.3 1 C 112.9 0.5 113.7 0.3 115 0.3 C 117.3 0.3 118.4 1.3 118.4 3.6 C 118.4 4.8 118.1 6.2 116.7 6.4 C 116.7 6.4 116.7 6.4 116.7 6.4 C 118.3 6.7 118.6 8 118.6 9.5 C 118.6 12 117.2 13.1 114.7 13.1 C 112.2 13.1 111.3 12.2 111.3 9.6 C 111.3 9.6 113.8 9.6 113.8 9.6 C 113.8 10.4 113.8 11.3 114.9 11.3 C 116 11.3 116.1 10.2 116.1 9.3 C 116.1 7.5 115.5 7.4 113.7 7.4 C 113.7 7.4 113.7 5.4 113.7 5.4 C 115.4 5.5 115.9 5.3 115.9 3.6 C 115.9 2.9 115.8 2.1 114.9 2.1 C 114 2.1 113.9 2.9 113.9 3.6 C 113.9 3.6 111.4 3.6 111.4 3.6 Z M 120.7 3.3 L 119.8 2.8 L 120.8 1.6 L 119.3 1.8 L 119.3 0.8 L 120.8 0.9 L 119.9 -0.2 L 120.8 -0.7 L 121.3 0.6 L 121.8 -0.7 L 122.7 -0.2 L 121.9 0.9 L 123.3 0.8 L 123.3 1.8 L 121.9 1.6 L 122.8 2.8 L 121.9 3.3 L 121.3 1.9 L 120.7 3.3 Z " stroke="none" fill="#00b398"/>  </g></svg>