<?xml version="1.0" standalone="no"?><!DOCTYPE svg PUBLIC "-//W3C//DTD SVG 1.1//EN" "http://www.w3.org/Graphics/SVG/1.1/DTD/svg11.dtd"><svg xmlns="http://www.w3.org/2000/svg" version="1.1" width="127.4px" height="32.2px" viewBox="0 -6 127.4 32.2" style="top:-6px">  <desc>SGART: Patient</desc>  <defs/>  <g id="Polygon199525">    <path d="M 4.9 14 C 1.4 14 0.7 11.9 0.9 9.5 C 0.9 9.5 3.7 9.5 3.7 9.5 C 3.7 10.8 3.8 11.9 5.4 11.9 C 6.3 11.9 6.8 11.3 6.8 10.4 C 6.8 7.9 1 7.8 1 3.7 C 1 1.5 2.1 -0.2 5.5 -0.2 C 8.3 -0.2 9.7 1.1 9.5 3.9 C 9.5 3.9 6.7 3.9 6.7 3.9 C 6.7 2.9 6.6 1.9 5.4 1.9 C 4.5 1.9 3.9 2.4 3.9 3.3 C 3.9 5.9 9.7 5.7 9.7 10 C 9.7 13.6 7.1 14 4.9 14 Z M 18 4.3 C 18 3 17.8 1.9 16.3 1.9 C 14.5 1.9 14.5 4.3 14.5 6.9 C 14.5 11.2 15 12 16.6 12 C 17.1 12 17.6 11.9 18 11.7 C 18.01 11.72 18 8.7 18 8.7 L 16.5 8.7 L 16.5 6.6 L 20.9 6.6 C 20.9 6.6 20.88 13.53 20.9 13.5 C 20.1 13.7 18.1 14 17 14 C 12.2 14 11.6 12 11.6 6.8 C 11.6 3.3 11.8 -0.2 16.5 -0.2 C 19.3 -0.2 21.1 1.4 20.9 4.3 C 20.9 4.3 18 4.3 18 4.3 Z M 22.3 13.8 L 26.1 0 L 29.9 0 L 33.6 13.8 L 30.6 13.8 L 29.8 10.7 L 25.9 10.7 L 25.2 13.8 L 22.3 13.8 Z M 27.9 2.7 L 27.8 2.7 L 26.5 8.6 L 29.2 8.6 L 27.9 2.7 Z M 37.8 6 C 37.8 6 39.06 5.97 39.1 6 C 40.2 6 40.5 4.8 40.5 4 C 40.5 2.6 40 2.1 39.1 2.1 C 39.06 2.15 37.8 2.1 37.8 2.1 L 37.8 6 Z M 37.8 13.8 L 34.9 13.8 L 34.9 0 C 34.9 0 40.22 0.04 40.2 0 C 42.2 0 43.4 1.3 43.4 3.6 C 43.4 5.4 42.7 6.7 40.9 7 C 40.9 7 40.9 7 40.9 7 C 41.5 7.1 43.4 7.3 43.4 9.7 C 43.4 10.6 43.4 13.2 43.7 13.8 C 43.7 13.8 40.9 13.8 40.9 13.8 C 40.5 12.9 40.6 12 40.6 11.1 C 40.6 9.5 40.7 8.1 38.5 8.1 C 38.53 8.07 37.8 8.1 37.8 8.1 L 37.8 13.8 Z M 53.7 0 L 53.7 2.3 L 50.5 2.3 L 50.5 13.8 L 47.7 13.8 L 47.7 2.3 L 44.5 2.3 L 44.5 0 L 53.7 0 Z M 55.7 4.2 L 55.7 6.7 L 53.4 6.7 L 53.4 4.2 L 55.7 4.2 Z M 55.7 13.8 L 53.4 13.8 L 53.4 11.2 L 55.7 11.2 L 55.7 13.8 Z M 65 6.1 C 65 6.1 66.56 6.06 66.6 6.1 C 67.4 6.1 68 5.1 68 4.2 C 68 3.1 67.7 2.1 66.4 2.1 C 66.4 2.15 65 2.1 65 2.1 L 65 6.1 Z M 62.1 0 C 62.1 0 67.26 0.04 67.3 0 C 69.9 0 70.9 1.6 70.9 4.1 C 70.9 5.7 70.5 8.2 67.1 8.2 C 67.09 8.17 65 8.2 65 8.2 L 65 13.8 L 62.1 13.8 L 62.1 0 Z M 74.8 10.8 C 74.8 11.5 75 12.3 75.8 12.3 C 77.4 12.3 77.2 10.2 77.2 9.1 C 75.8 9.2 74.8 9.1 74.8 10.8 Z M 79.8 12 C 79.8 12.6 79.9 13.2 79.9 13.8 C 79.91 13.76 77.4 13.8 77.4 13.8 L 77.3 12.5 C 77.3 12.5 77.27 12.48 77.3 12.5 C 76.7 13.5 75.9 13.9 74.8 13.9 C 72.9 13.9 72.2 12.6 72.2 10.9 C 72.2 7.7 74.7 7.6 77.2 7.6 C 77.2 7.6 77.2 6.9 77.2 6.9 C 77.2 6.1 77 5.5 76.1 5.5 C 75.1 5.5 75.1 6.2 75.1 6.9 C 75.1 6.9 72.4 6.9 72.4 6.9 C 72.4 5.8 72.8 5 73.4 4.6 C 74 4.1 74.9 4 75.9 4 C 79.3 4 79.8 5.4 79.8 7.2 C 79.8 7.2 79.8 12 79.8 12 Z M 80.9 4.2 L 82 4.2 L 82 2.6 L 84.7 1.4 L 84.7 4.2 L 86.1 4.2 L 86.1 5.8 L 84.7 5.8 C 84.7 5.8 84.68 10.94 84.7 10.9 C 84.7 11.7 84.7 12.1 85.5 12.1 C 85.7 12.1 85.9 12.1 86 12.1 C 86 12.1 86 13.8 86 13.8 C 85.7 13.8 85.3 13.9 84.6 13.9 C 82.3 13.9 82 12.3 82 11.7 C 82 11.72 82 5.8 82 5.8 L 80.9 5.8 L 80.9 4.2 Z M 90.2 13.8 L 87.5 13.8 L 87.5 4.2 L 90.2 4.2 L 90.2 13.8 Z M 90.2 0 L 90.2 2.1 L 87.5 2.1 L 87.5 0 L 90.2 0 Z M 97.5 7.9 C 97.5 7 97.5 5.6 96.3 5.6 C 95 5.6 95 7.1 95 7.9 C 95 7.9 97.5 7.9 97.5 7.9 Z M 95 9.4 C 95 10.5 95.1 12.2 96.3 12.2 C 97.2 12.2 97.4 11.3 97.4 10.5 C 97.4 10.5 100.1 10.5 100.1 10.5 C 100.1 11.6 99.7 12.4 99.1 13 C 98.5 13.6 97.5 13.9 96.3 13.9 C 92.8 13.9 92.3 11.8 92.3 8.8 C 92.3 6.2 92.7 4 96.3 4 C 99.9 4 100.3 6.3 100.2 9.4 C 100.2 9.4 95 9.4 95 9.4 Z M 104.7 5.1 C 104.7 5.1 104.78 5.13 104.8 5.1 C 105.1 4.7 105.4 4.4 105.7 4.2 C 106.1 4 106.6 4 107 4 C 108.3 4 109.4 4.7 109.4 6.1 C 109.44 6.06 109.4 13.8 109.4 13.8 L 106.8 13.8 C 106.8 13.8 106.76 7.14 106.8 7.1 C 106.8 6.3 106.6 5.6 105.8 5.6 C 104.9 5.6 104.7 6.3 104.7 7.1 C 104.75 7.14 104.7 13.8 104.7 13.8 L 102.1 13.8 L 102.1 4.2 L 104.7 4.2 L 104.7 5.1 Z M 110.5 4.2 L 111.6 4.2 L 111.6 2.6 L 114.2 1.4 L 114.2 4.2 L 115.6 4.2 L 115.6 5.8 L 114.2 5.8 C 114.2 5.8 114.25 10.94 114.2 10.9 C 114.2 11.7 114.2 12.1 115.1 12.1 C 115.3 12.1 115.4 12.1 115.6 12.1 C 115.6 12.1 115.6 13.8 115.6 13.8 C 115.2 13.8 114.8 13.9 114.2 13.9 C 111.9 13.9 111.6 12.3 111.6 11.7 C 111.57 11.72 111.6 5.8 111.6 5.8 L 110.5 5.8 L 110.5 4.2 Z " stroke="none" fill="#003c71"/>  </g></svg>