<?xml version="1.0" standalone="no"?><!DOCTYPE svg PUBLIC "-//W3C//DTD SVG 1.1//EN" "http://www.w3.org/Graphics/SVG/1.1/DTD/svg11.dtd"><svg xmlns="http://www.w3.org/2000/svg" version="1.1" width="393px" height="59.7px" viewBox="0 -1 393 59.7" style="top:-1px">  <desc>Limited evidence of emergence of anti drug antibodies (ADAs), with no apparent impact on safety or efficacy†</desc>  <defs/>  <g id="Polygon201262">    <path d="M 3.7 30.1 C 3.2 32.1 2.6 34.7 2.6 37.4 C 2.6 40.4 3.3 42.8 3.7 45 C 3.7 45 2.4 45 2.4 45 C 1.6 42.6 0.6 39.9 0.6 37.4 C 0.6 34.8 1.7 31.8 2.4 30.1 C 2.4 30.1 3.7 30.1 3.7 30.1 Z M 4.9 42.9 L 8.3 30.6 L 11.6 30.6 L 15 42.9 L 12.3 42.9 L 11.6 40.2 L 8.1 40.2 L 7.4 42.9 L 4.9 42.9 Z M 9.8 33 L 9.8 33 L 8.6 38.3 L 11 38.3 L 9.8 33 Z M 18.8 41 C 18.8 41 20.04 41.02 20 41 C 21.6 41 21.9 39.8 21.9 36.8 C 21.9 34.5 21.9 32.5 20.1 32.5 C 20.13 32.52 18.8 32.5 18.8 32.5 L 18.8 41 Z M 16.2 30.6 C 16.2 30.6 20.52 30.63 20.5 30.6 C 23.9 30.6 24.5 32.9 24.5 36.7 C 24.5 38.6 24.8 42.9 20.4 42.9 C 20.42 42.91 16.2 42.9 16.2 42.9 L 16.2 30.6 Z M 25.6 42.9 L 29 30.6 L 32.4 30.6 L 35.8 42.9 L 33 42.9 L 32.4 40.2 L 28.9 40.2 L 28.2 42.9 L 25.6 42.9 Z M 30.6 33 L 30.5 33 L 29.4 38.3 L 31.8 38.3 L 30.6 33 Z M 38.7 40.2 C 38.7 40.5 38.7 40.9 38.8 41.2 C 39 41.5 39.2 41.6 39.7 41.6 C 40.2 41.6 40.6 41.3 40.6 40.7 C 40.6 38.9 36.4 39.3 36.4 36.6 C 36.4 34.7 38.2 34.2 39.8 34.2 C 41.4 34.2 42.9 34.9 42.7 36.8 C 42.7 36.8 40.4 36.8 40.4 36.8 C 40.4 36.2 40.3 35.8 40.2 35.7 C 40 35.5 39.8 35.5 39.5 35.5 C 39 35.5 38.7 35.8 38.7 36.4 C 38.7 37.8 42.9 37.7 42.9 40.5 C 42.9 42 41.7 43.1 39.7 43.1 C 37.6 43.1 36.2 42.6 36.4 40.2 C 36.4 40.2 38.7 40.2 38.7 40.2 Z M 44.5 45 C 44.9 42.9 45.6 40.3 45.6 37.6 C 45.6 34.6 44.9 32.2 44.5 30.1 C 44.5 30.1 45.8 30.1 45.8 30.1 C 46.6 32.5 47.6 35.2 47.6 37.7 C 47.6 40.2 46.5 43.2 45.8 45 C 45.8 45 44.5 45 44.5 45 Z M 49.3 40.7 L 51.5 40.7 L 50.2 44.6 L 48.6 44.6 L 49.3 40.7 Z M 55.9 34.3 L 58.3 34.3 L 59.4 40.8 L 59.5 40.8 L 61.1 34.3 L 63.6 34.3 L 65.1 40.8 L 65.2 40.8 L 66.5 34.3 L 68.7 34.3 L 66.4 42.9 L 63.9 42.9 L 62.4 37 L 62.3 37 L 60.6 42.9 L 58 42.9 L 55.9 34.3 Z M 72.5 42.9 L 70.1 42.9 L 70.1 34.3 L 72.5 34.3 L 72.5 42.9 Z M 72.5 30.6 L 72.5 32.5 L 70.1 32.5 L 70.1 30.6 L 72.5 30.6 Z M 73.6 34.3 L 74.6 34.3 L 74.6 33 L 77 31.9 L 77 34.3 L 78.2 34.3 L 78.2 35.8 L 77 35.8 C 77 35.8 77.01 40.39 77 40.4 C 77 41 77 41.5 77.8 41.5 C 77.9 41.5 78.1 41.5 78.2 41.4 C 78.2 41.4 78.2 42.9 78.2 42.9 C 77.9 42.9 77.5 43 77 43 C 74.9 43 74.6 41.6 74.6 41.1 C 74.61 41.09 74.6 35.8 74.6 35.8 L 73.6 35.8 L 73.6 34.3 Z M 83.5 42.9 C 83.5 42.9 83.54 36.99 83.5 37 C 83.5 36.2 83.4 35.6 82.6 35.6 C 81.9 35.6 81.7 36.2 81.7 37 C 81.73 36.99 81.7 42.9 81.7 42.9 L 79.3 42.9 L 79.3 30.6 L 81.7 30.6 L 81.7 35.2 C 81.7 35.2 81.77 35.19 81.8 35.2 C 82 34.8 82.3 34.5 82.6 34.4 C 83 34.2 83.3 34.2 83.8 34.2 C 84.9 34.2 85.9 34.8 85.9 36 C 85.93 36.02 85.9 42.9 85.9 42.9 L 83.5 42.9 Z M 94 35.2 C 94 35.2 94.04 35.19 94 35.2 C 94.3 34.8 94.6 34.5 94.9 34.4 C 95.2 34.2 95.6 34.2 96.1 34.2 C 97.2 34.2 98.2 34.8 98.2 36 C 98.21 36.02 98.2 42.9 98.2 42.9 L 95.8 42.9 C 95.8 42.9 95.81 36.99 95.8 37 C 95.8 36.2 95.7 35.6 94.9 35.6 C 94.1 35.6 94 36.2 94 37 C 94.01 36.99 94 42.9 94 42.9 L 91.6 42.9 L 91.6 34.3 L 94 34.3 L 94 35.2 Z M 104.5 38.4 C 104.5 36.6 104.4 35.7 103.4 35.7 C 102.4 35.7 102.3 36.6 102.3 38.4 C 102.3 41 102.5 41.5 103.4 41.5 C 104.3 41.5 104.5 41 104.5 38.4 Z M 99.9 38.5 C 99.9 36.2 100.2 34.2 103.4 34.2 C 106.6 34.2 106.9 36.2 106.9 38.5 C 106.9 41.2 106.5 43.1 103.4 43.1 C 100.3 43.1 99.9 41.2 99.9 38.5 Z M 114.5 40.2 C 114.5 40.9 114.6 41.6 115.4 41.6 C 116.8 41.6 116.6 39.7 116.6 38.8 C 115.4 38.8 114.5 38.7 114.5 40.2 Z M 118.9 41.3 C 118.9 41.8 119 42.4 119 42.9 C 119.02 42.91 116.8 42.9 116.8 42.9 L 116.7 41.8 C 116.7 41.8 116.65 41.77 116.7 41.8 C 116.1 42.7 115.4 43.1 114.4 43.1 C 112.7 43.1 112.1 41.8 112.1 40.3 C 112.1 37.5 114.3 37.4 116.6 37.4 C 116.6 37.4 116.6 36.8 116.6 36.8 C 116.6 36 116.4 35.5 115.6 35.5 C 114.7 35.5 114.7 36.1 114.7 36.8 C 114.7 36.8 112.3 36.8 112.3 36.8 C 112.3 35.8 112.7 35.1 113.2 34.7 C 113.8 34.3 114.5 34.2 115.5 34.2 C 118.5 34.2 118.9 35.5 118.9 37 C 118.9 37 118.9 41.3 118.9 41.3 Z M 125.3 38.5 C 125.3 36.8 125.3 35.6 124.3 35.6 C 123.3 35.6 123.3 36.8 123.3 38.5 C 123.3 40.7 123.4 41.6 124.3 41.6 C 125.1 41.6 125.3 40.7 125.3 38.5 Z M 123.2 34.3 L 123.2 35.3 C 123.2 35.3 123.2 35.27 123.2 35.3 C 123.6 34.4 124.3 34.2 125.2 34.2 C 127.7 34.2 127.6 36.9 127.6 38.7 C 127.6 40.4 127.7 43.1 125.3 43.1 C 124.4 43.1 123.8 42.8 123.3 42.1 C 123.32 42.09 123.3 42.1 123.3 42.1 L 123.3 46.6 L 120.9 46.6 L 120.9 34.3 L 123.2 34.3 Z M 133.8 38.5 C 133.8 36.8 133.8 35.6 132.8 35.6 C 131.8 35.6 131.8 36.8 131.8 38.5 C 131.8 40.7 131.9 41.6 132.8 41.6 C 133.6 41.6 133.8 40.7 133.8 38.5 Z M 131.7 34.3 L 131.7 35.3 C 131.7 35.3 131.7 35.27 131.7 35.3 C 132.1 34.4 132.8 34.2 133.7 34.2 C 136.2 34.2 136.1 36.9 136.1 38.7 C 136.1 40.4 136.2 43.1 133.8 43.1 C 132.9 43.1 132.3 42.8 131.8 42.1 C 131.82 42.09 131.8 42.1 131.8 42.1 L 131.8 46.6 L 129.4 46.6 L 129.4 34.3 L 131.7 34.3 Z M 140 40.2 C 140 40.9 140.1 41.6 140.9 41.6 C 142.3 41.6 142.1 39.7 142.1 38.8 C 140.9 38.8 140 38.7 140 40.2 Z M 144.4 41.3 C 144.4 41.8 144.5 42.4 144.5 42.9 C 144.52 42.91 142.3 42.9 142.3 42.9 L 142.2 41.8 C 142.2 41.8 142.15 41.77 142.2 41.8 C 141.6 42.7 140.9 43.1 139.9 43.1 C 138.2 43.1 137.6 41.8 137.6 40.3 C 137.6 37.5 139.8 37.4 142.1 37.4 C 142.1 37.4 142.1 36.8 142.1 36.8 C 142.1 36 141.9 35.5 141.1 35.5 C 140.2 35.5 140.2 36.1 140.2 36.8 C 140.2 36.8 137.8 36.8 137.8 36.8 C 137.8 35.8 138.2 35.1 138.7 34.7 C 139.3 34.3 140 34.2 141 34.2 C 144 34.2 144.4 35.5 144.4 37 C 144.4 37 144.4 41.3 144.4 41.3 Z M 148.7 34.3 L 148.7 35.4 C 148.7 35.4 148.7 35.43 148.7 35.4 C 149.1 34.4 150 34.2 150.9 34.2 C 150.9 34.2 150.9 36.3 150.9 36.3 C 148.8 36.2 148.8 37.4 148.8 38.2 C 148.78 38.23 148.8 42.9 148.8 42.9 L 146.4 42.9 L 146.4 34.3 L 148.7 34.3 Z M 156.4 37.7 C 156.4 36.8 156.5 35.6 155.3 35.6 C 154.2 35.6 154.3 36.9 154.3 37.7 C 154.3 37.7 156.4 37.7 156.4 37.7 Z M 154.3 39 C 154.3 40 154.3 41.5 155.3 41.5 C 156.2 41.5 156.4 40.7 156.4 40 C 156.4 40 158.8 40 158.8 40 C 158.8 41 158.5 41.7 157.9 42.2 C 157.3 42.8 156.5 43.1 155.3 43.1 C 152.3 43.1 151.8 41.2 151.8 38.5 C 151.8 36.2 152.2 34.2 155.3 34.2 C 158.6 34.2 158.9 36.2 158.8 39 C 158.8 39 154.3 39 154.3 39 Z M 162.9 35.2 C 162.9 35.2 162.98 35.19 163 35.2 C 163.2 34.8 163.5 34.5 163.8 34.4 C 164.2 34.2 164.6 34.2 165 34.2 C 166.1 34.2 167.1 34.8 167.1 36 C 167.14 36.02 167.1 42.9 167.1 42.9 L 164.7 42.9 C 164.7 42.9 164.75 36.99 164.7 37 C 164.7 36.2 164.6 35.6 163.8 35.6 C 163.1 35.6 162.9 36.2 162.9 37 C 162.94 36.99 162.9 42.9 162.9 42.9 L 160.5 42.9 L 160.5 34.3 L 162.9 34.3 L 162.9 35.2 Z M 168.1 34.3 L 169 34.3 L 169 33 L 171.4 31.9 L 171.4 34.3 L 172.7 34.3 L 172.7 35.8 L 171.4 35.8 C 171.4 35.8 171.44 40.39 171.4 40.4 C 171.4 41 171.4 41.5 172.2 41.5 C 172.4 41.5 172.5 41.5 172.6 41.4 C 172.6 41.4 172.6 42.9 172.6 42.9 C 172.3 42.9 172 43 171.4 43 C 169.3 43 169 41.6 169 41.1 C 169.05 41.09 169 35.8 169 35.8 L 168.1 35.8 L 168.1 34.3 Z M 180.1 42.9 L 177.7 42.9 L 177.7 34.3 L 180.1 34.3 L 180.1 42.9 Z M 180.1 30.6 L 180.1 32.5 L 177.7 32.5 L 177.7 30.6 L 180.1 30.6 Z M 184.5 35.2 C 184.5 35.2 184.52 35.19 184.5 35.2 C 185 34.4 185.6 34.2 186.5 34.2 C 187.4 34.2 188.1 34.6 188.5 35.2 C 189 34.5 189.7 34.2 190.7 34.2 C 191.8 34.2 192.8 34.8 192.8 36 C 192.83 36.02 192.8 42.9 192.8 42.9 L 190.4 42.9 C 190.4 42.9 190.43 36.99 190.4 37 C 190.4 36.2 190.3 35.6 189.5 35.6 C 188.8 35.6 188.6 36.2 188.6 37 C 188.63 36.99 188.6 42.9 188.6 42.9 L 186.3 42.9 C 186.3 42.9 186.28 36.99 186.3 37 C 186.3 36.2 186.1 35.6 185.4 35.6 C 184.6 35.6 184.5 36.2 184.5 37 C 184.48 36.99 184.5 42.9 184.5 42.9 L 182.1 42.9 L 182.1 34.3 L 184.5 34.3 L 184.5 35.2 Z M 198.9 38.5 C 198.9 36.8 198.9 35.6 197.9 35.6 C 196.9 35.6 196.9 36.8 196.9 38.5 C 196.9 40.7 197.1 41.6 197.9 41.6 C 198.8 41.6 198.9 40.7 198.9 38.5 Z M 196.8 34.3 L 196.8 35.3 C 196.8 35.3 196.86 35.27 196.9 35.3 C 197.3 34.4 198 34.2 198.9 34.2 C 201.4 34.2 201.3 36.9 201.3 38.7 C 201.3 40.4 201.3 43.1 198.9 43.1 C 198.1 43.1 197.5 42.8 197 42.1 C 196.98 42.09 196.9 42.1 196.9 42.1 L 196.9 46.6 L 194.5 46.6 L 194.5 34.3 L 196.8 34.3 Z M 205.1 40.2 C 205.1 40.9 205.2 41.6 206 41.6 C 207.4 41.6 207.2 39.7 207.2 38.8 C 206 38.8 205.1 38.7 205.1 40.2 Z M 209.6 41.3 C 209.6 41.8 209.6 42.4 209.7 42.9 C 209.68 42.91 207.4 42.9 207.4 42.9 L 207.3 41.8 C 207.3 41.8 207.31 41.77 207.3 41.8 C 206.8 42.7 206.1 43.1 205.1 43.1 C 203.4 43.1 202.8 41.8 202.8 40.3 C 202.8 37.5 205 37.4 207.2 37.4 C 207.2 37.4 207.2 36.8 207.2 36.8 C 207.2 36 207.1 35.5 206.2 35.5 C 205.4 35.5 205.3 36.1 205.3 36.8 C 205.3 36.8 203 36.8 203 36.8 C 203 35.8 203.3 35.1 203.9 34.7 C 204.4 34.3 205.2 34.2 206.1 34.2 C 209.2 34.2 209.6 35.5 209.6 37 C 209.6 37 209.6 41.3 209.6 41.3 Z M 215.9 37.4 C 215.9 36.1 215.6 35.7 214.8 35.7 C 213.8 35.7 213.7 36.6 213.7 38.4 C 213.7 41 214 41.5 214.8 41.5 C 215.6 41.5 215.9 40.9 215.9 39.7 C 215.9 39.7 218.3 39.7 218.3 39.7 C 218.3 42.1 217.1 43.1 214.8 43.1 C 211.7 43.1 211.3 41.2 211.3 38.5 C 211.3 36.2 211.7 34.2 214.8 34.2 C 217.1 34.2 218.3 35.1 218.3 37.4 C 218.3 37.4 215.9 37.4 215.9 37.4 Z M 219.1 34.3 L 220 34.3 L 220 33 L 222.4 31.9 L 222.4 34.3 L 223.7 34.3 L 223.7 35.8 L 222.4 35.8 C 222.4 35.8 222.44 40.39 222.4 40.4 C 222.4 41 222.4 41.5 223.2 41.5 C 223.4 41.5 223.5 41.5 223.6 41.4 C 223.6 41.4 223.6 42.9 223.6 42.9 C 223.3 42.9 223 43 222.4 43 C 220.3 43 220 41.6 220 41.1 C 220.05 41.09 220 35.8 220 35.8 L 219.1 35.8 L 219.1 34.3 Z M 232.9 38.4 C 232.9 36.6 232.9 35.7 231.8 35.7 C 230.8 35.7 230.7 36.6 230.7 38.4 C 230.7 41 231 41.5 231.8 41.5 C 232.7 41.5 232.9 41 232.9 38.4 Z M 228.3 38.5 C 228.3 36.2 228.7 34.2 231.8 34.2 C 235 34.2 235.3 36.2 235.3 38.5 C 235.3 41.2 234.9 43.1 231.8 43.1 C 228.7 43.1 228.3 41.2 228.3 38.5 Z M 239.4 35.2 C 239.4 35.2 239.48 35.19 239.5 35.2 C 239.7 34.8 240 34.5 240.3 34.4 C 240.7 34.2 241.1 34.2 241.5 34.2 C 242.6 34.2 243.6 34.8 243.6 36 C 243.64 36.02 243.6 42.9 243.6 42.9 L 241.2 42.9 C 241.2 42.9 241.24 36.99 241.2 37 C 241.2 36.2 241.1 35.6 240.3 35.6 C 239.6 35.6 239.4 36.2 239.4 37 C 239.44 36.99 239.4 42.9 239.4 42.9 L 237 42.9 L 237 34.3 L 239.4 34.3 L 239.4 35.2 Z M 251.2 40.2 C 251.2 40.5 251.2 40.9 251.3 41.2 C 251.5 41.5 251.7 41.6 252.2 41.6 C 252.7 41.6 253.1 41.3 253.1 40.7 C 253.1 38.9 248.9 39.3 248.9 36.6 C 248.9 34.7 250.7 34.2 252.2 34.2 C 253.9 34.2 255.4 34.9 255.2 36.8 C 255.2 36.8 252.9 36.8 252.9 36.8 C 252.9 36.2 252.8 35.8 252.6 35.7 C 252.5 35.5 252.3 35.5 252 35.5 C 251.5 35.5 251.2 35.8 251.2 36.4 C 251.2 37.8 255.4 37.7 255.4 40.5 C 255.4 42 254.2 43.1 252.2 43.1 C 250.1 43.1 248.7 42.6 248.9 40.2 C 248.9 40.2 251.2 40.2 251.2 40.2 Z M 259 40.2 C 259 40.9 259.1 41.6 259.8 41.6 C 261.3 41.6 261 39.7 261 38.8 C 259.8 38.8 259 38.7 259 40.2 Z M 263.4 41.3 C 263.4 41.8 263.4 42.4 263.5 42.9 C 263.5 42.91 261.3 42.9 261.3 42.9 L 261.2 41.8 C 261.2 41.8 261.13 41.77 261.1 41.8 C 260.6 42.7 259.9 43.1 258.9 43.1 C 257.2 43.1 256.6 41.8 256.6 40.3 C 256.6 37.5 258.8 37.4 261 37.4 C 261 37.4 261 36.8 261 36.8 C 261 36 260.9 35.5 260.1 35.5 C 259.2 35.5 259.2 36.1 259.2 36.8 C 259.2 36.8 256.8 36.8 256.8 36.8 C 256.8 35.8 257.1 35.1 257.7 34.7 C 258.2 34.3 259 34.2 259.9 34.2 C 263 34.2 263.4 35.5 263.4 37 C 263.4 37 263.4 41.3 263.4 41.3 Z M 269.1 32.1 C 268.1 32 267.9 32.4 267.9 33.3 C 267.88 33.29 267.9 34.3 267.9 34.3 L 269 34.3 L 269 35.8 L 267.9 35.8 L 267.9 42.9 L 265.5 42.9 L 265.5 35.8 L 264.4 35.8 L 264.4 34.3 C 264.4 34.3 265.5 34.32 265.5 34.3 C 265.5 31.9 265.3 30.5 268.2 30.5 C 268.5 30.5 268.8 30.6 269.1 30.6 C 269.1 30.6 269.1 32.1 269.1 32.1 Z M 274.5 37.7 C 274.5 36.8 274.5 35.6 273.4 35.6 C 272.3 35.6 272.3 36.9 272.3 37.7 C 272.3 37.7 274.5 37.7 274.5 37.7 Z M 272.3 39 C 272.3 40 272.3 41.5 273.4 41.5 C 274.2 41.5 274.4 40.7 274.4 40 C 274.4 40 276.8 40 276.8 40 C 276.8 41 276.5 41.7 275.9 42.2 C 275.4 42.8 274.5 43.1 273.4 43.1 C 270.3 43.1 269.9 41.2 269.9 38.5 C 269.9 36.2 270.2 34.2 273.4 34.2 C 276.6 34.2 277 36.2 276.9 39 C 276.9 39 272.3 39 272.3 39 Z M 277.6 34.3 L 278.6 34.3 L 278.6 33 L 281 31.9 L 281 34.3 L 282.2 34.3 L 282.2 35.8 L 281 35.8 C 281 35.8 280.99 40.39 281 40.4 C 281 41 281 41.5 281.8 41.5 C 281.9 41.5 282.1 41.5 282.2 41.4 C 282.2 41.4 282.2 42.9 282.2 42.9 C 281.9 42.9 281.5 43 280.9 43 C 278.9 43 278.6 41.6 278.6 41.1 C 278.59 41.09 278.6 35.8 278.6 35.8 L 277.6 35.8 L 277.6 34.3 Z M 284.8 43 L 282.5 34.3 L 284.9 34.3 L 286.1 40.4 L 286.2 40.4 L 287.4 34.3 L 289.8 34.3 L 286.4 46.2 L 283.9 46.2 L 284.8 43 Z M 299 38.4 C 299 36.6 299 35.7 297.9 35.7 C 296.9 35.7 296.8 36.6 296.8 38.4 C 296.8 41 297.1 41.5 297.9 41.5 C 298.8 41.5 299 41 299 38.4 Z M 294.4 38.5 C 294.4 36.2 294.8 34.2 297.9 34.2 C 301.1 34.2 301.4 36.2 301.4 38.5 C 301.4 41.2 301 43.1 297.9 43.1 C 294.8 43.1 294.4 41.2 294.4 38.5 Z M 305.4 34.3 L 305.4 35.4 C 305.4 35.4 305.45 35.43 305.5 35.4 C 305.9 34.4 306.7 34.2 307.7 34.2 C 307.7 34.2 307.7 36.3 307.7 36.3 C 305.6 36.2 305.5 37.4 305.5 38.2 C 305.54 38.23 305.5 42.9 305.5 42.9 L 303.1 42.9 L 303.1 34.3 L 305.4 34.3 Z M 317 37.7 C 317 36.8 317 35.6 315.9 35.6 C 314.8 35.6 314.8 36.9 314.8 37.7 C 314.8 37.7 317 37.7 317 37.7 Z M 314.8 39 C 314.8 40 314.8 41.5 315.9 41.5 C 316.7 41.5 316.9 40.7 316.9 40 C 316.9 40 319.3 40 319.3 40 C 319.3 41 319 41.7 318.4 42.2 C 317.8 42.8 317 43.1 315.9 43.1 C 312.8 43.1 312.4 41.2 312.4 38.5 C 312.4 36.2 312.7 34.2 315.9 34.2 C 319.1 34.2 319.5 36.2 319.4 39 C 319.4 39 314.8 39 314.8 39 Z M 324.8 32.1 C 323.8 32 323.6 32.4 323.6 33.3 C 323.59 33.29 323.6 34.3 323.6 34.3 L 324.7 34.3 L 324.7 35.8 L 323.6 35.8 L 323.6 42.9 L 321.2 42.9 L 321.2 35.8 L 320.1 35.8 L 320.1 34.3 C 320.1 34.3 321.21 34.32 321.2 34.3 C 321.2 31.9 321 30.5 323.9 30.5 C 324.2 30.5 324.5 30.6 324.8 30.6 C 324.8 30.6 324.8 32.1 324.8 32.1 Z M 329.5 32.1 C 328.5 32 328.3 32.4 328.3 33.3 C 328.32 33.29 328.3 34.3 328.3 34.3 L 329.4 34.3 L 329.4 35.8 L 328.3 35.8 L 328.3 42.9 L 325.9 42.9 L 325.9 35.8 L 324.8 35.8 L 324.8 34.3 C 324.8 34.3 325.94 34.32 325.9 34.3 C 325.9 31.9 325.7 30.5 328.6 30.5 C 328.9 30.5 329.2 30.6 329.5 30.6 C 329.5 30.6 329.5 32.1 329.5 32.1 Z M 333.1 42.9 L 330.7 42.9 L 330.7 34.3 L 333.1 34.3 L 333.1 42.9 Z M 333.1 30.6 L 333.1 32.5 L 330.7 32.5 L 330.7 30.6 L 333.1 30.6 Z M 339.6 37.4 C 339.6 36.1 339.3 35.7 338.6 35.7 C 337.5 35.7 337.4 36.6 337.4 38.4 C 337.4 41 337.7 41.5 338.6 41.5 C 339.3 41.5 339.7 40.9 339.7 39.7 C 339.7 39.7 342.1 39.7 342.1 39.7 C 342.1 42.1 340.8 43.1 338.6 43.1 C 335.5 43.1 335 41.2 335 38.5 C 335 36.2 335.4 34.2 338.6 34.2 C 340.8 34.2 342 35.1 342 37.4 C 342 37.4 339.6 37.4 339.6 37.4 Z M 345.8 40.2 C 345.8 40.9 345.9 41.6 346.7 41.6 C 348.1 41.6 347.9 39.7 347.9 38.8 C 346.7 38.8 345.8 38.7 345.8 40.2 Z M 350.3 41.3 C 350.3 41.8 350.3 42.4 350.4 42.9 C 350.38 42.91 348.2 42.9 348.2 42.9 L 348.1 41.8 C 348.1 41.8 348.02 41.77 348 41.8 C 347.5 42.7 346.8 43.1 345.8 43.1 C 344.1 43.1 343.5 41.8 343.5 40.3 C 343.5 37.5 345.7 37.4 347.9 37.4 C 347.9 37.4 347.9 36.8 347.9 36.8 C 347.9 36 347.8 35.5 346.9 35.5 C 346.1 35.5 346 36.1 346 36.8 C 346 36.8 343.7 36.8 343.7 36.8 C 343.7 35.8 344 35.1 344.6 34.7 C 345.1 34.3 345.9 34.2 346.8 34.2 C 349.9 34.2 350.3 35.5 350.3 37 C 350.3 37 350.3 41.3 350.3 41.3 Z M 356.6 37.4 C 356.6 36.1 356.3 35.7 355.6 35.7 C 354.5 35.7 354.4 36.6 354.4 38.4 C 354.4 41 354.7 41.5 355.6 41.5 C 356.3 41.5 356.7 40.9 356.7 39.7 C 356.7 39.7 359.1 39.7 359.1 39.7 C 359.1 42.1 357.8 43.1 355.6 43.1 C 352.5 43.1 352 41.2 352 38.5 C 352 36.2 352.4 34.2 355.6 34.2 C 357.8 34.2 359 35.1 359 37.4 C 359 37.4 356.6 37.4 356.6 37.4 Z M 362.3 43 L 360 34.3 L 362.3 34.3 L 363.6 40.4 L 363.6 40.4 L 364.9 34.3 L 367.2 34.3 L 363.9 46.2 L 361.4 46.2 L 362.3 43 Z M 369 31.6 L 369 30.1 L 370.1 30.1 L 370.1 31.6 L 371.7 31.6 L 371.7 32.6 L 370.1 32.6 L 370.1 37.2 L 369 37.2 L 369 32.6 L 367.4 32.6 L 367.4 31.6 L 369 31.6 Z " stroke="none" fill="#003c71"/>  </g>  <g id="Polygon201261">    <path d="M 1.1 22.5 L 1.1 10.2 L 3.7 10.2 L 3.7 20.5 L 7.5 20.5 L 7.5 22.5 L 1.1 22.5 Z M 11.1 22.5 L 8.7 22.5 L 8.7 13.9 L 11.1 13.9 L 11.1 22.5 Z M 11.1 10.2 L 11.1 12.1 L 8.7 12.1 L 8.7 10.2 L 11.1 10.2 Z M 15.4 14.8 C 15.4 14.8 15.47 14.79 15.5 14.8 C 15.9 14 16.6 13.8 17.5 13.8 C 18.3 13.8 19 14.2 19.4 14.8 C 20 14.1 20.7 13.8 21.6 13.8 C 22.8 13.8 23.8 14.4 23.8 15.6 C 23.78 15.62 23.8 22.5 23.8 22.5 L 21.4 22.5 C 21.4 22.5 21.39 16.59 21.4 16.6 C 21.4 15.8 21.2 15.2 20.5 15.2 C 19.7 15.2 19.6 15.8 19.6 16.6 C 19.58 16.59 19.6 22.5 19.6 22.5 L 17.2 22.5 C 17.2 22.5 17.24 16.59 17.2 16.6 C 17.2 15.8 17.1 15.2 16.3 15.2 C 15.6 15.2 15.4 15.8 15.4 16.6 C 15.44 16.59 15.4 22.5 15.4 22.5 L 13 22.5 L 13 13.9 L 15.4 13.9 L 15.4 14.8 Z M 28.1 22.5 L 25.7 22.5 L 25.7 13.9 L 28.1 13.9 L 28.1 22.5 Z M 28.1 10.2 L 28.1 12.1 L 25.7 12.1 L 25.7 10.2 L 28.1 10.2 Z M 29.3 13.9 L 30.2 13.9 L 30.2 12.6 L 32.6 11.5 L 32.6 13.9 L 33.9 13.9 L 33.9 15.4 L 32.6 15.4 C 32.6 15.4 32.62 19.99 32.6 20 C 32.6 20.6 32.6 21.1 33.4 21.1 C 33.5 21.1 33.7 21.1 33.8 21 C 33.8 21 33.8 22.5 33.8 22.5 C 33.5 22.5 33.1 22.6 32.6 22.6 C 30.5 22.6 30.2 21.2 30.2 20.7 C 30.23 20.69 30.2 15.4 30.2 15.4 L 29.3 15.4 L 29.3 13.9 Z M 39.4 17.3 C 39.4 16.4 39.4 15.2 38.2 15.2 C 37.1 15.2 37.2 16.5 37.2 17.3 C 37.2 17.3 39.4 17.3 39.4 17.3 Z M 37.2 18.6 C 37.2 19.6 37.2 21.1 38.2 21.1 C 39.1 21.1 39.3 20.3 39.3 19.6 C 39.3 19.6 41.7 19.6 41.7 19.6 C 41.7 20.6 41.4 21.3 40.8 21.8 C 40.2 22.4 39.4 22.7 38.2 22.7 C 35.2 22.7 34.7 20.8 34.7 18.1 C 34.7 15.8 35.1 13.8 38.2 13.8 C 41.5 13.8 41.8 15.8 41.8 18.6 C 41.8 18.6 37.2 18.6 37.2 18.6 Z M 47.6 18.1 C 47.6 16.4 47.6 15.2 46.6 15.2 C 45.6 15.2 45.6 16.4 45.6 18.1 C 45.6 20.3 45.8 21.2 46.6 21.2 C 47.5 21.2 47.6 20.3 47.6 18.1 Z M 47.7 22.5 L 47.7 21.6 C 47.7 21.6 47.7 21.56 47.7 21.6 C 47.3 22.4 46.6 22.7 45.7 22.7 C 43.2 22.7 43.3 19.9 43.3 18.2 C 43.3 16.4 43.2 13.8 45.6 13.8 C 46.5 13.8 47.1 14 47.6 14.7 C 47.58 14.74 47.6 14.7 47.6 14.7 L 47.6 10.2 L 50 10.2 L 50 22.5 L 47.7 22.5 Z M 60.1 17.3 C 60.1 16.4 60.2 15.2 59 15.2 C 57.9 15.2 57.9 16.5 57.9 17.3 C 57.9 17.3 60.1 17.3 60.1 17.3 Z M 57.9 18.6 C 57.9 19.6 58 21.1 59 21.1 C 59.9 21.1 60 20.3 60 19.6 C 60 19.6 62.5 19.6 62.5 19.6 C 62.4 20.6 62.1 21.3 61.6 21.8 C 61 22.4 60.1 22.7 59 22.7 C 55.9 22.7 55.5 20.8 55.5 18.1 C 55.5 15.8 55.9 13.8 59 13.8 C 62.3 13.8 62.6 15.8 62.5 18.6 C 62.5 18.6 57.9 18.6 57.9 18.6 Z M 63.4 13.9 L 65.8 13.9 L 67 20.4 L 67.1 20.4 L 68.3 13.9 L 70.7 13.9 L 68.3 22.5 L 65.7 22.5 L 63.4 13.9 Z M 74.4 22.5 L 72 22.5 L 72 13.9 L 74.4 13.9 L 74.4 22.5 Z M 74.4 10.2 L 74.4 12.1 L 72 12.1 L 72 10.2 L 74.4 10.2 Z M 80.7 18.1 C 80.7 16.4 80.7 15.2 79.7 15.2 C 78.7 15.2 78.7 16.4 78.7 18.1 C 78.7 20.3 78.8 21.2 79.7 21.2 C 80.5 21.2 80.7 20.3 80.7 18.1 Z M 80.8 22.5 L 80.8 21.6 C 80.8 21.6 80.75 21.56 80.7 21.6 C 80.3 22.4 79.6 22.7 78.7 22.7 C 76.2 22.7 76.3 19.9 76.3 18.2 C 76.3 16.4 76.3 13.8 78.7 13.8 C 79.5 13.8 80.1 14 80.6 14.7 C 80.63 14.74 80.7 14.7 80.7 14.7 L 80.7 10.2 L 83.1 10.2 L 83.1 22.5 L 80.8 22.5 Z M 89.4 17.3 C 89.4 16.4 89.4 15.2 88.3 15.2 C 87.2 15.2 87.2 16.5 87.2 17.3 C 87.2 17.3 89.4 17.3 89.4 17.3 Z M 87.2 18.6 C 87.2 19.6 87.2 21.1 88.3 21.1 C 89.1 21.1 89.3 20.3 89.3 19.6 C 89.3 19.6 91.7 19.6 91.7 19.6 C 91.7 20.6 91.4 21.3 90.8 21.8 C 90.3 22.4 89.4 22.7 88.3 22.7 C 85.2 22.7 84.8 20.8 84.8 18.1 C 84.8 15.8 85.1 13.8 88.3 13.8 C 91.5 13.8 91.9 15.8 91.8 18.6 C 91.8 18.6 87.2 18.6 87.2 18.6 Z M 95.9 14.8 C 95.9 14.8 95.93 14.79 95.9 14.8 C 96.2 14.4 96.5 14.1 96.8 14 C 97.1 13.8 97.5 13.8 98 13.8 C 99.1 13.8 100.1 14.4 100.1 15.6 C 100.09 15.62 100.1 22.5 100.1 22.5 L 97.7 22.5 C 97.7 22.5 97.7 16.59 97.7 16.6 C 97.7 15.8 97.6 15.2 96.8 15.2 C 96 15.2 95.9 15.8 95.9 16.6 C 95.9 16.59 95.9 22.5 95.9 22.5 L 93.5 22.5 L 93.5 13.9 L 95.9 13.9 L 95.9 14.8 Z M 106.4 17 C 106.4 15.7 106 15.3 105.3 15.3 C 104.3 15.3 104.2 16.2 104.2 18 C 104.2 20.6 104.4 21.1 105.3 21.1 C 106 21.1 106.4 20.5 106.4 19.3 C 106.4 19.3 108.8 19.3 108.8 19.3 C 108.8 21.7 107.5 22.7 105.3 22.7 C 102.2 22.7 101.8 20.8 101.8 18.1 C 101.8 15.8 102.1 13.8 105.3 13.8 C 107.5 13.8 108.8 14.7 108.8 17 C 108.8 17 106.4 17 106.4 17 Z M 114.9 17.3 C 114.9 16.4 114.9 15.2 113.8 15.2 C 112.7 15.2 112.7 16.5 112.7 17.3 C 112.7 17.3 114.9 17.3 114.9 17.3 Z M 112.7 18.6 C 112.7 19.6 112.7 21.1 113.8 21.1 C 114.6 21.1 114.8 20.3 114.8 19.6 C 114.8 19.6 117.2 19.6 117.2 19.6 C 117.2 20.6 116.9 21.3 116.3 21.8 C 115.8 22.4 114.9 22.7 113.8 22.7 C 110.7 22.7 110.3 20.8 110.3 18.1 C 110.3 15.8 110.6 13.8 113.8 13.8 C 117 13.8 117.4 15.8 117.3 18.6 C 117.3 18.6 112.7 18.6 112.7 18.6 Z M 127.2 18 C 127.2 16.2 127.1 15.3 126.1 15.3 C 125.1 15.3 125 16.2 125 18 C 125 20.6 125.2 21.1 126.1 21.1 C 127 21.1 127.2 20.6 127.2 18 Z M 122.6 18.1 C 122.6 15.8 122.9 13.8 126.1 13.8 C 129.2 13.8 129.6 15.8 129.6 18.1 C 129.6 20.8 129.2 22.7 126.1 22.7 C 123 22.7 122.6 20.8 122.6 18.1 Z M 135 11.7 C 134 11.6 133.8 12 133.8 12.9 C 133.79 12.89 133.8 13.9 133.8 13.9 L 134.9 13.9 L 134.9 15.4 L 133.8 15.4 L 133.8 22.5 L 131.4 22.5 L 131.4 15.4 L 130.3 15.4 L 130.3 13.9 C 130.3 13.9 131.41 13.92 131.4 13.9 C 131.4 11.5 131.2 10.1 134.1 10.1 C 134.4 10.1 134.7 10.2 135 10.2 C 135 10.2 135 11.7 135 11.7 Z M 144.2 17.3 C 144.2 16.4 144.2 15.2 143.1 15.2 C 142 15.2 142 16.5 142 17.3 C 142 17.3 144.2 17.3 144.2 17.3 Z M 142 18.6 C 142 19.6 142 21.1 143.1 21.1 C 143.9 21.1 144.1 20.3 144.1 19.6 C 144.1 19.6 146.5 19.6 146.5 19.6 C 146.5 20.6 146.2 21.3 145.6 21.8 C 145 22.4 144.2 22.7 143.1 22.7 C 140 22.7 139.6 20.8 139.6 18.1 C 139.6 15.8 139.9 13.8 143.1 13.8 C 146.3 13.8 146.7 15.8 146.6 18.6 C 146.6 18.6 142 18.6 142 18.6 Z M 150.5 14.8 C 150.5 14.8 150.52 14.79 150.5 14.8 C 151 14 151.6 13.8 152.5 13.8 C 153.4 13.8 154.1 14.2 154.5 14.8 C 155 14.1 155.7 13.8 156.7 13.8 C 157.8 13.8 158.8 14.4 158.8 15.6 C 158.83 15.62 158.8 22.5 158.8 22.5 L 156.4 22.5 C 156.4 22.5 156.43 16.59 156.4 16.6 C 156.4 15.8 156.3 15.2 155.5 15.2 C 154.8 15.2 154.6 15.8 154.6 16.6 C 154.63 16.59 154.6 22.5 154.6 22.5 L 152.3 22.5 C 152.3 22.5 152.28 16.59 152.3 16.6 C 152.3 15.8 152.1 15.2 151.4 15.2 C 150.6 15.2 150.5 15.8 150.5 16.6 C 150.48 16.59 150.5 22.5 150.5 22.5 L 148.1 22.5 L 148.1 13.9 L 150.5 13.9 L 150.5 14.8 Z M 164.9 17.3 C 164.9 16.4 165 15.2 163.8 15.2 C 162.7 15.2 162.8 16.5 162.8 17.3 C 162.8 17.3 164.9 17.3 164.9 17.3 Z M 162.8 18.6 C 162.8 19.6 162.8 21.1 163.8 21.1 C 164.7 21.1 164.9 20.3 164.9 19.6 C 164.9 19.6 167.3 19.6 167.3 19.6 C 167.3 20.6 167 21.3 166.4 21.8 C 165.8 22.4 165 22.7 163.8 22.7 C 160.8 22.7 160.3 20.8 160.3 18.1 C 160.3 15.8 160.7 13.8 163.8 13.8 C 167.1 13.8 167.4 15.8 167.3 18.6 C 167.3 18.6 162.8 18.6 162.8 18.6 Z M 171.3 13.9 L 171.3 15 C 171.3 15 171.36 15.03 171.4 15 C 171.8 14 172.6 13.8 173.6 13.8 C 173.6 13.8 173.6 15.9 173.6 15.9 C 171.5 15.8 171.4 17 171.4 17.8 C 171.44 17.83 171.4 22.5 171.4 22.5 L 169 22.5 L 169 13.9 L 171.3 13.9 Z M 177.9 20.9 C 178.8 20.9 178.9 20 178.9 18.2 C 178.9 16.3 178.8 15.2 177.9 15.2 C 177 15.2 176.8 15.9 176.8 18.5 C 176.8 19.3 176.7 20.9 177.9 20.9 Z M 181.3 13.9 C 181.3 13.9 181.27 22.86 181.3 22.9 C 181.3 23.5 181.3 25.8 178 25.8 C 176.2 25.8 174.7 25.3 174.6 23.3 C 174.6 23.3 177 23.3 177 23.3 C 177 23.6 177 23.9 177.2 24.1 C 177.3 24.3 177.6 24.5 178 24.5 C 178.6 24.5 178.9 23.9 178.9 23 C 178.87 23.03 178.9 21.4 178.9 21.4 C 178.9 21.4 178.84 21.39 178.8 21.4 C 178.5 22 177.8 22.4 177 22.4 C 174.4 22.4 174.5 20 174.5 18 C 174.5 16.1 174.5 13.8 177 13.8 C 177.9 13.8 178.6 14.1 179 14.9 C 178.96 14.93 179 14.9 179 14.9 L 179 13.9 L 181.3 13.9 Z M 187.6 17.3 C 187.6 16.4 187.6 15.2 186.5 15.2 C 185.4 15.2 185.4 16.5 185.4 17.3 C 185.4 17.3 187.6 17.3 187.6 17.3 Z M 185.4 18.6 C 185.4 19.6 185.5 21.1 186.5 21.1 C 187.4 21.1 187.5 20.3 187.5 19.6 C 187.5 19.6 190 19.6 190 19.6 C 189.9 20.6 189.6 21.3 189 21.8 C 188.5 22.4 187.6 22.7 186.5 22.7 C 183.4 22.7 183 20.8 183 18.1 C 183 15.8 183.3 13.8 186.5 13.8 C 189.7 13.8 190.1 15.8 190 18.6 C 190 18.6 185.4 18.6 185.4 18.6 Z M 194.1 14.8 C 194.1 14.8 194.14 14.79 194.1 14.8 C 194.4 14.4 194.7 14.1 195 14 C 195.3 13.8 195.7 13.8 196.2 13.8 C 197.3 13.8 198.3 14.4 198.3 15.6 C 198.3 15.62 198.3 22.5 198.3 22.5 L 195.9 22.5 C 195.9 22.5 195.91 16.59 195.9 16.6 C 195.9 15.8 195.8 15.2 195 15.2 C 194.2 15.2 194.1 15.8 194.1 16.6 C 194.1 16.59 194.1 22.5 194.1 22.5 L 191.7 22.5 L 191.7 13.9 L 194.1 13.9 L 194.1 14.8 Z M 204.6 17 C 204.6 15.7 204.3 15.3 203.5 15.3 C 202.5 15.3 202.4 16.2 202.4 18 C 202.4 20.6 202.6 21.1 203.5 21.1 C 204.3 21.1 204.6 20.5 204.6 19.3 C 204.6 19.3 207 19.3 207 19.3 C 207 21.7 205.7 22.7 203.5 22.7 C 200.4 22.7 200 20.8 200 18.1 C 200 15.8 200.3 13.8 203.5 13.8 C 205.7 13.8 207 14.7 207 17 C 207 17 204.6 17 204.6 17 Z M 213.1 17.3 C 213.1 16.4 213.1 15.2 212 15.2 C 210.9 15.2 210.9 16.5 210.9 17.3 C 210.9 17.3 213.1 17.3 213.1 17.3 Z M 210.9 18.6 C 210.9 19.6 211 21.1 212 21.1 C 212.9 21.1 213 20.3 213 19.6 C 213 19.6 215.5 19.6 215.5 19.6 C 215.4 20.6 215.1 21.3 214.5 21.8 C 214 22.4 213.1 22.7 212 22.7 C 208.9 22.7 208.5 20.8 208.5 18.1 C 208.5 15.8 208.8 13.8 212 13.8 C 215.2 13.8 215.6 15.8 215.5 18.6 C 215.5 18.6 210.9 18.6 210.9 18.6 Z M 225.4 18 C 225.4 16.2 225.3 15.3 224.3 15.3 C 223.3 15.3 223.2 16.2 223.2 18 C 223.2 20.6 223.4 21.1 224.3 21.1 C 225.2 21.1 225.4 20.6 225.4 18 Z M 220.8 18.1 C 220.8 15.8 221.1 13.8 224.3 13.8 C 227.4 13.8 227.8 15.8 227.8 18.1 C 227.8 20.8 227.4 22.7 224.3 22.7 C 221.2 22.7 220.8 20.8 220.8 18.1 Z M 233.2 11.7 C 232.2 11.6 232 12 232 12.9 C 232 12.89 232 13.9 232 13.9 L 233.1 13.9 L 233.1 15.4 L 232 15.4 L 232 22.5 L 229.6 22.5 L 229.6 15.4 L 228.5 15.4 L 228.5 13.9 C 228.5 13.9 229.62 13.92 229.6 13.9 C 229.6 11.5 229.4 10.1 232.3 10.1 C 232.6 10.1 232.9 10.2 233.2 10.2 C 233.2 10.2 233.2 11.7 233.2 11.7 Z M 240.1 19.8 C 240.1 20.5 240.2 21.2 241 21.2 C 242.4 21.2 242.1 19.3 242.1 18.4 C 241 18.4 240.1 18.3 240.1 19.8 Z M 244.5 20.9 C 244.5 21.4 244.6 22 244.6 22.5 C 244.61 22.51 242.4 22.5 242.4 22.5 L 242.3 21.4 C 242.3 21.4 242.25 21.37 242.2 21.4 C 241.7 22.3 241 22.7 240 22.7 C 238.3 22.7 237.7 21.4 237.7 19.9 C 237.7 17.1 239.9 17 242.1 17 C 242.1 17 242.1 16.4 242.1 16.4 C 242.1 15.6 242 15.1 241.2 15.1 C 240.3 15.1 240.3 15.7 240.3 16.4 C 240.3 16.4 237.9 16.4 237.9 16.4 C 237.9 15.4 238.3 14.7 238.8 14.3 C 239.4 13.9 240.1 13.8 241.1 13.8 C 244.1 13.8 244.5 15.1 244.5 16.6 C 244.5 16.6 244.5 20.9 244.5 20.9 Z M 248.9 14.8 C 248.9 14.8 248.91 14.79 248.9 14.8 C 249.1 14.4 249.4 14.1 249.8 14 C 250.1 13.8 250.5 13.8 250.9 13.8 C 252.1 13.8 253.1 14.4 253.1 15.6 C 253.08 15.62 253.1 22.5 253.1 22.5 L 250.7 22.5 C 250.7 22.5 250.68 16.59 250.7 16.6 C 250.7 15.8 250.5 15.2 249.8 15.2 C 249 15.2 248.9 15.8 248.9 16.6 C 248.88 16.59 248.9 22.5 248.9 22.5 L 246.5 22.5 L 246.5 13.9 L 248.9 13.9 L 248.9 14.8 Z M 254 13.9 L 255 13.9 L 255 12.6 L 257.4 11.5 L 257.4 13.9 L 258.6 13.9 L 258.6 15.4 L 257.4 15.4 C 257.4 15.4 257.38 19.99 257.4 20 C 257.4 20.6 257.4 21.1 258.1 21.1 C 258.3 21.1 258.4 21.1 258.6 21 C 258.6 21 258.6 22.5 258.6 22.5 C 258.2 22.5 257.9 22.6 257.3 22.6 C 255.3 22.6 255 21.2 255 20.7 C 254.98 20.69 255 15.4 255 15.4 L 254 15.4 L 254 13.9 Z M 262.3 22.5 L 259.9 22.5 L 259.9 13.9 L 262.3 13.9 L 262.3 22.5 Z M 262.3 10.2 L 262.3 12.1 L 259.9 12.1 L 259.9 10.2 L 262.3 10.2 Z M 268.4 17.1 L 268.4 18.8 L 264.2 18.8 L 264.2 17.1 L 268.4 17.1 Z M 274.3 18.1 C 274.3 16.4 274.3 15.2 273.3 15.2 C 272.3 15.2 272.3 16.4 272.3 18.1 C 272.3 20.3 272.4 21.2 273.3 21.2 C 274.1 21.2 274.3 20.3 274.3 18.1 Z M 274.4 22.5 L 274.4 21.6 C 274.4 21.6 274.34 21.56 274.3 21.6 C 273.9 22.4 273.2 22.7 272.3 22.7 C 269.8 22.7 269.9 19.9 269.9 18.2 C 269.9 16.4 269.9 13.8 272.3 13.8 C 273.1 13.8 273.7 14 274.2 14.7 C 274.22 14.74 274.3 14.7 274.3 14.7 L 274.3 10.2 L 276.7 10.2 L 276.7 22.5 L 274.4 22.5 Z M 280.9 13.9 L 280.9 15 C 280.9 15 280.91 15.03 280.9 15 C 281.3 14 282.2 13.8 283.1 13.8 C 283.1 13.8 283.1 15.9 283.1 15.9 C 281 15.8 281 17 281 17.8 C 280.99 17.83 281 22.5 281 22.5 L 278.6 22.5 L 278.6 13.9 L 280.9 13.9 Z M 288.5 21.6 C 288.5 21.6 288.42 21.64 288.4 21.6 C 288.2 22 287.9 22.3 287.6 22.4 C 287.2 22.6 286.9 22.7 286.4 22.7 C 285.3 22.7 284.3 22 284.3 20.8 C 284.25 20.81 284.3 13.9 284.3 13.9 L 286.7 13.9 C 286.7 13.9 286.65 19.87 286.7 19.9 C 286.7 20.6 286.8 21.2 287.6 21.2 C 288.3 21.2 288.5 20.6 288.5 19.9 C 288.45 19.87 288.5 13.9 288.5 13.9 L 290.9 13.9 C 290.9 13.9 290.85 20.81 290.9 20.8 C 290.9 21.4 290.9 21.9 290.9 22.5 C 290.94 22.51 288.5 22.5 288.5 22.5 L 288.5 21.6 Z M 295.9 20.9 C 296.8 20.9 296.9 20 296.9 18.2 C 296.9 16.3 296.8 15.2 296 15.2 C 295 15.2 294.9 15.9 294.9 18.5 C 294.9 19.3 294.8 20.9 295.9 20.9 Z M 299.3 13.9 C 299.3 13.9 299.32 22.86 299.3 22.9 C 299.3 23.5 299.4 25.8 296.1 25.8 C 294.3 25.8 292.7 25.3 292.7 23.3 C 292.7 23.3 295 23.3 295 23.3 C 295 23.6 295.1 23.9 295.2 24.1 C 295.4 24.3 295.7 24.5 296 24.5 C 296.6 24.5 296.9 23.9 296.9 23 C 296.92 23.03 296.9 21.4 296.9 21.4 C 296.9 21.4 296.89 21.39 296.9 21.4 C 296.5 22 295.8 22.4 295.1 22.4 C 292.4 22.4 292.6 20 292.6 18 C 292.6 16.1 292.6 13.8 295.1 13.8 C 295.9 13.8 296.7 14.1 297 14.9 C 297 14.93 297 14.9 297 14.9 L 297 13.9 L 299.3 13.9 Z M 307.1 19.8 C 307.1 20.5 307.2 21.2 308 21.2 C 309.4 21.2 309.2 19.3 309.2 18.4 C 308 18.4 307.1 18.3 307.1 19.8 Z M 311.5 20.9 C 311.5 21.4 311.6 22 311.7 22.5 C 311.66 22.51 309.4 22.5 309.4 22.5 L 309.3 21.4 C 309.3 21.4 309.3 21.37 309.3 21.4 C 308.8 22.3 308.1 22.7 307.1 22.7 C 305.4 22.7 304.8 21.4 304.8 19.9 C 304.8 17.1 307 17 309.2 17 C 309.2 17 309.2 16.4 309.2 16.4 C 309.2 15.6 309.1 15.1 308.2 15.1 C 307.4 15.1 307.3 15.7 307.3 16.4 C 307.3 16.4 305 16.4 305 16.4 C 305 15.4 305.3 14.7 305.9 14.3 C 306.4 13.9 307.2 13.8 308.1 13.8 C 311.1 13.8 311.5 15.1 311.5 16.6 C 311.5 16.6 311.5 20.9 311.5 20.9 Z M 315.9 14.8 C 315.9 14.8 315.96 14.79 316 14.8 C 316.2 14.4 316.5 14.1 316.8 14 C 317.1 13.8 317.5 13.8 318 13.8 C 319.1 13.8 320.1 14.4 320.1 15.6 C 320.12 15.62 320.1 22.5 320.1 22.5 L 317.7 22.5 C 317.7 22.5 317.73 16.59 317.7 16.6 C 317.7 15.8 317.6 15.2 316.8 15.2 C 316.1 15.2 315.9 15.8 315.9 16.6 C 315.93 16.59 315.9 22.5 315.9 22.5 L 313.5 22.5 L 313.5 13.9 L 315.9 13.9 L 315.9 14.8 Z M 321.1 13.9 L 322 13.9 L 322 12.6 L 324.4 11.5 L 324.4 13.9 L 325.7 13.9 L 325.7 15.4 L 324.4 15.4 C 324.4 15.4 324.43 19.99 324.4 20 C 324.4 20.6 324.4 21.1 325.2 21.1 C 325.3 21.1 325.5 21.1 325.6 21 C 325.6 21 325.6 22.5 325.6 22.5 C 325.3 22.5 325 22.6 324.4 22.6 C 322.3 22.6 322 21.2 322 20.7 C 322.03 20.69 322 15.4 322 15.4 L 321.1 15.4 L 321.1 13.9 Z M 329.4 22.5 L 327 22.5 L 327 13.9 L 329.4 13.9 L 329.4 22.5 Z M 329.4 10.2 L 329.4 12.1 L 327 12.1 L 327 10.2 L 329.4 10.2 Z M 335.9 18.1 C 335.9 16.4 335.9 15.2 334.8 15.2 C 333.9 15.2 333.9 16.4 333.9 18.1 C 333.9 20.3 334 21.2 334.8 21.2 C 335.7 21.2 335.9 20.3 335.9 18.1 Z M 331.5 10.2 L 333.9 10.2 L 333.9 14.7 C 333.9 14.7 333.91 14.74 333.9 14.7 C 334.4 14 335 13.8 335.9 13.8 C 338.3 13.8 338.2 16.4 338.2 18.2 C 338.2 19.9 338.3 22.7 335.8 22.7 C 334.9 22.7 334.2 22.4 333.8 21.6 C 333.79 21.56 333.8 21.6 333.8 21.6 L 333.8 22.5 L 331.5 22.5 L 331.5 10.2 Z M 344.4 18 C 344.4 16.2 344.3 15.3 343.3 15.3 C 342.3 15.3 342.2 16.2 342.2 18 C 342.2 20.6 342.4 21.1 343.3 21.1 C 344.2 21.1 344.4 20.6 344.4 18 Z M 339.8 18.1 C 339.8 15.8 340.1 13.8 343.3 13.8 C 346.4 13.8 346.8 15.8 346.8 18.1 C 346.8 20.8 346.4 22.7 343.3 22.7 C 340.2 22.7 339.8 20.8 339.8 18.1 Z M 352.6 18.1 C 352.6 16.4 352.7 15.2 351.7 15.2 C 350.6 15.2 350.7 16.4 350.7 18.1 C 350.7 20.3 350.8 21.2 351.7 21.2 C 352.5 21.2 352.6 20.3 352.6 18.1 Z M 352.8 22.5 L 352.8 21.6 C 352.8 21.6 352.73 21.56 352.7 21.6 C 352.3 22.4 351.6 22.7 350.7 22.7 C 348.2 22.7 348.3 19.9 348.3 18.2 C 348.3 16.4 348.2 13.8 350.7 13.8 C 351.5 13.8 352.1 14 352.6 14.7 C 352.61 14.74 352.6 14.7 352.6 14.7 L 352.6 10.2 L 355 10.2 L 355 22.5 L 352.8 22.5 Z M 359.6 22.5 L 357.2 22.5 L 357.2 13.9 L 359.6 13.9 L 359.6 22.5 Z M 359.6 10.2 L 359.6 12.1 L 357.2 12.1 L 357.2 10.2 L 359.6 10.2 Z M 366.1 17.3 C 366.1 16.4 366.1 15.2 365 15.2 C 363.9 15.2 363.9 16.5 363.9 17.3 C 363.9 17.3 366.1 17.3 366.1 17.3 Z M 363.9 18.6 C 363.9 19.6 364 21.1 365 21.1 C 365.9 21.1 366 20.3 366 19.6 C 366 19.6 368.5 19.6 368.5 19.6 C 368.4 20.6 368.1 21.3 367.5 21.8 C 367 22.4 366.1 22.7 365 22.7 C 361.9 22.7 361.5 20.8 361.5 18.1 C 361.5 15.8 361.8 13.8 365 13.8 C 368.2 13.8 368.6 15.8 368.5 18.6 C 368.5 18.6 363.9 18.6 363.9 18.6 Z M 372.1 19.8 C 372.1 20.1 372.1 20.5 372.2 20.8 C 372.3 21.1 372.6 21.2 373.1 21.2 C 373.6 21.2 374 20.9 374 20.3 C 374 18.5 369.7 18.9 369.7 16.2 C 369.7 14.3 371.6 13.8 373.1 13.8 C 374.8 13.8 376.2 14.5 376.1 16.4 C 376.1 16.4 373.8 16.4 373.8 16.4 C 373.8 15.8 373.7 15.4 373.5 15.3 C 373.4 15.1 373.2 15.1 372.9 15.1 C 372.4 15.1 372.1 15.4 372.1 16 C 372.1 17.4 376.3 17.3 376.3 20.1 C 376.3 21.6 375.1 22.7 373.1 22.7 C 371 22.7 369.6 22.2 369.7 19.8 C 369.7 19.8 372.1 19.8 372.1 19.8 Z " stroke="none" fill="#003c71"/>  </g></svg>