<?xml version="1.0" standalone="no"?><!DOCTYPE svg PUBLIC "-//W3C//DTD SVG 1.1//EN" "http://www.w3.org/Graphics/SVG/1.1/DTD/svg11.dtd"><svg xmlns="http://www.w3.org/2000/svg" version="1.1" width="750px" height="51.7px" viewBox="0 -1 750 51.7" style="top:-1px">  <desc>Phase 3 ole study design1</desc>  <defs/>  <g id="Polygon198745">    <path d="M 3.8 24.9 C 3.8 24.9 5.29 24.86 5.3 24.9 C 7.2 24.9 7.4 24.5 7.4 21.5 C 7.4 18.4 7.2 18.1 5.3 18.1 C 5.29 18.14 3.8 18.1 3.8 18.1 L 3.8 24.9 Z M 1 15.8 C 1 15.8 5.66 15.78 5.7 15.8 C 9.5 15.8 10.2 16.8 10.2 21.5 C 10.2 26.2 9.5 27.2 5.7 27.2 C 5.66 27.21 3.8 27.2 3.8 27.2 L 3.8 36 L 1 36 L 1 15.8 Z M 11.9 15.8 L 14.7 15.8 L 14.7 24.5 L 18.5 24.5 L 18.5 15.8 L 21.3 15.8 L 21.3 36 L 18.5 36 L 18.5 26.8 L 14.7 26.8 L 14.7 36 L 11.9 36 L 11.9 15.8 Z M 27 15.8 L 30.3 15.8 L 34.4 36 L 31.6 36 L 30.7 30.8 L 26.3 30.8 L 25.4 36 L 22.6 36 L 27 15.8 Z M 26.7 28.5 L 30.3 28.5 L 28.6 18.8 L 28.5 18.8 L 26.7 28.5 Z M 35.4 30.1 L 38.2 30.1 C 38.2 30.1 38.25 31.8 38.2 31.8 C 38.2 33.1 38.8 34 39.9 34 C 41.4 34 41.7 33 41.7 31.7 C 41.7 30 41.6 29.4 38.7 26.5 C 36.9 24.7 35.4 23.1 35.4 20.3 C 35.4 17 37 15.6 40 15.6 C 41.6 15.6 42.6 16.1 43.3 16.7 C 43.8 17.2 44.1 17.9 44.1 19.3 C 44.13 19.31 44.1 21.2 44.1 21.2 L 41.5 21.2 C 41.5 21.2 41.5 19.62 41.5 19.6 C 41.5 18.5 41 17.8 39.9 17.8 C 38.8 17.8 38.2 18.4 38.2 20 C 38.2 21.4 38.5 22.2 41.1 24.9 C 43.8 27.8 44.4 28.7 44.4 31.2 C 44.4 34.3 43.1 36.2 39.8 36.2 C 37.2 36.2 35.4 35.1 35.4 32.6 C 35.45 32.56 35.4 30.1 35.4 30.1 Z M 46.1 15.8 L 53.7 15.8 L 53.7 18.1 L 48.9 18.1 L 48.9 24.5 L 53.5 24.5 L 53.5 26.8 L 48.9 26.8 L 48.9 33.6 L 53.7 33.6 L 53.7 36 L 46.1 36 L 46.1 15.8 Z M 60.1 30.5 L 62.8 30.5 C 62.8 30.5 62.77 31.63 62.8 31.6 C 62.8 33.2 63.2 34.2 64.3 34.2 C 65.5 34.2 65.9 33.2 65.9 31.6 C 65.9 31.6 65.9 29.3 65.9 29.3 C 65.9 27.4 65.4 26.8 63.5 26.8 C 63.47 26.82 62.8 26.8 62.8 26.8 L 62.8 24.5 C 62.8 24.5 63.67 24.46 63.7 24.5 C 65.4 24.5 65.8 24 65.8 22 C 65.8 22 65.8 19.8 65.8 19.8 C 65.8 18.1 65.2 17.6 64.5 17.6 C 63.3 17.6 62.9 18.6 62.9 20.2 C 62.91 20.15 62.9 20.8 62.9 20.8 C 62.9 20.8 60.28 20.82 60.3 20.8 C 60.3 17 61.1 15.6 64.5 15.6 C 67.7 15.6 68.4 17.2 68.4 21 C 68.4 24.5 68 25.2 65.9 25.6 C 65.9 25.6 65.9 25.6 65.9 25.6 C 67.7 25.9 68.5 26.3 68.5 31.2 C 68.5 34.8 67.6 36.2 64.3 36.2 C 61 36.2 60.1 34.8 60.1 31.2 C 60.14 31.18 60.1 30.5 60.1 30.5 Z M 78.5 31.3 C 78.5 33.1 79.3 34 80.4 34 C 81.6 34 82.4 33.1 82.4 31.3 C 82.4 31.3 82.4 20.7 82.4 20.7 C 82.4 18.7 81.7 17.8 80.4 17.8 C 79.2 17.8 78.5 18.7 78.5 20.7 C 78.5 20.7 78.5 31.3 78.5 31.3 Z M 75.7 20.9 C 75.7 18.1 76.6 15.6 80.4 15.6 C 84 15.6 85.2 17.5 85.2 20.6 C 85.2 20.6 85.2 30.8 85.2 30.8 C 85.2 33.7 84.3 36.2 80.4 36.2 C 76.8 36.2 75.7 34.3 75.7 31.2 C 75.7 31.2 75.7 20.9 75.7 20.9 Z M 87.2 15.8 L 90 15.8 L 90 33.6 L 94.7 33.6 L 94.7 36 L 87.2 36 L 87.2 15.8 Z M 96 15.8 L 103.6 15.8 L 103.6 18.1 L 98.8 18.1 L 98.8 24.5 L 103.3 24.5 L 103.3 26.8 L 98.8 26.8 L 98.8 33.6 L 103.6 33.6 L 103.6 36 L 96 36 L 96 15.8 Z M 109.7 30.1 L 112.5 30.1 C 112.5 30.1 112.5 31.8 112.5 31.8 C 112.5 33.1 113 34 114.1 34 C 115.6 34 116 33 116 31.7 C 116 30 115.9 29.4 113 26.5 C 111.2 24.7 109.7 23.1 109.7 20.3 C 109.7 17 111.2 15.6 114.3 15.6 C 115.8 15.6 116.9 16.1 117.6 16.7 C 118 17.2 118.4 17.9 118.4 19.3 C 118.38 19.31 118.4 21.2 118.4 21.2 L 115.7 21.2 C 115.7 21.2 115.75 19.62 115.7 19.6 C 115.7 18.5 115.3 17.8 114.2 17.8 C 113 17.8 112.5 18.4 112.5 20 C 112.5 21.4 112.8 22.2 115.4 24.9 C 118.1 27.8 118.6 28.7 118.6 31.2 C 118.6 34.3 117.4 36.2 114 36.2 C 111.5 36.2 109.7 35.1 109.7 32.6 C 109.7 32.56 109.7 30.1 109.7 30.1 Z M 119.5 15.8 L 129 15.8 L 129 18.1 L 125.7 18.1 L 125.7 36 L 122.9 36 L 122.9 18.1 L 119.5 18.1 L 119.5 15.8 Z M 139.6 31.4 C 139.6 33.8 138.7 36.2 134.9 36.2 C 131.1 36.2 130.1 33.8 130.1 31.4 C 130.14 31.44 130.1 15.8 130.1 15.8 L 132.9 15.8 C 132.9 15.8 132.94 31.91 132.9 31.9 C 132.9 33.3 133.4 34 134.9 34 C 136.3 34 136.8 33.3 136.8 31.9 C 136.83 31.91 136.8 15.8 136.8 15.8 L 139.6 15.8 C 139.6 15.8 139.63 31.44 139.6 31.4 Z M 144.4 33.6 C 144.4 33.6 145.76 33.65 145.8 33.6 C 147.8 33.6 148.2 32.6 148.2 29.1 C 148.2 29.1 148.2 22.1 148.2 22.1 C 148.2 19.1 147.9 18.1 145.5 18.1 C 145.54 18.14 144.4 18.1 144.4 18.1 L 144.4 33.6 Z M 141.6 15.8 C 141.6 15.8 146.13 15.78 146.1 15.8 C 150.7 15.8 151 17.3 151 23.2 C 151 23.2 151 29.2 151 29.2 C 151 34.4 150.1 36 145.7 36 C 145.68 36 141.6 36 141.6 36 L 141.6 15.8 Z M 151.7 15.8 L 154.5 15.8 L 157 24.3 L 157 24.3 L 159.8 15.8 L 162.3 15.8 L 158.4 27.7 L 158.4 36 L 155.6 36 L 155.6 27.7 L 151.7 15.8 Z M 171.7 33.6 C 171.7 33.6 173.09 33.65 173.1 33.6 C 175.2 33.6 175.6 32.6 175.6 29.1 C 175.6 29.1 175.6 22.1 175.6 22.1 C 175.6 19.1 175.2 18.1 172.9 18.1 C 172.87 18.14 171.7 18.1 171.7 18.1 L 171.7 33.6 Z M 168.9 15.8 C 168.9 15.8 173.46 15.78 173.5 15.8 C 178 15.8 178.4 17.3 178.4 23.2 C 178.4 23.2 178.4 29.2 178.4 29.2 C 178.4 34.4 177.4 36 173 36 C 173.01 36 168.9 36 168.9 36 L 168.9 15.8 Z M 180.3 15.8 L 188 15.8 L 188 18.1 L 183.1 18.1 L 183.1 24.5 L 187.7 24.5 L 187.7 26.8 L 183.1 26.8 L 183.1 33.6 L 188 33.6 L 188 36 L 180.3 36 L 180.3 15.8 Z M 188.9 30.1 L 191.7 30.1 C 191.7 30.1 191.66 31.8 191.7 31.8 C 191.7 33.1 192.2 34 193.3 34 C 194.8 34 195.1 33 195.1 31.7 C 195.1 30 195 29.4 192.1 26.5 C 190.3 24.7 188.9 23.1 188.9 20.3 C 188.9 17 190.4 15.6 193.4 15.6 C 195 15.6 196.1 16.1 196.7 16.7 C 197.2 17.2 197.5 17.9 197.5 19.3 C 197.54 19.31 197.5 21.2 197.5 21.2 L 194.9 21.2 C 194.9 21.2 194.9 19.62 194.9 19.6 C 194.9 18.5 194.4 17.8 193.3 17.8 C 192.2 17.8 191.7 18.4 191.7 20 C 191.7 21.4 191.9 22.2 194.5 24.9 C 197.3 27.8 197.8 28.7 197.8 31.2 C 197.8 34.3 196.5 36.2 193.2 36.2 C 190.6 36.2 188.9 35.1 188.9 32.6 C 188.86 32.56 188.9 30.1 188.9 30.1 Z M 199.4 15.8 L 202.2 15.8 L 202.2 36 L 199.4 36 L 199.4 15.8 Z M 210.8 21.1 C 210.8 21.1 210.75 20.1 210.8 20.1 C 210.8 18.7 210.1 17.8 209 17.8 C 207.7 17.8 207 19 207 21.1 C 207 21.1 207 31.3 207 31.3 C 207 32.9 207.8 34 209 34 C 209.7 34 210.4 33.9 210.8 33.8 C 210.75 33.79 210.8 27.9 210.8 27.9 L 208.9 27.9 L 208.9 25.5 L 213.6 25.5 C 213.6 25.5 213.55 35.66 213.6 35.7 C 212.5 35.9 210.5 36.2 208.9 36.2 C 205.4 36.2 204.2 34.3 204.2 31.2 C 204.2 31.2 204.2 20.9 204.2 20.9 C 204.2 17.2 205.4 15.6 209 15.6 C 212 15.6 213.6 16.7 213.6 19.3 C 213.55 19.28 213.6 21.1 213.6 21.1 L 210.8 21.1 Z M 215.6 15.8 L 219.5 15.8 L 222.8 32.6 L 222.8 32.6 L 222.8 15.8 L 225.5 15.8 L 225.5 36 L 221.4 36 L 218.1 18.8 L 218.1 18.8 L 218.1 36 L 215.6 36 L 215.6 15.8 Z M 229.1 17.1 C 229.1 17.1 229.09 17.11 229.1 17.1 C 228.8 17.6 228.4 17.9 227.8 18.3 C 227.8 18.3 227.8 16.8 227.8 16.8 C 228.2 16.5 229.1 15.4 229.3 14.9 C 229.29 14.89 230.7 14.9 230.7 14.9 L 230.7 26.7 L 229.1 26.7 L 229.1 17.1 Z " stroke="none" fill="#003c71"/>  </g></svg>