<?xml version="1.0" standalone="no"?><!DOCTYPE svg PUBLIC "-//W3C//DTD SVG 1.1//EN" "http://www.w3.org/Graphics/SVG/1.1/DTD/svg11.dtd"><svg xmlns="http://www.w3.org/2000/svg" version="1.1" width="29.5px" height="25.3px" viewBox="0 -5 29.5 25.3" style="top:-5px">  <desc>n=57</desc>  <defs/>  <g id="Polygon195064">    <path d="M 5.4 11.3 C 5.4 11.3 5.4 5.84 5.4 5.8 C 5.4 5 5.1 4.3 4 4.3 C 2.6 4.3 2.4 5.6 2.4 6.6 C 2.4 6.63 2.4 11.3 2.4 11.3 L 1.1 11.3 C 1.1 11.3 1.12 5.06 1.1 5.1 C 1.1 4.5 1.1 4 1 3.4 C 1.05 3.42 2.4 3.4 2.4 3.4 L 2.4 4.4 C 2.4 4.4 2.47 4.43 2.5 4.4 C 3 3.5 3.6 3.3 4.6 3.3 C 6.3 3.3 6.7 4.3 6.7 5.8 C 6.68 5.84 6.7 11.3 6.7 11.3 L 5.4 11.3 Z M 14.9 6.3 L 8.5 6.3 L 8.5 5.3 L 14.9 5.3 L 14.9 6.3 Z M 14.9 9.3 L 8.5 9.3 L 8.5 8.4 L 14.9 8.4 L 14.9 9.3 Z M 21.6 0.5 L 21.6 1.7 L 18 1.7 L 18 4.9 C 18 4.9 18 4.9 18 4.9 C 18.2 4.4 19 4.1 19.7 4.1 C 21.3 4.1 22 5.2 22 7.7 C 22 9.5 21.8 11.5 19 11.5 C 16.8 11.5 16.4 10.3 16.4 8.9 C 16.4 8.9 17.8 8.9 17.8 8.9 C 17.8 9.7 18.1 10.5 19.1 10.5 C 20.5 10.5 20.5 9.2 20.5 8.1 C 20.5 6.5 20.5 5.3 19.2 5.3 C 18.4 5.3 18 5.8 17.8 6.6 C 17.83 6.56 16.5 6.6 16.5 6.6 L 16.5 0.5 L 21.6 0.5 Z M 23 0.5 L 28.6 0.5 L 28.6 1.7 L 25.7 11.3 L 24.1 11.3 L 27.1 1.7 L 23 1.7 L 23 0.5 Z " stroke="none" fill="#555555"/>  </g></svg>