<?xml version="1.0" standalone="no"?><!DOCTYPE svg PUBLIC "-//W3C//DTD SVG 1.1//EN" "http://www.w3.org/Graphics/SVG/1.1/DTD/svg11.dtd"><svg xmlns="http://www.w3.org/2000/svg" version="1.1" width="327.3px" height="45.7px" viewBox="0 -1 327.3 45.7" style="top:-1px">  <desc>Low injection volume (1.2 mL)</desc>  <defs/>  <g id="Polygon203364">    <path d="M 1.1 25.7 L 1.1 13.4 L 3.7 13.4 L 3.7 23.6 L 7.5 23.6 L 7.5 25.7 L 1.1 25.7 Z M 12.9 21.1 C 12.9 19.3 12.8 18.4 11.8 18.4 C 10.8 18.4 10.7 19.3 10.7 21.1 C 10.7 23.7 10.9 24.3 11.8 24.3 C 12.7 24.3 12.9 23.7 12.9 21.1 Z M 8.3 21.3 C 8.3 18.9 8.6 16.9 11.8 16.9 C 15 16.9 15.3 18.9 15.3 21.3 C 15.3 23.9 14.9 25.8 11.8 25.8 C 8.7 25.8 8.3 23.9 8.3 21.3 Z M 16.2 17.1 L 18.6 17.1 L 19.8 23.5 L 19.8 23.5 L 21.5 17.1 L 24 17.1 L 25.5 23.5 L 25.5 23.5 L 26.8 17.1 L 29.1 17.1 L 26.8 25.7 L 24.2 25.7 L 22.7 19.8 L 22.7 19.8 L 20.9 25.7 L 18.4 25.7 L 16.2 17.1 Z M 36.6 25.7 L 34.2 25.7 L 34.2 17.1 L 36.6 17.1 L 36.6 25.7 Z M 36.6 13.4 L 36.6 15.3 L 34.2 15.3 L 34.2 13.4 L 36.6 13.4 Z M 41.1 17.9 C 41.1 17.9 41.16 17.94 41.2 17.9 C 41.4 17.5 41.7 17.3 42 17.1 C 42.3 17 42.7 16.9 43.2 16.9 C 44.3 16.9 45.3 17.6 45.3 18.8 C 45.32 18.77 45.3 25.7 45.3 25.7 L 42.9 25.7 C 42.9 25.7 42.92 19.74 42.9 19.7 C 42.9 19 42.8 18.4 42 18.4 C 41.3 18.4 41.1 19 41.1 19.7 C 41.12 19.74 41.1 25.7 41.1 25.7 L 38.7 25.7 L 38.7 17.1 L 41.1 17.1 L 41.1 17.9 Z M 49.8 17.1 C 49.8 17.1 49.83 26.44 49.8 26.4 C 49.8 28.2 49.1 28.9 47.6 28.9 C 47.3 28.9 47.1 28.9 46.8 28.8 C 46.8 28.8 46.8 27.3 46.8 27.3 C 47.1 27.3 47.4 27.3 47.4 26.7 C 47.43 26.67 47.4 17.1 47.4 17.1 L 49.8 17.1 Z M 49.8 13.4 L 49.8 15.3 L 47.4 15.3 L 47.4 13.4 L 49.8 13.4 Z M 56.4 20.4 C 56.4 19.6 56.4 18.4 55.2 18.4 C 54.1 18.4 54.2 19.7 54.2 20.4 C 54.2 20.4 56.4 20.4 56.4 20.4 Z M 54.2 21.7 C 54.2 22.8 54.2 24.3 55.2 24.3 C 56.1 24.3 56.3 23.5 56.3 22.8 C 56.3 22.8 58.7 22.8 58.7 22.8 C 58.7 23.7 58.4 24.5 57.8 25 C 57.2 25.5 56.4 25.8 55.2 25.8 C 52.2 25.8 51.7 23.9 51.7 21.3 C 51.7 18.9 52.1 16.9 55.2 16.9 C 58.5 16.9 58.8 19 58.8 21.7 C 58.8 21.7 54.2 21.7 54.2 21.7 Z M 64.8 20.1 C 64.8 18.9 64.5 18.4 63.7 18.4 C 62.7 18.4 62.6 19.3 62.6 21.1 C 62.6 23.7 62.9 24.3 63.7 24.3 C 64.5 24.3 64.9 23.6 64.9 22.5 C 64.9 22.5 67.3 22.5 67.3 22.5 C 67.3 24.8 66 25.8 63.7 25.8 C 60.7 25.8 60.2 23.9 60.2 21.3 C 60.2 18.9 60.6 16.9 63.7 16.9 C 66 16.9 67.2 17.9 67.2 20.1 C 67.2 20.1 64.8 20.1 64.8 20.1 Z M 68 17.1 L 69 17.1 L 69 15.7 L 71.3 14.6 L 71.3 17.1 L 72.6 17.1 L 72.6 18.5 L 71.3 18.5 C 71.3 18.5 71.35 23.14 71.3 23.1 C 71.3 23.8 71.3 24.2 72.1 24.2 C 72.3 24.2 72.4 24.2 72.5 24.2 C 72.5 24.2 72.5 25.7 72.5 25.7 C 72.2 25.7 71.9 25.7 71.3 25.7 C 69.2 25.7 69 24.4 69 23.8 C 68.95 23.83 69 18.5 69 18.5 L 68 18.5 L 68 17.1 Z M 76.3 25.7 L 73.9 25.7 L 73.9 17.1 L 76.3 17.1 L 76.3 25.7 Z M 76.3 13.4 L 76.3 15.3 L 73.9 15.3 L 73.9 13.4 L 76.3 13.4 Z M 82.8 21.1 C 82.8 19.3 82.7 18.4 81.7 18.4 C 80.7 18.4 80.6 19.3 80.6 21.1 C 80.6 23.7 80.8 24.3 81.7 24.3 C 82.6 24.3 82.8 23.7 82.8 21.1 Z M 78.2 21.3 C 78.2 18.9 78.5 16.9 81.7 16.9 C 84.9 16.9 85.2 18.9 85.2 21.3 C 85.2 23.9 84.8 25.8 81.7 25.8 C 78.6 25.8 78.2 23.9 78.2 21.3 Z M 89.3 17.9 C 89.3 17.9 89.33 17.94 89.3 17.9 C 89.6 17.5 89.9 17.3 90.2 17.1 C 90.5 17 90.9 16.9 91.4 16.9 C 92.5 16.9 93.5 17.6 93.5 18.8 C 93.5 18.77 93.5 25.7 93.5 25.7 L 91.1 25.7 C 91.1 25.7 91.1 19.74 91.1 19.7 C 91.1 19 91 18.4 90.2 18.4 C 89.4 18.4 89.3 19 89.3 19.7 C 89.3 19.74 89.3 25.7 89.3 25.7 L 86.9 25.7 L 86.9 17.1 L 89.3 17.1 L 89.3 17.9 Z M 98.4 17.1 L 100.8 17.1 L 102 23.5 L 102 23.5 L 103.3 17.1 L 105.6 17.1 L 103.3 25.7 L 100.6 25.7 L 98.4 17.1 Z M 111.1 21.1 C 111.1 19.3 111 18.4 110 18.4 C 109 18.4 108.9 19.3 108.9 21.1 C 108.9 23.7 109.1 24.3 110 24.3 C 110.9 24.3 111.1 23.7 111.1 21.1 Z M 106.5 21.3 C 106.5 18.9 106.9 16.9 110 16.9 C 113.2 16.9 113.5 18.9 113.5 21.3 C 113.5 23.9 113.1 25.8 110 25.8 C 106.9 25.8 106.5 23.9 106.5 21.3 Z M 117.8 13.4 L 117.8 25.7 L 115.4 25.7 L 115.4 13.4 L 117.8 13.4 Z M 124.1 24.8 C 124.1 24.8 124.12 24.79 124.1 24.8 C 123.9 25.2 123.6 25.4 123.3 25.6 C 122.9 25.8 122.6 25.8 122.1 25.8 C 121 25.8 120 25.1 120 24 C 119.95 23.95 120 17.1 120 17.1 L 122.3 17.1 C 122.3 17.1 122.35 23.02 122.3 23 C 122.3 23.8 122.5 24.3 123.2 24.3 C 124 24.3 124.1 23.8 124.1 23 C 124.15 23.02 124.1 17.1 124.1 17.1 L 126.5 17.1 C 126.5 17.1 126.55 23.95 126.5 24 C 126.5 24.5 126.6 25.1 126.6 25.7 C 126.63 25.65 124.1 25.7 124.1 25.7 L 124.1 24.8 Z M 130.7 17.9 C 130.7 17.9 130.69 17.94 130.7 17.9 C 131.2 17.2 131.8 16.9 132.7 16.9 C 133.6 16.9 134.2 17.3 134.6 18 C 135.2 17.2 135.9 16.9 136.9 16.9 C 138 16.9 139 17.6 139 18.8 C 139.01 18.77 139 25.7 139 25.7 L 136.6 25.7 C 136.6 25.7 136.61 19.74 136.6 19.7 C 136.6 19 136.5 18.4 135.7 18.4 C 134.9 18.4 134.8 19 134.8 19.7 C 134.81 19.74 134.8 25.7 134.8 25.7 L 132.5 25.7 C 132.5 25.7 132.46 19.74 132.5 19.7 C 132.5 19 132.3 18.4 131.6 18.4 C 130.8 18.4 130.7 19 130.7 19.7 C 130.66 19.74 130.7 25.7 130.7 25.7 L 128.3 25.7 L 128.3 17.1 L 130.7 17.1 L 130.7 17.9 Z M 145.1 20.4 C 145.1 19.6 145.2 18.4 144 18.4 C 142.9 18.4 142.9 19.7 142.9 20.4 C 142.9 20.4 145.1 20.4 145.1 20.4 Z M 142.9 21.7 C 142.9 22.8 143 24.3 144 24.3 C 144.9 24.3 145 23.5 145 22.8 C 145 22.8 147.5 22.8 147.5 22.8 C 147.4 23.7 147.1 24.5 146.6 25 C 146 25.5 145.1 25.8 144 25.8 C 140.9 25.8 140.5 23.9 140.5 21.3 C 140.5 18.9 140.9 16.9 144 16.9 C 147.3 16.9 147.6 19 147.5 21.7 C 147.5 21.7 142.9 21.7 142.9 21.7 Z M 155.8 12.8 C 155.3 14.9 154.6 17.5 154.6 20.1 C 154.6 23.2 155.3 25.6 155.8 27.7 C 155.8 27.7 154.4 27.7 154.4 27.7 C 153.6 25.3 152.6 22.6 152.6 20.1 C 152.6 17.6 153.7 14.6 154.4 12.8 C 154.4 12.8 155.8 12.8 155.8 12.8 Z M 157.6 15.6 C 158.5 15.1 159.3 14.6 159.9 13.8 C 159.9 13.79 162.2 13.8 162.2 13.8 L 162.2 25.7 L 159.6 25.7 C 159.6 25.7 159.61 16.52 159.6 16.5 C 159 17 158.3 17.5 157.6 17.9 C 157.6 17.9 157.6 15.6 157.6 15.6 Z M 167.2 23.4 L 167.2 25.7 L 165.2 25.7 L 165.2 23.4 L 167.2 23.4 Z M 168.3 25.7 C 168.3 25.7 168.3 23.56 168.3 23.6 C 172 18.6 172.8 18 172.8 16.5 C 172.8 15.9 172.6 15.4 171.9 15.4 C 170.9 15.4 170.9 16.3 170.9 17.1 C 170.9 17.1 168.5 17.1 168.5 17.1 C 168.3 14.9 169.6 13.6 171.7 13.6 C 173.8 13.6 175.2 14.5 175.2 16.7 C 175.2 19.4 172.1 22.4 170.8 23.8 C 170.81 23.82 175.3 23.8 175.3 23.8 L 175.3 25.7 L 168.3 25.7 Z M 182.6 17.9 C 182.6 17.9 182.61 17.94 182.6 17.9 C 183.1 17.2 183.7 16.9 184.6 16.9 C 185.5 16.9 186.2 17.3 186.6 18 C 187.1 17.2 187.8 16.9 188.8 16.9 C 189.9 16.9 190.9 17.6 190.9 18.8 C 190.92 18.77 190.9 25.7 190.9 25.7 L 188.5 25.7 C 188.5 25.7 188.53 19.74 188.5 19.7 C 188.5 19 188.4 18.4 187.6 18.4 C 186.9 18.4 186.7 19 186.7 19.7 C 186.73 19.74 186.7 25.7 186.7 25.7 L 184.4 25.7 C 184.4 25.7 184.38 19.74 184.4 19.7 C 184.4 19 184.2 18.4 183.5 18.4 C 182.7 18.4 182.6 19 182.6 19.7 C 182.58 19.74 182.6 25.7 182.6 25.7 L 180.2 25.7 L 180.2 17.1 L 182.6 17.1 L 182.6 17.9 Z M 192.8 25.7 L 192.8 13.4 L 195.3 13.4 L 195.3 23.6 L 199.2 23.6 L 199.2 25.7 L 192.8 25.7 Z M 200.3 27.7 C 200.7 25.6 201.4 23.1 201.4 20.4 C 201.4 17.4 200.7 15 200.3 12.8 C 200.3 12.8 201.6 12.8 201.6 12.8 C 202.4 15.2 203.4 17.9 203.4 20.4 C 203.4 22.9 202.3 26 201.6 27.7 C 201.6 27.7 200.3 27.7 200.3 27.7 Z " stroke="none" fill="#003c71"/>  </g></svg>