<?xml version="1.0" standalone="no"?><!DOCTYPE svg PUBLIC "-//W3C//DTD SVG 1.1//EN" "http://www.w3.org/Graphics/SVG/1.1/DTD/svg11.dtd"><svg xmlns="http://www.w3.org/2000/svg" version="1.1" width="730px" height="41.7px" viewBox="0 -7 730 41.7" style="top:-7px">  <desc>WAO/EAACI GUIDELINE RECOMMENDED GOALS OF TREATMENT1</desc>  <defs/>  <g id="Polygon191364">    <path d="M 0.4 0.1 L 3.2 0.1 L 5.3 16.7 L 5.3 16.7 L 7.6 0.1 L 11.4 0.1 L 13.2 16.7 L 13.3 16.7 L 15.7 0.1 L 18.3 0.1 L 14.7 20.3 L 11.3 20.3 L 9.4 3.4 L 9.3 3.4 L 6.9 20.3 L 3.6 20.3 L 0.4 0.1 Z M 21.8 0.1 L 25 0.1 L 29.1 20.3 L 26.3 20.3 L 25.4 15.1 L 21 15.1 L 20.1 20.3 L 17.3 20.3 L 21.8 0.1 Z M 21.4 12.8 L 25 12.8 L 23.3 3 L 23.2 3 L 21.4 12.8 Z M 33 15.6 C 33 17.3 33.8 18.3 35 18.3 C 36.1 18.3 36.9 17.3 36.9 15.6 C 36.9 15.6 36.9 5 36.9 5 C 36.9 3 36.3 2.1 35 2.1 C 33.7 2.1 33 3 33 5 C 33 5 33 15.6 33 15.6 Z M 30.2 5.2 C 30.2 2.4 31.2 -0.1 35 -0.1 C 38.6 -0.1 39.7 1.8 39.7 4.9 C 39.7 4.9 39.7 15.1 39.7 15.1 C 39.7 17.9 38.8 20.4 35 20.4 C 31.4 20.4 30.2 18.6 30.2 15.4 C 30.2 15.4 30.2 5.2 30.2 5.2 Z M 46.7 -0.1 L 49 -0.1 L 43 20.4 L 40.6 20.4 L 46.7 -0.1 Z M 50 0.1 L 57.6 0.1 L 57.6 2.4 L 52.8 2.4 L 52.8 8.7 L 57.3 8.7 L 57.3 11.1 L 52.8 11.1 L 52.8 17.9 L 57.6 17.9 L 57.6 20.3 L 50 20.3 L 50 0.1 Z M 62.6 0.1 L 65.8 0.1 L 69.9 20.3 L 67.1 20.3 L 66.2 15.1 L 61.8 15.1 L 60.9 20.3 L 58.1 20.3 L 62.6 0.1 Z M 62.2 12.8 L 65.8 12.8 L 64.1 3 L 64 3 L 62.2 12.8 Z M 75 0.1 L 78.2 0.1 L 82.3 20.3 L 79.5 20.3 L 78.6 15.1 L 74.3 15.1 L 73.3 20.3 L 70.5 20.3 L 75 0.1 Z M 74.7 12.8 L 78.2 12.8 L 76.5 3 L 76.4 3 L 74.7 12.8 Z M 83.2 5.2 C 83.2 2.4 84.2 -0.1 88 -0.1 C 90.7 -0.1 92 1.3 92 3.6 C 92.03 3.56 92 5.6 92 5.6 L 89.4 5.6 C 89.4 5.6 89.4 4.17 89.4 4.2 C 89.4 2.9 89 2.1 87.8 2.1 C 86.3 2.1 86 3.1 86 5.5 C 86 5.5 86 15.5 86 15.5 C 86 17.8 86.8 18.3 87.7 18.3 C 88.7 18.3 89.4 17.5 89.4 15.8 C 89.4 15.85 89.4 14.4 89.4 14.4 L 92 14.4 C 92 14.4 92.03 16.69 92 16.7 C 92 18.8 91.2 20.4 87.9 20.4 C 84.4 20.4 83.2 18.6 83.2 15.4 C 83.2 15.4 83.2 5.2 83.2 5.2 Z M 93.3 0.1 L 96.1 0.1 L 96.1 20.3 L 93.3 20.3 L 93.3 0.1 Z M 109.8 5.4 C 109.8 5.4 109.84 4.37 109.8 4.4 C 109.8 2.9 109.1 2.1 108 2.1 C 106.8 2.1 106.1 3.2 106.1 5.4 C 106.1 5.4 106.1 15.6 106.1 15.6 C 106.1 17.2 106.9 18.3 108 18.3 C 108.8 18.3 109.5 18.1 109.8 18.1 C 109.84 18.06 109.8 12.1 109.8 12.1 L 108 12.1 L 108 9.8 L 112.6 9.8 C 112.6 9.8 112.64 19.94 112.6 19.9 C 111.5 20.2 109.6 20.4 108 20.4 C 104.5 20.4 103.3 18.6 103.3 15.4 C 103.3 15.4 103.3 5.2 103.3 5.2 C 103.3 1.4 104.5 -0.1 108.1 -0.1 C 111.1 -0.1 112.6 1 112.6 3.6 C 112.64 3.56 112.6 5.4 112.6 5.4 L 109.8 5.4 Z M 124.1 15.7 C 124.1 18.1 123.2 20.4 119.4 20.4 C 115.6 20.4 114.6 18.1 114.6 15.7 C 114.63 15.71 114.6 0.1 114.6 0.1 L 117.4 0.1 C 117.4 0.1 117.43 16.18 117.4 16.2 C 117.4 17.6 117.9 18.3 119.4 18.3 C 120.8 18.3 121.3 17.6 121.3 16.2 C 121.32 16.18 121.3 0.1 121.3 0.1 L 124.1 0.1 C 124.1 0.1 124.12 15.71 124.1 15.7 Z M 126 0.1 L 128.8 0.1 L 128.8 20.3 L 126 20.3 L 126 0.1 Z M 133.6 17.9 C 133.6 17.9 134.96 17.92 135 17.9 C 137 17.9 137.4 16.8 137.4 13.4 C 137.4 13.4 137.4 6.4 137.4 6.4 C 137.4 3.4 137.1 2.4 134.7 2.4 C 134.73 2.41 133.6 2.4 133.6 2.4 L 133.6 17.9 Z M 130.8 0.1 C 130.8 0.1 135.32 0.06 135.3 0.1 C 139.9 0.1 140.2 1.6 140.2 7.4 C 140.2 7.4 140.2 13.5 140.2 13.5 C 140.2 18.6 139.3 20.3 134.9 20.3 C 134.87 20.27 130.8 20.3 130.8 20.3 L 130.8 0.1 Z M 142.2 0.1 L 149.8 0.1 L 149.8 2.4 L 145 2.4 L 145 8.7 L 149.5 8.7 L 149.5 11.1 L 145 11.1 L 145 17.9 L 149.8 17.9 L 149.8 20.3 L 142.2 20.3 L 142.2 0.1 Z M 151 0.1 L 153.8 0.1 L 153.8 17.9 L 158.5 17.9 L 158.5 20.3 L 151 20.3 L 151 0.1 Z M 159.8 0.1 L 162.6 0.1 L 162.6 20.3 L 159.8 20.3 L 159.8 0.1 Z M 164.6 0.1 L 168.4 0.1 L 171.7 16.9 L 171.8 16.9 L 171.8 0.1 L 174.4 0.1 L 174.4 20.3 L 170.4 20.3 L 167.1 3 L 167 3 L 167 20.3 L 164.6 20.3 L 164.6 0.1 Z M 176.5 0.1 L 184.1 0.1 L 184.1 2.4 L 179.3 2.4 L 179.3 8.7 L 183.8 8.7 L 183.8 11.1 L 179.3 11.1 L 179.3 17.9 L 184.1 17.9 L 184.1 20.3 L 176.5 20.3 L 176.5 0.1 Z M 185 12.1 L 191.8 12.1 L 191.8 14.3 L 185 14.3 L 185 12.1 Z M 193.6 0.1 C 193.6 0.1 197.93 0.06 197.9 0.1 C 202 0.1 202.4 1.1 202.4 5.6 C 202.4 8.3 202.1 9.5 199.8 10.2 C 199.8 10.2 199.8 10.2 199.8 10.2 C 201.7 10.4 202.3 11.4 202.3 13.3 C 202.3 13.3 202.3 17.7 202.3 17.7 C 202.3 18.4 202.3 19.4 202.5 20.3 C 202.5 20.3 199.9 20.3 199.9 20.3 C 199.6 19.8 199.5 19.3 199.5 18.5 C 199.5 18.5 199.5 13.9 199.5 13.9 C 199.5 12 199.2 11.5 197.3 11.5 C 197.34 11.48 196.4 11.5 196.4 11.5 L 196.4 20.3 L 193.6 20.3 L 193.6 0.1 Z M 196.4 9.1 C 196.4 9.1 197.12 9.13 197.1 9.1 C 199.3 9.1 199.6 8.7 199.6 5.7 C 199.6 2.7 199.5 2.4 197.7 2.4 C 197.73 2.41 196.4 2.4 196.4 2.4 L 196.4 9.1 Z M 204.5 0.1 L 212.1 0.1 L 212.1 2.4 L 207.3 2.4 L 207.3 8.7 L 211.8 8.7 L 211.8 11.1 L 207.3 11.1 L 207.3 17.9 L 212.1 17.9 L 212.1 20.3 L 204.5 20.3 L 204.5 0.1 Z M 213 5.2 C 213 2.4 213.9 -0.1 217.7 -0.1 C 220.5 -0.1 221.8 1.3 221.8 3.6 C 221.78 3.56 221.8 5.6 221.8 5.6 L 219.2 5.6 C 219.2 5.6 219.15 4.17 219.2 4.2 C 219.2 2.9 218.7 2.1 217.5 2.1 C 216.1 2.1 215.8 3.1 215.8 5.5 C 215.8 5.5 215.8 15.5 215.8 15.5 C 215.8 17.8 216.5 18.3 217.4 18.3 C 218.5 18.3 219.2 17.5 219.2 15.8 C 219.15 15.85 219.2 14.4 219.2 14.4 L 221.8 14.4 C 221.8 14.4 221.78 16.69 221.8 16.7 C 221.8 18.8 220.9 20.4 217.7 20.4 C 214.1 20.4 213 18.6 213 15.4 C 213 15.4 213 5.2 213 5.2 Z M 225.9 15.6 C 225.9 17.3 226.7 18.3 227.8 18.3 C 229 18.3 229.8 17.3 229.8 15.6 C 229.8 15.6 229.8 5 229.8 5 C 229.8 3 229.1 2.1 227.8 2.1 C 226.5 2.1 225.9 3 225.9 5 C 225.9 5 225.9 15.6 225.9 15.6 Z M 223.1 5.2 C 223.1 2.4 224 -0.1 227.8 -0.1 C 231.4 -0.1 232.6 1.8 232.6 4.9 C 232.6 4.9 232.6 15.1 232.6 15.1 C 232.6 17.9 231.6 20.4 227.8 20.4 C 224.2 20.4 223.1 18.6 223.1 15.4 C 223.1 15.4 223.1 5.2 223.1 5.2 Z M 234.6 0.1 L 239 0.1 L 241.6 15.5 L 241.6 15.5 L 244.2 0.1 L 248.6 0.1 L 248.6 20.3 L 245.9 20.3 L 245.9 2.1 L 245.9 2.1 L 243 20.3 L 240.2 20.3 L 237.1 2.1 L 237 2.1 L 237 20.3 L 234.6 20.3 L 234.6 0.1 Z M 250.6 0.1 L 255.1 0.1 L 257.7 15.5 L 257.7 15.5 L 260.3 0.1 L 264.6 0.1 L 264.6 20.3 L 262 20.3 L 262 2.1 L 261.9 2.1 L 259.1 20.3 L 256.3 20.3 L 253.1 2.1 L 253.1 2.1 L 253.1 20.3 L 250.6 20.3 L 250.6 0.1 Z M 266.7 0.1 L 274.3 0.1 L 274.3 2.4 L 269.5 2.4 L 269.5 8.7 L 274 8.7 L 274 11.1 L 269.5 11.1 L 269.5 17.9 L 274.3 17.9 L 274.3 20.3 L 266.7 20.3 L 266.7 0.1 Z M 275.5 0.1 L 279.4 0.1 L 282.7 16.9 L 282.7 16.9 L 282.7 0.1 L 285.4 0.1 L 285.4 20.3 L 281.3 20.3 L 278 3 L 278 3 L 278 20.3 L 275.5 20.3 L 275.5 0.1 Z M 290.2 17.9 C 290.2 17.9 291.59 17.92 291.6 17.9 C 293.7 17.9 294.1 16.8 294.1 13.4 C 294.1 13.4 294.1 6.4 294.1 6.4 C 294.1 3.4 293.7 2.4 291.4 2.4 C 291.36 2.41 290.2 2.4 290.2 2.4 L 290.2 17.9 Z M 287.4 0.1 C 287.4 0.1 291.95 0.06 292 0.1 C 296.5 0.1 296.9 1.6 296.9 7.4 C 296.9 7.4 296.9 13.5 296.9 13.5 C 296.9 18.6 295.9 20.3 291.5 20.3 C 291.5 20.27 287.4 20.3 287.4 20.3 L 287.4 0.1 Z M 298.8 0.1 L 306.5 0.1 L 306.5 2.4 L 301.6 2.4 L 301.6 8.7 L 306.2 8.7 L 306.2 11.1 L 301.6 11.1 L 301.6 17.9 L 306.5 17.9 L 306.5 20.3 L 298.8 20.3 L 298.8 0.1 Z M 310.5 17.9 C 310.5 17.9 311.8 17.92 311.8 17.9 C 313.9 17.9 314.3 16.8 314.3 13.4 C 314.3 13.4 314.3 6.4 314.3 6.4 C 314.3 3.4 314 2.4 311.6 2.4 C 311.58 2.41 310.5 2.4 310.5 2.4 L 310.5 17.9 Z M 307.7 0.1 C 307.7 0.1 312.17 0.06 312.2 0.1 C 316.7 0.1 317.1 1.6 317.1 7.4 C 317.1 7.4 317.1 13.5 317.1 13.5 C 317.1 18.6 316.1 20.3 311.7 20.3 C 311.72 20.27 307.7 20.3 307.7 20.3 L 307.7 0.1 Z M 330.8 5.4 C 330.8 5.4 330.79 4.37 330.8 4.4 C 330.8 2.9 330.1 2.1 329 2.1 C 327.7 2.1 327.1 3.2 327.1 5.4 C 327.1 5.4 327.1 15.6 327.1 15.6 C 327.1 17.2 327.8 18.3 329 18.3 C 329.8 18.3 330.4 18.1 330.8 18.1 C 330.79 18.06 330.8 12.1 330.8 12.1 L 328.9 12.1 L 328.9 9.8 L 333.6 9.8 C 333.6 9.8 333.59 19.94 333.6 19.9 C 332.5 20.2 330.6 20.4 329 20.4 C 325.4 20.4 324.3 18.6 324.3 15.4 C 324.3 15.4 324.3 5.2 324.3 5.2 C 324.3 1.4 325.4 -0.1 329 -0.1 C 332 -0.1 333.6 1 333.6 3.6 C 333.59 3.56 333.6 5.4 333.6 5.4 L 330.8 5.4 Z M 338.4 15.6 C 338.4 17.3 339.2 18.3 340.3 18.3 C 341.5 18.3 342.3 17.3 342.3 15.6 C 342.3 15.6 342.3 5 342.3 5 C 342.3 3 341.6 2.1 340.3 2.1 C 339 2.1 338.4 3 338.4 5 C 338.4 5 338.4 15.6 338.4 15.6 Z M 335.6 5.2 C 335.6 2.4 336.5 -0.1 340.3 -0.1 C 343.9 -0.1 345.1 1.8 345.1 4.9 C 345.1 4.9 345.1 15.1 345.1 15.1 C 345.1 17.9 344.1 20.4 340.3 20.4 C 336.7 20.4 335.6 18.6 335.6 15.4 C 335.6 15.4 335.6 5.2 335.6 5.2 Z M 350.3 0.1 L 353.5 0.1 L 357.6 20.3 L 354.8 20.3 L 353.9 15.1 L 349.5 15.1 L 348.6 20.3 L 345.8 20.3 L 350.3 0.1 Z M 350 12.8 L 353.5 12.8 L 351.8 3 L 351.7 3 L 350 12.8 Z M 359 0.1 L 361.8 0.1 L 361.8 17.9 L 366.5 17.9 L 366.5 20.3 L 359 20.3 L 359 0.1 Z M 367.5 14.4 L 370.3 14.4 C 370.3 14.4 370.29 16.07 370.3 16.1 C 370.3 17.4 370.8 18.3 371.9 18.3 C 373.4 18.3 373.8 17.2 373.8 15.9 C 373.8 14.2 373.7 13.7 370.8 10.8 C 369 9 367.5 7.4 367.5 4.6 C 367.5 1.3 369 -0.1 372.1 -0.1 C 373.6 -0.1 374.7 0.4 375.4 1 C 375.8 1.5 376.2 2.2 376.2 3.6 C 376.17 3.58 376.2 5.5 376.2 5.5 L 373.5 5.5 C 373.5 5.5 373.54 3.89 373.5 3.9 C 373.5 2.7 373.1 2.1 372 2.1 C 370.8 2.1 370.3 2.7 370.3 4.3 C 370.3 5.7 370.6 6.5 373.1 9.2 C 375.9 12 376.4 13 376.4 15.5 C 376.4 18.6 375.2 20.4 371.8 20.4 C 369.3 20.4 367.5 19.3 367.5 16.8 C 367.49 16.83 367.5 14.4 367.5 14.4 Z M 386.1 15.6 C 386.1 17.3 386.9 18.3 388 18.3 C 389.2 18.3 390 17.3 390 15.6 C 390 15.6 390 5 390 5 C 390 3 389.3 2.1 388 2.1 C 386.8 2.1 386.1 3 386.1 5 C 386.1 5 386.1 15.6 386.1 15.6 Z M 383.3 5.2 C 383.3 2.4 384.2 -0.1 388 -0.1 C 391.6 -0.1 392.8 1.8 392.8 4.9 C 392.8 4.9 392.8 15.1 392.8 15.1 C 392.8 17.9 391.9 20.4 388 20.4 C 384.4 20.4 383.3 18.6 383.3 15.4 C 383.3 15.4 383.3 5.2 383.3 5.2 Z M 394.8 0.1 L 402.4 0.1 L 402.4 2.4 L 397.6 2.4 L 397.6 8.7 L 402.1 8.7 L 402.1 11.1 L 397.6 11.1 L 397.6 20.3 L 394.8 20.3 L 394.8 0.1 Z M 406.9 0.1 L 416.4 0.1 L 416.4 2.4 L 413 2.4 L 413 20.3 L 410.2 20.3 L 410.2 2.4 L 406.9 2.4 L 406.9 0.1 Z M 417.6 0.1 C 417.6 0.1 421.95 0.06 422 0.1 C 426 0.1 426.5 1.1 426.5 5.6 C 426.5 8.3 426.1 9.5 423.8 10.2 C 423.8 10.2 423.8 10.2 423.8 10.2 C 425.7 10.4 426.3 11.4 426.3 13.3 C 426.3 13.3 426.3 17.7 426.3 17.7 C 426.3 18.4 426.3 19.4 426.5 20.3 C 426.5 20.3 423.9 20.3 423.9 20.3 C 423.6 19.8 423.5 19.3 423.5 18.5 C 423.5 18.5 423.5 13.9 423.5 13.9 C 423.5 12 423.2 11.5 421.4 11.5 C 421.36 11.48 420.4 11.5 420.4 11.5 L 420.4 20.3 L 417.6 20.3 L 417.6 0.1 Z M 420.4 9.1 C 420.4 9.1 421.14 9.13 421.1 9.1 C 423.4 9.1 423.7 8.7 423.7 5.7 C 423.7 2.7 423.5 2.4 421.8 2.4 C 421.76 2.41 420.4 2.4 420.4 2.4 L 420.4 9.1 Z M 428.5 0.1 L 436.1 0.1 L 436.1 2.4 L 431.3 2.4 L 431.3 8.7 L 435.8 8.7 L 435.8 11.1 L 431.3 11.1 L 431.3 17.9 L 436.1 17.9 L 436.1 20.3 L 428.5 20.3 L 428.5 0.1 Z M 441 0.1 L 444.3 0.1 L 448.4 20.3 L 445.6 20.3 L 444.7 15.1 L 440.3 15.1 L 439.4 20.3 L 436.6 20.3 L 441 0.1 Z M 440.7 12.8 L 444.3 12.8 L 442.6 3 L 442.5 3 L 440.7 12.8 Z M 446.6 0.1 L 456.2 0.1 L 456.2 2.4 L 452.8 2.4 L 452.8 20.3 L 450 20.3 L 450 2.4 L 446.6 2.4 L 446.6 0.1 Z M 457.4 0.1 L 461.8 0.1 L 464.4 15.5 L 464.5 15.5 L 467 0.1 L 471.4 0.1 L 471.4 20.3 L 468.7 20.3 L 468.7 2.1 L 468.7 2.1 L 465.8 20.3 L 463 20.3 L 459.9 2.1 L 459.8 2.1 L 459.8 20.3 L 457.4 20.3 L 457.4 0.1 Z M 473.4 0.1 L 481.1 0.1 L 481.1 2.4 L 476.2 2.4 L 476.2 8.7 L 480.8 8.7 L 480.8 11.1 L 476.2 11.1 L 476.2 17.9 L 481.1 17.9 L 481.1 20.3 L 473.4 20.3 L 473.4 0.1 Z M 482.3 0.1 L 486.1 0.1 L 489.4 16.9 L 489.5 16.9 L 489.5 0.1 L 492.1 0.1 L 492.1 20.3 L 488.1 20.3 L 484.8 3 L 484.7 3 L 484.7 20.3 L 482.3 20.3 L 482.3 0.1 Z M 493.3 0.1 L 502.8 0.1 L 502.8 2.4 L 499.5 2.4 L 499.5 20.3 L 496.7 20.3 L 496.7 2.4 L 493.3 2.4 L 493.3 0.1 Z M 505.6 1.4 C 505.6 1.4 505.59 1.38 505.6 1.4 C 505.2 1.8 504.9 2.1 504.3 2.6 C 504.3 2.6 504.3 1.1 504.3 1.1 C 504.7 0.8 505.6 -0.3 505.8 -0.8 C 505.78 -0.84 507.2 -0.8 507.2 -0.8 L 507.2 10.9 L 505.6 10.9 L 505.6 1.4 Z " stroke="none" fill="#003c71"/>  </g></svg>