<?xml version="1.0" standalone="no"?><!DOCTYPE svg PUBLIC "-//W3C//DTD SVG 1.1//EN" "http://www.w3.org/Graphics/SVG/1.1/DTD/svg11.dtd"><svg xmlns="http://www.w3.org/2000/svg" version="1.1" width="268.1px" height="41.6px" viewBox="0 -6 268.1 41.6" style="top:-6px">  <desc>…MEAN MONTHLY ATTACK RATE1*</desc>  <defs/>  <g id="Polygon199955">    <path d="M 2.6 14.5 L 5.4 14.5 L 5.4 17.3 L 2.6 17.3 L 2.6 14.5 Z M 10.6 14.5 L 13.4 14.5 L 13.4 17.3 L 10.6 17.3 L 10.6 14.5 Z M 18.5 14.5 L 21.3 14.5 L 21.3 17.3 L 18.5 17.3 L 18.5 14.5 Z M 24.8 0 L 28.6 0 L 30.8 13.2 L 30.9 13.2 L 33.1 0 L 36.8 0 L 36.8 17.3 L 34.5 17.3 L 34.5 1.8 L 34.5 1.8 L 32 17.3 L 29.6 17.3 L 27 1.8 L 26.9 1.8 L 26.9 17.3 L 24.8 17.3 L 24.8 0 Z M 38.5 0 L 45 0 L 45 2.1 L 40.9 2.1 L 40.9 7.5 L 44.8 7.5 L 44.8 9.5 L 40.9 9.5 L 40.9 15.3 L 45 15.3 L 45 17.3 L 38.5 17.3 L 38.5 0 Z M 49.3 0 L 52 0 L 55.6 17.3 L 53.2 17.3 L 52.4 12.9 L 48.6 12.9 L 47.8 17.3 L 45.5 17.3 L 49.3 0 Z M 49 10.9 L 52 10.9 L 50.6 2.6 L 50.5 2.6 L 49 10.9 Z M 56.7 0 L 60 0 L 62.8 14.4 L 62.9 14.4 L 62.9 0 L 65.1 0 L 65.1 17.3 L 61.7 17.3 L 58.9 2.6 L 58.8 2.6 L 58.8 17.3 L 56.7 17.3 L 56.7 0 Z M 71.3 0 L 75.1 0 L 77.3 13.2 L 77.4 13.2 L 79.6 0 L 83.3 0 L 83.3 17.3 L 81.1 17.3 L 81.1 1.8 L 81 1.8 L 78.6 17.3 L 76.2 17.3 L 73.5 1.8 L 73.4 1.8 L 73.4 17.3 L 71.3 17.3 L 71.3 0 Z M 87.4 13.3 C 87.4 14.8 88.1 15.6 89 15.6 C 90 15.6 90.7 14.8 90.7 13.3 C 90.7 13.3 90.7 4.3 90.7 4.3 C 90.7 2.6 90.1 1.8 89 1.8 C 88 1.8 87.4 2.6 87.4 4.3 C 87.4 4.3 87.4 13.3 87.4 13.3 Z M 85 4.4 C 85 2 85.8 -0.1 89 -0.1 C 92.1 -0.1 93.1 1.5 93.1 4.2 C 93.1 4.2 93.1 12.9 93.1 12.9 C 93.1 15.3 92.3 17.5 89 17.5 C 86 17.5 85 15.9 85 13.2 C 85 13.2 85 4.4 85 4.4 Z M 94.8 0 L 98.1 0 L 100.9 14.4 L 101 14.4 L 101 0 L 103.2 0 L 103.2 17.3 L 99.8 17.3 L 97 2.6 L 96.9 2.6 L 96.9 17.3 L 94.8 17.3 L 94.8 0 Z M 104.3 0 L 112.4 0 L 112.4 2.1 L 109.5 2.1 L 109.5 17.3 L 107.1 17.3 L 107.1 2.1 L 104.3 2.1 L 104.3 0 Z M 113.4 0 L 115.8 0 L 115.8 7.5 L 119 7.5 L 119 0 L 121.4 0 L 121.4 17.3 L 119 17.3 L 119 9.5 L 115.8 9.5 L 115.8 17.3 L 113.4 17.3 L 113.4 0 Z M 123.2 0 L 125.6 0 L 125.6 15.3 L 129.6 15.3 L 129.6 17.3 L 123.2 17.3 L 123.2 0 Z M 127.5 0 L 129.9 0 L 132 7.3 L 132 7.3 L 134.4 0 L 136.5 0 L 133.2 10.2 L 133.2 17.3 L 130.8 17.3 L 130.8 10.2 L 127.5 0 Z M 144.5 0 L 147.3 0 L 150.8 17.3 L 148.4 17.3 L 147.6 12.9 L 143.9 12.9 L 143.1 17.3 L 140.7 17.3 L 144.5 0 Z M 144.3 10.9 L 147.3 10.9 L 145.8 2.6 L 145.8 2.6 L 144.3 10.9 Z M 149.3 0 L 157.4 0 L 157.4 2.1 L 154.6 2.1 L 154.6 17.3 L 152.2 17.3 L 152.2 2.1 L 149.3 2.1 L 149.3 0 Z M 157.7 0 L 165.9 0 L 165.9 2.1 L 163 2.1 L 163 17.3 L 160.6 17.3 L 160.6 2.1 L 157.7 2.1 L 157.7 0 Z M 168.2 0 L 170.9 0 L 174.5 17.3 L 172.1 17.3 L 171.3 12.9 L 167.5 12.9 L 166.8 17.3 L 164.4 17.3 L 168.2 0 Z M 167.9 10.9 L 170.9 10.9 L 169.5 2.6 L 169.4 2.6 L 167.9 10.9 Z M 175.2 4.4 C 175.2 2 176 -0.1 179.3 -0.1 C 181.6 -0.1 182.7 1.1 182.7 3 C 182.73 3.04 182.7 4.8 182.7 4.8 L 180.5 4.8 C 180.5 4.8 180.48 3.56 180.5 3.6 C 180.5 2.5 180.1 1.8 179.1 1.8 C 177.9 1.8 177.6 2.7 177.6 4.7 C 177.6 4.7 177.6 13.2 177.6 13.2 C 177.6 15.2 178.3 15.6 179 15.6 C 179.9 15.6 180.5 15 180.5 13.5 C 180.48 13.54 180.5 12.3 180.5 12.3 L 182.7 12.3 C 182.7 12.3 182.73 14.26 182.7 14.3 C 182.7 16.1 182 17.5 179.2 17.5 C 176.2 17.5 175.2 15.9 175.2 13.2 C 175.2 13.2 175.2 4.4 175.2 4.4 Z M 183.9 0 L 186.3 0 L 186.3 7.9 L 186.3 7.9 L 190.1 0 L 192.5 0 L 188.5 8.2 L 192.8 17.3 L 190.1 17.3 L 186.3 8.7 L 186.3 8.7 L 186.3 17.3 L 183.9 17.3 L 183.9 0 Z M 198.1 0 C 198.1 0 201.8 0.05 201.8 0 C 205.3 0 205.7 1 205.7 4.8 C 205.7 7.1 205.3 8.1 203.4 8.7 C 203.4 8.7 203.4 8.7 203.4 8.7 C 205 8.9 205.6 9.7 205.6 11.4 C 205.6 11.4 205.6 15.1 205.6 15.1 C 205.6 15.7 205.6 16.6 205.7 17.3 C 205.7 17.3 203.4 17.3 203.4 17.3 C 203.2 16.9 203.2 16.5 203.2 15.8 C 203.2 15.8 203.2 11.9 203.2 11.9 C 203.2 10.2 202.9 9.8 201.3 9.8 C 201.3 9.81 200.5 9.8 200.5 9.8 L 200.5 17.3 L 198.1 17.3 L 198.1 0 Z M 200.5 7.8 C 200.5 7.8 201.1 7.8 201.1 7.8 C 203 7.8 203.3 7.4 203.3 4.9 C 203.3 2.3 203.1 2.1 201.6 2.1 C 201.63 2.06 200.5 2.1 200.5 2.1 L 200.5 7.8 Z M 210.6 0 L 213.4 0 L 216.9 17.3 L 214.5 17.3 L 213.7 12.9 L 210 12.9 L 209.2 17.3 L 206.8 17.3 L 210.6 0 Z M 210.3 10.9 L 213.4 10.9 L 211.9 2.6 L 211.8 2.6 L 210.3 10.9 Z M 215.4 0 L 223.5 0 L 223.5 2.1 L 220.6 2.1 L 220.6 17.3 L 218.2 17.3 L 218.2 2.1 L 215.4 2.1 L 215.4 0 Z M 224.5 0 L 231 0 L 231 2.1 L 226.9 2.1 L 226.9 7.5 L 230.8 7.5 L 230.8 9.5 L 226.9 9.5 L 226.9 15.3 L 231 15.3 L 231 17.3 L 224.5 17.3 L 224.5 0 Z M 233.4 1.2 C 233.4 1.2 233.38 1.18 233.4 1.2 C 233.1 1.6 232.8 1.8 232.3 2.2 C 232.3 2.2 232.3 0.9 232.3 0.9 C 232.6 0.7 233.4 -0.3 233.5 -0.7 C 233.55 -0.72 234.7 -0.7 234.7 -0.7 L 234.7 9.4 L 233.4 9.4 L 233.4 1.2 Z M 236.7 2.3 L 237.3 1.1 L 239.4 2.6 L 239.3 0 L 240.5 0 L 240.4 2.6 L 242.5 1.1 L 243.1 2.3 L 240.8 3.4 L 243.1 4.5 L 242.5 5.7 L 240.4 4.3 L 240.5 6.8 L 239.3 6.8 L 239.4 4.3 L 237.3 5.7 L 236.7 4.5 L 239 3.4 L 236.7 2.3 Z " stroke="none" fill="#003c71"/>  </g></svg>