<?xml version="1.0" standalone="no"?><!DOCTYPE svg PUBLIC "-//W3C//DTD SVG 1.1//EN" "http://www.w3.org/Graphics/SVG/1.1/DTD/svg11.dtd"><svg xmlns="http://www.w3.org/2000/svg" version="1.1" width="327.3px" height="118.7px" viewBox="0 -1 327.3 118.7" style="top:-1px">  <desc>ANDEMBRY® can be stored up to 25°C for a single period of up to 2 months. Do not return to refrigerator, once kept at...</desc>  <defs/>  <g id="Polygon203565">    <path d="M 2.5 96.1 C 2.5 96.9 2.9 97.7 3.8 97.7 C 4.7 97.7 5.7 97.1 5.6 94.4 C 4.3 94.4 2.5 94.3 2.5 96.1 Z M 5.6 97.4 C 5.6 97.4 5.61 97.4 5.6 97.4 C 5.2 98.4 4.5 98.8 3.5 98.8 C 1.6 98.8 1.1 97.6 1.1 96 C 1.1 93.4 3.7 93.3 5.6 93.3 C 5.6 92.2 5.7 90.9 4.2 90.9 C 3.2 90.9 2.7 91.6 2.8 92.5 C 2.8 92.5 1.3 92.5 1.3 92.5 C 1.4 90.6 2.4 89.9 4.2 89.9 C 6.4 89.9 7 91 7 92.5 C 7 92.5 7 96.6 7 96.6 C 7 97.3 7.1 98 7.2 98.6 C 7.17 98.64 5.6 98.6 5.6 98.6 L 5.6 97.4 Z M 9.9 90.1 L 9.9 88.4 L 11.3 87.8 L 11.3 90.1 L 13.1 90.1 L 13.1 91.1 L 11.3 91.1 C 11.3 91.1 11.27 96.37 11.3 96.4 C 11.3 96.9 11.3 97.6 12.5 97.6 C 12.6 97.6 12.9 97.6 13.2 97.5 C 13.2 97.5 13.2 98.6 13.2 98.6 C 12.7 98.6 12.3 98.7 11.8 98.7 C 10.5 98.7 9.9 98.2 9.9 97.2 C 9.88 97.22 9.9 91.1 9.9 91.1 L 8.5 91.1 L 8.5 90.1 L 9.9 90.1 Z M 19.7 91.4 C 19.7 91.4 19.7 91.35 19.7 91.4 C 20.3 90 21 89.9 22.4 89.9 C 22.4 89.9 22.4 91.3 22.4 91.3 C 22.2 91.3 22.1 91.3 22 91.3 C 21.9 91.3 21.7 91.2 21.6 91.2 C 20.1 91.2 19.7 92.4 19.7 93.6 C 19.67 93.58 19.7 98.6 19.7 98.6 L 18.3 98.6 L 18.3 90.1 L 19.7 90.1 L 19.7 91.4 Z M 28.7 93.9 C 28.7 91.5 28 91 26.9 91 C 25.8 91 25.1 91.5 25.1 93.9 C 25.1 96.7 25.5 97.7 26.9 97.7 C 28.4 97.7 28.7 96.7 28.7 93.9 Z M 23.6 94.5 C 23.6 92 23.9 89.9 26.9 89.9 C 29.9 89.9 30.2 92 30.2 94.5 C 30.2 98.3 28.7 98.8 26.9 98.8 C 25.1 98.8 23.6 98.3 23.6 94.5 Z M 37.2 93.9 C 37.2 91.5 36.5 91 35.4 91 C 34.3 91 33.6 91.5 33.6 93.9 C 33.6 96.7 34 97.7 35.4 97.7 C 36.9 97.7 37.2 96.7 37.2 93.9 Z M 32.1 94.5 C 32.1 92 32.4 89.9 35.4 89.9 C 38.4 89.9 38.7 92 38.7 94.5 C 38.7 98.3 37.2 98.8 35.4 98.8 C 33.6 98.8 32.1 98.3 32.1 94.5 Z M 45.1 98.6 C 45.1 98.6 45.1 92.69 45.1 92.7 C 45.1 91.8 44.9 91 43.7 91 C 43.3 91 42.7 91.3 42.5 91.6 C 42.3 92 42.2 92.5 42.2 92.9 C 42.21 92.86 42.2 98.6 42.2 98.6 L 40.8 98.6 C 40.8 98.6 40.82 91.84 40.8 91.8 C 40.8 91.2 40.8 90.7 40.7 90.1 C 40.73 90.06 42.2 90.1 42.2 90.1 L 42.2 91.1 C 42.2 91.1 42.24 91.13 42.2 91.1 C 42.7 90.2 43.4 89.9 44.4 89.9 C 45.2 89.9 46.1 90.2 46.4 91 C 46.9 90.1 47.7 89.9 48.4 89.9 C 49.3 89.9 50.8 90.1 50.8 92.1 C 50.78 92.12 50.8 98.6 50.8 98.6 L 49.4 98.6 C 49.4 98.6 49.38 92.69 49.4 92.7 C 49.4 91.8 49.1 91 48 91 C 47.5 91 47.3 91 47 91.4 C 46.6 91.7 46.5 92.5 46.5 92.9 C 46.49 92.86 46.5 98.6 46.5 98.6 L 45.1 98.6 Z M 57.1 90.1 L 57.1 88.4 L 58.5 87.8 L 58.5 90.1 L 60.3 90.1 L 60.3 91.1 L 58.5 91.1 C 58.5 91.1 58.48 96.37 58.5 96.4 C 58.5 96.9 58.5 97.6 59.8 97.6 C 59.9 97.6 60.1 97.6 60.4 97.5 C 60.4 97.5 60.4 98.6 60.4 98.6 C 59.9 98.6 59.5 98.7 59 98.7 C 57.7 98.7 57.1 98.2 57.1 97.2 C 57.09 97.22 57.1 91.1 57.1 91.1 L 55.7 91.1 L 55.7 90.1 L 57.1 90.1 Z M 66.4 93.7 C 66.4 91.2 65.7 90.9 64.7 90.9 C 63.8 90.9 63 91.4 63 93.7 C 63 93.7 66.4 93.7 66.4 93.7 Z M 63 94.8 C 63 97.2 63.7 97.7 64.8 97.7 C 65.7 97.7 66.2 96.9 66.2 96 C 66.2 96 67.8 96 67.8 96 C 67.8 97.9 66.6 98.8 64.8 98.8 C 63 98.8 61.5 98.3 61.5 94.5 C 61.5 92 61.8 89.9 64.8 89.9 C 67.2 89.9 67.8 91.2 67.8 94.1 C 67.85 94.07 67.8 94.8 67.8 94.8 C 67.8 94.8 63.02 94.8 63 94.8 Z M 74.4 98.6 C 74.4 98.6 74.37 92.69 74.4 92.7 C 74.4 91.8 74.1 91 73 91 C 72.6 91 72 91.3 71.8 91.6 C 71.6 92 71.5 92.5 71.5 92.9 C 71.48 92.86 71.5 98.6 71.5 98.6 L 70.1 98.6 C 70.1 98.6 70.09 91.84 70.1 91.8 C 70.1 91.2 70.1 90.7 70 90.1 C 70.01 90.06 71.5 90.1 71.5 90.1 L 71.5 91.1 C 71.5 91.1 71.52 91.13 71.5 91.1 C 71.9 90.2 72.7 89.9 73.7 89.9 C 74.4 89.9 75.3 90.2 75.7 91 C 76.1 90.1 76.9 89.9 77.7 89.9 C 78.6 89.9 80.1 90.1 80.1 92.1 C 80.05 92.12 80.1 98.6 80.1 98.6 L 78.7 98.6 C 78.7 98.6 78.66 92.69 78.7 92.7 C 78.7 91.8 78.4 91 77.3 91 C 76.8 91 76.6 91 76.2 91.4 C 75.8 91.7 75.8 92.5 75.8 92.9 C 75.77 92.86 75.8 98.6 75.8 98.6 L 74.4 98.6 Z M 87.3 94.2 C 87.3 92.9 87.3 91 85.5 91 C 83.8 91 83.9 93.4 83.9 94.7 C 83.9 95.9 84 97.7 85.6 97.7 C 87.1 97.7 87.3 96.5 87.3 94.2 Z M 83.9 91.1 C 83.9 91.1 83.98 91.08 84 91.1 C 84.5 90.3 85 89.9 86 89.9 C 87.3 89.9 88.7 90.4 88.7 94.2 C 88.7 96.3 88.7 98.8 85.9 98.8 C 85.1 98.8 84.5 98.5 84 97.8 C 84 97.78 83.9 97.8 83.9 97.8 L 83.9 101.9 L 82.6 101.9 L 82.6 90.1 L 83.9 90.1 L 83.9 91.1 Z M 95.6 93.7 C 95.6 91.2 94.9 90.9 93.9 90.9 C 93 90.9 92.3 91.4 92.3 93.7 C 92.3 93.7 95.6 93.7 95.6 93.7 Z M 92.3 94.8 C 92.3 97.2 92.9 97.7 94 97.7 C 95 97.7 95.5 96.9 95.5 96 C 95.5 96 97.1 96 97.1 96 C 97 97.9 95.9 98.8 94.1 98.8 C 92.2 98.8 90.8 98.3 90.8 94.5 C 90.8 92 91.1 89.9 94.1 89.9 C 96.5 89.9 97.1 91.2 97.1 94.1 C 97.12 94.07 97.1 94.8 97.1 94.8 C 97.1 94.8 92.29 94.8 92.3 94.8 Z M 100.9 91.4 C 100.9 91.4 100.91 91.35 100.9 91.4 C 101.5 90 102.2 89.9 103.6 89.9 C 103.6 89.9 103.6 91.3 103.6 91.3 C 103.4 91.3 103.3 91.3 103.2 91.3 C 103.1 91.3 103 91.2 102.8 91.2 C 101.3 91.2 100.9 92.4 100.9 93.6 C 100.88 93.58 100.9 98.6 100.9 98.6 L 99.5 98.6 L 99.5 90.1 L 100.9 90.1 L 100.9 91.4 Z M 106.4 96.1 C 106.4 96.9 106.8 97.7 107.7 97.7 C 108.6 97.7 109.6 97.1 109.5 94.4 C 108.2 94.4 106.4 94.3 106.4 96.1 Z M 109.5 97.4 C 109.5 97.4 109.48 97.4 109.5 97.4 C 109.1 98.4 108.4 98.8 107.3 98.8 C 105.5 98.8 105 97.6 105 96 C 105 93.4 107.5 93.3 109.5 93.3 C 109.5 92.2 109.5 90.9 108 90.9 C 107.1 90.9 106.6 91.6 106.7 92.5 C 106.7 92.5 105.2 92.5 105.2 92.5 C 105.2 90.6 106.3 89.9 108.1 89.9 C 110.3 89.9 110.9 91 110.9 92.5 C 110.9 92.5 110.9 96.6 110.9 96.6 C 110.9 97.3 110.9 98 111 98.6 C 111.04 98.64 109.5 98.6 109.5 98.6 L 109.5 97.4 Z M 113.7 90.1 L 113.7 88.4 L 115.1 87.8 L 115.1 90.1 L 117 90.1 L 117 91.1 L 115.1 91.1 C 115.1 91.1 115.14 96.37 115.1 96.4 C 115.1 96.9 115.1 97.6 116.4 97.6 C 116.5 97.6 116.7 97.6 117 97.5 C 117 97.5 117 98.6 117 98.6 C 116.6 98.6 116.1 98.7 115.7 98.7 C 114.3 98.7 113.7 98.2 113.7 97.2 C 113.75 97.22 113.7 91.1 113.7 91.1 L 112.3 91.1 L 112.3 90.1 L 113.7 90.1 Z M 122.9 90.1 L 124.3 90.1 C 124.3 90.1 124.3 96.86 124.3 96.9 C 124.3 97.5 124.3 98 124.4 98.6 C 124.39 98.64 122.9 98.6 122.9 98.6 L 122.9 97.6 C 122.9 97.6 122.86 97.61 122.9 97.6 C 122.4 98.4 121.6 98.8 120.7 98.8 C 119.2 98.8 118.4 98.1 118.4 96.6 C 118.37 96.6 118.4 90.1 118.4 90.1 L 119.8 90.1 C 119.8 90.1 119.76 96.01 119.8 96 C 119.8 97 120.2 97.7 121.2 97.7 C 122 97.7 122.9 97.2 122.9 95.8 C 122.91 95.75 122.9 90.1 122.9 90.1 Z M 128.3 91.4 C 128.3 91.4 128.3 91.35 128.3 91.4 C 128.9 90 129.6 89.9 130.9 89.9 C 130.9 89.9 130.9 91.3 130.9 91.3 C 130.8 91.3 130.7 91.3 130.6 91.3 C 130.5 91.3 130.3 91.2 130.2 91.2 C 128.7 91.2 128.3 92.4 128.3 93.6 C 128.26 93.58 128.3 98.6 128.3 98.6 L 126.9 98.6 L 126.9 90.1 L 128.3 90.1 L 128.3 91.4 Z M 137.2 93.7 C 137.2 91.2 136.5 90.9 135.5 90.9 C 134.6 90.9 133.9 91.4 133.8 93.7 C 133.8 93.7 137.2 93.7 137.2 93.7 Z M 133.8 94.8 C 133.8 97.2 134.5 97.7 135.6 97.7 C 136.5 97.7 137 96.9 137.1 96 C 137.1 96 138.6 96 138.6 96 C 138.6 97.9 137.4 98.8 135.6 98.8 C 133.8 98.8 132.3 98.3 132.3 94.5 C 132.3 92 132.6 89.9 135.6 89.9 C 138.1 89.9 138.7 91.2 138.7 94.1 C 138.67 94.07 138.7 94.8 138.7 94.8 C 138.7 94.8 133.84 94.8 133.8 94.8 Z M 142.4 98.6 L 140.8 98.6 L 140.8 96.9 L 142.4 96.9 L 142.4 98.6 Z " stroke="none" fill="#003c71"/>  </g>  <g id="Polygon203564">    <path d="M 3 76.9 C 3 76.9 4.45 76.88 4.5 76.9 C 6.6 76.9 7.4 76.1 7.4 73.2 C 7.4 73.2 7.4 70.7 7.4 70.7 C 7.4 68.2 6.7 67.3 5 67.3 C 5.03 67.33 3 67.3 3 67.3 L 3 76.9 Z M 1.4 66 C 1.4 66 5.19 65.97 5.2 66 C 6.7 66 7.9 66.5 8.5 67.8 C 9 68.9 9 71.3 9 71.7 C 9 74.3 8.8 75.8 8.3 76.7 C 7.6 77.7 6.4 78.2 4.2 78.2 C 4.23 78.24 1.4 78.2 1.4 78.2 L 1.4 66 Z M 16.4 73.5 C 16.4 71.1 15.7 70.6 14.6 70.6 C 13.6 70.6 12.8 71.1 12.8 73.5 C 12.8 76.3 13.2 77.3 14.6 77.3 C 16.1 77.3 16.4 76.3 16.4 73.5 Z M 11.4 74.1 C 11.4 71.6 11.7 69.5 14.6 69.5 C 17.6 69.5 17.9 71.6 17.9 74.1 C 17.9 77.9 16.5 78.4 14.6 78.4 C 12.8 78.4 11.4 77.9 11.4 74.1 Z M 28.5 78.2 C 28.5 78.2 28.54 72.29 28.5 72.3 C 28.5 71.4 28.2 70.6 27 70.6 C 25.5 70.6 25.3 72 25.3 73.2 C 25.28 73.16 25.3 78.2 25.3 78.2 L 23.9 78.2 C 23.9 78.2 23.88 71.44 23.9 71.4 C 23.9 70.8 23.9 70.3 23.8 69.7 C 23.8 69.66 25.3 69.7 25.3 69.7 L 25.3 70.8 C 25.3 70.8 25.35 70.76 25.3 70.8 C 25.9 69.8 26.5 69.5 27.6 69.5 C 29.5 69.5 29.9 70.6 29.9 72.3 C 29.94 72.29 29.9 78.2 29.9 78.2 L 28.5 78.2 Z M 37.2 73.5 C 37.2 71.1 36.5 70.6 35.4 70.6 C 34.3 70.6 33.6 71.1 33.6 73.5 C 33.6 76.3 34 77.3 35.4 77.3 C 36.9 77.3 37.2 76.3 37.2 73.5 Z M 32.1 74.1 C 32.1 71.6 32.4 69.5 35.4 69.5 C 38.4 69.5 38.7 71.6 38.7 74.1 C 38.7 77.9 37.2 78.4 35.4 78.4 C 33.6 78.4 32.1 77.9 32.1 74.1 Z M 41 69.7 L 41 68 L 42.4 67.4 L 42.4 69.7 L 44.3 69.7 L 44.3 70.7 L 42.4 70.7 C 42.4 70.7 42.43 75.97 42.4 76 C 42.4 76.5 42.4 77.2 43.7 77.2 C 43.8 77.2 44 77.2 44.3 77.1 C 44.3 77.1 44.3 78.2 44.3 78.2 C 43.9 78.2 43.4 78.3 43 78.3 C 41.6 78.3 41 77.8 41 76.8 C 41.04 76.82 41 70.7 41 70.7 L 39.6 70.7 L 39.6 69.7 L 41 69.7 Z M 50.8 71 C 50.8 71 50.86 70.95 50.9 71 C 51.4 69.6 52.2 69.5 53.5 69.5 C 53.5 69.5 53.5 70.9 53.5 70.9 C 53.4 70.9 53.3 70.9 53.1 70.9 C 53 70.9 52.9 70.8 52.8 70.8 C 51.2 70.8 50.8 72 50.8 73.2 C 50.83 73.18 50.8 78.2 50.8 78.2 L 49.4 78.2 L 49.4 69.7 L 50.8 69.7 L 50.8 71 Z M 59.8 73.3 C 59.8 70.8 59.1 70.5 58 70.5 C 57.2 70.5 56.4 71 56.4 73.3 C 56.4 73.3 59.8 73.3 59.8 73.3 Z M 56.4 74.4 C 56.4 76.8 57.1 77.3 58.1 77.3 C 59.1 77.3 59.6 76.5 59.6 75.6 C 59.6 75.6 61.2 75.6 61.2 75.6 C 61.1 77.5 60 78.4 58.2 78.4 C 56.4 78.4 54.9 77.9 54.9 74.1 C 54.9 71.6 55.2 69.5 58.2 69.5 C 60.6 69.5 61.2 70.8 61.2 73.7 C 61.23 73.67 61.2 74.4 61.2 74.4 C 61.2 74.4 56.41 74.4 56.4 74.4 Z M 63.7 69.7 L 63.7 68 L 65.1 67.4 L 65.1 69.7 L 67 69.7 L 67 70.7 L 65.1 70.7 C 65.1 70.7 65.09 75.97 65.1 76 C 65.1 76.5 65.1 77.2 66.4 77.2 C 66.5 77.2 66.7 77.2 67 77.1 C 67 77.1 67 78.2 67 78.2 C 66.5 78.2 66.1 78.3 65.6 78.3 C 64.3 78.3 63.7 77.8 63.7 76.8 C 63.7 76.82 63.7 70.7 63.7 70.7 L 62.3 70.7 L 62.3 69.7 L 63.7 69.7 Z M 72.9 69.7 L 74.3 69.7 C 74.3 69.7 74.26 76.46 74.3 76.5 C 74.3 77.1 74.3 77.6 74.3 78.2 C 74.34 78.24 72.9 78.2 72.9 78.2 L 72.9 77.2 C 72.9 77.2 72.81 77.21 72.8 77.2 C 72.4 78 71.5 78.4 70.6 78.4 C 69.1 78.4 68.3 77.7 68.3 76.2 C 68.32 76.2 68.3 69.7 68.3 69.7 L 69.7 69.7 C 69.7 69.7 69.72 75.61 69.7 75.6 C 69.7 76.6 70.2 77.3 71.2 77.3 C 71.9 77.3 72.9 76.8 72.9 75.4 C 72.86 75.35 72.9 69.7 72.9 69.7 Z M 78.2 71 C 78.2 71 78.25 70.95 78.3 71 C 78.8 69.6 79.5 69.5 80.9 69.5 C 80.9 69.5 80.9 70.9 80.9 70.9 C 80.8 70.9 80.6 70.9 80.5 70.9 C 80.4 70.9 80.3 70.8 80.2 70.8 C 78.6 70.8 78.2 72 78.2 73.2 C 78.22 73.18 78.2 78.2 78.2 78.2 L 76.8 78.2 L 76.8 69.7 L 78.2 69.7 L 78.2 71 Z M 87.1 78.2 C 87.1 78.2 87.09 72.29 87.1 72.3 C 87.1 71.4 86.8 70.6 85.6 70.6 C 84 70.6 83.8 72 83.8 73.2 C 83.83 73.16 83.8 78.2 83.8 78.2 L 82.4 78.2 C 82.4 78.2 82.43 71.44 82.4 71.4 C 82.4 70.8 82.4 70.3 82.3 69.7 C 82.35 69.66 83.8 69.7 83.8 69.7 L 83.8 70.8 C 83.8 70.8 83.89 70.76 83.9 70.8 C 84.4 69.8 85.1 69.5 86.2 69.5 C 88 69.5 88.5 70.6 88.5 72.3 C 88.48 72.29 88.5 78.2 88.5 78.2 L 87.1 78.2 Z M 94.9 69.7 L 94.9 68 L 96.3 67.4 L 96.3 69.7 L 98.1 69.7 L 98.1 70.7 L 96.3 70.7 C 96.3 70.7 96.25 75.97 96.3 76 C 96.3 76.5 96.3 77.2 97.5 77.2 C 97.6 77.2 97.9 77.2 98.2 77.1 C 98.2 77.1 98.2 78.2 98.2 78.2 C 97.7 78.2 97.2 78.3 96.8 78.3 C 95.5 78.3 94.9 77.8 94.9 76.8 C 94.86 76.82 94.9 70.7 94.9 70.7 L 93.4 70.7 L 93.4 69.7 L 94.9 69.7 Z M 104.3 73.5 C 104.3 71.1 103.5 70.6 102.5 70.6 C 101.4 70.6 100.7 71.1 100.7 73.5 C 100.7 76.3 101 77.3 102.5 77.3 C 103.9 77.3 104.3 76.3 104.3 73.5 Z M 99.2 74.1 C 99.2 71.6 99.5 69.5 102.5 69.5 C 105.4 69.5 105.7 71.6 105.7 74.1 C 105.7 77.9 104.3 78.4 102.5 78.4 C 100.6 78.4 99.2 77.9 99.2 74.1 Z M 113.2 71 C 113.2 71 113.18 70.95 113.2 71 C 113.8 69.6 114.5 69.5 115.8 69.5 C 115.8 69.5 115.8 70.9 115.8 70.9 C 115.7 70.9 115.6 70.9 115.5 70.9 C 115.3 70.9 115.2 70.8 115.1 70.8 C 113.5 70.8 113.2 72 113.2 73.2 C 113.15 73.18 113.2 78.2 113.2 78.2 L 111.8 78.2 L 111.8 69.7 L 113.2 69.7 L 113.2 71 Z M 122.1 73.3 C 122.1 70.8 121.4 70.5 120.4 70.5 C 119.5 70.5 118.7 71 118.7 73.3 C 118.7 73.3 122.1 73.3 122.1 73.3 Z M 118.7 74.4 C 118.7 76.8 119.4 77.3 120.5 77.3 C 121.4 77.3 121.9 76.5 122 75.6 C 122 75.6 123.5 75.6 123.5 75.6 C 123.5 77.5 122.3 78.4 120.5 78.4 C 118.7 78.4 117.2 77.9 117.2 74.1 C 117.2 71.6 117.5 69.5 120.5 69.5 C 122.9 69.5 123.6 70.8 123.6 73.7 C 123.55 73.67 123.6 74.4 123.6 74.4 C 123.6 74.4 118.73 74.4 118.7 74.4 Z M 126.1 69.7 C 126.1 69.7 126.12 67.99 126.1 68 C 126.1 66.3 127.3 65.9 128.6 65.9 C 128.9 65.9 129 65.9 129.2 66 C 129.2 66 129.2 67 129.2 67 C 127.8 66.9 127.5 67.5 127.5 68.2 C 127.52 68.2 127.5 69.7 127.5 69.7 L 129.2 69.7 L 129.2 70.7 L 127.5 70.7 L 127.5 78.2 L 126.1 78.2 L 126.1 70.7 L 124.8 70.7 L 124.8 69.7 L 126.1 69.7 Z M 132 71 C 132 71 132.07 70.95 132.1 71 C 132.6 69.6 133.4 69.5 134.7 69.5 C 134.7 69.5 134.7 70.9 134.7 70.9 C 134.6 70.9 134.5 70.9 134.3 70.9 C 134.2 70.9 134.1 70.8 134 70.8 C 132.4 70.8 132 72 132 73.2 C 132.04 73.18 132 78.2 132 78.2 L 130.6 78.2 L 130.6 69.7 L 132 69.7 L 132 71 Z M 137.6 78.2 L 136.2 78.2 L 136.2 69.7 L 137.6 69.7 L 137.6 78.2 Z M 136.1 66 L 137.7 66 L 137.7 67.5 L 136.1 67.5 L 136.1 66 Z M 142.9 70.6 C 141.4 70.6 141.3 72.5 141.3 73.7 C 141.3 76.4 141.9 77.1 143 77.1 C 144.7 77.1 144.6 75.1 144.6 73.9 C 144.6 72.6 144.7 70.6 142.9 70.6 Z M 144.6 69.7 L 146 69.7 C 146 69.7 145.96 79.11 146 79.1 C 146 81 144.7 81.5 142.8 81.5 C 141.4 81.5 140.1 80.8 140.2 79.2 C 140.2 79.2 141.8 79.2 141.8 79.2 C 141.8 80 142.3 80.4 143.1 80.4 C 144 80.4 144.6 79.8 144.6 79 C 144.57 78.96 144.6 77.2 144.6 77.2 C 144.6 77.2 144.52 77.17 144.5 77.2 C 144.2 77.9 143.4 78.2 142.6 78.2 C 140.3 78.2 139.8 76.2 139.8 73.7 C 139.8 69.7 141.8 69.5 142.5 69.5 C 143.4 69.5 144.1 69.9 144.5 70.7 C 144.53 70.71 144.6 70.7 144.6 70.7 L 144.6 69.7 Z M 153.2 73.3 C 153.2 70.8 152.5 70.5 151.5 70.5 C 150.6 70.5 149.9 71 149.9 73.3 C 149.9 73.3 153.2 73.3 153.2 73.3 Z M 149.9 74.4 C 149.9 76.8 150.5 77.3 151.6 77.3 C 152.6 77.3 153.1 76.5 153.1 75.6 C 153.1 75.6 154.6 75.6 154.6 75.6 C 154.6 77.5 153.5 78.4 151.7 78.4 C 149.8 78.4 148.4 77.9 148.4 74.1 C 148.4 71.6 148.7 69.5 151.7 69.5 C 154.1 69.5 154.7 70.8 154.7 73.7 C 154.72 73.67 154.7 74.4 154.7 74.4 C 154.7 74.4 149.89 74.4 149.9 74.4 Z M 158.5 71 C 158.5 71 158.51 70.95 158.5 71 C 159.1 69.6 159.8 69.5 161.2 69.5 C 161.2 69.5 161.2 70.9 161.2 70.9 C 161 70.9 160.9 70.9 160.8 70.9 C 160.7 70.9 160.5 70.8 160.4 70.8 C 158.9 70.8 158.5 72 158.5 73.2 C 158.47 73.18 158.5 78.2 158.5 78.2 L 157.1 78.2 L 157.1 69.7 L 158.5 69.7 L 158.5 71 Z M 164 75.7 C 164 76.5 164.4 77.3 165.3 77.3 C 166.2 77.3 167.2 76.7 167.1 74 C 165.7 74 164 73.9 164 75.7 Z M 167.1 77 C 167.1 77 167.07 77 167.1 77 C 166.6 78 166 78.4 164.9 78.4 C 163.1 78.4 162.6 77.2 162.6 75.6 C 162.6 73 165.1 72.9 167.1 72.9 C 167.1 71.8 167.1 70.5 165.6 70.5 C 164.7 70.5 164.2 71.2 164.3 72.1 C 164.3 72.1 162.8 72.1 162.8 72.1 C 162.8 70.2 163.9 69.5 165.7 69.5 C 167.9 69.5 168.5 70.6 168.5 72.1 C 168.5 72.1 168.5 76.2 168.5 76.2 C 168.5 76.9 168.5 77.6 168.6 78.2 C 168.64 78.24 167.1 78.2 167.1 78.2 L 167.1 77 Z M 171.3 69.7 L 171.3 68 L 172.7 67.4 L 172.7 69.7 L 174.6 69.7 L 174.6 70.7 L 172.7 70.7 C 172.7 70.7 172.73 75.97 172.7 76 C 172.7 76.5 172.7 77.2 174 77.2 C 174.1 77.2 174.3 77.2 174.6 77.1 C 174.6 77.1 174.6 78.2 174.6 78.2 C 174.2 78.2 173.7 78.3 173.3 78.3 C 171.9 78.3 171.3 77.8 171.3 76.8 C 171.34 76.82 171.3 70.7 171.3 70.7 L 169.9 70.7 L 169.9 69.7 L 171.3 69.7 Z M 180.7 73.5 C 180.7 71.1 180 70.6 178.9 70.6 C 177.9 70.6 177.1 71.1 177.1 73.5 C 177.1 76.3 177.5 77.3 178.9 77.3 C 180.4 77.3 180.7 76.3 180.7 73.5 Z M 175.7 74.1 C 175.7 71.6 176 69.5 178.9 69.5 C 181.9 69.5 182.2 71.6 182.2 74.1 C 182.2 77.9 180.8 78.4 178.9 78.4 C 177.1 78.4 175.7 77.9 175.7 74.1 Z M 185.9 71 C 185.9 71 185.89 70.95 185.9 71 C 186.5 69.6 187.2 69.5 188.5 69.5 C 188.5 69.5 188.5 70.9 188.5 70.9 C 188.4 70.9 188.3 70.9 188.2 70.9 C 188.1 70.9 187.9 70.8 187.8 70.8 C 186.2 70.8 185.9 72 185.9 73.2 C 185.86 73.18 185.9 78.2 185.9 78.2 L 184.5 78.2 L 184.5 69.7 L 185.9 69.7 L 185.9 71 Z M 189.1 76.5 L 190.9 76.5 L 189.3 80.4 L 188.2 80.4 L 189.1 76.5 Z M 201.3 73.5 C 201.3 71.1 200.5 70.6 199.5 70.6 C 198.4 70.6 197.7 71.1 197.7 73.5 C 197.7 76.3 198 77.3 199.5 77.3 C 200.9 77.3 201.3 76.3 201.3 73.5 Z M 196.2 74.1 C 196.2 71.6 196.5 69.5 199.5 69.5 C 202.4 69.5 202.7 71.6 202.7 74.1 C 202.7 77.9 201.3 78.4 199.5 78.4 C 197.6 78.4 196.2 77.9 196.2 74.1 Z M 209.6 78.2 C 209.6 78.2 209.59 72.29 209.6 72.3 C 209.6 71.4 209.3 70.6 208.1 70.6 C 206.5 70.6 206.3 72 206.3 73.2 C 206.33 73.16 206.3 78.2 206.3 78.2 L 204.9 78.2 C 204.9 78.2 204.93 71.44 204.9 71.4 C 204.9 70.8 204.9 70.3 204.8 69.7 C 204.85 69.66 206.3 69.7 206.3 69.7 L 206.3 70.8 C 206.3 70.8 206.39 70.76 206.4 70.8 C 206.9 69.8 207.6 69.5 208.7 69.5 C 210.5 69.5 211 70.6 211 72.3 C 210.98 72.29 211 78.2 211 78.2 L 209.6 78.2 Z M 217.9 72.4 C 218 71 217.3 70.6 216.7 70.6 C 215.7 70.6 214.9 71.1 214.9 73.5 C 214.9 76.3 215.3 77.3 216.7 77.3 C 217.1 77.3 218 76.9 218 75.4 C 218 75.4 219.4 75.4 219.4 75.4 C 219.5 77.8 217.7 78.4 216.7 78.4 C 214.9 78.4 213.5 77.9 213.5 74.1 C 213.5 71.6 213.8 69.5 216.7 69.5 C 218.4 69.5 219.5 70.5 219.4 72.4 C 219.4 72.4 217.9 72.4 217.9 72.4 Z M 226.6 73.3 C 226.6 70.8 225.9 70.5 224.9 70.5 C 224 70.5 223.3 71 223.3 73.3 C 223.3 73.3 226.6 73.3 226.6 73.3 Z M 223.3 74.4 C 223.3 76.8 223.9 77.3 225 77.3 C 226 77.3 226.5 76.5 226.5 75.6 C 226.5 75.6 228.1 75.6 228.1 75.6 C 228 77.5 226.9 78.4 225.1 78.4 C 223.2 78.4 221.8 77.9 221.8 74.1 C 221.8 71.6 222.1 69.5 225.1 69.5 C 227.5 69.5 228.1 70.8 228.1 73.7 C 228.12 73.67 228.1 74.4 228.1 74.4 C 228.1 74.4 223.29 74.4 223.3 74.4 Z M 235.6 78.2 L 234.2 78.2 L 234.2 66 L 235.6 66 L 235.6 73.4 L 235.6 73.4 L 238.3 69.7 L 240 69.7 L 237.1 73.3 L 240.5 78.2 L 238.7 78.2 L 235.6 73.4 L 235.6 73.4 L 235.6 78.2 Z M 246.5 73.3 C 246.5 70.8 245.8 70.5 244.7 70.5 C 243.9 70.5 243.1 71 243.1 73.3 C 243.1 73.3 246.5 73.3 246.5 73.3 Z M 243.1 74.4 C 243.1 76.8 243.8 77.3 244.8 77.3 C 245.8 77.3 246.3 76.5 246.3 75.6 C 246.3 75.6 247.9 75.6 247.9 75.6 C 247.9 77.5 246.7 78.4 244.9 78.4 C 243.1 78.4 241.6 77.9 241.6 74.1 C 241.6 71.6 241.9 69.5 244.9 69.5 C 247.3 69.5 247.9 70.8 247.9 73.7 C 247.94 73.67 247.9 74.4 247.9 74.4 C 247.9 74.4 243.11 74.4 243.1 74.4 Z M 255.1 73.8 C 255.1 72.5 255.1 70.6 253.3 70.6 C 251.6 70.6 251.8 73 251.8 74.3 C 251.8 75.5 251.8 77.3 253.4 77.3 C 254.9 77.3 255.1 76.1 255.1 73.8 Z M 251.8 70.7 C 251.8 70.7 251.8 70.68 251.8 70.7 C 252.3 69.9 252.9 69.5 253.8 69.5 C 255.1 69.5 256.5 70 256.5 73.8 C 256.5 75.9 256.5 78.4 253.7 78.4 C 252.9 78.4 252.3 78.1 251.8 77.4 C 251.82 77.38 251.8 77.4 251.8 77.4 L 251.8 81.5 L 250.4 81.5 L 250.4 69.7 L 251.8 69.7 L 251.8 70.7 Z M 258.9 69.7 L 258.9 68 L 260.3 67.4 L 260.3 69.7 L 262.2 69.7 L 262.2 70.7 L 260.3 70.7 C 260.3 70.7 260.3 75.97 260.3 76 C 260.3 76.5 260.3 77.2 261.6 77.2 C 261.7 77.2 261.9 77.2 262.2 77.1 C 262.2 77.1 262.2 78.2 262.2 78.2 C 261.7 78.2 261.3 78.3 260.8 78.3 C 259.5 78.3 258.9 77.8 258.9 76.8 C 258.91 76.82 258.9 70.7 258.9 70.7 L 257.5 70.7 L 257.5 69.7 L 258.9 69.7 Z " stroke="none" fill="#003c71"/>  </g>  <g id="Polygon203563">    <path d="M 4.6 35 C 3.7 35 3.5 35.4 3.5 36.2 C 3.47 36.22 3.5 37.3 3.5 37.3 L 4.6 37.3 L 4.6 38.7 L 3.5 38.7 L 3.5 45.8 L 1.1 45.8 L 1.1 38.7 L 0 38.7 L 0 37.3 C 0 37.3 1.09 37.26 1.1 37.3 C 1.1 34.8 0.9 33.5 3.8 33.5 C 4.1 33.5 4.4 33.5 4.6 33.5 C 4.6 33.5 4.6 35 4.6 35 Z M 10.1 41.3 C 10.1 39.5 10 38.6 9 38.6 C 8 38.6 7.9 39.5 7.9 41.3 C 7.9 43.9 8.1 44.5 9 44.5 C 9.9 44.5 10.1 43.9 10.1 41.3 Z M 5.5 41.4 C 5.5 39.1 5.8 37.1 9 37.1 C 12.1 37.1 12.5 39.1 12.5 41.4 C 12.5 44.1 12.1 46 9 46 C 5.9 46 5.5 44.1 5.5 41.4 Z M 16.5 37.3 L 16.5 38.4 C 16.5 38.4 16.49 38.36 16.5 38.4 C 16.9 37.4 17.7 37.1 18.7 37.1 C 18.7 37.1 18.7 39.2 18.7 39.2 C 16.6 39.1 16.6 40.3 16.6 41.2 C 16.57 41.17 16.6 45.8 16.6 45.8 L 14.2 45.8 L 14.2 37.3 L 16.5 37.3 Z M 25.7 43.2 C 25.7 43.8 25.8 44.5 26.6 44.5 C 28 44.5 27.8 42.6 27.8 41.7 C 26.6 41.7 25.7 41.6 25.7 43.2 Z M 30.1 44.2 C 30.1 44.8 30.2 45.3 30.2 45.8 C 30.24 45.84 28 45.8 28 45.8 L 27.9 44.7 C 27.9 44.7 27.88 44.7 27.9 44.7 C 27.4 45.6 26.7 46 25.6 46 C 24 46 23.4 44.8 23.4 43.3 C 23.4 40.4 25.6 40.3 27.8 40.4 C 27.8 40.4 27.8 39.7 27.8 39.7 C 27.8 39 27.7 38.4 26.8 38.4 C 26 38.4 25.9 39.1 25.9 39.7 C 25.9 39.7 23.6 39.7 23.6 39.7 C 23.6 38.7 23.9 38 24.4 37.6 C 25 37.2 25.8 37.1 26.7 37.1 C 29.7 37.1 30.1 38.4 30.1 40 C 30.1 40 30.1 44.2 30.1 44.2 Z M 37.8 43.1 C 37.8 43.5 37.8 43.9 37.9 44.1 C 38 44.4 38.3 44.5 38.8 44.5 C 39.2 44.5 39.6 44.2 39.6 43.7 C 39.6 41.8 35.4 42.2 35.4 39.5 C 35.4 37.6 37.3 37.1 38.8 37.1 C 40.4 37.1 41.9 37.9 41.8 39.7 C 41.8 39.7 39.4 39.7 39.4 39.7 C 39.4 39.1 39.4 38.8 39.2 38.6 C 39 38.5 38.8 38.4 38.6 38.4 C 38.1 38.4 37.8 38.8 37.8 39.3 C 37.8 40.7 42 40.6 42 43.4 C 42 44.9 40.8 46 38.8 46 C 36.7 46 35.3 45.5 35.4 43.1 C 35.4 43.1 37.8 43.1 37.8 43.1 Z M 46 45.8 L 43.6 45.8 L 43.6 37.3 L 46 37.3 L 46 45.8 Z M 46 33.6 L 46 35.5 L 43.6 35.5 L 43.6 33.6 L 46 33.6 Z M 50.6 38.1 C 50.6 38.1 50.59 38.13 50.6 38.1 C 50.8 37.7 51.1 37.5 51.4 37.3 C 51.8 37.2 52.2 37.1 52.6 37.1 C 53.8 37.1 54.8 37.8 54.8 39 C 54.76 38.96 54.8 45.8 54.8 45.8 L 52.4 45.8 C 52.4 45.8 52.36 39.93 52.4 39.9 C 52.4 39.2 52.2 38.6 51.5 38.6 C 50.7 38.6 50.6 39.2 50.6 39.9 C 50.56 39.93 50.6 45.8 50.6 45.8 L 48.2 45.8 L 48.2 37.3 L 50.6 37.3 L 50.6 38.1 Z M 59.8 44.2 C 60.7 44.2 60.8 43.3 60.8 41.5 C 60.8 39.6 60.7 38.6 59.9 38.6 C 59 38.6 58.8 39.2 58.8 41.8 C 58.8 42.6 58.7 44.2 59.8 44.2 Z M 63.2 37.3 C 63.2 37.3 63.22 46.2 63.2 46.2 C 63.2 46.8 63.3 49.1 60 49.1 C 58.2 49.1 56.6 48.7 56.6 46.6 C 56.6 46.6 58.9 46.6 58.9 46.6 C 58.9 46.9 59 47.3 59.1 47.5 C 59.3 47.7 59.6 47.8 59.9 47.8 C 60.5 47.8 60.8 47.2 60.8 46.4 C 60.83 46.37 60.8 44.7 60.8 44.7 C 60.8 44.7 60.79 44.72 60.8 44.7 C 60.4 45.4 59.8 45.7 59 45.7 C 56.3 45.7 56.5 43.3 56.5 41.4 C 56.5 39.5 56.5 37.1 59 37.1 C 59.8 37.1 60.6 37.5 60.9 38.3 C 60.91 38.26 60.9 38.3 60.9 38.3 L 60.9 37.3 L 63.2 37.3 Z M 67.8 33.6 L 67.8 45.8 L 65.4 45.8 L 65.4 33.6 L 67.8 33.6 Z M 74.3 40.6 C 74.3 39.8 74.3 38.6 73.2 38.6 C 72.1 38.6 72.1 39.9 72.1 40.6 C 72.1 40.6 74.3 40.6 74.3 40.6 Z M 72.1 41.9 C 72.1 43 72.1 44.5 73.2 44.5 C 74 44.5 74.2 43.7 74.2 43 C 74.2 43 76.6 43 76.6 43 C 76.6 43.9 76.3 44.7 75.7 45.2 C 75.2 45.7 74.3 46 73.2 46 C 70.1 46 69.7 44.1 69.7 41.4 C 69.7 39.1 70 37.1 73.2 37.1 C 76.4 37.1 76.8 39.2 76.7 41.9 C 76.7 41.9 72.1 41.9 72.1 41.9 Z M 86.5 41.5 C 86.5 39.8 86.6 38.6 85.5 38.6 C 84.5 38.6 84.6 39.8 84.6 41.5 C 84.6 43.6 84.7 44.5 85.5 44.5 C 86.4 44.5 86.5 43.6 86.5 41.5 Z M 84.4 37.3 L 84.4 38.2 C 84.4 38.2 84.47 38.21 84.5 38.2 C 84.9 37.4 85.6 37.1 86.5 37.1 C 89 37.1 88.9 39.8 88.9 41.6 C 88.9 43.3 89 46 86.5 46 C 85.7 46 85.1 45.8 84.6 45 C 84.59 45.03 84.6 45 84.6 45 L 84.6 49.5 L 82.2 49.5 L 82.2 37.3 L 84.4 37.3 Z M 95.1 40.6 C 95.1 39.8 95.1 38.6 94 38.6 C 92.9 38.6 92.9 39.9 92.9 40.6 C 92.9 40.6 95.1 40.6 95.1 40.6 Z M 92.9 41.9 C 92.9 43 92.9 44.5 94 44.5 C 94.8 44.5 95 43.7 95 43 C 95 43 97.4 43 97.4 43 C 97.4 43.9 97.1 44.7 96.5 45.2 C 95.9 45.7 95.1 46 94 46 C 90.9 46 90.5 44.1 90.5 41.4 C 90.5 39.1 90.8 37.1 94 37.1 C 97.2 37.1 97.5 39.2 97.5 41.9 C 97.5 41.9 92.9 41.9 92.9 41.9 Z M 101.4 37.3 L 101.4 38.4 C 101.4 38.4 101.47 38.36 101.5 38.4 C 101.9 37.4 102.7 37.1 103.7 37.1 C 103.7 37.1 103.7 39.2 103.7 39.2 C 101.6 39.1 101.6 40.3 101.6 41.2 C 101.56 41.17 101.6 45.8 101.6 45.8 L 99.2 45.8 L 99.2 37.3 L 101.4 37.3 Z M 107.4 45.8 L 105 45.8 L 105 37.3 L 107.4 37.3 L 107.4 45.8 Z M 107.4 33.6 L 107.4 35.5 L 105 35.5 L 105 33.6 L 107.4 33.6 Z M 113.9 41.3 C 113.9 39.5 113.9 38.6 112.8 38.6 C 111.8 38.6 111.7 39.5 111.7 41.3 C 111.7 43.9 112 44.5 112.8 44.5 C 113.7 44.5 113.9 43.9 113.9 41.3 Z M 109.3 41.4 C 109.3 39.1 109.7 37.1 112.8 37.1 C 116 37.1 116.3 39.1 116.3 41.4 C 116.3 44.1 115.9 46 112.8 46 C 109.8 46 109.3 44.1 109.3 41.4 Z M 122.2 41.5 C 122.2 39.8 122.2 38.6 121.2 38.6 C 120.2 38.6 120.2 39.8 120.2 41.5 C 120.2 43.6 120.4 44.5 121.2 44.5 C 122.1 44.5 122.2 43.6 122.2 41.5 Z M 122.3 45.8 L 122.3 44.9 C 122.3 44.9 122.3 44.89 122.3 44.9 C 121.9 45.7 121.2 46 120.3 46 C 117.8 46 117.9 43.3 117.9 41.5 C 117.9 39.8 117.8 37.1 120.2 37.1 C 121.1 37.1 121.7 37.3 122.2 38.1 C 122.18 38.07 122.2 38.1 122.2 38.1 L 122.2 33.6 L 124.6 33.6 L 124.6 45.8 L 122.3 45.8 Z M 134.7 41.3 C 134.7 39.5 134.6 38.6 133.6 38.6 C 132.6 38.6 132.5 39.5 132.5 41.3 C 132.5 43.9 132.7 44.5 133.6 44.5 C 134.5 44.5 134.7 43.9 134.7 41.3 Z M 130.1 41.4 C 130.1 39.1 130.5 37.1 133.6 37.1 C 136.8 37.1 137.1 39.1 137.1 41.4 C 137.1 44.1 136.7 46 133.6 46 C 130.5 46 130.1 44.1 130.1 41.4 Z M 142.5 35 C 141.5 35 141.3 35.4 141.3 36.2 C 141.34 36.22 141.3 37.3 141.3 37.3 L 142.5 37.3 L 142.5 38.7 L 141.3 38.7 L 141.3 45.8 L 138.9 45.8 L 138.9 38.7 L 137.9 38.7 L 137.9 37.3 C 137.9 37.3 138.96 37.26 139 37.3 C 138.9 34.8 138.7 33.5 141.7 33.5 C 141.9 33.5 142.2 33.5 142.5 33.5 C 142.5 33.5 142.5 35 142.5 35 Z M 151.5 45 C 151.5 45 151.49 44.98 151.5 45 C 151.2 45.4 151 45.6 150.6 45.8 C 150.3 45.9 149.9 46 149.5 46 C 148.3 46 147.3 45.3 147.3 44.1 C 147.32 44.14 147.3 37.3 147.3 37.3 L 149.7 37.3 C 149.7 37.3 149.72 43.21 149.7 43.2 C 149.7 44 149.9 44.5 150.6 44.5 C 151.4 44.5 151.5 44 151.5 43.2 C 151.52 43.21 151.5 37.3 151.5 37.3 L 153.9 37.3 C 153.9 37.3 153.92 44.14 153.9 44.1 C 153.9 44.7 154 45.3 154 45.8 C 154 45.84 151.5 45.8 151.5 45.8 L 151.5 45 Z M 160.2 41.5 C 160.2 39.8 160.2 38.6 159.2 38.6 C 158.2 38.6 158.2 39.8 158.2 41.5 C 158.2 43.6 158.4 44.5 159.2 44.5 C 160.1 44.5 160.2 43.6 160.2 41.5 Z M 158.1 37.3 L 158.1 38.2 C 158.1 38.2 158.13 38.21 158.1 38.2 C 158.6 37.4 159.2 37.1 160.2 37.1 C 162.6 37.1 162.6 39.8 162.6 41.6 C 162.6 43.3 162.6 46 160.2 46 C 159.3 46 158.7 45.8 158.3 45 C 158.25 45.03 158.2 45 158.2 45 L 158.2 49.5 L 155.8 49.5 L 155.8 37.3 L 158.1 37.3 Z M 167.1 37.3 L 168.1 37.3 L 168.1 35.9 L 170.5 34.8 L 170.5 37.3 L 171.7 37.3 L 171.7 38.7 L 170.5 38.7 C 170.5 38.7 170.49 43.33 170.5 43.3 C 170.5 44 170.5 44.4 171.3 44.4 C 171.4 44.4 171.6 44.4 171.7 44.4 C 171.7 44.4 171.7 45.8 171.7 45.8 C 171.4 45.9 171 45.9 170.4 45.9 C 168.4 45.9 168.1 44.6 168.1 44 C 168.09 44.02 168.1 38.7 168.1 38.7 L 167.1 38.7 L 167.1 37.3 Z M 177.2 41.3 C 177.2 39.5 177.1 38.6 176.1 38.6 C 175.1 38.6 175 39.5 175 41.3 C 175 43.9 175.2 44.5 176.1 44.5 C 177 44.5 177.2 43.9 177.2 41.3 Z M 172.6 41.4 C 172.6 39.1 173 37.1 176.1 37.1 C 179.3 37.1 179.6 39.1 179.6 41.4 C 179.6 44.1 179.2 46 176.1 46 C 173 46 172.6 44.1 172.6 41.4 Z M 184.3 45.8 C 184.3 45.8 184.35 43.75 184.3 43.8 C 188.1 38.8 188.9 38.2 188.9 36.7 C 188.9 36.1 188.6 35.6 188 35.6 C 187 35.6 186.9 36.5 186.9 37.3 C 186.9 37.3 184.5 37.3 184.5 37.3 C 184.4 35 185.6 33.8 187.8 33.8 C 189.9 33.8 191.3 34.7 191.3 36.9 C 191.3 39.6 188.2 42.6 186.9 44 C 186.86 44.01 191.4 44 191.4 44 L 191.4 45.8 L 184.3 45.8 Z M 198.6 38.1 C 198.6 38.1 198.66 38.13 198.7 38.1 C 199.1 37.4 199.8 37.1 200.7 37.1 C 201.5 37.1 202.2 37.5 202.6 38.2 C 203.2 37.4 203.8 37.1 204.8 37.1 C 206 37.1 207 37.8 207 39 C 206.97 38.96 207 45.8 207 45.8 L 204.6 45.8 C 204.6 45.8 204.58 39.93 204.6 39.9 C 204.6 39.2 204.4 38.6 203.7 38.6 C 202.9 38.6 202.8 39.2 202.8 39.9 C 202.77 39.93 202.8 45.8 202.8 45.8 L 200.4 45.8 C 200.4 45.8 200.43 39.93 200.4 39.9 C 200.4 39.2 200.3 38.6 199.5 38.6 C 198.8 38.6 198.6 39.2 198.6 39.9 C 198.63 39.93 198.6 45.8 198.6 45.8 L 196.2 45.8 L 196.2 37.3 L 198.6 37.3 L 198.6 38.1 Z M 213.1 41.3 C 213.1 39.5 213 38.6 212 38.6 C 211 38.6 210.9 39.5 210.9 41.3 C 210.9 43.9 211.1 44.5 212 44.5 C 212.9 44.5 213.1 43.9 213.1 41.3 Z M 208.5 41.4 C 208.5 39.1 208.8 37.1 212 37.1 C 215.1 37.1 215.5 39.1 215.5 41.4 C 215.5 44.1 215.1 46 212 46 C 208.9 46 208.5 44.1 208.5 41.4 Z M 219.6 38.1 C 219.6 38.1 219.62 38.13 219.6 38.1 C 219.9 37.7 220.1 37.5 220.5 37.3 C 220.8 37.2 221.2 37.1 221.6 37.1 C 222.8 37.1 223.8 37.8 223.8 39 C 223.78 38.96 223.8 45.8 223.8 45.8 L 221.4 45.8 C 221.4 45.8 221.39 39.93 221.4 39.9 C 221.4 39.2 221.3 38.6 220.5 38.6 C 219.7 38.6 219.6 39.2 219.6 39.9 C 219.59 39.93 219.6 45.8 219.6 45.8 L 217.2 45.8 L 217.2 37.3 L 219.6 37.3 L 219.6 38.1 Z M 224.7 37.3 L 225.7 37.3 L 225.7 35.9 L 228.1 34.8 L 228.1 37.3 L 229.3 37.3 L 229.3 38.7 L 228.1 38.7 C 228.1 38.7 228.09 43.33 228.1 43.3 C 228.1 44 228.1 44.4 228.9 44.4 C 229 44.4 229.2 44.4 229.3 44.4 C 229.3 44.4 229.3 45.8 229.3 45.8 C 229 45.9 228.6 45.9 228 45.9 C 226 45.9 225.7 44.6 225.7 44 C 225.69 44.02 225.7 38.7 225.7 38.7 L 224.7 38.7 L 224.7 37.3 Z M 234.6 45.8 C 234.6 45.8 234.61 39.93 234.6 39.9 C 234.6 39.2 234.5 38.6 233.7 38.6 C 232.9 38.6 232.8 39.2 232.8 39.9 C 232.81 39.93 232.8 45.8 232.8 45.8 L 230.4 45.8 L 230.4 33.6 L 232.8 33.6 L 232.8 38.1 C 232.8 38.1 232.85 38.13 232.8 38.1 C 233.1 37.7 233.4 37.5 233.7 37.3 C 234 37.2 234.4 37.1 234.9 37.1 C 236 37.1 237 37.8 237 39 C 237.01 38.96 237 45.8 237 45.8 L 234.6 45.8 Z M 240.8 43.1 C 240.8 43.5 240.8 43.9 240.9 44.1 C 241.1 44.4 241.3 44.5 241.8 44.5 C 242.3 44.5 242.7 44.2 242.7 43.7 C 242.7 41.8 238.5 42.2 238.5 39.5 C 238.5 37.6 240.3 37.1 241.8 37.1 C 243.5 37.1 244.9 37.9 244.8 39.7 C 244.8 39.7 242.5 39.7 242.5 39.7 C 242.5 39.1 242.4 38.8 242.2 38.6 C 242.1 38.5 241.9 38.4 241.6 38.4 C 241.1 38.4 240.8 38.8 240.8 39.3 C 240.8 40.7 245 40.6 245 43.4 C 245 44.9 243.8 46 241.8 46 C 239.7 46 238.3 45.5 238.5 43.1 C 238.5 43.1 240.8 43.1 240.8 43.1 Z M 248.4 43.6 L 248.4 45.8 L 246.4 45.8 L 246.4 43.6 L 248.4 43.6 Z " stroke="none" fill="#003c71"/>  </g>  <g id="Polygon203562">    <path d="M 0.1 25.4 L 3.5 13.2 L 6.9 13.2 L 10.3 25.4 L 7.5 25.4 L 6.9 22.7 L 3.4 22.7 L 2.7 25.4 L 0.1 25.4 Z M 5.1 15.5 L 5 15.5 L 3.9 20.8 L 6.3 20.8 L 5.1 15.5 Z M 11.5 25.4 L 11.5 13.2 L 14.9 13.2 L 18.2 21.7 L 18.2 21.7 L 18.2 13.2 L 20.6 13.2 L 20.6 25.4 L 17.3 25.4 L 13.9 16.5 L 13.9 16.5 L 13.9 25.4 L 11.5 25.4 Z M 25.4 23.6 C 25.4 23.6 26.66 23.56 26.7 23.6 C 28.2 23.6 28.5 22.4 28.5 19.3 C 28.5 17 28.5 15.1 26.7 15.1 C 26.74 15.06 25.4 15.1 25.4 15.1 L 25.4 23.6 Z M 22.8 13.2 C 22.8 13.2 27.13 13.17 27.1 13.2 C 30.5 13.2 31.1 15.4 31.1 19.2 C 31.1 21.1 31.4 25.4 27 25.4 C 27.03 25.44 22.8 25.4 22.8 25.4 L 22.8 13.2 Z M 33.2 25.4 L 33.2 13.2 L 39.9 13.2 L 39.9 15.1 L 35.8 15.1 L 35.8 18.1 L 39.6 18.1 L 39.6 20 L 35.8 20 L 35.8 23.6 L 40 23.6 L 40 25.4 L 33.2 25.4 Z M 41.6 25.4 L 41.6 13.2 L 45.8 13.2 L 47.7 21.5 L 47.7 21.5 L 49.8 13.2 L 53.8 13.2 L 53.8 25.4 L 51.3 25.4 L 51.3 16 L 51.2 16 L 48.9 25.4 L 46.4 25.4 L 44.2 16 L 44.1 16 L 44.1 25.4 L 41.6 25.4 Z M 58.4 23.6 C 58.4 23.6 59.87 23.56 59.9 23.6 C 60.4 23.6 61.6 23.5 61.6 21.8 C 61.6 20.7 61.2 20.1 59.9 20.1 C 59.94 20.07 58.4 20.1 58.4 20.1 L 58.4 23.6 Z M 58.4 18.2 C 58.4 18.2 60.16 18.18 60.2 18.2 C 60.7 18.2 61.5 17.8 61.5 16.6 C 61.5 15.7 60.9 15.1 60 15.1 C 60.03 15.06 58.4 15.1 58.4 15.1 L 58.4 18.2 Z M 55.9 25.4 L 55.9 13.2 C 55.9 13.2 60.43 13.17 60.4 13.2 C 62.4 13.2 64 13.7 64 16.3 C 64 17.8 63.3 18.8 61.9 19.1 C 61.9 19.1 61.9 19.1 61.9 19.1 C 63.7 19.3 64.2 20.5 64.2 22.2 C 64.2 25.3 61.5 25.4 60.4 25.4 C 60.42 25.44 55.9 25.4 55.9 25.4 Z M 68.7 18.5 C 68.7 18.5 69.89 18.47 69.9 18.5 C 70.9 18.5 71.2 17.5 71.2 16.7 C 71.2 15.5 70.7 15.1 69.9 15.1 C 69.89 15.06 68.7 15.1 68.7 15.1 L 68.7 18.5 Z M 68.7 25.4 L 66.2 25.4 L 66.2 13.2 C 66.2 13.2 70.92 13.17 70.9 13.2 C 72.7 13.2 73.8 14.3 73.8 16.4 C 73.8 17.9 73.2 19.1 71.5 19.4 C 71.5 19.4 71.5 19.4 71.5 19.4 C 72.1 19.5 73.7 19.6 73.7 21.8 C 73.7 22.6 73.8 24.9 74 25.4 C 74 25.4 71.5 25.4 71.5 25.4 C 71.2 24.7 71.2 23.9 71.2 23.1 C 71.2 21.6 71.4 20.4 69.4 20.4 C 69.41 20.36 68.7 20.4 68.7 20.4 L 68.7 25.4 Z M 77.7 21.2 L 74.5 13.2 L 77.3 13.2 L 79.1 18.4 L 81.1 13.2 L 83.7 13.2 L 80.3 21.2 L 80.3 25.4 L 77.7 25.4 L 77.7 21.2 Z M 91.6 16.2 C 91.6 18.2 90 19.9 87.9 19.9 C 85.9 19.9 84.2 18.2 84.2 16.2 C 84.2 14.1 85.9 12.5 87.9 12.5 C 90 12.5 91.6 14.1 91.6 16.2 Z M 90.9 16.2 C 90.9 14.5 89.6 13.2 87.9 13.2 C 86.3 13.2 84.9 14.5 84.9 16.2 C 84.9 17.9 86.3 19.2 87.9 19.2 C 89.6 19.2 90.9 17.9 90.9 16.2 Z M 87.5 18.3 L 86.5 18.3 L 86.5 14 C 86.5 14 88.29 14.03 88.3 14 C 89 14 89.4 14.4 89.4 15.2 C 89.4 15.7 89.2 16.1 88.5 16.2 C 88.5 16.2 88.5 16.2 88.5 16.2 C 88.7 16.2 89.4 16.3 89.4 17.1 C 89.4 17.3 89.4 18.1 89.5 18.3 C 89.5 18.3 88.5 18.3 88.5 18.3 C 88.4 18.1 88.4 17.8 88.4 17.5 C 88.4 17 88.5 16.6 87.7 16.6 C 87.71 16.55 87.5 16.6 87.5 16.6 L 87.5 18.3 Z M 87.5 15.9 C 87.5 15.9 87.9 15.95 87.9 15.9 C 88.3 15.9 88.4 15.6 88.4 15.3 C 88.4 14.9 88.2 14.7 87.9 14.7 C 87.9 14.75 87.5 14.7 87.5 14.7 L 87.5 15.9 Z M 101.1 19.9 C 101.1 18.6 100.8 18.2 100.1 18.2 C 99 18.2 99 19.1 99 20.9 C 99 23.5 99.2 24.1 100.1 24.1 C 100.8 24.1 101.2 23.4 101.2 22.3 C 101.2 22.3 103.6 22.3 103.6 22.3 C 103.6 24.6 102.3 25.6 100.1 25.6 C 97 25.6 96.6 23.7 96.6 21 C 96.6 18.7 96.9 16.7 100.1 16.7 C 102.3 16.7 103.5 17.7 103.5 19.9 C 103.5 19.9 101.1 19.9 101.1 19.9 Z M 107.4 22.8 C 107.4 23.4 107.5 24.1 108.2 24.1 C 109.6 24.1 109.4 22.2 109.4 21.3 C 108.2 21.3 107.4 21.2 107.4 22.8 Z M 111.8 23.8 C 111.8 24.4 111.8 24.9 111.9 25.4 C 111.89 25.44 109.7 25.4 109.7 25.4 L 109.6 24.3 C 109.6 24.3 109.53 24.3 109.5 24.3 C 109 25.2 108.3 25.6 107.3 25.6 C 105.6 25.6 105 24.4 105 22.9 C 105 20 107.2 19.9 109.4 20 C 109.4 20 109.4 19.3 109.4 19.3 C 109.4 18.6 109.3 18 108.5 18 C 107.6 18 107.6 18.7 107.6 19.3 C 107.6 19.3 105.2 19.3 105.2 19.3 C 105.2 18.3 105.5 17.6 106.1 17.2 C 106.6 16.8 107.4 16.7 108.3 16.7 C 111.4 16.7 111.8 18 111.8 19.6 C 111.8 19.6 111.8 23.8 111.8 23.8 Z M 116.2 17.7 C 116.2 17.7 116.19 17.73 116.2 17.7 C 116.4 17.3 116.7 17.1 117 16.9 C 117.4 16.8 117.8 16.7 118.2 16.7 C 119.4 16.7 120.4 17.4 120.4 18.6 C 120.36 18.56 120.4 25.4 120.4 25.4 L 118 25.4 C 118 25.4 117.96 19.53 118 19.5 C 118 18.8 117.8 18.2 117.1 18.2 C 116.3 18.2 116.2 18.8 116.2 19.5 C 116.16 19.53 116.2 25.4 116.2 25.4 L 113.8 25.4 L 113.8 16.9 L 116.2 16.9 L 116.2 17.7 Z M 130.4 21.1 C 130.4 19.4 130.4 18.2 129.4 18.2 C 128.4 18.2 128.4 19.4 128.4 21.1 C 128.4 23.2 128.6 24.1 129.4 24.1 C 130.3 24.1 130.4 23.2 130.4 21.1 Z M 126 13.2 L 128.4 13.2 L 128.4 17.7 C 128.4 17.7 128.47 17.67 128.5 17.7 C 129 16.9 129.6 16.7 130.4 16.7 C 132.8 16.7 132.8 19.4 132.8 21.1 C 132.8 22.9 132.9 25.6 130.4 25.6 C 129.5 25.6 128.8 25.3 128.3 24.5 C 128.35 24.49 128.3 24.5 128.3 24.5 L 128.3 25.4 L 126 25.4 L 126 13.2 Z M 138.9 20.2 C 138.9 19.4 139 18.2 137.8 18.2 C 136.7 18.2 136.7 19.5 136.7 20.2 C 136.7 20.2 138.9 20.2 138.9 20.2 Z M 136.7 21.5 C 136.7 22.6 136.8 24.1 137.8 24.1 C 138.7 24.1 138.9 23.3 138.9 22.6 C 138.9 22.6 141.3 22.6 141.3 22.6 C 141.2 23.5 140.9 24.3 140.4 24.8 C 139.8 25.3 139 25.6 137.8 25.6 C 134.7 25.6 134.3 23.7 134.3 21 C 134.3 18.7 134.7 16.7 137.8 16.7 C 141.1 16.7 141.4 18.8 141.3 21.5 C 141.3 21.5 136.7 21.5 136.7 21.5 Z M 148.7 22.7 C 148.7 23.1 148.7 23.5 148.8 23.7 C 149 24 149.2 24.1 149.7 24.1 C 150.2 24.1 150.6 23.8 150.6 23.3 C 150.6 21.4 146.3 21.8 146.3 19.1 C 146.3 17.2 148.2 16.7 149.7 16.7 C 151.4 16.7 152.8 17.5 152.7 19.3 C 152.7 19.3 150.4 19.3 150.4 19.3 C 150.4 18.7 150.3 18.4 150.1 18.2 C 150 18.1 149.8 18 149.5 18 C 149 18 148.7 18.4 148.7 18.9 C 148.7 20.3 152.9 20.2 152.9 23 C 152.9 24.5 151.7 25.6 149.7 25.6 C 147.6 25.6 146.2 25.1 146.3 22.7 C 146.3 22.7 148.7 22.7 148.7 22.7 Z M 153.4 16.9 L 154.4 16.9 L 154.4 15.5 L 156.8 14.4 L 156.8 16.9 L 158 16.9 L 158 18.3 L 156.8 18.3 C 156.8 18.3 156.75 22.93 156.8 22.9 C 156.8 23.6 156.7 24 157.5 24 C 157.7 24 157.8 24 157.9 24 C 157.9 24 157.9 25.4 157.9 25.4 C 157.6 25.5 157.3 25.5 156.7 25.5 C 154.6 25.5 154.4 24.2 154.4 23.6 C 154.36 23.62 154.4 18.3 154.4 18.3 L 153.4 18.3 L 153.4 16.9 Z M 163.5 20.9 C 163.5 19.1 163.4 18.2 162.4 18.2 C 161.4 18.2 161.3 19.1 161.3 20.9 C 161.3 23.5 161.5 24.1 162.4 24.1 C 163.3 24.1 163.5 23.5 163.5 20.9 Z M 158.9 21 C 158.9 18.7 159.2 16.7 162.4 16.7 C 165.5 16.7 165.9 18.7 165.9 21 C 165.9 23.7 165.5 25.6 162.4 25.6 C 159.3 25.6 158.9 23.7 158.9 21 Z M 169.9 16.9 L 169.9 18 C 169.9 18 169.89 17.96 169.9 18 C 170.3 17 171.2 16.7 172.1 16.7 C 172.1 16.7 172.1 18.8 172.1 18.8 C 170 18.7 170 19.9 170 20.8 C 169.98 20.77 170 25.4 170 25.4 L 167.6 25.4 L 167.6 16.9 L 169.9 16.9 Z M 177.6 20.2 C 177.6 19.4 177.7 18.2 176.5 18.2 C 175.4 18.2 175.5 19.5 175.5 20.2 C 175.5 20.2 177.6 20.2 177.6 20.2 Z M 175.5 21.5 C 175.5 22.6 175.5 24.1 176.5 24.1 C 177.4 24.1 177.6 23.3 177.6 22.6 C 177.6 22.6 180 22.6 180 22.6 C 180 23.5 179.7 24.3 179.1 24.8 C 178.5 25.3 177.7 25.6 176.5 25.6 C 173.4 25.6 173 23.7 173 21 C 173 18.7 173.4 16.7 176.5 16.7 C 179.8 16.7 180.1 18.8 180 21.5 C 180 21.5 175.5 21.5 175.5 21.5 Z M 185.9 21.1 C 185.9 19.4 185.9 18.2 184.9 18.2 C 183.9 18.2 183.9 19.4 183.9 21.1 C 183.9 23.2 184.1 24.1 184.9 24.1 C 185.8 24.1 185.9 23.2 185.9 21.1 Z M 186 25.4 L 186 24.5 C 186 24.5 185.99 24.49 186 24.5 C 185.6 25.3 184.9 25.6 184 25.6 C 181.5 25.6 181.6 22.9 181.6 21.1 C 181.6 19.4 181.5 16.7 183.9 16.7 C 184.8 16.7 185.4 16.9 185.9 17.7 C 185.87 17.67 185.9 17.7 185.9 17.7 L 185.9 13.2 L 188.3 13.2 L 188.3 25.4 L 186 25.4 Z M 198.2 24.6 C 198.2 24.6 198.18 24.58 198.2 24.6 C 197.9 25 197.7 25.2 197.3 25.4 C 197 25.5 196.6 25.6 196.2 25.6 C 195 25.6 194 24.9 194 23.7 C 194.02 23.74 194 16.9 194 16.9 L 196.4 16.9 C 196.4 16.9 196.41 22.81 196.4 22.8 C 196.4 23.6 196.5 24.1 197.3 24.1 C 198.1 24.1 198.2 23.6 198.2 22.8 C 198.22 22.81 198.2 16.9 198.2 16.9 L 200.6 16.9 C 200.6 16.9 200.61 23.74 200.6 23.7 C 200.6 24.3 200.6 24.9 200.7 25.4 C 200.7 25.44 198.2 25.4 198.2 25.4 L 198.2 24.6 Z M 206.9 21.1 C 206.9 19.4 206.9 18.2 205.9 18.2 C 204.9 18.2 204.9 19.4 204.9 21.1 C 204.9 23.2 205.1 24.1 205.9 24.1 C 206.7 24.1 206.9 23.2 206.9 21.1 Z M 204.8 16.9 L 204.8 17.8 C 204.8 17.8 204.83 17.81 204.8 17.8 C 205.3 17 205.9 16.7 206.9 16.7 C 209.3 16.7 209.2 19.4 209.2 21.2 C 209.2 22.9 209.3 25.6 206.9 25.6 C 206 25.6 205.4 25.4 204.9 24.6 C 204.95 24.63 204.9 24.6 204.9 24.6 L 204.9 29.1 L 202.5 29.1 L 202.5 16.9 L 204.8 16.9 Z M 213.8 16.9 L 214.8 16.9 L 214.8 15.5 L 217.2 14.4 L 217.2 16.9 L 218.4 16.9 L 218.4 18.3 L 217.2 18.3 C 217.2 18.3 217.19 22.93 217.2 22.9 C 217.2 23.6 217.2 24 218 24 C 218.1 24 218.3 24 218.4 24 C 218.4 24 218.4 25.4 218.4 25.4 C 218.1 25.5 217.7 25.5 217.1 25.5 C 215.1 25.5 214.8 24.2 214.8 23.6 C 214.79 23.62 214.8 18.3 214.8 18.3 L 213.8 18.3 L 213.8 16.9 Z M 223.9 20.9 C 223.9 19.1 223.8 18.2 222.8 18.2 C 221.8 18.2 221.7 19.1 221.7 20.9 C 221.7 23.5 221.9 24.1 222.8 24.1 C 223.7 24.1 223.9 23.5 223.9 20.9 Z M 219.3 21 C 219.3 18.7 219.7 16.7 222.8 16.7 C 226 16.7 226.3 18.7 226.3 21 C 226.3 23.7 225.9 25.6 222.8 25.6 C 219.7 25.6 219.3 23.7 219.3 21 Z M 231 25.4 C 231 25.4 231.04 23.35 231 23.4 C 234.8 18.4 235.6 17.8 235.6 16.3 C 235.6 15.7 235.3 15.2 234.7 15.2 C 233.7 15.2 233.6 16.1 233.6 16.9 C 233.6 16.9 231.2 16.9 231.2 16.9 C 231.1 14.6 232.3 13.4 234.5 13.4 C 236.6 13.4 238 14.3 238 16.5 C 238 19.2 234.9 22.2 233.6 23.6 C 233.56 23.61 238.1 23.6 238.1 23.6 L 238.1 25.4 L 231 25.4 Z M 241.4 18.4 C 241.4 18.4 241.4 18.41 241.4 18.4 C 241.8 17.8 242.4 17.6 243.1 17.6 C 245.1 17.6 245.6 18.9 245.6 21.5 C 245.6 24.7 244.5 25.6 242 25.6 C 240.1 25.6 238.8 24.8 238.9 22.7 C 238.9 22.7 241.3 22.7 241.3 22.7 C 241.3 23 241.3 23.3 241.4 23.5 C 241.6 23.7 241.8 23.9 242.2 23.9 C 243.1 23.9 243.2 23.1 243.2 21.5 C 243.2 20.8 243.3 19.1 242.2 19.1 C 241.5 19.1 241.3 19.9 241.3 20.5 C 241.33 20.46 239 20.5 239 20.5 L 239 13.6 L 245.2 13.6 L 245.2 15.4 L 241.4 15.4 L 241.4 18.4 Z M 249.3 18.5 C 247.9 18.5 246.8 17.4 246.8 16 C 246.8 14.6 247.9 13.4 249.3 13.4 C 250.7 13.4 251.9 14.6 251.9 16 C 251.9 17.4 250.7 18.5 249.3 18.5 Z M 249.4 17.2 C 250 17.2 250.5 16.7 250.5 16 C 250.5 15.3 250 14.8 249.3 14.8 C 248.7 14.8 248.1 15.3 248.1 16 C 248.1 16.7 248.7 17.2 249.4 17.2 Z M 253.7 19.3 C 253.7 16.1 253.7 13 257.9 13 C 260.5 13 261.6 14.4 261.5 17 C 261.5 17 259 17 259 17 C 259 15.4 258.7 14.8 257.9 14.8 C 256.5 14.8 256.3 16.2 256.3 19.3 C 256.3 22.5 256.5 23.8 257.9 23.8 C 259.1 23.8 259.1 22.3 259.1 21.3 C 259.1 21.3 261.6 21.3 261.6 21.3 C 261.6 24.6 260.3 25.6 257.9 25.6 C 253.7 25.6 253.7 22.5 253.7 19.3 Z " stroke="none" fill="#003c71"/>  </g></svg>