<?xml version="1.0" standalone="no"?><!DOCTYPE svg PUBLIC "-//W3C//DTD SVG 1.1//EN" "http://www.w3.org/Graphics/SVG/1.1/DTD/svg11.dtd"><svg xmlns="http://www.w3.org/2000/svg" version="1.1" width="491px" height="484.9px" viewBox="0 -1 491 484.9" style="top:-1px">  <desc>,Phase 3 OLE ​ (13.8 months)3,TEAEs occurring in ​≥5% of patients,ANDEMBRY® (n=159),Upper respiratory tract infection...</desc>  <defs/>  <g class="svg-tables">    <g class="svg-table-background">      <line x1="322.6" y1="0.6" x2="322.6" y2="50.7" stroke="#00b398" stroke-width="1.17"/>      <rect x="322.6" y="0.6" width="113.2" height="50.1" class="svg-cell-fill" style="fill:#ccefea;"/>      <line x1="322.6" y1="50.7" x2="435.8" y2="50.7" stroke="#00b398" stroke-width="1.17"/>      <line x1="322.6" y1="0.6" x2="322.6" y2="50.7" stroke="#00b398" stroke-width="1.17"/>      <rect x="-1" y="50.7" width="323.6" height="43.5" class="svg-cell-fill" style="fill:#e5f7f4;"/>      <line x1="-1" y1="94.2" x2="322.6" y2="94.2" stroke="#00b398" stroke-width="1.17"/>      <line x1="322.6" y1="50.7" x2="322.6" y2="94.2" stroke="#00b398" stroke-width="1.17"/>      <rect x="322.6" y="50.7" width="113.2" height="43.5" class="svg-cell-fill" style="fill:#ccefea;"/>      <line x1="322.6" y1="94.2" x2="435.8" y2="94.2" stroke="#00b398" stroke-width="1.17"/>      <line x1="322.6" y1="50.7" x2="435.8" y2="50.7" stroke="#00b398" stroke-width="1.17"/>      <line x1="322.6" y1="50.7" x2="322.6" y2="94.2" stroke="#00b398" stroke-width="1.17"/>      <rect x="-1" y="94.2" width="323.6" height="43.5" class="svg-cell-fill" style="fill:#e5f7f4;"/>      <line x1="-1" y1="137.7" x2="322.6" y2="137.7" stroke="#00b398" stroke-width="1.17"/>      <line x1="-1" y1="94.2" x2="322.6" y2="94.2" stroke="#00b398" stroke-width="1.17"/>      <line x1="322.6" y1="94.2" x2="322.6" y2="137.7" stroke="#00b398" stroke-width="1.17"/>      <rect x="322.6" y="94.2" width="113.2" height="43.5" class="svg-cell-fill" style="fill:#ccefea;"/>      <line x1="322.6" y1="137.7" x2="435.8" y2="137.7" stroke="#00b398" stroke-width="1.17"/>      <line x1="322.6" y1="94.2" x2="435.8" y2="94.2" stroke="#00b398" stroke-width="1.17"/>      <line x1="322.6" y1="94.2" x2="322.6" y2="137.7" stroke="#00b398" stroke-width="1.17"/>      <rect x="-1" y="137.7" width="323.6" height="43.5" class="svg-cell-fill" style="fill:#e5f7f4;"/>      <line x1="-1" y1="181.2" x2="322.6" y2="181.2" stroke="#00b398" stroke-width="1.17"/>      <line x1="-1" y1="137.7" x2="322.6" y2="137.7" stroke="#00b398" stroke-width="1.17"/>      <line x1="322.6" y1="137.7" x2="322.6" y2="181.2" stroke="#00b398" stroke-width="1.17"/>      <rect x="322.6" y="137.7" width="113.2" height="43.5" class="svg-cell-fill" style="fill:#ccefea;"/>      <line x1="322.6" y1="181.2" x2="435.8" y2="181.2" stroke="#00b398" stroke-width="1.17"/>      <line x1="322.6" y1="137.7" x2="435.8" y2="137.7" stroke="#00b398" stroke-width="1.17"/>      <line x1="322.6" y1="137.7" x2="322.6" y2="181.2" stroke="#00b398" stroke-width="1.17"/>      <rect x="-1" y="181.2" width="323.6" height="43.5" class="svg-cell-fill" style="fill:#e5f7f4;"/>      <line x1="-1" y1="224.7" x2="322.6" y2="224.7" stroke="#00b398" stroke-width="1.17"/>      <line x1="-1" y1="181.2" x2="322.6" y2="181.2" stroke="#00b398" stroke-width="1.17"/>      <line x1="322.6" y1="181.2" x2="322.6" y2="224.7" stroke="#00b398" stroke-width="1.17"/>      <rect x="322.6" y="181.2" width="113.2" height="43.5" class="svg-cell-fill" style="fill:#ccefea;"/>      <line x1="322.6" y1="224.7" x2="435.8" y2="224.7" stroke="#00b398" stroke-width="1.17"/>      <line x1="322.6" y1="181.2" x2="435.8" y2="181.2" stroke="#00b398" stroke-width="1.17"/>      <line x1="322.6" y1="181.2" x2="322.6" y2="224.7" stroke="#00b398" stroke-width="1.17"/>      <rect x="-1" y="224.7" width="323.6" height="43.5" class="svg-cell-fill" style="fill:#e5f7f4;"/>      <line x1="-1" y1="268.2" x2="322.6" y2="268.2" stroke="#00b398" stroke-width="1.17"/>      <line x1="-1" y1="224.7" x2="322.6" y2="224.7" stroke="#00b398" stroke-width="1.17"/>      <line x1="322.6" y1="224.7" x2="322.6" y2="268.2" stroke="#00b398" stroke-width="1.17"/>      <rect x="322.6" y="224.7" width="113.2" height="43.5" class="svg-cell-fill" style="fill:#ccefea;"/>      <line x1="322.6" y1="268.2" x2="435.8" y2="268.2" stroke="#00b398" stroke-width="1.17"/>      <line x1="322.6" y1="224.7" x2="435.8" y2="224.7" stroke="#00b398" stroke-width="1.17"/>      <line x1="322.6" y1="224.7" x2="322.6" y2="268.2" stroke="#00b398" stroke-width="1.17"/>      <rect x="-1" y="268.1" width="323.6" height="43.5" class="svg-cell-fill" style="fill:#e5f7f4;"/>      <line x1="-1" y1="311.6" x2="322.6" y2="311.6" stroke="#00b398" stroke-width="1.17"/>      <line x1="-1" y1="268.1" x2="322.6" y2="268.1" stroke="#00b398" stroke-width="1.17"/>      <line x1="322.6" y1="268.1" x2="322.6" y2="311.6" stroke="#00b398" stroke-width="1.17"/>      <rect x="322.6" y="268.1" width="113.2" height="43.5" class="svg-cell-fill" style="fill:#ccefea;"/>      <line x1="322.6" y1="311.6" x2="435.8" y2="311.6" stroke="#00b398" stroke-width="1.17"/>      <line x1="322.6" y1="268.1" x2="435.8" y2="268.1" stroke="#00b398" stroke-width="1.17"/>      <line x1="322.6" y1="268.1" x2="322.6" y2="311.6" stroke="#00b398" stroke-width="1.17"/>      <rect x="-1" y="311.6" width="323.6" height="43.5" class="svg-cell-fill" style="fill:#e5f7f4;"/>      <line x1="-1" y1="355.1" x2="322.6" y2="355.1" stroke="#00b398" stroke-width="1.17"/>      <line x1="-1" y1="311.6" x2="322.6" y2="311.6" stroke="#00b398" stroke-width="1.17"/>      <line x1="322.6" y1="311.6" x2="322.6" y2="355.1" stroke="#00b398" stroke-width="1.17"/>      <rect x="322.6" y="311.6" width="113.2" height="43.5" class="svg-cell-fill" style="fill:#ccefea;"/>      <line x1="322.6" y1="355.1" x2="435.8" y2="355.1" stroke="#00b398" stroke-width="1.17"/>      <line x1="322.6" y1="311.6" x2="435.8" y2="311.6" stroke="#00b398" stroke-width="1.17"/>      <line x1="322.6" y1="311.6" x2="322.6" y2="355.1" stroke="#00b398" stroke-width="1.17"/>      <rect x="-1" y="355.1" width="323.6" height="43.5" class="svg-cell-fill" style="fill:#e5f7f4;"/>      <line x1="-1" y1="398.6" x2="322.6" y2="398.6" stroke="#00b398" stroke-width="1.17"/>      <line x1="-1" y1="355.1" x2="322.6" y2="355.1" stroke="#00b398" stroke-width="1.17"/>      <line x1="322.6" y1="355.1" x2="322.6" y2="398.6" stroke="#00b398" stroke-width="1.17"/>      <rect x="322.6" y="355.1" width="113.2" height="43.5" class="svg-cell-fill" style="fill:#ccefea;"/>      <line x1="322.6" y1="398.6" x2="435.8" y2="398.6" stroke="#00b398" stroke-width="1.17"/>      <line x1="322.6" y1="355.1" x2="435.8" y2="355.1" stroke="#00b398" stroke-width="1.17"/>      <line x1="322.6" y1="355.1" x2="322.6" y2="398.6" stroke="#00b398" stroke-width="1.17"/>      <rect x="-1" y="398.6" width="323.6" height="43.5" class="svg-cell-fill" style="fill:#e5f7f4;"/>      <line x1="-1" y1="442.1" x2="322.6" y2="442.1" stroke="#ffc845" stroke-width="1.17"/>      <line x1="-1" y1="398.6" x2="322.6" y2="398.6" stroke="#00b398" stroke-width="1.17"/>      <line x1="322.6" y1="398.6" x2="322.6" y2="442.1" stroke="#00b398" stroke-width="1.17"/>      <rect x="322.6" y="398.6" width="113.2" height="43.5" class="svg-cell-fill" style="fill:#ccefea;"/>      <line x1="322.6" y1="442.1" x2="435.8" y2="442.1" stroke="#ffc845" stroke-width="1.17"/>      <line x1="322.6" y1="398.6" x2="435.8" y2="398.6" stroke="#00b398" stroke-width="1.17"/>      <line x1="322.6" y1="398.6" x2="322.6" y2="442.1" stroke="#00b398" stroke-width="1.17"/>    </g>  </g>  <g id="Polygon202628">    <path d="M 361.5 417.5 C 361.5 416.5 361.8 415.8 362.2 415.5 C 362.7 415.1 363.4 414.9 364.3 414.9 C 366.2 414.9 367 415.7 367 417.5 C 367 418.5 366.8 419.6 365.7 419.7 C 365.7 419.7 365.7 419.7 365.7 419.7 C 367 420 367.2 421 367.2 422.1 C 367.2 424.1 366.1 425 364.1 425 C 362.2 425 361.4 424.3 361.4 422.2 C 361.4 422.2 363.4 422.2 363.4 422.2 C 363.4 422.8 363.4 423.5 364.2 423.5 C 365.1 423.5 365.2 422.7 365.2 422 C 365.2 420.6 364.7 420.5 363.4 420.5 C 363.4 420.5 363.4 419 363.4 419 C 364.7 419 365 418.9 365 417.5 C 365 417 365 416.4 364.3 416.4 C 363.6 416.4 363.5 416.9 363.5 417.5 C 363.5 417.5 361.5 417.5 361.5 417.5 Z M 373.7 414.3 C 373.2 416 372.7 418.1 372.7 420.3 C 372.7 422.8 373.3 424.8 373.7 426.5 C 373.7 426.5 372.5 426.5 372.5 426.5 C 371.9 424.6 371.1 422.4 371.1 420.3 C 371.1 418.2 372 415.7 372.5 414.3 C 372.5 414.3 373.7 414.3 373.7 414.3 Z M 374.7 424.8 C 374.7 424.8 374.66 423.12 374.7 423.1 C 377.7 419 378.4 418.5 378.4 417.3 C 378.4 416.8 378.2 416.4 377.6 416.4 C 376.8 416.4 376.8 417.1 376.8 417.8 C 376.8 417.8 374.8 417.8 374.8 417.8 C 374.7 415.9 375.7 414.9 377.5 414.9 C 379.2 414.9 380.4 415.6 380.4 417.5 C 380.4 419.7 377.8 422.2 376.7 423.3 C 376.74 423.33 380.5 423.3 380.5 423.3 L 380.5 424.8 L 374.7 424.8 Z M 387.1 422.3 C 387.1 420.9 387.5 419.7 389.2 419.7 C 390.9 419.7 391.2 420.9 391.2 422.3 C 391.2 424 390.7 424.8 389.2 424.8 C 387.6 424.8 387.1 424 387.1 422.3 Z M 389.8 422.2 C 389.8 421.7 389.9 420.8 389.2 420.8 C 388.4 420.8 388.5 421.7 388.5 422.2 C 388.5 423.3 388.5 423.7 389.2 423.7 C 389.8 423.7 389.8 423.3 389.8 422.2 Z M 381.2 417.7 C 381.2 416.3 381.5 415.1 383.2 415.1 C 384.9 415.1 385.2 416.3 385.2 417.7 C 385.2 419.4 384.8 420.2 383.2 420.2 C 381.6 420.2 381.2 419.4 381.2 417.7 Z M 383.9 417.6 C 383.9 417.1 383.9 416.2 383.2 416.2 C 382.5 416.2 382.5 417.1 382.5 417.6 C 382.5 418.7 382.6 419.1 383.2 419.1 C 383.8 419.1 383.9 418.7 383.9 417.6 Z M 384.6 425.1 L 383.6 425.1 L 387.7 414.9 L 388.7 414.9 L 384.6 425.1 Z M 392.5 426.5 C 392.9 424.8 393.4 422.7 393.4 420.5 C 393.4 418 392.8 416 392.5 414.3 C 392.5 414.3 393.6 414.3 393.6 414.3 C 394.2 416.2 395.1 418.5 395.1 420.5 C 395.1 422.6 394.1 425.1 393.6 426.5 C 393.6 426.5 392.5 426.5 392.5 426.5 Z M 396.8 419 L 395.6 419 L 395.6 418.2 L 396.8 418.2 L 396.8 416.3 L 395.6 416.3 L 395.6 415.5 L 396.8 415.5 L 396.8 414.3 L 397.8 414.3 L 397.8 415.5 L 399.1 415.5 L 399.1 416.3 L 397.8 416.3 L 397.8 418.2 L 399.1 418.2 L 399.1 419 L 397.8 419 L 397.8 420.2 L 396.8 420.2 L 396.8 419 Z " stroke="none" fill="#003c71"/>  </g>  <g id="Polygon202627">    <path d="M 13 425 C 10.3 425 9.8 423.5 10 421.7 C 10 421.7 12.1 421.7 12.1 421.7 C 12.1 422.7 12.1 423.5 13.3 423.5 C 14 423.5 14.3 423 14.3 422.4 C 14.3 420.5 10.1 420.4 10.1 417.4 C 10.1 415.8 10.8 414.6 13.4 414.6 C 15.5 414.6 16.5 415.5 16.4 417.6 C 16.4 417.6 14.3 417.6 14.3 417.6 C 14.3 416.8 14.2 416.1 13.3 416.1 C 12.6 416.1 12.2 416.4 12.2 417.2 C 12.2 419.1 16.5 418.9 16.5 422.1 C 16.5 424.7 14.6 425 13 425 Z M 18 424.8 L 18 414.7 L 23.5 414.7 L 23.5 416.3 L 20.1 416.3 L 20.1 418.8 L 23.3 418.8 L 23.3 420.3 L 20.1 420.3 L 20.1 423.3 L 23.6 423.3 L 23.6 424.8 L 18 424.8 Z M 24.2 424.8 L 27 414.7 L 29.8 414.7 L 32.6 424.8 L 30.4 424.8 L 29.8 422.6 L 26.9 422.6 L 26.3 424.8 L 24.2 424.8 Z M 28.3 416.7 L 28.3 416.7 L 27.3 421 L 29.3 421 L 28.3 416.7 Z M 33.6 424.8 L 33.6 414.7 L 39.1 414.7 L 39.1 416.3 L 35.7 416.3 L 35.7 418.8 L 38.8 418.8 L 38.8 420.3 L 35.7 420.3 L 35.7 423.3 L 39.2 423.3 L 39.2 424.8 L 33.6 424.8 Z M 42 422.6 C 42 422.9 42 423.2 42.1 423.4 C 42.3 423.7 42.5 423.8 42.9 423.8 C 43.3 423.8 43.6 423.5 43.6 423 C 43.6 421.5 40.1 421.9 40.1 419.6 C 40.1 418.1 41.6 417.6 42.9 417.6 C 44.2 417.6 45.5 418.3 45.4 419.8 C 45.4 419.8 43.4 419.8 43.4 419.8 C 43.4 419.3 43.4 419 43.2 418.9 C 43.1 418.8 42.9 418.7 42.7 418.7 C 42.3 418.7 42 419 42 419.5 C 42 420.6 45.5 420.6 45.5 422.8 C 45.5 424.1 44.5 425 42.9 425 C 41.2 425 40 424.6 40.1 422.6 C 40.1 422.6 42 422.6 42 422.6 Z " stroke="none" fill="#003c71"/>  </g>  <g id="Polygon202626">    <path d="M 357 381.4 C 357 381.4 357.02 379.64 357 379.6 C 360.1 375.5 360.7 375.1 360.7 373.8 C 360.7 373.3 360.6 372.9 360 372.9 C 359.2 372.9 359.1 373.6 359.1 374.3 C 359.1 374.3 357.2 374.3 357.2 374.3 C 357 372.5 358.1 371.4 359.9 371.4 C 361.6 371.4 362.7 372.1 362.7 374 C 362.7 376.2 360.2 378.7 359.1 379.8 C 359.09 379.85 362.8 379.8 362.8 379.8 L 362.8 381.4 L 357 381.4 Z M 363.8 373.1 C 364.5 372.7 365.1 372.2 365.7 371.6 C 365.65 371.57 367.5 371.6 367.5 371.6 L 367.5 381.4 L 365.4 381.4 C 365.4 381.4 365.42 373.83 365.4 373.8 C 364.9 374.3 364.3 374.6 363.8 374.9 C 363.8 374.9 363.8 373.1 363.8 373.1 Z M 375.5 370.8 C 375.1 372.5 374.6 374.6 374.6 376.8 C 374.6 379.3 375.1 381.3 375.5 383.1 C 375.5 383.1 374.4 383.1 374.4 383.1 C 373.7 381.1 372.9 378.9 372.9 376.8 C 372.9 374.7 373.8 372.2 374.4 370.8 C 374.4 370.8 375.5 370.8 375.5 370.8 Z M 377 373.1 C 377.7 372.7 378.4 372.2 378.9 371.6 C 378.89 371.57 380.8 371.6 380.8 371.6 L 380.8 381.4 L 378.7 381.4 C 378.7 381.4 378.65 373.83 378.7 373.8 C 378.1 374.3 377.6 374.6 377 374.9 C 377 374.9 377 373.1 377 373.1 Z M 382.8 374 C 382.8 373 383 372.4 383.5 372 C 383.9 371.6 384.6 371.4 385.6 371.4 C 387.4 371.4 388.3 372.2 388.3 374.1 C 388.3 375 388 376.1 387 376.2 C 387 376.2 387 376.3 387 376.3 C 388.2 376.5 388.4 377.5 388.4 378.6 C 388.4 380.7 387.4 381.5 385.4 381.5 C 383.5 381.5 382.7 380.8 382.7 378.7 C 382.7 378.7 384.7 378.7 384.7 378.7 C 384.7 379.4 384.6 380.1 385.5 380.1 C 386.4 380.1 386.5 379.2 386.5 378.5 C 386.5 377.1 386 377 384.6 377 C 384.6 377 384.6 375.5 384.6 375.5 C 385.9 375.5 386.3 375.4 386.3 374 C 386.3 373.5 386.2 372.9 385.6 372.9 C 384.8 372.9 384.8 373.5 384.8 374 C 384.8 374 382.8 374 382.8 374 Z M 395.2 378.8 C 395.2 377.4 395.5 376.2 397.2 376.2 C 398.9 376.2 399.2 377.4 399.2 378.8 C 399.2 380.5 398.8 381.4 397.2 381.4 C 395.6 381.4 395.2 380.5 395.2 378.8 Z M 397.9 378.7 C 397.9 378.2 397.9 377.3 397.2 377.3 C 396.5 377.3 396.5 378.2 396.5 378.7 C 396.5 379.8 396.6 380.3 397.2 380.3 C 397.8 380.3 397.9 379.8 397.9 378.7 Z M 389.2 374.2 C 389.2 372.8 389.5 371.6 391.2 371.6 C 392.9 371.6 393.2 372.8 393.2 374.2 C 393.2 375.9 392.8 376.7 391.2 376.7 C 389.7 376.7 389.2 375.9 389.2 374.2 Z M 391.9 374.1 C 391.9 373.6 391.9 372.7 391.2 372.7 C 390.5 372.7 390.5 373.6 390.5 374.1 C 390.5 375.2 390.6 375.6 391.2 375.6 C 391.8 375.6 391.9 375.2 391.9 374.1 Z M 392.6 381.7 L 391.6 381.7 L 395.7 371.4 L 396.7 371.4 L 392.6 381.7 Z M 400.5 383.1 C 400.9 381.3 401.4 379.2 401.4 377 C 401.4 374.5 400.8 372.6 400.5 370.8 C 400.5 370.8 401.6 370.8 401.6 370.8 C 402.3 372.7 403.1 375 403.1 377 C 403.1 379.1 402.2 381.6 401.6 383.1 C 401.6 383.1 400.5 383.1 400.5 383.1 Z " stroke="none" fill="#003c71"/>  </g>  <g id="Polygon202625">    <path d="M 16.2 371.2 L 16.2 372.9 L 13.9 372.9 L 13.9 381.4 L 11.8 381.4 L 11.8 372.9 L 9.4 372.9 L 9.4 371.2 L 16.2 371.2 Z M 17.2 381.4 L 17.2 371.2 L 22.7 371.2 L 22.7 372.8 L 19.3 372.8 L 19.3 375.3 L 22.5 375.3 L 22.5 376.8 L 19.3 376.8 L 19.3 379.8 L 22.9 379.8 L 22.9 381.4 L 17.2 381.4 Z M 23.5 381.4 L 26.3 371.2 L 29.1 371.2 L 31.8 381.4 L 29.6 381.4 L 29 379.1 L 26.1 379.1 L 25.5 381.4 L 23.5 381.4 Z M 27.5 373.2 L 27.5 373.2 L 26.5 377.6 L 28.6 377.6 L 27.5 373.2 Z M 32.8 381.4 L 32.8 371.2 L 38.3 371.2 L 38.3 372.8 L 34.9 372.8 L 34.9 375.3 L 38.1 375.3 L 38.1 376.8 L 34.9 376.8 L 34.9 379.8 L 38.4 379.8 L 38.4 381.4 L 32.8 381.4 Z M 41.3 379.1 C 41.2 379.4 41.3 379.7 41.4 379.9 C 41.5 380.2 41.7 380.3 42.1 380.3 C 42.5 380.3 42.8 380 42.8 379.6 C 42.8 378.1 39.3 378.4 39.3 376.1 C 39.3 374.6 40.8 374.1 42.1 374.1 C 43.5 374.1 44.7 374.8 44.6 376.3 C 44.6 376.3 42.6 376.3 42.6 376.3 C 42.6 375.8 42.6 375.5 42.4 375.4 C 42.3 375.3 42.1 375.2 41.9 375.2 C 41.5 375.2 41.3 375.5 41.3 376 C 41.3 377.1 44.7 377.1 44.7 379.3 C 44.7 380.6 43.7 381.5 42.1 381.5 C 40.4 381.5 39.2 381.1 39.3 379.1 C 39.3 379.1 41.3 379.1 41.3 379.1 Z M 50.9 374.3 L 50.9 375.2 C 50.9 375.2 50.95 375.19 50.9 375.2 C 51.3 374.4 52 374.1 52.8 374.1 C 52.8 374.1 52.8 375.9 52.8 375.9 C 51 375.8 51 376.8 51 377.5 C 51.02 377.5 51 381.4 51 381.4 L 49 381.4 L 49 374.3 L 50.9 374.3 Z M 57.3 377 C 57.3 376.3 57.4 375.4 56.4 375.4 C 55.5 375.4 55.5 376.4 55.5 377 C 55.5 377 57.3 377 57.3 377 Z M 55.5 378.1 C 55.5 379 55.6 380.2 56.4 380.2 C 57.1 380.2 57.3 379.6 57.3 379 C 57.3 379 59.3 379 59.3 379 C 59.2 379.7 59 380.4 58.5 380.8 C 58.1 381.2 57.4 381.5 56.4 381.5 C 53.9 381.5 53.5 379.9 53.5 377.7 C 53.5 375.8 53.8 374.1 56.4 374.1 C 59.1 374.1 59.4 375.9 59.3 378.1 C 59.3 378.1 55.5 378.1 55.5 378.1 Z M 62.9 371.2 L 62.9 381.4 L 60.9 381.4 L 60.9 371.2 L 62.9 371.2 Z M 66.3 379.2 C 66.3 379.7 66.4 380.3 67.1 380.3 C 68.2 380.3 68.1 378.7 68.1 377.9 C 67.1 378 66.3 377.9 66.3 379.2 Z M 70 380 C 70 380.5 70 380.9 70.1 381.4 C 70.09 381.36 68.3 381.4 68.3 381.4 L 68.2 380.4 C 68.2 380.4 68.14 380.42 68.1 380.4 C 67.7 381.1 67.1 381.5 66.3 381.5 C 64.9 381.5 64.4 380.5 64.4 379.2 C 64.4 376.9 66.2 376.8 68.1 376.8 C 68.1 376.8 68.1 376.3 68.1 376.3 C 68.1 375.7 68 375.2 67.3 375.2 C 66.6 375.2 66.5 375.8 66.5 376.3 C 66.5 376.3 64.6 376.3 64.6 376.3 C 64.6 375.5 64.8 374.9 65.3 374.6 C 65.8 374.3 66.4 374.1 67.2 374.1 C 69.7 374.1 70 375.2 70 376.5 C 70 376.5 70 380 70 380 Z M 70.8 374.3 L 71.6 374.3 L 71.6 373.2 L 73.6 372.3 L 73.6 374.3 L 74.6 374.3 L 74.6 375.5 L 73.6 375.5 C 73.6 375.5 73.61 379.29 73.6 379.3 C 73.6 379.8 73.6 380.2 74.2 380.2 C 74.4 380.2 74.5 380.2 74.6 380.1 C 74.6 380.1 74.6 381.4 74.6 381.4 C 74.3 381.4 74 381.4 73.6 381.4 C 71.9 381.4 71.6 380.3 71.6 379.9 C 71.63 379.86 71.6 375.5 71.6 375.5 L 70.8 375.5 L 70.8 374.3 Z M 79.2 377 C 79.2 376.3 79.2 375.4 78.2 375.4 C 77.3 375.4 77.3 376.4 77.3 377 C 77.3 377 79.2 377 79.2 377 Z M 77.3 378.1 C 77.3 379 77.4 380.2 78.2 380.2 C 78.9 380.2 79.1 379.6 79.1 379 C 79.1 379 81.1 379 81.1 379 C 81.1 379.7 80.8 380.4 80.3 380.8 C 79.9 381.2 79.2 381.5 78.2 381.5 C 75.7 381.5 75.4 379.9 75.4 377.7 C 75.4 375.8 75.6 374.1 78.2 374.1 C 80.9 374.1 81.2 375.9 81.1 378.1 C 81.1 378.1 77.3 378.1 77.3 378.1 Z M 86 377.8 C 86 376.3 86 375.4 85.2 375.4 C 84.3 375.4 84.3 376.3 84.3 377.8 C 84.3 379.5 84.5 380.3 85.2 380.3 C 85.8 380.3 86 379.5 86 377.8 Z M 86.1 381.4 L 86.1 380.6 C 86.1 380.6 86.04 380.58 86 380.6 C 85.7 381.3 85.1 381.5 84.4 381.5 C 82.3 381.5 82.4 379.2 82.4 377.8 C 82.4 376.3 82.3 374.1 84.3 374.1 C 85 374.1 85.5 374.4 85.9 375 C 85.94 374.95 86 375 86 375 L 86 371.2 L 87.9 371.2 L 87.9 381.4 L 86.1 381.4 Z M 91.9 374.3 L 92.7 374.3 L 92.7 373.2 L 94.6 372.3 L 94.6 374.3 L 95.7 374.3 L 95.7 375.5 L 94.6 375.5 C 94.6 375.5 94.64 379.29 94.6 379.3 C 94.6 379.8 94.6 380.2 95.3 380.2 C 95.4 380.2 95.5 380.2 95.6 380.1 C 95.6 380.1 95.6 381.4 95.6 381.4 C 95.4 381.4 95.1 381.4 94.6 381.4 C 92.9 381.4 92.7 380.3 92.7 379.9 C 92.66 379.86 92.7 375.5 92.7 375.5 L 91.9 375.5 L 91.9 374.3 Z M 100.2 377.6 C 100.2 376.1 100.1 375.4 99.3 375.4 C 98.4 375.4 98.4 376.1 98.4 377.6 C 98.4 379.8 98.5 380.2 99.3 380.2 C 100 380.2 100.2 379.8 100.2 377.6 Z M 96.4 377.7 C 96.4 375.8 96.7 374.1 99.3 374.1 C 101.9 374.1 102.2 375.8 102.2 377.7 C 102.2 379.9 101.8 381.5 99.3 381.5 C 96.7 381.5 96.4 379.9 96.4 377.7 Z M 108.2 379.1 C 108.2 379.4 108.2 379.7 108.3 379.9 C 108.4 380.2 108.7 380.3 109 380.3 C 109.4 380.3 109.8 380 109.8 379.6 C 109.8 378.1 106.3 378.4 106.3 376.1 C 106.3 374.6 107.8 374.1 109.1 374.1 C 110.4 374.1 111.7 374.8 111.5 376.3 C 111.5 376.3 109.6 376.3 109.6 376.3 C 109.6 375.8 109.6 375.5 109.4 375.4 C 109.3 375.3 109.1 375.2 108.9 375.2 C 108.5 375.2 108.2 375.5 108.2 376 C 108.2 377.1 111.7 377.1 111.7 379.3 C 111.7 380.6 110.7 381.5 109.1 381.5 C 107.3 381.5 106.2 381.1 106.3 379.1 C 106.3 379.1 108.2 379.1 108.2 379.1 Z M 112.1 374.3 L 112.9 374.3 L 112.9 373.2 L 114.9 372.3 L 114.9 374.3 L 115.9 374.3 L 115.9 375.5 L 114.9 375.5 C 114.9 375.5 114.88 379.29 114.9 379.3 C 114.9 379.8 114.9 380.2 115.5 380.2 C 115.6 380.2 115.8 380.2 115.9 380.1 C 115.9 380.1 115.9 381.4 115.9 381.4 C 115.6 381.4 115.3 381.4 114.8 381.4 C 113.1 381.4 112.9 380.3 112.9 379.9 C 112.9 379.86 112.9 375.5 112.9 375.5 L 112.1 375.5 L 112.1 374.3 Z M 120.3 380.6 C 120.3 380.6 120.24 380.64 120.2 380.6 C 120 381 119.8 381.2 119.5 381.3 C 119.3 381.4 118.9 381.5 118.6 381.5 C 117.6 381.5 116.8 380.9 116.8 380 C 116.8 379.96 116.8 374.3 116.8 374.3 L 118.8 374.3 C 118.8 374.3 118.78 379.19 118.8 379.2 C 118.8 379.8 118.9 380.3 119.5 380.3 C 120.2 380.3 120.3 379.8 120.3 379.2 C 120.27 379.19 120.3 374.3 120.3 374.3 L 122.2 374.3 C 122.2 374.3 122.24 379.96 122.2 380 C 122.2 380.4 122.3 380.9 122.3 381.4 C 122.31 381.36 120.3 381.4 120.3 381.4 L 120.3 380.6 Z M 127.2 377.8 C 127.2 376.3 127.3 375.4 126.4 375.4 C 125.6 375.4 125.6 376.3 125.6 377.8 C 125.6 379.5 125.7 380.3 126.4 380.3 C 127.1 380.3 127.2 379.5 127.2 377.8 Z M 127.3 381.4 L 127.3 380.6 C 127.3 380.6 127.32 380.58 127.3 380.6 C 127 381.3 126.4 381.5 125.6 381.5 C 123.6 381.5 123.7 379.2 123.7 377.8 C 123.7 376.3 123.6 374.1 125.6 374.1 C 126.3 374.1 126.8 374.4 127.2 375 C 127.22 374.95 127.2 375 127.2 375 L 127.2 371.2 L 129.2 371.2 L 129.2 381.4 L 127.3 381.4 Z M 132.1 381.4 L 130.2 374.3 L 132.1 374.3 L 133.1 379.3 L 133.2 379.3 L 134.2 374.3 L 136.1 374.3 L 133.4 384 L 131.3 384 L 132.1 381.4 Z M 139.4 374.3 L 140.2 374.3 L 140.2 373.2 L 142.1 372.3 L 142.1 374.3 L 143.2 374.3 L 143.2 375.5 L 142.1 375.5 C 142.1 375.5 142.13 379.29 142.1 379.3 C 142.1 379.8 142.1 380.2 142.8 380.2 C 142.9 380.2 143 380.2 143.1 380.1 C 143.1 380.1 143.1 381.4 143.1 381.4 C 142.8 381.4 142.6 381.4 142.1 381.4 C 140.4 381.4 140.2 380.3 140.2 379.9 C 140.16 379.86 140.2 375.5 140.2 375.5 L 139.4 375.5 L 139.4 374.3 Z M 145.9 374.3 L 145.9 375.2 C 145.9 375.2 145.96 375.19 146 375.2 C 146.3 374.4 147 374.1 147.8 374.1 C 147.8 374.1 147.8 375.9 147.8 375.9 C 146.1 375.8 146 376.8 146 377.5 C 146.03 377.5 146 381.4 146 381.4 L 144.1 381.4 L 144.1 374.3 L 145.9 374.3 Z M 152.4 377 C 152.4 376.3 152.4 375.4 151.4 375.4 C 150.5 375.4 150.5 376.4 150.5 377 C 150.5 377 152.4 377 152.4 377 Z M 150.5 378.1 C 150.5 379 150.6 380.2 151.4 380.2 C 152.1 380.2 152.3 379.6 152.3 379 C 152.3 379 154.3 379 154.3 379 C 154.3 379.7 154 380.4 153.5 380.8 C 153.1 381.2 152.4 381.5 151.4 381.5 C 148.9 381.5 148.6 379.9 148.6 377.7 C 148.6 375.8 148.8 374.1 151.4 374.1 C 154.1 374.1 154.4 375.9 154.3 378.1 C 154.3 378.1 150.5 378.1 150.5 378.1 Z M 157.5 379.2 C 157.5 379.7 157.5 380.3 158.2 380.3 C 159.4 380.3 159.2 378.7 159.2 377.9 C 158.2 378 157.5 377.9 157.5 379.2 Z M 161.1 380 C 161.1 380.5 161.2 380.9 161.2 381.4 C 161.2 381.36 159.4 381.4 159.4 381.4 L 159.3 380.4 C 159.3 380.4 159.25 380.42 159.3 380.4 C 158.8 381.1 158.3 381.5 157.4 381.5 C 156 381.5 155.5 380.5 155.5 379.2 C 155.5 376.9 157.3 376.8 159.2 376.8 C 159.2 376.8 159.2 376.3 159.2 376.3 C 159.2 375.7 159.1 375.2 158.4 375.2 C 157.7 375.2 157.6 375.8 157.6 376.3 C 157.6 376.3 155.7 376.3 155.7 376.3 C 155.7 375.5 156 374.9 156.4 374.6 C 156.9 374.3 157.5 374.1 158.3 374.1 C 160.8 374.1 161.1 375.2 161.1 376.5 C 161.1 376.5 161.1 380 161.1 380 Z M 161.9 374.3 L 162.7 374.3 L 162.7 373.2 L 164.7 372.3 L 164.7 374.3 L 165.7 374.3 L 165.7 375.5 L 164.7 375.5 C 164.7 375.5 164.72 379.29 164.7 379.3 C 164.7 379.8 164.7 380.2 165.4 380.2 C 165.5 380.2 165.6 380.2 165.7 380.1 C 165.7 380.1 165.7 381.4 165.7 381.4 C 165.4 381.4 165.2 381.4 164.7 381.4 C 163 381.4 162.7 380.3 162.7 379.9 C 162.74 379.86 162.7 375.5 162.7 375.5 L 161.9 375.5 L 161.9 374.3 Z M 168.5 375 C 168.5 375 168.49 374.99 168.5 375 C 168.9 374.4 169.4 374.1 170.2 374.1 C 170.9 374.1 171.4 374.5 171.7 375 C 172.2 374.4 172.8 374.1 173.6 374.1 C 174.5 374.1 175.3 374.7 175.3 375.7 C 175.35 375.68 175.3 381.4 175.3 381.4 L 173.4 381.4 C 173.4 381.4 173.37 376.48 173.4 376.5 C 173.4 375.8 173.3 375.4 172.6 375.4 C 172 375.4 171.9 375.8 171.9 376.5 C 171.88 376.48 171.9 381.4 171.9 381.4 L 170 381.4 C 170 381.4 169.95 376.48 170 376.5 C 170 375.8 169.8 375.4 169.2 375.4 C 168.6 375.4 168.5 375.8 168.5 376.5 C 168.46 376.48 168.5 381.4 168.5 381.4 L 166.5 381.4 L 166.5 374.3 L 168.5 374.3 L 168.5 375 Z M 180.4 377 C 180.4 376.3 180.4 375.4 179.5 375.4 C 178.6 375.4 178.6 376.4 178.6 377 C 178.6 377 180.4 377 180.4 377 Z M 178.6 378.1 C 178.6 379 178.6 380.2 179.5 380.2 C 180.2 380.2 180.3 379.6 180.3 379 C 180.3 379 182.3 379 182.3 379 C 182.3 379.7 182 380.4 181.6 380.8 C 181.1 381.2 180.4 381.5 179.5 381.5 C 176.9 381.5 176.6 379.9 176.6 377.7 C 176.6 375.8 176.9 374.1 179.5 374.1 C 182.1 374.1 182.4 375.9 182.4 378.1 C 182.4 378.1 178.6 378.1 178.6 378.1 Z M 185.7 375 C 185.7 375 185.78 375 185.8 375 C 186 374.7 186.2 374.5 186.5 374.3 C 186.8 374.2 187.1 374.1 187.4 374.1 C 188.4 374.1 189.2 374.7 189.2 375.7 C 189.21 375.68 189.2 381.4 189.2 381.4 L 187.2 381.4 C 187.2 381.4 187.24 376.48 187.2 376.5 C 187.2 375.8 187.1 375.4 186.5 375.4 C 185.9 375.4 185.7 375.8 185.7 376.5 C 185.75 376.48 185.7 381.4 185.7 381.4 L 183.8 381.4 L 183.8 374.3 L 185.7 374.3 L 185.7 375 Z M 190 374.3 L 190.8 374.3 L 190.8 373.2 L 192.8 372.3 L 192.8 374.3 L 193.8 374.3 L 193.8 375.5 L 192.8 375.5 C 192.8 375.5 192.76 379.29 192.8 379.3 C 192.8 379.8 192.7 380.2 193.4 380.2 C 193.5 380.2 193.6 380.2 193.7 380.1 C 193.7 380.1 193.7 381.4 193.7 381.4 C 193.5 381.4 193.2 381.4 192.7 381.4 C 191 381.4 190.8 380.3 190.8 379.9 C 190.78 379.86 190.8 375.5 190.8 375.5 L 190 375.5 L 190 374.3 Z " stroke="none" fill="#003c71"/>  </g>  <g id="Polygon202624">    <path d="M 364 337.9 L 362.7 337.9 L 362.7 329.6 L 361.3 330.5 C 361.3 330.5 361.27 329.31 361.3 329.3 C 361.6 329.2 362.5 328.5 362.9 328.1 C 362.91 328.14 364 328.1 364 328.1 L 364 337.9 Z M 370.2 337.9 L 368.9 337.9 L 368.9 329.6 L 367.5 330.5 C 367.5 330.5 367.49 329.31 367.5 329.3 C 367.8 329.2 368.7 328.5 369.1 328.1 C 369.13 328.14 370.2 328.1 370.2 328.1 L 370.2 337.9 Z M 377.6 339.5 C 377 337.5 376.2 335.6 376.2 333.5 C 376.2 331.3 377 329.3 377.6 327.3 C 377.6 327.3 378.5 327.3 378.5 327.3 C 378 329.3 377.5 331.4 377.5 333.5 C 377.5 335.6 378 337.6 378.4 339.5 C 378.4 339.5 377.6 339.5 377.6 339.5 Z M 379.8 328.1 L 384.9 328.1 L 384.9 329.3 L 382.3 337.9 L 380.8 337.9 L 383.5 329.3 L 379.8 329.3 L 379.8 328.1 Z M 390.2 330.2 C 390.2 331.6 390.1 332.9 388.4 332.9 C 386.7 332.9 386.6 331.6 386.6 330.2 C 386.6 328.9 386.7 327.5 388.4 327.5 C 390.1 327.5 390.2 328.9 390.2 330.2 Z M 387.6 330.2 C 387.6 331.5 387.6 332.1 388.4 332.1 C 389.2 332.1 389.2 331.5 389.2 330.2 C 389.2 328.9 389.2 328.3 388.4 328.3 C 387.6 328.3 387.6 328.9 387.6 330.2 Z M 395.6 335.4 C 395.6 336.8 395.5 338.1 393.8 338.1 C 392.1 338.1 392 336.8 392 335.4 C 392 334.1 392.1 332.7 393.8 332.7 C 395.5 332.7 395.6 334.1 395.6 335.4 Z M 392.9 335.4 C 392.9 336.7 392.9 337.3 393.8 337.3 C 394.6 337.3 394.6 336.7 394.6 335.4 C 394.6 334.1 394.6 333.5 393.8 333.5 C 392.9 333.5 392.9 334.1 392.9 335.4 Z M 389.1 338.4 L 388.2 338.4 L 393 327.2 L 393.9 327.2 L 389.1 338.4 Z M 397.5 339.5 C 398 337.6 398.4 335.6 398.4 333.5 C 398.4 331.4 398 329.3 397.5 327.3 C 397.5 327.3 398.3 327.3 398.3 327.3 C 399 329.3 399.7 331.3 399.7 333.5 C 399.7 335.6 399 337.5 398.4 339.5 C 398.4 339.5 397.5 339.5 397.5 339.5 Z " stroke="none" fill="#003c71"/>  </g>  <g id="Polygon202623">    <path d="M 11.9 337.9 L 10.6 337.9 L 10.6 327.8 L 11.9 327.8 L 11.9 337.9 Z M 18.1 337.9 C 18.1 337.9 18.08 332.96 18.1 333 C 18.1 332.2 17.8 331.6 16.8 331.6 C 15.6 331.6 15.4 332.7 15.4 333.7 C 15.38 333.68 15.4 337.9 15.4 337.9 L 14.2 337.9 C 14.2 337.9 14.23 332.26 14.2 332.3 C 14.2 331.8 14.2 331.3 14.2 330.8 C 14.16 330.79 15.4 330.8 15.4 330.8 L 15.4 331.7 C 15.4 331.7 15.44 331.7 15.4 331.7 C 15.9 330.9 16.4 330.7 17.3 330.7 C 18.8 330.7 19.2 331.6 19.2 333 C 19.22 332.96 19.2 337.9 19.2 337.9 L 18.1 337.9 Z M 21.5 330.8 C 21.5 330.8 21.45 329.42 21.5 329.4 C 21.5 328 22.5 327.7 23.5 327.7 C 23.7 327.7 23.9 327.7 24 327.8 C 24 327.8 24 328.6 24 328.6 C 22.8 328.5 22.6 329 22.6 329.6 C 22.6 329.59 22.6 330.8 22.6 330.8 L 24 330.8 L 24 331.7 L 22.6 331.7 L 22.6 337.9 L 21.5 337.9 L 21.5 331.7 L 20.4 331.7 L 20.4 330.8 L 21.5 330.8 Z M 26.3 337.9 L 25.1 337.9 L 25.1 327.8 L 26.3 327.8 L 26.3 337.9 Z M 32 330.8 L 33.2 330.8 C 33.2 330.8 33.19 336.4 33.2 336.4 C 33.2 336.9 33.2 337.4 33.3 337.9 C 33.26 337.87 32 337.9 32 337.9 L 32 337 C 32 337 32 337.02 32 337 C 31.6 337.7 30.9 338 30.2 338 C 29 338 28.3 337.4 28.3 336.2 C 28.3 336.19 28.3 330.8 28.3 330.8 L 29.4 330.8 C 29.4 330.8 29.44 335.7 29.4 335.7 C 29.4 336.6 29.8 337.1 30.6 337.1 C 31.3 337.1 32 336.7 32 335.5 C 32.04 335.49 32 330.8 32 330.8 Z M 39.1 333.8 C 39.1 331.8 38.6 331.5 37.7 331.5 C 37 331.5 36.4 331.9 36.4 333.8 C 36.4 333.8 39.1 333.8 39.1 333.8 Z M 36.4 334.7 C 36.4 336.7 36.9 337.1 37.8 337.1 C 38.6 337.1 39 336.4 39 335.7 C 39 335.7 40.3 335.7 40.3 335.7 C 40.3 337.3 39.3 338 37.8 338 C 36.3 338 35.2 337.6 35.2 334.4 C 35.2 332.4 35.4 330.7 37.8 330.7 C 39.9 330.7 40.4 331.8 40.4 334.1 C 40.36 334.1 40.4 334.7 40.4 334.7 C 40.4 334.7 36.38 334.7 36.4 334.7 Z M 46.1 337.9 C 46.1 337.9 46.11 332.96 46.1 333 C 46.1 332.2 45.8 331.6 44.9 331.6 C 43.6 331.6 43.4 332.7 43.4 333.7 C 43.42 333.68 43.4 337.9 43.4 337.9 L 42.3 337.9 C 42.3 337.9 42.27 332.26 42.3 332.3 C 42.3 331.8 42.2 331.3 42.2 330.8 C 42.2 330.79 43.4 330.8 43.4 330.8 L 43.4 331.7 C 43.4 331.7 43.48 331.7 43.5 331.7 C 43.9 330.9 44.5 330.7 45.4 330.7 C 46.9 330.7 47.3 331.6 47.3 333 C 47.26 332.96 47.3 337.9 47.3 337.9 L 46.1 337.9 Z M 53.1 331.9 L 50 336.9 L 53.2 336.9 L 53.2 337.9 L 48.8 337.9 L 48.8 336.8 L 51.8 331.8 L 51.8 331.7 L 48.9 331.7 L 48.9 330.8 L 53.1 330.8 L 53.1 331.9 Z M 55.8 335.8 C 55.8 336.5 56.1 337.1 56.9 337.1 C 57.6 337.1 58.5 336.6 58.4 334.4 C 57.3 334.4 55.8 334.3 55.8 335.8 Z M 58.4 336.8 C 58.4 336.8 58.35 336.85 58.4 336.8 C 58 337.7 57.5 338 56.6 338 C 55.1 338 54.6 337 54.6 335.7 C 54.6 333.5 56.7 333.4 58.4 333.5 C 58.4 332.5 58.4 331.5 57.2 331.5 C 56.4 331.5 56 332 56.1 332.8 C 56.1 332.8 54.8 332.8 54.8 332.8 C 54.9 331.2 55.7 330.7 57.2 330.7 C 59 330.7 59.5 331.6 59.5 332.8 C 59.5 332.8 59.5 336.2 59.5 336.2 C 59.5 336.7 59.6 337.3 59.6 337.9 C 59.64 337.87 58.4 337.9 58.4 337.9 L 58.4 336.8 Z " stroke="none" fill="#003c71"/>  </g>  <g id="Polygon202622">    <path d="M 362.2 284.7 L 362.2 285.8 L 359 285.8 L 359 288.6 C 359 288.6 358.99 288.64 359 288.6 C 359.2 288.2 359.9 287.9 360.5 287.9 C 361.9 287.9 362.6 288.9 362.6 291.2 C 362.6 292.7 362.4 294.6 359.9 294.6 C 357.9 294.6 357.5 293.5 357.5 292.2 C 357.5 292.2 358.8 292.2 358.8 292.2 C 358.8 292.9 359.1 293.7 360 293.7 C 361.2 293.7 361.3 292.5 361.3 291.5 C 361.3 290.1 361.2 289 360 289 C 359.3 289 359 289.5 358.8 290.1 C 358.84 290.12 357.7 290.1 357.7 290.1 L 357.7 284.7 L 362.2 284.7 Z M 367.5 291.8 C 367.5 290.9 367.4 289.8 366.2 289.8 C 365 289.8 364.9 290.9 364.9 291.8 C 364.9 292.6 365.2 293.5 366.2 293.5 C 367.2 293.5 367.5 292.6 367.5 291.8 Z M 367 289.2 C 368.4 289.4 368.8 290.5 368.8 291.8 C 368.8 293.5 367.9 294.6 366.2 294.6 C 364.5 294.6 363.6 293.5 363.6 291.8 C 363.6 290.5 364 289.4 365.4 289.2 C 365.4 289.2 365.4 289.2 365.4 289.2 C 364.2 289 363.7 288 363.7 286.9 C 363.7 285.4 364.7 284.5 366.2 284.5 C 367.7 284.5 368.7 285.4 368.7 286.9 C 368.7 288 368.1 289 367 289.2 C 367 289.2 367 289.2 367 289.2 Z M 367.4 286.9 C 367.4 286.2 367 285.4 366.2 285.4 C 365.4 285.4 365 286.2 365 286.9 C 365 287.6 365.2 288.7 366.2 288.7 C 367.2 288.7 367.4 287.6 367.4 286.9 Z M 374.5 296 C 373.9 294.1 373.1 292.1 373.1 290 C 373.1 287.8 373.9 285.8 374.5 283.8 C 374.5 283.8 375.4 283.8 375.4 283.8 C 374.8 285.8 374.4 287.9 374.4 290 C 374.4 292.1 374.8 294.1 375.3 296 C 375.3 296 374.5 296 374.5 296 Z M 378.7 288.7 C 379.8 288.8 380.7 288.4 380.7 287.1 C 380.7 286.2 380.3 285.6 379.3 285.6 C 378.3 285.6 378.1 286.4 378.1 287.2 C 378.1 287.2 376.8 287.2 376.8 287.2 C 376.7 285.5 377.5 284.5 379.3 284.5 C 381 284.5 382 285.3 382 287 C 382 288.9 380.6 289.1 380 289.3 C 380 289.3 380 289.3 380 289.3 C 381.6 289.5 382.1 290.3 382.1 291.8 C 382.1 293.7 381 294.6 379.2 294.6 C 376.4 294.6 376.7 292.3 376.7 291.7 C 376.7 291.7 377.9 291.7 377.9 291.7 C 378 292.7 378.1 293.5 379.3 293.5 C 380.4 293.5 380.8 292.8 380.8 291.8 C 380.8 290.2 380.2 289.9 378.7 289.9 C 378.7 289.9 378.7 288.7 378.7 288.7 Z M 385.7 293.5 C 386.8 293.5 387 292.4 387 291.1 C 387 290.2 386.8 289.1 385.6 289.1 C 384.5 289.1 384.4 290.4 384.4 291.2 C 384.4 292.2 384.5 293.5 385.7 293.5 Z M 383 289.6 C 383 286.9 383 284.5 385.7 284.5 C 387.1 284.5 388.1 285.4 388.1 286.9 C 388.1 286.9 386.8 286.9 386.8 286.9 C 386.8 286.2 386.4 285.4 385.6 285.4 C 384.6 285.4 384.3 286.4 384.3 289 C 384.3 289 384.4 289 384.4 289 C 384.7 288.4 385.3 288 385.9 288 C 387.2 288 388.3 288.8 388.3 291.3 C 388.3 293.1 387.6 294.6 385.7 294.6 C 383 294.6 383 292.1 383 289.6 Z M 393.3 286.8 C 393.3 288.1 393.2 289.4 391.5 289.4 C 389.8 289.4 389.7 288.1 389.7 286.8 C 389.7 285.4 389.8 284.1 391.5 284.1 C 393.2 284.1 393.3 285.4 393.3 286.8 Z M 390.7 286.7 C 390.7 288 390.7 288.6 391.5 288.6 C 392.3 288.6 392.3 288 392.3 286.7 C 392.3 285.5 392.3 284.8 391.5 284.8 C 390.7 284.8 390.7 285.5 390.7 286.7 Z M 398.7 291.9 C 398.7 293.3 398.6 294.6 396.9 294.6 C 395.2 294.6 395.1 293.3 395.1 291.9 C 395.1 290.6 395.2 289.2 396.9 289.2 C 398.6 289.2 398.7 290.6 398.7 291.9 Z M 396.1 291.9 C 396.1 293.2 396.1 293.8 396.9 293.8 C 397.7 293.8 397.7 293.2 397.7 291.9 C 397.7 290.6 397.7 290 396.9 290 C 396.1 290 396.1 290.6 396.1 291.9 Z M 392.2 294.9 L 391.4 294.9 L 396.1 283.8 L 397 283.8 L 392.2 294.9 Z M 400.7 296 C 401.1 294.1 401.5 292.1 401.5 290 C 401.5 287.9 401.1 285.8 400.6 283.8 C 400.6 283.8 401.5 283.8 401.5 283.8 C 402.1 285.8 402.9 287.8 402.9 290 C 402.9 292.1 402.1 294.1 401.5 296 C 401.5 296 400.7 296 400.7 296 Z " stroke="none" fill="#003c71"/>  </g>  <g id="Polygon202621">    <path d="M 14.9 287.1 C 14.9 286.5 14.9 285.9 14.6 285.6 C 14.4 285.3 13.8 285.1 13.5 285.1 C 12.4 285.1 12 285.8 12 285.9 C 11.9 286 11.7 286.3 11.7 288 C 11.7 288 11.7 290.7 11.7 290.7 C 11.7 293.2 12.5 293.5 13.5 293.5 C 13.9 293.5 15.1 293.4 15.1 291.4 C 15.1 291.4 16.4 291.4 16.4 291.4 C 16.5 294.6 14.2 294.6 13.5 294.6 C 12.3 294.6 10.4 294.5 10.4 290.6 C 10.4 290.6 10.4 287.7 10.4 287.7 C 10.4 284.9 11.6 284.1 13.6 284.1 C 15.6 284.1 16.4 285.1 16.3 287.1 C 16.3 287.1 14.9 287.1 14.9 287.1 Z M 18.2 290.7 C 18.2 290.7 18.2 287.4 18.2 287.4 C 18.2 285.3 19.3 284.1 21.4 284.1 C 23.5 284.1 24.6 285.3 24.6 287.4 C 24.6 287.4 24.6 290.7 24.6 290.7 C 24.6 293.5 23.5 294.6 21.4 294.6 C 19.3 294.6 18.2 293.5 18.2 290.7 Z M 23.3 290.7 C 23.3 290.7 23.3 287.3 23.3 287.3 C 23.3 285.2 21.8 285.1 21.4 285.1 C 21 285.1 19.5 285.2 19.5 287.3 C 19.5 287.3 19.5 290.7 19.5 290.7 C 19.5 293 20.2 293.5 21.4 293.5 C 22.6 293.5 23.3 293 23.3 290.7 Z M 30.3 294.4 L 28.8 294.4 L 25.9 284.3 L 27.3 284.3 L 29.6 293.2 L 29.6 293.2 L 32 284.3 L 33.3 284.3 L 30.3 294.4 Z M 36.1 294.4 L 34.8 294.4 L 34.8 284.3 L 36.1 284.3 L 36.1 294.4 Z M 39.8 293.3 C 39.8 293.3 41.05 293.26 41.1 293.3 C 42.8 293.3 43.5 292.6 43.5 290.2 C 43.5 290.2 43.5 288.2 43.5 288.2 C 43.5 286.1 42.9 285.4 41.5 285.4 C 41.53 285.38 39.8 285.4 39.8 285.4 L 39.8 293.3 Z M 38.5 284.3 C 38.5 284.3 41.66 284.26 41.7 284.3 C 42.9 284.3 43.9 284.7 44.4 285.8 C 44.8 286.7 44.8 288.7 44.8 289 C 44.8 291.2 44.6 292.4 44.2 293.1 C 43.7 293.9 42.6 294.4 40.9 294.4 C 40.87 294.38 38.5 294.4 38.5 294.4 L 38.5 284.3 Z M 46.7 290 L 49.8 290 L 49.8 291.1 L 46.7 291.1 L 46.7 290 Z M 54.7 294.4 L 53.4 294.4 L 53.4 286.1 L 51.9 287.1 C 51.9 287.1 51.92 285.82 51.9 285.8 C 52.2 285.7 53.2 285 53.6 284.7 C 53.56 284.66 54.7 284.7 54.7 284.7 L 54.7 294.4 Z M 58.6 287.5 C 58.6 288.4 58.8 289.5 59.9 289.5 C 61.1 289.5 61.2 288.4 61.2 287.5 C 61.2 286.6 61 285.4 59.9 285.4 C 58.8 285.4 58.6 286.6 58.6 287.5 Z M 62.6 289.6 C 62.6 292.1 62.6 294.6 59.9 294.6 C 58.5 294.6 57.5 293.6 57.5 292.1 C 57.5 292.1 58.8 292.1 58.8 292.1 C 58.8 292.8 59.1 293.5 59.9 293.5 C 61.2 293.5 61.3 292.1 61.3 289.6 C 61.3 289.6 61.2 289.6 61.2 289.6 C 60.9 290.3 60.3 290.6 59.6 290.6 C 58.8 290.6 57.3 290.1 57.3 287.5 C 57.3 285.3 58.6 284.5 59.9 284.5 C 62.6 284.5 62.6 286.9 62.6 289.6 Z " stroke="none" fill="#003c71"/>  </g>  <g id="Polygon202620">    <path d="M 360.9 250.9 L 359.6 250.9 L 359.6 242.6 L 358.2 243.6 C 358.2 243.6 358.15 242.33 358.2 242.3 C 358.5 242.2 359.4 241.5 359.8 241.2 C 359.79 241.17 360.9 241.2 360.9 241.2 L 360.9 250.9 Z M 364.9 244 C 364.9 244.9 365 246 366.2 246 C 367.3 246 367.5 244.9 367.5 244 C 367.5 243.1 367.3 242 366.2 242 C 365.1 242 364.9 243.1 364.9 244 Z M 368.8 246.1 C 368.8 248.6 368.8 251.1 366.2 251.1 C 364.7 251.1 363.7 250.1 363.8 248.6 C 363.8 248.6 365.1 248.6 365.1 248.6 C 365.1 249.3 365.3 250 366.2 250 C 367.4 250 367.5 248.7 367.5 246.2 C 367.5 246.2 367.5 246.2 367.5 246.2 C 367.2 246.8 366.6 247.1 365.8 247.1 C 365 247.1 363.6 246.7 363.6 244 C 363.6 241.8 364.9 241 366.2 241 C 368.8 241 368.8 243.5 368.8 246.1 Z M 374.5 252.5 C 373.9 250.6 373.1 248.6 373.1 246.5 C 373.1 244.3 373.9 242.3 374.5 240.3 C 374.5 240.3 375.4 240.3 375.4 240.3 C 374.8 242.3 374.4 244.4 374.4 246.6 C 374.4 248.6 374.8 250.6 375.3 252.5 C 375.3 252.5 374.5 252.5 374.5 252.5 Z M 380.4 250.9 L 379.1 250.9 L 379.1 242.6 L 377.6 243.6 C 377.6 243.6 377.61 242.33 377.6 242.3 C 377.9 242.2 378.9 241.5 379.3 241.2 C 379.25 241.17 380.4 241.2 380.4 241.2 L 380.4 250.9 Z M 383.1 250.9 C 383.1 250.9 383.14 249.78 383.1 249.8 C 386 245.8 386.8 245.1 386.8 243.4 C 386.8 242.6 386.4 242.1 385.6 242.1 C 384.6 242.1 384.5 242.9 384.5 243.7 C 384.5 243.7 383.2 243.7 383.2 243.7 C 383.1 242.1 383.9 241 385.5 241 C 387.3 241 388.1 241.8 388.1 243.6 C 388.1 245.7 387 246.5 384.5 249.8 C 384.51 249.78 388.4 249.8 388.4 249.8 L 388.4 250.9 L 383.1 250.9 Z M 393.3 243.3 C 393.3 244.6 393.2 245.9 391.5 245.9 C 389.8 245.9 389.7 244.6 389.7 243.3 C 389.7 242 389.8 240.6 391.5 240.6 C 393.2 240.6 393.3 242 393.3 243.3 Z M 390.7 243.2 C 390.7 244.5 390.7 245.1 391.5 245.1 C 392.3 245.1 392.3 244.5 392.3 243.2 C 392.3 242 392.3 241.3 391.5 241.3 C 390.7 241.3 390.7 242 390.7 243.2 Z M 398.7 248.5 C 398.7 249.8 398.6 251.1 396.9 251.1 C 395.2 251.1 395.1 249.8 395.1 248.5 C 395.1 247.1 395.2 245.8 396.9 245.8 C 398.6 245.8 398.7 247.1 398.7 248.5 Z M 396.1 248.4 C 396.1 249.7 396.1 250.3 396.9 250.3 C 397.7 250.3 397.7 249.7 397.7 248.4 C 397.7 247.2 397.7 246.5 396.9 246.5 C 396.1 246.5 396.1 247.2 396.1 248.4 Z M 392.2 251.4 L 391.4 251.4 L 396.1 240.3 L 397 240.3 L 392.2 251.4 Z M 400.7 252.5 C 401.1 250.6 401.5 248.6 401.5 246.6 C 401.5 244.4 401.1 242.3 400.6 240.3 C 400.6 240.3 401.5 240.3 401.5 240.3 C 402.1 242.3 402.9 244.3 402.9 246.5 C 402.9 248.6 402.1 250.6 401.5 252.5 C 401.5 252.5 400.7 252.5 400.7 252.5 Z " stroke="none" fill="#003c71"/>  </g>  <g id="Polygon202619">    <path d="M 11.9 250.9 L 10.6 250.9 L 10.6 240.8 L 11.9 240.8 L 11.9 250.9 Z M 18.1 250.9 C 18.1 250.9 18.08 245.99 18.1 246 C 18.1 245.2 17.8 244.6 16.8 244.6 C 15.6 244.6 15.4 245.7 15.4 246.7 C 15.38 246.7 15.4 250.9 15.4 250.9 L 14.2 250.9 C 14.2 250.9 14.23 245.29 14.2 245.3 C 14.2 244.8 14.2 244.3 14.2 243.8 C 14.16 243.82 15.4 243.8 15.4 243.8 L 15.4 244.7 C 15.4 244.7 15.44 244.73 15.4 244.7 C 15.9 243.9 16.4 243.7 17.3 243.7 C 18.8 243.7 19.2 244.6 19.2 246 C 19.22 245.99 19.2 250.9 19.2 250.9 L 18.1 250.9 Z M 21.2 243.8 L 22.4 243.8 C 22.4 243.8 22.36 251.88 22.4 251.9 C 22.4 253 22 253.6 20.4 253.6 C 20.4 253.6 20.4 252.6 20.4 252.6 C 20.9 252.6 21.2 252.5 21.2 251.9 C 21.22 251.93 21.2 243.8 21.2 243.8 Z M 21.1 240.8 L 22.4 240.8 L 22.4 242 L 21.1 242 L 21.1 240.8 Z M 28.2 246.9 C 28.2 244.8 27.7 244.5 26.8 244.5 C 26.1 244.5 25.5 244.9 25.5 246.9 C 25.5 246.9 28.2 246.9 28.2 246.9 Z M 25.5 247.7 C 25.5 249.7 26 250.1 26.9 250.1 C 27.7 250.1 28.1 249.5 28.1 248.8 C 28.1 248.8 29.4 248.8 29.4 248.8 C 29.4 250.3 28.4 251 26.9 251 C 25.4 251 24.2 250.6 24.2 247.5 C 24.2 245.4 24.5 243.7 26.9 243.7 C 29 243.7 29.5 244.8 29.5 247.1 C 29.46 247.13 29.5 247.7 29.5 247.7 C 29.5 247.7 25.48 247.73 25.5 247.7 Z M 35.1 246.1 C 35.1 244.9 34.5 244.6 34.1 244.6 C 33.2 244.6 32.6 245 32.6 247 C 32.6 249.3 32.9 250.1 34.1 250.1 C 34.4 250.1 35.2 249.8 35.1 248.5 C 35.1 248.5 36.3 248.5 36.3 248.5 C 36.4 250.5 34.9 251 34.1 251 C 32.6 251 31.4 250.6 31.4 247.5 C 31.4 245.4 31.6 243.7 34.1 243.7 C 35.5 243.7 36.3 244.5 36.3 246.1 C 36.3 246.1 35.1 246.1 35.1 246.1 Z M 38.5 243.8 L 38.5 242.5 L 39.6 241.9 L 39.6 243.8 L 41.2 243.8 L 41.2 244.7 L 39.6 244.7 C 39.6 244.7 39.65 249.02 39.6 249 C 39.6 249.5 39.6 250 40.7 250 C 40.8 250 41 250 41.2 250 C 41.2 250 41.2 250.9 41.2 250.9 C 40.8 250.9 40.5 251 40.1 251 C 39 251 38.5 250.5 38.5 249.7 C 38.5 249.72 38.5 244.7 38.5 244.7 L 37.3 244.7 L 37.3 243.8 L 38.5 243.8 Z M 43.4 250.9 L 42.2 250.9 L 42.2 243.8 L 43.4 243.8 L 43.4 250.9 Z M 42.2 240.8 L 43.5 240.8 L 43.5 242 L 42.2 242 L 42.2 240.8 Z M 49.4 247 C 49.4 245 48.8 244.6 47.9 244.6 C 47 244.6 46.4 245 46.4 247 C 46.4 249.3 46.7 250.1 47.9 250.1 C 49.1 250.1 49.4 249.3 49.4 247 Z M 45.2 247.5 C 45.2 245.4 45.4 243.7 47.9 243.7 C 50.3 243.7 50.6 245.4 50.6 247.5 C 50.6 250.6 49.4 251 47.9 251 C 46.4 251 45.2 250.6 45.2 247.5 Z M 56.2 250.9 C 56.2 250.9 56.24 245.99 56.2 246 C 56.2 245.2 56 244.6 55 244.6 C 53.7 244.6 53.5 245.7 53.5 246.7 C 53.54 246.7 53.5 250.9 53.5 250.9 L 52.4 250.9 C 52.4 250.9 52.4 245.29 52.4 245.3 C 52.4 244.8 52.4 244.3 52.3 243.8 C 52.33 243.82 53.5 243.8 53.5 243.8 L 53.5 244.7 C 53.5 244.7 53.6 244.73 53.6 244.7 C 54 243.9 54.6 243.7 55.5 243.7 C 57 243.7 57.4 244.6 57.4 246 C 57.38 245.99 57.4 250.9 57.4 250.9 L 56.2 250.9 Z M 59.2 246.5 L 62.3 246.5 L 62.3 247.6 L 59.2 247.6 L 59.2 246.5 Z M 66.2 251 C 64.6 251 63.7 250.4 63.7 248.7 C 63.7 248.7 65 248.7 65 248.7 C 65 249.1 65 250.1 66.2 250.1 C 66.9 250.1 67.4 249.7 67.4 249 C 67.4 247.8 63.9 247.7 63.9 245.6 C 63.9 244.9 64.3 243.7 66.3 243.7 C 67.6 243.7 68.7 244.3 68.6 245.7 C 68.6 245.7 67.3 245.7 67.3 245.7 C 67.3 244.9 66.9 244.5 66.2 244.5 C 65.6 244.5 65.1 244.9 65.1 245.5 C 65.1 246.7 68.6 246.7 68.6 248.9 C 68.6 250.4 67.6 251 66.2 251 Z M 71.4 250.9 L 70.3 250.9 L 70.3 243.8 L 71.4 243.8 L 71.4 250.9 Z M 70.2 240.8 L 71.5 240.8 L 71.5 242 L 70.2 242 L 70.2 240.8 Z M 73.5 243.8 L 73.5 242.5 L 74.7 241.9 L 74.7 243.8 L 76.2 243.8 L 76.2 244.7 L 74.7 244.7 C 74.7 244.7 74.68 249.02 74.7 249 C 74.7 249.5 74.7 250 75.7 250 C 75.8 250 76 250 76.3 250 C 76.3 250 76.3 250.9 76.3 250.9 C 75.9 250.9 75.5 251 75.1 251 C 74 251 73.5 250.5 73.5 249.7 C 73.54 249.72 73.5 244.7 73.5 244.7 L 72.4 244.7 L 72.4 243.8 L 73.5 243.8 Z M 81.2 246.9 C 81.2 244.8 80.6 244.5 79.8 244.5 C 79 244.5 78.4 244.9 78.4 246.9 C 78.4 246.9 81.2 246.9 81.2 246.9 Z M 78.4 247.7 C 78.4 249.7 79 250.1 79.9 250.1 C 80.6 250.1 81.1 249.5 81.1 248.8 C 81.1 248.8 82.4 248.8 82.4 248.8 C 82.3 250.3 81.4 251 79.9 251 C 78.4 251 77.2 250.6 77.2 247.5 C 77.2 245.4 77.4 243.7 79.9 243.7 C 81.9 243.7 82.4 244.8 82.4 247.1 C 82.41 247.13 82.4 247.7 82.4 247.7 C 82.4 247.7 78.43 247.73 78.4 247.7 Z M 88.6 244.9 C 88.6 244.9 88.65 244.88 88.6 244.9 C 89.1 243.8 89.7 243.7 90.8 243.7 C 90.8 243.7 90.8 244.9 90.8 244.9 C 90.7 244.9 90.6 244.8 90.5 244.8 C 90.4 244.8 90.3 244.8 90.2 244.8 C 88.9 244.8 88.6 245.8 88.6 246.7 C 88.62 246.72 88.6 250.9 88.6 250.9 L 87.5 250.9 L 87.5 243.8 L 88.6 243.8 L 88.6 244.9 Z M 96 246.9 C 96 244.8 95.4 244.5 94.6 244.5 C 93.8 244.5 93.2 244.9 93.2 246.9 C 93.2 246.9 96 246.9 96 246.9 Z M 93.2 247.7 C 93.2 249.7 93.8 250.1 94.6 250.1 C 95.4 250.1 95.8 249.5 95.9 248.8 C 95.9 248.8 97.1 248.8 97.1 248.8 C 97.1 250.3 96.2 251 94.7 251 C 93.2 251 92 250.6 92 247.5 C 92 245.4 92.2 243.7 94.7 243.7 C 96.7 243.7 97.2 244.8 97.2 247.1 C 97.2 247.13 97.2 247.7 97.2 247.7 C 97.2 247.7 93.22 247.73 93.2 247.7 Z M 100.2 248.8 C 100.2 249.5 100.5 250.1 101.3 250.1 C 102 250.1 102.8 249.7 102.7 247.4 C 101.6 247.4 100.2 247.3 100.2 248.8 Z M 102.8 249.9 C 102.8 249.9 102.73 249.87 102.7 249.9 C 102.4 250.7 101.8 251 100.9 251 C 99.4 251 99 250.1 99 248.7 C 99 246.6 101.1 246.5 102.7 246.5 C 102.8 245.6 102.8 244.5 101.5 244.5 C 100.8 244.5 100.4 245.1 100.4 245.8 C 100.4 245.8 99.2 245.8 99.2 245.8 C 99.2 244.2 100.1 243.7 101.6 243.7 C 103.4 243.7 103.9 244.6 103.9 245.8 C 103.9 245.8 103.9 249.2 103.9 249.2 C 103.9 249.8 103.9 250.3 104 250.9 C 104.01 250.9 102.8 250.9 102.8 250.9 L 102.8 249.9 Z M 109.8 246.1 C 109.8 244.9 109.3 244.6 108.8 244.6 C 108 244.6 107.4 245 107.4 247 C 107.4 249.3 107.6 250.1 108.8 250.1 C 109.1 250.1 109.9 249.8 109.9 248.5 C 109.9 248.5 111.1 248.5 111.1 248.5 C 111.1 250.5 109.6 251 108.8 251 C 107.3 251 106.1 250.6 106.1 247.5 C 106.1 245.4 106.4 243.7 108.8 243.7 C 110.3 243.7 111.1 244.5 111 246.1 C 111 246.1 109.8 246.1 109.8 246.1 Z M 113.3 243.8 L 113.3 242.5 L 114.4 241.9 L 114.4 243.8 L 115.9 243.8 L 115.9 244.7 L 114.4 244.7 C 114.4 244.7 114.4 249.02 114.4 249 C 114.4 249.5 114.4 250 115.5 250 C 115.5 250 115.7 250 116 250 C 116 250 116 250.9 116 250.9 C 115.6 250.9 115.2 251 114.8 251 C 113.7 251 113.3 250.5 113.3 249.7 C 113.26 249.72 113.3 244.7 113.3 244.7 L 112.1 244.7 L 112.1 243.8 L 113.3 243.8 Z M 118.1 250.9 L 117 250.9 L 117 243.8 L 118.1 243.8 L 118.1 250.9 Z M 116.9 240.8 L 118.2 240.8 L 118.2 242 L 116.9 242 L 116.9 240.8 Z M 124.1 247 C 124.1 245 123.5 244.6 122.6 244.6 C 121.7 244.6 121.1 245 121.1 247 C 121.1 249.3 121.4 250.1 122.6 250.1 C 123.8 250.1 124.1 249.3 124.1 247 Z M 119.9 247.5 C 119.9 245.4 120.2 243.7 122.6 243.7 C 125.1 243.7 125.3 245.4 125.3 247.5 C 125.3 250.6 124.1 251 122.6 251 C 121.1 251 119.9 250.6 119.9 247.5 Z M 131 250.9 C 131 250.9 130.99 245.99 131 246 C 131 245.2 130.7 244.6 129.7 244.6 C 128.5 244.6 128.3 245.7 128.3 246.7 C 128.3 246.7 128.3 250.9 128.3 250.9 L 127.1 250.9 C 127.1 250.9 127.15 245.29 127.1 245.3 C 127.1 244.8 127.1 244.3 127.1 243.8 C 127.08 243.82 128.3 243.8 128.3 243.8 L 128.3 244.7 C 128.3 244.7 128.35 244.73 128.4 244.7 C 128.8 243.9 129.3 243.7 130.2 243.7 C 131.8 243.7 132.1 244.6 132.1 246 C 132.14 245.99 132.1 250.9 132.1 250.9 L 131 250.9 Z M 136.2 251 C 134.7 251 133.8 250.4 133.8 248.7 C 133.8 248.7 135.1 248.7 135.1 248.7 C 135.1 249.1 135.1 250.1 136.3 250.1 C 137 250.1 137.5 249.7 137.5 249 C 137.5 247.8 134 247.7 134 245.6 C 134 244.9 134.4 243.7 136.4 243.7 C 137.7 243.7 138.8 244.3 138.7 245.7 C 138.7 245.7 137.4 245.7 137.4 245.7 C 137.4 244.9 137 244.5 136.3 244.5 C 135.7 244.5 135.2 244.9 135.2 245.5 C 135.2 246.7 138.7 246.7 138.7 248.9 C 138.7 250.4 137.6 251 136.2 251 Z M 141.5 241.8 L 142.2 242.9 L 141.7 243.2 L 141.2 242 L 140.6 243.2 L 140.2 242.9 L 140.9 241.8 L 139.6 242 L 139.6 241.4 L 140.9 241.5 L 140.2 240.5 L 140.7 240.2 L 141.2 241.4 L 141.7 240.2 L 142.2 240.5 L 141.5 241.5 L 142.7 241.4 L 142.7 242 L 141.5 241.8 Z " stroke="none" fill="#003c71"/>  </g>  <g id="Polygon202618">    <path d="M 364 207.4 L 362.7 207.4 L 362.7 199.1 L 361.3 200.1 C 361.3 200.1 361.27 198.84 361.3 198.8 C 361.6 198.7 362.5 198 362.9 197.7 C 362.91 197.68 364 197.7 364 197.7 L 364 207.4 Z M 371.9 202.6 C 371.9 205.1 371.9 207.6 369.3 207.6 C 366.7 207.6 366.7 205.1 366.7 202.6 C 366.7 200 366.6 197.5 369.3 197.5 C 372 197.5 371.9 200 371.9 202.6 Z M 368 202.8 C 368 204.5 367.9 206.5 369.3 206.5 C 370.7 206.5 370.6 204.5 370.6 202.8 C 370.6 200.2 370.6 198.6 369.3 198.6 C 368 198.6 368 200.2 368 202.8 Z M 377.6 209.1 C 377 207.1 376.2 205.1 376.2 203 C 376.2 200.8 377 198.8 377.6 196.8 C 377.6 196.8 378.5 196.8 378.5 196.8 C 378 198.9 377.5 200.9 377.5 203.1 C 377.5 205.1 378 207.1 378.4 209.1 C 378.4 209.1 377.6 209.1 377.6 209.1 Z M 382.6 206.5 C 383.7 206.5 383.9 205.4 383.9 204.1 C 383.9 203.2 383.7 202.2 382.5 202.2 C 381.4 202.2 381.2 203.4 381.2 204.3 C 381.2 205.2 381.4 206.5 382.6 206.5 Z M 379.9 202.6 C 379.9 200 379.9 197.5 382.5 197.5 C 384 197.5 385 198.4 385 199.9 C 385 199.9 383.7 199.9 383.7 199.9 C 383.7 199.2 383.3 198.5 382.5 198.5 C 381.5 198.5 381.2 199.4 381.2 202 C 381.2 202 381.2 202 381.2 202 C 381.6 201.4 382.2 201.1 382.8 201.1 C 384.1 201.1 385.1 201.8 385.1 204.3 C 385.1 206.1 384.4 207.6 382.5 207.6 C 379.9 207.6 379.9 205.1 379.9 202.6 Z M 390.2 199.8 C 390.2 201.1 390.1 202.4 388.4 202.4 C 386.7 202.4 386.6 201.1 386.6 199.8 C 386.6 198.5 386.7 197.1 388.4 197.1 C 390.1 197.1 390.2 198.5 390.2 199.8 Z M 387.6 199.8 C 387.6 201 387.6 201.6 388.4 201.6 C 389.2 201.6 389.2 201 389.2 199.8 C 389.2 198.5 389.2 197.9 388.4 197.9 C 387.6 197.9 387.6 198.5 387.6 199.8 Z M 395.6 205 C 395.6 206.3 395.5 207.6 393.8 207.6 C 392.1 207.6 392 206.3 392 205 C 392 203.7 392.1 202.3 393.8 202.3 C 395.5 202.3 395.6 203.7 395.6 205 Z M 392.9 204.9 C 392.9 206.2 392.9 206.8 393.8 206.8 C 394.6 206.8 394.6 206.2 394.6 204.9 C 394.6 203.7 394.6 203 393.8 203 C 392.9 203 392.9 203.7 392.9 204.9 Z M 389.1 207.9 L 388.2 207.9 L 393 196.8 L 393.9 196.8 L 389.1 207.9 Z M 397.5 209.1 C 398 207.1 398.4 205.1 398.4 203.1 C 398.4 200.9 398 198.9 397.5 196.8 C 397.5 196.8 398.3 196.8 398.3 196.8 C 399 198.8 399.7 200.8 399.7 203 C 399.7 205.1 399 207.1 398.4 209.1 C 398.4 209.1 397.5 209.1 397.5 209.1 Z " stroke="none" fill="#003c71"/>  </g>  <g id="Polygon202617">    <path d="M 10.5 207.4 L 10.5 197.3 L 11.8 197.3 L 11.8 201.7 L 15.4 201.7 L 15.4 197.3 L 16.7 197.3 L 16.7 207.4 L 15.4 207.4 L 15.4 202.8 L 11.8 202.8 L 11.8 207.4 L 10.5 207.4 Z M 22.8 203.4 C 22.8 201.3 22.2 201.1 21.4 201.1 C 20.6 201.1 20 201.4 20 203.4 C 20 203.4 22.8 203.4 22.8 203.4 Z M 20 204.2 C 20 206.2 20.6 206.6 21.5 206.6 C 22.2 206.6 22.6 206 22.7 205.3 C 22.7 205.3 23.9 205.3 23.9 205.3 C 23.9 206.8 23 207.5 21.5 207.5 C 20 207.5 18.8 207.1 18.8 204 C 18.8 201.9 19 200.2 21.5 200.2 C 23.5 200.2 24 201.3 24 203.6 C 24 203.64 24 204.2 24 204.2 C 24 204.2 20.02 204.24 20 204.2 Z M 27 205.3 C 27 206 27.3 206.6 28.1 206.6 C 28.8 206.6 29.6 206.2 29.5 203.9 C 28.4 203.9 27 203.8 27 205.3 Z M 29.6 206.4 C 29.6 206.4 29.53 206.39 29.5 206.4 C 29.2 207.2 28.6 207.5 27.7 207.5 C 26.2 207.5 25.8 206.6 25.8 205.2 C 25.8 203.1 27.9 203 29.5 203 C 29.6 202.1 29.6 201.1 28.3 201.1 C 27.6 201.1 27.2 201.6 27.2 202.3 C 27.2 202.3 26 202.3 26 202.3 C 26 200.7 26.9 200.2 28.4 200.2 C 30.2 200.2 30.7 201.1 30.7 202.3 C 30.7 202.3 30.7 205.7 30.7 205.7 C 30.7 206.3 30.7 206.9 30.8 207.4 C 30.82 207.41 29.6 207.4 29.6 207.4 L 29.6 206.4 Z M 35.3 201.1 C 34.1 201.1 33.9 202.1 33.9 204 C 33.9 205.1 33.9 206.6 35.4 206.6 C 36.7 206.6 36.7 205 36.7 203.6 C 36.7 202.6 36.6 201.1 35.3 201.1 Z M 36.7 197.3 L 37.8 197.3 L 37.8 207.4 L 36.7 207.4 L 36.7 206.6 C 36.7 206.6 36.64 206.57 36.6 206.6 C 36.2 207.2 35.8 207.5 35 207.5 C 33.9 207.5 32.7 207.1 32.7 204 C 32.7 202.2 32.8 200.2 35.1 200.2 C 35.7 200.2 36.2 200.5 36.6 201 C 36.62 201.04 36.7 201 36.7 201 L 36.7 197.3 Z M 41 205.3 C 41 206 41.3 206.6 42.1 206.6 C 42.8 206.6 43.7 206.2 43.5 203.9 C 42.5 203.9 41 203.8 41 205.3 Z M 43.6 206.4 C 43.6 206.4 43.55 206.39 43.5 206.4 C 43.2 207.2 42.7 207.5 41.8 207.5 C 40.3 207.5 39.8 206.6 39.8 205.2 C 39.8 203.1 41.9 203 43.5 203 C 43.6 202.1 43.6 201.1 42.4 201.1 C 41.6 201.1 41.2 201.6 41.2 202.3 C 41.2 202.3 40 202.3 40 202.3 C 40.1 200.7 40.9 200.2 42.4 200.2 C 44.2 200.2 44.7 201.1 44.7 202.3 C 44.7 202.3 44.7 205.7 44.7 205.7 C 44.7 206.3 44.8 206.9 44.8 207.4 C 44.84 207.41 43.6 207.4 43.6 207.4 L 43.6 206.4 Z M 50.6 202.6 C 50.7 201.4 50.1 201.1 49.7 201.1 C 48.8 201.1 48.2 201.5 48.2 203.5 C 48.2 205.8 48.5 206.6 49.7 206.6 C 49.9 206.6 50.7 206.3 50.7 205.1 C 50.7 205.1 51.9 205.1 51.9 205.1 C 51.9 207 50.4 207.5 49.7 207.5 C 48.2 207.5 47 207.1 47 204 C 47 201.9 47.2 200.2 49.7 200.2 C 51.1 200.2 51.9 201 51.8 202.6 C 51.8 202.6 50.6 202.6 50.6 202.6 Z M 57.8 207.4 C 57.8 207.4 57.79 202.61 57.8 202.6 C 57.8 201.7 57.5 201.1 56.5 201.1 C 55.4 201.1 55.1 202.1 55.1 203.2 C 55.09 203.24 55.1 207.4 55.1 207.4 L 53.9 207.4 L 53.9 197.3 L 55.1 197.3 L 55.1 201.2 C 55.1 201.2 55.14 201.24 55.1 201.2 C 55.6 200.4 56.1 200.2 57.1 200.2 C 58.3 200.2 58.9 200.8 58.9 202.4 C 58.94 202.39 58.9 207.4 58.9 207.4 L 57.8 207.4 Z M 64.8 203.4 C 64.8 201.3 64.3 201.1 63.4 201.1 C 62.7 201.1 62.1 201.4 62.1 203.4 C 62.1 203.4 64.8 203.4 64.8 203.4 Z M 62.1 204.2 C 62.1 206.2 62.6 206.6 63.5 206.6 C 64.3 206.6 64.7 206 64.7 205.3 C 64.7 205.3 66 205.3 66 205.3 C 66 206.8 65 207.5 63.5 207.5 C 62 207.5 60.8 207.1 60.8 204 C 60.8 201.9 61.1 200.2 63.5 200.2 C 65.6 200.2 66.1 201.3 66.1 203.6 C 66.06 203.64 66.1 204.2 66.1 204.2 C 66.1 204.2 62.08 204.24 62.1 204.2 Z " stroke="none" fill="#003c71"/>  </g>  <g id="Polygon202616">    <path d="M 357.5 163.9 C 357.5 163.9 357.45 162.8 357.5 162.8 C 360.3 158.8 361.1 158.1 361.1 156.4 C 361.1 155.6 360.8 155.1 359.9 155.1 C 359 155.1 358.8 155.9 358.8 156.7 C 358.8 156.7 357.5 156.7 357.5 156.7 C 357.4 155.1 358.2 154 359.8 154 C 361.6 154 362.4 154.8 362.4 156.6 C 362.4 158.8 361.3 159.5 358.8 162.8 C 358.82 162.8 362.7 162.8 362.7 162.8 L 362.7 163.9 L 357.5 163.9 Z M 363.5 154.2 L 368.5 154.2 L 368.5 155.3 L 365.9 163.9 L 364.5 163.9 L 367.2 155.3 L 363.5 155.3 L 363.5 154.2 Z M 374.5 165.6 C 373.9 163.6 373.1 161.6 373.1 159.5 C 373.1 157.4 373.9 155.4 374.5 153.3 C 374.5 153.3 375.4 153.3 375.4 153.3 C 374.8 155.4 374.4 157.5 374.4 159.6 C 374.4 161.6 374.8 163.6 375.3 165.6 C 375.3 165.6 374.5 165.6 374.5 165.6 Z M 380.4 163.9 L 379.1 163.9 L 379.1 155.6 L 377.6 156.6 C 377.6 156.6 377.61 155.36 377.6 155.4 C 377.9 155.2 378.9 154.5 379.3 154.2 C 379.25 154.19 380.4 154.2 380.4 154.2 L 380.4 163.9 Z M 383 154.2 L 388 154.2 L 388 155.3 L 385.4 163.9 L 383.9 163.9 L 386.7 155.3 L 383 155.3 L 383 154.2 Z M 393.3 156.3 C 393.3 157.6 393.2 158.9 391.5 158.9 C 389.8 158.9 389.7 157.6 389.7 156.3 C 389.7 155 389.8 153.6 391.5 153.6 C 393.2 153.6 393.3 155 393.3 156.3 Z M 390.7 156.3 C 390.7 157.5 390.7 158.2 391.5 158.2 C 392.3 158.2 392.3 157.5 392.3 156.3 C 392.3 155 392.3 154.4 391.5 154.4 C 390.7 154.4 390.7 155 390.7 156.3 Z M 398.7 161.5 C 398.7 162.8 398.6 164.1 396.9 164.1 C 395.2 164.1 395.1 162.8 395.1 161.5 C 395.1 160.2 395.2 158.8 396.9 158.8 C 398.6 158.8 398.7 160.2 398.7 161.5 Z M 396.1 161.5 C 396.1 162.7 396.1 163.3 396.9 163.3 C 397.7 163.3 397.7 162.7 397.7 161.5 C 397.7 160.2 397.7 159.6 396.9 159.6 C 396.1 159.6 396.1 160.2 396.1 161.5 Z M 392.2 164.4 L 391.4 164.4 L 396.1 153.3 L 397 153.3 L 392.2 164.4 Z M 400.7 165.6 C 401.1 163.6 401.5 161.6 401.5 159.6 C 401.5 157.5 401.1 155.4 400.6 153.3 C 400.6 153.3 401.5 153.3 401.5 153.3 C 402.1 155.4 402.9 157.4 402.9 159.5 C 402.9 161.6 402.1 163.6 401.5 165.6 C 401.5 165.6 400.7 165.6 400.7 165.6 Z " stroke="none" fill="#003c71"/>  </g>  <g id="Polygon202615">    <path d="M 17.5 153.8 L 17.5 163.9 L 15.7 163.9 L 11.7 155.1 L 11.7 155.1 L 11.7 163.9 L 10.5 163.9 L 10.5 153.8 L 12.4 153.8 L 16.3 162.5 L 16.3 162.5 L 16.3 153.8 L 17.5 153.8 Z M 20.7 161.8 C 20.7 162.5 21.1 163.1 21.8 163.1 C 22.5 163.1 23.4 162.7 23.3 160.4 C 22.2 160.4 20.7 160.3 20.7 161.8 Z M 23.3 162.9 C 23.3 162.9 23.3 162.9 23.3 162.9 C 23 163.7 22.4 164.1 21.5 164.1 C 20 164.1 19.6 163.1 19.6 161.7 C 19.6 159.6 21.7 159.5 23.3 159.5 C 23.3 158.6 23.3 157.6 22.1 157.6 C 21.3 157.6 20.9 158.1 21 158.8 C 21 158.8 19.8 158.8 19.8 158.8 C 19.8 157.2 20.7 156.7 22.2 156.7 C 24 156.7 24.5 157.6 24.5 158.8 C 24.5 158.8 24.5 162.2 24.5 162.2 C 24.5 162.8 24.5 163.4 24.6 163.9 C 24.59 163.92 23.3 163.9 23.3 163.9 L 23.3 162.9 Z M 28.8 164.1 C 27.3 164.1 26.3 163.4 26.3 161.8 C 26.3 161.8 27.6 161.8 27.6 161.8 C 27.6 162.2 27.7 163.1 28.8 163.1 C 29.5 163.1 30 162.8 30 162 C 30 160.8 26.5 160.8 26.5 158.6 C 26.5 157.9 27 156.7 29 156.7 C 30.2 156.7 31.3 157.3 31.2 158.7 C 31.2 158.7 29.9 158.7 29.9 158.7 C 29.9 158 29.5 157.6 28.8 157.6 C 28.2 157.6 27.7 157.9 27.7 158.5 C 27.7 159.8 31.3 159.7 31.3 161.9 C 31.3 163.5 30.2 164.1 28.8 164.1 Z M 36.9 160 C 36.9 158.1 36.3 157.6 35.4 157.6 C 34.5 157.6 33.9 158.1 33.9 160 C 33.9 162.3 34.2 163.1 35.4 163.1 C 36.6 163.1 36.9 162.3 36.9 160 Z M 32.7 160.5 C 32.7 158.4 33 156.7 35.4 156.7 C 37.9 156.7 38.1 158.4 38.1 160.5 C 38.1 163.6 36.9 164.1 35.4 164.1 C 33.9 164.1 32.7 163.6 32.7 160.5 Z M 43.9 160.3 C 43.9 159.2 43.9 157.6 42.5 157.6 C 41.1 157.6 41.2 159.6 41.2 160.7 C 41.2 161.6 41.2 163.1 42.5 163.1 C 43.7 163.1 43.9 162.2 43.9 160.3 Z M 41.2 157.7 C 41.2 157.7 41.21 157.68 41.2 157.7 C 41.6 157 42.1 156.7 42.8 156.7 C 44 156.7 45.1 157.1 45.1 160.3 C 45.1 162 45.1 164.1 42.8 164.1 C 42.1 164.1 41.6 163.8 41.2 163.2 C 41.22 163.21 41.2 163.2 41.2 163.2 L 41.2 166.6 L 40 166.6 L 40 156.8 L 41.2 156.8 L 41.2 157.7 Z M 50.8 163.9 C 50.8 163.9 50.78 159.12 50.8 159.1 C 50.8 158.3 50.5 157.6 49.5 157.6 C 48.4 157.6 48.1 158.6 48.1 159.8 C 48.08 159.76 48.1 163.9 48.1 163.9 L 46.9 163.9 L 46.9 153.8 L 48.1 153.8 L 48.1 157.8 C 48.1 157.8 48.13 157.75 48.1 157.8 C 48.6 156.9 49.1 156.7 50.1 156.7 C 51.3 156.7 51.9 157.3 51.9 158.9 C 51.93 158.9 51.9 163.9 51.9 163.9 L 50.8 163.9 Z M 55 161.8 C 55 162.5 55.3 163.1 56.1 163.1 C 56.8 163.1 57.7 162.7 57.6 160.4 C 56.5 160.4 55 160.3 55 161.8 Z M 57.6 162.9 C 57.6 162.9 57.57 162.9 57.6 162.9 C 57.2 163.7 56.7 164.1 55.8 164.1 C 54.3 164.1 53.9 163.1 53.9 161.7 C 53.9 159.6 56 159.5 57.6 159.5 C 57.6 158.6 57.6 157.6 56.4 157.6 C 55.6 157.6 55.2 158.1 55.3 158.8 C 55.3 158.8 54 158.8 54 158.8 C 54.1 157.2 54.9 156.7 56.4 156.7 C 58.2 156.7 58.7 157.6 58.7 158.8 C 58.7 158.8 58.7 162.2 58.7 162.2 C 58.7 162.8 58.8 163.4 58.9 163.9 C 58.86 163.92 57.6 163.9 57.6 163.9 L 57.6 162.9 Z M 62.2 157.9 C 62.2 157.9 62.18 157.91 62.2 157.9 C 62.7 156.8 63.2 156.7 64.4 156.7 C 64.4 156.7 64.4 157.9 64.4 157.9 C 64.3 157.9 64.2 157.9 64.1 157.8 C 64 157.8 63.9 157.8 63.7 157.8 C 62.5 157.8 62.2 158.8 62.2 159.7 C 62.15 159.74 62.2 163.9 62.2 163.9 L 61 163.9 L 61 156.8 L 62.2 156.8 L 62.2 157.9 Z M 67.8 162.6 L 67.8 162.6 L 69.5 156.8 L 70.7 156.8 L 67.5 166.6 L 66.3 166.6 L 67.1 163.9 L 64.7 156.8 L 66.1 156.8 L 67.8 162.6 Z M 75.7 163.9 C 75.7 163.9 75.7 159.01 75.7 159 C 75.7 158.3 75.4 157.6 74.4 157.6 C 73.2 157.6 73 158.8 73 159.7 C 73 159.73 73 163.9 73 163.9 L 71.9 163.9 C 71.9 163.9 71.85 158.31 71.9 158.3 C 71.9 157.8 71.8 157.3 71.8 156.8 C 71.78 156.84 73 156.8 73 156.8 L 73 157.8 C 73 157.8 73.06 157.75 73.1 157.8 C 73.5 157 74 156.7 75 156.7 C 76.5 156.7 76.8 157.6 76.8 159 C 76.84 159.01 76.8 163.9 76.8 163.9 L 75.7 163.9 Z M 81.3 157.7 C 80 157.7 79.9 159.2 79.9 160.2 C 79.9 162.4 80.4 163 81.3 163 C 82.7 163 82.6 161.3 82.6 160.3 C 82.6 159.3 82.7 157.7 81.3 157.7 Z M 82.6 156.8 L 83.8 156.8 C 83.8 156.8 83.76 164.64 83.8 164.6 C 83.8 166.2 82.7 166.6 81.1 166.6 C 80 166.6 78.9 166 79 164.7 C 79 164.7 80.3 164.7 80.3 164.7 C 80.3 165.4 80.7 165.7 81.4 165.7 C 82.2 165.7 82.6 165.2 82.6 164.5 C 82.61 164.51 82.6 163 82.6 163 C 82.6 163 82.57 163.04 82.6 163 C 82.3 163.6 81.6 163.9 81 163.9 C 79.1 163.9 78.7 162.3 78.7 160.2 C 78.7 156.9 80.3 156.7 80.9 156.7 C 81.7 156.7 82.3 157 82.6 157.7 C 82.58 157.71 82.6 157.7 82.6 157.7 L 82.6 156.8 Z M 87 163.9 L 85.8 163.9 L 85.8 156.8 L 87 156.8 L 87 163.9 Z M 85.8 153.8 L 87.1 153.8 L 87.1 155 L 85.8 155 L 85.8 153.8 Z M 89.1 156.8 L 89.1 155.5 L 90.3 155 L 90.3 156.8 L 91.8 156.8 L 91.8 157.7 L 90.3 157.7 C 90.3 157.7 90.26 162.04 90.3 162 C 90.3 162.5 90.3 163.1 91.3 163.1 C 91.4 163.1 91.6 163 91.8 163 C 91.8 163 91.8 163.9 91.8 163.9 C 91.5 163.9 91.1 164 90.7 164 C 89.6 164 89.1 163.6 89.1 162.7 C 89.11 162.74 89.1 157.7 89.1 157.7 L 87.9 157.7 L 87.9 156.8 L 89.1 156.8 Z M 94 163.9 L 92.9 163.9 L 92.9 156.8 L 94 156.8 L 94 163.9 Z M 92.8 153.8 L 94.1 153.8 L 94.1 155 L 92.8 155 L 92.8 153.8 Z M 98.1 164.1 C 96.6 164.1 95.6 163.4 95.6 161.8 C 95.6 161.8 96.9 161.8 96.9 161.8 C 96.9 162.2 97 163.1 98.1 163.1 C 98.8 163.1 99.3 162.8 99.3 162 C 99.3 160.8 95.8 160.8 95.8 158.6 C 95.8 157.9 96.3 156.7 98.3 156.7 C 99.5 156.7 100.6 157.3 100.5 158.7 C 100.5 158.7 99.2 158.7 99.2 158.7 C 99.2 158 98.8 157.6 98.1 157.6 C 97.5 157.6 97 157.9 97 158.5 C 97 159.8 100.6 159.7 100.6 161.9 C 100.6 163.5 99.5 164.1 98.1 164.1 Z " stroke="none" fill="#003c71"/>  </g>  <g id="Polygon202614">    <path d="M 364.9 113.5 C 364.9 114.5 365 115.5 366.2 115.5 C 367.3 115.5 367.5 114.5 367.5 113.5 C 367.5 112.6 367.3 111.5 366.2 111.5 C 365.1 111.5 364.9 112.6 364.9 113.5 Z M 368.8 115.6 C 368.8 118.1 368.8 120.6 366.2 120.6 C 364.7 120.6 363.7 119.6 363.8 118.1 C 363.8 118.1 365.1 118.1 365.1 118.1 C 365.1 118.8 365.3 119.6 366.2 119.6 C 367.4 119.6 367.5 118.2 367.5 115.7 C 367.5 115.7 367.5 115.7 367.5 115.7 C 367.2 116.4 366.6 116.6 365.8 116.6 C 365 116.6 363.6 116.2 363.6 113.5 C 363.6 111.3 364.9 110.5 366.2 110.5 C 368.8 110.5 368.8 113 368.8 115.6 Z M 374.5 122.1 C 373.9 120.1 373.1 118.1 373.1 116 C 373.1 113.9 373.9 111.9 374.5 109.8 C 374.5 109.8 375.4 109.8 375.4 109.8 C 374.8 111.9 374.4 114 374.4 116.1 C 374.4 118.1 374.8 120.1 375.3 122.1 C 375.3 122.1 374.5 122.1 374.5 122.1 Z M 379.5 119.6 C 380.6 119.6 380.7 118.4 380.7 117.1 C 380.7 116.3 380.5 115.2 379.4 115.2 C 378.3 115.2 378.1 116.4 378.1 117.3 C 378.1 118.2 378.3 119.6 379.5 119.6 Z M 376.8 115.6 C 376.8 113 376.8 110.5 379.4 110.5 C 380.9 110.5 381.9 111.4 381.8 112.9 C 381.8 112.9 380.6 112.9 380.6 112.9 C 380.6 112.2 380.2 111.5 379.4 111.5 C 378.4 111.5 378.1 112.4 378.1 115 C 378.1 115 378.1 115 378.1 115 C 378.5 114.4 379 114.1 379.7 114.1 C 381 114.1 382 114.8 382 117.4 C 382 119.1 381.3 120.6 379.4 120.6 C 376.8 120.6 376.8 118.1 376.8 115.6 Z M 387.1 112.8 C 387.1 114.2 387 115.5 385.3 115.5 C 383.6 115.5 383.5 114.2 383.5 112.8 C 383.5 111.5 383.6 110.1 385.3 110.1 C 387 110.1 387.1 111.5 387.1 112.8 Z M 384.5 112.8 C 384.5 114.1 384.5 114.7 385.3 114.7 C 386.1 114.7 386.1 114.1 386.1 112.8 C 386.1 111.5 386.1 110.9 385.3 110.9 C 384.5 110.9 384.5 111.5 384.5 112.8 Z M 392.4 118 C 392.4 119.3 392.3 120.6 390.7 120.6 C 389 120.6 388.9 119.3 388.9 118 C 388.9 116.7 389 115.3 390.7 115.3 C 392.3 115.3 392.4 116.7 392.4 118 Z M 389.8 118 C 389.8 119.2 389.8 119.9 390.7 119.9 C 391.5 119.9 391.5 119.2 391.5 118 C 391.5 116.7 391.5 116.1 390.7 116.1 C 389.8 116.1 389.8 116.7 389.8 118 Z M 386 120.9 L 385.1 120.9 L 389.9 109.8 L 390.8 109.8 L 386 120.9 Z M 394.4 122.1 C 394.9 120.1 395.3 118.1 395.3 116.1 C 395.3 114 394.9 111.9 394.4 109.8 C 394.4 109.8 395.2 109.8 395.2 109.8 C 395.9 111.9 396.6 113.9 396.6 116 C 396.6 118.1 395.9 120.1 395.2 122.1 C 395.2 122.1 394.4 122.1 394.4 122.1 Z " stroke="none" fill="#003c71"/>  </g>  <g id="Polygon202613">    <path d="M 10.4 110.3 L 11.7 110.3 C 11.7 110.3 11.71 116.79 11.7 116.8 C 11.7 119 12.4 119.6 13.6 119.6 C 14.8 119.6 15.5 119 15.5 116.8 C 15.5 116.79 15.5 110.3 15.5 110.3 L 16.8 110.3 C 16.8 110.3 16.78 116.73 16.8 116.7 C 16.8 119.5 15.7 120.6 13.6 120.6 C 11.5 120.6 10.4 119.5 10.4 116.7 C 10.42 116.73 10.4 110.3 10.4 110.3 Z M 22.9 116.8 C 22.9 115.7 22.9 114.2 21.4 114.2 C 20 114.2 20.1 116.1 20.1 117.2 C 20.1 118.1 20.2 119.6 21.5 119.6 C 22.7 119.6 22.9 118.7 22.9 116.8 Z M 20.1 114.2 C 20.1 114.2 20.18 114.19 20.2 114.2 C 20.6 113.5 21.1 113.2 21.8 113.2 C 22.9 113.2 24.1 113.7 24.1 116.8 C 24.1 118.5 24 120.6 21.7 120.6 C 21.1 120.6 20.6 120.3 20.2 119.7 C 20.19 119.72 20.1 119.7 20.1 119.7 L 20.1 123.1 L 19 123.1 L 19 113.4 L 20.1 113.4 L 20.1 114.2 Z M 29.9 116.8 C 29.9 115.7 29.9 114.2 28.4 114.2 C 27 114.2 27.2 116.1 27.2 117.2 C 27.2 118.1 27.2 119.6 28.5 119.6 C 29.7 119.6 29.9 118.7 29.9 116.8 Z M 27.2 114.2 C 27.2 114.2 27.19 114.19 27.2 114.2 C 27.6 113.5 28.1 113.2 28.8 113.2 C 29.9 113.2 31.1 113.7 31.1 116.8 C 31.1 118.5 31 120.6 28.8 120.6 C 28.1 120.6 27.6 120.3 27.2 119.7 C 27.2 119.72 27.2 119.7 27.2 119.7 L 27.2 123.1 L 26 123.1 L 26 113.4 L 27.2 113.4 L 27.2 114.2 Z M 36.8 116.4 C 36.8 114.3 36.2 114.1 35.4 114.1 C 34.7 114.1 34.1 114.4 34 116.4 C 34 116.4 36.8 116.4 36.8 116.4 Z M 34 117.3 C 34 119.2 34.6 119.6 35.5 119.6 C 36.3 119.6 36.7 119 36.7 118.3 C 36.7 118.3 38 118.3 38 118.3 C 38 119.9 37 120.6 35.5 120.6 C 34 120.6 32.8 120.1 32.8 117 C 32.8 114.9 33 113.2 35.5 113.2 C 37.5 113.2 38 114.3 38 116.7 C 38.02 116.66 38 117.3 38 117.3 C 38 117.3 34.04 117.26 34 117.3 Z M 41.1 114.4 C 41.1 114.4 41.15 114.42 41.1 114.4 C 41.6 113.3 42.2 113.2 43.3 113.2 C 43.3 113.2 43.3 114.4 43.3 114.4 C 43.2 114.4 43.1 114.4 43 114.4 C 42.9 114.3 42.8 114.3 42.7 114.3 C 41.4 114.3 41.1 115.3 41.1 116.3 C 41.12 116.25 41.1 120.4 41.1 120.4 L 40 120.4 L 40 113.4 L 41.1 113.4 L 41.1 114.4 Z M 48.9 114.4 C 48.9 114.4 48.93 114.42 48.9 114.4 C 49.4 113.3 50 113.2 51.1 113.2 C 51.1 113.2 51.1 114.4 51.1 114.4 C 51 114.4 50.9 114.4 50.8 114.4 C 50.7 114.3 50.6 114.3 50.5 114.3 C 49.2 114.3 48.9 115.3 48.9 116.3 C 48.9 116.25 48.9 120.4 48.9 120.4 L 47.8 120.4 L 47.8 113.4 L 48.9 113.4 L 48.9 114.4 Z M 56.3 116.4 C 56.3 114.3 55.7 114.1 54.8 114.1 C 54.1 114.1 53.5 114.4 53.5 116.4 C 53.5 116.4 56.3 116.4 56.3 116.4 Z M 53.5 117.3 C 53.5 119.2 54 119.6 54.9 119.6 C 55.7 119.6 56.1 119 56.2 118.3 C 56.2 118.3 57.4 118.3 57.4 118.3 C 57.4 119.9 56.4 120.6 55 120.6 C 53.5 120.6 52.3 120.1 52.3 117 C 52.3 114.9 52.5 113.2 55 113.2 C 57 113.2 57.5 114.3 57.5 116.7 C 57.48 116.66 57.5 117.3 57.5 117.3 C 57.5 117.3 53.5 117.26 53.5 117.3 Z M 61.5 120.6 C 60 120.6 59 119.9 59 118.3 C 59 118.3 60.3 118.3 60.3 118.3 C 60.3 118.7 60.4 119.6 61.5 119.6 C 62.2 119.6 62.7 119.3 62.7 118.6 C 62.7 117.3 59.2 117.3 59.2 115.1 C 59.2 114.4 59.7 113.2 61.6 113.2 C 62.9 113.2 64 113.8 63.9 115.2 C 63.9 115.2 62.6 115.2 62.6 115.2 C 62.6 114.5 62.2 114.1 61.5 114.1 C 60.9 114.1 60.4 114.4 60.4 115 C 60.4 116.3 63.9 116.3 63.9 118.4 C 63.9 120 62.9 120.6 61.5 120.6 Z M 69.6 116.8 C 69.6 115.7 69.6 114.2 68.2 114.2 C 66.7 114.2 66.9 116.1 66.9 117.2 C 66.9 118.1 66.9 119.6 68.2 119.6 C 69.4 119.6 69.6 118.7 69.6 116.8 Z M 66.9 114.2 C 66.9 114.2 66.89 114.19 66.9 114.2 C 67.3 113.5 67.8 113.2 68.5 113.2 C 69.7 113.2 70.8 113.7 70.8 116.8 C 70.8 118.5 70.7 120.6 68.5 120.6 C 67.8 120.6 67.3 120.3 66.9 119.7 C 66.9 119.72 66.9 119.7 66.9 119.7 L 66.9 123.1 L 65.7 123.1 L 65.7 113.4 L 66.9 113.4 L 66.9 114.2 Z M 73.7 120.4 L 72.6 120.4 L 72.6 113.4 L 73.7 113.4 L 73.7 120.4 Z M 72.5 110.3 L 73.8 110.3 L 73.8 111.5 L 72.5 111.5 L 72.5 110.3 Z M 76.9 114.4 C 76.9 114.4 76.96 114.42 77 114.4 C 77.4 113.3 78 113.2 79.1 113.2 C 79.1 113.2 79.1 114.4 79.1 114.4 C 79 114.4 78.9 114.4 78.8 114.4 C 78.7 114.3 78.6 114.3 78.5 114.3 C 77.3 114.3 76.9 115.3 76.9 116.3 C 76.93 116.25 76.9 120.4 76.9 120.4 L 75.8 120.4 L 75.8 113.4 L 76.9 113.4 L 76.9 114.4 Z M 81.5 118.3 C 81.5 119 81.8 119.6 82.6 119.6 C 83.3 119.6 84.1 119.2 84 116.9 C 82.9 116.9 81.5 116.8 81.5 118.3 Z M 84.1 119.4 C 84.1 119.4 84.02 119.41 84 119.4 C 83.7 120.2 83.1 120.6 82.2 120.6 C 80.7 120.6 80.3 119.6 80.3 118.2 C 80.3 116.1 82.4 116 84 116 C 84.1 115.1 84.1 114.1 82.8 114.1 C 82.1 114.1 81.7 114.6 81.7 115.3 C 81.7 115.3 80.5 115.3 80.5 115.3 C 80.5 113.8 81.4 113.2 82.9 113.2 C 84.7 113.2 85.2 114.2 85.2 115.3 C 85.2 115.3 85.2 118.7 85.2 118.7 C 85.2 119.3 85.2 119.9 85.3 120.4 C 85.31 120.43 84.1 120.4 84.1 120.4 L 84.1 119.4 Z M 87.5 113.4 L 87.5 112 L 88.7 111.5 L 88.7 113.4 L 90.2 113.4 L 90.2 114.2 L 88.7 114.2 C 88.7 114.2 88.69 118.55 88.7 118.6 C 88.7 119 88.7 119.6 89.7 119.6 C 89.8 119.6 90 119.6 90.3 119.5 C 90.3 119.5 90.3 120.4 90.3 120.4 C 89.9 120.4 89.5 120.5 89.1 120.5 C 88 120.5 87.5 120.1 87.5 119.3 C 87.54 119.26 87.5 114.2 87.5 114.2 L 86.4 114.2 L 86.4 113.4 L 87.5 113.4 Z M 95.3 116.5 C 95.3 114.6 94.7 114.2 93.8 114.2 C 92.9 114.2 92.3 114.6 92.3 116.5 C 92.3 118.8 92.6 119.6 93.8 119.6 C 95 119.6 95.3 118.8 95.3 116.5 Z M 91.1 117 C 91.1 114.9 91.4 113.2 93.8 113.2 C 96.3 113.2 96.5 114.9 96.5 117 C 96.5 120.1 95.3 120.6 93.8 120.6 C 92.3 120.6 91.1 120.1 91.1 117 Z M 99.5 114.4 C 99.5 114.4 99.54 114.42 99.5 114.4 C 100 113.3 100.6 113.2 101.7 113.2 C 101.7 113.2 101.7 114.4 101.7 114.4 C 101.6 114.4 101.5 114.4 101.4 114.4 C 101.3 114.3 101.2 114.3 101.1 114.3 C 99.8 114.3 99.5 115.3 99.5 116.3 C 99.51 116.25 99.5 120.4 99.5 120.4 L 98.4 120.4 L 98.4 113.4 L 99.5 113.4 L 99.5 114.4 Z M 105.1 119.1 L 105.2 119.1 L 106.8 113.4 L 108.1 113.4 L 104.9 123.1 L 103.7 123.1 L 104.5 120.4 L 102.1 113.4 L 103.4 113.4 L 105.1 119.1 Z M 112.5 113.4 L 112.5 112 L 113.6 111.5 L 113.6 113.4 L 115.1 113.4 L 115.1 114.2 L 113.6 114.2 C 113.6 114.2 113.6 118.55 113.6 118.6 C 113.6 119 113.6 119.6 114.7 119.6 C 114.7 119.6 114.9 119.6 115.2 119.5 C 115.2 119.5 115.2 120.4 115.2 120.4 C 114.8 120.4 114.4 120.5 114 120.5 C 112.9 120.5 112.5 120.1 112.5 119.3 C 112.46 119.26 112.5 114.2 112.5 114.2 L 111.3 114.2 L 111.3 113.4 L 112.5 113.4 Z M 117.4 114.4 C 117.4 114.4 117.44 114.42 117.4 114.4 C 117.9 113.3 118.5 113.2 119.6 113.2 C 119.6 113.2 119.6 114.4 119.6 114.4 C 119.5 114.4 119.4 114.4 119.3 114.4 C 119.2 114.3 119.1 114.3 119 114.3 C 117.7 114.3 117.4 115.3 117.4 116.3 C 117.42 116.25 117.4 120.4 117.4 120.4 L 116.3 120.4 L 116.3 113.4 L 117.4 113.4 L 117.4 114.4 Z M 121.9 118.3 C 121.9 119 122.3 119.6 123.1 119.6 C 123.8 119.6 124.6 119.2 124.5 116.9 C 123.4 116.9 121.9 116.8 121.9 118.3 Z M 124.5 119.4 C 124.5 119.4 124.51 119.41 124.5 119.4 C 124.2 120.2 123.6 120.6 122.7 120.6 C 121.2 120.6 120.8 119.6 120.8 118.2 C 120.8 116.1 122.9 116 124.5 116 C 124.5 115.1 124.6 114.1 123.3 114.1 C 122.5 114.1 122.1 114.6 122.2 115.3 C 122.2 115.3 121 115.3 121 115.3 C 121 113.8 121.9 113.2 123.4 113.2 C 125.2 113.2 125.7 114.2 125.7 115.3 C 125.7 115.3 125.7 118.7 125.7 118.7 C 125.7 119.3 125.7 119.9 125.8 120.4 C 125.8 120.43 124.5 120.4 124.5 120.4 L 124.5 119.4 Z M 131.6 115.6 C 131.6 114.5 131.1 114.2 130.6 114.2 C 129.7 114.2 129.1 114.6 129.1 116.5 C 129.1 118.8 129.4 119.6 130.6 119.6 C 130.9 119.6 131.7 119.4 131.6 118.1 C 131.6 118.1 132.9 118.1 132.9 118.1 C 132.9 120.1 131.4 120.6 130.6 120.6 C 129.1 120.6 127.9 120.1 127.9 117 C 127.9 114.9 128.2 113.2 130.6 113.2 C 132 113.2 132.9 114 132.8 115.6 C 132.8 115.6 131.6 115.6 131.6 115.6 Z M 135 113.4 L 135 112 L 136.2 111.5 L 136.2 113.4 L 137.7 113.4 L 137.7 114.2 L 136.2 114.2 C 136.2 114.2 136.19 118.55 136.2 118.6 C 136.2 119 136.2 119.6 137.2 119.6 C 137.3 119.6 137.5 119.6 137.8 119.5 C 137.8 119.5 137.8 120.4 137.8 120.4 C 137.4 120.4 137 120.5 136.6 120.5 C 135.5 120.5 135 120.1 135 119.3 C 135.04 119.26 135 114.2 135 114.2 L 133.9 114.2 L 133.9 113.4 L 135 113.4 Z M 143 120.4 L 141.9 120.4 L 141.9 113.4 L 143 113.4 L 143 120.4 Z M 141.8 110.3 L 143.1 110.3 L 143.1 111.5 L 141.8 111.5 L 141.8 110.3 Z M 148.9 120.4 C 148.9 120.4 148.88 115.52 148.9 115.5 C 148.9 114.8 148.6 114.2 147.6 114.2 C 146.4 114.2 146.2 115.3 146.2 116.2 C 146.19 116.24 146.2 120.4 146.2 120.4 L 145 120.4 C 145 120.4 145.04 114.82 145 114.8 C 145 114.3 145 113.8 145 113.4 C 144.97 113.35 146.2 113.4 146.2 113.4 L 146.2 114.3 C 146.2 114.3 146.24 114.26 146.2 114.3 C 146.7 113.5 147.2 113.2 148.1 113.2 C 149.6 113.2 150 114.1 150 115.5 C 150.03 115.52 150 120.4 150 120.4 L 148.9 120.4 Z M 152.3 113.4 C 152.3 113.4 152.26 111.98 152.3 112 C 152.3 110.5 153.3 110.3 154.3 110.3 C 154.5 110.3 154.7 110.3 154.8 110.3 C 154.8 110.3 154.8 111.1 154.8 111.1 C 153.6 111.1 153.4 111.6 153.4 112.1 C 153.41 112.15 153.4 113.4 153.4 113.4 L 154.8 113.4 L 154.8 114.2 L 153.4 114.2 L 153.4 120.4 L 152.3 120.4 L 152.3 114.2 L 151.2 114.2 L 151.2 113.4 L 152.3 113.4 Z M 159.8 116.4 C 159.8 114.3 159.3 114.1 158.4 114.1 C 157.7 114.1 157.1 114.4 157.1 116.4 C 157.1 116.4 159.8 116.4 159.8 116.4 Z M 157.1 117.3 C 157.1 119.2 157.6 119.6 158.5 119.6 C 159.3 119.6 159.7 119 159.7 118.3 C 159.7 118.3 161 118.3 161 118.3 C 161 119.9 160 120.6 158.5 120.6 C 157 120.6 155.8 120.1 155.8 117 C 155.8 114.9 156.1 113.2 158.5 113.2 C 160.5 113.2 161 114.3 161 116.7 C 161.05 116.66 161 117.3 161 117.3 C 161 117.3 157.06 117.26 157.1 117.3 Z M 166.7 115.6 C 166.7 114.5 166.1 114.2 165.7 114.2 C 164.8 114.2 164.2 114.6 164.2 116.5 C 164.2 118.8 164.5 119.6 165.7 119.6 C 165.9 119.6 166.7 119.4 166.7 118.1 C 166.7 118.1 167.9 118.1 167.9 118.1 C 167.9 120.1 166.5 120.6 165.7 120.6 C 164.2 120.6 163 120.1 163 117 C 163 114.9 163.2 113.2 165.7 113.2 C 167.1 113.2 167.9 114 167.8 115.6 C 167.8 115.6 166.7 115.6 166.7 115.6 Z M 170.1 113.4 L 170.1 112 L 171.2 111.5 L 171.2 113.4 L 172.8 113.4 L 172.8 114.2 L 171.2 114.2 C 171.2 114.2 171.24 118.55 171.2 118.6 C 171.2 119 171.2 119.6 172.3 119.6 C 172.4 119.6 172.6 119.6 172.8 119.5 C 172.8 119.5 172.8 120.4 172.8 120.4 C 172.4 120.4 172.1 120.5 171.7 120.5 C 170.6 120.5 170.1 120.1 170.1 119.3 C 170.09 119.26 170.1 114.2 170.1 114.2 L 168.9 114.2 L 168.9 113.4 L 170.1 113.4 Z M 175 120.4 L 173.8 120.4 L 173.8 113.4 L 175 113.4 L 175 120.4 Z M 173.8 110.3 L 175.1 110.3 L 175.1 111.5 L 173.8 111.5 L 173.8 110.3 Z M 181 116.5 C 181 114.6 180.4 114.2 179.5 114.2 C 178.6 114.2 178 114.6 178 116.5 C 178 118.8 178.3 119.6 179.5 119.6 C 180.7 119.6 181 118.8 181 116.5 Z M 176.8 117 C 176.8 114.9 177 113.2 179.5 113.2 C 181.9 113.2 182.2 114.9 182.2 117 C 182.2 120.1 181 120.6 179.5 120.6 C 178 120.6 176.8 120.1 176.8 117 Z M 187.8 120.4 C 187.8 120.4 187.83 115.52 187.8 115.5 C 187.8 114.8 187.6 114.2 186.6 114.2 C 185.3 114.2 185.1 115.3 185.1 116.2 C 185.13 116.24 185.1 120.4 185.1 120.4 L 184 120.4 C 184 120.4 183.98 114.82 184 114.8 C 184 114.3 184 113.8 183.9 113.4 C 183.91 113.35 185.1 113.4 185.1 113.4 L 185.1 114.3 C 185.1 114.3 185.19 114.26 185.2 114.3 C 185.6 113.5 186.2 113.2 187.1 113.2 C 188.6 113.2 189 114.1 189 115.5 C 188.97 115.52 189 120.4 189 120.4 L 187.8 120.4 Z M 193.1 120.6 C 191.6 120.6 190.6 119.9 190.6 118.3 C 190.6 118.3 191.9 118.3 191.9 118.3 C 191.9 118.7 192 119.6 193.1 119.6 C 193.8 119.6 194.3 119.3 194.3 118.6 C 194.3 117.3 190.8 117.3 190.8 115.1 C 190.8 114.4 191.3 113.2 193.3 113.2 C 194.5 113.2 195.6 113.8 195.5 115.2 C 195.5 115.2 194.2 115.2 194.2 115.2 C 194.2 114.5 193.8 114.1 193.1 114.1 C 192.5 114.1 192 114.4 192 115 C 192 116.3 195.5 116.3 195.5 118.4 C 195.5 120 194.5 120.6 193.1 120.6 Z " stroke="none" fill="#003c71"/>  </g>  <g id="Polygon202612">    <path d="M 362 85.6 C 361.4 83.6 360.7 81.6 360.7 79.5 C 360.7 77.4 361.4 75.4 362.1 73.3 C 362.1 73.3 362.9 73.3 362.9 73.3 C 362.4 75.4 362 77.5 362 79.6 C 362 81.6 362.4 83.6 362.9 85.6 C 362.9 85.6 362 85.6 362 85.6 Z M 368.7 83.9 C 368.7 83.9 368.71 79.03 368.7 79 C 368.7 78.3 368.4 77.7 367.5 77.7 C 366.2 77.7 366 78.8 366 79.7 C 366.02 79.75 366 83.9 366 83.9 L 364.9 83.9 C 364.9 83.9 364.87 78.33 364.9 78.3 C 364.9 77.8 364.8 77.3 364.8 76.9 C 364.8 76.86 366 76.9 366 76.9 L 366 77.8 C 366 77.8 366.07 77.77 366.1 77.8 C 366.5 77 367.1 76.7 368 76.7 C 369.5 76.7 369.9 77.6 369.9 79 C 369.86 79.03 369.9 83.9 369.9 83.9 L 368.7 83.9 Z M 377.3 79.4 L 371.5 79.4 L 371.5 78.6 L 377.3 78.6 L 377.3 79.4 Z M 377.3 82.2 L 371.5 82.2 L 371.5 81.3 L 377.3 81.3 L 377.3 82.2 Z M 381.9 83.9 L 380.6 83.9 L 380.6 75.6 L 379.2 76.6 C 379.2 76.6 379.18 75.37 379.2 75.4 C 379.5 75.2 380.4 74.5 380.8 74.2 C 380.82 74.21 381.9 74.2 381.9 74.2 L 381.9 83.9 Z M 389.5 74.2 L 389.5 75.3 L 386.2 75.3 L 386.2 78.2 C 386.2 78.2 386.25 78.19 386.2 78.2 C 386.5 77.8 387.1 77.5 387.8 77.5 C 389.2 77.5 389.8 78.5 389.8 80.7 C 389.8 82.3 389.6 84.1 387.2 84.1 C 385.2 84.1 384.8 83 384.8 81.7 C 384.8 81.7 386.1 81.7 386.1 81.7 C 386.1 82.5 386.4 83.2 387.2 83.2 C 388.5 83.2 388.5 82 388.5 81.1 C 388.5 79.6 388.5 78.5 387.3 78.5 C 386.6 78.5 386.2 79 386.1 79.7 C 386.09 79.68 384.9 79.7 384.9 79.7 L 384.9 74.2 L 389.5 74.2 Z M 392.1 77 C 392.1 78 392.3 79 393.4 79 C 394.5 79 394.7 78 394.7 77 C 394.7 76.1 394.5 75 393.4 75 C 392.3 75 392.1 76.1 392.1 77 Z M 396 79.1 C 396 81.7 396.1 84.1 393.4 84.1 C 392 84.1 391 83.2 391 81.6 C 391 81.6 392.3 81.6 392.3 81.6 C 392.3 82.3 392.6 83.1 393.4 83.1 C 394.7 83.1 394.8 81.7 394.8 79.2 C 394.8 79.2 394.7 79.2 394.7 79.2 C 394.4 79.9 393.8 80.1 393.1 80.1 C 392.3 80.1 390.8 79.7 390.8 77 C 390.8 74.9 392.1 74.1 393.4 74.1 C 396.1 74.1 396 76.5 396 79.1 Z M 397.5 85.6 C 398 83.6 398.4 81.6 398.4 79.6 C 398.4 77.5 398 75.4 397.5 73.3 C 397.5 73.3 398.3 73.3 398.3 73.3 C 399 75.4 399.7 77.4 399.7 79.5 C 399.7 81.6 399 83.6 398.4 85.6 C 398.4 85.6 397.5 85.6 397.5 85.6 Z " stroke="none" fill="#003c71"/>  </g>  <g id="Polygon202611">    <path d="M 342.4 69.9 L 345.2 59.8 L 348 59.8 L 350.7 69.9 L 348.5 69.9 L 347.9 67.7 L 345 67.7 L 344.5 69.9 L 342.4 69.9 Z M 346.4 61.8 L 346.4 61.8 L 345.5 66.2 L 347.5 66.2 L 346.4 61.8 Z M 351.7 69.9 L 351.7 59.8 L 354.6 59.8 L 357.3 66.8 L 357.3 66.8 L 357.3 59.8 L 359.3 59.8 L 359.3 69.9 L 356.5 69.9 L 353.7 62.5 L 353.7 62.5 L 353.7 69.9 L 351.7 69.9 Z M 363.2 68.4 C 363.2 68.4 364.24 68.4 364.2 68.4 C 365.5 68.4 365.8 67.4 365.8 64.9 C 365.8 63 365.8 61.4 364.3 61.4 C 364.31 61.38 363.2 61.4 363.2 61.4 L 363.2 68.4 Z M 361.1 59.8 C 361.1 59.8 364.63 59.83 364.6 59.8 C 367.4 59.8 367.9 61.7 367.9 64.8 C 367.9 66.4 368.2 69.9 364.5 69.9 C 364.55 69.95 361.1 69.9 361.1 69.9 L 361.1 59.8 Z M 369.6 69.9 L 369.6 59.8 L 375.1 59.8 L 375.1 61.4 L 371.7 61.4 L 371.7 63.9 L 374.9 63.9 L 374.9 65.4 L 371.7 65.4 L 371.7 68.4 L 375.3 68.4 L 375.3 69.9 L 369.6 69.9 Z M 376.6 69.9 L 376.6 59.8 L 380 59.8 L 381.6 66.7 L 381.6 66.7 L 383.3 59.8 L 386.6 59.8 L 386.6 69.9 L 384.5 69.9 L 384.5 62.1 L 384.5 62.1 L 382.5 69.9 L 380.5 69.9 L 378.7 62.1 L 378.6 62.1 L 378.6 69.9 L 376.6 69.9 Z M 390.5 68.4 C 390.5 68.4 391.63 68.4 391.6 68.4 C 392.1 68.4 393.1 68.4 393.1 67 C 393.1 66.1 392.8 65.5 391.7 65.5 C 391.69 65.52 390.5 65.5 390.5 65.5 L 390.5 68.4 Z M 390.5 64 C 390.5 64 391.87 63.96 391.9 64 C 392.3 64 393 63.7 393 62.7 C 393 61.9 392.5 61.4 391.8 61.4 C 391.76 61.38 390.5 61.4 390.5 61.4 L 390.5 64 Z M 388.3 69.9 L 388.3 59.8 C 388.3 59.8 392.1 59.83 392.1 59.8 C 393.7 59.8 395 60.3 395 62.4 C 395 63.6 394.5 64.5 393.3 64.7 C 393.3 64.7 393.3 64.7 393.3 64.7 C 394.8 64.9 395.2 65.9 395.2 67.3 C 395.2 69.8 393 69.9 392.1 69.9 C 392.08 69.95 388.3 69.9 388.3 69.9 Z M 398.9 64.2 C 398.9 64.2 399.89 64.2 399.9 64.2 C 400.7 64.2 401 63.4 401 62.7 C 401 61.7 400.6 61.4 399.9 61.4 C 399.89 61.38 398.9 61.4 398.9 61.4 L 398.9 64.2 Z M 398.9 69.9 L 396.8 69.9 L 396.8 59.8 C 396.8 59.8 400.75 59.83 400.7 59.8 C 402.2 59.8 403.1 60.8 403.1 62.5 C 403.1 63.8 402.6 64.7 401.2 65 C 401.2 65 401.2 65 401.2 65 C 401.7 65 403.1 65.2 403.1 67 C 403.1 67.6 403.1 69.5 403.3 69.9 C 403.3 69.9 401.2 69.9 401.2 69.9 C 401 69.3 401 68.6 401 68 C 401 66.8 401.1 65.8 399.5 65.8 C 399.5 65.76 398.9 65.8 398.9 65.8 L 398.9 69.9 Z M 406.3 66.4 L 403.7 59.8 L 406 59.8 L 407.5 64.1 L 409.1 59.8 L 411.3 59.8 L 408.4 66.4 L 408.4 69.9 L 406.3 69.9 L 406.3 66.4 Z M 417.8 62.3 C 417.8 64 416.5 65.4 414.8 65.4 C 413.1 65.4 411.7 64 411.7 62.3 C 411.7 60.6 413.1 59.3 414.8 59.3 C 416.5 59.3 417.8 60.6 417.8 62.3 Z M 417.2 62.3 C 417.2 61 416.1 59.9 414.8 59.9 C 413.4 59.9 412.3 61 412.3 62.3 C 412.3 63.7 413.4 64.8 414.8 64.8 C 416.1 64.8 417.2 63.7 417.2 62.3 Z M 414.4 64.1 L 413.6 64.1 L 413.6 60.5 C 413.6 60.5 415.07 60.54 415.1 60.5 C 415.6 60.5 416 60.9 416 61.5 C 416 61.9 415.8 62.3 415.3 62.3 C 415.3 62.3 415.3 62.4 415.3 62.4 C 415.4 62.4 415.9 62.4 415.9 63 C 415.9 63.3 416 63.9 416 64.1 C 416 64.1 415.3 64.1 415.3 64.1 C 415.1 63.9 415.1 63.6 415.1 63.4 C 415.1 63 415.2 62.6 414.6 62.6 C 414.59 62.62 414.4 62.6 414.4 62.6 L 414.4 64.1 Z M 414.4 62.1 C 414.4 62.1 414.75 62.12 414.7 62.1 C 415.1 62.1 415.2 61.8 415.2 61.6 C 415.2 61.3 415 61.1 414.7 61.1 C 414.75 61.13 414.4 61.1 414.4 61.1 L 414.4 62.1 Z " stroke="none" fill="#003c71"/>  </g>  <g id="Polygon202610">    <path d="M 16.2 66.8 L 16.2 68.5 L 13.9 68.5 L 13.9 76.9 L 11.8 76.9 L 11.8 68.5 L 9.4 68.5 L 9.4 66.8 L 16.2 66.8 Z M 17.2 76.9 L 17.2 66.8 L 22.7 66.8 L 22.7 68.4 L 19.3 68.4 L 19.3 70.9 L 22.5 70.9 L 22.5 72.4 L 19.3 72.4 L 19.3 75.4 L 22.9 75.4 L 22.9 76.9 L 17.2 76.9 Z M 23.5 76.9 L 26.3 66.8 L 29.1 66.8 L 31.8 76.9 L 29.6 76.9 L 29 74.7 L 26.1 74.7 L 25.5 76.9 L 23.5 76.9 Z M 27.5 68.8 L 27.5 68.8 L 26.5 73.1 L 28.6 73.1 L 27.5 68.8 Z M 32.8 76.9 L 32.8 66.8 L 38.3 66.8 L 38.3 68.4 L 34.9 68.4 L 34.9 70.9 L 38.1 70.9 L 38.1 72.4 L 34.9 72.4 L 34.9 75.4 L 38.4 75.4 L 38.4 76.9 L 32.8 76.9 Z M 41.3 74.7 C 41.2 75 41.3 75.3 41.4 75.5 C 41.5 75.8 41.7 75.9 42.1 75.9 C 42.5 75.9 42.8 75.6 42.8 75.1 C 42.8 73.6 39.3 74 39.3 71.7 C 39.3 70.2 40.8 69.7 42.1 69.7 C 43.5 69.7 44.7 70.4 44.6 71.9 C 44.6 71.9 42.6 71.9 42.6 71.9 C 42.6 71.4 42.6 71.1 42.4 71 C 42.3 70.9 42.1 70.8 41.9 70.8 C 41.5 70.8 41.3 71.1 41.3 71.6 C 41.3 72.7 44.7 72.7 44.7 74.9 C 44.7 76.2 43.7 77.1 42.1 77.1 C 40.4 77.1 39.2 76.7 39.3 74.7 C 39.3 74.7 41.3 74.7 41.3 74.7 Z M 52.7 73.2 C 52.7 71.7 52.6 71 51.8 71 C 50.9 71 50.9 71.7 50.9 73.2 C 50.9 75.4 51 75.8 51.8 75.8 C 52.5 75.8 52.7 75.4 52.7 73.2 Z M 48.9 73.3 C 48.9 71.4 49.2 69.7 51.8 69.7 C 54.4 69.7 54.7 71.4 54.7 73.3 C 54.7 75.5 54.3 77.1 51.8 77.1 C 49.2 77.1 48.9 75.5 48.9 73.3 Z M 59.7 72.4 C 59.7 71.3 59.4 71 58.8 71 C 57.9 71 57.9 71.7 57.9 73.2 C 57.9 75.4 58 75.8 58.8 75.8 C 59.4 75.8 59.7 75.3 59.7 74.3 C 59.7 74.3 61.7 74.3 61.7 74.3 C 61.7 76.3 60.6 77.1 58.8 77.1 C 56.2 77.1 55.9 75.5 55.9 73.3 C 55.9 71.4 56.2 69.7 58.8 69.7 C 60.6 69.7 61.6 70.5 61.6 72.4 C 61.6 72.4 59.7 72.4 59.7 72.4 Z M 66.7 72.4 C 66.7 71.3 66.4 71 65.8 71 C 64.9 71 64.9 71.7 64.9 73.2 C 64.9 75.4 65.1 75.8 65.8 75.8 C 66.4 75.8 66.7 75.3 66.7 74.3 C 66.7 74.3 68.7 74.3 68.7 74.3 C 68.7 76.3 67.6 77.1 65.8 77.1 C 63.2 77.1 62.9 75.5 62.9 73.3 C 62.9 71.4 63.2 69.7 65.8 69.7 C 67.6 69.7 68.6 70.5 68.6 72.4 C 68.6 72.4 66.7 72.4 66.7 72.4 Z M 73.5 76.2 C 73.5 76.2 73.51 76.23 73.5 76.2 C 73.3 76.5 73.1 76.8 72.8 76.9 C 72.5 77 72.2 77.1 71.8 77.1 C 70.9 77.1 70.1 76.5 70.1 75.5 C 70.07 75.54 70.1 69.9 70.1 69.9 L 72 69.9 C 72 69.9 72.05 74.77 72 74.8 C 72 75.4 72.2 75.9 72.8 75.9 C 73.4 75.9 73.5 75.4 73.5 74.8 C 73.54 74.77 73.5 69.9 73.5 69.9 L 75.5 69.9 C 75.5 69.9 75.51 75.54 75.5 75.5 C 75.5 76 75.5 76.5 75.6 76.9 C 75.58 76.94 73.5 76.9 73.5 76.9 L 73.5 76.2 Z M 79 69.9 L 79 70.8 C 79 70.8 78.99 70.78 79 70.8 C 79.4 70 80 69.7 80.8 69.7 C 80.8 69.7 80.8 71.5 80.8 71.5 C 79.1 71.4 79.1 72.4 79.1 73.1 C 79.06 73.09 79.1 76.9 79.1 76.9 L 77.1 76.9 L 77.1 69.9 L 79 69.9 Z M 83.6 69.9 L 83.6 70.8 C 83.6 70.8 83.66 70.78 83.7 70.8 C 84 70 84.7 69.7 85.5 69.7 C 85.5 69.7 85.5 71.5 85.5 71.5 C 83.8 71.4 83.7 72.4 83.7 73.1 C 83.73 73.09 83.7 76.9 83.7 76.9 L 81.8 76.9 L 81.8 69.9 L 83.6 69.9 Z M 88.6 76.9 L 86.6 76.9 L 86.6 69.9 L 88.6 69.9 L 88.6 76.9 Z M 88.6 66.8 L 88.6 68.4 L 86.6 68.4 L 86.6 66.8 L 88.6 66.8 Z M 92.3 70.6 C 92.3 70.6 92.32 70.58 92.3 70.6 C 92.5 70.3 92.8 70 93 69.9 C 93.3 69.8 93.6 69.7 94 69.7 C 94.9 69.7 95.8 70.3 95.8 71.3 C 95.76 71.27 95.8 76.9 95.8 76.9 L 93.8 76.9 C 93.8 76.9 93.78 72.07 93.8 72.1 C 93.8 71.4 93.7 70.9 93 70.9 C 92.4 70.9 92.3 71.4 92.3 72.1 C 92.29 72.07 92.3 76.9 92.3 76.9 L 90.3 76.9 L 90.3 69.9 L 92.3 69.9 L 92.3 70.6 Z M 99.9 75.6 C 100.7 75.6 100.8 74.9 100.8 73.4 C 100.8 71.8 100.7 70.9 100 70.9 C 99.2 70.9 99.1 71.5 99.1 73.6 C 99.1 74.3 99 75.6 99.9 75.6 Z M 102.7 69.9 C 102.7 69.9 102.74 77.24 102.7 77.2 C 102.7 77.7 102.8 79.7 100 79.7 C 98.6 79.7 97.3 79.3 97.3 77.6 C 97.3 77.6 99.2 77.6 99.2 77.6 C 99.2 77.9 99.2 78.1 99.4 78.3 C 99.5 78.5 99.7 78.6 100 78.6 C 100.5 78.6 100.8 78.1 100.8 77.4 C 100.76 77.38 100.8 76 100.8 76 C 100.8 76 100.74 76.02 100.7 76 C 100.4 76.6 99.9 76.8 99.2 76.8 C 97.1 76.8 97.2 74.9 97.2 73.3 C 97.2 71.7 97.2 69.7 99.2 69.7 C 99.9 69.7 100.6 70 100.8 70.7 C 100.83 70.69 100.9 70.7 100.9 70.7 L 100.9 69.9 L 102.7 69.9 Z M 109.6 76.9 L 107.6 76.9 L 107.6 69.9 L 109.6 69.9 L 109.6 76.9 Z M 109.6 66.8 L 109.6 68.4 L 107.6 68.4 L 107.6 66.8 L 109.6 66.8 Z M 113.3 70.6 C 113.3 70.6 113.35 70.58 113.4 70.6 C 113.5 70.3 113.8 70 114.1 69.9 C 114.3 69.8 114.7 69.7 115 69.7 C 116 69.7 116.8 70.3 116.8 71.3 C 116.79 71.27 116.8 76.9 116.8 76.9 L 114.8 76.9 C 114.8 76.9 114.81 72.07 114.8 72.1 C 114.8 71.4 114.7 70.9 114.1 70.9 C 113.4 70.9 113.3 71.4 113.3 72.1 C 113.32 72.07 113.3 76.9 113.3 76.9 L 111.3 76.9 L 111.3 69.9 L 113.3 69.9 L 113.3 70.6 Z M 126.5 71.6 L 126.5 72.7 L 121.4 75.6 L 121.4 74.4 L 125.6 72.2 L 125.6 72.1 L 121.4 69.9 L 121.4 68.7 L 126.5 71.6 Z M 121.3 77.1 L 121.3 76.1 L 126.5 76.1 L 126.5 77.1 L 121.3 77.1 Z M 129.5 71.1 C 129.5 71.1 129.57 71.14 129.6 71.1 C 129.9 70.7 130.4 70.5 131 70.5 C 132.6 70.5 133.1 71.6 133.1 73.7 C 133.1 76.3 132.1 77.1 130.1 77.1 C 128.5 77.1 127.4 76.4 127.5 74.6 C 127.5 74.6 129.5 74.6 129.5 74.6 C 129.5 74.9 129.5 75.2 129.6 75.3 C 129.7 75.5 129.9 75.6 130.2 75.6 C 131 75.6 131.1 75 131.1 73.7 C 131.1 73.1 131.2 71.7 130.3 71.7 C 129.7 71.7 129.5 72.4 129.5 72.8 C 129.52 72.84 127.6 72.8 127.6 72.8 L 127.6 67.2 L 132.7 67.2 L 132.7 68.7 L 129.5 68.7 L 129.5 71.1 Z M 139.7 74.4 C 139.7 73 140.1 71.8 141.8 71.8 C 143.5 71.8 143.8 73 143.8 74.4 C 143.8 76.1 143.3 76.9 141.8 76.9 C 140.2 76.9 139.7 76.1 139.7 74.4 Z M 142.4 74.3 C 142.4 73.8 142.5 72.9 141.8 72.9 C 141 72.9 141.1 73.8 141.1 74.3 C 141.1 75.4 141.1 75.8 141.8 75.8 C 142.4 75.8 142.4 75.4 142.4 74.3 Z M 133.8 69.8 C 133.8 68.3 134.1 67.2 135.8 67.2 C 137.5 67.2 137.8 68.3 137.8 69.8 C 137.8 71.5 137.4 72.3 135.8 72.3 C 134.2 72.3 133.8 71.5 133.8 69.8 Z M 136.5 69.7 C 136.5 69.2 136.5 68.3 135.8 68.3 C 135.1 68.3 135.1 69.2 135.1 69.7 C 135.1 70.8 135.2 71.2 135.8 71.2 C 136.4 71.2 136.5 70.8 136.5 69.7 Z M 137.2 77.2 L 136.2 77.2 L 140.3 67 L 141.3 67 L 137.2 77.2 Z M 151.8 73.2 C 151.8 71.7 151.7 71 150.8 71 C 150 71 149.9 71.7 149.9 73.2 C 149.9 75.4 150.1 75.8 150.8 75.8 C 151.6 75.8 151.8 75.4 151.8 73.2 Z M 148 73.3 C 148 71.4 148.2 69.7 150.8 69.7 C 153.4 69.7 153.7 71.4 153.7 73.3 C 153.7 75.5 153.4 77.1 150.8 77.1 C 148.3 77.1 148 75.5 148 73.3 Z M 158.2 68 C 157.4 68 157.2 68.3 157.2 69 C 157.21 69.01 157.2 69.9 157.2 69.9 L 158.1 69.9 L 158.1 71.1 L 157.2 71.1 L 157.2 76.9 L 155.2 76.9 L 155.2 71.1 L 154.3 71.1 L 154.3 69.9 C 154.3 69.9 155.24 69.87 155.2 69.9 C 155.2 67.8 155.1 66.8 157.5 66.8 C 157.7 66.8 157.9 66.8 158.2 66.8 C 158.2 66.8 158.2 68 158.2 68 Z M 165.8 73.3 C 165.8 71.9 165.8 70.9 164.9 70.9 C 164.1 70.9 164.1 71.9 164.1 73.3 C 164.1 75.1 164.2 75.9 164.9 75.9 C 165.6 75.9 165.8 75.1 165.8 73.3 Z M 164 69.9 L 164 70.6 C 164 70.6 164.05 70.65 164 70.6 C 164.4 70 165 69.7 165.7 69.7 C 167.8 69.7 167.7 72 167.7 73.5 C 167.7 74.9 167.7 77.1 165.8 77.1 C 165 77.1 164.6 76.9 164.1 76.3 C 164.14 76.27 164.1 76.3 164.1 76.3 L 164.1 80 L 162.1 80 L 162.1 69.9 L 164 69.9 Z M 170.9 74.7 C 170.9 75.2 171 75.9 171.6 75.9 C 172.8 75.9 172.6 74.3 172.6 73.5 C 171.6 73.6 170.9 73.5 170.9 74.7 Z M 174.5 75.6 C 174.5 76.1 174.6 76.5 174.6 76.9 C 174.62 76.94 172.8 76.9 172.8 76.9 L 172.7 76 C 172.7 76 172.67 76.01 172.7 76 C 172.2 76.7 171.7 77.1 170.8 77.1 C 169.4 77.1 168.9 76.1 168.9 74.8 C 168.9 72.5 170.7 72.4 172.6 72.4 C 172.6 72.4 172.6 71.9 172.6 71.9 C 172.6 71.3 172.5 70.8 171.8 70.8 C 171.1 70.8 171 71.4 171 71.9 C 171 71.9 169.1 71.9 169.1 71.9 C 169.1 71.1 169.4 70.5 169.8 70.2 C 170.3 69.9 170.9 69.7 171.7 69.7 C 174.2 69.7 174.5 70.8 174.5 72.1 C 174.5 72.1 174.5 75.6 174.5 75.6 Z M 175.4 69.9 L 176.2 69.9 L 176.2 68.7 L 178.1 67.9 L 178.1 69.9 L 179.2 69.9 L 179.2 71.1 L 178.1 71.1 C 178.1 71.1 178.14 74.87 178.1 74.9 C 178.1 75.4 178.1 75.8 178.8 75.8 C 178.9 75.8 179 75.8 179.1 75.7 C 179.1 75.7 179.1 76.9 179.1 76.9 C 178.9 77 178.6 77 178.1 77 C 176.4 77 176.2 75.9 176.2 75.4 C 176.16 75.45 176.2 71.1 176.2 71.1 L 175.4 71.1 L 175.4 69.9 Z M 182.2 76.9 L 180.2 76.9 L 180.2 69.9 L 182.2 69.9 L 182.2 76.9 Z M 182.2 66.8 L 182.2 68.4 L 180.2 68.4 L 180.2 66.8 L 182.2 66.8 Z M 187.6 72.6 C 187.6 71.9 187.6 70.9 186.7 70.9 C 185.8 70.9 185.8 72 185.8 72.6 C 185.8 72.6 187.6 72.6 187.6 72.6 Z M 185.8 73.7 C 185.8 74.6 185.8 75.8 186.7 75.8 C 187.4 75.8 187.5 75.2 187.5 74.6 C 187.5 74.6 189.5 74.6 189.5 74.6 C 189.5 75.3 189.2 76 188.8 76.4 C 188.3 76.8 187.6 77.1 186.7 77.1 C 184.1 77.1 183.8 75.5 183.8 73.3 C 183.8 71.4 184.1 69.7 186.7 69.7 C 189.3 69.7 189.6 71.4 189.6 73.7 C 189.6 73.7 185.8 73.7 185.8 73.7 Z M 192.9 70.6 C 192.9 70.6 192.97 70.58 193 70.6 C 193.2 70.3 193.4 70 193.7 69.9 C 194 69.8 194.3 69.7 194.6 69.7 C 195.6 69.7 196.4 70.3 196.4 71.3 C 196.4 71.27 196.4 76.9 196.4 76.9 L 194.4 76.9 C 194.4 76.9 194.43 72.07 194.4 72.1 C 194.4 71.4 194.3 70.9 193.7 70.9 C 193.1 70.9 192.9 71.4 192.9 72.1 C 192.94 72.07 192.9 76.9 192.9 76.9 L 191 76.9 L 191 69.9 L 192.9 69.9 L 192.9 70.6 Z M 197.2 69.9 L 198 69.9 L 198 68.7 L 200 67.9 L 200 69.9 L 201 69.9 L 201 71.1 L 200 71.1 C 200 71.1 199.95 74.87 200 74.9 C 200 75.4 199.9 75.8 200.6 75.8 C 200.7 75.8 200.8 75.8 200.9 75.7 C 200.9 75.7 200.9 76.9 200.9 76.9 C 200.7 77 200.4 77 199.9 77 C 198.2 77 198 75.9 198 75.4 C 197.98 75.45 198 71.1 198 71.1 L 197.2 71.1 L 197.2 69.9 Z M 203.4 74.7 C 203.4 75 203.4 75.3 203.5 75.5 C 203.6 75.8 203.8 75.9 204.2 75.9 C 204.6 75.9 205 75.6 205 75.1 C 205 73.6 201.5 74 201.5 71.7 C 201.5 70.2 203 69.7 204.3 69.7 C 205.6 69.7 206.8 70.4 206.7 71.9 C 206.7 71.9 204.8 71.9 204.8 71.9 C 204.8 71.4 204.7 71.1 204.6 71 C 204.5 70.9 204.3 70.8 204.1 70.8 C 203.7 70.8 203.4 71.1 203.4 71.6 C 203.4 72.7 206.9 72.7 206.9 74.9 C 206.9 76.2 205.9 77.1 204.3 77.1 C 202.5 77.1 201.4 76.7 201.5 74.7 C 201.5 74.7 203.4 74.7 203.4 74.7 Z " stroke="none" fill="#003c71"/>  </g>  <g id="Polygon202609">    <path d="M 343.5 40.2 C 342.9 38.2 342.1 36.2 342.1 34.1 C 342.1 32 342.9 30 343.5 28 C 343.5 28 344.4 28 344.4 28 C 343.8 30 343.4 32.1 343.4 34.2 C 343.4 36.2 343.8 38.2 344.3 40.2 C 344.3 40.2 343.5 40.2 343.5 40.2 Z M 349.4 38.5 L 348.1 38.5 L 348.1 30.2 L 346.6 31.2 C 346.6 31.2 346.61 29.98 346.6 30 C 346.9 29.8 347.9 29.1 348.2 28.8 C 348.25 28.82 349.4 28.8 349.4 28.8 L 349.4 38.5 Z M 353.9 32.9 C 355.1 33 355.9 32.5 355.9 31.3 C 355.9 30.4 355.5 29.7 354.5 29.7 C 353.5 29.7 353.3 30.5 353.3 31.3 C 353.3 31.3 352 31.3 352 31.3 C 351.9 29.7 352.7 28.7 354.5 28.7 C 356.2 28.7 357.2 29.5 357.2 31.2 C 357.2 33 355.8 33.3 355.3 33.4 C 355.3 33.4 355.3 33.5 355.3 33.5 C 356.8 33.7 357.3 34.5 357.3 36 C 357.3 37.8 356.3 38.8 354.4 38.8 C 351.7 38.8 351.9 36.4 351.9 35.9 C 351.9 35.9 353.2 35.9 353.2 35.9 C 353.2 36.8 353.3 37.7 354.5 37.7 C 355.6 37.7 356 37 356 35.9 C 356 34.4 355.4 34 353.9 34 C 353.9 34 353.9 32.9 353.9 32.9 Z M 360 38.5 L 358.7 38.5 L 358.7 37.1 L 360 37.1 L 360 38.5 Z M 365.3 35.9 C 365.3 35.1 365.2 34 364 34 C 362.8 34 362.7 35.1 362.7 35.9 C 362.7 36.8 363 37.7 364 37.7 C 364.9 37.7 365.3 36.8 365.3 35.9 Z M 364.8 33.4 C 366.2 33.5 366.6 34.7 366.6 35.9 C 366.6 37.7 365.7 38.8 364 38.8 C 362.3 38.8 361.4 37.7 361.4 35.9 C 361.4 34.7 361.7 33.5 363.2 33.4 C 363.2 33.4 363.2 33.4 363.2 33.4 C 362 33.2 361.5 32.2 361.5 31.1 C 361.5 29.6 362.5 28.7 364 28.7 C 365.5 28.7 366.5 29.6 366.5 31.1 C 366.5 32.2 365.9 33.2 364.8 33.4 C 364.8 33.4 364.8 33.4 364.8 33.4 Z M 365.2 31.1 C 365.2 30.3 364.8 29.6 364 29.6 C 363.2 29.6 362.8 30.3 362.8 31.1 C 362.8 31.8 363 32.8 364 32.8 C 364.9 32.8 365.2 31.8 365.2 31.1 Z M 374.7 38.5 C 374.7 38.5 374.69 33.64 374.7 33.6 C 374.7 32.9 374.5 32.3 373.6 32.3 C 373.2 32.3 372.7 32.5 372.6 32.7 C 372.4 33.1 372.3 33.5 372.3 33.8 C 372.31 33.78 372.3 38.5 372.3 38.5 L 371.2 38.5 C 371.2 38.5 371.16 32.94 371.2 32.9 C 371.2 32.5 371.1 32 371.1 31.5 C 371.09 31.47 372.3 31.5 372.3 31.5 L 372.3 32.4 C 372.3 32.4 372.33 32.35 372.3 32.4 C 372.7 31.6 373.3 31.3 374.1 31.3 C 374.7 31.3 375.5 31.6 375.8 32.2 C 376.1 31.5 376.8 31.3 377.4 31.3 C 378.2 31.3 379.4 31.5 379.4 33.2 C 379.37 33.17 379.4 38.5 379.4 38.5 L 378.2 38.5 C 378.2 38.5 378.22 33.64 378.2 33.6 C 378.2 32.9 378 32.3 377.1 32.3 C 376.7 32.3 376.5 32.3 376.2 32.5 C 375.9 32.8 375.8 33.5 375.8 33.8 C 375.84 33.78 375.8 38.5 375.8 38.5 L 374.7 38.5 Z M 385.3 34.6 C 385.3 32.7 384.7 32.3 383.8 32.3 C 382.9 32.3 382.3 32.7 382.3 34.6 C 382.3 36.9 382.6 37.8 383.8 37.8 C 385 37.8 385.3 36.9 385.3 34.6 Z M 381.1 35.1 C 381.1 33 381.4 31.3 383.8 31.3 C 386.3 31.3 386.5 33 386.5 35.1 C 386.5 38.2 385.3 38.7 383.8 38.7 C 382.3 38.7 381.1 38.2 381.1 35.1 Z M 392.2 38.5 C 392.2 38.5 392.19 33.64 392.2 33.6 C 392.2 32.9 391.9 32.3 390.9 32.3 C 389.7 32.3 389.5 33.4 389.5 34.4 C 389.49 34.36 389.5 38.5 389.5 38.5 L 388.3 38.5 C 388.3 38.5 388.35 32.94 388.3 32.9 C 388.3 32.5 388.3 32 388.3 31.5 C 388.28 31.47 389.5 31.5 389.5 31.5 L 389.5 32.4 C 389.5 32.4 389.55 32.38 389.5 32.4 C 390 31.6 390.5 31.3 391.4 31.3 C 393 31.3 393.3 32.2 393.3 33.6 C 393.33 33.64 393.3 38.5 393.3 38.5 L 392.2 38.5 Z M 395.5 31.5 L 395.5 30.1 L 396.6 29.6 L 396.6 31.5 L 398.2 31.5 L 398.2 32.3 L 396.6 32.3 C 396.6 32.3 396.63 36.67 396.6 36.7 C 396.6 37.1 396.6 37.7 397.7 37.7 C 397.8 37.7 397.9 37.7 398.2 37.6 C 398.2 37.6 398.2 38.5 398.2 38.5 C 397.8 38.5 397.4 38.6 397.1 38.6 C 396 38.6 395.5 38.2 395.5 37.4 C 395.48 37.37 395.5 32.3 395.5 32.3 L 394.3 32.3 L 394.3 31.5 L 395.5 31.5 Z M 403.1 38.5 C 403.1 38.5 403.09 33.75 403.1 33.8 C 403.1 32.9 402.8 32.3 401.8 32.3 C 400.7 32.3 400.4 33.2 400.4 34.4 C 400.39 34.39 400.4 38.5 400.4 38.5 L 399.2 38.5 L 399.2 28.4 L 400.4 28.4 L 400.4 32.4 C 400.4 32.4 400.44 32.38 400.4 32.4 C 400.9 31.6 401.4 31.3 402.4 31.3 C 403.6 31.3 404.2 31.9 404.2 33.5 C 404.24 33.53 404.2 38.5 404.2 38.5 L 403.1 38.5 Z M 408.4 38.7 C 406.8 38.7 405.9 38 405.9 36.4 C 405.9 36.4 407.2 36.4 407.2 36.4 C 407.2 36.8 407.2 37.8 408.4 37.8 C 409.1 37.8 409.6 37.4 409.6 36.7 C 409.6 35.4 406.1 35.4 406.1 33.3 C 406.1 32.5 406.5 31.3 408.5 31.3 C 409.8 31.3 410.9 31.9 410.8 33.3 C 410.8 33.3 409.5 33.3 409.5 33.3 C 409.5 32.6 409.1 32.2 408.4 32.2 C 407.8 32.2 407.3 32.5 407.3 33.2 C 407.3 34.4 410.8 34.4 410.8 36.5 C 410.8 38.1 409.8 38.7 408.4 38.7 Z M 412.5 40.2 C 412.9 38.2 413.4 36.2 413.4 34.2 C 413.4 32.1 412.9 30 412.4 28 C 412.4 28 413.3 28 413.3 28 C 413.9 30 414.7 32 414.7 34.1 C 414.7 36.2 413.9 38.2 413.3 40.2 C 413.3 40.2 412.5 40.2 412.5 40.2 Z M 416.8 30.6 C 417.4 30.6 417.9 30.4 417.9 29.6 C 417.9 29.1 417.7 28.7 417.1 28.7 C 416.5 28.7 416.4 29.2 416.4 29.7 C 416.4 29.7 415.7 29.7 415.7 29.7 C 415.6 28.7 416.1 28.1 417.1 28.1 C 418.1 28.1 418.7 28.6 418.7 29.6 C 418.7 30.7 417.9 30.8 417.5 30.9 C 417.5 30.9 417.5 30.9 417.5 30.9 C 418.4 31 418.7 31.5 418.7 32.4 C 418.7 33.5 418.1 34 417 34 C 415.5 34 415.6 32.6 415.6 32.3 C 415.6 32.3 416.3 32.3 416.3 32.3 C 416.3 32.9 416.4 33.4 417.1 33.4 C 417.8 33.4 418 33 418 32.4 C 418 31.4 417.6 31.2 416.8 31.2 C 416.8 31.2 416.8 30.6 416.8 30.6 Z " stroke="none" fill="#555555"/>  </g>  <g id="Polygon202608">    <path d="M 348.6 16 C 348.6 16 349.75 16.05 349.7 16 C 350.4 16 350.8 15.4 350.8 14.7 C 350.8 13.9 350.6 13.2 349.6 13.2 C 349.64 13.16 348.6 13.2 348.6 13.2 L 348.6 16 Z M 346.5 11.6 C 346.5 11.6 350.27 11.6 350.3 11.6 C 352.2 11.6 353 12.8 353 14.6 C 353 15.8 352.6 17.6 350.1 17.6 C 350.14 17.6 348.6 17.6 348.6 17.6 L 348.6 21.7 L 346.5 21.7 L 346.5 11.6 Z M 357.6 21.7 C 357.6 21.7 357.6 16.85 357.6 16.8 C 357.6 16.2 357.5 15.7 356.9 15.7 C 356.2 15.7 356.1 16.2 356.1 16.8 C 356.11 16.85 356.1 21.7 356.1 21.7 L 354.1 21.7 L 354.1 11.6 L 356.1 11.6 L 356.1 15.4 C 356.1 15.4 356.14 15.36 356.1 15.4 C 356.3 15 356.6 14.8 356.8 14.7 C 357.1 14.6 357.4 14.5 357.8 14.5 C 358.7 14.5 359.6 15.1 359.6 16 C 359.58 16.05 359.6 21.7 359.6 21.7 L 357.6 21.7 Z M 362.9 19.5 C 362.9 20 363 20.6 363.6 20.6 C 364.8 20.6 364.6 19.1 364.6 18.3 C 363.6 18.3 362.9 18.3 362.9 19.5 Z M 366.5 20.4 C 366.5 20.8 366.6 21.3 366.6 21.7 C 366.61 21.73 364.8 21.7 364.8 21.7 L 364.7 20.8 C 364.7 20.8 364.67 20.79 364.7 20.8 C 364.2 21.5 363.7 21.9 362.8 21.9 C 361.4 21.9 360.9 20.8 360.9 19.6 C 360.9 17.3 362.7 17.2 364.6 17.2 C 364.6 17.2 364.6 16.7 364.6 16.7 C 364.6 16 364.5 15.6 363.8 15.6 C 363.1 15.6 363 16.1 363 16.7 C 363 16.7 361.1 16.7 361.1 16.7 C 361.1 15.8 361.4 15.3 361.8 15 C 362.3 14.6 362.9 14.5 363.7 14.5 C 366.2 14.5 366.5 15.6 366.5 16.9 C 366.5 16.9 366.5 20.4 366.5 20.4 Z M 369.7 19.5 C 369.7 19.8 369.7 20.1 369.8 20.3 C 369.9 20.5 370.1 20.6 370.5 20.6 C 370.9 20.6 371.3 20.4 371.3 19.9 C 371.3 18.4 367.8 18.8 367.8 16.5 C 367.8 15 369.3 14.5 370.6 14.5 C 371.9 14.5 373.1 15.2 373 16.7 C 373 16.7 371.1 16.7 371.1 16.7 C 371.1 16.2 371 15.9 370.9 15.8 C 370.8 15.6 370.6 15.6 370.4 15.6 C 370 15.6 369.7 15.9 369.7 16.4 C 369.7 17.5 373.2 17.4 373.2 19.7 C 373.2 20.9 372.2 21.9 370.5 21.9 C 368.8 21.9 367.7 21.4 367.8 19.5 C 367.8 19.5 369.7 19.5 369.7 19.5 Z M 378 17.4 C 378 16.7 378 15.7 377.1 15.7 C 376.2 15.7 376.2 16.8 376.2 17.4 C 376.2 17.4 378 17.4 378 17.4 Z M 376.2 18.5 C 376.2 19.3 376.2 20.6 377.1 20.6 C 377.8 20.6 377.9 19.9 377.9 19.3 C 377.9 19.3 379.9 19.3 379.9 19.3 C 379.9 20.1 379.7 20.7 379.2 21.2 C 378.7 21.6 378 21.9 377.1 21.9 C 374.5 21.9 374.2 20.3 374.2 18.1 C 374.2 16.2 374.5 14.5 377.1 14.5 C 379.8 14.5 380.1 16.2 380 18.5 C 380 18.5 376.2 18.5 376.2 18.5 Z M 384 14.4 C 384 13.4 384.2 12.7 384.7 12.3 C 385.1 12 385.8 11.8 386.8 11.8 C 388.6 11.8 389.5 12.6 389.5 14.4 C 389.5 15.3 389.2 16.4 388.1 16.6 C 388.1 16.6 388.1 16.6 388.1 16.6 C 389.4 16.9 389.6 17.9 389.6 19 C 389.6 21 388.6 21.9 386.6 21.9 C 384.6 21.9 383.9 21.2 383.9 19.1 C 383.9 19.1 385.9 19.1 385.9 19.1 C 385.9 19.7 385.8 20.4 386.7 20.4 C 387.6 20.4 387.7 19.6 387.7 18.9 C 387.7 17.5 387.2 17.4 385.8 17.4 C 385.8 17.4 385.8 15.9 385.8 15.9 C 387.1 15.9 387.5 15.8 387.5 14.4 C 387.5 13.9 387.4 13.2 386.7 13.2 C 386 13.2 386 13.8 386 14.4 C 386 14.4 384 14.4 384 14.4 Z M 398.7 16.7 C 398.7 14.1 398.5 12.9 397.3 12.9 C 396.1 12.9 396 14.1 396 16.7 C 396 19.3 396.1 20.4 397.3 20.4 C 398.5 20.4 398.7 19.3 398.7 16.7 Z M 393.8 16.7 C 393.8 14 393.8 11.4 397.3 11.4 C 400.8 11.4 400.8 14 400.8 16.7 C 400.8 19.3 400.8 21.9 397.3 21.9 C 393.8 21.9 393.8 19.3 393.8 16.7 Z M 402.5 21.7 L 402.5 11.6 L 404.6 11.6 L 404.6 20 L 407.8 20 L 407.8 21.7 L 402.5 21.7 Z M 408.7 21.7 L 408.7 11.6 L 414.3 11.6 L 414.3 13.2 L 410.8 13.2 L 410.8 15.7 L 414 15.7 L 414 17.2 L 410.8 17.2 L 410.8 20.2 L 414.4 20.2 L 414.4 21.7 L 408.7 21.7 Z " stroke="none" fill="#555555"/>  </g></svg>