<?xml version="1.0" standalone="no"?><!DOCTYPE svg PUBLIC "-//W3C//DTD SVG 1.1//EN" "http://www.w3.org/Graphics/SVG/1.1/DTD/svg11.dtd"><svg xmlns="http://www.w3.org/2000/svg" version="1.1" width="257.1px" height="82.6px" viewBox="0 -3 257.1 82.6" style="top:-3px">  <desc>The only way to achieve these goals currently is with use of LTP1</desc>  <defs/>  <g id="Polygon191528">    <path d="M 64.8 57.5 L 66.6 57.5 L 68.5 66.3 L 68.5 66.3 L 70.8 57.5 L 73.1 57.5 L 75.2 66.3 L 75.3 66.3 L 77.3 57.5 L 79 57.5 L 76.3 67.7 L 74.1 67.7 L 71.9 59 L 71.9 59 L 69.6 67.7 L 67.3 67.7 L 64.8 57.5 Z M 82.3 67.7 L 80.7 67.7 L 80.7 57.5 L 82.3 57.5 L 82.3 67.7 Z M 80.6 53.1 L 82.4 53.1 L 82.4 54.9 L 80.6 54.9 L 80.6 53.1 Z M 85.4 57.5 L 85.4 55.5 L 87 54.8 L 87 57.5 L 89.3 57.5 L 89.3 58.7 L 87 58.7 C 87 58.7 87.04 65 87 65 C 87 65.7 87 66.5 88.6 66.5 C 88.7 66.5 88.9 66.4 89.3 66.4 C 89.3 66.4 89.3 67.7 89.3 67.7 C 88.8 67.7 88.2 67.8 87.7 67.8 C 86.1 67.8 85.4 67.2 85.4 66 C 85.38 66.02 85.4 58.7 85.4 58.7 L 83.7 58.7 L 83.7 57.5 L 85.4 57.5 Z M 96.4 67.7 C 96.4 67.7 96.39 60.78 96.4 60.8 C 96.4 59.5 96 58.6 94.6 58.6 C 92.9 58.6 92.5 60 92.5 61.7 C 92.47 61.7 92.5 67.7 92.5 67.7 L 90.8 67.7 L 90.8 53.1 L 92.5 53.1 L 92.5 58.8 C 92.5 58.8 92.56 58.8 92.6 58.8 C 93.2 57.6 94 57.3 95.3 57.3 C 97.1 57.3 98.1 58.1 98.1 60.5 C 98.05 60.46 98.1 67.7 98.1 67.7 L 96.4 67.7 Z M 110.9 57.5 L 112.6 57.5 C 112.6 57.5 112.61 65.59 112.6 65.6 C 112.6 66.3 112.7 67 112.7 67.7 C 112.71 67.72 110.9 67.7 110.9 67.7 L 110.9 66.5 C 110.9 66.5 110.89 66.48 110.9 66.5 C 110.3 67.4 109.4 67.9 108.3 67.9 C 106.5 67.9 105.5 67 105.5 65.3 C 105.53 65.29 105.5 57.5 105.5 57.5 L 107.2 57.5 C 107.2 57.5 107.2 64.58 107.2 64.6 C 107.2 65.8 107.8 66.6 108.9 66.6 C 109.8 66.6 110.9 66 110.9 64.3 C 110.95 64.27 110.9 57.5 110.9 57.5 Z M 118.6 67.9 C 116.4 67.9 115 66.9 115.1 64.6 C 115.1 64.6 117 64.6 117 64.6 C 117 65.2 117 66.6 118.7 66.6 C 119.7 66.6 120.5 66.1 120.5 65 C 120.5 63.2 115.4 63.1 115.4 60.1 C 115.4 59 116 57.3 118.9 57.3 C 120.7 57.3 122.3 58.1 122.1 60.2 C 122.1 60.2 120.3 60.2 120.3 60.2 C 120.3 59.1 119.7 58.5 118.7 58.5 C 117.8 58.5 117.1 59 117.1 59.9 C 117.1 61.7 122.2 61.7 122.2 64.8 C 122.2 67.1 120.7 67.9 118.6 67.9 Z M 130.2 61.9 C 130.2 58.9 129.4 58.5 128.2 58.5 C 127.1 58.5 126.3 59 126.2 61.9 C 126.2 61.9 130.2 61.9 130.2 61.9 Z M 126.2 63.1 C 126.2 66 127 66.6 128.3 66.6 C 129.4 66.6 130 65.7 130.1 64.6 C 130.1 64.6 131.9 64.6 131.9 64.6 C 131.9 66.9 130.5 67.9 128.3 67.9 C 126.2 67.9 124.5 67.3 124.5 62.8 C 124.5 59.7 124.8 57.3 128.3 57.3 C 131.3 57.3 132 58.9 132 62.3 C 132 62.26 132 63.1 132 63.1 C 132 63.1 126.24 63.14 126.2 63.1 Z M 145 62 C 145 59.2 144.1 58.6 142.9 58.6 C 141.6 58.6 140.7 59.2 140.7 62 C 140.7 65.4 141.1 66.6 142.9 66.6 C 144.6 66.6 145 65.4 145 62 Z M 139 62.8 C 139 59.7 139.3 57.3 142.9 57.3 C 146.4 57.3 146.8 59.7 146.8 62.8 C 146.8 67.3 145 67.9 142.9 67.9 C 140.7 67.9 139 67.3 139 62.8 Z M 149.7 57.5 C 149.7 57.5 149.7 55.49 149.7 55.5 C 149.7 53.4 151.2 53 152.6 53 C 153 53 153.2 53 153.4 53.1 C 153.4 53.1 153.4 54.3 153.4 54.3 C 151.7 54.2 151.4 54.9 151.4 55.7 C 151.37 55.73 151.4 57.5 151.4 57.5 L 153.4 57.5 L 153.4 58.7 L 151.4 58.7 L 151.4 67.7 L 149.7 67.7 L 149.7 58.7 L 148.1 58.7 L 148.1 57.5 L 149.7 57.5 Z M 159.7 67.7 L 159.7 53.1 L 161.6 53.1 L 161.6 66.1 L 167 66.1 L 167 67.7 L 159.7 67.7 Z M 175.7 53.1 L 175.7 54.7 L 171.9 54.7 L 171.9 67.7 L 170 67.7 L 170 54.7 L 166.2 54.7 L 166.2 53.1 L 175.7 53.1 Z M 179.8 59.6 C 179.8 59.6 181.81 59.65 181.8 59.6 C 182.6 59.6 184.4 59.4 184.4 57.2 C 184.4 54.9 182.7 54.7 182.3 54.7 C 182.33 54.7 179.8 54.7 179.8 54.7 L 179.8 59.6 Z M 177.9 67.7 L 177.9 53.1 C 177.9 53.1 182.23 53.08 182.2 53.1 C 184.2 53.1 186.3 53.8 186.3 57.3 C 186.3 60.6 183.7 61.3 182.2 61.3 C 182.21 61.27 179.8 61.3 179.8 61.3 L 179.8 67.7 L 177.9 67.7 Z M 190.7 61 L 189.6 61 L 189.6 54 L 188.4 54.8 C 188.4 54.8 188.38 53.74 188.4 53.7 C 188.7 53.6 189.4 53 189.8 52.8 C 189.77 52.76 190.7 52.8 190.7 52.8 L 190.7 61 Z " stroke="none" fill="#555555"/>  </g>  <g id="Polygon191527">    <path d="M 35.6 32.7 L 35.6 30.7 L 37.3 30 L 37.3 32.7 L 39.5 32.7 L 39.5 33.9 L 37.3 33.9 C 37.3 33.9 37.26 40.22 37.3 40.2 C 37.3 40.9 37.3 41.7 38.8 41.7 C 38.9 41.7 39.2 41.7 39.5 41.6 C 39.5 41.6 39.5 42.9 39.5 42.9 C 39 42.9 38.4 43.1 37.9 43.1 C 36.3 43.1 35.6 42.4 35.6 41.2 C 35.6 41.23 35.6 33.9 35.6 33.9 L 33.9 33.9 L 33.9 32.7 L 35.6 32.7 Z M 46.6 42.9 C 46.6 42.9 46.61 36 46.6 36 C 46.6 34.7 46.2 33.8 44.8 33.8 C 43.1 33.8 42.7 35.2 42.7 36.9 C 42.7 36.91 42.7 42.9 42.7 42.9 L 41 42.9 L 41 28.3 L 42.7 28.3 L 42.7 34 C 42.7 34 42.78 34.01 42.8 34 C 43.4 32.8 44.2 32.5 45.6 32.5 C 47.3 32.5 48.3 33.4 48.3 35.7 C 48.27 35.67 48.3 42.9 48.3 42.9 L 46.6 42.9 Z M 56.8 37.1 C 56.8 34.1 56 33.7 54.8 33.7 C 53.7 33.7 52.8 34.3 52.8 37.1 C 52.8 37.1 56.8 37.1 56.8 37.1 Z M 52.8 38.3 C 52.8 41.2 53.6 41.8 54.9 41.8 C 56 41.8 56.6 40.9 56.7 39.8 C 56.7 39.8 58.5 39.8 58.5 39.8 C 58.5 42.1 57.1 43.1 54.9 43.1 C 52.8 43.1 51 42.5 51 38 C 51 35 51.4 32.5 54.9 32.5 C 57.8 32.5 58.6 34.1 58.6 37.5 C 58.58 37.48 58.6 38.3 58.6 38.3 C 58.6 38.3 52.82 38.35 52.8 38.3 Z M 64.4 43.1 C 62.1 43.1 60.8 42.2 60.8 39.8 C 60.8 39.8 62.7 39.8 62.7 39.8 C 62.7 40.4 62.7 41.8 64.4 41.8 C 65.4 41.8 66.2 41.3 66.2 40.2 C 66.2 38.4 61.1 38.3 61.1 35.3 C 61.1 34.2 61.7 32.5 64.6 32.5 C 66.4 32.5 68 33.4 67.8 35.4 C 67.8 35.4 66 35.4 66 35.4 C 66 34.3 65.5 33.7 64.4 33.7 C 63.5 33.7 62.8 34.2 62.8 35.1 C 62.8 36.9 67.9 36.9 67.9 40 C 67.9 42.3 66.4 43.1 64.4 43.1 Z M 76 37.1 C 76 34.1 75.1 33.7 73.9 33.7 C 72.9 33.7 72 34.3 72 37.1 C 72 37.1 76 37.1 76 37.1 Z M 72 38.3 C 72 41.2 72.7 41.8 74 41.8 C 75.2 41.8 75.8 40.9 75.8 39.8 C 75.8 39.8 77.6 39.8 77.6 39.8 C 77.6 42.1 76.2 43.1 74.1 43.1 C 71.9 43.1 70.2 42.5 70.2 38 C 70.2 35 70.5 32.5 74.1 32.5 C 77 32.5 77.7 34.1 77.7 37.5 C 77.72 37.48 77.7 38.3 77.7 38.3 C 77.7 38.3 71.96 38.35 72 38.3 Z M 88.4 33.9 C 86.6 33.9 86.5 36.1 86.5 37.5 C 86.5 40.8 87.3 41.6 88.5 41.6 C 90.5 41.6 90.4 39.2 90.4 37.8 C 90.4 36.2 90.5 33.9 88.4 33.9 Z M 90.4 32.7 L 92.1 32.7 C 92.1 32.7 92.06 43.97 92.1 44 C 92.1 46.3 90.5 46.8 88.3 46.8 C 86.6 46.8 85 46 85.2 44.1 C 85.2 44.1 87 44.1 87 44.1 C 87.1 45 87.7 45.5 88.6 45.5 C 89.8 45.5 90.4 44.8 90.4 43.8 C 90.39 43.78 90.4 41.7 90.4 41.7 C 90.4 41.7 90.33 41.66 90.3 41.7 C 89.9 42.5 89 42.9 88.1 42.9 C 85.3 42.9 84.8 40.5 84.8 37.5 C 84.8 32.8 87.1 32.5 88 32.5 C 89 32.5 89.9 33 90.4 33.9 C 90.35 33.95 90.4 33.9 90.4 33.9 L 90.4 32.7 Z M 100.9 37.3 C 100.9 34.5 100 33.8 98.7 33.8 C 97.5 33.8 96.6 34.5 96.6 37.3 C 96.6 40.6 97 41.8 98.7 41.8 C 100.5 41.8 100.9 40.6 100.9 37.3 Z M 94.8 38 C 94.8 35 95.2 32.5 98.7 32.5 C 102.3 32.5 102.6 35 102.6 38 C 102.6 42.5 100.9 43.1 98.7 43.1 C 96.6 43.1 94.8 42.5 94.8 38 Z M 106.8 39.9 C 106.8 40.9 107.3 41.8 108.4 41.8 C 109.4 41.8 110.7 41.1 110.5 37.8 C 108.9 37.9 106.8 37.7 106.8 39.9 Z M 110.5 41.5 C 110.5 41.5 110.49 41.45 110.5 41.5 C 110 42.6 109.2 43.1 107.9 43.1 C 105.7 43.1 105.1 41.7 105.1 39.8 C 105.1 36.7 108.2 36.5 110.5 36.6 C 110.5 35.2 110.6 33.7 108.8 33.7 C 107.7 33.7 107.1 34.5 107.2 35.6 C 107.2 35.6 105.4 35.6 105.4 35.6 C 105.4 33.3 106.7 32.5 108.8 32.5 C 111.5 32.5 112.2 33.8 112.2 35.6 C 112.2 35.6 112.2 40.5 112.2 40.5 C 112.2 41.3 112.2 42.1 112.4 42.9 C 112.36 42.93 110.5 42.9 110.5 42.9 L 110.5 41.5 Z M 117 42.9 L 115.4 42.9 L 115.4 28.3 L 117 28.3 L 117 42.9 Z M 122.9 43.1 C 120.7 43.1 119.3 42.2 119.4 39.8 C 119.4 39.8 121.3 39.8 121.3 39.8 C 121.3 40.4 121.3 41.8 123 41.8 C 124 41.8 124.7 41.3 124.7 40.2 C 124.7 38.4 119.6 38.3 119.6 35.3 C 119.6 34.2 120.3 32.5 123.2 32.5 C 125 32.5 126.6 33.4 126.4 35.4 C 126.4 35.4 124.6 35.4 124.6 35.4 C 124.6 34.3 124 33.7 123 33.7 C 122.1 33.7 121.4 34.2 121.4 35.1 C 121.4 36.9 126.5 36.9 126.5 40 C 126.5 42.3 125 43.1 122.9 43.1 Z M 138.8 36 C 138.8 34.3 138 33.8 137.3 33.8 C 136.1 33.8 135.2 34.5 135.2 37.3 C 135.2 40.6 135.6 41.8 137.3 41.8 C 137.7 41.8 138.9 41.4 138.8 39.5 C 138.8 39.5 140.6 39.5 140.6 39.5 C 140.6 42.4 138.5 43.1 137.3 43.1 C 135.2 43.1 133.4 42.5 133.4 38 C 133.4 35 133.8 32.5 137.3 32.5 C 139.4 32.5 140.6 33.7 140.5 36 C 140.5 36 138.8 36 138.8 36 Z M 149 32.7 L 150.7 32.7 C 150.7 32.7 150.69 40.8 150.7 40.8 C 150.7 41.5 150.7 42.2 150.8 42.9 C 150.79 42.93 149 42.9 149 42.9 L 149 41.7 C 149 41.7 148.96 41.7 149 41.7 C 148.4 42.6 147.4 43.1 146.4 43.1 C 144.6 43.1 143.6 42.2 143.6 40.5 C 143.61 40.5 143.6 32.7 143.6 32.7 L 145.3 32.7 C 145.3 32.7 145.27 39.79 145.3 39.8 C 145.3 41 145.8 41.9 147 41.9 C 147.9 41.9 149 41.2 149 39.5 C 149.02 39.49 149 32.7 149 32.7 Z M 155.4 34.2 C 155.4 34.2 155.45 34.23 155.5 34.2 C 156.1 32.7 157 32.5 158.6 32.5 C 158.6 32.5 158.6 34.2 158.6 34.2 C 158.5 34.2 158.3 34.2 158.2 34.2 C 158 34.1 157.9 34.1 157.7 34.1 C 155.9 34.1 155.4 35.5 155.4 36.9 C 155.41 36.89 155.4 42.9 155.4 42.9 L 153.7 42.9 L 153.7 32.7 L 155.4 32.7 L 155.4 34.2 Z M 162.2 34.2 C 162.2 34.2 162.21 34.23 162.2 34.2 C 162.9 32.7 163.7 32.5 165.4 32.5 C 165.4 32.5 165.4 34.2 165.4 34.2 C 165.2 34.2 165.1 34.2 164.9 34.2 C 164.8 34.1 164.6 34.1 164.5 34.1 C 162.6 34.1 162.2 35.5 162.2 36.9 C 162.17 36.89 162.2 42.9 162.2 42.9 L 160.5 42.9 L 160.5 32.7 L 162.2 32.7 L 162.2 34.2 Z M 172.8 37.1 C 172.8 34.1 172 33.7 170.8 33.7 C 169.7 33.7 168.8 34.3 168.8 37.1 C 168.8 37.1 172.8 37.1 172.8 37.1 Z M 168.8 38.3 C 168.8 41.2 169.6 41.8 170.9 41.8 C 172 41.8 172.6 40.9 172.7 39.8 C 172.7 39.8 174.5 39.8 174.5 39.8 C 174.5 42.1 173.1 43.1 170.9 43.1 C 168.8 43.1 167 42.5 167 38 C 167 35 167.4 32.5 170.9 32.5 C 173.8 32.5 174.6 34.1 174.6 37.5 C 174.58 37.48 174.6 38.3 174.6 38.3 C 174.6 38.3 168.82 38.35 168.8 38.3 Z M 182.9 42.9 C 182.9 42.9 182.89 35.83 182.9 35.8 C 182.9 34.7 182.5 33.8 181.1 33.8 C 179.3 33.8 179 35.5 179 36.9 C 179 36.87 179 42.9 179 42.9 L 177.3 42.9 C 177.3 42.9 177.34 34.82 177.3 34.8 C 177.3 34.1 177.3 33.4 177.2 32.7 C 177.23 32.69 179 32.7 179 32.7 L 179 34 C 179 34 179.08 34.01 179.1 34 C 179.7 32.9 180.5 32.5 181.8 32.5 C 184 32.5 184.6 33.8 184.6 35.8 C 184.55 35.83 184.6 42.9 184.6 42.9 L 182.9 42.9 Z M 187.7 32.7 L 187.7 30.7 L 189.3 30 L 189.3 32.7 L 191.6 32.7 L 191.6 33.9 L 189.3 33.9 C 189.3 33.9 189.32 40.22 189.3 40.2 C 189.3 40.9 189.3 41.7 190.8 41.7 C 191 41.7 191.2 41.7 191.6 41.6 C 191.6 41.6 191.6 42.9 191.6 42.9 C 191 42.9 190.5 43.1 189.9 43.1 C 188.4 43.1 187.7 42.4 187.7 41.2 C 187.66 41.23 187.7 33.9 187.7 33.9 L 186 33.9 L 186 32.7 L 187.7 32.7 Z M 194.7 42.9 L 193.1 42.9 L 193.1 28.3 L 194.7 28.3 L 194.7 42.9 Z M 200.7 41 L 200.7 41 L 203.2 32.7 L 205 32.7 L 200.4 46.8 L 198.6 46.8 L 199.8 42.9 L 196.3 32.7 L 198.2 32.7 L 200.7 41 Z M 212.7 42.9 L 211.1 42.9 L 211.1 32.7 L 212.7 32.7 L 212.7 42.9 Z M 211 28.3 L 212.8 28.3 L 212.8 30.1 L 211 30.1 L 211 28.3 Z M 218.6 43.1 C 216.4 43.1 215.1 42.2 215.1 39.8 C 215.1 39.8 217 39.8 217 39.8 C 217 40.4 217 41.8 218.7 41.8 C 219.7 41.8 220.5 41.3 220.5 40.2 C 220.5 38.4 215.4 38.3 215.4 35.3 C 215.4 34.2 216 32.5 218.9 32.5 C 220.7 32.5 222.3 33.4 222.1 35.4 C 222.1 35.4 220.3 35.4 220.3 35.4 C 220.3 34.3 219.7 33.7 218.7 33.7 C 217.8 33.7 217.1 34.2 217.1 35.1 C 217.1 36.9 222.2 36.9 222.2 40 C 222.2 42.3 220.7 43.1 218.6 43.1 Z " stroke="none" fill="#555555"/>  </g>  <g id="Polygon191526">    <path d="M 40.4 3.5 L 40.4 5.1 L 36.6 5.1 L 36.6 18.1 L 34.7 18.1 L 34.7 5.1 L 30.9 5.1 L 30.9 3.5 L 40.4 3.5 Z M 47.7 18.1 C 47.7 18.1 47.73 11.21 47.7 11.2 C 47.7 10 47.3 9.1 45.9 9.1 C 44.2 9.1 43.8 10.4 43.8 12.1 C 43.81 12.12 43.8 18.1 43.8 18.1 L 42.1 18.1 L 42.1 3.5 L 43.8 3.5 L 43.8 9.2 C 43.8 9.2 43.89 9.22 43.9 9.2 C 44.6 8 45.3 7.7 46.7 7.7 C 48.4 7.7 49.4 8.6 49.4 10.9 C 49.39 10.89 49.4 18.1 49.4 18.1 L 47.7 18.1 Z M 57.9 12.3 C 57.9 9.3 57.1 9 55.9 9 C 54.8 9 54 9.5 53.9 12.3 C 53.9 12.3 57.9 12.3 57.9 12.3 Z M 53.9 13.6 C 53.9 16.4 54.7 17 56 17 C 57.1 17 57.7 16.1 57.8 15 C 57.8 15 59.6 15 59.6 15 C 59.6 17.3 58.2 18.3 56 18.3 C 53.9 18.3 52.1 17.7 52.1 13.2 C 52.1 10.2 52.5 7.7 56 7.7 C 59 7.7 59.7 9.3 59.7 12.7 C 59.69 12.69 59.7 13.6 59.7 13.6 C 59.7 13.6 53.93 13.56 53.9 13.6 Z M 72.7 12.5 C 72.7 9.7 71.8 9.1 70.6 9.1 C 69.3 9.1 68.4 9.7 68.4 12.5 C 68.4 15.8 68.8 17 70.6 17 C 72.3 17 72.7 15.8 72.7 12.5 Z M 66.7 13.2 C 66.7 10.2 67 7.7 70.6 7.7 C 74.1 7.7 74.5 10.2 74.5 13.2 C 74.5 17.7 72.7 18.3 70.6 18.3 C 68.4 18.3 66.7 17.7 66.7 13.2 Z M 82.6 18.1 C 82.6 18.1 82.65 11.05 82.6 11 C 82.6 10 82.3 9.1 80.8 9.1 C 79 9.1 78.8 10.7 78.8 12.1 C 78.75 12.08 78.8 18.1 78.8 18.1 L 77.1 18.1 C 77.1 18.1 77.09 10.03 77.1 10 C 77.1 9.3 77.1 8.6 77 7.9 C 76.99 7.9 78.8 7.9 78.8 7.9 L 78.8 9.2 C 78.8 9.2 78.84 9.22 78.8 9.2 C 79.5 8.1 80.3 7.7 81.6 7.7 C 83.8 7.7 84.3 9 84.3 11 C 84.31 11.05 84.3 18.1 84.3 18.1 L 82.6 18.1 Z M 88.9 18.1 L 87.2 18.1 L 87.2 3.5 L 88.9 3.5 L 88.9 18.1 Z M 94.8 16.2 L 94.9 16.2 L 97.3 7.9 L 99.1 7.9 L 94.5 22 L 92.7 22 L 93.9 18.1 L 90.4 7.9 L 92.4 7.9 L 94.8 16.2 Z M 104 7.9 L 105.8 7.9 L 107.7 16.7 L 107.7 16.7 L 110 7.9 L 112.3 7.9 L 114.4 16.7 L 114.4 16.7 L 116.5 7.9 L 118.2 7.9 L 115.5 18.1 L 113.3 18.1 L 111.1 9.4 L 111 9.4 L 108.7 18.1 L 106.5 18.1 L 104 7.9 Z M 121.4 15.1 C 121.4 16.1 121.9 17 123 17 C 124 17 125.3 16.4 125.1 13.1 C 123.5 13.1 121.4 12.9 121.4 15.1 Z M 125.2 16.7 C 125.2 16.7 125.11 16.67 125.1 16.7 C 124.6 17.8 123.8 18.3 122.5 18.3 C 120.4 18.3 119.7 16.9 119.7 15 C 119.7 11.9 122.8 11.7 125.1 11.8 C 125.2 10.4 125.2 9 123.4 9 C 122.3 9 121.7 9.7 121.8 10.8 C 121.8 10.8 120 10.8 120 10.8 C 120.1 8.5 121.3 7.7 123.5 7.7 C 126.1 7.7 126.8 9.1 126.8 10.8 C 126.8 10.8 126.8 15.7 126.8 15.7 C 126.8 16.5 126.9 17.4 127 18.1 C 126.98 18.15 125.2 18.1 125.2 18.1 L 125.2 16.7 Z M 133.1 16.2 L 133.1 16.2 L 135.6 7.9 L 137.4 7.9 L 132.8 22 L 131 22 L 132.2 18.1 L 128.7 7.9 L 130.7 7.9 L 133.1 16.2 Z M 143.7 7.9 L 143.7 5.9 L 145.4 5.2 L 145.4 7.9 L 147.6 7.9 L 147.6 9.2 L 145.4 9.2 C 145.4 9.2 145.37 15.43 145.4 15.4 C 145.4 16.1 145.4 16.9 146.9 16.9 C 147 16.9 147.3 16.9 147.6 16.8 C 147.6 16.8 147.6 18.1 147.6 18.1 C 147.1 18.1 146.5 18.3 146 18.3 C 144.4 18.3 143.7 17.6 143.7 16.4 C 143.71 16.44 143.7 9.2 143.7 9.2 L 142 9.2 L 142 7.9 L 143.7 7.9 Z M 154.9 12.5 C 154.9 9.7 154.1 9.1 152.8 9.1 C 151.5 9.1 150.6 9.7 150.6 12.5 C 150.6 15.8 151.1 17 152.8 17 C 154.5 17 154.9 15.8 154.9 12.5 Z M 148.9 13.2 C 148.9 10.2 149.2 7.7 152.8 7.7 C 156.3 7.7 156.7 10.2 156.7 13.2 C 156.7 17.7 154.9 18.3 152.8 18.3 C 150.6 18.3 148.9 17.7 148.9 13.2 Z M 165.3 15.1 C 165.3 16.1 165.8 17 166.9 17 C 167.9 17 169.2 16.4 169 13.1 C 167.5 13.1 165.3 12.9 165.3 15.1 Z M 169.1 16.7 C 169.1 16.7 169.04 16.67 169 16.7 C 168.5 17.8 167.7 18.3 166.5 18.3 C 164.3 18.3 163.7 16.9 163.7 15 C 163.7 11.9 166.7 11.7 169 11.8 C 169.1 10.4 169.1 9 167.3 9 C 166.2 9 165.6 9.7 165.7 10.8 C 165.7 10.8 163.9 10.8 163.9 10.8 C 164 8.5 165.2 7.7 167.4 7.7 C 170 7.7 170.7 9.1 170.7 10.8 C 170.7 10.8 170.7 15.7 170.7 15.7 C 170.7 16.5 170.8 17.4 170.9 18.1 C 170.91 18.15 169.1 18.1 169.1 18.1 L 169.1 16.7 Z M 179.3 11.2 C 179.3 9.5 178.5 9.1 177.9 9.1 C 176.6 9.1 175.7 9.7 175.7 12.5 C 175.7 15.8 176.2 17 177.9 17 C 178.3 17 179.4 16.6 179.4 14.7 C 179.4 14.7 181.1 14.7 181.1 14.7 C 181.2 17.6 179 18.3 177.9 18.3 C 175.7 18.3 174 17.7 174 13.2 C 174 10.2 174.3 7.7 177.9 7.7 C 179.9 7.7 181.1 8.9 181 11.2 C 181 11.2 179.3 11.2 179.3 11.2 Z M 189.6 18.1 C 189.6 18.1 189.64 11.21 189.6 11.2 C 189.6 10 189.2 9.1 187.8 9.1 C 186.2 9.1 185.7 10.4 185.7 12.1 C 185.73 12.12 185.7 18.1 185.7 18.1 L 184.1 18.1 L 184.1 3.5 L 185.7 3.5 L 185.7 9.2 C 185.7 9.2 185.81 9.22 185.8 9.2 C 186.5 8 187.3 7.7 188.6 7.7 C 190.3 7.7 191.3 8.6 191.3 10.9 C 191.31 10.89 191.3 18.1 191.3 18.1 L 189.6 18.1 Z M 195.9 18.1 L 194.2 18.1 L 194.2 7.9 L 195.9 7.9 L 195.9 18.1 Z M 194.1 3.5 L 196 3.5 L 196 5.3 L 194.1 5.3 L 194.1 3.5 Z M 204.3 12.3 C 204.3 9.3 203.5 9 202.3 9 C 201.2 9 200.4 9.5 200.4 12.3 C 200.4 12.3 204.3 12.3 204.3 12.3 Z M 200.4 13.6 C 200.4 16.4 201.1 17 202.4 17 C 203.6 17 204.1 16.1 204.2 15 C 204.2 15 206 15 206 15 C 206 17.3 204.6 18.3 202.5 18.3 C 200.3 18.3 198.6 17.7 198.6 13.2 C 198.6 10.2 198.9 7.7 202.5 7.7 C 205.4 7.7 206.1 9.3 206.1 12.7 C 206.11 12.69 206.1 13.6 206.1 13.6 C 206.1 13.6 200.35 13.56 200.4 13.6 Z M 207.7 7.9 L 209.6 7.9 L 211.9 16.6 L 211.9 16.6 L 214.4 7.9 L 216.1 7.9 L 212.9 18.1 L 210.7 18.1 L 207.7 7.9 Z M 223.5 12.3 C 223.5 9.3 222.7 9 221.4 9 C 220.4 9 219.5 9.5 219.5 12.3 C 219.5 12.3 223.5 12.3 223.5 12.3 Z M 219.5 13.6 C 219.5 16.4 220.3 17 221.6 17 C 222.7 17 223.3 16.1 223.3 15 C 223.3 15 225.2 15 225.2 15 C 225.2 17.3 223.8 18.3 221.6 18.3 C 219.4 18.3 217.7 17.7 217.7 13.2 C 217.7 10.2 218.1 7.7 221.6 7.7 C 224.5 7.7 225.3 9.3 225.3 12.7 C 225.26 12.69 225.3 13.6 225.3 13.6 C 225.3 13.6 219.5 13.56 219.5 13.6 Z " stroke="none" fill="#555555"/>  </g></svg>