<?xml version="1.0" standalone="no"?><!DOCTYPE svg PUBLIC "-//W3C//DTD SVG 1.1//EN" "http://www.w3.org/Graphics/SVG/1.1/DTD/svg11.dtd"><svg xmlns="http://www.w3.org/2000/svg" version="1.1" width="101.3px" height="152.6px" viewBox="0 -1 101.3 152.6" style="top:-1px">  <desc>The first step of developing an HAE attack is the conversion of prekallikrein to plasma kallikrein by FXIIa</desc>  <defs/>  <g id="Polygon193315">    <path d="M 3.3 122.6 C 4.6 122.6 4.6 121.2 4.6 120.2 C 4.6 118.4 4.5 117.5 3.3 117.5 C 2.1 117.5 2.1 118.9 2.1 119.8 C 2.1 120.8 2 122.6 3.3 122.6 Z M 2.1 123.3 L 1 123.3 L 1 114 L 2.1 114 L 2.1 117.4 C 2.1 117.4 2.13 117.44 2.1 117.4 C 2.5 116.9 3 116.6 3.6 116.6 C 5.7 116.6 5.7 118.5 5.7 120.2 C 5.7 123.1 4.7 123.5 3.6 123.5 C 2.9 123.5 2.5 123.2 2.1 122.6 C 2.12 122.56 2.1 122.6 2.1 122.6 L 2.1 123.3 Z M 9.4 122.1 L 9.4 122.1 L 11 116.8 L 12.2 116.8 L 9.2 125.8 L 8.1 125.8 L 8.8 123.3 L 6.6 116.8 L 7.8 116.8 L 9.4 122.1 Z M 16.1 123.3 L 16.1 114 L 20.8 114 L 20.8 115 L 17.3 115 L 17.3 118 L 20.6 118 L 20.6 119 L 17.3 119 L 17.3 123.3 L 16.1 123.3 Z M 28 123.3 L 26.6 123.3 L 24.4 119.3 L 22.3 123.3 L 21 123.3 L 23.7 118.5 L 21.2 114 L 22.5 114 L 24.5 117.6 L 26.4 114 L 27.7 114 L 25.2 118.5 L 28 123.3 Z M 30.6 123.3 L 29.4 123.3 L 29.4 114 L 30.6 114 L 30.6 123.3 Z M 34.2 123.3 L 33 123.3 L 33 114 L 34.2 114 L 34.2 123.3 Z M 37.3 121.4 C 37.3 122 37.6 122.6 38.3 122.6 C 39 122.6 39.8 122.2 39.7 120.1 C 38.7 120.1 37.3 120 37.3 121.4 Z M 39.7 122.4 C 39.7 122.4 39.68 122.39 39.7 122.4 C 39.4 123.1 38.8 123.5 38 123.5 C 36.6 123.5 36.2 122.6 36.2 121.3 C 36.2 119.3 38.2 119.2 39.7 119.3 C 39.7 118.4 39.7 117.4 38.6 117.4 C 37.9 117.4 37.5 117.9 37.5 118.6 C 37.5 118.6 36.4 118.6 36.4 118.6 C 36.4 117.1 37.2 116.6 38.6 116.6 C 40.3 116.6 40.7 117.5 40.7 118.6 C 40.7 118.6 40.7 121.8 40.7 121.8 C 40.7 122.3 40.8 122.8 40.9 123.3 C 40.87 123.34 39.7 123.3 39.7 123.3 L 39.7 122.4 Z " stroke="none" fill="#003c71"/>  </g>  <g id="Polygon193314">    <path d="M 4.6 104.9 C 4.6 104 4.6 102.5 3.3 102.5 C 2 102.5 2.1 104.3 2.1 105.3 C 2.1 106.2 2.1 107.6 3.3 107.6 C 4.5 107.6 4.6 106.7 4.6 104.9 Z M 2.1 102.6 C 2.1 102.6 2.12 102.55 2.1 102.6 C 2.5 101.9 2.9 101.6 3.6 101.6 C 4.7 101.6 5.7 102.1 5.7 104.9 C 5.7 106.6 5.7 108.5 3.6 108.5 C 3 108.5 2.5 108.2 2.1 107.7 C 2.13 107.68 2.1 107.7 2.1 107.7 L 2.1 110.8 L 1 110.8 L 1 101.8 L 2.1 101.8 L 2.1 102.6 Z M 8.5 108.3 L 7.4 108.3 L 7.4 99 L 8.5 99 L 8.5 108.3 Z M 11.3 106.4 C 11.3 107 11.6 107.6 12.3 107.6 C 13 107.6 13.8 107.2 13.7 105.1 C 12.7 105.1 11.3 105 11.3 106.4 Z M 13.7 107.4 C 13.7 107.4 13.68 107.39 13.7 107.4 C 13.4 108.1 12.8 108.5 12 108.5 C 10.6 108.5 10.2 107.6 10.2 106.3 C 10.2 104.3 12.2 104.2 13.7 104.3 C 13.7 103.4 13.7 102.4 12.6 102.4 C 11.9 102.4 11.5 102.9 11.5 103.6 C 11.5 103.6 10.4 103.6 10.4 103.6 C 10.4 102.1 11.2 101.6 12.6 101.6 C 14.3 101.6 14.7 102.5 14.7 103.6 C 14.7 103.6 14.7 106.8 14.7 106.8 C 14.7 107.3 14.8 107.8 14.9 108.3 C 14.87 108.34 13.7 108.3 13.7 108.3 L 13.7 107.4 Z M 18.8 108.5 C 17.3 108.5 16.5 107.8 16.5 106.3 C 16.5 106.3 17.7 106.3 17.7 106.3 C 17.7 106.7 17.7 107.6 18.8 107.6 C 19.4 107.6 19.9 107.3 19.9 106.6 C 19.9 105.4 16.7 105.4 16.7 103.4 C 16.7 102.7 17.1 101.6 18.9 101.6 C 20.1 101.6 21.1 102.2 21 103.5 C 21 103.5 19.8 103.5 19.8 103.5 C 19.8 102.8 19.5 102.4 18.8 102.4 C 18.2 102.4 17.8 102.8 17.8 103.3 C 17.8 104.5 21 104.5 21 106.5 C 21 107.9 20.1 108.5 18.8 108.5 Z M 25.8 108.3 C 25.8 108.3 25.82 103.79 25.8 103.8 C 25.8 103.1 25.6 102.5 24.8 102.5 C 24.5 102.5 24 102.7 23.9 103 C 23.7 103.3 23.6 103.7 23.6 103.9 C 23.61 103.92 23.6 108.3 23.6 108.3 L 22.5 108.3 C 22.5 108.3 22.54 103.14 22.5 103.1 C 22.5 102.7 22.5 102.2 22.5 101.8 C 22.48 101.77 23.6 101.8 23.6 101.8 L 23.6 102.6 C 23.6 102.6 23.63 102.59 23.6 102.6 C 23.9 101.9 24.5 101.6 25.3 101.6 C 25.9 101.6 26.6 101.9 26.8 102.5 C 27.2 101.8 27.8 101.6 28.4 101.6 C 29.1 101.6 30.2 101.8 30.2 103.3 C 30.16 103.34 30.2 108.3 30.2 108.3 L 29.1 108.3 C 29.1 108.3 29.09 103.79 29.1 103.8 C 29.1 103.1 28.9 102.5 28.1 102.5 C 27.7 102.5 27.5 102.5 27.2 102.8 C 26.9 103 26.9 103.7 26.9 103.9 C 26.88 103.92 26.9 108.3 26.9 108.3 L 25.8 108.3 Z M 33 106.4 C 33 107 33.3 107.6 34 107.6 C 34.6 107.6 35.4 107.2 35.3 105.1 C 34.3 105.1 33 105 33 106.4 Z M 35.4 107.4 C 35.4 107.4 35.33 107.39 35.3 107.4 C 35 108.1 34.5 108.5 33.7 108.5 C 32.3 108.5 31.9 107.6 31.9 106.3 C 31.9 104.3 33.8 104.2 35.3 104.3 C 35.4 103.4 35.4 102.4 34.2 102.4 C 33.5 102.4 33.1 102.9 33.2 103.6 C 33.2 103.6 32 103.6 32 103.6 C 32.1 102.1 32.9 101.6 34.3 101.6 C 36 101.6 36.4 102.5 36.4 103.6 C 36.4 103.6 36.4 106.8 36.4 106.8 C 36.4 107.3 36.5 107.8 36.5 108.3 C 36.53 108.34 35.4 108.3 35.4 108.3 L 35.4 107.4 Z M 42.4 108.3 L 41.4 108.3 L 41.4 99 L 42.4 99 L 42.4 104.6 L 42.5 104.6 L 44.5 101.8 L 45.8 101.8 L 43.6 104.6 L 46.1 108.3 L 44.8 108.3 L 42.5 104.7 L 42.4 104.7 L 42.4 108.3 Z M 48.1 106.4 C 48.1 107 48.4 107.6 49.1 107.6 C 49.8 107.6 50.6 107.2 50.5 105.1 C 49.5 105.1 48.1 105 48.1 106.4 Z M 50.5 107.4 C 50.5 107.4 50.49 107.39 50.5 107.4 C 50.2 108.1 49.7 108.5 48.8 108.5 C 47.4 108.5 47 107.6 47 106.3 C 47 104.3 49 104.2 50.5 104.3 C 50.5 103.4 50.5 102.4 49.4 102.4 C 48.7 102.4 48.3 102.9 48.4 103.6 C 48.4 103.6 47.2 103.6 47.2 103.6 C 47.3 102.1 48 101.6 49.4 101.6 C 51.1 101.6 51.6 102.5 51.6 103.6 C 51.6 103.6 51.6 106.8 51.6 106.8 C 51.6 107.3 51.6 107.8 51.7 108.3 C 51.69 108.34 50.5 108.3 50.5 108.3 L 50.5 107.4 Z M 54.7 108.3 L 53.6 108.3 L 53.6 99 L 54.7 99 L 54.7 108.3 Z M 57.6 108.3 L 56.5 108.3 L 56.5 99 L 57.6 99 L 57.6 108.3 Z M 60.4 108.3 L 59.4 108.3 L 59.4 101.8 L 60.4 101.8 L 60.4 108.3 Z M 59.3 99 L 60.5 99 L 60.5 100.1 L 59.3 100.1 L 59.3 99 Z M 63.4 108.3 L 62.3 108.3 L 62.3 99 L 63.4 99 L 63.4 104.6 L 63.4 104.6 L 65.4 101.8 L 66.7 101.8 L 64.5 104.6 L 67.1 108.3 L 65.7 108.3 L 63.4 104.7 L 63.4 104.7 L 63.4 108.3 Z M 69.2 102.8 C 69.2 102.8 69.2 102.76 69.2 102.8 C 69.6 101.8 70.2 101.6 71.2 101.6 C 71.2 101.6 71.2 102.7 71.2 102.7 C 71.1 102.7 71 102.7 70.9 102.7 C 70.8 102.7 70.8 102.7 70.7 102.7 C 69.5 102.7 69.2 103.6 69.2 104.5 C 69.17 104.46 69.2 108.3 69.2 108.3 L 68.1 108.3 L 68.1 101.8 L 69.2 101.8 L 69.2 102.8 Z M 76 104.6 C 76 102.7 75.5 102.4 74.7 102.4 C 74 102.4 73.4 102.8 73.4 104.6 C 73.4 104.6 76 104.6 76 104.6 Z M 73.4 105.4 C 73.4 107.2 73.9 107.6 74.8 107.6 C 75.5 107.6 75.9 107 75.9 106.3 C 75.9 106.3 77.1 106.3 77.1 106.3 C 77.1 107.8 76.2 108.5 74.8 108.5 C 73.4 108.5 72.3 108.1 72.3 105.2 C 72.3 103.2 72.5 101.6 74.8 101.6 C 76.7 101.6 77.1 102.7 77.1 104.8 C 77.13 104.84 77.1 105.4 77.1 105.4 C 77.1 105.4 73.43 105.4 73.4 105.4 Z M 79.9 108.3 L 78.9 108.3 L 78.9 101.8 L 79.9 101.8 L 79.9 108.3 Z M 78.8 99 L 80 99 L 80 100.1 L 78.8 100.1 L 78.8 99 Z M 85.3 108.3 C 85.3 108.3 85.34 103.79 85.3 103.8 C 85.3 103.1 85.1 102.5 84.2 102.5 C 83 102.5 82.8 103.6 82.8 104.4 C 82.85 104.45 82.8 108.3 82.8 108.3 L 81.8 108.3 C 81.8 108.3 81.78 103.14 81.8 103.1 C 81.8 102.7 81.8 102.2 81.7 101.8 C 81.72 101.77 82.8 101.8 82.8 101.8 L 82.8 102.6 C 82.8 102.6 82.9 102.62 82.9 102.6 C 83.3 101.9 83.8 101.6 84.7 101.6 C 86.1 101.6 86.4 102.5 86.4 103.8 C 86.41 103.79 86.4 108.3 86.4 108.3 L 85.3 108.3 Z " stroke="none" fill="#003c71"/>  </g>  <g id="Polygon193313">    <path d="M 4.6 89.9 C 4.6 89 4.6 87.5 3.3 87.5 C 2 87.5 2.1 89.3 2.1 90.3 C 2.1 91.2 2.1 92.6 3.3 92.6 C 4.5 92.6 4.6 91.7 4.6 89.9 Z M 2.1 87.6 C 2.1 87.6 2.12 87.55 2.1 87.6 C 2.5 86.9 2.9 86.6 3.6 86.6 C 4.7 86.6 5.7 87.1 5.7 89.9 C 5.7 91.6 5.7 93.5 3.6 93.5 C 3 93.5 2.5 93.2 2.1 92.7 C 2.13 92.68 2.1 92.7 2.1 92.7 L 2.1 95.8 L 1 95.8 L 1 86.8 L 2.1 86.8 L 2.1 87.6 Z M 8.5 87.8 C 8.5 87.8 8.57 87.76 8.6 87.8 C 9 86.8 9.6 86.6 10.6 86.6 C 10.6 86.6 10.6 87.7 10.6 87.7 C 10.5 87.7 10.4 87.7 10.3 87.7 C 10.2 87.7 10.1 87.7 10 87.7 C 8.8 87.7 8.5 88.6 8.5 89.5 C 8.54 89.46 8.5 93.3 8.5 93.3 L 7.5 93.3 L 7.5 86.8 L 8.5 86.8 L 8.5 87.8 Z M 15.4 89.6 C 15.4 87.7 14.8 87.4 14.1 87.4 C 13.4 87.4 12.8 87.8 12.8 89.6 C 12.8 89.6 15.4 89.6 15.4 89.6 Z M 12.8 90.4 C 12.8 92.2 13.3 92.6 14.1 92.6 C 14.9 92.6 15.2 92 15.3 91.3 C 15.3 91.3 16.4 91.3 16.4 91.3 C 16.4 92.8 15.5 93.5 14.2 93.5 C 12.8 93.5 11.7 93.1 11.7 90.2 C 11.7 88.2 11.9 86.6 14.2 86.6 C 16 86.6 16.5 87.7 16.5 89.8 C 16.5 89.84 16.5 90.4 16.5 90.4 C 16.5 90.4 12.8 90.4 12.8 90.4 Z M 19.3 93.3 L 18.3 93.3 L 18.3 84 L 19.3 84 L 19.3 89.6 L 19.4 89.6 L 21.4 86.8 L 22.7 86.8 L 20.5 89.6 L 23 93.3 L 21.7 93.3 L 19.4 89.7 L 19.3 89.7 L 19.3 93.3 Z M 25 91.4 C 25 92 25.3 92.6 26 92.6 C 26.7 92.6 27.5 92.2 27.4 90.1 C 26.4 90.1 25 90 25 91.4 Z M 27.4 92.4 C 27.4 92.4 27.39 92.39 27.4 92.4 C 27.1 93.1 26.6 93.5 25.7 93.5 C 24.3 93.5 23.9 92.6 23.9 91.3 C 23.9 89.3 25.9 89.2 27.4 89.3 C 27.4 88.4 27.4 87.4 26.3 87.4 C 25.6 87.4 25.2 87.9 25.3 88.6 C 25.3 88.6 24.1 88.6 24.1 88.6 C 24.2 87.1 24.9 86.6 26.3 86.6 C 28 86.6 28.5 87.5 28.5 88.6 C 28.5 88.6 28.5 91.8 28.5 91.8 C 28.5 92.3 28.5 92.8 28.6 93.3 C 28.59 93.34 27.4 93.3 27.4 93.3 L 27.4 92.4 Z M 31.6 93.3 L 30.5 93.3 L 30.5 84 L 31.6 84 L 31.6 93.3 Z M 34.5 93.3 L 33.4 93.3 L 33.4 84 L 34.5 84 L 34.5 93.3 Z M 37.3 93.3 L 36.3 93.3 L 36.3 86.8 L 37.3 86.8 L 37.3 93.3 Z M 36.2 84 L 37.4 84 L 37.4 85.1 L 36.2 85.1 L 36.2 84 Z M 40.3 93.3 L 39.2 93.3 L 39.2 84 L 40.3 84 L 40.3 89.6 L 40.3 89.6 L 42.3 86.8 L 43.6 86.8 L 41.4 89.6 L 44 93.3 L 42.6 93.3 L 40.3 89.7 L 40.3 89.7 L 40.3 93.3 Z M 46.1 87.8 C 46.1 87.8 46.1 87.76 46.1 87.8 C 46.5 86.8 47.1 86.6 48.1 86.6 C 48.1 86.6 48.1 87.7 48.1 87.7 C 48 87.7 47.9 87.7 47.8 87.7 C 47.7 87.7 47.7 87.7 47.6 87.7 C 46.4 87.7 46.1 88.6 46.1 89.5 C 46.07 89.46 46.1 93.3 46.1 93.3 L 45 93.3 L 45 86.8 L 46.1 86.8 L 46.1 87.8 Z M 52.9 89.6 C 52.9 87.7 52.4 87.4 51.6 87.4 C 50.9 87.4 50.3 87.8 50.3 89.6 C 50.3 89.6 52.9 89.6 52.9 89.6 Z M 50.3 90.4 C 50.3 92.2 50.8 92.6 51.7 92.6 C 52.4 92.6 52.8 92 52.8 91.3 C 52.8 91.3 54 91.3 54 91.3 C 54 92.8 53.1 93.5 51.7 93.5 C 50.3 93.5 49.2 93.1 49.2 90.2 C 49.2 88.2 49.4 86.6 51.7 86.6 C 53.6 86.6 54 87.7 54 89.8 C 54.03 89.84 54 90.4 54 90.4 C 54 90.4 50.33 90.4 50.3 90.4 Z M 56.8 93.3 L 55.8 93.3 L 55.8 86.8 L 56.8 86.8 L 56.8 93.3 Z M 55.7 84 L 56.9 84 L 56.9 85.1 L 55.7 85.1 L 55.7 84 Z M 62.2 93.3 C 62.2 93.3 62.24 88.79 62.2 88.8 C 62.2 88.1 62 87.5 61.1 87.5 C 59.9 87.5 59.7 88.6 59.7 89.4 C 59.75 89.45 59.7 93.3 59.7 93.3 L 58.7 93.3 C 58.7 93.3 58.68 88.14 58.7 88.1 C 58.7 87.7 58.7 87.2 58.6 86.8 C 58.62 86.77 59.7 86.8 59.7 86.8 L 59.7 87.6 C 59.7 87.6 59.8 87.62 59.8 87.6 C 60.2 86.9 60.7 86.6 61.6 86.6 C 63 86.6 63.3 87.5 63.3 88.8 C 63.31 88.79 63.3 93.3 63.3 93.3 L 62.2 93.3 Z M 68.2 86.8 L 68.2 85.5 L 69.2 85 L 69.2 86.8 L 70.7 86.8 L 70.7 87.6 L 69.2 87.6 C 69.2 87.6 69.25 91.6 69.2 91.6 C 69.2 92 69.2 92.5 70.2 92.5 C 70.3 92.5 70.5 92.5 70.7 92.5 C 70.7 92.5 70.7 93.3 70.7 93.3 C 70.4 93.3 70 93.4 69.7 93.4 C 68.6 93.4 68.2 93 68.2 92.2 C 68.18 92.25 68.2 87.6 68.2 87.6 L 67.1 87.6 L 67.1 86.8 L 68.2 86.8 Z M 75.4 89.7 C 75.4 87.9 74.8 87.5 74 87.5 C 73.2 87.5 72.6 87.9 72.6 89.7 C 72.6 91.8 72.9 92.6 74 92.6 C 75.1 92.6 75.4 91.8 75.4 89.7 Z M 71.5 90.2 C 71.5 88.2 71.7 86.6 74 86.6 C 76.3 86.6 76.5 88.2 76.5 90.2 C 76.5 93.1 75.4 93.5 74 93.5 C 72.6 93.5 71.5 93.1 71.5 90.2 Z " stroke="none" fill="#003c71"/>  </g>  <g id="Polygon193312">    <path d="M 4.4 73.9 C 4.4 72.8 3.9 72.5 3.5 72.5 C 2.6 72.5 2.1 72.9 2.1 74.7 C 2.1 76.8 2.4 77.6 3.5 77.6 C 3.7 77.6 4.4 77.3 4.4 76.2 C 4.4 76.2 5.5 76.2 5.5 76.2 C 5.6 78 4.2 78.5 3.5 78.5 C 2.1 78.5 1 78.1 1 75.2 C 1 73.2 1.2 71.6 3.5 71.6 C 4.8 71.6 5.5 72.4 5.5 73.9 C 5.5 73.9 4.4 73.9 4.4 73.9 Z M 11.1 74.7 C 11.1 72.9 10.6 72.5 9.8 72.5 C 8.9 72.5 8.4 72.9 8.4 74.7 C 8.4 76.8 8.6 77.6 9.8 77.6 C 10.9 77.6 11.1 76.8 11.1 74.7 Z M 7.3 75.2 C 7.3 73.2 7.5 71.6 9.8 71.6 C 12 71.6 12.2 73.2 12.2 75.2 C 12.2 78.1 11.1 78.5 9.8 78.5 C 8.4 78.5 7.3 78.1 7.3 75.2 Z M 17.5 78.3 C 17.5 78.3 17.5 73.79 17.5 73.8 C 17.5 73.1 17.3 72.5 16.3 72.5 C 15.2 72.5 15 73.6 15 74.4 C 15 74.45 15 78.3 15 78.3 L 13.9 78.3 C 13.9 78.3 13.94 73.14 13.9 73.1 C 13.9 72.7 13.9 72.2 13.9 71.8 C 13.87 71.77 15 71.8 15 71.8 L 15 72.6 C 15 72.6 15.05 72.62 15.1 72.6 C 15.5 71.9 16 71.6 16.8 71.6 C 18.2 71.6 18.6 72.5 18.6 73.8 C 18.56 73.79 18.6 78.3 18.6 78.3 L 17.5 78.3 Z M 19.7 71.8 L 20.9 71.8 L 22.3 77.3 L 22.4 77.3 L 24 71.8 L 25.1 71.8 L 23 78.3 L 21.6 78.3 L 19.7 71.8 Z M 29.8 74.6 C 29.8 72.7 29.3 72.4 28.5 72.4 C 27.8 72.4 27.3 72.8 27.2 74.6 C 27.2 74.6 29.8 74.6 29.8 74.6 Z M 27.2 75.4 C 27.2 77.2 27.7 77.6 28.6 77.6 C 29.3 77.6 29.7 77 29.7 76.3 C 29.7 76.3 30.9 76.3 30.9 76.3 C 30.9 77.8 30 78.5 28.6 78.5 C 27.2 78.5 26.1 78.1 26.1 75.2 C 26.1 73.2 26.3 71.6 28.6 71.6 C 30.5 71.6 30.9 72.7 30.9 74.8 C 30.94 74.84 30.9 75.4 30.9 75.4 C 30.9 75.4 27.25 75.4 27.2 75.4 Z M 33.8 72.8 C 33.8 72.8 33.84 72.76 33.8 72.8 C 34.3 71.8 34.8 71.6 35.9 71.6 C 35.9 71.6 35.9 72.7 35.9 72.7 C 35.8 72.7 35.7 72.7 35.6 72.7 C 35.5 72.7 35.4 72.7 35.3 72.7 C 34.1 72.7 33.8 73.6 33.8 74.5 C 33.81 74.46 33.8 78.3 33.8 78.3 L 32.7 78.3 L 32.7 71.8 L 33.8 71.8 L 33.8 72.8 Z M 39 78.5 C 37.6 78.5 36.7 77.8 36.7 76.3 C 36.7 76.3 37.9 76.3 37.9 76.3 C 37.9 76.7 37.9 77.6 39 77.6 C 39.7 77.6 40.1 77.3 40.1 76.6 C 40.1 75.4 36.9 75.4 36.9 73.4 C 36.9 72.7 37.3 71.6 39.1 71.6 C 40.3 71.6 41.3 72.2 41.2 73.5 C 41.2 73.5 40 73.5 40 73.5 C 40 72.8 39.7 72.4 39 72.4 C 38.4 72.4 38 72.8 38 73.3 C 38 74.5 41.3 74.5 41.3 76.5 C 41.3 77.9 40.3 78.5 39 78.5 Z M 43.8 78.3 L 42.8 78.3 L 42.8 71.8 L 43.8 71.8 L 43.8 78.3 Z M 42.7 69 L 43.9 69 L 43.9 70.1 L 42.7 70.1 L 42.7 69 Z M 49.4 74.7 C 49.4 72.9 48.8 72.5 48 72.5 C 47.2 72.5 46.6 72.9 46.6 74.7 C 46.6 76.8 46.9 77.6 48 77.6 C 49.1 77.6 49.4 76.8 49.4 74.7 Z M 45.5 75.2 C 45.5 73.2 45.7 71.6 48 71.6 C 50.3 71.6 50.5 73.2 50.5 75.2 C 50.5 78.1 49.4 78.5 48 78.5 C 46.6 78.5 45.5 78.1 45.5 75.2 Z M 55.8 78.3 C 55.8 78.3 55.76 73.79 55.8 73.8 C 55.8 73.1 55.5 72.5 54.6 72.5 C 53.4 72.5 53.3 73.6 53.3 74.4 C 53.26 74.45 53.3 78.3 53.3 78.3 L 52.2 78.3 C 52.2 78.3 52.2 73.14 52.2 73.1 C 52.2 72.7 52.2 72.2 52.1 71.8 C 52.13 71.77 53.3 71.8 53.3 71.8 L 53.3 72.6 C 53.3 72.6 53.31 72.62 53.3 72.6 C 53.7 71.9 54.2 71.6 55.1 71.6 C 56.5 71.6 56.8 72.5 56.8 73.8 C 56.82 73.79 56.8 78.3 56.8 78.3 L 55.8 78.3 Z M 65.3 74.7 C 65.3 72.9 64.7 72.5 63.9 72.5 C 63.1 72.5 62.5 72.9 62.5 74.7 C 62.5 76.8 62.8 77.6 63.9 77.6 C 65 77.6 65.3 76.8 65.3 74.7 Z M 61.4 75.2 C 61.4 73.2 61.6 71.6 63.9 71.6 C 66.2 71.6 66.4 73.2 66.4 75.2 C 66.4 78.1 65.3 78.5 63.9 78.5 C 62.5 78.5 61.4 78.1 61.4 75.2 Z M 68.3 71.8 C 68.3 71.8 68.28 70.5 68.3 70.5 C 68.3 69.2 69.2 68.9 70.2 68.9 C 70.4 68.9 70.5 68.9 70.7 69 C 70.7 69 70.7 69.7 70.7 69.7 C 69.5 69.6 69.3 70.1 69.3 70.7 C 69.34 70.65 69.3 71.8 69.3 71.8 L 70.7 71.8 L 70.7 72.6 L 69.3 72.6 L 69.3 78.3 L 68.3 78.3 L 68.3 72.6 L 67.3 72.6 L 67.3 71.8 L 68.3 71.8 Z " stroke="none" fill="#003c71"/>  </g>  <g id="Polygon193311">    <path d="M 1.1 63.3 L 1.1 54 L 2.3 54 L 2.3 58 L 5.6 58 L 5.6 54 L 6.8 54 L 6.8 63.3 L 5.6 63.3 L 5.6 59 L 2.3 59 L 2.3 63.3 L 1.1 63.3 Z M 11.1 54 L 12.6 54 L 15.7 63.3 L 14.4 63.3 L 13.7 61.1 L 10 61.1 L 9.3 63.3 L 8.1 63.3 L 11.1 54 Z M 11.8 55.1 L 11.8 55.1 L 10.3 60.1 L 13.4 60.1 L 11.8 55.1 Z M 16.9 63.3 L 16.9 54 L 21.8 54 L 21.8 55 L 18.1 55 L 18.1 58 L 21.5 58 L 21.5 59 L 18.1 59 L 18.1 62.3 L 21.9 62.3 L 21.9 63.3 L 16.9 63.3 Z M 27.2 61.4 C 27.2 62 27.5 62.6 28.2 62.6 C 28.9 62.6 29.7 62.2 29.6 60.1 C 28.5 60.1 27.2 60 27.2 61.4 Z M 29.6 62.4 C 29.6 62.4 29.56 62.39 29.6 62.4 C 29.2 63.1 28.7 63.5 27.9 63.5 C 26.5 63.5 26.1 62.6 26.1 61.3 C 26.1 59.3 28.1 59.2 29.6 59.3 C 29.6 58.4 29.6 57.4 28.5 57.4 C 27.7 57.4 27.4 57.9 27.4 58.6 C 27.4 58.6 26.3 58.6 26.3 58.6 C 26.3 57.1 27.1 56.6 28.5 56.6 C 30.2 56.6 30.6 57.5 30.6 58.6 C 30.6 58.6 30.6 61.8 30.6 61.8 C 30.6 62.3 30.7 62.8 30.8 63.3 C 30.76 63.34 29.6 63.3 29.6 63.3 L 29.6 62.4 Z M 32.8 56.8 L 32.8 55.5 L 33.9 55 L 33.9 56.8 L 35.3 56.8 L 35.3 57.6 L 33.9 57.6 C 33.9 57.6 33.89 61.6 33.9 61.6 C 33.9 62 33.9 62.5 34.9 62.5 C 34.9 62.5 35.1 62.5 35.3 62.5 C 35.3 62.5 35.3 63.3 35.3 63.3 C 35 63.3 34.6 63.4 34.3 63.4 C 33.3 63.4 32.8 63 32.8 62.2 C 32.83 62.25 32.8 57.6 32.8 57.6 L 31.7 57.6 L 31.7 56.8 L 32.8 56.8 Z M 36.4 56.8 L 36.4 55.5 L 37.5 55 L 37.5 56.8 L 38.9 56.8 L 38.9 57.6 L 37.5 57.6 C 37.5 57.6 37.5 61.6 37.5 61.6 C 37.5 62 37.5 62.5 38.5 62.5 C 38.6 62.5 38.7 62.5 39 62.5 C 39 62.5 39 63.3 39 63.3 C 38.6 63.3 38.3 63.4 37.9 63.4 C 36.9 63.4 36.4 63 36.4 62.2 C 36.44 62.25 36.4 57.6 36.4 57.6 L 35.4 57.6 L 35.4 56.8 L 36.4 56.8 Z M 40.9 61.4 C 40.9 62 41.2 62.6 41.9 62.6 C 42.6 62.6 43.4 62.2 43.3 60.1 C 42.3 60.1 40.9 60 40.9 61.4 Z M 43.3 62.4 C 43.3 62.4 43.29 62.39 43.3 62.4 C 43 63.1 42.5 63.5 41.6 63.5 C 40.2 63.5 39.8 62.6 39.8 61.3 C 39.8 59.3 41.8 59.2 43.3 59.3 C 43.3 58.4 43.3 57.4 42.2 57.4 C 41.5 57.4 41.1 57.9 41.2 58.6 C 41.2 58.6 40 58.6 40 58.6 C 40.1 57.1 40.8 56.6 42.2 56.6 C 43.9 56.6 44.4 57.5 44.4 58.6 C 44.4 58.6 44.4 61.8 44.4 61.8 C 44.4 62.3 44.4 62.8 44.5 63.3 C 44.48 63.34 43.3 63.3 43.3 63.3 L 43.3 62.4 Z M 49.9 58.9 C 49.9 57.8 49.4 57.5 49 57.5 C 48.1 57.5 47.6 57.9 47.6 59.7 C 47.6 61.8 47.9 62.6 49 62.6 C 49.2 62.6 49.9 62.3 49.9 61.2 C 49.9 61.2 51 61.2 51 61.2 C 51.1 63 49.7 63.5 49 63.5 C 47.6 63.5 46.5 63.1 46.5 60.2 C 46.5 58.2 46.7 56.6 49 56.6 C 50.3 56.6 51 57.4 51 58.9 C 51 58.9 49.9 58.9 49.9 58.9 Z M 54 63.3 L 52.9 63.3 L 52.9 54 L 54 54 L 54 59.6 L 54 59.6 L 56 56.8 L 57.3 56.8 L 55.1 59.6 L 57.7 63.3 L 56.4 63.3 L 54 59.7 L 54 59.7 L 54 63.3 Z M 62.6 63.3 L 61.6 63.3 L 61.6 56.8 L 62.6 56.8 L 62.6 63.3 Z M 61.5 54 L 62.7 54 L 62.7 55.1 L 61.5 55.1 L 61.5 54 Z M 66.4 63.5 C 65 63.5 64.1 62.8 64.2 61.3 C 64.2 61.3 65.4 61.3 65.4 61.3 C 65.4 61.7 65.4 62.6 66.5 62.6 C 67.1 62.6 67.6 62.3 67.6 61.6 C 67.6 60.4 64.3 60.4 64.3 58.4 C 64.3 57.7 64.7 56.6 66.6 56.6 C 67.7 56.6 68.7 57.2 68.7 58.5 C 68.7 58.5 67.5 58.5 67.5 58.5 C 67.5 57.8 67.1 57.4 66.4 57.4 C 65.9 57.4 65.4 57.8 65.4 58.3 C 65.4 59.5 68.7 59.5 68.7 61.5 C 68.7 62.9 67.7 63.5 66.4 63.5 Z M 73.3 56.8 L 73.3 55.5 L 74.3 55 L 74.3 56.8 L 75.7 56.8 L 75.7 57.6 L 74.3 57.6 C 74.3 57.6 74.32 61.6 74.3 61.6 C 74.3 62 74.3 62.5 75.3 62.5 C 75.4 62.5 75.5 62.5 75.8 62.5 C 75.8 62.5 75.8 63.3 75.8 63.3 C 75.4 63.3 75.1 63.4 74.7 63.4 C 73.7 63.4 73.3 63 73.3 62.2 C 73.25 62.25 73.3 57.6 73.3 57.6 L 72.2 57.6 L 72.2 56.8 L 73.3 56.8 Z M 80.3 63.3 C 80.3 63.3 80.31 58.89 80.3 58.9 C 80.3 58.1 80.1 57.5 79.1 57.5 C 78.1 57.5 77.8 58.4 77.8 59.5 C 77.8 59.48 77.8 63.3 77.8 63.3 L 76.7 63.3 L 76.7 54 L 77.8 54 L 77.8 57.6 C 77.8 57.6 77.85 57.62 77.9 57.6 C 78.3 56.9 78.8 56.6 79.6 56.6 C 80.8 56.6 81.4 57.2 81.4 58.7 C 81.38 58.68 81.4 63.3 81.4 63.3 L 80.3 63.3 Z M 86.9 59.6 C 86.9 57.7 86.3 57.4 85.5 57.4 C 84.9 57.4 84.3 57.8 84.3 59.6 C 84.3 59.6 86.9 59.6 86.9 59.6 Z M 84.3 60.4 C 84.3 62.2 84.8 62.6 85.6 62.6 C 86.3 62.6 86.7 62 86.8 61.3 C 86.8 61.3 87.9 61.3 87.9 61.3 C 87.9 62.8 87 63.5 85.6 63.5 C 84.3 63.5 83.1 63.1 83.1 60.2 C 83.1 58.2 83.4 56.6 85.6 56.6 C 87.5 56.6 88 57.7 88 59.8 C 87.98 59.84 88 60.4 88 60.4 C 88 60.4 84.29 60.4 84.3 60.4 Z " stroke="none" fill="#003c71"/>  </g>  <g id="Polygon193310">    <path d="M 3.2 42.5 C 2 42.5 1.9 43.4 1.9 45.2 C 1.9 46.2 1.9 47.6 3.2 47.6 C 4.4 47.6 4.4 46.1 4.4 44.8 C 4.4 43.9 4.4 42.5 3.2 42.5 Z M 4.4 39 L 5.5 39 L 5.5 48.3 L 4.4 48.3 L 4.4 47.6 C 4.4 47.6 4.38 47.56 4.4 47.6 C 4 48.2 3.6 48.5 2.9 48.5 C 1.8 48.5 0.8 48.1 0.8 45.2 C 0.8 43.5 0.8 41.6 2.9 41.6 C 3.5 41.6 4 41.9 4.4 42.4 C 4.37 42.44 4.4 42.4 4.4 42.4 L 4.4 39 Z M 11 44.6 C 11 42.7 10.5 42.4 9.7 42.4 C 9 42.4 8.5 42.8 8.5 44.6 C 8.5 44.6 11 44.6 11 44.6 Z M 8.5 45.4 C 8.5 47.2 9 47.6 9.8 47.6 C 10.5 47.6 10.9 47 10.9 46.3 C 10.9 46.3 12.1 46.3 12.1 46.3 C 12.1 47.8 11.2 48.5 9.8 48.5 C 8.4 48.5 7.3 48.1 7.3 45.2 C 7.3 43.2 7.6 41.6 9.8 41.6 C 11.7 41.6 12.2 42.7 12.2 44.8 C 12.17 44.84 12.2 45.4 12.2 45.4 C 12.2 45.4 8.48 45.4 8.5 45.4 Z M 13.2 41.8 L 14.4 41.8 L 15.8 47.3 L 15.9 47.3 L 17.5 41.8 L 18.6 41.8 L 16.5 48.3 L 15.1 48.3 L 13.2 41.8 Z M 23.3 44.6 C 23.3 42.7 22.8 42.4 22 42.4 C 21.3 42.4 20.8 42.8 20.7 44.6 C 20.7 44.6 23.3 44.6 23.3 44.6 Z M 20.7 45.4 C 20.7 47.2 21.2 47.6 22.1 47.6 C 22.8 47.6 23.2 47 23.2 46.3 C 23.2 46.3 24.4 46.3 24.4 46.3 C 24.4 47.8 23.5 48.5 22.1 48.5 C 20.7 48.5 19.6 48.1 19.6 45.2 C 19.6 43.2 19.8 41.6 22.1 41.6 C 24 41.6 24.4 42.7 24.4 44.8 C 24.44 44.84 24.4 45.4 24.4 45.4 C 24.4 45.4 20.75 45.4 20.7 45.4 Z M 27.2 48.3 L 26.2 48.3 L 26.2 39 L 27.2 39 L 27.2 48.3 Z M 32.8 44.7 C 32.8 42.9 32.2 42.5 31.4 42.5 C 30.6 42.5 30 42.9 30 44.7 C 30 46.8 30.3 47.6 31.4 47.6 C 32.5 47.6 32.8 46.8 32.8 44.7 Z M 28.9 45.2 C 28.9 43.2 29.1 41.6 31.4 41.6 C 33.7 41.6 33.9 43.2 33.9 45.2 C 33.9 48.1 32.8 48.5 31.4 48.5 C 30 48.5 28.9 48.1 28.9 45.2 Z M 39.3 44.9 C 39.3 44 39.3 42.5 37.9 42.5 C 36.6 42.5 36.7 44.3 36.7 45.3 C 36.7 46.2 36.8 47.6 38 47.6 C 39.1 47.6 39.3 46.7 39.3 44.9 Z M 36.7 42.6 C 36.7 42.6 36.78 42.55 36.8 42.6 C 37.1 41.9 37.6 41.6 38.3 41.6 C 39.3 41.6 40.4 42.1 40.4 44.9 C 40.4 46.6 40.4 48.5 38.2 48.5 C 37.6 48.5 37.2 48.2 36.8 47.7 C 36.79 47.68 36.7 47.7 36.7 47.7 L 36.7 50.8 L 35.7 50.8 L 35.7 41.8 L 36.7 41.8 L 36.7 42.6 Z M 43.1 48.3 L 42.1 48.3 L 42.1 41.8 L 43.1 41.8 L 43.1 48.3 Z M 42 39 L 43.2 39 L 43.2 40.1 L 42 40.1 L 42 39 Z M 48.5 48.3 C 48.5 48.3 48.54 43.79 48.5 43.8 C 48.5 43.1 48.3 42.5 47.4 42.5 C 46.2 42.5 46 43.6 46 44.4 C 46.04 44.45 46 48.3 46 48.3 L 45 48.3 C 45 48.3 44.98 43.14 45 43.1 C 45 42.7 45 42.2 44.9 41.8 C 44.92 41.77 46 41.8 46 41.8 L 46 42.6 C 46 42.6 46.1 42.62 46.1 42.6 C 46.5 41.9 47 41.6 47.9 41.6 C 49.3 41.6 49.6 42.5 49.6 43.8 C 49.61 43.79 49.6 48.3 49.6 48.3 L 48.5 48.3 Z M 53.7 42.5 C 52.5 42.5 52.5 44 52.5 44.9 C 52.5 47 52.9 47.5 53.7 47.5 C 55 47.5 55 45.9 55 45 C 55 44 55 42.5 53.7 42.5 Z M 55 41.8 L 56 41.8 C 56 41.8 56.02 49 56 49 C 56 50.5 55 50.8 53.6 50.8 C 52.5 50.8 51.5 50.3 51.6 49.1 C 51.6 49.1 52.8 49.1 52.8 49.1 C 52.8 49.7 53.2 50 53.8 50 C 54.5 50 55 49.6 55 48.9 C 54.95 48.88 55 47.5 55 47.5 C 55 47.5 54.91 47.52 54.9 47.5 C 54.6 48 54 48.3 53.5 48.3 C 51.7 48.3 51.3 46.8 51.3 44.9 C 51.3 41.8 52.9 41.6 53.4 41.6 C 54.1 41.6 54.6 41.9 54.9 42.6 C 54.93 42.58 55 42.6 55 42.6 L 55 41.8 Z M 61.8 46.4 C 61.8 47 62.2 47.6 62.9 47.6 C 63.5 47.6 64.3 47.2 64.2 45.1 C 63.2 45.1 61.8 45 61.8 46.4 Z M 64.2 47.4 C 64.2 47.4 64.22 47.39 64.2 47.4 C 63.9 48.1 63.4 48.5 62.6 48.5 C 61.2 48.5 60.8 47.6 60.8 46.3 C 60.8 44.3 62.7 44.2 64.2 44.3 C 64.2 43.4 64.3 42.4 63.1 42.4 C 62.4 42.4 62 42.9 62.1 43.6 C 62.1 43.6 60.9 43.6 60.9 43.6 C 61 42.1 61.8 41.6 63.2 41.6 C 64.8 41.6 65.3 42.5 65.3 43.6 C 65.3 43.6 65.3 46.8 65.3 46.8 C 65.3 47.3 65.3 47.8 65.4 48.3 C 65.41 48.34 64.2 48.3 64.2 48.3 L 64.2 47.4 Z M 70.9 48.3 C 70.9 48.3 70.93 43.79 70.9 43.8 C 70.9 43.1 70.7 42.5 69.8 42.5 C 68.6 42.5 68.4 43.6 68.4 44.4 C 68.43 44.45 68.4 48.3 68.4 48.3 L 67.4 48.3 C 67.4 48.3 67.37 43.14 67.4 43.1 C 67.4 42.7 67.3 42.2 67.3 41.8 C 67.3 41.77 68.4 41.8 68.4 41.8 L 68.4 42.6 C 68.4 42.6 68.48 42.62 68.5 42.6 C 68.9 41.9 69.4 41.6 70.2 41.6 C 71.6 41.6 72 42.5 72 43.8 C 71.99 43.79 72 48.3 72 48.3 L 70.9 48.3 Z " stroke="none" fill="#003c71"/>  </g>  <g id="Polygon193309">    <path d="M 6.3 24 L 6.3 25 L 3.8 25 L 3.8 33.3 L 2.7 33.3 L 2.7 25 L 0.2 25 L 0.2 24 L 6.3 24 Z M 11 33.3 C 11 33.3 11 28.89 11 28.9 C 11 28.1 10.7 27.5 9.8 27.5 C 8.8 27.5 8.5 28.4 8.5 29.5 C 8.49 29.48 8.5 33.3 8.5 33.3 L 7.4 33.3 L 7.4 24 L 8.5 24 L 8.5 27.6 C 8.5 27.6 8.54 27.62 8.5 27.6 C 9 26.9 9.5 26.6 10.3 26.6 C 11.4 26.6 12.1 27.2 12.1 28.7 C 12.06 28.68 12.1 33.3 12.1 33.3 L 11 33.3 Z M 17.5 29.6 C 17.5 27.7 17 27.4 16.2 27.4 C 15.5 27.4 15 27.8 15 29.6 C 15 29.6 17.5 29.6 17.5 29.6 Z M 15 30.4 C 15 32.2 15.5 32.6 16.3 32.6 C 17 32.6 17.4 32 17.4 31.3 C 17.4 31.3 18.6 31.3 18.6 31.3 C 18.6 32.8 17.7 33.5 16.3 33.5 C 14.9 33.5 13.8 33.1 13.8 30.2 C 13.8 28.2 14.1 26.6 16.3 26.6 C 18.2 26.6 18.7 27.7 18.7 29.8 C 18.67 29.84 18.7 30.4 18.7 30.4 C 18.7 30.4 14.98 30.4 15 30.4 Z M 27.9 33.3 L 26.8 33.3 L 26.8 26.8 L 27.9 26.8 L 27.9 33.3 Z M 26.8 24 L 27.9 24 L 27.9 25.1 L 26.8 25.1 L 26.8 24 Z M 23.5 26.8 C 23.5 26.8 23.52 25.5 23.5 25.5 C 23.5 24.2 24.5 23.9 25.4 23.9 C 25.6 23.9 25.8 23.9 25.9 24 C 25.9 24 25.9 24.7 25.9 24.7 C 24.8 24.6 24.6 25.1 24.6 25.7 C 24.58 25.65 24.6 26.8 24.6 26.8 L 25.9 26.8 L 25.9 27.6 L 24.6 27.6 L 24.6 33.3 L 23.5 33.3 L 23.5 27.6 L 22.5 27.6 L 22.5 26.8 L 23.5 26.8 Z M 30.9 27.8 C 30.9 27.8 30.95 27.76 31 27.8 C 31.4 26.8 31.9 26.6 33 26.6 C 33 26.6 33 27.7 33 27.7 C 32.9 27.7 32.8 27.7 32.7 27.7 C 32.6 27.7 32.5 27.7 32.4 27.7 C 31.2 27.7 30.9 28.6 30.9 29.5 C 30.93 29.46 30.9 33.3 30.9 33.3 L 29.9 33.3 L 29.9 26.8 L 30.9 26.8 L 30.9 27.8 Z M 36.1 33.5 C 34.7 33.5 33.8 32.8 33.8 31.3 C 33.8 31.3 35 31.3 35 31.3 C 35 31.7 35 32.6 36.1 32.6 C 36.8 32.6 37.3 32.3 37.3 31.6 C 37.3 30.4 34 30.4 34 28.4 C 34 27.7 34.4 26.6 36.2 26.6 C 37.4 26.6 38.4 27.2 38.3 28.5 C 38.3 28.5 37.1 28.5 37.1 28.5 C 37.2 27.8 36.8 27.4 36.1 27.4 C 35.5 27.4 35.1 27.8 35.1 28.3 C 35.1 29.5 38.4 29.5 38.4 31.5 C 38.4 32.9 37.4 33.5 36.1 33.5 Z M 40 26.8 L 40 25.5 L 41.1 25 L 41.1 26.8 L 42.5 26.8 L 42.5 27.6 L 41.1 27.6 C 41.1 27.6 41.1 31.6 41.1 31.6 C 41.1 32 41.1 32.5 42.1 32.5 C 42.2 32.5 42.3 32.5 42.6 32.5 C 42.6 32.5 42.6 33.3 42.6 33.3 C 42.2 33.3 41.9 33.4 41.5 33.4 C 40.5 33.4 40 33 40 32.2 C 40.04 32.25 40 27.6 40 27.6 L 39 27.6 L 39 26.8 L 40 26.8 Z M 48.4 33.5 C 46.9 33.5 46.1 32.8 46.1 31.3 C 46.1 31.3 47.3 31.3 47.3 31.3 C 47.3 31.7 47.3 32.6 48.4 32.6 C 49 32.6 49.5 32.3 49.5 31.6 C 49.5 30.4 46.3 30.4 46.3 28.4 C 46.3 27.7 46.7 26.6 48.5 26.6 C 49.7 26.6 50.7 27.2 50.6 28.5 C 50.6 28.5 49.4 28.5 49.4 28.5 C 49.4 27.8 49.1 27.4 48.4 27.4 C 47.8 27.4 47.4 27.8 47.4 28.3 C 47.4 29.5 50.6 29.5 50.6 31.5 C 50.6 32.9 49.7 33.5 48.4 33.5 Z M 52.3 26.8 L 52.3 25.5 L 53.4 25 L 53.4 26.8 L 54.8 26.8 L 54.8 27.6 L 53.4 27.6 C 53.4 27.6 53.38 31.6 53.4 31.6 C 53.4 32 53.4 32.5 54.4 32.5 C 54.4 32.5 54.6 32.5 54.8 32.5 C 54.8 32.5 54.8 33.3 54.8 33.3 C 54.5 33.3 54.1 33.4 53.8 33.4 C 52.8 33.4 52.3 33 52.3 32.2 C 52.31 32.25 52.3 27.6 52.3 27.6 L 51.2 27.6 L 51.2 26.8 L 52.3 26.8 Z M 59.4 29.6 C 59.4 27.7 58.9 27.4 58.1 27.4 C 57.4 27.4 56.9 27.8 56.8 29.6 C 56.8 29.6 59.4 29.6 59.4 29.6 Z M 56.8 30.4 C 56.8 32.2 57.3 32.6 58.2 32.6 C 58.9 32.6 59.3 32 59.3 31.3 C 59.3 31.3 60.5 31.3 60.5 31.3 C 60.5 32.8 59.6 33.5 58.2 33.5 C 56.8 33.5 55.7 33.1 55.7 30.2 C 55.7 28.2 55.9 26.6 58.2 26.6 C 60.1 26.6 60.5 27.7 60.5 29.8 C 60.54 29.84 60.5 30.4 60.5 30.4 C 60.5 30.4 56.85 30.4 56.8 30.4 Z M 66 29.9 C 66 29 66 27.5 64.7 27.5 C 63.3 27.5 63.5 29.3 63.5 30.3 C 63.5 31.2 63.5 32.6 64.7 32.6 C 65.8 32.6 66 31.7 66 29.9 Z M 63.5 27.6 C 63.5 27.6 63.49 27.55 63.5 27.6 C 63.9 26.9 64.3 26.6 65 26.6 C 66.1 26.6 67.1 27.1 67.1 29.9 C 67.1 31.6 67.1 33.5 64.9 33.5 C 64.3 33.5 63.9 33.2 63.5 32.7 C 63.5 32.68 63.5 32.7 63.5 32.7 L 63.5 35.8 L 62.4 35.8 L 62.4 26.8 L 63.5 26.8 L 63.5 27.6 Z M 75.4 29.7 C 75.4 27.9 74.8 27.5 74 27.5 C 73.2 27.5 72.6 27.9 72.6 29.7 C 72.6 31.8 72.9 32.6 74 32.6 C 75.1 32.6 75.4 31.8 75.4 29.7 Z M 71.5 30.2 C 71.5 28.2 71.7 26.6 74 26.6 C 76.3 26.6 76.5 28.2 76.5 30.2 C 76.5 33.1 75.4 33.5 74 33.5 C 72.6 33.5 71.5 33.1 71.5 30.2 Z M 78.4 26.8 C 78.4 26.8 78.39 25.5 78.4 25.5 C 78.4 24.2 79.3 23.9 80.3 23.9 C 80.5 23.9 80.6 23.9 80.8 24 C 80.8 24 80.8 24.7 80.8 24.7 C 79.6 24.6 79.5 25.1 79.5 25.7 C 79.45 25.65 79.5 26.8 79.5 26.8 L 80.8 26.8 L 80.8 27.6 L 79.5 27.6 L 79.5 33.3 L 78.4 33.3 L 78.4 27.6 L 77.4 27.6 L 77.4 26.8 L 78.4 26.8 Z " stroke="none" fill="#003c71"/>  </g></svg>