<?xml version="1.0" standalone="no"?><!DOCTYPE svg PUBLIC "-//W3C//DTD SVG 1.1//EN" "http://www.w3.org/Graphics/SVG/1.1/DTD/svg11.dtd"><svg xmlns="http://www.w3.org/2000/svg" version="1.1" width="257.1px" height="77.3px" viewBox="0 -1 257.1 77.3" style="top:-1px">  <desc>All HAE patients should be regularly assessed for LTP therapy1</desc>  <defs/>  <g id="Polygon191472">    <path d="M 73.4 52.9 C 72.3 52.9 72 53.3 72 54.3 C 72.03 54.26 72 55.4 72 55.4 L 73.3 55.4 L 73.3 57.1 L 72 57.1 L 72 65.1 L 69.3 65.1 L 69.3 57.1 L 68.1 57.1 L 68.1 55.4 C 68.1 55.4 69.35 55.43 69.4 55.4 C 69.3 52.7 69.1 51.2 72.4 51.2 C 72.7 51.2 73 51.2 73.4 51.2 C 73.4 51.2 73.4 52.9 73.4 52.9 Z M 79.5 60 C 79.5 58 79.4 57 78.2 57 C 77.1 57 77 58 77 60 C 77 62.9 77.2 63.6 78.2 63.6 C 79.2 63.6 79.5 62.9 79.5 60 Z M 74.3 60.1 C 74.3 57.5 74.7 55.2 78.2 55.2 C 81.8 55.2 82.2 57.5 82.2 60.1 C 82.2 63.2 81.7 65.3 78.2 65.3 C 74.8 65.3 74.3 63.2 74.3 60.1 Z M 86.7 55.4 L 86.7 56.7 C 86.7 56.7 86.7 56.68 86.7 56.7 C 87.2 55.6 88.1 55.2 89.2 55.2 C 89.2 55.2 89.2 57.7 89.2 57.7 C 86.8 57.5 86.8 58.9 86.8 59.8 C 86.8 59.84 86.8 65.1 86.8 65.1 L 84.1 65.1 L 84.1 55.4 L 86.7 55.4 Z M 94.9 65.1 L 94.9 51.3 L 97.8 51.3 L 97.8 62.8 L 102.1 62.8 L 102.1 65.1 L 94.9 65.1 Z M 110.5 51.3 L 110.5 53.6 L 107.3 53.6 L 107.3 65.1 L 104.4 65.1 L 104.4 53.6 L 101.2 53.6 L 101.2 51.3 L 110.5 51.3 Z M 114.7 57.3 C 114.7 57.3 116.35 57.35 116.4 57.3 C 117.2 57.3 117.8 56.4 117.8 55.5 C 117.8 54.4 117.5 53.4 116.2 53.4 C 116.2 53.4 114.7 53.4 114.7 53.4 L 114.7 57.3 Z M 111.9 51.3 C 111.9 51.3 117.06 51.27 117.1 51.3 C 119.7 51.3 120.7 52.9 120.7 55.4 C 120.7 57 120.3 59.5 116.9 59.5 C 116.89 59.47 114.7 59.5 114.7 59.5 L 114.7 65.1 L 111.9 65.1 L 111.9 51.3 Z M 125.5 55.4 L 126.6 55.4 L 126.6 53.9 L 129.3 52.7 L 129.3 55.4 L 130.7 55.4 L 130.7 57.1 L 129.3 57.1 C 129.3 57.1 129.3 62.27 129.3 62.3 C 129.3 63 129.3 63.5 130.2 63.5 C 130.3 63.5 130.5 63.5 130.6 63.4 C 130.6 63.4 130.6 65.1 130.6 65.1 C 130.3 65.1 129.9 65.2 129.2 65.2 C 126.9 65.2 126.6 63.6 126.6 63.1 C 126.6 63.05 126.6 57.1 126.6 57.1 L 125.5 57.1 L 125.5 55.4 Z M 136.7 65.1 C 136.7 65.1 136.65 58.44 136.7 58.4 C 136.7 57.6 136.5 56.9 135.6 56.9 C 134.8 56.9 134.6 57.6 134.6 58.4 C 134.62 58.44 134.6 65.1 134.6 65.1 L 131.9 65.1 L 131.9 51.3 L 134.6 51.3 L 134.6 56.4 C 134.6 56.4 134.66 56.41 134.7 56.4 C 134.9 56 135.3 55.7 135.6 55.5 C 136 55.3 136.4 55.2 136.9 55.2 C 138.2 55.2 139.4 56 139.4 57.3 C 139.36 57.35 139.4 65.1 139.4 65.1 L 136.7 65.1 Z M 146.5 59.2 C 146.5 58.2 146.5 56.9 145.2 56.9 C 144 56.9 144 58.4 144 59.2 C 144 59.2 146.5 59.2 146.5 59.2 Z M 144 60.7 C 144 61.8 144 63.6 145.2 63.6 C 146.2 63.6 146.4 62.7 146.4 61.8 C 146.4 61.8 149.1 61.8 149.1 61.8 C 149.1 62.9 148.7 63.8 148.1 64.4 C 147.4 64.9 146.5 65.3 145.2 65.3 C 141.7 65.3 141.3 63.2 141.3 60.1 C 141.3 57.5 141.7 55.2 145.2 55.2 C 148.9 55.2 149.3 57.6 149.2 60.7 C 149.2 60.7 144 60.7 144 60.7 Z M 153.6 55.4 L 153.6 56.7 C 153.6 56.7 153.68 56.68 153.7 56.7 C 154.2 55.6 155.1 55.2 156.2 55.2 C 156.2 55.2 156.2 57.7 156.2 57.7 C 153.8 57.5 153.8 58.9 153.8 59.8 C 153.78 59.84 153.8 65.1 153.8 65.1 L 151.1 65.1 L 151.1 55.4 L 153.6 55.4 Z M 159.8 62.1 C 159.8 62.8 159.9 63.6 160.8 63.6 C 162.4 63.6 162.1 61.5 162.1 60.4 C 160.8 60.5 159.8 60.4 159.8 62.1 Z M 164.8 63.3 C 164.8 63.9 164.9 64.5 164.9 65.1 C 164.93 65.1 162.4 65.1 162.4 65.1 L 162.3 63.8 C 162.3 63.8 162.26 63.82 162.3 63.8 C 161.7 64.8 160.9 65.3 159.7 65.3 C 157.9 65.3 157.2 63.9 157.2 62.2 C 157.2 59 159.6 58.9 162.1 58.9 C 162.1 58.9 162.1 58.2 162.1 58.2 C 162.1 57.3 162 56.8 161.1 56.8 C 160.1 56.8 160 57.5 160 58.2 C 160 58.2 157.4 58.2 157.4 58.2 C 157.4 57.1 157.8 56.3 158.4 55.9 C 159 55.4 159.9 55.2 160.9 55.2 C 164.4 55.2 164.8 56.7 164.8 58.5 C 164.8 58.5 164.8 63.3 164.8 63.3 Z M 172 60.2 C 172 58.2 172 56.9 170.8 56.9 C 169.7 56.9 169.7 58.2 169.7 60.2 C 169.7 62.6 169.9 63.6 170.8 63.6 C 171.8 63.6 172 62.6 172 60.2 Z M 169.6 55.4 L 169.6 56.5 C 169.6 56.5 169.64 56.5 169.6 56.5 C 170.1 55.6 170.9 55.2 171.9 55.2 C 174.7 55.2 174.6 58.3 174.6 60.3 C 174.6 62.3 174.7 65.3 172 65.3 C 171 65.3 170.3 65 169.8 64.2 C 169.77 64.18 169.7 64.2 169.7 64.2 L 169.7 69.3 L 167 69.3 L 167 55.4 L 169.6 55.4 Z M 178.3 65.2 L 175.7 55.4 L 178.4 55.4 L 179.8 62.2 L 179.8 62.2 L 181.3 55.4 L 183.9 55.4 L 180.1 68.8 L 177.3 68.8 L 178.3 65.2 Z M 184.6 52.1 C 185.1 51.8 185.7 51.5 186.1 50.9 C 186.1 50.93 187.6 50.9 187.6 50.9 L 187.6 58.7 L 185.9 58.7 C 185.9 58.7 185.91 52.73 185.9 52.7 C 185.5 53.1 185 53.4 184.6 53.6 C 184.6 53.6 184.6 52.1 184.6 52.1 Z " stroke="none" fill="#003c71"/>  </g>  <g id="Polygon191471">    <path d="M 49.5 37.2 C 49.5 35.3 49.5 33.9 48.3 33.9 C 47.2 33.9 47.2 35.3 47.2 37.2 C 47.2 39.6 47.4 40.6 48.3 40.6 C 49.3 40.6 49.5 39.6 49.5 37.2 Z M 44.5 28.3 L 47.2 28.3 L 47.2 33.4 C 47.2 33.4 47.27 33.37 47.3 33.4 C 47.8 32.5 48.5 32.3 49.5 32.3 C 52.2 32.3 52.1 35.3 52.1 37.2 C 52.1 39.2 52.2 42.3 49.4 42.3 C 48.4 42.3 47.6 42 47.1 41 C 47.14 41.05 47.1 41 47.1 41 L 47.1 42.1 L 44.5 42.1 L 44.5 28.3 Z M 59.1 36.2 C 59.1 35.3 59.1 33.9 57.8 33.9 C 56.6 33.9 56.6 35.4 56.6 36.2 C 56.6 36.2 59.1 36.2 59.1 36.2 Z M 56.6 37.7 C 56.6 38.9 56.6 40.6 57.8 40.6 C 58.8 40.6 59 39.7 59 38.9 C 59 38.9 61.7 38.9 61.7 38.9 C 61.7 39.9 61.3 40.8 60.7 41.4 C 60.1 42 59.1 42.3 57.8 42.3 C 54.3 42.3 53.9 40.2 53.9 37.2 C 53.9 34.5 54.3 32.3 57.8 32.3 C 61.5 32.3 61.9 34.6 61.8 37.7 C 61.8 37.7 56.6 37.7 56.6 37.7 Z M 70.5 32.4 L 70.5 33.7 C 70.5 33.7 70.55 33.69 70.5 33.7 C 71 32.6 72 32.3 73.1 32.3 C 73.1 32.3 73.1 34.7 73.1 34.7 C 70.7 34.5 70.6 35.9 70.6 36.9 C 70.64 36.85 70.6 42.1 70.6 42.1 L 67.9 42.1 L 67.9 32.4 L 70.5 32.4 Z M 79.3 36.2 C 79.3 35.3 79.3 33.9 78 33.9 C 76.8 33.9 76.8 35.4 76.8 36.2 C 76.8 36.2 79.3 36.2 79.3 36.2 Z M 76.8 37.7 C 76.8 38.9 76.8 40.6 78 40.6 C 79 40.6 79.2 39.7 79.2 38.9 C 79.2 38.9 81.9 38.9 81.9 38.9 C 81.9 39.9 81.5 40.8 80.9 41.4 C 80.3 42 79.3 42.3 78 42.3 C 74.5 42.3 74.1 40.2 74.1 37.2 C 74.1 34.5 74.5 32.3 78 32.3 C 81.7 32.3 82.1 34.6 82 37.7 C 82 37.7 76.8 37.7 76.8 37.7 Z M 87.5 40.3 C 88.5 40.3 88.6 39.3 88.6 37.3 C 88.6 35.1 88.5 33.9 87.5 33.9 C 86.5 33.9 86.3 34.6 86.3 37.6 C 86.3 38.5 86.2 40.3 87.5 40.3 Z M 91.3 32.4 C 91.3 32.4 91.29 42.52 91.3 42.5 C 91.3 43.2 91.3 45.8 87.6 45.8 C 85.6 45.8 83.9 45.3 83.8 43 C 83.8 43 86.5 43 86.5 43 C 86.5 43.4 86.5 43.7 86.7 43.9 C 86.9 44.2 87.2 44.3 87.6 44.3 C 88.3 44.3 88.6 43.7 88.6 42.7 C 88.59 42.71 88.6 40.9 88.6 40.9 C 88.6 40.9 88.55 40.85 88.6 40.9 C 88.1 41.6 87.4 42 86.5 42 C 83.5 42 83.7 39.3 83.7 37.1 C 83.7 35 83.7 32.3 86.5 32.3 C 87.5 32.3 88.3 32.7 88.7 33.6 C 88.68 33.58 88.7 33.6 88.7 33.6 L 88.7 32.4 L 91.3 32.4 Z M 98.2 41.1 C 98.2 41.1 98.17 41.14 98.2 41.1 C 97.9 41.6 97.6 41.9 97.2 42 C 96.8 42.2 96.4 42.3 95.9 42.3 C 94.6 42.3 93.5 41.5 93.5 40.2 C 93.47 40.2 93.5 32.4 93.5 32.4 L 96.2 32.4 C 96.2 32.4 96.17 39.15 96.2 39.1 C 96.2 40 96.3 40.6 97.2 40.6 C 98.1 40.6 98.2 40 98.2 39.1 C 98.2 39.15 98.2 32.4 98.2 32.4 L 100.9 32.4 C 100.9 32.4 100.9 40.2 100.9 40.2 C 100.9 40.8 100.9 41.5 101 42.1 C 101 42.12 98.2 42.1 98.2 42.1 L 98.2 41.1 Z M 106 28.3 L 106 42.1 L 103.3 42.1 L 103.3 28.3 L 106 28.3 Z M 110.7 39.1 C 110.7 39.8 110.8 40.6 111.7 40.6 C 113.3 40.6 113.1 38.5 113.1 37.4 C 111.7 37.5 110.7 37.4 110.7 39.1 Z M 115.7 40.3 C 115.7 40.9 115.8 41.5 115.8 42.1 C 115.84 42.12 113.3 42.1 113.3 42.1 L 113.2 40.8 C 113.2 40.8 113.18 40.84 113.2 40.8 C 112.6 41.8 111.8 42.3 110.7 42.3 C 108.8 42.3 108.1 40.9 108.1 39.2 C 108.1 36 110.6 35.9 113.1 35.9 C 113.1 35.9 113.1 35.2 113.1 35.2 C 113.1 34.4 113 33.8 112 33.8 C 111 33.8 111 34.5 111 35.2 C 111 35.2 108.3 35.2 108.3 35.2 C 108.3 34.1 108.7 33.3 109.3 32.9 C 109.9 32.4 110.8 32.3 111.8 32.3 C 115.3 32.3 115.7 33.7 115.7 35.5 C 115.7 35.5 115.7 40.3 115.7 40.3 Z M 120.5 32.4 L 120.5 33.7 C 120.5 33.7 120.56 33.69 120.6 33.7 C 121.1 32.6 122 32.3 123.1 32.3 C 123.1 32.3 123.1 34.7 123.1 34.7 C 120.7 34.5 120.7 35.9 120.7 36.9 C 120.65 36.85 120.7 42.1 120.7 42.1 L 118 42.1 L 118 32.4 L 120.5 32.4 Z M 127.3 28.3 L 127.3 42.1 L 124.6 42.1 L 124.6 28.3 L 127.3 28.3 Z M 131.4 42.2 L 128.8 32.4 L 131.4 32.4 L 132.8 39.2 L 132.9 39.2 L 134.3 32.4 L 136.9 32.4 L 133.2 45.8 L 130.3 45.8 L 131.4 42.2 Z M 144.8 39.1 C 144.8 39.8 144.9 40.6 145.8 40.6 C 147.4 40.6 147.1 38.5 147.1 37.4 C 145.8 37.5 144.8 37.4 144.8 39.1 Z M 149.7 40.3 C 149.7 40.9 149.8 41.5 149.9 42.1 C 149.88 42.12 147.4 42.1 147.4 42.1 L 147.3 40.8 C 147.3 40.8 147.22 40.84 147.2 40.8 C 146.6 41.8 145.9 42.3 144.7 42.3 C 142.8 42.3 142.1 40.9 142.1 39.2 C 142.1 36 144.6 35.9 147.1 35.9 C 147.1 35.9 147.1 35.2 147.1 35.2 C 147.1 34.4 147 33.8 146 33.8 C 145.1 33.8 145 34.5 145 35.2 C 145 35.2 142.4 35.2 142.4 35.2 C 142.4 34.1 142.7 33.3 143.3 32.9 C 144 32.4 144.8 32.3 145.9 32.3 C 149.3 32.3 149.7 33.7 149.7 35.5 C 149.7 35.5 149.7 40.3 149.7 40.3 Z M 154.1 39 C 154.1 39.5 154.1 39.9 154.2 40.2 C 154.4 40.5 154.7 40.6 155.2 40.6 C 155.8 40.6 156.2 40.3 156.2 39.6 C 156.2 37.6 151.5 38.1 151.5 35 C 151.5 32.9 153.5 32.3 155.3 32.3 C 157.1 32.3 158.8 33.1 158.6 35.2 C 158.6 35.2 156 35.2 156 35.2 C 156 34.6 155.9 34.2 155.7 34 C 155.5 33.8 155.3 33.8 155 33.8 C 154.4 33.8 154.1 34.2 154.1 34.8 C 154.1 36.3 158.9 36.3 158.9 39.4 C 158.9 41 157.5 42.3 155.2 42.3 C 152.9 42.3 151.3 41.7 151.5 39 C 151.5 39 154.1 39 154.1 39 Z M 162.6 39 C 162.6 39.5 162.6 39.9 162.8 40.2 C 162.9 40.5 163.2 40.6 163.7 40.6 C 164.3 40.6 164.7 40.3 164.7 39.6 C 164.7 37.6 160 38.1 160 35 C 160 32.9 162 32.3 163.8 32.3 C 165.6 32.3 167.3 33.1 167.1 35.2 C 167.1 35.2 164.5 35.2 164.5 35.2 C 164.5 34.6 164.4 34.2 164.2 34 C 164.1 33.8 163.8 33.8 163.5 33.8 C 162.9 33.8 162.6 34.2 162.6 34.8 C 162.6 36.3 167.4 36.3 167.4 39.4 C 167.4 41 166 42.3 163.7 42.3 C 161.4 42.3 159.8 41.7 160 39 C 160 39 162.6 39 162.6 39 Z M 174 36.2 C 174 35.3 174 33.9 172.7 33.9 C 171.5 33.9 171.5 35.4 171.5 36.2 C 171.5 36.2 174 36.2 174 36.2 Z M 171.5 37.7 C 171.5 38.9 171.5 40.6 172.7 40.6 C 173.7 40.6 173.9 39.7 173.9 38.9 C 173.9 38.9 176.6 38.9 176.6 38.9 C 176.6 39.9 176.2 40.8 175.6 41.4 C 174.9 42 174 42.3 172.7 42.3 C 169.2 42.3 168.8 40.2 168.8 37.2 C 168.8 34.5 169.1 32.3 172.7 32.3 C 176.3 32.3 176.8 34.6 176.7 37.7 C 176.7 37.7 171.5 37.7 171.5 37.7 Z M 180.7 39 C 180.7 39.5 180.7 39.9 180.8 40.2 C 181 40.5 181.3 40.6 181.8 40.6 C 182.3 40.6 182.8 40.3 182.8 39.6 C 182.8 37.6 178.1 38.1 178.1 35 C 178.1 32.9 180.1 32.3 181.9 32.3 C 183.7 32.3 185.4 33.1 185.2 35.2 C 185.2 35.2 182.6 35.2 182.6 35.2 C 182.6 34.6 182.5 34.2 182.3 34 C 182.1 33.8 181.9 33.8 181.6 33.8 C 181 33.8 180.7 34.2 180.7 34.8 C 180.7 36.3 185.4 36.3 185.4 39.4 C 185.4 41 184.1 42.3 181.8 42.3 C 179.5 42.3 177.9 41.7 178.1 39 C 178.1 39 180.7 39 180.7 39 Z M 189.2 39 C 189.2 39.5 189.2 39.9 189.3 40.2 C 189.5 40.5 189.8 40.6 190.3 40.6 C 190.8 40.6 191.3 40.3 191.3 39.6 C 191.3 37.6 186.6 38.1 186.6 35 C 186.6 32.9 188.6 32.3 190.4 32.3 C 192.2 32.3 193.9 33.1 193.7 35.2 C 193.7 35.2 191.1 35.2 191.1 35.2 C 191.1 34.6 191 34.2 190.8 34 C 190.6 33.8 190.4 33.8 190.1 33.8 C 189.5 33.8 189.2 34.2 189.2 34.8 C 189.2 36.3 194 36.3 194 39.4 C 194 41 192.6 42.3 190.3 42.3 C 188 42.3 186.4 41.7 186.6 39 C 186.6 39 189.2 39 189.2 39 Z M 200.5 36.2 C 200.5 35.3 200.6 33.9 199.3 33.9 C 198 33.9 198.1 35.4 198.1 36.2 C 198.1 36.2 200.5 36.2 200.5 36.2 Z M 198.1 37.7 C 198.1 38.9 198.1 40.6 199.3 40.6 C 200.3 40.6 200.4 39.7 200.4 38.9 C 200.4 38.9 203.2 38.9 203.2 38.9 C 203.1 39.9 202.8 40.8 202.1 41.4 C 201.5 42 200.6 42.3 199.3 42.3 C 195.8 42.3 195.3 40.2 195.3 37.2 C 195.3 34.5 195.7 32.3 199.3 32.3 C 202.9 32.3 203.3 34.6 203.2 37.7 C 203.2 37.7 198.1 37.7 198.1 37.7 Z M 209.8 37.2 C 209.8 35.3 209.9 33.9 208.8 33.9 C 207.6 33.9 207.6 35.3 207.6 37.2 C 207.6 39.6 207.8 40.6 208.8 40.6 C 209.7 40.6 209.8 39.6 209.8 37.2 Z M 210 42.1 L 210 41 C 210 41 209.94 41.05 209.9 41 C 209.4 42 208.7 42.3 207.7 42.3 C 204.9 42.3 205 39.2 205 37.2 C 205 35.3 204.9 32.3 207.6 32.3 C 208.6 32.3 209.3 32.5 209.8 33.4 C 209.81 33.37 209.8 33.4 209.8 33.4 L 209.8 28.3 L 212.5 28.3 L 212.5 42.1 L 210 42.1 Z " stroke="none" fill="#003c71"/>  </g>  <g id="Polygon191470">    <path d="M 37.2 19.1 L 41 5.3 L 44.9 5.3 L 48.6 19.1 L 45.6 19.1 L 44.8 16.1 L 40.8 16.1 L 40.1 19.1 L 37.2 19.1 Z M 42.8 8 L 42.7 8 L 41.4 13.9 L 44.2 13.9 L 42.8 8 Z M 52.8 5.3 L 52.8 19.1 L 50.1 19.1 L 50.1 5.3 L 52.8 5.3 Z M 58.1 5.3 L 58.1 19.1 L 55.4 19.1 L 55.4 5.3 L 58.1 5.3 Z M 71.2 10.8 L 71.2 5.3 L 74.1 5.3 L 74.1 19.1 L 71.2 19.1 L 71.2 13 L 67.9 13 L 67.9 19.1 L 65 19.1 L 65 5.3 L 67.9 5.3 L 67.9 10.8 L 71.2 10.8 Z M 75.5 19.1 L 79.3 5.3 L 83.2 5.3 L 86.9 19.1 L 83.9 19.1 L 83.1 16.1 L 79.2 16.1 L 78.4 19.1 L 75.5 19.1 Z M 81.1 8 L 81.1 8 L 79.7 13.9 L 82.5 13.9 L 81.1 8 Z M 88.3 19.1 L 88.3 5.3 L 95.8 5.3 L 95.8 7.4 L 91.2 7.4 L 91.2 10.8 L 95.5 10.8 L 95.5 13 L 91.2 13 L 91.2 17 L 96 17 L 96 19.1 L 88.3 19.1 Z M 106.9 14.2 C 106.9 12.3 106.9 10.9 105.8 10.9 C 104.6 10.9 104.7 12.3 104.7 14.2 C 104.7 16.6 104.8 17.7 105.8 17.7 C 106.7 17.7 106.9 16.6 106.9 14.2 Z M 104.5 9.5 L 104.5 10.5 C 104.5 10.5 104.57 10.53 104.6 10.5 C 105.1 9.6 105.8 9.3 106.9 9.3 C 109.6 9.3 109.6 12.4 109.6 14.4 C 109.6 16.3 109.6 19.3 106.9 19.3 C 105.9 19.3 105.3 19 104.7 18.2 C 104.71 18.22 104.7 18.2 104.7 18.2 L 104.7 23.3 L 102 23.3 L 102 9.5 L 104.5 9.5 Z M 113.9 16.1 C 113.9 16.8 114 17.7 114.9 17.7 C 116.5 17.7 116.2 15.5 116.2 14.5 C 114.9 14.5 113.9 14.4 113.9 16.1 Z M 118.9 17.3 C 118.9 17.9 119 18.5 119 19.1 C 119.01 19.13 116.5 19.1 116.5 19.1 L 116.4 17.9 C 116.4 17.9 116.35 17.85 116.4 17.9 C 115.8 18.8 115 19.3 113.8 19.3 C 111.9 19.3 111.3 17.9 111.3 16.2 C 111.3 13 113.7 12.9 116.2 12.9 C 116.2 12.9 116.2 12.2 116.2 12.2 C 116.2 11.4 116.1 10.8 115.1 10.8 C 114.2 10.8 114.1 11.5 114.1 12.3 C 114.1 12.3 111.5 12.3 111.5 12.3 C 111.5 11.1 111.8 10.3 112.5 9.9 C 113.1 9.4 114 9.3 115 9.3 C 118.4 9.3 118.9 10.7 118.9 12.5 C 118.9 12.5 118.9 17.3 118.9 17.3 Z M 120 9.5 L 121.1 9.5 L 121.1 7.9 L 123.8 6.7 L 123.8 9.5 L 125.2 9.5 L 125.2 11.1 L 123.8 11.1 C 123.8 11.1 123.82 16.3 123.8 16.3 C 123.8 17 123.8 17.5 124.7 17.5 C 124.9 17.5 125 17.5 125.2 17.5 C 125.2 17.5 125.2 19.1 125.2 19.1 C 124.8 19.2 124.4 19.2 123.8 19.2 C 121.4 19.2 121.1 17.7 121.1 17.1 C 121.12 17.09 121.1 11.1 121.1 11.1 L 120 11.1 L 120 9.5 Z M 129.4 19.1 L 126.7 19.1 L 126.7 9.5 L 129.4 9.5 L 129.4 19.1 Z M 129.4 5.3 L 129.4 7.4 L 126.7 7.4 L 126.7 5.3 L 129.4 5.3 Z M 136.7 13.2 C 136.7 12.3 136.8 10.9 135.5 10.9 C 134.2 10.9 134.3 12.4 134.3 13.2 C 134.3 13.2 136.7 13.2 136.7 13.2 Z M 134.3 14.7 C 134.3 15.9 134.3 17.6 135.5 17.6 C 136.4 17.6 136.6 16.7 136.6 15.9 C 136.6 15.9 139.4 15.9 139.4 15.9 C 139.3 16.9 139 17.8 138.3 18.4 C 137.7 19 136.7 19.3 135.5 19.3 C 132 19.3 131.5 17.2 131.5 14.2 C 131.5 11.5 131.9 9.3 135.5 9.3 C 139.1 9.3 139.5 11.6 139.4 14.7 C 139.4 14.7 134.3 14.7 134.3 14.7 Z M 144 10.4 C 144 10.4 144.09 10.44 144.1 10.4 C 144.4 10 144.7 9.7 145 9.5 C 145.4 9.3 145.9 9.3 146.4 9.3 C 147.6 9.3 148.8 10 148.8 11.4 C 148.78 11.38 148.8 19.1 148.8 19.1 L 146.1 19.1 C 146.1 19.1 146.08 12.47 146.1 12.5 C 146.1 11.6 145.9 10.9 145.1 10.9 C 144.2 10.9 144 11.6 144 12.5 C 144.05 12.47 144 19.1 144 19.1 L 141.3 19.1 L 141.3 9.5 L 144 9.5 L 144 10.4 Z M 149.8 9.5 L 150.9 9.5 L 150.9 7.9 L 153.6 6.7 L 153.6 9.5 L 155 9.5 L 155 11.1 L 153.6 11.1 C 153.6 11.1 153.62 16.3 153.6 16.3 C 153.6 17 153.6 17.5 154.5 17.5 C 154.7 17.5 154.8 17.5 155 17.5 C 155 17.5 155 19.1 155 19.1 C 154.6 19.2 154.2 19.2 153.6 19.2 C 151.2 19.2 150.9 17.7 150.9 17.1 C 150.92 17.09 150.9 11.1 150.9 11.1 L 149.8 11.1 L 149.8 9.5 Z M 158.4 16 C 158.4 16.5 158.4 16.9 158.5 17.2 C 158.7 17.5 158.9 17.7 159.5 17.7 C 160 17.7 160.5 17.3 160.5 16.7 C 160.5 14.6 155.7 15.1 155.7 12 C 155.7 9.9 157.8 9.3 159.5 9.3 C 161.4 9.3 163 10.2 162.9 12.2 C 162.9 12.2 160.3 12.2 160.3 12.2 C 160.3 11.6 160.2 11.2 160 11 C 159.8 10.8 159.6 10.8 159.3 10.8 C 158.7 10.8 158.4 11.2 158.4 11.8 C 158.4 13.4 163.1 13.3 163.1 16.4 C 163.1 18.1 161.7 19.3 159.5 19.3 C 157.1 19.3 155.6 18.7 155.7 16 C 155.7 16 158.4 16 158.4 16 Z M 171.1 16 C 171.1 16.5 171.1 16.9 171.3 17.2 C 171.4 17.5 171.7 17.7 172.2 17.7 C 172.8 17.7 173.2 17.3 173.2 16.7 C 173.2 14.6 168.5 15.1 168.5 12 C 168.5 9.9 170.6 9.3 172.3 9.3 C 174.1 9.3 175.8 10.2 175.6 12.2 C 175.6 12.2 173 12.2 173 12.2 C 173 11.6 172.9 11.2 172.7 11 C 172.6 10.8 172.3 10.8 172 10.8 C 171.5 10.8 171.1 11.2 171.1 11.8 C 171.1 13.4 175.9 13.3 175.9 16.4 C 175.9 18.1 174.5 19.3 172.3 19.3 C 169.9 19.3 168.3 18.7 168.5 16 C 168.5 16 171.1 16 171.1 16 Z M 182.2 19.1 C 182.2 19.1 182.24 12.47 182.2 12.5 C 182.2 11.6 182.1 10.9 181.2 10.9 C 180.4 10.9 180.2 11.6 180.2 12.5 C 180.21 12.47 180.2 19.1 180.2 19.1 L 177.5 19.1 L 177.5 5.3 L 180.2 5.3 L 180.2 10.4 C 180.2 10.4 180.25 10.44 180.2 10.4 C 180.5 10 180.8 9.7 181.2 9.5 C 181.6 9.3 182 9.3 182.5 9.3 C 183.8 9.3 184.9 10 184.9 11.4 C 184.94 11.38 184.9 19.1 184.9 19.1 L 182.2 19.1 Z M 192 14 C 192 12 191.9 11 190.8 11 C 189.7 11 189.6 12 189.6 14 C 189.6 17 189.8 17.6 190.8 17.6 C 191.8 17.6 192 17 192 14 Z M 186.9 14.2 C 186.9 11.5 187.2 9.3 190.8 9.3 C 194.4 9.3 194.7 11.5 194.7 14.2 C 194.7 17.2 194.3 19.3 190.8 19.3 C 187.3 19.3 186.9 17.2 186.9 14.2 Z M 201.4 18.2 C 201.4 18.2 201.35 18.16 201.4 18.2 C 201.1 18.6 200.8 18.9 200.4 19.1 C 200 19.2 199.6 19.3 199.1 19.3 C 197.8 19.3 196.7 18.6 196.7 17.2 C 196.66 17.22 196.7 9.5 196.7 9.5 L 199.4 9.5 C 199.4 9.5 199.36 16.17 199.4 16.2 C 199.4 17 199.5 17.7 200.4 17.7 C 201.2 17.7 201.4 17 201.4 16.2 C 201.39 16.17 201.4 9.5 201.4 9.5 L 204.1 9.5 C 204.1 9.5 204.09 17.22 204.1 17.2 C 204.1 17.9 204.1 18.5 204.2 19.1 C 204.19 19.13 201.4 19.1 201.4 19.1 L 201.4 18.2 Z M 209.2 5.3 L 209.2 19.1 L 206.5 19.1 L 206.5 5.3 L 209.2 5.3 Z M 216.3 14.2 C 216.3 12.3 216.3 10.9 215.2 10.9 C 214 10.9 214 12.3 214 14.2 C 214 16.6 214.2 17.7 215.2 17.7 C 216.1 17.7 216.3 16.6 216.3 14.2 Z M 216.4 19.1 L 216.4 18.1 C 216.4 18.1 216.35 18.06 216.4 18.1 C 215.9 19 215.1 19.3 214.1 19.3 C 211.3 19.3 211.4 16.2 211.4 14.2 C 211.4 12.3 211.3 9.3 214 9.3 C 215 9.3 215.7 9.6 216.2 10.4 C 216.22 10.38 216.3 10.4 216.3 10.4 L 216.3 5.3 L 219 5.3 L 219 19.1 L 216.4 19.1 Z " stroke="none" fill="#003c71"/>  </g></svg>