<?xml version="1.0" standalone="no"?><!DOCTYPE svg PUBLIC "-//W3C//DTD SVG 1.1//EN" "http://www.w3.org/Graphics/SVG/1.1/DTD/svg11.dtd"><svg xmlns="http://www.w3.org/2000/svg" version="1.1" width="67px" height="62px" viewBox="0 -11 67 62" style="top:-11px">  <desc>0%</desc>  <defs/>  <g id="Polygon195826">    <path d="M 17 14.9 C 17 23.7 16.4 29.3 8.9 29.3 C 1.4 29.3 0.8 23.7 0.8 14.9 C 0.8 4.2 2 0.7 8.9 0.7 C 15.8 0.7 17 4.2 17 14.9 Z M 6.4 15 C 6.4 23.4 6.6 25.2 8.9 25.2 C 11.1 25.2 11.3 23.4 11.3 15 C 11.3 6.4 11.3 4.8 8.9 4.8 C 6.5 4.8 6.4 6.4 6.4 15 Z M 36.1 21.8 C 36.1 17.6 37 14.2 41.8 14.2 C 46.7 14.2 47.6 17.6 47.6 21.8 C 47.6 26.5 46.3 29 41.8 29 C 37.4 29 36.1 26.5 36.1 21.8 Z M 43.8 21.3 C 43.8 19.9 43.9 17.4 41.8 17.4 C 39.8 17.4 39.9 19.9 39.9 21.3 C 39.9 24.6 40.1 25.8 41.8 25.8 C 43.6 25.8 43.8 24.6 43.8 21.3 Z M 19 8.6 C 19 4.4 20 1 24.8 1 C 29.6 1 30.6 4.4 30.6 8.6 C 30.6 13.3 29.3 15.8 24.8 15.8 C 20.3 15.8 19 13.3 19 8.6 Z M 26.8 8.2 C 26.8 6.8 26.8 4.2 24.8 4.2 C 22.8 4.2 22.8 6.8 22.8 8.2 C 22.8 11.5 23 12.6 24.8 12.6 C 26.6 12.6 26.8 11.5 26.8 8.2 Z M 28.8 29.8 L 25.9 29.8 L 37.6 0.5 L 40.5 0.5 L 28.8 29.8 Z " stroke="none" fill="#003c71"/>  </g></svg>