<?xml version="1.0" standalone="no"?><!DOCTYPE svg PUBLIC "-//W3C//DTD SVG 1.1//EN" "http://www.w3.org/Graphics/SVG/1.1/DTD/svg11.dtd"><svg xmlns="http://www.w3.org/2000/svg" version="1.1" width="156px" height="48.6px" viewBox="0 0 156 48.6">  <desc>Screening/Run in period</desc>  <defs/>  <g id="Polygon199007">    <path d="M 62.1 33.3 C 62.1 31.7 62.2 30.6 61.2 30.6 C 60.3 30.6 60.3 31.7 60.3 33.3 C 60.3 35.3 60.4 36.1 61.2 36.1 C 62 36.1 62.1 35.3 62.1 33.3 Z M 60.2 29.3 L 60.2 30.2 C 60.2 30.2 60.21 30.23 60.2 30.2 C 60.6 29.5 61.2 29.2 62.1 29.2 C 64.4 29.2 64.3 31.7 64.3 33.4 C 64.3 35 64.4 37.5 62.1 37.5 C 61.3 37.5 60.8 37.2 60.3 36.5 C 60.32 36.55 60.3 36.5 60.3 36.5 L 60.3 40.7 L 58.1 40.7 L 58.1 29.3 L 60.2 29.3 Z M 70 32.4 C 70 31.7 70.1 30.6 69 30.6 C 68 30.6 68 31.8 68 32.4 C 68 32.4 70 32.4 70 32.4 Z M 68 33.7 C 68 34.6 68 36 69 36 C 69.8 36 70 35.3 70 34.6 C 70 34.6 72.2 34.6 72.2 34.6 C 72.2 35.5 71.9 36.2 71.4 36.7 C 70.8 37.2 70 37.5 69 37.5 C 66.1 37.5 65.8 35.7 65.8 33.2 C 65.8 31 66.1 29.2 69 29.2 C 72 29.2 72.3 31.1 72.3 33.7 C 72.3 33.7 68 33.7 68 33.7 Z M 75.9 29.3 L 75.9 30.4 C 75.9 30.4 75.97 30.37 76 30.4 C 76.4 29.5 77.1 29.2 78 29.2 C 78 29.2 78 31.2 78 31.2 C 76.1 31 76 32.2 76 33 C 76.05 32.97 76 37.3 76 37.3 L 73.8 37.3 L 73.8 29.3 L 75.9 29.3 Z M 81.5 37.3 L 79.3 37.3 L 79.3 29.3 L 81.5 29.3 L 81.5 37.3 Z M 81.5 25.9 L 81.5 27.7 L 79.3 27.7 L 79.3 25.9 L 81.5 25.9 Z M 87.5 33.1 C 87.5 31.4 87.5 30.6 86.5 30.6 C 85.6 30.6 85.5 31.4 85.5 33.1 C 85.5 35.5 85.7 36 86.5 36 C 87.3 36 87.5 35.5 87.5 33.1 Z M 83.3 33.2 C 83.3 31 83.6 29.2 86.5 29.2 C 89.4 29.2 89.8 31 89.8 33.2 C 89.8 35.7 89.4 37.5 86.5 37.5 C 83.6 37.5 83.3 35.7 83.3 33.2 Z M 95.2 33.3 C 95.2 31.7 95.2 30.6 94.3 30.6 C 93.3 30.6 93.3 31.7 93.3 33.3 C 93.3 35.3 93.5 36.1 94.3 36.1 C 95.1 36.1 95.2 35.3 95.2 33.3 Z M 95.3 37.3 L 95.3 36.4 C 95.3 36.4 95.27 36.42 95.3 36.4 C 94.9 37.2 94.2 37.5 93.4 37.5 C 91.1 37.5 91.2 34.9 91.2 33.3 C 91.2 31.7 91.1 29.2 93.3 29.2 C 94.2 29.2 94.7 29.4 95.2 30.1 C 95.16 30.1 95.2 30.1 95.2 30.1 L 95.2 25.9 L 97.4 25.9 L 97.4 37.3 L 95.3 37.3 Z " stroke="none" fill="#003c71"/>  </g>  <g id="Polygon199006">    <path d="M 25.8 18.6 C 22.9 18.6 22.3 16.8 22.4 14.9 C 22.4 14.9 24.8 14.9 24.8 14.9 C 24.8 16 24.9 16.9 26.2 16.9 C 27 16.9 27.4 16.4 27.4 15.6 C 27.4 13.5 22.6 13.4 22.6 10 C 22.6 8.2 23.4 6.8 26.3 6.8 C 28.6 6.8 29.8 7.9 29.6 10.2 C 29.6 10.2 27.3 10.2 27.3 10.2 C 27.3 9.4 27.2 8.5 26.2 8.5 C 25.4 8.5 25 9 25 9.7 C 25 11.9 29.8 11.7 29.8 15.3 C 29.8 18.2 27.6 18.6 25.8 18.6 Z M 35.4 13.3 C 35.4 12.1 35.1 11.7 34.4 11.7 C 33.5 11.7 33.4 12.5 33.4 14.2 C 33.4 16.6 33.6 17.1 34.4 17.1 C 35.1 17.1 35.5 16.5 35.5 15.5 C 35.5 15.5 37.7 15.5 37.7 15.5 C 37.7 17.6 36.5 18.5 34.4 18.5 C 31.6 18.5 31.2 16.8 31.2 14.3 C 31.2 12.1 31.5 10.3 34.4 10.3 C 36.5 10.3 37.6 11.2 37.6 13.3 C 37.6 13.3 35.4 13.3 35.4 13.3 Z M 41.4 10.4 L 41.4 11.5 C 41.4 11.5 41.39 11.46 41.4 11.5 C 41.8 10.5 42.6 10.3 43.5 10.3 C 43.5 10.3 43.5 12.3 43.5 12.3 C 41.5 12.1 41.5 13.3 41.5 14.1 C 41.47 14.06 41.5 18.4 41.5 18.4 L 39.2 18.4 L 39.2 10.4 L 41.4 10.4 Z M 48.6 13.5 C 48.6 12.8 48.6 11.6 47.6 11.6 C 46.5 11.6 46.5 12.8 46.5 13.5 C 46.5 13.5 48.6 13.5 48.6 13.5 Z M 46.5 14.8 C 46.5 15.7 46.6 17.1 47.6 17.1 C 48.3 17.1 48.5 16.4 48.5 15.7 C 48.5 15.7 50.7 15.7 50.7 15.7 C 50.7 16.6 50.4 17.3 49.9 17.8 C 49.4 18.3 48.6 18.5 47.6 18.5 C 44.7 18.5 44.3 16.8 44.3 14.3 C 44.3 12.1 44.6 10.3 47.6 10.3 C 50.5 10.3 50.9 12.2 50.8 14.8 C 50.8 14.8 46.5 14.8 46.5 14.8 Z M 56.5 13.5 C 56.5 12.8 56.5 11.6 55.4 11.6 C 54.4 11.6 54.4 12.8 54.4 13.5 C 54.4 13.5 56.5 13.5 56.5 13.5 Z M 54.4 14.8 C 54.4 15.7 54.5 17.1 55.4 17.1 C 56.2 17.1 56.4 16.4 56.4 15.7 C 56.4 15.7 58.6 15.7 58.6 15.7 C 58.6 16.6 58.3 17.3 57.8 17.8 C 57.3 18.3 56.5 18.5 55.4 18.5 C 52.6 18.5 52.2 16.8 52.2 14.3 C 52.2 12.1 52.5 10.3 55.4 10.3 C 58.4 10.3 58.8 12.2 58.7 14.8 C 58.7 14.8 54.4 14.8 54.4 14.8 Z M 62.5 11.2 C 62.5 11.2 62.5 11.24 62.5 11.2 C 62.7 10.9 63 10.6 63.3 10.5 C 63.6 10.3 64 10.3 64.4 10.3 C 65.4 10.3 66.4 10.9 66.4 12 C 66.36 12.01 66.4 18.4 66.4 18.4 L 64.1 18.4 C 64.1 18.4 64.14 12.91 64.1 12.9 C 64.1 12.2 64 11.6 63.3 11.6 C 62.6 11.6 62.5 12.2 62.5 12.9 C 62.47 12.91 62.5 18.4 62.5 18.4 L 60.3 18.4 L 60.3 10.4 L 62.5 10.4 L 62.5 11.2 Z M 70.5 18.4 L 68.3 18.4 L 68.3 10.4 L 70.5 10.4 L 70.5 18.4 Z M 70.5 7 L 70.5 8.8 L 68.3 8.8 L 68.3 7 L 70.5 7 Z M 74.7 11.2 C 74.7 11.2 74.76 11.24 74.8 11.2 C 75 10.9 75.3 10.6 75.6 10.5 C 75.9 10.3 76.2 10.3 76.6 10.3 C 77.7 10.3 78.6 10.9 78.6 12 C 78.62 12.01 78.6 18.4 78.6 18.4 L 76.4 18.4 C 76.4 18.4 76.4 12.91 76.4 12.9 C 76.4 12.2 76.3 11.6 75.6 11.6 C 74.9 11.6 74.7 12.2 74.7 12.9 C 74.73 12.91 74.7 18.4 74.7 18.4 L 72.5 18.4 L 72.5 10.4 L 74.7 10.4 L 74.7 11.2 Z M 83.3 16.9 C 84.1 16.9 84.3 16.1 84.3 14.4 C 84.3 12.6 84.2 11.6 83.4 11.6 C 82.5 11.6 82.4 12.2 82.4 14.7 C 82.4 15.4 82.3 16.9 83.3 16.9 Z M 86.5 10.4 C 86.5 10.4 86.47 18.72 86.5 18.7 C 86.5 19.3 86.5 21.4 83.4 21.4 C 81.8 21.4 80.4 21 80.3 19.1 C 80.3 19.1 82.5 19.1 82.5 19.1 C 82.5 19.4 82.5 19.7 82.7 19.9 C 82.8 20.1 83.1 20.2 83.4 20.2 C 84 20.2 84.3 19.7 84.3 18.9 C 84.25 18.88 84.3 17.4 84.3 17.4 C 84.3 17.4 84.22 17.35 84.2 17.4 C 83.9 18 83.3 18.3 82.5 18.3 C 80.1 18.3 80.2 16 80.2 14.2 C 80.2 12.5 80.2 10.3 82.5 10.3 C 83.3 10.3 84 10.6 84.3 11.4 C 84.33 11.36 84.4 11.4 84.4 11.4 L 84.4 10.4 L 86.5 10.4 Z M 86.9 19.9 L 90.6 7 L 92.3 7 L 88.5 19.9 L 86.9 19.9 Z M 95.1 11.9 C 95.1 11.9 96.15 11.93 96.1 11.9 C 97.1 11.9 97.4 11 97.4 10.3 C 97.4 9.2 96.9 8.8 96.1 8.8 C 96.15 8.76 95.1 8.8 95.1 8.8 L 95.1 11.9 Z M 95.1 18.4 L 92.7 18.4 L 92.7 7 C 92.7 7 97.11 7.02 97.1 7 C 98.7 7 99.8 8.1 99.8 10 C 99.8 11.4 99.2 12.5 97.7 12.8 C 97.7 12.8 97.7 12.8 97.7 12.8 C 98.2 12.9 99.7 13 99.7 15.1 C 99.7 15.8 99.8 17.9 100 18.4 C 100 18.4 97.7 18.4 97.7 18.4 C 97.3 17.7 97.4 16.9 97.4 16.2 C 97.4 14.8 97.5 13.7 95.7 13.7 C 95.71 13.68 95.1 13.7 95.1 13.7 L 95.1 18.4 Z M 105.3 17.6 C 105.3 17.6 105.27 17.59 105.3 17.6 C 105.1 17.9 104.8 18.2 104.5 18.3 C 104.2 18.5 103.8 18.5 103.4 18.5 C 102.3 18.5 101.4 17.9 101.4 16.8 C 101.41 16.82 101.4 10.4 101.4 10.4 L 103.6 10.4 C 103.6 10.4 103.63 15.95 103.6 16 C 103.6 16.7 103.8 17.2 104.5 17.2 C 105.2 17.2 105.3 16.7 105.3 16 C 105.3 15.95 105.3 10.4 105.3 10.4 L 107.5 10.4 C 107.5 10.4 107.52 16.82 107.5 16.8 C 107.5 17.3 107.6 17.9 107.6 18.4 C 107.6 18.39 105.3 18.4 105.3 18.4 L 105.3 17.6 Z M 111.5 11.2 C 111.5 11.2 111.54 11.24 111.5 11.2 C 111.8 10.9 112 10.6 112.3 10.5 C 112.6 10.3 113 10.3 113.4 10.3 C 114.5 10.3 115.4 10.9 115.4 12 C 115.4 12.01 115.4 18.4 115.4 18.4 L 113.2 18.4 C 113.2 18.4 113.18 12.91 113.2 12.9 C 113.2 12.2 113.1 11.6 112.3 11.6 C 111.6 11.6 111.5 12.2 111.5 12.9 C 111.51 12.91 111.5 18.4 111.5 18.4 L 109.3 18.4 L 109.3 10.4 L 111.5 10.4 L 111.5 11.2 Z M 120.8 13.3 L 120.8 14.9 L 117 14.9 L 117 13.3 L 120.8 13.3 Z M 124.8 18.4 L 122.6 18.4 L 122.6 10.4 L 124.8 10.4 L 124.8 18.4 Z M 124.8 7 L 124.8 8.8 L 122.6 8.8 L 122.6 7 L 124.8 7 Z M 129 11.2 C 129 11.2 129.05 11.24 129 11.2 C 129.3 10.9 129.5 10.6 129.8 10.5 C 130.2 10.3 130.5 10.3 130.9 10.3 C 132 10.3 132.9 10.9 132.9 12 C 132.91 12.01 132.9 18.4 132.9 18.4 L 130.7 18.4 C 130.7 18.4 130.69 12.91 130.7 12.9 C 130.7 12.2 130.6 11.6 129.9 11.6 C 129.1 11.6 129 12.2 129 12.9 C 129.02 12.91 129 18.4 129 18.4 L 126.8 18.4 L 126.8 10.4 L 129 10.4 L 129 11.2 Z " stroke="none" fill="#003c71"/>  </g></svg>