<?xml version="1.0" standalone="no"?><!DOCTYPE svg PUBLIC "-//W3C//DTD SVG 1.1//EN" "http://www.w3.org/Graphics/SVG/1.1/DTD/svg11.dtd"><svg xmlns="http://www.w3.org/2000/svg" version="1.1" width="600px" height="101px" viewBox="0 -5 600 101" style="top:-5px">  <desc>Mean AE QoL total score from month 1 61,4†</desc>  <defs/>  <g id="Polygon197706">    <path d="M 1.1 13 L 1.1 0 L 5.5 0 L 7.5 8.9 L 7.5 8.9 L 9.7 0 L 13.9 0 L 13.9 13 L 11.3 13 L 11.3 3 L 11.2 3 L 8.7 13 L 6.1 13 L 3.8 3 L 3.7 3 L 3.7 13 L 1.1 13 Z M 16.1 13 L 16.1 0 L 23.2 0 L 23.2 2 L 18.8 2 L 18.8 5.2 L 22.9 5.2 L 22.9 7.2 L 18.8 7.2 L 18.8 11 L 23.4 11 L 23.4 13 L 16.1 13 Z M 24.1 13 L 27.7 0 L 31.3 0 L 34.8 13 L 32 13 L 31.3 10.2 L 27.6 10.2 L 26.8 13 L 24.1 13 Z M 29.4 2.5 L 29.3 2.5 L 28.1 8.2 L 30.7 8.2 L 29.4 2.5 Z M 36.1 13 L 36.1 0 L 39.8 0 L 43.3 9 L 43.3 9 L 43.3 0 L 45.8 0 L 45.8 13 L 42.3 13 L 38.7 3.5 L 38.7 3.5 L 38.7 13 L 36.1 13 Z M 51.1 13 L 54.7 0 L 58.3 0 L 61.8 13 L 59 13 L 58.3 10.2 L 54.6 10.2 L 53.8 13 L 51.1 13 Z M 56.4 2.5 L 56.3 2.5 L 55.1 8.2 L 57.7 8.2 L 56.4 2.5 Z M 63.1 13 L 63.1 0 L 70.2 0 L 70.2 2 L 65.8 2 L 65.8 5.2 L 69.9 5.2 L 69.9 7.2 L 65.8 7.2 L 65.8 11 L 70.4 11 L 70.4 13 L 63.1 13 Z M 76.2 7.3 L 76.2 9.1 L 71.8 9.1 L 71.8 7.3 L 76.2 7.3 Z M 87.9 13 C 87.9 13 84.08 13.03 84.1 13 C 83.8 13 83.6 13.1 83.3 13.1 C 83 13.1 82.8 13.2 82.5 13.2 C 78.5 13.2 78 11.1 78 6.5 C 78 3.1 78 -0.2 82.5 -0.2 C 87 -0.2 87 3.1 87 6.5 C 87 9.3 86.5 10.5 85.4 11.4 C 85.4 11.4 85.4 11.5 85.4 11.5 C 85.8 11.4 86.5 11 86.8 11 C 86.78 11.03 87.9 11 87.9 11 L 87.9 13 Z M 84.2 6.5 C 84.2 3.2 84 1.8 82.5 1.8 C 80.9 1.8 80.7 3.2 80.7 6.5 C 80.7 9.8 80.9 11.2 82.5 11.2 C 84 11.2 84.2 9.8 84.2 6.5 Z M 95.2 6.5 C 95.2 3.2 95 1.8 93.5 1.8 C 91.9 1.8 91.7 3.2 91.7 6.5 C 91.7 9.9 91.9 11.3 93.5 11.3 C 95 11.3 95.2 9.9 95.2 6.5 Z M 89 6.5 C 89 3.1 89 -0.2 93.5 -0.2 C 98 -0.2 98 3.1 98 6.5 C 98 9.9 98 13.2 93.5 13.2 C 89 13.2 89 9.9 89 6.5 Z M 100.1 13 L 100.1 0 L 102.9 0 L 102.9 10.9 L 106.9 10.9 L 106.9 13 L 100.1 13 Z M 119.8 0 L 119.8 2.2 L 116.8 2.2 L 116.8 13 L 114.1 13 L 114.1 2.2 L 111.1 2.2 L 111.1 0 L 119.8 0 Z M 127.2 6.5 C 127.2 3.2 127 1.8 125.5 1.8 C 123.9 1.8 123.7 3.2 123.7 6.5 C 123.7 9.9 123.9 11.3 125.5 11.3 C 127 11.3 127.2 9.9 127.2 6.5 Z M 121 6.5 C 121 3.1 121 -0.2 125.5 -0.2 C 129.9 -0.2 129.9 3.1 129.9 6.5 C 129.9 9.9 129.9 13.2 125.5 13.2 C 121 13.2 121 9.9 121 6.5 Z M 139.8 0 L 139.8 2.2 L 136.8 2.2 L 136.8 13 L 134.1 13 L 134.1 2.2 L 131.1 2.2 L 131.1 0 L 139.8 0 Z M 139 13 L 142.6 0 L 146.2 0 L 149.7 13 L 146.9 13 L 146.2 10.2 L 142.5 10.2 L 141.7 13 L 139 13 Z M 144.3 2.5 L 144.2 2.5 L 143 8.2 L 145.6 8.2 L 144.3 2.5 Z M 151 13 L 151 0 L 153.8 0 L 153.8 10.9 L 157.8 10.9 L 157.8 13 L 151 13 Z M 166.5 13.2 C 163.2 13.2 162.5 11.3 162.7 9 C 162.7 9 165.4 9 165.4 9 C 165.4 10.3 165.5 11.3 166.9 11.3 C 167.9 11.3 168.3 10.7 168.3 9.8 C 168.3 7.5 162.8 7.3 162.8 3.5 C 162.8 1.4 163.8 -0.2 167.1 -0.2 C 169.8 -0.2 171.1 1 170.9 3.7 C 170.9 3.7 168.3 3.7 168.3 3.7 C 168.3 2.8 168.1 1.8 167 1.8 C 166.1 1.8 165.6 2.2 165.6 3.1 C 165.6 5.6 171.1 5.4 171.1 9.5 C 171.1 12.9 168.6 13.2 166.5 13.2 Z M 172.9 6.5 C 172.9 3.1 172.9 -0.2 177.4 -0.2 C 180.1 -0.2 181.3 1.3 181.1 4.1 C 181.1 4.1 178.5 4.1 178.5 4.1 C 178.5 2.4 178.2 1.8 177.4 1.8 C 175.8 1.8 175.6 3.2 175.6 6.5 C 175.6 9.9 175.8 11.3 177.4 11.3 C 178.6 11.3 178.6 9.7 178.6 8.7 C 178.6 8.7 181.3 8.7 181.3 8.7 C 181.3 12.1 179.9 13.2 177.4 13.2 C 172.9 13.2 172.9 9.9 172.9 6.5 Z M 189.1 6.5 C 189.1 3.2 188.9 1.8 187.4 1.8 C 185.8 1.8 185.6 3.2 185.6 6.5 C 185.6 9.9 185.8 11.3 187.4 11.3 C 188.9 11.3 189.1 9.9 189.1 6.5 Z M 182.9 6.5 C 182.9 3.1 182.9 -0.2 187.4 -0.2 C 191.9 -0.2 191.9 3.1 191.9 6.5 C 191.9 9.9 191.9 13.2 187.4 13.2 C 182.9 13.2 182.9 9.9 182.9 6.5 Z M 196.7 5.7 C 196.7 5.7 197.89 5.65 197.9 5.7 C 199 5.7 199.3 4.6 199.3 3.7 C 199.3 2.5 198.8 2 197.9 2 C 197.89 2.03 196.7 2 196.7 2 L 196.7 5.7 Z M 196.7 13 L 194 13 L 194 0 C 194 0 198.99 0.04 199 0 C 200.8 0 202 1.2 202 3.4 C 202 5.1 201.4 6.3 199.6 6.6 C 199.6 6.6 199.6 6.7 199.6 6.7 C 200.2 6.7 202 6.9 202 9.2 C 202 10 202 12.5 202.3 13 C 202.3 13 199.6 13 199.6 13 C 199.3 12.2 199.3 11.4 199.3 10.5 C 199.3 9 199.5 7.6 197.4 7.6 C 197.39 7.65 196.7 7.6 196.7 7.6 L 196.7 13 Z M 204 13 L 204 0 L 211.1 0 L 211.1 2 L 206.7 2 L 206.7 5.2 L 210.8 5.2 L 210.8 7.2 L 206.7 7.2 L 206.7 11 L 211.3 11 L 211.3 13 L 204 13 Z M 217 13 L 217 0 L 223.7 0 L 223.7 2 L 219.7 2 L 219.7 5.4 L 223.5 5.4 L 223.5 7.4 L 219.7 7.4 L 219.7 13 L 217 13 Z M 227.7 5.7 C 227.7 5.7 228.88 5.65 228.9 5.7 C 230 5.7 230.3 4.6 230.3 3.7 C 230.3 2.5 229.7 2 228.9 2 C 228.88 2.03 227.7 2 227.7 2 L 227.7 5.7 Z M 227.7 13 L 225 13 L 225 0 C 225 0 229.98 0.04 230 0 C 231.8 0 233 1.2 233 3.4 C 233 5.1 232.4 6.3 230.6 6.6 C 230.6 6.6 230.6 6.7 230.6 6.7 C 231.2 6.7 233 6.9 233 9.2 C 233 10 233 12.5 233.3 13 C 233.3 13 230.6 13 230.6 13 C 230.3 12.2 230.3 11.4 230.3 10.5 C 230.3 9 230.5 7.6 228.4 7.6 C 228.38 7.65 227.7 7.6 227.7 7.6 L 227.7 13 Z M 241.1 6.5 C 241.1 3.2 240.9 1.8 239.4 1.8 C 237.8 1.8 237.7 3.2 237.7 6.5 C 237.7 9.9 237.8 11.3 239.4 11.3 C 240.9 11.3 241.1 9.9 241.1 6.5 Z M 234.9 6.5 C 234.9 3.1 234.9 -0.2 239.4 -0.2 C 243.9 -0.2 243.9 3.1 243.9 6.5 C 243.9 9.9 243.9 13.2 239.4 13.2 C 234.9 13.2 234.9 9.9 234.9 6.5 Z M 246 13 L 246 0 L 250.3 0 L 252.4 8.9 L 252.4 8.9 L 254.6 0 L 258.8 0 L 258.8 13 L 256.2 13 L 256.2 3 L 256.1 3 L 253.6 13 L 251 13 L 248.6 3 L 248.6 3 L 248.6 13 L 246 13 Z M 265 13 L 265 0 L 269.3 0 L 271.4 8.9 L 271.4 8.9 L 273.6 0 L 277.8 0 L 277.8 13 L 275.1 13 L 275.1 3 L 275.1 3 L 272.6 13 L 270 13 L 267.6 3 L 267.6 3 L 267.6 13 L 265 13 Z M 286.1 6.5 C 286.1 3.2 285.9 1.8 284.4 1.8 C 282.8 1.8 282.6 3.2 282.6 6.5 C 282.6 9.9 282.8 11.3 284.4 11.3 C 285.9 11.3 286.1 9.9 286.1 6.5 Z M 279.9 6.5 C 279.9 3.1 279.9 -0.2 284.4 -0.2 C 288.8 -0.2 288.8 3.1 288.8 6.5 C 288.8 9.9 288.8 13.2 284.4 13.2 C 279.9 13.2 279.9 9.9 279.9 6.5 Z M 291 13 L 291 0 L 294.7 0 L 298.1 9 L 298.2 9 L 298.2 0 L 300.7 0 L 300.7 13 L 297.1 13 L 293.6 3.5 L 293.6 3.5 L 293.6 13 L 291 13 Z M 310.7 0 L 310.7 2.2 L 307.7 2.2 L 307.7 13 L 305 13 L 305 2.2 L 302 2.2 L 302 0 L 310.7 0 Z M 317.9 5.2 L 317.9 0 L 320.6 0 L 320.6 13 L 317.9 13 L 317.9 7.2 L 314.8 7.2 L 314.8 13 L 312.1 13 L 312.1 0 L 314.8 0 L 314.8 5.2 L 317.9 5.2 Z M 326.7 2.4 C 327.6 1.9 328.5 1.3 329.2 0.5 C 329.18 0.47 331.6 0.5 331.6 0.5 L 331.6 13 L 328.9 13 C 328.9 13 328.87 3.37 328.9 3.4 C 328.2 3.9 327.5 4.4 326.7 4.8 C 326.7 4.8 326.7 2.4 326.7 2.4 Z M 339.1 7.3 L 339.1 9.1 L 334.7 9.1 L 334.7 7.3 L 339.1 7.3 Z M 347.1 8.9 C 347.1 7.3 346.9 6.6 346 6.6 C 345 6.6 344.9 7.6 344.9 9.1 C 344.9 9.9 344.9 11.4 346 11.4 C 346.8 11.4 347.1 10.9 347.1 8.9 Z M 346.9 3.2 C 346.9 2.9 346.9 2.6 346.7 2.4 C 346.6 2.2 346.4 2 346 2 C 344.9 2 344.9 2.6 344.9 5.8 C 345.6 5.2 346 4.9 346.9 4.9 C 349.2 4.9 349.7 7 349.7 8.9 C 349.7 11.5 348.7 13.2 345.9 13.2 C 342.6 13.2 342.4 10.4 342.4 7.8 C 342.4 2.8 342.7 0.3 346.2 0.3 C 348.2 0.3 349.6 1.1 349.6 3.2 C 349.6 3.2 346.9 3.2 346.9 3.2 Z M 352.4 0.8 C 352.9 0.6 353.4 0.2 353.8 -0.3 C 353.77 -0.29 355.2 -0.3 355.2 -0.3 L 355.2 7 L 353.6 7 C 353.6 7 353.59 1.4 353.6 1.4 C 353.2 1.7 352.8 2 352.4 2.2 C 352.4 2.2 352.4 0.8 352.4 0.8 Z M 357.2 5.7 L 358.6 5.7 L 357.8 8.1 L 356.8 8.1 L 357.2 5.7 Z M 359.1 3.9 C 360.8 -0.3 360.8 -0.3 360.8 -0.3 C 360.83 -0.29 362.8 -0.3 362.8 -0.3 L 362.8 4.2 L 363.4 4.2 L 363.4 5.4 L 362.8 5.4 L 362.8 7 L 361.3 7 L 361.3 5.4 L 359.1 5.4 C 359.1 5.4 359.06 3.89 359.1 3.9 Z M 361.5 4.2 L 361.5 0.7 L 361.5 0.7 L 360.2 4.2 L 361.5 4.2 Z M 365.2 1.1 L 365.2 -0.5 L 366.4 -0.5 L 366.4 1.1 L 368.1 1.1 L 368.1 2.1 L 366.4 2.1 L 366.4 7 L 365.2 7 L 365.2 2.1 L 363.5 2.1 L 363.5 1.1 L 365.2 1.1 Z " stroke="none" fill="#00b398"/>  </g></svg>