<?xml version="1.0" standalone="no"?><!DOCTYPE svg PUBLIC "-//W3C//DTD SVG 1.1//EN" "http://www.w3.org/Graphics/SVG/1.1/DTD/svg11.dtd"><svg xmlns="http://www.w3.org/2000/svg" version="1.1" width="214px" height="86.6px" viewBox="0 -4 214 86.6" style="top:-4px">  <desc>of patients had a “good” or “excellent” response to treatment per investigator assessment at month 12</desc>  <defs/>  <g id="Polygon199901">    <path d="M 1.9 37.5 C 1.9 38.1 2.2 38.7 2.9 38.7 C 3.6 38.7 4.4 38.3 4.3 36.1 C 3.3 36.2 1.9 36.1 1.9 37.5 Z M 4.3 38.5 C 4.3 38.5 4.29 38.46 4.3 38.5 C 4 39.2 3.5 39.5 2.6 39.5 C 1.2 39.5 0.8 38.6 0.8 37.4 C 0.8 35.4 2.8 35.3 4.3 35.3 C 4.3 34.5 4.3 33.5 3.2 33.5 C 2.5 33.5 2.1 34 2.2 34.7 C 2.2 34.7 1 34.7 1 34.7 C 1.1 33.2 1.8 32.7 3.2 32.7 C 4.9 32.7 5.4 33.6 5.4 34.7 C 5.4 34.7 5.4 37.9 5.4 37.9 C 5.4 38.4 5.4 38.9 5.5 39.4 C 5.49 39.41 4.3 39.4 4.3 39.4 L 4.3 38.5 Z M 9.4 39.5 C 8 39.5 7.1 38.9 7.1 37.4 C 7.1 37.4 8.3 37.4 8.3 37.4 C 8.3 37.8 8.3 38.7 9.4 38.7 C 10 38.7 10.5 38.3 10.5 37.7 C 10.5 36.5 7.3 36.5 7.3 34.5 C 7.3 33.8 7.7 32.7 9.5 32.7 C 10.7 32.7 11.7 33.3 11.6 34.6 C 11.6 34.6 10.4 34.6 10.4 34.6 C 10.4 33.9 10.1 33.5 9.4 33.5 C 8.8 33.5 8.4 33.8 8.4 34.4 C 8.4 35.6 11.7 35.5 11.7 37.5 C 11.7 39 10.7 39.5 9.4 39.5 Z M 15.1 39.5 C 13.7 39.5 12.8 38.9 12.9 37.4 C 12.9 37.4 14.1 37.4 14.1 37.4 C 14.1 37.8 14.1 38.7 15.2 38.7 C 15.8 38.7 16.3 38.3 16.3 37.7 C 16.3 36.5 13 36.5 13 34.5 C 13 33.8 13.5 32.7 15.3 32.7 C 16.5 32.7 17.5 33.3 17.4 34.6 C 17.4 34.6 16.2 34.6 16.2 34.6 C 16.2 33.9 15.8 33.5 15.2 33.5 C 14.6 33.5 14.2 33.8 14.2 34.4 C 14.2 35.6 17.4 35.5 17.4 37.5 C 17.4 39 16.4 39.5 15.1 39.5 Z M 22.6 35.7 C 22.6 33.8 22 33.5 21.3 33.5 C 20.6 33.5 20 33.8 20 35.7 C 20 35.7 22.6 35.7 22.6 35.7 Z M 20 36.5 C 20 38.3 20.5 38.7 21.3 38.7 C 22.1 38.7 22.5 38.1 22.5 37.4 C 22.5 37.4 23.7 37.4 23.7 37.4 C 23.6 38.9 22.8 39.5 21.4 39.5 C 20 39.5 18.9 39.1 18.9 36.2 C 18.9 34.3 19.1 32.7 21.4 32.7 C 23.2 32.7 23.7 33.7 23.7 35.9 C 23.71 35.92 23.7 36.5 23.7 36.5 C 23.7 36.5 20.02 36.47 20 36.5 Z M 27.4 39.5 C 26 39.5 25.1 38.9 25.2 37.4 C 25.2 37.4 26.4 37.4 26.4 37.4 C 26.4 37.8 26.4 38.7 27.5 38.7 C 28.1 38.7 28.6 38.3 28.6 37.7 C 28.6 36.5 25.3 36.5 25.3 34.5 C 25.3 33.8 25.7 32.7 27.6 32.7 C 28.7 32.7 29.7 33.3 29.7 34.6 C 29.7 34.6 28.5 34.6 28.5 34.6 C 28.5 33.9 28.1 33.5 27.4 33.5 C 26.9 33.5 26.4 33.8 26.4 34.4 C 26.4 35.6 29.7 35.5 29.7 37.5 C 29.7 39 28.7 39.5 27.4 39.5 Z M 33.2 39.5 C 31.8 39.5 30.9 38.9 30.9 37.4 C 30.9 37.4 32.1 37.4 32.1 37.4 C 32.1 37.8 32.1 38.7 33.2 38.7 C 33.9 38.7 34.4 38.3 34.4 37.7 C 34.4 36.5 31.1 36.5 31.1 34.5 C 31.1 33.8 31.5 32.7 33.3 32.7 C 34.5 32.7 35.5 33.3 35.4 34.6 C 35.4 34.6 34.2 34.6 34.2 34.6 C 34.3 33.9 33.9 33.5 33.2 33.5 C 32.6 33.5 32.2 33.8 32.2 34.4 C 32.2 35.6 35.5 35.5 35.5 37.5 C 35.5 39 34.5 39.5 33.2 39.5 Z M 40.2 39.4 C 40.2 39.4 40.25 34.86 40.2 34.9 C 40.2 34.2 40.1 33.6 39.2 33.6 C 38.9 33.6 38.4 33.8 38.3 34 C 38.1 34.4 38 34.7 38 35 C 38.04 34.99 38 39.4 38 39.4 L 37 39.4 C 37 39.4 36.97 34.21 37 34.2 C 37 33.8 36.9 33.3 36.9 32.8 C 36.91 32.85 38 32.8 38 32.8 L 38 33.7 C 38 33.7 38.06 33.67 38.1 33.7 C 38.4 33 38.9 32.7 39.7 32.7 C 40.3 32.7 41 33 41.2 33.6 C 41.6 32.9 42.2 32.7 42.8 32.7 C 43.5 32.7 44.6 32.9 44.6 34.4 C 44.59 34.42 44.6 39.4 44.6 39.4 L 43.5 39.4 C 43.5 39.4 43.52 34.86 43.5 34.9 C 43.5 34.2 43.3 33.6 42.5 33.6 C 42.1 33.6 42 33.6 41.7 33.8 C 41.4 34.1 41.3 34.7 41.3 35 C 41.31 34.99 41.3 39.4 41.3 39.4 L 40.2 39.4 Z M 50 35.7 C 50 33.8 49.5 33.5 48.7 33.5 C 48 33.5 47.5 33.8 47.4 35.7 C 47.4 35.7 50 35.7 50 35.7 Z M 47.4 36.5 C 47.4 38.3 47.9 38.7 48.8 38.7 C 49.5 38.7 49.9 38.1 49.9 37.4 C 49.9 37.4 51.1 37.4 51.1 37.4 C 51.1 38.9 50.2 39.5 48.8 39.5 C 47.4 39.5 46.3 39.1 46.3 36.2 C 46.3 34.3 46.5 32.7 48.8 32.7 C 50.7 32.7 51.1 33.7 51.1 35.9 C 51.14 35.92 51.1 36.5 51.1 36.5 C 51.1 36.5 47.45 36.47 47.4 36.5 Z M 56.5 39.4 C 56.5 39.4 56.47 34.86 56.5 34.9 C 56.5 34.2 56.2 33.6 55.3 33.6 C 54.1 33.6 54 34.6 54 35.5 C 53.97 35.52 54 39.4 54 39.4 L 52.9 39.4 C 52.9 39.4 52.91 34.21 52.9 34.2 C 52.9 33.8 52.9 33.3 52.8 32.8 C 52.84 32.85 54 32.8 54 32.8 L 54 33.7 C 54 33.7 54.03 33.69 54 33.7 C 54.4 33 54.9 32.7 55.8 32.7 C 57.2 32.7 57.5 33.6 57.5 34.9 C 57.54 34.86 57.5 39.4 57.5 39.4 L 56.5 39.4 Z M 59.5 32.8 L 59.5 31.6 L 60.6 31.1 L 60.6 32.8 L 62 32.8 L 62 33.7 L 60.6 33.7 C 60.6 33.7 60.59 37.67 60.6 37.7 C 60.6 38.1 60.6 38.6 61.6 38.6 C 61.6 38.6 61.8 38.6 62 38.6 C 62 38.6 62 39.4 62 39.4 C 61.7 39.4 61.3 39.5 61 39.5 C 60 39.5 59.5 39.1 59.5 38.3 C 59.53 38.32 59.5 33.7 59.5 33.7 L 58.4 33.7 L 58.4 32.8 L 59.5 32.8 Z M 66.9 37.5 C 66.9 38.1 67.2 38.7 67.9 38.7 C 68.6 38.7 69.4 38.3 69.3 36.1 C 68.2 36.2 66.9 36.1 66.9 37.5 Z M 69.3 38.5 C 69.3 38.5 69.26 38.46 69.3 38.5 C 68.9 39.2 68.4 39.5 67.6 39.5 C 66.2 39.5 65.8 38.6 65.8 37.4 C 65.8 35.4 67.8 35.3 69.3 35.3 C 69.3 34.5 69.3 33.5 68.2 33.5 C 67.4 33.5 67.1 34 67.1 34.7 C 67.1 34.7 66 34.7 66 34.7 C 66 33.2 66.8 32.7 68.2 32.7 C 69.9 32.7 70.3 33.6 70.3 34.7 C 70.3 34.7 70.3 37.9 70.3 37.9 C 70.3 38.4 70.4 38.9 70.5 39.4 C 70.46 39.41 69.3 39.4 69.3 39.4 L 69.3 38.5 Z M 72.5 32.8 L 72.5 31.6 L 73.6 31.1 L 73.6 32.8 L 75 32.8 L 75 33.7 L 73.6 33.7 C 73.6 33.7 73.59 37.67 73.6 37.7 C 73.6 38.1 73.6 38.6 74.6 38.6 C 74.6 38.6 74.8 38.6 75 38.6 C 75 38.6 75 39.4 75 39.4 C 74.7 39.4 74.3 39.5 74 39.5 C 73 39.5 72.5 39.1 72.5 38.3 C 72.53 38.32 72.5 33.7 72.5 33.7 L 71.4 33.7 L 71.4 32.8 L 72.5 32.8 Z M 82.1 39.4 C 82.1 39.4 82.13 34.86 82.1 34.9 C 82.1 34.2 82 33.6 81.1 33.6 C 80.8 33.6 80.3 33.8 80.2 34 C 80 34.4 79.9 34.7 79.9 35 C 79.92 34.99 79.9 39.4 79.9 39.4 L 78.9 39.4 C 78.9 39.4 78.86 34.21 78.9 34.2 C 78.9 33.8 78.8 33.3 78.8 32.8 C 78.79 32.85 79.9 32.8 79.9 32.8 L 79.9 33.7 C 79.9 33.7 79.95 33.67 79.9 33.7 C 80.3 33 80.8 32.7 81.6 32.7 C 82.2 32.7 82.9 33 83.1 33.6 C 83.5 32.9 84.1 32.7 84.7 32.7 C 85.4 32.7 86.5 32.9 86.5 34.4 C 86.47 34.42 86.5 39.4 86.5 39.4 L 85.4 39.4 C 85.4 39.4 85.41 34.86 85.4 34.9 C 85.4 34.2 85.2 33.6 84.4 33.6 C 84 33.6 83.8 33.6 83.6 33.8 C 83.2 34.1 83.2 34.7 83.2 35 C 83.2 34.99 83.2 39.4 83.2 39.4 L 82.1 39.4 Z M 92 35.8 C 92 34 91.4 33.6 90.6 33.6 C 89.8 33.6 89.2 34 89.2 35.8 C 89.2 37.9 89.5 38.7 90.6 38.7 C 91.7 38.7 92 37.9 92 35.8 Z M 88.1 36.2 C 88.1 34.3 88.3 32.7 90.6 32.7 C 92.9 32.7 93.1 34.3 93.1 36.2 C 93.1 39.1 92 39.5 90.6 39.5 C 89.2 39.5 88.1 39.1 88.1 36.2 Z M 98.4 39.4 C 98.4 39.4 98.36 34.86 98.4 34.9 C 98.4 34.2 98.1 33.6 97.2 33.6 C 96 33.6 95.9 34.6 95.9 35.5 C 95.86 35.52 95.9 39.4 95.9 39.4 L 94.8 39.4 C 94.8 39.4 94.8 34.21 94.8 34.2 C 94.8 33.8 94.8 33.3 94.7 32.8 C 94.73 32.85 95.9 32.8 95.9 32.8 L 95.9 33.7 C 95.9 33.7 95.91 33.69 95.9 33.7 C 96.3 33 96.8 32.7 97.7 32.7 C 99.1 32.7 99.4 33.6 99.4 34.9 C 99.42 34.86 99.4 39.4 99.4 39.4 L 98.4 39.4 Z M 101.4 32.8 L 101.4 31.6 L 102.5 31.1 L 102.5 32.8 L 103.9 32.8 L 103.9 33.7 L 102.5 33.7 C 102.5 33.7 102.48 37.67 102.5 37.7 C 102.5 38.1 102.5 38.6 103.5 38.6 C 103.5 38.6 103.7 38.6 103.9 38.6 C 103.9 38.6 103.9 39.4 103.9 39.4 C 103.6 39.4 103.2 39.5 102.9 39.5 C 101.9 39.5 101.4 39.1 101.4 38.3 C 101.41 38.32 101.4 33.7 101.4 33.7 L 100.3 33.7 L 100.3 32.8 L 101.4 32.8 Z M 108.5 39.4 C 108.5 39.4 108.47 34.97 108.5 35 C 108.5 34.2 108.2 33.6 107.3 33.6 C 106.2 33.6 106 34.4 106 35.6 C 105.96 35.55 106 39.4 106 39.4 L 104.9 39.4 L 104.9 30 L 106 30 L 106 33.7 C 106 33.7 106.01 33.69 106 33.7 C 106.4 32.9 106.9 32.7 107.8 32.7 C 108.9 32.7 109.5 33.3 109.5 34.8 C 109.54 34.76 109.5 39.4 109.5 39.4 L 108.5 39.4 Z M 117.1 39.4 L 115.9 39.4 L 115.9 31.7 L 114.6 32.6 C 114.6 32.6 114.57 31.47 114.6 31.5 C 114.9 31.3 115.7 30.7 116.1 30.4 C 116.09 30.39 117.1 30.4 117.1 30.4 L 117.1 39.4 Z M 119.7 39.4 C 119.7 39.4 119.69 38.37 119.7 38.4 C 122.3 34.7 123.1 34 123.1 32.4 C 123.1 31.7 122.8 31.2 122 31.2 C 121.1 31.2 120.9 32 120.9 32.7 C 120.9 32.7 119.7 32.7 119.7 32.7 C 119.6 31.2 120.4 30.2 121.9 30.2 C 123.5 30.2 124.3 31 124.3 32.6 C 124.3 34.6 123.3 35.3 121 38.4 C 120.96 38.37 124.5 38.4 124.5 38.4 L 124.5 39.4 L 119.7 39.4 Z " stroke="none" fill="#555555"/>  </g>  <g id="Polygon199900">    <path d="M 2 18.8 C 2 18.8 2.07 18.83 2.1 18.8 C 2.5 17.8 3.1 17.7 4.1 17.7 C 4.1 17.7 4.1 18.8 4.1 18.8 C 4 18.8 3.9 18.8 3.8 18.8 C 3.7 18.8 3.6 18.8 3.5 18.8 C 2.3 18.8 2 19.7 2 20.5 C 2.04 20.54 2 24.4 2 24.4 L 1 24.4 L 1 17.8 L 2 17.8 L 2 18.8 Z M 8.9 20.7 C 8.9 18.8 8.3 18.5 7.6 18.5 C 6.9 18.5 6.3 18.8 6.3 20.7 C 6.3 20.7 8.9 20.7 8.9 20.7 Z M 6.3 21.5 C 6.3 23.3 6.8 23.7 7.6 23.7 C 8.4 23.7 8.7 23.1 8.8 22.4 C 8.8 22.4 9.9 22.4 9.9 22.4 C 9.9 23.9 9 24.5 7.7 24.5 C 6.3 24.5 5.2 24.1 5.2 21.2 C 5.2 19.3 5.4 17.7 7.7 17.7 C 9.5 17.7 10 18.7 10 20.9 C 10 20.92 10 21.5 10 21.5 C 10 21.5 6.3 21.47 6.3 21.5 Z M 13.7 24.5 C 12.3 24.5 11.4 23.9 11.4 22.4 C 11.4 22.4 12.6 22.4 12.6 22.4 C 12.6 22.8 12.7 23.7 13.7 23.7 C 14.4 23.7 14.9 23.3 14.9 22.7 C 14.9 21.5 11.6 21.5 11.6 19.5 C 11.6 18.8 12 17.7 13.9 17.7 C 15 17.7 16 18.3 15.9 19.6 C 15.9 19.6 14.8 19.6 14.8 19.6 C 14.8 18.9 14.4 18.5 13.7 18.5 C 13.2 18.5 12.7 18.8 12.7 19.4 C 12.7 20.6 16 20.5 16 22.5 C 16 24 15 24.5 13.7 24.5 Z M 21.2 21 C 21.2 20 21.2 18.6 19.9 18.6 C 18.6 18.6 18.7 20.4 18.7 21.4 C 18.7 22.3 18.7 23.7 19.9 23.7 C 21.1 23.7 21.2 22.8 21.2 21 Z M 18.7 18.6 C 18.7 18.6 18.72 18.63 18.7 18.6 C 19.1 18 19.5 17.7 20.2 17.7 C 21.3 17.7 22.3 18.1 22.3 21 C 22.3 22.7 22.3 24.5 20.2 24.5 C 19.6 24.5 19.1 24.3 18.7 23.7 C 18.73 23.75 18.7 23.7 18.7 23.7 L 18.7 26.9 L 17.6 26.9 L 17.6 17.8 L 18.7 17.8 L 18.7 18.6 Z M 27.7 20.8 C 27.7 19 27.2 18.6 26.4 18.6 C 25.5 18.6 25 19 25 20.8 C 25 22.9 25.2 23.7 26.4 23.7 C 27.5 23.7 27.7 22.9 27.7 20.8 Z M 23.9 21.2 C 23.9 19.3 24.1 17.7 26.4 17.7 C 28.6 17.7 28.8 19.3 28.8 21.2 C 28.8 24.1 27.7 24.5 26.4 24.5 C 25 24.5 23.9 24.1 23.9 21.2 Z M 34.1 24.4 C 34.1 24.4 34.1 19.86 34.1 19.9 C 34.1 19.2 33.9 18.6 32.9 18.6 C 31.8 18.6 31.6 19.6 31.6 20.5 C 31.6 20.52 31.6 24.4 31.6 24.4 L 30.5 24.4 C 30.5 24.4 30.54 19.21 30.5 19.2 C 30.5 18.8 30.5 18.3 30.5 17.8 C 30.47 17.85 31.6 17.8 31.6 17.8 L 31.6 18.7 C 31.6 18.7 31.65 18.69 31.7 18.7 C 32.1 18 32.6 17.7 33.4 17.7 C 34.8 17.7 35.2 18.6 35.2 19.9 C 35.16 19.86 35.2 24.4 35.2 24.4 L 34.1 24.4 Z M 39 24.5 C 37.6 24.5 36.7 23.9 36.7 22.4 C 36.7 22.4 37.9 22.4 37.9 22.4 C 37.9 22.8 37.9 23.7 39 23.7 C 39.7 23.7 40.1 23.3 40.1 22.7 C 40.1 21.5 36.9 21.5 36.9 19.5 C 36.9 18.8 37.3 17.7 39.1 17.7 C 40.3 17.7 41.3 18.3 41.2 19.6 C 41.2 19.6 40 19.6 40 19.6 C 40 18.9 39.7 18.5 39 18.5 C 38.4 18.5 38 18.8 38 19.4 C 38 20.6 41.3 20.5 41.3 22.5 C 41.3 24 40.3 24.5 39 24.5 Z M 46.4 20.7 C 46.4 18.8 45.9 18.5 45.1 18.5 C 44.4 18.5 43.9 18.8 43.8 20.7 C 43.8 20.7 46.4 20.7 46.4 20.7 Z M 43.8 21.5 C 43.8 23.3 44.3 23.7 45.2 23.7 C 45.9 23.7 46.3 23.1 46.3 22.4 C 46.3 22.4 47.5 22.4 47.5 22.4 C 47.5 23.9 46.6 24.5 45.2 24.5 C 43.8 24.5 42.7 24.1 42.7 21.2 C 42.7 19.3 42.9 17.7 45.2 17.7 C 47.1 17.7 47.5 18.7 47.5 20.9 C 47.54 20.92 47.5 21.5 47.5 21.5 C 47.5 21.5 43.85 21.47 43.8 21.5 Z M 52.3 17.8 L 52.3 16.6 L 53.4 16.1 L 53.4 17.8 L 54.8 17.8 L 54.8 18.7 L 53.4 18.7 C 53.4 18.7 53.38 22.67 53.4 22.7 C 53.4 23.1 53.4 23.6 54.4 23.6 C 54.4 23.6 54.6 23.6 54.8 23.6 C 54.8 23.6 54.8 24.4 54.8 24.4 C 54.5 24.4 54.1 24.5 53.8 24.5 C 52.8 24.5 52.3 24.1 52.3 23.3 C 52.31 23.32 52.3 18.7 52.3 18.7 L 51.2 18.7 L 51.2 17.8 L 52.3 17.8 Z M 59.5 20.8 C 59.5 19 58.9 18.6 58.1 18.6 C 57.3 18.6 56.7 19 56.7 20.8 C 56.7 22.9 57 23.7 58.1 23.7 C 59.2 23.7 59.5 22.9 59.5 20.8 Z M 55.6 21.2 C 55.6 19.3 55.8 17.7 58.1 17.7 C 60.4 17.7 60.6 19.3 60.6 21.2 C 60.6 24.1 59.5 24.5 58.1 24.5 C 56.7 24.5 55.6 24.1 55.6 21.2 Z M 65.3 17.8 L 65.3 16.6 L 66.4 16.1 L 66.4 17.8 L 67.8 17.8 L 67.8 18.7 L 66.4 18.7 C 66.4 18.7 66.38 22.67 66.4 22.7 C 66.4 23.1 66.4 23.6 67.4 23.6 C 67.4 23.6 67.6 23.6 67.8 23.6 C 67.8 23.6 67.8 24.4 67.8 24.4 C 67.5 24.4 67.1 24.5 66.8 24.5 C 65.8 24.5 65.3 24.1 65.3 23.3 C 65.31 23.32 65.3 18.7 65.3 18.7 L 64.2 18.7 L 64.2 17.8 L 65.3 17.8 Z M 69.9 18.8 C 69.9 18.8 69.94 18.83 69.9 18.8 C 70.4 17.8 70.9 17.7 72 17.7 C 72 17.7 72 18.8 72 18.8 C 71.9 18.8 71.8 18.8 71.7 18.8 C 71.6 18.8 71.5 18.8 71.4 18.8 C 70.2 18.8 69.9 19.7 69.9 20.5 C 69.91 20.54 69.9 24.4 69.9 24.4 L 68.8 24.4 L 68.8 17.8 L 69.9 17.8 L 69.9 18.8 Z M 76.7 20.7 C 76.7 18.8 76.2 18.5 75.4 18.5 C 74.7 18.5 74.2 18.8 74.2 20.7 C 74.2 20.7 76.7 20.7 76.7 20.7 Z M 74.2 21.5 C 74.2 23.3 74.7 23.7 75.5 23.7 C 76.2 23.7 76.6 23.1 76.6 22.4 C 76.6 22.4 77.8 22.4 77.8 22.4 C 77.8 23.9 76.9 24.5 75.5 24.5 C 74.1 24.5 73 24.1 73 21.2 C 73 19.3 73.3 17.7 75.5 17.7 C 77.4 17.7 77.9 18.7 77.9 20.9 C 77.87 20.92 77.9 21.5 77.9 21.5 C 77.9 21.5 74.18 21.47 74.2 21.5 Z M 80.6 22.5 C 80.6 23.1 80.9 23.7 81.6 23.7 C 82.3 23.7 83.1 23.3 83 21.1 C 82 21.2 80.6 21.1 80.6 22.5 Z M 83 23.5 C 83 23.5 82.99 23.46 83 23.5 C 82.7 24.2 82.2 24.5 81.3 24.5 C 79.9 24.5 79.5 23.6 79.5 22.4 C 79.5 20.4 81.5 20.3 83 20.3 C 83 19.5 83 18.5 81.9 18.5 C 81.2 18.5 80.8 19 80.9 19.7 C 80.9 19.7 79.7 19.7 79.7 19.7 C 79.8 18.2 80.5 17.7 81.9 17.7 C 83.6 17.7 84.1 18.6 84.1 19.7 C 84.1 19.7 84.1 22.9 84.1 22.9 C 84.1 23.4 84.1 23.9 84.2 24.4 C 84.19 24.41 83 24.4 83 24.4 L 83 23.5 Z M 86.3 17.8 L 86.3 16.6 L 87.3 16.1 L 87.3 17.8 L 88.7 17.8 L 88.7 18.7 L 87.3 18.7 C 87.3 18.7 87.32 22.67 87.3 22.7 C 87.3 23.1 87.3 23.6 88.3 23.6 C 88.4 23.6 88.5 23.6 88.8 23.6 C 88.8 23.6 88.8 24.4 88.8 24.4 C 88.4 24.4 88.1 24.5 87.7 24.5 C 86.7 24.5 86.3 24.1 86.3 23.3 C 86.25 23.32 86.3 18.7 86.3 18.7 L 85.2 18.7 L 85.2 17.8 L 86.3 17.8 Z M 93 24.4 C 93 24.4 92.98 19.86 93 19.9 C 93 19.2 92.8 18.6 91.9 18.6 C 91.6 18.6 91.2 18.8 91 19 C 90.8 19.4 90.8 19.7 90.8 20 C 90.76 19.99 90.8 24.4 90.8 24.4 L 89.7 24.4 C 89.7 24.4 89.7 19.21 89.7 19.2 C 89.7 18.8 89.7 18.3 89.6 17.8 C 89.63 17.85 90.8 17.8 90.8 17.8 L 90.8 18.7 C 90.8 18.7 90.79 18.67 90.8 18.7 C 91.1 18 91.7 17.7 92.4 17.7 C 93 17.7 93.7 18 94 18.6 C 94.3 17.9 94.9 17.7 95.5 17.7 C 96.2 17.7 97.3 17.9 97.3 19.4 C 97.32 19.42 97.3 24.4 97.3 24.4 L 96.3 24.4 C 96.3 24.4 96.25 19.86 96.3 19.9 C 96.3 19.2 96.1 18.6 95.2 18.6 C 94.8 18.6 94.7 18.6 94.4 18.8 C 94.1 19.1 94 19.7 94 20 C 94.04 19.99 94 24.4 94 24.4 L 93 24.4 Z M 102.7 20.7 C 102.7 18.8 102.2 18.5 101.4 18.5 C 100.7 18.5 100.2 18.8 100.2 20.7 C 100.2 20.7 102.7 20.7 102.7 20.7 Z M 100.2 21.5 C 100.2 23.3 100.7 23.7 101.5 23.7 C 102.2 23.7 102.6 23.1 102.6 22.4 C 102.6 22.4 103.8 22.4 103.8 22.4 C 103.8 23.9 102.9 24.5 101.5 24.5 C 100.1 24.5 99 24.1 99 21.2 C 99 19.3 99.3 17.7 101.5 17.7 C 103.4 17.7 103.9 18.7 103.9 20.9 C 103.87 20.92 103.9 21.5 103.9 21.5 C 103.9 21.5 100.18 21.47 100.2 21.5 Z M 109.2 24.4 C 109.2 24.4 109.2 19.86 109.2 19.9 C 109.2 19.2 109 18.6 108 18.6 C 106.9 18.6 106.7 19.6 106.7 20.5 C 106.7 20.52 106.7 24.4 106.7 24.4 L 105.6 24.4 C 105.6 24.4 105.64 19.21 105.6 19.2 C 105.6 18.8 105.6 18.3 105.6 17.8 C 105.57 17.85 106.7 17.8 106.7 17.8 L 106.7 18.7 C 106.7 18.7 106.75 18.69 106.8 18.7 C 107.2 18 107.7 17.7 108.5 17.7 C 109.9 17.7 110.3 18.6 110.3 19.9 C 110.26 19.86 110.3 24.4 110.3 24.4 L 109.2 24.4 Z M 112.3 17.8 L 112.3 16.6 L 113.3 16.1 L 113.3 17.8 L 114.7 17.8 L 114.7 18.7 L 113.3 18.7 C 113.3 18.7 113.32 22.67 113.3 22.7 C 113.3 23.1 113.3 23.6 114.3 23.6 C 114.4 23.6 114.5 23.6 114.8 23.6 C 114.8 23.6 114.8 24.4 114.8 24.4 C 114.4 24.4 114.1 24.5 113.7 24.5 C 112.7 24.5 112.3 24.1 112.3 23.3 C 112.25 23.32 112.3 18.7 112.3 18.7 L 111.2 18.7 L 111.2 17.8 L 112.3 17.8 Z M 122.3 21 C 122.3 20 122.3 18.6 121 18.6 C 119.7 18.6 119.8 20.4 119.8 21.4 C 119.8 22.3 119.8 23.7 121 23.7 C 122.2 23.7 122.3 22.8 122.3 21 Z M 119.8 18.6 C 119.8 18.6 119.82 18.63 119.8 18.6 C 120.2 18 120.6 17.7 121.3 17.7 C 122.4 17.7 123.4 18.1 123.4 21 C 123.4 22.7 123.4 24.5 121.3 24.5 C 120.7 24.5 120.2 24.3 119.8 23.7 C 119.83 23.75 119.8 23.7 119.8 23.7 L 119.8 26.9 L 118.7 26.9 L 118.7 17.8 L 119.8 17.8 L 119.8 18.6 Z M 128.7 20.7 C 128.7 18.8 128.2 18.5 127.4 18.5 C 126.7 18.5 126.2 18.8 126.2 20.7 C 126.2 20.7 128.7 20.7 128.7 20.7 Z M 126.2 21.5 C 126.2 23.3 126.7 23.7 127.5 23.7 C 128.2 23.7 128.6 23.1 128.6 22.4 C 128.6 22.4 129.8 22.4 129.8 22.4 C 129.8 23.9 128.9 24.5 127.5 24.5 C 126.1 24.5 125 24.1 125 21.2 C 125 19.3 125.3 17.7 127.5 17.7 C 129.4 17.7 129.9 18.7 129.9 20.9 C 129.87 20.92 129.9 21.5 129.9 21.5 C 129.9 21.5 126.18 21.47 126.2 21.5 Z M 132.7 18.8 C 132.7 18.8 132.77 18.83 132.8 18.8 C 133.2 17.8 133.8 17.7 134.8 17.7 C 134.8 17.7 134.8 18.8 134.8 18.8 C 134.7 18.8 134.6 18.8 134.5 18.8 C 134.4 18.8 134.3 18.8 134.2 18.8 C 133 18.8 132.7 19.7 132.7 20.5 C 132.74 20.54 132.7 24.4 132.7 24.4 L 131.7 24.4 L 131.7 17.8 L 132.7 17.8 L 132.7 18.8 Z M 139.9 24.4 L 138.8 24.4 L 138.8 17.8 L 139.9 17.8 L 139.9 24.4 Z M 138.8 15 L 140 15 L 140 16.2 L 138.8 16.2 L 138.8 15 Z M 145.3 24.4 C 145.3 24.4 145.3 19.86 145.3 19.9 C 145.3 19.2 145.1 18.6 144.1 18.6 C 143 18.6 142.8 19.6 142.8 20.5 C 142.8 20.52 142.8 24.4 142.8 24.4 L 141.7 24.4 C 141.7 24.4 141.74 19.21 141.7 19.2 C 141.7 18.8 141.7 18.3 141.7 17.8 C 141.67 17.85 142.8 17.8 142.8 17.8 L 142.8 18.7 C 142.8 18.7 142.85 18.69 142.9 18.7 C 143.3 18 143.8 17.7 144.6 17.7 C 146 17.7 146.4 18.6 146.4 19.9 C 146.36 19.86 146.4 24.4 146.4 24.4 L 145.3 24.4 Z M 147.5 17.8 L 148.7 17.8 L 150.1 23.4 L 150.2 23.4 L 151.8 17.8 L 152.9 17.8 L 150.8 24.4 L 149.4 24.4 L 147.5 17.8 Z M 157.6 20.7 C 157.6 18.8 157.1 18.5 156.3 18.5 C 155.6 18.5 155.1 18.8 155 20.7 C 155 20.7 157.6 20.7 157.6 20.7 Z M 155 21.5 C 155 23.3 155.5 23.7 156.4 23.7 C 157.1 23.7 157.5 23.1 157.5 22.4 C 157.5 22.4 158.7 22.4 158.7 22.4 C 158.7 23.9 157.8 24.5 156.4 24.5 C 155 24.5 153.9 24.1 153.9 21.2 C 153.9 19.3 154.1 17.7 156.4 17.7 C 158.3 17.7 158.7 18.7 158.7 20.9 C 158.74 20.92 158.7 21.5 158.7 21.5 C 158.7 21.5 155.05 21.47 155 21.5 Z M 162.4 24.5 C 161 24.5 160.1 23.9 160.2 22.4 C 160.2 22.4 161.4 22.4 161.4 22.4 C 161.4 22.8 161.4 23.7 162.5 23.7 C 163.1 23.7 163.6 23.3 163.6 22.7 C 163.6 21.5 160.3 21.5 160.3 19.5 C 160.3 18.8 160.8 17.7 162.6 17.7 C 163.8 17.7 164.8 18.3 164.7 19.6 C 164.7 19.6 163.5 19.6 163.5 19.6 C 163.5 18.9 163.1 18.5 162.5 18.5 C 161.9 18.5 161.5 18.8 161.5 19.4 C 161.5 20.6 164.7 20.5 164.7 22.5 C 164.7 24 163.7 24.5 162.4 24.5 Z M 166.4 17.8 L 166.4 16.6 L 167.5 16.1 L 167.5 17.8 L 168.9 17.8 L 168.9 18.7 L 167.5 18.7 C 167.5 18.7 167.46 22.67 167.5 22.7 C 167.5 23.1 167.5 23.6 168.4 23.6 C 168.5 23.6 168.7 23.6 168.9 23.6 C 168.9 23.6 168.9 24.4 168.9 24.4 C 168.6 24.4 168.2 24.5 167.9 24.5 C 166.9 24.5 166.4 24.1 166.4 23.3 C 166.4 23.32 166.4 18.7 166.4 18.7 L 165.3 18.7 L 165.3 17.8 L 166.4 17.8 Z M 170.9 24.4 L 169.9 24.4 L 169.9 17.8 L 170.9 17.8 L 170.9 24.4 Z M 169.8 15 L 171 15 L 171 16.2 L 169.8 16.2 L 169.8 15 Z M 175 18.6 C 173.8 18.6 173.8 20.1 173.8 20.9 C 173.8 23 174.2 23.5 175 23.5 C 176.3 23.5 176.3 22 176.3 21.1 C 176.3 20.1 176.3 18.6 175 18.6 Z M 176.3 17.8 L 177.3 17.8 C 177.3 17.8 177.32 25.07 177.3 25.1 C 177.3 26.5 176.3 26.9 174.9 26.9 C 173.8 26.9 172.8 26.3 172.9 25.1 C 172.9 25.1 174.1 25.1 174.1 25.1 C 174.1 25.8 174.5 26.1 175.1 26.1 C 175.8 26.1 176.3 25.6 176.3 25 C 176.25 24.96 176.3 23.6 176.3 23.6 C 176.3 23.6 176.21 23.59 176.2 23.6 C 175.9 24.1 175.3 24.4 174.8 24.4 C 173 24.4 172.6 22.9 172.6 20.9 C 172.6 17.9 174.2 17.7 174.7 17.7 C 175.4 17.7 175.9 18 176.2 18.7 C 176.23 18.65 176.3 18.7 176.3 18.7 L 176.3 17.8 Z M 180.3 22.5 C 180.3 23.1 180.6 23.7 181.3 23.7 C 181.9 23.7 182.7 23.3 182.6 21.1 C 181.6 21.2 180.3 21.1 180.3 22.5 Z M 182.7 23.5 C 182.7 23.5 182.64 23.46 182.6 23.5 C 182.3 24.2 181.8 24.5 181 24.5 C 179.6 24.5 179.2 23.6 179.2 22.4 C 179.2 20.4 181.1 20.3 182.6 20.3 C 182.7 19.5 182.7 18.5 181.5 18.5 C 180.8 18.5 180.4 19 180.5 19.7 C 180.5 19.7 179.3 19.7 179.3 19.7 C 179.4 18.2 180.2 17.7 181.6 17.7 C 183.3 17.7 183.7 18.6 183.7 19.7 C 183.7 19.7 183.7 22.9 183.7 22.9 C 183.7 23.4 183.8 23.9 183.8 24.4 C 183.83 24.41 182.7 24.4 182.7 24.4 L 182.7 23.5 Z M 185.9 17.8 L 185.9 16.6 L 187 16.1 L 187 17.8 L 188.4 17.8 L 188.4 18.7 L 187 18.7 C 187 18.7 186.96 22.67 187 22.7 C 187 23.1 187 23.6 187.9 23.6 C 188 23.6 188.2 23.6 188.4 23.6 C 188.4 23.6 188.4 24.4 188.4 24.4 C 188.1 24.4 187.7 24.5 187.4 24.5 C 186.4 24.5 185.9 24.1 185.9 23.3 C 185.9 23.32 185.9 18.7 185.9 18.7 L 184.8 18.7 L 184.8 17.8 L 185.9 17.8 Z M 193.1 20.8 C 193.1 19 192.5 18.6 191.7 18.6 C 190.9 18.6 190.3 19 190.3 20.8 C 190.3 22.9 190.6 23.7 191.7 23.7 C 192.8 23.7 193.1 22.9 193.1 20.8 Z M 189.2 21.2 C 189.2 19.3 189.4 17.7 191.7 17.7 C 194 17.7 194.2 19.3 194.2 21.2 C 194.2 24.1 193.1 24.5 191.7 24.5 C 190.3 24.5 189.2 24.1 189.2 21.2 Z M 197 18.8 C 197 18.8 197.02 18.83 197 18.8 C 197.5 17.8 198 17.7 199.1 17.7 C 199.1 17.7 199.1 18.8 199.1 18.8 C 199 18.8 198.9 18.8 198.8 18.8 C 198.7 18.8 198.6 18.8 198.5 18.8 C 197.3 18.8 197 19.7 197 20.5 C 197 20.54 197 24.4 197 24.4 L 195.9 24.4 L 195.9 17.8 L 197 17.8 L 197 18.8 Z " stroke="none" fill="#555555"/>  </g>  <g id="Polygon199899">    <path d="M 4.6 5.8 C 4.6 4 4.1 3.6 3.3 3.6 C 2.4 3.6 1.9 4 1.9 5.8 C 1.9 7.9 2.1 8.7 3.3 8.7 C 4.4 8.7 4.6 7.9 4.6 5.8 Z M 0.8 6.2 C 0.8 4.3 1 2.7 3.3 2.7 C 5.5 2.7 5.7 4.3 5.7 6.2 C 5.7 9.1 4.6 9.5 3.3 9.5 C 1.9 9.5 0.8 9.1 0.8 6.2 Z M 7.6 2.8 C 7.6 2.8 7.63 1.57 7.6 1.6 C 7.6 0.2 8.6 0 9.5 0 C 9.7 0 9.9 0 10 0 C 10 0 10 0.8 10 0.8 C 8.9 0.7 8.7 1.2 8.7 1.7 C 8.7 1.73 8.7 2.8 8.7 2.8 L 10 2.8 L 10 3.7 L 8.7 3.7 L 8.7 9.4 L 7.6 9.4 L 7.6 3.7 L 6.6 3.7 L 6.6 2.8 L 7.6 2.8 Z M 17.6 6 C 17.6 5 17.6 3.6 16.3 3.6 C 15 3.6 15.1 5.4 15.1 6.4 C 15.1 7.3 15.1 8.7 16.3 8.7 C 17.5 8.7 17.6 7.8 17.6 6 Z M 15.1 3.6 C 15.1 3.6 15.12 3.63 15.1 3.6 C 15.5 3 15.9 2.7 16.6 2.7 C 17.7 2.7 18.7 3.1 18.7 6 C 18.7 7.7 18.7 9.5 16.6 9.5 C 16 9.5 15.5 9.3 15.1 8.7 C 15.13 8.75 15.1 8.7 15.1 8.7 L 15.1 11.9 L 14 11.9 L 14 2.8 L 15.1 2.8 L 15.1 3.6 Z M 21.4 7.5 C 21.4 8.1 21.7 8.7 22.4 8.7 C 23.1 8.7 23.9 8.3 23.8 6.1 C 22.8 6.2 21.4 6.1 21.4 7.5 Z M 23.8 8.5 C 23.8 8.5 23.79 8.46 23.8 8.5 C 23.5 9.2 23 9.5 22.1 9.5 C 20.7 9.5 20.3 8.6 20.3 7.4 C 20.3 5.4 22.3 5.3 23.8 5.3 C 23.8 4.5 23.8 3.5 22.7 3.5 C 22 3.5 21.6 4 21.7 4.7 C 21.7 4.7 20.5 4.7 20.5 4.7 C 20.6 3.2 21.3 2.7 22.7 2.7 C 24.4 2.7 24.9 3.6 24.9 4.7 C 24.9 4.7 24.9 7.9 24.9 7.9 C 24.9 8.4 24.9 8.9 25 9.4 C 24.98 9.41 23.8 9.4 23.8 9.4 L 23.8 8.5 Z M 27.1 2.8 L 27.1 1.6 L 28.1 1.1 L 28.1 2.8 L 29.5 2.8 L 29.5 3.7 L 28.1 3.7 C 28.1 3.7 28.12 7.67 28.1 7.7 C 28.1 8.1 28.1 8.6 29.1 8.6 C 29.2 8.6 29.3 8.6 29.6 8.6 C 29.6 8.6 29.6 9.4 29.6 9.4 C 29.2 9.4 28.9 9.5 28.5 9.5 C 27.5 9.5 27.1 9.1 27.1 8.3 C 27.05 8.32 27.1 3.7 27.1 3.7 L 26 3.7 L 26 2.8 L 27.1 2.8 Z M 31.6 9.4 L 30.5 9.4 L 30.5 2.8 L 31.6 2.8 L 31.6 9.4 Z M 30.5 0 L 31.7 0 L 31.7 1.2 L 30.5 1.2 L 30.5 0 Z M 37 5.7 C 37 3.8 36.5 3.5 35.7 3.5 C 35 3.5 34.5 3.8 34.5 5.7 C 34.5 5.7 37 5.7 37 5.7 Z M 34.5 6.5 C 34.5 8.3 35 8.7 35.8 8.7 C 36.5 8.7 36.9 8.1 36.9 7.4 C 36.9 7.4 38.1 7.4 38.1 7.4 C 38.1 8.9 37.2 9.5 35.8 9.5 C 34.4 9.5 33.3 9.1 33.3 6.2 C 33.3 4.3 33.6 2.7 35.8 2.7 C 37.7 2.7 38.2 3.7 38.2 5.9 C 38.17 5.92 38.2 6.5 38.2 6.5 C 38.2 6.5 34.47 6.47 34.5 6.5 Z M 43.5 9.4 C 43.5 9.4 43.5 4.86 43.5 4.9 C 43.5 4.2 43.3 3.6 42.3 3.6 C 41.2 3.6 41 4.6 41 5.5 C 41 5.52 41 9.4 41 9.4 L 39.9 9.4 C 39.9 9.4 39.94 4.21 39.9 4.2 C 39.9 3.8 39.9 3.3 39.9 2.8 C 39.87 2.85 41 2.8 41 2.8 L 41 3.7 C 41 3.7 41.05 3.69 41.1 3.7 C 41.5 3 42 2.7 42.8 2.7 C 44.2 2.7 44.6 3.6 44.6 4.9 C 44.56 4.86 44.6 9.4 44.6 9.4 L 43.5 9.4 Z M 46.6 2.8 L 46.6 1.6 L 47.6 1.1 L 47.6 2.8 L 49 2.8 L 49 3.7 L 47.6 3.7 C 47.6 3.7 47.62 7.67 47.6 7.7 C 47.6 8.1 47.6 8.6 48.6 8.6 C 48.7 8.6 48.8 8.6 49.1 8.6 C 49.1 8.6 49.1 9.4 49.1 9.4 C 48.7 9.4 48.4 9.5 48 9.5 C 47 9.5 46.6 9.1 46.6 8.3 C 46.55 8.32 46.6 3.7 46.6 3.7 L 45.5 3.7 L 45.5 2.8 L 46.6 2.8 Z M 52 9.5 C 50.6 9.5 49.7 8.9 49.7 7.4 C 49.7 7.4 50.9 7.4 50.9 7.4 C 50.9 7.8 50.9 8.7 52 8.7 C 52.7 8.7 53.2 8.3 53.2 7.7 C 53.2 6.5 49.9 6.5 49.9 4.5 C 49.9 3.8 50.3 2.7 52.1 2.7 C 53.3 2.7 54.3 3.3 54.2 4.6 C 54.2 4.6 53 4.6 53 4.6 C 53.1 3.9 52.7 3.5 52 3.5 C 51.4 3.5 51 3.8 51 4.4 C 51 5.6 54.3 5.5 54.3 7.5 C 54.3 9 53.3 9.5 52 9.5 Z M 62.3 9.4 C 62.3 9.4 62.27 4.97 62.3 5 C 62.3 4.2 62 3.6 61.1 3.6 C 60 3.6 59.8 4.4 59.8 5.6 C 59.76 5.55 59.8 9.4 59.8 9.4 L 58.7 9.4 L 58.7 0 L 59.8 0 L 59.8 3.7 C 59.8 3.7 59.81 3.69 59.8 3.7 C 60.2 2.9 60.7 2.7 61.6 2.7 C 62.7 2.7 63.3 3.3 63.3 4.8 C 63.33 4.76 63.3 9.4 63.3 9.4 L 62.3 9.4 Z M 66.2 7.5 C 66.2 8.1 66.5 8.7 67.2 8.7 C 67.9 8.7 68.7 8.3 68.6 6.1 C 67.5 6.2 66.2 6.1 66.2 7.5 Z M 68.6 8.5 C 68.6 8.5 68.56 8.46 68.6 8.5 C 68.2 9.2 67.7 9.5 66.9 9.5 C 65.5 9.5 65.1 8.6 65.1 7.4 C 65.1 5.4 67.1 5.3 68.6 5.3 C 68.6 4.5 68.6 3.5 67.5 3.5 C 66.7 3.5 66.4 4 66.4 4.7 C 66.4 4.7 65.3 4.7 65.3 4.7 C 65.3 3.2 66.1 2.7 67.5 2.7 C 69.2 2.7 69.6 3.6 69.6 4.7 C 69.6 4.7 69.6 7.9 69.6 7.9 C 69.6 8.4 69.7 8.9 69.8 9.4 C 69.76 9.41 68.6 9.4 68.6 9.4 L 68.6 8.5 Z M 73.9 3.6 C 72.8 3.6 72.6 4.5 72.6 6.3 C 72.6 7.2 72.6 8.7 74 8.7 C 75.2 8.7 75.2 7.2 75.2 5.9 C 75.2 5 75.1 3.6 73.9 3.6 Z M 75.2 0 L 76.2 0 L 76.2 9.4 L 75.2 9.4 L 75.2 8.6 C 75.2 8.6 75.15 8.63 75.2 8.6 C 74.8 9.2 74.3 9.5 73.6 9.5 C 72.6 9.5 71.5 9.1 71.5 6.2 C 71.5 4.6 71.6 2.7 73.7 2.7 C 74.3 2.7 74.8 3 75.1 3.5 C 75.14 3.51 75.2 3.5 75.2 3.5 L 75.2 0 Z M 82.1 7.5 C 82.1 8.1 82.4 8.7 83.1 8.7 C 83.7 8.7 84.6 8.3 84.4 6.1 C 83.4 6.2 82.1 6.1 82.1 7.5 Z M 84.5 8.5 C 84.5 8.5 84.45 8.46 84.4 8.5 C 84.1 9.2 83.6 9.5 82.8 9.5 C 81.4 9.5 81 8.6 81 7.4 C 81 5.4 83 5.3 84.4 5.3 C 84.5 4.5 84.5 3.5 83.3 3.5 C 82.6 3.5 82.2 4 82.3 4.7 C 82.3 4.7 81.2 4.7 81.2 4.7 C 81.2 3.2 82 2.7 83.4 2.7 C 85.1 2.7 85.5 3.6 85.5 4.7 C 85.5 4.7 85.5 7.9 85.5 7.9 C 85.5 8.4 85.6 8.9 85.6 9.4 C 85.64 9.41 84.5 9.4 84.5 9.4 L 84.5 8.5 Z M 91.8 2.6 L 90.4 2.6 L 91.4 0 L 92.3 0 L 91.8 2.6 Z M 93.9 2.6 L 92.5 2.6 L 93.6 0 L 94.5 0 L 93.9 2.6 Z M 98.5 3.6 C 97.3 3.6 97.2 5.1 97.2 5.9 C 97.2 8 97.7 8.5 98.5 8.5 C 99.8 8.5 99.7 7 99.7 6.1 C 99.7 5.1 99.8 3.6 98.5 3.6 Z M 99.7 2.8 L 100.8 2.8 C 100.8 2.8 100.79 10.07 100.8 10.1 C 100.8 11.5 99.8 11.9 98.4 11.9 C 97.3 11.9 96.3 11.3 96.4 10.1 C 96.4 10.1 97.6 10.1 97.6 10.1 C 97.6 10.8 98 11.1 98.6 11.1 C 99.3 11.1 99.7 10.6 99.7 10 C 99.72 9.96 99.7 8.6 99.7 8.6 C 99.7 8.6 99.68 8.59 99.7 8.6 C 99.4 9.1 98.8 9.4 98.2 9.4 C 96.5 9.4 96.1 7.9 96.1 5.9 C 96.1 2.9 97.6 2.7 98.2 2.7 C 98.9 2.7 99.4 3 99.7 3.7 C 99.7 3.65 99.7 3.7 99.7 3.7 L 99.7 2.8 Z M 106.4 5.8 C 106.4 4 105.9 3.6 105.1 3.6 C 104.2 3.6 103.7 4 103.7 5.8 C 103.7 7.9 104 8.7 105.1 8.7 C 106.2 8.7 106.4 7.9 106.4 5.8 Z M 102.6 6.2 C 102.6 4.3 102.8 2.7 105.1 2.7 C 107.3 2.7 107.6 4.3 107.6 6.2 C 107.6 9.1 106.5 9.5 105.1 9.5 C 103.7 9.5 102.6 9.1 102.6 6.2 Z M 112.9 5.8 C 112.9 4 112.4 3.6 111.6 3.6 C 110.7 3.6 110.2 4 110.2 5.8 C 110.2 7.9 110.5 8.7 111.6 8.7 C 112.7 8.7 112.9 7.9 112.9 5.8 Z M 109.1 6.2 C 109.1 4.3 109.3 2.7 111.6 2.7 C 113.8 2.7 114.1 4.3 114.1 6.2 C 114.1 9.1 113 9.5 111.6 9.5 C 110.2 9.5 109.1 9.1 109.1 6.2 Z M 118 3.6 C 116.8 3.6 116.7 4.5 116.7 6.3 C 116.7 7.2 116.7 8.7 118 8.7 C 119.2 8.7 119.2 7.2 119.2 5.9 C 119.2 5 119.2 3.6 118 3.6 Z M 119.2 0 L 120.3 0 L 120.3 9.4 L 119.2 9.4 L 119.2 8.6 C 119.2 8.6 119.2 8.63 119.2 8.6 C 118.8 9.2 118.4 9.5 117.7 9.5 C 116.6 9.5 115.6 9.1 115.6 6.2 C 115.6 4.6 115.6 2.7 117.7 2.7 C 118.4 2.7 118.8 3 119.2 3.5 C 119.18 3.51 119.2 3.5 119.2 3.5 L 119.2 0 Z M 122.7 0 L 124.1 0 L 123 2.6 L 122.1 2.6 L 122.7 0 Z M 124.9 0 L 126.3 0 L 125.2 2.6 L 124.3 2.6 L 124.9 0 Z M 134.6 5.8 C 134.6 4 134 3.6 133.2 3.6 C 132.4 3.6 131.8 4 131.8 5.8 C 131.8 7.9 132.1 8.7 133.2 8.7 C 134.3 8.7 134.6 7.9 134.6 5.8 Z M 130.7 6.2 C 130.7 4.3 130.9 2.7 133.2 2.7 C 135.5 2.7 135.7 4.3 135.7 6.2 C 135.7 9.1 134.6 9.5 133.2 9.5 C 131.8 9.5 130.7 9.1 130.7 6.2 Z M 138.5 3.8 C 138.5 3.8 138.54 3.83 138.5 3.8 C 139 2.8 139.5 2.7 140.6 2.7 C 140.6 2.7 140.6 3.8 140.6 3.8 C 140.5 3.8 140.4 3.8 140.3 3.8 C 140.2 3.8 140.1 3.8 140 3.8 C 138.8 3.8 138.5 4.7 138.5 5.5 C 138.51 5.54 138.5 9.4 138.5 9.4 L 137.4 9.4 L 137.4 2.8 L 138.5 2.8 L 138.5 3.8 Z M 145.9 2.6 L 144.5 2.6 L 145.6 0 L 146.5 0 L 145.9 2.6 Z M 148.1 2.6 L 146.7 2.6 L 147.7 0 L 148.6 0 L 148.1 2.6 Z M 154 5.7 C 154 3.8 153.5 3.5 152.7 3.5 C 152 3.5 151.4 3.8 151.4 5.7 C 151.4 5.7 154 5.7 154 5.7 Z M 151.4 6.5 C 151.4 8.3 151.9 8.7 152.8 8.7 C 153.5 8.7 153.9 8.1 153.9 7.4 C 153.9 7.4 155.1 7.4 155.1 7.4 C 155.1 8.9 154.2 9.5 152.8 9.5 C 151.4 9.5 150.3 9.1 150.3 6.2 C 150.3 4.3 150.5 2.7 152.8 2.7 C 154.7 2.7 155.1 3.7 155.1 5.9 C 155.13 5.92 155.1 6.5 155.1 6.5 C 155.1 6.5 151.43 6.47 151.4 6.5 Z M 161.6 9.4 L 160.2 9.4 L 158.7 6.7 L 157.3 9.4 L 156 9.4 L 158.1 6 L 156.2 2.8 L 157.6 2.8 L 158.8 5.2 L 160.1 2.8 L 161.4 2.8 L 159.5 6 L 161.6 9.4 Z M 166.1 5 C 166.1 3.9 165.6 3.6 165.2 3.6 C 164.4 3.6 163.8 4 163.8 5.8 C 163.8 7.9 164.1 8.7 165.2 8.7 C 165.4 8.7 166.2 8.4 166.1 7.2 C 166.1 7.2 167.3 7.2 167.3 7.2 C 167.3 9.1 165.9 9.5 165.2 9.5 C 163.8 9.5 162.7 9.1 162.7 6.2 C 162.7 4.3 162.9 2.7 165.2 2.7 C 166.5 2.7 167.3 3.5 167.2 5 C 167.2 5 166.1 5 166.1 5 Z M 172.8 5.7 C 172.8 3.8 172.2 3.5 171.5 3.5 C 170.8 3.5 170.2 3.8 170.2 5.7 C 170.2 5.7 172.8 5.7 172.8 5.7 Z M 170.2 6.5 C 170.2 8.3 170.7 8.7 171.5 8.7 C 172.3 8.7 172.6 8.1 172.7 7.4 C 172.7 7.4 173.8 7.4 173.8 7.4 C 173.8 8.9 172.9 9.5 171.6 9.5 C 170.2 9.5 169.1 9.1 169.1 6.2 C 169.1 4.3 169.3 2.7 171.6 2.7 C 173.4 2.7 173.9 3.7 173.9 5.9 C 173.9 5.92 173.9 6.5 173.9 6.5 C 173.9 6.5 170.21 6.47 170.2 6.5 Z M 176.7 9.4 L 175.6 9.4 L 175.6 0 L 176.7 0 L 176.7 9.4 Z M 179.6 9.4 L 178.5 9.4 L 178.5 0 L 179.6 0 L 179.6 9.4 Z M 185 5.7 C 185 3.8 184.5 3.5 183.7 3.5 C 183 3.5 182.5 3.8 182.5 5.7 C 182.5 5.7 185 5.7 185 5.7 Z M 182.5 6.5 C 182.5 8.3 183 8.7 183.8 8.7 C 184.5 8.7 184.9 8.1 184.9 7.4 C 184.9 7.4 186.1 7.4 186.1 7.4 C 186.1 8.9 185.2 9.5 183.8 9.5 C 182.4 9.5 181.3 9.1 181.3 6.2 C 181.3 4.3 181.6 2.7 183.8 2.7 C 185.7 2.7 186.2 3.7 186.2 5.9 C 186.17 5.92 186.2 6.5 186.2 6.5 C 186.2 6.5 182.48 6.47 182.5 6.5 Z M 191.5 9.4 C 191.5 9.4 191.5 4.86 191.5 4.9 C 191.5 4.2 191.3 3.6 190.3 3.6 C 189.2 3.6 189 4.6 189 5.5 C 189 5.52 189 9.4 189 9.4 L 187.9 9.4 C 187.9 9.4 187.94 4.21 187.9 4.2 C 187.9 3.8 187.9 3.3 187.9 2.8 C 187.87 2.85 189 2.8 189 2.8 L 189 3.7 C 189 3.7 189.06 3.69 189.1 3.7 C 189.5 3 190 2.7 190.8 2.7 C 192.2 2.7 192.6 3.6 192.6 4.9 C 192.57 4.86 192.6 9.4 192.6 9.4 L 191.5 9.4 Z M 194.6 2.8 L 194.6 1.6 L 195.6 1.1 L 195.6 2.8 L 197.1 2.8 L 197.1 3.7 L 195.6 3.7 C 195.6 3.7 195.62 7.67 195.6 7.7 C 195.6 8.1 195.6 8.6 196.6 8.6 C 196.7 8.6 196.8 8.6 197.1 8.6 C 197.1 8.6 197.1 9.4 197.1 9.4 C 196.7 9.4 196.4 9.5 196 9.5 C 195 9.5 194.6 9.1 194.6 8.3 C 194.56 8.32 194.6 3.7 194.6 3.7 L 193.5 3.7 L 193.5 2.8 L 194.6 2.8 Z M 198.5 0 L 199.9 0 L 198.8 2.6 L 197.9 2.6 L 198.5 0 Z M 200.7 0 L 202.1 0 L 201 2.6 L 200.1 2.6 L 200.7 0 Z " stroke="none" fill="#555555"/>  </g></svg>