<?xml version="1.0" standalone="no"?><!DOCTYPE svg PUBLIC "-//W3C//DTD SVG 1.1//EN" "http://www.w3.org/Graphics/SVG/1.1/DTD/svg11.dtd"><svg xmlns="http://www.w3.org/2000/svg" version="1.1" width="466.5px" height="41.4px" viewBox="0 -5 466.5 41.4" style="top:-5px">  <desc>Phase 3 VANGUARD outcome:1,2</desc>  <defs/>  <g id="Polygon201517">    <path d="M 3.4 5.1 C 3.4 5.1 4.78 5.1 4.8 5.1 C 5.5 5.1 6 4.3 6 3.6 C 6 2.6 5.7 1.8 4.7 1.8 C 4.66 1.81 3.4 1.8 3.4 1.8 L 3.4 5.1 Z M 1 0 C 1 0 5.38 0.03 5.4 0 C 7.6 0 8.4 1.4 8.4 3.5 C 8.4 4.8 8.1 6.9 5.2 6.9 C 5.23 6.88 3.4 6.9 3.4 6.9 L 3.4 11.6 L 1 11.6 L 1 0 Z M 15.2 4.7 L 15.2 0 L 17.6 0 L 17.6 11.6 L 15.2 11.6 L 15.2 6.4 L 12.4 6.4 L 12.4 11.6 L 10 11.6 L 10 0 L 12.4 0 L 12.4 4.7 L 15.2 4.7 Z M 18.8 11.6 L 22 0 L 25.2 0 L 28.3 11.6 L 25.8 11.6 L 25.1 9 L 21.8 9 L 21.2 11.6 L 18.8 11.6 Z M 23.5 2.3 L 23.4 2.3 L 22.3 7.2 L 24.6 7.2 L 23.5 2.3 Z M 32.6 11.8 C 29.6 11.8 29 10 29.2 8 C 29.2 8 31.6 8 31.6 8 C 31.6 9.1 31.6 10 33 10 C 33.8 10 34.2 9.5 34.2 8.7 C 34.2 6.7 29.3 6.5 29.3 3.1 C 29.3 1.3 30.2 -0.2 33.1 -0.2 C 35.5 -0.2 36.6 0.9 36.5 3.3 C 36.5 3.3 34.1 3.3 34.1 3.3 C 34.1 2.4 34 1.6 33 1.6 C 32.2 1.6 31.8 2 31.8 2.8 C 31.8 5 36.6 4.8 36.6 8.4 C 36.6 11.4 34.4 11.8 32.6 11.8 Z M 38.4 11.6 L 38.4 0 L 44.7 0 L 44.7 1.8 L 40.8 1.8 L 40.8 4.7 L 44.4 4.7 L 44.4 6.4 L 40.8 6.4 L 40.8 9.8 L 44.8 9.8 L 44.8 11.6 L 38.4 11.6 Z M 49.2 3.2 C 49.2 2 49.5 1.3 50 0.9 C 50.5 0.4 51.3 0.3 52.4 0.3 C 54.5 0.3 55.5 1.1 55.5 3.2 C 55.5 4.3 55.2 5.6 54 5.7 C 54 5.7 54 5.8 54 5.8 C 55.4 6 55.6 7.2 55.6 8.5 C 55.6 10.8 54.4 11.7 52.2 11.7 C 50 11.7 49.1 10.9 49.1 8.6 C 49.1 8.6 51.3 8.6 51.3 8.6 C 51.3 9.3 51.3 10.1 52.3 10.1 C 53.3 10.1 53.4 9.2 53.4 8.4 C 53.4 6.8 52.9 6.7 51.3 6.7 C 51.3 6.7 51.3 4.9 51.3 4.9 C 52.8 4.9 53.2 4.8 53.2 3.2 C 53.2 2.6 53.1 1.9 52.4 1.9 C 51.5 1.9 51.5 2.6 51.5 3.2 C 51.5 3.2 49.2 3.2 49.2 3.2 Z M 59.6 0 L 62.1 0 L 63.9 8.4 L 64 8.4 L 66 0 L 68.4 0 L 65.3 11.6 L 62.5 11.6 L 59.6 0 Z M 68 11.6 L 71.2 0 L 74.4 0 L 77.5 11.6 L 75 11.6 L 74.3 9 L 71 9 L 70.4 11.6 L 68 11.6 Z M 72.6 2.3 L 72.6 2.3 L 71.5 7.2 L 73.8 7.2 L 72.6 2.3 Z M 78.7 11.6 L 78.7 0 L 81.9 0 L 85 8 L 85 8 L 85 0 L 87.3 0 L 87.3 11.6 L 84.1 11.6 L 80.9 3.1 L 80.9 3.1 L 80.9 11.6 L 78.7 11.6 Z M 94.6 3.6 C 94.6 2.5 94.4 1.6 93.2 1.6 C 91.6 1.6 91.6 3.6 91.6 5.8 C 91.6 9.5 92 10.1 93.4 10.1 C 93.8 10.1 94.2 10 94.6 9.9 C 94.57 9.87 94.6 7.3 94.6 7.3 L 93.3 7.3 L 93.3 5.5 L 97 5.5 C 97 5.5 96.99 11.39 97 11.4 C 96.3 11.5 94.7 11.8 93.7 11.8 C 89.7 11.8 89.2 10.1 89.2 5.7 C 89.2 2.8 89.3 -0.2 93.3 -0.2 C 95.7 -0.2 97.1 1.2 97 3.6 C 97 3.6 94.6 3.6 94.6 3.6 Z M 106.9 0 C 106.9 0 106.89 8.22 106.9 8.2 C 106.9 10 105.9 11.8 103 11.8 C 100.3 11.8 99 10.4 99 8.2 C 99.04 8.22 99 0 99 0 L 101.5 0 C 101.5 0 101.45 8.06 101.5 8.1 C 101.5 9.5 102.1 10 102.9 10 C 104 10 104.5 9.3 104.5 8.1 C 104.48 8.06 104.5 0 104.5 0 L 106.9 0 Z M 108 11.6 L 111.2 0 L 114.4 0 L 117.5 11.6 L 115 11.6 L 114.3 9 L 111 9 L 110.4 11.6 L 108 11.6 Z M 112.6 2.3 L 112.6 2.3 L 111.5 7.2 L 113.8 7.2 L 112.6 2.3 Z M 121 5 C 121 5 122.08 5.02 122.1 5 C 123 5 123.3 4.1 123.3 3.3 C 123.3 2.2 122.8 1.8 122.1 1.8 C 122.08 1.81 121 1.8 121 1.8 L 121 5 Z M 121 11.6 L 118.6 11.6 L 118.6 0 C 118.6 0 123.05 0.03 123.1 0 C 124.7 0 125.8 1.1 125.8 3.1 C 125.8 4.5 125.2 5.6 123.6 5.9 C 123.6 5.9 123.6 5.9 123.6 5.9 C 124.1 6 125.7 6.1 125.7 8.2 C 125.7 8.9 125.8 11.1 126 11.6 C 126 11.6 123.6 11.6 123.6 11.6 C 123.3 10.9 123.4 10.1 123.4 9.3 C 123.4 8 123.5 6.8 121.6 6.8 C 121.63 6.8 121 6.8 121 6.8 L 121 11.6 Z M 130 9.8 C 130 9.8 131.17 9.81 131.2 9.8 C 132.6 9.8 132.9 8.7 132.9 5.8 C 132.9 3.7 132.9 1.8 131.2 1.8 C 131.25 1.81 130 1.8 130 1.8 L 130 9.8 Z M 127.6 0 C 127.6 0 131.61 0.03 131.6 0 C 134.8 0 135.4 2.1 135.4 5.7 C 135.4 7.5 135.6 11.6 131.5 11.6 C 131.52 11.58 127.6 11.6 127.6 11.6 L 127.6 0 Z M 146.3 5.8 C 146.3 2.8 146.1 1.6 144.7 1.6 C 143.4 1.6 143.2 2.8 143.2 5.8 C 143.2 8.8 143.4 10 144.7 10 C 146.1 10 146.3 8.8 146.3 5.8 Z M 140.8 5.8 C 140.8 2.8 140.8 -0.2 144.7 -0.2 C 148.7 -0.2 148.7 2.8 148.7 5.8 C 148.7 8.8 148.7 11.8 144.7 11.8 C 140.8 11.8 140.8 8.8 140.8 5.8 Z M 158.4 0 C 158.4 0 158.45 8.22 158.4 8.2 C 158.4 10 157.5 11.8 154.5 11.8 C 151.9 11.8 150.6 10.4 150.6 8.2 C 150.59 8.22 150.6 0 150.6 0 L 153 0 C 153 0 153.01 8.06 153 8.1 C 153 9.5 153.6 10 154.5 10 C 155.6 10 156 9.3 156 8.1 C 156.03 8.06 156 0 156 0 L 158.4 0 Z M 167.3 0 L 167.3 2 L 164.6 2 L 164.6 11.6 L 162.2 11.6 L 162.2 2 L 159.5 2 L 159.5 0 L 167.3 0 Z M 168.3 5.8 C 168.3 2.8 168.3 -0.2 172.3 -0.2 C 174.8 -0.2 175.7 1.2 175.6 3.7 C 175.6 3.7 173.3 3.7 173.3 3.7 C 173.3 2.1 173 1.6 172.3 1.6 C 170.9 1.6 170.8 2.8 170.8 5.8 C 170.8 8.8 170.9 10 172.3 10 C 173.4 10 173.4 8.6 173.4 7.7 C 173.4 7.7 175.8 7.7 175.8 7.7 C 175.8 10.8 174.5 11.8 172.3 11.8 C 168.3 11.8 168.3 8.8 168.3 5.8 Z M 182.7 5.8 C 182.7 2.8 182.5 1.6 181.2 1.6 C 179.8 1.6 179.6 2.8 179.6 5.8 C 179.6 8.8 179.8 10 181.2 10 C 182.5 10 182.7 8.8 182.7 5.8 Z M 177.2 5.8 C 177.2 2.8 177.2 -0.2 181.2 -0.2 C 185.2 -0.2 185.2 2.8 185.2 5.8 C 185.2 8.8 185.2 11.8 181.2 11.8 C 177.2 11.8 177.2 8.8 177.2 5.8 Z M 187 11.6 L 187 0 L 190.9 0 L 192.7 7.9 L 192.8 7.9 L 194.7 0 L 198.4 0 L 198.4 11.6 L 196.1 11.6 L 196.1 2.7 L 196.1 2.7 L 193.8 11.6 L 191.5 11.6 L 189.4 2.7 L 189.4 2.7 L 189.4 11.6 L 187 11.6 Z M 200.4 11.6 L 200.4 0 L 206.7 0 L 206.7 1.8 L 202.8 1.8 L 202.8 4.7 L 206.4 4.7 L 206.4 6.4 L 202.8 6.4 L 202.8 9.8 L 206.8 9.8 L 206.8 11.6 L 200.4 11.6 Z M 210.1 3.5 L 210.1 5.6 L 208.2 5.6 L 208.2 3.5 L 210.1 3.5 Z M 210.1 11.6 L 208.2 11.6 L 208.2 9.5 L 210.1 9.5 L 210.1 11.6 Z M 211.4 0.8 C 211.9 0.5 212.3 0.2 212.7 -0.3 C 212.67 -0.25 213.9 -0.3 213.9 -0.3 L 213.9 6.3 L 212.5 6.3 C 212.5 6.3 212.52 1.25 212.5 1.2 C 212.2 1.5 211.8 1.8 211.4 2 C 211.4 2 211.4 0.8 211.4 0.8 Z M 215.7 5 L 216.9 5 L 216.2 7.2 L 215.3 7.2 L 215.7 5 Z M 217.3 6.3 C 217.3 6.3 217.28 5.11 217.3 5.1 C 219.3 2.4 219.8 2.1 219.8 1.2 C 219.8 0.9 219.6 0.6 219.3 0.6 C 218.7 0.6 218.7 1.1 218.7 1.5 C 218.7 1.5 217.4 1.5 217.4 1.5 C 217.3 0.3 218 -0.3 219.2 -0.3 C 220.3 -0.3 221.1 0.1 221.1 1.3 C 221.1 2.8 219.4 4.5 218.7 5.2 C 218.66 5.25 221.1 5.2 221.1 5.2 L 221.1 6.3 L 217.3 6.3 Z " stroke="none" fill="#00b398"/>  </g></svg>