<?xml version="1.0" standalone="no"?><!DOCTYPE svg PUBLIC "-//W3C//DTD SVG 1.1//EN" "http://www.w3.org/Graphics/SVG/1.1/DTD/svg11.dtd"><svg xmlns="http://www.w3.org/2000/svg" version="1.1" width="106px" height="45.3px" viewBox="0 -5 106 45.3" style="top:-5px">  <desc>Follow up period 2 months</desc>  <defs/>  <g id="Polygon194530">    <path d="M 7.5 27.4 C 7.5 25.8 7.5 24.7 6.6 24.7 C 5.7 24.7 5.7 25.8 5.7 27.4 C 5.7 29.3 5.8 30.2 6.6 30.2 C 7.4 30.2 7.5 29.3 7.5 27.4 Z M 5.6 23.5 L 5.6 24.4 C 5.6 24.4 5.6 24.36 5.6 24.4 C 6 23.6 6.6 23.3 7.5 23.3 C 9.7 23.3 9.7 25.9 9.7 27.5 C 9.7 29.1 9.7 31.5 7.5 31.5 C 6.7 31.5 6.2 31.3 5.7 30.6 C 5.7 30.62 5.7 30.6 5.7 30.6 L 5.7 34.8 L 3.5 34.8 L 3.5 23.5 L 5.6 23.5 Z M 15.3 26.5 C 15.3 25.8 15.4 24.7 14.3 24.7 C 13.3 24.7 13.3 25.9 13.3 26.5 C 13.3 26.5 15.3 26.5 15.3 26.5 Z M 13.3 27.8 C 13.3 28.7 13.3 30.1 14.3 30.1 C 15.1 30.1 15.2 29.4 15.2 28.7 C 15.2 28.7 17.5 28.7 17.5 28.7 C 17.4 29.6 17.2 30.3 16.6 30.8 C 16.1 31.2 15.3 31.5 14.3 31.5 C 11.5 31.5 11.1 29.8 11.1 27.3 C 11.1 25.2 11.4 23.3 14.3 23.3 C 17.3 23.3 17.6 25.3 17.5 27.8 C 17.5 27.8 13.3 27.8 13.3 27.8 Z M 21.2 23.5 L 21.2 24.5 C 21.2 24.5 21.21 24.5 21.2 24.5 C 21.6 23.6 22.4 23.3 23.2 23.3 C 23.2 23.3 23.2 25.3 23.2 25.3 C 21.3 25.2 21.3 26.3 21.3 27.1 C 21.28 27.08 21.3 31.4 21.3 31.4 L 19.1 31.4 L 19.1 23.5 L 21.2 23.5 Z M 26.7 31.4 L 24.5 31.4 L 24.5 23.5 L 26.7 23.5 L 26.7 31.4 Z M 26.7 20.1 L 26.7 21.8 L 24.5 21.8 L 24.5 20.1 L 26.7 20.1 Z M 32.7 27.2 C 32.7 25.6 32.6 24.7 31.6 24.7 C 30.7 24.7 30.6 25.6 30.6 27.2 C 30.6 29.6 30.8 30.1 31.6 30.1 C 32.5 30.1 32.7 29.6 32.7 27.2 Z M 28.4 27.3 C 28.4 25.2 28.7 23.3 31.6 23.3 C 34.6 23.3 34.9 25.2 34.9 27.3 C 34.9 29.8 34.5 31.5 31.6 31.5 C 28.8 31.5 28.4 29.8 28.4 27.3 Z M 40.3 27.4 C 40.3 25.8 40.3 24.7 39.4 24.7 C 38.4 24.7 38.4 25.8 38.4 27.4 C 38.4 29.3 38.6 30.2 39.4 30.2 C 40.1 30.2 40.3 29.3 40.3 27.4 Z M 40.4 31.4 L 40.4 30.5 C 40.4 30.5 40.33 30.5 40.3 30.5 C 39.9 31.3 39.3 31.5 38.5 31.5 C 36.2 31.5 36.3 29 36.3 27.4 C 36.3 25.8 36.2 23.3 38.4 23.3 C 39.2 23.3 39.8 23.6 40.2 24.2 C 40.22 24.24 40.3 24.2 40.3 24.2 L 40.3 20.1 L 42.5 20.1 L 42.5 31.4 L 40.4 31.4 Z M 47 31.4 C 47 31.4 47.01 29.45 47 29.5 C 50.4 24.9 51.2 24.3 51.2 23 C 51.2 22.4 51 21.9 50.3 21.9 C 49.4 21.9 49.4 22.8 49.4 23.5 C 49.4 23.5 47.2 23.5 47.2 23.5 C 47 21.5 48.2 20.3 50.2 20.3 C 52.1 20.3 53.4 21.1 53.4 23.1 C 53.4 25.6 50.5 28.4 49.3 29.7 C 49.32 29.69 53.5 29.7 53.5 29.7 L 53.5 31.4 L 47 31.4 Z M 60.1 24.3 C 60.1 24.3 60.15 24.28 60.2 24.3 C 60.6 23.6 61.2 23.3 62 23.3 C 62.8 23.3 63.4 23.7 63.8 24.3 C 64.3 23.6 64.9 23.3 65.8 23.3 C 66.9 23.3 67.8 24 67.8 25 C 67.78 25.05 67.8 31.4 67.8 31.4 L 65.6 31.4 C 65.6 31.4 65.59 25.94 65.6 25.9 C 65.6 25.2 65.5 24.7 64.8 24.7 C 64.1 24.7 63.9 25.2 63.9 25.9 C 63.93 25.94 63.9 31.4 63.9 31.4 L 61.8 31.4 C 61.8 31.4 61.78 25.94 61.8 25.9 C 61.8 25.2 61.7 24.7 60.9 24.7 C 60.2 24.7 60.1 25.2 60.1 25.9 C 60.12 25.94 60.1 31.4 60.1 31.4 L 57.9 31.4 L 57.9 23.5 L 60.1 23.5 L 60.1 24.3 Z M 73.4 27.2 C 73.4 25.6 73.3 24.7 72.4 24.7 C 71.5 24.7 71.4 25.6 71.4 27.2 C 71.4 29.6 71.6 30.1 72.4 30.1 C 73.2 30.1 73.4 29.6 73.4 27.2 Z M 69.2 27.3 C 69.2 25.2 69.5 23.3 72.4 23.3 C 75.3 23.3 75.6 25.2 75.6 27.3 C 75.6 29.8 75.2 31.5 72.4 31.5 C 69.5 31.5 69.2 29.8 69.2 27.3 Z M 79.4 24.3 C 79.4 24.3 79.4 24.29 79.4 24.3 C 79.6 23.9 79.9 23.7 80.2 23.6 C 80.5 23.4 80.9 23.3 81.3 23.3 C 82.3 23.3 83.2 24 83.2 25 C 83.22 25.05 83.2 31.4 83.2 31.4 L 81 31.4 C 81 31.4 81.02 25.94 81 25.9 C 81 25.2 80.9 24.7 80.2 24.7 C 79.5 24.7 79.4 25.2 79.4 25.9 C 79.37 25.94 79.4 31.4 79.4 31.4 L 77.2 31.4 L 77.2 23.5 L 79.4 23.5 L 79.4 24.3 Z M 84.1 23.5 L 85 23.5 L 85 22.2 L 87.2 21.3 L 87.2 23.5 L 88.3 23.5 L 88.3 24.8 L 87.2 24.8 C 87.2 24.8 87.17 29.06 87.2 29.1 C 87.2 29.7 87.2 30 87.9 30 C 88 30 88.2 30 88.3 30 C 88.3 30 88.3 31.4 88.3 31.4 C 88 31.4 87.7 31.4 87.1 31.4 C 85.2 31.4 85 30.2 85 29.7 C 84.97 29.7 85 24.8 85 24.8 L 84.1 24.8 L 84.1 23.5 Z M 93.2 31.4 C 93.2 31.4 93.17 25.94 93.2 25.9 C 93.2 25.2 93 24.7 92.3 24.7 C 91.6 24.7 91.5 25.2 91.5 25.9 C 91.51 25.94 91.5 31.4 91.5 31.4 L 89.3 31.4 L 89.3 20.1 L 91.5 20.1 L 91.5 24.3 C 91.5 24.3 91.54 24.29 91.5 24.3 C 91.8 23.9 92 23.7 92.3 23.6 C 92.6 23.4 93 23.3 93.4 23.3 C 94.4 23.3 95.4 24 95.4 25 C 95.37 25.05 95.4 31.4 95.4 31.4 L 93.2 31.4 Z M 98.8 28.8 C 98.8 29.2 98.8 29.5 99 29.8 C 99.1 30 99.3 30.2 99.8 30.2 C 100.2 30.2 100.6 29.9 100.6 29.4 C 100.6 27.7 96.7 28.1 96.7 25.5 C 96.7 23.8 98.4 23.3 99.8 23.3 C 101.3 23.3 102.7 24.1 102.5 25.8 C 102.5 25.8 100.4 25.8 100.4 25.8 C 100.4 25.2 100.3 24.9 100.2 24.7 C 100 24.6 99.8 24.6 99.6 24.6 C 99.1 24.6 98.8 24.9 98.8 25.4 C 98.8 26.7 102.7 26.6 102.7 29.1 C 102.7 30.5 101.6 31.5 99.8 31.5 C 97.8 31.5 96.6 31 96.7 28.8 C 96.7 28.8 98.8 28.8 98.8 28.8 Z " stroke="none" fill="#003c71"/>  </g>  <g id="Polygon194529">    <path d="M 21.7 11.3 L 21.7 0 L 27.6 0 L 27.6 1.8 L 24.1 1.8 L 24.1 4.7 L 27.4 4.7 L 27.4 6.4 L 24.1 6.4 L 24.1 11.3 L 21.7 11.3 Z M 32.6 7.1 C 32.6 5.5 32.6 4.7 31.6 4.7 C 30.7 4.7 30.6 5.5 30.6 7.1 C 30.6 9.5 30.8 10.1 31.6 10.1 C 32.4 10.1 32.6 9.5 32.6 7.1 Z M 28.4 7.3 C 28.4 5.1 28.7 3.3 31.6 3.3 C 34.5 3.3 34.8 5.1 34.8 7.3 C 34.8 9.7 34.5 11.5 31.6 11.5 C 28.8 11.5 28.4 9.7 28.4 7.3 Z M 38.8 0 L 38.8 11.3 L 36.6 11.3 L 36.6 0 L 38.8 0 Z M 43.1 0 L 43.1 11.3 L 40.9 11.3 L 40.9 0 L 43.1 0 Z M 49.1 7.1 C 49.1 5.5 49.1 4.7 48.1 4.7 C 47.2 4.7 47.1 5.5 47.1 7.1 C 47.1 9.5 47.3 10.1 48.1 10.1 C 48.9 10.1 49.1 9.5 49.1 7.1 Z M 44.9 7.3 C 44.9 5.1 45.2 3.3 48.1 3.3 C 51 3.3 51.3 5.1 51.3 7.3 C 51.3 9.7 51 11.5 48.1 11.5 C 45.3 11.5 44.9 9.7 44.9 7.3 Z M 52.2 3.4 L 54.4 3.4 L 55.5 9.4 L 55.5 9.4 L 57 3.4 L 59.3 3.4 L 60.7 9.4 L 60.7 9.4 L 61.9 3.4 L 64 3.4 L 61.9 11.3 L 59.5 11.3 L 58.1 5.9 L 58.1 5.9 L 56.5 11.3 L 54.2 11.3 L 52.2 3.4 Z M 68.7 6.3 L 68.7 7.9 L 64.9 7.9 L 64.9 6.3 L 68.7 6.3 Z M 74.1 10.5 C 74.1 10.5 74.06 10.5 74.1 10.5 C 73.8 10.8 73.6 11.1 73.3 11.2 C 73 11.4 72.6 11.5 72.2 11.5 C 71.2 11.5 70.2 10.8 70.2 9.7 C 70.24 9.74 70.2 3.4 70.2 3.4 L 72.4 3.4 C 72.4 3.4 72.44 8.88 72.4 8.9 C 72.4 9.6 72.6 10.1 73.3 10.1 C 74 10.1 74.1 9.6 74.1 8.9 C 74.09 8.88 74.1 3.4 74.1 3.4 L 76.3 3.4 C 76.3 3.4 76.29 9.74 76.3 9.7 C 76.3 10.3 76.3 10.8 76.4 11.3 C 76.37 11.3 74.1 11.3 74.1 11.3 L 74.1 10.5 Z M 82.1 7.3 C 82.1 5.7 82.1 4.6 81.1 4.6 C 80.2 4.6 80.2 5.7 80.2 7.3 C 80.2 9.3 80.4 10.1 81.1 10.1 C 81.9 10.1 82.1 9.3 82.1 7.3 Z M 80.1 3.4 L 80.1 4.3 C 80.1 4.3 80.16 4.29 80.2 4.3 C 80.6 3.5 81.2 3.3 82 3.3 C 84.3 3.3 84.2 5.8 84.2 7.4 C 84.2 9 84.3 11.5 82.1 11.5 C 81.3 11.5 80.7 11.2 80.3 10.6 C 80.27 10.55 80.2 10.6 80.2 10.6 L 80.2 14.7 L 78 14.7 L 78 3.4 L 80.1 3.4 Z " stroke="none" fill="#003c71"/>  </g></svg>