<?xml version="1.0" standalone="no"?><!DOCTYPE svg PUBLIC "-//W3C//DTD SVG 1.1//EN" "http://www.w3.org/Graphics/SVG/1.1/DTD/svg11.dtd"><svg xmlns="http://www.w3.org/2000/svg" version="1.1" width="161.2px" height="115.7px" viewBox="0 0 161.2 115.7">  <desc>May require ongoing use of medication to manage the disease1,3</desc>  <defs/>  <g id="Polygon197389">    <path d="M 9.4 60.4 C 9.4 60.4 9.48 60.39 9.5 60.4 C 10 59.6 10.6 59.4 11.5 59.4 C 12.3 59.4 13 59.8 13.4 60.4 C 14 59.7 14.7 59.4 15.6 59.4 C 16.8 59.4 17.8 60 17.8 61.2 C 17.79 61.22 17.8 68.1 17.8 68.1 L 15.4 68.1 C 15.4 68.1 15.39 62.19 15.4 62.2 C 15.4 61.4 15.3 60.8 14.5 60.8 C 13.7 60.8 13.6 61.4 13.6 62.2 C 13.59 62.19 13.6 68.1 13.6 68.1 L 11.2 68.1 C 11.2 68.1 11.24 62.19 11.2 62.2 C 11.2 61.4 11.1 60.8 10.3 60.8 C 9.6 60.8 9.4 61.4 9.4 62.2 C 9.44 62.19 9.4 68.1 9.4 68.1 L 7 68.1 L 7 59.5 L 9.4 59.5 L 9.4 60.4 Z M 21.6 65.4 C 21.6 66.1 21.7 66.8 22.5 66.8 C 23.9 66.8 23.7 64.9 23.7 64 C 22.5 64 21.6 63.9 21.6 65.4 Z M 26 66.5 C 26 67 26.1 67.6 26.1 68.1 C 26.13 68.11 23.9 68.1 23.9 68.1 L 23.8 67 C 23.8 67 23.77 66.97 23.8 67 C 23.3 67.9 22.6 68.3 21.5 68.3 C 19.9 68.3 19.2 67 19.2 65.5 C 19.2 62.7 21.4 62.6 23.7 62.6 C 23.7 62.6 23.7 62 23.7 62 C 23.7 61.2 23.6 60.7 22.7 60.7 C 21.9 60.7 21.8 61.3 21.8 62 C 21.8 62 19.5 62 19.5 62 C 19.5 61 19.8 60.3 20.3 59.9 C 20.9 59.5 21.7 59.4 22.6 59.4 C 25.6 59.4 26 60.7 26 62.2 C 26 62.2 26 66.5 26 66.5 Z M 30.4 60.4 C 30.4 60.4 30.44 60.39 30.4 60.4 C 30.7 60 31 59.7 31.3 59.6 C 31.6 59.4 32 59.4 32.5 59.4 C 33.6 59.4 34.6 60 34.6 61.2 C 34.6 61.22 34.6 68.1 34.6 68.1 L 32.2 68.1 C 32.2 68.1 32.2 62.19 32.2 62.2 C 32.2 61.4 32.1 60.8 31.3 60.8 C 30.5 60.8 30.4 61.4 30.4 62.2 C 30.4 62.19 30.4 68.1 30.4 68.1 L 28 68.1 L 28 59.5 L 30.4 59.5 L 30.4 60.4 Z M 38.6 65.4 C 38.6 66.1 38.7 66.8 39.5 66.8 C 40.9 66.8 40.7 64.9 40.7 64 C 39.5 64 38.6 63.9 38.6 65.4 Z M 43 66.5 C 43 67 43.1 67.6 43.1 68.1 C 43.13 68.11 40.9 68.1 40.9 68.1 L 40.8 67 C 40.8 67 40.77 66.97 40.8 67 C 40.3 67.9 39.6 68.3 38.5 68.3 C 36.9 68.3 36.2 67 36.2 65.5 C 36.2 62.7 38.4 62.6 40.7 62.6 C 40.7 62.6 40.7 62 40.7 62 C 40.7 61.2 40.6 60.7 39.7 60.7 C 38.9 60.7 38.8 61.3 38.8 62 C 38.8 62 36.5 62 36.5 62 C 36.5 61 36.8 60.3 37.3 59.9 C 37.9 59.5 38.7 59.4 39.6 59.4 C 42.6 59.4 43 60.7 43 62.2 C 43 62.2 43 66.5 43 66.5 Z M 48.2 66.5 C 49.1 66.5 49.2 65.6 49.2 63.8 C 49.2 61.9 49.1 60.8 48.2 60.8 C 47.3 60.8 47.1 61.5 47.1 64.1 C 47.1 64.9 47 66.5 48.2 66.5 Z M 51.6 59.5 C 51.6 59.5 51.57 68.46 51.6 68.5 C 51.6 69.1 51.6 71.4 48.3 71.4 C 46.5 71.4 45 70.9 44.9 68.9 C 44.9 68.9 47.3 68.9 47.3 68.9 C 47.3 69.2 47.3 69.5 47.5 69.7 C 47.6 69.9 47.9 70.1 48.3 70.1 C 48.9 70.1 49.2 69.5 49.2 68.6 C 49.17 68.63 49.2 67 49.2 67 C 49.2 67 49.14 66.99 49.1 67 C 48.8 67.6 48.1 68 47.3 68 C 44.7 68 44.8 65.6 44.8 63.6 C 44.8 61.7 44.8 59.4 47.3 59.4 C 48.2 59.4 48.9 59.7 49.3 60.5 C 49.25 60.53 49.3 60.5 49.3 60.5 L 49.3 59.5 L 51.6 59.5 Z M 57.9 62.9 C 57.9 62 57.9 60.8 56.8 60.8 C 55.7 60.8 55.7 62.1 55.7 62.9 C 55.7 62.9 57.9 62.9 57.9 62.9 Z M 55.7 64.2 C 55.7 65.2 55.7 66.7 56.8 66.7 C 57.7 66.7 57.8 65.9 57.8 65.2 C 57.8 65.2 60.3 65.2 60.3 65.2 C 60.2 66.2 59.9 66.9 59.3 67.4 C 58.8 68 57.9 68.3 56.8 68.3 C 53.7 68.3 53.3 66.4 53.3 63.7 C 53.3 61.4 53.6 59.4 56.8 59.4 C 60 59.4 60.4 61.4 60.3 64.2 C 60.3 64.2 55.7 64.2 55.7 64.2 Z M 64.8 59.5 L 65.8 59.5 L 65.8 58.2 L 68.2 57.1 L 68.2 59.5 L 69.4 59.5 L 69.4 61 L 68.2 61 C 68.2 61 68.18 65.59 68.2 65.6 C 68.2 66.2 68.2 66.7 68.9 66.7 C 69.1 66.7 69.2 66.7 69.4 66.6 C 69.4 66.6 69.4 68.1 69.4 68.1 C 69 68.1 68.7 68.2 68.1 68.2 C 66.1 68.2 65.8 66.8 65.8 66.3 C 65.78 66.29 65.8 61 65.8 61 L 64.8 61 L 64.8 59.5 Z M 74.7 68.1 C 74.7 68.1 74.7 62.19 74.7 62.2 C 74.7 61.4 74.6 60.8 73.8 60.8 C 73 60.8 72.9 61.4 72.9 62.2 C 72.9 62.19 72.9 68.1 72.9 68.1 L 70.5 68.1 L 70.5 55.8 L 72.9 55.8 L 72.9 60.4 C 72.9 60.4 72.94 60.39 72.9 60.4 C 73.2 60 73.5 59.7 73.8 59.6 C 74.1 59.4 74.5 59.4 75 59.4 C 76.1 59.4 77.1 60 77.1 61.2 C 77.1 61.22 77.1 68.1 77.1 68.1 L 74.7 68.1 Z M 83.4 62.9 C 83.4 62 83.4 60.8 82.3 60.8 C 81.2 60.8 81.2 62.1 81.2 62.9 C 81.2 62.9 83.4 62.9 83.4 62.9 Z M 81.2 64.2 C 81.2 65.2 81.2 66.7 82.3 66.7 C 83.2 66.7 83.3 65.9 83.3 65.2 C 83.3 65.2 85.8 65.2 85.8 65.2 C 85.7 66.2 85.4 66.9 84.8 67.4 C 84.3 68 83.4 68.3 82.3 68.3 C 79.2 68.3 78.8 66.4 78.8 63.7 C 78.8 61.4 79.1 59.4 82.3 59.4 C 85.5 59.4 85.9 61.4 85.8 64.2 C 85.8 64.2 81.2 64.2 81.2 64.2 Z M 95.4 63.7 C 95.4 62 95.5 60.8 94.5 60.8 C 93.4 60.8 93.5 62 93.5 63.7 C 93.5 65.9 93.6 66.8 94.5 66.8 C 95.3 66.8 95.4 65.9 95.4 63.7 Z M 95.6 68.1 L 95.6 67.2 C 95.6 67.2 95.53 67.16 95.5 67.2 C 95.1 68 94.4 68.3 93.5 68.3 C 91 68.3 91.1 65.5 91.1 63.8 C 91.1 62 91 59.4 93.5 59.4 C 94.3 59.4 94.9 59.6 95.4 60.3 C 95.41 60.34 95.4 60.3 95.4 60.3 L 95.4 55.8 L 97.8 55.8 L 97.8 68.1 L 95.6 68.1 Z M 102.4 68.1 L 100 68.1 L 100 59.5 L 102.4 59.5 L 102.4 68.1 Z M 102.4 55.8 L 102.4 57.7 L 100 57.7 L 100 55.8 L 102.4 55.8 Z M 106.4 65.4 C 106.4 65.7 106.4 66.1 106.5 66.4 C 106.6 66.7 106.9 66.8 107.4 66.8 C 107.9 66.8 108.3 66.5 108.3 65.9 C 108.3 64.1 104 64.5 104 61.8 C 104 59.9 105.9 59.4 107.4 59.4 C 109.1 59.4 110.5 60.1 110.4 62 C 110.4 62 108.1 62 108.1 62 C 108.1 61.4 108 61 107.8 60.9 C 107.7 60.7 107.5 60.7 107.2 60.7 C 106.7 60.7 106.4 61 106.4 61.6 C 106.4 63 110.6 62.9 110.6 65.7 C 110.6 67.2 109.4 68.3 107.4 68.3 C 105.3 68.3 103.9 67.8 104 65.4 C 104 65.4 106.4 65.4 106.4 65.4 Z M 116.5 62.9 C 116.5 62 116.5 60.8 115.4 60.8 C 114.2 60.8 114.3 62.1 114.3 62.9 C 114.3 62.9 116.5 62.9 116.5 62.9 Z M 114.3 64.2 C 114.3 65.2 114.3 66.7 115.4 66.7 C 116.2 66.7 116.4 65.9 116.4 65.2 C 116.4 65.2 118.8 65.2 118.8 65.2 C 118.8 66.2 118.5 66.9 117.9 67.4 C 117.3 68 116.5 68.3 115.4 68.3 C 112.3 68.3 111.8 66.4 111.8 63.7 C 111.8 61.4 112.2 59.4 115.4 59.4 C 118.6 59.4 118.9 61.4 118.9 64.2 C 118.9 64.2 114.3 64.2 114.3 64.2 Z M 122.6 65.4 C 122.6 66.1 122.7 66.8 123.5 66.8 C 124.9 66.8 124.7 64.9 124.7 64 C 123.5 64 122.6 63.9 122.6 65.4 Z M 127.1 66.5 C 127.1 67 127.1 67.6 127.2 68.1 C 127.18 68.11 125 68.1 125 68.1 L 124.9 67 C 124.9 67 124.82 66.97 124.8 67 C 124.3 67.9 123.6 68.3 122.6 68.3 C 120.9 68.3 120.3 67 120.3 65.5 C 120.3 62.7 122.5 62.6 124.7 62.6 C 124.7 62.6 124.7 62 124.7 62 C 124.7 61.2 124.6 60.7 123.7 60.7 C 122.9 60.7 122.8 61.3 122.8 62 C 122.8 62 120.5 62 120.5 62 C 120.5 61 120.8 60.3 121.4 59.9 C 121.9 59.5 122.7 59.4 123.6 59.4 C 126.7 59.4 127.1 60.7 127.1 62.2 C 127.1 62.2 127.1 66.5 127.1 66.5 Z M 130.9 65.4 C 130.9 65.7 130.9 66.1 131.1 66.4 C 131.2 66.7 131.4 66.8 131.9 66.8 C 132.4 66.8 132.8 66.5 132.8 65.9 C 132.8 64.1 128.6 64.5 128.6 61.8 C 128.6 59.9 130.4 59.4 132 59.4 C 133.6 59.4 135.1 60.1 135 62 C 135 62 132.6 62 132.6 62 C 132.6 61.4 132.5 61 132.4 60.9 C 132.2 60.7 132 60.7 131.8 60.7 C 131.2 60.7 130.9 61 130.9 61.6 C 130.9 63 135.2 62.9 135.2 65.7 C 135.2 67.2 133.9 68.3 131.9 68.3 C 129.9 68.3 128.5 67.8 128.6 65.4 C 128.6 65.4 130.9 65.4 130.9 65.4 Z M 141 62.9 C 141 62 141 60.8 139.9 60.8 C 138.8 60.8 138.8 62.1 138.8 62.9 C 138.8 62.9 141 62.9 141 62.9 Z M 138.8 64.2 C 138.8 65.2 138.8 66.7 139.9 66.7 C 140.7 66.7 140.9 65.9 140.9 65.2 C 140.9 65.2 143.3 65.2 143.3 65.2 C 143.3 66.2 143 66.9 142.4 67.4 C 141.9 68 141 68.3 139.9 68.3 C 136.8 68.3 136.4 66.4 136.4 63.7 C 136.4 61.4 136.7 59.4 139.9 59.4 C 143.1 59.4 143.5 61.4 143.4 64.2 C 143.4 64.2 138.8 64.2 138.8 64.2 Z M 144.6 56.6 C 145.1 56.3 145.6 56 146 55.5 C 145.97 55.53 147.3 55.5 147.3 55.5 L 147.3 62.4 L 145.8 62.4 C 145.8 62.4 145.8 57.13 145.8 57.1 C 145.4 57.4 145 57.7 144.6 57.9 C 144.6 57.9 144.6 56.6 144.6 56.6 Z M 149.1 61.1 L 150.4 61.1 L 149.6 63.4 L 148.7 63.4 L 149.1 61.1 Z M 150.7 57.3 C 150.7 56.5 150.9 56.1 151.2 55.8 C 151.5 55.5 152 55.4 152.7 55.4 C 154 55.4 154.6 56 154.6 57.3 C 154.6 57.9 154.4 58.7 153.7 58.8 C 153.7 58.8 153.7 58.8 153.7 58.8 C 154.6 59 154.7 59.7 154.7 60.5 C 154.7 62 154 62.5 152.6 62.5 C 151.2 62.5 150.7 62.1 150.7 60.6 C 150.7 60.6 152.1 60.6 152.1 60.6 C 152.1 61 152 61.5 152.7 61.5 C 153.3 61.5 153.3 60.9 153.3 60.5 C 153.3 59.5 153 59.4 152 59.4 C 152 59.4 152 58.3 152 58.3 C 152.9 58.3 153.2 58.2 153.2 57.3 C 153.2 56.9 153.2 56.5 152.7 56.5 C 152.2 56.5 152.1 56.9 152.1 57.3 C 152.1 57.3 150.7 57.3 150.7 57.3 Z " stroke="none" fill="#003c71"/>  </g>  <g id="Polygon197388">    <path d="M 15.9 46.8 C 15.9 46.8 15.85 46.84 15.8 46.8 C 15.6 47.2 15.3 47.5 15 47.6 C 14.7 47.8 14.3 47.9 13.8 47.9 C 12.7 47.9 11.7 47.2 11.7 46 C 11.68 46.01 11.7 39.1 11.7 39.1 L 14.1 39.1 C 14.1 39.1 14.08 45.07 14.1 45.1 C 14.1 45.8 14.2 46.4 15 46.4 C 15.7 46.4 15.9 45.8 15.9 45.1 C 15.88 45.07 15.9 39.1 15.9 39.1 L 18.3 39.1 C 18.3 39.1 18.28 46.01 18.3 46 C 18.3 46.6 18.3 47.1 18.4 47.7 C 18.36 47.71 15.9 47.7 15.9 47.7 L 15.9 46.8 Z M 22.1 45 C 22.1 45.3 22.1 45.7 22.2 46 C 22.3 46.3 22.6 46.4 23.1 46.4 C 23.5 46.4 23.9 46.1 23.9 45.5 C 23.9 43.7 19.7 44.1 19.7 41.4 C 19.7 39.5 21.6 39 23.1 39 C 24.7 39 26.2 39.7 26.1 41.6 C 26.1 41.6 23.7 41.6 23.7 41.6 C 23.7 41 23.7 40.6 23.5 40.5 C 23.3 40.3 23.1 40.3 22.9 40.3 C 22.4 40.3 22.1 40.6 22.1 41.2 C 22.1 42.6 26.3 42.5 26.3 45.3 C 26.3 46.8 25.1 47.9 23.1 47.9 C 21 47.9 19.6 47.4 19.7 45 C 19.7 45 22.1 45 22.1 45 Z M 32.1 42.5 C 32.1 41.6 32.2 40.4 31 40.4 C 29.9 40.4 29.9 41.7 29.9 42.5 C 29.9 42.5 32.1 42.5 32.1 42.5 Z M 29.9 43.8 C 29.9 44.8 30 46.3 31 46.3 C 31.9 46.3 32 45.5 32 44.8 C 32 44.8 34.5 44.8 34.5 44.8 C 34.4 45.8 34.1 46.5 33.6 47 C 33 47.6 32.1 47.9 31 47.9 C 27.9 47.9 27.5 46 27.5 43.3 C 27.5 41 27.9 39 31 39 C 34.3 39 34.6 41 34.5 43.8 C 34.5 43.8 29.9 43.8 29.9 43.8 Z M 44.4 43.2 C 44.4 41.4 44.3 40.5 43.3 40.5 C 42.3 40.5 42.2 41.4 42.2 43.2 C 42.2 45.8 42.4 46.3 43.3 46.3 C 44.2 46.3 44.4 45.8 44.4 43.2 Z M 39.8 43.3 C 39.8 41 40.1 39 43.3 39 C 46.5 39 46.8 41 46.8 43.3 C 46.8 46 46.4 47.9 43.3 47.9 C 40.2 47.9 39.8 46 39.8 43.3 Z M 52.2 36.9 C 51.2 36.8 51 37.2 51 38.1 C 51.02 38.09 51 39.1 51 39.1 L 52.1 39.1 L 52.1 40.6 L 51 40.6 L 51 47.7 L 48.6 47.7 L 48.6 40.6 L 47.5 40.6 L 47.5 39.1 C 47.5 39.1 48.64 39.12 48.6 39.1 C 48.6 36.7 48.4 35.3 51.3 35.3 C 51.6 35.3 51.9 35.4 52.2 35.4 C 52.2 35.4 52.2 36.9 52.2 36.9 Z M 59.2 40 C 59.2 40 59.25 39.99 59.2 40 C 59.7 39.2 60.4 39 61.3 39 C 62.1 39 62.8 39.4 63.2 40 C 63.8 39.3 64.4 39 65.4 39 C 66.6 39 67.6 39.6 67.6 40.8 C 67.56 40.82 67.6 47.7 67.6 47.7 L 65.2 47.7 C 65.2 47.7 65.16 41.79 65.2 41.8 C 65.2 41 65 40.4 64.3 40.4 C 63.5 40.4 63.4 41 63.4 41.8 C 63.36 41.79 63.4 47.7 63.4 47.7 L 61 47.7 C 61 47.7 61.01 41.79 61 41.8 C 61 41 60.9 40.4 60.1 40.4 C 59.3 40.4 59.2 41 59.2 41.8 C 59.21 41.79 59.2 47.7 59.2 47.7 L 56.8 47.7 L 56.8 39.1 L 59.2 39.1 L 59.2 40 Z M 73.7 42.5 C 73.7 41.6 73.7 40.4 72.6 40.4 C 71.5 40.4 71.5 41.7 71.5 42.5 C 71.5 42.5 73.7 42.5 73.7 42.5 Z M 71.5 43.8 C 71.5 44.8 71.5 46.3 72.6 46.3 C 73.4 46.3 73.6 45.5 73.6 44.8 C 73.6 44.8 76 44.8 76 44.8 C 76 45.8 75.7 46.5 75.1 47 C 74.5 47.6 73.7 47.9 72.6 47.9 C 69.5 47.9 69.1 46 69.1 43.3 C 69.1 41 69.4 39 72.6 39 C 75.8 39 76.2 41 76.1 43.8 C 76.1 43.8 71.5 43.8 71.5 43.8 Z M 81.9 43.3 C 81.9 41.6 82 40.4 81 40.4 C 79.9 40.4 80 41.6 80 43.3 C 80 45.5 80.1 46.4 81 46.4 C 81.8 46.4 81.9 45.5 81.9 43.3 Z M 82.1 47.7 L 82.1 46.8 C 82.1 46.8 82.03 46.76 82 46.8 C 81.6 47.6 80.9 47.9 80 47.9 C 77.5 47.9 77.6 45.1 77.6 43.4 C 77.6 41.6 77.5 39 80 39 C 80.8 39 81.4 39.2 81.9 39.9 C 81.91 39.94 81.9 39.9 81.9 39.9 L 81.9 35.4 L 84.3 35.4 L 84.3 47.7 L 82.1 47.7 Z M 88.9 47.7 L 86.5 47.7 L 86.5 39.1 L 88.9 39.1 L 88.9 47.7 Z M 88.9 35.4 L 88.9 37.3 L 86.5 37.3 L 86.5 35.4 L 88.9 35.4 Z M 95.4 42.2 C 95.4 40.9 95 40.5 94.3 40.5 C 93.3 40.5 93.2 41.4 93.2 43.2 C 93.2 45.8 93.4 46.3 94.3 46.3 C 95 46.3 95.4 45.7 95.4 44.5 C 95.4 44.5 97.8 44.5 97.8 44.5 C 97.8 46.9 96.5 47.9 94.3 47.9 C 91.2 47.9 90.8 46 90.8 43.3 C 90.8 41 91.1 39 94.3 39 C 96.5 39 97.8 39.9 97.8 42.2 C 97.8 42.2 95.4 42.2 95.4 42.2 Z M 101.6 45 C 101.6 45.7 101.7 46.4 102.5 46.4 C 103.9 46.4 103.7 44.5 103.7 43.6 C 102.5 43.6 101.6 43.5 101.6 45 Z M 106 46.1 C 106 46.6 106.1 47.2 106.1 47.7 C 106.13 47.71 103.9 47.7 103.9 47.7 L 103.8 46.6 C 103.8 46.6 103.77 46.57 103.8 46.6 C 103.3 47.5 102.6 47.9 101.5 47.9 C 99.9 47.9 99.2 46.6 99.2 45.1 C 99.2 42.3 101.4 42.2 103.7 42.2 C 103.7 42.2 103.7 41.6 103.7 41.6 C 103.7 40.8 103.6 40.3 102.7 40.3 C 101.9 40.3 101.8 40.9 101.8 41.6 C 101.8 41.6 99.5 41.6 99.5 41.6 C 99.5 40.6 99.8 39.9 100.3 39.5 C 100.9 39.1 101.7 39 102.6 39 C 105.6 39 106 40.3 106 41.8 C 106 41.8 106 46.1 106 46.1 Z M 107 39.1 L 108 39.1 L 108 37.8 L 110.4 36.7 L 110.4 39.1 L 111.6 39.1 L 111.6 40.6 L 110.4 40.6 C 110.4 40.6 110.4 45.19 110.4 45.2 C 110.4 45.8 110.4 46.3 111.2 46.3 C 111.3 46.3 111.5 46.3 111.6 46.2 C 111.6 46.2 111.6 47.7 111.6 47.7 C 111.3 47.7 110.9 47.8 110.3 47.8 C 108.3 47.8 108 46.4 108 45.9 C 108 45.89 108 40.6 108 40.6 L 107 40.6 L 107 39.1 Z M 115.3 47.7 L 112.9 47.7 L 112.9 39.1 L 115.3 39.1 L 115.3 47.7 Z M 115.3 35.4 L 115.3 37.3 L 112.9 37.3 L 112.9 35.4 L 115.3 35.4 Z M 121.9 43.2 C 121.9 41.4 121.8 40.5 120.8 40.5 C 119.7 40.5 119.6 41.4 119.6 43.2 C 119.6 45.8 119.9 46.3 120.8 46.3 C 121.6 46.3 121.9 45.8 121.9 43.2 Z M 117.2 43.3 C 117.2 41 117.6 39 120.8 39 C 123.9 39 124.3 41 124.3 43.3 C 124.3 46 123.8 47.9 120.8 47.9 C 117.7 47.9 117.2 46 117.2 43.3 Z M 128.4 40 C 128.4 40 128.38 39.99 128.4 40 C 128.6 39.6 128.9 39.3 129.2 39.2 C 129.6 39 130 39 130.4 39 C 131.5 39 132.5 39.6 132.5 40.8 C 132.55 40.82 132.5 47.7 132.5 47.7 L 130.2 47.7 C 130.2 47.7 130.15 41.79 130.2 41.8 C 130.2 41 130 40.4 129.3 40.4 C 128.5 40.4 128.4 41 128.4 41.8 C 128.35 41.79 128.4 47.7 128.4 47.7 L 126 47.7 L 126 39.1 L 128.4 39.1 L 128.4 40 Z M 137.3 39.1 L 138.2 39.1 L 138.2 37.8 L 140.6 36.7 L 140.6 39.1 L 141.9 39.1 L 141.9 40.6 L 140.6 40.6 C 140.6 40.6 140.62 45.19 140.6 45.2 C 140.6 45.8 140.6 46.3 141.4 46.3 C 141.5 46.3 141.7 46.3 141.8 46.2 C 141.8 46.2 141.8 47.7 141.8 47.7 C 141.5 47.7 141.2 47.8 140.6 47.8 C 138.5 47.8 138.2 46.4 138.2 45.9 C 138.23 45.89 138.2 40.6 138.2 40.6 L 137.3 40.6 L 137.3 39.1 Z M 147.4 43.2 C 147.4 41.4 147.3 40.5 146.3 40.5 C 145.2 40.5 145.1 41.4 145.1 43.2 C 145.1 45.8 145.4 46.3 146.3 46.3 C 147.1 46.3 147.4 45.8 147.4 43.2 Z M 142.7 43.3 C 142.7 41 143.1 39 146.3 39 C 149.4 39 149.8 41 149.8 43.3 C 149.8 46 149.3 47.9 146.3 47.9 C 143.2 47.9 142.7 46 142.7 43.3 Z " stroke="none" fill="#003c71"/>  </g>  <g id="Polygon197387">    <path d="M 9.9 27.3 L 9.9 15 L 14 15 L 15.9 23.4 L 16 23.4 L 18 15 L 22 15 L 22 27.3 L 19.5 27.3 L 19.5 17.8 L 19.5 17.8 L 17.1 27.3 L 14.6 27.3 L 12.4 17.8 L 12.4 17.8 L 12.4 27.3 L 9.9 27.3 Z M 26.1 24.6 C 26.1 25.3 26.2 26 26.9 26 C 28.3 26 28.1 24.1 28.1 23.2 C 26.9 23.2 26.1 23.1 26.1 24.6 Z M 30.5 25.7 C 30.5 26.2 30.5 26.8 30.6 27.3 C 30.59 27.31 28.4 27.3 28.4 27.3 L 28.3 26.2 C 28.3 26.2 28.23 26.17 28.2 26.2 C 27.7 27.1 27 27.5 26 27.5 C 24.3 27.5 23.7 26.2 23.7 24.7 C 23.7 21.9 25.9 21.8 28.1 21.8 C 28.1 21.8 28.1 21.2 28.1 21.2 C 28.1 20.4 28 19.9 27.2 19.9 C 26.3 19.9 26.3 20.5 26.3 21.2 C 26.3 21.2 23.9 21.2 23.9 21.2 C 23.9 20.2 24.2 19.5 24.8 19.1 C 25.3 18.7 26.1 18.6 27 18.6 C 30.1 18.6 30.5 19.9 30.5 21.4 C 30.5 21.4 30.5 25.7 30.5 25.7 Z M 34 27.4 L 31.7 18.7 L 34 18.7 L 35.3 24.8 L 35.3 24.8 L 36.6 18.7 L 38.9 18.7 L 35.6 30.6 L 33.1 30.6 L 34 27.4 Z M 46.1 18.7 L 46.1 19.8 C 46.1 19.8 46.1 19.83 46.1 19.8 C 46.5 18.8 47.4 18.6 48.3 18.6 C 48.3 18.6 48.3 20.7 48.3 20.7 C 46.2 20.6 46.2 21.8 46.2 22.6 C 46.18 22.63 46.2 27.3 46.2 27.3 L 43.8 27.3 L 43.8 18.7 L 46.1 18.7 Z M 53.8 22.1 C 53.8 21.2 53.9 20 52.7 20 C 51.6 20 51.7 21.3 51.7 22.1 C 51.7 22.1 53.8 22.1 53.8 22.1 Z M 51.7 23.4 C 51.7 24.4 51.7 25.9 52.7 25.9 C 53.6 25.9 53.8 25.1 53.8 24.4 C 53.8 24.4 56.2 24.4 56.2 24.4 C 56.2 25.4 55.9 26.1 55.3 26.6 C 54.7 27.2 53.9 27.5 52.7 27.5 C 49.6 27.5 49.2 25.6 49.2 22.9 C 49.2 20.6 49.6 18.6 52.7 18.6 C 56 18.6 56.3 20.6 56.2 23.4 C 56.2 23.4 51.7 23.4 51.7 23.4 Z M 62.1 22.9 C 62.1 21.2 62.2 20 61.2 20 C 60.1 20 60.2 21.2 60.2 22.9 C 60.2 25.1 60.3 26 61.2 26 C 62 26 62.1 25.1 62.1 22.9 Z M 64.5 31 L 62.1 31 L 62.1 26.5 C 62.1 26.5 62.11 26.49 62.1 26.5 C 61.6 27.2 61 27.5 60.2 27.5 C 57.7 27.5 57.8 24.8 57.8 23.1 C 57.8 21.3 57.7 18.6 60.2 18.6 C 61.1 18.6 61.8 18.8 62.2 19.7 C 62.23 19.67 62.3 19.7 62.3 19.7 L 62.3 18.7 L 64.5 18.7 L 64.5 31 Z M 70.6 26.4 C 70.6 26.4 70.61 26.44 70.6 26.4 C 70.4 26.8 70.1 27.1 69.8 27.2 C 69.4 27.4 69 27.5 68.6 27.5 C 67.4 27.5 66.4 26.8 66.4 25.6 C 66.44 25.61 66.4 18.7 66.4 18.7 L 68.8 18.7 C 68.8 18.7 68.84 24.67 68.8 24.7 C 68.8 25.4 69 26 69.7 26 C 70.5 26 70.6 25.4 70.6 24.7 C 70.64 24.67 70.6 18.7 70.6 18.7 L 73 18.7 C 73 18.7 73.04 25.61 73 25.6 C 73 26.2 73.1 26.7 73.1 27.3 C 73.13 27.31 70.6 27.3 70.6 27.3 L 70.6 26.4 Z M 77.5 27.3 L 75.1 27.3 L 75.1 18.7 L 77.5 18.7 L 77.5 27.3 Z M 77.5 15 L 77.5 16.9 L 75.1 16.9 L 75.1 15 L 77.5 15 Z M 81.9 18.7 L 81.9 19.8 C 81.9 19.8 81.98 19.83 82 19.8 C 82.4 18.8 83.2 18.6 84.2 18.6 C 84.2 18.6 84.2 20.7 84.2 20.7 C 82.1 20.6 82.1 21.8 82.1 22.6 C 82.07 22.63 82.1 27.3 82.1 27.3 L 79.7 27.3 L 79.7 18.7 L 81.9 18.7 Z M 89.7 22.1 C 89.7 21.2 89.8 20 88.6 20 C 87.5 20 87.5 21.3 87.5 22.1 C 87.5 22.1 89.7 22.1 89.7 22.1 Z M 87.5 23.4 C 87.5 24.4 87.6 25.9 88.6 25.9 C 89.5 25.9 89.6 25.1 89.6 24.4 C 89.6 24.4 92.1 24.4 92.1 24.4 C 92 25.4 91.7 26.1 91.2 26.6 C 90.6 27.2 89.8 27.5 88.6 27.5 C 85.5 27.5 85.1 25.6 85.1 22.9 C 85.1 20.6 85.5 18.6 88.6 18.6 C 91.9 18.6 92.2 20.6 92.1 23.4 C 92.1 23.4 87.5 23.4 87.5 23.4 Z M 102 22.8 C 102 21 101.9 20.1 100.9 20.1 C 99.9 20.1 99.8 21 99.8 22.8 C 99.8 25.4 100 25.9 100.9 25.9 C 101.8 25.9 102 25.4 102 22.8 Z M 97.4 22.9 C 97.4 20.6 97.7 18.6 100.9 18.6 C 104.1 18.6 104.4 20.6 104.4 22.9 C 104.4 25.6 104 27.5 100.9 27.5 C 97.8 27.5 97.4 25.6 97.4 22.9 Z M 108.5 19.6 C 108.5 19.6 108.54 19.59 108.5 19.6 C 108.8 19.2 109.1 18.9 109.4 18.8 C 109.7 18.6 110.1 18.6 110.6 18.6 C 111.7 18.6 112.7 19.2 112.7 20.4 C 112.7 20.42 112.7 27.3 112.7 27.3 L 110.3 27.3 C 110.3 27.3 110.3 21.39 110.3 21.4 C 110.3 20.6 110.2 20 109.4 20 C 108.6 20 108.5 20.6 108.5 21.4 C 108.5 21.39 108.5 27.3 108.5 27.3 L 106.1 27.3 L 106.1 18.7 L 108.5 18.7 L 108.5 19.6 Z M 117.8 25.7 C 118.7 25.7 118.8 24.8 118.8 23 C 118.8 21.1 118.7 20 117.8 20 C 116.9 20 116.7 20.7 116.7 23.3 C 116.7 24.1 116.6 25.7 117.8 25.7 Z M 121.2 18.7 C 121.2 18.7 121.17 27.66 121.2 27.7 C 121.2 28.3 121.2 30.6 117.9 30.6 C 116.1 30.6 114.6 30.1 114.5 28.1 C 114.5 28.1 116.9 28.1 116.9 28.1 C 116.9 28.4 116.9 28.7 117.1 28.9 C 117.2 29.1 117.5 29.3 117.9 29.3 C 118.5 29.3 118.8 28.7 118.8 27.8 C 118.77 27.83 118.8 26.2 118.8 26.2 C 118.8 26.2 118.74 26.19 118.7 26.2 C 118.4 26.8 117.7 27.2 116.9 27.2 C 114.3 27.2 114.4 24.8 114.4 22.8 C 114.4 20.9 114.4 18.6 116.9 18.6 C 117.8 18.6 118.5 18.9 118.9 19.7 C 118.86 19.73 118.9 19.7 118.9 19.7 L 118.9 18.7 L 121.2 18.7 Z M 127.5 22.8 C 127.5 21 127.4 20.1 126.4 20.1 C 125.4 20.1 125.3 21 125.3 22.8 C 125.3 25.4 125.5 25.9 126.4 25.9 C 127.3 25.9 127.5 25.4 127.5 22.8 Z M 122.9 22.9 C 122.9 20.6 123.2 18.6 126.4 18.6 C 129.6 18.6 129.9 20.6 129.9 22.9 C 129.9 25.6 129.5 27.5 126.4 27.5 C 123.3 27.5 122.9 25.6 122.9 22.9 Z M 134.2 27.3 L 131.8 27.3 L 131.8 18.7 L 134.2 18.7 L 134.2 27.3 Z M 134.2 15 L 134.2 16.9 L 131.8 16.9 L 131.8 15 L 134.2 15 Z M 138.7 19.6 C 138.7 19.6 138.76 19.59 138.8 19.6 C 139 19.2 139.3 18.9 139.6 18.8 C 140 18.6 140.3 18.6 140.8 18.6 C 141.9 18.6 142.9 19.2 142.9 20.4 C 142.93 20.42 142.9 27.3 142.9 27.3 L 140.5 27.3 C 140.5 27.3 140.53 21.39 140.5 21.4 C 140.5 20.6 140.4 20 139.6 20 C 138.9 20 138.7 20.6 138.7 21.4 C 138.73 21.39 138.7 27.3 138.7 27.3 L 136.3 27.3 L 136.3 18.7 L 138.7 18.7 L 138.7 19.6 Z M 148 25.7 C 148.9 25.7 149 24.8 149 23 C 149 21.1 148.9 20 148 20 C 147.1 20 147 20.7 147 23.3 C 147 24.1 146.9 25.7 148 25.7 Z M 151.4 18.7 C 151.4 18.7 151.39 27.66 151.4 27.7 C 151.4 28.3 151.4 30.6 148.1 30.6 C 146.3 30.6 144.8 30.1 144.8 28.1 C 144.8 28.1 147.1 28.1 147.1 28.1 C 147.1 28.4 147.2 28.7 147.3 28.9 C 147.5 29.1 147.7 29.3 148.1 29.3 C 148.7 29.3 149 28.7 149 27.8 C 149 27.83 149 26.2 149 26.2 C 149 26.2 148.96 26.19 149 26.2 C 148.6 26.8 147.9 27.2 147.1 27.2 C 144.5 27.2 144.6 24.8 144.6 22.8 C 144.6 20.9 144.7 18.6 147.2 18.6 C 148 18.6 148.7 18.9 149.1 19.7 C 149.08 19.73 149.1 19.7 149.1 19.7 L 149.1 18.7 L 151.4 18.7 Z " stroke="none" fill="#003c71"/>  </g></svg>