<?xml version="1.0" standalone="no"?><!DOCTYPE svg PUBLIC "-//W3C//DTD SVG 1.1//EN" "http://www.w3.org/Graphics/SVG/1.1/DTD/svg11.dtd"><svg xmlns="http://www.w3.org/2000/svg" version="1.1" width="297px" height="97.3px" viewBox="0 -4 297 97.3" style="top:-4px">  <desc>ANDEMBRY® treated patients vs. study run in [0.16 (0.10 0.22) vs. 3.57 (3.20 3.95)]. The median monthly attack rate r...</desc>  <defs/>  <g id="Polygon200010">    <path d="M 0.2 34.6 L 1.3 34.6 L 2.6 39.8 L 2.7 39.8 L 4.1 34.6 L 5.1 34.6 L 3.3 40.7 L 2 40.7 L 0.2 34.6 Z M 8 40.8 C 6.7 40.8 5.9 40.2 5.9 38.8 C 5.9 38.8 7 38.8 7 38.8 C 7 39.2 7 40 8 40 C 8.6 40 9.1 39.7 9.1 39.1 C 9.1 38 6 38 6 36.2 C 6 35.5 6.4 34.5 8.1 34.5 C 9.2 34.5 10.1 35 10 36.2 C 10 36.2 9 36.2 9 36.2 C 9 35.6 8.6 35.3 8 35.3 C 7.5 35.3 7.1 35.5 7.1 36.1 C 7.1 37.1 10.1 37.1 10.1 39 C 10.1 40.3 9.2 40.8 8 40.8 Z M 12.6 40.7 L 11.4 40.7 L 11.4 39.4 L 12.6 39.4 L 12.6 40.7 Z M 18.6 40.8 C 17.3 40.8 16.5 40.2 16.5 38.8 C 16.5 38.8 17.7 38.8 17.7 38.8 C 17.7 39.2 17.7 40 18.7 40 C 19.3 40 19.7 39.7 19.7 39.1 C 19.7 38 16.7 38 16.7 36.2 C 16.7 35.5 17.1 34.5 18.8 34.5 C 19.9 34.5 20.8 35 20.7 36.2 C 20.7 36.2 19.6 36.2 19.6 36.2 C 19.6 35.6 19.3 35.3 18.7 35.3 C 18.1 35.3 17.7 35.5 17.7 36.1 C 17.7 37.1 20.7 37.1 20.7 39 C 20.7 40.3 19.8 40.8 18.6 40.8 Z M 22.3 34.6 L 22.3 33.5 L 23.3 33 L 23.3 34.6 L 24.6 34.6 L 24.6 35.4 L 23.3 35.4 C 23.3 35.4 23.27 39.08 23.3 39.1 C 23.3 39.5 23.3 40 24.2 40 C 24.2 40 24.4 39.9 24.6 39.9 C 24.6 39.9 24.6 40.7 24.6 40.7 C 24.3 40.7 24 40.8 23.6 40.8 C 22.7 40.8 22.3 40.4 22.3 39.7 C 22.28 39.68 22.3 35.4 22.3 35.4 L 21.3 35.4 L 21.3 34.6 L 22.3 34.6 Z M 28.8 34.6 L 29.7 34.6 C 29.7 34.6 29.73 39.43 29.7 39.4 C 29.7 39.8 29.8 40.3 29.8 40.7 C 29.79 40.69 28.8 40.7 28.8 40.7 L 28.8 40 C 28.8 40 28.72 39.96 28.7 40 C 28.4 40.5 27.8 40.8 27.2 40.8 C 26.1 40.8 25.5 40.3 25.5 39.2 C 25.55 39.25 25.5 34.6 25.5 34.6 L 26.5 34.6 C 26.5 34.6 26.53 38.83 26.5 38.8 C 26.5 39.6 26.9 40.1 27.6 40.1 C 28.1 40.1 28.8 39.7 28.8 38.6 C 28.75 38.65 28.8 34.6 28.8 34.6 Z M 33.6 35.3 C 32.5 35.3 32.4 36.2 32.4 37.8 C 32.4 38.7 32.4 40 33.6 40 C 34.7 40 34.7 38.6 34.7 37.4 C 34.7 36.6 34.7 35.3 33.6 35.3 Z M 34.7 32 L 35.7 32 L 35.7 40.7 L 34.7 40.7 L 34.7 40 C 34.7 40 34.69 39.97 34.7 40 C 34.4 40.5 33.9 40.8 33.3 40.8 C 32.3 40.8 31.3 40.4 31.3 37.8 C 31.3 36.2 31.4 34.5 33.3 34.5 C 33.9 34.5 34.3 34.8 34.7 35.2 C 34.68 35.24 34.7 35.2 34.7 35.2 L 34.7 32 Z M 39.3 39.6 L 39.4 39.6 L 40.8 34.6 L 41.9 34.6 L 39.1 43 L 38.1 43 L 38.8 40.7 L 36.7 34.6 L 37.9 34.6 L 39.3 39.6 Z M 46.5 35.5 C 46.5 35.5 46.55 35.54 46.5 35.5 C 47 34.6 47.5 34.5 48.4 34.5 C 48.4 34.5 48.4 35.5 48.4 35.5 C 48.3 35.5 48.2 35.5 48.2 35.5 C 48.1 35.5 48 35.5 47.9 35.5 C 46.8 35.5 46.5 36.3 46.5 37.1 C 46.52 37.11 46.5 40.7 46.5 40.7 L 45.5 40.7 L 45.5 34.6 L 46.5 34.6 L 46.5 35.5 Z M 52.7 34.6 L 53.7 34.6 C 53.7 34.6 53.72 39.43 53.7 39.4 C 53.7 39.8 53.7 40.3 53.8 40.7 C 53.78 40.69 52.7 40.7 52.7 40.7 L 52.7 40 C 52.7 40 52.7 39.96 52.7 40 C 52.4 40.5 51.8 40.8 51.2 40.8 C 50.1 40.8 49.5 40.3 49.5 39.2 C 49.54 39.25 49.5 34.6 49.5 34.6 L 50.5 34.6 C 50.5 34.6 50.52 38.83 50.5 38.8 C 50.5 39.6 50.9 40.1 51.6 40.1 C 52.1 40.1 52.7 39.7 52.7 38.6 C 52.74 38.65 52.7 34.6 52.7 34.6 Z M 58.8 40.7 C 58.8 40.7 58.79 36.49 58.8 36.5 C 58.8 35.8 58.6 35.3 57.7 35.3 C 56.6 35.3 56.5 36.3 56.5 37.1 C 56.48 37.1 56.5 40.7 56.5 40.7 L 55.5 40.7 C 55.5 40.7 55.5 35.89 55.5 35.9 C 55.5 35.5 55.5 35 55.4 34.6 C 55.44 34.63 56.5 34.6 56.5 34.6 L 56.5 35.4 C 56.5 35.4 56.53 35.41 56.5 35.4 C 56.9 34.7 57.4 34.5 58.2 34.5 C 59.4 34.5 59.8 35.3 59.8 36.5 C 59.77 36.49 59.8 40.7 59.8 40.7 L 58.8 40.7 Z M 61.3 37 L 63.9 37 L 63.9 37.9 L 61.3 37.9 L 61.3 37 Z M 66.5 40.7 L 65.5 40.7 L 65.5 34.6 L 66.5 34.6 L 66.5 40.7 Z M 65.4 32 L 66.5 32 L 66.5 33.1 L 65.4 33.1 L 65.4 32 Z M 71.4 40.7 C 71.4 40.7 71.45 36.49 71.4 36.5 C 71.4 35.8 71.2 35.3 70.4 35.3 C 69.3 35.3 69.1 36.3 69.1 37.1 C 69.14 37.1 69.1 40.7 69.1 40.7 L 68.2 40.7 C 68.2 40.7 68.16 35.89 68.2 35.9 C 68.2 35.5 68.1 35 68.1 34.6 C 68.1 34.63 69.1 34.6 69.1 34.6 L 69.1 35.4 C 69.1 35.4 69.19 35.41 69.2 35.4 C 69.6 34.7 70 34.5 70.8 34.5 C 72.1 34.5 72.4 35.3 72.4 36.5 C 72.43 36.49 72.4 40.7 72.4 40.7 L 71.4 40.7 Z M 76.1 34.6 L 77.2 34.6 L 78.3 39.8 L 78.3 39.8 L 79.6 34.6 L 81 34.6 L 82.2 39.8 L 82.3 39.8 L 83.5 34.6 L 84.5 34.6 L 82.9 40.7 L 81.6 40.7 L 80.3 35.5 L 80.3 35.5 L 78.9 40.7 L 77.6 40.7 L 76.1 34.6 Z M 86.4 38.9 C 86.4 39.5 86.7 40 87.3 40 C 87.9 40 88.7 39.6 88.6 37.7 C 87.6 37.7 86.4 37.6 86.4 38.9 Z M 88.6 39.8 C 88.6 39.8 88.58 39.81 88.6 39.8 C 88.3 40.5 87.8 40.8 87.1 40.8 C 85.8 40.8 85.4 40 85.4 38.8 C 85.4 37 87.2 36.9 88.6 36.9 C 88.6 36.1 88.6 35.3 87.6 35.3 C 86.9 35.3 86.6 35.7 86.6 36.3 C 86.6 36.3 85.5 36.3 85.5 36.3 C 85.6 35 86.3 34.5 87.6 34.5 C 89.2 34.5 89.6 35.3 89.6 36.3 C 89.6 36.3 89.6 39.2 89.6 39.2 C 89.6 39.7 89.6 40.2 89.7 40.7 C 89.69 40.69 88.6 40.7 88.6 40.7 L 88.6 39.8 Z M 93.3 40.8 C 92 40.8 91.2 40.2 91.2 38.8 C 91.2 38.8 92.3 38.8 92.3 38.8 C 92.3 39.2 92.3 40 93.3 40 C 93.9 40 94.4 39.7 94.4 39.1 C 94.4 38 91.3 38 91.3 36.2 C 91.3 35.5 91.7 34.5 93.4 34.5 C 94.5 34.5 95.4 35 95.3 36.2 C 95.3 36.2 94.2 36.2 94.2 36.2 C 94.3 35.6 93.9 35.3 93.3 35.3 C 92.8 35.3 92.4 35.5 92.4 36.1 C 92.4 37.1 95.4 37.1 95.4 39 C 95.4 40.3 94.5 40.8 93.3 40.8 Z M 102.1 40.7 L 101 40.7 L 101 33.6 L 99.7 34.4 C 99.7 34.4 99.73 33.36 99.7 33.4 C 100 33.2 100.8 32.6 101.1 32.4 C 101.13 32.36 102.1 32.4 102.1 32.4 L 102.1 40.7 Z M 108.8 36.6 C 108.8 38.7 108.9 40.9 106.6 40.9 C 104.4 40.9 104.4 38.7 104.4 36.6 C 104.4 34.3 104.3 32.2 106.6 32.2 C 108.9 32.2 108.8 34.3 108.8 36.6 Z M 105.5 36.8 C 105.5 38.2 105.4 39.9 106.6 39.9 C 107.8 39.9 107.7 38.2 107.7 36.8 C 107.7 34.5 107.7 33.2 106.6 33.2 C 105.5 33.2 105.5 34.5 105.5 36.8 Z M 114.2 36.6 C 114.2 38.7 114.2 40.9 111.9 40.9 C 109.7 40.9 109.7 38.7 109.7 36.6 C 109.7 34.3 109.7 32.2 111.9 32.2 C 114.2 32.2 114.2 34.3 114.2 36.6 Z M 110.8 36.8 C 110.8 38.2 110.7 39.9 111.9 39.9 C 113.2 39.9 113.1 38.2 113.1 36.8 C 113.1 34.5 113.1 33.2 111.9 33.2 C 110.8 33.2 110.8 34.5 110.8 36.8 Z M 118.5 34.2 C 118.5 35.3 118.4 36.4 117 36.4 C 115.5 36.4 115.4 35.3 115.4 34.2 C 115.4 33 115.5 31.8 117 31.8 C 118.4 31.8 118.5 33 118.5 34.2 Z M 116.3 34.1 C 116.3 35.2 116.3 35.8 117 35.8 C 117.7 35.8 117.7 35.2 117.7 34.1 C 117.7 33 117.7 32.5 117 32.5 C 116.3 32.5 116.3 33 116.3 34.1 Z M 123.1 38.6 C 123.1 39.8 123 40.9 121.5 40.9 C 120.1 40.9 120 39.8 120 38.6 C 120 37.5 120.1 36.3 121.5 36.3 C 123 36.3 123.1 37.5 123.1 38.6 Z M 120.8 38.6 C 120.8 39.7 120.8 40.2 121.5 40.2 C 122.2 40.2 122.2 39.7 122.2 38.6 C 122.2 37.5 122.2 37 121.5 37 C 120.8 37 120.8 37.5 120.8 38.6 Z M 117.6 41.1 L 116.8 41.1 L 120.9 31.6 L 121.7 31.6 L 117.6 41.1 Z M 127.4 42.1 L 127.4 31.6 L 129.4 31.6 L 129.4 32.3 L 128.4 32.3 L 128.4 41.4 L 129.5 41.4 L 129.5 42.1 L 127.4 42.1 Z M 134.8 36.6 C 134.8 38.7 134.9 40.9 132.6 40.9 C 130.3 40.9 130.4 38.7 130.4 36.6 C 130.4 34.3 130.3 32.2 132.6 32.2 C 134.9 32.2 134.8 34.3 134.8 36.6 Z M 131.5 36.8 C 131.5 38.2 131.4 39.9 132.6 39.9 C 133.8 39.9 133.7 38.2 133.7 36.8 C 133.7 34.5 133.7 33.2 132.6 33.2 C 131.5 33.2 131.5 34.5 131.5 36.8 Z M 139.7 42.1 C 139.2 40.4 138.5 38.7 138.5 36.9 C 138.5 35.1 139.2 33.4 139.7 31.6 C 139.7 31.6 140.5 31.6 140.5 31.6 C 140 33.4 139.7 35.2 139.7 37 C 139.7 38.7 140 40.4 140.4 42.1 C 140.4 42.1 139.7 42.1 139.7 42.1 Z M 146.2 36.6 C 146.2 38.7 146.2 40.9 143.9 40.9 C 141.7 40.9 141.7 38.7 141.7 36.6 C 141.7 34.3 141.6 32.2 143.9 32.2 C 146.2 32.2 146.2 34.3 146.2 36.6 Z M 142.8 36.8 C 142.8 38.2 142.7 39.9 143.9 39.9 C 145.1 39.9 145.1 38.2 145.1 36.8 C 145.1 34.5 145.1 33.2 143.9 33.2 C 142.8 33.2 142.8 34.5 142.8 36.8 Z M 147.3 37 L 149.9 37 L 149.9 37.9 L 147.3 37.9 L 147.3 37 Z M 155.5 36.6 C 155.5 38.7 155.5 40.9 153.2 40.9 C 151 40.9 151 38.7 151 36.6 C 151 34.3 151 32.2 153.2 32.2 C 155.5 32.2 155.5 34.3 155.5 36.6 Z M 152.1 36.8 C 152.1 38.2 152 39.9 153.2 39.9 C 154.5 39.9 154.4 38.2 154.4 36.8 C 154.4 34.5 154.4 33.2 153.2 33.2 C 152.1 33.2 152.1 34.5 152.1 36.8 Z M 157.8 40.7 L 156.7 40.7 L 156.7 39.4 L 157.8 39.4 L 157.8 40.7 Z M 162 40.7 L 160.9 40.7 L 160.9 33.6 L 159.7 34.4 C 159.7 34.4 159.69 33.36 159.7 33.4 C 160 33.2 160.8 32.6 161.1 32.4 C 161.1 32.36 162 32.4 162 32.4 L 162 40.7 Z M 165.9 35.8 C 166.9 35.9 167.6 35.5 167.6 34.5 C 167.6 33.7 167.3 33.2 166.5 33.2 C 165.6 33.2 165.4 33.8 165.4 34.5 C 165.4 34.5 164.3 34.5 164.3 34.5 C 164.3 33.1 164.9 32.2 166.5 32.2 C 167.9 32.2 168.7 32.9 168.7 34.4 C 168.7 36 167.6 36.2 167.1 36.3 C 167.1 36.3 167.1 36.3 167.1 36.3 C 168.4 36.5 168.8 37.2 168.8 38.5 C 168.8 40.1 167.9 40.9 166.4 40.9 C 164 40.9 164.2 38.9 164.2 38.4 C 164.2 38.4 165.3 38.4 165.3 38.4 C 165.3 39.2 165.5 39.9 166.4 39.9 C 167.4 39.9 167.7 39.3 167.7 38.4 C 167.7 37.1 167.2 36.8 165.9 36.8 C 165.9 36.8 165.9 35.8 165.9 35.8 Z M 170.1 42.1 C 170.5 40.4 170.8 38.7 170.8 37 C 170.8 35.2 170.5 33.4 170 31.6 C 170 31.6 170.8 31.6 170.8 31.6 C 171.3 33.4 172 35.1 172 36.9 C 172 38.7 171.3 40.4 170.8 42.1 C 170.8 42.1 170.1 42.1 170.1 42.1 Z M 175.4 34.6 L 176.5 34.6 L 177.9 39.8 L 177.9 39.8 L 179.3 34.6 L 180.4 34.6 L 178.5 40.7 L 177.2 40.7 L 175.4 34.6 Z M 183.2 40.8 C 181.9 40.8 181.1 40.2 181.1 38.8 C 181.1 38.8 182.2 38.8 182.2 38.8 C 182.2 39.2 182.3 40 183.2 40 C 183.8 40 184.3 39.7 184.3 39.1 C 184.3 38 181.3 38 181.3 36.2 C 181.3 35.5 181.7 34.5 183.4 34.5 C 184.4 34.5 185.4 35 185.3 36.2 C 185.3 36.2 184.2 36.2 184.2 36.2 C 184.2 35.6 183.9 35.3 183.2 35.3 C 182.7 35.3 182.3 35.5 182.3 36.1 C 182.3 37.1 185.3 37.1 185.3 39 C 185.3 40.3 184.4 40.8 183.2 40.8 Z M 189.1 40.7 C 189.1 40.7 189.07 39.73 189.1 39.7 C 191.5 36.3 192.2 35.7 192.2 34.3 C 192.2 33.6 191.9 33.2 191.2 33.2 C 190.4 33.2 190.2 33.8 190.2 34.5 C 190.2 34.5 189.1 34.5 189.1 34.5 C 189 33.1 189.7 32.2 191.1 32.2 C 192.6 32.2 193.3 32.9 193.3 34.4 C 193.3 36.3 192.4 36.9 190.2 39.7 C 190.24 39.73 193.5 39.7 193.5 39.7 L 193.5 40.7 L 189.1 40.7 Z M 195.8 40.7 L 194.6 40.7 L 194.6 39.4 L 195.8 39.4 L 195.8 40.7 Z M 200.3 38.5 C 200.3 37.7 200.2 36.8 199.2 36.8 C 198.2 36.8 198.1 37.7 198.1 38.5 C 198.1 39.2 198.4 39.9 199.2 39.9 C 200 39.9 200.3 39.2 200.3 38.5 Z M 199.9 36.3 C 201.1 36.4 201.4 37.4 201.4 38.4 C 201.4 39.9 200.7 40.9 199.2 40.9 C 197.8 40.9 197 39.9 197 38.4 C 197 37.4 197.3 36.4 198.5 36.3 C 198.5 36.3 198.5 36.3 198.5 36.3 C 197.5 36.1 197.1 35.3 197.1 34.3 C 197.1 33 197.9 32.2 199.2 32.2 C 200.5 32.2 201.3 33 201.3 34.3 C 201.3 35.3 200.9 36.1 199.9 36.3 C 199.9 36.3 199.9 36.3 199.9 36.3 Z M 200.2 34.3 C 200.2 33.7 199.9 33 199.2 33 C 198.5 33 198.2 33.7 198.2 34.3 C 198.2 34.9 198.4 35.8 199.2 35.8 C 200 35.8 200.2 34.9 200.2 34.3 Z M 206.5 32.4 L 206.5 33.3 L 203.7 33.3 L 203.7 35.7 C 203.7 35.7 203.71 35.77 203.7 35.8 C 203.9 35.4 204.5 35.1 205 35.1 C 206.2 35.1 206.8 36 206.8 38 C 206.8 39.3 206.6 40.9 204.5 40.9 C 202.8 40.9 202.5 39.9 202.5 38.8 C 202.5 38.8 203.6 38.8 203.6 38.8 C 203.6 39.5 203.8 40.1 204.5 40.1 C 205.6 40.1 205.7 39 205.7 38.2 C 205.7 37 205.6 36.1 204.6 36.1 C 204 36.1 203.7 36.5 203.6 37 C 203.57 37.04 202.6 37 202.6 37 L 202.6 32.4 L 206.5 32.4 Z M 211.6 42.1 C 211.1 40.4 210.5 38.7 210.5 36.9 C 210.5 35.1 211.1 33.4 211.7 31.6 C 211.7 31.6 212.4 31.6 212.4 31.6 C 211.9 33.4 211.6 35.2 211.6 37 C 211.6 38.7 211.9 40.4 212.3 42.1 C 212.3 42.1 211.6 42.1 211.6 42.1 Z M 216.7 40.7 L 215.6 40.7 L 215.6 33.6 L 214.3 34.4 C 214.3 34.4 214.31 33.36 214.3 33.4 C 214.6 33.2 215.4 32.6 215.7 32.4 C 215.72 32.36 216.7 32.4 216.7 32.4 L 216.7 40.7 Z M 220.4 40.7 L 219.3 40.7 L 219.3 39.4 L 220.4 39.4 L 220.4 40.7 Z M 222.7 34.8 C 222.7 35.6 222.9 36.5 223.8 36.5 C 224.8 36.5 225 35.6 225 34.8 C 225 34 224.8 33 223.8 33 C 222.9 33 222.7 34 222.7 34.8 Z M 226.1 36.6 C 226.1 38.7 226.1 40.9 223.8 40.9 C 222.6 40.9 221.8 40 221.8 38.7 C 221.8 38.7 222.9 38.7 222.9 38.7 C 222.9 39.3 223.1 39.9 223.8 39.9 C 224.9 39.9 225 38.8 225 36.6 C 225 36.6 225 36.6 225 36.6 C 224.7 37.2 224.2 37.4 223.5 37.4 C 222.9 37.4 221.6 37.1 221.6 34.8 C 221.6 32.9 222.7 32.2 223.8 32.2 C 226.1 32.2 226.1 34.3 226.1 36.6 Z M 231.4 36.6 C 231.4 38.7 231.4 40.9 229.2 40.9 C 226.9 40.9 226.9 38.7 226.9 36.6 C 226.9 34.3 226.9 32.2 229.2 32.2 C 231.5 32.2 231.4 34.3 231.4 36.6 Z M 228 36.8 C 228 38.2 228 39.9 229.2 39.9 C 230.4 39.9 230.3 38.2 230.3 36.8 C 230.3 34.5 230.3 33.2 229.2 33.2 C 228.1 33.2 228 34.5 228 36.8 Z M 232.5 37 L 235.2 37 L 235.2 37.9 L 232.5 37.9 L 232.5 37 Z M 238.9 37.7 L 238.9 33.4 L 238.9 33.4 L 237.1 37.7 L 238.9 37.7 Z M 236.1 38.7 L 236.1 37.7 L 238.5 32.4 L 240 32.4 L 240 37.7 L 240.9 37.7 L 240.9 38.7 L 240 38.7 L 240 40.7 L 238.9 40.7 L 238.9 38.7 L 236.1 38.7 Z M 243.1 40.7 L 241.9 40.7 L 241.9 39.4 L 243.1 39.4 L 243.1 40.7 Z M 245.9 35.8 C 246.9 35.9 247.6 35.5 247.6 34.5 C 247.6 33.7 247.2 33.2 246.4 33.2 C 245.5 33.2 245.4 33.8 245.4 34.5 C 245.4 34.5 244.3 34.5 244.3 34.5 C 244.2 33.1 244.9 32.2 246.4 32.2 C 247.8 32.2 248.7 32.9 248.7 34.4 C 248.7 36 247.5 36.2 247 36.3 C 247 36.3 247 36.3 247 36.3 C 248.3 36.5 248.8 37.2 248.8 38.5 C 248.8 40.1 247.9 40.9 246.3 40.9 C 244 40.9 244.1 38.9 244.1 38.4 C 244.1 38.4 245.2 38.4 245.2 38.4 C 245.2 39.2 245.4 39.9 246.4 39.9 C 247.3 39.9 247.6 39.3 247.6 38.4 C 247.6 37.1 247.1 36.8 245.9 36.8 C 245.9 36.8 245.9 35.8 245.9 35.8 Z M 253.8 32.4 L 253.8 33.3 L 251 33.3 L 251 35.7 C 251 35.7 251 35.77 251 35.8 C 251.2 35.4 251.8 35.1 252.3 35.1 C 253.5 35.1 254.1 36 254.1 38 C 254.1 39.3 253.9 40.9 251.8 40.9 C 250.1 40.9 249.7 39.9 249.7 38.8 C 249.7 38.8 250.9 38.8 250.9 38.8 C 250.9 39.5 251.1 40.1 251.8 40.1 C 252.9 40.1 253 39 253 38.2 C 253 37 252.9 36.1 251.9 36.1 C 251.3 36.1 251 36.5 250.9 37 C 250.86 37.04 249.9 37 249.9 37 L 249.9 32.4 L 253.8 32.4 Z M 255.3 42.1 C 255.7 40.4 256.1 38.7 256.1 37 C 256.1 35.2 255.7 33.4 255.3 31.6 C 255.3 31.6 256 31.6 256 31.6 C 256.6 33.4 257.2 35.1 257.2 36.9 C 257.2 38.7 256.6 40.4 256 42.1 C 256 42.1 255.3 42.1 255.3 42.1 Z M 258.3 42.1 L 258.3 41.4 L 259.3 41.4 L 259.3 32.3 L 258.3 32.3 L 258.3 31.6 L 260.3 31.6 L 260.3 42.1 L 258.3 42.1 Z " stroke="none" fill="#555555"/>  </g>  <g id="Polygon200009">    <path d="M 0.2 18.6 L 1.3 18.6 L 2.6 23.8 L 2.7 23.8 L 4.1 18.6 L 5.1 18.6 L 3.3 24.7 L 2 24.7 L 0.2 18.6 Z M 8 24.8 C 6.7 24.8 5.9 24.2 5.9 22.8 C 5.9 22.8 7 22.8 7 22.8 C 7 23.2 7 24 8 24 C 8.6 24 9.1 23.7 9.1 23.1 C 9.1 22 6 22 6 20.2 C 6 19.5 6.4 18.5 8.1 18.5 C 9.2 18.5 10.1 19 10 20.2 C 10 20.2 9 20.2 9 20.2 C 9 19.6 8.6 19.3 8 19.3 C 7.5 19.3 7.1 19.5 7.1 20.1 C 7.1 21.1 10.1 21.1 10.1 23 C 10.1 24.3 9.2 24.8 8 24.8 Z M 12.6 24.7 L 11.4 24.7 L 11.4 23.4 L 12.6 23.4 L 12.6 24.7 Z M 18 19.8 C 19 19.9 19.7 19.5 19.7 18.5 C 19.7 17.7 19.4 17.2 18.6 17.2 C 17.7 17.2 17.5 17.8 17.5 18.5 C 17.5 18.5 16.4 18.5 16.4 18.5 C 16.3 17.1 17 16.2 18.6 16.2 C 20 16.2 20.8 16.9 20.8 18.4 C 20.8 20 19.7 20.2 19.2 20.3 C 19.2 20.3 19.2 20.3 19.2 20.3 C 20.5 20.5 20.9 21.2 20.9 22.5 C 20.9 24.1 20 24.9 18.4 24.9 C 16.1 24.9 16.3 22.9 16.3 22.4 C 16.3 22.4 17.4 22.4 17.4 22.4 C 17.4 23.2 17.5 23.9 18.5 23.9 C 19.5 23.9 19.8 23.3 19.8 22.4 C 19.8 21.1 19.3 20.8 18 20.8 C 18 20.8 18 19.8 18 19.8 Z M 23.2 24.7 L 22.1 24.7 L 22.1 23.4 L 23.2 23.4 L 23.2 24.7 Z M 28.6 16.4 L 28.6 17.3 L 25.8 17.3 L 25.8 19.7 C 25.8 19.7 25.81 19.77 25.8 19.8 C 26 19.4 26.6 19.1 27.1 19.1 C 28.3 19.1 28.9 20 28.9 22 C 28.9 23.3 28.7 24.9 26.6 24.9 C 24.9 24.9 24.6 23.9 24.6 22.8 C 24.6 22.8 25.7 22.8 25.7 22.8 C 25.7 23.5 25.9 24.1 26.7 24.1 C 27.7 24.1 27.8 23 27.8 22.2 C 27.8 21 27.7 20.1 26.7 20.1 C 26.1 20.1 25.8 20.5 25.7 21 C 25.68 21.04 24.7 21 24.7 21 L 24.7 16.4 L 28.6 16.4 Z M 29.7 16.4 L 34 16.4 L 34 17.3 L 31.8 24.7 L 30.5 24.7 L 32.8 17.3 L 29.7 17.3 L 29.7 16.4 Z M 39.1 26.1 C 38.6 24.4 37.9 22.7 37.9 20.9 C 37.9 19.1 38.6 17.4 39.1 15.6 C 39.1 15.6 39.8 15.6 39.8 15.6 C 39.4 17.4 39 19.2 39 21 C 39 22.7 39.4 24.4 39.8 26.1 C 39.8 26.1 39.1 26.1 39.1 26.1 Z M 42.7 19.8 C 43.7 19.9 44.4 19.5 44.4 18.5 C 44.4 17.7 44 17.2 43.2 17.2 C 42.3 17.2 42.2 17.8 42.2 18.5 C 42.2 18.5 41.1 18.5 41.1 18.5 C 41 17.1 41.7 16.2 43.2 16.2 C 44.6 16.2 45.5 16.9 45.5 18.4 C 45.5 20 44.3 20.2 43.8 20.3 C 43.8 20.3 43.8 20.3 43.8 20.3 C 45.1 20.5 45.5 21.2 45.5 22.5 C 45.5 24.1 44.7 24.9 43.1 24.9 C 40.8 24.9 40.9 22.9 40.9 22.4 C 40.9 22.4 42 22.4 42 22.4 C 42 23.2 42.2 23.9 43.2 23.9 C 44.1 23.9 44.4 23.3 44.4 22.4 C 44.4 21.1 43.9 20.8 42.7 20.8 C 42.7 20.8 42.7 19.8 42.7 19.8 Z M 47.9 24.7 L 46.7 24.7 L 46.7 23.4 L 47.9 23.4 L 47.9 24.7 Z M 49.1 24.7 C 49.1 24.7 49.14 23.73 49.1 23.7 C 51.6 20.3 52.3 19.7 52.3 18.3 C 52.3 17.6 52 17.2 51.3 17.2 C 50.4 17.2 50.3 17.8 50.3 18.5 C 50.3 18.5 49.2 18.5 49.2 18.5 C 49.1 17.1 49.8 16.2 51.2 16.2 C 52.7 16.2 53.4 16.9 53.4 18.4 C 53.4 20.3 52.5 20.9 50.3 23.7 C 50.31 23.73 53.6 23.7 53.6 23.7 L 53.6 24.7 L 49.1 24.7 Z M 58.9 20.6 C 58.9 22.7 58.9 24.9 56.6 24.9 C 54.4 24.9 54.4 22.7 54.4 20.6 C 54.4 18.3 54.3 16.2 56.6 16.2 C 58.9 16.2 58.9 18.3 58.9 20.6 Z M 55.5 20.8 C 55.5 22.2 55.4 23.9 56.6 23.9 C 57.8 23.9 57.8 22.2 57.8 20.8 C 57.8 18.5 57.7 17.2 56.6 17.2 C 55.5 17.2 55.5 18.5 55.5 20.8 Z M 60 21 L 62.6 21 L 62.6 21.9 L 60 21.9 L 60 21 Z M 65.3 19.8 C 66.3 19.9 67 19.5 67 18.5 C 67 17.7 66.7 17.2 65.9 17.2 C 64.9 17.2 64.8 17.8 64.8 18.5 C 64.8 18.5 63.7 18.5 63.7 18.5 C 63.6 17.1 64.3 16.2 65.9 16.2 C 67.3 16.2 68.1 16.9 68.1 18.4 C 68.1 20 66.9 20.2 66.5 20.3 C 66.5 20.3 66.5 20.3 66.5 20.3 C 67.8 20.5 68.2 21.2 68.2 22.5 C 68.2 24.1 67.3 24.9 65.7 24.9 C 63.4 24.9 63.6 22.9 63.6 22.4 C 63.6 22.4 64.7 22.4 64.7 22.4 C 64.7 23.2 64.8 23.9 65.8 23.9 C 66.8 23.9 67.1 23.3 67.1 22.4 C 67.1 21.1 66.6 20.8 65.3 20.8 C 65.3 20.8 65.3 19.8 65.3 19.8 Z M 70.5 24.7 L 69.4 24.7 L 69.4 23.4 L 70.5 23.4 L 70.5 24.7 Z M 72.8 18.8 C 72.8 19.6 73 20.5 73.9 20.5 C 74.9 20.5 75 19.6 75 18.8 C 75 18 74.9 17 73.9 17 C 73 17 72.8 18 72.8 18.8 Z M 76.2 20.6 C 76.2 22.7 76.2 24.9 73.9 24.9 C 72.7 24.9 71.8 24 71.9 22.7 C 71.9 22.7 73 22.7 73 22.7 C 73 23.3 73.2 23.9 73.9 23.9 C 75 23.9 75.1 22.8 75.1 20.6 C 75.1 20.6 75 20.6 75 20.6 C 74.8 21.2 74.2 21.4 73.6 21.4 C 72.9 21.4 71.7 21.1 71.7 18.8 C 71.7 16.9 72.8 16.2 73.9 16.2 C 76.2 16.2 76.2 18.3 76.2 20.6 Z M 81.2 16.4 L 81.2 17.3 L 78.4 17.3 L 78.4 19.7 C 78.4 19.7 78.43 19.77 78.4 19.8 C 78.6 19.4 79.2 19.1 79.7 19.1 C 80.9 19.1 81.5 20 81.5 22 C 81.5 23.3 81.3 24.9 79.2 24.9 C 77.5 24.9 77.2 23.9 77.2 22.8 C 77.2 22.8 78.3 22.8 78.3 22.8 C 78.3 23.5 78.5 24.1 79.3 24.1 C 80.3 24.1 80.4 23 80.4 22.2 C 80.4 21 80.3 20.1 79.3 20.1 C 78.7 20.1 78.4 20.5 78.3 21 C 78.3 21.04 77.3 21 77.3 21 L 77.3 16.4 L 81.2 16.4 Z M 82.8 26.1 C 83.2 24.4 83.5 22.7 83.5 21 C 83.5 19.2 83.2 17.4 82.7 15.6 C 82.7 15.6 83.5 15.6 83.5 15.6 C 84 17.4 84.7 19.1 84.7 20.9 C 84.7 22.7 84 24.4 83.5 26.1 C 83.5 26.1 82.8 26.1 82.8 26.1 Z M 85.7 26.1 L 85.7 25.4 L 86.8 25.4 L 86.8 16.3 L 85.8 16.3 L 85.8 15.6 L 87.8 15.6 L 87.8 26.1 L 85.7 26.1 Z M 90.5 24.7 L 89.4 24.7 L 89.4 23.4 L 90.5 23.4 L 90.5 24.7 Z M 99.8 16 L 99.8 17 L 97.5 17 L 97.5 24.7 L 96.4 24.7 L 96.4 17 L 94.1 17 L 94.1 16 L 99.8 16 Z M 104.1 24.7 C 104.1 24.7 104.07 20.58 104.1 20.6 C 104.1 19.8 103.8 19.3 103 19.3 C 102 19.3 101.8 20.1 101.8 21.1 C 101.76 21.12 101.8 24.7 101.8 24.7 L 100.8 24.7 L 100.8 16 L 101.8 16 L 101.8 19.4 C 101.8 19.4 101.8 19.41 101.8 19.4 C 102.2 18.7 102.7 18.5 103.4 18.5 C 104.5 18.5 105.1 19 105.1 20.4 C 105.06 20.39 105.1 24.7 105.1 24.7 L 104.1 24.7 Z M 110.1 21.2 C 110.1 19.5 109.6 19.3 108.9 19.3 C 108.3 19.3 107.8 19.6 107.7 21.2 C 107.7 21.2 110.1 21.2 110.1 21.2 Z M 107.7 22 C 107.7 23.7 108.2 24 109 24 C 109.6 24 110 23.5 110 22.9 C 110 22.9 111.1 22.9 111.1 22.9 C 111.1 24.2 110.3 24.8 109 24.8 C 107.7 24.8 106.7 24.4 106.7 21.7 C 106.7 20 106.9 18.5 109 18.5 C 110.7 18.5 111.2 19.5 111.2 21.5 C 111.15 21.46 111.2 22 111.2 22 C 111.2 22 107.74 21.98 107.7 22 Z M 118.4 24.7 C 118.4 24.7 118.43 20.49 118.4 20.5 C 118.4 19.9 118.3 19.3 117.5 19.3 C 117.2 19.3 116.8 19.5 116.6 19.7 C 116.4 20 116.4 20.4 116.4 20.6 C 116.38 20.61 116.4 24.7 116.4 24.7 L 115.4 24.7 C 115.4 24.7 115.4 19.89 115.4 19.9 C 115.4 19.5 115.4 19 115.3 18.6 C 115.34 18.63 116.4 18.6 116.4 18.6 L 116.4 19.4 C 116.4 19.4 116.41 19.38 116.4 19.4 C 116.7 18.7 117.2 18.5 117.9 18.5 C 118.5 18.5 119.1 18.7 119.3 19.3 C 119.7 18.6 120.2 18.5 120.8 18.5 C 121.4 18.5 122.4 18.7 122.4 20.1 C 122.43 20.08 122.4 24.7 122.4 24.7 L 121.4 24.7 C 121.4 24.7 121.45 20.49 121.4 20.5 C 121.4 19.9 121.3 19.3 120.5 19.3 C 120.1 19.3 120 19.3 119.7 19.5 C 119.5 19.8 119.4 20.4 119.4 20.6 C 119.41 20.61 119.4 24.7 119.4 24.7 L 118.4 24.7 Z M 127.4 21.2 C 127.4 19.5 126.9 19.3 126.2 19.3 C 125.6 19.3 125.1 19.6 125.1 21.2 C 125.1 21.2 127.4 21.2 127.4 21.2 Z M 125.1 22 C 125.1 23.7 125.5 24 126.3 24 C 127 24 127.3 23.5 127.4 22.9 C 127.4 22.9 128.4 22.9 128.4 22.9 C 128.4 24.2 127.6 24.8 126.3 24.8 C 125 24.8 124 24.4 124 21.7 C 124 20 124.2 18.5 126.3 18.5 C 128 18.5 128.5 19.5 128.5 21.5 C 128.48 21.46 128.5 22 128.5 22 C 128.5 22 125.07 21.98 125.1 22 Z M 132.2 19.3 C 131.1 19.3 131 20.2 131 21.8 C 131 22.7 131 24 132.2 24 C 133.3 24 133.3 22.6 133.3 21.4 C 133.3 20.6 133.3 19.3 132.2 19.3 Z M 133.3 16 L 134.3 16 L 134.3 24.7 L 133.3 24.7 L 133.3 24 C 133.3 24 133.29 23.97 133.3 24 C 133 24.5 132.5 24.8 131.9 24.8 C 130.9 24.8 129.9 24.4 129.9 21.8 C 129.9 20.2 130 18.5 131.9 18.5 C 132.5 18.5 132.9 18.8 133.3 19.2 C 133.28 19.24 133.3 19.2 133.3 19.2 L 133.3 16 Z M 137.1 24.7 L 136.1 24.7 L 136.1 18.6 L 137.1 18.6 L 137.1 24.7 Z M 136 16 L 137.1 16 L 137.1 17.1 L 136 17.1 L 136 16 Z M 139.7 22.9 C 139.7 23.5 140 24 140.6 24 C 141.2 24 142 23.6 141.9 21.7 C 140.9 21.7 139.7 21.6 139.7 22.9 Z M 141.9 23.8 C 141.9 23.8 141.87 23.81 141.9 23.8 C 141.6 24.5 141.1 24.8 140.3 24.8 C 139.1 24.8 138.7 24 138.7 22.8 C 138.7 21 140.5 20.9 141.9 20.9 C 141.9 20.1 141.9 19.3 140.9 19.3 C 140.2 19.3 139.8 19.7 139.9 20.3 C 139.9 20.3 138.8 20.3 138.8 20.3 C 138.9 19 139.6 18.5 140.9 18.5 C 142.4 18.5 142.9 19.3 142.9 20.3 C 142.9 20.3 142.9 23.2 142.9 23.2 C 142.9 23.7 142.9 24.2 143 24.7 C 142.98 24.69 141.9 24.7 141.9 24.7 L 141.9 23.8 Z M 148.1 24.7 C 148.1 24.7 148.06 20.49 148.1 20.5 C 148.1 19.8 147.8 19.3 147 19.3 C 145.9 19.3 145.8 20.3 145.8 21.1 C 145.76 21.1 145.8 24.7 145.8 24.7 L 144.8 24.7 C 144.8 24.7 144.78 19.89 144.8 19.9 C 144.8 19.5 144.8 19 144.7 18.6 C 144.72 18.63 145.8 18.6 145.8 18.6 L 145.8 19.4 C 145.8 19.4 145.81 19.41 145.8 19.4 C 146.2 18.7 146.6 18.5 147.4 18.5 C 148.7 18.5 149 19.3 149 20.5 C 149.05 20.49 149 24.7 149 24.7 L 148.1 24.7 Z M 156.4 24.7 C 156.4 24.7 156.42 20.49 156.4 20.5 C 156.4 19.9 156.2 19.3 155.5 19.3 C 155.2 19.3 154.7 19.5 154.6 19.7 C 154.4 20 154.4 20.4 154.4 20.6 C 154.38 20.61 154.4 24.7 154.4 24.7 L 153.4 24.7 C 153.4 24.7 153.39 19.89 153.4 19.9 C 153.4 19.5 153.4 19 153.3 18.6 C 153.33 18.63 154.4 18.6 154.4 18.6 L 154.4 19.4 C 154.4 19.4 154.4 19.38 154.4 19.4 C 154.7 18.7 155.2 18.5 155.9 18.5 C 156.5 18.5 157.1 18.7 157.3 19.3 C 157.7 18.6 158.2 18.5 158.8 18.5 C 159.4 18.5 160.4 18.7 160.4 20.1 C 160.42 20.08 160.4 24.7 160.4 24.7 L 159.4 24.7 C 159.4 24.7 159.44 20.49 159.4 20.5 C 159.4 19.9 159.3 19.3 158.5 19.3 C 158.1 19.3 158 19.3 157.7 19.5 C 157.4 19.8 157.4 20.4 157.4 20.6 C 157.4 20.61 157.4 24.7 157.4 24.7 L 156.4 24.7 Z M 165.5 21.3 C 165.5 19.7 165 19.3 164.2 19.3 C 163.5 19.3 163 19.7 163 21.3 C 163 23.3 163.2 24 164.2 24 C 165.3 24 165.5 23.3 165.5 21.3 Z M 161.9 21.7 C 161.9 20 162.1 18.5 164.2 18.5 C 166.3 18.5 166.5 20 166.5 21.7 C 166.5 24.4 165.5 24.8 164.2 24.8 C 163 24.8 161.9 24.4 161.9 21.7 Z M 171.4 24.7 C 171.4 24.7 171.39 20.49 171.4 20.5 C 171.4 19.8 171.2 19.3 170.3 19.3 C 169.2 19.3 169.1 20.3 169.1 21.1 C 169.09 21.1 169.1 24.7 169.1 24.7 L 168.1 24.7 C 168.1 24.7 168.1 19.89 168.1 19.9 C 168.1 19.5 168.1 19 168 18.6 C 168.04 18.63 169.1 18.6 169.1 18.6 L 169.1 19.4 C 169.1 19.4 169.13 19.41 169.1 19.4 C 169.5 18.7 170 18.5 170.8 18.5 C 172.1 18.5 172.4 19.3 172.4 20.5 C 172.37 20.49 172.4 24.7 172.4 24.7 L 171.4 24.7 Z M 174.2 18.6 L 174.2 17.5 L 175.2 17 L 175.2 18.6 L 176.5 18.6 L 176.5 19.4 L 175.2 19.4 C 175.2 19.4 175.19 23.08 175.2 23.1 C 175.2 23.5 175.2 24 176.1 24 C 176.2 24 176.3 23.9 176.5 23.9 C 176.5 23.9 176.5 24.7 176.5 24.7 C 176.2 24.7 175.9 24.8 175.6 24.8 C 174.6 24.8 174.2 24.4 174.2 23.7 C 174.21 23.68 174.2 19.4 174.2 19.4 L 173.2 19.4 L 173.2 18.6 L 174.2 18.6 Z M 180.7 24.7 C 180.7 24.7 180.73 20.58 180.7 20.6 C 180.7 19.8 180.5 19.3 179.6 19.3 C 178.7 19.3 178.4 20.1 178.4 21.1 C 178.41 21.12 178.4 24.7 178.4 24.7 L 177.4 24.7 L 177.4 16 L 178.4 16 L 178.4 19.4 C 178.4 19.4 178.46 19.41 178.5 19.4 C 178.9 18.7 179.3 18.5 180.1 18.5 C 181.1 18.5 181.7 19 181.7 20.4 C 181.71 20.39 181.7 24.7 181.7 24.7 L 180.7 24.7 Z M 184.4 24.7 L 183.4 24.7 L 183.4 16 L 184.4 16 L 184.4 24.7 Z M 187.9 23.6 L 188 23.6 L 189.4 18.6 L 190.5 18.6 L 187.7 27 L 186.7 27 L 187.4 24.7 L 185.3 18.6 L 186.5 18.6 L 187.9 23.6 Z M 195 22.9 C 195 23.5 195.3 24 195.9 24 C 196.5 24 197.3 23.6 197.2 21.7 C 196.3 21.7 195 21.6 195 22.9 Z M 197.2 23.8 C 197.2 23.8 197.19 23.81 197.2 23.8 C 196.9 24.5 196.4 24.8 195.7 24.8 C 194.4 24.8 194 24 194 22.8 C 194 21 195.8 20.9 197.2 20.9 C 197.2 20.1 197.2 19.3 196.2 19.3 C 195.5 19.3 195.2 19.7 195.2 20.3 C 195.2 20.3 194.2 20.3 194.2 20.3 C 194.2 19 194.9 18.5 196.2 18.5 C 197.8 18.5 198.2 19.3 198.2 20.3 C 198.2 20.3 198.2 23.2 198.2 23.2 C 198.2 23.7 198.2 24.2 198.3 24.7 C 198.29 24.69 197.2 24.7 197.2 24.7 L 197.2 23.8 Z M 200.2 18.6 L 200.2 17.5 L 201.2 17 L 201.2 18.6 L 202.5 18.6 L 202.5 19.4 L 201.2 19.4 C 201.2 19.4 201.19 23.08 201.2 23.1 C 201.2 23.5 201.2 24 202.1 24 C 202.2 24 202.3 23.9 202.5 23.9 C 202.5 23.9 202.5 24.7 202.5 24.7 C 202.2 24.7 201.9 24.8 201.6 24.8 C 200.6 24.8 200.2 24.4 200.2 23.7 C 200.2 23.68 200.2 19.4 200.2 19.4 L 199.2 19.4 L 199.2 18.6 L 200.2 18.6 Z M 203.5 18.6 L 203.5 17.5 L 204.5 17 L 204.5 18.6 L 205.8 18.6 L 205.8 19.4 L 204.5 19.4 C 204.5 19.4 204.52 23.08 204.5 23.1 C 204.5 23.5 204.5 24 205.4 24 C 205.5 24 205.7 23.9 205.9 23.9 C 205.9 23.9 205.9 24.7 205.9 24.7 C 205.5 24.7 205.2 24.8 204.9 24.8 C 204 24.8 203.5 24.4 203.5 23.7 C 203.54 23.68 203.5 19.4 203.5 19.4 L 202.5 19.4 L 202.5 18.6 L 203.5 18.6 Z M 207.7 22.9 C 207.7 23.5 208 24 208.6 24 C 209.2 24 210 23.6 209.9 21.7 C 208.9 21.7 207.7 21.6 207.7 22.9 Z M 209.9 23.8 C 209.9 23.8 209.86 23.81 209.9 23.8 C 209.6 24.5 209.1 24.8 208.3 24.8 C 207.1 24.8 206.7 24 206.7 22.8 C 206.7 21 208.5 20.9 209.9 20.9 C 209.9 20.1 209.9 19.3 208.8 19.3 C 208.2 19.3 207.8 19.7 207.9 20.3 C 207.9 20.3 206.8 20.3 206.8 20.3 C 206.9 19 207.6 18.5 208.9 18.5 C 210.4 18.5 210.8 19.3 210.8 20.3 C 210.8 20.3 210.8 23.2 210.8 23.2 C 210.8 23.7 210.9 24.2 211 24.7 C 210.97 24.69 209.9 24.7 209.9 24.7 L 209.9 23.8 Z M 215.9 20.6 C 216 19.6 215.5 19.3 215.1 19.3 C 214.3 19.3 213.8 19.7 213.8 21.3 C 213.8 23.3 214.1 24 215.1 24 C 215.3 24 216 23.8 216 22.7 C 216 22.7 217 22.7 217 22.7 C 217 24.4 215.8 24.8 215.1 24.8 C 213.8 24.8 212.8 24.4 212.8 21.7 C 212.8 20 213 18.5 215.1 18.5 C 216.3 18.5 217 19.2 217 20.6 C 217 20.6 215.9 20.6 215.9 20.6 Z M 219.8 24.7 L 218.8 24.7 L 218.8 16 L 219.8 16 L 219.8 21.2 L 219.8 21.2 L 221.6 18.6 L 222.8 18.6 L 220.8 21.2 L 223.2 24.7 L 221.9 24.7 L 219.8 21.3 L 219.8 21.3 L 219.8 24.7 Z M 227.8 19.5 C 227.8 19.5 227.8 19.54 227.8 19.5 C 228.2 18.6 228.7 18.5 229.7 18.5 C 229.7 18.5 229.7 19.5 229.7 19.5 C 229.6 19.5 229.5 19.5 229.4 19.5 C 229.3 19.5 229.2 19.5 229.1 19.5 C 228.1 19.5 227.8 20.3 227.8 21.1 C 227.78 21.11 227.8 24.7 227.8 24.7 L 226.8 24.7 L 226.8 18.6 L 227.8 18.6 L 227.8 19.5 Z M 231.7 22.9 C 231.7 23.5 231.9 24 232.6 24 C 233.2 24 233.9 23.6 233.9 21.7 C 232.9 21.7 231.7 21.6 231.7 22.9 Z M 233.9 23.8 C 233.9 23.8 233.85 23.81 233.9 23.8 C 233.6 24.5 233.1 24.8 232.3 24.8 C 231 24.8 230.7 24 230.7 22.8 C 230.7 21 232.5 20.9 233.9 20.9 C 233.9 20.1 233.9 19.3 232.8 19.3 C 232.2 19.3 231.8 19.7 231.9 20.3 C 231.9 20.3 230.8 20.3 230.8 20.3 C 230.9 19 231.6 18.5 232.9 18.5 C 234.4 18.5 234.8 19.3 234.8 20.3 C 234.8 20.3 234.8 23.2 234.8 23.2 C 234.8 23.7 234.9 24.2 235 24.7 C 234.95 24.69 233.9 24.7 233.9 24.7 L 233.9 23.8 Z M 236.9 18.6 L 236.9 17.5 L 237.8 17 L 237.8 18.6 L 239.2 18.6 L 239.2 19.4 L 237.8 19.4 C 237.8 19.4 237.85 23.08 237.8 23.1 C 237.8 23.5 237.8 24 238.7 24 C 238.8 24 239 23.9 239.2 23.9 C 239.2 23.9 239.2 24.7 239.2 24.7 C 238.9 24.7 238.5 24.8 238.2 24.8 C 237.3 24.8 236.9 24.4 236.9 23.7 C 236.86 23.68 236.9 19.4 236.9 19.4 L 235.9 19.4 L 235.9 18.6 L 236.9 18.6 Z M 243.4 21.2 C 243.4 19.5 242.9 19.3 242.2 19.3 C 241.6 19.3 241.1 19.6 241 21.2 C 241 21.2 243.4 21.2 243.4 21.2 Z M 241 22 C 241 23.7 241.5 24 242.3 24 C 242.9 24 243.3 23.5 243.3 22.9 C 243.3 22.9 244.4 22.9 244.4 22.9 C 244.4 24.2 243.6 24.8 242.3 24.8 C 241 24.8 240 24.4 240 21.7 C 240 20 240.2 18.5 242.3 18.5 C 244 18.5 244.5 19.5 244.5 21.5 C 244.46 21.46 244.5 22 244.5 22 C 244.5 22 241.05 21.98 241 22 Z M 249.8 19.5 C 249.8 19.5 249.8 19.54 249.8 19.5 C 250.2 18.6 250.7 18.5 251.7 18.5 C 251.7 18.5 251.7 19.5 251.7 19.5 C 251.6 19.5 251.5 19.5 251.4 19.5 C 251.3 19.5 251.2 19.5 251.1 19.5 C 250 19.5 249.8 20.3 249.8 21.1 C 249.77 21.11 249.8 24.7 249.8 24.7 L 248.8 24.7 L 248.8 18.6 L 249.8 18.6 L 249.8 19.5 Z M 256.1 21.2 C 256.1 19.5 255.6 19.3 254.9 19.3 C 254.2 19.3 253.7 19.6 253.7 21.2 C 253.7 21.2 256.1 21.2 256.1 21.2 Z M 253.7 22 C 253.7 23.7 254.2 24 254.9 24 C 255.6 24 256 23.5 256 22.9 C 256 22.9 257.1 22.9 257.1 22.9 C 257.1 24.2 256.2 24.8 255 24.8 C 253.7 24.8 252.7 24.4 252.7 21.7 C 252.7 20 252.9 18.5 255 18.5 C 256.7 18.5 257.1 19.5 257.1 21.5 C 257.12 21.46 257.1 22 257.1 22 C 257.1 22 253.71 21.98 253.7 22 Z M 260.8 19.3 C 259.8 19.3 259.6 20.2 259.6 21.8 C 259.6 22.7 259.6 24 260.9 24 C 262 24 262 22.6 262 21.4 C 262 20.6 261.9 19.3 260.8 19.3 Z M 262 16 L 262.9 16 L 262.9 24.7 L 262 24.7 L 262 24 C 262 24 261.93 23.97 261.9 24 C 261.6 24.5 261.2 24.8 260.5 24.8 C 259.6 24.8 258.6 24.4 258.6 21.8 C 258.6 20.2 258.6 18.5 260.6 18.5 C 261.2 18.5 261.6 18.8 261.9 19.2 C 261.92 19.24 262 19.2 262 19.2 L 262 16 Z M 268 18.6 L 269 18.6 C 269 18.6 268.97 23.43 269 23.4 C 269 23.8 269 24.3 269 24.7 C 269.03 24.69 268 24.7 268 24.7 L 268 24 C 268 24 267.96 23.96 268 24 C 267.6 24.5 267.1 24.8 266.4 24.8 C 265.4 24.8 264.8 24.3 264.8 23.2 C 264.79 23.25 264.8 18.6 264.8 18.6 L 265.8 18.6 C 265.8 18.6 265.77 22.83 265.8 22.8 C 265.8 23.6 266.1 24.1 266.8 24.1 C 267.3 24.1 268 23.7 268 22.6 C 267.99 22.65 268 18.6 268 18.6 Z M 273.9 20.6 C 273.9 19.6 273.5 19.3 273.1 19.3 C 272.3 19.3 271.8 19.7 271.8 21.3 C 271.8 23.3 272.1 24 273.1 24 C 273.3 24 274 23.8 274 22.7 C 274 22.7 275 22.7 275 22.7 C 275 24.4 273.8 24.8 273.1 24.8 C 271.8 24.8 270.8 24.4 270.8 21.7 C 270.8 20 271 18.5 273.1 18.5 C 274.3 18.5 275 19.2 274.9 20.6 C 274.9 20.6 273.9 20.6 273.9 20.6 Z M 276.9 18.6 L 276.9 17.5 L 277.8 17 L 277.8 18.6 L 279.2 18.6 L 279.2 19.4 L 277.8 19.4 C 277.8 19.4 277.84 23.08 277.8 23.1 C 277.8 23.5 277.8 24 278.7 24 C 278.8 24 279 23.9 279.2 23.9 C 279.2 23.9 279.2 24.7 279.2 24.7 C 278.9 24.7 278.5 24.8 278.2 24.8 C 277.3 24.8 276.9 24.4 276.9 23.7 C 276.86 23.68 276.9 19.4 276.9 19.4 L 275.9 19.4 L 275.9 18.6 L 276.9 18.6 Z M 281 24.7 L 280.1 24.7 L 280.1 18.6 L 281 18.6 L 281 24.7 Z M 280 16 L 281.1 16 L 281.1 17.1 L 280 17.1 L 280 16 Z M 286.2 21.3 C 286.2 19.7 285.6 19.3 284.9 19.3 C 284.1 19.3 283.6 19.7 283.6 21.3 C 283.6 23.3 283.9 24 284.9 24 C 285.9 24 286.2 23.3 286.2 21.3 Z M 282.6 21.7 C 282.6 20 282.8 18.5 284.9 18.5 C 287 18.5 287.2 20 287.2 21.7 C 287.2 24.4 286.2 24.8 284.9 24.8 C 283.6 24.8 282.6 24.4 282.6 21.7 Z M 292 24.7 C 292 24.7 292.04 20.49 292 20.5 C 292 19.8 291.8 19.3 291 19.3 C 289.9 19.3 289.7 20.3 289.7 21.1 C 289.73 21.1 289.7 24.7 289.7 24.7 L 288.8 24.7 C 288.8 24.7 288.75 19.89 288.8 19.9 C 288.8 19.5 288.7 19 288.7 18.6 C 288.69 18.63 289.7 18.6 289.7 18.6 L 289.7 19.4 C 289.7 19.4 289.78 19.41 289.8 19.4 C 290.2 18.7 290.6 18.5 291.4 18.5 C 292.7 18.5 293 19.3 293 20.5 C 293.02 20.49 293 24.7 293 24.7 L 292 24.7 Z " stroke="none" fill="#555555"/>  </g>  <g id="Polygon200008">    <path d="M 2.9 0 L 4.3 0 L 7.2 8.7 L 5.9 8.7 L 5.3 6.6 L 1.9 6.6 L 1.3 8.7 L 0.2 8.7 L 2.9 0 Z M 3.6 1 L 3.6 1 L 2.2 5.7 L 5 5.7 L 3.6 1 Z M 14.3 0 L 14.3 8.7 L 12.8 8.7 L 9.4 1.2 L 9.3 1.2 L 9.3 8.7 L 8.4 8.7 L 8.4 0 L 9.9 0 L 13.3 7.4 L 13.3 7.4 L 13.3 0 L 14.3 0 Z M 17.4 7.7 C 17.4 7.7 18.48 7.73 18.5 7.7 C 20 7.7 20.6 7.2 20.6 5.1 C 20.6 5.1 20.6 3.4 20.6 3.4 C 20.6 1.6 20 1 18.9 1 C 18.89 0.98 17.4 1 17.4 1 L 17.4 7.7 Z M 16.3 0 C 16.3 0 19 0.02 19 0 C 20.1 0 20.9 0.4 21.3 1.3 C 21.7 2.1 21.7 3.8 21.7 4.1 C 21.7 5.9 21.5 7 21.2 7.6 C 20.7 8.3 19.8 8.7 18.3 8.7 C 18.32 8.69 16.3 8.7 16.3 8.7 L 16.3 0 Z M 23.6 8.7 L 23.6 0 L 28.1 0 L 28.1 1 L 24.7 1 L 24.7 3.8 L 27.9 3.8 L 27.9 4.7 L 24.7 4.7 L 24.7 7.7 L 28.2 7.7 L 28.2 8.7 L 23.6 8.7 Z M 30.7 8.7 L 29.7 8.7 L 29.7 0 L 31.4 0 L 33.6 7.3 L 33.6 7.3 L 35.9 0 L 37.7 0 L 37.7 8.7 L 36.6 8.7 L 36.6 1 L 36.6 1 L 34.1 8.7 L 33.1 8.7 L 30.7 1 L 30.7 1 L 30.7 8.7 Z M 40.8 7.7 C 40.8 7.7 42.41 7.73 42.4 7.7 C 43.6 7.7 44 6.9 44 6.3 C 44 4.9 43.2 4.6 42 4.6 C 42.02 4.63 40.8 4.6 40.8 4.6 L 40.8 7.7 Z M 40.8 3.7 C 40.8 3.7 42.46 3.67 42.5 3.7 C 43.3 3.7 43.7 3.1 43.7 2.3 C 43.7 1.6 43.3 1 42.4 1 C 42.41 0.98 40.8 1 40.8 1 L 40.8 3.7 Z M 39.7 8.7 L 39.7 0 C 39.7 0 42.56 0.02 42.6 0 C 43.8 0 44.2 0.4 44.5 0.9 C 44.8 1.4 44.8 1.9 44.8 2.1 C 44.8 3.1 44.5 3.9 43.4 4.1 C 43.4 4.1 43.4 4.2 43.4 4.2 C 44.6 4.3 45.1 5.1 45.1 6.3 C 45.1 8.5 43.5 8.7 42.5 8.7 C 42.53 8.69 39.7 8.7 39.7 8.7 Z M 48 3.7 C 48 3.7 49.7 3.74 49.7 3.7 C 50.5 3.7 50.9 3.1 50.9 2.3 C 50.9 1.7 50.6 1 49.7 1 C 49.72 0.98 48 1 48 1 L 48 3.7 Z M 48 4.7 L 48 8.7 L 46.9 8.7 L 46.9 0 C 46.9 0 49.93 0.02 49.9 0 C 51.5 0 52 1.1 52 2.2 C 52 3.2 51.4 4 50.4 4.2 C 50.4 4.2 50.4 4.2 50.4 4.2 C 51.4 4.3 51.8 4.7 51.8 6.4 C 51.9 6.8 52 8.1 52.1 8.7 C 52.1 8.7 51 8.7 51 8.7 C 50.7 8.1 50.7 7 50.7 5.8 C 50.6 4.8 49.7 4.7 49.3 4.7 C 49.34 4.7 48 4.7 48 4.7 Z M 57.4 0 L 58.6 0 L 56.2 5.4 L 56.2 8.7 L 55.1 8.7 L 55.1 5.4 L 52.8 0 L 54 0 L 55.7 4.2 L 57.4 0 Z M 64.1 2.2 C 64.1 3.6 62.9 4.8 61.5 4.8 C 60 4.8 58.8 3.6 58.8 2.2 C 58.8 0.7 60 -0.5 61.5 -0.5 C 62.9 -0.5 64.1 0.7 64.1 2.2 Z M 59.2 2.2 C 59.2 3.4 60.2 4.4 61.5 4.4 C 62.7 4.4 63.7 3.4 63.7 2.2 C 63.7 0.9 62.7 -0.1 61.5 -0.1 C 60.2 -0.1 59.2 0.9 59.2 2.2 Z M 61 3.7 L 60.5 3.7 L 60.5 0.7 C 60.5 0.7 61.69 0.66 61.7 0.7 C 62.3 0.7 62.5 1 62.5 1.4 C 62.5 1.8 62.3 2 61.9 2.1 C 61.9 2.1 61.9 2.1 61.9 2.1 C 62.3 2.2 62.4 2.3 62.4 2.9 C 62.4 3 62.5 3.5 62.5 3.7 C 62.5 3.7 62 3.7 62 3.7 C 61.9 3.5 62 3.1 61.9 2.7 C 61.9 2.4 61.6 2.3 61.5 2.3 C 61.47 2.33 61 2.3 61 2.3 L 61 3.7 Z M 61 1.9 C 61 1.9 61.61 1.94 61.6 1.9 C 61.9 1.9 62 1.7 62 1.5 C 62 1.2 61.9 1 61.6 1 C 61.61 0.99 61 1 61 1 L 61 1.9 Z M 64.9 5 L 67.6 5 L 67.6 5.9 L 64.9 5.9 L 64.9 5 Z M 69.2 2.6 L 69.2 1.5 L 70.2 1 L 70.2 2.6 L 71.5 2.6 L 71.5 3.4 L 70.2 3.4 C 70.2 3.4 70.22 7.08 70.2 7.1 C 70.2 7.5 70.2 8 71.1 8 C 71.2 8 71.3 7.9 71.6 7.9 C 71.6 7.9 71.6 8.7 71.6 8.7 C 71.2 8.7 70.9 8.8 70.6 8.8 C 69.7 8.8 69.2 8.4 69.2 7.7 C 69.23 7.68 69.2 3.4 69.2 3.4 L 68.2 3.4 L 68.2 2.6 L 69.2 2.6 Z M 73.5 3.5 C 73.5 3.5 73.5 3.54 73.5 3.5 C 73.9 2.6 74.4 2.5 75.4 2.5 C 75.4 2.5 75.4 3.5 75.4 3.5 C 75.3 3.5 75.2 3.5 75.1 3.5 C 75 3.5 74.9 3.5 74.8 3.5 C 73.8 3.5 73.5 4.3 73.5 5.1 C 73.48 5.11 73.5 8.7 73.5 8.7 L 72.5 8.7 L 72.5 2.6 L 73.5 2.6 L 73.5 3.5 Z M 79.8 5.2 C 79.8 3.5 79.3 3.3 78.6 3.3 C 77.9 3.3 77.4 3.6 77.4 5.2 C 77.4 5.2 79.8 5.2 79.8 5.2 Z M 77.4 6 C 77.4 7.7 77.9 8 78.6 8 C 79.3 8 79.7 7.5 79.7 6.9 C 79.7 6.9 80.8 6.9 80.8 6.9 C 80.8 8.2 79.9 8.8 78.7 8.8 C 77.4 8.8 76.4 8.4 76.4 5.7 C 76.4 4 76.6 2.5 78.7 2.5 C 80.4 2.5 80.8 3.5 80.8 5.5 C 80.82 5.46 80.8 6 80.8 6 C 80.8 6 77.42 5.98 77.4 6 Z M 83.4 6.9 C 83.4 7.5 83.6 8 84.3 8 C 84.9 8 85.6 7.6 85.6 5.7 C 84.6 5.7 83.4 5.6 83.4 6.9 Z M 85.6 7.8 C 85.6 7.8 85.55 7.81 85.6 7.8 C 85.3 8.5 84.8 8.8 84 8.8 C 82.7 8.8 82.4 8 82.4 6.8 C 82.4 5 84.2 4.9 85.6 4.9 C 85.6 4.1 85.6 3.3 84.5 3.3 C 83.9 3.3 83.5 3.7 83.6 4.3 C 83.6 4.3 82.5 4.3 82.5 4.3 C 82.6 3 83.3 2.5 84.6 2.5 C 86.1 2.5 86.5 3.3 86.5 4.3 C 86.5 4.3 86.5 7.2 86.5 7.2 C 86.5 7.7 86.6 8.2 86.7 8.7 C 86.66 8.69 85.6 8.7 85.6 8.7 L 85.6 7.8 Z M 88.6 2.6 L 88.6 1.5 L 89.5 1 L 89.5 2.6 L 90.9 2.6 L 90.9 3.4 L 89.5 3.4 C 89.5 3.4 89.55 7.08 89.5 7.1 C 89.5 7.5 89.5 8 90.4 8 C 90.5 8 90.7 7.9 90.9 7.9 C 90.9 7.9 90.9 8.7 90.9 8.7 C 90.6 8.7 90.2 8.8 89.9 8.8 C 89 8.8 88.6 8.4 88.6 7.7 C 88.56 7.68 88.6 3.4 88.6 3.4 L 87.6 3.4 L 87.6 2.6 L 88.6 2.6 Z M 95.1 5.2 C 95.1 3.5 94.6 3.3 93.9 3.3 C 93.3 3.3 92.8 3.6 92.8 5.2 C 92.8 5.2 95.1 5.2 95.1 5.2 Z M 92.8 6 C 92.8 7.7 93.2 8 94 8 C 94.6 8 95 7.5 95 6.9 C 95 6.9 96.1 6.9 96.1 6.9 C 96.1 8.2 95.3 8.8 94 8.8 C 92.7 8.8 91.7 8.4 91.7 5.7 C 91.7 4 91.9 2.5 94 2.5 C 95.7 2.5 96.2 3.5 96.2 5.5 C 96.16 5.46 96.2 6 96.2 6 C 96.2 6 92.75 5.98 92.8 6 Z M 99.9 3.3 C 98.8 3.3 98.7 4.2 98.7 5.8 C 98.7 6.7 98.7 8 99.9 8 C 101 8 101 6.6 101 5.4 C 101 4.6 100.9 3.3 99.9 3.3 Z M 101 0 L 102 0 L 102 8.7 L 101 8.7 L 101 8 C 101 8 100.97 7.97 101 8 C 100.6 8.5 100.2 8.8 99.6 8.8 C 98.6 8.8 97.6 8.4 97.6 5.8 C 97.6 4.2 97.7 2.5 99.6 2.5 C 100.2 2.5 100.6 2.8 101 3.2 C 100.96 3.24 101 3.2 101 3.2 L 101 0 Z M 109.9 5.6 C 109.9 4.6 109.9 3.3 108.6 3.3 C 107.4 3.3 107.5 5 107.5 5.9 C 107.5 6.7 107.6 8 108.7 8 C 109.7 8 109.9 7.2 109.9 5.6 Z M 107.5 3.3 C 107.5 3.3 107.55 3.35 107.5 3.3 C 107.9 2.8 108.3 2.5 108.9 2.5 C 109.9 2.5 110.9 2.9 110.9 5.6 C 110.9 7.1 110.8 8.8 108.9 8.8 C 108.3 8.8 107.9 8.6 107.6 8.1 C 107.56 8.08 107.5 8.1 107.5 8.1 L 107.5 11 L 106.5 11 L 106.5 2.6 L 107.5 2.6 L 107.5 3.3 Z M 113.4 6.9 C 113.4 7.5 113.6 8 114.3 8 C 114.9 8 115.6 7.6 115.6 5.7 C 114.6 5.7 113.4 5.6 113.4 6.9 Z M 115.6 7.8 C 115.6 7.8 115.55 7.81 115.6 7.8 C 115.3 8.5 114.8 8.8 114 8.8 C 112.7 8.8 112.4 8 112.4 6.8 C 112.4 5 114.2 4.9 115.6 4.9 C 115.6 4.1 115.6 3.3 114.5 3.3 C 113.9 3.3 113.5 3.7 113.6 4.3 C 113.6 4.3 112.5 4.3 112.5 4.3 C 112.6 3 113.3 2.5 114.6 2.5 C 116.1 2.5 116.5 3.3 116.5 4.3 C 116.5 4.3 116.5 7.2 116.5 7.2 C 116.5 7.7 116.6 8.2 116.7 8.7 C 116.66 8.69 115.6 8.7 115.6 8.7 L 115.6 7.8 Z M 118.6 2.6 L 118.6 1.5 L 119.5 1 L 119.5 2.6 L 120.9 2.6 L 120.9 3.4 L 119.5 3.4 C 119.5 3.4 119.55 7.08 119.5 7.1 C 119.5 7.5 119.5 8 120.4 8 C 120.5 8 120.7 7.9 120.9 7.9 C 120.9 7.9 120.9 8.7 120.9 8.7 C 120.6 8.7 120.2 8.8 119.9 8.8 C 119 8.8 118.6 8.4 118.6 7.7 C 118.56 7.68 118.6 3.4 118.6 3.4 L 117.6 3.4 L 117.6 2.6 L 118.6 2.6 Z M 122.8 8.7 L 121.8 8.7 L 121.8 2.6 L 122.8 2.6 L 122.8 8.7 Z M 121.7 0 L 122.8 0 L 122.8 1.1 L 121.7 1.1 L 121.7 0 Z M 127.8 5.2 C 127.8 3.5 127.3 3.3 126.6 3.3 C 125.9 3.3 125.4 3.6 125.4 5.2 C 125.4 5.2 127.8 5.2 127.8 5.2 Z M 125.4 6 C 125.4 7.7 125.9 8 126.6 8 C 127.3 8 127.7 7.5 127.7 6.9 C 127.7 6.9 128.8 6.9 128.8 6.9 C 128.8 8.2 127.9 8.8 126.7 8.8 C 125.4 8.8 124.4 8.4 124.4 5.7 C 124.4 4 124.6 2.5 126.7 2.5 C 128.4 2.5 128.8 3.5 128.8 5.5 C 128.82 5.46 128.8 6 128.8 6 C 128.8 6 125.41 5.98 125.4 6 Z M 133.7 8.7 C 133.7 8.7 133.74 4.49 133.7 4.5 C 133.7 3.8 133.5 3.3 132.7 3.3 C 131.6 3.3 131.4 4.3 131.4 5.1 C 131.44 5.1 131.4 8.7 131.4 8.7 L 130.5 8.7 C 130.5 8.7 130.46 3.89 130.5 3.9 C 130.5 3.5 130.4 3 130.4 2.6 C 130.4 2.63 131.4 2.6 131.4 2.6 L 131.4 3.4 C 131.4 3.4 131.49 3.41 131.5 3.4 C 131.9 2.7 132.3 2.5 133.1 2.5 C 134.4 2.5 134.7 3.3 134.7 4.5 C 134.73 4.49 134.7 8.7 134.7 8.7 L 133.7 8.7 Z M 136.6 2.6 L 136.6 1.5 L 137.5 1 L 137.5 2.6 L 138.9 2.6 L 138.9 3.4 L 137.5 3.4 C 137.5 3.4 137.55 7.08 137.5 7.1 C 137.5 7.5 137.5 8 138.4 8 C 138.5 8 138.7 7.9 138.9 7.9 C 138.9 7.9 138.9 8.7 138.9 8.7 C 138.6 8.7 138.2 8.8 137.9 8.8 C 137 8.8 136.6 8.4 136.6 7.7 C 136.56 7.68 136.6 3.4 136.6 3.4 L 135.6 3.4 L 135.6 2.6 L 136.6 2.6 Z M 141.6 8.8 C 140.3 8.8 139.5 8.2 139.5 6.8 C 139.5 6.8 140.6 6.8 140.6 6.8 C 140.6 7.2 140.6 8 141.6 8 C 142.2 8 142.7 7.7 142.7 7.1 C 142.7 6 139.6 6 139.6 4.2 C 139.6 3.5 140 2.5 141.7 2.5 C 142.8 2.5 143.7 3 143.6 4.2 C 143.6 4.2 142.6 4.2 142.6 4.2 C 142.6 3.6 142.2 3.3 141.6 3.3 C 141.1 3.3 140.7 3.5 140.7 4.1 C 140.7 5.1 143.7 5.1 143.7 7 C 143.7 8.3 142.8 8.8 141.6 8.8 Z M 147.1 2.6 L 148.2 2.6 L 149.5 7.8 L 149.6 7.8 L 151 2.6 L 152.1 2.6 L 150.2 8.7 L 148.9 8.7 L 147.1 2.6 Z M 154.9 8.8 C 153.6 8.8 152.8 8.2 152.8 6.8 C 152.8 6.8 153.9 6.8 153.9 6.8 C 153.9 7.2 153.9 8 154.9 8 C 155.5 8 156 7.7 156 7.1 C 156 6 153 6 153 4.2 C 153 3.5 153.3 2.5 155 2.5 C 156.1 2.5 157 3 157 4.2 C 157 4.2 155.9 4.2 155.9 4.2 C 155.9 3.6 155.5 3.3 154.9 3.3 C 154.4 3.3 154 3.5 154 4.1 C 154 5.1 157 5.1 157 7 C 157 8.3 156.1 8.8 154.9 8.8 Z M 159.5 8.7 L 158.3 8.7 L 158.3 7.4 L 159.5 7.4 L 159.5 8.7 Z M 165.6 8.8 C 164.2 8.8 163.4 8.2 163.5 6.8 C 163.5 6.8 164.6 6.8 164.6 6.8 C 164.6 7.2 164.6 8 165.6 8 C 166.2 8 166.6 7.7 166.6 7.1 C 166.6 6 163.6 6 163.6 4.2 C 163.6 3.5 164 2.5 165.7 2.5 C 166.8 2.5 167.7 3 167.6 4.2 C 167.6 4.2 166.5 4.2 166.5 4.2 C 166.5 3.6 166.2 3.3 165.6 3.3 C 165.1 3.3 164.6 3.5 164.6 4.1 C 164.6 5.1 167.7 5.1 167.7 7 C 167.7 8.3 166.8 8.8 165.6 8.8 Z M 169.2 2.6 L 169.2 1.5 L 170.2 1 L 170.2 2.6 L 171.5 2.6 L 171.5 3.4 L 170.2 3.4 C 170.2 3.4 170.19 7.08 170.2 7.1 C 170.2 7.5 170.2 8 171.1 8 C 171.2 8 171.3 7.9 171.5 7.9 C 171.5 7.9 171.5 8.7 171.5 8.7 C 171.2 8.7 170.9 8.8 170.6 8.8 C 169.6 8.8 169.2 8.4 169.2 7.7 C 169.2 7.68 169.2 3.4 169.2 3.4 L 168.2 3.4 L 168.2 2.6 L 169.2 2.6 Z M 175.7 2.6 L 176.7 2.6 C 176.7 2.6 176.65 7.43 176.7 7.4 C 176.7 7.8 176.7 8.3 176.7 8.7 C 176.71 8.69 175.7 8.7 175.7 8.7 L 175.7 8 C 175.7 8 175.64 7.96 175.6 8 C 175.3 8.5 174.7 8.8 174.1 8.8 C 173 8.8 172.5 8.3 172.5 7.2 C 172.47 7.25 172.5 2.6 172.5 2.6 L 173.4 2.6 C 173.4 2.6 173.45 6.83 173.4 6.8 C 173.4 7.6 173.8 8.1 174.5 8.1 C 175 8.1 175.7 7.7 175.7 6.6 C 175.67 6.65 175.7 2.6 175.7 2.6 Z M 180.5 3.3 C 179.4 3.3 179.3 4.2 179.3 5.8 C 179.3 6.7 179.3 8 180.5 8 C 181.6 8 181.6 6.6 181.6 5.4 C 181.6 4.6 181.6 3.3 180.5 3.3 Z M 181.6 0 L 182.6 0 L 182.6 8.7 L 181.6 8.7 L 181.6 8 C 181.6 8 181.61 7.97 181.6 8 C 181.3 8.5 180.9 8.8 180.2 8.8 C 179.2 8.8 178.3 8.4 178.3 5.8 C 178.3 4.2 178.3 2.5 180.3 2.5 C 180.8 2.5 181.3 2.8 181.6 3.2 C 181.6 3.24 181.6 3.2 181.6 3.2 L 181.6 0 Z M 186.3 7.6 L 186.3 7.6 L 187.7 2.6 L 188.8 2.6 L 186.1 11 L 185 11 L 185.7 8.7 L 183.7 2.6 L 184.8 2.6 L 186.3 7.6 Z M 193.4 3.5 C 193.4 3.5 193.47 3.54 193.5 3.5 C 193.9 2.6 194.4 2.5 195.3 2.5 C 195.3 2.5 195.3 3.5 195.3 3.5 C 195.3 3.5 195.2 3.5 195.1 3.5 C 195 3.5 194.9 3.5 194.8 3.5 C 193.7 3.5 193.4 4.3 193.4 5.1 C 193.44 5.11 193.4 8.7 193.4 8.7 L 192.5 8.7 L 192.5 2.6 L 193.4 2.6 L 193.4 3.5 Z M 199.7 2.6 L 200.6 2.6 C 200.6 2.6 200.64 7.43 200.6 7.4 C 200.6 7.8 200.7 8.3 200.7 8.7 C 200.7 8.69 199.7 8.7 199.7 8.7 L 199.7 8 C 199.7 8 199.62 7.96 199.6 8 C 199.3 8.5 198.7 8.8 198.1 8.8 C 197 8.8 196.5 8.3 196.5 7.2 C 196.45 7.25 196.5 2.6 196.5 2.6 L 197.4 2.6 C 197.4 2.6 197.44 6.83 197.4 6.8 C 197.4 7.6 197.8 8.1 198.5 8.1 C 199 8.1 199.7 7.7 199.7 6.6 C 199.66 6.65 199.7 2.6 199.7 2.6 Z M 205.7 8.7 C 205.7 8.7 205.71 4.49 205.7 4.5 C 205.7 3.8 205.5 3.3 204.6 3.3 C 203.6 3.3 203.4 4.3 203.4 5.1 C 203.4 5.1 203.4 8.7 203.4 8.7 L 202.4 8.7 C 202.4 8.7 202.42 3.89 202.4 3.9 C 202.4 3.5 202.4 3 202.4 2.6 C 202.36 2.63 203.4 2.6 203.4 2.6 L 203.4 3.4 C 203.4 3.4 203.45 3.41 203.4 3.4 C 203.8 2.7 204.3 2.5 205.1 2.5 C 206.4 2.5 206.7 3.3 206.7 4.5 C 206.69 4.49 206.7 8.7 206.7 8.7 L 205.7 8.7 Z M 208.2 5 L 210.9 5 L 210.9 5.9 L 208.2 5.9 L 208.2 5 Z M 213.4 8.7 L 212.4 8.7 L 212.4 2.6 L 213.4 2.6 L 213.4 8.7 Z M 212.3 0 L 213.4 0 L 213.4 1.1 L 212.3 1.1 L 212.3 0 Z M 218.4 8.7 C 218.4 8.7 218.37 4.49 218.4 4.5 C 218.4 3.8 218.1 3.3 217.3 3.3 C 216.2 3.3 216.1 4.3 216.1 5.1 C 216.06 5.1 216.1 8.7 216.1 8.7 L 215.1 8.7 C 215.1 8.7 215.08 3.89 215.1 3.9 C 215.1 3.5 215.1 3 215 2.6 C 215.02 2.63 216.1 2.6 216.1 2.6 L 216.1 3.4 C 216.1 3.4 216.11 3.41 216.1 3.4 C 216.5 2.7 216.9 2.5 217.7 2.5 C 219 2.5 219.3 3.3 219.3 4.5 C 219.35 4.49 219.3 8.7 219.3 8.7 L 218.4 8.7 Z M 223.7 10.1 L 223.7 -0.4 L 225.7 -0.4 L 225.7 0.3 L 224.7 0.3 L 224.7 9.4 L 225.7 9.4 L 225.7 10.1 L 223.7 10.1 Z M 231.1 4.6 C 231.1 6.7 231.1 8.9 228.9 8.9 C 226.6 8.9 226.6 6.7 226.6 4.6 C 226.6 2.3 226.6 0.2 228.9 0.2 C 231.2 0.2 231.1 2.3 231.1 4.6 Z M 227.7 4.8 C 227.7 6.2 227.7 7.9 228.9 7.9 C 230.1 7.9 230 6.2 230 4.8 C 230 2.5 230 1.2 228.9 1.2 C 227.7 1.2 227.7 2.5 227.7 4.8 Z M 233.4 8.7 L 232.3 8.7 L 232.3 7.4 L 233.4 7.4 L 233.4 8.7 Z M 237.7 8.7 L 236.6 8.7 L 236.6 1.6 L 235.3 2.4 C 235.3 2.4 235.32 1.36 235.3 1.4 C 235.6 1.2 236.4 0.6 236.7 0.4 C 236.73 0.36 237.7 0.4 237.7 0.4 L 237.7 8.7 Z M 242.3 7.9 C 243.2 7.9 243.3 7 243.3 5.9 C 243.3 5.1 243.2 4.2 242.2 4.2 C 241.2 4.2 241.1 5.2 241.1 6 C 241.1 6.8 241.2 7.9 242.3 7.9 Z M 240 4.6 C 240 2.3 239.9 0.2 242.2 0.2 C 243.5 0.2 244.3 1 244.3 2.3 C 244.3 2.3 243.2 2.3 243.2 2.3 C 243.2 1.7 242.9 1 242.2 1 C 241.3 1 241.1 1.8 241.1 4 C 241.1 4 241.1 4 241.1 4 C 241.4 3.6 241.9 3.3 242.4 3.3 C 243.5 3.3 244.4 3.9 244.4 6.1 C 244.4 7.5 243.8 8.9 242.2 8.9 C 240 8.9 240 6.7 240 4.6 Z M 249.3 10.1 C 248.8 8.4 248.1 6.7 248.1 4.9 C 248.1 3.1 248.8 1.4 249.3 -0.4 C 249.3 -0.4 250.1 -0.4 250.1 -0.4 C 249.6 1.4 249.3 3.2 249.3 5 C 249.3 6.7 249.6 8.4 250 10.1 C 250 10.1 249.3 10.1 249.3 10.1 Z M 255.8 4.6 C 255.8 6.7 255.8 8.9 253.5 8.9 C 251.3 8.9 251.3 6.7 251.3 4.6 C 251.3 2.3 251.2 0.2 253.5 0.2 C 255.8 0.2 255.8 2.3 255.8 4.6 Z M 252.4 4.8 C 252.4 6.2 252.3 7.9 253.5 7.9 C 254.7 7.9 254.7 6.2 254.7 4.8 C 254.7 2.5 254.7 1.2 253.5 1.2 C 252.4 1.2 252.4 2.5 252.4 4.8 Z M 258.1 8.7 L 257 8.7 L 257 7.4 L 258.1 7.4 L 258.1 8.7 Z M 262.3 8.7 L 261.2 8.7 L 261.2 1.6 L 260 2.4 C 260 2.4 259.97 1.36 260 1.4 C 260.2 1.2 261 0.6 261.4 0.4 C 261.37 0.36 262.3 0.4 262.3 0.4 L 262.3 8.7 Z M 269.1 4.6 C 269.1 6.7 269.1 8.9 266.8 8.9 C 264.6 8.9 264.6 6.7 264.6 4.6 C 264.6 2.3 264.6 0.2 266.8 0.2 C 269.1 0.2 269.1 2.3 269.1 4.6 Z M 265.7 4.8 C 265.7 6.2 265.6 7.9 266.8 7.9 C 268.1 7.9 268 6.2 268 4.8 C 268 2.5 268 1.2 266.8 1.2 C 265.7 1.2 265.7 2.5 265.7 4.8 Z M 270.2 5 L 272.8 5 L 272.8 5.9 L 270.2 5.9 L 270.2 5 Z M 278.4 4.6 C 278.4 6.7 278.4 8.9 276.2 8.9 C 273.9 8.9 273.9 6.7 273.9 4.6 C 273.9 2.3 273.9 0.2 276.2 0.2 C 278.4 0.2 278.4 2.3 278.4 4.6 Z M 275 4.8 C 275 6.2 274.9 7.9 276.2 7.9 C 277.4 7.9 277.3 6.2 277.3 4.8 C 277.3 2.5 277.3 1.2 276.2 1.2 C 275 1.2 275 2.5 275 4.8 Z M 280.7 8.7 L 279.6 8.7 L 279.6 7.4 L 280.7 7.4 L 280.7 8.7 Z M 282 8.7 C 282 8.7 282.01 7.73 282 7.7 C 284.4 4.3 285.2 3.7 285.2 2.3 C 285.2 1.6 284.8 1.2 284.1 1.2 C 283.3 1.2 283.2 1.8 283.2 2.5 C 283.2 2.5 282 2.5 282 2.5 C 281.9 1.1 282.6 0.2 284.1 0.2 C 285.6 0.2 286.3 0.9 286.3 2.4 C 286.3 4.3 285.3 4.9 283.2 7.7 C 283.19 7.73 286.5 7.7 286.5 7.7 L 286.5 8.7 L 282 8.7 Z M 287.3 8.7 C 287.3 8.7 287.34 7.73 287.3 7.7 C 289.8 4.3 290.5 3.7 290.5 2.3 C 290.5 1.6 290.2 1.2 289.5 1.2 C 288.6 1.2 288.5 1.8 288.5 2.5 C 288.5 2.5 287.4 2.5 287.4 2.5 C 287.3 1.1 288 0.2 289.4 0.2 C 290.9 0.2 291.6 0.9 291.6 2.4 C 291.6 4.3 290.7 4.9 288.5 7.7 C 288.51 7.73 291.8 7.7 291.8 7.7 L 291.8 8.7 L 287.3 8.7 Z M 293 10.1 C 293.4 8.4 293.8 6.7 293.8 5 C 293.8 3.2 293.4 1.4 293 -0.4 C 293 -0.4 293.7 -0.4 293.7 -0.4 C 294.2 1.4 294.9 3.1 294.9 4.9 C 294.9 6.7 294.2 8.4 293.7 10.1 C 293.7 10.1 293 10.1 293 10.1 Z " stroke="none" fill="#555555"/>  </g></svg>