<?xml version="1.0" standalone="no"?><!DOCTYPE svg PUBLIC "-//W3C//DTD SVG 1.1//EN" "http://www.w3.org/Graphics/SVG/1.1/DTD/svg11.dtd"><svg xmlns="http://www.w3.org/2000/svg" version="1.1" width="167.2px" height="133.7px" viewBox="0 0 167.2 133.7">  <desc>May limit the types of activities in which one can participate1,2</desc>  <defs/>  <g id="Polygon197337">    <path d="M 31 62.6 C 31 61.3 30.7 60.9 29.9 60.9 C 28.9 60.9 28.8 61.8 28.8 63.6 C 28.8 66.2 29 66.7 29.9 66.7 C 30.7 66.7 31 66.1 31 64.9 C 31 64.9 33.4 64.9 33.4 64.9 C 33.4 67.3 32.2 68.3 29.9 68.3 C 26.8 68.3 26.4 66.4 26.4 63.7 C 26.4 61.4 26.8 59.4 29.9 59.4 C 32.1 59.4 33.4 60.3 33.4 62.6 C 33.4 62.6 31 62.6 31 62.6 Z M 37.2 65.4 C 37.2 66.1 37.3 66.8 38.1 66.8 C 39.5 66.8 39.3 64.9 39.3 64 C 38.1 64 37.2 63.9 37.2 65.4 Z M 41.6 66.5 C 41.6 67 41.7 67.6 41.7 68.1 C 41.75 68.11 39.5 68.1 39.5 68.1 L 39.4 67 C 39.4 67 39.39 66.97 39.4 67 C 38.9 67.9 38.2 68.3 37.1 68.3 C 35.5 68.3 34.9 67 34.9 65.5 C 34.9 62.7 37.1 62.6 39.3 62.6 C 39.3 62.6 39.3 62 39.3 62 C 39.3 61.2 39.2 60.7 38.3 60.7 C 37.5 60.7 37.4 61.3 37.4 62 C 37.4 62 35.1 62 35.1 62 C 35.1 61 35.4 60.3 36 59.9 C 36.5 59.5 37.3 59.4 38.2 59.4 C 41.2 59.4 41.6 60.7 41.6 62.2 C 41.6 62.2 41.6 66.5 41.6 66.5 Z M 46 60.4 C 46 60.4 46.05 60.39 46.1 60.4 C 46.3 60 46.6 59.7 46.9 59.6 C 47.2 59.4 47.6 59.4 48.1 59.4 C 49.2 59.4 50.2 60 50.2 61.2 C 50.22 61.22 50.2 68.1 50.2 68.1 L 47.8 68.1 C 47.8 68.1 47.82 62.19 47.8 62.2 C 47.8 61.4 47.7 60.8 46.9 60.8 C 46.2 60.8 46 61.4 46 62.2 C 46.02 62.19 46 68.1 46 68.1 L 43.6 68.1 L 43.6 59.5 L 46 59.5 L 46 60.4 Z M 60.3 63.7 C 60.3 62 60.3 60.8 59.3 60.8 C 58.3 60.8 58.3 62 58.3 63.7 C 58.3 65.9 58.4 66.8 59.3 66.8 C 60.1 66.8 60.3 65.9 60.3 63.7 Z M 58.2 59.5 L 58.2 60.5 C 58.2 60.5 58.21 60.47 58.2 60.5 C 58.6 59.6 59.3 59.4 60.2 59.4 C 62.7 59.4 62.6 62.1 62.6 63.9 C 62.6 65.6 62.7 68.3 60.3 68.3 C 59.4 68.3 58.8 68 58.3 67.3 C 58.32 67.29 58.3 67.3 58.3 67.3 L 58.3 71.8 L 55.9 71.8 L 55.9 59.5 L 58.2 59.5 Z M 66.5 65.4 C 66.5 66.1 66.6 66.8 67.4 66.8 C 68.8 66.8 68.6 64.9 68.6 64 C 67.4 64 66.5 63.9 66.5 65.4 Z M 70.9 66.5 C 70.9 67 71 67.6 71 68.1 C 71.02 68.11 68.8 68.1 68.8 68.1 L 68.7 67 C 68.7 67 68.66 66.97 68.7 67 C 68.2 67.9 67.5 68.3 66.4 68.3 C 64.8 68.3 64.1 67 64.1 65.5 C 64.1 62.7 66.3 62.6 68.6 62.6 C 68.6 62.6 68.6 62 68.6 62 C 68.6 61.2 68.5 60.7 67.6 60.7 C 66.8 60.7 66.7 61.3 66.7 62 C 66.7 62 64.3 62 64.3 62 C 64.3 61 64.7 60.3 65.2 59.9 C 65.8 59.5 66.6 59.4 67.5 59.4 C 70.5 59.4 70.9 60.7 70.9 62.2 C 70.9 62.2 70.9 66.5 70.9 66.5 Z M 75.2 59.5 L 75.2 60.6 C 75.2 60.6 75.21 60.63 75.2 60.6 C 75.6 59.6 76.5 59.4 77.4 59.4 C 77.4 59.4 77.4 61.5 77.4 61.5 C 75.3 61.4 75.3 62.6 75.3 63.4 C 75.29 63.43 75.3 68.1 75.3 68.1 L 72.9 68.1 L 72.9 59.5 L 75.2 59.5 Z M 77.6 59.5 L 78.6 59.5 L 78.6 58.2 L 81 57.1 L 81 59.5 L 82.2 59.5 L 82.2 61 L 81 61 C 81 61 80.95 65.59 81 65.6 C 81 66.2 80.9 66.7 81.7 66.7 C 81.9 66.7 82 66.7 82.1 66.6 C 82.1 66.6 82.1 68.1 82.1 68.1 C 81.8 68.1 81.5 68.2 80.9 68.2 C 78.8 68.2 78.6 66.8 78.6 66.3 C 78.55 66.29 78.6 61 78.6 61 L 77.6 61 L 77.6 59.5 Z M 85.9 68.1 L 83.5 68.1 L 83.5 59.5 L 85.9 59.5 L 85.9 68.1 Z M 85.9 55.8 L 85.9 57.7 L 83.5 57.7 L 83.5 55.8 L 85.9 55.8 Z M 92.4 62.6 C 92.4 61.3 92.1 60.9 91.3 60.9 C 90.3 60.9 90.2 61.8 90.2 63.6 C 90.2 66.2 90.4 66.7 91.3 66.7 C 92.1 66.7 92.4 66.1 92.4 64.9 C 92.4 64.9 94.8 64.9 94.8 64.9 C 94.8 67.3 93.5 68.3 91.3 68.3 C 88.2 68.3 87.8 66.4 87.8 63.7 C 87.8 61.4 88.1 59.4 91.3 59.4 C 93.5 59.4 94.8 60.3 94.8 62.6 C 94.8 62.6 92.4 62.6 92.4 62.6 Z M 99.1 68.1 L 96.7 68.1 L 96.7 59.5 L 99.1 59.5 L 99.1 68.1 Z M 99.1 55.8 L 99.1 57.7 L 96.7 57.7 L 96.7 55.8 L 99.1 55.8 Z M 105.6 63.7 C 105.6 62 105.6 60.8 104.6 60.8 C 103.6 60.8 103.6 62 103.6 63.7 C 103.6 65.9 103.8 66.8 104.6 66.8 C 105.5 66.8 105.6 65.9 105.6 63.7 Z M 103.5 59.5 L 103.5 60.5 C 103.5 60.5 103.54 60.47 103.5 60.5 C 104 59.6 104.6 59.4 105.6 59.4 C 108 59.4 108 62.1 108 63.9 C 108 65.6 108 68.3 105.6 68.3 C 104.8 68.3 104.2 68 103.7 67.3 C 103.66 67.29 103.6 67.3 103.6 67.3 L 103.6 71.8 L 101.2 71.8 L 101.2 59.5 L 103.5 59.5 Z M 111.8 65.4 C 111.8 66.1 111.9 66.8 112.7 66.8 C 114.1 66.8 113.9 64.9 113.9 64 C 112.7 64 111.8 63.9 111.8 65.4 Z M 116.2 66.5 C 116.2 67 116.3 67.6 116.4 68.1 C 116.36 68.11 114.1 68.1 114.1 68.1 L 114 67 C 114 67 114 66.97 114 67 C 113.5 67.9 112.8 68.3 111.8 68.3 C 110.1 68.3 109.5 67 109.5 65.5 C 109.5 62.7 111.7 62.6 113.9 62.6 C 113.9 62.6 113.9 62 113.9 62 C 113.9 61.2 113.8 60.7 112.9 60.7 C 112.1 60.7 112 61.3 112 62 C 112 62 109.7 62 109.7 62 C 109.7 61 110 60.3 110.6 59.9 C 111.1 59.5 111.9 59.4 112.8 59.4 C 115.9 59.4 116.2 60.7 116.2 62.2 C 116.2 62.2 116.2 66.5 116.2 66.5 Z M 117.3 59.5 L 118.2 59.5 L 118.2 58.2 L 120.6 57.1 L 120.6 59.5 L 121.9 59.5 L 121.9 61 L 120.6 61 C 120.6 61 120.63 65.59 120.6 65.6 C 120.6 66.2 120.6 66.7 121.4 66.7 C 121.5 66.7 121.7 66.7 121.8 66.6 C 121.8 66.6 121.8 68.1 121.8 68.1 C 121.5 68.1 121.2 68.2 120.6 68.2 C 118.5 68.2 118.2 66.8 118.2 66.3 C 118.23 66.29 118.2 61 118.2 61 L 117.3 61 L 117.3 59.5 Z M 127.4 62.9 C 127.4 62 127.4 60.8 126.3 60.8 C 125.2 60.8 125.2 62.1 125.2 62.9 C 125.2 62.9 127.4 62.9 127.4 62.9 Z M 125.2 64.2 C 125.2 65.2 125.2 66.7 126.3 66.7 C 127.1 66.7 127.3 65.9 127.3 65.2 C 127.3 65.2 129.7 65.2 129.7 65.2 C 129.7 66.2 129.4 66.9 128.8 67.4 C 128.2 68 127.4 68.3 126.3 68.3 C 123.2 68.3 122.8 66.4 122.8 63.7 C 122.8 61.4 123.1 59.4 126.3 59.4 C 129.5 59.4 129.8 61.4 129.8 64.2 C 129.8 64.2 125.2 64.2 125.2 64.2 Z M 131 56.6 C 131.5 56.3 132 56 132.3 55.5 C 132.33 55.53 133.7 55.5 133.7 55.5 L 133.7 62.4 L 132.2 62.4 C 132.2 62.4 132.16 57.13 132.2 57.1 C 131.8 57.4 131.4 57.7 131 57.9 C 131 57.9 131 56.6 131 56.6 Z M 135.6 61.1 L 136.9 61.1 L 136.1 63.4 L 135.2 63.4 L 135.6 61.1 Z M 137.2 62.4 C 137.2 62.4 137.23 61.23 137.2 61.2 C 139.4 58.3 139.9 58 139.9 57.1 C 139.9 56.8 139.7 56.5 139.3 56.5 C 138.8 56.5 138.7 57 138.7 57.4 C 138.7 57.4 137.3 57.4 137.3 57.4 C 137.2 56.2 138 55.4 139.2 55.4 C 140.4 55.4 141.3 55.9 141.3 57.2 C 141.3 58.8 139.4 60.5 138.7 61.4 C 138.69 61.38 141.3 61.4 141.3 61.4 L 141.3 62.4 L 137.2 62.4 Z " stroke="none" fill="#003c71"/>  </g>  <g id="Polygon197336">    <path d="M 7.8 45 C 7.8 45.7 7.9 46.4 8.7 46.4 C 10.1 46.4 9.8 44.5 9.8 43.6 C 8.7 43.6 7.8 43.5 7.8 45 Z M 12.2 46.1 C 12.2 46.6 12.3 47.2 12.3 47.7 C 12.31 47.71 10.1 47.7 10.1 47.7 L 10 46.6 C 10 46.6 9.94 46.57 9.9 46.6 C 9.4 47.5 8.7 47.9 7.7 47.9 C 6 47.9 5.4 46.6 5.4 45.1 C 5.4 42.3 7.6 42.2 9.8 42.2 C 9.8 42.2 9.8 41.6 9.8 41.6 C 9.8 40.8 9.7 40.3 8.9 40.3 C 8 40.3 8 40.9 8 41.6 C 8 41.6 5.6 41.6 5.6 41.6 C 5.6 40.6 5.9 39.9 6.5 39.5 C 7.1 39.1 7.8 39 8.8 39 C 11.8 39 12.2 40.3 12.2 41.8 C 12.2 41.8 12.2 46.1 12.2 46.1 Z M 18.5 42.2 C 18.5 40.9 18.2 40.5 17.5 40.5 C 16.5 40.5 16.4 41.4 16.4 43.2 C 16.4 45.8 16.6 46.3 17.5 46.3 C 18.2 46.3 18.6 45.7 18.6 44.5 C 18.6 44.5 21 44.5 21 44.5 C 21 46.9 19.7 47.9 17.5 47.9 C 14.4 47.9 14 46 14 43.3 C 14 41 14.3 39 17.5 39 C 19.7 39 20.9 39.9 20.9 42.2 C 20.9 42.2 18.5 42.2 18.5 42.2 Z M 21.7 39.1 L 22.7 39.1 L 22.7 37.8 L 25.1 36.7 L 25.1 39.1 L 26.3 39.1 L 26.3 40.6 L 25.1 40.6 C 25.1 40.6 25.07 45.19 25.1 45.2 C 25.1 45.8 25.1 46.3 25.8 46.3 C 26 46.3 26.1 46.3 26.3 46.2 C 26.3 46.2 26.3 47.7 26.3 47.7 C 25.9 47.7 25.6 47.8 25 47.8 C 22.9 47.8 22.7 46.4 22.7 45.9 C 22.68 45.89 22.7 40.6 22.7 40.6 L 21.7 40.6 L 21.7 39.1 Z M 30 47.7 L 27.6 47.7 L 27.6 39.1 L 30 39.1 L 30 47.7 Z M 30 35.4 L 30 37.3 L 27.6 37.3 L 27.6 35.4 L 30 35.4 Z M 31.3 39.1 L 33.7 39.1 L 35 45.6 L 35 45.6 L 36.2 39.1 L 38.6 39.1 L 36.2 47.7 L 33.6 47.7 L 31.3 39.1 Z M 42.3 47.7 L 39.9 47.7 L 39.9 39.1 L 42.3 39.1 L 42.3 47.7 Z M 42.3 35.4 L 42.3 37.3 L 39.9 37.3 L 39.9 35.4 L 42.3 35.4 Z M 43.4 39.1 L 44.4 39.1 L 44.4 37.8 L 46.8 36.7 L 46.8 39.1 L 48 39.1 L 48 40.6 L 46.8 40.6 C 46.8 40.6 46.8 45.19 46.8 45.2 C 46.8 45.8 46.8 46.3 47.6 46.3 C 47.7 46.3 47.9 46.3 48 46.2 C 48 46.2 48 47.7 48 47.7 C 47.7 47.7 47.3 47.8 46.7 47.8 C 44.7 47.8 44.4 46.4 44.4 45.9 C 44.4 45.89 44.4 40.6 44.4 40.6 L 43.4 40.6 L 43.4 39.1 Z M 51.7 47.7 L 49.3 47.7 L 49.3 39.1 L 51.7 39.1 L 51.7 47.7 Z M 51.7 35.4 L 51.7 37.3 L 49.3 37.3 L 49.3 35.4 L 51.7 35.4 Z M 58.3 42.5 C 58.3 41.6 58.3 40.4 57.2 40.4 C 56 40.4 56.1 41.7 56.1 42.5 C 56.1 42.5 58.3 42.5 58.3 42.5 Z M 56.1 43.8 C 56.1 44.8 56.1 46.3 57.2 46.3 C 58 46.3 58.2 45.5 58.2 44.8 C 58.2 44.8 60.6 44.8 60.6 44.8 C 60.6 45.8 60.3 46.5 59.7 47 C 59.1 47.6 58.3 47.9 57.2 47.9 C 54.1 47.9 53.7 46 53.7 43.3 C 53.7 41 54 39 57.2 39 C 60.4 39 60.7 41 60.7 43.8 C 60.7 43.8 56.1 43.8 56.1 43.8 Z M 64.2 45 C 64.2 45.3 64.2 45.7 64.4 46 C 64.5 46.3 64.8 46.4 65.2 46.4 C 65.7 46.4 66.1 46.1 66.1 45.5 C 66.1 43.7 61.9 44.1 61.9 41.4 C 61.9 39.5 63.7 39 65.3 39 C 66.9 39 68.4 39.7 68.3 41.6 C 68.3 41.6 65.9 41.6 65.9 41.6 C 65.9 41 65.8 40.6 65.7 40.5 C 65.5 40.3 65.3 40.3 65.1 40.3 C 64.5 40.3 64.2 40.6 64.2 41.2 C 64.2 42.6 68.5 42.5 68.5 45.3 C 68.5 46.8 67.2 47.9 65.2 47.9 C 63.2 47.9 61.8 47.4 61.9 45 C 61.9 45 64.2 45 64.2 45 Z M 76.3 47.7 L 73.9 47.7 L 73.9 39.1 L 76.3 39.1 L 76.3 47.7 Z M 76.3 35.4 L 76.3 37.3 L 73.9 37.3 L 73.9 35.4 L 76.3 35.4 Z M 80.8 40 C 80.8 40 80.83 39.99 80.8 40 C 81.1 39.6 81.4 39.3 81.7 39.2 C 82 39 82.4 39 82.9 39 C 84 39 85 39.6 85 40.8 C 85 40.82 85 47.7 85 47.7 L 82.6 47.7 C 82.6 47.7 82.6 41.79 82.6 41.8 C 82.6 41 82.5 40.4 81.7 40.4 C 80.9 40.4 80.8 41 80.8 41.8 C 80.8 41.79 80.8 47.7 80.8 47.7 L 78.4 47.7 L 78.4 39.1 L 80.8 39.1 L 80.8 40 Z M 89.9 39.1 L 92.3 39.1 L 93.5 45.6 L 93.5 45.6 L 95.1 39.1 L 97.6 39.1 L 99.1 45.6 L 99.2 45.6 L 100.5 39.1 L 102.8 39.1 L 100.4 47.7 L 97.9 47.7 L 96.4 41.8 L 96.3 41.8 L 94.6 47.7 L 92.1 47.7 L 89.9 39.1 Z M 108.1 47.7 C 108.1 47.7 108.1 41.79 108.1 41.8 C 108.1 41 108 40.4 107.2 40.4 C 106.4 40.4 106.3 41 106.3 41.8 C 106.3 41.79 106.3 47.7 106.3 47.7 L 103.9 47.7 L 103.9 35.4 L 106.3 35.4 L 106.3 40 C 106.3 40 106.33 39.99 106.3 40 C 106.6 39.6 106.9 39.3 107.2 39.2 C 107.5 39 107.9 39 108.4 39 C 109.5 39 110.5 39.6 110.5 40.8 C 110.5 40.82 110.5 47.7 110.5 47.7 L 108.1 47.7 Z M 115 47.7 L 112.6 47.7 L 112.6 39.1 L 115 39.1 L 115 47.7 Z M 115 35.4 L 115 37.3 L 112.6 37.3 L 112.6 35.4 L 115 35.4 Z M 121.5 42.2 C 121.5 40.9 121.2 40.5 120.4 40.5 C 119.4 40.5 119.3 41.4 119.3 43.2 C 119.3 45.8 119.5 46.3 120.4 46.3 C 121.2 46.3 121.5 45.7 121.5 44.5 C 121.5 44.5 123.9 44.5 123.9 44.5 C 123.9 46.9 122.7 47.9 120.4 47.9 C 117.3 47.9 116.9 46 116.9 43.3 C 116.9 41 117.3 39 120.4 39 C 122.6 39 123.9 39.9 123.9 42.2 C 123.9 42.2 121.5 42.2 121.5 42.2 Z M 129.8 47.7 C 129.8 47.7 129.83 41.79 129.8 41.8 C 129.8 41 129.7 40.4 128.9 40.4 C 128.2 40.4 128 41 128 41.8 C 128.02 41.79 128 47.7 128 47.7 L 125.6 47.7 L 125.6 35.4 L 128 35.4 L 128 40 C 128 40 128.06 39.99 128.1 40 C 128.3 39.6 128.6 39.3 128.9 39.2 C 129.2 39 129.6 39 130.1 39 C 131.2 39 132.2 39.6 132.2 40.8 C 132.22 40.82 132.2 47.7 132.2 47.7 L 129.8 47.7 Z M 142.3 43.2 C 142.3 41.4 142.2 40.5 141.2 40.5 C 140.2 40.5 140.1 41.4 140.1 43.2 C 140.1 45.8 140.3 46.3 141.2 46.3 C 142.1 46.3 142.3 45.8 142.3 43.2 Z M 137.7 43.3 C 137.7 41 138 39 141.2 39 C 144.4 39 144.7 41 144.7 43.3 C 144.7 46 144.3 47.9 141.2 47.9 C 138.1 47.9 137.7 46 137.7 43.3 Z M 148.8 40 C 148.8 40 148.83 39.99 148.8 40 C 149.1 39.6 149.4 39.3 149.7 39.2 C 150 39 150.4 39 150.9 39 C 152 39 153 39.6 153 40.8 C 153 40.82 153 47.7 153 47.7 L 150.6 47.7 C 150.6 47.7 150.6 41.79 150.6 41.8 C 150.6 41 150.5 40.4 149.7 40.4 C 148.9 40.4 148.8 41 148.8 41.8 C 148.8 41.79 148.8 47.7 148.8 47.7 L 146.4 47.7 L 146.4 39.1 L 148.8 39.1 L 148.8 40 Z M 159.3 42.5 C 159.3 41.6 159.3 40.4 158.2 40.4 C 157.1 40.4 157.1 41.7 157.1 42.5 C 157.1 42.5 159.3 42.5 159.3 42.5 Z M 157.1 43.8 C 157.1 44.8 157.1 46.3 158.2 46.3 C 159 46.3 159.2 45.5 159.2 44.8 C 159.2 44.8 161.7 44.8 161.7 44.8 C 161.6 45.8 161.3 46.5 160.7 47 C 160.2 47.6 159.3 47.9 158.2 47.9 C 155.1 47.9 154.7 46 154.7 43.3 C 154.7 41 155 39 158.2 39 C 161.4 39 161.8 41 161.7 43.8 C 161.7 43.8 157.1 43.8 157.1 43.8 Z " stroke="none" fill="#003c71"/>  </g>  <g id="Polygon197335">    <path d="M 10.5 27.3 L 10.5 15 L 14.6 15 L 16.5 23.4 L 16.6 23.4 L 18.6 15 L 22.6 15 L 22.6 27.3 L 20.1 27.3 L 20.1 17.8 L 20.1 17.8 L 17.7 27.3 L 15.3 27.3 L 13 17.8 L 13 17.8 L 13 27.3 L 10.5 27.3 Z M 26.7 24.6 C 26.7 25.3 26.8 26 27.5 26 C 29 26 28.7 24.1 28.7 23.2 C 27.5 23.2 26.7 23.1 26.7 24.6 Z M 31.1 25.7 C 31.1 26.2 31.2 26.8 31.2 27.3 C 31.2 27.31 29 27.3 29 27.3 L 28.9 26.2 C 28.9 26.2 28.84 26.17 28.8 26.2 C 28.3 27.1 27.6 27.5 26.6 27.5 C 24.9 27.5 24.3 26.2 24.3 24.7 C 24.3 21.9 26.5 21.8 28.7 21.8 C 28.7 21.8 28.7 21.2 28.7 21.2 C 28.7 20.4 28.6 19.9 27.8 19.9 C 26.9 19.9 26.9 20.5 26.9 21.2 C 26.9 21.2 24.5 21.2 24.5 21.2 C 24.5 20.2 24.8 19.5 25.4 19.1 C 25.9 18.7 26.7 18.6 27.6 18.6 C 30.7 18.6 31.1 19.9 31.1 21.4 C 31.1 21.4 31.1 25.7 31.1 25.7 Z M 34.6 27.4 L 32.3 18.7 L 34.7 18.7 L 35.9 24.8 L 35.9 24.8 L 37.2 18.7 L 39.5 18.7 L 36.2 30.6 L 33.7 30.6 L 34.6 27.4 Z M 47 15 L 47 27.3 L 44.6 27.3 L 44.6 15 L 47 15 Z M 51.7 27.3 L 49.3 27.3 L 49.3 18.7 L 51.7 18.7 L 51.7 27.3 Z M 51.7 15 L 51.7 16.9 L 49.3 16.9 L 49.3 15 L 51.7 15 Z M 56.1 19.6 C 56.1 19.6 56.09 19.59 56.1 19.6 C 56.6 18.8 57.2 18.6 58.1 18.6 C 59 18.6 59.6 19 60 19.6 C 60.6 18.9 61.3 18.6 62.3 18.6 C 63.4 18.6 64.4 19.2 64.4 20.4 C 64.4 20.42 64.4 27.3 64.4 27.3 L 62 27.3 C 62 27.3 62.01 21.39 62 21.4 C 62 20.6 61.9 20 61.1 20 C 60.3 20 60.2 20.6 60.2 21.4 C 60.2 21.39 60.2 27.3 60.2 27.3 L 57.9 27.3 C 57.9 27.3 57.86 21.39 57.9 21.4 C 57.9 20.6 57.7 20 57 20 C 56.2 20 56.1 20.6 56.1 21.4 C 56.06 21.39 56.1 27.3 56.1 27.3 L 53.7 27.3 L 53.7 18.7 L 56.1 18.7 L 56.1 19.6 Z M 68.7 27.3 L 66.3 27.3 L 66.3 18.7 L 68.7 18.7 L 68.7 27.3 Z M 68.7 15 L 68.7 16.9 L 66.3 16.9 L 66.3 15 L 68.7 15 Z M 69.9 18.7 L 70.8 18.7 L 70.8 17.4 L 73.2 16.3 L 73.2 18.7 L 74.5 18.7 L 74.5 20.2 L 73.2 20.2 C 73.2 20.2 73.24 24.79 73.2 24.8 C 73.2 25.4 73.2 25.9 74 25.9 C 74.2 25.9 74.3 25.9 74.4 25.8 C 74.4 25.8 74.4 27.3 74.4 27.3 C 74.1 27.3 73.8 27.4 73.2 27.4 C 71.1 27.4 70.8 26 70.8 25.5 C 70.85 25.49 70.8 20.2 70.8 20.2 L 69.9 20.2 L 69.9 18.7 Z M 78.4 18.7 L 79.3 18.7 L 79.3 17.4 L 81.7 16.3 L 81.7 18.7 L 83 18.7 L 83 20.2 L 81.7 20.2 C 81.7 20.2 81.74 24.79 81.7 24.8 C 81.7 25.4 81.7 25.9 82.5 25.9 C 82.7 25.9 82.8 25.9 82.9 25.8 C 82.9 25.8 82.9 27.3 82.9 27.3 C 82.6 27.3 82.3 27.4 81.7 27.4 C 79.6 27.4 79.3 26 79.3 25.5 C 79.35 25.49 79.3 20.2 79.3 20.2 L 78.4 20.2 L 78.4 18.7 Z M 88.3 27.3 C 88.3 27.3 88.27 21.39 88.3 21.4 C 88.3 20.6 88.1 20 87.4 20 C 86.6 20 86.5 20.6 86.5 21.4 C 86.47 21.39 86.5 27.3 86.5 27.3 L 84.1 27.3 L 84.1 15 L 86.5 15 L 86.5 19.6 C 86.5 19.6 86.5 19.59 86.5 19.6 C 86.7 19.2 87 18.9 87.4 18.8 C 87.7 18.6 88.1 18.6 88.5 18.6 C 89.7 18.6 90.7 19.2 90.7 20.4 C 90.67 20.42 90.7 27.3 90.7 27.3 L 88.3 27.3 Z M 97 22.1 C 97 21.2 97 20 95.9 20 C 94.8 20 94.8 21.3 94.8 22.1 C 94.8 22.1 97 22.1 97 22.1 Z M 94.8 23.4 C 94.8 24.4 94.8 25.9 95.9 25.9 C 96.7 25.9 96.9 25.1 96.9 24.4 C 96.9 24.4 99.3 24.4 99.3 24.4 C 99.3 25.4 99 26.1 98.4 26.6 C 97.8 27.2 97 27.5 95.9 27.5 C 92.8 27.5 92.4 25.6 92.4 22.9 C 92.4 20.6 92.7 18.6 95.9 18.6 C 99.1 18.6 99.5 20.6 99.4 23.4 C 99.4 23.4 94.8 23.4 94.8 23.4 Z M 103.9 18.7 L 104.8 18.7 L 104.8 17.4 L 107.2 16.3 L 107.2 18.7 L 108.5 18.7 L 108.5 20.2 L 107.2 20.2 C 107.2 20.2 107.24 24.79 107.2 24.8 C 107.2 25.4 107.2 25.9 108 25.9 C 108.2 25.9 108.3 25.9 108.4 25.8 C 108.4 25.8 108.4 27.3 108.4 27.3 C 108.1 27.3 107.8 27.4 107.2 27.4 C 105.1 27.4 104.8 26 104.8 25.5 C 104.85 25.49 104.8 20.2 104.8 20.2 L 103.9 20.2 L 103.9 18.7 Z M 111.1 27.4 L 108.8 18.7 L 111.2 18.7 L 112.4 24.8 L 112.4 24.8 L 113.7 18.7 L 116 18.7 L 112.7 30.6 L 110.2 30.6 L 111.1 27.4 Z M 121.5 22.9 C 121.5 21.2 121.5 20 120.5 20 C 119.5 20 119.5 21.2 119.5 22.9 C 119.5 25.1 119.7 26 120.5 26 C 121.4 26 121.5 25.1 121.5 22.9 Z M 119.4 18.7 L 119.4 19.7 C 119.4 19.7 119.43 19.67 119.4 19.7 C 119.9 18.8 120.5 18.6 121.5 18.6 C 123.9 18.6 123.9 21.3 123.9 23.1 C 123.9 24.8 123.9 27.5 121.5 27.5 C 120.6 27.5 120 27.2 119.5 26.5 C 119.55 26.49 119.5 26.5 119.5 26.5 L 119.5 31 L 117.1 31 L 117.1 18.7 L 119.4 18.7 Z M 130 22.1 C 130 21.2 130.1 20 128.9 20 C 127.8 20 127.8 21.3 127.8 22.1 C 127.8 22.1 130 22.1 130 22.1 Z M 127.8 23.4 C 127.8 24.4 127.9 25.9 128.9 25.9 C 129.8 25.9 129.9 25.1 129.9 24.4 C 129.9 24.4 132.4 24.4 132.4 24.4 C 132.3 25.4 132 26.1 131.4 26.6 C 130.9 27.2 130 27.5 128.9 27.5 C 125.8 27.5 125.4 25.6 125.4 22.9 C 125.4 20.6 125.8 18.6 128.9 18.6 C 132.1 18.6 132.5 20.6 132.4 23.4 C 132.4 23.4 127.8 23.4 127.8 23.4 Z M 136 24.6 C 136 24.9 136 25.3 136.1 25.6 C 136.3 25.9 136.5 26 137 26 C 137.5 26 137.9 25.7 137.9 25.1 C 137.9 23.3 133.7 23.7 133.7 21 C 133.7 19.1 135.5 18.6 137 18.6 C 138.7 18.6 140.2 19.3 140 21.2 C 140 21.2 137.7 21.2 137.7 21.2 C 137.7 20.6 137.6 20.2 137.4 20.1 C 137.3 19.9 137.1 19.9 136.8 19.9 C 136.3 19.9 136 20.2 136 20.8 C 136 22.2 140.2 22.1 140.2 24.9 C 140.2 26.4 139 27.5 137 27.5 C 134.9 27.5 133.5 27 133.7 24.6 C 133.7 24.6 136 24.6 136 24.6 Z M 149.8 22.8 C 149.8 21 149.8 20.1 148.7 20.1 C 147.7 20.1 147.6 21 147.6 22.8 C 147.6 25.4 147.9 25.9 148.7 25.9 C 149.6 25.9 149.8 25.4 149.8 22.8 Z M 145.2 22.9 C 145.2 20.6 145.6 18.6 148.7 18.6 C 151.9 18.6 152.2 20.6 152.2 22.9 C 152.2 25.6 151.8 27.5 148.7 27.5 C 145.6 27.5 145.2 25.6 145.2 22.9 Z M 157.6 16.5 C 156.7 16.4 156.5 16.8 156.5 17.7 C 156.46 17.69 156.5 18.7 156.5 18.7 L 157.6 18.7 L 157.6 20.2 L 156.5 20.2 L 156.5 27.3 L 154.1 27.3 L 154.1 20.2 L 153 20.2 L 153 18.7 C 153 18.7 154.08 18.72 154.1 18.7 C 154.1 16.3 153.9 14.9 156.8 14.9 C 157.1 14.9 157.3 15 157.6 15 C 157.6 15 157.6 16.5 157.6 16.5 Z " stroke="none" fill="#003c71"/>  </g></svg>