<?xml version="1.0" standalone="no"?><!DOCTYPE svg PUBLIC "-//W3C//DTD SVG 1.1//EN" "http://www.w3.org/Graphics/SVG/1.1/DTD/svg11.dtd"><svg xmlns="http://www.w3.org/2000/svg" version="1.1" width="25px" height="30.6px" viewBox="0 -1 25 30.6" style="top:-1px">  <desc>SPC</desc>  <defs/>  <g id="Polygon197050">    <path d="M 5.4 14.7 L 6.7 14.7 C 6.7 14.7 6.67 15.49 6.7 15.5 C 6.7 16.1 6.9 16.5 7.4 16.5 C 8.1 16.5 8.3 16 8.3 15.4 C 8.3 14.6 8.2 14.4 6.9 13 C 6.1 12.2 5.4 11.5 5.4 10.2 C 5.4 8.6 6.1 8 7.5 8 C 8.2 8 8.7 8.2 9 8.5 C 9.2 8.7 9.4 9 9.4 9.7 C 9.4 9.7 9.4 10.6 9.4 10.6 L 8.2 10.6 C 8.2 10.6 8.18 9.84 8.2 9.8 C 8.2 9.3 8 9 7.5 9 C 6.9 9 6.7 9.3 6.7 10 C 6.7 10.7 6.8 11 8 12.3 C 9.3 13.6 9.5 14.1 9.5 15.2 C 9.5 16.7 8.9 17.5 7.4 17.5 C 6.2 17.5 5.4 17 5.4 15.8 C 5.38 15.85 5.4 14.7 5.4 14.7 Z M 11.6 12.3 C 11.6 12.3 12.3 12.27 12.3 12.3 C 13.2 12.3 13.3 12.1 13.3 10.7 C 13.3 9.3 13.2 9.1 12.3 9.1 C 12.3 9.15 11.6 9.1 11.6 9.1 L 11.6 12.3 Z M 10.3 8.1 C 10.3 8.1 12.47 8.06 12.5 8.1 C 14.2 8.1 14.6 8.5 14.6 10.7 C 14.6 12.9 14.2 13.4 12.5 13.4 C 12.47 13.36 11.6 13.4 11.6 13.4 L 11.6 17.4 L 10.3 17.4 L 10.3 8.1 Z M 15.5 10.4 C 15.5 9.1 15.9 8 17.7 8 C 19 8 19.6 8.6 19.6 9.7 C 19.58 9.68 19.6 10.6 19.6 10.6 L 18.4 10.6 C 18.4 10.6 18.36 9.97 18.4 10 C 18.4 9.4 18.2 9 17.6 9 C 16.9 9 16.8 9.5 16.8 10.6 C 16.8 10.6 16.8 15.2 16.8 15.2 C 16.8 16.3 17.2 16.5 17.6 16.5 C 18.1 16.5 18.4 16.2 18.4 15.4 C 18.36 15.39 18.4 14.7 18.4 14.7 L 19.6 14.7 C 19.6 14.7 19.58 15.78 19.6 15.8 C 19.6 16.8 19.2 17.5 17.7 17.5 C 16 17.5 15.5 16.7 15.5 15.2 C 15.5 15.2 15.5 10.4 15.5 10.4 Z " stroke="none" fill="#fff"/>  </g></svg>