<?xml version="1.0" standalone="no"?><!DOCTYPE svg PUBLIC "-//W3C//DTD SVG 1.1//EN" "http://www.w3.org/Graphics/SVG/1.1/DTD/svg11.dtd"><svg xmlns="http://www.w3.org/2000/svg" version="1.1" width="297px" height="97.3px" viewBox="0 -4 297 97.3" style="top:-4px">  <desc>ANDEMBRY® treated patients who were attack free in the Phase 3 pivotal study and rolled over to the Phase 3 OLE (n=21...</desc>  <defs/>  <g id="Polygon200226">    <path d="M 3.8 56.7 C 3.8 56.7 3.84 52.49 3.8 52.5 C 3.8 51.9 3.7 51.3 2.9 51.3 C 2.6 51.3 2.2 51.5 2 51.7 C 1.8 52 1.8 52.4 1.8 52.6 C 1.8 52.61 1.8 56.7 1.8 56.7 L 0.8 56.7 C 0.8 56.7 0.82 51.89 0.8 51.9 C 0.8 51.5 0.8 51 0.8 50.6 C 0.76 50.63 1.8 50.6 1.8 50.6 L 1.8 51.4 C 1.8 51.4 1.82 51.38 1.8 51.4 C 2.1 50.7 2.6 50.5 3.3 50.5 C 3.9 50.5 4.5 50.7 4.8 51.3 C 5.1 50.6 5.6 50.5 6.2 50.5 C 6.8 50.5 7.8 50.7 7.8 52.1 C 7.85 52.08 7.8 56.7 7.8 56.7 L 6.9 56.7 C 6.9 56.7 6.86 52.49 6.9 52.5 C 6.9 51.9 6.7 51.3 5.9 51.3 C 5.5 51.3 5.4 51.3 5.2 51.5 C 4.9 51.8 4.8 52.4 4.8 52.6 C 4.82 52.61 4.8 56.7 4.8 56.7 L 3.8 56.7 Z M 12.9 53.2 C 12.9 51.5 12.4 51.3 11.6 51.3 C 11 51.3 10.5 51.6 10.5 53.2 C 10.5 53.2 12.9 53.2 12.9 53.2 Z M 10.5 54 C 10.5 55.7 10.9 56 11.7 56 C 12.4 56 12.7 55.5 12.8 54.9 C 12.8 54.9 13.8 54.9 13.8 54.9 C 13.8 56.2 13 56.8 11.7 56.8 C 10.5 56.8 9.4 56.4 9.4 53.7 C 9.4 52 9.6 50.5 11.7 50.5 C 13.5 50.5 13.9 51.5 13.9 53.5 C 13.9 53.46 13.9 54 13.9 54 C 13.9 54 10.49 53.98 10.5 54 Z M 16.4 54.9 C 16.4 55.5 16.7 56 17.4 56 C 18 56 18.7 55.6 18.6 53.7 C 17.7 53.7 16.4 53.6 16.4 54.9 Z M 18.6 55.8 C 18.6 55.8 18.62 55.81 18.6 55.8 C 18.3 56.5 17.9 56.8 17.1 56.8 C 15.8 56.8 15.4 56 15.4 54.8 C 15.4 53 17.2 52.9 18.6 52.9 C 18.6 52.1 18.7 51.3 17.6 51.3 C 16.9 51.3 16.6 51.7 16.7 52.3 C 16.7 52.3 15.6 52.3 15.6 52.3 C 15.6 51 16.4 50.5 17.6 50.5 C 19.2 50.5 19.6 51.3 19.6 52.3 C 19.6 52.3 19.6 55.2 19.6 55.2 C 19.6 55.7 19.7 56.2 19.7 56.7 C 19.73 56.69 18.6 56.7 18.6 56.7 L 18.6 55.8 Z M 24.8 56.7 C 24.8 56.7 24.82 52.49 24.8 52.5 C 24.8 51.8 24.6 51.3 23.7 51.3 C 22.7 51.3 22.5 52.3 22.5 53.1 C 22.51 53.1 22.5 56.7 22.5 56.7 L 21.5 56.7 C 21.5 56.7 21.53 51.89 21.5 51.9 C 21.5 51.5 21.5 51 21.5 50.6 C 21.47 50.63 22.5 50.6 22.5 50.6 L 22.5 51.4 C 22.5 51.4 22.56 51.41 22.6 51.4 C 22.9 50.7 23.4 50.5 24.2 50.5 C 25.5 50.5 25.8 51.3 25.8 52.5 C 25.8 52.49 25.8 56.7 25.8 56.7 L 24.8 56.7 Z M 33.5 53.2 C 33.5 51.5 33 51.3 32.3 51.3 C 31.7 51.3 31.2 51.6 31.2 53.2 C 31.2 53.2 33.5 53.2 33.5 53.2 Z M 31.2 54 C 31.2 55.7 31.6 56 32.4 56 C 33 56 33.4 55.5 33.4 54.9 C 33.4 54.9 34.5 54.9 34.5 54.9 C 34.5 56.2 33.7 56.8 32.4 56.8 C 31.1 56.8 30.1 56.4 30.1 53.7 C 30.1 52 30.3 50.5 32.4 50.5 C 34.1 50.5 34.6 51.5 34.6 53.5 C 34.56 53.46 34.6 54 34.6 54 C 34.6 54 31.15 53.98 31.2 54 Z M 40.6 56.7 L 39.3 56.7 L 37.9 54.2 L 36.6 56.7 L 35.4 56.7 L 37.3 53.5 L 35.6 50.6 L 36.8 50.6 L 38 52.8 L 39.2 50.6 L 40.4 50.6 L 38.6 53.5 L 40.6 56.7 Z M 44.9 53.6 C 44.9 52.6 44.9 51.3 43.7 51.3 C 42.5 51.3 42.6 53 42.6 53.9 C 42.6 54.7 42.6 56 43.7 56 C 44.8 56 44.9 55.2 44.9 53.6 Z M 42.6 51.3 C 42.6 51.3 42.61 51.35 42.6 51.3 C 42.9 50.8 43.4 50.5 44 50.5 C 45 50.5 46 50.9 46 53.6 C 46 55.1 45.9 56.8 44 56.8 C 43.4 56.8 43 56.6 42.6 56.1 C 42.62 56.08 42.6 56.1 42.6 56.1 L 42.6 59 L 41.6 59 L 41.6 50.6 L 42.6 50.6 L 42.6 51.3 Z M 50.9 53.3 C 50.9 51.7 50.4 51.3 49.7 51.3 C 48.9 51.3 48.4 51.7 48.4 53.3 C 48.4 55.3 48.6 56 49.7 56 C 50.7 56 50.9 55.3 50.9 53.3 Z M 47.4 53.7 C 47.4 52 47.6 50.5 49.7 50.5 C 51.8 50.5 52 52 52 53.7 C 52 56.4 50.9 56.8 49.7 56.8 C 48.4 56.8 47.4 56.4 47.4 53.7 Z M 55.3 56.8 C 54 56.8 53.2 56.2 53.2 54.8 C 53.2 54.8 54.3 54.8 54.3 54.8 C 54.3 55.2 54.3 56 55.3 56 C 55.9 56 56.4 55.7 56.4 55.1 C 56.4 54 53.4 54 53.4 52.2 C 53.4 51.5 53.7 50.5 55.5 50.5 C 56.5 50.5 57.5 51 57.4 52.2 C 57.4 52.2 56.3 52.2 56.3 52.2 C 56.3 51.6 56 51.3 55.3 51.3 C 54.8 51.3 54.4 51.5 54.4 52.1 C 54.4 53.1 57.4 53.1 57.4 55 C 57.4 56.3 56.5 56.8 55.3 56.8 Z M 62.1 50.6 L 63.1 50.6 C 63.1 50.6 63.07 55.43 63.1 55.4 C 63.1 55.8 63.1 56.3 63.1 56.7 C 63.13 56.69 62.1 56.7 62.1 56.7 L 62.1 56 C 62.1 56 62.05 55.96 62.1 56 C 61.7 56.5 61.2 56.8 60.5 56.8 C 59.5 56.8 58.9 56.3 58.9 55.2 C 58.88 55.25 58.9 50.6 58.9 50.6 L 59.9 50.6 C 59.9 50.6 59.87 54.83 59.9 54.8 C 59.9 55.6 60.2 56.1 60.9 56.1 C 61.4 56.1 62.1 55.7 62.1 54.6 C 62.09 54.65 62.1 50.6 62.1 50.6 Z M 65.9 51.5 C 65.9 51.5 65.89 51.54 65.9 51.5 C 66.3 50.6 66.8 50.5 67.8 50.5 C 67.8 50.5 67.8 51.5 67.8 51.5 C 67.7 51.5 67.6 51.5 67.5 51.5 C 67.4 51.5 67.3 51.5 67.2 51.5 C 66.1 51.5 65.9 52.3 65.9 53.1 C 65.87 53.11 65.9 56.7 65.9 56.7 L 64.9 56.7 L 64.9 50.6 L 65.9 50.6 L 65.9 51.5 Z M 72.2 53.2 C 72.2 51.5 71.7 51.3 71 51.3 C 70.3 51.3 69.8 51.6 69.8 53.2 C 69.8 53.2 72.2 53.2 72.2 53.2 Z M 69.8 54 C 69.8 55.7 70.3 56 71 56 C 71.7 56 72 55.5 72.1 54.9 C 72.1 54.9 73.2 54.9 73.2 54.9 C 73.2 56.2 72.3 56.8 71.1 56.8 C 69.8 56.8 68.7 56.4 68.7 53.7 C 68.7 52 69 50.5 71.1 50.5 C 72.8 50.5 73.2 51.5 73.2 53.5 C 73.21 53.46 73.2 54 73.2 54 C 73.2 54 69.8 53.98 69.8 54 Z M 80.9 53.3 C 80.9 51.7 80.4 51.3 79.6 51.3 C 78.9 51.3 78.4 51.7 78.4 53.3 C 78.4 55.3 78.6 56 79.6 56 C 80.7 56 80.9 55.3 80.9 53.3 Z M 77.3 53.7 C 77.3 52 77.5 50.5 79.6 50.5 C 81.7 50.5 81.9 52 81.9 53.7 C 81.9 56.4 80.9 56.8 79.6 56.8 C 78.4 56.8 77.3 56.4 77.3 53.7 Z M 83.7 50.6 C 83.7 50.6 83.69 49.45 83.7 49.5 C 83.7 48.2 84.6 48 85.4 48 C 85.6 48 85.8 48 85.9 48 C 85.9 48 85.9 48.7 85.9 48.7 C 84.9 48.7 84.7 49.1 84.7 49.6 C 84.67 49.6 84.7 50.6 84.7 50.6 L 85.9 50.6 L 85.9 51.4 L 84.7 51.4 L 84.7 56.7 L 83.7 56.7 L 83.7 51.4 L 82.8 51.4 L 82.8 50.6 L 83.7 50.6 Z M 92.1 56.7 L 91 56.7 L 91 49.6 L 89.8 50.4 C 89.8 50.4 89.76 49.36 89.8 49.4 C 90 49.2 90.8 48.6 91.2 48.4 C 91.16 48.36 92.1 48.4 92.1 48.4 L 92.1 56.7 Z M 97.1 53.7 L 97.1 49.4 L 97 49.4 L 95.2 53.7 L 97.1 53.7 Z M 94.3 54.7 L 94.3 53.7 L 96.6 48.4 L 98.1 48.4 L 98.1 53.7 L 99.1 53.7 L 99.1 54.7 L 98.1 54.7 L 98.1 56.7 L 97.1 56.7 L 97.1 54.7 L 94.3 54.7 Z M 101.2 56.7 L 100.1 56.7 L 100.1 55.4 L 101.2 55.4 L 101.2 56.7 Z M 106.9 52.6 C 106.9 54.7 106.9 56.9 104.6 56.9 C 102.4 56.9 102.4 54.7 102.4 52.6 C 102.4 50.3 102.3 48.2 104.6 48.2 C 106.9 48.2 106.9 50.3 106.9 52.6 Z M 103.5 52.8 C 103.5 54.2 103.4 55.9 104.6 55.9 C 105.9 55.9 105.8 54.2 105.8 52.8 C 105.8 50.5 105.8 49.2 104.6 49.2 C 103.5 49.2 103.5 50.5 103.5 52.8 Z M 113.8 56.7 C 113.8 56.7 113.79 52.49 113.8 52.5 C 113.8 51.9 113.6 51.3 112.8 51.3 C 112.5 51.3 112.1 51.5 112 51.7 C 111.8 52 111.8 52.4 111.8 52.6 C 111.75 52.61 111.8 56.7 111.8 56.7 L 110.8 56.7 C 110.8 56.7 110.77 51.89 110.8 51.9 C 110.8 51.5 110.7 51 110.7 50.6 C 110.71 50.63 111.8 50.6 111.8 50.6 L 111.8 51.4 C 111.8 51.4 111.78 51.38 111.8 51.4 C 112.1 50.7 112.6 50.5 113.3 50.5 C 113.8 50.5 114.5 50.7 114.7 51.3 C 115 50.6 115.6 50.5 116.1 50.5 C 116.8 50.5 117.8 50.7 117.8 52.1 C 117.8 52.08 117.8 56.7 117.8 56.7 L 116.8 56.7 C 116.8 56.7 116.82 52.49 116.8 52.5 C 116.8 51.9 116.7 51.3 115.9 51.3 C 115.5 51.3 115.4 51.3 115.1 51.5 C 114.8 51.8 114.8 52.4 114.8 52.6 C 114.78 52.61 114.8 56.7 114.8 56.7 L 113.8 56.7 Z M 122.9 53.3 C 122.9 51.7 122.4 51.3 121.6 51.3 C 120.9 51.3 120.3 51.7 120.3 53.3 C 120.3 55.3 120.6 56 121.6 56 C 122.6 56 122.9 55.3 122.9 53.3 Z M 119.3 53.7 C 119.3 52 119.5 50.5 121.6 50.5 C 123.7 50.5 123.9 52 123.9 53.7 C 123.9 56.4 122.9 56.8 121.6 56.8 C 120.3 56.8 119.3 56.4 119.3 53.7 Z M 128.8 56.7 C 128.8 56.7 128.77 52.49 128.8 52.5 C 128.8 51.8 128.5 51.3 127.7 51.3 C 126.6 51.3 126.5 52.3 126.5 53.1 C 126.46 53.1 126.5 56.7 126.5 56.7 L 125.5 56.7 C 125.5 56.7 125.48 51.89 125.5 51.9 C 125.5 51.5 125.5 51 125.4 50.6 C 125.42 50.63 126.5 50.6 126.5 50.6 L 126.5 51.4 C 126.5 51.4 126.51 51.41 126.5 51.4 C 126.9 50.7 127.4 50.5 128.1 50.5 C 129.4 50.5 129.8 51.3 129.8 52.5 C 129.75 52.49 129.8 56.7 129.8 56.7 L 128.8 56.7 Z M 131.6 50.6 L 131.6 49.5 L 132.6 49 L 132.6 50.6 L 133.9 50.6 L 133.9 51.4 L 132.6 51.4 C 132.6 51.4 132.57 55.08 132.6 55.1 C 132.6 55.5 132.6 56 133.5 56 C 133.5 56 133.7 55.9 133.9 55.9 C 133.9 55.9 133.9 56.7 133.9 56.7 C 133.6 56.7 133.3 56.8 132.9 56.8 C 132 56.8 131.6 56.4 131.6 55.7 C 131.59 55.68 131.6 51.4 131.6 51.4 L 130.6 51.4 L 130.6 50.6 L 131.6 50.6 Z M 138.1 56.7 C 138.1 56.7 138.11 52.58 138.1 52.6 C 138.1 51.8 137.9 51.3 137 51.3 C 136 51.3 135.8 52.1 135.8 53.1 C 135.79 53.12 135.8 56.7 135.8 56.7 L 134.8 56.7 L 134.8 48 L 135.8 48 L 135.8 51.4 C 135.8 51.4 135.84 51.41 135.8 51.4 C 136.2 50.7 136.7 50.5 137.5 50.5 C 138.5 50.5 139.1 51 139.1 52.4 C 139.09 52.39 139.1 56.7 139.1 56.7 L 138.1 56.7 Z M 142.6 56.8 C 141.3 56.8 140.5 56.2 140.5 54.8 C 140.5 54.8 141.6 54.8 141.6 54.8 C 141.6 55.2 141.6 56 142.6 56 C 143.2 56 143.7 55.7 143.7 55.1 C 143.7 54 140.7 54 140.7 52.2 C 140.7 51.5 141 50.5 142.7 50.5 C 143.8 50.5 144.8 51 144.7 52.2 C 144.7 52.2 143.6 52.2 143.6 52.2 C 143.6 51.6 143.3 51.3 142.6 51.3 C 142.1 51.3 141.7 51.5 141.7 52.1 C 141.7 53.1 144.7 53.1 144.7 55 C 144.7 56.3 143.8 56.8 142.6 56.8 Z M 149.7 58.1 C 149.2 56.4 148.5 54.7 148.5 52.9 C 148.5 51.1 149.2 49.4 149.7 47.6 C 149.7 47.6 150.5 47.6 150.5 47.6 C 150 49.4 149.7 51.2 149.7 53 C 149.7 54.7 150 56.4 150.4 58.1 C 150.4 58.1 149.7 58.1 149.7 58.1 Z M 153.2 51.5 C 153.2 51.5 153.19 51.54 153.2 51.5 C 153.6 50.6 154.1 50.5 155.1 50.5 C 155.1 50.5 155.1 51.5 155.1 51.5 C 155 51.5 154.9 51.5 154.8 51.5 C 154.7 51.5 154.6 51.5 154.5 51.5 C 153.4 51.5 153.2 52.3 153.2 53.1 C 153.16 53.11 153.2 56.7 153.2 56.7 L 152.2 56.7 L 152.2 50.6 L 153.2 50.6 L 153.2 51.5 Z M 157 54.9 C 157 55.5 157.3 56 158 56 C 158.6 56 159.3 55.6 159.2 53.7 C 158.3 53.7 157 53.6 157 54.9 Z M 159.3 55.8 C 159.3 55.8 159.24 55.81 159.2 55.8 C 158.9 56.5 158.5 56.8 157.7 56.8 C 156.4 56.8 156.1 56 156.1 54.8 C 156.1 53 157.9 52.9 159.2 52.9 C 159.3 52.1 159.3 51.3 158.2 51.3 C 157.6 51.3 157.2 51.7 157.3 52.3 C 157.3 52.3 156.2 52.3 156.2 52.3 C 156.2 51 157 50.5 158.3 50.5 C 159.8 50.5 160.2 51.3 160.2 52.3 C 160.2 52.3 160.2 55.2 160.2 55.2 C 160.2 55.7 160.3 56.2 160.3 56.7 C 160.34 56.69 159.3 56.7 159.3 56.7 L 159.3 55.8 Z M 165.4 56.7 C 165.4 56.7 165.43 52.49 165.4 52.5 C 165.4 51.8 165.2 51.3 164.4 51.3 C 163.3 51.3 163.1 52.3 163.1 53.1 C 163.12 53.1 163.1 56.7 163.1 56.7 L 162.1 56.7 C 162.1 56.7 162.14 51.89 162.1 51.9 C 162.1 51.5 162.1 51 162.1 50.6 C 162.08 50.63 163.1 50.6 163.1 50.6 L 163.1 51.4 C 163.1 51.4 163.17 51.41 163.2 51.4 C 163.6 50.7 164 50.5 164.8 50.5 C 166.1 50.5 166.4 51.3 166.4 52.5 C 166.41 52.49 166.4 56.7 166.4 56.7 L 165.4 56.7 Z M 170.2 51.3 C 169.1 51.3 169 52.7 169 53.5 C 169 55.4 169.5 55.9 170.2 55.9 C 171.4 55.9 171.4 54.5 171.4 53.6 C 171.4 52.7 171.4 51.3 170.2 51.3 Z M 171.3 50.6 L 172.3 50.6 C 172.3 50.6 172.33 57.3 172.3 57.3 C 172.3 58.7 171.4 59 170.1 59 C 169.1 59 168.2 58.5 168.3 57.4 C 168.3 57.4 169.4 57.4 169.4 57.4 C 169.4 57.9 169.7 58.2 170.3 58.2 C 171 58.2 171.3 57.8 171.3 57.2 C 171.35 57.19 171.3 55.9 171.3 55.9 C 171.3 55.9 171.31 55.93 171.3 55.9 C 171.1 56.4 170.5 56.7 170 56.7 C 168.3 56.7 168 55.3 168 53.5 C 168 50.7 169.4 50.5 169.9 50.5 C 170.5 50.5 171 50.8 171.3 51.4 C 171.32 51.37 171.3 51.4 171.3 51.4 L 171.3 50.6 Z M 177.5 53.2 C 177.5 51.5 177 51.3 176.3 51.3 C 175.6 51.3 175.1 51.6 175.1 53.2 C 175.1 53.2 177.5 53.2 177.5 53.2 Z M 175.1 54 C 175.1 55.7 175.6 56 176.3 56 C 177 56 177.3 55.5 177.4 54.9 C 177.4 54.9 178.5 54.9 178.5 54.9 C 178.4 56.2 177.6 56.8 176.3 56.8 C 175.1 56.8 174 56.4 174 53.7 C 174 52 174.2 50.5 176.3 50.5 C 178.1 50.5 178.5 51.5 178.5 53.5 C 178.51 53.46 178.5 54 178.5 54 C 178.5 54 175.1 53.98 175.1 54 Z M 185.4 56.7 L 184.3 56.7 L 184.3 49.6 L 183.1 50.4 C 183.1 50.4 183.06 49.36 183.1 49.4 C 183.3 49.2 184.1 48.6 184.5 48.4 C 184.46 48.36 185.4 48.4 185.4 48.4 L 185.4 56.7 Z M 190.7 56.7 L 189.6 56.7 L 189.6 49.6 L 188.4 50.4 C 188.4 50.4 188.39 49.36 188.4 49.4 C 188.7 49.2 189.5 48.6 189.8 48.4 C 189.79 48.36 190.7 48.4 190.7 48.4 L 190.7 56.7 Z M 194.5 56.7 L 193.4 56.7 L 193.4 55.4 L 194.5 55.4 L 194.5 56.7 Z M 197.3 51.8 C 198.3 51.9 199 51.5 199 50.5 C 199 49.7 198.7 49.2 197.8 49.2 C 196.9 49.2 196.8 49.8 196.8 50.5 C 196.8 50.5 195.7 50.5 195.7 50.5 C 195.6 49.1 196.3 48.2 197.8 48.2 C 199.3 48.2 200.1 48.9 200.1 50.4 C 200.1 52 198.9 52.2 198.5 52.3 C 198.5 52.3 198.5 52.3 198.5 52.3 C 199.8 52.5 200.2 53.2 200.2 54.5 C 200.2 56.1 199.3 56.9 197.7 56.9 C 195.4 56.9 195.6 54.9 195.6 54.4 C 195.6 54.4 196.7 54.4 196.7 54.4 C 196.7 55.2 196.8 55.9 197.8 55.9 C 198.8 55.9 199.1 55.3 199.1 54.4 C 199.1 53.1 198.6 52.8 197.3 52.8 C 197.3 52.8 197.3 51.8 197.3 51.8 Z M 201.3 53 L 203.9 53 L 203.9 53.9 L 201.3 53.9 L 201.3 53 Z M 208.1 56.7 L 206.9 56.7 L 206.9 49.6 L 205.7 50.4 C 205.7 50.4 205.7 49.36 205.7 49.4 C 206 49.2 206.8 48.6 207.1 48.4 C 207.1 48.36 208.1 48.4 208.1 48.4 L 208.1 56.7 Z M 210.3 48.4 L 214.6 48.4 L 214.6 49.3 L 212.4 56.7 L 211.1 56.7 L 213.4 49.3 L 210.3 49.3 L 210.3 48.4 Z M 217.1 56.7 L 216 56.7 L 216 55.4 L 217.1 55.4 L 217.1 56.7 Z M 221.7 54.5 C 221.7 53.7 221.6 52.8 220.6 52.8 C 219.5 52.8 219.5 53.7 219.5 54.5 C 219.5 55.2 219.7 55.9 220.6 55.9 C 221.4 55.9 221.7 55.2 221.7 54.5 Z M 221.3 52.3 C 222.5 52.4 222.8 53.4 222.8 54.4 C 222.8 55.9 222 56.9 220.6 56.9 C 219.1 56.9 218.3 55.9 218.3 54.4 C 218.3 53.4 218.7 52.4 219.9 52.3 C 219.9 52.3 219.9 52.3 219.9 52.3 C 218.9 52.1 218.4 51.3 218.4 50.3 C 218.4 49 219.3 48.2 220.6 48.2 C 221.9 48.2 222.7 49 222.7 50.3 C 222.7 51.3 222.2 52.1 221.3 52.3 C 221.3 52.3 221.3 52.3 221.3 52.3 Z M 221.6 50.3 C 221.6 49.7 221.3 49 220.6 49 C 219.9 49 219.5 49.7 219.5 50.3 C 219.5 50.9 219.7 51.8 220.6 51.8 C 221.4 51.8 221.6 50.9 221.6 50.3 Z M 229.7 56.7 C 229.7 56.7 229.74 52.49 229.7 52.5 C 229.7 51.9 229.6 51.3 228.8 51.3 C 228.5 51.3 228.1 51.5 227.9 51.7 C 227.7 52 227.7 52.4 227.7 52.6 C 227.69 52.61 227.7 56.7 227.7 56.7 L 226.7 56.7 C 226.7 56.7 226.71 51.89 226.7 51.9 C 226.7 51.5 226.7 51 226.7 50.6 C 226.65 50.63 227.7 50.6 227.7 50.6 L 227.7 51.4 C 227.7 51.4 227.72 51.38 227.7 51.4 C 228 50.7 228.5 50.5 229.2 50.5 C 229.8 50.5 230.4 50.7 230.6 51.3 C 231 50.6 231.5 50.5 232.1 50.5 C 232.7 50.5 233.7 50.7 233.7 52.1 C 233.74 52.08 233.7 56.7 233.7 56.7 L 232.8 56.7 C 232.8 56.7 232.76 52.49 232.8 52.5 C 232.8 51.9 232.6 51.3 231.8 51.3 C 231.4 51.3 231.3 51.3 231.1 51.5 C 230.8 51.8 230.7 52.4 230.7 52.6 C 230.72 52.61 230.7 56.7 230.7 56.7 L 229.7 56.7 Z M 238.8 53.3 C 238.8 51.7 238.3 51.3 237.6 51.3 C 236.8 51.3 236.3 51.7 236.3 53.3 C 236.3 55.3 236.5 56 237.6 56 C 238.6 56 238.8 55.3 238.8 53.3 Z M 235.3 53.7 C 235.3 52 235.5 50.5 237.6 50.5 C 239.7 50.5 239.9 52 239.9 53.7 C 239.9 56.4 238.8 56.8 237.6 56.8 C 236.3 56.8 235.3 56.4 235.3 53.7 Z M 244.7 56.7 C 244.7 56.7 244.71 52.49 244.7 52.5 C 244.7 51.8 244.5 51.3 243.6 51.3 C 242.6 51.3 242.4 52.3 242.4 53.1 C 242.41 53.1 242.4 56.7 242.4 56.7 L 241.4 56.7 C 241.4 56.7 241.42 51.89 241.4 51.9 C 241.4 51.5 241.4 51 241.4 50.6 C 241.36 50.63 242.4 50.6 242.4 50.6 L 242.4 51.4 C 242.4 51.4 242.45 51.41 242.5 51.4 C 242.8 50.7 243.3 50.5 244.1 50.5 C 245.4 50.5 245.7 51.3 245.7 52.5 C 245.69 52.49 245.7 56.7 245.7 56.7 L 244.7 56.7 Z M 247.5 50.6 L 247.5 49.5 L 248.5 49 L 248.5 50.6 L 249.8 50.6 L 249.8 51.4 L 248.5 51.4 C 248.5 51.4 248.51 55.08 248.5 55.1 C 248.5 55.5 248.5 56 249.4 56 C 249.5 56 249.6 55.9 249.9 55.9 C 249.9 55.9 249.9 56.7 249.9 56.7 C 249.5 56.7 249.2 56.8 248.9 56.8 C 248 56.8 247.5 56.4 247.5 55.7 C 247.53 55.68 247.5 51.4 247.5 51.4 L 246.5 51.4 L 246.5 50.6 L 247.5 50.6 Z M 254 56.7 C 254 56.7 254.05 52.58 254 52.6 C 254 51.8 253.8 51.3 253 51.3 C 252 51.3 251.7 52.1 251.7 53.1 C 251.73 53.12 251.7 56.7 251.7 56.7 L 250.7 56.7 L 250.7 48 L 251.7 48 L 251.7 51.4 C 251.7 51.4 251.78 51.41 251.8 51.4 C 252.2 50.7 252.6 50.5 253.4 50.5 C 254.5 50.5 255 51 255 52.4 C 255.03 52.39 255 56.7 255 56.7 L 254 56.7 Z M 258.5 56.8 C 257.2 56.8 256.4 56.2 256.5 54.8 C 256.5 54.8 257.6 54.8 257.6 54.8 C 257.6 55.2 257.6 56 258.6 56 C 259.2 56 259.6 55.7 259.6 55.1 C 259.6 54 256.6 54 256.6 52.2 C 256.6 51.5 257 50.5 258.7 50.5 C 259.8 50.5 260.7 51 260.6 52.2 C 260.6 52.2 259.5 52.2 259.5 52.2 C 259.5 51.6 259.2 51.3 258.6 51.3 C 258 51.3 257.6 51.5 257.6 52.1 C 257.6 53.1 260.7 53.1 260.7 55 C 260.7 56.3 259.7 56.8 258.5 56.8 Z M 262.1 58.1 C 262.5 56.4 262.8 54.7 262.8 53 C 262.8 51.2 262.5 49.4 262 47.6 C 262 47.6 262.8 47.6 262.8 47.6 C 263.3 49.4 264 51.1 264 52.9 C 264 54.7 263.3 56.4 262.8 58.1 C 262.8 58.1 262.1 58.1 262.1 58.1 Z M 265.8 49.2 L 264.8 49.2 L 264.8 48.7 L 265.8 48.7 L 265.8 47.6 L 266.4 47.6 L 266.4 48.7 L 267.4 48.7 L 267.4 49.2 L 266.4 49.2 L 266.4 52.7 L 265.8 52.7 L 265.8 49.2 Z " stroke="none" fill="#555555"/>  </g>  <g id="Polygon200225">    <path d="M 2.2 35.9 C 2.2 35.9 3.43 35.91 3.4 35.9 C 3.9 35.9 5 35.8 5 34.4 C 5 33.1 4 33 3.7 33 C 3.74 32.98 2.2 33 2.2 33 L 2.2 35.9 Z M 1.1 40.7 L 1.1 32 C 1.1 32 3.68 32.02 3.7 32 C 4.8 32 6.1 32.5 6.1 34.5 C 6.1 36.5 4.6 36.9 3.7 36.9 C 3.67 36.87 2.2 36.9 2.2 36.9 L 2.2 40.7 L 1.1 40.7 Z M 10.8 40.7 C 10.8 40.7 10.82 36.58 10.8 36.6 C 10.8 35.8 10.6 35.3 9.7 35.3 C 8.8 35.3 8.5 36.1 8.5 37.1 C 8.51 37.12 8.5 40.7 8.5 40.7 L 7.5 40.7 L 7.5 32 L 8.5 32 L 8.5 35.4 C 8.5 35.4 8.56 35.41 8.6 35.4 C 9 34.7 9.4 34.5 10.2 34.5 C 11.2 34.5 11.8 35 11.8 36.4 C 11.81 36.39 11.8 40.7 11.8 40.7 L 10.8 40.7 Z M 14.4 38.9 C 14.4 39.5 14.7 40 15.4 40 C 16 40 16.7 39.6 16.6 37.7 C 15.7 37.7 14.4 37.6 14.4 38.9 Z M 16.7 39.8 C 16.7 39.8 16.63 39.81 16.6 39.8 C 16.3 40.5 15.9 40.8 15.1 40.8 C 13.8 40.8 13.5 40 13.5 38.8 C 13.5 37 15.3 36.9 16.6 36.9 C 16.7 36.1 16.7 35.3 15.6 35.3 C 15 35.3 14.6 35.7 14.7 36.3 C 14.7 36.3 13.6 36.3 13.6 36.3 C 13.6 35 14.4 34.5 15.6 34.5 C 17.2 34.5 17.6 35.3 17.6 36.3 C 17.6 36.3 17.6 39.2 17.6 39.2 C 17.6 39.7 17.7 40.2 17.7 40.7 C 17.74 40.69 16.7 40.7 16.7 40.7 L 16.7 39.8 Z M 21.3 40.8 C 20 40.8 19.2 40.2 19.2 38.8 C 19.2 38.8 20.4 38.8 20.4 38.8 C 20.4 39.2 20.4 40 21.4 40 C 21.9 40 22.4 39.7 22.4 39.1 C 22.4 38 19.4 38 19.4 36.2 C 19.4 35.5 19.8 34.5 21.5 34.5 C 22.5 34.5 23.5 35 23.4 36.2 C 23.4 36.2 22.3 36.2 22.3 36.2 C 22.3 35.6 22 35.3 21.3 35.3 C 20.8 35.3 20.4 35.5 20.4 36.1 C 20.4 37.1 23.4 37.1 23.4 39 C 23.4 40.3 22.5 40.8 21.3 40.8 Z M 28.2 37.2 C 28.2 35.5 27.7 35.3 27 35.3 C 26.4 35.3 25.8 35.6 25.8 37.2 C 25.8 37.2 28.2 37.2 28.2 37.2 Z M 25.8 38 C 25.8 39.7 26.3 40 27 40 C 27.7 40 28.1 39.5 28.1 38.9 C 28.1 38.9 29.2 38.9 29.2 38.9 C 29.2 40.2 28.3 40.8 27.1 40.8 C 25.8 40.8 24.8 40.4 24.8 37.7 C 24.8 36 25 34.5 27.1 34.5 C 28.8 34.5 29.2 35.5 29.2 37.5 C 29.23 37.46 29.2 38 29.2 38 C 29.2 38 25.82 37.98 25.8 38 Z M 34.7 35.8 C 35.7 35.9 36.4 35.5 36.4 34.5 C 36.4 33.7 36.1 33.2 35.2 33.2 C 34.3 33.2 34.2 33.8 34.2 34.5 C 34.2 34.5 33.1 34.5 33.1 34.5 C 33 33.1 33.7 32.2 35.2 32.2 C 36.7 32.2 37.5 32.9 37.5 34.4 C 37.5 36 36.3 36.2 35.9 36.3 C 35.9 36.3 35.9 36.3 35.9 36.3 C 37.2 36.5 37.6 37.2 37.6 38.5 C 37.6 40.1 36.7 40.9 35.1 40.9 C 32.8 40.9 33 38.9 33 38.4 C 33 38.4 34.1 38.4 34.1 38.4 C 34.1 39.2 34.2 39.9 35.2 39.9 C 36.2 39.9 36.5 39.3 36.5 38.4 C 36.5 37.1 36 36.8 34.7 36.8 C 34.7 36.8 34.7 35.8 34.7 35.8 Z M 41.6 37.5 C 41.6 37.5 41.6 34.7 41.6 34.7 C 41.6 32.9 42.5 31.8 44.3 31.8 C 46.2 31.8 47 32.9 47 34.7 C 47 34.7 47 37.5 47 37.5 C 47 39.9 46.2 40.9 44.3 40.9 C 42.5 40.9 41.6 39.9 41.6 37.5 Z M 45.9 37.6 C 45.9 37.6 45.9 34.6 45.9 34.6 C 45.9 32.8 44.7 32.8 44.3 32.8 C 44 32.8 42.7 32.8 42.7 34.6 C 42.7 34.6 42.7 37.6 42.7 37.6 C 42.7 39.5 43.3 39.9 44.3 39.9 C 45.4 39.9 45.9 39.5 45.9 37.6 Z M 49 40.7 L 49 32 L 50.1 32 L 50.1 39.7 L 53.2 39.7 L 53.2 40.7 L 49 40.7 Z M 54.3 40.7 L 54.3 32 L 58.8 32 L 58.8 33 L 55.4 33 L 55.4 35.8 L 58.5 35.8 L 58.5 36.7 L 55.4 36.7 L 55.4 39.7 L 58.8 39.7 L 58.8 40.7 L 54.3 40.7 Z M 63.8 42.1 C 63.2 40.4 62.6 38.7 62.6 36.9 C 62.6 35.1 63.2 33.4 63.8 31.6 C 63.8 31.6 64.5 31.6 64.5 31.6 C 64.1 33.4 63.7 35.2 63.7 37 C 63.7 38.7 64.1 40.4 64.5 42.1 C 64.5 42.1 63.8 42.1 63.8 42.1 Z M 69.5 40.7 C 69.5 40.7 69.47 36.49 69.5 36.5 C 69.5 35.8 69.2 35.3 68.4 35.3 C 67.3 35.3 67.2 36.3 67.2 37.1 C 67.16 37.1 67.2 40.7 67.2 40.7 L 66.2 40.7 C 66.2 40.7 66.18 35.89 66.2 35.9 C 66.2 35.5 66.2 35 66.1 34.6 C 66.12 34.63 67.2 34.6 67.2 34.6 L 67.2 35.4 C 67.2 35.4 67.21 35.41 67.2 35.4 C 67.6 34.7 68.1 34.5 68.8 34.5 C 70.1 34.5 70.5 35.3 70.5 36.5 C 70.45 36.49 70.5 40.7 70.5 40.7 L 69.5 40.7 Z M 76.8 36.8 L 71.8 36.8 L 71.8 36.1 L 76.8 36.1 L 76.8 36.8 Z M 76.8 39.2 L 71.8 39.2 L 71.8 38.4 L 76.8 38.4 L 76.8 39.2 Z M 77.8 40.7 C 77.8 40.7 77.83 39.73 77.8 39.7 C 80.3 36.3 81 35.7 81 34.3 C 81 33.6 80.7 33.2 80 33.2 C 79.1 33.2 79 33.8 79 34.5 C 79 34.5 77.9 34.5 77.9 34.5 C 77.8 33.1 78.5 32.2 79.9 32.2 C 81.4 32.2 82.1 32.9 82.1 34.4 C 82.1 36.3 81.2 36.9 79 39.7 C 79.01 39.73 82.3 39.7 82.3 39.7 L 82.3 40.7 L 77.8 40.7 Z M 86.1 40.7 L 85 40.7 L 85 33.6 L 83.8 34.4 C 83.8 34.4 83.76 33.36 83.8 33.4 C 84 33.2 84.8 32.6 85.2 32.4 C 85.16 32.36 86.1 32.4 86.1 32.4 L 86.1 40.7 Z M 88.5 41.8 L 87.7 41.8 L 90.5 32 L 91.3 32 L 88.5 41.8 Z M 91.8 40.7 C 91.8 40.7 91.82 39.73 91.8 39.7 C 94.3 36.3 95 35.7 95 34.3 C 95 33.6 94.7 33.2 93.9 33.2 C 93.1 33.2 93 33.8 93 34.5 C 93 34.5 91.8 34.5 91.8 34.5 C 91.8 33.1 92.4 32.2 93.9 32.2 C 95.4 32.2 96.1 32.9 96.1 34.4 C 96.1 36.3 95.1 36.9 93 39.7 C 93 39.73 96.3 39.7 96.3 39.7 L 96.3 40.7 L 91.8 40.7 Z M 97.2 40.7 C 97.2 40.7 97.15 39.73 97.2 39.7 C 99.6 36.3 100.3 35.7 100.3 34.3 C 100.3 33.6 100 33.2 99.3 33.2 C 98.4 33.2 98.3 33.8 98.3 34.5 C 98.3 34.5 97.2 34.5 97.2 34.5 C 97.1 33.1 97.8 32.2 99.2 32.2 C 100.7 32.2 101.4 32.9 101.4 34.4 C 101.4 36.3 100.5 36.9 98.3 39.7 C 98.33 39.73 101.6 39.7 101.6 39.7 L 101.6 40.7 L 97.2 40.7 Z M 102.8 42.1 C 103.2 40.4 103.6 38.7 103.6 37 C 103.6 35.2 103.2 33.4 102.8 31.6 C 102.8 31.6 103.5 31.6 103.5 31.6 C 104 33.4 104.7 35.1 104.7 36.9 C 104.7 38.7 104 40.4 103.5 42.1 C 103.5 42.1 102.8 42.1 102.8 42.1 Z M 109.8 35.5 C 109.8 35.5 109.87 35.54 109.9 35.5 C 110.3 34.6 110.8 34.5 111.7 34.5 C 111.7 34.5 111.7 35.5 111.7 35.5 C 111.7 35.5 111.6 35.5 111.5 35.5 C 111.4 35.5 111.3 35.5 111.2 35.5 C 110.1 35.5 109.8 36.3 109.8 37.1 C 109.85 37.11 109.8 40.7 109.8 40.7 L 108.9 40.7 L 108.9 34.6 L 109.8 34.6 L 109.8 35.5 Z M 116.1 37.2 C 116.1 35.5 115.7 35.3 114.9 35.3 C 114.3 35.3 113.8 35.6 113.8 37.2 C 113.8 37.2 116.1 37.2 116.1 37.2 Z M 113.8 38 C 113.8 39.7 114.2 40 115 40 C 115.7 40 116 39.5 116.1 38.9 C 116.1 38.9 117.1 38.9 117.1 38.9 C 117.1 40.2 116.3 40.8 115 40.8 C 113.7 40.8 112.7 40.4 112.7 37.7 C 112.7 36 112.9 34.5 115 34.5 C 116.8 34.5 117.2 35.5 117.2 37.5 C 117.19 37.46 117.2 38 117.2 38 C 117.2 38 113.78 37.98 113.8 38 Z M 121.8 40.7 C 121.8 40.7 121.8 36.49 121.8 36.5 C 121.8 35.9 121.6 35.3 120.8 35.3 C 120.5 35.3 120.1 35.5 120 35.7 C 119.8 36 119.8 36.4 119.8 36.6 C 119.76 36.61 119.8 40.7 119.8 40.7 L 118.8 40.7 C 118.8 40.7 118.77 35.89 118.8 35.9 C 118.8 35.5 118.8 35 118.7 34.6 C 118.71 34.63 119.8 34.6 119.8 34.6 L 119.8 35.4 C 119.8 35.4 119.78 35.38 119.8 35.4 C 120.1 34.7 120.6 34.5 121.3 34.5 C 121.8 34.5 122.5 34.7 122.7 35.3 C 123 34.6 123.6 34.5 124.2 34.5 C 124.8 34.5 125.8 34.7 125.8 36.1 C 125.81 36.08 125.8 40.7 125.8 40.7 L 124.8 40.7 C 124.8 40.7 124.82 36.49 124.8 36.5 C 124.8 35.9 124.7 35.3 123.9 35.3 C 123.5 35.3 123.4 35.3 123.1 35.5 C 122.8 35.8 122.8 36.4 122.8 36.6 C 122.78 36.61 122.8 40.7 122.8 40.7 L 121.8 40.7 Z M 128.4 38.9 C 128.4 39.5 128.7 40 129.3 40 C 129.9 40 130.7 39.6 130.6 37.7 C 129.6 37.7 128.4 37.6 128.4 38.9 Z M 130.6 39.8 C 130.6 39.8 130.58 39.81 130.6 39.8 C 130.3 40.5 129.8 40.8 129.1 40.8 C 127.8 40.8 127.4 40 127.4 38.8 C 127.4 37 129.2 36.9 130.6 36.9 C 130.6 36.1 130.6 35.3 129.6 35.3 C 128.9 35.3 128.6 35.7 128.6 36.3 C 128.6 36.3 127.5 36.3 127.5 36.3 C 127.6 35 128.3 34.5 129.6 34.5 C 131.2 34.5 131.6 35.3 131.6 36.3 C 131.6 36.3 131.6 39.2 131.6 39.2 C 131.6 39.7 131.6 40.2 131.7 40.7 C 131.68 40.69 130.6 40.7 130.6 40.7 L 130.6 39.8 Z M 134.4 40.7 L 133.5 40.7 L 133.5 34.6 L 134.4 34.6 L 134.4 40.7 Z M 133.4 32 L 134.5 32 L 134.5 33.1 L 133.4 33.1 L 133.4 32 Z M 139.4 40.7 C 139.4 40.7 139.44 36.49 139.4 36.5 C 139.4 35.8 139.2 35.3 138.4 35.3 C 137.3 35.3 137.1 36.3 137.1 37.1 C 137.13 37.1 137.1 40.7 137.1 40.7 L 136.2 40.7 C 136.2 40.7 136.15 35.89 136.2 35.9 C 136.2 35.5 136.1 35 136.1 34.6 C 136.09 34.63 137.1 34.6 137.1 34.6 L 137.1 35.4 C 137.1 35.4 137.18 35.41 137.2 35.4 C 137.6 34.7 138 34.5 138.8 34.5 C 140.1 34.5 140.4 35.3 140.4 36.5 C 140.42 36.49 140.4 40.7 140.4 40.7 L 139.4 40.7 Z M 145.5 37.2 C 145.5 35.5 145 35.3 144.3 35.3 C 143.6 35.3 143.1 35.6 143.1 37.2 C 143.1 37.2 145.5 37.2 145.5 37.2 Z M 143.1 38 C 143.1 39.7 143.6 40 144.3 40 C 145 40 145.4 39.5 145.4 38.9 C 145.4 38.9 146.5 38.9 146.5 38.9 C 146.5 40.2 145.6 40.8 144.4 40.8 C 143.1 40.8 142.1 40.4 142.1 37.7 C 142.1 36 142.3 34.5 144.4 34.5 C 146.1 34.5 146.5 35.5 146.5 37.5 C 146.52 37.46 146.5 38 146.5 38 C 146.5 38 143.11 37.98 143.1 38 Z M 150.2 35.3 C 149.2 35.3 149 36.2 149 37.8 C 149 38.7 149 40 150.2 40 C 151.4 40 151.4 38.6 151.4 37.4 C 151.4 36.6 151.3 35.3 150.2 35.3 Z M 151.4 32 L 152.3 32 L 152.3 40.7 L 151.4 40.7 L 151.4 40 C 151.4 40 151.33 39.97 151.3 40 C 151 40.5 150.6 40.8 149.9 40.8 C 149 40.8 148 40.4 148 37.8 C 148 36.2 148 34.5 150 34.5 C 150.6 34.5 151 34.8 151.3 35.2 C 151.32 35.24 151.4 35.2 151.4 35.2 L 151.4 32 Z M 157.7 38.9 C 157.7 39.5 158 40 158.7 40 C 159.3 40 160 39.6 159.9 37.7 C 159 37.7 157.7 37.6 157.7 38.9 Z M 159.9 39.8 C 159.9 39.8 159.91 39.81 159.9 39.8 C 159.6 40.5 159.1 40.8 158.4 40.8 C 157.1 40.8 156.7 40 156.7 38.8 C 156.7 37 158.5 36.9 159.9 36.9 C 159.9 36.1 159.9 35.3 158.9 35.3 C 158.2 35.3 157.9 35.7 157.9 36.3 C 157.9 36.3 156.9 36.3 156.9 36.3 C 156.9 35 157.6 34.5 158.9 34.5 C 160.5 34.5 160.9 35.3 160.9 36.3 C 160.9 36.3 160.9 39.2 160.9 39.2 C 160.9 39.7 160.9 40.2 161 40.7 C 161.01 40.69 159.9 40.7 159.9 40.7 L 159.9 39.8 Z M 162.9 34.6 L 162.9 33.5 L 163.9 33 L 163.9 34.6 L 165.2 34.6 L 165.2 35.4 L 163.9 35.4 C 163.9 35.4 163.9 39.08 163.9 39.1 C 163.9 39.5 163.9 40 164.8 40 C 164.9 40 165 39.9 165.2 39.9 C 165.2 39.9 165.2 40.7 165.2 40.7 C 164.9 40.7 164.6 40.8 164.3 40.8 C 163.3 40.8 162.9 40.4 162.9 39.7 C 162.92 39.68 162.9 35.4 162.9 35.4 L 161.9 35.4 L 161.9 34.6 L 162.9 34.6 Z M 166.3 34.6 L 166.3 33.5 L 167.2 33 L 167.2 34.6 L 168.6 34.6 L 168.6 35.4 L 167.2 35.4 C 167.2 35.4 167.24 39.08 167.2 39.1 C 167.2 39.5 167.2 40 168.1 40 C 168.2 40 168.4 39.9 168.6 39.9 C 168.6 39.9 168.6 40.7 168.6 40.7 C 168.3 40.7 167.9 40.8 167.6 40.8 C 166.7 40.8 166.3 40.4 166.3 39.7 C 166.26 39.68 166.3 35.4 166.3 35.4 L 165.3 35.4 L 165.3 34.6 L 166.3 34.6 Z M 170.4 38.9 C 170.4 39.5 170.7 40 171.3 40 C 171.9 40 172.7 39.6 172.6 37.7 C 171.6 37.7 170.4 37.6 170.4 38.9 Z M 172.6 39.8 C 172.6 39.8 172.58 39.81 172.6 39.8 C 172.3 40.5 171.8 40.8 171.1 40.8 C 169.8 40.8 169.4 40 169.4 38.8 C 169.4 37 171.2 36.9 172.6 36.9 C 172.6 36.1 172.6 35.3 171.6 35.3 C 170.9 35.3 170.6 35.7 170.6 36.3 C 170.6 36.3 169.5 36.3 169.5 36.3 C 169.6 35 170.3 34.5 171.6 34.5 C 173.2 34.5 173.6 35.3 173.6 36.3 C 173.6 36.3 173.6 39.2 173.6 39.2 C 173.6 39.7 173.6 40.2 173.7 40.7 C 173.68 40.69 172.6 40.7 172.6 40.7 L 172.6 39.8 Z M 178.7 36.6 C 178.7 35.6 178.2 35.3 177.8 35.3 C 177.1 35.3 176.5 35.7 176.5 37.3 C 176.5 39.3 176.8 40 177.8 40 C 178 40 178.7 39.8 178.7 38.7 C 178.7 38.7 179.7 38.7 179.7 38.7 C 179.8 40.4 178.5 40.8 177.8 40.8 C 176.5 40.8 175.5 40.4 175.5 37.7 C 175.5 36 175.7 34.5 177.8 34.5 C 179 34.5 179.7 35.2 179.7 36.6 C 179.7 36.6 178.7 36.6 178.7 36.6 Z M 182.5 40.7 L 181.5 40.7 L 181.5 32 L 182.5 32 L 182.5 37.2 L 182.5 37.2 L 184.3 34.6 L 185.5 34.6 L 183.5 37.2 L 185.9 40.7 L 184.7 40.7 L 182.5 37.3 L 182.5 37.3 L 182.5 40.7 Z M 186.6 37 L 189.3 37 L 189.3 37.9 L 186.6 37.9 L 186.6 37 Z M 191 34.6 C 191 34.6 190.99 33.45 191 33.5 C 191 32.2 191.9 32 192.7 32 C 192.9 32 193.1 32 193.2 32 C 193.2 32 193.2 32.7 193.2 32.7 C 192.2 32.7 192 33.1 192 33.6 C 191.97 33.6 192 34.6 192 34.6 L 193.2 34.6 L 193.2 35.4 L 192 35.4 L 192 40.7 L 191 40.7 L 191 35.4 L 190.1 35.4 L 190.1 34.6 L 191 34.6 Z M 195.2 35.5 C 195.2 35.5 195.19 35.54 195.2 35.5 C 195.6 34.6 196.1 34.5 197.1 34.5 C 197.1 34.5 197.1 35.5 197.1 35.5 C 197 35.5 196.9 35.5 196.8 35.5 C 196.7 35.5 196.6 35.5 196.5 35.5 C 195.4 35.5 195.2 36.3 195.2 37.1 C 195.16 37.11 195.2 40.7 195.2 40.7 L 194.2 40.7 L 194.2 34.6 L 195.2 34.6 L 195.2 35.5 Z M 201.5 37.2 C 201.5 35.5 201 35.3 200.3 35.3 C 199.6 35.3 199.1 35.6 199.1 37.2 C 199.1 37.2 201.5 37.2 201.5 37.2 Z M 199.1 38 C 199.1 39.7 199.6 40 200.3 40 C 201 40 201.3 39.5 201.4 38.9 C 201.4 38.9 202.5 38.9 202.5 38.9 C 202.4 40.2 201.6 40.8 200.3 40.8 C 199.1 40.8 198 40.4 198 37.7 C 198 36 198.2 34.5 200.3 34.5 C 202.1 34.5 202.5 35.5 202.5 37.5 C 202.51 37.46 202.5 38 202.5 38 C 202.5 38 199.1 37.98 199.1 38 Z M 207.5 37.2 C 207.5 35.5 207 35.3 206.3 35.3 C 205.6 35.3 205.1 35.6 205.1 37.2 C 205.1 37.2 207.5 37.2 207.5 37.2 Z M 205.1 38 C 205.1 39.7 205.6 40 206.3 40 C 207 40 207.3 39.5 207.4 38.9 C 207.4 38.9 208.5 38.9 208.5 38.9 C 208.4 40.2 207.6 40.8 206.3 40.8 C 205.1 40.8 204 40.4 204 37.7 C 204 36 204.2 34.5 206.3 34.5 C 208.1 34.5 208.5 35.5 208.5 37.5 C 208.51 37.46 208.5 38 208.5 38 C 208.5 38 205.1 37.98 205.1 38 Z M 213.7 38.9 C 213.7 39.5 214 40 214.7 40 C 215.3 40 216 39.6 215.9 37.7 C 215 37.7 213.7 37.6 213.7 38.9 Z M 215.9 39.8 C 215.9 39.8 215.9 39.81 215.9 39.8 C 215.6 40.5 215.1 40.8 214.4 40.8 C 213.1 40.8 212.7 40 212.7 38.8 C 212.7 37 214.5 36.9 215.9 36.9 C 215.9 36.1 215.9 35.3 214.9 35.3 C 214.2 35.3 213.9 35.7 213.9 36.3 C 213.9 36.3 212.9 36.3 212.9 36.3 C 212.9 35 213.6 34.5 214.9 34.5 C 216.5 34.5 216.9 35.3 216.9 36.3 C 216.9 36.3 216.9 39.2 216.9 39.2 C 216.9 39.7 216.9 40.2 217 40.7 C 217 40.69 215.9 40.7 215.9 40.7 L 215.9 39.8 Z M 219 34.6 C 219 34.6 218.99 33.45 219 33.5 C 219 32.2 219.8 32 220.7 32 C 220.9 32 221 32 221.2 32 C 221.2 32 221.2 32.7 221.2 32.7 C 220.1 32.7 220 33.1 220 33.6 C 219.97 33.6 220 34.6 220 34.6 L 221.2 34.6 L 221.2 35.4 L 220 35.4 L 220 40.7 L 219 40.7 L 219 35.4 L 218 35.4 L 218 34.6 L 219 34.6 Z M 222.2 34.6 L 222.2 33.5 L 223.2 33 L 223.2 34.6 L 224.6 34.6 L 224.6 35.4 L 223.2 35.4 C 223.2 35.4 223.23 39.08 223.2 39.1 C 223.2 39.5 223.2 40 224.1 40 C 224.2 40 224.4 39.9 224.6 39.9 C 224.6 39.9 224.6 40.7 224.6 40.7 C 224.3 40.7 223.9 40.8 223.6 40.8 C 222.7 40.8 222.2 40.4 222.2 39.7 C 222.25 39.68 222.2 35.4 222.2 35.4 L 221.3 35.4 L 221.3 34.6 L 222.2 34.6 Z M 228.8 37.2 C 228.8 35.5 228.3 35.3 227.6 35.3 C 227 35.3 226.4 35.6 226.4 37.2 C 226.4 37.2 228.8 37.2 228.8 37.2 Z M 226.4 38 C 226.4 39.7 226.9 40 227.7 40 C 228.3 40 228.7 39.5 228.7 38.9 C 228.7 38.9 229.8 38.9 229.8 38.9 C 229.8 40.2 229 40.8 227.7 40.8 C 226.4 40.8 225.4 40.4 225.4 37.7 C 225.4 36 225.6 34.5 227.7 34.5 C 229.4 34.5 229.8 35.5 229.8 37.5 C 229.84 37.46 229.8 38 229.8 38 C 229.8 38 226.44 37.98 226.4 38 Z M 232.5 35.5 C 232.5 35.5 232.52 35.54 232.5 35.5 C 232.9 34.6 233.4 34.5 234.4 34.5 C 234.4 34.5 234.4 35.5 234.4 35.5 C 234.3 35.5 234.2 35.5 234.1 35.5 C 234 35.5 234 35.5 233.9 35.5 C 232.8 35.5 232.5 36.3 232.5 37.1 C 232.5 37.11 232.5 40.7 232.5 40.7 L 231.5 40.7 L 231.5 34.6 L 232.5 34.6 L 232.5 35.5 Z M 239 38.9 C 239 39.5 239.3 40 240 40 C 240.6 40 241.3 39.6 241.2 37.7 C 240.3 37.7 239 37.6 239 38.9 Z M 241.3 39.8 C 241.3 39.8 241.23 39.81 241.2 39.8 C 240.9 40.5 240.5 40.8 239.7 40.8 C 238.4 40.8 238.1 40 238.1 38.8 C 238.1 37 239.9 36.9 241.2 36.9 C 241.3 36.1 241.3 35.3 240.2 35.3 C 239.6 35.3 239.2 35.7 239.3 36.3 C 239.3 36.3 238.2 36.3 238.2 36.3 C 238.2 35 239 34.5 240.2 34.5 C 241.8 34.5 242.2 35.3 242.2 36.3 C 242.2 36.3 242.2 39.2 242.2 39.2 C 242.2 39.7 242.3 40.2 242.3 40.7 C 242.34 40.69 241.3 40.7 241.3 40.7 L 241.3 39.8 Z " stroke="none" fill="#555555"/>  </g>  <g id="Polygon200224">    <path d="M 1.8 24.7 L 0.8 24.7 L 0.8 18.6 L 1.8 18.6 L 1.8 24.7 Z M 0.8 16 L 1.9 16 L 1.9 17.1 L 0.8 17.1 L 0.8 16 Z M 6.8 24.7 C 6.8 24.7 6.82 20.49 6.8 20.5 C 6.8 19.8 6.6 19.3 5.7 19.3 C 4.7 19.3 4.5 20.3 4.5 21.1 C 4.51 21.1 4.5 24.7 4.5 24.7 L 3.5 24.7 C 3.5 24.7 3.53 19.89 3.5 19.9 C 3.5 19.5 3.5 19 3.5 18.6 C 3.47 18.63 4.5 18.6 4.5 18.6 L 4.5 19.4 C 4.5 19.4 4.56 19.41 4.6 19.4 C 4.9 18.7 5.4 18.5 6.2 18.5 C 7.5 18.5 7.8 19.3 7.8 20.5 C 7.8 20.49 7.8 24.7 7.8 24.7 L 6.8 24.7 Z M 12.3 18.6 L 12.3 17.5 L 13.3 17 L 13.3 18.6 L 14.6 18.6 L 14.6 19.4 L 13.3 19.4 C 13.3 19.4 13.28 23.08 13.3 23.1 C 13.3 23.5 13.3 24 14.2 24 C 14.3 24 14.4 23.9 14.6 23.9 C 14.6 23.9 14.6 24.7 14.6 24.7 C 14.3 24.7 14 24.8 13.7 24.8 C 12.7 24.8 12.3 24.4 12.3 23.7 C 12.3 23.68 12.3 19.4 12.3 19.4 L 11.3 19.4 L 11.3 18.6 L 12.3 18.6 Z M 18.8 24.7 C 18.8 24.7 18.82 20.58 18.8 20.6 C 18.8 19.8 18.6 19.3 17.7 19.3 C 16.8 19.3 16.5 20.1 16.5 21.1 C 16.5 21.12 16.5 24.7 16.5 24.7 L 15.5 24.7 L 15.5 16 L 16.5 16 L 16.5 19.4 C 16.5 19.4 16.55 19.41 16.5 19.4 C 16.9 18.7 17.4 18.5 18.2 18.5 C 19.2 18.5 19.8 19 19.8 20.4 C 19.8 20.39 19.8 24.7 19.8 24.7 L 18.8 24.7 Z M 24.9 21.2 C 24.9 19.5 24.4 19.3 23.6 19.3 C 23 19.3 22.5 19.6 22.5 21.2 C 22.5 21.2 24.9 21.2 24.9 21.2 Z M 22.5 22 C 22.5 23.7 22.9 24 23.7 24 C 24.4 24 24.7 23.5 24.8 22.9 C 24.8 22.9 25.8 22.9 25.8 22.9 C 25.8 24.2 25 24.8 23.7 24.8 C 22.5 24.8 21.4 24.4 21.4 21.7 C 21.4 20 21.6 18.5 23.7 18.5 C 25.5 18.5 25.9 19.5 25.9 21.5 C 25.89 21.46 25.9 22 25.9 22 C 25.9 22 22.49 21.98 22.5 22 Z M 31.5 19.9 C 31.5 19.9 32.76 19.91 32.8 19.9 C 33.2 19.9 34.3 19.8 34.3 18.4 C 34.3 17.1 33.3 17 33.1 17 C 33.07 16.98 31.5 17 31.5 17 L 31.5 19.9 Z M 30.4 24.7 L 30.4 16 C 30.4 16 33.01 16.02 33 16 C 34.2 16 35.4 16.5 35.4 18.5 C 35.4 20.5 33.9 20.9 33 20.9 C 33 20.87 31.5 20.9 31.5 20.9 L 31.5 24.7 L 30.4 24.7 Z M 40.2 24.7 C 40.2 24.7 40.15 20.58 40.2 20.6 C 40.2 19.8 39.9 19.3 39.1 19.3 C 38.1 19.3 37.8 20.1 37.8 21.1 C 37.83 21.12 37.8 24.7 37.8 24.7 L 36.9 24.7 L 36.9 16 L 37.8 16 L 37.8 19.4 C 37.8 19.4 37.88 19.41 37.9 19.4 C 38.3 18.7 38.7 18.5 39.5 18.5 C 40.6 18.5 41.1 19 41.1 20.4 C 41.13 20.39 41.1 24.7 41.1 24.7 L 40.2 24.7 Z M 43.8 22.9 C 43.8 23.5 44.1 24 44.7 24 C 45.3 24 46.1 23.6 46 21.7 C 45 21.7 43.8 21.6 43.8 22.9 Z M 46 23.8 C 46 23.8 45.96 23.81 46 23.8 C 45.7 24.5 45.2 24.8 44.4 24.8 C 43.2 24.8 42.8 24 42.8 22.8 C 42.8 21 44.6 20.9 46 20.9 C 46 20.1 46 19.3 44.9 19.3 C 44.3 19.3 43.9 19.7 44 20.3 C 44 20.3 42.9 20.3 42.9 20.3 C 43 19 43.7 18.5 45 18.5 C 46.5 18.5 46.9 19.3 46.9 20.3 C 46.9 20.3 46.9 23.2 46.9 23.2 C 46.9 23.7 47 24.2 47.1 24.7 C 47.06 24.69 46 24.7 46 24.7 L 46 23.8 Z M 50.7 24.8 C 49.3 24.8 48.5 24.2 48.6 22.8 C 48.6 22.8 49.7 22.8 49.7 22.8 C 49.7 23.2 49.7 24 50.7 24 C 51.3 24 51.7 23.7 51.7 23.1 C 51.7 22 48.7 22 48.7 20.2 C 48.7 19.5 49.1 18.5 50.8 18.5 C 51.9 18.5 52.8 19 52.7 20.2 C 52.7 20.2 51.6 20.2 51.6 20.2 C 51.6 19.6 51.3 19.3 50.7 19.3 C 50.1 19.3 49.7 19.5 49.7 20.1 C 49.7 21.1 52.8 21.1 52.8 23 C 52.8 24.3 51.9 24.8 50.7 24.8 Z M 57.5 21.2 C 57.5 19.5 57 19.3 56.3 19.3 C 55.7 19.3 55.2 19.6 55.2 21.2 C 55.2 21.2 57.5 21.2 57.5 21.2 Z M 55.2 22 C 55.2 23.7 55.6 24 56.4 24 C 57 24 57.4 23.5 57.4 22.9 C 57.4 22.9 58.5 22.9 58.5 22.9 C 58.5 24.2 57.7 24.8 56.4 24.8 C 55.1 24.8 54.1 24.4 54.1 21.7 C 54.1 20 54.3 18.5 56.4 18.5 C 58.1 18.5 58.6 19.5 58.6 21.5 C 58.56 21.46 58.6 22 58.6 22 C 58.6 22 55.15 21.98 55.2 22 Z M 64 19.8 C 65 19.9 65.7 19.5 65.7 18.5 C 65.7 17.7 65.4 17.2 64.6 17.2 C 63.7 17.2 63.5 17.8 63.5 18.5 C 63.5 18.5 62.4 18.5 62.4 18.5 C 62.3 17.1 63 16.2 64.6 16.2 C 66 16.2 66.8 16.9 66.8 18.4 C 66.8 20 65.7 20.2 65.2 20.3 C 65.2 20.3 65.2 20.3 65.2 20.3 C 66.5 20.5 66.9 21.2 66.9 22.5 C 66.9 24.1 66 24.9 64.4 24.9 C 62.1 24.9 62.3 22.9 62.3 22.4 C 62.3 22.4 63.4 22.4 63.4 22.4 C 63.4 23.2 63.5 23.9 64.5 23.9 C 65.5 23.9 65.8 23.3 65.8 22.4 C 65.8 21.1 65.3 20.8 64 20.8 C 64 20.8 64 19.8 64 19.8 Z M 74.3 21.6 C 74.3 20.6 74.3 19.3 73 19.3 C 71.8 19.3 71.9 21 71.9 21.9 C 71.9 22.7 72 24 73.1 24 C 74.1 24 74.3 23.2 74.3 21.6 Z M 71.9 19.3 C 71.9 19.3 71.94 19.35 71.9 19.3 C 72.3 18.8 72.7 18.5 73.3 18.5 C 74.3 18.5 75.3 18.9 75.3 21.6 C 75.3 23.1 75.2 24.8 73.3 24.8 C 72.7 24.8 72.3 24.6 71.9 24.1 C 71.95 24.08 71.9 24.1 71.9 24.1 L 71.9 27 L 70.9 27 L 70.9 18.6 L 71.9 18.6 L 71.9 19.3 Z M 77.8 24.7 L 76.8 24.7 L 76.8 18.6 L 77.8 18.6 L 77.8 24.7 Z M 76.8 16 L 77.9 16 L 77.9 17.1 L 76.8 17.1 L 76.8 16 Z M 78.8 18.6 L 79.9 18.6 L 81.3 23.8 L 81.3 23.8 L 82.8 18.6 L 83.8 18.6 L 81.9 24.7 L 80.6 24.7 L 78.8 18.6 Z M 88.2 21.3 C 88.2 19.7 87.7 19.3 87 19.3 C 86.2 19.3 85.7 19.7 85.7 21.3 C 85.7 23.3 86 24 87 24 C 88 24 88.2 23.3 88.2 21.3 Z M 84.7 21.7 C 84.7 20 84.9 18.5 87 18.5 C 89.1 18.5 89.3 20 89.3 21.7 C 89.3 24.4 88.3 24.8 87 24.8 C 85.7 24.8 84.7 24.4 84.7 21.7 Z M 90.9 18.6 L 90.9 17.5 L 91.9 17 L 91.9 18.6 L 93.2 18.6 L 93.2 19.4 L 91.9 19.4 C 91.9 19.4 91.93 23.08 91.9 23.1 C 91.9 23.5 91.9 24 92.8 24 C 92.9 24 93.1 23.9 93.3 23.9 C 93.3 23.9 93.3 24.7 93.3 24.7 C 92.9 24.7 92.6 24.8 92.3 24.8 C 91.4 24.8 90.9 24.4 90.9 23.7 C 90.95 23.68 90.9 19.4 90.9 19.4 L 90 19.4 L 90 18.6 L 90.9 18.6 Z M 95.1 22.9 C 95.1 23.5 95.4 24 96 24 C 96.6 24 97.4 23.6 97.3 21.7 C 96.3 21.7 95.1 21.6 95.1 22.9 Z M 97.3 23.8 C 97.3 23.8 97.27 23.81 97.3 23.8 C 97 24.5 96.5 24.8 95.7 24.8 C 94.5 24.8 94.1 24 94.1 22.8 C 94.1 21 95.9 20.9 97.3 20.9 C 97.3 20.1 97.3 19.3 96.3 19.3 C 95.6 19.3 95.2 19.7 95.3 20.3 C 95.3 20.3 94.2 20.3 94.2 20.3 C 94.3 19 95 18.5 96.3 18.5 C 97.8 18.5 98.3 19.3 98.3 20.3 C 98.3 20.3 98.3 23.2 98.3 23.2 C 98.3 23.7 98.3 24.2 98.4 24.7 C 98.37 24.69 97.3 24.7 97.3 24.7 L 97.3 23.8 Z M 101.1 24.7 L 100.2 24.7 L 100.2 16 L 101.1 16 L 101.1 24.7 Z M 107.3 24.8 C 106 24.8 105.2 24.2 105.2 22.8 C 105.2 22.8 106.3 22.8 106.3 22.8 C 106.3 23.2 106.3 24 107.3 24 C 107.9 24 108.4 23.7 108.4 23.1 C 108.4 22 105.3 22 105.3 20.2 C 105.3 19.5 105.7 18.5 107.4 18.5 C 108.5 18.5 109.4 19 109.4 20.2 C 109.4 20.2 108.3 20.2 108.3 20.2 C 108.3 19.6 107.9 19.3 107.3 19.3 C 106.8 19.3 106.4 19.5 106.4 20.1 C 106.4 21.1 109.4 21.1 109.4 23 C 109.4 24.3 108.5 24.8 107.3 24.8 Z M 110.9 18.6 L 110.9 17.5 L 111.9 17 L 111.9 18.6 L 113.2 18.6 L 113.2 19.4 L 111.9 19.4 C 111.9 19.4 111.92 23.08 111.9 23.1 C 111.9 23.5 111.9 24 112.8 24 C 112.9 24 113 23.9 113.3 23.9 C 113.3 23.9 113.3 24.7 113.3 24.7 C 112.9 24.7 112.6 24.8 112.3 24.8 C 111.4 24.8 110.9 24.4 110.9 23.7 C 110.94 23.68 110.9 19.4 110.9 19.4 L 109.9 19.4 L 109.9 18.6 L 110.9 18.6 Z M 117.4 18.6 L 118.4 18.6 C 118.4 18.6 118.39 23.43 118.4 23.4 C 118.4 23.8 118.4 24.3 118.4 24.7 C 118.45 24.69 117.4 24.7 117.4 24.7 L 117.4 24 C 117.4 24 117.37 23.96 117.4 24 C 117 24.5 116.5 24.8 115.8 24.8 C 114.8 24.8 114.2 24.3 114.2 23.2 C 114.2 23.25 114.2 18.6 114.2 18.6 L 115.2 18.6 C 115.2 18.6 115.19 22.83 115.2 22.8 C 115.2 23.6 115.5 24.1 116.2 24.1 C 116.7 24.1 117.4 23.7 117.4 22.6 C 117.41 22.65 117.4 18.6 117.4 18.6 Z M 122.2 19.3 C 121.2 19.3 121 20.2 121 21.8 C 121 22.7 121 24 122.3 24 C 123.4 24 123.4 22.6 123.4 21.4 C 123.4 20.6 123.3 19.3 122.2 19.3 Z M 123.4 16 L 124.4 16 L 124.4 24.7 L 123.4 24.7 L 123.4 24 C 123.4 24 123.35 23.97 123.3 24 C 123 24.5 122.6 24.8 122 24.8 C 121 24.8 120 24.4 120 21.8 C 120 20.2 120 18.5 122 18.5 C 122.6 18.5 123 18.8 123.3 19.2 C 123.33 19.24 123.4 19.2 123.4 19.2 L 123.4 16 Z M 128 23.6 L 128 23.6 L 129.5 18.6 L 130.5 18.6 L 127.8 27 L 126.8 27 L 127.4 24.7 L 125.4 18.6 L 126.5 18.6 L 128 23.6 Z M 135.1 22.9 C 135.1 23.5 135.3 24 136 24 C 136.6 24 137.4 23.6 137.3 21.7 C 136.3 21.7 135.1 21.6 135.1 22.9 Z M 137.3 23.8 C 137.3 23.8 137.25 23.81 137.3 23.8 C 137 24.5 136.5 24.8 135.7 24.8 C 134.4 24.8 134.1 24 134.1 22.8 C 134.1 21 135.9 20.9 137.3 20.9 C 137.3 20.1 137.3 19.3 136.2 19.3 C 135.6 19.3 135.2 19.7 135.3 20.3 C 135.3 20.3 134.2 20.3 134.2 20.3 C 134.3 19 135 18.5 136.3 18.5 C 137.8 18.5 138.2 19.3 138.2 20.3 C 138.2 20.3 138.2 23.2 138.2 23.2 C 138.2 23.7 138.3 24.2 138.4 24.7 C 138.36 24.69 137.3 24.7 137.3 24.7 L 137.3 23.8 Z M 143.4 24.7 C 143.4 24.7 143.45 20.49 143.4 20.5 C 143.4 19.8 143.2 19.3 142.4 19.3 C 141.3 19.3 141.1 20.3 141.1 21.1 C 141.14 21.1 141.1 24.7 141.1 24.7 L 140.2 24.7 C 140.2 24.7 140.16 19.89 140.2 19.9 C 140.2 19.5 140.1 19 140.1 18.6 C 140.1 18.63 141.1 18.6 141.1 18.6 L 141.1 19.4 C 141.1 19.4 141.19 19.41 141.2 19.4 C 141.6 18.7 142 18.5 142.8 18.5 C 144.1 18.5 144.4 19.3 144.4 20.5 C 144.43 20.49 144.4 24.7 144.4 24.7 L 143.4 24.7 Z M 148.2 19.3 C 147.2 19.3 147 20.2 147 21.8 C 147 22.7 147 24 148.3 24 C 149.4 24 149.4 22.6 149.4 21.4 C 149.4 20.6 149.3 19.3 148.2 19.3 Z M 149.4 16 L 150.3 16 L 150.3 24.7 L 149.4 24.7 L 149.4 24 C 149.4 24 149.34 23.97 149.3 24 C 149 24.5 148.6 24.8 147.9 24.8 C 147 24.8 146 24.4 146 21.8 C 146 20.2 146 18.5 148 18.5 C 148.6 18.5 149 18.8 149.3 19.2 C 149.33 19.24 149.4 19.2 149.4 19.2 L 149.4 16 Z M 155.8 19.5 C 155.8 19.5 155.86 19.54 155.9 19.5 C 156.3 18.6 156.8 18.5 157.7 18.5 C 157.7 18.5 157.7 19.5 157.7 19.5 C 157.7 19.5 157.6 19.5 157.5 19.5 C 157.4 19.5 157.3 19.5 157.2 19.5 C 156.1 19.5 155.8 20.3 155.8 21.1 C 155.84 21.11 155.8 24.7 155.8 24.7 L 154.9 24.7 L 154.9 18.6 L 155.8 18.6 L 155.8 19.5 Z M 162.2 21.3 C 162.2 19.7 161.7 19.3 161 19.3 C 160.2 19.3 159.7 19.7 159.7 21.3 C 159.7 23.3 159.9 24 161 24 C 162 24 162.2 23.3 162.2 21.3 Z M 158.6 21.7 C 158.6 20 158.9 18.5 161 18.5 C 163.1 18.5 163.3 20 163.3 21.7 C 163.3 24.4 162.2 24.8 161 24.8 C 159.7 24.8 158.6 24.4 158.6 21.7 Z M 165.8 24.7 L 164.8 24.7 L 164.8 16 L 165.8 16 L 165.8 24.7 Z M 168.4 24.7 L 167.5 24.7 L 167.5 16 L 168.4 16 L 168.4 24.7 Z M 173.5 21.2 C 173.5 19.5 173 19.3 172.3 19.3 C 171.6 19.3 171.1 19.6 171.1 21.2 C 171.1 21.2 173.5 21.2 173.5 21.2 Z M 171.1 22 C 171.1 23.7 171.6 24 172.3 24 C 173 24 173.3 23.5 173.4 22.9 C 173.4 22.9 174.5 22.9 174.5 22.9 C 174.5 24.2 173.6 24.8 172.4 24.8 C 171.1 24.8 170 24.4 170 21.7 C 170 20 170.3 18.5 172.4 18.5 C 174.1 18.5 174.5 19.5 174.5 21.5 C 174.51 21.46 174.5 22 174.5 22 C 174.5 22 171.1 21.98 171.1 22 Z M 178.2 19.3 C 177.2 19.3 177 20.2 177 21.8 C 177 22.7 177 24 178.2 24 C 179.3 24 179.3 22.6 179.3 21.4 C 179.3 20.6 179.3 19.3 178.2 19.3 Z M 179.3 16 L 180.3 16 L 180.3 24.7 L 179.3 24.7 L 179.3 24 C 179.3 24 179.33 23.97 179.3 24 C 179 24.5 178.6 24.8 177.9 24.8 C 177 24.8 176 24.4 176 21.8 C 176 20.2 176 18.5 178 18.5 C 178.6 18.5 179 18.8 179.3 19.2 C 179.31 19.24 179.3 19.2 179.3 19.2 L 179.3 16 Z M 188.2 21.3 C 188.2 19.7 187.7 19.3 186.9 19.3 C 186.2 19.3 185.7 19.7 185.7 21.3 C 185.7 23.3 185.9 24 186.9 24 C 188 24 188.2 23.3 188.2 21.3 Z M 184.6 21.7 C 184.6 20 184.8 18.5 186.9 18.5 C 189 18.5 189.2 20 189.2 21.7 C 189.2 24.4 188.2 24.8 186.9 24.8 C 185.7 24.8 184.6 24.4 184.6 21.7 Z M 190.1 18.6 L 191.2 18.6 L 192.6 23.8 L 192.6 23.8 L 194.1 18.6 L 195.1 18.6 L 193.2 24.7 L 191.9 24.7 L 190.1 18.6 Z M 199.5 21.2 C 199.5 19.5 199 19.3 198.2 19.3 C 197.6 19.3 197.1 19.6 197.1 21.2 C 197.1 21.2 199.5 21.2 199.5 21.2 Z M 197.1 22 C 197.1 23.7 197.6 24 198.3 24 C 199 24 199.3 23.5 199.4 22.9 C 199.4 22.9 200.5 22.9 200.5 22.9 C 200.4 24.2 199.6 24.8 198.3 24.8 C 197.1 24.8 196 24.4 196 21.7 C 196 20 196.2 18.5 198.3 18.5 C 200.1 18.5 200.5 19.5 200.5 21.5 C 200.5 21.46 200.5 22 200.5 22 C 200.5 22 197.1 21.98 197.1 22 Z M 203.2 19.5 C 203.2 19.5 203.18 19.54 203.2 19.5 C 203.6 18.6 204.1 18.5 205.1 18.5 C 205.1 18.5 205.1 19.5 205.1 19.5 C 205 19.5 204.9 19.5 204.8 19.5 C 204.7 19.5 204.6 19.5 204.5 19.5 C 203.4 19.5 203.2 20.3 203.2 21.1 C 203.16 21.11 203.2 24.7 203.2 24.7 L 202.2 24.7 L 202.2 18.6 L 203.2 18.6 L 203.2 19.5 Z M 208.9 18.6 L 208.9 17.5 L 209.9 17 L 209.9 18.6 L 211.2 18.6 L 211.2 19.4 L 209.9 19.4 C 209.9 19.4 209.89 23.08 209.9 23.1 C 209.9 23.5 209.9 24 210.8 24 C 210.9 24 211 23.9 211.2 23.9 C 211.2 23.9 211.2 24.7 211.2 24.7 C 210.9 24.7 210.6 24.8 210.3 24.8 C 209.3 24.8 208.9 24.4 208.9 23.7 C 208.9 23.68 208.9 19.4 208.9 19.4 L 207.9 19.4 L 207.9 18.6 L 208.9 18.6 Z M 215.5 21.3 C 215.5 19.7 215 19.3 214.3 19.3 C 213.5 19.3 213 19.7 213 21.3 C 213 23.3 213.2 24 214.3 24 C 215.3 24 215.5 23.3 215.5 21.3 Z M 212 21.7 C 212 20 212.2 18.5 214.3 18.5 C 216.4 18.5 216.6 20 216.6 21.7 C 216.6 24.4 215.6 24.8 214.3 24.8 C 213 24.8 212 24.4 212 21.7 Z M 220.9 18.6 L 220.9 17.5 L 221.9 17 L 221.9 18.6 L 223.2 18.6 L 223.2 19.4 L 221.9 19.4 C 221.9 19.4 221.89 23.08 221.9 23.1 C 221.9 23.5 221.9 24 222.8 24 C 222.9 24 223 23.9 223.2 23.9 C 223.2 23.9 223.2 24.7 223.2 24.7 C 222.9 24.7 222.6 24.8 222.3 24.8 C 221.3 24.8 220.9 24.4 220.9 23.7 C 220.9 23.68 220.9 19.4 220.9 19.4 L 219.9 19.4 L 219.9 18.6 L 220.9 18.6 Z M 227.4 24.7 C 227.4 24.7 227.42 20.58 227.4 20.6 C 227.4 19.8 227.2 19.3 226.3 19.3 C 225.4 19.3 225.1 20.1 225.1 21.1 C 225.1 21.12 225.1 24.7 225.1 24.7 L 224.1 24.7 L 224.1 16 L 225.1 16 L 225.1 19.4 C 225.1 19.4 225.15 19.41 225.2 19.4 C 225.5 18.7 226 18.5 226.8 18.5 C 227.8 18.5 228.4 19 228.4 20.4 C 228.4 20.39 228.4 24.7 228.4 24.7 L 227.4 24.7 Z M 233.5 21.2 C 233.5 19.5 233 19.3 232.2 19.3 C 231.6 19.3 231.1 19.6 231.1 21.2 C 231.1 21.2 233.5 21.2 233.5 21.2 Z M 231.1 22 C 231.1 23.7 231.5 24 232.3 24 C 233 24 233.3 23.5 233.4 22.9 C 233.4 22.9 234.5 22.9 234.5 22.9 C 234.4 24.2 233.6 24.8 232.3 24.8 C 231.1 24.8 230 24.4 230 21.7 C 230 20 230.2 18.5 232.3 18.5 C 234.1 18.5 234.5 19.5 234.5 21.5 C 234.5 21.46 234.5 22 234.5 22 C 234.5 22 231.09 21.98 231.1 22 Z " stroke="none" fill="#555555"/>  </g>  <g id="Polygon200223">    <path d="M 2.9 0 L 4.3 0 L 7.2 8.7 L 5.9 8.7 L 5.3 6.6 L 1.9 6.6 L 1.3 8.7 L 0.2 8.7 L 2.9 0 Z M 3.6 1 L 3.6 1 L 2.2 5.7 L 5 5.7 L 3.6 1 Z M 14.3 0 L 14.3 8.7 L 12.8 8.7 L 9.4 1.2 L 9.3 1.2 L 9.3 8.7 L 8.4 8.7 L 8.4 0 L 9.9 0 L 13.3 7.4 L 13.3 7.4 L 13.3 0 L 14.3 0 Z M 17.4 7.7 C 17.4 7.7 18.48 7.73 18.5 7.7 C 20 7.7 20.6 7.2 20.6 5.1 C 20.6 5.1 20.6 3.4 20.6 3.4 C 20.6 1.6 20 1 18.9 1 C 18.89 0.98 17.4 1 17.4 1 L 17.4 7.7 Z M 16.3 0 C 16.3 0 19 0.02 19 0 C 20.1 0 20.9 0.4 21.3 1.3 C 21.7 2.1 21.7 3.8 21.7 4.1 C 21.7 5.9 21.5 7 21.2 7.6 C 20.7 8.3 19.8 8.7 18.3 8.7 C 18.32 8.69 16.3 8.7 16.3 8.7 L 16.3 0 Z M 23.6 8.7 L 23.6 0 L 28.1 0 L 28.1 1 L 24.7 1 L 24.7 3.8 L 27.9 3.8 L 27.9 4.7 L 24.7 4.7 L 24.7 7.7 L 28.2 7.7 L 28.2 8.7 L 23.6 8.7 Z M 30.7 8.7 L 29.7 8.7 L 29.7 0 L 31.4 0 L 33.6 7.3 L 33.6 7.3 L 35.9 0 L 37.7 0 L 37.7 8.7 L 36.6 8.7 L 36.6 1 L 36.6 1 L 34.1 8.7 L 33.1 8.7 L 30.7 1 L 30.7 1 L 30.7 8.7 Z M 40.8 7.7 C 40.8 7.7 42.41 7.73 42.4 7.7 C 43.6 7.7 44 6.9 44 6.3 C 44 4.9 43.2 4.6 42 4.6 C 42.02 4.63 40.8 4.6 40.8 4.6 L 40.8 7.7 Z M 40.8 3.7 C 40.8 3.7 42.46 3.67 42.5 3.7 C 43.3 3.7 43.7 3.1 43.7 2.3 C 43.7 1.6 43.3 1 42.4 1 C 42.41 0.98 40.8 1 40.8 1 L 40.8 3.7 Z M 39.7 8.7 L 39.7 0 C 39.7 0 42.56 0.02 42.6 0 C 43.8 0 44.2 0.4 44.5 0.9 C 44.8 1.4 44.8 1.9 44.8 2.1 C 44.8 3.1 44.5 3.9 43.4 4.1 C 43.4 4.1 43.4 4.2 43.4 4.2 C 44.6 4.3 45.1 5.1 45.1 6.3 C 45.1 8.5 43.5 8.7 42.5 8.7 C 42.53 8.69 39.7 8.7 39.7 8.7 Z M 48 3.7 C 48 3.7 49.7 3.74 49.7 3.7 C 50.5 3.7 50.9 3.1 50.9 2.3 C 50.9 1.7 50.6 1 49.7 1 C 49.72 0.98 48 1 48 1 L 48 3.7 Z M 48 4.7 L 48 8.7 L 46.9 8.7 L 46.9 0 C 46.9 0 49.93 0.02 49.9 0 C 51.5 0 52 1.1 52 2.2 C 52 3.2 51.4 4 50.4 4.2 C 50.4 4.2 50.4 4.2 50.4 4.2 C 51.4 4.3 51.8 4.7 51.8 6.4 C 51.9 6.8 52 8.1 52.1 8.7 C 52.1 8.7 51 8.7 51 8.7 C 50.7 8.1 50.7 7 50.7 5.8 C 50.6 4.8 49.7 4.7 49.3 4.7 C 49.34 4.7 48 4.7 48 4.7 Z M 57.4 0 L 58.6 0 L 56.2 5.4 L 56.2 8.7 L 55.1 8.7 L 55.1 5.4 L 52.8 0 L 54 0 L 55.7 4.2 L 57.4 0 Z M 64.1 2.2 C 64.1 3.6 62.9 4.8 61.5 4.8 C 60 4.8 58.8 3.6 58.8 2.2 C 58.8 0.7 60 -0.5 61.5 -0.5 C 62.9 -0.5 64.1 0.7 64.1 2.2 Z M 59.2 2.2 C 59.2 3.4 60.2 4.4 61.5 4.4 C 62.7 4.4 63.7 3.4 63.7 2.2 C 63.7 0.9 62.7 -0.1 61.5 -0.1 C 60.2 -0.1 59.2 0.9 59.2 2.2 Z M 61 3.7 L 60.5 3.7 L 60.5 0.7 C 60.5 0.7 61.69 0.66 61.7 0.7 C 62.3 0.7 62.5 1 62.5 1.4 C 62.5 1.8 62.3 2 61.9 2.1 C 61.9 2.1 61.9 2.1 61.9 2.1 C 62.3 2.2 62.4 2.3 62.4 2.9 C 62.4 3 62.5 3.5 62.5 3.7 C 62.5 3.7 62 3.7 62 3.7 C 61.9 3.5 62 3.1 61.9 2.7 C 61.9 2.4 61.6 2.3 61.5 2.3 C 61.47 2.33 61 2.3 61 2.3 L 61 3.7 Z M 61 1.9 C 61 1.9 61.61 1.94 61.6 1.9 C 61.9 1.9 62 1.7 62 1.5 C 62 1.2 61.9 1 61.6 1 C 61.61 0.99 61 1 61 1 L 61 1.9 Z M 64.9 5 L 67.6 5 L 67.6 5.9 L 64.9 5.9 L 64.9 5 Z M 69.2 2.6 L 69.2 1.5 L 70.2 1 L 70.2 2.6 L 71.5 2.6 L 71.5 3.4 L 70.2 3.4 C 70.2 3.4 70.22 7.08 70.2 7.1 C 70.2 7.5 70.2 8 71.1 8 C 71.2 8 71.3 7.9 71.6 7.9 C 71.6 7.9 71.6 8.7 71.6 8.7 C 71.2 8.7 70.9 8.8 70.6 8.8 C 69.7 8.8 69.2 8.4 69.2 7.7 C 69.23 7.68 69.2 3.4 69.2 3.4 L 68.2 3.4 L 68.2 2.6 L 69.2 2.6 Z M 73.5 3.5 C 73.5 3.5 73.5 3.54 73.5 3.5 C 73.9 2.6 74.4 2.5 75.4 2.5 C 75.4 2.5 75.4 3.5 75.4 3.5 C 75.3 3.5 75.2 3.5 75.1 3.5 C 75 3.5 74.9 3.5 74.8 3.5 C 73.8 3.5 73.5 4.3 73.5 5.1 C 73.48 5.11 73.5 8.7 73.5 8.7 L 72.5 8.7 L 72.5 2.6 L 73.5 2.6 L 73.5 3.5 Z M 79.8 5.2 C 79.8 3.5 79.3 3.3 78.6 3.3 C 77.9 3.3 77.4 3.6 77.4 5.2 C 77.4 5.2 79.8 5.2 79.8 5.2 Z M 77.4 6 C 77.4 7.7 77.9 8 78.6 8 C 79.3 8 79.7 7.5 79.7 6.9 C 79.7 6.9 80.8 6.9 80.8 6.9 C 80.8 8.2 79.9 8.8 78.7 8.8 C 77.4 8.8 76.4 8.4 76.4 5.7 C 76.4 4 76.6 2.5 78.7 2.5 C 80.4 2.5 80.8 3.5 80.8 5.5 C 80.82 5.46 80.8 6 80.8 6 C 80.8 6 77.42 5.98 77.4 6 Z M 83.4 6.9 C 83.4 7.5 83.6 8 84.3 8 C 84.9 8 85.6 7.6 85.6 5.7 C 84.6 5.7 83.4 5.6 83.4 6.9 Z M 85.6 7.8 C 85.6 7.8 85.55 7.81 85.6 7.8 C 85.3 8.5 84.8 8.8 84 8.8 C 82.7 8.8 82.4 8 82.4 6.8 C 82.4 5 84.2 4.9 85.6 4.9 C 85.6 4.1 85.6 3.3 84.5 3.3 C 83.9 3.3 83.5 3.7 83.6 4.3 C 83.6 4.3 82.5 4.3 82.5 4.3 C 82.6 3 83.3 2.5 84.6 2.5 C 86.1 2.5 86.5 3.3 86.5 4.3 C 86.5 4.3 86.5 7.2 86.5 7.2 C 86.5 7.7 86.6 8.2 86.7 8.7 C 86.66 8.69 85.6 8.7 85.6 8.7 L 85.6 7.8 Z M 88.6 2.6 L 88.6 1.5 L 89.5 1 L 89.5 2.6 L 90.9 2.6 L 90.9 3.4 L 89.5 3.4 C 89.5 3.4 89.55 7.08 89.5 7.1 C 89.5 7.5 89.5 8 90.4 8 C 90.5 8 90.7 7.9 90.9 7.9 C 90.9 7.9 90.9 8.7 90.9 8.7 C 90.6 8.7 90.2 8.8 89.9 8.8 C 89 8.8 88.6 8.4 88.6 7.7 C 88.56 7.68 88.6 3.4 88.6 3.4 L 87.6 3.4 L 87.6 2.6 L 88.6 2.6 Z M 95.1 5.2 C 95.1 3.5 94.6 3.3 93.9 3.3 C 93.3 3.3 92.8 3.6 92.8 5.2 C 92.8 5.2 95.1 5.2 95.1 5.2 Z M 92.8 6 C 92.8 7.7 93.2 8 94 8 C 94.6 8 95 7.5 95 6.9 C 95 6.9 96.1 6.9 96.1 6.9 C 96.1 8.2 95.3 8.8 94 8.8 C 92.7 8.8 91.7 8.4 91.7 5.7 C 91.7 4 91.9 2.5 94 2.5 C 95.7 2.5 96.2 3.5 96.2 5.5 C 96.16 5.46 96.2 6 96.2 6 C 96.2 6 92.75 5.98 92.8 6 Z M 99.9 3.3 C 98.8 3.3 98.7 4.2 98.7 5.8 C 98.7 6.7 98.7 8 99.9 8 C 101 8 101 6.6 101 5.4 C 101 4.6 100.9 3.3 99.9 3.3 Z M 101 0 L 102 0 L 102 8.7 L 101 8.7 L 101 8 C 101 8 100.97 7.97 101 8 C 100.6 8.5 100.2 8.8 99.6 8.8 C 98.6 8.8 97.6 8.4 97.6 5.8 C 97.6 4.2 97.7 2.5 99.6 2.5 C 100.2 2.5 100.6 2.8 101 3.2 C 100.96 3.24 101 3.2 101 3.2 L 101 0 Z M 109.9 5.6 C 109.9 4.6 109.9 3.3 108.6 3.3 C 107.4 3.3 107.5 5 107.5 5.9 C 107.5 6.7 107.6 8 108.7 8 C 109.7 8 109.9 7.2 109.9 5.6 Z M 107.5 3.3 C 107.5 3.3 107.55 3.35 107.5 3.3 C 107.9 2.8 108.3 2.5 108.9 2.5 C 109.9 2.5 110.9 2.9 110.9 5.6 C 110.9 7.1 110.8 8.8 108.9 8.8 C 108.3 8.8 107.9 8.6 107.6 8.1 C 107.56 8.08 107.5 8.1 107.5 8.1 L 107.5 11 L 106.5 11 L 106.5 2.6 L 107.5 2.6 L 107.5 3.3 Z M 113.4 6.9 C 113.4 7.5 113.6 8 114.3 8 C 114.9 8 115.6 7.6 115.6 5.7 C 114.6 5.7 113.4 5.6 113.4 6.9 Z M 115.6 7.8 C 115.6 7.8 115.55 7.81 115.6 7.8 C 115.3 8.5 114.8 8.8 114 8.8 C 112.7 8.8 112.4 8 112.4 6.8 C 112.4 5 114.2 4.9 115.6 4.9 C 115.6 4.1 115.6 3.3 114.5 3.3 C 113.9 3.3 113.5 3.7 113.6 4.3 C 113.6 4.3 112.5 4.3 112.5 4.3 C 112.6 3 113.3 2.5 114.6 2.5 C 116.1 2.5 116.5 3.3 116.5 4.3 C 116.5 4.3 116.5 7.2 116.5 7.2 C 116.5 7.7 116.6 8.2 116.7 8.7 C 116.66 8.69 115.6 8.7 115.6 8.7 L 115.6 7.8 Z M 118.6 2.6 L 118.6 1.5 L 119.5 1 L 119.5 2.6 L 120.9 2.6 L 120.9 3.4 L 119.5 3.4 C 119.5 3.4 119.55 7.08 119.5 7.1 C 119.5 7.5 119.5 8 120.4 8 C 120.5 8 120.7 7.9 120.9 7.9 C 120.9 7.9 120.9 8.7 120.9 8.7 C 120.6 8.7 120.2 8.8 119.9 8.8 C 119 8.8 118.6 8.4 118.6 7.7 C 118.56 7.68 118.6 3.4 118.6 3.4 L 117.6 3.4 L 117.6 2.6 L 118.6 2.6 Z M 122.8 8.7 L 121.8 8.7 L 121.8 2.6 L 122.8 2.6 L 122.8 8.7 Z M 121.7 0 L 122.8 0 L 122.8 1.1 L 121.7 1.1 L 121.7 0 Z M 127.8 5.2 C 127.8 3.5 127.3 3.3 126.6 3.3 C 125.9 3.3 125.4 3.6 125.4 5.2 C 125.4 5.2 127.8 5.2 127.8 5.2 Z M 125.4 6 C 125.4 7.7 125.9 8 126.6 8 C 127.3 8 127.7 7.5 127.7 6.9 C 127.7 6.9 128.8 6.9 128.8 6.9 C 128.8 8.2 127.9 8.8 126.7 8.8 C 125.4 8.8 124.4 8.4 124.4 5.7 C 124.4 4 124.6 2.5 126.7 2.5 C 128.4 2.5 128.8 3.5 128.8 5.5 C 128.82 5.46 128.8 6 128.8 6 C 128.8 6 125.41 5.98 125.4 6 Z M 133.7 8.7 C 133.7 8.7 133.74 4.49 133.7 4.5 C 133.7 3.8 133.5 3.3 132.7 3.3 C 131.6 3.3 131.4 4.3 131.4 5.1 C 131.44 5.1 131.4 8.7 131.4 8.7 L 130.5 8.7 C 130.5 8.7 130.46 3.89 130.5 3.9 C 130.5 3.5 130.4 3 130.4 2.6 C 130.4 2.63 131.4 2.6 131.4 2.6 L 131.4 3.4 C 131.4 3.4 131.49 3.41 131.5 3.4 C 131.9 2.7 132.3 2.5 133.1 2.5 C 134.4 2.5 134.7 3.3 134.7 4.5 C 134.73 4.49 134.7 8.7 134.7 8.7 L 133.7 8.7 Z M 136.6 2.6 L 136.6 1.5 L 137.5 1 L 137.5 2.6 L 138.9 2.6 L 138.9 3.4 L 137.5 3.4 C 137.5 3.4 137.55 7.08 137.5 7.1 C 137.5 7.5 137.5 8 138.4 8 C 138.5 8 138.7 7.9 138.9 7.9 C 138.9 7.9 138.9 8.7 138.9 8.7 C 138.6 8.7 138.2 8.8 137.9 8.8 C 137 8.8 136.6 8.4 136.6 7.7 C 136.56 7.68 136.6 3.4 136.6 3.4 L 135.6 3.4 L 135.6 2.6 L 136.6 2.6 Z M 141.6 8.8 C 140.3 8.8 139.5 8.2 139.5 6.8 C 139.5 6.8 140.6 6.8 140.6 6.8 C 140.6 7.2 140.6 8 141.6 8 C 142.2 8 142.7 7.7 142.7 7.1 C 142.7 6 139.6 6 139.6 4.2 C 139.6 3.5 140 2.5 141.7 2.5 C 142.8 2.5 143.7 3 143.6 4.2 C 143.6 4.2 142.6 4.2 142.6 4.2 C 142.6 3.6 142.2 3.3 141.6 3.3 C 141.1 3.3 140.7 3.5 140.7 4.1 C 140.7 5.1 143.7 5.1 143.7 7 C 143.7 8.3 142.8 8.8 141.6 8.8 Z M 147 2.6 L 148.1 2.6 L 149.2 7.8 L 149.2 7.8 L 150.6 2.6 L 152 2.6 L 153.2 7.8 L 153.2 7.8 L 154.4 2.6 L 155.5 2.6 L 153.9 8.7 L 152.5 8.7 L 151.2 3.5 L 151.2 3.5 L 149.9 8.7 L 148.5 8.7 L 147 2.6 Z M 159.7 8.7 C 159.7 8.7 159.74 4.58 159.7 4.6 C 159.7 3.8 159.5 3.3 158.7 3.3 C 157.7 3.3 157.4 4.1 157.4 5.1 C 157.42 5.12 157.4 8.7 157.4 8.7 L 156.4 8.7 L 156.4 0 L 157.4 0 L 157.4 3.4 C 157.4 3.4 157.47 3.41 157.5 3.4 C 157.9 2.7 158.3 2.5 159.1 2.5 C 160.1 2.5 160.7 3 160.7 4.4 C 160.72 4.39 160.7 8.7 160.7 8.7 L 159.7 8.7 Z M 165.9 5.3 C 165.9 3.7 165.3 3.3 164.6 3.3 C 163.8 3.3 163.3 3.7 163.3 5.3 C 163.3 7.3 163.6 8 164.6 8 C 165.6 8 165.9 7.3 165.9 5.3 Z M 162.3 5.7 C 162.3 4 162.5 2.5 164.6 2.5 C 166.7 2.5 166.9 4 166.9 5.7 C 166.9 8.4 165.9 8.8 164.6 8.8 C 163.3 8.8 162.3 8.4 162.3 5.7 Z M 170.4 2.6 L 171.4 2.6 L 172.5 7.8 L 172.6 7.8 L 173.9 2.6 L 175.3 2.6 L 176.5 7.8 L 176.6 7.8 L 177.8 2.6 L 178.8 2.6 L 177.2 8.7 L 175.9 8.7 L 174.6 3.5 L 174.5 3.5 L 173.2 8.7 L 171.9 8.7 L 170.4 2.6 Z M 183.1 5.2 C 183.1 3.5 182.6 3.3 181.9 3.3 C 181.3 3.3 180.7 3.6 180.7 5.2 C 180.7 5.2 183.1 5.2 183.1 5.2 Z M 180.7 6 C 180.7 7.7 181.2 8 182 8 C 182.6 8 183 7.5 183 6.9 C 183 6.9 184.1 6.9 184.1 6.9 C 184.1 8.2 183.3 8.8 182 8.8 C 180.7 8.8 179.7 8.4 179.7 5.7 C 179.7 4 179.9 2.5 182 2.5 C 183.7 2.5 184.1 3.5 184.1 5.5 C 184.14 5.46 184.1 6 184.1 6 C 184.1 6 180.73 5.98 180.7 6 Z M 186.8 3.5 C 186.8 3.5 186.82 3.54 186.8 3.5 C 187.2 2.6 187.7 2.5 188.7 2.5 C 188.7 2.5 188.7 3.5 188.7 3.5 C 188.6 3.5 188.5 3.5 188.4 3.5 C 188.3 3.5 188.3 3.5 188.2 3.5 C 187.1 3.5 186.8 4.3 186.8 5.1 C 186.79 5.11 186.8 8.7 186.8 8.7 L 185.8 8.7 L 185.8 2.6 L 186.8 2.6 L 186.8 3.5 Z M 193.1 5.2 C 193.1 3.5 192.6 3.3 191.9 3.3 C 191.3 3.3 190.7 3.6 190.7 5.2 C 190.7 5.2 193.1 5.2 193.1 5.2 Z M 190.7 6 C 190.7 7.7 191.2 8 192 8 C 192.6 8 193 7.5 193 6.9 C 193 6.9 194.1 6.9 194.1 6.9 C 194.1 8.2 193.3 8.8 192 8.8 C 190.7 8.8 189.7 8.4 189.7 5.7 C 189.7 4 189.9 2.5 192 2.5 C 193.7 2.5 194.1 3.5 194.1 5.5 C 194.14 5.46 194.1 6 194.1 6 C 194.1 6 190.73 5.98 190.7 6 Z M 199.3 6.9 C 199.3 7.5 199.6 8 200.3 8 C 200.9 8 201.6 7.6 201.5 5.7 C 200.6 5.7 199.3 5.6 199.3 6.9 Z M 201.6 7.8 C 201.6 7.8 201.53 7.81 201.5 7.8 C 201.2 8.5 200.8 8.8 200 8.8 C 198.7 8.8 198.4 8 198.4 6.8 C 198.4 5 200.2 4.9 201.5 4.9 C 201.6 4.1 201.6 3.3 200.5 3.3 C 199.8 3.3 199.5 3.7 199.6 4.3 C 199.6 4.3 198.5 4.3 198.5 4.3 C 198.5 3 199.3 2.5 200.5 2.5 C 202.1 2.5 202.5 3.3 202.5 4.3 C 202.5 4.3 202.5 7.2 202.5 7.2 C 202.5 7.7 202.6 8.2 202.6 8.7 C 202.63 8.69 201.6 8.7 201.6 8.7 L 201.6 7.8 Z M 204.5 2.6 L 204.5 1.5 L 205.5 1 L 205.5 2.6 L 206.8 2.6 L 206.8 3.4 L 205.5 3.4 C 205.5 3.4 205.53 7.08 205.5 7.1 C 205.5 7.5 205.5 8 206.4 8 C 206.5 8 206.7 7.9 206.9 7.9 C 206.9 7.9 206.9 8.7 206.9 8.7 C 206.5 8.7 206.2 8.8 205.9 8.8 C 205 8.8 204.5 8.4 204.5 7.7 C 204.54 7.68 204.5 3.4 204.5 3.4 L 203.5 3.4 L 203.5 2.6 L 204.5 2.6 Z M 207.9 2.6 L 207.9 1.5 L 208.9 1 L 208.9 2.6 L 210.2 2.6 L 210.2 3.4 L 208.9 3.4 C 208.9 3.4 208.86 7.08 208.9 7.1 C 208.9 7.5 208.9 8 209.8 8 C 209.8 8 210 7.9 210.2 7.9 C 210.2 7.9 210.2 8.7 210.2 8.7 C 209.9 8.7 209.6 8.8 209.2 8.8 C 208.3 8.8 207.9 8.4 207.9 7.7 C 207.88 7.68 207.9 3.4 207.9 3.4 L 206.9 3.4 L 206.9 2.6 L 207.9 2.6 Z M 212 6.9 C 212 7.5 212.3 8 213 8 C 213.6 8 214.3 7.6 214.2 5.7 C 213.3 5.7 212 5.6 212 6.9 Z M 214.2 7.8 C 214.2 7.8 214.2 7.81 214.2 7.8 C 213.9 8.5 213.4 8.8 212.7 8.8 C 211.4 8.8 211 8 211 6.8 C 211 5 212.8 4.9 214.2 4.9 C 214.2 4.1 214.2 3.3 213.2 3.3 C 212.5 3.3 212.2 3.7 212.2 4.3 C 212.2 4.3 211.2 4.3 211.2 4.3 C 211.2 3 211.9 2.5 213.2 2.5 C 214.8 2.5 215.2 3.3 215.2 4.3 C 215.2 4.3 215.2 7.2 215.2 7.2 C 215.2 7.7 215.2 8.2 215.3 8.7 C 215.31 8.69 214.2 8.7 214.2 8.7 L 214.2 7.8 Z M 220.3 4.6 C 220.3 3.6 219.8 3.3 219.4 3.3 C 218.7 3.3 218.2 3.7 218.2 5.3 C 218.2 7.3 218.4 8 219.4 8 C 219.7 8 220.3 7.8 220.3 6.7 C 220.3 6.7 221.3 6.7 221.3 6.7 C 221.4 8.4 220.1 8.8 219.4 8.8 C 218.1 8.8 217.1 8.4 217.1 5.7 C 217.1 4 217.3 2.5 219.4 2.5 C 220.6 2.5 221.4 3.2 221.3 4.6 C 221.3 4.6 220.3 4.6 220.3 4.6 Z M 224.1 8.7 L 223.1 8.7 L 223.1 0 L 224.1 0 L 224.1 5.2 L 224.1 5.2 L 226 2.6 L 227.2 2.6 L 225.1 5.2 L 227.5 8.7 L 226.3 8.7 L 224.1 5.3 L 224.1 5.3 L 224.1 8.7 Z M 228.2 5 L 230.9 5 L 230.9 5.9 L 228.2 5.9 L 228.2 5 Z M 232.6 2.6 C 232.6 2.6 232.61 1.45 232.6 1.5 C 232.6 0.2 233.5 0 234.3 0 C 234.6 0 234.7 0 234.8 0 C 234.8 0 234.8 0.7 234.8 0.7 C 233.8 0.7 233.6 1.1 233.6 1.6 C 233.59 1.6 233.6 2.6 233.6 2.6 L 234.8 2.6 L 234.8 3.4 L 233.6 3.4 L 233.6 8.7 L 232.6 8.7 L 232.6 3.4 L 231.7 3.4 L 231.7 2.6 L 232.6 2.6 Z M 236.8 3.5 C 236.8 3.5 236.81 3.54 236.8 3.5 C 237.2 2.6 237.7 2.5 238.7 2.5 C 238.7 2.5 238.7 3.5 238.7 3.5 C 238.6 3.5 238.5 3.5 238.4 3.5 C 238.3 3.5 238.2 3.5 238.2 3.5 C 237.1 3.5 236.8 4.3 236.8 5.1 C 236.79 5.11 236.8 8.7 236.8 8.7 L 235.8 8.7 L 235.8 2.6 L 236.8 2.6 L 236.8 3.5 Z M 243.1 5.2 C 243.1 3.5 242.6 3.3 241.9 3.3 C 241.2 3.3 240.7 3.6 240.7 5.2 C 240.7 5.2 243.1 5.2 243.1 5.2 Z M 240.7 6 C 240.7 7.7 241.2 8 241.9 8 C 242.6 8 243 7.5 243 6.9 C 243 6.9 244.1 6.9 244.1 6.9 C 244.1 8.2 243.2 8.8 242 8.8 C 240.7 8.8 239.7 8.4 239.7 5.7 C 239.7 4 239.9 2.5 242 2.5 C 243.7 2.5 244.1 3.5 244.1 5.5 C 244.13 5.46 244.1 6 244.1 6 C 244.1 6 240.72 5.98 240.7 6 Z M 249.1 5.2 C 249.1 3.5 248.6 3.3 247.9 3.3 C 247.2 3.3 246.7 3.6 246.7 5.2 C 246.7 5.2 249.1 5.2 249.1 5.2 Z M 246.7 6 C 246.7 7.7 247.2 8 247.9 8 C 248.6 8 249 7.5 249 6.9 C 249 6.9 250.1 6.9 250.1 6.9 C 250.1 8.2 249.2 8.8 248 8.8 C 246.7 8.8 245.7 8.4 245.7 5.7 C 245.7 4 245.9 2.5 248 2.5 C 249.7 2.5 250.1 3.5 250.1 5.5 C 250.13 5.46 250.1 6 250.1 6 C 250.1 6 246.72 5.98 246.7 6 Z " stroke="none" fill="#555555"/>  </g></svg>