<?xml version="1.0" standalone="no"?><!DOCTYPE svg PUBLIC "-//W3C//DTD SVG 1.1//EN" "http://www.w3.org/Graphics/SVG/1.1/DTD/svg11.dtd"><svg xmlns="http://www.w3.org/2000/svg" version="1.1" width="82px" height="21.6px" viewBox="0 -4 82 21.6" style="top:-4px">  <desc>(n=0/25)</desc>  <defs/>  <g id="Polygon195875">    <path d="M 2.8 -0.4 C 2.5 1.2 2 3.1 2 5.2 C 2 7.5 2.5 9.3 2.8 11 C 2.8 11 1.8 11 1.8 11 C 1.2 9.2 0.4 7.1 0.4 5.2 C 0.4 3.3 1.3 0.9 1.8 -0.4 C 1.8 -0.4 2.8 -0.4 2.8 -0.4 Z M 6.2 3.5 C 6.2 3.5 6.2 3.51 6.2 3.5 C 6.4 3.2 6.6 3 6.9 2.9 C 7.1 2.8 7.4 2.7 7.7 2.7 C 8.6 2.7 9.4 3.2 9.4 4.1 C 9.39 4.15 9.4 9.4 9.4 9.4 L 7.6 9.4 C 7.6 9.4 7.55 4.89 7.6 4.9 C 7.6 4.3 7.4 3.8 6.9 3.8 C 6.3 3.8 6.2 4.3 6.2 4.9 C 6.17 4.89 6.2 9.4 6.2 9.4 L 4.3 9.4 L 4.3 2.8 L 6.2 2.8 L 6.2 3.5 Z M 16.3 5.6 L 10.4 5.6 L 10.4 4.1 L 16.3 4.1 L 16.3 5.6 Z M 16.3 8.1 L 10.4 8.1 L 10.4 6.7 L 16.3 6.7 L 16.3 8.1 Z M 22.1 4.8 C 22.1 7.7 21.9 9.5 19.5 9.5 C 17.1 9.5 16.9 7.7 16.9 4.8 C 16.9 1.4 17.3 0.2 19.5 0.2 C 21.7 0.2 22.1 1.4 22.1 4.8 Z M 18.7 4.9 C 18.7 7.6 18.8 8.2 19.5 8.2 C 20.2 8.2 20.3 7.6 20.3 4.9 C 20.3 2.1 20.3 1.5 19.5 1.5 C 18.7 1.5 18.7 2.1 18.7 4.9 Z M 22 10.7 L 25.1 0 L 26.4 0 L 23.3 10.7 L 22 10.7 Z M 26.2 9.4 C 26.2 9.4 26.16 7.81 26.2 7.8 C 29 4 29.6 3.6 29.6 2.4 C 29.6 2 29.4 1.5 28.9 1.5 C 28.2 1.5 28.1 2.3 28.1 2.8 C 28.1 2.8 26.3 2.8 26.3 2.8 C 26.2 1.2 27.1 0.2 28.8 0.2 C 30.4 0.2 31.4 0.9 31.4 2.6 C 31.4 4.6 29.1 6.9 28.1 8 C 28.08 8.01 31.5 8 31.5 8 L 31.5 9.4 L 26.2 9.4 Z M 34 4 C 34 4 34.07 4.03 34.1 4 C 34.4 3.6 34.9 3.4 35.4 3.4 C 36.9 3.4 37.3 4.4 37.3 6.4 C 37.3 8.8 36.4 9.5 34.6 9.5 C 33 9.5 32.1 8.9 32.1 7.3 C 32.1 7.3 34 7.3 34 7.3 C 34 7.5 34 7.8 34.1 7.9 C 34.2 8.1 34.4 8.2 34.7 8.2 C 35.4 8.2 35.5 7.6 35.5 6.4 C 35.5 5.8 35.5 4.6 34.7 4.6 C 34.2 4.6 34 5.2 34 5.6 C 34.02 5.6 32.3 5.6 32.3 5.6 L 32.3 0.3 L 37 0.3 L 37 1.7 L 34 1.7 L 34 4 Z M 38.3 11 C 38.7 9.4 39.2 7.4 39.2 5.4 C 39.2 3.1 38.6 1.2 38.3 -0.4 C 38.3 -0.4 39.4 -0.4 39.4 -0.4 C 40 1.4 40.7 3.5 40.7 5.4 C 40.7 7.3 39.9 9.7 39.4 11 C 39.4 11 38.3 11 38.3 11 Z " stroke="none" fill="#003c71"/>  </g></svg>