<?xml version="1.0" standalone="no"?><!DOCTYPE svg PUBLIC "-//W3C//DTD SVG 1.1//EN" "http://www.w3.org/Graphics/SVG/1.1/DTD/svg11.dtd"><svg xmlns="http://www.w3.org/2000/svg" version="1.1" width="67px" height="62px" viewBox="0 -11 67 62" style="top:-11px">  <desc>62%</desc>  <defs/>  <g id="Polygon195676">    <path d="M 11.3 19.8 C 11.3 16.3 10.9 14.8 8.8 14.8 C 6.6 14.8 6.4 16.8 6.4 20.3 C 6.4 22 6.4 25.2 8.7 25.2 C 10.6 25.2 11.3 24.2 11.3 19.8 Z M 10.8 7.1 C 10.8 6.4 10.7 5.7 10.4 5.3 C 10.1 4.8 9.6 4.5 8.8 4.5 C 6.4 4.5 6.3 5.8 6.3 12.8 C 7.8 11.5 8.7 10.9 10.8 10.9 C 16 10.9 17 15.5 17 19.8 C 17 25.6 14.8 29.3 8.6 29.3 C 1.3 29.3 0.8 23.1 0.8 17.4 C 0.8 6.2 1.4 0.7 9.3 0.7 C 13.6 0.7 16.7 2.5 16.7 7.1 C 16.7 7.1 10.8 7.1 10.8 7.1 Z M 18.2 29 C 18.2 29 18.24 24.04 18.2 24 C 27 12.3 28.9 11 28.9 7.5 C 28.9 6.1 28.4 4.8 26.8 4.8 C 24.4 4.8 24.3 7 24.3 8.8 C 24.3 8.8 18.7 8.8 18.7 8.8 C 18.3 3.6 21.2 0.7 26.4 0.7 C 31.2 0.7 34.5 2.6 34.5 7.9 C 34.5 14.2 27.2 21.3 24.2 24.6 C 24.16 24.64 34.8 24.6 34.8 24.6 L 34.8 29 L 18.2 29 Z M 53.8 21.8 C 53.8 17.6 54.8 14.2 59.6 14.2 C 64.4 14.2 65.4 17.6 65.4 21.8 C 65.4 26.5 64.1 29 59.6 29 C 55.1 29 53.8 26.5 53.8 21.8 Z M 61.6 21.3 C 61.6 19.9 61.6 17.4 59.6 17.4 C 57.6 17.4 57.6 19.9 57.6 21.3 C 57.6 24.6 57.8 25.8 59.6 25.8 C 61.4 25.8 61.6 24.6 61.6 21.3 Z M 36.8 8.6 C 36.8 4.4 37.7 1 42.6 1 C 47.4 1 48.3 4.4 48.3 8.6 C 48.3 13.3 47 15.8 42.6 15.8 C 38.1 15.8 36.8 13.3 36.8 8.6 Z M 44.5 8.2 C 44.5 6.8 44.6 4.2 42.6 4.2 C 40.5 4.2 40.6 6.8 40.6 8.2 C 40.6 11.5 40.8 12.6 42.6 12.6 C 44.3 12.6 44.5 11.5 44.5 8.2 Z M 46.6 29.8 L 43.6 29.8 L 55.3 0.5 L 58.3 0.5 L 46.6 29.8 Z " stroke="none" fill="#003c71"/>  </g></svg>