<?xml version="1.0" standalone="no"?><!DOCTYPE svg PUBLIC "-//W3C//DTD SVG 1.1//EN" "http://www.w3.org/Graphics/SVG/1.1/DTD/svg11.dtd"><svg xmlns="http://www.w3.org/2000/svg" version="1.1" width="94px" height="40.6px" viewBox="0 -4 94 40.6" style="top:-4px">  <desc>(n=117/119)</desc>  <defs/>  <g id="Polygon199846">    <path d="M 2.8 -0.4 C 2.5 1.2 2 3.1 2 5.2 C 2 7.5 2.5 9.3 2.8 11 C 2.8 11 1.8 11 1.8 11 C 1.2 9.2 0.4 7.1 0.4 5.2 C 0.4 3.3 1.3 0.9 1.8 -0.4 C 1.8 -0.4 2.8 -0.4 2.8 -0.4 Z M 6.2 3.5 C 6.2 3.5 6.2 3.51 6.2 3.5 C 6.4 3.2 6.6 3 6.9 2.9 C 7.1 2.8 7.4 2.7 7.7 2.7 C 8.6 2.7 9.4 3.2 9.4 4.1 C 9.39 4.15 9.4 9.4 9.4 9.4 L 7.6 9.4 C 7.6 9.4 7.55 4.89 7.6 4.9 C 7.6 4.3 7.4 3.8 6.9 3.8 C 6.3 3.8 6.2 4.3 6.2 4.9 C 6.17 4.89 6.2 9.4 6.2 9.4 L 4.3 9.4 L 4.3 2.8 L 6.2 2.8 L 6.2 3.5 Z M 16.3 5.6 L 10.4 5.6 L 10.4 4.1 L 16.3 4.1 L 16.3 5.6 Z M 16.3 8.1 L 10.4 8.1 L 10.4 6.7 L 16.3 6.7 L 16.3 8.1 Z M 17.3 1.7 C 17.9 1.4 18.5 0.9 19 0.3 C 19.01 0.34 20.7 0.3 20.7 0.3 L 20.7 9.4 L 18.8 9.4 C 18.8 9.4 18.79 2.43 18.8 2.4 C 18.3 2.8 17.8 3.2 17.3 3.4 C 17.3 3.4 17.3 1.7 17.3 1.7 Z M 23 1.7 C 23.7 1.4 24.3 0.9 24.8 0.3 C 24.78 0.34 26.5 0.3 26.5 0.3 L 26.5 9.4 L 24.6 9.4 C 24.6 9.4 24.56 2.43 24.6 2.4 C 24.1 2.8 23.6 3.2 23 3.4 C 23 3.4 23 1.7 23 1.7 Z M 33.4 2.1 L 31.2 9.4 L 29.2 9.4 L 31.7 1.7 L 28.6 1.7 L 28.6 0.3 L 33.4 0.3 L 33.4 2.1 Z M 33.5 10.7 L 36.6 0 L 37.9 0 L 34.9 10.7 L 33.5 10.7 Z M 38.2 1.7 C 38.8 1.4 39.5 0.9 39.9 0.3 C 39.94 0.34 41.7 0.3 41.7 0.3 L 41.7 9.4 L 39.7 9.4 C 39.7 9.4 39.72 2.43 39.7 2.4 C 39.2 2.8 38.7 3.2 38.2 3.4 C 38.2 3.4 38.2 1.7 38.2 1.7 Z M 44 1.7 C 44.6 1.4 45.2 0.9 45.7 0.3 C 45.71 0.34 47.4 0.3 47.4 0.3 L 47.4 9.4 L 45.5 9.4 C 45.5 9.4 45.49 2.43 45.5 2.4 C 45 2.8 44.5 3.2 44 3.4 C 44 3.4 44 1.7 44 1.7 Z M 51.9 4.7 C 52.7 4.7 52.8 3.6 52.8 3 C 52.8 2.5 52.7 1.5 52 1.5 C 51.2 1.5 51.2 2.5 51.2 3.1 C 51.2 3.6 51.2 4.7 51.9 4.7 Z M 51.3 7.3 C 51.3 7.5 51.3 7.7 51.4 7.9 C 51.5 8.1 51.7 8.2 52 8.2 C 52.9 8.2 52.8 7.5 52.8 5.3 C 52.4 5.7 51.8 5.9 51.3 5.9 C 49.9 5.9 49.3 4.7 49.3 3.4 C 49.3 1.7 49.9 0.2 51.9 0.2 C 54.6 0.2 54.6 2.4 54.6 4.9 C 54.6 7.2 54.6 9.5 51.9 9.5 C 50.3 9.5 49.4 9 49.5 7.3 C 49.5 7.3 51.3 7.3 51.3 7.3 Z M 55.6 11 C 56 9.4 56.5 7.4 56.5 5.4 C 56.5 3.1 56 1.2 55.6 -0.4 C 55.6 -0.4 56.7 -0.4 56.7 -0.4 C 57.3 1.4 58 3.5 58 5.4 C 58 7.3 57.2 9.7 56.7 11 C 56.7 11 55.6 11 55.6 11 Z " stroke="none" fill="#003c71"/>  </g></svg>