<?xml version="1.0" standalone="no"?><!DOCTYPE svg PUBLIC "-//W3C//DTD SVG 1.1//EN" "http://www.w3.org/Graphics/SVG/1.1/DTD/svg11.dtd"><svg xmlns="http://www.w3.org/2000/svg" version="1.1" width="173.2px" height="51.6px" viewBox="0 -4 173.2 51.6" style="top:-4px">  <desc>of ANDEMBRY® treated patients were attack free* for 6 months</desc>  <defs/>  <g id="Polygon195776">    <path d="M 1.1 32.8 C 1.1 32.8 1.13 31.57 1.1 31.6 C 1.1 30.2 2.1 30 3 30 C 3.2 30 3.4 30 3.5 30 C 3.5 30 3.5 30.8 3.5 30.8 C 2.4 30.7 2.2 31.2 2.2 31.7 C 2.2 31.73 2.2 32.8 2.2 32.8 L 3.5 32.8 L 3.5 33.7 L 2.2 33.7 L 2.2 39.4 L 1.1 39.4 L 1.1 33.7 L 0.1 33.7 L 0.1 32.8 L 1.1 32.8 Z M 8.2 35.8 C 8.2 34 7.7 33.6 6.9 33.6 C 6 33.6 5.5 34 5.5 35.8 C 5.5 37.9 5.8 38.7 6.9 38.7 C 8 38.7 8.2 37.9 8.2 35.8 Z M 4.4 36.2 C 4.4 34.3 4.6 32.7 6.9 32.7 C 9.1 32.7 9.4 34.3 9.4 36.2 C 9.4 39.1 8.3 39.5 6.9 39.5 C 5.5 39.5 4.4 39.1 4.4 36.2 Z M 12.2 33.8 C 12.2 33.8 12.18 33.83 12.2 33.8 C 12.6 32.8 13.2 32.7 14.2 32.7 C 14.2 32.7 14.2 33.8 14.2 33.8 C 14.1 33.8 14 33.8 13.9 33.8 C 13.8 33.8 13.7 33.8 13.6 33.8 C 12.5 33.8 12.2 34.7 12.2 35.5 C 12.15 35.54 12.2 39.4 12.2 39.4 L 11.1 39.4 L 11.1 32.8 L 12.2 32.8 L 12.2 33.8 Z M 20.3 38.6 C 21.3 38.6 21.4 37.5 21.4 36.4 C 21.4 35.5 21.3 34.5 20.2 34.5 C 19.2 34.5 19 35.7 19 36.5 C 19 37.4 19.1 38.6 20.3 38.6 Z M 17.8 34.9 C 17.8 32.5 17.8 30.2 20.2 30.2 C 21.6 30.2 22.5 31.1 22.5 32.4 C 22.5 32.4 21.3 32.4 21.3 32.4 C 21.3 31.8 20.9 31.1 20.2 31.1 C 19.2 31.1 19 32 19 34.4 C 19 34.4 19 34.4 19 34.4 C 19.3 33.9 19.9 33.5 20.5 33.5 C 21.6 33.5 22.6 34.2 22.6 36.6 C 22.6 38.2 22 39.6 20.2 39.6 C 17.8 39.6 17.8 37.3 17.8 34.9 Z M 30.1 39.4 C 30.1 39.4 30.15 34.86 30.1 34.9 C 30.1 34.2 30 33.6 29.1 33.6 C 28.8 33.6 28.3 33.8 28.2 34 C 28 34.4 27.9 34.7 27.9 35 C 27.94 34.99 27.9 39.4 27.9 39.4 L 26.9 39.4 C 26.9 39.4 26.87 34.21 26.9 34.2 C 26.9 33.8 26.8 33.3 26.8 32.8 C 26.81 32.85 27.9 32.8 27.9 32.8 L 27.9 33.7 C 27.9 33.7 27.96 33.67 28 33.7 C 28.3 33 28.8 32.7 29.6 32.7 C 30.2 32.7 30.9 33 31.1 33.6 C 31.5 32.9 32.1 32.7 32.7 32.7 C 33.4 32.7 34.5 32.9 34.5 34.4 C 34.49 34.42 34.5 39.4 34.5 39.4 L 33.4 39.4 C 33.4 39.4 33.42 34.86 33.4 34.9 C 33.4 34.2 33.2 33.6 32.4 33.6 C 32 33.6 31.9 33.6 31.6 33.8 C 31.3 34.1 31.2 34.7 31.2 35 C 31.21 34.99 31.2 39.4 31.2 39.4 L 30.1 39.4 Z M 40 35.8 C 40 34 39.4 33.6 38.6 33.6 C 37.8 33.6 37.2 34 37.2 35.8 C 37.2 37.9 37.5 38.7 38.6 38.7 C 39.7 38.7 40 37.9 40 35.8 Z M 36.1 36.2 C 36.1 34.3 36.3 32.7 38.6 32.7 C 40.9 32.7 41.1 34.3 41.1 36.2 C 41.1 39.1 40 39.5 38.6 39.5 C 37.2 39.5 36.1 39.1 36.1 36.2 Z M 46.4 39.4 C 46.4 39.4 46.37 34.86 46.4 34.9 C 46.4 34.2 46.1 33.6 45.2 33.6 C 44 33.6 43.9 34.6 43.9 35.5 C 43.87 35.52 43.9 39.4 43.9 39.4 L 42.8 39.4 C 42.8 39.4 42.81 34.21 42.8 34.2 C 42.8 33.8 42.8 33.3 42.7 32.8 C 42.74 32.85 43.9 32.8 43.9 32.8 L 43.9 33.7 C 43.9 33.7 43.93 33.69 43.9 33.7 C 44.3 33 44.8 32.7 45.7 32.7 C 47.1 32.7 47.4 33.6 47.4 34.9 C 47.44 34.86 47.4 39.4 47.4 39.4 L 46.4 39.4 Z M 49.4 32.8 L 49.4 31.6 L 50.5 31.1 L 50.5 32.8 L 51.9 32.8 L 51.9 33.7 L 50.5 33.7 C 50.5 33.7 50.49 37.67 50.5 37.7 C 50.5 38.1 50.5 38.6 51.5 38.6 C 51.5 38.6 51.7 38.6 51.9 38.6 C 51.9 38.6 51.9 39.4 51.9 39.4 C 51.6 39.4 51.2 39.5 50.9 39.5 C 49.9 39.5 49.4 39.1 49.4 38.3 C 49.43 38.32 49.4 33.7 49.4 33.7 L 48.3 33.7 L 48.3 32.8 L 49.4 32.8 Z M 56.5 39.4 C 56.5 39.4 56.48 34.97 56.5 35 C 56.5 34.2 56.2 33.6 55.3 33.6 C 54.2 33.6 54 34.4 54 35.6 C 53.97 35.55 54 39.4 54 39.4 L 52.9 39.4 L 52.9 30 L 54 30 L 54 33.7 C 54 33.7 54.03 33.69 54 33.7 C 54.5 32.9 54.9 32.7 55.8 32.7 C 56.9 32.7 57.5 33.3 57.5 34.8 C 57.55 34.76 57.5 39.4 57.5 39.4 L 56.5 39.4 Z M 61.4 39.5 C 59.9 39.5 59.1 38.9 59.1 37.4 C 59.1 37.4 60.3 37.4 60.3 37.4 C 60.3 37.8 60.3 38.7 61.4 38.7 C 62 38.7 62.5 38.3 62.5 37.7 C 62.5 36.5 59.3 36.5 59.3 34.5 C 59.3 33.8 59.7 32.7 61.5 32.7 C 62.7 32.7 63.7 33.3 63.6 34.6 C 63.6 34.6 62.4 34.6 62.4 34.6 C 62.4 33.9 62.1 33.5 61.4 33.5 C 60.8 33.5 60.4 33.8 60.4 34.4 C 60.4 35.6 63.6 35.5 63.6 37.5 C 63.6 39 62.7 39.5 61.4 39.5 Z " stroke="none" fill="#555555"/>  </g>  <g id="Polygon195775">    <path d="M 4.6 21 C 4.6 20 4.6 18.6 3.3 18.6 C 2 18.6 2.1 20.4 2.1 21.4 C 2.1 22.3 2.1 23.7 3.3 23.7 C 4.5 23.7 4.6 22.8 4.6 21 Z M 2.1 18.6 C 2.1 18.6 2.12 18.63 2.1 18.6 C 2.5 18 2.9 17.7 3.6 17.7 C 4.7 17.7 5.7 18.1 5.7 21 C 5.7 22.7 5.7 24.5 3.6 24.5 C 3 24.5 2.5 24.3 2.1 23.7 C 2.13 23.75 2.1 23.7 2.1 23.7 L 2.1 26.9 L 1 26.9 L 1 17.8 L 2.1 17.8 L 2.1 18.6 Z M 8.4 22.5 C 8.4 23.1 8.7 23.7 9.4 23.7 C 10.1 23.7 10.9 23.3 10.8 21.1 C 9.8 21.2 8.4 21.1 8.4 22.5 Z M 10.8 23.5 C 10.8 23.5 10.79 23.46 10.8 23.5 C 10.5 24.2 10 24.5 9.1 24.5 C 7.7 24.5 7.3 23.6 7.3 22.4 C 7.3 20.4 9.3 20.3 10.8 20.3 C 10.8 19.5 10.8 18.5 9.7 18.5 C 9 18.5 8.6 19 8.7 19.7 C 8.7 19.7 7.5 19.7 7.5 19.7 C 7.6 18.2 8.3 17.7 9.7 17.7 C 11.4 17.7 11.9 18.6 11.9 19.7 C 11.9 19.7 11.9 22.9 11.9 22.9 C 11.9 23.4 11.9 23.9 12 24.4 C 11.99 24.41 10.8 24.4 10.8 24.4 L 10.8 23.5 Z M 14.1 17.8 L 14.1 16.6 L 15.1 16.1 L 15.1 17.8 L 16.5 17.8 L 16.5 18.7 L 15.1 18.7 C 15.1 18.7 15.12 22.67 15.1 22.7 C 15.1 23.1 15.1 23.6 16.1 23.6 C 16.2 23.6 16.3 23.6 16.6 23.6 C 16.6 23.6 16.6 24.4 16.6 24.4 C 16.2 24.4 15.9 24.5 15.5 24.5 C 14.5 24.5 14.1 24.1 14.1 23.3 C 14.05 23.32 14.1 18.7 14.1 18.7 L 13 18.7 L 13 17.8 L 14.1 17.8 Z M 18.6 24.4 L 17.5 24.4 L 17.5 17.8 L 18.6 17.8 L 18.6 24.4 Z M 17.5 15 L 18.7 15 L 18.7 16.2 L 17.5 16.2 L 17.5 15 Z M 24 20.7 C 24 18.8 23.5 18.5 22.7 18.5 C 22 18.5 21.5 18.8 21.5 20.7 C 21.5 20.7 24 20.7 24 20.7 Z M 21.5 21.5 C 21.5 23.3 22 23.7 22.8 23.7 C 23.5 23.7 23.9 23.1 23.9 22.4 C 23.9 22.4 25.1 22.4 25.1 22.4 C 25.1 23.9 24.2 24.5 22.8 24.5 C 21.4 24.5 20.3 24.1 20.3 21.2 C 20.3 19.3 20.6 17.7 22.8 17.7 C 24.7 17.7 25.2 18.7 25.2 20.9 C 25.17 20.92 25.2 21.5 25.2 21.5 C 25.2 21.5 21.47 21.47 21.5 21.5 Z M 30.5 24.4 C 30.5 24.4 30.5 19.86 30.5 19.9 C 30.5 19.2 30.3 18.6 29.3 18.6 C 28.2 18.6 28 19.6 28 20.5 C 28 20.52 28 24.4 28 24.4 L 26.9 24.4 C 26.9 24.4 26.94 19.21 26.9 19.2 C 26.9 18.8 26.9 18.3 26.9 17.8 C 26.87 17.85 28 17.8 28 17.8 L 28 18.7 C 28 18.7 28.05 18.69 28.1 18.7 C 28.5 18 29 17.7 29.8 17.7 C 31.2 17.7 31.6 18.6 31.6 19.9 C 31.56 19.86 31.6 24.4 31.6 24.4 L 30.5 24.4 Z M 33.6 17.8 L 33.6 16.6 L 34.6 16.1 L 34.6 17.8 L 36 17.8 L 36 18.7 L 34.6 18.7 C 34.6 18.7 34.62 22.67 34.6 22.7 C 34.6 23.1 34.6 23.6 35.6 23.6 C 35.7 23.6 35.8 23.6 36.1 23.6 C 36.1 23.6 36.1 24.4 36.1 24.4 C 35.7 24.4 35.4 24.5 35 24.5 C 34 24.5 33.6 24.1 33.6 23.3 C 33.55 23.32 33.6 18.7 33.6 18.7 L 32.5 18.7 L 32.5 17.8 L 33.6 17.8 Z M 39 24.5 C 37.6 24.5 36.7 23.9 36.7 22.4 C 36.7 22.4 37.9 22.4 37.9 22.4 C 37.9 22.8 37.9 23.7 39 23.7 C 39.7 23.7 40.2 23.3 40.2 22.7 C 40.2 21.5 36.9 21.5 36.9 19.5 C 36.9 18.8 37.3 17.7 39.1 17.7 C 40.3 17.7 41.3 18.3 41.2 19.6 C 41.2 19.6 40 19.6 40 19.6 C 40.1 18.9 39.7 18.5 39 18.5 C 38.4 18.5 38 18.8 38 19.4 C 38 20.6 41.3 20.5 41.3 22.5 C 41.3 24 40.3 24.5 39 24.5 Z M 44.9 17.8 L 46.1 17.8 L 47.3 23.5 L 47.3 23.5 L 48.7 17.8 L 50.2 17.8 L 51.6 23.5 L 51.6 23.5 L 52.9 17.8 L 54 17.8 L 52.3 24.4 L 50.9 24.4 L 49.5 18.8 L 49.4 18.8 L 48 24.4 L 46.5 24.4 L 44.9 17.8 Z M 58.7 20.7 C 58.7 18.8 58.2 18.5 57.4 18.5 C 56.7 18.5 56.1 18.8 56.1 20.7 C 56.1 20.7 58.7 20.7 58.7 20.7 Z M 56.1 21.5 C 56.1 23.3 56.6 23.7 57.5 23.7 C 58.2 23.7 58.6 23.1 58.6 22.4 C 58.6 22.4 59.8 22.4 59.8 22.4 C 59.8 23.9 58.9 24.5 57.5 24.5 C 56.1 24.5 55 24.1 55 21.2 C 55 19.3 55.2 17.7 57.5 17.7 C 59.4 17.7 59.8 18.7 59.8 20.9 C 59.82 20.92 59.8 21.5 59.8 21.5 C 59.8 21.5 56.13 21.47 56.1 21.5 Z M 62.7 18.8 C 62.7 18.8 62.72 18.83 62.7 18.8 C 63.2 17.8 63.7 17.7 64.8 17.7 C 64.8 17.7 64.8 18.8 64.8 18.8 C 64.7 18.8 64.6 18.8 64.5 18.8 C 64.4 18.8 64.3 18.8 64.2 18.8 C 63 18.8 62.7 19.7 62.7 20.5 C 62.7 20.54 62.7 24.4 62.7 24.4 L 61.6 24.4 L 61.6 17.8 L 62.7 17.8 L 62.7 18.8 Z M 69.5 20.7 C 69.5 18.8 69 18.5 68.2 18.5 C 67.5 18.5 67 18.8 67 20.7 C 67 20.7 69.5 20.7 69.5 20.7 Z M 67 21.5 C 67 23.3 67.5 23.7 68.3 23.7 C 69 23.7 69.4 23.1 69.4 22.4 C 69.4 22.4 70.6 22.4 70.6 22.4 C 70.6 23.9 69.7 24.5 68.3 24.5 C 66.9 24.5 65.8 24.1 65.8 21.2 C 65.8 19.3 66 17.7 68.3 17.7 C 70.2 17.7 70.7 18.7 70.7 20.9 C 70.65 20.92 70.7 21.5 70.7 21.5 C 70.7 21.5 66.96 21.47 67 21.5 Z M 76.3 22.5 C 76.3 23.1 76.6 23.7 77.3 23.7 C 78 23.7 78.8 23.3 78.7 21.1 C 77.6 21.2 76.3 21.1 76.3 22.5 Z M 78.7 23.5 C 78.7 23.5 78.66 23.46 78.7 23.5 C 78.3 24.2 77.8 24.5 77 24.5 C 75.6 24.5 75.2 23.6 75.2 22.4 C 75.2 20.4 77.2 20.3 78.7 20.3 C 78.7 19.5 78.7 18.5 77.6 18.5 C 76.8 18.5 76.5 19 76.5 19.7 C 76.5 19.7 75.4 19.7 75.4 19.7 C 75.4 18.2 76.2 17.7 77.6 17.7 C 79.3 17.7 79.7 18.6 79.7 19.7 C 79.7 19.7 79.7 22.9 79.7 22.9 C 79.7 23.4 79.8 23.9 79.9 24.4 C 79.86 24.41 78.7 24.4 78.7 24.4 L 78.7 23.5 Z M 81.9 17.8 L 81.9 16.6 L 83 16.1 L 83 17.8 L 84.4 17.8 L 84.4 18.7 L 83 18.7 C 83 18.7 82.99 22.67 83 22.7 C 83 23.1 83 23.6 84 23.6 C 84 23.6 84.2 23.6 84.4 23.6 C 84.4 23.6 84.4 24.4 84.4 24.4 C 84.1 24.4 83.7 24.5 83.4 24.5 C 82.4 24.5 81.9 24.1 81.9 23.3 C 81.93 23.32 81.9 18.7 81.9 18.7 L 80.8 18.7 L 80.8 17.8 L 81.9 17.8 Z M 85.5 17.8 L 85.5 16.6 L 86.6 16.1 L 86.6 17.8 L 88 17.8 L 88 18.7 L 86.6 18.7 C 86.6 18.7 86.6 22.67 86.6 22.7 C 86.6 23.1 86.6 23.6 87.6 23.6 C 87.7 23.6 87.8 23.6 88.1 23.6 C 88.1 23.6 88.1 24.4 88.1 24.4 C 87.7 24.4 87.4 24.5 87 24.5 C 86 24.5 85.5 24.1 85.5 23.3 C 85.54 23.32 85.5 18.7 85.5 18.7 L 84.5 18.7 L 84.5 17.8 L 85.5 17.8 Z M 90 22.5 C 90 23.1 90.3 23.7 91 23.7 C 91.7 23.7 92.5 23.3 92.4 21.1 C 91.4 21.2 90 21.1 90 22.5 Z M 92.4 23.5 C 92.4 23.5 92.39 23.46 92.4 23.5 C 92.1 24.2 91.6 24.5 90.7 24.5 C 89.3 24.5 88.9 23.6 88.9 22.4 C 88.9 20.4 90.9 20.3 92.4 20.3 C 92.4 19.5 92.4 18.5 91.3 18.5 C 90.6 18.5 90.2 19 90.3 19.7 C 90.3 19.7 89.1 19.7 89.1 19.7 C 89.2 18.2 89.9 17.7 91.3 17.7 C 93 17.7 93.5 18.6 93.5 19.7 C 93.5 19.7 93.5 22.9 93.5 22.9 C 93.5 23.4 93.5 23.9 93.6 24.4 C 93.59 24.41 92.4 24.4 92.4 24.4 L 92.4 23.5 Z M 99 20 C 99 18.9 98.5 18.6 98.1 18.6 C 97.2 18.6 96.7 19 96.7 20.8 C 96.7 22.9 97 23.7 98.1 23.7 C 98.3 23.7 99 23.4 99 22.2 C 99 22.2 100.1 22.2 100.1 22.2 C 100.2 24.1 98.8 24.5 98.1 24.5 C 96.7 24.5 95.6 24.1 95.6 21.2 C 95.6 19.3 95.8 17.7 98.1 17.7 C 99.4 17.7 100.1 18.5 100.1 20 C 100.1 20 99 20 99 20 Z M 103.1 24.4 L 102 24.4 L 102 15 L 103.1 15 L 103.1 20.7 L 103.1 20.7 L 105.1 17.8 L 106.4 17.8 L 104.2 20.7 L 106.8 24.4 L 105.5 24.4 L 103.1 20.7 L 103.1 20.7 L 103.1 24.4 Z M 107.6 20.4 L 110.5 20.4 L 110.5 21.4 L 107.6 21.4 L 107.6 20.4 Z M 112.3 17.8 C 112.3 17.8 112.33 16.57 112.3 16.6 C 112.3 15.2 113.3 15 114.2 15 C 114.4 15 114.6 15 114.7 15 C 114.7 15 114.7 15.8 114.7 15.8 C 113.6 15.7 113.4 16.2 113.4 16.7 C 113.4 16.73 113.4 17.8 113.4 17.8 L 114.7 17.8 L 114.7 18.7 L 113.4 18.7 L 113.4 24.4 L 112.3 24.4 L 112.3 18.7 L 111.3 18.7 L 111.3 17.8 L 112.3 17.8 Z M 116.9 18.8 C 116.9 18.8 116.88 18.83 116.9 18.8 C 117.3 17.8 117.9 17.7 118.9 17.7 C 118.9 17.7 118.9 18.8 118.9 18.8 C 118.8 18.8 118.7 18.8 118.6 18.8 C 118.5 18.8 118.4 18.8 118.3 18.8 C 117.2 18.8 116.9 19.7 116.9 20.5 C 116.85 20.54 116.9 24.4 116.9 24.4 L 115.8 24.4 L 115.8 17.8 L 116.9 17.8 L 116.9 18.8 Z M 123.7 20.7 C 123.7 18.8 123.1 18.5 122.4 18.5 C 121.7 18.5 121.1 18.8 121.1 20.7 C 121.1 20.7 123.7 20.7 123.7 20.7 Z M 121.1 21.5 C 121.1 23.3 121.6 23.7 122.4 23.7 C 123.2 23.7 123.6 23.1 123.6 22.4 C 123.6 22.4 124.8 22.4 124.8 22.4 C 124.7 23.9 123.8 24.5 122.5 24.5 C 121.1 24.5 120 24.1 120 21.2 C 120 19.3 120.2 17.7 122.5 17.7 C 124.3 17.7 124.8 18.7 124.8 20.9 C 124.81 20.92 124.8 21.5 124.8 21.5 C 124.8 21.5 121.12 21.47 121.1 21.5 Z M 130.2 20.7 C 130.2 18.8 129.6 18.5 128.9 18.5 C 128.2 18.5 127.6 18.8 127.6 20.7 C 127.6 20.7 130.2 20.7 130.2 20.7 Z M 127.6 21.5 C 127.6 23.3 128.1 23.7 128.9 23.7 C 129.7 23.7 130.1 23.1 130.1 22.4 C 130.1 22.4 131.3 22.4 131.3 22.4 C 131.2 23.9 130.3 24.5 129 24.5 C 127.6 24.5 126.5 24.1 126.5 21.2 C 126.5 19.3 126.7 17.7 129 17.7 C 130.8 17.7 131.3 18.7 131.3 20.9 C 131.31 20.92 131.3 21.5 131.3 21.5 C 131.3 21.5 127.62 21.47 127.6 21.5 Z M 135.5 17.4 L 136.7 19.1 L 135.9 19.5 L 135 17.7 L 134.2 19.5 L 133.4 19.1 L 134.6 17.4 L 132.6 17.6 L 132.6 16.8 L 134.6 16.9 L 133.4 15.3 L 134.2 14.8 L 135 16.7 L 135.9 14.8 L 136.6 15.3 L 135.5 16.9 L 137.5 16.8 L 137.5 17.6 L 135.5 17.4 Z " stroke="none" fill="#555555"/>  </g>  <g id="Polygon195774">    <path d="M 4.6 5.8 C 4.6 4 4.1 3.6 3.3 3.6 C 2.4 3.6 1.9 4 1.9 5.8 C 1.9 7.9 2.1 8.7 3.3 8.7 C 4.4 8.7 4.6 7.9 4.6 5.8 Z M 0.8 6.2 C 0.8 4.3 1 2.7 3.3 2.7 C 5.5 2.7 5.7 4.3 5.7 6.2 C 5.7 9.1 4.6 9.5 3.3 9.5 C 1.9 9.5 0.8 9.1 0.8 6.2 Z M 7.6 2.8 C 7.6 2.8 7.63 1.57 7.6 1.6 C 7.6 0.2 8.6 0 9.5 0 C 9.7 0 9.9 0 10 0 C 10 0 10 0.8 10 0.8 C 8.9 0.7 8.7 1.2 8.7 1.7 C 8.7 1.73 8.7 2.8 8.7 2.8 L 10 2.8 L 10 3.7 L 8.7 3.7 L 8.7 9.4 L 7.6 9.4 L 7.6 3.7 L 6.6 3.7 L 6.6 2.8 L 7.6 2.8 Z M 16.2 0 L 17.7 0 L 20.7 9.4 L 19.4 9.4 L 18.7 7.2 L 15.1 7.2 L 14.4 9.4 L 13.2 9.4 L 16.2 0 Z M 16.9 1.1 L 16.9 1.1 L 15.4 6.1 L 18.4 6.1 L 16.9 1.1 Z M 28.5 0 L 28.5 9.4 L 26.9 9.4 L 23.2 1.3 L 23.1 1.3 L 23.1 9.4 L 22.1 9.4 L 22.1 0 L 23.8 0 L 27.4 8.1 L 27.4 8.1 L 27.4 0 L 28.5 0 Z M 31.9 8.4 C 31.9 8.4 33.02 8.37 33 8.4 C 34.7 8.4 35.3 7.7 35.3 5.6 C 35.3 5.6 35.3 3.7 35.3 3.7 C 35.3 1.8 34.7 1.1 33.5 1.1 C 33.46 1.07 31.9 1.1 31.9 1.1 L 31.9 8.4 Z M 30.7 0 C 30.7 0 33.58 0.03 33.6 0 C 34.8 0 35.6 0.5 36.1 1.5 C 36.5 2.2 36.5 4.1 36.5 4.4 C 36.5 6.4 36.3 7.6 35.9 8.2 C 35.4 9 34.5 9.4 32.9 9.4 C 32.85 9.41 30.7 9.4 30.7 9.4 L 30.7 0 Z M 38.6 9.4 L 38.6 0 L 43.4 0 L 43.4 1.1 L 39.8 1.1 L 39.8 4.1 L 43.2 4.1 L 43.2 5.1 L 39.8 5.1 L 39.8 8.4 L 43.5 8.4 L 43.5 9.4 L 38.6 9.4 Z M 46.2 9.4 L 45.1 9.4 L 45.1 0 L 47.1 0 L 49.4 7.9 L 49.5 7.9 L 51.8 0 L 53.8 0 L 53.8 9.4 L 52.6 9.4 L 52.6 1.1 L 52.6 1.1 L 50 9.4 L 48.8 9.4 L 46.3 1.1 L 46.2 1.1 L 46.2 9.4 Z M 57.3 8.4 C 57.3 8.4 58.94 8.37 58.9 8.4 C 60.2 8.4 60.7 7.5 60.7 6.8 C 60.7 5.3 59.7 5 58.5 5 C 58.53 5.02 57.3 5 57.3 5 L 57.3 8.4 Z M 57.3 4 C 57.3 4 58.99 3.98 59 4 C 59.9 4 60.4 3.4 60.4 2.5 C 60.4 1.7 59.9 1.1 58.9 1.1 C 58.94 1.07 57.3 1.1 57.3 1.1 L 57.3 4 Z M 56.1 9.4 L 56.1 0 C 56.1 0 59.11 0.03 59.1 0 C 60.4 0 60.9 0.5 61.2 1 C 61.5 1.5 61.6 2.1 61.6 2.2 C 61.6 3.4 61.2 4.2 60 4.5 C 60 4.5 60 4.5 60 4.5 C 61.3 4.7 61.9 5.5 61.9 6.8 C 61.9 9.2 60.1 9.4 59.1 9.4 C 59.07 9.41 56.1 9.4 56.1 9.4 Z M 65.1 4.1 C 65.1 4.1 66.85 4.06 66.8 4.1 C 67.7 4.1 68.1 3.3 68.1 2.5 C 68.1 1.8 67.8 1.1 66.9 1.1 C 66.86 1.07 65.1 1.1 65.1 1.1 L 65.1 4.1 Z M 65.1 5.1 L 65.1 9.4 L 63.9 9.4 L 63.9 0 C 63.9 0 67.09 0.03 67.1 0 C 68.8 0 69.3 1.2 69.3 2.4 C 69.3 3.5 68.7 4.3 67.6 4.5 C 67.6 4.5 67.6 4.5 67.6 4.5 C 68.7 4.7 69.1 5.1 69.2 7 C 69.2 7.4 69.3 8.8 69.5 9.4 C 69.5 9.4 68.2 9.4 68.2 9.4 C 67.9 8.8 68 7.5 67.9 6.3 C 67.8 5.1 66.9 5.1 66.5 5.1 C 66.46 5.1 65.1 5.1 65.1 5.1 Z M 75.2 0 L 76.4 0 L 73.9 5.8 L 73.9 9.4 L 72.7 9.4 L 72.7 5.8 L 70.2 0 L 71.5 0 L 73.3 4.6 L 75.2 0 Z M 82.4 2.3 C 82.4 3.9 81.2 5.2 79.6 5.2 C 78 5.2 76.7 3.9 76.7 2.3 C 76.7 0.8 78 -0.5 79.6 -0.5 C 81.2 -0.5 82.4 0.8 82.4 2.3 Z M 77.2 2.3 C 77.2 3.7 78.2 4.8 79.6 4.8 C 80.9 4.8 82 3.7 82 2.3 C 82 1 80.9 -0.1 79.6 -0.1 C 78.2 -0.1 77.2 1 77.2 2.3 Z M 79.1 4 L 78.5 4 L 78.5 0.7 C 78.5 0.7 79.83 0.71 79.8 0.7 C 80.5 0.7 80.7 1.1 80.7 1.5 C 80.7 1.9 80.5 2.2 80 2.3 C 80 2.3 80 2.3 80 2.3 C 80.4 2.3 80.6 2.5 80.6 3.1 C 80.6 3.3 80.7 3.8 80.7 4 C 80.7 4 80.2 4 80.2 4 C 80.1 3.8 80.1 3.3 80.1 2.9 C 80 2.6 79.7 2.5 79.6 2.5 C 79.59 2.53 79.1 2.5 79.1 2.5 L 79.1 4 Z M 79.1 2.1 C 79.1 2.1 79.74 2.1 79.7 2.1 C 80.1 2.1 80.2 1.9 80.2 1.6 C 80.2 1.3 80.1 1.1 79.7 1.1 C 79.74 1.07 79.1 1.1 79.1 1.1 L 79.1 2.1 Z M 83.3 5.4 L 86.2 5.4 L 86.2 6.4 L 83.3 6.4 L 83.3 5.4 Z M 88 2.8 L 88 1.6 L 89.1 1.1 L 89.1 2.8 L 90.5 2.8 L 90.5 3.7 L 89.1 3.7 C 89.1 3.7 89.07 7.67 89.1 7.7 C 89.1 8.1 89.1 8.6 90 8.6 C 90.1 8.6 90.3 8.6 90.5 8.6 C 90.5 8.6 90.5 9.4 90.5 9.4 C 90.2 9.4 89.8 9.5 89.5 9.5 C 88.5 9.5 88 9.1 88 8.3 C 88 8.32 88 3.7 88 3.7 L 86.9 3.7 L 86.9 2.8 L 88 2.8 Z M 92.6 3.8 C 92.6 3.8 92.63 3.83 92.6 3.8 C 93.1 2.8 93.6 2.7 94.7 2.7 C 94.7 2.7 94.7 3.8 94.7 3.8 C 94.6 3.8 94.5 3.8 94.4 3.8 C 94.3 3.8 94.2 3.8 94.1 3.8 C 92.9 3.8 92.6 4.7 92.6 5.5 C 92.6 5.54 92.6 9.4 92.6 9.4 L 91.5 9.4 L 91.5 2.8 L 92.6 2.8 L 92.6 3.8 Z M 99.4 5.7 C 99.4 3.8 98.9 3.5 98.1 3.5 C 97.4 3.5 96.9 3.8 96.9 5.7 C 96.9 5.7 99.4 5.7 99.4 5.7 Z M 96.9 6.5 C 96.9 8.3 97.4 8.7 98.2 8.7 C 98.9 8.7 99.3 8.1 99.3 7.4 C 99.3 7.4 100.5 7.4 100.5 7.4 C 100.5 8.9 99.6 9.5 98.2 9.5 C 96.8 9.5 95.7 9.1 95.7 6.2 C 95.7 4.3 95.9 2.7 98.2 2.7 C 100.1 2.7 100.6 3.7 100.6 5.9 C 100.56 5.92 100.6 6.5 100.6 6.5 C 100.6 6.5 96.87 6.47 96.9 6.5 Z M 103.3 7.5 C 103.3 8.1 103.6 8.7 104.3 8.7 C 105 8.7 105.8 8.3 105.7 6.1 C 104.7 6.2 103.3 6.1 103.3 7.5 Z M 105.7 8.5 C 105.7 8.5 105.68 8.46 105.7 8.5 C 105.4 9.2 104.8 9.5 104 9.5 C 102.6 9.5 102.2 8.6 102.2 7.4 C 102.2 5.4 104.2 5.3 105.7 5.3 C 105.7 4.5 105.7 3.5 104.6 3.5 C 103.9 3.5 103.5 4 103.5 4.7 C 103.5 4.7 102.4 4.7 102.4 4.7 C 102.4 3.2 103.2 2.7 104.6 2.7 C 106.3 2.7 106.7 3.6 106.7 4.7 C 106.7 4.7 106.7 7.9 106.7 7.9 C 106.7 8.4 106.8 8.9 106.9 9.4 C 106.88 9.41 105.7 9.4 105.7 9.4 L 105.7 8.5 Z M 108.9 2.8 L 108.9 1.6 L 110 1.1 L 110 2.8 L 111.4 2.8 L 111.4 3.7 L 110 3.7 C 110 3.7 110.01 7.67 110 7.7 C 110 8.1 110 8.6 111 8.6 C 111.1 8.6 111.2 8.6 111.5 8.6 C 111.5 8.6 111.5 9.4 111.5 9.4 C 111.1 9.4 110.8 9.5 110.4 9.5 C 109.4 9.5 108.9 9.1 108.9 8.3 C 108.95 8.32 108.9 3.7 108.9 3.7 L 107.9 3.7 L 107.9 2.8 L 108.9 2.8 Z M 116 5.7 C 116 3.8 115.5 3.5 114.7 3.5 C 114.1 3.5 113.5 3.8 113.5 5.7 C 113.5 5.7 116 5.7 116 5.7 Z M 113.5 6.5 C 113.5 8.3 114 8.7 114.8 8.7 C 115.5 8.7 115.9 8.1 116 7.4 C 116 7.4 117.1 7.4 117.1 7.4 C 117.1 8.9 116.2 9.5 114.8 9.5 C 113.4 9.5 112.3 9.1 112.3 6.2 C 112.3 4.3 112.6 2.7 114.8 2.7 C 116.7 2.7 117.2 3.7 117.2 5.9 C 117.17 5.92 117.2 6.5 117.2 6.5 C 117.2 6.5 113.48 6.47 113.5 6.5 Z M 121.2 3.6 C 120 3.6 119.9 4.5 119.9 6.3 C 119.9 7.2 119.9 8.7 121.2 8.7 C 122.4 8.7 122.4 7.2 122.4 5.9 C 122.4 5 122.4 3.6 121.2 3.6 Z M 122.4 0 L 123.5 0 L 123.5 9.4 L 122.4 9.4 L 122.4 8.6 C 122.4 8.6 122.39 8.63 122.4 8.6 C 122 9.2 121.6 9.5 120.9 9.5 C 119.8 9.5 118.8 9.1 118.8 6.2 C 118.8 4.6 118.8 2.7 120.9 2.7 C 121.6 2.7 122 3 122.4 3.5 C 122.37 3.51 122.4 3.5 122.4 3.5 L 122.4 0 Z " stroke="none" fill="#555555"/>  </g></svg>