<?xml version="1.0" standalone="no"?><!DOCTYPE svg PUBLIC "-//W3C//DTD SVG 1.1//EN" "http://www.w3.org/Graphics/SVG/1.1/DTD/svg11.dtd"><svg xmlns="http://www.w3.org/2000/svg" version="1.1" width="243px" height="34.1px" viewBox="0 -5 243 34.1" style="top:-5px">  <desc>PHASE 3 OLE AE PROFILE</desc>  <defs/>  <g id="Polygon201313">    <path d="M 3 7.2 C 3 7.2 4.16 7.17 4.2 7.2 C 5.7 7.2 5.8 6.9 5.8 4.5 C 5.8 2.1 5.7 1.9 4.2 1.9 C 4.16 1.89 3 1.9 3 1.9 L 3 7.2 Z M 0.8 0 C 0.8 0 4.44 0.04 4.4 0 C 7.4 0 8 0.9 8 4.5 C 8 8.2 7.4 9 4.4 9 C 4.44 9.02 3 9 3 9 L 3 15.9 L 0.8 15.9 L 0.8 0 Z M 9.4 0 L 11.6 0 L 11.6 6.9 L 14.5 6.9 L 14.5 0 L 16.7 0 L 16.7 15.9 L 14.5 15.9 L 14.5 8.7 L 11.6 8.7 L 11.6 15.9 L 9.4 15.9 L 9.4 0 Z M 21.3 0 L 23.8 0 L 27 15.9 L 24.8 15.9 L 24.1 11.9 L 20.7 11.9 L 20 15.9 L 17.8 15.9 L 21.3 0 Z M 21 10 L 23.8 10 L 22.4 2.4 L 22.4 2.4 L 21 10 Z M 27.9 11.3 L 30.1 11.3 C 30.1 11.3 30.05 12.63 30.1 12.6 C 30.1 13.7 30.4 14.3 31.3 14.3 C 32.5 14.3 32.8 13.6 32.8 12.5 C 32.8 11.2 32.7 10.7 30.4 8.5 C 29 7.1 27.9 5.8 27.9 3.6 C 27.9 1 29.1 -0.1 31.5 -0.1 C 32.6 -0.1 33.5 0.3 34 0.8 C 34.4 1.1 34.7 1.7 34.7 2.8 C 34.67 2.82 34.7 4.3 34.7 4.3 L 32.6 4.3 C 32.6 4.3 32.6 3.06 32.6 3.1 C 32.6 2.2 32.2 1.6 31.4 1.6 C 30.5 1.6 30.1 2.1 30.1 3.4 C 30.1 4.4 30.3 5.1 32.3 7.2 C 34.5 9.5 34.8 10.2 34.8 12.1 C 34.8 14.6 33.9 16.1 31.3 16.1 C 29.2 16.1 27.9 15.2 27.9 13.2 C 27.85 13.22 27.9 11.3 27.9 11.3 Z M 36.2 0 L 42.2 0 L 42.2 1.9 L 38.4 1.9 L 38.4 6.9 L 42 6.9 L 42 8.7 L 38.4 8.7 L 38.4 14.1 L 42.2 14.1 L 42.2 15.9 L 36.2 15.9 L 36.2 0 Z M 47.3 11.6 L 49.3 11.6 C 49.3 11.6 49.32 12.5 49.3 12.5 C 49.3 13.7 49.6 14.5 50.5 14.5 C 51.4 14.5 51.7 13.7 51.7 12.5 C 51.7 12.5 51.7 10.6 51.7 10.6 C 51.7 9.2 51.4 8.7 49.9 8.7 C 49.87 8.71 49.3 8.7 49.3 8.7 L 49.3 6.9 C 49.3 6.9 50.03 6.86 50 6.9 C 51.3 6.9 51.7 6.5 51.7 4.9 C 51.7 4.9 51.7 3.2 51.7 3.2 C 51.7 1.8 51.3 1.5 50.6 1.5 C 49.7 1.5 49.4 2.2 49.4 3.5 C 49.43 3.48 49.4 4 49.4 4 C 49.4 4 47.36 4 47.4 4 C 47.4 1 48 -0.1 50.6 -0.1 C 53.2 -0.1 53.7 1.1 53.7 4.1 C 53.7 6.9 53.4 7.4 51.8 7.7 C 51.8 7.7 51.8 7.8 51.8 7.8 C 53.2 8 53.8 8.3 53.8 12.1 C 53.8 15 53.2 16.1 50.5 16.1 C 47.9 16.1 47.3 15 47.3 12.1 C 47.25 12.14 47.3 11.6 47.3 11.6 Z M 61.7 12.3 C 61.7 13.6 62.3 14.3 63.2 14.3 C 64.1 14.3 64.7 13.6 64.7 12.3 C 64.7 12.3 64.7 3.9 64.7 3.9 C 64.7 2.4 64.2 1.6 63.2 1.6 C 62.2 1.6 61.7 2.4 61.7 3.9 C 61.7 3.9 61.7 12.3 61.7 12.3 Z M 59.5 4.1 C 59.5 1.9 60.2 -0.1 63.2 -0.1 C 66 -0.1 66.9 1.4 66.9 3.8 C 66.9 3.8 66.9 11.9 66.9 11.9 C 66.9 14.1 66.2 16.1 63.2 16.1 C 60.4 16.1 59.5 14.6 59.5 12.1 C 59.5 12.1 59.5 4.1 59.5 4.1 Z M 68.5 0 L 70.7 0 L 70.7 14.1 L 74.4 14.1 L 74.4 15.9 L 68.5 15.9 L 68.5 0 Z M 75.4 0 L 81.4 0 L 81.4 1.9 L 77.6 1.9 L 77.6 6.9 L 81.2 6.9 L 81.2 8.7 L 77.6 8.7 L 77.6 14.1 L 81.4 14.1 L 81.4 15.9 L 75.4 15.9 L 75.4 0 Z M 88.5 0 L 91.1 0 L 94.3 15.9 L 92.1 15.9 L 91.4 11.9 L 88 11.9 L 87.2 15.9 L 85 15.9 L 88.5 0 Z M 88.3 10 L 91.1 10 L 89.7 2.4 L 89.7 2.4 L 88.3 10 Z M 95.4 0 L 101.4 0 L 101.4 1.9 L 97.6 1.9 L 97.6 6.9 L 101.2 6.9 L 101.2 8.7 L 97.6 8.7 L 97.6 14.1 L 101.4 14.1 L 101.4 15.9 L 95.4 15.9 L 95.4 0 Z M 108.6 7.2 C 108.6 7.2 109.76 7.17 109.8 7.2 C 111.3 7.2 111.4 6.9 111.4 4.5 C 111.4 2.1 111.3 1.9 109.8 1.9 C 109.76 1.89 108.6 1.9 108.6 1.9 L 108.6 7.2 Z M 106.4 0 C 106.4 0 110.04 0.04 110 0 C 113 0 113.6 0.9 113.6 4.5 C 113.6 8.2 113 9 110 9 C 110.04 9.02 108.6 9 108.6 9 L 108.6 15.9 L 106.4 15.9 L 106.4 0 Z M 115 0 C 115 0 118.38 0.04 118.4 0 C 121.6 0 121.9 0.9 121.9 4.4 C 121.9 6.5 121.6 7.4 119.8 8 C 119.8 8 119.8 8 119.8 8 C 121.3 8.2 121.8 9 121.8 10.4 C 121.8 10.4 121.8 13.9 121.8 13.9 C 121.8 14.5 121.8 15.3 122 15.9 C 122 15.9 119.9 15.9 119.9 15.9 C 119.7 15.5 119.6 15.1 119.6 14.5 C 119.6 14.5 119.6 10.9 119.6 10.9 C 119.6 9.4 119.4 9 117.9 9 C 117.92 9.02 117.2 9 117.2 9 L 117.2 15.9 L 115 15.9 L 115 0 Z M 117.2 7.2 C 117.2 7.2 117.74 7.17 117.7 7.2 C 119.5 7.2 119.7 6.8 119.7 4.5 C 119.7 2.1 119.6 1.9 118.2 1.9 C 118.22 1.89 117.2 1.9 117.2 1.9 L 117.2 7.2 Z M 125.7 12.3 C 125.7 13.6 126.3 14.3 127.2 14.3 C 128.1 14.3 128.7 13.6 128.7 12.3 C 128.7 12.3 128.7 3.9 128.7 3.9 C 128.7 2.4 128.2 1.6 127.2 1.6 C 126.2 1.6 125.7 2.4 125.7 3.9 C 125.7 3.9 125.7 12.3 125.7 12.3 Z M 123.5 4.1 C 123.5 1.9 124.2 -0.1 127.2 -0.1 C 130 -0.1 130.9 1.4 130.9 3.8 C 130.9 3.8 130.9 11.9 130.9 11.9 C 130.9 14.1 130.2 16.1 127.2 16.1 C 124.4 16.1 123.5 14.6 123.5 12.1 C 123.5 12.1 123.5 4.1 123.5 4.1 Z M 132.5 0 L 138.5 0 L 138.5 1.9 L 134.7 1.9 L 134.7 6.9 L 138.2 6.9 L 138.2 8.7 L 134.7 8.7 L 134.7 15.9 L 132.5 15.9 L 132.5 0 Z M 139.3 0 L 141.5 0 L 141.5 15.9 L 139.3 15.9 L 139.3 0 Z M 143.1 0 L 145.3 0 L 145.3 14.1 L 149 14.1 L 149 15.9 L 143.1 15.9 L 143.1 0 Z M 150 0 L 156 0 L 156 1.9 L 152.2 1.9 L 152.2 6.9 L 155.8 6.9 L 155.8 8.7 L 152.2 8.7 L 152.2 14.1 L 156 14.1 L 156 15.9 L 150 15.9 L 150 0 Z " stroke="none" fill="#fff"/>  </g></svg>