<?xml version="1.0" standalone="no"?><!DOCTYPE svg PUBLIC "-//W3C//DTD SVG 1.1//EN" "http://www.w3.org/Graphics/SVG/1.1/DTD/svg11.dtd"><svg xmlns="http://www.w3.org/2000/svg" version="1.1" width="495.2px" height="48.3px" viewBox="0 -1 495.2 48.3" style="top:-1px">  <desc>Abbreviations: C1 INH, C1 esterase inhibitor; FXIIa, activated Factor XII; HAE, hereditary angioedema; HMWK, high mol...</desc>  <defs/>  <g id="Polygon192627">    <path d="M 1 39.9 L 1 31.3 L 2.1 31.3 L 2.1 35 L 5.2 35 L 5.2 31.3 L 6.3 31.3 L 6.3 39.9 L 5.2 39.9 L 5.2 36 L 2.1 36 L 2.1 39.9 L 1 39.9 Z M 9.3 39.9 L 8.3 39.9 L 8.3 31.3 L 10.1 31.3 L 12.3 38.5 L 12.3 38.5 L 14.5 31.3 L 16.3 31.3 L 16.3 39.9 L 15.2 39.9 L 15.2 32.2 L 15.2 32.2 L 12.8 39.9 L 11.7 39.9 L 9.4 32.2 L 9.3 32.2 L 9.3 39.9 Z M 17.4 31.3 L 18.6 31.3 L 20.2 38.8 L 20.2 38.8 L 22 31.3 L 23.4 31.3 L 25 38.8 L 25 38.8 L 26.8 31.3 L 27.9 31.3 L 25.6 39.9 L 24.3 39.9 L 22.6 32.4 L 22.6 32.4 L 20.9 39.9 L 19.5 39.9 L 17.4 31.3 Z M 29 39.9 L 29 31.3 L 30.1 31.3 L 30.1 35.1 L 30.1 35.1 L 33.1 31.3 L 34.4 31.3 L 31.2 35.2 L 34.6 39.9 L 33.1 39.9 L 30.1 35.4 L 30.1 35.4 L 30.1 39.9 L 29 39.9 Z M 35.7 38.7 L 36.9 38.7 L 35.8 41.4 L 35.1 41.4 L 35.7 38.7 Z M 44.1 39.9 C 44.1 39.9 44.15 35.82 44.1 35.8 C 44.1 35.1 43.9 34.5 43.1 34.5 C 42.1 34.5 41.8 35.3 41.8 36.4 C 41.83 36.36 41.8 39.9 41.8 39.9 L 40.8 39.9 L 40.8 31.3 L 41.8 31.3 L 41.8 34.6 C 41.8 34.6 41.88 34.64 41.9 34.6 C 42.3 33.9 42.7 33.7 43.5 33.7 C 44.6 33.7 45.1 34.3 45.1 35.6 C 45.13 35.62 45.1 39.9 45.1 39.9 L 44.1 39.9 Z M 47.8 39.9 L 46.8 39.9 L 46.8 33.9 L 47.8 33.9 L 47.8 39.9 Z M 46.8 31.3 L 47.9 31.3 L 47.9 32.3 L 46.8 32.3 L 46.8 31.3 Z M 51.6 34.6 C 50.5 34.6 50.4 35.9 50.4 36.7 C 50.4 38.6 50.9 39.1 51.6 39.1 C 52.8 39.1 52.8 37.7 52.8 36.9 C 52.8 36 52.8 34.6 51.6 34.6 Z M 52.7 33.9 L 53.7 33.9 C 53.7 33.9 53.71 40.53 53.7 40.5 C 53.7 41.9 52.8 42.2 51.5 42.2 C 50.5 42.2 49.6 41.7 49.6 40.6 C 49.6 40.6 50.7 40.6 50.7 40.6 C 50.8 41.2 51.1 41.5 51.7 41.5 C 52.4 41.5 52.7 41 52.7 40.4 C 52.73 40.43 52.7 39.2 52.7 39.2 C 52.7 39.2 52.69 39.17 52.7 39.2 C 52.4 39.6 51.9 39.9 51.4 39.9 C 49.7 39.9 49.4 38.5 49.4 36.7 C 49.4 33.9 50.8 33.7 51.3 33.7 C 51.9 33.7 52.4 34 52.7 34.6 C 52.7 34.6 52.7 34.6 52.7 34.6 L 52.7 33.9 Z M 58.8 39.9 C 58.8 39.9 58.81 35.82 58.8 35.8 C 58.8 35.1 58.6 34.5 57.7 34.5 C 56.7 34.5 56.5 35.3 56.5 36.4 C 56.49 36.36 56.5 39.9 56.5 39.9 L 55.5 39.9 L 55.5 31.3 L 56.5 31.3 L 56.5 34.6 C 56.5 34.6 56.54 34.64 56.5 34.6 C 56.9 33.9 57.4 33.7 58.2 33.7 C 59.2 33.7 59.8 34.3 59.8 35.6 C 59.79 35.62 59.8 39.9 59.8 39.9 L 58.8 39.9 Z M 67.2 39.9 C 67.2 39.9 67.16 35.72 67.2 35.7 C 67.2 35.1 67 34.5 66.2 34.5 C 65.9 34.5 65.5 34.7 65.4 35 C 65.2 35.3 65.1 35.6 65.1 35.8 C 65.12 35.84 65.1 39.9 65.1 39.9 L 64.1 39.9 C 64.1 39.9 64.14 35.12 64.1 35.1 C 64.1 34.7 64.1 34.3 64.1 33.9 C 64.08 33.86 65.1 33.9 65.1 33.9 L 65.1 34.6 C 65.1 34.6 65.15 34.62 65.1 34.6 C 65.4 34 66 33.7 66.7 33.7 C 67.2 33.7 67.8 34 68.1 34.5 C 68.4 33.9 69 33.7 69.5 33.7 C 70.2 33.7 71.2 33.9 71.2 35.3 C 71.17 35.31 71.2 39.9 71.2 39.9 L 70.2 39.9 C 70.2 39.9 70.19 35.72 70.2 35.7 C 70.2 35.1 70 34.5 69.2 34.5 C 68.9 34.5 68.7 34.6 68.5 34.8 C 68.2 35 68.1 35.6 68.1 35.8 C 68.15 35.84 68.1 39.9 68.1 39.9 L 67.2 39.9 Z M 76.3 36.6 C 76.3 34.9 75.7 34.5 75 34.5 C 74.2 34.5 73.7 34.9 73.7 36.6 C 73.7 38.5 74 39.2 75 39.2 C 76 39.2 76.3 38.5 76.3 36.6 Z M 72.7 37 C 72.7 35.2 72.9 33.7 75 33.7 C 77.1 33.7 77.3 35.2 77.3 37 C 77.3 39.7 76.3 40 75 40 C 73.7 40 72.7 39.7 72.7 37 Z M 79.8 39.9 L 78.8 39.9 L 78.8 31.3 L 79.8 31.3 L 79.8 39.9 Z M 84.8 36.5 C 84.8 34.7 84.3 34.5 83.6 34.5 C 83 34.5 82.5 34.8 82.5 36.5 C 82.5 36.5 84.8 36.5 84.8 36.5 Z M 82.5 37.2 C 82.5 38.9 82.9 39.2 83.7 39.2 C 84.4 39.2 84.7 38.7 84.8 38.1 C 84.8 38.1 85.8 38.1 85.8 38.1 C 85.8 39.4 85 40 83.7 40 C 82.4 40 81.4 39.7 81.4 37 C 81.4 35.2 81.6 33.7 83.7 33.7 C 85.5 33.7 85.9 34.7 85.9 36.7 C 85.88 36.69 85.9 37.2 85.9 37.2 C 85.9 37.2 82.47 37.21 82.5 37.2 Z M 90.7 35.8 C 90.7 34.8 90.2 34.5 89.8 34.5 C 89.1 34.5 88.6 34.9 88.6 36.6 C 88.6 38.5 88.8 39.2 89.8 39.2 C 90.1 39.2 90.8 39 90.7 37.9 C 90.7 37.9 91.7 37.9 91.7 37.9 C 91.8 39.6 90.5 40 89.8 40 C 88.6 40 87.5 39.7 87.5 37 C 87.5 35.2 87.7 33.7 89.8 33.7 C 91.1 33.7 91.8 34.4 91.7 35.8 C 91.7 35.8 90.7 35.8 90.7 35.8 Z M 96.8 33.9 L 97.7 33.9 C 97.7 33.9 97.74 38.66 97.7 38.7 C 97.7 39.1 97.8 39.5 97.8 39.9 C 97.8 39.92 96.8 39.9 96.8 39.9 L 96.8 39.2 C 96.8 39.2 96.72 39.19 96.7 39.2 C 96.4 39.7 95.8 40 95.2 40 C 94.1 40 93.6 39.5 93.6 38.5 C 93.55 38.48 93.6 33.9 93.6 33.9 L 94.5 33.9 C 94.5 33.9 94.53 38.06 94.5 38.1 C 94.5 38.8 94.9 39.3 95.6 39.3 C 96.1 39.3 96.8 38.9 96.8 37.9 C 96.76 37.88 96.8 33.9 96.8 33.9 Z M 100.5 39.9 L 99.5 39.9 L 99.5 31.3 L 100.5 31.3 L 100.5 39.9 Z M 103.1 38.1 C 103.1 38.7 103.4 39.2 104 39.2 C 104.6 39.2 105.4 38.9 105.3 36.9 C 104.3 36.9 103.1 36.8 103.1 38.1 Z M 105.3 39 C 105.3 39 105.28 39.05 105.3 39 C 105 39.7 104.5 40 103.8 40 C 102.5 40 102.1 39.2 102.1 38 C 102.1 36.2 103.9 36.1 105.3 36.2 C 105.3 35.4 105.3 34.5 104.3 34.5 C 103.6 34.5 103.2 34.9 103.3 35.6 C 103.3 35.6 102.2 35.6 102.2 35.6 C 102.3 34.2 103 33.7 104.3 33.7 C 105.9 33.7 106.3 34.5 106.3 35.6 C 106.3 35.6 106.3 38.5 106.3 38.5 C 106.3 39 106.3 39.5 106.4 39.9 C 106.38 39.92 105.3 39.9 105.3 39.9 L 105.3 39 Z M 109.2 34.8 C 109.2 34.8 109.22 34.77 109.2 34.8 C 109.6 33.8 110.1 33.7 111.1 33.7 C 111.1 33.7 111.1 34.8 111.1 34.8 C 111 34.7 110.9 34.7 110.8 34.7 C 110.7 34.7 110.7 34.7 110.6 34.7 C 109.5 34.7 109.2 35.5 109.2 36.3 C 109.2 36.34 109.2 39.9 109.2 39.9 L 108.2 39.9 L 108.2 33.9 L 109.2 33.9 L 109.2 34.8 Z M 114.1 33.9 L 115.2 33.9 L 116.3 39.1 L 116.3 39.1 L 117.6 33.9 L 119 33.9 L 120.3 39.1 L 120.3 39.1 L 121.5 33.9 L 122.5 33.9 L 120.9 39.9 L 119.6 39.9 L 118.3 34.8 L 118.3 34.8 L 116.9 39.9 L 115.6 39.9 L 114.1 33.9 Z M 126.8 36.5 C 126.8 34.7 126.3 34.5 125.6 34.5 C 125 34.5 124.5 34.8 124.5 36.5 C 124.5 36.5 126.8 36.5 126.8 36.5 Z M 124.5 37.2 C 124.5 38.9 124.9 39.2 125.7 39.2 C 126.4 39.2 126.7 38.7 126.7 38.1 C 126.7 38.1 127.8 38.1 127.8 38.1 C 127.8 39.4 127 40 125.7 40 C 124.4 40 123.4 39.7 123.4 37 C 123.4 35.2 123.6 33.7 125.7 33.7 C 127.4 33.7 127.9 34.7 127.9 36.7 C 127.87 36.69 127.9 37.2 127.9 37.2 C 127.9 37.2 124.46 37.21 124.5 37.2 Z M 130.5 39.9 L 129.5 39.9 L 129.5 33.9 L 130.5 33.9 L 130.5 39.9 Z M 129.4 31.3 L 130.5 31.3 L 130.5 32.3 L 129.4 32.3 L 129.4 31.3 Z M 134.2 34.6 C 133.1 34.6 133.1 35.9 133.1 36.7 C 133.1 38.6 133.5 39.1 134.2 39.1 C 135.4 39.1 135.4 37.7 135.4 36.9 C 135.4 36 135.5 34.6 134.2 34.6 Z M 135.4 33.9 L 136.4 33.9 C 136.4 33.9 136.35 40.53 136.4 40.5 C 136.4 41.9 135.5 42.2 134.1 42.2 C 133.1 42.2 132.2 41.7 132.3 40.6 C 132.3 40.6 133.4 40.6 133.4 40.6 C 133.4 41.2 133.8 41.5 134.3 41.5 C 135 41.5 135.4 41 135.4 40.4 C 135.37 40.43 135.4 39.2 135.4 39.2 C 135.4 39.2 135.33 39.17 135.3 39.2 C 135.1 39.6 134.5 39.9 134 39.9 C 132.4 39.9 132 38.5 132 36.7 C 132 33.9 133.4 33.7 133.9 33.7 C 134.6 33.7 135.1 34 135.3 34.6 C 135.35 34.6 135.4 34.6 135.4 34.6 L 135.4 33.9 Z M 141.5 39.9 C 141.5 39.9 141.45 35.82 141.5 35.8 C 141.5 35.1 141.2 34.5 140.4 34.5 C 139.4 34.5 139.1 35.3 139.1 36.4 C 139.14 36.36 139.1 39.9 139.1 39.9 L 138.2 39.9 L 138.2 31.3 L 139.1 31.3 L 139.1 34.6 C 139.1 34.6 139.19 34.64 139.2 34.6 C 139.6 33.9 140 33.7 140.8 33.7 C 141.9 33.7 142.4 34.3 142.4 35.6 C 142.44 35.62 142.4 39.9 142.4 39.9 L 141.5 39.9 Z M 144.3 33.9 L 144.3 32.7 L 145.3 32.3 L 145.3 33.9 L 146.6 33.9 L 146.6 34.6 L 145.3 34.6 C 145.3 34.6 145.26 38.31 145.3 38.3 C 145.3 38.7 145.3 39.2 146.2 39.2 C 146.2 39.2 146.4 39.2 146.6 39.1 C 146.6 39.1 146.6 39.9 146.6 39.9 C 146.3 39.9 146 40 145.6 40 C 144.7 40 144.3 39.6 144.3 38.9 C 144.27 38.91 144.3 34.6 144.3 34.6 L 143.3 34.6 L 143.3 33.9 L 144.3 33.9 Z M 151.1 39.9 L 150.2 39.9 L 150.2 31.3 L 151.1 31.3 L 151.1 36.5 L 151.2 36.5 L 153 33.9 L 154.2 33.9 L 152.2 36.5 L 154.6 39.9 L 153.3 39.9 L 151.2 36.5 L 151.1 36.5 L 151.1 39.9 Z M 156.5 39.9 L 155.5 39.9 L 155.5 33.9 L 156.5 33.9 L 156.5 39.9 Z M 155.4 31.3 L 156.5 31.3 L 156.5 32.3 L 155.4 32.3 L 155.4 31.3 Z M 161.4 39.9 C 161.4 39.9 161.45 35.72 161.4 35.7 C 161.4 35.1 161.2 34.5 160.4 34.5 C 159.3 34.5 159.1 35.5 159.1 36.3 C 159.14 36.33 159.1 39.9 159.1 39.9 L 158.2 39.9 C 158.2 39.9 158.16 35.12 158.2 35.1 C 158.2 34.7 158.1 34.3 158.1 33.9 C 158.1 33.86 159.1 33.9 159.1 33.9 L 159.1 34.6 C 159.1 34.6 159.19 34.64 159.2 34.6 C 159.6 34 160 33.7 160.8 33.7 C 162.1 33.7 162.4 34.5 162.4 35.7 C 162.43 35.72 162.4 39.9 162.4 39.9 L 161.4 39.9 Z M 165.1 39.9 L 164.1 39.9 L 164.1 33.9 L 165.1 33.9 L 165.1 39.9 Z M 164.1 31.3 L 165.2 31.3 L 165.2 32.3 L 164.1 32.3 L 164.1 31.3 Z M 170.1 39.9 C 170.1 39.9 170.11 35.72 170.1 35.7 C 170.1 35.1 169.9 34.5 169 34.5 C 168 34.5 167.8 35.5 167.8 36.3 C 167.8 36.33 167.8 39.9 167.8 39.9 L 166.8 39.9 C 166.8 39.9 166.82 35.12 166.8 35.1 C 166.8 34.7 166.8 34.3 166.8 33.9 C 166.76 33.86 167.8 33.9 167.8 33.9 L 167.8 34.6 C 167.8 34.6 167.85 34.64 167.9 34.6 C 168.2 34 168.7 33.7 169.5 33.7 C 170.8 33.7 171.1 34.5 171.1 35.7 C 171.09 35.72 171.1 39.9 171.1 39.9 L 170.1 39.9 Z M 176.2 36.6 C 176.2 34.9 175.7 34.5 175 34.5 C 174.2 34.5 173.7 34.9 173.7 36.6 C 173.7 38.5 173.9 39.2 175 39.2 C 176 39.2 176.2 38.5 176.2 36.6 Z M 172.7 37 C 172.7 35.2 172.9 33.7 175 33.7 C 177.1 33.7 177.3 35.2 177.3 37 C 177.3 39.7 176.2 40 175 40 C 173.7 40 172.7 39.7 172.7 37 Z M 180.9 34.6 C 179.8 34.6 179.7 35.9 179.7 36.7 C 179.7 38.6 180.2 39.1 180.9 39.1 C 182.1 39.1 182 37.7 182 36.9 C 182 36 182.1 34.6 180.9 34.6 Z M 182 33.9 L 183 33.9 C 183 33.9 183.01 40.53 183 40.5 C 183 41.9 182.1 42.2 180.8 42.2 C 179.8 42.2 178.9 41.7 178.9 40.6 C 178.9 40.6 180 40.6 180 40.6 C 180.1 41.2 180.4 41.5 181 41.5 C 181.7 41.5 182 41 182 40.4 C 182.03 40.43 182 39.2 182 39.2 C 182 39.2 181.99 39.17 182 39.2 C 181.7 39.6 181.2 39.9 180.7 39.9 C 179 39.9 178.7 38.5 178.7 36.7 C 178.7 33.9 180.1 33.7 180.6 33.7 C 181.2 33.7 181.7 34 182 34.6 C 182 34.6 182 34.6 182 34.6 L 182 33.9 Z M 188.1 36.5 C 188.1 34.7 187.7 34.5 186.9 34.5 C 186.3 34.5 185.8 34.8 185.8 36.5 C 185.8 36.5 188.1 36.5 188.1 36.5 Z M 185.8 37.2 C 185.8 38.9 186.2 39.2 187 39.2 C 187.7 39.2 188 38.7 188.1 38.1 C 188.1 38.1 189.1 38.1 189.1 38.1 C 189.1 39.4 188.3 40 187 40 C 185.7 40 184.7 39.7 184.7 37 C 184.7 35.2 184.9 33.7 187 33.7 C 188.8 33.7 189.2 34.7 189.2 36.7 C 189.19 36.69 189.2 37.2 189.2 37.2 C 189.2 37.2 185.78 37.21 185.8 37.2 Z M 194.1 39.9 C 194.1 39.9 194.11 35.72 194.1 35.7 C 194.1 35.1 193.9 34.5 193 34.5 C 192 34.5 191.8 35.5 191.8 36.3 C 191.8 36.33 191.8 39.9 191.8 39.9 L 190.8 39.9 C 190.8 39.9 190.82 35.12 190.8 35.1 C 190.8 34.7 190.8 34.3 190.8 33.9 C 190.76 33.86 191.8 33.9 191.8 33.9 L 191.8 34.6 C 191.8 34.6 191.85 34.64 191.9 34.6 C 192.2 34 192.7 33.7 193.5 33.7 C 194.8 33.7 195.1 34.5 195.1 35.7 C 195.09 35.72 195.1 39.9 195.1 39.9 L 194.1 39.9 Z M 197 38.7 L 198.2 38.7 L 197.1 41.4 L 196.4 41.4 L 197 38.7 Z M 197.9 35.1 L 196.7 35.1 L 196.7 33.9 L 197.9 33.9 L 197.9 35.1 Z M 203.3 39.9 L 202.3 39.9 L 202.3 31.3 L 204.1 31.3 L 206.2 38.5 L 206.3 38.5 L 208.5 31.3 L 210.3 31.3 L 210.3 39.9 L 209.2 39.9 L 209.2 32.2 L 209.2 32.2 L 206.7 39.9 L 205.7 39.9 L 203.3 32.2 L 203.3 32.2 L 203.3 39.9 Z M 215.6 36.6 C 215.6 34.9 215 34.5 214.3 34.5 C 213.5 34.5 213 34.9 213 36.6 C 213 38.5 213.3 39.2 214.3 39.2 C 215.3 39.2 215.6 38.5 215.6 36.6 Z M 212 37 C 212 35.2 212.2 33.7 214.3 33.7 C 216.4 33.7 216.6 35.2 216.6 37 C 216.6 39.7 215.6 40 214.3 40 C 213 40 212 39.7 212 37 Z M 220.2 31.3 L 221.6 31.3 L 224.4 39.9 L 223.2 39.9 L 222.6 37.9 L 219.2 37.9 L 218.6 39.9 L 217.5 39.9 L 220.2 31.3 Z M 220.9 32.3 L 220.9 32.3 L 219.5 36.9 L 222.3 36.9 L 220.9 32.3 Z M 225.6 38.7 L 226.9 38.7 L 225.8 41.4 L 225 41.4 L 225.6 38.7 Z M 233.8 39.9 C 233.8 39.9 233.78 35.72 233.8 35.7 C 233.8 35.1 233.6 34.5 232.8 34.5 C 232.5 34.5 232.1 34.7 232 35 C 231.8 35.3 231.7 35.6 231.7 35.8 C 231.74 35.84 231.7 39.9 231.7 39.9 L 230.8 39.9 C 230.8 39.9 230.76 35.12 230.8 35.1 C 230.8 34.7 230.7 34.3 230.7 33.9 C 230.7 33.86 231.7 33.9 231.7 33.9 L 231.7 34.6 C 231.7 34.6 231.76 34.62 231.8 34.6 C 232.1 34 232.6 33.7 233.3 33.7 C 233.8 33.7 234.5 34 234.7 34.5 C 235 33.9 235.6 33.7 236.1 33.7 C 236.8 33.7 237.8 33.9 237.8 35.3 C 237.79 35.31 237.8 39.9 237.8 39.9 L 236.8 39.9 C 236.8 39.9 236.8 35.72 236.8 35.7 C 236.8 35.1 236.6 34.5 235.8 34.5 C 235.5 34.5 235.4 34.6 235.1 34.8 C 234.8 35 234.8 35.6 234.8 35.8 C 234.76 35.84 234.8 39.9 234.8 39.9 L 233.8 39.9 Z M 242.8 36.5 C 242.8 34.7 242.3 34.5 241.6 34.5 C 241 34.5 240.4 34.8 240.4 36.5 C 240.4 36.5 242.8 36.5 242.8 36.5 Z M 240.4 37.2 C 240.4 38.9 240.9 39.2 241.7 39.2 C 242.3 39.2 242.7 38.7 242.7 38.1 C 242.7 38.1 243.8 38.1 243.8 38.1 C 243.8 39.4 242.9 40 241.7 40 C 240.4 40 239.4 39.7 239.4 37 C 239.4 35.2 239.6 33.7 241.7 33.7 C 243.4 33.7 243.8 34.7 243.8 36.7 C 243.84 36.69 243.8 37.2 243.8 37.2 C 243.8 37.2 240.43 37.21 240.4 37.2 Z M 248.6 35.8 C 248.7 34.8 248.2 34.5 247.8 34.5 C 247 34.5 246.5 34.9 246.5 36.6 C 246.5 38.5 246.8 39.2 247.8 39.2 C 248 39.2 248.7 39 248.7 37.9 C 248.7 37.9 249.7 37.9 249.7 37.9 C 249.7 39.6 248.5 40 247.8 40 C 246.5 40 245.5 39.7 245.5 37 C 245.5 35.2 245.7 33.7 247.8 33.7 C 249 33.7 249.7 34.4 249.7 35.8 C 249.7 35.8 248.6 35.8 248.6 35.8 Z M 254.8 39.9 C 254.8 39.9 254.76 35.82 254.8 35.8 C 254.8 35.1 254.5 34.5 253.7 34.5 C 252.7 34.5 252.4 35.3 252.4 36.4 C 252.44 36.36 252.4 39.9 252.4 39.9 L 251.5 39.9 L 251.5 31.3 L 252.4 31.3 L 252.4 34.6 C 252.4 34.6 252.49 34.64 252.5 34.6 C 252.9 33.9 253.3 33.7 254.1 33.7 C 255.2 33.7 255.7 34.3 255.7 35.6 C 255.74 35.62 255.7 39.9 255.7 39.9 L 254.8 39.9 Z M 258.4 38.1 C 258.4 38.7 258.7 39.2 259.3 39.2 C 259.9 39.2 260.7 38.9 260.6 36.9 C 259.6 36.9 258.4 36.8 258.4 38.1 Z M 260.6 39 C 260.6 39 260.56 39.05 260.6 39 C 260.3 39.7 259.8 40 259 40 C 257.8 40 257.4 39.2 257.4 38 C 257.4 36.2 259.2 36.1 260.6 36.2 C 260.6 35.4 260.6 34.5 259.5 34.5 C 258.9 34.5 258.5 34.9 258.6 35.6 C 258.6 35.6 257.5 35.6 257.5 35.6 C 257.6 34.2 258.3 33.7 259.6 33.7 C 261.1 33.7 261.5 34.5 261.5 35.6 C 261.5 35.6 261.5 38.5 261.5 38.5 C 261.5 39 261.6 39.5 261.7 39.9 C 261.67 39.92 260.6 39.9 260.6 39.9 L 260.6 39 Z M 266.8 39.9 C 266.8 39.9 266.76 35.72 266.8 35.7 C 266.8 35.1 266.5 34.5 265.7 34.5 C 264.6 34.5 264.5 35.5 264.5 36.3 C 264.45 36.33 264.5 39.9 264.5 39.9 L 263.5 39.9 C 263.5 39.9 263.47 35.12 263.5 35.1 C 263.5 34.7 263.4 34.3 263.4 33.9 C 263.41 33.86 264.5 33.9 264.5 33.9 L 264.5 34.6 C 264.5 34.6 264.5 34.64 264.5 34.6 C 264.9 34 265.3 33.7 266.1 33.7 C 267.4 33.7 267.7 34.5 267.7 35.7 C 267.74 35.72 267.7 39.9 267.7 39.9 L 266.8 39.9 Z M 270.4 39.9 L 269.4 39.9 L 269.4 33.9 L 270.4 33.9 L 270.4 39.9 Z M 269.4 31.3 L 270.5 31.3 L 270.5 32.3 L 269.4 32.3 L 269.4 31.3 Z M 273.9 40 C 272.6 40 271.8 39.5 271.8 38.1 C 271.8 38.1 272.9 38.1 272.9 38.1 C 272.9 38.4 273 39.2 274 39.2 C 274.5 39.2 275 38.9 275 38.3 C 275 37.2 272 37.2 272 35.4 C 272 34.8 272.4 33.7 274.1 33.7 C 275.1 33.7 276.1 34.3 276 35.5 C 276 35.5 274.9 35.5 274.9 35.5 C 274.9 34.8 274.6 34.5 273.9 34.5 C 273.4 34.5 273 34.8 273 35.3 C 273 36.4 276 36.3 276 38.2 C 276 39.5 275.1 40 273.9 40 Z M 280.4 39.9 C 280.4 39.9 280.44 35.72 280.4 35.7 C 280.4 35.1 280.3 34.5 279.5 34.5 C 279.2 34.5 278.8 34.7 278.6 35 C 278.4 35.3 278.4 35.6 278.4 35.8 C 278.39 35.84 278.4 39.9 278.4 39.9 L 277.4 39.9 C 277.4 39.9 277.41 35.12 277.4 35.1 C 277.4 34.7 277.4 34.3 277.4 33.9 C 277.35 33.86 278.4 33.9 278.4 33.9 L 278.4 34.6 C 278.4 34.6 278.42 34.62 278.4 34.6 C 278.7 34 279.2 33.7 279.9 33.7 C 280.5 33.7 281.1 34 281.3 34.5 C 281.7 33.9 282.2 33.7 282.8 33.7 C 283.4 33.7 284.4 33.9 284.4 35.3 C 284.44 35.31 284.4 39.9 284.4 39.9 L 283.5 39.9 C 283.5 39.9 283.46 35.72 283.5 35.7 C 283.5 35.1 283.3 34.5 282.5 34.5 C 282.1 34.5 282 34.6 281.8 34.8 C 281.5 35 281.4 35.6 281.4 35.8 C 281.42 35.84 281.4 39.9 281.4 39.9 L 280.4 39.9 Z M 292.2 36.6 C 292.2 34.9 291.7 34.5 290.9 34.5 C 290.2 34.5 289.7 34.9 289.7 36.6 C 289.7 38.5 289.9 39.2 290.9 39.2 C 291.9 39.2 292.2 38.5 292.2 36.6 Z M 288.6 37 C 288.6 35.2 288.8 33.7 290.9 33.7 C 293 33.7 293.2 35.2 293.2 37 C 293.2 39.7 292.2 40 290.9 40 C 289.6 40 288.6 39.7 288.6 37 Z M 295 33.9 C 295 33.9 294.97 32.69 295 32.7 C 295 31.5 295.8 31.2 296.7 31.2 C 296.9 31.2 297 31.2 297.2 31.3 C 297.2 31.3 297.2 32 297.2 32 C 296.1 31.9 296 32.3 296 32.8 C 295.95 32.83 296 33.9 296 33.9 L 297.2 33.9 L 297.2 34.6 L 296 34.6 L 296 39.9 L 295 39.9 L 295 34.6 L 294 34.6 L 294 33.9 L 295 33.9 Z M 301.7 38.1 C 301.7 38.7 302 39.2 302.6 39.2 C 303.2 39.2 304 38.9 303.9 36.9 C 302.9 36.9 301.7 36.8 301.7 38.1 Z M 303.9 39 C 303.9 39 303.88 39.05 303.9 39 C 303.6 39.7 303.1 40 302.4 40 C 301.1 40 300.7 39.2 300.7 38 C 300.7 36.2 302.5 36.1 303.9 36.2 C 303.9 35.4 303.9 34.5 302.9 34.5 C 302.2 34.5 301.9 34.9 301.9 35.6 C 301.9 35.6 300.8 35.6 300.8 35.6 C 300.9 34.2 301.6 33.7 302.9 33.7 C 304.5 33.7 304.9 34.5 304.9 35.6 C 304.9 35.6 304.9 38.5 304.9 38.5 C 304.9 39 304.9 39.5 305 39.9 C 304.99 39.92 303.9 39.9 303.9 39.9 L 303.9 39 Z M 310 35.8 C 310 34.8 309.5 34.5 309.1 34.5 C 308.4 34.5 307.8 34.9 307.8 36.6 C 307.8 38.5 308.1 39.2 309.1 39.2 C 309.3 39.2 310 39 310 37.9 C 310 37.9 311 37.9 311 37.9 C 311.1 39.6 309.8 40 309.1 40 C 307.8 40 306.8 39.7 306.8 37 C 306.8 35.2 307 33.7 309.1 33.7 C 310.3 33.7 311 34.4 311 35.8 C 311 35.8 310 35.8 310 35.8 Z M 312.9 33.9 L 312.9 32.7 L 313.9 32.3 L 313.9 33.9 L 315.2 33.9 L 315.2 34.6 L 313.9 34.6 C 313.9 34.6 313.88 38.31 313.9 38.3 C 313.9 38.7 313.9 39.2 314.8 39.2 C 314.9 39.2 315 39.2 315.2 39.1 C 315.2 39.1 315.2 39.9 315.2 39.9 C 314.9 39.9 314.6 40 314.3 40 C 313.3 40 312.9 39.6 312.9 38.9 C 312.9 38.91 312.9 34.6 312.9 34.6 L 311.9 34.6 L 311.9 33.9 L 312.9 33.9 Z M 317.1 39.9 L 316.1 39.9 L 316.1 33.9 L 317.1 33.9 L 317.1 39.9 Z M 316 31.3 L 317.1 31.3 L 317.1 32.3 L 316 32.3 L 316 31.3 Z M 322.2 36.6 C 322.2 34.9 321.7 34.5 320.9 34.5 C 320.2 34.5 319.7 34.9 319.7 36.6 C 319.7 38.5 319.9 39.2 320.9 39.2 C 321.9 39.2 322.2 38.5 322.2 36.6 Z M 318.6 37 C 318.6 35.2 318.8 33.7 320.9 33.7 C 323 33.7 323.2 35.2 323.2 37 C 323.2 39.7 322.2 40 320.9 40 C 319.6 40 318.6 39.7 318.6 37 Z M 328.1 39.9 C 328.1 39.9 328.08 35.72 328.1 35.7 C 328.1 35.1 327.8 34.5 327 34.5 C 325.9 34.5 325.8 35.5 325.8 36.3 C 325.77 36.33 325.8 39.9 325.8 39.9 L 324.8 39.9 C 324.8 39.9 324.79 35.12 324.8 35.1 C 324.8 34.7 324.8 34.3 324.7 33.9 C 324.73 33.86 325.8 33.9 325.8 33.9 L 325.8 34.6 C 325.8 34.6 325.82 34.64 325.8 34.6 C 326.2 34 326.7 33.7 327.4 33.7 C 328.7 33.7 329.1 34.5 329.1 35.7 C 329.06 35.72 329.1 39.9 329.1 39.9 L 328.1 39.9 Z M 331.8 39.9 L 330.7 39.9 L 330.7 38.7 L 331.8 38.7 L 331.8 39.9 Z " stroke="none" fill="#555555"/>  </g>  <g id="Polygon192626">    <path d="M 0.1 25.5 L 2.5 16.9 L 4.9 16.9 L 7.2 25.5 L 5.3 25.5 L 4.8 23.6 L 2.4 23.6 L 1.9 25.5 L 0.1 25.5 Z M 3.6 18.5 L 3.6 18.5 L 2.7 22.3 L 4.5 22.3 L 3.6 18.5 Z M 11.1 22.4 C 11.1 21.2 11.1 20.4 10.4 20.4 C 9.7 20.4 9.7 21.2 9.7 22.4 C 9.7 24 9.8 24.6 10.4 24.6 C 11 24.6 11.1 24 11.1 22.4 Z M 8 16.9 L 9.7 16.9 L 9.7 20 C 9.7 20 9.72 20.04 9.7 20 C 10.1 19.5 10.5 19.3 11.1 19.3 C 12.8 19.3 12.8 21.2 12.8 22.4 C 12.8 23.7 12.8 25.6 11.1 25.6 C 10.4 25.6 9.9 25.4 9.6 24.8 C 9.64 24.85 9.6 24.8 9.6 24.8 L 9.6 25.5 L 8 25.5 L 8 16.9 Z M 17.1 22.4 C 17.1 21.2 17.1 20.4 16.4 20.4 C 15.7 20.4 15.7 21.2 15.7 22.4 C 15.7 24 15.8 24.6 16.4 24.6 C 17 24.6 17.1 24 17.1 22.4 Z M 14 16.9 L 15.7 16.9 L 15.7 20 C 15.7 20 15.72 20.04 15.7 20 C 16.1 19.5 16.5 19.3 17.1 19.3 C 18.8 19.3 18.8 21.2 18.8 22.4 C 18.8 23.7 18.8 25.6 17.1 25.6 C 16.4 25.6 15.9 25.4 15.6 24.8 C 15.64 24.85 15.6 24.8 15.6 24.8 L 15.6 25.5 L 14 25.5 L 14 16.9 Z M 21.6 19.5 L 21.6 20.2 C 21.6 20.2 21.64 20.24 21.6 20.2 C 21.9 19.5 22.5 19.3 23.2 19.3 C 23.2 19.3 23.2 20.9 23.2 20.9 C 21.7 20.8 21.7 21.6 21.7 22.2 C 21.7 22.22 21.7 25.5 21.7 25.5 L 20 25.5 L 20 19.5 L 21.6 19.5 Z M 27.1 21.8 C 27.1 21.2 27.1 20.4 26.3 20.4 C 25.5 20.4 25.6 21.3 25.6 21.8 C 25.6 21.8 27.1 21.8 27.1 21.8 Z M 25.6 22.8 C 25.6 23.5 25.6 24.6 26.3 24.6 C 26.9 24.6 27 24 27 23.5 C 27 23.5 28.8 23.5 28.8 23.5 C 28.7 24.1 28.5 24.7 28.1 25.1 C 27.7 25.4 27.1 25.6 26.3 25.6 C 24.1 25.6 23.9 24.3 23.9 22.4 C 23.9 20.8 24.1 19.3 26.3 19.3 C 28.6 19.3 28.9 20.8 28.8 22.8 C 28.8 22.8 25.6 22.8 25.6 22.8 Z M 29.4 19.5 L 31.1 19.5 L 32 24 L 32 24 L 32.9 19.5 L 34.6 19.5 L 32.9 25.5 L 31 25.5 L 29.4 19.5 Z M 37.2 25.5 L 35.5 25.5 L 35.5 19.5 L 37.2 19.5 L 37.2 25.5 Z M 37.2 16.9 L 37.2 18.2 L 35.5 18.2 L 35.5 16.9 L 37.2 16.9 Z M 40.1 23.6 C 40.1 24.1 40.2 24.6 40.8 24.6 C 41.8 24.6 41.6 23.3 41.6 22.6 C 40.8 22.6 40.1 22.6 40.1 23.6 Z M 43.3 24.4 C 43.3 24.8 43.3 25.1 43.3 25.5 C 43.34 25.52 41.8 25.5 41.8 25.5 L 41.7 24.7 C 41.7 24.7 41.68 24.72 41.7 24.7 C 41.3 25.3 40.8 25.6 40.1 25.6 C 38.9 25.6 38.5 24.8 38.5 23.7 C 38.5 21.7 40 21.6 41.6 21.6 C 41.6 21.6 41.6 21.2 41.6 21.2 C 41.6 20.7 41.5 20.3 40.9 20.3 C 40.3 20.3 40.3 20.7 40.3 21.2 C 40.3 21.2 38.6 21.2 38.6 21.2 C 38.6 20.5 38.9 20 39.3 19.7 C 39.6 19.4 40.2 19.3 40.8 19.3 C 43 19.3 43.3 20.3 43.3 21.4 C 43.3 21.4 43.3 24.4 43.3 24.4 Z M 44 19.5 L 44.7 19.5 L 44.7 18.5 L 46.4 17.7 L 46.4 19.5 L 47.2 19.5 L 47.2 20.5 L 46.4 20.5 C 46.4 20.5 46.35 23.75 46.4 23.7 C 46.4 24.2 46.3 24.5 46.9 24.5 C 47 24.5 47.1 24.5 47.2 24.5 C 47.2 24.5 47.2 25.5 47.2 25.5 C 47 25.5 46.7 25.6 46.3 25.6 C 44.9 25.6 44.7 24.6 44.7 24.2 C 44.66 24.24 44.7 20.5 44.7 20.5 L 44 20.5 L 44 19.5 Z M 49.8 25.5 L 48.1 25.5 L 48.1 19.5 L 49.8 19.5 L 49.8 25.5 Z M 49.8 16.9 L 49.8 18.2 L 48.1 18.2 L 48.1 16.9 L 49.8 16.9 Z M 54.4 22.3 C 54.4 21.1 54.4 20.4 53.7 20.4 C 52.9 20.4 52.9 21.1 52.9 22.3 C 52.9 24.2 53 24.6 53.7 24.6 C 54.3 24.6 54.4 24.2 54.4 22.3 Z M 51.2 22.4 C 51.2 20.8 51.4 19.3 53.7 19.3 C 55.9 19.3 56.1 20.8 56.1 22.4 C 56.1 24.3 55.8 25.6 53.7 25.6 C 51.5 25.6 51.2 24.3 51.2 22.4 Z M 59 20.1 C 59 20.1 59.05 20.07 59.1 20.1 C 59.2 19.8 59.4 19.6 59.7 19.5 C 59.9 19.4 60.2 19.3 60.5 19.3 C 61.3 19.3 62 19.8 62 20.7 C 61.99 20.66 62 25.5 62 25.5 L 60.3 25.5 C 60.3 25.5 60.3 21.34 60.3 21.3 C 60.3 20.8 60.2 20.4 59.7 20.4 C 59.1 20.4 59 20.8 59 21.3 C 59.03 21.34 59 25.5 59 25.5 L 57.3 25.5 L 57.3 19.5 L 59 19.5 L 59 20.1 Z M 64.7 23.6 C 64.7 23.9 64.7 24.1 64.8 24.3 C 64.8 24.5 65 24.6 65.4 24.6 C 65.7 24.6 66 24.4 66 24 C 66 22.7 63 23 63 21 C 63 19.7 64.3 19.3 65.4 19.3 C 66.6 19.3 67.6 19.9 67.5 21.2 C 67.5 21.2 65.8 21.2 65.8 21.2 C 65.8 20.8 65.8 20.5 65.7 20.4 C 65.6 20.3 65.4 20.3 65.2 20.3 C 64.9 20.3 64.7 20.5 64.7 20.9 C 64.7 21.9 67.6 21.8 67.6 23.8 C 67.6 24.8 66.8 25.6 65.4 25.6 C 63.9 25.6 62.9 25.3 63 23.6 C 63 23.6 64.7 23.6 64.7 23.6 Z M 70 19.5 L 70 21 L 68.6 21 L 68.6 19.5 L 70 19.5 Z M 70 25.5 L 68.6 25.5 L 68.6 23.9 L 70 23.9 L 70 25.5 Z M 78.1 19.2 C 78.1 18.8 78.1 18.3 77.9 18 C 77.6 17.7 77.1 17.6 76.9 17.6 C 76 17.6 75.6 18.2 75.6 18.3 C 75.5 18.4 75.3 18.6 75.3 20.1 C 75.3 20.1 75.3 22.4 75.3 22.4 C 75.3 24.5 76 24.8 76.9 24.8 C 77.2 24.8 78.2 24.7 78.2 23 C 78.2 23 79.4 23 79.4 23 C 79.4 25.7 77.5 25.7 76.9 25.7 C 75.9 25.7 74.2 25.6 74.2 22.3 C 74.2 22.3 74.2 19.8 74.2 19.8 C 74.2 17.4 75.3 16.7 77 16.7 C 78.7 16.7 79.4 17.6 79.2 19.2 C 79.2 19.2 78.1 19.2 78.1 19.2 Z M 83.5 25.5 L 82.4 25.5 L 82.4 18.4 L 81.1 19.2 C 81.1 19.2 81.11 18.19 81.1 18.2 C 81.4 18.1 82.2 17.5 82.5 17.2 C 82.51 17.19 83.5 17.2 83.5 17.2 L 83.5 25.5 Z M 86 21.8 L 88.6 21.8 L 88.6 22.7 L 86 22.7 L 86 21.8 Z M 91.5 25.5 L 90.4 25.5 L 90.4 16.9 L 91.5 16.9 L 91.5 25.5 Z M 99.6 16.9 L 99.6 25.5 L 98.1 25.5 L 94.7 18 L 94.7 18 L 94.7 25.5 L 93.7 25.5 L 93.7 16.9 L 95.2 16.9 L 98.6 24.3 L 98.6 24.3 L 98.6 16.9 L 99.6 16.9 Z M 101.7 25.5 L 101.7 16.9 L 102.8 16.9 L 102.8 20.6 L 105.8 20.6 L 105.8 16.9 L 106.9 16.9 L 106.9 25.5 L 105.8 25.5 L 105.8 21.6 L 102.8 21.6 L 102.8 25.5 L 101.7 25.5 Z M 109 24.3 L 110.3 24.3 L 109.2 27 L 108.4 27 L 109 24.3 Z M 118.1 19.2 C 118.1 18.8 118.1 18.3 117.9 18 C 117.6 17.7 117.1 17.6 116.9 17.6 C 116 17.6 115.6 18.2 115.6 18.3 C 115.5 18.4 115.3 18.6 115.3 20.1 C 115.3 20.1 115.3 22.4 115.3 22.4 C 115.3 24.5 116 24.8 116.9 24.8 C 117.2 24.8 118.2 24.7 118.2 23 C 118.2 23 119.4 23 119.4 23 C 119.4 25.7 117.5 25.7 116.9 25.7 C 115.8 25.7 114.2 25.6 114.2 22.3 C 114.2 22.3 114.2 19.8 114.2 19.8 C 114.2 17.4 115.3 16.7 117 16.7 C 118.7 16.7 119.3 17.6 119.2 19.2 C 119.2 19.2 118.1 19.2 118.1 19.2 Z M 123.5 25.5 L 122.4 25.5 L 122.4 18.4 L 121.1 19.2 C 121.1 19.2 121.1 18.19 121.1 18.2 C 121.4 18.1 122.2 17.5 122.5 17.2 C 122.51 17.19 123.5 17.2 123.5 17.2 L 123.5 25.5 Z M 126 21.8 L 128.6 21.8 L 128.6 22.7 L 126 22.7 L 126 21.8 Z M 133.5 22.1 C 133.5 20.3 133 20.1 132.3 20.1 C 131.7 20.1 131.1 20.4 131.1 22.1 C 131.1 22.1 133.5 22.1 133.5 22.1 Z M 131.1 22.8 C 131.1 24.5 131.6 24.8 132.4 24.8 C 133 24.8 133.4 24.3 133.4 23.7 C 133.4 23.7 134.5 23.7 134.5 23.7 C 134.5 25 133.7 25.6 132.4 25.6 C 131.1 25.6 130.1 25.3 130.1 22.6 C 130.1 20.8 130.3 19.3 132.4 19.3 C 134.1 19.3 134.5 20.3 134.5 22.3 C 134.54 22.29 134.5 22.8 134.5 22.8 C 134.5 22.8 131.13 22.81 131.1 22.8 Z M 138 25.6 C 136.7 25.6 135.8 25.1 135.9 23.7 C 135.9 23.7 137 23.7 137 23.7 C 137 24 137 24.8 138 24.8 C 138.6 24.8 139 24.5 139 23.9 C 139 22.8 136 22.8 136 21 C 136 20.4 136.4 19.3 138.1 19.3 C 139.2 19.3 140.1 19.9 140 21.1 C 140 21.1 138.9 21.1 138.9 21.1 C 138.9 20.4 138.6 20.1 138 20.1 C 137.5 20.1 137 20.4 137 20.9 C 137 22 140.1 21.9 140.1 23.8 C 140.1 25.1 139.2 25.6 138 25.6 Z M 141.6 19.5 L 141.6 18.3 L 142.6 17.9 L 142.6 19.5 L 143.9 19.5 L 143.9 20.2 L 142.6 20.2 C 142.6 20.2 142.59 23.91 142.6 23.9 C 142.6 24.3 142.6 24.8 143.5 24.8 C 143.6 24.8 143.7 24.8 143.9 24.7 C 143.9 24.7 143.9 25.5 143.9 25.5 C 143.6 25.5 143.3 25.6 143 25.6 C 142 25.6 141.6 25.2 141.6 24.5 C 141.61 24.51 141.6 20.2 141.6 20.2 L 140.6 20.2 L 140.6 19.5 L 141.6 19.5 Z M 148.2 22.1 C 148.2 20.3 147.7 20.1 146.9 20.1 C 146.3 20.1 145.8 20.4 145.8 22.1 C 145.8 22.1 148.2 22.1 148.2 22.1 Z M 145.8 22.8 C 145.8 24.5 146.3 24.8 147 24.8 C 147.7 24.8 148 24.3 148.1 23.7 C 148.1 23.7 149.2 23.7 149.2 23.7 C 149.1 25 148.3 25.6 147 25.6 C 145.8 25.6 144.7 25.3 144.7 22.6 C 144.7 20.8 144.9 19.3 147 19.3 C 148.8 19.3 149.2 20.3 149.2 22.3 C 149.21 22.29 149.2 22.8 149.2 22.8 C 149.2 22.8 145.8 22.81 145.8 22.8 Z M 151.9 20.4 C 151.9 20.4 151.88 20.37 151.9 20.4 C 152.3 19.4 152.8 19.3 153.8 19.3 C 153.8 19.3 153.8 20.4 153.8 20.4 C 153.7 20.3 153.6 20.3 153.5 20.3 C 153.4 20.3 153.3 20.3 153.2 20.3 C 152.1 20.3 151.9 21.1 151.9 21.9 C 151.86 21.94 151.9 25.5 151.9 25.5 L 150.9 25.5 L 150.9 19.5 L 151.9 19.5 L 151.9 20.4 Z M 155.7 23.7 C 155.7 24.3 156 24.8 156.7 24.8 C 157.3 24.8 158 24.5 157.9 22.5 C 157 22.5 155.7 22.4 155.7 23.7 Z M 158 24.6 C 158 24.6 157.93 24.65 157.9 24.6 C 157.6 25.3 157.2 25.6 156.4 25.6 C 155.1 25.6 154.8 24.8 154.8 23.6 C 154.8 21.8 156.5 21.7 157.9 21.8 C 158 21 158 20.1 156.9 20.1 C 156.2 20.1 155.9 20.5 156 21.2 C 156 21.2 154.9 21.2 154.9 21.2 C 154.9 19.8 155.7 19.3 156.9 19.3 C 158.5 19.3 158.9 20.1 158.9 21.2 C 158.9 21.2 158.9 24.1 158.9 24.1 C 158.9 24.6 159 25.1 159 25.5 C 159.03 25.52 158 25.5 158 25.5 L 158 24.6 Z M 162.6 25.6 C 161.3 25.6 160.5 25.1 160.5 23.7 C 160.5 23.7 161.6 23.7 161.6 23.7 C 161.6 24 161.7 24.8 162.7 24.8 C 163.2 24.8 163.7 24.5 163.7 23.9 C 163.7 22.8 160.7 22.8 160.7 21 C 160.7 20.4 161.1 19.3 162.8 19.3 C 163.8 19.3 164.8 19.9 164.7 21.1 C 164.7 21.1 163.6 21.1 163.6 21.1 C 163.6 20.4 163.3 20.1 162.6 20.1 C 162.1 20.1 161.7 20.4 161.7 20.9 C 161.7 22 164.7 21.9 164.7 23.8 C 164.7 25.1 163.8 25.6 162.6 25.6 Z M 169.5 22.1 C 169.5 20.3 169 20.1 168.3 20.1 C 167.6 20.1 167.1 20.4 167.1 22.1 C 167.1 22.1 169.5 22.1 169.5 22.1 Z M 167.1 22.8 C 167.1 24.5 167.6 24.8 168.3 24.8 C 169 24.8 169.4 24.3 169.4 23.7 C 169.4 23.7 170.5 23.7 170.5 23.7 C 170.5 25 169.6 25.6 168.4 25.6 C 167.1 25.6 166.1 25.3 166.1 22.6 C 166.1 20.8 166.3 19.3 168.4 19.3 C 170.1 19.3 170.5 20.3 170.5 22.3 C 170.53 22.29 170.5 22.8 170.5 22.8 C 170.5 22.8 167.12 22.81 167.1 22.8 Z M 175.8 25.5 L 174.8 25.5 L 174.8 19.5 L 175.8 19.5 L 175.8 25.5 Z M 174.7 16.9 L 175.8 16.9 L 175.8 17.9 L 174.7 17.9 L 174.7 16.9 Z M 180.8 25.5 C 180.8 25.5 180.78 21.32 180.8 21.3 C 180.8 20.7 180.5 20.1 179.7 20.1 C 178.6 20.1 178.5 21.1 178.5 21.9 C 178.47 21.93 178.5 25.5 178.5 25.5 L 177.5 25.5 C 177.5 25.5 177.49 20.72 177.5 20.7 C 177.5 20.3 177.5 19.9 177.4 19.5 C 177.43 19.46 178.5 19.5 178.5 19.5 L 178.5 20.2 C 178.5 20.2 178.52 20.24 178.5 20.2 C 178.9 19.6 179.4 19.3 180.1 19.3 C 181.4 19.3 181.8 20.1 181.8 21.3 C 181.76 21.32 181.8 25.5 181.8 25.5 L 180.8 25.5 Z M 186.8 25.5 C 186.8 25.5 186.78 21.42 186.8 21.4 C 186.8 20.7 186.5 20.1 185.7 20.1 C 184.7 20.1 184.5 20.9 184.5 22 C 184.46 21.96 184.5 25.5 184.5 25.5 L 183.5 25.5 L 183.5 16.9 L 184.5 16.9 L 184.5 20.2 C 184.5 20.2 184.51 20.24 184.5 20.2 C 184.9 19.5 185.4 19.3 186.2 19.3 C 187.2 19.3 187.8 19.9 187.8 21.2 C 187.76 21.22 187.8 25.5 187.8 25.5 L 186.8 25.5 Z M 190.4 25.5 L 189.5 25.5 L 189.5 19.5 L 190.4 19.5 L 190.4 25.5 Z M 189.4 16.9 L 190.5 16.9 L 190.5 17.9 L 189.4 17.9 L 189.4 16.9 Z M 194.3 24.8 C 195.6 24.8 195.6 23.5 195.6 22.6 C 195.6 21 195.4 20.1 194.4 20.1 C 193.3 20.1 193.2 21.4 193.2 22.2 C 193.2 23.2 193.1 24.8 194.3 24.8 Z M 193.2 25.5 L 192.2 25.5 L 192.2 16.9 L 193.2 16.9 L 193.2 20.1 C 193.2 20.1 193.26 20.07 193.3 20.1 C 193.6 19.6 194 19.3 194.6 19.3 C 196.5 19.3 196.6 21.1 196.6 22.6 C 196.6 25.3 195.6 25.6 194.6 25.6 C 194 25.6 193.6 25.4 193.2 24.8 C 193.24 24.8 193.2 24.8 193.2 24.8 L 193.2 25.5 Z M 199.1 25.5 L 198.1 25.5 L 198.1 19.5 L 199.1 19.5 L 199.1 25.5 Z M 198.1 16.9 L 199.2 16.9 L 199.2 17.9 L 198.1 17.9 L 198.1 16.9 Z M 200.9 19.5 L 200.9 18.3 L 201.9 17.9 L 201.9 19.5 L 203.2 19.5 L 203.2 20.2 L 201.9 20.2 C 201.9 20.2 201.91 23.91 201.9 23.9 C 201.9 24.3 201.9 24.8 202.8 24.8 C 202.9 24.8 203 24.8 203.3 24.7 C 203.3 24.7 203.3 25.5 203.3 25.5 C 202.9 25.5 202.6 25.6 202.3 25.6 C 201.3 25.6 200.9 25.2 200.9 24.5 C 200.93 24.51 200.9 20.2 200.9 20.2 L 199.9 20.2 L 199.9 19.5 L 200.9 19.5 Z M 207.6 22.2 C 207.6 20.5 207 20.1 206.3 20.1 C 205.5 20.1 205 20.5 205 22.2 C 205 24.1 205.3 24.8 206.3 24.8 C 207.3 24.8 207.6 24.1 207.6 22.2 Z M 204 22.6 C 204 20.8 204.2 19.3 206.3 19.3 C 208.4 19.3 208.6 20.8 208.6 22.6 C 208.6 25.3 207.6 25.6 206.3 25.6 C 205 25.6 204 25.3 204 22.6 Z M 211.2 20.4 C 211.2 20.4 211.2 20.37 211.2 20.4 C 211.6 19.4 212.1 19.3 213.1 19.3 C 213.1 19.3 213.1 20.4 213.1 20.4 C 213 20.3 212.9 20.3 212.8 20.3 C 212.7 20.3 212.6 20.3 212.5 20.3 C 211.4 20.3 211.2 21.1 211.2 21.9 C 211.17 21.94 211.2 25.5 211.2 25.5 L 210.2 25.5 L 210.2 19.5 L 211.2 19.5 L 211.2 20.4 Z M 214.3 24.3 L 215.6 24.3 L 214.5 27 L 213.7 27 L 214.3 24.3 Z M 215.2 20.7 L 214.1 20.7 L 214.1 19.5 L 215.2 19.5 L 215.2 20.7 Z M 219.5 25.5 L 219.5 16.9 L 223.8 16.9 L 223.8 17.8 L 220.6 17.8 L 220.6 20.6 L 223.6 20.6 L 223.6 21.6 L 220.6 21.6 L 220.6 25.5 L 219.5 25.5 Z M 230.5 25.5 L 229.1 25.5 L 227.1 21.8 L 225.2 25.5 L 224 25.5 L 226.5 21 L 224.1 16.9 L 225.4 16.9 L 227.2 20.2 L 229 16.9 L 230.2 16.9 L 227.9 21 L 230.5 25.5 Z M 232.8 25.5 L 231.7 25.5 L 231.7 16.9 L 232.8 16.9 L 232.8 25.5 Z M 236.2 25.5 L 235.1 25.5 L 235.1 16.9 L 236.2 16.9 L 236.2 25.5 Z M 239 23.7 C 239 24.3 239.3 24.8 240 24.8 C 240.6 24.8 241.3 24.5 241.2 22.5 C 240.3 22.5 239 22.4 239 23.7 Z M 241.3 24.6 C 241.3 24.6 241.24 24.65 241.2 24.6 C 240.9 25.3 240.5 25.6 239.7 25.6 C 238.4 25.6 238.1 24.8 238.1 23.6 C 238.1 21.8 239.9 21.7 241.2 21.8 C 241.3 21 241.3 20.1 240.2 20.1 C 239.6 20.1 239.2 20.5 239.3 21.2 C 239.3 21.2 238.2 21.2 238.2 21.2 C 238.3 19.8 239 19.3 240.3 19.3 C 241.8 19.3 242.2 20.1 242.2 21.2 C 242.2 21.2 242.2 24.1 242.2 24.1 C 242.2 24.6 242.3 25.1 242.3 25.5 C 242.35 25.52 241.3 25.5 241.3 25.5 L 241.3 24.6 Z M 244.3 24.3 L 245.6 24.3 L 244.5 27 L 243.7 27 L 244.3 24.3 Z M 250.4 23.7 C 250.4 24.3 250.7 24.8 251.3 24.8 C 251.9 24.8 252.7 24.5 252.6 22.5 C 251.6 22.5 250.4 22.4 250.4 23.7 Z M 252.6 24.6 C 252.6 24.6 252.57 24.65 252.6 24.6 C 252.3 25.3 251.8 25.6 251 25.6 C 249.8 25.6 249.4 24.8 249.4 23.6 C 249.4 21.8 251.2 21.7 252.6 21.8 C 252.6 21 252.6 20.1 251.6 20.1 C 250.9 20.1 250.5 20.5 250.6 21.2 C 250.6 21.2 249.5 21.2 249.5 21.2 C 249.6 19.8 250.3 19.3 251.6 19.3 C 253.1 19.3 253.6 20.1 253.6 21.2 C 253.6 21.2 253.6 24.1 253.6 24.1 C 253.6 24.6 253.6 25.1 253.7 25.5 C 253.68 25.52 252.6 25.5 252.6 25.5 L 252.6 24.6 Z M 258.6 21.4 C 258.7 20.4 258.2 20.1 257.8 20.1 C 257 20.1 256.5 20.5 256.5 22.2 C 256.5 24.1 256.8 24.8 257.8 24.8 C 258 24.8 258.7 24.6 258.7 23.5 C 258.7 23.5 259.7 23.5 259.7 23.5 C 259.7 25.2 258.5 25.6 257.8 25.6 C 256.5 25.6 255.5 25.3 255.5 22.6 C 255.5 20.8 255.7 19.3 257.8 19.3 C 259 19.3 259.7 20 259.7 21.4 C 259.7 21.4 258.6 21.4 258.6 21.4 Z M 261.6 19.5 L 261.6 18.3 L 262.6 17.9 L 262.6 19.5 L 263.9 19.5 L 263.9 20.2 L 262.6 20.2 C 262.6 20.2 262.57 23.91 262.6 23.9 C 262.6 24.3 262.6 24.8 263.5 24.8 C 263.5 24.8 263.7 24.8 263.9 24.7 C 263.9 24.7 263.9 25.5 263.9 25.5 C 263.6 25.5 263.3 25.6 262.9 25.6 C 262 25.6 261.6 25.2 261.6 24.5 C 261.58 24.51 261.6 20.2 261.6 20.2 L 260.6 20.2 L 260.6 19.5 L 261.6 19.5 Z M 265.8 25.5 L 264.8 25.5 L 264.8 19.5 L 265.8 19.5 L 265.8 25.5 Z M 264.7 16.9 L 265.8 16.9 L 265.8 17.9 L 264.7 17.9 L 264.7 16.9 Z M 266.8 19.5 L 267.9 19.5 L 269.2 24.6 L 269.3 24.6 L 270.7 19.5 L 271.8 19.5 L 269.9 25.5 L 268.6 25.5 L 266.8 19.5 Z M 273.7 23.7 C 273.7 24.3 274 24.8 274.7 24.8 C 275.3 24.8 276 24.5 275.9 22.5 C 275 22.5 273.7 22.4 273.7 23.7 Z M 275.9 24.6 C 275.9 24.6 275.9 24.65 275.9 24.6 C 275.6 25.3 275.1 25.6 274.4 25.6 C 273.1 25.6 272.7 24.8 272.7 23.6 C 272.7 21.8 274.5 21.7 275.9 21.8 C 275.9 21 275.9 20.1 274.9 20.1 C 274.2 20.1 273.9 20.5 273.9 21.2 C 273.9 21.2 272.9 21.2 272.9 21.2 C 272.9 19.8 273.6 19.3 274.9 19.3 C 276.5 19.3 276.9 20.1 276.9 21.2 C 276.9 21.2 276.9 24.1 276.9 24.1 C 276.9 24.6 276.9 25.1 277 25.5 C 277 25.52 275.9 25.5 275.9 25.5 L 275.9 24.6 Z M 278.9 19.5 L 278.9 18.3 L 279.9 17.9 L 279.9 19.5 L 281.2 19.5 L 281.2 20.2 L 279.9 20.2 C 279.9 20.2 279.89 23.91 279.9 23.9 C 279.9 24.3 279.9 24.8 280.8 24.8 C 280.9 24.8 281 24.8 281.2 24.7 C 281.2 24.7 281.2 25.5 281.2 25.5 C 280.9 25.5 280.6 25.6 280.3 25.6 C 279.3 25.6 278.9 25.2 278.9 24.5 C 278.91 24.51 278.9 20.2 278.9 20.2 L 277.9 20.2 L 277.9 19.5 L 278.9 19.5 Z M 285.5 22.1 C 285.5 20.3 285 20.1 284.3 20.1 C 283.6 20.1 283.1 20.4 283.1 22.1 C 283.1 22.1 285.5 22.1 285.5 22.1 Z M 283.1 22.8 C 283.1 24.5 283.6 24.8 284.3 24.8 C 285 24.8 285.3 24.3 285.4 23.7 C 285.4 23.7 286.5 23.7 286.5 23.7 C 286.4 25 285.6 25.6 284.3 25.6 C 283.1 25.6 282 25.3 282 22.6 C 282 20.8 282.2 19.3 284.3 19.3 C 286.1 19.3 286.5 20.3 286.5 22.3 C 286.51 22.29 286.5 22.8 286.5 22.8 C 286.5 22.8 283.1 22.81 283.1 22.8 Z M 290.2 20.1 C 289.1 20.1 289 21 289 22.6 C 289 23.5 289 24.8 290.2 24.8 C 291.3 24.8 291.3 23.5 291.3 22.2 C 291.3 21.4 291.3 20.1 290.2 20.1 Z M 291.3 16.9 L 292.3 16.9 L 292.3 25.5 L 291.3 25.5 L 291.3 24.8 C 291.3 24.8 291.32 24.8 291.3 24.8 C 291 25.4 290.6 25.6 289.9 25.6 C 289 25.6 288 25.3 288 22.6 C 288 21.1 288 19.3 290 19.3 C 290.6 19.3 291 19.6 291.3 20.1 C 291.31 20.07 291.3 20.1 291.3 20.1 L 291.3 16.9 Z M 296.8 25.5 L 296.8 16.9 L 301.1 16.9 L 301.1 17.8 L 297.9 17.8 L 297.9 20.6 L 301 20.6 L 301 21.6 L 297.9 21.6 L 297.9 25.5 L 296.8 25.5 Z M 303 23.7 C 303 24.3 303.3 24.8 304 24.8 C 304.6 24.8 305.3 24.5 305.2 22.5 C 304.3 22.5 303 22.4 303 23.7 Z M 305.3 24.6 C 305.3 24.6 305.23 24.65 305.2 24.6 C 304.9 25.3 304.5 25.6 303.7 25.6 C 302.4 25.6 302 24.8 302 23.6 C 302 21.8 303.8 21.7 305.2 21.8 C 305.3 21 305.3 20.1 304.2 20.1 C 303.5 20.1 303.2 20.5 303.3 21.2 C 303.3 21.2 302.2 21.2 302.2 21.2 C 302.2 19.8 303 19.3 304.2 19.3 C 305.8 19.3 306.2 20.1 306.2 21.2 C 306.2 21.2 306.2 24.1 306.2 24.1 C 306.2 24.6 306.3 25.1 306.3 25.5 C 306.33 25.52 305.3 25.5 305.3 25.5 L 305.3 24.6 Z M 311.3 21.4 C 311.3 20.4 310.8 20.1 310.5 20.1 C 309.7 20.1 309.2 20.5 309.2 22.2 C 309.2 24.1 309.4 24.8 310.5 24.8 C 310.7 24.8 311.4 24.6 311.3 23.5 C 311.3 23.5 312.4 23.5 312.4 23.5 C 312.4 25.2 311.1 25.6 310.5 25.6 C 309.2 25.6 308.2 25.3 308.2 22.6 C 308.2 20.8 308.4 19.3 310.5 19.3 C 311.7 19.3 312.4 20 312.3 21.4 C 312.3 21.4 311.3 21.4 311.3 21.4 Z M 314.2 19.5 L 314.2 18.3 L 315.2 17.9 L 315.2 19.5 L 316.5 19.5 L 316.5 20.2 L 315.2 20.2 C 315.2 20.2 315.22 23.91 315.2 23.9 C 315.2 24.3 315.2 24.8 316.1 24.8 C 316.2 24.8 316.4 24.8 316.6 24.7 C 316.6 24.7 316.6 25.5 316.6 25.5 C 316.2 25.5 315.9 25.6 315.6 25.6 C 314.7 25.6 314.2 25.2 314.2 24.5 C 314.24 24.51 314.2 20.2 314.2 20.2 L 313.2 20.2 L 313.2 19.5 L 314.2 19.5 Z M 320.9 22.2 C 320.9 20.5 320.4 20.1 319.6 20.1 C 318.8 20.1 318.3 20.5 318.3 22.2 C 318.3 24.1 318.6 24.8 319.6 24.8 C 320.6 24.8 320.9 24.1 320.9 22.2 Z M 317.3 22.6 C 317.3 20.8 317.5 19.3 319.6 19.3 C 321.7 19.3 321.9 20.8 321.9 22.6 C 321.9 25.3 320.9 25.6 319.6 25.6 C 318.3 25.6 317.3 25.3 317.3 22.6 Z M 324.5 20.4 C 324.5 20.4 324.51 20.37 324.5 20.4 C 324.9 19.4 325.4 19.3 326.4 19.3 C 326.4 19.3 326.4 20.4 326.4 20.4 C 326.3 20.3 326.2 20.3 326.1 20.3 C 326 20.3 326 20.3 325.9 20.3 C 324.8 20.3 324.5 21.1 324.5 21.9 C 324.49 21.94 324.5 25.5 324.5 25.5 L 323.5 25.5 L 323.5 19.5 L 324.5 19.5 L 324.5 20.4 Z M 335.8 25.5 L 334.5 25.5 L 332.4 21.8 L 330.5 25.5 L 329.3 25.5 L 331.8 21 L 329.5 16.9 L 330.7 16.9 L 332.5 20.2 L 334.3 16.9 L 335.5 16.9 L 333.2 21 L 335.8 25.5 Z M 338.2 25.5 L 337.1 25.5 L 337.1 16.9 L 338.2 16.9 L 338.2 25.5 Z M 341.5 25.5 L 340.4 25.5 L 340.4 16.9 L 341.5 16.9 L 341.5 25.5 Z M 343.6 24.3 L 344.9 24.3 L 343.8 27 L 343 27 L 343.6 24.3 Z M 344.5 20.7 L 343.4 20.7 L 343.4 19.5 L 344.5 19.5 L 344.5 20.7 Z M 349 25.5 L 349 16.9 L 350.1 16.9 L 350.1 20.6 L 353.1 20.6 L 353.1 16.9 L 354.2 16.9 L 354.2 25.5 L 353.1 25.5 L 353.1 21.6 L 350.1 21.6 L 350.1 25.5 L 349 25.5 Z M 358.2 16.9 L 359.6 16.9 L 362.4 25.5 L 361.2 25.5 L 360.6 23.5 L 357.2 23.5 L 356.6 25.5 L 355.4 25.5 L 358.2 16.9 Z M 358.9 17.9 L 358.8 17.9 L 357.5 22.5 L 360.3 22.5 L 358.9 17.9 Z M 363.6 25.5 L 363.6 16.9 L 368 16.9 L 368 17.8 L 364.7 17.8 L 364.7 20.6 L 367.8 20.6 L 367.8 21.6 L 364.7 21.6 L 364.7 24.6 L 368.1 24.6 L 368.1 25.5 L 363.6 25.5 Z M 369.6 24.3 L 370.9 24.3 L 369.8 27 L 369 27 L 369.6 24.3 Z M 378.1 25.5 C 378.1 25.5 378.08 21.42 378.1 21.4 C 378.1 20.7 377.8 20.1 377 20.1 C 376 20.1 375.8 20.9 375.8 22 C 375.76 21.96 375.8 25.5 375.8 25.5 L 374.8 25.5 L 374.8 16.9 L 375.8 16.9 L 375.8 20.2 C 375.8 20.2 375.81 20.24 375.8 20.2 C 376.2 19.5 376.7 19.3 377.5 19.3 C 378.5 19.3 379.1 19.9 379.1 21.2 C 379.06 21.22 379.1 25.5 379.1 25.5 L 378.1 25.5 Z M 384.1 22.1 C 384.1 20.3 383.6 20.1 382.9 20.1 C 382.3 20.1 381.8 20.4 381.7 22.1 C 381.7 22.1 384.1 22.1 384.1 22.1 Z M 381.7 22.8 C 381.7 24.5 382.2 24.8 383 24.8 C 383.6 24.8 384 24.3 384 23.7 C 384 23.7 385.1 23.7 385.1 23.7 C 385.1 25 384.3 25.6 383 25.6 C 381.7 25.6 380.7 25.3 380.7 22.6 C 380.7 20.8 380.9 19.3 383 19.3 C 384.7 19.3 385.2 20.3 385.2 22.3 C 385.16 22.29 385.2 22.8 385.2 22.8 C 385.2 22.8 381.75 22.81 381.7 22.8 Z M 387.8 20.4 C 387.8 20.4 387.83 20.37 387.8 20.4 C 388.2 19.4 388.7 19.3 389.7 19.3 C 389.7 19.3 389.7 20.4 389.7 20.4 C 389.6 20.3 389.5 20.3 389.4 20.3 C 389.4 20.3 389.3 20.3 389.2 20.3 C 388.1 20.3 387.8 21.1 387.8 21.9 C 387.81 21.94 387.8 25.5 387.8 25.5 L 386.8 25.5 L 386.8 19.5 L 387.8 19.5 L 387.8 20.4 Z M 394.1 22.1 C 394.1 20.3 393.6 20.1 392.9 20.1 C 392.3 20.1 391.8 20.4 391.7 22.1 C 391.7 22.1 394.1 22.1 394.1 22.1 Z M 391.7 22.8 C 391.7 24.5 392.2 24.8 393 24.8 C 393.6 24.8 394 24.3 394 23.7 C 394 23.7 395.1 23.7 395.1 23.7 C 395.1 25 394.3 25.6 393 25.6 C 391.7 25.6 390.7 25.3 390.7 22.6 C 390.7 20.8 390.9 19.3 393 19.3 C 394.7 19.3 395.2 20.3 395.2 22.3 C 395.15 22.29 395.2 22.8 395.2 22.8 C 395.2 22.8 391.75 22.81 391.7 22.8 Z M 398.8 20.1 C 397.8 20.1 397.6 21 397.6 22.6 C 397.6 23.5 397.6 24.8 398.9 24.8 C 400 24.8 400 23.5 400 22.2 C 400 21.4 399.9 20.1 398.8 20.1 Z M 400 16.9 L 401 16.9 L 401 25.5 L 400 25.5 L 400 24.8 C 400 24.8 399.97 24.8 400 24.8 C 399.6 25.4 399.2 25.6 398.6 25.6 C 397.6 25.6 396.6 25.3 396.6 22.6 C 396.6 21.1 396.7 19.3 398.6 19.3 C 399.2 19.3 399.6 19.6 400 20.1 C 399.95 20.07 400 20.1 400 20.1 L 400 16.9 Z M 403.7 25.5 L 402.8 25.5 L 402.8 19.5 L 403.7 19.5 L 403.7 25.5 Z M 402.7 16.9 L 403.8 16.9 L 403.8 17.9 L 402.7 17.9 L 402.7 16.9 Z M 405.6 19.5 L 405.6 18.3 L 406.5 17.9 L 406.5 19.5 L 407.9 19.5 L 407.9 20.2 L 406.5 20.2 C 406.5 20.2 406.54 23.91 406.5 23.9 C 406.5 24.3 406.5 24.8 407.4 24.8 C 407.5 24.8 407.7 24.8 407.9 24.7 C 407.9 24.7 407.9 25.5 407.9 25.5 C 407.6 25.5 407.2 25.6 406.9 25.6 C 406 25.6 405.6 25.2 405.6 24.5 C 405.56 24.51 405.6 20.2 405.6 20.2 L 404.6 20.2 L 404.6 19.5 L 405.6 19.5 Z M 409.7 23.7 C 409.7 24.3 410 24.8 410.6 24.8 C 411.2 24.8 412 24.5 411.9 22.5 C 410.9 22.5 409.7 22.4 409.7 23.7 Z M 411.9 24.6 C 411.9 24.6 411.88 24.65 411.9 24.6 C 411.6 25.3 411.1 25.6 410.4 25.6 C 409.1 25.6 408.7 24.8 408.7 23.6 C 408.7 21.8 410.5 21.7 411.9 21.8 C 411.9 21 411.9 20.1 410.9 20.1 C 410.2 20.1 409.9 20.5 409.9 21.2 C 409.9 21.2 408.8 21.2 408.8 21.2 C 408.9 19.8 409.6 19.3 410.9 19.3 C 412.5 19.3 412.9 20.1 412.9 21.2 C 412.9 21.2 412.9 24.1 412.9 24.1 C 412.9 24.6 412.9 25.1 413 25.5 C 412.98 25.52 411.9 25.5 411.9 25.5 L 411.9 24.6 Z M 415.8 20.4 C 415.8 20.4 415.83 20.37 415.8 20.4 C 416.2 19.4 416.7 19.3 417.7 19.3 C 417.7 19.3 417.7 20.4 417.7 20.4 C 417.6 20.3 417.5 20.3 417.4 20.3 C 417.4 20.3 417.3 20.3 417.2 20.3 C 416.1 20.3 415.8 21.1 415.8 21.9 C 415.8 21.94 415.8 25.5 415.8 25.5 L 414.8 25.5 L 414.8 19.5 L 415.8 19.5 L 415.8 20.4 Z M 420.6 24.4 L 420.6 24.4 L 422.1 19.5 L 423.1 19.5 L 420.4 27.8 L 419.4 27.8 L 420.1 25.5 L 418 19.5 L 419.2 19.5 L 420.6 24.4 Z M 427.7 23.7 C 427.7 24.3 428 24.8 428.6 24.8 C 429.2 24.8 430 24.5 429.9 22.5 C 428.9 22.5 427.7 22.4 427.7 23.7 Z M 429.9 24.6 C 429.9 24.6 429.87 24.65 429.9 24.6 C 429.6 25.3 429.1 25.6 428.3 25.6 C 427.1 25.6 426.7 24.8 426.7 23.6 C 426.7 21.8 428.5 21.7 429.9 21.8 C 429.9 21 429.9 20.1 428.8 20.1 C 428.2 20.1 427.8 20.5 427.9 21.2 C 427.9 21.2 426.8 21.2 426.8 21.2 C 426.9 19.8 427.6 19.3 428.9 19.3 C 430.4 19.3 430.9 20.1 430.9 21.2 C 430.9 21.2 430.9 24.1 430.9 24.1 C 430.9 24.6 430.9 25.1 431 25.5 C 430.97 25.52 429.9 25.5 429.9 25.5 L 429.9 24.6 Z M 436.1 25.5 C 436.1 25.5 436.06 21.32 436.1 21.3 C 436.1 20.7 435.8 20.1 435 20.1 C 433.9 20.1 433.8 21.1 433.8 21.9 C 433.76 21.93 433.8 25.5 433.8 25.5 L 432.8 25.5 C 432.8 25.5 432.77 20.72 432.8 20.7 C 432.8 20.3 432.7 19.9 432.7 19.5 C 432.71 19.46 433.8 19.5 433.8 19.5 L 433.8 20.2 C 433.8 20.2 433.8 20.24 433.8 20.2 C 434.2 19.6 434.6 19.3 435.4 19.3 C 436.7 19.3 437 20.1 437 21.3 C 437.04 21.32 437 25.5 437 25.5 L 436.1 25.5 Z M 440.8 20.2 C 439.7 20.2 439.7 21.5 439.7 22.3 C 439.7 24.2 440.1 24.7 440.8 24.7 C 442 24.7 442 23.3 442 22.5 C 442 21.6 442.1 20.2 440.8 20.2 Z M 442 19.5 L 443 19.5 C 443 19.5 442.96 26.13 443 26.1 C 443 27.5 442.1 27.8 440.7 27.8 C 439.7 27.8 438.8 27.3 438.9 26.2 C 438.9 26.2 440 26.2 440 26.2 C 440 26.8 440.4 27.1 440.9 27.1 C 441.6 27.1 442 26.6 442 26 C 441.98 26.03 442 24.8 442 24.8 C 442 24.8 441.94 24.77 441.9 24.8 C 441.7 25.2 441.1 25.5 440.6 25.5 C 439 25.5 438.6 24.1 438.6 22.3 C 438.6 19.5 440 19.3 440.5 19.3 C 441.2 19.3 441.7 19.6 442 20.2 C 441.95 20.2 442 20.2 442 20.2 L 442 19.5 Z M 445.7 25.5 L 444.7 25.5 L 444.7 19.5 L 445.7 19.5 L 445.7 25.5 Z M 444.7 16.9 L 445.8 16.9 L 445.8 17.9 L 444.7 17.9 L 444.7 16.9 Z M 450.8 22.2 C 450.8 20.5 450.3 20.1 449.6 20.1 C 448.8 20.1 448.3 20.5 448.3 22.2 C 448.3 24.1 448.6 24.8 449.6 24.8 C 450.6 24.8 450.8 24.1 450.8 22.2 Z M 447.3 22.6 C 447.3 20.8 447.5 19.3 449.6 19.3 C 451.7 19.3 451.9 20.8 451.9 22.6 C 451.9 25.3 450.9 25.6 449.6 25.6 C 448.3 25.6 447.3 25.3 447.3 22.6 Z M 456.8 22.1 C 456.8 20.3 456.3 20.1 455.5 20.1 C 454.9 20.1 454.4 20.4 454.4 22.1 C 454.4 22.1 456.8 22.1 456.8 22.1 Z M 454.4 22.8 C 454.4 24.5 454.9 24.8 455.6 24.8 C 456.3 24.8 456.6 24.3 456.7 23.7 C 456.7 23.7 457.8 23.7 457.8 23.7 C 457.7 25 456.9 25.6 455.6 25.6 C 454.4 25.6 453.3 25.3 453.3 22.6 C 453.3 20.8 453.5 19.3 455.6 19.3 C 457.4 19.3 457.8 20.3 457.8 22.3 C 457.8 22.29 457.8 22.8 457.8 22.8 C 457.8 22.8 454.4 22.81 454.4 22.8 Z M 461.5 20.1 C 460.4 20.1 460.3 21 460.3 22.6 C 460.3 23.5 460.3 24.8 461.5 24.8 C 462.6 24.8 462.6 23.5 462.6 22.2 C 462.6 21.4 462.6 20.1 461.5 20.1 Z M 462.6 16.9 L 463.6 16.9 L 463.6 25.5 L 462.6 25.5 L 462.6 24.8 C 462.6 24.8 462.62 24.8 462.6 24.8 C 462.3 25.4 461.9 25.6 461.2 25.6 C 460.3 25.6 459.3 25.3 459.3 22.6 C 459.3 21.1 459.3 19.3 461.3 19.3 C 461.8 19.3 462.3 19.6 462.6 20.1 C 462.61 20.07 462.6 20.1 462.6 20.1 L 462.6 16.9 Z M 468.8 22.1 C 468.8 20.3 468.3 20.1 467.5 20.1 C 466.9 20.1 466.4 20.4 466.4 22.1 C 466.4 22.1 468.8 22.1 468.8 22.1 Z M 466.4 22.8 C 466.4 24.5 466.9 24.8 467.6 24.8 C 468.3 24.8 468.6 24.3 468.7 23.7 C 468.7 23.7 469.8 23.7 469.8 23.7 C 469.7 25 468.9 25.6 467.6 25.6 C 466.4 25.6 465.3 25.3 465.3 22.6 C 465.3 20.8 465.5 19.3 467.6 19.3 C 469.4 19.3 469.8 20.3 469.8 22.3 C 469.8 22.29 469.8 22.8 469.8 22.8 C 469.8 22.8 466.4 22.81 466.4 22.8 Z M 474.4 25.5 C 474.4 25.5 474.41 21.32 474.4 21.3 C 474.4 20.7 474.2 20.1 473.5 20.1 C 473.2 20.1 472.7 20.3 472.6 20.6 C 472.4 20.9 472.4 21.2 472.4 21.4 C 472.37 21.44 472.4 25.5 472.4 25.5 L 471.4 25.5 C 471.4 25.5 471.39 20.72 471.4 20.7 C 471.4 20.3 471.4 19.9 471.3 19.5 C 471.33 19.46 472.4 19.5 472.4 19.5 L 472.4 20.2 C 472.4 20.2 472.4 20.22 472.4 20.2 C 472.7 19.6 473.2 19.3 473.9 19.3 C 474.5 19.3 475.1 19.6 475.3 20.1 C 475.7 19.5 476.2 19.3 476.8 19.3 C 477.4 19.3 478.4 19.5 478.4 20.9 C 478.42 20.91 478.4 25.5 478.4 25.5 L 477.4 25.5 C 477.4 25.5 477.44 21.32 477.4 21.3 C 477.4 20.7 477.3 20.1 476.5 20.1 C 476.1 20.1 476 20.2 475.7 20.4 C 475.4 20.6 475.4 21.2 475.4 21.4 C 475.4 21.44 475.4 25.5 475.4 25.5 L 474.4 25.5 Z M 481 23.7 C 481 24.3 481.3 24.8 481.9 24.8 C 482.5 24.8 483.3 24.5 483.2 22.5 C 482.3 22.5 481 22.4 481 23.7 Z M 483.2 24.6 C 483.2 24.6 483.2 24.65 483.2 24.6 C 482.9 25.3 482.4 25.6 481.7 25.6 C 480.4 25.6 480 24.8 480 23.6 C 480 21.8 481.8 21.7 483.2 21.8 C 483.2 21 483.2 20.1 482.2 20.1 C 481.5 20.1 481.2 20.5 481.2 21.2 C 481.2 21.2 480.2 21.2 480.2 21.2 C 480.2 19.8 480.9 19.3 482.2 19.3 C 483.8 19.3 484.2 20.1 484.2 21.2 C 484.2 21.2 484.2 24.1 484.2 24.1 C 484.2 24.6 484.2 25.1 484.3 25.5 C 484.3 25.52 483.2 25.5 483.2 25.5 L 483.2 24.6 Z M 486.3 24.3 L 487.5 24.3 L 486.4 27 L 485.6 27 L 486.3 24.3 Z M 487.1 20.7 L 486 20.7 L 486 19.5 L 487.1 19.5 L 487.1 20.7 Z " stroke="none" fill="#555555"/>  </g></svg>