<?xml version="1.0" standalone="no"?><!DOCTYPE svg PUBLIC "-//W3C//DTD SVG 1.1//EN" "http://www.w3.org/Graphics/SVG/1.1/DTD/svg11.dtd"><svg xmlns="http://www.w3.org/2000/svg" version="1.1" width="520px" height="41.7px" viewBox="0 -7 520 41.7" style="top:-7px">  <desc>THE FIRST AND ONLY FXIIa INHIBITOR FOR HAE1 4</desc>  <defs/>  <g id="Polygon192523">    <path d="M 0.2 0.1 L 9.7 0.1 L 9.7 2.4 L 6.3 2.4 L 6.3 20.3 L 3.5 20.3 L 3.5 2.4 L 0.2 2.4 L 0.2 0.1 Z M 10.9 0.1 L 13.7 0.1 L 13.7 8.7 L 17.4 8.7 L 17.4 0.1 L 20.2 0.1 L 20.2 20.3 L 17.4 20.3 L 17.4 11.1 L 13.7 11.1 L 13.7 20.3 L 10.9 20.3 L 10.9 0.1 Z M 22.3 0.1 L 29.9 0.1 L 29.9 2.4 L 25.1 2.4 L 25.1 8.7 L 29.6 8.7 L 29.6 11.1 L 25.1 11.1 L 25.1 17.9 L 29.9 17.9 L 29.9 20.3 L 22.3 20.3 L 22.3 0.1 Z M 36.3 0.1 L 43.9 0.1 L 43.9 2.4 L 39.1 2.4 L 39.1 8.7 L 43.7 8.7 L 43.7 11.1 L 39.1 11.1 L 39.1 20.3 L 36.3 20.3 L 36.3 0.1 Z M 45.1 0.1 L 47.9 0.1 L 47.9 20.3 L 45.1 20.3 L 45.1 0.1 Z M 49.8 0.1 C 49.8 0.1 54.18 0.06 54.2 0.1 C 58.3 0.1 58.7 1.1 58.7 5.6 C 58.7 8.3 58.3 9.5 56 10.2 C 56 10.2 56 10.2 56 10.2 C 57.9 10.4 58.6 11.4 58.6 13.3 C 58.6 13.3 58.6 17.7 58.6 17.7 C 58.6 18.4 58.6 19.4 58.7 20.3 C 58.7 20.3 56.1 20.3 56.1 20.3 C 55.8 19.8 55.8 19.3 55.8 18.5 C 55.8 18.5 55.8 13.9 55.8 13.9 C 55.8 12 55.4 11.5 53.6 11.5 C 53.59 11.48 52.6 11.5 52.6 11.5 L 52.6 20.3 L 49.8 20.3 L 49.8 0.1 Z M 52.6 9.1 C 52.6 9.1 53.37 9.13 53.4 9.1 C 55.6 9.1 55.9 8.7 55.9 5.7 C 55.9 2.7 55.7 2.4 54 2.4 C 53.98 2.41 52.6 2.4 52.6 2.4 L 52.6 9.1 Z M 60.4 14.4 L 63.2 14.4 C 63.2 14.4 63.22 16.07 63.2 16.1 C 63.2 17.4 63.7 18.3 64.8 18.3 C 66.3 18.3 66.7 17.2 66.7 15.9 C 66.7 14.2 66.6 13.7 63.7 10.8 C 61.9 9 60.4 7.4 60.4 4.6 C 60.4 1.3 62 -0.1 65 -0.1 C 66.5 -0.1 67.6 0.4 68.3 1 C 68.8 1.5 69.1 2.2 69.1 3.6 C 69.1 3.58 69.1 5.5 69.1 5.5 L 66.5 5.5 C 66.5 5.5 66.47 3.89 66.5 3.9 C 66.5 2.7 66 2.1 64.9 2.1 C 63.8 2.1 63.2 2.7 63.2 4.3 C 63.2 5.7 63.5 6.5 66.1 9.2 C 68.8 12 69.3 13 69.3 15.5 C 69.3 18.6 68.1 20.4 64.8 20.4 C 62.2 20.4 60.4 19.3 60.4 16.8 C 60.42 16.83 60.4 14.4 60.4 14.4 Z M 70.2 0.1 L 79.7 0.1 L 79.7 2.4 L 76.4 2.4 L 76.4 20.3 L 73.6 20.3 L 73.6 2.4 L 70.2 2.4 L 70.2 0.1 Z M 88.8 0.1 L 92.1 0.1 L 96.2 20.3 L 93.4 20.3 L 92.5 15.1 L 88.1 15.1 L 87.2 20.3 L 84.4 20.3 L 88.8 0.1 Z M 88.5 12.8 L 92.1 12.8 L 90.4 3 L 90.3 3 L 88.5 12.8 Z M 97.5 0.1 L 101.4 0.1 L 104.7 16.9 L 104.8 16.9 L 104.8 0.1 L 107.4 0.1 L 107.4 20.3 L 103.4 20.3 L 100.1 3 L 100 3 L 100 20.3 L 97.5 20.3 L 97.5 0.1 Z M 112.3 17.9 C 112.3 17.9 113.62 17.92 113.6 17.9 C 115.7 17.9 116.1 16.8 116.1 13.4 C 116.1 13.4 116.1 6.4 116.1 6.4 C 116.1 3.4 115.8 2.4 113.4 2.4 C 113.4 2.41 112.3 2.4 112.3 2.4 L 112.3 17.9 Z M 109.5 0.1 C 109.5 0.1 113.99 0.06 114 0.1 C 118.5 0.1 118.9 1.6 118.9 7.4 C 118.9 7.4 118.9 13.5 118.9 13.5 C 118.9 18.6 118 20.3 113.5 20.3 C 113.54 20.27 109.5 20.3 109.5 20.3 L 109.5 0.1 Z M 128.8 15.6 C 128.8 17.3 129.6 18.3 130.7 18.3 C 131.9 18.3 132.7 17.3 132.7 15.6 C 132.7 15.6 132.7 5 132.7 5 C 132.7 3 132 2.1 130.7 2.1 C 129.5 2.1 128.8 3 128.8 5 C 128.8 5 128.8 15.6 128.8 15.6 Z M 126 5.2 C 126 2.4 126.9 -0.1 130.7 -0.1 C 134.3 -0.1 135.5 1.8 135.5 4.9 C 135.5 4.9 135.5 15.1 135.5 15.1 C 135.5 17.9 134.6 20.4 130.7 20.4 C 127.1 20.4 126 18.6 126 15.4 C 126 15.4 126 5.2 126 5.2 Z M 137.5 0.1 L 141.3 0.1 L 144.6 16.9 L 144.7 16.9 L 144.7 0.1 L 147.3 0.1 L 147.3 20.3 L 143.3 20.3 L 140 3 L 139.9 3 L 139.9 20.3 L 137.5 20.3 L 137.5 0.1 Z M 149.4 0.1 L 152.2 0.1 L 152.2 17.9 L 156.9 17.9 L 156.9 20.3 L 149.4 20.3 L 149.4 0.1 Z M 154.5 0.1 L 157.3 0.1 L 159.7 8.6 L 159.8 8.6 L 162.6 0.1 L 165.1 0.1 L 161.2 12 L 161.2 20.3 L 158.4 20.3 L 158.4 12 L 154.5 0.1 Z M 171.7 0.1 L 179.3 0.1 L 179.3 2.4 L 174.5 2.4 L 174.5 8.7 L 179.1 8.7 L 179.1 11.1 L 174.5 11.1 L 174.5 20.3 L 171.7 20.3 L 171.7 0.1 Z M 184.1 9.8 L 180 0.1 L 183 0.1 L 185.6 7.2 L 188.3 0.1 L 191.1 0.1 L 187 10.1 L 191.2 20.3 L 188.2 20.3 L 185.5 12.9 L 182.5 20.3 L 179.7 20.3 L 184.1 9.8 Z M 192.4 0.1 L 195.2 0.1 L 195.2 20.3 L 192.4 20.3 L 192.4 0.1 Z M 197.1 0.1 L 199.9 0.1 L 199.9 20.3 L 197.1 20.3 L 197.1 0.1 Z M 205.6 0.1 L 208.8 0.1 L 213 20.3 L 210.2 20.3 L 209.2 15.1 L 204.9 15.1 L 203.9 20.3 L 201.1 20.3 L 205.6 0.1 Z M 205.3 12.8 L 208.8 12.8 L 207.1 3 L 207.1 3 L 205.3 12.8 Z M 219.4 0.1 L 222.2 0.1 L 222.2 20.3 L 219.4 20.3 L 219.4 0.1 Z M 224.2 0.1 L 228.1 0.1 L 231.4 16.9 L 231.4 16.9 L 231.4 0.1 L 234.1 0.1 L 234.1 20.3 L 230 20.3 L 226.7 3 L 226.7 3 L 226.7 20.3 L 224.2 20.3 L 224.2 0.1 Z M 236.1 0.1 L 238.9 0.1 L 238.9 8.7 L 242.7 8.7 L 242.7 0.1 L 245.5 0.1 L 245.5 20.3 L 242.7 20.3 L 242.7 11.1 L 238.9 11.1 L 238.9 20.3 L 236.1 20.3 L 236.1 0.1 Z M 247.5 0.1 L 250.3 0.1 L 250.3 20.3 L 247.5 20.3 L 247.5 0.1 Z M 252.2 0.1 C 252.2 0.1 257.12 0.06 257.1 0.1 C 260.6 0.1 261.2 1.3 261.2 5 C 261.2 8.9 260.5 9.6 258.6 9.8 C 258.6 9.8 258.6 9.9 258.6 9.9 C 260.8 10.3 261.3 11.1 261.3 14.5 C 261.3 18.9 260.7 20.3 256.6 20.3 C 256.64 20.27 252.2 20.3 252.2 20.3 L 252.2 0.1 Z M 255 18.1 C 255 18.1 256.78 18.09 256.8 18.1 C 258.4 18.1 258.7 17.6 258.7 14.4 C 258.7 11.4 258.4 10.9 256.9 10.9 C 256.87 10.92 255 10.9 255 10.9 L 255 18.1 Z M 255 8.7 C 255 8.7 256.67 8.74 256.7 8.7 C 258.4 8.7 258.5 8.4 258.5 5.1 C 258.5 2.8 258.2 2.2 256.4 2.2 C 256.36 2.24 255 2.2 255 2.2 L 255 8.7 Z M 263.1 0.1 L 265.9 0.1 L 265.9 20.3 L 263.1 20.3 L 263.1 0.1 Z M 267 0.1 L 276.5 0.1 L 276.5 2.4 L 273.1 2.4 L 273.1 20.3 L 270.3 20.3 L 270.3 2.4 L 267 2.4 L 267 0.1 Z M 280.1 15.6 C 280.1 17.3 280.9 18.3 282 18.3 C 283.2 18.3 284 17.3 284 15.6 C 284 15.6 284 5 284 5 C 284 3 283.3 2.1 282 2.1 C 280.8 2.1 280.1 3 280.1 5 C 280.1 5 280.1 15.6 280.1 15.6 Z M 277.3 5.2 C 277.3 2.4 278.2 -0.1 282 -0.1 C 285.6 -0.1 286.8 1.8 286.8 4.9 C 286.8 4.9 286.8 15.1 286.8 15.1 C 286.8 17.9 285.8 20.4 282 20.4 C 278.4 20.4 277.3 18.6 277.3 15.4 C 277.3 15.4 277.3 5.2 277.3 5.2 Z M 288.8 0.1 C 288.8 0.1 293.1 0.06 293.1 0.1 C 297.2 0.1 297.6 1.1 297.6 5.6 C 297.6 8.3 297.2 9.5 294.9 10.2 C 294.9 10.2 294.9 10.2 294.9 10.2 C 296.9 10.4 297.5 11.4 297.5 13.3 C 297.5 13.3 297.5 17.7 297.5 17.7 C 297.5 18.4 297.5 19.4 297.7 20.3 C 297.7 20.3 295 20.3 295 20.3 C 294.8 19.8 294.7 19.3 294.7 18.5 C 294.7 18.5 294.7 13.9 294.7 13.9 C 294.7 12 294.4 11.5 292.5 11.5 C 292.51 11.48 291.6 11.5 291.6 11.5 L 291.6 20.3 L 288.8 20.3 L 288.8 0.1 Z M 291.6 9.1 C 291.6 9.1 292.29 9.13 292.3 9.1 C 294.5 9.1 294.8 8.7 294.8 5.7 C 294.8 2.7 294.6 2.4 292.9 2.4 C 292.9 2.41 291.6 2.4 291.6 2.4 L 291.6 9.1 Z M 304.9 0.1 L 312.5 0.1 L 312.5 2.4 L 307.7 2.4 L 307.7 8.7 L 312.2 8.7 L 312.2 11.1 L 307.7 11.1 L 307.7 20.3 L 304.9 20.3 L 304.9 0.1 Z M 316.4 15.6 C 316.4 17.3 317.2 18.3 318.3 18.3 C 319.5 18.3 320.3 17.3 320.3 15.6 C 320.3 15.6 320.3 5 320.3 5 C 320.3 3 319.6 2.1 318.3 2.1 C 317.1 2.1 316.4 3 316.4 5 C 316.4 5 316.4 15.6 316.4 15.6 Z M 313.6 5.2 C 313.6 2.4 314.5 -0.1 318.3 -0.1 C 321.9 -0.1 323.1 1.8 323.1 4.9 C 323.1 4.9 323.1 15.1 323.1 15.1 C 323.1 17.9 322.2 20.4 318.3 20.4 C 314.7 20.4 313.6 18.6 313.6 15.4 C 313.6 15.4 313.6 5.2 313.6 5.2 Z M 325.1 0.1 C 325.1 0.1 329.41 0.06 329.4 0.1 C 333.5 0.1 333.9 1.1 333.9 5.6 C 333.9 8.3 333.6 9.5 331.3 10.2 C 331.3 10.2 331.3 10.2 331.3 10.2 C 333.2 10.4 333.8 11.4 333.8 13.3 C 333.8 13.3 333.8 17.7 333.8 17.7 C 333.8 18.4 333.8 19.4 334 20.3 C 334 20.3 331.3 20.3 331.3 20.3 C 331.1 19.8 331 19.3 331 18.5 C 331 18.5 331 13.9 331 13.9 C 331 12 330.7 11.5 328.8 11.5 C 328.83 11.48 327.9 11.5 327.9 11.5 L 327.9 20.3 L 325.1 20.3 L 325.1 0.1 Z M 327.9 9.1 C 327.9 9.1 328.6 9.13 328.6 9.1 C 330.8 9.1 331.1 8.7 331.1 5.7 C 331.1 2.7 331 2.4 329.2 2.4 C 329.22 2.41 327.9 2.4 327.9 2.4 L 327.9 9.1 Z M 341.2 0.1 L 344 0.1 L 344 8.7 L 347.7 8.7 L 347.7 0.1 L 350.5 0.1 L 350.5 20.3 L 347.7 20.3 L 347.7 11.1 L 344 11.1 L 344 20.3 L 341.2 20.3 L 341.2 0.1 Z M 356.3 0.1 L 359.5 0.1 L 363.7 20.3 L 360.9 20.3 L 359.9 15.1 L 355.6 15.1 L 354.6 20.3 L 351.8 20.3 L 356.3 0.1 Z M 356 12.8 L 359.5 12.8 L 357.8 3 L 357.7 3 L 356 12.8 Z M 365 0.1 L 372.6 0.1 L 372.6 2.4 L 367.8 2.4 L 367.8 8.7 L 372.3 8.7 L 372.3 11.1 L 367.8 11.1 L 367.8 17.9 L 372.6 17.9 L 372.6 20.3 L 365 20.3 L 365 0.1 Z M 375.4 1.4 C 375.4 1.4 375.36 1.38 375.4 1.4 C 375 1.8 374.7 2.1 374.1 2.6 C 374.1 2.6 374.1 1.1 374.1 1.1 C 374.5 0.8 375.3 -0.3 375.6 -0.8 C 375.56 -0.84 376.9 -0.8 376.9 -0.8 L 376.9 10.9 L 375.4 10.9 L 375.4 1.4 Z M 379.3 6.2 L 383.2 6.2 L 383.2 7.5 L 379.3 7.5 L 379.3 6.2 Z M 384 6.7 L 386.7 -0.8 L 388.7 -0.8 L 388.7 6.9 L 389.4 6.9 L 389.4 8.1 L 388.7 8.1 L 388.7 10.9 L 387.1 10.9 L 387.1 8.1 L 384 8.1 L 384 6.7 Z M 387.1 1.4 L 387.1 1.4 L 385.4 6.9 L 387.1 6.9 L 387.1 1.4 Z " stroke="none" fill="#003c71"/>  </g></svg>