<?xml version="1.0" standalone="no"?><!DOCTYPE svg PUBLIC "-//W3C//DTD SVG 1.1//EN" "http://www.w3.org/Graphics/SVG/1.1/DTD/svg11.dtd"><svg xmlns="http://www.w3.org/2000/svg" version="1.1" width="165.4px" height="109.7px" viewBox="0 0 165.4 109.7">  <desc>May result in anxiety and depression due to fear of attacks1,2</desc>  <defs/>  <g id="Polygon197181">    <path d="M 33.6 57.3 C 32.7 57.2 32.5 57.6 32.5 58.5 C 32.46 58.49 32.5 59.5 32.5 59.5 L 33.6 59.5 L 33.6 61 L 32.5 61 L 32.5 68.1 L 30.1 68.1 L 30.1 61 L 29 61 L 29 59.5 C 29 59.5 30.08 59.52 30.1 59.5 C 30.1 57.1 29.9 55.7 32.8 55.7 C 33.1 55.7 33.3 55.8 33.6 55.8 C 33.6 55.8 33.6 57.3 33.6 57.3 Z M 38.9 62.9 C 38.9 62 38.9 60.8 37.8 60.8 C 36.7 60.8 36.7 62.1 36.7 62.9 C 36.7 62.9 38.9 62.9 38.9 62.9 Z M 36.7 64.2 C 36.7 65.2 36.7 66.7 37.8 66.7 C 38.6 66.7 38.8 65.9 38.8 65.2 C 38.8 65.2 41.2 65.2 41.2 65.2 C 41.2 66.2 40.9 66.9 40.3 67.4 C 39.8 68 38.9 68.3 37.8 68.3 C 34.7 68.3 34.3 66.4 34.3 63.7 C 34.3 61.4 34.6 59.4 37.8 59.4 C 41 59.4 41.4 61.4 41.3 64.2 C 41.3 64.2 36.7 64.2 36.7 64.2 Z M 44.9 65.4 C 44.9 66.1 45 66.8 45.8 66.8 C 47.2 66.8 47 64.9 47 64 C 45.8 64 44.9 63.9 44.9 65.4 Z M 49.3 66.5 C 49.3 67 49.4 67.6 49.5 68.1 C 49.46 68.11 47.2 68.1 47.2 68.1 L 47.1 67 C 47.1 67 47.1 66.97 47.1 67 C 46.6 67.9 45.9 68.3 44.9 68.3 C 43.2 68.3 42.6 67 42.6 65.5 C 42.6 62.7 44.8 62.6 47 62.6 C 47 62.6 47 62 47 62 C 47 61.2 46.9 60.7 46 60.7 C 45.2 60.7 45.1 61.3 45.1 62 C 45.1 62 42.8 62 42.8 62 C 42.8 61 43.1 60.3 43.7 59.9 C 44.2 59.5 45 59.4 45.9 59.4 C 48.9 59.4 49.3 60.7 49.3 62.2 C 49.3 62.2 49.3 66.5 49.3 66.5 Z M 53.4 59.5 L 53.4 60.6 C 53.4 60.6 53.47 60.63 53.5 60.6 C 53.9 59.6 54.7 59.4 55.7 59.4 C 55.7 59.4 55.7 61.5 55.7 61.5 C 53.6 61.4 53.6 62.6 53.6 63.4 C 53.56 63.43 53.6 68.1 53.6 68.1 L 51.2 68.1 L 51.2 59.5 L 53.4 59.5 Z M 64.7 63.6 C 64.7 61.8 64.6 60.9 63.6 60.9 C 62.5 60.9 62.4 61.8 62.4 63.6 C 62.4 66.2 62.7 66.7 63.6 66.7 C 64.4 66.7 64.7 66.2 64.7 63.6 Z M 60 63.7 C 60 61.4 60.4 59.4 63.6 59.4 C 66.7 59.4 67.1 61.4 67.1 63.7 C 67.1 66.4 66.6 68.3 63.6 68.3 C 60.5 68.3 60 66.4 60 63.7 Z M 72.3 57.3 C 71.3 57.2 71.1 57.6 71.1 58.5 C 71.1 58.49 71.1 59.5 71.1 59.5 L 72.2 59.5 L 72.2 61 L 71.1 61 L 71.1 68.1 L 68.7 68.1 L 68.7 61 L 67.6 61 L 67.6 59.5 C 67.6 59.5 68.72 59.52 68.7 59.5 C 68.7 57.1 68.5 55.7 71.4 55.7 C 71.7 55.7 72 55.8 72.3 55.8 C 72.3 55.8 72.3 57.3 72.3 57.3 Z M 78.8 65.4 C 78.8 66.1 78.9 66.8 79.7 66.8 C 81.1 66.8 80.9 64.9 80.9 64 C 79.7 64 78.8 63.9 78.8 65.4 Z M 83.3 66.5 C 83.3 67 83.3 67.6 83.4 68.1 C 83.37 68.11 81.1 68.1 81.1 68.1 L 81 67 C 81 67 81.01 66.97 81 67 C 80.5 67.9 79.8 68.3 78.8 68.3 C 77.1 68.3 76.5 67 76.5 65.5 C 76.5 62.7 78.7 62.6 80.9 62.6 C 80.9 62.6 80.9 62 80.9 62 C 80.9 61.2 80.8 60.7 79.9 60.7 C 79.1 60.7 79 61.3 79 62 C 79 62 76.7 62 76.7 62 C 76.7 61 77 60.3 77.6 59.9 C 78.1 59.5 78.9 59.4 79.8 59.4 C 82.9 59.4 83.3 60.7 83.3 62.2 C 83.3 62.2 83.3 66.5 83.3 66.5 Z M 84.1 59.5 L 85.1 59.5 L 85.1 58.2 L 87.5 57.1 L 87.5 59.5 L 88.7 59.5 L 88.7 61 L 87.5 61 C 87.5 61 87.47 65.59 87.5 65.6 C 87.5 66.2 87.5 66.7 88.2 66.7 C 88.4 66.7 88.5 66.7 88.7 66.6 C 88.7 66.6 88.7 68.1 88.7 68.1 C 88.3 68.1 88 68.2 87.4 68.2 C 85.3 68.2 85.1 66.8 85.1 66.3 C 85.07 66.29 85.1 61 85.1 61 L 84.1 61 L 84.1 59.5 Z M 88.7 59.5 L 89.6 59.5 L 89.6 58.2 L 92 57.1 L 92 59.5 L 93.3 59.5 L 93.3 61 L 92 61 C 92 61 92.03 65.59 92 65.6 C 92 66.2 92 66.7 92.8 66.7 C 92.9 66.7 93.1 66.7 93.2 66.6 C 93.2 66.6 93.2 68.1 93.2 68.1 C 92.9 68.1 92.6 68.2 92 68.2 C 89.9 68.2 89.6 66.8 89.6 66.3 C 89.63 66.29 89.6 61 89.6 61 L 88.7 61 L 88.7 59.5 Z M 96.3 65.4 C 96.3 66.1 96.4 66.8 97.2 66.8 C 98.6 66.8 98.3 64.9 98.3 64 C 97.2 64 96.3 63.9 96.3 65.4 Z M 100.7 66.5 C 100.7 67 100.8 67.6 100.8 68.1 C 100.81 68.11 98.6 68.1 98.6 68.1 L 98.5 67 C 98.5 67 98.45 66.97 98.5 67 C 97.9 67.9 97.2 68.3 96.2 68.3 C 94.5 68.3 93.9 67 93.9 65.5 C 93.9 62.7 96.1 62.6 98.3 62.6 C 98.3 62.6 98.3 62 98.3 62 C 98.3 61.2 98.2 60.7 97.4 60.7 C 96.5 60.7 96.5 61.3 96.5 62 C 96.5 62 94.1 62 94.1 62 C 94.1 61 94.5 60.3 95 59.9 C 95.6 59.5 96.3 59.4 97.3 59.4 C 100.3 59.4 100.7 60.7 100.7 62.2 C 100.7 62.2 100.7 66.5 100.7 66.5 Z M 106.9 62.6 C 106.9 61.3 106.6 60.9 105.8 60.9 C 104.8 60.9 104.7 61.8 104.7 63.6 C 104.7 66.2 104.9 66.7 105.8 66.7 C 106.6 66.7 106.9 66.1 106.9 64.9 C 106.9 64.9 109.3 64.9 109.3 64.9 C 109.3 67.3 108.1 68.3 105.8 68.3 C 102.7 68.3 102.3 66.4 102.3 63.7 C 102.3 61.4 102.7 59.4 105.8 59.4 C 108 59.4 109.3 60.3 109.3 62.6 C 109.3 62.6 106.9 62.6 106.9 62.6 Z M 110.8 68.1 L 110.8 55.8 L 113.2 55.8 L 113.2 63.1 L 113.2 63.1 L 115.4 59.5 L 117.9 59.5 L 115.5 63.3 L 118.2 68.1 L 115.5 68.1 L 113.2 63.4 L 113.2 63.4 L 113.2 68.1 L 110.8 68.1 Z M 121.1 65.4 C 121 65.7 121.1 66.1 121.2 66.4 C 121.3 66.7 121.6 66.8 122 66.8 C 122.5 66.8 122.9 66.5 122.9 65.9 C 122.9 64.1 118.7 64.5 118.7 61.8 C 118.7 59.9 120.6 59.4 122.1 59.4 C 123.7 59.4 125.2 60.1 125.1 62 C 125.1 62 122.7 62 122.7 62 C 122.7 61.4 122.7 61 122.5 60.9 C 122.3 60.7 122.1 60.7 121.9 60.7 C 121.4 60.7 121.1 61 121.1 61.6 C 121.1 63 125.3 62.9 125.3 65.7 C 125.3 67.2 124.1 68.3 122.1 68.3 C 120 68.3 118.6 67.8 118.7 65.4 C 118.7 65.4 121.1 65.4 121.1 65.4 Z M 126.1 56.6 C 126.6 56.3 127.1 56 127.4 55.5 C 127.42 55.53 128.8 55.5 128.8 55.5 L 128.8 62.4 L 127.3 62.4 C 127.3 62.4 127.26 57.13 127.3 57.1 C 126.9 57.4 126.5 57.7 126.1 57.9 C 126.1 57.9 126.1 56.6 126.1 56.6 Z M 130.6 61.1 L 131.9 61.1 L 131.1 63.4 L 130.2 63.4 L 130.6 61.1 Z M 132.1 62.4 C 132.1 62.4 132.12 61.23 132.1 61.2 C 134.3 58.3 134.8 58 134.8 57.1 C 134.8 56.8 134.6 56.5 134.2 56.5 C 133.7 56.5 133.6 57 133.6 57.4 C 133.6 57.4 132.2 57.4 132.2 57.4 C 132.1 56.2 132.9 55.4 134.1 55.4 C 135.3 55.4 136.2 55.9 136.2 57.2 C 136.2 58.8 134.3 60.5 133.6 61.4 C 133.59 61.38 136.2 61.4 136.2 61.4 L 136.2 62.4 L 132.1 62.4 Z " stroke="none" fill="#003c71"/>  </g>  <g id="Polygon197180">    <path d="M 11.4 45 C 11.4 45.7 11.5 46.4 12.3 46.4 C 13.7 46.4 13.5 44.5 13.5 43.6 C 12.3 43.6 11.4 43.5 11.4 45 Z M 15.8 46.1 C 15.8 46.6 15.9 47.2 16 47.7 C 15.96 47.71 13.7 47.7 13.7 47.7 L 13.6 46.6 C 13.6 46.6 13.6 46.57 13.6 46.6 C 13.1 47.5 12.4 47.9 11.4 47.9 C 9.7 47.9 9.1 46.6 9.1 45.1 C 9.1 42.3 11.3 42.2 13.5 42.2 C 13.5 42.2 13.5 41.6 13.5 41.6 C 13.5 40.8 13.4 40.3 12.5 40.3 C 11.7 40.3 11.6 40.9 11.6 41.6 C 11.6 41.6 9.3 41.6 9.3 41.6 C 9.3 40.6 9.6 39.9 10.2 39.5 C 10.7 39.1 11.5 39 12.4 39 C 15.5 39 15.8 40.3 15.8 41.8 C 15.8 41.8 15.8 46.1 15.8 46.1 Z M 20.1 40 C 20.1 40 20.09 39.99 20.1 40 C 20.3 39.6 20.6 39.3 20.9 39.2 C 21.3 39 21.7 39 22.1 39 C 23.3 39 24.3 39.6 24.3 40.8 C 24.26 40.82 24.3 47.7 24.3 47.7 L 21.9 47.7 C 21.9 47.7 21.86 41.79 21.9 41.8 C 21.9 41 21.7 40.4 21 40.4 C 20.2 40.4 20.1 41 20.1 41.8 C 20.06 41.79 20.1 47.7 20.1 47.7 L 17.7 47.7 L 17.7 39.1 L 20.1 39.1 L 20.1 40 Z M 30.2 43.3 C 30.2 41.6 30.2 40.4 29.2 40.4 C 28.2 40.4 28.2 41.6 28.2 43.3 C 28.2 45.5 28.3 46.4 29.2 46.4 C 30 46.4 30.2 45.5 30.2 43.3 Z M 30.3 47.7 L 30.3 46.8 C 30.3 46.8 30.24 46.76 30.2 46.8 C 29.8 47.6 29.1 47.9 28.2 47.9 C 25.7 47.9 25.8 45.1 25.8 43.4 C 25.8 41.6 25.8 39 28.2 39 C 29 39 29.6 39.2 30.1 39.9 C 30.12 39.94 30.2 39.9 30.2 39.9 L 30.2 35.4 L 32.6 35.4 L 32.6 47.7 L 30.3 47.7 Z M 42.1 43.3 C 42.1 41.6 42.1 40.4 41.1 40.4 C 40.1 40.4 40.1 41.6 40.1 43.3 C 40.1 45.5 40.3 46.4 41.1 46.4 C 41.9 46.4 42.1 45.5 42.1 43.3 Z M 42.2 47.7 L 42.2 46.8 C 42.2 46.8 42.18 46.76 42.2 46.8 C 41.7 47.6 41.1 47.9 40.2 47.9 C 37.7 47.9 37.8 45.1 37.8 43.4 C 37.8 41.6 37.7 39 40.1 39 C 41 39 41.6 39.2 42.1 39.9 C 42.06 39.94 42.1 39.9 42.1 39.9 L 42.1 35.4 L 44.5 35.4 L 44.5 47.7 L 42.2 47.7 Z M 50.7 42.5 C 50.7 41.6 50.7 40.4 49.6 40.4 C 48.5 40.4 48.5 41.7 48.5 42.5 C 48.5 42.5 50.7 42.5 50.7 42.5 Z M 48.5 43.8 C 48.5 44.8 48.5 46.3 49.6 46.3 C 50.4 46.3 50.6 45.5 50.6 44.8 C 50.6 44.8 53 44.8 53 44.8 C 53 45.8 52.7 46.5 52.1 47 C 51.5 47.6 50.7 47.9 49.6 47.9 C 46.5 47.9 46.1 46 46.1 43.3 C 46.1 41 46.4 39 49.6 39 C 52.8 39 53.1 41 53.1 43.8 C 53.1 43.8 48.5 43.8 48.5 43.8 Z M 59 43.3 C 59 41.6 59 40.4 58 40.4 C 57 40.4 57 41.6 57 43.3 C 57 45.5 57.1 46.4 58 46.4 C 58.8 46.4 59 45.5 59 43.3 Z M 56.9 39.1 L 56.9 40.1 C 56.9 40.1 56.9 40.07 56.9 40.1 C 57.3 39.2 58 39 58.9 39 C 61.4 39 61.3 41.7 61.3 43.5 C 61.3 45.2 61.4 47.9 59 47.9 C 58.1 47.9 57.5 47.6 57 46.9 C 57.02 46.89 57 46.9 57 46.9 L 57 51.4 L 54.6 51.4 L 54.6 39.1 L 56.9 39.1 Z M 65.2 39.1 L 65.2 40.2 C 65.2 40.2 65.23 40.23 65.2 40.2 C 65.7 39.2 66.5 39 67.5 39 C 67.5 39 67.5 41.1 67.5 41.1 C 65.3 41 65.3 42.2 65.3 43 C 65.31 43.03 65.3 47.7 65.3 47.7 L 62.9 47.7 L 62.9 39.1 L 65.2 39.1 Z M 72.8 42.5 C 72.8 41.6 72.8 40.4 71.7 40.4 C 70.6 40.4 70.6 41.7 70.6 42.5 C 70.6 42.5 72.8 42.5 72.8 42.5 Z M 70.6 43.8 C 70.6 44.8 70.7 46.3 71.7 46.3 C 72.6 46.3 72.7 45.5 72.7 44.8 C 72.7 44.8 75.2 44.8 75.2 44.8 C 75.1 45.8 74.8 46.5 74.2 47 C 73.7 47.6 72.8 47.9 71.7 47.9 C 68.6 47.9 68.2 46 68.2 43.3 C 68.2 41 68.5 39 71.7 39 C 74.9 39 75.3 41 75.2 43.8 C 75.2 43.8 70.6 43.8 70.6 43.8 Z M 78.6 45 C 78.6 45.3 78.6 45.7 78.7 46 C 78.9 46.3 79.1 46.4 79.6 46.4 C 80.1 46.4 80.5 46.1 80.5 45.5 C 80.5 43.7 76.3 44.1 76.3 41.4 C 76.3 39.5 78.1 39 79.7 39 C 81.3 39 82.8 39.7 82.6 41.6 C 82.6 41.6 80.3 41.6 80.3 41.6 C 80.3 41 80.2 40.6 80.1 40.5 C 79.9 40.3 79.7 40.3 79.4 40.3 C 78.9 40.3 78.6 40.6 78.6 41.2 C 78.6 42.6 82.8 42.5 82.8 45.3 C 82.8 46.8 81.6 47.9 79.6 47.9 C 77.5 47.9 76.1 47.4 76.3 45 C 76.3 45 78.6 45 78.6 45 Z M 86 45 C 86 45.3 86 45.7 86.1 46 C 86.3 46.3 86.5 46.4 87 46.4 C 87.5 46.4 87.9 46.1 87.9 45.5 C 87.9 43.7 83.7 44.1 83.7 41.4 C 83.7 39.5 85.5 39 87 39 C 88.7 39 90.2 39.7 90 41.6 C 90 41.6 87.7 41.6 87.7 41.6 C 87.7 41 87.6 40.6 87.4 40.5 C 87.3 40.3 87.1 40.3 86.8 40.3 C 86.3 40.3 86 40.6 86 41.2 C 86 42.6 90.2 42.5 90.2 45.3 C 90.2 46.8 89 47.9 87 47.9 C 84.9 47.9 83.5 47.4 83.7 45 C 83.7 45 86 45 86 45 Z M 94.1 47.7 L 91.7 47.7 L 91.7 39.1 L 94.1 39.1 L 94.1 47.7 Z M 94.1 35.4 L 94.1 37.3 L 91.7 37.3 L 91.7 35.4 L 94.1 35.4 Z M 100.5 43.2 C 100.5 41.4 100.4 40.5 99.3 40.5 C 98.3 40.5 98.2 41.4 98.2 43.2 C 98.2 45.8 98.5 46.3 99.3 46.3 C 100.2 46.3 100.5 45.8 100.5 43.2 Z M 95.8 43.3 C 95.8 41 96.2 39 99.3 39 C 102.5 39 102.8 41 102.8 43.3 C 102.8 46 102.4 47.9 99.3 47.9 C 96.3 47.9 95.8 46 95.8 43.3 Z M 106.8 40 C 106.8 40 106.81 39.99 106.8 40 C 107 39.6 107.3 39.3 107.7 39.2 C 108 39 108.4 39 108.8 39 C 110 39 111 39.6 111 40.8 C 110.98 40.82 111 47.7 111 47.7 L 108.6 47.7 C 108.6 47.7 108.58 41.79 108.6 41.8 C 108.6 41 108.4 40.4 107.7 40.4 C 106.9 40.4 106.8 41 106.8 41.8 C 106.78 41.79 106.8 47.7 106.8 47.7 L 104.4 47.7 L 104.4 39.1 L 106.8 39.1 L 106.8 40 Z M 120.5 43.3 C 120.5 41.6 120.5 40.4 119.5 40.4 C 118.5 40.4 118.5 41.6 118.5 43.3 C 118.5 45.5 118.6 46.4 119.5 46.4 C 120.3 46.4 120.5 45.5 120.5 43.3 Z M 120.6 47.7 L 120.6 46.8 C 120.6 46.8 120.56 46.76 120.6 46.8 C 120.1 47.6 119.5 47.9 118.5 47.9 C 116.1 47.9 116.1 45.1 116.1 43.4 C 116.1 41.6 116.1 39 118.5 39 C 119.4 39 120 39.2 120.4 39.9 C 120.44 39.94 120.5 39.9 120.5 39.9 L 120.5 35.4 L 122.9 35.4 L 122.9 47.7 L 120.6 47.7 Z M 128.8 46.8 C 128.8 46.8 128.81 46.84 128.8 46.8 C 128.6 47.2 128.3 47.5 128 47.6 C 127.6 47.8 127.2 47.9 126.8 47.9 C 125.6 47.9 124.6 47.2 124.6 46 C 124.64 46.01 124.6 39.1 124.6 39.1 L 127 39.1 C 127 39.1 127.04 45.07 127 45.1 C 127 45.8 127.2 46.4 127.9 46.4 C 128.7 46.4 128.8 45.8 128.8 45.1 C 128.84 45.07 128.8 39.1 128.8 39.1 L 131.2 39.1 C 131.2 39.1 131.24 46.01 131.2 46 C 131.2 46.6 131.3 47.1 131.3 47.7 C 131.32 47.71 128.8 47.7 128.8 47.7 L 128.8 46.8 Z M 137.4 42.5 C 137.4 41.6 137.4 40.4 136.3 40.4 C 135.2 40.4 135.2 41.7 135.2 42.5 C 135.2 42.5 137.4 42.5 137.4 42.5 Z M 135.2 43.8 C 135.2 44.8 135.2 46.3 136.3 46.3 C 137.1 46.3 137.3 45.5 137.3 44.8 C 137.3 44.8 139.7 44.8 139.7 44.8 C 139.7 45.8 139.4 46.5 138.8 47 C 138.2 47.6 137.4 47.9 136.3 47.9 C 133.2 47.9 132.8 46 132.8 43.3 C 132.8 41 133.1 39 136.3 39 C 139.5 39 139.9 41 139.8 43.8 C 139.8 43.8 135.2 43.8 135.2 43.8 Z M 143.9 39.1 L 144.9 39.1 L 144.9 37.8 L 147.3 36.7 L 147.3 39.1 L 148.5 39.1 L 148.5 40.6 L 147.3 40.6 C 147.3 40.6 147.3 45.19 147.3 45.2 C 147.3 45.8 147.3 46.3 148.1 46.3 C 148.2 46.3 148.4 46.3 148.5 46.2 C 148.5 46.2 148.5 47.7 148.5 47.7 C 148.2 47.7 147.8 47.8 147.3 47.8 C 145.2 47.8 144.9 46.4 144.9 45.9 C 144.91 45.89 144.9 40.6 144.9 40.6 L 143.9 40.6 L 143.9 39.1 Z M 153.9 43.2 C 153.9 41.4 153.8 40.5 152.8 40.5 C 151.7 40.5 151.7 41.4 151.7 43.2 C 151.7 45.8 151.9 46.3 152.8 46.3 C 153.6 46.3 153.9 45.8 153.9 43.2 Z M 149.3 43.3 C 149.3 41 149.6 39 152.8 39 C 155.9 39 156.3 41 156.3 43.3 C 156.3 46 155.9 47.9 152.8 47.9 C 149.7 47.9 149.3 46 149.3 43.3 Z " stroke="none" fill="#003c71"/>  </g>  <g id="Polygon197179">    <path d="M 12.7 27.3 L 12.7 15 L 16.8 15 L 18.8 23.4 L 18.8 23.4 L 20.8 15 L 24.8 15 L 24.8 27.3 L 22.3 27.3 L 22.3 17.8 L 22.3 17.8 L 19.9 27.3 L 17.5 27.3 L 15.2 17.8 L 15.2 17.8 L 15.2 27.3 L 12.7 27.3 Z M 28.7 24.6 C 28.7 25.3 28.8 26 29.6 26 C 31 26 30.8 24.1 30.8 23.2 C 29.6 23.2 28.7 23.1 28.7 24.6 Z M 33.1 25.7 C 33.1 26.2 33.2 26.8 33.3 27.3 C 33.26 27.31 31 27.3 31 27.3 L 30.9 26.2 C 30.9 26.2 30.9 26.17 30.9 26.2 C 30.4 27.1 29.7 27.5 28.7 27.5 C 27 27.5 26.4 26.2 26.4 24.7 C 26.4 21.9 28.6 21.8 30.8 21.8 C 30.8 21.8 30.8 21.2 30.8 21.2 C 30.8 20.4 30.7 19.9 29.8 19.9 C 29 19.9 28.9 20.5 28.9 21.2 C 28.9 21.2 26.6 21.2 26.6 21.2 C 26.6 20.2 26.9 19.5 27.5 19.1 C 28 18.7 28.8 18.6 29.7 18.6 C 32.8 18.6 33.1 19.9 33.1 21.4 C 33.1 21.4 33.1 25.7 33.1 25.7 Z M 36.5 27.4 L 34.2 18.7 L 36.5 18.7 L 37.8 24.8 L 37.8 24.8 L 39.1 18.7 L 41.4 18.7 L 38.1 30.6 L 35.6 30.6 L 36.5 27.4 Z M 48.2 18.7 L 48.2 19.8 C 48.2 19.8 48.25 19.83 48.3 19.8 C 48.7 18.8 49.5 18.6 50.5 18.6 C 50.5 18.6 50.5 20.7 50.5 20.7 C 48.4 20.6 48.3 21.8 48.3 22.6 C 48.34 22.63 48.3 27.3 48.3 27.3 L 45.9 27.3 L 45.9 18.7 L 48.2 18.7 Z M 55.8 22.1 C 55.8 21.2 55.9 20 54.7 20 C 53.6 20 53.6 21.3 53.6 22.1 C 53.6 22.1 55.8 22.1 55.8 22.1 Z M 53.6 23.4 C 53.6 24.4 53.7 25.9 54.7 25.9 C 55.6 25.9 55.8 25.1 55.8 24.4 C 55.8 24.4 58.2 24.4 58.2 24.4 C 58.1 25.4 57.8 26.1 57.3 26.6 C 56.7 27.2 55.9 27.5 54.7 27.5 C 51.6 27.5 51.2 25.6 51.2 22.9 C 51.2 20.6 51.6 18.6 54.7 18.6 C 58 18.6 58.3 20.6 58.2 23.4 C 58.2 23.4 53.6 23.4 53.6 23.4 Z M 61.7 24.6 C 61.6 24.9 61.7 25.3 61.8 25.6 C 61.9 25.9 62.2 26 62.6 26 C 63.1 26 63.5 25.7 63.5 25.1 C 63.5 23.3 59.3 23.7 59.3 21 C 59.3 19.1 61.1 18.6 62.7 18.6 C 64.3 18.6 65.8 19.3 65.7 21.2 C 65.7 21.2 63.3 21.2 63.3 21.2 C 63.3 20.6 63.2 20.2 63.1 20.1 C 62.9 19.9 62.7 19.9 62.5 19.9 C 61.9 19.9 61.7 20.2 61.7 20.8 C 61.7 22.2 65.9 22.1 65.9 24.9 C 65.9 26.4 64.6 27.5 62.7 27.5 C 60.6 27.5 59.2 27 59.3 24.6 C 59.3 24.6 61.7 24.6 61.7 24.6 Z M 71.3 26.4 C 71.3 26.4 71.31 26.44 71.3 26.4 C 71.1 26.8 70.8 27.1 70.5 27.2 C 70.1 27.4 69.7 27.5 69.3 27.5 C 68.1 27.5 67.1 26.8 67.1 25.6 C 67.14 25.61 67.1 18.7 67.1 18.7 L 69.5 18.7 C 69.5 18.7 69.54 24.67 69.5 24.7 C 69.5 25.4 69.7 26 70.4 26 C 71.2 26 71.3 25.4 71.3 24.7 C 71.34 24.67 71.3 18.7 71.3 18.7 L 73.7 18.7 C 73.7 18.7 73.74 25.61 73.7 25.6 C 73.7 26.2 73.8 26.7 73.8 27.3 C 73.82 27.31 71.3 27.3 71.3 27.3 L 71.3 26.4 Z M 78.1 15 L 78.1 27.3 L 75.7 27.3 L 75.7 15 L 78.1 15 Z M 79.1 18.7 L 80 18.7 L 80 17.4 L 82.4 16.3 L 82.4 18.7 L 83.7 18.7 L 83.7 20.2 L 82.4 20.2 C 82.4 20.2 82.42 24.79 82.4 24.8 C 82.4 25.4 82.4 25.9 83.2 25.9 C 83.3 25.9 83.5 25.9 83.6 25.8 C 83.6 25.8 83.6 27.3 83.6 27.3 C 83.3 27.3 83 27.4 82.4 27.4 C 80.3 27.4 80 26 80 25.5 C 80.03 25.49 80 20.2 80 20.2 L 79.1 20.2 L 79.1 18.7 Z M 90.8 27.3 L 88.4 27.3 L 88.4 18.7 L 90.8 18.7 L 90.8 27.3 Z M 90.8 15 L 90.8 16.9 L 88.4 16.9 L 88.4 15 L 90.8 15 Z M 95.1 19.6 C 95.1 19.6 95.17 19.59 95.2 19.6 C 95.4 19.2 95.7 18.9 96 18.8 C 96.4 18.6 96.8 18.6 97.2 18.6 C 98.3 18.6 99.3 19.2 99.3 20.4 C 99.34 20.42 99.3 27.3 99.3 27.3 L 96.9 27.3 C 96.9 27.3 96.94 21.39 96.9 21.4 C 96.9 20.6 96.8 20 96 20 C 95.3 20 95.1 20.6 95.1 21.4 C 95.14 21.39 95.1 27.3 95.1 27.3 L 92.7 27.3 L 92.7 18.7 L 95.1 18.7 L 95.1 19.6 Z M 106.8 24.6 C 106.8 25.3 106.9 26 107.7 26 C 109.1 26 108.8 24.1 108.8 23.2 C 107.7 23.2 106.8 23.1 106.8 24.6 Z M 111.2 25.7 C 111.2 26.2 111.3 26.8 111.3 27.3 C 111.31 27.31 109.1 27.3 109.1 27.3 L 109 26.2 C 109 26.2 108.94 26.17 108.9 26.2 C 108.4 27.1 107.7 27.5 106.7 27.5 C 105 27.5 104.4 26.2 104.4 24.7 C 104.4 21.9 106.6 21.8 108.8 21.8 C 108.8 21.8 108.8 21.2 108.8 21.2 C 108.8 20.4 108.7 19.9 107.9 19.9 C 107 19.9 107 20.5 107 21.2 C 107 21.2 104.6 21.2 104.6 21.2 C 104.6 20.2 104.9 19.5 105.5 19.1 C 106.1 18.7 106.8 18.6 107.8 18.6 C 110.8 18.6 111.2 19.9 111.2 21.4 C 111.2 21.4 111.2 25.7 111.2 25.7 Z M 115.4 19.6 C 115.4 19.6 115.44 19.59 115.4 19.6 C 115.7 19.2 116 18.9 116.3 18.8 C 116.6 18.6 117 18.6 117.5 18.6 C 118.6 18.6 119.6 19.2 119.6 20.4 C 119.6 20.42 119.6 27.3 119.6 27.3 L 117.2 27.3 C 117.2 27.3 117.21 21.39 117.2 21.4 C 117.2 20.6 117.1 20 116.3 20 C 115.5 20 115.4 20.6 115.4 21.4 C 115.4 21.39 115.4 27.3 115.4 27.3 L 113 27.3 L 113 18.7 L 115.4 18.7 L 115.4 19.6 Z M 122.8 27.3 L 120.5 27.3 L 123 22.8 L 120.7 18.7 L 123.4 18.7 L 124.6 21.3 L 126.1 18.7 L 128.5 18.7 L 126.2 22.8 L 128.6 27.3 L 125.9 27.3 L 124.4 24.3 L 122.8 27.3 Z M 132.3 27.3 L 129.9 27.3 L 129.9 18.7 L 132.3 18.7 L 132.3 27.3 Z M 132.3 15 L 132.3 16.9 L 129.9 16.9 L 129.9 15 L 132.3 15 Z M 138.6 22.1 C 138.6 21.2 138.7 20 137.5 20 C 136.4 20 136.4 21.3 136.4 22.1 C 136.4 22.1 138.6 22.1 138.6 22.1 Z M 136.4 23.4 C 136.4 24.4 136.5 25.9 137.5 25.9 C 138.4 25.9 138.5 25.1 138.5 24.4 C 138.5 24.4 141 24.4 141 24.4 C 140.9 25.4 140.6 26.1 140.1 26.6 C 139.5 27.2 138.6 27.5 137.5 27.5 C 134.4 27.5 134 25.6 134 22.9 C 134 20.6 134.4 18.6 137.5 18.6 C 140.8 18.6 141.1 20.6 141 23.4 C 141 23.4 136.4 23.4 136.4 23.4 Z M 141.6 18.7 L 142.6 18.7 L 142.6 17.4 L 145 16.3 L 145 18.7 L 146.2 18.7 L 146.2 20.2 L 145 20.2 C 145 20.2 144.95 24.79 145 24.8 C 145 25.4 144.9 25.9 145.7 25.9 C 145.9 25.9 146 25.9 146.1 25.8 C 146.1 25.8 146.1 27.3 146.1 27.3 C 145.8 27.3 145.5 27.4 144.9 27.4 C 142.8 27.4 142.6 26 142.6 25.5 C 142.55 25.49 142.6 20.2 142.6 20.2 L 141.6 20.2 L 141.6 18.7 Z M 148.6 27.4 L 146.3 18.7 L 148.7 18.7 L 149.9 24.8 L 149.9 24.8 L 151.2 18.7 L 153.6 18.7 L 150.2 30.6 L 147.7 30.6 L 148.6 27.4 Z " stroke="none" fill="#003c71"/>  </g></svg>