<?xml version="1.0" standalone="no"?><!DOCTYPE svg PUBLIC "-//W3C//DTD SVG 1.1//EN" "http://www.w3.org/Graphics/SVG/1.1/DTD/svg11.dtd"><svg xmlns="http://www.w3.org/2000/svg" version="1.1" width="660px" height="41.7px" viewBox="0 -7 660 41.7" style="top:-7px">  <desc>PHASE 3 OLE AE PROFILE3</desc>  <defs/>  <g id="Polygon202291">    <path d="M 3.8 9.1 C 3.8 9.1 5.29 9.13 5.3 9.1 C 7.2 9.1 7.4 8.8 7.4 5.8 C 7.4 2.7 7.2 2.4 5.3 2.4 C 5.29 2.41 3.8 2.4 3.8 2.4 L 3.8 9.1 Z M 1 0.1 C 1 0.1 5.66 0.06 5.7 0.1 C 9.5 0.1 10.2 1.1 10.2 5.8 C 10.2 10.4 9.5 11.5 5.7 11.5 C 5.66 11.48 3.8 11.5 3.8 11.5 L 3.8 20.3 L 1 20.3 L 1 0.1 Z M 11.9 0.1 L 14.7 0.1 L 14.7 8.7 L 18.5 8.7 L 18.5 0.1 L 21.3 0.1 L 21.3 20.3 L 18.5 20.3 L 18.5 11.1 L 14.7 11.1 L 14.7 20.3 L 11.9 20.3 L 11.9 0.1 Z M 27 0.1 L 30.3 0.1 L 34.4 20.3 L 31.6 20.3 L 30.7 15.1 L 26.3 15.1 L 25.4 20.3 L 22.6 20.3 L 27 0.1 Z M 26.7 12.8 L 30.3 12.8 L 28.6 3 L 28.5 3 L 26.7 12.8 Z M 35.4 14.4 L 38.2 14.4 C 38.2 14.4 38.25 16.07 38.2 16.1 C 38.2 17.4 38.8 18.3 39.9 18.3 C 41.4 18.3 41.7 17.2 41.7 15.9 C 41.7 14.2 41.6 13.7 38.7 10.8 C 36.9 9 35.4 7.4 35.4 4.6 C 35.4 1.3 37 -0.1 40 -0.1 C 41.6 -0.1 42.6 0.4 43.3 1 C 43.8 1.5 44.1 2.2 44.1 3.6 C 44.13 3.58 44.1 5.5 44.1 5.5 L 41.5 5.5 C 41.5 5.5 41.5 3.89 41.5 3.9 C 41.5 2.7 41 2.1 39.9 2.1 C 38.8 2.1 38.2 2.7 38.2 4.3 C 38.2 5.7 38.5 6.5 41.1 9.2 C 43.8 12 44.4 13 44.4 15.5 C 44.4 18.6 43.1 20.4 39.8 20.4 C 37.2 20.4 35.4 19.3 35.4 16.8 C 35.45 16.83 35.4 14.4 35.4 14.4 Z M 46.1 0.1 L 53.7 0.1 L 53.7 2.4 L 48.9 2.4 L 48.9 8.7 L 53.5 8.7 L 53.5 11.1 L 48.9 11.1 L 48.9 17.9 L 53.7 17.9 L 53.7 20.3 L 46.1 20.3 L 46.1 0.1 Z M 60.1 14.8 L 62.8 14.8 C 62.8 14.8 62.77 15.9 62.8 15.9 C 62.8 17.5 63.2 18.4 64.3 18.4 C 65.5 18.4 65.9 17.5 65.9 15.9 C 65.9 15.9 65.9 13.5 65.9 13.5 C 65.9 11.7 65.4 11.1 63.5 11.1 C 63.47 11.09 62.8 11.1 62.8 11.1 L 62.8 8.7 C 62.8 8.7 63.67 8.74 63.7 8.7 C 65.4 8.7 65.8 8.3 65.8 6.3 C 65.8 6.3 65.8 4.1 65.8 4.1 C 65.8 2.3 65.2 1.9 64.5 1.9 C 63.3 1.9 62.9 2.8 62.9 4.4 C 62.91 4.42 62.9 5.1 62.9 5.1 C 62.9 5.1 60.28 5.1 60.3 5.1 C 60.3 1.2 61.1 -0.1 64.5 -0.1 C 67.7 -0.1 68.4 1.4 68.4 5.3 C 68.4 8.8 68 9.5 65.9 9.8 C 65.9 9.8 65.9 9.9 65.9 9.9 C 67.7 10.2 68.5 10.6 68.5 15.5 C 68.5 19.1 67.6 20.4 64.3 20.4 C 61 20.4 60.1 19.1 60.1 15.5 C 60.14 15.46 60.1 14.8 60.1 14.8 Z M 78.5 15.6 C 78.5 17.3 79.3 18.3 80.4 18.3 C 81.6 18.3 82.4 17.3 82.4 15.6 C 82.4 15.6 82.4 5 82.4 5 C 82.4 3 81.7 2.1 80.4 2.1 C 79.2 2.1 78.5 3 78.5 5 C 78.5 5 78.5 15.6 78.5 15.6 Z M 75.7 5.2 C 75.7 2.4 76.6 -0.1 80.4 -0.1 C 84 -0.1 85.2 1.8 85.2 4.9 C 85.2 4.9 85.2 15.1 85.2 15.1 C 85.2 17.9 84.3 20.4 80.4 20.4 C 76.8 20.4 75.7 18.6 75.7 15.4 C 75.7 15.4 75.7 5.2 75.7 5.2 Z M 87.2 0.1 L 90 0.1 L 90 17.9 L 94.7 17.9 L 94.7 20.3 L 87.2 20.3 L 87.2 0.1 Z M 96 0.1 L 103.6 0.1 L 103.6 2.4 L 98.8 2.4 L 98.8 8.7 L 103.3 8.7 L 103.3 11.1 L 98.8 11.1 L 98.8 17.9 L 103.6 17.9 L 103.6 20.3 L 96 20.3 L 96 0.1 Z M 112.7 0.1 L 115.9 0.1 L 120.1 20.3 L 117.3 20.3 L 116.3 15.1 L 112 15.1 L 111 20.3 L 108.2 20.3 L 112.7 0.1 Z M 112.4 12.8 L 115.9 12.8 L 114.2 3 L 114.2 3 L 112.4 12.8 Z M 121.4 0.1 L 129 0.1 L 129 2.4 L 124.2 2.4 L 124.2 8.7 L 128.7 8.7 L 128.7 11.1 L 124.2 11.1 L 124.2 17.9 L 129 17.9 L 129 20.3 L 121.4 20.3 L 121.4 0.1 Z M 138.2 9.1 C 138.2 9.1 139.69 9.13 139.7 9.1 C 141.6 9.1 141.8 8.8 141.8 5.8 C 141.8 2.7 141.6 2.4 139.7 2.4 C 139.69 2.41 138.2 2.4 138.2 2.4 L 138.2 9.1 Z M 135.4 0.1 C 135.4 0.1 140.05 0.06 140.1 0.1 C 143.9 0.1 144.6 1.1 144.6 5.8 C 144.6 10.4 143.9 11.5 140.1 11.5 C 140.05 11.48 138.2 11.5 138.2 11.5 L 138.2 20.3 L 135.4 20.3 L 135.4 0.1 Z M 146.3 0.1 C 146.3 0.1 150.66 0.06 150.7 0.1 C 154.8 0.1 155.2 1.1 155.2 5.6 C 155.2 8.3 154.8 9.5 152.5 10.2 C 152.5 10.2 152.5 10.2 152.5 10.2 C 154.4 10.4 155.1 11.4 155.1 13.3 C 155.1 13.3 155.1 17.7 155.1 17.7 C 155.1 18.4 155.1 19.4 155.2 20.3 C 155.2 20.3 152.6 20.3 152.6 20.3 C 152.3 19.8 152.3 19.3 152.3 18.5 C 152.3 18.5 152.3 13.9 152.3 13.9 C 152.3 12 151.9 11.5 150.1 11.5 C 150.08 11.48 149.1 11.5 149.1 11.5 L 149.1 20.3 L 146.3 20.3 L 146.3 0.1 Z M 149.1 9.1 C 149.1 9.1 149.85 9.13 149.9 9.1 C 152.1 9.1 152.4 8.7 152.4 5.7 C 152.4 2.7 152.2 2.4 150.5 2.4 C 150.47 2.41 149.1 2.4 149.1 2.4 L 149.1 9.1 Z M 159.9 15.6 C 159.9 17.3 160.7 18.3 161.9 18.3 C 163 18.3 163.8 17.3 163.8 15.6 C 163.8 15.6 163.8 5 163.8 5 C 163.8 3 163.2 2.1 161.9 2.1 C 160.6 2.1 159.9 3 159.9 5 C 159.9 5 159.9 15.6 159.9 15.6 Z M 157.1 5.2 C 157.1 2.4 158.1 -0.1 161.9 -0.1 C 165.5 -0.1 166.6 1.8 166.6 4.9 C 166.6 4.9 166.6 15.1 166.6 15.1 C 166.6 17.9 165.7 20.4 161.9 20.4 C 158.3 20.4 157.1 18.6 157.1 15.4 C 157.1 15.4 157.1 5.2 157.1 5.2 Z M 168.6 0.1 L 176.2 0.1 L 176.2 2.4 L 171.4 2.4 L 171.4 8.7 L 175.9 8.7 L 175.9 11.1 L 171.4 11.1 L 171.4 20.3 L 168.6 20.3 L 168.6 0.1 Z M 177.3 0.1 L 180.1 0.1 L 180.1 20.3 L 177.3 20.3 L 177.3 0.1 Z M 182.1 0.1 L 184.9 0.1 L 184.9 17.9 L 189.6 17.9 L 189.6 20.3 L 182.1 20.3 L 182.1 0.1 Z M 191 0.1 L 198.6 0.1 L 198.6 2.4 L 193.8 2.4 L 193.8 8.7 L 198.3 8.7 L 198.3 11.1 L 193.8 11.1 L 193.8 17.9 L 198.6 17.9 L 198.6 20.3 L 191 20.3 L 191 0.1 Z M 199.3 7.8 L 200.9 7.8 C 200.9 7.8 200.88 8.4 200.9 8.4 C 200.9 9.3 201.1 9.9 201.8 9.9 C 202.4 9.9 202.7 9.3 202.7 8.4 C 202.7 8.4 202.7 7 202.7 7 C 202.7 5.9 202.4 5.6 201.3 5.6 C 201.29 5.59 200.9 5.6 200.9 5.6 L 200.9 4.2 C 200.9 4.2 201.4 4.22 201.4 4.2 C 202.4 4.2 202.6 4 202.6 2.8 C 202.6 2.8 202.6 1.5 202.6 1.5 C 202.6 0.5 202.3 0.2 201.9 0.2 C 201.2 0.2 201 0.8 201 1.7 C 200.96 1.71 201 2.1 201 2.1 C 201 2.1 199.42 2.1 199.4 2.1 C 199.4 -0.2 199.9 -0.9 201.9 -0.9 C 203.8 -0.9 204.2 0 204.2 2.2 C 204.2 4.2 203.9 4.6 202.7 4.9 C 202.7 4.9 202.7 4.9 202.7 4.9 C 203.7 5.1 204.2 5.3 204.2 8.1 C 204.2 10.3 203.7 11 201.8 11 C 199.8 11 199.3 10.3 199.3 8.1 C 199.34 8.14 199.3 7.8 199.3 7.8 Z " stroke="none" fill="#003c71"/>  </g></svg>