<?xml version="1.0" standalone="no"?><!DOCTYPE svg PUBLIC "-//W3C//DTD SVG 1.1//EN" "http://www.w3.org/Graphics/SVG/1.1/DTD/svg11.dtd"><svg xmlns="http://www.w3.org/2000/svg" version="1.1" width="202.4px" height="48.6px" viewBox="0 0 202.4 48.6">  <desc>Phase 3 ANDEMBRY® rollover patients (n=36)</desc>  <defs/>  <g id="Polygon199060">    <path d="M 30.7 29.3 L 30.7 30.4 C 30.7 30.4 30.71 30.37 30.7 30.4 C 31.1 29.5 31.9 29.2 32.8 29.2 C 32.8 29.2 32.8 31.2 32.8 31.2 C 30.8 31 30.8 32.2 30.8 33 C 30.79 32.97 30.8 37.3 30.8 37.3 L 28.6 37.3 L 28.6 29.3 L 30.7 29.3 Z M 37.9 33.1 C 37.9 31.4 37.8 30.6 36.9 30.6 C 35.9 30.6 35.9 31.4 35.9 33.1 C 35.9 35.5 36.1 36 36.9 36 C 37.7 36 37.9 35.5 37.9 33.1 Z M 33.6 33.2 C 33.6 31 33.9 29.2 36.9 29.2 C 39.8 29.2 40.1 31 40.1 33.2 C 40.1 35.7 39.7 37.5 36.9 37.5 C 34 37.5 33.6 35.7 33.6 33.2 Z M 44.1 25.9 L 44.1 37.3 L 41.9 37.3 L 41.9 25.9 L 44.1 25.9 Z M 48.5 25.9 L 48.5 37.3 L 46.3 37.3 L 46.3 25.9 L 48.5 25.9 Z M 54.5 33.1 C 54.5 31.4 54.5 30.6 53.5 30.6 C 52.6 30.6 52.5 31.4 52.5 33.1 C 52.5 35.5 52.7 36 53.5 36 C 54.3 36 54.5 35.5 54.5 33.1 Z M 50.3 33.2 C 50.3 31 50.6 29.2 53.5 29.2 C 56.4 29.2 56.8 31 56.8 33.2 C 56.8 35.7 56.4 37.5 53.5 37.5 C 50.6 37.5 50.3 35.7 50.3 33.2 Z M 57.6 29.3 L 59.8 29.3 L 61 35.3 L 61 35.3 L 62.2 29.3 L 64.3 29.3 L 62.1 37.3 L 59.7 37.3 L 57.6 29.3 Z M 69.4 32.4 C 69.4 31.7 69.4 30.6 68.4 30.6 C 67.4 30.6 67.4 31.8 67.4 32.4 C 67.4 32.4 69.4 32.4 69.4 32.4 Z M 67.4 33.7 C 67.4 34.6 67.4 36 68.4 36 C 69.2 36 69.3 35.3 69.3 34.6 C 69.3 34.6 71.6 34.6 71.6 34.6 C 71.6 35.5 71.3 36.2 70.7 36.7 C 70.2 37.2 69.4 37.5 68.4 37.5 C 65.5 37.5 65.1 35.7 65.1 33.2 C 65.1 31 65.5 29.2 68.4 29.2 C 71.4 29.2 71.7 31.1 71.6 33.7 C 71.6 33.7 67.4 33.7 67.4 33.7 Z M 75.3 29.3 L 75.3 30.4 C 75.3 30.4 75.36 30.37 75.4 30.4 C 75.8 29.5 76.5 29.2 77.4 29.2 C 77.4 29.2 77.4 31.2 77.4 31.2 C 75.5 31 75.4 32.2 75.4 33 C 75.43 32.97 75.4 37.3 75.4 37.3 L 73.2 37.3 L 73.2 29.3 L 75.3 29.3 Z M 86 33.3 C 86 31.7 86 30.6 85.1 30.6 C 84.2 30.6 84.2 31.7 84.2 33.3 C 84.2 35.3 84.3 36.1 85.1 36.1 C 85.9 36.1 86 35.3 86 33.3 Z M 84.1 29.3 L 84.1 30.2 C 84.1 30.2 84.1 30.23 84.1 30.2 C 84.5 29.5 85.1 29.2 86 29.2 C 88.3 29.2 88.2 31.7 88.2 33.4 C 88.2 35 88.3 37.5 86 37.5 C 85.2 37.5 84.7 37.2 84.2 36.5 C 84.21 36.55 84.2 36.5 84.2 36.5 L 84.2 40.7 L 82 40.7 L 82 29.3 L 84.1 29.3 Z M 91.8 34.8 C 91.8 35.4 91.9 36.1 92.6 36.1 C 93.9 36.1 93.7 34.3 93.7 33.5 C 92.6 33.5 91.8 33.4 91.8 34.8 Z M 95.9 35.8 C 95.9 36.3 95.9 36.8 96 37.3 C 95.98 37.3 93.9 37.3 93.9 37.3 L 93.8 36.2 C 93.8 36.2 93.79 36.25 93.8 36.2 C 93.3 37.1 92.7 37.5 91.7 37.5 C 90.2 37.5 89.6 36.3 89.6 34.9 C 89.6 32.3 91.6 32.2 93.7 32.2 C 93.7 32.2 93.7 31.6 93.7 31.6 C 93.7 30.9 93.6 30.4 92.8 30.4 C 92 30.4 92 31 92 31.6 C 92 31.6 89.8 31.6 89.8 31.6 C 89.8 30.7 90.1 30.1 90.6 29.7 C 91.1 29.3 91.8 29.2 92.7 29.2 C 95.5 29.2 95.9 30.4 95.9 31.9 C 95.9 31.9 95.9 35.8 95.9 35.8 Z M 96.8 29.3 L 97.7 29.3 L 97.7 28.1 L 99.9 27.1 L 99.9 29.3 L 101.1 29.3 L 101.1 30.7 L 99.9 30.7 C 99.9 30.7 99.94 34.97 99.9 35 C 99.9 35.6 99.9 36 100.6 36 C 100.8 36 100.9 36 101 35.9 C 101 35.9 101 37.3 101 37.3 C 100.7 37.3 100.4 37.4 99.9 37.4 C 98 37.4 97.7 36.1 97.7 35.6 C 97.72 35.62 97.7 30.7 97.7 30.7 L 96.8 30.7 L 96.8 29.3 Z M 104.5 37.3 L 102.3 37.3 L 102.3 29.3 L 104.5 29.3 L 104.5 37.3 Z M 104.5 25.9 L 104.5 27.7 L 102.3 27.7 L 102.3 25.9 L 104.5 25.9 Z M 110.6 32.4 C 110.6 31.7 110.6 30.6 109.5 30.6 C 108.5 30.6 108.5 31.8 108.5 32.4 C 108.5 32.4 110.6 32.4 110.6 32.4 Z M 108.5 33.7 C 108.5 34.6 108.6 36 109.5 36 C 110.3 36 110.5 35.3 110.5 34.6 C 110.5 34.6 112.7 34.6 112.7 34.6 C 112.7 35.5 112.4 36.2 111.9 36.7 C 111.4 37.2 110.6 37.5 109.5 37.5 C 106.7 37.5 106.3 35.7 106.3 33.2 C 106.3 31 106.6 29.2 109.5 29.2 C 112.5 29.2 112.9 31.1 112.8 33.7 C 112.8 33.7 108.5 33.7 108.5 33.7 Z M 116.6 30.1 C 116.6 30.1 116.61 30.15 116.6 30.1 C 116.8 29.8 117.1 29.6 117.4 29.4 C 117.7 29.3 118.1 29.2 118.5 29.2 C 119.5 29.2 120.5 29.8 120.5 30.9 C 120.47 30.92 120.5 37.3 120.5 37.3 L 118.2 37.3 C 118.2 37.3 118.25 31.82 118.2 31.8 C 118.2 31.1 118.1 30.6 117.4 30.6 C 116.7 30.6 116.6 31.1 116.6 31.8 C 116.58 31.82 116.6 37.3 116.6 37.3 L 114.4 37.3 L 114.4 29.3 L 116.6 29.3 L 116.6 30.1 Z M 121.3 29.3 L 122.2 29.3 L 122.2 28.1 L 124.5 27.1 L 124.5 29.3 L 125.6 29.3 L 125.6 30.7 L 124.5 30.7 C 124.5 30.7 124.46 34.97 124.5 35 C 124.5 35.6 124.4 36 125.2 36 C 125.3 36 125.4 36 125.6 35.9 C 125.6 35.9 125.6 37.3 125.6 37.3 C 125.3 37.3 124.9 37.4 124.4 37.4 C 122.5 37.4 122.2 36.1 122.2 35.6 C 122.24 35.62 122.2 30.7 122.2 30.7 L 121.3 30.7 L 121.3 29.3 Z M 128.4 34.8 C 128.3 35.1 128.4 35.5 128.5 35.7 C 128.6 36 128.8 36.1 129.3 36.1 C 129.7 36.1 130.1 35.8 130.1 35.3 C 130.1 33.6 126.2 34 126.2 31.4 C 126.2 29.7 127.9 29.2 129.3 29.2 C 130.8 29.2 132.2 29.9 132.1 31.6 C 132.1 31.6 129.9 31.6 129.9 31.6 C 129.9 31.1 129.8 30.7 129.7 30.6 C 129.5 30.5 129.4 30.4 129.1 30.4 C 128.6 30.4 128.4 30.7 128.4 31.3 C 128.4 32.5 132.3 32.5 132.3 35 C 132.3 36.4 131.1 37.5 129.3 37.5 C 127.4 37.5 126.1 37 126.2 34.8 C 126.2 34.8 128.4 34.8 128.4 34.8 Z M 139.7 25.4 C 139.2 27.3 138.6 29.7 138.6 32.2 C 138.6 35 139.3 37.2 139.7 39.2 C 139.7 39.2 138.4 39.2 138.4 39.2 C 137.7 37 136.7 34.5 136.7 32.2 C 136.7 29.8 137.8 27 138.4 25.4 C 138.4 25.4 139.7 25.4 139.7 25.4 Z M 143.7 30.1 C 143.7 30.1 143.74 30.15 143.7 30.1 C 144 29.8 144.2 29.6 144.5 29.4 C 144.8 29.3 145.2 29.2 145.6 29.2 C 146.7 29.2 147.6 29.8 147.6 30.9 C 147.6 30.92 147.6 37.3 147.6 37.3 L 145.4 37.3 C 145.4 37.3 145.38 31.82 145.4 31.8 C 145.4 31.1 145.3 30.6 144.5 30.6 C 143.8 30.6 143.7 31.1 143.7 31.8 C 143.71 31.82 143.7 37.3 143.7 37.3 L 141.5 37.3 L 141.5 29.3 L 143.7 29.3 L 143.7 30.1 Z M 156 32.7 L 148.9 32.7 L 148.9 30.9 L 156 30.9 L 156 32.7 Z M 156 35.7 L 148.9 35.7 L 148.9 34 L 156 34 L 156 35.7 Z M 156.7 29 C 156.7 27.9 156.9 27.2 157.4 26.7 C 157.9 26.3 158.7 26.2 159.8 26.2 C 161.9 26.2 162.8 27 162.8 29.1 C 162.8 30.1 162.5 31.4 161.3 31.5 C 161.3 31.5 161.3 31.6 161.3 31.6 C 162.8 31.8 163 33 163 34.2 C 163 36.5 161.8 37.4 159.6 37.4 C 157.4 37.4 156.6 36.7 156.6 34.3 C 156.6 34.3 158.8 34.3 158.8 34.3 C 158.8 35 158.7 35.8 159.7 35.8 C 160.7 35.8 160.8 34.9 160.8 34.1 C 160.8 32.5 160.3 32.4 158.7 32.4 C 158.7 32.4 158.7 30.7 158.7 30.7 C 160.2 30.8 160.6 30.6 160.6 29.1 C 160.6 28.5 160.5 27.8 159.8 27.8 C 159 27.8 158.9 28.4 158.9 29 C 158.9 29 156.7 29 156.7 29 Z M 167.8 33.7 C 167.8 32.3 167.6 31.7 166.8 31.7 C 165.9 31.7 165.9 32.5 165.9 33.9 C 165.9 34.5 165.9 35.8 166.8 35.8 C 167.6 35.8 167.8 35.4 167.8 33.7 Z M 167.6 28.7 C 167.6 28.4 167.6 28.1 167.5 28 C 167.3 27.8 167.2 27.7 166.8 27.7 C 165.9 27.7 165.8 28.2 165.8 31 C 166.4 30.4 166.8 30.2 167.6 30.2 C 169.6 30.2 170 32 170 33.7 C 170 36 169.2 37.4 166.7 37.4 C 163.9 37.4 163.7 35 163.7 32.7 C 163.7 28.4 163.9 26.2 167 26.2 C 168.7 26.2 169.9 26.9 169.9 28.7 C 169.9 28.7 167.6 28.7 167.6 28.7 Z M 171.3 39.2 C 171.8 37.3 172.3 34.9 172.3 32.4 C 172.3 29.6 171.7 27.4 171.3 25.4 C 171.3 25.4 172.5 25.4 172.5 25.4 C 173.3 27.6 174.2 30.1 174.2 32.4 C 174.2 34.8 173.2 37.6 172.5 39.2 C 172.5 39.2 171.3 39.2 171.3 39.2 Z " stroke="none" fill="#fff"/>  </g>  <g id="Polygon199059">    <path d="M 35.3 12 C 35.3 12 36.58 12.01 36.6 12 C 37.3 12 37.8 11.2 37.8 10.5 C 37.8 9.6 37.5 8.8 36.5 8.8 C 36.45 8.76 35.3 8.8 35.3 8.8 L 35.3 12 Z M 32.9 7 C 32.9 7 37.16 7.02 37.2 7 C 39.3 7 40.2 8.3 40.2 10.4 C 40.2 11.7 39.8 13.8 37 13.8 C 37.02 13.76 35.3 13.8 35.3 13.8 L 35.3 18.4 L 32.9 18.4 L 32.9 7 Z M 45.4 18.4 C 45.4 18.4 45.4 12.91 45.4 12.9 C 45.4 12.2 45.3 11.6 44.6 11.6 C 43.9 11.6 43.7 12.2 43.7 12.9 C 43.73 12.91 43.7 18.4 43.7 18.4 L 41.5 18.4 L 41.5 7 L 43.7 7 L 43.7 11.2 C 43.7 11.2 43.76 11.24 43.8 11.2 C 44 10.9 44.3 10.6 44.6 10.5 C 44.9 10.3 45.2 10.3 45.6 10.3 C 46.7 10.3 47.6 10.9 47.6 12 C 47.62 12.01 47.6 18.4 47.6 18.4 L 45.4 18.4 Z M 51.3 15.9 C 51.3 16.5 51.4 17.2 52.1 17.2 C 53.5 17.2 53.3 15.4 53.3 14.5 C 52.1 14.6 51.3 14.5 51.3 15.9 Z M 55.4 16.9 C 55.4 17.4 55.5 17.9 55.5 18.4 C 55.53 18.39 53.5 18.4 53.5 18.4 L 53.4 17.3 C 53.4 17.3 53.35 17.34 53.3 17.3 C 52.9 18.2 52.2 18.5 51.3 18.5 C 49.7 18.5 49.2 17.4 49.2 16 C 49.2 13.4 51.2 13.3 53.3 13.3 C 53.3 13.3 53.3 12.7 53.3 12.7 C 53.3 12 53.2 11.5 52.4 11.5 C 51.6 11.5 51.5 12.1 51.5 12.7 C 51.5 12.7 49.3 12.7 49.3 12.7 C 49.3 11.8 49.6 11.2 50.2 10.8 C 50.7 10.4 51.4 10.3 52.2 10.3 C 55.1 10.3 55.4 11.5 55.4 12.9 C 55.4 12.9 55.4 16.9 55.4 16.9 Z M 59 15.8 C 59 16.2 59 16.5 59.1 16.8 C 59.3 17.1 59.5 17.2 59.9 17.2 C 60.4 17.2 60.8 16.9 60.8 16.4 C 60.8 14.7 56.8 15.1 56.8 12.5 C 56.8 10.8 58.5 10.3 60 10.3 C 61.5 10.3 62.9 11 62.7 12.7 C 62.7 12.7 60.6 12.7 60.6 12.7 C 60.6 12.2 60.5 11.8 60.3 11.7 C 60.2 11.6 60 11.5 59.8 11.5 C 59.3 11.5 59 11.8 59 12.4 C 59 13.6 62.9 13.6 62.9 16.1 C 62.9 17.5 61.8 18.5 59.9 18.5 C 58 18.5 56.7 18.1 56.8 15.8 C 56.8 15.8 59 15.8 59 15.8 Z M 68.3 13.5 C 68.3 12.8 68.4 11.6 67.3 11.6 C 66.3 11.6 66.3 12.8 66.3 13.5 C 66.3 13.5 68.3 13.5 68.3 13.5 Z M 66.3 14.8 C 66.3 15.7 66.3 17.1 67.3 17.1 C 68.1 17.1 68.3 16.4 68.3 15.7 C 68.3 15.7 70.5 15.7 70.5 15.7 C 70.5 16.6 70.2 17.3 69.7 17.8 C 69.1 18.3 68.4 18.5 67.3 18.5 C 64.5 18.5 64.1 16.8 64.1 14.3 C 64.1 12.1 64.4 10.3 67.3 10.3 C 70.3 10.3 70.6 12.2 70.6 14.8 C 70.6 14.8 66.3 14.8 66.3 14.8 Z M 75.1 10.1 C 75.1 9 75.3 8.3 75.8 7.8 C 76.3 7.4 77.1 7.3 78.2 7.3 C 80.3 7.3 81.2 8.1 81.2 10.2 C 81.2 11.2 80.9 12.5 79.7 12.6 C 79.7 12.6 79.7 12.7 79.7 12.7 C 81.2 12.9 81.4 14.1 81.4 15.3 C 81.4 17.6 80.2 18.5 78 18.5 C 75.8 18.5 74.9 17.8 74.9 15.4 C 74.9 15.4 77.2 15.4 77.2 15.4 C 77.2 16.1 77.1 16.9 78.1 16.9 C 79.1 16.9 79.2 16 79.2 15.2 C 79.2 13.6 78.7 13.5 77.1 13.5 C 77.1 13.5 77.1 11.8 77.1 11.8 C 78.6 11.9 79 11.7 79 10.2 C 79 9.6 78.9 8.9 78.2 8.9 C 77.4 8.9 77.3 9.5 77.3 10.1 C 77.3 10.1 75.1 10.1 75.1 10.1 Z M 85.4 18.4 L 88.5 7 L 91.7 7 L 94.8 18.4 L 92.2 18.4 L 91.6 15.9 L 88.4 15.9 L 87.7 18.4 L 85.4 18.4 Z M 90 9.2 L 89.9 9.2 L 88.8 14.1 L 91.1 14.1 L 90 9.2 Z M 95.9 18.4 L 95.9 7 L 99.1 7 L 102.1 14.9 L 102.2 14.9 L 102.2 7 L 104.4 7 L 104.4 18.4 L 101.2 18.4 L 98.1 10.1 L 98.1 10.1 L 98.1 18.4 L 95.9 18.4 Z M 108.8 16.6 C 108.8 16.6 109.96 16.65 110 16.6 C 111.4 16.6 111.7 15.6 111.7 12.7 C 111.7 10.6 111.7 8.8 110 8.8 C 110.04 8.76 108.8 8.8 108.8 8.8 L 108.8 16.6 Z M 106.4 7 C 106.4 7 110.4 7.02 110.4 7 C 113.5 7 114.1 9.1 114.1 12.6 C 114.1 14.4 114.4 18.4 110.3 18.4 C 110.31 18.39 106.4 18.4 106.4 18.4 L 106.4 7 Z M 116 18.4 L 116 7 L 122.2 7 L 122.2 8.8 L 118.4 8.8 L 118.4 11.6 L 121.9 11.6 L 121.9 13.3 L 118.4 13.3 L 118.4 16.6 L 122.3 16.6 L 122.3 18.4 L 116 18.4 Z M 123.8 18.4 L 123.8 7 L 127.7 7 L 129.5 14.8 L 129.5 14.8 L 131.4 7 L 135.1 7 L 135.1 18.4 L 132.8 18.4 L 132.8 9.6 L 132.7 9.6 L 130.5 18.4 L 128.3 18.4 L 126.2 9.6 L 126.2 9.6 L 126.2 18.4 L 123.8 18.4 Z M 139.4 16.6 C 139.4 16.6 140.75 16.65 140.7 16.6 C 141.3 16.6 142.4 16.6 142.4 15 C 142.4 14 142 13.4 140.8 13.4 C 140.81 13.41 139.4 13.4 139.4 13.4 L 139.4 16.6 Z M 139.4 11.7 C 139.4 11.7 141.02 11.67 141 11.7 C 141.5 11.7 142.3 11.3 142.3 10.2 C 142.3 9.4 141.7 8.8 140.9 8.8 C 140.89 8.76 139.4 8.8 139.4 8.8 L 139.4 11.7 Z M 137 18.4 L 137 7 C 137 7 141.27 7.02 141.3 7 C 143.1 7 144.6 7.5 144.6 10 C 144.6 11.3 143.9 12.2 142.6 12.5 C 142.6 12.5 142.6 12.5 142.6 12.5 C 144.3 12.7 144.8 13.8 144.8 15.4 C 144.8 18.3 142.3 18.4 141.3 18.4 C 141.25 18.39 137 18.4 137 18.4 Z M 149 11.9 C 149 11.9 150.03 11.93 150 11.9 C 151 11.9 151.2 11 151.2 10.3 C 151.2 9.2 150.8 8.8 150 8.8 C 150.03 8.76 149 8.8 149 8.8 L 149 11.9 Z M 149 18.4 L 146.6 18.4 L 146.6 7 C 146.6 7 150.99 7.02 151 7 C 152.6 7 153.7 8.1 153.7 10 C 153.7 11.4 153.1 12.5 151.5 12.8 C 151.5 12.8 151.5 12.8 151.5 12.8 C 152.1 12.9 153.6 13 153.6 15.1 C 153.6 15.8 153.7 17.9 153.9 18.4 C 153.9 18.4 151.5 18.4 151.5 18.4 C 151.2 17.7 151.3 16.9 151.3 16.2 C 151.3 14.8 151.4 13.7 149.6 13.7 C 149.59 13.68 149 13.7 149 13.7 L 149 18.4 Z M 157.3 14.5 L 154.3 7 L 156.9 7 L 158.6 11.8 L 160.4 7 L 162.8 7 L 159.6 14.5 L 159.6 18.4 L 157.3 18.4 L 157.3 14.5 Z M 170.2 9.8 C 170.2 11.7 168.7 13.3 166.8 13.3 C 164.9 13.3 163.3 11.7 163.3 9.8 C 163.3 7.9 164.9 6.4 166.8 6.4 C 168.7 6.4 170.2 7.9 170.2 9.8 Z M 169.5 9.8 C 169.5 8.3 168.3 7 166.8 7 C 165.2 7 164 8.3 164 9.8 C 164 11.4 165.2 12.6 166.8 12.6 C 168.3 12.6 169.5 11.4 169.5 9.8 Z M 166.3 11.8 L 165.4 11.8 L 165.4 7.8 C 165.4 7.8 167.09 7.82 167.1 7.8 C 167.7 7.8 168.1 8.2 168.1 8.9 C 168.1 9.4 167.9 9.7 167.3 9.8 C 167.3 9.8 167.3 9.9 167.3 9.9 C 167.5 9.9 168.1 9.9 168.1 10.6 C 168.1 10.9 168.1 11.6 168.2 11.8 C 168.2 11.8 167.3 11.8 167.3 11.8 C 167.2 11.6 167.2 11.3 167.2 11 C 167.2 10.6 167.3 10.2 166.6 10.2 C 166.56 10.15 166.3 10.2 166.3 10.2 L 166.3 11.8 Z M 166.3 9.6 C 166.3 9.6 166.73 9.59 166.7 9.6 C 167.1 9.6 167.2 9.3 167.2 9 C 167.2 8.6 167 8.5 166.7 8.5 C 166.73 8.48 166.3 8.5 166.3 8.5 L 166.3 9.6 Z " stroke="none" fill="#fff"/>  </g></svg>