<?xml version="1.0" standalone="no"?><!DOCTYPE svg PUBLIC "-//W3C//DTD SVG 1.1//EN" "http://www.w3.org/Graphics/SVG/1.1/DTD/svg11.dtd"><svg xmlns="http://www.w3.org/2000/svg" version="1.1" width="356px" height="86px" viewBox="0 0 356 86">  <desc>Reference: 1. ANDEMBRY® SmPC BELUX; 02/2025.</desc>  <defs/>  <g id="Polygon203644">    <path d="M 35.2 53.6 L 34.2 53.6 L 34.2 47.1 L 33 47.8 C 33 47.8 33.02 46.87 33 46.9 C 33.3 46.8 34 46.2 34.3 46 C 34.31 45.96 35.2 46 35.2 46 L 35.2 53.6 Z M 38.6 53.6 L 37.6 53.6 L 37.6 52.4 L 38.6 52.4 L 38.6 53.6 Z M 44.5 45.7 L 45.7 45.7 L 48.3 53.6 L 47.2 53.6 L 46.6 51.7 L 43.5 51.7 L 43 53.6 L 41.9 53.6 L 44.5 45.7 Z M 45.1 46.6 L 45 46.6 L 43.8 50.8 L 46.3 50.8 L 45.1 46.6 Z M 54.9 45.7 L 54.9 53.6 L 53.5 53.6 L 50.4 46.7 L 50.3 46.7 L 50.3 53.6 L 49.4 53.6 L 49.4 45.7 L 50.9 45.7 L 54 52.4 L 54 52.4 L 54 45.7 L 54.9 45.7 Z M 57.7 52.7 C 57.7 52.7 58.71 52.71 58.7 52.7 C 60.1 52.7 60.6 52.2 60.6 50.3 C 60.6 50.3 60.6 48.7 60.6 48.7 C 60.6 47.1 60.1 46.5 59.1 46.5 C 59.08 46.53 57.7 46.5 57.7 46.5 L 57.7 52.7 Z M 56.7 45.7 C 56.7 45.7 59.18 45.65 59.2 45.7 C 60.2 45.7 60.9 46 61.3 46.9 C 61.6 47.5 61.7 49.1 61.7 49.4 C 61.7 51.1 61.5 52 61.2 52.6 C 60.8 53.3 60 53.6 58.6 53.6 C 58.56 53.59 56.7 53.6 56.7 53.6 L 56.7 45.7 Z M 63.4 53.6 L 63.4 45.7 L 67.5 45.7 L 67.5 46.5 L 64.4 46.5 L 64.4 49.1 L 67.3 49.1 L 67.3 50 L 64.4 50 L 64.4 52.7 L 67.6 52.7 L 67.6 53.6 L 63.4 53.6 Z M 69.9 53.6 L 68.9 53.6 L 68.9 45.7 L 70.6 45.7 L 72.6 52.3 L 72.6 52.3 L 74.6 45.7 L 76.3 45.7 L 76.3 53.6 L 75.3 53.6 L 75.3 46.5 L 75.3 46.5 L 73.1 53.6 L 72.1 53.6 L 69.9 46.5 L 69.9 46.5 L 69.9 53.6 Z M 79.2 52.7 C 79.2 52.7 80.64 52.71 80.6 52.7 C 81.7 52.7 82.1 51.9 82.1 51.4 C 82.1 50.1 81.3 49.9 80.3 49.9 C 80.29 49.87 79.2 49.9 79.2 49.9 L 79.2 52.7 Z M 79.2 49 C 79.2 49 80.69 49 80.7 49 C 81.5 49 81.9 48.5 81.9 47.7 C 81.9 47.1 81.5 46.5 80.6 46.5 C 80.64 46.53 79.2 46.5 79.2 46.5 L 79.2 49 Z M 78.2 53.6 L 78.2 45.7 C 78.2 45.7 80.78 45.65 80.8 45.7 C 81.9 45.7 82.3 46 82.6 46.5 C 82.8 46.9 82.9 47.4 82.9 47.5 C 82.9 48.5 82.5 49.2 81.5 49.4 C 81.5 49.4 81.5 49.5 81.5 49.5 C 82.6 49.6 83.1 50.3 83.1 51.4 C 83.1 53.4 81.7 53.6 80.8 53.6 C 80.75 53.59 78.2 53.6 78.2 53.6 Z M 85.8 49.1 C 85.8 49.1 87.33 49.06 87.3 49.1 C 88.1 49.1 88.4 48.4 88.4 47.7 C 88.4 47.2 88.1 46.5 87.3 46.5 C 87.34 46.53 85.8 46.5 85.8 46.5 L 85.8 49.1 Z M 85.8 49.9 L 85.8 53.6 L 84.8 53.6 L 84.8 45.7 C 84.8 45.7 87.54 45.65 87.5 45.7 C 88.9 45.7 89.4 46.6 89.4 47.6 C 89.4 48.6 88.9 49.3 88 49.4 C 88 49.4 88 49.5 88 49.5 C 88.9 49.6 89.2 49.9 89.3 51.5 C 89.3 51.9 89.4 53.1 89.6 53.6 C 89.6 53.6 88.5 53.6 88.5 53.6 C 88.2 53 88.3 52 88.2 51 C 88.1 50 87.3 49.9 87 49.9 C 87 49.94 85.8 49.9 85.8 49.9 Z M 94.4 45.7 L 95.4 45.7 L 93.3 50.6 L 93.3 53.6 L 92.3 53.6 L 92.3 50.6 L 90.1 45.7 L 91.3 45.7 L 92.8 49.5 L 94.4 45.7 Z M 100.5 47.6 C 100.5 49 99.4 50 98.1 50 C 96.8 50 95.7 49 95.7 47.6 C 95.7 46.3 96.8 45.2 98.1 45.2 C 99.4 45.2 100.5 46.3 100.5 47.6 Z M 96.1 47.6 C 96.1 48.8 97 49.7 98.1 49.7 C 99.3 49.7 100.2 48.8 100.2 47.6 C 100.2 46.5 99.3 45.6 98.1 45.6 C 97 45.6 96.1 46.5 96.1 47.6 Z M 97.7 49 L 97.2 49 L 97.2 46.2 C 97.2 46.2 98.32 46.23 98.3 46.2 C 98.8 46.2 99.1 46.6 99.1 46.9 C 99.1 47.2 98.8 47.5 98.5 47.6 C 98.5 47.6 98.5 47.6 98.5 47.6 C 98.8 47.6 99 47.7 99 48.3 C 99 48.4 99 48.8 99.1 49 C 99.1 49 98.6 49 98.6 49 C 98.5 48.8 98.6 48.5 98.5 48.1 C 98.5 47.8 98.2 47.8 98.1 47.8 C 98.11 47.77 97.7 47.8 97.7 47.8 L 97.7 49 Z M 97.7 47.4 C 97.7 47.4 98.24 47.41 98.2 47.4 C 98.5 47.4 98.6 47.2 98.6 47 C 98.6 46.8 98.5 46.5 98.2 46.5 C 98.24 46.54 97.7 46.5 97.7 46.5 L 97.7 47.4 Z M 104.8 51.2 C 104.8 51.2 104.79 51.46 104.8 51.5 C 104.8 52.5 105.5 52.9 106.1 52.9 C 106.9 52.9 107.5 52.5 107.5 51.6 C 107.5 49.8 104 50 104 47.6 C 104 46.2 105 45.5 106.3 45.5 C 107.8 45.5 108.6 46.2 108.5 47.8 C 108.5 47.8 107.5 47.8 107.5 47.8 C 107.5 46.9 107.2 46.4 106.2 46.4 C 105.6 46.4 105 46.7 105 47.5 C 105 49.3 108.6 49 108.6 51.5 C 108.6 53.2 107.4 53.8 106.1 53.8 C 103.8 53.8 103.8 52 103.8 51.2 C 103.79 51.23 104.8 51.2 104.8 51.2 Z M 112.8 53.6 C 112.8 53.6 112.75 49.74 112.8 49.7 C 112.8 49.2 112.6 48.7 111.9 48.7 C 111.6 48.7 111.2 48.8 111.1 49 C 110.9 49.3 110.9 49.6 110.9 49.9 C 110.88 49.85 110.9 53.6 110.9 53.6 L 110 53.6 C 110 53.6 109.98 49.19 110 49.2 C 110 48.8 110 48.4 109.9 48 C 109.93 48.04 110.9 48 110.9 48 L 110.9 48.7 C 110.9 48.7 110.91 48.73 110.9 48.7 C 111.2 48.1 111.6 47.9 112.3 47.9 C 112.8 47.9 113.4 48.1 113.6 48.6 C 113.9 48 114.4 47.9 114.9 47.9 C 115.5 47.9 116.4 48.1 116.4 49.4 C 116.43 49.37 116.4 53.6 116.4 53.6 L 115.5 53.6 C 115.5 53.6 115.53 49.74 115.5 49.7 C 115.5 49.2 115.4 48.7 114.6 48.7 C 114.3 48.7 114.2 48.7 114 48.9 C 113.7 49.1 113.7 49.6 113.7 49.9 C 113.66 49.85 113.7 53.6 113.7 53.6 L 112.8 53.6 Z M 119.2 49.2 C 119.2 49.2 120.32 49.22 120.3 49.2 C 120.7 49.2 121.7 49.1 121.7 47.9 C 121.7 46.7 120.8 46.5 120.6 46.5 C 120.61 46.53 119.2 46.5 119.2 46.5 L 119.2 49.2 Z M 118.2 53.6 L 118.2 45.7 C 118.2 45.7 120.55 45.65 120.6 45.7 C 121.6 45.7 122.8 46 122.8 47.9 C 122.8 49.7 121.4 50.1 120.5 50.1 C 120.54 50.09 119.2 50.1 119.2 50.1 L 119.2 53.6 L 118.2 53.6 Z M 127.7 47.8 C 127.7 47.4 127.7 46.9 127.5 46.7 C 127.2 46.4 126.8 46.3 126.6 46.3 C 125.7 46.3 125.4 46.8 125.4 47 C 125.3 47 125.1 47.2 125.1 48.6 C 125.1 48.6 125.1 50.7 125.1 50.7 C 125.1 52.7 125.8 52.9 126.5 52.9 C 126.9 52.9 127.8 52.8 127.8 51.3 C 127.8 51.3 128.8 51.3 128.8 51.3 C 128.9 53.8 127.1 53.8 126.6 53.8 C 125.6 53.8 124.1 53.7 124.1 50.6 C 124.1 50.6 124.1 48.4 124.1 48.4 C 124.1 46.1 125.1 45.5 126.6 45.5 C 128.2 45.5 128.8 46.3 128.7 47.8 C 128.7 47.8 127.7 47.8 127.7 47.8 Z M 133.9 52.7 C 133.9 52.7 135.28 52.71 135.3 52.7 C 136.4 52.7 136.7 51.9 136.7 51.4 C 136.7 50.1 136 49.9 134.9 49.9 C 134.93 49.87 133.9 49.9 133.9 49.9 L 133.9 52.7 Z M 133.9 49 C 133.9 49 135.33 49 135.3 49 C 136.1 49 136.5 48.5 136.5 47.7 C 136.5 47.1 136.1 46.5 135.3 46.5 C 135.28 46.53 133.9 46.5 133.9 46.5 L 133.9 49 Z M 132.8 53.6 L 132.8 45.7 C 132.8 45.7 135.43 45.65 135.4 45.7 C 136.5 45.7 136.9 46 137.2 46.5 C 137.5 46.9 137.5 47.4 137.5 47.5 C 137.5 48.5 137.2 49.2 136.2 49.4 C 136.2 49.4 136.2 49.5 136.2 49.5 C 137.3 49.6 137.8 50.3 137.8 51.4 C 137.8 53.4 136.3 53.6 135.4 53.6 C 135.39 53.59 132.8 53.6 132.8 53.6 Z M 139.5 53.6 L 139.5 45.7 L 143.6 45.7 L 143.6 46.5 L 140.5 46.5 L 140.5 49.1 L 143.3 49.1 L 143.3 50 L 140.5 50 L 140.5 52.7 L 143.6 52.7 L 143.6 53.6 L 139.5 53.6 Z M 145 53.6 L 145 45.7 L 146 45.7 L 146 52.7 L 148.9 52.7 L 148.9 53.6 L 145 53.6 Z M 149.8 45.7 L 150.8 45.7 C 150.8 45.7 150.82 50.73 150.8 50.7 C 150.8 52.5 151.4 52.9 152.3 52.9 C 153.3 52.9 153.8 52.5 153.8 50.7 C 153.8 50.73 153.8 45.7 153.8 45.7 L 154.8 45.7 C 154.8 45.7 154.81 50.69 154.8 50.7 C 154.8 52.9 154 53.8 152.3 53.8 C 150.6 53.8 149.8 52.9 149.8 50.7 C 149.81 50.69 149.8 45.7 149.8 45.7 Z M 161.7 53.6 L 160.4 53.6 L 158.6 50.2 L 156.8 53.6 L 155.7 53.6 L 158 49.5 L 155.9 45.7 L 157 45.7 L 158.7 48.7 L 160.3 45.7 L 161.4 45.7 L 159.3 49.5 L 161.7 53.6 Z M 162.7 52.4 L 163.9 52.4 L 162.9 55 L 162.2 55 L 162.7 52.4 Z M 163.5 49.2 L 162.5 49.2 L 162.5 48 L 163.5 48 L 163.5 49.2 Z M 171.2 49.8 C 171.2 51.8 171.2 53.8 169.1 53.8 C 167 53.8 167.1 51.8 167.1 49.8 C 167.1 47.8 167 45.8 169.1 45.8 C 171.2 45.8 171.2 47.8 171.2 49.8 Z M 168.1 50 C 168.1 51.3 168 52.9 169.1 52.9 C 170.2 52.9 170.2 51.3 170.2 50 C 170.2 47.9 170.2 46.7 169.1 46.7 C 168.1 46.7 168.1 47.9 168.1 50 Z M 172 53.6 C 172 53.6 172.03 52.71 172 52.7 C 174.3 49.6 174.9 49 174.9 47.7 C 174.9 47.1 174.6 46.7 174 46.7 C 173.2 46.7 173.1 47.3 173.1 47.9 C 173.1 47.9 172.1 47.9 172.1 47.9 C 172 46.7 172.6 45.8 173.9 45.8 C 175.3 45.8 175.9 46.5 175.9 47.8 C 175.9 49.5 175.1 50.1 173.1 52.7 C 173.11 52.71 176.1 52.7 176.1 52.7 L 176.1 53.6 L 172 53.6 Z M 176.9 54.6 L 176.2 54.6 L 178.8 45.7 L 179.5 45.7 L 176.9 54.6 Z M 180 53.6 C 180 53.6 179.97 52.71 180 52.7 C 182.2 49.6 182.9 49 182.9 47.7 C 182.9 47.1 182.6 46.7 181.9 46.7 C 181.2 46.7 181 47.3 181 47.9 C 181 47.9 180 47.9 180 47.9 C 179.9 46.7 180.5 45.8 181.8 45.8 C 183.2 45.8 183.9 46.5 183.9 47.8 C 183.9 49.5 183 50.1 181.1 52.7 C 181.05 52.71 184.1 52.7 184.1 52.7 L 184.1 53.6 L 180 53.6 Z M 188.9 49.8 C 188.9 51.8 188.9 53.8 186.8 53.8 C 184.8 53.8 184.8 51.8 184.8 49.8 C 184.8 47.8 184.7 45.8 186.8 45.8 C 188.9 45.8 188.9 47.8 188.9 49.8 Z M 185.8 50 C 185.8 51.3 185.7 52.9 186.8 52.9 C 187.9 52.9 187.9 51.3 187.9 50 C 187.9 47.9 187.9 46.7 186.8 46.7 C 185.8 46.7 185.8 47.9 185.8 50 Z M 189.7 53.6 C 189.7 53.6 189.74 52.71 189.7 52.7 C 192 49.6 192.6 49 192.6 47.7 C 192.6 47.1 192.3 46.7 191.7 46.7 C 190.9 46.7 190.8 47.3 190.8 47.9 C 190.8 47.9 189.8 47.9 189.8 47.9 C 189.7 46.7 190.3 45.8 191.6 45.8 C 193 45.8 193.6 46.5 193.6 47.8 C 193.6 49.5 192.8 50.1 190.8 52.7 C 190.82 52.71 193.8 52.7 193.8 52.7 L 193.8 53.6 L 189.7 53.6 Z M 198.4 46 L 198.4 46.8 L 195.8 46.8 L 195.8 49.1 C 195.8 49.1 195.83 49.08 195.8 49.1 C 196 48.8 196.5 48.5 197 48.5 C 198.1 48.5 198.6 49.3 198.6 51.1 C 198.6 52.3 198.5 53.8 196.6 53.8 C 195 53.8 194.7 52.9 194.7 51.9 C 194.7 51.9 195.7 51.9 195.7 51.9 C 195.7 52.5 195.9 53 196.6 53 C 197.6 53 197.6 52.1 197.6 51.3 C 197.6 50.2 197.6 49.4 196.6 49.4 C 196.1 49.4 195.8 49.7 195.7 50.2 C 195.71 50.25 194.8 50.2 194.8 50.2 L 194.8 46 L 198.4 46 Z M 200.8 53.6 L 199.7 53.6 L 199.7 52.4 L 200.8 52.4 L 200.8 53.6 Z " stroke="none" fill="#fff"/>  </g>  <g id="Polygon203643">    <path d="M 34.3 31.5 C 34.3 31.5 35.06 31.45 35.1 31.5 C 35.7 31.5 35.9 30.8 35.9 30.3 C 35.9 29.5 35.6 29.2 35.1 29.2 C 35.06 29.24 34.3 29.2 34.3 29.2 L 34.3 31.5 Z M 34.3 36 L 32.7 36 L 32.7 28 C 32.7 28 35.73 28.02 35.7 28 C 36.9 28 37.6 28.7 37.6 30.1 C 37.6 31.1 37.2 31.9 36.1 32 C 36.1 32 36.1 32.1 36.1 32.1 C 36.5 32.1 37.6 32.2 37.6 33.6 C 37.6 34.1 37.6 35.6 37.7 36 C 37.7 36 36.1 36 36.1 36 C 35.9 35.5 35.9 34.9 35.9 34.4 C 35.9 33.5 36 32.7 34.7 32.7 C 34.75 32.67 34.3 32.7 34.3 32.7 L 34.3 36 Z M 41.6 32.6 C 41.6 32 41.6 31.3 40.9 31.3 C 40.2 31.3 40.2 32.1 40.2 32.6 C 40.2 32.6 41.6 32.6 41.6 32.6 Z M 40.2 33.4 C 40.2 34.1 40.2 35.1 40.9 35.1 C 41.4 35.1 41.5 34.6 41.5 34.1 C 41.5 34.1 43.1 34.1 43.1 34.1 C 43.1 34.7 42.9 35.2 42.5 35.5 C 42.1 35.9 41.6 36.1 40.9 36.1 C 38.9 36.1 38.6 34.9 38.6 33.1 C 38.6 31.6 38.8 30.3 40.9 30.3 C 43 30.3 43.2 31.7 43.1 33.4 C 43.1 33.4 40.2 33.4 40.2 33.4 Z M 46.6 29 C 46 28.9 45.9 29.2 45.9 29.7 C 45.86 29.74 45.9 30.4 45.9 30.4 L 46.6 30.4 L 46.6 31.4 L 45.9 31.4 L 45.9 36 L 44.3 36 L 44.3 31.4 L 43.6 31.4 L 43.6 30.4 C 43.6 30.4 44.32 30.41 44.3 30.4 C 44.3 28.8 44.2 28 46.1 28 C 46.3 28 46.4 28 46.6 28 C 46.6 28 46.6 29 46.6 29 Z M 50.1 32.6 C 50.1 32 50.2 31.3 49.4 31.3 C 48.7 31.3 48.7 32.1 48.7 32.6 C 48.7 32.6 50.1 32.6 50.1 32.6 Z M 48.7 33.4 C 48.7 34.1 48.7 35.1 49.4 35.1 C 50 35.1 50.1 34.6 50.1 34.1 C 50.1 34.1 51.7 34.1 51.7 34.1 C 51.6 34.7 51.4 35.2 51.1 35.5 C 50.7 35.9 50.2 36.1 49.4 36.1 C 47.4 36.1 47.2 34.9 47.2 33.1 C 47.2 31.6 47.4 30.3 49.4 30.3 C 51.5 30.3 51.7 31.7 51.7 33.4 C 51.7 33.4 48.7 33.4 48.7 33.4 Z M 54.3 30.4 L 54.3 31.1 C 54.3 31.1 54.29 31.12 54.3 31.1 C 54.6 30.5 55.1 30.3 55.7 30.3 C 55.7 30.3 55.7 31.7 55.7 31.7 C 54.4 31.6 54.3 32.4 54.3 32.9 C 54.34 32.94 54.3 36 54.3 36 L 52.8 36 L 52.8 30.4 L 54.3 30.4 Z M 59.3 32.6 C 59.3 32 59.3 31.3 58.6 31.3 C 57.9 31.3 57.9 32.1 57.9 32.6 C 57.9 32.6 59.3 32.6 59.3 32.6 Z M 57.9 33.4 C 57.9 34.1 57.9 35.1 58.6 35.1 C 59.1 35.1 59.2 34.6 59.2 34.1 C 59.2 34.1 60.8 34.1 60.8 34.1 C 60.8 34.7 60.6 35.2 60.2 35.5 C 59.9 35.9 59.3 36.1 58.6 36.1 C 56.6 36.1 56.3 34.9 56.3 33.1 C 56.3 31.6 56.5 30.3 58.6 30.3 C 60.7 30.3 60.9 31.7 60.9 33.4 C 60.9 33.4 57.9 33.4 57.9 33.4 Z M 63.5 31 C 63.5 31 63.53 30.97 63.5 31 C 63.7 30.7 63.9 30.6 64.1 30.5 C 64.3 30.3 64.5 30.3 64.8 30.3 C 65.6 30.3 66.2 30.7 66.2 31.5 C 66.22 31.51 66.2 36 66.2 36 L 64.7 36 C 64.7 36 64.67 32.14 64.7 32.1 C 64.7 31.6 64.6 31.3 64.1 31.3 C 63.6 31.3 63.5 31.6 63.5 32.1 C 63.5 32.14 63.5 36 63.5 36 L 62 36 L 62 30.4 L 63.5 30.4 L 63.5 31 Z M 70.3 32.4 C 70.3 31.6 70.1 31.3 69.6 31.3 C 68.9 31.3 68.9 31.9 68.9 33 C 68.9 34.7 69 35.1 69.6 35.1 C 70.1 35.1 70.3 34.6 70.3 33.9 C 70.3 33.9 71.9 33.9 71.9 33.9 C 71.9 35.4 71 36.1 69.6 36.1 C 67.6 36.1 67.3 34.9 67.3 33.1 C 67.3 31.6 67.5 30.3 69.6 30.3 C 71 30.3 71.8 30.9 71.8 32.4 C 71.8 32.4 70.3 32.4 70.3 32.4 Z M 75.8 32.6 C 75.8 32 75.8 31.3 75.1 31.3 C 74.4 31.3 74.4 32.1 74.4 32.6 C 74.4 32.6 75.8 32.6 75.8 32.6 Z M 74.4 33.4 C 74.4 34.1 74.4 35.1 75.1 35.1 C 75.6 35.1 75.7 34.6 75.7 34.1 C 75.7 34.1 77.3 34.1 77.3 34.1 C 77.3 34.7 77.1 35.2 76.7 35.5 C 76.4 35.9 75.8 36.1 75.1 36.1 C 73.1 36.1 72.8 34.9 72.8 33.1 C 72.8 31.6 73 30.3 75.1 30.3 C 77.2 30.3 77.4 31.7 77.4 33.4 C 77.4 33.4 74.4 33.4 74.4 33.4 Z M 79.7 30.4 L 79.7 31.9 L 78.4 31.9 L 78.4 30.4 L 79.7 30.4 Z M 79.7 36 L 78.4 36 L 78.4 34.5 L 79.7 34.5 L 79.7 36 Z " stroke="none" fill="#fff"/>  </g></svg>