<?xml version="1.0" standalone="no"?><!DOCTYPE svg PUBLIC "-//W3C//DTD SVG 1.1//EN" "http://www.w3.org/Graphics/SVG/1.1/DTD/svg11.dtd"><svg xmlns="http://www.w3.org/2000/svg" version="1.1" width="134px" height="44.3px" viewBox="0 -4 134 44.3" style="top:-4px">  <desc>Adapted from Craig et al. Lancet. 2023.1</desc>  <defs/>  <g id="Polygon195988">    <path d="M 4.2 19.6 C 4.2 17.9 3.7 17.7 3 17.7 C 2.4 17.7 1.8 18 1.8 19.6 C 1.8 19.6 4.2 19.6 4.2 19.6 Z M 1.8 20.4 C 1.8 22.1 2.3 22.4 3 22.4 C 3.7 22.4 4.1 21.9 4.1 21.3 C 4.1 21.3 5.2 21.3 5.2 21.3 C 5.2 22.6 4.3 23.2 3.1 23.2 C 1.8 23.2 0.8 22.8 0.8 20.1 C 0.8 18.4 1 16.9 3.1 16.9 C 4.8 16.9 5.2 17.9 5.2 19.9 C 5.23 19.86 5.2 20.4 5.2 20.4 C 5.2 20.4 1.82 20.38 1.8 20.4 Z M 7 17 L 7 15.9 L 8 15.4 L 8 17 L 9.3 17 L 9.3 17.8 L 8 17.8 C 8 17.8 7.96 21.48 8 21.5 C 8 21.9 8 22.4 8.9 22.4 C 8.9 22.4 9.1 22.3 9.3 22.3 C 9.3 22.3 9.3 23.1 9.3 23.1 C 9 23.1 8.7 23.2 8.3 23.2 C 7.4 23.2 7 22.8 7 22.1 C 6.97 22.08 7 17.8 7 17.8 L 6 17.8 L 6 17 L 7 17 Z M 13.8 21.3 C 13.8 21.9 14.1 22.4 14.7 22.4 C 15.3 22.4 16.1 22 16 20.1 C 15 20.1 13.8 20 13.8 21.3 Z M 16 22.2 C 16 22.2 15.96 22.21 16 22.2 C 15.7 22.9 15.2 23.2 14.4 23.2 C 13.2 23.2 12.8 22.4 12.8 21.2 C 12.8 19.4 14.6 19.3 16 19.3 C 16 18.5 16 17.7 14.9 17.7 C 14.3 17.7 13.9 18.1 14 18.7 C 14 18.7 12.9 18.7 12.9 18.7 C 13 17.4 13.7 16.9 15 16.9 C 16.5 16.9 16.9 17.7 16.9 18.7 C 16.9 18.7 16.9 21.6 16.9 21.6 C 16.9 22.1 17 22.6 17.1 23.1 C 17.06 23.09 16 23.1 16 23.1 L 16 22.2 Z M 19.8 23.1 L 18.8 23.1 L 18.8 14.4 L 19.8 14.4 L 19.8 23.1 Z M 22.6 23.1 L 21.4 23.1 L 21.4 21.8 L 22.6 21.8 L 22.6 23.1 Z M 27 23.1 L 27 14.4 L 28.1 14.4 L 28.1 22.1 L 31.2 22.1 L 31.2 23.1 L 27 23.1 Z M 33.1 21.3 C 33.1 21.9 33.4 22.4 34 22.4 C 34.6 22.4 35.4 22 35.3 20.1 C 34.3 20.1 33.1 20 33.1 21.3 Z M 35.3 22.2 C 35.3 22.2 35.28 22.21 35.3 22.2 C 35 22.9 34.5 23.2 33.8 23.2 C 32.5 23.2 32.1 22.4 32.1 21.2 C 32.1 19.4 33.9 19.3 35.3 19.3 C 35.3 18.5 35.3 17.7 34.3 17.7 C 33.6 17.7 33.3 18.1 33.3 18.7 C 33.3 18.7 32.2 18.7 32.2 18.7 C 32.3 17.4 33 16.9 34.3 16.9 C 35.9 16.9 36.3 17.7 36.3 18.7 C 36.3 18.7 36.3 21.6 36.3 21.6 C 36.3 22.1 36.3 22.6 36.4 23.1 C 36.38 23.09 35.3 23.1 35.3 23.1 L 35.3 22.2 Z M 41.5 23.1 C 41.5 23.1 41.47 18.89 41.5 18.9 C 41.5 18.2 41.2 17.7 40.4 17.7 C 39.3 17.7 39.2 18.7 39.2 19.5 C 39.17 19.5 39.2 23.1 39.2 23.1 L 38.2 23.1 C 38.2 23.1 38.18 18.29 38.2 18.3 C 38.2 17.9 38.2 17.4 38.1 17 C 38.12 17.03 39.2 17 39.2 17 L 39.2 17.8 C 39.2 17.8 39.21 17.81 39.2 17.8 C 39.6 17.1 40.1 16.9 40.8 16.9 C 42.1 16.9 42.5 17.7 42.5 18.9 C 42.45 18.89 42.5 23.1 42.5 23.1 L 41.5 23.1 Z M 47.4 19 C 47.4 18 46.9 17.7 46.5 17.7 C 45.8 17.7 45.2 18.1 45.2 19.7 C 45.2 21.7 45.5 22.4 46.5 22.4 C 46.7 22.4 47.4 22.2 47.4 21.1 C 47.4 21.1 48.4 21.1 48.4 21.1 C 48.5 22.8 47.2 23.2 46.5 23.2 C 45.2 23.2 44.2 22.8 44.2 20.1 C 44.2 18.4 44.4 16.9 46.5 16.9 C 47.7 16.9 48.4 17.6 48.4 19 C 48.4 19 47.4 19 47.4 19 Z M 53.5 19.6 C 53.5 17.9 53 17.7 52.3 17.7 C 51.7 17.7 51.2 18 51.1 19.6 C 51.1 19.6 53.5 19.6 53.5 19.6 Z M 51.1 20.4 C 51.1 22.1 51.6 22.4 52.4 22.4 C 53 22.4 53.4 21.9 53.4 21.3 C 53.4 21.3 54.5 21.3 54.5 21.3 C 54.5 22.6 53.7 23.2 52.4 23.2 C 51.1 23.2 50.1 22.8 50.1 20.1 C 50.1 18.4 50.3 16.9 52.4 16.9 C 54.1 16.9 54.6 17.9 54.6 19.9 C 54.55 19.86 54.6 20.4 54.6 20.4 C 54.6 20.4 51.14 20.38 51.1 20.4 Z M 56.3 17 L 56.3 15.9 L 57.3 15.4 L 57.3 17 L 58.6 17 L 58.6 17.8 L 57.3 17.8 C 57.3 17.8 57.27 21.48 57.3 21.5 C 57.3 21.9 57.3 22.4 58.2 22.4 C 58.2 22.4 58.4 22.3 58.6 22.3 C 58.6 22.3 58.6 23.1 58.6 23.1 C 58.3 23.1 58 23.2 57.6 23.2 C 56.7 23.2 56.3 22.8 56.3 22.1 C 56.29 22.08 56.3 17.8 56.3 17.8 L 55.3 17.8 L 55.3 17 L 56.3 17 Z M 60.6 23.1 L 59.4 23.1 L 59.4 21.8 L 60.6 21.8 L 60.6 23.1 Z M 64.5 23.1 C 64.5 23.1 64.5 22.13 64.5 22.1 C 66.9 18.7 67.7 18.1 67.7 16.7 C 67.7 16 67.3 15.6 66.6 15.6 C 65.8 15.6 65.6 16.2 65.6 16.9 C 65.6 16.9 64.5 16.9 64.5 16.9 C 64.4 15.5 65.1 14.6 66.5 14.6 C 68 14.6 68.8 15.3 68.8 16.8 C 68.8 18.7 67.8 19.3 65.7 22.1 C 65.67 22.13 69 22.1 69 22.1 L 69 23.1 L 64.5 23.1 Z M 74.2 19 C 74.2 21.1 74.2 23.3 72 23.3 C 69.7 23.3 69.7 21.1 69.7 19 C 69.7 16.7 69.7 14.6 72 14.6 C 74.3 14.6 74.2 16.7 74.2 19 Z M 70.8 19.2 C 70.8 20.6 70.7 22.3 72 22.3 C 73.2 22.3 73.1 20.6 73.1 19.2 C 73.1 16.9 73.1 15.6 72 15.6 C 70.8 15.6 70.8 16.9 70.8 19.2 Z M 75.2 23.1 C 75.2 23.1 75.16 22.13 75.2 22.1 C 77.6 18.7 78.3 18.1 78.3 16.7 C 78.3 16 78 15.6 77.3 15.6 C 76.4 15.6 76.3 16.2 76.3 16.9 C 76.3 16.9 75.2 16.9 75.2 16.9 C 75.1 15.5 75.8 14.6 77.2 14.6 C 78.7 14.6 79.4 15.3 79.4 16.8 C 79.4 18.7 78.5 19.3 76.3 22.1 C 76.33 22.13 79.6 22.1 79.6 22.1 L 79.6 23.1 L 75.2 23.1 Z M 82 18.2 C 83 18.3 83.7 17.9 83.7 16.9 C 83.7 16.1 83.4 15.6 82.5 15.6 C 81.6 15.6 81.5 16.2 81.5 16.9 C 81.5 16.9 80.4 16.9 80.4 16.9 C 80.3 15.5 81 14.6 82.5 14.6 C 84 14.6 84.8 15.3 84.8 16.8 C 84.8 18.4 83.6 18.6 83.2 18.7 C 83.2 18.7 83.2 18.7 83.2 18.7 C 84.5 18.9 84.9 19.6 84.9 20.9 C 84.9 22.5 84 23.3 82.4 23.3 C 80.1 23.3 80.3 21.3 80.3 20.8 C 80.3 20.8 81.4 20.8 81.4 20.8 C 81.4 21.6 81.5 22.3 82.5 22.3 C 83.5 22.3 83.8 21.7 83.8 20.8 C 83.8 19.5 83.3 19.2 82 19.2 C 82 19.2 82 18.2 82 18.2 Z M 87.2 23.1 L 86.1 23.1 L 86.1 21.8 L 87.2 21.8 L 87.2 23.1 Z M 90 19.1 L 89.3 19.1 L 89.3 14.9 L 88.6 15.4 C 88.6 15.4 88.61 14.82 88.6 14.8 C 88.8 14.7 89.2 14.4 89.4 14.2 C 89.43 14.24 90 14.2 90 14.2 L 90 19.1 Z " stroke="none" fill="#555555"/>  </g>  <g id="Polygon195987">    <path d="M 2.9 0 L 4.3 0 L 7.2 8.7 L 5.9 8.7 L 5.3 6.6 L 1.9 6.6 L 1.3 8.7 L 0.2 8.7 L 2.9 0 Z M 3.6 1 L 3.6 1 L 2.2 5.7 L 5 5.7 L 3.6 1 Z M 10.3 3.3 C 9.2 3.3 9.1 4.2 9.1 5.8 C 9.1 6.7 9.1 8 10.3 8 C 11.4 8 11.4 6.6 11.4 5.4 C 11.4 4.6 11.4 3.3 10.3 3.3 Z M 11.4 0 L 12.4 0 L 12.4 8.7 L 11.4 8.7 L 11.4 8 C 11.4 8 11.38 7.97 11.4 8 C 11 8.5 10.6 8.8 10 8.8 C 9 8.8 8 8.4 8 5.8 C 8 4.2 8.1 2.5 10 2.5 C 10.6 2.5 11 2.8 11.4 3.2 C 11.36 3.24 11.4 3.2 11.4 3.2 L 11.4 0 Z M 15.1 6.9 C 15.1 7.5 15.4 8 16 8 C 16.6 8 17.4 7.6 17.3 5.7 C 16.4 5.7 15.1 5.6 15.1 6.9 Z M 17.3 7.8 C 17.3 7.8 17.29 7.81 17.3 7.8 C 17 8.5 16.5 8.8 15.8 8.8 C 14.5 8.8 14.1 8 14.1 6.8 C 14.1 5 15.9 4.9 17.3 4.9 C 17.3 4.1 17.3 3.3 16.3 3.3 C 15.6 3.3 15.3 3.7 15.3 4.3 C 15.3 4.3 14.3 4.3 14.3 4.3 C 14.3 3 15 2.5 16.3 2.5 C 17.9 2.5 18.3 3.3 18.3 4.3 C 18.3 4.3 18.3 7.2 18.3 7.2 C 18.3 7.7 18.3 8.2 18.4 8.7 C 18.4 8.69 17.3 8.7 17.3 8.7 L 17.3 7.8 Z M 23.6 5.6 C 23.6 4.6 23.6 3.3 22.4 3.3 C 21.2 3.3 21.3 5 21.3 5.9 C 21.3 6.7 21.3 8 22.4 8 C 23.5 8 23.6 7.2 23.6 5.6 Z M 21.3 3.3 C 21.3 3.3 21.29 3.35 21.3 3.3 C 21.6 2.8 22 2.5 22.7 2.5 C 23.7 2.5 24.6 2.9 24.6 5.6 C 24.6 7.1 24.6 8.8 22.6 8.8 C 22.1 8.8 21.6 8.6 21.3 8.1 C 21.3 8.08 21.3 8.1 21.3 8.1 L 21.3 11 L 20.3 11 L 20.3 2.6 L 21.3 2.6 L 21.3 3.3 Z M 26.3 2.6 L 26.3 1.5 L 27.3 1 L 27.3 2.6 L 28.6 2.6 L 28.6 3.4 L 27.3 3.4 C 27.3 3.4 27.29 7.08 27.3 7.1 C 27.3 7.5 27.3 8 28.2 8 C 28.3 8 28.4 7.9 28.6 7.9 C 28.6 7.9 28.6 8.7 28.6 8.7 C 28.3 8.7 28 8.8 27.7 8.8 C 26.7 8.8 26.3 8.4 26.3 7.7 C 26.3 7.68 26.3 3.4 26.3 3.4 L 25.3 3.4 L 25.3 2.6 L 26.3 2.6 Z M 32.9 5.2 C 32.9 3.5 32.4 3.3 31.6 3.3 C 31 3.3 30.5 3.6 30.5 5.2 C 30.5 5.2 32.9 5.2 32.9 5.2 Z M 30.5 6 C 30.5 7.7 30.9 8 31.7 8 C 32.4 8 32.7 7.5 32.8 6.9 C 32.8 6.9 33.9 6.9 33.9 6.9 C 33.8 8.2 33 8.8 31.7 8.8 C 30.5 8.8 29.4 8.4 29.4 5.7 C 29.4 4 29.6 2.5 31.7 2.5 C 33.5 2.5 33.9 3.5 33.9 5.5 C 33.9 5.46 33.9 6 33.9 6 C 33.9 6 30.49 5.98 30.5 6 Z M 37.6 3.3 C 36.5 3.3 36.4 4.2 36.4 5.8 C 36.4 6.7 36.4 8 37.6 8 C 38.7 8 38.7 6.6 38.7 5.4 C 38.7 4.6 38.7 3.3 37.6 3.3 Z M 38.7 0 L 39.7 0 L 39.7 8.7 L 38.7 8.7 L 38.7 8 C 38.7 8 38.71 7.97 38.7 8 C 38.4 8.5 38 8.8 37.3 8.8 C 36.3 8.8 35.4 8.4 35.4 5.8 C 35.4 4.2 35.4 2.5 37.4 2.5 C 37.9 2.5 38.4 2.8 38.7 3.2 C 38.7 3.24 38.7 3.2 38.7 3.2 L 38.7 0 Z M 44.4 2.6 C 44.4 2.6 44.38 1.45 44.4 1.5 C 44.4 0.2 45.2 0 46.1 0 C 46.3 0 46.4 0 46.6 0 C 46.6 0 46.6 0.7 46.6 0.7 C 45.5 0.7 45.4 1.1 45.4 1.6 C 45.36 1.6 45.4 2.6 45.4 2.6 L 46.6 2.6 L 46.6 3.4 L 45.4 3.4 L 45.4 8.7 L 44.4 8.7 L 44.4 3.4 L 43.4 3.4 L 43.4 2.6 L 44.4 2.6 Z M 48.6 3.5 C 48.6 3.5 48.57 3.54 48.6 3.5 C 49 2.6 49.5 2.5 50.4 2.5 C 50.4 2.5 50.4 3.5 50.4 3.5 C 50.4 3.5 50.3 3.5 50.2 3.5 C 50.1 3.5 50 3.5 49.9 3.5 C 48.8 3.5 48.6 4.3 48.6 5.1 C 48.55 5.11 48.6 8.7 48.6 8.7 L 47.6 8.7 L 47.6 2.6 L 48.6 2.6 L 48.6 3.5 Z M 54.9 5.3 C 54.9 3.7 54.4 3.3 53.7 3.3 C 52.9 3.3 52.4 3.7 52.4 5.3 C 52.4 7.3 52.6 8 53.7 8 C 54.7 8 54.9 7.3 54.9 5.3 Z M 51.4 5.7 C 51.4 4 51.6 2.5 53.7 2.5 C 55.8 2.5 56 4 56 5.7 C 56 8.4 54.9 8.8 53.7 8.8 C 52.4 8.8 51.4 8.4 51.4 5.7 Z M 60.5 8.7 C 60.5 8.7 60.5 4.49 60.5 4.5 C 60.5 3.9 60.3 3.3 59.5 3.3 C 59.2 3.3 58.8 3.5 58.7 3.7 C 58.5 4 58.5 4.4 58.5 4.6 C 58.46 4.61 58.5 8.7 58.5 8.7 L 57.5 8.7 C 57.5 8.7 57.48 3.89 57.5 3.9 C 57.5 3.5 57.5 3 57.4 2.6 C 57.42 2.63 58.5 2.6 58.5 2.6 L 58.5 3.4 C 58.5 3.4 58.49 3.38 58.5 3.4 C 58.8 2.7 59.3 2.5 60 2.5 C 60.6 2.5 61.2 2.7 61.4 3.3 C 61.8 2.6 62.3 2.5 62.9 2.5 C 63.5 2.5 64.5 2.7 64.5 4.1 C 64.51 4.08 64.5 8.7 64.5 8.7 L 63.5 8.7 C 63.5 8.7 63.53 4.49 63.5 4.5 C 63.5 3.9 63.4 3.3 62.6 3.3 C 62.2 3.3 62.1 3.3 61.8 3.5 C 61.5 3.8 61.5 4.4 61.5 4.6 C 61.49 4.61 61.5 8.7 61.5 8.7 L 60.5 8.7 Z M 72.8 2.4 C 72.8 1.9 72.8 1.4 72.5 1.2 C 72.3 0.9 71.8 0.8 71.6 0.8 C 70.6 0.8 70.3 1.3 70.2 1.5 C 70.2 1.5 70 1.8 70 3.3 C 70 3.3 70 5.6 70 5.6 C 70 7.7 70.7 7.9 71.5 7.9 C 71.9 7.9 72.9 7.8 72.9 6.1 C 72.9 6.1 74.1 6.1 74.1 6.1 C 74.1 8.9 72.2 8.9 71.6 8.9 C 70.5 8.9 68.9 8.8 68.9 5.4 C 68.9 5.4 68.9 3 68.9 3 C 68.9 0.5 69.9 -0.2 71.7 -0.2 C 73.4 -0.2 74 0.7 73.9 2.4 C 73.9 2.4 72.8 2.4 72.8 2.4 Z M 76.5 3.5 C 76.5 3.5 76.57 3.54 76.6 3.5 C 77 2.6 77.5 2.5 78.4 2.5 C 78.4 2.5 78.4 3.5 78.4 3.5 C 78.4 3.5 78.3 3.5 78.2 3.5 C 78.1 3.5 78 3.5 77.9 3.5 C 76.8 3.5 76.5 4.3 76.5 5.1 C 76.55 5.11 76.5 8.7 76.5 8.7 L 75.6 8.7 L 75.6 2.6 L 76.5 2.6 L 76.5 3.5 Z M 80.4 6.9 C 80.4 7.5 80.7 8 81.4 8 C 82 8 82.7 7.6 82.6 5.7 C 81.7 5.7 80.4 5.6 80.4 6.9 Z M 82.6 7.8 C 82.6 7.8 82.62 7.81 82.6 7.8 C 82.3 8.5 81.9 8.8 81.1 8.8 C 79.8 8.8 79.4 8 79.4 6.8 C 79.4 5 81.2 4.9 82.6 4.9 C 82.6 4.1 82.7 3.3 81.6 3.3 C 80.9 3.3 80.6 3.7 80.7 4.3 C 80.7 4.3 79.6 4.3 79.6 4.3 C 79.6 3 80.4 2.5 81.6 2.5 C 83.2 2.5 83.6 3.3 83.6 4.3 C 83.6 4.3 83.6 7.2 83.6 7.2 C 83.6 7.7 83.7 8.2 83.7 8.7 C 83.72 8.69 82.6 8.7 82.6 8.7 L 82.6 7.8 Z M 86.5 8.7 L 85.5 8.7 L 85.5 2.6 L 86.5 2.6 L 86.5 8.7 Z M 85.4 0 L 86.5 0 L 86.5 1.1 L 85.4 1.1 L 85.4 0 Z M 90.2 3.3 C 89.1 3.3 89.1 4.7 89.1 5.5 C 89.1 7.4 89.5 7.9 90.3 7.9 C 91.5 7.9 91.4 6.5 91.4 5.6 C 91.4 4.7 91.5 3.3 90.2 3.3 Z M 91.4 2.6 L 92.4 2.6 C 92.4 2.6 92.37 9.3 92.4 9.3 C 92.4 10.7 91.5 11 90.1 11 C 89.1 11 88.2 10.5 88.3 9.4 C 88.3 9.4 89.4 9.4 89.4 9.4 C 89.4 9.9 89.8 10.2 90.3 10.2 C 91 10.2 91.4 9.8 91.4 9.2 C 91.39 9.19 91.4 7.9 91.4 7.9 C 91.4 7.9 91.36 7.93 91.4 7.9 C 91.1 8.4 90.6 8.7 90 8.7 C 88.4 8.7 88.1 7.3 88.1 5.5 C 88.1 2.7 89.5 2.5 90 2.5 C 90.6 2.5 91.1 2.8 91.4 3.4 C 91.37 3.37 91.4 3.4 91.4 3.4 L 91.4 2.6 Z " stroke="none" fill="#555555"/>  </g></svg>