<?xml version="1.0" standalone="no"?><!DOCTYPE svg PUBLIC "-//W3C//DTD SVG 1.1//EN" "http://www.w3.org/Graphics/SVG/1.1/DTD/svg11.dtd"><svg xmlns="http://www.w3.org/2000/svg" version="1.1" width="147px" height="36.2px" viewBox="0 -6 147 36.2" style="top:-6px">  <desc>IGART: Investigator</desc>  <defs/>  <g id="Polygon199578">    <path d="M 1.2 13.8 L 1.2 0 L 4.1 0 L 4.1 13.8 L 1.2 13.8 Z M 12.7 4.3 C 12.8 3 12.6 1.9 11 1.9 C 9.3 1.9 9.3 4.3 9.3 6.9 C 9.3 11.2 9.7 12 11.3 12 C 11.8 12 12.3 11.9 12.7 11.7 C 12.73 11.72 12.7 8.7 12.7 8.7 L 11.2 8.7 L 11.2 6.6 L 15.6 6.6 C 15.6 6.6 15.6 13.53 15.6 13.5 C 14.8 13.7 12.9 14 11.7 14 C 6.9 14 6.3 12 6.3 6.8 C 6.3 3.3 6.5 -0.2 11.2 -0.2 C 14 -0.2 15.8 1.4 15.6 4.3 C 15.6 4.3 12.7 4.3 12.7 4.3 Z M 17 13.8 L 20.8 0 L 24.6 0 L 28.3 13.8 L 25.3 13.8 L 24.6 10.7 L 20.7 10.7 L 19.9 13.8 L 17 13.8 Z M 22.6 2.7 L 22.5 2.7 L 21.2 8.6 L 24 8.6 L 22.6 2.7 Z M 32.5 6 C 32.5 6 33.78 5.97 33.8 6 C 34.9 6 35.2 4.8 35.2 4 C 35.2 2.6 34.7 2.1 33.8 2.1 C 33.78 2.15 32.5 2.1 32.5 2.1 L 32.5 6 Z M 32.5 13.8 L 29.6 13.8 L 29.6 0 C 29.6 0 34.94 0.04 34.9 0 C 36.9 0 38.2 1.3 38.2 3.6 C 38.2 5.4 37.5 6.7 35.6 7 C 35.6 7 35.6 7 35.6 7 C 36.2 7.1 38.1 7.3 38.1 9.7 C 38.1 10.6 38.2 13.2 38.4 13.8 C 38.4 13.8 35.6 13.8 35.6 13.8 C 35.2 12.9 35.3 12 35.3 11.1 C 35.3 9.5 35.5 8.1 33.2 8.1 C 33.25 8.07 32.5 8.1 32.5 8.1 L 32.5 13.8 Z M 48.4 0 L 48.4 2.3 L 45.2 2.3 L 45.2 13.8 L 42.4 13.8 L 42.4 2.3 L 39.2 2.3 L 39.2 0 L 48.4 0 Z M 50.4 4.2 L 50.4 6.7 L 48.1 6.7 L 48.1 4.2 L 50.4 4.2 Z M 50.4 13.8 L 48.1 13.8 L 48.1 11.2 L 50.4 11.2 L 50.4 13.8 Z M 56.1 13.8 L 56.1 0 L 59 0 L 59 13.8 L 56.1 13.8 Z M 63.9 5.1 C 63.9 5.1 63.96 5.13 64 5.1 C 64.2 4.7 64.5 4.4 64.9 4.2 C 65.3 4 65.7 4 66.2 4 C 67.5 4 68.6 4.7 68.6 6.1 C 68.61 6.06 68.6 13.8 68.6 13.8 L 65.9 13.8 C 65.9 13.8 65.94 7.14 65.9 7.1 C 65.9 6.3 65.8 5.6 64.9 5.6 C 64.1 5.6 63.9 6.3 63.9 7.1 C 63.92 7.14 63.9 13.8 63.9 13.8 L 61.2 13.8 L 61.2 4.2 L 63.9 4.2 L 63.9 5.1 Z M 69.8 4.2 L 72.5 4.2 L 73.9 11.4 L 73.9 11.4 L 75.3 4.2 L 78 4.2 L 75.3 13.8 L 72.4 13.8 L 69.8 4.2 Z M 84.1 7.9 C 84.1 7 84.1 5.6 82.9 5.6 C 81.6 5.6 81.6 7.1 81.6 7.9 C 81.6 7.9 84.1 7.9 84.1 7.9 Z M 81.6 9.4 C 81.6 10.5 81.7 12.2 82.9 12.2 C 83.8 12.2 84 11.3 84 10.5 C 84 10.5 86.7 10.5 86.7 10.5 C 86.7 11.6 86.3 12.4 85.7 13 C 85.1 13.6 84.1 13.9 82.9 13.9 C 79.4 13.9 79 11.8 79 8.8 C 79 6.2 79.3 4 82.9 4 C 86.5 4 86.9 6.3 86.8 9.4 C 86.8 9.4 81.6 9.4 81.6 9.4 Z M 90.8 10.7 C 90.8 11.1 90.8 11.5 90.9 11.8 C 91.1 12.1 91.4 12.3 91.9 12.3 C 92.4 12.3 92.9 12 92.9 11.3 C 92.9 9.3 88.2 9.7 88.2 6.7 C 88.2 4.6 90.2 4 91.9 4 C 93.8 4 95.4 4.8 95.3 6.9 C 95.3 6.9 92.6 6.9 92.6 6.9 C 92.6 6.3 92.6 5.9 92.4 5.7 C 92.2 5.5 92 5.5 91.7 5.5 C 91.1 5.5 90.8 5.9 90.8 6.5 C 90.8 8 95.5 7.9 95.5 11 C 95.5 12.7 94.1 13.9 91.9 13.9 C 89.6 13.9 88 13.4 88.2 10.7 C 88.2 10.7 90.8 10.7 90.8 10.7 Z M 96 4.2 L 97.1 4.2 L 97.1 2.6 L 99.8 1.4 L 99.8 4.2 L 101.2 4.2 L 101.2 5.8 L 99.8 5.8 C 99.8 5.8 99.79 10.94 99.8 10.9 C 99.8 11.7 99.8 12.1 100.6 12.1 C 100.8 12.1 101 12.1 101.1 12.1 C 101.1 12.1 101.1 13.8 101.1 13.8 C 100.8 13.8 100.4 13.9 99.7 13.9 C 97.4 13.9 97.1 12.3 97.1 11.7 C 97.11 11.72 97.1 5.8 97.1 5.8 L 96 5.8 L 96 4.2 Z M 105.3 13.8 L 102.6 13.8 L 102.6 4.2 L 105.3 4.2 L 105.3 13.8 Z M 105.3 0 L 105.3 2.1 L 102.6 2.1 L 102.6 0 L 105.3 0 Z M 111.2 12 C 112.2 12 112.3 11 112.3 8.9 C 112.3 6.8 112.2 5.6 111.3 5.6 C 110.2 5.6 110.1 6.3 110.1 9.3 C 110.1 10.1 109.9 12 111.2 12 Z M 115 4.2 C 115 4.2 115.01 14.15 115 14.2 C 115 14.8 115.1 17.4 111.4 17.4 C 109.4 17.4 107.7 16.9 107.6 14.6 C 107.6 14.6 110.2 14.6 110.2 14.6 C 110.2 15 110.3 15.3 110.5 15.6 C 110.6 15.8 110.9 15.9 111.3 15.9 C 112 15.9 112.3 15.3 112.3 14.3 C 112.33 14.34 112.3 12.5 112.3 12.5 C 112.3 12.5 112.3 12.5 112.3 12.5 C 111.9 13.2 111.1 13.6 110.3 13.6 C 107.3 13.6 107.5 10.9 107.5 8.8 C 107.5 6.6 107.5 4 110.3 4 C 111.2 4 112 4.4 112.4 5.3 C 112.43 5.28 112.5 5.3 112.5 5.3 L 112.5 4.2 L 115 4.2 Z M 119.5 10.8 C 119.5 11.5 119.6 12.3 120.5 12.3 C 122.1 12.3 121.8 10.2 121.8 9.1 C 120.5 9.2 119.5 9.1 119.5 10.8 Z M 124.5 12 C 124.5 12.6 124.5 13.2 124.6 13.8 C 124.59 13.76 122.1 13.8 122.1 13.8 L 122 12.5 C 122 12.5 121.95 12.48 121.9 12.5 C 121.4 13.5 120.6 13.9 119.4 13.9 C 117.6 13.9 116.9 12.6 116.9 10.9 C 116.9 7.7 119.3 7.6 121.8 7.6 C 121.8 7.6 121.8 6.9 121.8 6.9 C 121.8 6.1 121.7 5.5 120.8 5.5 C 119.8 5.5 119.7 6.2 119.7 6.9 C 119.7 6.9 117.1 6.9 117.1 6.9 C 117.1 5.8 117.5 5 118.1 4.6 C 118.7 4.1 119.6 4 120.6 4 C 124 4 124.5 5.4 124.5 7.2 C 124.5 7.2 124.5 12 124.5 12 Z M 125.6 4.2 L 126.7 4.2 L 126.7 2.6 L 129.4 1.4 L 129.4 4.2 L 130.7 4.2 L 130.7 5.8 L 129.4 5.8 C 129.4 5.8 129.36 10.94 129.4 10.9 C 129.4 11.7 129.3 12.1 130.2 12.1 C 130.4 12.1 130.6 12.1 130.7 12.1 C 130.7 12.1 130.7 13.8 130.7 13.8 C 130.3 13.8 129.9 13.9 129.3 13.9 C 127 13.9 126.7 12.3 126.7 11.7 C 126.68 11.72 126.7 5.8 126.7 5.8 L 125.6 5.8 L 125.6 4.2 Z M 136.9 8.7 C 136.9 6.7 136.8 5.7 135.6 5.7 C 134.5 5.7 134.4 6.7 134.4 8.7 C 134.4 11.6 134.7 12.2 135.6 12.2 C 136.6 12.2 136.9 11.6 136.9 8.7 Z M 131.7 8.8 C 131.7 6.2 132.1 4 135.6 4 C 139.2 4 139.6 6.2 139.6 8.8 C 139.6 11.8 139.1 13.9 135.6 13.9 C 132.2 13.9 131.7 11.8 131.7 8.8 Z M 144 4.2 L 144 5.4 C 144 5.4 144.04 5.4 144 5.4 C 144.5 4.3 145.5 4 146.5 4 C 146.5 4 146.5 6.4 146.5 6.4 C 144.2 6.2 144.1 7.6 144.1 8.5 C 144.14 8.53 144.1 13.8 144.1 13.8 L 141.5 13.8 L 141.5 4.2 L 144 4.2 Z " stroke="none" fill="#003c71"/>  </g></svg>