<?xml version="1.0" standalone="no"?><!DOCTYPE svg PUBLIC "-//W3C//DTD SVG 1.1//EN" "http://www.w3.org/Graphics/SVG/1.1/DTD/svg11.dtd"><svg xmlns="http://www.w3.org/2000/svg" version="1.1" width="382.1px" height="34.7px" viewBox="0 -1 382.1 34.7" style="top:-1px">  <desc>No abnormal bleeding or thromboembolic events</desc>  <defs/>  <g id="Polygon201161">    <path d="M 1.1 20.3 L 1.1 8 L 4.6 8 L 7.8 16.5 L 7.9 16.5 L 7.9 8 L 10.3 8 L 10.3 20.3 L 6.9 20.3 L 3.5 11.3 L 3.5 11.3 L 3.5 20.3 L 1.1 20.3 Z M 16.7 15.7 C 16.7 13.9 16.6 13 15.6 13 C 14.6 13 14.5 13.9 14.5 15.7 C 14.5 18.3 14.7 18.9 15.6 18.9 C 16.5 18.9 16.7 18.3 16.7 15.7 Z M 12.1 15.9 C 12.1 13.5 12.4 11.5 15.6 11.5 C 18.8 11.5 19.1 13.5 19.1 15.9 C 19.1 18.6 18.7 20.4 15.6 20.4 C 12.5 20.4 12.1 18.6 12.1 15.9 Z M 26.7 17.6 C 26.7 18.2 26.8 19 27.5 19 C 29 19 28.7 17.1 28.7 16.1 C 27.5 16.2 26.7 16.1 26.7 17.6 Z M 31.1 18.7 C 31.1 19.2 31.1 19.7 31.2 20.3 C 31.19 20.27 29 20.3 29 20.3 L 28.9 19.1 C 28.9 19.1 28.83 19.13 28.8 19.1 C 28.3 20 27.6 20.4 26.6 20.4 C 24.9 20.4 24.3 19.2 24.3 17.7 C 24.3 14.9 26.5 14.7 28.7 14.8 C 28.7 14.8 28.7 14.1 28.7 14.1 C 28.7 13.4 28.6 12.9 27.8 12.9 C 26.9 12.9 26.9 13.5 26.9 14.2 C 26.9 14.2 24.5 14.2 24.5 14.2 C 24.5 13.1 24.8 12.5 25.4 12.1 C 25.9 11.7 26.7 11.5 27.6 11.5 C 30.7 11.5 31.1 12.8 31.1 14.4 C 31.1 14.4 31.1 18.7 31.1 18.7 Z M 37.5 15.9 C 37.5 14.2 37.5 13 36.4 13 C 35.4 13 35.5 14.2 35.5 15.9 C 35.5 18.1 35.6 19 36.4 19 C 37.3 19 37.5 18.1 37.5 15.9 Z M 33.1 8 L 35.5 8 L 35.5 12.5 C 35.5 12.5 35.5 12.5 35.5 12.5 C 36 11.8 36.6 11.5 37.5 11.5 C 39.9 11.5 39.8 14.2 39.8 15.9 C 39.8 17.7 39.9 20.4 37.4 20.4 C 36.5 20.4 35.8 20.2 35.4 19.3 C 35.38 19.32 35.3 19.3 35.3 19.3 L 35.3 20.3 L 33.1 20.3 L 33.1 8 Z M 44 12.6 C 44 12.6 44 12.55 44 12.6 C 44.2 12.2 44.5 11.9 44.8 11.8 C 45.2 11.6 45.6 11.5 46 11.5 C 47.2 11.5 48.2 12.2 48.2 13.4 C 48.16 13.39 48.2 20.3 48.2 20.3 L 45.8 20.3 C 45.8 20.3 45.76 14.35 45.8 14.4 C 45.8 13.6 45.6 13 44.9 13 C 44.1 13 44 13.6 44 14.4 C 43.96 14.35 44 20.3 44 20.3 L 41.6 20.3 L 41.6 11.7 L 44 11.7 L 44 12.6 Z M 54.5 15.7 C 54.5 13.9 54.4 13 53.4 13 C 52.3 13 52.3 13.9 52.3 15.7 C 52.3 18.3 52.5 18.9 53.4 18.9 C 54.2 18.9 54.5 18.3 54.5 15.7 Z M 49.9 15.9 C 49.9 13.5 50.2 11.5 53.4 11.5 C 56.5 11.5 56.9 13.5 56.9 15.9 C 56.9 18.6 56.5 20.4 53.4 20.4 C 50.3 20.4 49.9 18.6 49.9 15.9 Z M 60.8 11.7 L 60.8 12.8 C 60.8 12.8 60.88 12.79 60.9 12.8 C 61.3 11.8 62.1 11.5 63.1 11.5 C 63.1 11.5 63.1 13.7 63.1 13.7 C 61 13.5 61 14.7 61 15.6 C 60.96 15.6 61 20.3 61 20.3 L 58.6 20.3 L 58.6 11.7 L 60.8 11.7 Z M 66.4 12.6 C 66.4 12.6 66.47 12.55 66.5 12.6 C 66.9 11.8 67.6 11.5 68.5 11.5 C 69.3 11.5 70 11.9 70.4 12.6 C 71 11.9 71.7 11.5 72.6 11.5 C 73.8 11.5 74.8 12.2 74.8 13.4 C 74.78 13.39 74.8 20.3 74.8 20.3 L 72.4 20.3 C 72.4 20.3 72.39 14.35 72.4 14.4 C 72.4 13.6 72.2 13 71.5 13 C 70.7 13 70.6 13.6 70.6 14.4 C 70.58 14.35 70.6 20.3 70.6 20.3 L 68.2 20.3 C 68.2 20.3 68.24 14.35 68.2 14.4 C 68.2 13.6 68.1 13 67.3 13 C 66.6 13 66.4 13.6 66.4 14.4 C 66.44 14.35 66.4 20.3 66.4 20.3 L 64 20.3 L 64 11.7 L 66.4 11.7 L 66.4 12.6 Z M 78.6 17.6 C 78.6 18.2 78.7 19 79.5 19 C 80.9 19 80.7 17.1 80.7 16.1 C 79.5 16.2 78.6 16.1 78.6 17.6 Z M 83 18.7 C 83 19.2 83.1 19.7 83.1 20.3 C 83.13 20.27 80.9 20.3 80.9 20.3 L 80.8 19.1 C 80.8 19.1 80.77 19.13 80.8 19.1 C 80.3 20 79.6 20.4 78.5 20.4 C 76.9 20.4 76.2 19.2 76.2 17.7 C 76.2 14.9 78.4 14.7 80.7 14.8 C 80.7 14.8 80.7 14.1 80.7 14.1 C 80.7 13.4 80.6 12.9 79.7 12.9 C 78.9 12.9 78.8 13.5 78.8 14.2 C 78.8 14.2 76.4 14.2 76.4 14.2 C 76.4 13.1 76.8 12.5 77.3 12.1 C 77.9 11.7 78.7 11.5 79.6 11.5 C 82.6 11.5 83 12.8 83 14.4 C 83 14.4 83 18.7 83 18.7 Z M 87.6 8 L 87.6 20.3 L 85.2 20.3 L 85.2 8 L 87.6 8 Z M 97.9 15.9 C 97.9 14.2 97.9 13 96.9 13 C 95.9 13 95.9 14.2 95.9 15.9 C 95.9 18.1 96 19 96.9 19 C 97.7 19 97.9 18.1 97.9 15.9 Z M 93.5 8 L 95.9 8 L 95.9 12.5 C 95.9 12.5 95.93 12.5 95.9 12.5 C 96.4 11.8 97 11.5 97.9 11.5 C 100.3 11.5 100.2 14.2 100.2 15.9 C 100.2 17.7 100.3 20.4 97.8 20.4 C 96.9 20.4 96.3 20.2 95.8 19.3 C 95.81 19.32 95.8 19.3 95.8 19.3 L 95.8 20.3 L 93.5 20.3 L 93.5 8 Z M 104.6 8 L 104.6 20.3 L 102.2 20.3 L 102.2 8 L 104.6 8 Z M 111.1 15 C 111.1 14.2 111.2 13 110 13 C 108.9 13 108.9 14.3 108.9 15 C 108.9 15 111.1 15 111.1 15 Z M 108.9 16.4 C 108.9 17.4 109 18.9 110 18.9 C 110.9 18.9 111 18.1 111 17.4 C 111 17.4 113.5 17.4 113.5 17.4 C 113.4 18.3 113.1 19.1 112.6 19.6 C 112 20.1 111.1 20.4 110 20.4 C 106.9 20.4 106.5 18.6 106.5 15.9 C 106.5 13.5 106.9 11.5 110 11.5 C 113.3 11.5 113.6 13.6 113.5 16.4 C 113.5 16.4 108.9 16.4 108.9 16.4 Z M 119.6 15 C 119.6 14.2 119.7 13 118.5 13 C 117.4 13 117.4 14.3 117.4 15 C 117.4 15 119.6 15 119.6 15 Z M 117.4 16.4 C 117.4 17.4 117.5 18.9 118.5 18.9 C 119.4 18.9 119.5 18.1 119.5 17.4 C 119.5 17.4 122 17.4 122 17.4 C 121.9 18.3 121.6 19.1 121.1 19.6 C 120.5 20.1 119.6 20.4 118.5 20.4 C 115.4 20.4 115 18.6 115 15.9 C 115 13.5 115.4 11.5 118.5 11.5 C 121.8 11.5 122.1 13.6 122 16.4 C 122 16.4 117.4 16.4 117.4 16.4 Z M 127.9 15.9 C 127.9 14.2 127.9 13 126.9 13 C 125.9 13 125.9 14.2 125.9 15.9 C 125.9 18.1 126.1 19 126.9 19 C 127.7 19 127.9 18.1 127.9 15.9 Z M 128 20.3 L 128 19.3 C 128 19.3 127.97 19.32 128 19.3 C 127.5 20.2 126.9 20.4 126 20.4 C 123.5 20.4 123.6 17.7 123.6 15.9 C 123.6 14.2 123.5 11.5 125.9 11.5 C 126.8 11.5 127.4 11.8 127.9 12.5 C 127.86 12.5 127.9 12.5 127.9 12.5 L 127.9 8 L 130.3 8 L 130.3 20.3 L 128 20.3 Z M 134.8 20.3 L 132.4 20.3 L 132.4 11.7 L 134.8 11.7 L 134.8 20.3 Z M 134.8 8 L 134.8 9.9 L 132.4 9.9 L 132.4 8 L 134.8 8 Z M 139.3 12.6 C 139.3 12.6 139.38 12.55 139.4 12.6 C 139.6 12.2 139.9 11.9 140.2 11.8 C 140.6 11.6 141 11.5 141.4 11.5 C 142.5 11.5 143.5 12.2 143.5 13.4 C 143.55 13.39 143.5 20.3 143.5 20.3 L 141.1 20.3 C 141.1 20.3 141.15 14.35 141.1 14.4 C 141.1 13.6 141 13 140.2 13 C 139.5 13 139.3 13.6 139.3 14.4 C 139.35 14.35 139.3 20.3 139.3 20.3 L 137 20.3 L 137 11.7 L 139.3 11.7 L 139.3 12.6 Z M 148.6 18.7 C 149.5 18.7 149.6 17.8 149.6 16 C 149.6 14.1 149.5 13 148.6 13 C 147.7 13 147.6 13.6 147.6 16.2 C 147.6 17 147.5 18.7 148.6 18.7 Z M 152 11.7 C 152 11.7 152.01 20.63 152 20.6 C 152 21.2 152 23.6 148.7 23.6 C 147 23.6 145.4 23.1 145.4 21 C 145.4 21 147.7 21 147.7 21 C 147.7 21.4 147.8 21.7 147.9 21.9 C 148.1 22.1 148.4 22.2 148.7 22.2 C 149.3 22.2 149.6 21.7 149.6 20.8 C 149.62 20.8 149.6 19.1 149.6 19.1 C 149.6 19.1 149.58 19.15 149.6 19.1 C 149.2 19.8 148.5 20.2 147.8 20.2 C 145.1 20.2 145.2 17.7 145.2 15.8 C 145.2 13.9 145.3 11.5 147.8 11.5 C 148.6 11.5 149.4 11.9 149.7 12.7 C 149.7 12.69 149.7 12.7 149.7 12.7 L 149.7 11.7 L 152 11.7 Z M 162.1 15.7 C 162.1 13.9 162 13 161 13 C 160 13 159.9 13.9 159.9 15.7 C 159.9 18.3 160.1 18.9 161 18.9 C 161.9 18.9 162.1 18.3 162.1 15.7 Z M 157.5 15.9 C 157.5 13.5 157.9 11.5 161 11.5 C 164.2 11.5 164.5 13.5 164.5 15.9 C 164.5 18.6 164.1 20.4 161 20.4 C 157.9 20.4 157.5 18.6 157.5 15.9 Z M 168.5 11.7 L 168.5 12.8 C 168.5 12.8 168.54 12.79 168.5 12.8 C 169 11.8 169.8 11.5 170.8 11.5 C 170.8 11.5 170.8 13.7 170.8 13.7 C 168.7 13.5 168.6 14.7 168.6 15.6 C 168.62 15.6 168.6 20.3 168.6 20.3 L 166.2 20.3 L 166.2 11.7 L 168.5 11.7 Z M 174.7 11.7 L 175.7 11.7 L 175.7 10.3 L 178.1 9.3 L 178.1 11.7 L 179.3 11.7 L 179.3 13.2 L 178.1 13.2 C 178.1 13.2 178.06 17.75 178.1 17.8 C 178.1 18.4 178 18.8 178.8 18.8 C 179 18.8 179.1 18.8 179.2 18.8 C 179.2 18.8 179.2 20.3 179.2 20.3 C 178.9 20.3 178.6 20.4 178 20.4 C 175.9 20.4 175.7 19 175.7 18.5 C 175.66 18.45 175.7 13.2 175.7 13.2 L 174.7 13.2 L 174.7 11.7 Z M 184.6 20.3 C 184.6 20.3 184.58 14.35 184.6 14.4 C 184.6 13.6 184.4 13 183.7 13 C 182.9 13 182.8 13.6 182.8 14.4 C 182.78 14.35 182.8 20.3 182.8 20.3 L 180.4 20.3 L 180.4 8 L 182.8 8 L 182.8 12.6 C 182.8 12.6 182.82 12.55 182.8 12.6 C 183.1 12.2 183.3 11.9 183.7 11.8 C 184 11.6 184.4 11.5 184.8 11.5 C 186 11.5 187 12.2 187 13.4 C 186.98 13.39 187 20.3 187 20.3 L 184.6 20.3 Z M 191.2 11.7 L 191.2 12.8 C 191.2 12.8 191.2 12.79 191.2 12.8 C 191.6 11.8 192.5 11.5 193.4 11.5 C 193.4 11.5 193.4 13.7 193.4 13.7 C 191.3 13.5 191.3 14.7 191.3 15.6 C 191.28 15.6 191.3 20.3 191.3 20.3 L 188.9 20.3 L 188.9 11.7 L 191.2 11.7 Z M 198.9 15.7 C 198.9 13.9 198.9 13 197.8 13 C 196.8 13 196.7 13.9 196.7 15.7 C 196.7 18.3 197 18.9 197.8 18.9 C 198.7 18.9 198.9 18.3 198.9 15.7 Z M 194.3 15.9 C 194.3 13.5 194.7 11.5 197.8 11.5 C 201 11.5 201.3 13.5 201.3 15.9 C 201.3 18.6 200.9 20.4 197.8 20.4 C 194.8 20.4 194.3 18.6 194.3 15.9 Z M 205.3 12.6 C 205.3 12.6 205.29 12.55 205.3 12.6 C 205.8 11.8 206.4 11.5 207.3 11.5 C 208.2 11.5 208.8 11.9 209.2 12.6 C 209.8 11.9 210.5 11.5 211.5 11.5 C 212.6 11.5 213.6 12.2 213.6 13.4 C 213.6 13.39 213.6 20.3 213.6 20.3 L 211.2 20.3 C 211.2 20.3 211.21 14.35 211.2 14.4 C 211.2 13.6 211.1 13 210.3 13 C 209.5 13 209.4 13.6 209.4 14.4 C 209.4 14.35 209.4 20.3 209.4 20.3 L 207.1 20.3 C 207.1 20.3 207.06 14.35 207.1 14.4 C 207.1 13.6 206.9 13 206.2 13 C 205.4 13 205.3 13.6 205.3 14.4 C 205.26 14.35 205.3 20.3 205.3 20.3 L 202.9 20.3 L 202.9 11.7 L 205.3 11.7 L 205.3 12.6 Z M 219.7 15.9 C 219.7 14.2 219.7 13 218.7 13 C 217.7 13 217.7 14.2 217.7 15.9 C 217.7 18.1 217.9 19 218.7 19 C 219.6 19 219.7 18.1 219.7 15.9 Z M 215.3 8 L 217.7 8 L 217.7 12.5 C 217.7 12.5 217.75 12.5 217.8 12.5 C 218.2 11.8 218.8 11.5 219.7 11.5 C 222.1 11.5 222.1 14.2 222.1 15.9 C 222.1 17.7 222.1 20.4 219.7 20.4 C 218.7 20.4 218.1 20.2 217.6 19.3 C 217.63 19.32 217.6 19.3 217.6 19.3 L 217.6 20.3 L 215.3 20.3 L 215.3 8 Z M 228.2 15.7 C 228.2 13.9 228.1 13 227.1 13 C 226.1 13 226 13.9 226 15.7 C 226 18.3 226.2 18.9 227.1 18.9 C 228 18.9 228.2 18.3 228.2 15.7 Z M 223.6 15.9 C 223.6 13.5 224 11.5 227.1 11.5 C 230.3 11.5 230.6 13.5 230.6 15.9 C 230.6 18.6 230.2 20.4 227.1 20.4 C 224 20.4 223.6 18.6 223.6 15.9 Z M 236.7 15 C 236.7 14.2 236.8 13 235.6 13 C 234.5 13 234.5 14.3 234.5 15 C 234.5 15 236.7 15 236.7 15 Z M 234.5 16.4 C 234.5 17.4 234.6 18.9 235.6 18.9 C 236.5 18.9 236.6 18.1 236.6 17.4 C 236.6 17.4 239.1 17.4 239.1 17.4 C 239 18.3 238.7 19.1 238.2 19.6 C 237.6 20.1 236.7 20.4 235.6 20.4 C 232.5 20.4 232.1 18.6 232.1 15.9 C 232.1 13.5 232.5 11.5 235.6 11.5 C 238.8 11.5 239.2 13.6 239.1 16.4 C 239.1 16.4 234.5 16.4 234.5 16.4 Z M 243 12.6 C 243 12.6 243.06 12.55 243.1 12.6 C 243.5 11.8 244.2 11.5 245.1 11.5 C 245.9 11.5 246.6 11.9 247 12.6 C 247.6 11.9 248.2 11.5 249.2 11.5 C 250.4 11.5 251.4 12.2 251.4 13.4 C 251.38 13.39 251.4 20.3 251.4 20.3 L 249 20.3 C 249 20.3 248.98 14.35 249 14.4 C 249 13.6 248.8 13 248.1 13 C 247.3 13 247.2 13.6 247.2 14.4 C 247.18 14.35 247.2 20.3 247.2 20.3 L 244.8 20.3 C 244.8 20.3 244.83 14.35 244.8 14.4 C 244.8 13.6 244.7 13 243.9 13 C 243.2 13 243 13.6 243 14.4 C 243.03 14.35 243 20.3 243 20.3 L 240.6 20.3 L 240.6 11.7 L 243 11.7 L 243 12.6 Z M 257.5 15.9 C 257.5 14.2 257.5 13 256.5 13 C 255.5 13 255.5 14.2 255.5 15.9 C 255.5 18.1 255.6 19 256.5 19 C 257.3 19 257.5 18.1 257.5 15.9 Z M 253.1 8 L 255.5 8 L 255.5 12.5 C 255.5 12.5 255.52 12.5 255.5 12.5 C 256 11.8 256.6 11.5 257.5 11.5 C 259.9 11.5 259.8 14.2 259.8 15.9 C 259.8 17.7 259.9 20.4 257.4 20.4 C 256.5 20.4 255.8 20.2 255.4 19.3 C 255.41 19.32 255.4 19.3 255.4 19.3 L 255.4 20.3 L 253.1 20.3 L 253.1 8 Z M 266 15.7 C 266 13.9 265.9 13 264.9 13 C 263.9 13 263.8 13.9 263.8 15.7 C 263.8 18.3 264 18.9 264.9 18.9 C 265.8 18.9 266 18.3 266 15.7 Z M 261.4 15.9 C 261.4 13.5 261.7 11.5 264.9 11.5 C 268.1 11.5 268.4 13.5 268.4 15.9 C 268.4 18.6 268 20.4 264.9 20.4 C 261.8 20.4 261.4 18.6 261.4 15.9 Z M 272.7 8 L 272.7 20.3 L 270.3 20.3 L 270.3 8 L 272.7 8 Z M 277.4 20.3 L 275 20.3 L 275 11.7 L 277.4 11.7 L 277.4 20.3 Z M 277.4 8 L 277.4 9.9 L 275 9.9 L 275 8 L 277.4 8 Z M 283.9 14.7 C 283.9 13.5 283.6 13 282.8 13 C 281.8 13 281.7 13.9 281.7 15.7 C 281.7 18.3 282 18.9 282.8 18.9 C 283.6 18.9 283.9 18.2 283.9 17.1 C 283.9 17.1 286.3 17.1 286.3 17.1 C 286.3 19.4 285.1 20.4 282.8 20.4 C 279.7 20.4 279.3 18.6 279.3 15.9 C 279.3 13.5 279.7 11.5 282.8 11.5 C 285.1 11.5 286.3 12.5 286.3 14.7 C 286.3 14.7 283.9 14.7 283.9 14.7 Z M 296.2 15 C 296.2 14.2 296.3 13 295.1 13 C 294 13 294 14.3 294 15 C 294 15 296.2 15 296.2 15 Z M 294 16.4 C 294 17.4 294.1 18.9 295.1 18.9 C 296 18.9 296.1 18.1 296.1 17.4 C 296.1 17.4 298.6 17.4 298.6 17.4 C 298.5 18.3 298.2 19.1 297.7 19.6 C 297.1 20.1 296.2 20.4 295.1 20.4 C 292 20.4 291.6 18.6 291.6 15.9 C 291.6 13.5 292 11.5 295.1 11.5 C 298.3 11.5 298.7 13.6 298.6 16.4 C 298.6 16.4 294 16.4 294 16.4 Z M 299.5 11.7 L 301.9 11.7 L 303.1 18.1 L 303.2 18.1 L 304.4 11.7 L 306.8 11.7 L 304.4 20.3 L 301.8 20.3 L 299.5 11.7 Z M 312.3 15 C 312.3 14.2 312.3 13 311.2 13 C 310.1 13 310.1 14.3 310.1 15 C 310.1 15 312.3 15 312.3 15 Z M 310.1 16.4 C 310.1 17.4 310.1 18.9 311.2 18.9 C 312 18.9 312.2 18.1 312.2 17.4 C 312.2 17.4 314.6 17.4 314.6 17.4 C 314.6 18.3 314.3 19.1 313.7 19.6 C 313.1 20.1 312.3 20.4 311.2 20.4 C 308.1 20.4 307.7 18.6 307.7 15.9 C 307.7 13.5 308 11.5 311.2 11.5 C 314.4 11.5 314.8 13.6 314.7 16.4 C 314.7 16.4 310.1 16.4 310.1 16.4 Z M 318.8 12.6 C 318.8 12.6 318.8 12.55 318.8 12.6 C 319 12.2 319.3 11.9 319.6 11.8 C 320 11.6 320.4 11.5 320.8 11.5 C 322 11.5 323 12.2 323 13.4 C 322.96 13.39 323 20.3 323 20.3 L 320.6 20.3 C 320.6 20.3 320.57 14.35 320.6 14.4 C 320.6 13.6 320.4 13 319.7 13 C 318.9 13 318.8 13.6 318.8 14.4 C 318.76 14.35 318.8 20.3 318.8 20.3 L 316.4 20.3 L 316.4 11.7 L 318.8 11.7 L 318.8 12.6 Z M 323.9 11.7 L 324.9 11.7 L 324.9 10.3 L 327.3 9.3 L 327.3 11.7 L 328.5 11.7 L 328.5 13.2 L 327.3 13.2 C 327.3 13.2 327.26 17.75 327.3 17.8 C 327.3 18.4 327.2 18.8 328 18.8 C 328.2 18.8 328.3 18.8 328.5 18.8 C 328.5 18.8 328.5 20.3 328.5 20.3 C 328.1 20.3 327.8 20.4 327.2 20.4 C 325.1 20.4 324.9 19 324.9 18.5 C 324.87 18.45 324.9 13.2 324.9 13.2 L 323.9 13.2 L 323.9 11.7 Z M 331.5 17.5 C 331.5 17.9 331.5 18.3 331.6 18.6 C 331.7 18.8 332 19 332.5 19 C 332.9 19 333.4 18.7 333.4 18.1 C 333.4 16.3 329.1 16.7 329.1 13.9 C 329.1 12.1 331 11.5 332.5 11.5 C 334.1 11.5 335.6 12.3 335.5 14.2 C 335.5 14.2 333.1 14.2 333.1 14.2 C 333.1 13.6 333.1 13.2 332.9 13 C 332.8 12.9 332.6 12.9 332.3 12.9 C 331.8 12.9 331.5 13.2 331.5 13.8 C 331.5 15.1 335.7 15.1 335.7 17.8 C 335.7 19.3 334.5 20.4 332.5 20.4 C 330.4 20.4 329 19.9 329.1 17.5 C 329.1 17.5 331.5 17.5 331.5 17.5 Z " stroke="none" fill="#003c71"/>  </g></svg>