<?xml version="1.0" standalone="no"?><!DOCTYPE svg PUBLIC "-//W3C//DTD SVG 1.1//EN" "http://www.w3.org/Graphics/SVG/1.1/DTD/svg11.dtd"><svg xmlns="http://www.w3.org/2000/svg" version="1.1" width="13.1px" height="51.7px" viewBox="0 -8 13.1 51.7" style="top:-8px">  <desc>3</desc>  <defs/>  <g id="Polygon192141">    <path d="M 1.3 18.6 L 4.6 18.6 C 4.6 18.6 4.6 19.97 4.6 20 C 4.6 22 5.1 23.1 6.5 23.1 C 8 23.1 8.5 22 8.5 20 C 8.5 20 8.5 17 8.5 17 C 8.5 14.7 7.9 13.9 5.5 13.9 C 5.48 13.92 4.6 13.9 4.6 13.9 L 4.6 11 C 4.6 11 5.73 10.97 5.7 11 C 7.8 11 8.4 10.4 8.4 7.9 C 8.4 7.9 8.4 5.1 8.4 5.1 C 8.4 2.9 7.7 2.4 6.7 2.4 C 5.3 2.4 4.8 3.6 4.8 5.6 C 4.78 5.55 4.8 6.4 4.8 6.4 C 4.8 6.4 1.48 6.4 1.5 6.4 C 1.5 1.5 2.5 -0.1 6.7 -0.1 C 10.8 -0.1 11.7 1.8 11.7 6.6 C 11.7 11 11.1 11.9 8.6 12.3 C 8.6 12.3 8.6 12.4 8.6 12.4 C 10.8 12.8 11.8 13.3 11.8 19.4 C 11.8 24 10.7 25.7 6.5 25.7 C 2.4 25.7 1.3 24 1.3 19.4 C 1.3 19.4 1.3 18.6 1.3 18.6 Z " stroke="none" fill="#fff"/>  </g></svg>