<?xml version="1.0" standalone="no"?><!DOCTYPE svg PUBLIC "-//W3C//DTD SVG 1.1//EN" "http://www.w3.org/Graphics/SVG/1.1/DTD/svg11.dtd"><svg xmlns="http://www.w3.org/2000/svg" version="1.1" width="437px" height="89.7px" viewBox="0 -1 437 89.7" style="top:-1px">  <desc>Subcutaneous injection: 15 seconds, once a month, with pre filled pen (1,2 mL)1‡</desc>  <defs/>  <g id="Polygon191928">    <path d="M 0.2 49.2 L 2.6 49.2 L 3.7 55.7 L 3.8 55.7 L 5.4 49.2 L 7.9 49.2 L 9.4 55.7 L 9.5 55.7 L 10.7 49.2 L 13 49.2 L 10.7 57.8 L 8.2 57.8 L 6.6 52 L 6.6 52 L 4.9 57.8 L 2.3 57.8 L 0.2 49.2 Z M 16.8 57.8 L 14.4 57.8 L 14.4 49.2 L 16.8 49.2 L 16.8 57.8 Z M 16.8 45.5 L 16.8 47.4 L 14.4 47.4 L 14.4 45.5 L 16.8 45.5 Z M 17.9 49.2 L 18.9 49.2 L 18.9 47.9 L 21.3 46.8 L 21.3 49.2 L 22.5 49.2 L 22.5 50.7 L 21.3 50.7 C 21.3 50.7 21.3 55.31 21.3 55.3 C 21.3 56 21.3 56.4 22.1 56.4 C 22.2 56.4 22.4 56.4 22.5 56.3 C 22.5 56.3 22.5 57.8 22.5 57.8 C 22.2 57.9 21.8 57.9 21.2 57.9 C 19.2 57.9 18.9 56.5 18.9 56 C 18.9 56 18.9 50.7 18.9 50.7 L 17.9 50.7 L 17.9 49.2 Z M 27.8 57.8 C 27.8 57.8 27.83 51.91 27.8 51.9 C 27.8 51.1 27.7 50.5 26.9 50.5 C 26.2 50.5 26 51.1 26 51.9 C 26.03 51.91 26 57.8 26 57.8 L 23.6 57.8 L 23.6 45.5 L 26 45.5 L 26 50.1 C 26 50.1 26.06 50.11 26.1 50.1 C 26.3 49.7 26.6 49.5 26.9 49.3 C 27.3 49.1 27.6 49.1 28.1 49.1 C 29.2 49.1 30.2 49.7 30.2 50.9 C 30.23 50.94 30.2 57.8 30.2 57.8 L 27.8 57.8 Z M 40.3 53.5 C 40.3 51.7 40.3 50.5 39.3 50.5 C 38.3 50.5 38.3 51.7 38.3 53.5 C 38.3 55.6 38.5 56.5 39.3 56.5 C 40.1 56.5 40.3 55.6 40.3 53.5 Z M 38.2 49.2 L 38.2 50.2 C 38.2 50.2 38.22 50.19 38.2 50.2 C 38.7 49.4 39.3 49.1 40.2 49.1 C 42.7 49.1 42.6 51.8 42.6 53.6 C 42.6 55.3 42.7 58 40.3 58 C 39.4 58 38.8 57.7 38.3 57 C 38.33 57.01 38.3 57 38.3 57 L 38.3 61.5 L 35.9 61.5 L 35.9 49.2 L 38.2 49.2 Z M 46.7 49.2 L 46.7 50.3 C 46.7 50.3 46.72 50.34 46.7 50.3 C 47.2 49.4 48 49.1 48.9 49.1 C 48.9 49.1 48.9 51.2 48.9 51.2 C 46.8 51.1 46.8 52.3 46.8 53.1 C 46.8 53.15 46.8 57.8 46.8 57.8 L 44.4 57.8 L 44.4 49.2 L 46.7 49.2 Z M 54.5 52.6 C 54.5 51.7 54.5 50.5 53.4 50.5 C 52.3 50.5 52.3 51.8 52.3 52.6 C 52.3 52.6 54.5 52.6 54.5 52.6 Z M 52.3 53.9 C 52.3 54.9 52.3 56.5 53.4 56.5 C 54.2 56.5 54.4 55.6 54.4 54.9 C 54.4 54.9 56.8 54.9 56.8 54.9 C 56.8 55.9 56.5 56.6 55.9 57.2 C 55.3 57.7 54.5 58 53.4 58 C 50.3 58 49.9 56.1 49.9 53.4 C 49.9 51.1 50.2 49.1 53.4 49.1 C 56.6 49.1 56.9 51.2 56.9 53.9 C 56.9 53.9 52.3 53.9 52.3 53.9 Z M 62.5 52.4 L 62.5 54.1 L 58.4 54.1 L 58.4 52.4 L 62.5 52.4 Z M 67.9 47 C 66.9 47 66.7 47.3 66.7 48.2 C 66.74 48.2 66.7 49.2 66.7 49.2 L 67.9 49.2 L 67.9 50.7 L 66.7 50.7 L 66.7 57.8 L 64.3 57.8 L 64.3 50.7 L 63.3 50.7 L 63.3 49.2 C 63.3 49.2 64.36 49.24 64.4 49.2 C 64.3 46.8 64.1 45.5 67.1 45.5 C 67.4 45.5 67.6 45.5 67.9 45.5 C 67.9 45.5 67.9 47 67.9 47 Z M 71.6 57.8 L 69.2 57.8 L 69.2 49.2 L 71.6 49.2 L 71.6 57.8 Z M 71.6 45.5 L 71.6 47.4 L 69.2 47.4 L 69.2 45.5 L 71.6 45.5 Z M 76.3 45.5 L 76.3 57.8 L 73.9 57.8 L 73.9 45.5 L 76.3 45.5 Z M 81 45.5 L 81 57.8 L 78.6 57.8 L 78.6 45.5 L 81 45.5 Z M 87.5 52.6 C 87.5 51.7 87.6 50.5 86.4 50.5 C 85.3 50.5 85.3 51.8 85.3 52.6 C 85.3 52.6 87.5 52.6 87.5 52.6 Z M 85.3 53.9 C 85.3 54.9 85.4 56.5 86.4 56.5 C 87.3 56.5 87.4 55.6 87.4 54.9 C 87.4 54.9 89.9 54.9 89.9 54.9 C 89.8 55.9 89.5 56.6 89 57.2 C 88.4 57.7 87.5 58 86.4 58 C 83.3 58 82.9 56.1 82.9 53.4 C 82.9 51.1 83.3 49.1 86.4 49.1 C 89.7 49.1 90 51.2 89.9 53.9 C 89.9 53.9 85.3 53.9 85.3 53.9 Z M 95.8 53.5 C 95.8 51.7 95.8 50.5 94.8 50.5 C 93.8 50.5 93.8 51.7 93.8 53.5 C 93.8 55.6 94 56.5 94.8 56.5 C 95.6 56.5 95.8 55.6 95.8 53.5 Z M 95.9 57.8 L 95.9 56.9 C 95.9 56.9 95.88 56.87 95.9 56.9 C 95.4 57.7 94.8 58 93.9 58 C 91.4 58 91.5 55.2 91.5 53.5 C 91.5 51.7 91.4 49.1 93.8 49.1 C 94.7 49.1 95.3 49.3 95.8 50.1 C 95.76 50.05 95.8 50.1 95.8 50.1 L 95.8 45.5 L 98.2 45.5 L 98.2 57.8 L 95.9 57.8 Z M 108.3 53.5 C 108.3 51.7 108.3 50.5 107.3 50.5 C 106.3 50.5 106.3 51.7 106.3 53.5 C 106.3 55.6 106.5 56.5 107.3 56.5 C 108.1 56.5 108.3 55.6 108.3 53.5 Z M 106.2 49.2 L 106.2 50.2 C 106.2 50.2 106.22 50.19 106.2 50.2 C 106.7 49.4 107.3 49.1 108.2 49.1 C 110.7 49.1 110.6 51.8 110.6 53.6 C 110.6 55.3 110.7 58 108.3 58 C 107.4 58 106.8 57.7 106.3 57 C 106.33 57.01 106.3 57 106.3 57 L 106.3 61.5 L 103.9 61.5 L 103.9 49.2 L 106.2 49.2 Z M 116.8 52.6 C 116.8 51.7 116.8 50.5 115.7 50.5 C 114.6 50.5 114.6 51.8 114.6 52.6 C 114.6 52.6 116.8 52.6 116.8 52.6 Z M 114.6 53.9 C 114.6 54.9 114.6 56.5 115.7 56.5 C 116.6 56.5 116.7 55.6 116.7 54.9 C 116.7 54.9 119.2 54.9 119.2 54.9 C 119.1 55.9 118.8 56.6 118.2 57.2 C 117.7 57.7 116.8 58 115.7 58 C 112.6 58 112.2 56.1 112.2 53.4 C 112.2 51.1 112.5 49.1 115.7 49.1 C 118.9 49.1 119.3 51.2 119.2 53.9 C 119.2 53.9 114.6 53.9 114.6 53.9 Z M 123.3 50.1 C 123.3 50.1 123.33 50.11 123.3 50.1 C 123.6 49.7 123.9 49.5 124.2 49.3 C 124.5 49.1 124.9 49.1 125.4 49.1 C 126.5 49.1 127.5 49.7 127.5 50.9 C 127.5 50.94 127.5 57.8 127.5 57.8 L 125.1 57.8 C 125.1 57.8 125.1 51.91 125.1 51.9 C 125.1 51.1 125 50.5 124.2 50.5 C 123.4 50.5 123.3 51.1 123.3 51.9 C 123.3 51.91 123.3 57.8 123.3 57.8 L 120.9 57.8 L 120.9 49.2 L 123.3 49.2 L 123.3 50.1 Z M 135.9 45 C 135.4 47.1 134.8 49.6 134.8 52.3 C 134.8 55.3 135.5 57.7 135.9 59.9 C 135.9 59.9 134.6 59.9 134.6 59.9 C 133.8 57.5 132.8 54.8 132.8 52.3 C 132.8 49.8 133.9 46.7 134.6 45 C 134.6 45 135.9 45 135.9 45 Z M 137.8 47.8 C 138.6 47.3 139.5 46.8 140.1 46 C 140.08 45.96 142.4 46 142.4 46 L 142.4 57.8 L 139.8 57.8 C 139.8 57.8 139.79 48.69 139.8 48.7 C 139.2 49.2 138.5 49.6 137.8 50 C 137.8 50 137.8 47.8 137.8 47.8 Z M 145.6 55.6 L 147.8 55.6 L 146.6 59.5 L 144.9 59.5 L 145.6 55.6 Z M 148.5 57.8 C 148.5 57.8 148.48 55.73 148.5 55.7 C 152.2 50.8 153 50.2 153 48.7 C 153 48.1 152.8 47.5 152.1 47.5 C 151.1 47.5 151.1 48.5 151.1 49.2 C 151.1 49.2 148.7 49.2 148.7 49.2 C 148.5 47 149.7 45.8 151.9 45.8 C 154 45.8 155.4 46.6 155.4 48.9 C 155.4 51.5 152.3 54.6 151 56 C 150.99 55.99 155.5 56 155.5 56 L 155.5 57.8 L 148.5 57.8 Z M 162.8 50.1 C 162.8 50.1 162.79 50.11 162.8 50.1 C 163.3 49.3 163.9 49.1 164.8 49.1 C 165.7 49.1 166.3 49.5 166.7 50.2 C 167.3 49.4 168 49.1 169 49.1 C 170.1 49.1 171.1 49.7 171.1 50.9 C 171.1 50.94 171.1 57.8 171.1 57.8 L 168.7 57.8 C 168.7 57.8 168.71 51.91 168.7 51.9 C 168.7 51.1 168.6 50.5 167.8 50.5 C 167 50.5 166.9 51.1 166.9 51.9 C 166.9 51.91 166.9 57.8 166.9 57.8 L 164.6 57.8 C 164.6 57.8 164.56 51.91 164.6 51.9 C 164.6 51.1 164.4 50.5 163.7 50.5 C 162.9 50.5 162.8 51.1 162.8 51.9 C 162.76 51.91 162.8 57.8 162.8 57.8 L 160.4 57.8 L 160.4 49.2 L 162.8 49.2 L 162.8 50.1 Z M 173 57.8 L 173 45.5 L 175.5 45.5 L 175.5 55.8 L 179.4 55.8 L 179.4 57.8 L 173 57.8 Z M 180.4 59.9 C 180.9 57.8 181.5 55.2 181.5 52.6 C 181.5 49.5 180.8 47.1 180.4 45 C 180.4 45 181.8 45 181.8 45 C 182.6 47.4 183.6 50.1 183.6 52.6 C 183.6 55.1 182.5 58.1 181.8 59.9 C 181.8 59.9 180.4 59.9 180.4 59.9 Z M 184.6 46.3 C 185.1 46 185.6 45.7 186 45.2 C 185.97 45.25 187.3 45.2 187.3 45.2 L 187.3 52.2 L 185.8 52.2 C 185.8 52.2 185.8 46.84 185.8 46.8 C 185.4 47.1 185 47.4 184.6 47.6 C 184.6 47.6 184.6 46.3 184.6 46.3 Z M 190.1 50.7 L 188.6 50.7 L 188.6 49.7 L 190.1 49.7 L 190.1 47.4 L 188.6 47.4 L 188.6 46.5 L 190.1 46.5 L 190.1 45 L 191.3 45 L 191.3 46.5 L 192.9 46.5 L 192.9 47.4 L 191.3 47.4 L 191.3 49.7 L 192.9 49.7 L 192.9 50.7 L 191.3 50.7 L 191.3 52.2 L 190.1 52.2 L 190.1 50.7 Z " stroke="none" fill="#003c71"/>  </g>  <g id="Polygon191927">    <path d="M 4.4 37.6 C 1.2 37.6 0.6 35.8 0.8 33.6 C 0.8 33.6 3.3 33.6 3.3 33.6 C 3.3 34.8 3.4 35.8 4.8 35.8 C 5.7 35.8 6.1 35.2 6.1 34.4 C 6.1 32.2 0.9 32.1 0.9 28.4 C 0.9 26.5 1.8 24.9 5 24.9 C 7.5 24.9 8.7 26.1 8.5 28.6 C 8.5 28.6 6 28.6 6 28.6 C 6 27.7 5.9 26.8 4.8 26.8 C 4 26.8 3.5 27.2 3.5 28.1 C 3.5 30.4 8.7 30.2 8.7 34.1 C 8.7 37.3 6.4 37.6 4.4 37.6 Z M 14.6 36.6 C 14.6 36.6 14.57 36.56 14.6 36.6 C 14.3 36.9 14.1 37.2 13.7 37.4 C 13.4 37.5 13 37.6 12.5 37.6 C 11.4 37.6 10.4 36.9 10.4 35.7 C 10.4 35.72 10.4 28.8 10.4 28.8 L 12.8 28.8 C 12.8 28.8 12.8 34.79 12.8 34.8 C 12.8 35.6 12.9 36.1 13.7 36.1 C 14.5 36.1 14.6 35.6 14.6 34.8 C 14.6 34.79 14.6 28.8 14.6 28.8 L 17 28.8 C 17 28.8 17 35.72 17 35.7 C 17 36.3 17 36.9 17.1 37.4 C 17.08 37.42 14.6 37.4 14.6 37.4 L 14.6 36.6 Z M 23.3 33.1 C 23.3 31.3 23.3 30.1 22.3 30.1 C 21.3 30.1 21.3 31.3 21.3 33.1 C 21.3 35.2 21.5 36.1 22.3 36.1 C 23.1 36.1 23.3 35.2 23.3 33.1 Z M 18.9 25.1 L 21.3 25.1 L 21.3 29.7 C 21.3 29.7 21.33 29.65 21.3 29.7 C 21.8 28.9 22.4 28.7 23.3 28.7 C 25.7 28.7 25.6 31.3 25.6 33.1 C 25.6 34.8 25.7 37.6 23.2 37.6 C 22.3 37.6 21.7 37.3 21.2 36.5 C 21.22 36.47 21.2 36.5 21.2 36.5 L 21.2 37.4 L 18.9 37.4 L 18.9 25.1 Z M 31.8 31.9 C 31.8 30.6 31.4 30.2 30.7 30.2 C 29.7 30.2 29.6 31.1 29.6 32.9 C 29.6 35.5 29.8 36.1 30.7 36.1 C 31.4 36.1 31.8 35.4 31.8 34.3 C 31.8 34.3 34.2 34.3 34.2 34.3 C 34.2 36.6 32.9 37.6 30.7 37.6 C 27.6 37.6 27.2 35.7 27.2 33 C 27.2 30.7 27.5 28.7 30.7 28.7 C 32.9 28.7 34.2 29.7 34.2 31.9 C 34.2 31.9 31.8 31.9 31.8 31.9 Z M 40.1 36.6 C 40.1 36.6 40.07 36.56 40.1 36.6 C 39.8 36.9 39.6 37.2 39.2 37.4 C 38.9 37.5 38.5 37.6 38 37.6 C 36.9 37.6 35.9 36.9 35.9 35.7 C 35.9 35.72 35.9 28.8 35.9 28.8 L 38.3 28.8 C 38.3 28.8 38.3 34.79 38.3 34.8 C 38.3 35.6 38.4 36.1 39.2 36.1 C 40 36.1 40.1 35.6 40.1 34.8 C 40.1 34.79 40.1 28.8 40.1 28.8 L 42.5 28.8 C 42.5 28.8 42.5 35.72 42.5 35.7 C 42.5 36.3 42.5 36.9 42.6 37.4 C 42.58 37.42 40.1 37.4 40.1 37.4 L 40.1 36.6 Z M 43.4 28.8 L 44.4 28.8 L 44.4 27.5 L 46.8 26.4 L 46.8 28.8 L 48 28.8 L 48 30.3 L 46.8 30.3 C 46.8 30.3 46.8 34.91 46.8 34.9 C 46.8 35.6 46.8 36 47.6 36 C 47.7 36 47.9 36 48 35.9 C 48 35.9 48 37.4 48 37.4 C 47.7 37.5 47.3 37.5 46.7 37.5 C 44.7 37.5 44.4 36.1 44.4 35.6 C 44.4 35.6 44.4 30.3 44.4 30.3 L 43.4 30.3 L 43.4 28.8 Z M 51.2 34.8 C 51.2 35.4 51.3 36.1 52.1 36.1 C 53.5 36.1 53.3 34.2 53.3 33.3 C 52.1 33.3 51.2 33.2 51.2 34.8 Z M 55.6 35.8 C 55.6 36.4 55.7 36.9 55.8 37.4 C 55.76 37.42 53.5 37.4 53.5 37.4 L 53.4 36.3 C 53.4 36.3 53.4 36.28 53.4 36.3 C 52.9 37.2 52.2 37.6 51.2 37.6 C 49.5 37.6 48.9 36.4 48.9 34.9 C 48.9 32 51.1 31.9 53.3 31.9 C 53.3 31.9 53.3 31.3 53.3 31.3 C 53.3 30.5 53.2 30 52.3 30 C 51.5 30 51.4 30.6 51.4 31.3 C 51.4 31.3 49.1 31.3 49.1 31.3 C 49.1 30.3 49.4 29.6 50 29.2 C 50.5 28.8 51.3 28.7 52.2 28.7 C 55.2 28.7 55.6 30 55.6 31.5 C 55.6 31.5 55.6 35.8 55.6 35.8 Z M 60 29.7 C 60 29.7 60.06 29.71 60.1 29.7 C 60.3 29.3 60.6 29.1 60.9 28.9 C 61.3 28.7 61.6 28.7 62.1 28.7 C 63.2 28.7 64.2 29.3 64.2 30.5 C 64.23 30.54 64.2 37.4 64.2 37.4 L 61.8 37.4 C 61.8 37.4 61.83 31.51 61.8 31.5 C 61.8 30.7 61.7 30.1 60.9 30.1 C 60.2 30.1 60 30.7 60 31.5 C 60.03 31.51 60 37.4 60 37.4 L 57.6 37.4 L 57.6 28.8 L 60 28.8 L 60 29.7 Z M 70.5 32.2 C 70.5 31.3 70.6 30.1 69.4 30.1 C 68.3 30.1 68.3 31.4 68.3 32.2 C 68.3 32.2 70.5 32.2 70.5 32.2 Z M 68.3 33.5 C 68.3 34.5 68.4 36.1 69.4 36.1 C 70.3 36.1 70.4 35.2 70.4 34.5 C 70.4 34.5 72.9 34.5 72.9 34.5 C 72.8 35.5 72.5 36.2 72 36.8 C 71.4 37.3 70.5 37.6 69.4 37.6 C 66.3 37.6 65.9 35.7 65.9 33 C 65.9 30.7 66.3 28.7 69.4 28.7 C 72.7 28.7 73 30.8 72.9 33.5 C 72.9 33.5 68.3 33.5 68.3 33.5 Z M 79 32.9 C 79 31.1 78.9 30.2 77.9 30.2 C 76.9 30.2 76.8 31.1 76.8 32.9 C 76.8 35.5 77 36.1 77.9 36.1 C 78.8 36.1 79 35.5 79 32.9 Z M 74.4 33 C 74.4 30.7 74.8 28.7 77.9 28.7 C 81.1 28.7 81.4 30.7 81.4 33 C 81.4 35.7 81 37.6 77.9 37.6 C 74.8 37.6 74.4 35.7 74.4 33 Z M 87.3 36.6 C 87.3 36.6 87.29 36.56 87.3 36.6 C 87.1 36.9 86.8 37.2 86.4 37.4 C 86.1 37.5 85.7 37.6 85.3 37.6 C 84.1 37.6 83.1 36.9 83.1 35.7 C 83.13 35.72 83.1 28.8 83.1 28.8 L 85.5 28.8 C 85.5 28.8 85.53 34.79 85.5 34.8 C 85.5 35.6 85.7 36.1 86.4 36.1 C 87.2 36.1 87.3 35.6 87.3 34.8 C 87.33 34.79 87.3 28.8 87.3 28.8 L 89.7 28.8 C 89.7 28.8 89.73 35.72 89.7 35.7 C 89.7 36.3 89.8 36.9 89.8 37.4 C 89.81 37.42 87.3 37.4 87.3 37.4 L 87.3 36.6 Z M 93.5 34.7 C 93.5 35.1 93.5 35.4 93.6 35.7 C 93.8 36 94 36.1 94.5 36.1 C 95 36.1 95.4 35.8 95.4 35.2 C 95.4 33.4 91.2 33.8 91.2 31.1 C 91.2 29.2 93 28.7 94.6 28.7 C 96.2 28.7 97.7 29.5 97.5 31.3 C 97.5 31.3 95.2 31.3 95.2 31.3 C 95.2 30.7 95.1 30.4 94.9 30.2 C 94.8 30 94.6 30 94.3 30 C 93.8 30 93.5 30.4 93.5 30.9 C 93.5 32.3 97.7 32.2 97.7 35 C 97.7 36.5 96.5 37.6 94.5 37.6 C 92.4 37.6 91 37.1 91.2 34.7 C 91.2 34.7 93.5 34.7 93.5 34.7 Z M 105.6 37.4 L 103.2 37.4 L 103.2 28.8 L 105.6 28.8 L 105.6 37.4 Z M 105.6 25.1 L 105.6 27 L 103.2 27 L 103.2 25.1 L 105.6 25.1 Z M 110.1 29.7 C 110.1 29.7 110.11 29.71 110.1 29.7 C 110.3 29.3 110.6 29.1 111 28.9 C 111.3 28.7 111.7 28.7 112.1 28.7 C 113.3 28.7 114.3 29.3 114.3 30.5 C 114.27 30.54 114.3 37.4 114.3 37.4 L 111.9 37.4 C 111.9 37.4 111.88 31.51 111.9 31.5 C 111.9 30.7 111.7 30.1 111 30.1 C 110.2 30.1 110.1 30.7 110.1 31.5 C 110.07 31.51 110.1 37.4 110.1 37.4 L 107.7 37.4 L 107.7 28.8 L 110.1 28.8 L 110.1 29.7 Z M 118.8 28.8 C 118.8 28.8 118.78 38.21 118.8 38.2 C 118.8 40 118 40.7 116.6 40.7 C 116.3 40.7 116 40.7 115.8 40.6 C 115.8 40.6 115.8 39.1 115.8 39.1 C 116 39.1 116.4 39.1 116.4 38.4 C 116.38 38.44 116.4 28.8 116.4 28.8 L 118.8 28.8 Z M 118.8 25.1 L 118.8 27 L 116.4 27 L 116.4 25.1 L 118.8 25.1 Z M 125.3 32.2 C 125.3 31.3 125.3 30.1 124.2 30.1 C 123.1 30.1 123.1 31.4 123.1 32.2 C 123.1 32.2 125.3 32.2 125.3 32.2 Z M 123.1 33.5 C 123.1 34.5 123.1 36.1 124.2 36.1 C 125.1 36.1 125.2 35.2 125.2 34.5 C 125.2 34.5 127.7 34.5 127.7 34.5 C 127.6 35.5 127.3 36.2 126.7 36.8 C 126.2 37.3 125.3 37.6 124.2 37.6 C 121.1 37.6 120.7 35.7 120.7 33 C 120.7 30.7 121 28.7 124.2 28.7 C 127.4 28.7 127.8 30.8 127.7 33.5 C 127.7 33.5 123.1 33.5 123.1 33.5 Z M 133.8 31.9 C 133.8 30.6 133.4 30.2 132.7 30.2 C 131.7 30.2 131.6 31.1 131.6 32.9 C 131.6 35.5 131.8 36.1 132.7 36.1 C 133.4 36.1 133.8 35.4 133.8 34.3 C 133.8 34.3 136.2 34.3 136.2 34.3 C 136.2 36.6 134.9 37.6 132.7 37.6 C 129.6 37.6 129.2 35.7 129.2 33 C 129.2 30.7 129.5 28.7 132.7 28.7 C 134.9 28.7 136.2 29.7 136.2 31.9 C 136.2 31.9 133.8 31.9 133.8 31.9 Z M 136.9 28.8 L 137.9 28.8 L 137.9 27.5 L 140.3 26.4 L 140.3 28.8 L 141.5 28.8 L 141.5 30.3 L 140.3 30.3 C 140.3 30.3 140.3 34.91 140.3 34.9 C 140.3 35.6 140.3 36 141.1 36 C 141.2 36 141.4 36 141.5 35.9 C 141.5 35.9 141.5 37.4 141.5 37.4 C 141.2 37.5 140.8 37.5 140.2 37.5 C 138.2 37.5 137.9 36.1 137.9 35.6 C 137.9 35.6 137.9 30.3 137.9 30.3 L 136.9 30.3 L 136.9 28.8 Z M 145.2 37.4 L 142.8 37.4 L 142.8 28.8 L 145.2 28.8 L 145.2 37.4 Z M 145.2 25.1 L 145.2 27 L 142.8 27 L 142.8 25.1 L 145.2 25.1 Z M 151.8 32.9 C 151.8 31.1 151.7 30.2 150.7 30.2 C 149.6 30.2 149.5 31.1 149.5 32.9 C 149.5 35.5 149.8 36.1 150.7 36.1 C 151.5 36.1 151.8 35.5 151.8 32.9 Z M 147.2 33 C 147.2 30.7 147.5 28.7 150.7 28.7 C 153.8 28.7 154.2 30.7 154.2 33 C 154.2 35.7 153.7 37.6 150.7 37.6 C 147.6 37.6 147.2 35.7 147.2 33 Z M 158.3 29.7 C 158.3 29.7 158.29 29.71 158.3 29.7 C 158.5 29.3 158.8 29.1 159.1 28.9 C 159.5 28.7 159.9 28.7 160.3 28.7 C 161.4 28.7 162.5 29.3 162.5 30.5 C 162.45 30.54 162.5 37.4 162.5 37.4 L 160.1 37.4 C 160.1 37.4 160.05 31.51 160.1 31.5 C 160.1 30.7 159.9 30.1 159.2 30.1 C 158.4 30.1 158.3 30.7 158.3 31.5 C 158.25 31.51 158.3 37.4 158.3 37.4 L 155.9 37.4 L 155.9 28.8 L 158.3 28.8 L 158.3 29.7 Z M 166.3 28.8 L 166.3 31.1 L 164.3 31.1 L 164.3 28.8 L 166.3 28.8 Z M 166.3 37.4 L 164.3 37.4 L 164.3 35.2 L 166.3 35.2 L 166.3 37.4 Z M 171.8 27.4 C 172.6 26.9 173.5 26.4 174.1 25.6 C 174.08 25.56 176.4 25.6 176.4 25.6 L 176.4 37.4 L 173.8 37.4 C 173.8 37.4 173.79 28.29 173.8 28.3 C 173.2 28.8 172.5 29.2 171.8 29.6 C 171.8 29.6 171.8 27.4 171.8 27.4 Z M 181.5 30.4 C 181.5 30.4 181.51 30.39 181.5 30.4 C 181.9 29.8 182.5 29.6 183.2 29.6 C 185.2 29.6 185.8 30.9 185.8 33.5 C 185.8 36.7 184.6 37.6 182.1 37.6 C 180.2 37.6 178.9 36.8 179 34.6 C 179 34.6 181.4 34.6 181.4 34.6 C 181.4 35 181.4 35.3 181.6 35.5 C 181.7 35.7 181.9 35.8 182.3 35.8 C 183.2 35.8 183.4 35.1 183.4 33.5 C 183.4 32.7 183.4 31.1 182.3 31.1 C 181.6 31.1 181.4 31.9 181.4 32.4 C 181.44 32.44 179.1 32.4 179.1 32.4 L 179.1 25.6 L 185.3 25.6 L 185.3 27.4 L 181.5 27.4 L 181.5 30.4 Z M 192.7 34.7 C 192.6 35.1 192.7 35.4 192.8 35.7 C 192.9 36 193.2 36.1 193.6 36.1 C 194.1 36.1 194.5 35.8 194.5 35.2 C 194.5 33.4 190.3 33.8 190.3 31.1 C 190.3 29.2 192.1 28.7 193.7 28.7 C 195.3 28.7 196.8 29.5 196.7 31.3 C 196.7 31.3 194.3 31.3 194.3 31.3 C 194.3 30.7 194.3 30.4 194.1 30.2 C 193.9 30 193.7 30 193.5 30 C 192.9 30 192.7 30.4 192.7 30.9 C 192.7 32.3 196.9 32.2 196.9 35 C 196.9 36.5 195.7 37.6 193.7 37.6 C 191.6 37.6 190.2 37.1 190.3 34.7 C 190.3 34.7 192.7 34.7 192.7 34.7 Z M 202.7 32.2 C 202.7 31.3 202.8 30.1 201.6 30.1 C 200.5 30.1 200.5 31.4 200.5 32.2 C 200.5 32.2 202.7 32.2 202.7 32.2 Z M 200.5 33.5 C 200.5 34.5 200.6 36.1 201.6 36.1 C 202.5 36.1 202.6 35.2 202.6 34.5 C 202.6 34.5 205.1 34.5 205.1 34.5 C 205 35.5 204.7 36.2 204.2 36.8 C 203.6 37.3 202.7 37.6 201.6 37.6 C 198.5 37.6 198.1 35.7 198.1 33 C 198.1 30.7 198.5 28.7 201.6 28.7 C 204.8 28.7 205.2 30.8 205.1 33.5 C 205.1 33.5 200.5 33.5 200.5 33.5 Z M 211.2 31.9 C 211.2 30.6 210.9 30.2 210.1 30.2 C 209.1 30.2 209 31.1 209 32.9 C 209 35.5 209.2 36.1 210.1 36.1 C 210.9 36.1 211.2 35.4 211.2 34.3 C 211.2 34.3 213.6 34.3 213.6 34.3 C 213.6 36.6 212.4 37.6 210.1 37.6 C 207 37.6 206.6 35.7 206.6 33 C 206.6 30.7 207 28.7 210.1 28.7 C 212.3 28.7 213.6 29.7 213.6 31.9 C 213.6 31.9 211.2 31.9 211.2 31.9 Z M 219.7 32.9 C 219.7 31.1 219.6 30.2 218.6 30.2 C 217.6 30.2 217.5 31.1 217.5 32.9 C 217.5 35.5 217.7 36.1 218.6 36.1 C 219.5 36.1 219.7 35.5 219.7 32.9 Z M 215.1 33 C 215.1 30.7 215.5 28.7 218.6 28.7 C 221.8 28.7 222.1 30.7 222.1 33 C 222.1 35.7 221.7 37.6 218.6 37.6 C 215.5 37.6 215.1 35.7 215.1 33 Z M 226.2 29.7 C 226.2 29.7 226.25 29.71 226.3 29.7 C 226.5 29.3 226.8 29.1 227.1 28.9 C 227.4 28.7 227.8 28.7 228.3 28.7 C 229.4 28.7 230.4 29.3 230.4 30.5 C 230.42 30.54 230.4 37.4 230.4 37.4 L 228 37.4 C 228 37.4 228.02 31.51 228 31.5 C 228 30.7 227.9 30.1 227.1 30.1 C 226.4 30.1 226.2 30.7 226.2 31.5 C 226.22 31.51 226.2 37.4 226.2 37.4 L 223.8 37.4 L 223.8 28.8 L 226.2 28.8 L 226.2 29.7 Z M 236.5 33.1 C 236.5 31.3 236.5 30.1 235.5 30.1 C 234.5 30.1 234.5 31.3 234.5 33.1 C 234.5 35.2 234.6 36.1 235.5 36.1 C 236.3 36.1 236.5 35.2 236.5 33.1 Z M 236.6 37.4 L 236.6 36.5 C 236.6 36.5 236.57 36.47 236.6 36.5 C 236.1 37.3 235.5 37.6 234.5 37.6 C 232.1 37.6 232.1 34.8 232.1 33.1 C 232.1 31.3 232.1 28.7 234.5 28.7 C 235.4 28.7 236 28.9 236.5 29.7 C 236.45 29.65 236.5 29.7 236.5 29.7 L 236.5 25.1 L 238.9 25.1 L 238.9 37.4 L 236.6 37.4 Z M 242.7 34.7 C 242.7 35.1 242.7 35.4 242.8 35.7 C 243 36 243.2 36.1 243.7 36.1 C 244.2 36.1 244.6 35.8 244.6 35.2 C 244.6 33.4 240.4 33.8 240.4 31.1 C 240.4 29.2 242.2 28.7 243.7 28.7 C 245.4 28.7 246.9 29.5 246.7 31.3 C 246.7 31.3 244.4 31.3 244.4 31.3 C 244.4 30.7 244.3 30.4 244.1 30.2 C 244 30 243.8 30 243.5 30 C 243 30 242.7 30.4 242.7 30.9 C 242.7 32.3 246.9 32.2 246.9 35 C 246.9 36.5 245.7 37.6 243.7 37.6 C 241.6 37.6 240.2 37.1 240.4 34.7 C 240.4 34.7 242.7 34.7 242.7 34.7 Z M 248.5 35.2 L 250.8 35.2 L 249.5 39.1 L 247.8 39.1 L 248.5 35.2 Z M 260.3 32.9 C 260.3 31.1 260.2 30.2 259.2 30.2 C 258.2 30.2 258.1 31.1 258.1 32.9 C 258.1 35.5 258.3 36.1 259.2 36.1 C 260.1 36.1 260.3 35.5 260.3 32.9 Z M 255.7 33 C 255.7 30.7 256.1 28.7 259.2 28.7 C 262.4 28.7 262.7 30.7 262.7 33 C 262.7 35.7 262.3 37.6 259.2 37.6 C 256.1 37.6 255.7 35.7 255.7 33 Z M 266.8 29.7 C 266.8 29.7 266.85 29.71 266.8 29.7 C 267.1 29.3 267.4 29.1 267.7 28.9 C 268 28.7 268.4 28.7 268.9 28.7 C 270 28.7 271 29.3 271 30.5 C 271.01 30.54 271 37.4 271 37.4 L 268.6 37.4 C 268.6 37.4 268.61 31.51 268.6 31.5 C 268.6 30.7 268.5 30.1 267.7 30.1 C 266.9 30.1 266.8 30.7 266.8 31.5 C 266.81 31.51 266.8 37.4 266.8 37.4 L 264.4 37.4 L 264.4 28.8 L 266.8 28.8 L 266.8 29.7 Z M 277.3 31.9 C 277.3 30.6 277 30.2 276.2 30.2 C 275.2 30.2 275.1 31.1 275.1 32.9 C 275.1 35.5 275.3 36.1 276.2 36.1 C 277 36.1 277.3 35.4 277.3 34.3 C 277.3 34.3 279.7 34.3 279.7 34.3 C 279.7 36.6 278.5 37.6 276.2 37.6 C 273.1 37.6 272.7 35.7 272.7 33 C 272.7 30.7 273.1 28.7 276.2 28.7 C 278.4 28.7 279.7 29.7 279.7 31.9 C 279.7 31.9 277.3 31.9 277.3 31.9 Z M 285.8 32.2 C 285.8 31.3 285.9 30.1 284.7 30.1 C 283.6 30.1 283.6 31.4 283.6 32.2 C 283.6 32.2 285.8 32.2 285.8 32.2 Z M 283.6 33.5 C 283.6 34.5 283.7 36.1 284.7 36.1 C 285.6 36.1 285.7 35.2 285.7 34.5 C 285.7 34.5 288.2 34.5 288.2 34.5 C 288.1 35.5 287.8 36.2 287.2 36.8 C 286.7 37.3 285.8 37.6 284.7 37.6 C 281.6 37.6 281.2 35.7 281.2 33 C 281.2 30.7 281.6 28.7 284.7 28.7 C 287.9 28.7 288.3 30.8 288.2 33.5 C 288.2 33.5 283.6 33.5 283.6 33.5 Z M 295.8 34.8 C 295.8 35.4 295.9 36.1 296.7 36.1 C 298.1 36.1 297.9 34.2 297.9 33.3 C 296.7 33.3 295.8 33.2 295.8 34.8 Z M 300.2 35.8 C 300.2 36.4 300.3 36.9 300.3 37.4 C 300.32 37.42 298.1 37.4 298.1 37.4 L 298 36.3 C 298 36.3 297.96 36.28 298 36.3 C 297.4 37.2 296.7 37.6 295.7 37.6 C 294 37.6 293.4 36.4 293.4 34.9 C 293.4 32 295.6 31.9 297.9 31.9 C 297.9 31.9 297.9 31.3 297.9 31.3 C 297.9 30.5 297.8 30 296.9 30 C 296.1 30 296 30.6 296 31.3 C 296 31.3 293.6 31.3 293.6 31.3 C 293.6 30.3 294 29.6 294.5 29.2 C 295.1 28.8 295.8 28.7 296.8 28.7 C 299.8 28.7 300.2 30 300.2 31.5 C 300.2 31.5 300.2 35.8 300.2 35.8 Z M 308.2 29.7 C 308.2 29.7 308.21 29.71 308.2 29.7 C 308.7 28.9 309.3 28.7 310.2 28.7 C 311.1 28.7 311.8 29.1 312.2 29.8 C 312.7 29 313.4 28.7 314.4 28.7 C 315.5 28.7 316.5 29.3 316.5 30.5 C 316.52 30.54 316.5 37.4 316.5 37.4 L 314.1 37.4 C 314.1 37.4 314.12 31.51 314.1 31.5 C 314.1 30.7 314 30.1 313.2 30.1 C 312.5 30.1 312.3 30.7 312.3 31.5 C 312.32 31.51 312.3 37.4 312.3 37.4 L 310 37.4 C 310 37.4 309.97 31.51 310 31.5 C 310 30.7 309.8 30.1 309.1 30.1 C 308.3 30.1 308.2 30.7 308.2 31.5 C 308.17 31.51 308.2 37.4 308.2 37.4 L 305.8 37.4 L 305.8 28.8 L 308.2 28.8 L 308.2 29.7 Z M 322.6 32.9 C 322.6 31.1 322.6 30.2 321.5 30.2 C 320.5 30.2 320.4 31.1 320.4 32.9 C 320.4 35.5 320.7 36.1 321.5 36.1 C 322.4 36.1 322.6 35.5 322.6 32.9 Z M 318 33 C 318 30.7 318.4 28.7 321.5 28.7 C 324.7 28.7 325 30.7 325 33 C 325 35.7 324.6 37.6 321.5 37.6 C 318.4 37.6 318 35.7 318 33 Z M 329.1 29.7 C 329.1 29.7 329.17 29.71 329.2 29.7 C 329.4 29.3 329.7 29.1 330 28.9 C 330.4 28.7 330.7 28.7 331.2 28.7 C 332.3 28.7 333.3 29.3 333.3 30.5 C 333.33 30.54 333.3 37.4 333.3 37.4 L 330.9 37.4 C 330.9 37.4 330.94 31.51 330.9 31.5 C 330.9 30.7 330.8 30.1 330 30.1 C 329.3 30.1 329.1 30.7 329.1 31.5 C 329.13 31.51 329.1 37.4 329.1 37.4 L 326.7 37.4 L 326.7 28.8 L 329.1 28.8 L 329.1 29.7 Z M 334.3 28.8 L 335.2 28.8 L 335.2 27.5 L 337.6 26.4 L 337.6 28.8 L 338.9 28.8 L 338.9 30.3 L 337.6 30.3 C 337.6 30.3 337.63 34.91 337.6 34.9 C 337.6 35.6 337.6 36 338.4 36 C 338.6 36 338.7 36 338.8 35.9 C 338.8 35.9 338.8 37.4 338.8 37.4 C 338.5 37.5 338.2 37.5 337.6 37.5 C 335.5 37.5 335.2 36.1 335.2 35.6 C 335.24 35.6 335.2 30.3 335.2 30.3 L 334.3 30.3 L 334.3 28.8 Z M 344.2 37.4 C 344.2 37.4 344.16 31.51 344.2 31.5 C 344.2 30.7 344 30.1 343.3 30.1 C 342.5 30.1 342.4 30.7 342.4 31.5 C 342.36 31.51 342.4 37.4 342.4 37.4 L 340 37.4 L 340 25.1 L 342.4 25.1 L 342.4 29.7 C 342.4 29.7 342.39 29.71 342.4 29.7 C 342.6 29.3 342.9 29.1 343.2 28.9 C 343.6 28.7 344 28.7 344.4 28.7 C 345.6 28.7 346.6 29.3 346.6 30.5 C 346.56 30.54 346.6 37.4 346.6 37.4 L 344.2 37.4 Z M 348.6 35.2 L 350.9 35.2 L 349.6 39.1 L 347.9 39.1 L 348.6 35.2 Z " stroke="none" fill="#003c71"/>  </g></svg>