<?xml version="1.0" standalone="no"?><!DOCTYPE svg PUBLIC "-//W3C//DTD SVG 1.1//EN" "http://www.w3.org/Graphics/SVG/1.1/DTD/svg11.dtd"><svg xmlns="http://www.w3.org/2000/svg" version="1.1" width="318px" height="33.3px" viewBox="0 -4 318 33.3" style="top:-4px">  <desc>Adapted from Craig et al. Lancet. 2023.1</desc>  <defs/>  <g id="Polygon194280">    <path d="M 2.9 0 L 4.3 0 L 7.2 8.7 L 5.9 8.7 L 5.3 6.6 L 1.9 6.6 L 1.3 8.7 L 0.2 8.7 L 2.9 0 Z M 3.6 1 L 3.6 1 L 2.2 5.7 L 5 5.7 L 3.6 1 Z M 10.3 3.3 C 9.2 3.3 9.1 4.2 9.1 5.8 C 9.1 6.7 9.1 8 10.3 8 C 11.4 8 11.4 6.6 11.4 5.4 C 11.4 4.6 11.4 3.3 10.3 3.3 Z M 11.4 0 L 12.4 0 L 12.4 8.7 L 11.4 8.7 L 11.4 8 C 11.4 8 11.38 7.97 11.4 8 C 11 8.5 10.6 8.8 10 8.8 C 9 8.8 8 8.4 8 5.8 C 8 4.2 8.1 2.5 10 2.5 C 10.6 2.5 11 2.8 11.4 3.2 C 11.36 3.24 11.4 3.2 11.4 3.2 L 11.4 0 Z M 15.1 6.9 C 15.1 7.5 15.4 8 16 8 C 16.6 8 17.4 7.6 17.3 5.7 C 16.4 5.7 15.1 5.6 15.1 6.9 Z M 17.3 7.8 C 17.3 7.8 17.29 7.81 17.3 7.8 C 17 8.5 16.5 8.8 15.8 8.8 C 14.5 8.8 14.1 8 14.1 6.8 C 14.1 5 15.9 4.9 17.3 4.9 C 17.3 4.1 17.3 3.3 16.3 3.3 C 15.6 3.3 15.3 3.7 15.3 4.3 C 15.3 4.3 14.3 4.3 14.3 4.3 C 14.3 3 15 2.5 16.3 2.5 C 17.9 2.5 18.3 3.3 18.3 4.3 C 18.3 4.3 18.3 7.2 18.3 7.2 C 18.3 7.7 18.3 8.2 18.4 8.7 C 18.4 8.69 17.3 8.7 17.3 8.7 L 17.3 7.8 Z M 23.6 5.6 C 23.6 4.6 23.6 3.3 22.4 3.3 C 21.2 3.3 21.3 5 21.3 5.9 C 21.3 6.7 21.3 8 22.4 8 C 23.5 8 23.6 7.2 23.6 5.6 Z M 21.3 3.3 C 21.3 3.3 21.29 3.35 21.3 3.3 C 21.6 2.8 22 2.5 22.7 2.5 C 23.7 2.5 24.6 2.9 24.6 5.6 C 24.6 7.1 24.6 8.8 22.6 8.8 C 22.1 8.8 21.6 8.6 21.3 8.1 C 21.3 8.08 21.3 8.1 21.3 8.1 L 21.3 11 L 20.3 11 L 20.3 2.6 L 21.3 2.6 L 21.3 3.3 Z M 26.3 2.6 L 26.3 1.5 L 27.3 1 L 27.3 2.6 L 28.6 2.6 L 28.6 3.4 L 27.3 3.4 C 27.3 3.4 27.29 7.08 27.3 7.1 C 27.3 7.5 27.3 8 28.2 8 C 28.3 8 28.4 7.9 28.6 7.9 C 28.6 7.9 28.6 8.7 28.6 8.7 C 28.3 8.7 28 8.8 27.7 8.8 C 26.7 8.8 26.3 8.4 26.3 7.7 C 26.3 7.68 26.3 3.4 26.3 3.4 L 25.3 3.4 L 25.3 2.6 L 26.3 2.6 Z M 32.9 5.2 C 32.9 3.5 32.4 3.3 31.6 3.3 C 31 3.3 30.5 3.6 30.5 5.2 C 30.5 5.2 32.9 5.2 32.9 5.2 Z M 30.5 6 C 30.5 7.7 30.9 8 31.7 8 C 32.4 8 32.7 7.5 32.8 6.9 C 32.8 6.9 33.9 6.9 33.9 6.9 C 33.8 8.2 33 8.8 31.7 8.8 C 30.5 8.8 29.4 8.4 29.4 5.7 C 29.4 4 29.6 2.5 31.7 2.5 C 33.5 2.5 33.9 3.5 33.9 5.5 C 33.9 5.46 33.9 6 33.9 6 C 33.9 6 30.49 5.98 30.5 6 Z M 37.6 3.3 C 36.5 3.3 36.4 4.2 36.4 5.8 C 36.4 6.7 36.4 8 37.6 8 C 38.7 8 38.7 6.6 38.7 5.4 C 38.7 4.6 38.7 3.3 37.6 3.3 Z M 38.7 0 L 39.7 0 L 39.7 8.7 L 38.7 8.7 L 38.7 8 C 38.7 8 38.71 7.97 38.7 8 C 38.4 8.5 38 8.8 37.3 8.8 C 36.3 8.8 35.4 8.4 35.4 5.8 C 35.4 4.2 35.4 2.5 37.4 2.5 C 37.9 2.5 38.4 2.8 38.7 3.2 C 38.7 3.24 38.7 3.2 38.7 3.2 L 38.7 0 Z M 44.4 2.6 C 44.4 2.6 44.38 1.45 44.4 1.5 C 44.4 0.2 45.2 0 46.1 0 C 46.3 0 46.4 0 46.6 0 C 46.6 0 46.6 0.7 46.6 0.7 C 45.5 0.7 45.4 1.1 45.4 1.6 C 45.36 1.6 45.4 2.6 45.4 2.6 L 46.6 2.6 L 46.6 3.4 L 45.4 3.4 L 45.4 8.7 L 44.4 8.7 L 44.4 3.4 L 43.4 3.4 L 43.4 2.6 L 44.4 2.6 Z M 48.6 3.5 C 48.6 3.5 48.57 3.54 48.6 3.5 C 49 2.6 49.5 2.5 50.4 2.5 C 50.4 2.5 50.4 3.5 50.4 3.5 C 50.4 3.5 50.3 3.5 50.2 3.5 C 50.1 3.5 50 3.5 49.9 3.5 C 48.8 3.5 48.6 4.3 48.6 5.1 C 48.55 5.11 48.6 8.7 48.6 8.7 L 47.6 8.7 L 47.6 2.6 L 48.6 2.6 L 48.6 3.5 Z M 54.9 5.3 C 54.9 3.7 54.4 3.3 53.7 3.3 C 52.9 3.3 52.4 3.7 52.4 5.3 C 52.4 7.3 52.6 8 53.7 8 C 54.7 8 54.9 7.3 54.9 5.3 Z M 51.4 5.7 C 51.4 4 51.6 2.5 53.7 2.5 C 55.8 2.5 56 4 56 5.7 C 56 8.4 54.9 8.8 53.7 8.8 C 52.4 8.8 51.4 8.4 51.4 5.7 Z M 60.5 8.7 C 60.5 8.7 60.5 4.49 60.5 4.5 C 60.5 3.9 60.3 3.3 59.5 3.3 C 59.2 3.3 58.8 3.5 58.7 3.7 C 58.5 4 58.5 4.4 58.5 4.6 C 58.46 4.61 58.5 8.7 58.5 8.7 L 57.5 8.7 C 57.5 8.7 57.48 3.89 57.5 3.9 C 57.5 3.5 57.5 3 57.4 2.6 C 57.42 2.63 58.5 2.6 58.5 2.6 L 58.5 3.4 C 58.5 3.4 58.49 3.38 58.5 3.4 C 58.8 2.7 59.3 2.5 60 2.5 C 60.6 2.5 61.2 2.7 61.4 3.3 C 61.8 2.6 62.3 2.5 62.9 2.5 C 63.5 2.5 64.5 2.7 64.5 4.1 C 64.51 4.08 64.5 8.7 64.5 8.7 L 63.5 8.7 C 63.5 8.7 63.53 4.49 63.5 4.5 C 63.5 3.9 63.4 3.3 62.6 3.3 C 62.2 3.3 62.1 3.3 61.8 3.5 C 61.5 3.8 61.5 4.4 61.5 4.6 C 61.49 4.61 61.5 8.7 61.5 8.7 L 60.5 8.7 Z M 72.8 2.4 C 72.8 1.9 72.8 1.4 72.5 1.2 C 72.3 0.9 71.8 0.8 71.6 0.8 C 70.6 0.8 70.3 1.3 70.2 1.5 C 70.2 1.5 70 1.8 70 3.3 C 70 3.3 70 5.6 70 5.6 C 70 7.7 70.7 7.9 71.5 7.9 C 71.9 7.9 72.9 7.8 72.9 6.1 C 72.9 6.1 74.1 6.1 74.1 6.1 C 74.1 8.9 72.2 8.9 71.6 8.9 C 70.5 8.9 68.9 8.8 68.9 5.4 C 68.9 5.4 68.9 3 68.9 3 C 68.9 0.5 69.9 -0.2 71.7 -0.2 C 73.4 -0.2 74 0.7 73.9 2.4 C 73.9 2.4 72.8 2.4 72.8 2.4 Z M 76.5 3.5 C 76.5 3.5 76.57 3.54 76.6 3.5 C 77 2.6 77.5 2.5 78.4 2.5 C 78.4 2.5 78.4 3.5 78.4 3.5 C 78.4 3.5 78.3 3.5 78.2 3.5 C 78.1 3.5 78 3.5 77.9 3.5 C 76.8 3.5 76.5 4.3 76.5 5.1 C 76.55 5.11 76.5 8.7 76.5 8.7 L 75.6 8.7 L 75.6 2.6 L 76.5 2.6 L 76.5 3.5 Z M 80.4 6.9 C 80.4 7.5 80.7 8 81.4 8 C 82 8 82.7 7.6 82.6 5.7 C 81.7 5.7 80.4 5.6 80.4 6.9 Z M 82.6 7.8 C 82.6 7.8 82.62 7.81 82.6 7.8 C 82.3 8.5 81.9 8.8 81.1 8.8 C 79.8 8.8 79.4 8 79.4 6.8 C 79.4 5 81.2 4.9 82.6 4.9 C 82.6 4.1 82.7 3.3 81.6 3.3 C 80.9 3.3 80.6 3.7 80.7 4.3 C 80.7 4.3 79.6 4.3 79.6 4.3 C 79.6 3 80.4 2.5 81.6 2.5 C 83.2 2.5 83.6 3.3 83.6 4.3 C 83.6 4.3 83.6 7.2 83.6 7.2 C 83.6 7.7 83.7 8.2 83.7 8.7 C 83.72 8.69 82.6 8.7 82.6 8.7 L 82.6 7.8 Z M 86.5 8.7 L 85.5 8.7 L 85.5 2.6 L 86.5 2.6 L 86.5 8.7 Z M 85.4 0 L 86.5 0 L 86.5 1.1 L 85.4 1.1 L 85.4 0 Z M 90.2 3.3 C 89.1 3.3 89.1 4.7 89.1 5.5 C 89.1 7.4 89.5 7.9 90.3 7.9 C 91.5 7.9 91.4 6.5 91.4 5.6 C 91.4 4.7 91.5 3.3 90.2 3.3 Z M 91.4 2.6 L 92.4 2.6 C 92.4 2.6 92.37 9.3 92.4 9.3 C 92.4 10.7 91.5 11 90.1 11 C 89.1 11 88.2 10.5 88.3 9.4 C 88.3 9.4 89.4 9.4 89.4 9.4 C 89.4 9.9 89.8 10.2 90.3 10.2 C 91 10.2 91.4 9.8 91.4 9.2 C 91.39 9.19 91.4 7.9 91.4 7.9 C 91.4 7.9 91.36 7.93 91.4 7.9 C 91.1 8.4 90.6 8.7 90 8.7 C 88.4 8.7 88.1 7.3 88.1 5.5 C 88.1 2.7 89.5 2.5 90 2.5 C 90.6 2.5 91.1 2.8 91.4 3.4 C 91.37 3.37 91.4 3.4 91.4 3.4 L 91.4 2.6 Z M 100.2 5.2 C 100.2 3.5 99.7 3.3 99 3.3 C 98.3 3.3 97.8 3.6 97.8 5.2 C 97.8 5.2 100.2 5.2 100.2 5.2 Z M 97.8 6 C 97.8 7.7 98.3 8 99 8 C 99.7 8 100.1 7.5 100.1 6.9 C 100.1 6.9 101.2 6.9 101.2 6.9 C 101.2 8.2 100.3 8.8 99.1 8.8 C 97.8 8.8 96.8 8.4 96.8 5.7 C 96.8 4 97 2.5 99.1 2.5 C 100.8 2.5 101.2 3.5 101.2 5.5 C 101.22 5.46 101.2 6 101.2 6 C 101.2 6 97.81 5.98 97.8 6 Z M 103 2.6 L 103 1.5 L 103.9 1 L 103.9 2.6 L 105.3 2.6 L 105.3 3.4 L 103.9 3.4 C 103.9 3.4 103.94 7.08 103.9 7.1 C 103.9 7.5 103.9 8 104.8 8 C 104.9 8 105.1 7.9 105.3 7.9 C 105.3 7.9 105.3 8.7 105.3 8.7 C 105 8.7 104.6 8.8 104.3 8.8 C 103.4 8.8 103 8.4 103 7.7 C 102.96 7.68 103 3.4 103 3.4 L 102 3.4 L 102 2.6 L 103 2.6 Z M 109.7 6.9 C 109.7 7.5 110 8 110.7 8 C 111.3 8 112 7.6 111.9 5.7 C 111 5.7 109.7 5.6 109.7 6.9 Z M 112 7.8 C 112 7.8 111.95 7.81 111.9 7.8 C 111.6 8.5 111.2 8.8 110.4 8.8 C 109.1 8.8 108.8 8 108.8 6.8 C 108.8 5 110.6 4.9 111.9 4.9 C 112 4.1 112 3.3 110.9 3.3 C 110.3 3.3 109.9 3.7 110 4.3 C 110 4.3 108.9 4.3 108.9 4.3 C 109 3 109.7 2.5 111 2.5 C 112.5 2.5 112.9 3.3 112.9 4.3 C 112.9 4.3 112.9 7.2 112.9 7.2 C 112.9 7.7 113 8.2 113 8.7 C 113.05 8.69 112 8.7 112 8.7 L 112 7.8 Z M 115.8 8.7 L 114.8 8.7 L 114.8 0 L 115.8 0 L 115.8 8.7 Z M 118.5 8.7 L 117.4 8.7 L 117.4 7.4 L 118.5 7.4 L 118.5 8.7 Z M 123 8.7 L 123 0 L 124.1 0 L 124.1 7.7 L 127.2 7.7 L 127.2 8.7 L 123 8.7 Z M 129.1 6.9 C 129.1 7.5 129.4 8 130 8 C 130.6 8 131.4 7.6 131.3 5.7 C 130.3 5.7 129.1 5.6 129.1 6.9 Z M 131.3 7.8 C 131.3 7.8 131.27 7.81 131.3 7.8 C 131 8.5 130.5 8.8 129.7 8.8 C 128.5 8.8 128.1 8 128.1 6.8 C 128.1 5 129.9 4.9 131.3 4.9 C 131.3 4.1 131.3 3.3 130.2 3.3 C 129.6 3.3 129.2 3.7 129.3 4.3 C 129.3 4.3 128.2 4.3 128.2 4.3 C 128.3 3 129 2.5 130.3 2.5 C 131.8 2.5 132.2 3.3 132.2 4.3 C 132.2 4.3 132.2 7.2 132.2 7.2 C 132.2 7.7 132.3 8.2 132.4 8.7 C 132.37 8.69 131.3 8.7 131.3 8.7 L 131.3 7.8 Z M 137.5 8.7 C 137.5 8.7 137.46 4.49 137.5 4.5 C 137.5 3.8 137.2 3.3 136.4 3.3 C 135.3 3.3 135.2 4.3 135.2 5.1 C 135.15 5.1 135.2 8.7 135.2 8.7 L 134.2 8.7 C 134.2 8.7 134.17 3.89 134.2 3.9 C 134.2 3.5 134.1 3 134.1 2.6 C 134.11 2.63 135.2 2.6 135.2 2.6 L 135.2 3.4 C 135.2 3.4 135.2 3.41 135.2 3.4 C 135.6 2.7 136 2.5 136.8 2.5 C 138.1 2.5 138.4 3.3 138.4 4.5 C 138.44 4.49 138.4 8.7 138.4 8.7 L 137.5 8.7 Z M 143.3 4.6 C 143.4 3.6 142.9 3.3 142.5 3.3 C 141.7 3.3 141.2 3.7 141.2 5.3 C 141.2 7.3 141.5 8 142.5 8 C 142.7 8 143.4 7.8 143.4 6.7 C 143.4 6.7 144.4 6.7 144.4 6.7 C 144.4 8.4 143.2 8.8 142.5 8.8 C 141.2 8.8 140.2 8.4 140.2 5.7 C 140.2 4 140.4 2.5 142.5 2.5 C 143.7 2.5 144.4 3.2 144.4 4.6 C 144.4 4.6 143.3 4.6 143.3 4.6 Z M 149.5 5.2 C 149.5 3.5 149 3.3 148.3 3.3 C 147.7 3.3 147.1 3.6 147.1 5.2 C 147.1 5.2 149.5 5.2 149.5 5.2 Z M 147.1 6 C 147.1 7.7 147.6 8 148.4 8 C 149 8 149.4 7.5 149.4 6.9 C 149.4 6.9 150.5 6.9 150.5 6.9 C 150.5 8.2 149.7 8.8 148.4 8.8 C 147.1 8.8 146.1 8.4 146.1 5.7 C 146.1 4 146.3 2.5 148.4 2.5 C 150.1 2.5 150.5 3.5 150.5 5.5 C 150.54 5.46 150.5 6 150.5 6 C 150.5 6 147.13 5.98 147.1 6 Z M 152.3 2.6 L 152.3 1.5 L 153.3 1 L 153.3 2.6 L 154.6 2.6 L 154.6 3.4 L 153.3 3.4 C 153.3 3.4 153.26 7.08 153.3 7.1 C 153.3 7.5 153.3 8 154.2 8 C 154.2 8 154.4 7.9 154.6 7.9 C 154.6 7.9 154.6 8.7 154.6 8.7 C 154.3 8.7 154 8.8 153.6 8.8 C 152.7 8.8 152.3 8.4 152.3 7.7 C 152.28 7.68 152.3 3.4 152.3 3.4 L 151.3 3.4 L 151.3 2.6 L 152.3 2.6 Z M 156.5 8.7 L 155.4 8.7 L 155.4 7.4 L 156.5 7.4 L 156.5 8.7 Z M 160.5 8.7 C 160.5 8.7 160.49 7.73 160.5 7.7 C 162.9 4.3 163.6 3.7 163.6 2.3 C 163.6 1.6 163.3 1.2 162.6 1.2 C 161.8 1.2 161.6 1.8 161.6 2.5 C 161.6 2.5 160.5 2.5 160.5 2.5 C 160.4 1.1 161.1 0.2 162.5 0.2 C 164 0.2 164.7 0.9 164.7 2.4 C 164.7 4.3 163.8 4.9 161.7 7.7 C 161.66 7.73 165 7.7 165 7.7 L 165 8.7 L 160.5 8.7 Z M 170.2 4.6 C 170.2 6.7 170.2 8.9 168 8.9 C 165.7 8.9 165.7 6.7 165.7 4.6 C 165.7 2.3 165.7 0.2 168 0.2 C 170.2 0.2 170.2 2.3 170.2 4.6 Z M 166.8 4.8 C 166.8 6.2 166.7 7.9 168 7.9 C 169.2 7.9 169.1 6.2 169.1 4.8 C 169.1 2.5 169.1 1.2 168 1.2 C 166.8 1.2 166.8 2.5 166.8 4.8 Z M 171.1 8.7 C 171.1 8.7 171.14 7.73 171.1 7.7 C 173.6 4.3 174.3 3.7 174.3 2.3 C 174.3 1.6 174 1.2 173.3 1.2 C 172.4 1.2 172.3 1.8 172.3 2.5 C 172.3 2.5 171.2 2.5 171.2 2.5 C 171.1 1.1 171.8 0.2 173.2 0.2 C 174.7 0.2 175.4 0.9 175.4 2.4 C 175.4 4.3 174.5 4.9 172.3 7.7 C 172.32 7.73 175.6 7.7 175.6 7.7 L 175.6 8.7 L 171.1 8.7 Z M 178 3.8 C 179 3.9 179.7 3.5 179.7 2.5 C 179.7 1.7 179.3 1.2 178.5 1.2 C 177.6 1.2 177.5 1.8 177.5 2.5 C 177.5 2.5 176.4 2.5 176.4 2.5 C 176.3 1.1 177 0.2 178.5 0.2 C 179.9 0.2 180.8 0.9 180.8 2.4 C 180.8 4 179.6 4.2 179.1 4.3 C 179.1 4.3 179.1 4.3 179.1 4.3 C 180.5 4.5 180.9 5.2 180.9 6.5 C 180.9 8.1 180 8.9 178.4 8.9 C 176.1 8.9 176.3 6.9 176.3 6.4 C 176.3 6.4 177.4 6.4 177.4 6.4 C 177.4 7.2 177.5 7.9 178.5 7.9 C 179.5 7.9 179.8 7.3 179.8 6.4 C 179.8 5.1 179.3 4.8 178 4.8 C 178 4.8 178 3.8 178 3.8 Z M 183.2 8.7 L 182 8.7 L 182 7.4 L 183.2 7.4 L 183.2 8.7 Z M 186 4.7 L 185.3 4.7 L 185.3 0.5 L 184.6 1 C 184.6 1 184.6 0.42 184.6 0.4 C 184.8 0.3 185.2 0 185.4 -0.2 C 185.41 -0.16 186 -0.2 186 -0.2 L 186 4.7 Z " stroke="none" fill="#555555"/>  </g></svg>