<?xml version="1.0" standalone="no"?><!DOCTYPE svg PUBLIC "-//W3C//DTD SVG 1.1//EN" "http://www.w3.org/Graphics/SVG/1.1/DTD/svg11.dtd"><svg xmlns="http://www.w3.org/2000/svg" version="1.1" width="35.5px" height="25.3px" viewBox="0 -5 35.5 25.3" style="top:-5px">  <desc>n=25</desc>  <defs/>  <g id="Polygon195162">    <path d="M 5.4 11.3 C 5.4 11.3 5.4 5.84 5.4 5.8 C 5.4 5 5.1 4.3 4 4.3 C 2.6 4.3 2.4 5.6 2.4 6.6 C 2.4 6.63 2.4 11.3 2.4 11.3 L 1.1 11.3 C 1.1 11.3 1.12 5.06 1.1 5.1 C 1.1 4.5 1.1 4 1 3.4 C 1.05 3.42 2.4 3.4 2.4 3.4 L 2.4 4.4 C 2.4 4.4 2.47 4.43 2.5 4.4 C 3 3.5 3.6 3.3 4.6 3.3 C 6.3 3.3 6.7 4.3 6.7 5.8 C 6.68 5.84 6.7 11.3 6.7 11.3 L 5.4 11.3 Z M 14.9 6.3 L 8.5 6.3 L 8.5 5.3 L 14.9 5.3 L 14.9 6.3 Z M 14.9 9.3 L 8.5 9.3 L 8.5 8.4 L 14.9 8.4 L 14.9 9.3 Z M 16.3 11.3 C 16.3 11.3 16.28 10.05 16.3 10.1 C 19.5 5.6 20.4 4.8 20.4 2.9 C 20.4 2.1 20 1.5 19 1.5 C 18 1.5 17.8 2.4 17.8 3.3 C 17.8 3.3 16.3 3.3 16.3 3.3 C 16.2 1.5 17.1 0.3 18.9 0.3 C 20.9 0.3 21.8 1.2 21.8 3.1 C 21.8 5.6 20.6 6.4 17.8 10.1 C 17.81 10.05 22.1 10.1 22.1 10.1 L 22.1 11.3 L 16.3 11.3 Z M 28.5 0.5 L 28.5 1.7 L 24.9 1.7 L 24.9 4.9 C 24.9 4.9 24.93 4.9 24.9 4.9 C 25.2 4.4 25.9 4.1 26.6 4.1 C 28.2 4.1 28.9 5.2 28.9 7.7 C 28.9 9.5 28.7 11.5 26 11.5 C 23.7 11.5 23.3 10.3 23.3 8.9 C 23.3 8.9 24.7 8.9 24.7 8.9 C 24.7 9.7 25.1 10.5 26 10.5 C 27.4 10.5 27.5 9.2 27.5 8.1 C 27.5 6.5 27.4 5.3 26.1 5.3 C 25.3 5.3 24.9 5.8 24.8 6.6 C 24.76 6.56 23.5 6.6 23.5 6.6 L 23.5 0.5 L 28.5 0.5 Z " stroke="none" fill="#555555"/>  </g></svg>