<?xml version="1.0" standalone="no"?><!DOCTYPE svg PUBLIC "-//W3C//DTD SVG 1.1//EN" "http://www.w3.org/Graphics/SVG/1.1/DTD/svg11.dtd"><svg xmlns="http://www.w3.org/2000/svg" version="1.1" width="356px" height="112px" viewBox="0 0 356 112">  <desc>Reference: 1. Reshef A, et al. Long term safety and efficacy of garadacimab for preventing hereditary angioedema atta...</desc>  <defs/>  <g id="Polygon200389">    <path d="M 43.4 80 L 42.5 80 L 42.5 72.1 L 43.4 72.1 L 43.4 80 Z M 45.8 78.3 C 45.8 78.9 46.1 79.4 46.7 79.4 C 47.2 79.4 47.9 79 47.8 77.2 C 47 77.2 45.8 77.2 45.8 78.3 Z M 47.9 79.2 C 47.9 79.2 47.84 79.19 47.8 79.2 C 47.6 79.8 47.1 80.1 46.4 80.1 C 45.3 80.1 44.9 79.3 44.9 78.3 C 44.9 76.6 46.6 76.5 47.8 76.6 C 47.9 75.8 47.9 75 46.9 75 C 46.3 75 46 75.4 46 76 C 46 76 45.1 76 45.1 76 C 45.1 74.8 45.8 74.3 46.9 74.3 C 48.4 74.3 48.7 75.1 48.7 76 C 48.7 76 48.7 78.7 48.7 78.7 C 48.7 79.1 48.8 79.6 48.9 80 C 48.85 79.99 47.9 80 47.9 80 L 47.9 79.2 Z M 52.5 79.4 C 53.6 79.4 53.6 78.2 53.6 77.3 C 53.6 75.8 53.5 75.1 52.5 75.1 C 51.5 75.1 51.5 76.3 51.5 77 C 51.5 77.8 51.4 79.4 52.5 79.4 Z M 51.5 80 L 50.6 80 L 50.6 72.1 L 51.5 72.1 L 51.5 75 C 51.5 75 51.51 75 51.5 75 C 51.8 74.6 52.2 74.3 52.7 74.3 C 54.5 74.3 54.6 75.9 54.6 77.3 C 54.6 79.8 53.7 80.1 52.8 80.1 C 52.2 80.1 51.8 79.8 51.5 79.3 C 51.5 79.33 51.5 79.3 51.5 79.3 L 51.5 80 Z M 59 76.8 C 59 75.2 58.6 75 57.9 75 C 57.4 75 56.9 75.3 56.9 76.8 C 56.9 76.8 59 76.8 59 76.8 Z M 56.9 77.5 C 56.9 79.1 57.3 79.4 58 79.4 C 58.6 79.4 58.9 78.9 59 78.3 C 59 78.3 60 78.3 60 78.3 C 59.9 79.5 59.2 80.1 58 80.1 C 56.8 80.1 55.9 79.8 55.9 77.3 C 55.9 75.7 56.1 74.3 58 74.3 C 59.6 74.3 60 75.2 60 77 C 60 77.03 60 77.5 60 77.5 C 60 77.5 56.88 77.51 56.9 77.5 Z M 62.4 80 L 61.5 80 L 61.5 72.1 L 62.4 72.1 L 62.4 80 Z M 69.4 76.8 C 69.4 75.2 69 75 68.3 75 C 67.7 75 67.3 75.3 67.3 76.8 C 67.3 76.8 69.4 76.8 69.4 76.8 Z M 67.3 77.5 C 67.3 79.1 67.7 79.4 68.4 79.4 C 69 79.4 69.3 78.9 69.4 78.3 C 69.4 78.3 70.3 78.3 70.3 78.3 C 70.3 79.5 69.6 80.1 68.4 80.1 C 67.2 80.1 66.3 79.8 66.3 77.3 C 66.3 75.7 66.5 74.3 68.4 74.3 C 70 74.3 70.4 75.2 70.4 77 C 70.39 77.03 70.4 77.5 70.4 77.5 C 70.4 77.5 67.26 77.51 67.3 77.5 Z M 75.9 80 L 74.7 80 L 73.4 77.7 L 72.2 80 L 71.2 80 L 72.9 77.1 L 71.3 74.4 L 72.5 74.4 L 73.5 76.4 L 74.6 74.4 L 75.7 74.4 L 74.1 77.1 L 75.9 80 Z M 76.9 74.4 L 76.9 73.4 L 77.8 73 L 77.8 74.4 L 79 74.4 L 79 75.1 L 77.8 75.1 C 77.8 75.1 77.77 78.52 77.8 78.5 C 77.8 78.9 77.8 79.3 78.6 79.3 C 78.7 79.3 78.8 79.3 79 79.3 C 79 79.3 79 80 79 80 C 78.7 80 78.4 80.1 78.1 80.1 C 77.3 80.1 76.9 79.7 76.9 79.1 C 76.87 79.07 76.9 75.1 76.9 75.1 L 76 75.1 L 76 74.4 L 76.9 74.4 Z M 82.9 76.8 C 82.9 75.2 82.4 75 81.8 75 C 81.2 75 80.7 75.3 80.7 76.8 C 80.7 76.8 82.9 76.8 82.9 76.8 Z M 80.7 77.5 C 80.7 79.1 81.1 79.4 81.8 79.4 C 82.4 79.4 82.8 78.9 82.8 78.3 C 82.8 78.3 83.8 78.3 83.8 78.3 C 83.8 79.5 83 80.1 81.9 80.1 C 80.7 80.1 79.7 79.8 79.7 77.3 C 79.7 75.7 79.9 74.3 81.9 74.3 C 83.4 74.3 83.8 75.2 83.8 77 C 83.83 77.03 83.8 77.5 83.8 77.5 C 83.8 77.5 80.71 77.51 80.7 77.5 Z M 88.3 80 C 88.3 80 88.34 76.14 88.3 76.1 C 88.3 75.5 88.1 75.1 87.4 75.1 C 86.4 75.1 86.2 75.9 86.2 76.7 C 86.23 76.7 86.2 80 86.2 80 L 85.3 80 C 85.3 80 85.33 75.59 85.3 75.6 C 85.3 75.2 85.3 74.8 85.3 74.4 C 85.27 74.44 86.2 74.4 86.2 74.4 L 86.2 75.2 C 86.2 75.2 86.27 75.15 86.3 75.2 C 86.6 74.5 87 74.3 87.8 74.3 C 88.9 74.3 89.2 75 89.2 76.1 C 89.24 76.14 89.2 80 89.2 80 L 88.3 80 Z M 92.5 80.1 C 91.3 80.1 90.5 79.6 90.6 78.3 C 90.6 78.3 91.6 78.3 91.6 78.3 C 91.6 78.6 91.6 79.4 92.5 79.4 C 93 79.4 93.5 79.1 93.5 78.5 C 93.5 77.5 90.7 77.5 90.7 75.8 C 90.7 75.3 91 74.3 92.6 74.3 C 93.6 74.3 94.4 74.8 94.4 75.9 C 94.4 75.9 93.4 75.9 93.4 75.9 C 93.4 75.3 93.1 75 92.5 75 C 92 75 91.6 75.3 91.6 75.8 C 91.6 76.7 94.4 76.7 94.4 78.4 C 94.4 79.6 93.6 80.1 92.5 80.1 Z M 96.6 80 L 95.7 80 L 95.7 74.4 L 96.6 74.4 L 96.6 80 Z M 95.6 72.1 L 96.6 72.1 L 96.6 73 L 95.6 73 L 95.6 72.1 Z M 101.3 76.9 C 101.3 75.4 100.8 75.1 100.1 75.1 C 99.4 75.1 98.9 75.4 98.9 76.9 C 98.9 78.7 99.2 79.4 100.1 79.4 C 101 79.4 101.3 78.7 101.3 76.9 Z M 98 77.3 C 98 75.7 98.2 74.3 100.1 74.3 C 102 74.3 102.2 75.7 102.2 77.3 C 102.2 79.8 101.3 80.1 100.1 80.1 C 98.9 80.1 98 79.8 98 77.3 Z M 106.7 80 C 106.7 80 106.67 76.14 106.7 76.1 C 106.7 75.5 106.5 75.1 105.7 75.1 C 104.7 75.1 104.6 75.9 104.6 76.7 C 104.55 76.7 104.6 80 104.6 80 L 103.7 80 C 103.7 80 103.65 75.59 103.7 75.6 C 103.7 75.2 103.6 74.8 103.6 74.4 C 103.6 74.44 104.6 74.4 104.6 74.4 L 104.6 75.2 C 104.6 75.2 104.6 75.15 104.6 75.2 C 105 74.5 105.4 74.3 106.1 74.3 C 107.3 74.3 107.6 75 107.6 76.1 C 107.57 76.14 107.6 80 107.6 80 L 106.7 80 Z M 113.2 80.1 C 112 80.1 111.3 79.6 111.3 78.3 C 111.3 78.3 112.3 78.3 112.3 78.3 C 112.3 78.6 112.4 79.4 113.3 79.4 C 113.8 79.4 114.2 79.1 114.2 78.5 C 114.2 77.5 111.5 77.5 111.5 75.8 C 111.5 75.3 111.8 74.3 113.4 74.3 C 114.4 74.3 115.2 74.8 115.1 75.9 C 115.1 75.9 114.1 75.9 114.1 75.9 C 114.1 75.3 113.8 75 113.3 75 C 112.8 75 112.4 75.3 112.4 75.8 C 112.4 76.7 115.2 76.7 115.2 78.4 C 115.2 79.6 114.3 80.1 113.2 80.1 Z M 116.6 74.4 L 116.6 73.4 L 117.5 73 L 117.5 74.4 L 118.7 74.4 L 118.7 75.1 L 117.5 75.1 C 117.5 75.1 117.48 78.52 117.5 78.5 C 117.5 78.9 117.5 79.3 118.3 79.3 C 118.4 79.3 118.5 79.3 118.7 79.3 C 118.7 79.3 118.7 80 118.7 80 C 118.4 80 118.1 80.1 117.8 80.1 C 117 80.1 116.6 79.7 116.6 79.1 C 116.58 79.07 116.6 75.1 116.6 75.1 L 115.7 75.1 L 115.7 74.4 L 116.6 74.4 Z M 122.5 74.4 L 123.4 74.4 C 123.4 74.4 123.41 78.84 123.4 78.8 C 123.4 79.2 123.4 79.6 123.5 80 C 123.46 79.99 122.5 80 122.5 80 L 122.5 79.3 C 122.5 79.3 122.47 79.32 122.5 79.3 C 122.2 79.8 121.6 80.1 121.1 80.1 C 120.1 80.1 119.6 79.6 119.6 78.7 C 119.57 78.67 119.6 74.4 119.6 74.4 L 120.5 74.4 C 120.5 74.4 120.47 78.29 120.5 78.3 C 120.5 79 120.8 79.4 121.4 79.4 C 121.9 79.4 122.5 79 122.5 78.1 C 122.51 78.12 122.5 74.4 122.5 74.4 Z M 126.9 75.1 C 126 75.1 125.8 75.8 125.8 77.3 C 125.8 78.2 125.8 79.4 127 79.4 C 128 79.4 128 78.1 128 77 C 128 76.3 127.9 75.1 126.9 75.1 Z M 128 72.1 L 128.9 72.1 L 128.9 80 L 128 80 L 128 79.3 C 128 79.3 127.95 79.33 128 79.3 C 127.6 79.8 127.3 80.1 126.7 80.1 C 125.8 80.1 124.9 79.8 124.9 77.3 C 124.9 75.9 124.9 74.3 126.7 74.3 C 127.2 74.3 127.6 74.6 127.9 75 C 127.94 75 128 75 128 75 L 128 72.1 Z M 132.2 79 L 132.2 79 L 133.6 74.4 L 134.5 74.4 L 132 82.1 L 131.1 82.1 L 131.7 80 L 129.8 74.4 L 130.9 74.4 L 132.2 79 Z M 136 80 L 134.9 80 L 134.9 78.8 L 136 78.8 L 136 80 Z M 141.8 72.1 L 143.1 72.1 L 145.7 80 L 144.5 80 L 144 78.1 L 140.9 78.1 L 140.3 80 L 139.3 80 L 141.8 72.1 Z M 142.4 73 L 142.4 73 L 141.1 77.2 L 143.7 77.2 L 142.4 73 Z M 147.5 80 L 146.6 80 L 146.6 72.1 L 147.5 72.1 L 147.5 80 Z M 149.9 80 L 149 80 L 149 72.1 L 149.9 72.1 L 149.9 80 Z M 154.5 76.8 C 154.5 75.2 154.1 75 153.4 75 C 152.9 75 152.4 75.3 152.4 76.8 C 152.4 76.8 154.5 76.8 154.5 76.8 Z M 152.4 77.5 C 152.4 79.1 152.8 79.4 153.5 79.4 C 154.1 79.4 154.4 78.9 154.5 78.3 C 154.5 78.3 155.5 78.3 155.5 78.3 C 155.4 79.5 154.7 80.1 153.5 80.1 C 152.3 80.1 151.4 79.8 151.4 77.3 C 151.4 75.7 151.6 74.3 153.5 74.3 C 155.1 74.3 155.5 75.2 155.5 77 C 155.5 77.03 155.5 77.5 155.5 77.5 C 155.5 77.5 152.38 77.51 152.4 77.5 Z M 157.9 75.3 C 157.9 75.3 157.96 75.27 158 75.3 C 158.3 74.4 158.8 74.3 159.7 74.3 C 159.7 74.3 159.7 75.3 159.7 75.3 C 159.6 75.3 159.5 75.2 159.4 75.2 C 159.4 75.2 159.3 75.2 159.2 75.2 C 158.2 75.2 157.9 76 157.9 76.7 C 157.94 76.71 157.9 80 157.9 80 L 157 80 L 157 74.4 L 157.9 74.4 L 157.9 75.3 Z M 162.5 75.1 C 161.5 75.1 161.5 76.3 161.5 77 C 161.5 78.8 161.9 79.2 162.6 79.2 C 163.7 79.2 163.6 78 163.6 77.2 C 163.6 76.4 163.7 75.1 162.5 75.1 Z M 163.6 74.4 L 164.5 74.4 C 164.5 74.4 164.5 80.55 164.5 80.6 C 164.5 81.8 163.7 82.1 162.5 82.1 C 161.5 82.1 160.7 81.6 160.8 80.6 C 160.8 80.6 161.8 80.6 161.8 80.6 C 161.8 81.1 162.1 81.4 162.6 81.4 C 163.3 81.4 163.6 81 163.6 80.5 C 163.6 80.45 163.6 79.3 163.6 79.3 C 163.6 79.3 163.57 79.3 163.6 79.3 C 163.3 79.7 162.8 80 162.3 80 C 160.8 80 160.5 78.7 160.5 77 C 160.5 74.5 161.8 74.3 162.3 74.3 C 162.9 74.3 163.3 74.6 163.6 75.1 C 163.58 75.12 163.6 75.1 163.6 75.1 L 163.6 74.4 Z M 167.8 79 L 167.9 79 L 169.2 74.4 L 170.2 74.4 L 167.6 82.1 L 166.7 82.1 L 167.3 80 L 165.5 74.4 L 166.5 74.4 L 167.8 79 Z M 171.6 80 L 170.6 80 L 170.6 78.8 L 171.6 78.8 L 171.6 80 Z M 175.2 80 C 175.2 80 175.21 79.11 175.2 79.1 C 177.4 76 178.1 75.4 178.1 74.1 C 178.1 73.5 177.8 73.1 177.2 73.1 C 176.4 73.1 176.3 73.7 176.3 74.3 C 176.3 74.3 175.2 74.3 175.2 74.3 C 175.1 73.1 175.8 72.2 177.1 72.2 C 178.5 72.2 179.1 72.9 179.1 74.2 C 179.1 75.9 178.3 76.5 176.3 79.1 C 176.28 79.11 179.3 79.1 179.3 79.1 L 179.3 80 L 175.2 80 Z M 184.1 76.2 C 184.1 78.2 184.1 80.2 182.1 80.2 C 180 80.2 180 78.2 180 76.2 C 180 74.2 180 72.2 182.1 72.2 C 184.1 72.2 184.1 74.2 184.1 76.2 Z M 181 76.4 C 181 77.7 180.9 79.3 182.1 79.3 C 183.2 79.3 183.1 77.7 183.1 76.4 C 183.1 74.3 183.1 73.1 182.1 73.1 C 181 73.1 181 74.3 181 76.4 Z M 185 80 C 185 80 184.97 79.11 185 79.1 C 187.2 76 187.9 75.4 187.9 74.1 C 187.9 73.5 187.6 73.1 186.9 73.1 C 186.2 73.1 186 73.7 186 74.3 C 186 74.3 185 74.3 185 74.3 C 184.9 73.1 185.5 72.2 186.8 72.2 C 188.2 72.2 188.9 72.9 188.9 74.2 C 188.9 75.9 188 76.5 186.1 79.1 C 186.05 79.11 189.1 79.1 189.1 79.1 L 189.1 80 L 185 80 Z M 193.6 72.4 L 193.6 73.2 L 191 73.2 L 191 75.5 C 191 75.5 191.07 75.48 191.1 75.5 C 191.2 75.2 191.8 74.9 192.3 74.9 C 193.4 74.9 193.9 75.7 193.9 77.5 C 193.9 78.7 193.7 80.2 191.8 80.2 C 190.2 80.2 189.9 79.3 189.9 78.3 C 189.9 78.3 190.9 78.3 190.9 78.3 C 190.9 78.9 191.2 79.4 191.8 79.4 C 192.8 79.4 192.9 78.5 192.9 77.7 C 192.9 76.6 192.8 75.8 191.9 75.8 C 191.3 75.8 191 76.1 190.9 76.6 C 190.95 76.65 190 76.6 190 76.6 L 190 72.4 L 193.6 72.4 Z M 197.5 80 L 197.5 72.1 L 201.5 72.1 L 201.5 72.9 L 198.5 72.9 L 198.5 75.5 L 201.3 75.5 L 201.3 76.4 L 198.5 76.4 L 198.5 80 L 197.5 80 Z M 205.4 76.8 C 205.4 75.2 205 75 204.3 75 C 203.7 75 203.3 75.3 203.3 76.8 C 203.3 76.8 205.4 76.8 205.4 76.8 Z M 203.3 77.5 C 203.3 79.1 203.7 79.4 204.4 79.4 C 205 79.4 205.3 78.9 205.4 78.3 C 205.4 78.3 206.3 78.3 206.3 78.3 C 206.3 79.5 205.6 80.1 204.4 80.1 C 203.2 80.1 202.3 79.8 202.3 77.3 C 202.3 75.7 202.5 74.3 204.4 74.3 C 206 74.3 206.4 75.2 206.4 77 C 206.39 77.03 206.4 77.5 206.4 77.5 C 206.4 77.5 203.27 77.51 203.3 77.5 Z M 209.9 79.4 C 211 79.4 211 78.2 211 77.3 C 211 75.8 210.9 75.1 209.9 75.1 C 208.9 75.1 208.9 76.3 208.9 77 C 208.9 77.8 208.8 79.4 209.9 79.4 Z M 208.9 80 L 208 80 L 208 72.1 L 208.9 72.1 L 208.9 75 C 208.9 75 208.9 75 208.9 75 C 209.2 74.6 209.6 74.3 210.1 74.3 C 211.9 74.3 212 75.9 212 77.3 C 212 79.8 211.1 80.1 210.2 80.1 C 209.6 80.1 209.2 79.8 208.9 79.3 C 208.89 79.33 208.9 79.3 208.9 79.3 L 208.9 80 Z M 213.5 78.8 L 214.7 78.8 L 213.7 81.4 L 213 81.4 L 213.5 78.8 Z M 214.3 75.6 L 213.3 75.6 L 213.3 74.4 L 214.3 74.4 L 214.3 75.6 Z M 218.5 77.9 C 218.5 77.3 218.4 76.4 217.5 76.4 C 216.5 76.4 216.5 77.3 216.5 77.9 C 216.5 78.6 216.7 79.3 217.5 79.3 C 218.2 79.3 218.5 78.6 218.5 77.9 Z M 218.1 76 C 219.2 76.1 219.5 76.9 219.5 77.9 C 219.5 79.3 218.8 80.2 217.5 80.2 C 216.1 80.2 215.4 79.3 215.4 77.9 C 215.4 76.9 215.7 76.1 216.9 76 C 216.9 76 216.9 75.9 216.9 75.9 C 215.9 75.8 215.5 75 215.5 74.2 C 215.5 73 216.3 72.2 217.5 72.2 C 218.7 72.2 219.4 73 219.4 74.2 C 219.4 75 219 75.8 218.1 75.9 C 218.1 75.9 218.1 76 218.1 76 Z M 218.4 74.1 C 218.4 73.5 218.1 73 217.5 73 C 216.8 73 216.5 73.5 216.5 74.1 C 216.5 74.7 216.7 75.5 217.5 75.5 C 218.2 75.5 218.4 74.7 218.4 74.1 Z M 224.4 76.2 C 224.4 78.2 224.4 80.2 222.4 80.2 C 220.3 80.2 220.3 78.2 220.3 76.2 C 220.3 74.2 220.3 72.2 222.4 72.2 C 224.5 72.2 224.4 74.2 224.4 76.2 Z M 221.3 76.4 C 221.3 77.7 221.2 79.3 222.4 79.3 C 223.5 79.3 223.4 77.7 223.4 76.4 C 223.4 74.3 223.4 73.1 222.4 73.1 C 221.3 73.1 221.3 74.3 221.3 76.4 Z M 226.4 81.3 C 226 79.7 225.4 78.2 225.4 76.5 C 225.4 74.8 226 73.3 226.5 71.7 C 226.5 71.7 227.1 71.7 227.1 71.7 C 226.7 73.3 226.4 74.9 226.4 76.6 C 226.4 78.2 226.7 79.8 227.1 81.3 C 227.1 81.3 226.4 81.3 226.4 81.3 Z M 228.3 80 C 228.3 80 228.34 79.11 228.3 79.1 C 230.6 76 231.2 75.4 231.2 74.1 C 231.2 73.5 230.9 73.1 230.3 73.1 C 229.5 73.1 229.4 73.7 229.4 74.3 C 229.4 74.3 228.4 74.3 228.4 74.3 C 228.3 73.1 228.9 72.2 230.2 72.2 C 231.6 72.2 232.2 72.9 232.2 74.2 C 232.2 75.9 231.4 76.5 229.4 79.1 C 229.41 79.11 232.4 79.1 232.4 79.1 L 232.4 80 L 228.3 80 Z M 233.5 81.3 C 233.9 79.8 234.2 78.2 234.2 76.6 C 234.2 74.9 233.9 73.3 233.5 71.7 C 233.5 71.7 234.2 71.7 234.2 71.7 C 234.6 73.3 235.3 74.8 235.3 76.5 C 235.3 78.2 234.6 79.7 234.2 81.3 C 234.2 81.3 233.5 81.3 233.5 81.3 Z M 237.5 75.6 L 236.5 75.6 L 236.5 74.4 L 237.5 74.4 L 237.5 75.6 Z M 237.5 80 L 236.5 80 L 236.5 78.8 L 237.5 78.8 L 237.5 80 Z M 242.5 72.4 L 242.5 73.2 L 239.9 73.2 L 239.9 75.5 C 239.9 75.5 239.93 75.48 239.9 75.5 C 240.1 75.2 240.6 74.9 241.1 74.9 C 242.2 74.9 242.7 75.7 242.7 77.5 C 242.7 78.7 242.6 80.2 240.7 80.2 C 239.1 80.2 238.8 79.3 238.8 78.3 C 238.8 78.3 239.8 78.3 239.8 78.3 C 239.8 78.9 240 79.4 240.7 79.4 C 241.7 79.4 241.7 78.5 241.7 77.7 C 241.7 76.6 241.7 75.8 240.7 75.8 C 240.2 75.8 239.9 76.1 239.8 76.6 C 239.81 76.65 238.9 76.6 238.9 76.6 L 238.9 72.4 L 242.5 72.4 Z M 246 77.3 L 246 73.3 L 245.9 73.3 L 244.3 77.3 L 246 77.3 Z M 243.4 78.1 L 243.4 77.3 L 245.6 72.4 L 246.9 72.4 L 246.9 77.3 L 247.8 77.3 L 247.8 78.1 L 246.9 78.1 L 246.9 80 L 246 80 L 246 78.1 L 243.4 78.1 Z M 252.2 72.4 L 252.2 73.2 L 249.7 73.2 L 249.7 75.5 C 249.7 75.5 249.7 75.48 249.7 75.5 C 249.9 75.2 250.4 74.9 250.9 74.9 C 252 74.9 252.5 75.7 252.5 77.5 C 252.5 78.7 252.3 80.2 250.4 80.2 C 248.8 80.2 248.6 79.3 248.6 78.3 C 248.6 78.3 249.6 78.3 249.6 78.3 C 249.6 78.9 249.8 79.4 250.5 79.4 C 251.4 79.4 251.5 78.5 251.5 77.7 C 251.5 76.6 251.5 75.8 250.5 75.8 C 250 75.8 249.7 76.1 249.6 76.6 C 249.57 76.65 248.7 76.6 248.7 76.6 L 248.7 72.4 L 252.2 72.4 Z M 253.5 76.6 L 255.9 76.6 L 255.9 77.4 L 253.5 77.4 L 253.5 76.6 Z M 260.8 72.4 L 260.8 73.2 L 258.2 73.2 L 258.2 75.5 C 258.2 75.5 258.24 75.48 258.2 75.5 C 258.4 75.2 258.9 74.9 259.5 74.9 C 260.5 74.9 261 75.7 261 77.5 C 261 78.7 260.9 80.2 259 80.2 C 257.4 80.2 257.1 79.3 257.1 78.3 C 257.1 78.3 258.1 78.3 258.1 78.3 C 258.1 78.9 258.3 79.4 259 79.4 C 260 79.4 260 78.5 260 77.7 C 260 76.6 260 75.8 259.1 75.8 C 258.5 75.8 258.2 76.1 258.1 76.6 C 258.12 76.65 257.2 76.6 257.2 76.6 L 257.2 72.4 L 260.8 72.4 Z M 265.7 72.4 L 265.7 73.2 L 263.1 73.2 L 263.1 75.5 C 263.1 75.5 263.13 75.48 263.1 75.5 C 263.3 75.2 263.8 74.9 264.3 74.9 C 265.4 74.9 265.9 75.7 265.9 77.5 C 265.9 78.7 265.8 80.2 263.9 80.2 C 262.3 80.2 262 79.3 262 78.3 C 262 78.3 263 78.3 263 78.3 C 263 78.9 263.2 79.4 263.9 79.4 C 264.9 79.4 264.9 78.5 264.9 77.7 C 264.9 76.6 264.9 75.8 263.9 75.8 C 263.4 75.8 263.1 76.1 263 76.6 C 263 76.65 262.1 76.6 262.1 76.6 L 262.1 72.4 L 265.7 72.4 Z M 268.8 79.3 C 269.7 79.3 269.8 78.4 269.8 77.4 C 269.8 76.7 269.6 75.9 268.8 75.9 C 267.9 75.9 267.8 76.8 267.8 77.5 C 267.8 78.3 267.9 79.3 268.8 79.3 Z M 266.7 76.2 C 266.7 74.2 266.7 72.2 268.8 72.2 C 269.9 72.2 270.7 72.9 270.7 74.1 C 270.7 74.1 269.7 74.1 269.7 74.1 C 269.7 73.6 269.4 73 268.8 73 C 267.9 73 267.7 73.7 267.7 75.7 C 267.7 75.7 267.8 75.7 267.8 75.7 C 268 75.3 268.5 75 269 75 C 270 75 270.8 75.6 270.8 77.6 C 270.8 78.9 270.3 80.2 268.8 80.2 C 266.7 80.2 266.7 78.2 266.7 76.2 Z M 272.9 80 L 271.9 80 L 271.9 78.8 L 272.9 78.8 L 272.9 80 Z " stroke="none" fill="#fff"/>  </g>  <g id="Polygon200388">    <path d="M 42.7 61.2 C 42.7 61.2 42.73 60.16 42.7 60.2 C 42.7 59 43.5 58.8 44.3 58.8 C 44.5 58.8 44.6 58.8 44.7 58.9 C 44.7 58.9 44.7 59.5 44.7 59.5 C 43.8 59.4 43.6 59.8 43.6 60.3 C 43.63 60.29 43.6 61.2 43.6 61.2 L 44.7 61.2 L 44.7 61.9 L 43.6 61.9 L 43.6 66.8 L 42.7 66.8 L 42.7 61.9 L 41.9 61.9 L 41.9 61.2 L 42.7 61.2 Z M 48.7 63.7 C 48.7 62.2 48.3 61.9 47.6 61.9 C 46.9 61.9 46.4 62.2 46.4 63.7 C 46.4 65.5 46.6 66.2 47.6 66.2 C 48.5 66.2 48.7 65.5 48.7 63.7 Z M 45.5 64.1 C 45.5 62.5 45.7 61.1 47.6 61.1 C 49.5 61.1 49.7 62.5 49.7 64.1 C 49.7 66.6 48.8 66.9 47.6 66.9 C 46.4 66.9 45.5 66.6 45.5 64.1 Z M 52.1 62.1 C 52.1 62.1 52.07 62.07 52.1 62.1 C 52.4 61.2 52.9 61.1 53.8 61.1 C 53.8 61.1 53.8 62.1 53.8 62.1 C 53.7 62.1 53.6 62 53.5 62 C 53.5 62 53.4 62 53.3 62 C 52.3 62 52.1 62.8 52.1 63.5 C 52.05 63.51 52.1 66.8 52.1 66.8 L 51.2 66.8 L 51.2 61.2 L 52.1 61.2 L 52.1 62.1 Z M 60.3 63.9 C 60.3 63.1 60.3 61.9 59.2 61.9 C 58.1 61.9 58.2 63.4 58.2 64.3 C 58.2 65 58.2 66.2 59.2 66.2 C 60.2 66.2 60.3 65.4 60.3 63.9 Z M 58.2 61.9 C 58.2 61.9 58.22 61.9 58.2 61.9 C 58.5 61.4 58.9 61.1 59.5 61.1 C 60.4 61.1 61.3 61.5 61.3 63.9 C 61.3 65.3 61.2 66.9 59.5 66.9 C 58.9 66.9 58.5 66.7 58.2 66.2 C 58.23 66.23 58.2 66.2 58.2 66.2 L 58.2 68.9 L 57.3 68.9 L 57.3 61.2 L 58.2 61.2 L 58.2 61.9 Z M 63.7 62.1 C 63.7 62.1 63.68 62.07 63.7 62.1 C 64.1 61.2 64.5 61.1 65.4 61.1 C 65.4 61.1 65.4 62.1 65.4 62.1 C 65.3 62.1 65.2 62 65.2 62 C 65.1 62 65 62 64.9 62 C 63.9 62 63.7 62.8 63.7 63.5 C 63.66 63.51 63.7 66.8 63.7 66.8 L 62.8 66.8 L 62.8 61.2 L 63.7 61.2 L 63.7 62.1 Z M 69.4 63.6 C 69.4 62 69 61.8 68.3 61.8 C 67.7 61.8 67.3 62.1 67.3 63.6 C 67.3 63.6 69.4 63.6 69.4 63.6 Z M 67.3 64.3 C 67.3 65.9 67.7 66.2 68.4 66.2 C 69 66.2 69.3 65.7 69.4 65.1 C 69.4 65.1 70.3 65.1 70.3 65.1 C 70.3 66.3 69.6 66.9 68.4 66.9 C 67.2 66.9 66.3 66.6 66.3 64.1 C 66.3 62.5 66.5 61.1 68.4 61.1 C 70 61.1 70.4 62 70.4 63.8 C 70.39 63.83 70.4 64.3 70.4 64.3 C 70.4 64.3 67.26 64.31 67.3 64.3 Z M 71.2 61.2 L 72.3 61.2 L 73.5 65.9 L 73.5 65.9 L 74.9 61.2 L 75.8 61.2 L 74.1 66.8 L 72.9 66.8 L 71.2 61.2 Z M 79.8 63.6 C 79.8 62 79.4 61.8 78.7 61.8 C 78.1 61.8 77.7 62.1 77.6 63.6 C 77.6 63.6 79.8 63.6 79.8 63.6 Z M 77.6 64.3 C 77.6 65.9 78.1 66.2 78.8 66.2 C 79.4 66.2 79.7 65.7 79.7 65.1 C 79.7 65.1 80.7 65.1 80.7 65.1 C 80.7 66.3 80 66.9 78.8 66.9 C 77.6 66.9 76.7 66.6 76.7 64.1 C 76.7 62.5 76.9 61.1 78.8 61.1 C 80.4 61.1 80.8 62 80.8 63.8 C 80.77 63.83 80.8 64.3 80.8 64.3 C 80.8 64.3 77.65 64.31 77.6 64.3 Z M 85.3 66.8 C 85.3 66.8 85.28 62.94 85.3 62.9 C 85.3 62.3 85.1 61.9 84.3 61.9 C 83.3 61.9 83.2 62.7 83.2 63.5 C 83.17 63.5 83.2 66.8 83.2 66.8 L 82.3 66.8 C 82.3 66.8 82.27 62.39 82.3 62.4 C 82.3 62 82.2 61.6 82.2 61.2 C 82.21 61.24 83.2 61.2 83.2 61.2 L 83.2 62 C 83.2 62 83.21 61.95 83.2 62 C 83.6 61.3 84 61.1 84.7 61.1 C 85.9 61.1 86.2 61.8 86.2 62.9 C 86.18 62.94 86.2 66.8 86.2 66.8 L 85.3 66.8 Z M 87.9 61.2 L 87.9 60.2 L 88.8 59.8 L 88.8 61.2 L 90 61.2 L 90 61.9 L 88.8 61.9 C 88.8 61.9 88.77 65.32 88.8 65.3 C 88.8 65.7 88.8 66.1 89.6 66.1 C 89.7 66.1 89.8 66.1 90 66.1 C 90 66.1 90 66.8 90 66.8 C 89.7 66.8 89.4 66.9 89.1 66.9 C 88.3 66.9 87.9 66.5 87.9 65.9 C 87.87 65.87 87.9 61.9 87.9 61.9 L 87 61.9 L 87 61.2 L 87.9 61.2 Z M 91.7 66.8 L 90.8 66.8 L 90.8 61.2 L 91.7 61.2 L 91.7 66.8 Z M 90.8 58.9 L 91.8 58.9 L 91.8 59.8 L 90.8 59.8 L 90.8 58.9 Z M 96.3 66.8 C 96.3 66.8 96.28 62.94 96.3 62.9 C 96.3 62.3 96.1 61.9 95.3 61.9 C 94.3 61.9 94.2 62.7 94.2 63.5 C 94.17 63.5 94.2 66.8 94.2 66.8 L 93.3 66.8 C 93.3 66.8 93.27 62.39 93.3 62.4 C 93.3 62 93.2 61.6 93.2 61.2 C 93.21 61.24 94.2 61.2 94.2 61.2 L 94.2 62 C 94.2 62 94.21 61.95 94.2 62 C 94.6 61.3 95 61.1 95.7 61.1 C 96.9 61.1 97.2 61.8 97.2 62.9 C 97.18 62.94 97.2 66.8 97.2 66.8 L 96.3 66.8 Z M 100.6 61.9 C 99.6 61.9 99.6 63.1 99.6 63.8 C 99.6 65.6 100 66 100.7 66 C 101.8 66 101.7 64.8 101.7 64 C 101.7 63.2 101.8 61.9 100.6 61.9 Z M 101.7 61.2 L 102.6 61.2 C 102.6 61.2 102.61 67.35 102.6 67.4 C 102.6 68.6 101.8 68.9 100.6 68.9 C 99.6 68.9 98.8 68.4 98.9 67.4 C 98.9 67.4 99.9 67.4 99.9 67.4 C 99.9 67.9 100.2 68.2 100.7 68.2 C 101.4 68.2 101.7 67.8 101.7 67.3 C 101.71 67.25 101.7 66.1 101.7 66.1 C 101.7 66.1 101.67 66.1 101.7 66.1 C 101.4 66.5 100.9 66.8 100.5 66.8 C 98.9 66.8 98.6 65.5 98.6 63.8 C 98.6 61.3 99.9 61.1 100.4 61.1 C 101 61.1 101.4 61.4 101.7 61.9 C 101.68 61.92 101.7 61.9 101.7 61.9 L 101.7 61.2 Z M 109.7 66.8 C 109.7 66.8 109.73 63.03 109.7 63 C 109.7 62.3 109.5 61.9 108.7 61.9 C 107.8 61.9 107.6 62.6 107.6 63.5 C 107.6 63.53 107.6 66.8 107.6 66.8 L 106.7 66.8 L 106.7 58.9 L 107.6 58.9 L 107.6 62 C 107.6 62 107.65 61.95 107.6 62 C 108 61.3 108.4 61.1 109.2 61.1 C 110.1 61.1 110.6 61.6 110.6 62.9 C 110.63 62.85 110.6 66.8 110.6 66.8 L 109.7 66.8 Z M 115.3 63.6 C 115.3 62 114.8 61.8 114.1 61.8 C 113.6 61.8 113.1 62.1 113.1 63.6 C 113.1 63.6 115.3 63.6 115.3 63.6 Z M 113.1 64.3 C 113.1 65.9 113.5 66.2 114.2 66.2 C 114.8 66.2 115.1 65.7 115.2 65.1 C 115.2 65.1 116.2 65.1 116.2 65.1 C 116.2 66.3 115.4 66.9 114.2 66.9 C 113.1 66.9 112.1 66.6 112.1 64.1 C 112.1 62.5 112.3 61.1 114.2 61.1 C 115.8 61.1 116.2 62 116.2 63.8 C 116.21 63.83 116.2 64.3 116.2 64.3 C 116.2 64.3 113.09 64.31 113.1 64.3 Z M 118.6 62.1 C 118.6 62.1 118.67 62.07 118.7 62.1 C 119 61.2 119.5 61.1 120.4 61.1 C 120.4 61.1 120.4 62.1 120.4 62.1 C 120.3 62.1 120.2 62 120.1 62 C 120.1 62 120 62 119.9 62 C 118.9 62 118.6 62.8 118.6 63.5 C 118.64 63.51 118.6 66.8 118.6 66.8 L 117.7 66.8 L 117.7 61.2 L 118.6 61.2 L 118.6 62.1 Z M 124.4 63.6 C 124.4 62 124 61.8 123.3 61.8 C 122.7 61.8 122.3 62.1 122.3 63.6 C 122.3 63.6 124.4 63.6 124.4 63.6 Z M 122.3 64.3 C 122.3 65.9 122.7 66.2 123.4 66.2 C 124 66.2 124.3 65.7 124.3 65.1 C 124.3 65.1 125.3 65.1 125.3 65.1 C 125.3 66.3 124.6 66.9 123.4 66.9 C 122.2 66.9 121.3 66.6 121.3 64.1 C 121.3 62.5 121.5 61.1 123.4 61.1 C 125 61.1 125.4 62 125.4 63.8 C 125.38 63.83 125.4 64.3 125.4 64.3 C 125.4 64.3 122.25 64.31 122.3 64.3 Z M 128.8 61.9 C 127.8 61.9 127.7 62.6 127.7 64.1 C 127.7 65 127.7 66.2 128.8 66.2 C 129.8 66.2 129.8 64.9 129.8 63.8 C 129.8 63.1 129.8 61.9 128.8 61.9 Z M 129.8 58.9 L 130.7 58.9 L 130.7 66.8 L 129.8 66.8 L 129.8 66.1 C 129.8 66.1 129.79 66.13 129.8 66.1 C 129.5 66.6 129.1 66.9 128.5 66.9 C 127.6 66.9 126.7 66.6 126.7 64.1 C 126.7 62.7 126.8 61.1 128.6 61.1 C 129.1 61.1 129.5 61.4 129.8 61.8 C 129.78 61.8 129.8 61.8 129.8 61.8 L 129.8 58.9 Z M 133.3 66.8 L 132.4 66.8 L 132.4 61.2 L 133.3 61.2 L 133.3 66.8 Z M 132.3 58.9 L 133.3 58.9 L 133.3 59.8 L 132.3 59.8 L 132.3 58.9 Z M 134.9 61.2 L 134.9 60.2 L 135.8 59.8 L 135.8 61.2 L 137 61.2 L 137 61.9 L 135.8 61.9 C 135.8 61.9 135.82 65.32 135.8 65.3 C 135.8 65.7 135.8 66.1 136.6 66.1 C 136.7 66.1 136.8 66.1 137 66.1 C 137 66.1 137 66.8 137 66.8 C 136.8 66.8 136.5 66.9 136.2 66.9 C 135.3 66.9 134.9 66.5 134.9 65.9 C 134.92 65.87 134.9 61.9 134.9 61.9 L 134 61.9 L 134 61.2 L 134.9 61.2 Z M 138.7 65.1 C 138.7 65.7 139 66.2 139.6 66.2 C 140.1 66.2 140.8 65.8 140.7 64 C 139.9 64 138.7 64 138.7 65.1 Z M 140.7 66 C 140.7 66 140.71 65.99 140.7 66 C 140.4 66.6 140 66.9 139.3 66.9 C 138.1 66.9 137.8 66.1 137.8 65.1 C 137.8 63.4 139.4 63.3 140.7 63.4 C 140.7 62.6 140.7 61.8 139.8 61.8 C 139.2 61.8 138.9 62.2 138.9 62.8 C 138.9 62.8 137.9 62.8 137.9 62.8 C 138 61.6 138.6 61.1 139.8 61.1 C 141.2 61.1 141.6 61.9 141.6 62.8 C 141.6 62.8 141.6 65.5 141.6 65.5 C 141.6 65.9 141.7 66.4 141.7 66.8 C 141.72 66.79 140.7 66.8 140.7 66.8 L 140.7 66 Z M 144.3 62.1 C 144.3 62.1 144.33 62.07 144.3 62.1 C 144.7 61.2 145.2 61.1 146 61.1 C 146 61.1 146 62.1 146 62.1 C 146 62.1 145.9 62 145.8 62 C 145.7 62 145.6 62 145.6 62 C 144.6 62 144.3 62.8 144.3 63.5 C 144.31 63.51 144.3 66.8 144.3 66.8 L 143.4 66.8 L 143.4 61.2 L 144.3 61.2 L 144.3 62.1 Z M 148.7 65.8 L 148.7 65.8 L 150.1 61.2 L 151 61.2 L 148.5 68.9 L 147.6 68.9 L 148.2 66.8 L 146.3 61.2 L 147.4 61.2 L 148.7 65.8 Z M 155.2 65.1 C 155.2 65.7 155.5 66.2 156.1 66.2 C 156.6 66.2 157.3 65.8 157.2 64 C 156.3 64 155.2 64 155.2 65.1 Z M 157.2 66 C 157.2 66 157.2 65.99 157.2 66 C 156.9 66.6 156.5 66.9 155.8 66.9 C 154.6 66.9 154.3 66.1 154.3 65.1 C 154.3 63.4 155.9 63.3 157.2 63.4 C 157.2 62.6 157.2 61.8 156.3 61.8 C 155.7 61.8 155.3 62.2 155.4 62.8 C 155.4 62.8 154.4 62.8 154.4 62.8 C 154.5 61.6 155.1 61.1 156.3 61.1 C 157.7 61.1 158.1 61.9 158.1 62.8 C 158.1 62.8 158.1 65.5 158.1 65.5 C 158.1 65.9 158.1 66.4 158.2 66.8 C 158.21 66.79 157.2 66.8 157.2 66.8 L 157.2 66 Z M 162.9 66.8 C 162.9 66.8 162.88 62.94 162.9 62.9 C 162.9 62.3 162.7 61.9 161.9 61.9 C 160.9 61.9 160.8 62.7 160.8 63.5 C 160.76 63.5 160.8 66.8 160.8 66.8 L 159.9 66.8 C 159.9 66.8 159.86 62.39 159.9 62.4 C 159.9 62 159.8 61.6 159.8 61.2 C 159.81 61.24 160.8 61.2 160.8 61.2 L 160.8 62 C 160.8 62 160.81 61.95 160.8 62 C 161.2 61.3 161.6 61.1 162.3 61.1 C 163.5 61.1 163.8 61.8 163.8 62.9 C 163.78 62.94 163.8 66.8 163.8 66.8 L 162.9 66.8 Z M 167.2 61.9 C 166.2 61.9 166.2 63.1 166.2 63.8 C 166.2 65.6 166.6 66 167.3 66 C 168.4 66 168.3 64.8 168.3 64 C 168.3 63.2 168.4 61.9 167.2 61.9 Z M 168.3 61.2 L 169.2 61.2 C 169.2 61.2 169.2 67.35 169.2 67.4 C 169.2 68.6 168.4 68.9 167.2 68.9 C 166.2 68.9 165.4 68.4 165.5 67.4 C 165.5 67.4 166.5 67.4 166.5 67.4 C 166.5 67.9 166.8 68.2 167.3 68.2 C 168 68.2 168.3 67.8 168.3 67.3 C 168.3 67.25 168.3 66.1 168.3 66.1 C 168.3 66.1 168.27 66.1 168.3 66.1 C 168 66.5 167.5 66.8 167 66.8 C 165.5 66.8 165.2 65.5 165.2 63.8 C 165.2 61.3 166.5 61.1 167 61.1 C 167.6 61.1 168 61.4 168.3 61.9 C 168.28 61.92 168.3 61.9 168.3 61.9 L 168.3 61.2 Z M 171.7 66.8 L 170.8 66.8 L 170.8 61.2 L 171.7 61.2 L 171.7 66.8 Z M 170.8 58.9 L 171.8 58.9 L 171.8 59.8 L 170.8 59.8 L 170.8 58.9 Z M 176.4 63.7 C 176.4 62.2 176 61.9 175.3 61.9 C 174.6 61.9 174.1 62.2 174.1 63.7 C 174.1 65.5 174.3 66.2 175.3 66.2 C 176.2 66.2 176.4 65.5 176.4 63.7 Z M 173.2 64.1 C 173.2 62.5 173.3 61.1 175.3 61.1 C 177.2 61.1 177.4 62.5 177.4 64.1 C 177.4 66.6 176.4 66.9 175.3 66.9 C 174.1 66.9 173.2 66.6 173.2 64.1 Z M 181.9 63.6 C 181.9 62 181.4 61.8 180.7 61.8 C 180.2 61.8 179.7 62.1 179.7 63.6 C 179.7 63.6 181.9 63.6 181.9 63.6 Z M 179.7 64.3 C 179.7 65.9 180.1 66.2 180.8 66.2 C 181.4 66.2 181.7 65.7 181.8 65.1 C 181.8 65.1 182.8 65.1 182.8 65.1 C 182.8 66.3 182 66.9 180.8 66.9 C 179.7 66.9 178.7 66.6 178.7 64.1 C 178.7 62.5 178.9 61.1 180.8 61.1 C 182.4 61.1 182.8 62 182.8 63.8 C 182.81 63.83 182.8 64.3 182.8 64.3 C 182.8 64.3 179.68 64.31 179.7 64.3 Z M 186.2 61.9 C 185.2 61.9 185.1 62.6 185.1 64.1 C 185.1 65 185.1 66.2 186.2 66.2 C 187.2 66.2 187.2 64.9 187.2 63.8 C 187.2 63.1 187.2 61.9 186.2 61.9 Z M 187.2 58.9 L 188.1 58.9 L 188.1 66.8 L 187.2 66.8 L 187.2 66.1 C 187.2 66.1 187.22 66.13 187.2 66.1 C 186.9 66.6 186.5 66.9 185.9 66.9 C 185.1 66.9 184.2 66.6 184.2 64.1 C 184.2 62.7 184.2 61.1 186 61.1 C 186.5 61.1 186.9 61.4 187.2 61.8 C 187.21 61.8 187.2 61.8 187.2 61.8 L 187.2 58.9 Z M 192.9 63.6 C 192.9 62 192.4 61.8 191.7 61.8 C 191.2 61.8 190.7 62.1 190.7 63.6 C 190.7 63.6 192.9 63.6 192.9 63.6 Z M 190.7 64.3 C 190.7 65.9 191.1 66.2 191.8 66.2 C 192.4 66.2 192.7 65.7 192.8 65.1 C 192.8 65.1 193.8 65.1 193.8 65.1 C 193.8 66.3 193 66.9 191.8 66.9 C 190.7 66.9 189.7 66.6 189.7 64.1 C 189.7 62.5 189.9 61.1 191.8 61.1 C 193.4 61.1 193.8 62 193.8 63.8 C 193.81 63.83 193.8 64.3 193.8 64.3 C 193.8 64.3 190.68 64.31 190.7 64.3 Z M 198 66.8 C 198 66.8 198.03 62.94 198 62.9 C 198 62.4 197.9 61.9 197.2 61.9 C 196.9 61.9 196.5 62 196.4 62.2 C 196.2 62.5 196.2 62.8 196.2 63.1 C 196.16 63.05 196.2 66.8 196.2 66.8 L 195.3 66.8 C 195.3 66.8 195.26 62.39 195.3 62.4 C 195.3 62 195.2 61.6 195.2 61.2 C 195.21 61.24 196.2 61.2 196.2 61.2 L 196.2 61.9 C 196.2 61.9 196.18 61.93 196.2 61.9 C 196.4 61.3 196.9 61.1 197.6 61.1 C 198.1 61.1 198.7 61.3 198.9 61.8 C 199.2 61.2 199.7 61.1 200.2 61.1 C 200.8 61.1 201.7 61.3 201.7 62.6 C 201.71 62.57 201.7 66.8 201.7 66.8 L 200.8 66.8 C 200.8 66.8 200.8 62.94 200.8 62.9 C 200.8 62.4 200.7 61.9 199.9 61.9 C 199.6 61.9 199.5 61.9 199.2 62.1 C 199 62.3 198.9 62.8 198.9 63.1 C 198.93 63.05 198.9 66.8 198.9 66.8 L 198 66.8 Z M 204.1 65.1 C 204.1 65.7 204.3 66.2 204.9 66.2 C 205.5 66.2 206.2 65.8 206.1 64 C 205.2 64 204.1 64 204.1 65.1 Z M 206.1 66 C 206.1 66 206.08 65.99 206.1 66 C 205.8 66.6 205.4 66.9 204.7 66.9 C 203.5 66.9 203.2 66.1 203.2 65.1 C 203.2 63.4 204.8 63.3 206.1 63.4 C 206.1 62.6 206.1 61.8 205.1 61.8 C 204.5 61.8 204.2 62.2 204.3 62.8 C 204.3 62.8 203.3 62.8 203.3 62.8 C 203.3 61.6 204 61.1 205.2 61.1 C 206.6 61.1 207 61.9 207 62.8 C 207 62.8 207 65.5 207 65.5 C 207 65.9 207 66.4 207.1 66.8 C 207.09 66.79 206.1 66.8 206.1 66.8 L 206.1 66 Z M 212 65.1 C 212 65.7 212.3 66.2 212.9 66.2 C 213.4 66.2 214.1 65.8 214 64 C 213.2 64 212 64 212 65.1 Z M 214 66 C 214 66 214.03 65.99 214 66 C 213.8 66.6 213.3 66.9 212.6 66.9 C 211.5 66.9 211.1 66.1 211.1 65.1 C 211.1 63.4 212.8 63.3 214 63.4 C 214 62.6 214.1 61.8 213.1 61.8 C 212.5 61.8 212.2 62.2 212.2 62.8 C 212.2 62.8 211.2 62.8 211.2 62.8 C 211.3 61.6 211.9 61.1 213.1 61.1 C 214.6 61.1 214.9 61.9 214.9 62.8 C 214.9 62.8 214.9 65.5 214.9 65.5 C 214.9 65.9 215 66.4 215 66.8 C 215.04 66.79 214 66.8 214 66.8 L 214 66 Z M 216.8 61.2 L 216.8 60.2 L 217.7 59.8 L 217.7 61.2 L 218.9 61.2 L 218.9 61.9 L 217.7 61.9 C 217.7 61.9 217.69 65.32 217.7 65.3 C 217.7 65.7 217.7 66.1 218.5 66.1 C 218.6 66.1 218.7 66.1 218.9 66.1 C 218.9 66.1 218.9 66.8 218.9 66.8 C 218.6 66.8 218.3 66.9 218 66.9 C 217.2 66.9 216.8 66.5 216.8 65.9 C 216.79 65.87 216.8 61.9 216.8 61.9 L 215.9 61.9 L 215.9 61.2 L 216.8 61.2 Z M 219.8 61.2 L 219.8 60.2 L 220.7 59.8 L 220.7 61.2 L 222 61.2 L 222 61.9 L 220.7 61.9 C 220.7 61.9 220.75 65.32 220.7 65.3 C 220.7 65.7 220.7 66.1 221.6 66.1 C 221.6 66.1 221.8 66.1 222 66.1 C 222 66.1 222 66.8 222 66.8 C 221.7 66.8 221.4 66.9 221.1 66.9 C 220.2 66.9 219.8 66.5 219.8 65.9 C 219.85 65.87 219.8 61.9 219.8 61.9 L 218.9 61.9 L 218.9 61.2 L 219.8 61.2 Z M 223.6 65.1 C 223.6 65.7 223.9 66.2 224.5 66.2 C 225 66.2 225.7 65.8 225.6 64 C 224.8 64 223.6 64 223.6 65.1 Z M 225.7 66 C 225.7 66 225.64 65.99 225.6 66 C 225.4 66.6 224.9 66.9 224.2 66.9 C 223.1 66.9 222.7 66.1 222.7 65.1 C 222.7 63.4 224.4 63.3 225.6 63.4 C 225.7 62.6 225.7 61.8 224.7 61.8 C 224.1 61.8 223.8 62.2 223.8 62.8 C 223.8 62.8 222.9 62.8 222.9 62.8 C 222.9 61.6 223.6 61.1 224.7 61.1 C 226.2 61.1 226.5 61.9 226.5 62.8 C 226.5 62.8 226.5 65.5 226.5 65.5 C 226.5 65.9 226.6 66.4 226.7 66.8 C 226.65 66.79 225.7 66.8 225.7 66.8 L 225.7 66 Z M 231.2 63 C 231.2 62.1 230.8 61.9 230.4 61.9 C 229.7 61.9 229.3 62.2 229.3 63.7 C 229.3 65.5 229.5 66.2 230.4 66.2 C 230.6 66.2 231.3 65.9 231.2 64.9 C 231.2 64.9 232.2 64.9 232.2 64.9 C 232.2 66.5 231.1 66.9 230.4 66.9 C 229.3 66.9 228.3 66.6 228.3 64.1 C 228.3 62.5 228.5 61.1 230.4 61.1 C 231.5 61.1 232.2 61.8 232.1 63 C 232.1 63 231.2 63 231.2 63 Z M 234.7 66.8 L 233.8 66.8 L 233.8 58.9 L 234.7 58.9 L 234.7 63.6 L 234.7 63.6 L 236.4 61.2 L 237.5 61.2 L 235.7 63.6 L 237.9 66.8 L 236.7 66.8 L 234.7 63.7 L 234.7 63.7 L 234.7 66.8 Z M 240.3 66.9 C 239.1 66.9 238.4 66.4 238.4 65.1 C 238.4 65.1 239.4 65.1 239.4 65.1 C 239.4 65.4 239.4 66.2 240.4 66.2 C 240.9 66.2 241.3 65.9 241.3 65.3 C 241.3 64.3 238.5 64.3 238.5 62.6 C 238.5 62.1 238.9 61.1 240.5 61.1 C 241.4 61.1 242.3 61.6 242.2 62.7 C 242.2 62.7 241.2 62.7 241.2 62.7 C 241.2 62.1 240.9 61.8 240.3 61.8 C 239.9 61.8 239.5 62.1 239.5 62.6 C 239.5 63.5 242.3 63.5 242.3 65.2 C 242.3 66.4 241.4 66.9 240.3 66.9 Z M 244.5 62.4 L 243.5 62.4 L 243.5 61.2 L 244.5 61.2 L 244.5 62.4 Z M 244.5 66.8 L 243.5 66.8 L 243.5 65.6 L 244.5 65.6 L 244.5 66.8 Z M 249.7 62.4 C 249.7 62.4 250.81 62.42 250.8 62.4 C 251.2 62.4 252.2 62.3 252.2 61.1 C 252.2 59.9 251.3 59.7 251.1 59.7 C 251.09 59.73 249.7 59.7 249.7 59.7 L 249.7 62.4 Z M 248.7 66.8 L 248.7 58.9 C 248.7 58.9 251.04 58.85 251 58.9 C 252.1 58.9 253.3 59.2 253.3 61.1 C 253.3 62.9 251.8 63.3 251 63.3 C 251.03 63.29 249.7 63.3 249.7 63.3 L 249.7 66.8 L 248.7 66.8 Z M 257.6 66.8 C 257.6 66.8 257.59 63.03 257.6 63 C 257.6 62.3 257.4 61.9 256.6 61.9 C 255.7 61.9 255.5 62.6 255.5 63.5 C 255.46 63.53 255.5 66.8 255.5 66.8 L 254.6 66.8 L 254.6 58.9 L 255.5 58.9 L 255.5 62 C 255.5 62 255.51 61.95 255.5 62 C 255.9 61.3 256.3 61.1 257 61.1 C 258 61.1 258.5 61.6 258.5 62.9 C 258.49 62.85 258.5 66.8 258.5 66.8 L 257.6 66.8 Z M 260.9 65.1 C 260.9 65.7 261.2 66.2 261.8 66.2 C 262.3 66.2 263 65.8 262.9 64 C 262.1 64 260.9 64 260.9 65.1 Z M 262.9 66 C 262.9 66 262.91 65.99 262.9 66 C 262.6 66.6 262.2 66.9 261.5 66.9 C 260.3 66.9 260 66.1 260 65.1 C 260 63.4 261.6 63.3 262.9 63.4 C 262.9 62.6 262.9 61.8 262 61.8 C 261.4 61.8 261 62.2 261.1 62.8 C 261.1 62.8 260.1 62.8 260.1 62.8 C 260.2 61.6 260.8 61.1 262 61.1 C 263.4 61.1 263.8 61.9 263.8 62.8 C 263.8 62.8 263.8 65.5 263.8 65.5 C 263.8 65.9 263.9 66.4 263.9 66.8 C 263.92 66.79 262.9 66.8 262.9 66.8 L 262.9 66 Z M 267.2 66.9 C 266 66.9 265.3 66.4 265.3 65.1 C 265.3 65.1 266.3 65.1 266.3 65.1 C 266.3 65.4 266.3 66.2 267.2 66.2 C 267.8 66.2 268.2 65.9 268.2 65.3 C 268.2 64.3 265.4 64.3 265.4 62.6 C 265.4 62.1 265.8 61.1 267.3 61.1 C 268.3 61.1 269.2 61.6 269.1 62.7 C 269.1 62.7 268.1 62.7 268.1 62.7 C 268.1 62.1 267.8 61.8 267.2 61.8 C 266.7 61.8 266.4 62.1 266.4 62.6 C 266.4 63.5 269.1 63.5 269.1 65.2 C 269.1 66.4 268.3 66.9 267.2 66.9 Z M 273.5 63.6 C 273.5 62 273.1 61.8 272.4 61.8 C 271.8 61.8 271.3 62.1 271.3 63.6 C 271.3 63.6 273.5 63.6 273.5 63.6 Z M 271.3 64.3 C 271.3 65.9 271.8 66.2 272.5 66.2 C 273.1 66.2 273.4 65.7 273.4 65.1 C 273.4 65.1 274.4 65.1 274.4 65.1 C 274.4 66.3 273.6 66.9 272.5 66.9 C 271.3 66.9 270.4 66.6 270.4 64.1 C 270.4 62.5 270.6 61.1 272.5 61.1 C 274.1 61.1 274.5 62 274.5 63.8 C 274.46 63.83 274.5 64.3 274.5 64.3 C 274.5 64.3 271.33 64.31 271.3 64.3 Z M 279.5 62.3 C 280.4 62.4 281 62.1 281 61.1 C 281 60.4 280.7 59.9 280 59.9 C 279.1 59.9 279 60.5 279 61.1 C 279 61.1 278 61.1 278 61.1 C 277.9 59.8 278.6 59 280 59 C 281.3 59 282 59.7 282 61 C 282 62.5 281 62.7 280.5 62.8 C 280.5 62.8 280.5 62.8 280.5 62.8 C 281.7 63 282.1 63.6 282.1 64.8 C 282.1 66.2 281.3 67 279.8 67 C 277.7 67 277.9 65.1 277.9 64.7 C 277.9 64.7 278.9 64.7 278.9 64.7 C 278.9 65.5 279 66.1 279.9 66.1 C 280.8 66.1 281.1 65.6 281.1 64.7 C 281.1 63.5 280.6 63.2 279.5 63.2 C 279.5 63.2 279.5 62.3 279.5 62.3 Z M 288.8 63.7 C 288.8 62.2 288.4 61.9 287.7 61.9 C 287 61.9 286.5 62.2 286.5 63.7 C 286.5 65.5 286.7 66.2 287.7 66.2 C 288.6 66.2 288.8 65.5 288.8 63.7 Z M 285.6 64.1 C 285.6 62.5 285.8 61.1 287.7 61.1 C 289.6 61.1 289.8 62.5 289.8 64.1 C 289.8 66.6 288.9 66.9 287.7 66.9 C 286.5 66.9 285.6 66.6 285.6 64.1 Z M 294.3 63.9 C 294.3 63.1 294.3 61.9 293.2 61.9 C 292.1 61.9 292.2 63.4 292.2 64.3 C 292.2 65 292.2 66.2 293.2 66.2 C 294.2 66.2 294.3 65.4 294.3 63.9 Z M 292.2 61.9 C 292.2 61.9 292.22 61.9 292.2 61.9 C 292.5 61.4 292.9 61.1 293.5 61.1 C 294.4 61.1 295.3 61.5 295.3 63.9 C 295.3 65.3 295.2 66.9 293.5 66.9 C 292.9 66.9 292.5 66.7 292.2 66.2 C 292.23 66.23 292.2 66.2 292.2 66.2 L 292.2 68.9 L 291.3 68.9 L 291.3 61.2 L 292.2 61.2 L 292.2 61.9 Z M 299.8 63.6 C 299.8 62 299.3 61.8 298.7 61.8 C 298.1 61.8 297.6 62.1 297.6 63.6 C 297.6 63.6 299.8 63.6 299.8 63.6 Z M 297.6 64.3 C 297.6 65.9 298 66.2 298.7 66.2 C 299.3 66.2 299.7 65.7 299.7 65.1 C 299.7 65.1 300.7 65.1 300.7 65.1 C 300.7 66.3 299.9 66.9 298.7 66.9 C 297.6 66.9 296.6 66.6 296.6 64.1 C 296.6 62.5 296.8 61.1 298.7 61.1 C 300.3 61.1 300.7 62 300.7 63.8 C 300.73 63.83 300.7 64.3 300.7 64.3 C 300.7 64.3 297.6 64.31 297.6 64.3 Z M 305.2 66.8 C 305.2 66.8 305.24 62.94 305.2 62.9 C 305.2 62.3 305 61.9 304.3 61.9 C 303.3 61.9 303.1 62.7 303.1 63.5 C 303.12 63.5 303.1 66.8 303.1 66.8 L 302.2 66.8 C 302.2 66.8 302.22 62.39 302.2 62.4 C 302.2 62 302.2 61.6 302.2 61.2 C 302.17 61.24 303.1 61.2 303.1 61.2 L 303.1 62 C 303.1 62 303.17 61.95 303.2 62 C 303.5 61.3 303.9 61.1 304.7 61.1 C 305.8 61.1 306.1 61.8 306.1 62.9 C 306.14 62.94 306.1 66.8 306.1 66.8 L 305.2 66.8 Z M 307.5 63.4 L 310 63.4 L 310 64.2 L 307.5 64.2 L 307.5 63.4 Z " stroke="none" fill="#fff"/>  </g>  <g id="Polygon200387">    <path d="M 35.2 53.6 L 34.2 53.6 L 34.2 47.1 L 33 47.8 C 33 47.8 33.02 46.87 33 46.9 C 33.3 46.8 34 46.2 34.3 46 C 34.31 45.96 35.2 46 35.2 46 L 35.2 53.6 Z M 38.6 53.6 L 37.6 53.6 L 37.6 52.4 L 38.6 52.4 L 38.6 53.6 Z M 43.6 49.1 C 43.6 49.1 45.17 49.06 45.2 49.1 C 45.9 49.1 46.2 48.4 46.2 47.7 C 46.2 47.2 46 46.5 45.2 46.5 C 45.18 46.53 43.6 46.5 43.6 46.5 L 43.6 49.1 Z M 43.6 49.9 L 43.6 53.6 L 42.6 53.6 L 42.6 45.7 C 42.6 45.7 45.38 45.65 45.4 45.7 C 46.8 45.7 47.3 46.6 47.3 47.6 C 47.3 48.6 46.8 49.3 45.8 49.4 C 45.8 49.4 45.8 49.5 45.8 49.5 C 46.7 49.6 47.1 49.9 47.1 51.5 C 47.1 51.9 47.2 53.1 47.4 53.6 C 47.4 53.6 46.3 53.6 46.3 53.6 C 46.1 53 46.1 52 46 51 C 46 50 45.2 49.9 44.8 49.9 C 44.84 49.94 43.6 49.9 43.6 49.9 Z M 51.7 50.4 C 51.7 48.8 51.3 48.6 50.6 48.6 C 50 48.6 49.6 48.9 49.6 50.4 C 49.6 50.4 51.7 50.4 51.7 50.4 Z M 49.6 51.1 C 49.6 52.7 50 53 50.7 53 C 51.3 53 51.6 52.5 51.6 51.9 C 51.6 51.9 52.6 51.9 52.6 51.9 C 52.6 53.1 51.9 53.7 50.7 53.7 C 49.5 53.7 48.6 53.4 48.6 50.9 C 48.6 49.3 48.8 47.9 50.7 47.9 C 52.3 47.9 52.7 48.8 52.7 50.6 C 52.68 50.63 52.7 51.1 52.7 51.1 C 52.7 51.1 49.55 51.11 49.6 51.1 Z M 55.8 53.7 C 54.6 53.7 53.9 53.2 53.9 51.9 C 53.9 51.9 54.9 51.9 54.9 51.9 C 54.9 52.2 54.9 53 55.8 53 C 56.4 53 56.8 52.7 56.8 52.1 C 56.8 51.1 54 51.1 54 49.4 C 54 48.9 54.4 47.9 55.9 47.9 C 56.9 47.9 57.8 48.4 57.7 49.5 C 57.7 49.5 56.7 49.5 56.7 49.5 C 56.7 48.9 56.4 48.6 55.8 48.6 C 55.4 48.6 55 48.9 55 49.4 C 55 50.3 57.7 50.3 57.7 52 C 57.7 53.2 56.9 53.7 55.8 53.7 Z M 62.1 53.6 C 62.1 53.6 62.07 49.83 62.1 49.8 C 62.1 49.1 61.9 48.7 61.1 48.7 C 60.2 48.7 59.9 49.4 59.9 50.3 C 59.95 50.33 59.9 53.6 59.9 53.6 L 59 53.6 L 59 45.7 L 59.9 45.7 L 59.9 48.8 C 59.9 48.8 59.99 48.75 60 48.8 C 60.4 48.1 60.8 47.9 61.5 47.9 C 62.4 47.9 63 48.4 63 49.7 C 62.97 49.65 63 53.6 63 53.6 L 62.1 53.6 Z M 67.6 50.4 C 67.6 48.8 67.2 48.6 66.5 48.6 C 65.9 48.6 65.4 48.9 65.4 50.4 C 65.4 50.4 67.6 50.4 67.6 50.4 Z M 65.4 51.1 C 65.4 52.7 65.9 53 66.6 53 C 67.2 53 67.5 52.5 67.5 51.9 C 67.5 51.9 68.5 51.9 68.5 51.9 C 68.5 53.1 67.7 53.7 66.6 53.7 C 65.4 53.7 64.5 53.4 64.5 50.9 C 64.5 49.3 64.7 47.9 66.6 47.9 C 68.2 47.9 68.6 48.8 68.6 50.6 C 68.56 50.63 68.6 51.1 68.6 51.1 C 68.6 51.1 65.44 51.11 65.4 51.1 Z M 70.2 48 C 70.2 48 70.23 46.96 70.2 47 C 70.2 45.8 71 45.6 71.8 45.6 C 72 45.6 72.1 45.6 72.2 45.7 C 72.2 45.7 72.2 46.3 72.2 46.3 C 71.3 46.2 71.1 46.6 71.1 47.1 C 71.13 47.09 71.1 48 71.1 48 L 72.2 48 L 72.2 48.7 L 71.1 48.7 L 71.1 53.6 L 70.2 53.6 L 70.2 48.7 L 69.4 48.7 L 69.4 48 L 70.2 48 Z M 77.5 45.7 L 78.7 45.7 L 81.3 53.6 L 80.2 53.6 L 79.6 51.7 L 76.5 51.7 L 76 53.6 L 74.9 53.6 L 77.5 45.7 Z M 78.1 46.6 L 78 46.6 L 76.8 50.8 L 79.3 50.8 L 78.1 46.6 Z M 82.4 52.4 L 83.6 52.4 L 82.6 55 L 81.9 55 L 82.4 52.4 Z M 90.2 50.4 C 90.2 48.8 89.8 48.6 89.1 48.6 C 88.5 48.6 88.1 48.9 88 50.4 C 88 50.4 90.2 50.4 90.2 50.4 Z M 88 51.1 C 88 52.7 88.5 53 89.2 53 C 89.8 53 90.1 52.5 90.1 51.9 C 90.1 51.9 91.1 51.9 91.1 51.9 C 91.1 53.1 90.4 53.7 89.2 53.7 C 88 53.7 87.1 53.4 87.1 50.9 C 87.1 49.3 87.3 47.9 89.2 47.9 C 90.8 47.9 91.2 48.8 91.2 50.6 C 91.17 50.63 91.2 51.1 91.2 51.1 C 91.2 51.1 88.04 51.11 88 51.1 Z M 92.8 48 L 92.8 47 L 93.7 46.6 L 93.7 48 L 94.9 48 L 94.9 48.7 L 93.7 48.7 C 93.7 48.7 93.66 52.12 93.7 52.1 C 93.7 52.5 93.7 52.9 94.5 52.9 C 94.6 52.9 94.7 52.9 94.9 52.9 C 94.9 52.9 94.9 53.6 94.9 53.6 C 94.6 53.6 94.3 53.7 94 53.7 C 93.1 53.7 92.8 53.3 92.8 52.7 C 92.76 52.67 92.8 48.7 92.8 48.7 L 91.9 48.7 L 91.9 48 L 92.8 48 Z M 99 51.9 C 99 52.5 99.3 53 99.9 53 C 100.4 53 101.1 52.6 101 50.8 C 100.1 50.8 99 50.8 99 51.9 Z M 101 52.8 C 101 52.8 101 52.79 101 52.8 C 100.7 53.4 100.3 53.7 99.6 53.7 C 98.4 53.7 98.1 52.9 98.1 51.9 C 98.1 50.2 99.7 50.1 101 50.2 C 101 49.4 101 48.6 100.1 48.6 C 99.5 48.6 99.1 49 99.2 49.6 C 99.2 49.6 98.2 49.6 98.2 49.6 C 98.3 48.4 98.9 47.9 100.1 47.9 C 101.5 47.9 101.9 48.7 101.9 49.6 C 101.9 49.6 101.9 52.3 101.9 52.3 C 101.9 52.7 101.9 53.2 102 53.6 C 102.01 53.59 101 53.6 101 53.6 L 101 52.8 Z M 104.5 53.6 L 103.6 53.6 L 103.6 45.7 L 104.5 45.7 L 104.5 53.6 Z M 107.1 53.6 L 106 53.6 L 106 52.4 L 107.1 52.4 L 107.1 53.6 Z M 111.1 53.6 L 111.1 45.7 L 112.1 45.7 L 112.1 52.7 L 115 52.7 L 115 53.6 L 111.1 53.6 Z M 119 50.5 C 119 49 118.5 48.7 117.8 48.7 C 117.1 48.7 116.7 49 116.7 50.5 C 116.7 52.3 116.9 53 117.8 53 C 118.8 53 119 52.3 119 50.5 Z M 115.7 50.9 C 115.7 49.3 115.9 47.9 117.8 47.9 C 119.8 47.9 119.9 49.3 119.9 50.9 C 119.9 53.4 119 53.7 117.8 53.7 C 116.7 53.7 115.7 53.4 115.7 50.9 Z M 124.4 53.6 C 124.4 53.6 124.39 49.74 124.4 49.7 C 124.4 49.1 124.2 48.7 123.4 48.7 C 122.4 48.7 122.3 49.5 122.3 50.3 C 122.27 50.3 122.3 53.6 122.3 53.6 L 121.4 53.6 C 121.4 53.6 121.37 49.19 121.4 49.2 C 121.4 48.8 121.4 48.4 121.3 48 C 121.32 48.04 122.3 48 122.3 48 L 122.3 48.8 C 122.3 48.8 122.32 48.75 122.3 48.8 C 122.7 48.1 123.1 47.9 123.8 47.9 C 125 47.9 125.3 48.6 125.3 49.7 C 125.29 49.74 125.3 53.6 125.3 53.6 L 124.4 53.6 Z M 128.8 48.7 C 127.7 48.7 127.7 49.9 127.7 50.6 C 127.7 52.4 128.1 52.8 128.8 52.8 C 129.9 52.8 129.8 51.6 129.8 50.8 C 129.8 50 129.9 48.7 128.8 48.7 Z M 129.8 48 L 130.7 48 C 130.7 48 130.71 54.15 130.7 54.2 C 130.7 55.4 129.9 55.7 128.7 55.7 C 127.7 55.7 126.9 55.2 127 54.2 C 127 54.2 128 54.2 128 54.2 C 128 54.7 128.3 55 128.8 55 C 129.5 55 129.8 54.6 129.8 54.1 C 129.81 54.05 129.8 52.9 129.8 52.9 C 129.8 52.9 129.78 52.9 129.8 52.9 C 129.5 53.3 129 53.6 128.6 53.6 C 127 53.6 126.8 52.3 126.8 50.6 C 126.8 48.1 128 47.9 128.5 47.9 C 129.1 47.9 129.5 48.2 129.8 48.7 C 129.79 48.72 129.8 48.7 129.8 48.7 L 129.8 48 Z M 132.2 50.2 L 134.6 50.2 L 134.6 51 L 132.2 51 L 132.2 50.2 Z M 136.1 48 L 136.1 47 L 137 46.6 L 137 48 L 138.2 48 L 138.2 48.7 L 137 48.7 C 137 48.7 137.04 52.12 137 52.1 C 137 52.5 137 52.9 137.9 52.9 C 137.9 52.9 138.1 52.9 138.3 52.9 C 138.3 52.9 138.3 53.6 138.3 53.6 C 138 53.6 137.7 53.7 137.4 53.7 C 136.5 53.7 136.1 53.3 136.1 52.7 C 136.14 52.67 136.1 48.7 136.1 48.7 L 135.2 48.7 L 135.2 48 L 136.1 48 Z M 142.1 50.4 C 142.1 48.8 141.7 48.6 141 48.6 C 140.5 48.6 140 48.9 140 50.4 C 140 50.4 142.1 50.4 142.1 50.4 Z M 140 51.1 C 140 52.7 140.4 53 141.1 53 C 141.7 53 142 52.5 142.1 51.9 C 142.1 51.9 143.1 51.9 143.1 51.9 C 143 53.1 142.3 53.7 141.1 53.7 C 139.9 53.7 139 53.4 139 50.9 C 139 49.3 139.2 47.9 141.1 47.9 C 142.7 47.9 143.1 48.8 143.1 50.6 C 143.1 50.63 143.1 51.1 143.1 51.1 C 143.1 51.1 139.97 51.11 140 51.1 Z M 145.5 48.9 C 145.5 48.9 145.55 48.87 145.6 48.9 C 145.9 48 146.4 47.9 147.3 47.9 C 147.3 47.9 147.3 48.9 147.3 48.9 C 147.2 48.9 147.1 48.8 147 48.8 C 146.9 48.8 146.9 48.8 146.8 48.8 C 145.8 48.8 145.5 49.6 145.5 50.3 C 145.53 50.31 145.5 53.6 145.5 53.6 L 144.6 53.6 L 144.6 48 L 145.5 48 L 145.5 48.9 Z M 151 53.6 C 151 53.6 150.99 49.74 151 49.7 C 151 49.2 150.8 48.7 150.1 48.7 C 149.8 48.7 149.5 48.8 149.3 49 C 149.2 49.3 149.1 49.6 149.1 49.9 C 149.11 49.85 149.1 53.6 149.1 53.6 L 148.2 53.6 C 148.2 53.6 148.21 49.19 148.2 49.2 C 148.2 48.8 148.2 48.4 148.2 48 C 148.16 48.04 149.1 48 149.1 48 L 149.1 48.7 C 149.1 48.7 149.14 48.73 149.1 48.7 C 149.4 48.1 149.9 47.9 150.5 47.9 C 151 47.9 151.6 48.1 151.8 48.6 C 152.1 48 152.6 47.9 153.1 47.9 C 153.7 47.9 154.7 48.1 154.7 49.4 C 154.66 49.37 154.7 53.6 154.7 53.6 L 153.8 53.6 C 153.8 53.6 153.76 49.74 153.8 49.7 C 153.8 49.2 153.6 48.7 152.9 48.7 C 152.5 48.7 152.4 48.7 152.2 48.9 C 151.9 49.1 151.9 49.6 151.9 49.9 C 151.89 49.85 151.9 53.6 151.9 53.6 L 151 53.6 Z M 160.3 53.7 C 159.1 53.7 158.3 53.2 158.4 51.9 C 158.4 51.9 159.4 51.9 159.4 51.9 C 159.4 52.2 159.4 53 160.3 53 C 160.9 53 161.3 52.7 161.3 52.1 C 161.3 51.1 158.5 51.1 158.5 49.4 C 158.5 48.9 158.8 47.9 160.4 47.9 C 161.4 47.9 162.2 48.4 162.2 49.5 C 162.2 49.5 161.2 49.5 161.2 49.5 C 161.2 48.9 160.9 48.6 160.3 48.6 C 159.8 48.6 159.4 48.9 159.4 49.4 C 159.4 50.3 162.2 50.3 162.2 52 C 162.2 53.2 161.4 53.7 160.3 53.7 Z M 164.3 51.9 C 164.3 52.5 164.6 53 165.2 53 C 165.8 53 166.5 52.6 166.4 50.8 C 165.5 50.8 164.3 50.8 164.3 51.9 Z M 166.4 52.8 C 166.4 52.8 166.36 52.79 166.4 52.8 C 166.1 53.4 165.7 53.7 165 53.7 C 163.8 53.7 163.4 52.9 163.4 51.9 C 163.4 50.2 165.1 50.1 166.4 50.2 C 166.4 49.4 166.4 48.6 165.4 48.6 C 164.8 48.6 164.5 49 164.6 49.6 C 164.6 49.6 163.6 49.6 163.6 49.6 C 163.6 48.4 164.3 47.9 165.5 47.9 C 166.9 47.9 167.3 48.7 167.3 49.6 C 167.3 49.6 167.3 52.3 167.3 52.3 C 167.3 52.7 167.3 53.2 167.4 53.6 C 167.37 53.59 166.4 53.6 166.4 53.6 L 166.4 52.8 Z M 169.2 48 C 169.2 48 169.19 46.96 169.2 47 C 169.2 45.8 170 45.6 170.8 45.6 C 171 45.6 171.1 45.6 171.2 45.7 C 171.2 45.7 171.2 46.3 171.2 46.3 C 170.3 46.2 170.1 46.6 170.1 47.1 C 170.09 47.09 170.1 48 170.1 48 L 171.2 48 L 171.2 48.7 L 170.1 48.7 L 170.1 53.6 L 169.2 53.6 L 169.2 48.7 L 168.3 48.7 L 168.3 48 L 169.2 48 Z M 175.1 50.4 C 175.1 48.8 174.7 48.6 174 48.6 C 173.4 48.6 173 48.9 173 50.4 C 173 50.4 175.1 50.4 175.1 50.4 Z M 173 51.1 C 173 52.7 173.4 53 174.1 53 C 174.7 53 175 52.5 175.1 51.9 C 175.1 51.9 176 51.9 176 51.9 C 176 53.1 175.3 53.7 174.1 53.7 C 172.9 53.7 172 53.4 172 50.9 C 172 49.3 172.2 47.9 174.1 47.9 C 175.7 47.9 176.1 48.8 176.1 50.6 C 176.09 50.63 176.1 51.1 176.1 51.1 C 176.1 51.1 172.96 51.11 173 51.1 Z M 177.7 48 L 177.7 47 L 178.6 46.6 L 178.6 48 L 179.8 48 L 179.8 48.7 L 178.6 48.7 C 178.6 48.7 178.58 52.12 178.6 52.1 C 178.6 52.5 178.6 52.9 179.4 52.9 C 179.5 52.9 179.6 52.9 179.8 52.9 C 179.8 52.9 179.8 53.6 179.8 53.6 C 179.5 53.6 179.2 53.7 178.9 53.7 C 178.1 53.7 177.7 53.3 177.7 52.7 C 177.68 52.67 177.7 48.7 177.7 48.7 L 176.8 48.7 L 176.8 48 L 177.7 48 Z M 182.3 52.6 L 182.3 52.6 L 183.7 48 L 184.6 48 L 182.1 55.7 L 181.2 55.7 L 181.8 53.6 L 179.9 48 L 181 48 L 182.3 52.6 Z M 188.8 51.9 C 188.8 52.5 189.1 53 189.7 53 C 190.2 53 190.9 52.6 190.8 50.8 C 189.9 50.8 188.8 50.8 188.8 51.9 Z M 190.8 52.8 C 190.8 52.8 190.8 52.79 190.8 52.8 C 190.5 53.4 190.1 53.7 189.4 53.7 C 188.2 53.7 187.9 52.9 187.9 51.9 C 187.9 50.2 189.5 50.1 190.8 50.2 C 190.8 49.4 190.8 48.6 189.9 48.6 C 189.3 48.6 188.9 49 189 49.6 C 189 49.6 188 49.6 188 49.6 C 188.1 48.4 188.7 47.9 189.9 47.9 C 191.3 47.9 191.7 48.7 191.7 49.6 C 191.7 49.6 191.7 52.3 191.7 52.3 C 191.7 52.7 191.7 53.2 191.8 53.6 C 191.82 53.59 190.8 53.6 190.8 53.6 L 190.8 52.8 Z M 196.5 53.6 C 196.5 53.6 196.48 49.74 196.5 49.7 C 196.5 49.1 196.3 48.7 195.5 48.7 C 194.5 48.7 194.4 49.5 194.4 50.3 C 194.37 50.3 194.4 53.6 194.4 53.6 L 193.5 53.6 C 193.5 53.6 193.47 49.19 193.5 49.2 C 193.5 48.8 193.4 48.4 193.4 48 C 193.41 48.04 194.4 48 194.4 48 L 194.4 48.8 C 194.4 48.8 194.41 48.75 194.4 48.8 C 194.8 48.1 195.2 47.9 195.9 47.9 C 197.1 47.9 197.4 48.6 197.4 49.7 C 197.38 49.74 197.4 53.6 197.4 53.6 L 196.5 53.6 Z M 200.9 48.7 C 199.9 48.7 199.8 49.4 199.8 50.9 C 199.8 51.8 199.8 53 200.9 53 C 201.9 53 201.9 51.7 201.9 50.6 C 201.9 49.9 201.9 48.7 200.9 48.7 Z M 201.9 45.7 L 202.8 45.7 L 202.8 53.6 L 201.9 53.6 L 201.9 52.9 C 201.9 52.9 201.88 52.93 201.9 52.9 C 201.6 53.4 201.2 53.7 200.6 53.7 C 199.7 53.7 198.8 53.4 198.8 50.9 C 198.8 49.5 198.9 47.9 200.6 47.9 C 201.2 47.9 201.6 48.2 201.9 48.6 C 201.87 48.6 201.9 48.6 201.9 48.6 L 201.9 45.7 Z M 210 50.4 C 210 48.8 209.5 48.6 208.8 48.6 C 208.3 48.6 207.8 48.9 207.8 50.4 C 207.8 50.4 210 50.4 210 50.4 Z M 207.8 51.1 C 207.8 52.7 208.2 53 208.9 53 C 209.5 53 209.8 52.5 209.9 51.9 C 209.9 51.9 210.9 51.9 210.9 51.9 C 210.9 53.1 210.1 53.7 208.9 53.7 C 207.8 53.7 206.8 53.4 206.8 50.9 C 206.8 49.3 207 47.9 208.9 47.9 C 210.5 47.9 210.9 48.8 210.9 50.6 C 210.91 50.63 210.9 51.1 210.9 51.1 C 210.9 51.1 207.79 51.11 207.8 51.1 Z M 212.6 48 C 212.6 48 212.57 46.96 212.6 47 C 212.6 45.8 213.4 45.6 214.2 45.6 C 214.4 45.6 214.5 45.6 214.6 45.7 C 214.6 45.7 214.6 46.3 214.6 46.3 C 213.6 46.2 213.5 46.6 213.5 47.1 C 213.47 47.09 213.5 48 213.5 48 L 214.6 48 L 214.6 48.7 L 213.5 48.7 L 213.5 53.6 L 212.6 53.6 L 212.6 48.7 L 211.7 48.7 L 211.7 48 L 212.6 48 Z M 219.3 53.6 L 218.4 53.6 L 218.4 48 L 219.3 48 L 219.3 53.6 Z M 218.4 45.7 L 219.4 45.7 L 219.4 46.6 L 218.4 46.6 L 218.4 45.7 Z M 215.6 48 C 215.6 48 215.63 46.96 215.6 47 C 215.6 45.8 216.4 45.6 217.2 45.6 C 217.4 45.6 217.5 45.6 217.7 45.7 C 217.7 45.7 217.7 46.3 217.7 46.3 C 216.7 46.2 216.5 46.6 216.5 47.1 C 216.53 47.09 216.5 48 216.5 48 L 217.7 48 L 217.7 48.7 L 216.5 48.7 L 216.5 53.6 L 215.6 53.6 L 215.6 48.7 L 214.8 48.7 L 214.8 48 L 215.6 48 Z M 223.9 49.8 C 223.9 48.9 223.4 48.7 223.1 48.7 C 222.4 48.7 221.9 49 221.9 50.5 C 221.9 52.3 222.2 53 223.1 53 C 223.3 53 223.9 52.7 223.9 51.7 C 223.9 51.7 224.8 51.7 224.8 51.7 C 224.9 53.3 223.7 53.7 223.1 53.7 C 221.9 53.7 221 53.4 221 50.9 C 221 49.3 221.2 47.9 223.1 47.9 C 224.2 47.9 224.9 48.6 224.8 49.8 C 224.8 49.8 223.9 49.8 223.9 49.8 Z M 227.3 51.9 C 227.3 52.5 227.6 53 228.2 53 C 228.7 53 229.4 52.6 229.3 50.8 C 228.4 50.8 227.3 50.8 227.3 51.9 Z M 229.3 52.8 C 229.3 52.8 229.3 52.79 229.3 52.8 C 229 53.4 228.6 53.7 227.9 53.7 C 226.7 53.7 226.4 52.9 226.4 51.9 C 226.4 50.2 228 50.1 229.3 50.2 C 229.3 49.4 229.3 48.6 228.4 48.6 C 227.8 48.6 227.4 49 227.5 49.6 C 227.5 49.6 226.5 49.6 226.5 49.6 C 226.6 48.4 227.2 47.9 228.4 47.9 C 229.8 47.9 230.2 48.7 230.2 49.6 C 230.2 49.6 230.2 52.3 230.2 52.3 C 230.2 52.7 230.2 53.2 230.3 53.6 C 230.32 53.59 229.3 53.6 229.3 53.6 L 229.3 52.8 Z M 234.9 49.8 C 234.9 48.9 234.4 48.7 234.1 48.7 C 233.4 48.7 232.9 49 232.9 50.5 C 232.9 52.3 233.2 53 234.1 53 C 234.3 53 234.9 52.7 234.9 51.7 C 234.9 51.7 235.8 51.7 235.8 51.7 C 235.9 53.3 234.7 53.7 234.1 53.7 C 232.9 53.7 232 53.4 232 50.9 C 232 49.3 232.2 47.9 234.1 47.9 C 235.2 47.9 235.9 48.6 235.8 49.8 C 235.8 49.8 234.9 49.8 234.9 49.8 Z M 239.1 52.6 L 239.2 52.6 L 240.5 48 L 241.5 48 L 239 55.7 L 238 55.7 L 238.6 53.6 L 236.8 48 L 237.8 48 L 239.1 52.6 Z M 247.9 50.5 C 247.9 49 247.4 48.7 246.7 48.7 C 246.1 48.7 245.6 49 245.6 50.5 C 245.6 52.3 245.8 53 246.7 53 C 247.7 53 247.9 52.3 247.9 50.5 Z M 244.6 50.9 C 244.6 49.3 244.8 47.9 246.7 47.9 C 248.7 47.9 248.9 49.3 248.9 50.9 C 248.9 53.4 247.9 53.7 246.7 53.7 C 245.6 53.7 244.6 53.4 244.6 50.9 Z M 250.5 48 C 250.5 48 250.46 46.96 250.5 47 C 250.5 45.8 251.2 45.6 252.1 45.6 C 252.2 45.6 252.3 45.6 252.5 45.7 C 252.5 45.7 252.5 46.3 252.5 46.3 C 251.5 46.2 251.4 46.6 251.4 47.1 C 251.36 47.09 251.4 48 251.4 48 L 252.5 48 L 252.5 48.7 L 251.4 48.7 L 251.4 53.6 L 250.5 53.6 L 250.5 48.7 L 249.6 48.7 L 249.6 48 L 250.5 48 Z M 257.7 48.7 C 256.6 48.7 256.6 49.9 256.6 50.6 C 256.6 52.4 257 52.8 257.7 52.8 C 258.8 52.8 258.8 51.6 258.8 50.8 C 258.8 50 258.8 48.7 257.7 48.7 Z M 258.7 48 L 259.6 48 C 259.6 48 259.63 54.15 259.6 54.2 C 259.6 55.4 258.8 55.7 257.6 55.7 C 256.7 55.7 255.8 55.2 255.9 54.2 C 255.9 54.2 256.9 54.2 256.9 54.2 C 256.9 54.7 257.3 55 257.8 55 C 258.4 55 258.7 54.6 258.7 54.1 C 258.73 54.05 258.7 52.9 258.7 52.9 C 258.7 52.9 258.7 52.9 258.7 52.9 C 258.5 53.3 258 53.6 257.5 53.6 C 256 53.6 255.7 52.3 255.7 50.6 C 255.7 48.1 257 47.9 257.4 47.9 C 258 47.9 258.5 48.2 258.7 48.7 C 258.71 48.72 258.7 48.7 258.7 48.7 L 258.7 48 Z M 262.1 51.9 C 262.1 52.5 262.4 53 263 53 C 263.5 53 264.2 52.6 264.1 50.8 C 263.3 50.8 262.1 50.8 262.1 51.9 Z M 264.2 52.8 C 264.2 52.8 264.13 52.79 264.1 52.8 C 263.9 53.4 263.4 53.7 262.7 53.7 C 261.6 53.7 261.2 52.9 261.2 51.9 C 261.2 50.2 262.9 50.1 264.1 50.2 C 264.2 49.4 264.2 48.6 263.2 48.6 C 262.6 48.6 262.3 49 262.3 49.6 C 262.3 49.6 261.3 49.6 261.3 49.6 C 261.4 48.4 262 47.9 263.2 47.9 C 264.7 47.9 265 48.7 265 49.6 C 265 49.6 265 52.3 265 52.3 C 265 52.7 265.1 53.2 265.1 53.6 C 265.14 53.59 264.2 53.6 264.2 53.6 L 264.2 52.8 Z M 267.7 48.9 C 267.7 48.9 267.75 48.87 267.7 48.9 C 268.1 48 268.6 47.9 269.5 47.9 C 269.5 47.9 269.5 48.9 269.5 48.9 C 269.4 48.9 269.3 48.8 269.2 48.8 C 269.1 48.8 269.1 48.8 269 48.8 C 268 48.8 267.7 49.6 267.7 50.3 C 267.73 50.31 267.7 53.6 267.7 53.6 L 266.8 53.6 L 266.8 48 L 267.7 48 L 267.7 48.9 Z M 271.3 51.9 C 271.3 52.5 271.5 53 272.1 53 C 272.7 53 273.4 52.6 273.3 50.8 C 272.4 50.8 271.3 50.8 271.3 51.9 Z M 273.3 52.8 C 273.3 52.8 273.29 52.79 273.3 52.8 C 273 53.4 272.6 53.7 271.9 53.7 C 270.7 53.7 270.4 52.9 270.4 51.9 C 270.4 50.2 272 50.1 273.3 50.2 C 273.3 49.4 273.3 48.6 272.4 48.6 C 271.8 48.6 271.4 49 271.5 49.6 C 271.5 49.6 270.5 49.6 270.5 49.6 C 270.6 48.4 271.2 47.9 272.4 47.9 C 273.8 47.9 274.2 48.7 274.2 49.6 C 274.2 49.6 274.2 52.3 274.2 52.3 C 274.2 52.7 274.2 53.2 274.3 53.6 C 274.3 53.59 273.3 53.6 273.3 53.6 L 273.3 52.8 Z M 277.8 48.7 C 276.9 48.7 276.7 49.4 276.7 50.9 C 276.7 51.8 276.7 53 277.9 53 C 278.9 53 278.9 51.7 278.9 50.6 C 278.9 49.9 278.8 48.7 277.8 48.7 Z M 278.9 45.7 L 279.8 45.7 L 279.8 53.6 L 278.9 53.6 L 278.9 52.9 C 278.9 52.9 278.87 52.93 278.9 52.9 C 278.6 53.4 278.2 53.7 277.6 53.7 C 276.7 53.7 275.8 53.4 275.8 50.9 C 275.8 49.5 275.8 47.9 277.6 47.9 C 278.2 47.9 278.6 48.2 278.9 48.6 C 278.86 48.6 278.9 48.6 278.9 48.6 L 278.9 45.7 Z M 282.3 51.9 C 282.3 52.5 282.5 53 283.1 53 C 283.7 53 284.4 52.6 284.3 50.8 C 283.4 50.8 282.3 50.8 282.3 51.9 Z M 284.3 52.8 C 284.3 52.8 284.29 52.79 284.3 52.8 C 284 53.4 283.6 53.7 282.9 53.7 C 281.7 53.7 281.4 52.9 281.4 51.9 C 281.4 50.2 283 50.1 284.3 50.2 C 284.3 49.4 284.3 48.6 283.4 48.6 C 282.8 48.6 282.4 49 282.5 49.6 C 282.5 49.6 281.5 49.6 281.5 49.6 C 281.6 48.4 282.2 47.9 283.4 47.9 C 284.8 47.9 285.2 48.7 285.2 49.6 C 285.2 49.6 285.2 52.3 285.2 52.3 C 285.2 52.7 285.2 53.2 285.3 53.6 C 285.3 53.59 284.3 53.6 284.3 53.6 L 284.3 52.8 Z M 289.9 49.8 C 289.9 48.9 289.4 48.7 289.1 48.7 C 288.4 48.7 287.9 49 287.9 50.5 C 287.9 52.3 288.2 53 289.1 53 C 289.3 53 289.9 52.7 289.9 51.7 C 289.9 51.7 290.8 51.7 290.8 51.7 C 290.9 53.3 289.7 53.7 289.1 53.7 C 287.9 53.7 287 53.4 287 50.9 C 287 49.3 287.2 47.9 289.1 47.9 C 290.2 47.9 290.8 48.6 290.8 49.8 C 290.8 49.8 289.9 49.8 289.9 49.8 Z M 293.3 53.6 L 292.4 53.6 L 292.4 48 L 293.3 48 L 293.3 53.6 Z M 292.4 45.7 L 293.4 45.7 L 293.4 46.6 L 292.4 46.6 L 292.4 45.7 Z M 297.6 53.6 C 297.6 53.6 297.62 49.74 297.6 49.7 C 297.6 49.2 297.5 48.7 296.7 48.7 C 296.5 48.7 296.1 48.8 296 49 C 295.8 49.3 295.8 49.6 295.8 49.9 C 295.75 49.85 295.8 53.6 295.8 53.6 L 294.9 53.6 C 294.9 53.6 294.85 49.19 294.9 49.2 C 294.9 48.8 294.8 48.4 294.8 48 C 294.8 48.04 295.8 48 295.8 48 L 295.8 48.7 C 295.8 48.7 295.78 48.73 295.8 48.7 C 296 48.1 296.5 47.9 297.2 47.9 C 297.7 47.9 298.3 48.1 298.5 48.6 C 298.8 48 299.3 47.9 299.8 47.9 C 300.4 47.9 301.3 48.1 301.3 49.4 C 301.3 49.37 301.3 53.6 301.3 53.6 L 300.4 53.6 C 300.4 53.6 300.4 49.74 300.4 49.7 C 300.4 49.2 300.2 48.7 299.5 48.7 C 299.2 48.7 299.1 48.7 298.8 48.9 C 298.6 49.1 298.5 49.6 298.5 49.9 C 298.53 49.85 298.5 53.6 298.5 53.6 L 297.6 53.6 Z M 303.7 51.9 C 303.7 52.5 303.9 53 304.5 53 C 305.1 53 305.8 52.6 305.7 50.8 C 304.8 50.8 303.7 50.8 303.7 51.9 Z M 305.7 52.8 C 305.7 52.8 305.68 52.79 305.7 52.8 C 305.4 53.4 305 53.7 304.3 53.7 C 303.1 53.7 302.8 52.9 302.8 51.9 C 302.8 50.2 304.4 50.1 305.7 50.2 C 305.7 49.4 305.7 48.6 304.7 48.6 C 304.1 48.6 303.8 49 303.9 49.6 C 303.9 49.6 302.9 49.6 302.9 49.6 C 302.9 48.4 303.6 47.9 304.8 47.9 C 306.2 47.9 306.6 48.7 306.6 49.6 C 306.6 49.6 306.6 52.3 306.6 52.3 C 306.6 52.7 306.6 53.2 306.7 53.6 C 306.69 53.59 305.7 53.6 305.7 53.6 L 305.7 52.8 Z M 310.3 53 C 311.5 53 311.5 51.8 311.5 50.9 C 311.5 49.4 311.3 48.7 310.4 48.7 C 309.4 48.7 309.3 49.9 309.3 50.6 C 309.3 51.4 309.2 53 310.3 53 Z M 309.3 53.6 L 308.4 53.6 L 308.4 45.7 L 309.3 45.7 L 309.3 48.6 C 309.3 48.6 309.35 48.6 309.3 48.6 C 309.7 48.2 310 47.9 310.6 47.9 C 312.4 47.9 312.4 49.5 312.4 50.9 C 312.4 53.4 311.5 53.7 310.6 53.7 C 310 53.7 309.6 53.4 309.3 52.9 C 309.34 52.93 309.3 52.9 309.3 52.9 L 309.3 53.6 Z " stroke="none" fill="#fff"/>  </g>  <g id="Polygon200386">    <path d="M 34.3 31.5 C 34.3 31.5 35.06 31.45 35.1 31.5 C 35.7 31.5 35.9 30.8 35.9 30.3 C 35.9 29.5 35.6 29.2 35.1 29.2 C 35.06 29.24 34.3 29.2 34.3 29.2 L 34.3 31.5 Z M 34.3 36 L 32.7 36 L 32.7 28 C 32.7 28 35.73 28.02 35.7 28 C 36.9 28 37.6 28.7 37.6 30.1 C 37.6 31.1 37.2 31.9 36.1 32 C 36.1 32 36.1 32.1 36.1 32.1 C 36.5 32.1 37.6 32.2 37.6 33.6 C 37.6 34.1 37.6 35.6 37.7 36 C 37.7 36 36.1 36 36.1 36 C 35.9 35.5 35.9 34.9 35.9 34.4 C 35.9 33.5 36 32.7 34.7 32.7 C 34.75 32.67 34.3 32.7 34.3 32.7 L 34.3 36 Z M 41.6 32.6 C 41.6 32 41.6 31.3 40.9 31.3 C 40.2 31.3 40.2 32.1 40.2 32.6 C 40.2 32.6 41.6 32.6 41.6 32.6 Z M 40.2 33.4 C 40.2 34.1 40.2 35.1 40.9 35.1 C 41.4 35.1 41.5 34.6 41.5 34.1 C 41.5 34.1 43.1 34.1 43.1 34.1 C 43.1 34.7 42.9 35.2 42.5 35.5 C 42.1 35.9 41.6 36.1 40.9 36.1 C 38.9 36.1 38.6 34.9 38.6 33.1 C 38.6 31.6 38.8 30.3 40.9 30.3 C 43 30.3 43.2 31.7 43.1 33.4 C 43.1 33.4 40.2 33.4 40.2 33.4 Z M 46.6 29 C 46 28.9 45.9 29.2 45.9 29.7 C 45.86 29.74 45.9 30.4 45.9 30.4 L 46.6 30.4 L 46.6 31.4 L 45.9 31.4 L 45.9 36 L 44.3 36 L 44.3 31.4 L 43.6 31.4 L 43.6 30.4 C 43.6 30.4 44.32 30.41 44.3 30.4 C 44.3 28.8 44.2 28 46.1 28 C 46.3 28 46.4 28 46.6 28 C 46.6 28 46.6 29 46.6 29 Z M 50.1 32.6 C 50.1 32 50.2 31.3 49.4 31.3 C 48.7 31.3 48.7 32.1 48.7 32.6 C 48.7 32.6 50.1 32.6 50.1 32.6 Z M 48.7 33.4 C 48.7 34.1 48.7 35.1 49.4 35.1 C 50 35.1 50.1 34.6 50.1 34.1 C 50.1 34.1 51.7 34.1 51.7 34.1 C 51.6 34.7 51.4 35.2 51.1 35.5 C 50.7 35.9 50.2 36.1 49.4 36.1 C 47.4 36.1 47.2 34.9 47.2 33.1 C 47.2 31.6 47.4 30.3 49.4 30.3 C 51.5 30.3 51.7 31.7 51.7 33.4 C 51.7 33.4 48.7 33.4 48.7 33.4 Z M 54.3 30.4 L 54.3 31.1 C 54.3 31.1 54.29 31.12 54.3 31.1 C 54.6 30.5 55.1 30.3 55.7 30.3 C 55.7 30.3 55.7 31.7 55.7 31.7 C 54.4 31.6 54.3 32.4 54.3 32.9 C 54.34 32.94 54.3 36 54.3 36 L 52.8 36 L 52.8 30.4 L 54.3 30.4 Z M 59.3 32.6 C 59.3 32 59.3 31.3 58.6 31.3 C 57.9 31.3 57.9 32.1 57.9 32.6 C 57.9 32.6 59.3 32.6 59.3 32.6 Z M 57.9 33.4 C 57.9 34.1 57.9 35.1 58.6 35.1 C 59.1 35.1 59.2 34.6 59.2 34.1 C 59.2 34.1 60.8 34.1 60.8 34.1 C 60.8 34.7 60.6 35.2 60.2 35.5 C 59.9 35.9 59.3 36.1 58.6 36.1 C 56.6 36.1 56.3 34.9 56.3 33.1 C 56.3 31.6 56.5 30.3 58.6 30.3 C 60.7 30.3 60.9 31.7 60.9 33.4 C 60.9 33.4 57.9 33.4 57.9 33.4 Z M 63.5 31 C 63.5 31 63.53 30.97 63.5 31 C 63.7 30.7 63.9 30.6 64.1 30.5 C 64.3 30.3 64.5 30.3 64.8 30.3 C 65.6 30.3 66.2 30.7 66.2 31.5 C 66.22 31.51 66.2 36 66.2 36 L 64.7 36 C 64.7 36 64.67 32.14 64.7 32.1 C 64.7 31.6 64.6 31.3 64.1 31.3 C 63.6 31.3 63.5 31.6 63.5 32.1 C 63.5 32.14 63.5 36 63.5 36 L 62 36 L 62 30.4 L 63.5 30.4 L 63.5 31 Z M 70.3 32.4 C 70.3 31.6 70.1 31.3 69.6 31.3 C 68.9 31.3 68.9 31.9 68.9 33 C 68.9 34.7 69 35.1 69.6 35.1 C 70.1 35.1 70.3 34.6 70.3 33.9 C 70.3 33.9 71.9 33.9 71.9 33.9 C 71.9 35.4 71 36.1 69.6 36.1 C 67.6 36.1 67.3 34.9 67.3 33.1 C 67.3 31.6 67.5 30.3 69.6 30.3 C 71 30.3 71.8 30.9 71.8 32.4 C 71.8 32.4 70.3 32.4 70.3 32.4 Z M 75.8 32.6 C 75.8 32 75.8 31.3 75.1 31.3 C 74.4 31.3 74.4 32.1 74.4 32.6 C 74.4 32.6 75.8 32.6 75.8 32.6 Z M 74.4 33.4 C 74.4 34.1 74.4 35.1 75.1 35.1 C 75.6 35.1 75.7 34.6 75.7 34.1 C 75.7 34.1 77.3 34.1 77.3 34.1 C 77.3 34.7 77.1 35.2 76.7 35.5 C 76.4 35.9 75.8 36.1 75.1 36.1 C 73.1 36.1 72.8 34.9 72.8 33.1 C 72.8 31.6 73 30.3 75.1 30.3 C 77.2 30.3 77.4 31.7 77.4 33.4 C 77.4 33.4 74.4 33.4 74.4 33.4 Z M 79.7 30.4 L 79.7 31.9 L 78.4 31.9 L 78.4 30.4 L 79.7 30.4 Z M 79.7 36 L 78.4 36 L 78.4 34.5 L 79.7 34.5 L 79.7 36 Z " stroke="none" fill="#fff"/>  </g></svg>