<?xml version="1.0" standalone="no"?><!DOCTYPE svg PUBLIC "-//W3C//DTD SVG 1.1//EN" "http://www.w3.org/Graphics/SVG/1.1/DTD/svg11.dtd"><svg xmlns="http://www.w3.org/2000/svg" version="1.1" width="304px" height="41.7px" viewBox="0 -7 304 41.7" style="top:-7px">  <desc>Prescribing information</desc>  <defs/>  <g id="Polygon203723">    <path d="M 3.8 9.1 C 3.8 9.1 5.29 9.13 5.3 9.1 C 7.2 9.1 7.4 8.8 7.4 5.8 C 7.4 2.7 7.2 2.4 5.3 2.4 C 5.29 2.41 3.8 2.4 3.8 2.4 L 3.8 9.1 Z M 1 0.1 C 1 0.1 5.66 0.06 5.7 0.1 C 9.5 0.1 10.2 1.1 10.2 5.8 C 10.2 10.4 9.5 11.5 5.7 11.5 C 5.66 11.48 3.8 11.5 3.8 11.5 L 3.8 20.3 L 1 20.3 L 1 0.1 Z M 11.9 0.1 C 11.9 0.1 16.27 0.06 16.3 0.1 C 20.4 0.1 20.8 1.1 20.8 5.6 C 20.8 8.3 20.4 9.5 18.1 10.2 C 18.1 10.2 18.1 10.2 18.1 10.2 C 20 10.4 20.7 11.4 20.7 13.3 C 20.7 13.3 20.7 17.7 20.7 17.7 C 20.7 18.4 20.7 19.4 20.8 20.3 C 20.8 20.3 18.2 20.3 18.2 20.3 C 17.9 19.8 17.9 19.3 17.9 18.5 C 17.9 18.5 17.9 13.9 17.9 13.9 C 17.9 12 17.5 11.5 15.7 11.5 C 15.68 11.48 14.7 11.5 14.7 11.5 L 14.7 20.3 L 11.9 20.3 L 11.9 0.1 Z M 14.7 9.1 C 14.7 9.1 15.46 9.13 15.5 9.1 C 17.7 9.1 18 8.7 18 5.7 C 18 2.7 17.8 2.4 16.1 2.4 C 16.07 2.41 14.7 2.4 14.7 2.4 L 14.7 9.1 Z M 22.8 0.1 L 30.4 0.1 L 30.4 2.4 L 25.6 2.4 L 25.6 8.7 L 30.2 8.7 L 30.2 11.1 L 25.6 11.1 L 25.6 17.9 L 30.4 17.9 L 30.4 20.3 L 22.8 20.3 L 22.8 0.1 Z M 31.3 14.4 L 34.1 14.4 C 34.1 14.4 34.13 16.07 34.1 16.1 C 34.1 17.4 34.6 18.3 35.8 18.3 C 37.2 18.3 37.6 17.2 37.6 15.9 C 37.6 14.2 37.5 13.7 34.6 10.8 C 32.8 9 31.3 7.4 31.3 4.6 C 31.3 1.3 32.9 -0.1 35.9 -0.1 C 37.4 -0.1 38.5 0.4 39.2 1 C 39.7 1.5 40 2.2 40 3.6 C 40.01 3.58 40 5.5 40 5.5 L 37.4 5.5 C 37.4 5.5 37.38 3.89 37.4 3.9 C 37.4 2.7 36.9 2.1 35.8 2.1 C 34.7 2.1 34.1 2.7 34.1 4.3 C 34.1 5.7 34.4 6.5 37 9.2 C 39.7 12 40.2 13 40.2 15.5 C 40.2 18.6 39 20.4 35.7 20.4 C 33.1 20.4 31.3 19.3 31.3 16.8 C 31.33 16.83 31.3 14.4 31.3 14.4 Z M 41.7 5.2 C 41.7 2.4 42.6 -0.1 46.4 -0.1 C 49.2 -0.1 50.5 1.3 50.5 3.6 C 50.48 3.56 50.5 5.6 50.5 5.6 L 47.9 5.6 C 47.9 5.6 47.85 4.17 47.9 4.2 C 47.9 2.9 47.4 2.1 46.2 2.1 C 44.8 2.1 44.5 3.1 44.5 5.5 C 44.5 5.5 44.5 15.5 44.5 15.5 C 44.5 17.8 45.2 18.3 46.1 18.3 C 47.2 18.3 47.9 17.5 47.9 15.8 C 47.85 15.85 47.9 14.4 47.9 14.4 L 50.5 14.4 C 50.5 14.4 50.48 16.69 50.5 16.7 C 50.5 18.8 49.6 20.4 46.4 20.4 C 42.8 20.4 41.7 18.6 41.7 15.4 C 41.7 15.4 41.7 5.2 41.7 5.2 Z M 51.9 0.1 C 51.9 0.1 56.19 0.06 56.2 0.1 C 60.3 0.1 60.7 1.1 60.7 5.6 C 60.7 8.3 60.3 9.5 58 10.2 C 58 10.2 58 10.2 58 10.2 C 59.9 10.4 60.6 11.4 60.6 13.3 C 60.6 13.3 60.6 17.7 60.6 17.7 C 60.6 18.4 60.6 19.4 60.8 20.3 C 60.8 20.3 58.1 20.3 58.1 20.3 C 57.8 19.8 57.8 19.3 57.8 18.5 C 57.8 18.5 57.8 13.9 57.8 13.9 C 57.8 12 57.5 11.5 55.6 11.5 C 55.61 11.48 54.7 11.5 54.7 11.5 L 54.7 20.3 L 51.9 20.3 L 51.9 0.1 Z M 54.7 9.1 C 54.7 9.1 55.38 9.13 55.4 9.1 C 57.6 9.1 57.9 8.7 57.9 5.7 C 57.9 2.7 57.7 2.4 56 2.4 C 56 2.41 54.7 2.4 54.7 2.4 L 54.7 9.1 Z M 62.7 0.1 L 65.5 0.1 L 65.5 20.3 L 62.7 20.3 L 62.7 0.1 Z M 67.5 0.1 C 67.5 0.1 72.32 0.06 72.3 0.1 C 75.8 0.1 76.4 1.3 76.4 5 C 76.4 8.9 75.7 9.6 73.8 9.8 C 73.8 9.8 73.8 9.9 73.8 9.9 C 76 10.3 76.5 11.1 76.5 14.5 C 76.5 18.9 75.9 20.3 71.8 20.3 C 71.85 20.27 67.5 20.3 67.5 20.3 L 67.5 0.1 Z M 70.3 18.1 C 70.3 18.1 71.99 18.09 72 18.1 C 73.6 18.1 73.9 17.6 73.9 14.4 C 73.9 11.4 73.6 10.9 72.1 10.9 C 72.07 10.92 70.3 10.9 70.3 10.9 L 70.3 18.1 Z M 70.3 8.7 C 70.3 8.7 71.87 8.74 71.9 8.7 C 73.6 8.7 73.7 8.4 73.7 5.1 C 73.7 2.8 73.4 2.2 71.6 2.2 C 71.57 2.24 70.3 2.2 70.3 2.2 L 70.3 8.7 Z M 78.3 0.1 L 81.1 0.1 L 81.1 20.3 L 78.3 20.3 L 78.3 0.1 Z M 83 0.1 L 86.9 0.1 L 90.2 16.9 L 90.3 16.9 L 90.3 0.1 L 92.9 0.1 L 92.9 20.3 L 88.9 20.3 L 85.6 3 L 85.5 3 L 85.5 20.3 L 83 20.3 L 83 0.1 Z M 101.5 5.4 C 101.5 5.4 101.5 4.37 101.5 4.4 C 101.5 2.9 100.8 2.1 99.7 2.1 C 98.4 2.1 97.8 3.2 97.8 5.4 C 97.8 5.4 97.8 15.6 97.8 15.6 C 97.8 17.2 98.6 18.3 99.7 18.3 C 100.5 18.3 101.1 18.1 101.5 18.1 C 101.5 18.06 101.5 12.1 101.5 12.1 L 99.7 12.1 L 99.7 9.8 L 104.3 9.8 C 104.3 9.8 104.3 19.94 104.3 19.9 C 103.2 20.2 101.3 20.4 99.7 20.4 C 96.1 20.4 95 18.6 95 15.4 C 95 15.4 95 5.2 95 5.2 C 95 1.4 96.1 -0.1 99.7 -0.1 C 102.7 -0.1 104.3 1 104.3 3.6 C 104.3 3.56 104.3 5.4 104.3 5.4 L 101.5 5.4 Z M 111.5 0.1 L 114.3 0.1 L 114.3 20.3 L 111.5 20.3 L 111.5 0.1 Z M 116.3 0.1 L 120.1 0.1 L 123.4 16.9 L 123.5 16.9 L 123.5 0.1 L 126.1 0.1 L 126.1 20.3 L 122.1 20.3 L 118.8 3 L 118.7 3 L 118.7 20.3 L 116.3 20.3 L 116.3 0.1 Z M 128.2 0.1 L 135.8 0.1 L 135.8 2.4 L 131 2.4 L 131 8.7 L 135.5 8.7 L 135.5 11.1 L 131 11.1 L 131 20.3 L 128.2 20.3 L 128.2 0.1 Z M 139.7 15.6 C 139.7 17.3 140.5 18.3 141.7 18.3 C 142.9 18.3 143.6 17.3 143.6 15.6 C 143.6 15.6 143.6 5 143.6 5 C 143.6 3 143 2.1 141.7 2.1 C 140.4 2.1 139.7 3 139.7 5 C 139.7 5 139.7 15.6 139.7 15.6 Z M 136.9 5.2 C 136.9 2.4 137.9 -0.1 141.7 -0.1 C 145.3 -0.1 146.4 1.8 146.4 4.9 C 146.4 4.9 146.4 15.1 146.4 15.1 C 146.4 17.9 145.5 20.4 141.7 20.4 C 138.1 20.4 136.9 18.6 136.9 15.4 C 136.9 15.4 136.9 5.2 136.9 5.2 Z M 148.4 0.1 C 148.4 0.1 152.77 0.06 152.8 0.1 C 156.9 0.1 157.3 1.1 157.3 5.6 C 157.3 8.3 156.9 9.5 154.6 10.2 C 154.6 10.2 154.6 10.2 154.6 10.2 C 156.5 10.4 157.2 11.4 157.2 13.3 C 157.2 13.3 157.2 17.7 157.2 17.7 C 157.2 18.4 157.2 19.4 157.3 20.3 C 157.3 20.3 154.7 20.3 154.7 20.3 C 154.4 19.8 154.4 19.3 154.4 18.5 C 154.4 18.5 154.4 13.9 154.4 13.9 C 154.4 12 154 11.5 152.2 11.5 C 152.18 11.48 151.2 11.5 151.2 11.5 L 151.2 20.3 L 148.4 20.3 L 148.4 0.1 Z M 151.2 9.1 C 151.2 9.1 151.95 9.13 152 9.1 C 154.2 9.1 154.5 8.7 154.5 5.7 C 154.5 2.7 154.3 2.4 152.6 2.4 C 152.57 2.41 151.2 2.4 151.2 2.4 L 151.2 9.1 Z M 159.3 0.1 L 163.8 0.1 L 166.3 15.5 L 166.4 15.5 L 169 0.1 L 173.3 0.1 L 173.3 20.3 L 170.7 20.3 L 170.7 2.1 L 170.6 2.1 L 167.8 20.3 L 165 20.3 L 161.8 2.1 L 161.8 2.1 L 161.8 20.3 L 159.3 20.3 L 159.3 0.1 Z M 179.1 0.1 L 182.4 0.1 L 186.5 20.3 L 183.7 20.3 L 182.8 15.1 L 178.4 15.1 L 177.5 20.3 L 174.7 20.3 L 179.1 0.1 Z M 178.8 12.8 L 182.4 12.8 L 180.6 3 L 180.6 3 L 178.8 12.8 Z M 184.7 0.1 L 194.2 0.1 L 194.2 2.4 L 190.9 2.4 L 190.9 20.3 L 188.1 20.3 L 188.1 2.4 L 184.7 2.4 L 184.7 0.1 Z M 195.4 0.1 L 198.2 0.1 L 198.2 20.3 L 195.4 20.3 L 195.4 0.1 Z M 202.9 15.6 C 202.9 17.3 203.6 18.3 204.8 18.3 C 206 18.3 206.7 17.3 206.7 15.6 C 206.7 15.6 206.7 5 206.7 5 C 206.7 3 206.1 2.1 204.8 2.1 C 203.5 2.1 202.9 3 202.9 5 C 202.9 5 202.9 15.6 202.9 15.6 Z M 200.1 5.2 C 200.1 2.4 201 -0.1 204.8 -0.1 C 208.4 -0.1 209.5 1.8 209.5 4.9 C 209.5 4.9 209.5 15.1 209.5 15.1 C 209.5 17.9 208.6 20.4 204.8 20.4 C 201.2 20.4 200.1 18.6 200.1 15.4 C 200.1 15.4 200.1 5.2 200.1 5.2 Z M 211.5 0.1 L 215.4 0.1 L 218.7 16.9 L 218.8 16.9 L 218.8 0.1 L 221.4 0.1 L 221.4 20.3 L 217.4 20.3 L 214.1 3 L 214 3 L 214 20.3 L 211.5 20.3 L 211.5 0.1 Z " stroke="none" fill="#003c71"/>  </g></svg>