<?xml version="1.0" standalone="no"?><!DOCTYPE svg PUBLIC "-//W3C//DTD SVG 1.1//EN" "http://www.w3.org/Graphics/SVG/1.1/DTD/svg11.dtd"><svg xmlns="http://www.w3.org/2000/svg" version="1.1" width="25px" height="30.6px" viewBox="0 -1 25 30.6" style="top:-1px">  <desc>R</desc>  <defs/>  <g id="Polygon190588">    <path d="M 10.3 8.1 C 10.3 8.1 12.36 8.06 12.4 8.1 C 14.3 8.1 14.4 8.6 14.4 10.6 C 14.4 11.9 14.3 12.4 13.2 12.8 C 13.2 12.8 13.2 12.8 13.2 12.8 C 14.1 12.9 14.4 13.3 14.4 14.2 C 14.4 14.2 14.4 16.2 14.4 16.2 C 14.4 16.6 14.4 17.1 14.5 17.4 C 14.5 17.4 13.3 17.4 13.3 17.4 C 13.1 17.2 13.1 17 13.1 16.6 C 13.1 16.6 13.1 14.5 13.1 14.5 C 13.1 13.6 12.9 13.4 12.1 13.4 C 12.08 13.36 11.6 13.4 11.6 13.4 L 11.6 17.4 L 10.3 17.4 L 10.3 8.1 Z M 11.6 12.3 C 11.6 12.3 11.98 12.27 12 12.3 C 13 12.3 13.1 12.1 13.1 10.7 C 13.1 9.3 13.1 9.1 12.3 9.1 C 12.26 9.15 11.6 9.1 11.6 9.1 L 11.6 12.3 Z " stroke="none" fill="#fff"/>  </g></svg>