<?xml version="1.0" standalone="no"?><!DOCTYPE svg PUBLIC "-//W3C//DTD SVG 1.1//EN" "http://www.w3.org/Graphics/SVG/1.1/DTD/svg11.dtd"><svg xmlns="http://www.w3.org/2000/svg" version="1.1" width="268.1px" height="41.6px" viewBox="0 -6 268.1 41.6" style="top:-6px">  <desc>…REMAINED ATTACK FREE1*</desc>  <defs/>  <g id="Polygon200170">    <path d="M 2.6 14.5 L 5.4 14.5 L 5.4 17.3 L 2.6 17.3 L 2.6 14.5 Z M 10.6 14.5 L 13.4 14.5 L 13.4 17.3 L 10.6 17.3 L 10.6 14.5 Z M 18.5 14.5 L 21.3 14.5 L 21.3 17.3 L 18.5 17.3 L 18.5 14.5 Z M 24.8 0 C 24.8 0 28.52 0.05 28.5 0 C 32 0 32.4 1 32.4 4.8 C 32.4 7.1 32.1 8.1 30.1 8.7 C 30.1 8.7 30.1 8.7 30.1 8.7 C 31.7 8.9 32.3 9.7 32.3 11.4 C 32.3 11.4 32.3 15.1 32.3 15.1 C 32.3 15.7 32.3 16.6 32.4 17.3 C 32.4 17.3 30.2 17.3 30.2 17.3 C 29.9 16.9 29.9 16.5 29.9 15.8 C 29.9 15.8 29.9 11.9 29.9 11.9 C 29.9 10.2 29.6 9.8 28 9.8 C 28.02 9.81 27.2 9.8 27.2 9.8 L 27.2 17.3 L 24.8 17.3 L 24.8 0 Z M 27.2 7.8 C 27.2 7.8 27.82 7.8 27.8 7.8 C 29.7 7.8 30 7.4 30 4.9 C 30 2.3 29.8 2.1 28.4 2.1 C 28.35 2.06 27.2 2.1 27.2 2.1 L 27.2 7.8 Z M 34.1 0 L 40.6 0 L 40.6 2.1 L 36.5 2.1 L 36.5 7.5 L 40.4 7.5 L 40.4 9.5 L 36.5 9.5 L 36.5 15.3 L 40.6 15.3 L 40.6 17.3 L 34.1 17.3 L 34.1 0 Z M 41.7 0 L 45.5 0 L 47.7 13.2 L 47.7 13.2 L 49.9 0 L 53.6 0 L 53.6 17.3 L 51.4 17.3 L 51.4 1.8 L 51.3 1.8 L 48.9 17.3 L 46.5 17.3 L 43.8 1.8 L 43.8 1.8 L 43.8 17.3 L 41.7 17.3 L 41.7 0 Z M 58.6 0 L 61.3 0 L 64.9 17.3 L 62.5 17.3 L 61.7 12.9 L 57.9 12.9 L 57.2 17.3 L 54.8 17.3 L 58.6 0 Z M 58.3 10.9 L 61.3 10.9 L 59.9 2.6 L 59.8 2.6 L 58.3 10.9 Z M 65.9 0 L 68.3 0 L 68.3 17.3 L 65.9 17.3 L 65.9 0 Z M 70 0 L 73.3 0 L 76.2 14.4 L 76.2 14.4 L 76.2 0 L 78.4 0 L 78.4 17.3 L 75 17.3 L 72.2 2.6 L 72.1 2.6 L 72.1 17.3 L 70 17.3 L 70 0 Z M 80.2 0 L 86.7 0 L 86.7 2.1 L 82.6 2.1 L 82.6 7.5 L 86.5 7.5 L 86.5 9.5 L 82.6 9.5 L 82.6 15.3 L 86.7 15.3 L 86.7 17.3 L 80.2 17.3 L 80.2 0 Z M 90.1 15.3 C 90.1 15.3 91.29 15.31 91.3 15.3 C 93.1 15.3 93.4 14.4 93.4 11.4 C 93.4 11.4 93.4 5.5 93.4 5.5 C 93.4 2.9 93.1 2.1 91.1 2.1 C 91.1 2.06 90.1 2.1 90.1 2.1 L 90.1 15.3 Z M 87.8 0 C 87.8 0 91.6 0.05 91.6 0 C 95.5 0 95.8 1.3 95.8 6.4 C 95.8 6.4 95.8 11.5 95.8 11.5 C 95.8 15.9 95 17.3 91.2 17.3 C 91.22 17.32 87.8 17.3 87.8 17.3 L 87.8 0 Z M 104.2 0 L 107 0 L 110.5 17.3 L 108.1 17.3 L 107.3 12.9 L 103.6 12.9 L 102.8 17.3 L 100.4 17.3 L 104.2 0 Z M 104 10.9 L 107 10.9 L 105.5 2.6 L 105.5 2.6 L 104 10.9 Z M 109 0 L 117.2 0 L 117.2 2.1 L 114.3 2.1 L 114.3 17.3 L 111.9 17.3 L 111.9 2.1 L 109 2.1 L 109 0 Z M 117.4 0 L 125.6 0 L 125.6 2.1 L 122.7 2.1 L 122.7 17.3 L 120.3 17.3 L 120.3 2.1 L 117.4 2.1 L 117.4 0 Z M 127.9 0 L 130.6 0 L 134.2 17.3 L 131.8 17.3 L 131 12.9 L 127.3 12.9 L 126.5 17.3 L 124.1 17.3 L 127.9 0 Z M 127.6 10.9 L 130.6 10.9 L 129.2 2.6 L 129.1 2.6 L 127.6 10.9 Z M 134.9 4.4 C 134.9 2 135.7 -0.1 139 -0.1 C 141.3 -0.1 142.4 1.1 142.4 3 C 142.44 3.04 142.4 4.8 142.4 4.8 L 140.2 4.8 C 140.2 4.8 140.19 3.56 140.2 3.6 C 140.2 2.5 139.8 1.8 138.8 1.8 C 137.6 1.8 137.3 2.7 137.3 4.7 C 137.3 4.7 137.3 13.2 137.3 13.2 C 137.3 15.2 138 15.6 138.7 15.6 C 139.6 15.6 140.2 15 140.2 13.5 C 140.19 13.54 140.2 12.3 140.2 12.3 L 142.4 12.3 C 142.4 12.3 142.44 14.26 142.4 14.3 C 142.4 16.1 141.7 17.5 138.9 17.5 C 135.9 17.5 134.9 15.9 134.9 13.2 C 134.9 13.2 134.9 4.4 134.9 4.4 Z M 143.6 0 L 146 0 L 146 7.9 L 146.1 7.9 L 149.8 0 L 152.2 0 L 148.2 8.2 L 152.5 17.3 L 149.8 17.3 L 146.1 8.7 L 146 8.7 L 146 17.3 L 143.6 17.3 L 143.6 0 Z M 153.1 10.3 L 158.9 10.3 L 158.9 12.2 L 153.1 12.2 L 153.1 10.3 Z M 160.4 0 L 166.9 0 L 166.9 2.1 L 162.8 2.1 L 162.8 7.5 L 166.7 7.5 L 166.7 9.5 L 162.8 9.5 L 162.8 17.3 L 160.4 17.3 L 160.4 0 Z M 168 0 C 168 0 171.68 0.05 171.7 0 C 175.2 0 175.5 1 175.5 4.8 C 175.5 7.1 175.2 8.1 173.3 8.7 C 173.3 8.7 173.3 8.7 173.3 8.7 C 174.9 8.9 175.4 9.7 175.4 11.4 C 175.4 11.4 175.4 15.1 175.4 15.1 C 175.4 15.7 175.4 16.6 175.6 17.3 C 175.6 17.3 173.3 17.3 173.3 17.3 C 173.1 16.9 173 16.5 173 15.8 C 173 15.8 173 11.9 173 11.9 C 173 10.2 172.8 9.8 171.2 9.8 C 171.18 9.81 170.4 9.8 170.4 9.8 L 170.4 17.3 L 168 17.3 L 168 0 Z M 170.4 7.8 C 170.4 7.8 170.98 7.8 171 7.8 C 172.9 7.8 173.1 7.4 173.1 4.9 C 173.1 2.3 173 2.1 171.5 2.1 C 171.51 2.06 170.4 2.1 170.4 2.1 L 170.4 7.8 Z M 177.3 0 L 183.8 0 L 183.8 2.1 L 179.7 2.1 L 179.7 7.5 L 183.5 7.5 L 183.5 9.5 L 179.7 9.5 L 179.7 15.3 L 183.8 15.3 L 183.8 17.3 L 177.3 17.3 L 177.3 0 Z M 184.8 0 L 191.3 0 L 191.3 2.1 L 187.2 2.1 L 187.2 7.5 L 191.1 7.5 L 191.1 9.5 L 187.2 9.5 L 187.2 15.3 L 191.3 15.3 L 191.3 17.3 L 184.8 17.3 L 184.8 0 Z M 193.7 1.2 C 193.7 1.2 193.67 1.18 193.7 1.2 C 193.4 1.6 193.1 1.8 192.6 2.2 C 192.6 2.2 192.6 0.9 192.6 0.9 C 192.9 0.7 193.7 -0.3 193.8 -0.7 C 193.83 -0.72 195 -0.7 195 -0.7 L 195 9.4 L 193.7 9.4 L 193.7 1.2 Z M 197 2.3 L 197.6 1.1 L 199.7 2.6 L 199.6 0 L 200.8 0 L 200.7 2.6 L 202.8 1.1 L 203.4 2.3 L 201.1 3.4 L 203.4 4.5 L 202.8 5.7 L 200.7 4.3 L 200.8 6.8 L 199.6 6.8 L 199.7 4.3 L 197.6 5.7 L 197 4.5 L 199.3 3.4 L 197 2.3 Z " stroke="none" fill="#003c71"/>  </g></svg>