<?xml version="1.0" standalone="no"?><!DOCTYPE svg PUBLIC "-//W3C//DTD SVG 1.1//EN" "http://www.w3.org/Graphics/SVG/1.1/DTD/svg11.dtd"><svg xmlns="http://www.w3.org/2000/svg" version="1.1" width="693px" height="37.3px" viewBox="0 -1 693 37.3" style="top:-1px">  <desc>* Baseline adjusted time normalized least squared (LS) mean: 0.22 [95% CI 0.11, 0.47] vs. placebo, 2.07 [95% CI 1.49,...</desc>  <defs/>  <g id="Polygon195391">    <path d="M 3.1 22.6 L 4.2 24.2 L 3.5 24.6 L 2.7 22.8 L 1.9 24.6 L 1.2 24.2 L 2.3 22.6 L 0.4 22.8 L 0.4 22 L 2.3 22.1 L 1.2 20.6 L 1.9 20.2 L 2.7 21.9 L 3.4 20.2 L 4.2 20.6 L 3.1 22.1 L 4.9 22 L 4.9 22.8 L 3.1 22.6 Z M 7.5 28.1 C 7.5 28.1 9.07 28.1 9.1 28.1 C 10.2 28.1 10.7 27.3 10.7 26.6 C 10.7 25.2 9.8 25 8.7 25 C 8.69 25 7.5 25 7.5 25 L 7.5 28.1 Z M 7.5 24 C 7.5 24 9.12 24.04 9.1 24 C 10 24 10.4 23.5 10.4 22.7 C 10.4 21.9 10 21.4 9.1 21.4 C 9.07 21.35 7.5 21.4 7.5 21.4 L 7.5 24 Z M 6.4 29.1 L 6.4 20.4 C 6.4 20.4 9.23 20.39 9.2 20.4 C 10.4 20.4 10.8 20.8 11.2 21.3 C 11.5 21.7 11.5 22.3 11.5 22.4 C 11.5 23.5 11.1 24.2 10 24.5 C 10 24.5 10 24.5 10 24.5 C 11.3 24.7 11.8 25.4 11.8 26.6 C 11.8 28.8 10.2 29.1 9.2 29.1 C 9.19 29.05 6.4 29.1 6.4 29.1 Z M 14.4 27.3 C 14.4 27.8 14.7 28.4 15.4 28.4 C 16 28.4 16.7 28 16.6 26 C 15.7 26.1 14.4 26 14.4 27.3 Z M 16.6 28.2 C 16.6 28.2 16.62 28.18 16.6 28.2 C 16.3 28.9 15.9 29.2 15.1 29.2 C 13.8 29.2 13.4 28.3 13.4 27.2 C 13.4 25.3 15.2 25.3 16.6 25.3 C 16.6 24.5 16.7 23.6 15.6 23.6 C 14.9 23.6 14.6 24.1 14.7 24.7 C 14.7 24.7 13.6 24.7 13.6 24.7 C 13.6 23.3 14.4 22.9 15.6 22.9 C 17.2 22.9 17.6 23.7 17.6 24.7 C 17.6 24.7 17.6 27.6 17.6 27.6 C 17.6 28.1 17.7 28.6 17.7 29.1 C 17.72 29.05 16.6 29.1 16.6 29.1 L 16.6 28.2 Z M 21.3 29.2 C 20 29.2 19.2 28.6 19.2 27.2 C 19.2 27.2 20.3 27.2 20.3 27.2 C 20.3 27.6 20.4 28.4 21.3 28.4 C 21.9 28.4 22.4 28.1 22.4 27.4 C 22.4 26.4 19.4 26.3 19.4 24.5 C 19.4 23.9 19.8 22.9 21.5 22.9 C 22.5 22.9 23.5 23.4 23.4 24.6 C 23.4 24.6 22.3 24.6 22.3 24.6 C 22.3 24 22 23.6 21.3 23.6 C 20.8 23.6 20.4 23.9 20.4 24.4 C 20.4 25.5 23.4 25.5 23.4 27.3 C 23.4 28.7 22.5 29.2 21.3 29.2 Z M 28.2 25.6 C 28.2 23.8 27.7 23.6 27 23.6 C 26.3 23.6 25.8 23.9 25.8 25.6 C 25.8 25.6 28.2 25.6 28.2 25.6 Z M 25.8 26.3 C 25.8 28 26.3 28.4 27 28.4 C 27.7 28.4 28.1 27.8 28.1 27.2 C 28.1 27.2 29.2 27.2 29.2 27.2 C 29.2 28.6 28.3 29.2 27.1 29.2 C 25.8 29.2 24.8 28.8 24.8 26.1 C 24.8 24.3 25 22.9 27.1 22.9 C 28.8 22.9 29.2 23.8 29.2 25.8 C 29.22 25.83 29.2 26.3 29.2 26.3 C 29.2 26.3 25.81 26.34 25.8 26.3 Z M 31.8 29.1 L 30.8 29.1 L 30.8 20.4 L 31.8 20.4 L 31.8 29.1 Z M 34.5 29.1 L 33.5 29.1 L 33.5 23 L 34.5 23 L 34.5 29.1 Z M 33.4 20.4 L 34.5 20.4 L 34.5 21.4 L 33.4 21.4 L 33.4 20.4 Z M 39.5 29.1 C 39.5 29.1 39.47 24.85 39.5 24.9 C 39.5 24.2 39.2 23.7 38.4 23.7 C 37.3 23.7 37.2 24.6 37.2 25.5 C 37.16 25.47 37.2 29.1 37.2 29.1 L 36.2 29.1 C 36.2 29.1 36.18 24.25 36.2 24.3 C 36.2 23.8 36.2 23.4 36.1 23 C 36.12 23 37.2 23 37.2 23 L 37.2 23.8 C 37.2 23.8 37.21 23.77 37.2 23.8 C 37.6 23.1 38.1 22.9 38.8 22.9 C 40.1 22.9 40.5 23.7 40.5 24.9 C 40.45 24.85 40.5 29.1 40.5 29.1 L 39.5 29.1 Z M 45.5 25.6 C 45.5 23.8 45 23.6 44.3 23.6 C 43.7 23.6 43.2 23.9 43.1 25.6 C 43.1 25.6 45.5 25.6 45.5 25.6 Z M 43.1 26.3 C 43.1 28 43.6 28.4 44.4 28.4 C 45 28.4 45.4 27.8 45.4 27.2 C 45.4 27.2 46.5 27.2 46.5 27.2 C 46.5 28.6 45.7 29.2 44.4 29.2 C 43.1 29.2 42.1 28.8 42.1 26.1 C 42.1 24.3 42.3 22.9 44.4 22.9 C 46.1 22.9 46.5 23.8 46.5 25.8 C 46.55 25.83 46.5 26.3 46.5 26.3 C 46.5 26.3 43.14 26.34 43.1 26.3 Z M 48 25.3 L 50.6 25.3 L 50.6 26.2 L 48 26.2 L 48 25.3 Z M 53.1 27.3 C 53.1 27.8 53.4 28.4 54 28.4 C 54.6 28.4 55.4 28 55.3 26 C 54.3 26.1 53.1 26 53.1 27.3 Z M 55.3 28.2 C 55.3 28.2 55.27 28.18 55.3 28.2 C 55 28.9 54.5 29.2 53.7 29.2 C 52.5 29.2 52.1 28.3 52.1 27.2 C 52.1 25.3 53.9 25.3 55.3 25.3 C 55.3 24.5 55.3 23.6 54.3 23.6 C 53.6 23.6 53.2 24.1 53.3 24.7 C 53.3 24.7 52.2 24.7 52.2 24.7 C 52.3 23.3 53 22.9 54.3 22.9 C 55.8 22.9 56.3 23.7 56.3 24.7 C 56.3 24.7 56.3 27.6 56.3 27.6 C 56.3 28.1 56.3 28.6 56.4 29.1 C 56.37 29.05 55.3 29.1 55.3 29.1 L 55.3 28.2 Z M 60.2 23.7 C 59.2 23.7 59 24.5 59 26.1 C 59 27.1 59 28.4 60.3 28.4 C 61.4 28.4 61.4 27 61.4 25.8 C 61.4 25 61.3 23.7 60.2 23.7 Z M 61.4 20.4 L 62.4 20.4 L 62.4 29.1 L 61.4 29.1 L 61.4 28.3 C 61.4 28.3 61.36 28.34 61.4 28.3 C 61 28.9 60.6 29.2 60 29.2 C 59 29.2 58 28.8 58 26.1 C 58 24.6 58.1 22.9 60 22.9 C 60.6 22.9 61 23.1 61.3 23.6 C 61.34 23.61 61.4 23.6 61.4 23.6 L 61.4 20.4 Z M 64.2 23 L 65.1 23 C 65.1 23 65.13 29.9 65.1 29.9 C 65.1 30.9 64.9 31.3 63.4 31.3 C 63.4 31.3 63.4 30.5 63.4 30.5 C 63.8 30.5 64.2 30.4 64.2 29.9 C 64.15 29.94 64.2 23 64.2 23 Z M 64.1 20.4 L 65.2 20.4 L 65.2 21.4 L 64.1 21.4 L 64.1 20.4 Z M 70.1 23 L 71.1 23 C 71.1 23 71.06 27.8 71.1 27.8 C 71.1 28.2 71.1 28.6 71.1 29.1 C 71.12 29.05 70.1 29.1 70.1 29.1 L 70.1 28.3 C 70.1 28.3 70.04 28.32 70 28.3 C 69.7 28.9 69.1 29.2 68.5 29.2 C 67.5 29.2 66.9 28.6 66.9 27.6 C 66.88 27.62 66.9 23 66.9 23 L 67.9 23 C 67.9 23 67.86 27.2 67.9 27.2 C 67.9 27.9 68.2 28.4 68.9 28.4 C 69.4 28.4 70.1 28 70.1 27 C 70.08 27.02 70.1 23 70.1 23 Z M 74.6 29.2 C 73.3 29.2 72.5 28.6 72.5 27.2 C 72.5 27.2 73.7 27.2 73.7 27.2 C 73.7 27.6 73.7 28.4 74.7 28.4 C 75.3 28.4 75.7 28.1 75.7 27.4 C 75.7 26.4 72.7 26.3 72.7 24.5 C 72.7 23.9 73.1 22.9 74.8 22.9 C 75.9 22.9 76.8 23.4 76.7 24.6 C 76.7 24.6 75.6 24.6 75.6 24.6 C 75.6 24 75.3 23.6 74.7 23.6 C 74.1 23.6 73.7 23.9 73.7 24.4 C 73.7 25.5 76.7 25.5 76.7 27.3 C 76.7 28.7 75.8 29.2 74.6 29.2 Z M 78.3 23 L 78.3 21.8 L 79.3 21.4 L 79.3 23 L 80.6 23 L 80.6 23.7 L 79.3 23.7 C 79.3 23.7 79.26 27.45 79.3 27.4 C 79.3 27.8 79.3 28.3 80.2 28.3 C 80.2 28.3 80.4 28.3 80.6 28.3 C 80.6 28.3 80.6 29 80.6 29 C 80.3 29.1 80 29.1 79.6 29.1 C 78.7 29.1 78.3 28.7 78.3 28 C 78.28 28.05 78.3 23.7 78.3 23.7 L 77.3 23.7 L 77.3 23 L 78.3 23 Z M 84.8 25.6 C 84.8 23.8 84.3 23.6 83.6 23.6 C 83 23.6 82.5 23.9 82.5 25.6 C 82.5 25.6 84.8 25.6 84.8 25.6 Z M 82.5 26.3 C 82.5 28 82.9 28.4 83.7 28.4 C 84.4 28.4 84.7 27.8 84.7 27.2 C 84.7 27.2 85.8 27.2 85.8 27.2 C 85.8 28.6 85 29.2 83.7 29.2 C 82.4 29.2 81.4 28.8 81.4 26.1 C 81.4 24.3 81.6 22.9 83.7 22.9 C 85.4 22.9 85.9 23.8 85.9 25.8 C 85.87 25.83 85.9 26.3 85.9 26.3 C 85.9 26.3 82.46 26.34 82.5 26.3 Z M 89.6 23.7 C 88.5 23.7 88.4 24.5 88.4 26.1 C 88.4 27.1 88.4 28.4 89.6 28.4 C 90.7 28.4 90.7 27 90.7 25.8 C 90.7 25 90.7 23.7 89.6 23.7 Z M 90.7 20.4 L 91.7 20.4 L 91.7 29.1 L 90.7 29.1 L 90.7 28.3 C 90.7 28.3 90.68 28.34 90.7 28.3 C 90.3 28.9 89.9 29.2 89.3 29.2 C 88.3 29.2 87.3 28.8 87.3 26.1 C 87.3 24.6 87.4 22.9 89.3 22.9 C 89.9 22.9 90.3 23.1 90.7 23.6 C 90.67 23.61 90.7 23.6 90.7 23.6 L 90.7 20.4 Z M 96.3 23 L 96.3 21.8 L 97.3 21.4 L 97.3 23 L 98.6 23 L 98.6 23.7 L 97.3 23.7 C 97.3 23.7 97.26 27.45 97.3 27.4 C 97.3 27.8 97.3 28.3 98.2 28.3 C 98.2 28.3 98.4 28.3 98.6 28.3 C 98.6 28.3 98.6 29 98.6 29 C 98.3 29.1 98 29.1 97.6 29.1 C 96.7 29.1 96.3 28.7 96.3 28 C 96.28 28.05 96.3 23.7 96.3 23.7 L 95.3 23.7 L 95.3 23 L 96.3 23 Z M 100.5 29.1 L 99.5 29.1 L 99.5 23 L 100.5 23 L 100.5 29.1 Z M 99.4 20.4 L 100.5 20.4 L 100.5 21.4 L 99.4 21.4 L 99.4 20.4 Z M 105.1 29.1 C 105.1 29.1 105.14 24.85 105.1 24.9 C 105.1 24.2 105 23.7 104.2 23.7 C 103.9 23.7 103.5 23.9 103.3 24.1 C 103.1 24.4 103.1 24.7 103.1 25 C 103.1 24.98 103.1 29.1 103.1 29.1 L 102.1 29.1 C 102.1 29.1 102.12 24.26 102.1 24.3 C 102.1 23.8 102.1 23.4 102.1 23 C 102.06 23 103.1 23 103.1 23 L 103.1 23.8 C 103.1 23.8 103.13 23.75 103.1 23.8 C 103.4 23.1 103.9 22.9 104.6 22.9 C 105.2 22.9 105.8 23.1 106.1 23.7 C 106.4 23 106.9 22.9 107.5 22.9 C 108.1 22.9 109.1 23 109.1 24.4 C 109.15 24.45 109.1 29.1 109.1 29.1 L 108.2 29.1 C 108.2 29.1 108.17 24.85 108.2 24.9 C 108.2 24.2 108 23.7 107.2 23.7 C 106.8 23.7 106.7 23.7 106.5 23.9 C 106.2 24.1 106.1 24.7 106.1 25 C 106.13 24.97 106.1 29.1 106.1 29.1 L 105.1 29.1 Z M 114.2 25.6 C 114.2 23.8 113.7 23.6 112.9 23.6 C 112.3 23.6 111.8 23.9 111.8 25.6 C 111.8 25.6 114.2 25.6 114.2 25.6 Z M 111.8 26.3 C 111.8 28 112.2 28.4 113 28.4 C 113.7 28.4 114 27.8 114.1 27.2 C 114.1 27.2 115.1 27.2 115.1 27.2 C 115.1 28.6 114.3 29.2 113 29.2 C 111.8 29.2 110.7 28.8 110.7 26.1 C 110.7 24.3 110.9 22.9 113 22.9 C 114.8 22.9 115.2 23.8 115.2 25.8 C 115.2 25.83 115.2 26.3 115.2 26.3 C 115.2 26.3 111.79 26.34 111.8 26.3 Z M 116.6 25.3 L 119.3 25.3 L 119.3 26.2 L 116.6 26.2 L 116.6 25.3 Z M 124.1 29.1 C 124.1 29.1 124.11 24.85 124.1 24.9 C 124.1 24.2 123.9 23.7 123 23.7 C 122 23.7 121.8 24.6 121.8 25.5 C 121.81 25.47 121.8 29.1 121.8 29.1 L 120.8 29.1 C 120.8 29.1 120.83 24.25 120.8 24.3 C 120.8 23.8 120.8 23.4 120.8 23 C 120.77 23 121.8 23 121.8 23 L 121.8 23.8 C 121.8 23.8 121.86 23.77 121.9 23.8 C 122.2 23.1 122.7 22.9 123.5 22.9 C 124.8 22.9 125.1 23.7 125.1 24.9 C 125.1 24.85 125.1 29.1 125.1 29.1 L 124.1 29.1 Z M 130.2 25.7 C 130.2 24 129.7 23.7 129 23.7 C 128.2 23.7 127.7 24 127.7 25.7 C 127.7 27.7 127.9 28.4 129 28.4 C 130 28.4 130.2 27.7 130.2 25.7 Z M 126.7 26.1 C 126.7 24.3 126.9 22.9 129 22.9 C 131.1 22.9 131.3 24.3 131.3 26.1 C 131.3 28.8 130.2 29.2 129 29.2 C 127.7 29.2 126.7 28.8 126.7 26.1 Z M 133.8 23.9 C 133.8 23.9 133.87 23.91 133.9 23.9 C 134.3 23 134.8 22.9 135.7 22.9 C 135.7 22.9 135.7 23.9 135.7 23.9 C 135.7 23.9 135.6 23.9 135.5 23.9 C 135.4 23.8 135.3 23.8 135.2 23.8 C 134.1 23.8 133.8 24.7 133.8 25.5 C 133.85 25.48 133.8 29.1 133.8 29.1 L 132.9 29.1 L 132.9 23 L 133.8 23 L 133.8 23.9 Z M 139.8 29.1 C 139.8 29.1 139.8 24.85 139.8 24.9 C 139.8 24.2 139.6 23.7 138.8 23.7 C 138.5 23.7 138.1 23.9 138 24.1 C 137.8 24.4 137.8 24.7 137.8 25 C 137.76 24.98 137.8 29.1 137.8 29.1 L 136.8 29.1 C 136.8 29.1 136.77 24.26 136.8 24.3 C 136.8 23.8 136.8 23.4 136.7 23 C 136.71 23 137.8 23 137.8 23 L 137.8 23.8 C 137.8 23.8 137.78 23.75 137.8 23.8 C 138.1 23.1 138.6 22.9 139.3 22.9 C 139.8 22.9 140.5 23.1 140.7 23.7 C 141 23 141.6 22.9 142.2 22.9 C 142.8 22.9 143.8 23 143.8 24.4 C 143.81 24.45 143.8 29.1 143.8 29.1 L 142.8 29.1 C 142.8 29.1 142.82 24.85 142.8 24.9 C 142.8 24.2 142.7 23.7 141.9 23.7 C 141.5 23.7 141.4 23.7 141.1 23.9 C 140.8 24.1 140.8 24.7 140.8 25 C 140.78 24.97 140.8 29.1 140.8 29.1 L 139.8 29.1 Z M 146.4 27.3 C 146.4 27.8 146.7 28.4 147.3 28.4 C 147.9 28.4 148.7 28 148.6 26 C 147.6 26.1 146.4 26 146.4 27.3 Z M 148.6 28.2 C 148.6 28.2 148.58 28.18 148.6 28.2 C 148.3 28.9 147.8 29.2 147.1 29.2 C 145.8 29.2 145.4 28.3 145.4 27.2 C 145.4 25.3 147.2 25.3 148.6 25.3 C 148.6 24.5 148.6 23.6 147.6 23.6 C 146.9 23.6 146.6 24.1 146.6 24.7 C 146.6 24.7 145.5 24.7 145.5 24.7 C 145.6 23.3 146.3 22.9 147.6 22.9 C 149.2 22.9 149.6 23.7 149.6 24.7 C 149.6 24.7 149.6 27.6 149.6 27.6 C 149.6 28.1 149.6 28.6 149.7 29.1 C 149.69 29.05 148.6 29.1 148.6 29.1 L 148.6 28.2 Z M 152.4 29.1 L 151.5 29.1 L 151.5 20.4 L 152.4 20.4 L 152.4 29.1 Z M 155.1 29.1 L 154.1 29.1 L 154.1 23 L 155.1 23 L 155.1 29.1 Z M 154.1 20.4 L 155.2 20.4 L 155.2 21.4 L 154.1 21.4 L 154.1 20.4 Z M 160.1 23.9 L 157.4 28.3 L 160.2 28.3 L 160.2 29.1 L 156.4 29.1 L 156.4 28.1 L 159 23.8 L 159 23.8 L 156.5 23.8 L 156.5 23 L 160.1 23 L 160.1 23.9 Z M 164.8 25.6 C 164.8 23.8 164.3 23.6 163.6 23.6 C 163 23.6 162.5 23.9 162.4 25.6 C 162.4 25.6 164.8 25.6 164.8 25.6 Z M 162.4 26.3 C 162.4 28 162.9 28.4 163.7 28.4 C 164.3 28.4 164.7 27.8 164.7 27.2 C 164.7 27.2 165.8 27.2 165.8 27.2 C 165.8 28.6 165 29.2 163.7 29.2 C 162.4 29.2 161.4 28.8 161.4 26.1 C 161.4 24.3 161.6 22.9 163.7 22.9 C 165.4 22.9 165.8 23.8 165.8 25.8 C 165.85 25.83 165.8 26.3 165.8 26.3 C 165.8 26.3 162.44 26.34 162.4 26.3 Z M 169.5 23.7 C 168.5 23.7 168.3 24.5 168.3 26.1 C 168.3 27.1 168.3 28.4 169.6 28.4 C 170.7 28.4 170.7 27 170.7 25.8 C 170.7 25 170.6 23.7 169.5 23.7 Z M 170.7 20.4 L 171.7 20.4 L 171.7 29.1 L 170.7 29.1 L 170.7 28.3 C 170.7 28.3 170.66 28.34 170.7 28.3 C 170.3 28.9 169.9 29.2 169.3 29.2 C 168.3 29.2 167.3 28.8 167.3 26.1 C 167.3 24.6 167.4 22.9 169.3 22.9 C 169.9 22.9 170.3 23.1 170.7 23.6 C 170.65 23.61 170.7 23.6 170.7 23.6 L 170.7 20.4 Z M 177.1 29.1 L 176.1 29.1 L 176.1 20.4 L 177.1 20.4 L 177.1 29.1 Z M 182.1 25.6 C 182.1 23.8 181.6 23.6 180.9 23.6 C 180.3 23.6 179.8 23.9 179.8 25.6 C 179.8 25.6 182.1 25.6 182.1 25.6 Z M 179.8 26.3 C 179.8 28 180.2 28.4 181 28.4 C 181.7 28.4 182 27.8 182 27.2 C 182 27.2 183.1 27.2 183.1 27.2 C 183.1 28.6 182.3 29.2 181 29.2 C 179.7 29.2 178.7 28.8 178.7 26.1 C 178.7 24.3 178.9 22.9 181 22.9 C 182.7 22.9 183.2 23.8 183.2 25.8 C 183.18 25.83 183.2 26.3 183.2 26.3 C 183.2 26.3 179.77 26.34 179.8 26.3 Z M 185.7 27.3 C 185.7 27.8 186 28.4 186.7 28.4 C 187.3 28.4 188 28 187.9 26 C 187 26.1 185.7 26 185.7 27.3 Z M 187.9 28.2 C 187.9 28.2 187.91 28.18 187.9 28.2 C 187.6 28.9 187.1 29.2 186.4 29.2 C 185.1 29.2 184.7 28.3 184.7 27.2 C 184.7 25.3 186.5 25.3 187.9 25.3 C 187.9 24.5 187.9 23.6 186.9 23.6 C 186.2 23.6 185.9 24.1 185.9 24.7 C 185.9 24.7 184.9 24.7 184.9 24.7 C 184.9 23.3 185.6 22.9 186.9 22.9 C 188.5 22.9 188.9 23.7 188.9 24.7 C 188.9 24.7 188.9 27.6 188.9 27.6 C 188.9 28.1 188.9 28.6 189 29.1 C 189.01 29.05 187.9 29.1 187.9 29.1 L 187.9 28.2 Z M 192.6 29.2 C 191.3 29.2 190.5 28.6 190.5 27.2 C 190.5 27.2 191.6 27.2 191.6 27.2 C 191.6 27.6 191.6 28.4 192.6 28.4 C 193.2 28.4 193.7 28.1 193.7 27.4 C 193.7 26.4 190.7 26.3 190.7 24.5 C 190.7 23.9 191 22.9 192.7 22.9 C 193.8 22.9 194.7 23.4 194.7 24.6 C 194.7 24.6 193.6 24.6 193.6 24.6 C 193.6 24 193.2 23.6 192.6 23.6 C 192.1 23.6 191.7 23.9 191.7 24.4 C 191.7 25.5 194.7 25.5 194.7 27.3 C 194.7 28.7 193.8 29.2 192.6 29.2 Z M 196.2 23 L 196.2 21.8 L 197.2 21.4 L 197.2 23 L 198.5 23 L 198.5 23.7 L 197.2 23.7 C 197.2 23.7 197.23 27.45 197.2 27.4 C 197.2 27.8 197.2 28.3 198.1 28.3 C 198.2 28.3 198.4 28.3 198.6 28.3 C 198.6 28.3 198.6 29 198.6 29 C 198.2 29.1 197.9 29.1 197.6 29.1 C 196.7 29.1 196.2 28.7 196.2 28 C 196.25 28.05 196.2 23.7 196.2 23.7 L 195.2 23.7 L 195.2 23 L 196.2 23 Z M 203.9 29.2 C 202.6 29.2 201.8 28.6 201.8 27.2 C 201.8 27.2 203 27.2 203 27.2 C 203 27.6 203 28.4 204 28.4 C 204.5 28.4 205 28.1 205 27.4 C 205 26.4 202 26.3 202 24.5 C 202 23.9 202.4 22.9 204.1 22.9 C 205.1 22.9 206.1 23.4 206 24.6 C 206 24.6 204.9 24.6 204.9 24.6 C 204.9 24 204.6 23.6 203.9 23.6 C 203.4 23.6 203 23.9 203 24.4 C 203 25.5 206 25.5 206 27.3 C 206 28.7 205.1 29.2 203.9 29.2 Z M 210.7 26.3 C 210.7 25.4 210.8 23.7 209.6 23.7 C 208.3 23.7 208.3 25 208.3 25.9 C 208.3 27.5 208.5 28.4 209.5 28.4 C 210.6 28.4 210.7 27.1 210.7 26.3 Z M 210.7 23 L 211.7 23 L 211.7 31.3 L 210.7 31.3 L 210.7 28.4 C 210.7 28.4 210.63 28.44 210.6 28.4 C 210.3 28.9 209.9 29.2 209.3 29.2 C 207.3 29.2 207.3 27.4 207.3 25.9 C 207.3 23.3 208.3 22.9 209.3 22.9 C 209.9 22.9 210.3 23.2 210.6 23.7 C 210.65 23.71 210.7 23.7 210.7 23.7 L 210.7 23 Z M 216.7 23 L 217.7 23 C 217.7 23 217.69 27.8 217.7 27.8 C 217.7 28.2 217.7 28.6 217.7 29.1 C 217.75 29.05 216.7 29.1 216.7 29.1 L 216.7 28.3 C 216.7 28.3 216.67 28.32 216.7 28.3 C 216.3 28.9 215.8 29.2 215.1 29.2 C 214.1 29.2 213.5 28.6 213.5 27.6 C 213.5 27.62 213.5 23 213.5 23 L 214.5 23 C 214.5 23 214.48 27.2 214.5 27.2 C 214.5 27.9 214.8 28.4 215.5 28.4 C 216 28.4 216.7 28 216.7 27 C 216.71 27.02 216.7 23 216.7 23 Z M 220.4 27.3 C 220.4 27.8 220.7 28.4 221.3 28.4 C 221.9 28.4 222.7 28 222.6 26 C 221.6 26.1 220.4 26 220.4 27.3 Z M 222.6 28.2 C 222.6 28.2 222.56 28.18 222.6 28.2 C 222.3 28.9 221.8 29.2 221 29.2 C 219.8 29.2 219.4 28.3 219.4 27.2 C 219.4 25.3 221.2 25.3 222.6 25.3 C 222.6 24.5 222.6 23.6 221.5 23.6 C 220.9 23.6 220.5 24.1 220.6 24.7 C 220.6 24.7 219.5 24.7 219.5 24.7 C 219.6 23.3 220.3 22.9 221.6 22.9 C 223.1 22.9 223.5 23.7 223.5 24.7 C 223.5 24.7 223.5 27.6 223.5 27.6 C 223.5 28.1 223.6 28.6 223.7 29.1 C 223.66 29.05 222.6 29.1 222.6 29.1 L 222.6 28.2 Z M 226.5 23.9 C 226.5 23.9 226.51 23.91 226.5 23.9 C 226.9 23 227.4 22.9 228.4 22.9 C 228.4 22.9 228.4 23.9 228.4 23.9 C 228.3 23.9 228.2 23.9 228.1 23.9 C 228 23.8 227.9 23.8 227.9 23.8 C 226.8 23.8 226.5 24.7 226.5 25.5 C 226.48 25.48 226.5 29.1 226.5 29.1 L 225.5 29.1 L 225.5 23 L 226.5 23 L 226.5 23.9 Z M 232.8 25.6 C 232.8 23.8 232.3 23.6 231.6 23.6 C 230.9 23.6 230.4 23.9 230.4 25.6 C 230.4 25.6 232.8 25.6 232.8 25.6 Z M 230.4 26.3 C 230.4 28 230.9 28.4 231.6 28.4 C 232.3 28.4 232.7 27.8 232.7 27.2 C 232.7 27.2 233.8 27.2 233.8 27.2 C 233.8 28.6 232.9 29.2 231.7 29.2 C 230.4 29.2 229.4 28.8 229.4 26.1 C 229.4 24.3 229.6 22.9 231.7 22.9 C 233.4 22.9 233.8 23.8 233.8 25.8 C 233.83 25.83 233.8 26.3 233.8 26.3 C 233.8 26.3 230.42 26.34 230.4 26.3 Z M 237.5 23.7 C 236.5 23.7 236.3 24.5 236.3 26.1 C 236.3 27.1 236.3 28.4 237.6 28.4 C 238.7 28.4 238.7 27 238.7 25.8 C 238.7 25 238.6 23.7 237.5 23.7 Z M 238.7 20.4 L 239.6 20.4 L 239.6 29.1 L 238.7 29.1 L 238.7 28.3 C 238.7 28.3 238.64 28.34 238.6 28.3 C 238.3 28.9 237.9 29.2 237.2 29.2 C 236.3 29.2 235.3 28.8 235.3 26.1 C 235.3 24.6 235.3 22.9 237.3 22.9 C 237.9 22.9 238.3 23.1 238.6 23.6 C 238.63 23.61 238.7 23.6 238.7 23.6 L 238.7 20.4 Z M 245 30.5 C 244.5 28.8 243.9 27.1 243.9 25.3 C 243.9 23.4 244.5 21.7 245.1 20 C 245.1 20 245.8 20 245.8 20 C 245.3 21.7 245 23.5 245 25.3 C 245 27.1 245.3 28.8 245.7 30.5 C 245.7 30.5 245 30.5 245 30.5 Z M 247.6 29.1 L 247.6 20.4 L 248.7 20.4 L 248.7 28.1 L 251.9 28.1 L 251.9 29.1 L 247.6 29.1 Z M 253.7 26.5 C 253.7 26.5 253.75 26.73 253.7 26.7 C 253.7 27.9 254.5 28.3 255.2 28.3 C 256.1 28.3 256.7 27.9 256.7 26.9 C 256.7 25 252.9 25.2 252.9 22.6 C 252.9 21 254 20.2 255.4 20.2 C 257 20.2 257.9 21 257.8 22.7 C 257.8 22.7 256.7 22.7 256.7 22.7 C 256.7 21.8 256.4 21.2 255.3 21.2 C 254.7 21.2 254 21.5 254 22.4 C 254 24.4 257.9 24.1 257.9 26.8 C 257.9 28.6 256.6 29.2 255.2 29.2 C 252.6 29.3 252.6 27.3 252.7 26.5 C 252.66 26.48 253.7 26.5 253.7 26.5 Z M 259.4 30.5 C 259.8 28.8 260.2 27.1 260.2 25.3 C 260.2 23.5 259.8 21.7 259.4 20 C 259.4 20 260.1 20 260.1 20 C 260.7 21.7 261.3 23.4 261.3 25.3 C 261.3 27.1 260.7 28.8 260.1 30.5 C 260.1 30.5 259.4 30.5 259.4 30.5 Z M 268.4 29.1 C 268.4 29.1 268.44 24.85 268.4 24.9 C 268.4 24.2 268.3 23.7 267.5 23.7 C 267.2 23.7 266.8 23.9 266.6 24.1 C 266.4 24.4 266.4 24.7 266.4 25 C 266.4 24.98 266.4 29.1 266.4 29.1 L 265.4 29.1 C 265.4 29.1 265.41 24.26 265.4 24.3 C 265.4 23.8 265.4 23.4 265.4 23 C 265.35 23 266.4 23 266.4 23 L 266.4 23.8 C 266.4 23.8 266.42 23.75 266.4 23.8 C 266.7 23.1 267.2 22.9 267.9 22.9 C 268.5 22.9 269.1 23.1 269.3 23.7 C 269.7 23 270.2 22.9 270.8 22.9 C 271.4 22.9 272.4 23 272.4 24.4 C 272.44 24.45 272.4 29.1 272.4 29.1 L 271.5 29.1 C 271.5 29.1 271.46 24.85 271.5 24.9 C 271.5 24.2 271.3 23.7 270.5 23.7 C 270.1 23.7 270 23.7 269.8 23.9 C 269.5 24.1 269.4 24.7 269.4 25 C 269.42 24.97 269.4 29.1 269.4 29.1 L 268.4 29.1 Z M 277.4 25.6 C 277.4 23.8 277 23.6 276.2 23.6 C 275.6 23.6 275.1 23.9 275.1 25.6 C 275.1 25.6 277.4 25.6 277.4 25.6 Z M 275.1 26.3 C 275.1 28 275.5 28.4 276.3 28.4 C 277 28.4 277.3 27.8 277.4 27.2 C 277.4 27.2 278.4 27.2 278.4 27.2 C 278.4 28.6 277.6 29.2 276.3 29.2 C 275 29.2 274 28.8 274 26.1 C 274 24.3 274.2 22.9 276.3 22.9 C 278.1 22.9 278.5 23.8 278.5 25.8 C 278.49 25.83 278.5 26.3 278.5 26.3 C 278.5 26.3 275.08 26.34 275.1 26.3 Z M 281 27.3 C 281 27.8 281.3 28.4 282 28.4 C 282.6 28.4 283.3 28 283.2 26 C 282.3 26.1 281 26 281 27.3 Z M 283.2 28.2 C 283.2 28.2 283.22 28.18 283.2 28.2 C 282.9 28.9 282.5 29.2 281.7 29.2 C 280.4 29.2 280 28.3 280 27.2 C 280 25.3 281.8 25.3 283.2 25.3 C 283.2 24.5 283.3 23.6 282.2 23.6 C 281.5 23.6 281.2 24.1 281.3 24.7 C 281.3 24.7 280.2 24.7 280.2 24.7 C 280.2 23.3 281 22.9 282.2 22.9 C 283.8 22.9 284.2 23.7 284.2 24.7 C 284.2 24.7 284.2 27.6 284.2 27.6 C 284.2 28.1 284.3 28.6 284.3 29.1 C 284.32 29.05 283.2 29.1 283.2 29.1 L 283.2 28.2 Z M 289.4 29.1 C 289.4 29.1 289.41 24.85 289.4 24.9 C 289.4 24.2 289.2 23.7 288.3 23.7 C 287.3 23.7 287.1 24.6 287.1 25.5 C 287.11 25.47 287.1 29.1 287.1 29.1 L 286.1 29.1 C 286.1 29.1 286.12 24.25 286.1 24.3 C 286.1 23.8 286.1 23.4 286.1 23 C 286.06 23 287.1 23 287.1 23 L 287.1 23.8 C 287.1 23.8 287.15 23.77 287.2 23.8 C 287.5 23.1 288 22.9 288.8 22.9 C 290.1 22.9 290.4 23.7 290.4 24.9 C 290.39 24.85 290.4 29.1 290.4 29.1 L 289.4 29.1 Z M 293.2 24.2 L 292 24.2 L 292 23 L 293.2 23 L 293.2 24.2 Z M 293.2 29.1 L 292 29.1 L 292 27.8 L 293.2 27.8 L 293.2 29.1 Z M 301.5 24.9 C 301.5 27.1 301.5 29.2 299.3 29.2 C 297 29.2 297 27.1 297 24.9 C 297 22.7 297 20.6 299.3 20.6 C 301.5 20.6 301.5 22.7 301.5 24.9 Z M 298.1 25.1 C 298.1 26.5 298 28.3 299.3 28.3 C 300.5 28.3 300.4 26.5 300.4 25.1 C 300.4 22.9 300.4 21.5 299.3 21.5 C 298.1 21.5 298.1 22.9 298.1 25.1 Z M 303.8 29.1 L 302.7 29.1 L 302.7 27.8 L 303.8 27.8 L 303.8 29.1 Z M 305.1 29.1 C 305.1 29.1 305.1 28.1 305.1 28.1 C 307.5 24.7 308.3 24.1 308.3 22.6 C 308.3 22 307.9 21.5 307.2 21.5 C 306.4 21.5 306.2 22.2 306.2 22.9 C 306.2 22.9 305.1 22.9 305.1 22.9 C 305 21.5 305.7 20.6 307.1 20.6 C 308.6 20.6 309.4 21.3 309.4 22.8 C 309.4 24.6 308.4 25.3 306.3 28.1 C 306.27 28.1 309.6 28.1 309.6 28.1 L 309.6 29.1 L 305.1 29.1 Z M 310.4 29.1 C 310.4 29.1 310.42 28.1 310.4 28.1 C 312.9 24.7 313.6 24.1 313.6 22.6 C 313.6 22 313.3 21.5 312.5 21.5 C 311.7 21.5 311.6 22.2 311.6 22.9 C 311.6 22.9 310.4 22.9 310.4 22.9 C 310.4 21.5 311 20.6 312.5 20.6 C 314 20.6 314.7 21.3 314.7 22.8 C 314.7 24.6 313.7 25.3 311.6 28.1 C 311.6 28.1 314.9 28.1 314.9 28.1 L 314.9 29.1 L 310.4 29.1 Z M 318.7 30.5 L 318.7 20 L 320.7 20 L 320.7 20.7 L 319.7 20.7 L 319.7 29.8 L 320.8 29.8 L 320.8 30.5 L 318.7 30.5 Z M 322.8 23.1 C 322.8 24 322.9 24.9 323.9 24.9 C 324.8 24.9 325 24 325 23.1 C 325 22.4 324.8 21.4 323.9 21.4 C 322.9 21.4 322.8 22.4 322.8 23.1 Z M 326.1 24.9 C 326.1 27.1 326.1 29.2 323.9 29.2 C 322.6 29.2 321.8 28.4 321.8 27.1 C 321.8 27.1 322.9 27.1 322.9 27.1 C 322.9 27.7 323.2 28.3 323.9 28.3 C 325 28.3 325 27.1 325 25 C 325 25 325 25 325 25 C 324.7 25.6 324.2 25.8 323.6 25.8 C 322.9 25.8 321.7 25.4 321.7 23.2 C 321.7 21.3 322.8 20.6 323.9 20.6 C 326.2 20.6 326.1 22.7 326.1 24.9 Z M 331.2 20.7 L 331.2 21.7 L 328.4 21.7 L 328.4 24.1 C 328.4 24.1 328.4 24.13 328.4 24.1 C 328.6 23.8 329.2 23.5 329.7 23.5 C 330.9 23.5 331.5 24.4 331.5 26.3 C 331.5 27.7 331.3 29.2 329.2 29.2 C 327.5 29.2 327.2 28.3 327.2 27.2 C 327.2 27.2 328.3 27.2 328.3 27.2 C 328.3 27.8 328.5 28.4 329.2 28.4 C 330.3 28.4 330.4 27.4 330.4 26.6 C 330.4 25.4 330.3 24.4 329.3 24.4 C 328.7 24.4 328.4 24.9 328.3 25.4 C 328.27 25.41 327.3 25.4 327.3 25.4 L 327.3 20.7 L 331.2 20.7 Z M 335.8 22.5 C 335.8 23.7 335.7 24.8 334.3 24.8 C 332.8 24.8 332.7 23.7 332.7 22.5 C 332.7 21.4 332.8 20.2 334.3 20.2 C 335.7 20.2 335.8 21.4 335.8 22.5 Z M 333.6 22.5 C 333.6 23.6 333.6 24.1 334.3 24.1 C 335 24.1 335 23.6 335 22.5 C 335 21.4 335 20.9 334.3 20.9 C 333.6 20.9 333.6 21.4 333.6 22.5 Z M 340.4 27 C 340.4 28.1 340.3 29.2 338.8 29.2 C 337.4 29.2 337.3 28.1 337.3 27 C 337.3 25.8 337.4 24.7 338.8 24.7 C 340.3 24.7 340.4 25.8 340.4 27 Z M 338.1 26.9 C 338.1 28 338.1 28.6 338.8 28.6 C 339.5 28.6 339.5 28 339.5 26.9 C 339.5 25.9 339.5 25.3 338.8 25.3 C 338.1 25.3 338.1 25.9 338.1 26.9 Z M 334.9 29.5 L 334.1 29.5 L 338.2 20 L 339 20 L 334.9 29.5 Z M 348.7 22.8 C 348.7 22.3 348.7 21.8 348.4 21.5 C 348.2 21.2 347.7 21.1 347.5 21.1 C 346.5 21.1 346.2 21.7 346.1 21.8 C 346.1 21.9 345.9 22.1 345.9 23.6 C 345.9 23.6 345.9 25.9 345.9 25.9 C 345.9 28.1 346.6 28.3 347.4 28.3 C 347.8 28.3 348.8 28.2 348.8 26.5 C 348.8 26.5 349.9 26.5 349.9 26.5 C 350 29.2 348.1 29.2 347.5 29.2 C 346.4 29.2 344.8 29.2 344.8 25.8 C 344.8 25.8 344.8 23.4 344.8 23.4 C 344.8 20.9 345.8 20.2 347.5 20.2 C 349.3 20.2 349.9 21.1 349.8 22.8 C 349.8 22.8 348.7 22.8 348.7 22.8 Z M 352.8 29.1 L 351.7 29.1 L 351.7 20.4 L 352.8 20.4 L 352.8 29.1 Z M 361.5 24.9 C 361.5 27.1 361.5 29.2 359.2 29.2 C 357 29.2 357 27.1 357 24.9 C 357 22.7 356.9 20.6 359.2 20.6 C 361.5 20.6 361.5 22.7 361.5 24.9 Z M 358.1 25.1 C 358.1 26.5 358 28.3 359.2 28.3 C 360.5 28.3 360.4 26.5 360.4 25.1 C 360.4 22.9 360.4 21.5 359.2 21.5 C 358.1 21.5 358.1 22.9 358.1 25.1 Z M 363.8 29.1 L 362.7 29.1 L 362.7 27.8 L 363.8 27.8 L 363.8 29.1 Z M 368 29.1 L 366.9 29.1 L 366.9 21.9 L 365.7 22.8 C 365.7 22.8 365.67 21.72 365.7 21.7 C 365.9 21.6 366.7 21 367.1 20.7 C 367.07 20.73 368 20.7 368 20.7 L 368 29.1 Z M 373.3 29.1 L 372.2 29.1 L 372.2 21.9 L 371 22.8 C 371 22.8 371 21.72 371 21.7 C 371.3 21.6 372.1 21 372.4 20.7 C 372.4 20.73 373.3 20.7 373.3 20.7 L 373.3 29.1 Z M 376.2 27.8 L 377.5 27.8 L 376.4 30.6 L 375.6 30.6 L 376.2 27.8 Z M 385.4 24.9 C 385.4 27.1 385.5 29.2 383.2 29.2 C 380.9 29.2 381 27.1 381 24.9 C 381 22.7 380.9 20.6 383.2 20.6 C 385.5 20.6 385.4 22.7 385.4 24.9 Z M 382.1 25.1 C 382.1 26.5 382 28.3 383.2 28.3 C 384.4 28.3 384.3 26.5 384.3 25.1 C 384.3 22.9 384.3 21.5 383.2 21.5 C 382.1 21.5 382.1 22.9 382.1 25.1 Z M 387.8 29.1 L 386.6 29.1 L 386.6 27.8 L 387.8 27.8 L 387.8 29.1 Z M 391.6 26.1 L 391.6 21.7 L 391.6 21.7 L 389.8 26.1 L 391.6 26.1 Z M 388.8 27 L 388.8 26.1 L 391.2 20.7 L 392.6 20.7 L 392.6 26.1 L 393.6 26.1 L 393.6 27 L 392.6 27 L 392.6 29.1 L 391.6 29.1 L 391.6 27 L 388.8 27 Z M 394.2 20.7 L 398.5 20.7 L 398.5 21.7 L 396.3 29.1 L 395.1 29.1 L 397.4 21.7 L 394.2 21.7 L 394.2 20.7 Z M 399.7 30.5 L 399.7 29.8 L 400.7 29.8 L 400.7 20.7 L 399.7 20.7 L 399.7 20 L 401.7 20 L 401.7 30.5 L 399.7 30.5 Z M 405.4 23 L 406.5 23 L 407.8 28.1 L 407.8 28.1 L 409.3 23 L 410.3 23 L 408.4 29.1 L 407.2 29.1 L 405.4 23 Z M 413.2 29.2 C 411.9 29.2 411 28.6 411.1 27.2 C 411.1 27.2 412.2 27.2 412.2 27.2 C 412.2 27.6 412.2 28.4 413.2 28.4 C 413.8 28.4 414.2 28.1 414.2 27.4 C 414.2 26.4 411.2 26.3 411.2 24.5 C 411.2 23.9 411.6 22.9 413.3 22.9 C 414.4 22.9 415.3 23.4 415.2 24.6 C 415.2 24.6 414.1 24.6 414.1 24.6 C 414.1 24 413.8 23.6 413.2 23.6 C 412.7 23.6 412.3 23.9 412.3 24.4 C 412.3 25.5 415.3 25.5 415.3 27.3 C 415.3 28.7 414.4 29.2 413.2 29.2 Z M 417.7 29.1 L 416.6 29.1 L 416.6 27.8 L 417.7 27.8 L 417.7 29.1 Z M 425.4 25.9 C 425.4 25 425.4 23.7 424.2 23.7 C 423 23.7 423.1 25.4 423.1 26.3 C 423.1 27.1 423.1 28.4 424.2 28.4 C 425.3 28.4 425.4 27.5 425.4 25.9 Z M 423.1 23.7 C 423.1 23.7 423.12 23.71 423.1 23.7 C 423.5 23.2 423.9 22.9 424.5 22.9 C 425.5 22.9 426.5 23.3 426.5 25.9 C 426.5 27.4 426.4 29.2 424.5 29.2 C 423.9 29.2 423.5 28.9 423.1 28.4 C 423.13 28.44 423.1 28.4 423.1 28.4 L 423.1 31.3 L 422.1 31.3 L 422.1 23 L 423.1 23 L 423.1 23.7 Z M 429 29.1 L 428 29.1 L 428 20.4 L 429 20.4 L 429 29.1 Z M 431.6 27.3 C 431.6 27.8 431.9 28.4 432.5 28.4 C 433.1 28.4 433.9 28 433.8 26 C 432.9 26.1 431.6 26 431.6 27.3 Z M 433.8 28.2 C 433.8 28.2 433.79 28.18 433.8 28.2 C 433.5 28.9 433 29.2 432.3 29.2 C 431 29.2 430.6 28.3 430.6 27.2 C 430.6 25.3 432.4 25.3 433.8 25.3 C 433.8 24.5 433.8 23.6 432.8 23.6 C 432.1 23.6 431.8 24.1 431.8 24.7 C 431.8 24.7 430.8 24.7 430.8 24.7 C 430.8 23.3 431.5 22.9 432.8 22.9 C 434.4 22.9 434.8 23.7 434.8 24.7 C 434.8 24.7 434.8 27.6 434.8 27.6 C 434.8 28.1 434.8 28.6 434.9 29.1 C 434.89 29.05 433.8 29.1 433.8 29.1 L 433.8 28.2 Z M 439.9 24.9 C 439.9 23.9 439.4 23.7 439 23.7 C 438.3 23.7 437.7 24 437.7 25.7 C 437.7 27.7 438 28.4 439 28.4 C 439.3 28.4 439.9 28.1 439.9 27 C 439.9 27 440.9 27 440.9 27 C 441 28.7 439.7 29.2 439 29.2 C 437.7 29.2 436.7 28.8 436.7 26.1 C 436.7 24.3 436.9 22.9 439 22.9 C 440.2 22.9 440.9 23.6 440.9 24.9 C 440.9 24.9 439.9 24.9 439.9 24.9 Z M 446 25.6 C 446 23.8 445.5 23.6 444.8 23.6 C 444.2 23.6 443.7 23.9 443.7 25.6 C 443.7 25.6 446 25.6 446 25.6 Z M 443.7 26.3 C 443.7 28 444.1 28.4 444.9 28.4 C 445.6 28.4 445.9 27.8 445.9 27.2 C 445.9 27.2 447 27.2 447 27.2 C 447 28.6 446.2 29.2 444.9 29.2 C 443.6 29.2 442.6 28.8 442.6 26.1 C 442.6 24.3 442.8 22.9 444.9 22.9 C 446.6 22.9 447.1 23.8 447.1 25.8 C 447.06 25.83 447.1 26.3 447.1 26.3 C 447.1 26.3 443.65 26.34 443.7 26.3 Z M 450.9 28.4 C 452.1 28.4 452.1 27.1 452.1 26.1 C 452.1 24.5 452 23.7 450.9 23.7 C 449.8 23.7 449.8 25 449.8 25.8 C 449.8 26.7 449.7 28.4 450.9 28.4 Z M 449.8 29.1 L 448.8 29.1 L 448.8 20.4 L 449.8 20.4 L 449.8 23.6 C 449.8 23.6 449.8 23.61 449.8 23.6 C 450.1 23.1 450.6 22.9 451.1 22.9 C 453.1 22.9 453.1 24.6 453.1 26.1 C 453.1 28.8 452.2 29.2 451.2 29.2 C 450.5 29.2 450.1 28.9 449.8 28.3 C 449.79 28.34 449.8 28.3 449.8 28.3 L 449.8 29.1 Z M 458.1 25.7 C 458.1 24 457.6 23.7 456.8 23.7 C 456.1 23.7 455.6 24 455.6 25.7 C 455.6 27.7 455.8 28.4 456.8 28.4 C 457.9 28.4 458.1 27.7 458.1 25.7 Z M 454.5 26.1 C 454.5 24.3 454.7 22.9 456.8 22.9 C 458.9 22.9 459.1 24.3 459.1 26.1 C 459.1 28.8 458.1 29.2 456.8 29.2 C 455.5 29.2 454.5 28.8 454.5 26.1 Z M 460.9 27.8 L 462.1 27.8 L 461 30.6 L 460.2 30.6 L 460.9 27.8 Z M 465.7 29.1 C 465.7 29.1 465.68 28.1 465.7 28.1 C 468.1 24.7 468.8 24.1 468.8 22.6 C 468.8 22 468.5 21.5 467.8 21.5 C 467 21.5 466.8 22.2 466.8 22.9 C 466.8 22.9 465.7 22.9 465.7 22.9 C 465.6 21.5 466.3 20.6 467.7 20.6 C 469.2 20.6 469.9 21.3 469.9 22.8 C 469.9 24.6 469 25.3 466.8 28.1 C 466.85 28.1 470.1 28.1 470.1 28.1 L 470.1 29.1 L 465.7 29.1 Z M 472.4 29.1 L 471.3 29.1 L 471.3 27.8 L 472.4 27.8 L 472.4 29.1 Z M 478.1 24.9 C 478.1 27.1 478.1 29.2 475.8 29.2 C 473.6 29.2 473.6 27.1 473.6 24.9 C 473.6 22.7 473.5 20.6 475.8 20.6 C 478.1 20.6 478.1 22.7 478.1 24.9 Z M 474.7 25.1 C 474.7 26.5 474.6 28.3 475.8 28.3 C 477 28.3 477 26.5 477 25.1 C 477 22.9 476.9 21.5 475.8 21.5 C 474.7 21.5 474.7 22.9 474.7 25.1 Z M 478.8 20.7 L 483.1 20.7 L 483.1 21.7 L 480.9 29.1 L 479.7 29.1 L 482 21.7 L 478.8 21.7 L 478.8 20.7 Z M 487.3 30.5 L 487.3 20 L 489.3 20 L 489.3 20.7 L 488.3 20.7 L 488.3 29.8 L 489.3 29.8 L 489.3 30.5 L 487.3 30.5 Z M 491.3 23.1 C 491.3 24 491.5 24.9 492.5 24.9 C 493.4 24.9 493.6 24 493.6 23.1 C 493.6 22.4 493.4 21.4 492.5 21.4 C 491.5 21.4 491.3 22.4 491.3 23.1 Z M 494.7 24.9 C 494.7 27.1 494.7 29.2 492.5 29.2 C 491.2 29.2 490.4 28.4 490.4 27.1 C 490.4 27.1 491.5 27.1 491.5 27.1 C 491.5 27.7 491.7 28.3 492.5 28.3 C 493.5 28.3 493.6 27.1 493.6 25 C 493.6 25 493.6 25 493.6 25 C 493.3 25.6 492.8 25.8 492.1 25.8 C 491.5 25.8 490.2 25.4 490.2 23.2 C 490.2 21.3 491.4 20.6 492.5 20.6 C 494.7 20.6 494.7 22.7 494.7 24.9 Z M 499.7 20.7 L 499.7 21.7 L 496.9 21.7 L 496.9 24.1 C 496.9 24.1 496.97 24.13 497 24.1 C 497.1 23.8 497.7 23.5 498.3 23.5 C 499.5 23.5 500 24.4 500 26.3 C 500 27.7 499.9 29.2 497.8 29.2 C 496 29.2 495.7 28.3 495.7 27.2 C 495.7 27.2 496.8 27.2 496.8 27.2 C 496.8 27.8 497.1 28.4 497.8 28.4 C 498.9 28.4 498.9 27.4 498.9 26.6 C 498.9 25.4 498.9 24.4 497.9 24.4 C 497.3 24.4 496.9 24.9 496.8 25.4 C 496.84 25.41 495.8 25.4 495.8 25.4 L 495.8 20.7 L 499.7 20.7 Z M 504.4 22.5 C 504.4 23.7 504.3 24.8 502.8 24.8 C 501.4 24.8 501.3 23.7 501.3 22.5 C 501.3 21.4 501.4 20.2 502.8 20.2 C 504.3 20.2 504.4 21.4 504.4 22.5 Z M 502.1 22.5 C 502.1 23.6 502.1 24.1 502.8 24.1 C 503.5 24.1 503.5 23.6 503.5 22.5 C 503.5 21.4 503.5 20.9 502.8 20.9 C 502.1 20.9 502.1 21.4 502.1 22.5 Z M 508.9 27 C 508.9 28.1 508.9 29.2 507.4 29.2 C 506 29.2 505.9 28.1 505.9 27 C 505.9 25.8 506 24.7 507.4 24.7 C 508.9 24.7 508.9 25.8 508.9 27 Z M 506.7 26.9 C 506.7 28 506.7 28.6 507.4 28.6 C 508.1 28.6 508.1 28 508.1 26.9 C 508.1 25.9 508.1 25.3 507.4 25.3 C 506.7 25.3 506.7 25.9 506.7 26.9 Z M 503.4 29.5 L 502.7 29.5 L 506.8 20 L 507.6 20 L 503.4 29.5 Z M 517.2 22.8 C 517.3 22.3 517.2 21.8 517 21.5 C 516.8 21.2 516.3 21.1 516 21.1 C 515.1 21.1 514.8 21.7 514.7 21.8 C 514.7 21.9 514.5 22.1 514.5 23.6 C 514.5 23.6 514.5 25.9 514.5 25.9 C 514.5 28.1 515.2 28.3 516 28.3 C 516.3 28.3 517.4 28.2 517.4 26.5 C 517.4 26.5 518.5 26.5 518.5 26.5 C 518.6 29.2 516.6 29.2 516.1 29.2 C 515 29.2 513.3 29.2 513.3 25.8 C 513.3 25.8 513.3 23.4 513.3 23.4 C 513.3 20.9 514.4 20.2 516.1 20.2 C 517.8 20.2 518.5 21.1 518.4 22.8 C 518.4 22.8 517.2 22.8 517.2 22.8 Z M 521.4 29.1 L 520.2 29.1 L 520.2 20.4 L 521.4 20.4 L 521.4 29.1 Z M 528.6 29.1 L 527.5 29.1 L 527.5 21.9 L 526.2 22.8 C 526.2 22.8 526.25 21.72 526.2 21.7 C 526.5 21.6 527.3 21 527.7 20.7 C 527.65 20.73 528.6 20.7 528.6 20.7 L 528.6 29.1 Z M 532.4 29.1 L 531.2 29.1 L 531.2 27.8 L 532.4 27.8 L 532.4 29.1 Z M 536.2 26.1 L 536.2 21.7 L 536.2 21.7 L 534.4 26.1 L 536.2 26.1 Z M 533.4 27 L 533.4 26.1 L 535.8 20.7 L 537.2 20.7 L 537.2 26.1 L 538.2 26.1 L 538.2 27 L 537.2 27 L 537.2 29.1 L 536.2 29.1 L 536.2 27 L 533.4 27 Z M 540 23.1 C 540 24 540.1 24.9 541.1 24.9 C 542.1 24.9 542.2 24 542.2 23.1 C 542.2 22.4 542.1 21.4 541.1 21.4 C 540.2 21.4 540 22.4 540 23.1 Z M 543.3 24.9 C 543.3 27.1 543.4 29.2 541.1 29.2 C 539.9 29.2 539 28.4 539.1 27.1 C 539.1 27.1 540.2 27.1 540.2 27.1 C 540.2 27.7 540.4 28.3 541.1 28.3 C 542.2 28.3 542.2 27.1 542.2 25 C 542.2 25 542.2 25 542.2 25 C 542 25.6 541.4 25.8 540.8 25.8 C 540.1 25.8 538.9 25.4 538.9 23.2 C 538.9 21.3 540 20.6 541.1 20.6 C 543.4 20.6 543.3 22.7 543.3 24.9 Z M 544.8 27.8 L 546 27.8 L 545 30.6 L 544.2 30.6 L 544.8 27.8 Z M 549.6 29.1 C 549.6 29.1 549.62 28.1 549.6 28.1 C 552.1 24.7 552.8 24.1 552.8 22.6 C 552.8 22 552.5 21.5 551.7 21.5 C 550.9 21.5 550.8 22.2 550.8 22.9 C 550.8 22.9 549.6 22.9 549.6 22.9 C 549.6 21.5 550.2 20.6 551.7 20.6 C 553.2 20.6 553.9 21.3 553.9 22.8 C 553.9 24.6 552.9 25.3 550.8 28.1 C 550.8 28.1 554.1 28.1 554.1 28.1 L 554.1 29.1 L 549.6 29.1 Z M 556.3 29.1 L 555.2 29.1 L 555.2 27.8 L 556.3 27.8 L 556.3 29.1 Z M 560.9 26.8 C 560.9 26.1 560.8 25.1 559.8 25.1 C 558.7 25.1 558.6 26.1 558.6 26.8 C 558.6 27.5 558.9 28.3 559.8 28.3 C 560.6 28.3 560.9 27.5 560.9 26.8 Z M 560.4 24.7 C 561.7 24.8 562 25.7 562 26.8 C 562 28.3 561.2 29.2 559.8 29.2 C 558.3 29.2 557.5 28.3 557.5 26.8 C 557.5 25.7 557.9 24.8 559.1 24.7 C 559.1 24.7 559.1 24.6 559.1 24.6 C 558.1 24.4 557.6 23.6 557.6 22.7 C 557.6 21.4 558.5 20.6 559.8 20.6 C 561.1 20.6 561.9 21.4 561.9 22.7 C 561.9 23.6 561.4 24.4 560.4 24.6 C 560.4 24.6 560.4 24.7 560.4 24.7 Z M 560.8 22.6 C 560.8 22 560.5 21.4 559.8 21.4 C 559.1 21.4 558.7 22 558.7 22.6 C 558.7 23.3 558.9 24.2 559.8 24.2 C 560.6 24.2 560.8 23.3 560.8 22.6 Z M 562.8 20.7 L 567.1 20.7 L 567.1 21.7 L 564.9 29.1 L 563.6 29.1 L 566 21.7 L 562.8 21.7 L 562.8 20.7 Z M 568.2 30.5 L 568.2 29.8 L 569.3 29.8 L 569.3 20.7 L 568.3 20.7 L 568.3 20 L 570.3 20 L 570.3 30.5 L 568.2 30.5 Z M 572.1 27.8 L 573.4 27.8 L 572.3 30.6 L 571.5 30.6 L 572.1 27.8 Z M 580.2 26.8 C 580.2 26.1 580.1 25.1 579.1 25.1 C 578 25.1 578 26.1 578 26.8 C 578 27.5 578.3 28.3 579.1 28.3 C 579.9 28.3 580.2 27.5 580.2 26.8 Z M 579.8 24.7 C 581 24.8 581.3 25.7 581.3 26.8 C 581.3 28.3 580.5 29.2 579.1 29.2 C 577.6 29.2 576.9 28.3 576.9 26.8 C 576.9 25.7 577.2 24.8 578.4 24.7 C 578.4 24.7 578.4 24.6 578.4 24.6 C 577.4 24.4 576.9 23.6 576.9 22.7 C 576.9 21.4 577.8 20.6 579.1 20.6 C 580.4 20.6 581.2 21.4 581.2 22.7 C 581.2 23.6 580.8 24.4 579.8 24.6 C 579.8 24.6 579.8 24.7 579.8 24.7 Z M 580.1 22.6 C 580.1 22 579.8 21.4 579.1 21.4 C 578.4 21.4 578 22 578 22.6 C 578 23.3 578.3 24.2 579.1 24.2 C 579.9 24.2 580.1 23.3 580.1 22.6 Z M 583.3 23.1 C 583.3 24 583.4 24.9 584.4 24.9 C 585.4 24.9 585.5 24 585.5 23.1 C 585.5 22.4 585.3 21.4 584.4 21.4 C 583.4 21.4 583.3 22.4 583.3 23.1 Z M 586.6 24.9 C 586.6 27.1 586.7 29.2 584.4 29.2 C 583.2 29.2 582.3 28.4 582.3 27.1 C 582.3 27.1 583.4 27.1 583.4 27.1 C 583.4 27.7 583.7 28.3 584.4 28.3 C 585.5 28.3 585.5 27.1 585.5 25 C 585.5 25 585.5 25 585.5 25 C 585.3 25.6 584.7 25.8 584.1 25.8 C 583.4 25.8 582.2 25.4 582.2 23.2 C 582.2 21.3 583.3 20.6 584.4 20.6 C 586.7 20.6 586.6 22.7 586.6 24.9 Z M 591 22.5 C 591 23.7 590.9 24.8 589.5 24.8 C 588 24.8 587.9 23.7 587.9 22.5 C 587.9 21.4 588 20.2 589.5 20.2 C 590.9 20.2 591 21.4 591 22.5 Z M 588.8 22.5 C 588.8 23.6 588.8 24.1 589.5 24.1 C 590.1 24.1 590.1 23.6 590.1 22.5 C 590.1 21.4 590.1 20.9 589.5 20.9 C 588.8 20.9 588.8 21.4 588.8 22.5 Z M 595.6 27 C 595.6 28.1 595.5 29.2 594 29.2 C 592.6 29.2 592.5 28.1 592.5 27 C 592.5 25.8 592.6 24.7 594 24.7 C 595.5 24.7 595.6 25.8 595.6 27 Z M 593.3 26.9 C 593.3 28 593.3 28.6 594 28.6 C 594.7 28.6 594.7 28 594.7 26.9 C 594.7 25.9 594.7 25.3 594 25.3 C 593.3 25.3 593.3 25.9 593.3 26.9 Z M 590.1 29.5 L 589.3 29.5 L 593.4 20 L 594.2 20 L 590.1 29.5 Z M 601 23.9 C 601 23.9 600.98 23.91 601 23.9 C 601.4 23 601.9 22.9 602.9 22.9 C 602.9 22.9 602.9 23.9 602.9 23.9 C 602.8 23.9 602.7 23.9 602.6 23.9 C 602.5 23.8 602.4 23.8 602.3 23.8 C 601.2 23.8 601 24.7 601 25.5 C 600.96 25.48 601 29.1 601 29.1 L 600 29.1 L 600 23 L 601 23 L 601 23.9 Z M 607.3 25.6 C 607.3 23.8 606.8 23.6 606 23.6 C 605.4 23.6 604.9 23.9 604.9 25.6 C 604.9 25.6 607.3 25.6 607.3 25.6 Z M 604.9 26.3 C 604.9 28 605.3 28.4 606.1 28.4 C 606.8 28.4 607.1 27.8 607.2 27.2 C 607.2 27.2 608.3 27.2 608.3 27.2 C 608.2 28.6 607.4 29.2 606.1 29.2 C 604.9 29.2 603.8 28.8 603.8 26.1 C 603.8 24.3 604 22.9 606.1 22.9 C 607.9 22.9 608.3 23.8 608.3 25.8 C 608.3 25.83 608.3 26.3 608.3 26.3 C 608.3 26.3 604.89 26.34 604.9 26.3 Z M 612 23.7 C 610.9 23.7 610.8 24.5 610.8 26.1 C 610.8 27.1 610.8 28.4 612 28.4 C 613.1 28.4 613.1 27 613.1 25.8 C 613.1 25 613.1 23.7 612 23.7 Z M 613.1 20.4 L 614.1 20.4 L 614.1 29.1 L 613.1 29.1 L 613.1 28.3 C 613.1 28.3 613.11 28.34 613.1 28.3 C 612.8 28.9 612.4 29.2 611.7 29.2 C 610.7 29.2 609.8 28.8 609.8 26.1 C 609.8 24.6 609.8 22.9 611.8 22.9 C 612.3 22.9 612.8 23.1 613.1 23.6 C 613.1 23.61 613.1 23.6 613.1 23.6 L 613.1 20.4 Z M 619.2 23 L 620.2 23 C 620.2 23 620.16 27.8 620.2 27.8 C 620.2 28.2 620.2 28.6 620.2 29.1 C 620.22 29.05 619.2 29.1 619.2 29.1 L 619.2 28.3 C 619.2 28.3 619.14 28.32 619.1 28.3 C 618.8 28.9 618.2 29.2 617.6 29.2 C 616.5 29.2 616 28.6 616 27.6 C 615.97 27.62 616 23 616 23 L 617 23 C 617 23 616.95 27.2 617 27.2 C 617 27.9 617.3 28.4 618 28.4 C 618.5 28.4 619.2 28 619.2 27 C 619.17 27.02 619.2 23 619.2 23 Z M 625.1 24.9 C 625.1 23.9 624.6 23.7 624.3 23.7 C 623.5 23.7 623 24 623 25.7 C 623 27.7 623.2 28.4 624.3 28.4 C 624.5 28.4 625.2 28.1 625.1 27 C 625.1 27 626.2 27 626.2 27 C 626.2 28.7 624.9 29.2 624.3 29.2 C 623 29.2 622 28.8 622 26.1 C 622 24.3 622.2 22.9 624.3 22.9 C 625.5 22.9 626.2 23.6 626.1 24.9 C 626.1 24.9 625.1 24.9 625.1 24.9 Z M 628 23 L 628 21.8 L 629 21.4 L 629 23 L 630.3 23 L 630.3 23.7 L 629 23.7 C 629 23.7 629.03 27.45 629 27.4 C 629 27.8 629 28.3 629.9 28.3 C 630 28.3 630.2 28.3 630.4 28.3 C 630.4 28.3 630.4 29 630.4 29 C 630 29.1 629.7 29.1 629.4 29.1 C 628.5 29.1 628 28.7 628 28 C 628.04 28.05 628 23.7 628 23.7 L 627 23.7 L 627 23 L 628 23 Z M 632.2 29.1 L 631.2 29.1 L 631.2 23 L 632.2 23 L 632.2 29.1 Z M 631.2 20.4 L 632.3 20.4 L 632.3 21.4 L 631.2 21.4 L 631.2 20.4 Z M 637.3 25.7 C 637.3 24 636.8 23.7 636.1 23.7 C 635.3 23.7 634.8 24 634.8 25.7 C 634.8 27.7 635 28.4 636.1 28.4 C 637.1 28.4 637.3 27.7 637.3 25.7 Z M 633.8 26.1 C 633.8 24.3 634 22.9 636.1 22.9 C 638.2 22.9 638.4 24.3 638.4 26.1 C 638.4 28.8 637.4 29.2 636.1 29.2 C 634.8 29.2 633.8 28.8 633.8 26.1 Z M 643.2 29.1 C 643.2 29.1 643.22 24.85 643.2 24.9 C 643.2 24.2 643 23.7 642.2 23.7 C 641.1 23.7 640.9 24.6 640.9 25.5 C 640.92 25.47 640.9 29.1 640.9 29.1 L 639.9 29.1 C 639.9 29.1 639.93 24.25 639.9 24.3 C 639.9 23.8 639.9 23.4 639.9 23 C 639.87 23 640.9 23 640.9 23 L 640.9 23.8 C 640.9 23.8 640.97 23.77 641 23.8 C 641.3 23.1 641.8 22.9 642.6 22.9 C 643.9 22.9 644.2 23.7 644.2 24.9 C 644.21 24.85 644.2 29.1 644.2 29.1 L 643.2 29.1 Z M 646.1 27.8 L 647.3 27.8 L 646.2 30.6 L 645.5 30.6 L 646.1 27.8 Z M 647 24.2 L 645.8 24.2 L 645.8 23 L 647 23 L 647 24.2 Z M 654.7 25.9 C 654.7 25 654.7 23.7 653.4 23.7 C 652.2 23.7 652.3 25.4 652.3 26.3 C 652.3 27.1 652.4 28.4 653.5 28.4 C 654.5 28.4 654.7 27.5 654.7 25.9 Z M 652.3 23.7 C 652.3 23.7 652.35 23.71 652.4 23.7 C 652.7 23.2 653.1 22.9 653.7 22.9 C 654.7 22.9 655.7 23.3 655.7 25.9 C 655.7 27.4 655.7 29.2 653.7 29.2 C 653.1 29.2 652.7 28.9 652.4 28.4 C 652.36 28.44 652.3 28.4 652.3 28.4 L 652.3 31.3 L 651.3 31.3 L 651.3 23 L 652.3 23 L 652.3 23.7 Z M 661.9 28.3 L 661.9 29.2 L 656.9 26.4 L 656.9 25.6 L 661.9 22.9 L 661.9 23.8 L 657.8 26 L 661.9 28.3 Z M 667.3 24.9 C 667.3 27.1 667.3 29.2 665.1 29.2 C 662.8 29.2 662.8 27.1 662.8 24.9 C 662.8 22.7 662.8 20.6 665.1 20.6 C 667.3 20.6 667.3 22.7 667.3 24.9 Z M 663.9 25.1 C 663.9 26.5 663.8 28.3 665.1 28.3 C 666.3 28.3 666.2 26.5 666.2 25.1 C 666.2 22.9 666.2 21.5 665.1 21.5 C 663.9 21.5 663.9 22.9 663.9 25.1 Z M 669.6 29.1 L 668.5 29.1 L 668.5 27.8 L 669.6 27.8 L 669.6 29.1 Z M 675.3 24.9 C 675.3 27.1 675.3 29.2 673.1 29.2 C 670.8 29.2 670.8 27.1 670.8 24.9 C 670.8 22.7 670.8 20.6 673.1 20.6 C 675.3 20.6 675.3 22.7 675.3 24.9 Z M 671.9 25.1 C 671.9 26.5 671.8 28.3 673.1 28.3 C 674.3 28.3 674.2 26.5 674.2 25.1 C 674.2 22.9 674.2 21.5 673.1 21.5 C 671.9 21.5 671.9 22.9 671.9 25.1 Z M 680.6 24.9 C 680.6 27.1 680.6 29.2 678.4 29.2 C 676.1 29.2 676.1 27.1 676.1 24.9 C 676.1 22.7 676.1 20.6 678.4 20.6 C 680.7 20.6 680.6 22.7 680.6 24.9 Z M 677.2 25.1 C 677.2 26.5 677.2 28.3 678.4 28.3 C 679.6 28.3 679.5 26.5 679.5 25.1 C 679.5 22.9 679.5 21.5 678.4 21.5 C 677.3 21.5 677.2 22.9 677.2 25.1 Z M 684.5 29.1 L 683.4 29.1 L 683.4 21.9 L 682.2 22.8 C 682.2 22.8 682.16 21.72 682.2 21.7 C 682.4 21.6 683.2 21 683.6 20.7 C 683.57 20.73 684.5 20.7 684.5 20.7 L 684.5 29.1 Z M 688.3 29.1 L 687.1 29.1 L 687.1 27.8 L 688.3 27.8 L 688.3 29.1 Z " stroke="none" fill="#555555"/>  </g></svg>