<?xml version="1.0" standalone="no"?><!DOCTYPE svg PUBLIC "-//W3C//DTD SVG 1.1//EN" "http://www.w3.org/Graphics/SVG/1.1/DTD/svg11.dtd"><svg xmlns="http://www.w3.org/2000/svg" version="1.1" width="283px" height="125.2px" viewBox="0 0 283 125.2">  <desc>Reference: 1. Reshef A, et al. Long term safety and efficacy of garadacimab for preventing hereditary angioedema atta...</desc>  <defs/>  <g id="Polygon199333">    <path d="M 45.6 90 C 45.6 88.4 45.2 88.2 44.5 88.2 C 43.9 88.2 43.4 88.5 43.4 90 C 43.4 90 45.6 90 45.6 90 Z M 43.4 90.7 C 43.4 92.3 43.9 92.6 44.6 92.6 C 45.2 92.6 45.5 92.1 45.5 91.5 C 45.5 91.5 46.5 91.5 46.5 91.5 C 46.5 92.7 45.7 93.3 44.6 93.3 C 43.4 93.3 42.5 93 42.5 90.5 C 42.5 88.9 42.7 87.5 44.6 87.5 C 46.2 87.5 46.6 88.4 46.6 90.2 C 46.56 90.23 46.6 90.7 46.6 90.7 C 46.6 90.7 43.44 90.71 43.4 90.7 Z M 52.1 93.2 L 50.9 93.2 L 49.6 90.9 L 48.4 93.2 L 47.3 93.2 L 49.1 90.3 L 47.5 87.6 L 48.6 87.6 L 49.7 89.6 L 50.8 87.6 L 51.9 87.6 L 50.2 90.3 L 52.1 93.2 Z M 53 87.6 L 53 86.6 L 53.9 86.2 L 53.9 87.6 L 55.2 87.6 L 55.2 88.3 L 53.9 88.3 C 53.9 88.3 53.94 91.72 53.9 91.7 C 53.9 92.1 53.9 92.5 54.8 92.5 C 54.8 92.5 55 92.5 55.2 92.5 C 55.2 92.5 55.2 93.2 55.2 93.2 C 54.9 93.2 54.6 93.3 54.3 93.3 C 53.4 93.3 53 92.9 53 92.3 C 53.04 92.27 53 88.3 53 88.3 L 52.1 88.3 L 52.1 87.6 L 53 87.6 Z M 59 90 C 59 88.4 58.6 88.2 57.9 88.2 C 57.4 88.2 56.9 88.5 56.9 90 C 56.9 90 59 90 59 90 Z M 56.9 90.7 C 56.9 92.3 57.3 92.6 58 92.6 C 58.6 92.6 58.9 92.1 59 91.5 C 59 91.5 60 91.5 60 91.5 C 59.9 92.7 59.2 93.3 58 93.3 C 56.8 93.3 55.9 93 55.9 90.5 C 55.9 88.9 56.1 87.5 58 87.5 C 59.6 87.5 60 88.4 60 90.2 C 60 90.23 60 90.7 60 90.7 C 60 90.7 56.88 90.71 56.9 90.7 Z M 64.5 93.2 C 64.5 93.2 64.52 89.34 64.5 89.3 C 64.5 88.7 64.3 88.3 63.5 88.3 C 62.5 88.3 62.4 89.1 62.4 89.9 C 62.4 89.9 62.4 93.2 62.4 93.2 L 61.5 93.2 C 61.5 93.2 61.5 88.79 61.5 88.8 C 61.5 88.4 61.5 88 61.4 87.6 C 61.45 87.64 62.4 87.6 62.4 87.6 L 62.4 88.4 C 62.4 88.4 62.45 88.35 62.4 88.4 C 62.8 87.7 63.2 87.5 63.9 87.5 C 65.1 87.5 65.4 88.2 65.4 89.3 C 65.42 89.34 65.4 93.2 65.4 93.2 L 64.5 93.2 Z M 68.6 93.3 C 67.4 93.3 66.7 92.8 66.7 91.5 C 66.7 91.5 67.7 91.5 67.7 91.5 C 67.7 91.8 67.8 92.6 68.7 92.6 C 69.2 92.6 69.6 92.3 69.6 91.7 C 69.6 90.7 66.9 90.7 66.9 89 C 66.9 88.5 67.2 87.5 68.8 87.5 C 69.8 87.5 70.6 88 70.5 89.1 C 70.5 89.1 69.5 89.1 69.5 89.1 C 69.5 88.5 69.2 88.2 68.7 88.2 C 68.2 88.2 67.8 88.5 67.8 89 C 67.8 89.9 70.6 89.9 70.6 91.6 C 70.6 92.8 69.7 93.3 68.6 93.3 Z M 72.8 93.2 L 71.9 93.2 L 71.9 87.6 L 72.8 87.6 L 72.8 93.2 Z M 71.8 85.3 L 72.8 85.3 L 72.8 86.2 L 71.8 86.2 L 71.8 85.3 Z M 77.5 90.1 C 77.5 88.6 77 88.3 76.3 88.3 C 75.6 88.3 75.1 88.6 75.1 90.1 C 75.1 91.9 75.3 92.6 76.3 92.6 C 77.2 92.6 77.5 91.9 77.5 90.1 Z M 74.2 90.5 C 74.2 88.9 74.4 87.5 76.3 87.5 C 78.2 87.5 78.4 88.9 78.4 90.5 C 78.4 93 77.5 93.3 76.3 93.3 C 75.1 93.3 74.2 93 74.2 90.5 Z M 82.8 93.2 C 82.8 93.2 82.84 89.34 82.8 89.3 C 82.8 88.7 82.6 88.3 81.9 88.3 C 80.9 88.3 80.7 89.1 80.7 89.9 C 80.73 89.9 80.7 93.2 80.7 93.2 L 79.8 93.2 C 79.8 93.2 79.83 88.79 79.8 88.8 C 79.8 88.4 79.8 88 79.8 87.6 C 79.77 87.64 80.7 87.6 80.7 87.6 L 80.7 88.4 C 80.7 88.4 80.77 88.35 80.8 88.4 C 81.1 87.7 81.5 87.5 82.3 87.5 C 83.4 87.5 83.7 88.2 83.7 89.3 C 83.74 89.34 83.7 93.2 83.7 93.2 L 82.8 93.2 Z M 89.4 93.3 C 88.2 93.3 87.5 92.8 87.5 91.5 C 87.5 91.5 88.5 91.5 88.5 91.5 C 88.5 91.8 88.5 92.6 89.4 92.6 C 90 92.6 90.4 92.3 90.4 91.7 C 90.4 90.7 87.6 90.7 87.6 89 C 87.6 88.5 88 87.5 89.5 87.5 C 90.5 87.5 91.4 88 91.3 89.1 C 91.3 89.1 90.3 89.1 90.3 89.1 C 90.3 88.5 90 88.2 89.4 88.2 C 88.9 88.2 88.6 88.5 88.6 89 C 88.6 89.9 91.3 89.9 91.3 91.6 C 91.3 92.8 90.5 93.3 89.4 93.3 Z M 92.8 87.6 L 92.8 86.6 L 93.7 86.2 L 93.7 87.6 L 94.9 87.6 L 94.9 88.3 L 93.7 88.3 C 93.7 88.3 93.65 91.72 93.7 91.7 C 93.7 92.1 93.7 92.5 94.5 92.5 C 94.5 92.5 94.7 92.5 94.9 92.5 C 94.9 92.5 94.9 93.2 94.9 93.2 C 94.6 93.2 94.3 93.3 94 93.3 C 93.1 93.3 92.8 92.9 92.8 92.3 C 92.75 92.27 92.8 88.3 92.8 88.3 L 91.8 88.3 L 91.8 87.6 L 92.8 87.6 Z M 98.7 87.6 L 99.6 87.6 C 99.6 87.6 99.58 92.04 99.6 92 C 99.6 92.4 99.6 92.8 99.6 93.2 C 99.64 93.19 98.7 93.2 98.7 93.2 L 98.7 92.5 C 98.7 92.5 98.65 92.52 98.6 92.5 C 98.4 93 97.8 93.3 97.2 93.3 C 96.3 93.3 95.7 92.8 95.7 91.9 C 95.74 91.87 95.7 87.6 95.7 87.6 L 96.6 87.6 C 96.6 87.6 96.64 91.49 96.6 91.5 C 96.6 92.2 97 92.6 97.6 92.6 C 98.1 92.6 98.7 92.2 98.7 91.3 C 98.68 91.32 98.7 87.6 98.7 87.6 Z M 103.1 88.3 C 102.1 88.3 102 89 102 90.5 C 102 91.4 102 92.6 103.1 92.6 C 104.1 92.6 104.1 91.3 104.1 90.2 C 104.1 89.5 104.1 88.3 103.1 88.3 Z M 104.1 85.3 L 105 85.3 L 105 93.2 L 104.1 93.2 L 104.1 92.5 C 104.1 92.5 104.13 92.53 104.1 92.5 C 103.8 93 103.4 93.3 102.8 93.3 C 102 93.3 101.1 93 101.1 90.5 C 101.1 89.1 101.1 87.5 102.9 87.5 C 103.4 87.5 103.8 87.8 104.1 88.2 C 104.12 88.2 104.1 88.2 104.1 88.2 L 104.1 85.3 Z M 108.4 92.2 L 108.4 92.2 L 109.7 87.6 L 110.7 87.6 L 108.2 95.3 L 107.3 95.3 L 107.9 93.2 L 106 87.6 L 107.1 87.6 L 108.4 92.2 Z M 112.1 93.2 L 111.1 93.2 L 111.1 92 L 112.1 92 L 112.1 93.2 Z M 118 85.3 L 119.3 85.3 L 121.8 93.2 L 120.7 93.2 L 120.1 91.3 L 117.1 91.3 L 116.5 93.2 L 115.4 93.2 L 118 85.3 Z M 118.6 86.2 L 118.6 86.2 L 117.3 90.4 L 119.9 90.4 L 118.6 86.2 Z M 123.7 93.2 L 122.8 93.2 L 122.8 85.3 L 123.7 85.3 L 123.7 93.2 Z M 126.1 93.2 L 125.2 93.2 L 125.2 85.3 L 126.1 85.3 L 126.1 93.2 Z M 130.7 90 C 130.7 88.4 130.3 88.2 129.6 88.2 C 129 88.2 128.6 88.5 128.6 90 C 128.6 90 130.7 90 130.7 90 Z M 128.6 90.7 C 128.6 92.3 129 92.6 129.7 92.6 C 130.3 92.6 130.6 92.1 130.6 91.5 C 130.6 91.5 131.6 91.5 131.6 91.5 C 131.6 92.7 130.9 93.3 129.7 93.3 C 128.5 93.3 127.6 93 127.6 90.5 C 127.6 88.9 127.8 87.5 129.7 87.5 C 131.3 87.5 131.7 88.4 131.7 90.2 C 131.68 90.23 131.7 90.7 131.7 90.7 C 131.7 90.7 128.56 90.71 128.6 90.7 Z M 134.1 88.5 C 134.1 88.5 134.13 88.47 134.1 88.5 C 134.5 87.6 135 87.5 135.8 87.5 C 135.8 87.5 135.8 88.5 135.8 88.5 C 135.8 88.5 135.7 88.4 135.6 88.4 C 135.5 88.4 135.5 88.4 135.4 88.4 C 134.4 88.4 134.1 89.2 134.1 89.9 C 134.11 89.91 134.1 93.2 134.1 93.2 L 133.2 93.2 L 133.2 87.6 L 134.1 87.6 L 134.1 88.5 Z M 138.7 88.3 C 137.7 88.3 137.7 89.5 137.7 90.2 C 137.7 92 138.1 92.4 138.7 92.4 C 139.8 92.4 139.8 91.2 139.8 90.4 C 139.8 89.6 139.9 88.3 138.7 88.3 Z M 139.8 87.6 L 140.7 87.6 C 140.7 87.6 140.68 93.75 140.7 93.8 C 140.7 95 139.9 95.3 138.6 95.3 C 137.7 95.3 136.9 94.8 136.9 93.8 C 136.9 93.8 138 93.8 138 93.8 C 138 94.3 138.3 94.6 138.8 94.6 C 139.4 94.6 139.8 94.2 139.8 93.7 C 139.78 93.65 139.8 92.5 139.8 92.5 C 139.8 92.5 139.74 92.5 139.7 92.5 C 139.5 92.9 139 93.2 138.5 93.2 C 137 93.2 136.7 91.9 136.7 90.2 C 136.7 87.7 138 87.5 138.5 87.5 C 139 87.5 139.5 87.8 139.8 88.3 C 139.75 88.32 139.8 88.3 139.8 88.3 L 139.8 87.6 Z M 144 92.2 L 144 92.2 L 145.4 87.6 L 146.3 87.6 L 143.8 95.3 L 142.9 95.3 L 143.5 93.2 L 141.6 87.6 L 142.7 87.6 L 144 92.2 Z M 147.8 93.2 L 146.7 93.2 L 146.7 92 L 147.8 92 L 147.8 93.2 Z M 151.4 93.2 C 151.4 93.2 151.38 92.31 151.4 92.3 C 153.6 89.2 154.3 88.6 154.3 87.3 C 154.3 86.7 154 86.3 153.3 86.3 C 152.6 86.3 152.4 86.9 152.4 87.5 C 152.4 87.5 151.4 87.5 151.4 87.5 C 151.3 86.3 152 85.4 153.3 85.4 C 154.6 85.4 155.3 86.1 155.3 87.4 C 155.3 89.1 154.4 89.7 152.5 92.3 C 152.46 92.31 155.5 92.3 155.5 92.3 L 155.5 93.2 L 151.4 93.2 Z M 160.3 89.4 C 160.3 91.4 160.3 93.4 158.2 93.4 C 156.2 93.4 156.2 91.4 156.2 89.4 C 156.2 87.4 156.1 85.4 158.2 85.4 C 160.3 85.4 160.3 87.4 160.3 89.4 Z M 157.2 89.6 C 157.2 90.9 157.1 92.5 158.2 92.5 C 159.4 92.5 159.3 90.9 159.3 89.6 C 159.3 87.5 159.3 86.3 158.2 86.3 C 157.2 86.3 157.2 87.5 157.2 89.6 Z M 161.1 93.2 C 161.1 93.2 161.15 92.31 161.1 92.3 C 163.4 89.2 164 88.6 164 87.3 C 164 86.7 163.7 86.3 163.1 86.3 C 162.3 86.3 162.2 86.9 162.2 87.5 C 162.2 87.5 161.2 87.5 161.2 87.5 C 161.1 86.3 161.7 85.4 163 85.4 C 164.4 85.4 165.1 86.1 165.1 87.4 C 165.1 89.1 164.2 89.7 162.2 92.3 C 162.23 92.31 165.3 92.3 165.3 92.3 L 165.3 93.2 L 161.1 93.2 Z M 169.8 85.6 L 169.8 86.4 L 167.2 86.4 L 167.2 88.7 C 167.2 88.7 167.24 88.68 167.2 88.7 C 167.4 88.4 167.9 88.1 168.5 88.1 C 169.5 88.1 170 88.9 170 90.7 C 170 91.9 169.9 93.4 168 93.4 C 166.4 93.4 166.1 92.5 166.1 91.5 C 166.1 91.5 167.1 91.5 167.1 91.5 C 167.1 92.1 167.3 92.6 168 92.6 C 169 92.6 169 91.7 169 90.9 C 169 89.8 169 89 168.1 89 C 167.5 89 167.2 89.3 167.1 89.8 C 167.12 89.85 166.2 89.8 166.2 89.8 L 166.2 85.6 L 169.8 85.6 Z M 173.7 93.2 L 173.7 85.3 L 177.6 85.3 L 177.6 86.1 L 174.7 86.1 L 174.7 88.7 L 177.5 88.7 L 177.5 89.6 L 174.7 89.6 L 174.7 93.2 L 173.7 93.2 Z M 181.6 90 C 181.6 88.4 181.2 88.2 180.5 88.2 C 179.9 88.2 179.5 88.5 179.4 90 C 179.4 90 181.6 90 181.6 90 Z M 179.4 90.7 C 179.4 92.3 179.9 92.6 180.6 92.6 C 181.2 92.6 181.5 92.1 181.5 91.5 C 181.5 91.5 182.5 91.5 182.5 91.5 C 182.5 92.7 181.8 93.3 180.6 93.3 C 179.4 93.3 178.5 93 178.5 90.5 C 178.5 88.9 178.7 87.5 180.6 87.5 C 182.2 87.5 182.6 88.4 182.6 90.2 C 182.56 90.23 182.6 90.7 182.6 90.7 C 182.6 90.7 179.44 90.71 179.4 90.7 Z M 186.1 92.6 C 187.2 92.6 187.2 91.4 187.2 90.5 C 187.2 89 187.1 88.3 186.1 88.3 C 185.1 88.3 185 89.5 185 90.2 C 185 91 184.9 92.6 186.1 92.6 Z M 185 93.2 L 184.1 93.2 L 184.1 85.3 L 185 85.3 L 185 88.2 C 185 88.2 185.07 88.2 185.1 88.2 C 185.4 87.8 185.8 87.5 186.3 87.5 C 188.1 87.5 188.1 89.1 188.1 90.5 C 188.1 93 187.2 93.3 186.3 93.3 C 185.8 93.3 185.4 93 185.1 92.5 C 185.06 92.53 185 92.5 185 92.5 L 185 93.2 Z M 189.7 92 L 190.8 92 L 189.8 94.6 L 189.1 94.6 L 189.7 92 Z M 190.5 88.8 L 189.5 88.8 L 189.5 87.6 L 190.5 87.6 L 190.5 88.8 Z M 194.7 91.1 C 194.7 90.5 194.6 89.6 193.7 89.6 C 192.7 89.6 192.6 90.5 192.6 91.1 C 192.6 91.8 192.9 92.5 193.7 92.5 C 194.4 92.5 194.7 91.8 194.7 91.1 Z M 194.3 89.2 C 195.4 89.3 195.7 90.1 195.7 91.1 C 195.7 92.5 195 93.4 193.7 93.4 C 192.3 93.4 191.6 92.5 191.6 91.1 C 191.6 90.1 191.9 89.3 193 89.2 C 193 89.2 193 89.1 193 89.1 C 192.1 89 191.7 88.2 191.7 87.4 C 191.7 86.2 192.5 85.4 193.7 85.4 C 194.9 85.4 195.6 86.2 195.6 87.4 C 195.6 88.2 195.2 89 194.3 89.1 C 194.3 89.1 194.3 89.2 194.3 89.2 Z M 194.6 87.3 C 194.6 86.7 194.3 86.2 193.7 86.2 C 193 86.2 192.7 86.7 192.7 87.3 C 192.7 87.9 192.9 88.7 193.7 88.7 C 194.4 88.7 194.6 87.9 194.6 87.3 Z M 200.6 89.4 C 200.6 91.4 200.6 93.4 198.5 93.4 C 196.5 93.4 196.5 91.4 196.5 89.4 C 196.5 87.4 196.4 85.4 198.5 85.4 C 200.6 85.4 200.6 87.4 200.6 89.4 Z M 197.5 89.6 C 197.5 90.9 197.4 92.5 198.5 92.5 C 199.7 92.5 199.6 90.9 199.6 89.6 C 199.6 87.5 199.6 86.3 198.5 86.3 C 197.5 86.3 197.5 87.5 197.5 89.6 Z M 202.6 94.5 C 202.1 92.9 201.5 91.4 201.5 89.7 C 201.5 88 202.1 86.5 202.6 84.9 C 202.6 84.9 203.3 84.9 203.3 84.9 C 202.9 86.5 202.6 88.1 202.6 89.8 C 202.6 91.4 202.9 93 203.3 94.5 C 203.3 94.5 202.6 94.5 202.6 94.5 Z M 204.5 93.2 C 204.5 93.2 204.51 92.31 204.5 92.3 C 206.7 89.2 207.4 88.6 207.4 87.3 C 207.4 86.7 207.1 86.3 206.5 86.3 C 205.7 86.3 205.6 86.9 205.6 87.5 C 205.6 87.5 204.5 87.5 204.5 87.5 C 204.4 86.3 205.1 85.4 206.4 85.4 C 207.8 85.4 208.4 86.1 208.4 87.4 C 208.4 89.1 207.6 89.7 205.6 92.3 C 205.59 92.31 208.6 92.3 208.6 92.3 L 208.6 93.2 L 204.5 93.2 Z M 209.7 94.5 C 210.1 93 210.4 91.4 210.4 89.8 C 210.4 88.1 210.1 86.5 209.7 84.9 C 209.7 84.9 210.3 84.9 210.3 84.9 C 210.8 86.5 211.4 88 211.4 89.7 C 211.4 91.4 210.8 92.9 210.3 94.5 C 210.3 94.5 209.7 94.5 209.7 94.5 Z M 213.7 88.8 L 212.7 88.8 L 212.7 87.6 L 213.7 87.6 L 213.7 88.8 Z M 213.7 93.2 L 212.7 93.2 L 212.7 92 L 213.7 92 L 213.7 93.2 Z M 218.6 85.6 L 218.6 86.4 L 216.1 86.4 L 216.1 88.7 C 216.1 88.7 216.1 88.68 216.1 88.7 C 216.3 88.4 216.8 88.1 217.3 88.1 C 218.4 88.1 218.9 88.9 218.9 90.7 C 218.9 91.9 218.8 93.4 216.8 93.4 C 215.3 93.4 215 92.5 215 91.5 C 215 91.5 216 91.5 216 91.5 C 216 92.1 216.2 92.6 216.9 92.6 C 217.8 92.6 217.9 91.7 217.9 90.9 C 217.9 89.8 217.9 89 216.9 89 C 216.4 89 216.1 89.3 216 89.8 C 215.98 89.85 215.1 89.8 215.1 89.8 L 215.1 85.6 L 218.6 85.6 Z M 222.1 90.5 L 222.1 86.5 L 222.1 86.5 L 220.5 90.5 L 222.1 90.5 Z M 219.6 91.3 L 219.6 90.5 L 221.7 85.6 L 223.1 85.6 L 223.1 90.5 L 224 90.5 L 224 91.3 L 223.1 91.3 L 223.1 93.2 L 222.1 93.2 L 222.1 91.3 L 219.6 91.3 Z M 228.4 85.6 L 228.4 86.4 L 225.8 86.4 L 225.8 88.7 C 225.8 88.7 225.87 88.68 225.9 88.7 C 226 88.4 226.6 88.1 227.1 88.1 C 228.2 88.1 228.7 88.9 228.7 90.7 C 228.7 91.9 228.5 93.4 226.6 93.4 C 225 93.4 224.7 92.5 224.7 91.5 C 224.7 91.5 225.7 91.5 225.7 91.5 C 225.7 92.1 226 92.6 226.6 92.6 C 227.6 92.6 227.7 91.7 227.7 90.9 C 227.7 89.8 227.6 89 226.7 89 C 226.1 89 225.8 89.3 225.7 89.8 C 225.75 89.85 224.8 89.8 224.8 89.8 L 224.8 85.6 L 228.4 85.6 Z M 229.7 89.8 L 232.1 89.8 L 232.1 90.6 L 229.7 90.6 L 229.7 89.8 Z M 236.9 85.6 L 236.9 86.4 L 234.4 86.4 L 234.4 88.7 C 234.4 88.7 234.42 88.68 234.4 88.7 C 234.6 88.4 235.1 88.1 235.6 88.1 C 236.7 88.1 237.2 88.9 237.2 90.7 C 237.2 91.9 237.1 93.4 235.2 93.4 C 233.6 93.4 233.3 92.5 233.3 91.5 C 233.3 91.5 234.3 91.5 234.3 91.5 C 234.3 92.1 234.5 92.6 235.2 92.6 C 236.1 92.6 236.2 91.7 236.2 90.9 C 236.2 89.8 236.2 89 235.2 89 C 234.7 89 234.4 89.3 234.3 89.8 C 234.3 89.85 233.4 89.8 233.4 89.8 L 233.4 85.6 L 236.9 85.6 Z M 241.8 85.6 L 241.8 86.4 L 239.3 86.4 L 239.3 88.7 C 239.3 88.7 239.3 88.68 239.3 88.7 C 239.5 88.4 240 88.1 240.5 88.1 C 241.6 88.1 242.1 88.9 242.1 90.7 C 242.1 91.9 242 93.4 240 93.4 C 238.5 93.4 238.2 92.5 238.2 91.5 C 238.2 91.5 239.2 91.5 239.2 91.5 C 239.2 92.1 239.4 92.6 240.1 92.6 C 241 92.6 241.1 91.7 241.1 90.9 C 241.1 89.8 241.1 89 240.1 89 C 239.6 89 239.3 89.3 239.2 89.8 C 239.18 89.85 238.3 89.8 238.3 89.8 L 238.3 85.6 L 241.8 85.6 Z M 245 92.5 C 245.8 92.5 246 91.6 246 90.6 C 246 89.9 245.8 89.1 244.9 89.1 C 244.1 89.1 243.9 90 243.9 90.7 C 243.9 91.5 244 92.5 245 92.5 Z M 242.9 89.4 C 242.9 87.4 242.9 85.4 245 85.4 C 246.1 85.4 246.9 86.1 246.8 87.3 C 246.8 87.3 245.8 87.3 245.8 87.3 C 245.8 86.8 245.5 86.2 244.9 86.2 C 244.1 86.2 243.9 86.9 243.9 88.9 C 243.9 88.9 243.9 88.9 243.9 88.9 C 244.2 88.5 244.6 88.2 245.2 88.2 C 246.2 88.2 247 88.8 247 90.8 C 247 92.1 246.4 93.4 245 93.4 C 242.9 93.4 242.9 91.4 242.9 89.4 Z M 249.1 93.2 L 248.1 93.2 L 248.1 92 L 249.1 92 L 249.1 93.2 Z " stroke="none" fill="#fff"/>  </g>  <g id="Polygon199332">    <path d="M 43.4 78.3 C 43.4 78.9 43.6 79.4 44.3 79.4 C 44.8 79.4 45.5 79 45.4 77.2 C 44.5 77.2 43.4 77.2 43.4 78.3 Z M 45.4 79.2 C 45.4 79.2 45.4 79.19 45.4 79.2 C 45.1 79.8 44.7 80.1 44 80.1 C 42.8 80.1 42.5 79.3 42.5 78.3 C 42.5 76.6 44.1 76.5 45.4 76.6 C 45.4 75.8 45.4 75 44.5 75 C 43.9 75 43.5 75.4 43.6 76 C 43.6 76 42.6 76 42.6 76 C 42.7 74.8 43.3 74.3 44.5 74.3 C 45.9 74.3 46.3 75.1 46.3 76 C 46.3 76 46.3 78.7 46.3 78.7 C 46.3 79.1 46.3 79.6 46.4 80 C 46.41 79.99 45.4 80 45.4 80 L 45.4 79.2 Z M 51.1 80 C 51.1 80 51.07 76.14 51.1 76.1 C 51.1 75.5 50.9 75.1 50.1 75.1 C 49.1 75.1 49 75.9 49 76.7 C 48.96 76.7 49 80 49 80 L 48.1 80 C 48.1 80 48.06 75.59 48.1 75.6 C 48.1 75.2 48 74.8 48 74.4 C 48.01 74.44 49 74.4 49 74.4 L 49 75.2 C 49 75.2 49 75.15 49 75.2 C 49.4 74.5 49.8 74.3 50.5 74.3 C 51.7 74.3 52 75 52 76.1 C 51.97 76.14 52 80 52 80 L 51.1 80 Z M 55.4 75.1 C 54.4 75.1 54.4 76.3 54.4 77 C 54.4 78.8 54.8 79.2 55.5 79.2 C 56.6 79.2 56.5 78 56.5 77.2 C 56.5 76.4 56.6 75.1 55.4 75.1 Z M 56.5 74.4 L 57.4 74.4 C 57.4 74.4 57.4 80.55 57.4 80.6 C 57.4 81.8 56.6 82.1 55.4 82.1 C 54.4 82.1 53.6 81.6 53.7 80.6 C 53.7 80.6 54.7 80.6 54.7 80.6 C 54.7 81.1 55 81.4 55.5 81.4 C 56.2 81.4 56.5 81 56.5 80.5 C 56.5 80.45 56.5 79.3 56.5 79.3 C 56.5 79.3 56.46 79.3 56.5 79.3 C 56.2 79.7 55.7 80 55.2 80 C 53.7 80 53.4 78.7 53.4 77 C 53.4 74.5 54.7 74.3 55.2 74.3 C 55.8 74.3 56.2 74.6 56.5 75.1 C 56.48 75.12 56.5 75.1 56.5 75.1 L 56.5 74.4 Z M 59.9 80 L 59 80 L 59 74.4 L 59.9 74.4 L 59.9 80 Z M 59 72.1 L 60 72.1 L 60 73 L 59 73 L 59 72.1 Z M 64.6 76.9 C 64.6 75.4 64.2 75.1 63.5 75.1 C 62.8 75.1 62.3 75.4 62.3 76.9 C 62.3 78.7 62.5 79.4 63.5 79.4 C 64.4 79.4 64.6 78.7 64.6 76.9 Z M 61.3 77.3 C 61.3 75.7 61.5 74.3 63.5 74.3 C 65.4 74.3 65.6 75.7 65.6 77.3 C 65.6 79.8 64.6 80.1 63.5 80.1 C 62.3 80.1 61.3 79.8 61.3 77.3 Z M 70 76.8 C 70 75.2 69.6 75 68.9 75 C 68.4 75 67.9 75.3 67.9 76.8 C 67.9 76.8 70 76.8 70 76.8 Z M 67.9 77.5 C 67.9 79.1 68.3 79.4 69 79.4 C 69.6 79.4 69.9 78.9 70 78.3 C 70 78.3 71 78.3 71 78.3 C 70.9 79.5 70.2 80.1 69 80.1 C 67.8 80.1 66.9 79.8 66.9 77.3 C 66.9 75.7 67.1 74.3 69 74.3 C 70.6 74.3 71 75.2 71 77 C 71 77.03 71 77.5 71 77.5 C 71 77.5 67.88 77.51 67.9 77.5 Z M 74.4 75.1 C 73.4 75.1 73.3 75.8 73.3 77.3 C 73.3 78.2 73.3 79.4 74.4 79.4 C 75.4 79.4 75.4 78.1 75.4 77 C 75.4 76.3 75.4 75.1 74.4 75.1 Z M 75.4 72.1 L 76.3 72.1 L 76.3 80 L 75.4 80 L 75.4 79.3 C 75.4 79.3 75.42 79.33 75.4 79.3 C 75.1 79.8 74.7 80.1 74.1 80.1 C 73.2 80.1 72.3 79.8 72.3 77.3 C 72.3 75.9 72.4 74.3 74.2 74.3 C 74.7 74.3 75.1 74.6 75.4 75 C 75.41 75 75.4 75 75.4 75 L 75.4 72.1 Z M 81 76.8 C 81 75.2 80.6 75 79.9 75 C 79.4 75 78.9 75.3 78.9 76.8 C 78.9 76.8 81 76.8 81 76.8 Z M 78.9 77.5 C 78.9 79.1 79.3 79.4 80 79.4 C 80.6 79.4 80.9 78.9 81 78.3 C 81 78.3 82 78.3 82 78.3 C 81.9 79.5 81.2 80.1 80 80.1 C 78.8 80.1 77.9 79.8 77.9 77.3 C 77.9 75.7 78.1 74.3 80 74.3 C 81.6 74.3 82 75.2 82 77 C 82 77.03 82 77.5 82 77.5 C 82 77.5 78.88 77.51 78.9 77.5 Z M 86.2 80 C 86.2 80 86.23 76.14 86.2 76.1 C 86.2 75.6 86.1 75.1 85.3 75.1 C 85.1 75.1 84.7 75.2 84.6 75.4 C 84.4 75.7 84.4 76 84.4 76.3 C 84.36 76.25 84.4 80 84.4 80 L 83.5 80 C 83.5 80 83.46 75.59 83.5 75.6 C 83.5 75.2 83.4 74.8 83.4 74.4 C 83.4 74.44 84.4 74.4 84.4 74.4 L 84.4 75.1 C 84.4 75.1 84.38 75.13 84.4 75.1 C 84.6 74.5 85.1 74.3 85.8 74.3 C 86.3 74.3 86.9 74.5 87.1 75 C 87.4 74.4 87.9 74.3 88.4 74.3 C 89 74.3 89.9 74.5 89.9 75.8 C 89.9 75.77 89.9 80 89.9 80 L 89 80 C 89 80 89 76.14 89 76.1 C 89 75.6 88.8 75.1 88.1 75.1 C 87.8 75.1 87.7 75.1 87.4 75.3 C 87.2 75.5 87.1 76 87.1 76.3 C 87.13 76.25 87.1 80 87.1 80 L 86.2 80 Z M 92.3 78.3 C 92.3 78.9 92.5 79.4 93.1 79.4 C 93.7 79.4 94.4 79 94.3 77.2 C 93.4 77.2 92.3 77.2 92.3 78.3 Z M 94.3 79.2 C 94.3 79.2 94.28 79.19 94.3 79.2 C 94 79.8 93.6 80.1 92.9 80.1 C 91.7 80.1 91.4 79.3 91.4 78.3 C 91.4 76.6 93 76.5 94.3 76.6 C 94.3 75.8 94.3 75 93.3 75 C 92.7 75 92.4 75.4 92.5 76 C 92.5 76 91.5 76 91.5 76 C 91.5 74.8 92.2 74.3 93.4 74.3 C 94.8 74.3 95.2 75.1 95.2 76 C 95.2 76 95.2 78.7 95.2 78.7 C 95.2 79.1 95.2 79.6 95.3 80 C 95.29 79.99 94.3 80 94.3 80 L 94.3 79.2 Z M 100.2 78.3 C 100.2 78.9 100.5 79.4 101.1 79.4 C 101.6 79.4 102.3 79 102.2 77.2 C 101.4 77.2 100.2 77.2 100.2 78.3 Z M 102.2 79.2 C 102.2 79.2 102.22 79.19 102.2 79.2 C 101.9 79.8 101.5 80.1 100.8 80.1 C 99.6 80.1 99.3 79.3 99.3 78.3 C 99.3 76.6 101 76.5 102.2 76.6 C 102.2 75.8 102.3 75 101.3 75 C 100.7 75 100.4 75.4 100.4 76 C 100.4 76 99.4 76 99.4 76 C 99.5 74.8 100.1 74.3 101.3 74.3 C 102.8 74.3 103.1 75.1 103.1 76 C 103.1 76 103.1 78.7 103.1 78.7 C 103.1 79.1 103.2 79.6 103.2 80 C 103.23 79.99 102.2 80 102.2 80 L 102.2 79.2 Z M 105 74.4 L 105 73.4 L 105.9 73 L 105.9 74.4 L 107.1 74.4 L 107.1 75.1 L 105.9 75.1 C 105.9 75.1 105.89 78.52 105.9 78.5 C 105.9 78.9 105.9 79.3 106.7 79.3 C 106.8 79.3 106.9 79.3 107.1 79.3 C 107.1 79.3 107.1 80 107.1 80 C 106.8 80 106.5 80.1 106.2 80.1 C 105.4 80.1 105 79.7 105 79.1 C 104.98 79.07 105 75.1 105 75.1 L 104.1 75.1 L 104.1 74.4 L 105 74.4 Z M 108 74.4 L 108 73.4 L 108.9 73 L 108.9 74.4 L 110.2 74.4 L 110.2 75.1 L 108.9 75.1 C 108.9 75.1 108.94 78.52 108.9 78.5 C 108.9 78.9 108.9 79.3 109.8 79.3 C 109.8 79.3 110 79.3 110.2 79.3 C 110.2 79.3 110.2 80 110.2 80 C 109.9 80 109.6 80.1 109.3 80.1 C 108.4 80.1 108 79.7 108 79.1 C 108.04 79.07 108 75.1 108 75.1 L 107.1 75.1 L 107.1 74.4 L 108 74.4 Z M 111.8 78.3 C 111.8 78.9 112.1 79.4 112.7 79.4 C 113.2 79.4 113.9 79 113.8 77.2 C 113 77.2 111.8 77.2 111.8 78.3 Z M 113.9 79.2 C 113.9 79.2 113.84 79.19 113.8 79.2 C 113.6 79.8 113.1 80.1 112.4 80.1 C 111.3 80.1 110.9 79.3 110.9 78.3 C 110.9 76.6 112.6 76.5 113.8 76.6 C 113.9 75.8 113.9 75 112.9 75 C 112.3 75 112 75.4 112 76 C 112 76 111.1 76 111.1 76 C 111.1 74.8 111.8 74.3 112.9 74.3 C 114.4 74.3 114.7 75.1 114.7 76 C 114.7 76 114.7 78.7 114.7 78.7 C 114.7 79.1 114.8 79.6 114.9 80 C 114.85 79.99 113.9 80 113.9 80 L 113.9 79.2 Z M 119.4 76.2 C 119.4 75.3 119 75.1 118.6 75.1 C 117.9 75.1 117.5 75.4 117.5 76.9 C 117.5 78.7 117.7 79.4 118.6 79.4 C 118.8 79.4 119.5 79.1 119.4 78.1 C 119.4 78.1 120.4 78.1 120.4 78.1 C 120.4 79.7 119.3 80.1 118.6 80.1 C 117.5 80.1 116.5 79.8 116.5 77.3 C 116.5 75.7 116.7 74.3 118.6 74.3 C 119.7 74.3 120.4 75 120.3 76.2 C 120.3 76.2 119.4 76.2 119.4 76.2 Z M 122.9 80 L 122 80 L 122 72.1 L 122.9 72.1 L 122.9 76.8 L 122.9 76.8 L 124.6 74.4 L 125.7 74.4 L 123.9 76.8 L 126 80 L 124.9 80 L 122.9 76.9 L 122.9 76.9 L 122.9 80 Z M 128.5 80.1 C 127.3 80.1 126.6 79.6 126.6 78.3 C 126.6 78.3 127.6 78.3 127.6 78.3 C 127.6 78.6 127.6 79.4 128.6 79.4 C 129.1 79.4 129.5 79.1 129.5 78.5 C 129.5 77.5 126.7 77.5 126.7 75.8 C 126.7 75.3 127.1 74.3 128.7 74.3 C 129.6 74.3 130.5 74.8 130.4 75.9 C 130.4 75.9 129.4 75.9 129.4 75.9 C 129.4 75.3 129.1 75 128.5 75 C 128.1 75 127.7 75.3 127.7 75.8 C 127.7 76.7 130.5 76.7 130.5 78.4 C 130.5 79.6 129.6 80.1 128.5 80.1 Z M 132.7 75.6 L 131.7 75.6 L 131.7 74.4 L 132.7 74.4 L 132.7 75.6 Z M 132.7 80 L 131.7 80 L 131.7 78.8 L 132.7 78.8 L 132.7 80 Z M 137.9 75.6 C 137.9 75.6 139.01 75.62 139 75.6 C 139.4 75.6 140.4 75.5 140.4 74.3 C 140.4 73.1 139.5 72.9 139.3 72.9 C 139.29 72.93 137.9 72.9 137.9 72.9 L 137.9 75.6 Z M 136.9 80 L 136.9 72.1 C 136.9 72.1 139.24 72.05 139.2 72.1 C 140.3 72.1 141.4 72.4 141.4 74.3 C 141.4 76.1 140 76.5 139.2 76.5 C 139.23 76.49 137.9 76.5 137.9 76.5 L 137.9 80 L 136.9 80 Z M 145.8 80 C 145.8 80 145.78 76.23 145.8 76.2 C 145.8 75.5 145.6 75.1 144.8 75.1 C 143.9 75.1 143.7 75.8 143.7 76.7 C 143.66 76.73 143.7 80 143.7 80 L 142.8 80 L 142.8 72.1 L 143.7 72.1 L 143.7 75.2 C 143.7 75.2 143.7 75.15 143.7 75.2 C 144.1 74.5 144.5 74.3 145.2 74.3 C 146.2 74.3 146.7 74.8 146.7 76.1 C 146.68 76.05 146.7 80 146.7 80 L 145.8 80 Z M 149.1 78.3 C 149.1 78.9 149.4 79.4 150 79.4 C 150.5 79.4 151.2 79 151.1 77.2 C 150.2 77.2 149.1 77.2 149.1 78.3 Z M 151.1 79.2 C 151.1 79.2 151.11 79.19 151.1 79.2 C 150.8 79.8 150.4 80.1 149.7 80.1 C 148.5 80.1 148.2 79.3 148.2 78.3 C 148.2 76.6 149.8 76.5 151.1 76.6 C 151.1 75.8 151.1 75 150.2 75 C 149.6 75 149.2 75.4 149.3 76 C 149.3 76 148.3 76 148.3 76 C 148.4 74.8 149 74.3 150.2 74.3 C 151.6 74.3 152 75.1 152 76 C 152 76 152 78.7 152 78.7 C 152 79.1 152.1 79.6 152.1 80 C 152.12 79.99 151.1 80 151.1 80 L 151.1 79.2 Z M 155.4 80.1 C 154.2 80.1 153.5 79.6 153.5 78.3 C 153.5 78.3 154.5 78.3 154.5 78.3 C 154.5 78.6 154.5 79.4 155.4 79.4 C 156 79.4 156.4 79.1 156.4 78.5 C 156.4 77.5 153.6 77.5 153.6 75.8 C 153.6 75.3 154 74.3 155.5 74.3 C 156.5 74.3 157.4 74.8 157.3 75.9 C 157.3 75.9 156.3 75.9 156.3 75.9 C 156.3 75.3 156 75 155.4 75 C 154.9 75 154.6 75.3 154.6 75.8 C 154.6 76.7 157.3 76.7 157.3 78.4 C 157.3 79.6 156.5 80.1 155.4 80.1 Z M 161.7 76.8 C 161.7 75.2 161.2 75 160.6 75 C 160 75 159.5 75.3 159.5 76.8 C 159.5 76.8 161.7 76.8 161.7 76.8 Z M 159.5 77.5 C 159.5 79.1 159.9 79.4 160.7 79.4 C 161.3 79.4 161.6 78.9 161.6 78.3 C 161.6 78.3 162.6 78.3 162.6 78.3 C 162.6 79.5 161.8 80.1 160.7 80.1 C 159.5 80.1 158.6 79.8 158.6 77.3 C 158.6 75.7 158.8 74.3 160.7 74.3 C 162.3 74.3 162.7 75.2 162.7 77 C 162.66 77.03 162.7 77.5 162.7 77.5 C 162.7 77.5 159.53 77.51 159.5 77.5 Z M 167.7 75.5 C 168.6 75.6 169.2 75.3 169.2 74.3 C 169.2 73.6 168.9 73.1 168.2 73.1 C 167.3 73.1 167.2 73.7 167.2 74.3 C 167.2 74.3 166.2 74.3 166.2 74.3 C 166.1 73 166.7 72.2 168.2 72.2 C 169.5 72.2 170.2 72.9 170.2 74.2 C 170.2 75.7 169.2 75.9 168.7 76 C 168.7 76 168.7 76 168.7 76 C 169.9 76.2 170.3 76.8 170.3 78 C 170.3 79.4 169.5 80.2 168 80.2 C 165.9 80.2 166.1 78.3 166.1 77.9 C 166.1 77.9 167.1 77.9 167.1 77.9 C 167.1 78.7 167.2 79.3 168.1 79.3 C 169 79.3 169.3 78.8 169.3 77.9 C 169.3 76.7 168.8 76.4 167.7 76.4 C 167.7 76.4 167.7 75.5 167.7 75.5 Z M 177 76.9 C 177 75.4 176.6 75.1 175.9 75.1 C 175.2 75.1 174.7 75.4 174.7 76.9 C 174.7 78.7 174.9 79.4 175.9 79.4 C 176.8 79.4 177 78.7 177 76.9 Z M 173.8 77.3 C 173.8 75.7 174 74.3 175.9 74.3 C 177.8 74.3 178 75.7 178 77.3 C 178 79.8 177.1 80.1 175.9 80.1 C 174.7 80.1 173.8 79.8 173.8 77.3 Z M 182.5 77.1 C 182.5 76.3 182.5 75.1 181.4 75.1 C 180.3 75.1 180.4 76.6 180.4 77.5 C 180.4 78.2 180.4 79.4 181.4 79.4 C 182.4 79.4 182.5 78.6 182.5 77.1 Z M 180.4 75.1 C 180.4 75.1 180.42 75.1 180.4 75.1 C 180.7 74.6 181.1 74.3 181.7 74.3 C 182.6 74.3 183.5 74.7 183.5 77.1 C 183.5 78.5 183.4 80.1 181.7 80.1 C 181.1 80.1 180.7 79.9 180.4 79.4 C 180.43 79.43 180.4 79.4 180.4 79.4 L 180.4 82.1 L 179.5 82.1 L 179.5 74.4 L 180.4 74.4 L 180.4 75.1 Z M 188 76.8 C 188 75.2 187.5 75 186.9 75 C 186.3 75 185.8 75.3 185.8 76.8 C 185.8 76.8 188 76.8 188 76.8 Z M 185.8 77.5 C 185.8 79.1 186.2 79.4 186.9 79.4 C 187.5 79.4 187.9 78.9 187.9 78.3 C 187.9 78.3 188.9 78.3 188.9 78.3 C 188.9 79.5 188.1 80.1 186.9 80.1 C 185.8 80.1 184.8 79.8 184.8 77.3 C 184.8 75.7 185 74.3 186.9 74.3 C 188.5 74.3 188.9 75.2 188.9 77 C 188.92 77.03 188.9 77.5 188.9 77.5 C 188.9 77.5 185.8 77.51 185.8 77.5 Z M 193.4 80 C 193.4 80 193.43 76.14 193.4 76.1 C 193.4 75.5 193.2 75.1 192.5 75.1 C 191.5 75.1 191.3 75.9 191.3 76.7 C 191.32 76.7 191.3 80 191.3 80 L 190.4 80 C 190.4 80 190.42 75.59 190.4 75.6 C 190.4 75.2 190.4 74.8 190.4 74.4 C 190.37 74.44 191.3 74.4 191.3 74.4 L 191.3 75.2 C 191.3 75.2 191.37 75.15 191.4 75.2 C 191.7 74.5 192.1 74.3 192.9 74.3 C 194 74.3 194.3 75 194.3 76.1 C 194.33 76.14 194.3 80 194.3 80 L 193.4 80 Z M 195.7 76.6 L 198.2 76.6 L 198.2 77.4 L 195.7 77.4 L 195.7 76.6 Z M 200.5 80 L 199.6 80 L 199.6 72.1 L 200.5 72.1 L 200.5 80 Z M 202.8 78.3 C 202.8 78.9 203.1 79.4 203.7 79.4 C 204.3 79.4 205 79 204.9 77.2 C 204 77.2 202.8 77.2 202.8 78.3 Z M 204.9 79.2 C 204.9 79.2 204.86 79.19 204.9 79.2 C 204.6 79.8 204.2 80.1 203.5 80.1 C 202.3 80.1 201.9 79.3 201.9 78.3 C 201.9 76.6 203.6 76.5 204.9 76.6 C 204.9 75.8 204.9 75 203.9 75 C 203.3 75 203 75.4 203.1 76 C 203.1 76 202.1 76 202.1 76 C 202.1 74.8 202.8 74.3 204 74.3 C 205.4 74.3 205.8 75.1 205.8 76 C 205.8 76 205.8 78.7 205.8 78.7 C 205.8 79.1 205.8 79.6 205.9 80 C 205.87 79.99 204.9 80 204.9 80 L 204.9 79.2 Z M 209.5 79.4 C 210.6 79.4 210.6 78.2 210.6 77.3 C 210.6 75.8 210.5 75.1 209.5 75.1 C 208.5 75.1 208.5 76.3 208.5 77 C 208.5 77.8 208.4 79.4 209.5 79.4 Z M 208.5 80 L 207.6 80 L 207.6 72.1 L 208.5 72.1 L 208.5 75 C 208.5 75 208.54 75 208.5 75 C 208.8 74.6 209.2 74.3 209.8 74.3 C 211.5 74.3 211.6 75.9 211.6 77.3 C 211.6 79.8 210.7 80.1 209.8 80.1 C 209.2 80.1 208.8 79.8 208.5 79.3 C 208.52 79.33 208.5 79.3 208.5 79.3 L 208.5 80 Z M 216.1 76.8 C 216.1 75.2 215.6 75 215 75 C 214.4 75 213.9 75.3 213.9 76.8 C 213.9 76.8 216.1 76.8 216.1 76.8 Z M 213.9 77.5 C 213.9 79.1 214.3 79.4 215 79.4 C 215.6 79.4 216 78.9 216 78.3 C 216 78.3 217 78.3 217 78.3 C 217 79.5 216.2 80.1 215 80.1 C 213.9 80.1 212.9 79.8 212.9 77.3 C 212.9 75.7 213.1 74.3 215 74.3 C 216.6 74.3 217 75.2 217 77 C 217.03 77.03 217 77.5 217 77.5 C 217 77.5 213.9 77.51 213.9 77.5 Z M 219.4 80 L 218.5 80 L 218.5 72.1 L 219.4 72.1 L 219.4 80 Z " stroke="none" fill="#fff"/>  </g>  <g id="Polygon199331">    <path d="M 45.7 63.7 C 45.7 62.2 45.2 61.9 44.5 61.9 C 43.8 61.9 43.4 62.2 43.4 63.7 C 43.4 65.5 43.6 66.2 44.5 66.2 C 45.5 66.2 45.7 65.5 45.7 63.7 Z M 42.4 64.1 C 42.4 62.5 42.6 61.1 44.5 61.1 C 46.4 61.1 46.6 62.5 46.6 64.1 C 46.6 66.6 45.7 66.9 44.5 66.9 C 43.3 66.9 42.4 66.6 42.4 64.1 Z M 48.2 61.2 C 48.2 61.2 48.23 60.16 48.2 60.2 C 48.2 59 49 58.8 49.8 58.8 C 50 58.8 50.1 58.8 50.2 58.9 C 50.2 58.9 50.2 59.5 50.2 59.5 C 49.3 59.4 49.1 59.8 49.1 60.3 C 49.13 60.29 49.1 61.2 49.1 61.2 L 50.2 61.2 L 50.2 61.9 L 49.1 61.9 L 49.1 66.8 L 48.2 66.8 L 48.2 61.9 L 47.4 61.9 L 47.4 61.2 L 48.2 61.2 Z M 55.4 61.9 C 54.4 61.9 54.4 63.1 54.4 63.8 C 54.4 65.6 54.8 66 55.5 66 C 56.6 66 56.5 64.8 56.5 64 C 56.5 63.2 56.6 61.9 55.4 61.9 Z M 56.5 61.2 L 57.4 61.2 C 57.4 61.2 57.4 67.35 57.4 67.4 C 57.4 68.6 56.6 68.9 55.4 68.9 C 54.4 68.9 53.6 68.4 53.7 67.4 C 53.7 67.4 54.7 67.4 54.7 67.4 C 54.7 67.9 55 68.2 55.5 68.2 C 56.2 68.2 56.5 67.8 56.5 67.3 C 56.5 67.25 56.5 66.1 56.5 66.1 C 56.5 66.1 56.46 66.1 56.5 66.1 C 56.2 66.5 55.7 66.8 55.2 66.8 C 53.7 66.8 53.4 65.5 53.4 63.8 C 53.4 61.3 54.7 61.1 55.2 61.1 C 55.8 61.1 56.2 61.4 56.5 61.9 C 56.48 61.92 56.5 61.9 56.5 61.9 L 56.5 61.2 Z M 59.9 65.1 C 59.9 65.7 60.1 66.2 60.8 66.2 C 61.3 66.2 62 65.8 61.9 64 C 61 64 59.9 64 59.9 65.1 Z M 61.9 66 C 61.9 66 61.9 65.99 61.9 66 C 61.6 66.6 61.2 66.9 60.5 66.9 C 59.3 66.9 59 66.1 59 65.1 C 59 63.4 60.6 63.3 61.9 63.4 C 61.9 62.6 61.9 61.8 61 61.8 C 60.4 61.8 60 62.2 60.1 62.8 C 60.1 62.8 59.1 62.8 59.1 62.8 C 59.2 61.6 59.8 61.1 61 61.1 C 62.4 61.1 62.8 61.9 62.8 62.8 C 62.8 62.8 62.8 65.5 62.8 65.5 C 62.8 65.9 62.8 66.4 62.9 66.8 C 62.91 66.79 61.9 66.8 61.9 66.8 L 61.9 66 Z M 65.5 62.1 C 65.5 62.1 65.52 62.07 65.5 62.1 C 65.9 61.2 66.4 61.1 67.2 61.1 C 67.2 61.1 67.2 62.1 67.2 62.1 C 67.2 62.1 67.1 62 67 62 C 66.9 62 66.8 62 66.7 62 C 65.7 62 65.5 62.8 65.5 63.5 C 65.49 63.51 65.5 66.8 65.5 66.8 L 64.6 66.8 L 64.6 61.2 L 65.5 61.2 L 65.5 62.1 Z M 69 65.1 C 69 65.7 69.3 66.2 69.9 66.2 C 70.5 66.2 71.1 65.8 71.1 64 C 70.2 64 69 64 69 65.1 Z M 71.1 66 C 71.1 66 71.06 65.99 71.1 66 C 70.8 66.6 70.4 66.9 69.7 66.9 C 68.5 66.9 68.1 66.1 68.1 65.1 C 68.1 63.4 69.8 63.3 71.1 63.4 C 71.1 62.6 71.1 61.8 70.1 61.8 C 69.5 61.8 69.2 62.2 69.3 62.8 C 69.3 62.8 68.3 62.8 68.3 62.8 C 68.3 61.6 69 61.1 70.2 61.1 C 71.6 61.1 72 61.9 72 62.8 C 72 62.8 72 65.5 72 65.5 C 72 65.9 72 66.4 72.1 66.8 C 72.07 66.79 71.1 66.8 71.1 66.8 L 71.1 66 Z M 75.6 61.9 C 74.6 61.9 74.5 62.6 74.5 64.1 C 74.5 65 74.5 66.2 75.6 66.2 C 76.7 66.2 76.7 64.9 76.7 63.8 C 76.7 63.1 76.6 61.9 75.6 61.9 Z M 76.7 58.9 L 77.6 58.9 L 77.6 66.8 L 76.7 66.8 L 76.7 66.1 C 76.7 66.1 76.64 66.13 76.6 66.1 C 76.3 66.6 75.9 66.9 75.4 66.9 C 74.5 66.9 73.6 66.6 73.6 64.1 C 73.6 62.7 73.6 61.1 75.4 61.1 C 75.9 61.1 76.3 61.4 76.6 61.8 C 76.63 61.8 76.7 61.8 76.7 61.8 L 76.7 58.9 Z M 80 65.1 C 80 65.7 80.3 66.2 80.9 66.2 C 81.5 66.2 82.1 65.8 82.1 64 C 81.2 64 80 64 80 65.1 Z M 82.1 66 C 82.1 66 82.06 65.99 82.1 66 C 81.8 66.6 81.4 66.9 80.7 66.9 C 79.5 66.9 79.1 66.1 79.1 65.1 C 79.1 63.4 80.8 63.3 82.1 63.4 C 82.1 62.6 82.1 61.8 81.1 61.8 C 80.5 61.8 80.2 62.2 80.3 62.8 C 80.3 62.8 79.3 62.8 79.3 62.8 C 79.3 61.6 80 61.1 81.2 61.1 C 82.6 61.1 83 61.9 83 62.8 C 83 62.8 83 65.5 83 65.5 C 83 65.9 83 66.4 83.1 66.8 C 83.07 66.79 82.1 66.8 82.1 66.8 L 82.1 66 Z M 87.6 63 C 87.6 62.1 87.2 61.9 86.9 61.9 C 86.2 61.9 85.7 62.2 85.7 63.7 C 85.7 65.5 85.9 66.2 86.9 66.2 C 87.1 66.2 87.7 65.9 87.7 64.9 C 87.7 64.9 88.6 64.9 88.6 64.9 C 88.6 66.5 87.5 66.9 86.9 66.9 C 85.7 66.9 84.7 66.6 84.7 64.1 C 84.7 62.5 84.9 61.1 86.9 61.1 C 88 61.1 88.6 61.8 88.6 63 C 88.6 63 87.6 63 87.6 63 Z M 91.1 66.8 L 90.2 66.8 L 90.2 61.2 L 91.1 61.2 L 91.1 66.8 Z M 90.1 58.9 L 91.2 58.9 L 91.2 59.8 L 90.1 59.8 L 90.1 58.9 Z M 95.4 66.8 C 95.4 66.8 95.39 62.94 95.4 62.9 C 95.4 62.4 95.2 61.9 94.5 61.9 C 94.2 61.9 93.9 62 93.7 62.2 C 93.6 62.5 93.5 62.8 93.5 63.1 C 93.52 63.05 93.5 66.8 93.5 66.8 L 92.6 66.8 C 92.6 66.8 92.62 62.39 92.6 62.4 C 92.6 62 92.6 61.6 92.6 61.2 C 92.57 61.24 93.5 61.2 93.5 61.2 L 93.5 61.9 C 93.5 61.9 93.54 61.93 93.5 61.9 C 93.8 61.3 94.3 61.1 94.9 61.1 C 95.4 61.1 96 61.3 96.2 61.8 C 96.5 61.2 97 61.1 97.5 61.1 C 98.1 61.1 99.1 61.3 99.1 62.6 C 99.07 62.57 99.1 66.8 99.1 66.8 L 98.2 66.8 C 98.2 66.8 98.16 62.94 98.2 62.9 C 98.2 62.4 98 61.9 97.3 61.9 C 96.9 61.9 96.8 61.9 96.6 62.1 C 96.3 62.3 96.3 62.8 96.3 63.1 C 96.29 63.05 96.3 66.8 96.3 66.8 L 95.4 66.8 Z M 101.4 65.1 C 101.4 65.7 101.7 66.2 102.3 66.2 C 102.9 66.2 103.5 65.8 103.4 64 C 102.6 64 101.4 64 101.4 65.1 Z M 103.5 66 C 103.5 66 103.44 65.99 103.4 66 C 103.2 66.6 102.7 66.9 102 66.9 C 100.9 66.9 100.5 66.1 100.5 65.1 C 100.5 63.4 102.2 63.3 103.4 63.4 C 103.5 62.6 103.5 61.8 102.5 61.8 C 101.9 61.8 101.6 62.2 101.6 62.8 C 101.6 62.8 100.7 62.8 100.7 62.8 C 100.7 61.6 101.4 61.1 102.5 61.1 C 104 61.1 104.3 61.9 104.3 62.8 C 104.3 62.8 104.3 65.5 104.3 65.5 C 104.3 65.9 104.4 66.4 104.5 66.8 C 104.46 66.79 103.5 66.8 103.5 66.8 L 103.5 66 Z M 108.1 66.2 C 109.2 66.2 109.2 65 109.2 64.1 C 109.2 62.6 109.1 61.9 108.1 61.9 C 107.1 61.9 107.1 63.1 107.1 63.8 C 107.1 64.6 107 66.2 108.1 66.2 Z M 107.1 66.8 L 106.2 66.8 L 106.2 58.9 L 107.1 58.9 L 107.1 61.8 C 107.1 61.8 107.12 61.8 107.1 61.8 C 107.4 61.4 107.8 61.1 108.3 61.1 C 110.1 61.1 110.2 62.7 110.2 64.1 C 110.2 66.6 109.3 66.9 108.4 66.9 C 107.8 66.9 107.4 66.6 107.1 66.1 C 107.11 66.13 107.1 66.1 107.1 66.1 L 107.1 66.8 Z M 114.2 61.2 C 114.2 61.2 114.21 60.16 114.2 60.2 C 114.2 59 115 58.8 115.8 58.8 C 116 58.8 116.1 58.8 116.2 58.9 C 116.2 58.9 116.2 59.5 116.2 59.5 C 115.3 59.4 115.1 59.8 115.1 60.3 C 115.11 60.29 115.1 61.2 115.1 61.2 L 116.2 61.2 L 116.2 61.9 L 115.1 61.9 L 115.1 66.8 L 114.2 66.8 L 114.2 61.9 L 113.4 61.9 L 113.4 61.2 L 114.2 61.2 Z M 120.2 63.7 C 120.2 62.2 119.8 61.9 119.1 61.9 C 118.4 61.9 117.9 62.2 117.9 63.7 C 117.9 65.5 118.1 66.2 119.1 66.2 C 120 66.2 120.2 65.5 120.2 63.7 Z M 117 64.1 C 117 62.5 117.1 61.1 119.1 61.1 C 121 61.1 121.2 62.5 121.2 64.1 C 121.2 66.6 120.2 66.9 119.1 66.9 C 117.9 66.9 117 66.6 117 64.1 Z M 123.5 62.1 C 123.5 62.1 123.56 62.07 123.6 62.1 C 123.9 61.2 124.4 61.1 125.3 61.1 C 125.3 61.1 125.3 62.1 125.3 62.1 C 125.2 62.1 125.1 62 125 62 C 125 62 124.9 62 124.8 62 C 123.8 62 123.5 62.8 123.5 63.5 C 123.54 63.51 123.5 66.8 123.5 66.8 L 122.6 66.8 L 122.6 61.2 L 123.5 61.2 L 123.5 62.1 Z M 131.8 63.9 C 131.8 63.1 131.8 61.9 130.7 61.9 C 129.6 61.9 129.7 63.4 129.7 64.3 C 129.7 65 129.7 66.2 130.7 66.2 C 131.7 66.2 131.8 65.4 131.8 63.9 Z M 129.7 61.9 C 129.7 61.9 129.71 61.9 129.7 61.9 C 130 61.4 130.4 61.1 131 61.1 C 131.9 61.1 132.8 61.5 132.8 63.9 C 132.8 65.3 132.7 66.9 130.9 66.9 C 130.4 66.9 130 66.7 129.7 66.2 C 129.72 66.23 129.7 66.2 129.7 66.2 L 129.7 68.9 L 128.8 68.9 L 128.8 61.2 L 129.7 61.2 L 129.7 61.9 Z M 135.1 62.1 C 135.1 62.1 135.17 62.07 135.2 62.1 C 135.5 61.2 136 61.1 136.9 61.1 C 136.9 61.1 136.9 62.1 136.9 62.1 C 136.8 62.1 136.7 62 136.6 62 C 136.6 62 136.5 62 136.4 62 C 135.4 62 135.1 62.8 135.1 63.5 C 135.14 63.51 135.1 66.8 135.1 66.8 L 134.2 66.8 L 134.2 61.2 L 135.1 61.2 L 135.1 62.1 Z M 140.9 63.6 C 140.9 62 140.5 61.8 139.8 61.8 C 139.2 61.8 138.8 62.1 138.8 63.6 C 138.8 63.6 140.9 63.6 140.9 63.6 Z M 138.8 64.3 C 138.8 65.9 139.2 66.2 139.9 66.2 C 140.5 66.2 140.8 65.7 140.8 65.1 C 140.8 65.1 141.8 65.1 141.8 65.1 C 141.8 66.3 141.1 66.9 139.9 66.9 C 138.7 66.9 137.8 66.6 137.8 64.1 C 137.8 62.5 138 61.1 139.9 61.1 C 141.5 61.1 141.9 62 141.9 63.8 C 141.88 63.83 141.9 64.3 141.9 64.3 C 141.9 64.3 138.75 64.31 138.8 64.3 Z M 142.7 61.2 L 143.7 61.2 L 145 65.9 L 145 65.9 L 146.4 61.2 L 147.3 61.2 L 145.6 66.8 L 144.4 66.8 L 142.7 61.2 Z M 151.3 63.6 C 151.3 62 150.9 61.8 150.2 61.8 C 149.6 61.8 149.1 62.1 149.1 63.6 C 149.1 63.6 151.3 63.6 151.3 63.6 Z M 149.1 64.3 C 149.1 65.9 149.6 66.2 150.3 66.2 C 150.9 66.2 151.2 65.7 151.2 65.1 C 151.2 65.1 152.2 65.1 152.2 65.1 C 152.2 66.3 151.4 66.9 150.3 66.9 C 149.1 66.9 148.2 66.6 148.2 64.1 C 148.2 62.5 148.4 61.1 150.3 61.1 C 151.9 61.1 152.3 62 152.3 63.8 C 152.26 63.83 152.3 64.3 152.3 64.3 C 152.3 64.3 149.14 64.31 149.1 64.3 Z M 156.8 66.8 C 156.8 66.8 156.77 62.94 156.8 62.9 C 156.8 62.3 156.6 61.9 155.8 61.9 C 154.8 61.9 154.7 62.7 154.7 63.5 C 154.66 63.5 154.7 66.8 154.7 66.8 L 153.8 66.8 C 153.8 66.8 153.76 62.39 153.8 62.4 C 153.8 62 153.7 61.6 153.7 61.2 C 153.7 61.24 154.7 61.2 154.7 61.2 L 154.7 62 C 154.7 62 154.7 61.95 154.7 62 C 155.1 61.3 155.5 61.1 156.2 61.1 C 157.4 61.1 157.7 61.8 157.7 62.9 C 157.67 62.94 157.7 66.8 157.7 66.8 L 156.8 66.8 Z M 159.4 61.2 L 159.4 60.2 L 160.3 59.8 L 160.3 61.2 L 161.5 61.2 L 161.5 61.9 L 160.3 61.9 C 160.3 61.9 160.26 65.32 160.3 65.3 C 160.3 65.7 160.3 66.1 161.1 66.1 C 161.1 66.1 161.3 66.1 161.5 66.1 C 161.5 66.1 161.5 66.8 161.5 66.8 C 161.2 66.8 160.9 66.9 160.6 66.9 C 159.7 66.9 159.4 66.5 159.4 65.9 C 159.36 65.87 159.4 61.9 159.4 61.9 L 158.4 61.9 L 158.4 61.2 L 159.4 61.2 Z M 163.2 66.8 L 162.3 66.8 L 162.3 61.2 L 163.2 61.2 L 163.2 66.8 Z M 162.2 58.9 L 163.2 58.9 L 163.2 59.8 L 162.2 59.8 L 162.2 58.9 Z M 167.8 66.8 C 167.8 66.8 167.77 62.94 167.8 62.9 C 167.8 62.3 167.6 61.9 166.8 61.9 C 165.8 61.9 165.7 62.7 165.7 63.5 C 165.66 63.5 165.7 66.8 165.7 66.8 L 164.8 66.8 C 164.8 66.8 164.76 62.39 164.8 62.4 C 164.8 62 164.7 61.6 164.7 61.2 C 164.7 61.24 165.7 61.2 165.7 61.2 L 165.7 62 C 165.7 62 165.7 61.95 165.7 62 C 166.1 61.3 166.5 61.1 167.2 61.1 C 168.4 61.1 168.7 61.8 168.7 62.9 C 168.67 62.94 168.7 66.8 168.7 66.8 L 167.8 66.8 Z M 172.1 61.9 C 171.1 61.9 171.1 63.1 171.1 63.8 C 171.1 65.6 171.5 66 172.2 66 C 173.2 66 173.2 64.8 173.2 64 C 173.2 63.2 173.3 61.9 172.1 61.9 Z M 173.2 61.2 L 174.1 61.2 C 174.1 61.2 174.1 67.35 174.1 67.4 C 174.1 68.6 173.3 68.9 172 68.9 C 171.1 68.9 170.3 68.4 170.4 67.4 C 170.4 67.4 171.4 67.4 171.4 67.4 C 171.4 67.9 171.7 68.2 172.2 68.2 C 172.9 68.2 173.2 67.8 173.2 67.3 C 173.19 67.25 173.2 66.1 173.2 66.1 C 173.2 66.1 173.16 66.1 173.2 66.1 C 172.9 66.5 172.4 66.8 171.9 66.8 C 170.4 66.8 170.1 65.5 170.1 63.8 C 170.1 61.3 171.4 61.1 171.9 61.1 C 172.5 61.1 172.9 61.4 173.2 61.9 C 173.17 61.92 173.2 61.9 173.2 61.9 L 173.2 61.2 Z M 181.2 66.8 C 181.2 66.8 181.21 63.03 181.2 63 C 181.2 62.3 181 61.9 180.2 61.9 C 179.3 61.9 179.1 62.6 179.1 63.5 C 179.09 63.53 179.1 66.8 179.1 66.8 L 178.2 66.8 L 178.2 58.9 L 179.1 58.9 L 179.1 62 C 179.1 62 179.13 61.95 179.1 62 C 179.5 61.3 179.9 61.1 180.6 61.1 C 181.6 61.1 182.1 61.6 182.1 62.9 C 182.11 62.85 182.1 66.8 182.1 66.8 L 181.2 66.8 Z M 186.7 63.6 C 186.7 62 186.3 61.8 185.6 61.8 C 185.1 61.8 184.6 62.1 184.6 63.6 C 184.6 63.6 186.7 63.6 186.7 63.6 Z M 184.6 64.3 C 184.6 65.9 185 66.2 185.7 66.2 C 186.3 66.2 186.6 65.7 186.7 65.1 C 186.7 65.1 187.7 65.1 187.7 65.1 C 187.6 66.3 186.9 66.9 185.7 66.9 C 184.5 66.9 183.6 66.6 183.6 64.1 C 183.6 62.5 183.8 61.1 185.7 61.1 C 187.3 61.1 187.7 62 187.7 63.8 C 187.7 63.83 187.7 64.3 187.7 64.3 C 187.7 64.3 184.58 64.31 184.6 64.3 Z M 190.1 62.1 C 190.1 62.1 190.16 62.07 190.2 62.1 C 190.5 61.2 191 61.1 191.9 61.1 C 191.9 61.1 191.9 62.1 191.9 62.1 C 191.8 62.1 191.7 62 191.6 62 C 191.6 62 191.5 62 191.4 62 C 190.4 62 190.1 62.8 190.1 63.5 C 190.13 63.51 190.1 66.8 190.1 66.8 L 189.2 66.8 L 189.2 61.2 L 190.1 61.2 L 190.1 62.1 Z M 195.9 63.6 C 195.9 62 195.5 61.8 194.8 61.8 C 194.2 61.8 193.8 62.1 193.7 63.6 C 193.7 63.6 195.9 63.6 195.9 63.6 Z M 193.7 64.3 C 193.7 65.9 194.2 66.2 194.9 66.2 C 195.5 66.2 195.8 65.7 195.8 65.1 C 195.8 65.1 196.8 65.1 196.8 65.1 C 196.8 66.3 196.1 66.9 194.9 66.9 C 193.7 66.9 192.8 66.6 192.8 64.1 C 192.8 62.5 193 61.1 194.9 61.1 C 196.5 61.1 196.9 62 196.9 63.8 C 196.87 63.83 196.9 64.3 196.9 64.3 C 196.9 64.3 193.74 64.31 193.7 64.3 Z M 200.3 61.9 C 199.3 61.9 199.2 62.6 199.2 64.1 C 199.2 65 199.2 66.2 200.3 66.2 C 201.3 66.2 201.3 64.9 201.3 63.8 C 201.3 63.1 201.3 61.9 200.3 61.9 Z M 201.3 58.9 L 202.2 58.9 L 202.2 66.8 L 201.3 66.8 L 201.3 66.1 C 201.3 66.1 201.28 66.13 201.3 66.1 C 201 66.6 200.6 66.9 200 66.9 C 199.1 66.9 198.2 66.6 198.2 64.1 C 198.2 62.7 198.3 61.1 200 61.1 C 200.6 61.1 201 61.4 201.3 61.8 C 201.27 61.8 201.3 61.8 201.3 61.8 L 201.3 58.9 Z M 204.7 66.8 L 203.8 66.8 L 203.8 61.2 L 204.7 61.2 L 204.7 66.8 Z M 203.8 58.9 L 204.8 58.9 L 204.8 59.8 L 203.8 59.8 L 203.8 58.9 Z M 206.4 61.2 L 206.4 60.2 L 207.3 59.8 L 207.3 61.2 L 208.5 61.2 L 208.5 61.9 L 207.3 61.9 C 207.3 61.9 207.3 65.32 207.3 65.3 C 207.3 65.7 207.3 66.1 208.1 66.1 C 208.2 66.1 208.3 66.1 208.5 66.1 C 208.5 66.1 208.5 66.8 208.5 66.8 C 208.2 66.8 207.9 66.9 207.6 66.9 C 206.8 66.9 206.4 66.5 206.4 65.9 C 206.4 65.87 206.4 61.9 206.4 61.9 L 205.5 61.9 L 205.5 61.2 L 206.4 61.2 Z M 210.2 65.1 C 210.2 65.7 210.5 66.2 211.1 66.2 C 211.6 66.2 212.3 65.8 212.2 64 C 211.3 64 210.2 64 210.2 65.1 Z M 212.2 66 C 212.2 66 212.2 65.99 212.2 66 C 211.9 66.6 211.5 66.9 210.8 66.9 C 209.6 66.9 209.3 66.1 209.3 65.1 C 209.3 63.4 210.9 63.3 212.2 63.4 C 212.2 62.6 212.2 61.8 211.3 61.8 C 210.7 61.8 210.3 62.2 210.4 62.8 C 210.4 62.8 209.4 62.8 209.4 62.8 C 209.5 61.6 210.1 61.1 211.3 61.1 C 212.7 61.1 213.1 61.9 213.1 62.8 C 213.1 62.8 213.1 65.5 213.1 65.5 C 213.1 65.9 213.1 66.4 213.2 66.8 C 213.21 66.79 212.2 66.8 212.2 66.8 L 212.2 66 Z M 215.8 62.1 C 215.8 62.1 215.82 62.07 215.8 62.1 C 216.2 61.2 216.7 61.1 217.5 61.1 C 217.5 61.1 217.5 62.1 217.5 62.1 C 217.5 62.1 217.4 62 217.3 62 C 217.2 62 217.1 62 217 62 C 216 62 215.8 62.8 215.8 63.5 C 215.8 63.51 215.8 66.8 215.8 66.8 L 214.9 66.8 L 214.9 61.2 L 215.8 61.2 L 215.8 62.1 Z M 220.2 65.8 L 220.2 65.8 L 221.5 61.2 L 222.5 61.2 L 220 68.9 L 219.1 68.9 L 219.7 66.8 L 217.8 61.2 L 218.9 61.2 L 220.2 65.8 Z " stroke="none" fill="#fff"/>  </g>  <g id="Polygon199330">    <path d="M 35.2 53.6 L 34.2 53.6 L 34.2 47.1 L 33 47.8 C 33 47.8 33.02 46.87 33 46.9 C 33.3 46.8 34 46.2 34.3 46 C 34.31 45.96 35.2 46 35.2 46 L 35.2 53.6 Z M 38.6 53.6 L 37.6 53.6 L 37.6 52.4 L 38.6 52.4 L 38.6 53.6 Z M 43.6 49.1 C 43.6 49.1 45.17 49.06 45.2 49.1 C 45.9 49.1 46.2 48.4 46.2 47.7 C 46.2 47.2 46 46.5 45.2 46.5 C 45.18 46.53 43.6 46.5 43.6 46.5 L 43.6 49.1 Z M 43.6 49.9 L 43.6 53.6 L 42.6 53.6 L 42.6 45.7 C 42.6 45.7 45.38 45.65 45.4 45.7 C 46.8 45.7 47.3 46.6 47.3 47.6 C 47.3 48.6 46.8 49.3 45.8 49.4 C 45.8 49.4 45.8 49.5 45.8 49.5 C 46.7 49.6 47.1 49.9 47.1 51.5 C 47.1 51.9 47.2 53.1 47.4 53.6 C 47.4 53.6 46.3 53.6 46.3 53.6 C 46.1 53 46.1 52 46 51 C 46 50 45.2 49.9 44.8 49.9 C 44.84 49.94 43.6 49.9 43.6 49.9 Z M 51.7 50.4 C 51.7 48.8 51.3 48.6 50.6 48.6 C 50 48.6 49.6 48.9 49.6 50.4 C 49.6 50.4 51.7 50.4 51.7 50.4 Z M 49.6 51.1 C 49.6 52.7 50 53 50.7 53 C 51.3 53 51.6 52.5 51.6 51.9 C 51.6 51.9 52.6 51.9 52.6 51.9 C 52.6 53.1 51.9 53.7 50.7 53.7 C 49.5 53.7 48.6 53.4 48.6 50.9 C 48.6 49.3 48.8 47.9 50.7 47.9 C 52.3 47.9 52.7 48.8 52.7 50.6 C 52.68 50.63 52.7 51.1 52.7 51.1 C 52.7 51.1 49.55 51.11 49.6 51.1 Z M 55.8 53.7 C 54.6 53.7 53.9 53.2 53.9 51.9 C 53.9 51.9 54.9 51.9 54.9 51.9 C 54.9 52.2 54.9 53 55.8 53 C 56.4 53 56.8 52.7 56.8 52.1 C 56.8 51.1 54 51.1 54 49.4 C 54 48.9 54.4 47.9 55.9 47.9 C 56.9 47.9 57.8 48.4 57.7 49.5 C 57.7 49.5 56.7 49.5 56.7 49.5 C 56.7 48.9 56.4 48.6 55.8 48.6 C 55.4 48.6 55 48.9 55 49.4 C 55 50.3 57.7 50.3 57.7 52 C 57.7 53.2 56.9 53.7 55.8 53.7 Z M 62.1 53.6 C 62.1 53.6 62.07 49.83 62.1 49.8 C 62.1 49.1 61.9 48.7 61.1 48.7 C 60.2 48.7 59.9 49.4 59.9 50.3 C 59.95 50.33 59.9 53.6 59.9 53.6 L 59 53.6 L 59 45.7 L 59.9 45.7 L 59.9 48.8 C 59.9 48.8 59.99 48.75 60 48.8 C 60.4 48.1 60.8 47.9 61.5 47.9 C 62.4 47.9 63 48.4 63 49.7 C 62.97 49.65 63 53.6 63 53.6 L 62.1 53.6 Z M 67.6 50.4 C 67.6 48.8 67.2 48.6 66.5 48.6 C 65.9 48.6 65.4 48.9 65.4 50.4 C 65.4 50.4 67.6 50.4 67.6 50.4 Z M 65.4 51.1 C 65.4 52.7 65.9 53 66.6 53 C 67.2 53 67.5 52.5 67.5 51.9 C 67.5 51.9 68.5 51.9 68.5 51.9 C 68.5 53.1 67.7 53.7 66.6 53.7 C 65.4 53.7 64.5 53.4 64.5 50.9 C 64.5 49.3 64.7 47.9 66.6 47.9 C 68.2 47.9 68.6 48.8 68.6 50.6 C 68.56 50.63 68.6 51.1 68.6 51.1 C 68.6 51.1 65.44 51.11 65.4 51.1 Z M 70.2 48 C 70.2 48 70.23 46.96 70.2 47 C 70.2 45.8 71 45.6 71.8 45.6 C 72 45.6 72.1 45.6 72.2 45.7 C 72.2 45.7 72.2 46.3 72.2 46.3 C 71.3 46.2 71.1 46.6 71.1 47.1 C 71.13 47.09 71.1 48 71.1 48 L 72.2 48 L 72.2 48.7 L 71.1 48.7 L 71.1 53.6 L 70.2 53.6 L 70.2 48.7 L 69.4 48.7 L 69.4 48 L 70.2 48 Z M 77.5 45.7 L 78.7 45.7 L 81.3 53.6 L 80.2 53.6 L 79.6 51.7 L 76.5 51.7 L 76 53.6 L 74.9 53.6 L 77.5 45.7 Z M 78.1 46.6 L 78 46.6 L 76.8 50.8 L 79.3 50.8 L 78.1 46.6 Z M 82.4 52.4 L 83.6 52.4 L 82.6 55 L 81.9 55 L 82.4 52.4 Z M 90.2 50.4 C 90.2 48.8 89.8 48.6 89.1 48.6 C 88.5 48.6 88.1 48.9 88 50.4 C 88 50.4 90.2 50.4 90.2 50.4 Z M 88 51.1 C 88 52.7 88.5 53 89.2 53 C 89.8 53 90.1 52.5 90.1 51.9 C 90.1 51.9 91.1 51.9 91.1 51.9 C 91.1 53.1 90.4 53.7 89.2 53.7 C 88 53.7 87.1 53.4 87.1 50.9 C 87.1 49.3 87.3 47.9 89.2 47.9 C 90.8 47.9 91.2 48.8 91.2 50.6 C 91.17 50.63 91.2 51.1 91.2 51.1 C 91.2 51.1 88.04 51.11 88 51.1 Z M 92.8 48 L 92.8 47 L 93.7 46.6 L 93.7 48 L 94.9 48 L 94.9 48.7 L 93.7 48.7 C 93.7 48.7 93.66 52.12 93.7 52.1 C 93.7 52.5 93.7 52.9 94.5 52.9 C 94.6 52.9 94.7 52.9 94.9 52.9 C 94.9 52.9 94.9 53.6 94.9 53.6 C 94.6 53.6 94.3 53.7 94 53.7 C 93.1 53.7 92.8 53.3 92.8 52.7 C 92.76 52.67 92.8 48.7 92.8 48.7 L 91.9 48.7 L 91.9 48 L 92.8 48 Z M 99 51.9 C 99 52.5 99.3 53 99.9 53 C 100.4 53 101.1 52.6 101 50.8 C 100.1 50.8 99 50.8 99 51.9 Z M 101 52.8 C 101 52.8 101 52.79 101 52.8 C 100.7 53.4 100.3 53.7 99.6 53.7 C 98.4 53.7 98.1 52.9 98.1 51.9 C 98.1 50.2 99.7 50.1 101 50.2 C 101 49.4 101 48.6 100.1 48.6 C 99.5 48.6 99.1 49 99.2 49.6 C 99.2 49.6 98.2 49.6 98.2 49.6 C 98.3 48.4 98.9 47.9 100.1 47.9 C 101.5 47.9 101.9 48.7 101.9 49.6 C 101.9 49.6 101.9 52.3 101.9 52.3 C 101.9 52.7 101.9 53.2 102 53.6 C 102.01 53.59 101 53.6 101 53.6 L 101 52.8 Z M 104.5 53.6 L 103.6 53.6 L 103.6 45.7 L 104.5 45.7 L 104.5 53.6 Z M 107.1 53.6 L 106 53.6 L 106 52.4 L 107.1 52.4 L 107.1 53.6 Z M 111.1 53.6 L 111.1 45.7 L 112.1 45.7 L 112.1 52.7 L 115 52.7 L 115 53.6 L 111.1 53.6 Z M 119 50.5 C 119 49 118.5 48.7 117.8 48.7 C 117.1 48.7 116.7 49 116.7 50.5 C 116.7 52.3 116.9 53 117.8 53 C 118.8 53 119 52.3 119 50.5 Z M 115.7 50.9 C 115.7 49.3 115.9 47.9 117.8 47.9 C 119.8 47.9 119.9 49.3 119.9 50.9 C 119.9 53.4 119 53.7 117.8 53.7 C 116.7 53.7 115.7 53.4 115.7 50.9 Z M 124.4 53.6 C 124.4 53.6 124.39 49.74 124.4 49.7 C 124.4 49.1 124.2 48.7 123.4 48.7 C 122.4 48.7 122.3 49.5 122.3 50.3 C 122.27 50.3 122.3 53.6 122.3 53.6 L 121.4 53.6 C 121.4 53.6 121.37 49.19 121.4 49.2 C 121.4 48.8 121.4 48.4 121.3 48 C 121.32 48.04 122.3 48 122.3 48 L 122.3 48.8 C 122.3 48.8 122.32 48.75 122.3 48.8 C 122.7 48.1 123.1 47.9 123.8 47.9 C 125 47.9 125.3 48.6 125.3 49.7 C 125.29 49.74 125.3 53.6 125.3 53.6 L 124.4 53.6 Z M 128.8 48.7 C 127.7 48.7 127.7 49.9 127.7 50.6 C 127.7 52.4 128.1 52.8 128.8 52.8 C 129.9 52.8 129.8 51.6 129.8 50.8 C 129.8 50 129.9 48.7 128.8 48.7 Z M 129.8 48 L 130.7 48 C 130.7 48 130.71 54.15 130.7 54.2 C 130.7 55.4 129.9 55.7 128.7 55.7 C 127.7 55.7 126.9 55.2 127 54.2 C 127 54.2 128 54.2 128 54.2 C 128 54.7 128.3 55 128.8 55 C 129.5 55 129.8 54.6 129.8 54.1 C 129.81 54.05 129.8 52.9 129.8 52.9 C 129.8 52.9 129.78 52.9 129.8 52.9 C 129.5 53.3 129 53.6 128.6 53.6 C 127 53.6 126.8 52.3 126.8 50.6 C 126.8 48.1 128 47.9 128.5 47.9 C 129.1 47.9 129.5 48.2 129.8 48.7 C 129.79 48.72 129.8 48.7 129.8 48.7 L 129.8 48 Z M 132.2 50.2 L 134.6 50.2 L 134.6 51 L 132.2 51 L 132.2 50.2 Z M 136.1 48 L 136.1 47 L 137 46.6 L 137 48 L 138.2 48 L 138.2 48.7 L 137 48.7 C 137 48.7 137.04 52.12 137 52.1 C 137 52.5 137 52.9 137.9 52.9 C 137.9 52.9 138.1 52.9 138.3 52.9 C 138.3 52.9 138.3 53.6 138.3 53.6 C 138 53.6 137.7 53.7 137.4 53.7 C 136.5 53.7 136.1 53.3 136.1 52.7 C 136.14 52.67 136.1 48.7 136.1 48.7 L 135.2 48.7 L 135.2 48 L 136.1 48 Z M 142.1 50.4 C 142.1 48.8 141.7 48.6 141 48.6 C 140.5 48.6 140 48.9 140 50.4 C 140 50.4 142.1 50.4 142.1 50.4 Z M 140 51.1 C 140 52.7 140.4 53 141.1 53 C 141.7 53 142 52.5 142.1 51.9 C 142.1 51.9 143.1 51.9 143.1 51.9 C 143 53.1 142.3 53.7 141.1 53.7 C 139.9 53.7 139 53.4 139 50.9 C 139 49.3 139.2 47.9 141.1 47.9 C 142.7 47.9 143.1 48.8 143.1 50.6 C 143.1 50.63 143.1 51.1 143.1 51.1 C 143.1 51.1 139.97 51.11 140 51.1 Z M 145.5 48.9 C 145.5 48.9 145.55 48.87 145.6 48.9 C 145.9 48 146.4 47.9 147.3 47.9 C 147.3 47.9 147.3 48.9 147.3 48.9 C 147.2 48.9 147.1 48.8 147 48.8 C 146.9 48.8 146.9 48.8 146.8 48.8 C 145.8 48.8 145.5 49.6 145.5 50.3 C 145.53 50.31 145.5 53.6 145.5 53.6 L 144.6 53.6 L 144.6 48 L 145.5 48 L 145.5 48.9 Z M 151 53.6 C 151 53.6 150.99 49.74 151 49.7 C 151 49.2 150.8 48.7 150.1 48.7 C 149.8 48.7 149.5 48.8 149.3 49 C 149.2 49.3 149.1 49.6 149.1 49.9 C 149.11 49.85 149.1 53.6 149.1 53.6 L 148.2 53.6 C 148.2 53.6 148.21 49.19 148.2 49.2 C 148.2 48.8 148.2 48.4 148.2 48 C 148.16 48.04 149.1 48 149.1 48 L 149.1 48.7 C 149.1 48.7 149.14 48.73 149.1 48.7 C 149.4 48.1 149.9 47.9 150.5 47.9 C 151 47.9 151.6 48.1 151.8 48.6 C 152.1 48 152.6 47.9 153.1 47.9 C 153.7 47.9 154.7 48.1 154.7 49.4 C 154.66 49.37 154.7 53.6 154.7 53.6 L 153.8 53.6 C 153.8 53.6 153.76 49.74 153.8 49.7 C 153.8 49.2 153.6 48.7 152.9 48.7 C 152.5 48.7 152.4 48.7 152.2 48.9 C 151.9 49.1 151.9 49.6 151.9 49.9 C 151.89 49.85 151.9 53.6 151.9 53.6 L 151 53.6 Z M 160.3 53.7 C 159.1 53.7 158.3 53.2 158.4 51.9 C 158.4 51.9 159.4 51.9 159.4 51.9 C 159.4 52.2 159.4 53 160.3 53 C 160.9 53 161.3 52.7 161.3 52.1 C 161.3 51.1 158.5 51.1 158.5 49.4 C 158.5 48.9 158.8 47.9 160.4 47.9 C 161.4 47.9 162.2 48.4 162.2 49.5 C 162.2 49.5 161.2 49.5 161.2 49.5 C 161.2 48.9 160.9 48.6 160.3 48.6 C 159.8 48.6 159.4 48.9 159.4 49.4 C 159.4 50.3 162.2 50.3 162.2 52 C 162.2 53.2 161.4 53.7 160.3 53.7 Z M 164.3 51.9 C 164.3 52.5 164.6 53 165.2 53 C 165.8 53 166.5 52.6 166.4 50.8 C 165.5 50.8 164.3 50.8 164.3 51.9 Z M 166.4 52.8 C 166.4 52.8 166.36 52.79 166.4 52.8 C 166.1 53.4 165.7 53.7 165 53.7 C 163.8 53.7 163.4 52.9 163.4 51.9 C 163.4 50.2 165.1 50.1 166.4 50.2 C 166.4 49.4 166.4 48.6 165.4 48.6 C 164.8 48.6 164.5 49 164.6 49.6 C 164.6 49.6 163.6 49.6 163.6 49.6 C 163.6 48.4 164.3 47.9 165.5 47.9 C 166.9 47.9 167.3 48.7 167.3 49.6 C 167.3 49.6 167.3 52.3 167.3 52.3 C 167.3 52.7 167.3 53.2 167.4 53.6 C 167.37 53.59 166.4 53.6 166.4 53.6 L 166.4 52.8 Z M 169.2 48 C 169.2 48 169.19 46.96 169.2 47 C 169.2 45.8 170 45.6 170.8 45.6 C 171 45.6 171.1 45.6 171.2 45.7 C 171.2 45.7 171.2 46.3 171.2 46.3 C 170.3 46.2 170.1 46.6 170.1 47.1 C 170.09 47.09 170.1 48 170.1 48 L 171.2 48 L 171.2 48.7 L 170.1 48.7 L 170.1 53.6 L 169.2 53.6 L 169.2 48.7 L 168.3 48.7 L 168.3 48 L 169.2 48 Z M 175.1 50.4 C 175.1 48.8 174.7 48.6 174 48.6 C 173.4 48.6 173 48.9 173 50.4 C 173 50.4 175.1 50.4 175.1 50.4 Z M 173 51.1 C 173 52.7 173.4 53 174.1 53 C 174.7 53 175 52.5 175.1 51.9 C 175.1 51.9 176 51.9 176 51.9 C 176 53.1 175.3 53.7 174.1 53.7 C 172.9 53.7 172 53.4 172 50.9 C 172 49.3 172.2 47.9 174.1 47.9 C 175.7 47.9 176.1 48.8 176.1 50.6 C 176.09 50.63 176.1 51.1 176.1 51.1 C 176.1 51.1 172.96 51.11 173 51.1 Z M 177.7 48 L 177.7 47 L 178.6 46.6 L 178.6 48 L 179.8 48 L 179.8 48.7 L 178.6 48.7 C 178.6 48.7 178.58 52.12 178.6 52.1 C 178.6 52.5 178.6 52.9 179.4 52.9 C 179.5 52.9 179.6 52.9 179.8 52.9 C 179.8 52.9 179.8 53.6 179.8 53.6 C 179.5 53.6 179.2 53.7 178.9 53.7 C 178.1 53.7 177.7 53.3 177.7 52.7 C 177.68 52.67 177.7 48.7 177.7 48.7 L 176.8 48.7 L 176.8 48 L 177.7 48 Z M 182.3 52.6 L 182.3 52.6 L 183.7 48 L 184.6 48 L 182.1 55.7 L 181.2 55.7 L 181.8 53.6 L 179.9 48 L 181 48 L 182.3 52.6 Z M 188.8 51.9 C 188.8 52.5 189.1 53 189.7 53 C 190.2 53 190.9 52.6 190.8 50.8 C 189.9 50.8 188.8 50.8 188.8 51.9 Z M 190.8 52.8 C 190.8 52.8 190.8 52.79 190.8 52.8 C 190.5 53.4 190.1 53.7 189.4 53.7 C 188.2 53.7 187.9 52.9 187.9 51.9 C 187.9 50.2 189.5 50.1 190.8 50.2 C 190.8 49.4 190.8 48.6 189.9 48.6 C 189.3 48.6 188.9 49 189 49.6 C 189 49.6 188 49.6 188 49.6 C 188.1 48.4 188.7 47.9 189.9 47.9 C 191.3 47.9 191.7 48.7 191.7 49.6 C 191.7 49.6 191.7 52.3 191.7 52.3 C 191.7 52.7 191.7 53.2 191.8 53.6 C 191.82 53.59 190.8 53.6 190.8 53.6 L 190.8 52.8 Z M 196.5 53.6 C 196.5 53.6 196.48 49.74 196.5 49.7 C 196.5 49.1 196.3 48.7 195.5 48.7 C 194.5 48.7 194.4 49.5 194.4 50.3 C 194.37 50.3 194.4 53.6 194.4 53.6 L 193.5 53.6 C 193.5 53.6 193.47 49.19 193.5 49.2 C 193.5 48.8 193.4 48.4 193.4 48 C 193.41 48.04 194.4 48 194.4 48 L 194.4 48.8 C 194.4 48.8 194.41 48.75 194.4 48.8 C 194.8 48.1 195.2 47.9 195.9 47.9 C 197.1 47.9 197.4 48.6 197.4 49.7 C 197.38 49.74 197.4 53.6 197.4 53.6 L 196.5 53.6 Z M 200.9 48.7 C 199.9 48.7 199.8 49.4 199.8 50.9 C 199.8 51.8 199.8 53 200.9 53 C 201.9 53 201.9 51.7 201.9 50.6 C 201.9 49.9 201.9 48.7 200.9 48.7 Z M 201.9 45.7 L 202.8 45.7 L 202.8 53.6 L 201.9 53.6 L 201.9 52.9 C 201.9 52.9 201.88 52.93 201.9 52.9 C 201.6 53.4 201.2 53.7 200.6 53.7 C 199.7 53.7 198.8 53.4 198.8 50.9 C 198.8 49.5 198.9 47.9 200.6 47.9 C 201.2 47.9 201.6 48.2 201.9 48.6 C 201.87 48.6 201.9 48.6 201.9 48.6 L 201.9 45.7 Z M 210 50.4 C 210 48.8 209.5 48.6 208.8 48.6 C 208.3 48.6 207.8 48.9 207.8 50.4 C 207.8 50.4 210 50.4 210 50.4 Z M 207.8 51.1 C 207.8 52.7 208.2 53 208.9 53 C 209.5 53 209.8 52.5 209.9 51.9 C 209.9 51.9 210.9 51.9 210.9 51.9 C 210.9 53.1 210.1 53.7 208.9 53.7 C 207.8 53.7 206.8 53.4 206.8 50.9 C 206.8 49.3 207 47.9 208.9 47.9 C 210.5 47.9 210.9 48.8 210.9 50.6 C 210.91 50.63 210.9 51.1 210.9 51.1 C 210.9 51.1 207.79 51.11 207.8 51.1 Z M 212.6 48 C 212.6 48 212.57 46.96 212.6 47 C 212.6 45.8 213.4 45.6 214.2 45.6 C 214.4 45.6 214.5 45.6 214.6 45.7 C 214.6 45.7 214.6 46.3 214.6 46.3 C 213.6 46.2 213.5 46.6 213.5 47.1 C 213.47 47.09 213.5 48 213.5 48 L 214.6 48 L 214.6 48.7 L 213.5 48.7 L 213.5 53.6 L 212.6 53.6 L 212.6 48.7 L 211.7 48.7 L 211.7 48 L 212.6 48 Z M 219.3 53.6 L 218.4 53.6 L 218.4 48 L 219.3 48 L 219.3 53.6 Z M 218.4 45.7 L 219.4 45.7 L 219.4 46.6 L 218.4 46.6 L 218.4 45.7 Z M 215.6 48 C 215.6 48 215.63 46.96 215.6 47 C 215.6 45.8 216.4 45.6 217.2 45.6 C 217.4 45.6 217.5 45.6 217.7 45.7 C 217.7 45.7 217.7 46.3 217.7 46.3 C 216.7 46.2 216.5 46.6 216.5 47.1 C 216.53 47.09 216.5 48 216.5 48 L 217.7 48 L 217.7 48.7 L 216.5 48.7 L 216.5 53.6 L 215.6 53.6 L 215.6 48.7 L 214.8 48.7 L 214.8 48 L 215.6 48 Z M 223.9 49.8 C 223.9 48.9 223.4 48.7 223.1 48.7 C 222.4 48.7 221.9 49 221.9 50.5 C 221.9 52.3 222.2 53 223.1 53 C 223.3 53 223.9 52.7 223.9 51.7 C 223.9 51.7 224.8 51.7 224.8 51.7 C 224.9 53.3 223.7 53.7 223.1 53.7 C 221.9 53.7 221 53.4 221 50.9 C 221 49.3 221.2 47.9 223.1 47.9 C 224.2 47.9 224.9 48.6 224.8 49.8 C 224.8 49.8 223.9 49.8 223.9 49.8 Z M 227.3 51.9 C 227.3 52.5 227.6 53 228.2 53 C 228.7 53 229.4 52.6 229.3 50.8 C 228.4 50.8 227.3 50.8 227.3 51.9 Z M 229.3 52.8 C 229.3 52.8 229.3 52.79 229.3 52.8 C 229 53.4 228.6 53.7 227.9 53.7 C 226.7 53.7 226.4 52.9 226.4 51.9 C 226.4 50.2 228 50.1 229.3 50.2 C 229.3 49.4 229.3 48.6 228.4 48.6 C 227.8 48.6 227.4 49 227.5 49.6 C 227.5 49.6 226.5 49.6 226.5 49.6 C 226.6 48.4 227.2 47.9 228.4 47.9 C 229.8 47.9 230.2 48.7 230.2 49.6 C 230.2 49.6 230.2 52.3 230.2 52.3 C 230.2 52.7 230.2 53.2 230.3 53.6 C 230.32 53.59 229.3 53.6 229.3 53.6 L 229.3 52.8 Z M 234.9 49.8 C 234.9 48.9 234.4 48.7 234.1 48.7 C 233.4 48.7 232.9 49 232.9 50.5 C 232.9 52.3 233.2 53 234.1 53 C 234.3 53 234.9 52.7 234.9 51.7 C 234.9 51.7 235.8 51.7 235.8 51.7 C 235.9 53.3 234.7 53.7 234.1 53.7 C 232.9 53.7 232 53.4 232 50.9 C 232 49.3 232.2 47.9 234.1 47.9 C 235.2 47.9 235.9 48.6 235.8 49.8 C 235.8 49.8 234.9 49.8 234.9 49.8 Z M 239.1 52.6 L 239.2 52.6 L 240.5 48 L 241.5 48 L 239 55.7 L 238 55.7 L 238.6 53.6 L 236.8 48 L 237.8 48 L 239.1 52.6 Z " stroke="none" fill="#fff"/>  </g>  <g id="Polygon199329">    <path d="M 34.3 31.5 C 34.3 31.5 35.06 31.45 35.1 31.5 C 35.7 31.5 35.9 30.8 35.9 30.3 C 35.9 29.5 35.6 29.2 35.1 29.2 C 35.06 29.24 34.3 29.2 34.3 29.2 L 34.3 31.5 Z M 34.3 36 L 32.7 36 L 32.7 28 C 32.7 28 35.73 28.02 35.7 28 C 36.9 28 37.6 28.7 37.6 30.1 C 37.6 31.1 37.2 31.9 36.1 32 C 36.1 32 36.1 32.1 36.1 32.1 C 36.5 32.1 37.6 32.2 37.6 33.6 C 37.6 34.1 37.6 35.6 37.7 36 C 37.7 36 36.1 36 36.1 36 C 35.9 35.5 35.9 34.9 35.9 34.4 C 35.9 33.5 36 32.7 34.7 32.7 C 34.75 32.67 34.3 32.7 34.3 32.7 L 34.3 36 Z M 41.6 32.6 C 41.6 32 41.6 31.3 40.9 31.3 C 40.2 31.3 40.2 32.1 40.2 32.6 C 40.2 32.6 41.6 32.6 41.6 32.6 Z M 40.2 33.4 C 40.2 34.1 40.2 35.1 40.9 35.1 C 41.4 35.1 41.5 34.6 41.5 34.1 C 41.5 34.1 43.1 34.1 43.1 34.1 C 43.1 34.7 42.9 35.2 42.5 35.5 C 42.1 35.9 41.6 36.1 40.9 36.1 C 38.9 36.1 38.6 34.9 38.6 33.1 C 38.6 31.6 38.8 30.3 40.9 30.3 C 43 30.3 43.2 31.7 43.1 33.4 C 43.1 33.4 40.2 33.4 40.2 33.4 Z M 46.6 29 C 46 28.9 45.9 29.2 45.9 29.7 C 45.86 29.74 45.9 30.4 45.9 30.4 L 46.6 30.4 L 46.6 31.4 L 45.9 31.4 L 45.9 36 L 44.3 36 L 44.3 31.4 L 43.6 31.4 L 43.6 30.4 C 43.6 30.4 44.32 30.41 44.3 30.4 C 44.3 28.8 44.2 28 46.1 28 C 46.3 28 46.4 28 46.6 28 C 46.6 28 46.6 29 46.6 29 Z M 50.1 32.6 C 50.1 32 50.2 31.3 49.4 31.3 C 48.7 31.3 48.7 32.1 48.7 32.6 C 48.7 32.6 50.1 32.6 50.1 32.6 Z M 48.7 33.4 C 48.7 34.1 48.7 35.1 49.4 35.1 C 50 35.1 50.1 34.6 50.1 34.1 C 50.1 34.1 51.7 34.1 51.7 34.1 C 51.6 34.7 51.4 35.2 51.1 35.5 C 50.7 35.9 50.2 36.1 49.4 36.1 C 47.4 36.1 47.2 34.9 47.2 33.1 C 47.2 31.6 47.4 30.3 49.4 30.3 C 51.5 30.3 51.7 31.7 51.7 33.4 C 51.7 33.4 48.7 33.4 48.7 33.4 Z M 54.3 30.4 L 54.3 31.1 C 54.3 31.1 54.29 31.12 54.3 31.1 C 54.6 30.5 55.1 30.3 55.7 30.3 C 55.7 30.3 55.7 31.7 55.7 31.7 C 54.4 31.6 54.3 32.4 54.3 32.9 C 54.34 32.94 54.3 36 54.3 36 L 52.8 36 L 52.8 30.4 L 54.3 30.4 Z M 59.3 32.6 C 59.3 32 59.3 31.3 58.6 31.3 C 57.9 31.3 57.9 32.1 57.9 32.6 C 57.9 32.6 59.3 32.6 59.3 32.6 Z M 57.9 33.4 C 57.9 34.1 57.9 35.1 58.6 35.1 C 59.1 35.1 59.2 34.6 59.2 34.1 C 59.2 34.1 60.8 34.1 60.8 34.1 C 60.8 34.7 60.6 35.2 60.2 35.5 C 59.9 35.9 59.3 36.1 58.6 36.1 C 56.6 36.1 56.3 34.9 56.3 33.1 C 56.3 31.6 56.5 30.3 58.6 30.3 C 60.7 30.3 60.9 31.7 60.9 33.4 C 60.9 33.4 57.9 33.4 57.9 33.4 Z M 63.5 31 C 63.5 31 63.53 30.97 63.5 31 C 63.7 30.7 63.9 30.6 64.1 30.5 C 64.3 30.3 64.5 30.3 64.8 30.3 C 65.6 30.3 66.2 30.7 66.2 31.5 C 66.22 31.51 66.2 36 66.2 36 L 64.7 36 C 64.7 36 64.67 32.14 64.7 32.1 C 64.7 31.6 64.6 31.3 64.1 31.3 C 63.6 31.3 63.5 31.6 63.5 32.1 C 63.5 32.14 63.5 36 63.5 36 L 62 36 L 62 30.4 L 63.5 30.4 L 63.5 31 Z M 70.3 32.4 C 70.3 31.6 70.1 31.3 69.6 31.3 C 68.9 31.3 68.9 31.9 68.9 33 C 68.9 34.7 69 35.1 69.6 35.1 C 70.1 35.1 70.3 34.6 70.3 33.9 C 70.3 33.9 71.9 33.9 71.9 33.9 C 71.9 35.4 71 36.1 69.6 36.1 C 67.6 36.1 67.3 34.9 67.3 33.1 C 67.3 31.6 67.5 30.3 69.6 30.3 C 71 30.3 71.8 30.9 71.8 32.4 C 71.8 32.4 70.3 32.4 70.3 32.4 Z M 75.8 32.6 C 75.8 32 75.8 31.3 75.1 31.3 C 74.4 31.3 74.4 32.1 74.4 32.6 C 74.4 32.6 75.8 32.6 75.8 32.6 Z M 74.4 33.4 C 74.4 34.1 74.4 35.1 75.1 35.1 C 75.6 35.1 75.7 34.6 75.7 34.1 C 75.7 34.1 77.3 34.1 77.3 34.1 C 77.3 34.7 77.1 35.2 76.7 35.5 C 76.4 35.9 75.8 36.1 75.1 36.1 C 73.1 36.1 72.8 34.9 72.8 33.1 C 72.8 31.6 73 30.3 75.1 30.3 C 77.2 30.3 77.4 31.7 77.4 33.4 C 77.4 33.4 74.4 33.4 74.4 33.4 Z M 79.7 30.4 L 79.7 31.9 L 78.4 31.9 L 78.4 30.4 L 79.7 30.4 Z M 79.7 36 L 78.4 36 L 78.4 34.5 L 79.7 34.5 L 79.7 36 Z " stroke="none" fill="#fff"/>  </g></svg>