<?xml version="1.0" standalone="no"?><!DOCTYPE svg PUBLIC "-//W3C//DTD SVG 1.1//EN" "http://www.w3.org/Graphics/SVG/1.1/DTD/svg11.dtd"><svg xmlns="http://www.w3.org/2000/svg" version="1.1" width="148px" height="141.6px" viewBox="0 -1 148 141.6" style="top:-1px">  <desc>Bradykinin activates Bradykinin B2 receptors resulting in increased vascular permeability and swelling – an HAE attack</desc>  <defs/>  <g id="Polygon193568">    <path d="M 1.9 108.3 C 1.9 108.9 2.2 109.5 2.9 109.5 C 3.6 109.5 4.4 109.1 4.3 106.9 C 3.3 107 1.9 106.9 1.9 108.3 Z M 4.3 109.3 C 4.3 109.3 4.29 109.27 4.3 109.3 C 4 110 3.5 110.3 2.6 110.3 C 1.2 110.3 0.8 109.4 0.8 108.2 C 0.8 106.2 2.8 106.1 4.3 106.1 C 4.3 105.3 4.3 104.3 3.2 104.3 C 2.5 104.3 2.1 104.8 2.2 105.5 C 2.2 105.5 1 105.5 1 105.5 C 1.1 104 1.8 103.5 3.2 103.5 C 4.9 103.5 5.4 104.4 5.4 105.5 C 5.4 105.5 5.4 108.7 5.4 108.7 C 5.4 109.2 5.4 109.7 5.5 110.2 C 5.49 110.21 4.3 110.2 4.3 110.2 L 4.3 109.3 Z M 7.6 103.6 L 7.6 102.4 L 8.6 101.9 L 8.6 103.6 L 10 103.6 L 10 104.5 L 8.6 104.5 C 8.6 104.5 8.62 108.47 8.6 108.5 C 8.6 108.9 8.6 109.4 9.6 109.4 C 9.7 109.4 9.8 109.4 10.1 109.4 C 10.1 109.4 10.1 110.2 10.1 110.2 C 9.7 110.2 9.4 110.3 9 110.3 C 8 110.3 7.6 109.9 7.6 109.1 C 7.55 109.12 7.6 104.5 7.6 104.5 L 6.5 104.5 L 6.5 103.6 L 7.6 103.6 Z M 11.2 103.6 L 11.2 102.4 L 12.2 101.9 L 12.2 103.6 L 13.7 103.6 L 13.7 104.5 L 12.2 104.5 C 12.2 104.5 12.23 108.47 12.2 108.5 C 12.2 108.9 12.2 109.4 13.2 109.4 C 13.3 109.4 13.5 109.4 13.7 109.4 C 13.7 109.4 13.7 110.2 13.7 110.2 C 13.3 110.2 13 110.3 12.6 110.3 C 11.6 110.3 11.2 109.9 11.2 109.1 C 11.17 109.12 11.2 104.5 11.2 104.5 L 10.1 104.5 L 10.1 103.6 L 11.2 103.6 Z M 15.6 108.3 C 15.6 108.9 16 109.5 16.7 109.5 C 17.3 109.5 18.1 109.1 18 106.9 C 17 107 15.6 106.9 15.6 108.3 Z M 18 109.3 C 18 109.3 18.02 109.27 18 109.3 C 17.7 110 17.2 110.3 16.4 110.3 C 15 110.3 14.6 109.4 14.6 108.2 C 14.6 106.2 16.5 106.1 18 106.1 C 18 105.3 18.1 104.3 16.9 104.3 C 16.2 104.3 15.8 104.8 15.9 105.5 C 15.9 105.5 14.7 105.5 14.7 105.5 C 14.8 104 15.6 103.5 17 103.5 C 18.6 103.5 19.1 104.4 19.1 105.5 C 19.1 105.5 19.1 108.7 19.1 108.7 C 19.1 109.2 19.1 109.7 19.2 110.2 C 19.21 110.21 18 110.2 18 110.2 L 18 109.3 Z M 24.6 105.8 C 24.6 104.7 24.1 104.4 23.7 104.4 C 22.9 104.4 22.3 104.8 22.3 106.6 C 22.3 108.7 22.6 109.5 23.7 109.5 C 23.9 109.5 24.7 109.2 24.6 108 C 24.6 108 25.8 108 25.8 108 C 25.8 109.9 24.4 110.3 23.7 110.3 C 22.3 110.3 21.2 109.9 21.2 107 C 21.2 105.1 21.4 103.5 23.7 103.5 C 25 103.5 25.8 104.3 25.7 105.8 C 25.7 105.8 24.6 105.8 24.6 105.8 Z M 28.7 110.2 L 27.7 110.2 L 27.7 100.8 L 28.7 100.8 L 28.7 106.5 L 28.8 106.5 L 30.8 103.6 L 32.1 103.6 L 29.9 106.5 L 32.4 110.2 L 31.1 110.2 L 28.8 106.5 L 28.7 106.5 L 28.7 110.2 Z " stroke="none" fill="#003c71"/>  </g>  <g id="Polygon193567">    <path d="M 1.9 93.3 C 1.9 93.9 2.2 94.5 2.9 94.5 C 3.6 94.5 4.4 94.1 4.3 91.9 C 3.3 92 1.9 91.9 1.9 93.3 Z M 4.3 94.3 C 4.3 94.3 4.29 94.27 4.3 94.3 C 4 95 3.5 95.3 2.6 95.3 C 1.2 95.3 0.8 94.4 0.8 93.2 C 0.8 91.2 2.8 91.1 4.3 91.1 C 4.3 90.3 4.3 89.3 3.2 89.3 C 2.5 89.3 2.1 89.8 2.2 90.5 C 2.2 90.5 1 90.5 1 90.5 C 1.1 89 1.8 88.5 3.2 88.5 C 4.9 88.5 5.4 89.4 5.4 90.5 C 5.4 90.5 5.4 93.7 5.4 93.7 C 5.4 94.2 5.4 94.7 5.5 95.2 C 5.49 95.21 4.3 95.2 4.3 95.2 L 4.3 94.3 Z M 11 95.2 C 11 95.2 11 90.66 11 90.7 C 11 90 10.8 89.4 9.8 89.4 C 8.7 89.4 8.5 90.4 8.5 91.3 C 8.5 91.33 8.5 95.2 8.5 95.2 L 7.4 95.2 C 7.4 95.2 7.44 90.01 7.4 90 C 7.4 89.6 7.4 89.1 7.4 88.6 C 7.37 88.65 8.5 88.6 8.5 88.6 L 8.5 89.5 C 8.5 89.5 8.55 89.49 8.6 89.5 C 9 88.8 9.5 88.5 10.3 88.5 C 11.7 88.5 12.1 89.4 12.1 90.7 C 12.06 90.66 12.1 95.2 12.1 95.2 L 11 95.2 Z M 16.2 89.4 C 15 89.4 14.9 90.3 14.9 92.1 C 14.9 93 14.9 94.5 16.2 94.5 C 17.4 94.5 17.4 93 17.4 91.7 C 17.4 90.8 17.4 89.4 16.2 89.4 Z M 17.4 85.8 L 18.5 85.8 L 18.5 95.2 L 17.4 95.2 L 17.4 94.4 C 17.4 94.4 17.38 94.43 17.4 94.4 C 17 95 16.6 95.3 15.9 95.3 C 14.8 95.3 13.8 94.9 13.8 92 C 13.8 90.4 13.8 88.5 15.9 88.5 C 16.5 88.5 17 88.8 17.4 89.3 C 17.37 89.31 17.4 89.3 17.4 89.3 L 17.4 85.8 Z M 25.3 95.3 C 23.8 95.3 23 94.7 23 93.2 C 23 93.2 24.2 93.2 24.2 93.2 C 24.2 93.6 24.2 94.5 25.3 94.5 C 25.9 94.5 26.4 94.1 26.4 93.5 C 26.4 92.3 23.2 92.3 23.2 90.3 C 23.2 89.6 23.6 88.5 25.4 88.5 C 26.6 88.5 27.6 89.1 27.5 90.4 C 27.5 90.4 26.3 90.4 26.3 90.4 C 26.3 89.7 26 89.3 25.3 89.3 C 24.7 89.3 24.3 89.6 24.3 90.2 C 24.3 91.4 27.5 91.3 27.5 93.3 C 27.5 94.8 26.6 95.3 25.3 95.3 Z M 28.3 88.6 L 29.5 88.6 L 30.6 94.3 L 30.7 94.3 L 32.1 88.6 L 33.6 88.6 L 35 94.3 L 35 94.3 L 36.3 88.6 L 37.4 88.6 L 35.7 95.2 L 34.2 95.2 L 32.8 89.6 L 32.8 89.6 L 31.3 95.2 L 29.9 95.2 L 28.3 88.6 Z M 42.1 91.5 C 42.1 89.6 41.5 89.3 40.8 89.3 C 40.1 89.3 39.5 89.6 39.5 91.5 C 39.5 91.5 42.1 91.5 42.1 91.5 Z M 39.5 92.3 C 39.5 94.1 40 94.5 40.8 94.5 C 41.6 94.5 42 93.9 42 93.2 C 42 93.2 43.2 93.2 43.2 93.2 C 43.1 94.7 42.2 95.3 40.9 95.3 C 39.5 95.3 38.4 94.9 38.4 92 C 38.4 90.1 38.6 88.5 40.9 88.5 C 42.7 88.5 43.2 89.5 43.2 91.7 C 43.21 91.72 43.2 92.3 43.2 92.3 C 43.2 92.3 39.52 92.27 39.5 92.3 Z M 46 95.2 L 45 95.2 L 45 85.8 L 46 85.8 L 46 95.2 Z M 48.9 95.2 L 47.8 95.2 L 47.8 85.8 L 48.9 85.8 L 48.9 95.2 Z M 51.8 95.2 L 50.7 95.2 L 50.7 88.6 L 51.8 88.6 L 51.8 95.2 Z M 50.7 85.8 L 51.9 85.8 L 51.9 87 L 50.7 87 L 50.7 85.8 Z M 57.2 95.2 C 57.2 95.2 57.2 90.66 57.2 90.7 C 57.2 90 57 89.4 56 89.4 C 54.9 89.4 54.7 90.4 54.7 91.3 C 54.7 91.33 54.7 95.2 54.7 95.2 L 53.6 95.2 C 53.6 95.2 53.64 90.01 53.6 90 C 53.6 89.6 53.6 89.1 53.6 88.6 C 53.57 88.65 54.7 88.6 54.7 88.6 L 54.7 89.5 C 54.7 89.5 54.75 89.49 54.8 89.5 C 55.2 88.8 55.7 88.5 56.5 88.5 C 57.9 88.5 58.3 89.4 58.3 90.7 C 58.26 90.66 58.3 95.2 58.3 95.2 L 57.2 95.2 Z M 62.4 89.4 C 61.2 89.4 61.1 90.9 61.1 91.7 C 61.1 93.8 61.6 94.3 62.4 94.3 C 63.7 94.3 63.6 92.8 63.6 91.9 C 63.6 90.9 63.7 89.4 62.4 89.4 Z M 63.6 88.6 L 64.7 88.6 C 64.7 88.6 64.67 95.88 64.7 95.9 C 64.7 97.3 63.7 97.7 62.3 97.7 C 61.2 97.7 60.2 97.2 60.3 95.9 C 60.3 95.9 61.5 95.9 61.5 95.9 C 61.5 96.6 61.9 96.9 62.5 96.9 C 63.2 96.9 63.6 96.4 63.6 95.8 C 63.61 95.76 63.6 94.4 63.6 94.4 C 63.6 94.4 63.57 94.4 63.6 94.4 C 63.3 94.9 62.7 95.2 62.1 95.2 C 60.3 95.2 60 93.7 60 91.7 C 60 88.7 61.5 88.5 62 88.5 C 62.7 88.5 63.3 88.8 63.6 89.5 C 63.58 89.45 63.6 89.5 63.6 89.5 L 63.6 88.6 Z M 68.6 91.3 L 75.1 91.3 L 75.1 92.1 L 68.6 92.1 L 68.6 91.3 Z M 79.9 93.3 C 79.9 93.9 80.2 94.5 80.9 94.5 C 81.6 94.5 82.4 94.1 82.3 91.9 C 81.2 92 79.9 91.9 79.9 93.3 Z M 82.3 94.3 C 82.3 94.3 82.26 94.27 82.3 94.3 C 81.9 95 81.4 95.3 80.6 95.3 C 79.2 95.3 78.8 94.4 78.8 93.2 C 78.8 91.2 80.8 91.1 82.3 91.1 C 82.3 90.3 82.3 89.3 81.2 89.3 C 80.4 89.3 80.1 89.8 80.1 90.5 C 80.1 90.5 79 90.5 79 90.5 C 79 89 79.8 88.5 81.2 88.5 C 82.9 88.5 83.3 89.4 83.3 90.5 C 83.3 90.5 83.3 93.7 83.3 93.7 C 83.3 94.2 83.4 94.7 83.5 95.2 C 83.46 95.21 82.3 95.2 82.3 95.2 L 82.3 94.3 Z M 89 95.2 C 89 95.2 88.97 90.66 89 90.7 C 89 90 88.7 89.4 87.8 89.4 C 86.6 89.4 86.5 90.4 86.5 91.3 C 86.47 91.33 86.5 95.2 86.5 95.2 L 85.4 95.2 C 85.4 95.2 85.41 90.01 85.4 90 C 85.4 89.6 85.4 89.1 85.3 88.6 C 85.34 88.65 86.5 88.6 86.5 88.6 L 86.5 89.5 C 86.5 89.5 86.53 89.49 86.5 89.5 C 86.9 88.8 87.4 88.5 88.3 88.5 C 89.7 88.5 90 89.4 90 90.7 C 90.04 90.66 90 95.2 90 95.2 L 89 95.2 Z M 95 95.2 L 95 85.8 L 96.2 85.8 L 96.2 89.9 L 99.5 89.9 L 99.5 85.8 L 100.7 85.8 L 100.7 95.2 L 99.5 95.2 L 99.5 90.9 L 96.2 90.9 L 96.2 95.2 L 95 95.2 Z M 105 85.8 L 106.5 85.8 L 109.5 95.2 L 108.2 95.2 L 107.5 93 L 103.9 93 L 103.2 95.2 L 102 95.2 L 105 85.8 Z M 105.7 86.9 L 105.7 86.9 L 104.2 91.9 L 107.2 91.9 L 105.7 86.9 Z M 110.8 95.2 L 110.8 85.8 L 115.6 85.8 L 115.6 86.9 L 112 86.9 L 112 89.9 L 115.4 89.9 L 115.4 90.9 L 112 90.9 L 112 94.2 L 115.7 94.2 L 115.7 95.2 L 110.8 95.2 Z " stroke="none" fill="#003c71"/>  </g>  <g id="Polygon193566">    <path d="M 0.2 73.6 L 1.4 73.6 L 2.8 79.2 L 2.9 79.2 L 4.5 73.6 L 5.6 73.6 L 3.5 80.2 L 2.1 80.2 L 0.2 73.6 Z M 7.7 78.3 C 7.7 78.9 8 79.5 8.7 79.5 C 9.4 79.5 10.2 79.1 10.1 76.9 C 9 77 7.7 76.9 7.7 78.3 Z M 10.1 79.3 C 10.1 79.3 10.06 79.27 10.1 79.3 C 9.7 80 9.2 80.3 8.4 80.3 C 7 80.3 6.6 79.4 6.6 78.2 C 6.6 76.2 8.6 76.1 10.1 76.1 C 10.1 75.3 10.1 74.3 9 74.3 C 8.2 74.3 7.9 74.8 7.9 75.5 C 7.9 75.5 6.8 75.5 6.8 75.5 C 6.8 74 7.6 73.5 9 73.5 C 10.7 73.5 11.1 74.4 11.1 75.5 C 11.1 75.5 11.1 78.7 11.1 78.7 C 11.1 79.2 11.2 79.7 11.3 80.2 C 11.26 80.21 10.1 80.2 10.1 80.2 L 10.1 79.3 Z M 15.1 80.3 C 13.7 80.3 12.8 79.7 12.9 78.2 C 12.9 78.2 14.1 78.2 14.1 78.2 C 14.1 78.6 14.1 79.5 15.2 79.5 C 15.8 79.5 16.3 79.1 16.3 78.5 C 16.3 77.3 13 77.3 13 75.3 C 13 74.6 13.5 73.5 15.3 73.5 C 16.5 73.5 17.5 74.1 17.4 75.4 C 17.4 75.4 16.2 75.4 16.2 75.4 C 16.2 74.7 15.8 74.3 15.2 74.3 C 14.6 74.3 14.2 74.6 14.2 75.2 C 14.2 76.4 17.4 76.3 17.4 78.3 C 17.4 79.8 16.4 80.3 15.1 80.3 Z M 22.4 75.8 C 22.4 74.7 21.9 74.4 21.5 74.4 C 20.7 74.4 20.1 74.8 20.1 76.6 C 20.1 78.7 20.4 79.5 21.5 79.5 C 21.7 79.5 22.5 79.2 22.5 78 C 22.5 78 23.6 78 23.6 78 C 23.6 79.9 22.2 80.3 21.5 80.3 C 20.1 80.3 19 79.9 19 77 C 19 75.1 19.2 73.5 21.5 73.5 C 22.8 73.5 23.6 74.3 23.5 75.8 C 23.5 75.8 22.4 75.8 22.4 75.8 Z M 29 73.6 L 30.1 73.6 C 30.1 73.6 30.05 78.85 30.1 78.8 C 30.1 79.3 30.1 79.8 30.1 80.2 C 30.12 80.21 29 80.2 29 80.2 L 29 79.4 C 29 79.4 28.95 79.42 29 79.4 C 28.6 80 28 80.3 27.3 80.3 C 26.1 80.3 25.5 79.8 25.5 78.7 C 25.52 78.65 25.5 73.6 25.5 73.6 L 26.6 73.6 C 26.6 73.6 26.58 78.2 26.6 78.2 C 26.6 79 26.9 79.5 27.7 79.5 C 28.3 79.5 29 79.1 29 78 C 28.99 78 29 73.6 29 73.6 Z M 33 80.2 L 32 80.2 L 32 70.8 L 33 70.8 L 33 80.2 Z M 35.8 78.3 C 35.8 78.9 36.2 79.5 36.9 79.5 C 37.5 79.5 38.3 79.1 38.2 76.9 C 37.2 77 35.8 76.9 35.8 78.3 Z M 38.2 79.3 C 38.2 79.3 38.22 79.27 38.2 79.3 C 37.9 80 37.4 80.3 36.6 80.3 C 35.2 80.3 34.8 79.4 34.8 78.2 C 34.8 76.2 36.7 76.1 38.2 76.1 C 38.2 75.3 38.3 74.3 37.1 74.3 C 36.4 74.3 36 74.8 36.1 75.5 C 36.1 75.5 34.9 75.5 34.9 75.5 C 35 74 35.8 73.5 37.2 73.5 C 38.8 73.5 39.3 74.4 39.3 75.5 C 39.3 75.5 39.3 78.7 39.3 78.7 C 39.3 79.2 39.3 79.7 39.4 80.2 C 39.41 80.21 38.2 80.2 38.2 80.2 L 38.2 79.3 Z M 42.5 74.6 C 42.5 74.6 42.5 74.64 42.5 74.6 C 42.9 73.6 43.5 73.5 44.5 73.5 C 44.5 73.5 44.5 74.6 44.5 74.6 C 44.4 74.6 44.3 74.6 44.2 74.6 C 44.1 74.6 44.1 74.6 44 74.6 C 42.8 74.6 42.5 75.5 42.5 76.3 C 42.47 76.34 42.5 80.2 42.5 80.2 L 41.4 80.2 L 41.4 73.6 L 42.5 73.6 L 42.5 74.6 Z M 52.3 76.8 C 52.3 75.8 52.3 74.4 50.9 74.4 C 49.6 74.4 49.7 76.2 49.7 77.2 C 49.7 78.1 49.8 79.5 51 79.5 C 52.1 79.5 52.3 78.6 52.3 76.8 Z M 49.7 74.4 C 49.7 74.4 49.76 74.43 49.8 74.4 C 50.1 73.8 50.6 73.5 51.3 73.5 C 52.3 73.5 53.4 73.9 53.4 76.8 C 53.4 78.5 53.3 80.3 51.2 80.3 C 50.6 80.3 50.1 80.1 49.8 79.6 C 49.78 79.55 49.7 79.6 49.7 79.6 L 49.7 82.7 L 48.7 82.7 L 48.7 73.6 L 49.7 73.6 L 49.7 74.4 Z M 58.7 76.5 C 58.7 74.6 58.1 74.3 57.4 74.3 C 56.7 74.3 56.1 74.6 56.1 76.5 C 56.1 76.5 58.7 76.5 58.7 76.5 Z M 56.1 77.3 C 56.1 79.1 56.6 79.5 57.4 79.5 C 58.2 79.5 58.6 78.9 58.6 78.2 C 58.6 78.2 59.8 78.2 59.8 78.2 C 59.7 79.7 58.9 80.3 57.5 80.3 C 56.1 80.3 55 79.9 55 77 C 55 75.1 55.2 73.5 57.5 73.5 C 59.3 73.5 59.8 74.5 59.8 76.7 C 59.81 76.72 59.8 77.3 59.8 77.3 C 59.8 77.3 56.12 77.27 56.1 77.3 Z M 62.7 74.6 C 62.7 74.6 62.71 74.64 62.7 74.6 C 63.2 73.6 63.7 73.5 64.7 73.5 C 64.7 73.5 64.7 74.6 64.7 74.6 C 64.6 74.6 64.5 74.6 64.5 74.6 C 64.4 74.6 64.3 74.6 64.2 74.6 C 63 74.6 62.7 75.5 62.7 76.3 C 62.68 76.34 62.7 80.2 62.7 80.2 L 61.6 80.2 L 61.6 73.6 L 62.7 73.6 L 62.7 74.6 Z M 69.1 80.2 C 69.1 80.2 69.13 75.66 69.1 75.7 C 69.1 75 69 74.4 68.1 74.4 C 67.8 74.4 67.3 74.6 67.2 74.8 C 67 75.2 66.9 75.5 66.9 75.8 C 66.92 75.79 66.9 80.2 66.9 80.2 L 65.9 80.2 C 65.9 80.2 65.86 75.01 65.9 75 C 65.9 74.6 65.8 74.1 65.8 73.6 C 65.79 73.65 66.9 73.6 66.9 73.6 L 66.9 74.5 C 66.9 74.5 66.95 74.47 66.9 74.5 C 67.3 73.8 67.8 73.5 68.6 73.5 C 69.2 73.5 69.9 73.8 70.1 74.4 C 70.5 73.7 71.1 73.5 71.7 73.5 C 72.4 73.5 73.5 73.7 73.5 75.2 C 73.47 75.22 73.5 80.2 73.5 80.2 L 72.4 80.2 C 72.4 80.2 72.41 75.66 72.4 75.7 C 72.4 75 72.2 74.4 71.4 74.4 C 71 74.4 70.8 74.4 70.6 74.6 C 70.3 74.9 70.2 75.5 70.2 75.8 C 70.2 75.79 70.2 80.2 70.2 80.2 L 69.1 80.2 Z M 78.9 76.5 C 78.9 74.6 78.4 74.3 77.6 74.3 C 76.9 74.3 76.3 74.6 76.3 76.5 C 76.3 76.5 78.9 76.5 78.9 76.5 Z M 76.3 77.3 C 76.3 79.1 76.8 79.5 77.7 79.5 C 78.4 79.5 78.8 78.9 78.8 78.2 C 78.8 78.2 80 78.2 80 78.2 C 80 79.7 79.1 80.3 77.7 80.3 C 76.3 80.3 75.2 79.9 75.2 77 C 75.2 75.1 75.4 73.5 77.7 73.5 C 79.6 73.5 80 74.5 80 76.7 C 80.03 76.72 80 77.3 80 77.3 C 80 77.3 76.33 77.27 76.3 77.3 Z M 82.8 78.3 C 82.8 78.9 83.1 79.5 83.8 79.5 C 84.4 79.5 85.3 79.1 85.1 76.9 C 84.1 77 82.8 76.9 82.8 78.3 Z M 85.2 79.3 C 85.2 79.3 85.15 79.27 85.1 79.3 C 84.8 80 84.3 80.3 83.5 80.3 C 82.1 80.3 81.7 79.4 81.7 78.2 C 81.7 76.2 83.7 76.1 85.1 76.1 C 85.2 75.3 85.2 74.3 84 74.3 C 83.3 74.3 83 74.8 83 75.5 C 83 75.5 81.9 75.5 81.9 75.5 C 81.9 74 82.7 73.5 84.1 73.5 C 85.8 73.5 86.2 74.4 86.2 75.5 C 86.2 75.5 86.2 78.7 86.2 78.7 C 86.2 79.2 86.3 79.7 86.3 80.2 C 86.34 80.21 85.2 80.2 85.2 80.2 L 85.2 79.3 Z M 90.6 79.5 C 92 79.5 92 78 92 77.1 C 92 75.3 91.8 74.4 90.7 74.4 C 89.5 74.4 89.5 75.8 89.5 76.7 C 89.5 77.7 89.3 79.5 90.6 79.5 Z M 89.5 80.2 L 88.4 80.2 L 88.4 70.8 L 89.5 70.8 L 89.5 74.3 C 89.5 74.3 89.49 74.31 89.5 74.3 C 89.9 73.8 90.3 73.5 90.9 73.5 C 93.1 73.5 93.1 75.4 93.1 77 C 93.1 79.9 92 80.3 91 80.3 C 90.3 80.3 89.8 80 89.5 79.4 C 89.48 79.43 89.5 79.4 89.5 79.4 L 89.5 80.2 Z M 95.8 80.2 L 94.8 80.2 L 94.8 73.6 L 95.8 73.6 L 95.8 80.2 Z M 94.7 70.8 L 95.9 70.8 L 95.9 72 L 94.7 72 L 94.7 70.8 Z M 98.7 80.2 L 97.7 80.2 L 97.7 70.8 L 98.7 70.8 L 98.7 80.2 Z M 101.6 80.2 L 100.5 80.2 L 100.5 73.6 L 101.6 73.6 L 101.6 80.2 Z M 100.5 70.8 L 101.7 70.8 L 101.7 72 L 100.5 72 L 100.5 70.8 Z M 103.6 73.6 L 103.6 72.4 L 104.6 71.9 L 104.6 73.6 L 106.1 73.6 L 106.1 74.5 L 104.6 74.5 C 104.6 74.5 104.63 78.47 104.6 78.5 C 104.6 78.9 104.6 79.4 105.6 79.4 C 105.7 79.4 105.9 79.4 106.1 79.4 C 106.1 79.4 106.1 80.2 106.1 80.2 C 105.7 80.2 105.4 80.3 105 80.3 C 104 80.3 103.6 79.9 103.6 79.1 C 103.57 79.12 103.6 74.5 103.6 74.5 L 102.5 74.5 L 102.5 73.6 L 103.6 73.6 Z M 109 79 L 109.1 79 L 110.6 73.6 L 111.8 73.6 L 108.8 82.7 L 107.7 82.7 L 108.5 80.2 L 106.2 73.6 L 107.5 73.6 L 109 79 Z " stroke="none" fill="#003c71"/>  </g>  <g id="Polygon193565">    <path d="M 2 59.6 C 2 59.6 2.07 59.64 2.1 59.6 C 2.5 58.6 3.1 58.5 4.1 58.5 C 4.1 58.5 4.1 59.6 4.1 59.6 C 4 59.6 3.9 59.6 3.8 59.6 C 3.7 59.6 3.6 59.6 3.5 59.6 C 2.3 59.6 2 60.5 2 61.3 C 2.04 61.34 2 65.2 2 65.2 L 1 65.2 L 1 58.6 L 2 58.6 L 2 59.6 Z M 8.9 61.5 C 8.9 59.6 8.3 59.3 7.6 59.3 C 6.9 59.3 6.3 59.6 6.3 61.5 C 6.3 61.5 8.9 61.5 8.9 61.5 Z M 6.3 62.3 C 6.3 64.1 6.8 64.5 7.6 64.5 C 8.4 64.5 8.7 63.9 8.8 63.2 C 8.8 63.2 9.9 63.2 9.9 63.2 C 9.9 64.7 9 65.3 7.7 65.3 C 6.3 65.3 5.2 64.9 5.2 62 C 5.2 60.1 5.4 58.5 7.7 58.5 C 9.5 58.5 10 59.5 10 61.7 C 10 61.72 10 62.3 10 62.3 C 10 62.3 6.3 62.27 6.3 62.3 Z M 13.7 65.3 C 12.3 65.3 11.4 64.7 11.4 63.2 C 11.4 63.2 12.6 63.2 12.6 63.2 C 12.6 63.6 12.7 64.5 13.7 64.5 C 14.4 64.5 14.9 64.1 14.9 63.5 C 14.9 62.3 11.6 62.3 11.6 60.3 C 11.6 59.6 12 58.5 13.9 58.5 C 15 58.5 16 59.1 15.9 60.4 C 15.9 60.4 14.8 60.4 14.8 60.4 C 14.8 59.7 14.4 59.3 13.7 59.3 C 13.2 59.3 12.7 59.6 12.7 60.2 C 12.7 61.4 16 61.3 16 63.3 C 16 64.8 15 65.3 13.7 65.3 Z M 21 58.6 L 22.1 58.6 C 22.1 58.6 22.11 63.85 22.1 63.8 C 22.1 64.3 22.1 64.8 22.2 65.2 C 22.18 65.21 21 65.2 21 65.2 L 21 64.4 C 21 64.4 21.01 64.42 21 64.4 C 20.7 65 20 65.3 19.3 65.3 C 18.2 65.3 17.6 64.8 17.6 63.7 C 17.58 63.65 17.6 58.6 17.6 58.6 L 18.6 58.6 C 18.6 58.6 18.64 63.2 18.6 63.2 C 18.6 64 19 64.5 19.8 64.5 C 20.3 64.5 21 64.1 21 63 C 21.05 63 21 58.6 21 58.6 Z M 25.1 65.2 L 24 65.2 L 24 55.8 L 25.1 55.8 L 25.1 65.2 Z M 27 58.6 L 27 57.4 L 28.1 56.9 L 28.1 58.6 L 29.5 58.6 L 29.5 59.5 L 28.1 59.5 C 28.1 59.5 28.1 63.47 28.1 63.5 C 28.1 63.9 28.1 64.4 29.1 64.4 C 29.2 64.4 29.3 64.4 29.6 64.4 C 29.6 64.4 29.6 65.2 29.6 65.2 C 29.2 65.2 28.9 65.3 28.5 65.3 C 27.5 65.3 27 64.9 27 64.1 C 27.04 64.12 27 59.5 27 59.5 L 26 59.5 L 26 58.6 L 27 58.6 Z M 31.6 65.2 L 30.5 65.2 L 30.5 58.6 L 31.6 58.6 L 31.6 65.2 Z M 30.4 55.8 L 31.6 55.8 L 31.6 57 L 30.4 57 L 30.4 55.8 Z M 37 65.2 C 37 65.2 36.99 60.66 37 60.7 C 37 60 36.7 59.4 35.8 59.4 C 34.7 59.4 34.5 60.4 34.5 61.3 C 34.49 61.33 34.5 65.2 34.5 65.2 L 33.4 65.2 C 33.4 65.2 33.42 60.01 33.4 60 C 33.4 59.6 33.4 59.1 33.4 58.6 C 33.36 58.65 34.5 58.6 34.5 58.6 L 34.5 59.5 C 34.5 59.5 34.54 59.49 34.5 59.5 C 35 58.8 35.5 58.5 36.3 58.5 C 37.7 58.5 38 59.4 38 60.7 C 38.05 60.66 38 65.2 38 65.2 L 37 65.2 Z M 42.1 59.4 C 40.9 59.4 40.9 60.9 40.9 61.7 C 40.9 63.8 41.4 64.3 42.2 64.3 C 43.5 64.3 43.4 62.8 43.4 61.9 C 43.4 60.9 43.5 59.4 42.1 59.4 Z M 43.4 58.6 L 44.5 58.6 C 44.5 58.6 44.46 65.88 44.5 65.9 C 44.5 67.3 43.5 67.7 42 67.7 C 40.9 67.7 40 67.2 40.1 65.9 C 40.1 65.9 41.2 65.9 41.2 65.9 C 41.3 66.6 41.7 66.9 42.2 66.9 C 43 66.9 43.4 66.4 43.4 65.8 C 43.39 65.76 43.4 64.4 43.4 64.4 C 43.4 64.4 43.36 64.4 43.4 64.4 C 43.1 64.9 42.5 65.2 41.9 65.2 C 40.1 65.2 39.8 63.7 39.8 61.7 C 39.8 58.7 41.3 58.5 41.8 58.5 C 42.5 58.5 43.1 58.8 43.4 59.5 C 43.37 59.45 43.4 59.5 43.4 59.5 L 43.4 58.6 Z M 50.3 65.2 L 49.3 65.2 L 49.3 58.6 L 50.3 58.6 L 50.3 65.2 Z M 49.2 55.8 L 50.4 55.8 L 50.4 57 L 49.2 57 L 49.2 55.8 Z M 55.8 65.2 C 55.8 65.2 55.76 60.66 55.8 60.7 C 55.8 60 55.5 59.4 54.6 59.4 C 53.4 59.4 53.3 60.4 53.3 61.3 C 53.26 61.33 53.3 65.2 53.3 65.2 L 52.2 65.2 C 52.2 65.2 52.19 60.01 52.2 60 C 52.2 59.6 52.2 59.1 52.1 58.6 C 52.13 58.65 53.3 58.6 53.3 58.6 L 53.3 59.5 C 53.3 59.5 53.31 59.49 53.3 59.5 C 53.7 58.8 54.2 58.5 55.1 58.5 C 56.5 58.5 56.8 59.4 56.8 60.7 C 56.82 60.66 56.8 65.2 56.8 65.2 L 55.8 65.2 Z M 62.6 65.2 L 61.6 65.2 L 61.6 58.6 L 62.6 58.6 L 62.6 65.2 Z M 61.5 55.8 L 62.7 55.8 L 62.7 57 L 61.5 57 L 61.5 55.8 Z M 68 65.2 C 68 65.2 68.03 60.66 68 60.7 C 68 60 67.8 59.4 66.9 59.4 C 65.7 59.4 65.5 60.4 65.5 61.3 C 65.53 61.33 65.5 65.2 65.5 65.2 L 64.5 65.2 C 64.5 65.2 64.47 60.01 64.5 60 C 64.5 59.6 64.4 59.1 64.4 58.6 C 64.4 58.65 65.5 58.6 65.5 58.6 L 65.5 59.5 C 65.5 59.5 65.58 59.49 65.6 59.5 C 66 58.8 66.5 58.5 67.3 58.5 C 68.7 58.5 69.1 59.4 69.1 60.7 C 69.09 60.66 69.1 65.2 69.1 65.2 L 68 65.2 Z M 74.4 60.8 C 74.4 59.7 73.9 59.4 73.5 59.4 C 72.7 59.4 72.1 59.8 72.1 61.6 C 72.1 63.7 72.4 64.5 73.5 64.5 C 73.7 64.5 74.5 64.2 74.4 63 C 74.4 63 75.6 63 75.6 63 C 75.6 64.9 74.2 65.3 73.5 65.3 C 72.1 65.3 71 64.9 71 62 C 71 60.1 71.2 58.5 73.5 58.5 C 74.8 58.5 75.6 59.3 75.5 60.8 C 75.5 60.8 74.4 60.8 74.4 60.8 Z M 78.6 59.6 C 78.6 59.6 78.6 59.64 78.6 59.6 C 79 58.6 79.6 58.5 80.6 58.5 C 80.6 58.5 80.6 59.6 80.6 59.6 C 80.5 59.6 80.4 59.6 80.3 59.6 C 80.2 59.6 80.2 59.6 80.1 59.6 C 78.9 59.6 78.6 60.5 78.6 61.3 C 78.57 61.34 78.6 65.2 78.6 65.2 L 77.5 65.2 L 77.5 58.6 L 78.6 58.6 L 78.6 59.6 Z M 85.4 61.5 C 85.4 59.6 84.9 59.3 84.1 59.3 C 83.4 59.3 82.8 59.6 82.8 61.5 C 82.8 61.5 85.4 61.5 85.4 61.5 Z M 82.8 62.3 C 82.8 64.1 83.3 64.5 84.2 64.5 C 84.9 64.5 85.3 63.9 85.3 63.2 C 85.3 63.2 86.5 63.2 86.5 63.2 C 86.5 64.7 85.6 65.3 84.2 65.3 C 82.8 65.3 81.7 64.9 81.7 62 C 81.7 60.1 81.9 58.5 84.2 58.5 C 86.1 58.5 86.5 59.5 86.5 61.7 C 86.53 61.72 86.5 62.3 86.5 62.3 C 86.5 62.3 82.83 62.27 82.8 62.3 Z M 89.3 63.3 C 89.3 63.9 89.6 64.5 90.3 64.5 C 90.9 64.5 91.8 64.1 91.6 61.9 C 90.6 62 89.3 61.9 89.3 63.3 Z M 91.7 64.3 C 91.7 64.3 91.65 64.27 91.6 64.3 C 91.3 65 90.8 65.3 90 65.3 C 88.6 65.3 88.2 64.4 88.2 63.2 C 88.2 61.2 90.2 61.1 91.6 61.1 C 91.7 60.3 91.7 59.3 90.5 59.3 C 89.8 59.3 89.5 59.8 89.5 60.5 C 89.5 60.5 88.4 60.5 88.4 60.5 C 88.4 59 89.2 58.5 90.6 58.5 C 92.3 58.5 92.7 59.4 92.7 60.5 C 92.7 60.5 92.7 63.7 92.7 63.7 C 92.7 64.2 92.8 64.7 92.8 65.2 C 92.84 65.21 91.7 65.2 91.7 65.2 L 91.7 64.3 Z M 96.7 65.3 C 95.3 65.3 94.4 64.7 94.5 63.2 C 94.5 63.2 95.7 63.2 95.7 63.2 C 95.7 63.6 95.7 64.5 96.8 64.5 C 97.4 64.5 97.9 64.1 97.9 63.5 C 97.9 62.3 94.6 62.3 94.6 60.3 C 94.6 59.6 95 58.5 96.9 58.5 C 98.1 58.5 99.1 59.1 99 60.4 C 99 60.4 97.8 60.4 97.8 60.4 C 97.8 59.7 97.4 59.3 96.8 59.3 C 96.2 59.3 95.7 59.6 95.7 60.2 C 95.7 61.4 99 61.3 99 63.3 C 99 64.8 98 65.3 96.7 65.3 Z M 104.2 61.5 C 104.2 59.6 103.6 59.3 102.9 59.3 C 102.2 59.3 101.6 59.6 101.6 61.5 C 101.6 61.5 104.2 61.5 104.2 61.5 Z M 101.6 62.3 C 101.6 64.1 102.1 64.5 102.9 64.5 C 103.7 64.5 104 63.9 104.1 63.2 C 104.1 63.2 105.2 63.2 105.2 63.2 C 105.2 64.7 104.3 65.3 103 65.3 C 101.6 65.3 100.5 64.9 100.5 62 C 100.5 60.1 100.7 58.5 103 58.5 C 104.8 58.5 105.3 59.5 105.3 61.7 C 105.3 61.72 105.3 62.3 105.3 62.3 C 105.3 62.3 101.61 62.27 101.6 62.3 Z M 109.3 59.4 C 108.2 59.4 108 60.3 108 62.1 C 108 63 108 64.5 109.3 64.5 C 110.5 64.5 110.5 63 110.5 61.7 C 110.5 60.8 110.5 59.4 109.3 59.4 Z M 110.5 55.8 L 111.6 55.8 L 111.6 65.2 L 110.5 65.2 L 110.5 64.4 C 110.5 64.4 110.51 64.43 110.5 64.4 C 110.1 65 109.7 65.3 109 65.3 C 107.9 65.3 106.9 64.9 106.9 62 C 106.9 60.4 106.9 58.5 109.1 58.5 C 109.7 58.5 110.1 58.8 110.5 59.3 C 110.5 59.31 110.5 59.3 110.5 59.3 L 110.5 55.8 Z " stroke="none" fill="#003c71"/>  </g>  <g id="Polygon193564">    <path d="M 2.4 49.2 C 2.4 49.2 4.06 49.17 4.1 49.2 C 5.3 49.2 5.8 48.3 5.8 47.6 C 5.8 46.1 4.9 45.8 3.6 45.8 C 3.64 45.82 2.4 45.8 2.4 45.8 L 2.4 49.2 Z M 2.4 44.8 C 2.4 44.8 4.11 44.78 4.1 44.8 C 5 44.8 5.5 44.2 5.5 43.3 C 5.5 42.5 5.1 41.9 4.1 41.9 C 4.06 41.87 2.4 41.9 2.4 41.9 L 2.4 44.8 Z M 1.2 50.2 L 1.2 40.8 C 1.2 40.8 4.23 40.83 4.2 40.8 C 5.5 40.8 6 41.3 6.3 41.8 C 6.6 42.3 6.7 42.9 6.7 43 C 6.7 44.2 6.3 45 5.1 45.3 C 5.1 45.3 5.1 45.3 5.1 45.3 C 6.4 45.5 7 46.3 7 47.6 C 7 50 5.3 50.2 4.2 50.2 C 4.19 50.21 1.2 50.2 1.2 50.2 Z M 10 44.6 C 10 44.6 10.01 44.64 10 44.6 C 10.5 43.6 11 43.5 12 43.5 C 12 43.5 12 44.6 12 44.6 C 11.9 44.6 11.8 44.6 11.8 44.6 C 11.7 44.6 11.6 44.6 11.5 44.6 C 10.3 44.6 10 45.5 10 46.3 C 9.98 46.34 10 50.2 10 50.2 L 8.9 50.2 L 8.9 43.6 L 10 43.6 L 10 44.6 Z M 14.2 48.3 C 14.2 48.9 14.5 49.5 15.2 49.5 C 15.9 49.5 16.7 49.1 16.6 46.9 C 15.5 47 14.2 46.9 14.2 48.3 Z M 16.6 49.3 C 16.6 49.3 16.56 49.27 16.6 49.3 C 16.2 50 15.7 50.3 14.9 50.3 C 13.5 50.3 13.1 49.4 13.1 48.2 C 13.1 46.2 15.1 46.1 16.6 46.1 C 16.6 45.3 16.6 44.3 15.5 44.3 C 14.7 44.3 14.4 44.8 14.4 45.5 C 14.4 45.5 13.3 45.5 13.3 45.5 C 13.3 44 14.1 43.5 15.5 43.5 C 17.2 43.5 17.6 44.4 17.6 45.5 C 17.6 45.5 17.6 48.7 17.6 48.7 C 17.6 49.2 17.7 49.7 17.8 50.2 C 17.76 50.21 16.6 50.2 16.6 50.2 L 16.6 49.3 Z M 21.9 44.4 C 20.8 44.4 20.6 45.3 20.6 47.1 C 20.6 48 20.6 49.5 22 49.5 C 23.2 49.5 23.2 48 23.2 46.7 C 23.2 45.8 23.1 44.4 21.9 44.4 Z M 23.2 40.8 L 24.2 40.8 L 24.2 50.2 L 23.2 50.2 L 23.2 49.4 C 23.2 49.4 23.15 49.43 23.2 49.4 C 22.8 50 22.3 50.3 21.6 50.3 C 20.6 50.3 19.5 49.9 19.5 47 C 19.5 45.4 19.6 43.5 21.7 43.5 C 22.3 43.5 22.8 43.8 23.1 44.3 C 23.14 44.31 23.2 44.3 23.2 44.3 L 23.2 40.8 Z M 28.2 49 L 28.2 49 L 29.8 43.6 L 30.9 43.6 L 28 52.7 L 26.9 52.7 L 27.6 50.2 L 25.4 43.6 L 26.6 43.6 L 28.2 49 Z M 33 50.2 L 32 50.2 L 32 40.8 L 33 40.8 L 33 46.5 L 33.1 46.5 L 35.1 43.6 L 36.4 43.6 L 34.2 46.5 L 36.8 50.2 L 35.4 50.2 L 33.1 46.5 L 33 46.5 L 33 50.2 Z M 38.8 50.2 L 37.7 50.2 L 37.7 43.6 L 38.8 43.6 L 38.8 50.2 Z M 37.7 40.8 L 38.9 40.8 L 38.9 42 L 37.7 42 L 37.7 40.8 Z M 44.2 50.2 C 44.2 50.2 44.2 45.66 44.2 45.7 C 44.2 45 44 44.4 43 44.4 C 41.9 44.4 41.7 45.4 41.7 46.3 C 41.7 46.33 41.7 50.2 41.7 50.2 L 40.6 50.2 C 40.6 50.2 40.64 45.01 40.6 45 C 40.6 44.6 40.6 44.1 40.6 43.6 C 40.57 43.65 41.7 43.6 41.7 43.6 L 41.7 44.5 C 41.7 44.5 41.75 44.49 41.8 44.5 C 42.2 43.8 42.7 43.5 43.5 43.5 C 44.9 43.5 45.3 44.4 45.3 45.7 C 45.26 45.66 45.3 50.2 45.3 50.2 L 44.2 50.2 Z M 48.2 50.2 L 47.1 50.2 L 47.1 43.6 L 48.2 43.6 L 48.2 50.2 Z M 47 40.8 L 48.2 40.8 L 48.2 42 L 47 42 L 47 40.8 Z M 53.6 50.2 C 53.6 50.2 53.59 45.66 53.6 45.7 C 53.6 45 53.3 44.4 52.4 44.4 C 51.3 44.4 51.1 45.4 51.1 46.3 C 51.09 46.33 51.1 50.2 51.1 50.2 L 50 50.2 C 50 50.2 50.02 45.01 50 45 C 50 44.6 50 44.1 50 43.6 C 49.96 43.65 51.1 43.6 51.1 43.6 L 51.1 44.5 C 51.1 44.5 51.14 44.49 51.1 44.5 C 51.6 43.8 52.1 43.5 52.9 43.5 C 54.3 43.5 54.7 44.4 54.7 45.7 C 54.65 45.66 54.7 50.2 54.7 50.2 L 53.6 50.2 Z M 60.8 49.2 C 60.8 49.2 62.53 49.17 62.5 49.2 C 63.8 49.2 64.3 48.3 64.3 47.6 C 64.3 46.1 63.3 45.8 62.1 45.8 C 62.11 45.82 60.8 45.8 60.8 45.8 L 60.8 49.2 Z M 60.8 44.8 C 60.8 44.8 62.58 44.78 62.6 44.8 C 63.5 44.8 64 44.2 64 43.3 C 64 42.5 63.5 41.9 62.5 41.9 C 62.53 41.87 60.8 41.9 60.8 41.9 L 60.8 44.8 Z M 59.6 50.2 L 59.6 40.8 C 59.6 40.8 62.7 40.83 62.7 40.8 C 64 40.8 64.4 41.3 64.8 41.8 C 65.1 42.3 65.2 42.9 65.2 43 C 65.2 44.2 64.8 45 63.6 45.3 C 63.6 45.3 63.6 45.3 63.6 45.3 C 64.9 45.5 65.5 46.3 65.5 47.6 C 65.5 50 63.7 50.2 62.7 50.2 C 62.66 50.21 59.6 50.2 59.6 50.2 Z M 67 50.2 C 67 50.2 66.98 49.17 67 49.2 C 69.6 45.5 70.4 44.8 70.4 43.2 C 70.4 42.5 70 42 69.3 42 C 68.4 42 68.2 42.8 68.2 43.5 C 68.2 43.5 67 43.5 67 43.5 C 66.9 42 67.7 41 69.2 41 C 70.8 41 71.6 41.8 71.6 43.4 C 71.6 45.4 70.6 46.1 68.2 49.2 C 68.25 49.17 71.8 49.2 71.8 49.2 L 71.8 50.2 L 67 50.2 Z M 77.1 44.6 C 77.1 44.6 77.14 44.64 77.1 44.6 C 77.6 43.6 78.1 43.5 79.2 43.5 C 79.2 43.5 79.2 44.6 79.2 44.6 C 79.1 44.6 79 44.6 78.9 44.6 C 78.8 44.6 78.7 44.6 78.6 44.6 C 77.4 44.6 77.1 45.5 77.1 46.3 C 77.11 46.34 77.1 50.2 77.1 50.2 L 76 50.2 L 76 43.6 L 77.1 43.6 L 77.1 44.6 Z M 83.9 46.5 C 83.9 44.6 83.4 44.3 82.6 44.3 C 81.9 44.3 81.4 44.6 81.4 46.5 C 81.4 46.5 83.9 46.5 83.9 46.5 Z M 81.4 47.3 C 81.4 49.1 81.9 49.5 82.7 49.5 C 83.4 49.5 83.8 48.9 83.8 48.2 C 83.8 48.2 85 48.2 85 48.2 C 85 49.7 84.1 50.3 82.7 50.3 C 81.3 50.3 80.2 49.9 80.2 47 C 80.2 45.1 80.5 43.5 82.7 43.5 C 84.6 43.5 85.1 44.5 85.1 46.7 C 85.07 46.72 85.1 47.3 85.1 47.3 C 85.1 47.3 81.38 47.27 81.4 47.3 Z M 90.3 45.8 C 90.3 44.7 89.8 44.4 89.4 44.4 C 88.5 44.4 88 44.8 88 46.6 C 88 48.7 88.3 49.5 89.4 49.5 C 89.6 49.5 90.3 49.2 90.3 48 C 90.3 48 91.4 48 91.4 48 C 91.5 49.9 90.1 50.3 89.4 50.3 C 88 50.3 86.9 49.9 86.9 47 C 86.9 45.1 87.1 43.5 89.4 43.5 C 90.7 43.5 91.4 44.3 91.4 45.8 C 91.4 45.8 90.3 45.8 90.3 45.8 Z M 96.9 46.5 C 96.9 44.6 96.4 44.3 95.6 44.3 C 94.9 44.3 94.4 44.6 94.4 46.5 C 94.4 46.5 96.9 46.5 96.9 46.5 Z M 94.4 47.3 C 94.4 49.1 94.9 49.5 95.7 49.5 C 96.4 49.5 96.8 48.9 96.8 48.2 C 96.8 48.2 98 48.2 98 48.2 C 98 49.7 97.1 50.3 95.7 50.3 C 94.3 50.3 93.2 49.9 93.2 47 C 93.2 45.1 93.5 43.5 95.7 43.5 C 97.6 43.5 98.1 44.5 98.1 46.7 C 98.07 46.72 98.1 47.3 98.1 47.3 C 98.1 47.3 94.38 47.27 94.4 47.3 Z M 103.5 46.8 C 103.5 45.8 103.5 44.4 102.2 44.4 C 100.9 44.4 101 46.2 101 47.2 C 101 48.1 101 49.5 102.2 49.5 C 103.4 49.5 103.5 48.6 103.5 46.8 Z M 101 44.4 C 101 44.4 101.02 44.43 101 44.4 C 101.4 43.8 101.8 43.5 102.5 43.5 C 103.6 43.5 104.6 43.9 104.6 46.8 C 104.6 48.5 104.6 50.3 102.5 50.3 C 101.9 50.3 101.4 50.1 101 49.6 C 101.03 49.55 101 49.6 101 49.6 L 101 52.7 L 99.9 52.7 L 99.9 43.6 L 101 43.6 L 101 44.4 Z M 106.5 43.6 L 106.5 42.4 L 107.5 41.9 L 107.5 43.6 L 109 43.6 L 109 44.5 L 107.5 44.5 C 107.5 44.5 107.52 48.47 107.5 48.5 C 107.5 48.9 107.5 49.4 108.5 49.4 C 108.6 49.4 108.7 49.4 109 49.4 C 109 49.4 109 50.2 109 50.2 C 108.6 50.2 108.3 50.3 107.9 50.3 C 106.9 50.3 106.5 49.9 106.5 49.1 C 106.46 49.12 106.5 44.5 106.5 44.5 L 105.4 44.5 L 105.4 43.6 L 106.5 43.6 Z M 113.6 46.6 C 113.6 44.8 113.1 44.4 112.3 44.4 C 111.4 44.4 110.9 44.8 110.9 46.6 C 110.9 48.7 111.2 49.5 112.3 49.5 C 113.4 49.5 113.6 48.7 113.6 46.6 Z M 109.8 47 C 109.8 45.1 110 43.5 112.3 43.5 C 114.5 43.5 114.8 45.1 114.8 47 C 114.8 49.9 113.7 50.3 112.3 50.3 C 110.9 50.3 109.8 49.9 109.8 47 Z M 117.6 44.6 C 117.6 44.6 117.58 44.64 117.6 44.6 C 118 43.6 118.6 43.5 119.6 43.5 C 119.6 43.5 119.6 44.6 119.6 44.6 C 119.5 44.6 119.4 44.6 119.3 44.6 C 119.2 44.6 119.1 44.6 119 44.6 C 117.9 44.6 117.6 45.5 117.6 46.3 C 117.56 46.34 117.6 50.2 117.6 50.2 L 116.5 50.2 L 116.5 43.6 L 117.6 43.6 L 117.6 44.6 Z M 122.7 50.3 C 121.3 50.3 120.4 49.7 120.5 48.2 C 120.5 48.2 121.7 48.2 121.7 48.2 C 121.7 48.6 121.7 49.5 122.8 49.5 C 123.4 49.5 123.9 49.1 123.9 48.5 C 123.9 47.3 120.6 47.3 120.6 45.3 C 120.6 44.6 121 43.5 122.9 43.5 C 124 43.5 125 44.1 125 45.4 C 125 45.4 123.8 45.4 123.8 45.4 C 123.8 44.7 123.4 44.3 122.7 44.3 C 122.2 44.3 121.7 44.6 121.7 45.2 C 121.7 46.4 125 46.3 125 48.3 C 125 49.8 124 50.3 122.7 50.3 Z " stroke="none" fill="#003c71"/>  </g>  <g id="Polygon193563">    <path d="M 2.4 34.2 C 2.4 34.2 4.06 34.17 4.1 34.2 C 5.3 34.2 5.8 33.3 5.8 32.6 C 5.8 31.1 4.9 30.8 3.6 30.8 C 3.64 30.82 2.4 30.8 2.4 30.8 L 2.4 34.2 Z M 2.4 29.8 C 2.4 29.8 4.11 29.78 4.1 29.8 C 5 29.8 5.5 29.2 5.5 28.3 C 5.5 27.5 5.1 26.9 4.1 26.9 C 4.06 26.87 2.4 26.9 2.4 26.9 L 2.4 29.8 Z M 1.2 35.2 L 1.2 25.8 C 1.2 25.8 4.23 25.83 4.2 25.8 C 5.5 25.8 6 26.3 6.3 26.8 C 6.6 27.3 6.7 27.9 6.7 28 C 6.7 29.2 6.3 30 5.1 30.3 C 5.1 30.3 5.1 30.3 5.1 30.3 C 6.4 30.5 7 31.3 7 32.6 C 7 35 5.3 35.2 4.2 35.2 C 4.19 35.21 1.2 35.2 1.2 35.2 Z M 10 29.6 C 10 29.6 10.01 29.64 10 29.6 C 10.5 28.6 11 28.5 12 28.5 C 12 28.5 12 29.6 12 29.6 C 11.9 29.6 11.8 29.6 11.8 29.6 C 11.7 29.6 11.6 29.6 11.5 29.6 C 10.3 29.6 10 30.5 10 31.3 C 9.98 31.34 10 35.2 10 35.2 L 8.9 35.2 L 8.9 28.6 L 10 28.6 L 10 29.6 Z M 14.2 33.3 C 14.2 33.9 14.5 34.5 15.2 34.5 C 15.9 34.5 16.7 34.1 16.6 31.9 C 15.5 32 14.2 31.9 14.2 33.3 Z M 16.6 34.3 C 16.6 34.3 16.56 34.27 16.6 34.3 C 16.2 35 15.7 35.3 14.9 35.3 C 13.5 35.3 13.1 34.4 13.1 33.2 C 13.1 31.2 15.1 31.1 16.6 31.1 C 16.6 30.3 16.6 29.3 15.5 29.3 C 14.7 29.3 14.4 29.8 14.4 30.5 C 14.4 30.5 13.3 30.5 13.3 30.5 C 13.3 29 14.1 28.5 15.5 28.5 C 17.2 28.5 17.6 29.4 17.6 30.5 C 17.6 30.5 17.6 33.7 17.6 33.7 C 17.6 34.2 17.7 34.7 17.8 35.2 C 17.76 35.21 16.6 35.2 16.6 35.2 L 16.6 34.3 Z M 21.9 29.4 C 20.8 29.4 20.6 30.3 20.6 32.1 C 20.6 33 20.6 34.5 22 34.5 C 23.2 34.5 23.2 33 23.2 31.7 C 23.2 30.8 23.1 29.4 21.9 29.4 Z M 23.2 25.8 L 24.2 25.8 L 24.2 35.2 L 23.2 35.2 L 23.2 34.4 C 23.2 34.4 23.15 34.43 23.2 34.4 C 22.8 35 22.3 35.3 21.6 35.3 C 20.6 35.3 19.5 34.9 19.5 32 C 19.5 30.4 19.6 28.5 21.7 28.5 C 22.3 28.5 22.8 28.8 23.1 29.3 C 23.14 29.31 23.2 29.3 23.2 29.3 L 23.2 25.8 Z M 28.2 34 L 28.2 34 L 29.8 28.6 L 30.9 28.6 L 28 37.7 L 26.9 37.7 L 27.6 35.2 L 25.4 28.6 L 26.6 28.6 L 28.2 34 Z M 33 35.2 L 32 35.2 L 32 25.8 L 33 25.8 L 33 31.5 L 33.1 31.5 L 35.1 28.6 L 36.4 28.6 L 34.2 31.5 L 36.8 35.2 L 35.4 35.2 L 33.1 31.5 L 33 31.5 L 33 35.2 Z M 38.8 35.2 L 37.7 35.2 L 37.7 28.6 L 38.8 28.6 L 38.8 35.2 Z M 37.7 25.8 L 38.9 25.8 L 38.9 27 L 37.7 27 L 37.7 25.8 Z M 44.2 35.2 C 44.2 35.2 44.2 30.66 44.2 30.7 C 44.2 30 44 29.4 43 29.4 C 41.9 29.4 41.7 30.4 41.7 31.3 C 41.7 31.33 41.7 35.2 41.7 35.2 L 40.6 35.2 C 40.6 35.2 40.64 30.01 40.6 30 C 40.6 29.6 40.6 29.1 40.6 28.6 C 40.57 28.65 41.7 28.6 41.7 28.6 L 41.7 29.5 C 41.7 29.5 41.75 29.49 41.8 29.5 C 42.2 28.8 42.7 28.5 43.5 28.5 C 44.9 28.5 45.3 29.4 45.3 30.7 C 45.26 30.66 45.3 35.2 45.3 35.2 L 44.2 35.2 Z M 48.2 35.2 L 47.1 35.2 L 47.1 28.6 L 48.2 28.6 L 48.2 35.2 Z M 47 25.8 L 48.2 25.8 L 48.2 27 L 47 27 L 47 25.8 Z M 53.6 35.2 C 53.6 35.2 53.59 30.66 53.6 30.7 C 53.6 30 53.3 29.4 52.4 29.4 C 51.3 29.4 51.1 30.4 51.1 31.3 C 51.09 31.33 51.1 35.2 51.1 35.2 L 50 35.2 C 50 35.2 50.02 30.01 50 30 C 50 29.6 50 29.1 50 28.6 C 49.96 28.65 51.1 28.6 51.1 28.6 L 51.1 29.5 C 51.1 29.5 51.14 29.49 51.1 29.5 C 51.6 28.8 52.1 28.5 52.9 28.5 C 54.3 28.5 54.7 29.4 54.7 30.7 C 54.65 30.66 54.7 35.2 54.7 35.2 L 53.6 35.2 Z M 60.4 33.3 C 60.4 33.9 60.7 34.5 61.4 34.5 C 62.1 34.5 62.9 34.1 62.8 31.9 C 61.7 32 60.4 31.9 60.4 33.3 Z M 62.8 34.3 C 62.8 34.3 62.76 34.27 62.8 34.3 C 62.4 35 61.9 35.3 61.1 35.3 C 59.7 35.3 59.3 34.4 59.3 33.2 C 59.3 31.2 61.3 31.1 62.8 31.1 C 62.8 30.3 62.8 29.3 61.7 29.3 C 60.9 29.3 60.6 29.8 60.6 30.5 C 60.6 30.5 59.5 30.5 59.5 30.5 C 59.5 29 60.3 28.5 61.7 28.5 C 63.4 28.5 63.8 29.4 63.8 30.5 C 63.8 30.5 63.8 33.7 63.8 33.7 C 63.8 34.2 63.9 34.7 64 35.2 C 63.96 35.21 62.8 35.2 62.8 35.2 L 62.8 34.3 Z M 69.3 30.8 C 69.4 29.7 68.8 29.4 68.4 29.4 C 67.6 29.4 67.1 29.8 67.1 31.6 C 67.1 33.7 67.3 34.5 68.4 34.5 C 68.7 34.5 69.4 34.2 69.4 33 C 69.4 33 70.5 33 70.5 33 C 70.5 34.9 69.2 35.3 68.4 35.3 C 67 35.3 65.9 34.9 65.9 32 C 65.9 30.1 66.2 28.5 68.4 28.5 C 69.7 28.5 70.5 29.3 70.4 30.8 C 70.4 30.8 69.3 30.8 69.3 30.8 Z M 72.5 28.6 L 72.5 27.4 L 73.6 26.9 L 73.6 28.6 L 75 28.6 L 75 29.5 L 73.6 29.5 C 73.6 29.5 73.59 33.47 73.6 33.5 C 73.6 33.9 73.6 34.4 74.6 34.4 C 74.6 34.4 74.8 34.4 75 34.4 C 75 34.4 75 35.2 75 35.2 C 74.7 35.2 74.3 35.3 74 35.3 C 73 35.3 72.5 34.9 72.5 34.1 C 72.53 34.12 72.5 29.5 72.5 29.5 L 71.4 29.5 L 71.4 28.6 L 72.5 28.6 Z M 77.1 35.2 L 76 35.2 L 76 28.6 L 77.1 28.6 L 77.1 35.2 Z M 75.9 25.8 L 77.1 25.8 L 77.1 27 L 75.9 27 L 75.9 25.8 Z M 78.2 28.6 L 79.4 28.6 L 80.8 34.2 L 80.8 34.2 L 82.4 28.6 L 83.5 28.6 L 81.5 35.2 L 80.1 35.2 L 78.2 28.6 Z M 85.7 33.3 C 85.7 33.9 86 34.5 86.7 34.5 C 87.3 34.5 88.1 34.1 88 31.9 C 87 32 85.7 31.9 85.7 33.3 Z M 88.1 34.3 C 88.1 34.3 88.04 34.27 88 34.3 C 87.7 35 87.2 35.3 86.4 35.3 C 85 35.3 84.6 34.4 84.6 33.2 C 84.6 31.2 86.5 31.1 88 31.1 C 88.1 30.3 88.1 29.3 86.9 29.3 C 86.2 29.3 85.8 29.8 85.9 30.5 C 85.9 30.5 84.7 30.5 84.7 30.5 C 84.8 29 85.6 28.5 87 28.5 C 88.7 28.5 89.1 29.4 89.1 30.5 C 89.1 30.5 89.1 33.7 89.1 33.7 C 89.1 34.2 89.2 34.7 89.2 35.2 C 89.23 35.21 88.1 35.2 88.1 35.2 L 88.1 34.3 Z M 91.3 28.6 L 91.3 27.4 L 92.4 26.9 L 92.4 28.6 L 93.8 28.6 L 93.8 29.5 L 92.4 29.5 C 92.4 29.5 92.36 33.47 92.4 33.5 C 92.4 33.9 92.4 34.4 93.3 34.4 C 93.4 34.4 93.6 34.4 93.8 34.4 C 93.8 34.4 93.8 35.2 93.8 35.2 C 93.5 35.2 93.1 35.3 92.8 35.3 C 91.8 35.3 91.3 34.9 91.3 34.1 C 91.3 34.12 91.3 29.5 91.3 29.5 L 90.2 29.5 L 90.2 28.6 L 91.3 28.6 Z M 98.4 31.5 C 98.4 29.6 97.9 29.3 97.1 29.3 C 96.4 29.3 95.8 29.6 95.8 31.5 C 95.8 31.5 98.4 31.5 98.4 31.5 Z M 95.8 32.3 C 95.8 34.1 96.3 34.5 97.2 34.5 C 97.9 34.5 98.3 33.9 98.3 33.2 C 98.3 33.2 99.5 33.2 99.5 33.2 C 99.5 34.7 98.6 35.3 97.2 35.3 C 95.8 35.3 94.7 34.9 94.7 32 C 94.7 30.1 94.9 28.5 97.2 28.5 C 99.1 28.5 99.5 29.5 99.5 31.7 C 99.53 31.72 99.5 32.3 99.5 32.3 C 99.5 32.3 95.83 32.27 95.8 32.3 Z M 103.2 35.3 C 101.8 35.3 100.9 34.7 101 33.2 C 101 33.2 102.2 33.2 102.2 33.2 C 102.2 33.6 102.2 34.5 103.3 34.5 C 103.9 34.5 104.4 34.1 104.4 33.5 C 104.4 32.3 101.1 32.3 101.1 30.3 C 101.1 29.6 101.5 28.5 103.4 28.5 C 104.6 28.5 105.6 29.1 105.5 30.4 C 105.5 30.4 104.3 30.4 104.3 30.4 C 104.3 29.7 103.9 29.3 103.3 29.3 C 102.7 29.3 102.2 29.6 102.2 30.2 C 102.2 31.4 105.5 31.3 105.5 33.3 C 105.5 34.8 104.5 35.3 103.2 35.3 Z " stroke="none" fill="#003c71"/>  </g></svg>