<?xml version="1.0" standalone="no"?><!DOCTYPE svg PUBLIC "-//W3C//DTD SVG 1.1//EN" "http://www.w3.org/Graphics/SVG/1.1/DTD/svg11.dtd"><svg xmlns="http://www.w3.org/2000/svg" version="1.1" width="750px" height="54.3px" viewBox="0 -1 750 54.3" style="top:-1px">  <desc>ANDEMBRY® DEMONSTRATED CLINICALLY MEANINGFUL IMPROVEMENT IN QoL1 4*</desc>  <defs/>  <g id="Polygon197526">    <path d="M 5.1 16 L 8.6 16 L 13 37.7 L 10 37.7 L 9 32.2 L 4.3 32.2 L 3.3 37.7 L 0.3 37.7 L 5.1 16 Z M 4.8 29.7 L 8.6 29.7 L 6.7 19.2 L 6.7 19.2 L 4.8 29.7 Z M 14.1 16 L 18.3 16 L 21.8 34 L 21.9 34 L 21.9 16 L 24.7 16 L 24.7 37.7 L 20.4 37.7 L 16.8 19.2 L 16.8 19.2 L 16.8 37.7 L 14.1 37.7 L 14.1 16 Z M 29.6 35.2 C 29.6 35.2 31.05 35.18 31 35.2 C 33.3 35.2 33.7 34 33.7 30.3 C 33.7 30.3 33.7 22.8 33.7 22.8 C 33.7 19.6 33.4 18.6 30.8 18.6 C 30.81 18.56 29.6 18.6 29.6 18.6 L 29.6 35.2 Z M 26.6 16 C 26.6 16 31.44 16.04 31.4 16 C 36.3 16 36.7 17.7 36.7 24 C 36.7 24 36.7 30.4 36.7 30.4 C 36.7 36 35.7 37.7 31 37.7 C 30.96 37.7 26.6 37.7 26.6 37.7 L 26.6 16 Z M 38.5 16 L 46.7 16 L 46.7 18.6 L 41.5 18.6 L 41.5 25.3 L 46.4 25.3 L 46.4 27.9 L 41.5 27.9 L 41.5 35.2 L 46.7 35.2 L 46.7 37.7 L 38.5 37.7 L 38.5 16 Z M 47.7 16 L 52.4 16 L 55.2 32.5 L 55.3 32.5 L 58 16 L 62.7 16 L 62.7 37.7 L 59.8 37.7 L 59.8 18.2 L 59.8 18.2 L 56.7 37.7 L 53.7 37.7 L 50.4 18.2 L 50.3 18.2 L 50.3 37.7 L 47.7 37.7 L 47.7 16 Z M 64.6 16 C 64.6 16 69.81 16.04 69.8 16 C 73.5 16 74.1 17.3 74.1 21.3 C 74.1 25.5 73.4 26.2 71.4 26.5 C 71.4 26.5 71.4 26.6 71.4 26.6 C 73.8 27 74.3 27.8 74.3 31.5 C 74.3 36.2 73.7 37.7 69.3 37.7 C 69.3 37.7 64.6 37.7 64.6 37.7 L 64.6 16 Z M 67.6 35.4 C 67.6 35.4 69.45 35.36 69.4 35.4 C 71.2 35.4 71.5 34.8 71.5 31.4 C 71.5 28.2 71.2 27.7 69.5 27.7 C 69.54 27.68 67.6 27.7 67.6 27.7 L 67.6 35.4 Z M 67.6 25.3 C 67.6 25.3 69.33 25.34 69.3 25.3 C 71.1 25.3 71.3 25 71.3 21.4 C 71.3 19 70.9 18.4 69 18.4 C 69 18.38 67.6 18.4 67.6 18.4 L 67.6 25.3 Z M 76 16 C 76 16 80.61 16.04 80.6 16 C 85 16 85.4 17.2 85.4 21.9 C 85.4 24.9 85 26.1 82.6 26.9 C 82.6 26.9 82.6 26.9 82.6 26.9 C 84.6 27.1 85.3 28.2 85.3 30.2 C 85.3 30.2 85.3 34.9 85.3 34.9 C 85.3 35.7 85.3 36.8 85.5 37.7 C 85.5 37.7 82.7 37.7 82.7 37.7 C 82.4 37.2 82.3 36.6 82.3 35.7 C 82.3 35.7 82.3 30.9 82.3 30.9 C 82.3 28.8 82 28.3 80 28.3 C 79.98 28.28 79 28.3 79 28.3 L 79 37.7 L 76 37.7 L 76 16 Z M 79 25.8 C 79 25.8 79.74 25.76 79.7 25.8 C 82.1 25.8 82.4 25.3 82.4 22.1 C 82.4 18.9 82.3 18.6 80.4 18.6 C 80.4 18.56 79 18.6 79 18.6 L 79 25.8 Z M 85.3 16 L 88.3 16 L 91 25.2 L 91 25.2 L 94 16 L 96.7 16 L 92.5 28.8 L 92.5 37.7 L 89.5 37.7 L 89.5 28.8 L 85.3 16 Z M 103.8 15 C 107.4 15 110.2 17.8 110.2 21.4 C 110.2 24.9 107.4 27.8 103.8 27.8 C 100.3 27.8 97.4 24.9 97.4 21.4 C 97.4 17.8 100.3 15 103.8 15 Z M 103.8 26.6 C 106.6 26.6 108.9 24.3 108.9 21.4 C 108.9 18.5 106.6 16.2 103.8 16.2 C 100.9 16.2 98.7 18.5 98.7 21.4 C 98.7 24.3 100.9 26.6 103.8 26.6 Z M 103.4 21.9 L 102.3 21.9 L 102.3 25 L 101 25 L 101 17.7 C 101 17.7 103.89 17.72 103.9 17.7 C 105.7 17.7 106.7 18.3 106.7 19.8 C 106.7 21.2 105.8 21.7 104.8 21.8 C 104.78 21.76 106.8 25 106.8 25 L 105.3 25 L 103.4 21.9 Z M 103.6 20.8 C 104.5 20.8 105.3 20.7 105.3 19.7 C 105.3 18.9 104.4 18.8 103.7 18.8 C 103.68 18.77 102.3 18.8 102.3 18.8 L 102.3 20.8 C 102.3 20.8 103.58 20.83 103.6 20.8 Z M 120 35.2 C 120 35.2 121.45 35.18 121.5 35.2 C 123.7 35.2 124.1 34 124.1 30.3 C 124.1 30.3 124.1 22.8 124.1 22.8 C 124.1 19.6 123.8 18.6 121.2 18.6 C 121.21 18.56 120 18.6 120 18.6 L 120 35.2 Z M 117 16 C 117 16 121.84 16.04 121.8 16 C 126.7 16 127.1 17.7 127.1 24 C 127.1 24 127.1 30.4 127.1 30.4 C 127.1 36 126.1 37.7 121.4 37.7 C 121.36 37.7 117 37.7 117 37.7 L 117 16 Z M 128.9 16 L 137.1 16 L 137.1 18.6 L 131.9 18.6 L 131.9 25.3 L 136.8 25.3 L 136.8 27.9 L 131.9 27.9 L 131.9 35.2 L 137.1 35.2 L 137.1 37.7 L 128.9 37.7 L 128.9 16 Z M 138.1 16 L 142.8 16 L 145.6 32.5 L 145.7 32.5 L 148.4 16 L 153.1 16 L 153.1 37.7 L 150.3 37.7 L 150.3 18.2 L 150.2 18.2 L 147.1 37.7 L 144.1 37.7 L 140.8 18.2 L 140.7 18.2 L 140.7 37.7 L 138.1 37.7 L 138.1 16 Z M 157.9 32.7 C 157.9 34.5 158.7 35.5 160 35.5 C 161.2 35.5 162.1 34.5 162.1 32.7 C 162.1 32.7 162.1 21.3 162.1 21.3 C 162.1 19.2 161.4 18.2 160 18.2 C 158.6 18.2 157.9 19.2 157.9 21.3 C 157.9 21.3 157.9 32.7 157.9 32.7 Z M 154.9 21.6 C 154.9 18.5 155.9 15.9 160 15.9 C 163.8 15.9 165.1 17.9 165.1 21.2 C 165.1 21.2 165.1 32.2 165.1 32.2 C 165.1 35.2 164.1 37.9 160 37.9 C 156.1 37.9 154.9 35.9 154.9 32.5 C 154.9 32.5 154.9 21.6 154.9 21.6 Z M 166.9 16 L 171 16 L 174.6 34 L 174.6 34 L 174.6 16 L 177.5 16 L 177.5 37.7 L 173.1 37.7 L 169.6 19.2 L 169.5 19.2 L 169.5 37.7 L 166.9 37.7 L 166.9 16 Z M 179.1 31.4 L 182.1 31.4 C 182.1 31.4 182.05 33.2 182.1 33.2 C 182.1 34.6 182.6 35.5 183.8 35.5 C 185.4 35.5 185.8 34.5 185.8 33 C 185.8 31.2 185.7 30.6 182.6 27.5 C 180.6 25.6 179.1 23.9 179.1 20.9 C 179.1 17.4 180.7 15.9 184 15.9 C 185.6 15.9 186.8 16.4 187.5 17.1 C 188 17.5 188.4 18.3 188.4 19.8 C 188.35 19.82 188.4 21.9 188.4 21.9 L 185.5 21.9 C 185.5 21.9 185.53 20.15 185.5 20.1 C 185.5 18.9 185 18.2 183.9 18.2 C 182.6 18.2 182.1 18.9 182.1 20.6 C 182.1 22 182.4 22.9 185.1 25.8 C 188.1 28.9 188.6 29.9 188.6 32.5 C 188.6 35.9 187.3 37.9 183.7 37.9 C 180.9 37.9 179.1 36.7 179.1 34 C 179.05 34.01 179.1 31.4 179.1 31.4 Z M 189.3 16 L 199.5 16 L 199.5 18.6 L 195.9 18.6 L 195.9 37.7 L 192.9 37.7 L 192.9 18.6 L 189.3 18.6 L 189.3 16 Z M 200.4 16 C 200.4 16 205.09 16.04 205.1 16 C 209.5 16 209.9 17.2 209.9 21.9 C 209.9 24.9 209.5 26.1 207.1 26.9 C 207.1 26.9 207.1 26.9 207.1 26.9 C 209.1 27.1 209.8 28.2 209.8 30.2 C 209.8 30.2 209.8 34.9 209.8 34.9 C 209.8 35.7 209.8 36.8 210 37.7 C 210 37.7 207.2 37.7 207.2 37.7 C 206.9 37.2 206.8 36.6 206.8 35.7 C 206.8 35.7 206.8 30.9 206.8 30.9 C 206.8 28.8 206.4 28.3 204.5 28.3 C 204.46 28.28 203.4 28.3 203.4 28.3 L 203.4 37.7 L 200.4 37.7 L 200.4 16 Z M 203.4 25.8 C 203.4 25.8 204.22 25.76 204.2 25.8 C 206.6 25.8 206.9 25.3 206.9 22.1 C 206.9 18.9 206.7 18.6 204.9 18.6 C 204.88 18.56 203.4 18.6 203.4 18.6 L 203.4 25.8 Z M 215.8 16 L 219.3 16 L 223.7 37.7 L 220.7 37.7 L 219.7 32.2 L 215 32.2 L 214 37.7 L 211 37.7 L 215.8 16 Z M 215.5 29.7 L 219.3 29.7 L 217.4 19.2 L 217.4 19.2 L 215.5 29.7 Z M 221.5 16 L 231.7 16 L 231.7 18.6 L 228.1 18.6 L 228.1 37.7 L 225.1 37.7 L 225.1 18.6 L 221.5 18.6 L 221.5 16 Z M 232.7 16 L 240.9 16 L 240.9 18.6 L 235.7 18.6 L 235.7 25.3 L 240.6 25.3 L 240.6 27.9 L 235.7 27.9 L 235.7 35.2 L 240.9 35.2 L 240.9 37.7 L 232.7 37.7 L 232.7 16 Z M 244.8 35.2 C 244.8 35.2 246.28 35.18 246.3 35.2 C 248.5 35.2 248.9 34 248.9 30.3 C 248.9 30.3 248.9 22.8 248.9 22.8 C 248.9 19.6 248.6 18.6 246 18.6 C 246.04 18.56 244.8 18.6 244.8 18.6 L 244.8 35.2 Z M 241.8 16 C 241.8 16 246.67 16.04 246.7 16 C 251.5 16 251.9 17.7 251.9 24 C 251.9 24 251.9 30.4 251.9 30.4 C 251.9 36 250.9 37.7 246.2 37.7 C 246.19 37.7 241.8 37.7 241.8 37.7 L 241.8 16 Z M 258.7 21.6 C 258.7 18.5 259.7 15.9 263.8 15.9 C 266.7 15.9 268.1 17.4 268.1 19.8 C 268.12 19.79 268.1 21.9 268.1 21.9 L 265.3 21.9 C 265.3 21.9 265.3 20.45 265.3 20.4 C 265.3 19.1 264.8 18.2 263.6 18.2 C 262 18.2 261.7 19.3 261.7 21.9 C 261.7 21.9 261.7 32.5 261.7 32.5 C 261.7 35.1 262.5 35.5 263.5 35.5 C 264.6 35.5 265.3 34.8 265.3 33 C 265.3 32.96 265.3 31.5 265.3 31.5 L 268.1 31.5 C 268.1 31.5 268.12 33.86 268.1 33.9 C 268.1 36.1 267.2 37.9 263.7 37.9 C 259.9 37.9 258.7 35.9 258.7 32.5 C 258.7 32.5 258.7 21.6 258.7 21.6 Z M 269.3 16 L 272.3 16 L 272.3 35.2 L 277.3 35.2 L 277.3 37.7 L 269.3 37.7 L 269.3 16 Z M 278.4 16 L 281.4 16 L 281.4 37.7 L 278.4 37.7 L 278.4 16 Z M 283.2 16 L 287.3 16 L 290.9 34 L 290.9 34 L 290.9 16 L 293.7 16 L 293.7 37.7 L 289.4 37.7 L 285.9 19.2 L 285.8 19.2 L 285.8 37.7 L 283.2 37.7 L 283.2 16 Z M 295.6 16 L 298.6 16 L 298.6 37.7 L 295.6 37.7 L 295.6 16 Z M 300.1 21.6 C 300.1 18.5 301.1 15.9 305.1 15.9 C 308.1 15.9 309.5 17.4 309.5 19.8 C 309.49 19.79 309.5 21.9 309.5 21.9 L 306.7 21.9 C 306.7 21.9 306.67 20.45 306.7 20.4 C 306.7 19.1 306.2 18.2 304.9 18.2 C 303.4 18.2 303.1 19.3 303.1 21.9 C 303.1 21.9 303.1 32.5 303.1 32.5 C 303.1 35.1 303.9 35.5 304.8 35.5 C 306 35.5 306.7 34.8 306.7 33 C 306.67 32.96 306.7 31.5 306.7 31.5 L 309.5 31.5 C 309.5 31.5 309.49 33.86 309.5 33.9 C 309.5 36.1 308.6 37.9 305.1 37.9 C 301.3 37.9 300.1 35.9 300.1 32.5 C 300.1 32.5 300.1 21.6 300.1 21.6 Z M 314.3 16 L 317.8 16 L 322.2 37.7 L 319.2 37.7 L 318.2 32.2 L 313.5 32.2 L 312.5 37.7 L 309.5 37.7 L 314.3 16 Z M 314 29.7 L 317.8 29.7 L 315.9 19.2 L 315.9 19.2 L 314 29.7 Z M 323.3 16 L 326.3 16 L 326.3 35.2 L 331.4 35.2 L 331.4 37.7 L 323.3 37.7 L 323.3 16 Z M 332.5 16 L 335.5 16 L 335.5 35.2 L 340.5 35.2 L 340.5 37.7 L 332.5 37.7 L 332.5 16 Z M 337.6 16 L 340.6 16 L 343.2 25.2 L 343.3 25.2 L 346.3 16 L 348.9 16 L 344.8 28.8 L 344.8 37.7 L 341.8 37.7 L 341.8 28.8 L 337.6 16 Z M 355.5 16 L 360.2 16 L 363 32.5 L 363.1 32.5 L 365.8 16 L 370.5 16 L 370.5 37.7 L 367.7 37.7 L 367.7 18.2 L 367.6 18.2 L 364.5 37.7 L 361.5 37.7 L 358.2 18.2 L 358.1 18.2 L 358.1 37.7 L 355.5 37.7 L 355.5 16 Z M 372.4 16 L 380.6 16 L 380.6 18.6 L 375.4 18.6 L 375.4 25.3 L 380.3 25.3 L 380.3 27.9 L 375.4 27.9 L 375.4 35.2 L 380.6 35.2 L 380.6 37.7 L 372.4 37.7 L 372.4 16 Z M 385.5 16 L 389 16 L 393.4 37.7 L 390.4 37.7 L 389.4 32.2 L 384.8 32.2 L 383.8 37.7 L 380.8 37.7 L 385.5 16 Z M 385.2 29.7 L 389 29.7 L 387.2 19.2 L 387.1 19.2 L 385.2 29.7 Z M 394.6 16 L 398.7 16 L 402.2 34 L 402.3 34 L 402.3 16 L 405.1 16 L 405.1 37.7 L 400.8 37.7 L 397.3 19.2 L 397.2 19.2 L 397.2 37.7 L 394.6 37.7 L 394.6 16 Z M 407 16 L 410 16 L 410 37.7 L 407 37.7 L 407 16 Z M 411.8 16 L 415.9 16 L 419.5 34 L 419.5 34 L 419.5 16 L 422.3 16 L 422.3 37.7 L 418 37.7 L 414.5 19.2 L 414.4 19.2 L 414.4 37.7 L 411.8 37.7 L 411.8 16 Z M 431.3 21.8 C 431.3 21.8 431.26 20.66 431.3 20.7 C 431.3 19.1 430.5 18.2 429.3 18.2 C 428 18.2 427.3 19.5 427.3 21.8 C 427.3 21.8 427.3 32.7 427.3 32.7 C 427.3 34.4 428.1 35.5 429.3 35.5 C 430.2 35.5 430.9 35.4 431.3 35.3 C 431.26 35.33 431.3 29 431.3 29 L 429.3 29 L 429.3 26.4 L 434.3 26.4 C 434.3 26.4 434.26 37.34 434.3 37.3 C 433.1 37.6 431 37.9 429.3 37.9 C 425.5 37.9 424.3 35.9 424.3 32.5 C 424.3 32.5 424.3 21.6 424.3 21.6 C 424.3 17.5 425.5 15.9 429.4 15.9 C 432.6 15.9 434.3 17 434.3 19.8 C 434.26 19.79 434.3 21.8 434.3 21.8 L 431.3 21.8 Z M 436.2 16 L 444.3 16 L 444.3 18.6 L 439.2 18.6 L 439.2 25.3 L 444 25.3 L 444 27.9 L 439.2 27.9 L 439.2 37.7 L 436.2 37.7 L 436.2 16 Z M 455.4 32.8 C 455.4 35.3 454.4 37.9 450.3 37.9 C 446.2 37.9 445.2 35.3 445.2 32.8 C 445.24 32.81 445.2 16 445.2 16 L 448.2 16 C 448.2 16 448.24 33.32 448.2 33.3 C 448.2 34.8 448.8 35.5 450.3 35.5 C 451.9 35.5 452.4 34.8 452.4 33.3 C 452.41 33.32 452.4 16 452.4 16 L 455.4 16 C 455.4 16 455.41 32.81 455.4 32.8 Z M 457.2 16 L 460.2 16 L 460.2 35.2 L 465.3 35.2 L 465.3 37.7 L 457.2 37.7 L 457.2 16 Z M 471.6 16 L 474.6 16 L 474.6 37.7 L 471.6 37.7 L 471.6 16 Z M 476.4 16 L 481.2 16 L 483.9 32.5 L 484 32.5 L 486.8 16 L 491.4 16 L 491.4 37.7 L 488.6 37.7 L 488.6 18.2 L 488.5 18.2 L 485.5 37.7 L 482.5 37.7 L 479.1 18.2 L 479 18.2 L 479 37.7 L 476.4 37.7 L 476.4 16 Z M 496.3 25.8 C 496.3 25.8 497.89 25.76 497.9 25.8 C 499.9 25.8 500.1 25.4 500.1 22.2 C 500.1 18.9 499.9 18.6 497.9 18.6 C 497.89 18.56 496.3 18.6 496.3 18.6 L 496.3 25.8 Z M 493.3 16 C 493.3 16 498.28 16.04 498.3 16 C 502.4 16 503.1 17.1 503.1 22.2 C 503.1 27.2 502.4 28.3 498.3 28.3 C 498.28 28.28 496.3 28.3 496.3 28.3 L 496.3 37.7 L 493.3 37.7 L 493.3 16 Z M 504.7 16 C 504.7 16 509.35 16.04 509.3 16 C 513.7 16 514.2 17.2 514.2 21.9 C 514.2 24.9 513.8 26.1 511.3 26.9 C 511.3 26.9 511.3 26.9 511.3 26.9 C 513.4 27.1 514.1 28.2 514.1 30.2 C 514.1 30.2 514.1 34.9 514.1 34.9 C 514.1 35.7 514.1 36.8 514.2 37.7 C 514.2 37.7 511.4 37.7 511.4 37.7 C 511.1 37.2 511.1 36.6 511.1 35.7 C 511.1 35.7 511.1 30.9 511.1 30.9 C 511.1 28.8 510.7 28.3 508.7 28.3 C 508.72 28.28 507.7 28.3 507.7 28.3 L 507.7 37.7 L 504.7 37.7 L 504.7 16 Z M 507.7 25.8 C 507.7 25.8 508.48 25.76 508.5 25.8 C 510.8 25.8 511.2 25.3 511.2 22.1 C 511.2 18.9 511 18.6 509.1 18.6 C 509.14 18.56 507.7 18.6 507.7 18.6 L 507.7 25.8 Z M 519 32.7 C 519 34.5 519.8 35.5 521 35.5 C 522.3 35.5 523.1 34.5 523.1 32.7 C 523.1 32.7 523.1 21.3 523.1 21.3 C 523.1 19.2 522.4 18.2 521 18.2 C 519.7 18.2 519 19.2 519 21.3 C 519 21.3 519 32.7 519 32.7 Z M 516 21.6 C 516 18.5 517 15.9 521 15.9 C 524.9 15.9 526.1 17.9 526.1 21.2 C 526.1 21.2 526.1 32.2 526.1 32.2 C 526.1 35.2 525.2 37.9 521 37.9 C 517.2 37.9 516 35.9 516 32.5 C 516 32.5 516 21.6 516 21.6 Z M 526.4 16 L 529.4 16 L 532.5 33.3 L 532.6 33.3 L 535.7 16 L 538.7 16 L 534.3 37.7 L 530.8 37.7 L 526.4 16 Z M 539.7 16 L 547.9 16 L 547.9 18.6 L 542.7 18.6 L 542.7 25.3 L 547.6 25.3 L 547.6 27.9 L 542.7 27.9 L 542.7 35.2 L 547.9 35.2 L 547.9 37.7 L 539.7 37.7 L 539.7 16 Z M 548.9 16 L 553.7 16 L 556.4 32.5 L 556.5 32.5 L 559.2 16 L 563.9 16 L 563.9 37.7 L 561.1 37.7 L 561.1 18.2 L 561 18.2 L 557.9 37.7 L 554.9 37.7 L 551.6 18.2 L 551.5 18.2 L 551.5 37.7 L 548.9 37.7 L 548.9 16 Z M 565.8 16 L 574 16 L 574 18.6 L 568.8 18.6 L 568.8 25.3 L 573.7 25.3 L 573.7 27.9 L 568.8 27.9 L 568.8 35.2 L 574 35.2 L 574 37.7 L 565.8 37.7 L 565.8 16 Z M 575 16 L 579.1 16 L 582.6 34 L 582.7 34 L 582.7 16 L 585.5 16 L 585.5 37.7 L 581.2 37.7 L 577.7 19.2 L 577.6 19.2 L 577.6 37.7 L 575 37.7 L 575 16 Z M 586.5 16 L 596.7 16 L 596.7 18.6 L 593.1 18.6 L 593.1 37.7 L 590.1 37.7 L 590.1 18.6 L 586.5 18.6 L 586.5 16 Z M 602.9 16 L 605.9 16 L 605.9 37.7 L 602.9 37.7 L 602.9 16 Z M 607.7 16 L 611.9 16 L 615.4 34 L 615.5 34 L 615.5 16 L 618.3 16 L 618.3 37.7 L 614 37.7 L 610.4 19.2 L 610.4 19.2 L 610.4 37.7 L 607.7 37.7 L 607.7 16 Z M 628.4 32.7 C 628.4 34.5 629.2 35.5 630.5 35.5 C 631.7 35.5 632.6 34.5 632.6 32.7 C 632.6 32.7 632.6 21.3 632.6 21.3 C 632.6 19.2 631.8 18.2 630.5 18.2 C 629.1 18.2 628.4 19.2 628.4 21.3 C 628.4 21.3 628.4 32.7 628.4 32.7 Z M 625.4 21.6 C 625.4 18.5 626.4 15.9 630.5 15.9 C 634.3 15.9 635.6 17.9 635.6 21.2 C 635.6 21.2 635.6 31.5 635.6 31.5 C 635.6 33.3 635 35 634.3 35.8 C 634.3 35.8 634.4 35.9 634.4 35.9 C 634.9 35.6 635.9 35.5 637.2 35.5 C 637.2 35.5 637.2 37.7 637.2 37.7 C 634.9 37.7 631.8 37.9 630.5 37.9 C 626.6 37.9 625.4 35.9 625.4 32.5 C 625.4 32.5 625.4 21.6 625.4 21.6 Z M 637.8 26.5 C 637.8 24 639.3 22.5 641.8 22.5 C 644 22.5 645.8 23.4 645.8 26.2 C 645.8 26.2 645.8 33.8 645.8 33.8 C 645.8 36.4 644.4 37.9 641.9 37.9 C 639.7 37.9 637.8 36.9 637.8 34.1 C 637.8 34.1 637.8 26.5 637.8 26.5 Z M 640.7 34 C 640.7 35.2 641 35.9 641.9 35.9 C 642.7 35.9 643 35.2 643 34 C 643 34 643 26.3 643 26.3 C 643 25.1 642.7 24.4 641.9 24.4 C 641 24.4 640.7 25.1 640.7 26.3 C 640.7 26.3 640.7 34 640.7 34 Z M 647.6 16 L 650.6 16 L 650.6 35.2 L 655.7 35.2 L 655.7 37.7 L 647.6 37.7 L 647.6 16 Z M 658.5 17.5 C 658.5 17.5 658.45 17.46 658.4 17.5 C 658.1 17.9 657.7 18.3 657.1 18.8 C 657.1 18.8 657.1 17.1 657.1 17.1 C 657.5 16.8 658.4 15.6 658.7 15.1 C 658.66 15.08 660.1 15.1 660.1 15.1 L 660.1 27.7 L 658.5 27.7 L 658.5 17.5 Z M 662.5 22.6 L 666.7 22.6 L 666.7 24 L 662.5 24 L 662.5 22.6 Z M 667.4 23.2 L 670.2 15.1 L 672.4 15.1 L 672.4 23.4 L 673.1 23.4 L 673.1 24.6 L 672.4 24.6 L 672.4 27.7 L 670.7 27.7 L 670.7 24.6 L 667.4 24.6 L 667.4 23.2 Z M 670.7 17.5 L 670.7 17.5 L 668.9 23.4 L 670.7 23.4 L 670.7 17.5 Z M 673.7 18.9 L 674.5 17.4 L 677.2 19.2 L 677 16 L 678.5 16 L 678.4 19.2 L 681 17.4 L 681.8 18.9 L 678.9 20.3 L 681.8 21.6 L 681 23.1 L 678.4 21.3 L 678.5 24.5 L 677 24.5 L 677.2 21.3 L 674.5 23.1 L 673.7 21.6 L 676.7 20.3 L 673.7 18.9 Z " stroke="none" fill="#003c71"/>  </g></svg>