<?xml version="1.0" standalone="no"?><!DOCTYPE svg PUBLIC "-//W3C//DTD SVG 1.1//EN" "http://www.w3.org/Graphics/SVG/1.1/DTD/svg11.dtd"><svg xmlns="http://www.w3.org/2000/svg" version="1.1" width="750px" height="41.7px" viewBox="0 -7 750 41.7" style="top:-7px">  <desc>ANDEMBRY®: FAVORABLE SAFETY PROFILE1 3</desc>  <defs/>  <g id="Polygon201011">    <path d="M 4.8 0.1 L 8 0.1 L 12.1 20.3 L 9.3 20.3 L 8.4 15.1 L 4 15.1 L 3.1 20.3 L 0.3 20.3 L 4.8 0.1 Z M 4.5 12.8 L 8 12.8 L 6.3 3 L 6.2 3 L 4.5 12.8 Z M 13.5 0.1 L 17.3 0.1 L 20.6 16.9 L 20.7 16.9 L 20.7 0.1 L 23.3 0.1 L 23.3 20.3 L 19.3 20.3 L 16 3 L 15.9 3 L 15.9 20.3 L 13.5 20.3 L 13.5 0.1 Z M 28.2 17.9 C 28.2 17.9 29.54 17.92 29.5 17.9 C 31.6 17.9 32 16.8 32 13.4 C 32 13.4 32 6.4 32 6.4 C 32 3.4 31.7 2.4 29.3 2.4 C 29.32 2.41 28.2 2.4 28.2 2.4 L 28.2 17.9 Z M 25.4 0.1 C 25.4 0.1 29.9 0.06 29.9 0.1 C 34.4 0.1 34.8 1.6 34.8 7.4 C 34.8 7.4 34.8 13.5 34.8 13.5 C 34.8 18.6 33.9 20.3 29.5 20.3 C 29.46 20.27 25.4 20.3 25.4 20.3 L 25.4 0.1 Z M 36.8 0.1 L 44.4 0.1 L 44.4 2.4 L 39.6 2.4 L 39.6 8.7 L 44.1 8.7 L 44.1 11.1 L 39.6 11.1 L 39.6 17.9 L 44.4 17.9 L 44.4 20.3 L 36.8 20.3 L 36.8 0.1 Z M 45.6 0.1 L 50.1 0.1 L 52.6 15.5 L 52.7 15.5 L 55.3 0.1 L 59.6 0.1 L 59.6 20.3 L 57 20.3 L 57 2.1 L 56.9 2.1 L 54.1 20.3 L 51.3 20.3 L 48.1 2.1 L 48.1 2.1 L 48.1 20.3 L 45.6 20.3 L 45.6 0.1 Z M 61.7 0.1 C 61.7 0.1 66.55 0.06 66.6 0.1 C 70 0.1 70.6 1.3 70.6 5 C 70.6 8.9 69.9 9.6 68 9.8 C 68 9.8 68 9.9 68 9.9 C 70.3 10.3 70.7 11.1 70.7 14.5 C 70.7 18.9 70.2 20.3 66.1 20.3 C 66.08 20.27 61.7 20.3 61.7 20.3 L 61.7 0.1 Z M 64.5 18.1 C 64.5 18.1 66.22 18.09 66.2 18.1 C 67.8 18.1 68.1 17.6 68.1 14.4 C 68.1 11.4 67.8 10.9 66.3 10.9 C 66.3 10.92 64.5 10.9 64.5 10.9 L 64.5 18.1 Z M 64.5 8.7 C 64.5 8.7 66.11 8.74 66.1 8.7 C 67.8 8.7 68 8.4 68 5.1 C 68 2.8 67.6 2.2 65.8 2.2 C 65.8 2.24 64.5 2.2 64.5 2.2 L 64.5 8.7 Z M 72.6 0.1 C 72.6 0.1 76.91 0.06 76.9 0.1 C 81 0.1 81.4 1.1 81.4 5.6 C 81.4 8.3 81.1 9.5 78.8 10.2 C 78.8 10.2 78.8 10.2 78.8 10.2 C 80.7 10.4 81.3 11.4 81.3 13.3 C 81.3 13.3 81.3 17.7 81.3 17.7 C 81.3 18.4 81.3 19.4 81.5 20.3 C 81.5 20.3 78.8 20.3 78.8 20.3 C 78.6 19.8 78.5 19.3 78.5 18.5 C 78.5 18.5 78.5 13.9 78.5 13.9 C 78.5 12 78.2 11.5 76.3 11.5 C 76.33 11.48 75.4 11.5 75.4 11.5 L 75.4 20.3 L 72.6 20.3 L 72.6 0.1 Z M 75.4 9.1 C 75.4 9.1 76.1 9.13 76.1 9.1 C 78.3 9.1 78.6 8.7 78.6 5.7 C 78.6 2.7 78.5 2.4 76.7 2.4 C 76.72 2.41 75.4 2.4 75.4 2.4 L 75.4 9.1 Z M 81.6 0.1 L 84.4 0.1 L 86.9 8.6 L 86.9 8.6 L 89.7 0.1 L 92.2 0.1 L 88.3 12 L 88.3 20.3 L 85.5 20.3 L 85.5 12 L 81.6 0.1 Z M 99.1 -0.9 C 102.4 -0.9 105.1 1.7 105.1 5.1 C 105.1 8.4 102.4 11 99.1 11 C 95.8 11 93.1 8.4 93.1 5.1 C 93.1 1.7 95.8 -0.9 99.1 -0.9 Z M 99.1 9.9 C 101.8 9.9 103.8 7.7 103.8 5.1 C 103.8 2.4 101.8 0.2 99.1 0.2 C 96.4 0.2 94.4 2.4 94.4 5.1 C 94.4 7.7 96.4 9.9 99.1 9.9 Z M 98.8 5.5 L 97.7 5.5 L 97.7 8.5 L 96.5 8.5 L 96.5 1.6 C 96.5 1.6 99.21 1.63 99.2 1.6 C 100.9 1.6 101.8 2.2 101.8 3.6 C 101.8 4.8 101 5.3 100 5.4 C 100.04 5.4 101.9 8.5 101.9 8.5 L 100.6 8.5 L 98.8 5.5 Z M 98.9 4.5 C 99.8 4.5 100.5 4.5 100.5 3.5 C 100.5 2.7 99.7 2.6 99 2.6 C 99.01 2.61 97.7 2.6 97.7 2.6 L 97.7 4.5 C 97.7 4.5 98.91 4.53 98.9 4.5 Z M 106.6 17 L 109.9 17 L 109.9 20.3 L 106.6 20.3 L 106.6 17 Z M 106.6 6.2 L 109.9 6.2 L 109.9 9.5 L 106.6 9.5 L 106.6 6.2 Z M 115.6 0.1 L 123.2 0.1 L 123.2 2.4 L 118.4 2.4 L 118.4 8.7 L 122.9 8.7 L 122.9 11.1 L 118.4 11.1 L 118.4 20.3 L 115.6 20.3 L 115.6 0.1 Z M 126.6 0.1 L 129.8 0.1 L 133.9 20.3 L 131.1 20.3 L 130.2 15.1 L 125.8 15.1 L 124.9 20.3 L 122.1 20.3 L 126.6 0.1 Z M 126.3 12.8 L 129.8 12.8 L 128.1 3 L 128 3 L 126.3 12.8 Z M 132.8 0.1 L 135.6 0.1 L 138.5 16.1 L 138.6 16.1 L 141.5 0.1 L 144.3 0.1 L 140.1 20.3 L 136.9 20.3 L 132.8 0.1 Z M 147.7 15.6 C 147.7 17.3 148.5 18.3 149.7 18.3 C 150.8 18.3 151.6 17.3 151.6 15.6 C 151.6 15.6 151.6 5 151.6 5 C 151.6 3 151 2.1 149.7 2.1 C 148.4 2.1 147.7 3 147.7 5 C 147.7 5 147.7 15.6 147.7 15.6 Z M 144.9 5.2 C 144.9 2.4 145.9 -0.1 149.7 -0.1 C 153.3 -0.1 154.4 1.8 154.4 4.9 C 154.4 4.9 154.4 15.1 154.4 15.1 C 154.4 17.9 153.5 20.4 149.7 20.4 C 146.1 20.4 144.9 18.6 144.9 15.4 C 144.9 15.4 144.9 5.2 144.9 5.2 Z M 156.4 0.1 C 156.4 0.1 160.76 0.06 160.8 0.1 C 164.8 0.1 165.3 1.1 165.3 5.6 C 165.3 8.3 164.9 9.5 162.6 10.2 C 162.6 10.2 162.6 10.2 162.6 10.2 C 164.5 10.4 165.2 11.4 165.2 13.3 C 165.2 13.3 165.2 17.7 165.2 17.7 C 165.2 18.4 165.2 19.4 165.3 20.3 C 165.3 20.3 162.7 20.3 162.7 20.3 C 162.4 19.8 162.4 19.3 162.4 18.5 C 162.4 18.5 162.4 13.9 162.4 13.9 C 162.4 12 162 11.5 160.2 11.5 C 160.17 11.48 159.2 11.5 159.2 11.5 L 159.2 20.3 L 156.4 20.3 L 156.4 0.1 Z M 159.2 9.1 C 159.2 9.1 159.94 9.13 159.9 9.1 C 162.2 9.1 162.5 8.7 162.5 5.7 C 162.5 2.7 162.3 2.4 160.6 2.4 C 160.56 2.41 159.2 2.4 159.2 2.4 L 159.2 9.1 Z M 171 0.1 L 174.3 0.1 L 178.4 20.3 L 175.6 20.3 L 174.7 15.1 L 170.3 15.1 L 169.4 20.3 L 166.6 20.3 L 171 0.1 Z M 170.7 12.8 L 174.3 12.8 L 172.5 3 L 172.5 3 L 170.7 12.8 Z M 179.7 0.1 C 179.7 0.1 184.61 0.06 184.6 0.1 C 188.1 0.1 188.6 1.3 188.6 5 C 188.6 8.9 188 9.6 186.1 9.8 C 186.1 9.8 186.1 9.9 186.1 9.9 C 188.3 10.3 188.8 11.1 188.8 14.5 C 188.8 18.9 188.2 20.3 184.1 20.3 C 184.14 20.27 179.7 20.3 179.7 20.3 L 179.7 0.1 Z M 182.5 18.1 C 182.5 18.1 184.28 18.09 184.3 18.1 C 185.9 18.1 186.2 17.6 186.2 14.4 C 186.2 11.4 185.9 10.9 184.4 10.9 C 184.36 10.92 182.5 10.9 182.5 10.9 L 182.5 18.1 Z M 182.5 8.7 C 182.5 8.7 184.16 8.74 184.2 8.7 C 185.8 8.7 186 8.4 186 5.1 C 186 2.8 185.6 2.2 183.9 2.2 C 183.86 2.24 182.5 2.2 182.5 2.2 L 182.5 8.7 Z M 190.6 0.1 L 193.4 0.1 L 193.4 17.9 L 198.1 17.9 L 198.1 20.3 L 190.6 20.3 L 190.6 0.1 Z M 199.5 0.1 L 207.1 0.1 L 207.1 2.4 L 202.3 2.4 L 202.3 8.7 L 206.8 8.7 L 206.8 11.1 L 202.3 11.1 L 202.3 17.9 L 207.1 17.9 L 207.1 20.3 L 199.5 20.3 L 199.5 0.1 Z M 213.2 14.4 L 216 14.4 C 216 14.4 215.97 16.07 216 16.1 C 216 17.4 216.5 18.3 217.6 18.3 C 219.1 18.3 219.4 17.2 219.4 15.9 C 219.4 14.2 219.4 13.7 216.4 10.8 C 214.7 9 213.2 7.4 213.2 4.6 C 213.2 1.3 214.7 -0.1 217.8 -0.1 C 219.3 -0.1 220.4 0.4 221 1 C 221.5 1.5 221.9 2.2 221.9 3.6 C 221.85 3.58 221.9 5.5 221.9 5.5 L 219.2 5.5 C 219.2 5.5 219.22 3.89 219.2 3.9 C 219.2 2.7 218.7 2.1 217.7 2.1 C 216.5 2.1 216 2.7 216 4.3 C 216 5.7 216.3 6.5 218.8 9.2 C 221.6 12 222.1 13 222.1 15.5 C 222.1 18.6 220.8 20.4 217.5 20.4 C 214.9 20.4 213.2 19.3 213.2 16.8 C 213.17 16.83 213.2 14.4 213.2 14.4 Z M 227.6 0.1 L 230.8 0.1 L 234.9 20.3 L 232.1 20.3 L 231.2 15.1 L 226.8 15.1 L 225.9 20.3 L 223.1 20.3 L 227.6 0.1 Z M 227.3 12.8 L 230.8 12.8 L 229.1 3 L 229 3 L 227.3 12.8 Z M 236.3 0.1 L 243.9 0.1 L 243.9 2.4 L 239.1 2.4 L 239.1 8.7 L 243.6 8.7 L 243.6 11.1 L 239.1 11.1 L 239.1 20.3 L 236.3 20.3 L 236.3 0.1 Z M 245.1 0.1 L 252.7 0.1 L 252.7 2.4 L 247.9 2.4 L 247.9 8.7 L 252.4 8.7 L 252.4 11.1 L 247.9 11.1 L 247.9 17.9 L 252.7 17.9 L 252.7 20.3 L 245.1 20.3 L 245.1 0.1 Z M 253 0.1 L 262.6 0.1 L 262.6 2.4 L 259.2 2.4 L 259.2 20.3 L 256.4 20.3 L 256.4 2.4 L 253 2.4 L 253 0.1 Z M 263.1 0.1 L 265.9 0.1 L 268.4 8.6 L 268.4 8.6 L 271.2 0.1 L 273.7 0.1 L 269.8 12 L 269.8 20.3 L 267 20.3 L 267 12 L 263.1 0.1 Z M 283.2 9.1 C 283.2 9.1 284.62 9.13 284.6 9.1 C 286.5 9.1 286.7 8.8 286.7 5.8 C 286.7 2.7 286.5 2.4 284.6 2.4 C 284.62 2.41 283.2 2.4 283.2 2.4 L 283.2 9.1 Z M 280.4 0.1 C 280.4 0.1 284.99 0.06 285 0.1 C 288.8 0.1 289.5 1.1 289.5 5.8 C 289.5 10.4 288.8 11.5 285 11.5 C 284.99 11.48 283.2 11.5 283.2 11.5 L 283.2 20.3 L 280.4 20.3 L 280.4 0.1 Z M 291.3 0.1 C 291.3 0.1 295.6 0.06 295.6 0.1 C 299.7 0.1 300.1 1.1 300.1 5.6 C 300.1 8.3 299.7 9.5 297.4 10.2 C 297.4 10.2 297.4 10.2 297.4 10.2 C 299.4 10.4 300 11.4 300 13.3 C 300 13.3 300 17.7 300 17.7 C 300 18.4 300 19.4 300.2 20.3 C 300.2 20.3 297.5 20.3 297.5 20.3 C 297.3 19.8 297.2 19.3 297.2 18.5 C 297.2 18.5 297.2 13.9 297.2 13.9 C 297.2 12 296.9 11.5 295 11.5 C 295.01 11.48 294.1 11.5 294.1 11.5 L 294.1 20.3 L 291.3 20.3 L 291.3 0.1 Z M 294.1 9.1 C 294.1 9.1 294.79 9.13 294.8 9.1 C 297 9.1 297.3 8.7 297.3 5.7 C 297.3 2.7 297.1 2.4 295.4 2.4 C 295.4 2.41 294.1 2.4 294.1 2.4 L 294.1 9.1 Z M 304.9 15.6 C 304.9 17.3 305.7 18.3 306.8 18.3 C 308 18.3 308.8 17.3 308.8 15.6 C 308.8 15.6 308.8 5 308.8 5 C 308.8 3 308.1 2.1 306.8 2.1 C 305.5 2.1 304.9 3 304.9 5 C 304.9 5 304.9 15.6 304.9 15.6 Z M 302.1 5.2 C 302.1 2.4 303 -0.1 306.8 -0.1 C 310.4 -0.1 311.6 1.8 311.6 4.9 C 311.6 4.9 311.6 15.1 311.6 15.1 C 311.6 17.9 310.6 20.4 306.8 20.4 C 303.2 20.4 302.1 18.6 302.1 15.4 C 302.1 15.4 302.1 5.2 302.1 5.2 Z M 313.5 0.1 L 321.2 0.1 L 321.2 2.4 L 316.3 2.4 L 316.3 8.7 L 320.9 8.7 L 320.9 11.1 L 316.3 11.1 L 316.3 20.3 L 313.5 20.3 L 313.5 0.1 Z M 322.3 0.1 L 325.1 0.1 L 325.1 20.3 L 322.3 20.3 L 322.3 0.1 Z M 327.1 0.1 L 329.9 0.1 L 329.9 17.9 L 334.6 17.9 L 334.6 20.3 L 327.1 20.3 L 327.1 0.1 Z M 335.9 0.1 L 343.5 0.1 L 343.5 2.4 L 338.7 2.4 L 338.7 8.7 L 343.2 8.7 L 343.2 11.1 L 338.7 11.1 L 338.7 17.9 L 343.5 17.9 L 343.5 20.3 L 335.9 20.3 L 335.9 0.1 Z M 346.3 1.4 C 346.3 1.4 346.25 1.38 346.3 1.4 C 345.9 1.8 345.6 2.1 345 2.6 C 345 2.6 345 1.1 345 1.1 C 345.4 0.8 346.2 -0.3 346.5 -0.8 C 346.45 -0.84 347.8 -0.8 347.8 -0.8 L 347.8 10.9 L 346.3 10.9 L 346.3 1.4 Z M 350.2 6.2 L 354.1 6.2 L 354.1 7.5 L 350.2 7.5 L 350.2 6.2 Z M 355.2 7.8 L 356.7 7.8 C 356.7 7.8 356.72 8.4 356.7 8.4 C 356.7 9.3 356.9 9.9 357.6 9.9 C 358.3 9.9 358.5 9.3 358.5 8.4 C 358.5 8.4 358.5 7 358.5 7 C 358.5 5.9 358.2 5.6 357.1 5.6 C 357.13 5.59 356.7 5.6 356.7 5.6 L 356.7 4.2 C 356.7 4.2 357.24 4.22 357.2 4.2 C 358.2 4.2 358.5 4 358.5 2.8 C 358.5 2.8 358.5 1.5 358.5 1.5 C 358.5 0.5 358.2 0.2 357.7 0.2 C 357 0.2 356.8 0.8 356.8 1.7 C 356.8 1.71 356.8 2.1 356.8 2.1 C 356.8 2.1 355.27 2.1 355.3 2.1 C 355.3 -0.2 355.8 -0.9 357.7 -0.9 C 359.6 -0.9 360 0 360 2.2 C 360 4.2 359.7 4.6 358.6 4.9 C 358.6 4.9 358.6 4.9 358.6 4.9 C 359.6 5.1 360 5.3 360 8.1 C 360 10.3 359.6 11 357.6 11 C 355.7 11 355.2 10.3 355.2 8.1 C 355.18 8.14 355.2 7.8 355.2 7.8 Z " stroke="none" fill="#003c71"/>  </g></svg>