<?xml version="1.0" standalone="no"?><!DOCTYPE svg PUBLIC "-//W3C//DTD SVG 1.1//EN" "http://www.w3.org/Graphics/SVG/1.1/DTD/svg11.dtd"><svg xmlns="http://www.w3.org/2000/svg" version="1.1" width="249.1px" height="247px" viewBox="0 -6 249.1 247" style="top:-6px">  <desc>ANDEMBRY® is indicated for routine prevention of recurrent attacks of hereditary angioedema (HAE) in adult and adole...</desc>  <defs/>  <g id="Polygon192306">    <path d="M 6.4 100.3 C 6.4 99 6.4 97 4.6 97 C 2.7 97 2.9 99.5 2.9 100.9 C 2.9 102.1 3 104 4.6 104 C 6.2 104 6.4 102.8 6.4 100.3 Z M 2.9 97 C 2.9 97 2.93 97.02 2.9 97 C 3.4 96.2 4.1 95.8 5 95.8 C 6.5 95.8 8 96.3 8 100.3 C 8 102.6 7.9 105.2 4.9 105.2 C 4.1 105.2 3.5 104.8 3 104.1 C 2.95 104.11 2.9 104.1 2.9 104.1 L 2.9 108.5 L 1.4 108.5 L 1.4 95.9 L 2.9 95.9 L 2.9 97 Z M 11.6 102.3 C 11.6 103.2 12.1 104 13.1 104 C 14 104 15.1 103.4 14.9 100.5 C 13.5 100.5 11.6 100.4 11.6 102.3 Z M 15 103.7 C 15 103.7 14.94 103.72 14.9 103.7 C 14.5 104.8 13.8 105.2 12.7 105.2 C 10.7 105.2 10.2 104 10.2 102.2 C 10.2 99.5 12.9 99.3 14.9 99.4 C 15 98.2 15 96.9 13.4 96.9 C 12.4 96.9 11.9 97.5 12 98.5 C 12 98.5 10.4 98.5 10.4 98.5 C 10.5 96.5 11.5 95.8 13.5 95.8 C 15.8 95.8 16.4 97 16.4 98.5 C 16.4 98.5 16.4 102.9 16.4 102.9 C 16.4 103.6 16.5 104.3 16.6 105 C 16.6 105.03 15 105 15 105 L 15 103.7 Z M 19.5 95.9 L 19.5 94.2 L 20.9 93.5 L 20.9 95.9 L 22.9 95.9 L 22.9 97.1 L 20.9 97.1 C 20.9 97.1 20.93 102.62 20.9 102.6 C 20.9 103.2 20.9 103.9 22.3 103.9 C 22.4 103.9 22.6 103.9 23 103.9 C 23 103.9 23 105 23 105 C 22.5 105 22 105.1 21.5 105.1 C 20.1 105.1 19.5 104.6 19.5 103.5 C 19.46 103.52 19.5 97.1 19.5 97.1 L 18 97.1 L 18 95.9 L 19.5 95.9 Z M 25.7 105 L 24.3 105 L 24.3 95.9 L 25.7 95.9 L 25.7 105 Z M 24.2 92 L 25.8 92 L 25.8 93.6 L 24.2 93.6 L 24.2 92 Z M 33.3 99.8 C 33.3 97.2 32.5 96.9 31.5 96.9 C 30.5 96.9 29.8 97.3 29.7 99.8 C 29.7 99.8 33.3 99.8 33.3 99.8 Z M 29.7 101 C 29.7 103.5 30.4 104 31.6 104 C 32.6 104 33.1 103.2 33.2 102.3 C 33.2 102.3 34.8 102.3 34.8 102.3 C 34.8 104.3 33.5 105.2 31.6 105.2 C 29.7 105.2 28.2 104.6 28.2 100.6 C 28.2 98 28.5 95.8 31.6 95.8 C 34.2 95.8 34.8 97.2 34.8 100.2 C 34.85 100.19 34.8 101 34.8 101 C 34.8 101 29.74 100.96 29.7 101 Z M 42.2 105 C 42.2 105 42.23 98.73 42.2 98.7 C 42.2 97.8 41.9 97 40.6 97 C 39 97 38.8 98.4 38.8 99.6 C 38.77 99.65 38.8 105 38.8 105 L 37.3 105 C 37.3 105 37.3 97.83 37.3 97.8 C 37.3 97.2 37.3 96.6 37.2 95.9 C 37.21 95.94 38.8 95.9 38.8 95.9 L 38.8 97.1 C 38.8 97.1 38.84 97.11 38.8 97.1 C 39.4 96.1 40.1 95.8 41.3 95.8 C 43.2 95.8 43.7 96.9 43.7 98.7 C 43.7 98.73 43.7 105 43.7 105 L 42.2 105 Z M 46.5 95.9 L 46.5 94.2 L 47.9 93.5 L 47.9 95.9 L 49.9 95.9 L 49.9 97.1 L 47.9 97.1 C 47.9 97.1 47.93 102.62 47.9 102.6 C 47.9 103.2 47.9 103.9 49.3 103.9 C 49.4 103.9 49.6 103.9 49.9 103.9 C 49.9 103.9 49.9 105 49.9 105 C 49.5 105 49 105.1 48.5 105.1 C 47.1 105.1 46.5 104.6 46.5 103.5 C 46.46 103.52 46.5 97.1 46.5 97.1 L 45 97.1 L 45 95.9 L 46.5 95.9 Z M 54 105.2 C 52 105.2 50.8 104.3 50.8 102.3 C 50.8 102.3 52.5 102.3 52.5 102.3 C 52.5 102.8 52.5 104 54 104 C 54.9 104 55.6 103.6 55.6 102.6 C 55.6 101 51.1 101 51.1 98.2 C 51.1 97.3 51.6 95.8 54.2 95.8 C 55.8 95.8 57.2 96.5 57.1 98.3 C 57.1 98.3 55.4 98.3 55.4 98.3 C 55.5 97.4 55 96.9 54 96.9 C 53.2 96.9 52.6 97.3 52.6 98.1 C 52.6 99.7 57.1 99.7 57.1 102.4 C 57.1 104.4 55.8 105.2 54 105.2 Z M 64.6 102.3 C 64.6 103.2 65.1 104 66.1 104 C 67 104 68.1 103.4 67.9 100.5 C 66.5 100.5 64.6 100.4 64.6 102.3 Z M 68 103.7 C 68 103.7 67.93 103.72 67.9 103.7 C 67.5 104.8 66.8 105.2 65.6 105.2 C 63.7 105.2 63.2 104 63.2 102.2 C 63.2 99.5 65.9 99.3 67.9 99.4 C 68 98.2 68 96.9 66.4 96.9 C 65.4 96.9 64.9 97.5 65 98.5 C 65 98.5 63.4 98.5 63.4 98.5 C 63.4 96.5 64.5 95.8 66.5 95.8 C 68.8 95.8 69.4 97 69.4 98.5 C 69.4 98.5 69.4 102.9 69.4 102.9 C 69.4 103.6 69.5 104.3 69.6 105 C 69.59 105.03 68 105 68 105 L 68 103.7 Z M 75.4 97 C 73.7 97 73.6 99 73.6 100.2 C 73.6 103.1 74.3 103.8 75.4 103.8 C 77.2 103.8 77.1 101.7 77.1 100.4 C 77.1 99.1 77.2 97 75.4 97 Z M 77.1 95.9 L 78.6 95.9 C 78.6 95.9 78.57 105.95 78.6 105.9 C 78.6 108 77.2 108.5 75.2 108.5 C 73.7 108.5 72.3 107.7 72.5 106 C 72.5 106 74.1 106 74.1 106 C 74.1 106.9 74.7 107.4 75.5 107.4 C 76.5 107.4 77.1 106.7 77.1 105.8 C 77.09 105.79 77.1 103.9 77.1 103.9 C 77.1 103.9 77.04 103.9 77 103.9 C 76.7 104.6 75.8 105 75 105 C 72.6 105 72.1 102.9 72.1 100.2 C 72.1 96 74.2 95.8 74.9 95.8 C 75.9 95.8 76.6 96.2 77.1 97.1 C 77.06 97.06 77.1 97.1 77.1 97.1 L 77.1 95.9 Z M 86.3 99.8 C 86.3 97.2 85.5 96.9 84.5 96.9 C 83.5 96.9 82.7 97.3 82.7 99.8 C 82.7 99.8 86.3 99.8 86.3 99.8 Z M 82.7 101 C 82.7 103.5 83.4 104 84.6 104 C 85.6 104 86.1 103.2 86.1 102.3 C 86.1 102.3 87.8 102.3 87.8 102.3 C 87.7 104.3 86.5 105.2 84.6 105.2 C 82.7 105.2 81.1 104.6 81.1 100.6 C 81.1 98 81.4 95.8 84.6 95.8 C 87.2 95.8 87.8 97.2 87.8 100.2 C 87.84 100.19 87.8 101 87.8 101 C 87.8 101 82.73 100.96 82.7 101 Z M 93.4 97 C 91.8 97 91.6 98.2 91.6 100.7 C 91.6 102 91.6 104 93.4 104 C 95.1 104 95.1 102 95.1 100.1 C 95.1 98.9 95 97 93.4 97 Z M 95.1 92 L 96.6 92 L 96.6 105 L 95.1 105 L 95.1 104 C 95.1 104 95.06 103.95 95.1 104 C 94.6 104.8 93.9 105.2 93 105.2 C 91.5 105.2 90 104.6 90 100.6 C 90 98.4 90.1 95.8 93 95.8 C 93.9 95.8 94.5 96.1 95 96.9 C 95.04 96.86 95.1 96.9 95.1 96.9 L 95.1 92 Z M 107.2 105 L 105.5 105 L 105.5 94.4 L 103.7 95.6 C 103.7 95.6 103.66 94.03 103.7 94 C 104.1 93.9 105.3 93 105.8 92.5 C 105.77 92.54 107.2 92.5 107.2 92.5 L 107.2 105 Z M 110.8 105 C 110.8 105 110.75 103.59 110.8 103.6 C 114.4 98.5 115.5 97.5 115.5 95.4 C 115.5 94.4 115 93.7 113.9 93.7 C 112.7 93.7 112.5 94.8 112.5 95.8 C 112.5 95.8 110.8 95.8 110.8 95.8 C 110.6 93.7 111.7 92.3 113.8 92.3 C 116.1 92.3 117.1 93.4 117.1 95.6 C 117.1 98.4 115.7 99.3 112.5 103.6 C 112.52 103.59 117.5 103.6 117.5 103.6 L 117.5 105 L 110.8 105 Z M 126 103.3 L 126 103.3 L 128.2 95.9 L 129.8 95.9 L 125.7 108.5 L 124.2 108.5 L 125.2 105 L 122.1 95.9 L 123.8 95.9 L 126 103.3 Z M 136.2 99.8 C 136.2 97.2 135.5 96.9 134.4 96.9 C 133.5 96.9 132.7 97.3 132.7 99.8 C 132.7 99.8 136.2 99.8 136.2 99.8 Z M 132.7 101 C 132.7 103.5 133.4 104 134.5 104 C 135.5 104 136.1 103.2 136.1 102.3 C 136.1 102.3 137.7 102.3 137.7 102.3 C 137.7 104.3 136.5 105.2 134.6 105.2 C 132.6 105.2 131.1 104.6 131.1 100.6 C 131.1 98 131.4 95.8 134.6 95.8 C 137.2 95.8 137.8 97.2 137.8 100.2 C 137.81 100.19 137.8 101 137.8 101 C 137.8 101 132.69 100.96 132.7 101 Z M 141.6 102.3 C 141.6 103.2 142 104 143 104 C 143.9 104 145 103.4 144.9 100.5 C 143.5 100.5 141.6 100.4 141.6 102.3 Z M 144.9 103.7 C 144.9 103.7 144.9 103.72 144.9 103.7 C 144.4 104.8 143.7 105.2 142.6 105.2 C 140.7 105.2 140.1 104 140.1 102.2 C 140.1 99.5 142.8 99.3 144.9 99.4 C 144.9 98.2 145 96.9 143.4 96.9 C 142.4 96.9 141.9 97.5 141.9 98.5 C 141.9 98.5 140.3 98.5 140.3 98.5 C 140.4 96.5 141.5 95.8 143.4 95.8 C 145.8 95.8 146.4 97 146.4 98.5 C 146.4 98.5 146.4 102.9 146.4 102.9 C 146.4 103.6 146.4 104.3 146.6 105 C 146.55 105.03 144.9 105 144.9 105 L 144.9 103.7 Z M 150.8 97.3 C 150.8 97.3 150.82 97.31 150.8 97.3 C 151.4 95.9 152.2 95.8 153.6 95.8 C 153.6 95.8 153.6 97.3 153.6 97.3 C 153.5 97.3 153.4 97.3 153.2 97.2 C 153.1 97.2 153 97.2 152.8 97.2 C 151.2 97.2 150.8 98.4 150.8 99.7 C 150.78 99.67 150.8 105 150.8 105 L 149.3 105 L 149.3 95.9 L 150.8 95.9 L 150.8 97.3 Z M 157.9 105.2 C 156 105.2 154.7 104.3 154.8 102.3 C 154.8 102.3 156.5 102.3 156.5 102.3 C 156.5 102.8 156.5 104 158 104 C 158.9 104 159.5 103.6 159.5 102.6 C 159.5 101 155 101 155 98.2 C 155 97.3 155.6 95.8 158.1 95.8 C 159.8 95.8 161.2 96.5 161 98.3 C 161 98.3 159.4 98.3 159.4 98.3 C 159.4 97.4 158.9 96.9 158 96.9 C 157.2 96.9 156.6 97.3 156.6 98.1 C 156.6 99.7 161.1 99.7 161.1 102.4 C 161.1 104.4 159.7 105.2 157.9 105.2 Z M 168.6 102.3 C 168.6 103.2 169 104 170 104 C 170.9 104 172 103.4 171.9 100.5 C 170.5 100.5 168.6 100.4 168.6 102.3 Z M 171.9 103.7 C 171.9 103.7 171.88 103.72 171.9 103.7 C 171.4 104.8 170.7 105.2 169.6 105.2 C 167.7 105.2 167.1 104 167.1 102.2 C 167.1 99.5 169.8 99.3 171.9 99.4 C 171.9 98.2 171.9 96.9 170.3 96.9 C 169.4 96.9 168.8 97.5 168.9 98.5 C 168.9 98.5 167.3 98.5 167.3 98.5 C 167.4 96.5 168.5 95.8 170.4 95.8 C 172.7 95.8 173.4 97 173.4 98.5 C 173.4 98.5 173.4 102.9 173.4 102.9 C 173.4 103.6 173.4 104.3 173.5 105 C 173.54 105.03 171.9 105 171.9 105 L 171.9 103.7 Z M 181.2 105 C 181.2 105 181.17 98.73 181.2 98.7 C 181.2 97.8 180.8 97 179.6 97 C 177.9 97 177.7 98.4 177.7 99.6 C 177.71 99.65 177.7 105 177.7 105 L 176.2 105 C 176.2 105 176.24 97.83 176.2 97.8 C 176.2 97.2 176.2 96.6 176.1 95.9 C 176.15 95.94 177.7 95.9 177.7 95.9 L 177.7 97.1 C 177.7 97.1 177.78 97.11 177.8 97.1 C 178.4 96.1 179 95.8 180.2 95.8 C 182.2 95.8 182.6 96.9 182.6 98.7 C 182.64 98.73 182.6 105 182.6 105 L 181.2 105 Z M 188.3 97 C 186.7 97 186.5 98.2 186.5 100.7 C 186.5 102 186.5 104 188.4 104 C 190 104 190 102 190 100.1 C 190 98.9 190 97 188.3 97 Z M 190 92 L 191.5 92 L 191.5 105 L 190 105 L 190 104 C 190 104 190.01 103.95 190 104 C 189.5 104.8 188.9 105.2 187.9 105.2 C 186.5 105.2 185 104.6 185 100.6 C 185 98.4 185.1 95.8 188 95.8 C 188.9 95.8 189.5 96.1 190 96.9 C 189.99 96.86 190 96.9 190 96.9 L 190 92 Z M 203.3 100 C 203.3 97.5 202.6 97 201.4 97 C 200.3 97 199.5 97.5 199.5 100 C 199.5 102.9 199.9 104 201.4 104 C 203 104 203.3 102.9 203.3 100 Z M 198 100.6 C 198 98 198.3 95.8 201.4 95.8 C 204.6 95.8 204.9 98 204.9 100.6 C 204.9 104.6 203.4 105.2 201.4 105.2 C 199.5 105.2 198 104.6 198 100.6 Z M 208.7 105 L 207.2 105 L 207.2 92 L 208.7 92 L 208.7 105 Z M 214.3 97 C 212.7 97 212.5 98.2 212.5 100.7 C 212.5 102 212.5 104 214.4 104 C 216 104 216 102 216 100.1 C 216 98.9 216 97 214.3 97 Z M 216 92 L 217.5 92 L 217.5 105 L 216 105 L 216 104 C 216 104 216 103.95 216 104 C 215.5 104.8 214.9 105.2 213.9 105.2 C 212.5 105.2 211 104.6 211 100.6 C 211 98.4 211 95.8 214 95.8 C 214.8 95.8 215.5 96.1 216 96.9 C 215.98 96.86 216 96.9 216 96.9 L 216 92 Z M 225.2 99.8 C 225.2 97.2 224.5 96.9 223.4 96.9 C 222.5 96.9 221.7 97.3 221.7 99.8 C 221.7 99.8 225.2 99.8 225.2 99.8 Z M 221.7 101 C 221.7 103.5 222.4 104 223.5 104 C 224.5 104 225 103.2 225.1 102.3 C 225.1 102.3 226.7 102.3 226.7 102.3 C 226.7 104.3 225.4 105.2 223.5 105.2 C 221.6 105.2 220.1 104.6 220.1 100.6 C 220.1 98 220.4 95.8 223.5 95.8 C 226.1 95.8 226.8 97.2 226.8 100.2 C 226.78 100.19 226.8 101 226.8 101 C 226.8 101 221.67 100.96 221.7 101 Z M 230.8 97.3 C 230.8 97.3 230.79 97.31 230.8 97.3 C 231.4 95.9 232.2 95.8 233.6 95.8 C 233.6 95.8 233.6 97.3 233.6 97.3 C 233.5 97.3 233.3 97.3 233.2 97.2 C 233.1 97.2 233 97.2 232.8 97.2 C 231.2 97.2 230.8 98.4 230.8 99.7 C 230.76 99.67 230.8 105 230.8 105 L 229.3 105 L 229.3 95.9 L 230.8 95.9 L 230.8 97.3 Z M 237 99 L 236 99 L 236 92.8 L 234.9 93.5 C 234.9 93.5 234.9 92.63 234.9 92.6 C 235.1 92.5 235.8 92 236.1 91.8 C 236.13 91.76 237 91.8 237 91.8 L 237 99 Z " stroke="none" fill="#555555"/>  </g>  <g id="Polygon192305">    <path d="M 2.7 84.2 C 1.9 81.6 0.9 79.1 0.9 76.4 C 0.9 73.6 1.9 71 2.7 68.4 C 2.7 68.4 3.8 68.4 3.8 68.4 C 3.1 71.1 2.6 73.7 2.6 76.5 C 2.6 79.1 3.1 81.6 3.7 84.2 C 3.7 84.2 2.7 84.2 2.7 84.2 Z M 6.6 82 L 6.6 69 L 8.2 69 L 8.2 74.7 L 12.8 74.7 L 12.8 69 L 14.4 69 L 14.4 82 L 12.8 82 L 12.8 76.1 L 8.2 76.1 L 8.2 82 L 6.6 82 Z M 20.4 69 L 22.5 69 L 26.7 82 L 24.9 82 L 23.9 78.9 L 18.9 78.9 L 17.9 82 L 16.3 82 L 20.4 69 Z M 21.4 70.6 L 21.4 70.6 L 19.3 77.5 L 23.5 77.5 L 21.4 70.6 Z M 28.5 82 L 28.5 69 L 35.2 69 L 35.2 70.5 L 30.1 70.5 L 30.1 74.7 L 34.8 74.7 L 34.8 76.1 L 30.1 76.1 L 30.1 80.6 L 35.3 80.6 L 35.3 82 L 28.5 82 Z M 37.3 84.2 C 37.9 81.6 38.4 79.1 38.4 76.5 C 38.4 73.7 37.9 71.1 37.2 68.4 C 37.2 68.4 38.3 68.4 38.3 68.4 C 39.1 71 40.1 73.6 40.1 76.4 C 40.1 79.1 39.1 81.6 38.3 84.2 C 38.3 84.2 37.3 84.2 37.3 84.2 Z M 47.7 82 L 46.3 82 L 46.3 72.9 L 47.7 72.9 L 47.7 82 Z M 46.2 69 L 47.8 69 L 47.8 70.6 L 46.2 70.6 L 46.2 69 Z M 55.2 82 C 55.2 82 55.22 75.73 55.2 75.7 C 55.2 74.8 54.9 74 53.6 74 C 52 74 51.8 75.4 51.8 76.6 C 51.77 76.65 51.8 82 51.8 82 L 50.3 82 C 50.3 82 50.29 74.83 50.3 74.8 C 50.3 74.2 50.3 73.6 50.2 72.9 C 50.2 72.94 51.8 72.9 51.8 72.9 L 51.8 74.1 C 51.8 74.1 51.84 74.11 51.8 74.1 C 52.4 73.1 53.1 72.8 54.3 72.8 C 56.2 72.8 56.7 73.9 56.7 75.7 C 56.7 75.73 56.7 82 56.7 82 L 55.2 82 Z M 64.6 79.3 C 64.6 80.2 65.1 81 66.1 81 C 67 81 68.1 80.4 67.9 77.5 C 66.5 77.5 64.6 77.4 64.6 79.3 Z M 68 80.7 C 68 80.7 67.93 80.72 67.9 80.7 C 67.5 81.8 66.8 82.2 65.6 82.2 C 63.7 82.2 63.2 81 63.2 79.2 C 63.2 76.5 65.9 76.3 67.9 76.4 C 68 75.2 68 73.9 66.4 73.9 C 65.4 73.9 64.9 74.5 65 75.5 C 65 75.5 63.4 75.5 63.4 75.5 C 63.4 73.5 64.5 72.8 66.5 72.8 C 68.8 72.8 69.4 74 69.4 75.5 C 69.4 75.5 69.4 79.9 69.4 79.9 C 69.4 80.6 69.5 81.3 69.6 82 C 69.59 82.03 68 82 68 82 L 68 80.7 Z M 75.4 74 C 73.8 74 73.6 75.2 73.6 77.7 C 73.6 79 73.6 81 75.4 81 C 77.1 81 77.1 79 77.1 77.1 C 77.1 75.9 77 74 75.4 74 Z M 77.1 69 L 78.6 69 L 78.6 82 L 77.1 82 L 77.1 81 C 77.1 81 77.06 80.95 77.1 81 C 76.6 81.8 75.9 82.2 75 82.2 C 73.5 82.2 72 81.6 72 77.6 C 72 75.4 72.1 72.8 75 72.8 C 75.9 72.8 76.5 73.1 77 73.9 C 77.04 73.86 77.1 73.9 77.1 73.9 L 77.1 69 Z M 86.1 72.9 L 87.6 72.9 C 87.6 72.9 87.62 80.14 87.6 80.1 C 87.6 80.8 87.7 81.4 87.7 82 C 87.71 82.03 86.1 82 86.1 82 L 86.1 80.9 C 86.1 80.9 86.09 80.93 86.1 80.9 C 85.6 81.8 84.7 82.2 83.8 82.2 C 82.2 82.2 81.3 81.4 81.3 79.9 C 81.34 79.87 81.3 72.9 81.3 72.9 L 82.8 72.9 C 82.8 72.9 82.82 79.24 82.8 79.2 C 82.8 80.3 83.3 81.1 84.4 81.1 C 85.2 81.1 86.1 80.5 86.1 79 C 86.15 78.97 86.1 72.9 86.1 72.9 Z M 91.7 82 L 90.3 82 L 90.3 69 L 91.7 69 L 91.7 82 Z M 94.4 72.9 L 94.4 71.2 L 95.9 70.5 L 95.9 72.9 L 97.9 72.9 L 97.9 74.1 L 95.9 74.1 C 95.9 74.1 95.92 79.62 95.9 79.6 C 95.9 80.2 95.9 80.9 97.3 80.9 C 97.4 80.9 97.6 80.9 97.9 80.9 C 97.9 80.9 97.9 82 97.9 82 C 97.5 82 97 82.1 96.5 82.1 C 95.1 82.1 94.4 81.6 94.4 80.5 C 94.44 80.52 94.4 74.1 94.4 74.1 L 93 74.1 L 93 72.9 L 94.4 72.9 Z M 104.6 79.3 C 104.6 80.2 105.1 81 106.1 81 C 107 81 108.1 80.4 107.9 77.5 C 106.5 77.5 104.6 77.4 104.6 79.3 Z M 108 80.7 C 108 80.7 107.93 80.72 107.9 80.7 C 107.5 81.8 106.8 82.2 105.6 82.2 C 103.7 82.2 103.2 81 103.2 79.2 C 103.2 76.5 105.9 76.3 107.9 76.4 C 108 75.2 108 73.9 106.4 73.9 C 105.4 73.9 104.9 74.5 105 75.5 C 105 75.5 103.4 75.5 103.4 75.5 C 103.4 73.5 104.5 72.8 106.5 72.8 C 108.8 72.8 109.4 74 109.4 75.5 C 109.4 75.5 109.4 79.9 109.4 79.9 C 109.4 80.6 109.5 81.3 109.6 82 C 109.58 82.03 108 82 108 82 L 108 80.7 Z M 117.2 82 C 117.2 82 117.21 75.73 117.2 75.7 C 117.2 74.8 116.9 74 115.6 74 C 114 74 113.8 75.4 113.8 76.6 C 113.76 76.65 113.8 82 113.8 82 L 112.3 82 C 112.3 82 112.28 74.83 112.3 74.8 C 112.3 74.2 112.2 73.6 112.2 72.9 C 112.19 72.94 113.8 72.9 113.8 72.9 L 113.8 74.1 C 113.8 74.1 113.83 74.11 113.8 74.1 C 114.4 73.1 115.1 72.8 116.3 72.8 C 118.2 72.8 118.7 73.9 118.7 75.7 C 118.69 75.73 118.7 82 118.7 82 L 117.2 82 Z M 124.4 74 C 122.8 74 122.6 75.2 122.6 77.7 C 122.6 79 122.6 81 124.4 81 C 126.1 81 126.1 79 126.1 77.1 C 126.1 75.9 126 74 124.4 74 Z M 126.1 69 L 127.6 69 L 127.6 82 L 126.1 82 L 126.1 81 C 126.1 81 126.05 80.95 126.1 81 C 125.5 81.8 124.9 82.2 124 82.2 C 122.5 82.2 121 81.6 121 77.6 C 121 75.4 121.1 72.8 124 72.8 C 124.9 72.8 125.5 73.1 126 73.9 C 126.03 73.86 126.1 73.9 126.1 73.9 L 126.1 69 Z M 135.6 79.3 C 135.6 80.2 136.1 81 137.1 81 C 138 81 139.1 80.4 138.9 77.5 C 137.5 77.5 135.6 77.4 135.6 79.3 Z M 139 80.7 C 139 80.7 138.92 80.72 138.9 80.7 C 138.5 81.8 137.8 82.2 136.6 82.2 C 134.7 82.2 134.2 81 134.2 79.2 C 134.2 76.5 136.9 76.3 138.9 76.4 C 139 75.2 139 73.9 137.4 73.9 C 136.4 73.9 135.9 74.5 136 75.5 C 136 75.5 134.4 75.5 134.4 75.5 C 134.4 73.5 135.5 72.8 137.4 72.8 C 139.8 72.8 140.4 74 140.4 75.5 C 140.4 75.5 140.4 79.9 140.4 79.9 C 140.4 80.6 140.5 81.3 140.6 82 C 140.58 82.03 139 82 139 82 L 139 80.7 Z M 146.4 74 C 144.8 74 144.6 75.2 144.6 77.7 C 144.6 79 144.6 81 146.4 81 C 148.1 81 148.1 79 148.1 77.1 C 148.1 75.9 148 74 146.4 74 Z M 148.1 69 L 149.6 69 L 149.6 82 L 148.1 82 L 148.1 81 C 148.1 81 148.05 80.95 148 81 C 147.5 81.8 146.9 82.2 146 82.2 C 144.5 82.2 143 81.6 143 77.6 C 143 75.4 143.1 72.8 146 72.8 C 146.9 72.8 147.5 73.1 148 73.9 C 148.03 73.86 148.1 73.9 148.1 73.9 L 148.1 69 Z M 157.4 77 C 157.4 74.5 156.6 74 155.5 74 C 154.3 74 153.6 74.5 153.6 77 C 153.6 79.9 154 81 155.5 81 C 157 81 157.4 79.9 157.4 77 Z M 152 77.6 C 152 75 152.3 72.8 155.5 72.8 C 158.6 72.8 158.9 75 158.9 77.6 C 158.9 81.6 157.4 82.2 155.5 82.2 C 153.6 82.2 152 81.6 152 77.6 Z M 162.7 82 L 161.2 82 L 161.2 69 L 162.7 69 L 162.7 82 Z M 170.3 76.8 C 170.3 74.2 169.5 73.9 168.4 73.9 C 167.5 73.9 166.7 74.3 166.7 76.8 C 166.7 76.8 170.3 76.8 170.3 76.8 Z M 166.7 78 C 166.7 80.5 167.4 81 168.5 81 C 169.6 81 170.1 80.2 170.1 79.3 C 170.1 79.3 171.8 79.3 171.8 79.3 C 171.7 81.3 170.5 82.2 168.6 82.2 C 166.7 82.2 165.1 81.6 165.1 77.6 C 165.1 75 165.4 72.8 168.6 72.8 C 171.2 72.8 171.8 74.2 171.8 77.2 C 171.83 77.19 171.8 78 171.8 78 C 171.8 78 166.71 77.96 166.7 78 Z M 177 82.2 C 175 82.2 173.8 81.3 173.8 79.3 C 173.8 79.3 175.5 79.3 175.5 79.3 C 175.5 79.8 175.5 81 177 81 C 177.9 81 178.6 80.6 178.6 79.6 C 178.6 78 174 78 174 75.2 C 174 74.3 174.6 72.8 177.2 72.8 C 178.8 72.8 180.2 73.5 180.1 75.3 C 180.1 75.3 178.4 75.3 178.4 75.3 C 178.4 74.4 177.9 73.9 177 73.9 C 176.2 73.9 175.6 74.3 175.6 75.1 C 175.6 76.7 180.1 76.7 180.1 79.4 C 180.1 81.4 178.8 82.2 177 82.2 Z M 187 75.9 C 187.1 74.4 186.3 74 185.8 74 C 184.6 74 183.8 74.5 183.8 77 C 183.8 79.9 184.2 81 185.8 81 C 186.1 81 187.1 80.6 187.1 79 C 187.1 79 188.6 79 188.6 79 C 188.7 81.6 186.8 82.2 185.8 82.2 C 183.8 82.2 182.3 81.6 182.3 77.6 C 182.3 75 182.6 72.8 185.8 72.8 C 187.6 72.8 188.6 73.8 188.5 75.9 C 188.5 75.9 187 75.9 187 75.9 Z M 196.3 76.8 C 196.3 74.2 195.5 73.9 194.4 73.9 C 193.5 73.9 192.7 74.3 192.7 76.8 C 192.7 76.8 196.3 76.8 196.3 76.8 Z M 192.7 78 C 192.7 80.5 193.4 81 194.5 81 C 195.5 81 196.1 80.2 196.1 79.3 C 196.1 79.3 197.7 79.3 197.7 79.3 C 197.7 81.3 196.5 82.2 194.6 82.2 C 192.7 82.2 191.1 81.6 191.1 77.6 C 191.1 75 191.4 72.8 194.6 72.8 C 197.2 72.8 197.8 74.2 197.8 77.2 C 197.82 77.19 197.8 78 197.8 78 C 197.8 78 192.71 77.96 192.7 78 Z M 205.2 82 C 205.2 82 205.2 75.73 205.2 75.7 C 205.2 74.8 204.9 74 203.6 74 C 202 74 201.7 75.4 201.7 76.6 C 201.74 76.65 201.7 82 201.7 82 L 200.3 82 C 200.3 82 200.27 74.83 200.3 74.8 C 200.3 74.2 200.2 73.6 200.2 72.9 C 200.18 72.94 201.7 72.9 201.7 72.9 L 201.7 74.1 C 201.7 74.1 201.81 74.11 201.8 74.1 C 202.4 73.1 203.1 72.8 204.2 72.8 C 206.2 72.8 206.7 73.9 206.7 75.7 C 206.67 75.73 206.7 82 206.7 82 L 205.2 82 Z M 209.4 72.9 L 209.4 71.2 L 210.9 70.5 L 210.9 72.9 L 212.9 72.9 L 212.9 74.1 L 210.9 74.1 C 210.9 74.1 210.9 79.62 210.9 79.6 C 210.9 80.2 210.9 80.9 212.3 80.9 C 212.4 80.9 212.6 80.9 212.9 80.9 C 212.9 80.9 212.9 82 212.9 82 C 212.4 82 211.9 82.1 211.5 82.1 C 210.1 82.1 209.4 81.6 209.4 80.5 C 209.43 80.52 209.4 74.1 209.4 74.1 L 207.9 74.1 L 207.9 72.9 L 209.4 72.9 Z " stroke="none" fill="#555555"/>  </g>  <g id="Polygon192304">    <path d="M 2.6 56.3 C 2.6 57.2 3.1 58 4.1 58 C 5 58 6.1 57.4 5.9 54.5 C 4.5 54.5 2.6 54.4 2.6 56.3 Z M 6 57.7 C 6 57.7 5.94 57.72 5.9 57.7 C 5.5 58.8 4.8 59.2 3.7 59.2 C 1.7 59.2 1.2 58 1.2 56.2 C 1.2 53.5 3.9 53.3 5.9 53.4 C 6 52.2 6 50.9 4.4 50.9 C 3.4 50.9 2.9 51.5 3 52.5 C 3 52.5 1.4 52.5 1.4 52.5 C 1.5 50.5 2.5 49.8 4.5 49.8 C 6.8 49.8 7.4 51 7.4 52.5 C 7.4 52.5 7.4 56.9 7.4 56.9 C 7.4 57.6 7.5 58.3 7.6 59 C 7.6 59.03 6 59 6 59 L 6 57.7 Z M 10.5 49.9 L 10.5 48.2 L 11.9 47.5 L 11.9 49.9 L 13.9 49.9 L 13.9 51.1 L 11.9 51.1 C 11.9 51.1 11.93 56.62 11.9 56.6 C 11.9 57.2 11.9 57.9 13.3 57.9 C 13.4 57.9 13.6 57.9 13.9 57.9 C 13.9 57.9 13.9 59 13.9 59 C 13.5 59 13 59.1 12.5 59.1 C 11.1 59.1 10.5 58.6 10.5 57.5 C 10.46 57.52 10.5 51.1 10.5 51.1 L 9 51.1 L 9 49.9 L 10.5 49.9 Z M 15.5 49.9 L 15.5 48.2 L 16.9 47.5 L 16.9 49.9 L 18.9 49.9 L 18.9 51.1 L 16.9 51.1 C 16.9 51.1 16.94 56.62 16.9 56.6 C 16.9 57.2 16.9 57.9 18.3 57.9 C 18.4 57.9 18.6 57.9 19 57.9 C 19 57.9 19 59 19 59 C 18.5 59 18 59.1 17.5 59.1 C 16.1 59.1 15.5 58.6 15.5 57.5 C 15.46 57.52 15.5 51.1 15.5 51.1 L 14 51.1 L 14 49.9 L 15.5 49.9 Z M 21.7 56.3 C 21.7 57.2 22.1 58 23.1 58 C 24 58 25.1 57.4 24.9 54.5 C 23.5 54.5 21.7 54.4 21.7 56.3 Z M 25 57.7 C 25 57.7 24.95 57.72 24.9 57.7 C 24.5 58.8 23.8 59.2 22.7 59.2 C 20.7 59.2 20.2 58 20.2 56.2 C 20.2 53.5 22.9 53.3 24.9 53.4 C 25 52.2 25 50.9 23.4 50.9 C 22.4 50.9 21.9 51.5 22 52.5 C 22 52.5 20.4 52.5 20.4 52.5 C 20.5 50.5 21.5 49.8 23.5 49.8 C 25.8 49.8 26.4 51 26.4 52.5 C 26.4 52.5 26.4 56.9 26.4 56.9 C 26.4 57.6 26.5 58.3 26.6 59 C 26.6 59.03 25 59 25 59 L 25 57.7 Z M 34.1 52.9 C 34.1 51.4 33.4 51 32.8 51 C 31.7 51 30.9 51.5 30.9 54 C 30.9 56.9 31.3 58 32.8 58 C 33.1 58 34.2 57.6 34.1 56 C 34.1 56 35.7 56 35.7 56 C 35.7 58.6 33.8 59.2 32.8 59.2 C 30.9 59.2 29.3 58.6 29.3 54.6 C 29.3 52 29.6 49.8 32.8 49.8 C 34.6 49.8 35.7 50.8 35.6 52.9 C 35.6 52.9 34.1 52.9 34.1 52.9 Z M 39.8 59 L 38.3 59 L 38.3 46 L 39.8 46 L 39.8 53.9 L 39.8 53.9 L 42.6 49.9 L 44.4 49.9 L 41.4 53.8 L 44.9 59 L 43.1 59 L 39.8 53.9 L 39.8 53.9 L 39.8 59 Z M 49 59.2 C 47 59.2 45.8 58.3 45.8 56.3 C 45.8 56.3 47.5 56.3 47.5 56.3 C 47.5 56.8 47.5 58 49 58 C 49.9 58 50.6 57.6 50.6 56.6 C 50.6 55 46.1 55 46.1 52.2 C 46.1 51.3 46.6 49.8 49.2 49.8 C 50.8 49.8 52.2 50.5 52.1 52.3 C 52.1 52.3 50.4 52.3 50.4 52.3 C 50.5 51.4 49.9 50.9 49 50.9 C 48.2 50.9 47.6 51.3 47.6 52.1 C 47.6 53.7 52.1 53.7 52.1 56.4 C 52.1 58.4 50.8 59.2 49 59.2 Z M 63.4 54 C 63.4 51.5 62.6 51 61.5 51 C 60.4 51 59.6 51.5 59.6 54 C 59.6 56.9 60 58 61.5 58 C 63 58 63.4 56.9 63.4 54 Z M 58 54.6 C 58 52 58.3 49.8 61.5 49.8 C 64.6 49.8 64.9 52 64.9 54.6 C 64.9 58.6 63.4 59.2 61.5 59.2 C 59.6 59.2 58 58.6 58 54.6 Z M 67.6 49.9 C 67.6 49.9 67.55 48.18 67.6 48.2 C 67.6 46.3 68.8 46 70.2 46 C 70.5 46 70.6 46 70.9 46 C 70.9 46 70.9 47.1 70.9 47.1 C 69.3 47 69 47.7 69 48.4 C 69.03 48.39 69 49.9 69 49.9 L 70.9 49.9 L 70.9 51.1 L 69 51.1 L 69 59 L 67.6 59 L 67.6 51.1 L 66.1 51.1 L 66.1 49.9 L 67.6 49.9 Z M 81.2 59 C 81.2 59 81.21 52.88 81.2 52.9 C 81.2 51.8 80.9 51 79.6 51 C 78.1 51 77.7 52.2 77.7 53.7 C 77.74 53.69 77.7 59 77.7 59 L 76.3 59 L 76.3 46 L 77.7 46 L 77.7 51.1 C 77.7 51.1 77.81 51.11 77.8 51.1 C 78.4 50 79.1 49.8 80.3 49.8 C 81.8 49.8 82.7 50.5 82.7 52.6 C 82.69 52.59 82.7 59 82.7 59 L 81.2 59 Z M 90.3 53.8 C 90.3 51.2 89.5 50.9 88.5 50.9 C 87.5 50.9 86.7 51.3 86.7 53.8 C 86.7 53.8 90.3 53.8 90.3 53.8 Z M 86.7 55 C 86.7 57.5 87.4 58 88.6 58 C 89.6 58 90.1 57.2 90.1 56.3 C 90.1 56.3 91.8 56.3 91.8 56.3 C 91.7 58.3 90.5 59.2 88.6 59.2 C 86.7 59.2 85.1 58.6 85.1 54.6 C 85.1 52 85.4 49.8 88.6 49.8 C 91.2 49.8 91.8 51.2 91.8 54.2 C 91.83 54.19 91.8 55 91.8 55 C 91.8 55 86.72 54.96 86.7 55 Z M 95.8 51.3 C 95.8 51.3 95.85 51.31 95.8 51.3 C 96.5 49.9 97.2 49.8 98.7 49.8 C 98.7 49.8 98.7 51.3 98.7 51.3 C 98.5 51.3 98.4 51.3 98.3 51.2 C 98.1 51.2 98 51.2 97.9 51.2 C 96.2 51.2 95.8 52.4 95.8 53.7 C 95.81 53.67 95.8 59 95.8 59 L 94.3 59 L 94.3 49.9 L 95.8 49.9 L 95.8 51.3 Z M 105.3 53.8 C 105.3 51.2 104.5 50.9 103.4 50.9 C 102.5 50.9 101.7 51.3 101.7 53.8 C 101.7 53.8 105.3 53.8 105.3 53.8 Z M 101.7 55 C 101.7 57.5 102.4 58 103.6 58 C 104.6 58 105.1 57.2 105.1 56.3 C 105.1 56.3 106.8 56.3 106.8 56.3 C 106.7 58.3 105.5 59.2 103.6 59.2 C 101.7 59.2 100.1 58.6 100.1 54.6 C 100.1 52 100.4 49.8 103.6 49.8 C 106.2 49.8 106.8 51.2 106.8 54.2 C 106.83 54.19 106.8 55 106.8 55 C 106.8 55 101.72 54.96 101.7 55 Z M 112.4 51 C 110.8 51 110.6 52.2 110.6 54.7 C 110.6 56 110.6 58 112.4 58 C 114.1 58 114.1 56 114.1 54.1 C 114.1 52.9 114 51 112.4 51 Z M 114.1 46 L 115.6 46 L 115.6 59 L 114.1 59 L 114.1 58 C 114.1 58 114.05 57.95 114 58 C 113.5 58.8 112.9 59.2 112 59.2 C 110.5 59.2 109 58.6 109 54.6 C 109 52.4 109.1 49.8 112 49.8 C 112.9 49.8 113.5 50.1 114 50.9 C 114.03 50.86 114.1 50.9 114.1 50.9 L 114.1 46 Z M 119.7 59 L 118.2 59 L 118.2 49.9 L 119.7 49.9 L 119.7 59 Z M 118.2 46 L 119.8 46 L 119.8 47.6 L 118.2 47.6 L 118.2 46 Z M 122.4 49.9 L 122.4 48.2 L 123.9 47.5 L 123.9 49.9 L 125.9 49.9 L 125.9 51.1 L 123.9 51.1 C 123.9 51.1 123.91 56.62 123.9 56.6 C 123.9 57.2 123.9 57.9 125.3 57.9 C 125.4 57.9 125.6 57.9 125.9 57.9 C 125.9 57.9 125.9 59 125.9 59 C 125.4 59 125 59.1 124.5 59.1 C 123.1 59.1 122.4 58.6 122.4 57.5 C 122.43 57.52 122.4 51.1 122.4 51.1 L 120.9 51.1 L 120.9 49.9 L 122.4 49.9 Z M 128.6 56.3 C 128.6 57.2 129.1 58 130 58 C 130.9 58 132.1 57.4 131.9 54.5 C 130.5 54.5 128.6 54.4 128.6 56.3 Z M 132 57.7 C 132 57.7 131.92 57.72 131.9 57.7 C 131.5 58.8 130.8 59.2 129.6 59.2 C 127.7 59.2 127.2 58 127.2 56.2 C 127.2 53.5 129.9 53.3 131.9 53.4 C 132 52.2 132 50.9 130.4 50.9 C 129.4 50.9 128.9 51.5 129 52.5 C 129 52.5 127.4 52.5 127.4 52.5 C 127.4 50.5 128.5 49.8 130.4 49.8 C 132.8 49.8 133.4 51 133.4 52.5 C 133.4 52.5 133.4 56.9 133.4 56.9 C 133.4 57.6 133.5 58.3 133.6 59 C 133.58 59.03 132 59 132 59 L 132 57.7 Z M 137.8 51.3 C 137.8 51.3 137.84 51.31 137.8 51.3 C 138.5 49.9 139.2 49.8 140.7 49.8 C 140.7 49.8 140.7 51.3 140.7 51.3 C 140.5 51.3 140.4 51.3 140.3 51.2 C 140.1 51.2 140 51.2 139.9 51.2 C 138.2 51.2 137.8 52.4 137.8 53.7 C 137.81 53.67 137.8 59 137.8 59 L 136.3 59 L 136.3 49.9 L 137.8 49.9 L 137.8 51.3 Z M 145 57.3 L 145 57.3 L 147.2 49.9 L 148.8 49.9 L 144.7 62.5 L 143.2 62.5 L 144.2 59 L 141.1 49.9 L 142.8 49.9 L 145 57.3 Z M 155.6 56.3 C 155.6 57.2 156 58 157 58 C 157.9 58 159 57.4 158.9 54.5 C 157.5 54.5 155.6 54.4 155.6 56.3 Z M 158.9 57.7 C 158.9 57.7 158.9 57.72 158.9 57.7 C 158.5 58.8 157.7 59.2 156.6 59.2 C 154.7 59.2 154.1 58 154.1 56.2 C 154.1 53.5 156.8 53.3 158.9 53.4 C 158.9 52.2 159 50.9 157.4 50.9 C 156.4 50.9 155.9 51.5 155.9 52.5 C 155.9 52.5 154.3 52.5 154.3 52.5 C 154.4 50.5 155.5 49.8 157.4 49.8 C 159.8 49.8 160.4 51 160.4 52.5 C 160.4 52.5 160.4 56.9 160.4 56.9 C 160.4 57.6 160.4 58.3 160.6 59 C 160.56 59.03 158.9 59 158.9 59 L 158.9 57.7 Z M 168.2 59 C 168.2 59 168.19 52.73 168.2 52.7 C 168.2 51.8 167.8 51 166.6 51 C 165 51 164.7 52.4 164.7 53.6 C 164.73 53.65 164.7 59 164.7 59 L 163.3 59 C 163.3 59 163.26 51.83 163.3 51.8 C 163.3 51.2 163.2 50.6 163.2 49.9 C 163.17 49.94 164.7 49.9 164.7 49.9 L 164.7 51.1 C 164.7 51.1 164.81 51.11 164.8 51.1 C 165.4 50.1 166.1 49.8 167.2 49.8 C 169.2 49.8 169.7 50.9 169.7 52.7 C 169.67 52.73 169.7 59 169.7 59 L 168.2 59 Z M 175.3 51 C 173.7 51 173.6 53 173.6 54.2 C 173.6 57.1 174.3 57.8 175.4 57.8 C 177.2 57.8 177.1 55.7 177.1 54.4 C 177.1 53.1 177.2 51 175.3 51 Z M 177.1 49.9 L 178.5 49.9 C 178.5 49.9 178.54 59.95 178.5 59.9 C 178.5 62 177.2 62.5 175.2 62.5 C 173.7 62.5 172.3 61.7 172.4 60 C 172.4 60 174.1 60 174.1 60 C 174.1 60.9 174.7 61.4 175.5 61.4 C 176.5 61.4 177.1 60.7 177.1 59.8 C 177.06 59.79 177.1 57.9 177.1 57.9 C 177.1 57.9 177.01 57.9 177 57.9 C 176.6 58.6 175.8 59 175 59 C 172.5 59 172.1 56.9 172.1 54.2 C 172.1 50 174.2 49.8 174.9 49.8 C 175.9 49.8 176.6 50.2 177 51.1 C 177.03 51.06 177.1 51.1 177.1 51.1 L 177.1 49.9 Z M 182.7 59 L 181.2 59 L 181.2 49.9 L 182.7 49.9 L 182.7 59 Z M 181.1 46 L 182.8 46 L 182.8 47.6 L 181.1 47.6 L 181.1 46 Z M 190.4 54 C 190.4 51.5 189.6 51 188.5 51 C 187.3 51 186.5 51.5 186.5 54 C 186.5 56.9 186.9 58 188.5 58 C 190 58 190.4 56.9 190.4 54 Z M 185 54.6 C 185 52 185.3 49.8 188.5 49.8 C 191.6 49.8 191.9 52 191.9 54.6 C 191.9 58.6 190.4 59.2 188.5 59.2 C 186.5 59.2 185 58.6 185 54.6 Z M 199.2 53.8 C 199.2 51.2 198.5 50.9 197.4 50.9 C 196.5 50.9 195.7 51.3 195.7 53.8 C 195.7 53.8 199.2 53.8 199.2 53.8 Z M 195.7 55 C 195.7 57.5 196.4 58 197.5 58 C 198.5 58 199.1 57.2 199.1 56.3 C 199.1 56.3 200.7 56.3 200.7 56.3 C 200.7 58.3 199.5 59.2 197.6 59.2 C 195.6 59.2 194.1 58.6 194.1 54.6 C 194.1 52 194.4 49.8 197.6 49.8 C 200.2 49.8 200.8 51.2 200.8 54.2 C 200.81 54.19 200.8 55 200.8 55 C 200.8 55 195.69 54.96 195.7 55 Z M 206.3 51 C 204.8 51 204.5 52.2 204.5 54.7 C 204.5 56 204.5 58 206.4 58 C 208.1 58 208.1 56 208.1 54.1 C 208.1 52.9 208 51 206.3 51 Z M 208.1 46 L 209.5 46 L 209.5 59 L 208.1 59 L 208.1 58 C 208.1 58 208.02 57.95 208 58 C 207.5 58.8 206.9 59.2 205.9 59.2 C 204.5 59.2 203 58.6 203 54.6 C 203 52.4 203.1 49.8 206 49.8 C 206.9 49.8 207.5 50.1 208 50.9 C 208.01 50.86 208.1 50.9 208.1 50.9 L 208.1 46 Z M 217.2 53.8 C 217.2 51.2 216.5 50.9 215.4 50.9 C 214.5 50.9 213.7 51.3 213.7 53.8 C 213.7 53.8 217.2 53.8 217.2 53.8 Z M 213.7 55 C 213.7 57.5 214.4 58 215.5 58 C 216.5 58 217.1 57.2 217.1 56.3 C 217.1 56.3 218.7 56.3 218.7 56.3 C 218.7 58.3 217.5 59.2 215.6 59.2 C 213.6 59.2 212.1 58.6 212.1 54.6 C 212.1 52 212.4 49.8 215.6 49.8 C 218.2 49.8 218.8 51.2 218.8 54.2 C 218.81 54.19 218.8 55 218.8 55 C 218.8 55 213.69 54.96 213.7 55 Z M 225.7 59 C 225.7 59 225.72 52.73 225.7 52.7 C 225.7 51.8 225.5 51 224.3 51 C 223.8 51 223.2 51.2 223 51.6 C 222.7 52 222.7 52.6 222.7 52.9 C 222.66 52.91 222.7 59 222.7 59 L 221.2 59 C 221.2 59 221.18 51.83 221.2 51.8 C 221.2 51.2 221.1 50.6 221.1 49.9 C 221.09 49.94 222.7 49.9 222.7 49.9 L 222.7 51.1 C 222.7 51.1 222.69 51.08 222.7 51.1 C 223.1 50.1 223.9 49.8 225 49.8 C 225.8 49.8 226.7 50.1 227.1 50.9 C 227.6 50 228.4 49.8 229.2 49.8 C 230.2 49.8 231.7 50 231.7 52.1 C 231.73 52.12 231.7 59 231.7 59 L 230.3 59 C 230.3 59 230.25 52.73 230.3 52.7 C 230.3 51.8 230 51 228.8 51 C 228.3 51 228.1 51 227.7 51.3 C 227.3 51.7 227.2 52.6 227.2 52.9 C 227.19 52.91 227.2 59 227.2 59 L 225.7 59 Z M 235.6 56.3 C 235.6 57.2 236 58 237 58 C 237.9 58 239 57.4 238.9 54.5 C 237.5 54.5 235.6 54.4 235.6 56.3 Z M 238.9 57.7 C 238.9 57.7 238.89 57.72 238.9 57.7 C 238.4 58.8 237.7 59.2 236.6 59.2 C 234.7 59.2 234.1 58 234.1 56.2 C 234.1 53.5 236.8 53.3 238.9 53.4 C 238.9 52.2 238.9 50.9 237.4 50.9 C 236.4 50.9 235.9 51.5 235.9 52.5 C 235.9 52.5 234.3 52.5 234.3 52.5 C 234.4 50.5 235.5 49.8 237.4 49.8 C 239.8 49.8 240.4 51 240.4 52.5 C 240.4 52.5 240.4 56.9 240.4 56.9 C 240.4 57.6 240.4 58.3 240.5 59 C 240.55 59.03 238.9 59 238.9 59 L 238.9 57.7 Z " stroke="none" fill="#555555"/>  </g>  <g id="Polygon192303">    <path d="M 2.8 28.3 C 2.8 28.3 2.86 28.31 2.9 28.3 C 3.5 26.9 4.2 26.8 5.7 26.8 C 5.7 26.8 5.7 28.3 5.7 28.3 C 5.5 28.3 5.4 28.3 5.3 28.2 C 5.1 28.2 5 28.2 4.9 28.2 C 3.2 28.2 2.8 29.4 2.8 30.7 C 2.83 30.67 2.8 36 2.8 36 L 1.3 36 L 1.3 26.9 L 2.8 26.9 L 2.8 28.3 Z M 12.4 31 C 12.4 28.5 11.6 28 10.5 28 C 9.4 28 8.6 28.5 8.6 31 C 8.6 33.9 9 35 10.5 35 C 12 35 12.4 33.9 12.4 31 Z M 7 31.6 C 7 29 7.3 26.8 10.5 26.8 C 13.6 26.8 13.9 29 13.9 31.6 C 13.9 35.6 12.4 36.2 10.5 36.2 C 8.6 36.2 7 35.6 7 31.6 Z M 21.1 26.9 L 22.6 26.9 C 22.6 26.9 22.63 34.14 22.6 34.1 C 22.6 34.8 22.7 35.4 22.7 36 C 22.72 36.03 21.1 36 21.1 36 L 21.1 34.9 C 21.1 34.9 21.1 34.93 21.1 34.9 C 20.6 35.8 19.7 36.2 18.8 36.2 C 17.2 36.2 16.3 35.4 16.3 33.9 C 16.34 33.87 16.3 26.9 16.3 26.9 L 17.8 26.9 C 17.8 26.9 17.82 33.24 17.8 33.2 C 17.8 34.3 18.3 35.1 19.4 35.1 C 20.2 35.1 21.1 34.5 21.1 33 C 21.15 32.97 21.1 26.9 21.1 26.9 Z M 25.5 26.9 L 25.5 25.2 L 26.9 24.5 L 26.9 26.9 L 28.9 26.9 L 28.9 28.1 L 26.9 28.1 C 26.9 28.1 26.93 33.62 26.9 33.6 C 26.9 34.2 26.9 34.9 28.3 34.9 C 28.4 34.9 28.6 34.9 28.9 34.9 C 28.9 34.9 28.9 36 28.9 36 C 28.5 36 28 36.1 27.5 36.1 C 26.1 36.1 25.5 35.6 25.5 34.5 C 25.45 34.52 25.5 28.1 25.5 28.1 L 24 28.1 L 24 26.9 L 25.5 26.9 Z M 31.7 36 L 30.3 36 L 30.3 26.9 L 31.7 26.9 L 31.7 36 Z M 30.2 23 L 31.8 23 L 31.8 24.6 L 30.2 24.6 L 30.2 23 Z M 39.2 36 C 39.2 36 39.22 29.73 39.2 29.7 C 39.2 28.8 38.9 28 37.6 28 C 36 28 35.8 29.4 35.8 30.6 C 35.77 30.65 35.8 36 35.8 36 L 34.3 36 C 34.3 36 34.29 28.83 34.3 28.8 C 34.3 28.2 34.3 27.6 34.2 26.9 C 34.2 26.94 35.8 26.9 35.8 26.9 L 35.8 28.1 C 35.8 28.1 35.84 28.11 35.8 28.1 C 36.4 27.1 37.1 26.8 38.3 26.8 C 40.2 26.8 40.7 27.9 40.7 29.7 C 40.7 29.73 40.7 36 40.7 36 L 39.2 36 Z M 48.3 30.8 C 48.3 28.2 47.5 27.9 46.5 27.9 C 45.5 27.9 44.7 28.3 44.7 30.8 C 44.7 30.8 48.3 30.8 48.3 30.8 Z M 44.7 32 C 44.7 34.5 45.4 35 46.6 35 C 47.6 35 48.1 34.2 48.1 33.3 C 48.1 33.3 49.8 33.3 49.8 33.3 C 49.8 35.3 48.5 36.2 46.6 36.2 C 44.7 36.2 43.1 35.6 43.1 31.6 C 43.1 29 43.5 26.8 46.6 26.8 C 49.2 26.8 49.8 28.2 49.8 31.2 C 49.84 31.19 49.8 32 49.8 32 C 49.8 32 44.73 31.96 44.7 32 Z M 61.4 31.3 C 61.4 30 61.4 28 59.5 28 C 57.7 28 57.9 30.5 57.9 31.9 C 57.9 33.1 58 35 59.6 35 C 61.2 35 61.4 33.8 61.4 31.3 Z M 57.9 28 C 57.9 28 57.92 28.02 57.9 28 C 58.4 27.2 59.1 26.8 60 26.8 C 61.5 26.8 62.9 27.3 62.9 31.3 C 62.9 33.6 62.9 36.2 59.9 36.2 C 59.1 36.2 58.4 35.8 57.9 35.1 C 57.94 35.11 57.9 35.1 57.9 35.1 L 57.9 39.5 L 56.4 39.5 L 56.4 26.9 L 57.9 26.9 L 57.9 28 Z M 66.8 28.3 C 66.8 28.3 66.85 28.31 66.9 28.3 C 67.5 26.9 68.2 26.8 69.7 26.8 C 69.7 26.8 69.7 28.3 69.7 28.3 C 69.5 28.3 69.4 28.3 69.3 28.2 C 69.1 28.2 69 28.2 68.9 28.2 C 67.2 28.2 66.8 29.4 66.8 30.7 C 66.82 30.67 66.8 36 66.8 36 L 65.3 36 L 65.3 26.9 L 66.8 26.9 L 66.8 28.3 Z M 76.3 30.8 C 76.3 28.2 75.5 27.9 74.4 27.9 C 73.5 27.9 72.7 28.3 72.7 30.8 C 72.7 30.8 76.3 30.8 76.3 30.8 Z M 72.7 32 C 72.7 34.5 73.4 35 74.6 35 C 75.6 35 76.1 34.2 76.1 33.3 C 76.1 33.3 77.8 33.3 77.8 33.3 C 77.7 35.3 76.5 36.2 74.6 36.2 C 72.7 36.2 71.1 35.6 71.1 31.6 C 71.1 29 71.4 26.8 74.6 26.8 C 77.2 26.8 77.8 28.2 77.8 31.2 C 77.83 31.19 77.8 32 77.8 32 C 77.8 32 72.72 31.96 72.7 32 Z M 79.2 26.9 L 80.9 26.9 L 82.9 34.6 L 83 34.6 L 85.2 26.9 L 86.7 26.9 L 83.9 36 L 81.9 36 L 79.2 26.9 Z M 93.3 30.8 C 93.3 28.2 92.5 27.9 91.4 27.9 C 90.5 27.9 89.7 28.3 89.7 30.8 C 89.7 30.8 93.3 30.8 93.3 30.8 Z M 89.7 32 C 89.7 34.5 90.4 35 91.5 35 C 92.6 35 93.1 34.2 93.1 33.3 C 93.1 33.3 94.8 33.3 94.8 33.3 C 94.7 35.3 93.5 36.2 91.6 36.2 C 89.7 36.2 88.1 35.6 88.1 31.6 C 88.1 29 88.4 26.8 91.6 26.8 C 94.2 26.8 94.8 28.2 94.8 31.2 C 94.82 31.19 94.8 32 94.8 32 C 94.8 32 89.71 31.96 89.7 32 Z M 102.2 36 C 102.2 36 102.2 29.73 102.2 29.7 C 102.2 28.8 101.9 28 100.6 28 C 99 28 98.7 29.4 98.7 30.6 C 98.75 30.65 98.7 36 98.7 36 L 97.3 36 C 97.3 36 97.27 28.83 97.3 28.8 C 97.3 28.2 97.2 27.6 97.2 26.9 C 97.18 26.94 98.7 26.9 98.7 26.9 L 98.7 28.1 C 98.7 28.1 98.82 28.11 98.8 28.1 C 99.4 27.1 100.1 26.8 101.2 26.8 C 103.2 26.8 103.7 27.9 103.7 29.7 C 103.68 29.73 103.7 36 103.7 36 L 102.2 36 Z M 106.4 26.9 L 106.4 25.2 L 107.9 24.5 L 107.9 26.9 L 109.9 26.9 L 109.9 28.1 L 107.9 28.1 C 107.9 28.1 107.91 33.62 107.9 33.6 C 107.9 34.2 107.9 34.9 109.3 34.9 C 109.4 34.9 109.6 34.9 109.9 34.9 C 109.9 34.9 109.9 36 109.9 36 C 109.4 36 109 36.1 108.5 36.1 C 107.1 36.1 106.4 35.6 106.4 34.5 C 106.43 34.52 106.4 28.1 106.4 28.1 L 104.9 28.1 L 104.9 26.9 L 106.4 26.9 Z M 112.7 36 L 111.2 36 L 111.2 26.9 L 112.7 26.9 L 112.7 36 Z M 111.1 23 L 112.8 23 L 112.8 24.6 L 111.1 24.6 L 111.1 23 Z M 120.4 31 C 120.4 28.5 119.6 28 118.5 28 C 117.3 28 116.6 28.5 116.6 31 C 116.6 33.9 116.9 35 118.5 35 C 120 35 120.4 33.9 120.4 31 Z M 115 31.6 C 115 29 115.3 26.8 118.5 26.8 C 121.6 26.8 121.9 29 121.9 31.6 C 121.9 35.6 120.4 36.2 118.5 36.2 C 116.5 36.2 115 35.6 115 31.6 Z M 129.2 36 C 129.2 36 129.2 29.73 129.2 29.7 C 129.2 28.8 128.9 28 127.6 28 C 126 28 125.7 29.4 125.7 30.6 C 125.75 30.65 125.7 36 125.7 36 L 124.3 36 C 124.3 36 124.27 28.83 124.3 28.8 C 124.3 28.2 124.2 27.6 124.2 26.9 C 124.18 26.94 125.7 26.9 125.7 26.9 L 125.7 28.1 C 125.7 28.1 125.82 28.11 125.8 28.1 C 126.4 27.1 127.1 26.8 128.2 26.8 C 130.2 26.8 130.7 27.9 130.7 29.7 C 130.68 29.73 130.7 36 130.7 36 L 129.2 36 Z M 142.4 31 C 142.4 28.5 141.6 28 140.5 28 C 139.3 28 138.6 28.5 138.6 31 C 138.6 33.9 138.9 35 140.5 35 C 142 35 142.4 33.9 142.4 31 Z M 137 31.6 C 137 29 137.3 26.8 140.5 26.8 C 143.6 26.8 143.9 29 143.9 31.6 C 143.9 35.6 142.4 36.2 140.5 36.2 C 138.5 36.2 137 35.6 137 31.6 Z M 146.5 26.9 C 146.5 26.9 146.54 25.18 146.5 25.2 C 146.5 23.3 147.8 23 149.1 23 C 149.5 23 149.6 23 149.8 23 C 149.8 23 149.8 24.1 149.8 24.1 C 148.3 24 148 24.7 148 25.4 C 148.01 25.39 148 26.9 148 26.9 L 149.8 26.9 L 149.8 28.1 L 148 28.1 L 148 36 L 146.5 36 L 146.5 28.1 L 145.1 28.1 L 145.1 26.9 L 146.5 26.9 Z M 156.8 28.3 C 156.8 28.3 156.83 28.31 156.8 28.3 C 157.4 26.9 158.2 26.8 159.6 26.8 C 159.6 26.8 159.6 28.3 159.6 28.3 C 159.5 28.3 159.4 28.3 159.2 28.2 C 159.1 28.2 159 28.2 158.8 28.2 C 157.2 28.2 156.8 29.4 156.8 30.7 C 156.8 30.67 156.8 36 156.8 36 L 155.3 36 L 155.3 26.9 L 156.8 26.9 L 156.8 28.3 Z M 166.2 30.8 C 166.2 28.2 165.5 27.9 164.4 27.9 C 163.5 27.9 162.7 28.3 162.7 30.8 C 162.7 30.8 166.2 30.8 166.2 30.8 Z M 162.7 32 C 162.7 34.5 163.4 35 164.5 35 C 165.5 35 166.1 34.2 166.1 33.3 C 166.1 33.3 167.7 33.3 167.7 33.3 C 167.7 35.3 166.5 36.2 164.6 36.2 C 162.6 36.2 161.1 35.6 161.1 31.6 C 161.1 29 161.4 26.8 164.6 26.8 C 167.2 26.8 167.8 28.2 167.8 31.2 C 167.81 31.19 167.8 32 167.8 32 C 167.8 32 162.7 31.96 162.7 32 Z M 175 29.9 C 175 28.4 174.3 28 173.8 28 C 172.6 28 171.8 28.5 171.8 31 C 171.8 33.9 172.2 35 173.8 35 C 174.1 35 175.1 34.6 175.1 33 C 175.1 33 176.6 33 176.6 33 C 176.7 35.6 174.8 36.2 173.8 36.2 C 171.8 36.2 170.3 35.6 170.3 31.6 C 170.3 29 170.6 26.8 173.8 26.8 C 175.6 26.8 176.6 27.8 176.5 29.9 C 176.5 29.9 175 29.9 175 29.9 Z M 184.1 26.9 L 185.6 26.9 C 185.6 26.9 185.6 34.14 185.6 34.1 C 185.6 34.8 185.6 35.4 185.7 36 C 185.69 36.03 184.1 36 184.1 36 L 184.1 34.9 C 184.1 34.9 184.07 34.93 184.1 34.9 C 183.6 35.8 182.7 36.2 181.8 36.2 C 180.2 36.2 179.3 35.4 179.3 33.9 C 179.31 33.87 179.3 26.9 179.3 26.9 L 180.8 26.9 C 180.8 26.9 180.79 33.24 180.8 33.2 C 180.8 34.3 181.3 35.1 182.3 35.1 C 183.1 35.1 184.1 34.5 184.1 33 C 184.12 32.97 184.1 26.9 184.1 26.9 Z M 189.8 28.3 C 189.8 28.3 189.83 28.31 189.8 28.3 C 190.4 26.9 191.2 26.8 192.6 26.8 C 192.6 26.8 192.6 28.3 192.6 28.3 C 192.5 28.3 192.4 28.3 192.2 28.2 C 192.1 28.2 192 28.2 191.8 28.2 C 190.2 28.2 189.8 29.4 189.8 30.7 C 189.79 30.67 189.8 36 189.8 36 L 188.3 36 L 188.3 26.9 L 189.8 26.9 L 189.8 28.3 Z M 195.8 28.3 C 195.8 28.3 195.82 28.31 195.8 28.3 C 196.4 26.9 197.2 26.8 198.6 26.8 C 198.6 26.8 198.6 28.3 198.6 28.3 C 198.5 28.3 198.4 28.3 198.2 28.2 C 198.1 28.2 198 28.2 197.8 28.2 C 196.2 28.2 195.8 29.4 195.8 30.7 C 195.78 30.67 195.8 36 195.8 36 L 194.3 36 L 194.3 26.9 L 195.8 26.9 L 195.8 28.3 Z M 205.2 30.8 C 205.2 28.2 204.5 27.9 203.4 27.9 C 202.5 27.9 201.7 28.3 201.7 30.8 C 201.7 30.8 205.2 30.8 205.2 30.8 Z M 201.7 32 C 201.7 34.5 202.4 35 203.5 35 C 204.5 35 205.1 34.2 205.1 33.3 C 205.1 33.3 206.7 33.3 206.7 33.3 C 206.7 35.3 205.5 36.2 203.6 36.2 C 201.6 36.2 200.1 35.6 200.1 31.6 C 200.1 29 200.4 26.8 203.6 26.8 C 206.2 26.8 206.8 28.2 206.8 31.2 C 206.8 31.19 206.8 32 206.8 32 C 206.8 32 201.69 31.96 201.7 32 Z M 214.2 36 C 214.2 36 214.18 29.73 214.2 29.7 C 214.2 28.8 213.8 28 212.6 28 C 211 28 210.7 29.4 210.7 30.6 C 210.72 30.65 210.7 36 210.7 36 L 209.2 36 C 209.2 36 209.25 28.83 209.2 28.8 C 209.2 28.2 209.2 27.6 209.2 26.9 C 209.16 26.94 210.7 26.9 210.7 26.9 L 210.7 28.1 C 210.7 28.1 210.8 28.11 210.8 28.1 C 211.4 27.1 212.1 26.8 213.2 26.8 C 215.2 26.8 215.7 27.9 215.7 29.7 C 215.66 29.73 215.7 36 215.7 36 L 214.2 36 Z M 218.4 26.9 L 218.4 25.2 L 219.9 24.5 L 219.9 26.9 L 221.9 26.9 L 221.9 28.1 L 219.9 28.1 C 219.9 28.1 219.89 33.62 219.9 33.6 C 219.9 34.2 219.9 34.9 221.2 34.9 C 221.3 34.9 221.6 34.9 221.9 34.9 C 221.9 34.9 221.9 36 221.9 36 C 221.4 36 220.9 36.1 220.4 36.1 C 219 36.1 218.4 35.6 218.4 34.5 C 218.41 34.52 218.4 28.1 218.4 28.1 L 216.9 28.1 L 216.9 26.9 L 218.4 26.9 Z " stroke="none" fill="#555555"/>  </g>  <g id="Polygon192302">    <path d="M 109.5 13 L 108 13 L 108 3.9 L 109.5 3.9 L 109.5 13 Z M 107.9 0 L 109.5 0 L 109.5 1.6 L 107.9 1.6 L 107.9 0 Z M 114.7 13.2 C 112.7 13.2 111.5 12.3 111.6 10.3 C 111.6 10.3 113.2 10.3 113.2 10.3 C 113.2 10.8 113.3 12 114.7 12 C 115.6 12 116.3 11.6 116.3 10.6 C 116.3 9 111.8 9 111.8 6.2 C 111.8 5.3 112.4 3.8 114.9 3.8 C 116.5 3.8 117.9 4.5 117.8 6.3 C 117.8 6.3 116.1 6.3 116.1 6.3 C 116.2 5.4 115.7 4.9 114.7 4.9 C 113.9 4.9 113.3 5.3 113.3 6.1 C 113.3 7.7 117.9 7.7 117.9 10.4 C 117.9 12.4 116.5 13.2 114.7 13.2 Z M 125.4 13 L 124 13 L 124 3.9 L 125.4 3.9 L 125.4 13 Z M 123.9 0 L 125.5 0 L 125.5 1.6 L 123.9 1.6 L 123.9 0 Z M 132.9 13 C 132.9 13 132.92 6.73 132.9 6.7 C 132.9 5.8 132.6 5 131.3 5 C 129.7 5 129.5 6.4 129.5 7.6 C 129.47 7.65 129.5 13 129.5 13 L 128 13 C 128 13 127.99 5.83 128 5.8 C 128 5.2 128 4.6 127.9 3.9 C 127.9 3.94 129.5 3.9 129.5 3.9 L 129.5 5.1 C 129.5 5.1 129.54 5.11 129.5 5.1 C 130.1 4.1 130.8 3.8 132 3.8 C 133.9 3.8 134.4 4.9 134.4 6.7 C 134.4 6.73 134.4 13 134.4 13 L 132.9 13 Z M 140.1 5 C 138.5 5 138.3 6.2 138.3 8.7 C 138.3 10 138.3 12 140.1 12 C 141.8 12 141.8 10 141.8 8.1 C 141.8 6.9 141.7 5 140.1 5 Z M 141.8 0 L 143.3 0 L 143.3 13 L 141.8 13 L 141.8 12 C 141.8 12 141.76 11.95 141.8 12 C 141.3 12.8 140.6 13.2 139.7 13.2 C 138.2 13.2 136.7 12.6 136.7 8.6 C 136.7 6.4 136.8 3.8 139.7 3.8 C 140.6 3.8 141.2 4.1 141.7 4.9 C 141.74 4.86 141.8 4.9 141.8 4.9 L 141.8 0 Z M 147.4 13 L 146 13 L 146 3.9 L 147.4 3.9 L 147.4 13 Z M 145.9 0 L 147.5 0 L 147.5 1.6 L 145.9 1.6 L 145.9 0 Z M 154.7 6.9 C 154.8 5.4 154 5 153.5 5 C 152.3 5 151.6 5.5 151.6 8 C 151.6 10.9 151.9 12 153.5 12 C 153.8 12 154.8 11.6 154.8 10 C 154.8 10 156.3 10 156.3 10 C 156.4 12.6 154.5 13.2 153.5 13.2 C 151.6 13.2 150 12.6 150 8.6 C 150 6 150.3 3.8 153.5 3.8 C 155.3 3.8 156.4 4.8 156.3 6.9 C 156.3 6.9 154.7 6.9 154.7 6.9 Z M 160.3 10.3 C 160.3 11.2 160.8 12 161.8 12 C 162.7 12 163.8 11.4 163.6 8.5 C 162.2 8.5 160.3 8.4 160.3 10.3 Z M 163.7 11.7 C 163.7 11.7 163.63 11.72 163.6 11.7 C 163.2 12.8 162.5 13.2 161.3 13.2 C 159.4 13.2 158.9 12 158.9 10.2 C 158.9 7.5 161.6 7.3 163.6 7.4 C 163.7 6.2 163.7 4.9 162.1 4.9 C 161.1 4.9 160.6 5.5 160.7 6.5 C 160.7 6.5 159.1 6.5 159.1 6.5 C 159.1 4.5 160.2 3.8 162.2 3.8 C 164.5 3.8 165.1 5 165.1 6.5 C 165.1 6.5 165.1 10.9 165.1 10.9 C 165.1 11.6 165.2 12.3 165.3 13 C 165.29 13.03 163.7 13 163.7 13 L 163.7 11.7 Z M 168.1 3.9 L 168.1 2.2 L 169.6 1.5 L 169.6 3.9 L 171.6 3.9 L 171.6 5.1 L 169.6 5.1 C 169.6 5.1 169.63 10.62 169.6 10.6 C 169.6 11.2 169.6 11.9 171 11.9 C 171.1 11.9 171.3 11.9 171.6 11.9 C 171.6 11.9 171.6 13 171.6 13 C 171.2 13 170.7 13.1 170.2 13.1 C 168.8 13.1 168.1 12.6 168.1 11.5 C 168.15 11.52 168.1 5.1 168.1 5.1 L 166.7 5.1 L 166.7 3.9 L 168.1 3.9 Z M 178 7.8 C 178 5.2 177.2 4.9 176.2 4.9 C 175.2 4.9 174.4 5.3 174.4 7.8 C 174.4 7.8 178 7.8 178 7.8 Z M 174.4 9 C 174.4 11.5 175.1 12 176.3 12 C 177.3 12 177.8 11.2 177.9 10.3 C 177.9 10.3 179.5 10.3 179.5 10.3 C 179.5 12.3 178.2 13.2 176.3 13.2 C 174.4 13.2 172.8 12.6 172.8 8.6 C 172.8 6 173.2 3.8 176.3 3.8 C 178.9 3.8 179.5 5.2 179.5 8.2 C 179.54 8.19 179.5 9 179.5 9 C 179.5 9 174.43 8.96 174.4 9 Z M 185.1 5 C 183.5 5 183.3 6.2 183.3 8.7 C 183.3 10 183.3 12 185.1 12 C 186.8 12 186.8 10 186.8 8.1 C 186.8 6.9 186.7 5 185.1 5 Z M 186.8 0 L 188.3 0 L 188.3 13 L 186.8 13 L 186.8 12 C 186.8 12 186.76 11.95 186.8 12 C 186.3 12.8 185.6 13.2 184.7 13.2 C 183.2 13.2 181.7 12.6 181.7 8.6 C 181.7 6.4 181.8 3.8 184.7 3.8 C 185.6 3.8 186.2 4.1 186.7 4.9 C 186.74 4.86 186.8 4.9 186.8 4.9 L 186.8 0 Z M 195.3 3.9 C 195.3 3.9 195.26 2.18 195.3 2.2 C 195.3 0.3 196.6 0 197.9 0 C 198.2 0 198.4 0 198.6 0 C 198.6 0 198.6 1.1 198.6 1.1 C 197 1 196.7 1.7 196.7 2.4 C 196.73 2.39 196.7 3.9 196.7 3.9 L 198.6 3.9 L 198.6 5.1 L 196.7 5.1 L 196.7 13 L 195.3 13 L 195.3 5.1 L 193.9 5.1 L 193.9 3.9 L 195.3 3.9 Z M 205.1 8 C 205.1 5.5 204.3 5 203.2 5 C 202.1 5 201.3 5.5 201.3 8 C 201.3 10.9 201.7 12 203.2 12 C 204.7 12 205.1 10.9 205.1 8 Z M 199.7 8.6 C 199.7 6 200 3.8 203.2 3.8 C 206.3 3.8 206.7 6 206.7 8.6 C 206.7 12.6 205.1 13.2 203.2 13.2 C 201.3 13.2 199.7 12.6 199.7 8.6 Z M 210.5 5.3 C 210.5 5.3 210.56 5.31 210.6 5.3 C 211.2 3.9 211.9 3.8 213.4 3.8 C 213.4 3.8 213.4 5.3 213.4 5.3 C 213.2 5.3 213.1 5.3 213 5.2 C 212.8 5.2 212.7 5.2 212.6 5.2 C 210.9 5.2 210.5 6.4 210.5 7.7 C 210.52 7.67 210.5 13 210.5 13 L 209 13 L 209 3.9 L 210.5 3.9 L 210.5 5.3 Z " stroke="none" fill="#555555"/>  </g>  <g id="Polygon192301">    <path d="M 8.4 0 L 10.5 0 L 14.7 13 L 12.9 13 L 11.9 9.9 L 6.9 9.9 L 5.9 13 L 4.3 13 L 8.4 0 Z M 9.4 1.6 L 9.4 1.6 L 7.3 8.5 L 11.5 8.5 L 9.4 1.6 Z M 25.5 0 L 25.5 13 L 23.2 13 L 18.1 1.8 L 18 1.8 L 18 13 L 16.5 13 L 16.5 0 L 18.9 0 L 23.9 11.2 L 24 11.2 L 24 0 L 25.5 0 Z M 30.1 11.6 C 30.1 11.6 31.72 11.59 31.7 11.6 C 34 11.6 34.9 10.7 34.9 7.7 C 34.9 7.7 34.9 5.1 34.9 5.1 C 34.9 2.4 34.1 1.5 32.3 1.5 C 32.33 1.48 30.1 1.5 30.1 1.5 L 30.1 11.6 Z M 28.5 0 C 28.5 0 32.49 0.04 32.5 0 C 34.1 0 35.3 0.6 36 2 C 36.5 3.1 36.6 5.7 36.6 6.1 C 36.6 8.9 36.3 10.5 35.8 11.4 C 35.1 12.5 33.7 13 31.5 13 C 31.48 13.03 28.5 13 28.5 13 L 28.5 0 Z M 39.5 13 L 39.5 0 L 46.2 0 L 46.2 1.5 L 41.1 1.5 L 41.1 5.7 L 45.8 5.7 L 45.8 7.1 L 41.1 7.1 L 41.1 11.6 L 46.3 11.6 L 46.3 13 L 39.5 13 Z M 50 13 L 48.5 13 L 48.5 0 L 51.2 0 L 54.4 10.9 L 54.5 10.9 L 57.8 0 L 60.5 0 L 60.5 13 L 58.9 13 L 58.9 1.5 L 58.8 1.5 L 55.2 13 L 53.6 13 L 50.1 1.5 L 50 1.5 L 50 13 Z M 65.3 11.6 C 65.3 11.6 67.61 11.59 67.6 11.6 C 69.4 11.6 70 10.3 70 9.4 C 70 7.3 68.7 6.9 67 6.9 C 67.03 6.95 65.3 6.9 65.3 6.9 L 65.3 11.6 Z M 65.3 5.5 C 65.3 5.5 67.68 5.51 67.7 5.5 C 69 5.5 69.6 4.7 69.6 3.4 C 69.6 2.4 69 1.5 67.6 1.5 C 67.61 1.48 65.3 1.5 65.3 1.5 L 65.3 5.5 Z M 63.6 13 L 63.6 0 C 63.6 0 67.84 0.04 67.8 0 C 69.6 0 70.3 0.6 70.7 1.4 C 71.2 2.1 71.3 2.8 71.3 3.1 C 71.3 4.7 70.7 5.8 69 6.2 C 69 6.2 69 6.3 69 6.3 C 70.9 6.5 71.7 7.6 71.7 9.4 C 71.7 12.7 69.3 13 67.8 13 C 67.79 13.03 63.6 13 63.6 13 Z M 76.1 5.6 C 76.1 5.6 78.55 5.62 78.6 5.6 C 79.7 5.6 80.3 4.6 80.3 3.5 C 80.3 2.5 79.8 1.5 78.6 1.5 C 78.57 1.48 76.1 1.5 76.1 1.5 L 76.1 5.6 Z M 76.1 7.1 L 76.1 13 L 74.4 13 L 74.4 0 C 74.4 0 78.89 0.04 78.9 0 C 81.2 0 82 1.7 82 3.3 C 82 4.8 81.2 6 79.6 6.2 C 79.6 6.2 79.6 6.3 79.6 6.3 C 81.1 6.5 81.7 7 81.8 9.6 C 81.8 10.2 82 12.2 82.2 13 C 82.2 13 80.5 13 80.5 13 C 80 12.1 80.1 10.4 80 8.7 C 79.8 7.1 78.6 7.1 78 7.1 C 78.01 7.06 76.1 7.1 76.1 7.1 Z M 90.2 0 L 91.8 0 L 88.3 8.1 L 88.3 13 L 86.6 13 L 86.6 8.1 L 83.1 0 L 85 0 L 87.5 6.3 L 90.2 0 Z M 100.1 3.2 C 100.1 5.4 98.4 7.2 96.2 7.2 C 94 7.2 92.2 5.4 92.2 3.2 C 92.2 1.1 94 -0.7 96.2 -0.7 C 98.4 -0.7 100.1 1.1 100.1 3.2 Z M 92.8 3.2 C 92.8 5.1 94.3 6.6 96.2 6.6 C 98.1 6.6 99.6 5.1 99.6 3.2 C 99.6 1.4 98.1 -0.1 96.2 -0.1 C 94.3 -0.1 92.8 1.4 92.8 3.2 Z M 95.5 5.5 L 94.7 5.5 L 94.7 1 C 94.7 1 96.53 0.98 96.5 1 C 97.4 1 97.8 1.5 97.8 2.1 C 97.8 2.7 97.4 3.1 96.8 3.2 C 96.8 3.2 96.8 3.2 96.8 3.2 C 97.4 3.2 97.6 3.4 97.6 4.3 C 97.6 4.5 97.7 5.2 97.8 5.5 C 97.8 5.5 97.1 5.5 97.1 5.5 C 96.9 5.2 96.9 4.6 96.9 4 C 96.8 3.5 96.4 3.5 96.2 3.5 C 96.19 3.5 95.5 3.5 95.5 3.5 L 95.5 5.5 Z M 95.5 2.9 C 95.5 2.9 96.4 2.91 96.4 2.9 C 96.9 2.9 97.1 2.6 97.1 2.2 C 97.1 1.9 96.9 1.5 96.4 1.5 C 96.4 1.49 95.5 1.5 95.5 1.5 L 95.5 2.9 Z " stroke="none" fill="#000"/>  </g></svg>