<?xml version="1.0" standalone="no"?><!DOCTYPE svg PUBLIC "-//W3C//DTD SVG 1.1//EN" "http://www.w3.org/Graphics/SVG/1.1/DTD/svg11.dtd"><svg xmlns="http://www.w3.org/2000/svg" version="1.1" width="13.1px" height="51.7px" viewBox="0 -8 13.1 51.7" style="top:-8px">  <desc>5</desc>  <defs/>  <g id="Polygon192248">    <path d="M 1.2 18.6 L 4.5 18.6 C 4.5 18.6 4.5 20.84 4.5 20.8 C 4.5 22.3 5.1 23.1 6.5 23.1 C 8.6 23.1 8.6 21 8.6 19.5 C 8.6 19.5 8.6 14.1 8.6 14.1 C 8.6 12.3 7.8 11.7 6.7 11.7 C 5.5 11.7 4.7 12.6 4.7 14.3 C 4.75 14.34 4.7 15.4 4.7 15.4 L 1.4 15.4 L 1.4 0.1 L 11.3 0.1 L 11.3 2.8 L 4.7 2.8 L 4.7 10.6 C 4.7 10.6 4.82 10.58 4.8 10.6 C 5.7 9.3 6.7 9 8 9 C 9.8 9 11.9 10.1 11.9 13.3 C 11.9 13.3 11.9 20.6 11.9 20.6 C 11.9 23.7 10.4 25.7 6.4 25.7 C 2.9 25.7 1.2 24 1.2 21.3 C 1.2 21.34 1.2 18.6 1.2 18.6 Z " stroke="none" fill="#fff"/>  </g></svg>