<?xml version="1.0" standalone="no"?><!DOCTYPE svg PUBLIC "-//W3C//DTD SVG 1.1//EN" "http://www.w3.org/Graphics/SVG/1.1/DTD/svg11.dtd"><svg xmlns="http://www.w3.org/2000/svg" version="1.1" width="165px" height="31.8px" viewBox="0 -5 165 31.8" style="top:-5px">  <desc>reduction in...</desc>  <defs/>  <g id="Polygon200117">    <path d="M 35.8 0 C 35.8 0 39.03 0.04 39 0 C 42.1 0 42.4 0.9 42.4 4.2 C 42.4 6.2 42.2 7.1 40.4 7.7 C 40.4 7.7 40.4 7.7 40.4 7.7 C 41.9 7.8 42.3 8.6 42.3 10 C 42.3 10 42.3 13.3 42.3 13.3 C 42.3 13.9 42.3 14.6 42.5 15.3 C 42.5 15.3 40.5 15.3 40.5 15.3 C 40.3 14.9 40.2 14.5 40.2 13.9 C 40.2 13.9 40.2 10.5 40.2 10.5 C 40.2 9 40 8.6 38.6 8.6 C 38.59 8.65 37.9 8.6 37.9 8.6 L 37.9 15.3 L 35.8 15.3 L 35.8 0 Z M 37.9 6.9 C 37.9 6.9 38.42 6.88 38.4 6.9 C 40.1 6.9 40.3 6.6 40.3 4.3 C 40.3 2 40.2 1.8 38.9 1.8 C 38.88 1.81 37.9 1.8 37.9 1.8 L 37.9 6.9 Z M 44 0 L 49.7 0 L 49.7 1.8 L 46.1 1.8 L 46.1 6.6 L 49.5 6.6 L 49.5 8.4 L 46.1 8.4 L 46.1 13.5 L 49.7 13.5 L 49.7 15.3 L 44 15.3 L 44 0 Z M 52.7 13.5 C 52.7 13.5 53.73 13.5 53.7 13.5 C 55.3 13.5 55.6 12.7 55.6 10.1 C 55.6 10.1 55.6 4.8 55.6 4.8 C 55.6 2.6 55.4 1.8 53.6 1.8 C 53.56 1.81 52.7 1.8 52.7 1.8 L 52.7 13.5 Z M 50.6 0 C 50.6 0 54 0.04 54 0 C 57.4 0 57.7 1.2 57.7 5.6 C 57.7 5.6 57.7 10.1 57.7 10.1 C 57.7 14 57 15.3 53.7 15.3 C 53.67 15.27 50.6 15.3 50.6 15.3 L 50.6 0 Z M 66.3 11.8 C 66.3 13.6 65.6 15.4 62.7 15.4 C 59.8 15.4 59.1 13.6 59.1 11.8 C 59.13 11.83 59.1 0 59.1 0 L 61.2 0 C 61.2 0 61.24 12.19 61.2 12.2 C 61.2 13.2 61.6 13.8 62.7 13.8 C 63.8 13.8 64.2 13.2 64.2 12.2 C 64.17 12.19 64.2 0 64.2 0 L 66.3 0 C 66.3 0 66.28 11.83 66.3 11.8 Z M 67.5 3.9 C 67.5 1.8 68.2 -0.1 71.1 -0.1 C 73.2 -0.1 74.2 1 74.2 2.7 C 74.17 2.68 74.2 4.2 74.2 4.2 L 72.2 4.2 C 72.2 4.2 72.18 3.14 72.2 3.1 C 72.2 2.2 71.8 1.6 71 1.6 C 69.9 1.6 69.7 2.3 69.7 4.2 C 69.7 4.2 69.7 11.6 69.7 11.6 C 69.7 13.4 70.2 13.8 70.9 13.8 C 71.7 13.8 72.2 13.2 72.2 11.9 C 72.18 11.94 72.2 10.9 72.2 10.9 L 74.2 10.9 C 74.2 10.9 74.17 12.57 74.2 12.6 C 74.2 14.2 73.5 15.4 71.1 15.4 C 68.4 15.4 67.5 14 67.5 11.6 C 67.5 11.6 67.5 3.9 67.5 3.9 Z M 74.5 0 L 81.7 0 L 81.7 1.8 L 79.2 1.8 L 79.2 15.3 L 77.1 15.3 L 77.1 1.8 L 74.5 1.8 L 74.5 0 Z M 82.6 0 L 84.7 0 L 84.7 15.3 L 82.6 15.3 L 82.6 0 Z M 88.2 11.7 C 88.2 13.1 88.8 13.8 89.7 13.8 C 90.6 13.8 91.1 13.1 91.1 11.7 C 91.1 11.7 91.1 3.8 91.1 3.8 C 91.1 2.3 90.6 1.6 89.7 1.6 C 88.7 1.6 88.2 2.3 88.2 3.8 C 88.2 3.8 88.2 11.7 88.2 11.7 Z M 86.1 3.9 C 86.1 1.8 86.8 -0.1 89.7 -0.1 C 92.4 -0.1 93.3 1.3 93.3 3.7 C 93.3 3.7 93.3 11.4 93.3 11.4 C 93.3 13.5 92.6 15.4 89.7 15.4 C 87 15.4 86.1 14 86.1 11.6 C 86.1 11.6 86.1 3.9 86.1 3.9 Z M 94.7 0 L 97.7 0 L 100.1 12.7 L 100.2 12.7 L 100.2 0 L 102.2 0 L 102.2 15.3 L 99.1 15.3 L 96.6 2.3 L 96.6 2.3 L 96.6 15.3 L 94.7 15.3 L 94.7 0 Z M 107.6 0 L 109.7 0 L 109.7 15.3 L 107.6 15.3 L 107.6 0 Z M 111.2 0 L 114.1 0 L 116.6 12.7 L 116.6 12.7 L 116.6 0 L 118.6 0 L 118.6 15.3 L 115.6 15.3 L 113.1 2.3 L 113.1 2.3 L 113.1 15.3 L 111.2 15.3 L 111.2 0 Z M 120.1 12.8 L 122.6 12.8 L 122.6 15.3 L 120.1 15.3 L 120.1 12.8 Z M 124 12.8 L 126.5 12.8 L 126.5 15.3 L 124 15.3 L 124 12.8 Z M 128 12.8 L 130.5 12.8 L 130.5 15.3 L 128 15.3 L 128 12.8 Z " stroke="none" fill="#003c71"/>  </g></svg>