<?xml version="1.0" standalone="no"?><!DOCTYPE svg PUBLIC "-//W3C//DTD SVG 1.1//EN" "http://www.w3.org/Graphics/SVG/1.1/DTD/svg11.dtd"><svg xmlns="http://www.w3.org/2000/svg" version="1.1" width="94.5px" height="72px" viewBox="0 -11 94.5 72" style="top:-11px">  <desc>98%</desc>  <defs/>  <g id="Polygon199793">    <path d="M 8.8 14.3 C 11.2 14.3 11.3 11.1 11.3 9.4 C 11.3 7.6 11.2 4.5 8.8 4.5 C 6.4 4.5 6.4 7.8 6.4 9.5 C 6.4 11.2 6.4 14.3 8.8 14.3 Z M 6.8 22.4 C 6.8 23.1 6.8 23.8 7.2 24.4 C 7.5 24.9 8 25.2 8.8 25.2 C 11.6 25.2 11.3 23 11.3 16.3 C 10 17.6 8.5 18.2 6.7 18.2 C 2.4 18.2 0.8 14.3 0.8 10.6 C 0.8 5.1 2.4 0.7 8.7 0.7 C 17 0.7 17 7.3 17 15.1 C 17 22 16.8 29.3 8.7 29.3 C 3.8 29.3 1 27.7 1.2 22.4 C 1.2 22.4 6.8 22.4 6.8 22.4 Z M 24.2 21.4 C 24.2 23 24.5 25.2 26.6 25.2 C 28.8 25.2 29.1 23 29.1 21.4 C 29.1 19.8 29.2 16.5 26.6 16.5 C 24.1 16.5 24.2 19.8 24.2 21.4 Z M 24.4 8.4 C 24.4 9.8 24.6 12.2 26.6 12.2 C 28.6 12.2 28.8 9.8 28.8 8.4 C 28.8 7 28.6 4.8 26.6 4.8 C 24.7 4.8 24.4 7 24.4 8.4 Z M 18.6 21.8 C 18.6 18.4 19.1 15.5 22.7 14.2 C 22.7 14.2 22.7 14.2 22.7 14.2 C 19.5 13.4 18.8 11 18.8 8.1 C 18.8 3 21.5 0.7 26.6 0.7 C 31.8 0.7 34.5 3 34.5 8.1 C 34.5 11 33.8 13.4 30.6 14.2 C 30.6 14.2 30.6 14.2 30.6 14.2 C 34.2 15.5 34.7 18.4 34.7 21.8 C 34.7 27 31.9 29.3 26.6 29.3 C 21.4 29.3 18.6 27 18.6 21.8 Z M 53.8 21.8 C 53.8 17.6 54.8 14.2 59.6 14.2 C 64.4 14.2 65.4 17.6 65.4 21.8 C 65.4 26.5 64.1 29 59.6 29 C 55.1 29 53.8 26.5 53.8 21.8 Z M 61.6 21.3 C 61.6 19.9 61.6 17.4 59.6 17.4 C 57.6 17.4 57.6 19.9 57.6 21.3 C 57.6 24.6 57.8 25.8 59.6 25.8 C 61.4 25.8 61.6 24.6 61.6 21.3 Z M 36.8 8.6 C 36.8 4.4 37.7 1 42.6 1 C 47.4 1 48.3 4.4 48.3 8.6 C 48.3 13.3 47 15.8 42.6 15.8 C 38.1 15.8 36.8 13.3 36.8 8.6 Z M 44.5 8.2 C 44.5 6.8 44.6 4.2 42.6 4.2 C 40.5 4.2 40.6 6.8 40.6 8.2 C 40.6 11.5 40.8 12.6 42.6 12.6 C 44.3 12.6 44.5 11.5 44.5 8.2 Z M 46.6 29.8 L 43.6 29.8 L 55.3 0.5 L 58.3 0.5 L 46.6 29.8 Z " stroke="none" fill="#003c71"/>  </g></svg>