<?xml version="1.0" standalone="no"?><!DOCTYPE svg PUBLIC "-//W3C//DTD SVG 1.1//EN" "http://www.w3.org/Graphics/SVG/1.1/DTD/svg11.dtd"><svg xmlns="http://www.w3.org/2000/svg" version="1.1" width="424px" height="83.7px" viewBox="0 -1 424 83.7" style="top:-1px">  <desc>62% attack free during the study period of an average2*</desc>  <defs/>  <g id="Polygon191715">    <path d="M 4.8 40.8 C 4.8 39.3 4.6 38.6 3.7 38.6 C 2.8 38.6 2.7 39.5 2.7 41 C 2.7 41.7 2.7 43.1 3.7 43.1 C 4.5 43.1 4.8 42.6 4.8 40.8 Z M 4.6 35.4 C 4.6 35 4.6 34.8 4.4 34.6 C 4.3 34.4 4.1 34.3 3.8 34.3 C 2.7 34.3 2.7 34.8 2.7 37.8 C 3.3 37.2 3.7 37 4.6 37 C 6.8 37 7.2 38.9 7.2 40.8 C 7.2 43.2 6.3 44.8 3.6 44.8 C 0.5 44.8 0.3 42.2 0.3 39.7 C 0.3 35 0.6 32.6 4 32.6 C 5.8 32.6 7.1 33.4 7.1 35.4 C 7.1 35.4 4.6 35.4 4.6 35.4 Z M 7.8 44.7 C 7.8 44.7 7.75 42.56 7.8 42.6 C 11.5 37.6 12.3 37 12.3 35.5 C 12.3 34.9 12.1 34.4 11.4 34.4 C 10.4 34.4 10.3 35.3 10.3 36.1 C 10.3 36.1 7.9 36.1 7.9 36.1 C 7.8 33.9 9 32.6 11.2 32.6 C 13.3 32.6 14.7 33.5 14.7 35.7 C 14.7 38.4 11.6 41.4 10.3 42.8 C 10.27 42.82 14.8 42.8 14.8 42.8 L 14.8 44.7 L 7.8 44.7 Z M 22.9 41.6 C 22.9 39.8 23.3 38.4 25.3 38.4 C 27.4 38.4 27.8 39.8 27.8 41.6 C 27.8 43.6 27.2 44.7 25.3 44.7 C 23.4 44.7 22.9 43.6 22.9 41.6 Z M 26.2 41.4 C 26.2 40.8 26.2 39.7 25.3 39.7 C 24.5 39.7 24.5 40.8 24.5 41.4 C 24.5 42.8 24.6 43.3 25.3 43.3 C 26.1 43.3 26.2 42.8 26.2 41.4 Z M 15.6 36 C 15.6 34.2 16 32.8 18.1 32.8 C 20.1 32.8 20.5 34.2 20.5 36 C 20.5 38 20 39.1 18.1 39.1 C 16.2 39.1 15.6 38 15.6 36 Z M 18.9 35.8 C 18.9 35.2 19 34.1 18.1 34.1 C 17.2 34.1 17.3 35.2 17.3 35.8 C 17.3 37.2 17.3 37.7 18.1 37.7 C 18.8 37.7 18.9 37.2 18.9 35.8 Z M 19.8 45 L 18.5 45 L 23.5 32.6 L 24.8 32.6 L 19.8 45 Z M 35.1 42 C 35.1 42.6 35.2 43.3 36 43.3 C 37.4 43.3 37.2 41.4 37.2 40.5 C 36 40.6 35.1 40.5 35.1 42 Z M 39.6 43.1 C 39.6 43.6 39.6 44.1 39.7 44.7 C 39.68 44.65 37.5 44.7 37.5 44.7 L 37.3 43.5 C 37.3 43.5 37.31 43.51 37.3 43.5 C 36.8 44.4 36.1 44.8 35.1 44.8 C 33.4 44.8 32.8 43.6 32.8 42.1 C 32.8 39.2 35 39.1 37.2 39.2 C 37.2 39.2 37.2 38.5 37.2 38.5 C 37.2 37.8 37.1 37.2 36.2 37.2 C 35.4 37.2 35.3 37.9 35.3 38.6 C 35.3 38.6 33 38.6 33 38.6 C 33 37.5 33.3 36.9 33.9 36.5 C 34.4 36.1 35.2 35.9 36.1 35.9 C 39.2 35.9 39.6 37.2 39.6 38.8 C 39.6 38.8 39.6 43.1 39.6 43.1 Z M 40.6 36.1 L 41.5 36.1 L 41.5 34.7 L 43.9 33.6 L 43.9 36.1 L 45.2 36.1 L 45.2 37.5 L 43.9 37.5 C 43.9 37.5 43.94 42.14 43.9 42.1 C 43.9 42.8 43.9 43.2 44.7 43.2 C 44.9 43.2 45 43.2 45.1 43.2 C 45.1 43.2 45.1 44.7 45.1 44.7 C 44.8 44.7 44.5 44.7 43.9 44.7 C 41.8 44.7 41.5 43.4 41.5 42.8 C 41.55 42.83 41.5 37.5 41.5 37.5 L 40.6 37.5 L 40.6 36.1 Z M 45.3 36.1 L 46.3 36.1 L 46.3 34.7 L 48.7 33.6 L 48.7 36.1 L 49.9 36.1 L 49.9 37.5 L 48.7 37.5 C 48.7 37.5 48.67 42.14 48.7 42.1 C 48.7 42.8 48.7 43.2 49.4 43.2 C 49.6 43.2 49.7 43.2 49.9 43.2 C 49.9 43.2 49.9 44.7 49.9 44.7 C 49.5 44.7 49.2 44.7 48.6 44.7 C 46.5 44.7 46.3 43.4 46.3 42.8 C 46.27 42.83 46.3 37.5 46.3 37.5 L 45.3 37.5 L 45.3 36.1 Z M 53.1 42 C 53.1 42.6 53.2 43.3 54 43.3 C 55.4 43.3 55.2 41.4 55.2 40.5 C 54 40.6 53.1 40.5 53.1 42 Z M 57.5 43.1 C 57.5 43.6 57.6 44.1 57.6 44.7 C 57.63 44.65 55.4 44.7 55.4 44.7 L 55.3 43.5 C 55.3 43.5 55.27 43.51 55.3 43.5 C 54.8 44.4 54.1 44.8 53 44.8 C 51.4 44.8 50.7 43.6 50.7 42.1 C 50.7 39.2 52.9 39.1 55.2 39.2 C 55.2 39.2 55.2 38.5 55.2 38.5 C 55.2 37.8 55.1 37.2 54.2 37.2 C 53.4 37.2 53.3 37.9 53.3 38.6 C 53.3 38.6 50.9 38.6 50.9 38.6 C 50.9 37.5 51.3 36.9 51.8 36.5 C 52.4 36.1 53.2 35.9 54.1 35.9 C 57.1 35.9 57.5 37.2 57.5 38.8 C 57.5 38.8 57.5 43.1 57.5 43.1 Z M 63.9 39.1 C 63.9 37.9 63.5 37.4 62.8 37.4 C 61.8 37.4 61.7 38.3 61.7 40.1 C 61.7 42.7 61.9 43.3 62.8 43.3 C 63.5 43.3 63.9 42.6 63.9 41.5 C 63.9 41.5 66.3 41.5 66.3 41.5 C 66.3 43.8 65 44.8 62.8 44.8 C 59.7 44.8 59.3 42.9 59.3 40.3 C 59.3 37.9 59.6 35.9 62.8 35.9 C 65 35.9 66.3 36.9 66.3 39.1 C 66.3 39.1 63.9 39.1 63.9 39.1 Z M 67.9 44.7 L 67.9 32.4 L 70.3 32.4 L 70.3 39.7 L 70.4 39.7 L 72.5 36.1 L 75 36.1 L 72.6 39.9 L 75.3 44.7 L 72.6 44.7 L 70.4 40 L 70.3 40 L 70.3 44.7 L 67.9 44.7 Z M 80.5 39.2 L 80.5 40.9 L 76.3 40.9 L 76.3 39.2 L 80.5 39.2 Z M 85.8 33.9 C 84.9 33.8 84.7 34.2 84.7 35 C 84.68 35.03 84.7 36.1 84.7 36.1 L 85.8 36.1 L 85.8 37.5 L 84.7 37.5 L 84.7 44.7 L 82.3 44.7 L 82.3 37.5 L 81.2 37.5 L 81.2 36.1 C 81.2 36.1 82.3 36.07 82.3 36.1 C 82.3 33.6 82.1 32.3 85 32.3 C 85.3 32.3 85.6 32.3 85.8 32.3 C 85.8 32.3 85.8 33.9 85.8 33.9 Z M 89.2 36.1 L 89.2 37.2 C 89.2 37.2 89.2 37.17 89.2 37.2 C 89.6 36.2 90.5 35.9 91.4 35.9 C 91.4 35.9 91.4 38 91.4 38 C 89.3 37.9 89.3 39.1 89.3 40 C 89.28 39.98 89.3 44.7 89.3 44.7 L 86.9 44.7 L 86.9 36.1 L 89.2 36.1 Z M 96.9 39.4 C 96.9 38.6 97 37.4 95.8 37.4 C 94.7 37.4 94.8 38.7 94.8 39.4 C 94.8 39.4 96.9 39.4 96.9 39.4 Z M 94.8 40.7 C 94.8 41.8 94.8 43.3 95.8 43.3 C 96.7 43.3 96.9 42.5 96.9 41.8 C 96.9 41.8 99.3 41.8 99.3 41.8 C 99.3 42.7 99 43.5 98.4 44 C 97.8 44.5 97 44.8 95.8 44.8 C 92.8 44.8 92.3 42.9 92.3 40.3 C 92.3 37.9 92.7 35.9 95.8 35.9 C 99.1 35.9 99.4 38 99.3 40.7 C 99.3 40.7 94.8 40.7 94.8 40.7 Z M 105.4 39.4 C 105.4 38.6 105.5 37.4 104.3 37.4 C 103.2 37.4 103.3 38.7 103.3 39.4 C 103.3 39.4 105.4 39.4 105.4 39.4 Z M 103.3 40.7 C 103.3 41.8 103.3 43.3 104.3 43.3 C 105.2 43.3 105.4 42.5 105.4 41.8 C 105.4 41.8 107.8 41.8 107.8 41.8 C 107.8 42.7 107.5 43.5 106.9 44 C 106.3 44.5 105.5 44.8 104.3 44.8 C 101.3 44.8 100.8 42.9 100.8 40.3 C 100.8 37.9 101.2 35.9 104.3 35.9 C 107.6 35.9 107.9 38 107.8 40.7 C 107.8 40.7 103.3 40.7 103.3 40.7 Z M 117.5 40.3 C 117.5 38.6 117.5 37.4 116.5 37.4 C 115.5 37.4 115.5 38.6 115.5 40.3 C 115.5 42.4 115.6 43.3 116.5 43.3 C 117.3 43.3 117.5 42.4 117.5 40.3 Z M 117.6 44.7 L 117.6 43.7 C 117.6 43.7 117.57 43.7 117.6 43.7 C 117.1 44.5 116.5 44.8 115.5 44.8 C 113.1 44.8 113.2 42.1 113.2 40.3 C 113.2 38.6 113.1 35.9 115.5 35.9 C 116.4 35.9 117 36.2 117.5 36.9 C 117.45 36.88 117.5 36.9 117.5 36.9 L 117.5 32.4 L 119.9 32.4 L 119.9 44.7 L 117.6 44.7 Z M 126 43.8 C 126 43.8 125.99 43.79 126 43.8 C 125.7 44.2 125.5 44.4 125.1 44.6 C 124.8 44.8 124.4 44.8 124 44.8 C 122.8 44.8 121.8 44.1 121.8 43 C 121.82 42.95 121.8 36.1 121.8 36.1 L 124.2 36.1 C 124.2 36.1 124.22 42.02 124.2 42 C 124.2 42.8 124.4 43.3 125.1 43.3 C 125.9 43.3 126 42.8 126 42 C 126.02 42.02 126 36.1 126 36.1 L 128.4 36.1 C 128.4 36.1 128.42 42.95 128.4 43 C 128.4 43.5 128.5 44.1 128.5 44.7 C 128.5 44.65 126 44.7 126 44.7 L 126 43.8 Z M 132.6 36.1 L 132.6 37.2 C 132.6 37.2 132.63 37.17 132.6 37.2 C 133.1 36.2 133.9 35.9 134.9 35.9 C 134.9 35.9 134.9 38 134.9 38 C 132.8 37.9 132.7 39.1 132.7 40 C 132.72 39.98 132.7 44.7 132.7 44.7 L 130.3 44.7 L 130.3 36.1 L 132.6 36.1 Z M 138.6 44.7 L 136.2 44.7 L 136.2 36.1 L 138.6 36.1 L 138.6 44.7 Z M 138.6 32.4 L 138.6 34.3 L 136.2 34.3 L 136.2 32.4 L 138.6 32.4 Z M 143.1 36.9 C 143.1 36.9 143.14 36.94 143.1 36.9 C 143.4 36.5 143.7 36.3 144 36.1 C 144.3 36 144.7 35.9 145.2 35.9 C 146.3 35.9 147.3 36.6 147.3 37.8 C 147.3 37.77 147.3 44.7 147.3 44.7 L 144.9 44.7 C 144.9 44.7 144.91 38.74 144.9 38.7 C 144.9 38 144.8 37.4 144 37.4 C 143.2 37.4 143.1 38 143.1 38.7 C 143.1 38.74 143.1 44.7 143.1 44.7 L 140.7 44.7 L 140.7 36.1 L 143.1 36.1 L 143.1 36.9 Z M 152.4 43.1 C 153.3 43.1 153.4 42.2 153.4 40.3 C 153.4 38.4 153.3 37.4 152.4 37.4 C 151.5 37.4 151.3 38 151.3 40.6 C 151.3 41.4 151.2 43.1 152.4 43.1 Z M 155.8 36.1 C 155.8 36.1 155.77 45.01 155.8 45 C 155.8 45.6 155.8 48 152.5 48 C 150.7 48 149.2 47.5 149.1 45.4 C 149.1 45.4 151.5 45.4 151.5 45.4 C 151.5 45.8 151.5 46.1 151.7 46.3 C 151.8 46.5 152.1 46.6 152.5 46.6 C 153.1 46.6 153.4 46 153.4 45.2 C 153.37 45.18 153.4 43.5 153.4 43.5 C 153.4 43.5 153.34 43.53 153.3 43.5 C 153 44.2 152.3 44.5 151.5 44.5 C 148.9 44.5 149 42.1 149 40.2 C 149 38.3 149 35.9 151.5 35.9 C 152.4 35.9 153.1 36.3 153.5 37.1 C 153.46 37.07 153.5 37.1 153.5 37.1 L 153.5 36.1 L 155.8 36.1 Z M 160.5 36.1 L 161.5 36.1 L 161.5 34.7 L 163.9 33.6 L 163.9 36.1 L 165.1 36.1 L 165.1 37.5 L 163.9 37.5 C 163.9 37.5 163.88 42.14 163.9 42.1 C 163.9 42.8 163.9 43.2 164.6 43.2 C 164.8 43.2 164.9 43.2 165.1 43.2 C 165.1 43.2 165.1 44.7 165.1 44.7 C 164.7 44.7 164.4 44.7 163.8 44.7 C 161.8 44.7 161.5 43.4 161.5 42.8 C 161.48 42.83 161.5 37.5 161.5 37.5 L 160.5 37.5 L 160.5 36.1 Z M 170.4 44.7 C 170.4 44.7 170.41 38.74 170.4 38.7 C 170.4 38 170.3 37.4 169.5 37.4 C 168.7 37.4 168.6 38 168.6 38.7 C 168.6 38.74 168.6 44.7 168.6 44.7 L 166.2 44.7 L 166.2 32.4 L 168.6 32.4 L 168.6 36.9 C 168.6 36.9 168.64 36.94 168.6 36.9 C 168.9 36.5 169.2 36.3 169.5 36.1 C 169.8 36 170.2 35.9 170.7 35.9 C 171.8 35.9 172.8 36.6 172.8 37.8 C 172.8 37.77 172.8 44.7 172.8 44.7 L 170.4 44.7 Z M 179.1 39.4 C 179.1 38.6 179.1 37.4 178 37.4 C 176.9 37.4 176.9 38.7 176.9 39.4 C 176.9 39.4 179.1 39.4 179.1 39.4 Z M 176.9 40.7 C 176.9 41.8 177 43.3 178 43.3 C 178.9 43.3 179 42.5 179 41.8 C 179 41.8 181.5 41.8 181.5 41.8 C 181.4 42.7 181.1 43.5 180.5 44 C 180 44.5 179.1 44.8 178 44.8 C 174.9 44.8 174.5 42.9 174.5 40.3 C 174.5 37.9 174.8 35.9 178 35.9 C 181.2 35.9 181.6 38 181.5 40.7 C 181.5 40.7 176.9 40.7 176.9 40.7 Z M 188.9 41.9 C 188.9 42.3 188.9 42.7 189 42.9 C 189.1 43.2 189.4 43.3 189.9 43.3 C 190.3 43.3 190.7 43 190.7 42.5 C 190.7 40.6 186.5 41 186.5 38.3 C 186.5 36.5 188.4 35.9 189.9 35.9 C 191.5 35.9 193 36.7 192.9 38.5 C 192.9 38.5 190.5 38.5 190.5 38.5 C 190.5 37.9 190.5 37.6 190.3 37.4 C 190.1 37.3 189.9 37.2 189.7 37.2 C 189.2 37.2 188.9 37.6 188.9 38.2 C 188.9 39.5 193.1 39.5 193.1 42.2 C 193.1 43.7 191.9 44.8 189.9 44.8 C 187.8 44.8 186.4 44.3 186.5 41.9 C 186.5 41.9 188.9 41.9 188.9 41.9 Z M 193.6 36.1 L 194.5 36.1 L 194.5 34.7 L 196.9 33.6 L 196.9 36.1 L 198.2 36.1 L 198.2 37.5 L 196.9 37.5 C 196.9 37.5 196.93 42.14 196.9 42.1 C 196.9 42.8 196.9 43.2 197.7 43.2 C 197.8 43.2 198 43.2 198.1 43.2 C 198.1 43.2 198.1 44.7 198.1 44.7 C 197.8 44.7 197.5 44.7 196.9 44.7 C 194.8 44.7 194.5 43.4 194.5 42.8 C 194.53 42.83 194.5 37.5 194.5 37.5 L 193.6 37.5 L 193.6 36.1 Z M 203.5 43.8 C 203.5 43.8 203.42 43.79 203.4 43.8 C 203.2 44.2 202.9 44.4 202.6 44.6 C 202.2 44.8 201.9 44.8 201.4 44.8 C 200.3 44.8 199.3 44.1 199.3 43 C 199.25 42.95 199.3 36.1 199.3 36.1 L 201.7 36.1 C 201.7 36.1 201.65 42.02 201.7 42 C 201.7 42.8 201.8 43.3 202.6 43.3 C 203.3 43.3 203.5 42.8 203.5 42 C 203.45 42.02 203.5 36.1 203.5 36.1 L 205.9 36.1 C 205.9 36.1 205.85 42.95 205.9 43 C 205.9 43.5 205.9 44.1 205.9 44.7 C 205.94 44.65 203.5 44.7 203.5 44.7 L 203.5 43.8 Z M 211.9 40.3 C 211.9 38.6 211.9 37.4 211 37.4 C 209.9 37.4 209.9 38.6 209.9 40.3 C 209.9 42.4 210.1 43.3 211 43.3 C 211.8 43.3 211.9 42.4 211.9 40.3 Z M 212 44.7 L 212 43.7 C 212 43.7 212 43.7 212 43.7 C 211.6 44.5 210.9 44.8 210 44.8 C 207.5 44.8 207.6 42.1 207.6 40.3 C 207.6 38.6 207.5 35.9 209.9 35.9 C 210.8 35.9 211.4 36.2 211.9 36.9 C 211.89 36.88 211.9 36.9 211.9 36.9 L 211.9 32.4 L 214.3 32.4 L 214.3 44.7 L 212 44.7 Z M 217.8 44.7 L 215.5 36.1 L 217.8 36.1 L 219.1 42.1 L 219.1 42.1 L 220.4 36.1 L 222.7 36.1 L 219.4 47.9 L 216.9 47.9 L 217.8 44.7 Z M 232 40.3 C 232 38.6 232 37.4 230.9 37.4 C 230 37.4 230 38.6 230 40.3 C 230 42.4 230.1 43.3 230.9 43.3 C 231.8 43.3 232 42.4 232 40.3 Z M 229.9 36.1 L 229.9 37 C 229.9 37 229.89 37.02 229.9 37 C 230.3 36.2 231 35.9 231.9 35.9 C 234.4 35.9 234.3 38.7 234.3 40.4 C 234.3 42.2 234.4 44.8 232 44.8 C 231.1 44.8 230.5 44.6 230 43.8 C 230.01 43.84 230 43.8 230 43.8 L 230 48.3 L 227.6 48.3 L 227.6 36.1 L 229.9 36.1 Z M 240.5 39.4 C 240.5 38.6 240.5 37.4 239.4 37.4 C 238.3 37.4 238.3 38.7 238.3 39.4 C 238.3 39.4 240.5 39.4 240.5 39.4 Z M 238.3 40.7 C 238.3 41.8 238.3 43.3 239.4 43.3 C 240.2 43.3 240.4 42.5 240.4 41.8 C 240.4 41.8 242.8 41.8 242.8 41.8 C 242.8 42.7 242.5 43.5 241.9 44 C 241.3 44.5 240.5 44.8 239.4 44.8 C 236.3 44.8 235.9 42.9 235.9 40.3 C 235.9 37.9 236.2 35.9 239.4 35.9 C 242.6 35.9 243 38 242.9 40.7 C 242.9 40.7 238.3 40.7 238.3 40.7 Z M 246.9 36.1 L 246.9 37.2 C 246.9 37.2 246.89 37.17 246.9 37.2 C 247.3 36.2 248.1 35.9 249.1 35.9 C 249.1 35.9 249.1 38 249.1 38 C 247 37.9 247 39.1 247 40 C 246.97 39.98 247 44.7 247 44.7 L 244.6 44.7 L 244.6 36.1 L 246.9 36.1 Z M 252.8 44.7 L 250.4 44.7 L 250.4 36.1 L 252.8 36.1 L 252.8 44.7 Z M 252.8 32.4 L 252.8 34.3 L 250.4 34.3 L 250.4 32.4 L 252.8 32.4 Z M 259.4 40.1 C 259.4 38.3 259.3 37.4 258.3 37.4 C 257.2 37.4 257.2 38.3 257.2 40.1 C 257.2 42.7 257.4 43.3 258.3 43.3 C 259.1 43.3 259.4 42.7 259.4 40.1 Z M 254.8 40.3 C 254.8 37.9 255.1 35.9 258.3 35.9 C 261.4 35.9 261.8 37.9 261.8 40.3 C 261.8 42.9 261.4 44.8 258.3 44.8 C 255.2 44.8 254.8 42.9 254.8 40.3 Z M 267.6 40.3 C 267.6 38.6 267.6 37.4 266.7 37.4 C 265.6 37.4 265.6 38.6 265.6 40.3 C 265.6 42.4 265.8 43.3 266.7 43.3 C 267.5 43.3 267.6 42.4 267.6 40.3 Z M 267.7 44.7 L 267.7 43.7 C 267.7 43.7 267.71 43.7 267.7 43.7 C 267.3 44.5 266.6 44.8 265.7 44.8 C 263.2 44.8 263.3 42.1 263.3 40.3 C 263.3 38.6 263.2 35.9 265.6 35.9 C 266.5 35.9 267.1 36.2 267.6 36.9 C 267.59 36.88 267.6 36.9 267.6 36.9 L 267.6 32.4 L 270 32.4 L 270 44.7 L 267.7 44.7 Z M 280.1 40.1 C 280.1 38.3 280.1 37.4 279 37.4 C 278 37.4 277.9 38.3 277.9 40.1 C 277.9 42.7 278.2 43.3 279 43.3 C 279.9 43.3 280.1 42.7 280.1 40.1 Z M 275.5 40.3 C 275.5 37.9 275.9 35.9 279 35.9 C 282.2 35.9 282.5 37.9 282.5 40.3 C 282.5 42.9 282.1 44.8 279 44.8 C 275.9 44.8 275.5 42.9 275.5 40.3 Z M 287.9 33.9 C 287 33.8 286.8 34.2 286.8 35 C 286.75 35.03 286.8 36.1 286.8 36.1 L 287.9 36.1 L 287.9 37.5 L 286.8 37.5 L 286.8 44.7 L 284.4 44.7 L 284.4 37.5 L 283.3 37.5 L 283.3 36.1 C 283.3 36.1 284.37 36.07 284.4 36.1 C 284.4 33.6 284.2 32.3 287.1 32.3 C 287.4 32.3 287.6 32.3 287.9 32.3 C 287.9 32.3 287.9 33.9 287.9 33.9 Z M 294.8 42 C 294.8 42.6 294.9 43.3 295.7 43.3 C 297.1 43.3 296.9 41.4 296.9 40.5 C 295.7 40.6 294.8 40.5 294.8 42 Z M 299.2 43.1 C 299.2 43.6 299.3 44.1 299.4 44.7 C 299.37 44.65 297.1 44.7 297.1 44.7 L 297 43.5 C 297 43.5 297 43.51 297 43.5 C 296.5 44.4 295.8 44.8 294.8 44.8 C 293.1 44.8 292.5 43.6 292.5 42.1 C 292.5 39.2 294.7 39.1 296.9 39.2 C 296.9 39.2 296.9 38.5 296.9 38.5 C 296.9 37.8 296.8 37.2 295.9 37.2 C 295.1 37.2 295 37.9 295 38.6 C 295 38.6 292.7 38.6 292.7 38.6 C 292.7 37.5 293 36.9 293.6 36.5 C 294.1 36.1 294.9 35.9 295.8 35.9 C 298.9 35.9 299.2 37.2 299.2 38.8 C 299.2 38.8 299.2 43.1 299.2 43.1 Z M 303.6 36.9 C 303.6 36.9 303.67 36.94 303.7 36.9 C 303.9 36.5 304.2 36.3 304.5 36.1 C 304.9 36 305.2 35.9 305.7 35.9 C 306.8 35.9 307.8 36.6 307.8 37.8 C 307.83 37.77 307.8 44.7 307.8 44.7 L 305.4 44.7 C 305.4 44.7 305.44 38.74 305.4 38.7 C 305.4 38 305.3 37.4 304.5 37.4 C 303.8 37.4 303.6 38 303.6 38.7 C 303.63 38.74 303.6 44.7 303.6 44.7 L 301.2 44.7 L 301.2 36.1 L 303.6 36.1 L 303.6 36.9 Z M 315.6 42 C 315.6 42.6 315.7 43.3 316.5 43.3 C 317.9 43.3 317.7 41.4 317.7 40.5 C 316.5 40.6 315.6 40.5 315.6 42 Z M 320 43.1 C 320 43.6 320.1 44.1 320.1 44.7 C 320.14 44.65 317.9 44.7 317.9 44.7 L 317.8 43.5 C 317.8 43.5 317.78 43.51 317.8 43.5 C 317.3 44.4 316.6 44.8 315.5 44.8 C 313.9 44.8 313.3 43.6 313.3 42.1 C 313.3 39.2 315.4 39.1 317.7 39.2 C 317.7 39.2 317.7 38.5 317.7 38.5 C 317.7 37.8 317.6 37.2 316.7 37.2 C 315.9 37.2 315.8 37.9 315.8 38.6 C 315.8 38.6 313.5 38.6 313.5 38.6 C 313.5 37.5 313.8 36.9 314.3 36.5 C 314.9 36.1 315.7 35.9 316.6 35.9 C 319.6 35.9 320 37.2 320 38.8 C 320 38.8 320 43.1 320 43.1 Z M 321.2 36.1 L 323.6 36.1 L 324.8 42.5 L 324.9 42.5 L 326.1 36.1 L 328.5 36.1 L 326.1 44.7 L 323.5 44.7 L 321.2 36.1 Z M 334 39.4 C 334 38.6 334 37.4 332.9 37.4 C 331.8 37.4 331.8 38.7 331.8 39.4 C 331.8 39.4 334 39.4 334 39.4 Z M 331.8 40.7 C 331.8 41.8 331.8 43.3 332.9 43.3 C 333.7 43.3 333.9 42.5 333.9 41.8 C 333.9 41.8 336.3 41.8 336.3 41.8 C 336.3 42.7 336 43.5 335.4 44 C 334.8 44.5 334 44.8 332.9 44.8 C 329.8 44.8 329.4 42.9 329.4 40.3 C 329.4 37.9 329.7 35.9 332.9 35.9 C 336.1 35.9 336.4 38 336.4 40.7 C 336.4 40.7 331.8 40.7 331.8 40.7 Z M 340.3 36.1 L 340.3 37.2 C 340.3 37.2 340.37 37.17 340.4 37.2 C 340.8 36.2 341.6 35.9 342.6 35.9 C 342.6 35.9 342.6 38 342.6 38 C 340.5 37.9 340.5 39.1 340.5 40 C 340.46 39.98 340.5 44.7 340.5 44.7 L 338.1 44.7 L 338.1 36.1 L 340.3 36.1 Z M 345.8 42 C 345.8 42.6 345.9 43.3 346.7 43.3 C 348.1 43.3 347.9 41.4 347.9 40.5 C 346.7 40.6 345.8 40.5 345.8 42 Z M 350.2 43.1 C 350.2 43.6 350.3 44.1 350.3 44.7 C 350.35 44.65 348.1 44.7 348.1 44.7 L 348 43.5 C 348 43.5 347.99 43.51 348 43.5 C 347.5 44.4 346.8 44.8 345.7 44.8 C 344.1 44.8 343.5 43.6 343.5 42.1 C 343.5 39.2 345.7 39.1 347.9 39.2 C 347.9 39.2 347.9 38.5 347.9 38.5 C 347.9 37.8 347.8 37.2 346.9 37.2 C 346.1 37.2 346 37.9 346 38.6 C 346 38.6 343.7 38.6 343.7 38.6 C 343.7 37.5 344 36.9 344.6 36.5 C 345.1 36.1 345.9 35.9 346.8 35.9 C 349.8 35.9 350.2 37.2 350.2 38.8 C 350.2 38.8 350.2 43.1 350.2 43.1 Z M 355.4 43.1 C 356.3 43.1 356.4 42.2 356.4 40.3 C 356.4 38.4 356.3 37.4 355.4 37.4 C 354.5 37.4 354.4 38 354.4 40.6 C 354.4 41.4 354.2 43.1 355.4 43.1 Z M 358.8 36.1 C 358.8 36.1 358.78 45.01 358.8 45 C 358.8 45.6 358.8 48 355.5 48 C 353.7 48 352.2 47.5 352.2 45.4 C 352.2 45.4 354.5 45.4 354.5 45.4 C 354.5 45.8 354.5 46.1 354.7 46.3 C 354.9 46.5 355.1 46.6 355.5 46.6 C 356.1 46.6 356.4 46 356.4 45.2 C 356.38 45.18 356.4 43.5 356.4 43.5 C 356.4 43.5 356.35 43.53 356.4 43.5 C 356 44.2 355.3 44.5 354.5 44.5 C 351.9 44.5 352 42.1 352 40.2 C 352 38.3 352 35.9 354.5 35.9 C 355.4 35.9 356.1 36.3 356.5 37.1 C 356.47 37.07 356.5 37.1 356.5 37.1 L 356.5 36.1 L 358.8 36.1 Z M 365.1 39.4 C 365.1 38.6 365.2 37.4 364 37.4 C 362.9 37.4 362.9 38.7 362.9 39.4 C 362.9 39.4 365.1 39.4 365.1 39.4 Z M 362.9 40.7 C 362.9 41.8 363 43.3 364 43.3 C 364.9 43.3 365 42.5 365 41.8 C 365 41.8 367.5 41.8 367.5 41.8 C 367.4 42.7 367.1 43.5 366.6 44 C 366 44.5 365.1 44.8 364 44.8 C 360.9 44.8 360.5 42.9 360.5 40.3 C 360.5 37.9 360.9 35.9 364 35.9 C 367.2 35.9 367.6 38 367.5 40.7 C 367.5 40.7 362.9 40.7 362.9 40.7 Z M 368.4 39 C 368.4 39 368.39 37.77 368.4 37.8 C 370.6 34.9 371 34.5 371 33.7 C 371 33.3 370.9 33 370.5 33 C 369.9 33 369.9 33.5 369.9 34 C 369.9 34 368.5 34 368.5 34 C 368.4 32.7 369.1 32 370.4 32 C 371.6 32 372.4 32.5 372.4 33.8 C 372.4 35.3 370.6 37.1 369.9 37.9 C 369.85 37.92 372.5 37.9 372.5 37.9 L 372.5 39 L 368.4 39 Z M 375.5 38.7 L 374 37.8 L 375.5 35.8 L 373.2 36.2 L 373.2 34.5 L 375.5 34.8 L 374.2 33 L 375.6 32.2 L 376.4 34.3 L 377.3 32.2 L 378.7 33 L 377.3 34.8 L 379.7 34.5 L 379.7 36.2 L 377.3 35.8 L 378.9 37.8 L 377.4 38.7 L 376.4 36.3 L 375.5 38.7 Z " stroke="none" fill="#003c71"/>  </g></svg>