<?xml version="1.0" standalone="no"?><!DOCTYPE svg PUBLIC "-//W3C//DTD SVG 1.1//EN" "http://www.w3.org/Graphics/SVG/1.1/DTD/svg11.dtd"><svg xmlns="http://www.w3.org/2000/svg" version="1.1" width="683px" height="77.8px" viewBox="0 -1 683 77.8" style="top:-1px">  <desc>*Injection site reactions include erythema, bruising, and pruritus.1 † In the Phase 3 pivotal study, 1 (3%) ANDEMBRY®...</desc>  <defs/>  <g id="Polygon201062">    <path d="M 0.1 70 L 2.1 62.8 L 4.1 62.8 L 6 70 L 4.4 70 L 4 68.4 L 2 68.4 L 1.6 70 L 0.1 70 Z M 3 64.2 L 3 64.2 L 2.3 67.3 L 3.7 67.3 L 3 64.2 Z M 9.3 67.5 C 9.3 66.4 9.3 65.7 8.6 65.7 C 8.1 65.7 8.1 66.4 8.1 67.5 C 8.1 68.7 8.2 69.3 8.6 69.3 C 9.2 69.3 9.3 68.7 9.3 67.5 Z M 6.7 62.8 L 8.1 62.8 L 8.1 65.5 C 8.1 65.5 8.1 65.46 8.1 65.5 C 8.4 65 8.7 64.9 9.3 64.9 C 10.7 64.9 10.6 66.4 10.6 67.5 C 10.6 68.5 10.7 70.1 9.2 70.1 C 8.7 70.1 8.3 70 8 69.5 C 8.03 69.47 8 69.5 8 69.5 L 8 70 L 6.7 70 L 6.7 62.8 Z M 14.3 67.5 C 14.3 66.4 14.3 65.7 13.6 65.7 C 13.1 65.7 13.1 66.4 13.1 67.5 C 13.1 68.7 13.2 69.3 13.6 69.3 C 14.2 69.3 14.3 68.7 14.3 67.5 Z M 11.7 62.8 L 13.1 62.8 L 13.1 65.5 C 13.1 65.5 13.1 65.46 13.1 65.5 C 13.4 65 13.7 64.9 14.3 64.9 C 15.7 64.9 15.6 66.4 15.6 67.5 C 15.6 68.5 15.7 70.1 14.2 70.1 C 13.7 70.1 13.3 70 13 69.5 C 13.03 69.47 13 69.5 13 69.5 L 13 70 L 11.7 70 L 11.7 62.8 Z M 18 65 L 18 65.6 C 18 65.6 18.03 65.63 18 65.6 C 18.3 65 18.8 64.9 19.3 64.9 C 19.3 64.9 19.3 66.1 19.3 66.1 C 18.1 66.1 18.1 66.8 18.1 67.3 C 18.08 67.28 18.1 70 18.1 70 L 16.7 70 L 16.7 65 L 18 65 Z M 22.6 66.9 C 22.6 66.4 22.6 65.7 21.9 65.7 C 21.3 65.7 21.3 66.5 21.3 66.9 C 21.3 66.9 22.6 66.9 22.6 66.9 Z M 21.3 67.7 C 21.3 68.3 21.3 69.2 21.9 69.2 C 22.4 69.2 22.5 68.7 22.5 68.3 C 22.5 68.3 24 68.3 24 68.3 C 23.9 68.9 23.8 69.3 23.4 69.6 C 23.1 69.9 22.6 70.1 21.9 70.1 C 20.1 70.1 19.9 69 19.9 67.4 C 19.9 66.1 20.1 64.9 21.9 64.9 C 23.8 64.9 24 66.1 24 67.7 C 24 67.7 21.3 67.7 21.3 67.7 Z M 24.5 65 L 26 65 L 26.7 68.8 L 26.7 68.8 L 27.4 65 L 28.8 65 L 27.4 70 L 25.9 70 L 24.5 65 Z M 31 70 L 29.6 70 L 29.6 65 L 31 65 L 31 70 Z M 31 62.8 L 31 63.9 L 29.6 63.9 L 29.6 62.8 L 31 62.8 Z M 33.4 68.5 C 33.4 68.8 33.5 69.3 34 69.3 C 34.8 69.3 34.7 68.1 34.7 67.6 C 34 67.6 33.4 67.6 33.4 68.5 Z M 36 69.1 C 36 69.4 36.1 69.7 36.1 70 C 36.12 70.03 34.8 70 34.8 70 L 34.8 69.4 C 34.8 69.4 34.73 69.36 34.7 69.4 C 34.4 69.9 34 70.1 33.4 70.1 C 32.4 70.1 32.1 69.4 32.1 68.5 C 32.1 66.8 33.4 66.8 34.7 66.8 C 34.7 66.8 34.7 66.4 34.7 66.4 C 34.7 66 34.6 65.7 34.1 65.7 C 33.6 65.7 33.6 66 33.6 66.4 C 33.6 66.4 32.2 66.4 32.2 66.4 C 32.2 65.8 32.4 65.4 32.7 65.2 C 33 65 33.5 64.9 34 64.9 C 35.8 64.9 36 65.6 36 66.6 C 36 66.6 36 69.1 36 69.1 Z M 36.7 65 L 37.2 65 L 37.2 64.2 L 38.6 63.5 L 38.6 65 L 39.4 65 L 39.4 65.8 L 38.6 65.8 C 38.6 65.8 38.63 68.55 38.6 68.5 C 38.6 68.9 38.6 69.2 39.1 69.2 C 39.2 69.2 39.3 69.2 39.3 69.2 C 39.3 69.2 39.3 70 39.3 70 C 39.1 70 38.9 70.1 38.6 70.1 C 37.4 70.1 37.2 69.3 37.2 69 C 37.22 68.96 37.2 65.8 37.2 65.8 L 36.7 65.8 L 36.7 65 Z M 41.5 70 L 40.1 70 L 40.1 65 L 41.5 65 L 41.5 70 Z M 41.5 62.8 L 41.5 63.9 L 40.1 63.9 L 40.1 62.8 L 41.5 62.8 Z M 45.4 67.4 C 45.4 66.3 45.3 65.8 44.7 65.8 C 44.1 65.8 44.1 66.3 44.1 67.4 C 44.1 68.9 44.2 69.2 44.7 69.2 C 45.2 69.2 45.4 68.9 45.4 67.4 Z M 42.7 67.4 C 42.7 66.1 42.9 64.9 44.7 64.9 C 46.6 64.9 46.8 66.1 46.8 67.4 C 46.8 69 46.5 70.1 44.7 70.1 C 42.9 70.1 42.7 69 42.7 67.4 Z M 49.2 65.5 C 49.2 65.5 49.21 65.49 49.2 65.5 C 49.3 65.3 49.5 65.1 49.7 65 C 49.9 64.9 50.1 64.9 50.4 64.9 C 51.1 64.9 51.7 65.3 51.7 66 C 51.66 65.98 51.7 70 51.7 70 L 50.3 70 C 50.3 70 50.25 66.55 50.3 66.5 C 50.3 66.1 50.2 65.7 49.7 65.7 C 49.3 65.7 49.2 66.1 49.2 66.5 C 49.19 66.55 49.2 70 49.2 70 L 47.8 70 L 47.8 65 L 49.2 65 L 49.2 65.5 Z M 53.9 68.4 C 53.9 68.6 53.9 68.9 54 69 C 54 69.2 54.2 69.3 54.5 69.3 C 54.8 69.3 55 69.1 55 68.7 C 55 67.7 52.5 67.9 52.5 66.3 C 52.5 65.2 53.6 64.9 54.5 64.9 C 55.5 64.9 56.3 65.3 56.2 66.4 C 56.2 66.4 54.9 66.4 54.9 66.4 C 54.9 66.1 54.8 65.9 54.7 65.8 C 54.6 65.7 54.5 65.7 54.4 65.7 C 54.1 65.7 53.9 65.9 53.9 66.2 C 53.9 67 56.4 67 56.4 68.6 C 56.4 69.5 55.6 70.1 54.5 70.1 C 53.2 70.1 52.4 69.8 52.5 68.4 C 52.5 68.4 53.9 68.4 53.9 68.4 Z M 58.4 65 L 58.4 66.3 L 57.2 66.3 L 57.2 65 L 58.4 65 Z M 58.4 70 L 57.2 70 L 57.2 68.7 L 58.4 68.7 L 58.4 70 Z M 63.5 62.8 L 64.7 62.8 L 67.1 70 L 66 70 L 65.5 68.3 L 62.7 68.3 L 62.2 70 L 61.2 70 L 63.5 62.8 Z M 64.1 63.7 L 64.1 63.7 L 62.9 67.5 L 65.3 67.5 L 64.1 63.7 Z M 69 69.2 C 69 69.2 69.83 69.23 69.8 69.2 C 71.1 69.2 71.6 68.7 71.6 67.1 C 71.6 67.1 71.6 65.6 71.6 65.6 C 71.6 64.1 71.1 63.6 70.2 63.6 C 70.17 63.61 69 63.6 69 63.6 L 69 69.2 Z M 68 62.8 C 68 62.8 70.26 62.81 70.3 62.8 C 71.2 62.8 71.8 63.1 72.2 63.9 C 72.5 64.5 72.5 66 72.5 66.2 C 72.5 67.7 72.4 68.6 72.1 69.1 C 71.7 69.7 71 70 69.7 70 C 69.7 70.03 68 70 68 70 L 68 62.8 Z M 75.8 62.8 L 76.9 62.8 L 79.3 70 L 78.2 70 L 77.7 68.3 L 74.9 68.3 L 74.4 70 L 73.5 70 L 75.8 62.8 Z M 76.3 63.7 L 76.3 63.7 L 75.2 67.5 L 77.5 67.5 L 76.3 63.7 Z M 80.3 69 L 81.3 69 L 80.4 71.3 L 79.8 71.3 L 80.3 69 Z M 85.3 68.5 C 85.3 69 85.6 69.5 86.1 69.5 C 86.6 69.5 87.2 69.1 87.2 67.5 C 86.4 67.5 85.3 67.5 85.3 68.5 Z M 87.2 69.3 C 87.2 69.3 87.17 69.3 87.2 69.3 C 86.9 69.9 86.5 70.1 85.9 70.1 C 84.8 70.1 84.5 69.4 84.5 68.5 C 84.5 66.9 86 66.9 87.2 66.9 C 87.2 66.2 87.2 65.5 86.3 65.5 C 85.8 65.5 85.5 65.9 85.5 66.4 C 85.5 66.4 84.6 66.4 84.6 66.4 C 84.7 65.3 85.3 64.9 86.3 64.9 C 87.6 64.9 88 65.5 88 66.4 C 88 66.4 88 68.8 88 68.8 C 88 69.2 88 69.6 88.1 70 C 88.09 70.03 87.2 70 87.2 70 L 87.2 69.3 Z M 92.3 70 C 92.3 70 92.33 66.53 92.3 66.5 C 92.3 66 92.1 65.5 91.4 65.5 C 90.5 65.5 90.4 66.3 90.4 67 C 90.41 67.04 90.4 70 90.4 70 L 89.6 70 C 89.6 70 89.59 66.03 89.6 66 C 89.6 65.7 89.6 65.3 89.5 65 C 89.54 64.98 90.4 65 90.4 65 L 90.4 65.6 C 90.4 65.6 90.45 65.63 90.4 65.6 C 90.8 65.1 91.1 64.9 91.8 64.9 C 92.9 64.9 93.1 65.5 93.1 66.5 C 93.15 66.53 93.1 70 93.1 70 L 92.3 70 Z M 94.7 65 L 94.7 64 L 95.5 63.6 L 95.5 65 L 96.6 65 L 96.6 65.6 L 95.5 65.6 C 95.5 65.6 95.5 68.69 95.5 68.7 C 95.5 69 95.5 69.4 96.2 69.4 C 96.3 69.4 96.4 69.4 96.6 69.4 C 96.6 69.4 96.6 70 96.6 70 C 96.3 70 96.1 70.1 95.8 70.1 C 95 70.1 94.7 69.8 94.7 69.2 C 94.68 69.19 94.7 65.6 94.7 65.6 L 93.8 65.6 L 93.8 65 L 94.7 65 Z M 98.2 70 L 97.3 70 L 97.3 65 L 98.2 65 L 98.2 70 Z M 97.3 62.8 L 98.2 62.8 L 98.2 63.7 L 97.3 63.7 L 97.3 62.8 Z M 99.4 66.9 L 101.6 66.9 L 101.6 67.7 L 99.4 67.7 L 99.4 66.9 Z M 104.6 65.5 C 103.8 65.5 103.6 66.2 103.6 67.6 C 103.6 68.4 103.6 69.5 104.7 69.5 C 105.6 69.5 105.6 68.3 105.6 67.3 C 105.6 66.6 105.5 65.5 104.6 65.5 Z M 105.6 62.8 L 106.4 62.8 L 106.4 70 L 105.6 70 L 105.6 69.4 C 105.6 69.4 105.57 69.43 105.6 69.4 C 105.3 69.9 104.9 70.1 104.4 70.1 C 103.6 70.1 102.8 69.8 102.8 67.6 C 102.8 66.3 102.8 64.9 104.4 64.9 C 104.9 64.9 105.3 65.1 105.6 65.5 C 105.56 65.49 105.6 65.5 105.6 65.5 L 105.6 62.8 Z M 108.8 65.7 C 108.8 65.7 108.79 65.74 108.8 65.7 C 109.1 65 109.5 64.9 110.3 64.9 C 110.3 64.9 110.3 65.7 110.3 65.7 C 110.3 65.7 110.2 65.7 110.1 65.7 C 110.1 65.7 110 65.7 109.9 65.7 C 109 65.7 108.8 66.4 108.8 67 C 108.77 67.05 108.8 70 108.8 70 L 107.9 70 L 107.9 65 L 108.8 65 L 108.8 65.7 Z M 113.9 65 L 114.8 65 C 114.8 65 114.77 68.98 114.8 69 C 114.8 69.3 114.8 69.7 114.8 70 C 114.82 70.03 113.9 70 113.9 70 L 113.9 69.4 C 113.9 69.4 113.92 69.42 113.9 69.4 C 113.6 69.9 113.2 70.1 112.6 70.1 C 111.8 70.1 111.3 69.7 111.3 68.8 C 111.28 68.83 111.3 65 111.3 65 L 112.1 65 C 112.1 65 112.1 68.48 112.1 68.5 C 112.1 69.1 112.4 69.5 113 69.5 C 113.4 69.5 113.9 69.2 113.9 68.3 C 113.95 68.33 113.9 65 113.9 65 Z M 118 65.6 C 117 65.6 117 66.7 117 67.3 C 117 69 117.4 69.3 118 69.3 C 119 69.3 118.9 68.2 118.9 67.5 C 118.9 66.7 119 65.6 118 65.6 Z M 118.9 65 L 119.7 65 C 119.7 65 119.74 70.54 119.7 70.5 C 119.7 71.7 119 71.9 117.9 71.9 C 117 71.9 116.3 71.5 116.3 70.6 C 116.3 70.6 117.3 70.6 117.3 70.6 C 117.3 71.1 117.6 71.3 118 71.3 C 118.6 71.3 118.9 71 118.9 70.4 C 118.92 70.45 118.9 69.4 118.9 69.4 C 118.9 69.4 118.89 69.4 118.9 69.4 C 118.7 69.8 118.2 70 117.8 70 C 116.4 70 116.1 68.8 116.1 67.3 C 116.1 65 117.3 64.9 117.7 64.9 C 118.2 64.9 118.7 65.1 118.9 65.6 C 118.9 65.6 118.9 65.6 118.9 65.6 L 118.9 65 Z M 124.2 68.5 C 124.2 69 124.5 69.5 125 69.5 C 125.5 69.5 126.1 69.1 126 67.5 C 125.3 67.5 124.2 67.5 124.2 68.5 Z M 126.1 69.3 C 126.1 69.3 126.05 69.3 126 69.3 C 125.8 69.9 125.4 70.1 124.8 70.1 C 123.7 70.1 123.4 69.4 123.4 68.5 C 123.4 66.9 124.9 66.9 126 66.9 C 126.1 66.2 126.1 65.5 125.2 65.5 C 124.6 65.5 124.4 65.9 124.4 66.4 C 124.4 66.4 123.5 66.4 123.5 66.4 C 123.6 65.3 124.2 64.9 125.2 64.9 C 126.5 64.9 126.9 65.5 126.9 66.4 C 126.9 66.4 126.9 68.8 126.9 68.8 C 126.9 69.2 126.9 69.6 127 70 C 126.97 70.03 126.1 70 126.1 70 L 126.1 69.3 Z M 131.2 70 C 131.2 70 131.21 66.53 131.2 66.5 C 131.2 66 131 65.5 130.3 65.5 C 129.4 65.5 129.3 66.3 129.3 67 C 129.29 67.04 129.3 70 129.3 70 L 128.5 70 C 128.5 70 128.47 66.03 128.5 66 C 128.5 65.7 128.4 65.3 128.4 65 C 128.42 64.98 129.3 65 129.3 65 L 129.3 65.6 C 129.3 65.6 129.33 65.63 129.3 65.6 C 129.6 65.1 130 64.9 130.7 64.9 C 131.8 64.9 132 65.5 132 66.5 C 132.03 66.53 132 70 132 70 L 131.2 70 Z M 133.6 65 L 133.6 64 L 134.4 63.6 L 134.4 65 L 135.5 65 L 135.5 65.6 L 134.4 65.6 C 134.4 65.6 134.38 68.69 134.4 68.7 C 134.4 69 134.4 69.4 135.1 69.4 C 135.2 69.4 135.3 69.4 135.5 69.4 C 135.5 69.4 135.5 70 135.5 70 C 135.2 70 135 70.1 134.7 70.1 C 133.9 70.1 133.6 69.8 133.6 69.2 C 133.56 69.19 133.6 65.6 133.6 65.6 L 132.7 65.6 L 132.7 65 L 133.6 65 Z M 137 70 L 136.2 70 L 136.2 65 L 137 65 L 137 70 Z M 136.2 62.8 L 137.1 62.8 L 137.1 63.7 L 136.2 63.7 L 136.2 62.8 Z M 140.3 69.5 C 141.3 69.5 141.3 68.4 141.3 67.6 C 141.3 66.2 141.2 65.5 140.3 65.5 C 139.4 65.5 139.4 66.6 139.4 67.3 C 139.4 68.1 139.3 69.5 140.3 69.5 Z M 139.4 70 L 138.5 70 L 138.5 62.8 L 139.4 62.8 L 139.4 65.5 C 139.4 65.5 139.39 65.49 139.4 65.5 C 139.7 65.1 140 64.9 140.5 64.9 C 142.1 64.9 142.2 66.3 142.2 67.6 C 142.2 69.8 141.3 70.1 140.5 70.1 C 140 70.1 139.7 69.9 139.4 69.4 C 139.38 69.43 139.4 69.4 139.4 69.4 L 139.4 70 Z M 146.3 67.2 C 146.3 65.8 145.9 65.5 145.2 65.5 C 144.6 65.5 144.2 65.8 144.2 67.2 C 144.2 68.9 144.4 69.5 145.2 69.5 C 146.1 69.5 146.3 68.9 146.3 67.2 Z M 143.3 67.6 C 143.3 66.1 143.5 64.9 145.2 64.9 C 147 64.9 147.2 66.1 147.2 67.6 C 147.2 69.8 146.3 70.1 145.2 70.1 C 144.2 70.1 143.3 69.8 143.3 67.6 Z M 150.2 65.5 C 149.3 65.5 149.2 66.2 149.2 67.6 C 149.2 68.4 149.2 69.5 150.2 69.5 C 151.1 69.5 151.1 68.3 151.1 67.3 C 151.1 66.6 151.1 65.5 150.2 65.5 Z M 151.1 62.8 L 152 62.8 L 152 70 L 151.1 70 L 151.1 69.4 C 151.1 69.4 151.12 69.43 151.1 69.4 C 150.8 69.9 150.5 70.1 150 70.1 C 149.1 70.1 148.3 69.8 148.3 67.6 C 148.3 66.3 148.4 64.9 150 64.9 C 150.5 64.9 150.8 65.1 151.1 65.5 C 151.11 65.49 151.1 65.5 151.1 65.5 L 151.1 62.8 Z M 154.3 70 L 153.4 70 L 153.4 65 L 154.3 65 L 154.3 70 Z M 153.4 62.8 L 154.3 62.8 L 154.3 63.7 L 153.4 63.7 L 153.4 62.8 Z M 158.5 67.1 C 158.5 65.7 158 65.5 157.4 65.5 C 156.9 65.5 156.5 65.7 156.5 67.1 C 156.5 67.1 158.5 67.1 158.5 67.1 Z M 156.5 67.8 C 156.5 69.2 156.9 69.5 157.5 69.5 C 158.1 69.5 158.4 69 158.4 68.5 C 158.4 68.5 159.3 68.5 159.3 68.5 C 159.3 69.6 158.6 70.1 157.5 70.1 C 156.5 70.1 155.6 69.8 155.6 67.6 C 155.6 66.1 155.8 64.9 157.5 64.9 C 159 64.9 159.3 65.7 159.3 67.3 C 159.33 67.34 159.3 67.8 159.3 67.8 C 159.3 67.8 156.49 67.77 156.5 67.8 Z M 162.2 70.1 C 161.1 70.1 160.4 69.6 160.4 68.5 C 160.4 68.5 161.4 68.5 161.4 68.5 C 161.4 68.8 161.4 69.5 162.2 69.5 C 162.7 69.5 163.1 69.2 163.1 68.7 C 163.1 67.8 160.6 67.8 160.6 66.3 C 160.6 65.7 160.9 64.9 162.3 64.9 C 163.2 64.9 164 65.3 163.9 66.3 C 163.9 66.3 163 66.3 163 66.3 C 163 65.8 162.7 65.5 162.2 65.5 C 161.8 65.5 161.4 65.7 161.4 66.2 C 161.4 67.1 163.9 67 163.9 68.6 C 163.9 69.7 163.2 70.1 162.2 70.1 Z M 165.3 69 L 166.3 69 L 165.4 71.3 L 164.7 71.3 L 165.3 69 Z M 166 66 L 165 66 L 165 65 L 166 65 L 166 66 Z M 171.3 62.8 L 172.5 62.8 L 174.8 70 L 173.8 70 L 173.3 68.3 L 170.5 68.3 L 169.9 70 L 169 70 L 171.3 62.8 Z M 171.8 63.7 L 171.8 63.7 L 170.7 67.5 L 173 67.5 L 171.8 63.7 Z M 175.8 70 L 175.8 62.8 L 179.5 62.8 L 179.5 63.6 L 176.7 63.6 L 176.7 65.9 L 179.3 65.9 L 179.3 66.7 L 176.7 66.7 L 176.7 69.2 L 179.5 69.2 L 179.5 70 L 175.8 70 Z M 180.8 69 L 181.8 69 L 180.9 71.3 L 180.3 71.3 L 180.8 69 Z M 185.9 68.5 C 185.9 69 186.1 69.5 186.7 69.5 C 187.2 69.5 187.8 69.1 187.7 67.5 C 186.9 67.5 185.9 67.5 185.9 68.5 Z M 187.7 69.3 C 187.7 69.3 187.7 69.3 187.7 69.3 C 187.4 69.9 187.1 70.1 186.4 70.1 C 185.4 70.1 185 69.4 185 68.5 C 185 66.9 186.5 66.9 187.7 66.9 C 187.7 66.2 187.7 65.5 186.8 65.5 C 186.3 65.5 186 65.9 186.1 66.4 C 186.1 66.4 185.2 66.4 185.2 66.4 C 185.2 65.3 185.8 64.9 186.9 64.9 C 188.2 64.9 188.5 65.5 188.5 66.4 C 188.5 66.4 188.5 68.8 188.5 68.8 C 188.5 69.2 188.6 69.6 188.6 70 C 188.62 70.03 187.7 70 187.7 70 L 187.7 69.3 Z M 191.8 65.5 C 191 65.5 190.8 66.2 190.8 67.6 C 190.8 68.4 190.8 69.5 191.9 69.5 C 192.8 69.5 192.8 68.3 192.8 67.3 C 192.8 66.6 192.7 65.5 191.8 65.5 Z M 192.8 62.8 L 193.6 62.8 L 193.6 70 L 192.8 70 L 192.8 69.4 C 192.8 69.4 192.77 69.43 192.8 69.4 C 192.5 69.9 192.1 70.1 191.6 70.1 C 190.8 70.1 190 69.8 190 67.6 C 190 66.3 190 64.9 191.6 64.9 C 192.1 64.9 192.5 65.1 192.8 65.5 C 192.76 65.49 192.8 65.5 192.8 65.5 L 192.8 62.8 Z M 194.5 65 L 195.5 65 L 196.6 69.3 L 196.6 69.3 L 197.8 65 L 198.7 65 L 197.1 70 L 196 70 L 194.5 65 Z M 202.3 67.1 C 202.3 65.7 201.9 65.5 201.3 65.5 C 200.8 65.5 200.4 65.7 200.4 67.1 C 200.4 67.1 202.3 67.1 202.3 67.1 Z M 200.4 67.8 C 200.4 69.2 200.7 69.5 201.4 69.5 C 201.9 69.5 202.2 69 202.3 68.5 C 202.3 68.5 203.2 68.5 203.2 68.5 C 203.1 69.6 202.5 70.1 201.4 70.1 C 200.3 70.1 199.5 69.8 199.5 67.6 C 199.5 66.1 199.6 64.9 201.4 64.9 C 202.8 64.9 203.2 65.7 203.2 67.3 C 203.2 67.34 203.2 67.8 203.2 67.8 C 203.2 67.8 200.36 67.77 200.4 67.8 Z M 205.4 65.7 C 205.4 65.7 205.43 65.74 205.4 65.7 C 205.8 65 206.2 64.9 207 64.9 C 207 64.9 207 65.7 207 65.7 C 206.9 65.7 206.8 65.7 206.8 65.7 C 206.7 65.7 206.6 65.7 206.5 65.7 C 205.6 65.7 205.4 66.4 205.4 67 C 205.41 67.05 205.4 70 205.4 70 L 204.6 70 L 204.6 65 L 205.4 65 L 205.4 65.7 Z M 209.4 70.1 C 208.3 70.1 207.6 69.6 207.6 68.5 C 207.6 68.5 208.6 68.5 208.6 68.5 C 208.6 68.8 208.6 69.5 209.4 69.5 C 209.9 69.5 210.3 69.2 210.3 68.7 C 210.3 67.8 207.8 67.8 207.8 66.3 C 207.8 65.7 208.1 64.9 209.5 64.9 C 210.4 64.9 211.2 65.3 211.1 66.3 C 211.1 66.3 210.2 66.3 210.2 66.3 C 210.2 65.8 209.9 65.5 209.4 65.5 C 209 65.5 208.6 65.7 208.6 66.2 C 208.6 67.1 211.1 67 211.1 68.6 C 211.1 69.7 210.4 70.1 209.4 70.1 Z M 215.1 67.1 C 215.1 65.7 214.7 65.5 214.1 65.5 C 213.6 65.5 213.1 65.7 213.1 67.1 C 213.1 67.1 215.1 67.1 215.1 67.1 Z M 213.1 67.8 C 213.1 69.2 213.5 69.5 214.1 69.5 C 214.7 69.5 215 69 215 68.5 C 215 68.5 215.9 68.5 215.9 68.5 C 215.9 69.6 215.2 70.1 214.2 70.1 C 213.1 70.1 212.2 69.8 212.2 67.6 C 212.2 66.1 212.4 64.9 214.2 64.9 C 215.6 64.9 216 65.7 216 67.3 C 215.97 67.34 216 67.8 216 67.8 C 216 67.8 213.13 67.77 213.1 67.8 Z M 222.3 67.1 C 222.3 65.7 221.9 65.5 221.3 65.5 C 220.8 65.5 220.4 65.7 220.3 67.1 C 220.3 67.1 222.3 67.1 222.3 67.1 Z M 220.3 67.8 C 220.3 69.2 220.7 69.5 221.4 69.5 C 221.9 69.5 222.2 69 222.2 68.5 C 222.2 68.5 223.1 68.5 223.1 68.5 C 223.1 69.6 222.4 70.1 221.4 70.1 C 220.3 70.1 219.5 69.8 219.5 67.6 C 219.5 66.1 219.6 64.9 221.4 64.9 C 222.8 64.9 223.2 65.7 223.2 67.3 C 223.19 67.34 223.2 67.8 223.2 67.8 C 223.2 67.8 220.35 67.77 220.3 67.8 Z M 224 65 L 224.9 65 L 226 69.3 L 226 69.3 L 227.3 65 L 228.1 65 L 226.5 70 L 225.5 70 L 224 65 Z M 231.8 67.1 C 231.8 65.7 231.3 65.5 230.7 65.5 C 230.2 65.5 229.8 65.7 229.8 67.1 C 229.8 67.1 231.8 67.1 231.8 67.1 Z M 229.8 67.8 C 229.8 69.2 230.2 69.5 230.8 69.5 C 231.4 69.5 231.7 69 231.7 68.5 C 231.7 68.5 232.6 68.5 232.6 68.5 C 232.6 69.6 231.9 70.1 230.8 70.1 C 229.8 70.1 228.9 69.8 228.9 67.6 C 228.9 66.1 229.1 64.9 230.8 64.9 C 232.3 64.9 232.6 65.7 232.6 67.3 C 232.63 67.34 232.6 67.8 232.6 67.8 C 232.6 67.8 229.79 67.77 229.8 67.8 Z M 236.7 70 C 236.7 70 236.73 66.53 236.7 66.5 C 236.7 66 236.5 65.5 235.8 65.5 C 234.9 65.5 234.8 66.3 234.8 67 C 234.81 67.04 234.8 70 234.8 70 L 234 70 C 234 70 233.99 66.03 234 66 C 234 65.7 234 65.3 233.9 65 C 233.94 64.98 234.8 65 234.8 65 L 234.8 65.6 C 234.8 65.6 234.85 65.63 234.8 65.6 C 235.2 65.1 235.5 64.9 236.2 64.9 C 237.3 64.9 237.5 65.5 237.5 66.5 C 237.55 66.53 237.5 70 237.5 70 L 236.7 70 Z M 239.1 65 L 239.1 64 L 239.9 63.6 L 239.9 65 L 241 65 L 241 65.6 L 239.9 65.6 C 239.9 65.6 239.9 68.69 239.9 68.7 C 239.9 69 239.9 69.4 240.6 69.4 C 240.7 69.4 240.8 69.4 241 69.4 C 241 69.4 241 70 241 70 C 240.7 70 240.5 70.1 240.2 70.1 C 239.4 70.1 239.1 69.8 239.1 69.2 C 239.08 69.19 239.1 65.6 239.1 65.6 L 238.2 65.6 L 238.2 65 L 239.1 65 Z M 241.9 69 L 242.9 69 L 242 71.3 L 241.4 71.3 L 241.9 69 Z M 242.6 66 L 241.7 66 L 241.7 65 L 242.6 65 L 242.6 66 Z M 246.3 67.4 C 246.3 67.4 246.3 65 246.3 65 C 246.3 63.6 247 62.7 248.5 62.7 C 250.1 62.7 250.8 63.6 250.8 65 C 250.8 65 250.8 67.4 250.8 67.4 C 250.8 69.4 250.1 70.2 248.5 70.2 C 247 70.2 246.3 69.4 246.3 67.4 Z M 249.9 67.4 C 249.9 67.4 249.9 65 249.9 65 C 249.9 63.5 248.8 63.4 248.5 63.4 C 248.2 63.4 247.2 63.5 247.2 65 C 247.2 65 247.2 67.4 247.2 67.4 C 247.2 69 247.7 69.4 248.5 69.4 C 249.4 69.4 249.9 69 249.9 67.4 Z M 252.4 70 L 252.4 62.8 L 253.3 62.8 L 253.3 69.2 L 256 69.2 L 256 70 L 252.4 70 Z M 256.8 70 L 256.8 62.8 L 260.6 62.8 L 260.6 63.6 L 257.8 63.6 L 257.8 65.9 L 260.4 65.9 L 260.4 66.7 L 257.8 66.7 L 257.8 69.2 L 260.6 69.2 L 260.6 70 L 256.8 70 Z M 261.9 69 L 262.9 69 L 262 71.3 L 261.4 71.3 L 261.9 69 Z M 269 67.2 C 269 65.8 268.6 65.5 268 65.5 C 267.3 65.5 266.9 65.8 266.9 67.2 C 266.9 68.9 267.1 69.5 268 69.5 C 268.8 69.5 269 68.9 269 67.2 Z M 266.1 67.6 C 266.1 66.1 266.2 64.9 268 64.9 C 269.7 64.9 269.9 66.1 269.9 67.6 C 269.9 69.8 269 70.1 268 70.1 C 266.9 70.1 266.1 69.8 266.1 67.6 Z M 274 67.4 C 274 66.7 274 65.5 273 65.5 C 272 65.5 272.1 66.9 272.1 67.7 C 272.1 68.4 272.1 69.5 273 69.5 C 273.9 69.5 274 68.8 274 67.4 Z M 272.1 65.6 C 272.1 65.6 272.11 65.58 272.1 65.6 C 272.4 65.1 272.7 64.9 273.3 64.9 C 274.1 64.9 274.9 65.2 274.9 67.4 C 274.9 68.7 274.9 70.1 273.2 70.1 C 272.7 70.1 272.4 69.9 272.1 69.5 C 272.12 69.52 272.1 69.5 272.1 69.5 L 272.1 71.9 L 271.3 71.9 L 271.3 65 L 272.1 65 L 272.1 65.6 Z M 279 67.1 C 279 65.7 278.6 65.5 278 65.5 C 277.4 65.5 277 65.7 277 67.1 C 277 67.1 279 67.1 279 67.1 Z M 277 67.8 C 277 69.2 277.4 69.5 278 69.5 C 278.6 69.5 278.9 69 278.9 68.5 C 278.9 68.5 279.8 68.5 279.8 68.5 C 279.8 69.6 279.1 70.1 278 70.1 C 277 70.1 276.1 69.8 276.1 67.6 C 276.1 66.1 276.3 64.9 278 64.9 C 279.5 64.9 279.8 65.7 279.8 67.3 C 279.83 67.34 279.8 67.8 279.8 67.8 C 279.8 67.8 276.99 67.77 277 67.8 Z M 283.9 70 C 283.9 70 283.94 66.53 283.9 66.5 C 283.9 66 283.7 65.5 283 65.5 C 282.1 65.5 282 66.3 282 67 C 282.01 67.04 282 70 282 70 L 281.2 70 C 281.2 70 281.2 66.03 281.2 66 C 281.2 65.7 281.2 65.3 281.1 65 C 281.15 64.98 282 65 282 65 L 282 65.6 C 282 65.6 282.06 65.63 282.1 65.6 C 282.4 65.1 282.8 64.9 283.4 64.9 C 284.5 64.9 284.8 65.5 284.8 66.5 C 284.75 66.53 284.8 70 284.8 70 L 283.9 70 Z M 289.2 70 L 288.4 70 L 288.4 62.8 L 289.2 62.8 L 289.2 70 Z M 291.4 68.5 C 291.4 69 291.6 69.5 292.2 69.5 C 292.7 69.5 293.3 69.1 293.2 67.5 C 292.4 67.5 291.4 67.5 291.4 68.5 Z M 293.2 69.3 C 293.2 69.3 293.22 69.3 293.2 69.3 C 293 69.9 292.6 70.1 291.9 70.1 C 290.9 70.1 290.6 69.4 290.6 68.5 C 290.6 66.9 292.1 66.9 293.2 66.9 C 293.2 66.2 293.2 65.5 292.4 65.5 C 291.8 65.5 291.5 65.9 291.6 66.4 C 291.6 66.4 290.7 66.4 290.7 66.4 C 290.7 65.3 291.3 64.9 292.4 64.9 C 293.7 64.9 294 65.5 294 66.4 C 294 66.4 294 68.8 294 68.8 C 294 69.2 294.1 69.6 294.1 70 C 294.13 70.03 293.2 70 293.2 70 L 293.2 69.3 Z M 297.4 69.5 C 298.5 69.5 298.5 68.4 298.5 67.6 C 298.5 66.2 298.4 65.5 297.5 65.5 C 296.6 65.5 296.5 66.6 296.5 67.3 C 296.5 68.1 296.4 69.5 297.4 69.5 Z M 296.5 70 L 295.7 70 L 295.7 62.8 L 296.5 62.8 L 296.5 65.5 C 296.5 65.5 296.55 65.49 296.6 65.5 C 296.8 65.1 297.2 64.9 297.7 64.9 C 299.3 64.9 299.3 66.3 299.3 67.6 C 299.3 69.8 298.5 70.1 297.7 70.1 C 297.2 70.1 296.8 69.9 296.5 69.4 C 296.54 69.43 296.5 69.4 296.5 69.4 L 296.5 70 Z M 303.4 67.1 C 303.4 65.7 303 65.5 302.4 65.5 C 301.9 65.5 301.4 65.7 301.4 67.1 C 301.4 67.1 303.4 67.1 303.4 67.1 Z M 301.4 67.8 C 301.4 69.2 301.8 69.5 302.5 69.5 C 303 69.5 303.3 69 303.3 68.5 C 303.3 68.5 304.2 68.5 304.2 68.5 C 304.2 69.6 303.5 70.1 302.5 70.1 C 301.4 70.1 300.6 69.8 300.6 67.6 C 300.6 66.1 300.7 64.9 302.5 64.9 C 303.9 64.9 304.3 65.7 304.3 67.3 C 304.27 67.34 304.3 67.8 304.3 67.8 C 304.3 67.8 301.43 67.77 301.4 67.8 Z M 306.4 70 L 305.6 70 L 305.6 62.8 L 306.4 62.8 L 306.4 70 Z M 312.8 67.1 C 312.8 65.7 312.4 65.5 311.8 65.5 C 311.3 65.5 310.9 65.7 310.9 67.1 C 310.9 67.1 312.8 67.1 312.8 67.1 Z M 310.9 67.8 C 310.9 69.2 311.3 69.5 311.9 69.5 C 312.5 69.5 312.7 69 312.8 68.5 C 312.8 68.5 313.7 68.5 313.7 68.5 C 313.7 69.6 313 70.1 311.9 70.1 C 310.8 70.1 310 69.8 310 67.6 C 310 66.1 310.2 64.9 311.9 64.9 C 313.4 64.9 313.7 65.7 313.7 67.3 C 313.71 67.34 313.7 67.8 313.7 67.8 C 313.7 67.8 310.87 67.77 310.9 67.8 Z M 318.7 70 L 317.6 70 L 316.5 68 L 315.4 70 L 314.4 70 L 316 67.4 L 314.5 65 L 315.6 65 L 316.6 66.8 L 317.6 65 L 318.6 65 L 317.1 67.4 L 318.7 70 Z M 319.6 65 L 319.6 64 L 320.4 63.6 L 320.4 65 L 321.5 65 L 321.5 65.6 L 320.4 65.6 C 320.4 65.6 320.42 68.69 320.4 68.7 C 320.4 69 320.4 69.4 321.2 69.4 C 321.2 69.4 321.4 69.4 321.5 69.4 C 321.5 69.4 321.5 70 321.5 70 C 321.3 70 321 70.1 320.7 70.1 C 320 70.1 319.6 69.8 319.6 69.2 C 319.61 69.19 319.6 65.6 319.6 65.6 L 318.8 65.6 L 318.8 65 L 319.6 65 Z M 325.1 67.1 C 325.1 65.7 324.7 65.5 324.1 65.5 C 323.5 65.5 323.1 65.7 323.1 67.1 C 323.1 67.1 325.1 67.1 325.1 67.1 Z M 323.1 67.8 C 323.1 69.2 323.5 69.5 324.1 69.5 C 324.7 69.5 325 69 325 68.5 C 325 68.5 325.9 68.5 325.9 68.5 C 325.9 69.6 325.2 70.1 324.1 70.1 C 323.1 70.1 322.2 69.8 322.2 67.6 C 322.2 66.1 322.4 64.9 324.1 64.9 C 325.6 64.9 325.9 65.7 325.9 67.3 C 325.93 67.34 325.9 67.8 325.9 67.8 C 325.9 67.8 323.09 67.77 323.1 67.8 Z M 330 70 C 330 70 330.04 66.53 330 66.5 C 330 66 329.8 65.5 329.1 65.5 C 328.2 65.5 328.1 66.3 328.1 67 C 328.11 67.04 328.1 70 328.1 70 L 327.3 70 C 327.3 70 327.3 66.03 327.3 66 C 327.3 65.7 327.3 65.3 327.2 65 C 327.25 64.98 328.1 65 328.1 65 L 328.1 65.6 C 328.1 65.6 328.15 65.63 328.2 65.6 C 328.5 65.1 328.9 64.9 329.5 64.9 C 330.6 64.9 330.9 65.5 330.9 66.5 C 330.85 66.53 330.9 70 330.9 70 L 330 70 Z M 333.8 70.1 C 332.7 70.1 332 69.6 332 68.5 C 332 68.5 333 68.5 333 68.5 C 333 68.8 333 69.5 333.8 69.5 C 334.3 69.5 334.7 69.2 334.7 68.7 C 334.7 67.8 332.2 67.8 332.2 66.3 C 332.2 65.7 332.5 64.9 333.9 64.9 C 334.8 64.9 335.6 65.3 335.5 66.3 C 335.5 66.3 334.6 66.3 334.6 66.3 C 334.6 65.8 334.3 65.5 333.8 65.5 C 333.4 65.5 333 65.7 333 66.2 C 333 67.1 335.5 67 335.5 68.6 C 335.5 69.7 334.8 70.1 333.8 70.1 Z M 337.5 70 L 336.7 70 L 336.7 65 L 337.5 65 L 337.5 70 Z M 336.7 62.8 L 337.6 62.8 L 337.6 63.7 L 336.7 63.7 L 336.7 62.8 Z M 341.8 67.2 C 341.8 65.8 341.4 65.5 340.7 65.5 C 340.1 65.5 339.7 65.8 339.7 67.2 C 339.7 68.9 339.9 69.5 340.7 69.5 C 341.6 69.5 341.8 68.9 341.8 67.2 Z M 338.8 67.6 C 338.8 66.1 339 64.9 340.7 64.9 C 342.5 64.9 342.7 66.1 342.7 67.6 C 342.7 69.8 341.8 70.1 340.7 70.1 C 339.7 70.1 338.8 69.8 338.8 67.6 Z M 346.7 70 C 346.7 70 346.7 66.53 346.7 66.5 C 346.7 66 346.5 65.5 345.8 65.5 C 344.9 65.5 344.8 66.3 344.8 67 C 344.77 67.04 344.8 70 344.8 70 L 344 70 C 344 70 343.96 66.03 344 66 C 344 65.7 343.9 65.3 343.9 65 C 343.91 64.98 344.8 65 344.8 65 L 344.8 65.6 C 344.8 65.6 344.81 65.63 344.8 65.6 C 345.1 65.1 345.5 64.9 346.2 64.9 C 347.2 64.9 347.5 65.5 347.5 66.5 C 347.51 66.53 347.5 70 347.5 70 L 346.7 70 Z M 349.8 70 L 348.9 70 L 348.9 69 L 349.8 69 L 349.8 70 Z " stroke="none" fill="#555555"/>  </g>  <g id="Polygon201061">    <path d="M 1.1 39.8 L 0.2 39.8 L 0.2 39.4 L 1.1 39.4 L 1.1 38.5 L 1.5 38.5 L 1.5 39.4 L 2.4 39.4 L 2.4 39.8 L 1.5 39.8 L 1.5 42.7 L 1.1 42.7 L 1.1 39.8 Z M 5.7 46 L 4.8 46 L 4.8 38.8 L 5.7 38.8 L 5.7 46 Z M 10.1 46 C 10.1 46 10.12 42.53 10.1 42.5 C 10.1 42 9.9 41.5 9.2 41.5 C 8.3 41.5 8.2 42.3 8.2 43 C 8.2 43.04 8.2 46 8.2 46 L 7.4 46 C 7.4 46 7.38 42.03 7.4 42 C 7.4 41.7 7.4 41.3 7.3 41 C 7.33 40.98 8.2 41 8.2 41 L 8.2 41.6 C 8.2 41.6 8.24 41.63 8.2 41.6 C 8.6 41.1 8.9 40.9 9.6 40.9 C 10.7 40.9 10.9 41.5 10.9 42.5 C 10.94 42.53 10.9 46 10.9 46 L 10.1 46 Z M 14.7 41 L 14.7 40 L 15.5 39.6 L 15.5 41 L 16.6 41 L 16.6 41.6 L 15.5 41.6 C 15.5 41.6 15.51 44.69 15.5 44.7 C 15.5 45 15.5 45.4 16.3 45.4 C 16.3 45.4 16.5 45.4 16.6 45.4 C 16.6 45.4 16.6 46 16.6 46 C 16.4 46 16.1 46.1 15.8 46.1 C 15 46.1 14.7 45.8 14.7 45.2 C 14.69 45.19 14.7 41.6 14.7 41.6 L 13.9 41.6 L 13.9 41 L 14.7 41 Z M 20.1 46 C 20.1 46 20.12 42.61 20.1 42.6 C 20.1 42 19.9 41.5 19.2 41.5 C 18.4 41.5 18.2 42.2 18.2 43.1 C 18.19 43.06 18.2 46 18.2 46 L 17.4 46 L 17.4 38.8 L 18.2 38.8 L 18.2 41.6 C 18.2 41.6 18.23 41.63 18.2 41.6 C 18.6 41 18.9 40.9 19.6 40.9 C 20.5 40.9 20.9 41.3 20.9 42.4 C 20.94 42.45 20.9 46 20.9 46 L 20.1 46 Z M 25.2 43.1 C 25.2 41.7 24.7 41.5 24.1 41.5 C 23.6 41.5 23.2 41.7 23.2 43.1 C 23.2 43.1 25.2 43.1 25.2 43.1 Z M 23.2 43.8 C 23.2 45.2 23.6 45.5 24.2 45.5 C 24.8 45.5 25.1 45 25.1 44.5 C 25.1 44.5 26 44.5 26 44.5 C 26 45.6 25.3 46.1 24.2 46.1 C 23.2 46.1 22.3 45.8 22.3 43.6 C 22.3 42.1 22.5 40.9 24.2 40.9 C 25.7 40.9 26 41.7 26 43.3 C 26.02 43.34 26 43.8 26 43.8 C 26 43.8 23.18 43.77 23.2 43.8 Z M 30.7 42 C 30.7 42 31.74 42.05 31.7 42 C 32.1 42 33 41.9 33 40.8 C 33 39.7 32.2 39.6 32 39.6 C 32 39.61 30.7 39.6 30.7 39.6 L 30.7 42 Z M 29.8 46 L 29.8 38.8 C 29.8 38.8 31.95 38.81 32 38.8 C 32.9 38.8 34 39.2 34 40.9 C 34 42.5 32.7 42.8 31.9 42.8 C 31.94 42.85 30.7 42.8 30.7 42.8 L 30.7 46 L 29.8 46 Z M 37.9 46 C 37.9 46 37.9 42.61 37.9 42.6 C 37.9 42 37.7 41.5 37 41.5 C 36.2 41.5 36 42.2 36 43.1 C 35.97 43.06 36 46 36 46 L 35.2 46 L 35.2 38.8 L 36 38.8 L 36 41.6 C 36 41.6 36.01 41.63 36 41.6 C 36.3 41 36.7 40.9 37.4 40.9 C 38.2 40.9 38.7 41.3 38.7 42.4 C 38.72 42.45 38.7 46 38.7 46 L 37.9 46 Z M 40.9 44.5 C 40.9 45 41.2 45.5 41.7 45.5 C 42.2 45.5 42.8 45.1 42.7 43.5 C 42 43.5 40.9 43.5 40.9 44.5 Z M 42.8 45.3 C 42.8 45.3 42.74 45.3 42.7 45.3 C 42.5 45.9 42.1 46.1 41.5 46.1 C 40.4 46.1 40.1 45.4 40.1 44.5 C 40.1 42.9 41.6 42.9 42.7 42.9 C 42.8 42.2 42.8 41.5 41.9 41.5 C 41.3 41.5 41.1 41.9 41.1 42.4 C 41.1 42.4 40.2 42.4 40.2 42.4 C 40.3 41.3 40.9 40.9 41.9 40.9 C 43.2 40.9 43.6 41.5 43.6 42.4 C 43.6 42.4 43.6 44.8 43.6 44.8 C 43.6 45.2 43.6 45.6 43.7 46 C 43.66 46.03 42.8 46 42.8 46 L 42.8 45.3 Z M 46.7 46.1 C 45.6 46.1 44.9 45.6 44.9 44.5 C 44.9 44.5 45.8 44.5 45.8 44.5 C 45.8 44.8 45.9 45.5 46.7 45.5 C 47.2 45.5 47.6 45.2 47.6 44.7 C 47.6 43.8 45 43.8 45 42.3 C 45 41.7 45.4 40.9 46.8 40.9 C 47.7 40.9 48.4 41.3 48.4 42.3 C 48.4 42.3 47.5 42.3 47.5 42.3 C 47.5 41.8 47.2 41.5 46.7 41.5 C 46.2 41.5 45.9 41.7 45.9 42.2 C 45.9 43.1 48.4 43 48.4 44.6 C 48.4 45.7 47.7 46.1 46.7 46.1 Z M 52.4 43.1 C 52.4 41.7 52 41.5 51.4 41.5 C 50.8 41.5 50.4 41.7 50.4 43.1 C 50.4 43.1 52.4 43.1 52.4 43.1 Z M 50.4 43.8 C 50.4 45.2 50.8 45.5 51.4 45.5 C 52 45.5 52.3 45 52.3 44.5 C 52.3 44.5 53.2 44.5 53.2 44.5 C 53.2 45.6 52.5 46.1 51.4 46.1 C 50.4 46.1 49.5 45.8 49.5 43.6 C 49.5 42.1 49.7 40.9 51.4 40.9 C 52.9 40.9 53.2 41.7 53.2 43.3 C 53.24 43.34 53.2 43.8 53.2 43.8 C 53.2 43.8 50.4 43.77 50.4 43.8 Z M 57.8 42 C 58.6 42.1 59.2 41.7 59.2 40.8 C 59.2 40.2 58.9 39.7 58.3 39.7 C 57.5 39.7 57.4 40.3 57.4 40.9 C 57.4 40.9 56.5 40.9 56.5 40.9 C 56.4 39.7 57 39 58.3 39 C 59.4 39 60.1 39.6 60.1 40.8 C 60.1 42.1 59.2 42.3 58.8 42.4 C 58.8 42.4 58.8 42.4 58.8 42.4 C 59.9 42.6 60.2 43.1 60.2 44.2 C 60.2 45.5 59.5 46.2 58.1 46.2 C 56.2 46.2 56.4 44.5 56.4 44.1 C 56.4 44.1 57.3 44.1 57.3 44.1 C 57.3 44.8 57.4 45.4 58.2 45.4 C 59 45.4 59.3 44.9 59.3 44.2 C 59.3 43 58.9 42.8 57.8 42.8 C 57.8 42.8 57.8 42 57.8 42 Z M 66.3 43.4 C 66.3 42.7 66.3 41.5 65.3 41.5 C 64.3 41.5 64.4 42.9 64.4 43.7 C 64.4 44.4 64.4 45.5 65.3 45.5 C 66.2 45.5 66.3 44.8 66.3 43.4 Z M 64.4 41.6 C 64.4 41.6 64.39 41.58 64.4 41.6 C 64.7 41.1 65 40.9 65.6 40.9 C 66.4 40.9 67.2 41.2 67.2 43.4 C 67.2 44.7 67.1 46.1 65.5 46.1 C 65 46.1 64.7 45.9 64.4 45.5 C 64.4 45.52 64.4 45.5 64.4 45.5 L 64.4 47.9 L 63.6 47.9 L 63.6 41 L 64.4 41 L 64.4 41.6 Z M 69.3 46 L 68.5 46 L 68.5 41 L 69.3 41 L 69.3 46 Z M 68.4 38.8 L 69.3 38.8 L 69.3 39.7 L 68.4 39.7 L 68.4 38.8 Z M 70.1 41 L 71 41 L 72.2 45.3 L 72.2 45.3 L 73.4 41 L 74.3 41 L 72.7 46 L 71.6 46 L 70.1 41 Z M 78 43.2 C 78 41.8 77.6 41.5 76.9 41.5 C 76.3 41.5 75.9 41.8 75.9 43.2 C 75.9 44.9 76.1 45.5 76.9 45.5 C 77.8 45.5 78 44.9 78 43.2 Z M 75 43.6 C 75 42.1 75.2 40.9 76.9 40.9 C 78.7 40.9 78.8 42.1 78.8 43.6 C 78.8 45.8 78 46.1 76.9 46.1 C 75.9 46.1 75 45.8 75 43.6 Z M 80.2 41 L 80.2 40 L 81.1 39.6 L 81.1 41 L 82.2 41 L 82.2 41.6 L 81.1 41.6 C 81.1 41.6 81.05 44.69 81.1 44.7 C 81.1 45 81.1 45.4 81.8 45.4 C 81.9 45.4 82 45.4 82.2 45.4 C 82.2 45.4 82.2 46 82.2 46 C 81.9 46 81.6 46.1 81.4 46.1 C 80.6 46.1 80.2 45.8 80.2 45.2 C 80.23 45.19 80.2 41.6 80.2 41.6 L 79.4 41.6 L 79.4 41 L 80.2 41 Z M 83.7 44.5 C 83.7 45 83.9 45.5 84.5 45.5 C 85 45.5 85.6 45.1 85.5 43.5 C 84.7 43.5 83.7 43.5 83.7 44.5 Z M 85.5 45.3 C 85.5 45.3 85.5 45.3 85.5 45.3 C 85.3 45.9 84.9 46.1 84.2 46.1 C 83.2 46.1 82.9 45.4 82.9 44.5 C 82.9 42.9 84.4 42.9 85.5 42.9 C 85.5 42.2 85.5 41.5 84.7 41.5 C 84.1 41.5 83.8 41.9 83.9 42.4 C 83.9 42.4 83 42.4 83 42.4 C 83 41.3 83.6 40.9 84.7 40.9 C 86 40.9 86.3 41.5 86.3 42.4 C 86.3 42.4 86.3 44.8 86.3 44.8 C 86.3 45.2 86.4 45.6 86.4 46 C 86.42 46.03 85.5 46 85.5 46 L 85.5 45.3 Z M 88.7 46 L 87.9 46 L 87.9 38.8 L 88.7 38.8 L 88.7 46 Z M 93.9 46.1 C 92.8 46.1 92.1 45.6 92.1 44.5 C 92.1 44.5 93 44.5 93 44.5 C 93 44.8 93.1 45.5 93.9 45.5 C 94.4 45.5 94.8 45.2 94.8 44.7 C 94.8 43.8 92.2 43.8 92.2 42.3 C 92.2 41.7 92.6 40.9 94 40.9 C 94.9 40.9 95.6 41.3 95.6 42.3 C 95.6 42.3 94.7 42.3 94.7 42.3 C 94.7 41.8 94.4 41.5 93.9 41.5 C 93.4 41.5 93.1 41.7 93.1 42.2 C 93.1 43.1 95.6 43 95.6 44.6 C 95.6 45.7 94.9 46.1 93.9 46.1 Z M 96.9 41 L 96.9 40 L 97.7 39.6 L 97.7 41 L 98.8 41 L 98.8 41.6 L 97.7 41.6 C 97.7 41.6 97.71 44.69 97.7 44.7 C 97.7 45 97.7 45.4 98.5 45.4 C 98.5 45.4 98.7 45.4 98.8 45.4 C 98.8 45.4 98.8 46 98.8 46 C 98.6 46 98.3 46.1 98 46.1 C 97.2 46.1 96.9 45.8 96.9 45.2 C 96.89 45.19 96.9 41.6 96.9 41.6 L 96.1 41.6 L 96.1 41 L 96.9 41 Z M 102.3 41 L 103.1 41 C 103.1 41 103.1 44.98 103.1 45 C 103.1 45.3 103.1 45.7 103.2 46 C 103.15 46.03 102.3 46 102.3 46 L 102.3 45.4 C 102.3 45.4 102.25 45.42 102.3 45.4 C 102 45.9 101.5 46.1 101 46.1 C 100.1 46.1 99.6 45.7 99.6 44.8 C 99.61 44.83 99.6 41 99.6 41 L 100.4 41 C 100.4 41 100.43 44.48 100.4 44.5 C 100.4 45.1 100.7 45.5 101.3 45.5 C 101.7 45.5 102.3 45.2 102.3 44.3 C 102.28 44.33 102.3 41 102.3 41 Z M 106.3 41.5 C 105.4 41.5 105.3 42.2 105.3 43.6 C 105.3 44.4 105.3 45.5 106.3 45.5 C 107.3 45.5 107.3 44.3 107.3 43.3 C 107.3 42.6 107.2 41.5 106.3 41.5 Z M 107.3 38.8 L 108.1 38.8 L 108.1 46 L 107.3 46 L 107.3 45.4 C 107.3 45.4 107.23 45.43 107.2 45.4 C 107 45.9 106.6 46.1 106.1 46.1 C 105.3 46.1 104.4 45.8 104.4 43.6 C 104.4 42.3 104.5 40.9 106.1 40.9 C 106.6 40.9 106.9 41.1 107.2 41.5 C 107.22 41.49 107.3 41.5 107.3 41.5 L 107.3 38.8 Z M 111.1 45.1 L 111.1 45.1 L 112.3 41 L 113.2 41 L 110.9 47.9 L 110.1 47.9 L 110.7 46 L 108.9 41 L 109.9 41 L 111.1 45.1 Z M 113.8 45 L 114.8 45 L 113.9 47.3 L 113.3 47.3 L 113.8 45 Z M 120.3 46 L 119.3 46 L 119.3 40.1 L 118.3 40.8 C 118.3 40.8 118.3 39.92 118.3 39.9 C 118.5 39.8 119.2 39.3 119.5 39.1 C 119.47 39.09 120.3 39.1 120.3 39.1 L 120.3 46 Z M 125.5 47.2 C 125.1 45.8 124.5 44.4 124.5 42.9 C 124.5 41.3 125.1 39.9 125.5 38.5 C 125.5 38.5 126.1 38.5 126.1 38.5 C 125.8 39.9 125.5 41.4 125.5 42.9 C 125.5 44.4 125.8 45.8 126.1 47.2 C 126.1 47.2 125.5 47.2 125.5 47.2 Z M 128.5 42 C 129.3 42.1 129.9 41.7 129.9 40.8 C 129.9 40.2 129.6 39.7 129 39.7 C 128.2 39.7 128.1 40.3 128.1 40.9 C 128.1 40.9 127.2 40.9 127.2 40.9 C 127.1 39.7 127.7 39 129 39 C 130.1 39 130.8 39.6 130.8 40.8 C 130.8 42.1 129.9 42.3 129.5 42.4 C 129.5 42.4 129.5 42.4 129.5 42.4 C 130.6 42.6 130.9 43.1 130.9 44.2 C 130.9 45.5 130.2 46.2 128.9 46.2 C 126.9 46.2 127.1 44.5 127.1 44.1 C 127.1 44.1 128 44.1 128 44.1 C 128 44.8 128.1 45.4 128.9 45.4 C 129.7 45.4 130 44.9 130 44.2 C 130 43 129.6 42.8 128.5 42.8 C 128.5 42.8 128.5 42 128.5 42 Z M 134.5 40.6 C 134.5 41.5 134.4 42.5 133.2 42.5 C 132 42.5 132 41.5 132 40.6 C 132 39.6 132 38.7 133.2 38.7 C 134.4 38.7 134.5 39.6 134.5 40.6 Z M 132.6 40.6 C 132.6 41.5 132.6 41.9 133.2 41.9 C 133.8 41.9 133.8 41.5 133.8 40.6 C 133.8 39.7 133.8 39.2 133.2 39.2 C 132.6 39.2 132.6 39.7 132.6 40.6 Z M 138.3 44.3 C 138.3 45.2 138.2 46.2 137 46.2 C 135.8 46.2 135.8 45.2 135.8 44.3 C 135.8 43.3 135.8 42.4 137 42.4 C 138.2 42.4 138.3 43.3 138.3 44.3 Z M 136.5 44.3 C 136.5 45.2 136.5 45.6 137 45.6 C 137.6 45.6 137.6 45.2 137.6 44.3 C 137.6 43.4 137.6 42.9 137 42.9 C 136.5 42.9 136.5 43.4 136.5 44.3 Z M 133.7 46.4 L 133.1 46.4 L 136.5 38.4 L 137.2 38.4 L 133.7 46.4 Z M 139.7 47.2 C 140.1 45.8 140.4 44.4 140.4 42.9 C 140.4 41.4 140.1 39.9 139.7 38.5 C 139.7 38.5 140.3 38.5 140.3 38.5 C 140.8 39.9 141.3 41.3 141.3 42.9 C 141.3 44.4 140.8 45.8 140.3 47.2 C 140.3 47.2 139.7 47.2 139.7 47.2 Z M 146.5 38.8 L 147.6 38.8 L 150 46 L 149 46 L 148.4 44.3 L 145.7 44.3 L 145.1 46 L 144.2 46 L 146.5 38.8 Z M 147 39.7 L 147 39.7 L 145.9 43.5 L 148.2 43.5 L 147 39.7 Z M 155.9 38.8 L 155.9 46 L 154.7 46 L 151.8 39.8 L 151.8 39.8 L 151.8 46 L 151 46 L 151 38.8 L 152.3 38.8 L 155.1 45 L 155.1 45 L 155.1 38.8 L 155.9 38.8 Z M 158.6 45.2 C 158.6 45.2 159.43 45.23 159.4 45.2 C 160.7 45.2 161.2 44.7 161.2 43.1 C 161.2 43.1 161.2 41.6 161.2 41.6 C 161.2 40.1 160.7 39.6 159.8 39.6 C 159.77 39.61 158.6 39.6 158.6 39.6 L 158.6 45.2 Z M 157.6 38.8 C 157.6 38.8 159.86 38.81 159.9 38.8 C 160.8 38.8 161.4 39.1 161.8 39.9 C 162.1 40.5 162.1 42 162.1 42.2 C 162.1 43.7 162 44.6 161.7 45.1 C 161.3 45.7 160.6 46 159.3 46 C 159.3 46.03 157.6 46 157.6 46 L 157.6 38.8 Z M 163.7 46 L 163.7 38.8 L 167.4 38.8 L 167.4 39.6 L 164.6 39.6 L 164.6 41.9 L 167.2 41.9 L 167.2 42.7 L 164.6 42.7 L 164.6 45.2 L 167.5 45.2 L 167.5 46 L 163.7 46 Z M 169.6 46 L 168.7 46 L 168.7 38.8 L 170.2 38.8 L 172 44.9 L 172.1 44.9 L 173.9 38.8 L 175.4 38.8 L 175.4 46 L 174.5 46 L 174.5 39.6 L 174.5 39.6 L 172.5 46 L 171.6 46 L 169.6 39.6 L 169.6 39.6 L 169.6 46 Z M 178.1 45.2 C 178.1 45.2 179.37 45.23 179.4 45.2 C 180.4 45.2 180.7 44.5 180.7 44 C 180.7 42.8 180 42.6 179 42.6 C 179.05 42.65 178.1 42.6 178.1 42.6 L 178.1 45.2 Z M 178.1 41.8 C 178.1 41.8 179.41 41.85 179.4 41.8 C 180.1 41.8 180.5 41.4 180.5 40.7 C 180.5 40.1 180.1 39.6 179.4 39.6 C 179.37 39.61 178.1 39.6 178.1 39.6 L 178.1 41.8 Z M 177.2 46 L 177.2 38.8 C 177.2 38.8 179.5 38.81 179.5 38.8 C 180.5 38.8 180.8 39.1 181.1 39.5 C 181.4 39.9 181.4 40.4 181.4 40.5 C 181.4 41.4 181.1 42 180.2 42.2 C 180.2 42.2 180.2 42.3 180.2 42.3 C 181.2 42.4 181.6 43 181.6 44 C 181.6 45.8 180.3 46 179.5 46 C 179.47 46.03 177.2 46 177.2 46 Z M 184.1 41.9 C 184.1 41.9 185.45 41.91 185.4 41.9 C 186.1 41.9 186.4 41.3 186.4 40.7 C 186.4 40.2 186.2 39.6 185.5 39.6 C 185.46 39.61 184.1 39.6 184.1 39.6 L 184.1 41.9 Z M 184.1 42.7 L 184.1 46 L 183.2 46 L 183.2 38.8 C 183.2 38.8 185.64 38.81 185.6 38.8 C 186.9 38.8 187.4 39.7 187.4 40.6 C 187.4 41.5 186.9 42.1 186.1 42.3 C 186.1 42.3 186.1 42.3 186.1 42.3 C 186.9 42.4 187.2 42.7 187.2 44.1 C 187.2 44.4 187.3 45.6 187.5 46 C 187.5 46 186.5 46 186.5 46 C 186.3 45.5 186.3 44.6 186.2 43.6 C 186.2 42.7 185.5 42.7 185.1 42.7 C 185.15 42.71 184.1 42.7 184.1 42.7 Z M 191.9 38.8 L 192.8 38.8 L 190.9 43.3 L 190.9 46 L 189.9 46 L 189.9 43.3 L 188 38.8 L 189 38.8 L 190.4 42.3 L 191.9 38.8 Z M 197.4 40.6 C 197.4 41.8 196.5 42.8 195.3 42.8 C 194 42.8 193.1 41.8 193.1 40.6 C 193.1 39.4 194 38.4 195.3 38.4 C 196.5 38.4 197.4 39.4 197.4 40.6 Z M 193.4 40.6 C 193.4 41.6 194.2 42.5 195.3 42.5 C 196.3 42.5 197.1 41.6 197.1 40.6 C 197.1 39.6 196.3 38.7 195.3 38.7 C 194.2 38.7 193.4 39.6 193.4 40.6 Z M 194.8 41.9 L 194.4 41.9 L 194.4 39.3 C 194.4 39.3 195.44 39.33 195.4 39.3 C 195.9 39.3 196.1 39.6 196.1 40 C 196.1 40.3 195.9 40.5 195.6 40.5 C 195.6 40.5 195.6 40.6 195.6 40.6 C 195.9 40.6 196 40.7 196 41.2 C 196 41.3 196.1 41.7 196.1 41.9 C 196.1 41.9 195.7 41.9 195.7 41.9 C 195.6 41.7 195.7 41.4 195.6 41 C 195.6 40.7 195.4 40.7 195.3 40.7 C 195.25 40.73 194.8 40.7 194.8 40.7 L 194.8 41.9 Z M 194.8 40.4 C 194.8 40.4 195.37 40.41 195.4 40.4 C 195.6 40.4 195.7 40.2 195.7 40 C 195.7 39.8 195.6 39.6 195.4 39.6 C 195.37 39.61 194.8 39.6 194.8 39.6 L 194.8 40.4 Z M 198.1 42.9 L 200.3 42.9 L 200.3 43.7 L 198.1 43.7 L 198.1 42.9 Z M 201.7 41 L 201.7 40 L 202.5 39.6 L 202.5 41 L 203.6 41 L 203.6 41.6 L 202.5 41.6 C 202.5 41.6 202.54 44.69 202.5 44.7 C 202.5 45 202.5 45.4 203.3 45.4 C 203.4 45.4 203.5 45.4 203.7 45.4 C 203.7 45.4 203.7 46 203.7 46 C 203.4 46 203.1 46.1 202.9 46.1 C 202.1 46.1 201.7 45.8 201.7 45.2 C 201.72 45.19 201.7 41.6 201.7 41.6 L 200.9 41.6 L 200.9 41 L 201.7 41 Z M 205.3 41.7 C 205.3 41.7 205.28 41.74 205.3 41.7 C 205.6 41 206 40.9 206.8 40.9 C 206.8 40.9 206.8 41.7 206.8 41.7 C 206.8 41.7 206.7 41.7 206.6 41.7 C 206.6 41.7 206.5 41.7 206.4 41.7 C 205.5 41.7 205.3 42.4 205.3 43 C 205.26 43.05 205.3 46 205.3 46 L 204.4 46 L 204.4 41 L 205.3 41 L 205.3 41.7 Z M 210.5 43.1 C 210.5 41.7 210.1 41.5 209.5 41.5 C 209 41.5 208.6 41.7 208.5 43.1 C 208.5 43.1 210.5 43.1 210.5 43.1 Z M 208.5 43.8 C 208.5 45.2 208.9 45.5 209.6 45.5 C 210.1 45.5 210.4 45 210.4 44.5 C 210.4 44.5 211.3 44.5 211.3 44.5 C 211.3 45.6 210.6 46.1 209.6 46.1 C 208.5 46.1 207.7 45.8 207.7 43.6 C 207.7 42.1 207.8 40.9 209.6 40.9 C 211 40.9 211.4 41.7 211.4 43.3 C 211.38 43.34 211.4 43.8 211.4 43.8 C 211.4 43.8 208.54 43.77 208.5 43.8 Z M 213.5 44.5 C 213.5 45 213.7 45.5 214.3 45.5 C 214.8 45.5 215.4 45.1 215.3 43.5 C 214.5 43.5 213.5 43.5 213.5 44.5 Z M 215.3 45.3 C 215.3 45.3 215.32 45.3 215.3 45.3 C 215.1 45.9 214.7 46.1 214.1 46.1 C 213 46.1 212.7 45.4 212.7 44.5 C 212.7 42.9 214.2 42.9 215.3 42.9 C 215.3 42.2 215.4 41.5 214.5 41.5 C 213.9 41.5 213.6 41.9 213.7 42.4 C 213.7 42.4 212.8 42.4 212.8 42.4 C 212.8 41.3 213.4 40.9 214.5 40.9 C 215.8 40.9 216.1 41.5 216.1 42.4 C 216.1 42.4 216.1 44.8 216.1 44.8 C 216.1 45.2 216.2 45.6 216.2 46 C 216.24 46.03 215.3 46 215.3 46 L 215.3 45.3 Z M 217.8 41 L 217.8 40 L 218.7 39.6 L 218.7 41 L 219.8 41 L 219.8 41.6 L 218.7 41.6 C 218.7 41.6 218.65 44.69 218.7 44.7 C 218.7 45 218.7 45.4 219.4 45.4 C 219.5 45.4 219.6 45.4 219.8 45.4 C 219.8 45.4 219.8 46 219.8 46 C 219.5 46 219.2 46.1 219 46.1 C 218.2 46.1 217.8 45.8 217.8 45.2 C 217.83 45.19 217.8 41.6 217.8 41.6 L 217 41.6 L 217 41 L 217.8 41 Z M 223.3 43.1 C 223.3 41.7 222.9 41.5 222.3 41.5 C 221.8 41.5 221.3 41.7 221.3 43.1 C 221.3 43.1 223.3 43.1 223.3 43.1 Z M 221.3 43.8 C 221.3 45.2 221.7 45.5 222.3 45.5 C 222.9 45.5 223.2 45 223.2 44.5 C 223.2 44.5 224.1 44.5 224.1 44.5 C 224.1 45.6 223.4 46.1 222.4 46.1 C 221.3 46.1 220.4 45.8 220.4 43.6 C 220.4 42.1 220.6 40.9 222.4 40.9 C 223.8 40.9 224.2 41.7 224.2 43.3 C 224.16 43.34 224.2 43.8 224.2 43.8 C 224.2 43.8 221.32 43.77 221.3 43.8 Z M 227.2 41.5 C 226.4 41.5 226.2 42.2 226.2 43.6 C 226.2 44.4 226.2 45.5 227.3 45.5 C 228.2 45.5 228.2 44.3 228.2 43.3 C 228.2 42.6 228.2 41.5 227.2 41.5 Z M 228.2 38.8 L 229 38.8 L 229 46 L 228.2 46 L 228.2 45.4 C 228.2 45.4 228.17 45.43 228.2 45.4 C 227.9 45.9 227.5 46.1 227 46.1 C 226.2 46.1 225.4 45.8 225.4 43.6 C 225.4 42.3 225.4 40.9 227.1 40.9 C 227.5 40.9 227.9 41.1 228.2 41.5 C 228.16 41.49 228.2 41.5 228.2 41.5 L 228.2 38.8 Z M 235.6 43.4 C 235.6 42.7 235.6 41.5 234.6 41.5 C 233.5 41.5 233.6 42.9 233.6 43.7 C 233.6 44.4 233.7 45.5 234.6 45.5 C 235.5 45.5 235.6 44.8 235.6 43.4 Z M 233.6 41.6 C 233.6 41.6 233.65 41.58 233.7 41.6 C 233.9 41.1 234.3 40.9 234.8 40.9 C 235.6 40.9 236.4 41.2 236.4 43.4 C 236.4 44.7 236.4 46.1 234.8 46.1 C 234.3 46.1 233.9 45.9 233.7 45.5 C 233.66 45.52 233.6 45.5 233.6 45.5 L 233.6 47.9 L 232.8 47.9 L 232.8 41 L 233.6 41 L 233.6 41.6 Z M 238.5 44.5 C 238.5 45 238.7 45.5 239.3 45.5 C 239.8 45.5 240.4 45.1 240.3 43.5 C 239.5 43.5 238.5 43.5 238.5 44.5 Z M 240.3 45.3 C 240.3 45.3 240.32 45.3 240.3 45.3 C 240.1 45.9 239.7 46.1 239.1 46.1 C 238 46.1 237.7 45.4 237.7 44.5 C 237.7 42.9 239.2 42.9 240.3 42.9 C 240.3 42.2 240.4 41.5 239.5 41.5 C 238.9 41.5 238.6 41.9 238.7 42.4 C 238.7 42.4 237.8 42.4 237.8 42.4 C 237.8 41.3 238.4 40.9 239.5 40.9 C 240.8 40.9 241.1 41.5 241.1 42.4 C 241.1 42.4 241.1 44.8 241.1 44.8 C 241.1 45.2 241.2 45.6 241.2 46 C 241.24 46.03 240.3 46 240.3 46 L 240.3 45.3 Z M 242.8 41 L 242.8 40 L 243.7 39.6 L 243.7 41 L 244.8 41 L 244.8 41.6 L 243.7 41.6 C 243.7 41.6 243.65 44.69 243.7 44.7 C 243.7 45 243.7 45.4 244.4 45.4 C 244.5 45.4 244.6 45.4 244.8 45.4 C 244.8 45.4 244.8 46 244.8 46 C 244.5 46 244.2 46.1 244 46.1 C 243.2 46.1 242.8 45.8 242.8 45.2 C 242.83 45.19 242.8 41.6 242.8 41.6 L 242 41.6 L 242 41 L 242.8 41 Z M 246.3 46 L 245.5 46 L 245.5 41 L 246.3 41 L 246.3 46 Z M 245.5 38.8 L 246.4 38.8 L 246.4 39.7 L 245.5 39.7 L 245.5 38.8 Z M 250.5 43.1 C 250.5 41.7 250.1 41.5 249.5 41.5 C 249 41.5 248.6 41.7 248.5 43.1 C 248.5 43.1 250.5 43.1 250.5 43.1 Z M 248.5 43.8 C 248.5 45.2 248.9 45.5 249.6 45.5 C 250.1 45.5 250.4 45 250.4 44.5 C 250.4 44.5 251.3 44.5 251.3 44.5 C 251.3 45.6 250.6 46.1 249.6 46.1 C 248.5 46.1 247.7 45.8 247.7 43.6 C 247.7 42.1 247.8 40.9 249.6 40.9 C 251 40.9 251.4 41.7 251.4 43.3 C 251.38 43.34 251.4 43.8 251.4 43.8 C 251.4 43.8 248.54 43.77 248.5 43.8 Z M 255.5 46 C 255.5 46 255.48 42.53 255.5 42.5 C 255.5 42 255.3 41.5 254.6 41.5 C 253.7 41.5 253.6 42.3 253.6 43 C 253.56 43.04 253.6 46 253.6 46 L 252.7 46 C 252.7 46 252.74 42.03 252.7 42 C 252.7 41.7 252.7 41.3 252.7 41 C 252.69 40.98 253.6 41 253.6 41 L 253.6 41.6 C 253.6 41.6 253.6 41.63 253.6 41.6 C 253.9 41.1 254.3 40.9 255 40.9 C 256 40.9 256.3 41.5 256.3 42.5 C 256.3 42.53 256.3 46 256.3 46 L 255.5 46 Z M 257.8 41 L 257.8 40 L 258.7 39.6 L 258.7 41 L 259.8 41 L 259.8 41.6 L 258.7 41.6 C 258.7 41.6 258.65 44.69 258.7 44.7 C 258.7 45 258.7 45.4 259.4 45.4 C 259.5 45.4 259.6 45.4 259.8 45.4 C 259.8 45.4 259.8 46 259.8 46 C 259.5 46 259.2 46.1 259 46.1 C 258.2 46.1 257.8 45.8 257.8 45.2 C 257.83 45.19 257.8 41.6 257.8 41.6 L 257 41.6 L 257 41 L 257.8 41 Z M 264.2 46.1 C 263.1 46.1 262.5 45.6 262.5 44.5 C 262.5 44.5 263.4 44.5 263.4 44.5 C 263.4 44.8 263.4 45.5 264.3 45.5 C 264.8 45.5 265.1 45.2 265.1 44.7 C 265.1 43.8 262.6 43.8 262.6 42.3 C 262.6 41.7 262.9 40.9 264.4 40.9 C 265.3 40.9 266 41.3 266 42.3 C 266 42.3 265 42.3 265 42.3 C 265.1 41.8 264.8 41.5 264.3 41.5 C 263.8 41.5 263.5 41.7 263.5 42.2 C 263.5 43.1 266 43 266 44.6 C 266 45.7 265.2 46.1 264.2 46.1 Z M 269.9 46 C 269.9 46 269.92 42.61 269.9 42.6 C 269.9 42 269.7 41.5 269 41.5 C 268.2 41.5 268 42.2 268 43.1 C 267.99 43.06 268 46 268 46 L 267.2 46 L 267.2 38.8 L 268 38.8 L 268 41.6 C 268 41.6 268.03 41.63 268 41.6 C 268.4 41 268.7 40.9 269.4 40.9 C 270.3 40.9 270.7 41.3 270.7 42.4 C 270.74 42.45 270.7 46 270.7 46 L 269.9 46 Z M 275 43.2 C 275 41.8 274.6 41.5 274 41.5 C 273.3 41.5 272.9 41.8 272.9 43.2 C 272.9 44.9 273.1 45.5 274 45.5 C 274.8 45.5 275 44.9 275 43.2 Z M 272 43.6 C 272 42.1 272.2 40.9 274 40.9 C 275.7 40.9 275.9 42.1 275.9 43.6 C 275.9 45.8 275 46.1 274 46.1 C 272.9 46.1 272 45.8 272 43.6 Z M 276.6 41 L 277.5 41 L 278.4 45.3 L 278.4 45.3 L 279.5 41 L 280.7 41 L 281.7 45.3 L 281.7 45.3 L 282.7 41 L 283.6 41 L 282.2 46 L 281.1 46 L 280.1 41.7 L 280 41.7 L 278.9 46 L 277.8 46 L 276.6 41 Z M 287.2 43.1 C 287.2 41.7 286.8 41.5 286.2 41.5 C 285.6 41.5 285.2 41.7 285.2 43.1 C 285.2 43.1 287.2 43.1 287.2 43.1 Z M 285.2 43.8 C 285.2 45.2 285.6 45.5 286.2 45.5 C 286.8 45.5 287.1 45 287.1 44.5 C 287.1 44.5 288 44.5 288 44.5 C 288 45.6 287.3 46.1 286.2 46.1 C 285.2 46.1 284.3 45.8 284.3 43.6 C 284.3 42.1 284.5 40.9 286.2 40.9 C 287.7 40.9 288 41.7 288 43.3 C 288.04 43.34 288 43.8 288 43.8 C 288 43.8 285.2 43.77 285.2 43.8 Z M 291.1 41.5 C 290.2 41.5 290.1 42.2 290.1 43.6 C 290.1 44.4 290.1 45.5 291.2 45.5 C 292.1 45.5 292.1 44.3 292.1 43.3 C 292.1 42.6 292 41.5 291.1 41.5 Z M 292.1 38.8 L 292.9 38.8 L 292.9 46 L 292.1 46 L 292.1 45.4 C 292.1 45.4 292.05 45.43 292.1 45.4 C 291.8 45.9 291.4 46.1 290.9 46.1 C 290.1 46.1 289.3 45.8 289.3 43.6 C 289.3 42.3 289.3 40.9 290.9 40.9 C 291.4 40.9 291.8 41.1 292 41.5 C 292.04 41.49 292.1 41.5 292.1 41.5 L 292.1 38.8 Z M 297.4 44.5 C 297.4 45 297.6 45.5 298.2 45.5 C 298.7 45.5 299.3 45.1 299.2 43.5 C 298.4 43.5 297.4 43.5 297.4 44.5 Z M 299.2 45.3 C 299.2 45.3 299.2 45.3 299.2 45.3 C 299 45.9 298.6 46.1 297.9 46.1 C 296.9 46.1 296.6 45.4 296.6 44.5 C 296.6 42.9 298.1 42.9 299.2 42.9 C 299.2 42.2 299.2 41.5 298.4 41.5 C 297.8 41.5 297.5 41.9 297.6 42.4 C 297.6 42.4 296.7 42.4 296.7 42.4 C 296.7 41.3 297.3 40.9 298.4 40.9 C 299.7 40.9 300 41.5 300 42.4 C 300 42.4 300 44.8 300 44.8 C 300 45.2 300.1 45.6 300.1 46 C 300.12 46.03 299.2 46 299.2 46 L 299.2 45.3 Z M 303.3 41 L 304.2 41 L 305.3 45.3 L 305.3 45.3 L 306.6 41 L 307.4 41 L 305.8 46 L 304.8 46 L 303.3 41 Z M 311.1 43.1 C 311.1 41.7 310.6 41.5 310 41.5 C 309.5 41.5 309.1 41.7 309.1 43.1 C 309.1 43.1 311.1 43.1 311.1 43.1 Z M 309.1 43.8 C 309.1 45.2 309.5 45.5 310.1 45.5 C 310.7 45.5 311 45 311 44.5 C 311 44.5 311.9 44.5 311.9 44.5 C 311.9 45.6 311.2 46.1 310.1 46.1 C 309.1 46.1 308.2 45.8 308.2 43.6 C 308.2 42.1 308.4 40.9 310.1 40.9 C 311.6 40.9 311.9 41.7 311.9 43.3 C 311.92 43.34 311.9 43.8 311.9 43.8 C 311.9 43.8 309.08 43.77 309.1 43.8 Z M 314.1 41.7 C 314.1 41.7 314.15 41.74 314.2 41.7 C 314.5 41 314.9 40.9 315.7 40.9 C 315.7 40.9 315.7 41.7 315.7 41.7 C 315.6 41.7 315.6 41.7 315.5 41.7 C 315.4 41.7 315.4 41.7 315.3 41.7 C 314.4 41.7 314.1 42.4 314.1 43 C 314.13 43.05 314.1 46 314.1 46 L 313.3 46 L 313.3 41 L 314.1 41 L 314.1 41.7 Z M 318.1 45.1 L 318.2 45.1 L 319.4 41 L 320.3 41 L 318 47.9 L 317.1 47.9 L 317.7 46 L 316 41 L 316.9 41 L 318.1 45.1 Z M 324.1 46 L 323.3 46 L 323.3 38.8 L 324.1 38.8 L 324.1 46 Z M 328.3 43.2 C 328.3 41.8 327.9 41.5 327.3 41.5 C 326.6 41.5 326.2 41.8 326.2 43.2 C 326.2 44.9 326.4 45.5 327.3 45.5 C 328.1 45.5 328.3 44.9 328.3 43.2 Z M 325.4 43.6 C 325.4 42.1 325.5 40.9 327.3 40.9 C 329 40.9 329.2 42.1 329.2 43.6 C 329.2 45.8 328.3 46.1 327.3 46.1 C 326.2 46.1 325.4 45.8 325.4 43.6 Z M 329.9 41 L 330.8 41 L 331.7 45.3 L 331.7 45.3 L 332.8 41 L 334 41 L 335 45.3 L 335 45.3 L 336 41 L 336.9 41 L 335.6 46 L 334.5 46 L 333.4 41.7 L 333.4 41.7 L 332.2 46 L 331.1 46 L 329.9 41 Z M 341.7 38.8 L 342.8 38.8 L 345.2 46 L 344.1 46 L 343.6 44.3 L 340.8 44.3 L 340.3 46 L 339.4 46 L 341.7 38.8 Z M 342.2 39.7 L 342.2 39.7 L 341.1 43.5 L 343.4 43.5 L 342.2 39.7 Z M 347.1 45.2 C 347.1 45.2 347.94 45.23 347.9 45.2 C 349.2 45.2 349.7 44.7 349.7 43.1 C 349.7 43.1 349.7 41.6 349.7 41.6 C 349.7 40.1 349.2 39.6 348.3 39.6 C 348.28 39.61 347.1 39.6 347.1 39.6 L 347.1 45.2 Z M 346.2 38.8 C 346.2 38.8 348.37 38.81 348.4 38.8 C 349.3 38.8 350 39.1 350.3 39.9 C 350.6 40.5 350.6 42 350.6 42.2 C 350.6 43.7 350.5 44.6 350.2 45.1 C 349.8 45.7 349.1 46 347.8 46 C 347.81 46.03 346.2 46 346.2 46 L 346.2 38.8 Z M 353.9 38.8 L 355 38.8 L 357.4 46 L 356.4 46 L 355.8 44.3 L 353.1 44.3 L 352.5 46 L 351.6 46 L 353.9 38.8 Z M 354.4 39.7 L 354.4 39.7 L 353.3 43.5 L 355.6 43.5 L 354.4 39.7 Z M 358.1 42.9 L 360.3 42.9 L 360.3 43.7 L 358.1 43.7 L 358.1 42.9 Z M 364.4 43.4 C 364.4 42.7 364.4 41.5 363.4 41.5 C 362.4 41.5 362.5 42.9 362.5 43.7 C 362.5 44.4 362.5 45.5 363.4 45.5 C 364.3 45.5 364.4 44.8 364.4 43.4 Z M 362.5 41.6 C 362.5 41.6 362.5 41.58 362.5 41.6 C 362.8 41.1 363.1 40.9 363.7 40.9 C 364.5 40.9 365.3 41.2 365.3 43.4 C 365.3 44.7 365.3 46.1 363.6 46.1 C 363.1 46.1 362.8 45.9 362.5 45.5 C 362.51 45.52 362.5 45.5 362.5 45.5 L 362.5 47.9 L 361.7 47.9 L 361.7 41 L 362.5 41 L 362.5 41.6 Z M 369.4 43.2 C 369.4 41.8 369 41.5 368.4 41.5 C 367.7 41.5 367.3 41.8 367.3 43.2 C 367.3 44.9 367.5 45.5 368.4 45.5 C 369.2 45.5 369.4 44.9 369.4 43.2 Z M 366.5 43.6 C 366.5 42.1 366.6 40.9 368.4 40.9 C 370.1 40.9 370.3 42.1 370.3 43.6 C 370.3 45.8 369.4 46.1 368.4 46.1 C 367.3 46.1 366.5 45.8 366.5 43.6 Z M 373.1 46.1 C 372 46.1 371.3 45.6 371.3 44.5 C 371.3 44.5 372.3 44.5 372.3 44.5 C 372.3 44.8 372.3 45.5 373.1 45.5 C 373.6 45.5 374 45.2 374 44.7 C 374 43.8 371.5 43.8 371.5 42.3 C 371.5 41.7 371.8 40.9 373.2 40.9 C 374.1 40.9 374.9 41.3 374.8 42.3 C 374.8 42.3 373.9 42.3 373.9 42.3 C 373.9 41.8 373.6 41.5 373.1 41.5 C 372.7 41.5 372.3 41.7 372.3 42.2 C 372.3 43.1 374.8 43 374.8 44.6 C 374.8 45.7 374.1 46.1 373.1 46.1 Z M 376.8 46 L 376 46 L 376 41 L 376.8 41 L 376.8 46 Z M 376 38.8 L 376.9 38.8 L 376.9 39.7 L 376 39.7 L 376 38.8 Z M 378.3 41 L 378.3 40 L 379.2 39.6 L 379.2 41 L 380.3 41 L 380.3 41.6 L 379.2 41.6 C 379.2 41.6 379.16 44.69 379.2 44.7 C 379.2 45 379.2 45.4 379.9 45.4 C 380 45.4 380.1 45.4 380.3 45.4 C 380.3 45.4 380.3 46 380.3 46 C 380 46 379.7 46.1 379.5 46.1 C 378.7 46.1 378.3 45.8 378.3 45.2 C 378.34 45.19 378.3 41.6 378.3 41.6 L 377.5 41.6 L 377.5 41 L 378.3 41 Z M 381.8 46 L 381 46 L 381 41 L 381.8 41 L 381.8 46 Z M 381 38.8 L 381.9 38.8 L 381.9 39.7 L 381 39.7 L 381 38.8 Z M 382.7 41 L 383.6 41 L 384.7 45.3 L 384.7 45.3 L 386 41 L 386.8 41 L 385.2 46 L 384.2 46 L 382.7 41 Z M 390.5 43.1 C 390.5 41.7 390.1 41.5 389.5 41.5 C 388.9 41.5 388.5 41.7 388.5 43.1 C 388.5 43.1 390.5 43.1 390.5 43.1 Z M 388.5 43.8 C 388.5 45.2 388.9 45.5 389.5 45.5 C 390.1 45.5 390.4 45 390.4 44.5 C 390.4 44.5 391.3 44.5 391.3 44.5 C 391.3 45.6 390.6 46.1 389.5 46.1 C 388.5 46.1 387.6 45.8 387.6 43.6 C 387.6 42.1 387.8 40.9 389.5 40.9 C 391 40.9 391.3 41.7 391.3 43.3 C 391.33 43.34 391.3 43.8 391.3 43.8 C 391.3 43.8 388.49 43.77 388.5 43.8 Z M 396.4 46.1 C 395.3 46.1 394.6 45.6 394.7 44.5 C 394.7 44.5 395.6 44.5 395.6 44.5 C 395.6 44.8 395.6 45.5 396.4 45.5 C 396.9 45.5 397.3 45.2 397.3 44.7 C 397.3 43.8 394.8 43.8 394.8 42.3 C 394.8 41.7 395.1 40.9 396.5 40.9 C 397.4 40.9 398.2 41.3 398.1 42.3 C 398.1 42.3 397.2 42.3 397.2 42.3 C 397.2 41.8 396.9 41.5 396.4 41.5 C 396 41.5 395.6 41.7 395.6 42.2 C 395.6 43.1 398.2 43 398.2 44.6 C 398.2 45.7 397.4 46.1 396.4 46.1 Z M 400.1 44.5 C 400.1 45 400.3 45.5 400.9 45.5 C 401.4 45.5 402 45.1 401.9 43.5 C 401.2 43.5 400.1 43.5 400.1 44.5 Z M 402 45.3 C 402 45.3 401.93 45.3 401.9 45.3 C 401.7 45.9 401.3 46.1 400.7 46.1 C 399.6 46.1 399.3 45.4 399.3 44.5 C 399.3 42.9 400.8 42.9 401.9 42.9 C 402 42.2 402 41.5 401.1 41.5 C 400.5 41.5 400.2 41.9 400.3 42.4 C 400.3 42.4 399.4 42.4 399.4 42.4 C 399.4 41.3 400 40.9 401.1 40.9 C 402.4 40.9 402.7 41.5 402.7 42.4 C 402.7 42.4 402.7 44.8 402.7 44.8 C 402.7 45.2 402.8 45.6 402.8 46 C 402.85 46.03 402 46 402 46 L 402 45.3 Z M 406.8 46 C 406.8 46 406.83 42.53 406.8 42.5 C 406.8 42 406.7 41.5 406 41.5 C 405.8 41.5 405.4 41.7 405.3 41.9 C 405.2 42.1 405.1 42.4 405.1 42.6 C 405.13 42.63 405.1 46 405.1 46 L 404.3 46 C 404.3 46 404.31 42.03 404.3 42 C 404.3 41.7 404.3 41.3 404.3 41 C 404.26 40.98 405.1 41 405.1 41 L 405.1 41.6 C 405.1 41.6 405.15 41.61 405.1 41.6 C 405.4 41.1 405.8 40.9 406.4 40.9 C 406.9 40.9 407.4 41.1 407.6 41.5 C 407.9 41 408.3 40.9 408.8 40.9 C 409.3 40.9 410.2 41 410.2 42.2 C 410.17 42.19 410.2 46 410.2 46 L 409.4 46 C 409.4 46 409.35 42.53 409.4 42.5 C 409.4 42 409.2 41.5 408.6 41.5 C 408.2 41.5 408.1 41.6 407.9 41.7 C 407.7 41.9 407.6 42.4 407.6 42.6 C 407.65 42.63 407.6 46 407.6 46 L 406.8 46 Z M 414.4 43.4 C 414.4 42.7 414.4 41.5 413.4 41.5 C 412.4 41.5 412.5 42.9 412.5 43.7 C 412.5 44.4 412.5 45.5 413.4 45.5 C 414.3 45.5 414.4 44.8 414.4 43.4 Z M 412.5 41.6 C 412.5 41.6 412.48 41.58 412.5 41.6 C 412.8 41.1 413.1 40.9 413.6 40.9 C 414.5 40.9 415.3 41.2 415.3 43.4 C 415.3 44.7 415.2 46.1 413.6 46.1 C 413.1 46.1 412.8 45.9 412.5 45.5 C 412.49 45.52 412.5 45.5 412.5 45.5 L 412.5 47.9 L 411.6 47.9 L 411.6 41 L 412.5 41 L 412.5 41.6 Z M 417.4 46 L 416.6 46 L 416.6 38.8 L 417.4 38.8 L 417.4 46 Z M 421.6 43.1 C 421.6 41.7 421.2 41.5 420.5 41.5 C 420 41.5 419.6 41.7 419.6 43.1 C 419.6 43.1 421.6 43.1 421.6 43.1 Z M 419.6 43.8 C 419.6 45.2 420 45.5 420.6 45.5 C 421.2 45.5 421.5 45 421.5 44.5 C 421.5 44.5 422.4 44.5 422.4 44.5 C 422.4 45.6 421.7 46.1 420.6 46.1 C 419.6 46.1 418.7 45.8 418.7 43.6 C 418.7 42.1 418.9 40.9 420.6 40.9 C 422.1 40.9 422.4 41.7 422.4 43.3 C 422.43 43.34 422.4 43.8 422.4 43.8 C 422.4 43.8 419.59 43.77 419.6 43.8 Z M 427.7 41.5 C 426.8 41.5 426.7 42.2 426.7 43.6 C 426.7 44.4 426.7 45.5 427.8 45.5 C 428.7 45.5 428.7 44.3 428.7 43.3 C 428.7 42.6 428.6 41.5 427.7 41.5 Z M 428.7 38.8 L 429.5 38.8 L 429.5 46 L 428.7 46 L 428.7 45.4 C 428.7 45.4 428.66 45.43 428.7 45.4 C 428.4 45.9 428 46.1 427.5 46.1 C 426.7 46.1 425.9 45.8 425.9 43.6 C 425.9 42.3 425.9 40.9 427.5 40.9 C 428 40.9 428.4 41.1 428.7 41.5 C 428.65 41.49 428.7 41.5 428.7 41.5 L 428.7 38.8 Z M 433.7 41 L 434.5 41 C 434.5 41 434.53 44.98 434.5 45 C 434.5 45.3 434.5 45.7 434.6 46 C 434.58 46.03 433.7 46 433.7 46 L 433.7 45.4 C 433.7 45.4 433.68 45.42 433.7 45.4 C 433.4 45.9 432.9 46.1 432.4 46.1 C 431.5 46.1 431 45.7 431 44.8 C 431.04 44.83 431 41 431 41 L 431.9 41 C 431.9 41 431.86 44.48 431.9 44.5 C 431.9 45.1 432.1 45.5 432.7 45.5 C 433.2 45.5 433.7 45.2 433.7 44.3 C 433.71 44.33 433.7 41 433.7 41 Z M 436.9 41.7 C 436.9 41.7 436.88 41.74 436.9 41.7 C 437.2 41 437.6 40.9 438.4 40.9 C 438.4 40.9 438.4 41.7 438.4 41.7 C 438.4 41.7 438.3 41.7 438.2 41.7 C 438.1 41.7 438.1 41.7 438 41.7 C 437.1 41.7 436.9 42.4 436.9 43 C 436.86 43.05 436.9 46 436.9 46 L 436 46 L 436 41 L 436.9 41 L 436.9 41.7 Z M 440.1 46 L 439.3 46 L 439.3 41 L 440.1 41 L 440.1 46 Z M 439.3 38.8 L 440.2 38.8 L 440.2 39.7 L 439.3 39.7 L 439.3 38.8 Z M 444.3 46 C 444.3 46 444.3 42.53 444.3 42.5 C 444.3 42 444.1 41.5 443.4 41.5 C 442.5 41.5 442.4 42.3 442.4 43 C 442.38 43.04 442.4 46 442.4 46 L 441.6 46 C 441.6 46 441.56 42.03 441.6 42 C 441.6 41.7 441.5 41.3 441.5 41 C 441.51 40.98 442.4 41 442.4 41 L 442.4 41.6 C 442.4 41.6 442.42 41.63 442.4 41.6 C 442.7 41.1 443.1 40.9 443.8 40.9 C 444.8 40.9 445.1 41.5 445.1 42.5 C 445.12 42.53 445.1 46 445.1 46 L 444.3 46 Z M 448.3 41.6 C 447.3 41.6 447.3 42.7 447.3 43.3 C 447.3 45 447.7 45.3 448.3 45.3 C 449.3 45.3 449.3 44.2 449.3 43.5 C 449.3 42.7 449.3 41.6 448.3 41.6 Z M 449.2 41 L 450 41 C 450 41 450.05 46.54 450 46.5 C 450 47.7 449.3 47.9 448.2 47.9 C 447.3 47.9 446.6 47.5 446.7 46.6 C 446.7 46.6 447.6 46.6 447.6 46.6 C 447.6 47.1 447.9 47.3 448.3 47.3 C 448.9 47.3 449.2 47 449.2 46.4 C 449.23 46.45 449.2 45.4 449.2 45.4 C 449.2 45.4 449.2 45.4 449.2 45.4 C 449 45.8 448.5 46 448.1 46 C 446.7 46 446.5 44.8 446.5 43.3 C 446.5 41 447.6 40.9 448 40.9 C 448.6 40.9 449 41.1 449.2 41.6 C 449.21 41.6 449.2 41.6 449.2 41.6 L 449.2 41 Z M 453.9 41 L 453.9 40 L 454.7 39.6 L 454.7 41 L 455.8 41 L 455.8 41.6 L 454.7 41.6 C 454.7 41.6 454.69 44.69 454.7 44.7 C 454.7 45 454.7 45.4 455.4 45.4 C 455.5 45.4 455.6 45.4 455.8 45.4 C 455.8 45.4 455.8 46 455.8 46 C 455.5 46 455.3 46.1 455 46.1 C 454.2 46.1 453.9 45.8 453.9 45.2 C 453.87 45.19 453.9 41.6 453.9 41.6 L 453 41.6 L 453 41 L 453.9 41 Z M 459.3 46 C 459.3 46 459.3 42.61 459.3 42.6 C 459.3 42 459.1 41.5 458.4 41.5 C 457.6 41.5 457.4 42.2 457.4 43.1 C 457.37 43.06 457.4 46 457.4 46 L 456.5 46 L 456.5 38.8 L 457.4 38.8 L 457.4 41.6 C 457.4 41.6 457.41 41.63 457.4 41.6 C 457.7 41 458.1 40.9 458.8 40.9 C 459.6 40.9 460.1 41.3 460.1 42.4 C 460.12 42.45 460.1 46 460.1 46 L 459.3 46 Z M 464.3 43.1 C 464.3 41.7 463.9 41.5 463.3 41.5 C 462.8 41.5 462.4 41.7 462.4 43.1 C 462.4 43.1 464.3 43.1 464.3 43.1 Z M 462.4 43.8 C 462.4 45.2 462.7 45.5 463.4 45.5 C 463.9 45.5 464.2 45 464.3 44.5 C 464.3 44.5 465.2 44.5 465.2 44.5 C 465.1 45.6 464.5 46.1 463.4 46.1 C 462.3 46.1 461.5 45.8 461.5 43.6 C 461.5 42.1 461.6 40.9 463.4 40.9 C 464.8 40.9 465.2 41.7 465.2 43.3 C 465.2 43.34 465.2 43.8 465.2 43.8 C 465.2 43.8 462.36 43.77 462.4 43.8 Z M 470.3 45.4 C 471.1 45.4 471.2 44.6 471.2 43.7 C 471.2 43 471.1 42.3 470.3 42.3 C 469.5 42.3 469.4 43.2 469.4 43.8 C 469.4 44.5 469.4 45.4 470.3 45.4 Z M 468.4 42.6 C 468.4 40.7 468.4 39 470.3 39 C 471.3 39 472 39.6 472 40.7 C 472 40.7 471.1 40.7 471.1 40.7 C 471.1 40.2 470.8 39.6 470.3 39.6 C 469.5 39.6 469.3 40.3 469.3 42.2 C 469.3 42.2 469.4 42.2 469.4 42.2 C 469.6 41.8 470 41.5 470.5 41.5 C 471.4 41.5 472.1 42 472.1 43.8 C 472.1 45.1 471.6 46.2 470.3 46.2 C 468.4 46.2 468.4 44.4 468.4 42.6 Z M 477.9 46 C 477.9 46 477.92 42.53 477.9 42.5 C 477.9 42 477.8 41.5 477.1 41.5 C 476.9 41.5 476.5 41.7 476.4 41.9 C 476.3 42.1 476.2 42.4 476.2 42.6 C 476.22 42.63 476.2 46 476.2 46 L 475.4 46 C 475.4 46 475.4 42.03 475.4 42 C 475.4 41.7 475.4 41.3 475.3 41 C 475.35 40.98 476.2 41 476.2 41 L 476.2 41.6 C 476.2 41.6 476.24 41.61 476.2 41.6 C 476.5 41.1 476.9 40.9 477.5 40.9 C 478 40.9 478.5 41.1 478.7 41.5 C 479 41 479.4 40.9 479.9 40.9 C 480.4 40.9 481.3 41 481.3 42.2 C 481.26 42.19 481.3 46 481.3 46 L 480.4 46 C 480.4 46 480.44 42.53 480.4 42.5 C 480.4 42 480.3 41.5 479.6 41.5 C 479.3 41.5 479.2 41.6 479 41.7 C 478.8 41.9 478.7 42.4 478.7 42.6 C 478.74 42.63 478.7 46 478.7 46 L 477.9 46 Z M 485.5 43.2 C 485.5 41.8 485.1 41.5 484.4 41.5 C 483.8 41.5 483.4 41.8 483.4 43.2 C 483.4 44.9 483.6 45.5 484.4 45.5 C 485.3 45.5 485.5 44.9 485.5 43.2 Z M 482.5 43.6 C 482.5 42.1 482.7 40.9 484.4 40.9 C 486.2 40.9 486.4 42.1 486.4 43.6 C 486.4 45.8 485.5 46.1 484.4 46.1 C 483.4 46.1 482.5 45.8 482.5 43.6 Z M 490.4 46 C 490.4 46 490.4 42.53 490.4 42.5 C 490.4 42 490.2 41.5 489.5 41.5 C 488.6 41.5 488.5 42.3 488.5 43 C 488.48 43.04 488.5 46 488.5 46 L 487.7 46 C 487.7 46 487.66 42.03 487.7 42 C 487.7 41.7 487.6 41.3 487.6 41 C 487.61 40.98 488.5 41 488.5 41 L 488.5 41.6 C 488.5 41.6 488.52 41.63 488.5 41.6 C 488.8 41.1 489.2 40.9 489.9 40.9 C 490.9 40.9 491.2 41.5 491.2 42.5 C 491.22 42.53 491.2 46 491.2 46 L 490.4 46 Z M 492.7 41 L 492.7 40 L 493.6 39.6 L 493.6 41 L 494.7 41 L 494.7 41.6 L 493.6 41.6 C 493.6 41.6 493.57 44.69 493.6 44.7 C 493.6 45 493.6 45.4 494.3 45.4 C 494.4 45.4 494.5 45.4 494.7 45.4 C 494.7 45.4 494.7 46 494.7 46 C 494.4 46 494.1 46.1 493.9 46.1 C 493.1 46.1 492.7 45.8 492.7 45.2 C 492.75 45.19 492.7 41.6 492.7 41.6 L 491.9 41.6 L 491.9 41 L 492.7 41 Z M 498.2 46 C 498.2 46 498.18 42.61 498.2 42.6 C 498.2 42 498 41.5 497.3 41.5 C 496.5 41.5 496.2 42.2 496.2 43.1 C 496.25 43.06 496.2 46 496.2 46 L 495.4 46 L 495.4 38.8 L 496.2 38.8 L 496.2 41.6 C 496.2 41.6 496.29 41.63 496.3 41.6 C 496.6 41 497 40.9 497.7 40.9 C 498.5 40.9 499 41.3 499 42.4 C 499 42.45 499 46 499 46 L 498.2 46 Z M 502.7 41 L 502.7 40 L 503.6 39.6 L 503.6 41 L 504.7 41 L 504.7 41.6 L 503.6 41.6 C 503.6 41.6 503.57 44.69 503.6 44.7 C 503.6 45 503.6 45.4 504.3 45.4 C 504.4 45.4 504.5 45.4 504.7 45.4 C 504.7 45.4 504.7 46 504.7 46 C 504.4 46 504.1 46.1 503.9 46.1 C 503.1 46.1 502.7 45.8 502.7 45.2 C 502.75 45.19 502.7 41.6 502.7 41.6 L 501.9 41.6 L 501.9 41 L 502.7 41 Z M 506.3 41.7 C 506.3 41.7 506.31 41.74 506.3 41.7 C 506.6 41 507.1 40.9 507.9 40.9 C 507.9 40.9 507.9 41.7 507.9 41.7 C 507.8 41.7 507.7 41.7 507.6 41.7 C 507.6 41.7 507.5 41.7 507.4 41.7 C 506.5 41.7 506.3 42.4 506.3 43 C 506.29 43.05 506.3 46 506.3 46 L 505.5 46 L 505.5 41 L 506.3 41 L 506.3 41.7 Z M 511.5 43.1 C 511.5 41.7 511.1 41.5 510.5 41.5 C 510 41.5 509.6 41.7 509.6 43.1 C 509.6 43.1 511.5 43.1 511.5 43.1 Z M 509.6 43.8 C 509.6 45.2 509.9 45.5 510.6 45.5 C 511.1 45.5 511.4 45 511.5 44.5 C 511.5 44.5 512.4 44.5 512.4 44.5 C 512.4 45.6 511.7 46.1 510.6 46.1 C 509.5 46.1 508.7 45.8 508.7 43.6 C 508.7 42.1 508.9 40.9 510.6 40.9 C 512 40.9 512.4 41.7 512.4 43.3 C 512.41 43.34 512.4 43.8 512.4 43.8 C 512.4 43.8 509.57 43.77 509.6 43.8 Z M 514.5 44.5 C 514.5 45 514.8 45.5 515.3 45.5 C 515.8 45.5 516.4 45.1 516.3 43.5 C 515.6 43.5 514.5 43.5 514.5 44.5 Z M 516.4 45.3 C 516.4 45.3 516.35 45.3 516.3 45.3 C 516.1 45.9 515.7 46.1 515.1 46.1 C 514 46.1 513.7 45.4 513.7 44.5 C 513.7 42.9 515.2 42.9 516.3 42.9 C 516.4 42.2 516.4 41.5 515.5 41.5 C 514.9 41.5 514.7 41.9 514.7 42.4 C 514.7 42.4 513.8 42.4 513.8 42.4 C 513.9 41.3 514.5 40.9 515.5 40.9 C 516.8 40.9 517.2 41.5 517.2 42.4 C 517.2 42.4 517.2 44.8 517.2 44.8 C 517.2 45.2 517.2 45.6 517.3 46 C 517.27 46.03 516.4 46 516.4 46 L 516.4 45.3 Z M 518.9 41 L 518.9 40 L 519.7 39.6 L 519.7 41 L 520.8 41 L 520.8 41.6 L 519.7 41.6 C 519.7 41.6 519.68 44.69 519.7 44.7 C 519.7 45 519.7 45.4 520.4 45.4 C 520.5 45.4 520.6 45.4 520.8 45.4 C 520.8 45.4 520.8 46 520.8 46 C 520.5 46 520.3 46.1 520 46.1 C 519.2 46.1 518.9 45.8 518.9 45.2 C 518.86 45.19 518.9 41.6 518.9 41.6 L 518 41.6 L 518 41 L 518.9 41 Z M 524 46 C 524 46 524.03 42.53 524 42.5 C 524 42 523.9 41.5 523.2 41.5 C 523 41.5 522.6 41.7 522.5 41.9 C 522.4 42.1 522.3 42.4 522.3 42.6 C 522.33 42.63 522.3 46 522.3 46 L 521.5 46 C 521.5 46 521.51 42.03 521.5 42 C 521.5 41.7 521.5 41.3 521.5 41 C 521.46 40.98 522.3 41 522.3 41 L 522.3 41.6 C 522.3 41.6 522.35 41.61 522.3 41.6 C 522.6 41.1 523 40.9 523.6 40.9 C 524.1 40.9 524.6 41.1 524.8 41.5 C 525.1 41 525.5 40.9 526 40.9 C 526.5 40.9 527.4 41 527.4 42.2 C 527.37 42.19 527.4 46 527.4 46 L 526.5 46 C 526.5 46 526.55 42.53 526.5 42.5 C 526.5 42 526.4 41.5 525.7 41.5 C 525.4 41.5 525.3 41.6 525.1 41.7 C 524.9 41.9 524.8 42.4 524.8 42.6 C 524.85 42.63 524.8 46 524.8 46 L 524 46 Z M 531.5 43.1 C 531.5 41.7 531.1 41.5 530.5 41.5 C 530 41.5 529.6 41.7 529.6 43.1 C 529.6 43.1 531.5 43.1 531.5 43.1 Z M 529.6 43.8 C 529.6 45.2 529.9 45.5 530.6 45.5 C 531.1 45.5 531.4 45 531.5 44.5 C 531.5 44.5 532.4 44.5 532.4 44.5 C 532.4 45.6 531.7 46.1 530.6 46.1 C 529.5 46.1 528.7 45.8 528.7 43.6 C 528.7 42.1 528.9 40.9 530.6 40.9 C 532 40.9 532.4 41.7 532.4 43.3 C 532.41 43.34 532.4 43.8 532.4 43.8 C 532.4 43.8 529.57 43.77 529.6 43.8 Z M 536.5 46 C 536.5 46 536.51 42.53 536.5 42.5 C 536.5 42 536.3 41.5 535.6 41.5 C 534.7 41.5 534.6 42.3 534.6 43 C 534.59 43.04 534.6 46 534.6 46 L 533.8 46 C 533.8 46 533.77 42.03 533.8 42 C 533.8 41.7 533.7 41.3 533.7 41 C 533.72 40.98 534.6 41 534.6 41 L 534.6 41.6 C 534.6 41.6 534.63 41.63 534.6 41.6 C 534.9 41.1 535.3 40.9 536 40.9 C 537.1 40.9 537.3 41.5 537.3 42.5 C 537.33 42.53 537.3 46 537.3 46 L 536.5 46 Z M 538.9 41 L 538.9 40 L 539.7 39.6 L 539.7 41 L 540.8 41 L 540.8 41.6 L 539.7 41.6 C 539.7 41.6 539.68 44.69 539.7 44.7 C 539.7 45 539.7 45.4 540.4 45.4 C 540.5 45.4 540.6 45.4 540.8 45.4 C 540.8 45.4 540.8 46 540.8 46 C 540.5 46 540.3 46.1 540 46.1 C 539.2 46.1 538.9 45.8 538.9 45.2 C 538.86 45.19 538.9 41.6 538.9 41.6 L 538 41.6 L 538 41 L 538.9 41 Z M 546.6 43.4 C 546.6 42.7 546.6 41.5 545.6 41.5 C 544.6 41.5 544.7 42.9 544.7 43.7 C 544.7 44.4 544.7 45.5 545.6 45.5 C 546.5 45.5 546.6 44.8 546.6 43.4 Z M 544.7 41.6 C 544.7 41.6 544.68 41.58 544.7 41.6 C 545 41.1 545.3 40.9 545.8 40.9 C 546.6 40.9 547.5 41.2 547.5 43.4 C 547.5 44.7 547.4 46.1 545.8 46.1 C 545.3 46.1 545 45.9 544.7 45.5 C 544.69 45.52 544.7 45.5 544.7 45.5 L 544.7 47.9 L 543.8 47.9 L 543.8 41 L 544.7 41 L 544.7 41.6 Z M 551.5 43.1 C 551.5 41.7 551.1 41.5 550.5 41.5 C 550 41.5 549.6 41.7 549.6 43.1 C 549.6 43.1 551.5 43.1 551.5 43.1 Z M 549.6 43.8 C 549.6 45.2 549.9 45.5 550.6 45.5 C 551.1 45.5 551.4 45 551.5 44.5 C 551.5 44.5 552.4 44.5 552.4 44.5 C 552.4 45.6 551.7 46.1 550.6 46.1 C 549.5 46.1 548.7 45.8 548.7 43.6 C 548.7 42.1 548.9 40.9 550.6 40.9 C 552 40.9 552.4 41.7 552.4 43.3 C 552.41 43.34 552.4 43.8 552.4 43.8 C 552.4 43.8 549.57 43.77 549.6 43.8 Z M 554.6 41.7 C 554.6 41.7 554.64 41.74 554.6 41.7 C 555 41 555.4 40.9 556.2 40.9 C 556.2 40.9 556.2 41.7 556.2 41.7 C 556.1 41.7 556 41.7 556 41.7 C 555.9 41.7 555.8 41.7 555.8 41.7 C 554.8 41.7 554.6 42.4 554.6 43 C 554.62 43.05 554.6 46 554.6 46 L 553.8 46 L 553.8 41 L 554.6 41 L 554.6 41.7 Z M 557.9 46 L 557.1 46 L 557.1 41 L 557.9 41 L 557.9 46 Z M 557 38.8 L 557.9 38.8 L 557.9 39.7 L 557 39.7 L 557 38.8 Z M 562.2 43.2 C 562.2 41.8 561.7 41.5 561.1 41.5 C 560.5 41.5 560 41.8 560 43.2 C 560 44.9 560.2 45.5 561.1 45.5 C 561.9 45.5 562.2 44.9 562.2 43.2 Z M 559.2 43.6 C 559.2 42.1 559.3 40.9 561.1 40.9 C 562.8 40.9 563 42.1 563 43.6 C 563 45.8 562.2 46.1 561.1 46.1 C 560 46.1 559.2 45.8 559.2 43.6 Z M 566 41.5 C 565.2 41.5 565 42.2 565 43.6 C 565 44.4 565 45.5 566.1 45.5 C 567 45.5 567 44.3 567 43.3 C 567 42.6 566.9 41.5 566 41.5 Z M 567 38.8 L 567.8 38.8 L 567.8 46 L 567 46 L 567 45.4 C 567 45.4 566.97 45.43 567 45.4 C 566.7 45.9 566.3 46.1 565.8 46.1 C 565 46.1 564.2 45.8 564.2 43.6 C 564.2 42.3 564.2 40.9 565.8 40.9 C 566.3 40.9 566.7 41.1 567 41.5 C 566.96 41.49 567 41.5 567 41.5 L 567 38.8 Z M 570.2 46 L 569.2 46 L 569.2 45 L 570.2 45 L 570.2 46 Z M 572.5 42.7 L 572 42.7 L 572 39.2 L 571.4 39.6 C 571.4 39.6 571.36 39.14 571.4 39.1 C 571.5 39.1 571.9 38.8 572 38.7 C 572.04 38.65 572.5 38.7 572.5 38.7 L 572.5 42.7 Z M 573.9 42.1 L 574.5 42.1 L 574 43.4 L 573.6 43.4 L 573.9 42.1 Z M 575 42.7 C 575 42.7 574.95 42.23 575 42.2 C 576.1 40.6 576.5 40.3 576.5 39.6 C 576.5 39.3 576.3 39 576 39 C 575.6 39 575.5 39.4 575.5 39.7 C 575.5 39.7 575 39.7 575 39.7 C 574.9 39 575.3 38.6 575.9 38.6 C 576.7 38.6 577 38.9 577 39.6 C 577 40.6 576.6 40.9 575.5 42.2 C 575.52 42.23 577.1 42.2 577.1 42.2 L 577.1 42.7 L 575 42.7 Z " stroke="none" fill="#555555"/>  </g>  <g id="Polygon201060">    <path d="M 2.6 28.7 L 3.5 30 L 2.9 30.3 L 2.2 28.8 L 1.6 30.3 L 1 30 L 1.9 28.7 L 0.3 28.8 L 0.3 28.1 L 1.9 28.3 L 1 27 L 1.6 26.7 L 2.2 28.1 L 2.9 26.7 L 3.5 27 L 2.6 28.3 L 4.1 28.1 L 4.1 28.8 L 2.6 28.7 Z M 6.3 34 L 5.4 34 L 5.4 26.8 L 6.3 26.8 L 6.3 34 Z M 10.7 34 C 10.7 34 10.68 30.53 10.7 30.5 C 10.7 30 10.5 29.5 9.8 29.5 C 8.9 29.5 8.8 30.3 8.8 31 C 8.76 31.04 8.8 34 8.8 34 L 7.9 34 C 7.9 34 7.94 30.03 7.9 30 C 7.9 29.7 7.9 29.3 7.9 29 C 7.89 28.98 8.8 29 8.8 29 L 8.8 29.6 C 8.8 29.6 8.8 29.63 8.8 29.6 C 9.1 29.1 9.5 28.9 10.2 28.9 C 11.2 28.9 11.5 29.5 11.5 30.5 C 11.5 30.53 11.5 34 11.5 34 L 10.7 34 Z M 12.9 29 L 13.7 29 C 13.7 29 13.74 34.73 13.7 34.7 C 13.7 35.5 13.5 35.9 12.3 35.9 C 12.3 35.9 12.3 35.2 12.3 35.2 C 12.7 35.2 12.9 35.2 12.9 34.8 C 12.92 34.77 12.9 29 12.9 29 Z M 12.9 26.8 L 13.8 26.8 L 13.8 27.7 L 12.9 27.7 L 12.9 26.8 Z M 17.9 31.1 C 17.9 29.7 17.5 29.5 16.9 29.5 C 16.4 29.5 16 29.7 16 31.1 C 16 31.1 17.9 31.1 17.9 31.1 Z M 16 31.8 C 16 33.2 16.3 33.5 17 33.5 C 17.5 33.5 17.8 33 17.9 32.5 C 17.9 32.5 18.8 32.5 18.8 32.5 C 18.7 33.6 18.1 34.1 17 34.1 C 15.9 34.1 15.1 33.8 15.1 31.6 C 15.1 30.1 15.3 28.9 17 28.9 C 18.4 28.9 18.8 29.7 18.8 31.3 C 18.8 31.34 18.8 31.8 18.8 31.8 C 18.8 31.8 15.96 31.77 16 31.8 Z M 22.8 30.6 C 22.8 29.8 22.4 29.5 22.1 29.5 C 21.5 29.5 21 29.8 21 31.2 C 21 32.9 21.2 33.5 22.1 33.5 C 22.3 33.5 22.9 33.3 22.8 32.3 C 22.8 32.3 23.7 32.3 23.7 32.3 C 23.7 33.8 22.7 34.1 22.1 34.1 C 21 34.1 20.2 33.8 20.2 31.6 C 20.2 30.1 20.4 28.9 22.1 28.9 C 23.1 28.9 23.7 29.5 23.6 30.6 C 23.6 30.6 22.8 30.6 22.8 30.6 Z M 25.3 29 L 25.3 28 L 26.1 27.6 L 26.1 29 L 27.2 29 L 27.2 29.6 L 26.1 29.6 C 26.1 29.6 26.07 32.69 26.1 32.7 C 26.1 33 26.1 33.4 26.8 33.4 C 26.9 33.4 27 33.4 27.2 33.4 C 27.2 33.4 27.2 34 27.2 34 C 26.9 34 26.6 34.1 26.4 34.1 C 25.6 34.1 25.3 33.8 25.3 33.2 C 25.25 33.19 25.3 29.6 25.3 29.6 L 24.4 29.6 L 24.4 29 L 25.3 29 Z M 28.7 34 L 27.9 34 L 27.9 29 L 28.7 29 L 28.7 34 Z M 27.9 26.8 L 28.8 26.8 L 28.8 27.7 L 27.9 27.7 L 27.9 26.8 Z M 33 31.2 C 33 29.8 32.6 29.5 31.9 29.5 C 31.3 29.5 30.9 29.8 30.9 31.2 C 30.9 32.9 31.1 33.5 31.9 33.5 C 32.8 33.5 33 32.9 33 31.2 Z M 30 31.6 C 30 30.1 30.2 28.9 31.9 28.9 C 33.7 28.9 33.9 30.1 33.9 31.6 C 33.9 33.8 33 34.1 31.9 34.1 C 30.9 34.1 30 33.8 30 31.6 Z M 37.9 34 C 37.9 34 37.9 30.53 37.9 30.5 C 37.9 30 37.7 29.5 37 29.5 C 36.1 29.5 36 30.3 36 31 C 35.98 31.04 36 34 36 34 L 35.2 34 C 35.2 34 35.16 30.03 35.2 30 C 35.2 29.7 35.1 29.3 35.1 29 C 35.11 28.98 36 29 36 29 L 36 29.6 C 36 29.6 36.02 29.63 36 29.6 C 36.3 29.1 36.7 28.9 37.4 28.9 C 38.4 28.9 38.7 29.5 38.7 30.5 C 38.72 30.53 38.7 34 38.7 34 L 37.9 34 Z M 40 30.9 L 42.2 30.9 L 42.2 31.7 L 40 31.7 L 40 30.9 Z M 45 34.1 C 43.9 34.1 43.2 33.6 43.2 32.5 C 43.2 32.5 44.2 32.5 44.2 32.5 C 44.2 32.8 44.2 33.5 45 33.5 C 45.5 33.5 45.9 33.2 45.9 32.7 C 45.9 31.8 43.4 31.8 43.4 30.3 C 43.4 29.7 43.7 28.9 45.1 28.9 C 46 28.9 46.8 29.3 46.7 30.3 C 46.7 30.3 45.8 30.3 45.8 30.3 C 45.8 29.8 45.5 29.5 45 29.5 C 44.6 29.5 44.2 29.7 44.2 30.2 C 44.2 31.1 46.7 31 46.7 32.6 C 46.7 33.7 46 34.1 45 34.1 Z M 48.7 34 L 47.9 34 L 47.9 29 L 48.7 29 L 48.7 34 Z M 47.9 26.8 L 48.8 26.8 L 48.8 27.7 L 47.9 27.7 L 47.9 26.8 Z M 50.2 29 L 50.2 28 L 51.1 27.6 L 51.1 29 L 52.2 29 L 52.2 29.6 L 51.1 29.6 C 51.1 29.6 51.06 32.69 51.1 32.7 C 51.1 33 51.1 33.4 51.8 33.4 C 51.9 33.4 52 33.4 52.2 33.4 C 52.2 33.4 52.2 34 52.2 34 C 51.9 34 51.6 34.1 51.4 34.1 C 50.6 34.1 50.2 33.8 50.2 33.2 C 50.24 33.19 50.2 29.6 50.2 29.6 L 49.4 29.6 L 49.4 29 L 50.2 29 Z M 55.7 31.1 C 55.7 29.7 55.3 29.5 54.7 29.5 C 54.2 29.5 53.7 29.7 53.7 31.1 C 53.7 31.1 55.7 31.1 55.7 31.1 Z M 53.7 31.8 C 53.7 33.2 54.1 33.5 54.7 33.5 C 55.3 33.5 55.6 33 55.6 32.5 C 55.6 32.5 56.5 32.5 56.5 32.5 C 56.5 33.6 55.8 34.1 54.8 34.1 C 53.7 34.1 52.8 33.8 52.8 31.6 C 52.8 30.1 53 28.9 54.8 28.9 C 56.2 28.9 56.6 29.7 56.6 31.3 C 56.57 31.34 56.6 31.8 56.6 31.8 C 56.6 31.8 53.73 31.77 53.7 31.8 Z M 61 29.7 C 61 29.7 61.02 29.74 61 29.7 C 61.4 29 61.8 28.9 62.6 28.9 C 62.6 28.9 62.6 29.7 62.6 29.7 C 62.5 29.7 62.4 29.7 62.4 29.7 C 62.3 29.7 62.2 29.7 62.1 29.7 C 61.2 29.7 61 30.4 61 31 C 61 31.05 61 34 61 34 L 60.2 34 L 60.2 29 L 61 29 L 61 29.7 Z M 66.2 31.1 C 66.2 29.7 65.8 29.5 65.2 29.5 C 64.7 29.5 64.3 29.7 64.3 31.1 C 64.3 31.1 66.2 31.1 66.2 31.1 Z M 64.3 31.8 C 64.3 33.2 64.7 33.5 65.3 33.5 C 65.9 33.5 66.1 33 66.2 32.5 C 66.2 32.5 67.1 32.5 67.1 32.5 C 67.1 33.6 66.4 34.1 65.3 34.1 C 64.2 34.1 63.4 33.8 63.4 31.6 C 63.4 30.1 63.6 28.9 65.3 28.9 C 66.8 28.9 67.1 29.7 67.1 31.3 C 67.12 31.34 67.1 31.8 67.1 31.8 C 67.1 31.8 64.28 31.77 64.3 31.8 Z M 69.2 32.5 C 69.2 33 69.5 33.5 70 33.5 C 70.5 33.5 71.1 33.1 71.1 31.5 C 70.3 31.5 69.2 31.5 69.2 32.5 Z M 71.1 33.3 C 71.1 33.3 71.06 33.3 71.1 33.3 C 70.8 33.9 70.4 34.1 69.8 34.1 C 68.7 34.1 68.4 33.4 68.4 32.5 C 68.4 30.9 69.9 30.9 71.1 30.9 C 71.1 30.2 71.1 29.5 70.2 29.5 C 69.7 29.5 69.4 29.9 69.4 30.4 C 69.4 30.4 68.5 30.4 68.5 30.4 C 68.6 29.3 69.2 28.9 70.2 28.9 C 71.5 28.9 71.9 29.5 71.9 30.4 C 71.9 30.4 71.9 32.8 71.9 32.8 C 71.9 33.2 71.9 33.6 72 34 C 71.98 34.03 71.1 34 71.1 34 L 71.1 33.3 Z M 76.1 30.6 C 76.1 29.8 75.7 29.5 75.4 29.5 C 74.8 29.5 74.4 29.8 74.4 31.2 C 74.4 32.9 74.6 33.5 75.4 33.5 C 75.6 33.5 76.2 33.3 76.1 32.3 C 76.1 32.3 77 32.3 77 32.3 C 77 33.8 76 34.1 75.4 34.1 C 74.3 34.1 73.5 33.8 73.5 31.6 C 73.5 30.1 73.7 28.9 75.4 28.9 C 76.4 28.9 77 29.5 77 30.6 C 77 30.6 76.1 30.6 76.1 30.6 Z M 78.6 29 L 78.6 28 L 79.4 27.6 L 79.4 29 L 80.5 29 L 80.5 29.6 L 79.4 29.6 C 79.4 29.6 79.39 32.69 79.4 32.7 C 79.4 33 79.4 33.4 80.1 33.4 C 80.2 33.4 80.3 33.4 80.5 33.4 C 80.5 33.4 80.5 34 80.5 34 C 80.2 34 80 34.1 79.7 34.1 C 78.9 34.1 78.6 33.8 78.6 33.2 C 78.57 33.19 78.6 29.6 78.6 29.6 L 77.7 29.6 L 77.7 29 L 78.6 29 Z M 82.1 34 L 81.2 34 L 81.2 29 L 82.1 29 L 82.1 34 Z M 81.2 26.8 L 82.1 26.8 L 82.1 27.7 L 81.2 27.7 L 81.2 26.8 Z M 86.3 31.2 C 86.3 29.8 85.9 29.5 85.3 29.5 C 84.6 29.5 84.2 29.8 84.2 31.2 C 84.2 32.9 84.4 33.5 85.3 33.5 C 86.1 33.5 86.3 32.9 86.3 31.2 Z M 83.3 31.6 C 83.3 30.1 83.5 28.9 85.3 28.9 C 87 28.9 87.2 30.1 87.2 31.6 C 87.2 33.8 86.3 34.1 85.3 34.1 C 84.2 34.1 83.3 33.8 83.3 31.6 Z M 91.2 34 C 91.2 34 91.22 30.53 91.2 30.5 C 91.2 30 91 29.5 90.3 29.5 C 89.4 29.5 89.3 30.3 89.3 31 C 89.3 31.04 89.3 34 89.3 34 L 88.5 34 C 88.5 34 88.48 30.03 88.5 30 C 88.5 29.7 88.5 29.3 88.4 29 C 88.43 28.98 89.3 29 89.3 29 L 89.3 29.6 C 89.3 29.6 89.34 29.63 89.3 29.6 C 89.7 29.1 90 28.9 90.7 28.9 C 91.8 28.9 92 29.5 92 30.5 C 92.04 30.53 92 34 92 34 L 91.2 34 Z M 95 34.1 C 93.9 34.1 93.2 33.6 93.2 32.5 C 93.2 32.5 94.2 32.5 94.2 32.5 C 94.2 32.8 94.2 33.5 95 33.5 C 95.5 33.5 95.9 33.2 95.9 32.7 C 95.9 31.8 93.3 31.8 93.3 30.3 C 93.3 29.7 93.7 28.9 95.1 28.9 C 96 28.9 96.8 29.3 96.7 30.3 C 96.7 30.3 95.8 30.3 95.8 30.3 C 95.8 29.8 95.5 29.5 95 29.5 C 94.5 29.5 94.2 29.7 94.2 30.2 C 94.2 31.1 96.7 31 96.7 32.6 C 96.7 33.7 96 34.1 95 34.1 Z M 100.9 34 L 100.1 34 L 100.1 29 L 100.9 29 L 100.9 34 Z M 100.1 26.8 L 101 26.8 L 101 27.7 L 100.1 27.7 L 100.1 26.8 Z M 105.1 34 C 105.1 34 105.1 30.53 105.1 30.5 C 105.1 30 104.9 29.5 104.2 29.5 C 103.3 29.5 103.2 30.3 103.2 31 C 103.18 31.04 103.2 34 103.2 34 L 102.4 34 C 102.4 34 102.36 30.03 102.4 30 C 102.4 29.7 102.3 29.3 102.3 29 C 102.31 28.98 103.2 29 103.2 29 L 103.2 29.6 C 103.2 29.6 103.22 29.63 103.2 29.6 C 103.5 29.1 103.9 28.9 104.6 28.9 C 105.6 28.9 105.9 29.5 105.9 30.5 C 105.92 30.53 105.9 34 105.9 34 L 105.1 34 Z M 110 30.6 C 110 29.8 109.6 29.5 109.3 29.5 C 108.7 29.5 108.2 29.8 108.2 31.2 C 108.2 32.9 108.4 33.5 109.3 33.5 C 109.5 33.5 110.1 33.3 110 32.3 C 110 32.3 110.9 32.3 110.9 32.3 C 110.9 33.8 109.9 34.1 109.3 34.1 C 108.2 34.1 107.4 33.8 107.4 31.6 C 107.4 30.1 107.5 28.9 109.3 28.9 C 110.3 28.9 110.9 29.5 110.8 30.6 C 110.8 30.6 110 30.6 110 30.6 Z M 113.2 34 L 112.3 34 L 112.3 26.8 L 113.2 26.8 L 113.2 34 Z M 117.3 29 L 118.1 29 C 118.1 29 118.1 32.98 118.1 33 C 118.1 33.3 118.1 33.7 118.1 34 C 118.15 34.03 117.3 34 117.3 34 L 117.3 33.4 C 117.3 33.4 117.25 33.42 117.2 33.4 C 117 33.9 116.5 34.1 116 34.1 C 115.1 34.1 114.6 33.7 114.6 32.8 C 114.61 32.83 114.6 29 114.6 29 L 115.4 29 C 115.4 29 115.43 32.48 115.4 32.5 C 115.4 33.1 115.7 33.5 116.3 33.5 C 116.7 33.5 117.3 33.2 117.3 32.3 C 117.28 32.33 117.3 29 117.3 29 Z M 121.3 29.5 C 120.4 29.5 120.3 30.2 120.3 31.6 C 120.3 32.4 120.3 33.5 121.3 33.5 C 122.2 33.5 122.2 32.3 122.2 31.3 C 122.2 30.6 122.2 29.5 121.3 29.5 Z M 122.2 26.8 L 123.1 26.8 L 123.1 34 L 122.2 34 L 122.2 33.4 C 122.2 33.4 122.23 33.43 122.2 33.4 C 121.9 33.9 121.6 34.1 121.1 34.1 C 120.3 34.1 119.4 33.8 119.4 31.6 C 119.4 30.3 119.5 28.9 121.1 28.9 C 121.6 28.9 121.9 29.1 122.2 29.5 C 122.22 29.49 122.2 29.5 122.2 29.5 L 122.2 26.8 Z M 127.3 31.1 C 127.3 29.7 126.9 29.5 126.3 29.5 C 125.8 29.5 125.4 29.7 125.4 31.1 C 125.4 31.1 127.3 31.1 127.3 31.1 Z M 125.4 31.8 C 125.4 33.2 125.8 33.5 126.4 33.5 C 127 33.5 127.2 33 127.3 32.5 C 127.3 32.5 128.2 32.5 128.2 32.5 C 128.2 33.6 127.5 34.1 126.4 34.1 C 125.3 34.1 124.5 33.8 124.5 31.6 C 124.5 30.1 124.7 28.9 126.4 28.9 C 127.9 28.9 128.2 29.7 128.2 31.3 C 128.22 31.34 128.2 31.8 128.2 31.8 C 128.2 31.8 125.38 31.77 125.4 31.8 Z M 134.6 31.1 C 134.6 29.7 134.2 29.5 133.6 29.5 C 133 29.5 132.6 29.7 132.6 31.1 C 132.6 31.1 134.6 31.1 134.6 31.1 Z M 132.6 31.8 C 132.6 33.2 133 33.5 133.6 33.5 C 134.2 33.5 134.5 33 134.5 32.5 C 134.5 32.5 135.4 32.5 135.4 32.5 C 135.4 33.6 134.7 34.1 133.6 34.1 C 132.6 34.1 131.7 33.8 131.7 31.6 C 131.7 30.1 131.9 28.9 133.6 28.9 C 135.1 28.9 135.4 29.7 135.4 31.3 C 135.44 31.34 135.4 31.8 135.4 31.8 C 135.4 31.8 132.6 31.77 132.6 31.8 Z M 137.6 29.7 C 137.6 29.7 137.67 29.74 137.7 29.7 C 138 29 138.4 28.9 139.2 28.9 C 139.2 28.9 139.2 29.7 139.2 29.7 C 139.2 29.7 139.1 29.7 139 29.7 C 138.9 29.7 138.9 29.7 138.8 29.7 C 137.9 29.7 137.6 30.4 137.6 31 C 137.65 31.05 137.6 34 137.6 34 L 136.8 34 L 136.8 29 L 137.6 29 L 137.6 29.7 Z M 141.6 33.1 L 141.7 33.1 L 142.9 29 L 143.8 29 L 141.5 35.9 L 140.6 35.9 L 141.2 34 L 139.5 29 L 140.4 29 L 141.6 33.1 Z M 144.7 29 L 144.7 28 L 145.5 27.6 L 145.5 29 L 146.6 29 L 146.6 29.6 L 145.5 29.6 C 145.5 29.6 145.48 32.69 145.5 32.7 C 145.5 33 145.5 33.4 146.2 33.4 C 146.3 33.4 146.4 33.4 146.6 33.4 C 146.6 33.4 146.6 34 146.6 34 C 146.3 34 146.1 34.1 145.8 34.1 C 145 34.1 144.7 33.8 144.7 33.2 C 144.66 33.19 144.7 29.6 144.7 29.6 L 143.8 29.6 L 143.8 29 L 144.7 29 Z M 150.1 34 C 150.1 34 150.09 30.61 150.1 30.6 C 150.1 30 149.9 29.5 149.2 29.5 C 148.4 29.5 148.2 30.2 148.2 31.1 C 148.16 31.06 148.2 34 148.2 34 L 147.3 34 L 147.3 26.8 L 148.2 26.8 L 148.2 29.6 C 148.2 29.6 148.2 29.63 148.2 29.6 C 148.5 29 148.9 28.9 149.6 28.9 C 150.4 28.9 150.9 29.3 150.9 30.4 C 150.91 30.45 150.9 34 150.9 34 L 150.1 34 Z M 155.1 31.1 C 155.1 29.7 154.7 29.5 154.1 29.5 C 153.6 29.5 153.2 29.7 153.1 31.1 C 153.1 31.1 155.1 31.1 155.1 31.1 Z M 153.1 31.8 C 153.1 33.2 153.5 33.5 154.2 33.5 C 154.7 33.5 155 33 155 32.5 C 155 32.5 155.9 32.5 155.9 32.5 C 155.9 33.6 155.2 34.1 154.2 34.1 C 153.1 34.1 152.3 33.8 152.3 31.6 C 152.3 30.1 152.4 28.9 154.2 28.9 C 155.6 28.9 156 29.7 156 31.3 C 155.99 31.34 156 31.8 156 31.8 C 156 31.8 153.15 31.77 153.1 31.8 Z M 159.8 34 C 159.8 34 159.83 30.53 159.8 30.5 C 159.8 30 159.7 29.5 159 29.5 C 158.8 29.5 158.4 29.7 158.3 29.9 C 158.2 30.1 158.1 30.4 158.1 30.6 C 158.13 30.63 158.1 34 158.1 34 L 157.3 34 C 157.3 34 157.31 30.03 157.3 30 C 157.3 29.7 157.3 29.3 157.3 29 C 157.26 28.98 158.1 29 158.1 29 L 158.1 29.6 C 158.1 29.6 158.15 29.61 158.1 29.6 C 158.4 29.1 158.8 28.9 159.4 28.9 C 159.9 28.9 160.4 29.1 160.6 29.5 C 160.9 29 161.3 28.9 161.8 28.9 C 162.3 28.9 163.2 29 163.2 30.2 C 163.17 30.19 163.2 34 163.2 34 L 162.3 34 C 162.3 34 162.35 30.53 162.3 30.5 C 162.3 30 162.2 29.5 161.5 29.5 C 161.2 29.5 161.1 29.6 160.9 29.7 C 160.7 29.9 160.6 30.4 160.6 30.6 C 160.65 30.63 160.6 34 160.6 34 L 159.8 34 Z M 165.3 32.5 C 165.3 33 165.6 33.5 166.1 33.5 C 166.6 33.5 167.2 33.1 167.1 31.5 C 166.4 31.5 165.3 31.5 165.3 32.5 Z M 167.2 33.3 C 167.2 33.3 167.15 33.3 167.1 33.3 C 166.9 33.9 166.5 34.1 165.9 34.1 C 164.8 34.1 164.5 33.4 164.5 32.5 C 164.5 30.9 166 30.9 167.1 30.9 C 167.2 30.2 167.2 29.5 166.3 29.5 C 165.7 29.5 165.5 29.9 165.5 30.4 C 165.5 30.4 164.6 30.4 164.6 30.4 C 164.7 29.3 165.3 28.9 166.3 28.9 C 167.6 28.9 168 29.5 168 30.4 C 168 30.4 168 32.8 168 32.8 C 168 33.2 168 33.6 168.1 34 C 168.07 34.03 167.2 34 167.2 34 L 167.2 33.3 Z M 169.7 33 L 170.7 33 L 169.8 35.3 L 169.2 35.3 L 169.7 33 Z M 175.8 33.5 C 176.8 33.5 176.8 32.4 176.8 31.6 C 176.8 30.2 176.7 29.5 175.8 29.5 C 174.9 29.5 174.9 30.6 174.9 31.3 C 174.9 32.1 174.8 33.5 175.8 33.5 Z M 174.9 34 L 174.1 34 L 174.1 26.8 L 174.9 26.8 L 174.9 29.5 C 174.9 29.5 174.93 29.49 174.9 29.5 C 175.2 29.1 175.6 28.9 176 28.9 C 177.7 28.9 177.7 30.3 177.7 31.6 C 177.7 33.8 176.9 34.1 176.1 34.1 C 175.5 34.1 175.2 33.9 174.9 33.4 C 174.92 33.43 174.9 33.4 174.9 33.4 L 174.9 34 Z M 179.9 29.7 C 179.9 29.7 179.88 29.74 179.9 29.7 C 180.2 29 180.6 28.9 181.4 28.9 C 181.4 28.9 181.4 29.7 181.4 29.7 C 181.4 29.7 181.3 29.7 181.2 29.7 C 181.1 29.7 181.1 29.7 181 29.7 C 180.1 29.7 179.9 30.4 179.9 31 C 179.86 31.05 179.9 34 179.9 34 L 179 34 L 179 29 L 179.9 29 L 179.9 29.7 Z M 185 29 L 185.9 29 C 185.9 29 185.86 32.98 185.9 33 C 185.9 33.3 185.9 33.7 185.9 34 C 185.91 34.03 185 34 185 34 L 185 33.4 C 185 33.4 185.01 33.42 185 33.4 C 184.7 33.9 184.3 34.1 183.7 34.1 C 182.8 34.1 182.4 33.7 182.4 32.8 C 182.37 32.83 182.4 29 182.4 29 L 183.2 29 C 183.2 29 183.19 32.48 183.2 32.5 C 183.2 33.1 183.5 33.5 184 33.5 C 184.5 33.5 185 33.2 185 32.3 C 185.04 32.33 185 29 185 29 Z M 188.1 34 L 187.3 34 L 187.3 29 L 188.1 29 L 188.1 34 Z M 187.3 26.8 L 188.2 26.8 L 188.2 27.7 L 187.3 27.7 L 187.3 26.8 Z M 191 34.1 C 190 34.1 189.3 33.6 189.3 32.5 C 189.3 32.5 190.2 32.5 190.2 32.5 C 190.2 32.8 190.2 33.5 191.1 33.5 C 191.6 33.5 191.9 33.2 191.9 32.7 C 191.9 31.8 189.4 31.8 189.4 30.3 C 189.4 29.7 189.7 28.9 191.2 28.9 C 192.1 28.9 192.8 29.3 192.8 30.3 C 192.8 30.3 191.9 30.3 191.9 30.3 C 191.9 29.8 191.6 29.5 191.1 29.5 C 190.6 29.5 190.3 29.7 190.3 30.2 C 190.3 31.1 192.8 31 192.8 32.6 C 192.8 33.7 192 34.1 191 34.1 Z M 194.8 34 L 194 34 L 194 29 L 194.8 29 L 194.8 34 Z M 193.9 26.8 L 194.8 26.8 L 194.8 27.7 L 193.9 27.7 L 193.9 26.8 Z M 199 34 C 199 34 198.96 30.53 199 30.5 C 199 30 198.8 29.5 198.1 29.5 C 197.2 29.5 197 30.3 197 31 C 197.04 31.04 197 34 197 34 L 196.2 34 C 196.2 34 196.22 30.03 196.2 30 C 196.2 29.7 196.2 29.3 196.2 29 C 196.17 28.98 197 29 197 29 L 197 29.6 C 197 29.6 197.08 29.63 197.1 29.6 C 197.4 29.1 197.8 28.9 198.4 28.9 C 199.5 28.9 199.8 29.5 199.8 30.5 C 199.78 30.53 199.8 34 199.8 34 L 199 34 Z M 202.9 29.6 C 202 29.6 202 30.7 202 31.3 C 202 33 202.3 33.3 202.9 33.3 C 203.9 33.3 203.9 32.2 203.9 31.5 C 203.9 30.7 204 29.6 202.9 29.6 Z M 203.9 29 L 204.7 29 C 204.7 29 204.71 34.54 204.7 34.5 C 204.7 35.7 204 35.9 202.8 35.9 C 202 35.9 201.2 35.5 201.3 34.6 C 201.3 34.6 202.2 34.6 202.2 34.6 C 202.2 35.1 202.6 35.3 203 35.3 C 203.6 35.3 203.9 35 203.9 34.4 C 203.89 34.45 203.9 33.4 203.9 33.4 C 203.9 33.4 203.86 33.4 203.9 33.4 C 203.6 33.8 203.2 34 202.7 34 C 201.4 34 201.1 32.8 201.1 31.3 C 201.1 29 202.3 28.9 202.7 28.9 C 203.2 28.9 203.6 29.1 203.9 29.6 C 203.87 29.6 203.9 29.6 203.9 29.6 L 203.9 29 Z M 206.4 33 L 207.4 33 L 206.5 35.3 L 205.8 35.3 L 206.4 33 Z M 211.4 32.5 C 211.4 33 211.6 33.5 212.2 33.5 C 212.7 33.5 213.3 33.1 213.2 31.5 C 212.5 31.5 211.4 31.5 211.4 32.5 Z M 213.3 33.3 C 213.3 33.3 213.24 33.3 213.2 33.3 C 213 33.9 212.6 34.1 212 34.1 C 210.9 34.1 210.6 33.4 210.6 32.5 C 210.6 30.9 212.1 30.9 213.2 30.9 C 213.3 30.2 213.3 29.5 212.4 29.5 C 211.8 29.5 211.5 29.9 211.6 30.4 C 211.6 30.4 210.7 30.4 210.7 30.4 C 210.7 29.3 211.3 28.9 212.4 28.9 C 213.7 28.9 214.1 29.5 214.1 30.4 C 214.1 30.4 214.1 32.8 214.1 32.8 C 214.1 33.2 214.1 33.6 214.2 34 C 214.16 34.03 213.3 34 213.3 34 L 213.3 33.3 Z M 218.4 34 C 218.4 34 218.4 30.53 218.4 30.5 C 218.4 30 218.2 29.5 217.5 29.5 C 216.6 29.5 216.5 30.3 216.5 31 C 216.48 31.04 216.5 34 216.5 34 L 215.7 34 C 215.7 34 215.66 30.03 215.7 30 C 215.7 29.7 215.6 29.3 215.6 29 C 215.61 28.98 216.5 29 216.5 29 L 216.5 29.6 C 216.5 29.6 216.52 29.63 216.5 29.6 C 216.8 29.1 217.2 28.9 217.9 28.9 C 218.9 28.9 219.2 29.5 219.2 30.5 C 219.22 30.53 219.2 34 219.2 34 L 218.4 34 Z M 222.4 29.5 C 221.5 29.5 221.4 30.2 221.4 31.6 C 221.4 32.4 221.4 33.5 222.4 33.5 C 223.3 33.5 223.3 32.3 223.3 31.3 C 223.3 30.6 223.3 29.5 222.4 29.5 Z M 223.3 26.8 L 224.1 26.8 L 224.1 34 L 223.3 34 L 223.3 33.4 C 223.3 33.4 223.31 33.43 223.3 33.4 C 223 33.9 222.7 34.1 222.1 34.1 C 221.3 34.1 220.5 33.8 220.5 31.6 C 220.5 30.3 220.6 28.9 222.2 28.9 C 222.7 28.9 223 29.1 223.3 29.5 C 223.3 29.49 223.3 29.5 223.3 29.5 L 223.3 26.8 Z M 230.7 31.4 C 230.7 30.7 230.7 29.5 229.7 29.5 C 228.7 29.5 228.8 30.9 228.8 31.7 C 228.8 32.4 228.8 33.5 229.7 33.5 C 230.6 33.5 230.7 32.8 230.7 31.4 Z M 228.8 29.6 C 228.8 29.6 228.79 29.58 228.8 29.6 C 229.1 29.1 229.4 28.9 229.9 28.9 C 230.8 28.9 231.6 29.2 231.6 31.4 C 231.6 32.7 231.5 34.1 229.9 34.1 C 229.4 34.1 229.1 33.9 228.8 33.5 C 228.8 33.52 228.8 33.5 228.8 33.5 L 228.8 35.9 L 227.9 35.9 L 227.9 29 L 228.8 29 L 228.8 29.6 Z M 233.7 29.7 C 233.7 29.7 233.75 29.74 233.7 29.7 C 234.1 29 234.5 28.9 235.3 28.9 C 235.3 28.9 235.3 29.7 235.3 29.7 C 235.2 29.7 235.2 29.7 235.1 29.7 C 235 29.7 234.9 29.7 234.9 29.7 C 234 29.7 233.7 30.4 233.7 31 C 233.73 31.05 233.7 34 233.7 34 L 232.9 34 L 232.9 29 L 233.7 29 L 233.7 29.7 Z M 238.9 29 L 239.7 29 C 239.7 29 239.73 32.98 239.7 33 C 239.7 33.3 239.7 33.7 239.8 34 C 239.78 34.03 238.9 34 238.9 34 L 238.9 33.4 C 238.9 33.4 238.88 33.42 238.9 33.4 C 238.6 33.9 238.1 34.1 237.6 34.1 C 236.7 34.1 236.2 33.7 236.2 32.8 C 236.24 32.83 236.2 29 236.2 29 L 237.1 29 C 237.1 29 237.06 32.48 237.1 32.5 C 237.1 33.1 237.3 33.5 237.9 33.5 C 238.4 33.5 238.9 33.2 238.9 32.3 C 238.91 32.33 238.9 29 238.9 29 Z M 242.1 29.7 C 242.1 29.7 242.08 29.74 242.1 29.7 C 242.4 29 242.8 28.9 243.6 28.9 C 243.6 28.9 243.6 29.7 243.6 29.7 C 243.6 29.7 243.5 29.7 243.4 29.7 C 243.3 29.7 243.3 29.7 243.2 29.7 C 242.3 29.7 242.1 30.4 242.1 31 C 242.06 31.05 242.1 34 242.1 34 L 241.2 34 L 241.2 29 L 242.1 29 L 242.1 29.7 Z M 245.3 34 L 244.5 34 L 244.5 29 L 245.3 29 L 245.3 34 Z M 244.5 26.8 L 245.4 26.8 L 245.4 27.7 L 244.5 27.7 L 244.5 26.8 Z M 246.8 29 L 246.8 28 L 247.7 27.6 L 247.7 29 L 248.8 29 L 248.8 29.6 L 247.7 29.6 C 247.7 29.6 247.67 32.69 247.7 32.7 C 247.7 33 247.7 33.4 248.4 33.4 C 248.5 33.4 248.6 33.4 248.8 33.4 C 248.8 33.4 248.8 34 248.8 34 C 248.5 34 248.2 34.1 248 34.1 C 247.2 34.1 246.8 33.8 246.8 33.2 C 246.85 33.19 246.8 29.6 246.8 29.6 L 246 29.6 L 246 29 L 246.8 29 Z M 252.2 29 L 253.1 29 C 253.1 29 253.06 32.98 253.1 33 C 253.1 33.3 253.1 33.7 253.1 34 C 253.11 34.03 252.2 34 252.2 34 L 252.2 33.4 C 252.2 33.4 252.21 33.42 252.2 33.4 C 251.9 33.9 251.5 34.1 250.9 34.1 C 250 34.1 249.6 33.7 249.6 32.8 C 249.57 32.83 249.6 29 249.6 29 L 250.4 29 C 250.4 29 250.39 32.48 250.4 32.5 C 250.4 33.1 250.7 33.5 251.2 33.5 C 251.7 33.5 252.2 33.2 252.2 32.3 C 252.24 32.33 252.2 29 252.2 29 Z M 256 34.1 C 254.9 34.1 254.3 33.6 254.3 32.5 C 254.3 32.5 255.2 32.5 255.2 32.5 C 255.2 32.8 255.2 33.5 256.1 33.5 C 256.5 33.5 256.9 33.2 256.9 32.7 C 256.9 31.8 254.4 31.8 254.4 30.3 C 254.4 29.7 254.7 28.9 256.1 28.9 C 257 28.9 257.8 29.3 257.7 30.3 C 257.7 30.3 256.8 30.3 256.8 30.3 C 256.8 29.8 256.6 29.5 256 29.5 C 255.6 29.5 255.3 29.7 255.3 30.2 C 255.3 31.1 257.8 31 257.8 32.6 C 257.8 33.7 257 34.1 256 34.1 Z M 259.8 34 L 258.9 34 L 258.9 33 L 259.8 33 L 259.8 34 Z M 262.2 30.7 L 261.6 30.7 L 261.6 27.2 L 261 27.6 C 261 27.6 261.02 27.14 261 27.1 C 261.2 27.1 261.5 26.8 261.7 26.7 C 261.7 26.65 262.2 26.7 262.2 26.7 L 262.2 30.7 Z " stroke="none" fill="#555555"/>  </g></svg>