<?xml version="1.0" standalone="no"?><!DOCTYPE svg PUBLIC "-//W3C//DTD SVG 1.1//EN" "http://www.w3.org/Graphics/SVG/1.1/DTD/svg11.dtd"><svg xmlns="http://www.w3.org/2000/svg" version="1.1" width="807px" height="41.7px" viewBox="0 -7 807 41.7" style="top:-7px">  <desc>ANDEMBRY®: CLINICALLY MEANINGFUL IMPROVEMENT IN QOL ACROSS ALL DOMAINS1,2</desc>  <defs/>  <g id="Polygon197952">    <path d="M 4.8 0.1 L 8 0.1 L 12.1 20.3 L 9.3 20.3 L 8.4 15.1 L 4 15.1 L 3.1 20.3 L 0.3 20.3 L 4.8 0.1 Z M 4.5 12.8 L 8 12.8 L 6.3 3 L 6.2 3 L 4.5 12.8 Z M 13.5 0.1 L 17.3 0.1 L 20.6 16.9 L 20.7 16.9 L 20.7 0.1 L 23.3 0.1 L 23.3 20.3 L 19.3 20.3 L 16 3 L 15.9 3 L 15.9 20.3 L 13.5 20.3 L 13.5 0.1 Z M 28.2 17.9 C 28.2 17.9 29.54 17.92 29.5 17.9 C 31.6 17.9 32 16.8 32 13.4 C 32 13.4 32 6.4 32 6.4 C 32 3.4 31.7 2.4 29.3 2.4 C 29.32 2.41 28.2 2.4 28.2 2.4 L 28.2 17.9 Z M 25.4 0.1 C 25.4 0.1 29.9 0.06 29.9 0.1 C 34.4 0.1 34.8 1.6 34.8 7.4 C 34.8 7.4 34.8 13.5 34.8 13.5 C 34.8 18.6 33.9 20.3 29.5 20.3 C 29.46 20.27 25.4 20.3 25.4 20.3 L 25.4 0.1 Z M 36.8 0.1 L 44.4 0.1 L 44.4 2.4 L 39.6 2.4 L 39.6 8.7 L 44.1 8.7 L 44.1 11.1 L 39.6 11.1 L 39.6 17.9 L 44.4 17.9 L 44.4 20.3 L 36.8 20.3 L 36.8 0.1 Z M 45.6 0.1 L 50.1 0.1 L 52.6 15.5 L 52.7 15.5 L 55.3 0.1 L 59.6 0.1 L 59.6 20.3 L 57 20.3 L 57 2.1 L 56.9 2.1 L 54.1 20.3 L 51.3 20.3 L 48.1 2.1 L 48.1 2.1 L 48.1 20.3 L 45.6 20.3 L 45.6 0.1 Z M 61.7 0.1 C 61.7 0.1 66.55 0.06 66.6 0.1 C 70 0.1 70.6 1.3 70.6 5 C 70.6 8.9 69.9 9.6 68 9.8 C 68 9.8 68 9.9 68 9.9 C 70.3 10.3 70.7 11.1 70.7 14.5 C 70.7 18.9 70.2 20.3 66.1 20.3 C 66.08 20.27 61.7 20.3 61.7 20.3 L 61.7 0.1 Z M 64.5 18.1 C 64.5 18.1 66.22 18.09 66.2 18.1 C 67.8 18.1 68.1 17.6 68.1 14.4 C 68.1 11.4 67.8 10.9 66.3 10.9 C 66.3 10.92 64.5 10.9 64.5 10.9 L 64.5 18.1 Z M 64.5 8.7 C 64.5 8.7 66.11 8.74 66.1 8.7 C 67.8 8.7 68 8.4 68 5.1 C 68 2.8 67.6 2.2 65.8 2.2 C 65.8 2.24 64.5 2.2 64.5 2.2 L 64.5 8.7 Z M 72.6 0.1 C 72.6 0.1 76.91 0.06 76.9 0.1 C 81 0.1 81.4 1.1 81.4 5.6 C 81.4 8.3 81.1 9.5 78.8 10.2 C 78.8 10.2 78.8 10.2 78.8 10.2 C 80.7 10.4 81.3 11.4 81.3 13.3 C 81.3 13.3 81.3 17.7 81.3 17.7 C 81.3 18.4 81.3 19.4 81.5 20.3 C 81.5 20.3 78.8 20.3 78.8 20.3 C 78.6 19.8 78.5 19.3 78.5 18.5 C 78.5 18.5 78.5 13.9 78.5 13.9 C 78.5 12 78.2 11.5 76.3 11.5 C 76.33 11.48 75.4 11.5 75.4 11.5 L 75.4 20.3 L 72.6 20.3 L 72.6 0.1 Z M 75.4 9.1 C 75.4 9.1 76.1 9.13 76.1 9.1 C 78.3 9.1 78.6 8.7 78.6 5.7 C 78.6 2.7 78.5 2.4 76.7 2.4 C 76.72 2.41 75.4 2.4 75.4 2.4 L 75.4 9.1 Z M 81.6 0.1 L 84.4 0.1 L 86.9 8.6 L 86.9 8.6 L 89.7 0.1 L 92.2 0.1 L 88.3 12 L 88.3 20.3 L 85.5 20.3 L 85.5 12 L 81.6 0.1 Z M 99.1 -0.9 C 102.4 -0.9 105.1 1.7 105.1 5.1 C 105.1 8.4 102.4 11 99.1 11 C 95.8 11 93.1 8.4 93.1 5.1 C 93.1 1.7 95.8 -0.9 99.1 -0.9 Z M 99.1 9.9 C 101.8 9.9 103.8 7.7 103.8 5.1 C 103.8 2.4 101.8 0.2 99.1 0.2 C 96.4 0.2 94.4 2.4 94.4 5.1 C 94.4 7.7 96.4 9.9 99.1 9.9 Z M 98.8 5.5 L 97.7 5.5 L 97.7 8.5 L 96.5 8.5 L 96.5 1.6 C 96.5 1.6 99.21 1.63 99.2 1.6 C 100.9 1.6 101.8 2.2 101.8 3.6 C 101.8 4.8 101 5.3 100 5.4 C 100.04 5.4 101.9 8.5 101.9 8.5 L 100.6 8.5 L 98.8 5.5 Z M 98.9 4.5 C 99.8 4.5 100.5 4.5 100.5 3.5 C 100.5 2.7 99.7 2.6 99 2.6 C 99.01 2.61 97.7 2.6 97.7 2.6 L 97.7 4.5 C 97.7 4.5 98.91 4.53 98.9 4.5 Z M 106.6 17 L 109.9 17 L 109.9 20.3 L 106.6 20.3 L 106.6 17 Z M 106.6 6.2 L 109.9 6.2 L 109.9 9.5 L 106.6 9.5 L 106.6 6.2 Z M 115.3 5.2 C 115.3 2.4 116.2 -0.1 120 -0.1 C 122.8 -0.1 124 1.3 124 3.6 C 124.05 3.56 124 5.6 124 5.6 L 121.4 5.6 C 121.4 5.6 121.42 4.17 121.4 4.2 C 121.4 2.9 121 2.1 119.8 2.1 C 118.3 2.1 118.1 3.1 118.1 5.5 C 118.1 5.5 118.1 15.5 118.1 15.5 C 118.1 17.8 118.8 18.3 119.7 18.3 C 120.7 18.3 121.4 17.5 121.4 15.8 C 121.42 15.85 121.4 14.4 121.4 14.4 L 124 14.4 C 124 14.4 124.05 16.69 124 16.7 C 124 18.8 123.2 20.4 119.9 20.4 C 116.4 20.4 115.3 18.6 115.3 15.4 C 115.3 15.4 115.3 5.2 115.3 5.2 Z M 125.4 0.1 L 128.2 0.1 L 128.2 17.9 L 132.9 17.9 L 132.9 20.3 L 125.4 20.3 L 125.4 0.1 Z M 134.2 0.1 L 137 0.1 L 137 20.3 L 134.2 20.3 L 134.2 0.1 Z M 138.9 0.1 L 142.8 0.1 L 146.1 16.9 L 146.2 16.9 L 146.2 0.1 L 148.8 0.1 L 148.8 20.3 L 144.8 20.3 L 141.5 3 L 141.4 3 L 141.4 20.3 L 138.9 20.3 L 138.9 0.1 Z M 150.8 0.1 L 153.6 0.1 L 153.6 20.3 L 150.8 20.3 L 150.8 0.1 Z M 155.3 5.2 C 155.3 2.4 156.2 -0.1 160 -0.1 C 162.8 -0.1 164.1 1.3 164.1 3.6 C 164.06 3.56 164.1 5.6 164.1 5.6 L 161.4 5.6 C 161.4 5.6 161.43 4.17 161.4 4.2 C 161.4 2.9 161 2.1 159.8 2.1 C 158.3 2.1 158.1 3.1 158.1 5.5 C 158.1 5.5 158.1 15.5 158.1 15.5 C 158.1 17.8 158.8 18.3 159.7 18.3 C 160.8 18.3 161.4 17.5 161.4 15.8 C 161.43 15.85 161.4 14.4 161.4 14.4 L 164.1 14.4 C 164.1 14.4 164.06 16.69 164.1 16.7 C 164.1 18.8 163.2 20.4 159.9 20.4 C 156.4 20.4 155.3 18.6 155.3 15.4 C 155.3 15.4 155.3 5.2 155.3 5.2 Z M 168.8 0.1 L 172.1 0.1 L 176.2 20.3 L 173.4 20.3 L 172.5 15.1 L 168.1 15.1 L 167.2 20.3 L 164.4 20.3 L 168.8 0.1 Z M 168.5 12.8 L 172.1 12.8 L 170.3 3 L 170.3 3 L 168.5 12.8 Z M 177.5 0.1 L 180.3 0.1 L 180.3 17.9 L 185 17.9 L 185 20.3 L 177.5 20.3 L 177.5 0.1 Z M 186.3 0.1 L 189.1 0.1 L 189.1 17.9 L 193.9 17.9 L 193.9 20.3 L 186.3 20.3 L 186.3 0.1 Z M 191.4 0.1 L 194.2 0.1 L 196.7 8.6 L 196.7 8.6 L 199.5 0.1 L 202 0.1 L 198.1 12 L 198.1 20.3 L 195.3 20.3 L 195.3 12 L 191.4 0.1 Z M 208.7 0.1 L 213.1 0.1 L 215.7 15.5 L 215.7 15.5 L 218.3 0.1 L 222.7 0.1 L 222.7 20.3 L 220 20.3 L 220 2.1 L 220 2.1 L 217.1 20.3 L 214.3 20.3 L 211.2 2.1 L 211.1 2.1 L 211.1 20.3 L 208.7 20.3 L 208.7 0.1 Z M 224.7 0.1 L 232.4 0.1 L 232.4 2.4 L 227.5 2.4 L 227.5 8.7 L 232.1 8.7 L 232.1 11.1 L 227.5 11.1 L 227.5 17.9 L 232.4 17.9 L 232.4 20.3 L 224.7 20.3 L 224.7 0.1 Z M 237.3 0.1 L 240.5 0.1 L 244.6 20.3 L 241.8 20.3 L 240.9 15.1 L 236.6 15.1 L 235.6 20.3 L 232.8 20.3 L 237.3 0.1 Z M 237 12.8 L 240.5 12.8 L 238.8 3 L 238.7 3 L 237 12.8 Z M 246 0.1 L 249.8 0.1 L 253.2 16.9 L 253.2 16.9 L 253.2 0.1 L 255.8 0.1 L 255.8 20.3 L 251.8 20.3 L 248.5 3 L 248.4 3 L 248.4 20.3 L 246 20.3 L 246 0.1 Z M 257.8 0.1 L 260.6 0.1 L 260.6 20.3 L 257.8 20.3 L 257.8 0.1 Z M 262.6 0.1 L 266.5 0.1 L 269.8 16.9 L 269.8 16.9 L 269.8 0.1 L 272.5 0.1 L 272.5 20.3 L 268.4 20.3 L 265.1 3 L 265.1 3 L 265.1 20.3 L 262.6 20.3 L 262.6 0.1 Z M 281.1 5.4 C 281.1 5.4 281.07 4.37 281.1 4.4 C 281.1 2.9 280.4 2.1 279.3 2.1 C 278 2.1 277.3 3.2 277.3 5.4 C 277.3 5.4 277.3 15.6 277.3 15.6 C 277.3 17.2 278.1 18.3 279.3 18.3 C 280.1 18.3 280.7 18.1 281.1 18.1 C 281.07 18.06 281.1 12.1 281.1 12.1 L 279.2 12.1 L 279.2 9.8 L 283.9 9.8 C 283.9 9.8 283.87 19.94 283.9 19.9 C 282.8 20.2 280.8 20.4 279.2 20.4 C 275.7 20.4 274.5 18.6 274.5 15.4 C 274.5 15.4 274.5 5.2 274.5 5.2 C 274.5 1.4 275.7 -0.1 279.3 -0.1 C 282.3 -0.1 283.9 1 283.9 3.6 C 283.87 3.56 283.9 5.4 283.9 5.4 L 281.1 5.4 Z M 285.9 0.1 L 293.6 0.1 L 293.6 2.4 L 288.7 2.4 L 288.7 8.7 L 293.3 8.7 L 293.3 11.1 L 288.7 11.1 L 288.7 20.3 L 285.9 20.3 L 285.9 0.1 Z M 304.2 15.7 C 304.2 18.1 303.2 20.4 299.4 20.4 C 295.6 20.4 294.7 18.1 294.7 15.7 C 294.68 15.71 294.7 0.1 294.7 0.1 L 297.5 0.1 C 297.5 0.1 297.48 16.18 297.5 16.2 C 297.5 17.6 298 18.3 299.4 18.3 C 300.9 18.3 301.4 17.6 301.4 16.2 C 301.37 16.18 301.4 0.1 301.4 0.1 L 304.2 0.1 C 304.2 0.1 304.17 15.71 304.2 15.7 Z M 306.2 0.1 L 309 0.1 L 309 17.9 L 313.7 17.9 L 313.7 20.3 L 306.2 20.3 L 306.2 0.1 Z M 320.1 0.1 L 322.9 0.1 L 322.9 20.3 L 320.1 20.3 L 320.1 0.1 Z M 324.9 0.1 L 329.3 0.1 L 331.9 15.5 L 332 15.5 L 334.5 0.1 L 338.9 0.1 L 338.9 20.3 L 336.3 20.3 L 336.3 2.1 L 336.2 2.1 L 333.3 20.3 L 330.5 20.3 L 327.4 2.1 L 327.4 2.1 L 327.4 20.3 L 324.9 20.3 L 324.9 0.1 Z M 343.8 9.1 C 343.8 9.1 345.22 9.13 345.2 9.1 C 347.1 9.1 347.3 8.8 347.3 5.8 C 347.3 2.7 347.1 2.4 345.2 2.4 C 345.22 2.41 343.8 2.4 343.8 2.4 L 343.8 9.1 Z M 341 0.1 C 341 0.1 345.58 0.06 345.6 0.1 C 349.4 0.1 350.1 1.1 350.1 5.8 C 350.1 10.4 349.4 11.5 345.6 11.5 C 345.58 11.48 343.8 11.5 343.8 11.5 L 343.8 20.3 L 341 20.3 L 341 0.1 Z M 351.9 0.1 C 351.9 0.1 356.19 0.06 356.2 0.1 C 360.3 0.1 360.7 1.1 360.7 5.6 C 360.7 8.3 360.3 9.5 358 10.2 C 358 10.2 358 10.2 358 10.2 C 359.9 10.4 360.6 11.4 360.6 13.3 C 360.6 13.3 360.6 17.7 360.6 17.7 C 360.6 18.4 360.6 19.4 360.8 20.3 C 360.8 20.3 358.1 20.3 358.1 20.3 C 357.8 19.8 357.8 19.3 357.8 18.5 C 357.8 18.5 357.8 13.9 357.8 13.9 C 357.8 12 357.5 11.5 355.6 11.5 C 355.6 11.48 354.7 11.5 354.7 11.5 L 354.7 20.3 L 351.9 20.3 L 351.9 0.1 Z M 354.7 9.1 C 354.7 9.1 355.38 9.13 355.4 9.1 C 357.6 9.1 357.9 8.7 357.9 5.7 C 357.9 2.7 357.7 2.4 356 2.4 C 356 2.41 354.7 2.4 354.7 2.4 L 354.7 9.1 Z M 365.5 15.6 C 365.5 17.3 366.2 18.3 367.4 18.3 C 368.6 18.3 369.4 17.3 369.4 15.6 C 369.4 15.6 369.4 5 369.4 5 C 369.4 3 368.7 2.1 367.4 2.1 C 366.1 2.1 365.5 3 365.5 5 C 365.5 5 365.5 15.6 365.5 15.6 Z M 362.7 5.2 C 362.7 2.4 363.6 -0.1 367.4 -0.1 C 371 -0.1 372.2 1.8 372.2 4.9 C 372.2 4.9 372.2 15.1 372.2 15.1 C 372.2 17.9 371.2 20.4 367.4 20.4 C 363.8 20.4 362.7 18.6 362.7 15.4 C 362.7 15.4 362.7 5.2 362.7 5.2 Z M 372.7 0.1 L 375.5 0.1 L 378.4 16.1 L 378.4 16.1 L 381.3 0.1 L 384.1 0.1 L 380 20.3 L 376.8 20.3 L 372.7 0.1 Z M 385.4 0.1 L 393 0.1 L 393 2.4 L 388.2 2.4 L 388.2 8.7 L 392.7 8.7 L 392.7 11.1 L 388.2 11.1 L 388.2 17.9 L 393 17.9 L 393 20.3 L 385.4 20.3 L 385.4 0.1 Z M 394.2 0.1 L 398.7 0.1 L 401.2 15.5 L 401.3 15.5 L 403.9 0.1 L 408.2 0.1 L 408.2 20.3 L 405.6 20.3 L 405.6 2.1 L 405.5 2.1 L 402.7 20.3 L 399.9 20.3 L 396.7 2.1 L 396.7 2.1 L 396.7 20.3 L 394.2 20.3 L 394.2 0.1 Z M 410.3 0.1 L 417.9 0.1 L 417.9 2.4 L 413.1 2.4 L 413.1 8.7 L 417.6 8.7 L 417.6 11.1 L 413.1 11.1 L 413.1 17.9 L 417.9 17.9 L 417.9 20.3 L 410.3 20.3 L 410.3 0.1 Z M 419.1 0.1 L 423 0.1 L 426.3 16.9 L 426.3 16.9 L 426.3 0.1 L 429 0.1 L 429 20.3 L 424.9 20.3 L 421.6 3 L 421.6 3 L 421.6 20.3 L 419.1 20.3 L 419.1 0.1 Z M 430.2 0.1 L 439.7 0.1 L 439.7 2.4 L 436.3 2.4 L 436.3 20.3 L 433.5 20.3 L 433.5 2.4 L 430.2 2.4 L 430.2 0.1 Z M 446 0.1 L 448.8 0.1 L 448.8 20.3 L 446 20.3 L 446 0.1 Z M 450.8 0.1 L 454.7 0.1 L 458 16.9 L 458 16.9 L 458 0.1 L 460.7 0.1 L 460.7 20.3 L 456.6 20.3 L 453.3 3 L 453.3 3 L 453.3 20.3 L 450.8 20.3 L 450.8 0.1 Z M 470.7 15.6 C 470.7 17.3 471.4 18.3 472.6 18.3 C 473.8 18.3 474.5 17.3 474.5 15.6 C 474.5 15.6 474.5 5 474.5 5 C 474.5 3 473.9 2.1 472.6 2.1 C 471.3 2.1 470.7 3 470.7 5 C 470.7 5 470.7 15.6 470.7 15.6 Z M 467.9 5.2 C 467.9 2.4 468.8 -0.1 472.6 -0.1 C 476.2 -0.1 477.3 1.8 477.3 4.9 C 477.3 4.9 477.3 14.4 477.3 14.4 C 477.3 16.1 476.9 17.8 476.2 18.5 C 476.2 18.5 476.2 18.6 476.2 18.6 C 476.7 18.3 477.7 18.3 478.9 18.3 C 478.9 18.3 478.9 20.3 478.9 20.3 C 476.8 20.3 473.8 20.4 472.6 20.4 C 469 20.4 467.9 18.6 467.9 15.4 C 467.9 15.4 467.9 5.2 467.9 5.2 Z M 482.6 15.6 C 482.6 17.3 483.4 18.3 484.5 18.3 C 485.7 18.3 486.5 17.3 486.5 15.6 C 486.5 15.6 486.5 5 486.5 5 C 486.5 3 485.8 2.1 484.5 2.1 C 483.3 2.1 482.6 3 482.6 5 C 482.6 5 482.6 15.6 482.6 15.6 Z M 479.8 5.2 C 479.8 2.4 480.7 -0.1 484.5 -0.1 C 488.1 -0.1 489.3 1.8 489.3 4.9 C 489.3 4.9 489.3 15.1 489.3 15.1 C 489.3 17.9 488.3 20.4 484.5 20.4 C 480.9 20.4 479.8 18.6 479.8 15.4 C 479.8 15.4 479.8 5.2 479.8 5.2 Z M 491.3 0.1 L 494.1 0.1 L 494.1 17.9 L 498.8 17.9 L 498.8 20.3 L 491.3 20.3 L 491.3 0.1 Z M 508 0.1 L 511.2 0.1 L 515.3 20.3 L 512.5 20.3 L 511.6 15.1 L 507.2 15.1 L 506.3 20.3 L 503.5 20.3 L 508 0.1 Z M 507.7 12.8 L 511.2 12.8 L 509.5 3 L 509.4 3 L 507.7 12.8 Z M 516.2 5.2 C 516.2 2.4 517.2 -0.1 521 -0.1 C 523.7 -0.1 525 1.3 525 3.6 C 525.03 3.56 525 5.6 525 5.6 L 522.4 5.6 C 522.4 5.6 522.4 4.17 522.4 4.2 C 522.4 2.9 521.9 2.1 520.8 2.1 C 519.3 2.1 519 3.1 519 5.5 C 519 5.5 519 15.5 519 15.5 C 519 17.8 519.8 18.3 520.7 18.3 C 521.7 18.3 522.4 17.5 522.4 15.8 C 522.4 15.85 522.4 14.4 522.4 14.4 L 525 14.4 C 525 14.4 525.03 16.69 525 16.7 C 525 18.8 524.2 20.4 520.9 20.4 C 517.4 20.4 516.2 18.6 516.2 15.4 C 516.2 15.4 516.2 5.2 516.2 5.2 Z M 526.4 0.1 C 526.4 0.1 530.74 0.06 530.7 0.1 C 534.8 0.1 535.2 1.1 535.2 5.6 C 535.2 8.3 534.9 9.5 532.6 10.2 C 532.6 10.2 532.6 10.2 532.6 10.2 C 534.5 10.4 535.1 11.4 535.1 13.3 C 535.1 13.3 535.1 17.7 535.1 17.7 C 535.1 18.4 535.1 19.4 535.3 20.3 C 535.3 20.3 532.7 20.3 532.7 20.3 C 532.4 19.8 532.3 19.3 532.3 18.5 C 532.3 18.5 532.3 13.9 532.3 13.9 C 532.3 12 532 11.5 530.2 11.5 C 530.15 11.48 529.2 11.5 529.2 11.5 L 529.2 20.3 L 526.4 20.3 L 526.4 0.1 Z M 529.2 9.1 C 529.2 9.1 529.93 9.13 529.9 9.1 C 532.1 9.1 532.4 8.7 532.4 5.7 C 532.4 2.7 532.3 2.4 530.5 2.4 C 530.54 2.41 529.2 2.4 529.2 2.4 L 529.2 9.1 Z M 540 15.6 C 540 17.3 540.8 18.3 541.9 18.3 C 543.1 18.3 543.9 17.3 543.9 15.6 C 543.9 15.6 543.9 5 543.9 5 C 543.9 3 543.2 2.1 541.9 2.1 C 540.7 2.1 540 3 540 5 C 540 5 540 15.6 540 15.6 Z M 537.2 5.2 C 537.2 2.4 538.1 -0.1 541.9 -0.1 C 545.6 -0.1 546.7 1.8 546.7 4.9 C 546.7 4.9 546.7 15.1 546.7 15.1 C 546.7 17.9 545.8 20.4 541.9 20.4 C 538.4 20.4 537.2 18.6 537.2 15.4 C 537.2 15.4 537.2 5.2 537.2 5.2 Z M 548.4 14.4 L 551.2 14.4 C 551.2 14.4 551.18 16.07 551.2 16.1 C 551.2 17.4 551.7 18.3 552.8 18.3 C 554.3 18.3 554.7 17.2 554.7 15.9 C 554.7 14.2 554.6 13.7 551.7 10.8 C 549.9 9 548.4 7.4 548.4 4.6 C 548.4 1.3 549.9 -0.1 553 -0.1 C 554.5 -0.1 555.6 0.4 556.2 1 C 556.7 1.5 557.1 2.2 557.1 3.6 C 557.06 3.58 557.1 5.5 557.1 5.5 L 554.4 5.5 C 554.4 5.5 554.43 3.89 554.4 3.9 C 554.4 2.7 554 2.1 552.9 2.1 C 551.7 2.1 551.2 2.7 551.2 4.3 C 551.2 5.7 551.5 6.5 554 9.2 C 556.8 12 557.3 13 557.3 15.5 C 557.3 18.6 556.1 20.4 552.7 20.4 C 550.1 20.4 548.4 19.3 548.4 16.8 C 548.38 16.83 548.4 14.4 548.4 14.4 Z M 558.7 14.4 L 561.5 14.4 C 561.5 14.4 561.54 16.07 561.5 16.1 C 561.5 17.4 562 18.3 563.2 18.3 C 564.6 18.3 565 17.2 565 15.9 C 565 14.2 564.9 13.7 562 10.8 C 560.2 9 558.7 7.4 558.7 4.6 C 558.7 1.3 560.3 -0.1 563.3 -0.1 C 564.8 -0.1 565.9 0.4 566.6 1 C 567.1 1.5 567.4 2.2 567.4 3.6 C 567.42 3.58 567.4 5.5 567.4 5.5 L 564.8 5.5 C 564.8 5.5 564.79 3.89 564.8 3.9 C 564.8 2.7 564.3 2.1 563.2 2.1 C 562.1 2.1 561.5 2.7 561.5 4.3 C 561.5 5.7 561.8 6.5 564.4 9.2 C 567.1 12 567.6 13 567.6 15.5 C 567.6 18.6 566.4 20.4 563.1 20.4 C 560.5 20.4 558.7 19.3 558.7 16.8 C 558.74 16.83 558.7 14.4 558.7 14.4 Z M 577.3 0.1 L 580.6 0.1 L 584.7 20.3 L 581.9 20.3 L 580.9 15.1 L 576.6 15.1 L 575.7 20.3 L 572.9 20.3 L 577.3 0.1 Z M 577 12.8 L 580.6 12.8 L 578.8 3 L 578.8 3 L 577 12.8 Z M 586 0.1 L 588.8 0.1 L 588.8 17.9 L 593.5 17.9 L 593.5 20.3 L 586 20.3 L 586 0.1 Z M 594.8 0.1 L 597.6 0.1 L 597.6 17.9 L 602.3 17.9 L 602.3 20.3 L 594.8 20.3 L 594.8 0.1 Z M 611.7 17.9 C 611.7 17.9 613 17.92 613 17.9 C 615.1 17.9 615.5 16.8 615.5 13.4 C 615.5 13.4 615.5 6.4 615.5 6.4 C 615.5 3.4 615.2 2.4 612.8 2.4 C 612.78 2.41 611.7 2.4 611.7 2.4 L 611.7 17.9 Z M 608.9 0.1 C 608.9 0.1 613.37 0.06 613.4 0.1 C 617.9 0.1 618.3 1.6 618.3 7.4 C 618.3 7.4 618.3 13.5 618.3 13.5 C 618.3 18.6 617.3 20.3 612.9 20.3 C 612.92 20.27 608.9 20.3 608.9 20.3 L 608.9 0.1 Z M 623 15.6 C 623 17.3 623.8 18.3 624.9 18.3 C 626.1 18.3 626.9 17.3 626.9 15.6 C 626.9 15.6 626.9 5 626.9 5 C 626.9 3 626.2 2.1 624.9 2.1 C 623.6 2.1 623 3 623 5 C 623 5 623 15.6 623 15.6 Z M 620.2 5.2 C 620.2 2.4 621.1 -0.1 624.9 -0.1 C 628.5 -0.1 629.7 1.8 629.7 4.9 C 629.7 4.9 629.7 15.1 629.7 15.1 C 629.7 17.9 628.7 20.4 624.9 20.4 C 621.3 20.4 620.2 18.6 620.2 15.4 C 620.2 15.4 620.2 5.2 620.2 5.2 Z M 631.7 0.1 L 636.1 0.1 L 638.7 15.5 L 638.7 15.5 L 641.3 0.1 L 645.7 0.1 L 645.7 20.3 L 643 20.3 L 643 2.1 L 643 2.1 L 640.1 20.3 L 637.3 20.3 L 634.2 2.1 L 634.1 2.1 L 634.1 20.3 L 631.7 20.3 L 631.7 0.1 Z M 651.4 0.1 L 654.7 0.1 L 658.8 20.3 L 656 20.3 L 655.1 15.1 L 650.7 15.1 L 649.8 20.3 L 647 20.3 L 651.4 0.1 Z M 651.1 12.8 L 654.7 12.8 L 653 3 L 652.9 3 L 651.1 12.8 Z M 660.1 0.1 L 662.9 0.1 L 662.9 20.3 L 660.1 20.3 L 660.1 0.1 Z M 664.9 0.1 L 668.7 0.1 L 672 16.9 L 672.1 16.9 L 672.1 0.1 L 674.7 0.1 L 674.7 20.3 L 670.7 20.3 L 667.4 3 L 667.3 3 L 667.3 20.3 L 664.9 20.3 L 664.9 0.1 Z M 676.5 14.4 L 679.3 14.4 C 679.3 14.4 679.28 16.07 679.3 16.1 C 679.3 17.4 679.8 18.3 680.9 18.3 C 682.4 18.3 682.7 17.2 682.7 15.9 C 682.7 14.2 682.7 13.7 679.8 10.8 C 678 9 676.5 7.4 676.5 4.6 C 676.5 1.3 678 -0.1 681.1 -0.1 C 682.6 -0.1 683.7 0.4 684.3 1 C 684.8 1.5 685.2 2.2 685.2 3.6 C 685.16 3.58 685.2 5.5 685.2 5.5 L 682.5 5.5 C 682.5 5.5 682.53 3.89 682.5 3.9 C 682.5 2.7 682 2.1 681 2.1 C 679.8 2.1 679.3 2.7 679.3 4.3 C 679.3 5.7 679.6 6.5 682.1 9.2 C 684.9 12 685.4 13 685.4 15.5 C 685.4 18.6 684.1 20.4 680.8 20.4 C 678.2 20.4 676.5 19.3 676.5 16.8 C 676.48 16.83 676.5 14.4 676.5 14.4 Z M 688.7 1.4 C 688.7 1.4 688.69 1.38 688.7 1.4 C 688.3 1.8 688 2.1 687.4 2.6 C 687.4 2.6 687.4 1.1 687.4 1.1 C 687.8 0.8 688.7 -0.3 688.9 -0.8 C 688.88 -0.84 690.3 -0.8 690.3 -0.8 L 690.3 10.9 L 688.7 10.9 L 688.7 1.4 Z M 693 9 L 694.7 9 L 693.8 11.9 L 692.7 11.9 L 693 9 Z M 695.8 9.4 C 695.8 9.4 698.17 4.94 698.2 4.9 C 698.8 3.7 699.1 2.9 699.1 1.6 C 699.1 0.5 698.8 0.2 698.3 0.2 C 697.7 0.2 697.5 0.6 697.5 1.4 C 697.49 1.43 697.5 2.2 697.5 2.2 L 696 2.2 C 696 2.2 695.95 1.28 696 1.3 C 696 -0.3 696.4 -0.9 698.2 -0.9 C 700.1 -0.9 700.6 -0.3 700.6 1.7 C 700.6 3 700.5 3.7 699.9 5 C 699.87 4.97 697.4 9.6 697.4 9.6 L 700.7 9.6 L 700.7 10.9 L 695.8 10.9 L 695.8 9.4 Z " stroke="none" fill="#003c71"/>  </g></svg>