<?xml version="1.0" standalone="no"?><!DOCTYPE svg PUBLIC "-//W3C//DTD SVG 1.1//EN" "http://www.w3.org/Graphics/SVG/1.1/DTD/svg11.dtd"><svg xmlns="http://www.w3.org/2000/svg" version="1.1" width="13.1px" height="51.7px" viewBox="0 -8 13.1 51.7" style="top:-8px">  <desc>2</desc>  <defs/>  <g id="Polygon192035">    <path d="M 1.2 22.1 C 1.2 22.1 6.36 12.51 6.4 12.5 C 7.8 9.9 8.3 8.1 8.3 5.4 C 8.3 3.1 7.7 2.4 6.6 2.4 C 5.2 2.4 4.9 3.2 4.9 5 C 4.89 4.96 4.9 6.6 4.9 6.6 L 1.6 6.6 C 1.6 6.6 1.58 4.64 1.6 4.6 C 1.6 1.2 2.6 -0.1 6.5 -0.1 C 10.6 -0.1 11.6 1.3 11.6 5.5 C 11.6 8.4 11.4 9.9 10 12.6 C 10.02 12.58 4.7 22.5 4.7 22.5 L 11.9 22.5 L 11.9 25.4 L 1.2 25.4 L 1.2 22.1 Z " stroke="none" fill="#fff"/>  </g></svg>