<?xml version="1.0" standalone="no"?><!DOCTYPE svg PUBLIC "-//W3C//DTD SVG 1.1//EN" "http://www.w3.org/Graphics/SVG/1.1/DTD/svg11.dtd"><svg xmlns="http://www.w3.org/2000/svg" version="1.1" width="744px" height="41.7px" viewBox="0 -7 744 41.7" style="top:-7px">  <desc>ANDEMBRY®: Early onset, protection evident from the first dose1,2*†</desc>  <defs/>  <g id="Polygon196343">    <path d="M 4.8 0.1 L 8 0.1 L 12.1 20.3 L 9.3 20.3 L 8.4 15.1 L 4 15.1 L 3.1 20.3 L 0.3 20.3 L 4.8 0.1 Z M 4.5 12.8 L 8 12.8 L 6.3 3 L 6.2 3 L 4.5 12.8 Z M 13.5 0.1 L 17.3 0.1 L 20.6 16.9 L 20.7 16.9 L 20.7 0.1 L 23.3 0.1 L 23.3 20.3 L 19.3 20.3 L 16 3 L 15.9 3 L 15.9 20.3 L 13.5 20.3 L 13.5 0.1 Z M 28.2 17.9 C 28.2 17.9 29.54 17.92 29.5 17.9 C 31.6 17.9 32 16.8 32 13.4 C 32 13.4 32 6.4 32 6.4 C 32 3.4 31.7 2.4 29.3 2.4 C 29.32 2.41 28.2 2.4 28.2 2.4 L 28.2 17.9 Z M 25.4 0.1 C 25.4 0.1 29.9 0.06 29.9 0.1 C 34.4 0.1 34.8 1.6 34.8 7.4 C 34.8 7.4 34.8 13.5 34.8 13.5 C 34.8 18.6 33.9 20.3 29.5 20.3 C 29.46 20.27 25.4 20.3 25.4 20.3 L 25.4 0.1 Z M 36.8 0.1 L 44.4 0.1 L 44.4 2.4 L 39.6 2.4 L 39.6 8.7 L 44.1 8.7 L 44.1 11.1 L 39.6 11.1 L 39.6 17.9 L 44.4 17.9 L 44.4 20.3 L 36.8 20.3 L 36.8 0.1 Z M 45.6 0.1 L 50.1 0.1 L 52.6 15.5 L 52.7 15.5 L 55.3 0.1 L 59.6 0.1 L 59.6 20.3 L 57 20.3 L 57 2.1 L 56.9 2.1 L 54.1 20.3 L 51.3 20.3 L 48.1 2.1 L 48.1 2.1 L 48.1 20.3 L 45.6 20.3 L 45.6 0.1 Z M 61.7 0.1 C 61.7 0.1 66.55 0.06 66.6 0.1 C 70 0.1 70.6 1.3 70.6 5 C 70.6 8.9 69.9 9.6 68 9.8 C 68 9.8 68 9.9 68 9.9 C 70.3 10.3 70.7 11.1 70.7 14.5 C 70.7 18.9 70.2 20.3 66.1 20.3 C 66.08 20.27 61.7 20.3 61.7 20.3 L 61.7 0.1 Z M 64.5 18.1 C 64.5 18.1 66.22 18.09 66.2 18.1 C 67.8 18.1 68.1 17.6 68.1 14.4 C 68.1 11.4 67.8 10.9 66.3 10.9 C 66.3 10.92 64.5 10.9 64.5 10.9 L 64.5 18.1 Z M 64.5 8.7 C 64.5 8.7 66.11 8.74 66.1 8.7 C 67.8 8.7 68 8.4 68 5.1 C 68 2.8 67.6 2.2 65.8 2.2 C 65.8 2.24 64.5 2.2 64.5 2.2 L 64.5 8.7 Z M 72.6 0.1 C 72.6 0.1 76.91 0.06 76.9 0.1 C 81 0.1 81.4 1.1 81.4 5.6 C 81.4 8.3 81.1 9.5 78.8 10.2 C 78.8 10.2 78.8 10.2 78.8 10.2 C 80.7 10.4 81.3 11.4 81.3 13.3 C 81.3 13.3 81.3 17.7 81.3 17.7 C 81.3 18.4 81.3 19.4 81.5 20.3 C 81.5 20.3 78.8 20.3 78.8 20.3 C 78.6 19.8 78.5 19.3 78.5 18.5 C 78.5 18.5 78.5 13.9 78.5 13.9 C 78.5 12 78.2 11.5 76.3 11.5 C 76.33 11.48 75.4 11.5 75.4 11.5 L 75.4 20.3 L 72.6 20.3 L 72.6 0.1 Z M 75.4 9.1 C 75.4 9.1 76.1 9.13 76.1 9.1 C 78.3 9.1 78.6 8.7 78.6 5.7 C 78.6 2.7 78.5 2.4 76.7 2.4 C 76.72 2.41 75.4 2.4 75.4 2.4 L 75.4 9.1 Z M 81.6 0.1 L 84.4 0.1 L 86.9 8.6 L 86.9 8.6 L 89.7 0.1 L 92.2 0.1 L 88.3 12 L 88.3 20.3 L 85.5 20.3 L 85.5 12 L 81.6 0.1 Z M 99.1 -0.9 C 102.4 -0.9 105.1 1.7 105.1 5.1 C 105.1 8.4 102.4 11 99.1 11 C 95.8 11 93.1 8.4 93.1 5.1 C 93.1 1.7 95.8 -0.9 99.1 -0.9 Z M 99.1 9.9 C 101.8 9.9 103.8 7.7 103.8 5.1 C 103.8 2.4 101.8 0.2 99.1 0.2 C 96.4 0.2 94.4 2.4 94.4 5.1 C 94.4 7.7 96.4 9.9 99.1 9.9 Z M 98.8 5.5 L 97.7 5.5 L 97.7 8.5 L 96.5 8.5 L 96.5 1.6 C 96.5 1.6 99.21 1.63 99.2 1.6 C 100.9 1.6 101.8 2.2 101.8 3.6 C 101.8 4.8 101 5.3 100 5.4 C 100.04 5.4 101.9 8.5 101.9 8.5 L 100.6 8.5 L 98.8 5.5 Z M 98.9 4.5 C 99.8 4.5 100.5 4.5 100.5 3.5 C 100.5 2.7 99.7 2.6 99 2.6 C 99.01 2.61 97.7 2.6 97.7 2.6 L 97.7 4.5 C 97.7 4.5 98.91 4.53 98.9 4.5 Z M 106.6 17 L 109.9 17 L 109.9 20.3 L 106.6 20.3 L 106.6 17 Z M 106.6 6.2 L 109.9 6.2 L 109.9 9.5 L 106.6 9.5 L 106.6 6.2 Z M 115.6 0.1 L 123.2 0.1 L 123.2 2.4 L 118.4 2.4 L 118.4 8.7 L 122.9 8.7 L 122.9 11.1 L 118.4 11.1 L 118.4 17.9 L 123.2 17.9 L 123.2 20.3 L 115.6 20.3 L 115.6 0.1 Z M 128.1 0.1 L 131.4 0.1 L 135.5 20.3 L 132.7 20.3 L 131.7 15.1 L 127.4 15.1 L 126.5 20.3 L 123.7 20.3 L 128.1 0.1 Z M 127.8 12.8 L 131.4 12.8 L 129.6 3 L 129.6 3 L 127.8 12.8 Z M 136.8 0.1 C 136.8 0.1 141.16 0.06 141.2 0.1 C 145.2 0.1 145.7 1.1 145.7 5.6 C 145.7 8.3 145.3 9.5 143 10.2 C 143 10.2 143 10.2 143 10.2 C 144.9 10.4 145.6 11.4 145.6 13.3 C 145.6 13.3 145.6 17.7 145.6 17.7 C 145.6 18.4 145.6 19.4 145.7 20.3 C 145.7 20.3 143.1 20.3 143.1 20.3 C 142.8 19.8 142.8 19.3 142.8 18.5 C 142.8 18.5 142.8 13.9 142.8 13.9 C 142.8 12 142.4 11.5 140.6 11.5 C 140.57 11.48 139.6 11.5 139.6 11.5 L 139.6 20.3 L 136.8 20.3 L 136.8 0.1 Z M 139.6 9.1 C 139.6 9.1 140.34 9.13 140.3 9.1 C 142.6 9.1 142.9 8.7 142.9 5.7 C 142.9 2.7 142.7 2.4 141 2.4 C 140.96 2.41 139.6 2.4 139.6 2.4 L 139.6 9.1 Z M 147.7 0.1 L 150.5 0.1 L 150.5 17.9 L 155.2 17.9 L 155.2 20.3 L 147.7 20.3 L 147.7 0.1 Z M 152.8 0.1 L 155.6 0.1 L 158 8.6 L 158.1 8.6 L 160.9 0.1 L 163.4 0.1 L 159.5 12 L 159.5 20.3 L 156.7 20.3 L 156.7 12 L 152.8 0.1 Z M 172.7 15.6 C 172.7 17.3 173.5 18.3 174.7 18.3 C 175.8 18.3 176.6 17.3 176.6 15.6 C 176.6 15.6 176.6 5 176.6 5 C 176.6 3 176 2.1 174.7 2.1 C 173.4 2.1 172.7 3 172.7 5 C 172.7 5 172.7 15.6 172.7 15.6 Z M 169.9 5.2 C 169.9 2.4 170.9 -0.1 174.7 -0.1 C 178.3 -0.1 179.4 1.8 179.4 4.9 C 179.4 4.9 179.4 15.1 179.4 15.1 C 179.4 17.9 178.5 20.4 174.7 20.4 C 171.1 20.4 169.9 18.6 169.9 15.4 C 169.9 15.4 169.9 5.2 169.9 5.2 Z M 181.4 0.1 L 185.3 0.1 L 188.6 16.9 L 188.6 16.9 L 188.6 0.1 L 191.3 0.1 L 191.3 20.3 L 187.2 20.3 L 183.9 3 L 183.9 3 L 183.9 20.3 L 181.4 20.3 L 181.4 0.1 Z M 193 14.4 L 195.8 14.4 C 195.8 14.4 195.84 16.07 195.8 16.1 C 195.8 17.4 196.3 18.3 197.5 18.3 C 198.9 18.3 199.3 17.2 199.3 15.9 C 199.3 14.2 199.2 13.7 196.3 10.8 C 194.5 9 193 7.4 193 4.6 C 193 1.3 194.6 -0.1 197.6 -0.1 C 199.1 -0.1 200.2 0.4 200.9 1 C 201.4 1.5 201.7 2.2 201.7 3.6 C 201.72 3.58 201.7 5.5 201.7 5.5 L 199.1 5.5 C 199.1 5.5 199.09 3.89 199.1 3.9 C 199.1 2.7 198.6 2.1 197.5 2.1 C 196.4 2.1 195.8 2.7 195.8 4.3 C 195.8 5.7 196.1 6.5 198.7 9.2 C 201.4 12 201.9 13 201.9 15.5 C 201.9 18.6 200.7 20.4 197.4 20.4 C 194.8 20.4 193 19.3 193 16.8 C 193.04 16.83 193 14.4 193 14.4 Z M 203.7 0.1 L 211.3 0.1 L 211.3 2.4 L 206.5 2.4 L 206.5 8.7 L 211 8.7 L 211 11.1 L 206.5 11.1 L 206.5 17.9 L 211.3 17.9 L 211.3 20.3 L 203.7 20.3 L 203.7 0.1 Z M 211.7 0.1 L 221.2 0.1 L 221.2 2.4 L 217.8 2.4 L 217.8 20.3 L 215 20.3 L 215 2.4 L 211.7 2.4 L 211.7 0.1 Z M 220.5 17 L 223.5 17 L 221.9 22 L 219.9 22 L 220.5 17 Z M 231.8 9.1 C 231.8 9.1 233.27 9.13 233.3 9.1 C 235.2 9.1 235.4 8.8 235.4 5.8 C 235.4 2.7 235.2 2.4 233.3 2.4 C 233.27 2.41 231.8 2.4 231.8 2.4 L 231.8 9.1 Z M 229 0.1 C 229 0.1 233.64 0.06 233.6 0.1 C 237.4 0.1 238.2 1.1 238.2 5.8 C 238.2 10.4 237.4 11.5 233.6 11.5 C 233.64 11.48 231.8 11.5 231.8 11.5 L 231.8 20.3 L 229 20.3 L 229 0.1 Z M 239.9 0.1 C 239.9 0.1 244.25 0.06 244.3 0.1 C 248.3 0.1 248.8 1.1 248.8 5.6 C 248.8 8.3 248.4 9.5 246.1 10.2 C 246.1 10.2 246.1 10.2 246.1 10.2 C 248 10.4 248.6 11.4 248.6 13.3 C 248.6 13.3 248.6 17.7 248.6 17.7 C 248.6 18.4 248.6 19.4 248.8 20.3 C 248.8 20.3 246.2 20.3 246.2 20.3 C 245.9 19.8 245.8 19.3 245.8 18.5 C 245.8 18.5 245.8 13.9 245.8 13.9 C 245.8 12 245.5 11.5 243.7 11.5 C 243.66 11.48 242.7 11.5 242.7 11.5 L 242.7 20.3 L 239.9 20.3 L 239.9 0.1 Z M 242.7 9.1 C 242.7 9.1 243.44 9.13 243.4 9.1 C 245.7 9.1 246 8.7 246 5.7 C 246 2.7 245.8 2.4 244.1 2.4 C 244.05 2.41 242.7 2.4 242.7 2.4 L 242.7 9.1 Z M 253.5 15.6 C 253.5 17.3 254.3 18.3 255.5 18.3 C 256.6 18.3 257.4 17.3 257.4 15.6 C 257.4 15.6 257.4 5 257.4 5 C 257.4 3 256.7 2.1 255.5 2.1 C 254.2 2.1 253.5 3 253.5 5 C 253.5 5 253.5 15.6 253.5 15.6 Z M 250.7 5.2 C 250.7 2.4 251.6 -0.1 255.5 -0.1 C 259.1 -0.1 260.2 1.8 260.2 4.9 C 260.2 4.9 260.2 15.1 260.2 15.1 C 260.2 17.9 259.3 20.4 255.5 20.4 C 251.9 20.4 250.7 18.6 250.7 15.4 C 250.7 15.4 250.7 5.2 250.7 5.2 Z M 261 0.1 L 270.5 0.1 L 270.5 2.4 L 267.2 2.4 L 267.2 20.3 L 264.4 20.3 L 264.4 2.4 L 261 2.4 L 261 0.1 Z M 271.7 0.1 L 279.3 0.1 L 279.3 2.4 L 274.5 2.4 L 274.5 8.7 L 279.1 8.7 L 279.1 11.1 L 274.5 11.1 L 274.5 17.9 L 279.3 17.9 L 279.3 20.3 L 271.7 20.3 L 271.7 0.1 Z M 280.2 5.2 C 280.2 2.4 281.2 -0.1 285 -0.1 C 287.7 -0.1 289 1.3 289 3.6 C 289.02 3.56 289 5.6 289 5.6 L 286.4 5.6 C 286.4 5.6 286.39 4.17 286.4 4.2 C 286.4 2.9 285.9 2.1 284.8 2.1 C 283.3 2.1 283 3.1 283 5.5 C 283 5.5 283 15.5 283 15.5 C 283 17.8 283.8 18.3 284.7 18.3 C 285.7 18.3 286.4 17.5 286.4 15.8 C 286.39 15.85 286.4 14.4 286.4 14.4 L 289 14.4 C 289 14.4 289.02 16.69 289 16.7 C 289 18.8 288.2 20.4 284.9 20.4 C 281.4 20.4 280.2 18.6 280.2 15.4 C 280.2 15.4 280.2 5.2 280.2 5.2 Z M 289.5 0.1 L 299 0.1 L 299 2.4 L 295.7 2.4 L 295.7 20.3 L 292.9 20.3 L 292.9 2.4 L 289.5 2.4 L 289.5 0.1 Z M 300.2 0.1 L 303 0.1 L 303 20.3 L 300.2 20.3 L 300.2 0.1 Z M 307.7 15.6 C 307.7 17.3 308.5 18.3 309.6 18.3 C 310.8 18.3 311.6 17.3 311.6 15.6 C 311.6 15.6 311.6 5 311.6 5 C 311.6 3 310.9 2.1 309.6 2.1 C 308.3 2.1 307.7 3 307.7 5 C 307.7 5 307.7 15.6 307.7 15.6 Z M 304.9 5.2 C 304.9 2.4 305.8 -0.1 309.6 -0.1 C 313.2 -0.1 314.4 1.8 314.4 4.9 C 314.4 4.9 314.4 15.1 314.4 15.1 C 314.4 17.9 313.4 20.4 309.6 20.4 C 306 20.4 304.9 18.6 304.9 15.4 C 304.9 15.4 304.9 5.2 304.9 5.2 Z M 316.3 0.1 L 320.2 0.1 L 323.5 16.9 L 323.6 16.9 L 323.6 0.1 L 326.2 0.1 L 326.2 20.3 L 322.2 20.3 L 318.9 3 L 318.8 3 L 318.8 20.3 L 316.3 20.3 L 316.3 0.1 Z M 333.5 0.1 L 341.1 0.1 L 341.1 2.4 L 336.3 2.4 L 336.3 8.7 L 340.8 8.7 L 340.8 11.1 L 336.3 11.1 L 336.3 17.9 L 341.1 17.9 L 341.1 20.3 L 333.5 20.3 L 333.5 0.1 Z M 341.5 0.1 L 344.3 0.1 L 347.2 16.1 L 347.3 16.1 L 350.2 0.1 L 353 0.1 L 348.9 20.3 L 345.6 20.3 L 341.5 0.1 Z M 354.1 0.1 L 356.9 0.1 L 356.9 20.3 L 354.1 20.3 L 354.1 0.1 Z M 361.7 17.9 C 361.7 17.9 363.08 17.92 363.1 17.9 C 365.2 17.9 365.5 16.8 365.5 13.4 C 365.5 13.4 365.5 6.4 365.5 6.4 C 365.5 3.4 365.2 2.4 362.9 2.4 C 362.86 2.41 361.7 2.4 361.7 2.4 L 361.7 17.9 Z M 358.9 0.1 C 358.9 0.1 363.44 0.06 363.4 0.1 C 368 0.1 368.3 1.6 368.3 7.4 C 368.3 7.4 368.3 13.5 368.3 13.5 C 368.3 18.6 367.4 20.3 363 20.3 C 363 20.27 358.9 20.3 358.9 20.3 L 358.9 0.1 Z M 370.3 0.1 L 377.9 0.1 L 377.9 2.4 L 373.1 2.4 L 373.1 8.7 L 377.7 8.7 L 377.7 11.1 L 373.1 11.1 L 373.1 17.9 L 377.9 17.9 L 377.9 20.3 L 370.3 20.3 L 370.3 0.1 Z M 379.2 0.1 L 383 0.1 L 386.3 16.9 L 386.4 16.9 L 386.4 0.1 L 389 0.1 L 389 20.3 L 385 20.3 L 381.7 3 L 381.6 3 L 381.6 20.3 L 379.2 20.3 L 379.2 0.1 Z M 390.2 0.1 L 399.7 0.1 L 399.7 2.4 L 396.4 2.4 L 396.4 20.3 L 393.6 20.3 L 393.6 2.4 L 390.2 2.4 L 390.2 0.1 Z M 406.1 0.1 L 413.8 0.1 L 413.8 2.4 L 408.9 2.4 L 408.9 8.7 L 413.5 8.7 L 413.5 11.1 L 408.9 11.1 L 408.9 20.3 L 406.1 20.3 L 406.1 0.1 Z M 415 0.1 C 415 0.1 419.3 0.06 419.3 0.1 C 423.4 0.1 423.8 1.1 423.8 5.6 C 423.8 8.3 423.4 9.5 421.2 10.2 C 421.2 10.2 421.2 10.2 421.2 10.2 C 423.1 10.4 423.7 11.4 423.7 13.3 C 423.7 13.3 423.7 17.7 423.7 17.7 C 423.7 18.4 423.7 19.4 423.9 20.3 C 423.9 20.3 421.2 20.3 421.2 20.3 C 421 19.8 420.9 19.3 420.9 18.5 C 420.9 18.5 420.9 13.9 420.9 13.9 C 420.9 12 420.6 11.5 418.7 11.5 C 418.71 11.48 417.8 11.5 417.8 11.5 L 417.8 20.3 L 415 20.3 L 415 0.1 Z M 417.8 9.1 C 417.8 9.1 418.49 9.13 418.5 9.1 C 420.7 9.1 421 8.7 421 5.7 C 421 2.7 420.8 2.4 419.1 2.4 C 419.11 2.41 417.8 2.4 417.8 2.4 L 417.8 9.1 Z M 428.6 15.6 C 428.6 17.3 429.4 18.3 430.5 18.3 C 431.7 18.3 432.5 17.3 432.5 15.6 C 432.5 15.6 432.5 5 432.5 5 C 432.5 3 431.8 2.1 430.5 2.1 C 429.2 2.1 428.6 3 428.6 5 C 428.6 5 428.6 15.6 428.6 15.6 Z M 425.8 5.2 C 425.8 2.4 426.7 -0.1 430.5 -0.1 C 434.1 -0.1 435.3 1.8 435.3 4.9 C 435.3 4.9 435.3 15.1 435.3 15.1 C 435.3 17.9 434.3 20.4 430.5 20.4 C 426.9 20.4 425.8 18.6 425.8 15.4 C 425.8 15.4 425.8 5.2 425.8 5.2 Z M 437.3 0.1 L 441.7 0.1 L 444.3 15.5 L 444.3 15.5 L 446.9 0.1 L 451.3 0.1 L 451.3 20.3 L 448.6 20.3 L 448.6 2.1 L 448.6 2.1 L 445.7 20.3 L 442.9 20.3 L 439.8 2.1 L 439.7 2.1 L 439.7 20.3 L 437.3 20.3 L 437.3 0.1 Z M 456.6 0.1 L 466.1 0.1 L 466.1 2.4 L 462.8 2.4 L 462.8 20.3 L 460 20.3 L 460 2.4 L 456.6 2.4 L 456.6 0.1 Z M 467.3 0.1 L 470.1 0.1 L 470.1 8.7 L 473.9 8.7 L 473.9 0.1 L 476.7 0.1 L 476.7 20.3 L 473.9 20.3 L 473.9 11.1 L 470.1 11.1 L 470.1 20.3 L 467.3 20.3 L 467.3 0.1 Z M 478.7 0.1 L 486.4 0.1 L 486.4 2.4 L 481.5 2.4 L 481.5 8.7 L 486.1 8.7 L 486.1 11.1 L 481.5 11.1 L 481.5 17.9 L 486.4 17.9 L 486.4 20.3 L 478.7 20.3 L 478.7 0.1 Z M 492.8 0.1 L 500.4 0.1 L 500.4 2.4 L 495.6 2.4 L 495.6 8.7 L 500.1 8.7 L 500.1 11.1 L 495.6 11.1 L 495.6 20.3 L 492.8 20.3 L 492.8 0.1 Z M 501.5 0.1 L 504.3 0.1 L 504.3 20.3 L 501.5 20.3 L 501.5 0.1 Z M 506.3 0.1 C 506.3 0.1 510.64 0.06 510.6 0.1 C 514.7 0.1 515.1 1.1 515.1 5.6 C 515.1 8.3 514.8 9.5 512.5 10.2 C 512.5 10.2 512.5 10.2 512.5 10.2 C 514.4 10.4 515 11.4 515 13.3 C 515 13.3 515 17.7 515 17.7 C 515 18.4 515 19.4 515.2 20.3 C 515.2 20.3 512.6 20.3 512.6 20.3 C 512.3 19.8 512.2 19.3 512.2 18.5 C 512.2 18.5 512.2 13.9 512.2 13.9 C 512.2 12 511.9 11.5 510 11.5 C 510.05 11.48 509.1 11.5 509.1 11.5 L 509.1 20.3 L 506.3 20.3 L 506.3 0.1 Z M 509.1 9.1 C 509.1 9.1 509.82 9.13 509.8 9.1 C 512 9.1 512.3 8.7 512.3 5.7 C 512.3 2.7 512.2 2.4 510.4 2.4 C 510.44 2.41 509.1 2.4 509.1 2.4 L 509.1 9.1 Z M 516.9 14.4 L 519.7 14.4 C 519.7 14.4 519.68 16.07 519.7 16.1 C 519.7 17.4 520.2 18.3 521.3 18.3 C 522.8 18.3 523.2 17.2 523.2 15.9 C 523.2 14.2 523.1 13.7 520.2 10.8 C 518.4 9 516.9 7.4 516.9 4.6 C 516.9 1.3 518.4 -0.1 521.5 -0.1 C 523 -0.1 524.1 0.4 524.7 1 C 525.2 1.5 525.6 2.2 525.6 3.6 C 525.56 3.58 525.6 5.5 525.6 5.5 L 522.9 5.5 C 522.9 5.5 522.93 3.89 522.9 3.9 C 522.9 2.7 522.5 2.1 521.4 2.1 C 520.2 2.1 519.7 2.7 519.7 4.3 C 519.7 5.7 520 6.5 522.5 9.2 C 525.3 12 525.8 13 525.8 15.5 C 525.8 18.6 524.6 20.4 521.2 20.4 C 518.6 20.4 516.9 19.3 516.9 16.8 C 516.88 16.83 516.9 14.4 516.9 14.4 Z M 526.7 0.1 L 536.2 0.1 L 536.2 2.4 L 532.8 2.4 L 532.8 20.3 L 530 20.3 L 530 2.4 L 526.7 2.4 L 526.7 0.1 Z M 545.4 17.9 C 545.4 17.9 546.76 17.92 546.8 17.9 C 548.8 17.9 549.2 16.8 549.2 13.4 C 549.2 13.4 549.2 6.4 549.2 6.4 C 549.2 3.4 548.9 2.4 546.5 2.4 C 546.53 2.41 545.4 2.4 545.4 2.4 L 545.4 17.9 Z M 542.6 0.1 C 542.6 0.1 547.12 0.06 547.1 0.1 C 551.7 0.1 552 1.6 552 7.4 C 552 7.4 552 13.5 552 13.5 C 552 18.6 551.1 20.3 546.7 20.3 C 546.67 20.27 542.6 20.3 542.6 20.3 L 542.6 0.1 Z M 556.7 15.6 C 556.7 17.3 557.5 18.3 558.7 18.3 C 559.8 18.3 560.6 17.3 560.6 15.6 C 560.6 15.6 560.6 5 560.6 5 C 560.6 3 559.9 2.1 558.7 2.1 C 557.4 2.1 556.7 3 556.7 5 C 556.7 5 556.7 15.6 556.7 15.6 Z M 553.9 5.2 C 553.9 2.4 554.8 -0.1 558.7 -0.1 C 562.3 -0.1 563.4 1.8 563.4 4.9 C 563.4 4.9 563.4 15.1 563.4 15.1 C 563.4 17.9 562.5 20.4 558.7 20.4 C 555.1 20.4 553.9 18.6 553.9 15.4 C 553.9 15.4 553.9 5.2 553.9 5.2 Z M 565.1 14.4 L 567.9 14.4 C 567.9 14.4 567.9 16.07 567.9 16.1 C 567.9 17.4 568.4 18.3 569.5 18.3 C 571 18.3 571.4 17.2 571.4 15.9 C 571.4 14.2 571.3 13.7 568.4 10.8 C 566.6 9 565.1 7.4 565.1 4.6 C 565.1 1.3 566.6 -0.1 569.7 -0.1 C 571.2 -0.1 572.3 0.4 573 1 C 573.4 1.5 573.8 2.2 573.8 3.6 C 573.78 3.58 573.8 5.5 573.8 5.5 L 571.1 5.5 C 571.1 5.5 571.14 3.89 571.1 3.9 C 571.1 2.7 570.7 2.1 569.6 2.1 C 568.4 2.1 567.9 2.7 567.9 4.3 C 567.9 5.7 568.2 6.5 570.8 9.2 C 573.5 12 574 13 574 15.5 C 574 18.6 572.8 20.4 569.4 20.4 C 566.9 20.4 565.1 19.3 565.1 16.8 C 565.1 16.83 565.1 14.4 565.1 14.4 Z M 575.8 0.1 L 583.4 0.1 L 583.4 2.4 L 578.6 2.4 L 578.6 8.7 L 583.1 8.7 L 583.1 11.1 L 578.6 11.1 L 578.6 17.9 L 583.4 17.9 L 583.4 20.3 L 575.8 20.3 L 575.8 0.1 Z M 586.2 1.4 C 586.2 1.4 586.13 1.38 586.1 1.4 C 585.8 1.8 585.5 2.1 584.9 2.6 C 584.9 2.6 584.9 1.1 584.9 1.1 C 585.2 0.8 586.1 -0.3 586.3 -0.8 C 586.32 -0.84 587.7 -0.8 587.7 -0.8 L 587.7 10.9 L 586.2 10.9 L 586.2 1.4 Z M 590.5 9 L 592.2 9 L 591.3 11.9 L 590.1 11.9 L 590.5 9 Z M 593.2 9.4 C 593.2 9.4 595.61 4.94 595.6 4.9 C 596.3 3.7 596.5 2.9 596.5 1.6 C 596.5 0.5 596.2 0.2 595.7 0.2 C 595.1 0.2 594.9 0.6 594.9 1.4 C 594.92 1.43 594.9 2.2 594.9 2.2 L 593.4 2.2 C 593.4 2.2 593.39 1.28 593.4 1.3 C 593.4 -0.3 593.9 -0.9 595.7 -0.9 C 597.6 -0.9 598.1 -0.3 598.1 1.7 C 598.1 3 597.9 3.7 597.3 5 C 597.31 4.97 594.8 9.6 594.8 9.6 L 598.2 9.6 L 598.2 10.9 L 593.2 10.9 L 593.2 9.4 Z M 599.1 2.7 L 599.8 1.3 L 602.3 3 L 602.2 0.1 L 603.6 0.1 L 603.5 3 L 605.9 1.3 L 606.7 2.7 L 603.9 4 L 606.7 5.3 L 605.9 6.7 L 603.5 5 L 603.6 8 L 602.2 8 L 602.3 5 L 599.8 6.7 L 599.1 5.3 L 601.9 4 L 599.1 2.7 Z M 609.3 3.2 L 607.3 3.2 L 607.3 1.8 L 609.3 1.8 L 609.3 -0.8 L 610.8 -0.8 L 610.8 1.8 L 612.8 1.8 L 612.8 3.2 L 610.8 3.2 L 610.8 10.9 L 609.3 10.9 L 609.3 3.2 Z " stroke="none" fill="#003c71"/>  </g></svg>