<?xml version="1.0" standalone="no"?><!DOCTYPE svg PUBLIC "-//W3C//DTD SVG 1.1//EN" "http://www.w3.org/Graphics/SVG/1.1/DTD/svg11.dtd"><svg xmlns="http://www.w3.org/2000/svg" version="1.1" width="133.4px" height="51.8px" viewBox="0 -4 133.4 51.8" style="top:-4px">  <desc>Adapted from Craig et al. Lancet. 2023.1</desc>  <defs/>  <g id="Polygon197810">    <path d="M 3.5 16.4 C 3.5 14.9 3.1 14.7 2.5 14.7 C 2 14.7 1.5 15 1.5 16.4 C 1.5 16.4 3.5 16.4 3.5 16.4 Z M 1.5 17 C 1.5 18.4 1.9 18.7 2.5 18.7 C 3.1 18.7 3.4 18.2 3.4 17.7 C 3.4 17.7 4.3 17.7 4.3 17.7 C 4.3 18.8 3.6 19.3 2.6 19.3 C 1.5 19.3 0.6 19 0.6 16.8 C 0.6 15.3 0.8 14.1 2.6 14.1 C 4 14.1 4.4 14.9 4.4 16.6 C 4.36 16.55 4.4 17 4.4 17 C 4.4 17 1.52 16.98 1.5 17 Z M 5.8 14.2 L 5.8 13.2 L 6.6 12.9 L 6.6 14.2 L 7.7 14.2 L 7.7 14.8 L 6.6 14.8 C 6.6 14.8 6.63 17.9 6.6 17.9 C 6.6 18.2 6.6 18.6 7.4 18.6 C 7.4 18.6 7.6 18.6 7.7 18.6 C 7.7 18.6 7.7 19.2 7.7 19.2 C 7.5 19.2 7.2 19.3 6.9 19.3 C 6.2 19.3 5.8 19 5.8 18.4 C 5.81 18.4 5.8 14.8 5.8 14.8 L 5 14.8 L 5 14.2 L 5.8 14.2 Z M 11.5 17.7 C 11.5 18.2 11.7 18.7 12.3 18.7 C 12.8 18.7 13.4 18.4 13.3 16.7 C 12.5 16.7 11.5 16.7 11.5 17.7 Z M 13.3 18.5 C 13.3 18.5 13.3 18.51 13.3 18.5 C 13.1 19.1 12.7 19.3 12 19.3 C 11 19.3 10.7 18.7 10.7 17.7 C 10.7 16.2 12.1 16.1 13.3 16.1 C 13.3 15.4 13.3 14.7 12.4 14.7 C 11.9 14.7 11.6 15.1 11.7 15.6 C 11.7 15.6 10.8 15.6 10.8 15.6 C 10.8 14.5 11.4 14.1 12.5 14.1 C 13.8 14.1 14.1 14.8 14.1 15.6 C 14.1 15.6 14.1 18 14.1 18 C 14.1 18.4 14.2 18.8 14.2 19.2 C 14.22 19.24 13.3 19.2 13.3 19.2 L 13.3 18.5 Z M 16.5 19.2 L 15.7 19.2 L 15.7 12 L 16.5 12 L 16.5 19.2 Z M 18.8 19.2 L 17.9 19.2 L 17.9 18.2 L 18.8 18.2 L 18.8 19.2 Z M 22.5 19.2 L 22.5 12 L 23.4 12 L 23.4 18.4 L 26 18.4 L 26 19.2 L 22.5 19.2 Z M 27.6 17.7 C 27.6 18.2 27.8 18.7 28.4 18.7 C 28.9 18.7 29.5 18.4 29.4 16.7 C 28.6 16.7 27.6 16.7 27.6 17.7 Z M 29.4 18.5 C 29.4 18.5 29.4 18.51 29.4 18.5 C 29.1 19.1 28.8 19.3 28.1 19.3 C 27.1 19.3 26.7 18.7 26.7 17.7 C 26.7 16.2 28.2 16.1 29.4 16.1 C 29.4 15.4 29.4 14.7 28.5 14.7 C 28 14.7 27.7 15.1 27.8 15.6 C 27.8 15.6 26.9 15.6 26.9 15.6 C 26.9 14.5 27.5 14.1 28.6 14.1 C 29.9 14.1 30.2 14.8 30.2 15.6 C 30.2 15.6 30.2 18 30.2 18 C 30.2 18.4 30.3 18.8 30.3 19.2 C 30.32 19.24 29.4 19.2 29.4 19.2 L 29.4 18.5 Z M 34.6 19.2 C 34.6 19.2 34.56 15.74 34.6 15.7 C 34.6 15.2 34.4 14.8 33.7 14.8 C 32.8 14.8 32.6 15.6 32.6 16.2 C 32.64 16.25 32.6 19.2 32.6 19.2 L 31.8 19.2 C 31.8 19.2 31.82 15.24 31.8 15.2 C 31.8 14.9 31.8 14.5 31.8 14.2 C 31.77 14.19 32.6 14.2 32.6 14.2 L 32.6 14.8 C 32.6 14.8 32.68 14.84 32.7 14.8 C 33 14.3 33.4 14.1 34 14.1 C 35.1 14.1 35.4 14.7 35.4 15.7 C 35.38 15.74 35.4 19.2 35.4 19.2 L 34.6 19.2 Z M 39.5 15.8 C 39.5 15 39.1 14.8 38.8 14.8 C 38.1 14.8 37.7 15.1 37.7 16.4 C 37.7 18.1 37.9 18.7 38.8 18.7 C 38.9 18.7 39.5 18.5 39.5 17.6 C 39.5 17.6 40.3 17.6 40.3 17.6 C 40.4 19 39.3 19.3 38.8 19.3 C 37.7 19.3 36.8 19 36.8 16.8 C 36.8 15.3 37 14.1 38.8 14.1 C 39.8 14.1 40.4 14.7 40.3 15.8 C 40.3 15.8 39.5 15.8 39.5 15.8 Z M 44.6 16.4 C 44.6 14.9 44.2 14.7 43.6 14.7 C 43.1 14.7 42.6 15 42.6 16.4 C 42.6 16.4 44.6 16.4 44.6 16.4 Z M 42.6 17 C 42.6 18.4 43 18.7 43.6 18.7 C 44.2 18.7 44.5 18.2 44.5 17.7 C 44.5 17.7 45.4 17.7 45.4 17.7 C 45.4 18.8 44.7 19.3 43.7 19.3 C 42.6 19.3 41.7 19 41.7 16.8 C 41.7 15.3 41.9 14.1 43.7 14.1 C 45.1 14.1 45.5 14.9 45.5 16.6 C 45.46 16.55 45.5 17 45.5 17 C 45.5 17 42.62 16.98 42.6 17 Z M 46.9 14.2 L 46.9 13.2 L 47.7 12.9 L 47.7 14.2 L 48.8 14.2 L 48.8 14.8 L 47.7 14.8 C 47.7 14.8 47.73 17.9 47.7 17.9 C 47.7 18.2 47.7 18.6 48.5 18.6 C 48.5 18.6 48.7 18.6 48.8 18.6 C 48.8 18.6 48.8 19.2 48.8 19.2 C 48.6 19.2 48.3 19.3 48 19.3 C 47.3 19.3 46.9 19 46.9 18.4 C 46.91 18.4 46.9 14.8 46.9 14.8 L 46.1 14.8 L 46.1 14.2 L 46.9 14.2 Z M 50.5 19.2 L 49.5 19.2 L 49.5 18.2 L 50.5 18.2 L 50.5 19.2 Z M 53.7 19.2 C 53.7 19.2 53.75 18.44 53.7 18.4 C 55.8 15.6 56.4 15.1 56.4 13.9 C 56.4 13.3 56.1 13 55.5 13 C 54.8 13 54.7 13.5 54.7 14.1 C 54.7 14.1 53.8 14.1 53.8 14.1 C 53.7 12.9 54.3 12.2 55.4 12.2 C 56.7 12.2 57.3 12.8 57.3 14 C 57.3 15.6 56.5 16.1 54.7 18.4 C 54.73 18.44 57.5 18.4 57.5 18.4 L 57.5 19.2 L 53.7 19.2 Z M 61.8 15.8 C 61.8 17.6 61.9 19.4 60 19.4 C 58.1 19.4 58.1 17.6 58.1 15.8 C 58.1 13.9 58.1 12.2 60 12.2 C 61.9 12.2 61.8 13.9 61.8 15.8 Z M 59 16 C 59 17.2 59 18.6 60 18.6 C 61 18.6 60.9 17.2 60.9 16 C 60.9 14.1 60.9 13 60 13 C 59 13 59 14.1 59 16 Z M 62.6 19.2 C 62.6 19.2 62.63 18.44 62.6 18.4 C 64.7 15.6 65.3 15.1 65.3 13.9 C 65.3 13.3 65 13 64.4 13 C 63.7 13 63.6 13.5 63.6 14.1 C 63.6 14.1 62.6 14.1 62.6 14.1 C 62.6 12.9 63.1 12.2 64.3 12.2 C 65.6 12.2 66.2 12.8 66.2 14 C 66.2 15.6 65.4 16.1 63.6 18.4 C 63.61 18.44 66.4 18.4 66.4 18.4 L 66.4 19.2 L 62.6 19.2 Z M 68.3 15.2 C 69.2 15.3 69.7 14.9 69.7 14 C 69.7 13.4 69.5 13 68.8 13 C 68 13 67.9 13.5 67.9 14.1 C 67.9 14.1 67 14.1 67 14.1 C 66.9 12.9 67.5 12.2 68.8 12.2 C 70 12.2 70.7 12.8 70.7 14 C 70.7 15.3 69.7 15.5 69.3 15.6 C 69.3 15.6 69.3 15.6 69.3 15.6 C 70.4 15.8 70.7 16.3 70.7 17.4 C 70.7 18.7 70 19.4 68.7 19.4 C 66.7 19.4 66.9 17.7 66.9 17.3 C 66.9 17.3 67.8 17.3 67.8 17.3 C 67.8 18 67.9 18.6 68.8 18.6 C 69.6 18.6 69.8 18.1 69.8 17.4 C 69.8 16.2 69.4 16 68.3 16 C 68.3 16 68.3 15.2 68.3 15.2 Z M 72.7 19.2 L 71.7 19.2 L 71.7 18.2 L 72.7 18.2 L 72.7 19.2 Z M 75 15.9 L 74.4 15.9 L 74.4 12.5 L 73.8 12.9 C 73.8 12.9 73.84 12.35 73.8 12.3 C 74 12.3 74.4 12 74.5 11.9 C 74.52 11.86 75 11.9 75 11.9 L 75 15.9 Z " stroke="none" fill="#555555"/>  </g>  <g id="Polygon197809">    <path d="M 2.4 0 L 3.6 0 L 6 7.2 L 4.9 7.2 L 4.4 5.5 L 1.6 5.5 L 1.1 7.2 L 0.2 7.2 L 2.4 0 Z M 3 0.9 L 3 0.9 L 1.9 4.7 L 4.2 4.7 L 3 0.9 Z M 8.5 2.8 C 7.7 2.8 7.5 3.5 7.5 4.8 C 7.5 5.6 7.5 6.7 8.6 6.7 C 9.5 6.7 9.5 5.5 9.5 4.5 C 9.5 3.8 9.5 2.8 8.5 2.8 Z M 9.5 0 L 10.3 0 L 10.3 7.2 L 9.5 7.2 L 9.5 6.6 C 9.5 6.6 9.48 6.64 9.5 6.6 C 9.2 7.1 8.9 7.3 8.3 7.3 C 7.5 7.3 6.7 7 6.7 4.8 C 6.7 3.5 6.7 2.1 8.4 2.1 C 8.8 2.1 9.2 2.3 9.5 2.7 C 9.47 2.7 9.5 2.7 9.5 2.7 L 9.5 0 Z M 12.6 5.7 C 12.6 6.2 12.8 6.7 13.4 6.7 C 13.9 6.7 14.5 6.4 14.4 4.7 C 13.6 4.7 12.6 4.7 12.6 5.7 Z M 14.4 6.5 C 14.4 6.5 14.41 6.51 14.4 6.5 C 14.2 7.1 13.8 7.3 13.1 7.3 C 12.1 7.3 11.8 6.7 11.8 5.7 C 11.8 4.2 13.3 4.1 14.4 4.1 C 14.4 3.4 14.4 2.7 13.6 2.7 C 13 2.7 12.7 3.1 12.8 3.6 C 12.8 3.6 11.9 3.6 11.9 3.6 C 11.9 2.5 12.5 2.1 13.6 2.1 C 14.9 2.1 15.2 2.8 15.2 3.6 C 15.2 3.6 15.2 6 15.2 6 C 15.2 6.4 15.3 6.8 15.3 7.2 C 15.33 7.24 14.4 7.2 14.4 7.2 L 14.4 6.5 Z M 19.7 4.6 C 19.7 3.9 19.7 2.8 18.6 2.8 C 17.6 2.8 17.7 4.2 17.7 4.9 C 17.7 5.6 17.8 6.7 18.7 6.7 C 19.6 6.7 19.7 6 19.7 4.6 Z M 17.7 2.8 C 17.7 2.8 17.74 2.79 17.7 2.8 C 18 2.3 18.4 2.1 18.9 2.1 C 19.7 2.1 20.5 2.4 20.5 4.6 C 20.5 5.9 20.5 7.3 18.9 7.3 C 18.4 7.3 18 7.1 17.7 6.7 C 17.75 6.73 17.7 6.7 17.7 6.7 L 17.7 9.1 L 16.9 9.1 L 16.9 2.2 L 17.7 2.2 L 17.7 2.8 Z M 21.9 2.2 L 21.9 1.2 L 22.7 0.9 L 22.7 2.2 L 23.8 2.2 L 23.8 2.8 L 22.7 2.8 C 22.7 2.8 22.74 5.9 22.7 5.9 C 22.7 6.2 22.7 6.6 23.5 6.6 C 23.5 6.6 23.7 6.6 23.9 6.6 C 23.9 6.6 23.9 7.2 23.9 7.2 C 23.6 7.2 23.3 7.3 23 7.3 C 22.3 7.3 21.9 7 21.9 6.4 C 21.92 6.4 21.9 2.8 21.9 2.8 L 21.1 2.8 L 21.1 2.2 L 21.9 2.2 Z M 27.4 4.4 C 27.4 2.9 27 2.7 26.4 2.7 C 25.8 2.7 25.4 3 25.4 4.4 C 25.4 4.4 27.4 4.4 27.4 4.4 Z M 25.4 5 C 25.4 6.4 25.8 6.7 26.4 6.7 C 27 6.7 27.3 6.2 27.3 5.7 C 27.3 5.7 28.2 5.7 28.2 5.7 C 28.2 6.8 27.5 7.3 26.4 7.3 C 25.4 7.3 24.5 7 24.5 4.8 C 24.5 3.3 24.7 2.1 26.4 2.1 C 27.9 2.1 28.2 2.9 28.2 4.6 C 28.25 4.55 28.2 5 28.2 5 C 28.2 5 25.41 4.98 25.4 5 Z M 31.3 2.8 C 30.4 2.8 30.3 3.5 30.3 4.8 C 30.3 5.6 30.3 6.7 31.4 6.7 C 32.3 6.7 32.3 5.5 32.3 4.5 C 32.3 3.8 32.2 2.8 31.3 2.8 Z M 32.3 0 L 33.1 0 L 33.1 7.2 L 32.3 7.2 L 32.3 6.6 C 32.3 6.6 32.26 6.64 32.3 6.6 C 32 7.1 31.6 7.3 31.1 7.3 C 30.3 7.3 29.5 7 29.5 4.8 C 29.5 3.5 29.5 2.1 31.1 2.1 C 31.6 2.1 32 2.3 32.3 2.7 C 32.25 2.7 32.3 2.7 32.3 2.7 L 32.3 0 Z M 37 2.2 C 37 2.2 36.98 1.21 37 1.2 C 37 0.2 37.7 0 38.4 0 C 38.6 0 38.7 0 38.8 0 C 38.8 0 38.8 0.6 38.8 0.6 C 37.9 0.5 37.8 0.9 37.8 1.3 C 37.8 1.33 37.8 2.2 37.8 2.2 L 38.8 2.2 L 38.8 2.8 L 37.8 2.8 L 37.8 7.2 L 37 7.2 L 37 2.8 L 36.2 2.8 L 36.2 2.2 L 37 2.2 Z M 40.5 2.9 C 40.5 2.9 40.48 2.95 40.5 2.9 C 40.8 2.2 41.2 2.1 42 2.1 C 42 2.1 42 2.9 42 2.9 C 42 2.9 41.9 2.9 41.8 2.9 C 41.7 2.9 41.7 2.9 41.6 2.9 C 40.7 2.9 40.5 3.6 40.5 4.3 C 40.46 4.26 40.5 7.2 40.5 7.2 L 39.6 7.2 L 39.6 2.2 L 40.5 2.2 L 40.5 2.9 Z M 45.8 4.4 C 45.8 3.1 45.4 2.8 44.7 2.8 C 44.1 2.8 43.7 3.1 43.7 4.4 C 43.7 6.1 43.9 6.7 44.7 6.7 C 45.6 6.7 45.8 6.1 45.8 4.4 Z M 42.8 4.8 C 42.8 3.3 43 2.1 44.7 2.1 C 46.5 2.1 46.6 3.3 46.6 4.8 C 46.6 7 45.8 7.3 44.7 7.3 C 43.6 7.3 42.8 7 42.8 4.8 Z M 50.4 7.2 C 50.4 7.2 50.42 3.74 50.4 3.7 C 50.4 3.2 50.3 2.8 49.6 2.8 C 49.4 2.8 49 2.9 48.9 3.1 C 48.8 3.3 48.7 3.6 48.7 3.8 C 48.72 3.84 48.7 7.2 48.7 7.2 L 47.9 7.2 C 47.9 7.2 47.9 3.24 47.9 3.2 C 47.9 2.9 47.9 2.5 47.9 2.2 C 47.85 2.19 48.7 2.2 48.7 2.2 L 48.7 2.8 C 48.7 2.8 48.74 2.82 48.7 2.8 C 49 2.3 49.4 2.1 50 2.1 C 50.5 2.1 51 2.3 51.2 2.7 C 51.5 2.2 51.9 2.1 52.4 2.1 C 52.9 2.1 53.8 2.2 53.8 3.4 C 53.76 3.4 53.8 7.2 53.8 7.2 L 52.9 7.2 C 52.9 7.2 52.94 3.74 52.9 3.7 C 52.9 3.2 52.8 2.8 52.1 2.8 C 51.8 2.8 51.7 2.8 51.5 2.9 C 51.3 3.1 51.2 3.6 51.2 3.8 C 51.24 3.84 51.2 7.2 51.2 7.2 L 50.4 7.2 Z M 60.7 2 C 60.7 1.6 60.6 1.2 60.4 1 C 60.2 0.7 59.8 0.6 59.6 0.6 C 58.9 0.6 58.6 1.1 58.5 1.2 C 58.5 1.3 58.3 1.5 58.3 2.7 C 58.3 2.7 58.3 4.6 58.3 4.6 C 58.3 6.4 58.9 6.6 59.6 6.6 C 59.9 6.6 60.8 6.5 60.8 5.1 C 60.8 5.1 61.7 5.1 61.7 5.1 C 61.7 7.4 60.1 7.4 59.7 7.4 C 58.8 7.4 57.4 7.3 57.4 4.5 C 57.4 4.5 57.4 2.5 57.4 2.5 C 57.4 0.4 58.3 -0.1 59.7 -0.1 C 61.1 -0.1 61.7 0.6 61.6 2 C 61.6 2 60.7 2 60.7 2 Z M 63.8 2.9 C 63.8 2.9 63.81 2.95 63.8 2.9 C 64.1 2.2 64.6 2.1 65.4 2.1 C 65.4 2.1 65.4 2.9 65.4 2.9 C 65.3 2.9 65.2 2.9 65.1 2.9 C 65.1 2.9 65 2.9 64.9 2.9 C 64 2.9 63.8 3.6 63.8 4.3 C 63.79 4.26 63.8 7.2 63.8 7.2 L 63 7.2 L 63 2.2 L 63.8 2.2 L 63.8 2.9 Z M 67 5.7 C 67 6.2 67.3 6.7 67.8 6.7 C 68.3 6.7 68.9 6.4 68.8 4.7 C 68.1 4.7 67 4.7 67 5.7 Z M 68.9 6.5 C 68.9 6.5 68.85 6.51 68.8 6.5 C 68.6 7.1 68.2 7.3 67.6 7.3 C 66.5 7.3 66.2 6.7 66.2 5.7 C 66.2 4.2 67.7 4.1 68.8 4.1 C 68.9 3.4 68.9 2.7 68 2.7 C 67.4 2.7 67.2 3.1 67.2 3.6 C 67.2 3.6 66.3 3.6 66.3 3.6 C 66.4 2.5 67 2.1 68 2.1 C 69.3 2.1 69.7 2.8 69.7 3.6 C 69.7 3.6 69.7 6 69.7 6 C 69.7 6.4 69.7 6.8 69.8 7.2 C 69.77 7.24 68.9 7.2 68.9 7.2 L 68.9 6.5 Z M 72.1 7.2 L 71.2 7.2 L 71.2 2.2 L 72.1 2.2 L 72.1 7.2 Z M 71.2 0 L 72.1 0 L 72.1 0.9 L 71.2 0.9 L 71.2 0 Z M 75.2 2.8 C 74.3 2.8 74.2 3.9 74.2 4.6 C 74.2 6.2 74.6 6.6 75.2 6.6 C 76.2 6.6 76.2 5.4 76.2 4.7 C 76.2 3.9 76.2 2.8 75.2 2.8 Z M 76.2 2.2 L 77 2.2 C 77 2.2 76.98 7.75 77 7.7 C 77 8.9 76.2 9.1 75.1 9.1 C 74.3 9.1 73.5 8.7 73.6 7.8 C 73.6 7.8 74.5 7.8 74.5 7.8 C 74.5 8.3 74.8 8.5 75.3 8.5 C 75.8 8.5 76.2 8.2 76.2 7.7 C 76.16 7.66 76.2 6.6 76.2 6.6 C 76.2 6.6 76.13 6.61 76.1 6.6 C 75.9 7 75.5 7.2 75 7.2 C 73.6 7.2 73.4 6.1 73.4 4.6 C 73.4 2.2 74.5 2.1 75 2.1 C 75.5 2.1 75.9 2.3 76.1 2.8 C 76.14 2.81 76.2 2.8 76.2 2.8 L 76.2 2.2 Z " stroke="none" fill="#555555"/>  </g></svg>