<?xml version="1.0" standalone="no"?><!DOCTYPE svg PUBLIC "-//W3C//DTD SVG 1.1//EN" "http://www.w3.org/Graphics/SVG/1.1/DTD/svg11.dtd"><svg xmlns="http://www.w3.org/2000/svg" version="1.1" width="133.4px" height="75.8px" viewBox="0 -4 133.4 75.8" style="top:-4px">  <desc>Abbreviation: AE QoL, Angioedema Quality of Life Questionnaire; MCID, minimal clinically important difference; QoL, q...</desc>  <defs/>  <g id="Polygon197759">    <path d="M 2.4 55.2 C 1.6 55.2 1.4 55.9 1.4 57.2 C 1.4 58 1.4 59.1 2.5 59.1 C 3.4 59.1 3.4 58 3.4 56.9 C 3.4 56.3 3.4 55.2 2.4 55.2 Z M 3.4 52.4 L 4.2 52.4 L 4.2 59.7 L 3.4 59.7 L 3.4 59.1 C 3.4 59.1 3.37 59.07 3.4 59.1 C 3.1 59.5 2.7 59.8 2.2 59.8 C 1.4 59.8 0.6 59.4 0.6 57.2 C 0.6 56 0.6 54.5 2.2 54.5 C 2.7 54.5 3.1 54.7 3.4 55.1 C 3.36 55.13 3.4 55.1 3.4 55.1 L 3.4 52.4 Z M 6.5 59.7 L 5.7 59.7 L 5.7 54.6 L 6.5 54.6 L 6.5 59.7 Z M 5.7 52.4 L 6.6 52.4 L 6.6 53.3 L 5.7 53.3 L 5.7 52.4 Z M 8.1 54.6 C 8.1 54.6 8.09 53.64 8.1 53.6 C 8.1 52.6 8.8 52.4 9.5 52.4 C 9.7 52.4 9.8 52.4 9.9 52.4 C 9.9 52.4 9.9 53 9.9 53 C 9.1 53 8.9 53.3 8.9 53.8 C 8.91 53.76 8.9 54.6 8.9 54.6 L 9.9 54.6 L 9.9 55.2 L 8.9 55.2 L 8.9 59.7 L 8.1 59.7 L 8.1 55.2 L 7.3 55.2 L 7.3 54.6 L 8.1 54.6 Z M 10.9 54.6 C 10.9 54.6 10.87 53.64 10.9 53.6 C 10.9 52.6 11.6 52.4 12.3 52.4 C 12.5 52.4 12.6 52.4 12.7 52.4 C 12.7 52.4 12.7 53 12.7 53 C 11.8 53 11.7 53.3 11.7 53.8 C 11.69 53.76 11.7 54.6 11.7 54.6 L 12.7 54.6 L 12.7 55.2 L 11.7 55.2 L 11.7 59.7 L 10.9 59.7 L 10.9 55.2 L 10.1 55.2 L 10.1 54.6 L 10.9 54.6 Z M 16.3 56.8 C 16.3 55.3 15.9 55.1 15.3 55.1 C 14.7 55.1 14.3 55.4 14.3 56.8 C 14.3 56.8 16.3 56.8 16.3 56.8 Z M 14.3 57.4 C 14.3 58.8 14.7 59.1 15.3 59.1 C 15.9 59.1 16.2 58.6 16.2 58.1 C 16.2 58.1 17.1 58.1 17.1 58.1 C 17.1 59.3 16.4 59.8 15.3 59.8 C 14.3 59.8 13.4 59.4 13.4 57.2 C 13.4 55.7 13.6 54.5 15.3 54.5 C 16.8 54.5 17.1 55.3 17.1 57 C 17.14 56.98 17.1 57.4 17.1 57.4 C 17.1 57.4 14.3 57.41 14.3 57.4 Z M 19.3 55.4 C 19.3 55.4 19.37 55.38 19.4 55.4 C 19.7 54.6 20.1 54.5 20.9 54.5 C 20.9 54.5 20.9 55.4 20.9 55.4 C 20.9 55.4 20.8 55.3 20.7 55.3 C 20.6 55.3 20.6 55.3 20.5 55.3 C 19.6 55.3 19.3 56 19.3 56.7 C 19.35 56.69 19.3 59.7 19.3 59.7 L 18.5 59.7 L 18.5 54.6 L 19.3 54.6 L 19.3 55.4 Z M 24.6 56.8 C 24.6 55.3 24.2 55.1 23.6 55.1 C 23.1 55.1 22.6 55.4 22.6 56.8 C 22.6 56.8 24.6 56.8 24.6 56.8 Z M 22.6 57.4 C 22.6 58.8 23 59.1 23.6 59.1 C 24.2 59.1 24.5 58.6 24.5 58.1 C 24.5 58.1 25.4 58.1 25.4 58.1 C 25.4 59.3 24.7 59.8 23.7 59.8 C 22.6 59.8 21.8 59.4 21.8 57.2 C 21.8 55.7 21.9 54.5 23.7 54.5 C 25.1 54.5 25.5 55.3 25.5 57 C 25.47 56.98 25.5 57.4 25.5 57.4 C 25.5 57.4 22.63 57.41 22.6 57.4 Z M 29.6 59.7 C 29.6 59.7 29.57 56.17 29.6 56.2 C 29.6 55.6 29.4 55.2 28.7 55.2 C 27.8 55.2 27.6 56 27.6 56.7 C 27.65 56.68 27.6 59.7 27.6 59.7 L 26.8 59.7 C 26.8 59.7 26.83 55.67 26.8 55.7 C 26.8 55.3 26.8 55 26.8 54.6 C 26.78 54.62 27.6 54.6 27.6 54.6 L 27.6 55.3 C 27.6 55.3 27.69 55.27 27.7 55.3 C 28 54.7 28.4 54.5 29 54.5 C 30.1 54.5 30.4 55.2 30.4 56.2 C 30.39 56.17 30.4 59.7 30.4 59.7 L 29.6 59.7 Z M 34.5 56.2 C 34.5 55.4 34.1 55.2 33.8 55.2 C 33.1 55.2 32.7 55.5 32.7 56.9 C 32.7 58.5 32.9 59.1 33.8 59.1 C 34 59.1 34.5 58.9 34.5 58 C 34.5 58 35.4 58 35.4 58 C 35.4 59.4 34.3 59.8 33.8 59.8 C 32.7 59.8 31.9 59.4 31.9 57.2 C 31.9 55.7 32 54.5 33.8 54.5 C 34.8 54.5 35.4 55.1 35.3 56.2 C 35.3 56.2 34.5 56.2 34.5 56.2 Z M 39.6 56.8 C 39.6 55.3 39.2 55.1 38.6 55.1 C 38.1 55.1 37.6 55.4 37.6 56.8 C 37.6 56.8 39.6 56.8 39.6 56.8 Z M 37.6 57.4 C 37.6 58.8 38 59.1 38.6 59.1 C 39.2 59.1 39.5 58.6 39.5 58.1 C 39.5 58.1 40.4 58.1 40.4 58.1 C 40.4 59.3 39.7 59.8 38.7 59.8 C 37.6 59.8 36.8 59.4 36.8 57.2 C 36.8 55.7 36.9 54.5 38.7 54.5 C 40.1 54.5 40.5 55.3 40.5 57 C 40.47 56.98 40.5 57.4 40.5 57.4 C 40.5 57.4 37.63 57.41 37.6 57.4 Z M 42 58.6 L 43 58.6 L 42.1 60.9 L 41.5 60.9 L 42 58.6 Z M 42.7 55.7 L 41.8 55.7 L 41.8 54.6 L 42.7 54.6 L 42.7 55.7 Z M 49.9 57.1 C 49.9 57.1 49.9 54.6 49.9 54.6 C 49.9 53.1 48.8 53.1 48.5 53.1 C 48.2 53.1 47.2 53.1 47.2 54.6 C 47.2 54.6 47.2 57.1 47.2 57.1 C 47.2 58.3 47.5 58.9 48.5 58.9 C 49.6 58.9 49.9 58.3 49.9 57.1 Z M 46.3 54.7 C 46.3 53.2 47 52.3 48.5 52.3 C 50.1 52.3 50.8 53.2 50.8 54.7 C 50.8 54.7 50.8 57 50.8 57 C 50.8 57.5 50.6 58.8 50.2 59 C 50.2 59 50.2 59 50.2 59 C 50.3 59 50.7 58.9 50.8 58.9 C 50.83 58.87 51.5 58.9 51.5 58.9 L 51.5 59.7 C 51.5 59.7 48.55 59.67 48.5 59.7 C 47.6 59.7 46.3 59.6 46.3 57 C 46.3 57 46.3 54.7 46.3 54.7 Z M 55.2 56.9 C 55.2 55.5 54.8 55.2 54.2 55.2 C 53.5 55.2 53.1 55.5 53.1 56.9 C 53.1 58.5 53.3 59.1 54.2 59.1 C 55 59.1 55.2 58.5 55.2 56.9 Z M 52.2 57.2 C 52.2 55.7 52.4 54.5 54.2 54.5 C 55.9 54.5 56.1 55.7 56.1 57.2 C 56.1 59.4 55.2 59.8 54.2 59.8 C 53.1 59.8 52.2 59.4 52.2 57.2 Z M 57.5 59.7 L 57.5 52.4 L 58.4 52.4 L 58.4 58.9 L 61 58.9 L 61 59.7 L 57.5 59.7 Z M 62 58.6 L 63 58.6 L 62.1 60.9 L 61.4 60.9 L 62 58.6 Z M 68.9 57.4 C 68.9 56.6 69 55.2 68 55.2 C 67 55.2 67 56.3 67 57.1 C 67 58.4 67.1 59.1 68 59.1 C 68.9 59.1 68.9 58 68.9 57.4 Z M 68.9 54.6 L 69.7 54.6 L 69.7 61.6 L 68.9 61.6 L 68.9 59.2 C 68.9 59.2 68.9 59.16 68.9 59.2 C 68.6 59.6 68.3 59.8 67.8 59.8 C 66.2 59.8 66.1 58.3 66.1 57.1 C 66.1 54.8 66.9 54.5 67.7 54.5 C 68.3 54.5 68.6 54.7 68.9 55.2 C 68.91 55.22 68.9 55.2 68.9 55.2 L 68.9 54.6 Z M 74 54.6 L 74.8 54.6 C 74.8 54.6 74.78 58.62 74.8 58.6 C 74.8 59 74.8 59.3 74.8 59.7 C 74.83 59.67 74 59.7 74 59.7 L 74 59.1 C 74 59.1 73.93 59.06 73.9 59.1 C 73.7 59.5 73.2 59.8 72.6 59.8 C 71.8 59.8 71.3 59.3 71.3 58.5 C 71.29 58.47 71.3 54.6 71.3 54.6 L 72.1 54.6 C 72.1 54.6 72.11 58.12 72.1 58.1 C 72.1 58.7 72.4 59.1 73 59.1 C 73.4 59.1 74 58.8 74 58 C 73.96 57.97 74 54.6 74 54.6 Z M 77 58.2 C 77 58.7 77.2 59.1 77.8 59.1 C 78.3 59.1 78.9 58.8 78.8 57.2 C 78.1 57.2 77 57.1 77 58.2 Z M 78.9 58.9 C 78.9 58.9 78.84 58.94 78.8 58.9 C 78.6 59.5 78.2 59.8 77.6 59.8 C 76.5 59.8 76.2 59.1 76.2 58.1 C 76.2 56.6 77.7 56.5 78.8 56.5 C 78.9 55.9 78.9 55.1 78 55.1 C 77.4 55.1 77.1 55.5 77.2 56 C 77.2 56 76.3 56 76.3 56 C 76.3 54.9 76.9 54.5 78 54.5 C 79.3 54.5 79.7 55.2 79.7 56 C 79.7 56 79.7 58.5 79.7 58.5 C 79.7 58.9 79.7 59.3 79.8 59.7 C 79.76 59.67 78.9 59.7 78.9 59.7 L 78.9 58.9 Z M 82.1 59.7 L 81.2 59.7 L 81.2 52.4 L 82.1 52.4 L 82.1 59.7 Z M 84.3 59.7 L 83.5 59.7 L 83.5 54.6 L 84.3 54.6 L 84.3 59.7 Z M 83.4 52.4 L 84.3 52.4 L 84.3 53.3 L 83.4 53.3 L 83.4 52.4 Z M 85.8 54.6 L 85.8 53.6 L 86.6 53.3 L 86.6 54.6 L 87.7 54.6 L 87.7 55.2 L 86.6 55.2 C 86.6 55.2 86.61 58.33 86.6 58.3 C 86.6 58.6 86.6 59.1 87.4 59.1 C 87.4 59.1 87.5 59 87.7 59 C 87.7 59 87.7 59.6 87.7 59.6 C 87.5 59.7 87.2 59.7 86.9 59.7 C 86.1 59.7 85.8 59.4 85.8 58.8 C 85.79 58.83 85.8 55.2 85.8 55.2 L 85 55.2 L 85 54.6 L 85.8 54.6 Z M 90 58.7 L 90 58.7 L 91.2 54.6 L 92.1 54.6 L 89.8 61.6 L 89 61.6 L 89.5 59.7 L 87.8 54.6 L 88.8 54.6 L 90 58.7 Z M 98 56.9 C 98 55.5 97.5 55.2 96.9 55.2 C 96.3 55.2 95.9 55.5 95.9 56.9 C 95.9 58.5 96.1 59.1 96.9 59.1 C 97.8 59.1 98 58.5 98 56.9 Z M 95 57.2 C 95 55.7 95.2 54.5 96.9 54.5 C 98.7 54.5 98.8 55.7 98.8 57.2 C 98.8 59.4 98 59.8 96.9 59.8 C 95.8 59.8 95 59.4 95 57.2 Z M 100.3 54.6 C 100.3 54.6 100.29 53.64 100.3 53.6 C 100.3 52.6 101 52.4 101.7 52.4 C 101.9 52.4 102 52.4 102.1 52.4 C 102.1 52.4 102.1 53 102.1 53 C 101.3 53 101.1 53.3 101.1 53.8 C 101.11 53.76 101.1 54.6 101.1 54.6 L 102.1 54.6 L 102.1 55.2 L 101.1 55.2 L 101.1 59.7 L 100.3 59.7 L 100.3 55.2 L 99.5 55.2 L 99.5 54.6 L 100.3 54.6 Z M 105.9 59.7 L 105.1 59.7 L 105.1 52.4 L 105.9 52.4 L 105.9 59.7 Z M 108.2 59.7 L 107.3 59.7 L 107.3 54.6 L 108.2 54.6 L 108.2 59.7 Z M 107.3 52.4 L 108.2 52.4 L 108.2 53.3 L 107.3 53.3 L 107.3 52.4 Z M 109.7 54.6 C 109.7 54.6 109.73 53.64 109.7 53.6 C 109.7 52.6 110.4 52.4 111.2 52.4 C 111.3 52.4 111.4 52.4 111.6 52.4 C 111.6 52.4 111.6 53 111.6 53 C 110.7 53 110.5 53.3 110.5 53.8 C 110.55 53.76 110.5 54.6 110.5 54.6 L 111.6 54.6 L 111.6 55.2 L 110.5 55.2 L 110.5 59.7 L 109.7 59.7 L 109.7 55.2 L 108.9 55.2 L 108.9 54.6 L 109.7 54.6 Z M 115.1 56.8 C 115.1 55.3 114.7 55.1 114.1 55.1 C 113.6 55.1 113.2 55.4 113.2 56.8 C 113.2 56.8 115.1 56.8 115.1 56.8 Z M 113.2 57.4 C 113.2 58.8 113.5 59.1 114.2 59.1 C 114.7 59.1 115 58.6 115.1 58.1 C 115.1 58.1 116 58.1 116 58.1 C 115.9 59.3 115.3 59.8 114.2 59.8 C 113.1 59.8 112.3 59.4 112.3 57.2 C 112.3 55.7 112.4 54.5 114.2 54.5 C 115.6 54.5 116 55.3 116 57 C 116 56.98 116 57.4 116 57.4 C 116 57.4 113.16 57.41 113.2 57.4 Z M 118.2 59.7 L 117.3 59.7 L 117.3 58.6 L 118.2 58.6 L 118.2 59.7 Z " stroke="none" fill="#555555"/>  </g>  <g id="Polygon197758">    <path d="M 3.2 47.7 C 3.2 47.7 3.2 44.17 3.2 44.2 C 3.2 43.7 3.1 43.2 2.4 43.2 C 2.1 43.2 1.8 43.3 1.7 43.5 C 1.5 43.8 1.5 44.1 1.5 44.3 C 1.5 44.27 1.5 47.7 1.5 47.7 L 0.7 47.7 C 0.7 47.7 0.68 43.67 0.7 43.7 C 0.7 43.3 0.7 43 0.6 42.6 C 0.63 42.62 1.5 42.6 1.5 42.6 L 1.5 43.2 C 1.5 43.2 1.52 43.25 1.5 43.2 C 1.8 42.7 2.2 42.5 2.8 42.5 C 3.2 42.5 3.8 42.7 4 43.2 C 4.2 42.6 4.7 42.5 5.2 42.5 C 5.7 42.5 6.5 42.6 6.5 43.8 C 6.54 43.83 6.5 47.7 6.5 47.7 L 5.7 47.7 C 5.7 47.7 5.72 44.17 5.7 44.2 C 5.7 43.7 5.6 43.2 4.9 43.2 C 4.6 43.2 4.5 43.2 4.3 43.4 C 4.1 43.6 4 44.1 4 44.3 C 4.02 44.27 4 47.7 4 47.7 L 3.2 47.7 Z M 8.7 47.7 L 7.9 47.7 L 7.9 42.6 L 8.7 42.6 L 8.7 47.7 Z M 7.9 40.4 L 8.8 40.4 L 8.8 41.3 L 7.9 41.3 L 7.9 40.4 Z M 12.9 47.7 C 12.9 47.7 12.9 44.17 12.9 44.2 C 12.9 43.6 12.7 43.2 12 43.2 C 11.1 43.2 11 44 11 44.7 C 10.98 44.68 11 47.7 11 47.7 L 10.2 47.7 C 10.2 47.7 10.16 43.67 10.2 43.7 C 10.2 43.3 10.1 43 10.1 42.6 C 10.11 42.62 11 42.6 11 42.6 L 11 43.3 C 11 43.3 11.02 43.27 11 43.3 C 11.3 42.7 11.7 42.5 12.4 42.5 C 13.4 42.5 13.7 43.2 13.7 44.2 C 13.72 44.17 13.7 47.7 13.7 47.7 L 12.9 47.7 Z M 16 47.7 L 15.1 47.7 L 15.1 42.6 L 16 42.6 L 16 47.7 Z M 15.1 40.4 L 16 40.4 L 16 41.3 L 15.1 41.3 L 15.1 40.4 Z M 19.9 47.7 C 19.9 47.7 19.86 44.17 19.9 44.2 C 19.9 43.7 19.7 43.2 19.1 43.2 C 18.8 43.2 18.5 43.3 18.3 43.5 C 18.2 43.8 18.2 44.1 18.2 44.3 C 18.16 44.27 18.2 47.7 18.2 47.7 L 17.3 47.7 C 17.3 47.7 17.34 43.67 17.3 43.7 C 17.3 43.3 17.3 43 17.3 42.6 C 17.29 42.62 18.2 42.6 18.2 42.6 L 18.2 43.2 C 18.2 43.2 18.18 43.25 18.2 43.2 C 18.4 42.7 18.8 42.5 19.4 42.5 C 19.9 42.5 20.4 42.7 20.6 43.2 C 20.9 42.6 21.4 42.5 21.8 42.5 C 22.4 42.5 23.2 42.6 23.2 43.8 C 23.2 43.83 23.2 47.7 23.2 47.7 L 22.4 47.7 C 22.4 47.7 22.38 44.17 22.4 44.2 C 22.4 43.7 22.2 43.2 21.6 43.2 C 21.3 43.2 21.2 43.2 21 43.4 C 20.7 43.6 20.7 44.1 20.7 44.3 C 20.68 44.27 20.7 47.7 20.7 47.7 L 19.9 47.7 Z M 25.3 46.2 C 25.3 46.7 25.6 47.1 26.1 47.1 C 26.6 47.1 27.3 46.8 27.2 45.2 C 26.4 45.2 25.3 45.1 25.3 46.2 Z M 27.2 46.9 C 27.2 46.9 27.18 46.94 27.2 46.9 C 26.9 47.5 26.5 47.8 25.9 47.8 C 24.8 47.8 24.5 47.1 24.5 46.1 C 24.5 44.6 26 44.5 27.2 44.5 C 27.2 43.9 27.2 43.1 26.3 43.1 C 25.8 43.1 25.5 43.5 25.5 44 C 25.5 44 24.7 44 24.7 44 C 24.7 42.9 25.3 42.5 26.4 42.5 C 27.7 42.5 28 43.2 28 44 C 28 44 28 46.5 28 46.5 C 28 46.9 28 47.3 28.1 47.7 C 28.1 47.67 27.2 47.7 27.2 47.7 L 27.2 46.9 Z M 30.4 47.7 L 29.6 47.7 L 29.6 40.4 L 30.4 40.4 L 30.4 47.7 Z M 36.7 44.2 C 36.7 43.4 36.3 43.2 36 43.2 C 35.3 43.2 34.9 43.5 34.9 44.9 C 34.9 46.5 35.1 47.1 36 47.1 C 36.2 47.1 36.7 46.9 36.7 46 C 36.7 46 37.6 46 37.6 46 C 37.6 47.4 36.5 47.8 36 47.8 C 34.9 47.8 34.1 47.4 34.1 45.2 C 34.1 43.7 34.2 42.5 36 42.5 C 37 42.5 37.6 43.1 37.5 44.2 C 37.5 44.2 36.7 44.2 36.7 44.2 Z M 39.8 47.7 L 39 47.7 L 39 40.4 L 39.8 40.4 L 39.8 47.7 Z M 42.1 47.7 L 41.2 47.7 L 41.2 42.6 L 42.1 42.6 L 42.1 47.7 Z M 41.2 40.4 L 42.1 40.4 L 42.1 41.3 L 41.2 41.3 L 41.2 40.4 Z M 46.2 47.7 C 46.2 47.7 46.22 44.17 46.2 44.2 C 46.2 43.6 46 43.2 45.3 43.2 C 44.4 43.2 44.3 44 44.3 44.7 C 44.3 44.68 44.3 47.7 44.3 47.7 L 43.5 47.7 C 43.5 47.7 43.48 43.67 43.5 43.7 C 43.5 43.3 43.5 43 43.4 42.6 C 43.43 42.62 44.3 42.6 44.3 42.6 L 44.3 43.3 C 44.3 43.3 44.34 43.27 44.3 43.3 C 44.7 42.7 45 42.5 45.7 42.5 C 46.8 42.5 47 43.2 47 44.2 C 47.04 44.17 47 47.7 47 47.7 L 46.2 47.7 Z M 49.3 47.7 L 48.5 47.7 L 48.5 42.6 L 49.3 42.6 L 49.3 47.7 Z M 48.4 40.4 L 49.3 40.4 L 49.3 41.3 L 48.4 41.3 L 48.4 40.4 Z M 53.3 44.2 C 53.4 43.4 52.9 43.2 52.6 43.2 C 52 43.2 51.6 43.5 51.6 44.9 C 51.6 46.5 51.8 47.1 52.6 47.1 C 52.8 47.1 53.4 46.9 53.4 46 C 53.4 46 54.2 46 54.2 46 C 54.3 47.4 53.2 47.8 52.6 47.8 C 51.6 47.8 50.7 47.4 50.7 45.2 C 50.7 43.7 50.9 42.5 52.6 42.5 C 53.6 42.5 54.2 43.1 54.2 44.2 C 54.2 44.2 53.3 44.2 53.3 44.2 Z M 56.4 46.2 C 56.4 46.7 56.7 47.1 57.2 47.1 C 57.7 47.1 58.4 46.8 58.3 45.2 C 57.5 45.2 56.4 45.1 56.4 46.2 Z M 58.3 46.9 C 58.3 46.9 58.28 46.94 58.3 46.9 C 58 47.5 57.6 47.8 57 47.8 C 55.9 47.8 55.6 47.1 55.6 46.1 C 55.6 44.6 57.1 44.5 58.3 44.5 C 58.3 43.9 58.3 43.1 57.4 43.1 C 56.9 43.1 56.6 43.5 56.6 44 C 56.6 44 55.7 44 55.7 44 C 55.8 42.9 56.4 42.5 57.5 42.5 C 58.8 42.5 59.1 43.2 59.1 44 C 59.1 44 59.1 46.5 59.1 46.5 C 59.1 46.9 59.1 47.3 59.2 47.7 C 59.2 47.67 58.3 47.7 58.3 47.7 L 58.3 46.9 Z M 61.5 47.7 L 60.7 47.7 L 60.7 40.4 L 61.5 40.4 L 61.5 47.7 Z M 63.7 47.7 L 62.9 47.7 L 62.9 40.4 L 63.7 40.4 L 63.7 47.7 Z M 66.7 46.7 L 66.7 46.7 L 67.9 42.6 L 68.8 42.6 L 66.5 49.6 L 65.6 49.6 L 66.2 47.7 L 64.5 42.6 L 65.4 42.6 L 66.7 46.7 Z M 72.6 47.7 L 71.8 47.7 L 71.8 42.6 L 72.6 42.6 L 72.6 47.7 Z M 71.7 40.4 L 72.6 40.4 L 72.6 41.3 L 71.7 41.3 L 71.7 40.4 Z M 76.5 47.7 C 76.5 47.7 76.5 44.17 76.5 44.2 C 76.5 43.7 76.4 43.2 75.7 43.2 C 75.4 43.2 75.1 43.3 75 43.5 C 74.8 43.8 74.8 44.1 74.8 44.3 C 74.8 44.27 74.8 47.7 74.8 47.7 L 74 47.7 C 74 47.7 73.98 43.67 74 43.7 C 74 43.3 74 43 73.9 42.6 C 73.93 42.62 74.8 42.6 74.8 42.6 L 74.8 43.2 C 74.8 43.2 74.82 43.25 74.8 43.2 C 75.1 42.7 75.5 42.5 76.1 42.5 C 76.5 42.5 77.1 42.7 77.3 43.2 C 77.5 42.6 78 42.5 78.5 42.5 C 79 42.5 79.8 42.6 79.8 43.8 C 79.84 43.83 79.8 47.7 79.8 47.7 L 79 47.7 C 79 47.7 79.02 44.17 79 44.2 C 79 43.7 78.9 43.2 78.2 43.2 C 77.9 43.2 77.8 43.2 77.6 43.4 C 77.4 43.6 77.3 44.1 77.3 44.3 C 77.32 44.27 77.3 47.7 77.3 47.7 L 76.5 47.7 Z M 84.1 45.1 C 84.1 44.3 84.1 43.2 83 43.2 C 82 43.2 82.1 44.6 82.1 45.4 C 82.1 46 82.2 47.1 83.1 47.1 C 84 47.1 84.1 46.4 84.1 45.1 Z M 82.1 43.2 C 82.1 43.2 82.15 43.22 82.1 43.2 C 82.4 42.7 82.8 42.5 83.3 42.5 C 84.1 42.5 84.9 42.8 84.9 45.1 C 84.9 46.3 84.9 47.8 83.3 47.8 C 82.8 47.8 82.4 47.6 82.2 47.2 C 82.16 47.16 82.1 47.2 82.1 47.2 L 82.1 49.6 L 81.3 49.6 L 81.3 42.6 L 82.1 42.6 L 82.1 43.2 Z M 89.1 44.9 C 89.1 43.5 88.6 43.2 88 43.2 C 87.4 43.2 87 43.5 87 44.9 C 87 46.5 87.2 47.1 88 47.1 C 88.9 47.1 89.1 46.5 89.1 44.9 Z M 86.1 45.2 C 86.1 43.7 86.3 42.5 88 42.5 C 89.8 42.5 89.9 43.7 89.9 45.2 C 89.9 47.4 89.1 47.8 88 47.8 C 86.9 47.8 86.1 47.4 86.1 45.2 Z M 92.1 43.4 C 92.1 43.4 92.11 43.38 92.1 43.4 C 92.4 42.6 92.9 42.5 93.7 42.5 C 93.7 42.5 93.7 43.4 93.7 43.4 C 93.6 43.4 93.5 43.3 93.4 43.3 C 93.4 43.3 93.3 43.3 93.2 43.3 C 92.3 43.3 92.1 44 92.1 44.7 C 92.09 44.69 92.1 47.7 92.1 47.7 L 91.3 47.7 L 91.3 42.6 L 92.1 42.6 L 92.1 43.4 Z M 94.7 42.6 L 94.7 41.6 L 95.5 41.3 L 95.5 42.6 L 96.6 42.6 L 96.6 43.2 L 95.5 43.2 C 95.5 43.2 95.48 46.33 95.5 46.3 C 95.5 46.6 95.5 47.1 96.2 47.1 C 96.3 47.1 96.4 47 96.6 47 C 96.6 47 96.6 47.6 96.6 47.6 C 96.3 47.7 96.1 47.7 95.8 47.7 C 95 47.7 94.7 47.4 94.7 46.8 C 94.66 46.83 94.7 43.2 94.7 43.2 L 93.8 43.2 L 93.8 42.6 L 94.7 42.6 Z M 98.1 46.2 C 98.1 46.7 98.3 47.1 98.9 47.1 C 99.4 47.1 100 46.8 99.9 45.2 C 99.1 45.2 98.1 45.1 98.1 46.2 Z M 99.9 46.9 C 99.9 46.9 99.93 46.94 99.9 46.9 C 99.7 47.5 99.3 47.8 98.7 47.8 C 97.6 47.8 97.3 47.1 97.3 46.1 C 97.3 44.6 98.8 44.5 99.9 44.5 C 99.9 43.9 100 43.1 99.1 43.1 C 98.5 43.1 98.2 43.5 98.3 44 C 98.3 44 97.4 44 97.4 44 C 97.4 42.9 98 42.5 99.1 42.5 C 100.4 42.5 100.7 43.2 100.7 44 C 100.7 44 100.7 46.5 100.7 46.5 C 100.7 46.9 100.8 47.3 100.8 47.7 C 100.85 47.67 99.9 47.7 99.9 47.7 L 99.9 46.9 Z M 105.1 47.7 C 105.1 47.7 105.09 44.17 105.1 44.2 C 105.1 43.6 104.9 43.2 104.2 43.2 C 103.3 43.2 103.2 44 103.2 44.7 C 103.17 44.68 103.2 47.7 103.2 47.7 L 102.3 47.7 C 102.3 47.7 102.35 43.67 102.3 43.7 C 102.3 43.3 102.3 43 102.3 42.6 C 102.3 42.62 103.2 42.6 103.2 42.6 L 103.2 43.3 C 103.2 43.3 103.21 43.27 103.2 43.3 C 103.5 42.7 103.9 42.5 104.6 42.5 C 105.6 42.5 105.9 43.2 105.9 44.2 C 105.91 44.17 105.9 47.7 105.9 47.7 L 105.1 47.7 Z M 107.4 42.6 L 107.4 41.6 L 108.3 41.3 L 108.3 42.6 L 109.4 42.6 L 109.4 43.2 L 108.3 43.2 C 108.3 43.2 108.26 46.33 108.3 46.3 C 108.3 46.6 108.3 47.1 109 47.1 C 109.1 47.1 109.2 47 109.4 47 C 109.4 47 109.4 47.6 109.4 47.6 C 109.1 47.7 108.8 47.7 108.6 47.7 C 107.8 47.7 107.4 47.4 107.4 46.8 C 107.44 46.83 107.4 43.2 107.4 43.2 L 106.6 43.2 L 106.6 42.6 L 107.4 42.6 Z " stroke="none" fill="#555555"/>  </g>  <g id="Polygon197757">    <path d="M 3.6 32.9 C 3.6 31.5 3.1 31.2 2.5 31.2 C 1.9 31.2 1.4 31.5 1.4 32.9 C 1.4 34.5 1.6 35.1 2.5 35.1 C 3.4 35.1 3.6 34.5 3.6 32.9 Z M 0.6 33.2 C 0.6 31.7 0.8 30.5 2.5 30.5 C 4.2 30.5 4.4 31.7 4.4 33.2 C 4.4 35.4 3.6 35.8 2.5 35.8 C 1.4 35.8 0.6 35.4 0.6 33.2 Z M 5.9 30.6 C 5.9 30.6 5.87 29.64 5.9 29.6 C 5.9 28.6 6.6 28.4 7.3 28.4 C 7.5 28.4 7.6 28.4 7.7 28.4 C 7.7 28.4 7.7 29 7.7 29 C 6.8 29 6.7 29.3 6.7 29.8 C 6.69 29.76 6.7 30.6 6.7 30.6 L 7.7 30.6 L 7.7 31.2 L 6.7 31.2 L 6.7 35.7 L 5.9 35.7 L 5.9 31.2 L 5.1 31.2 L 5.1 30.6 L 5.9 30.6 Z M 10.8 35.7 L 10.8 28.4 L 11.7 28.4 L 11.7 34.9 L 14.4 34.9 L 14.4 35.7 L 10.8 35.7 Z M 16 35.7 L 15.1 35.7 L 15.1 30.6 L 16 30.6 L 16 35.7 Z M 15.1 28.4 L 16 28.4 L 16 29.3 L 15.1 29.3 L 15.1 28.4 Z M 17.5 30.6 C 17.5 30.6 17.53 29.64 17.5 29.6 C 17.5 28.6 18.2 28.4 19 28.4 C 19.1 28.4 19.2 28.4 19.4 28.4 C 19.4 28.4 19.4 29 19.4 29 C 18.5 29 18.3 29.3 18.3 29.8 C 18.35 29.76 18.3 30.6 18.3 30.6 L 19.4 30.6 L 19.4 31.2 L 18.3 31.2 L 18.3 35.7 L 17.5 35.7 L 17.5 31.2 L 16.8 31.2 L 16.8 30.6 L 17.5 30.6 Z M 22.9 32.8 C 22.9 31.3 22.5 31.1 21.9 31.1 C 21.4 31.1 21 31.4 21 32.8 C 21 32.8 22.9 32.8 22.9 32.8 Z M 21 33.4 C 21 34.8 21.3 35.1 22 35.1 C 22.5 35.1 22.8 34.6 22.9 34.1 C 22.9 34.1 23.8 34.1 23.8 34.1 C 23.7 35.3 23.1 35.8 22 35.8 C 20.9 35.8 20.1 35.4 20.1 33.2 C 20.1 31.7 20.2 30.5 22 30.5 C 23.4 30.5 23.8 31.3 23.8 33 C 23.8 32.98 23.8 33.4 23.8 33.4 C 23.8 33.4 20.96 33.41 21 33.4 Z M 31 33.1 C 31 33.1 31 30.6 31 30.6 C 31 29.1 29.9 29.1 29.6 29.1 C 29.4 29.1 28.3 29.1 28.3 30.6 C 28.3 30.6 28.3 33.1 28.3 33.1 C 28.3 34.3 28.6 34.9 29.7 34.9 C 30.7 34.9 31 34.3 31 33.1 Z M 27.4 30.7 C 27.4 29.2 28.1 28.3 29.6 28.3 C 31.2 28.3 31.9 29.2 31.9 30.7 C 31.9 30.7 31.9 33 31.9 33 C 31.9 33.5 31.7 34.8 31.3 35 C 31.3 35 31.3 35 31.3 35 C 31.4 35 31.8 34.9 31.9 34.9 C 31.94 34.87 32.7 34.9 32.7 34.9 L 32.7 35.7 C 32.7 35.7 29.66 35.67 29.7 35.7 C 28.7 35.7 27.4 35.6 27.4 33 C 27.4 33 27.4 30.7 27.4 30.7 Z M 36.2 30.6 L 37 30.6 C 37 30.6 37.01 34.62 37 34.6 C 37 35 37 35.3 37.1 35.7 C 37.06 35.67 36.2 35.7 36.2 35.7 L 36.2 35.1 C 36.2 35.1 36.16 35.06 36.2 35.1 C 35.9 35.5 35.4 35.8 34.9 35.8 C 34 35.8 33.5 35.3 33.5 34.5 C 33.52 34.47 33.5 30.6 33.5 30.6 L 34.3 30.6 C 34.3 30.6 34.34 34.12 34.3 34.1 C 34.3 34.7 34.6 35.1 35.2 35.1 C 35.6 35.1 36.2 34.8 36.2 34 C 36.19 33.97 36.2 30.6 36.2 30.6 Z M 41.3 32.8 C 41.3 31.3 40.8 31.1 40.2 31.1 C 39.7 31.1 39.3 31.4 39.3 32.8 C 39.3 32.8 41.3 32.8 41.3 32.8 Z M 39.3 33.4 C 39.3 34.8 39.7 35.1 40.3 35.1 C 40.9 35.1 41.2 34.6 41.2 34.1 C 41.2 34.1 42.1 34.1 42.1 34.1 C 42.1 35.3 41.4 35.8 40.3 35.8 C 39.3 35.8 38.4 35.4 38.4 33.2 C 38.4 31.7 38.6 30.5 40.3 30.5 C 41.8 30.5 42.1 31.3 42.1 33 C 42.13 32.98 42.1 33.4 42.1 33.4 C 42.1 33.4 39.29 33.41 39.3 33.4 Z M 45 35.8 C 43.9 35.8 43.2 35.3 43.2 34.1 C 43.2 34.1 44.2 34.1 44.2 34.1 C 44.2 34.4 44.2 35.1 45 35.1 C 45.5 35.1 45.9 34.8 45.9 34.3 C 45.9 33.4 43.4 33.4 43.4 31.9 C 43.4 31.4 43.7 30.5 45.1 30.5 C 46 30.5 46.8 30.9 46.7 31.9 C 46.7 31.9 45.8 31.9 45.8 31.9 C 45.8 31.4 45.5 31.1 45 31.1 C 44.6 31.1 44.2 31.4 44.2 31.8 C 44.2 32.7 46.7 32.7 46.7 34.2 C 46.7 35.3 46 35.8 45 35.8 Z M 48 30.6 L 48 29.6 L 48.8 29.3 L 48.8 30.6 L 49.9 30.6 L 49.9 31.2 L 48.8 31.2 C 48.8 31.2 48.84 34.33 48.8 34.3 C 48.8 34.6 48.8 35.1 49.6 35.1 C 49.6 35.1 49.8 35 50 35 C 50 35 50 35.6 50 35.6 C 49.7 35.7 49.4 35.7 49.1 35.7 C 48.4 35.7 48 35.4 48 34.8 C 48.02 34.83 48 31.2 48 31.2 L 47.2 31.2 L 47.2 30.6 L 48 30.6 Z M 51.5 35.7 L 50.7 35.7 L 50.7 30.6 L 51.5 30.6 L 51.5 35.7 Z M 50.6 28.4 L 51.6 28.4 L 51.6 29.3 L 50.6 29.3 L 50.6 28.4 Z M 55.8 32.9 C 55.8 31.5 55.3 31.2 54.7 31.2 C 54.1 31.2 53.6 31.5 53.6 32.9 C 53.6 34.5 53.9 35.1 54.7 35.1 C 55.6 35.1 55.8 34.5 55.8 32.9 Z M 52.8 33.2 C 52.8 31.7 53 30.5 54.7 30.5 C 56.5 30.5 56.6 31.7 56.6 33.2 C 56.6 35.4 55.8 35.8 54.7 35.8 C 53.6 35.8 52.8 35.4 52.8 33.2 Z M 60.7 35.7 C 60.7 35.7 60.67 32.17 60.7 32.2 C 60.7 31.6 60.5 31.2 59.8 31.2 C 58.9 31.2 58.7 32 58.7 32.7 C 58.75 32.68 58.7 35.7 58.7 35.7 L 57.9 35.7 C 57.9 35.7 57.93 31.67 57.9 31.7 C 57.9 31.3 57.9 31 57.9 30.6 C 57.88 30.62 58.7 30.6 58.7 30.6 L 58.7 31.3 C 58.7 31.3 58.79 31.27 58.8 31.3 C 59.1 30.7 59.5 30.5 60.1 30.5 C 61.2 30.5 61.5 31.2 61.5 32.2 C 61.49 32.17 61.5 35.7 61.5 35.7 L 60.7 35.7 Z M 65.7 35.7 C 65.7 35.7 65.67 32.17 65.7 32.2 C 65.7 31.6 65.5 31.2 64.8 31.2 C 63.9 31.2 63.7 32 63.7 32.7 C 63.75 32.68 63.7 35.7 63.7 35.7 L 62.9 35.7 C 62.9 35.7 62.93 31.67 62.9 31.7 C 62.9 31.3 62.9 31 62.9 30.6 C 62.88 30.62 63.7 30.6 63.7 30.6 L 63.7 31.3 C 63.7 31.3 63.79 31.27 63.8 31.3 C 64.1 30.7 64.5 30.5 65.1 30.5 C 66.2 30.5 66.5 31.2 66.5 32.2 C 66.49 32.17 66.5 35.7 66.5 35.7 L 65.7 35.7 Z M 68.7 34.2 C 68.7 34.7 68.9 35.1 69.5 35.1 C 70 35.1 70.6 34.8 70.5 33.2 C 69.7 33.2 68.7 33.1 68.7 34.2 Z M 70.5 34.9 C 70.5 34.9 70.51 34.94 70.5 34.9 C 70.3 35.5 69.9 35.8 69.2 35.8 C 68.2 35.8 67.9 35.1 67.9 34.1 C 67.9 32.6 69.4 32.5 70.5 32.5 C 70.5 31.9 70.5 31.1 69.7 31.1 C 69.1 31.1 68.8 31.5 68.9 32 C 68.9 32 68 32 68 32 C 68 30.9 68.6 30.5 69.7 30.5 C 71 30.5 71.3 31.2 71.3 32 C 71.3 32 71.3 34.5 71.3 34.5 C 71.3 34.9 71.4 35.3 71.4 35.7 C 71.43 35.67 70.5 35.7 70.5 35.7 L 70.5 34.9 Z M 73.7 35.7 L 72.9 35.7 L 72.9 30.6 L 73.7 30.6 L 73.7 35.7 Z M 72.9 28.4 L 73.8 28.4 L 73.8 29.3 L 72.9 29.3 L 72.9 28.4 Z M 76 31.4 C 76 31.4 76.02 31.38 76 31.4 C 76.4 30.6 76.8 30.5 77.6 30.5 C 77.6 30.5 77.6 31.4 77.6 31.4 C 77.5 31.4 77.4 31.3 77.4 31.3 C 77.3 31.3 77.2 31.3 77.1 31.3 C 76.2 31.3 76 32 76 32.7 C 76 32.69 76 35.7 76 35.7 L 75.2 35.7 L 75.2 30.6 L 76 30.6 L 76 31.4 Z M 81.2 32.8 C 81.2 31.3 80.8 31.1 80.2 31.1 C 79.7 31.1 79.3 31.4 79.3 32.8 C 79.3 32.8 81.2 32.8 81.2 32.8 Z M 79.3 33.4 C 79.3 34.8 79.7 35.1 80.3 35.1 C 80.9 35.1 81.1 34.6 81.2 34.1 C 81.2 34.1 82.1 34.1 82.1 34.1 C 82.1 35.3 81.4 35.8 80.3 35.8 C 79.2 35.8 78.4 35.4 78.4 33.2 C 78.4 31.7 78.6 30.5 80.3 30.5 C 81.8 30.5 82.1 31.3 82.1 33 C 82.12 32.98 82.1 33.4 82.1 33.4 C 82.1 33.4 79.28 33.41 79.3 33.4 Z M 83.6 34.6 L 84.6 34.6 L 83.7 36.9 L 83.1 36.9 L 83.6 34.6 Z M 84.3 31.7 L 83.4 31.7 L 83.4 30.6 L 84.3 30.6 L 84.3 31.7 Z M 88.9 35.7 L 88 35.7 L 88 28.4 L 89.5 28.4 L 91.3 34.5 L 91.3 34.5 L 93.2 28.4 L 94.7 28.4 L 94.7 35.7 L 93.8 35.7 L 93.8 29.2 L 93.8 29.2 L 91.7 35.7 L 90.9 35.7 L 88.9 29.2 L 88.9 29.2 L 88.9 35.7 Z M 99.5 30.4 C 99.5 30 99.5 29.6 99.3 29.4 C 99.1 29.2 98.7 29.1 98.5 29.1 C 97.7 29.1 97.4 29.5 97.4 29.6 C 97.4 29.7 97.2 29.9 97.2 31.1 C 97.2 31.1 97.2 33.1 97.2 33.1 C 97.2 34.8 97.8 35 98.5 35 C 98.8 35 99.6 34.9 99.6 33.5 C 99.6 33.5 100.6 33.5 100.6 33.5 C 100.6 35.8 99 35.8 98.5 35.8 C 97.6 35.8 96.3 35.8 96.3 33 C 96.3 33 96.3 30.9 96.3 30.9 C 96.3 28.9 97.2 28.3 98.6 28.3 C 100 28.3 100.6 29 100.5 30.4 C 100.5 30.4 99.5 30.4 99.5 30.4 Z M 102.9 35.7 L 102 35.7 L 102 28.4 L 102.9 28.4 L 102.9 35.7 Z M 105.6 34.9 C 105.6 34.9 106.49 34.87 106.5 34.9 C 107.8 34.9 108.2 34.4 108.2 32.7 C 108.2 32.7 108.2 31.2 108.2 31.2 C 108.2 29.8 107.8 29.2 106.8 29.2 C 106.83 29.25 105.6 29.2 105.6 29.2 L 105.6 34.9 Z M 104.7 28.4 C 104.7 28.4 106.92 28.45 106.9 28.4 C 107.8 28.4 108.5 28.8 108.9 29.5 C 109.1 30.2 109.2 31.6 109.2 31.8 C 109.2 33.4 109 34.3 108.7 34.7 C 108.3 35.4 107.6 35.7 106.4 35.7 C 106.36 35.67 104.7 35.7 104.7 35.7 L 104.7 28.4 Z M 110.8 34.6 L 111.9 34.6 L 111 36.9 L 110.3 36.9 L 110.8 34.6 Z " stroke="none" fill="#555555"/>  </g>  <g id="Polygon197756">    <path d="M 2.4 16.4 L 3.6 16.4 L 6 23.7 L 4.9 23.7 L 4.4 21.9 L 1.6 21.9 L 1.1 23.7 L 0.2 23.7 L 2.4 16.4 Z M 3 17.3 L 3 17.3 L 1.9 21.1 L 4.2 21.1 L 3 17.3 Z M 6.9 23.7 L 6.9 16.4 L 10.6 16.4 L 10.6 17.2 L 7.8 17.2 L 7.8 19.6 L 10.4 19.6 L 10.4 20.4 L 7.8 20.4 L 7.8 22.9 L 10.7 22.9 L 10.7 23.7 L 6.9 23.7 Z M 11.7 20.6 L 13.9 20.6 L 13.9 21.3 L 11.7 21.3 L 11.7 20.6 Z M 18.8 21.1 C 18.8 21.1 18.8 18.6 18.8 18.6 C 18.8 17.1 17.7 17.1 17.4 17.1 C 17.1 17.1 16.1 17.1 16.1 18.6 C 16.1 18.6 16.1 21.1 16.1 21.1 C 16.1 22.3 16.4 22.9 17.4 22.9 C 18.5 22.9 18.8 22.3 18.8 21.1 Z M 15.2 18.7 C 15.2 17.2 15.9 16.3 17.4 16.3 C 19 16.3 19.7 17.2 19.7 18.7 C 19.7 18.7 19.7 21 19.7 21 C 19.7 21.5 19.5 22.8 19.1 23 C 19.1 23 19.1 23 19.1 23 C 19.2 23 19.6 22.9 19.7 22.9 C 19.72 22.87 20.4 22.9 20.4 22.9 L 20.4 23.7 C 20.4 23.7 17.44 23.67 17.4 23.7 C 16.5 23.7 15.2 23.6 15.2 21 C 15.2 21 15.2 18.7 15.2 18.7 Z M 24.1 20.9 C 24.1 19.5 23.7 19.2 23 19.2 C 22.4 19.2 22 19.5 22 20.9 C 22 22.5 22.2 23.1 23 23.1 C 23.9 23.1 24.1 22.5 24.1 20.9 Z M 21.1 21.2 C 21.1 19.7 21.3 18.5 23 18.5 C 24.8 18.5 25 19.7 25 21.2 C 25 23.4 24.1 23.8 23 23.8 C 22 23.8 21.1 23.4 21.1 21.2 Z M 26.4 23.7 L 26.4 16.4 L 27.3 16.4 L 27.3 22.9 L 29.9 22.9 L 29.9 23.7 L 26.4 23.7 Z M 30.8 22.6 L 31.9 22.6 L 31 24.9 L 30.3 24.9 L 30.8 22.6 Z M 36.9 16.4 L 38 16.4 L 40.4 23.7 L 39.4 23.7 L 38.8 21.9 L 36 21.9 L 35.5 23.7 L 34.6 23.7 L 36.9 16.4 Z M 37.4 17.3 L 37.4 17.3 L 36.3 21.1 L 38.6 21.1 L 37.4 17.3 Z M 44 23.7 C 44 23.7 44 20.17 44 20.2 C 44 19.6 43.8 19.2 43.1 19.2 C 42.2 19.2 42.1 20 42.1 20.7 C 42.08 20.68 42.1 23.7 42.1 23.7 L 41.3 23.7 C 41.3 23.7 41.26 19.67 41.3 19.7 C 41.3 19.3 41.2 19 41.2 18.6 C 41.21 18.62 42.1 18.6 42.1 18.6 L 42.1 19.3 C 42.1 19.3 42.12 19.27 42.1 19.3 C 42.4 18.7 42.8 18.5 43.5 18.5 C 44.5 18.5 44.8 19.2 44.8 20.2 C 44.82 20.17 44.8 23.7 44.8 23.7 L 44 23.7 Z M 48 19.2 C 47 19.2 47 20.3 47 21 C 47 22.6 47.4 23 48 23 C 49 23 48.9 21.8 48.9 21.1 C 48.9 20.4 49 19.2 48 19.2 Z M 48.9 18.6 L 49.7 18.6 C 49.7 18.6 49.75 24.18 49.7 24.2 C 49.7 25.3 49 25.6 47.9 25.6 C 47 25.6 46.3 25.2 46.4 24.2 C 46.4 24.2 47.3 24.2 47.3 24.2 C 47.3 24.7 47.6 25 48 25 C 48.6 25 48.9 24.6 48.9 24.1 C 48.93 24.09 48.9 23 48.9 23 C 48.9 23 48.9 23.04 48.9 23 C 48.7 23.4 48.2 23.7 47.8 23.7 C 46.4 23.7 46.1 22.5 46.1 21 C 46.1 18.7 47.3 18.5 47.7 18.5 C 48.3 18.5 48.7 18.7 48.9 19.2 C 48.91 19.24 48.9 19.2 48.9 19.2 L 48.9 18.6 Z M 52.1 23.7 L 51.2 23.7 L 51.2 18.6 L 52.1 18.6 L 52.1 23.7 Z M 51.2 16.4 L 52.1 16.4 L 52.1 17.3 L 51.2 17.3 L 51.2 16.4 Z M 56.3 20.9 C 56.3 19.5 55.9 19.2 55.3 19.2 C 54.6 19.2 54.2 19.5 54.2 20.9 C 54.2 22.5 54.4 23.1 55.3 23.1 C 56.1 23.1 56.3 22.5 56.3 20.9 Z M 53.3 21.2 C 53.3 19.7 53.5 18.5 55.3 18.5 C 57 18.5 57.2 19.7 57.2 21.2 C 57.2 23.4 56.3 23.8 55.3 23.8 C 54.2 23.8 53.3 23.4 53.3 21.2 Z M 61.2 20.8 C 61.2 19.3 60.8 19.1 60.2 19.1 C 59.7 19.1 59.3 19.4 59.3 20.8 C 59.3 20.8 61.2 20.8 61.2 20.8 Z M 59.3 21.4 C 59.3 22.8 59.7 23.1 60.3 23.1 C 60.9 23.1 61.1 22.6 61.2 22.1 C 61.2 22.1 62.1 22.1 62.1 22.1 C 62.1 23.3 61.4 23.8 60.3 23.8 C 59.2 23.8 58.4 23.4 58.4 21.2 C 58.4 19.7 58.6 18.5 60.3 18.5 C 61.8 18.5 62.1 19.3 62.1 21 C 62.12 20.98 62.1 21.4 62.1 21.4 C 62.1 21.4 59.28 21.41 59.3 21.4 Z M 65.2 19.2 C 64.3 19.2 64.2 19.9 64.2 21.2 C 64.2 22 64.2 23.1 65.2 23.1 C 66.1 23.1 66.1 22 66.1 20.9 C 66.1 20.3 66.1 19.2 65.2 19.2 Z M 66.1 16.4 L 67 16.4 L 67 23.7 L 66.1 23.7 L 66.1 23.1 C 66.1 23.1 66.13 23.07 66.1 23.1 C 65.8 23.5 65.5 23.8 65 23.8 C 64.2 23.8 63.3 23.4 63.3 21.2 C 63.3 20 63.4 18.5 65 18.5 C 65.5 18.5 65.8 18.7 66.1 19.1 C 66.12 19.13 66.1 19.1 66.1 19.1 L 66.1 16.4 Z M 71.2 20.8 C 71.2 19.3 70.8 19.1 70.2 19.1 C 69.7 19.1 69.3 19.4 69.3 20.8 C 69.3 20.8 71.2 20.8 71.2 20.8 Z M 69.3 21.4 C 69.3 22.8 69.7 23.1 70.3 23.1 C 70.9 23.1 71.1 22.6 71.2 22.1 C 71.2 22.1 72.1 22.1 72.1 22.1 C 72.1 23.3 71.4 23.8 70.3 23.8 C 69.2 23.8 68.4 23.4 68.4 21.2 C 68.4 19.7 68.6 18.5 70.3 18.5 C 71.8 18.5 72.1 19.3 72.1 21 C 72.12 20.98 72.1 21.4 72.1 21.4 C 72.1 21.4 69.28 21.41 69.3 21.4 Z M 76 23.7 C 76 23.7 75.96 20.17 76 20.2 C 76 19.7 75.8 19.2 75.2 19.2 C 74.9 19.2 74.6 19.3 74.4 19.5 C 74.3 19.8 74.3 20.1 74.3 20.3 C 74.26 20.27 74.3 23.7 74.3 23.7 L 73.4 23.7 C 73.4 23.7 73.44 19.67 73.4 19.7 C 73.4 19.3 73.4 19 73.4 18.6 C 73.39 18.62 74.3 18.6 74.3 18.6 L 74.3 19.2 C 74.3 19.2 74.28 19.25 74.3 19.2 C 74.5 18.7 74.9 18.5 75.5 18.5 C 76 18.5 76.5 18.7 76.7 19.2 C 77 18.6 77.5 18.5 77.9 18.5 C 78.4 18.5 79.3 18.6 79.3 19.8 C 79.3 19.83 79.3 23.7 79.3 23.7 L 78.5 23.7 C 78.5 23.7 78.48 20.17 78.5 20.2 C 78.5 19.7 78.3 19.2 77.7 19.2 C 77.4 19.2 77.3 19.2 77.1 19.4 C 76.8 19.6 76.8 20.1 76.8 20.3 C 76.78 20.27 76.8 23.7 76.8 23.7 L 76 23.7 Z M 81.4 22.2 C 81.4 22.7 81.7 23.1 82.2 23.1 C 82.7 23.1 83.4 22.8 83.3 21.2 C 82.5 21.2 81.4 21.1 81.4 22.2 Z M 83.3 22.9 C 83.3 22.9 83.28 22.94 83.3 22.9 C 83 23.5 82.6 23.8 82 23.8 C 80.9 23.8 80.6 23.1 80.6 22.1 C 80.6 20.6 82.1 20.5 83.3 20.5 C 83.3 19.9 83.3 19.1 82.4 19.1 C 81.9 19.1 81.6 19.5 81.6 20 C 81.6 20 80.7 20 80.7 20 C 80.8 18.9 81.4 18.5 82.5 18.5 C 83.8 18.5 84.1 19.2 84.1 20 C 84.1 20 84.1 22.5 84.1 22.5 C 84.1 22.9 84.1 23.3 84.2 23.7 C 84.2 23.67 83.3 23.7 83.3 23.7 L 83.3 22.9 Z M 91.5 21.1 C 91.5 21.1 91.5 18.6 91.5 18.6 C 91.5 17.1 90.5 17.1 90.2 17.1 C 89.9 17.1 88.9 17.1 88.9 18.6 C 88.9 18.6 88.9 21.1 88.9 21.1 C 88.9 22.3 89.1 22.9 90.2 22.9 C 91.3 22.9 91.5 22.3 91.5 21.1 Z M 87.9 18.7 C 87.9 17.2 88.7 16.3 90.2 16.3 C 91.7 16.3 92.5 17.2 92.5 18.7 C 92.5 18.7 92.5 21 92.5 21 C 92.5 21.5 92.2 22.8 91.8 23 C 91.8 23 91.8 23 91.8 23 C 92 23 92.3 22.9 92.5 22.9 C 92.48 22.87 93.2 22.9 93.2 22.9 L 93.2 23.7 C 93.2 23.7 90.2 23.67 90.2 23.7 C 89.2 23.7 87.9 23.6 87.9 21 C 87.9 21 87.9 18.7 87.9 18.7 Z M 96.7 18.6 L 97.5 18.6 C 97.5 18.6 97.55 22.62 97.5 22.6 C 97.5 23 97.6 23.3 97.6 23.7 C 97.6 23.67 96.7 23.7 96.7 23.7 L 96.7 23.1 C 96.7 23.1 96.7 23.06 96.7 23.1 C 96.4 23.5 95.9 23.8 95.4 23.8 C 94.5 23.8 94.1 23.3 94.1 22.5 C 94.06 22.47 94.1 18.6 94.1 18.6 L 94.9 18.6 C 94.9 18.6 94.88 22.12 94.9 22.1 C 94.9 22.7 95.2 23.1 95.7 23.1 C 96.2 23.1 96.7 22.8 96.7 22 C 96.73 21.97 96.7 18.6 96.7 18.6 Z M 99.8 22.2 C 99.8 22.7 100 23.1 100.6 23.1 C 101.1 23.1 101.7 22.8 101.6 21.2 C 100.8 21.2 99.8 21.1 99.8 22.2 Z M 101.6 22.9 C 101.6 22.9 101.61 22.94 101.6 22.9 C 101.4 23.5 101 23.8 100.3 23.8 C 99.3 23.8 99 23.1 99 22.1 C 99 20.6 100.5 20.5 101.6 20.5 C 101.6 19.9 101.6 19.1 100.8 19.1 C 100.2 19.1 99.9 19.5 100 20 C 100 20 99.1 20 99.1 20 C 99.1 18.9 99.7 18.5 100.8 18.5 C 102.1 18.5 102.4 19.2 102.4 20 C 102.4 20 102.4 22.5 102.4 22.5 C 102.4 22.9 102.5 23.3 102.5 23.7 C 102.53 23.67 101.6 23.7 101.6 23.7 L 101.6 22.9 Z M 104.8 23.7 L 104 23.7 L 104 16.4 L 104.8 16.4 L 104.8 23.7 Z M 107 23.7 L 106.2 23.7 L 106.2 18.6 L 107 18.6 L 107 23.7 Z M 106.2 16.4 L 107.1 16.4 L 107.1 17.3 L 106.2 17.3 L 106.2 16.4 Z M 108.6 18.6 L 108.6 17.6 L 109.4 17.3 L 109.4 18.6 L 110.5 18.6 L 110.5 19.2 L 109.4 19.2 C 109.4 19.2 109.38 22.33 109.4 22.3 C 109.4 22.6 109.4 23.1 110.1 23.1 C 110.2 23.1 110.3 23 110.5 23 C 110.5 23 110.5 23.6 110.5 23.6 C 110.2 23.7 110 23.7 109.7 23.7 C 108.9 23.7 108.6 23.4 108.6 22.8 C 108.56 22.83 108.6 19.2 108.6 19.2 L 107.7 19.2 L 107.7 18.6 L 108.6 18.6 Z M 112.8 22.7 L 112.8 22.7 L 114 18.6 L 114.9 18.6 L 112.6 25.6 L 111.7 25.6 L 112.3 23.7 L 110.6 18.6 L 111.6 18.6 L 112.8 22.7 Z " stroke="none" fill="#555555"/>  </g>  <g id="Polygon197755">    <path d="M 0.1 7.2 L 2.1 0 L 4.1 0 L 6 7.2 L 4.4 7.2 L 4 5.6 L 2 5.6 L 1.6 7.2 L 0.1 7.2 Z M 3 1.4 L 3 1.4 L 2.3 4.5 L 3.7 4.5 L 3 1.4 Z M 9.3 4.7 C 9.3 3.7 9.3 3 8.6 3 C 8.1 3 8.1 3.7 8.1 4.7 C 8.1 5.9 8.2 6.5 8.6 6.5 C 9.2 6.5 9.3 5.9 9.3 4.7 Z M 6.7 0 L 8.1 0 L 8.1 2.7 C 8.1 2.7 8.1 2.67 8.1 2.7 C 8.4 2.2 8.7 2.1 9.3 2.1 C 10.7 2.1 10.6 3.7 10.6 4.7 C 10.6 5.7 10.7 7.3 9.2 7.3 C 8.7 7.3 8.3 7.2 8 6.7 C 8.03 6.68 8 6.7 8 6.7 L 8 7.2 L 6.7 7.2 L 6.7 0 Z M 14.3 4.7 C 14.3 3.7 14.3 3 13.6 3 C 13.1 3 13.1 3.7 13.1 4.7 C 13.1 5.9 13.2 6.5 13.6 6.5 C 14.2 6.5 14.3 5.9 14.3 4.7 Z M 11.7 0 L 13.1 0 L 13.1 2.7 C 13.1 2.7 13.1 2.67 13.1 2.7 C 13.4 2.2 13.7 2.1 14.3 2.1 C 15.7 2.1 15.6 3.7 15.6 4.7 C 15.6 5.7 15.7 7.3 14.2 7.3 C 13.7 7.3 13.3 7.2 13 6.7 C 13.03 6.68 13 6.7 13 6.7 L 13 7.2 L 11.7 7.2 L 11.7 0 Z M 18 2.2 L 18 2.8 C 18 2.8 18.03 2.84 18 2.8 C 18.3 2.3 18.8 2.1 19.3 2.1 C 19.3 2.1 19.3 3.3 19.3 3.3 C 18.1 3.3 18.1 4 18.1 4.5 C 18.08 4.49 18.1 7.2 18.1 7.2 L 16.7 7.2 L 16.7 2.2 L 18 2.2 Z M 22.6 4.2 C 22.6 3.7 22.6 3 21.9 3 C 21.3 3 21.3 3.7 21.3 4.2 C 21.3 4.2 22.6 4.2 22.6 4.2 Z M 21.3 4.9 C 21.3 5.5 21.3 6.4 21.9 6.4 C 22.4 6.4 22.5 6 22.5 5.5 C 22.5 5.5 24 5.5 24 5.5 C 23.9 6.1 23.8 6.5 23.4 6.9 C 23.1 7.2 22.6 7.3 21.9 7.3 C 20.1 7.3 19.9 6.2 19.9 4.6 C 19.9 3.3 20.1 2.1 21.9 2.1 C 23.8 2.1 24 3.3 24 4.9 C 24 4.9 21.3 4.9 21.3 4.9 Z M 24.5 2.2 L 26 2.2 L 26.7 6 L 26.7 6 L 27.4 2.2 L 28.8 2.2 L 27.4 7.2 L 25.9 7.2 L 24.5 2.2 Z M 31 7.2 L 29.6 7.2 L 29.6 2.2 L 31 2.2 L 31 7.2 Z M 31 0 L 31 1.1 L 29.6 1.1 L 29.6 0 L 31 0 Z M 33.4 5.7 C 33.4 6 33.5 6.5 34 6.5 C 34.8 6.5 34.7 5.3 34.7 4.8 C 34 4.8 33.4 4.8 33.4 5.7 Z M 36 6.3 C 36 6.6 36.1 6.9 36.1 7.2 C 36.12 7.24 34.8 7.2 34.8 7.2 L 34.8 6.6 C 34.8 6.6 34.73 6.57 34.7 6.6 C 34.4 7.1 34 7.3 33.4 7.3 C 32.4 7.3 32.1 6.6 32.1 5.7 C 32.1 4.1 33.4 4 34.7 4 C 34.7 4 34.7 3.6 34.7 3.6 C 34.7 3.2 34.6 2.9 34.1 2.9 C 33.6 2.9 33.6 3.2 33.6 3.7 C 33.6 3.7 32.2 3.7 32.2 3.7 C 32.2 3 32.4 2.6 32.7 2.4 C 33 2.2 33.5 2.1 34 2.1 C 35.8 2.1 36 2.9 36 3.8 C 36 3.8 36 6.3 36 6.3 Z M 36.7 2.2 L 37.2 2.2 L 37.2 1.4 L 38.6 0.8 L 38.6 2.2 L 39.4 2.2 L 39.4 3.1 L 38.6 3.1 C 38.6 3.1 38.63 5.76 38.6 5.8 C 38.6 6.1 38.6 6.4 39.1 6.4 C 39.2 6.4 39.3 6.4 39.3 6.4 C 39.3 6.4 39.3 7.2 39.3 7.2 C 39.1 7.3 38.9 7.3 38.6 7.3 C 37.4 7.3 37.2 6.5 37.2 6.2 C 37.22 6.17 37.2 3.1 37.2 3.1 L 36.7 3.1 L 36.7 2.2 Z M 41.5 7.2 L 40.1 7.2 L 40.1 2.2 L 41.5 2.2 L 41.5 7.2 Z M 41.5 0 L 41.5 1.1 L 40.1 1.1 L 40.1 0 L 41.5 0 Z M 45.4 4.6 C 45.4 3.5 45.3 3 44.7 3 C 44.1 3 44.1 3.5 44.1 4.6 C 44.1 6.1 44.2 6.4 44.7 6.4 C 45.2 6.4 45.4 6.1 45.4 4.6 Z M 42.7 4.6 C 42.7 3.3 42.9 2.1 44.7 2.1 C 46.6 2.1 46.8 3.3 46.8 4.6 C 46.8 6.2 46.5 7.3 44.7 7.3 C 42.9 7.3 42.7 6.2 42.7 4.6 Z M 49.2 2.7 C 49.2 2.7 49.21 2.7 49.2 2.7 C 49.3 2.5 49.5 2.3 49.7 2.2 C 49.9 2.1 50.1 2.1 50.4 2.1 C 51.1 2.1 51.7 2.5 51.7 3.2 C 51.66 3.19 51.7 7.2 51.7 7.2 L 50.3 7.2 C 50.3 7.2 50.25 3.76 50.3 3.8 C 50.3 3.3 50.2 3 49.7 3 C 49.3 3 49.2 3.3 49.2 3.8 C 49.19 3.76 49.2 7.2 49.2 7.2 L 47.8 7.2 L 47.8 2.2 L 49.2 2.2 L 49.2 2.7 Z M 53.9 2.2 L 53.9 3.5 L 52.7 3.5 L 52.7 2.2 L 53.9 2.2 Z M 53.9 7.2 L 52.7 7.2 L 52.7 5.9 L 53.9 5.9 L 53.9 7.2 Z " stroke="none" fill="#555555"/>  </g></svg>