<?xml version="1.0" standalone="no"?><!DOCTYPE svg PUBLIC "-//W3C//DTD SVG 1.1//EN" "http://www.w3.org/Graphics/SVG/1.1/DTD/svg11.dtd"><svg xmlns="http://www.w3.org/2000/svg" version="1.1" width="43px" height="25.3px" viewBox="0 -5 43 25.3" style="top:-5px">  <desc>n=22†</desc>  <defs/>  <g id="Polygon194966">    <path d="M 5.4 11.3 C 5.4 11.3 5.4 5.84 5.4 5.8 C 5.4 5 5.1 4.3 4 4.3 C 2.6 4.3 2.4 5.6 2.4 6.6 C 2.4 6.63 2.4 11.3 2.4 11.3 L 1.1 11.3 C 1.1 11.3 1.12 5.06 1.1 5.1 C 1.1 4.5 1.1 4 1 3.4 C 1.05 3.42 2.4 3.4 2.4 3.4 L 2.4 4.4 C 2.4 4.4 2.47 4.43 2.5 4.4 C 3 3.5 3.6 3.3 4.6 3.3 C 6.3 3.3 6.7 4.3 6.7 5.8 C 6.68 5.84 6.7 11.3 6.7 11.3 L 5.4 11.3 Z M 14.9 6.3 L 8.5 6.3 L 8.5 5.3 L 14.9 5.3 L 14.9 6.3 Z M 14.9 9.3 L 8.5 9.3 L 8.5 8.4 L 14.9 8.4 L 14.9 9.3 Z M 16.3 11.3 C 16.3 11.3 16.28 10.05 16.3 10.1 C 19.5 5.6 20.4 4.8 20.4 2.9 C 20.4 2.1 20 1.5 19 1.5 C 18 1.5 17.8 2.4 17.8 3.3 C 17.8 3.3 16.3 3.3 16.3 3.3 C 16.2 1.5 17.1 0.3 18.9 0.3 C 20.9 0.3 21.8 1.2 21.8 3.1 C 21.8 5.6 20.6 6.4 17.8 10.1 C 17.81 10.05 22.1 10.1 22.1 10.1 L 22.1 11.3 L 16.3 11.3 Z M 23.2 11.3 C 23.2 11.3 23.21 10.05 23.2 10.1 C 26.4 5.6 27.3 4.8 27.3 2.9 C 27.3 2.1 26.9 1.5 26 1.5 C 24.9 1.5 24.7 2.4 24.7 3.3 C 24.7 3.3 23.2 3.3 23.2 3.3 C 23.1 1.5 24 0.3 25.9 0.3 C 27.8 0.3 28.8 1.2 28.8 3.1 C 28.8 5.6 27.5 6.4 24.7 10.1 C 24.74 10.05 29 10.1 29 10.1 L 29 11.3 L 23.2 11.3 Z M 31.1 1.5 L 29.8 1.5 L 29.8 0.9 L 31.1 0.9 L 31.1 -0.5 L 31.9 -0.5 L 31.9 0.9 L 33.2 0.9 L 33.2 1.5 L 31.9 1.5 L 31.9 6.1 L 31.1 6.1 L 31.1 1.5 Z " stroke="none" fill="#555555"/>  </g></svg>