<?xml version="1.0" standalone="no"?><!DOCTYPE svg PUBLIC "-//W3C//DTD SVG 1.1//EN" "http://www.w3.org/Graphics/SVG/1.1/DTD/svg11.dtd"><svg xmlns="http://www.w3.org/2000/svg" version="1.1" width="730px" height="41.7px" viewBox="0 -7 730 41.7" style="top:-7px">  <desc>LIVING WITH HAE CAN NEGATIVELY IMPACT QoL1 3</desc>  <defs/>  <g id="Polygon197130">    <path d="M 1 0.1 L 3.8 0.1 L 3.8 17.9 L 8.5 17.9 L 8.5 20.3 L 1 20.3 L 1 0.1 Z M 9.8 0.1 L 12.6 0.1 L 12.6 20.3 L 9.8 20.3 L 9.8 0.1 Z M 13.7 0.1 L 16.5 0.1 L 19.5 16.1 L 19.5 16.1 L 22.4 0.1 L 25.2 0.1 L 21.1 20.3 L 17.9 20.3 L 13.7 0.1 Z M 26.4 0.1 L 29.2 0.1 L 29.2 20.3 L 26.4 20.3 L 26.4 0.1 Z M 31.2 0.1 L 35.1 0.1 L 38.4 16.9 L 38.4 16.9 L 38.4 0.1 L 41 0.1 L 41 20.3 L 37 20.3 L 33.7 3 L 33.7 3 L 33.7 20.3 L 31.2 20.3 L 31.2 0.1 Z M 49.6 5.4 C 49.6 5.4 49.64 4.37 49.6 4.4 C 49.6 2.9 48.9 2.1 47.9 2.1 C 46.6 2.1 45.9 3.2 45.9 5.4 C 45.9 5.4 45.9 15.6 45.9 15.6 C 45.9 17.2 46.7 18.3 47.9 18.3 C 48.6 18.3 49.3 18.1 49.6 18.1 C 49.64 18.06 49.6 12.1 49.6 12.1 L 47.8 12.1 L 47.8 9.8 L 52.4 9.8 C 52.4 9.8 52.44 19.94 52.4 19.9 C 51.4 20.2 49.4 20.4 47.8 20.4 C 44.3 20.4 43.1 18.6 43.1 15.4 C 43.1 15.4 43.1 5.2 43.1 5.2 C 43.1 1.4 44.3 -0.1 47.9 -0.1 C 50.9 -0.1 52.4 1 52.4 3.6 C 52.44 3.56 52.4 5.4 52.4 5.4 L 49.6 5.4 Z M 58 0.1 L 60.9 0.1 L 62.9 16.7 L 63 16.7 L 65.2 0.1 L 69 0.1 L 70.9 16.7 L 70.9 16.7 L 73.3 0.1 L 76 0.1 L 72.3 20.3 L 68.9 20.3 L 67 3.4 L 67 3.4 L 64.6 20.3 L 61.2 20.3 L 58 0.1 Z M 77.3 0.1 L 80.1 0.1 L 80.1 20.3 L 77.3 20.3 L 77.3 0.1 Z M 81.2 0.1 L 90.7 0.1 L 90.7 2.4 L 87.4 2.4 L 87.4 20.3 L 84.6 20.3 L 84.6 2.4 L 81.2 2.4 L 81.2 0.1 Z M 91.9 0.1 L 94.7 0.1 L 94.7 8.7 L 98.4 8.7 L 98.4 0.1 L 101.2 0.1 L 101.2 20.3 L 98.4 20.3 L 98.4 11.1 L 94.7 11.1 L 94.7 20.3 L 91.9 20.3 L 91.9 0.1 Z M 108.5 0.1 L 111.3 0.1 L 111.3 8.7 L 115.1 8.7 L 115.1 0.1 L 117.9 0.1 L 117.9 20.3 L 115.1 20.3 L 115.1 11.1 L 111.3 11.1 L 111.3 20.3 L 108.5 20.3 L 108.5 0.1 Z M 123.6 0.1 L 126.9 0.1 L 131 20.3 L 128.2 20.3 L 127.3 15.1 L 122.9 15.1 L 122 20.3 L 119.2 20.3 L 123.6 0.1 Z M 123.3 12.8 L 126.9 12.8 L 125.2 3 L 125.1 3 L 123.3 12.8 Z M 132.4 0.1 L 140 0.1 L 140 2.4 L 135.2 2.4 L 135.2 8.7 L 139.7 8.7 L 139.7 11.1 L 135.2 11.1 L 135.2 17.9 L 140 17.9 L 140 20.3 L 132.4 20.3 L 132.4 0.1 Z M 146.1 5.2 C 146.1 2.4 147 -0.1 150.8 -0.1 C 153.6 -0.1 154.9 1.3 154.9 3.6 C 154.87 3.56 154.9 5.6 154.9 5.6 L 152.2 5.6 C 152.2 5.6 152.23 4.17 152.2 4.2 C 152.2 2.9 151.8 2.1 150.6 2.1 C 149.2 2.1 148.9 3.1 148.9 5.5 C 148.9 5.5 148.9 15.5 148.9 15.5 C 148.9 17.8 149.6 18.3 150.5 18.3 C 151.6 18.3 152.2 17.5 152.2 15.8 C 152.23 15.85 152.2 14.4 152.2 14.4 L 154.9 14.4 C 154.9 14.4 154.87 16.69 154.9 16.7 C 154.9 18.8 154 20.4 150.7 20.4 C 147.2 20.4 146.1 18.6 146.1 15.4 C 146.1 15.4 146.1 5.2 146.1 5.2 Z M 159.6 0.1 L 162.9 0.1 L 167 20.3 L 164.2 20.3 L 163.3 15.1 L 158.9 15.1 L 158 20.3 L 155.2 20.3 L 159.6 0.1 Z M 159.3 12.8 L 162.9 12.8 L 161.1 3 L 161.1 3 L 159.3 12.8 Z M 168.3 0.1 L 172.2 0.1 L 175.5 16.9 L 175.6 16.9 L 175.6 0.1 L 178.2 0.1 L 178.2 20.3 L 174.2 20.3 L 170.9 3 L 170.8 3 L 170.8 20.3 L 168.3 20.3 L 168.3 0.1 Z M 185.5 0.1 L 189.3 0.1 L 192.6 16.9 L 192.7 16.9 L 192.7 0.1 L 195.3 0.1 L 195.3 20.3 L 191.3 20.3 L 188 3 L 187.9 3 L 187.9 20.3 L 185.5 20.3 L 185.5 0.1 Z M 197.4 0.1 L 205 0.1 L 205 2.4 L 200.2 2.4 L 200.2 8.7 L 204.7 8.7 L 204.7 11.1 L 200.2 11.1 L 200.2 17.9 L 205 17.9 L 205 20.3 L 197.4 20.3 L 197.4 0.1 Z M 212.7 5.4 C 212.7 5.4 212.74 4.37 212.7 4.4 C 212.7 2.9 212 2.1 210.9 2.1 C 209.7 2.1 209 3.2 209 5.4 C 209 5.4 209 15.6 209 15.6 C 209 17.2 209.8 18.3 210.9 18.3 C 211.7 18.3 212.4 18.1 212.7 18.1 C 212.74 18.06 212.7 12.1 212.7 12.1 L 210.9 12.1 L 210.9 9.8 L 215.5 9.8 C 215.5 9.8 215.54 19.94 215.5 19.9 C 214.4 20.2 212.5 20.4 210.9 20.4 C 207.4 20.4 206.2 18.6 206.2 15.4 C 206.2 15.4 206.2 5.2 206.2 5.2 C 206.2 1.4 207.4 -0.1 211 -0.1 C 214 -0.1 215.5 1 215.5 3.6 C 215.54 3.56 215.5 5.4 215.5 5.4 L 212.7 5.4 Z M 221.3 0.1 L 224.6 0.1 L 228.7 20.3 L 225.9 20.3 L 225 15.1 L 220.6 15.1 L 219.7 20.3 L 216.9 20.3 L 221.3 0.1 Z M 221 12.8 L 224.6 12.8 L 222.8 3 L 222.8 3 L 221 12.8 Z M 226.9 0.1 L 236.5 0.1 L 236.5 2.4 L 233.1 2.4 L 233.1 20.3 L 230.3 20.3 L 230.3 2.4 L 226.9 2.4 L 226.9 0.1 Z M 237.6 0.1 L 240.4 0.1 L 240.4 20.3 L 237.6 20.3 L 237.6 0.1 Z M 241.6 0.1 L 244.4 0.1 L 247.3 16.1 L 247.3 16.1 L 250.2 0.1 L 253 0.1 L 248.9 20.3 L 245.7 20.3 L 241.6 0.1 Z M 254.3 0.1 L 261.9 0.1 L 261.9 2.4 L 257.1 2.4 L 257.1 8.7 L 261.6 8.7 L 261.6 11.1 L 257.1 11.1 L 257.1 17.9 L 261.9 17.9 L 261.9 20.3 L 254.3 20.3 L 254.3 0.1 Z M 263.1 0.1 L 265.9 0.1 L 265.9 17.9 L 270.6 17.9 L 270.6 20.3 L 263.1 20.3 L 263.1 0.1 Z M 268.2 0.1 L 271 0.1 L 273.4 8.6 L 273.5 8.6 L 276.3 0.1 L 278.8 0.1 L 274.9 12 L 274.9 20.3 L 272.1 20.3 L 272.1 12 L 268.2 0.1 Z M 285.3 0.1 L 288.1 0.1 L 288.1 20.3 L 285.3 20.3 L 285.3 0.1 Z M 290.1 0.1 L 294.6 0.1 L 297.2 15.5 L 297.2 15.5 L 299.8 0.1 L 304.1 0.1 L 304.1 20.3 L 301.5 20.3 L 301.5 2.1 L 301.4 2.1 L 298.6 20.3 L 295.8 20.3 L 292.7 2.1 L 292.6 2.1 L 292.6 20.3 L 290.1 20.3 L 290.1 0.1 Z M 309 9.1 C 309 9.1 310.46 9.13 310.5 9.1 C 312.4 9.1 312.6 8.8 312.6 5.8 C 312.6 2.7 312.4 2.4 310.5 2.4 C 310.46 2.41 309 2.4 309 2.4 L 309 9.1 Z M 306.2 0.1 C 306.2 0.1 310.82 0.06 310.8 0.1 C 314.6 0.1 315.4 1.1 315.4 5.8 C 315.4 10.4 314.6 11.5 310.8 11.5 C 310.82 11.48 309 11.5 309 11.5 L 309 20.3 L 306.2 20.3 L 306.2 0.1 Z M 318.7 0.1 L 322 0.1 L 326.1 20.3 L 323.3 20.3 L 322.4 15.1 L 318 15.1 L 317.1 20.3 L 314.3 20.3 L 318.7 0.1 Z M 318.4 12.8 L 322 12.8 L 320.3 3 L 320.2 3 L 318.4 12.8 Z M 327 5.2 C 327 2.4 327.9 -0.1 331.7 -0.1 C 334.5 -0.1 335.8 1.3 335.8 3.6 C 335.8 3.56 335.8 5.6 335.8 5.6 L 333.2 5.6 C 333.2 5.6 333.17 4.17 333.2 4.2 C 333.2 2.9 332.7 2.1 331.5 2.1 C 330.1 2.1 329.8 3.1 329.8 5.5 C 329.8 5.5 329.8 15.5 329.8 15.5 C 329.8 17.8 330.6 18.3 331.5 18.3 C 332.5 18.3 333.2 17.5 333.2 15.8 C 333.17 15.85 333.2 14.4 333.2 14.4 L 335.8 14.4 C 335.8 14.4 335.8 16.69 335.8 16.7 C 335.8 18.8 334.9 20.4 331.7 20.4 C 328.2 20.4 327 18.6 327 15.4 C 327 15.4 327 5.2 327 5.2 Z M 336.3 0.1 L 345.8 0.1 L 345.8 2.4 L 342.5 2.4 L 342.5 20.3 L 339.7 20.3 L 339.7 2.4 L 336.3 2.4 L 336.3 0.1 Z M 354.9 15.6 C 354.9 17.3 355.7 18.3 356.9 18.3 C 358.1 18.3 358.8 17.3 358.8 15.6 C 358.8 15.6 358.8 5 358.8 5 C 358.8 3 358.2 2.1 356.9 2.1 C 355.6 2.1 354.9 3 354.9 5 C 354.9 5 354.9 15.6 354.9 15.6 Z M 352.1 5.2 C 352.1 2.4 353.1 -0.1 356.9 -0.1 C 360.5 -0.1 361.6 1.8 361.6 4.9 C 361.6 4.9 361.6 14.4 361.6 14.4 C 361.6 16.1 361.2 17.8 360.5 18.5 C 360.5 18.5 360.5 18.6 360.5 18.6 C 361 18.3 361.9 18.3 363.2 18.3 C 363.2 18.3 363.2 20.3 363.2 20.3 C 361.1 20.3 358.1 20.4 356.9 20.4 C 353.3 20.4 352.1 18.6 352.1 15.4 C 352.1 15.4 352.1 5.2 352.1 5.2 Z M 364 9.8 C 364 7.4 365.4 6 367.8 6 C 369.8 6 371.5 6.9 371.5 9.5 C 371.5 9.5 371.5 16.7 371.5 16.7 C 371.5 19 370.2 20.4 367.8 20.4 C 365.8 20.4 364 19.5 364 16.9 C 364 16.9 364 9.8 364 9.8 Z M 366.7 16.8 C 366.7 17.9 367 18.6 367.8 18.6 C 368.6 18.6 368.9 17.9 368.9 16.8 C 368.9 16.8 368.9 9.7 368.9 9.7 C 368.9 8.5 368.6 7.9 367.8 7.9 C 367 7.9 366.7 8.5 366.7 9.7 C 366.7 9.7 366.7 16.8 366.7 16.8 Z M 373.5 0.1 L 376.3 0.1 L 376.3 17.9 L 381 17.9 L 381 20.3 L 373.5 20.3 L 373.5 0.1 Z M 383.9 1.4 C 383.9 1.4 383.85 1.38 383.8 1.4 C 383.5 1.8 383.2 2.1 382.6 2.6 C 382.6 2.6 382.6 1.1 382.6 1.1 C 382.9 0.8 383.8 -0.3 384 -0.8 C 384.04 -0.84 385.4 -0.8 385.4 -0.8 L 385.4 10.9 L 383.9 10.9 L 383.9 1.4 Z M 387.8 6.2 L 391.7 6.2 L 391.7 7.5 L 387.8 7.5 L 387.8 6.2 Z M 392.8 7.8 L 394.3 7.8 C 394.3 7.8 394.31 8.4 394.3 8.4 C 394.3 9.3 394.5 9.9 395.2 9.9 C 395.9 9.9 396.1 9.3 396.1 8.4 C 396.1 8.4 396.1 7 396.1 7 C 396.1 5.9 395.8 5.6 394.7 5.6 C 394.72 5.59 394.3 5.6 394.3 5.6 L 394.3 4.2 C 394.3 4.2 394.83 4.22 394.8 4.2 C 395.8 4.2 396.1 4 396.1 2.8 C 396.1 2.8 396.1 1.5 396.1 1.5 C 396.1 0.5 395.7 0.2 395.3 0.2 C 394.6 0.2 394.4 0.8 394.4 1.7 C 394.39 1.71 394.4 2.1 394.4 2.1 C 394.4 2.1 392.86 2.1 392.9 2.1 C 392.9 -0.2 393.3 -0.9 395.3 -0.9 C 397.2 -0.9 397.6 0 397.6 2.2 C 397.6 4.2 397.3 4.6 396.2 4.9 C 396.2 4.9 396.2 4.9 396.2 4.9 C 397.2 5.1 397.6 5.3 397.6 8.1 C 397.6 10.3 397.2 11 395.2 11 C 393.3 11 392.8 10.3 392.8 8.1 C 392.78 8.14 392.8 7.8 392.8 7.8 Z " stroke="none" fill="#003c71"/>  </g></svg>