<?xml version="1.0" standalone="no"?><!DOCTYPE svg PUBLIC "-//W3C//DTD SVG 1.1//EN" "http://www.w3.org/Graphics/SVG/1.1/DTD/svg11.dtd"><svg xmlns="http://www.w3.org/2000/svg" version="1.1" width="319px" height="212px" viewBox="0 -6 319 212" style="top:-6px">  <desc>No TEAEs leading to death; No TEAEs leading to study discontinuation; No TEAEs of special interest (severe hypersensi...</desc>  <defs/>  <g id="Polygon201889">    <path d="M 1.5 165.9 L 1.5 164.2 L 2.9 163.5 L 2.9 165.9 L 4.9 165.9 L 4.9 167.1 L 2.9 167.1 C 2.9 167.1 2.93 172.62 2.9 172.6 C 2.9 173.2 2.9 173.9 4.3 173.9 C 4.4 173.9 4.6 173.9 4.9 173.9 C 4.9 173.9 4.9 175 4.9 175 C 4.5 175 4 175.1 3.5 175.1 C 2.1 175.1 1.5 174.6 1.5 173.5 C 1.46 173.52 1.5 167.1 1.5 167.1 L 0 167.1 L 0 165.9 L 1.5 165.9 Z M 11.2 175 C 11.2 175 11.23 168.88 11.2 168.9 C 11.2 167.8 10.9 167 9.6 167 C 8.1 167 7.8 168.2 7.8 169.7 C 7.76 169.69 7.8 175 7.8 175 L 6.3 175 L 6.3 162 L 7.8 162 L 7.8 167.1 C 7.8 167.1 7.83 167.11 7.8 167.1 C 8.4 166 9.1 165.8 10.3 165.8 C 11.8 165.8 12.7 166.5 12.7 168.6 C 12.71 168.59 12.7 175 12.7 175 L 11.2 175 Z M 20.3 169.8 C 20.3 167.2 19.5 166.9 18.5 166.9 C 17.5 166.9 16.8 167.3 16.7 169.8 C 16.7 169.8 20.3 169.8 20.3 169.8 Z M 16.7 171 C 16.7 173.5 17.4 174 18.6 174 C 19.6 174 20.1 173.2 20.2 172.3 C 20.2 172.3 21.8 172.3 21.8 172.3 C 21.8 174.3 20.5 175.2 18.6 175.2 C 16.7 175.2 15.2 174.6 15.2 170.6 C 15.2 168 15.5 165.8 18.6 165.8 C 21.2 165.8 21.9 167.2 21.9 170.2 C 21.85 170.19 21.9 171 21.9 171 C 21.9 171 16.74 170.96 16.7 171 Z M 31 175.2 C 29 175.2 27.8 174.3 27.8 172.3 C 27.8 172.3 29.5 172.3 29.5 172.3 C 29.5 172.8 29.5 174 31 174 C 31.9 174 32.6 173.6 32.6 172.6 C 32.6 171 28.1 171 28.1 168.2 C 28.1 167.3 28.6 165.8 31.2 165.8 C 32.8 165.8 34.2 166.5 34.1 168.3 C 34.1 168.3 32.4 168.3 32.4 168.3 C 32.5 167.4 31.9 166.9 31 166.9 C 30.2 166.9 29.6 167.3 29.6 168.1 C 29.6 169.7 34.1 169.7 34.1 172.4 C 34.1 174.4 32.8 175.2 31 175.2 Z M 36.4 165.9 L 36.4 164.2 L 37.9 163.5 L 37.9 165.9 L 39.9 165.9 L 39.9 167.1 L 37.9 167.1 C 37.9 167.1 37.93 172.62 37.9 172.6 C 37.9 173.2 37.9 173.9 39.3 173.9 C 39.4 173.9 39.6 173.9 39.9 173.9 C 39.9 173.9 39.9 175 39.9 175 C 39.5 175 39 175.1 38.5 175.1 C 37.1 175.1 36.4 174.6 36.4 173.5 C 36.45 173.52 36.4 167.1 36.4 167.1 L 35 167.1 L 35 165.9 L 36.4 165.9 Z M 46.2 165.9 L 47.6 165.9 C 47.6 165.9 47.63 173.14 47.6 173.1 C 47.6 173.8 47.7 174.4 47.7 175 C 47.72 175.03 46.2 175 46.2 175 L 46.2 173.9 C 46.2 173.9 46.1 173.93 46.1 173.9 C 45.6 174.8 44.7 175.2 43.8 175.2 C 42.2 175.2 41.3 174.4 41.3 172.9 C 41.35 172.87 41.3 165.9 41.3 165.9 L 42.8 165.9 C 42.8 165.9 42.82 172.24 42.8 172.2 C 42.8 173.3 43.3 174.1 44.4 174.1 C 45.2 174.1 46.2 173.5 46.2 172 C 46.15 171.97 46.2 165.9 46.2 165.9 Z M 53.4 167 C 51.8 167 51.6 168.2 51.6 170.7 C 51.6 172 51.6 174 53.4 174 C 55.1 174 55.1 172 55.1 170.1 C 55.1 168.9 55 167 53.4 167 Z M 55.1 162 L 56.6 162 L 56.6 175 L 55.1 175 L 55.1 174 C 55.1 174 55.06 173.95 55.1 174 C 54.6 174.8 53.9 175.2 53 175.2 C 51.5 175.2 50 174.6 50 170.6 C 50 168.4 50.1 165.8 53 165.8 C 53.9 165.8 54.5 166.1 55 166.9 C 55.04 166.86 55.1 166.9 55.1 166.9 L 55.1 162 Z M 62 173.3 L 62.1 173.3 L 64.2 165.9 L 65.8 165.9 L 61.7 178.5 L 60.2 178.5 L 61.2 175 L 58.1 165.9 L 59.8 165.9 L 62 173.3 Z M 76.4 170.3 C 76.4 169 76.4 167 74.5 167 C 72.7 167 72.9 169.5 72.9 170.9 C 72.9 172.1 73 174 74.6 174 C 76.2 174 76.4 172.8 76.4 170.3 Z M 72.9 167 C 72.9 167 72.92 167.02 72.9 167 C 73.4 166.2 74.1 165.8 75 165.8 C 76.5 165.8 77.9 166.3 77.9 170.3 C 77.9 172.6 77.9 175.2 74.9 175.2 C 74.1 175.2 73.4 174.8 72.9 174.1 C 72.93 174.11 72.9 174.1 72.9 174.1 L 72.9 178.5 L 71.4 178.5 L 71.4 165.9 L 72.9 165.9 L 72.9 167 Z M 85.3 169.8 C 85.3 167.2 84.5 166.9 83.4 166.9 C 82.5 166.9 81.7 167.3 81.7 169.8 C 81.7 169.8 85.3 169.8 85.3 169.8 Z M 81.7 171 C 81.7 173.5 82.4 174 83.6 174 C 84.6 174 85.1 173.2 85.1 172.3 C 85.1 172.3 86.8 172.3 86.8 172.3 C 86.7 174.3 85.5 175.2 83.6 175.2 C 81.7 175.2 80.1 174.6 80.1 170.6 C 80.1 168 80.4 165.8 83.6 165.8 C 86.2 165.8 86.8 167.2 86.8 170.2 C 86.83 170.19 86.8 171 86.8 171 C 86.8 171 81.72 170.96 81.7 171 Z M 90.8 167.3 C 90.8 167.3 90.84 167.31 90.8 167.3 C 91.5 165.9 92.2 165.8 93.7 165.8 C 93.7 165.8 93.7 167.3 93.7 167.3 C 93.5 167.3 93.4 167.3 93.3 167.2 C 93.1 167.2 93 167.2 92.9 167.2 C 91.2 167.2 90.8 168.4 90.8 169.7 C 90.81 169.67 90.8 175 90.8 175 L 89.3 175 L 89.3 165.9 L 90.8 165.9 L 90.8 167.3 Z M 96.7 175 L 95.2 175 L 95.2 165.9 L 96.7 165.9 L 96.7 175 Z M 95.1 162 L 96.8 162 L 96.8 163.6 L 95.1 163.6 L 95.1 162 Z M 104.4 170 C 104.4 167.5 103.6 167 102.5 167 C 101.3 167 100.6 167.5 100.6 170 C 100.6 172.9 100.9 174 102.5 174 C 104 174 104.4 172.9 104.4 170 Z M 99 170.6 C 99 168 99.3 165.8 102.5 165.8 C 105.6 165.8 105.9 168 105.9 170.6 C 105.9 174.6 104.4 175.2 102.5 175.2 C 100.5 175.2 99 174.6 99 170.6 Z M 111.4 167 C 109.8 167 109.6 168.2 109.6 170.7 C 109.6 172 109.6 174 111.4 174 C 113.1 174 113.1 172 113.1 170.1 C 113.1 168.9 113 167 111.4 167 Z M 113.1 162 L 114.6 162 L 114.6 175 L 113.1 175 L 113.1 174 C 113.1 174 113.04 173.95 113 174 C 112.5 174.8 111.9 175.2 111 175.2 C 109.5 175.2 108 174.6 108 170.6 C 108 168.4 108.1 165.8 111 165.8 C 111.9 165.8 112.5 166.1 113 166.9 C 113.02 166.86 113.1 166.9 113.1 166.9 L 113.1 162 Z M 118.8 175 L 117.1 175 L 117.1 173.2 L 118.8 173.2 L 118.8 175 Z " stroke="none" fill="#555555"/>  </g>  <g id="Polygon201888">    <path d="M 4.6 150 C 6.4 150 6.4 148 6.4 146.7 C 6.4 144.2 6.2 143 4.6 143 C 3 143 2.9 144.9 2.9 146.1 C 2.9 147.5 2.7 150 4.6 150 Z M 2.9 151 L 1.4 151 L 1.4 138 L 2.9 138 L 2.9 142.9 C 2.9 142.9 2.95 142.86 3 142.9 C 3.5 142.1 4.1 141.8 4.9 141.8 C 7.9 141.8 8 144.4 8 146.6 C 8 150.6 6.5 151.2 5 151.2 C 4.1 151.2 3.4 150.8 2.9 150 C 2.93 149.95 2.9 150 2.9 150 L 2.9 151 Z M 11.7 151 L 10.3 151 L 10.3 138 L 11.7 138 L 11.7 151 Z M 19.3 145.8 C 19.3 143.2 18.5 142.9 17.5 142.9 C 16.5 142.9 15.7 143.3 15.7 145.8 C 15.7 145.8 19.3 145.8 19.3 145.8 Z M 15.7 147 C 15.7 149.5 16.4 150 17.6 150 C 18.6 150 19.1 149.2 19.2 148.3 C 19.2 148.3 20.8 148.3 20.8 148.3 C 20.8 150.3 19.5 151.2 17.6 151.2 C 15.7 151.2 14.1 150.6 14.1 146.6 C 14.1 144 14.5 141.8 17.6 141.8 C 20.2 141.8 20.8 143.2 20.8 146.2 C 20.84 146.19 20.8 147 20.8 147 C 20.8 147 15.73 146.96 15.7 147 Z M 28.3 145.8 C 28.3 143.2 27.5 142.9 26.5 142.9 C 25.5 142.9 24.7 143.3 24.7 145.8 C 24.7 145.8 28.3 145.8 28.3 145.8 Z M 24.7 147 C 24.7 149.5 25.4 150 26.6 150 C 27.6 150 28.1 149.2 28.2 148.3 C 28.2 148.3 29.8 148.3 29.8 148.3 C 29.8 150.3 28.5 151.2 26.6 151.2 C 24.7 151.2 23.1 150.6 23.1 146.6 C 23.1 144 23.5 141.8 26.6 141.8 C 29.2 141.8 29.8 143.2 29.8 146.2 C 29.84 146.19 29.8 147 29.8 147 C 29.8 147 24.73 146.96 24.7 147 Z M 35.4 143 C 33.8 143 33.6 144.2 33.6 146.7 C 33.6 148 33.6 150 35.4 150 C 37.1 150 37.1 148 37.1 146.1 C 37.1 144.9 37 143 35.4 143 Z M 37.1 138 L 38.6 138 L 38.6 151 L 37.1 151 L 37.1 150 C 37.1 150 37.06 149.95 37.1 150 C 36.6 150.8 35.9 151.2 35 151.2 C 33.5 151.2 32 150.6 32 146.6 C 32 144.4 32.1 141.8 35 141.8 C 35.9 141.8 36.5 142.1 37 142.9 C 37.04 142.86 37.1 142.9 37.1 142.9 L 37.1 138 Z M 42.7 151 L 41.3 151 L 41.3 141.9 L 42.7 141.9 L 42.7 151 Z M 41.2 138 L 42.8 138 L 42.8 139.6 L 41.2 139.6 L 41.2 138 Z M 50.2 151 C 50.2 151 50.22 144.73 50.2 144.7 C 50.2 143.8 49.9 143 48.6 143 C 47 143 46.8 144.4 46.8 145.6 C 46.76 145.65 46.8 151 46.8 151 L 45.3 151 C 45.3 151 45.29 143.83 45.3 143.8 C 45.3 143.2 45.3 142.6 45.2 141.9 C 45.2 141.94 46.8 141.9 46.8 141.9 L 46.8 143.1 C 46.8 143.1 46.84 143.11 46.8 143.1 C 47.4 142.1 48.1 141.8 49.3 141.8 C 51.2 141.8 51.7 142.9 51.7 144.7 C 51.7 144.73 51.7 151 51.7 151 L 50.2 151 Z M 57.4 143 C 55.7 143 55.6 145 55.6 146.2 C 55.6 149.1 56.3 149.8 57.4 149.8 C 59.2 149.8 59.1 147.7 59.1 146.4 C 59.1 145.1 59.2 143 57.4 143 Z M 59.1 141.9 L 60.6 141.9 C 60.6 141.9 60.57 151.95 60.6 151.9 C 60.6 154 59.2 154.5 57.2 154.5 C 55.7 154.5 54.3 153.7 54.5 152 C 54.5 152 56.1 152 56.1 152 C 56.1 152.9 56.7 153.4 57.5 153.4 C 58.5 153.4 59.1 152.7 59.1 151.8 C 59.09 151.79 59.1 149.9 59.1 149.9 C 59.1 149.9 59.04 149.9 59 149.9 C 58.7 150.6 57.8 151 57 151 C 54.6 151 54.1 148.9 54.1 146.2 C 54.1 142 56.2 141.8 56.9 141.8 C 57.9 141.8 58.6 142.2 59.1 143.1 C 59.06 143.06 59.1 143.1 59.1 143.1 L 59.1 141.9 Z M 72.3 145.8 C 72.3 143.2 71.5 142.9 70.5 142.9 C 69.5 142.9 68.7 143.3 68.7 145.8 C 68.7 145.8 72.3 145.8 72.3 145.8 Z M 68.7 147 C 68.7 149.5 69.4 150 70.6 150 C 71.6 150 72.1 149.2 72.1 148.3 C 72.1 148.3 73.8 148.3 73.8 148.3 C 73.7 150.3 72.5 151.2 70.6 151.2 C 68.7 151.2 67.1 150.6 67.1 146.6 C 67.1 144 67.4 141.8 70.6 141.8 C 73.2 141.8 73.8 143.2 73.8 146.2 C 73.84 146.19 73.8 147 73.8 147 C 73.8 147 68.72 146.96 68.7 147 Z M 75.2 141.9 L 76.9 141.9 L 78.9 149.6 L 79 149.6 L 81.2 141.9 L 82.7 141.9 L 79.9 151 L 77.9 151 L 75.2 141.9 Z M 89.3 145.8 C 89.3 143.2 88.5 142.9 87.4 142.9 C 86.5 142.9 85.7 143.3 85.7 145.8 C 85.7 145.8 89.3 145.8 89.3 145.8 Z M 85.7 147 C 85.7 149.5 86.4 150 87.6 150 C 88.6 150 89.1 149.2 89.1 148.3 C 89.1 148.3 90.8 148.3 90.8 148.3 C 90.7 150.3 89.5 151.2 87.6 151.2 C 85.7 151.2 84.1 150.6 84.1 146.6 C 84.1 144 84.4 141.8 87.6 141.8 C 90.2 141.8 90.8 143.2 90.8 146.2 C 90.83 146.19 90.8 147 90.8 147 C 90.8 147 85.71 146.96 85.7 147 Z M 98.2 151 C 98.2 151 98.21 144.73 98.2 144.7 C 98.2 143.8 97.9 143 96.6 143 C 95 143 94.8 144.4 94.8 145.6 C 94.75 145.65 94.8 151 94.8 151 L 93.3 151 C 93.3 151 93.27 143.83 93.3 143.8 C 93.3 143.2 93.2 142.6 93.2 141.9 C 93.18 141.94 94.8 141.9 94.8 141.9 L 94.8 143.1 C 94.8 143.1 94.82 143.11 94.8 143.1 C 95.4 142.1 96.1 141.8 97.3 141.8 C 99.2 141.8 99.7 142.9 99.7 144.7 C 99.68 144.73 99.7 151 99.7 151 L 98.2 151 Z M 102.4 141.9 L 102.4 140.2 L 103.9 139.5 L 103.9 141.9 L 105.9 141.9 L 105.9 143.1 L 103.9 143.1 C 103.9 143.1 103.91 148.62 103.9 148.6 C 103.9 149.2 103.9 149.9 105.3 149.9 C 105.4 149.9 105.6 149.9 105.9 149.9 C 105.9 149.9 105.9 151 105.9 151 C 105.4 151 105 151.1 104.5 151.1 C 103.1 151.1 102.4 150.6 102.4 149.5 C 102.44 149.52 102.4 143.1 102.4 143.1 L 100.9 143.1 L 100.9 141.9 L 102.4 141.9 Z M 110 151.2 C 108 151.2 106.8 150.3 106.8 148.3 C 106.8 148.3 108.5 148.3 108.5 148.3 C 108.5 148.8 108.5 150 110 150 C 110.9 150 111.6 149.6 111.6 148.6 C 111.6 147 107 147 107 144.2 C 107 143.3 107.6 141.8 110.2 141.8 C 111.8 141.8 113.2 142.5 113.1 144.3 C 113.1 144.3 111.4 144.3 111.4 144.3 C 111.4 143.4 110.9 142.9 110 142.9 C 109.2 142.9 108.6 143.3 108.6 144.1 C 108.6 145.7 113.1 145.7 113.1 148.4 C 113.1 150.4 111.8 151.2 110 151.2 Z M 115.3 153.2 C 115.8 150.6 116.4 148.1 116.4 145.5 C 116.4 142.7 115.8 140.1 115.2 137.4 C 115.2 137.4 116.3 137.4 116.3 137.4 C 117.1 140 118.1 142.6 118.1 145.4 C 118.1 148.1 117.1 150.6 116.3 153.2 C 116.3 153.2 115.3 153.2 115.3 153.2 Z M 123.1 141.9 L 124.8 141.9 L 126.4 149.8 L 126.4 149.8 L 128.5 141.9 L 130.6 141.9 L 132.4 149.8 L 132.4 149.8 L 134.2 141.9 L 135.8 141.9 L 133.4 151 L 131.4 151 L 129.5 143.3 L 129.4 143.3 L 127.4 151 L 125.4 151 L 123.1 141.9 Z M 142.3 145.8 C 142.3 143.2 141.5 142.9 140.4 142.9 C 139.5 142.9 138.7 143.3 138.7 145.8 C 138.7 145.8 142.3 145.8 142.3 145.8 Z M 138.7 147 C 138.7 149.5 139.4 150 140.5 150 C 141.6 150 142.1 149.2 142.1 148.3 C 142.1 148.3 143.7 148.3 143.7 148.3 C 143.7 150.3 142.5 151.2 140.6 151.2 C 138.7 151.2 137.1 150.6 137.1 146.6 C 137.1 144 137.4 141.8 140.6 141.8 C 143.2 141.8 143.8 143.2 143.8 146.2 C 143.82 146.19 143.8 147 143.8 147 C 143.8 147 138.71 146.96 138.7 147 Z M 147.8 143.3 C 147.8 143.3 147.83 143.31 147.8 143.3 C 148.4 141.9 149.2 141.8 150.6 141.8 C 150.6 141.8 150.6 143.3 150.6 143.3 C 150.5 143.3 150.4 143.3 150.2 143.2 C 150.1 143.2 150 143.2 149.8 143.2 C 148.2 143.2 147.8 144.4 147.8 145.7 C 147.8 145.67 147.8 151 147.8 151 L 146.3 151 L 146.3 141.9 L 147.8 141.9 L 147.8 143.3 Z M 157.2 145.8 C 157.2 143.2 156.5 142.9 155.4 142.9 C 154.5 142.9 153.7 143.3 153.7 145.8 C 153.7 145.8 157.2 145.8 157.2 145.8 Z M 153.7 147 C 153.7 149.5 154.4 150 155.5 150 C 156.5 150 157.1 149.2 157.1 148.3 C 157.1 148.3 158.7 148.3 158.7 148.3 C 158.7 150.3 157.5 151.2 155.6 151.2 C 153.6 151.2 152.1 150.6 152.1 146.6 C 152.1 144 152.4 141.8 155.6 141.8 C 158.2 141.8 158.8 143.2 158.8 146.2 C 158.81 146.19 158.8 147 158.8 147 C 158.8 147 153.7 146.96 153.7 147 Z M 170.4 146 C 170.4 143.5 169.6 143 168.5 143 C 167.3 143 166.6 143.5 166.6 146 C 166.6 148.9 166.9 150 168.5 150 C 170 150 170.4 148.9 170.4 146 Z M 165 146.6 C 165 144 165.3 141.8 168.5 141.8 C 171.6 141.8 171.9 144 171.9 146.6 C 171.9 150.6 170.4 151.2 168.5 151.2 C 166.5 151.2 165 150.6 165 146.6 Z M 177.5 150 C 179.4 150 179.4 148 179.4 146.7 C 179.4 144.2 179.2 143 177.6 143 C 175.9 143 175.9 144.9 175.9 146.1 C 175.9 147.5 175.7 150 177.5 150 Z M 175.9 151 L 174.4 151 L 174.4 138 L 175.9 138 L 175.9 142.9 C 175.9 142.9 175.91 142.86 175.9 142.9 C 176.4 142.1 177 141.8 177.9 141.8 C 180.8 141.8 180.9 144.4 180.9 146.6 C 180.9 150.6 179.4 151.2 178 151.2 C 177 151.2 176.4 150.8 175.9 150 C 175.89 149.95 175.9 150 175.9 150 L 175.9 151 Z M 185.9 151.2 C 184 151.2 182.8 150.3 182.8 148.3 C 182.8 148.3 184.5 148.3 184.5 148.3 C 184.5 148.8 184.5 150 186 150 C 186.9 150 187.6 149.6 187.6 148.6 C 187.6 147 183 147 183 144.2 C 183 143.3 183.6 141.8 186.2 141.8 C 187.8 141.8 189.2 142.5 189 144.3 C 189 144.3 187.4 144.3 187.4 144.3 C 187.4 143.4 186.9 142.9 186 142.9 C 185.2 142.9 184.6 143.3 184.6 144.1 C 184.6 145.7 189.1 145.7 189.1 148.4 C 189.1 150.4 187.7 151.2 185.9 151.2 Z M 196.2 145.8 C 196.2 143.2 195.5 142.9 194.4 142.9 C 193.5 142.9 192.7 143.3 192.7 145.8 C 192.7 145.8 196.2 145.8 196.2 145.8 Z M 192.7 147 C 192.7 149.5 193.4 150 194.5 150 C 195.5 150 196.1 149.2 196.1 148.3 C 196.1 148.3 197.7 148.3 197.7 148.3 C 197.7 150.3 196.5 151.2 194.6 151.2 C 192.6 151.2 191.1 150.6 191.1 146.6 C 191.1 144 191.4 141.8 194.6 141.8 C 197.2 141.8 197.8 143.2 197.8 146.2 C 197.8 146.19 197.8 147 197.8 147 C 197.8 147 192.69 146.96 192.7 147 Z M 201.8 143.3 C 201.8 143.3 201.81 143.31 201.8 143.3 C 202.4 141.9 203.2 141.8 204.6 141.8 C 204.6 141.8 204.6 143.3 204.6 143.3 C 204.5 143.3 204.4 143.3 204.2 143.2 C 204.1 143.2 204 143.2 203.8 143.2 C 202.2 143.2 201.8 144.4 201.8 145.7 C 201.78 145.67 201.8 151 201.8 151 L 200.3 151 L 200.3 141.9 L 201.8 141.9 L 201.8 143.3 Z M 205.2 141.9 L 206.9 141.9 L 208.9 149.6 L 208.9 149.6 L 211.1 141.9 L 212.7 141.9 L 209.8 151 L 207.9 151 L 205.2 141.9 Z M 219.2 145.8 C 219.2 143.2 218.5 142.9 217.4 142.9 C 216.5 142.9 215.7 143.3 215.7 145.8 C 215.7 145.8 219.2 145.8 219.2 145.8 Z M 215.7 147 C 215.7 149.5 216.4 150 217.5 150 C 218.5 150 219 149.2 219.1 148.3 C 219.1 148.3 220.7 148.3 220.7 148.3 C 220.7 150.3 219.5 151.2 217.5 151.2 C 215.6 151.2 214.1 150.6 214.1 146.6 C 214.1 144 214.4 141.8 217.5 141.8 C 220.1 141.8 220.8 143.2 220.8 146.2 C 220.79 146.19 220.8 147 220.8 147 C 220.8 147 215.67 146.96 215.7 147 Z M 226.3 143 C 224.7 143 224.5 144.2 224.5 146.7 C 224.5 148 224.5 150 226.4 150 C 228 150 228 148 228 146.1 C 228 144.9 228 143 226.3 143 Z M 228 138 L 229.5 138 L 229.5 151 L 228 151 L 228 150 C 228 150 228 149.95 228 150 C 227.5 150.8 226.9 151.2 225.9 151.2 C 224.5 151.2 223 150.6 223 146.6 C 223 144.4 223.1 141.8 226 141.8 C 226.9 141.8 227.5 142.1 228 142.9 C 227.99 142.86 228 142.9 228 142.9 L 228 138 Z M 239.3 143 C 237.7 143 237.5 144.2 237.5 146.7 C 237.5 148 237.5 150 239.4 150 C 241 150 241 148 241 146.1 C 241 144.9 241 143 239.3 143 Z M 241 138 L 242.5 138 L 242.5 151 L 241 151 L 241 150 C 241 150 241 149.95 241 150 C 240.5 150.8 239.9 151.2 238.9 151.2 C 237.5 151.2 236 150.6 236 146.6 C 236 144.4 236 141.8 239 141.8 C 239.8 141.8 240.5 142.1 241 142.9 C 240.98 142.86 241 142.9 241 142.9 L 241 138 Z M 250.1 141.9 L 251.6 141.9 C 251.6 141.9 251.56 149.14 251.6 149.1 C 251.6 149.8 251.6 150.4 251.7 151 C 251.65 151.03 250.1 151 250.1 151 L 250.1 149.9 C 250.1 149.9 250.03 149.93 250 149.9 C 249.5 150.8 248.7 151.2 247.7 151.2 C 246.1 151.2 245.3 150.4 245.3 148.9 C 245.28 148.87 245.3 141.9 245.3 141.9 L 246.8 141.9 C 246.8 141.9 246.76 148.24 246.8 148.2 C 246.8 149.3 247.3 150.1 248.3 150.1 C 249.1 150.1 250.1 149.5 250.1 148 C 250.09 147.97 250.1 141.9 250.1 141.9 Z M 255.8 143.3 C 255.8 143.3 255.79 143.31 255.8 143.3 C 256.4 141.9 257.2 141.8 258.6 141.8 C 258.6 141.8 258.6 143.3 258.6 143.3 C 258.5 143.3 258.3 143.3 258.2 143.2 C 258.1 143.2 258 143.2 257.8 143.2 C 256.2 143.2 255.8 144.4 255.8 145.7 C 255.76 145.67 255.8 151 255.8 151 L 254.3 151 L 254.3 141.9 L 255.8 141.9 L 255.8 143.3 Z M 261.7 151 L 260.2 151 L 260.2 141.9 L 261.7 141.9 L 261.7 151 Z M 260.1 138 L 261.8 138 L 261.8 139.6 L 260.1 139.6 L 260.1 138 Z M 269.2 151 C 269.2 151 269.15 144.73 269.2 144.7 C 269.2 143.8 268.8 143 267.5 143 C 265.9 143 265.7 144.4 265.7 145.6 C 265.69 145.65 265.7 151 265.7 151 L 264.2 151 C 264.2 151 264.22 143.83 264.2 143.8 C 264.2 143.2 264.2 142.6 264.1 141.9 C 264.13 141.94 265.7 141.9 265.7 141.9 L 265.7 143.1 C 265.7 143.1 265.77 143.11 265.8 143.1 C 266.3 142.1 267 141.8 268.2 141.8 C 270.1 141.8 270.6 142.9 270.6 144.7 C 270.63 144.73 270.6 151 270.6 151 L 269.2 151 Z M 276.3 143 C 274.6 143 274.6 145 274.6 146.2 C 274.6 149.1 275.2 149.8 276.3 149.8 C 278.1 149.8 278.1 147.7 278.1 146.4 C 278.1 145.1 278.2 143 276.3 143 Z M 278 141.9 L 279.5 141.9 C 279.5 141.9 279.5 151.95 279.5 151.9 C 279.5 154 278.2 154.5 276.2 154.5 C 274.6 154.5 273.3 153.7 273.4 152 C 273.4 152 275.1 152 275.1 152 C 275.1 152.9 275.6 153.4 276.4 153.4 C 277.5 153.4 278 152.7 278 151.8 C 278.02 151.79 278 149.9 278 149.9 C 278 149.9 277.97 149.9 278 149.9 C 277.6 150.6 276.8 151 276 151 C 273.5 151 273 148.9 273 146.2 C 273 142 275.1 141.8 275.9 141.8 C 276.8 141.8 277.6 142.2 278 143.1 C 277.99 143.06 278 143.1 278 143.1 L 278 141.9 Z " stroke="none" fill="#555555"/>  </g>  <g id="Polygon201887">    <path d="M 1.5 117.9 L 1.5 116.2 L 2.9 115.5 L 2.9 117.9 L 4.9 117.9 L 4.9 119.1 L 2.9 119.1 C 2.9 119.1 2.93 124.62 2.9 124.6 C 2.9 125.2 2.9 125.9 4.3 125.9 C 4.4 125.9 4.6 125.9 4.9 125.9 C 4.9 125.9 4.9 127 4.9 127 C 4.5 127 4 127.1 3.5 127.1 C 2.1 127.1 1.5 126.6 1.5 125.5 C 1.46 125.52 1.5 119.1 1.5 119.1 L 0 119.1 L 0 117.9 L 1.5 117.9 Z M 11.2 127 C 11.2 127 11.23 120.88 11.2 120.9 C 11.2 119.8 10.9 119 9.6 119 C 8.1 119 7.8 120.2 7.8 121.7 C 7.76 121.69 7.8 127 7.8 127 L 6.3 127 L 6.3 114 L 7.8 114 L 7.8 119.1 C 7.8 119.1 7.83 119.11 7.8 119.1 C 8.4 118 9.1 117.8 10.3 117.8 C 11.8 117.8 12.7 118.5 12.7 120.6 C 12.71 120.59 12.7 127 12.7 127 L 11.2 127 Z M 16.8 119.3 C 16.8 119.3 16.87 119.31 16.9 119.3 C 17.5 117.9 18.2 117.8 19.7 117.8 C 19.7 117.8 19.7 119.3 19.7 119.3 C 19.5 119.3 19.4 119.3 19.3 119.2 C 19.2 119.2 19 119.2 18.9 119.2 C 17.2 119.2 16.8 120.4 16.8 121.7 C 16.83 121.67 16.8 127 16.8 127 L 15.4 127 L 15.4 117.9 L 16.8 117.9 L 16.8 119.3 Z M 26.4 122 C 26.4 119.5 25.6 119 24.5 119 C 23.4 119 22.6 119.5 22.6 122 C 22.6 124.9 23 126 24.5 126 C 26 126 26.4 124.9 26.4 122 Z M 21 122.6 C 21 120 21.3 117.8 24.5 117.8 C 27.6 117.8 28 120 28 122.6 C 28 126.6 26.4 127.2 24.5 127.2 C 22.6 127.2 21 126.6 21 122.6 Z M 34.8 127 C 34.8 127 34.76 120.73 34.8 120.7 C 34.8 119.8 34.5 119 33.3 119 C 32.9 119 32.3 119.2 32 119.6 C 31.8 120 31.7 120.6 31.7 120.9 C 31.7 120.91 31.7 127 31.7 127 L 30.2 127 C 30.2 127 30.22 119.83 30.2 119.8 C 30.2 119.2 30.2 118.6 30.1 117.9 C 30.13 117.94 31.7 117.9 31.7 117.9 L 31.7 119.1 C 31.7 119.1 31.73 119.08 31.7 119.1 C 32.2 118.1 32.9 117.8 34 117.8 C 34.8 117.8 35.8 118.1 36.1 118.9 C 36.6 118 37.5 117.8 38.3 117.8 C 39.2 117.8 40.8 118 40.8 120.1 C 40.77 120.12 40.8 127 40.8 127 L 39.3 127 C 39.3 127 39.29 120.73 39.3 120.7 C 39.3 119.8 39 119 37.9 119 C 37.3 119 37.1 119 36.7 119.3 C 36.3 119.7 36.2 120.6 36.2 120.9 C 36.23 120.91 36.2 127 36.2 127 L 34.8 127 Z M 46.5 126 C 48.4 126 48.4 124 48.4 122.7 C 48.4 120.2 48.2 119 46.6 119 C 45 119 44.9 120.9 44.9 122.1 C 44.9 123.5 44.7 126 46.5 126 Z M 44.9 127 L 43.4 127 L 43.4 114 L 44.9 114 L 44.9 118.9 C 44.9 118.9 44.95 118.86 44.9 118.9 C 45.4 118.1 46.1 117.8 46.9 117.8 C 49.9 117.8 49.9 120.4 49.9 122.6 C 49.9 126.6 48.5 127.2 47 127.2 C 46.1 127.2 45.4 126.8 44.9 126 C 44.93 125.95 44.9 126 44.9 126 L 44.9 127 Z M 57.4 122 C 57.4 119.5 56.6 119 55.5 119 C 54.4 119 53.6 119.5 53.6 122 C 53.6 124.9 54 126 55.5 126 C 57 126 57.4 124.9 57.4 122 Z M 52 122.6 C 52 120 52.3 117.8 55.5 117.8 C 58.6 117.8 58.9 120 58.9 122.6 C 58.9 126.6 57.4 127.2 55.5 127.2 C 53.6 127.2 52 126.6 52 122.6 Z M 66.3 121.8 C 66.3 119.2 65.5 118.9 64.5 118.9 C 63.5 118.9 62.7 119.3 62.7 121.8 C 62.7 121.8 66.3 121.8 66.3 121.8 Z M 62.7 123 C 62.7 125.5 63.4 126 64.6 126 C 65.6 126 66.1 125.2 66.1 124.3 C 66.1 124.3 67.8 124.3 67.8 124.3 C 67.8 126.3 66.5 127.2 64.6 127.2 C 62.7 127.2 61.1 126.6 61.1 122.6 C 61.1 120 61.5 117.8 64.6 117.8 C 67.2 117.8 67.8 119.2 67.8 122.2 C 67.84 122.19 67.8 123 67.8 123 C 67.8 123 62.73 122.96 62.7 123 Z M 74.8 127 C 74.8 127 74.75 120.73 74.8 120.7 C 74.8 119.8 74.5 119 73.3 119 C 72.9 119 72.3 119.2 72 119.6 C 71.8 120 71.7 120.6 71.7 120.9 C 71.69 120.91 71.7 127 71.7 127 L 70.2 127 C 70.2 127 70.22 119.83 70.2 119.8 C 70.2 119.2 70.2 118.6 70.1 117.9 C 70.13 117.94 71.7 117.9 71.7 117.9 L 71.7 119.1 C 71.7 119.1 71.73 119.08 71.7 119.1 C 72.2 118.1 72.9 117.8 74 117.8 C 74.8 117.8 75.8 118.1 76.1 118.9 C 76.6 118 77.5 117.8 78.3 117.8 C 79.2 117.8 80.8 118 80.8 120.1 C 80.77 120.12 80.8 127 80.8 127 L 79.3 127 C 79.3 127 79.29 120.73 79.3 120.7 C 79.3 119.8 79 119 77.8 119 C 77.3 119 77.1 119 76.7 119.3 C 76.3 119.7 76.2 120.6 76.2 120.9 C 76.23 120.91 76.2 127 76.2 127 L 74.8 127 Z M 86.5 126 C 88.4 126 88.4 124 88.4 122.7 C 88.4 120.2 88.2 119 86.6 119 C 85 119 84.9 120.9 84.9 122.1 C 84.9 123.5 84.7 126 86.5 126 Z M 84.9 127 L 83.4 127 L 83.4 114 L 84.9 114 L 84.9 118.9 C 84.9 118.9 84.94 118.86 84.9 118.9 C 85.4 118.1 86.1 117.8 86.9 117.8 C 89.9 117.8 89.9 120.4 89.9 122.6 C 89.9 126.6 88.5 127.2 87 127.2 C 86.1 127.2 85.4 126.8 84.9 126 C 84.92 125.95 84.9 126 84.9 126 L 84.9 127 Z M 97.4 122 C 97.4 119.5 96.6 119 95.5 119 C 94.4 119 93.6 119.5 93.6 122 C 93.6 124.9 94 126 95.5 126 C 97 126 97.4 124.9 97.4 122 Z M 92 122.6 C 92 120 92.3 117.8 95.5 117.8 C 98.6 117.8 98.9 120 98.9 122.6 C 98.9 126.6 97.4 127.2 95.5 127.2 C 93.6 127.2 92 126.6 92 122.6 Z M 102.7 127 L 101.2 127 L 101.2 114 L 102.7 114 L 102.7 127 Z M 106.7 127 L 105.2 127 L 105.2 117.9 L 106.7 117.9 L 106.7 127 Z M 105.2 114 L 106.8 114 L 106.8 115.6 L 105.2 115.6 L 105.2 114 Z M 114 120.9 C 114.1 119.4 113.3 119 112.8 119 C 111.6 119 110.9 119.5 110.9 122 C 110.9 124.9 111.2 126 112.8 126 C 113.1 126 114.1 125.6 114.1 124 C 114.1 124 115.6 124 115.6 124 C 115.7 126.6 113.8 127.2 112.8 127.2 C 110.8 127.2 109.3 126.6 109.3 122.6 C 109.3 120 109.6 117.8 112.8 117.8 C 114.6 117.8 115.6 118.8 115.6 120.9 C 115.6 120.9 114 120.9 114 120.9 Z M 127.3 121.8 C 127.3 119.2 126.5 118.9 125.4 118.9 C 124.5 118.9 123.7 119.3 123.7 121.8 C 123.7 121.8 127.3 121.8 127.3 121.8 Z M 123.7 123 C 123.7 125.5 124.4 126 125.5 126 C 126.6 126 127.1 125.2 127.1 124.3 C 127.1 124.3 128.8 124.3 128.8 124.3 C 128.7 126.3 127.5 127.2 125.6 127.2 C 123.7 127.2 122.1 126.6 122.1 122.6 C 122.1 120 122.4 117.8 125.6 117.8 C 128.2 117.8 128.8 119.2 128.8 122.2 C 128.82 122.19 128.8 123 128.8 123 C 128.8 123 123.71 122.96 123.7 123 Z M 130.2 117.9 L 131.9 117.9 L 133.9 125.6 L 134 125.6 L 136.2 117.9 L 137.7 117.9 L 134.9 127 L 132.9 127 L 130.2 117.9 Z M 144.3 121.8 C 144.3 119.2 143.5 118.9 142.4 118.9 C 141.5 118.9 140.7 119.3 140.7 121.8 C 140.7 121.8 144.3 121.8 144.3 121.8 Z M 140.7 123 C 140.7 125.5 141.4 126 142.5 126 C 143.5 126 144.1 125.2 144.1 124.3 C 144.1 124.3 145.7 124.3 145.7 124.3 C 145.7 126.3 144.5 127.2 142.6 127.2 C 140.7 127.2 139.1 126.6 139.1 122.6 C 139.1 120 139.4 117.8 142.6 117.8 C 145.2 117.8 145.8 119.2 145.8 122.2 C 145.82 122.19 145.8 123 145.8 123 C 145.8 123 140.7 122.96 140.7 123 Z M 153.2 127 C 153.2 127 153.2 120.73 153.2 120.7 C 153.2 119.8 152.9 119 151.6 119 C 150 119 149.7 120.4 149.7 121.6 C 149.74 121.65 149.7 127 149.7 127 L 148.3 127 C 148.3 127 148.26 119.83 148.3 119.8 C 148.3 119.2 148.2 118.6 148.2 117.9 C 148.17 117.94 149.7 117.9 149.7 117.9 L 149.7 119.1 C 149.7 119.1 149.81 119.11 149.8 119.1 C 150.4 118.1 151.1 117.8 152.2 117.8 C 154.2 117.8 154.7 118.9 154.7 120.7 C 154.67 120.73 154.7 127 154.7 127 L 153.2 127 Z M 157.4 117.9 L 157.4 116.2 L 158.9 115.5 L 158.9 117.9 L 160.9 117.9 L 160.9 119.1 L 158.9 119.1 C 158.9 119.1 158.9 124.62 158.9 124.6 C 158.9 125.2 158.9 125.9 160.3 125.9 C 160.4 125.9 160.6 125.9 160.9 125.9 C 160.9 125.9 160.9 127 160.9 127 C 160.4 127 159.9 127.1 159.5 127.1 C 158.1 127.1 157.4 126.6 157.4 125.5 C 157.43 125.52 157.4 119.1 157.4 119.1 L 155.9 119.1 L 155.9 117.9 L 157.4 117.9 Z M 162.5 125.2 L 164.4 125.2 L 162.7 129.3 L 161.6 129.3 L 162.5 125.2 Z M 175.4 122 C 175.4 119.5 174.6 119 173.5 119 C 172.3 119 171.6 119.5 171.6 122 C 171.6 124.9 171.9 126 173.5 126 C 175 126 175.4 124.9 175.4 122 Z M 170 122.6 C 170 120 170.3 117.8 173.5 117.8 C 176.6 117.8 176.9 120 176.9 122.6 C 176.9 126.6 175.4 127.2 173.5 127.2 C 171.5 127.2 170 126.6 170 122.6 Z M 180.8 119.3 C 180.8 119.3 180.83 119.31 180.8 119.3 C 181.4 117.9 182.2 117.8 183.6 117.8 C 183.6 117.8 183.6 119.3 183.6 119.3 C 183.5 119.3 183.4 119.3 183.2 119.2 C 183.1 119.2 183 119.2 182.8 119.2 C 181.2 119.2 180.8 120.4 180.8 121.7 C 180.79 121.67 180.8 127 180.8 127 L 179.3 127 L 179.3 117.9 L 180.8 117.9 L 180.8 119.3 Z M 190.6 124.3 C 190.6 125.2 191 126 192 126 C 192.9 126 194 125.4 193.9 122.5 C 192.5 122.5 190.6 122.4 190.6 124.3 Z M 193.9 125.7 C 193.9 125.7 193.89 125.72 193.9 125.7 C 193.4 126.8 192.7 127.2 191.6 127.2 C 189.7 127.2 189.1 126 189.1 124.2 C 189.1 121.5 191.8 121.3 193.9 121.4 C 193.9 120.2 193.9 118.9 192.4 118.9 C 191.4 118.9 190.9 119.5 190.9 120.5 C 190.9 120.5 189.3 120.5 189.3 120.5 C 189.4 118.5 190.5 117.8 192.4 117.8 C 194.8 117.8 195.4 119 195.4 120.5 C 195.4 120.5 195.4 124.9 195.4 124.9 C 195.4 125.6 195.4 126.3 195.5 127 C 195.55 127.03 193.9 127 193.9 127 L 193.9 125.7 Z M 201.5 126 C 203.4 126 203.4 124 203.4 122.7 C 203.4 120.2 203.1 119 201.6 119 C 199.9 119 199.9 120.9 199.9 122.1 C 199.9 123.5 199.7 126 201.5 126 Z M 199.9 127 L 198.4 127 L 198.4 114 L 199.9 114 L 199.9 118.9 C 199.9 118.9 199.91 118.86 199.9 118.9 C 200.4 118.1 201 117.8 201.9 117.8 C 204.8 117.8 204.9 120.4 204.9 122.6 C 204.9 126.6 203.4 127.2 202 127.2 C 201 127.2 200.4 126.8 199.9 126 C 199.89 125.95 199.9 126 199.9 126 L 199.9 127 Z M 212.2 127 C 212.2 127 212.18 120.73 212.2 120.7 C 212.2 119.8 211.8 119 210.6 119 C 209 119 208.7 120.4 208.7 121.6 C 208.73 121.65 208.7 127 208.7 127 L 207.2 127 C 207.2 127 207.25 119.83 207.2 119.8 C 207.2 119.2 207.2 118.6 207.2 117.9 C 207.16 117.94 208.7 117.9 208.7 117.9 L 208.7 119.1 C 208.7 119.1 208.8 119.11 208.8 119.1 C 209.4 118.1 210.1 117.8 211.2 117.8 C 213.2 117.8 213.7 118.9 213.7 120.7 C 213.66 120.73 213.7 127 213.7 127 L 212.2 127 Z M 221.4 122 C 221.4 119.5 220.6 119 219.5 119 C 218.3 119 217.5 119.5 217.5 122 C 217.5 124.9 217.9 126 219.5 126 C 221 126 221.4 124.9 221.4 122 Z M 216 122.6 C 216 120 216.3 117.8 219.5 117.8 C 222.6 117.8 222.9 120 222.9 122.6 C 222.9 126.6 221.4 127.2 219.5 127.2 C 217.5 127.2 216 126.6 216 122.6 Z M 226.8 119.3 C 226.8 119.3 226.82 119.31 226.8 119.3 C 227.4 117.9 228.2 117.8 229.6 117.8 C 229.6 117.8 229.6 119.3 229.6 119.3 C 229.5 119.3 229.4 119.3 229.2 119.2 C 229.1 119.2 229 119.2 228.8 119.2 C 227.2 119.2 226.8 120.4 226.8 121.7 C 226.78 121.67 226.8 127 226.8 127 L 225.3 127 L 225.3 117.9 L 226.8 117.9 L 226.8 119.3 Z M 235.7 127 C 235.7 127 235.71 120.73 235.7 120.7 C 235.7 119.8 235.5 119 234.3 119 C 233.8 119 233.2 119.2 233 119.6 C 232.7 120 232.6 120.6 232.6 120.9 C 232.65 120.91 232.6 127 232.6 127 L 231.2 127 C 231.2 127 231.17 119.83 231.2 119.8 C 231.2 119.2 231.1 118.6 231.1 117.9 C 231.08 117.94 232.6 117.9 232.6 117.9 L 232.6 119.1 C 232.6 119.1 232.68 119.08 232.7 119.1 C 233.1 118.1 233.9 117.8 235 117.8 C 235.8 117.8 236.7 118.1 237.1 118.9 C 237.6 118 238.4 117.8 239.2 117.8 C 240.2 117.8 241.7 118 241.7 120.1 C 241.72 120.12 241.7 127 241.7 127 L 240.2 127 C 240.2 127 240.24 120.73 240.2 120.7 C 240.2 119.8 240 119 238.8 119 C 238.2 119 238.1 119 237.7 119.3 C 237.3 119.7 237.2 120.6 237.2 120.9 C 237.18 120.91 237.2 127 237.2 127 L 235.7 127 Z M 245.6 124.3 C 245.6 125.2 246 126 247 126 C 247.9 126 249 125.4 248.9 122.5 C 247.5 122.5 245.6 122.4 245.6 124.3 Z M 248.9 125.7 C 248.9 125.7 248.88 125.72 248.9 125.7 C 248.4 126.8 247.7 127.2 246.6 127.2 C 244.7 127.2 244.1 126 244.1 124.2 C 244.1 121.5 246.8 121.3 248.9 121.4 C 248.9 120.2 248.9 118.9 247.4 118.9 C 246.4 118.9 245.8 119.5 245.9 120.5 C 245.9 120.5 244.3 120.5 244.3 120.5 C 244.4 118.5 245.5 117.8 247.4 117.8 C 249.7 117.8 250.4 119 250.4 120.5 C 250.4 120.5 250.4 124.9 250.4 124.9 C 250.4 125.6 250.4 126.3 250.5 127 C 250.54 127.03 248.9 127 248.9 127 L 248.9 125.7 Z M 254.7 127 L 253.2 127 L 253.2 114 L 254.7 114 L 254.7 127 Z " stroke="none" fill="#555555"/>  </g>  <g id="Polygon201886">    <path d="M 2.7 105.2 C 1.9 102.6 0.9 100.1 0.9 97.4 C 0.9 94.6 1.9 92 2.7 89.4 C 2.7 89.4 3.8 89.4 3.8 89.4 C 3.1 92.1 2.6 94.7 2.6 97.5 C 2.6 100.1 3.1 102.6 3.7 105.2 C 3.7 105.2 2.7 105.2 2.7 105.2 Z M 9 103.2 C 7 103.2 5.8 102.3 5.8 100.3 C 5.8 100.3 7.5 100.3 7.5 100.3 C 7.5 100.8 7.5 102 9 102 C 9.9 102 10.6 101.6 10.6 100.6 C 10.6 99 6.1 99 6.1 96.2 C 6.1 95.3 6.6 93.8 9.2 93.8 C 10.8 93.8 12.2 94.5 12.1 96.3 C 12.1 96.3 10.4 96.3 10.4 96.3 C 10.5 95.4 10 94.9 9 94.9 C 8.2 94.9 7.6 95.3 7.6 96.1 C 7.6 97.7 12.1 97.7 12.1 100.4 C 12.1 102.4 10.8 103.2 9 103.2 Z M 19.3 97.8 C 19.3 95.2 18.5 94.9 17.5 94.9 C 16.5 94.9 15.7 95.3 15.7 97.8 C 15.7 97.8 19.3 97.8 19.3 97.8 Z M 15.7 99 C 15.7 101.5 16.4 102 17.6 102 C 18.6 102 19.1 101.2 19.2 100.3 C 19.2 100.3 20.8 100.3 20.8 100.3 C 20.8 102.3 19.5 103.2 17.6 103.2 C 15.7 103.2 14.1 102.6 14.1 98.6 C 14.1 96 14.5 93.8 17.6 93.8 C 20.2 93.8 20.8 95.2 20.8 98.2 C 20.84 98.19 20.8 99 20.8 99 C 20.8 99 15.73 98.96 15.7 99 Z M 22.2 93.9 L 23.9 93.9 L 25.9 101.6 L 26 101.6 L 28.2 93.9 L 29.7 93.9 L 26.9 103 L 24.9 103 L 22.2 93.9 Z M 36.3 97.8 C 36.3 95.2 35.5 94.9 34.5 94.9 C 33.5 94.9 32.7 95.3 32.7 97.8 C 32.7 97.8 36.3 97.8 36.3 97.8 Z M 32.7 99 C 32.7 101.5 33.4 102 34.6 102 C 35.6 102 36.1 101.2 36.1 100.3 C 36.1 100.3 37.8 100.3 37.8 100.3 C 37.7 102.3 36.5 103.2 34.6 103.2 C 32.7 103.2 31.1 102.6 31.1 98.6 C 31.1 96 31.4 93.8 34.6 93.8 C 37.2 93.8 37.8 95.2 37.8 98.2 C 37.84 98.19 37.8 99 37.8 99 C 37.8 99 32.72 98.96 32.7 99 Z M 41.8 95.3 C 41.8 95.3 41.85 95.31 41.8 95.3 C 42.5 93.9 43.2 93.8 44.7 93.8 C 44.7 93.8 44.7 95.3 44.7 95.3 C 44.5 95.3 44.4 95.3 44.3 95.2 C 44.1 95.2 44 95.2 43.9 95.2 C 42.2 95.2 41.8 96.4 41.8 97.7 C 41.81 97.67 41.8 103 41.8 103 L 40.3 103 L 40.3 93.9 L 41.8 93.9 L 41.8 95.3 Z M 51.3 97.8 C 51.3 95.2 50.5 94.9 49.4 94.9 C 48.5 94.9 47.7 95.3 47.7 97.8 C 47.7 97.8 51.3 97.8 51.3 97.8 Z M 47.7 99 C 47.7 101.5 48.4 102 49.6 102 C 50.6 102 51.1 101.2 51.1 100.3 C 51.1 100.3 52.8 100.3 52.8 100.3 C 52.7 102.3 51.5 103.2 49.6 103.2 C 47.7 103.2 46.1 102.6 46.1 98.6 C 46.1 96 46.4 93.8 49.6 93.8 C 52.2 93.8 52.8 95.2 52.8 98.2 C 52.83 98.19 52.8 99 52.8 99 C 52.8 99 47.72 98.96 47.7 99 Z M 64.2 103 C 64.2 103 64.21 96.88 64.2 96.9 C 64.2 95.8 63.8 95 62.6 95 C 61.1 95 60.7 96.2 60.7 97.7 C 60.73 97.69 60.7 103 60.7 103 L 59.3 103 L 59.3 90 L 60.7 90 L 60.7 95.1 C 60.7 95.1 60.8 95.11 60.8 95.1 C 61.4 94 62.1 93.8 63.3 93.8 C 64.8 93.8 65.7 94.5 65.7 96.6 C 65.68 96.59 65.7 103 65.7 103 L 64.2 103 Z M 71 101.3 L 71 101.3 L 73.2 93.9 L 74.8 93.9 L 70.7 106.5 L 69.2 106.5 L 70.2 103 L 67.1 93.9 L 68.8 93.9 L 71 101.3 Z M 81.4 98.3 C 81.4 97 81.4 95 79.5 95 C 77.7 95 77.9 97.5 77.9 98.9 C 77.9 100.1 77.9 102 79.6 102 C 81.2 102 81.4 100.8 81.4 98.3 Z M 77.9 95 C 77.9 95 77.9 95.02 77.9 95 C 78.4 94.2 79 93.8 80 93.8 C 81.4 93.8 82.9 94.3 82.9 98.3 C 82.9 100.6 82.9 103.2 79.9 103.2 C 79.1 103.2 78.4 102.8 77.9 102.1 C 77.92 102.11 77.9 102.1 77.9 102.1 L 77.9 106.5 L 76.4 106.5 L 76.4 93.9 L 77.9 93.9 L 77.9 95 Z M 90.3 97.8 C 90.3 95.2 89.5 94.9 88.4 94.9 C 87.5 94.9 86.7 95.3 86.7 97.8 C 86.7 97.8 90.3 97.8 90.3 97.8 Z M 86.7 99 C 86.7 101.5 87.4 102 88.5 102 C 89.5 102 90.1 101.2 90.1 100.3 C 90.1 100.3 91.7 100.3 91.7 100.3 C 91.7 102.3 90.5 103.2 88.6 103.2 C 86.7 103.2 85.1 102.6 85.1 98.6 C 85.1 96 85.4 93.8 88.6 93.8 C 91.2 93.8 91.8 95.2 91.8 98.2 C 91.82 98.19 91.8 99 91.8 99 C 91.8 99 86.7 98.96 86.7 99 Z M 95.8 95.3 C 95.8 95.3 95.83 95.31 95.8 95.3 C 96.4 93.9 97.2 93.8 98.6 93.8 C 98.6 93.8 98.6 95.3 98.6 95.3 C 98.5 95.3 98.4 95.3 98.2 95.2 C 98.1 95.2 98 95.2 97.8 95.2 C 96.2 95.2 95.8 96.4 95.8 97.7 C 95.79 97.67 95.8 103 95.8 103 L 94.3 103 L 94.3 93.9 L 95.8 93.9 L 95.8 95.3 Z M 102.9 103.2 C 101 103.2 99.8 102.3 99.8 100.3 C 99.8 100.3 101.5 100.3 101.5 100.3 C 101.5 100.8 101.5 102 103 102 C 103.9 102 104.6 101.6 104.6 100.6 C 104.6 99 100 99 100 96.2 C 100 95.3 100.6 93.8 103.2 93.8 C 104.8 93.8 106.2 94.5 106 96.3 C 106 96.3 104.4 96.3 104.4 96.3 C 104.4 95.4 103.9 94.9 103 94.9 C 102.2 94.9 101.6 95.3 101.6 96.1 C 101.6 97.7 106.1 97.7 106.1 100.4 C 106.1 102.4 104.7 103.2 102.9 103.2 Z M 113.2 97.8 C 113.2 95.2 112.5 94.9 111.4 94.9 C 110.5 94.9 109.7 95.3 109.7 97.8 C 109.7 97.8 113.2 97.8 113.2 97.8 Z M 109.7 99 C 109.7 101.5 110.4 102 111.5 102 C 112.5 102 113.1 101.2 113.1 100.3 C 113.1 100.3 114.7 100.3 114.7 100.3 C 114.7 102.3 113.5 103.2 111.6 103.2 C 109.6 103.2 108.1 102.6 108.1 98.6 C 108.1 96 108.4 93.8 111.6 93.8 C 114.2 93.8 114.8 95.2 114.8 98.2 C 114.8 98.19 114.8 99 114.8 99 C 114.8 99 109.69 98.96 109.7 99 Z M 122.2 103 C 122.2 103 122.18 96.73 122.2 96.7 C 122.2 95.8 121.8 95 120.6 95 C 119 95 118.7 96.4 118.7 97.6 C 118.73 97.65 118.7 103 118.7 103 L 117.3 103 C 117.3 103 117.25 95.83 117.3 95.8 C 117.3 95.2 117.2 94.6 117.2 93.9 C 117.16 93.94 118.7 93.9 118.7 93.9 L 118.7 95.1 C 118.7 95.1 118.8 95.11 118.8 95.1 C 119.4 94.1 120.1 93.8 121.2 93.8 C 123.2 93.8 123.7 94.9 123.7 96.7 C 123.66 96.73 123.7 103 123.7 103 L 122.2 103 Z M 128.9 103.2 C 127 103.2 125.7 102.3 125.8 100.3 C 125.8 100.3 127.5 100.3 127.5 100.3 C 127.5 100.8 127.5 102 129 102 C 129.9 102 130.6 101.6 130.6 100.6 C 130.6 99 126 99 126 96.2 C 126 95.3 126.6 93.8 129.1 93.8 C 130.8 93.8 132.2 94.5 132 96.3 C 132 96.3 130.4 96.3 130.4 96.3 C 130.4 95.4 129.9 94.9 129 94.9 C 128.2 94.9 127.6 95.3 127.6 96.1 C 127.6 97.7 132.1 97.7 132.1 100.4 C 132.1 102.4 130.7 103.2 128.9 103.2 Z M 135.7 103 L 134.2 103 L 134.2 93.9 L 135.7 93.9 L 135.7 103 Z M 134.1 90 L 135.8 90 L 135.8 91.6 L 134.1 91.6 L 134.1 90 Z M 138.4 93.9 L 138.4 92.2 L 139.9 91.5 L 139.9 93.9 L 141.9 93.9 L 141.9 95.1 L 139.9 95.1 C 139.9 95.1 139.88 100.62 139.9 100.6 C 139.9 101.2 139.9 101.9 141.2 101.9 C 141.3 101.9 141.6 101.9 141.9 101.9 C 141.9 101.9 141.9 103 141.9 103 C 141.4 103 140.9 103.1 140.4 103.1 C 139 103.1 138.4 102.6 138.4 101.5 C 138.4 101.52 138.4 95.1 138.4 95.1 L 136.9 95.1 L 136.9 93.9 L 138.4 93.9 Z M 144.7 103 L 143.2 103 L 143.2 93.9 L 144.7 93.9 L 144.7 103 Z M 143.1 90 L 144.8 90 L 144.8 91.6 L 143.1 91.6 L 143.1 90 Z M 146.2 93.9 L 147.8 93.9 L 149.9 101.6 L 149.9 101.6 L 152.1 93.9 L 153.7 93.9 L 150.8 103 L 148.9 103 L 146.2 93.9 Z M 156.7 103 L 155.2 103 L 155.2 93.9 L 156.7 93.9 L 156.7 103 Z M 155.1 90 L 156.8 90 L 156.8 91.6 L 155.1 91.6 L 155.1 90 Z M 159.4 93.9 L 159.4 92.2 L 160.9 91.5 L 160.9 93.9 L 162.8 93.9 L 162.8 95.1 L 160.9 95.1 C 160.9 95.1 160.86 100.62 160.9 100.6 C 160.9 101.2 160.9 101.9 162.2 101.9 C 162.3 101.9 162.6 101.9 162.9 101.9 C 162.9 101.9 162.9 103 162.9 103 C 162.4 103 161.9 103.1 161.4 103.1 C 160 103.1 159.4 102.6 159.4 101.5 C 159.39 101.52 159.4 95.1 159.4 95.1 L 157.9 95.1 L 157.9 93.9 L 159.4 93.9 Z M 167 101.3 L 167 101.3 L 169.2 93.9 L 170.8 93.9 L 166.7 106.5 L 165.1 106.5 L 166.2 103 L 163.1 93.9 L 164.8 93.9 L 167 101.3 Z M 181.3 98 C 181.3 95.5 180.6 95 179.4 95 C 178.3 95 177.5 95.5 177.5 98 C 177.5 100.9 177.9 102 179.4 102 C 181 102 181.3 100.9 181.3 98 Z M 176 98.6 C 176 96 176.3 93.8 179.4 93.8 C 182.6 93.8 182.9 96 182.9 98.6 C 182.9 102.6 181.3 103.2 179.4 103.2 C 177.5 103.2 176 102.6 176 98.6 Z M 186.7 95.3 C 186.7 95.3 186.78 95.31 186.8 95.3 C 187.4 93.9 188.2 93.8 189.6 93.8 C 189.6 93.8 189.6 95.3 189.6 95.3 C 189.5 95.3 189.3 95.3 189.2 95.2 C 189.1 95.2 188.9 95.2 188.8 95.2 C 187.2 95.2 186.7 96.4 186.7 97.7 C 186.75 97.67 186.7 103 186.7 103 L 185.3 103 L 185.3 93.9 L 186.7 93.9 L 186.7 95.3 Z M 196.6 100.3 C 196.6 101.2 197 102 198 102 C 198.9 102 200 101.4 199.9 98.5 C 198.4 98.5 196.6 98.4 196.6 100.3 Z M 199.9 101.7 C 199.9 101.7 199.85 101.72 199.9 101.7 C 199.4 102.8 198.7 103.2 197.6 103.2 C 195.6 103.2 195.1 102 195.1 100.2 C 195.1 97.5 197.8 97.3 199.9 97.4 C 199.9 96.2 199.9 94.9 198.3 94.9 C 197.3 94.9 196.8 95.5 196.9 96.5 C 196.9 96.5 195.3 96.5 195.3 96.5 C 195.4 94.5 196.4 93.8 198.4 93.8 C 200.7 93.8 201.3 95 201.3 96.5 C 201.3 96.5 201.3 100.9 201.3 100.9 C 201.3 101.6 201.4 102.3 201.5 103 C 201.51 103.03 199.9 103 199.9 103 L 199.9 101.7 Z M 209.1 103 C 209.1 103 209.14 96.73 209.1 96.7 C 209.1 95.8 208.8 95 207.5 95 C 205.9 95 205.7 96.4 205.7 97.6 C 205.68 97.65 205.7 103 205.7 103 L 204.2 103 C 204.2 103 204.21 95.83 204.2 95.8 C 204.2 95.2 204.2 94.6 204.1 93.9 C 204.12 93.94 205.7 93.9 205.7 93.9 L 205.7 95.1 C 205.7 95.1 205.75 95.11 205.8 95.1 C 206.3 94.1 207 93.8 208.2 93.8 C 210.1 93.8 210.6 94.9 210.6 96.7 C 210.61 96.73 210.6 103 210.6 103 L 209.1 103 Z M 214.6 100.3 C 214.6 101.2 215 102 216 102 C 216.9 102 218 101.4 217.9 98.5 C 216.4 98.5 214.6 98.4 214.6 100.3 Z M 217.9 101.7 C 217.9 101.7 217.85 101.72 217.9 101.7 C 217.4 102.8 216.7 103.2 215.6 103.2 C 213.6 103.2 213.1 102 213.1 100.2 C 213.1 97.5 215.8 97.3 217.9 97.4 C 217.9 96.2 217.9 94.9 216.3 94.9 C 215.3 94.9 214.8 95.5 214.9 96.5 C 214.9 96.5 213.3 96.5 213.3 96.5 C 213.4 94.5 214.4 93.8 216.4 93.8 C 218.7 93.8 219.3 95 219.3 96.5 C 219.3 96.5 219.3 100.9 219.3 100.9 C 219.3 101.6 219.4 102.3 219.5 103 C 219.51 103.03 217.9 103 217.9 103 L 217.9 101.7 Z M 227.3 98.3 C 227.3 97 227.3 95 225.5 95 C 223.6 95 223.8 97.5 223.8 98.9 C 223.8 100.1 223.9 102 225.5 102 C 227.1 102 227.3 100.8 227.3 98.3 Z M 223.8 95 C 223.8 95 223.84 95.02 223.8 95 C 224.3 94.2 225 93.8 225.9 93.8 C 227.4 93.8 228.9 94.3 228.9 98.3 C 228.9 100.6 228.8 103.2 225.9 103.2 C 225 103.2 224.4 102.8 223.9 102.1 C 223.86 102.11 223.8 102.1 223.8 102.1 L 223.8 106.5 L 222.3 106.5 L 222.3 93.9 L 223.8 93.9 L 223.8 95 Z M 236.1 103 C 236.1 103 236.14 96.88 236.1 96.9 C 236.1 95.8 235.8 95 234.5 95 C 233 95 232.7 96.2 232.7 97.7 C 232.66 97.69 232.7 103 232.7 103 L 231.2 103 L 231.2 90 L 232.7 90 L 232.7 95.1 C 232.7 95.1 232.74 95.11 232.7 95.1 C 233.3 94 234 93.8 235.2 93.8 C 236.8 93.8 237.6 94.5 237.6 96.6 C 237.61 96.59 237.6 103 237.6 103 L 236.1 103 Z M 242.9 101.3 L 243 101.3 L 245.2 93.9 L 246.8 93.9 L 242.6 106.5 L 241.1 106.5 L 242.1 103 L 239.1 93.9 L 240.8 93.9 L 242.9 101.3 Z M 249.6 103 L 248.2 103 L 248.2 90 L 249.6 90 L 249.6 103 Z M 253.5 100.3 C 253.5 101.2 254 102 255 102 C 255.9 102 257 101.4 256.8 98.5 C 255.4 98.5 253.5 98.4 253.5 100.3 Z M 256.9 101.7 C 256.9 101.7 256.84 101.72 256.8 101.7 C 256.4 102.8 255.7 103.2 254.6 103.2 C 252.6 103.2 252.1 102 252.1 100.2 C 252.1 97.5 254.8 97.3 256.8 97.4 C 256.9 96.2 256.9 94.9 255.3 94.9 C 254.3 94.9 253.8 95.5 253.9 96.5 C 253.9 96.5 252.3 96.5 252.3 96.5 C 252.4 94.5 253.4 93.8 255.4 93.8 C 257.7 93.8 258.3 95 258.3 96.5 C 258.3 96.5 258.3 100.9 258.3 100.9 C 258.3 101.6 258.4 102.3 258.5 103 C 258.49 103.03 256.9 103 256.9 103 L 256.9 101.7 Z M 267.8 103 L 265.8 103 L 263.7 99.3 L 261.8 103 L 260 103 L 262.8 98.3 L 260.2 93.9 L 262.1 93.9 L 263.9 97.2 L 265.7 93.9 L 267.5 93.9 L 264.8 98.3 L 267.8 103 Z M 270.6 103 L 269.1 103 L 269.1 93.9 L 270.6 93.9 L 270.6 103 Z M 269.1 90 L 270.7 90 L 270.7 91.6 L 269.1 91.6 L 269.1 90 Z M 275.9 103.2 C 273.9 103.2 272.7 102.3 272.7 100.3 C 272.7 100.3 274.4 100.3 274.4 100.3 C 274.4 100.8 274.4 102 275.9 102 C 276.8 102 277.5 101.6 277.5 100.6 C 277.5 99 272.9 99 272.9 96.2 C 272.9 95.3 273.5 93.8 276.1 93.8 C 277.7 93.8 279.1 94.5 279 96.3 C 279 96.3 277.3 96.3 277.3 96.3 C 277.3 95.4 276.8 94.9 275.9 94.9 C 275.1 94.9 274.5 95.3 274.5 96.1 C 274.5 97.7 279 97.7 279 100.4 C 279 102.4 277.7 103.2 275.9 103.2 Z M 281.4 101.2 L 283.3 101.2 L 281.6 105.3 L 280.5 105.3 L 281.4 101.2 Z " stroke="none" fill="#555555"/>  </g>  <g id="Polygon201885">    <path d="M 10.5 66 L 10.5 79 L 8.2 79 L 3.1 67.8 L 3 67.8 L 3 79 L 1.5 79 L 1.5 66 L 3.9 66 L 8.9 77.2 L 9 77.2 L 9 66 L 10.5 66 Z M 18.4 74 C 18.4 71.5 17.6 71 16.5 71 C 15.4 71 14.6 71.5 14.6 74 C 14.6 76.9 15 78 16.5 78 C 18 78 18.4 76.9 18.4 74 Z M 13 74.6 C 13 72 13.4 69.8 16.5 69.8 C 19.7 69.8 20 72 20 74.6 C 20 78.6 18.4 79.2 16.5 79.2 C 14.6 79.2 13 78.6 13 74.6 Z M 33.7 66 L 33.7 67.5 L 30.3 67.5 L 30.3 79 L 28.7 79 L 28.7 67.5 L 25.3 67.5 L 25.3 66 L 33.7 66 Z M 35.5 79 L 35.5 66 L 42.2 66 L 42.2 67.5 L 37.1 67.5 L 37.1 71.7 L 41.8 71.7 L 41.8 73.1 L 37.1 73.1 L 37.1 77.6 L 42.3 77.6 L 42.3 79 L 35.5 79 Z M 47.4 66 L 49.5 66 L 53.7 79 L 51.9 79 L 50.9 75.9 L 45.9 75.9 L 44.9 79 L 43.3 79 L 47.4 66 Z M 48.4 67.6 L 48.4 67.6 L 46.3 74.5 L 50.5 74.5 L 48.4 67.6 Z M 55.5 79 L 55.5 66 L 62.2 66 L 62.2 67.5 L 57.1 67.5 L 57.1 71.7 L 61.8 71.7 L 61.8 73.1 L 57.1 73.1 L 57.1 77.6 L 62.3 77.6 L 62.3 79 L 55.5 79 Z M 67 79.2 C 65 79.2 63.8 78.3 63.8 76.3 C 63.8 76.3 65.5 76.3 65.5 76.3 C 65.5 76.8 65.5 78 67 78 C 67.9 78 68.6 77.6 68.6 76.6 C 68.6 75 64.1 75 64.1 72.2 C 64.1 71.3 64.6 69.8 67.2 69.8 C 68.8 69.8 70.2 70.5 70.1 72.3 C 70.1 72.3 68.4 72.3 68.4 72.3 C 68.5 71.4 67.9 70.9 67 70.9 C 66.2 70.9 65.6 71.3 65.6 72.1 C 65.6 73.7 70.1 73.7 70.1 76.4 C 70.1 78.4 68.8 79.2 67 79.2 Z M 81.4 74 C 81.4 71.5 80.6 71 79.5 71 C 78.4 71 77.6 71.5 77.6 74 C 77.6 76.9 78 78 79.5 78 C 81 78 81.4 76.9 81.4 74 Z M 76 74.6 C 76 72 76.3 69.8 79.5 69.8 C 82.6 69.8 82.9 72 82.9 74.6 C 82.9 78.6 81.4 79.2 79.5 79.2 C 77.6 79.2 76 78.6 76 74.6 Z M 85.6 69.9 C 85.6 69.9 85.55 68.18 85.6 68.2 C 85.6 66.3 86.8 66 88.2 66 C 88.5 66 88.6 66 88.9 66 C 88.9 66 88.9 67.1 88.9 67.1 C 87.3 67 87 67.7 87 68.4 C 87.03 68.39 87 69.9 87 69.9 L 88.9 69.9 L 88.9 71.1 L 87 71.1 L 87 79 L 85.6 79 L 85.6 71.1 L 84.1 71.1 L 84.1 69.9 L 85.6 69.9 Z M 97 79.2 C 95 79.2 93.8 78.3 93.8 76.3 C 93.8 76.3 95.5 76.3 95.5 76.3 C 95.5 76.8 95.5 78 97 78 C 97.9 78 98.6 77.6 98.6 76.6 C 98.6 75 94 75 94 72.2 C 94 71.3 94.6 69.8 97.2 69.8 C 98.8 69.8 100.2 70.5 100.1 72.3 C 100.1 72.3 98.4 72.3 98.4 72.3 C 98.4 71.4 97.9 70.9 97 70.9 C 96.2 70.9 95.6 71.3 95.6 72.1 C 95.6 73.7 100.1 73.7 100.1 76.4 C 100.1 78.4 98.8 79.2 97 79.2 Z M 107.4 74.3 C 107.4 73 107.4 71 105.5 71 C 103.7 71 103.9 73.5 103.9 74.9 C 103.9 76.1 103.9 78 105.6 78 C 107.2 78 107.4 76.8 107.4 74.3 Z M 103.9 71 C 103.9 71 103.91 71.02 103.9 71 C 104.4 70.2 105 69.8 106 69.8 C 107.5 69.8 108.9 70.3 108.9 74.3 C 108.9 76.6 108.9 79.2 105.9 79.2 C 105.1 79.2 104.4 78.8 103.9 78.1 C 103.93 78.11 103.9 78.1 103.9 78.1 L 103.9 82.5 L 102.4 82.5 L 102.4 69.9 L 103.9 69.9 L 103.9 71 Z M 116.3 73.8 C 116.3 71.2 115.5 70.9 114.4 70.9 C 113.5 70.9 112.7 71.3 112.7 73.8 C 112.7 73.8 116.3 73.8 116.3 73.8 Z M 112.7 75 C 112.7 77.5 113.4 78 114.6 78 C 115.6 78 116.1 77.2 116.1 76.3 C 116.1 76.3 117.8 76.3 117.8 76.3 C 117.7 78.3 116.5 79.2 114.6 79.2 C 112.7 79.2 111.1 78.6 111.1 74.6 C 111.1 72 111.4 69.8 114.6 69.8 C 117.2 69.8 117.8 71.2 117.8 74.2 C 117.83 74.19 117.8 75 117.8 75 C 117.8 75 112.71 74.96 112.7 75 Z M 125 72.9 C 125.1 71.4 124.3 71 123.8 71 C 122.6 71 121.9 71.5 121.9 74 C 121.9 76.9 122.2 78 123.8 78 C 124.1 78 125.1 77.6 125.1 76 C 125.1 76 126.6 76 126.6 76 C 126.7 78.6 124.8 79.2 123.8 79.2 C 121.8 79.2 120.3 78.6 120.3 74.6 C 120.3 72 120.6 69.8 123.8 69.8 C 125.6 69.8 126.6 70.8 126.6 72.9 C 126.6 72.9 125 72.9 125 72.9 Z M 130.7 79 L 129.2 79 L 129.2 69.9 L 130.7 69.9 L 130.7 79 Z M 129.1 66 L 130.8 66 L 130.8 67.6 L 129.1 67.6 L 129.1 66 Z M 134.6 76.3 C 134.6 77.2 135.1 78 136 78 C 136.9 78 138.1 77.4 137.9 74.5 C 136.5 74.5 134.6 74.4 134.6 76.3 Z M 138 77.7 C 138 77.7 137.91 77.72 137.9 77.7 C 137.5 78.8 136.8 79.2 135.6 79.2 C 133.7 79.2 133.1 78 133.1 76.2 C 133.1 73.5 135.8 73.3 137.9 73.4 C 138 72.2 138 70.9 136.4 70.9 C 135.4 70.9 134.9 71.5 135 72.5 C 135 72.5 133.4 72.5 133.4 72.5 C 133.4 70.5 134.5 69.8 136.4 69.8 C 138.8 69.8 139.4 71 139.4 72.5 C 139.4 72.5 139.4 76.9 139.4 76.9 C 139.4 77.6 139.5 78.3 139.6 79 C 139.57 79.03 138 79 138 79 L 138 77.7 Z M 143.7 79 L 142.2 79 L 142.2 66 L 143.7 66 L 143.7 79 Z M 151.7 79 L 150.2 79 L 150.2 69.9 L 151.7 69.9 L 151.7 79 Z M 150.1 66 L 151.8 66 L 151.8 67.6 L 150.1 67.6 L 150.1 66 Z M 159.2 79 C 159.2 79 159.19 72.73 159.2 72.7 C 159.2 71.8 158.8 71 157.6 71 C 156 71 155.7 72.4 155.7 73.6 C 155.73 73.65 155.7 79 155.7 79 L 154.3 79 C 154.3 79 154.26 71.83 154.3 71.8 C 154.3 71.2 154.2 70.6 154.2 69.9 C 154.17 69.94 155.7 69.9 155.7 69.9 L 155.7 71.1 C 155.7 71.1 155.81 71.11 155.8 71.1 C 156.4 70.1 157.1 69.8 158.2 69.8 C 160.2 69.8 160.7 70.9 160.7 72.7 C 160.67 72.73 160.7 79 160.7 79 L 159.2 79 Z M 163.4 69.9 L 163.4 68.2 L 164.9 67.5 L 164.9 69.9 L 166.9 69.9 L 166.9 71.1 L 164.9 71.1 C 164.9 71.1 164.9 76.62 164.9 76.6 C 164.9 77.2 164.9 77.9 166.2 77.9 C 166.4 77.9 166.6 77.9 166.9 77.9 C 166.9 77.9 166.9 79 166.9 79 C 166.4 79 165.9 79.1 165.5 79.1 C 164 79.1 163.4 78.6 163.4 77.5 C 163.42 77.52 163.4 71.1 163.4 71.1 L 161.9 71.1 L 161.9 69.9 L 163.4 69.9 Z M 173.2 73.8 C 173.2 71.2 172.5 70.9 171.4 70.9 C 170.5 70.9 169.7 71.3 169.7 73.8 C 169.7 73.8 173.2 73.8 173.2 73.8 Z M 169.7 75 C 169.7 77.5 170.4 78 171.5 78 C 172.5 78 173.1 77.2 173.1 76.3 C 173.1 76.3 174.7 76.3 174.7 76.3 C 174.7 78.3 173.5 79.2 171.6 79.2 C 169.6 79.2 168.1 78.6 168.1 74.6 C 168.1 72 168.4 69.8 171.6 69.8 C 174.2 69.8 174.8 71.2 174.8 74.2 C 174.81 74.19 174.8 75 174.8 75 C 174.8 75 169.7 74.96 169.7 75 Z M 178.8 71.3 C 178.8 71.3 178.83 71.31 178.8 71.3 C 179.4 69.9 180.2 69.8 181.6 69.8 C 181.6 69.8 181.6 71.3 181.6 71.3 C 181.5 71.3 181.4 71.3 181.2 71.2 C 181.1 71.2 181 71.2 180.8 71.2 C 179.2 71.2 178.8 72.4 178.8 73.7 C 178.79 73.67 178.8 79 178.8 79 L 177.3 79 L 177.3 69.9 L 178.8 69.9 L 178.8 71.3 Z M 188.2 73.8 C 188.2 71.2 187.5 70.9 186.4 70.9 C 185.5 70.9 184.7 71.3 184.7 73.8 C 184.7 73.8 188.2 73.8 188.2 73.8 Z M 184.7 75 C 184.7 77.5 185.4 78 186.5 78 C 187.5 78 188.1 77.2 188.1 76.3 C 188.1 76.3 189.7 76.3 189.7 76.3 C 189.7 78.3 188.5 79.2 186.6 79.2 C 184.6 79.2 183.1 78.6 183.1 74.6 C 183.1 72 183.4 69.8 186.6 69.8 C 189.2 69.8 189.8 71.2 189.8 74.2 C 189.81 74.19 189.8 75 189.8 75 C 189.8 75 184.7 74.96 184.7 75 Z M 194.9 79.2 C 193 79.2 191.8 78.3 191.8 76.3 C 191.8 76.3 193.5 76.3 193.5 76.3 C 193.5 76.8 193.5 78 195 78 C 195.9 78 196.6 77.6 196.6 76.6 C 196.6 75 192 75 192 72.2 C 192 71.3 192.6 69.8 195.2 69.8 C 196.8 69.8 198.2 70.5 198 72.3 C 198 72.3 196.4 72.3 196.4 72.3 C 196.4 71.4 195.9 70.9 195 70.9 C 194.2 70.9 193.6 71.3 193.6 72.1 C 193.6 73.7 198.1 73.7 198.1 76.4 C 198.1 78.4 196.7 79.2 194.9 79.2 Z M 200.4 69.9 L 200.4 68.2 L 201.9 67.5 L 201.9 69.9 L 203.9 69.9 L 203.9 71.1 L 201.9 71.1 C 201.9 71.1 201.88 76.62 201.9 76.6 C 201.9 77.2 201.9 77.9 203.2 77.9 C 203.3 77.9 203.6 77.9 203.9 77.9 C 203.9 77.9 203.9 79 203.9 79 C 203.4 79 202.9 79.1 202.4 79.1 C 201 79.1 200.4 78.6 200.4 77.5 C 200.41 77.52 200.4 71.1 200.4 71.1 L 198.9 71.1 L 198.9 69.9 L 200.4 69.9 Z " stroke="none" fill="#555555"/>  </g>  <g id="Polygon201884">    <path d="M 10.5 32 L 10.5 45 L 8.2 45 L 3.1 33.8 L 3 33.8 L 3 45 L 1.5 45 L 1.5 32 L 3.9 32 L 8.9 43.2 L 9 43.2 L 9 32 L 10.5 32 Z M 18.4 40 C 18.4 37.5 17.6 37 16.5 37 C 15.4 37 14.6 37.5 14.6 40 C 14.6 42.9 15 44 16.5 44 C 18 44 18.4 42.9 18.4 40 Z M 13 40.6 C 13 38 13.4 35.8 16.5 35.8 C 19.7 35.8 20 38 20 40.6 C 20 44.6 18.4 45.2 16.5 45.2 C 14.6 45.2 13 44.6 13 40.6 Z M 33.7 32 L 33.7 33.5 L 30.3 33.5 L 30.3 45 L 28.7 45 L 28.7 33.5 L 25.3 33.5 L 25.3 32 L 33.7 32 Z M 35.5 45 L 35.5 32 L 42.2 32 L 42.2 33.5 L 37.1 33.5 L 37.1 37.7 L 41.8 37.7 L 41.8 39.1 L 37.1 39.1 L 37.1 43.6 L 42.3 43.6 L 42.3 45 L 35.5 45 Z M 47.4 32 L 49.5 32 L 53.7 45 L 51.9 45 L 50.9 41.9 L 45.9 41.9 L 44.9 45 L 43.3 45 L 47.4 32 Z M 48.4 33.6 L 48.4 33.6 L 46.3 40.5 L 50.5 40.5 L 48.4 33.6 Z M 55.5 45 L 55.5 32 L 62.2 32 L 62.2 33.5 L 57.1 33.5 L 57.1 37.7 L 61.8 37.7 L 61.8 39.1 L 57.1 39.1 L 57.1 43.6 L 62.3 43.6 L 62.3 45 L 55.5 45 Z M 67 45.2 C 65 45.2 63.8 44.3 63.8 42.3 C 63.8 42.3 65.5 42.3 65.5 42.3 C 65.5 42.8 65.5 44 67 44 C 67.9 44 68.6 43.6 68.6 42.6 C 68.6 41 64.1 41 64.1 38.2 C 64.1 37.3 64.6 35.8 67.2 35.8 C 68.8 35.8 70.2 36.5 70.1 38.3 C 70.1 38.3 68.4 38.3 68.4 38.3 C 68.5 37.4 67.9 36.9 67 36.9 C 66.2 36.9 65.6 37.3 65.6 38.1 C 65.6 39.7 70.1 39.7 70.1 42.4 C 70.1 44.4 68.8 45.2 67 45.2 Z M 77.7 45 L 76.2 45 L 76.2 32 L 77.7 32 L 77.7 45 Z M 85.3 39.8 C 85.3 37.2 84.5 36.9 83.4 36.9 C 82.5 36.9 81.7 37.3 81.7 39.8 C 81.7 39.8 85.3 39.8 85.3 39.8 Z M 81.7 41 C 81.7 43.5 82.4 44 83.6 44 C 84.6 44 85.1 43.2 85.1 42.3 C 85.1 42.3 86.8 42.3 86.8 42.3 C 86.7 44.3 85.5 45.2 83.6 45.2 C 81.7 45.2 80.1 44.6 80.1 40.6 C 80.1 38 80.4 35.8 83.6 35.8 C 86.2 35.8 86.8 37.2 86.8 40.2 C 86.83 40.19 86.8 41 86.8 41 C 86.8 41 81.72 40.96 81.7 41 Z M 90.6 42.3 C 90.6 43.2 91.1 44 92.1 44 C 93 44 94.1 43.4 93.9 40.5 C 92.5 40.5 90.6 40.4 90.6 42.3 Z M 94 43.7 C 94 43.7 93.92 43.72 93.9 43.7 C 93.5 44.8 92.8 45.2 91.6 45.2 C 89.7 45.2 89.2 44 89.2 42.2 C 89.2 39.5 91.9 39.3 93.9 39.4 C 94 38.2 94 36.9 92.4 36.9 C 91.4 36.9 90.9 37.5 91 38.5 C 91 38.5 89.4 38.5 89.4 38.5 C 89.4 36.5 90.5 35.8 92.4 35.8 C 94.8 35.8 95.4 37 95.4 38.5 C 95.4 38.5 95.4 42.9 95.4 42.9 C 95.4 43.6 95.5 44.3 95.6 45 C 95.58 45.03 94 45 94 45 L 94 43.7 Z M 101.4 37 C 99.8 37 99.6 38.2 99.6 40.7 C 99.6 42 99.6 44 101.4 44 C 103.1 44 103.1 42 103.1 40.1 C 103.1 38.9 103 37 101.4 37 Z M 103.1 32 L 104.6 32 L 104.6 45 L 103.1 45 L 103.1 44 C 103.1 44 103.05 43.95 103 44 C 102.5 44.8 101.9 45.2 101 45.2 C 99.5 45.2 98 44.6 98 40.6 C 98 38.4 98.1 35.8 101 35.8 C 101.9 35.8 102.5 36.1 103 36.9 C 103.03 36.86 103.1 36.9 103.1 36.9 L 103.1 32 Z M 108.7 45 L 107.2 45 L 107.2 35.9 L 108.7 35.9 L 108.7 45 Z M 107.2 32 L 108.8 32 L 108.8 33.6 L 107.2 33.6 L 107.2 32 Z M 116.2 45 C 116.2 45 116.21 38.73 116.2 38.7 C 116.2 37.8 115.9 37 114.6 37 C 113 37 112.8 38.4 112.8 39.6 C 112.75 39.65 112.8 45 112.8 45 L 111.3 45 C 111.3 45 111.27 37.83 111.3 37.8 C 111.3 37.2 111.2 36.6 111.2 35.9 C 111.18 35.94 112.8 35.9 112.8 35.9 L 112.8 37.1 C 112.8 37.1 112.82 37.11 112.8 37.1 C 113.4 36.1 114.1 35.8 115.3 35.8 C 117.2 35.8 117.7 36.9 117.7 38.7 C 117.68 38.73 117.7 45 117.7 45 L 116.2 45 Z M 123.4 37 C 121.7 37 121.6 39 121.6 40.2 C 121.6 43.1 122.3 43.8 123.4 43.8 C 125.2 43.8 125.1 41.7 125.1 40.4 C 125.1 39.1 125.2 37 123.4 37 Z M 125.1 35.9 L 126.6 35.9 C 126.6 35.9 126.56 45.95 126.6 45.9 C 126.6 48 125.2 48.5 123.2 48.5 C 121.7 48.5 120.3 47.7 120.5 46 C 120.5 46 122.1 46 122.1 46 C 122.1 46.9 122.7 47.4 123.5 47.4 C 124.5 47.4 125.1 46.7 125.1 45.8 C 125.08 45.79 125.1 43.9 125.1 43.9 C 125.1 43.9 125.03 43.9 125 43.9 C 124.6 44.6 123.8 45 123 45 C 120.6 45 120.1 42.9 120.1 40.2 C 120.1 36 122.2 35.8 122.9 35.8 C 123.9 35.8 124.6 36.2 125 37.1 C 125.04 37.06 125.1 37.1 125.1 37.1 L 125.1 35.9 Z M 133.4 35.9 L 133.4 34.2 L 134.9 33.5 L 134.9 35.9 L 136.9 35.9 L 136.9 37.1 L 134.9 37.1 C 134.9 37.1 134.91 42.62 134.9 42.6 C 134.9 43.2 134.9 43.9 136.3 43.9 C 136.4 43.9 136.6 43.9 136.9 43.9 C 136.9 43.9 136.9 45 136.9 45 C 136.4 45 136 45.1 135.5 45.1 C 134.1 45.1 133.4 44.6 133.4 43.5 C 133.43 43.52 133.4 37.1 133.4 37.1 L 131.9 37.1 L 131.9 35.9 L 133.4 35.9 Z M 143.4 40 C 143.4 37.5 142.6 37 141.5 37 C 140.3 37 139.6 37.5 139.6 40 C 139.6 42.9 139.9 44 141.5 44 C 143 44 143.4 42.9 143.4 40 Z M 138 40.6 C 138 38 138.3 35.8 141.5 35.8 C 144.6 35.8 144.9 38 144.9 40.6 C 144.9 44.6 143.4 45.2 141.5 45.2 C 139.6 45.2 138 44.6 138 40.6 Z M 154 45.2 C 152 45.2 150.8 44.3 150.8 42.3 C 150.8 42.3 152.5 42.3 152.5 42.3 C 152.5 42.8 152.5 44 154 44 C 154.9 44 155.6 43.6 155.6 42.6 C 155.6 41 151 41 151 38.2 C 151 37.3 151.6 35.8 154.2 35.8 C 155.8 35.8 157.2 36.5 157 38.3 C 157 38.3 155.4 38.3 155.4 38.3 C 155.4 37.4 154.9 36.9 154 36.9 C 153.2 36.9 152.6 37.3 152.6 38.1 C 152.6 39.7 157.1 39.7 157.1 42.4 C 157.1 44.4 155.8 45.2 154 45.2 Z M 159.4 35.9 L 159.4 34.2 L 160.9 33.5 L 160.9 35.9 L 162.9 35.9 L 162.9 37.1 L 160.9 37.1 C 160.9 37.1 160.9 42.62 160.9 42.6 C 160.9 43.2 160.9 43.9 162.2 43.9 C 162.4 43.9 162.6 43.9 162.9 43.9 C 162.9 43.9 162.9 45 162.9 45 C 162.4 45 161.9 45.1 161.5 45.1 C 160.1 45.1 159.4 44.6 159.4 43.5 C 159.42 43.52 159.4 37.1 159.4 37.1 L 157.9 37.1 L 157.9 35.9 L 159.4 35.9 Z M 169.1 35.9 L 170.6 35.9 C 170.6 35.9 170.6 43.14 170.6 43.1 C 170.6 43.8 170.6 44.4 170.7 45 C 170.69 45.03 169.1 45 169.1 45 L 169.1 43.9 C 169.1 43.9 169.07 43.93 169.1 43.9 C 168.6 44.8 167.7 45.2 166.8 45.2 C 165.2 45.2 164.3 44.4 164.3 42.9 C 164.32 42.87 164.3 35.9 164.3 35.9 L 165.8 35.9 C 165.8 35.9 165.8 42.24 165.8 42.2 C 165.8 43.3 166.3 44.1 167.3 44.1 C 168.1 44.1 169.1 43.5 169.1 42 C 169.13 41.97 169.1 35.9 169.1 35.9 Z M 176.4 37 C 174.8 37 174.6 38.2 174.6 40.7 C 174.6 42 174.6 44 176.4 44 C 178.1 44 178.1 42 178.1 40.1 C 178.1 38.9 178 37 176.4 37 Z M 178.1 32 L 179.5 32 L 179.5 45 L 178.1 45 L 178.1 44 C 178.1 44 178.04 43.95 178 44 C 177.5 44.8 176.9 45.2 175.9 45.2 C 174.5 45.2 173 44.6 173 40.6 C 173 38.4 173.1 35.8 176 35.8 C 176.9 35.8 177.5 36.1 178 36.9 C 178.02 36.86 178.1 36.9 178.1 36.9 L 178.1 32 Z M 185 43.3 L 185 43.3 L 187.2 35.9 L 188.8 35.9 L 184.7 48.5 L 183.2 48.5 L 184.2 45 L 181.1 35.9 L 182.8 35.9 L 185 43.3 Z M 197.3 37 C 195.8 37 195.5 38.2 195.5 40.7 C 195.5 42 195.5 44 197.4 44 C 199.1 44 199.1 42 199.1 40.1 C 199.1 38.9 199 37 197.3 37 Z M 199.1 32 L 200.5 32 L 200.5 45 L 199.1 45 L 199.1 44 C 199.1 44 199.02 43.95 199 44 C 198.5 44.8 197.9 45.2 196.9 45.2 C 195.5 45.2 194 44.6 194 40.6 C 194 38.4 194.1 35.8 197 35.8 C 197.9 35.8 198.5 36.1 199 36.9 C 199.01 36.86 199.1 36.9 199.1 36.9 L 199.1 32 Z M 204.7 45 L 203.2 45 L 203.2 35.9 L 204.7 35.9 L 204.7 45 Z M 203.1 32 L 204.8 32 L 204.8 33.6 L 203.1 33.6 L 203.1 32 Z M 209.9 45.2 C 208 45.2 206.7 44.3 206.8 42.3 C 206.8 42.3 208.5 42.3 208.5 42.3 C 208.5 42.8 208.5 44 210 44 C 210.9 44 211.6 43.6 211.6 42.6 C 211.6 41 207 41 207 38.2 C 207 37.3 207.6 35.8 210.1 35.8 C 211.8 35.8 213.2 36.5 213 38.3 C 213 38.3 211.4 38.3 211.4 38.3 C 211.4 37.4 210.9 36.9 210 36.9 C 209.2 36.9 208.6 37.3 208.6 38.1 C 208.6 39.7 213.1 39.7 213.1 42.4 C 213.1 44.4 211.7 45.2 209.9 45.2 Z M 220 38.9 C 220 37.4 219.3 37 218.7 37 C 217.6 37 216.8 37.5 216.8 40 C 216.8 42.9 217.2 44 218.7 44 C 219.1 44 220.1 43.6 220 42 C 220 42 221.6 42 221.6 42 C 221.6 44.6 219.7 45.2 218.7 45.2 C 216.8 45.2 215.3 44.6 215.3 40.6 C 215.3 38 215.6 35.8 218.7 35.8 C 220.6 35.8 221.6 36.8 221.5 38.9 C 221.5 38.9 220 38.9 220 38.9 Z M 229.4 40 C 229.4 37.5 228.6 37 227.4 37 C 226.3 37 225.5 37.5 225.5 40 C 225.5 42.9 225.9 44 227.4 44 C 229 44 229.4 42.9 229.4 40 Z M 224 40.6 C 224 38 224.3 35.8 227.4 35.8 C 230.6 35.8 230.9 38 230.9 40.6 C 230.9 44.6 229.4 45.2 227.4 45.2 C 225.5 45.2 224 44.6 224 40.6 Z M 238.2 45 C 238.2 45 238.17 38.73 238.2 38.7 C 238.2 37.8 237.8 37 236.6 37 C 235 37 234.7 38.4 234.7 39.6 C 234.72 39.65 234.7 45 234.7 45 L 233.2 45 C 233.2 45 233.24 37.83 233.2 37.8 C 233.2 37.2 233.2 36.6 233.2 35.9 C 233.15 35.94 234.7 35.9 234.7 35.9 L 234.7 37.1 C 234.7 37.1 234.79 37.11 234.8 37.1 C 235.4 36.1 236 35.8 237.2 35.8 C 239.2 35.8 239.6 36.9 239.6 38.7 C 239.65 38.73 239.6 45 239.6 45 L 238.2 45 Z M 242.4 35.9 L 242.4 34.2 L 243.9 33.5 L 243.9 35.9 L 245.9 35.9 L 245.9 37.1 L 243.9 37.1 C 243.9 37.1 243.88 42.62 243.9 42.6 C 243.9 43.2 243.9 43.9 245.2 43.9 C 245.3 43.9 245.6 43.9 245.9 43.9 C 245.9 43.9 245.9 45 245.9 45 C 245.4 45 244.9 45.1 244.4 45.1 C 243 45.1 242.4 44.6 242.4 43.5 C 242.4 43.52 242.4 37.1 242.4 37.1 L 240.9 37.1 L 240.9 35.9 L 242.4 35.9 Z M 248.7 45 L 247.2 45 L 247.2 35.9 L 248.7 35.9 L 248.7 45 Z M 247.1 32 L 248.8 32 L 248.8 33.6 L 247.1 33.6 L 247.1 32 Z M 256.2 45 C 256.2 45 256.17 38.73 256.2 38.7 C 256.2 37.8 255.8 37 254.6 37 C 253 37 252.7 38.4 252.7 39.6 C 252.72 39.65 252.7 45 252.7 45 L 251.2 45 C 251.2 45 251.24 37.83 251.2 37.8 C 251.2 37.2 251.2 36.6 251.2 35.9 C 251.15 35.94 252.7 35.9 252.7 35.9 L 252.7 37.1 C 252.7 37.1 252.79 37.11 252.8 37.1 C 253.4 36.1 254 35.8 255.2 35.8 C 257.2 35.8 257.6 36.9 257.6 38.7 C 257.65 38.73 257.6 45 257.6 45 L 256.2 45 Z M 265.1 35.9 L 266.6 35.9 C 266.6 35.9 266.58 43.14 266.6 43.1 C 266.6 43.8 266.6 44.4 266.7 45 C 266.67 45.03 265.1 45 265.1 45 L 265.1 43.9 C 265.1 43.9 265.05 43.93 265 43.9 C 264.6 44.8 263.7 45.2 262.7 45.2 C 261.2 45.2 260.3 44.4 260.3 42.9 C 260.29 42.87 260.3 35.9 260.3 35.9 L 261.8 35.9 C 261.8 35.9 261.77 42.24 261.8 42.2 C 261.8 43.3 262.3 44.1 263.3 44.1 C 264.1 44.1 265.1 43.5 265.1 42 C 265.1 41.97 265.1 35.9 265.1 35.9 Z M 270.6 42.3 C 270.6 43.2 271 44 272 44 C 272.9 44 274 43.4 273.9 40.5 C 272.5 40.5 270.6 40.4 270.6 42.3 Z M 273.9 43.7 C 273.9 43.7 273.88 43.72 273.9 43.7 C 273.4 44.8 272.7 45.2 271.6 45.2 C 269.7 45.2 269.1 44 269.1 42.2 C 269.1 39.5 271.8 39.3 273.9 39.4 C 273.9 38.2 273.9 36.9 272.4 36.9 C 271.4 36.9 270.8 37.5 270.9 38.5 C 270.9 38.5 269.3 38.5 269.3 38.5 C 269.4 36.5 270.5 35.8 272.4 35.8 C 274.7 35.8 275.4 37 275.4 38.5 C 275.4 38.5 275.4 42.9 275.4 42.9 C 275.4 43.6 275.4 44.3 275.5 45 C 275.54 45.03 273.9 45 273.9 45 L 273.9 43.7 Z M 278.4 35.9 L 278.4 34.2 L 279.9 33.5 L 279.9 35.9 L 281.9 35.9 L 281.9 37.1 L 279.9 37.1 C 279.9 37.1 279.88 42.62 279.9 42.6 C 279.9 43.2 279.9 43.9 281.2 43.9 C 281.3 43.9 281.6 43.9 281.9 43.9 C 281.9 43.9 281.9 45 281.9 45 C 281.4 45 280.9 45.1 280.4 45.1 C 279 45.1 278.4 44.6 278.4 43.5 C 278.4 43.52 278.4 37.1 278.4 37.1 L 276.9 37.1 L 276.9 35.9 L 278.4 35.9 Z M 284.7 45 L 283.2 45 L 283.2 35.9 L 284.7 35.9 L 284.7 45 Z M 283.1 32 L 284.8 32 L 284.8 33.6 L 283.1 33.6 L 283.1 32 Z M 292.4 40 C 292.4 37.5 291.6 37 290.4 37 C 289.3 37 288.5 37.5 288.5 40 C 288.5 42.9 288.9 44 290.4 44 C 292 44 292.4 42.9 292.4 40 Z M 287 40.6 C 287 38 287.3 35.8 290.4 35.8 C 293.6 35.8 293.9 38 293.9 40.6 C 293.9 44.6 292.4 45.2 290.4 45.2 C 288.5 45.2 287 44.6 287 40.6 Z M 301.2 45 C 301.2 45 301.17 38.73 301.2 38.7 C 301.2 37.8 300.8 37 299.6 37 C 297.9 37 297.7 38.4 297.7 39.6 C 297.72 39.65 297.7 45 297.7 45 L 296.2 45 C 296.2 45 296.24 37.83 296.2 37.8 C 296.2 37.2 296.2 36.6 296.1 35.9 C 296.15 35.94 297.7 35.9 297.7 35.9 L 297.7 37.1 C 297.7 37.1 297.79 37.11 297.8 37.1 C 298.4 36.1 299 35.8 300.2 35.8 C 302.2 35.8 302.6 36.9 302.6 38.7 C 302.65 38.73 302.6 45 302.6 45 L 301.2 45 Z M 305.5 43.2 L 307.3 43.2 L 305.7 47.3 L 304.6 47.3 L 305.5 43.2 Z M 306.8 37.8 L 305.1 37.8 L 305.1 35.9 L 306.8 35.9 L 306.8 37.8 Z " stroke="none" fill="#555555"/>  </g>  <g id="Polygon201883">    <path d="M 10.5 0 L 10.5 13 L 8.2 13 L 3.1 1.8 L 3 1.8 L 3 13 L 1.5 13 L 1.5 0 L 3.9 0 L 8.9 11.2 L 9 11.2 L 9 0 L 10.5 0 Z M 18.4 8 C 18.4 5.5 17.6 5 16.5 5 C 15.4 5 14.6 5.5 14.6 8 C 14.6 10.9 15 12 16.5 12 C 18 12 18.4 10.9 18.4 8 Z M 13 8.6 C 13 6 13.4 3.8 16.5 3.8 C 19.7 3.8 20 6 20 8.6 C 20 12.6 18.4 13.2 16.5 13.2 C 14.6 13.2 13 12.6 13 8.6 Z M 33.7 0 L 33.7 1.5 L 30.3 1.5 L 30.3 13 L 28.7 13 L 28.7 1.5 L 25.3 1.5 L 25.3 0 L 33.7 0 Z M 35.5 13 L 35.5 0 L 42.2 0 L 42.2 1.5 L 37.1 1.5 L 37.1 5.7 L 41.8 5.7 L 41.8 7.1 L 37.1 7.1 L 37.1 11.6 L 42.3 11.6 L 42.3 13 L 35.5 13 Z M 47.4 0 L 49.5 0 L 53.7 13 L 51.9 13 L 50.9 9.9 L 45.9 9.9 L 44.9 13 L 43.3 13 L 47.4 0 Z M 48.4 1.6 L 48.4 1.6 L 46.3 8.5 L 50.5 8.5 L 48.4 1.6 Z M 55.5 13 L 55.5 0 L 62.2 0 L 62.2 1.5 L 57.1 1.5 L 57.1 5.7 L 61.8 5.7 L 61.8 7.1 L 57.1 7.1 L 57.1 11.6 L 62.3 11.6 L 62.3 13 L 55.5 13 Z M 67 13.2 C 65 13.2 63.8 12.3 63.8 10.3 C 63.8 10.3 65.5 10.3 65.5 10.3 C 65.5 10.8 65.5 12 67 12 C 67.9 12 68.6 11.6 68.6 10.6 C 68.6 9 64.1 9 64.1 6.2 C 64.1 5.3 64.6 3.8 67.2 3.8 C 68.8 3.8 70.2 4.5 70.1 6.3 C 70.1 6.3 68.4 6.3 68.4 6.3 C 68.5 5.4 67.9 4.9 67 4.9 C 66.2 4.9 65.6 5.3 65.6 6.1 C 65.6 7.7 70.1 7.7 70.1 10.4 C 70.1 12.4 68.8 13.2 67 13.2 Z M 77.7 13 L 76.2 13 L 76.2 0 L 77.7 0 L 77.7 13 Z M 85.3 7.8 C 85.3 5.2 84.5 4.9 83.4 4.9 C 82.5 4.9 81.7 5.3 81.7 7.8 C 81.7 7.8 85.3 7.8 85.3 7.8 Z M 81.7 9 C 81.7 11.5 82.4 12 83.6 12 C 84.6 12 85.1 11.2 85.1 10.3 C 85.1 10.3 86.8 10.3 86.8 10.3 C 86.7 12.3 85.5 13.2 83.6 13.2 C 81.7 13.2 80.1 12.6 80.1 8.6 C 80.1 6 80.4 3.8 83.6 3.8 C 86.2 3.8 86.8 5.2 86.8 8.2 C 86.83 8.19 86.8 9 86.8 9 C 86.8 9 81.72 8.96 81.7 9 Z M 90.6 10.3 C 90.6 11.2 91.1 12 92.1 12 C 93 12 94.1 11.4 93.9 8.5 C 92.5 8.5 90.6 8.4 90.6 10.3 Z M 94 11.7 C 94 11.7 93.92 11.72 93.9 11.7 C 93.5 12.8 92.8 13.2 91.6 13.2 C 89.7 13.2 89.2 12 89.2 10.2 C 89.2 7.5 91.9 7.3 93.9 7.4 C 94 6.2 94 4.9 92.4 4.9 C 91.4 4.9 90.9 5.5 91 6.5 C 91 6.5 89.4 6.5 89.4 6.5 C 89.4 4.5 90.5 3.8 92.4 3.8 C 94.8 3.8 95.4 5 95.4 6.5 C 95.4 6.5 95.4 10.9 95.4 10.9 C 95.4 11.6 95.5 12.3 95.6 13 C 95.58 13.03 94 13 94 13 L 94 11.7 Z M 101.4 5 C 99.8 5 99.6 6.2 99.6 8.7 C 99.6 10 99.6 12 101.4 12 C 103.1 12 103.1 10 103.1 8.1 C 103.1 6.9 103 5 101.4 5 Z M 103.1 0 L 104.6 0 L 104.6 13 L 103.1 13 L 103.1 12 C 103.1 12 103.05 11.95 103 12 C 102.5 12.8 101.9 13.2 101 13.2 C 99.5 13.2 98 12.6 98 8.6 C 98 6.4 98.1 3.8 101 3.8 C 101.9 3.8 102.5 4.1 103 4.9 C 103.03 4.86 103.1 4.9 103.1 4.9 L 103.1 0 Z M 108.7 13 L 107.2 13 L 107.2 3.9 L 108.7 3.9 L 108.7 13 Z M 107.2 0 L 108.8 0 L 108.8 1.6 L 107.2 1.6 L 107.2 0 Z M 116.2 13 C 116.2 13 116.21 6.73 116.2 6.7 C 116.2 5.8 115.9 5 114.6 5 C 113 5 112.8 6.4 112.8 7.6 C 112.75 7.65 112.8 13 112.8 13 L 111.3 13 C 111.3 13 111.27 5.83 111.3 5.8 C 111.3 5.2 111.2 4.6 111.2 3.9 C 111.18 3.94 112.8 3.9 112.8 3.9 L 112.8 5.1 C 112.8 5.1 112.82 5.11 112.8 5.1 C 113.4 4.1 114.1 3.8 115.3 3.8 C 117.2 3.8 117.7 4.9 117.7 6.7 C 117.68 6.73 117.7 13 117.7 13 L 116.2 13 Z M 123.4 5 C 121.7 5 121.6 7 121.6 8.2 C 121.6 11.1 122.3 11.8 123.4 11.8 C 125.2 11.8 125.1 9.7 125.1 8.4 C 125.1 7.1 125.2 5 123.4 5 Z M 125.1 3.9 L 126.6 3.9 C 126.6 3.9 126.56 13.95 126.6 13.9 C 126.6 16 125.2 16.5 123.2 16.5 C 121.7 16.5 120.3 15.7 120.5 14 C 120.5 14 122.1 14 122.1 14 C 122.1 14.9 122.7 15.4 123.5 15.4 C 124.5 15.4 125.1 14.7 125.1 13.8 C 125.08 13.79 125.1 11.9 125.1 11.9 C 125.1 11.9 125.03 11.9 125 11.9 C 124.6 12.6 123.8 13 123 13 C 120.6 13 120.1 10.9 120.1 8.2 C 120.1 4 122.2 3.8 122.9 3.8 C 123.9 3.8 124.6 4.2 125 5.1 C 125.04 5.06 125.1 5.1 125.1 5.1 L 125.1 3.9 Z M 133.4 3.9 L 133.4 2.2 L 134.9 1.5 L 134.9 3.9 L 136.9 3.9 L 136.9 5.1 L 134.9 5.1 C 134.9 5.1 134.91 10.62 134.9 10.6 C 134.9 11.2 134.9 11.9 136.3 11.9 C 136.4 11.9 136.6 11.9 136.9 11.9 C 136.9 11.9 136.9 13 136.9 13 C 136.4 13 136 13.1 135.5 13.1 C 134.1 13.1 133.4 12.6 133.4 11.5 C 133.43 11.52 133.4 5.1 133.4 5.1 L 131.9 5.1 L 131.9 3.9 L 133.4 3.9 Z M 143.4 8 C 143.4 5.5 142.6 5 141.5 5 C 140.3 5 139.6 5.5 139.6 8 C 139.6 10.9 139.9 12 141.5 12 C 143 12 143.4 10.9 143.4 8 Z M 138 8.6 C 138 6 138.3 3.8 141.5 3.8 C 144.6 3.8 144.9 6 144.9 8.6 C 144.9 12.6 143.4 13.2 141.5 13.2 C 139.6 13.2 138 12.6 138 8.6 Z M 154.4 5 C 152.8 5 152.6 6.2 152.6 8.7 C 152.6 10 152.6 12 154.4 12 C 156.1 12 156.1 10 156.1 8.1 C 156.1 6.9 156 5 154.4 5 Z M 156.1 0 L 157.6 0 L 157.6 13 L 156.1 13 L 156.1 12 C 156.1 12 156.04 11.95 156 12 C 155.5 12.8 154.9 13.2 154 13.2 C 152.5 13.2 151 12.6 151 8.6 C 151 6.4 151.1 3.8 154 3.8 C 154.9 3.8 155.5 4.1 156 4.9 C 156.02 4.86 156.1 4.9 156.1 4.9 L 156.1 0 Z M 165.3 7.8 C 165.3 5.2 164.5 4.9 163.4 4.9 C 162.5 4.9 161.7 5.3 161.7 7.8 C 161.7 7.8 165.3 7.8 165.3 7.8 Z M 161.7 9 C 161.7 11.5 162.4 12 163.5 12 C 164.6 12 165.1 11.2 165.1 10.3 C 165.1 10.3 166.7 10.3 166.7 10.3 C 166.7 12.3 165.5 13.2 163.6 13.2 C 161.7 13.2 160.1 12.6 160.1 8.6 C 160.1 6 160.4 3.8 163.6 3.8 C 166.2 3.8 166.8 5.2 166.8 8.2 C 166.82 8.19 166.8 9 166.8 9 C 166.8 9 161.71 8.96 161.7 9 Z M 170.6 10.3 C 170.6 11.2 171.1 12 172 12 C 172.9 12 174.1 11.4 173.9 8.5 C 172.5 8.5 170.6 8.4 170.6 10.3 Z M 173.9 11.7 C 173.9 11.7 173.91 11.72 173.9 11.7 C 173.5 12.8 172.8 13.2 171.6 13.2 C 169.7 13.2 169.1 12 169.1 10.2 C 169.1 7.5 171.8 7.3 173.9 7.4 C 173.9 6.2 174 4.9 172.4 4.9 C 171.4 4.9 170.9 5.5 171 6.5 C 171 6.5 169.4 6.5 169.4 6.5 C 169.4 4.5 170.5 3.8 172.4 3.8 C 174.8 3.8 175.4 5 175.4 6.5 C 175.4 6.5 175.4 10.9 175.4 10.9 C 175.4 11.6 175.5 12.3 175.6 13 C 175.57 13.03 173.9 13 173.9 13 L 173.9 11.7 Z M 178.4 3.9 L 178.4 2.2 L 179.9 1.5 L 179.9 3.9 L 181.9 3.9 L 181.9 5.1 L 179.9 5.1 C 179.9 5.1 179.91 10.62 179.9 10.6 C 179.9 11.2 179.9 11.9 181.3 11.9 C 181.4 11.9 181.6 11.9 181.9 11.9 C 181.9 11.9 181.9 13 181.9 13 C 181.4 13 181 13.1 180.5 13.1 C 179.1 13.1 178.4 12.6 178.4 11.5 C 178.43 11.52 178.4 5.1 178.4 5.1 L 176.9 5.1 L 176.9 3.9 L 178.4 3.9 Z M 188.2 13 C 188.2 13 188.21 6.88 188.2 6.9 C 188.2 5.8 187.8 5 186.6 5 C 185.1 5 184.7 6.2 184.7 7.7 C 184.73 7.69 184.7 13 184.7 13 L 183.3 13 L 183.3 0 L 184.7 0 L 184.7 5.1 C 184.7 5.1 184.8 5.11 184.8 5.1 C 185.4 4 186.1 3.8 187.3 3.8 C 188.8 3.8 189.7 4.5 189.7 6.6 C 189.68 6.59 189.7 13 189.7 13 L 188.2 13 Z M 192.5 11.2 L 194.4 11.2 L 192.7 15.3 L 191.6 15.3 L 192.5 11.2 Z M 193.8 5.8 L 192.1 5.8 L 192.1 3.9 L 193.8 3.9 L 193.8 5.8 Z " stroke="none" fill="#555555"/>  </g></svg>