<?xml version="1.0" standalone="no"?><!DOCTYPE svg PUBLIC "-//W3C//DTD SVG 1.1//EN" "http://www.w3.org/Graphics/SVG/1.1/DTD/svg11.dtd"><svg xmlns="http://www.w3.org/2000/svg" version="1.1" width="420px" height="59.7px" viewBox="0 -1 420 59.7" style="top:-1px">  <desc>Rapid onset: works already after the first dose2</desc>  <defs/>  <g id="Polygon191874">    <path d="M 3.6 25.9 C 3.6 25.9 4.73 25.89 4.7 25.9 C 5.7 25.9 6 24.9 6 24.1 C 6 22.9 5.5 22.5 4.7 22.5 C 4.73 22.47 3.6 22.5 3.6 22.5 L 3.6 25.9 Z M 3.6 32.9 L 1 32.9 L 1 20.6 C 1 20.6 5.76 20.59 5.8 20.6 C 7.5 20.6 8.6 21.7 8.6 23.8 C 8.6 25.4 8 26.5 6.4 26.8 C 6.4 26.8 6.4 26.8 6.4 26.8 C 6.9 26.9 8.6 27 8.6 29.3 C 8.6 30 8.6 32.3 8.9 32.9 C 8.9 32.9 6.4 32.9 6.4 32.9 C 6 32.1 6.1 31.3 6.1 30.5 C 6.1 29 6.2 27.8 4.3 27.8 C 4.25 27.78 3.6 27.8 3.6 27.8 L 3.6 32.9 Z M 12.5 30.2 C 12.5 30.8 12.6 31.6 13.4 31.6 C 14.8 31.6 14.6 29.6 14.6 28.7 C 13.4 28.8 12.5 28.7 12.5 30.2 Z M 16.9 31.3 C 16.9 31.8 17 32.3 17 32.9 C 17.03 32.86 14.8 32.9 14.8 32.9 L 14.7 31.7 C 14.7 31.7 14.67 31.72 14.7 31.7 C 14.2 32.6 13.5 33 12.4 33 C 10.8 33 10.1 31.8 10.1 30.3 C 10.1 27.5 12.3 27.3 14.6 27.4 C 14.6 27.4 14.6 26.7 14.6 26.7 C 14.6 26 14.5 25.4 13.6 25.4 C 12.8 25.4 12.7 26.1 12.7 26.8 C 12.7 26.8 10.4 26.8 10.4 26.8 C 10.4 25.7 10.7 25.1 11.2 24.7 C 11.8 24.3 12.6 24.1 13.5 24.1 C 16.5 24.1 16.9 25.4 16.9 27 C 16.9 27 16.9 31.3 16.9 31.3 Z M 23.3 28.5 C 23.3 26.8 23.3 25.6 22.3 25.6 C 21.3 25.6 21.3 26.8 21.3 28.5 C 21.3 30.6 21.5 31.6 22.3 31.6 C 23.1 31.6 23.3 30.6 23.3 28.5 Z M 21.2 24.3 L 21.2 25.2 C 21.2 25.2 21.22 25.23 21.2 25.2 C 21.7 24.4 22.3 24.1 23.2 24.1 C 25.7 24.1 25.6 26.9 25.6 28.6 C 25.6 30.4 25.7 33 23.3 33 C 22.4 33 21.8 32.8 21.3 32 C 21.33 32.04 21.3 32 21.3 32 L 21.3 36.5 L 18.9 36.5 L 18.9 24.3 L 21.2 24.3 Z M 30 32.9 L 27.6 32.9 L 27.6 24.3 L 30 24.3 L 30 32.9 Z M 30 20.6 L 30 22.5 L 27.6 22.5 L 27.6 20.6 L 30 20.6 Z M 36.3 28.5 C 36.3 26.8 36.3 25.6 35.3 25.6 C 34.3 25.6 34.3 26.8 34.3 28.5 C 34.3 30.6 34.5 31.6 35.3 31.6 C 36.1 31.6 36.3 30.6 36.3 28.5 Z M 36.4 32.9 L 36.4 31.9 C 36.4 31.9 36.38 31.91 36.4 31.9 C 35.9 32.7 35.3 33 34.4 33 C 31.9 33 32 30.3 32 28.5 C 32 26.8 31.9 24.1 34.3 24.1 C 35.2 24.1 35.8 24.4 36.3 25.1 C 36.26 25.09 36.3 25.1 36.3 25.1 L 36.3 20.6 L 38.7 20.6 L 38.7 32.9 L 36.4 32.9 Z M 48.8 28.3 C 48.8 26.5 48.7 25.6 47.7 25.6 C 46.7 25.6 46.6 26.5 46.6 28.3 C 46.6 30.9 46.8 31.5 47.7 31.5 C 48.6 31.5 48.8 30.9 48.8 28.3 Z M 44.2 28.5 C 44.2 26.1 44.5 24.1 47.7 24.1 C 50.9 24.1 51.2 26.1 51.2 28.5 C 51.2 31.1 50.8 33 47.7 33 C 44.6 33 44.2 31.1 44.2 28.5 Z M 55.3 25.1 C 55.3 25.1 55.33 25.14 55.3 25.1 C 55.6 24.8 55.9 24.5 56.2 24.3 C 56.5 24.2 56.9 24.1 57.4 24.1 C 58.5 24.1 59.5 24.8 59.5 26 C 59.5 25.97 59.5 32.9 59.5 32.9 L 57.1 32.9 C 57.1 32.9 57.1 26.94 57.1 26.9 C 57.1 26.2 57 25.6 56.2 25.6 C 55.4 25.6 55.3 26.2 55.3 26.9 C 55.3 26.94 55.3 32.9 55.3 32.9 L 52.9 32.9 L 52.9 24.3 L 55.3 24.3 L 55.3 25.1 Z M 63.3 30.1 C 63.3 30.5 63.3 30.9 63.4 31.1 C 63.5 31.4 63.8 31.6 64.3 31.6 C 64.8 31.6 65.2 31.2 65.2 30.7 C 65.2 28.8 60.9 29.3 60.9 26.5 C 60.9 24.7 62.8 24.1 64.3 24.1 C 66 24.1 67.4 24.9 67.3 26.7 C 67.3 26.7 65 26.7 65 26.7 C 65 26.1 64.9 25.8 64.7 25.6 C 64.6 25.5 64.4 25.4 64.1 25.4 C 63.6 25.4 63.3 25.8 63.3 26.4 C 63.3 27.7 67.5 27.7 67.5 30.4 C 67.5 31.9 66.3 33 64.3 33 C 62.2 33 60.8 32.5 60.9 30.1 C 60.9 30.1 63.3 30.1 63.3 30.1 Z M 73.4 27.6 C 73.4 26.8 73.4 25.6 72.2 25.6 C 71.1 25.6 71.2 26.9 71.2 27.6 C 71.2 27.6 73.4 27.6 73.4 27.6 Z M 71.2 28.9 C 71.2 30 71.2 31.5 72.2 31.5 C 73.1 31.5 73.3 30.7 73.3 30 C 73.3 30 75.7 30 75.7 30 C 75.7 30.9 75.4 31.7 74.8 32.2 C 74.2 32.7 73.4 33 72.2 33 C 69.2 33 68.7 31.1 68.7 28.5 C 68.7 26.1 69.1 24.1 72.2 24.1 C 75.5 24.1 75.8 26.2 75.8 28.9 C 75.8 28.9 71.2 28.9 71.2 28.9 Z M 76.5 24.3 L 77.5 24.3 L 77.5 22.9 L 79.8 21.8 L 79.8 24.3 L 81.1 24.3 L 81.1 25.8 L 79.8 25.8 C 79.8 25.8 79.85 30.34 79.8 30.3 C 79.8 31 79.8 31.4 80.6 31.4 C 80.8 31.4 80.9 31.4 81 31.4 C 81 31.4 81 32.9 81 32.9 C 80.7 32.9 80.4 32.9 79.8 32.9 C 77.7 32.9 77.5 31.6 77.5 31 C 77.45 31.04 77.5 25.8 77.5 25.8 L 76.5 25.8 L 76.5 24.3 Z M 84.1 24.3 L 84.1 26.5 L 82.1 26.5 L 82.1 24.3 L 84.1 24.3 Z M 84.1 32.9 L 82.1 32.9 L 82.1 30.6 L 84.1 30.6 L 84.1 32.9 Z M 89 24.3 L 91.3 24.3 L 92.5 30.7 L 92.5 30.7 L 94.2 24.3 L 96.7 24.3 L 98.2 30.7 L 98.2 30.7 L 99.5 24.3 L 101.8 24.3 L 99.5 32.9 L 97 32.9 L 95.4 27 L 95.4 27 L 93.7 32.9 L 91.1 32.9 L 89 24.3 Z M 107.4 28.3 C 107.4 26.5 107.3 25.6 106.2 25.6 C 105.2 25.6 105.1 26.5 105.1 28.3 C 105.1 30.9 105.4 31.5 106.2 31.5 C 107.1 31.5 107.4 30.9 107.4 28.3 Z M 102.7 28.5 C 102.7 26.1 103.1 24.1 106.2 24.1 C 109.4 24.1 109.8 26.1 109.8 28.5 C 109.8 31.1 109.3 33 106.2 33 C 103.2 33 102.7 31.1 102.7 28.5 Z M 113.7 24.3 L 113.7 25.4 C 113.7 25.4 113.76 25.38 113.8 25.4 C 114.2 24.4 115 24.1 116 24.1 C 116 24.1 116 26.2 116 26.2 C 113.9 26.1 113.8 27.3 113.8 28.2 C 113.85 28.18 113.8 32.9 113.8 32.9 L 111.5 32.9 L 111.5 24.3 L 113.7 24.3 Z M 117.1 32.9 L 117.1 20.6 L 119.5 20.6 L 119.5 27.9 L 119.5 27.9 L 121.7 24.3 L 124.1 24.3 L 121.7 28.1 L 124.4 32.9 L 121.7 32.9 L 119.5 28.2 L 119.5 28.2 L 119.5 32.9 L 117.1 32.9 Z M 127.5 30.1 C 127.5 30.5 127.5 30.9 127.6 31.1 C 127.8 31.4 128 31.6 128.5 31.6 C 129 31.6 129.4 31.2 129.4 30.7 C 129.4 28.8 125.2 29.3 125.2 26.5 C 125.2 24.7 127 24.1 128.5 24.1 C 130.2 24.1 131.6 24.9 131.5 26.7 C 131.5 26.7 129.2 26.7 129.2 26.7 C 129.2 26.1 129.1 25.8 128.9 25.6 C 128.8 25.5 128.6 25.4 128.3 25.4 C 127.8 25.4 127.5 25.8 127.5 26.4 C 127.5 27.7 131.7 27.7 131.7 30.4 C 131.7 31.9 130.5 33 128.5 33 C 126.4 33 125 32.5 125.2 30.1 C 125.2 30.1 127.5 30.1 127.5 30.1 Z M 139 30.2 C 139 30.8 139.1 31.6 139.9 31.6 C 141.3 31.6 141.1 29.6 141.1 28.7 C 139.9 28.8 139 28.7 139 30.2 Z M 143.4 31.3 C 143.4 31.8 143.5 32.3 143.6 32.9 C 143.56 32.86 141.3 32.9 141.3 32.9 L 141.2 31.7 C 141.2 31.7 141.2 31.72 141.2 31.7 C 140.7 32.6 140 33 139 33 C 137.3 33 136.7 31.8 136.7 30.3 C 136.7 27.5 138.9 27.3 141.1 27.4 C 141.1 27.4 141.1 26.7 141.1 26.7 C 141.1 26 141 25.4 140.1 25.4 C 139.3 25.4 139.2 26.1 139.2 26.8 C 139.2 26.8 136.9 26.8 136.9 26.8 C 136.9 25.7 137.2 25.1 137.8 24.7 C 138.3 24.3 139.1 24.1 140 24.1 C 143.1 24.1 143.4 25.4 143.4 27 C 143.4 27 143.4 31.3 143.4 31.3 Z M 148 20.6 L 148 32.9 L 145.6 32.9 L 145.6 20.6 L 148 20.6 Z M 152.4 24.3 L 152.4 25.4 C 152.4 25.4 152.47 25.38 152.5 25.4 C 152.9 24.4 153.7 24.1 154.7 24.1 C 154.7 24.1 154.7 26.2 154.7 26.2 C 152.6 26.1 152.6 27.3 152.6 28.2 C 152.56 28.18 152.6 32.9 152.6 32.9 L 150.2 32.9 L 150.2 24.3 L 152.4 24.3 Z M 160.2 27.6 C 160.2 26.8 160.3 25.6 159.1 25.6 C 158 25.6 158 26.9 158 27.6 C 158 27.6 160.2 27.6 160.2 27.6 Z M 158 28.9 C 158 30 158.1 31.5 159.1 31.5 C 160 31.5 160.1 30.7 160.1 30 C 160.1 30 162.6 30 162.6 30 C 162.5 30.9 162.2 31.7 161.7 32.2 C 161.1 32.7 160.2 33 159.1 33 C 156 33 155.6 31.1 155.6 28.5 C 155.6 26.1 156 24.1 159.1 24.1 C 162.3 24.1 162.7 26.2 162.6 28.9 C 162.6 28.9 158 28.9 158 28.9 Z M 166.4 30.2 C 166.4 30.8 166.5 31.6 167.3 31.6 C 168.7 31.6 168.5 29.6 168.5 28.7 C 167.3 28.8 166.4 28.7 166.4 30.2 Z M 170.8 31.3 C 170.8 31.8 170.9 32.3 171 32.9 C 170.95 32.86 168.7 32.9 168.7 32.9 L 168.6 31.7 C 168.6 31.7 168.59 31.72 168.6 31.7 C 168.1 32.6 167.4 33 166.3 33 C 164.7 33 164.1 31.8 164.1 30.3 C 164.1 27.5 166.3 27.3 168.5 27.4 C 168.5 27.4 168.5 26.7 168.5 26.7 C 168.5 26 168.4 25.4 167.5 25.4 C 166.7 25.4 166.6 26.1 166.6 26.8 C 166.6 26.8 164.3 26.8 164.3 26.8 C 164.3 25.7 164.6 25.1 165.2 24.7 C 165.7 24.3 166.5 24.1 167.4 24.1 C 170.4 24.1 170.8 25.4 170.8 27 C 170.8 27 170.8 31.3 170.8 31.3 Z M 177 28.5 C 177 26.8 177 25.6 176 25.6 C 175 25.6 175 26.8 175 28.5 C 175 30.6 175.1 31.6 176 31.6 C 176.8 31.6 177 30.6 177 28.5 Z M 177.1 32.9 L 177.1 31.9 C 177.1 31.9 177.07 31.91 177.1 31.9 C 176.6 32.7 176 33 175 33 C 172.6 33 172.7 30.3 172.7 28.5 C 172.7 26.8 172.6 24.1 175 24.1 C 175.9 24.1 176.5 24.4 177 25.1 C 176.95 25.09 177 25.1 177 25.1 L 177 20.6 L 179.4 20.6 L 179.4 32.9 L 177.1 32.9 Z M 182.9 32.9 L 180.5 24.3 L 182.9 24.3 L 184.1 30.3 L 184.2 30.3 L 185.5 24.3 L 187.8 24.3 L 184.4 36.1 L 181.9 36.1 L 182.9 32.9 Z M 194.7 30.2 C 194.7 30.8 194.8 31.6 195.6 31.6 C 197 31.6 196.8 29.6 196.8 28.7 C 195.6 28.8 194.7 28.7 194.7 30.2 Z M 199.2 31.3 C 199.2 31.8 199.2 32.3 199.3 32.9 C 199.27 32.86 197 32.9 197 32.9 L 196.9 31.7 C 196.9 31.7 196.91 31.72 196.9 31.7 C 196.4 32.6 195.7 33 194.7 33 C 193 33 192.4 31.8 192.4 30.3 C 192.4 27.5 194.6 27.3 196.8 27.4 C 196.8 27.4 196.8 26.7 196.8 26.7 C 196.8 26 196.7 25.4 195.8 25.4 C 195 25.4 194.9 26.1 194.9 26.8 C 194.9 26.8 192.6 26.8 192.6 26.8 C 192.6 25.7 192.9 25.1 193.5 24.7 C 194 24.3 194.8 24.1 195.7 24.1 C 198.8 24.1 199.2 25.4 199.2 27 C 199.2 27 199.2 31.3 199.2 31.3 Z M 204.8 22.1 C 203.9 22 203.7 22.4 203.7 23.2 C 203.66 23.24 203.7 24.3 203.7 24.3 L 204.8 24.3 L 204.8 25.8 L 203.7 25.8 L 203.7 32.9 L 201.3 32.9 L 201.3 25.8 L 200.2 25.8 L 200.2 24.3 C 200.2 24.3 201.28 24.27 201.3 24.3 C 201.3 21.8 201.1 20.5 204 20.5 C 204.3 20.5 204.5 20.5 204.8 20.5 C 204.8 20.5 204.8 22.1 204.8 22.1 Z M 204.9 24.3 L 205.9 24.3 L 205.9 22.9 L 208.3 21.8 L 208.3 24.3 L 209.5 24.3 L 209.5 25.8 L 208.3 25.8 C 208.3 25.8 208.26 30.34 208.3 30.3 C 208.3 31 208.2 31.4 209 31.4 C 209.2 31.4 209.3 31.4 209.5 31.4 C 209.5 31.4 209.5 32.9 209.5 32.9 C 209.1 32.9 208.8 32.9 208.2 32.9 C 206.1 32.9 205.9 31.6 205.9 31 C 205.87 31.04 205.9 25.8 205.9 25.8 L 204.9 25.8 L 204.9 24.3 Z M 215 27.6 C 215 26.8 215 25.6 213.9 25.6 C 212.8 25.6 212.8 26.9 212.8 27.6 C 212.8 27.6 215 27.6 215 27.6 Z M 212.8 28.9 C 212.8 30 212.8 31.5 213.9 31.5 C 214.7 31.5 214.9 30.7 214.9 30 C 214.9 30 217.3 30 217.3 30 C 217.3 30.9 217 31.7 216.4 32.2 C 215.9 32.7 215 33 213.9 33 C 210.8 33 210.4 31.1 210.4 28.5 C 210.4 26.1 210.7 24.1 213.9 24.1 C 217.1 24.1 217.5 26.2 217.4 28.9 C 217.4 28.9 212.8 28.9 212.8 28.9 Z M 221.4 24.3 L 221.4 25.4 C 221.4 25.4 221.41 25.38 221.4 25.4 C 221.8 24.4 222.7 24.1 223.6 24.1 C 223.6 24.1 223.6 26.2 223.6 26.2 C 221.5 26.1 221.5 27.3 221.5 28.2 C 221.49 28.18 221.5 32.9 221.5 32.9 L 219.1 32.9 L 219.1 24.3 L 221.4 24.3 Z M 227.6 24.3 L 228.5 24.3 L 228.5 22.9 L 230.9 21.8 L 230.9 24.3 L 232.2 24.3 L 232.2 25.8 L 230.9 25.8 C 230.9 25.8 230.93 30.34 230.9 30.3 C 230.9 31 230.9 31.4 231.7 31.4 C 231.8 31.4 232 31.4 232.1 31.4 C 232.1 31.4 232.1 32.9 232.1 32.9 C 231.8 32.9 231.5 32.9 230.9 32.9 C 228.8 32.9 228.5 31.6 228.5 31 C 228.53 31.04 228.5 25.8 228.5 25.8 L 227.6 25.8 L 227.6 24.3 Z M 237.5 32.9 C 237.5 32.9 237.45 26.94 237.5 26.9 C 237.5 26.2 237.3 25.6 236.6 25.6 C 235.8 25.6 235.7 26.2 235.7 26.9 C 235.65 26.94 235.7 32.9 235.7 32.9 L 233.3 32.9 L 233.3 20.6 L 235.7 20.6 L 235.7 25.1 C 235.7 25.1 235.69 25.14 235.7 25.1 C 235.9 24.8 236.2 24.5 236.5 24.3 C 236.9 24.2 237.3 24.1 237.7 24.1 C 238.8 24.1 239.9 24.8 239.9 26 C 239.85 25.97 239.9 32.9 239.9 32.9 L 237.5 32.9 Z M 246.2 27.6 C 246.2 26.8 246.2 25.6 245.1 25.6 C 243.9 25.6 244 26.9 244 27.6 C 244 27.6 246.2 27.6 246.2 27.6 Z M 244 28.9 C 244 30 244 31.5 245.1 31.5 C 245.9 31.5 246.1 30.7 246.1 30 C 246.1 30 248.5 30 248.5 30 C 248.5 30.9 248.2 31.7 247.6 32.2 C 247 32.7 246.2 33 245.1 33 C 242 33 241.6 31.1 241.6 28.5 C 241.6 26.1 241.9 24.1 245.1 24.1 C 248.3 24.1 248.6 26.2 248.6 28.9 C 248.6 28.9 244 28.9 244 28.9 Z M 257.7 22.1 C 256.7 22 256.5 22.4 256.5 23.2 C 256.54 23.24 256.5 24.3 256.5 24.3 L 257.7 24.3 L 257.7 25.8 L 256.5 25.8 L 256.5 32.9 L 254.1 32.9 L 254.1 25.8 L 253.1 25.8 L 253.1 24.3 C 253.1 24.3 254.16 24.27 254.2 24.3 C 254.1 21.8 253.9 20.5 256.9 20.5 C 257.2 20.5 257.4 20.5 257.7 20.5 C 257.7 20.5 257.7 22.1 257.7 22.1 Z M 261.4 32.9 L 259 32.9 L 259 24.3 L 261.4 24.3 L 261.4 32.9 Z M 261.4 20.6 L 261.4 22.5 L 259 22.5 L 259 20.6 L 261.4 20.6 Z M 265.8 24.3 L 265.8 25.4 C 265.8 25.4 265.79 25.38 265.8 25.4 C 266.2 24.4 267.1 24.1 268 24.1 C 268 24.1 268 26.2 268 26.2 C 265.9 26.1 265.9 27.3 265.9 28.2 C 265.88 28.18 265.9 32.9 265.9 32.9 L 263.5 32.9 L 263.5 24.3 L 265.8 24.3 Z M 271 30.1 C 271 30.5 271 30.9 271.1 31.1 C 271.3 31.4 271.5 31.6 272 31.6 C 272.5 31.6 272.9 31.2 272.9 30.7 C 272.9 28.8 268.7 29.3 268.7 26.5 C 268.7 24.7 270.5 24.1 272.1 24.1 C 273.7 24.1 275.2 24.9 275 26.7 C 275 26.7 272.7 26.7 272.7 26.7 C 272.7 26.1 272.6 25.8 272.5 25.6 C 272.3 25.5 272.1 25.4 271.8 25.4 C 271.3 25.4 271 25.8 271 26.4 C 271 27.7 275.2 27.7 275.2 30.4 C 275.2 31.9 274 33 272 33 C 269.9 33 268.5 32.5 268.7 30.1 C 268.7 30.1 271 30.1 271 30.1 Z M 275.7 24.3 L 276.7 24.3 L 276.7 22.9 L 279.1 21.8 L 279.1 24.3 L 280.3 24.3 L 280.3 25.8 L 279.1 25.8 C 279.1 25.8 279.09 30.34 279.1 30.3 C 279.1 31 279.1 31.4 279.9 31.4 C 280 31.4 280.2 31.4 280.3 31.4 C 280.3 31.4 280.3 32.9 280.3 32.9 C 280 32.9 279.6 32.9 279 32.9 C 277 32.9 276.7 31.6 276.7 31 C 276.69 31.04 276.7 25.8 276.7 25.8 L 275.7 25.8 L 275.7 24.3 Z M 289.4 28.5 C 289.4 26.8 289.4 25.6 288.4 25.6 C 287.3 25.6 287.4 26.8 287.4 28.5 C 287.4 30.6 287.5 31.6 288.4 31.6 C 289.2 31.6 289.4 30.6 289.4 28.5 Z M 289.5 32.9 L 289.5 31.9 C 289.5 31.9 289.44 31.91 289.4 31.9 C 289 32.7 288.3 33 287.4 33 C 284.9 33 285 30.3 285 28.5 C 285 26.8 285 24.1 287.4 24.1 C 288.2 24.1 288.8 24.4 289.3 25.1 C 289.32 25.09 289.4 25.1 289.4 25.1 L 289.4 20.6 L 291.8 20.6 L 291.8 32.9 L 289.5 32.9 Z M 298.1 28.3 C 298.1 26.5 298 25.6 297 25.6 C 296 25.6 295.9 26.5 295.9 28.3 C 295.9 30.9 296.1 31.5 297 31.5 C 297.9 31.5 298.1 30.9 298.1 28.3 Z M 293.5 28.5 C 293.5 26.1 293.8 24.1 297 24.1 C 300.1 24.1 300.5 26.1 300.5 28.5 C 300.5 31.1 300.1 33 297 33 C 293.9 33 293.5 31.1 293.5 28.5 Z M 304.1 30.1 C 304.1 30.5 304.1 30.9 304.2 31.1 C 304.3 31.4 304.6 31.6 305.1 31.6 C 305.5 31.6 305.9 31.2 305.9 30.7 C 305.9 28.8 301.7 29.3 301.7 26.5 C 301.7 24.7 303.6 24.1 305.1 24.1 C 306.7 24.1 308.2 24.9 308.1 26.7 C 308.1 26.7 305.7 26.7 305.7 26.7 C 305.7 26.1 305.7 25.8 305.5 25.6 C 305.4 25.5 305.1 25.4 304.9 25.4 C 304.4 25.4 304.1 25.8 304.1 26.4 C 304.1 27.7 308.3 27.7 308.3 30.4 C 308.3 31.9 307.1 33 305.1 33 C 303 33 301.6 32.5 301.7 30.1 C 301.7 30.1 304.1 30.1 304.1 30.1 Z M 314.1 27.6 C 314.1 26.8 314.2 25.6 313 25.6 C 311.9 25.6 311.9 26.9 311.9 27.6 C 311.9 27.6 314.1 27.6 314.1 27.6 Z M 311.9 28.9 C 311.9 30 312 31.5 313 31.5 C 313.9 31.5 314.1 30.7 314.1 30 C 314.1 30 316.5 30 316.5 30 C 316.5 30.9 316.1 31.7 315.6 32.2 C 315 32.7 314.2 33 313 33 C 309.9 33 309.5 31.1 309.5 28.5 C 309.5 26.1 309.9 24.1 313 24.1 C 316.3 24.1 316.6 26.2 316.5 28.9 C 316.5 28.9 311.9 28.9 311.9 28.9 Z M 317.4 27.2 C 317.4 27.2 317.4 25.98 317.4 26 C 319.6 23.1 320 22.7 320 21.9 C 320 21.5 319.9 21.2 319.5 21.2 C 318.9 21.2 318.9 21.7 318.9 22.2 C 318.9 22.2 317.5 22.2 317.5 22.2 C 317.4 20.9 318.1 20.2 319.4 20.2 C 320.6 20.2 321.4 20.7 321.4 22 C 321.4 23.5 319.6 25.3 318.9 26.1 C 318.87 26.13 321.5 26.1 321.5 26.1 L 321.5 27.2 L 317.4 27.2 Z " stroke="none" fill="#003c71"/>  </g></svg>