<?xml version="1.0" standalone="no"?><!DOCTYPE svg PUBLIC "-//W3C//DTD SVG 1.1//EN" "http://www.w3.org/Graphics/SVG/1.1/DTD/svg11.dtd"><svg xmlns="http://www.w3.org/2000/svg" version="1.1" width="176.2px" height="105.7px" viewBox="0 0 176.2 105.7">  <desc>May affect the ability to socialize in meaningful ways1,3</desc>  <defs/>  <g id="Polygon197285">    <path d="M 64.5 59.5 L 66.9 59.5 L 68 66 L 68.1 66 L 69.7 59.5 L 72.2 59.5 L 73.7 66 L 73.7 66 L 75 59.5 L 77.3 59.5 L 75 68.1 L 72.5 68.1 L 70.9 62.2 L 70.9 62.2 L 69.2 68.1 L 66.6 68.1 L 64.5 59.5 Z M 80.6 65.4 C 80.6 66.1 80.7 66.8 81.4 66.8 C 82.9 66.8 82.6 64.9 82.6 64 C 81.4 64 80.6 63.9 80.6 65.4 Z M 85 66.5 C 85 67 85.1 67.6 85.1 68.1 C 85.1 68.11 82.9 68.1 82.9 68.1 L 82.8 67 C 82.8 67 82.74 66.97 82.7 67 C 82.2 67.9 81.5 68.3 80.5 68.3 C 78.8 68.3 78.2 67 78.2 65.5 C 78.2 62.7 80.4 62.6 82.6 62.6 C 82.6 62.6 82.6 62 82.6 62 C 82.6 61.2 82.5 60.7 81.7 60.7 C 80.8 60.7 80.8 61.3 80.8 62 C 80.8 62 78.4 62 78.4 62 C 78.4 61 78.7 60.3 79.3 59.9 C 79.9 59.5 80.6 59.4 81.6 59.4 C 84.6 59.4 85 60.7 85 62.2 C 85 62.2 85 66.5 85 66.5 Z M 88.5 68.2 L 86.2 59.5 L 88.6 59.5 L 89.8 65.6 L 89.8 65.6 L 91.1 59.5 L 93.4 59.5 L 90.1 71.4 L 87.6 71.4 L 88.5 68.2 Z M 96.4 65.4 C 96.4 65.7 96.4 66.1 96.5 66.4 C 96.7 66.7 96.9 66.8 97.4 66.8 C 97.9 66.8 98.3 66.5 98.3 65.9 C 98.3 64.1 94.1 64.5 94.1 61.8 C 94.1 59.9 95.9 59.4 97.4 59.4 C 99.1 59.4 100.6 60.1 100.4 62 C 100.4 62 98.1 62 98.1 62 C 98.1 61.4 98 61 97.8 60.9 C 97.7 60.7 97.5 60.7 97.2 60.7 C 96.7 60.7 96.4 61 96.4 61.6 C 96.4 63 100.6 62.9 100.6 65.7 C 100.6 67.2 99.4 68.3 97.4 68.3 C 95.3 68.3 93.9 67.8 94.1 65.4 C 94.1 65.4 96.4 65.4 96.4 65.4 Z M 101.6 56.6 C 102.1 56.3 102.6 56 102.9 55.5 C 102.94 55.53 104.3 55.5 104.3 55.5 L 104.3 62.4 L 102.8 62.4 C 102.8 62.4 102.77 57.13 102.8 57.1 C 102.4 57.4 102 57.7 101.6 57.9 C 101.6 57.9 101.6 56.6 101.6 56.6 Z M 106.1 61.1 L 107.4 61.1 L 106.6 63.4 L 105.7 63.4 L 106.1 61.1 Z M 107.7 57.3 C 107.7 56.5 107.9 56.1 108.2 55.8 C 108.5 55.5 109 55.4 109.7 55.4 C 111 55.4 111.6 56 111.6 57.3 C 111.6 57.9 111.4 58.7 110.7 58.8 C 110.7 58.8 110.7 58.8 110.7 58.8 C 111.6 59 111.7 59.7 111.7 60.5 C 111.7 62 110.9 62.5 109.5 62.5 C 108.2 62.5 107.6 62.1 107.6 60.6 C 107.6 60.6 109 60.6 109 60.6 C 109 61 109 61.5 109.6 61.5 C 110.3 61.5 110.3 60.9 110.3 60.5 C 110.3 59.5 110 59.4 109 59.4 C 109 59.4 109 58.3 109 58.3 C 109.9 58.3 110.2 58.2 110.2 57.3 C 110.2 56.9 110.1 56.5 109.7 56.5 C 109.2 56.5 109.1 56.9 109.1 57.3 C 109.1 57.3 107.7 57.3 107.7 57.3 Z " stroke="none" fill="#003c71"/>  </g>  <g id="Polygon197284">    <path d="M 10.7 45 C 10.6 45.3 10.7 45.7 10.8 46 C 10.9 46.3 11.2 46.4 11.7 46.4 C 12.1 46.4 12.5 46.1 12.5 45.5 C 12.5 43.7 8.3 44.1 8.3 41.4 C 8.3 39.5 10.2 39 11.7 39 C 13.3 39 14.8 39.7 14.7 41.6 C 14.7 41.6 12.3 41.6 12.3 41.6 C 12.3 41 12.3 40.6 12.1 40.5 C 11.9 40.3 11.7 40.3 11.5 40.3 C 11 40.3 10.7 40.6 10.7 41.2 C 10.7 42.6 14.9 42.5 14.9 45.3 C 14.9 46.8 13.7 47.9 11.7 47.9 C 9.6 47.9 8.2 47.4 8.3 45 C 8.3 45 10.7 45 10.7 45 Z M 20.7 43.2 C 20.7 41.4 20.6 40.5 19.6 40.5 C 18.6 40.5 18.5 41.4 18.5 43.2 C 18.5 45.8 18.7 46.3 19.6 46.3 C 20.5 46.3 20.7 45.8 20.7 43.2 Z M 16.1 43.3 C 16.1 41 16.5 39 19.6 39 C 22.8 39 23.1 41 23.1 43.3 C 23.1 46 22.7 47.9 19.6 47.9 C 16.5 47.9 16.1 46 16.1 43.3 Z M 29.2 42.2 C 29.2 40.9 28.9 40.5 28.1 40.5 C 27.1 40.5 27 41.4 27 43.2 C 27 45.8 27.2 46.3 28.1 46.3 C 28.9 46.3 29.2 45.7 29.2 44.5 C 29.2 44.5 31.6 44.5 31.6 44.5 C 31.6 46.9 30.4 47.9 28.1 47.9 C 25 47.9 24.6 46 24.6 43.3 C 24.6 41 25 39 28.1 39 C 30.3 39 31.6 39.9 31.6 42.2 C 31.6 42.2 29.2 42.2 29.2 42.2 Z M 35.9 47.7 L 33.5 47.7 L 33.5 39.1 L 35.9 39.1 L 35.9 47.7 Z M 35.9 35.4 L 35.9 37.3 L 33.5 37.3 L 33.5 35.4 L 35.9 35.4 Z M 40.1 45 C 40.1 45.7 40.2 46.4 41 46.4 C 42.4 46.4 42.2 44.5 42.2 43.6 C 41 43.6 40.1 43.5 40.1 45 Z M 44.6 46.1 C 44.6 46.6 44.6 47.2 44.7 47.7 C 44.68 47.71 42.5 47.7 42.5 47.7 L 42.4 46.6 C 42.4 46.6 42.32 46.57 42.3 46.6 C 41.8 47.5 41.1 47.9 40.1 47.9 C 38.4 47.9 37.8 46.6 37.8 45.1 C 37.8 42.3 40 42.2 42.2 42.2 C 42.2 42.2 42.2 41.6 42.2 41.6 C 42.2 40.8 42.1 40.3 41.2 40.3 C 40.4 40.3 40.3 40.9 40.3 41.6 C 40.3 41.6 38 41.6 38 41.6 C 38 40.6 38.3 39.9 38.9 39.5 C 39.4 39.1 40.2 39 41.1 39 C 44.2 39 44.6 40.3 44.6 41.8 C 44.6 41.8 44.6 46.1 44.6 46.1 Z M 49.2 35.4 L 49.2 47.7 L 46.8 47.7 L 46.8 35.4 L 49.2 35.4 Z M 53.9 47.7 L 51.5 47.7 L 51.5 39.1 L 53.9 39.1 L 53.9 47.7 Z M 53.9 35.4 L 53.9 37.3 L 51.5 37.3 L 51.5 35.4 L 53.9 35.4 Z M 61.2 40.8 L 57.8 46.2 L 61.3 46.2 L 61.3 47.7 L 55.4 47.7 L 55.4 46 L 58.8 40.7 L 55.6 40.7 L 55.6 39.1 L 61.2 39.1 L 61.2 40.8 Z M 67 42.5 C 67 41.6 67.1 40.4 65.9 40.4 C 64.8 40.4 64.8 41.7 64.8 42.5 C 64.8 42.5 67 42.5 67 42.5 Z M 64.8 43.8 C 64.8 44.8 64.9 46.3 65.9 46.3 C 66.8 46.3 66.9 45.5 66.9 44.8 C 66.9 44.8 69.4 44.8 69.4 44.8 C 69.3 45.8 69 46.5 68.4 47 C 67.9 47.6 67 47.9 65.9 47.9 C 62.8 47.9 62.4 46 62.4 43.3 C 62.4 41 62.8 39 65.9 39 C 69.1 39 69.5 41 69.4 43.8 C 69.4 43.8 64.8 43.8 64.8 43.8 Z M 77.5 47.7 L 75.1 47.7 L 75.1 39.1 L 77.5 39.1 L 77.5 47.7 Z M 77.5 35.4 L 77.5 37.3 L 75.1 37.3 L 75.1 35.4 L 77.5 35.4 Z M 82 40 C 82 40 82.05 39.99 82 40 C 82.3 39.6 82.6 39.3 82.9 39.2 C 83.2 39 83.6 39 84.1 39 C 85.2 39 86.2 39.6 86.2 40.8 C 86.21 40.82 86.2 47.7 86.2 47.7 L 83.8 47.7 C 83.8 47.7 83.82 41.79 83.8 41.8 C 83.8 41 83.7 40.4 82.9 40.4 C 82.2 40.4 82 41 82 41.8 C 82.01 41.79 82 47.7 82 47.7 L 79.6 47.7 L 79.6 39.1 L 82 39.1 L 82 40 Z M 94.1 40 C 94.1 40 94.13 39.99 94.1 40 C 94.6 39.2 95.3 39 96.2 39 C 97 39 97.7 39.4 98.1 40 C 98.6 39.3 99.3 39 100.3 39 C 101.4 39 102.4 39.6 102.4 40.8 C 102.45 40.82 102.4 47.7 102.4 47.7 L 100.1 47.7 C 100.1 47.7 100.05 41.79 100.1 41.8 C 100.1 41 99.9 40.4 99.1 40.4 C 98.4 40.4 98.2 41 98.2 41.8 C 98.25 41.79 98.2 47.7 98.2 47.7 L 95.9 47.7 C 95.9 47.7 95.9 41.79 95.9 41.8 C 95.9 41 95.8 40.4 95 40.4 C 94.2 40.4 94.1 41 94.1 41.8 C 94.1 41.79 94.1 47.7 94.1 47.7 L 91.7 47.7 L 91.7 39.1 L 94.1 39.1 L 94.1 40 Z M 108.6 42.5 C 108.6 41.6 108.6 40.4 107.5 40.4 C 106.4 40.4 106.4 41.7 106.4 42.5 C 106.4 42.5 108.6 42.5 108.6 42.5 Z M 106.4 43.8 C 106.4 44.8 106.4 46.3 107.5 46.3 C 108.3 46.3 108.5 45.5 108.5 44.8 C 108.5 44.8 110.9 44.8 110.9 44.8 C 110.9 45.8 110.6 46.5 110 47 C 109.4 47.6 108.6 47.9 107.5 47.9 C 104.4 47.9 104 46 104 43.3 C 104 41 104.3 39 107.5 39 C 110.7 39 111 41 111 43.8 C 111 43.8 106.4 43.8 106.4 43.8 Z M 114.8 45 C 114.8 45.7 114.9 46.4 115.6 46.4 C 117.1 46.4 116.8 44.5 116.8 43.6 C 115.6 43.6 114.8 43.5 114.8 45 Z M 119.2 46.1 C 119.2 46.6 119.2 47.2 119.3 47.7 C 119.29 47.71 117.1 47.7 117.1 47.7 L 117 46.6 C 117 46.6 116.93 46.57 116.9 46.6 C 116.4 47.5 115.7 47.9 114.7 47.9 C 113 47.9 112.4 46.6 112.4 45.1 C 112.4 42.3 114.6 42.2 116.8 42.2 C 116.8 42.2 116.8 41.6 116.8 41.6 C 116.8 40.8 116.7 40.3 115.9 40.3 C 115 40.3 115 40.9 115 41.6 C 115 41.6 112.6 41.6 112.6 41.6 C 112.6 40.6 112.9 39.9 113.5 39.5 C 114 39.1 114.8 39 115.7 39 C 118.8 39 119.2 40.3 119.2 41.8 C 119.2 41.8 119.2 46.1 119.2 46.1 Z M 123.6 40 C 123.6 40 123.6 39.99 123.6 40 C 123.8 39.6 124.1 39.3 124.4 39.2 C 124.8 39 125.2 39 125.6 39 C 126.8 39 127.8 39.6 127.8 40.8 C 127.76 40.82 127.8 47.7 127.8 47.7 L 125.4 47.7 C 125.4 47.7 125.36 41.79 125.4 41.8 C 125.4 41 125.2 40.4 124.5 40.4 C 123.7 40.4 123.6 41 123.6 41.8 C 123.56 41.79 123.6 47.7 123.6 47.7 L 121.2 47.7 L 121.2 39.1 L 123.6 39.1 L 123.6 40 Z M 132.3 47.7 L 129.9 47.7 L 129.9 39.1 L 132.3 39.1 L 132.3 47.7 Z M 132.3 35.4 L 132.3 37.3 L 129.9 37.3 L 129.9 35.4 L 132.3 35.4 Z M 136.8 40 C 136.8 40 136.82 39.99 136.8 40 C 137.1 39.6 137.3 39.3 137.7 39.2 C 138 39 138.4 39 138.8 39 C 140 39 141 39.6 141 40.8 C 140.99 40.82 141 47.7 141 47.7 L 138.6 47.7 C 138.6 47.7 138.59 41.79 138.6 41.8 C 138.6 41 138.5 40.4 137.7 40.4 C 136.9 40.4 136.8 41 136.8 41.8 C 136.79 41.79 136.8 47.7 136.8 47.7 L 134.4 47.7 L 134.4 39.1 L 136.8 39.1 L 136.8 40 Z M 146.1 46.1 C 146.9 46.1 147.1 45.2 147.1 43.4 C 147.1 41.5 147 40.4 146.1 40.4 C 145.2 40.4 145 41.1 145 43.7 C 145 44.5 144.9 46.1 146.1 46.1 Z M 149.5 39.1 C 149.5 39.1 149.45 48.06 149.5 48.1 C 149.5 48.7 149.5 51 146.2 51 C 144.4 51 142.9 50.5 142.8 48.5 C 142.8 48.5 145.2 48.5 145.2 48.5 C 145.2 48.8 145.2 49.1 145.4 49.3 C 145.5 49.5 145.8 49.7 146.2 49.7 C 146.8 49.7 147.1 49.1 147.1 48.2 C 147.06 48.23 147.1 46.6 147.1 46.6 C 147.1 46.6 147.02 46.59 147 46.6 C 146.7 47.2 146 47.6 145.2 47.6 C 142.6 47.6 142.7 45.2 142.7 43.2 C 142.7 41.3 142.7 39 145.2 39 C 146.1 39 146.8 39.3 147.1 40.1 C 147.14 40.13 147.2 40.1 147.2 40.1 L 147.2 39.1 L 149.5 39.1 Z M 155.1 36.9 C 154.1 36.8 153.9 37.2 153.9 38.1 C 153.91 38.09 153.9 39.1 153.9 39.1 L 155 39.1 L 155 40.6 L 153.9 40.6 L 153.9 47.7 L 151.5 47.7 L 151.5 40.6 L 150.4 40.6 L 150.4 39.1 C 150.4 39.1 151.53 39.12 151.5 39.1 C 151.5 36.7 151.3 35.3 154.2 35.3 C 154.5 35.3 154.8 35.4 155.1 35.4 C 155.1 35.4 155.1 36.9 155.1 36.9 Z M 160.3 46.8 C 160.3 46.8 160.28 46.84 160.3 46.8 C 160 47.2 159.8 47.5 159.4 47.6 C 159.1 47.8 158.7 47.9 158.3 47.9 C 157.1 47.9 156.1 47.2 156.1 46 C 156.12 46.01 156.1 39.1 156.1 39.1 L 158.5 39.1 C 158.5 39.1 158.51 45.07 158.5 45.1 C 158.5 45.8 158.6 46.4 159.4 46.4 C 160.2 46.4 160.3 45.8 160.3 45.1 C 160.32 45.07 160.3 39.1 160.3 39.1 L 162.7 39.1 C 162.7 39.1 162.71 46.01 162.7 46 C 162.7 46.6 162.7 47.1 162.8 47.7 C 162.8 47.71 160.3 47.7 160.3 47.7 L 160.3 46.8 Z M 167.2 35.4 L 167.2 47.7 L 164.8 47.7 L 164.8 35.4 L 167.2 35.4 Z " stroke="none" fill="#003c71"/>  </g>  <g id="Polygon197283">    <path d="M 7.4 27.3 L 7.4 15 L 11.6 15 L 13.5 23.4 L 13.5 23.4 L 15.6 15 L 19.6 15 L 19.6 27.3 L 17.1 27.3 L 17.1 17.8 L 17 17.8 L 14.7 27.3 L 12.2 27.3 L 10 17.8 L 9.9 17.8 L 9.9 27.3 L 7.4 27.3 Z M 23.6 24.6 C 23.6 25.3 23.7 26 24.5 26 C 25.9 26 25.7 24.1 25.7 23.2 C 24.5 23.2 23.6 23.1 23.6 24.6 Z M 28 25.7 C 28 26.2 28.1 26.8 28.2 27.3 C 28.16 27.31 25.9 27.3 25.9 27.3 L 25.8 26.2 C 25.8 26.2 25.8 26.17 25.8 26.2 C 25.3 27.1 24.6 27.5 23.6 27.5 C 21.9 27.5 21.3 26.2 21.3 24.7 C 21.3 21.9 23.5 21.8 25.7 21.8 C 25.7 21.8 25.7 21.2 25.7 21.2 C 25.7 20.4 25.6 19.9 24.7 19.9 C 23.9 19.9 23.8 20.5 23.8 21.2 C 23.8 21.2 21.5 21.2 21.5 21.2 C 21.5 20.2 21.8 19.5 22.4 19.1 C 22.9 18.7 23.7 18.6 24.6 18.6 C 27.6 18.6 28 19.9 28 21.4 C 28 21.4 28 25.7 28 25.7 Z M 31.6 27.4 L 29.2 18.7 L 31.6 18.7 L 32.8 24.8 L 32.9 24.8 L 34.2 18.7 L 36.5 18.7 L 33.2 30.6 L 30.6 30.6 L 31.6 27.4 Z M 43.4 24.6 C 43.4 25.3 43.5 26 44.3 26 C 45.7 26 45.5 24.1 45.5 23.2 C 44.3 23.2 43.4 23.1 43.4 24.6 Z M 47.9 25.7 C 47.9 26.2 47.9 26.8 48 27.3 C 47.98 27.31 45.8 27.3 45.8 27.3 L 45.7 26.2 C 45.7 26.2 45.62 26.17 45.6 26.2 C 45.1 27.1 44.4 27.5 43.4 27.5 C 41.7 27.5 41.1 26.2 41.1 24.7 C 41.1 21.9 43.3 21.8 45.5 21.8 C 45.5 21.8 45.5 21.2 45.5 21.2 C 45.5 20.4 45.4 19.9 44.5 19.9 C 43.7 19.9 43.6 20.5 43.6 21.2 C 43.6 21.2 41.3 21.2 41.3 21.2 C 41.3 20.2 41.6 19.5 42.2 19.1 C 42.7 18.7 43.5 18.6 44.4 18.6 C 47.5 18.6 47.9 19.9 47.9 21.4 C 47.9 21.4 47.9 25.7 47.9 25.7 Z M 53.5 16.5 C 52.6 16.4 52.4 16.8 52.4 17.7 C 52.37 17.69 52.4 18.7 52.4 18.7 L 53.5 18.7 L 53.5 20.2 L 52.4 20.2 L 52.4 27.3 L 50 27.3 L 50 20.2 L 48.9 20.2 L 48.9 18.7 C 48.9 18.7 49.99 18.72 50 18.7 C 50 16.3 49.8 14.9 52.7 14.9 C 53 14.9 53.3 15 53.5 15 C 53.5 15 53.5 16.5 53.5 16.5 Z M 58.3 16.5 C 57.3 16.4 57.1 16.8 57.1 17.7 C 57.09 17.69 57.1 18.7 57.1 18.7 L 58.2 18.7 L 58.2 20.2 L 57.1 20.2 L 57.1 27.3 L 54.7 27.3 L 54.7 20.2 L 53.6 20.2 L 53.6 18.7 C 53.6 18.7 54.71 18.72 54.7 18.7 C 54.7 16.3 54.5 14.9 57.4 14.9 C 57.7 14.9 58 15 58.3 15 C 58.3 15 58.3 16.5 58.3 16.5 Z M 63.7 22.1 C 63.7 21.2 63.7 20 62.6 20 C 61.5 20 61.5 21.3 61.5 22.1 C 61.5 22.1 63.7 22.1 63.7 22.1 Z M 61.5 23.4 C 61.5 24.4 61.5 25.9 62.6 25.9 C 63.5 25.9 63.6 25.1 63.6 24.4 C 63.6 24.4 66.1 24.4 66.1 24.4 C 66 25.4 65.7 26.1 65.1 26.6 C 64.6 27.2 63.7 27.5 62.6 27.5 C 59.5 27.5 59.1 25.6 59.1 22.9 C 59.1 20.6 59.4 18.6 62.6 18.6 C 65.8 18.6 66.2 20.6 66.1 23.4 C 66.1 23.4 61.5 23.4 61.5 23.4 Z M 72.2 21.8 C 72.2 20.5 71.8 20.1 71.1 20.1 C 70.1 20.1 70 21 70 22.8 C 70 25.4 70.2 25.9 71.1 25.9 C 71.8 25.9 72.2 25.3 72.2 24.1 C 72.2 24.1 74.6 24.1 74.6 24.1 C 74.6 26.5 73.3 27.5 71.1 27.5 C 68 27.5 67.6 25.6 67.6 22.9 C 67.6 20.6 67.9 18.6 71.1 18.6 C 73.3 18.6 74.6 19.5 74.6 21.8 C 74.6 21.8 72.2 21.8 72.2 21.8 Z M 75.3 18.7 L 76.3 18.7 L 76.3 17.4 L 78.7 16.3 L 78.7 18.7 L 79.9 18.7 L 79.9 20.2 L 78.7 20.2 C 78.7 20.2 78.7 24.79 78.7 24.8 C 78.7 25.4 78.7 25.9 79.5 25.9 C 79.6 25.9 79.8 25.9 79.9 25.8 C 79.9 25.8 79.9 27.3 79.9 27.3 C 79.6 27.3 79.2 27.4 78.6 27.4 C 76.6 27.4 76.3 26 76.3 25.5 C 76.3 25.49 76.3 20.2 76.3 20.2 L 75.3 20.2 L 75.3 18.7 Z M 83.8 18.7 L 84.8 18.7 L 84.8 17.4 L 87.2 16.3 L 87.2 18.7 L 88.4 18.7 L 88.4 20.2 L 87.2 20.2 C 87.2 20.2 87.2 24.79 87.2 24.8 C 87.2 25.4 87.2 25.9 88 25.9 C 88.1 25.9 88.3 25.9 88.4 25.8 C 88.4 25.8 88.4 27.3 88.4 27.3 C 88.1 27.3 87.7 27.4 87.1 27.4 C 85.1 27.4 84.8 26 84.8 25.5 C 84.8 25.49 84.8 20.2 84.8 20.2 L 83.8 20.2 L 83.8 18.7 Z M 93.7 27.3 C 93.7 27.3 93.73 21.39 93.7 21.4 C 93.7 20.6 93.6 20 92.8 20 C 92.1 20 91.9 20.6 91.9 21.4 C 91.93 21.39 91.9 27.3 91.9 27.3 L 89.5 27.3 L 89.5 15 L 91.9 15 L 91.9 19.6 C 91.9 19.6 91.96 19.59 92 19.6 C 92.2 19.2 92.5 18.9 92.8 18.8 C 93.1 18.6 93.5 18.6 94 18.6 C 95.1 18.6 96.1 19.2 96.1 20.4 C 96.12 20.42 96.1 27.3 96.1 27.3 L 93.7 27.3 Z M 102.4 22.1 C 102.4 21.2 102.5 20 101.3 20 C 100.2 20 100.2 21.3 100.2 22.1 C 100.2 22.1 102.4 22.1 102.4 22.1 Z M 100.2 23.4 C 100.2 24.4 100.3 25.9 101.3 25.9 C 102.2 25.9 102.3 25.1 102.3 24.4 C 102.3 24.4 104.8 24.4 104.8 24.4 C 104.7 25.4 104.4 26.1 103.9 26.6 C 103.3 27.2 102.4 27.5 101.3 27.5 C 98.2 27.5 97.8 25.6 97.8 22.9 C 97.8 20.6 98.2 18.6 101.3 18.6 C 104.6 18.6 104.9 20.6 104.8 23.4 C 104.8 23.4 100.2 23.4 100.2 23.4 Z M 112.4 24.6 C 112.4 25.3 112.5 26 113.3 26 C 114.7 26 114.5 24.1 114.5 23.2 C 113.3 23.2 112.4 23.1 112.4 24.6 Z M 116.8 25.7 C 116.8 26.2 116.9 26.8 116.9 27.3 C 116.93 27.31 114.7 27.3 114.7 27.3 L 114.6 26.2 C 114.6 26.2 114.57 26.17 114.6 26.2 C 114.1 27.1 113.4 27.5 112.3 27.5 C 110.7 27.5 110 26.2 110 24.7 C 110 21.9 112.2 21.8 114.5 21.8 C 114.5 21.8 114.5 21.2 114.5 21.2 C 114.5 20.4 114.4 19.9 113.5 19.9 C 112.7 19.9 112.6 20.5 112.6 21.2 C 112.6 21.2 110.3 21.2 110.3 21.2 C 110.3 20.2 110.6 19.5 111.1 19.1 C 111.7 18.7 112.5 18.6 113.4 18.6 C 116.4 18.6 116.8 19.9 116.8 21.4 C 116.8 21.4 116.8 25.7 116.8 25.7 Z M 123.2 22.9 C 123.2 21.2 123.2 20 122.2 20 C 121.2 20 121.2 21.2 121.2 22.9 C 121.2 25.1 121.4 26 122.2 26 C 123 26 123.2 25.1 123.2 22.9 Z M 118.8 15 L 121.2 15 L 121.2 19.5 C 121.2 19.5 121.23 19.54 121.2 19.5 C 121.7 18.8 122.3 18.6 123.2 18.6 C 125.6 18.6 125.5 21.2 125.5 23 C 125.5 24.7 125.6 27.5 123.1 27.5 C 122.2 27.5 121.6 27.2 121.1 26.4 C 121.11 26.36 121.1 26.4 121.1 26.4 L 121.1 27.3 L 118.8 27.3 L 118.8 15 Z M 129.9 27.3 L 127.5 27.3 L 127.5 18.7 L 129.9 18.7 L 129.9 27.3 Z M 129.9 15 L 129.9 16.9 L 127.5 16.9 L 127.5 15 L 129.9 15 Z M 134.6 15 L 134.6 27.3 L 132.2 27.3 L 132.2 15 L 134.6 15 Z M 139.4 27.3 L 137 27.3 L 137 18.7 L 139.4 18.7 L 139.4 27.3 Z M 139.4 15 L 139.4 16.9 L 137 16.9 L 137 15 L 139.4 15 Z M 140.5 18.7 L 141.5 18.7 L 141.5 17.4 L 143.9 16.3 L 143.9 18.7 L 145.1 18.7 L 145.1 20.2 L 143.9 20.2 C 143.9 20.2 143.88 24.79 143.9 24.8 C 143.9 25.4 143.9 25.9 144.6 25.9 C 144.8 25.9 144.9 25.9 145.1 25.8 C 145.1 25.8 145.1 27.3 145.1 27.3 C 144.7 27.3 144.4 27.4 143.8 27.4 C 141.8 27.4 141.5 26 141.5 25.5 C 141.48 25.49 141.5 20.2 141.5 20.2 L 140.5 20.2 L 140.5 18.7 Z M 147.7 27.4 L 145.4 18.7 L 147.8 18.7 L 149 24.8 L 149 24.8 L 150.3 18.7 L 152.6 18.7 L 149.3 30.6 L 146.8 30.6 L 147.7 27.4 Z M 156.6 18.7 L 157.5 18.7 L 157.5 17.4 L 159.9 16.3 L 159.9 18.7 L 161.2 18.7 L 161.2 20.2 L 159.9 20.2 C 159.9 20.2 159.92 24.79 159.9 24.8 C 159.9 25.4 159.9 25.9 160.7 25.9 C 160.8 25.9 161 25.9 161.1 25.8 C 161.1 25.8 161.1 27.3 161.1 27.3 C 160.8 27.3 160.5 27.4 159.9 27.4 C 157.8 27.4 157.5 26 157.5 25.5 C 157.53 25.49 157.5 20.2 157.5 20.2 L 156.6 20.2 L 156.6 18.7 Z M 166.7 22.8 C 166.7 21 166.6 20.1 165.6 20.1 C 164.5 20.1 164.4 21 164.4 22.8 C 164.4 25.4 164.7 25.9 165.6 25.9 C 166.4 25.9 166.7 25.4 166.7 22.8 Z M 162 22.9 C 162 20.6 162.4 18.6 165.6 18.6 C 168.7 18.6 169.1 20.6 169.1 22.9 C 169.1 25.6 168.6 27.5 165.6 27.5 C 162.5 27.5 162 25.6 162 22.9 Z " stroke="none" fill="#003c71"/>  </g></svg>