<?xml version="1.0" standalone="no"?><!DOCTYPE svg PUBLIC "-//W3C//DTD SVG 1.1//EN" "http://www.w3.org/Graphics/SVG/1.1/DTD/svg11.dtd"><svg xmlns="http://www.w3.org/2000/svg" version="1.1" width="85px" height="64px" viewBox="0 -4 85 64" style="top:-4px">  <desc>ANDEMBRY® Fully human monoclonal antibody</desc>  <defs/>  <g id="Polygon192876">    <path d="M 44.5 41.8 C 44.5 42.2 44.5 42.7 45 42.7 C 46 42.7 45.8 41.5 45.8 40.9 C 45 40.9 44.5 40.8 44.5 41.8 Z M 47.3 42.5 C 47.3 42.9 47.4 43.2 47.4 43.6 C 47.41 43.56 46 43.6 46 43.6 L 45.9 42.8 C 45.9 42.8 45.88 42.83 45.9 42.8 C 45.5 43.4 45.1 43.7 44.4 43.7 C 43.3 43.7 43 42.9 43 41.9 C 43 40.1 44.4 40 45.8 40 C 45.8 40 45.8 39.6 45.8 39.6 C 45.8 39.1 45.7 38.8 45.2 38.8 C 44.6 38.8 44.6 39.2 44.6 39.6 C 44.6 39.6 43.1 39.6 43.1 39.6 C 43.1 38.9 43.3 38.5 43.7 38.3 C 44 38 44.5 37.9 45.1 37.9 C 47.1 37.9 47.3 38.7 47.3 39.8 C 47.3 39.8 47.3 42.5 47.3 42.5 Z M 50.2 38.6 C 50.2 38.6 50.19 38.57 50.2 38.6 C 50.3 38.3 50.5 38.2 50.7 38.1 C 51 37.9 51.2 37.9 51.5 37.9 C 52.2 37.9 52.9 38.3 52.9 39.1 C 52.88 39.11 52.9 43.6 52.9 43.6 L 51.3 43.6 C 51.3 43.6 51.33 39.74 51.3 39.7 C 51.3 39.2 51.2 38.9 50.8 38.9 C 50.3 38.9 50.2 39.2 50.2 39.7 C 50.17 39.74 50.2 43.6 50.2 43.6 L 48.6 43.6 L 48.6 38 L 50.2 38 L 50.2 38.6 Z M 53.5 38 L 54.1 38 L 54.1 37.1 L 55.7 36.4 L 55.7 38 L 56.5 38 L 56.5 39 L 55.7 39 C 55.7 39 55.67 41.94 55.7 41.9 C 55.7 42.4 55.7 42.6 56.2 42.6 C 56.3 42.6 56.4 42.6 56.4 42.6 C 56.4 42.6 56.4 43.6 56.4 43.6 C 56.2 43.6 56 43.6 55.6 43.6 C 54.3 43.6 54.1 42.7 54.1 42.4 C 54.12 42.39 54.1 39 54.1 39 L 53.5 39 L 53.5 38 Z M 58.9 43.6 L 57.3 43.6 L 57.3 38 L 58.9 38 L 58.9 43.6 Z M 58.9 35.6 L 58.9 36.8 L 57.3 36.8 L 57.3 35.6 L 58.9 35.6 Z M 63.1 40.7 C 63.1 39.6 63.1 38.9 62.4 38.9 C 61.8 38.9 61.8 39.6 61.8 40.7 C 61.8 42.1 61.9 42.7 62.4 42.7 C 63 42.7 63.1 42.1 63.1 40.7 Z M 60.2 35.6 L 61.8 35.6 L 61.8 38.5 C 61.8 38.5 61.8 38.54 61.8 38.5 C 62.1 38.1 62.5 37.9 63.1 37.9 C 64.6 37.9 64.6 39.6 64.6 40.7 C 64.6 41.9 64.6 43.7 63 43.7 C 62.4 43.7 62 43.5 61.7 42.9 C 61.73 42.95 61.7 42.9 61.7 42.9 L 61.7 43.6 L 60.2 43.6 L 60.2 35.6 Z M 68.6 40.6 C 68.6 39.5 68.5 38.9 67.9 38.9 C 67.2 38.9 67.2 39.5 67.2 40.6 C 67.2 42.3 67.3 42.7 67.9 42.7 C 68.4 42.7 68.6 42.3 68.6 40.6 Z M 65.6 40.7 C 65.6 39.2 65.8 37.9 67.9 37.9 C 69.9 37.9 70.1 39.2 70.1 40.7 C 70.1 42.5 69.9 43.7 67.9 43.7 C 65.9 43.7 65.6 42.5 65.6 40.7 Z M 73.9 40.7 C 73.9 39.6 73.9 38.9 73.3 38.9 C 72.6 38.9 72.6 39.6 72.6 40.7 C 72.6 42.1 72.7 42.7 73.3 42.7 C 73.8 42.7 73.9 42.1 73.9 40.7 Z M 74 43.6 L 74 42.9 C 74 42.9 73.98 42.95 74 42.9 C 73.7 43.5 73.3 43.7 72.7 43.7 C 71.1 43.7 71.1 41.9 71.1 40.7 C 71.1 39.6 71.1 37.9 72.6 37.9 C 73.2 37.9 73.6 38.1 73.9 38.5 C 73.91 38.54 73.9 38.5 73.9 38.5 L 73.9 35.6 L 75.5 35.6 L 75.5 43.6 L 74 43.6 Z M 77.7 43.6 L 76.2 38 L 77.8 38 L 78.5 41.9 L 78.6 41.9 L 79.4 38 L 80.9 38 L 78.8 45.7 L 77.1 45.7 L 77.7 43.6 Z " stroke="none" fill="#003c71"/>  </g>  <g id="Polygon192875">    <path d="M 30.5 27.4 C 30.5 27.4 30.51 27.37 30.5 27.4 C 30.8 26.9 31.2 26.7 31.8 26.7 C 32.4 26.7 32.8 27 33.1 27.4 C 33.4 26.9 33.9 26.7 34.5 26.7 C 35.2 26.7 35.9 27.1 35.9 27.9 C 35.89 27.91 35.9 32.4 35.9 32.4 L 34.3 32.4 C 34.3 32.4 34.34 28.54 34.3 28.5 C 34.3 28 34.3 27.7 33.8 27.7 C 33.3 27.7 33.2 28 33.2 28.5 C 33.17 28.54 33.2 32.4 33.2 32.4 L 31.7 32.4 C 31.7 32.4 31.65 28.54 31.7 28.5 C 31.7 28 31.6 27.7 31.1 27.7 C 30.6 27.7 30.5 28 30.5 28.5 C 30.49 28.54 30.5 32.4 30.5 32.4 L 28.9 32.4 L 28.9 26.8 L 30.5 26.8 L 30.5 27.4 Z M 39.8 29.4 C 39.8 28.3 39.8 27.7 39.1 27.7 C 38.5 27.7 38.4 28.3 38.4 29.4 C 38.4 31.1 38.6 31.5 39.1 31.5 C 39.7 31.5 39.8 31.1 39.8 29.4 Z M 36.9 29.5 C 36.9 28 37.1 26.7 39.1 26.7 C 41.2 26.7 41.4 28 41.4 29.5 C 41.4 31.3 41.1 32.5 39.1 32.5 C 37.1 32.5 36.9 31.3 36.9 29.5 Z M 44.1 27.4 C 44.1 27.4 44.07 27.37 44.1 27.4 C 44.2 27.1 44.4 27 44.6 26.9 C 44.8 26.7 45.1 26.7 45.4 26.7 C 46.1 26.7 46.8 27.1 46.8 27.9 C 46.77 27.91 46.8 32.4 46.8 32.4 L 45.2 32.4 C 45.2 32.4 45.22 28.54 45.2 28.5 C 45.2 28 45.1 27.7 44.6 27.7 C 44.1 27.7 44.1 28 44.1 28.5 C 44.05 28.54 44.1 32.4 44.1 32.4 L 42.5 32.4 L 42.5 26.8 L 44.1 26.8 L 44.1 27.4 Z M 50.8 29.4 C 50.8 28.3 50.8 27.7 50.1 27.7 C 49.5 27.7 49.4 28.3 49.4 29.4 C 49.4 31.1 49.6 31.5 50.1 31.5 C 50.7 31.5 50.8 31.1 50.8 29.4 Z M 47.9 29.5 C 47.9 28 48.1 26.7 50.1 26.7 C 52.2 26.7 52.4 28 52.4 29.5 C 52.4 31.3 52.1 32.5 50.1 32.5 C 48.1 32.5 47.9 31.3 47.9 29.5 Z M 56.3 28.8 C 56.3 28 56.1 27.7 55.6 27.7 C 55 27.7 54.9 28.3 54.9 29.4 C 54.9 31.1 55.1 31.5 55.6 31.5 C 56.1 31.5 56.3 31 56.3 30.3 C 56.3 30.3 57.9 30.3 57.9 30.3 C 57.9 31.8 57.1 32.5 55.6 32.5 C 53.6 32.5 53.4 31.3 53.4 29.5 C 53.4 28 53.6 26.7 55.6 26.7 C 57.1 26.7 57.9 27.3 57.9 28.8 C 57.9 28.8 56.3 28.8 56.3 28.8 Z M 60.7 24.4 L 60.7 32.4 L 59.1 32.4 L 59.1 24.4 L 60.7 24.4 Z M 64.9 29.4 C 64.9 28.3 64.9 27.7 64.2 27.7 C 63.5 27.7 63.5 28.3 63.5 29.4 C 63.5 31.1 63.6 31.5 64.2 31.5 C 64.8 31.5 64.9 31.1 64.9 29.4 Z M 61.9 29.5 C 61.9 28 62.1 26.7 64.2 26.7 C 66.2 26.7 66.5 28 66.5 29.5 C 66.5 31.3 66.2 32.5 64.2 32.5 C 62.2 32.5 61.9 31.3 61.9 29.5 Z M 69.1 27.4 C 69.1 27.4 69.13 27.37 69.1 27.4 C 69.3 27.1 69.5 27 69.7 26.9 C 69.9 26.7 70.2 26.7 70.4 26.7 C 71.2 26.7 71.8 27.1 71.8 27.9 C 71.83 27.91 71.8 32.4 71.8 32.4 L 70.3 32.4 C 70.3 32.4 70.28 28.54 70.3 28.5 C 70.3 28 70.2 27.7 69.7 27.7 C 69.2 27.7 69.1 28 69.1 28.5 C 69.11 28.54 69.1 32.4 69.1 32.4 L 67.6 32.4 L 67.6 26.8 L 69.1 26.8 L 69.1 27.4 Z M 74.4 30.6 C 74.4 31 74.5 31.5 75 31.5 C 75.9 31.5 75.8 30.3 75.8 29.7 C 75 29.7 74.4 29.6 74.4 30.6 Z M 77.3 31.3 C 77.3 31.7 77.3 32 77.3 32.4 C 77.35 32.36 75.9 32.4 75.9 32.4 L 75.8 31.6 C 75.8 31.6 75.82 31.63 75.8 31.6 C 75.5 32.2 75 32.5 74.4 32.5 C 73.3 32.5 72.9 31.7 72.9 30.7 C 72.9 28.9 74.3 28.8 75.8 28.8 C 75.8 28.8 75.8 28.4 75.8 28.4 C 75.8 27.9 75.7 27.6 75.1 27.6 C 74.6 27.6 74.5 28 74.5 28.4 C 74.5 28.4 73 28.4 73 28.4 C 73 27.7 73.2 27.3 73.6 27.1 C 73.9 26.8 74.5 26.7 75 26.7 C 77 26.7 77.3 27.5 77.3 28.6 C 77.3 28.6 77.3 31.3 77.3 31.3 Z M 80.2 24.4 L 80.2 32.4 L 78.7 32.4 L 78.7 24.4 L 80.2 24.4 Z " stroke="none" fill="#003c71"/>  </g>  <g id="Polygon192874">    <path d="M 27.9 21.2 L 27.9 13.2 L 32 13.2 L 32 14.4 L 29.6 14.4 L 29.6 16.5 L 31.9 16.5 L 31.9 17.7 L 29.6 17.7 L 29.6 21.2 L 27.9 21.2 Z M 35.5 20.6 C 35.5 20.6 35.43 20.6 35.4 20.6 C 35.3 20.8 35.1 21 34.9 21.1 C 34.7 21.2 34.4 21.3 34.1 21.3 C 33.4 21.3 32.7 20.8 32.7 20.1 C 32.73 20.06 32.7 15.6 32.7 15.6 L 34.3 15.6 C 34.3 15.6 34.28 19.46 34.3 19.5 C 34.3 20 34.4 20.3 34.9 20.3 C 35.4 20.3 35.5 20 35.5 19.5 C 35.45 19.46 35.5 15.6 35.5 15.6 L 37 15.6 C 37 15.6 37 20.06 37 20.1 C 37 20.4 37 20.8 37.1 21.2 C 37.05 21.16 35.5 21.2 35.5 21.2 L 35.5 20.6 Z M 39.9 13.2 L 39.9 21.2 L 38.4 21.2 L 38.4 13.2 L 39.9 13.2 Z M 43 13.2 L 43 21.2 L 41.4 21.2 L 41.4 13.2 L 43 13.2 Z M 45.3 21.2 L 43.8 15.6 L 45.4 15.6 L 46.2 19.5 L 46.2 19.5 L 47 15.6 L 48.5 15.6 L 46.4 23.3 L 44.7 23.3 L 45.3 21.2 Z M 54.4 21.2 C 54.4 21.2 54.39 17.34 54.4 17.3 C 54.4 16.8 54.3 16.5 53.8 16.5 C 53.3 16.5 53.2 16.8 53.2 17.3 C 53.22 17.34 53.2 21.2 53.2 21.2 L 51.7 21.2 L 51.7 13.2 L 53.2 13.2 L 53.2 16.2 C 53.2 16.2 53.25 16.17 53.2 16.2 C 53.4 15.9 53.6 15.8 53.8 15.7 C 54 15.5 54.3 15.5 54.6 15.5 C 55.3 15.5 55.9 15.9 55.9 16.7 C 55.94 16.71 55.9 21.2 55.9 21.2 L 54.4 21.2 Z M 59.9 20.6 C 59.9 20.6 59.87 20.6 59.9 20.6 C 59.7 20.8 59.5 21 59.3 21.1 C 59.1 21.2 58.9 21.3 58.6 21.3 C 57.8 21.3 57.2 20.8 57.2 20.1 C 57.17 20.06 57.2 15.6 57.2 15.6 L 58.7 15.6 C 58.7 15.6 58.72 19.46 58.7 19.5 C 58.7 20 58.8 20.3 59.3 20.3 C 59.8 20.3 59.9 20 59.9 19.5 C 59.89 19.46 59.9 15.6 59.9 15.6 L 61.4 15.6 C 61.4 15.6 61.44 20.06 61.4 20.1 C 61.4 20.4 61.5 20.8 61.5 21.2 C 61.5 21.16 59.9 21.2 59.9 21.2 L 59.9 20.6 Z M 64.1 16.2 C 64.1 16.2 64.13 16.17 64.1 16.2 C 64.4 15.7 64.9 15.5 65.4 15.5 C 66 15.5 66.4 15.8 66.7 16.2 C 67 15.7 67.5 15.5 68.1 15.5 C 68.9 15.5 69.5 15.9 69.5 16.7 C 69.5 16.71 69.5 21.2 69.5 21.2 L 68 21.2 C 68 21.2 67.95 17.34 68 17.3 C 68 16.8 67.9 16.5 67.4 16.5 C 66.9 16.5 66.8 16.8 66.8 17.3 C 66.79 17.34 66.8 21.2 66.8 21.2 L 65.3 21.2 C 65.3 21.2 65.27 17.34 65.3 17.3 C 65.3 16.8 65.2 16.5 64.7 16.5 C 64.2 16.5 64.1 16.8 64.1 17.3 C 64.1 17.34 64.1 21.2 64.1 21.2 L 62.6 21.2 L 62.6 15.6 L 64.1 15.6 L 64.1 16.2 Z M 72 19.4 C 72 19.8 72 20.3 72.5 20.3 C 73.5 20.3 73.3 19.1 73.3 18.5 C 72.5 18.5 72 18.4 72 19.4 Z M 74.8 20.1 C 74.8 20.5 74.9 20.8 74.9 21.2 C 74.91 21.16 73.5 21.2 73.5 21.2 L 73.4 20.4 C 73.4 20.4 73.38 20.43 73.4 20.4 C 73 21 72.6 21.3 71.9 21.3 C 70.8 21.3 70.5 20.5 70.5 19.5 C 70.5 17.7 71.9 17.6 73.3 17.6 C 73.3 17.6 73.3 17.2 73.3 17.2 C 73.3 16.7 73.2 16.4 72.7 16.4 C 72.1 16.4 72.1 16.8 72.1 17.2 C 72.1 17.2 70.6 17.2 70.6 17.2 C 70.6 16.5 70.8 16.1 71.2 15.9 C 71.5 15.6 72 15.5 72.6 15.5 C 74.6 15.5 74.8 16.3 74.8 17.4 C 74.8 17.4 74.8 20.1 74.8 20.1 Z M 77.7 16.2 C 77.7 16.2 77.69 16.17 77.7 16.2 C 77.8 15.9 78 15.8 78.2 15.7 C 78.5 15.5 78.7 15.5 79 15.5 C 79.7 15.5 80.4 15.9 80.4 16.7 C 80.38 16.71 80.4 21.2 80.4 21.2 L 78.8 21.2 C 78.8 21.2 78.83 17.34 78.8 17.3 C 78.8 16.8 78.7 16.5 78.2 16.5 C 77.8 16.5 77.7 16.8 77.7 17.3 C 77.67 17.34 77.7 21.2 77.7 21.2 L 76.1 21.2 L 76.1 15.6 L 77.7 15.6 L 77.7 16.2 Z " stroke="none" fill="#003c71"/>  </g>  <g id="Polygon192873">    <path d="M 25.5 8 L 27.7 0 L 29.9 0 L 32.1 8 L 30.3 8 L 29.9 6.2 L 27.6 6.2 L 27.2 8 L 25.5 8 Z M 28.7 1.6 L 28.7 1.6 L 28 5 L 29.5 5 L 28.7 1.6 Z M 32.9 8 L 32.9 0 L 35.1 0 L 37.2 5.5 L 37.3 5.5 L 37.3 0 L 38.8 0 L 38.8 8 L 36.6 8 L 34.4 2.2 L 34.4 2.2 L 34.4 8 L 32.9 8 Z M 41.9 6.7 C 41.9 6.7 42.7 6.74 42.7 6.7 C 43.7 6.7 43.9 6 43.9 4 C 43.9 2.5 43.9 1.2 42.8 1.2 C 42.75 1.24 41.9 1.2 41.9 1.2 L 41.9 6.7 Z M 40.2 0 C 40.2 0 43 0.02 43 0 C 45.2 0 45.6 1.5 45.6 3.9 C 45.6 5.2 45.8 8 42.9 8 C 42.94 7.96 40.2 8 40.2 8 L 40.2 0 Z M 46.9 8 L 46.9 0 L 51.3 0 L 51.3 1.2 L 48.6 1.2 L 48.6 3.2 L 51 3.2 L 51 4.4 L 48.6 4.4 L 48.6 6.7 L 51.3 6.7 L 51.3 8 L 46.9 8 Z M 52.4 8 L 52.4 0 L 55.1 0 L 56.3 5.4 L 56.3 5.4 L 57.6 0 L 60.2 0 L 60.2 8 L 58.6 8 L 58.6 1.8 L 58.6 1.8 L 57.1 8 L 55.5 8 L 54 1.8 L 54 1.8 L 54 8 L 52.4 8 Z M 63.3 6.7 C 63.3 6.7 64.19 6.74 64.2 6.7 C 64.5 6.7 65.3 6.7 65.3 5.6 C 65.3 4.9 65.1 4.5 64.2 4.5 C 64.23 4.49 63.3 4.5 63.3 4.5 L 63.3 6.7 Z M 63.3 3.3 C 63.3 3.3 64.38 3.27 64.4 3.3 C 64.7 3.3 65.2 3 65.2 2.3 C 65.2 1.7 64.8 1.2 64.3 1.2 C 64.29 1.24 63.3 1.2 63.3 1.2 L 63.3 3.3 Z M 61.6 8 L 61.6 0 C 61.6 0 64.55 0.02 64.6 0 C 65.8 0 66.9 0.4 66.9 2.1 C 66.9 3 66.4 3.7 65.5 3.8 C 65.5 3.8 65.5 3.9 65.5 3.9 C 66.7 4 67 4.8 67 5.9 C 67 7.9 65.2 8 64.5 8 C 64.54 7.96 61.6 8 61.6 8 Z M 69.9 3.5 C 69.9 3.5 70.67 3.45 70.7 3.5 C 71.3 3.5 71.5 2.8 71.5 2.3 C 71.5 1.5 71.2 1.2 70.7 1.2 C 70.67 1.24 69.9 1.2 69.9 1.2 L 69.9 3.5 Z M 69.9 8 L 68.3 8 L 68.3 0 C 68.3 0 71.34 0.02 71.3 0 C 72.5 0 73.2 0.7 73.2 2.1 C 73.2 3.1 72.8 3.9 71.7 4 C 71.7 4 71.7 4.1 71.7 4.1 C 72.1 4.1 73.2 4.2 73.2 5.6 C 73.2 6.1 73.2 7.6 73.4 8 C 73.4 8 71.7 8 71.7 8 C 71.5 7.5 71.5 6.9 71.5 6.4 C 71.5 5.5 71.6 4.7 70.4 4.7 C 70.36 4.67 69.9 4.7 69.9 4.7 L 69.9 8 Z M 75.7 5.2 L 73.6 0 L 75.5 0 L 76.6 3.4 L 77.9 0 L 79.6 0 L 77.4 5.2 L 77.4 8 L 75.7 8 L 75.7 5.2 Z M 84.7 2 C 84.7 3.3 83.7 4.4 82.3 4.4 C 81 4.4 80 3.3 80 2 C 80 0.7 81 -0.4 82.3 -0.4 C 83.7 -0.4 84.7 0.7 84.7 2 Z M 84.3 2 C 84.3 0.9 83.4 0 82.3 0 C 81.3 0 80.4 0.9 80.4 2 C 80.4 3.1 81.3 3.9 82.3 3.9 C 83.4 3.9 84.3 3.1 84.3 2 Z M 82 3.4 L 81.4 3.4 L 81.4 0.6 C 81.4 0.6 82.58 0.58 82.6 0.6 C 83 0.6 83.3 0.8 83.3 1.3 C 83.3 1.7 83.1 1.9 82.7 2 C 82.7 2 82.7 2 82.7 2 C 82.9 2 83.3 2 83.3 2.5 C 83.3 2.7 83.3 3.2 83.3 3.4 C 83.3 3.4 82.7 3.4 82.7 3.4 C 82.6 3.2 82.6 3 82.6 2.8 C 82.6 2.5 82.7 2.2 82.2 2.2 C 82.2 2.21 82 2.2 82 2.2 L 82 3.4 Z M 82 1.8 C 82 1.8 82.33 1.82 82.3 1.8 C 82.6 1.8 82.7 1.6 82.7 1.4 C 82.7 1.1 82.5 1 82.3 1 C 82.33 1.04 82 1 82 1 L 82 1.8 Z " stroke="none" fill="#003c71"/>  </g></svg>