<?xml version="1.0" standalone="no"?><!DOCTYPE svg PUBLIC "-//W3C//DTD SVG 1.1//EN" "http://www.w3.org/Graphics/SVG/1.1/DTD/svg11.dtd"><svg xmlns="http://www.w3.org/2000/svg" version="1.1" width="327.3px" height="45.7px" viewBox="0 -1 327.3 45.7" style="top:-1px">  <desc>200 mg s.c. injection per month*</desc>  <defs/>  <g id="Polygon203315">    <path d="M 0.2 25.7 C 0.2 25.7 0.2 23.56 0.2 23.6 C 3.9 18.6 4.7 18 4.7 16.5 C 4.7 15.9 4.5 15.4 3.8 15.4 C 2.8 15.4 2.8 16.3 2.8 17.1 C 2.8 17.1 0.4 17.1 0.4 17.1 C 0.2 14.9 1.5 13.6 3.7 13.6 C 5.7 13.6 7.1 14.5 7.1 16.7 C 7.1 19.4 4 22.4 2.7 23.8 C 2.72 23.82 7.2 23.8 7.2 23.8 L 7.2 25.7 L 0.2 25.7 Z M 14.8 19.7 C 14.8 23.4 14.5 25.8 11.3 25.8 C 8.1 25.8 7.9 23.4 7.9 19.7 C 7.9 15.1 8.4 13.6 11.3 13.6 C 14.2 13.6 14.8 15.1 14.8 19.7 Z M 10.3 19.7 C 10.3 23.3 10.4 24.1 11.3 24.1 C 12.3 24.1 12.4 23.3 12.4 19.7 C 12.4 16.1 12.3 15.4 11.3 15.4 C 10.3 15.4 10.3 16.1 10.3 19.7 Z M 22.3 19.7 C 22.3 23.4 22.1 25.8 18.9 25.8 C 15.7 25.8 15.4 23.4 15.4 19.7 C 15.4 15.1 15.9 13.6 18.9 13.6 C 21.8 13.6 22.3 15.1 22.3 19.7 Z M 17.8 19.7 C 17.8 23.3 17.9 24.1 18.9 24.1 C 19.8 24.1 19.9 23.3 19.9 19.7 C 19.9 16.1 19.9 15.4 18.9 15.4 C 17.8 15.4 17.8 16.1 17.8 19.7 Z M 29.6 17.9 C 29.6 17.9 29.61 17.94 29.6 17.9 C 30.1 17.2 30.7 16.9 31.6 16.9 C 32.5 16.9 33.2 17.3 33.6 18 C 34.1 17.2 34.8 16.9 35.8 16.9 C 36.9 16.9 37.9 17.6 37.9 18.8 C 37.93 18.77 37.9 25.7 37.9 25.7 L 35.5 25.7 C 35.5 25.7 35.53 19.74 35.5 19.7 C 35.5 19 35.4 18.4 34.6 18.4 C 33.9 18.4 33.7 19 33.7 19.7 C 33.73 19.74 33.7 25.7 33.7 25.7 L 31.4 25.7 C 31.4 25.7 31.38 19.74 31.4 19.7 C 31.4 19 31.2 18.4 30.5 18.4 C 29.7 18.4 29.6 19 29.6 19.7 C 29.58 19.74 29.6 25.7 29.6 25.7 L 27.2 25.7 L 27.2 17.1 L 29.6 17.1 L 29.6 17.9 Z M 42.8 24.1 C 43.7 24.1 43.8 23.2 43.8 21.3 C 43.8 19.4 43.7 18.4 42.8 18.4 C 41.9 18.4 41.8 19 41.8 21.6 C 41.8 22.4 41.7 24.1 42.8 24.1 Z M 46.2 17.1 C 46.2 17.1 46.2 26.01 46.2 26 C 46.2 26.6 46.2 29 42.9 29 C 41.2 29 39.6 28.5 39.6 26.4 C 39.6 26.4 41.9 26.4 41.9 26.4 C 41.9 26.8 42 27.1 42.1 27.3 C 42.3 27.5 42.5 27.6 42.9 27.6 C 43.5 27.6 43.8 27 43.8 26.2 C 43.81 26.18 43.8 24.5 43.8 24.5 C 43.8 24.5 43.77 24.53 43.8 24.5 C 43.4 25.2 42.7 25.5 42 25.5 C 39.3 25.5 39.4 23.1 39.4 21.2 C 39.4 19.3 39.5 16.9 42 16.9 C 42.8 16.9 43.6 17.3 43.9 18.1 C 43.89 18.07 43.9 18.1 43.9 18.1 L 43.9 17.1 L 46.2 17.1 Z M 53.8 22.9 C 53.8 23.3 53.8 23.7 53.9 23.9 C 54.1 24.2 54.3 24.3 54.8 24.3 C 55.3 24.3 55.7 24 55.7 23.5 C 55.7 21.6 51.5 22 51.5 19.3 C 51.5 17.5 53.3 16.9 54.8 16.9 C 56.5 16.9 58 17.7 57.8 19.5 C 57.8 19.5 55.5 19.5 55.5 19.5 C 55.5 18.9 55.4 18.6 55.2 18.4 C 55.1 18.3 54.9 18.2 54.6 18.2 C 54.1 18.2 53.8 18.6 53.8 19.2 C 53.8 20.5 58 20.5 58 23.2 C 58 24.7 56.8 25.8 54.8 25.8 C 52.7 25.8 51.3 25.3 51.5 22.9 C 51.5 22.9 53.8 22.9 53.8 22.9 Z M 61.4 23.4 L 61.4 25.7 L 59.4 25.7 L 59.4 23.4 L 61.4 23.4 Z M 67.6 20.1 C 67.6 18.9 67.3 18.4 66.5 18.4 C 65.5 18.4 65.4 19.3 65.4 21.1 C 65.4 23.7 65.7 24.3 66.5 24.3 C 67.3 24.3 67.6 23.6 67.6 22.5 C 67.6 22.5 70 22.5 70 22.5 C 70 24.8 68.8 25.8 66.5 25.8 C 63.4 25.8 63 23.9 63 21.3 C 63 18.9 63.4 16.9 66.5 16.9 C 68.7 16.9 70 17.9 70 20.1 C 70 20.1 67.6 20.1 67.6 20.1 Z M 73.7 23.4 L 73.7 25.7 L 71.7 25.7 L 71.7 23.4 L 73.7 23.4 Z M 81.9 25.7 L 79.5 25.7 L 79.5 17.1 L 81.9 17.1 L 81.9 25.7 Z M 81.9 13.4 L 81.9 15.3 L 79.5 15.3 L 79.5 13.4 L 81.9 13.4 Z M 86.4 17.9 C 86.4 17.9 86.44 17.94 86.4 17.9 C 86.7 17.5 87 17.3 87.3 17.1 C 87.6 17 88 16.9 88.5 16.9 C 89.6 16.9 90.6 17.6 90.6 18.8 C 90.61 18.77 90.6 25.7 90.6 25.7 L 88.2 25.7 C 88.2 25.7 88.21 19.74 88.2 19.7 C 88.2 19 88.1 18.4 87.3 18.4 C 86.5 18.4 86.4 19 86.4 19.7 C 86.41 19.74 86.4 25.7 86.4 25.7 L 84 25.7 L 84 17.1 L 86.4 17.1 L 86.4 17.9 Z M 95.1 17.1 C 95.1 17.1 95.11 26.44 95.1 26.4 C 95.1 28.2 94.3 28.9 92.9 28.9 C 92.6 28.9 92.4 28.9 92.1 28.8 C 92.1 28.8 92.1 27.3 92.1 27.3 C 92.4 27.3 92.7 27.3 92.7 26.7 C 92.72 26.67 92.7 17.1 92.7 17.1 L 95.1 17.1 Z M 95.1 13.4 L 95.1 15.3 L 92.7 15.3 L 92.7 13.4 L 95.1 13.4 Z M 101.6 20.4 C 101.6 19.6 101.7 18.4 100.5 18.4 C 99.4 18.4 99.4 19.7 99.4 20.4 C 99.4 20.4 101.6 20.4 101.6 20.4 Z M 99.4 21.7 C 99.4 22.8 99.5 24.3 100.5 24.3 C 101.4 24.3 101.6 23.5 101.6 22.8 C 101.6 22.8 104 22.8 104 22.8 C 104 23.7 103.6 24.5 103.1 25 C 102.5 25.5 101.7 25.8 100.5 25.8 C 97.4 25.8 97 23.9 97 21.3 C 97 18.9 97.4 16.9 100.5 16.9 C 103.8 16.9 104.1 19 104 21.7 C 104 21.7 99.4 21.7 99.4 21.7 Z M 110.1 20.1 C 110.1 18.9 109.8 18.4 109 18.4 C 108 18.4 107.9 19.3 107.9 21.1 C 107.9 23.7 108.2 24.3 109 24.3 C 109.8 24.3 110.1 23.6 110.1 22.5 C 110.1 22.5 112.5 22.5 112.5 22.5 C 112.5 24.8 111.3 25.8 109 25.8 C 105.9 25.8 105.5 23.9 105.5 21.3 C 105.5 18.9 105.9 16.9 109 16.9 C 111.2 16.9 112.5 17.9 112.5 20.1 C 112.5 20.1 110.1 20.1 110.1 20.1 Z M 113.3 17.1 L 114.2 17.1 L 114.2 15.7 L 116.6 14.6 L 116.6 17.1 L 117.9 17.1 L 117.9 18.5 L 116.6 18.5 C 116.6 18.5 116.63 23.14 116.6 23.1 C 116.6 23.8 116.6 24.2 117.4 24.2 C 117.6 24.2 117.7 24.2 117.8 24.2 C 117.8 24.2 117.8 25.7 117.8 25.7 C 117.5 25.7 117.2 25.7 116.6 25.7 C 114.5 25.7 114.2 24.4 114.2 23.8 C 114.24 23.83 114.2 18.5 114.2 18.5 L 113.3 18.5 L 113.3 17.1 Z M 121.6 25.7 L 119.2 25.7 L 119.2 17.1 L 121.6 17.1 L 121.6 25.7 Z M 121.6 13.4 L 121.6 15.3 L 119.2 15.3 L 119.2 13.4 L 121.6 13.4 Z M 128.1 21.1 C 128.1 19.3 128 18.4 127 18.4 C 126 18.4 125.9 19.3 125.9 21.1 C 125.9 23.7 126.1 24.3 127 24.3 C 127.9 24.3 128.1 23.7 128.1 21.1 Z M 123.5 21.3 C 123.5 18.9 123.8 16.9 127 16.9 C 130.1 16.9 130.5 18.9 130.5 21.3 C 130.5 23.9 130.1 25.8 127 25.8 C 123.9 25.8 123.5 23.9 123.5 21.3 Z M 134.6 17.9 C 134.6 17.9 134.62 17.94 134.6 17.9 C 134.9 17.5 135.1 17.3 135.5 17.1 C 135.8 17 136.2 16.9 136.6 16.9 C 137.8 16.9 138.8 17.6 138.8 18.8 C 138.79 18.77 138.8 25.7 138.8 25.7 L 136.4 25.7 C 136.4 25.7 136.39 19.74 136.4 19.7 C 136.4 19 136.3 18.4 135.5 18.4 C 134.7 18.4 134.6 19 134.6 19.7 C 134.59 19.74 134.6 25.7 134.6 25.7 L 132.2 25.7 L 132.2 17.1 L 134.6 17.1 L 134.6 17.9 Z M 148.8 21.3 C 148.8 19.6 148.9 18.4 147.8 18.4 C 146.8 18.4 146.9 19.6 146.9 21.3 C 146.9 23.4 147 24.3 147.8 24.3 C 148.7 24.3 148.8 23.4 148.8 21.3 Z M 146.7 17.1 L 146.7 18 C 146.7 18 146.78 18.02 146.8 18 C 147.2 17.2 147.9 16.9 148.8 16.9 C 151.3 16.9 151.2 19.7 151.2 21.4 C 151.2 23.2 151.3 25.8 148.8 25.8 C 148 25.8 147.4 25.6 146.9 24.8 C 146.89 24.84 146.9 24.8 146.9 24.8 L 146.9 29.3 L 144.5 29.3 L 144.5 17.1 L 146.7 17.1 Z M 157.4 20.4 C 157.4 19.6 157.4 18.4 156.3 18.4 C 155.2 18.4 155.2 19.7 155.2 20.4 C 155.2 20.4 157.4 20.4 157.4 20.4 Z M 155.2 21.7 C 155.2 22.8 155.2 24.3 156.3 24.3 C 157.1 24.3 157.3 23.5 157.3 22.8 C 157.3 22.8 159.7 22.8 159.7 22.8 C 159.7 23.7 159.4 24.5 158.8 25 C 158.2 25.5 157.4 25.8 156.3 25.8 C 153.2 25.8 152.8 23.9 152.8 21.3 C 152.8 18.9 153.1 16.9 156.3 16.9 C 159.5 16.9 159.8 19 159.8 21.7 C 159.8 21.7 155.2 21.7 155.2 21.7 Z M 163.7 17.1 L 163.7 18.2 C 163.7 18.2 163.78 18.17 163.8 18.2 C 164.2 17.2 165 16.9 166 16.9 C 166 16.9 166 19 166 19 C 163.9 18.9 163.9 20.1 163.9 21 C 163.86 20.98 163.9 25.7 163.9 25.7 L 161.5 25.7 L 161.5 17.1 L 163.7 17.1 Z M 173.1 17.9 C 173.1 17.9 173.14 17.94 173.1 17.9 C 173.6 17.2 174.3 16.9 175.2 16.9 C 176 16.9 176.7 17.3 177.1 18 C 177.6 17.2 178.3 16.9 179.3 16.9 C 180.5 16.9 181.5 17.6 181.5 18.8 C 181.45 18.77 181.5 25.7 181.5 25.7 L 179.1 25.7 C 179.1 25.7 179.06 19.74 179.1 19.7 C 179.1 19 178.9 18.4 178.2 18.4 C 177.4 18.4 177.3 19 177.3 19.7 C 177.26 19.74 177.3 25.7 177.3 25.7 L 174.9 25.7 C 174.9 25.7 174.91 19.74 174.9 19.7 C 174.9 19 174.8 18.4 174 18.4 C 173.2 18.4 173.1 19 173.1 19.7 C 173.11 19.74 173.1 25.7 173.1 25.7 L 170.7 25.7 L 170.7 17.1 L 173.1 17.1 L 173.1 17.9 Z M 187.6 21.1 C 187.6 19.3 187.5 18.4 186.5 18.4 C 185.4 18.4 185.4 19.3 185.4 21.1 C 185.4 23.7 185.6 24.3 186.5 24.3 C 187.4 24.3 187.6 23.7 187.6 21.1 Z M 183 21.3 C 183 18.9 183.3 16.9 186.5 16.9 C 189.6 16.9 190 18.9 190 21.3 C 190 23.9 189.6 25.8 186.5 25.8 C 183.4 25.8 183 23.9 183 21.3 Z M 194.1 17.9 C 194.1 17.9 194.1 17.94 194.1 17.9 C 194.3 17.5 194.6 17.3 195 17.1 C 195.3 17 195.7 16.9 196.1 16.9 C 197.3 16.9 198.3 17.6 198.3 18.8 C 198.27 18.77 198.3 25.7 198.3 25.7 L 195.9 25.7 C 195.9 25.7 195.87 19.74 195.9 19.7 C 195.9 19 195.7 18.4 195 18.4 C 194.2 18.4 194.1 19 194.1 19.7 C 194.07 19.74 194.1 25.7 194.1 25.7 L 191.7 25.7 L 191.7 17.1 L 194.1 17.1 L 194.1 17.9 Z M 199.2 17.1 L 200.2 17.1 L 200.2 15.7 L 202.6 14.6 L 202.6 17.1 L 203.8 17.1 L 203.8 18.5 L 202.6 18.5 C 202.6 18.5 202.57 23.14 202.6 23.1 C 202.6 23.8 202.6 24.2 203.3 24.2 C 203.5 24.2 203.6 24.2 203.8 24.2 C 203.8 24.2 203.8 25.7 203.8 25.7 C 203.4 25.7 203.1 25.7 202.5 25.7 C 200.4 25.7 200.2 24.4 200.2 23.8 C 200.17 23.83 200.2 18.5 200.2 18.5 L 199.2 18.5 L 199.2 17.1 Z M 209.1 25.7 C 209.1 25.7 209.1 19.74 209.1 19.7 C 209.1 19 209 18.4 208.2 18.4 C 207.4 18.4 207.3 19 207.3 19.7 C 207.29 19.74 207.3 25.7 207.3 25.7 L 204.9 25.7 L 204.9 13.4 L 207.3 13.4 L 207.3 17.9 C 207.3 17.9 207.33 17.94 207.3 17.9 C 207.6 17.5 207.9 17.3 208.2 17.1 C 208.5 17 208.9 16.9 209.4 16.9 C 210.5 16.9 211.5 17.6 211.5 18.8 C 211.49 18.77 211.5 25.7 211.5 25.7 L 209.1 25.7 Z M 215.3 19.7 L 213.8 18.8 L 215.3 16.8 L 213 17.2 L 213 15.5 L 215.3 15.8 L 213.9 14 L 215.4 13.2 L 216.2 15.3 L 217.1 13.2 L 218.5 14 L 217.1 15.8 L 219.4 15.5 L 219.4 17.2 L 217.1 16.8 L 218.6 18.8 L 217.2 19.7 L 216.2 17.3 L 215.3 19.7 Z " stroke="none" fill="#003c71"/>  </g></svg>