<?xml version="1.0" standalone="no"?><!DOCTYPE svg PUBLIC "-//W3C//DTD SVG 1.1//EN" "http://www.w3.org/Graphics/SVG/1.1/DTD/svg11.dtd"><svg xmlns="http://www.w3.org/2000/svg" version="1.1" width="466.5px" height="20.3px" viewBox="0 -4 466.5 20.3" style="top:-4px">  <desc>Simplified HAE attack biochemical pathway.1,3 5</desc>  <defs/>  <g id="Polygon192577">    <path d="M 1.8 6.1 C 1.8 6.1 1.82 6.36 1.8 6.4 C 1.8 7.5 2.6 7.9 3.3 7.9 C 4.2 7.9 4.8 7.5 4.8 6.5 C 4.8 4.6 0.9 4.8 0.9 2.2 C 0.9 0.7 2 -0.2 3.5 -0.2 C 5.1 -0.2 6 0.6 5.9 2.4 C 5.9 2.4 4.7 2.4 4.7 2.4 C 4.7 1.4 4.4 0.8 3.4 0.8 C 2.7 0.8 2.1 1.1 2.1 2.1 C 2.1 4 6 3.7 6 6.5 C 6 8.3 4.7 8.9 3.3 8.9 C 0.7 8.9 0.7 6.9 0.7 6.1 C 0.73 6.11 1.8 6.1 1.8 6.1 Z M 8.5 8.7 L 7.5 8.7 L 7.5 2.6 L 8.5 2.6 L 8.5 8.7 Z M 7.5 0 L 8.6 0 L 8.6 1.1 L 7.5 1.1 L 7.5 0 Z M 13.2 8.7 C 13.2 8.7 13.18 4.49 13.2 4.5 C 13.2 3.9 13 3.3 12.2 3.3 C 11.9 3.3 11.5 3.5 11.4 3.7 C 11.2 4 11.1 4.4 11.1 4.6 C 11.14 4.61 11.1 8.7 11.1 8.7 L 10.2 8.7 C 10.2 8.7 10.15 3.89 10.2 3.9 C 10.2 3.5 10.1 3 10.1 2.6 C 10.09 2.63 11.1 2.6 11.1 2.6 L 11.1 3.4 C 11.1 3.4 11.16 3.38 11.2 3.4 C 11.4 2.7 12 2.5 12.7 2.5 C 13.2 2.5 13.9 2.7 14.1 3.3 C 14.4 2.6 15 2.5 15.5 2.5 C 16.2 2.5 17.2 2.7 17.2 4.1 C 17.18 4.08 17.2 8.7 17.2 8.7 L 16.2 8.7 C 16.2 8.7 16.2 4.49 16.2 4.5 C 16.2 3.9 16 3.3 15.2 3.3 C 14.9 3.3 14.8 3.3 14.5 3.5 C 14.2 3.8 14.2 4.4 14.2 4.6 C 14.16 4.61 14.2 8.7 14.2 8.7 L 13.2 8.7 Z M 22.3 5.6 C 22.3 4.6 22.3 3.3 21 3.3 C 19.8 3.3 19.9 5 19.9 5.9 C 19.9 6.7 20 8 21.1 8 C 22.1 8 22.3 7.2 22.3 5.6 Z M 19.9 3.3 C 19.9 3.3 19.95 3.35 20 3.3 C 20.3 2.8 20.7 2.5 21.3 2.5 C 22.3 2.5 23.3 2.9 23.3 5.6 C 23.3 7.1 23.3 8.8 21.3 8.8 C 20.7 8.8 20.3 8.6 20 8.1 C 19.97 8.08 19.9 8.1 19.9 8.1 L 19.9 11 L 18.9 11 L 18.9 2.6 L 19.9 2.6 L 19.9 3.3 Z M 25.8 8.7 L 24.8 8.7 L 24.8 0 L 25.8 0 L 25.8 8.7 Z M 28.5 8.7 L 27.5 8.7 L 27.5 2.6 L 28.5 2.6 L 28.5 8.7 Z M 27.4 0 L 28.5 0 L 28.5 1.1 L 27.4 1.1 L 27.4 0 Z M 30.4 2.6 C 30.4 2.6 30.37 1.45 30.4 1.5 C 30.4 0.2 31.2 0 32.1 0 C 32.3 0 32.4 0 32.6 0 C 32.6 0 32.6 0.7 32.6 0.7 C 31.5 0.7 31.4 1.1 31.4 1.6 C 31.35 1.6 31.4 2.6 31.4 2.6 L 32.6 2.6 L 32.6 3.4 L 31.4 3.4 L 31.4 8.7 L 30.4 8.7 L 30.4 3.4 L 29.4 3.4 L 29.4 2.6 L 30.4 2.6 Z M 34.5 8.7 L 33.5 8.7 L 33.5 2.6 L 34.5 2.6 L 34.5 8.7 Z M 33.4 0 L 34.5 0 L 34.5 1.1 L 33.4 1.1 L 33.4 0 Z M 39.5 5.2 C 39.5 3.5 39 3.3 38.3 3.3 C 37.7 3.3 37.2 3.6 37.2 5.2 C 37.2 5.2 39.5 5.2 39.5 5.2 Z M 37.2 6 C 37.2 7.7 37.6 8 38.4 8 C 39 8 39.4 7.5 39.4 6.9 C 39.4 6.9 40.5 6.9 40.5 6.9 C 40.5 8.2 39.7 8.8 38.4 8.8 C 37.1 8.8 36.1 8.4 36.1 5.7 C 36.1 4 36.3 2.5 38.4 2.5 C 40.1 2.5 40.6 3.5 40.6 5.5 C 40.56 5.46 40.6 6 40.6 6 C 40.6 6 37.15 5.98 37.2 6 Z M 44.3 3.3 C 43.2 3.3 43.1 4.2 43.1 5.8 C 43.1 6.7 43.1 8 44.3 8 C 45.4 8 45.4 6.6 45.4 5.4 C 45.4 4.6 45.3 3.3 44.3 3.3 Z M 45.4 0 L 46.4 0 L 46.4 8.7 L 45.4 8.7 L 45.4 8 C 45.4 8 45.37 7.97 45.4 8 C 45 8.5 44.6 8.8 44 8.8 C 43 8.8 42 8.4 42 5.8 C 42 4.2 42.1 2.5 44 2.5 C 44.6 2.5 45 2.8 45.4 3.2 C 45.36 3.24 45.4 3.2 45.4 3.2 L 45.4 0 Z M 51 8.7 L 51 0 L 52.1 0 L 52.1 3.8 L 55.2 3.8 L 55.2 0 L 56.3 0 L 56.3 8.7 L 55.2 8.7 L 55.2 4.7 L 52.1 4.7 L 52.1 8.7 L 51 8.7 Z M 60.3 0 L 61.7 0 L 64.5 8.7 L 63.2 8.7 L 62.6 6.6 L 59.3 6.6 L 58.6 8.7 L 57.5 8.7 L 60.3 0 Z M 60.9 1 L 60.9 1 L 59.5 5.7 L 62.3 5.7 L 60.9 1 Z M 65.6 8.7 L 65.6 0 L 70.1 0 L 70.1 1 L 66.7 1 L 66.7 3.8 L 69.8 3.8 L 69.8 4.7 L 66.7 4.7 L 66.7 7.7 L 70.2 7.7 L 70.2 8.7 L 65.6 8.7 Z M 75.1 6.9 C 75.1 7.5 75.4 8 76 8 C 76.6 8 77.4 7.6 77.3 5.7 C 76.3 5.7 75.1 5.6 75.1 6.9 Z M 77.3 7.8 C 77.3 7.8 77.28 7.81 77.3 7.8 C 77 8.5 76.5 8.8 75.8 8.8 C 74.5 8.8 74.1 8 74.1 6.8 C 74.1 5 75.9 4.9 77.3 4.9 C 77.3 4.1 77.3 3.3 76.3 3.3 C 75.6 3.3 75.2 3.7 75.3 4.3 C 75.3 4.3 74.2 4.3 74.2 4.3 C 74.3 3 75 2.5 76.3 2.5 C 77.9 2.5 78.3 3.3 78.3 4.3 C 78.3 4.3 78.3 7.2 78.3 7.2 C 78.3 7.7 78.3 8.2 78.4 8.7 C 78.38 8.69 77.3 8.7 77.3 8.7 L 77.3 7.8 Z M 80.3 2.6 L 80.3 1.5 L 81.3 1 L 81.3 2.6 L 82.6 2.6 L 82.6 3.4 L 81.3 3.4 C 81.3 3.4 81.27 7.08 81.3 7.1 C 81.3 7.5 81.3 8 82.2 8 C 82.2 8 82.4 7.9 82.6 7.9 C 82.6 7.9 82.6 8.7 82.6 8.7 C 82.3 8.7 82 8.8 81.6 8.8 C 80.7 8.8 80.3 8.4 80.3 7.7 C 80.29 7.68 80.3 3.4 80.3 3.4 L 79.3 3.4 L 79.3 2.6 L 80.3 2.6 Z M 83.6 2.6 L 83.6 1.5 L 84.6 1 L 84.6 2.6 L 85.9 2.6 L 85.9 3.4 L 84.6 3.4 C 84.6 3.4 84.61 7.08 84.6 7.1 C 84.6 7.5 84.6 8 85.5 8 C 85.6 8 85.7 7.9 86 7.9 C 86 7.9 86 8.7 86 8.7 C 85.6 8.7 85.3 8.8 85 8.8 C 84 8.8 83.6 8.4 83.6 7.7 C 83.63 7.68 83.6 3.4 83.6 3.4 L 82.6 3.4 L 82.6 2.6 L 83.6 2.6 Z M 87.8 6.9 C 87.8 7.5 88 8 88.7 8 C 89.3 8 90 7.6 90 5.7 C 89 5.7 87.8 5.6 87.8 6.9 Z M 90 7.8 C 90 7.8 89.95 7.81 90 7.8 C 89.7 8.5 89.2 8.8 88.4 8.8 C 87.1 8.8 86.8 8 86.8 6.8 C 86.8 5 88.6 4.9 90 4.9 C 90 4.1 90 3.3 88.9 3.3 C 88.3 3.3 87.9 3.7 88 4.3 C 88 4.3 86.9 4.3 86.9 4.3 C 87 3 87.7 2.5 89 2.5 C 90.5 2.5 90.9 3.3 90.9 4.3 C 90.9 4.3 90.9 7.2 90.9 7.2 C 90.9 7.7 91 8.2 91.1 8.7 C 91.05 8.69 90 8.7 90 8.7 L 90 7.8 Z M 96 4.6 C 96 3.6 95.6 3.3 95.2 3.3 C 94.4 3.3 93.9 3.7 93.9 5.3 C 93.9 7.3 94.2 8 95.2 8 C 95.4 8 96.1 7.8 96.1 6.7 C 96.1 6.7 97.1 6.7 97.1 6.7 C 97.1 8.4 95.9 8.8 95.2 8.8 C 93.9 8.8 92.9 8.4 92.9 5.7 C 92.9 4 93.1 2.5 95.2 2.5 C 96.4 2.5 97.1 3.2 97 4.6 C 97 4.6 96 4.6 96 4.6 Z M 99.8 8.7 L 98.9 8.7 L 98.9 0 L 99.8 0 L 99.8 5.2 L 99.9 5.2 L 101.7 2.6 L 102.9 2.6 L 100.9 5.2 L 103.3 8.7 L 102 8.7 L 99.9 5.3 L 99.8 5.3 L 99.8 8.7 Z M 109 8 C 110.3 8 110.3 6.7 110.3 5.8 C 110.3 4.2 110.1 3.3 109.1 3.3 C 108 3.3 107.9 4.6 107.9 5.4 C 107.9 6.3 107.8 8 109 8 Z M 107.9 8.7 L 106.9 8.7 L 106.9 0 L 107.9 0 L 107.9 3.2 C 107.9 3.2 107.95 3.24 107.9 3.2 C 108.3 2.8 108.7 2.5 109.3 2.5 C 111.2 2.5 111.3 4.2 111.3 5.8 C 111.3 8.4 110.3 8.8 109.3 8.8 C 108.7 8.8 108.3 8.5 107.9 8 C 107.94 7.97 107.9 8 107.9 8 L 107.9 8.7 Z M 113.8 8.7 L 112.8 8.7 L 112.8 2.6 L 113.8 2.6 L 113.8 8.7 Z M 112.8 0 L 113.9 0 L 113.9 1.1 L 112.8 1.1 L 112.8 0 Z M 118.9 5.3 C 118.9 3.7 118.4 3.3 117.6 3.3 C 116.9 3.3 116.4 3.7 116.4 5.3 C 116.4 7.3 116.6 8 117.6 8 C 118.7 8 118.9 7.3 118.9 5.3 Z M 115.3 5.7 C 115.3 4 115.5 2.5 117.6 2.5 C 119.7 2.5 119.9 4 119.9 5.7 C 119.9 8.4 118.9 8.8 117.6 8.8 C 116.4 8.8 115.3 8.4 115.3 5.7 Z M 124.7 4.6 C 124.7 3.6 124.2 3.3 123.8 3.3 C 123.1 3.3 122.6 3.7 122.6 5.3 C 122.6 7.3 122.8 8 123.8 8 C 124.1 8 124.8 7.8 124.7 6.7 C 124.7 6.7 125.7 6.7 125.7 6.7 C 125.8 8.4 124.5 8.8 123.8 8.8 C 122.6 8.8 121.5 8.4 121.5 5.7 C 121.5 4 121.7 2.5 123.8 2.5 C 125.1 2.5 125.8 3.2 125.7 4.6 C 125.7 4.6 124.7 4.6 124.7 4.6 Z M 130.8 8.7 C 130.8 8.7 130.8 4.58 130.8 4.6 C 130.8 3.8 130.6 3.3 129.7 3.3 C 128.7 3.3 128.5 4.1 128.5 5.1 C 128.48 5.12 128.5 8.7 128.5 8.7 L 127.5 8.7 L 127.5 0 L 128.5 0 L 128.5 3.4 C 128.5 3.4 128.53 3.41 128.5 3.4 C 128.9 2.7 129.4 2.5 130.2 2.5 C 131.2 2.5 131.8 3 131.8 4.4 C 131.78 4.39 131.8 8.7 131.8 8.7 L 130.8 8.7 Z M 136.8 5.2 C 136.8 3.5 136.3 3.3 135.6 3.3 C 135 3.3 134.5 3.6 134.5 5.2 C 134.5 5.2 136.8 5.2 136.8 5.2 Z M 134.5 6 C 134.5 7.7 134.9 8 135.7 8 C 136.4 8 136.7 7.5 136.8 6.9 C 136.8 6.9 137.8 6.9 137.8 6.9 C 137.8 8.2 137 8.8 135.7 8.8 C 134.4 8.8 133.4 8.4 133.4 5.7 C 133.4 4 133.6 2.5 135.7 2.5 C 137.4 2.5 137.9 3.5 137.9 5.5 C 137.88 5.46 137.9 6 137.9 6 C 137.9 6 134.47 5.98 134.5 6 Z M 142.5 8.7 C 142.5 8.7 142.49 4.49 142.5 4.5 C 142.5 3.9 142.3 3.3 141.5 3.3 C 141.2 3.3 140.8 3.5 140.7 3.7 C 140.5 4 140.4 4.4 140.4 4.6 C 140.45 4.61 140.4 8.7 140.4 8.7 L 139.5 8.7 C 139.5 8.7 139.46 3.89 139.5 3.9 C 139.5 3.5 139.4 3 139.4 2.6 C 139.4 2.63 140.4 2.6 140.4 2.6 L 140.4 3.4 C 140.4 3.4 140.47 3.38 140.5 3.4 C 140.8 2.7 141.3 2.5 142 2.5 C 142.5 2.5 143.2 2.7 143.4 3.3 C 143.7 2.6 144.3 2.5 144.8 2.5 C 145.5 2.5 146.5 2.7 146.5 4.1 C 146.49 4.08 146.5 8.7 146.5 8.7 L 145.5 8.7 C 145.5 8.7 145.51 4.49 145.5 4.5 C 145.5 3.9 145.3 3.3 144.6 3.3 C 144.2 3.3 144.1 3.3 143.8 3.5 C 143.5 3.8 143.5 4.4 143.5 4.6 C 143.47 4.61 143.5 8.7 143.5 8.7 L 142.5 8.7 Z M 149.1 8.7 L 148.2 8.7 L 148.2 2.6 L 149.1 2.6 L 149.1 8.7 Z M 148.1 0 L 149.2 0 L 149.2 1.1 L 148.1 1.1 L 148.1 0 Z M 154 4.6 C 154 3.6 153.5 3.3 153.2 3.3 C 152.4 3.3 151.9 3.7 151.9 5.3 C 151.9 7.3 152.1 8 153.2 8 C 153.4 8 154.1 7.8 154 6.7 C 154 6.7 155.1 6.7 155.1 6.7 C 155.1 8.4 153.8 8.8 153.2 8.8 C 151.9 8.8 150.9 8.4 150.9 5.7 C 150.9 4 151.1 2.5 153.2 2.5 C 154.4 2.5 155.1 3.2 155 4.6 C 155 4.6 154 4.6 154 4.6 Z M 157.7 6.9 C 157.7 7.5 158 8 158.7 8 C 159.3 8 160 7.6 159.9 5.7 C 159 5.7 157.7 5.6 157.7 6.9 Z M 160 7.8 C 160 7.8 159.93 7.81 159.9 7.8 C 159.6 8.5 159.2 8.8 158.4 8.8 C 157.1 8.8 156.8 8 156.8 6.8 C 156.8 5 158.6 4.9 159.9 4.9 C 160 4.1 160 3.3 158.9 3.3 C 158.3 3.3 157.9 3.7 158 4.3 C 158 4.3 156.9 4.3 156.9 4.3 C 156.9 3 157.7 2.5 158.9 2.5 C 160.5 2.5 160.9 3.3 160.9 4.3 C 160.9 4.3 160.9 7.2 160.9 7.2 C 160.9 7.7 161 8.2 161 8.7 C 161.04 8.69 160 8.7 160 8.7 L 160 7.8 Z M 163.8 8.7 L 162.8 8.7 L 162.8 0 L 163.8 0 L 163.8 8.7 Z M 171.6 5.6 C 171.6 4.6 171.6 3.3 170.3 3.3 C 169.1 3.3 169.2 5 169.2 5.9 C 169.2 6.7 169.3 8 170.4 8 C 171.4 8 171.6 7.2 171.6 5.6 Z M 169.2 3.3 C 169.2 3.3 169.26 3.35 169.3 3.3 C 169.6 2.8 170 2.5 170.6 2.5 C 171.6 2.5 172.6 2.9 172.6 5.6 C 172.6 7.1 172.6 8.8 170.6 8.8 C 170 8.8 169.6 8.6 169.3 8.1 C 169.27 8.08 169.2 8.1 169.2 8.1 L 169.2 11 L 168.3 11 L 168.3 2.6 L 169.2 2.6 L 169.2 3.3 Z M 175.1 6.9 C 175.1 7.5 175.4 8 176 8 C 176.6 8 177.4 7.6 177.3 5.7 C 176.3 5.7 175.1 5.6 175.1 6.9 Z M 177.3 7.8 C 177.3 7.8 177.26 7.81 177.3 7.8 C 177 8.5 176.5 8.8 175.7 8.8 C 174.5 8.8 174.1 8 174.1 6.8 C 174.1 5 175.9 4.9 177.3 4.9 C 177.3 4.1 177.3 3.3 176.2 3.3 C 175.6 3.3 175.2 3.7 175.3 4.3 C 175.3 4.3 174.2 4.3 174.2 4.3 C 174.3 3 175 2.5 176.3 2.5 C 177.8 2.5 178.2 3.3 178.2 4.3 C 178.2 4.3 178.2 7.2 178.2 7.2 C 178.2 7.7 178.3 8.2 178.4 8.7 C 178.36 8.69 177.3 8.7 177.3 8.7 L 177.3 7.8 Z M 180.3 2.6 L 180.3 1.5 L 181.3 1 L 181.3 2.6 L 182.6 2.6 L 182.6 3.4 L 181.3 3.4 C 181.3 3.4 181.26 7.08 181.3 7.1 C 181.3 7.5 181.3 8 182.2 8 C 182.2 8 182.4 7.9 182.6 7.9 C 182.6 7.9 182.6 8.7 182.6 8.7 C 182.3 8.7 182 8.8 181.6 8.8 C 180.7 8.8 180.3 8.4 180.3 7.7 C 180.27 7.68 180.3 3.4 180.3 3.4 L 179.3 3.4 L 179.3 2.6 L 180.3 2.6 Z M 186.8 8.7 C 186.8 8.7 186.79 4.58 186.8 4.6 C 186.8 3.8 186.5 3.3 185.7 3.3 C 184.7 3.3 184.5 4.1 184.5 5.1 C 184.47 5.12 184.5 8.7 184.5 8.7 L 183.5 8.7 L 183.5 0 L 184.5 0 L 184.5 3.4 C 184.5 3.4 184.52 3.41 184.5 3.4 C 184.9 2.7 185.4 2.5 186.2 2.5 C 187.2 2.5 187.8 3 187.8 4.4 C 187.77 4.39 187.8 8.7 187.8 8.7 L 186.8 8.7 Z M 188.7 2.6 L 189.8 2.6 L 190.9 7.8 L 191 7.8 L 192.3 2.6 L 193.7 2.6 L 194.9 7.8 L 194.9 7.8 L 196.1 2.6 L 197.2 2.6 L 195.6 8.7 L 194.3 8.7 L 193 3.5 L 192.9 3.5 L 191.6 8.7 L 190.3 8.7 L 188.7 2.6 Z M 199.1 6.9 C 199.1 7.5 199.4 8 200 8 C 200.6 8 201.4 7.6 201.3 5.7 C 200.3 5.7 199.1 5.6 199.1 6.9 Z M 201.3 7.8 C 201.3 7.8 201.26 7.81 201.3 7.8 C 201 8.5 200.5 8.8 199.7 8.8 C 198.5 8.8 198.1 8 198.1 6.8 C 198.1 5 199.9 4.9 201.3 4.9 C 201.3 4.1 201.3 3.3 200.2 3.3 C 199.6 3.3 199.2 3.7 199.3 4.3 C 199.3 4.3 198.2 4.3 198.2 4.3 C 198.3 3 199 2.5 200.3 2.5 C 201.8 2.5 202.2 3.3 202.2 4.3 C 202.2 4.3 202.2 7.2 202.2 7.2 C 202.2 7.7 202.3 8.2 202.4 8.7 C 202.36 8.69 201.3 8.7 201.3 8.7 L 201.3 7.8 Z M 206 7.6 L 206 7.6 L 207.5 2.6 L 208.5 2.6 L 205.8 11 L 204.8 11 L 205.4 8.7 L 203.4 2.6 L 204.5 2.6 L 206 7.6 Z M 210.1 8.7 L 209 8.7 L 209 7.4 L 210.1 7.4 L 210.1 8.7 Z M 212.9 4.7 L 212.2 4.7 L 212.2 0.5 L 211.5 1 C 211.5 1 211.5 0.42 211.5 0.4 C 211.7 0.3 212.1 0 212.3 -0.2 C 212.32 -0.16 212.9 -0.2 212.9 -0.2 L 212.9 4.7 Z M 214.6 4 L 215.3 4 L 214.6 5.6 L 214.2 5.6 L 214.6 4 Z M 216.7 1.9 C 217.3 1.9 217.7 1.7 217.7 1.1 C 217.7 0.6 217.5 0.3 217 0.3 C 216.5 0.3 216.4 0.7 216.4 1.1 C 216.4 1.1 215.8 1.1 215.8 1.1 C 215.7 0.3 216.1 -0.2 217 -0.2 C 217.8 -0.2 218.3 0.2 218.3 1 C 218.3 1.9 217.6 2.1 217.4 2.1 C 217.4 2.1 217.4 2.2 217.4 2.2 C 218.1 2.3 218.4 2.7 218.4 3.4 C 218.4 4.3 217.9 4.8 216.9 4.8 C 215.6 4.8 215.7 3.6 215.7 3.4 C 215.7 3.4 216.3 3.4 216.3 3.4 C 216.3 3.8 216.4 4.3 217 4.3 C 217.6 4.3 217.7 3.9 217.7 3.4 C 217.7 2.6 217.4 2.4 216.7 2.4 C 216.7 2.4 216.7 1.9 216.7 1.9 Z M 219 2.5 L 220.5 2.5 L 220.5 3.1 L 219 3.1 L 219 2.5 Z M 223.6 -0.2 L 223.6 0.4 L 222 0.4 L 222 1.8 C 222 1.8 222.01 1.82 222 1.8 C 222.1 1.6 222.5 1.5 222.8 1.5 C 223.5 1.5 223.8 2 223.8 3.1 C 223.8 3.9 223.7 4.8 222.5 4.8 C 221.5 4.8 221.3 4.2 221.3 3.6 C 221.3 3.6 221.9 3.6 221.9 3.6 C 221.9 4 222.1 4.3 222.5 4.3 C 223.1 4.3 223.2 3.7 223.2 3.3 C 223.2 2.6 223.1 2 222.5 2 C 222.2 2 222 2.2 221.9 2.6 C 221.94 2.56 221.4 2.6 221.4 2.6 L 221.4 -0.2 L 223.6 -0.2 Z " stroke="none" fill="#555555"/>  </g></svg>