<?xml version="1.0" standalone="no"?><!DOCTYPE svg PUBLIC "-//W3C//DTD SVG 1.1//EN" "http://www.w3.org/Graphics/SVG/1.1/DTD/svg11.dtd"><svg xmlns="http://www.w3.org/2000/svg" version="1.1" width="616px" height="41.7px" viewBox="0 -7 616 41.7" style="top:-7px">  <desc>ANDEMBRY®: PHASE 3 PIVOTAL STUDY DESIGN1</desc>  <defs/>  <g id="Polygon194082">    <path d="M 4.8 0.1 L 8 0.1 L 12.1 20.3 L 9.3 20.3 L 8.4 15.1 L 4 15.1 L 3.1 20.3 L 0.3 20.3 L 4.8 0.1 Z M 4.5 12.8 L 8 12.8 L 6.3 3 L 6.2 3 L 4.5 12.8 Z M 13.5 0.1 L 17.3 0.1 L 20.6 16.9 L 20.7 16.9 L 20.7 0.1 L 23.3 0.1 L 23.3 20.3 L 19.3 20.3 L 16 3 L 15.9 3 L 15.9 20.3 L 13.5 20.3 L 13.5 0.1 Z M 28.2 17.9 C 28.2 17.9 29.54 17.92 29.5 17.9 C 31.6 17.9 32 16.8 32 13.4 C 32 13.4 32 6.4 32 6.4 C 32 3.4 31.7 2.4 29.3 2.4 C 29.32 2.41 28.2 2.4 28.2 2.4 L 28.2 17.9 Z M 25.4 0.1 C 25.4 0.1 29.9 0.06 29.9 0.1 C 34.4 0.1 34.8 1.6 34.8 7.4 C 34.8 7.4 34.8 13.5 34.8 13.5 C 34.8 18.6 33.9 20.3 29.5 20.3 C 29.46 20.27 25.4 20.3 25.4 20.3 L 25.4 0.1 Z M 36.8 0.1 L 44.4 0.1 L 44.4 2.4 L 39.6 2.4 L 39.6 8.7 L 44.1 8.7 L 44.1 11.1 L 39.6 11.1 L 39.6 17.9 L 44.4 17.9 L 44.4 20.3 L 36.8 20.3 L 36.8 0.1 Z M 45.6 0.1 L 50.1 0.1 L 52.6 15.5 L 52.7 15.5 L 55.3 0.1 L 59.6 0.1 L 59.6 20.3 L 57 20.3 L 57 2.1 L 56.9 2.1 L 54.1 20.3 L 51.3 20.3 L 48.1 2.1 L 48.1 2.1 L 48.1 20.3 L 45.6 20.3 L 45.6 0.1 Z M 61.7 0.1 C 61.7 0.1 66.55 0.06 66.6 0.1 C 70 0.1 70.6 1.3 70.6 5 C 70.6 8.9 69.9 9.6 68 9.8 C 68 9.8 68 9.9 68 9.9 C 70.3 10.3 70.7 11.1 70.7 14.5 C 70.7 18.9 70.2 20.3 66.1 20.3 C 66.08 20.27 61.7 20.3 61.7 20.3 L 61.7 0.1 Z M 64.5 18.1 C 64.5 18.1 66.22 18.09 66.2 18.1 C 67.8 18.1 68.1 17.6 68.1 14.4 C 68.1 11.4 67.8 10.9 66.3 10.9 C 66.3 10.92 64.5 10.9 64.5 10.9 L 64.5 18.1 Z M 64.5 8.7 C 64.5 8.7 66.11 8.74 66.1 8.7 C 67.8 8.7 68 8.4 68 5.1 C 68 2.8 67.6 2.2 65.8 2.2 C 65.8 2.24 64.5 2.2 64.5 2.2 L 64.5 8.7 Z M 72.6 0.1 C 72.6 0.1 76.91 0.06 76.9 0.1 C 81 0.1 81.4 1.1 81.4 5.6 C 81.4 8.3 81.1 9.5 78.8 10.2 C 78.8 10.2 78.8 10.2 78.8 10.2 C 80.7 10.4 81.3 11.4 81.3 13.3 C 81.3 13.3 81.3 17.7 81.3 17.7 C 81.3 18.4 81.3 19.4 81.5 20.3 C 81.5 20.3 78.8 20.3 78.8 20.3 C 78.6 19.8 78.5 19.3 78.5 18.5 C 78.5 18.5 78.5 13.9 78.5 13.9 C 78.5 12 78.2 11.5 76.3 11.5 C 76.33 11.48 75.4 11.5 75.4 11.5 L 75.4 20.3 L 72.6 20.3 L 72.6 0.1 Z M 75.4 9.1 C 75.4 9.1 76.1 9.13 76.1 9.1 C 78.3 9.1 78.6 8.7 78.6 5.7 C 78.6 2.7 78.5 2.4 76.7 2.4 C 76.72 2.41 75.4 2.4 75.4 2.4 L 75.4 9.1 Z M 81.6 0.1 L 84.4 0.1 L 86.9 8.6 L 86.9 8.6 L 89.7 0.1 L 92.2 0.1 L 88.3 12 L 88.3 20.3 L 85.5 20.3 L 85.5 12 L 81.6 0.1 Z M 99.1 -0.9 C 102.4 -0.9 105.1 1.7 105.1 5.1 C 105.1 8.4 102.4 11 99.1 11 C 95.8 11 93.1 8.4 93.1 5.1 C 93.1 1.7 95.8 -0.9 99.1 -0.9 Z M 99.1 9.9 C 101.8 9.9 103.8 7.7 103.8 5.1 C 103.8 2.4 101.8 0.2 99.1 0.2 C 96.4 0.2 94.4 2.4 94.4 5.1 C 94.4 7.7 96.4 9.9 99.1 9.9 Z M 98.8 5.5 L 97.7 5.5 L 97.7 8.5 L 96.5 8.5 L 96.5 1.6 C 96.5 1.6 99.21 1.63 99.2 1.6 C 100.9 1.6 101.8 2.2 101.8 3.6 C 101.8 4.8 101 5.3 100 5.4 C 100.04 5.4 101.9 8.5 101.9 8.5 L 100.6 8.5 L 98.8 5.5 Z M 98.9 4.5 C 99.8 4.5 100.5 4.5 100.5 3.5 C 100.5 2.7 99.7 2.6 99 2.6 C 99.01 2.61 97.7 2.6 97.7 2.6 L 97.7 4.5 C 97.7 4.5 98.91 4.53 98.9 4.5 Z M 106.6 17 L 109.9 17 L 109.9 20.3 L 106.6 20.3 L 106.6 17 Z M 106.6 6.2 L 109.9 6.2 L 109.9 9.5 L 106.6 9.5 L 106.6 6.2 Z M 118.4 9.1 C 118.4 9.1 119.82 9.13 119.8 9.1 C 121.7 9.1 121.9 8.8 121.9 5.8 C 121.9 2.7 121.7 2.4 119.8 2.4 C 119.82 2.41 118.4 2.4 118.4 2.4 L 118.4 9.1 Z M 115.6 0.1 C 115.6 0.1 120.19 0.06 120.2 0.1 C 124 0.1 124.7 1.1 124.7 5.8 C 124.7 10.4 124 11.5 120.2 11.5 C 120.19 11.48 118.4 11.5 118.4 11.5 L 118.4 20.3 L 115.6 20.3 L 115.6 0.1 Z M 126.5 0.1 L 129.3 0.1 L 129.3 8.7 L 133 8.7 L 133 0.1 L 135.8 0.1 L 135.8 20.3 L 133 20.3 L 133 11.1 L 129.3 11.1 L 129.3 20.3 L 126.5 20.3 L 126.5 0.1 Z M 141.6 0.1 L 144.8 0.1 L 148.9 20.3 L 146.1 20.3 L 145.2 15.1 L 140.8 15.1 L 139.9 20.3 L 137.1 20.3 L 141.6 0.1 Z M 141.3 12.8 L 144.8 12.8 L 143.1 3 L 143 3 L 141.3 12.8 Z M 150 14.4 L 152.8 14.4 C 152.8 14.4 152.78 16.07 152.8 16.1 C 152.8 17.4 153.3 18.3 154.4 18.3 C 155.9 18.3 156.2 17.2 156.2 15.9 C 156.2 14.2 156.2 13.7 153.3 10.8 C 151.5 9 150 7.4 150 4.6 C 150 1.3 151.5 -0.1 154.6 -0.1 C 156.1 -0.1 157.2 0.4 157.8 1 C 158.3 1.5 158.7 2.2 158.7 3.6 C 158.66 3.58 158.7 5.5 158.7 5.5 L 156 5.5 C 156 5.5 156.02 3.89 156 3.9 C 156 2.7 155.5 2.1 154.5 2.1 C 153.3 2.1 152.8 2.7 152.8 4.3 C 152.8 5.7 153.1 6.5 155.6 9.2 C 158.4 12 158.9 13 158.9 15.5 C 158.9 18.6 157.6 20.4 154.3 20.4 C 151.7 20.4 150 19.3 150 16.8 C 149.98 16.83 150 14.4 150 14.4 Z M 160.6 0.1 L 168.3 0.1 L 168.3 2.4 L 163.4 2.4 L 163.4 8.7 L 168 8.7 L 168 11.1 L 163.4 11.1 L 163.4 17.9 L 168.3 17.9 L 168.3 20.3 L 160.6 20.3 L 160.6 0.1 Z M 174.7 14.8 L 177.3 14.8 C 177.3 14.8 177.3 15.9 177.3 15.9 C 177.3 17.5 177.7 18.4 178.8 18.4 C 180 18.4 180.4 17.5 180.4 15.9 C 180.4 15.9 180.4 13.5 180.4 13.5 C 180.4 11.7 179.9 11.1 178 11.1 C 178 11.09 177.3 11.1 177.3 11.1 L 177.3 8.7 C 177.3 8.7 178.2 8.74 178.2 8.7 C 179.9 8.7 180.3 8.3 180.3 6.3 C 180.3 6.3 180.3 4.1 180.3 4.1 C 180.3 2.3 179.8 1.9 179 1.9 C 177.8 1.9 177.4 2.8 177.4 4.4 C 177.44 4.42 177.4 5.1 177.4 5.1 C 177.4 5.1 174.81 5.1 174.8 5.1 C 174.8 1.2 175.7 -0.1 179 -0.1 C 182.3 -0.1 182.9 1.4 182.9 5.3 C 182.9 8.8 182.5 9.5 180.5 9.8 C 180.5 9.8 180.5 9.9 180.5 9.9 C 182.2 10.2 183 10.6 183 15.5 C 183 19.1 182.2 20.4 178.8 20.4 C 175.5 20.4 174.7 19.1 174.7 15.5 C 174.67 15.46 174.7 14.8 174.7 14.8 Z M 193.1 9.1 C 193.1 9.1 194.55 9.13 194.6 9.1 C 196.5 9.1 196.7 8.8 196.7 5.8 C 196.7 2.7 196.5 2.4 194.6 2.4 C 194.55 2.41 193.1 2.4 193.1 2.4 L 193.1 9.1 Z M 190.3 0.1 C 190.3 0.1 194.92 0.06 194.9 0.1 C 198.7 0.1 199.5 1.1 199.5 5.8 C 199.5 10.4 198.7 11.5 194.9 11.5 C 194.92 11.48 193.1 11.5 193.1 11.5 L 193.1 20.3 L 190.3 20.3 L 190.3 0.1 Z M 201.1 0.1 L 203.9 0.1 L 203.9 20.3 L 201.1 20.3 L 201.1 0.1 Z M 205.1 0.1 L 207.9 0.1 L 210.8 16.1 L 210.8 16.1 L 213.8 0.1 L 216.6 0.1 L 212.4 20.3 L 209.2 20.3 L 205.1 0.1 Z M 220 15.6 C 220 17.3 220.8 18.3 222 18.3 C 223.1 18.3 223.9 17.3 223.9 15.6 C 223.9 15.6 223.9 5 223.9 5 C 223.9 3 223.3 2.1 222 2.1 C 220.7 2.1 220 3 220 5 C 220 5 220 15.6 220 15.6 Z M 217.2 5.2 C 217.2 2.4 218.2 -0.1 222 -0.1 C 225.6 -0.1 226.7 1.8 226.7 4.9 C 226.7 4.9 226.7 15.1 226.7 15.1 C 226.7 17.9 225.8 20.4 222 20.4 C 218.4 20.4 217.2 18.6 217.2 15.4 C 217.2 15.4 217.2 5.2 217.2 5.2 Z M 227.5 0.1 L 237 0.1 L 237 2.4 L 233.7 2.4 L 233.7 20.3 L 230.9 20.3 L 230.9 2.4 L 227.5 2.4 L 227.5 0.1 Z M 239.7 0.1 L 243 0.1 L 247.1 20.3 L 244.3 20.3 L 243.4 15.1 L 239 15.1 L 238.1 20.3 L 235.3 20.3 L 239.7 0.1 Z M 239.4 12.8 L 243 12.8 L 241.2 3 L 241.2 3 L 239.4 12.8 Z M 248.4 0.1 L 251.2 0.1 L 251.2 17.9 L 255.9 17.9 L 255.9 20.3 L 248.4 20.3 L 248.4 0.1 Z M 262.1 14.4 L 264.9 14.4 C 264.9 14.4 264.94 16.07 264.9 16.1 C 264.9 17.4 265.4 18.3 266.6 18.3 C 268.1 18.3 268.4 17.2 268.4 15.9 C 268.4 14.2 268.3 13.7 265.4 10.8 C 263.6 9 262.1 7.4 262.1 4.6 C 262.1 1.3 263.7 -0.1 266.7 -0.1 C 268.2 -0.1 269.3 0.4 270 1 C 270.5 1.5 270.8 2.2 270.8 3.6 C 270.82 3.58 270.8 5.5 270.8 5.5 L 268.2 5.5 C 268.2 5.5 268.19 3.89 268.2 3.9 C 268.2 2.7 267.7 2.1 266.6 2.1 C 265.5 2.1 264.9 2.7 264.9 4.3 C 264.9 5.7 265.2 6.5 267.8 9.2 C 270.5 12 271 13 271 15.5 C 271 18.6 269.8 20.4 266.5 20.4 C 263.9 20.4 262.1 19.3 262.1 16.8 C 262.14 16.83 262.1 14.4 262.1 14.4 Z M 271.9 0.1 L 281.5 0.1 L 281.5 2.4 L 278.1 2.4 L 278.1 20.3 L 275.3 20.3 L 275.3 2.4 L 271.9 2.4 L 271.9 0.1 Z M 292.1 15.7 C 292.1 18.1 291.1 20.4 287.3 20.4 C 283.5 20.4 282.6 18.1 282.6 15.7 C 282.58 15.71 282.6 0.1 282.6 0.1 L 285.4 0.1 C 285.4 0.1 285.38 16.18 285.4 16.2 C 285.4 17.6 285.9 18.3 287.3 18.3 C 288.8 18.3 289.3 17.6 289.3 16.2 C 289.27 16.18 289.3 0.1 289.3 0.1 L 292.1 0.1 C 292.1 0.1 292.07 15.71 292.1 15.7 Z M 296.9 17.9 C 296.9 17.9 298.21 17.92 298.2 17.9 C 300.3 17.9 300.7 16.8 300.7 13.4 C 300.7 13.4 300.7 6.4 300.7 6.4 C 300.7 3.4 300.4 2.4 298 2.4 C 297.98 2.41 296.9 2.4 296.9 2.4 L 296.9 17.9 Z M 294.1 0.1 C 294.1 0.1 298.57 0.06 298.6 0.1 C 303.1 0.1 303.5 1.6 303.5 7.4 C 303.5 7.4 303.5 13.5 303.5 13.5 C 303.5 18.6 302.5 20.3 298.1 20.3 C 298.12 20.27 294.1 20.3 294.1 20.3 L 294.1 0.1 Z M 304.2 0.1 L 307 0.1 L 309.4 8.6 L 309.5 8.6 L 312.3 0.1 L 314.7 0.1 L 310.8 12 L 310.8 20.3 L 308 20.3 L 308 12 L 304.2 0.1 Z M 324.2 17.9 C 324.2 17.9 325.53 17.92 325.5 17.9 C 327.6 17.9 328 16.8 328 13.4 C 328 13.4 328 6.4 328 6.4 C 328 3.4 327.7 2.4 325.3 2.4 C 325.31 2.41 324.2 2.4 324.2 2.4 L 324.2 17.9 Z M 321.4 0.1 C 321.4 0.1 325.9 0.06 325.9 0.1 C 330.4 0.1 330.8 1.6 330.8 7.4 C 330.8 7.4 330.8 13.5 330.8 13.5 C 330.8 18.6 329.9 20.3 325.4 20.3 C 325.45 20.27 321.4 20.3 321.4 20.3 L 321.4 0.1 Z M 332.8 0.1 L 340.4 0.1 L 340.4 2.4 L 335.6 2.4 L 335.6 8.7 L 340.1 8.7 L 340.1 11.1 L 335.6 11.1 L 335.6 17.9 L 340.4 17.9 L 340.4 20.3 L 332.8 20.3 L 332.8 0.1 Z M 341.3 14.4 L 344.1 14.4 C 344.1 14.4 344.1 16.07 344.1 16.1 C 344.1 17.4 344.6 18.3 345.7 18.3 C 347.2 18.3 347.6 17.2 347.6 15.9 C 347.6 14.2 347.5 13.7 344.6 10.8 C 342.8 9 341.3 7.4 341.3 4.6 C 341.3 1.3 342.8 -0.1 345.9 -0.1 C 347.4 -0.1 348.5 0.4 349.2 1 C 349.6 1.5 350 2.2 350 3.6 C 349.98 3.58 350 5.5 350 5.5 L 347.3 5.5 C 347.3 5.5 347.35 3.89 347.3 3.9 C 347.3 2.7 346.9 2.1 345.8 2.1 C 344.6 2.1 344.1 2.7 344.1 4.3 C 344.1 5.7 344.4 6.5 347 9.2 C 349.7 12 350.2 13 350.2 15.5 C 350.2 18.6 349 20.4 345.6 20.4 C 343.1 20.4 341.3 19.3 341.3 16.8 C 341.3 16.83 341.3 14.4 341.3 14.4 Z M 351.9 0.1 L 354.7 0.1 L 354.7 20.3 L 351.9 20.3 L 351.9 0.1 Z M 363.2 5.4 C 363.2 5.4 363.19 4.37 363.2 4.4 C 363.2 2.9 362.5 2.1 361.4 2.1 C 360.1 2.1 359.5 3.2 359.5 5.4 C 359.5 5.4 359.5 15.6 359.5 15.6 C 359.5 17.2 360.3 18.3 361.4 18.3 C 362.2 18.3 362.8 18.1 363.2 18.1 C 363.19 18.06 363.2 12.1 363.2 12.1 L 361.3 12.1 L 361.3 9.8 L 366 9.8 C 366 9.8 365.99 19.94 366 19.9 C 364.9 20.2 363 20.4 361.4 20.4 C 357.8 20.4 356.7 18.6 356.7 15.4 C 356.7 15.4 356.7 5.2 356.7 5.2 C 356.7 1.4 357.8 -0.1 361.4 -0.1 C 364.4 -0.1 366 1 366 3.6 C 365.99 3.56 366 5.4 366 5.4 L 363.2 5.4 Z M 368.1 0.1 L 371.9 0.1 L 375.2 16.9 L 375.3 16.9 L 375.3 0.1 L 377.9 0.1 L 377.9 20.3 L 373.9 20.3 L 370.6 3 L 370.5 3 L 370.5 20.3 L 368.1 20.3 L 368.1 0.1 Z M 381.6 1.4 C 381.6 1.4 381.54 1.38 381.5 1.4 C 381.2 1.8 380.9 2.1 380.3 2.6 C 380.3 2.6 380.3 1.1 380.3 1.1 C 380.6 0.8 381.5 -0.3 381.7 -0.8 C 381.73 -0.84 383.1 -0.8 383.1 -0.8 L 383.1 10.9 L 381.6 10.9 L 381.6 1.4 Z " stroke="none" fill="#003c71"/>  </g></svg>