<?xml version="1.0" standalone="no"?><!DOCTYPE svg PUBLIC "-//W3C//DTD SVG 1.1//EN" "http://www.w3.org/Graphics/SVG/1.1/DTD/svg11.dtd"><svg xmlns="http://www.w3.org/2000/svg" version="1.1" width="454px" height="99px" viewBox="0 0 454 99">  <desc>Reference: 1. Maurer M, et al. The international WAO/EAACI guideline for the management of hereditary angioedema–The ...</desc>  <defs/>  <g id="Polygon191584">    <path d="M 45.6 66.8 C 45.6 66.8 45.57 63.03 45.6 63 C 45.6 62.3 45.4 61.9 44.6 61.9 C 43.7 61.9 43.4 62.6 43.4 63.5 C 43.45 63.53 43.4 66.8 43.4 66.8 L 42.5 66.8 L 42.5 58.9 L 43.4 58.9 L 43.4 62 C 43.4 62 43.49 61.95 43.5 62 C 43.9 61.3 44.3 61.1 45 61.1 C 45.9 61.1 46.5 61.6 46.5 62.9 C 46.47 62.85 46.5 66.8 46.5 66.8 L 45.6 66.8 Z M 51.1 63.6 C 51.1 62 50.7 61.8 50 61.8 C 49.4 61.8 48.9 62.1 48.9 63.6 C 48.9 63.6 51.1 63.6 51.1 63.6 Z M 48.9 64.3 C 48.9 65.9 49.4 66.2 50.1 66.2 C 50.7 66.2 51 65.7 51 65.1 C 51 65.1 52 65.1 52 65.1 C 52 66.3 51.2 66.9 50.1 66.9 C 48.9 66.9 48 66.6 48 64.1 C 48 62.5 48.2 61.1 50.1 61.1 C 51.7 61.1 52.1 62 52.1 63.8 C 52.06 63.83 52.1 64.3 52.1 64.3 C 52.1 64.3 48.94 64.31 48.9 64.3 Z M 54.5 62.1 C 54.5 62.1 54.52 62.07 54.5 62.1 C 54.9 61.2 55.4 61.1 56.2 61.1 C 56.2 61.1 56.2 62.1 56.2 62.1 C 56.2 62.1 56.1 62 56 62 C 55.9 62 55.8 62 55.7 62 C 54.7 62 54.5 62.8 54.5 63.5 C 54.49 63.51 54.5 66.8 54.5 66.8 L 53.6 66.8 L 53.6 61.2 L 54.5 61.2 L 54.5 62.1 Z M 60.3 63.6 C 60.3 62 59.8 61.8 59.2 61.8 C 58.6 61.8 58.1 62.1 58.1 63.6 C 58.1 63.6 60.3 63.6 60.3 63.6 Z M 58.1 64.3 C 58.1 65.9 58.5 66.2 59.2 66.2 C 59.8 66.2 60.2 65.7 60.2 65.1 C 60.2 65.1 61.2 65.1 61.2 65.1 C 61.2 66.3 60.4 66.9 59.2 66.9 C 58.1 66.9 57.1 66.6 57.1 64.1 C 57.1 62.5 57.3 61.1 59.2 61.1 C 60.8 61.1 61.2 62 61.2 63.8 C 61.23 63.83 61.2 64.3 61.2 64.3 C 61.2 64.3 58.1 64.31 58.1 64.3 Z M 64.6 61.9 C 63.6 61.9 63.5 62.6 63.5 64.1 C 63.5 65 63.5 66.2 64.6 66.2 C 65.7 66.2 65.7 64.9 65.7 63.8 C 65.7 63.1 65.6 61.9 64.6 61.9 Z M 65.7 58.9 L 66.6 58.9 L 66.6 66.8 L 65.7 66.8 L 65.7 66.1 C 65.7 66.1 65.64 66.13 65.6 66.1 C 65.3 66.6 64.9 66.9 64.4 66.9 C 63.5 66.9 62.6 66.6 62.6 64.1 C 62.6 62.7 62.6 61.1 64.4 61.1 C 64.9 61.1 65.3 61.4 65.6 61.8 C 65.63 61.8 65.7 61.8 65.7 61.8 L 65.7 58.9 Z M 69.1 66.8 L 68.2 66.8 L 68.2 61.2 L 69.1 61.2 L 69.1 66.8 Z M 68.1 58.9 L 69.2 58.9 L 69.2 59.8 L 68.1 59.8 L 68.1 58.9 Z M 70.8 61.2 L 70.8 60.2 L 71.7 59.8 L 71.7 61.2 L 72.9 61.2 L 72.9 61.9 L 71.7 61.9 C 71.7 61.9 71.66 65.32 71.7 65.3 C 71.7 65.7 71.7 66.1 72.5 66.1 C 72.6 66.1 72.7 66.1 72.9 66.1 C 72.9 66.1 72.9 66.8 72.9 66.8 C 72.6 66.8 72.3 66.9 72 66.9 C 71.1 66.9 70.8 66.5 70.8 65.9 C 70.76 65.87 70.8 61.9 70.8 61.9 L 69.9 61.9 L 69.9 61.2 L 70.8 61.2 Z M 74.5 65.1 C 74.5 65.7 74.8 66.2 75.4 66.2 C 76 66.2 76.6 65.8 76.6 64 C 75.7 64 74.5 64 74.5 65.1 Z M 76.6 66 C 76.6 66 76.56 65.99 76.6 66 C 76.3 66.6 75.9 66.9 75.2 66.9 C 74 66.9 73.6 66.1 73.6 65.1 C 73.6 63.4 75.3 63.3 76.6 63.4 C 76.6 62.6 76.6 61.8 75.6 61.8 C 75 61.8 74.7 62.2 74.8 62.8 C 74.8 62.8 73.8 62.8 73.8 62.8 C 73.8 61.6 74.5 61.1 75.7 61.1 C 77.1 61.1 77.5 61.9 77.5 62.8 C 77.5 62.8 77.5 65.5 77.5 65.5 C 77.5 65.9 77.5 66.4 77.6 66.8 C 77.57 66.79 76.6 66.8 76.6 66.8 L 76.6 66 Z M 80.2 62.1 C 80.2 62.1 80.18 62.07 80.2 62.1 C 80.6 61.2 81 61.1 81.9 61.1 C 81.9 61.1 81.9 62.1 81.9 62.1 C 81.8 62.1 81.7 62 81.7 62 C 81.6 62 81.5 62 81.4 62 C 80.4 62 80.2 62.8 80.2 63.5 C 80.16 63.51 80.2 66.8 80.2 66.8 L 79.3 66.8 L 79.3 61.2 L 80.2 61.2 L 80.2 62.1 Z M 84.6 65.8 L 84.6 65.8 L 85.9 61.2 L 86.9 61.2 L 84.4 68.9 L 83.4 68.9 L 84.1 66.8 L 82.2 61.2 L 83.2 61.2 L 84.6 65.8 Z M 91 65.1 C 91 65.7 91.3 66.2 91.9 66.2 C 92.5 66.2 93.1 65.8 93 64 C 92.2 64 91 64 91 65.1 Z M 93.1 66 C 93.1 66 93.05 65.99 93 66 C 92.8 66.6 92.3 66.9 91.7 66.9 C 90.5 66.9 90.1 66.1 90.1 65.1 C 90.1 63.4 91.8 63.3 93 63.4 C 93.1 62.6 93.1 61.8 92.1 61.8 C 91.5 61.8 91.2 62.2 91.2 62.8 C 91.2 62.8 90.3 62.8 90.3 62.8 C 90.3 61.6 91 61.1 92.1 61.1 C 93.6 61.1 94 61.9 94 62.8 C 94 62.8 94 65.5 94 65.5 C 94 65.9 94 66.4 94.1 66.8 C 94.06 66.79 93.1 66.8 93.1 66.8 L 93.1 66 Z M 98.7 66.8 C 98.7 66.8 98.73 62.94 98.7 62.9 C 98.7 62.3 98.5 61.9 97.7 61.9 C 96.8 61.9 96.6 62.7 96.6 63.5 C 96.61 63.5 96.6 66.8 96.6 66.8 L 95.7 66.8 C 95.7 66.8 95.71 62.39 95.7 62.4 C 95.7 62 95.7 61.6 95.7 61.2 C 95.66 61.24 96.6 61.2 96.6 61.2 L 96.6 62 C 96.6 62 96.66 61.95 96.7 62 C 97 61.3 97.4 61.1 98.1 61.1 C 99.3 61.1 99.6 61.8 99.6 62.9 C 99.63 62.94 99.6 66.8 99.6 66.8 L 98.7 66.8 Z M 103.1 61.9 C 102.1 61.9 102 63.1 102 63.8 C 102 65.6 102.4 66 103.1 66 C 104.2 66 104.2 64.8 104.2 64 C 104.2 63.2 104.2 61.9 103.1 61.9 Z M 104.1 61.2 L 105 61.2 C 105 61.2 105.05 67.35 105 67.4 C 105 68.6 104.2 68.9 103 68.9 C 102.1 68.9 101.2 68.4 101.3 67.4 C 101.3 67.4 102.3 67.4 102.3 67.4 C 102.3 67.9 102.7 68.2 103.2 68.2 C 103.8 68.2 104.1 67.8 104.1 67.3 C 104.15 67.25 104.1 66.1 104.1 66.1 C 104.1 66.1 104.12 66.1 104.1 66.1 C 103.9 66.5 103.4 66.8 102.9 66.8 C 101.4 66.8 101.1 65.5 101.1 63.8 C 101.1 61.3 102.4 61.1 102.8 61.1 C 103.4 61.1 103.9 61.4 104.1 61.9 C 104.13 61.92 104.1 61.9 104.1 61.9 L 104.1 61.2 Z M 107.6 66.8 L 106.7 66.8 L 106.7 61.2 L 107.6 61.2 L 107.6 66.8 Z M 106.6 58.9 L 107.6 58.9 L 107.6 59.8 L 106.6 59.8 L 106.6 58.9 Z M 112.3 63.7 C 112.3 62.2 111.8 61.9 111.1 61.9 C 110.4 61.9 109.9 62.2 109.9 63.7 C 109.9 65.5 110.2 66.2 111.1 66.2 C 112 66.2 112.3 65.5 112.3 63.7 Z M 109 64.1 C 109 62.5 109.2 61.1 111.1 61.1 C 113 61.1 113.2 62.5 113.2 64.1 C 113.2 66.6 112.3 66.9 111.1 66.9 C 109.9 66.9 109 66.6 109 64.1 Z M 117.7 63.6 C 117.7 62 117.2 61.8 116.6 61.8 C 116 61.8 115.5 62.1 115.5 63.6 C 115.5 63.6 117.7 63.6 117.7 63.6 Z M 115.5 64.3 C 115.5 65.9 116 66.2 116.7 66.2 C 117.3 66.2 117.6 65.7 117.6 65.1 C 117.6 65.1 118.6 65.1 118.6 65.1 C 118.6 66.3 117.8 66.9 116.7 66.9 C 115.5 66.9 114.6 66.6 114.6 64.1 C 114.6 62.5 114.8 61.1 116.7 61.1 C 118.3 61.1 118.7 62 118.7 63.8 C 118.66 63.83 118.7 64.3 118.7 64.3 C 118.7 64.3 115.53 64.31 115.5 64.3 Z M 122 61.9 C 121.1 61.9 120.9 62.6 120.9 64.1 C 120.9 65 120.9 66.2 122.1 66.2 C 123.1 66.2 123.1 64.9 123.1 63.8 C 123.1 63.1 123 61.9 122 61.9 Z M 123.1 58.9 L 124 58.9 L 124 66.8 L 123.1 66.8 L 123.1 66.1 C 123.1 66.1 123.07 66.13 123.1 66.1 C 122.8 66.6 122.4 66.9 121.8 66.9 C 120.9 66.9 120 66.6 120 64.1 C 120 62.7 120 61.1 121.8 61.1 C 122.4 61.1 122.7 61.4 123.1 61.8 C 123.06 61.8 123.1 61.8 123.1 61.8 L 123.1 58.9 Z M 128.7 63.6 C 128.7 62 128.2 61.8 127.6 61.8 C 127 61.8 126.5 62.1 126.5 63.6 C 126.5 63.6 128.7 63.6 128.7 63.6 Z M 126.5 64.3 C 126.5 65.9 127 66.2 127.7 66.2 C 128.3 66.2 128.6 65.7 128.6 65.1 C 128.6 65.1 129.6 65.1 129.6 65.1 C 129.6 66.3 128.8 66.9 127.7 66.9 C 126.5 66.9 125.6 66.6 125.6 64.1 C 125.6 62.5 125.8 61.1 127.7 61.1 C 129.3 61.1 129.7 62 129.7 63.8 C 129.66 63.83 129.7 64.3 129.7 64.3 C 129.7 64.3 126.53 64.31 126.5 64.3 Z M 133.9 66.8 C 133.9 66.8 133.88 62.94 133.9 62.9 C 133.9 62.4 133.7 61.9 133 61.9 C 132.7 61.9 132.4 62 132.2 62.2 C 132.1 62.5 132 62.8 132 63.1 C 132.01 63.05 132 66.8 132 66.8 L 131.1 66.8 C 131.1 66.8 131.11 62.39 131.1 62.4 C 131.1 62 131.1 61.6 131.1 61.2 C 131.05 61.24 132 61.2 132 61.2 L 132 61.9 C 132 61.9 132.03 61.93 132 61.9 C 132.3 61.3 132.8 61.1 133.4 61.1 C 133.9 61.1 134.5 61.3 134.7 61.8 C 135 61.2 135.5 61.1 136 61.1 C 136.6 61.1 137.6 61.3 137.6 62.6 C 137.55 62.57 137.6 66.8 137.6 66.8 L 136.7 66.8 C 136.7 66.8 136.65 62.94 136.7 62.9 C 136.7 62.4 136.5 61.9 135.8 61.9 C 135.4 61.9 135.3 61.9 135.1 62.1 C 134.8 62.3 134.8 62.8 134.8 63.1 C 134.78 63.05 134.8 66.8 134.8 66.8 L 133.9 66.8 Z M 139.9 65.1 C 139.9 65.7 140.2 66.2 140.8 66.2 C 141.3 66.2 142 65.8 141.9 64 C 141.1 64 139.9 64 139.9 65.1 Z M 142 66 C 142 66 141.93 65.99 141.9 66 C 141.7 66.6 141.2 66.9 140.5 66.9 C 139.4 66.9 139 66.1 139 65.1 C 139 63.4 140.7 63.3 141.9 63.4 C 142 62.6 142 61.8 141 61.8 C 140.4 61.8 140.1 62.2 140.1 62.8 C 140.1 62.8 139.2 62.8 139.2 62.8 C 139.2 61.6 139.9 61.1 141 61.1 C 142.5 61.1 142.8 61.9 142.8 62.8 C 142.8 62.8 142.8 65.5 142.8 65.5 C 142.8 65.9 142.9 66.4 142.9 66.8 C 142.94 66.79 142 66.8 142 66.8 L 142 66 Z M 143.8 63.5 L 149.3 63.5 L 149.3 64.1 L 143.8 64.1 L 143.8 63.5 Z M 154.6 58.9 L 154.6 59.7 L 152.6 59.7 L 152.6 66.8 L 151.5 66.8 L 151.5 59.7 L 149.5 59.7 L 149.5 58.9 L 154.6 58.9 Z M 158.6 66.8 C 158.6 66.8 158.61 63.03 158.6 63 C 158.6 62.3 158.4 61.9 157.6 61.9 C 156.7 61.9 156.5 62.6 156.5 63.5 C 156.48 63.53 156.5 66.8 156.5 66.8 L 155.6 66.8 L 155.6 58.9 L 156.5 58.9 L 156.5 62 C 156.5 62 156.53 61.95 156.5 62 C 156.9 61.3 157.3 61.1 158 61.1 C 159 61.1 159.5 61.6 159.5 62.9 C 159.51 62.85 159.5 66.8 159.5 66.8 L 158.6 66.8 Z M 164.1 63.6 C 164.1 62 163.7 61.8 163 61.8 C 162.5 61.8 162 62.1 162 63.6 C 162 63.6 164.1 63.6 164.1 63.6 Z M 162 64.3 C 162 65.9 162.4 66.2 163.1 66.2 C 163.7 66.2 164 65.7 164.1 65.1 C 164.1 65.1 165.1 65.1 165.1 65.1 C 165 66.3 164.3 66.9 163.1 66.9 C 161.9 66.9 161 66.6 161 64.1 C 161 62.5 161.2 61.1 163.1 61.1 C 164.7 61.1 165.1 62 165.1 63.8 C 165.1 63.83 165.1 64.3 165.1 64.3 C 165.1 64.3 161.97 64.31 162 64.3 Z M 168.7 66.8 C 168.7 66.8 168.72 65.91 168.7 65.9 C 171 62.8 171.6 62.2 171.6 60.9 C 171.6 60.3 171.3 59.9 170.7 59.9 C 169.9 59.9 169.8 60.5 169.8 61.1 C 169.8 61.1 168.7 61.1 168.7 61.1 C 168.7 59.9 169.3 59 170.6 59 C 172 59 172.6 59.7 172.6 61 C 172.6 62.7 171.8 63.3 169.8 65.9 C 169.79 65.91 172.8 65.9 172.8 65.9 L 172.8 66.8 L 168.7 66.8 Z M 177.6 63 C 177.6 65 177.6 67 175.6 67 C 173.5 67 173.5 65 173.5 63 C 173.5 61 173.5 59 175.6 59 C 177.7 59 177.6 61 177.6 63 Z M 174.5 63.2 C 174.5 64.5 174.4 66.1 175.6 66.1 C 176.7 66.1 176.6 64.5 176.6 63.2 C 176.6 61.1 176.6 59.9 175.6 59.9 C 174.5 59.9 174.5 61.1 174.5 63.2 Z M 178.5 66.8 C 178.5 66.8 178.49 65.91 178.5 65.9 C 180.7 62.8 181.4 62.2 181.4 60.9 C 181.4 60.3 181.1 59.9 180.4 59.9 C 179.7 59.9 179.5 60.5 179.5 61.1 C 179.5 61.1 178.5 61.1 178.5 61.1 C 178.4 59.9 179.1 59 180.4 59 C 181.7 59 182.4 59.7 182.4 61 C 182.4 62.7 181.5 63.3 179.6 65.9 C 179.56 65.91 182.6 65.9 182.6 65.9 L 182.6 66.8 L 178.5 66.8 Z M 186.1 66.8 L 185.1 66.8 L 185.1 60.3 L 183.9 61 C 183.9 61 183.92 60.07 183.9 60.1 C 184.2 60 184.9 59.4 185.2 59.2 C 185.21 59.16 186.1 59.2 186.1 59.2 L 186.1 66.8 Z M 191.9 62.1 C 191.9 62.1 191.97 62.07 192 62.1 C 192.3 61.2 192.8 61.1 193.7 61.1 C 193.7 61.1 193.7 62.1 193.7 62.1 C 193.6 62.1 193.5 62 193.4 62 C 193.4 62 193.3 62 193.2 62 C 192.2 62 191.9 62.8 191.9 63.5 C 191.95 63.51 191.9 66.8 191.9 66.8 L 191 66.8 L 191 61.2 L 191.9 61.2 L 191.9 62.1 Z M 197.7 63.6 C 197.7 62 197.3 61.8 196.6 61.8 C 196 61.8 195.6 62.1 195.6 63.6 C 195.6 63.6 197.7 63.6 197.7 63.6 Z M 195.6 64.3 C 195.6 65.9 196 66.2 196.7 66.2 C 197.3 66.2 197.6 65.7 197.6 65.1 C 197.6 65.1 198.6 65.1 198.6 65.1 C 198.6 66.3 197.9 66.9 196.7 66.9 C 195.5 66.9 194.6 66.6 194.6 64.1 C 194.6 62.5 194.8 61.1 196.7 61.1 C 198.3 61.1 198.7 62 198.7 63.8 C 198.68 63.83 198.7 64.3 198.7 64.3 C 198.7 64.3 195.56 64.31 195.6 64.3 Z M 199.5 61.2 L 200.6 61.2 L 201.8 65.9 L 201.8 65.9 L 203.2 61.2 L 204.1 61.2 L 202.4 66.8 L 201.2 66.8 L 199.5 61.2 Z M 205.9 66.8 L 205 66.8 L 205 61.2 L 205.9 61.2 L 205.9 66.8 Z M 205 58.9 L 206 58.9 L 206 59.8 L 205 59.8 L 205 58.9 Z M 209.1 66.9 C 207.9 66.9 207.2 66.4 207.2 65.1 C 207.2 65.1 208.2 65.1 208.2 65.1 C 208.2 65.4 208.3 66.2 209.2 66.2 C 209.7 66.2 210.1 65.9 210.1 65.3 C 210.1 64.3 207.4 64.3 207.4 62.6 C 207.4 62.1 207.7 61.1 209.3 61.1 C 210.3 61.1 211.1 61.6 211 62.7 C 211 62.7 210 62.7 210 62.7 C 210 62.1 209.7 61.8 209.2 61.8 C 208.7 61.8 208.3 62.1 208.3 62.6 C 208.3 63.5 211.1 63.5 211.1 65.2 C 211.1 66.4 210.2 66.9 209.1 66.9 Z M 213.3 66.8 L 212.4 66.8 L 212.4 61.2 L 213.3 61.2 L 213.3 66.8 Z M 212.3 58.9 L 213.3 58.9 L 213.3 59.8 L 212.3 59.8 L 212.3 58.9 Z M 218 63.7 C 218 62.2 217.5 61.9 216.8 61.9 C 216.1 61.9 215.6 62.2 215.6 63.7 C 215.6 65.5 215.9 66.2 216.8 66.2 C 217.7 66.2 218 65.5 218 63.7 Z M 214.7 64.1 C 214.7 62.5 214.9 61.1 216.8 61.1 C 218.7 61.1 218.9 62.5 218.9 64.1 C 218.9 66.6 218 66.9 216.8 66.9 C 215.6 66.9 214.7 66.6 214.7 64.1 Z M 223.3 66.8 C 223.3 66.8 223.34 62.94 223.3 62.9 C 223.3 62.3 223.1 61.9 222.4 61.9 C 221.4 61.9 221.2 62.7 221.2 63.5 C 221.23 63.5 221.2 66.8 221.2 66.8 L 220.3 66.8 C 220.3 66.8 220.33 62.39 220.3 62.4 C 220.3 62 220.3 61.6 220.3 61.2 C 220.27 61.24 221.2 61.2 221.2 61.2 L 221.2 62 C 221.2 62 221.27 61.95 221.3 62 C 221.6 61.3 222 61.1 222.8 61.1 C 223.9 61.1 224.2 61.8 224.2 62.9 C 224.24 62.94 224.2 66.8 224.2 66.8 L 223.3 66.8 Z M 229.1 65.1 C 229.1 65.7 229.4 66.2 230 66.2 C 230.5 66.2 231.2 65.8 231.1 64 C 230.2 64 229.1 64 229.1 65.1 Z M 231.1 66 C 231.1 66 231.11 65.99 231.1 66 C 230.8 66.6 230.4 66.9 229.7 66.9 C 228.5 66.9 228.2 66.1 228.2 65.1 C 228.2 63.4 229.8 63.3 231.1 63.4 C 231.1 62.6 231.1 61.8 230.2 61.8 C 229.6 61.8 229.2 62.2 229.3 62.8 C 229.3 62.8 228.3 62.8 228.3 62.8 C 228.4 61.6 229 61.1 230.2 61.1 C 231.6 61.1 232 61.9 232 62.8 C 232 62.8 232 65.5 232 65.5 C 232 65.9 232.1 66.4 232.1 66.8 C 232.12 66.79 231.1 66.8 231.1 66.8 L 231.1 66 Z M 236.8 66.8 C 236.8 66.8 236.78 62.94 236.8 62.9 C 236.8 62.3 236.6 61.9 235.8 61.9 C 234.8 61.9 234.7 62.7 234.7 63.5 C 234.67 63.5 234.7 66.8 234.7 66.8 L 233.8 66.8 C 233.8 66.8 233.77 62.39 233.8 62.4 C 233.8 62 233.7 61.6 233.7 61.2 C 233.72 61.24 234.7 61.2 234.7 61.2 L 234.7 62 C 234.7 62 234.71 61.95 234.7 62 C 235.1 61.3 235.5 61.1 236.2 61.1 C 237.4 61.1 237.7 61.8 237.7 62.9 C 237.68 62.94 237.7 66.8 237.7 66.8 L 236.8 66.8 Z M 241.2 61.9 C 240.2 61.9 240.1 62.6 240.1 64.1 C 240.1 65 240.1 66.2 241.2 66.2 C 242.2 66.2 242.2 64.9 242.2 63.8 C 242.2 63.1 242.2 61.9 241.2 61.9 Z M 242.2 58.9 L 243.1 58.9 L 243.1 66.8 L 242.2 66.8 L 242.2 66.1 C 242.2 66.1 242.19 66.13 242.2 66.1 C 241.9 66.6 241.5 66.9 240.9 66.9 C 240 66.9 239.1 66.6 239.1 64.1 C 239.1 62.7 239.2 61.1 241 61.1 C 241.5 61.1 241.9 61.4 242.2 61.8 C 242.17 61.8 242.2 61.8 242.2 61.8 L 242.2 58.9 Z M 250.2 61.2 L 251.1 61.2 C 251.1 61.2 251.08 65.64 251.1 65.6 C 251.1 66 251.1 66.4 251.1 66.8 C 251.14 66.79 250.2 66.8 250.2 66.8 L 250.2 66.1 C 250.2 66.1 250.15 66.12 250.1 66.1 C 249.9 66.6 249.3 66.9 248.7 66.9 C 247.8 66.9 247.2 66.4 247.2 65.5 C 247.25 65.47 247.2 61.2 247.2 61.2 L 248.1 61.2 C 248.1 61.2 248.15 65.09 248.1 65.1 C 248.1 65.8 248.5 66.2 249.1 66.2 C 249.6 66.2 250.2 65.8 250.2 64.9 C 250.18 64.92 250.2 61.2 250.2 61.2 Z M 255.8 63.9 C 255.8 63.1 255.8 61.9 254.7 61.9 C 253.6 61.9 253.7 63.4 253.7 64.3 C 253.7 65 253.7 66.2 254.7 66.2 C 255.7 66.2 255.8 65.4 255.8 63.9 Z M 253.7 61.9 C 253.7 61.9 253.71 61.9 253.7 61.9 C 254 61.4 254.4 61.1 255 61.1 C 255.9 61.1 256.8 61.5 256.8 63.9 C 256.8 65.3 256.7 66.9 254.9 66.9 C 254.4 66.9 254 66.7 253.7 66.2 C 253.72 66.23 253.7 66.2 253.7 66.2 L 253.7 68.9 L 252.8 68.9 L 252.8 61.2 L 253.7 61.2 L 253.7 61.9 Z M 260.1 61.9 C 259.1 61.9 259 62.6 259 64.1 C 259 65 259 66.2 260.1 66.2 C 261.1 66.2 261.1 64.9 261.1 63.8 C 261.1 63.1 261.1 61.9 260.1 61.9 Z M 261.1 58.9 L 262 58.9 L 262 66.8 L 261.1 66.8 L 261.1 66.1 C 261.1 66.1 261.13 66.13 261.1 66.1 C 260.8 66.6 260.4 66.9 259.9 66.9 C 259 66.9 258.1 66.6 258.1 64.1 C 258.1 62.7 258.1 61.1 259.9 61.1 C 260.4 61.1 260.8 61.4 261.1 61.8 C 261.12 61.8 261.1 61.8 261.1 61.8 L 261.1 58.9 Z M 264.5 65.1 C 264.5 65.7 264.8 66.2 265.4 66.2 C 266 66.2 266.6 65.8 266.6 64 C 265.7 64 264.5 64 264.5 65.1 Z M 266.6 66 C 266.6 66 266.55 65.99 266.6 66 C 266.3 66.6 265.8 66.9 265.2 66.9 C 264 66.9 263.6 66.1 263.6 65.1 C 263.6 63.4 265.3 63.3 266.6 63.4 C 266.6 62.6 266.6 61.8 265.6 61.8 C 265 61.8 264.7 62.2 264.7 62.8 C 264.7 62.8 263.8 62.8 263.8 62.8 C 263.8 61.6 264.5 61.1 265.6 61.1 C 267.1 61.1 267.5 61.9 267.5 62.8 C 267.5 62.8 267.5 65.5 267.5 65.5 C 267.5 65.9 267.5 66.4 267.6 66.8 C 267.56 66.79 266.6 66.8 266.6 66.8 L 266.6 66 Z M 269.3 61.2 L 269.3 60.2 L 270.2 59.8 L 270.2 61.2 L 271.4 61.2 L 271.4 61.9 L 270.2 61.9 C 270.2 61.9 270.21 65.32 270.2 65.3 C 270.2 65.7 270.2 66.1 271 66.1 C 271.1 66.1 271.2 66.1 271.4 66.1 C 271.4 66.1 271.4 66.8 271.4 66.8 C 271.1 66.8 270.8 66.9 270.6 66.9 C 269.7 66.9 269.3 66.5 269.3 65.9 C 269.31 65.87 269.3 61.9 269.3 61.9 L 268.4 61.9 L 268.4 61.2 L 269.3 61.2 Z M 275.3 63.6 C 275.3 62 274.9 61.8 274.2 61.8 C 273.6 61.8 273.2 62.1 273.1 63.6 C 273.1 63.6 275.3 63.6 275.3 63.6 Z M 273.1 64.3 C 273.1 65.9 273.6 66.2 274.3 66.2 C 274.9 66.2 275.2 65.7 275.2 65.1 C 275.2 65.1 276.2 65.1 276.2 65.1 C 276.2 66.3 275.5 66.9 274.3 66.9 C 273.1 66.9 272.2 66.6 272.2 64.1 C 272.2 62.5 272.4 61.1 274.3 61.1 C 275.9 61.1 276.3 62 276.3 63.8 C 276.27 63.83 276.3 64.3 276.3 64.3 C 276.3 64.3 273.15 64.31 273.1 64.3 Z M 278.7 66.8 L 277.7 66.8 L 277.7 65.6 L 278.7 65.6 L 278.7 66.8 Z M 284.5 58.9 L 285.8 58.9 L 288.4 66.8 L 287.3 66.8 L 286.7 64.9 L 283.6 64.9 L 283 66.8 L 282 66.8 L 284.5 58.9 Z M 285.2 59.8 L 285.1 59.8 L 283.9 64 L 286.4 64 L 285.2 59.8 Z M 290.3 66.8 L 289.4 66.8 L 289.4 58.9 L 290.3 58.9 L 290.3 66.8 Z M 292.7 66.8 L 291.8 66.8 L 291.8 58.9 L 292.7 58.9 L 292.7 66.8 Z M 297.3 63.6 C 297.3 62 296.9 61.8 296.2 61.8 C 295.6 61.8 295.1 62.1 295.1 63.6 C 295.1 63.6 297.3 63.6 297.3 63.6 Z M 295.1 64.3 C 295.1 65.9 295.6 66.2 296.3 66.2 C 296.9 66.2 297.2 65.7 297.2 65.1 C 297.2 65.1 298.2 65.1 298.2 65.1 C 298.2 66.3 297.4 66.9 296.3 66.9 C 295.1 66.9 294.2 66.6 294.2 64.1 C 294.2 62.5 294.4 61.1 296.3 61.1 C 297.9 61.1 298.3 62 298.3 63.8 C 298.26 63.83 298.3 64.3 298.3 64.3 C 298.3 64.3 295.14 64.31 295.1 64.3 Z M 300.7 62.1 C 300.7 62.1 300.71 62.07 300.7 62.1 C 301.1 61.2 301.6 61.1 302.4 61.1 C 302.4 61.1 302.4 62.1 302.4 62.1 C 302.4 62.1 302.3 62 302.2 62 C 302.1 62 302 62 301.9 62 C 300.9 62 300.7 62.8 300.7 63.5 C 300.69 63.51 300.7 66.8 300.7 66.8 L 299.8 66.8 L 299.8 61.2 L 300.7 61.2 L 300.7 62.1 Z M 305.3 61.9 C 304.3 61.9 304.2 63.1 304.2 63.8 C 304.2 65.6 304.7 66 305.3 66 C 306.4 66 306.4 64.8 306.4 64 C 306.4 63.2 306.4 61.9 305.3 61.9 Z M 306.4 61.2 L 307.3 61.2 C 307.3 61.2 307.26 67.35 307.3 67.4 C 307.3 68.6 306.4 68.9 305.2 68.9 C 304.3 68.9 303.5 68.4 303.5 67.4 C 303.5 67.4 304.5 67.4 304.5 67.4 C 304.6 67.9 304.9 68.2 305.4 68.2 C 306 68.2 306.4 67.8 306.4 67.3 C 306.36 67.25 306.4 66.1 306.4 66.1 C 306.4 66.1 306.33 66.1 306.3 66.1 C 306.1 66.5 305.6 66.8 305.1 66.8 C 303.6 66.8 303.3 65.5 303.3 63.8 C 303.3 61.3 304.6 61.1 305 61.1 C 305.6 61.1 306.1 61.4 306.3 61.9 C 306.34 61.92 306.4 61.9 306.4 61.9 L 306.4 61.2 Z M 310.6 65.8 L 310.6 65.8 L 311.9 61.2 L 312.9 61.2 L 310.4 68.9 L 309.5 68.9 L 310.1 66.8 L 308.2 61.2 L 309.3 61.2 L 310.6 65.8 Z M 315.9 66.8 C 315.9 66.8 315.93 65.91 315.9 65.9 C 318.2 62.8 318.8 62.2 318.8 60.9 C 318.8 60.3 318.5 59.9 317.9 59.9 C 317.1 59.9 317 60.5 317 61.1 C 317 61.1 315.9 61.1 315.9 61.1 C 315.9 59.9 316.5 59 317.8 59 C 319.2 59 319.8 59.7 319.8 61 C 319.8 62.7 319 63.3 317 65.9 C 317 65.91 320 65.9 320 65.9 L 320 66.8 L 315.9 66.8 Z M 324.8 63 C 324.8 65 324.8 67 322.8 67 C 320.7 67 320.7 65 320.7 63 C 320.7 61 320.7 59 322.8 59 C 324.9 59 324.8 61 324.8 63 Z M 321.7 63.2 C 321.7 64.5 321.7 66.1 322.8 66.1 C 323.9 66.1 323.8 64.5 323.8 63.2 C 323.8 61.1 323.8 59.9 322.8 59.9 C 321.7 59.9 321.7 61.1 321.7 63.2 Z M 325.7 66.8 C 325.7 66.8 325.7 65.91 325.7 65.9 C 327.9 62.8 328.6 62.2 328.6 60.9 C 328.6 60.3 328.3 59.9 327.6 59.9 C 326.9 59.9 326.7 60.5 326.8 61.1 C 326.8 61.1 325.7 61.1 325.7 61.1 C 325.6 59.9 326.3 59 327.6 59 C 328.9 59 329.6 59.7 329.6 61 C 329.6 62.7 328.7 63.3 326.8 65.9 C 326.77 65.91 329.8 65.9 329.8 65.9 L 329.8 66.8 L 325.7 66.8 Z M 330.6 66.8 C 330.6 66.8 330.58 65.91 330.6 65.9 C 332.8 62.8 333.5 62.2 333.5 60.9 C 333.5 60.3 333.2 59.9 332.5 59.9 C 331.8 59.9 331.6 60.5 331.6 61.1 C 331.6 61.1 330.6 61.1 330.6 61.1 C 330.5 59.9 331.2 59 332.4 59 C 333.8 59 334.5 59.7 334.5 61 C 334.5 62.7 333.6 63.3 331.7 65.9 C 331.66 65.91 334.7 65.9 334.7 65.9 L 334.7 66.8 L 330.6 66.8 Z M 335.9 65.6 L 337.1 65.6 L 336.1 68.2 L 335.4 68.2 L 335.9 65.6 Z M 336.7 62.4 L 335.7 62.4 L 335.7 61.2 L 336.7 61.2 L 336.7 62.4 Z M 337.8 59.2 L 341.7 59.2 L 341.7 60 L 339.7 66.8 L 338.5 66.8 L 340.7 60 L 337.8 60 L 337.8 59.2 Z M 342.6 59.2 L 346.6 59.2 L 346.6 60 L 344.6 66.8 L 343.4 66.8 L 345.5 60 L 342.6 60 L 342.6 59.2 Z M 348.8 68.1 C 348.4 66.5 347.7 65 347.7 63.3 C 347.7 61.6 348.4 60.1 348.8 58.5 C 348.8 58.5 349.5 58.5 349.5 58.5 C 349.1 60.1 348.8 61.7 348.8 63.4 C 348.8 65 349.1 66.6 349.5 68.1 C 349.5 68.1 348.8 68.1 348.8 68.1 Z M 350.6 59.2 L 354.5 59.2 L 354.5 60 L 352.5 66.8 L 351.4 66.8 L 353.5 60 L 350.6 60 L 350.6 59.2 Z M 355.9 68.1 C 356.3 66.6 356.6 65 356.6 63.4 C 356.6 61.7 356.3 60.1 355.9 58.5 C 355.9 58.5 356.5 58.5 356.5 58.5 C 357 60.1 357.6 61.6 357.6 63.3 C 357.6 65 357 66.5 356.6 68.1 C 356.6 68.1 355.9 68.1 355.9 68.1 Z M 359.9 62.4 L 358.9 62.4 L 358.9 61.2 L 359.9 61.2 L 359.9 62.4 Z M 359.9 66.8 L 358.9 66.8 L 358.9 65.6 L 359.9 65.6 L 359.9 66.8 Z M 363.8 66.8 L 362.8 66.8 L 362.8 60.3 L 361.7 61 C 361.7 61 361.66 60.07 361.7 60.1 C 361.9 60 362.6 59.4 363 59.2 C 362.95 59.16 363.8 59.2 363.8 59.2 L 363.8 66.8 Z M 366.9 61.4 C 366.9 62.1 367.1 62.9 368 62.9 C 368.8 62.9 369 62.1 369 61.4 C 369 60.7 368.8 59.8 368 59.8 C 367.1 59.8 366.9 60.7 366.9 61.4 Z M 370 63 C 370 65 370 67 368 67 C 366.8 67 366.1 66.2 366.1 65 C 366.1 65 367.1 65 367.1 65 C 367.1 65.5 367.3 66.1 368 66.1 C 368.9 66.1 369 65 369 63.1 C 369 63.1 369 63.1 369 63.1 C 368.7 63.6 368.3 63.8 367.7 63.8 C 367.1 63.8 365.9 63.5 365.9 61.4 C 365.9 59.7 366.9 59 368 59 C 370 59 370 61 370 63 Z M 372.9 66.1 C 373.7 66.1 373.9 65.2 373.9 64.2 C 373.9 63.5 373.7 62.7 372.9 62.7 C 372 62.7 371.8 63.6 371.8 64.3 C 371.8 65.1 371.9 66.1 372.9 66.1 Z M 370.8 63 C 370.8 61 370.8 59 372.9 59 C 374 59 374.8 59.7 374.8 60.9 C 374.8 60.9 373.7 60.9 373.7 60.9 C 373.7 60.4 373.5 59.8 372.9 59.8 C 372 59.8 371.8 60.5 371.8 62.5 C 371.8 62.5 371.8 62.5 371.8 62.5 C 372.1 62.1 372.6 61.8 373.1 61.8 C 374.1 61.8 374.9 62.4 374.9 64.4 C 374.9 65.7 374.3 67 372.9 67 C 370.8 67 370.8 65 370.8 63 Z M 378.5 66.8 L 377.5 66.8 L 377.5 60.3 L 376.3 61 C 376.3 61 376.32 60.07 376.3 60.1 C 376.6 60 377.3 59.4 377.6 59.2 C 377.6 59.16 378.5 59.2 378.5 59.2 L 378.5 66.8 Z M 380.2 63.5 L 385.7 63.5 L 385.7 64.1 L 380.2 64.1 L 380.2 63.5 Z M 388.9 66.8 L 387.8 66.8 L 387.8 60.3 L 386.7 61 C 386.7 61 386.7 60.07 386.7 60.1 C 387 60 387.7 59.4 388 59.2 C 387.99 59.16 388.9 59.2 388.9 59.2 L 388.9 66.8 Z M 392 61.4 C 392 62.1 392.1 62.9 393 62.9 C 393.9 62.9 394 62.1 394 61.4 C 394 60.7 393.9 59.8 393 59.8 C 392.1 59.8 392 60.7 392 61.4 Z M 395 63 C 395 65 395.1 67 393 67 C 391.8 67 391.1 66.2 391.1 65 C 391.1 65 392.1 65 392.1 65 C 392.1 65.5 392.3 66.1 393 66.1 C 394 66.1 394 65 394 63.1 C 394 63.1 394 63.1 394 63.1 C 393.8 63.6 393.3 63.8 392.7 63.8 C 392.1 63.8 391 63.5 391 61.4 C 391 59.7 392 59 393 59 C 395.1 59 395 61 395 63 Z M 396.9 61.4 C 396.9 62.1 397 62.9 397.9 62.9 C 398.8 62.9 398.9 62.1 398.9 61.4 C 398.9 60.7 398.7 59.8 397.9 59.8 C 397 59.8 396.9 60.7 396.9 61.4 Z M 399.9 63 C 399.9 65 399.9 67 397.9 67 C 396.7 67 396 66.2 396 65 C 396 65 397 65 397 65 C 397 65.5 397.2 66.1 397.9 66.1 C 398.9 66.1 398.9 65 398.9 63.1 C 398.9 63.1 398.9 63.1 398.9 63.1 C 398.7 63.6 398.2 63.8 397.6 63.8 C 397 63.8 395.8 63.5 395.8 61.4 C 395.8 59.7 396.9 59 397.9 59 C 400 59 399.9 61 399.9 63 Z M 404.8 63 C 404.8 65 404.8 67 402.8 67 C 400.7 67 400.7 65 400.7 63 C 400.7 61 400.7 59 402.8 59 C 404.9 59 404.8 61 404.8 63 Z M 401.7 63.2 C 401.7 64.5 401.6 66.1 402.8 66.1 C 403.9 66.1 403.8 64.5 403.8 63.2 C 403.8 61.1 403.8 59.9 402.8 59.9 C 401.7 59.9 401.7 61.1 401.7 63.2 Z M 406.9 66.8 L 405.9 66.8 L 405.9 65.6 L 406.9 65.6 L 406.9 66.8 Z " stroke="none" fill="#fff"/>  </g>  <g id="Polygon191583">    <path d="M 35.2 53.6 L 34.2 53.6 L 34.2 47.1 L 33 47.8 C 33 47.8 33.02 46.87 33 46.9 C 33.3 46.8 34 46.2 34.3 46 C 34.31 45.96 35.2 46 35.2 46 L 35.2 53.6 Z M 38.6 53.6 L 37.6 53.6 L 37.6 52.4 L 38.6 52.4 L 38.6 53.6 Z M 43.6 53.6 L 42.7 53.6 L 42.7 45.7 L 44.3 45.7 L 46.3 52.3 L 46.3 52.3 L 48.4 45.7 L 50 45.7 L 50 53.6 L 49 53.6 L 49 46.5 L 49 46.5 L 46.8 53.6 L 45.8 53.6 L 43.6 46.5 L 43.6 46.5 L 43.6 53.6 Z M 52.5 51.9 C 52.5 52.5 52.8 53 53.4 53 C 54 53 54.6 52.6 54.6 50.8 C 53.7 50.8 52.5 50.8 52.5 51.9 Z M 54.6 52.8 C 54.6 52.8 54.56 52.79 54.6 52.8 C 54.3 53.4 53.9 53.7 53.2 53.7 C 52 53.7 51.6 52.9 51.6 51.9 C 51.6 50.2 53.3 50.1 54.6 50.2 C 54.6 49.4 54.6 48.6 53.6 48.6 C 53 48.6 52.7 49 52.8 49.6 C 52.8 49.6 51.8 49.6 51.8 49.6 C 51.8 48.4 52.5 47.9 53.7 47.9 C 55.1 47.9 55.5 48.7 55.5 49.6 C 55.5 49.6 55.5 52.3 55.5 52.3 C 55.5 52.7 55.5 53.2 55.6 53.6 C 55.57 53.59 54.6 53.6 54.6 53.6 L 54.6 52.8 Z M 60.2 48 L 61.1 48 C 61.1 48 61.09 52.44 61.1 52.4 C 61.1 52.8 61.1 53.2 61.1 53.6 C 61.15 53.59 60.2 53.6 60.2 53.6 L 60.2 52.9 C 60.2 52.9 60.16 52.92 60.2 52.9 C 59.9 53.4 59.3 53.7 58.8 53.7 C 57.8 53.7 57.3 53.2 57.3 52.3 C 57.26 52.27 57.3 48 57.3 48 L 58.2 48 C 58.2 48 58.16 51.89 58.2 51.9 C 58.2 52.6 58.5 53 59.1 53 C 59.6 53 60.2 52.6 60.2 51.7 C 60.19 51.72 60.2 48 60.2 48 Z M 63.7 48.9 C 63.7 48.9 63.68 48.87 63.7 48.9 C 64.1 48 64.5 47.9 65.4 47.9 C 65.4 47.9 65.4 48.9 65.4 48.9 C 65.3 48.9 65.2 48.8 65.2 48.8 C 65.1 48.8 65 48.8 64.9 48.8 C 63.9 48.8 63.7 49.6 63.7 50.3 C 63.66 50.31 63.7 53.6 63.7 53.6 L 62.8 53.6 L 62.8 48 L 63.7 48 L 63.7 48.9 Z M 69.4 50.4 C 69.4 48.8 69 48.6 68.3 48.6 C 67.7 48.6 67.3 48.9 67.3 50.4 C 67.3 50.4 69.4 50.4 69.4 50.4 Z M 67.3 51.1 C 67.3 52.7 67.7 53 68.4 53 C 69 53 69.3 52.5 69.4 51.9 C 69.4 51.9 70.3 51.9 70.3 51.9 C 70.3 53.1 69.6 53.7 68.4 53.7 C 67.2 53.7 66.3 53.4 66.3 50.9 C 66.3 49.3 66.5 47.9 68.4 47.9 C 70 47.9 70.4 48.8 70.4 50.6 C 70.39 50.63 70.4 51.1 70.4 51.1 C 70.4 51.1 67.26 51.11 67.3 51.1 Z M 72.8 48.9 C 72.8 48.9 72.84 48.87 72.8 48.9 C 73.2 48 73.7 47.9 74.6 47.9 C 74.6 47.9 74.6 48.9 74.6 48.9 C 74.5 48.9 74.4 48.8 74.3 48.8 C 74.2 48.8 74.2 48.8 74.1 48.8 C 73.1 48.8 72.8 49.6 72.8 50.3 C 72.82 50.31 72.8 53.6 72.8 53.6 L 71.9 53.6 L 71.9 48 L 72.8 48 L 72.8 48.9 Z M 79 53.6 L 78.1 53.6 L 78.1 45.7 L 79.7 45.7 L 81.7 52.3 L 81.8 52.3 L 83.8 45.7 L 85.5 45.7 L 85.5 53.6 L 84.4 53.6 L 84.4 46.5 L 84.4 46.5 L 82.2 53.6 L 81.2 53.6 L 79.1 46.5 L 79 46.5 L 79 53.6 Z M 87.3 52.4 L 88.4 52.4 L 87.4 55 L 86.7 55 L 87.3 52.4 Z M 95.1 50.4 C 95.1 48.8 94.6 48.6 94 48.6 C 93.4 48.6 92.9 48.9 92.9 50.4 C 92.9 50.4 95.1 50.4 95.1 50.4 Z M 92.9 51.1 C 92.9 52.7 93.3 53 94 53 C 94.7 53 95 52.5 95 51.9 C 95 51.9 96 51.9 96 51.9 C 96 53.1 95.2 53.7 94.1 53.7 C 92.9 53.7 91.9 53.4 91.9 50.9 C 91.9 49.3 92.1 47.9 94.1 47.9 C 95.6 47.9 96 48.8 96 50.6 C 96.04 50.63 96 51.1 96 51.1 C 96 51.1 92.92 51.11 92.9 51.1 Z M 97.6 48 L 97.6 47 L 98.5 46.6 L 98.5 48 L 99.7 48 L 99.7 48.7 L 98.5 48.7 C 98.5 48.7 98.54 52.12 98.5 52.1 C 98.5 52.5 98.5 52.9 99.4 52.9 C 99.4 52.9 99.6 52.9 99.8 52.9 C 99.8 52.9 99.8 53.6 99.8 53.6 C 99.5 53.6 99.2 53.7 98.9 53.7 C 98 53.7 97.6 53.3 97.6 52.7 C 97.64 52.67 97.6 48.7 97.6 48.7 L 96.7 48.7 L 96.7 48 L 97.6 48 Z M 103.9 51.9 C 103.9 52.5 104.1 53 104.7 53 C 105.3 53 106 52.6 105.9 50.8 C 105 50.8 103.9 50.8 103.9 51.9 Z M 105.9 52.8 C 105.9 52.8 105.88 52.79 105.9 52.8 C 105.6 53.4 105.2 53.7 104.5 53.7 C 103.3 53.7 103 52.9 103 51.9 C 103 50.2 104.6 50.1 105.9 50.2 C 105.9 49.4 105.9 48.6 104.9 48.6 C 104.3 48.6 104 49 104.1 49.6 C 104.1 49.6 103.1 49.6 103.1 49.6 C 103.1 48.4 103.8 47.9 105 47.9 C 106.4 47.9 106.8 48.7 106.8 49.6 C 106.8 49.6 106.8 52.3 106.8 52.3 C 106.8 52.7 106.8 53.2 106.9 53.6 C 106.89 53.59 105.9 53.6 105.9 53.6 L 105.9 52.8 Z M 109.4 53.6 L 108.5 53.6 L 108.5 45.7 L 109.4 45.7 L 109.4 53.6 Z M 111.9 53.6 L 110.9 53.6 L 110.9 52.4 L 111.9 52.4 L 111.9 53.6 Z M 120.4 45.7 L 120.4 46.5 L 118.3 46.5 L 118.3 53.6 L 117.3 53.6 L 117.3 46.5 L 115.2 46.5 L 115.2 45.7 L 120.4 45.7 Z M 124.4 53.6 C 124.4 53.6 124.38 49.83 124.4 49.8 C 124.4 49.1 124.2 48.7 123.4 48.7 C 122.5 48.7 122.3 49.4 122.3 50.3 C 122.25 50.33 122.3 53.6 122.3 53.6 L 121.4 53.6 L 121.4 45.7 L 122.3 45.7 L 122.3 48.8 C 122.3 48.8 122.3 48.75 122.3 48.8 C 122.7 48.1 123.1 47.9 123.8 47.9 C 124.8 47.9 125.3 48.4 125.3 49.7 C 125.28 49.65 125.3 53.6 125.3 53.6 L 124.4 53.6 Z M 129.9 50.4 C 129.9 48.8 129.5 48.6 128.8 48.6 C 128.2 48.6 127.8 48.9 127.7 50.4 C 127.7 50.4 129.9 50.4 129.9 50.4 Z M 127.7 51.1 C 127.7 52.7 128.2 53 128.9 53 C 129.5 53 129.8 52.5 129.8 51.9 C 129.8 51.9 130.8 51.9 130.8 51.9 C 130.8 53.1 130.1 53.7 128.9 53.7 C 127.7 53.7 126.8 53.4 126.8 50.9 C 126.8 49.3 127 47.9 128.9 47.9 C 130.5 47.9 130.9 48.8 130.9 50.6 C 130.87 50.63 130.9 51.1 130.9 51.1 C 130.9 51.1 127.74 51.11 127.7 51.1 Z M 135.7 53.6 L 134.8 53.6 L 134.8 48 L 135.7 48 L 135.7 53.6 Z M 134.7 45.7 L 135.7 45.7 L 135.7 46.6 L 134.7 46.6 L 134.7 45.7 Z M 140.3 53.6 C 140.3 53.6 140.26 49.74 140.3 49.7 C 140.3 49.1 140.1 48.7 139.3 48.7 C 138.3 48.7 138.1 49.5 138.1 50.3 C 138.15 50.3 138.1 53.6 138.1 53.6 L 137.2 53.6 C 137.2 53.6 137.25 49.19 137.2 49.2 C 137.2 48.8 137.2 48.4 137.2 48 C 137.19 48.04 138.1 48 138.1 48 L 138.1 48.8 C 138.1 48.8 138.19 48.75 138.2 48.8 C 138.5 48.1 139 47.9 139.7 47.9 C 140.9 47.9 141.2 48.6 141.2 49.7 C 141.16 49.74 141.2 53.6 141.2 53.6 L 140.3 53.6 Z M 142.8 48 L 142.8 47 L 143.7 46.6 L 143.7 48 L 145 48 L 145 48.7 L 143.7 48.7 C 143.7 48.7 143.75 52.12 143.7 52.1 C 143.7 52.5 143.7 52.9 144.6 52.9 C 144.6 52.9 144.8 52.9 145 52.9 C 145 52.9 145 53.6 145 53.6 C 144.7 53.6 144.4 53.7 144.1 53.7 C 143.2 53.7 142.8 53.3 142.8 52.7 C 142.85 52.67 142.8 48.7 142.8 48.7 L 141.9 48.7 L 141.9 48 L 142.8 48 Z M 148.9 50.4 C 148.9 48.8 148.4 48.6 147.7 48.6 C 147.2 48.6 146.7 48.9 146.7 50.4 C 146.7 50.4 148.9 50.4 148.9 50.4 Z M 146.7 51.1 C 146.7 52.7 147.1 53 147.8 53 C 148.4 53 148.7 52.5 148.8 51.9 C 148.8 51.9 149.8 51.9 149.8 51.9 C 149.8 53.1 149 53.7 147.8 53.7 C 146.7 53.7 145.7 53.4 145.7 50.9 C 145.7 49.3 145.9 47.9 147.8 47.9 C 149.4 47.9 149.8 48.8 149.8 50.6 C 149.81 50.63 149.8 51.1 149.8 51.1 C 149.8 51.1 146.68 51.11 146.7 51.1 Z M 152.2 48.9 C 152.2 48.9 152.26 48.87 152.3 48.9 C 152.6 48 153.1 47.9 154 47.9 C 154 47.9 154 48.9 154 48.9 C 153.9 48.9 153.8 48.8 153.7 48.8 C 153.7 48.8 153.6 48.8 153.5 48.8 C 152.5 48.8 152.2 49.6 152.2 50.3 C 152.24 50.31 152.2 53.6 152.2 53.6 L 151.3 53.6 L 151.3 48 L 152.2 48 L 152.2 48.9 Z M 158 53.6 C 158 53.6 157.98 49.74 158 49.7 C 158 49.1 157.8 48.7 157 48.7 C 156 48.7 155.9 49.5 155.9 50.3 C 155.87 50.3 155.9 53.6 155.9 53.6 L 155 53.6 C 155 53.6 154.97 49.19 155 49.2 C 155 48.8 154.9 48.4 154.9 48 C 154.91 48.04 155.9 48 155.9 48 L 155.9 48.8 C 155.9 48.8 155.91 48.75 155.9 48.8 C 156.3 48.1 156.7 47.9 157.4 47.9 C 158.6 47.9 158.9 48.6 158.9 49.7 C 158.88 49.74 158.9 53.6 158.9 53.6 L 158 53.6 Z M 161.3 51.9 C 161.3 52.5 161.6 53 162.2 53 C 162.7 53 163.4 52.6 163.3 50.8 C 162.4 50.8 161.3 50.8 161.3 51.9 Z M 163.3 52.8 C 163.3 52.8 163.31 52.79 163.3 52.8 C 163 53.4 162.6 53.7 161.9 53.7 C 160.7 53.7 160.4 52.9 160.4 51.9 C 160.4 50.2 162 50.1 163.3 50.2 C 163.3 49.4 163.3 48.6 162.4 48.6 C 161.8 48.6 161.4 49 161.5 49.6 C 161.5 49.6 160.5 49.6 160.5 49.6 C 160.6 48.4 161.2 47.9 162.4 47.9 C 163.8 47.9 164.2 48.7 164.2 49.6 C 164.2 49.6 164.2 52.3 164.2 52.3 C 164.2 52.7 164.2 53.2 164.3 53.6 C 164.32 53.59 163.3 53.6 163.3 53.6 L 163.3 52.8 Z M 166.1 48 L 166.1 47 L 167 46.6 L 167 48 L 168.2 48 L 168.2 48.7 L 167 48.7 C 167 48.7 166.97 52.12 167 52.1 C 167 52.5 167 52.9 167.8 52.9 C 167.9 52.9 168 52.9 168.2 52.9 C 168.2 52.9 168.2 53.6 168.2 53.6 C 167.9 53.6 167.6 53.7 167.3 53.7 C 166.5 53.7 166.1 53.3 166.1 52.7 C 166.07 52.67 166.1 48.7 166.1 48.7 L 165.2 48.7 L 165.2 48 L 166.1 48 Z M 169.9 53.6 L 169 53.6 L 169 48 L 169.9 48 L 169.9 53.6 Z M 168.9 45.7 L 170 45.7 L 170 46.6 L 168.9 46.6 L 168.9 45.7 Z M 174.6 50.5 C 174.6 49 174.1 48.7 173.4 48.7 C 172.7 48.7 172.3 49 172.3 50.5 C 172.3 52.3 172.5 53 173.4 53 C 174.4 53 174.6 52.3 174.6 50.5 Z M 171.3 50.9 C 171.3 49.3 171.5 47.9 173.4 47.9 C 175.3 47.9 175.5 49.3 175.5 50.9 C 175.5 53.4 174.6 53.7 173.4 53.7 C 172.2 53.7 171.3 53.4 171.3 50.9 Z M 180 53.6 C 180 53.6 179.98 49.74 180 49.7 C 180 49.1 179.8 48.7 179 48.7 C 178 48.7 177.9 49.5 177.9 50.3 C 177.87 50.3 177.9 53.6 177.9 53.6 L 177 53.6 C 177 53.6 176.97 49.19 177 49.2 C 177 48.8 176.9 48.4 176.9 48 C 176.91 48.04 177.9 48 177.9 48 L 177.9 48.8 C 177.9 48.8 177.91 48.75 177.9 48.8 C 178.3 48.1 178.7 47.9 179.4 47.9 C 180.6 47.9 180.9 48.6 180.9 49.7 C 180.88 49.74 180.9 53.6 180.9 53.6 L 180 53.6 Z M 183.3 51.9 C 183.3 52.5 183.6 53 184.2 53 C 184.7 53 185.4 52.6 185.3 50.8 C 184.4 50.8 183.3 50.8 183.3 51.9 Z M 185.3 52.8 C 185.3 52.8 185.31 52.79 185.3 52.8 C 185 53.4 184.6 53.7 183.9 53.7 C 182.7 53.7 182.4 52.9 182.4 51.9 C 182.4 50.2 184 50.1 185.3 50.2 C 185.3 49.4 185.3 48.6 184.4 48.6 C 183.8 48.6 183.4 49 183.5 49.6 C 183.5 49.6 182.5 49.6 182.5 49.6 C 182.6 48.4 183.2 47.9 184.4 47.9 C 185.8 47.9 186.2 48.7 186.2 49.6 C 186.2 49.6 186.2 52.3 186.2 52.3 C 186.2 52.7 186.2 53.2 186.3 53.6 C 186.32 53.59 185.3 53.6 185.3 53.6 L 185.3 52.8 Z M 188.8 53.6 L 187.9 53.6 L 187.9 45.7 L 188.8 45.7 L 188.8 53.6 Z M 192.1 45.7 L 193.2 45.7 L 194.7 52.5 L 194.7 52.5 L 196.3 45.7 L 197.6 45.7 L 199.1 52.5 L 199.1 52.5 L 200.7 45.7 L 201.8 45.7 L 199.7 53.6 L 198.4 53.6 L 196.9 46.7 L 196.9 46.7 L 195.3 53.6 L 194.1 53.6 L 192.1 45.7 Z M 204.1 45.7 L 205.4 45.7 L 208 53.6 L 206.9 53.6 L 206.3 51.7 L 203.2 51.7 L 202.6 53.6 L 201.6 53.6 L 204.1 45.7 Z M 204.7 46.6 L 204.7 46.6 L 203.5 50.8 L 206 50.8 L 204.7 46.6 Z M 209 50.7 C 209 50.7 209 48.1 209 48.1 C 209 46.5 209.8 45.5 211.5 45.5 C 213.2 45.5 214 46.5 214 48.1 C 214 48.1 214 50.7 214 50.7 C 214 52.9 213.2 53.8 211.5 53.8 C 209.8 53.8 209 52.9 209 50.7 Z M 213 50.7 C 213 50.7 213 48 213 48 C 213 46.4 211.8 46.3 211.5 46.3 C 211.2 46.3 210 46.4 210 48 C 210 48 210 50.7 210 50.7 C 210 52.5 210.5 52.9 211.5 52.9 C 212.5 52.9 213 52.5 213 50.7 Z M 215.3 54.6 L 214.6 54.6 L 217.2 45.7 L 217.9 45.7 L 215.3 54.6 Z M 218.8 53.6 L 218.8 45.7 L 222.9 45.7 L 222.9 46.5 L 219.8 46.5 L 219.8 49.1 L 222.7 49.1 L 222.7 50 L 219.8 50 L 219.8 52.7 L 223 52.7 L 223 53.6 L 218.8 53.6 Z M 226.1 45.7 L 227.4 45.7 L 230 53.6 L 228.9 53.6 L 228.3 51.7 L 225.2 51.7 L 224.6 53.6 L 223.6 53.6 L 226.1 45.7 Z M 226.7 46.6 L 226.7 46.6 L 225.5 50.8 L 228 50.8 L 226.7 46.6 Z M 232.8 45.7 L 234.1 45.7 L 236.7 53.6 L 235.6 53.6 L 235 51.7 L 231.9 51.7 L 231.3 53.6 L 230.3 53.6 L 232.8 45.7 Z M 233.5 46.6 L 233.4 46.6 L 232.2 50.8 L 234.7 50.8 L 233.5 46.6 Z M 241.3 47.8 C 241.3 47.4 241.2 46.9 241 46.7 C 240.8 46.4 240.3 46.3 240.1 46.3 C 239.3 46.3 239 46.8 238.9 47 C 238.9 47 238.7 47.2 238.7 48.6 C 238.7 48.6 238.7 50.7 238.7 50.7 C 238.7 52.7 239.3 52.9 240.1 52.9 C 240.4 52.9 241.4 52.8 241.4 51.3 C 241.4 51.3 242.4 51.3 242.4 51.3 C 242.5 53.8 240.7 53.8 240.2 53.8 C 239.2 53.8 237.7 53.7 237.7 50.6 C 237.7 50.6 237.7 48.4 237.7 48.4 C 237.7 46.1 238.7 45.5 240.2 45.5 C 241.8 45.5 242.4 46.3 242.3 47.8 C 242.3 47.8 241.3 47.8 241.3 47.8 Z M 245 53.6 L 244 53.6 L 244 45.7 L 245 45.7 L 245 53.6 Z M 251.2 48.7 C 250.1 48.7 250.1 49.9 250.1 50.6 C 250.1 52.4 250.5 52.8 251.2 52.8 C 252.3 52.8 252.2 51.6 252.2 50.8 C 252.2 50 252.3 48.7 251.2 48.7 Z M 252.2 48 L 253.1 48 C 253.1 48 253.12 54.15 253.1 54.2 C 253.1 55.4 252.3 55.7 251.1 55.7 C 250.1 55.7 249.3 55.2 249.4 54.2 C 249.4 54.2 250.4 54.2 250.4 54.2 C 250.4 54.7 250.8 55 251.2 55 C 251.9 55 252.2 54.6 252.2 54.1 C 252.22 54.05 252.2 52.9 252.2 52.9 C 252.2 52.9 252.18 52.9 252.2 52.9 C 252 53.3 251.4 53.6 251 53.6 C 249.5 53.6 249.2 52.3 249.2 50.6 C 249.2 48.1 250.4 47.9 250.9 47.9 C 251.5 47.9 251.9 48.2 252.2 48.7 C 252.2 48.72 252.2 48.7 252.2 48.7 L 252.2 48 Z M 257.8 48 L 258.7 48 C 258.7 48 258.65 52.44 258.7 52.4 C 258.7 52.8 258.7 53.2 258.7 53.6 C 258.71 53.59 257.8 53.6 257.8 53.6 L 257.8 52.9 C 257.8 52.9 257.72 52.92 257.7 52.9 C 257.4 53.4 256.9 53.7 256.3 53.7 C 255.3 53.7 254.8 53.2 254.8 52.3 C 254.81 52.27 254.8 48 254.8 48 L 255.7 48 C 255.7 48 255.71 51.89 255.7 51.9 C 255.7 52.6 256 53 256.7 53 C 257.1 53 257.8 52.6 257.8 51.7 C 257.75 51.72 257.8 48 257.8 48 Z M 261.2 53.6 L 260.3 53.6 L 260.3 48 L 261.2 48 L 261.2 53.6 Z M 260.2 45.7 L 261.2 45.7 L 261.2 46.6 L 260.2 46.6 L 260.2 45.7 Z M 264.6 48.7 C 263.6 48.7 263.5 49.4 263.5 50.9 C 263.5 51.8 263.5 53 264.6 53 C 265.7 53 265.7 51.7 265.7 50.6 C 265.7 49.9 265.6 48.7 264.6 48.7 Z M 265.7 45.7 L 266.6 45.7 L 266.6 53.6 L 265.7 53.6 L 265.7 52.9 C 265.7 52.9 265.64 52.93 265.6 52.9 C 265.3 53.4 264.9 53.7 264.4 53.7 C 263.5 53.7 262.6 53.4 262.6 50.9 C 262.6 49.5 262.6 47.9 264.4 47.9 C 264.9 47.9 265.3 48.2 265.6 48.6 C 265.63 48.6 265.7 48.6 265.7 48.6 L 265.7 45.7 Z M 271.3 50.4 C 271.3 48.8 270.8 48.6 270.2 48.6 C 269.6 48.6 269.1 48.9 269.1 50.4 C 269.1 50.4 271.3 50.4 271.3 50.4 Z M 269.1 51.1 C 269.1 52.7 269.5 53 270.2 53 C 270.8 53 271.2 52.5 271.2 51.9 C 271.2 51.9 272.2 51.9 272.2 51.9 C 272.2 53.1 271.4 53.7 270.2 53.7 C 269.1 53.7 268.1 53.4 268.1 50.9 C 268.1 49.3 268.3 47.9 270.2 47.9 C 271.8 47.9 272.2 48.8 272.2 50.6 C 272.22 50.63 272.2 51.1 272.2 51.1 C 272.2 51.1 269.1 51.11 269.1 51.1 Z M 274.6 53.6 L 273.7 53.6 L 273.7 45.7 L 274.6 45.7 L 274.6 53.6 Z M 277 53.6 L 276.1 53.6 L 276.1 48 L 277 48 L 277 53.6 Z M 276.1 45.7 L 277.1 45.7 L 277.1 46.6 L 276.1 46.6 L 276.1 45.7 Z M 281.6 53.6 C 281.6 53.6 281.62 49.74 281.6 49.7 C 281.6 49.1 281.4 48.7 280.6 48.7 C 279.6 48.7 279.5 49.5 279.5 50.3 C 279.51 50.3 279.5 53.6 279.5 53.6 L 278.6 53.6 C 278.6 53.6 278.61 49.19 278.6 49.2 C 278.6 48.8 278.6 48.4 278.6 48 C 278.55 48.04 279.5 48 279.5 48 L 279.5 48.8 C 279.5 48.8 279.55 48.75 279.6 48.8 C 279.9 48.1 280.3 47.9 281 47.9 C 282.2 47.9 282.5 48.6 282.5 49.7 C 282.52 49.74 282.5 53.6 282.5 53.6 L 281.6 53.6 Z M 287.2 50.4 C 287.2 48.8 286.7 48.6 286 48.6 C 285.5 48.6 285 48.9 285 50.4 C 285 50.4 287.2 50.4 287.2 50.4 Z M 285 51.1 C 285 52.7 285.4 53 286.1 53 C 286.7 53 287 52.5 287.1 51.9 C 287.1 51.9 288.1 51.9 288.1 51.9 C 288.1 53.1 287.3 53.7 286.1 53.7 C 285 53.7 284 53.4 284 50.9 C 284 49.3 284.2 47.9 286.1 47.9 C 287.7 47.9 288.1 48.8 288.1 50.6 C 288.11 50.63 288.1 51.1 288.1 51.1 C 288.1 51.1 284.98 51.11 285 51.1 Z M 292.2 48 C 292.2 48 292.21 46.96 292.2 47 C 292.2 45.8 293 45.6 293.8 45.6 C 294 45.6 294.1 45.6 294.2 45.7 C 294.2 45.7 294.2 46.3 294.2 46.3 C 293.3 46.2 293.1 46.6 293.1 47.1 C 293.11 47.09 293.1 48 293.1 48 L 294.2 48 L 294.2 48.7 L 293.1 48.7 L 293.1 53.6 L 292.2 53.6 L 292.2 48.7 L 291.4 48.7 L 291.4 48 L 292.2 48 Z M 298.2 50.5 C 298.2 49 297.8 48.7 297.1 48.7 C 296.4 48.7 295.9 49 295.9 50.5 C 295.9 52.3 296.1 53 297.1 53 C 298 53 298.2 52.3 298.2 50.5 Z M 295 50.9 C 295 49.3 295.1 47.9 297.1 47.9 C 299 47.9 299.2 49.3 299.2 50.9 C 299.2 53.4 298.2 53.7 297.1 53.7 C 295.9 53.7 295 53.4 295 50.9 Z M 301.5 48.9 C 301.5 48.9 301.56 48.87 301.6 48.9 C 301.9 48 302.4 47.9 303.3 47.9 C 303.3 47.9 303.3 48.9 303.3 48.9 C 303.2 48.9 303.1 48.8 303 48.8 C 303 48.8 302.9 48.8 302.8 48.8 C 301.8 48.8 301.5 49.6 301.5 50.3 C 301.54 50.31 301.5 53.6 301.5 53.6 L 300.6 53.6 L 300.6 48 L 301.5 48 L 301.5 48.9 Z M 306.8 48 L 306.8 47 L 307.7 46.6 L 307.7 48 L 308.9 48 L 308.9 48.7 L 307.7 48.7 C 307.7 48.7 307.71 52.12 307.7 52.1 C 307.7 52.5 307.7 52.9 308.5 52.9 C 308.6 52.9 308.7 52.9 308.9 52.9 C 308.9 52.9 308.9 53.6 308.9 53.6 C 308.6 53.6 308.3 53.7 308.1 53.7 C 307.2 53.7 306.8 53.3 306.8 52.7 C 306.81 52.67 306.8 48.7 306.8 48.7 L 305.9 48.7 L 305.9 48 L 306.8 48 Z M 312.8 53.6 C 312.8 53.6 312.78 49.83 312.8 49.8 C 312.8 49.1 312.6 48.7 311.8 48.7 C 310.9 48.7 310.7 49.4 310.7 50.3 C 310.66 50.33 310.7 53.6 310.7 53.6 L 309.8 53.6 L 309.8 45.7 L 310.7 45.7 L 310.7 48.8 C 310.7 48.8 310.7 48.75 310.7 48.8 C 311.1 48.1 311.5 47.9 312.2 47.9 C 313.2 47.9 313.7 48.4 313.7 49.7 C 313.68 49.65 313.7 53.6 313.7 53.6 L 312.8 53.6 Z M 318.3 50.4 C 318.3 48.8 317.9 48.6 317.2 48.6 C 316.6 48.6 316.2 48.9 316.1 50.4 C 316.1 50.4 318.3 50.4 318.3 50.4 Z M 316.1 51.1 C 316.1 52.7 316.6 53 317.3 53 C 317.9 53 318.2 52.5 318.2 51.9 C 318.2 51.9 319.2 51.9 319.2 51.9 C 319.2 53.1 318.5 53.7 317.3 53.7 C 316.1 53.7 315.2 53.4 315.2 50.9 C 315.2 49.3 315.4 47.9 317.3 47.9 C 318.9 47.9 319.3 48.8 319.3 50.6 C 319.27 50.63 319.3 51.1 319.3 51.1 C 319.3 51.1 316.15 51.11 316.1 51.1 Z M 325.9 53.6 C 325.9 53.6 325.94 49.74 325.9 49.7 C 325.9 49.2 325.8 48.7 325.1 48.7 C 324.8 48.7 324.4 48.8 324.3 49 C 324.1 49.3 324.1 49.6 324.1 49.9 C 324.07 49.85 324.1 53.6 324.1 53.6 L 323.2 53.6 C 323.2 53.6 323.17 49.19 323.2 49.2 C 323.2 48.8 323.1 48.4 323.1 48 C 323.11 48.04 324.1 48 324.1 48 L 324.1 48.7 C 324.1 48.7 324.09 48.73 324.1 48.7 C 324.4 48.1 324.8 47.9 325.5 47.9 C 326 47.9 326.6 48.1 326.8 48.6 C 327.1 48 327.6 47.9 328.1 47.9 C 328.7 47.9 329.6 48.1 329.6 49.4 C 329.61 49.37 329.6 53.6 329.6 53.6 L 328.7 53.6 C 328.7 53.6 328.71 49.74 328.7 49.7 C 328.7 49.2 328.6 48.7 327.8 48.7 C 327.5 48.7 327.4 48.7 327.1 48.9 C 326.9 49.1 326.8 49.6 326.8 49.9 C 326.84 49.85 326.8 53.6 326.8 53.6 L 325.9 53.6 Z M 332 51.9 C 332 52.5 332.2 53 332.8 53 C 333.4 53 334.1 52.6 334 50.8 C 333.1 50.8 332 50.8 332 51.9 Z M 334 52.8 C 334 52.8 333.99 52.79 334 52.8 C 333.7 53.4 333.3 53.7 332.6 53.7 C 331.4 53.7 331.1 52.9 331.1 51.9 C 331.1 50.2 332.7 50.1 334 50.2 C 334 49.4 334 48.6 333.1 48.6 C 332.4 48.6 332.1 49 332.2 49.6 C 332.2 49.6 331.2 49.6 331.2 49.6 C 331.3 48.4 331.9 47.9 333.1 47.9 C 334.5 47.9 334.9 48.7 334.9 49.6 C 334.9 49.6 334.9 52.3 334.9 52.3 C 334.9 52.7 334.9 53.2 335 53.6 C 335 53.59 334 53.6 334 53.6 L 334 52.8 Z M 339.7 53.6 C 339.7 53.6 339.67 49.74 339.7 49.7 C 339.7 49.1 339.5 48.7 338.7 48.7 C 337.7 48.7 337.6 49.5 337.6 50.3 C 337.55 50.3 337.6 53.6 337.6 53.6 L 336.7 53.6 C 336.7 53.6 336.65 49.19 336.7 49.2 C 336.7 48.8 336.6 48.4 336.6 48 C 336.6 48.04 337.6 48 337.6 48 L 337.6 48.8 C 337.6 48.8 337.6 48.75 337.6 48.8 C 337.9 48.1 338.4 47.9 339.1 47.9 C 340.3 47.9 340.6 48.6 340.6 49.7 C 340.57 49.74 340.6 53.6 340.6 53.6 L 339.7 53.6 Z M 343 51.9 C 343 52.5 343.2 53 343.8 53 C 344.4 53 345.1 52.6 345 50.8 C 344.1 50.8 343 50.8 343 51.9 Z M 345 52.8 C 345 52.8 344.99 52.79 345 52.8 C 344.7 53.4 344.3 53.7 343.6 53.7 C 342.4 53.7 342.1 52.9 342.1 51.9 C 342.1 50.2 343.7 50.1 345 50.2 C 345 49.4 345 48.6 344.1 48.6 C 343.4 48.6 343.1 49 343.2 49.6 C 343.2 49.6 342.2 49.6 342.2 49.6 C 342.3 48.4 342.9 47.9 344.1 47.9 C 345.5 47.9 345.9 48.7 345.9 49.6 C 345.9 49.6 345.9 52.3 345.9 52.3 C 345.9 52.7 345.9 53.2 346 53.6 C 346 53.59 345 53.6 345 53.6 L 345 52.8 Z M 349.5 48.7 C 348.5 48.7 348.5 49.9 348.5 50.6 C 348.5 52.4 348.9 52.8 349.6 52.8 C 350.6 52.8 350.6 51.6 350.6 50.8 C 350.6 50 350.7 48.7 349.5 48.7 Z M 350.6 48 L 351.5 48 C 351.5 48 351.49 54.15 351.5 54.2 C 351.5 55.4 350.7 55.7 349.4 55.7 C 348.5 55.7 347.7 55.2 347.8 54.2 C 347.8 54.2 348.8 54.2 348.8 54.2 C 348.8 54.7 349.1 55 349.6 55 C 350.2 55 350.6 54.6 350.6 54.1 C 350.59 54.05 350.6 52.9 350.6 52.9 C 350.6 52.9 350.56 52.9 350.6 52.9 C 350.3 53.3 349.8 53.6 349.3 53.6 C 347.8 53.6 347.5 52.3 347.5 50.6 C 347.5 48.1 348.8 47.9 349.3 47.9 C 349.9 47.9 350.3 48.2 350.6 48.7 C 350.57 48.72 350.6 48.7 350.6 48.7 L 350.6 48 Z M 356.2 50.4 C 356.2 48.8 355.7 48.6 355.1 48.6 C 354.5 48.6 354 48.9 354 50.4 C 354 50.4 356.2 50.4 356.2 50.4 Z M 354 51.1 C 354 52.7 354.4 53 355.2 53 C 355.8 53 356.1 52.5 356.1 51.9 C 356.1 51.9 357.1 51.9 357.1 51.9 C 357.1 53.1 356.3 53.7 355.2 53.7 C 354 53.7 353.1 53.4 353.1 50.9 C 353.1 49.3 353.3 47.9 355.2 47.9 C 356.8 47.9 357.2 48.8 357.2 50.6 C 357.15 50.63 357.2 51.1 357.2 51.1 C 357.2 51.1 354.03 51.11 354 51.1 Z M 361.4 53.6 C 361.4 53.6 361.38 49.74 361.4 49.7 C 361.4 49.2 361.2 48.7 360.5 48.7 C 360.2 48.7 359.8 48.8 359.7 49 C 359.6 49.3 359.5 49.6 359.5 49.9 C 359.51 49.85 359.5 53.6 359.5 53.6 L 358.6 53.6 C 358.6 53.6 358.61 49.19 358.6 49.2 C 358.6 48.8 358.6 48.4 358.6 48 C 358.55 48.04 359.5 48 359.5 48 L 359.5 48.7 C 359.5 48.7 359.53 48.73 359.5 48.7 C 359.8 48.1 360.3 47.9 360.9 47.9 C 361.4 47.9 362 48.1 362.2 48.6 C 362.5 48 363 47.9 363.5 47.9 C 364.1 47.9 365.1 48.1 365.1 49.4 C 365.05 49.37 365.1 53.6 365.1 53.6 L 364.2 53.6 C 364.2 53.6 364.15 49.74 364.2 49.7 C 364.2 49.2 364 48.7 363.3 48.7 C 362.9 48.7 362.8 48.7 362.6 48.9 C 362.3 49.1 362.3 49.6 362.3 49.9 C 362.28 49.85 362.3 53.6 362.3 53.6 L 361.4 53.6 Z M 369.6 50.4 C 369.6 48.8 369.2 48.6 368.5 48.6 C 368 48.6 367.5 48.9 367.5 50.4 C 367.5 50.4 369.6 50.4 369.6 50.4 Z M 367.5 51.1 C 367.5 52.7 367.9 53 368.6 53 C 369.2 53 369.5 52.5 369.6 51.9 C 369.6 51.9 370.6 51.9 370.6 51.9 C 370.5 53.1 369.8 53.7 368.6 53.7 C 367.4 53.7 366.5 53.4 366.5 50.9 C 366.5 49.3 366.7 47.9 368.6 47.9 C 370.2 47.9 370.6 48.8 370.6 50.6 C 370.6 50.63 370.6 51.1 370.6 51.1 C 370.6 51.1 367.47 51.11 367.5 51.1 Z M 375.1 53.6 C 375.1 53.6 375.11 49.74 375.1 49.7 C 375.1 49.1 374.9 48.7 374.1 48.7 C 373.1 48.7 373 49.5 373 50.3 C 372.99 50.3 373 53.6 373 53.6 L 372.1 53.6 C 372.1 53.6 372.09 49.19 372.1 49.2 C 372.1 48.8 372.1 48.4 372 48 C 372.04 48.04 373 48 373 48 L 373 48.8 C 373 48.8 373.04 48.75 373 48.8 C 373.4 48.1 373.8 47.9 374.5 47.9 C 375.7 47.9 376 48.6 376 49.7 C 376.01 49.74 376 53.6 376 53.6 L 375.1 53.6 Z M 377.7 48 L 377.7 47 L 378.6 46.6 L 378.6 48 L 379.8 48 L 379.8 48.7 L 378.6 48.7 C 378.6 48.7 378.59 52.12 378.6 52.1 C 378.6 52.5 378.6 52.9 379.4 52.9 C 379.5 52.9 379.6 52.9 379.8 52.9 C 379.8 52.9 379.8 53.6 379.8 53.6 C 379.5 53.6 379.2 53.7 378.9 53.7 C 378.1 53.7 377.7 53.3 377.7 52.7 C 377.69 52.67 377.7 48.7 377.7 48.7 L 376.8 48.7 L 376.8 48 L 377.7 48 Z M 386.2 50.5 C 386.2 49 385.7 48.7 385.1 48.7 C 384.4 48.7 383.9 49 383.9 50.5 C 383.9 52.3 384.1 53 385.1 53 C 386 53 386.2 52.3 386.2 50.5 Z M 382.9 50.9 C 382.9 49.3 383.1 47.9 385.1 47.9 C 387 47.9 387.2 49.3 387.2 50.9 C 387.2 53.4 386.2 53.7 385.1 53.7 C 383.9 53.7 382.9 53.4 382.9 50.9 Z M 388.8 48 C 388.8 48 388.76 46.96 388.8 47 C 388.8 45.8 389.5 45.6 390.4 45.6 C 390.5 45.6 390.6 45.6 390.8 45.7 C 390.8 45.7 390.8 46.3 390.8 46.3 C 389.8 46.2 389.7 46.6 389.7 47.1 C 389.66 47.09 389.7 48 389.7 48 L 390.8 48 L 390.8 48.7 L 389.7 48.7 L 389.7 53.6 L 388.8 53.6 L 388.8 48.7 L 387.9 48.7 L 387.9 48 L 388.8 48 Z " stroke="none" fill="#fff"/>  </g>  <g id="Polygon191582">    <path d="M 34.3 31.5 C 34.3 31.5 35.06 31.45 35.1 31.5 C 35.7 31.5 35.9 30.8 35.9 30.3 C 35.9 29.5 35.6 29.2 35.1 29.2 C 35.06 29.24 34.3 29.2 34.3 29.2 L 34.3 31.5 Z M 34.3 36 L 32.7 36 L 32.7 28 C 32.7 28 35.73 28.02 35.7 28 C 36.9 28 37.6 28.7 37.6 30.1 C 37.6 31.1 37.2 31.9 36.1 32 C 36.1 32 36.1 32.1 36.1 32.1 C 36.5 32.1 37.6 32.2 37.6 33.6 C 37.6 34.1 37.6 35.6 37.7 36 C 37.7 36 36.1 36 36.1 36 C 35.9 35.5 35.9 34.9 35.9 34.4 C 35.9 33.5 36 32.7 34.7 32.7 C 34.75 32.67 34.3 32.7 34.3 32.7 L 34.3 36 Z M 41.6 32.6 C 41.6 32 41.6 31.3 40.9 31.3 C 40.2 31.3 40.2 32.1 40.2 32.6 C 40.2 32.6 41.6 32.6 41.6 32.6 Z M 40.2 33.4 C 40.2 34.1 40.2 35.1 40.9 35.1 C 41.4 35.1 41.5 34.6 41.5 34.1 C 41.5 34.1 43.1 34.1 43.1 34.1 C 43.1 34.7 42.9 35.2 42.5 35.5 C 42.1 35.9 41.6 36.1 40.9 36.1 C 38.9 36.1 38.6 34.9 38.6 33.1 C 38.6 31.6 38.8 30.3 40.9 30.3 C 43 30.3 43.2 31.7 43.1 33.4 C 43.1 33.4 40.2 33.4 40.2 33.4 Z M 46.6 29 C 46 28.9 45.9 29.2 45.9 29.7 C 45.86 29.74 45.9 30.4 45.9 30.4 L 46.6 30.4 L 46.6 31.4 L 45.9 31.4 L 45.9 36 L 44.3 36 L 44.3 31.4 L 43.6 31.4 L 43.6 30.4 C 43.6 30.4 44.32 30.41 44.3 30.4 C 44.3 28.8 44.2 28 46.1 28 C 46.3 28 46.4 28 46.6 28 C 46.6 28 46.6 29 46.6 29 Z M 50.1 32.6 C 50.1 32 50.2 31.3 49.4 31.3 C 48.7 31.3 48.7 32.1 48.7 32.6 C 48.7 32.6 50.1 32.6 50.1 32.6 Z M 48.7 33.4 C 48.7 34.1 48.7 35.1 49.4 35.1 C 50 35.1 50.1 34.6 50.1 34.1 C 50.1 34.1 51.7 34.1 51.7 34.1 C 51.6 34.7 51.4 35.2 51.1 35.5 C 50.7 35.9 50.2 36.1 49.4 36.1 C 47.4 36.1 47.2 34.9 47.2 33.1 C 47.2 31.6 47.4 30.3 49.4 30.3 C 51.5 30.3 51.7 31.7 51.7 33.4 C 51.7 33.4 48.7 33.4 48.7 33.4 Z M 54.3 30.4 L 54.3 31.1 C 54.3 31.1 54.29 31.12 54.3 31.1 C 54.6 30.5 55.1 30.3 55.7 30.3 C 55.7 30.3 55.7 31.7 55.7 31.7 C 54.4 31.6 54.3 32.4 54.3 32.9 C 54.34 32.94 54.3 36 54.3 36 L 52.8 36 L 52.8 30.4 L 54.3 30.4 Z M 59.3 32.6 C 59.3 32 59.3 31.3 58.6 31.3 C 57.9 31.3 57.9 32.1 57.9 32.6 C 57.9 32.6 59.3 32.6 59.3 32.6 Z M 57.9 33.4 C 57.9 34.1 57.9 35.1 58.6 35.1 C 59.1 35.1 59.2 34.6 59.2 34.1 C 59.2 34.1 60.8 34.1 60.8 34.1 C 60.8 34.7 60.6 35.2 60.2 35.5 C 59.9 35.9 59.3 36.1 58.6 36.1 C 56.6 36.1 56.3 34.9 56.3 33.1 C 56.3 31.6 56.5 30.3 58.6 30.3 C 60.7 30.3 60.9 31.7 60.9 33.4 C 60.9 33.4 57.9 33.4 57.9 33.4 Z M 63.5 31 C 63.5 31 63.53 30.97 63.5 31 C 63.7 30.7 63.9 30.6 64.1 30.5 C 64.3 30.3 64.5 30.3 64.8 30.3 C 65.6 30.3 66.2 30.7 66.2 31.5 C 66.22 31.51 66.2 36 66.2 36 L 64.7 36 C 64.7 36 64.67 32.14 64.7 32.1 C 64.7 31.6 64.6 31.3 64.1 31.3 C 63.6 31.3 63.5 31.6 63.5 32.1 C 63.5 32.14 63.5 36 63.5 36 L 62 36 L 62 30.4 L 63.5 30.4 L 63.5 31 Z M 70.3 32.4 C 70.3 31.6 70.1 31.3 69.6 31.3 C 68.9 31.3 68.9 31.9 68.9 33 C 68.9 34.7 69 35.1 69.6 35.1 C 70.1 35.1 70.3 34.6 70.3 33.9 C 70.3 33.9 71.9 33.9 71.9 33.9 C 71.9 35.4 71 36.1 69.6 36.1 C 67.6 36.1 67.3 34.9 67.3 33.1 C 67.3 31.6 67.5 30.3 69.6 30.3 C 71 30.3 71.8 30.9 71.8 32.4 C 71.8 32.4 70.3 32.4 70.3 32.4 Z M 75.8 32.6 C 75.8 32 75.8 31.3 75.1 31.3 C 74.4 31.3 74.4 32.1 74.4 32.6 C 74.4 32.6 75.8 32.6 75.8 32.6 Z M 74.4 33.4 C 74.4 34.1 74.4 35.1 75.1 35.1 C 75.6 35.1 75.7 34.6 75.7 34.1 C 75.7 34.1 77.3 34.1 77.3 34.1 C 77.3 34.7 77.1 35.2 76.7 35.5 C 76.4 35.9 75.8 36.1 75.1 36.1 C 73.1 36.1 72.8 34.9 72.8 33.1 C 72.8 31.6 73 30.3 75.1 30.3 C 77.2 30.3 77.4 31.7 77.4 33.4 C 77.4 33.4 74.4 33.4 74.4 33.4 Z M 79.7 30.4 L 79.7 31.9 L 78.4 31.9 L 78.4 30.4 L 79.7 30.4 Z M 79.7 36 L 78.4 36 L 78.4 34.5 L 79.7 34.5 L 79.7 36 Z " stroke="none" fill="#fff"/>  </g></svg>