<?xml version="1.0" standalone="no"?><!DOCTYPE svg PUBLIC "-//W3C//DTD SVG 1.1//EN" "http://www.w3.org/Graphics/SVG/1.1/DTD/svg11.dtd"><svg xmlns="http://www.w3.org/2000/svg" version="1.1" width="259px" height="45.3px" viewBox="0 -5 259 45.3" style="top:-5px">  <desc>Double blind, placebo controlled treatment period 6 months</desc>  <defs/>  <g id="Polygon194479">    <path d="M 47.1 23.5 L 48 23.5 L 48 22.2 L 50.2 21.3 L 50.2 23.5 L 51.4 23.5 L 51.4 24.8 L 50.2 24.8 C 50.2 24.8 50.22 29.06 50.2 29.1 C 50.2 29.7 50.2 30 50.9 30 C 51.1 30 51.2 30 51.3 30 C 51.3 30 51.3 31.4 51.3 31.4 C 51 31.4 50.7 31.4 50.2 31.4 C 48.3 31.4 48 30.2 48 29.7 C 48.02 29.7 48 24.8 48 24.8 L 47.1 24.8 L 47.1 23.5 Z M 54.4 23.5 L 54.4 24.5 C 54.4 24.5 54.48 24.5 54.5 24.5 C 54.9 23.6 55.6 23.3 56.5 23.3 C 56.5 23.3 56.5 25.3 56.5 25.3 C 54.6 25.2 54.6 26.3 54.6 27.1 C 54.56 27.08 54.6 31.4 54.6 31.4 L 52.4 31.4 L 52.4 23.5 L 54.4 23.5 Z M 61.6 26.5 C 61.6 25.8 61.6 24.7 60.6 24.7 C 59.6 24.7 59.6 25.9 59.6 26.5 C 59.6 26.5 61.6 26.5 61.6 26.5 Z M 59.6 27.8 C 59.6 28.7 59.6 30.1 60.6 30.1 C 61.4 30.1 61.5 29.4 61.5 28.7 C 61.5 28.7 63.8 28.7 63.8 28.7 C 63.7 29.6 63.4 30.3 62.9 30.8 C 62.4 31.2 61.6 31.5 60.6 31.5 C 57.7 31.5 57.4 29.8 57.4 27.3 C 57.4 25.2 57.7 23.3 60.6 23.3 C 63.5 23.3 63.9 25.3 63.8 27.8 C 63.8 27.8 59.6 27.8 59.6 27.8 Z M 67.3 28.9 C 67.3 29.5 67.4 30.2 68.1 30.2 C 69.4 30.2 69.2 28.4 69.2 27.6 C 68.1 27.6 67.3 27.5 67.3 28.9 Z M 71.3 29.9 C 71.3 30.4 71.4 30.9 71.4 31.4 C 71.45 31.37 69.4 31.4 69.4 31.4 L 69.3 30.3 C 69.3 30.3 69.28 30.33 69.3 30.3 C 68.8 31.1 68.2 31.5 67.2 31.5 C 65.7 31.5 65.1 30.4 65.1 29 C 65.1 26.4 67.1 26.3 69.2 26.3 C 69.2 26.3 69.2 25.7 69.2 25.7 C 69.2 25 69.1 24.6 68.3 24.6 C 67.5 24.6 67.5 25.1 67.5 25.8 C 67.5 25.8 65.3 25.8 65.3 25.8 C 65.3 24.8 65.6 24.2 66.1 23.8 C 66.6 23.5 67.3 23.3 68.2 23.3 C 71 23.3 71.3 24.5 71.3 26 C 71.3 26 71.3 29.9 71.3 29.9 Z M 72.3 23.5 L 73.2 23.5 L 73.2 22.2 L 75.4 21.3 L 75.4 23.5 L 76.5 23.5 L 76.5 24.8 L 75.4 24.8 C 75.4 24.8 75.36 29.06 75.4 29.1 C 75.4 29.7 75.3 30 76.1 30 C 76.2 30 76.3 30 76.5 30 C 76.5 30 76.5 31.4 76.5 31.4 C 76.2 31.4 75.8 31.4 75.3 31.4 C 73.4 31.4 73.2 30.2 73.2 29.7 C 73.17 29.7 73.2 24.8 73.2 24.8 L 72.3 24.8 L 72.3 23.5 Z M 79.5 24.3 C 79.5 24.3 79.56 24.28 79.6 24.3 C 80 23.6 80.6 23.3 81.4 23.3 C 82.2 23.3 82.8 23.7 83.2 24.3 C 83.7 23.6 84.3 23.3 85.2 23.3 C 86.3 23.3 87.2 24 87.2 25 C 87.2 25.05 87.2 31.4 87.2 31.4 L 85 31.4 C 85 31.4 85 25.94 85 25.9 C 85 25.2 84.9 24.7 84.2 24.7 C 83.5 24.7 83.3 25.2 83.3 25.9 C 83.34 25.94 83.3 31.4 83.3 31.4 L 81.2 31.4 C 81.2 31.4 81.19 25.94 81.2 25.9 C 81.2 25.2 81.1 24.7 80.4 24.7 C 79.7 24.7 79.5 25.2 79.5 25.9 C 79.53 25.94 79.5 31.4 79.5 31.4 L 77.3 31.4 L 77.3 23.5 L 79.5 23.5 L 79.5 24.3 Z M 92.8 26.5 C 92.8 25.8 92.8 24.7 91.8 24.7 C 90.8 24.7 90.8 25.9 90.8 26.5 C 90.8 26.5 92.8 26.5 92.8 26.5 Z M 90.8 27.8 C 90.8 28.7 90.8 30.1 91.8 30.1 C 92.6 30.1 92.7 29.4 92.7 28.7 C 92.7 28.7 95 28.7 95 28.7 C 94.9 29.6 94.7 30.3 94.1 30.8 C 93.6 31.2 92.8 31.5 91.8 31.5 C 89 31.5 88.6 29.8 88.6 27.3 C 88.6 25.2 88.9 23.3 91.8 23.3 C 94.8 23.3 95.1 25.3 95 27.8 C 95 27.8 90.8 27.8 90.8 27.8 Z M 98.8 24.3 C 98.8 24.3 98.81 24.29 98.8 24.3 C 99 23.9 99.3 23.7 99.6 23.6 C 99.9 23.4 100.3 23.3 100.7 23.3 C 101.7 23.3 102.6 24 102.6 25 C 102.64 25.05 102.6 31.4 102.6 31.4 L 100.4 31.4 C 100.4 31.4 100.44 25.94 100.4 25.9 C 100.4 25.2 100.3 24.7 99.6 24.7 C 98.9 24.7 98.8 25.2 98.8 25.9 C 98.78 25.94 98.8 31.4 98.8 31.4 L 96.6 31.4 L 96.6 23.5 L 98.8 23.5 L 98.8 24.3 Z M 103.5 23.5 L 104.4 23.5 L 104.4 22.2 L 106.6 21.3 L 106.6 23.5 L 107.7 23.5 L 107.7 24.8 L 106.6 24.8 C 106.6 24.8 106.58 29.06 106.6 29.1 C 106.6 29.7 106.6 30 107.3 30 C 107.4 30 107.6 30 107.7 30 C 107.7 30 107.7 31.4 107.7 31.4 C 107.4 31.4 107.1 31.4 106.5 31.4 C 104.6 31.4 104.4 30.2 104.4 29.7 C 104.39 29.7 104.4 24.8 104.4 24.8 L 103.5 24.8 L 103.5 23.5 Z M 116.2 27.4 C 116.2 25.8 116.2 24.7 115.3 24.7 C 114.4 24.7 114.4 25.8 114.4 27.4 C 114.4 29.3 114.5 30.2 115.3 30.2 C 116.1 30.2 116.2 29.3 116.2 27.4 Z M 114.3 23.5 L 114.3 24.4 C 114.3 24.4 114.31 24.36 114.3 24.4 C 114.7 23.6 115.3 23.3 116.2 23.3 C 118.4 23.3 118.4 25.9 118.4 27.5 C 118.4 29.1 118.4 31.5 116.2 31.5 C 115.4 31.5 114.9 31.3 114.4 30.6 C 114.42 30.62 114.4 30.6 114.4 30.6 L 114.4 34.8 L 112.2 34.8 L 112.2 23.5 L 114.3 23.5 Z M 124 26.5 C 124 25.8 124.1 24.7 123 24.7 C 122 24.7 122 25.9 122 26.5 C 122 26.5 124 26.5 124 26.5 Z M 122 27.8 C 122 28.7 122.1 30.1 123 30.1 C 123.8 30.1 124 29.4 124 28.7 C 124 28.7 126.2 28.7 126.2 28.7 C 126.2 29.6 125.9 30.3 125.3 30.8 C 124.8 31.2 124.1 31.5 123 31.5 C 120.2 31.5 119.8 29.8 119.8 27.3 C 119.8 25.2 120.1 23.3 123 23.3 C 126 23.3 126.3 25.3 126.2 27.8 C 126.2 27.8 122 27.8 122 27.8 Z M 129.9 23.5 L 129.9 24.5 C 129.9 24.5 129.92 24.5 129.9 24.5 C 130.3 23.6 131.1 23.3 132 23.3 C 132 23.3 132 25.3 132 25.3 C 130 25.2 130 26.3 130 27.1 C 130 27.08 130 31.4 130 31.4 L 127.8 31.4 L 127.8 23.5 L 129.9 23.5 Z M 135.4 31.4 L 133.2 31.4 L 133.2 23.5 L 135.4 23.5 L 135.4 31.4 Z M 135.4 20.1 L 135.4 21.8 L 133.2 21.8 L 133.2 20.1 L 135.4 20.1 Z M 141.4 27.2 C 141.4 25.6 141.3 24.7 140.4 24.7 C 139.4 24.7 139.3 25.6 139.3 27.2 C 139.3 29.6 139.6 30.1 140.4 30.1 C 141.2 30.1 141.4 29.6 141.4 27.2 Z M 137.2 27.3 C 137.2 25.2 137.5 23.3 140.4 23.3 C 143.3 23.3 143.6 25.2 143.6 27.3 C 143.6 29.8 143.2 31.5 140.4 31.5 C 137.5 31.5 137.2 29.8 137.2 27.3 Z M 149 27.4 C 149 25.8 149 24.7 148.1 24.7 C 147.1 24.7 147.1 25.8 147.1 27.4 C 147.1 29.3 147.3 30.2 148.1 30.2 C 148.8 30.2 149 29.3 149 27.4 Z M 149.1 31.4 L 149.1 30.5 C 149.1 30.5 149.05 30.5 149 30.5 C 148.6 31.3 148 31.5 147.2 31.5 C 144.9 31.5 145 29 145 27.4 C 145 25.8 144.9 23.3 147.1 23.3 C 147.9 23.3 148.5 23.6 148.9 24.2 C 148.94 24.24 149 24.2 149 24.2 L 149 20.1 L 151.2 20.1 L 151.2 31.4 L 149.1 31.4 Z M 160 27.8 C 160 26.4 159.8 25.8 159 25.8 C 158.1 25.8 158 26.6 158 28 C 158 28.6 158 29.9 158.9 29.9 C 159.7 29.9 160 29.5 160 27.8 Z M 159.8 22.8 C 159.8 22.6 159.7 22.3 159.6 22.1 C 159.5 21.9 159.3 21.8 159 21.8 C 158 21.8 158 22.3 158 25.1 C 158.6 24.6 158.9 24.3 159.7 24.3 C 161.8 24.3 162.2 26.1 162.2 27.8 C 162.2 30.1 161.3 31.5 158.9 31.5 C 156 31.5 155.8 29.1 155.8 26.8 C 155.8 22.5 156.1 20.3 159.2 20.3 C 160.8 20.3 162.1 21 162 22.8 C 162 22.8 159.8 22.8 159.8 22.8 Z M 168.8 24.3 C 168.8 24.3 168.87 24.28 168.9 24.3 C 169.3 23.6 169.9 23.3 170.7 23.3 C 171.5 23.3 172.1 23.7 172.5 24.3 C 173 23.6 173.6 23.3 174.5 23.3 C 175.6 23.3 176.5 24 176.5 25 C 176.5 25.05 176.5 31.4 176.5 31.4 L 174.3 31.4 C 174.3 31.4 174.3 25.94 174.3 25.9 C 174.3 25.2 174.2 24.7 173.5 24.7 C 172.8 24.7 172.6 25.2 172.6 25.9 C 172.64 25.94 172.6 31.4 172.6 31.4 L 170.5 31.4 C 170.5 31.4 170.49 25.94 170.5 25.9 C 170.5 25.2 170.4 24.7 169.7 24.7 C 169 24.7 168.8 25.2 168.8 25.9 C 168.84 25.94 168.8 31.4 168.8 31.4 L 166.6 31.4 L 166.6 23.5 L 168.8 23.5 L 168.8 24.3 Z M 182.1 27.2 C 182.1 25.6 182 24.7 181.1 24.7 C 180.2 24.7 180.1 25.6 180.1 27.2 C 180.1 29.6 180.3 30.1 181.1 30.1 C 181.9 30.1 182.1 29.6 182.1 27.2 Z M 177.9 27.3 C 177.9 25.2 178.2 23.3 181.1 23.3 C 184 23.3 184.3 25.2 184.3 27.3 C 184.3 29.8 183.9 31.5 181.1 31.5 C 178.3 31.5 177.9 29.8 177.9 27.3 Z M 188.1 24.3 C 188.1 24.3 188.11 24.29 188.1 24.3 C 188.3 23.9 188.6 23.7 188.9 23.6 C 189.2 23.4 189.6 23.3 190 23.3 C 191 23.3 191.9 24 191.9 25 C 191.94 25.05 191.9 31.4 191.9 31.4 L 189.7 31.4 C 189.7 31.4 189.74 25.94 189.7 25.9 C 189.7 25.2 189.6 24.7 188.9 24.7 C 188.2 24.7 188.1 25.2 188.1 25.9 C 188.08 25.94 188.1 31.4 188.1 31.4 L 185.9 31.4 L 185.9 23.5 L 188.1 23.5 L 188.1 24.3 Z M 192.8 23.5 L 193.7 23.5 L 193.7 22.2 L 195.9 21.3 L 195.9 23.5 L 197 23.5 L 197 24.8 L 195.9 24.8 C 195.9 24.8 195.89 29.06 195.9 29.1 C 195.9 29.7 195.9 30 196.6 30 C 196.7 30 196.9 30 197 30 C 197 30 197 31.4 197 31.4 C 196.7 31.4 196.4 31.4 195.8 31.4 C 193.9 31.4 193.7 30.2 193.7 29.7 C 193.69 29.7 193.7 24.8 193.7 24.8 L 192.8 24.8 L 192.8 23.5 Z M 201.9 31.4 C 201.9 31.4 201.88 25.94 201.9 25.9 C 201.9 25.2 201.8 24.7 201.1 24.7 C 200.4 24.7 200.2 25.2 200.2 25.9 C 200.23 25.94 200.2 31.4 200.2 31.4 L 198 31.4 L 198 20.1 L 200.2 20.1 L 200.2 24.3 C 200.2 24.3 200.26 24.29 200.3 24.3 C 200.5 23.9 200.7 23.7 201 23.6 C 201.4 23.4 201.7 23.3 202.1 23.3 C 203.2 23.3 204.1 24 204.1 25 C 204.08 25.05 204.1 31.4 204.1 31.4 L 201.9 31.4 Z M 207.6 28.8 C 207.5 29.2 207.6 29.5 207.7 29.8 C 207.8 30 208 30.2 208.5 30.2 C 208.9 30.2 209.3 29.9 209.3 29.4 C 209.3 27.7 205.4 28.1 205.4 25.5 C 205.4 23.8 207.1 23.3 208.5 23.3 C 210 23.3 211.4 24.1 211.2 25.8 C 211.2 25.8 209.1 25.8 209.1 25.8 C 209.1 25.2 209 24.9 208.9 24.7 C 208.7 24.6 208.5 24.6 208.3 24.6 C 207.8 24.6 207.6 24.9 207.6 25.4 C 207.6 26.7 211.4 26.6 211.4 29.1 C 211.4 30.5 210.3 31.5 208.5 31.5 C 206.6 31.5 205.3 31 205.4 28.8 C 205.4 28.8 207.6 28.8 207.6 28.8 Z " stroke="none" fill="#003c71"/>  </g>  <g id="Polygon194478">    <path d="M 27.5 9.6 C 27.5 9.6 28.68 9.57 28.7 9.6 C 30.1 9.6 30.4 8.5 30.4 5.7 C 30.4 3.6 30.4 1.8 28.8 1.8 C 28.75 1.76 27.5 1.8 27.5 1.8 L 27.5 9.6 Z M 25.2 0 C 25.2 0 29.11 0.03 29.1 0 C 32.2 0 32.8 2.1 32.8 5.6 C 32.8 7.3 33 11.3 29 11.3 C 29.02 11.3 25.2 11.3 25.2 11.3 L 25.2 0 Z M 38.6 7.1 C 38.6 5.5 38.5 4.7 37.6 4.7 C 36.7 4.7 36.6 5.5 36.6 7.1 C 36.6 9.5 36.8 10.1 37.6 10.1 C 38.4 10.1 38.6 9.5 38.6 7.1 Z M 34.4 7.3 C 34.4 5.1 34.7 3.3 37.6 3.3 C 40.5 3.3 40.8 5.1 40.8 7.3 C 40.8 9.7 40.4 11.5 37.6 11.5 C 34.7 11.5 34.4 9.7 34.4 7.3 Z M 46.2 10.5 C 46.2 10.5 46.19 10.5 46.2 10.5 C 46 10.8 45.7 11.1 45.4 11.2 C 45.1 11.4 44.8 11.5 44.3 11.5 C 43.3 11.5 42.4 10.8 42.4 9.7 C 42.37 9.74 42.4 3.4 42.4 3.4 L 44.6 3.4 C 44.6 3.4 44.57 8.88 44.6 8.9 C 44.6 9.6 44.7 10.1 45.4 10.1 C 46.1 10.1 46.2 9.6 46.2 8.9 C 46.22 8.88 46.2 3.4 46.2 3.4 L 48.4 3.4 C 48.4 3.4 48.42 9.74 48.4 9.7 C 48.4 10.3 48.5 10.8 48.5 11.3 C 48.5 11.3 46.2 11.3 46.2 11.3 L 46.2 10.5 Z M 54.2 7.3 C 54.2 5.7 54.2 4.6 53.3 4.6 C 52.4 4.6 52.4 5.7 52.4 7.3 C 52.4 9.3 52.5 10.1 53.3 10.1 C 54.1 10.1 54.2 9.3 54.2 7.3 Z M 50.2 0 L 52.4 0 L 52.4 4.2 C 52.4 4.2 52.4 4.17 52.4 4.2 C 52.9 3.5 53.4 3.3 54.2 3.3 C 56.4 3.3 56.4 5.7 56.4 7.3 C 56.4 8.9 56.4 11.5 54.2 11.5 C 53.3 11.5 52.7 11.2 52.3 10.4 C 52.29 10.43 52.3 10.4 52.3 10.4 L 52.3 11.3 L 50.2 11.3 L 50.2 0 Z M 60.4 0 L 60.4 11.3 L 58.2 11.3 L 58.2 0 L 60.4 0 Z M 66.4 6.5 C 66.4 5.7 66.4 4.6 65.3 4.6 C 64.3 4.6 64.3 5.8 64.3 6.5 C 64.3 6.5 66.4 6.5 66.4 6.5 Z M 64.3 7.7 C 64.3 8.6 64.4 10.1 65.3 10.1 C 66.1 10.1 66.3 9.3 66.3 8.6 C 66.3 8.6 68.5 8.6 68.5 8.6 C 68.5 9.5 68.2 10.2 67.7 10.7 C 67.2 11.2 66.4 11.5 65.3 11.5 C 62.5 11.5 62.1 9.7 62.1 7.3 C 62.1 5.1 62.4 3.3 65.3 3.3 C 68.3 3.3 68.6 5.2 68.6 7.7 C 68.6 7.7 64.3 7.7 64.3 7.7 Z M 73.8 6.3 L 73.8 7.9 L 69.9 7.9 L 69.9 6.3 L 73.8 6.3 Z M 79.3 7.3 C 79.3 5.7 79.4 4.6 78.4 4.6 C 77.5 4.6 77.5 5.7 77.5 7.3 C 77.5 9.3 77.7 10.1 78.4 10.1 C 79.2 10.1 79.3 9.3 79.3 7.3 Z M 75.3 0 L 77.5 0 L 77.5 4.2 C 77.5 4.2 77.55 4.17 77.5 4.2 C 78 3.5 78.5 3.3 79.3 3.3 C 81.6 3.3 81.5 5.7 81.5 7.3 C 81.5 8.9 81.6 11.5 79.3 11.5 C 78.5 11.5 77.8 11.2 77.4 10.4 C 77.44 10.43 77.4 10.4 77.4 10.4 L 77.4 11.3 L 75.3 11.3 L 75.3 0 Z M 85.5 0 L 85.5 11.3 L 83.3 11.3 L 83.3 0 L 85.5 0 Z M 89.9 11.3 L 87.7 11.3 L 87.7 3.4 L 89.9 3.4 L 89.9 11.3 Z M 89.9 0 L 89.9 1.8 L 87.7 1.8 L 87.7 0 L 89.9 0 Z M 94 4.2 C 94 4.2 94.03 4.22 94 4.2 C 94.3 3.9 94.5 3.6 94.8 3.5 C 95.1 3.3 95.5 3.3 95.9 3.3 C 96.9 3.3 97.9 3.9 97.9 5 C 97.86 4.98 97.9 11.3 97.9 11.3 L 95.7 11.3 C 95.7 11.3 95.66 5.87 95.7 5.9 C 95.7 5.2 95.5 4.6 94.8 4.6 C 94.1 4.6 94 5.2 94 5.9 C 94 5.87 94 11.3 94 11.3 L 91.8 11.3 L 91.8 3.4 L 94 3.4 L 94 4.2 Z M 103.4 7.3 C 103.4 5.7 103.4 4.6 102.5 4.6 C 101.6 4.6 101.6 5.7 101.6 7.3 C 101.6 9.3 101.7 10.1 102.5 10.1 C 103.3 10.1 103.4 9.3 103.4 7.3 Z M 103.5 11.3 L 103.5 10.4 C 103.5 10.4 103.51 10.43 103.5 10.4 C 103.1 11.2 102.5 11.5 101.7 11.5 C 99.4 11.5 99.5 8.9 99.5 7.3 C 99.5 5.7 99.4 3.3 101.6 3.3 C 102.4 3.3 102.9 3.5 103.4 4.2 C 103.4 4.17 103.4 4.2 103.4 4.2 L 103.4 0 L 105.6 0 L 105.6 11.3 L 103.5 11.3 Z M 107.6 9.2 L 109.6 9.2 L 108.4 12.8 L 106.9 12.8 L 107.6 9.2 Z M 118.4 7.3 C 118.4 5.7 118.4 4.6 117.4 4.6 C 116.5 4.6 116.5 5.7 116.5 7.3 C 116.5 9.3 116.7 10.1 117.4 10.1 C 118.2 10.1 118.4 9.3 118.4 7.3 Z M 116.4 3.4 L 116.4 4.3 C 116.4 4.3 116.46 4.29 116.5 4.3 C 116.9 3.5 117.5 3.3 118.3 3.3 C 120.6 3.3 120.5 5.8 120.5 7.4 C 120.5 9 120.6 11.5 118.4 11.5 C 117.6 11.5 117 11.2 116.6 10.6 C 116.57 10.55 116.5 10.6 116.5 10.6 L 116.5 14.7 L 114.3 14.7 L 114.3 3.4 L 116.4 3.4 Z M 124.5 0 L 124.5 11.3 L 122.3 11.3 L 122.3 0 L 124.5 0 Z M 128.4 8.9 C 128.4 9.4 128.5 10.1 129.2 10.1 C 130.5 10.1 130.3 8.4 130.3 7.5 C 129.2 7.5 128.4 7.4 128.4 8.9 Z M 132.5 9.8 C 132.5 10.3 132.5 10.8 132.6 11.3 C 132.57 11.3 130.5 11.3 130.5 11.3 L 130.4 10.3 C 130.4 10.3 130.41 10.26 130.4 10.3 C 129.9 11.1 129.3 11.5 128.3 11.5 C 126.8 11.5 126.3 10.3 126.3 8.9 C 126.3 6.3 128.3 6.2 130.3 6.3 C 130.3 6.3 130.3 5.7 130.3 5.7 C 130.3 5 130.2 4.5 129.4 4.5 C 128.7 4.5 128.6 5.1 128.6 5.7 C 128.6 5.7 126.4 5.7 126.4 5.7 C 126.4 4.7 126.7 4.1 127.3 3.8 C 127.8 3.4 128.5 3.3 129.3 3.3 C 132.1 3.3 132.5 4.5 132.5 5.9 C 132.5 5.9 132.5 9.8 132.5 9.8 Z M 138.3 6.2 C 138.3 5.1 138 4.7 137.3 4.7 C 136.4 4.7 136.3 5.5 136.3 7.1 C 136.3 9.5 136.5 10.1 137.3 10.1 C 138 10.1 138.3 9.4 138.3 8.4 C 138.3 8.4 140.5 8.4 140.5 8.4 C 140.5 10.5 139.4 11.5 137.3 11.5 C 134.5 11.5 134.1 9.7 134.1 7.3 C 134.1 5.1 134.4 3.3 137.3 3.3 C 139.3 3.3 140.5 4.2 140.5 6.2 C 140.5 6.2 138.3 6.2 138.3 6.2 Z M 146.1 6.5 C 146.1 5.7 146.2 4.6 145.1 4.6 C 144.1 4.6 144.1 5.8 144.1 6.5 C 144.1 6.5 146.1 6.5 146.1 6.5 Z M 144.1 7.7 C 144.1 8.6 144.2 10.1 145.1 10.1 C 145.9 10.1 146.1 9.3 146.1 8.6 C 146.1 8.6 148.3 8.6 148.3 8.6 C 148.3 9.5 148 10.2 147.5 10.7 C 146.9 11.2 146.2 11.5 145.1 11.5 C 142.3 11.5 141.9 9.7 141.9 7.3 C 141.9 5.1 142.2 3.3 145.1 3.3 C 148.1 3.3 148.4 5.2 148.3 7.7 C 148.3 7.7 144.1 7.7 144.1 7.7 Z M 153.9 7.3 C 153.9 5.7 153.9 4.6 153 4.6 C 152.1 4.6 152.1 5.7 152.1 7.3 C 152.1 9.3 152.2 10.1 153 10.1 C 153.8 10.1 153.9 9.3 153.9 7.3 Z M 149.9 0 L 152.1 0 L 152.1 4.2 C 152.1 4.2 152.13 4.17 152.1 4.2 C 152.6 3.5 153.1 3.3 153.9 3.3 C 156.1 3.3 156.1 5.7 156.1 7.3 C 156.1 8.9 156.2 11.5 153.9 11.5 C 153 11.5 152.4 11.2 152 10.4 C 152.02 10.43 152 10.4 152 10.4 L 152 11.3 L 149.9 11.3 L 149.9 0 Z M 161.8 7.1 C 161.8 5.5 161.7 4.7 160.7 4.7 C 159.8 4.7 159.7 5.5 159.7 7.1 C 159.7 9.5 159.9 10.1 160.7 10.1 C 161.5 10.1 161.8 9.5 161.8 7.1 Z M 157.5 7.3 C 157.5 5.1 157.8 3.3 160.7 3.3 C 163.6 3.3 164 5.1 164 7.3 C 164 9.7 163.6 11.5 160.7 11.5 C 157.9 11.5 157.5 9.7 157.5 7.3 Z M 169.1 6.3 L 169.1 7.9 L 165.3 7.9 L 165.3 6.3 L 169.1 6.3 Z M 174.7 6.2 C 174.7 5.1 174.4 4.7 173.7 4.7 C 172.8 4.7 172.7 5.5 172.7 7.1 C 172.7 9.5 172.9 10.1 173.7 10.1 C 174.4 10.1 174.8 9.4 174.8 8.4 C 174.8 8.4 177 8.4 177 8.4 C 177 10.5 175.8 11.5 173.7 11.5 C 170.9 11.5 170.5 9.7 170.5 7.3 C 170.5 5.1 170.8 3.3 173.7 3.3 C 175.8 3.3 176.9 4.2 176.9 6.2 C 176.9 6.2 174.7 6.2 174.7 6.2 Z M 182.6 7.1 C 182.6 5.5 182.5 4.7 181.5 4.7 C 180.6 4.7 180.5 5.5 180.5 7.1 C 180.5 9.5 180.7 10.1 181.5 10.1 C 182.4 10.1 182.6 9.5 182.6 7.1 Z M 178.3 7.3 C 178.3 5.1 178.6 3.3 181.5 3.3 C 184.4 3.3 184.8 5.1 184.8 7.3 C 184.8 9.7 184.4 11.5 181.5 11.5 C 178.7 11.5 178.3 9.7 178.3 7.3 Z M 188.5 4.2 C 188.5 4.2 188.55 4.22 188.6 4.2 C 188.8 3.9 189 3.6 189.3 3.5 C 189.6 3.3 190 3.3 190.4 3.3 C 191.5 3.3 192.4 3.9 192.4 5 C 192.38 4.98 192.4 11.3 192.4 11.3 L 190.2 11.3 C 190.2 11.3 190.18 5.87 190.2 5.9 C 190.2 5.2 190.1 4.6 189.3 4.6 C 188.6 4.6 188.5 5.2 188.5 5.9 C 188.52 5.87 188.5 11.3 188.5 11.3 L 186.3 11.3 L 186.3 3.4 L 188.5 3.4 L 188.5 4.2 Z M 193.2 3.4 L 194.1 3.4 L 194.1 2.2 L 196.3 1.2 L 196.3 3.4 L 197.5 3.4 L 197.5 4.8 L 196.3 4.8 C 196.3 4.8 196.33 8.99 196.3 9 C 196.3 9.6 196.3 10 197 10 C 197.2 10 197.3 10 197.4 9.9 C 197.4 9.9 197.4 11.3 197.4 11.3 C 197.1 11.3 196.8 11.4 196.3 11.4 C 194.4 11.4 194.1 10.1 194.1 9.6 C 194.13 9.63 194.1 4.8 194.1 4.8 L 193.2 4.8 L 193.2 3.4 Z M 200.6 3.4 L 200.6 4.4 C 200.6 4.4 200.59 4.43 200.6 4.4 C 201 3.5 201.7 3.3 202.6 3.3 C 202.6 3.3 202.6 5.2 202.6 5.2 C 200.7 5.1 200.7 6.2 200.7 7 C 200.66 7.01 200.7 11.3 200.7 11.3 L 198.5 11.3 L 198.5 3.4 L 200.6 3.4 Z M 207.7 7.1 C 207.7 5.5 207.6 4.7 206.7 4.7 C 205.8 4.7 205.7 5.5 205.7 7.1 C 205.7 9.5 205.9 10.1 206.7 10.1 C 207.5 10.1 207.7 9.5 207.7 7.1 Z M 203.5 7.3 C 203.5 5.1 203.8 3.3 206.7 3.3 C 209.6 3.3 209.9 5.1 209.9 7.3 C 209.9 9.7 209.5 11.5 206.7 11.5 C 203.9 11.5 203.5 9.7 203.5 7.3 Z M 213.9 0 L 213.9 11.3 L 211.7 11.3 L 211.7 0 L 213.9 0 Z M 218.2 0 L 218.2 11.3 L 216 11.3 L 216 0 L 218.2 0 Z M 224.2 6.5 C 224.2 5.7 224.2 4.6 223.2 4.6 C 222.2 4.6 222.2 5.8 222.2 6.5 C 222.2 6.5 224.2 6.5 224.2 6.5 Z M 222.2 7.7 C 222.2 8.6 222.2 10.1 223.2 10.1 C 224 10.1 224.1 9.3 224.1 8.6 C 224.1 8.6 226.3 8.6 226.3 8.6 C 226.3 9.5 226 10.2 225.5 10.7 C 225 11.2 224.2 11.5 223.2 11.5 C 220.3 11.5 220 9.7 220 7.3 C 220 5.1 220.3 3.3 223.2 3.3 C 226.1 3.3 226.5 5.2 226.4 7.7 C 226.4 7.7 222.2 7.7 222.2 7.7 Z M 231.8 7.3 C 231.8 5.7 231.8 4.6 230.9 4.6 C 229.9 4.6 229.9 5.7 229.9 7.3 C 229.9 9.3 230.1 10.1 230.9 10.1 C 231.6 10.1 231.8 9.3 231.8 7.3 Z M 231.9 11.3 L 231.9 10.4 C 231.9 10.4 231.86 10.43 231.9 10.4 C 231.4 11.2 230.8 11.5 230 11.5 C 227.7 11.5 227.8 8.9 227.8 7.3 C 227.8 5.7 227.7 3.3 229.9 3.3 C 230.7 3.3 231.3 3.5 231.7 4.2 C 231.75 4.17 231.8 4.2 231.8 4.2 L 231.8 0 L 234 0 L 234 11.3 L 231.9 11.3 Z " stroke="none" fill="#003c71"/>  </g></svg>